<svg width="365" height="523" viewBox="0 0 365 523" fill="none" xmlns="http://www.w3.org/2000/svg">
<path d="M88.3357 1.70422C85.5537 3.0699 83.5052 6.48412 83.2523 10.0501C83.1006 12.5791 79.5346 14.4506 70.177 16.8532C53.1818 21.2285 40.8148 18.4212 35.8072 9.06375C34.3152 6.25651 34.037 6.25651 30.8504 9.36724C26.905 13.1861 16.2325 19.357 15.322 18.3454C15.2714 18.2948 14.9174 17.6119 14.538 16.8532C11.6043 10.9858 7.81074 9.31667 5.66105 12.9332C3.13199 17.2579 5.53459 21.0261 10.8203 21.0261C13.931 21.0261 15.0185 23.4287 16.3083 33.1403C17.497 42.2197 15.6002 54.2073 13.3241 52.0575C9.70752 48.6433 3.03083 51.3747 3.03083 56.2559C3.03083 60.4793 7.83602 61.3393 12.3377 57.9503C14.0322 56.6605 14.2092 56.8374 15.3726 61.0862C17.4464 68.7747 15.9796 79.7002 10.7444 95.7595C8.21538 103.549 7.22905 107.368 6.82441 110.984C6.57151 113.185 6.41977 113.741 5.78749 114.652C2.12037 119.887 1.61456 129.219 4.06773 146.341C5.20582 154.307 6.31859 158.682 9.47991 167.559C15.1197 183.391 15.6255 198.565 10.8456 207.544C10.0363 209.086 10.0363 209.086 8.87294 207.897C6.16685 205.141 2.85379 205.42 1.26049 208.555C-1.21797 213.487 3.18258 217.129 7.96248 214.094C8.59474 213.69 9.15114 213.36 9.20171 213.36C9.42932 213.36 10.4157 217.684 10.7444 220.139C11.7813 227.775 10.9973 237.083 8.41771 247.832C7.48197 251.751 7.30492 252.889 7.53254 253.116C8.39242 253.978 9.35345 251.777 11.0226 245.252C14.0828 233.162 14.361 220.771 11.7561 213.083C11.1238 211.235 11.1238 211.235 11.7308 210.325C17.8511 201.069 17.7752 185.591 11.5032 166.952C8.26597 157.342 7.53253 154.231 6.34389 145C4.59883 131.647 4.6747 123.149 6.57151 118.395C6.87499 117.636 6.875 117.636 7.22905 118.622C8.7212 122.82 12.4642 123.124 14.3104 119.179C16.1566 115.233 13.5011 110.681 9.96042 111.667C8.44299 112.097 9.22701 108.051 12.8435 96.6447C19.1409 76.8423 20.1525 65.4109 16.3842 56.6098C15.5496 54.6878 15.5496 54.6878 16.6371 52.5886C19.9501 46.2154 20.1273 33.4186 17.0418 23.2011C16.5612 21.6331 16.1819 20.318 16.2325 20.2928C16.2831 20.2674 17.1682 19.9134 18.2051 19.5087C22.9091 17.7384 28.6501 14.2989 31.8619 11.3399C33.5311 9.82247 33.5311 9.82247 34.2394 11.1629C40.0308 22.2148 62.6153 24.0864 81.836 15.0829C83.8845 14.1471 83.8845 14.1471 84.9467 15.7152C90.283 23.8588 101.866 25.5784 121.618 21.1778C132.898 18.6489 138.158 17.9913 142.356 18.5983C145.239 19.0282 145.214 18.9776 143.899 20.3432C139.777 24.6175 141.724 29.802 147.313 29.4478C151.916 29.1698 154.167 22.5689 150.651 19.6605C148.932 18.2442 156.873 16.4739 167.925 15.8163C174.197 15.4623 174.88 15.3358 174.88 14.7035C174.88 12.3515 156.418 13.6666 149.792 16.4992C147.692 17.4096 147.692 17.4096 146.124 16.8785C140.915 15.1588 134.744 15.5634 121.77 18.4971C106.14 22.0124 99.3876 22.0883 92.6856 18.7753C90.106 17.4855 88.0575 15.8163 87.1218 14.223C86.2872 12.7815 86.2872 12.7815 87.8551 11.694C94.81 6.91407 95.2146 -1.71 88.3357 1.70422ZM90.7888 4.53677C90.7888 5.39664 89.4484 7.31871 87.8046 8.76027C85.8572 10.5053 85.6044 10.4042 86.3631 8.22917C87.3746 5.42192 90.7888 2.5641 90.7888 4.53677ZM9.7834 14.6277C10.618 15.4875 12.3883 18.3707 12.3883 18.8512C12.3883 19.6099 8.49358 18.9776 7.68428 18.0925C6.77382 17.0808 7.43138 13.8184 8.54417 13.8184C8.79707 13.8184 9.35345 14.1977 9.7834 14.6277ZM148.502 21.0767C151.284 24.0609 148.982 28.1328 145.315 26.7164C143.393 25.9832 143.646 24.1368 145.973 21.8354C147.692 20.1663 147.642 20.1663 148.502 21.0767ZM11.4779 53.9291C12.4389 54.5867 12.4389 54.5867 11.7055 55.3454C9.35345 57.8238 5.12995 58.3296 5.68634 56.0535C6.31859 53.5497 9.27758 52.4369 11.4779 53.9291ZM12.3124 114.626C13.4758 116.422 12.0595 120.291 10.4662 119.684C9.32817 119.254 8.4683 115.031 9.37875 114.373C10.3398 113.716 11.7813 113.842 12.3124 114.626ZM7.12789 209.642C8.34184 210.883 8.29125 211.235 6.77382 212.172C4.47239 213.587 2.87909 213.032 3.1067 210.883C3.38489 208.303 5.25639 207.721 7.12789 209.642Z" fill="black"/>
<path d="M273.185 1.50199C270.201 3.17116 272.223 8.17868 277.333 11.6941C278.9 12.7816 278.9 12.7816 278.065 14.2231C275.512 18.5731 269.391 21.0009 260.869 21.0009C254.875 21.0263 254.166 20.9251 243.419 18.4972C230.445 15.5635 224.272 15.1589 219.064 16.8786C217.495 17.4097 217.495 17.4097 215.396 16.4993C208.77 13.6667 190.309 12.3516 190.309 14.7036C190.309 15.3359 190.991 15.4623 197.262 15.8164C205.38 16.2969 209.656 16.9545 213.246 18.2949C215.067 18.9777 215.219 19.1295 214.536 19.6606C211.022 22.569 213.271 29.1698 217.875 29.4481C223.464 29.802 225.411 24.6175 221.289 20.3435C219.974 18.9777 219.948 19.0283 222.831 18.5984C227.03 17.9914 232.29 18.6489 243.57 21.1781C263.322 25.5786 274.905 23.8588 280.241 15.7152C281.303 14.1472 281.303 14.1472 283.352 15.083C302.572 24.0864 325.157 22.2149 330.948 11.163C331.657 9.82257 331.657 9.82257 333.326 11.34C336.538 14.299 342.279 17.7385 346.983 19.5088C348.019 19.9135 348.905 20.2676 348.956 20.2929C349.005 20.3181 348.626 21.6333 348.146 23.2012C345.06 33.4186 345.238 46.2157 348.55 52.5889C349.639 54.6879 349.639 54.6879 348.804 56.6101C345.035 65.4112 346.046 76.8423 352.344 96.6448C355.961 108.051 356.744 112.097 355.227 111.667C351.687 110.681 349.032 115.233 350.877 119.179C352.723 123.124 356.467 122.82 357.958 118.622C358.313 117.636 358.313 117.636 358.616 118.395C360.513 123.149 360.589 131.647 358.844 145C357.655 154.231 356.922 157.342 353.685 166.952C347.412 185.591 347.336 201.069 353.457 210.325C354.064 211.235 354.064 211.235 353.432 213.083C350.826 220.771 351.105 233.162 354.164 245.252C355.834 251.777 356.795 253.978 357.655 253.117C357.882 252.889 357.706 251.751 356.771 247.832C354.191 237.083 353.406 227.775 354.443 220.139C354.771 217.685 355.758 213.36 355.985 213.36C356.037 213.36 356.592 213.69 357.226 214.094C362.006 217.129 366.406 213.487 363.927 208.555C362.334 205.42 359.02 205.141 356.315 207.897C355.151 209.086 355.151 209.086 354.343 207.544C349.563 198.565 350.067 183.391 355.708 167.559C363.269 146.366 364.914 122.542 359.4 114.652C358.768 113.741 358.616 113.185 358.364 110.985C357.958 107.368 356.972 103.549 354.443 95.7598C349.208 79.7002 347.742 68.7747 349.815 61.0865C350.978 56.8377 351.156 56.6605 352.85 57.9503C357.351 61.3393 362.158 60.4795 362.158 56.2559C362.158 51.3749 355.481 48.6436 351.864 52.0578C349.588 54.2074 347.691 42.2197 348.88 33.1404C350.17 23.4288 351.257 21.0263 354.367 21.0263C359.654 21.0263 362.055 17.258 359.527 12.9333C357.378 9.31675 353.584 10.9859 350.65 16.8533C350.27 17.612 349.916 18.2949 349.866 18.3455C348.956 19.3571 338.283 13.1862 334.337 9.36734C331.151 6.25661 330.872 6.25661 329.381 9.06386C324.374 18.4213 312.006 21.2285 295.011 16.8533C285.653 14.4507 282.087 12.5792 281.935 10.0502C281.582 4.56213 276.548 -0.344214 273.185 1.50199ZM276.043 4.46098C277.13 5.11854 278.141 6.48422 278.724 8.02694C279.634 10.4042 279.382 10.5307 277.383 8.76037C274.222 5.95312 273.21 2.71594 276.043 4.46098ZM357.503 14.6278C358.516 16.5751 357.933 18.3707 356.112 18.8766C354.899 19.2053 352.799 19.2053 352.799 18.8513C352.799 17.7891 355.834 13.8185 356.644 13.8185C356.896 13.8185 357.275 14.1725 357.503 14.6278ZM219.216 21.8355C221.541 24.1371 221.795 25.9832 219.872 26.7167C216.205 28.1328 213.905 24.0612 216.685 21.0768C217.546 20.1663 217.495 20.1663 219.216 21.8355ZM357.782 53.7774C359.299 54.6879 359.982 56.4077 359.147 57.1664C358.11 58.1021 355.202 57.1664 353.482 55.3455C352.067 53.8533 355.733 52.513 357.782 53.7774ZM355.809 114.374C356.719 115.031 355.86 119.255 354.722 119.685C353.129 120.291 351.712 116.422 352.875 114.626C353.406 113.842 354.847 113.716 355.809 114.374ZM361.399 209.187C362.765 210.628 362.207 212.98 360.538 212.931C358.262 212.855 356.744 211.262 357.706 209.997C358.971 208.352 360.337 208.049 361.399 209.187Z" fill="black"/>
<path d="M7.43138 270.39C7.35551 270.593 7.81074 272.894 8.41771 275.498C10.9721 286.02 11.7561 295.579 10.7444 303.191C10.4157 305.646 9.42932 309.97 9.20171 309.97C9.15114 309.97 8.59474 309.64 7.96248 309.236C3.18258 306.201 -1.21797 309.843 1.26049 314.775C2.85379 317.91 6.16685 318.189 8.87294 315.433C10.0363 314.244 10.0363 314.244 10.8456 315.786C15.6255 324.765 15.1197 339.94 9.47991 355.77C1.91805 376.965 0.274165 400.789 5.78749 408.679C6.41977 409.59 6.57151 410.145 6.82441 412.346C7.22905 415.963 8.21538 419.781 10.7444 427.571C15.9796 443.629 17.4464 454.555 15.3726 462.244C14.2092 466.493 14.0322 466.67 12.3377 465.38C7.83602 461.99 3.03083 462.851 3.03083 467.074C3.03083 471.956 9.70752 474.687 13.3241 471.273C15.6002 469.122 17.497 481.11 16.3083 490.19C15.0185 499.901 13.931 502.305 10.8203 502.305C5.53459 502.305 3.13199 506.072 5.66105 510.396C7.81074 514.013 11.6043 512.344 14.538 506.478C14.9174 505.719 15.2714 505.036 15.322 504.985C16.2325 503.974 26.905 510.144 30.8504 513.962C34.037 517.073 34.3152 517.073 35.8072 514.266C40.8148 504.909 53.1818 502.102 70.177 506.478C79.5346 508.879 83.1006 510.751 83.2523 513.279C83.6063 518.818 88.5379 523.598 92.0028 521.804C95.0376 520.235 92.9385 515.127 87.8551 511.637C86.2872 510.548 86.2872 510.548 87.1218 509.106C89.676 504.757 95.7964 502.329 104.319 502.329C110.313 502.305 111.021 502.405 121.77 504.833C134.744 507.767 140.915 508.171 146.124 506.451C147.692 505.92 147.692 505.92 149.792 506.83C156.418 509.664 174.88 510.979 174.88 508.627C174.88 507.995 174.197 507.868 167.925 507.513C159.807 507.033 155.532 506.375 151.941 505.036C150.12 504.353 149.969 504.201 150.651 503.67C154.167 500.761 151.916 494.16 147.313 493.883C141.724 493.528 139.777 498.712 143.899 502.987C145.214 504.353 145.239 504.302 142.356 504.732C138.158 505.339 132.898 504.681 121.618 502.153C101.866 497.752 90.283 499.471 84.9467 507.616C83.8845 509.182 83.8845 509.182 81.836 508.247C62.6153 499.243 40.0308 501.115 34.2394 512.168C33.5311 513.507 33.5311 513.507 31.8619 511.99C28.6501 509.031 22.9091 505.592 18.2051 503.822C17.1682 503.416 16.2831 503.063 16.2325 503.037C16.1819 503.012 16.5612 501.698 17.0418 500.129C20.1273 489.911 19.9501 477.115 16.6371 470.742C15.5496 468.642 15.5496 468.642 16.3842 466.721C20.1525 457.92 19.1409 446.488 12.8435 426.685C9.22701 415.28 8.44299 411.232 9.96042 411.663C13.5011 412.649 16.1566 408.097 14.3104 404.152C12.4642 400.206 8.7212 400.51 7.22905 404.707C6.875 405.694 6.87499 405.694 6.57151 404.935C4.6747 400.182 4.59883 391.684 6.34389 378.331C7.53253 369.099 8.26597 365.988 11.5032 356.377C17.7752 337.739 17.8511 322.262 11.7308 313.005C11.1238 312.095 11.1238 312.095 11.7561 310.247C13.2482 305.873 13.8552 299.576 13.3999 293.1C12.6665 282.074 8.69591 267.052 7.43138 270.39ZM6.77382 311.158C8.13951 311.943 8.26597 312.271 7.55784 313.233C5.91395 315.458 3.58722 315.23 3.13199 312.827C2.67676 310.35 4.16891 309.667 6.77382 311.158ZM11.7561 404.152C13.5011 405.897 12.9447 409.362 10.9215 409.362C8.87294 409.362 8.36712 407.869 9.50519 405.087C10.2133 403.393 10.7444 403.165 11.7561 404.152ZM9.96042 466.618C12.186 467.935 12.5654 468.642 11.4779 469.401C9.40404 470.791 6.54621 469.907 5.78749 467.605C5.18052 465.708 7.48197 465.152 9.96042 466.618ZM148.856 497.221C150.221 498.587 150.019 500.863 148.35 502.405C146.959 503.72 143.165 499.167 144.278 497.473C145.189 496.057 147.566 495.931 148.856 497.221ZM12.3883 504.478C12.3883 505.541 9.35345 509.512 8.54417 509.512C7.43138 509.512 6.77382 506.25 7.68428 505.237C8.49358 504.353 12.3883 503.72 12.3883 504.478ZM87.8046 514.569C90.9658 517.376 91.9776 520.614 89.1449 518.869C88.0575 518.211 87.0459 516.845 86.4642 515.303C85.5537 512.927 85.8066 512.8 87.8046 514.569Z" fill="black"/>
<path d="M356.644 270.339C356.24 270.82 354.923 274.993 354.064 278.533C351.105 290.521 350.853 302.66 353.432 310.247C354.064 312.095 354.064 312.095 353.457 313.005C347.336 322.261 347.412 337.739 353.685 356.377C356.922 365.988 357.655 369.099 358.844 378.33C360.589 391.684 360.513 400.181 358.616 404.935C358.313 405.693 358.313 405.693 357.958 404.707C356.467 400.509 352.723 400.206 350.877 404.151C349.032 408.097 351.687 412.649 355.227 411.663C356.744 411.232 355.961 415.28 352.344 426.685C346.046 446.488 345.035 457.92 348.804 466.721C349.639 468.642 349.639 468.642 348.55 470.742C345.238 477.115 345.06 489.911 348.146 500.129C348.626 501.697 349.005 503.012 348.956 503.037C348.905 503.063 348.019 503.416 346.983 503.822C342.279 505.592 336.538 509.03 333.326 511.989C331.657 513.507 331.657 513.507 330.948 512.168C325.157 501.115 302.572 499.243 283.352 508.247C281.303 509.182 281.303 509.182 280.241 507.615C274.905 499.471 263.322 497.752 243.57 502.153C232.29 504.681 227.03 505.339 222.831 504.732C219.948 504.302 219.974 504.353 221.289 502.987C225.411 498.712 223.464 493.528 217.875 493.883C213.271 494.16 211.022 500.76 214.536 503.67C216.257 505.085 208.315 506.857 197.262 507.513C190.991 507.868 190.309 507.995 190.309 508.626C190.309 510.978 208.77 509.664 215.396 506.83C217.495 505.92 217.495 505.92 219.064 506.451C224.272 508.171 230.445 507.767 243.419 504.833C259.048 501.318 265.801 501.242 272.502 504.554C275.082 505.844 277.13 507.513 278.065 509.106C278.9 510.548 278.9 510.548 277.333 511.637C272.25 515.127 270.15 520.235 273.185 521.803C276.65 523.598 281.582 518.818 281.935 513.279C282.087 510.751 285.653 508.879 295.011 506.477C312.006 502.101 324.374 504.909 329.381 514.266C330.872 517.073 331.151 517.073 334.337 513.962C338.283 510.144 348.956 503.974 349.866 504.985C349.916 505.036 350.27 505.719 350.65 506.477C353.584 512.344 357.378 514.013 359.527 510.396C362.055 506.071 359.654 502.304 354.367 502.304C351.257 502.304 350.17 499.901 348.88 490.19C347.691 481.11 349.588 469.122 351.864 471.273C355.481 474.687 362.158 471.956 362.158 467.073C362.158 462.851 357.351 461.99 352.85 465.38C351.156 466.669 350.978 466.493 349.815 462.244C347.742 454.555 349.208 443.629 354.443 427.571C356.972 419.781 357.958 415.963 358.364 412.345C358.616 410.145 358.768 409.589 359.4 408.679C363.068 403.444 363.573 394.112 361.12 376.989C359.982 369.023 358.869 364.647 355.708 355.77C350.067 339.939 349.563 324.765 354.343 315.786C355.151 314.244 355.151 314.244 356.315 315.433C359.02 318.189 362.334 317.91 363.927 314.775C366.406 309.843 362.006 306.201 357.226 309.236C356.592 309.64 356.037 309.97 355.985 309.97C355.758 309.97 354.771 305.646 354.443 303.191C353.432 295.579 354.216 286.019 356.771 275.498C357.378 272.894 357.833 270.593 357.757 270.39C357.579 269.935 356.998 269.91 356.644 270.339ZM361.854 310.956C362.662 311.943 361.626 314.623 360.386 314.775C358.337 315.054 356.416 312.499 357.882 311.461C359.603 310.247 361.145 310.046 361.854 310.956ZM355.378 404.479C356.264 405.972 356.516 408.349 355.834 408.907C353.912 410.449 351.839 408.476 352.547 405.769C353.129 403.671 354.544 403.013 355.378 404.479ZM359.223 466.239C360.007 467.1 359.096 468.921 357.427 469.78C355.606 470.715 352.218 469.325 353.356 468.111C355.253 466.087 358.237 465.127 359.223 466.239ZM220.707 497.246C222.148 498.89 218.406 503.871 216.837 502.405C214.233 499.977 215.422 496.159 218.685 496.411C219.847 496.512 220.227 496.663 220.707 497.246ZM356.112 504.453C357.933 504.96 358.516 506.754 357.503 508.678C356.744 510.168 355.506 509.41 353.709 506.299C352.446 504.125 353.078 503.619 356.112 504.453ZM279.203 513.685C279.203 515.127 277.458 518.01 276.043 518.869C273.21 520.614 274.222 517.376 277.383 514.569C278.875 513.23 279.203 513.078 279.203 513.685Z" fill="black"/>
</svg>
