<svg width="351" height="507" viewBox="0 0 351 507" fill="none" xmlns="http://www.w3.org/2000/svg">
<path d="M167.921 0.748949C166.025 1.43179 165.165 2.72162 164.962 5.20007C164.836 6.84396 164.836 6.84396 161.801 7.27391C152.343 8.63959 143.921 9.06952 127.533 9.09482C113.952 9.09482 111.65 8.99365 94.9078 7.72913C70.6035 5.88292 49.1319 6.00937 26.7498 8.15906C17.9235 9.01895 5.55643 9.17069 3.68493 8.46255C2.09163 7.85557 1.78814 8.18436 1.40879 10.941C0.473038 17.9212 0.194842 71.4864 0.5742 164.024C0.650072 180.514 0.59949 200.873 0.473038 209.295C0.296004 222.497 0.321295 225.835 0.700652 233.699C1.28233 245.687 1.28233 261.419 0.700652 273.406C0.321295 281.271 0.296004 284.609 0.473038 297.938C0.59949 306.411 0.650072 326.793 0.5742 343.208C0.194842 435.493 0.473038 489.185 1.40879 496.165C1.78814 498.921 2.09163 499.249 3.68493 498.642C5.55643 497.935 17.9235 498.087 26.7498 498.946C49.1319 501.097 70.6035 501.222 94.9078 499.376C111.65 498.111 113.952 498.011 127.533 498.011C143.921 498.035 152.343 498.466 161.801 499.832C164.836 500.262 164.836 500.262 164.962 501.905C165.367 506.863 170.703 508.405 174.547 504.687C175.584 503.676 175.584 503.676 176.621 504.687C180.465 508.405 185.802 506.863 186.206 501.905C186.333 500.262 186.333 500.262 189.368 499.832C198.826 498.466 207.247 498.035 223.636 498.011C237.217 498.011 239.519 498.111 256.26 499.376C280.566 501.222 302.038 501.097 324.42 498.946C333.245 498.087 345.612 497.935 347.485 498.642C349.078 499.249 349.381 498.921 349.761 496.165C350.696 489.185 350.975 435.493 350.595 343.208C350.519 326.793 350.569 306.411 350.696 297.938C350.872 284.609 350.848 281.271 350.468 273.406C349.886 261.419 349.886 245.687 350.468 233.699C350.848 225.835 350.872 222.497 350.696 209.295C350.569 200.873 350.519 180.514 350.595 164.024C350.975 71.4864 350.696 17.9212 349.761 10.941C349.381 8.18436 349.078 7.85557 347.485 8.46255C345.612 9.17069 333.245 9.01895 324.42 8.15906C302.038 6.00937 280.566 5.88292 256.26 7.72913C239.519 8.99365 237.217 9.09482 223.636 9.09482C207.247 9.06952 198.826 8.63959 189.368 7.27391C186.333 6.84396 186.333 6.84396 186.206 5.20007C185.802 0.243139 180.465 -1.29958 176.621 2.41813C175.584 3.42974 175.584 3.42974 174.547 2.41813C172.752 0.673078 170.046 -0.00976562 167.921 0.748949ZM172.17 3.73323C172.727 4.01143 173.662 4.69427 174.244 5.22538C174.851 5.78176 175.433 6.2117 175.584 6.2117C175.736 6.2117 176.318 5.78176 176.925 5.22538C181.174 1.33063 185.22 2.87336 182.944 7.5268C182.109 9.29713 176.166 16.5808 175.584 16.5808C175.357 16.5808 170.931 11.5733 169.742 9.95469C165.974 4.92189 167.39 1.33063 172.17 3.73323ZM81.9338 9.24656C84.4121 9.39831 90.7095 9.85354 95.9194 10.2582C113.952 11.6745 123.84 11.9779 138.155 11.548C150.572 11.1939 160.815 10.3593 165.392 9.373C165.822 9.27185 166.126 9.49946 166.783 10.4352C167.239 11.118 168.908 13.0148 170.526 14.684C172.12 16.3532 173.764 18.1488 174.168 18.6546C174.699 19.3627 175.079 19.6157 175.584 19.6157C176.09 19.6157 176.47 19.3627 177.001 18.6546C177.405 18.1488 179.049 16.3532 180.643 14.684C182.261 13.0148 183.93 11.118 184.386 10.4352C185.043 9.49946 185.347 9.27185 185.776 9.373C198.042 12.0538 227.556 12.4332 255.249 10.2582C271.385 8.99365 273.889 8.89249 288.506 8.91778C304.287 8.94308 310.66 9.17069 323.786 10.2835C332.79 11.0422 340.656 11.2951 345.537 11.0169C347.661 10.8904 347.661 10.8904 347.864 11.9021C348.723 16.2773 349.582 104.137 349.078 136.711C348.547 172.294 348.496 186.912 348.799 204.033C349.103 219.007 349.078 222.394 348.723 232.233C348.496 238.403 348.319 247.989 348.319 253.553C348.319 259.116 348.496 268.702 348.723 274.873C349.078 284.711 349.103 288.099 348.799 303.072C348.496 320.193 348.547 334.811 349.078 370.395C349.582 402.968 348.723 490.828 347.864 495.203C347.661 496.214 347.661 496.214 345.537 496.089C340.656 495.81 332.79 496.063 323.786 496.821C310.66 497.935 304.287 498.162 288.506 498.187C273.889 498.214 271.385 498.111 255.249 496.848C237.243 495.431 227.353 495.128 213.014 495.558C200.597 495.911 190.355 496.746 185.776 497.732C185.347 497.834 185.043 497.607 184.386 496.67C183.93 495.987 182.261 494.09 180.643 492.421C179.049 490.752 177.405 488.957 177.001 488.426C176.47 487.743 176.09 487.489 175.584 487.489C175.079 487.489 174.699 487.743 174.168 488.426C173.764 488.957 172.12 490.752 170.526 492.421C168.908 494.09 167.239 495.987 166.783 496.67C166.126 497.607 165.822 497.834 165.392 497.732C153.126 495.052 123.612 494.672 95.9194 496.848C79.784 498.111 77.2802 498.214 62.6624 498.187C46.8812 498.162 40.508 497.935 27.3822 496.821C18.3787 496.063 10.5134 495.81 5.6323 496.089C3.5079 496.214 3.5079 496.214 3.30557 495.203C2.4457 490.828 1.58582 402.968 2.09163 370.395C2.62272 334.811 2.67331 320.193 2.36983 303.072C2.06634 288.099 2.09163 284.711 2.4457 274.873C2.95151 260.66 2.95151 246.446 2.4457 232.233C2.09163 222.394 2.06634 219.007 2.36983 204.033C2.67331 186.912 2.62272 172.294 2.09163 136.711C1.58582 104.137 2.4457 16.2773 3.30557 11.9021C3.5079 10.8904 3.5079 10.8904 5.6323 11.0169C10.5134 11.2951 18.3534 11.0422 27.2557 10.2835C44.4279 8.8419 67.2906 8.41198 81.9338 9.24656ZM178.113 493.18C182.109 497.707 183.374 499.68 183.602 501.753C183.956 504.788 180.187 504.864 176.925 501.88C176.318 501.324 175.736 500.894 175.584 500.894C175.433 500.894 174.851 501.324 174.244 501.88C169.995 505.774 165.949 504.232 168.225 499.579C169.059 497.808 175.003 490.524 175.584 490.524C175.686 490.524 176.798 491.713 178.113 493.18Z" fill="black"/>
</svg>
