<svg width="368" height="517" viewBox="0 0 368 517" fill="none" xmlns="http://www.w3.org/2000/svg">
<path d="M147.251 0.462986C142.471 1.06996 140.372 2.18273 135.212 6.93735C133.139 8.85942 131.596 10.0228 130.331 10.7056C124.97 13.4876 124.666 14.0946 124.692 22.0863C124.717 28.9147 127.625 34.934 133.999 41.3324C141.965 49.3242 148.895 48.5655 155.369 39.0311C157.62 35.7432 159.011 34.4029 162.931 31.6715C166.472 29.2182 168.975 26.9675 170.872 24.5142C171.58 23.6037 172.263 22.7439 172.364 22.6174C172.718 22.1876 171.833 25.5005 170.923 27.9791C166.725 39.4357 157.519 51.7016 153.371 51.4234C148.44 51.0946 136.983 49.6024 127.701 48.1102C109.467 45.2019 99.7046 46.4917 89.5378 53.2443C77.5502 61.1855 72.8968 73.7802 74.9201 92.8998C75.8558 101.853 75.9569 101.17 73.4531 103.319C67.8386 108.175 59.8469 110.654 50.464 110.401C43.0793 110.224 42.9023 110.451 46.1648 116.066C53.0691 127.927 60.201 134.351 65.3096 133.289C72.1633 131.847 79.093 120.77 79.9276 109.92C80.0539 108.2 80.2815 107.391 81.1668 105.419C82.7601 101.853 84.581 96.8197 86.326 91.1294C94.4949 64.2204 100.362 59.0105 117.585 63.3858C140.498 69.1773 157.696 66.37 167.18 55.2676C167.863 54.4834 169.102 53.4467 169.911 52.9408C174.969 49.9059 180.381 43.8614 182.961 38.3482C184.099 35.9203 185.996 30.4828 185.996 29.5976C185.996 28.3836 186.401 29.1678 187.109 31.7474C193.658 55.8491 199.5 64.2709 212.804 68.7473C223.906 72.4904 232.556 70.9982 242.292 63.6639C247.578 59.6933 252.865 59.6933 263.081 63.6893C275.423 68.5197 279.368 72.111 282.959 81.772C285.893 89.7132 289.435 94.4173 294.188 96.7439C295.25 97.2497 296.187 97.705 296.236 97.7556C296.971 98.2613 293.025 106.38 289.535 111.514C285.463 117.533 285.463 117.988 289.636 120.138C294.012 122.363 296.161 124.159 300.284 128.888C309.565 139.662 312.6 138.347 315.61 122.211C318.391 107.214 314.673 92.1663 304.634 78.1049C303.672 76.7392 303.368 76.0564 302.94 74.0583C299.905 60.7049 290.85 49.9312 280.531 47.5033C268.949 44.7973 252.99 46.0112 237.842 50.7912C223.806 55.2169 220.492 55.6974 215.964 53.9778C210.604 51.9292 208.48 49.2737 205.318 40.5737C204.003 36.9825 203.901 37.1595 206.279 38.3987C212.171 41.5094 224.665 43.7856 229.117 42.597C233.897 41.3324 236.146 38.0193 237.184 30.6598C239.081 17.4835 239.029 16.4972 236.577 10.9585C235.767 9.16291 234.807 6.73502 234.452 5.59695C233.187 1.80338 231.897 1.19641 224.31 1.01938C213.891 0.791764 194.368 2.99203 188.93 5.01528C187.513 5.54638 187.412 5.57167 186.198 5.16702C184.504 4.63592 180.356 4.61062 178.763 5.16702C177.625 5.54638 177.549 5.54638 176.158 4.93941C170.265 2.28391 153.371 -0.321019 147.251 0.462986ZM226.841 3.97836C232.303 4.61062 215.56 5.97631 206.355 5.64754C200.79 5.44521 200.79 5.44521 204.204 4.96469C211.994 3.90249 222.338 3.44726 226.841 3.97836ZM156.507 5.16702C157.721 5.34405 157.721 5.34405 155.622 5.95102C152.612 6.81089 149.982 8.12601 145.91 10.8068C138.247 15.8902 131.697 18.2169 128.334 17.0788C126.336 16.396 127.372 15.0809 131.47 13.1082C133.645 12.046 135.314 10.9838 137.312 9.44111C142.977 4.96469 147.605 3.92778 156.507 5.16702ZM232.783 6.17864C232.783 6.40625 233.366 7.97427 234.073 9.64344C236.4 15.1568 236.704 17.2559 235.97 22.7187C235.767 24.312 235.515 26.4869 235.439 27.5238C234.705 36.0467 231.924 39.815 226.461 39.7391C221.226 39.6885 213.791 37.4882 208.252 34.3775C206.38 33.3407 204.356 32.2279 203.749 31.9244C202.763 31.4439 202.586 31.2163 201.852 29.3954C200.234 25.4247 196.189 20.2908 192.951 18.1916C191.181 17.0283 191.181 17.0283 191.534 16.0166C192.192 14.0693 191.964 11.4391 190.927 8.9606C190.726 8.48007 190.953 8.48007 201.701 8.63181C218.696 8.85942 231.063 7.79722 232.152 6.02689C232.404 5.62225 232.783 5.72341 232.783 6.17864ZM170.24 7.87309C173.629 8.25245 173.477 8.1513 172.718 9.69401C171.732 11.6161 172.061 13.7405 173.654 15.9155C173.882 16.2695 173.705 16.7501 172.465 18.6974C169.203 23.9831 166.446 26.841 161.338 30.2804C158.303 32.329 157.19 33.2901 153.371 37.1595C150.185 40.3713 148.566 41.8129 147.63 42.2935C140.827 45.6823 129.826 35.0099 127.701 22.9715C127.069 19.3549 127.018 19.4308 129.016 19.886C133.088 20.7965 139.183 18.5204 146.543 13.3611C154.433 7.82253 159.365 6.68445 170.24 7.87309ZM185.971 8.83414C188.651 10.3263 189.233 14.2716 187.058 16.1684C184.554 18.3687 176.385 15.5361 176.385 12.476C176.385 9.26409 182.582 6.91207 185.971 8.83414ZM177.65 19.0515C178.712 19.608 182.177 20.6954 182.86 20.6954C183.593 20.6954 183.593 20.5689 182.835 24.1855C179.269 40.7255 171.732 50.5635 162.172 51.1705C160.882 51.2716 159.542 51.3727 159.239 51.4486C158.809 51.5244 159.239 51.044 160.629 49.8048C168.115 43.1534 173.958 31.9496 176.512 19.3549C176.664 18.571 176.689 18.5457 177.65 19.0515ZM192.116 21.1506C195.682 24.9442 198.21 29.5217 199.754 34.9845C203.977 50.007 207.29 54.9893 214.802 57.6448C220.568 59.6681 224.007 59.2633 239.359 54.61C245.023 52.9156 249.147 51.7775 252.889 50.9175C253.344 50.8164 252.561 51.4233 250.968 52.3845C247.882 54.2558 246.137 55.5204 240.573 59.921C230.735 67.7357 223.451 69.1014 212.753 65.2067C202.207 61.3625 198.338 56.0515 191.989 36.7549C187.64 23.5533 186.957 20.6195 188.019 20.1895C188.424 20.0126 188.93 19.6838 189.183 19.4056C189.739 18.7986 190.068 18.9756 192.116 21.1506ZM276.157 50.3105C284.503 51.3475 288.801 54.5847 293.101 63.1834C297.83 72.6421 299.45 81.3167 298.033 89.865C297.754 91.5341 297.526 93.0009 297.526 93.102C297.502 94.0125 290.622 87.2599 288.928 84.6551C288.346 83.7698 286.804 80.8363 285.489 78.1808C284.199 75.4998 282.682 72.6421 282.151 71.8328C277.724 65.3331 263.612 58.53 253.32 57.9231C250.361 57.7459 250.361 57.7459 251.878 56.785C259.921 51.651 268.519 49.3748 276.157 50.3105ZM123.023 51.8027C144.393 55.0145 154.029 55.9756 159.871 55.4193C162.552 55.1663 162.552 55.1917 160.124 56.8355C149.704 63.8663 136.781 64.9285 119.204 60.1738C110.529 57.8218 105.825 57.7713 100.59 59.921C92.421 63.3352 88.4757 70.2395 81.2933 93.7344C80.5598 96.1117 79.9276 98.0591 79.8769 98.0337C79.0424 97.1486 78.4354 80.3304 79.1182 76.5875C82.6842 56.8861 98.2885 48.0598 123.023 51.8027ZM305.696 87.083C310.248 95.0242 312.879 106.683 311.968 114.776C311.386 119.834 308.858 131.468 308.351 131.468C307.769 131.468 305.544 129.52 301.978 125.904C297.856 121.706 295.453 119.758 292.266 118.114C290.901 117.381 290.243 116.926 290.37 116.723C290.47 116.546 291.407 115.282 292.469 113.891C298.463 106.051 302.382 96.491 303.596 86.6277C303.951 83.8205 303.799 83.7953 305.696 87.083ZM75.7292 106.86C75.6029 116.521 68.2434 129.065 63.0587 128.357C60.7321 128.054 56.4074 124.639 53.3726 120.745C51.9056 118.898 48.4155 113.739 48.4155 113.461C48.4155 113.385 50.5399 113.36 53.1702 113.36C60.6815 113.385 70.4182 110.451 74.4648 106.961C75.5775 106 75.7292 106 75.7292 106.86Z" fill="black"/>
<path d="M101.274 3.62436C96.3675 4.43366 91.9417 5.74876 84.7085 8.556C54.0312 20.4426 32.9137 24.4384 18.4981 21.1C15.5138 20.4172 15.2103 20.5944 12.2008 25.0454C11.1891 26.5376 8.76125 30.0783 6.81388 32.8855C0.415386 42.1923 0.213061 42.951 2.5145 48.1357C6.99092 58.2771 9.7223 66.6736 11.7202 76.3345C12.6307 80.7857 16.2978 101.448 17.1577 107.062C22.2663 139.94 19.7626 169.353 8.33131 210.754C-1.68373 247.02 -1.60786 257.49 8.83712 287.636C25.7564 336.372 27.6279 349.194 24.2644 392.845C23.7837 399.091 23.2274 407.741 22.9998 412.065C22.0134 432.35 19.889 448.814 16.5507 461.989C14.6539 469.527 11.265 480.68 9.57055 485.029C7.44615 490.467 8.23015 493.375 15.0586 505.211C19.7373 513.329 19.5856 513.278 32.1802 508.574C40.5009 505.438 46.8993 503.669 60.0503 500.861C74.5924 497.775 99.2759 496.561 111.972 498.331C121.405 499.648 136.706 503.972 151.627 509.587C177.424 519.247 191.03 519.247 216.827 509.587C231.747 503.972 247.048 499.648 256.481 498.331C269.178 496.561 293.861 497.775 308.404 500.861C321.554 503.669 327.952 505.438 336.273 508.574C348.868 513.278 348.716 513.329 353.396 505.211C360.224 493.375 361.007 490.467 358.883 485.029C351.372 465.834 346.895 441.53 345.454 412.065C345.226 407.741 344.67 399.091 344.188 392.845C340.825 349.219 342.722 336.372 359.617 287.636C370.061 257.49 370.137 247.02 360.122 210.754C348.691 169.353 346.188 139.94 351.296 107.062C352.155 101.448 355.823 80.7857 356.734 76.3345C358.731 66.6736 361.463 58.2771 365.939 48.1357C368.24 42.951 368.039 42.1923 361.639 32.8855C359.693 30.0783 357.265 26.5376 356.252 25.0454C353.244 20.5944 352.94 20.4172 349.955 21.1C335.539 24.4384 314.371 20.4172 283.745 8.556C271.606 3.82669 259.77 1.87932 254.66 3.75081C252.46 4.56012 253.245 5.14179 256.633 5.21766C259.618 5.29353 259.618 5.29353 259.44 6.22929C258.784 9.82053 257.57 11.9197 255.419 13.1336C253.801 14.0441 253.624 14.2717 254.028 14.7522C255.267 16.2696 259.087 14.0693 260.478 11.0345C261.033 9.82053 261.033 9.82053 261.843 11.4391C264.499 16.8513 270.189 18.2423 273.856 14.3981C274.59 13.6141 274.59 13.6141 275.045 14.8786C276.714 19.6333 282.884 21.3531 286.906 18.1664C287.867 17.4077 287.867 17.4077 288.044 18.3434C289.157 24.2614 296.037 26.6893 300.361 22.6681C301.272 21.8083 301.272 21.8083 301.424 22.6175C302.789 29.8253 312.247 32.2027 315.484 26.1582C315.839 25.4754 315.839 25.4754 316.167 26.8158C317.964 33.8719 324.665 35.541 328.104 29.8C328.383 29.3196 328.635 29.0666 328.635 29.2689C328.635 30.0024 330.255 32.8349 331.241 33.8465C334.276 36.9067 337.083 36.4515 340.294 32.3797C340.953 31.5451 340.953 31.5451 341.104 32.5821C341.736 37.3365 346.136 38.7276 349.955 35.3639C350.816 34.6306 350.816 34.6306 350.461 35.9456C349.399 40.0427 351.675 43.4569 355.493 43.4569C356.176 43.4569 356.176 43.4569 355.038 44.595C352.054 47.5792 351.878 52.5363 354.659 54.61C355.672 55.3687 355.672 55.394 354.179 55.9251C348.716 57.8725 346.616 65.3079 350.385 69.5819C351.195 70.5178 351.195 70.5178 350.588 70.5178C344.67 70.5178 341.812 78.9141 346.339 82.986C347.553 84.0734 347.553 84.0734 345.96 84.7816C339.283 87.69 338.018 97.3257 343.912 100.487C345.099 101.144 345.074 101.17 343.278 101.701C337.715 103.32 336.905 109.87 341.66 114.675C343.178 116.218 343.178 116.218 341.964 116.648C336.905 118.443 335.615 125.601 339.636 129.622C341.205 131.164 341.205 131.164 340.37 131.316C334.2 132.479 333.542 142.924 339.484 145.757C340.75 146.364 340.75 146.339 339.308 147.3C333.87 150.866 334.856 158.453 341.18 161.564C342.798 162.348 342.798 162.348 341.736 163.182C335.97 167.557 336.476 176.359 342.622 179.166C344.113 179.823 344.113 179.823 342.874 180.531C334.908 185.084 336.88 196.363 345.808 197.376C347.275 197.527 347.275 197.527 346.061 198.665C340.421 203.925 343.278 213.585 350.941 215.154C352.358 215.458 352.358 215.458 350.512 217.303C344.492 223.324 346.036 231.087 353.648 233.035C355.393 233.49 355.393 233.49 354.331 234.147C348.564 237.815 349.45 246.768 355.873 249.7C357.417 250.41 357.417 250.41 356 251.093C350.613 253.646 349.424 261.032 353.699 265.305C354.482 266.115 354.989 266.771 354.786 266.771C348.691 266.771 347.072 277.648 352.713 280.607C353.648 281.111 353.648 281.111 352.282 281.415C346.188 282.78 343.38 290.546 347.73 294.009C348.792 294.844 348.817 294.996 347.957 295.199C342.064 296.691 338.904 306.959 342.899 311.714C343.557 312.497 343.557 312.497 342.747 312.674C336.021 314.091 333.111 324.081 338.069 328.658C339.208 329.695 339.208 329.695 338.498 329.999C333.162 332.199 331.139 342.897 335.236 347.095C336.249 348.132 336.249 348.132 334.401 349.016C325.93 353.088 325.854 365.734 334.276 368.542C334.68 368.667 334.629 368.819 333.845 369.856C329.293 375.825 330.255 385.41 335.566 386.952C336.753 387.307 336.753 387.307 335.262 388.469C329.672 392.82 330.38 400.153 336.78 404.478C338.018 405.313 338.018 405.313 337.184 405.819C331.29 409.486 331.342 420.335 337.26 424.256C338.221 424.888 338.221 424.888 337.512 425.597C334.276 428.859 335.615 436.522 339.915 439.254C340.977 439.91 340.977 439.91 339.663 441.2C333.415 447.346 335.539 457.361 343.305 458.398C344.291 458.55 344.291 458.55 343.229 459.309C337.538 463.457 340.547 474.659 347.375 474.659C348.54 474.659 348.616 474.963 347.629 475.672C343.912 478.377 343.532 483.487 346.795 486.774C347.426 487.381 347.806 487.963 347.654 488.013C345.126 488.847 343.709 492.237 344.695 495.019C344.898 495.575 345.074 496.055 345.074 496.055C345.074 496.082 344.367 495.803 343.506 495.475C340.016 494.058 335.287 495.6 335.186 498.155C335.186 498.382 334.959 498.028 334.705 497.371C332 490.719 323.172 489.126 320.164 494.741C319.657 495.676 319.278 495.93 319.278 495.323C319.278 494.361 317.633 491.782 316.116 490.391C311.084 485.661 305.191 485.661 302.535 490.365C301.979 491.378 301.575 491.63 301.575 490.972C301.575 483.639 290.726 481.211 285.085 487.281C283.467 489.026 283.467 489.026 283.138 487.912C280.912 480.401 266.523 482.07 266.42 489.834C266.42 490.365 266.295 490.264 265.688 489.202C261.287 481.514 247.301 482.956 247.2 491.099C247.2 491.302 246.845 490.871 246.417 490.112C241.838 482.146 228.966 485.864 230.888 494.613C231.015 495.22 230.836 495.12 229.421 493.754C223.528 488.115 214.803 491.427 214.372 499.469C214.272 501.62 214.272 501.62 212.855 500.279C205.42 493.123 194.393 496.992 194.065 506.855C194.065 507.259 193.963 507.159 193.711 506.449C189.968 496.283 179.042 495.019 174.743 504.276C174.136 505.59 174.136 505.59 173.858 504.477C173.377 502.607 173.301 502.379 172.795 501.393C169.811 495.475 161.162 494.917 155.598 500.279C154.182 501.62 154.182 501.62 154.081 499.469C153.65 491.427 144.925 488.115 139.033 493.754C137.616 495.12 137.439 495.22 137.566 494.613C139.488 485.864 126.615 482.146 122.037 490.112C121.607 490.871 121.253 491.302 121.253 491.099C121.152 482.956 107.166 481.514 102.766 489.202C102.159 490.264 102.033 490.365 102.033 489.834C101.931 482.07 87.5412 480.401 85.3155 487.912C84.9868 489.026 84.9868 489.026 83.3683 487.281C77.7284 481.211 66.8787 483.639 66.8787 490.972C66.8787 491.63 66.4741 491.378 65.9178 490.365C63.2623 485.661 57.3696 485.661 52.3368 490.391C50.8194 491.782 49.1754 494.361 49.1754 495.323C49.1754 495.93 48.7961 495.676 48.2902 494.741C45.2808 489.126 36.4543 490.719 33.7483 497.371C33.4953 498.028 33.2677 498.382 33.2677 498.155C33.1666 495.6 28.4373 494.058 24.9472 495.475C24.0872 495.803 23.3791 496.082 23.3791 496.055C23.3791 496.055 23.5561 495.575 23.7585 495.019C24.7448 492.237 23.3285 488.847 20.7995 488.013C20.6478 487.963 21.0271 487.381 21.6593 486.774C24.9218 483.487 24.5424 478.377 20.8247 475.672C19.8384 474.963 19.9143 474.659 21.0778 474.659C27.9062 474.659 30.9156 463.457 25.2253 459.309C24.1631 458.55 24.1631 458.55 25.1494 458.398C32.9137 457.361 35.0381 447.346 28.7912 441.2C27.4762 439.91 27.4762 439.91 28.5384 439.254C32.8378 436.522 34.1781 428.859 30.9411 425.597C30.2328 424.888 30.2328 424.888 31.1939 424.256C37.1119 420.335 37.1625 409.486 31.2698 405.819C30.4352 405.313 30.4352 405.313 31.6744 404.478C38.073 400.153 38.781 392.82 33.1918 388.469C31.6998 387.307 31.6998 387.307 32.8883 386.952C38.1993 385.41 39.1604 375.825 34.6081 369.856C33.8242 368.819 33.7735 368.667 34.1781 368.542C42.5998 365.734 42.524 353.088 34.0518 349.016C32.2055 348.132 32.2055 348.132 33.2172 347.095C37.3143 342.897 35.291 332.199 29.9547 329.999C29.2465 329.695 29.2465 329.695 30.3845 328.658C35.3416 324.081 32.4331 314.091 25.7059 312.674C24.8966 312.497 24.8966 312.497 25.5542 311.714C29.5499 306.959 26.3888 296.691 20.496 295.199C19.6362 294.996 19.6615 294.844 20.7236 294.009C25.0735 290.546 22.2663 282.78 16.1714 281.415C14.8057 281.111 14.8057 281.111 15.7414 280.607C21.3812 277.648 19.7626 266.771 13.6676 266.771C13.4653 266.771 13.9711 266.115 14.7551 265.305C19.0292 261.032 17.8405 253.646 12.4537 251.093C11.0374 250.41 11.0374 250.41 12.5801 249.7C19.0039 246.768 19.889 237.815 14.1228 234.147C13.0606 233.49 13.0606 233.49 14.8057 233.035C22.418 231.087 23.9609 223.324 17.9417 217.303C16.0955 215.458 16.0955 215.458 17.5118 215.154C25.1748 213.585 28.0325 203.925 22.3928 198.665C21.1789 197.527 21.1789 197.527 22.6456 197.376C31.5733 196.363 33.5459 185.084 25.5794 180.531C24.3402 179.823 24.3402 179.823 25.8322 179.166C31.9778 176.359 32.4837 167.557 26.7175 163.182C25.6553 162.348 25.6553 162.348 27.2738 161.564C33.5966 158.453 34.5829 150.866 29.1454 147.3C27.7038 146.339 27.7038 146.364 28.9684 145.757C34.9116 142.924 34.254 132.479 28.0832 131.316C27.2486 131.164 27.2486 131.164 28.8167 129.622C32.8378 125.601 31.548 118.443 26.4899 116.648C25.2759 116.218 25.2759 116.218 26.7933 114.675C31.548 109.87 30.7387 103.32 25.1748 101.701C23.3791 101.17 23.3539 101.144 24.5424 100.487C30.4352 97.3257 29.1706 87.69 22.4939 84.7816C20.9006 84.0734 20.9006 84.0734 22.1145 82.986C26.6416 78.9141 23.7837 70.5178 17.8658 70.5178C17.2589 70.5178 17.2589 70.5178 18.0682 69.5819C21.8365 65.3079 19.7373 57.8725 14.2746 55.9251C12.7824 55.394 12.7824 55.3687 13.7941 54.61C16.576 52.5363 16.399 47.5792 13.4147 44.595C12.2766 43.4569 12.2766 43.4569 12.9595 43.4569C16.7783 43.4569 19.0545 40.0427 17.9923 35.9456C17.6382 34.6306 17.6382 34.6306 18.4981 35.3639C22.3169 38.7276 26.7175 37.3365 27.3497 32.5821C27.5014 31.5451 27.5014 31.5451 28.159 32.3797C31.3709 36.4515 34.1781 36.9067 37.213 33.8465C38.1993 32.8349 39.818 30.0024 39.818 29.2689C39.818 29.0666 40.0709 29.3196 40.3491 29.8C43.7886 35.541 50.4905 33.8719 52.2862 26.8158C52.6149 25.4754 52.6149 25.4754 52.969 26.1582C56.2063 32.2027 65.6648 29.8253 67.0305 22.6175C67.1822 21.8083 67.1822 21.8083 68.0927 22.6681C72.4173 26.6893 79.2964 24.2614 80.4093 18.3434C80.5862 17.4077 80.5862 17.4077 81.5473 18.1664C85.5685 21.3531 91.7394 19.6333 93.4085 14.8786C93.8638 13.6141 93.8638 13.6141 94.5972 14.3981C98.2643 18.2423 103.955 16.8513 106.61 11.4391C107.42 9.82053 107.42 9.82053 107.976 11.0345C109.367 14.0693 113.186 16.2696 114.425 14.7522C114.83 14.2717 114.653 14.0441 113.034 13.1336C110.884 11.9197 109.67 9.82053 109.013 6.22929C108.836 5.29353 108.836 5.29353 111.82 5.21766C114.602 5.14179 114.804 5.1165 114.804 4.63599C114.804 3.42204 106.307 2.78977 101.274 3.62436ZM105.953 6.7098C104.865 14.0441 98.0367 16.7501 95.2042 11.0092C94.0661 8.70774 94.0914 8.07549 95.2801 7.64554C97.2021 6.9627 103.676 5.6476 105.548 5.54645C106.104 5.52114 106.13 5.57173 105.953 6.7098ZM268.241 6.4316C274.69 7.772 274.793 7.87316 273.249 11.0092C270.417 16.7754 263.588 14.0441 262.501 6.7098C262.274 5.29353 262.577 5.26824 268.241 6.4316ZM91.79 11.9702C91.183 18.5205 84.2028 19.962 81.1932 14.1452C80.6115 13.0577 80.6369 13.0071 82.2554 12.4254C83.0394 12.122 85.4672 11.2115 87.6171 10.3516C92.1439 8.60659 92.0935 8.58131 91.79 11.9702ZM283.112 11.2115C288.347 13.26 287.843 12.9313 287.336 13.9935C284.049 20.8978 275.373 17.5088 276.663 9.82053C276.866 8.68246 276.158 8.53072 283.112 11.2115ZM78.386 17.0283C77.7538 22.2635 73.1256 24.5397 69.6607 21.3024C68.5479 20.2655 67.1063 18.0652 67.3846 17.8376C67.4605 17.787 69.9136 16.9019 72.8221 15.8397C78.7906 13.7153 78.816 13.7153 78.386 17.0283ZM297.148 16.3961C299.248 17.1548 300.993 17.787 301.069 17.8376C301.752 18.394 298.161 22.2888 296.541 22.7188C292.926 23.6797 289.385 19.5067 290.043 15.0304C290.219 13.8923 290.219 13.8923 291.788 14.474C292.647 14.8028 295.075 15.6626 297.148 16.3961ZM65.0074 20.9989C64.5267 25.5765 60.6573 28.7885 57.3696 27.2963C55.7256 26.5628 52.6403 22.3899 53.5253 22.1118C53.7025 22.0611 55.498 21.53 57.5213 20.9737C59.5446 20.4172 61.9977 19.6839 62.9588 19.355C65.0832 18.6216 65.2602 18.7481 65.0074 20.9989ZM310.932 20.9737C312.956 21.53 314.75 22.0611 314.929 22.1118C315.813 22.3899 312.728 26.5628 311.084 27.2963C307.897 28.7378 304.052 25.703 303.446 21.2772C303.117 18.7734 303.294 18.5963 305.445 19.3298C306.431 19.6585 308.908 20.4172 310.932 20.9737ZM50.187 25.6019C48.9478 31.8738 44.0414 32.936 41.8918 27.3974C40.9561 24.9949 40.9307 24.489 41.7653 24.4638C42.1446 24.4638 44.2438 24.0844 46.3934 23.6544C50.8953 22.7188 50.7687 22.6429 50.187 25.6019ZM326.689 24.4638C327.523 24.489 327.497 24.9949 326.562 27.3974C324.437 32.8349 319.581 31.8992 318.292 25.8041C317.633 22.6681 317.508 22.7188 322.009 23.6544C324.185 24.0844 326.309 24.4638 326.689 24.4638ZM20.7743 25.3743C22.2663 25.5765 23.8596 25.7536 24.2896 25.7536C25.1748 25.7536 25.4024 26.5123 25.4024 29.5724C25.4024 37.1848 20.9006 36.9572 16.2978 29.1172C15.2356 27.2963 15.2356 27.2963 15.8173 26.4617C16.8036 25.0201 17.1324 24.7419 17.5876 24.8684C17.8152 24.9443 19.2568 25.1719 20.7743 25.3743ZM352.358 26.0823C353.217 27.2711 353.217 27.2711 352.155 29.1172C347.553 36.9572 343.05 37.1848 343.05 29.5724C343.05 25.8295 343.001 25.8799 346.313 25.526C347.933 25.3488 349.651 25.1212 350.133 25.0201C351.347 24.7166 351.396 24.7419 352.358 26.0823ZM38.2247 26.6641C37.5923 33.3154 32.6355 35.7687 30.2076 30.6346C28.336 26.6641 28.5384 25.9054 31.4722 25.703C32.9642 25.5765 34.9875 25.3995 35.9232 25.273C36.8843 25.1466 37.8199 25.0454 38.0223 25.0201C38.3006 24.9949 38.351 25.3236 38.2247 26.6641ZM334.579 25.4754C336.4 25.6271 338.271 25.7788 338.777 25.8295C339.712 25.8799 339.712 25.8799 339.257 27.6756C337.891 33.0373 335.463 34.8834 332.859 32.5821C330.962 30.9129 329.166 24.6914 330.683 25.0708C331.013 25.1467 332.783 25.3236 334.579 25.4754ZM14.8057 33.4925C17.9164 40.0427 14.831 43.6845 8.76125 40.599C7.37028 39.8909 7.26911 40.2703 10.2534 35.4145C11.6444 33.1384 12.8583 31.0899 12.9342 30.8875C13.1618 30.3311 13.5917 30.9381 14.8057 33.4925ZM360.324 38.8287C361.083 40.0175 360.983 40.1438 358.858 40.9784C353.597 43.0017 350.865 39.992 353.092 34.681C355.038 30.0783 354.962 30.0783 357.441 34.1499C358.655 36.148 359.945 38.247 360.324 38.8287ZM8.20487 43.9628C14.5528 47.7309 15.4632 52.9661 9.94991 53.9524C9.11532 54.1041 6.43452 48.8438 5.06883 44.2915C4.51245 42.5212 5.57465 42.4199 8.20487 43.9628ZM363.132 43.1786C363.687 43.7856 363.739 43.6339 361.311 49.476C359.389 54.1296 359.389 54.1296 358.504 53.9524C352.99 52.9661 353.9 47.7309 360.249 43.9628C362.728 42.4958 362.576 42.5465 363.132 43.1786ZM13.44 58.0242C18.2958 60.3256 19.358 66.1425 15.4632 69.0004C14.2999 69.8602 14.1481 69.835 13.9205 68.5956C13.7688 67.8623 10.7845 58.5301 10.304 57.392C10.1017 56.9114 11.7455 57.2403 13.44 58.0242ZM358.124 57.4173C357.694 58.4542 354.685 67.8623 354.534 68.5956C354.306 69.835 354.154 69.8602 352.99 69.0004C349.602 66.5218 349.879 61.5396 353.572 58.9095C355.317 57.6449 358.479 56.6333 358.124 57.4173ZM19.358 73.6031C22.8733 75.5758 22.8733 79.7993 19.358 81.9238C17.1071 83.2894 17.2589 83.4664 16.1967 78.3578C15.6908 75.8288 15.2103 73.6285 15.1345 73.4261C14.8057 72.6168 17.8405 72.7433 19.358 73.6031ZM352.637 72.9457C353.168 73.0468 353.395 73.2238 353.32 73.4514C353.244 73.6285 352.762 75.8288 352.257 78.3578C351.195 83.4664 351.347 83.2894 349.095 81.9238C344.188 78.9648 346.996 71.8328 352.637 72.9457ZM21.2295 86.9819C24.6437 88.5752 26.7427 93.1527 25.4024 95.9348C24.492 97.8315 20.496 100.006 20.2178 98.7672C20.066 98.135 17.8152 86.3749 17.8152 86.2232C17.8152 85.9956 20.319 86.5267 21.2295 86.9819ZM350.638 86.2484C350.638 86.3749 348.361 98.2361 348.236 98.7672C347.957 99.9812 343.961 97.8315 343.077 96.0106C341.205 92.1412 345.353 86.3495 350.082 86.2232C350.385 86.1978 350.638 86.2232 350.638 86.2484ZM23.8344 103.522C27.4255 104.609 28.6649 107.771 26.8692 111.261C26.1357 112.677 23.8344 115.029 23.1767 115.029C23.0756 115.029 22.6204 112.677 22.1652 109.769C21.6847 106.885 21.2547 104.23 21.1789 103.825C21.0019 102.991 21.7352 102.915 23.8344 103.522ZM347.275 103.825C347.199 104.23 346.768 106.885 346.288 109.769C345.833 112.677 345.378 115.029 345.277 115.029C342.899 115.029 339.89 108.605 341.129 106.228C342.318 103.952 347.654 101.878 347.275 103.825ZM25.9335 118.721C30.1317 120.871 30.0558 126.941 25.807 129.192C24.3655 129.976 24.5172 130.355 24.0367 124.766C23.8091 122.11 23.5561 119.505 23.455 118.974C23.278 117.912 24.1885 117.811 25.9335 118.721ZM344.998 119C344.898 119.531 344.644 122.11 344.416 124.766C343.936 130.355 344.088 129.976 342.646 129.192C338.953 127.244 338.246 123.071 341.104 119.961C342.874 118.013 345.251 117.432 344.998 119ZM27.8808 133.795C31.548 135.514 31.5985 141.382 27.9566 143.228C24.6183 144.922 24.6437 144.948 24.6437 138.625C24.6437 132.353 24.6942 132.277 27.8808 133.795ZM343.809 138.65C343.809 144.948 343.836 144.922 340.497 143.228C336.298 141.078 337.132 134.579 341.761 133.339C343.987 132.732 343.809 132.277 343.809 138.65ZM26.6922 148.969C31.4974 152.206 30.9156 157.77 25.5288 159.768C23.7333 160.451 23.8344 160.628 24.1126 157.618C24.2644 156.253 24.4413 153.496 24.5424 151.498C24.6437 149.525 24.7955 147.907 24.8966 147.907C25.0231 147.907 25.8322 148.387 26.6922 148.969ZM343.912 151.498C344.012 153.496 344.188 156.253 344.34 157.618C344.619 160.628 344.72 160.451 342.925 159.768C338.953 158.276 337.284 154.179 339.409 151.119C340.067 150.183 343.001 147.907 343.557 147.907C343.657 147.907 343.809 149.525 343.912 151.498ZM24.9724 164.877C28.943 168.341 29.0188 174.942 25.0989 176.814C21.71 178.458 21.3812 178.179 22.0134 174.285C22.3169 172.363 22.7722 169.227 23.025 167.304C23.5561 163.359 23.4298 163.511 24.9724 164.877ZM345.429 167.304C345.681 169.227 346.136 172.363 346.44 174.285C347.072 178.179 346.743 178.458 343.354 176.814C339.435 174.942 339.511 168.341 343.481 164.877C345.023 163.511 344.898 163.359 345.429 167.304ZM22.6963 181.847C30.7893 186.171 28.8925 195.479 20.1167 194.593C19.2062 194.492 18.4222 194.39 18.3969 194.341C18.2705 194.238 20.926 181.037 21.0523 181.037C21.103 181.037 21.8617 181.417 22.6963 181.847ZM348.817 187.638C349.551 191.279 350.106 194.289 350.057 194.341C348.489 195.907 342.368 193.91 341.078 191.406C339.384 188.144 343.582 181.214 347.375 181.037C347.451 181.037 348.109 184.022 348.817 187.638ZM20.5719 200.663C24.7955 205.291 22.2663 212.372 16.2978 212.702C13.0606 212.878 13.1618 213.309 15.0586 206.505C15.9943 203.142 16.9048 199.904 17.0565 199.297C17.3853 197.982 18.5234 198.411 20.5719 200.663ZM352.534 203.445C353.293 206.201 354.179 209.413 354.507 210.551C355.19 212.853 355.19 212.853 352.155 212.702C344.998 212.296 343.456 203.015 349.854 198.942C351.245 198.083 350.892 197.501 352.534 203.445ZM14.2493 217.254C22.2663 223.5 19.8384 231.542 10.0764 231.062C8.53364 230.987 8.53364 230.987 9.31764 227.572C10.5063 222.489 12.3272 215.913 12.5295 215.989C12.6307 216.04 13.3894 216.596 14.2493 217.254ZM357.214 220.035C360.046 230.505 360.097 230.987 358.376 231.062C350.234 231.466 346.819 225.903 351.523 219.934C352.485 218.695 355.52 215.964 355.949 215.937C356.024 215.937 356.607 217.785 357.214 220.035ZM9.89932 235.209C18.144 238.092 16.1967 248.31 7.42085 248.31C5.97929 248.31 6.05516 248.562 6.43452 244.769C6.88975 240.14 7.77492 234.653 8.05312 234.653C8.20487 234.653 9.03945 234.905 9.89932 235.209ZM361.235 238.498C361.766 242.291 362.246 246.616 362.272 247.728C362.272 248.486 360.501 248.538 358.175 247.803C351.472 245.73 351.624 237.739 358.428 235.235C360.78 234.35 360.603 234.147 361.235 238.498ZM9.14061 252.483C16.6013 254.708 16.3231 264.116 8.76125 264.901C7.09208 265.078 7.06679 265.026 6.43452 259.767C5.49878 251.624 5.57465 251.421 9.14061 252.483ZM362.398 254.81C361.918 263.56 361.487 265.102 359.717 264.901C351.776 264.091 351.878 254.607 359.845 252.331C362.728 251.497 362.601 251.396 362.398 254.81ZM11.7708 269.199C18.6245 270.743 18.4981 278.886 11.6191 278.911C10.7845 278.911 10.9362 279.341 8.68538 271.096C7.87608 268.164 7.69905 268.264 11.7708 269.199ZM359.742 271.123C357.341 279.973 357.745 279.366 355.065 278.634C349.323 277.065 350.816 270.516 357.214 269.074C360.78 268.264 360.577 268.112 359.742 271.123ZM16.7783 284.248C21.5582 286.65 21.6089 291.76 16.8289 293.63C15.8173 294.036 15.8173 294.036 14.047 288.749C12.0996 282.883 12.5548 282.124 16.7783 284.248ZM354.406 288.749C352.434 294.643 352.307 294.743 349.499 292.264C346.036 289.205 349.424 283.463 354.71 283.463C356.152 283.463 356.152 283.463 354.406 288.749ZM19.2821 297.247C24.5172 299.675 26.6416 307.262 23.1009 310.803C21.9376 311.966 21.4823 312.042 21.2547 311.08C21.1536 310.701 20.1167 307.363 18.9533 303.645C17.7647 299.954 16.8036 296.843 16.8036 296.767C16.8036 296.412 18.0176 296.665 19.2821 297.247ZM351.65 296.767C351.65 296.843 350.689 299.954 349.499 303.645C348.337 307.363 347.299 310.701 347.199 311.08C346.971 312.042 346.516 311.966 345.353 310.803C341.812 307.262 343.936 299.675 349.171 297.247C350.437 296.665 351.65 296.412 351.65 296.767ZM25.8577 315.229C31.0928 317.833 31.902 325.724 27.1727 327.848C25.8829 328.43 26.1105 328.861 24.5172 322.765C23.7585 319.857 22.9745 316.898 22.7722 316.215C22.5445 315.507 22.3676 314.874 22.3676 314.749C22.3676 314.318 24.6183 314.597 25.8577 315.229ZM346.085 314.749C346.085 314.874 345.909 315.507 345.681 316.215C345.478 316.898 344.695 319.857 343.936 322.765C342.343 328.861 342.571 328.43 341.281 327.848C337.411 326.103 337.007 321.095 340.395 316.949C341.736 315.304 346.112 313.635 346.085 314.749ZM28.4373 332.047C33.3942 334.272 35.3162 342.77 31.5733 345.905C29.1706 347.929 29.0695 347.829 28.589 343.68C28.2097 340.367 27.1221 333.565 26.7427 332.072C26.5657 331.365 26.9199 331.365 28.4373 332.047ZM341.711 332.072C341.332 333.565 340.243 340.367 339.864 343.68C339.384 347.829 339.283 347.929 336.88 345.905C333.138 342.77 335.059 334.272 340.016 332.047C341.533 331.365 341.888 331.365 341.711 332.072ZM31.0422 350.357C39.9191 352.658 40.9054 366.542 32.2055 366.542C29.8789 366.542 30.0052 366.922 29.7017 359.082C29.5499 355.264 29.373 351.647 29.2971 351.04C29.1201 349.826 29.0947 349.851 31.0422 350.357ZM339.156 351.04C339.08 351.647 338.904 355.264 338.752 359.082C338.449 366.922 338.574 366.542 336.249 366.542C327.624 366.542 328.534 352.734 337.311 350.357C339.333 349.826 339.333 349.826 339.156 351.04ZM32.1296 370.539C36.6314 375.167 35.8979 383.816 30.9411 384.499C29.2719 384.727 29.2971 384.827 29.4995 380.909C29.6006 378.985 29.7523 375.522 29.8534 373.17C30.0306 368.287 29.9799 368.339 32.1296 370.539ZM338.601 373.17C338.701 375.522 338.853 378.985 338.953 380.909C339.156 384.827 339.181 384.727 337.512 384.499C332.556 383.816 331.821 375.167 336.324 370.539C338.473 368.339 338.422 368.287 338.601 373.17ZM31.725 390.366C35.1644 393.78 35.5438 396.183 33.2677 399.725C31.2445 402.86 27.6027 404.808 27.8303 402.633C28.0579 400.356 28.943 389.355 28.943 388.748C28.943 387.813 29.3478 388.041 31.725 390.366ZM339.511 388.748C339.511 389.355 340.395 400.356 340.623 402.633C340.75 403.795 340.75 403.795 340.042 403.594C336.021 402.456 333.035 397.65 334.073 394.034C334.731 391.783 339.511 387.13 339.511 388.748ZM29.4236 407.388C35.2151 410.32 34.0011 422.132 27.8049 423.421C26.4392 423.7 26.4392 423.725 26.9451 416.618C27.1979 413.002 27.4003 409.334 27.4003 408.45C27.4255 406.629 27.7038 406.502 29.4236 407.388ZM341.053 408.45C341.053 409.334 341.256 413.002 341.508 416.618C342.015 423.725 342.015 423.7 340.649 423.421C334.477 422.132 333.238 410.423 338.953 407.388C340.698 406.477 341.028 406.654 341.053 408.45ZM27.8555 426.229C32.0791 427.998 31.5985 435.157 27.0968 437.736C25.7059 438.52 24.492 438.747 24.7196 438.165C24.7955 437.989 25.1748 435.13 25.5542 431.843C26.3381 425.343 26.237 425.57 27.8555 426.229ZM342.899 431.843C343.278 435.13 343.657 437.989 343.733 438.165C343.961 438.747 342.747 438.52 341.357 437.736C336.956 435.206 336.374 428.177 340.395 426.329C342.216 425.495 342.115 425.218 342.899 431.843ZM25.8829 441.503C33.2172 445.272 31.5985 455.919 23.5815 456.628C21.5834 456.805 21.6847 457.057 22.3422 453.542C22.6204 452.152 23.1263 449.066 23.5056 446.714C24.492 440.189 24.2644 440.695 25.8829 441.503ZM344.164 441.706C344.24 442.11 344.594 444.337 344.947 446.714C345.327 449.066 345.833 452.152 346.112 453.542C346.768 457.057 346.871 456.805 344.898 456.628C338.752 456.097 336.249 451.518 338.929 445.779C340.471 442.465 343.784 439.885 344.164 441.706ZM22.848 460.371C28.8925 463.43 26.3888 471.827 19.3074 472.334C17.6635 472.434 18.1187 469.248 20.9765 460.043C21.1282 459.612 21.4571 459.663 22.848 460.371ZM348.741 464.796C349.45 467.503 350.234 470.335 350.461 471.093C350.865 472.459 350.865 472.459 349.171 472.334C342.091 471.827 339.56 463.506 345.53 460.371C347.326 459.436 347.275 459.36 348.741 464.796ZM18.7004 476.911C24.0367 480.528 21.8869 486.142 14.9827 486.622C13.2377 486.723 13.2883 487.002 14.4263 483.157C16.8542 474.838 16.4749 475.393 18.7004 476.911ZM352.51 477.998C353.9 482.626 354.938 486.218 354.938 486.471C354.938 486.749 352.686 486.647 350.638 486.243C345.454 485.257 346.389 476.228 351.7 475.924C351.802 475.924 352.155 476.86 352.51 477.998ZM95.5836 486.015C97.6321 486.926 99.6552 489.606 100.136 492.034C100.313 492.868 100.313 492.868 96.7975 492.868C94.8753 492.868 91.8659 492.944 90.0954 493.047C86.8584 493.198 86.8583 493.198 86.8583 491.681C86.8583 486.522 90.8541 483.916 95.5836 486.015ZM277.928 485.636C280.331 486.37 281.594 488.443 281.594 491.654C281.594 493.123 281.595 493.123 274.969 492.971C267.255 492.768 268.089 492.971 268.469 491.503C269.557 487.129 273.931 484.447 277.928 485.636ZM78.8918 486.673C80.5862 487.482 82.1289 489.202 82.8117 490.998C83.7222 493.502 83.8739 493.375 78.8918 493.754C76.3122 493.957 70.2677 494.613 69.332 494.792C68.5479 494.944 68.5479 494.412 69.2814 491.402C70.4701 486.647 74.643 484.574 78.8918 486.673ZM295.961 486.723C297.958 487.937 298.996 489.885 299.576 493.324C299.855 495.069 300.134 494.917 297.023 494.513C295.555 494.337 292.899 494.058 291.078 493.906C284.277 493.324 284.681 493.551 285.616 491.099C287.311 486.622 292.368 484.498 295.961 486.723ZM114.273 486.598C116.676 487.33 118.294 489.708 118.851 493.35C119.028 494.462 119.028 494.462 117.94 494.285C113.16 493.502 111.314 493.299 104.385 492.793C103.575 492.743 103.575 492.743 104.056 491.63C105.851 487.685 110.379 485.433 114.273 486.598ZM259.922 487.129C262.754 488.419 265.864 492.667 264.068 492.793C257.266 493.299 255.294 493.502 250.514 494.285C249.425 494.462 249.425 494.462 249.603 493.35C250.514 487.33 254.763 484.75 259.922 487.129ZM131.496 488.595C133.696 489.633 134.834 491.478 134.91 494.134C135.062 498.434 135.062 498.434 133.216 497.903C132.255 497.624 129.624 496.941 127.323 496.385C125.022 495.803 122.998 495.296 122.821 495.247C122.139 495.044 124.313 490.543 125.705 489.278C127.197 487.963 129.549 487.685 131.496 488.595ZM242.217 488.898C243.913 490.188 246.493 494.993 245.631 495.247C245.455 495.296 243.431 495.803 241.13 496.385C238.83 496.941 236.199 497.624 235.264 497.903C233.391 498.434 233.391 498.434 233.543 494.134C233.695 489.354 238.803 486.294 242.217 488.898ZM62.6047 489.985C64.7543 492.009 65.6396 495.626 63.9956 495.651C63.4645 495.651 51.9575 498.104 51.2998 498.358C50.9205 498.509 50.8953 498.382 51.0216 497.32C51.7298 492.212 59.6709 487.178 62.6047 489.985ZM311.488 490.137C314.674 491.833 317.078 494.741 317.432 497.32C317.558 498.382 317.533 498.509 317.154 498.358C316.495 498.104 304.989 495.651 304.458 495.651C303.421 495.651 303.269 495.323 303.673 493.957C305.09 489.227 307.518 488.013 311.488 490.137ZM18.574 489.985C22.3676 491.099 22.5193 493.627 19.0545 497.876C17.5371 499.773 17.8911 500.103 14.831 493.754C13.0353 490.037 13.0101 489.961 13.5664 489.784C14.6539 489.481 17.2083 489.581 18.574 489.985ZM354.886 489.784C355.444 489.961 353.623 494.337 351.245 498.509C350.437 499.951 346.844 495.399 346.844 492.944C346.844 490.643 351.499 488.823 354.886 489.784ZM147.1 493.527C150.11 494.538 151.728 497.168 151.703 501.013C151.703 504.073 152.082 503.921 147.935 502.479C145.987 501.797 142.877 500.759 141.031 500.203C137.692 499.166 137.692 499.166 138.501 498.003C141.536 493.754 144.015 492.464 147.1 493.527ZM225.653 493.779C226.967 494.437 228.409 495.854 229.953 498.003C230.761 499.166 230.761 499.166 227.422 500.203C225.577 500.759 222.466 501.797 220.518 502.479C216.372 503.921 216.751 504.073 216.751 501.013C216.7 495.272 221.252 491.579 225.653 493.779ZM44.4462 494.234C46.0141 494.892 47.1521 496.713 47.1521 498.534C47.1521 499.317 47.1521 499.317 44.1679 500.052C42.5494 500.456 39.7674 501.241 38.0223 501.821C34.4311 503.035 34.684 503.187 35.5186 500.203C36.8843 495.196 40.7285 492.641 44.4462 494.234ZM328.938 494.412C331.089 495.499 332.428 497.8 333.441 502.125C333.618 502.883 333.618 502.883 330.431 501.821C328.686 501.241 325.903 500.456 324.286 500.052C321.302 499.317 321.302 499.317 321.302 498.534C321.275 494.868 325.448 492.616 328.938 494.412ZM29.9293 497.8C31.2191 498.458 31.9526 500.81 31.6239 503.086C31.3963 504.528 22.8987 508.194 21.9882 507.259C20.319 505.49 19.2568 502.379 20.1167 501.67C24.1378 498.282 27.9566 496.764 29.9293 497.8ZM342.419 497.952C343.836 498.483 346.719 500.279 348.337 501.67C349.196 502.379 348.134 505.49 346.465 507.259C345.554 508.194 337.057 504.528 336.829 503.086C336.173 498.661 338.525 496.486 342.419 497.952ZM167.636 499.041C170.317 500.152 171.379 502.276 171.531 506.88C171.632 509.966 171.607 510.118 171.177 509.991C170.899 509.915 169.154 509.435 167.282 508.929C163.615 507.942 156.23 505.615 155.648 505.262C155.143 504.959 155.699 503.972 157.191 502.455C160.201 499.42 164.854 497.876 167.636 499.041ZM206.053 499.166C209.543 500.38 214.069 504.477 212.806 505.262C212.223 505.615 204.839 507.942 201.171 508.929C199.3 509.435 197.555 509.915 197.277 509.991C196.518 510.194 196.797 504.173 197.605 502.276C199.022 499.116 202.309 497.876 206.053 499.166ZM186.376 501.19C187.717 501.797 189.614 503.921 190.549 505.894C191.334 507.563 192.269 510.698 192.041 510.926C191.459 511.533 183.923 511.787 179.548 511.381C175.4 510.977 175.501 511.053 175.856 509.181C176.943 503.339 182.254 499.293 186.376 501.19Z" fill="black"/>
</svg>
