<svg width="363" height="518" viewBox="0 0 363 518" fill="none" xmlns="http://www.w3.org/2000/svg">
<path d="M41.1914 0.469622C31.0752 1.65828 21.0096 5.75534 18.7334 9.62479C17.6206 11.4963 18.5817 11.7998 20.6808 10.2065C32.6938 0.975433 48.9555 0.697236 76.3451 9.27071C116.254 21.7642 146.552 25.3302 164.761 19.6905C165.949 19.3364 165.949 19.3364 167.644 20.702C177.355 28.4916 188.509 28.4409 224.674 20.4997C295.538 4.92075 319.792 3.25158 327.834 13.4184C328.973 14.8599 328.946 14.9105 326.594 15.6945C316.503 18.957 313.671 26.3672 321.182 29.8066C328.973 33.3726 334.712 28.3651 333.853 18.7546C333.802 18.1224 333.802 18.1224 337.343 18.173C350.824 18.3247 359.219 28.0109 359.219 43.4128C359.219 50.9241 358.132 54.8949 351.759 70.7266C341.567 96.1183 341.036 102.036 346.599 129.401C349.811 145.232 350.469 150.67 350.469 162.278C350.469 183.269 347.965 195.611 338.278 222.342C329.174 247.507 330.615 259.419 346.472 290.754C358.46 314.426 360.129 324.896 354.794 342.625C352.897 348.871 346.928 361.694 345.892 361.694C345.816 361.694 345.133 361.517 344.348 361.29C338.76 359.645 333.322 363.515 333.297 369.154C333.271 375.527 338.582 375.755 344.727 369.609C347.586 366.777 347.586 366.777 348.724 368.092C354.135 374.213 355.021 385.189 351.252 400.009C350.19 404.157 349.204 407.469 344.803 421.38C338.912 439.942 337.495 450.539 339.467 460.782C340.074 463.868 340.706 466.042 343.033 472.973C343.995 475.829 345.361 480.154 346.068 482.582C349.634 494.645 352.138 494.645 349.255 482.582C348.396 478.966 347.51 475.932 345.234 468.673C340.606 453.878 341.313 445.759 349.534 420.115C355.628 401.071 357.121 394.698 357.373 386.604C357.677 377.45 355.552 370.419 351.1 365.639C349.431 363.869 349.431 363.869 350.493 362.2C363.898 341.487 364.757 318.472 352.997 295.306C351.734 292.802 349.382 288.199 347.789 285.064C340.277 270.293 336.636 257.877 336.609 247.128C336.609 239.668 337.318 236.709 342.502 222.394C355.804 185.697 357.5 164.504 349.989 128.768C344.399 102.188 345.031 95.7389 355.856 69.715C361.798 55.4512 363.443 48.3445 362.76 39.8723C361.446 23.6358 351.328 13.9242 336.104 14.2529C332.208 14.3288 332.208 14.3288 331.677 13.3172C324.242 -0.69374 299.963 0.0649752 224.422 16.7314C190.279 24.2428 181.832 24.7739 172.576 19.994C169.212 18.2235 169.187 18.1983 171.083 17.2119C178.797 13.1655 177.887 5.04721 169.617 4.18732C162.712 3.45391 160.006 8.61317 163.37 16.1244C163.521 16.4532 159.728 17.3384 155.884 17.8695C136.966 20.4997 112.131 16.959 78.8743 6.81754C59.8305 1.02601 50.1442 -0.617869 41.1914 0.469622ZM171.26 8.38556C173.916 9.87768 172.93 12.2297 168.706 14.3288C166.658 15.3657 166.683 15.3657 165.722 13.3425C163.673 9.01781 167.012 6.00824 171.26 8.38556ZM330.718 20.1457C331.552 25.1026 328.517 28.2133 324.066 26.9487C318.882 25.5072 320.297 22.1436 327.152 19.6398C330.211 18.5017 330.439 18.5523 330.718 20.1457ZM343.741 364.577C344.223 365.083 338.86 369.913 337.595 370.091C336.281 370.292 337.064 366.853 338.658 365.36C339.72 364.374 343.009 363.869 343.741 364.577Z" fill="black"/>
<path d="M199.564 3.32724C196.884 5.45164 200.575 13.1652 205.558 15.846C207.606 16.9588 213.828 10.535 214.46 6.69087C215.118 2.59381 211.097 1.48103 207.479 4.7688C206.468 5.65395 206.468 5.65395 205.457 4.7688C203.358 2.84671 200.93 2.26504 199.564 3.32724Z" fill="black"/>
<path d="M7.20422 12.0018C5.93971 13.5445 4.54872 24.0401 4.52344 32.1583C4.52344 44.0702 5.66151 50.2158 11.9841 72.3196C20.9876 103.832 22.935 120.928 19.1666 135.091C19.0908 135.394 18.7367 135.445 17.4975 135.394C8.54463 134.888 2.27258 144.398 8.03881 149.709C11.9336 153.3 17.0928 150.67 20.583 143.361C21.7715 140.857 21.7715 140.857 22.4543 141.666C26.9562 147.028 26.0457 155.197 18.0538 181.752C12.667 199.632 11.0737 205.525 9.35393 213.871C3.96705 240.299 5.93971 258.939 16.3088 279.373C17.371 281.446 19.9254 286.529 22.0245 290.627C34.7962 315.791 34.2398 328.082 18.6861 364.855C2.93014 402.108 1.74148 415.386 11.453 444.266C13.021 448.845 14.6143 453.801 15.0443 455.268C15.4742 456.736 15.8536 458.102 15.9294 458.354C16.0306 458.682 15.7777 458.809 14.8167 459.037C4.21995 461.288 1.1598 474.008 10.1632 478.232C16.9158 481.394 22.8337 475.956 22.8591 466.573C22.8591 464.955 22.935 463.614 23.0109 463.614C25.6409 463.614 30.1174 471.404 32.5707 480.205C33.2029 482.43 34.164 485.92 34.7455 488.02C43.142 518.216 61.1236 524.059 102.145 509.946C132.62 499.476 143.368 499.121 167.597 507.847C192.407 516.799 201.764 517.23 231.05 510.806C248.248 507.039 254.394 506.912 268.935 510.149C287.55 514.296 301.711 513.84 311.753 508.833C313.75 507.847 313.75 507.847 315.546 508.605C325.207 512.602 340.988 512.93 352.875 509.391C360.032 507.24 356.87 506.253 346.73 507.467C335.398 508.808 327.079 508.378 319.996 506.077C317.544 505.267 317.544 505.267 318.934 503.624C324.803 496.72 321.969 488.272 313.674 487.944C303.432 487.513 299.689 497.706 307.732 504.104C309.147 505.242 309.122 505.267 305.05 506.456C295.744 509.163 285.35 509.011 269.948 505.976C259.857 504.004 259.578 503.953 253.381 503.953C245.921 503.953 242.71 504.459 228.85 507.746C214.662 511.109 211.348 511.667 203.56 511.843C191.421 512.122 185.148 510.756 164.233 503.194C143.217 495.582 131.026 496.138 100.905 506.001C59.4038 519.633 46.2275 514.979 37.0471 483.467C32.7476 468.724 29.5104 463.007 23.8959 460.302C22.2521 459.517 22.075 459.365 21.8474 458.43C21.0128 455.192 19.5713 450.742 17.8768 446.163C6.01558 413.969 6.4961 403.827 21.8221 365.411C37.5023 326.134 37.6286 315.336 22.8843 285.646C7.12835 253.855 6.7743 239.465 20.7093 193.638C25.2364 178.717 27.209 171.56 28.3977 165.566C31.3313 150.644 29.6621 141.059 23.4154 137.089C22.9096 136.785 22.8843 136.633 23.112 135.849C27.0066 122.572 24.427 102.82 14.5891 70.0941C6.62256 43.5643 5.38331 33.701 7.8365 16.5288C8.16527 14.1262 8.39288 12.0524 8.31701 11.9006C8.0894 11.5718 7.53301 11.6224 7.20422 12.0018ZM17.8009 139.542C17.8009 140.958 14.4626 145.713 12.9452 146.497C10.3655 147.812 9.22747 144.246 11.4025 141.666C12.667 140.149 17.8009 138.454 17.8009 139.542ZM16.9158 463.741C17.8262 470.948 15.196 475.349 11.3772 472.997C7.07778 470.317 10.6943 462.957 16.587 462.375C16.6882 462.35 16.8399 462.982 16.9158 463.741ZM315.672 493.203C318.606 495 317.292 500.438 313.371 502.587C311.753 503.497 307.225 497.832 307.857 495.707C308.591 493.23 313.27 491.737 315.672 493.203Z" fill="black"/>
<path d="M34.6689 19.2102C34.4413 19.463 33.9102 20.2724 33.5309 21.0057C32.7974 22.3209 32.7974 22.3209 31.0523 22.3968C27.8153 22.5738 27.2842 24.2682 29.5349 27.2019C30.1166 27.9859 30.1419 28.0872 29.889 30.0344C29.3327 34.1821 31.3306 34.8397 34.6942 31.5773C35.7564 30.5403 35.7564 30.5403 36.844 31.5773C40.1823 34.8397 42.1802 34.1821 41.6239 30.0344C41.3708 28.0872 41.3963 27.9859 41.9778 27.2019C44.2287 24.2682 43.6976 22.5738 40.4604 22.3968C38.7153 22.3209 38.7153 22.3209 37.982 21.0057C37.0209 19.2102 36.5657 18.7549 35.7564 18.7549C35.377 18.7549 34.8965 18.9572 34.6689 19.2102Z" fill="black"/>
<path d="M349.285 235.95C349.058 236.202 348.527 237.012 348.147 237.744C347.415 239.061 347.415 239.061 345.67 239.136C342.432 239.313 341.901 241.007 344.153 243.941C344.733 244.724 344.76 244.827 344.505 246.773C343.95 250.921 345.947 251.579 349.312 248.317C350.374 247.279 350.374 247.279 351.461 248.317C354.799 251.579 356.797 250.921 356.241 246.773C355.989 244.827 356.013 244.724 356.596 243.941C358.845 241.007 358.314 239.313 355.078 239.136C353.333 239.061 353.333 239.061 352.599 237.744C351.637 235.95 351.182 235.495 350.374 235.495C349.995 235.495 349.513 235.696 349.285 235.95Z" fill="black"/>
<path d="M1.79084 318.699C-0.889951 320.823 2.80246 328.537 7.78469 331.217C9.83322 332.331 16.0547 325.906 16.6869 322.064C17.3445 317.967 13.3233 316.853 9.70676 320.14C8.69515 321.026 8.69515 321.026 7.68353 320.14C5.58442 318.219 3.15653 317.636 1.79084 318.699Z" fill="black"/>
<path d="M265.818 486.123C263.138 488.247 266.831 495.961 271.812 498.641C273.86 499.755 280.082 493.33 280.715 489.486C281.371 485.388 277.35 484.277 273.735 487.564C272.722 488.45 272.722 488.45 271.711 487.564C269.611 485.643 267.183 485.06 265.818 486.123Z" fill="black"/>
<path d="M19.4971 492.141C19.2695 492.395 18.7384 493.203 18.359 493.937C17.6256 495.252 17.6256 495.252 15.8805 495.328C12.6434 495.506 12.1123 497.2 14.3631 500.134C14.9448 500.917 14.9701 501.018 14.7172 502.966C14.1608 507.114 16.1587 507.77 19.5224 504.508C20.5845 503.472 20.5845 503.472 21.6721 504.508C25.0105 507.77 27.0084 507.114 26.452 502.966C26.199 501.018 26.2244 500.917 26.806 500.134C29.0569 497.2 28.5258 495.506 25.2886 495.328C23.5435 495.252 23.5435 495.252 22.8102 493.937C21.5709 491.636 20.4834 491.054 19.4971 492.141Z" fill="black"/>
</svg>
