<svg width="374" height="525" viewBox="0 0 374 525" fill="none" xmlns="http://www.w3.org/2000/svg">
<path d="M177.701 0.789896C173.098 2.9143 176.183 10.0968 183.872 15.1043C187.21 17.2793 189.233 16.5712 194.392 11.4372C197.427 8.42763 198.186 7.03664 198.186 4.43173C198.186 -0.525211 193.129 -0.853987 188.348 3.82476C186.932 5.19044 186.932 5.19044 185.389 3.6983C182.835 1.21983 179.471 -0.0446904 177.701 0.789896ZM181.267 3.39481C182.051 3.77417 183.568 4.91224 184.681 5.92388C185.769 6.93549 186.805 7.77008 186.932 7.77008C187.059 7.77008 188.095 6.93549 189.183 5.92388C193.281 2.15558 196.644 1.62448 196.592 4.73522C196.543 7.1631 194.443 9.64158 189.815 12.7523C186.755 14.8008 184.352 13.9915 179.775 9.41396C175.678 5.3169 176.715 1.16925 181.267 3.39481Z" fill="black"/>
<path d="M13.9683 2.1301C10.6552 3.77398 9.89652 10.4001 12.3244 16.748C12.4256 16.9756 12.0462 16.925 11.1105 16.5963C5.1419 14.5477 -1.15543 20.2887 1.27245 25.5997C3.06809 29.545 8.30322 29.7472 12.2485 26.0043C13.5636 24.7651 13.5636 24.7651 13.4878 29.0898C13.4119 32.2258 13.5384 34.856 13.9177 38.4472C14.904 47.8805 14.6511 52.2306 12.4256 63.0296C9.13781 79.1144 9.18838 82.8321 12.6785 94.5415C15.8904 105.214 15.9157 109.286 12.9314 122.69C10.2506 134.804 10.2506 137.839 13.0325 148.663C15.2581 157.363 15.4351 160.803 14.0695 170.135C13.2096 176.078 13.0325 178.607 13.4372 178.86C14.0441 179.24 14.4488 178.278 15.1822 174.561C17.2055 164.419 17.4584 157.97 16.0421 151.42C15.5869 149.397 14.9546 146.387 14.5753 144.718C13.2349 138.395 13.4119 134.273 15.4604 123.727C18.3183 109.134 18.1918 105.796 14.4488 93.2517C11.3381 82.8827 11.3634 78.7856 14.7017 63.7883C17.3572 51.8258 17.6354 47.2231 16.3456 37.0563C15.4098 29.6714 15.6375 20.9716 16.8261 19.8839C17.7366 19.0242 23.8063 16.1663 26.1835 15.4835C29.7495 14.4719 31.52 14.6489 35.5411 16.4951C41.535 19.2265 46.1125 18.8218 57.4932 14.5225C69.1522 10.0966 71.8329 9.8437 83.1126 12.0693C95.9601 14.573 100.866 14.396 115.99 10.8047C128.56 7.84576 130.406 7.87105 137.259 11.1841C144.417 14.6489 149.374 15.003 158.478 12.7015C163.739 11.3611 166.546 10.2989 166.647 9.59081C166.773 8.83209 166.622 8.83209 160.931 10.1472C148.666 12.9797 145.074 12.9292 138.372 9.76783C130.684 6.15129 128.205 6.10072 115.383 9.16086C100.791 12.6509 95.8083 12.828 83.4919 10.2736C71.4029 7.79517 69.4809 7.9975 54.0284 13.4603C44.8479 16.6974 41.3578 16.7986 35.7181 13.9914C30.8371 11.5382 27.2205 11.7152 20.8473 14.7248C18.4953 15.8376 18.4953 15.8376 18.9758 14.9018C22.4658 7.92163 19.2034 -0.449531 13.9683 2.1301ZM16.5479 3.7487C19.3552 5.03852 19.0517 11.26 15.9409 16.0146C14.8535 17.6838 14.8535 17.6838 14.2971 16.1916C11.8186 9.59081 13.159 2.20597 16.5479 3.7487ZM12.2485 19.5552C13.6648 20.0357 13.7154 20.2887 12.6785 22.0842C10.0483 26.6872 3.70034 27.7746 3.75093 23.6271C3.8268 20.0105 7.74682 18.1137 12.2485 19.5552Z" fill="black"/>
<path d="M355.671 2.58461C353.041 4.96193 352.688 10.5006 354.888 14.9011C355.368 15.8368 355.368 15.8368 353.016 14.7241C346.643 11.7145 343.026 11.5375 338.145 13.9906C332.506 16.7979 329.016 16.6967 319.836 13.4595C304.382 7.99679 302.461 7.79446 290.371 10.2729C278.055 12.8273 273.072 12.6502 258.48 9.16015C245.658 6.10001 243.179 6.15057 235.491 9.76712C228.79 12.9284 225.197 12.979 212.933 10.1465C207.242 8.83138 207.09 8.83138 207.216 9.5901C207.318 10.2982 210.125 11.3604 215.385 12.7008C224.49 15.0023 229.446 14.6482 236.604 11.1834C243.458 7.87034 245.303 7.84505 257.873 10.804C272.996 14.3953 277.903 14.5723 290.75 12.0686C302.03 9.84299 304.711 10.0959 316.37 14.5217C327.751 18.8211 332.328 19.2258 338.322 16.4944C342.343 14.6482 344.114 14.4712 347.68 15.4828C350.057 16.1656 356.127 19.0234 357.037 19.8832C358.226 20.9709 358.454 29.6707 357.517 37.0556C356.227 47.2224 356.506 51.8251 359.162 63.7876C362.5 78.7849 362.525 82.882 359.414 93.251C355.671 105.795 355.544 109.134 358.403 123.726C360.451 134.272 360.628 138.395 359.289 144.717C358.909 146.386 358.276 149.396 357.821 151.419C356.406 157.969 356.658 164.418 358.682 174.56C359.414 178.278 359.82 179.239 360.427 178.859C360.831 178.607 360.654 176.077 359.793 170.134C358.428 160.802 358.606 157.362 360.831 148.663C363.613 137.838 363.613 134.803 360.931 122.689C357.948 109.285 357.972 105.213 361.185 94.5408C364.676 82.8313 364.725 79.1136 361.438 63.0289C359.213 52.2299 358.959 47.8798 359.945 38.4465C360.324 34.8553 360.451 32.2251 360.376 29.0891C360.3 24.7644 360.3 24.7644 361.614 26.0036C365.559 29.7465 370.795 29.5443 372.591 25.599C375.019 20.288 368.721 14.547 362.752 16.5956C361.69 16.9749 361.438 16.9749 361.538 16.6967C365.004 7.71859 360.882 -2.1447 355.671 2.58461ZM359.289 4.25379C361.337 6.0747 361.462 11.1075 359.566 16.1909C359.01 17.683 359.01 17.683 357.923 16.0139C355.393 12.1444 354.634 7.61744 356.102 5.06309C357.088 3.34333 357.972 3.11572 359.289 4.25379ZM367.507 19.7569C371.174 21.6031 370.922 26.5095 367.153 26.1806C364.801 25.9784 362.5 24.4103 361.185 22.0835C360.148 20.288 360.199 20.035 361.641 19.5545C364.069 18.7705 365.687 18.8211 367.507 19.7569Z" fill="black"/>
<path d="M13.3632 193.959C13.692 198.308 13.5403 201.318 12.8069 204.784C11.0365 213.154 10.7836 216.821 11.7447 220.766C12.0987 222.208 12.0987 222.208 11.3906 222.866C8.1787 225.977 8.35573 231.312 12.0734 241.733C15.8417 252.329 15.8417 256.173 12.0987 259.536C10.1766 261.281 10.2525 261.281 10.1008 259.081C9.772 254.631 7.16707 250.862 4.23338 250.61C-0.0913001 250.255 0.616834 256.553 5.42202 261.08C7.1165 262.698 7.1165 262.698 5.42202 264.316C0.616834 268.844 -0.0913001 275.141 4.23338 274.787C7.16707 274.534 9.772 270.765 10.1008 266.289C10.2525 264.115 10.1766 264.115 12.0987 265.86C15.8417 269.223 15.8417 273.068 12.0734 283.664C8.35573 294.085 8.1787 299.42 11.3906 302.531C12.0987 303.189 12.0987 303.189 11.7447 304.631C10.7836 308.576 11.0365 312.242 12.8069 320.613C13.5403 324.078 13.692 327.089 13.3632 331.438C13.1609 334.069 13.1609 334.069 13.7426 333.966C15.6647 333.689 15.8164 325.848 14.0714 317.453C12.2505 308.752 12.7816 304.301 15.5888 304.301C19.964 304.301 22.8725 298.94 19.7112 296.74C17.8903 295.475 15.2347 296.892 13.4897 300.078C12.7563 301.417 12.7563 301.418 12.3516 300.811C10.3284 297.7 10.7583 293.527 14.0208 284.953C18.8766 272.131 18.4466 266.061 12.5034 263.33C11.1883 262.698 11.1883 262.698 12.5034 262.067C18.4466 259.335 18.8766 253.266 14.0208 240.443C10.7583 231.87 10.3284 227.697 12.3516 224.586C12.7563 223.979 12.7563 223.979 13.4897 225.318C15.2347 228.505 17.8903 229.922 19.7112 228.657C22.8725 226.456 19.964 221.096 15.5888 221.096C12.7816 221.096 12.2505 216.644 14.0714 207.944C15.8164 199.549 15.6647 191.707 13.7426 191.43C13.1609 191.328 13.1609 191.328 13.3632 193.959ZM17.2327 223.118C18.5731 223.801 19.5341 225.8 19.003 226.787C18.3202 228.076 16.3475 226.836 14.9818 224.256C14.122 222.638 15.2094 222.082 17.2327 223.118ZM5.27028 253.645C6.5854 255.035 7.9005 258.323 7.87521 260.17C7.84991 260.75 7.77404 260.726 6.73714 259.536C3.90459 256.376 2.51362 250.735 5.27028 253.645ZM7.6476 266.795C6.88888 270.437 3.82872 274.282 3.82872 271.6C3.82872 270.361 4.9921 267.985 6.50953 266.113C7.87521 264.443 8.10283 264.571 7.6476 266.795ZM19.003 298.61C19.8881 300.279 17.7385 302.658 15.3359 302.658C14.1725 302.658 14.1725 302.658 14.9818 301.141C16.3475 298.561 18.3202 297.32 19.003 298.61Z" fill="black"/>
<path d="M359.438 191.935C358.224 195.172 358.3 200.66 359.639 207.287C361.612 216.847 361.183 221.096 358.274 221.096C353.9 221.096 350.99 226.456 354.152 228.656C355.973 229.921 358.628 228.505 360.373 225.318C361.107 223.979 361.107 223.979 361.511 224.586C363.535 227.697 363.105 231.869 359.842 240.443C354.986 253.265 355.417 259.335 361.36 262.066C362.674 262.698 362.674 262.698 361.36 263.33C355.417 266.061 354.986 272.131 359.842 284.953C363.105 293.526 363.535 297.699 361.511 300.81C361.107 301.417 361.107 301.417 360.373 300.078C358.628 296.891 355.973 295.474 354.152 296.74C350.99 298.94 353.9 304.3 358.274 304.3C361.081 304.3 361.612 308.752 359.791 317.453C358.046 325.848 358.198 333.689 360.121 333.966C360.701 334.068 360.701 334.068 360.5 331.438C360.17 327.088 360.322 324.078 361.056 320.613C362.826 312.242 363.08 308.576 362.118 304.63C361.764 303.189 361.764 303.189 362.473 302.531C365.684 299.42 365.508 294.084 361.79 283.663C358.021 273.068 358.021 269.223 361.764 265.86C363.687 264.115 363.611 264.115 363.763 266.289C364.091 270.765 366.695 274.534 369.63 274.786C373.954 275.141 373.247 268.844 368.44 264.316C366.747 262.698 366.747 262.698 368.44 261.08C373.247 256.552 373.954 250.255 369.63 250.61C366.695 250.862 364.091 254.631 363.763 259.081C363.611 261.281 363.687 261.281 361.764 259.536C358.021 256.173 358.021 252.328 361.79 241.733C365.508 231.312 365.684 225.976 362.473 222.865C361.764 222.207 361.764 222.207 362.118 220.766C363.08 216.82 362.826 213.154 361.056 204.783C360.322 201.318 360.17 198.308 360.5 193.958C360.701 191.303 360.121 190.165 359.438 191.935ZM358.881 224.256C357.515 226.835 355.542 228.076 354.859 226.786C353.975 225.142 356.124 222.738 358.477 222.738C359.69 222.738 359.69 222.738 358.881 224.256ZM370.034 253.821C370.034 255.086 368.619 257.867 367.126 259.536C365.836 261.004 365.684 260.725 366.367 258.07C367.302 254.428 370.034 251.266 370.034 253.821ZM369.15 268.868C370.06 270.664 370.364 272.561 369.705 272.561C368.416 272.561 365.963 267.73 365.988 265.226C366.012 264.291 367.985 266.567 369.15 268.868ZM357.211 298.864C359.108 300.507 359.842 302.658 358.528 302.658C357.135 302.658 356.1 302.176 355.417 301.216C353.797 298.889 355.189 297.068 357.211 298.864Z" fill="black"/>
<path d="M13.2602 346.815C13.0578 347.346 13.336 350.127 14.0947 355.362C15.4351 364.594 15.2581 368.059 13.0325 376.733C10.2506 387.558 10.2506 390.593 12.9314 402.706C15.9157 416.11 15.8904 420.183 12.6785 430.854C9.18838 442.565 9.13781 446.282 12.4256 462.367C14.6511 473.166 14.904 477.515 13.9177 486.95C13.5384 490.54 13.4119 493.171 13.4878 496.306C13.5636 500.631 13.5636 500.631 12.2485 499.393C8.30322 495.648 3.06809 495.851 1.27245 499.797C-1.15543 505.108 5.1419 510.849 11.1105 508.801C12.1727 508.421 12.4256 508.421 12.3244 508.698C10.1241 514.388 10.6046 520.762 13.3613 522.861C18.5712 526.831 22.6682 517.854 18.9758 510.494C18.4953 509.559 18.4953 509.559 20.8473 510.671C27.2205 513.681 30.8371 513.857 35.7181 511.405C41.3578 508.598 44.8479 508.698 54.0284 511.936C69.4809 517.399 71.4029 517.602 83.4919 515.123C95.8083 512.568 100.791 512.746 115.383 516.236C128.205 519.295 130.684 519.244 138.372 515.629C145.1 512.467 148.64 512.416 160.931 515.25C166.622 516.564 166.773 516.564 166.647 515.805C166.546 515.098 163.739 514.036 158.478 512.695C149.374 510.394 144.417 510.747 137.259 514.212C130.406 517.526 128.56 517.55 115.99 514.591C100.866 511.001 95.9601 510.823 83.1126 513.326C71.8329 515.553 69.1522 515.299 57.4932 510.874C46.1125 506.574 41.535 506.17 35.5411 508.901C31.52 510.747 29.7495 510.925 26.1835 509.912C23.8063 509.229 17.7366 506.373 16.8261 505.512C15.6375 504.425 15.4098 495.724 16.3456 488.34C17.6354 478.173 17.3572 473.57 14.7017 461.608C11.3634 446.611 11.3381 442.514 14.4488 432.144C18.1918 419.6 18.3183 416.262 15.4604 401.67C13.4119 391.124 13.2349 387 14.5753 380.678C14.9546 379.009 15.5869 375.999 16.0421 373.977C17.0284 369.373 17.1802 362.52 16.3962 357.537C15.0305 348.761 13.943 345.043 13.2602 346.815ZM8.91019 499.772C10.9081 500.707 13.4372 503.666 13.4372 505.032C13.4372 506.27 8.48025 506.752 6.457 505.714C1.47478 503.16 3.87737 497.369 8.91019 499.772ZM16.5479 510.367C19.1023 514.54 19.1023 520.485 16.5479 521.648C13.1843 523.19 11.8439 516.134 14.2465 509.305C14.904 507.484 14.7017 507.384 16.5479 510.367Z" fill="black"/>
<path d="M359.717 346.739C359.414 347.118 358.175 353.036 357.468 357.537C356.682 362.52 356.834 369.373 357.821 373.977C358.276 375.999 358.909 379.009 359.289 380.678C360.628 387 360.451 391.124 358.403 401.67C355.544 416.262 355.671 419.6 359.414 432.144C362.525 442.513 362.5 446.61 359.162 461.608C356.506 473.569 356.227 478.173 357.517 488.34C358.454 495.724 358.226 504.424 357.037 505.511C356.127 506.372 350.057 509.229 347.68 509.912C344.114 510.925 342.343 510.746 338.322 508.901C332.328 506.169 327.751 506.573 316.37 510.873C304.711 515.299 302.03 515.553 290.75 513.326C277.903 510.822 272.996 511.001 257.873 514.591C245.303 517.55 243.458 517.526 236.604 514.212C229.446 510.746 224.49 510.394 215.385 512.694C210.125 514.035 207.318 515.098 207.216 515.781C207.09 516.564 207.242 516.564 212.933 515.249C225.224 512.416 228.763 512.467 235.491 515.629C243.179 519.244 245.658 519.295 258.48 516.236C273.072 512.746 278.055 512.567 290.371 515.122C302.461 517.601 304.382 517.398 319.836 511.936C329.016 508.698 332.506 508.597 338.145 511.405C343.026 513.857 346.643 513.681 353.016 510.671C355.368 509.559 355.368 509.559 354.888 510.494C351.195 517.854 355.292 526.831 360.503 522.861C363.259 520.761 363.739 514.388 361.538 508.698C361.438 508.421 361.69 508.421 362.752 508.8C368.721 510.849 375.019 505.107 372.591 499.796C370.795 495.851 365.559 495.648 361.614 499.392C360.3 500.631 360.3 500.631 360.376 496.306C360.451 493.171 360.324 490.54 359.945 486.949C358.959 477.515 359.213 473.165 361.438 462.367C364.725 446.282 364.676 442.565 361.185 430.854C357.972 420.182 357.948 416.11 360.931 402.705C363.613 390.593 363.613 387.558 360.831 376.733C358.606 368.007 358.428 364.72 359.793 355.261C360.78 348.433 360.755 345.498 359.717 346.739ZM369.304 499.872C371.807 502.097 368.721 506.346 364.624 506.346C361.235 506.321 360.021 505.487 360.931 503.742C362.803 500.049 367.229 498 369.304 499.872ZM360.527 512.643C361.665 518.057 359.945 522.837 357.316 521.647C354.509 520.357 354.812 514.136 357.923 509.381C359.137 507.511 359.592 508.066 360.527 512.643Z" fill="black"/>
<path d="M185.998 509.028C181.041 511.101 175.68 517.298 175.68 520.965C175.68 525.921 180.738 526.251 185.518 521.572C186.934 520.206 186.934 520.206 188.35 521.572C193.131 526.251 198.188 525.921 198.188 520.965C198.188 516.388 189.261 507.662 185.998 509.028ZM189.868 512.695C194.445 515.754 196.545 518.258 196.594 520.661C196.645 523.772 193.282 523.241 189.185 519.472C186.757 517.222 187.111 517.222 184.683 519.472C180.586 523.241 177.222 523.772 177.273 520.661C177.323 518.258 179.397 515.781 184 512.695C187.364 510.443 186.479 510.443 189.868 512.695Z" fill="black"/>
</svg>
