<svg width="352" height="505" viewBox="0 0 352 505" fill="none" xmlns="http://www.w3.org/2000/svg">
<path d="M100.96 1.20099C90.5406 1.30216 73.4695 1.58035 63.0247 1.80797C41.4772 2.31377 19.1456 2.41494 8.47303 2.08616C1.21466 1.85855 1.21466 1.85855 1.03762 2.56668C0.936461 2.97132 0.961752 8.93989 1.06291 15.8189C1.34111 30.7909 1.34111 46.7492 1.06291 94.7506C0.911171 126.086 0.936461 133.217 1.31582 149.378C1.87221 171.608 1.94808 196.394 1.51814 204.764C0.228327 228.916 0.228327 276.211 1.51814 300.362C1.94808 308.733 1.87221 333.518 1.31582 355.749C0.936461 371.909 0.911171 379.041 1.06291 410.376C1.34111 458.378 1.34111 474.336 1.06291 489.307C0.961752 496.187 0.936461 502.156 1.03762 502.56C1.21466 503.267 1.21466 503.267 8.47303 503.04C18.8674 502.712 42.2105 502.839 62.8982 503.294C117.374 504.533 234.519 504.533 288.995 503.294C309.683 502.839 333.025 502.712 343.42 503.04C350.679 503.267 350.679 503.267 350.855 502.56C350.958 502.156 350.931 496.187 350.83 489.307C350.552 474.336 350.552 458.378 350.83 410.376C350.982 379.041 350.958 371.909 350.578 355.749C350.021 333.518 349.945 308.733 350.375 300.362C351.083 286.958 351.286 276.893 351.286 252.563C351.286 228.233 351.083 218.169 350.375 204.764C349.945 196.394 350.021 171.608 350.578 149.378C350.958 133.217 350.982 126.086 350.83 94.7506C350.552 46.7492 350.552 30.7909 350.83 15.8189C350.931 8.93989 350.958 2.97132 350.855 2.56668C350.679 1.85855 350.679 1.85855 343.42 2.08616C333.025 2.41494 309.683 2.28848 288.995 1.83326C251.262 0.973379 155.107 0.644602 100.96 1.20099ZM248.91 2.69313C260.746 2.84488 277.412 3.12307 285.96 3.3254C310.087 3.90708 328.524 4.05883 338.943 3.73004C344.103 3.57829 348.579 3.52773 348.909 3.62888C349.565 3.80591 349.565 7.70066 348.858 23.3049C348.454 32.3842 348.478 53.6282 348.909 77.0471C349.313 98.2659 349.186 137.466 348.655 153.424C348.175 168.523 348.226 195.811 348.731 205.271C350.072 229.246 350.072 275.88 348.731 299.856C348.226 309.315 348.175 336.604 348.655 351.703C349.186 367.66 349.313 406.861 348.909 428.079C348.478 451.498 348.454 472.742 348.858 481.822C349.565 497.425 349.565 501.321 348.909 501.498C348.579 501.598 344.027 501.549 338.818 501.397C328.272 501.067 310.518 501.219 285.96 501.801C230.523 503.091 121.37 503.091 65.933 501.801C41.3759 501.219 23.622 501.067 13.0759 501.397C7.86605 501.549 3.31376 501.598 2.98499 501.498C2.32744 501.321 2.32744 497.425 3.03556 481.822C3.44022 472.742 3.41492 451.498 2.98499 428.079C2.58033 406.861 2.70679 367.66 3.23789 351.703C3.71841 336.604 3.66784 309.315 3.16202 299.856C1.82163 275.88 1.82163 229.246 3.16202 205.271C3.66784 195.811 3.71841 168.523 3.23789 153.424C2.70679 137.466 2.58033 98.2659 2.98499 77.0471C3.41492 53.6282 3.44022 32.3842 3.03556 23.3049C2.32744 7.70066 2.32744 3.80591 2.98499 3.62888C3.31376 3.52773 7.79018 3.57829 12.9494 3.73004C23.3439 4.05883 42.0842 3.90708 65.8065 3.3254C108.75 2.31377 193.776 2.01029 248.91 2.69313Z" fill="black"/>
<path d="M134.427 7.77629C132.884 8.73731 138.423 9.16726 148.741 8.88906C155.797 8.71203 155.975 8.68675 155.975 7.9786C155.975 7.4475 135.262 7.27047 134.427 7.77629Z" fill="black"/>
<path d="M111.969 8.50953C104.761 9.01535 105.596 8.88889 105.697 9.57174C105.823 10.5581 121.731 9.92581 122.819 8.88889C123.881 7.87728 121.908 7.80141 111.969 8.50953Z" fill="black"/>
<path d="M164.164 8.35826C163.785 9.31931 164.316 9.39518 173.041 9.47105C181.918 9.57221 182.601 9.49634 181.539 8.43414C181.008 7.90304 164.366 7.82716 164.164 8.35826Z" fill="black"/>
<path d="M218.514 8.66135C218.16 9.5971 218.641 9.6224 230.781 9.64768C242.59 9.64768 242.59 9.64768 242.666 9.11658C242.793 8.15554 218.894 7.70031 218.514 8.66135Z" fill="black"/>
<path d="M75.6221 8.68696C71.9803 8.78813 71.4744 8.91457 72.0308 9.79975C72.5873 10.7102 88.8238 10.0779 88.8238 9.14219C88.8238 8.5858 85.3337 8.48465 75.6221 8.68696Z" fill="black"/>
<path d="M199.72 8.76271C197.015 8.86386 194.081 8.96504 193.246 8.99032C191.602 9.01561 191.046 9.44555 191.653 10.179C192.463 11.1653 208.825 10.2043 208.825 9.16735C208.825 8.45922 208.952 8.45922 199.72 8.76271Z" fill="black"/>
<path d="M48.2313 9.04093C31.7418 9.67319 32.6777 9.59731 32.6777 10.1537C32.6777 11.3171 55.7172 10.9883 56.9059 9.79965C57.437 9.26854 56.6024 8.76273 55.2115 8.81332C54.5033 8.81332 51.3673 8.93977 48.2313 9.04093Z" fill="black"/>
<path d="M330.855 9.01551C329.49 9.14196 329.008 9.77422 329.894 10.2294C331.563 11.1399 344.334 10.8111 343.955 9.90068C343.727 9.29371 334.395 8.66143 330.855 9.01551Z" fill="black"/>
<path d="M255.214 9.64774C254.808 10.6847 256.731 10.9376 267.277 11.1905C275.016 11.3675 275.851 11.3169 275.851 10.5582C275.851 9.92595 274.989 9.82479 268.136 9.64774C265.229 9.57187 261.156 9.44543 259.108 9.36956C255.745 9.21782 255.365 9.2431 255.214 9.64774Z" fill="black"/>
<path d="M302.15 9.54631C298.004 9.90038 293.704 10.5326 293.376 10.8614C292.566 11.6454 293.376 11.8477 296.487 11.5696C298.129 11.4178 302.429 11.1902 306.02 11.0132C314.138 10.6591 314.923 10.5579 314.923 9.90038C314.923 9.31869 307.461 9.11636 302.15 9.54631Z" fill="black"/>
<path d="M13.5855 10.6847C12.6498 11.7722 15.8364 12.3286 20.3633 11.8481C22.8924 11.5952 23.4994 11.317 22.9429 10.6594C22.4624 10.0777 14.066 10.103 13.5855 10.6847Z" fill="black"/>
<path d="M7.59418 12.7331C6.60785 13.1125 7.72064 28.2867 8.73226 28.4385C9.38981 28.5398 9.54156 21.7872 9.01046 16.0968C8.70697 12.8343 8.50464 12.3538 7.59418 12.7331Z" fill="black"/>
<path d="M110.449 16.097C97.1456 16.7292 87.3582 16.8557 54.0506 16.881C34.2229 16.881 17.607 16.9821 17.1265 17.0833C16.1655 17.2603 16.039 21.2563 16.3425 44.8017C16.469 56.7135 15.9379 121.887 15.6091 132.964C15.3815 140.501 15.3815 151.174 15.6344 180.258C16.0643 227.981 16.0643 277.145 15.6344 324.869C15.3815 353.952 15.3815 364.625 15.6091 372.161C15.9379 383.238 16.469 448.412 16.3425 460.324C16.039 483.871 16.1655 487.865 17.1265 488.043C17.607 488.144 34.2988 488.245 54.1771 488.245C88.041 488.271 95.0212 488.372 111.511 489.03C116.038 489.231 124.257 489.231 138.951 489.054C165.455 488.7 186.446 488.7 212.951 489.054C227.644 489.231 235.865 489.231 240.39 489.03C256.881 488.372 263.861 488.271 297.725 488.245C317.628 488.245 334.295 488.144 334.775 488.043C335.736 487.865 335.863 483.871 335.56 460.324C335.433 448.412 335.964 383.238 336.292 372.161C336.52 364.625 336.52 353.952 336.267 324.869C335.837 277.145 335.837 227.981 336.267 180.258C336.52 151.174 336.52 140.501 336.292 132.964C335.964 121.887 335.433 56.7135 335.56 44.8017C335.863 21.2563 335.736 17.2603 334.775 17.0833C334.295 16.9568 317.628 16.881 297.725 16.881C263.962 16.8557 256.426 16.7545 240.442 16.097C236.092 15.8946 227.316 15.9199 211.104 16.1223C190.315 16.3752 154.909 16.3246 124.99 15.9958C119.427 15.9452 112.876 15.9705 110.449 16.097ZM249.926 17.8673C253.44 18.0949 266.997 18.2214 294.665 18.2719C316.465 18.2972 334.346 18.3731 334.371 18.4237C334.422 18.4743 334.346 21.1804 334.243 24.4429C333.739 39.1113 333.587 50.5679 333.788 58.2057C333.915 62.6567 333.991 77.6288 333.966 91.4626C333.94 108.964 334.042 119.636 334.27 126.49C334.699 137.947 334.674 192.953 334.27 210.075C333.94 223.328 333.94 281.798 334.27 295.051C334.674 312.173 334.699 367.18 334.27 378.637C334.042 385.49 333.94 396.163 333.966 413.663C333.991 427.498 333.915 442.469 333.788 446.921C333.587 454.558 333.739 466.014 334.243 480.684C334.346 483.946 334.422 486.651 334.371 486.702C334.346 486.754 316.465 486.83 294.665 486.854C266.921 486.905 253.467 487.031 249.926 487.258C241.631 487.765 115.785 487.816 104.758 487.309C98.3343 487.006 87.3582 486.905 57.0096 486.854C35.3103 486.83 17.5565 486.754 17.5312 486.702C17.4806 486.651 17.5565 483.946 17.6576 480.684C18.1634 466.014 18.3152 454.558 18.1128 446.921C17.9864 442.469 17.9105 427.498 17.9358 413.663C17.9611 396.163 17.8599 385.49 17.6323 378.637C17.2024 367.18 17.2277 312.147 17.6323 295.051C17.9611 281.798 17.9611 223.328 17.6323 210.075C17.2277 192.979 17.2024 137.947 17.6323 126.49C17.8599 119.636 17.9611 108.964 17.9358 91.4626C17.9105 77.6288 17.9864 62.6567 18.1128 58.2057C18.3152 50.5679 18.1634 39.1113 17.6576 24.4429C17.5565 21.1804 17.4806 18.4743 17.5312 18.4237C17.5565 18.3731 35.5886 18.2972 57.6165 18.2467C85.6385 18.1708 99.7 18.0443 104.379 17.8167C113.686 17.3615 242.363 17.4121 249.926 17.8673Z" fill="black"/>
<path d="M341.83 18.8789C341.249 19.2582 341.147 33.0668 341.704 33.522C342.715 34.382 343.119 31.9035 343.146 24.5692C343.146 18.98 342.968 18.196 341.83 18.8789Z" fill="black"/>
<path d="M341.756 47.634C341.528 48.4182 340.314 66.526 340.39 67.9676C340.517 70.3955 341.376 69.915 341.782 67.1836C342.515 62.075 343.527 48.3675 343.224 47.6088C343.021 47.0525 341.934 47.1029 341.756 47.634Z" fill="black"/>
<path d="M7.33518 52.4142C6.72821 53.9823 7.58808 70.2188 8.27093 70.2188C8.92849 70.2188 9.23197 55.525 8.625 52.566C8.49854 51.9086 7.58808 51.8073 7.33518 52.4142Z" fill="black"/>
<path d="M340.419 86.8344C340.065 87.7448 341.379 104.234 341.861 104.715C343.024 105.903 343.175 100.087 342.24 90.729C342.013 88.5794 341.785 86.7333 341.709 86.632C341.482 86.2526 340.596 86.3791 340.419 86.8344Z" fill="black"/>
<path d="M10.097 92.6764C9.46475 93.1064 9.79352 112.302 10.4511 112.403C11.2098 112.504 11.311 111.088 11.311 101.225C11.311 92.5246 11.2351 91.9683 10.097 92.6764Z" fill="black"/>
<path d="M342.037 122.747C341.506 123.278 342.113 139.692 342.668 140.046C343.681 140.678 343.706 140.299 343.53 131.7C343.327 122.975 343.099 121.66 342.037 122.747Z" fill="black"/>
<path d="M10.3459 127.931C9.41019 129.12 9.51135 145.205 10.4724 144.623C11.2058 144.168 11.9645 128.285 11.2817 127.855C10.8012 127.552 10.6494 127.577 10.3459 127.931Z" fill="black"/>
<path d="M341.68 156.004C341.377 156.383 340.997 171.811 341.251 172.468C342.238 175.073 343.122 169.459 343.122 160.556C343.122 155.776 342.769 154.638 341.68 156.004Z" fill="black"/>
<path d="M8.9264 159.949C8.79994 160.151 8.57232 163.894 8.19297 171.836C8.09181 173.682 8.44588 174.592 9.02755 174.011C9.7357 173.302 10.1656 159.949 9.48278 159.797C9.25517 159.747 9.00227 159.823 8.9264 159.949Z" fill="black"/>
<path d="M340.918 181.901C340.666 182.584 341.021 200.236 341.298 200.515C341.449 200.667 341.753 200.718 341.956 200.642C342.487 200.439 342.563 182.306 342.056 181.8C341.628 181.37 341.097 181.421 340.918 181.901Z" fill="black"/>
<path d="M9.33582 196.215C8.55182 197.001 8.98177 212.604 9.79105 212.604C10.4992 212.604 10.5498 211.972 10.5498 203.981C10.5498 196.773 10.4739 195.912 9.79105 195.912C9.71518 195.912 9.51287 196.039 9.33582 196.215Z" fill="black"/>
<path d="M341.958 217.334C341.275 218.017 341.831 233.923 342.565 234.657C343.603 235.695 344.007 229.068 343.451 220.09C343.273 217.131 342.893 216.424 341.958 217.334Z" fill="black"/>
<path d="M8.42436 232.533C8.24732 232.812 7.71621 246.393 7.81739 248.263C7.94383 250.793 8.829 250.717 9.05662 248.138C9.3601 244.849 9.84062 233.115 9.68887 232.709C9.53713 232.305 8.65198 232.178 8.42436 232.533Z" fill="black"/>
<path d="M342.492 243.711C341.657 245.052 342.391 271.658 343.251 271.658C343.731 271.658 343.757 271.431 343.806 264.83C343.958 249.022 343.529 242.042 342.492 243.711Z" fill="black"/>
<path d="M7.06397 260.581C6.58346 261.795 6.86166 282.28 7.39276 282.28C8.5814 282.28 9.66891 261.92 8.55612 260.581C8.10089 260.023 7.29159 260.023 7.06397 260.581Z" fill="black"/>
<path d="M341.881 282.735C341.173 283.594 340.819 297.782 341.477 298.338C342.16 298.92 342.412 298.262 342.767 295C343.753 285.542 343.423 280.888 341.881 282.735Z" fill="black"/>
<path d="M7.71785 294.344C7.43965 295.228 8.02134 321.202 8.32482 321.53C9.38702 322.568 9.84225 307.849 9.08354 296.821C8.90651 294.241 8.17308 292.927 7.71785 294.344Z" fill="black"/>
<path d="M341.195 310.377C340.488 313.16 341.474 327.094 342.333 326.563C343.016 326.134 342.485 309.898 341.802 309.77C341.499 309.719 341.322 309.898 341.195 310.377Z" fill="black"/>
<path d="M341.731 336.68C341.099 337.336 341.3 352.006 341.958 352.662C342.893 353.599 342.996 352.814 342.996 344.747C342.996 336.376 342.869 335.566 341.731 336.68Z" fill="black"/>
<path d="M9.44123 337.59C8.80897 342.75 9.08715 354.231 9.82059 354.231C10.9081 354.231 11.2116 336.729 10.1241 336.578C9.64356 336.502 9.56769 336.653 9.44123 337.59Z" fill="black"/>
<path d="M9.28306 364.094C8.34732 364.677 8.72668 374.792 9.71301 374.919C10.7246 375.071 11.281 364.701 10.2947 364.094C9.81416 363.791 9.76358 363.791 9.28306 364.094Z" fill="black"/>
<path d="M342.364 367.256C341.96 367.736 342.416 387.514 342.82 387.918C343.857 388.955 343.933 388.348 343.832 377.802C343.757 366.877 343.605 365.763 342.364 367.256Z" fill="black"/>
<path d="M9.56533 394.012C8.65487 395.125 8.93307 412.728 9.86881 412.6C10.6781 412.5 10.8046 411.413 10.9816 402.51C11.1333 393.936 10.8804 392.445 9.56533 394.012Z" fill="black"/>
<path d="M341.625 401.626C340.612 402.84 341.523 414.852 342.536 413.841C343.143 413.234 343.219 401.903 342.612 401.523C342.105 401.195 341.953 401.22 341.625 401.626Z" fill="black"/>
<path d="M10.2988 428.458C9.64125 429.268 9.79299 445.883 10.4505 445.984C11.6898 446.162 12.4991 429.091 11.3104 428.332C10.8046 428.002 10.6529 428.029 10.2988 428.458Z" fill="black"/>
<path d="M341.278 430.002C340.571 430.709 341.253 450.714 341.986 450.714C342.771 450.714 342.871 449.501 342.871 440.724C342.871 430.533 342.593 428.685 341.278 430.002Z" fill="black"/>
<path d="M9.97058 457.593C9.56591 457.972 9.76825 474.284 10.1729 474.614C11.0328 475.347 11.1339 474.588 11.2604 466.8C11.3868 457.771 11.2098 456.354 9.97058 457.593Z" fill="black"/>
<path d="M340.823 463.486C340.24 463.865 340.14 473.374 340.696 473.856C341.708 474.69 341.961 473.729 342.061 468.569C342.188 463.486 342.012 462.778 340.823 463.486Z" fill="black"/>
<path d="M339.956 484.982C339.399 485.893 339.881 493.859 340.512 494.39C341.474 495.175 342.054 489.61 341.398 485.868C341.22 484.83 340.36 484.326 339.956 484.982Z" fill="black"/>
<path d="M10.4734 486.044C9.96761 486.323 9.84116 492.493 10.2964 493.707C11.0551 495.731 11.7632 493.759 11.7885 489.409C11.8138 486.171 11.5356 485.437 10.4734 486.044Z" fill="black"/>
<path d="M47.828 495.225C47.7269 495.452 47.7521 495.731 47.8787 495.858C49.4972 497.4 77.1903 497.046 77.1903 495.479C77.1903 494.997 77.064 494.972 72.3852 495.099C64.975 495.301 52.9114 495.251 50.3065 495.024C48.258 494.821 47.9545 494.845 47.828 495.225Z" fill="black"/>
<path d="M241.202 495.124C238.774 495.2 236.118 495.301 235.335 495.327C233.235 495.377 233.159 496.262 235.208 496.465C242.137 497.173 253.593 496.642 253.593 495.604C253.593 494.796 251.42 494.694 241.202 495.124Z" fill="black"/>
<path d="M270.282 495.099C265.098 495.225 265.098 495.225 265.098 495.858C265.098 496.769 266.336 496.945 271.547 496.769C277.137 496.566 279.513 496.186 279.513 495.479C279.513 494.872 278.855 494.845 270.282 495.099Z" fill="black"/>
<path d="M20.5185 495.479C20.0129 496.743 24.641 497.3 28.7127 496.466C29.3703 496.339 29.4714 495.479 28.8644 495.252C27.9287 494.897 20.6703 495.073 20.5185 495.479Z" fill="black"/>
<path d="M206.045 495.251C204.376 495.555 204.273 495.604 204.273 496.238C204.273 496.591 204.425 496.869 204.603 496.894C209.484 497.3 221.472 496.718 221.472 496.111C221.472 495.377 209.156 494.669 206.045 495.251Z" fill="black"/>
<path d="M298.102 495.327C293.549 495.555 293.726 496.262 298.405 496.465C310.417 496.996 317.121 496.945 317.018 496.314C316.893 495.452 306.22 494.897 298.102 495.327Z" fill="black"/>
<path d="M328.781 495.327C327.264 495.528 326.808 495.832 327.062 496.591C327.264 497.224 328.908 497.3 331.74 496.845C336.192 496.135 333.436 494.72 328.781 495.327Z" fill="black"/>
<path d="M179.996 495.807C179.996 496.541 180.426 496.59 187.229 496.769C193.501 496.945 194.286 496.845 193.375 495.983C192.693 495.352 179.996 495.175 179.996 495.807Z" fill="black"/>
<path d="M91.0266 496.059C90.6725 496.996 91.5323 497.173 96.8433 497.3C104.835 497.476 109.438 497.021 108.502 496.086C108.072 495.655 91.2036 495.631 91.0266 496.059Z" fill="black"/>
<path d="M123.194 496.465C122.738 497.628 124.205 497.856 133.917 498.032C141.352 498.21 141.605 498.184 141.504 497.729C141.403 497.097 140.417 496.97 132.956 496.617C129.693 496.465 126.178 496.262 125.192 496.186C123.624 496.059 123.32 496.111 123.194 496.465Z" fill="black"/>
<path d="M163.655 496.617C160.999 496.869 157.155 497.148 155.106 497.249C151.237 497.425 150.68 497.628 151.414 498.514C152.173 499.424 167.575 498.311 169.067 497.224C169.471 496.945 169.117 496.035 168.637 496.135C168.561 496.162 166.31 496.363 163.655 496.617Z" fill="black"/>
</svg>
