<svg width="364" height="517" viewBox="0 0 364 517" fill="none" xmlns="http://www.w3.org/2000/svg">
<path d="M20.2223 0.803213C17.0358 1.81483 14.2033 5.22905 13.5204 8.92147C13.3687 9.75606 13.1917 10.6918 13.1411 11.0206C13.0146 11.6023 13.0146 11.577 11.9777 10.6918C6.33792 5.88661 -2.48846 12.6392 0.774016 19.2905C2.24086 22.3254 6.86902 24.1463 10.5362 23.1347C11.1937 22.9578 11.1937 22.9578 10.2327 24.9304C8.15883 29.1538 7.27368 34.1361 7.72891 39.346C8.03239 42.8866 8.05768 43.0637 10.1568 53.6857C12.8629 67.6207 13.571 72.9823 13.571 79.7349C13.5963 88.8901 11.9018 93.8722 6.33792 101.004C4.2641 103.66 4.2641 104.393 6.18617 107.403C13.8239 119.34 16.0748 135.096 13.394 158.439C11.3202 176.598 11.826 181.656 16.7323 191.24C21.5376 200.699 21.4869 201.862 15.5942 221.109C11.219 235.321 11.4719 241.721 16.707 249.005C18.7303 251.785 18.8314 250.699 15.6448 258.917C8.00709 278.568 6.84373 287.699 10.9661 295.867C13.0146 299.888 13.6722 298.928 12.3824 293.769C10.0051 284.082 10.9914 278.291 18.1233 260.283C21.8411 250.85 21.8156 251.178 19.1349 247.461C14.178 240.583 14.1021 234.969 18.7556 220.35C24.5218 202.165 24.5977 200.168 19.8684 190.381C14.8608 179.986 14.5826 176.876 17.0358 156.871C18.1486 147.564 18.3762 135.576 17.5163 129.81C16.1506 120.731 14.178 113.978 10.9408 107.479C9.87859 105.304 9.47395 104.241 9.65098 104.039C13.1411 99.2591 14.7597 96.3001 15.923 92.5319C18.6038 83.9837 18.0474 74.8032 13.6975 54.3179C10.9408 41.3439 10.8902 41.1163 10.9155 35.9823C10.9408 28.0412 14.7344 18.9871 17.4657 20.3781C24.0413 23.7165 32.7159 22.806 44.1473 17.5961C54.1117 13.0438 57.0707 12.8162 66.7063 15.8511C78.4412 19.5436 84.1061 18.9871 100.545 12.538C113.443 7.47991 115.087 7.5052 124.268 12.9427C139.669 22.0725 154.034 21.2127 165.238 10.4642C166.73 9.04791 166.857 8.97204 167.11 9.42727C172.37 19.4677 200.113 21.8702 216.401 13.7267C218.753 12.538 219.309 12.0575 219.056 11.4252C218.804 10.793 216.224 11.0964 208.814 12.5886C188.252 16.7109 174.292 14.6118 169.209 6.62002C167.464 3.88865 166.907 3.93924 163.417 7.20171C152.745 17.2167 140.479 18.2031 125.937 10.1607C115.896 4.64736 113.165 4.39447 102.72 8.08688C83.575 14.8647 78.9723 15.5729 69.6653 13.0691C68.072 12.6392 65.5683 11.9563 64.0761 11.5517C56.2867 9.47785 51.4562 10.0595 42.0481 14.1313C32.3366 18.3548 25.7357 19.5181 19.5143 18.0766C17.5416 17.5961 17.5416 17.5961 19.0843 16.5845C28.0119 10.7677 28.9223 -1.92815 20.2223 0.803213ZM23.3078 4.39446C23.8389 6.49358 20.5258 11.147 16.353 14.0807C14.7597 15.2188 15.6195 9.70547 17.491 6.87294C19.2867 4.16685 22.8778 2.64942 23.3078 4.39446ZM9.90388 12.9679C12.5594 14.536 14.5068 17.6214 13.394 18.5824C9.65098 21.7438 3.25249 20.3527 3.32836 16.3822C3.37893 13.0944 6.94489 11.2482 9.90388 12.9679Z" fill="black"/>
<path d="M353.479 271.842C352.518 274.598 352.265 284.941 353.049 289.393C353.504 291.973 354.542 295.666 357.222 304.567C362.912 323.256 359.522 340.202 348.472 348.472C343.817 351.962 343.868 352.77 349.306 361.471C357.17 374.066 357.853 378.415 353.428 387.698C349.407 396.144 349.407 398.293 353.504 407.5C359.219 420.322 359.143 424.014 353.024 434.738C347.51 444.45 347.637 448.319 353.832 458.207C358.714 465.971 359.246 468.729 356.842 473.584C354.339 478.692 348.294 482.511 339.747 484.358C337.85 484.787 337.926 486.152 339.999 488.884C351.734 504.413 339.872 514.124 321.132 504.337C316.758 502.061 316.479 502.112 314.607 505.754C311.041 512.632 304.163 514.807 298.042 510.962C296.777 510.154 296.777 510.154 297.866 509.648C302.038 507.802 305.326 501.478 304.415 497.104C302.721 489.087 294.172 491.059 292.68 499.785C292.352 501.757 292.352 501.757 291.745 500.416C287.369 490.984 277.632 487.67 274.118 494.449C270.905 500.67 280.719 511.065 289.823 511.065C292.251 511.065 286.889 513.037 283.879 513.265C278.416 513.644 273.687 512.1 267.187 507.852C259.651 502.92 255.605 502.643 239.141 505.879C211.372 511.342 201.812 510.583 197.689 502.592C195.792 498.874 194.756 498.774 190.583 501.833C179.834 509.748 164.913 511.141 152.647 505.374C142.986 500.847 138.737 500.492 124.195 502.971C104.064 506.385 93.8211 505.703 86.6133 500.416C83.4773 498.115 83.1232 498.14 80.0125 501.099C74.8786 505.981 71.7425 507.499 64.1049 508.789C56.2142 510.128 55.8601 511.975 63.4979 511.924C70.7562 511.899 75.7132 509.951 81.4036 504.893C83.9578 502.616 83.4267 502.692 85.7283 504.21C93.3154 509.168 103.735 509.724 124.954 506.334C137.118 504.388 142.177 504.868 150.371 508.789C157.553 512.228 159.501 512.783 164.938 513.011C174.852 513.417 184.589 510.886 191.873 506.006C194.022 504.565 194.022 504.565 194.756 505.981C199.233 514.604 212.155 515.718 239.9 509.824C254.44 506.74 258.134 506.941 264.987 511.141C276.09 517.969 286.282 518.55 292.452 512.734C294.248 511.038 294.248 511.038 295.766 512.279C303.177 518.246 312.482 516.273 316.883 507.776C317.414 506.74 317.896 505.854 317.896 505.83C317.92 505.803 319.386 506.513 321.183 507.423C341.465 517.563 355.3 506.209 343.868 488.808C343.362 488.049 342.882 487.29 342.781 487.139C342.654 486.938 343.261 486.608 344.551 486.152C354.921 482.511 361.901 474.519 361.192 467.135C360.864 463.897 360.004 461.798 356.666 456.21C351.279 447.13 351.228 444.829 356.211 436.584C363.064 425.33 363.267 419.917 357.373 406.614C353.276 397.434 353.252 396.548 356.842 389.291C362.254 378.39 361.522 373.13 352.594 358.588C348.851 352.493 348.976 353.15 351.127 351.608C363.923 342.251 367.06 322.145 359.094 300.647C355.577 291.163 355.224 289.342 354.997 278.771C354.845 271.284 354.845 271.184 354.314 271.108C353.883 271.057 353.707 271.235 353.479 271.842ZM283.702 494.297C286.333 495.739 288.583 499.153 290.885 505.196C291.492 506.816 291.997 508.182 291.997 508.231C291.997 508.282 291.466 508.231 290.809 508.155C283.374 507.144 276.57 501.985 276.57 497.357C276.57 493.891 280.136 492.349 283.702 494.297ZM300.47 495.485C302.19 497.205 301.784 500.947 299.584 503.73C298.801 504.716 295.942 507.017 295.514 507.017C295.159 507.017 295.259 503.098 295.639 500.923C296.473 496.319 298.749 493.766 300.47 495.485Z" fill="black"/>
</svg>
