<svg width="362" height="511" viewBox="0 0 362 511" fill="none" xmlns="http://www.w3.org/2000/svg">
<path d="M323.77 0.396618C304.677 1.28179 275.694 4.9995 237.151 11.4991C200.555 17.67 190.616 17.4171 167.197 9.7541C148.406 3.60851 137.354 1.98992 122.206 3.12799C108.27 4.19019 90.5924 8.439 90.5924 10.7404C90.5924 11.6003 91.1741 11.575 93.8801 10.6393C104.35 6.97216 121.624 4.74658 134.042 5.42942C145.22 6.03639 150.935 7.25034 166.085 12.3084C189.074 19.9463 201.465 20.4267 233.104 14.9134C305.612 2.24282 345.9 -0.311515 354.473 7.22505C357.408 9.7794 357.256 18.8081 354.27 21.7924C354.221 21.843 353.462 21.6407 352.577 21.3372C345.192 18.7828 338.212 24.9284 343.042 29.7589C345.748 32.4651 349.821 31.7822 353.538 28.0139C355.56 25.9653 355.687 25.9906 357.129 28.8737C360.568 35.7528 359.05 44.3769 347.544 83.1977C332.319 134.537 331.888 147.132 343.624 198.776C354.853 248.193 354.802 260.509 343.068 298.42C330.473 339.188 330.219 355.424 341.499 407.244C352.704 458.788 353.842 475.934 346.987 489.034C345.697 491.488 345.697 491.488 344.661 490.654C337.757 485.164 327.363 488.73 329.436 495.862C331.08 501.579 338.061 502.793 343.776 498.392C345.697 496.924 345.773 496.951 345.773 499.631C345.799 508.305 328.577 510.153 308.975 503.601C304.626 502.159 301.187 500.769 293.245 497.228C267.752 485.898 257.458 485.999 210.596 498.089C164.137 510.077 150.708 510.581 122.838 501.376C102.605 494.699 95.6251 494.724 69.0955 501.628C52.3784 505.98 46.0558 507.042 36.8501 507.042C22.1311 507.042 11.8378 501.856 11.8125 494.371C11.8125 492.144 11.8378 492.095 13.6587 492.626C21.9539 494.952 30.9574 488.781 26.0764 484.129C23.0161 481.194 16.9212 482.156 12.6471 486.202C11.1802 487.619 11.1802 487.619 10.5732 486.96C5.46457 481.598 6.90612 459.292 14.6956 422.267C24.0024 378.136 23.4461 361.065 11.7619 332.966C3.03668 311.95 1.34222 297.737 4.12416 268.122C4.95875 258.942 4.98405 258.46 4.22534 258.46C2.53086 258.46 0.00181941 280.691 0.406468 292.098C1.01344 308.991 3.13783 318.905 9.3593 334.079C20.2595 360.686 20.8665 378.717 12.1665 418.928C8.17065 437.365 6.95671 444.017 5.76805 453.577C3.06196 475.2 3.7448 484.709 8.34768 489.413C9.53634 490.654 9.53634 490.654 9.20755 491.665C6.982 498.29 13.5575 505.777 23.952 508.432C35.1555 511.291 45.6512 510.405 68.4631 504.663C96.3586 497.658 102.681 497.583 121.32 504.032C149.519 513.794 163.024 513.339 212.114 500.997C258.041 489.44 267.17 489.364 291.272 500.162C307.913 507.649 316.917 510.278 327.894 510.885C342.562 511.695 351.338 505.346 348.252 496.166C347.645 494.371 347.645 494.371 348.48 493.131C357.229 480.208 356.421 461.619 344.762 407.927C333.685 356.917 333.736 339.897 345.065 302.593C353.083 276.265 354.498 268.678 354.498 252.645C354.473 237.319 353.26 229.453 346.027 197.89C334.316 146.803 334.798 136.333 351.49 79.4547C362.592 41.5949 363.73 31.6809 357.711 24.8779C356.725 23.7903 356.725 23.7903 357.457 22.1211C365.02 5.30298 355.156 -1.07023 323.77 0.396618ZM351.49 23.9168C352.88 24.2709 352.88 24.3973 351.338 25.9401C349.138 28.1404 346.634 28.8232 345.394 27.5586C343.093 25.2825 347.165 22.8294 351.49 23.9168ZM23.8507 485.771C27.2397 488.047 19.3743 491.361 14.6197 489.667C13.6081 489.313 13.6081 489.313 14.7209 488.25C17.604 485.443 21.7011 484.33 23.8507 485.771ZM340.185 491.64C343.32 492.727 343.952 493.865 342.309 495.282C338.944 498.189 335.177 498.442 333.305 495.913C331.105 492.93 335.709 490.047 340.185 491.64Z" fill="black"/>
<path d="M59.9885 8.46492C52.452 10.0835 42.5129 15.0404 37.556 19.6686C35.9879 21.1354 35.9879 21.1354 35.204 20.7308C34.2935 20.2504 32.3713 20.1745 31.3345 20.5791C30.7276 20.8067 30.4999 20.756 29.5895 20.0986C23.2415 15.4957 10.3181 20.1745 4.12192 29.2791C-0.126882 35.5005 -0.430369 40.8115 2.8574 51.2564C3.91961 54.6201 3.91961 54.6201 3.94489 59.0459C4.04605 76.901 25.1383 60.9679 26.5799 41.9242C26.9844 36.8662 27.6673 34.7164 29.9434 31.6815C31.3091 29.8606 31.2587 29.7343 30.9298 34.3118C30.171 44.3016 28.856 50.6242 24.0761 67.5183C15.9579 96.223 15.5026 102.09 19.2709 128.974C21.5471 145.185 22.1541 151.862 22.1541 160.461C22.1541 170.552 21.5217 174.194 16.7419 191.569C11.355 211.244 10.2422 222.98 12.4425 237.344C13.6059 245.108 13.9093 247.486 14.1875 251.329C14.4404 254.846 14.6428 255.553 15.4774 255.553C16.3119 255.553 16.666 254.743 16.843 252.518C17.4753 244.679 19.7262 230.388 21.9265 220.4C23.8991 211.496 24.4555 208.74 25.6188 202.191C26.1753 199.054 27.2879 192.859 28.1225 188.407C31.6633 169.312 31.815 165.19 29.6147 143.769C27.9962 127.785 28.4766 120.729 32.2196 106.086C33.0542 102.824 34.4199 97.5886 35.204 94.4527C39.655 77.1033 40.4391 59.9816 37.5812 42.1014C35.811 31.0746 35.8614 30.1895 37.7077 39.1928C40.262 51.5853 40.8689 57.5285 40.8185 69.6679C40.7172 85.7779 41.2737 90.912 43.9797 99.1313C46.4834 106.744 51.9209 117.189 53.6153 117.644C55.6386 118.175 56.3721 116.911 55.5628 114.28C54.6775 111.347 53.6408 105.277 53.0338 99.5107C51.8703 87.953 51.8198 86.9414 51.7692 73.8409C51.744 60.007 51.6427 58.8435 50.2518 52.2934C48.8861 45.9454 46.9641 41.3679 42.3105 33.2748C41.3242 31.5552 40.5402 30.1137 40.5654 30.063C41.2737 29.3802 48.9872 28.3432 53.2866 28.3686C62.0118 28.3938 66.3872 29.3043 72.381 32.3392C83.3824 37.903 88.7693 35.7786 88.5162 26.0166C88.3393 18.4799 84.6468 14.6611 72.8867 9.8306C68.0563 7.85795 64.4904 7.47859 59.9885 8.46492ZM67.4746 10.7411C72.381 11.9803 80.828 16.8614 83.1293 19.7951C84.8998 22.0459 84.4446 22.0459 80.4486 19.6938C69.5231 13.2701 62.5177 13.1436 49.6196 19.0869C40.0598 23.5128 34.2429 24.3979 38.8963 20.7056C45.573 15.4451 53.9188 11.6009 61.2531 10.4123C62.9475 10.1341 65.6285 10.2858 67.4746 10.7411ZM69.9531 18.2018C71.6223 18.5558 74.48 19.8456 79.7151 22.6528C81.7132 23.715 82.4213 23.9681 83.8122 24.0692C85.355 24.1957 86.7712 26.0166 85.962 26.8258C84.6722 28.1156 72.558 25.7383 68.0057 23.2852C64.895 21.616 61.759 20.5538 58.2183 19.9721C56.7515 19.7193 55.5375 19.4916 55.4869 19.4662C55.3858 19.3904 60.5451 18.3029 62.1384 18.0753C64.3132 17.7465 68.1322 17.8224 69.9531 18.2018ZM21.5723 21.363C12.8977 24.4737 6.49924 32.5668 5.25999 42.1014C4.83006 45.3891 4.24838 43.7705 4.22309 39.1928C4.19779 30.5182 10.5457 23.2598 19.9032 21.2367C22.3058 20.7056 23.2415 20.7815 21.5723 21.363ZM58.4207 22.0965C61.1773 22.6276 63.2764 23.3863 66.8676 25.182C71.9762 27.7362 74.48 28.3432 81.2326 28.6973C87.0242 29.0008 87.5805 29.3549 85.9114 31.7828C83.7111 35.0453 79.791 34.7418 73.8984 30.847C67.2218 26.4212 63.4028 25.3338 54.8041 25.3338C49.8472 25.3338 49.0126 25.4601 43.474 27.0534C38.163 28.5962 35.6592 28.5456 36.8477 26.9271C37.1766 26.4718 37.5306 25.789 37.6065 25.4096C37.7582 24.752 37.8341 24.7268 39.6045 24.575C41.8807 24.3979 43.9038 23.8668 47.2421 22.5265C49.9989 21.4137 53.9188 21.2619 58.4207 22.0965ZM27.541 23.3357C27.3133 23.5887 26.8833 24.322 26.6051 24.9796C26.3016 25.6372 25.9981 26.1683 25.8718 26.1683C23.9244 26.1683 18.4869 34.2107 15.7556 41.1402C13.4541 46.9065 11.532 49.0309 8.24428 49.3596C6.90388 49.5113 6.80272 49.4861 6.97975 49.0309C7.0809 48.778 7.28324 46.8306 7.40969 44.7569C8.04195 35.0199 11.9367 28.4191 19.1445 24.9037C22.6852 23.1839 28.7043 22.0459 27.541 23.3357ZM34.4957 23.8163C35.8868 25.0555 33.2818 27.1292 30.0952 27.2558C27.9708 27.3569 28.249 26.3201 30.9045 24.322C32.6244 23.007 33.4589 22.8804 34.4957 23.8163ZM27.8697 29.2032C28.8054 29.5826 28.8054 29.5067 27.8444 30.8724C25.9222 33.6796 25.3911 35.5005 24.4555 42.4301C23.0645 52.8497 15.2497 63.8511 8.92712 64.3063C6.22103 64.5087 6.04401 63.8765 6.49924 56.4411C6.70155 52.9762 6.70155 52.9762 7.91549 52.9762C12.2149 52.9762 14.921 50.1183 17.7788 42.5312C19.979 36.7145 21.7241 33.6542 25.1889 29.5571C26.327 28.1915 26.504 28.0651 26.7822 28.4445C26.9592 28.6973 27.4397 29.026 27.8697 29.2032ZM33.4335 30.3159C33.4335 30.6448 33.7118 32.5415 34.0659 34.5394C37.5812 55.3282 37.1766 67.24 32.1437 88.9645C27.0603 110.942 25.7453 124.245 26.934 141.999C28.679 167.896 28.6032 170.198 25.3659 186.535C24.5313 190.783 23.2667 197.536 22.5587 201.584C21.8506 205.605 20.4343 213.09 19.3973 218.249C17.5259 227.532 16.5396 233.677 15.9326 239.468C15.6291 242.503 15.6291 242.503 15.1739 239.975C12.2402 223.535 13.1001 213.317 19.3721 190.279C25.7453 166.91 25.9477 160.461 21.4206 128.064C18.234 105.328 18.8663 97.9932 25.9981 74.2961C31.385 56.3904 32.9783 47.5135 33.0289 35.2223C33.0542 32.0863 33.13 29.5571 33.2566 29.633C33.3577 29.6837 33.4335 29.9871 33.4335 30.3159ZM40.6161 34.4636C45.0166 42.2277 46.5341 45.9454 47.7228 51.8129C48.9872 58.1355 49.1389 60.1334 49.3665 75.3583C49.5689 89.9004 50.2011 101.104 51.0105 105.833C51.3646 107.73 47.8745 99.8141 46.4834 95.5401C44.4097 89.1163 43.7775 83.6789 43.2968 67.847C42.8416 53.3049 41.1472 42.1772 37.5812 30.6448C37.0501 28.9249 38.5423 30.7711 40.6161 34.4636Z" fill="black"/>
</svg>
