<svg width="351" height="504" viewBox="0 0 351 504" fill="none" xmlns="http://www.w3.org/2000/svg">
<path d="M26.5271 0.335461C23.9475 0.461914 17.0685 0.638947 11.2264 0.7654C0.604369 0.942433 0.604368 0.942434 0.376754 7.3915C0.022686 17.2801 0.0479764 48.3621 0.452625 72.1352C0.730819 88.3971 0.756111 99.1708 0.579076 117.279C0.402043 136.322 0.300882 181.947 0.300882 251.698C0.300882 321.448 0.402043 367.074 0.579076 386.117C0.756111 404.224 0.730819 414.998 0.452625 431.261C0.0479764 455.033 0.022686 486.116 0.376754 496.004C0.604368 502.453 0.604369 502.453 10.0883 502.605C15.2981 502.681 23.7199 502.908 28.8033 503.085C36.3146 503.363 39.9816 503.363 48.5299 503.136C60.7199 502.781 112.11 502.732 125.792 503.085C132.216 503.236 136.945 503.212 141.852 503.009C151.184 502.605 199.287 502.605 208.619 503.009C213.526 503.212 218.254 503.236 224.679 503.085C238.36 502.732 289.75 502.781 301.941 503.136C310.489 503.363 314.156 503.363 321.667 503.085C326.751 502.908 335.172 502.681 340.383 502.605C349.867 502.453 349.867 502.453 350.094 496.004C350.447 486.116 350.423 455.033 350.019 431.261C349.74 414.998 349.715 404.224 349.891 386.117C350.068 367.074 350.17 321.448 350.17 251.698C350.17 181.947 350.068 136.322 349.891 117.279C349.715 99.1708 349.74 88.3971 350.019 72.1352C350.423 48.3621 350.447 17.2801 350.094 7.3915C349.867 0.942434 349.867 0.942433 340.383 0.79069C335.172 0.714819 326.751 0.487204 321.667 0.310171C314.156 0.0319752 310.489 0.0319752 301.941 0.25959C289.75 0.613657 238.36 0.664237 224.679 0.310171C218.254 0.158428 213.526 0.183718 208.619 0.386043C199.362 0.79069 150.577 0.79069 141.978 0.386043C137.325 0.158428 132.646 0.158428 124.275 0.335461C114.159 0.588366 64.0835 0.487204 39.4253 0.209008C34.8982 0.158428 29.1068 0.209008 26.5271 0.335461ZM41.6508 2.25755C39.6023 9.74352 29.5113 12.6519 25.2373 7.01215C23.9475 5.29241 22.4048 2.00463 22.8094 1.80231C22.9612 1.70115 33.1786 1.39766 37.3261 1.37237C41.9038 1.32179 41.9038 1.32179 41.6508 2.25755ZM54.195 1.72644C65.0951 1.92876 64.2605 1.67586 62.5154 4.28077C59.2025 9.21242 50.4773 10.0723 46.3296 5.89938C44.8374 4.40723 43.2947 1.0183 44.2811 1.39766C44.5087 1.47353 48.9599 1.62528 54.195 1.72644ZM142.282 1.65057C146.556 1.75173 146.278 1.57469 145.62 3.6991C143.521 10.5022 131.584 10.0217 128.068 3.01626C127.411 1.67586 130.066 1.22063 137.173 1.49882C138.008 1.54941 140.309 1.59999 142.282 1.65057ZM222.099 1.65057C223.059 1.70115 223.059 1.70115 222.403 3.01626C219.696 8.40314 210.388 10.4264 206.443 6.50635C205.407 5.46943 204.042 2.28283 204.47 1.85289C204.774 1.54941 217.926 1.39766 222.099 1.65057ZM306.366 2.00463C304.571 9.51591 292.481 11.0081 287.956 4.28077C286.211 1.70115 286.008 1.8276 291.622 1.80231C296.023 1.77702 305.785 1.47353 306.341 1.37237C306.442 1.34708 306.468 1.62528 306.366 2.00463ZM326.675 1.72644C327.94 1.90347 327.965 2.00463 326.954 4.10375C322.881 12.7531 311.373 11.5644 308.82 2.23224C308.541 1.2965 320.933 0.967723 326.675 1.72644ZM125.413 1.72644C125.413 6.00053 117.269 10.2241 112.515 8.42842C109.783 7.3915 105.788 2.94039 106.774 2.02993C106.799 2.00463 110.011 1.92876 113.906 1.8276C117.801 1.75173 121.973 1.65057 123.213 1.62528C124.427 1.59999 125.413 1.65057 125.413 1.72644ZM242.433 1.97934C245.164 2.25755 241.926 6.93628 237.956 8.42842C233.201 10.2241 225.058 6.00053 225.058 1.72644C225.058 1.5747 240.585 1.80231 242.433 1.97934ZM20.7103 2.38399C20.685 8.85837 11.8839 10.047 6.01654 4.40723C3.63922 2.1058 3.63922 2.1058 11.0746 2.1058C15.1464 2.1058 18.5606 2.05522 18.6365 1.97934C19.0917 1.52412 20.7103 1.85289 20.7103 2.38399ZM85.3023 2.8898C82.672 10.3505 75.8942 12.829 70.0521 8.45371C68.3071 7.13861 65.4744 3.1427 65.4744 1.95406C65.4744 1.87818 70.0267 1.8276 75.5908 1.8276C85.6817 1.8276 85.6817 1.8276 85.3023 2.8898ZM104.599 2.15637C104.675 2.23224 104.346 3.01626 103.891 3.90142C100.198 10.8816 91.8525 11.6909 88.7924 5.36828C86.9715 1.54941 86.5921 1.72644 95.9748 1.90347C100.654 1.97934 104.523 2.1058 104.599 2.15637ZM165.777 2.15637C166.282 2.25755 164.841 5.34297 163.678 6.63279C159.378 11.438 150.855 9.21242 147.997 2.56103C147.745 2.00463 162.919 1.65057 165.777 2.15637ZM202.498 2.51044C198.932 10.7804 188.007 11.5644 185.048 3.77498C184.441 2.20696 184.441 2.20696 191.927 2.0805C196.024 2.00463 200.146 1.92876 201.083 1.87818C202.801 1.8276 202.801 1.8276 202.498 2.51044ZM262.588 3.01626C260.843 8.80778 256.494 11.1092 251.537 8.83306C249.362 7.84673 245.796 3.72439 245.796 2.23224C245.796 2.05522 249.083 1.95406 256.721 1.87818C262.943 1.8276 262.943 1.8276 262.588 3.01626ZM284.997 1.95406C284.997 2.02993 284.617 2.86452 284.136 3.80026C279.938 12.1208 270.63 13.006 266.382 5.49472C264.181 1.54941 263.55 1.8276 274.879 1.8276C280.444 1.8276 284.997 1.87818 284.997 1.95406ZM340.129 2.1058C346.832 2.1058 346.832 2.1058 344.453 4.40723C339.093 9.56649 332.796 9.49062 330.368 4.25549C329.306 1.97934 329.431 1.72644 331.582 1.95406C332.593 2.02993 336.438 2.1058 340.129 2.1058ZM182.266 3.09213C181.836 4.76131 180.521 6.68338 179.206 7.56855C175.033 10.3758 169.494 8.09965 168.204 3.09213C167.952 2.0805 167.952 2.0805 175.235 2.0805C182.519 2.0805 182.519 2.0805 182.266 3.09213ZM3.7404 5.21653C8.14094 10.7552 7.9892 16.8249 3.36104 21.4025C1.11018 23.6028 1.13547 23.6533 1.3125 18.494C1.41366 15.9397 1.56541 11.4127 1.66657 8.47901C1.8436 2.40929 1.69186 2.6369 3.7404 5.21653ZM128.979 6.68338C134.088 11.7921 143.976 11.1345 146.606 5.52002C147.188 4.33136 147.188 4.33136 148.2 5.84879C152.701 12.6014 162.919 12.3737 166.333 5.44415C166.99 4.10375 166.99 4.10375 167.572 5.31769C170.658 11.8426 179.813 11.8426 182.898 5.31769C183.48 4.10375 183.48 4.10375 184.137 5.44415C187.552 12.3737 197.769 12.6014 202.27 5.84879C203.283 4.33136 203.283 4.33136 203.863 5.52002C207.025 12.2726 220.151 11.3368 223.389 4.15433C223.869 3.06683 223.869 3.06683 224.603 4.40723C228.876 12.2473 240.585 12.5002 244.127 4.83718C244.734 3.54736 244.734 3.54736 245.392 4.81187C249.489 12.9048 259.477 13.3095 263.146 5.5453C263.601 4.53369 263.98 3.90142 264.005 4.10375C264.005 4.88775 266.56 8.63075 267.874 9.8447C272.554 14.1188 281.304 11.8932 284.845 5.5453C285.805 3.82554 285.805 3.82554 286.488 4.91305C290.888 11.8426 302.902 11.8426 306.696 4.91305C307.428 3.57265 307.428 3.57265 308.086 4.91305C312.107 13.1325 323.919 13.7647 327.636 5.94995C328.52 4.05316 328.471 4.07846 329.254 5.52002C331.479 9.74352 338.004 11.0333 342.329 8.09965C343.391 7.3915 343.391 7.3915 342.86 8.55488C342.355 9.74352 342.304 9.92057 342.001 12.5761C341.621 16.0914 344.101 21.3013 347.236 23.5774C348.198 24.2602 348.198 24.2602 346.805 24.842C339.321 27.9275 338.839 37.9678 345.997 41.5085C346.881 41.9383 346.957 42.0396 346.553 42.1913C336.462 45.5043 336.007 57.1885 345.87 60.2487C347.261 60.6786 347.261 60.6786 346.377 61.2351C340.383 64.9274 340.104 73.425 345.87 76.1818C347.109 76.7633 347.109 76.7633 345.087 77.7751C336.386 82.125 336.362 90.6984 345.011 93.8344C346.984 94.5427 346.984 94.5427 345.719 95.3518C338.89 99.7778 338.687 107.921 345.288 111.133C346.553 111.74 346.705 111.968 345.997 112.195C339.573 114.244 339.952 125.574 346.553 129.772C347.716 130.506 347.716 130.506 346.578 131.163C338.714 135.791 338.258 146.717 345.819 150.055C346.984 150.561 346.984 150.561 345.77 151.37C340.407 154.962 340.686 163.839 346.225 165.483C347.464 165.862 347.464 165.912 345.895 166.975C339.269 171.476 339.245 183.59 345.87 185.993C346.957 186.398 346.932 186.524 345.618 187.283C339.497 190.873 339.497 201.016 345.618 203.747C346.68 204.227 346.68 204.227 345.618 204.758C338.687 208.172 338.839 219.756 345.87 223.271C346.68 223.677 347.388 224.029 347.412 224.056C347.464 224.081 347.033 224.511 346.477 225.016C341.621 229.392 341.874 238.824 346.908 241.355C347.287 241.531 347.615 241.707 347.666 241.734C347.716 241.759 347.185 242.493 346.477 243.377C342.507 248.284 342.507 255.112 346.477 260.019C347.185 260.903 347.716 261.637 347.666 261.662C347.615 261.688 347.287 261.865 346.908 262.041C341.874 264.571 341.621 274.004 346.477 278.38C347.033 278.884 347.464 279.315 347.412 279.34C347.388 279.366 346.68 279.719 345.87 280.125C338.839 283.64 338.687 295.223 345.618 298.638C346.68 299.169 346.68 299.169 345.618 299.649C339.497 302.38 339.497 312.522 345.618 316.113C346.932 316.871 346.957 316.998 345.87 317.402C339.245 319.806 339.269 331.919 345.895 336.422C347.464 337.484 347.464 337.533 346.225 337.912C340.686 339.557 340.407 348.434 345.77 352.025C346.984 352.834 346.984 352.834 345.819 353.341C338.258 356.679 338.714 367.605 346.578 372.233C347.716 372.889 347.716 372.889 346.553 373.623C339.952 377.821 339.573 389.152 345.997 391.201C346.705 391.428 346.553 391.656 345.288 392.263C338.687 395.474 338.89 403.617 345.719 408.044C346.984 408.852 346.984 408.852 345.011 409.562C336.362 412.697 336.386 421.27 345.087 425.62C347.109 426.633 347.109 426.633 345.87 427.213C340.104 429.971 340.383 438.469 346.377 442.16C347.261 442.717 347.261 442.717 345.87 443.146C336.007 446.208 336.462 457.892 346.553 461.204C346.957 461.355 346.881 461.458 345.997 461.886C338.839 465.428 339.321 475.467 346.805 478.553C348.198 479.136 348.198 479.136 347.236 479.819C344.101 482.095 341.621 487.303 342.001 490.82C342.304 493.475 342.355 493.652 342.86 494.841C343.391 496.004 343.391 496.004 342.329 495.296C338.004 492.362 331.479 493.652 329.254 497.876C328.471 499.318 328.52 499.342 327.636 497.446C323.919 489.631 312.107 490.262 308.086 498.483C307.428 499.822 307.428 499.822 306.696 498.483C302.902 491.552 290.888 491.552 286.488 498.483C285.805 499.57 285.805 499.57 284.845 497.849C281.304 491.503 272.554 489.276 267.874 493.551C266.56 494.765 264.005 498.508 264.005 499.291C263.98 499.494 263.601 498.862 263.146 497.849C259.477 490.086 249.489 490.49 245.392 498.584C244.734 499.849 244.734 499.849 244.127 498.559C240.585 490.896 228.876 491.148 224.603 498.988C223.869 500.329 223.869 500.329 223.389 499.242C220.151 492.059 207.025 491.124 203.863 497.876C203.283 499.063 203.283 499.063 202.27 497.546C197.769 490.793 187.552 491.021 184.137 497.952C183.48 499.291 183.48 499.291 182.898 498.077C179.813 491.552 170.658 491.552 167.572 498.077C166.99 499.291 166.99 499.291 166.333 497.952C162.919 491.021 152.701 490.793 148.2 497.546C147.188 499.063 147.188 499.063 146.606 497.876C143.445 491.124 130.319 492.059 127.082 499.242C126.602 500.329 126.602 500.329 125.868 498.988C121.594 491.148 109.885 490.896 106.344 498.559C105.737 499.849 105.737 499.849 105.079 498.584C100.982 490.49 90.9927 490.086 87.3254 497.849C86.8702 498.862 86.4908 499.494 86.4656 499.291C86.4656 498.508 83.9112 494.765 82.5962 493.551C77.9174 489.276 69.1669 491.503 65.6262 497.849C64.6653 499.57 64.6653 499.57 63.9824 498.483C59.5819 491.552 47.5688 491.552 43.7752 498.483C43.0419 499.822 43.0419 499.822 42.3843 498.483C38.3631 490.262 26.5524 489.631 22.8347 497.446C21.9496 499.342 22.0001 499.318 21.2161 497.876C18.9906 493.652 12.4656 492.362 8.14094 495.296C7.07874 496.004 7.07874 496.004 7.60984 494.841C8.11564 493.652 8.16623 493.475 8.46971 490.82C8.84907 487.303 6.3706 482.095 3.23458 479.819C2.27354 479.136 2.27354 479.136 3.66453 478.553C11.1505 475.467 11.631 465.428 4.47381 461.886C3.58865 461.458 3.51278 461.355 3.91742 461.204C14.0083 457.892 14.4636 446.208 4.60027 443.146C3.2093 442.717 3.2093 442.717 4.09445 442.16C10.0883 438.469 10.3665 429.971 4.60027 427.213C3.36104 426.633 3.36104 426.633 5.38427 425.62C14.0842 421.27 14.1095 412.697 5.46014 409.562C3.48748 408.852 3.48748 408.852 4.75201 408.044C11.5804 403.617 11.7828 395.474 5.18196 392.263C3.91742 391.656 3.76568 391.428 4.47381 391.201C10.8976 389.152 10.5182 377.821 3.91742 373.623C2.75407 372.889 2.75407 372.889 3.89214 372.233C11.7575 367.605 12.2127 356.679 4.65085 353.341C3.48748 352.834 3.48748 352.834 4.70142 352.025C10.063 348.434 9.78481 339.557 4.24619 337.912C3.00697 337.533 3.00697 337.484 4.57498 336.422C11.2011 331.919 11.2264 319.806 4.60027 317.402C3.51278 316.998 3.53807 316.871 4.85317 316.113C10.9735 312.522 10.9735 302.38 4.85317 299.649C3.79097 299.169 3.79097 299.169 4.85317 298.638C11.7828 295.223 11.631 283.64 4.60027 280.125C3.79097 279.719 3.08284 279.366 3.05755 279.34C3.00697 279.315 3.43691 278.884 3.9933 278.38C8.84907 274.004 8.59617 264.571 3.56335 262.041C3.18399 261.865 2.85522 261.688 2.80464 261.662C2.75407 261.637 3.28517 260.903 3.9933 260.019C7.9639 255.112 7.9639 248.284 3.9933 243.377C3.28517 242.493 2.75407 241.759 2.80464 241.734C2.85522 241.707 3.18399 241.531 3.56335 241.355C8.59617 238.824 8.84907 229.392 3.9933 225.016C3.43691 224.511 3.00697 224.081 3.05755 224.056C3.08284 224.029 3.79097 223.677 4.60027 223.271C11.631 219.756 11.7828 208.172 4.85317 204.758C3.79097 204.227 3.79097 204.227 4.85317 203.747C10.9735 201.016 10.9735 190.873 4.85317 187.283C3.53807 186.524 3.51278 186.398 4.60027 185.993C11.2264 183.59 11.2011 171.476 4.57498 166.975C3.00697 165.912 3.00697 165.862 4.24619 165.483C9.78481 163.839 10.063 154.962 4.70142 151.37C3.48748 150.561 3.48748 150.561 4.65085 150.055C12.2127 146.717 11.7575 135.791 3.89214 131.163C2.75407 130.506 2.75407 130.506 3.91742 129.772C10.5182 125.574 10.8976 114.244 4.47381 112.195C3.76568 111.968 3.91742 111.74 5.18196 111.133C11.7828 107.921 11.5804 99.7778 4.75201 95.3518C3.48748 94.5427 3.48748 94.5427 5.46014 93.8344C14.1095 90.6984 14.0842 82.125 5.38427 77.7751C3.36104 76.7633 3.36104 76.7633 4.60027 76.1818C10.3665 73.425 10.0883 64.9274 4.09445 61.2351C3.2093 60.6786 3.2093 60.6786 4.60027 60.2487C14.4636 57.1885 14.0083 45.5043 3.91742 42.1913C3.51278 42.0396 3.58865 41.9383 4.47381 41.5085C11.631 37.9678 11.1505 27.9275 3.66453 24.842C2.27354 24.2602 2.27354 24.2602 3.23458 23.5774C6.3706 21.3013 8.84907 16.0914 8.46971 12.5761C8.16623 9.92057 8.11564 9.74352 7.60984 8.55488C7.07874 7.3915 7.07874 7.3915 8.14094 8.09965C12.4656 11.0333 18.9906 9.74352 21.2161 5.52002C22.0001 4.07846 21.9496 4.05316 22.8347 5.94995C26.5524 13.7647 38.3631 13.1325 42.3843 4.91305C43.0419 3.57265 43.0419 3.57265 43.7752 4.91305C47.5688 11.8426 59.5819 11.8426 63.9824 4.91305C64.6653 3.82554 64.6653 3.82554 65.6262 5.5453C69.1669 11.8932 77.9174 14.1188 82.5962 9.8447C83.9112 8.63075 86.4656 4.88775 86.4656 4.10375C86.4908 3.90142 86.8702 4.53369 87.3254 5.5453C90.9927 13.3095 100.982 12.9048 105.079 4.81187C105.737 3.54736 105.737 3.54736 106.344 4.83718C109.859 12.4496 121.771 12.222 125.843 4.4831C126.551 3.09213 126.551 3.09213 127.133 4.28077C127.461 4.91305 128.296 6.00053 128.979 6.68338ZM349.108 17.6089C349.336 23.7546 349.385 23.6533 347.109 21.4025C342.329 16.6984 342.329 10.477 347.135 4.736C348.602 2.96567 348.602 2.96567 348.753 7.51796C348.829 10.0217 349.006 14.574 349.108 17.6089ZM3.36104 26.157C10.4424 29.7484 9.50663 38.6254 1.81831 40.9015C1.23663 41.0533 1.23663 41.0533 1.23663 33.1879C1.23663 24.2857 1.03431 24.9937 3.36104 26.157ZM349.233 33.2131C349.233 42.1407 349.512 41.3567 346.832 40.168C343.012 38.4482 341.142 33.7696 342.887 30.33C343.922 28.3573 347.591 25.3731 349.057 25.3479C349.157 25.3479 349.233 28.8884 349.233 33.2131ZM3.28517 43.557C12.8197 46.4906 12.4909 57.4919 2.82994 59.1865C1.48953 59.4142 1.48953 59.4142 1.48953 55.0641C1.48953 52.6868 1.41366 48.9943 1.3125 46.8954C1.21134 44.2651 1.23663 43.0511 1.41366 43.0511C1.56541 43.0511 2.39999 43.2788 3.28517 43.557ZM349.157 46.8954C349.057 48.9943 348.981 52.6868 348.981 55.0641C348.981 59.4142 348.981 59.4142 347.666 59.1865C337.98 57.4919 337.625 46.5919 347.16 43.5316C349.487 42.7983 349.336 42.5453 349.157 46.8954ZM3.33574 62.4236C8.59617 66.5461 8.74792 72.5145 3.63922 74.9424C2.12179 75.6759 2.12179 75.6759 1.94476 73.2228C1.71715 70.0614 1.56541 61.2603 1.74244 61.2603C1.81831 61.2603 2.52645 61.7914 3.33574 62.4236ZM348.778 65.9896C348.602 75.6 348.577 75.777 346.832 74.9424C342.708 72.9952 341.9 68.8474 344.859 64.6997C345.542 63.7388 348.323 61.2603 348.729 61.2603C348.805 61.2603 348.829 63.3847 348.778 65.9896ZM4.49911 78.9636C11.5299 82.5043 12.3644 89.1304 6.1177 91.9124C1.79302 93.8344 1.99535 94.1127 1.99535 85.7668C1.99535 77.0668 1.79302 77.5979 4.49911 78.9636ZM348.475 85.7668C348.475 94.1127 348.677 93.8344 344.353 91.9124C338.131 89.1558 338.915 82.5802 345.895 78.9636C348.653 77.5474 348.475 77.0668 348.475 85.7668ZM5.53601 97.9315C9.20314 101.497 9.5572 105.772 6.47177 108.452C5.56131 109.211 2.62761 110.83 2.1471 110.83C2.07122 110.83 1.99535 107.34 1.99535 103.091C1.99535 94.4414 1.99535 94.4668 5.53601 97.9315ZM348.374 110.754C348.146 110.981 345.036 109.338 343.998 108.452C340.383 105.316 341.621 99.8537 346.781 96.414C348.349 95.3518 348.349 95.3518 348.425 103.015C348.45 107.213 348.425 110.703 348.374 110.754ZM5.46014 114.952C9.45604 119.277 8.19151 125.7 2.72876 128.761C1.66657 129.368 1.66657 129.368 1.81831 127.623C1.91948 126.662 1.99535 122.893 1.99535 119.226C1.99535 111.968 2.32412 111.563 5.46014 114.952ZM348.526 121.502C348.602 129.266 348.602 129.266 347.64 128.71C341.293 125.144 341.039 116.394 347.211 113.232C348.602 112.524 348.425 111.487 348.526 121.502ZM3.66453 132.655C10.9482 138.017 10.2653 147.501 2.47587 149.246C1.41366 149.499 1.41366 149.499 1.56541 143.632C1.66657 140.394 1.74244 136.373 1.74244 134.653C1.74244 131.138 1.69186 131.189 3.66453 132.655ZM348.729 134.653C348.729 136.373 348.805 140.394 348.905 143.632C349.057 149.499 349.057 149.499 347.995 149.246C340.205 147.501 339.522 138.017 346.805 132.655C348.778 131.189 348.729 131.138 348.729 134.653ZM3.89214 152.508C9.17784 156.125 7.60984 164.698 1.69186 164.698C1.5907 164.698 1.48953 161.739 1.48953 158.098C1.48953 150.688 1.41366 150.814 3.89214 152.508ZM348.981 158.123C348.981 161.739 348.88 164.698 348.778 164.698C342.304 164.698 341.369 154.607 347.591 151.902C349.032 151.269 348.981 151.016 348.981 158.123ZM4.92904 169.301C10.3918 175.017 8.41913 185.184 1.81831 185.184C1.54012 185.184 1.48953 183.489 1.48953 175.927C1.48953 165.584 1.43895 165.659 4.92904 169.301ZM348.88 185.133C348.805 185.184 348.171 185.108 347.488 184.931C340.483 183.262 340.635 171.957 347.716 167.43C348.854 166.696 348.854 166.696 348.93 175.851C348.956 180.884 348.93 185.057 348.88 185.133ZM3.7404 188.294C9.60779 191.81 9.3043 200.94 3.23458 202.736C1.56541 203.241 1.76773 204.178 1.56541 195.046C1.38837 186.018 1.13547 186.752 3.7404 188.294ZM348.905 195.098C348.702 204.178 348.905 203.241 347.236 202.736C342.253 201.268 340.863 194.187 344.707 189.938C345.516 189.028 348.273 187.207 348.829 187.207C348.981 187.207 349.006 190.039 348.905 195.098ZM3.71509 205.771C10.0124 209.007 10.1389 218.897 3.94271 221.931C1.56541 223.094 1.74244 223.777 1.74244 213.889C1.74244 204.075 1.5907 204.682 3.71509 205.771ZM348.729 213.889C348.729 223.777 348.905 223.094 346.528 221.931C340.307 218.87 340.483 208.982 346.832 205.72C348.854 204.657 348.729 204.075 348.729 213.889ZM3.36104 226.433C6.72467 230.403 6.95228 237.282 3.81627 239.534C1.64128 241.076 1.74244 241.43 1.74244 232.83C1.74244 224.257 1.69186 224.435 3.36104 226.433ZM348.729 232.857C348.729 240.569 348.729 240.569 348.07 240.317C344.15 238.824 343.215 233.337 345.997 228.126C346.654 226.888 348.171 225.143 348.602 225.143C348.677 225.143 348.729 228.608 348.729 232.857ZM4.39794 246.514C6.52234 251.015 5.96595 255.618 2.85522 259.234C1.51483 260.827 1.48953 260.751 1.48953 251.722C1.48953 242.087 1.91948 241.303 4.39794 246.514ZM348.981 251.698C348.981 256.453 348.88 260.068 348.753 260.144C347.716 260.802 344.681 254.505 344.681 251.698C344.681 248.891 347.716 242.593 348.753 243.251C348.88 243.327 348.981 246.943 348.981 251.698ZM3.81627 263.862C6.95228 266.113 6.72467 272.993 3.36104 276.963C1.69186 278.96 1.74244 279.139 1.74244 270.565C1.74244 261.965 1.64128 262.32 3.81627 263.862ZM348.677 274.535C348.602 278.353 348.602 278.353 347.691 277.545C343.922 274.232 343.315 266.24 346.68 263.862C348.778 262.344 348.88 262.876 348.677 274.535ZM3.94271 281.464C10.1389 284.499 10.0124 294.389 3.71509 297.625C1.5907 298.713 1.74244 299.32 1.74244 289.506C1.74244 279.618 1.56541 280.301 3.94271 281.464ZM348.729 289.506C348.729 299.32 348.88 298.713 346.756 297.625C340.459 294.389 340.332 284.55 346.578 281.415C348.905 280.277 348.729 279.594 348.729 289.506ZM3.23458 300.66C9.3043 302.456 9.60779 311.585 3.7404 315.102C1.3125 316.543 1.48953 316.795 1.48953 312.243C1.48953 308.702 1.74244 300.256 1.86889 300.256C1.89418 300.256 2.50115 300.432 3.23458 300.66ZM348.805 304.225C349.133 312.091 349.032 316.264 348.55 316.088C340.686 313.129 340.66 300.686 348.501 300.256C348.577 300.256 348.729 302.052 348.805 304.225ZM3.36104 318.565C10.1136 320.589 9.5572 332.173 2.52645 336.143C1.48953 336.698 1.48953 336.698 1.48953 327.469C1.48953 319.906 1.54012 318.212 1.81831 318.212C2.02064 318.212 2.70348 318.364 3.36104 318.565ZM348.981 327.469C348.981 336.698 348.981 336.698 347.943 336.143C340.99 332.197 340.356 320.665 347.008 318.592C349.157 317.909 348.981 317.048 348.981 327.469ZM3.23458 339.102C8.21682 340.568 8.59617 347.651 3.89214 350.886C1.41366 352.582 1.48953 352.707 1.48953 345.299C1.48953 341.657 1.5907 338.698 1.69186 338.698C1.81831 338.698 2.50115 338.874 3.23458 339.102ZM348.981 345.299C348.981 352.707 349.057 352.582 346.578 350.886C341.343 347.296 342.784 338.849 348.677 338.698C348.905 338.698 348.981 340.189 348.981 345.299ZM4.54968 354.908C10.6194 357.994 10.0124 366.391 3.38632 370.943C1.64128 372.157 1.8436 373.092 1.61599 362.798C1.43895 352.986 1.33779 353.265 4.54968 354.908ZM348.829 362.95C348.729 367.832 348.577 371.827 348.475 371.827C348.046 371.827 345.212 369.551 343.998 368.212C340.307 364.164 341.318 357.235 345.921 354.883C346.857 354.403 348.753 353.872 348.93 354.024C348.981 354.048 348.93 358.07 348.829 362.95ZM5.13137 376.633C9.40546 381.11 8.46971 387.508 3.2093 390.188C1.99535 390.795 1.99535 390.795 1.99535 384.169C1.99535 380.503 1.91948 376.734 1.81831 375.772C1.64128 373.724 2.60232 373.951 5.13137 376.633ZM348.526 382.5C348.425 390.77 348.425 390.77 347.236 390.188C343.239 388.166 341.47 383.007 343.418 379.162C344.277 377.468 348.298 373.599 348.602 374.179C348.602 374.206 348.577 377.948 348.526 382.5ZM3.86684 393.299C9.48133 395.981 10.1642 400.937 5.53601 405.465C1.99535 408.928 1.99535 408.955 1.99535 400.305C1.99535 396.057 2.07122 392.566 2.1471 392.566C2.22297 392.566 3.00697 392.895 3.86684 393.299ZM348.475 400.305C348.475 408.955 348.475 408.928 344.935 405.465C340.129 400.761 342.204 392.767 348.298 392.566C348.399 392.566 348.475 396.057 348.475 400.305ZM6.1177 411.483C12.3644 414.266 11.5299 420.891 4.49911 424.432C1.79302 425.798 1.99535 426.329 1.99535 417.629C1.99535 409.283 1.79302 409.562 6.1177 411.483ZM348.475 417.604C348.475 426.329 348.677 425.798 345.971 424.432C337.272 420.057 338.662 411.938 348.425 410.017C348.45 410.017 348.475 413.431 348.475 417.604ZM4.19563 428.706C8.72261 431.007 8.31797 437.076 3.33574 440.972C2.52645 441.604 1.81831 442.135 1.74244 442.135C1.5907 442.135 1.66657 436.773 1.89418 431.337C2.07122 427.289 1.86889 427.517 4.19563 428.706ZM348.702 434.952C348.93 443.197 349.081 442.49 347.287 441.098C341.874 436.9 341.673 430.906 346.805 428.454C348.702 427.543 348.475 426.784 348.702 434.952ZM5.66247 445.145C12.9208 448.533 11.4287 457.361 3.18399 459.889C1.00902 460.547 1.23663 461.458 1.41366 452.099C1.5907 443.07 1.51483 443.197 5.66247 445.145ZM349.108 460.293C348.88 460.521 345.516 459.307 344.429 458.624C337.576 454.199 339.245 445.953 347.312 444.311C348.854 443.981 348.854 443.981 349.032 452.099C349.133 456.551 349.184 460.244 349.108 460.293ZM3.94271 463.404C9.81012 466.211 9.48133 474.153 3.36104 477.239C1.03431 478.402 1.23663 479.109 1.23663 470.208C1.23663 461.179 0.933144 461.962 3.94271 463.404ZM349.233 470.232C349.233 479.109 349.436 478.402 347.109 477.239C340.129 473.722 341.597 462.62 349.057 462.368C349.157 462.368 349.233 465.908 349.233 470.232ZM3.36104 481.992C8.14094 486.696 8.14094 492.918 3.33574 498.659C1.86889 500.429 1.86889 500.429 1.71715 495.877C1.64128 493.373 1.46424 488.821 1.36308 485.786C1.13547 479.64 1.08489 479.743 3.36104 481.992ZM349.006 489.807C348.829 494.538 348.677 498.862 348.653 499.418C348.55 501.34 344.859 496.207 343.822 492.741C342.684 488.923 344.453 484.092 348.095 481.133C349.412 480.071 349.36 479.54 349.006 489.807ZM80.0672 493.627C82.0398 494.562 84.2401 497.445 85.3023 500.505C85.6817 501.567 85.6817 501.567 75.5908 501.567C70.0267 501.567 65.4744 501.518 65.4744 501.442C65.4744 501.063 67.2953 497.774 68.0036 496.89C70.8613 493.297 76.2736 491.831 80.0672 493.627ZM277.586 493.5C279.331 494.056 281.279 495.397 282.466 496.89C283.176 497.774 284.997 501.063 284.997 501.442C284.997 501.518 280.444 501.567 274.879 501.567C263.574 501.567 264.208 501.821 266.332 498.028C269.037 493.172 272.25 491.882 277.586 493.5ZM34.5947 493.955C38.2113 495.069 40.6899 497.597 41.6508 501.163C41.929 502.098 29.5368 502.428 23.821 501.67C22.5312 501.491 22.5059 501.391 23.4923 499.318C25.9454 494.183 29.6126 492.387 34.5947 493.955ZM322.906 494.359C324.727 495.372 327.737 499.621 327.737 501.214C327.737 501.67 326.144 501.795 317.064 501.973C307.58 502.174 308.062 502.352 309.579 499.139C311.779 494.462 318.581 492.007 322.906 494.359ZM98.9338 494.562C101.159 495.573 105.332 500.48 104.599 501.239C104.523 501.29 100.654 501.415 95.9748 501.491C87.5026 501.643 87.5026 501.643 87.8819 500.404C89.627 494.587 93.9769 492.286 98.9338 494.562ZM258.062 494.335C260.135 495.296 261.678 497.345 262.588 500.404C262.967 501.643 262.967 501.643 254.496 501.491C244.734 501.34 245.517 501.518 246.554 499.57C249.134 494.739 254.09 492.463 258.062 494.335ZM161.477 494.942C162.995 495.725 164.714 497.774 165.423 499.621C166.03 501.188 166.03 501.188 156.925 501.34C151.892 501.415 147.77 501.491 147.745 501.467C147.542 501.315 149.312 498.407 150.248 497.394C152.803 494.587 158.417 493.373 161.477 494.942ZM194.71 494.486C198.021 495.118 200.628 497.066 202.094 500.076C202.448 500.835 202.752 501.442 202.725 501.467C202.701 501.491 198.579 501.415 193.545 501.34C184.441 501.188 184.441 501.188 185.048 499.621C186.641 495.397 190.03 493.601 194.71 494.486ZM119.925 495.422C122.302 496.535 125.413 500.076 125.413 501.67C125.413 501.821 109.885 501.594 108.038 501.415C106.749 501.29 106.749 501.29 106.976 500.48C108.392 495.549 114.816 493.045 119.925 495.422ZM177.992 495.145C180.015 496.004 181.457 497.698 182.215 500.177C182.544 501.315 182.544 501.315 175.26 501.315C167.952 501.315 167.952 501.315 168.204 500.304C169.342 495.877 173.92 493.449 177.992 495.145ZM238.233 495.069C242.103 496.687 245.062 501.139 242.433 501.415C240.585 501.594 225.058 501.821 225.058 501.67C225.058 497.243 233.377 493.096 238.233 495.069ZM57.5079 495.498C59.6071 496.207 61.4787 497.573 62.5154 499.115C64.2605 501.719 65.0951 501.467 54.195 501.67C48.9599 501.77 44.5087 501.922 44.2811 501.998C43.2947 502.377 44.8374 498.988 46.3296 497.497C48.884 494.917 53.4615 494.107 57.5079 495.498ZM141.7 495.422C143.85 496.104 146.986 500.556 146.025 501.543C145.772 501.77 136.237 501.947 131.634 501.821C127.411 501.694 127.411 501.694 128.068 500.38C130.269 496.004 136.414 493.779 141.7 495.422ZM215.802 495.422C218.962 496.207 221.113 497.825 222.403 500.38C223.135 501.871 220.885 502.125 209.605 501.821C203.788 501.67 204.167 501.821 204.825 499.773C206.14 495.524 210.009 493.98 215.802 495.422ZM301.006 495.498C303.458 496.408 305.355 498.305 306.138 500.632C306.645 502.125 307.252 501.973 301.434 501.795C298.729 501.694 294.302 501.618 291.622 501.594C286.008 501.567 286.211 501.694 287.956 499.115C290.408 495.448 296.402 493.779 301.006 495.498ZM16.2845 495.776C18.6365 496.662 20.7103 499.09 20.7103 501.036C20.7103 501.618 20.685 501.643 18.8894 501.442C17.8778 501.366 14.0336 501.29 10.3412 501.29C3.63922 501.29 3.63922 501.29 5.99124 499.039C9.98714 495.169 12.5162 494.359 16.2845 495.776ZM340.535 495.979C341.621 496.484 342.784 497.37 344.453 498.988C346.832 501.29 346.832 501.29 340.129 501.29C336.438 501.29 332.593 501.366 331.582 501.442C329.431 501.67 329.306 501.415 330.368 499.166C332.01 495.573 336.589 494.158 340.535 495.979Z" fill="black"/>
</svg>
