<svg width="374" height="524" viewBox="0 0 374 524" fill="none" xmlns="http://www.w3.org/2000/svg">
<path d="M175.598 0.687032C170.514 3.44371 176.432 12.2701 183.336 12.2701C184.904 12.2701 184.905 12.3207 183.766 14.5968C181.44 19.1997 177.924 19.832 164.444 18.0616C154.581 16.7465 149.068 16.7718 142.062 18.1375C135.765 19.3768 132.275 18.795 122.361 14.9256C109.488 9.91807 105.998 9.79161 95.0726 14.0151C86.0439 17.4799 82.8826 17.5558 70.9455 14.5715C60.7787 12.0172 58.1232 11.9666 49.4739 14.1922C43.0754 15.8107 40.7993 15.7602 35.5894 13.8128C30.3543 11.8401 30.4049 11.8654 30.1266 12.2954C29.7979 12.8265 29.9497 13.0541 31.543 14.3439C36.2216 18.1375 41.7856 19.3009 47.6023 17.7328C58.9072 14.6474 59.6154 14.6221 69.8581 17.0753C83.1608 20.2366 86.0187 20.1607 96.2866 16.3166C106.074 12.6494 108.628 12.7759 120.565 17.5558C132.401 22.3104 135.259 22.7404 143.327 21.0712C149.118 19.8825 155.517 19.8825 164.9 21.0712C179.695 22.968 185.537 21.1723 186.624 14.3692C186.7 13.914 186.852 13.5346 186.953 13.5346C187.054 13.5346 187.206 13.914 187.282 14.3692C188.369 21.1723 194.212 22.968 209.007 21.0712C218.388 19.8825 224.788 19.8825 230.579 21.0712C238.646 22.7404 241.505 22.3104 253.341 17.5558C265.277 12.7759 267.832 12.6494 277.619 16.3166C287.887 20.1607 290.745 20.2366 304.047 17.0753C310.548 15.5326 312.848 15.2038 315.783 15.3808C317.907 15.5326 319.501 15.8866 326.304 17.7328C332.12 19.3009 337.685 18.1375 342.363 14.3439C343.956 13.0541 344.108 12.8265 343.779 12.2954C343.501 11.8654 343.552 11.8401 338.317 13.8128C333.106 15.7602 330.83 15.8107 324.432 14.1922C315.783 11.9666 313.127 12.0172 302.961 14.5715C291.024 17.5558 287.862 17.4799 278.833 14.0151C267.908 9.79161 264.418 9.91807 251.544 14.9256C241.632 18.795 238.142 19.3768 231.844 18.1375C224.838 16.7718 219.326 16.7465 209.462 18.0616C195.982 19.832 192.467 19.1997 190.14 14.5968C189.002 12.3207 189.002 12.2701 190.57 12.2701C195.198 12.2701 199.421 8.85587 200.003 4.60706C200.889 -1.71556 191.784 -0.400459 187.712 6.40269C187.358 6.98436 187.029 7.43959 186.953 7.43959C186.877 7.43959 186.548 6.98436 186.194 6.40269C183.792 2.3815 178.101 -0.678655 175.598 0.687032ZM179.189 2.9126C181.035 3.62073 185.436 7.76838 185.436 8.80528C185.436 9.58928 181.591 9.63987 179.998 8.88115C175.421 6.75675 174.662 1.21813 179.189 2.9126ZM197.626 3.03904C199.041 6.17508 193.503 10.348 189.432 9.20992C188.268 8.90643 188.268 8.95702 189.381 7.43959C192.112 3.72189 196.792 1.21813 197.626 3.03904Z" fill="black"/>
<path d="M8.99018 7.89473C8.78785 8.42583 9.1925 10.4238 10.457 15.1025C12.6826 23.3219 13.1125 27.9248 12.3032 35.2843C11.4181 43.5796 11.7468 49.194 13.7448 60.0437C17.3866 79.6439 17.336 85.1826 13.4413 98.3083C9.52129 111.535 8.4085 122.031 9.79947 132.754C10.7605 140.392 11.3422 143.604 13.7195 154.403C18.3982 175.697 18.3982 179.162 13.6436 194.386C10.2041 205.363 10.3812 211.635 14.6047 228.604C19.2075 247.117 18.4994 253.517 11.3169 258.321C9.04075 259.839 8.91431 259.863 8.91431 258.776C8.91431 256.248 6.99222 253.642 4.58962 252.934C-0.164986 251.517 -0.923701 256.045 3.35039 260.421C4.76667 261.887 4.76667 261.887 3.35039 263.353C-0.923701 267.729 -0.164986 272.257 4.58962 270.84C6.99222 270.132 8.91431 267.526 8.91431 264.998C8.91431 263.911 9.04075 263.936 11.3169 265.453C18.4994 270.258 19.2075 276.657 14.6047 295.17C10.3812 312.139 10.2041 318.411 13.6436 329.388C18.3982 344.612 18.3982 348.077 13.7195 369.372C11.3422 380.171 10.7605 383.382 9.79947 391.02C8.4085 401.743 9.52129 412.24 13.4413 425.466C17.336 438.592 17.3866 444.13 13.7448 463.73C11.7721 474.454 11.4181 480.346 12.3032 488.339C13.0872 495.495 12.7585 499.769 10.887 506.952C8.73727 515.222 8.58552 516.081 9.4707 516.26C10.5835 516.461 13.7448 508.039 14.9081 501.793C15.5151 498.506 15.4645 492.561 14.7817 486.846C13.8459 479.208 14.0989 475.566 16.2738 463.984C20.0421 444.055 19.941 438.92 15.6416 424.1C10.5076 406.422 10.8364 396.231 17.3866 369.828C21.4331 353.591 22.04 347.722 20.5226 339.883C20.0421 337.355 19.511 335.634 16.6279 327.389C13.239 317.677 13.3654 311.962 17.4119 295.523C20.9274 281.335 21.2309 275.696 18.7776 270.36C17.5384 267.602 14.0989 263.86 11.5951 262.519C10.4823 261.912 10.4823 261.862 11.5951 261.255C14.0989 259.914 17.5384 256.172 18.7776 253.414C21.2309 248.078 20.9274 242.439 17.4119 228.251C13.3654 211.812 13.239 206.097 16.6279 196.385C19.511 188.14 20.0421 186.42 20.5226 183.891C22.04 176.051 21.4331 170.184 17.3866 153.947C10.8364 127.544 10.5076 117.352 15.6416 99.674C19.941 84.8537 20.0421 79.7198 16.2738 59.7908C14.0989 48.2077 13.8459 44.5659 14.7817 36.9283C15.9703 27.0143 15.2622 20.0848 12.2021 12.4217C10.5076 8.14763 9.4707 6.6555 8.99018 7.89473ZM4.13439 255.11C5.67712 255.969 7.11868 259.636 6.15764 260.218C5.60125 260.573 2.33877 256.221 2.33877 255.135C2.33877 254.4 2.84457 254.376 4.13439 255.11ZM6.38525 264.643C6.38525 266.667 4.362 269.222 2.74342 269.222C1.68122 269.222 2.79401 266.843 4.8931 264.543C6.08176 263.253 6.38525 263.277 6.38525 264.643Z" fill="black"/>
<path d="M363.253 8.95745C359.005 17.3286 357.791 25.7251 359.13 36.9287C360.067 44.5665 359.813 48.2083 357.639 59.7914C353.87 79.7202 353.971 84.8542 358.271 99.6744C363.405 117.352 363.075 127.545 356.526 153.948C352.48 170.184 351.873 176.052 353.39 183.892C353.87 186.421 354.401 188.141 357.284 196.386C360.674 206.097 360.547 211.812 356.501 228.252C352.984 242.44 352.681 248.079 355.135 253.415C356.374 256.173 359.813 259.915 362.316 261.256C363.43 261.863 363.43 261.912 362.316 262.519C359.813 263.86 356.374 267.603 355.135 270.361C352.681 275.696 352.984 281.335 356.501 295.523C360.547 311.963 360.674 317.678 357.284 327.389C354.401 335.635 353.87 337.355 353.39 339.884C351.873 347.723 352.48 353.592 356.526 369.828C363.075 396.231 363.405 406.423 358.271 424.101C353.971 438.92 353.87 444.055 357.639 463.985C359.813 475.566 360.067 479.208 359.13 486.847C358.447 492.562 358.398 498.506 359.005 501.793C360.167 508.039 363.329 516.461 364.441 516.26C365.327 516.082 365.175 515.223 363.026 506.953C361.154 499.769 360.826 495.496 361.609 488.339C362.495 480.346 362.14 474.455 360.167 463.73C356.525 444.131 356.577 438.592 360.471 425.467C364.391 412.24 365.503 401.743 364.113 391.021C363.151 383.383 362.571 380.171 360.192 369.373C355.515 348.078 355.515 344.612 360.268 329.389C363.709 318.412 363.53 312.139 359.308 295.171C354.705 276.658 355.412 270.258 362.595 265.454C364.871 263.936 364.998 263.912 364.998 264.998C364.998 267.527 366.92 270.133 369.323 270.84C374.076 272.257 374.835 267.73 370.562 263.354C369.145 261.888 369.145 261.888 370.562 260.421C374.835 256.046 374.076 251.518 369.323 252.935C366.92 253.642 364.998 256.249 364.998 258.777C364.998 259.864 364.871 259.839 362.595 258.322C355.412 253.517 354.705 247.117 359.308 228.605C363.53 211.636 363.709 205.363 360.268 194.387C355.515 179.162 355.515 175.698 360.192 154.403C362.571 143.604 363.151 140.392 364.113 132.754C365.503 122.031 364.391 111.536 360.471 98.3087C356.577 85.1829 356.525 79.6443 360.167 60.0443C362.14 49.3211 362.495 43.4284 361.609 35.4367C360.826 28.2793 361.154 24.0053 363.026 16.8228C365.175 8.55281 365.327 7.69292 364.441 7.5159C364.137 7.46531 363.785 7.86997 363.253 8.95745ZM371.573 255.135C371.573 256.222 368.31 260.573 367.754 260.218C367.324 259.966 367.527 258.17 368.158 256.931C369.096 255.059 371.573 253.745 371.573 255.135ZM370.586 266.54C372.18 268.919 371.852 269.83 369.778 268.665C368.261 267.806 366.869 264.391 367.703 263.557C367.957 263.305 369.448 264.847 370.586 266.54Z" fill="black"/>
<path d="M135.234 501.818C131.592 502.096 128.507 503.007 120.565 506.218C108.628 510.998 106.074 511.125 96.2866 507.459C86.0187 503.614 83.1608 503.538 69.8581 506.7C63.3584 508.242 61.057 508.57 58.1232 508.394C55.9988 508.242 54.4055 507.887 47.6023 506.042C41.7856 504.473 36.2216 505.638 31.543 509.431C29.9497 510.721 29.7979 510.949 30.1266 511.48C30.4049 511.908 30.3543 511.935 35.5894 509.962C40.7993 508.014 43.0754 507.963 49.4739 509.583C58.1232 511.808 60.7787 511.757 70.9455 509.204C82.8826 506.218 86.0439 506.294 95.0726 509.759C105.998 513.984 109.488 513.856 122.361 508.849C132.275 504.98 135.765 504.397 142.062 505.638C149.068 507.003 154.581 507.028 164.444 505.714C177.924 503.942 181.44 504.575 183.766 509.177C184.905 511.453 184.904 511.504 183.336 511.504C178.708 511.504 174.485 514.919 173.903 519.167C173.018 525.489 182.122 524.175 186.194 517.371C186.978 516.081 186.928 516.081 187.712 517.371C191.784 524.175 200.889 525.489 200.003 519.167C199.421 514.919 195.198 511.504 190.57 511.504C189.002 511.504 189.002 511.453 190.14 509.177C192.467 504.575 195.982 503.942 209.462 505.714C219.326 507.028 224.838 507.003 231.844 505.638C238.142 504.397 241.632 504.98 251.544 508.849C264.418 513.856 267.908 513.984 278.833 509.759C287.862 506.294 291.024 506.218 302.961 509.204C313.127 511.757 315.783 511.808 324.432 509.583C330.83 507.963 333.106 508.014 338.317 509.962C343.552 511.935 343.501 511.908 343.779 511.48C344.108 510.949 343.956 510.721 342.363 509.431C337.685 505.638 332.12 504.473 326.304 506.042C314.999 509.128 314.29 509.152 304.047 506.7C290.745 503.538 287.887 503.614 277.619 507.459C267.832 511.125 265.277 510.998 253.341 506.218C241.505 501.465 238.646 501.034 230.579 502.703C224.788 503.893 218.388 503.893 209.007 502.703C194.212 500.807 188.369 502.603 187.282 509.405C187.105 510.467 186.801 510.467 186.624 509.405C185.537 502.603 179.695 500.807 164.9 502.703C155.669 503.866 149.144 503.893 143.453 502.728C139.508 501.945 137.105 501.666 135.234 501.818ZM184.5 514.564C185.638 514.867 185.638 514.818 184.525 516.336C180.858 521.317 175.142 523.164 176.331 518.965C177.241 515.702 181.111 513.604 184.5 514.564ZM193.909 514.894C197.069 516.36 199.244 521.368 196.716 521.368C194.464 521.368 188.47 516.715 188.47 514.943C188.47 514.185 192.315 514.135 193.909 514.894Z" fill="black"/>
</svg>
