<svg width="368" height="525" viewBox="0 0 368 525" fill="none" xmlns="http://www.w3.org/2000/svg">
<path d="M3.05093 0.745499C0.749492 1.88357 -0.135676 6.23354 1.35646 9.11666C2.29221 10.887 4.23959 11.9745 7.55263 12.5562C8.6907 12.7332 9.70233 12.9861 9.77821 13.062C10.1576 13.4413 9.07006 46.7235 8.48839 52.3128C7.83083 58.6354 7.0974 88.4529 7.0974 107.674C7.0974 114.629 6.97096 125.377 6.81922 131.573C6.41456 146.672 6.41456 166.727 6.81922 187.718C7.19857 207.976 7.04683 228.208 6.43986 239.64C5.98463 247.809 6.0352 248.416 6.89509 248.086C7.29973 247.934 7.3756 247.251 7.95729 239.564C8.81716 227.828 8.91832 221.379 8.6907 195.685C8.41252 164.248 8.4378 145.028 8.84244 127.906C8.99419 120.521 9.24711 104.209 9.34826 91.6142C9.60116 65.3627 9.95523 55.3983 10.6381 54.5383C10.9668 54.1337 11.5991 38.0237 12.0544 19.4098C12.2061 13.062 12.2061 13.062 20.0714 13.0114C24.396 12.9861 30.5416 12.8091 33.7282 12.5815C38.2553 12.278 40.7084 12.2527 44.9826 12.455C59.6763 13.0873 78.9983 12.9861 94.7037 12.2021C97.4857 12.0504 104.668 11.8227 110.637 11.6963C121.082 11.4687 123.206 11.3675 133.398 10.5329C143.186 9.74891 177.606 9.29368 179.68 9.92596C180.413 10.1283 184.966 10.2547 195.74 10.3306C233.421 10.5835 261.09 11.1146 289.314 12.1262C308.737 12.8344 351.402 13.1631 355.019 12.632C356.333 12.4297 356.333 12.4297 356.333 16.6785C356.333 19.0052 356.612 26.9465 356.967 34.3313C357.927 55.5246 358.105 62.6313 358.382 92.373C358.509 107.75 358.685 121.179 358.761 122.216C358.837 123.253 359.04 126.844 359.243 130.182C359.444 133.521 359.85 139.54 360.102 143.586C361.291 160.758 361.367 167.005 361.14 221.227C361.013 245.178 361.037 245.506 361.519 245.506C362.43 245.506 362.53 243.94 362.454 227.804C362.403 219.306 362.505 208.684 362.631 204.156C363.289 184.582 362.961 158.482 361.872 141.689C360.609 122.039 360.609 121.811 360.381 90.2233C360.153 58.509 360.051 53.982 358.989 31.094C358.078 11.9492 358.078 12.3033 359.571 12.0756C366.551 11.0387 370.066 4.21029 364.933 1.58009C361.216 -0.316702 357.143 3.04694 356.688 8.35794C356.512 10.4318 356.512 10.4318 355.601 10.6088C353.298 11.0893 306.486 10.8111 290.579 10.2547C264.328 9.29368 243.108 8.86376 199.406 8.38322C188 8.25678 177.303 8.05445 175.633 7.90271C173.458 7.70038 168.881 7.70038 159.321 7.87743C138.886 8.30735 136.888 8.38322 130.11 8.91432C126.646 9.19253 119.058 9.5466 113.292 9.67304C107.526 9.82478 100.47 10.0524 97.612 10.1789C82.8171 10.887 68.4269 11.0387 60.1063 10.5835C55.2505 10.3053 51.9374 10.2294 51.7604 10.3559C51.5835 10.5076 48.8773 10.5076 45.0079 10.3559C40.1014 10.1536 37.4714 10.1789 34.0065 10.4065C18.554 11.5193 11.9785 11.1146 11.6497 9.0155C10.5116 2.01002 7.1227 -1.25245 3.05093 0.745499ZM6.99624 2.99635C8.21019 3.78037 9.01949 5.90477 9.5 9.57188C9.7529 11.6204 4.7201 10.4318 3.405 8.15561C1.50821 4.86785 4.13841 1.09957 6.99624 2.99635ZM364.706 3.57804C366.627 5.50011 364.73 8.56027 360.734 9.95124C358.408 10.7605 358.306 10.71 358.509 8.71201C358.939 4.00798 362.327 1.20073 364.706 3.57804Z" fill="black"/>
<path d="M4.16556 252.969C0.877803 253.676 0.599608 257.115 3.5333 260.784C4.79783 262.326 4.79783 262.326 3.5333 263.868C-0.437302 268.826 2.06646 273.579 7.37747 271.102C9.88122 269.937 16.305 263.615 16.305 262.326C16.305 259.619 6.92224 252.386 4.16556 252.969ZM5.86004 254.486C7.57978 254.966 14.1553 261.188 14.1553 262.35C14.1553 262.984 9.09721 268.244 7.32688 269.433C2.95162 272.365 1.53536 268.344 5.45537 264.095C7.12455 262.301 7.12455 262.35 5.45537 260.556C2.06646 256.888 2.29407 253.5 5.86004 254.486Z" fill="black"/>
<path d="M362.833 253.018C360.126 253.601 352.414 260.48 352.414 262.326C352.414 263.616 358.837 269.938 361.34 271.102C366.651 273.579 369.155 268.826 365.185 263.868C363.92 262.326 363.92 262.326 365.185 260.784C368.651 256.459 367.334 252.059 362.833 253.018ZM365.033 254.763C366.323 255.776 365.64 257.95 363.264 260.556C362.505 261.364 361.898 262.149 361.898 262.326C361.898 262.502 362.505 263.288 363.264 264.096C368.575 269.837 364.603 272.847 358.939 267.385C354.664 263.236 354.26 262.478 355.474 261.011C359.975 255.573 363.288 253.398 365.033 254.763Z" fill="black"/>
<path d="M6.15989 276.842C6.08402 277.069 6.21046 280.738 6.43808 285.011C7.04505 296.189 7.19679 316.978 6.81743 336.932C6.41279 357.721 6.41279 378.054 6.81743 393.077C6.96918 399.274 7.09564 410.023 7.09564 416.976C7.09564 436.198 7.82907 466.016 8.48661 472.338C9.0683 477.928 10.1558 511.209 9.77642 511.588C9.70055 511.664 8.68894 511.892 7.55087 512.094C1.68347 513.132 -0.997325 517.278 1.25353 521.907C4.06078 527.749 10.3075 523.982 11.6479 515.636C11.9767 513.536 18.5522 513.132 34.0047 514.243C37.4696 514.471 40.0997 514.498 45.0061 514.295C48.8755 514.143 51.5817 514.143 51.7586 514.295C51.9356 514.422 55.2487 514.346 60.1045 514.067C68.4251 513.612 82.8153 513.764 97.6103 514.471C100.468 514.598 107.524 514.826 113.29 514.978C119.057 515.105 126.644 515.457 130.109 515.736C136.886 516.267 138.884 516.343 159.319 516.774C168.879 516.95 173.457 516.95 175.632 516.747C177.301 516.596 187.999 516.394 199.405 516.267C243.107 515.788 264.326 515.357 290.577 514.395C306.484 513.839 353.297 513.561 355.599 514.042C356.51 514.219 356.51 514.219 356.686 516.292C357.141 521.603 361.214 524.968 364.932 523.071C370.064 520.44 366.549 513.612 359.569 512.574C358.077 512.347 358.077 512.701 358.987 493.557C360.049 470.669 360.152 466.141 360.379 434.427C360.607 402.84 360.607 402.612 361.87 382.961C362.959 366.169 363.287 340.069 362.629 320.494C362.504 315.967 362.401 305.32 362.452 296.847C362.528 280.711 362.428 279.144 361.517 279.144C361.036 279.144 361.011 279.472 361.138 303.423C361.366 357.645 361.29 363.893 360.1 381.064C359.848 385.086 359.442 391.131 359.241 394.469C359.038 397.807 358.835 401.398 358.759 402.435C358.683 403.471 358.507 416.9 358.38 432.278C358.103 462.019 357.925 469.127 356.965 490.319C356.61 497.679 356.331 505.645 356.331 507.973C356.331 512.222 356.331 512.222 355.017 512.019C351.4 511.487 308.735 511.816 289.312 512.525C261.088 513.536 233.42 514.067 195.738 514.319C184.964 514.395 180.411 514.522 179.678 514.725C177.604 515.357 143.184 514.902 133.396 514.118C123.204 513.284 121.08 513.181 110.635 512.954C104.666 512.829 97.4839 512.601 94.7019 512.449C78.9965 511.664 59.6745 511.563 44.9809 512.195C40.7066 512.398 38.2535 512.373 33.7265 512.07C30.5399 511.842 24.3943 511.664 20.0696 511.639C12.2043 511.588 12.2043 511.588 12.0526 505.241C11.5973 486.626 10.9651 470.517 10.6363 470.113C9.95347 469.252 9.5994 459.288 9.3465 433.036C9.24532 420.442 8.99242 404.105 8.84068 396.745C8.43604 379.674 8.41074 360.503 8.68894 328.713C8.91655 301.147 8.58778 288.046 7.37384 278.006C7.19679 276.589 6.51395 275.931 6.15989 276.842ZM9.11888 517.102C8.36017 520.768 7.32325 522.185 5.27472 522.185C1.80992 522.185 2.03753 516.267 5.52762 514.75C9.29591 513.132 9.85229 513.511 9.11888 517.102ZM360.732 514.699C364.729 516.091 366.625 519.15 364.704 521.072C362.325 523.45 358.938 520.643 358.507 515.913C358.304 513.94 358.407 513.891 360.732 514.699Z" fill="black"/>
</svg>
