<svg width="370" height="519" viewBox="0 0 370 519" fill="none" xmlns="http://www.w3.org/2000/svg">
<path d="M155.753 0.475442C153.426 0.98125 150.239 2.34693 148.823 3.43444C147.837 4.19315 148.09 4.24372 146.167 2.95391C140.806 -0.637341 130.614 -0.53618 125.176 3.15624C124.266 3.78849 124.266 3.78849 122.622 3.02978C117.817 0.753636 110.963 1.03183 105.273 3.68734C102.921 4.80012 102.921 4.80012 101.858 3.96554C96.9268 -0.00507879 89.1879 -0.586759 82.5871 2.49868C80.6145 3.43444 80.6145 3.43444 78.9201 2.57455C73.4573 -0.131531 64.8586 0.273117 58.6371 3.58618C57.0691 4.42077 57.0691 4.42077 55.6782 3.58618C48.9256 -0.435016 37.0896 0.39957 29.0473 5.48297C27.8079 6.24168 27.8079 6.24168 26.3663 5.65999C15.011 1.08241 6.48809 11.8056 10.5346 25.5636C11.1415 27.688 11.1415 27.688 10.5851 28.0422C4.64187 31.9368 2.28985 42.2554 5.77994 49.1344C6.41222 50.3988 6.41222 50.3988 5.72937 51.8658C3.65554 56.494 3.83259 63.6511 6.13401 68.4817C7.14563 70.5554 7.14563 70.5554 6.41222 71.6428C2.79567 76.9034 2.01166 83.7823 4.5913 87.9552C5.0971 88.7898 5.0971 88.7898 4.21194 89.9533C0.0390041 95.4413 -0.0368677 103.332 4.0349 107.328C5.04653 108.289 5.04653 108.289 4.566 109.402C1.83463 115.522 2.56805 123.969 6.1593 127.864C7.19622 128.976 7.19622 128.976 6.26047 131.025C4.0602 135.805 4.0349 140.56 6.1593 144.404C6.94332 145.82 6.94332 145.82 6.00756 147.11C2.64393 151.789 0.89888 159.78 2.39103 163.65C2.82095 164.813 2.82095 164.813 1.93579 166.71C-0.795582 172.451 -0.0621575 179.659 3.75671 184.641C5.04653 186.285 5.04653 186.285 4.33838 188.991C2.59334 195.592 2.74508 201.257 4.76833 205.176C5.24884 206.113 5.24884 206.113 4.28782 208.086C1.20237 214.459 1.40469 222.805 4.79361 227.609C5.72937 228.975 5.72937 228.975 4.566 231.327C2.16341 236.208 1.98637 244.453 4.21194 248.829C4.81892 250.067 4.81892 250.067 3.95903 251.788C1.6576 256.34 1.6576 262.611 3.95903 267.163C4.81892 268.883 4.81892 268.883 4.21194 270.122C1.98637 274.498 2.16341 282.743 4.566 287.624C5.72937 289.976 5.72937 289.976 4.79361 291.341C1.40469 296.146 1.20237 304.492 4.28782 310.865C5.24884 312.838 5.24884 312.838 4.76833 313.775C2.74508 317.694 2.59334 323.359 4.33838 329.96C5.04653 332.667 5.04653 332.667 3.75671 334.309C-0.0621575 339.292 -0.795582 346.5 1.93579 352.242C2.82095 354.138 2.82095 354.138 2.39103 355.301C0.89888 359.171 2.64393 367.162 6.00756 371.841C6.94332 373.131 6.94332 373.131 6.1593 374.548C4.0349 378.391 4.0602 383.146 6.26047 387.926C7.19622 389.974 7.19622 389.974 6.1593 391.088C2.56805 394.982 1.83463 403.428 4.566 409.549C5.04653 410.663 5.04653 410.663 4.0349 411.622C-0.0368677 415.619 0.0390041 423.51 4.21194 428.997C5.0971 430.162 5.0971 430.162 4.5913 430.996C2.01166 435.169 2.79567 442.047 6.41222 447.309C7.14563 448.395 7.14563 448.395 6.13401 450.469C3.83259 455.3 3.65554 462.456 5.72937 467.085C6.41222 468.553 6.41222 468.553 5.77994 469.816C2.28985 476.696 4.64187 487.014 10.5851 490.908C11.1415 491.263 11.1415 491.263 10.5346 493.387C6.48809 507.145 15.011 517.869 26.3663 513.29C27.8079 512.71 27.8079 512.71 29.0473 513.469C37.0896 518.552 48.9256 519.387 55.6782 515.365C57.0691 514.531 57.0691 514.531 58.6371 515.365C64.8586 518.677 73.4573 519.083 78.9201 516.376C80.6145 515.517 80.6145 515.517 82.5871 516.452C89.1879 519.538 96.9268 518.956 101.858 514.986C102.921 514.151 102.921 514.151 105.273 515.263C110.963 517.918 117.817 518.197 122.622 515.921C124.266 515.162 124.266 515.162 125.176 515.794C130.614 519.487 140.806 519.588 146.167 515.997C148.09 514.707 147.837 514.758 148.823 515.517C154.64 519.942 167.032 519.866 172.141 515.39C173.051 514.58 173.051 514.58 173.734 515.238C178.362 519.614 191.462 519.614 196.09 515.238C196.773 514.58 196.773 514.58 197.684 515.39C202.794 519.866 215.185 519.942 221.003 515.517C221.989 514.758 221.735 514.707 223.658 515.997C229.019 519.588 239.212 519.487 244.648 515.794C245.559 515.162 245.559 515.162 247.203 515.921C252.008 518.197 258.863 517.918 264.553 515.263C266.905 514.151 266.905 514.151 267.967 514.986C272.899 518.956 280.638 519.538 287.239 516.452C289.211 515.517 289.211 515.517 290.905 516.376C296.368 519.083 304.966 518.677 311.187 515.365C312.756 514.531 312.756 514.531 314.146 515.365C320.899 519.387 332.735 518.552 340.777 513.469C342.018 512.71 342.018 512.71 343.459 513.29C354.789 517.869 363.338 507.145 359.29 493.387C358.683 491.263 358.683 491.263 359.241 490.908C365.183 487.014 367.535 476.696 364.045 469.816C363.413 468.553 363.414 468.553 364.096 467.085C366.17 462.456 365.993 455.3 363.69 450.469C362.679 448.395 362.679 448.395 363.413 447.309C367.029 442.047 367.814 435.169 365.234 430.996C364.728 430.162 364.728 430.162 365.614 428.997C369.787 423.51 369.863 415.619 365.79 411.622C364.779 410.663 364.779 410.663 365.259 409.549C367.99 403.428 367.256 394.982 363.666 391.088C362.628 389.974 362.628 389.974 363.565 387.926C365.766 383.146 365.79 378.391 363.666 374.548C362.882 373.131 362.882 373.131 363.818 371.841C367.181 367.137 368.926 359.171 367.435 355.276C366.979 354.112 366.979 354.112 367.738 352.621C370.621 346.855 369.963 339.368 366.069 334.309C364.779 332.667 364.779 332.667 365.487 329.96C367.232 323.359 367.08 317.694 365.056 313.775C364.576 312.838 364.576 312.838 365.538 310.865C368.622 304.492 368.421 296.173 365.031 291.341C364.096 289.976 364.096 289.976 365.259 287.624C367.662 282.743 367.839 274.498 365.614 270.122C365.007 268.883 365.007 268.883 365.866 267.163C367.131 264.659 367.511 262.89 367.511 259.475C367.511 256.061 367.131 254.292 365.866 251.788C365.007 250.067 365.007 250.067 365.614 248.829C367.839 244.453 367.662 236.208 365.259 231.327C364.096 228.975 364.096 228.975 365.031 227.609C368.421 222.778 368.622 214.459 365.538 208.086C364.576 206.113 364.576 206.113 365.056 205.176C367.08 201.257 367.232 195.592 365.487 188.991C364.779 186.285 364.779 186.285 366.069 184.641C369.963 179.583 370.621 172.097 367.738 166.33C366.979 164.838 366.979 164.838 367.435 163.675C368.926 159.78 367.181 151.814 363.818 147.11C362.882 145.82 362.882 145.82 363.666 144.404C365.79 140.56 365.766 135.805 363.565 131.025C362.628 128.976 362.628 128.976 363.666 127.864C367.256 123.969 367.99 115.522 365.259 109.402C364.779 108.289 364.779 108.289 365.79 107.328C369.863 103.332 369.787 95.4413 365.614 89.9533C364.728 88.7898 364.728 88.7898 365.234 87.9552C367.814 83.7823 367.029 76.9034 363.413 71.6428C362.679 70.5554 362.679 70.5554 363.69 68.4817C365.993 63.6511 366.17 56.494 364.096 51.8658C363.414 50.3988 363.413 50.3988 364.045 49.1344C367.535 42.2554 365.183 31.9368 359.241 28.0422C358.683 27.688 358.683 27.688 359.29 25.5636C363.338 11.8056 354.789 1.08241 343.459 5.65999C342.018 6.24168 342.018 6.24168 340.777 5.48297C332.735 0.39957 320.899 -0.435016 314.146 3.58618C312.756 4.42077 312.756 4.42077 311.187 3.58618C304.966 0.273117 296.368 -0.131531 290.905 2.57455C289.211 3.43444 289.211 3.43444 287.239 2.49868C280.638 -0.586759 272.899 -0.00507879 267.967 3.96554C266.905 4.80012 266.905 4.80012 264.553 3.68734C258.863 1.03183 252.008 0.753636 247.203 3.02978C245.559 3.78849 245.559 3.78849 244.648 3.15624C239.212 -0.53618 229.019 -0.637341 223.658 2.95391C221.735 4.24372 221.989 4.19315 221.003 3.43444C215.185 -0.991408 202.794 -0.915537 197.684 3.56088C196.773 4.37018 196.773 4.37018 196.09 3.71262C194.22 1.94229 188.807 0.247827 184.913 0.247827C181.018 0.247827 175.606 1.94229 173.734 3.71262C173.051 4.37018 173.051 4.37018 172.141 3.56088C169.005 0.804217 161.089 -0.687922 155.753 0.475442ZM164.604 2.80216C170.016 3.99082 171.635 5.17948 170.396 7.05097C167.462 11.4009 168.904 17.4454 172.874 17.4454C176.769 17.4454 178.008 12.2861 175.277 7.40504C174.442 5.91289 174.594 5.68528 177.376 4.42077C182.839 1.94229 190.123 2.4228 194.524 5.55884C195.282 6.08994 195.282 6.08994 194.548 7.40504C191.817 12.2861 193.055 17.4454 196.951 17.4454C200.921 17.4454 202.363 11.4009 199.429 7.05097C198.366 5.45766 198.469 5.28064 201.225 4.04141C206.333 1.71468 213.288 1.76526 218.044 4.16785C220.472 5.4071 220.472 5.4071 219.307 7.70852C216.172 13.9047 219.838 20.6826 223.986 16.3326C226.187 14.0311 226.211 9.17537 224.011 6.44399C223.431 5.71058 223.431 5.71058 223.962 5.28064C227.729 2.32165 235.418 1.71468 240.854 3.91495C243.713 5.07831 243.738 5.10361 242.727 6.57045C239.641 11.0722 241.336 17.5465 245.686 17.9006C250.162 18.2547 251.655 11.2492 248.138 6.31755C246.393 3.86436 257.294 3.20682 262.681 5.43238C265.312 6.51987 265.388 6.64632 264.477 8.44196C260.911 15.498 264.375 23.6162 269.105 19.3422C272.089 16.6361 272.392 11.1733 269.737 7.70852C267.309 4.52192 277.349 1.99288 283.925 4.11728C286.757 5.05302 287.136 5.33122 286.404 6.11522C282.28 10.4905 285.19 18.634 290.45 17.4454C295.053 16.4085 296.115 10.5916 292.498 6.1911C291.487 4.92656 291.815 4.62308 295.178 3.76321C299.882 2.57455 312.124 4.97715 310.531 6.77278C306.332 11.5527 309.114 20.3285 314.526 19.3169C319.281 18.4317 320.116 11.7044 316.018 7.32917C314.628 5.83702 314.602 5.9382 316.498 5.05302C322.139 2.39752 330.358 2.97921 337.591 6.49458C339.943 7.63265 339.918 7.58207 338.704 9.0995C334.228 14.7646 338.021 22.2759 343.915 19.3422C347.556 17.5212 348.087 12.716 345.001 9.07421C343.736 7.58207 343.687 7.70853 345.608 7.20271C353.802 4.97715 359.468 12.2355 357.52 22.4023C356.71 26.6006 356.661 26.6765 354.409 26.6765C349.123 26.6765 344.495 32.1897 346.847 35.6798C348.922 38.7653 353.423 36.9191 356.661 31.684C358 29.4837 357.848 29.5089 359.544 31.1781C363.159 34.82 364.424 41.5977 362.427 46.8835C361.896 48.2998 361.896 48.2999 360.934 47.5411C356.786 44.2532 349.984 45.5937 349.984 49.6908C349.984 53.9902 356.585 55.8616 361.111 52.8521C363.489 51.2841 363.918 62.1337 361.693 66.9642C360.959 68.5575 360.959 68.5575 359.138 67.2929C353.979 63.6511 348.871 64.0811 348.619 68.1782C348.289 73.0085 355.396 75.9929 359.999 72.9327C361.162 72.1739 361.213 72.1994 362.3 74.172C364.476 78.1173 364.904 83.2007 363.311 86.286C362.958 86.9689 362.958 86.9689 361.414 85.9826C355.75 82.3407 349.933 84.4905 352.613 89.245C354.258 92.1788 358.431 93.0386 362.021 91.1672C363.387 90.4338 364.424 91.5718 365.69 95.2137C367.484 100.348 365.107 107.581 362.351 105.33C358.279 102.017 352.336 102.674 352.917 106.417C353.372 109.174 357.647 110.641 362.224 109.604C363.994 109.199 365.31 117.722 364.146 122.072C362.882 126.801 361.794 127.611 359.544 125.486C356.306 122.401 352.892 121.313 351.323 122.856C348.744 125.461 353.271 130.064 358.506 130.115C360.758 130.14 360.758 130.14 361.365 131.354C362.907 134.363 363.362 138.536 362.452 141.419C361.642 144.05 361.465 144.176 360.151 143.063C355.496 139.067 348.82 140.408 350.085 145.061C351.147 148.83 356.282 149.993 360.986 147.489C361.289 147.337 363.413 151.232 364.197 153.356C365.891 158.06 365.942 163.321 364.297 162.158C360.075 159.199 355.775 159.755 355.42 163.346C355.016 167.646 360.504 170.377 364.349 167.772C365.587 166.937 365.614 166.963 366.245 168.733C368.066 174.044 365.208 186.361 362.983 182.769C360.758 179.128 356.054 178.242 354.157 181.075C352.185 184.009 355.623 187.524 360.303 187.347C362.579 187.271 362.579 187.271 363.286 190.053C364.931 196.477 364.07 205.582 362.048 203.306C359.29 200.195 354.358 201.637 354.358 205.555C354.358 209.679 358.558 211.424 362.072 208.769C363.489 207.68 363.286 207.604 364.045 209.349C366.194 214.104 366.245 220.199 364.222 224.55C362.958 227.205 362.856 227.255 361.466 226.117C358.734 223.84 356.23 223.664 355.244 225.713C353.802 228.799 357.217 232.086 360.807 231.048C361.541 230.821 362.224 230.644 362.3 230.644C363.186 230.644 364.98 236.259 365.159 239.622C365.386 244.301 363.893 249.157 362.679 247.664C361.061 245.718 357.241 245.667 356.255 247.588C354.409 251.154 358.582 254.392 362.325 252.319C364.552 251.054 366.649 258.313 365.335 262.789C364.273 266.431 363.565 267.341 362.325 266.632C358.582 264.559 354.409 267.797 356.255 271.363C357.241 273.284 361.061 273.233 362.679 271.287C363.489 270.3 363.842 270.907 364.88 274.902C365.386 276.901 365.234 281.351 364.576 283.502C364.146 284.968 362.552 288.307 362.3 288.307C362.224 288.307 361.541 288.13 360.807 287.903C357.217 286.865 353.802 290.152 355.244 293.238C356.23 295.287 358.734 295.11 361.466 292.834C362.856 291.696 362.958 291.745 364.222 294.401C366.245 298.752 366.194 304.847 364.045 309.602C363.286 311.347 363.489 311.271 362.072 310.182C358.558 307.527 354.358 309.272 354.358 313.395C354.358 317.314 359.29 318.756 362.048 315.645C364.07 313.369 364.931 322.473 363.286 328.898C362.579 331.68 362.579 331.68 360.303 331.605C355.623 331.426 352.185 334.943 354.157 337.875C356.054 340.709 360.758 339.823 362.983 336.182C365.208 332.591 368.066 344.907 366.245 350.193C365.614 351.987 365.587 352.014 364.349 351.179C360.504 348.573 355.016 351.305 355.42 355.605C355.775 359.195 360.075 359.753 364.297 356.794C365.942 355.629 365.891 360.891 364.197 365.595C363.413 367.719 361.289 371.613 360.986 371.462C356.282 368.958 351.147 370.121 350.085 373.89C348.82 378.542 355.496 379.883 360.151 375.887C361.465 374.775 361.642 374.901 362.452 377.531C363.362 380.415 362.907 384.588 361.365 387.598C360.758 388.812 360.758 388.812 358.506 388.836C353.271 388.888 348.744 393.489 351.323 396.095C352.892 397.637 356.306 396.551 359.544 393.464C361.794 391.34 362.882 392.15 364.146 396.879C365.31 401.228 363.994 409.752 362.224 409.346C357.647 408.311 353.372 409.777 352.917 412.533C352.336 416.277 358.279 416.933 362.351 413.622C365.107 411.37 367.484 418.603 365.69 423.737C364.424 427.379 363.387 428.517 362.021 427.783C358.431 425.913 354.258 426.772 352.613 429.706C349.933 434.46 355.75 436.611 361.414 432.969C362.958 431.983 362.958 431.983 363.311 432.665C364.904 435.75 364.476 440.833 362.3 444.778C361.213 446.751 361.162 446.778 359.999 446.019C355.396 442.957 348.289 445.943 348.619 450.772C348.871 454.869 353.979 455.3 359.138 451.658C360.959 450.393 360.959 450.393 361.693 451.986C363.918 456.817 363.489 467.667 361.111 466.098C356.585 463.09 349.984 464.96 349.984 469.26C349.984 473.357 356.786 474.698 360.934 471.409C361.896 470.65 361.896 470.65 362.427 472.067C364.424 477.354 363.159 484.131 359.544 487.773C357.848 489.442 358 489.467 356.661 487.266C353.423 482.031 348.922 480.186 346.847 483.272C344.495 486.762 349.123 492.274 354.409 492.274C356.661 492.274 356.71 492.35 357.52 496.549C359.468 506.716 353.802 513.973 345.608 511.748C343.687 511.242 343.736 511.369 345.001 509.876C348.087 506.234 347.556 501.43 343.915 499.609C338.021 496.674 334.228 504.186 338.704 509.851C339.918 511.369 339.943 511.318 337.591 512.456C330.358 515.972 322.139 516.553 316.498 513.897C314.602 513.013 314.628 513.114 316.018 511.621C320.116 507.247 319.281 500.519 314.526 499.633C309.114 498.622 306.332 507.399 310.531 512.179C312.124 513.973 299.882 516.376 295.178 515.187C291.815 514.328 291.487 514.024 292.498 512.759C296.115 508.359 295.053 502.543 290.45 501.506C285.19 500.316 282.28 508.461 286.404 512.835C287.136 513.62 286.757 513.897 283.925 514.834C277.349 516.959 267.309 514.428 269.737 511.242C272.392 507.778 272.089 502.315 269.105 499.609C264.375 495.335 260.911 503.454 264.477 510.51C265.388 512.304 265.312 512.431 262.681 513.518C257.294 515.745 246.393 515.086 248.138 512.634C251.655 507.702 250.162 500.696 245.686 501.05C241.336 501.405 239.641 507.879 242.727 512.38C243.738 513.848 243.713 513.873 240.854 515.035C235.418 517.236 227.729 516.629 223.962 513.67C223.431 513.241 223.431 513.241 224.011 512.507C226.211 509.776 226.187 504.92 223.986 502.619C219.838 498.268 216.172 505.047 219.307 511.242C220.472 513.544 220.472 513.544 218.044 514.783C213.288 517.186 206.333 517.236 201.225 514.91C198.469 513.67 198.366 513.493 199.429 511.9C202.363 507.551 200.921 501.506 196.951 501.506C193.055 501.506 191.817 506.665 194.548 511.545C195.282 512.862 195.282 512.862 194.524 513.393C189.465 516.983 180.36 516.983 175.302 513.393C174.543 512.862 174.543 512.862 175.277 511.545C178.008 506.665 176.769 501.506 172.874 501.506C168.904 501.506 167.462 507.551 170.396 511.9C171.458 513.493 171.357 513.67 168.6 514.91C163.492 517.236 156.537 517.186 151.782 514.783C149.354 513.544 149.354 513.544 150.518 511.242C153.653 505.047 149.986 498.268 145.839 502.619C143.638 504.92 143.613 509.776 145.813 512.507C146.395 513.241 146.395 513.241 145.864 513.67C142.096 516.629 134.407 517.236 128.97 515.035C126.112 513.873 126.087 513.848 127.098 512.38C130.184 507.879 128.489 501.405 124.139 501.05C119.663 500.696 118.171 507.702 121.686 512.634C123.431 515.086 112.531 515.745 107.144 513.518C104.514 512.431 104.438 512.304 105.349 510.51C108.915 503.454 105.45 495.335 100.72 499.609C97.7362 502.315 97.4327 507.778 100.088 511.242C102.516 514.428 92.4758 516.959 85.9002 514.834C83.0678 513.897 82.6884 513.62 83.4217 512.835C87.5442 508.461 84.6357 500.316 79.3753 501.506C74.7724 502.543 73.7102 508.359 77.3268 512.759C78.3383 514.024 78.0096 514.328 74.646 515.187C69.942 516.376 57.7013 513.973 59.2946 512.179C63.4929 507.399 60.7109 498.622 55.2988 499.633C50.5441 500.519 49.7095 507.247 53.8066 511.621C55.1975 513.114 55.2229 513.013 53.3261 513.897C47.6862 516.553 39.4669 515.972 32.2339 512.456C29.8818 511.318 29.9071 511.369 31.121 509.851C35.5974 504.186 31.8039 496.674 25.9111 499.609C22.2693 501.43 21.7382 506.234 24.8237 509.876C26.0883 511.369 26.1387 511.242 24.2167 511.748C16.0226 513.973 10.3575 506.716 12.3049 496.549C13.1142 492.35 13.1648 492.274 15.4156 492.274C20.7014 492.274 25.3296 486.762 22.9775 483.272C20.9036 480.186 16.402 482.031 13.1648 487.266C11.8244 489.467 11.9761 489.442 10.2817 487.773C6.66512 484.131 5.40058 477.354 7.39855 472.067C7.92965 470.65 7.92965 470.65 8.89067 471.409C13.0383 474.698 19.8414 473.357 19.8414 469.26C19.8414 464.96 13.2407 463.09 8.71365 466.098C6.33635 467.667 5.9064 456.817 8.13196 451.986C8.86539 450.393 8.86539 450.393 10.6863 451.658C15.8456 455.3 20.9542 454.869 21.2071 450.772C21.536 445.943 14.4293 442.957 9.82643 446.019C8.66306 446.778 8.61249 446.751 7.52499 444.778C5.35002 440.833 4.92007 435.75 6.51337 432.665C6.86745 431.983 6.86745 431.983 8.41016 432.969C14.0752 436.611 19.892 434.46 17.2113 429.706C15.5674 426.772 11.3944 425.913 7.80319 427.783C6.4375 428.517 5.40058 427.379 4.13607 423.737C2.34044 418.603 4.71774 411.37 7.47442 413.622C11.5462 416.933 17.4895 416.277 16.9078 412.533C16.4525 409.777 12.1785 408.311 7.60086 409.346C5.83053 409.752 4.51543 401.228 5.67879 396.879C6.94332 392.15 8.0308 391.34 10.2817 393.464C13.5188 396.551 16.9331 397.637 18.5011 396.095C21.0808 393.489 16.5537 388.888 11.3186 388.836C9.06772 388.812 9.06772 388.812 8.46075 387.598C6.91801 384.588 6.46279 380.415 7.37324 377.531C8.18255 374.901 8.35957 374.775 9.67469 375.887C14.3281 379.883 21.0049 378.542 19.7403 373.89C18.6781 370.121 13.5441 368.958 8.8401 371.462C8.53662 371.613 6.41222 367.719 5.6282 365.595C3.93374 360.891 3.88315 355.629 5.52704 356.794C9.75056 359.753 14.0499 359.195 14.404 355.605C14.8087 351.305 9.32062 348.573 5.47646 351.179C4.23723 352.014 4.21194 351.987 3.57967 350.193C1.75876 344.907 4.61659 332.591 6.84214 336.182C9.06772 339.823 13.7718 340.709 15.6685 337.875C17.6412 334.943 14.2017 331.426 9.52295 331.605C7.2468 331.68 7.2468 331.68 6.53866 328.898C4.89479 322.473 5.75466 313.369 7.7779 315.645C10.5346 318.756 15.4662 317.314 15.4662 313.395C15.4662 309.272 11.268 307.527 7.7526 310.182C6.33635 311.271 6.53866 311.347 5.77994 309.602C3.63026 304.847 3.57967 298.752 5.60291 294.401C6.86745 291.745 6.9686 291.696 8.35957 292.834C11.0909 295.11 13.5947 295.287 14.581 293.238C16.0226 290.152 12.6084 286.865 9.01713 287.903C8.2837 288.13 7.60086 288.307 7.52499 288.307C6.63983 288.307 4.8442 282.692 4.66717 279.329C4.43956 274.65 5.93168 269.794 7.14563 271.287C8.76423 273.233 12.5831 273.284 13.5694 271.363C15.4156 267.797 11.2427 264.559 7.4997 266.632C5.27414 267.897 3.17503 260.638 4.49013 256.162C5.55233 252.52 6.26047 251.609 7.4997 252.319C11.2427 254.392 15.4156 251.154 13.5694 247.588C12.5831 245.667 8.76423 245.718 7.14563 247.664C6.33635 248.65 5.98227 248.044 4.94536 244.049C4.43956 242.05 4.5913 237.6 5.24884 235.449C5.67879 233.983 7.27209 230.644 7.52499 230.644C7.60086 230.644 8.2837 230.821 9.01713 231.048C12.6084 232.086 16.0226 228.799 14.581 225.713C13.5947 223.664 11.0909 223.84 8.35957 226.117C6.9686 227.255 6.86745 227.205 5.60291 224.55C3.57967 220.199 3.63026 214.104 5.77994 209.349C6.53866 207.604 6.33635 207.68 7.7526 208.769C11.268 211.424 15.4662 209.679 15.4662 205.555C15.4662 201.637 10.5346 200.195 7.7779 203.306C5.75466 205.582 4.89479 196.477 6.53866 190.053C7.2468 187.271 7.2468 187.271 9.52295 187.347C14.2017 187.524 17.6412 184.009 15.6685 181.075C13.7718 178.242 9.06772 179.128 6.84214 182.769C4.61659 186.361 1.75876 174.044 3.57967 168.733C4.21194 166.963 4.23723 166.937 5.47646 167.772C9.32062 170.377 14.8087 167.646 14.404 163.346C14.0499 159.755 9.75056 159.199 5.52704 162.158C3.88315 163.321 3.93374 158.06 5.6282 153.356C6.41222 151.232 8.53662 147.337 8.8401 147.489C13.5441 149.993 18.6781 148.83 19.7403 145.061C21.0049 140.408 14.3281 139.067 9.67469 143.063C8.35957 144.176 8.18255 144.05 7.37324 141.419C6.46279 138.536 6.91801 134.363 8.46075 131.354C9.06772 130.14 9.06772 130.14 11.3186 130.115C16.5537 130.064 21.0808 125.461 18.5011 122.856C16.9331 121.313 13.5188 122.401 10.2817 125.486C8.0308 127.611 6.94332 126.801 5.67879 122.072C4.51543 117.722 5.83053 109.199 7.60086 109.604C12.1785 110.641 16.4525 109.174 16.9078 106.417C17.4895 102.674 11.5462 102.017 7.47442 105.33C4.71774 107.581 2.34044 100.348 4.13607 95.2137C5.40058 91.5718 6.4375 90.4338 7.80319 91.1672C11.3944 93.0386 15.5674 92.1788 17.2113 89.245C19.892 84.4905 14.0752 82.3407 8.41016 85.9826C6.86745 86.9689 6.86745 86.9689 6.51337 86.286C4.92007 83.2007 5.35002 78.1173 7.52499 74.172C8.61249 72.1994 8.66306 72.1739 9.82643 72.9327C14.4293 75.9929 21.536 73.0085 21.2071 68.1782C20.9542 64.0811 15.8456 63.6511 10.6863 67.2929C8.86539 68.5575 8.86539 68.5575 8.13196 66.9642C5.9064 62.1337 6.33635 51.2841 8.71365 52.8521C13.2407 55.8616 19.8414 53.9902 19.8414 49.6908C19.8414 45.5937 13.0383 44.2532 8.89067 47.5411C7.92965 48.2999 7.92965 48.2998 7.39855 46.8835C5.40058 41.5977 6.66512 34.82 10.2817 31.1781C11.9761 29.5089 11.8244 29.4837 13.1648 31.684C16.402 36.9191 20.9036 38.7653 22.9775 35.6798C25.3296 32.1897 20.7014 26.6765 15.4156 26.6765C13.1648 26.6765 13.1142 26.6006 12.3049 22.4023C10.3575 12.2355 16.0226 4.97715 24.2167 7.20271C26.1387 7.70853 26.0883 7.58207 24.8237 9.07421C21.7382 12.716 22.2693 17.5212 25.9111 19.3422C31.8039 22.2759 35.5974 14.7646 31.121 9.0995C29.9071 7.58207 29.8818 7.63265 32.2339 6.49458C39.4669 2.97921 47.6862 2.39752 53.3514 5.05302C55.2229 5.9382 55.1975 5.83702 53.8066 7.32917C49.7095 11.7044 50.5441 18.4317 55.2988 19.3169C60.7109 20.3285 63.4929 11.5527 59.2946 6.77278C57.7013 4.97715 69.942 2.57455 74.646 3.76321C78.0096 4.62308 78.3383 4.92656 77.3268 6.1911C73.7102 10.5916 74.7724 16.4085 79.3753 17.4454C84.6357 18.634 87.5442 10.4905 83.4217 6.11522C82.6884 5.33122 83.0678 5.05302 85.9002 4.11728C92.4758 1.99288 102.516 4.52192 100.088 7.70852C97.4327 11.1733 97.7362 16.6361 100.72 19.3422C105.45 23.6162 108.915 15.498 105.349 8.44196C104.438 6.64632 104.514 6.51987 107.144 5.43238C112.531 3.20682 123.431 3.86436 121.686 6.31755C118.171 11.2492 119.663 18.2547 124.139 17.9006C128.489 17.5465 130.184 11.0722 127.098 6.57045C126.087 5.10361 126.112 5.07831 128.97 3.91495C134.407 1.71468 142.096 2.32165 145.864 5.28064C146.395 5.71058 146.395 5.71058 145.813 6.44399C143.613 9.17537 143.638 14.0311 145.839 16.3326C149.936 20.6068 153.653 13.93 150.593 7.83498C150.062 6.79807 149.607 5.86233 149.556 5.76115C149.43 5.48297 151.706 4.11728 153.299 3.51031C156.84 2.16991 160.583 1.94229 164.604 2.80216ZM82.2584 9.02362C83.9782 12.5896 81.2721 16.5349 78.7935 14.0564C77.3268 12.5896 77.6555 10.01 79.6029 7.86027C80.6903 6.64632 81.2214 6.87394 82.2584 9.02362ZM291.385 9.47885C293.005 12.8172 290.474 16.3579 288.047 14.1829C286.556 12.8425 286.757 9.6559 288.477 7.63265C289.287 6.67161 290.349 7.35445 291.385 9.47885ZM125.075 8.03729C126.542 10.1617 126.517 12.9184 125.05 14.6634C122.47 17.7236 121.079 11.5021 123.533 7.91086C124.241 6.87394 124.266 6.87394 125.075 8.03729ZM174.291 9.80764C175.302 12.4884 174.695 15.1692 173.051 15.1692C172.444 15.1692 171.306 13.8541 171.104 12.9437C171.028 12.5643 170.927 12.0585 170.876 11.8056C170.725 11.0722 171.382 8.94775 172.04 7.96142C172.773 6.89922 173.38 7.40504 174.291 9.80764ZM198.494 9.27654C199.835 12.4884 197.634 16.5349 195.662 14.537C194.524 13.4242 194.903 10.3387 196.445 8.01201C197.179 6.92453 197.608 7.17742 198.494 9.27654ZM246.293 7.91086C248.745 11.5021 247.355 17.7236 244.775 14.6634C243.309 12.9184 243.282 10.1617 244.75 8.03729C245.559 6.87394 245.585 6.87394 246.293 7.91086ZM149.177 9.73177C150.416 13.3736 148.798 17.0407 147.053 14.4611C145.965 12.8425 146.066 10.0605 147.28 8.08788C147.887 7.05097 148.393 7.50619 149.177 9.73177ZM223.252 9.80764C223.886 11.9573 223.328 14.4358 222.038 15.2704C220.724 16.0797 219.762 13.3736 220.396 10.7181C221.331 6.94981 222.342 6.62104 223.252 9.80764ZM57.7013 8.5684C60.6603 12.7413 57.853 19.418 54.5147 16.0797C52.9214 14.4864 53.4272 11.4262 55.7034 8.99834C56.9426 7.63265 56.9932 7.60737 57.7013 8.5684ZM314.122 8.99834C316.398 11.4262 316.904 14.4864 315.311 16.0797C311.973 19.418 309.165 12.7413 312.124 8.5684C312.832 7.60737 312.883 7.63265 314.122 8.99834ZM103.73 11.3504C104.489 13.7277 104.236 17.9512 103.351 17.9512C101.403 17.9512 100.012 12.7919 101.302 10.364C102.465 8.13847 102.744 8.23963 103.73 11.3504ZM268.447 10.2123C269.813 12.7919 268.498 17.9512 266.474 17.9512C265.74 17.9512 265.336 13.9806 265.867 12.0079C266.829 8.54311 267.36 8.16375 268.447 10.2123ZM29.4266 10.4905C31.7786 13.6012 31.121 17.4454 28.2127 17.4454C25.4813 17.4454 24.3178 13.9553 26.1641 11.2492C27.8079 8.8466 28.1114 8.77073 29.4266 10.4905ZM342.522 9.78234C345.584 13.146 345.077 17.4454 341.612 17.4454C338.552 17.4454 338.072 13.2724 340.728 10.0353C341.638 8.92247 341.688 8.89718 342.522 9.78234ZM17.8182 29.1548C19.7655 29.9894 21.3842 32.1392 21.2325 33.7071C21.0049 36.1856 16.8572 33.4543 14.7328 29.3824C14.3787 28.6996 16.3514 28.5478 17.8182 29.1548ZM355.092 29.3824C352.968 33.4543 348.82 36.1856 348.592 33.7071C348.364 31.3551 351.172 28.8513 354.055 28.8261C355.371 28.8261 355.371 28.8261 355.092 29.3824ZM16.756 48.3757C19.4368 50.1712 15.5927 52.9026 11.9002 51.8152C10.1805 51.2841 9.16887 50.2471 9.75056 49.5897C11.3186 47.8698 15.0363 47.2122 16.756 48.3757ZM358.33 48.4262C360.455 49.4884 360.731 49.969 359.72 50.8288C357.672 52.5232 354.106 52.4474 352.513 50.6264C350.641 48.5527 355.144 46.8329 358.33 48.4262ZM18.3746 67.116C19.9931 67.7988 19.2344 70.0495 17.0089 71.2383C14.3534 72.6292 9.6241 71.3141 11.1921 69.6197C13.0383 67.6723 16.6549 66.4077 18.3746 67.116ZM356.003 67.8747C357.875 68.8104 359.341 70.075 359.038 70.5302C357.799 72.5533 352.664 72.0729 351.147 69.7967C349.25 67.0401 352.006 65.9525 356.003 67.8747ZM15.5674 86.8171C16.6549 88.537 12.3555 90.4844 9.80113 89.4222C8.53662 88.8911 8.51132 88.6128 9.69998 87.8035C12.0014 86.2608 14.9098 85.7549 15.5674 86.8171ZM358.658 86.9437C360.883 88.0311 361.39 88.6128 360.58 89.1439C358.455 90.5603 354.106 89.2705 354.106 87.2471C354.106 86.0838 356.509 85.9067 358.658 86.9437ZM14.581 105.557C15.795 106.443 12.2543 108.011 9.97818 107.581C8.5619 107.328 8.51132 107.252 9.57352 106.468C11.268 105.254 13.5694 104.824 14.581 105.557ZM358.431 105.482C359.468 105.836 361.314 107.125 361.01 107.302C359.165 108.365 353.675 106.695 355.244 105.557C355.826 105.128 357.268 105.102 358.431 105.482ZM17.186 124.525C17.4389 125.739 14.6063 127.763 12.1531 128.091C10.484 128.344 10.4587 127.94 11.9761 126.574C14.3281 124.449 16.9836 123.413 17.186 124.525ZM355.396 124.829C357.09 125.689 359.417 127.864 358.861 128.091C357.545 128.597 353.778 126.903 352.892 125.411C352.006 123.868 353.019 123.64 355.396 124.829ZM16.8572 142.987C19.4875 144.1 16.6296 146.933 13.2153 146.604C10.2311 146.326 9.90231 145.795 11.8244 144.328C13.7464 142.861 15.4409 142.406 16.8572 142.987ZM356.534 143.417C358.152 144.176 359.645 145.592 359.165 145.921C356.737 147.565 352.082 146.402 352.082 144.151C352.082 142.659 354.206 142.305 356.534 143.417ZM12.1026 162.663C13.1901 163.549 11.8497 165.875 10.0035 166.381C8.53662 166.76 5.85581 165.799 5.85581 164.889C5.85581 163.498 10.9392 161.677 12.1026 162.663ZM361.314 162.866C363.413 163.801 364.197 164.788 363.387 165.496C361.213 167.469 357.217 166.204 357.444 163.65C357.571 162.082 358.937 161.804 361.314 162.866ZM13.8223 181.985C15.0869 183.25 12.3302 185.349 9.77585 185.046C8.23313 184.894 8.18255 184.767 9.06772 183.655C10.6104 181.732 12.7854 180.974 13.8223 181.985ZM359.165 182.137C360.151 182.82 361.593 184.54 361.365 184.767C360.631 185.501 357.192 184.919 356.306 183.907C354.713 182.087 357.014 180.696 359.165 182.137ZM12.9372 204.14C14.3281 205.631 12.9119 208.186 10.9139 207.756C10.0035 207.555 7.98022 205.81 8.20783 205.43C9.11829 203.962 12.0267 203.179 12.9372 204.14ZM360.252 204.368C361.896 205.455 361.921 205.582 360.707 206.644C359.013 208.162 357.469 208.238 356.761 206.872C355.42 204.266 357.672 202.648 360.252 204.368ZM12.6337 227.281C12.7854 228.696 10.0035 229.81 8.96654 228.772C8.53662 228.368 11.622 226.192 12.3049 226.42C12.4566 226.471 12.5831 226.851 12.6337 227.281ZM359.316 227.13C361.213 228.268 361.314 228.875 359.62 229.051C358.254 229.203 357.141 228.469 357.141 227.382C357.141 226.193 357.672 226.143 359.316 227.13ZM11.7738 248.499C13.3165 250.016 10.8128 251.636 8.66306 250.498C7.85377 250.092 7.85377 250.067 8.309 249.561C9.39649 248.347 11.1162 247.816 11.7738 248.499ZM360.124 248.575C361.845 249.46 362.148 249.992 361.162 250.498C359.468 251.382 357.647 250.801 357.647 249.36C357.647 248.171 358.683 247.842 360.124 248.575ZM11.7485 268.631C13.013 270.122 11.5968 271.336 9.69998 270.376C8.15726 269.591 7.70203 268.959 8.41016 268.555C9.95287 267.745 10.9898 267.77 11.7485 268.631ZM361.263 268.504C361.972 268.859 361.972 268.883 361.517 269.39C360.2 270.831 358.051 271.184 357.748 269.997C357.317 268.225 359.165 267.442 361.263 268.504ZM12.0267 290.355C12.6842 290.886 12.9372 292.151 12.4313 292.48C11.9255 292.783 8.89067 290.962 8.89067 290.33C8.89067 289.697 11.2174 289.724 12.0267 290.355ZM360.859 290.179C361.314 290.634 358 292.859 357.393 292.48C356.862 292.151 357.116 290.886 357.848 290.33C358.507 289.799 360.403 289.697 360.859 290.179ZM12.3049 311.22C14.1511 311.927 13.5694 315.368 11.5715 315.368C10.8128 315.368 8.61249 314.179 8.23313 313.547C7.67673 312.661 11.0404 310.74 12.3049 311.22ZM359.544 311.447C361.82 312.534 362.021 313.42 360.252 314.583C357.672 316.303 355.42 314.685 356.761 312.079C357.317 310.992 358.152 310.816 359.544 311.447ZM12.3049 334.309C14.6063 335.347 14.7328 337.371 12.5325 337.371C10.661 337.371 7.39855 334.385 8.8401 334.006C9.82643 333.729 11.3691 333.881 12.3049 334.309ZM361.365 334.158C361.593 334.412 360.176 336.106 359.165 336.788C357.065 338.23 354.789 336.916 356.23 335.119C357.04 334.082 360.631 333.425 361.365 334.158ZM10.9392 352.949C12.2796 353.632 12.9119 355.629 12.0267 356.363C10.5598 357.577 4.97066 354.871 6.26047 353.556C7.42383 352.393 9.3459 352.115 10.9392 352.949ZM362.731 352.949C364.07 353.632 364.172 354.036 363.211 354.871C360.606 357.097 357.393 357.298 357.393 355.225C357.393 353.025 360.379 351.735 362.731 352.949ZM15.8203 372.624C18.9563 373.941 18.0206 376.9 14.7328 376.065C12.9877 375.635 10.0287 373.586 10.484 373.131C11.268 372.348 14.4546 372.044 15.8203 372.624ZM358.734 372.776C359.62 373.207 359.517 373.459 358 374.624C355.523 376.52 352.336 376.722 352.133 375.003C351.881 372.827 355.902 371.462 358.734 372.776ZM14.6569 391.644C16.8825 392.73 18.1217 395.007 16.3767 394.83C14.7581 394.654 10.4081 391.592 10.8128 390.936C11.0657 390.557 13.1648 390.936 14.6569 391.644ZM359.013 390.961C359.417 391.619 355.041 394.654 353.448 394.83C351.957 394.982 352.664 393.11 354.537 391.972C356.027 391.037 358.709 390.454 359.013 390.961ZM12.4566 411.497C15.0869 412.078 15.6432 413.747 13.1901 413.747C11.5209 413.747 7.92965 411.952 8.91598 411.622C10.2058 411.194 10.8886 411.167 12.4566 411.497ZM361.01 411.649C361.289 411.825 359.493 413.091 358.431 413.47C357.293 413.849 355.826 413.823 355.269 413.419C353.702 412.281 359.241 410.56 361.01 411.649ZM14.0752 429.756C16.1743 430.945 16.2249 432.514 14.2017 432.665C12.4566 432.791 8.33429 430.869 8.78952 430.135C9.42177 429.124 12.5325 428.872 14.0752 429.756ZM360.555 429.782C361.289 430.262 361.289 430.262 360.53 430.844C357.672 433.145 353.095 433.272 354.358 431.021C355.345 429.276 358.759 428.593 360.555 429.782ZM17.0089 447.713C20.2208 449.406 19.7909 452.62 16.4273 452.062C14.227 451.683 10.3069 449.154 10.7875 448.42C11.5715 447.13 15.1121 446.726 17.0089 447.713ZM357.9 447.637C359.241 448.32 359.341 448.572 358.506 449.433C355.978 452.089 350.565 452.948 350.565 450.723C350.565 448.041 354.992 446.171 357.9 447.637ZM15.8456 467.339C17.9194 468.298 18.2735 469.564 16.756 470.575C15.0363 471.739 11.3186 471.081 9.75056 469.361C8.38488 467.843 13.3418 466.174 15.8456 467.339ZM357.924 467.136C359.645 467.667 360.656 468.704 360.075 469.361C358.507 471.081 354.789 471.739 353.068 470.575C350.388 468.78 354.233 466.049 357.924 467.136ZM21.2325 485.244C21.4601 487.646 18.4758 490.252 15.6685 490.074C14.4293 489.998 14.4293 489.998 15.4156 488.48C17.8435 484.789 21.0301 483.018 21.2325 485.244ZM350.944 484.763C352.057 485.472 353.296 486.762 354.409 488.48C355.851 490.681 352.892 490.859 350.364 488.734C347.632 486.432 348.137 483.044 350.944 484.763ZM103.882 501.885C104.59 503.579 104.312 506.488 103.174 509.169C102.567 510.534 102.314 510.483 101.378 508.738C100.215 506.513 100.923 502.264 102.668 501.278C103.351 500.874 103.477 500.95 103.882 501.885ZM267.106 501.253C268.878 502.188 269.636 506.488 268.447 508.738C267.512 510.483 267.258 510.534 266.651 509.169C265.513 506.488 265.236 503.579 265.943 501.885C266.347 500.923 266.423 500.874 267.106 501.253ZM30.0336 502.289C31.4245 503.757 30.9945 506.716 28.9966 509.017C28.0355 510.13 27.7574 510.003 26.3411 507.955C23.7363 504.161 27.024 499.129 30.0336 502.289ZM343.433 502.213C345.305 503.958 344.749 507.196 342.219 509.472C341.132 510.458 339.059 507.272 339.059 504.616C339.059 501.758 341.511 500.419 343.433 502.213ZM57.5749 502.568C59.4211 504.009 59.4463 508.182 57.6002 510.483C56.4369 511.925 53.6549 508.233 53.6549 505.223C53.6549 502.644 55.8045 501.177 57.5749 502.568ZM315.311 502.871C316.954 504.516 316.297 507.903 313.869 510.231C312.857 511.242 312.857 511.242 312.225 510.483C309.063 506.564 311.921 499.482 315.311 502.871ZM124.923 504.11C126.593 505.881 126.567 509.144 124.848 511.217C124.241 511.976 124.241 511.976 123.735 511.344C121.155 508.258 122.293 501.303 124.923 504.11ZM148.975 503.858C150.012 505.123 149.759 508.713 148.444 510.813C147.786 511.9 147.255 511.445 146.597 509.269C145.662 506.158 147.457 502.061 148.975 503.858ZM222.444 504.009C223.886 505.603 223.859 509.32 222.393 511.117C221.913 511.697 221.913 511.697 221.382 510.813C219.334 507.499 220.269 501.606 222.444 504.009ZM247.178 504.54C248.038 506.261 247.507 509.675 246.09 511.344C244.775 512.911 242.979 508.006 243.965 505.603C244.902 503.378 246.368 502.896 247.178 504.54ZM174.164 504.413C175.302 505.527 174.923 508.613 173.38 510.938C172.647 512.027 172.217 511.773 171.332 509.675C169.991 506.462 172.191 502.416 174.164 504.413ZM197.735 504.337C199.328 506.109 199.277 509.117 197.583 511.268C197.001 512 196.217 511.117 195.407 508.865C194.269 505.627 195.939 502.391 197.735 504.337ZM81.7779 504.768C83.3206 506.158 82.9919 509.851 81.1203 511.596C80.0329 512.607 77.9337 509.648 77.9337 507.044C77.9337 504.565 80.1088 503.275 81.7779 504.768ZM291.032 504.895C292.498 506.361 292.17 508.941 290.222 511.09C289.135 512.304 288.604 512.076 287.567 509.927C285.846 506.361 288.553 502.416 291.032 504.895Z" fill="black"/>
</svg>
