<svg width="349" height="499" viewBox="0 0 349 499" fill="none" xmlns="http://www.w3.org/2000/svg">
<path d="M129.546 498.222C130.381 498.019 132.885 496.957 135.11 495.87C141.231 492.835 141.989 492.76 148.261 494.58C158.807 497.615 164.751 497.008 176.132 491.722C182.454 488.814 182.909 488.814 187.386 491.749C197.376 498.274 203.926 498.298 216.647 491.773C221.376 489.345 221.452 489.345 223.248 491.191C228.939 496.984 235.741 497.337 248.942 492.557C257.315 489.522 258.25 489.421 261.613 491.217C266.571 493.846 267.709 494.353 269.403 494.708C273.879 495.643 277.269 494.909 284.829 491.318C291.077 488.359 291.912 488.435 296.464 492.356C302.458 497.515 305.542 498.046 310.398 494.732C314.243 492.077 319.175 490.307 322.589 490.28C324.106 490.28 326.862 491.646 329.19 493.518C337.46 500.22 345.299 493.771 342.746 482.441C341.987 479.078 341.987 478.065 342.846 474.45C343.933 469.795 343.833 467.367 342.442 464.611C339.635 459.124 339.711 455.861 342.746 447.54C346.312 437.777 346.464 435.021 343.732 428.496C340.09 419.72 340.039 418.001 343.074 407.708C346.058 397.668 346.008 394.227 342.898 387.399C339.812 380.673 339.863 378.598 343.25 365.22C346.716 351.614 346.716 347.213 343.353 339.55C338.725 329.129 338.622 327.032 342.112 313.045C345.198 300.628 345.299 298.149 343.099 289.779C340.95 281.585 341.177 278.498 344.768 267.345C348.006 257.33 348.057 255.737 345.375 249.591C342.543 243.042 342.719 239.07 346.412 225.616C349.548 214.135 349.751 209.784 347.45 203.234C347.044 202.045 346.134 199.465 345.426 197.519C342.719 189.906 342.643 184.595 345.071 175.161C345.553 173.29 346.437 169.825 347.044 167.448C349.498 157.838 349.119 152.906 345.35 145.824C339.457 134.773 339.229 133.103 341.809 120.028C344.667 105.688 344.743 102.729 342.619 90.2361C341.001 80.7267 341.153 77.7931 343.884 66.6652C346.64 55.4869 346.539 51.8955 343.226 43.0186C341.304 37.7834 341.581 34.4451 344.516 27.7179C351.016 12.7712 341.809 0.378874 328.886 6.65091C326.635 7.73842 326.635 7.73842 324.561 5.58871C319.453 0.353583 315.229 0.303002 305.062 5.33581C296.641 9.50875 295.781 9.50875 289.382 5.20935C280.531 -0.733908 276.332 -0.632746 264.471 5.71517C255.846 10.3433 254.026 10.3686 247.931 5.99337C240.951 0.960554 237.209 0.859394 223.98 5.31053C213.613 8.80062 211.033 8.85119 205.57 5.6393C200.005 2.37682 197.755 2.35154 188.928 5.56343C178.484 9.33172 175.449 9.28113 167.229 5.20935C159.364 1.31462 157.037 1.26404 147.073 4.88058C137.285 8.42126 135.211 8.39596 129.546 4.77943C121.251 -0.531585 118.798 -0.582165 106.911 4.19774C98.2874 7.66255 94.9995 7.81429 87.6654 5.00704C80.7611 2.40211 78.1815 2.52857 69.5321 5.99337C59.7193 9.91339 57.7466 9.78695 51.4747 4.70356C46.2396 0.480036 40.9286 -0.78449 37.6154 1.39049C31.2422 5.58871 25.3749 6.37273 18.774 3.94484C14.6264 2.40211 13.0078 2.07334 11.465 2.4527C10.7569 2.62972 10.0235 2.75618 9.84645 2.7309C9.31535 2.60444 6.7863 5.3611 6.20462 6.65091C5.47118 8.26952 5.49649 10.4951 6.2299 13.5552C6.86217 16.1602 6.81159 17.7787 6.07816 19.2203C5.31944 20.7123 3.90319 22.9126 3.70086 22.9126C3.37209 22.9126 1.7282 26.4534 1.32355 28.0973C0.413088 31.6378 0.893608 34.774 3.19504 40.5907C5.90113 47.3939 6.17933 51.0864 4.51016 57.3078C1.47529 68.5114 1.60174 70.6106 5.77467 78.2484C10.2511 86.4425 10.327 91.1211 6.12874 105.739C2.38575 118.814 2.30988 122.886 5.64823 131.94C8.86012 140.665 8.86012 144.56 5.74939 158.849C2.05697 175.844 2.38575 180.548 8.05082 191.094C12.4514 199.313 12.4261 201.792 7.74733 214.032C3.70086 224.554 3.42265 227.006 5.64823 232.268C8.17727 238.287 8.15199 240.107 5.26887 251.16C2.66394 261.2 2.76511 264.993 5.977 272.429C9.36593 280.395 9.36593 282.52 5.87584 292.611C2.46162 302.525 2.38575 305.181 5.42062 312.817C8.6325 321.011 8.60722 322.832 5.11713 332.974C1.90523 342.282 2.08226 346.682 5.977 356.546C9.39122 365.195 9.46709 366.737 6.60926 375.563C2.71452 387.702 2.89155 391.902 7.79792 401.865C11.7179 409.857 11.7938 412.285 8.48076 420.985C5.06654 429.963 5.06654 432.569 8.58192 440.888C10.9086 446.377 10.7316 450.196 7.97494 454.166C6.12874 456.821 6.33107 461.096 8.55663 466.002C10.1752 469.619 9.87173 472.932 7.51971 477.762C3.97906 485.021 8.12669 494.353 15.7644 496.325C16.4473 496.502 17.2566 496.756 17.5601 496.908C18.7234 497.464 22.2894 496.453 29.0167 493.67C33.4677 491.824 34.6312 491.824 38.5765 493.645C45.5567 496.881 48.5662 496.805 58.2272 493.139C67.1547 489.749 69.5826 489.673 76.057 492.735C86.8054 497.792 91.029 497.767 104.509 492.557C109.719 490.535 111.135 490.736 115.94 494.101C121.959 498.323 125.095 499.284 129.546 498.222ZM123.451 494.049C122.718 493.771 121.201 492.887 120.138 492.101C112.349 486.462 110.3 485.982 103.826 488.232C102.258 488.763 99.6531 489.673 98.0598 490.231C90.3968 492.911 86.7295 492.684 78.3837 489.017C69.886 485.273 66.8512 485.273 57.1396 489.042C48.3892 492.431 46.3407 492.532 40.6503 489.901C35.061 487.297 33.2401 487.321 26.9934 490.053C18.4958 493.771 15.031 493.898 11.7432 490.66C8.30373 487.272 7.72204 483.579 9.99819 479.533C13.2607 473.716 13.5136 470.174 11.0351 464.611C9.36593 460.818 9.34063 458.972 10.9339 455.38C13.9688 448.451 14.0194 446.578 11.3133 439.574C9.13832 433.908 9.1636 434.035 9.18889 430.975C9.18889 428.193 9.18889 428.193 11.1363 422.503C14.7275 411.956 14.6011 409.58 10.0741 400.096C5.95172 391.395 5.92641 387.678 9.92232 375.842C12.8307 367.192 12.7802 364.537 9.39122 355.205C5.87585 345.442 5.87584 343.116 9.4165 332.215C12.2743 323.414 12.2491 319.672 9.29006 312.21C6.43223 305.053 6.48282 303.284 9.92232 293.142C13.3871 282.975 13.3618 280.016 9.89703 271.367C6.83687 263.679 6.81159 261.958 9.66942 250.198C11.895 241.043 11.8191 237.477 9.36593 231.813C7.26682 226.982 7.46915 224.958 11.0857 215.222C15.8909 202.248 15.8909 199.112 11.0857 189.451C6.00229 179.233 5.82526 176.148 9.29006 159.608C12.4514 144.585 12.4261 140.893 9.1636 130.878C6.12874 121.596 6.20461 119.851 10.5546 104.348C14.1964 91.3741 13.9688 85.709 9.4165 76.402C6.28049 70.0036 6.15403 68.5873 8.02553 60.722C10.3017 51.0864 9.99819 47.318 6.38164 39.1491C3.22034 32.0172 3.44796 27.9708 7.26682 22.8622C9.87173 19.3973 10.4281 16.9189 9.56825 12.5436C8.3796 6.49917 9.99819 4.90587 15.638 6.62563C21.4548 8.39596 22.1883 8.5477 24.8438 8.42126C27.828 8.2948 30.9387 7.35906 34.2012 5.61401C40.1951 2.40211 42.7999 2.80677 49.6284 8.0419C56.9627 13.6817 59.8458 13.9093 70.493 9.6352C78.4849 6.4486 80.407 6.27156 85.541 8.24421C94.8225 11.8355 98.2368 11.709 109.061 7.38434C118.95 3.41374 120.644 3.43903 126.638 7.53609C134.099 12.6448 137.311 12.7965 148.438 8.47183C157.492 4.95646 159.136 4.98174 166.723 8.85119C171.326 11.2032 173.425 11.7849 177.143 11.7849C181.19 11.7849 182.403 11.4814 193.025 7.71311C198.235 5.86691 199.753 5.99337 203.926 8.49713C210.274 12.3413 213.182 12.316 225.27 8.24421C237.865 4.02071 240.116 4.09659 246.514 8.90177C253.343 14.0358 256.353 13.884 267.026 7.91544C276.51 2.60444 279.873 2.52857 287.106 7.43493C295.047 12.8218 296.665 12.8724 306.125 8.09247C315.609 3.28728 318.391 3.262 322.564 7.91544C325.497 11.2285 326.838 11.4814 330.631 9.50875C334.501 7.46022 336.373 7.63724 339.129 10.318C343.605 14.6933 344.036 18.7904 340.747 26.2005C336.777 35.1533 336.676 37.6823 339.836 46.7617C341.936 52.7808 341.911 55.6132 339.584 64.8191C336.297 77.7677 336.194 80.5245 338.497 91.6522C339.685 97.3932 339.685 97.3932 339.685 103.21C339.685 109.533 339.76 109.077 337.687 119.396C334.956 132.977 335.386 136.341 341.077 145.951C345.83 153.993 345.957 157.155 342.088 170.938C338.497 183.735 338.421 189.602 341.733 198.479C346.412 210.922 346.464 211.707 342.822 224.478C338.622 239.222 338.522 243.573 342.188 251.412C343.505 254.195 343.505 254.195 343.478 256.723C343.453 259.479 343.581 259.024 340.519 267.749C338.243 274.25 337.687 276.805 337.687 281.254C337.687 285.048 337.788 285.53 339.356 290.941C341.177 297.263 341.228 300.401 339.483 307.077C339.028 308.872 338.118 312.337 337.484 314.765C334.576 325.893 334.855 330.37 338.926 339.044C343.023 347.718 343.074 350.298 339.457 363.702C335.663 377.79 335.663 380.47 339.584 388.613C342.594 394.885 342.771 397.289 340.722 404.218C340.216 405.862 339.432 408.542 338.952 410.187C336.828 417.395 337.156 421.34 340.494 428.496C343.429 434.845 343.402 437.398 340.216 445.846C336.928 454.621 336.65 457.455 338.546 462.335C340.874 468.278 341.077 469.947 339.963 473.968C339.129 477.003 339.129 479.381 339.963 482.189C341.329 486.766 340.95 490.383 338.85 492.632C336.777 494.884 335.056 494.58 331.238 491.267C325.472 486.31 317.961 486.159 311.032 490.863C305.872 494.353 303.873 494.252 299.044 490.155C292.847 484.894 291.153 484.717 283.06 488.384C274.132 492.431 271.224 492.532 264.926 488.966C259.363 485.804 257.618 485.804 248.918 488.915C235.868 493.594 230.961 493.594 225.701 488.865C222.211 485.704 221.477 485.728 214.699 488.966C202.991 494.58 198.26 494.529 189.409 488.714C183.516 484.869 182.479 484.844 174.361 488.435C163.613 493.164 159.035 493.645 149.045 491.066C141.66 489.169 140.396 489.269 133.972 492.304C128.181 495.036 126.739 495.263 123.451 494.049Z" fill="black"/>
</svg>
