<svg width="354" height="380" viewBox="0 0 354 380" fill="none" xmlns="http://www.w3.org/2000/svg">
<path d="M11.3378 379.43C11.5907 379.024 12.4759 370.957 13.361 360.942C15.536 336.46 15.359 332.238 11.3631 316.178C7.72126 301.534 7.13957 293.568 8.30295 273.69C9.61805 251.207 9.11225 240.737 5.64744 218.859C1.22161 190.813 1.72742 183.934 10.8573 146.731C21.2264 104.395 21.6058 91.0922 13.1334 62.5139C7.59484 43.799 6.93728 34.8208 10.6297 27.866C12.3242 24.6542 12.7541 24.3507 14.1704 25.2611C18.8491 28.2454 25.3993 26.7786 25.3993 22.7574C25.3993 19.1155 19.0767 17.6992 14.5497 20.3041C13.3611 21.0123 13.1335 20.6834 13.1335 18.1797C13.1335 10.6431 22.2886 5.53447 31.8484 7.73474C36.0466 8.69578 38.9551 9.88444 50.3104 15.2966C71.8327 25.514 86.83 26.0199 98.8936 16.9152C100.36 15.8024 100.36 15.8024 102.46 17.1681C114.827 25.2357 131.594 26.0451 139.561 18.9637C140.8 17.8509 140.8 17.851 144.745 19.7984C160.248 27.4867 172.792 27.5373 177.117 19.9754C177.825 18.7614 177.825 18.7614 178.407 20.026C181.77 27.2084 195.25 28.0684 210.628 22.0491C213.232 21.0376 213.232 21.0376 214.649 21.8722C222.084 26.3738 238.801 24.8311 254 18.2809C256.378 17.244 256.378 17.244 257.617 18.3821C266.09 25.9944 284.627 25.3875 316.062 16.5106C336.927 10.6179 342.238 12.1859 342.39 24.3253C342.441 29.0293 342.365 29.2065 339.685 29.0041C331.161 28.3971 324.738 33.8346 329.188 37.881C333.312 41.6494 340.772 39.2974 344.438 33.0505C345.097 31.9378 348.814 35.2003 350.104 37.9569C352.356 42.8127 351.597 49.2111 347.272 62.6404C341.658 79.9139 340.241 87.1975 340.241 98.3C340.241 108.062 341.075 113.247 345.804 132.948C351.066 154.875 350.838 162.032 344.059 186.437C337.358 210.64 336.498 222.148 339.913 243.265C343.427 265.116 343.983 275.763 342.568 293.543C341.758 303.759 341.582 310.235 342.113 310.436C342.796 310.69 343.023 310.032 343.403 306.669C345.679 287.195 345.88 271.135 344.059 257.377C343.907 256.264 343.224 251.662 342.542 247.135C338.647 221.414 339.254 213.296 347.221 183.782C353.164 161.779 353.19 154.673 347.473 128.775C341.151 100.146 341.404 91.2694 349.37 64.4108C355.516 43.7484 354.985 36.0601 347.045 31.255C345.679 30.4204 345.552 30.2687 345.679 29.6617C347.727 20.203 344.287 11.7812 337.485 9.63156C333.058 8.24057 328.202 9.04988 313.458 13.6527C287.131 21.8974 270.894 23.3389 261.359 18.3315C258.021 16.5864 257.971 16.4347 260.248 15.246C270.767 9.758 274.157 3.18247 266.418 3.28364C259.413 3.35951 253.343 8.9487 254.734 14.0068C254.986 14.9425 254.986 14.9425 252.433 15.9289C239.483 20.9365 225.396 22.4285 217.936 19.6212C216.874 19.2166 216.874 19.2166 218.315 18.1292C223.778 14.1332 223.196 8.59463 217.329 8.61993C212.524 8.64522 209.008 14.0574 211.108 18.2303C211.36 18.7108 211.462 19.1914 211.36 19.2672C210.829 19.7478 205.772 21.3411 199.144 23.1367C196.237 23.9207 188.877 23.9207 186.373 23.1367C182.352 21.8722 178.609 18.5338 181.189 18.5085C187.132 18.4832 196.364 10.8961 196.364 6.09087C196.337 -2.28028 184.78 0.0464453 179.317 9.50509C178.306 11.2248 178.306 11.2248 178.002 9.68211C176.611 2.8537 169.302 -0.383496 164.699 3.78944C160.096 7.93707 166.293 17.067 174.613 18.4073C175.878 18.6097 175.878 18.7108 174.462 20.026C169.935 24.1989 160.881 23.7183 149.5 18.7361C147.047 17.6486 143 15.5242 143 15.3219C143 15.246 143.228 14.7402 143.531 14.1585C145.984 9.32806 140.851 3.8906 134.983 5.10454C130.481 6.04028 131.088 10.6179 136.273 14.5885C138.245 16.1059 138.22 16.0048 136.728 16.9405C129.647 21.4928 120.011 21.7204 109.49 17.5727C106.405 16.3841 102.207 14.0068 102.46 13.6274C102.561 13.4504 102.965 12.8181 103.37 12.2365C106.936 6.95074 104.736 0.552247 99.374 0.552246C92.748 0.552246 91.9134 7.98765 97.9325 13.6021C100.537 16.0553 87.8668 20.7847 78.7622 20.7847C69.7083 20.7847 63.234 18.812 47.4273 11.326C34.9339 5.38272 29.1929 3.96645 22.8703 5.20569C14.1198 6.92544 8.30297 15.0184 11.0849 21.6445C11.4896 22.6056 11.4896 22.6056 10.5032 23.7183C4.53468 30.4961 4.66113 41.194 10.9838 62.3875C19.4307 90.8139 19.0008 103.156 7.94889 147.616C-0.877499 183.175 -1.48447 191.673 3.01723 218.81C6.58319 240.407 7.19016 252.724 5.82447 276.218C4.78755 294.15 5.41983 302.318 8.96049 316.633C12.6782 331.707 12.8805 335.701 11.1102 356.845C9.56746 374.902 9.64333 382.161 11.3378 379.43ZM331.692 35.8832C329.188 34.6438 332.147 32.1907 336.878 31.6089C340.468 31.1537 341.227 31.4067 340.265 32.7724C338.192 35.8073 334.374 37.1982 331.692 35.8832ZM16.8259 23.7437C14.9797 23.0102 14.9797 22.7067 16.7247 22.0491C20.6701 20.5823 25.3741 22.378 21.7323 23.9713C20.5688 24.477 18.3686 24.3759 16.8259 23.7437ZM214.421 17.0417C213.08 14.9173 215.104 11.7054 217.784 11.6801C220.464 11.6801 219.529 14.4114 215.963 16.9405C215.028 17.5981 214.774 17.6233 214.421 17.0417ZM179.064 15.676C181.518 7.73476 191.33 0.223477 193.227 4.77577C194.82 8.59463 186.651 15.1954 179.09 16.2071C178.963 16.2324 178.963 15.9794 179.064 15.676ZM172.084 14.5885C164.447 10.6684 163.637 2.65137 171.123 4.90221C174.057 5.7621 175.296 8.16468 176.485 15.246C176.662 16.2324 174.714 15.9289 172.084 14.5885ZM256.555 12.3376C256.555 9.02457 260.172 5.91384 264.925 5.10456C271.602 3.96649 268.997 7.93709 259.993 12.5905C256.63 14.3356 256.555 14.3356 256.555 12.3376ZM139.232 13.0205C134.224 9.25219 133.794 6.90017 138.347 8.26586C140.876 8.99927 141.786 10.719 140.8 12.8181C140.294 13.8803 140.37 13.8803 139.232 13.0205ZM97.9073 10.0868C95.4287 6.95074 95.1252 4.54814 96.9714 2.98014C100.689 -0.130598 105.09 4.87692 102.738 9.53037C100.967 12.9952 100.284 13.071 97.9073 10.0868Z" fill="black"/>
</svg>
