<svg width="347" height="472" viewBox="0 0 347 472" fill="none" xmlns="http://www.w3.org/2000/svg">
<path d="M145.706 0.400449C143.076 0.982129 141.052 2.47427 139.965 4.59867C139.687 5.12977 139.434 5.3321 139.155 5.23093C121.477 -1.57221 100.107 6.67248 100.107 20.2788C100.107 45.0888 143.303 54.0164 167.582 34.2391C168.948 33.1263 168.948 33.1263 168.543 34.0874C158.022 59.3526 120.162 84.9719 93.3543 84.9972C86.1465 84.9972 83.921 84.4661 84.351 82.8728C89.4596 63.2979 83.2888 47.2132 71.0481 48.1489C50.7399 49.7169 53.977 76.4996 75.7017 87.0709C78.3824 88.3607 78.3824 88.3607 77.0926 90.7886C69.8089 104.496 56.2279 117.344 42.6976 123.338C41.3065 123.944 40.0925 124.45 39.9914 124.45C39.8649 124.45 39.5868 123.413 39.3592 122.174C36.1726 105.558 24.8171 96.3779 12.3489 100.323C-7.80763 106.671 -0.01816 131.431 22.8697 133.833C26.5874 134.238 33.6434 133.479 36.4761 132.392C37.0324 132.189 37.0324 132.316 36.2737 135.705C34.6552 142.938 32.2273 148.426 23.8056 163.777C-1.48501 210.034 -4.62103 229.912 6.17801 275.435C12.8041 303.456 13.0823 310.664 8.32771 332.54C3.87658 352.873 3.67425 361.17 7.0379 382.414C9.28874 396.526 9.6934 401.71 9.51635 412.939C9.33933 423.409 8.98525 426.444 6.30447 440.202C4.40768 449.913 4.18006 451.861 4.18006 457.779C4.20535 464.532 5.41929 470.956 6.73441 471.132C7.51841 471.26 7.51841 470.956 7.01259 465.873C6.10214 456.969 6.48149 451.457 8.93468 438.559C11.4131 425.458 11.7419 422.144 11.7419 409.728C11.7419 398.396 11.6155 396.93 9.59222 382.666C7.69544 369.313 7.69544 369.313 7.69544 361.17C7.72074 350.825 8.25184 347.234 11.9948 332.464C17.8875 309.35 17.7611 302.115 11.0844 270.883C2.38443 230.24 5.24226 210.69 26.0817 168.456C34.478 151.435 35.945 148.173 37.7659 142.078C38.6257 139.22 39.5868 134.566 39.7386 132.442C39.8144 131.431 39.8144 131.431 43.1274 130.014C59.1363 123.135 76.9408 104.926 81.8725 90.3588C82.1253 89.6506 82.2518 89.5495 82.7071 89.676C110.603 98.5275 161.462 68.5583 171.932 37.097C172.488 35.3772 172.969 33.7839 172.969 33.5563C172.969 33.3287 173.095 33.1517 173.222 33.1517C173.374 33.1517 173.475 33.3287 173.475 33.5563C173.475 33.7839 173.955 35.3772 174.512 37.097C184.982 68.5583 235.84 98.5275 263.736 89.676C264.192 89.5495 264.319 89.6506 264.571 90.3588C269.503 104.926 287.308 123.135 303.317 130.014C306.629 131.431 306.629 131.431 306.704 132.442C306.856 134.566 307.818 139.22 308.677 142.078C310.498 148.173 311.966 151.435 320.361 168.456C341.201 210.69 344.084 230.24 335.359 270.883C328.682 302.115 328.555 309.35 334.449 332.464C338.191 347.234 338.722 350.825 338.749 361.17C338.749 369.313 338.749 369.313 336.852 382.666C333.563 405.782 333.715 418.553 337.508 438.559C339.963 451.457 340.342 456.969 339.432 465.873C338.925 470.956 338.925 471.26 339.708 471.132C341.025 470.956 342.239 464.532 342.263 457.779C342.263 451.861 342.036 449.913 340.139 440.202C335.814 418.098 335.663 405.934 339.405 382.414C342.77 361.17 342.567 352.873 338.115 332.54C333.362 310.664 333.639 303.456 340.266 275.435C351.065 229.912 347.929 210.034 322.637 163.777C314.216 148.426 311.788 142.938 310.17 135.705C309.411 132.316 309.411 132.189 309.967 132.392C312.801 133.479 319.857 134.238 323.574 133.833C346.461 131.431 354.251 106.671 334.094 100.323C321.626 96.3779 310.27 105.558 307.084 122.174C306.856 123.413 306.579 124.45 306.452 124.45C306.352 124.45 305.138 123.944 303.745 123.338C290.216 117.344 276.635 104.496 269.351 90.7886C268.061 88.3607 268.061 88.3607 270.741 87.0709C292.467 76.4996 295.703 49.7169 275.396 48.1489C263.154 47.2132 256.984 63.2979 262.092 82.8728C262.523 84.4661 260.298 84.9972 253.09 84.9972C226.281 84.9719 188.421 59.3526 177.901 34.0874C177.496 33.1263 177.496 33.1263 178.861 34.2391C199.119 50.7285 235.158 47.8201 244.289 28.9788C252.735 11.5283 233.767 -1.82512 209.665 4.59867C207.288 5.23093 206.96 5.25623 206.732 4.90216C199.676 -5.99806 179.823 2.44898 174.031 18.7866C173.652 19.8742 173.298 20.7592 173.222 20.7592C173.146 20.7592 172.792 19.8742 172.412 18.7866C168.164 6.77366 155.62 -1.8757 145.706 0.400449ZM153.268 4.16872C158.654 5.43326 166.166 12.5146 169.833 19.8236C171.426 22.9343 171.426 22.9343 168.72 20.911C165.382 18.3567 162.018 16.2829 157.036 13.678C154.734 12.464 152.408 11.1995 151.826 10.8454C150.536 10.0108 147.577 8.5187 145.225 7.48179C140.799 5.55971 147.476 2.80304 153.268 4.16872ZM200.839 4.44693C203.14 5.66087 203.242 6.59661 201.218 7.48179C198.866 8.5187 195.907 10.0108 194.618 10.8454C194.035 11.1995 191.71 12.464 189.408 13.678C184.426 16.2829 181.062 18.3567 177.723 20.911C175.017 22.9343 175.017 22.9343 176.611 19.8236C182.301 8.4934 194.214 0.95684 200.839 4.44693ZM131.745 7.83586C138.169 8.97393 139.08 9.35329 139.08 10.8454C139.105 19.419 151.244 27.5877 165.129 28.4223C168.012 28.574 155.013 33.885 148.209 35.3013C128.913 39.3225 112.879 35.2002 107.517 24.8563C102.965 16.1059 107.644 9.07509 119.226 7.25417C121.098 6.97597 128.913 7.33004 131.745 7.83586ZM230.125 7.83586C239.533 10.2132 243.024 16.9657 238.926 24.8563C233.564 35.2002 217.531 39.3225 198.235 35.3013C191.431 33.885 178.432 28.574 181.315 28.4223C195.2 27.5877 207.339 19.419 207.364 10.8454C207.364 9.17624 209.058 8.64514 218.618 7.25417C220.769 6.95069 228.026 7.33004 230.125 7.83586ZM148.892 12.8939C155.164 15.3724 163.055 19.9247 166.773 23.1619C167.784 24.0471 166.09 23.87 161.209 22.656C151.396 20.1777 145.2 16.207 143.758 11.4777C143.581 10.8454 144.163 11.0225 148.892 12.8939ZM202.078 12.7675C199.701 17.6233 189.686 22.656 180.404 23.6678C176.054 24.123 189.762 15.8782 199.525 12.1352C203.242 10.719 203.115 10.6937 202.078 12.7675ZM75.6258 50.9815C81.9484 53.207 84.9832 65.8776 82.0242 77.7894C80.5827 83.6567 80.7851 83.4545 77.295 81.9371C63.7898 76.0443 56.3544 61.3759 63.107 53.9151C65.7371 50.9815 71.6805 49.5904 75.6258 50.9815ZM278.632 51.1333C291.86 55.1797 285.866 74.6534 269.148 81.9371C265.961 83.328 265.961 83.328 265.33 81.153C259.639 61.5022 265.937 47.289 278.632 51.1333ZM21.6812 102.448C29.1924 104.243 35.4898 112.791 36.9313 123.11C37.3107 125.715 37.4624 125.538 33.7447 126.474C21.3018 129.635 9.03584 125.69 4.88819 117.217C0.99346 109.251 11.5143 100.02 21.6812 102.448ZM332.855 102.776C354.631 110.793 336.218 132.417 312.698 126.474C308.981 125.538 309.132 125.715 309.512 123.11C311.536 108.644 322.613 98.9828 332.855 102.776Z" fill="black"/>
</svg>
