<svg width="353" height="515" viewBox="0 0 353 515" fill="none" xmlns="http://www.w3.org/2000/svg">
<path d="M73.8196 0.853565C29.713 4.29307 -3.82216 44.1508 4.54899 83.2246C6.16759 90.8372 8.292 96.8056 14.1341 110.235C15.8286 114.13 18.0541 119.415 19.0657 121.995C21.62 128.444 22.4041 131.1 23.8709 138.307C23.972 138.788 23.8709 138.813 21.5948 138.737C6.97687 138.181 -2.60822 154.67 9.02541 160.361C17.169 164.331 26.2229 156.491 26.9564 144.832C27.1334 141.949 28.145 142.025 31.534 145.136C40.7903 153.558 40.4868 167.543 30.1935 209.753C16.132 267.34 10.2647 309.321 11.8327 340.759C12.7178 358.41 15.778 383.751 17.0172 383.751C18.13 383.751 18.0288 381.096 16.4102 366.124C14.4629 347.89 14.1088 342.301 14.1088 330.262C14.1088 300.698 19.5463 265.316 32.242 212.281C38.6659 185.55 40.1327 177.735 40.5879 168.024C41.2455 153.785 36.668 143.593 27.9932 140.078C26.8806 139.597 26.8299 139.547 26.653 138.307C25.8688 132.111 23.5674 125.131 18.4082 113.194C7.9632 89.0667 6.16759 82.7694 6.16759 70.5289C6.26875 23.084 62.9447 -10.3754 109.226 9.67995C115.903 12.5883 125.817 20.3272 122.858 20.3272C117.37 20.3272 104.092 25.1829 97.795 29.4824C81.7861 40.4331 84.0877 56.7455 101.664 56.7455C121.467 56.7455 136.768 37.98 129.079 23.1092C128.624 22.224 130.369 22.047 139.448 22.047C151.74 22.0722 160.87 23.1344 185.73 27.4086C210.615 31.6827 219.316 32.7955 231.734 33.2001C260.793 34.1358 286.893 27.9397 310.538 14.4346C317.063 10.7169 324.954 4.77359 324.954 3.58494C324.954 2.57331 324.195 2.8768 321.691 4.87476C306.365 17.0648 279.962 26.8521 255.027 29.533C236.084 31.5816 221.996 30.5446 186.615 24.5001C157.733 19.5939 141.042 18.127 129.282 19.4927C127.183 19.7202 127.183 19.7202 126.55 18.7592C118.913 7.22678 95.266 -0.815608 73.8196 0.853565ZM126.171 24.4496C133.126 39.7757 114.967 58.3894 97.3398 53.9889C78.9789 49.4366 93.7738 28.9006 119.014 23.8931C125.842 22.5274 125.26 22.477 126.171 24.4496ZM24.0985 141.418C25.6918 142.379 22.834 152.445 20.128 155.303C13.1731 162.662 2.72807 155.935 8.06438 147.538C10.9728 142.986 20.6337 139.294 24.0985 141.418Z" fill="black"/>
<path d="M340.555 9.35183C340.2 9.70591 340.403 10.3129 341.996 14.3594C352.897 41.7742 351.784 71.6676 339.341 84.9199C339.24 85.0462 338.455 84.7175 337.544 84.1105C328.036 77.9143 317.793 81.4802 315.189 91.9001C312.179 103.888 324.798 103.938 336.736 91.9759C339.847 88.8652 340.251 89.0169 343.337 94.5556C351.455 109.072 351.708 125.562 344.297 156.011C338.861 178.292 337.772 183.705 336.533 194.452C336.054 198.676 336.129 210.613 336.661 214.558C338.127 225.029 342.704 238.382 343.817 235.423C343.893 235.222 343.337 232.692 342.552 229.808C337.14 209.778 337.823 197.311 346.194 162.966C351.808 139.952 352.87 133.452 352.87 122.628C352.846 108.415 348.925 95.7695 342.3 88.4352C341.11 87.1202 341.11 87.1202 342.654 84.7681C354.287 67.2164 355.122 42.5836 344.931 16.8125C342.628 10.9957 341.262 8.66899 340.555 9.35183ZM330.54 83.6553C332.412 84.0599 335.192 85.3751 336.661 86.5384C337.596 87.2971 337.596 87.2971 335.268 89.6744C325.608 99.3859 316.251 101.182 317.59 93.0886C318.704 86.3867 324.267 82.3403 330.54 83.6553Z" fill="black"/>
<path d="M342.103 256.642C315.296 297.865 315.296 343.388 342.154 415.997C352.018 442.679 352.321 451.252 343.799 460.332C341.523 462.734 341.648 462.709 340.916 461.368C335.301 451.379 315.321 452.188 315.245 462.381C315.195 471.004 326.804 473.963 337.981 468.147C344.506 464.758 337.45 480.918 329.433 487.671C313.348 501.2 284.619 502.238 219.115 491.591C190.867 487.013 182.546 486.584 174.099 489.34C172.278 489.947 172.152 489.947 171.393 489.567C163.705 485.598 153.462 487.013 137.049 494.323C116.487 503.503 111.809 505.324 102.527 507.676C84.52 512.278 65.9315 511.216 53.3369 504.894C45.5221 500.973 40.8687 495.941 34.8496 485.04C28.881 474.19 25.6944 469.665 22.1284 467.009C21.395 466.451 21.3949 466.451 21.825 463.24C23.6459 449.128 22.8365 426.619 19.6753 404.567C18.5625 396.853 18.3349 396.145 17.1715 396.877C16.8427 397.105 16.9186 398.042 17.6267 404.161C20.6617 430.033 21.2432 447.813 19.5488 461.394C19.043 465.289 19.2453 465.036 17.2221 464.251C6.47361 460.205 -3.66787 472.597 1.64313 483.27C6.49891 493.006 16.5898 486.178 20.5351 470.499C21.2432 467.716 25.4416 473.23 32.0928 485.546C41.0204 502.137 49.4422 508.763 65.8556 512.101C84.95 515.971 104.146 512.557 130.65 500.569C152.324 490.757 158.9 489.061 166.967 491.11C169.016 491.641 169.016 491.591 167.119 492.982C156.522 500.696 160.038 516.527 171.874 514.529C181.964 512.835 184.62 500.241 176.476 492.906C175.035 491.616 175.01 491.667 177.64 491.11C185.1 489.516 192.081 490.023 215.701 493.892C272.859 503.249 302.297 504.059 319.772 496.8C333.253 491.185 342.837 479.073 342.634 467.893C342.585 465.416 342.585 465.416 344.355 463.796C355.305 453.807 355.305 443.69 344.379 414.479C317.976 343.97 317.597 303.479 342.989 258.184C345.341 253.986 345.593 253.252 344.582 253.252C344.431 253.252 343.317 254.77 342.103 256.642ZM331.405 457.601C335.908 458.991 340.536 463.14 338.968 464.378C332.519 469.361 321.138 469.537 318.71 464.682C315.979 459.295 323.414 455.146 331.405 457.601ZM16.7921 466.73C18.8154 467.565 18.6636 469.562 16.0334 476.011C11.8605 486.305 4.42508 487.999 3.00882 478.997C1.64313 470.22 9.12911 463.544 16.7921 466.73ZM175.237 495.965C180.902 502.162 178.449 510.988 170.811 511.874C162.718 512.835 160.645 502.441 167.625 495.965C171.317 492.578 172.126 492.578 175.237 495.965Z" fill="black"/>
</svg>
