<svg width="368" height="516" viewBox="0 0 368 516" fill="none" xmlns="http://www.w3.org/2000/svg">
<path d="M173.002 1.29686C166.022 3.82591 167.388 11.6154 176.441 20.8718C178.92 23.4008 180.867 25.6769 181.904 27.1944C183.169 29.0659 183.624 29.5716 184.104 29.5716C184.585 29.5716 185.04 29.0659 186.305 27.1944C187.342 25.6769 189.289 23.4008 191.768 20.8718C197.281 15.2319 199.178 12.1465 199.455 8.42879C200.038 1.06925 191.261 -1.86445 185.445 3.77532C184.104 5.06514 184.104 5.06514 182.764 3.77532C180.083 1.17041 176.087 0.15879 173.002 1.29686ZM177.655 2.51081C180.184 3.16835 182.764 5.1916 183.396 6.98723C183.548 7.41715 183.826 7.69536 184.104 7.69536C184.383 7.69536 184.661 7.41715 184.813 6.98723C186.583 1.90383 195.282 0.68989 197.483 5.21688C199.279 8.95989 197.331 13.1075 190.578 19.9359C186.988 23.5525 185.344 25.5504 184.585 27.245C184.206 28.1048 184.003 28.1048 183.624 27.245C182.865 25.5504 181.221 23.5525 177.63 19.9359C172.066 14.2962 170.195 11.2613 170.195 7.89769C170.195 3.80063 173.482 1.44861 177.655 2.51081Z" fill="black"/>
<path d="M114.052 1.62512C111.245 2.35854 108.538 3.8001 104.037 6.96142C90.6076 16.3948 84.6896 17.1788 70.0464 11.4378C52.3431 4.50823 48.6506 4.63469 36.9158 12.6265C27.9125 18.7721 25.1053 19.2779 16.0512 16.3442C8.81809 14.0175 5.68208 15.0038 3.02658 20.4665C-1.24753 29.2424 0.0169968 38.448 7.78118 55.3674C16.4811 74.3859 16.8605 78.8117 10.9678 94.3653C3.63353 113.814 3.40591 123.475 9.70327 150.182C14.8119 171.729 14.7108 176.13 8.76751 194.845C3.38063 211.789 3.40591 219.579 8.84338 237.94C13.9774 255.339 14.0026 260.675 8.94455 277.166C3.50709 294.969 3.83586 300.382 11.5748 319.274C18.1756 335.384 18.2262 338.216 12.3588 353.644C7.83176 365.505 6.6431 371.271 6.89602 380.199C7.07305 387.052 7.73061 390.467 11.6001 404.857C16.9363 424.557 16.8605 431.31 11.2713 445.297C5.70736 459.155 5.53034 462.823 9.82971 476.581C12.1817 484.143 12.4346 487.481 11.2713 495.118C9.39978 507.233 11.8782 511.33 21.2863 511.685C29.2528 511.961 34.8673 509.408 42.8592 501.871C48.3978 496.635 49.2576 496.586 56.5413 501.138C69.6164 509.23 74.2446 509.939 89.0143 506.043C101.558 502.732 106.364 503.136 117.593 508.447C127.026 512.898 129.858 512.974 137.294 508.851C143.642 505.336 146.677 504.83 155.25 505.892C159.372 506.423 159.828 506.398 159.828 505.639C159.828 504.602 153.05 503.084 148.472 503.084C144.274 503.111 142.504 503.616 136.687 506.525C128.72 510.495 127.532 510.495 118.832 506.423C106.718 500.759 101.685 500.277 88.3821 503.642C74.7252 507.081 69.8694 506.398 59.045 499.57C49.46 493.551 47.8413 493.601 40.5576 500.404C33.527 506.98 28.9747 509.078 21.8428 509.078C13.7245 509.078 12.1059 506.347 13.8003 495.421C15.0901 487.102 14.7867 483.84 12.0047 474.936C8.18584 462.797 8.36286 459.61 13.3957 446.738C19.7943 430.4 19.7436 424.912 13.0416 400.305C7.40182 379.668 7.73061 372.409 15.166 353.037C20.6793 338.722 20.4771 334.549 13.6233 317.833C6.16259 299.673 5.90969 295.299 11.246 277.519C16.2788 260.702 16.2788 255.694 11.1195 237.686C5.65677 218.517 5.65677 212.648 11.1954 195.477C15.2419 182.882 15.9753 179.341 15.9753 172.462C15.9753 166.013 15.3936 162.574 12.1312 148.689C6.112 123.196 6.26375 114.294 13.0163 96.3128C19.5666 78.9382 19.2125 73.6778 10.2344 54.7352C3.22889 39.915 1.55972 31.9231 3.86114 24.3107C5.96026 17.4317 8.26171 16.2177 15.0396 18.3927C25.257 21.6804 28.216 21.1493 38.6104 14.1945C48.6254 7.49252 52.4949 7.18903 65.1148 12.1207C76.622 16.6477 79.151 17.3052 84.7148 17.3052C90.8604 17.3052 95.7416 15.5855 102.039 11.2355C103.43 10.2745 105.706 8.70646 107.097 7.74542C115.848 1.70099 119.869 1.85273 136.105 8.80762C148.7 14.1945 154.441 15.2567 159.145 13.0817C162.104 11.6907 165.038 8.15006 164.127 7.06257C163.621 6.4556 163.419 6.58206 162.584 7.97303C158.765 14.1439 152.595 13.714 135.296 6.10153C124.547 1.37221 119.363 0.259432 114.052 1.62512Z" fill="black"/>
<path d="M245.315 1.60023C242.178 2.28307 239.043 3.42114 232.922 6.10193C215.598 13.7144 209.453 14.1443 205.635 7.97343C204.8 6.58246 204.597 6.456 204.091 7.06297C203.18 8.15046 206.114 11.6911 209.073 13.0821C213.777 15.2571 219.519 14.1949 232.114 8.80802C248.35 1.85313 252.371 1.70139 261.121 7.74581C262.512 8.70686 264.788 10.2749 266.18 11.2359C272.477 15.5859 277.358 17.3056 283.503 17.3056C289.067 17.3056 291.597 16.6481 303.103 12.1211C315.724 7.18943 319.594 7.49292 329.609 14.1949C340.003 21.1499 342.962 21.681 353.178 18.3931C359.957 16.2181 362.258 17.4321 364.358 24.311C366.659 31.9236 364.989 39.9153 357.985 54.7355C352.647 65.9899 351.054 71.0479 350.853 77.3706C350.65 83.2886 351.181 85.6659 355.202 96.3131C361.955 114.295 362.106 123.197 356.088 148.69C350.625 171.831 350.701 175.852 357.023 195.477C362.561 212.649 362.561 218.517 357.099 237.686C351.939 255.694 351.939 260.702 356.972 277.519C362.309 295.299 362.055 299.673 354.595 317.833C347.742 334.55 347.539 338.723 353.053 353.038C360.488 372.409 360.816 379.668 355.177 400.305C348.474 424.913 348.425 430.4 354.823 446.739C359.855 459.61 360.033 462.797 356.213 474.936C353.432 483.84 353.129 487.102 354.419 495.422C356.112 506.347 354.494 509.079 346.376 509.079C339.244 509.079 334.692 506.981 327.661 500.405C320.377 493.601 318.759 493.552 309.173 499.57C298.35 506.398 293.494 507.081 279.837 503.642C266.533 500.278 261.501 500.759 249.386 506.423C240.687 510.496 239.498 510.496 231.531 506.526C225.714 503.616 223.944 503.111 219.747 503.085C215.168 503.085 208.391 504.602 208.391 505.64C208.391 506.398 208.846 506.423 212.968 505.892C221.541 504.83 224.576 505.336 230.924 508.851C238.36 512.975 241.192 512.899 250.626 508.447C261.855 503.136 266.66 502.732 279.203 506.044C293.974 509.94 298.602 509.23 311.676 501.139C318.96 496.586 319.821 496.636 325.36 501.871C333.351 509.409 338.965 511.962 346.932 511.685C356.34 511.33 358.819 507.233 356.947 495.118C355.784 487.482 356.037 484.143 358.389 476.581C362.689 462.824 362.51 459.155 356.947 445.297C351.357 431.31 351.281 424.558 356.619 404.858C360.488 390.467 361.145 387.053 361.323 380.2C361.575 371.271 360.386 365.505 355.86 353.645C349.991 338.216 350.043 335.384 356.643 319.275C364.382 300.383 364.711 294.969 359.274 277.166C354.216 260.675 354.24 255.34 359.375 237.941C364.813 219.58 364.838 211.789 359.451 194.845C353.508 176.13 353.406 171.729 358.516 150.182C364.813 123.475 364.585 113.814 357.25 94.3658C351.357 78.8122 351.737 74.3862 360.437 55.3679C368.201 38.4486 369.466 29.2427 365.192 20.467C362.537 15.0042 359.4 14.0179 352.167 16.3446C343.114 19.2783 340.306 18.7725 331.302 12.6269C319.567 4.63508 315.876 4.50862 298.171 11.4382C283.528 17.1792 277.61 16.3952 264.181 6.96182C256.341 1.47377 251.941 0.209249 245.315 1.60023Z" fill="black"/>
<path d="M183.401 486.748C183.249 486.951 182.541 487.986 181.808 489.1C181.024 490.314 178.95 492.717 176.548 495.17C170.908 500.936 169.036 503.971 168.758 507.713C168.176 515.072 176.952 518.007 182.769 512.368C184.109 511.078 184.109 511.078 185.45 512.368C191.266 518.007 200.042 515.072 199.46 507.713C199.183 503.995 197.286 500.911 191.772 495.27C189.294 492.742 187.346 490.465 186.31 488.948C184.716 486.571 184.008 486.04 183.401 486.748ZM184.59 488.897C185.349 490.593 186.992 492.59 190.583 496.207C197.336 503.035 199.284 507.182 197.487 510.926C195.287 515.452 186.588 514.238 184.818 509.155C184.489 508.219 183.73 508.219 183.401 509.155C181.631 514.238 172.931 515.452 170.731 510.926C168.935 507.182 170.882 503.035 177.635 496.207C181.226 492.59 182.87 490.593 183.629 488.897C184.008 488.038 184.211 488.038 184.59 488.897Z" fill="black"/>
</svg>
