<svg width="354" height="506" viewBox="0 0 354 506" fill="none" xmlns="http://www.w3.org/2000/svg">
<path d="M175.919 0.36834C174.275 3.02384 174.756 20.2972 176.475 20.0949C178.878 19.8168 179.03 0.166016 176.627 0.166016C176.324 0.166016 175.995 0.267179 175.919 0.36834Z" fill="black"/>
<path d="M89.0667 1.50581C87.8527 2.97266 88.1056 17.0595 89.3702 18.324C91.0393 20.0185 92.0761 10.6104 91.0139 3.45317C90.6852 1.30349 89.8758 0.519482 89.0667 1.50581Z" fill="black"/>
<path d="M263.578 1.50631C262.868 2.34091 262.364 9.75101 262.743 13.317C263.703 21.9157 265.778 19.6649 265.803 10.0292C265.803 2.79613 265.019 -0.238735 263.578 1.50631Z" fill="black"/>
<path d="M74.4018 1.98698C73.6178 2.97331 73.0109 12.2802 73.5672 15.3404C74.8318 22.5481 77.1333 18.3752 76.8044 9.52354C76.5516 3.04918 75.717 0.418961 74.4018 1.98698Z" fill="black"/>
<path d="M278.192 2.23951C276.474 6.33657 277.13 18.8806 279.054 18.8806C280.571 18.8806 281.303 9.47258 280.216 3.83281C279.786 1.68311 278.775 0.873813 278.192 2.23951Z" fill="black"/>
<path d="M139.196 2.54294C137.653 3.68101 139.499 17.3632 141.194 17.3632C142.079 17.3632 142.256 16.6297 142.231 12.5833C142.231 4.36385 141.244 1.05079 139.196 2.54294Z" fill="black"/>
<path d="M213.271 2.39137C211.575 3.47885 211.196 17.3633 212.865 17.3633C214.561 17.3633 216.406 3.68118 214.864 2.54311C214.307 2.16375 213.726 2.08788 213.271 2.39137Z" fill="black"/>
<path d="M25.0854 2.87237C24.6808 3.90929 24.9591 14.3796 25.4395 16.2258C26.0465 18.5019 27.0076 18.8307 27.387 16.858C28.272 12.1287 26.2741 -0.0107377 25.0854 2.87237Z" fill="black"/>
<path d="M38.9682 2.9222C38.2095 4.33847 37.9819 14.7076 38.6647 16.9078C39.7521 20.3979 41.7248 16.8573 41.7248 11.4451C41.7248 5.09719 40.2328 0.5196 38.9682 2.9222Z" fill="black"/>
<path d="M105.963 2.9225C104.976 4.76872 106.089 19.1337 107.227 19.1337C108.441 19.1337 108.896 4.21232 107.733 2.82135C107.278 2.29025 106.291 2.36612 105.963 2.9225Z" fill="black"/>
<path d="M165.093 2.99898C164.006 5.04751 165.119 19.3872 166.383 19.3872C167.091 19.3872 167.117 19.3113 167.42 15.8213C168.128 7.45011 166.788 -0.0611725 165.093 2.99898Z" fill="black"/>
<path d="M187.17 2.92304C186.006 5.09803 186.436 19.3872 187.676 19.3872C188.94 19.3872 190.054 5.04744 188.965 2.99891C188.561 2.31607 187.524 2.2402 187.17 2.92304Z" fill="black"/>
<path d="M246.322 2.82122C245.639 3.63052 245.514 17.7679 246.17 18.8554C247.384 20.8028 248.321 16.0482 248.346 8.05635C248.346 2.66948 247.739 1.10147 246.322 2.82122Z" fill="black"/>
<path d="M313.471 3.02395C312.384 4.71841 311.954 13.0896 312.839 15.9221C314.685 21.916 316.506 15.8462 315.647 6.53932C315.267 2.49285 314.584 1.35478 313.471 3.02395Z" fill="black"/>
<path d="M327.789 2.9981C326.98 5.14779 326.221 14.4547 326.676 16.8573C327.055 18.83 328.017 18.5012 328.599 16.225C329.863 11.2175 329.155 -0.567857 327.789 2.9981Z" fill="black"/>
<path d="M56.1894 3.02406C55.0259 4.41503 55.0007 19.7917 56.1388 20.3987C57.7573 21.2838 59.1989 4.92085 57.6562 3.07463C57.2768 2.6194 56.5434 2.59412 56.1894 3.02406Z" fill="black"/>
<path d="M296.399 3.07423C295.413 4.23758 295.944 18.4256 297.033 20.0695C298.22 21.8651 298.827 19.4877 298.778 13.1904C298.702 4.59166 297.917 1.25331 296.399 3.07423Z" fill="black"/>
<path d="M123.921 3.32739C122.859 4.59193 124.351 17.1107 125.565 17.1107C126.273 17.1107 126.45 16.2761 126.45 12.4573C126.45 4.89541 125.489 1.43061 123.921 3.32739Z" fill="black"/>
<path d="M150.955 3.37769C150.196 4.28815 150.5 13.848 151.385 16.3264C153.737 23.079 154.799 15.6183 152.978 5.09745C152.599 2.97305 151.815 2.31549 150.955 3.37769Z" fill="black"/>
<path d="M201.639 3.25155C200.982 4.03555 199.869 14.3035 200.172 16.959C200.476 19.8673 201.538 19.5892 202.676 16.3267C204.472 11.1675 203.638 0.823655 201.639 3.25155Z" fill="black"/>
<path d="M228.42 3.37817C227.84 4.49096 227.385 13.7473 227.764 16.1499C228.016 17.6673 228.978 17.5156 229.357 15.897C230.848 9.29614 230.772 2.94824 229.23 2.94824C228.902 2.94824 228.548 3.15055 228.42 3.37817Z" fill="black"/>
<path d="M10.8746 4.51578C9.50893 5.24919 8.64906 6.64018 8.42144 8.43579C8.29498 9.67504 8.29498 9.67504 7.03047 9.97853C0.606678 11.496 2.78167 18.4003 10.0906 19.6396C15.351 20.5246 18.9423 18.7037 18.9676 15.1884C18.9929 7.70238 14.9464 2.36608 10.8746 4.51578Z" fill="black"/>
<path d="M339.445 4.49063C336.334 6.05862 333.982 13.9998 335.575 17.5152C337.093 20.8789 347.184 20.2971 349.94 16.7059C351.861 14.1769 350.395 10.7627 347.032 9.97866C345.767 9.67517 345.767 9.67517 345.64 8.48651C345.211 4.99642 342.225 3.07435 339.445 4.49063Z" fill="black"/>
<path d="M9.86138 25.9628C4.09515 26.5698 2.22364 27.3033 3.61463 28.4666C6.06781 30.4899 19.0165 29.7057 18.966 27.5309C18.9407 26.2915 14.3884 25.5076 9.86138 25.9628Z" fill="black"/>
<path d="M338.764 25.9622C334.743 26.5944 333.933 27.6818 336.741 28.7188C341.369 30.4638 350.777 29.7558 350.777 27.7072C350.777 26.5944 342.355 25.3804 338.764 25.9622Z" fill="black"/>
<path d="M1.76464 39.3159C0.323084 39.5435 -0.081563 40.732 1.18296 41.0609C3.86375 41.769 17.7482 41.1368 17.9 40.3022C18.1023 39.3411 6.54455 38.633 1.76464 39.3159Z" fill="black"/>
<path d="M337.823 39.3412C336.483 39.5436 335.952 39.8976 336.18 40.4793C336.711 41.8702 353.655 41.5667 353.503 40.1758C353.403 39.2147 342.781 38.6584 337.823 39.3412Z" fill="black"/>
<path d="M3.46168 53.3769C2.95588 53.908 2.93058 54.0597 3.36052 54.6415C4.29626 55.9313 20.3304 56.4624 20.8109 55.1978C21.2915 53.9586 17.8014 53.301 9.86019 53.0986C4.44801 52.9723 3.86634 52.9975 3.46168 53.3769Z" fill="black"/>
<path d="M339.899 53.1752C337.521 53.4028 333.754 54.1616 333.45 54.465C332.16 55.7549 335.675 56.2605 342.756 55.8053C349.711 55.3501 351.026 55.072 351.026 54.0098C351.026 53.0994 345.336 52.6946 339.899 53.1752Z" fill="black"/>
<path d="M6.62199 63.8976C3.63772 64.1504 2.24675 65.4403 4.19411 66.1737C6.21735 66.9577 18.0027 66.0979 18.6097 65.1368C19.343 63.9228 13.5769 63.3413 6.62199 63.8976Z" fill="black"/>
<path d="M337.901 63.8984C333.577 64.3536 334.69 65.5928 339.95 66.1491C347.461 66.9837 352.268 66.1491 350.168 64.4295C349.409 63.7971 341.923 63.4936 337.901 63.8984Z" fill="black"/>
<path d="M14.0319 73.4327C5.96428 74.1155 3.08117 74.5201 2.7524 75.0764C1.63961 76.7962 4.77562 77.1756 12.7674 76.2651C21.5685 75.2536 22.7318 72.6992 14.0319 73.4327Z" fill="black"/>
<path d="M334.668 73.5082C331.91 74.6969 337.904 76.2396 347.008 76.6948C350.322 76.8466 350.474 76.8466 351.005 76.3155C351.94 75.3798 351.46 74.6717 349.715 74.4187C344.455 73.6347 335.578 73.1036 334.668 73.5082Z" fill="black"/>
<path d="M10.2428 86.4318C4.19843 87.2157 2.02344 87.8479 2.02344 88.8342C2.02344 90.2758 13.3283 89.3401 17.653 87.5192C20.2074 86.457 15.5033 85.7742 10.2428 86.4318Z" fill="black"/>
<path d="M335.776 86.331C334.689 87.3932 339.417 88.7083 347.46 89.5429C351.405 89.9729 352.039 89.8716 352.039 88.8348C352.039 87.3426 337.065 85.0412 335.776 86.331Z" fill="black"/>
<path d="M8.97639 96.0676C2.62849 96.3459 1.7686 96.5987 2.47675 98.1668C3.33662 100.038 18.2074 98.7231 18.2074 96.8011C18.2074 95.9918 15.4761 95.7894 8.97639 96.0676Z" fill="black"/>
<path d="M338.508 95.9663C334.69 96.1181 334.893 97.332 338.939 98.3183C343.921 99.5575 351.786 99.1529 351.786 97.6607C351.786 96.3709 346.298 95.6881 338.508 95.9663Z" fill="black"/>
<path d="M8.97243 109.927C2.72566 110.66 1.51172 111.014 1.51172 111.975C1.51172 112.456 2.39689 112.962 3.23148 112.962C8.74481 112.962 19.0633 111.394 19.3922 110.534C19.8726 109.295 16.1043 109.067 8.97243 109.927Z" fill="black"/>
<path d="M334.839 109.801C333.726 111.141 342.83 112.962 350.823 112.962C352.189 112.962 352.845 112.203 352.238 111.369C351.354 110.18 335.698 108.764 334.839 109.801Z" fill="black"/>
<path d="M6.56825 125.253C1.61131 125.859 0.372079 126.694 2.4459 128.06C4.92438 129.678 19.4158 127.958 18.303 126.163C17.8478 125.455 9.93189 124.848 6.56825 125.253Z" fill="black"/>
<path d="M338.128 125.379C335.245 125.759 334.714 126.872 337.093 127.554C344.022 129.552 354.34 128.768 352.191 126.391C351.305 125.405 342.555 124.798 338.128 125.379Z" fill="black"/>
<path d="M5.05424 139.82C0.906599 140.124 -0.282053 140.731 0.931891 141.92C1.46299 142.476 9.98589 142.324 13.653 141.717C22.4795 140.225 16.7132 138.961 5.05424 139.82Z" fill="black"/>
<path d="M336.285 139.694C335.779 140.2 336.158 140.781 337.196 141.06C341.268 142.147 352.294 142.754 353.129 141.919C353.711 141.338 353.584 140.731 352.801 140.351C351.535 139.77 336.792 139.163 336.285 139.694Z" fill="black"/>
<path d="M10.3659 154.716C0.932566 155.627 -0.508994 156.057 0.932564 157.523C1.53954 158.13 8.26682 157.827 13.5272 156.967C22.6066 155.475 20.2039 153.755 10.3659 154.716Z" fill="black"/>
<path d="M334.943 154.817C334.639 155.551 335.045 155.854 336.891 156.284C342.581 157.599 352.293 158.333 353.127 157.524C354.593 156.031 353.051 155.601 343.315 154.691C338.991 154.286 335.121 154.362 334.943 154.817Z" fill="black"/>
<path d="M4.67662 170.877C1.16125 171.105 0.377249 171.458 0.680735 172.647C1.16125 174.468 19.0163 173.532 18.6623 171.711C18.5105 170.851 11.4039 170.447 4.67662 170.877Z" fill="black"/>
<path d="M338.108 170.877C335.807 171.054 335.352 171.206 335.352 171.762C335.352 173.558 352.927 174.418 353.382 172.647C353.813 170.953 346.985 170.169 338.108 170.877Z" fill="black"/>
<path d="M6.95298 184.812C1.21204 185.09 0.503906 185.267 0.503906 186.456C0.503906 187.872 3.99399 188.378 10.0131 187.847C23.493 186.658 20.9892 184.154 6.95298 184.812Z" fill="black"/>
<path d="M339.018 184.787C335.807 184.913 335.352 185.04 335.352 185.798C335.352 187.442 351.689 188.909 353.181 187.392C355.23 185.343 349.64 184.306 339.018 184.787Z" fill="black"/>
<path d="M3.10786 197.205C0.452364 197.533 -0.458094 198.798 1.31224 199.658C3.71483 200.796 19.6225 200.669 20.786 199.506C22.5815 197.71 10.8973 196.168 3.10786 197.205Z" fill="black"/>
<path d="M338.482 197.205C334.182 197.785 332.361 198.595 333.272 199.506C334.436 200.668 350.369 200.795 352.746 199.657C356.591 197.812 346.652 196.091 338.482 197.205Z" fill="black"/>
<path d="M4.54668 208.737C3.02925 208.863 2.52344 209.141 2.52344 209.849C2.52344 211.594 17.3942 211.393 17.6471 209.648C17.7736 208.838 9.90826 208.282 4.54668 208.737Z" fill="black"/>
<path d="M339.014 208.711C336.686 208.862 336.307 208.989 336.409 209.621C336.662 211.393 351.533 211.62 351.533 209.849C351.533 208.813 345.69 208.282 339.014 208.711Z" fill="black"/>
<path d="M2.35197 219.208C1.7703 219.788 1.97262 220.699 2.73133 220.978C3.59122 221.332 14.8961 221.56 16.4388 221.281C17.7792 221.029 18.2344 220.067 17.1469 219.815C14.0362 219.081 2.88307 218.626 2.35197 219.208Z" fill="black"/>
<path d="M342.683 219.106C336.968 219.663 336.261 219.815 336.412 220.599C336.689 222.116 352.042 221.661 352.042 220.119C352.042 218.981 348.197 218.55 342.683 219.106Z" fill="black"/>
<path d="M8.84784 227.451C2.67697 228.034 1.38715 228.54 2.92987 229.83C3.41038 230.234 11.7815 229.803 15.8027 229.147C22.606 228.058 16.9408 226.668 8.84784 227.451Z" fill="black"/>
<path d="M335.372 227.629C335.069 228.009 335.069 228.109 335.372 228.413C336.258 229.272 350.294 230.537 351.129 229.83C351.609 229.424 351.66 228.691 351.229 228.337C350.167 227.502 336.004 226.871 335.372 227.629Z" fill="black"/>
<path d="M5.71222 239.161C2.32331 239.363 1.58988 239.641 1.94395 240.603C2.47505 241.993 17.447 242.145 18.838 240.779C20.2542 239.338 14.4627 238.63 5.71222 239.161Z" fill="black"/>
<path d="M338.509 239.06C335.222 239.566 334.439 239.97 335.222 240.78C336.487 242.019 351.028 242.045 351.938 240.805C352.496 240.073 351.965 239.49 350.599 239.338C348.979 239.136 339.471 238.908 338.509 239.06Z" fill="black"/>
<path d="M6.95414 251.453C0.985578 252.06 -1.06295 252.971 1.06145 254.109C3.41347 255.372 18.3854 254.26 19.3212 252.768C20.0292 251.605 12.8974 250.846 6.95414 251.453Z" fill="black"/>
<path d="M343.697 251.578C337.349 252.034 333.783 253.122 334.921 254.26C335.883 255.247 351.36 254.74 353.003 253.678C355.482 252.06 351.057 251.074 343.697 251.578Z" fill="black"/>
<path d="M4.19493 264.704C2.27286 264.907 1.56471 265.387 2.01994 266.248C2.72809 267.537 18.5599 267.386 19.0658 266.096C19.5969 264.654 11.7821 263.92 4.19493 264.704Z" fill="black"/>
<path d="M336.511 264.806C330.872 266.324 340.936 267.841 350.092 266.88C353.278 266.525 352.924 265.034 349.612 264.679C346.425 264.351 337.928 264.427 336.511 264.806Z" fill="black"/>
<path d="M2.83289 276.388C1.29017 277.932 3.92039 278.564 12.8985 278.792C18.6647 278.943 19.5752 278.792 18.7406 277.754C17.9566 276.819 3.64219 275.58 2.83289 276.388Z" fill="black"/>
<path d="M343.894 276.338C337.445 276.818 334.562 277.552 335.372 278.512C336.13 279.449 350.749 278.539 351.381 277.526C352.19 276.236 350.115 275.883 343.894 276.338Z" fill="black"/>
<path d="M4.42417 284.912C2.02156 285.14 1.21226 285.974 2.40092 286.961C3.08376 287.516 14.0851 287.036 17.1453 286.327C18.1822 286.075 17.7775 285.113 16.5636 284.885C15.3244 284.684 6.87734 284.684 4.42417 284.912Z" fill="black"/>
<path d="M337.37 284.886C336.258 285.113 335.955 286.1 336.915 286.327C339.976 287.037 350.977 287.517 351.66 286.961C352.292 286.43 352.14 285.468 351.357 285.165C350.547 284.837 338.736 284.609 337.37 284.886Z" fill="black"/>
<path d="M4.67347 295.28C2.52376 295.508 1.86622 296.217 2.95371 297.101C4.0665 298.038 17.7992 297.481 17.6475 296.521C17.4958 295.407 10.288 294.725 4.67347 295.28Z" fill="black"/>
<path d="M340.331 295.307C336.564 295.711 334.92 296.673 337.044 297.253C338.41 297.608 350.65 297.481 351.105 297.101C353.029 295.534 347.338 294.573 340.331 295.307Z" fill="black"/>
<path d="M3.73715 305.929C0.525263 306.308 -0.688681 307.875 1.63805 308.685C5.35576 309.95 20.6565 308.888 20.9347 307.344C21.2128 305.953 10.8691 305.094 3.73715 305.929Z" fill="black"/>
<path d="M335.776 306.053C330.82 306.763 332.513 308.204 339.217 308.988C347.764 309.974 356.616 308.356 352.746 306.484C351.026 305.674 340.303 305.397 335.776 306.053Z" fill="black"/>
<path d="M2.57772 318.296C0.933844 318.448 0.503906 318.751 0.503906 319.737C0.503906 320.621 1.08559 320.876 3.71579 321.128C7.05414 321.456 17.145 321.456 18.0302 321.128C18.8142 320.824 18.966 319.99 18.2831 319.711C15.3241 318.573 7.25647 317.841 2.57772 318.296Z" fill="black"/>
<path d="M343.419 318.32C338.918 318.724 335.352 319.635 335.352 320.369C335.352 321.228 336.463 321.38 342.305 321.38C352.347 321.38 354.596 320.848 353.307 318.827C352.903 318.168 348.047 317.916 343.419 318.32Z" fill="black"/>
<path d="M2.52609 332.636C1.00867 332.912 0.806349 333.015 0.679898 333.495C0.224668 335.215 12.9205 336.353 17.8774 335.037C22.2274 333.874 7.91299 331.623 2.52609 332.636Z" fill="black"/>
<path d="M341.288 332.736C330.059 334.05 335.521 336.074 348.243 335.291C352.996 335.012 353.706 334.76 353.376 333.519C353.148 332.635 345.992 332.18 341.288 332.736Z" fill="black"/>
<path d="M0.905366 348.645C-0.232706 349.883 0.450137 350.263 4.8001 350.794C13.6771 351.932 19.0893 351.983 19.0893 350.97C19.0893 349.959 13.7023 348.872 6.31753 348.417C1.03182 348.087 1.41117 348.087 0.905366 348.645Z" fill="black"/>
<path d="M346.981 348.442C340.356 348.872 334.969 350.01 334.969 350.97C334.969 351.983 340.38 351.932 349.257 350.794C353.607 350.262 354.289 349.883 353.151 348.645C352.671 348.113 352.52 348.113 346.981 348.442Z" fill="black"/>
<path d="M0.932272 364.223C-0.382835 365.513 0.88169 366.019 6.31914 366.372C13.2234 366.827 17.801 366.651 17.9022 365.943C18.1045 364.526 2.22208 362.908 0.932272 364.223Z" fill="black"/>
<path d="M343.039 364.122C338.411 364.551 336.059 365.185 336.159 365.943C336.362 367.385 353.23 366.524 353.509 365.082C353.737 363.843 349.615 363.464 343.039 364.122Z" fill="black"/>
<path d="M3.18534 377.752C1.69319 378.234 1.16209 379.118 1.9714 379.852C3.51411 381.243 17.4492 381.345 18.3091 379.979C19.2701 378.411 6.80187 376.59 3.18534 377.752Z" fill="black"/>
<path d="M340.28 377.905C332.135 379.397 335.245 381.37 345.084 380.966C351.837 380.663 354.062 379.701 351.634 378.083C350.674 377.449 343.314 377.349 340.28 377.905Z" fill="black"/>
<path d="M1.91947 393.585C1.43895 394.065 1.41366 394.217 1.8436 394.774C2.70347 395.962 18.3583 397.379 19.2183 396.341C20.2046 395.154 15.804 394.04 7.71099 393.433C3.00696 393.105 2.3747 393.105 1.91947 393.585Z" fill="black"/>
<path d="M345.972 393.458C338.359 394.016 333.882 395.178 334.844 396.341C335.703 397.379 351.359 395.962 352.243 394.774C353.332 393.282 352.016 393.003 345.972 393.458Z" fill="black"/>
<path d="M3.791 407.242C2.4759 407.418 1.9448 408.304 2.60236 409.215C3.48752 410.428 18.2066 410.556 18.2066 409.342C18.2066 407.949 8.84911 406.584 3.791 407.242Z" fill="black"/>
<path d="M342.175 407.242C338.913 407.621 335.852 408.659 335.852 409.342C335.852 410.556 350.571 410.428 351.456 409.215C352.695 407.521 348.067 406.559 342.175 407.242Z" fill="black"/>
<path d="M2.47376 416.473C-0.207026 418.04 8.03768 420.191 15.8019 419.937C21.8969 419.761 16.7123 417.687 7.70889 416.726C6.31792 416.574 4.67403 416.398 4.04178 416.322C3.40952 416.271 2.70137 416.322 2.47376 416.473Z" fill="black"/>
<path d="M347.233 416.599C337.497 417.661 331.882 419.736 338.256 419.937C341.922 420.064 350.826 418.875 351.736 418.143C352.495 417.536 351.785 416.143 350.723 416.219C350.547 416.246 348.978 416.398 347.233 416.599Z" fill="black"/>
<path d="M3.05452 429.827C1.63826 431.242 2.39698 431.572 8.89662 432.255C16.8378 433.063 19.974 433.014 19.974 432.027C19.974 430.434 4.47079 428.41 3.05452 429.827Z" fill="black"/>
<path d="M345.463 429.524C337.673 429.952 332.059 431.597 334.79 432.659C335.776 433.063 344.325 432.507 349.712 431.724C351.433 431.47 351.937 430.762 351.027 429.852C350.496 429.321 349.687 429.269 345.463 429.524Z" fill="black"/>
<path d="M4.12123 439.967C3.43838 440.246 3.33723 441.257 3.9189 441.739C5.56278 443.104 19.4726 442.422 18.6127 441.005C18.0057 440.043 6.0433 439.208 4.12123 439.967Z" fill="black"/>
<path d="M339.826 439.994C330.974 441.005 336.209 443.002 345.972 442.319C349.967 442.016 350.524 441.84 350.524 440.829C350.524 439.74 345.39 439.336 339.826 439.994Z" fill="black"/>
<path d="M10.4913 450.361C3.56167 450.843 2.06952 451.348 3.4605 452.765C4.09277 453.372 14.6389 453.119 18.1796 452.41C24.6287 451.096 19.52 449.73 10.4913 450.361Z" fill="black"/>
<path d="M335.397 450.337C333.248 450.513 332.262 451.5 333.779 451.955C338.787 453.423 351.027 453.548 351.027 452.133C351.027 451.071 349.661 450.792 342.808 450.337C338.508 450.058 338.256 450.058 335.397 450.337Z" fill="black"/>
<path d="M3.53557 464.904C-0.131557 465.107 -1.0673 466.422 2.14458 466.852C7.25327 467.535 18.1029 466.826 17.9006 465.839C17.7488 465.031 10.3893 464.576 3.53557 464.904Z" fill="black"/>
<path d="M338.461 464.98C336.489 465.232 336.109 465.359 336.109 465.89C336.109 467.459 353.332 467.56 353.509 465.991C353.636 464.98 344 464.348 338.461 464.98Z" fill="black"/>
<path d="M7.38222 476.64C4.52438 477.044 3.28516 477.575 3.28516 478.434C3.28516 479.826 13.3761 480.862 17.0432 479.851C22.6072 478.334 14.5141 475.653 7.38222 476.64Z" fill="black"/>
<path d="M339.018 476.74C329.889 478.865 337.981 481.444 348.072 479.648C350.678 479.193 351.461 478.536 350.45 477.702C349.236 476.689 341.877 476.082 339.018 476.74Z" fill="black"/>
<path d="M56.0613 485.793C54.7463 486.806 55.075 502.436 56.4661 503.295C57.8318 504.181 58.2616 501.829 58.0594 494.215C57.9077 487.69 57.2501 484.909 56.0613 485.793Z" fill="black"/>
<path d="M297.033 486.072C295.944 487.717 295.413 501.905 296.399 503.067C297.917 504.888 298.702 501.55 298.778 492.952C298.827 486.655 298.22 484.276 297.033 486.072Z" fill="black"/>
<path d="M176.778 486.655C175.033 491.207 175.539 505.975 177.436 505.975C179.029 505.975 179.838 491.839 178.523 486.932C178.22 485.744 177.183 485.566 176.778 486.655Z" fill="black"/>
<path d="M9.42735 486.628C2.54832 488.121 0.90444 494.721 7.02474 496.163C8.28927 496.467 8.28927 496.466 8.41571 497.705C8.87094 501.499 12.3357 503.295 15.2695 501.246C17.9502 499.374 19.8977 491.738 18.4813 488.627C17.6468 486.78 13.1956 485.82 9.42735 486.628Z" fill="black"/>
<path d="M339.523 486.628C335.02 487.438 334.262 489.31 335.73 495.759C337.399 503.119 344.808 504.56 345.642 497.705C345.77 496.467 345.77 496.467 347.035 496.163C355.912 494.063 348.729 484.934 339.523 486.628Z" fill="black"/>
<path d="M165.676 487.337C164.234 491.104 164.512 503.699 166.03 503.699C167.446 503.699 168.306 489.056 167.016 486.958C166.738 486.527 165.878 486.78 165.676 487.337Z" fill="black"/>
<path d="M187.045 486.958C186.362 488.096 186.438 501.878 187.171 503.219C188.866 506.43 189.979 498.287 188.916 490.296C188.486 487.058 187.778 485.793 187.045 486.958Z" fill="black"/>
<path d="M106.599 487.489C105.84 489.866 105.36 502.057 105.967 503.219C106.295 503.775 107.282 503.851 107.737 503.32C108.42 502.512 108.546 488.373 107.889 487.286C107.61 486.831 106.776 486.983 106.599 487.489Z" fill="black"/>
<path d="M246.17 487.286C245.514 488.373 245.639 502.512 246.322 503.32C247.739 505.04 248.346 503.472 248.346 498.085C248.321 490.094 247.384 485.338 246.17 487.286Z" fill="black"/>
<path d="M74.1025 488.197C72.6357 493.456 73.3438 504.458 75.1395 504.458C76.935 504.458 77.4915 492.041 75.8982 487.944C75.4682 486.856 74.4566 486.983 74.1025 488.197Z" fill="black"/>
<path d="M152.294 487.565C150.296 489.993 149.689 502.789 151.561 503.143C152.699 503.371 152.952 502.36 153.66 495.076C154.267 488.804 153.736 485.845 152.294 487.565Z" fill="black"/>
<path d="M200.453 487.489C199.542 488.931 200.781 502.333 201.868 503.016C203.285 503.927 203.664 502.485 203.512 496.745C203.361 490.145 201.767 485.338 200.453 487.489Z" fill="black"/>
<path d="M278.165 487.944C276.572 492.041 277.128 504.458 278.924 504.458C280.72 504.458 281.428 493.456 279.962 488.197C279.607 486.983 278.596 486.856 278.165 487.944Z" fill="black"/>
<path d="M89.2969 487.868C88.083 489.335 87.9058 503.219 89.0693 504.636C90.5109 506.381 91.3201 503.498 91.3707 496.618C91.3959 490.22 90.4855 486.427 89.2969 487.868Z" fill="black"/>
<path d="M263.829 487.817C262.235 489.79 262.235 503.801 263.853 504.812C265.17 505.647 265.522 504.281 265.725 497.756C265.928 490.524 265.118 486.275 263.829 487.817Z" fill="black"/>
<path d="M39.3218 488.121C37.5515 489.411 37.9054 503.699 39.7011 503.699C40.5105 503.699 40.9403 502.688 41.3703 499.881C42.3314 493.508 41.1679 486.78 39.3218 488.121Z" fill="black"/>
<path d="M313.75 488.145C311.549 490.346 312.081 503.699 314.357 503.699C315.115 503.699 315.343 502.991 315.646 499.602C316.329 492.242 315.368 486.527 313.75 488.145Z" fill="black"/>
<path d="M25.9427 488.221C24.3242 490.827 24.4505 505.141 26.0945 503.498C26.8784 502.713 27.8648 491.914 27.3843 489.284C27.1819 488.172 26.3473 487.565 25.9427 488.221Z" fill="black"/>
<path d="M326.802 488.449C326.12 490.118 327.106 502.637 327.965 503.498C329.357 504.888 329.813 494.797 328.572 489.89C328.117 488.045 327.258 487.337 326.802 488.449Z" fill="black"/>
<path d="M140.459 489.562C137.955 494.418 137.98 504.484 140.484 503.851C142.381 503.371 143.089 488.779 141.218 488.779C141.041 488.779 140.687 489.132 140.459 489.562Z" fill="black"/>
<path d="M212.16 489.183C211.425 490.069 211.856 500.133 212.715 502.891C213.222 504.458 215.067 504.206 215.371 502.512C216.281 497.629 213.777 487.235 212.16 489.183Z" fill="black"/>
<path d="M124.701 490.221C123.209 496.846 123.285 503.195 124.828 503.195C126.041 503.195 127.028 494.418 126.294 489.966C126.041 488.475 125.08 488.627 124.701 490.221Z" fill="black"/>
<path d="M227.763 489.966C226.75 496.138 228.395 504.94 230.14 502.815C231.202 501.55 229.709 489.031 228.496 489.031C228.04 489.031 227.889 489.208 227.763 489.966Z" fill="black"/>
</svg>
