<svg width="353" height="511" viewBox="0 0 353 511" fill="none" xmlns="http://www.w3.org/2000/svg">
<path d="M193.273 0.536958C184.7 1.04277 178.554 2.35788 160.143 7.59301C133.74 15.1296 121.297 16.6723 111.459 13.6627C109.107 12.9293 109.107 12.904 110.751 12.0188C117.301 8.57934 116.593 2.0291 109.663 2.0291C103.239 2.0291 100.483 7.56771 104.883 11.6142C105.996 12.6258 105.996 12.6258 104.2 13.1822C94.7418 15.9894 82.4 15.9136 62.4711 12.9293C45.83 10.4255 38.4704 10.2991 32.7801 12.4235C31.2374 13.0052 30.9592 13.3087 31.465 13.8145C31.7685 14.1432 31.9707 14.118 32.957 13.688C37.7876 11.5636 45.5013 11.7154 62.3952 14.2697C83.3864 17.4563 94.6406 17.5322 104.63 14.5226C107.438 13.6627 107.665 13.6627 110.321 14.6238C120.412 18.1897 132.93 16.7229 161.281 8.65521C173.092 5.26628 177.619 4.12821 182.651 3.19247C200.101 -0.0194328 215.403 2.48432 220.461 9.36334C221.548 10.8555 221.573 10.729 220.283 11.1337C213.582 13.1316 210.674 18.3415 215.479 19.7577C219.297 20.8705 223.849 16.7735 223.293 12.6511C223.142 11.513 222.99 11.5889 226.152 11.0325C235.306 9.38862 242.641 9.84385 259.535 13.0558C282.752 17.4563 295.092 17.5827 317.071 13.5363C321.371 12.7523 321.496 12.7017 321.496 12.2465C321.496 11.5889 320.839 11.5889 316.261 12.3729C294.637 16.0906 282.373 15.9642 261.002 11.8924C247.521 9.31275 243.83 8.85752 236.52 8.85752C230.856 8.85752 226.049 9.36334 223.09 10.2738C222.787 10.3497 222.459 10.0462 222.004 9.28747C218.513 3.29362 206.805 -0.272337 193.273 0.536958ZM111.965 3.77413C115.404 5.34215 114.317 8.55404 109.461 11.1084C107.337 12.2465 105.768 11.5889 104.529 9.03457C102.734 5.31687 107.69 1.80148 111.965 3.77413ZM221.928 12.7017C222.787 15.9642 217.73 19.9348 215.075 18.0633C213.379 16.8746 215.427 14.5732 219.828 12.7523C221.573 12.0188 221.751 12.0188 221.928 12.7017Z" fill="black"/>
<path d="M10.8809 12.9039C6.40448 15.2812 6.15157 20.9463 9.64166 38.7507C13.5617 58.6291 14.1181 72.0837 11.0326 72.0837C6.45505 72.0837 2.53504 77.6728 4.48239 81.4411C6.3539 85.0577 10.7797 81.8205 12.7018 75.4473C13.4099 73.07 15.2056 73.6516 18.5945 77.4199C25.9034 85.4876 25.3471 96.7165 16.2425 123.929C2.93968 163.661 1.80161 184.601 12.1454 198.461C13.1317 199.775 13.1317 199.775 11.6396 201.369C2.58561 211.029 -1.41028 229.821 1.59928 248.409C2.73735 255.566 4.73531 262.269 10.3498 278.075C20.3902 306.35 22.3122 322.636 17.3553 337.937C16.3436 341.048 16.4701 340.921 15.2814 339.885C9.2876 334.624 0.233596 339.455 1.8269 347.067C3.19258 353.694 10.5774 352.909 15.2309 345.652C16.9 343.045 16.7483 343.072 17.7346 345.069C21.7052 353.163 20.4154 361.862 11.4373 387.33C-1.6632 424.531 -1.89081 444.486 10.6027 456.272C12.6259 458.143 12.6259 458.143 12.019 459.281C7.54256 468.032 6.20215 481.993 9.03468 490.767C10.021 493.829 12.1454 497.975 12.7018 497.975C13.5111 497.975 13.4605 497.622 12.3477 495.371C7.51725 485.76 7.82074 471.268 13.0812 460.242C13.764 458.825 13.764 458.825 15.3826 459.432C20.1119 461.204 24.5125 458.776 23.2985 455.032C22.0087 450.935 17.6082 451.314 14.0675 455.842C13.2835 456.853 13.2835 456.853 12.0948 455.866C3.77427 449.065 0.840567 433.029 4.60885 414.771C6.12628 407.36 6.70797 405.514 15.5849 379.49C22.1857 360.117 22.7927 349.57 17.7093 342.389C17.4564 342.034 17.4817 341.706 17.8611 340.745C24.0573 324.912 22.287 307.488 11.3108 276.684C6.30331 262.597 4.22949 255.668 3.11671 249.117C-0.0698907 230.376 3.57194 212.294 12.5754 202.406C13.9916 200.838 13.9916 200.838 15.4332 202C20.2889 205.946 26.4599 205.642 27.2691 201.42C28.205 196.412 21.3511 194.413 15.6608 198.03C14.1181 199.017 14.2192 199.041 13.0306 197.323C3.44549 183.64 4.53298 163.711 16.8747 126.458C23.9307 105.164 25.0688 100.156 24.7653 91.5827C24.4618 82.4275 20.8959 75.6497 14.9274 72.8929C13.8905 72.4377 13.4858 72.1089 13.5617 71.8307C15.155 66.3934 14.1939 54.3802 10.8303 37.9415C7.46669 21.452 7.6943 15.8628 11.8419 13.8396C12.5501 13.5108 12.9547 13.1568 12.9041 12.9039C12.7777 12.3475 11.9431 12.3475 10.8809 12.9039ZM11.6902 73.677C11.6902 75.2955 9.64166 79.4433 8.25068 80.6572C5.16524 83.3886 4.20421 78.0521 7.23907 75.0173C8.52889 73.7529 11.6902 72.7918 11.6902 73.677ZM24.5125 198.182C26.5358 199.648 26.4345 201.951 24.3355 203.038C21.4776 204.531 13.5364 200.889 16.116 199.296C19.1003 197.448 22.8433 196.944 24.5125 198.182ZM12.803 339.885C15.7114 341.3 15.9643 341.832 14.725 343.931C10.4257 351.315 3.49606 352.529 3.14201 345.955C2.81322 340.417 7.669 337.355 12.803 339.885ZM20.7948 453.844C23.7538 455.362 21.6041 459.129 18.0381 458.7C14.7503 458.321 14.2698 457.663 15.8631 455.817C17.6335 453.793 19.3532 453.11 20.7948 453.844Z" fill="black"/>
<path d="M339.883 12.5748C339.477 12.9541 339.78 13.3335 340.818 13.8393C344.966 15.8625 345.194 21.4771 341.829 37.9412C338.466 54.3799 337.504 66.393 339.097 71.8304C339.173 72.1086 338.769 72.4373 337.732 72.8926C331.764 75.6494 328.198 82.4272 327.895 91.5824C327.592 100.156 328.73 105.163 335.786 126.458C348.126 163.711 349.215 183.64 339.629 197.323C338.441 199.041 338.542 199.016 337 198.03C331.309 194.413 324.454 196.412 325.391 201.42C326.199 205.642 332.371 205.945 337.227 202C340.918 198.992 348.329 213.457 350.226 227.368C352.071 240.822 349.974 252.455 341.349 276.684C330.372 307.488 328.603 324.912 334.799 340.744C335.179 341.706 335.203 342.034 334.951 342.389C329.868 349.57 330.475 360.116 337.075 379.49C345.952 405.514 346.533 407.36 348.05 414.77C351.819 433.029 348.885 449.064 340.566 455.866C339.376 456.852 339.376 456.852 338.593 455.841C335.052 451.314 330.651 450.934 329.361 455.031C328.147 458.776 332.548 461.204 337.277 459.432C338.896 458.825 338.896 458.825 339.579 460.242C344.839 471.268 345.143 485.759 340.311 495.37C339.2 497.622 339.149 497.975 339.959 497.975C340.514 497.975 342.639 493.828 343.625 490.767C346.457 481.992 345.118 468.032 340.641 459.28C340.034 458.142 340.034 458.142 342.056 456.272C354.551 444.485 354.323 424.531 341.222 387.329C332.244 361.861 330.955 353.163 334.925 345.069C335.911 343.072 335.759 343.045 337.428 345.651C342.083 352.908 349.467 353.694 350.833 347.066C352.426 339.455 343.373 334.623 337.379 339.885C336.19 340.921 336.317 341.048 335.304 337.937C330.348 322.636 332.269 306.35 342.311 278.075C347.925 262.269 349.922 255.565 351.06 248.409C354.071 229.82 350.074 211.029 341.021 201.368C339.528 199.775 339.528 199.775 340.514 198.461C350.858 184.601 349.719 163.66 336.417 123.929C327.313 96.7162 326.757 85.4872 334.065 77.4196C337.455 73.6513 339.249 73.0697 339.959 75.447C341.88 81.8202 346.305 85.0574 348.177 81.4408C350.125 77.6725 346.205 72.0834 341.628 72.0834C338.542 72.0834 339.097 58.6287 343.018 38.7504C346.129 22.9439 346.229 17.6582 343.473 14.3451C342.386 13.03 340.387 12.0437 339.883 12.5748ZM344.132 74.1065C346.104 75.0676 347.495 77.5966 347.216 79.7464C346.736 83.3376 343.346 81.0108 341.601 75.877C340.641 73.0191 341.146 72.665 344.132 74.1065ZM333.889 198.005C337.151 199.244 337.631 199.775 336.442 200.837C332.927 203.973 328.047 204.403 326.909 201.697C325.644 198.637 329.792 196.461 333.889 198.005ZM346.205 339.606C350.985 342.059 350.581 350.28 345.649 350.28C342.386 350.28 335.835 343.273 337.479 341.503C339.629 339.202 343.65 338.316 346.205 339.606ZM334.572 453.996C335.634 454.5 337.935 456.852 337.935 457.41C337.935 458.927 332.269 459.079 331.106 457.586C329.285 455.259 331.789 452.655 334.572 453.996Z" fill="black"/>
<path d="M215.15 491.677C210.775 493.297 213.785 498.329 220.283 500.251C221.573 500.657 221.548 500.529 220.461 502.022C215.403 508.9 200.101 511.404 182.651 508.192C177.619 507.257 173.092 506.119 161.281 502.73C132.93 494.663 120.412 493.195 110.321 496.761C107.665 497.722 107.438 497.722 104.63 496.863C94.6406 493.853 83.3864 493.929 62.3952 497.115C45.5013 499.67 37.7876 499.822 32.957 497.698C31.9707 497.267 31.7685 497.242 31.465 497.57C30.9592 498.077 31.2374 498.38 32.7801 498.961C38.4704 501.085 45.83 500.96 62.4711 498.456C82.4 495.471 94.7418 495.395 104.2 498.202C105.996 498.76 105.996 498.76 104.883 499.771C100.483 503.817 103.239 509.355 109.663 509.355C116.593 509.355 117.301 502.806 110.751 499.367C109.107 498.481 109.107 498.456 111.459 497.722C121.297 494.712 133.74 496.256 160.143 503.792C178.833 509.128 184.574 510.342 193.552 510.848C206.854 511.631 218.538 508.041 222.004 502.123C222.459 501.339 222.787 501.036 223.09 501.112C226.049 502.022 230.856 502.527 236.52 502.527C243.83 502.527 247.521 502.072 261.002 499.492C282.373 495.421 294.637 495.294 316.261 499.012C320.839 499.795 321.496 499.795 321.496 499.139C321.496 498.684 321.371 498.633 317.071 497.849C295.092 493.802 282.752 493.929 259.535 498.329C242.641 501.54 235.306 501.996 226.152 500.353C223.015 499.795 223.242 499.974 223.242 498.05C223.218 493.828 218.766 490.363 215.15 491.677ZM218.993 493.449C220.941 494.384 222.383 496.963 221.928 498.709C221.524 500.302 214.517 496.256 214.517 494.409C214.517 492.942 216.869 492.411 218.993 493.449ZM109.461 500.277C115.632 503.513 115.303 508.547 108.93 508.041C104.15 507.637 102.557 503.892 105.819 500.706C107.286 499.264 107.539 499.24 109.461 500.277Z" fill="black"/>
</svg>
