<svg width="362" height="517" viewBox="0 0 362 517" fill="none" xmlns="http://www.w3.org/2000/svg">
<path d="M182.017 19.8413C182.422 19.3861 184.066 17.9445 185.659 16.6041C192.538 10.8632 195.017 7.5754 195.017 4.16119C195.017 -1.02337 188.138 -0.871628 182.801 4.43937C180.854 6.41203 180.854 6.41203 178.881 4.43937C173.57 -0.871628 166.691 -1.02337 166.691 4.16119C166.691 7.5754 169.17 10.8632 176.049 16.6041C177.642 17.9445 179.286 19.3861 179.691 19.8413C180.121 20.2713 180.626 20.6252 180.854 20.6252C181.082 20.6252 181.587 20.2713 182.017 19.8413ZM176.453 14.1762C169.195 8.13179 166.868 4.46467 169.145 2.66904C171.092 1.12632 177.87 4.61642 180.019 8.28353C180.576 9.19399 181.132 9.19399 181.689 8.28353C185.533 1.73329 195.724 0.165282 192.589 6.58907C191.627 8.53643 182.296 17.5146 180.905 17.8181C180.854 17.8433 178.856 16.1994 176.453 14.1762Z" fill="black"/>
<path d="M131.853 7.21657C123.38 7.31772 113.138 7.52005 109.091 7.6718C98.9748 8.05115 87.4929 8.00057 74.9489 7.57062C55.0199 6.86249 37.8223 7.1407 37.696 8.12703C37.5443 9.11336 38.1512 9.13864 52.8197 9.29038C60.6851 9.36625 69.6631 9.56858 72.7991 9.74561C80.0828 10.1503 105.753 10.1503 114.402 9.7709C118.019 9.59387 129.45 9.34097 139.819 9.18923C159.798 8.91103 160.38 8.88574 160.507 8.02585C160.658 6.93837 158.306 6.86249 131.853 7.21657Z" fill="black"/>
<path d="M202.663 7.06481C202.537 7.11538 202.082 7.21656 201.703 7.29243C200.614 7.54533 200.842 8.50637 202.031 8.73398C202.511 8.83514 211.388 9.03747 221.758 9.18921C232.127 9.34096 243.557 9.59386 247.175 9.77088C255.824 10.1502 281.493 10.1502 288.777 9.7456C291.914 9.56857 300.892 9.36624 308.758 9.29037C323.425 9.13863 324.032 9.11334 323.881 8.12701C323.754 7.14068 306.557 6.86248 286.628 7.57061C273.174 8.05114 264.069 8.05114 248.034 7.59591C236.148 7.24184 203.22 6.86248 202.663 7.06481Z" fill="black"/>
<path d="M31.2435 8.35427C31.1424 8.45543 31.0665 8.73363 31.0665 8.96124C31.0665 10.9339 27.2477 15.5368 24.4405 16.953C21.4813 18.4452 21.3802 18.4452 20.8743 16.7507C19.5845 12.3502 14.2989 10.3269 11.2135 13.033C8.00156 15.8655 11.2135 20.4938 16.8785 21.2525C18.396 21.4547 18.3707 21.3029 17.3591 23.1745C15.9428 25.8552 13.5402 27.6257 10.0754 28.5614C7.39459 29.2949 7.06582 30.2053 9.31668 30.6858C13.4896 31.571 18.7247 27.8785 20.5963 22.7445C21.1526 21.2271 21.1526 21.2271 22.9483 20.5442C28.2593 18.5969 32.4574 13.8676 32.4574 9.84641C32.4574 8.35427 31.9263 7.69671 31.2435 8.35427ZM16.0439 14.8033C18.0419 15.7644 19.2052 18.5716 17.612 18.5716C15.1841 18.5716 12.2504 16.8772 12.4021 15.5621C12.5539 14.2975 14.2736 13.9182 16.0439 14.8033Z" fill="black"/>
<path d="M329.092 8.58263C327.775 11.9968 332.885 18.4206 338.625 20.545C340.421 21.2278 340.421 21.2278 340.977 22.7452C342.849 27.8793 348.084 31.5717 352.257 30.6865C354.509 30.2061 354.179 29.2956 351.499 28.5621C348.033 27.6264 345.632 25.856 344.215 23.1752C343.204 21.3037 343.177 21.4554 344.695 21.2532C350.36 20.4945 353.572 15.8663 350.36 13.0338C347.274 10.3277 341.99 12.3509 340.7 16.7515C340.27 18.2689 340.27 18.2689 339.359 17.9401C335.338 16.5239 331.948 13.2361 330.71 9.59424C330.279 8.27914 329.42 7.72276 329.092 8.58263ZM348.843 14.7788C350.36 16.018 347.073 18.5724 343.963 18.5724C343.128 18.5724 343.101 18.5471 343.253 17.7884C343.784 15.1582 347.123 13.3625 348.843 14.7788Z" fill="black"/>
<path d="M6.07786 35.1879C5.7238 35.8707 5.7238 59.5426 6.05257 105.318C6.30547 138.146 6.30547 149.4 6.05257 161.21C5.34444 193.556 5.29386 245.858 5.95142 246.11C6.98831 246.514 7.24123 239.409 7.54472 202.687C7.67116 187.74 7.89877 168.089 8.07582 159.061C8.30343 146.517 8.30343 137.539 8.07582 121.251C7.89877 109.491 7.72174 85.4148 7.62059 67.762C7.46885 34.2016 7.49413 34.7579 6.5078 34.7579C6.38134 34.7579 6.20431 34.9603 6.07786 35.1879Z" fill="black"/>
<path d="M354.481 35.1883C354.128 35.5929 354.077 39.4876 353.95 67.7624C353.85 85.415 353.673 109.492 353.495 121.252C353.267 137.539 353.267 146.517 353.495 159.061C353.673 168.09 353.901 187.74 354.026 202.688C354.33 239.41 354.584 246.515 355.619 246.111C356.278 245.859 356.226 193.557 355.519 161.211C355.267 149.4 355.267 138.146 355.519 105.319C355.974 45.4562 355.898 34.7583 355.064 34.7583C354.963 34.7583 354.684 34.9607 354.481 35.1883Z" fill="black"/>
<path d="M2.71753 249.197C-0.595522 250.259 -0.595522 253.749 2.71753 257.061C3.98206 258.326 3.98206 258.326 2.71753 259.591C-3.73155 266.04 3.37509 270.845 10.1529 264.623C14.9328 260.248 15.5651 258.503 13.3648 255.57C9.77358 250.815 5.55008 248.286 2.71753 249.197ZM5.75239 251.245C7.37099 252.004 8.61022 253.066 11.0128 255.822C13.1625 258.326 13.1625 258.326 11.1393 260.678C7.26982 265.155 4.36142 266.799 2.51522 265.509C0.997779 264.447 3.8556 259.819 6.46054 259.109C7.47215 258.833 7.47215 257.82 6.46054 257.543C4.76606 257.088 2.36348 254.305 2.08527 252.459C1.80708 250.839 3.55212 250.259 5.75239 251.245Z" fill="black"/>
<path d="M356.153 249.197C352.941 250.005 346.695 256.05 346.695 258.326C346.695 259.261 349.148 262.551 351.424 264.624C358.201 270.845 365.308 266.041 358.859 259.592C357.594 258.326 357.594 258.326 358.859 257.061C363.057 252.864 361.339 247.881 356.153 249.197ZM359.062 251.143C360.58 252.205 357.721 256.834 355.117 257.543C354.586 257.668 354.408 257.896 354.408 258.326C354.408 258.757 354.586 258.985 355.117 259.11C357.721 259.819 360.58 264.447 359.062 265.51C357.215 266.799 354.307 265.155 350.438 260.678C348.414 258.326 348.414 258.326 350.565 255.823C354.408 251.422 357.215 249.853 359.062 251.143Z" fill="black"/>
<path d="M5.60371 270.768C5.32553 271.248 5.47727 317.405 5.85663 339.76C6.21069 362.118 6.23599 383.917 5.95779 440.038C5.73017 484.371 5.67959 482.729 6.9694 481.564C7.44993 481.135 7.47522 480.325 7.62696 448.939C7.70283 431.261 7.90516 407.161 8.08219 395.401C8.3098 379.113 8.3098 370.135 8.08219 357.59C7.90516 348.537 7.67755 328.911 7.55109 313.964C7.2476 279.114 6.9947 270.465 6.1854 270.465C5.98307 270.465 5.73017 270.617 5.60371 270.768Z" fill="black"/>
<path d="M354.912 270.769C354.608 271.68 354.229 289.585 354.026 313.965C353.901 328.911 353.673 348.538 353.495 357.591C353.267 370.136 353.267 379.114 353.495 395.401C353.673 407.162 353.874 431.262 353.95 448.94C354.102 480.326 354.128 481.136 354.608 481.565C355.949 482.805 356.025 478.05 355.519 411.334C355.267 378.507 355.267 367.253 355.519 355.442C355.873 339.433 356.302 273.804 356.075 271.807C355.923 270.618 355.215 269.935 354.912 270.769Z" fill="black"/>
<path d="M9.13991 485.965C7.09138 486.447 7.49604 487.382 10.0757 488.09C13.5405 489.027 15.9431 490.796 17.3593 493.476C18.3709 495.349 18.3962 495.197 16.8788 495.4C11.2137 496.159 8.00184 500.787 11.2137 503.619C14.2992 506.325 19.5849 504.301 20.8747 499.901C21.3047 498.384 21.3047 498.383 22.2151 498.712C26.2363 500.129 29.6253 503.391 30.8645 507.058C31.5473 509.057 32.4578 508.905 32.4578 506.805C32.4578 502.784 28.2596 498.055 22.9486 496.107C21.1529 495.425 21.1529 495.424 20.5966 493.907C18.6997 488.748 13.3381 485.03 9.13991 485.965ZM18.3204 498.863C17.7893 501.494 14.4256 503.29 12.7059 501.849C11.239 500.635 14.4762 498.105 17.5111 498.08C18.4721 498.08 18.4721 498.08 18.3204 498.863Z" fill="black"/>
<path d="M349.523 485.964C346.008 486.647 342.415 489.986 340.974 493.906C340.418 495.424 340.418 495.424 338.622 496.107C333.311 498.055 329.113 502.783 329.113 506.804C329.113 508.904 330.024 509.056 330.707 507.057C331.945 503.39 335.335 500.128 339.356 498.711C340.266 498.383 340.266 498.383 340.697 499.9C341.987 504.301 347.271 506.325 350.357 503.618C353.569 500.786 350.357 496.158 344.692 495.399C343.174 495.196 343.201 495.348 344.212 493.476C345.629 490.796 348.03 489.026 351.495 488.089C354.403 487.306 353.772 485.257 350.788 485.712C350.685 485.737 350.13 485.839 349.523 485.964ZM346.133 498.459C348.461 499.166 349.927 500.987 348.865 501.848C347.146 503.29 343.781 501.493 343.25 498.863C343.049 497.927 343.884 497.8 346.133 498.459Z" fill="black"/>
<path d="M179.745 496.841C179.341 497.297 177.697 498.738 176.104 500.077C169.225 505.819 166.746 509.106 166.746 512.52C166.746 517.706 173.625 517.554 178.961 512.243C180.909 510.271 180.909 510.271 182.881 512.243C188.193 517.554 195.071 517.706 195.071 512.52C195.071 509.106 192.594 505.819 185.714 500.077C184.121 498.738 182.477 497.297 182.072 496.841C181.642 496.411 181.136 496.056 180.909 496.056C180.681 496.056 180.175 496.411 179.745 496.841ZM185.309 502.505C192.567 508.55 194.894 512.217 192.618 514.013C190.67 515.555 183.893 512.065 181.743 508.399C181.187 507.488 180.631 507.488 180.074 508.399C176.23 514.948 166.038 516.517 169.174 510.092C170.135 508.146 179.467 499.167 180.858 498.863C180.909 498.839 182.907 500.483 185.309 502.505Z" fill="black"/>
<path d="M78.3616 506.678C75.3774 506.805 69.7629 507.008 65.8934 507.16C62.024 507.312 54.2851 507.437 48.6706 507.437C37.9221 507.437 37.4668 507.488 37.6945 508.602C37.8714 509.512 55.7012 509.764 74.9474 509.082C88.3514 508.626 97.7847 508.602 113.262 509.057C140.981 509.892 160.657 509.689 160.505 508.626C160.379 507.767 159.848 507.741 139.438 507.437C128.867 507.285 117.84 507.058 114.906 506.932C107.168 506.578 84.6841 506.426 78.3616 506.678Z" fill="black"/>
<path d="M253.753 506.678C243.434 507.057 228.057 507.412 215.563 507.563C201.906 507.74 201.198 507.791 201.071 508.626C200.919 509.688 220.57 509.891 248.314 509.056C263.792 508.601 273.225 508.626 286.63 509.081C306.559 509.788 323.755 509.511 323.882 508.525C324.034 507.563 323.403 507.512 308.38 507.336C300.311 507.26 291.713 507.084 289.285 506.932C283.064 506.602 260.099 506.425 253.753 506.678Z" fill="black"/>
</svg>
