<svg width="372" height="517" viewBox="0 0 372 517" fill="none" xmlns="http://www.w3.org/2000/svg">
<path d="M126.256 0.563304C106.402 2.56126 97.4496 11.4129 97.4496 28.9646C97.4748 50.0062 116.291 68.5695 133.033 64.0424C138.825 62.4744 143.099 59.9454 154.328 51.4984C156.705 49.7279 160.398 47.0979 162.547 45.6563C177.798 35.5654 182.729 32.5558 182.451 33.5421C182.35 33.7949 181.945 35.4389 181.515 37.1839C177.393 53.7239 170.16 73.2735 165.633 80.0513C159.437 89.3583 146.766 96.9707 132.325 100.081C130.024 100.587 130.024 100.587 130.353 98.7916C133.666 80.6835 119.073 67.836 108.35 79.4191C99.0177 89.4846 104.582 104.76 118.163 106.455C120.565 106.733 120.54 106.733 119.655 108.048C113.711 116.672 101.243 121.502 84.0203 121.831C66.1653 122.185 56.2261 117.709 44.3396 103.951C40.0907 99.0444 40.1918 99.3227 42.114 97.6535C56.302 85.413 65.2801 62.702 61.2589 49.1968C54.9363 27.8769 30.7586 46.3644 29.8481 73.2481C29.5698 81.2905 30.5309 85.6658 34.4763 94.5175C34.7039 94.998 28.0272 99.3985 27.0915 99.3985C26.965 99.3985 26.4845 98.2098 26.0293 96.7683C22.362 85.2864 15.2302 81.5435 10.9561 88.8272C6.02445 97.2741 12.7517 107.593 22.7162 106.885C24.9164 106.707 24.9164 106.707 25.0934 111.462C25.8775 130.936 22.8931 157.263 18.0374 173.5C17.7087 174.638 17.7087 174.638 15.9636 174.79C4.55758 175.801 -4.52169 196.134 4.15294 201.244C9.41336 204.328 17.7339 196.54 21.9575 184.552C22.4127 183.262 22.5138 183.338 23.2725 185.563C25.4223 191.861 26.2569 200.637 25.751 211.132C25.2706 220.54 24.6888 225.345 21.7046 244.946C18.7709 264.039 15.2049 292.087 13.991 305.643C11.9677 327.771 12.6253 342.187 16.6212 363.609C18.4421 373.497 19.732 383.057 19.2767 383.613C19.2514 383.639 18.6191 383.36 17.8604 382.981C7.56716 377.721 -3.56066 397.624 4.91166 406.122C10.6273 411.812 19.2767 408.07 22.2103 398.586C22.6403 397.194 22.6403 397.194 23.0449 399.09C26.1052 413.153 24.8658 427.366 18.3662 452.455C10.7538 481.917 12.3471 500.227 23.1966 507.587C31.9725 513.556 40.4953 513.859 57.9712 508.876C72.5385 504.73 79.8981 503.592 87.8646 504.248C93.5295 504.73 96.8174 505.438 109.817 509.104C141.379 517.981 149.978 518.715 169.047 514.187C171.93 513.505 174.864 512.873 175.521 512.772C177.974 512.442 179.29 511.911 179.188 511.304C178.961 509.738 174.99 509.787 167.201 511.483C148.764 515.477 139.407 514.542 108.299 505.64C86.1195 499.292 78.6082 498.761 60.6267 502.251C58.4769 502.681 54.6581 503.414 52.1543 503.895C33.8945 507.41 23.8036 503.11 21.3253 490.77C19.0238 479.438 19.4537 469.07 22.969 451.241C28.6342 422.358 29.0894 407.918 24.7899 393.628C24.1325 391.479 24.1071 391.124 24.0819 385.181C24.0312 377.418 23.7531 375.09 21.0976 360.775C18.872 348.89 18.5432 344.994 18.5179 332.323C18.5179 315.48 19.1502 309.941 26.2569 263.155C30.4298 235.69 31.2644 229.089 31.8208 219.529C32.7564 202.989 29.9492 186.929 24.8912 180.075C24.0566 178.937 24.0566 178.937 24.7899 176.661C27.1674 169.276 29.2411 158.983 30.2781 149.6C31.4162 139.358 30.3033 114.193 28.3559 106.328C28.2296 105.873 28.4318 105.721 29.8229 105.215C31.8714 104.482 33.9199 103.445 36.4489 101.877C38.2951 100.739 38.4722 100.688 38.7503 101.093C39.7873 102.56 41.7347 104.887 43.9854 107.416C55.2398 119.96 65.6088 124.942 83.2616 126.232C104.506 127.774 120.995 120.82 127.646 107.492C127.95 106.859 128.253 106.328 128.279 106.278C128.304 106.227 129.67 105.923 131.288 105.595C148.157 102.105 162.041 93.5564 169.528 82.0746C175.698 72.6159 183.083 49.6268 185.258 33.1375C185.435 31.8729 185.511 31.7464 186.067 31.7464C186.624 31.7464 186.7 31.8729 186.877 33.1375C189.052 49.6268 196.437 72.6159 202.607 82.0746C210.094 93.5564 223.979 102.105 240.847 105.595C242.465 105.923 243.83 106.227 243.857 106.278C243.882 106.328 244.185 106.859 244.489 107.492C251.141 120.82 267.629 127.774 288.873 126.232C306.527 124.942 316.895 119.96 328.15 107.416C330.4 104.887 332.348 102.56 333.385 101.093C333.662 100.688 333.841 100.739 335.686 101.877C338.215 103.445 340.263 104.482 342.312 105.215C343.704 105.721 343.905 105.873 343.78 106.328C341.832 114.193 340.718 139.358 341.856 149.6C342.894 158.983 344.967 169.276 347.346 176.661C348.078 178.937 348.078 178.937 347.243 180.075C342.186 186.929 339.379 202.989 340.314 219.529C340.87 229.089 341.705 235.69 345.878 263.155C352.985 309.941 353.616 315.48 353.616 332.323C353.592 344.994 353.264 348.89 351.037 360.775C348.381 375.09 348.104 377.418 348.053 385.181C348.028 391.124 348.002 391.479 347.346 393.628C343.046 407.918 343.501 422.358 349.167 451.241C352.681 469.07 353.112 479.438 350.809 490.77C348.332 503.11 338.241 507.41 319.981 503.895C317.477 503.414 313.659 502.681 311.508 502.251C293.526 498.761 286.015 499.292 263.836 505.64C232.728 514.542 223.372 515.477 204.935 511.483C197.145 509.787 193.175 509.738 192.947 511.304C192.845 511.911 194.161 512.442 196.614 512.772C197.272 512.873 200.204 513.505 203.087 514.187C222.158 518.715 230.756 517.956 262.318 509.104C286.117 502.403 291.352 502.378 314.163 508.876C331.64 513.859 340.163 513.556 348.939 507.587C359.789 500.227 361.382 481.917 353.768 452.455C347.27 427.366 346.029 413.153 349.091 399.09C349.495 397.194 349.495 397.194 349.925 398.586C352.858 408.07 361.507 411.812 367.224 406.122C375.695 397.624 364.568 377.721 354.275 382.981C353.516 383.36 352.884 383.639 352.858 383.613C352.402 383.057 353.692 373.497 355.513 363.609C359.51 342.187 360.168 327.771 358.144 305.643C356.93 292.087 353.364 264.039 350.43 244.946C346.636 220.06 345.802 210.853 346.384 200.51C346.966 190.747 349.14 181.593 350.178 184.552C354.402 196.54 362.721 204.328 367.983 201.244C376.657 196.134 367.577 175.801 356.171 174.79C354.426 174.638 354.426 174.638 354.098 173.5C349.242 157.263 346.257 130.936 347.042 111.462C347.219 106.707 347.219 106.707 349.419 106.885C359.383 107.593 366.111 97.2741 361.179 88.8272C356.905 81.5435 349.774 85.2864 346.105 96.7683C345.65 98.2098 345.17 99.3985 345.043 99.3985C344.108 99.3985 337.431 94.998 337.659 94.5175C341.604 85.6658 342.566 81.2905 342.287 73.2481C341.376 46.3644 317.198 27.8769 310.876 49.1968C306.855 62.702 315.832 85.413 330.02 97.6535C331.944 99.3227 332.044 99.0444 327.795 103.951C315.908 117.709 305.969 122.185 288.115 121.831C270.892 121.502 258.424 116.672 252.48 108.048C251.596 106.733 251.569 106.733 253.972 106.455C267.553 104.76 273.117 89.4846 263.785 79.4191C253.062 67.836 238.47 80.6835 241.782 98.7916C242.112 100.587 242.112 100.587 239.809 100.081C225.369 96.9707 212.698 89.3583 206.502 80.0513C201.976 73.2735 194.742 53.7239 190.62 37.1839C190.19 35.4389 189.785 33.7949 189.684 33.5421C189.406 32.5558 194.337 35.5654 209.588 45.6563C211.737 47.0979 215.454 49.7279 217.806 51.4984C235.94 65.1299 243.806 67.5073 254.327 62.4743C277.593 51.3467 282.273 14.119 261.584 4.68566C243.882 -3.38201 225.117 -0.220701 208.728 13.5879C203.797 17.7608 202.556 18.6713 200.356 19.7335C197.397 21.175 192.389 23.0212 192.389 22.6672C192.389 20.0876 185.536 18.2161 182.35 19.9104C181.313 20.4922 179.745 22.1361 179.745 22.6672C179.745 23.0212 174.737 21.175 171.778 19.7335C169.578 18.6713 168.339 17.7608 163.407 13.5879C151.521 3.57287 139.23 -0.751801 126.256 0.563304ZM130.175 10.1231C139.659 11.3118 147.221 14.119 163.18 22.4649C167.15 24.5386 171.905 26.2837 175.041 26.8402C176.761 27.1182 176.761 27.1182 174.839 28.1046C173.776 28.6357 171.298 30.1026 169.325 31.3925C145.603 46.7185 143.681 47.7301 133.312 50.3097C112.042 55.6207 104.43 52.333 102.862 37.1587C100.687 15.9905 109.235 7.54349 130.175 10.1231ZM253.77 10.1484C265.126 11.6911 269.526 17.6597 269.526 31.5188C269.526 51.5743 262.091 56.1266 238.823 50.3097C228.455 47.7301 226.532 46.7185 202.81 31.3925C200.838 30.1026 198.359 28.6357 197.296 28.1046C195.375 27.1182 195.375 27.1182 197.094 26.8402C200.231 26.2837 204.984 24.5386 208.956 22.4649C229.821 11.5647 241.226 8.42864 253.77 10.1484ZM52.3061 44.4169C60.6519 48.6153 52.6348 76.4347 39.0538 90.4709C36.2972 93.3288 36.6259 93.3288 35.3867 90.4709C31.1886 80.9111 31.1886 69.4799 35.3361 59.2625C39.5344 49.0199 47.5262 42.0145 52.3061 44.4169ZM325.292 44.8976C337.81 50.9167 343.753 74.5127 336.748 90.4709C335.51 93.3288 335.838 93.3288 333.082 90.4709C315.984 72.8183 309.966 37.5381 325.292 44.8976ZM118.593 81.7457C123.271 83.1368 125.547 92.7471 123.044 100.612C122.462 102.459 115.001 100.789 112.371 98.2352C106.478 92.5195 111.359 79.5709 118.593 81.7457ZM257.614 82.2009C262.849 84.8564 264.088 94.0369 259.763 98.2352C257.134 100.789 249.672 102.459 249.092 100.612C245.651 89.8387 250.811 78.7108 257.614 82.2009ZM18.2903 87.8913C20.617 89.257 22.7414 93.3541 23.829 98.6146C24.2588 100.739 24.2588 100.739 22.6403 101.144C18.9479 102.029 15.6095 101.169 13.9404 98.9181C10.0203 93.5817 13.384 85.0082 18.2903 87.8913ZM358.044 88.473C363.631 94.2899 357.689 103.116 349.495 101.144C347.877 100.739 347.877 100.739 348.305 98.6146C350.178 89.6364 354.654 84.9577 358.044 88.473ZM16.6212 178.077C16.6212 180.429 10.3997 193.302 8.02239 195.857C3.04016 201.193 2.20558 191.33 7.03606 183.869C9.36279 180.252 16.6212 175.877 16.6212 178.077ZM359.485 178.811C365.301 181.719 370.056 191.481 367.931 196.185C366.135 200.131 361.306 193.885 356.803 181.795C355.058 177.116 355.388 176.762 359.485 178.811ZM16.3177 385.308C19.5802 386.699 20.01 391.327 17.481 398.332C13.5104 409.409 2.6861 405.464 5.61979 394.034C7.31426 387.406 12.0689 383.537 16.3177 385.308ZM360.775 385.585C366.389 388.368 369.018 399.597 364.948 403.442C359.686 408.449 352.985 400.456 352.985 389.127C352.985 385.737 357.209 383.816 360.775 385.585Z" fill="black"/>
</svg>
