<svg width="362" height="525" viewBox="0 0 362 525" fill="none" xmlns="http://www.w3.org/2000/svg">
<path d="M200.837 524.5C212.496 523.817 224.357 521.717 242.896 517.089C276.481 508.668 284.826 508.112 308.954 512.512C325.797 515.598 334.852 515.067 343.703 510.54C348.357 508.163 350 505.204 345.575 507.15C336.142 511.323 326.531 511.374 311.609 507.328C285.688 500.272 276.101 500.5 240.417 508.971C216.645 514.637 207.995 516.054 194.059 516.685C178.911 517.343 166.341 515.724 143.681 510.212C127.394 506.24 122.791 505.28 115.229 504.191C107.187 503.053 104.961 502.901 94.6174 502.901C82.8825 502.901 80.3535 503.104 61.7396 505.557C33.8189 509.225 22.514 508.212 13.2072 501.207C3.64736 494 3.21744 484.844 11.2092 458.771C17.0513 439.676 18.24 433.278 18.24 420.835C18.24 409.075 17.5066 404.75 12.2714 385.631C4.93718 358.745 4.50725 348.605 9.61593 320.406C14.7499 291.954 15.1798 283.936 12.929 255.687C10.5517 225.39 10.9057 215.703 15.458 190.793C20.5414 163.073 20.4655 154.5 14.9269 134.546C9.71708 115.755 8.9078 110.722 8.9078 96.7365C8.8825 86.6204 8.98367 85.3052 10.9057 69.6756C12.6508 55.5635 12.8278 53.3128 12.9796 43.1712C13.1566 30.5259 12.7267 25.9484 11.4621 27.0358C10.9057 27.4911 10.8046 28.705 10.3999 40.2123C9.91941 54.3244 9.71708 56.6257 7.26391 75.2397C4.25433 98.1022 4.15318 110.419 6.88455 128.855C10.2482 151.617 10.2482 156.017 6.98571 179.057C3.31859 205.005 3.39446 213.554 7.61798 245.065C12.1197 278.676 11.9932 288.564 6.70753 317.775C1.34593 347.34 1.29535 356.141 6.2523 383.658C11.8415 414.638 11.6139 423.767 4.48195 453.712C2.2058 463.296 1.11832 468.607 0.536636 473.186C-2.70054 497.97 10.2735 510.868 38.4218 510.868C45.5538 510.868 48.3104 510.64 65.0275 508.743C95.9831 505.177 108.527 506.342 141.405 515.799C168.617 523.614 182.148 525.587 200.837 524.5Z" fill="black"/>
<path d="M349.877 497.92C350.305 497.338 350.408 496.023 350.787 484.946C351.292 470.682 351.495 468.406 353.947 449.791C356.958 426.929 357.058 414.613 354.327 396.177C350.964 373.415 350.964 369.015 354.226 345.974C357.893 320.026 357.817 311.477 353.595 279.966C349.092 246.355 349.219 236.467 354.505 207.257C359.865 177.691 359.916 168.89 354.96 141.374C349.37 110.393 349.598 101.263 356.73 71.3194C359.006 61.7344 360.093 56.4234 360.675 51.8457C363.913 27.0611 350.939 14.1629 322.791 14.1629C315.659 14.1629 312.901 14.3905 296.184 16.2873C265.229 19.8533 252.685 18.6899 219.806 9.23123C179.089 -2.47826 160.931 -2.70588 118.316 7.94142C84.7306 16.3632 76.3847 16.9196 52.2576 12.519C35.4141 9.43356 26.3602 9.96466 17.5084 14.4917C12.8549 16.869 11.2111 19.8279 15.6369 17.8806C25.0703 13.7077 34.6806 13.6571 49.6021 17.7036C75.5249 24.7596 85.1099 24.532 120.795 16.0597C144.568 10.3946 153.217 8.97833 167.152 8.34608C182.301 7.68852 194.871 9.30711 217.53 14.8204C233.818 18.791 238.422 19.752 245.982 20.8397C254.025 21.9777 256.251 22.1295 266.595 22.1295C278.33 22.1295 280.858 21.9271 299.472 19.474C327.392 15.8068 338.697 16.8184 348.005 23.8239C357.564 31.0317 357.995 40.1869 350.002 66.2613C344.16 85.3557 342.972 91.7541 342.972 104.197C342.972 115.957 343.705 120.282 348.94 139.401C356.275 166.285 356.705 176.427 351.595 204.626C346.463 233.077 346.032 241.095 348.284 269.344C350.66 299.641 350.305 309.328 345.753 334.239C340.67 361.958 340.746 370.532 346.284 390.486C351.495 409.276 352.305 414.31 352.305 428.295C352.329 438.41 352.229 439.727 350.305 455.356C348.56 469.468 348.384 471.718 348.232 481.86C348.029 494.809 348.536 499.589 349.877 497.92Z" fill="black"/>
</svg>
