<svg width="366" height="502" viewBox="0 0 366 502" fill="none" xmlns="http://www.w3.org/2000/svg">
<path d="M160.043 0.637857C150.736 2.98988 149.168 12.3474 156.603 21.1737C160.068 25.2708 167.377 31.2142 175.318 36.348C178.378 38.3207 178.505 38.093 173.27 39.6611C154.555 45.3263 130.048 43.126 101.723 33.2627C71.7031 22.7924 62.4974 21.0978 49.751 23.6775C29.8726 27.6986 21.0209 45.5032 29.3163 64.7998C30.2014 66.899 30.2014 66.899 28.5576 68.6693C18.239 79.5948 12.7004 97.5511 13.3074 117.986C13.6109 128.203 14.5972 135.841 18.1379 155.416C24.6123 191.304 25.118 201.671 21.9061 234.448C19.2001 262.293 18.3149 266.82 15.887 265.531C7.79403 261.231 -0.0965934 266.896 0.358635 276.684C0.839154 286.522 11.8911 286.572 17.6068 276.735C18.8966 274.508 18.8207 274.508 19.8828 276.532C22.5131 281.564 23.6512 287.179 23.6764 295.524C23.727 305.084 22.9431 309.891 18.239 329.97C17.1515 334.674 15.2294 343.047 13.9902 348.559C12.7257 354.097 10.7277 362.95 9.53908 368.236C4.27866 391.477 3.26705 401.341 3.24174 430.071C3.21646 453.212 4.80976 460.824 12.0681 471.952C13.4844 474.126 13.4844 474.126 12.3716 476.326C8.98269 482.927 8.12282 492.766 10.3737 499.367C10.7783 500.556 12.1946 501.667 12.1946 500.808C12.1946 500.757 12.2958 500.125 12.4222 499.442C12.5739 498.735 12.8521 495.573 13.0798 492.438C13.5856 484.976 14.319 481.385 15.8364 478.401C16.2664 477.591 16.2664 477.591 18.062 479.261C26.5343 487.278 36.3976 487.935 39.9383 480.702C44.7687 470.839 27.9252 462.594 17.7585 469.853C15.8617 471.194 10.5254 460.42 8.78036 451.695C6.02371 437.986 6.63068 404.021 9.94374 384.801C11.2083 377.416 17.0251 351.669 21.9314 331.691C23.5247 325.217 25.118 318.616 25.4721 317.023C30.2014 295.93 28.9115 280.098 21.7037 270.665C20.8439 269.527 20.8439 269.527 21.3244 267.655C22.6648 262.496 23.3225 257.64 24.9662 240.645C27.47 215 27.6217 212.749 27.6217 201.95C27.6217 186.194 26.7367 178.481 21.6785 149.675C14.7236 109.893 17.1515 88.3454 30.4544 72.5135C32.5534 70.0097 31.997 70.0097 34.6525 72.6904C43.6812 81.8457 56.7564 81.9974 58.4762 72.9687C60.2465 63.5859 46.7668 57.6174 36.0182 63.0043C33.3121 64.37 33.6156 64.4711 32.427 61.6639C27.116 49.0185 31.6936 34.9823 42.7201 30.0761C55.5678 24.3351 67.0749 25.7008 98.0559 36.7274C132.628 49.044 160.7 50.7384 181.085 41.7855C183.158 40.8498 183.158 40.8498 185.257 41.7855C205.616 50.7384 233.689 49.044 268.261 36.7274C299.242 25.7008 310.749 24.3351 323.596 30.0761C334.622 34.9823 339.201 49.0185 333.89 61.6639C332.701 64.4711 333.004 64.37 330.298 63.0043C319.551 57.6174 306.07 63.5859 307.84 72.9687C309.56 81.9974 322.635 81.8457 331.663 72.6904C334.319 70.0097 333.763 70.0097 335.863 72.5135C349.165 88.3454 351.593 109.893 344.637 149.675C338.264 185.941 337.43 198.637 339.706 223.574C342.413 252.936 343.45 261.762 344.992 267.655C345.472 269.527 345.472 269.527 344.613 270.665C338.34 278.884 336.495 292.364 339.353 309.181C340.237 314.492 340.92 317.527 344.258 331.184C349.317 351.848 355.083 377.39 356.373 384.801C359.687 404.021 360.294 437.986 357.536 451.695C355.791 460.42 350.455 471.194 348.558 469.853C338.391 462.594 321.548 470.839 326.379 480.702C329.918 487.935 339.782 487.278 348.255 479.261C350.051 477.591 350.051 477.591 350.48 478.401C351.997 481.385 352.731 484.976 353.238 492.438C353.465 495.573 353.742 498.735 353.894 499.442C354.021 500.125 354.121 500.757 354.121 500.808C354.121 501.667 355.538 500.556 355.942 499.367C358.194 492.766 357.335 482.927 353.945 476.326C352.832 474.126 352.832 474.126 354.248 471.952C361.507 460.824 363.101 453.212 363.074 430.071C363.05 401.341 362.039 391.477 356.777 368.236C355.59 362.95 353.59 354.097 352.327 348.559C351.087 343.047 349.165 334.674 348.078 329.97C343.374 309.891 342.589 305.084 342.64 295.524C342.665 287.179 343.803 281.564 346.434 276.532C347.496 274.508 347.42 274.508 348.71 276.735C354.425 286.572 365.477 286.522 365.957 276.684C366.413 266.896 358.522 261.231 350.43 265.531C348.382 266.617 347.572 263.658 345.927 249.118C340.946 204.96 341.199 194.06 348.179 155.416C351.72 135.841 352.706 128.203 353.01 117.986C353.617 97.5511 348.078 79.5948 337.76 68.6693C336.115 66.899 336.115 66.899 337.001 64.7998C345.296 45.5032 336.443 27.6986 316.565 23.6775C303.819 21.0978 294.613 22.7924 264.593 33.2627C236.268 43.126 211.762 45.3263 193.046 39.6611C187.812 38.093 187.938 38.3207 190.998 36.348C198.94 31.2142 206.248 25.2708 209.713 21.1737C216.566 13.0302 216.087 5.3419 208.524 1.5989C201.823 -1.73946 187.938 3.11632 183.892 10.1977C183.158 11.4875 183.158 11.4875 182.425 10.1977C179.061 4.30498 166.618 -1.00603 160.043 0.637857ZM168.616 5.29131C173.902 7.06164 178.05 9.69186 180.705 12.9796C182.071 14.6741 182.248 14.8005 183.158 14.8005C184.069 14.8005 184.246 14.6741 185.612 12.9796C190.67 6.75815 201.95 2.53465 206.982 5.01311C213.558 8.2503 211.534 15.4581 201.874 23.2981C196.512 27.6482 184.448 35.5388 183.158 35.5388C181.16 35.5388 165.354 24.5627 160.776 19.9852C151.014 10.2988 155.971 1.0678 168.616 5.29131ZM46.9944 64.9011C55.8207 66.4944 57.0599 75.776 48.3601 75.169C44.2376 74.8907 35.9676 69.9086 35.9676 67.7336C35.9676 66.2161 43.5295 64.2687 46.9944 64.9011ZM324.406 65.0022C326.48 65.4574 330.349 67.2277 330.349 67.7336C330.349 68.2899 326.352 71.9824 324.71 72.9435C317.779 77.0405 310.268 75.2448 312.267 70.0097C313.784 66.0644 319.095 63.8894 324.406 65.0022ZM13.105 269.172C15.5582 270.438 15.8111 270.866 15.0018 272.46C11.183 280.022 4.45569 282.171 4.48099 275.849C4.53156 270.108 8.65392 266.896 13.105 269.172ZM358.421 268.969C362.266 270.942 363.328 279.263 359.736 279.542C356.121 279.819 349.19 272.207 351.365 270.362C353.59 268.514 356.424 267.958 358.421 268.969ZM29.9233 471.446C36.0435 473.267 38.1933 478.147 33.7927 480.298C30.5807 481.865 26.2056 480.272 21.4257 475.795C19.2253 473.747 19.1748 473.546 20.6163 472.635C23.0442 471.091 27.0147 470.587 29.9233 471.446ZM343.171 471.497C347.117 472.736 347.395 473.443 344.892 475.795C340.112 480.272 335.736 481.865 332.525 480.298C325.544 476.884 335.104 468.993 343.171 471.497Z" fill="black"/>
<path d="M344.307 15.8881C344.155 16.0651 344.003 16.8238 343.952 17.5825C343.876 18.9482 343.876 18.9482 342.865 17.6331C341.02 15.1799 340.033 16.2674 341.702 18.8976C342.713 20.491 342.713 20.491 341.524 20.7439C339.73 21.1232 339.806 21.983 341.676 22.0843C342.992 22.1602 342.992 22.1602 341.979 23.6522C340.286 26.1307 339.654 27.4712 339.982 27.8506C340.462 28.4321 340.665 28.2804 342.258 26.1055C344.18 23.5259 344.256 23.5005 344.282 25.4731C344.383 30.86 346.255 32.8327 346.279 27.5723C346.304 25.2962 346.304 25.2961 347.746 26.8895C349.163 28.4321 349.946 28.8115 350.225 28.0782C350.325 27.8758 349.593 26.5607 348.48 24.942C346.583 22.1854 346.583 22.1854 347.924 22.0084C350.705 21.6795 350.908 20.4404 348.201 20.3139C346.532 20.238 346.532 20.238 347.594 18.6447C348.504 17.2285 348.607 17.0009 348.252 16.6721C347.746 16.1663 347.29 16.3939 346.532 17.5067C345.9 18.4171 345.9 18.4171 345.724 17.2032C345.521 15.7363 344.889 15.1547 344.307 15.8881Z" fill="black"/>
<path d="M6.40279 203.695C6.25105 203.974 6.12461 204.733 6.12461 205.389C6.12461 206.603 6.12461 206.603 5.23943 205.744C3.69672 204.251 3.08975 205.34 4.37956 207.362C4.7842 208.045 5.11297 208.602 5.0624 208.652C5.01182 208.678 4.2531 208.879 3.34264 209.058C0.484816 209.665 0.889463 211.207 3.82316 210.903C5.46705 210.751 5.46705 210.751 4.98653 211.459C3.89903 213.128 3.54497 213.862 3.69672 214.217C3.94962 214.873 4.5313 214.621 5.5682 213.458C6.57983 212.32 6.57983 212.32 6.75686 213.938C7.06035 216.998 8.40075 217.252 8.40075 214.266C8.40075 212.724 8.40075 212.724 9.36178 213.659C10.3987 214.672 10.7275 214.773 11.1574 214.266C11.4103 213.938 10.9298 212.952 9.33649 210.524C8.88126 209.866 8.88126 209.866 9.66526 209.714C13.1554 209.006 14.2934 207.058 10.9298 207.514C9.21003 207.741 9.23534 207.792 10.0193 206.451C10.5252 205.592 10.601 205.264 10.3734 205.036C9.89288 204.555 9.74113 204.657 8.78011 206.047C7.89493 207.388 7.89493 207.388 7.86965 206.123C7.79378 203.595 7.08563 202.406 6.40279 203.695Z" fill="black"/>
<path d="M356.225 302.784C355.998 302.86 355.897 303.467 355.897 304.58C355.897 306.932 355.643 307.16 354.733 305.642C354.05 304.453 353.342 304.049 352.988 304.629C352.912 304.756 353.242 305.667 353.746 306.653C354.632 308.423 354.632 308.423 352.963 308.423C350.99 308.423 350.332 308.726 350.332 309.588C350.332 310.32 351.521 310.953 352.963 310.953C353.873 310.953 353.873 310.953 353.115 312.141C351.673 314.392 352.432 315.151 354.353 313.355C355.543 312.243 355.543 312.243 355.821 315.43C356.125 318.54 356.326 319.147 357.035 318.893C357.388 318.741 357.667 316.921 357.667 314.747C357.692 313.355 357.692 313.355 358.249 314.113C360.374 316.996 361.208 315.91 359.311 312.723C358.173 310.826 358.173 310.826 360.07 310.498C365.558 309.588 366.265 307.539 360.929 307.994C359.209 308.146 359.209 308.146 359.968 307.084C361.436 305.06 360.195 304.022 358.426 305.767C357.363 306.805 357.464 306.957 357.085 303.264C357.035 302.733 356.732 302.581 356.225 302.784Z" fill="black"/>
</svg>
