<svg width="376" height="520" viewBox="0 0 376 520" fill="none" xmlns="http://www.w3.org/2000/svg">
<path d="M155.995 1.1601C150.28 2.60166 148.181 6.01588 149.951 10.8969C153.568 20.7856 161.509 25.6414 175.52 26.5012C182.601 26.9312 166.643 28.221 154.149 28.221C136.244 28.221 126.886 26.5012 92.5417 16.9667C78.0502 12.9202 71.07 11.3269 61.8389 9.98648C59.4869 9.63241 55.9464 9.07602 53.999 8.72195C39.204 6.14232 25.8 8.97487 15.5068 16.8655C6.90806 23.4663 5.59296 35.3275 12.4973 43.901C13.256 44.8369 13.256 44.8369 12.1938 45.8484C9.31067 48.5798 5.92173 55.7624 4.60663 62.0091C2.05229 73.8702 4.30315 89.1963 11.5362 109.403C23.2962 142.281 26.053 152.928 29.0625 176.929C30.6812 189.878 30.3018 203.181 27.7981 220.049C27.6715 220.96 27.3428 223.236 27.0646 225.108C26.5082 229.154 24.4091 237.93 23.0434 242.179C22.4871 243.848 21.7536 246.174 21.3994 247.363C20.742 249.615 19.0474 253.306 17.5301 255.785C16.6449 257.226 16.6449 257.226 15.3551 255.885C9.91764 250.347 2.65926 251.132 0.636022 257.505C-2.2218 266.559 8.70369 272.907 17.353 267.217C18.7693 266.306 19.9327 268.076 21.5007 273.438C21.8042 274.474 22.4871 276.674 23.0182 278.343C24.4091 282.592 26.5082 291.344 27.0646 295.414C27.3428 297.287 27.6715 299.563 27.7981 300.473C30.3018 317.341 30.6812 330.645 29.0625 343.593C26.053 367.595 23.2962 378.241 11.5362 411.118C4.30315 431.327 2.05229 446.653 4.60663 458.513C5.92173 464.76 9.31067 471.943 12.1938 474.674C13.256 475.685 13.256 475.685 12.4973 476.622C5.59296 485.196 6.90806 497.056 15.5068 503.657C25.8 511.548 39.204 514.38 53.999 511.8C55.9464 511.447 59.4869 510.889 61.8389 510.537C71.0448 509.196 78.025 507.602 92.5417 503.581C126.911 494.021 136.041 492.328 153.896 492.301C166.592 492.301 182.753 493.566 175.52 494.021C161.509 494.881 153.568 499.736 149.951 509.626C146.385 519.438 159.916 523.105 172.611 515.721C178.656 512.231 182.905 507.551 185.889 501.204C187.457 497.84 187.862 497.84 189.43 501.204C192.415 507.551 196.663 512.231 202.707 515.721C215.404 523.105 228.933 519.438 225.367 509.626C221.75 499.736 213.81 494.881 199.799 494.021C192.718 493.591 208.676 492.301 221.17 492.301C239.076 492.301 248.432 494.021 282.778 503.556C297.269 507.602 304.249 509.196 313.479 510.537C315.857 510.889 319.372 511.447 321.32 511.8C336.115 514.38 349.518 511.548 359.812 503.657C368.41 497.056 369.726 485.196 362.822 476.622C362.063 475.685 362.063 475.685 363.125 474.674C366.009 471.943 369.396 464.76 370.713 458.513C373.266 446.653 371.016 431.327 363.782 411.118C352.022 378.241 349.266 367.595 346.255 343.593C344.637 330.645 345.017 317.341 347.521 300.473C347.648 299.563 347.976 297.287 348.255 295.414C348.81 291.344 350.91 282.592 352.3 278.343C352.832 276.674 353.514 274.474 353.818 273.438C355.387 268.076 356.549 266.306 357.966 267.217C366.616 272.907 377.541 266.559 374.683 257.505C372.659 251.132 365.402 250.347 359.963 255.885C358.674 257.226 358.674 257.226 357.788 255.785C356.27 253.306 354.577 249.615 353.918 247.363C353.566 246.174 352.832 243.848 352.276 242.179C350.91 237.93 348.81 229.154 348.255 225.108C347.976 223.236 347.648 220.96 347.521 220.049C345.017 203.181 344.637 189.878 346.255 176.929C349.266 152.928 352.022 142.281 363.782 109.403C371.016 89.1963 373.266 73.8702 370.713 62.0091C369.396 55.7624 366.009 48.5798 363.125 45.8484C362.063 44.8369 362.063 44.8369 362.822 43.901C369.726 35.3275 368.41 23.4663 359.812 16.8655C349.518 8.97487 336.115 6.14232 321.32 8.72195C319.372 9.07602 315.857 9.63241 313.479 9.98648C304.249 11.3269 297.269 12.9202 282.778 16.9667C248.432 26.5012 239.076 28.221 221.17 28.221C208.676 28.221 192.718 26.9312 199.799 26.5012C213.81 25.6414 221.75 20.7856 225.367 10.8969C228.933 1.08423 215.404 -2.5829 202.707 4.80194C196.663 8.29203 192.415 12.9708 189.43 19.3187C188.443 21.443 188.216 21.7465 187.659 21.7465C187.103 21.7465 186.875 21.443 185.889 19.3187C180.3 7.38157 165.909 -1.36896 155.995 1.1601ZM161.357 3.56269C170.689 5.38361 177.695 10.1129 181.741 17.3713C183.006 19.6475 182.601 19.698 180.628 17.5483C177.897 14.5641 173.37 11.5292 168.438 9.37951C166.972 8.74725 165.505 8.03911 165.151 7.81149C163.861 6.95162 158.626 5.73768 155.92 5.68709C154.529 5.63652 153.29 5.61122 153.188 5.58594C151.898 5.53535 154.655 3.96735 156.957 3.43625C158.601 3.08218 158.929 3.08218 161.357 3.56269ZM218.236 3.43625C220.663 3.94205 223.495 5.51006 222.105 5.58594C222.004 5.61122 220.79 5.63652 219.398 5.68709C216.693 5.73768 211.458 6.95162 210.168 7.81149C209.814 8.03911 208.348 8.74725 206.879 9.37951C201.948 11.5292 197.422 14.5641 194.691 17.5483C192.718 19.698 192.312 19.6475 193.577 17.3713C197.295 10.7199 207.007 3.86618 212.797 3.81561C213.076 3.81561 213.911 3.63856 214.594 3.46153C216.238 3.00631 216.086 3.00631 218.236 3.43625ZM157.538 8.79782C166.112 11.251 176.886 16.7643 181.337 20.9626C182.728 22.2776 182.728 22.2776 181.463 22.1513C170.968 20.9374 158.171 15.4492 154.68 10.6946C152.43 7.55859 152.683 7.40685 157.538 8.79782ZM221.902 8.67138C218.867 14.6399 206.223 20.7097 193.856 22.1513C192.591 22.2776 192.591 22.2776 193.981 20.9626C198.812 16.4103 211.862 9.9612 219.652 8.29203C222.384 7.68505 222.408 7.71034 221.902 8.67138ZM51.5963 11.7821C56.9073 12.5408 60.3974 13.5524 75.7489 18.8634C79.6435 20.2039 84.3223 21.7465 86.1178 22.2776C87.9387 22.8087 91.4036 23.8963 93.8315 24.6803C117.933 32.4444 127.367 34.1136 149.597 34.5688C155.035 34.6953 158.297 34.6447 160.219 34.4425C166.213 33.7849 176.329 31.8629 178.403 31.0028C180.679 30.0419 173.041 38.6913 169.627 40.9168C165.024 43.9264 161.939 43.9264 152.961 40.9674C144.59 38.1854 141.201 38.1854 135.409 40.9674C129.542 43.7747 128.631 47.0876 132.602 51.2353C134.777 53.5115 136.143 52.6769 137.559 48.2004C139.607 41.802 144.16 40.8661 151.646 45.3173C160.168 50.426 165.075 51.0583 170.689 47.7704C174.887 45.3173 183.132 34.9229 185.509 29.0808C186.192 27.4117 186.218 27.4117 186.926 27.6899C187.457 27.8669 187.862 27.8669 188.393 27.6899C189.101 27.4117 189.126 27.4117 189.808 29.0808C192.187 34.9229 200.43 45.3173 204.63 47.7704C210.244 51.0583 215.149 50.426 223.674 45.3173C231.158 40.8661 235.711 41.802 237.759 48.2004C239.176 52.6769 240.542 53.5115 242.717 51.2353C246.687 47.0876 245.777 43.7747 239.91 40.9674C234.117 38.1854 230.73 38.1854 222.357 40.9674C213.38 43.9264 210.294 43.9264 205.692 40.9168C202.278 38.6913 194.639 30.0419 196.916 31.0028C198.989 31.8629 209.106 33.7849 215.1 34.4425C217.022 34.6447 220.284 34.6953 225.722 34.5688C247.953 34.1136 257.385 32.4444 281.488 24.6803C283.916 23.8963 287.406 22.8087 289.2 22.2776C291.021 21.7465 295.676 20.2039 299.57 18.8634C318.968 12.1615 321.673 11.5292 331.563 11.2257C347.875 10.7705 360.773 19.7234 360.722 31.5087C360.722 34.5942 358.143 41.5238 357.156 41.0938C343.044 34.9988 326.404 46.2278 336.62 54.9782C341.4 59.0753 347.799 57.5326 356.676 50.1479C359.685 47.6441 360.874 48.8326 363.554 57.0015C367.526 69.1662 365.553 81.3563 355.512 106.368C351.087 117.395 346.534 130.723 345.903 134.441C345.827 134.846 345.421 137.122 344.992 139.499C343.854 145.746 342.765 160.465 343.296 162.463C343.551 163.424 342.944 185.73 342.589 189.701C339.706 219.797 339.933 223.843 345.599 244.328C346.382 247.187 347.065 249.766 347.141 250.07C347.672 252.801 350.935 260.11 352.579 262.259C353.818 263.852 353.818 263.852 353.084 264.914C343.752 278.622 340.971 286.892 340.743 301.484C340.616 310.539 340.565 309.678 342.589 330.822C342.944 334.792 343.551 357.098 343.296 358.06C342.765 360.057 343.854 374.776 344.992 381.024C345.421 383.376 345.827 385.652 345.903 386.081C346.534 389.799 351.087 403.127 355.512 414.153C365.553 439.166 367.526 451.357 363.554 463.521C360.874 471.69 359.685 472.878 356.676 470.374C347.799 462.99 341.4 461.448 336.62 465.545C326.404 474.295 343.044 485.524 357.156 479.429C358.143 478.999 360.722 485.928 360.722 489.014C360.773 500.799 347.875 509.751 331.563 509.296C321.673 508.993 318.968 508.361 299.57 501.66C295.676 500.319 291.021 498.777 289.2 498.245C287.406 497.714 283.916 496.626 281.488 495.842C257.385 488.079 247.953 486.41 225.722 485.954C220.284 485.827 217.022 485.878 215.1 486.079C209.106 486.738 198.989 488.659 196.916 489.52C194.639 490.48 202.278 481.831 205.692 479.606C210.294 476.596 213.38 476.596 222.357 479.555C230.73 482.337 234.117 482.337 239.91 479.555C245.777 476.747 246.687 473.436 242.717 469.287C240.542 467.011 239.176 467.846 237.759 472.322C235.711 478.72 231.158 479.657 223.674 475.205C215.149 470.097 210.244 469.464 204.63 472.753C200.43 475.205 192.187 485.6 189.808 491.442C189.126 493.111 189.101 493.111 188.393 492.832C187.862 492.656 187.457 492.656 186.926 492.832C186.218 493.111 186.192 493.111 185.509 491.442C183.132 485.6 174.887 475.205 170.689 472.753C165.075 469.464 160.168 470.097 151.646 475.205C144.16 479.657 139.607 478.72 137.559 472.322C136.143 467.846 134.777 467.011 132.602 469.287C128.631 473.436 129.542 476.747 135.409 479.555C141.201 482.337 144.59 482.337 152.961 479.555C161.939 476.596 165.024 476.596 169.627 479.606C173.041 481.831 180.679 490.48 178.403 489.52C176.329 488.659 166.213 486.738 160.219 486.079C158.297 485.878 155.035 485.827 149.597 485.954C127.367 486.41 117.933 488.079 93.8315 495.842C91.4036 496.626 87.9387 497.714 86.1178 498.245C84.3223 498.777 79.6435 500.319 75.7489 501.66C56.351 508.361 53.6448 508.993 43.7563 509.296C27.4439 509.751 14.5458 500.799 14.5964 489.014C14.5964 485.928 17.176 478.999 18.1623 479.429C32.2745 485.524 48.9156 474.295 38.6981 465.545C33.9182 461.448 27.5198 462.99 18.6429 470.374C15.6333 472.878 14.4446 471.69 11.7638 463.521C7.79324 451.357 9.7659 439.166 19.8061 414.153C24.2321 403.127 28.7844 389.799 29.4166 386.081C29.4925 385.652 29.8971 383.376 30.3271 381.024C31.4651 374.776 32.5526 360.057 32.0215 358.06C31.8193 357.276 32.3249 335.095 32.6032 332.212C34.5759 312.486 34.7276 310.336 34.5759 301.359C34.3482 286.892 31.5158 278.571 22.234 264.914C21.5007 263.852 21.5007 263.852 22.7399 262.259C24.3838 260.11 27.6463 252.801 28.1774 250.07C28.2533 249.766 28.9361 247.187 29.7201 244.328C33.2608 231.557 34.6517 223.084 34.6517 214.587C34.6517 210.237 34.1206 203.333 32.6032 188.31C32.3249 185.427 31.8193 163.247 32.0215 162.463C32.5526 160.465 31.4651 145.746 30.3271 139.499C29.8971 137.122 29.4925 134.846 29.4166 134.441C28.7844 130.723 24.2321 117.395 19.8061 106.368C9.7659 81.3563 7.79324 69.1662 11.7638 57.0015C14.4446 48.8326 15.6333 47.6441 18.6429 50.1479C27.5198 57.5326 33.9182 59.0753 38.6981 54.9782C48.9156 46.2278 32.2745 34.9988 18.1623 41.0938C17.8336 41.2455 17.6059 41.0179 17.1001 40.057C8.19788 22.48 25.7495 8.0897 51.5963 11.7821ZM156.173 14.6399C160.118 19.3187 170.259 23.7951 176.987 23.7951C177.771 23.7951 178.529 24.1744 177.998 24.3262C174.179 25.262 165.657 23.7446 161.989 21.4685C161.306 21.0385 160.093 20.305 159.309 19.8497C156.83 18.3829 153.922 14.7664 153.138 12.1615C152.935 11.4786 154.782 12.9961 156.173 14.6399ZM221.447 13.8053C220.309 16.1068 218.008 18.6611 216.011 19.8497C215.225 20.305 214.038 21.0385 213.329 21.4685C209.662 23.7446 201.14 25.262 197.346 24.3262C196.789 24.1744 197.547 23.7951 198.357 23.7951C200.709 23.7951 206.096 22.5307 209.662 21.1143C213.531 19.5969 215.555 18.1553 219.753 14.0077C222.536 11.251 222.712 11.2257 221.447 13.8053ZM71.0194 13.8306C76.4822 14.9181 82.6025 16.4356 91.8082 19.0152C127.67 29.1061 141.454 31.357 160.877 30.3706C168.97 29.9661 171.119 30.0672 168.438 30.6994C161.939 32.2422 155.97 32.6216 145.247 32.1663C125.9 31.3318 117.706 29.7637 94.0843 22.2776C90.5438 21.165 85.9409 19.7739 83.8417 19.2175C81.7679 18.6611 77.772 17.346 74.9901 16.3344C72.2081 15.2975 68.6928 14.0583 67.15 13.5777C63.8623 12.5155 64.6716 12.5661 71.0194 13.8306ZM308.168 13.5777C306.65 14.0835 303.111 15.2975 300.328 16.3344C297.546 17.346 293.576 18.6611 291.476 19.2175C289.403 19.7739 284.775 21.165 281.234 22.2776C257.613 29.7637 249.419 31.3318 230.071 32.1663C219.349 32.6216 213.38 32.2422 206.879 30.6994C204.199 30.0672 206.348 29.9661 214.442 30.3706C233.865 31.357 247.649 29.1061 283.51 19.0152C292.69 16.4356 298.811 14.9181 304.298 13.8306C311.43 12.3891 312.064 12.3638 308.168 13.5777ZM17.7324 18.1553C10.3982 27.6899 10.8534 37.3761 19.0728 47.9476C20.2614 49.465 19.0474 48.5292 17.4036 46.6578C12.1432 40.6639 8.4508 30.4465 10.5499 27.791C10.7016 27.614 10.8787 27.0323 10.9798 26.5264C11.4351 23.9974 13.9388 20.5832 17.0748 18.2565C18.3394 17.2954 18.39 17.2954 17.7324 18.1553ZM360.849 20.5832C362.518 22.2272 364.036 24.8068 364.339 26.5264C364.44 27.0323 364.616 27.614 364.768 27.791C366.868 30.4465 363.175 40.6639 357.915 46.6578C356.27 48.5292 355.057 49.465 356.246 47.9476C364.491 37.3508 364.92 27.791 357.56 18.1047C356.676 16.9414 358.774 18.5094 360.849 20.5832ZM180.35 33.1779C178.504 37.4015 172.106 44.1034 168.009 46.076C163.305 48.3522 160.978 48.1752 155.717 45.0897C152.404 43.1423 152.404 43.1423 155.92 44.0527C161.863 45.6208 162.04 45.646 163.861 45.2921C168.514 44.3816 173.927 40.2592 179.238 33.5825C180.78 31.6352 181.084 31.5339 180.35 33.1779ZM196.081 33.6079C201.392 40.2592 206.804 44.3816 211.458 45.2921C213.279 45.646 213.456 45.6208 219.398 44.0527C222.915 43.1423 222.915 43.1423 219.601 45.0897C214.341 48.1752 212.014 48.3522 207.31 46.076C203.264 44.1286 197.346 37.983 195.07 33.4055C194.033 31.3063 194.311 31.357 196.081 33.6079ZM32.7043 42.0801C36.1185 43.1677 38.4959 45.1404 39.3051 47.5176C39.8869 49.1616 39.811 49.2879 39.0016 48.1752C35.9163 43.9264 26.66 41.6249 20.919 43.6734C19.4522 44.2045 19.4522 44.2045 19.0981 43.6988C17.7577 41.7766 27.9244 40.5627 32.7043 42.0801ZM351.289 41.6249C355.639 42.2825 356.853 42.7883 356.221 43.6988C355.866 44.2045 355.866 44.2045 354.4 43.6734C348.659 41.6249 339.402 43.9264 336.316 48.1752C335.508 49.2879 335.432 49.1616 336.013 47.5176C337.557 42.9905 343.979 40.4868 351.289 41.6249ZM138.216 43.0918C137.002 44.3058 135.586 46.8095 134.398 49.7685C134.069 50.6283 132.931 49.6168 132.273 47.897C131.59 46.0508 134.043 43.4205 137.584 42.1814C139.557 41.4731 139.683 41.6503 138.216 43.0918ZM239 42.7125C241.907 44.154 243.628 46.3289 243.046 47.8717C242.387 49.6168 241.276 50.6283 240.921 49.7685C239.732 46.7841 238.317 44.3058 237.052 43.0664C235.458 41.4731 236.166 41.3468 239 42.7125ZM31.541 45.3932C35.4611 46.4302 38.7488 49.6926 38.3947 52.1458C38.167 53.8149 30.6558 53.2838 26.66 51.3364C24.1815 50.1225 20.0592 46.1267 20.6661 45.5197C21.3994 44.7862 28.9614 44.7104 31.541 45.3932ZM353.793 45.2415C356.726 45.8737 350.125 51.3871 344.941 52.6262C341.451 53.4608 337.075 53.208 336.923 52.171C336.216 47.2648 345.472 43.4712 353.793 45.2415ZM14.8746 46.6324C15.431 47.2393 15.431 47.2393 14.8999 47.72C10.3729 51.7412 6.75632 64.5635 7.81852 72.7322C8.95659 81.5333 12.7755 94.5325 18.137 108.012C21.9053 117.42 24.5356 124.982 26.5587 132.241C26.9635 133.657 27.3681 134.922 27.4187 135.048C28.0003 135.958 29.5177 148.148 29.8466 154.421C30.2512 162.008 30.1501 170.733 29.6949 167.066C29.5177 165.523 29.2396 163.601 29.0879 162.766C28.9614 161.932 28.5314 159.605 28.2026 157.582C26.3311 146.909 22.5629 134.365 13.5595 108.898C3.84792 81.4574 2.98805 66.6879 10.2211 51.7412C12.3202 47.3659 13.9388 45.6208 14.8746 46.6324ZM362.543 47.4924C372.406 59.3536 372.128 79.5354 361.76 108.898C352.756 134.365 348.987 146.909 347.117 157.582C346.787 159.605 346.358 161.932 346.231 162.766C346.079 163.601 345.8 165.523 345.624 167.066C345.169 170.733 345.068 162.008 345.472 154.421C345.8 148.148 347.318 135.958 347.9 135.048C347.951 134.922 348.355 133.657 348.759 132.241C350.783 124.982 353.414 117.42 357.181 108.012C362.543 94.5325 366.361 81.5333 367.499 72.7322C368.562 64.5635 364.946 51.7412 360.419 47.72C359.888 47.2393 359.888 47.2393 360.443 46.6324C361.177 45.8484 361.177 45.8484 362.543 47.4924ZM32.2491 211.021C32.7297 224.171 31.971 229.736 27.4439 246.098C23.0182 262.234 15.8862 269.721 7.38859 267.217C5.64355 266.686 5.71942 266.534 8.04613 266.003C19.705 263.372 27.5198 244 31.1616 208.617C31.6169 203.965 32.0215 204.85 32.2491 211.021ZM345.093 216.887C348.431 245.339 356.701 263.6 367.298 266.003C369.599 266.534 369.675 266.686 367.93 267.217C359.432 269.745 352.325 262.259 347.875 246.098C343.6 230.596 343.069 227.206 343.095 215.801C343.12 204.951 343.475 202.447 344.131 208.492C344.309 210.059 344.738 213.828 345.093 216.887ZM8.83015 256.695C12.826 257.934 14.6723 259.857 13.256 261.299C10.2464 264.41 4.75838 265.168 2.96274 262.714C0.130213 258.92 3.82263 255.127 8.83015 256.695ZM370.585 256.619C374.328 257.885 374.176 262.765 370.358 263.979C366.691 265.117 359.939 261.424 361.936 259.351C364.264 256.923 368.006 255.734 370.585 256.619ZM23.448 269.922C27.4692 276.27 30.1753 282.82 31.6927 289.851C32.4008 293.241 32.5526 314.206 31.8697 314.636C31.541 314.838 31.4399 314.409 31.1869 312.03C29.1131 293.165 27.9244 287.069 24.0297 275.36C21.526 267.797 21.3994 266.735 23.448 269.922ZM353.311 268.81C353.311 269.062 352.401 271.997 351.289 275.36C347.393 287.069 346.206 293.165 344.131 312.03C343.879 314.409 343.778 314.838 343.448 314.636C342.765 314.206 342.917 293.241 343.626 289.851C345.144 282.82 347.849 276.27 351.87 269.922C352.907 268.328 353.311 268 353.311 268.81ZM29.8466 365.596C29.6949 368.782 29.3914 372.779 29.189 374.423C28.7338 378.065 27.5957 385.197 27.4187 385.474C27.3428 385.601 26.9635 386.866 26.5587 388.281C24.5356 395.54 21.9053 403.103 18.137 412.511C11.2833 429.758 7.26214 445.16 7.66678 452.723C8.09672 460.435 10.9293 468.529 14.5964 472.474C15.431 473.36 15.431 473.36 14.7734 473.967C12.5226 476.116 6.55401 462.332 5.56768 452.747C4.60663 443.087 7.23685 429.479 13.5595 411.625C22.6893 385.777 26.5841 372.703 28.3292 362.181C28.6072 360.436 28.9614 358.49 29.0879 357.807C29.2142 357.149 29.4672 355.277 29.6442 353.634C30.1247 349.359 30.2512 357.477 29.8466 365.596ZM346.231 357.756C346.358 358.591 346.787 360.918 347.117 362.94C348.987 373.613 352.756 386.157 361.76 411.625C368.082 429.479 370.713 443.087 369.751 452.747C368.765 462.332 362.795 476.116 360.546 473.967C359.888 473.36 359.888 473.36 360.722 472.474C364.389 468.529 367.222 460.435 367.651 452.723C368.057 445.16 364.036 429.758 357.181 412.511C353.414 403.103 350.783 395.54 348.759 388.281C348.355 386.866 347.951 385.601 347.9 385.474C347.318 384.563 345.8 372.375 345.472 366.102C345.068 358.515 345.169 349.79 345.624 353.456C345.8 354.974 346.079 356.922 346.231 357.756ZM37.1807 467.593C39.0523 467.87 38.7236 470.071 36.4726 472.398C34.1459 474.775 31.364 475.609 26.053 475.56C19.7809 475.484 19.6039 475.306 22.6893 472.246C26.6093 468.352 31.5916 466.759 37.1807 467.593ZM344.941 467.897C350.151 469.16 356.676 474.598 353.793 475.306C346.054 477.178 336.24 473.157 336.923 468.377C337.075 467.315 341.426 467.062 344.941 467.897ZM135.763 473.688C136.572 475.408 137.255 476.47 138.267 477.457C139.633 478.822 139.633 478.822 138.672 478.644C135.08 477.988 131.514 474.649 132.273 472.65C132.931 470.905 134.043 469.894 134.398 470.753C134.524 471.057 135.131 472.373 135.763 473.688ZM242.566 471.488C243.88 473.915 242.691 476.015 239 477.809C236.648 478.923 235.331 479.05 236.572 477.988C237.835 476.899 239.277 474.674 240.289 472.195C241.149 470.097 241.731 469.919 242.566 471.488ZM39.3558 472.904C37.5601 478.316 28.8348 480.719 20.312 478.14C18.7693 477.684 18.6176 477.506 19.0981 476.823C19.4522 476.319 19.4522 476.319 20.919 476.85C26.8117 478.948 39.4569 475.382 39.4569 471.639C39.4569 471.487 39.5327 471.412 39.6086 471.512C39.6845 471.588 39.5834 472.222 39.3558 472.904ZM338.012 474.194C341.274 477.051 349.924 478.443 354.4 476.85C355.866 476.319 355.866 476.319 356.221 476.823C356.701 477.506 356.549 477.684 355.007 478.14C346.559 480.693 337.809 478.316 336.013 473.005C335.432 471.36 335.508 471.235 336.316 472.347C336.722 472.878 337.481 473.712 338.012 474.194ZM19.0222 472.626C10.8281 483.147 10.4235 492.756 17.7577 502.418C18.3394 503.177 18.3394 503.177 17.2013 502.343C14.04 500.04 11.4351 496.576 10.9798 493.997C10.8787 493.49 10.7016 492.908 10.5499 492.732C8.34962 489.949 12.6237 478.796 18.0612 473.132C19.6544 471.488 20.1096 471.235 19.0222 472.626ZM357.915 473.864C363.175 479.858 366.868 490.076 364.768 492.732C364.616 492.908 364.44 493.49 364.339 493.997C363.884 496.576 361.278 500.04 358.118 502.343C356.98 503.177 356.98 503.177 357.56 502.418C364.92 492.732 364.491 483.172 356.246 472.574C355.057 471.057 356.27 471.994 357.915 473.864ZM168.009 474.446C171.397 476.064 174.154 478.595 177.594 483.196C180.73 487.369 182.121 490.556 179.238 486.941C173.927 480.264 168.514 476.14 163.861 475.23C162.04 474.877 161.863 474.902 155.92 476.47C152.404 477.381 152.404 477.354 155.692 475.433C160.978 472.373 163.355 472.17 168.009 474.446ZM215.631 473.409C216.87 473.84 222.433 476.95 222.257 477.127C222.232 477.153 220.942 476.874 219.398 476.47C213.456 474.902 213.279 474.877 211.458 475.23C206.804 476.14 201.392 480.264 196.081 486.941C193.198 490.556 194.588 487.369 197.726 483.196C203.795 475.053 210.244 471.539 215.631 473.409ZM163.507 488.862C172.156 490.328 171.448 490.683 160.877 490.152C141.454 489.166 127.67 491.417 91.8082 501.508C82.6025 504.088 76.4822 505.605 71.0194 506.692C64.6716 507.957 63.8623 508.006 67.15 506.944C68.6928 506.464 72.2081 505.226 74.9901 504.188C77.772 503.177 81.7679 501.861 83.8417 501.305C85.9409 500.749 90.5438 499.357 94.0843 498.245C111.383 492.756 119.501 490.759 129.365 489.545C140.998 488.103 157.209 487.775 163.507 488.862ZM230.906 488.382C249.394 489.19 257.941 490.859 281.234 498.245C284.775 499.357 289.403 500.749 291.476 501.305C293.576 501.861 297.546 503.177 300.328 504.188C303.111 505.226 306.65 506.464 308.168 506.944C316.717 509.702 297.8 505.529 283.51 501.508C247.649 491.417 233.865 489.166 214.442 490.152C206.348 490.556 204.199 490.455 206.879 489.824C213.632 488.23 219.322 487.876 230.906 488.382ZM177.239 496.121C178.403 496.297 178.226 496.728 176.987 496.728C174.609 496.728 169.223 497.991 165.657 499.408C161.787 500.926 159.764 502.367 155.566 506.515C152.784 509.272 152.607 509.296 153.871 506.717C154.959 504.516 157.311 501.836 159.056 500.825C159.688 500.47 160.877 499.736 161.661 499.232C165.353 496.88 172.611 495.412 177.239 496.121ZM204.554 496.246C208.12 496.853 211.61 497.991 213.329 499.054C214.038 499.484 215.225 500.218 216.011 500.673C218.008 501.861 220.309 504.416 221.447 506.717C222.712 509.296 222.536 509.272 219.753 506.515C215.555 502.367 213.531 500.926 209.662 499.408C206.096 497.991 200.709 496.728 198.357 496.728C196.03 496.728 197.346 496.095 200.051 495.893C200.685 495.842 201.292 495.791 201.392 495.766C201.519 495.742 202.934 495.943 204.554 496.246ZM181.337 499.56C176.076 504.492 161.458 511.472 154.175 512.509C150.887 512.989 156.957 506.768 162.495 503.985C166.365 502.064 176.076 499.004 179.946 498.522C182.905 498.17 182.879 498.118 181.337 499.56ZM196.891 498.801C207.513 500.419 219.197 506.515 221.902 511.851C223.926 515.796 200.026 505.275 193.981 499.56C192.415 498.067 192.339 498.094 196.891 498.801ZM182.601 501.481C182.601 506.034 168.565 516.707 162.571 516.707C162.293 516.707 161.382 516.883 160.573 517.086C158.853 517.542 156.147 517.162 154.276 516.2C153.416 515.772 152.733 514.962 153.214 514.937C153.315 514.911 154.529 514.886 155.92 514.835C158.626 514.785 163.861 513.572 165.151 512.71C165.505 512.483 166.972 511.775 168.438 511.144C173.294 509.019 178.276 505.654 180.704 502.923C182.019 501.406 182.601 500.977 182.601 501.481ZM194.615 502.923C197.043 505.654 202.024 509.019 206.879 511.144C208.348 511.775 209.814 512.483 210.168 512.71C211.458 513.572 216.693 514.785 219.398 514.835C220.79 514.886 222.004 514.911 222.105 514.937C222.585 514.962 221.902 515.772 221.043 516.2C219.171 517.162 216.466 517.542 214.745 517.086C213.936 516.883 213.025 516.707 212.748 516.707C207.134 516.707 197.598 510.03 193.704 503.378C192.136 500.673 192.49 500.495 194.615 502.923Z" fill="black"/>
</svg>
