<svg width="360" height="517" viewBox="0 0 360 517" fill="none" xmlns="http://www.w3.org/2000/svg">
<path d="M314.924 0.703786C314.443 0.754366 312.8 0.931399 311.256 1.05785C309.739 1.2096 304.099 1.94302 298.737 2.70174C275.016 6.04009 269.198 6.11596 254.227 3.20754C242.164 0.88082 235.36 1.18431 208.957 5.23079C183.388 9.15082 174.283 9.37843 158.502 6.44473C138.75 2.8029 135.26 2.42354 122.463 2.65116C111.968 2.82818 107.921 3.28341 90.7994 6.14124C70.5921 9.50487 64.8513 9.58075 49.424 6.64706C34.8314 3.8651 23.5772 3.00523 14.852 4.06743C10.2744 4.59853 10.4008 5.81247 15.0037 5.38253C24.4877 4.49736 35.0338 5.28137 48.4631 7.88629C64.5731 10.997 70.8956 10.9717 90.7235 7.63339C119.909 2.72703 131.087 2.67644 155.467 7.38047C174.157 10.9717 182.553 10.8706 209.715 6.62176C234.777 2.70174 242.568 2.39825 254.986 4.85143C268.692 7.5828 275.623 7.45634 299.623 4.09271C313.103 2.22121 313.255 2.19592 320.108 2.19592C325.343 2.22121 327.113 2.32238 330.478 2.8029C337.862 3.8651 348.181 3.81451 348.181 2.70174C348.181 2.22121 347.953 2.19592 341.352 2.04418C336.369 1.91773 333.462 1.71541 330.603 1.31076C326.885 0.779656 317.453 0.42559 314.924 0.703786Z" fill="black"/>
<path d="M1.93209 3.86512C1.45157 4.64912 0.566406 21.1639 0.566406 29.4591C0.566406 41.9527 1.32512 52.094 4.08178 76.6764C6.93961 102.068 7.11664 112.817 5.1187 139.144C3.04488 166.205 2.96901 168.279 2.96901 191.875C2.99429 217.013 3.50011 266.734 3.85417 276.345C4.00591 280.239 4.35998 288.206 4.63818 294.048C5.06811 302.748 5.21985 309.981 5.3716 334.134C5.52334 355.555 5.67508 365.494 5.97857 370.553C8.63407 417.29 8.68466 420.173 7.14194 468.552C6.712 482.463 6.15561 491.693 4.99224 504.491C4.20824 512.888 4.20824 512.937 4.8405 512.937C5.42218 512.937 5.44747 512.836 6.13031 505.983C7.54658 491.365 8.15356 480.894 8.78581 459.575C8.98814 452.543 9.29163 442.352 9.44337 436.94C9.8986 421.942 9.56983 410.006 8.0271 381.427C6.9902 362.055 6.88903 358.514 6.88903 336.283C6.88903 314.988 6.73728 307.932 6.00387 292.278C5.06811 272.273 4.8405 259.249 4.46114 201.612C4.25883 172.401 4.48644 165.294 6.38323 141.547C8.68466 112.639 8.53291 103.434 5.1187 72.5035C2.51378 48.8063 2.23558 44.431 2.23558 28.8774C2.23558 20.1017 2.36203 14.8159 2.66552 10.3142C2.89314 6.8747 3.01958 3.94099 2.94371 3.81453C2.76668 3.48576 2.15971 3.53635 1.93209 3.86512Z" fill="black"/>
<path d="M357.312 3.81453C357.236 3.94099 357.364 6.8747 357.591 10.3142C358.805 28.4221 358.173 44.9875 355.139 72.5035C351.724 103.434 351.573 112.639 353.873 141.547C355.77 165.294 355.998 172.401 355.795 201.612C355.416 259.249 355.188 272.273 354.253 292.278C353.519 307.932 353.367 314.988 353.367 336.283C353.367 358.514 353.266 362.055 352.229 381.427C350.687 410.006 350.359 421.942 350.814 436.94C350.966 442.352 351.269 452.543 351.47 459.575C352.104 480.894 352.711 491.365 354.126 505.983C354.809 512.836 354.835 512.937 355.416 512.937C356.049 512.937 356.049 512.888 355.264 504.491C353.773 488.002 353.494 482.311 352.457 446.929C352.001 431.906 352.077 410.689 352.608 401.026C353.898 376.547 354.38 367.871 354.505 366.253C354.581 365.215 354.759 350.927 354.86 334.514C355.036 310.159 355.188 302.724 355.618 294.048C355.897 288.206 356.25 280.239 356.402 276.345C356.757 266.734 357.263 217.038 357.288 191.875C357.288 168.279 357.212 166.205 355.139 139.144C353.139 112.817 353.318 102.068 356.174 76.6764C358.932 52.094 359.691 41.9527 359.691 29.4591C359.691 21.1639 358.805 4.64912 358.325 3.86512C358.098 3.53635 357.491 3.48576 357.312 3.81453Z" fill="black"/>
<path d="M61.513 507.019C57.9975 507.425 53.9258 508.081 48.4631 509.143C35.0591 511.75 24.5129 512.533 15.0037 511.647C10.4008 511.218 10.2744 512.432 14.852 512.963C23.5772 514.026 34.8314 513.165 49.424 510.384C64.8513 507.45 70.5921 507.525 90.7994 510.888C107.921 513.747 111.968 514.202 122.463 514.378C135.26 514.606 138.75 514.227 158.502 510.585C174.283 507.652 183.388 507.88 208.957 511.799C235.36 515.847 242.164 516.15 254.227 513.823C269.198 510.915 274.989 510.991 298.737 514.329C312.572 516.275 313.331 516.351 320.235 516.326C325.395 516.326 327.14 516.226 330.603 515.72C333.765 515.264 336.396 515.088 341.479 514.985C347.953 514.834 348.181 514.809 348.181 514.329C348.181 513.216 337.862 513.165 330.478 514.227C327.113 514.709 325.343 514.809 320.108 514.834C313.255 514.834 313.103 514.809 299.623 512.937C275.851 509.599 268.794 509.473 255.617 512.053C242.416 514.633 235.108 514.378 209.715 510.409C182.553 506.16 174.157 506.059 155.467 509.65C131.087 514.354 119.909 514.303 90.7235 509.398C77.8506 507.222 67.2286 506.363 61.513 507.019Z" fill="black"/>
</svg>
