<svg width="363" height="520" viewBox="0 0 363 520" fill="none" xmlns="http://www.w3.org/2000/svg">
<path d="M7.61724 1.62762C-0.779213 5.82584 2.25565 18.7999 12.4983 22.4922C13.5605 22.8716 14.041 23.175 14.0916 23.5292C14.2181 24.4396 13.1559 30.6611 11.6384 37.5654C9.15995 48.9968 8.83118 51.2729 8.83118 57.5702C8.83118 62.6789 9.0588 64.7022 10.2222 70.5189C13.0041 84.2516 12.9788 89.1328 9.96925 120.594C8.5277 135.642 8.47711 136.755 8.47711 144.367C8.47711 150.007 8.60357 153.396 9.08408 159.036C9.99454 169.557 9.99454 189.182 9.08408 204.685C7.71839 228.357 8.62885 255.418 10.7785 255.722C11.866 255.874 11.9672 255.039 11.512 249.5C10.4498 236.551 10.4751 225.726 11.6131 210.275C12.5489 197.705 12.8524 192.925 13.1306 187.614C13.4593 180.608 13.4593 165.181 13.1053 155.849C12.7765 147.276 12.9535 142.723 14.1422 127.422C16.5195 96.6945 16.4942 84.3275 13.9904 73.4274C10.298 57.2668 10.4751 52.4362 15.3814 35.7193C16.4942 31.9003 17.6828 27.7021 18.0116 26.3871C18.5933 23.9844 18.5933 23.9844 20.8694 23.8074C26.9139 23.3016 31.9214 21.7335 41.0766 17.4595C53.9748 11.4403 55.4416 10.9092 59.1593 10.8839C61.7895 10.8839 62.3459 11.0104 69.4019 13.1095C87.9904 18.6987 96.5891 19.0528 118.718 15.1327C136.801 11.9209 139.28 11.845 151.04 13.9947C163.963 16.372 187.382 17.3836 188.065 15.588C188.444 14.5764 185.966 14.1717 176.634 13.6153C163.306 12.8566 159.917 12.3002 150.256 9.16418C138.496 5.37061 134.626 5.44648 114.798 9.82174C93.1749 14.6016 85.436 14.7028 68.5167 10.4034C57.6418 7.64675 56.529 7.8238 42.0882 14.1717C31.8708 18.6734 27.5715 20.0643 22.2098 20.6208C18.9221 20.9495 19.2003 21.2278 19.605 18.2941C21.2487 6.12932 15.255 -2.19124 7.61724 1.62762ZM11.6131 7.21683C13.4593 8.48134 14.4457 11.9461 14.3445 16.8019C14.2686 20.0391 12.8271 20.115 9.46344 17.0043C5.03761 12.9325 6.98496 4.1061 11.6131 7.21683Z" fill="black"/>
<path d="M352.227 2.46175C349.091 3.57454 344.943 8.10153 344.943 10.3777C344.943 11.6422 335.662 10.2512 318.212 6.43235C302.33 2.94226 300.407 2.94226 285.536 6.65997C269.123 10.7317 267.454 10.8329 232.401 10.4535C223.196 10.3524 220.692 10.58 211.713 12.3503C204.607 13.7666 203.974 13.9942 204.405 15.107C204.632 15.6634 205.214 15.6381 211.688 14.6265C220.996 13.1596 224.131 12.9067 231.011 13.0585C237.46 13.1849 237.737 13.2355 247.702 15.1323C261.839 17.8131 269.35 17.5855 283.235 14.0195C285.942 13.3367 289.936 12.325 292.087 11.7687C302.43 9.11316 305.82 9.11316 319.526 11.8445C329.693 13.8678 337.508 14.7529 342.364 14.4242C344.439 14.2724 344.439 14.2724 344.439 15.0311C344.439 17.7625 345.829 21.8091 349.75 30.5595C358.828 50.8424 359.082 57.6456 351.571 82.1521C344.564 104.989 344.211 113.007 349.395 131.114C354.302 148.312 355.237 157.341 353.795 173.704C353.644 175.373 353.24 180.102 352.86 184.199C351.595 198.236 351.823 204.482 353.923 215.307C355.743 224.614 355.895 228.787 355.061 243.834C354.454 254.633 356.931 261.26 358.069 251.928C359.713 238.827 359.334 224.284 357.083 213.51C354.985 203.522 354.757 197.35 355.844 181.544C357.413 158.706 356.754 149.147 352.43 132.632C347.65 114.423 347.978 109.643 355.869 85.8192C365.1 57.8732 364.696 50.0078 352.86 26.6394C348.105 17.2314 347.195 13.7666 349.522 13.7413C351.975 13.7413 356.957 11.8192 358.702 10.2006C362.925 6.28061 358.02 0.387929 352.227 2.46175ZM356.679 5.67364C358.627 7.19107 356.603 9.01198 351.646 10.2259C348.484 10.9846 348.357 10.9341 349.016 9.61896C350.812 6.053 354.63 4.08034 356.679 5.67364Z" fill="black"/>
<path d="M9.6157 268.366C8.75581 269.959 8.14884 279.898 8.5535 285.488C8.73053 287.561 8.95814 291.431 9.0846 294.086C9.66627 305.493 10.3744 312.498 12.3724 326.331C14.5979 341.836 15.1796 356.934 14.2186 373.247C12.8276 396.109 13.1311 409.614 15.4072 428.633C18.4674 454.201 18.3915 471.045 15.1543 486.927C13.9151 492.945 14.2691 492.414 11.6389 492.541C4.70934 492.869 -0.7787 500.811 1.0928 507.843C3.2425 515.885 13.2069 509.713 16.1912 498.484C16.3683 497.828 16.6212 497.296 16.7223 497.296C17.8098 497.296 21.5021 500.659 24.1831 504.125C30.8091 512.622 37.4352 514.595 50.1311 511.864C67.7838 508.07 78.254 507.791 94.4653 510.699C111.815 513.81 132.755 513.861 129.67 510.802C128.962 510.092 125.37 509.713 116.696 509.436C107.035 509.132 105.011 508.929 94.8194 507.16C83.8939 505.263 83.8433 505.263 75.4722 505.263C67.1768 505.263 65.6594 505.388 54.658 506.932C36.8788 509.436 34.1222 508.878 27.6477 501.469C23.7531 497.018 20.7434 494.614 17.481 493.351C17.4558 493.325 17.7592 491.807 18.1639 489.937C21.1482 476.456 21.8311 456.73 19.9595 438.117C17.7592 416.29 17.6075 396.588 19.4537 377.04C21.9828 350.383 21.4517 338.167 17.0511 319.882C12.3976 300.562 9.96976 281.567 10.8296 271.072C11.0825 267.986 10.5009 266.723 9.6157 268.366ZM12.6253 496.538C12.6253 497.828 9.48924 504.225 8.32589 505.263C6.53025 506.906 6.25205 501.242 7.9971 498.611C9.10989 496.942 12.6253 495.373 12.6253 496.538Z" fill="black"/>
<path d="M354.985 270.035C354.454 271.4 354.276 275.828 354.53 280.404C355.186 292.089 354.251 300.182 349.75 321.147C348.181 328.431 347.22 338.118 347.22 346.564C347.22 352.989 347.398 356.327 348.536 370.843C349.42 382.3 349.572 391.784 349.143 407.893C348.864 418.491 349.598 427.975 351.772 441.504C353.947 455.161 351.267 468.894 343.149 485.764C338.57 495.273 337.66 497.7 336.977 502.353C336.852 503.239 336.852 503.239 332.88 503.163C323.295 502.96 309.766 504.301 294.109 507.033C281.162 509.284 276.507 509.512 264.647 508.474C247.221 506.957 234.222 507.716 213.029 511.56C196.539 514.544 193.883 514.493 183.211 510.927C169.731 506.426 164.243 506.071 150.865 508.878C146.034 509.916 145.225 510.295 146.287 511.105C146.92 511.585 148.791 511.509 154.76 510.699C159.742 510.043 167.379 510.092 170.693 510.826C175.27 511.837 182.832 514.443 184.375 515.506C191.658 520.714 204.96 521.069 223.17 516.541C239.281 512.547 248.183 511.712 261.612 512.875C273.827 513.937 279.745 513.609 295.502 510.953C317.706 507.209 336.852 506.223 337.61 508.753C339.936 516.668 350.357 521.979 355.793 518.009C361.535 513.861 354.909 506.374 343.604 504.174C340.215 503.518 340.695 501.443 347.447 487.482C356.906 467.934 358.6 455.415 355.692 426.254C354.427 413.686 354.276 406.175 355.061 396.767C355.717 389.153 355.034 368.947 353.669 354.531C353.113 348.638 352.834 343.302 352.633 335.311C352.405 325.724 352.557 324.234 355.061 310.398C357.386 297.5 357.842 293.858 357.842 287.333C357.842 282.277 357.261 274.386 356.703 271.704C356.502 270.718 356.324 269.858 356.324 269.782C356.324 269.504 355.086 269.731 354.985 270.035ZM346.081 509.36C353.365 511.636 356.427 516.416 349.471 514.644C346.309 513.836 342.415 510.472 342.415 508.55C342.415 508.322 343.654 508.601 346.081 509.36Z" fill="black"/>
</svg>
