<svg width="354" height="514" viewBox="0 0 354 514" fill="none" xmlns="http://www.w3.org/2000/svg">
<path d="M171.919 0.384804C167.316 0.738872 159.704 1.75049 150.599 3.24263C121.591 7.99725 106.417 8.37661 75.3094 5.01296C50.7271 2.35746 42.7099 2.58507 29.9889 6.32808C3.40857 14.0923 -5.67072 31.5933 4.04083 56.2516C4.44547 57.2885 6.08936 61.1073 7.70795 64.7239C15.4721 82.1744 15.9779 88.32 11.8303 115.811C9.30125 132.654 8.13789 142.442 6.79749 158.425C5.50767 173.549 5.40652 176.103 5.40652 189.912C5.40652 204.681 5.45711 205.618 7.27802 222.283C10.414 250.887 10.1358 258.576 5.02716 287.432C-0.890811 320.916 -0.840231 329.186 5.48239 362.545C9.25068 382.448 9.65532 392.717 7.65738 417.527C5.73529 441.172 5.86175 468.689 7.85969 467.906C8.51725 467.651 9.14951 461.809 9.52886 452.68C9.68061 449.342 9.90822 443.703 10.06 440.161C10.3634 432.802 10.7681 427.718 11.8303 417.425C13.9294 397.345 14.0812 387.683 12.4626 375.039C11.805 369.929 11.2233 366.541 8.92189 354.806C3.99024 329.389 4.01555 319.222 9.20009 288.064C12.412 268.641 12.9431 263.405 12.9684 251.114C12.9684 241.05 12.8925 240.088 11.0716 223.296C8.36551 198.459 8.16318 188.47 9.83235 166.897C11.2486 148.461 12.9684 134.829 16.2561 115.684C21.0107 88.0417 20.6313 80.7581 13.5501 62.9535C8.64371 50.6371 7.53092 46.7676 7.12628 40.5462C6.19052 26.5604 15.7503 16.6972 35.1987 11.6138C45.9472 8.78125 53.1297 8.60422 76.0682 10.4757C98.0457 12.2713 114.459 12.3978 128.419 10.8298C135.172 10.0711 138.005 9.61583 155.354 6.40395C167.291 4.20367 171.691 3.77373 182.668 3.79901C192.506 3.79901 192.859 3.82432 208.212 5.67052C237.902 9.23648 259.298 9.11002 278.518 5.26588C283.525 4.25424 284.967 3.74845 284.967 3.0403C284.967 2.15514 284.739 2.12984 279.758 2.76212C256.111 5.74639 236.891 5.64523 209.729 2.38276C190.913 0.1319 181.884 -0.348621 171.919 0.384804Z" fill="black"/>
<path d="M352.774 42.57C351.105 45.6553 347.159 62.3725 345.818 72.0586C343.417 89.3573 343.366 100.738 345.541 132.124C348.904 180.201 349.259 214.52 346.68 239.355C345.086 254.504 343.29 264.772 337.827 289.557C327.712 335.56 327.56 347.498 336.562 386.293C346.452 428.806 348.652 447.648 346.274 469.651C345.845 473.722 345.01 482.826 344.783 485.937C344.58 488.82 345.566 490.085 346.401 488.012C350.346 478.173 352.673 455.867 351.281 441.3C349.84 426.329 347.488 412.949 342.025 388.442C332.971 347.851 333.072 337.077 342.911 292.465C349.157 264.241 351.156 252.152 352.597 234.298C354.695 208.551 353.76 173.651 349.84 130.1C348.322 113.358 347.994 108.78 347.69 100.232C347.059 81.7197 348.829 63.7382 352.901 47.451C353.533 44.922 353.988 42.6711 353.912 42.4687C353.709 41.9376 353.077 41.9883 352.774 42.57Z" fill="black"/>
<path d="M66.9652 497.09C53.3336 498.279 30.5469 504.449 30.5469 506.98C30.5469 507.839 31.2297 507.763 34.7705 506.473C56.7984 498.482 77.2078 497.849 101.993 504.4C118.406 508.749 124.906 509.787 135.755 509.76C144.329 509.76 148.122 509.356 166.483 506.549C199.234 501.517 210.235 501.642 239.245 507.308C262.941 511.961 273.918 513.074 295.845 513.074C317.897 513.074 330.719 511.784 336.309 509.002C341.444 506.473 336.992 505.815 323.411 507.156C293.821 510.039 269.415 508.725 239.522 502.655C208.668 496.382 197.337 496.231 163.069 501.618C135.047 506.018 127.46 505.942 105.154 500.986C87.931 497.166 77.84 496.13 66.9652 497.09Z" fill="black"/>
</svg>
