<svg width="365" height="515" viewBox="0 0 365 515" fill="none" xmlns="http://www.w3.org/2000/svg">
<path d="M51.6218 1.11738C46.766 2.129 44.6162 7.23768 47.4993 10.9048C48.1317 11.7141 48.1317 11.6888 46.336 12.1188C34.3483 14.8501 13.7113 12.1693 7.43922 7.06065C5.89651 5.82142 5.64361 5.72025 5.41599 6.32722C5.18838 6.90891 7.21161 8.72982 9.31072 9.81731C17.7072 14.1926 37.5349 15.887 47.98 13.1304C49.2444 12.8016 49.3961 12.8016 50.0031 13.2315C58.2226 19.0231 72.0312 18.4161 97.701 11.1324C135.51 0.409248 163.836 -0.526502 173.749 8.65395C175.621 10.399 175.646 10.3484 172.106 11.5118C162.849 14.5466 159.334 19.4783 165.201 21.2234C170.968 22.943 177.695 18.5931 177.594 13.2062C177.568 11.8406 177.644 11.4612 177.973 11.36C179.642 10.8289 184.169 10.399 189.126 10.2978C197.295 10.1208 198.913 10.3231 220.866 14.1167C240.542 17.5309 259.51 18.2138 276.302 16.0641C279.792 15.6088 279.792 15.6088 280.678 16.3676C288.392 23.0443 306.322 21.9567 327.921 13.535C338.972 9.23564 342.386 8.50221 346.559 9.58969C354.476 11.6635 358.85 21.5015 355.284 29.3162C354.046 32.073 353.894 32.1741 352.048 31.2384C346.661 28.5323 340.489 29.7969 340.489 33.6157C340.489 37.7634 347.192 38.7497 352.149 35.3607C354.121 34.0203 354.021 34.0203 355.057 35.1838C361.481 42.5179 360.95 50.8385 352.78 71.349C342.64 96.8166 342.386 104.277 350.732 130.605C358.497 155.137 360.167 169.122 357.029 183.664C355.007 193.072 348.38 204.781 345.624 203.795C340.237 201.898 332.018 205.87 332.018 210.32C332.018 214.595 339.579 212.799 345.7 207.057C348.81 204.15 353.59 213.229 354.905 224.559C356.346 236.926 354.856 247.396 349.089 265.53C341.578 289.126 341.881 295.195 351.365 314.214C360.419 332.321 362.695 341.452 362.291 358.068C361.936 372.912 359.584 384.471 352.225 407.662C347.849 421.37 346.434 429.109 345.952 441.931C345.7 448.228 345.7 448.253 346.434 448.253C346.938 448.253 346.99 447.824 347.318 441.299C348.001 428.35 349.317 421.724 354.425 405.689C367.727 363.859 367.374 343.626 352.856 313.96C343.221 294.26 342.993 289.657 350.48 265.909C351.87 261.533 353.338 256.677 353.742 255.16C359.256 234.953 357.029 212.42 348.835 205.642C347.976 204.933 347.976 204.933 349.821 202.581C356.752 193.731 359.711 183.866 359.711 169.805C359.685 156.477 358.346 149.927 350.607 125.547C343.955 104.606 344.586 95.6786 354.476 70.8686C362.543 50.6868 362.871 41.0763 355.766 33.9698C354.78 32.9835 354.78 32.9835 355.538 31.8959C361.405 23.1961 356.297 10.1967 346.18 8.04698C341.881 7.13652 338.012 7.99639 326.959 12.3717C307.536 20.0095 291.704 21.3752 282.827 16.1905C281.385 15.3306 281.234 15.4318 284.851 14.6478C296.535 12.1188 300.38 7.94582 293.931 4.75922C286.268 0.965638 275.543 6.88362 278.25 13.3833C278.681 14.4202 278.781 14.3696 275.494 14.749C256.147 16.9745 240.415 16.1905 215.301 11.7394C196.637 8.45162 188.62 7.99639 179.389 9.71615C176.86 10.1714 176.86 10.1714 176.481 9.64028C168.312 -1.99334 138.419 -1.89218 96.6388 9.94377C73.068 16.6205 61.561 17.4298 52.5068 12.9786C50.9894 12.2452 50.9642 12.2705 53.0886 11.2589C60.6757 7.59175 59.5124 -0.526502 51.6218 1.11738ZM55.1878 2.73598C58.5513 4.12695 56.9074 7.86995 51.8999 10.2725C49.3961 11.4612 49.2698 11.4359 48.1063 9.03331C46.2095 5.16386 50.9135 0.940348 55.1878 2.73598ZM292.311 5.5685C299.09 7.59175 294.587 11.3347 282.599 13.6615C280.046 14.1673 279.919 14.0914 279.388 12.1946C278.149 7.4906 285.737 3.59585 292.311 5.5685ZM176.228 13.3327C176.203 16.8481 172.839 19.7564 168.489 20.0347C160.371 20.5658 163.709 15.3812 173.32 12.5487C176.279 11.6635 176.228 11.6382 176.228 13.3327ZM350.227 31.9465C353.135 33.0846 353.084 33.4387 349.721 35.0825C345.876 36.954 340.869 35.5125 342.083 32.8822C342.841 31.1878 347.09 30.7073 350.227 31.9465ZM345.193 205.136C346.104 206.046 338.34 210.927 335.508 211.206C331.108 211.636 334.243 206.78 339.478 205.035C340.641 204.656 344.765 204.705 345.193 205.136Z" fill="black"/>
<path d="M3.51405 22.0326C1.5414 29.4173 2.3507 35.8664 7.02944 49.4222C11.7335 63.1043 12.8968 70.6914 10.1907 70.1099C3.84284 68.7694 -2.37862 78.2786 3.00825 81.1112C6.04311 82.7298 11.3288 78.4051 12.2393 73.5493C12.4416 72.386 12.7198 72.4619 14.1614 74.0045C19.2701 79.4167 19.6747 88.5971 15.8558 111.384C8.4457 155.415 8.29396 175.672 15.0971 217.73C20.3575 250.179 20.4334 265.833 15.4512 278.124C14.0349 281.639 13.9843 281.69 12.7704 280.983C6.52363 277.39 -1.46817 281.614 1.51611 286.95C3.53936 290.516 8.26867 290.036 12.3657 285.863C14.566 283.638 14.4901 283.638 15.9823 286.622C18.7389 292.033 18.4607 297.75 14.6166 314.467C11.1012 329.92 9.98843 336.697 9.02739 348.988C8.21808 359.458 8.52157 395.017 9.43203 395.017C9.93784 395.017 9.93784 394.839 9.96313 378.223C10.0137 351.592 10.4437 344.157 12.7198 330.779C13.5291 326.024 14.1108 323.292 17.0192 310.546C20.2058 296.485 19.8516 288.67 15.8052 283.638C14.8948 282.5 14.8948 282.5 15.5017 281.487C21.9002 270.562 22.1532 252.303 16.3869 216.465C9.83669 175.698 9.96313 155.895 17.0192 113.407C21.4704 86.6244 20.6862 76.4072 13.8073 71.7032C12.9221 71.0708 12.9221 71.0708 12.7704 67.1509C12.5933 62.1686 12.0622 59.8925 8.54687 49.675C3.89341 36.0436 2.8818 29.9232 4.37394 23.7524C5.0062 21.1221 4.1969 19.5035 3.51405 22.0326ZM10.5195 71.6019C12.2899 72.0571 8.74919 78.5821 6.11899 79.6697C1.03559 81.7941 1.44024 74.2574 6.52363 71.956C7.6617 71.4501 9.38146 71.2732 10.5195 71.6019ZM11.5311 281.918C13.2003 282.803 13.175 283.005 11.2782 284.953C7.61111 288.695 3.26115 288.873 2.40128 285.332C1.56669 281.969 7.3835 279.793 11.5311 281.918Z" fill="black"/>
<path d="M7.10555 406.575C6.01804 408.295 7.40903 426.428 9.81162 441.172C12.1636 455.84 12.6442 464.668 11.4049 471.469C10.7727 474.884 11.0509 474.556 9.10349 474.227C3.89364 473.342 -0.481607 477.387 0.403559 482.219C1.69337 489.123 9.48285 485.809 11.4808 477.539C12.1131 474.859 15.5779 480.119 18.638 488.465C24.0501 503.134 29.7405 509.026 40.9443 511.605C50.2258 513.73 58.5212 512.239 81.1309 504.449C109.406 494.686 122.835 492.664 134.241 496.458C139.248 498.127 143.497 501.086 141.524 501.49C133.077 503.26 130.27 511.808 137.428 513.908C143.775 515.754 148.909 509.608 145.976 503.69C145.04 501.818 144.787 501.97 149.491 501.617C157.457 500.983 164.767 502.021 185.631 506.801C197.063 509.432 203.563 510.746 209.227 511.581C230.547 514.716 253.031 512.871 263.829 507.104C265.802 506.042 265.802 506.042 267.902 507.08C271.999 509.077 277.89 509.987 283.456 509.481C290.587 508.825 293.85 507.736 311.628 499.997C324.83 494.257 338.563 491.955 337.905 495.623C336.287 504.549 341.167 511.833 346.478 508.47C351.436 505.335 348.426 497.342 341.091 494.257C339.65 493.65 339.65 493.65 340.511 490.868C343.343 481.763 343.974 479.436 344.657 476.098C345.695 471.041 346.833 461.961 346.478 461.606C345.822 460.95 345.492 461.633 345.188 464.11C343.95 474.1 342.912 478.753 339.498 489.603C338.36 493.144 338.36 493.144 337.273 493.017C328.724 492.031 322.985 493.472 306.342 500.731C288.133 508.698 279.231 510.063 269.799 506.397C266.94 505.283 266.991 505.435 268.71 503.715C273.617 498.81 272.53 491.424 266.889 491.424C261.402 491.424 259.328 499.366 263.577 504.07C264.664 505.283 264.664 505.283 261.578 506.625C251.058 511.201 232.671 512.871 214.665 510.822C207.33 509.987 199.542 508.495 184.063 504.929C164.665 500.479 152.146 499.062 145.52 500.528C144.256 500.807 144.256 500.807 142.865 499.542C132.294 490.033 115.399 491.02 79.9928 503.235C41.8295 516.385 29.3866 513.174 19.9278 487.706C17.2723 480.525 15.3502 477.312 12.6947 475.542C12.1636 475.187 12.1636 475.187 12.6189 472.987C14.2122 464.996 13.8581 457.333 11.0761 440.161C8.90116 426.808 8.62298 424.228 8.19303 413.504C7.91483 406.626 7.76309 405.588 7.10555 406.575ZM9.76105 475.718C10.4692 475.921 10.4692 475.946 9.53344 478.349C7.08024 484.747 2.55326 486.871 1.81983 481.991C1.18757 477.767 5.25933 474.531 9.76105 475.718ZM268.558 493.347C271.441 495.244 271.062 499.341 267.724 502.679C265.979 504.424 265.827 504.449 264.613 503.108C260.567 498.631 263.957 490.286 268.558 493.347ZM342.205 496.355C347.616 499.265 349.337 506.397 344.911 507.711C341.622 508.698 339.018 505.208 338.993 499.72C338.967 494.661 338.967 494.637 342.205 496.355ZM144.559 504.121C147.19 509.204 142.536 514.515 137.326 512.34C132.369 510.266 134.393 505.435 141.196 503.083C143.674 502.249 143.548 502.197 144.559 504.121Z" fill="black"/>
</svg>
