<svg width="363" height="521" viewBox="0 0 363 521" fill="none" xmlns="http://www.w3.org/2000/svg">
<path d="M189.629 1.17117C186.543 1.77814 182.016 4.73713 180.044 7.41792C179.108 8.70773 179.108 8.70773 177.742 7.36735C169.346 -1.05439 162.871 9.82052 168.89 22.2635C175.036 35.0351 181.182 35.6421 188.744 24.2614C198.304 9.82052 198.708 -0.599164 189.629 1.17117ZM193.145 4.48423C195.876 8.35368 183.154 28.9402 178.728 27.8526C177.16 27.448 173.013 22.3394 171.04 18.4193C166.412 9.11239 171.622 2.53686 176.983 10.8827C178.754 13.6394 179.512 13.7153 180.423 11.2621C181.915 7.26617 191.525 2.1575 193.145 4.48423Z" fill="black"/>
<path d="M125.647 7.56961C118.945 8.6824 112.547 11.5402 109.486 14.7521C108.778 15.5108 108.778 15.5108 107.463 14.7015C91.1255 4.25657 66.9225 5.29347 58.1973 16.8007C57.5399 17.6605 57.5399 17.6605 56.3005 16.5983C48.8146 9.97222 33.6908 7.01323 22.209 9.89635C9.71544 13.0324 3.92391 23.0475 10.1454 30.7105C11.2582 32.0507 11.2582 32.0507 9.99363 33.366C-0.577795 44.3167 0.787892 66.8758 12.9779 81.8983C14.7988 84.124 14.7988 84.124 12.8009 86.1978C1.59719 97.882 1.54661 120.542 12.6997 133.896C14.47 136.045 14.47 136.045 13.5849 137.183C-0.0719832 155.14 -1.86761 179.419 9.66486 190.42C10.6512 191.381 10.7271 191.078 8.70381 194.593C-3.56207 216.04 -2.55045 237.308 11.6375 255.39C16.2404 261.259 16.2151 261.081 13.3826 266.898C5.28959 283.514 5.77013 300.686 14.723 314.749C16.645 317.783 16.645 317.708 14.3183 321.526C3.87334 338.773 2.96288 360.017 12.118 374.105C13.4584 376.178 13.4584 376.178 11.8651 378.177C-1.00773 394.11 -0.122565 413.306 14.3436 431.843C18.2889 436.875 18.2383 436.016 14.8747 440.947C-1.89289 465.53 -1.63999 490.516 15.4311 496.485C17.1003 497.041 17.1003 497.041 17.1508 499.42C17.5049 516.718 49.4721 519.626 74.1557 504.579C75.4455 503.794 76.5582 503.162 76.5836 503.213C76.6341 503.263 77.1906 504.2 77.848 505.311C87.6354 521.954 109.183 521.826 126.811 505.008C128.733 503.187 128.733 503.187 131.337 505.969C140.998 516.313 152.177 517.526 161.281 509.207C164.038 506.703 162.976 506.197 159.106 508.17C148.662 513.505 141.327 512.291 133.108 503.921C128.935 499.672 128.733 499.647 124.737 503.289C107.868 518.665 88.5713 518.463 80.1241 502.834C77.9745 498.862 77.3169 498.786 72.1072 501.745C55.9211 510.952 37.712 513.505 26.8878 508.094C22.0066 505.641 19.4776 501.669 20.3374 497.751C20.9192 495.144 20.6409 494.613 18.0613 493.805C2.28004 488.746 1.79951 464.898 17.0497 442.289C21.0709 436.295 21.0709 436.268 16.8221 430.377C2.70996 410.699 2.30532 392.086 15.7093 379.795C19.1993 376.608 19.2752 375.901 16.5944 370.563C9.0073 355.389 9.26022 339.963 17.4037 324.232C20.7926 317.656 20.7926 317.58 17.7325 312.928C8.72912 299.092 7.99568 283.059 15.7093 267.075C18.5924 261.107 18.5165 260.626 13.8884 254.328C6.70587 244.567 4.17682 238.547 3.36752 229.317C2.43178 218.796 6.40238 205.898 13.2561 197.172C16.9232 192.52 17.2267 191.861 16.7209 189.838C16.468 188.877 15.9622 188.194 13.7366 185.893C6.42767 178.356 4.30326 169.049 7.05994 156.733C8.62794 149.727 10.7271 145.226 15.6334 138.271C17.2773 135.969 17.2267 135.615 14.7482 132.252C4.60675 118.468 5.41605 97.7302 16.4933 87.9176C19.8822 84.908 19.9076 83.6434 16.6197 79.6728C4.05037 64.4226 3.77216 44.165 15.9875 33.4671C17.5302 32.1266 17.1003 30.8116 14.4448 28.8896C11.0305 26.3858 11.2329 21.7829 14.9 18.3434C23.6758 10.1492 44.6417 11.6414 54.8589 21.2011C58.0203 24.1601 59.3354 24.0842 60.4988 20.8724C64.8235 9.06176 90.6957 7.72136 105.035 18.571C108.829 21.4287 109.714 21.4542 112.825 18.7733C122.966 9.9975 141.251 9.44112 154.655 17.5088C157.21 19.0262 158.095 17.8376 156.072 15.6626C150.457 9.56757 136.269 5.79928 125.647 7.56961Z" fill="black"/>
<path d="M224.024 7.72135C216.513 9.06176 210.139 11.9955 206.75 15.6626C204.726 17.8376 205.612 19.0262 208.167 17.5088C221.569 9.44112 239.854 9.9975 249.997 18.7733C253.107 21.454 253.993 21.4288 257.787 18.571C272.126 7.72136 297.999 9.06176 302.323 20.8725C303.486 24.0843 304.8 24.1602 307.962 21.2012C318.18 11.6414 339.146 10.1492 347.922 18.3434C351.589 21.7829 351.792 26.3857 348.377 28.8894C345.722 30.8116 345.291 32.1267 346.833 33.4671C359.049 44.165 358.772 64.4227 346.202 79.6729C342.915 83.6434 342.939 84.908 346.329 87.9175C357.406 97.7303 358.214 118.468 348.074 132.252C345.595 135.615 345.543 135.97 347.188 138.271C352.095 145.226 354.193 149.727 355.761 156.733C358.518 169.049 356.393 178.356 349.085 185.893C346.86 188.194 346.353 188.877 346.101 189.838C345.595 191.861 345.898 192.52 349.565 197.172C356.42 205.898 360.39 218.796 359.455 229.317C358.645 238.547 356.116 244.567 348.933 254.328C344.305 260.626 344.229 261.107 347.112 267.075C354.826 283.059 354.092 299.092 345.088 312.928C342.029 317.58 342.029 317.656 345.418 324.233C353.561 339.963 353.813 355.389 346.226 370.563C343.546 375.901 343.622 376.608 347.112 379.795C360.517 392.086 360.111 410.699 345.999 430.377C341.75 436.268 341.75 436.295 345.771 442.289C361.021 464.898 360.541 488.747 344.76 493.805C342.18 494.613 341.902 495.144 342.484 497.751C343.343 501.669 340.815 505.641 335.934 508.094C325.109 513.505 306.9 510.952 290.715 501.745C285.504 498.786 284.846 498.862 282.697 502.834C274.251 518.464 254.953 518.665 238.085 503.289C234.088 499.647 233.887 499.672 229.714 503.921C221.494 512.291 214.161 513.505 203.715 508.17C199.846 506.197 198.783 506.703 201.539 509.207C210.644 517.527 221.824 516.313 231.484 505.969C234.088 503.187 234.088 503.187 236.012 505.008C253.638 521.827 275.186 521.954 284.973 505.311C285.632 504.2 286.187 503.263 286.239 503.213C286.263 503.162 287.377 503.794 288.666 504.579C313.349 519.626 345.316 516.719 345.671 499.42C345.722 497.041 345.722 497.041 347.391 496.485C364.462 490.516 364.714 465.53 347.947 440.948C344.584 436.016 344.533 436.875 348.478 431.843C362.945 413.306 363.829 394.11 350.957 378.177C349.364 376.178 349.364 376.178 350.703 374.105C359.859 360.017 358.948 338.773 348.502 321.526C346.177 317.708 346.177 317.783 348.098 314.749C357.051 300.686 357.531 283.514 349.439 266.898C346.606 261.081 346.581 261.259 351.185 255.391C365.372 237.308 366.383 216.04 354.117 194.593C352.095 191.078 352.171 191.382 353.157 190.42C364.69 179.418 362.893 155.14 349.237 137.183C348.351 136.045 348.351 136.045 350.122 133.896C361.275 120.542 361.224 97.882 350.02 86.1978C348.023 84.1239 348.023 84.1239 349.844 81.8984C362.034 66.8758 363.4 44.3168 352.827 33.3658C351.564 32.0508 351.564 32.0508 352.675 30.7103C358.897 23.0473 353.106 13.0324 340.612 9.89634C329.131 7.01323 314.007 9.97222 306.521 16.5983C305.282 17.6605 305.282 17.6605 304.624 16.8007C295.899 5.29347 271.696 4.25657 255.359 14.7015C254.042 15.5108 254.042 15.5108 253.335 14.7521C247.897 9.01117 234.57 5.82457 224.024 7.72135Z" fill="black"/>
<path d="M187.778 482.929C184.971 484.346 181.987 488.14 179.862 492.92C179.053 494.765 179.053 494.765 177.814 492.895C173.338 486.192 167.065 486.647 167.141 493.678C167.217 501.393 175.841 518.816 180.039 519.727C180.444 519.829 180.925 519.955 181.127 520.006C186.792 521.775 198.122 494.261 195.163 485.888C193.975 482.525 191.016 481.336 187.778 482.929ZM191.42 486.85C193.216 491.175 189.068 504.427 183.15 513.202C181.532 515.605 181.506 515.605 180.191 514.164C175.032 508.449 169.417 495.752 170.379 491.933C170.91 489.784 174.197 492.54 176.6 497.117C179.003 501.745 180.267 502.479 180.267 499.242C180.267 493.678 189.827 483.056 191.42 486.85Z" fill="black"/>
</svg>
