<svg width="352" height="505" viewBox="0 0 352 505" fill="none" xmlns="http://www.w3.org/2000/svg">
<path d="M247.183 0.517769C245.868 0.947708 245.21 1.47881 241.265 5.34825C224.852 21.4077 206.163 22.4699 197.411 7.80144C195.287 4.26076 194.63 4.18489 191.393 7.14388C174.094 23.0516 149.284 22.2929 132.365 5.34825C126.067 -0.949077 125.587 -0.974367 117.595 4.91832C95.6428 21.1294 75.6128 22.6469 62.7146 9.11654C57.9347 4.10902 57.4541 3.67908 56.2149 3.35031C53.8629 2.69275 52.4972 3.27443 49.2599 6.38517C32.8971 21.964 18.5573 21.7871 6.77193 5.85407C-0.0817983 -3.45284 -1.85214 3.67908 4.79927 13.947C15.0672 29.8801 35.325 30.0823 52.3202 14.4275C54.0398 12.8342 54.0398 12.8342 54.5964 13.593C69.3913 34.0276 99.6892 32.5608 121.591 10.3305C127.408 4.43779 126.371 4.71599 130.139 8.00375C149.587 24.8726 176.522 25.5554 192.758 9.59705C194.3 8.05434 194.3 8.05434 194.983 9.42003C203.608 26.5922 226.497 27.8568 245.944 12.2273C247.816 10.7098 247.816 10.7098 249.459 12.2273C260.639 22.6975 277.71 21.7112 294.754 9.64764C299.181 6.51162 298.7 6.51163 301.862 9.67292C315.266 23.0516 338.204 22.2675 347.409 8.10493C350.216 3.80554 348.775 3.93199 340.531 8.66131C326.444 16.7796 314.583 16.1979 304.214 6.89098C299.333 2.541 298.978 2.51572 291.416 6.28401C274.22 14.8575 262.408 14.1746 254.341 4.13431C251.735 0.897129 249.51 -0.240946 247.183 0.517769Z" fill="black"/>
<path d="M346.424 27.6042C342.707 29.4757 338.105 35.3937 335.726 41.3623C331.58 51.7313 332.995 61.4176 340.102 70.9268C341.316 72.5707 342.403 74.0882 342.479 74.2905C342.555 74.4927 341.519 76.8954 340.203 79.652C331.225 98.2912 331.681 110.785 342.024 128.083C346.603 135.772 346.576 136.328 340.886 143.435C326.345 161.644 325.459 176.287 337.953 192.752C340.658 196.291 340.658 196.291 334.564 208.482C321.489 234.633 321.842 246.317 336.208 261.34C339.824 265.107 339.723 264.475 337.371 269.407C329.126 286.654 329.987 299.224 340.127 310.326C342.303 312.678 342.303 312.678 341.013 314.499C323.866 338.425 324.042 359.517 341.493 370.923C344.326 372.768 344.376 372.085 341.013 377.499C329.05 396.643 328.849 407.316 340.178 419.126C343.845 422.919 343.972 421.908 338.864 429.444C327.153 446.667 330.567 465.635 345.844 468.317C351.787 469.353 351.432 467.103 344.326 458.934C338.078 451.75 338.61 443.911 346.273 430.558C350.218 423.653 350.269 421.277 346.576 416.749C341.899 411.007 340.861 409.338 340.026 406.051C338.382 399.653 340.482 392.722 347.614 380.913C353 372.01 353.076 370.24 348.221 364.904C342.024 358.076 340.178 354.231 339.85 347.402C339.495 339.867 341.823 332.101 347.538 321.783C352.394 313.008 352.369 310.884 347.285 305.37C338.105 295.406 336.967 286.199 343.086 271.203C345.996 264.071 345.817 262.906 340.988 257.292C327.381 241.562 328.014 228.335 343.568 204.536C349.966 194.724 350.169 191.966 345.034 183.899C336.512 170.521 336.713 161.163 345.768 145.913C351.003 137.061 351.028 135.165 346.096 125.984C336.637 108.407 336.84 96.9002 346.906 81.6753C351.559 74.6445 351.635 72.5201 347.437 66.2734C340.254 55.5755 340.658 47.4825 349.106 33.4463C352.394 27.9583 351.128 25.2269 346.424 27.6042Z" fill="black"/>
<path d="M3.00382 41.7414C2.2704 42.0703 1.63814 43.006 1.63814 43.7647C1.63814 44.3969 2.34627 45.1556 5.93752 48.3422C16.5848 57.7757 18.0517 73.5822 9.95871 91.589C4.69829 103.273 4.74886 104.74 10.6668 110.43C22.781 122.089 23.0339 140.349 11.3497 161.062C10.2622 162.984 8.77005 165.64 8.03664 166.955C3.81312 174.466 4.21776 176.16 11.8555 183.014C23.2615 193.232 24.1973 208.582 14.5363 226.514C9.17471 236.402 9.14941 237.009 13.4994 240.676C20.1507 246.19 21.2636 255.143 16.5089 264.323C14.3593 268.471 12.1084 271.1 5.25468 277.474C0.373613 282.001 0.550647 285.264 5.91224 289.968C17.4194 300.034 17.2677 314.626 5.53288 328.966C0.677099 334.908 0.752971 337.236 5.91224 339.916C19.2656 346.871 19.5438 360.528 6.64565 375.272C-0.460973 383.417 -0.511555 385.894 6.31688 391.029C17.4447 399.374 17.8999 410.4 7.70785 423.729C6.67095 425.119 5.10294 427.168 4.21776 428.281C-0.00574443 433.795 -0.081616 437.134 3.99015 440.825C15.1686 451.018 16.0031 457.619 7.80903 470.694C2.39685 479.368 2.34627 481.898 7.73315 478.408C15.6491 473.273 20.252 461.058 17.8746 451.346C16.7366 446.769 14.4098 442.9 9.88284 438.12C6.79739 434.882 6.67095 435.844 11.2485 428.837C22.6293 411.463 22.4523 398.944 10.6668 386.577C7.98605 383.745 7.93546 384.452 11.2232 379.42C22.7304 361.818 22.8317 348.641 11.6026 337.488C8.99767 334.908 8.99767 334.908 11.1221 331.722C21.8199 315.865 22.4269 298.693 12.766 285.871C10.6416 283.039 10.6163 283.771 12.9936 280.687C25.4365 264.551 26.6252 248.946 16.3066 237.692C14.9662 236.226 14.9662 236.226 18.1528 229.853C28.6483 208.988 27.5357 194.015 14.4098 179.473C10.1863 174.769 10.2116 175.503 13.7776 169.357C19.6955 159.115 22.2499 152.893 23.8684 144.8C26.9033 129.727 24.3995 117.006 16.3319 106.283C14.2075 103.45 14.2075 103.551 15.6997 100.314C22.604 85.1399 24.4754 75.0996 22.3764 64.4524C19.8979 51.7564 9.09884 39.1365 3.00382 41.7414Z" fill="black"/>
<path d="M127.333 478.939C118.178 479.595 107.935 483.112 100.475 488.196C98.4514 489.561 98.5273 489.561 96.6052 488.372C83.8082 480.608 65.169 482.302 54.4207 492.19C52.8526 493.658 52.8526 493.658 50.703 491.583C38.867 480.202 21.7453 480.33 8.29077 491.887C4.54778 495.1 1.74054 500.031 2.95448 501.245C3.81435 502.105 4.57307 501.625 7.962 498.159C21.6694 484.148 38.4118 483.82 48.4014 497.349C51.7145 501.826 53.4848 501.902 57.9612 497.755C68.9122 487.537 83.8334 487.437 92.7104 497.501C96.9592 502.332 100.171 502.357 106.595 497.628C114.991 491.431 122.174 488.954 130.747 489.231C139.422 489.51 144.177 492.09 149.285 499.297C154.09 506.101 159.224 506.177 166.129 499.55C183.807 482.554 203.761 480.912 212.562 495.731C215.269 500.284 217.67 500.866 221.339 497.856C227.458 492.873 230.468 490.9 234.692 489.131C245.667 484.554 254.064 487.537 255.733 496.642C256.441 500.436 258.592 502.56 261.727 502.56C264.358 502.56 265.545 501.649 269.896 496.287C281.125 482.581 301.787 481.595 308.667 494.442C310.892 498.639 313.775 498.791 315.344 494.821C319.389 484.73 330.795 484.654 341.316 494.618C344.275 497.401 346.603 499.273 347.134 499.273C349.383 499.273 347.486 492.545 344.251 489.03C336.588 480.633 322.5 479.975 314.205 487.589C312.612 489.079 312.612 489.079 310.74 487.082C300.143 475.853 278.292 476.03 263.523 487.513C262.031 488.651 262.031 488.651 261.02 487.537C251.813 477.498 236.285 479.015 219.618 491.559C218.429 492.444 218.429 492.444 217.773 491.331C209.199 476.688 188.283 475.222 163.347 487.486C159.047 489.586 159.047 489.586 157.682 488.347C150.373 481.796 138.587 478.154 127.333 478.939Z" fill="black"/>
</svg>
