<svg width="366" height="523" viewBox="0 0 366 523" fill="none" xmlns="http://www.w3.org/2000/svg">
<path d="M167.383 1.06123C162.426 3.05917 160.631 10.9498 164.399 14.2629C168.875 18.1829 176.437 15.5021 175.476 10.3428C175.249 9.10361 174.237 8.09198 173.352 8.19315C172.618 8.26902 172.188 9.15418 172.897 9.15418C173.428 9.15418 173.807 9.96348 173.807 11.1016C173.807 15.4515 165.385 15.148 164.551 10.7728C163.16 3.33738 170.545 -0.000974045 176.462 5.41119C183.67 11.9867 183.24 22.1029 175.602 25.9471C166.119 30.727 153.17 28.2991 133.974 18.1829C131.622 16.9184 128.082 15.0722 126.134 14.0353C114.931 8.11728 109.443 6.75159 105.295 8.80012C103.676 9.60941 103.676 9.60941 101.931 8.85069C94.9511 5.8917 92.8773 6.04345 66.8282 11.1521C45.0531 15.4515 32.5847 15.1227 32.1549 10.267C31.5984 4.19725 25.3769 0.0243159 21.457 3.10976C18.7509 5.23416 21.2547 9.35651 26.9702 12.1638C30.0051 13.6559 29.8788 13.403 28.7659 15.9067C27.3496 19.0933 24.6941 21.9511 18.3968 27.2369C2.64084 40.3879 1.4016 47.09 10.5568 69.9778C18.6497 90.2102 18.6497 99.6435 10.5568 123.847C1.62921 150.604 0.16236 167.7 5.75157 179.764C6.61144 181.635 6.61144 181.635 6.13092 182.976C3.85478 189.45 5.22047 195.09 12.757 210.592C24.4919 234.695 26.2622 242.206 22.671 252.929C19.1555 263.425 6.78846 263.046 3.09606 252.322C0.946367 246.076 6.30795 240.106 10.1521 244.482C13.0099 247.745 10.3544 251.918 6.45969 250.3C4.86639 249.617 4.2847 250.376 5.52395 251.514C8.65997 254.421 13.9204 251.134 13.3893 246.607C12.6306 240.158 4.25942 239.044 1.45218 245.013C-0.899841 249.97 2.10973 257.633 7.57248 260.694C9.21635 261.578 9.21635 261.529 7.57248 262.413C2.10973 265.474 -0.899841 273.137 1.45218 278.093C4.25942 284.062 12.6306 282.949 13.3893 276.5C13.9204 271.972 8.65997 268.685 5.52395 271.593C4.2847 272.731 4.86639 273.49 6.45969 272.807C10.3544 271.189 13.0099 275.362 10.1521 278.624C6.30795 283 0.946367 277.031 3.09606 270.785C6.78846 260.061 19.1555 259.681 22.671 270.178C26.2622 280.901 24.4919 288.412 12.757 312.514C5.22047 328.017 3.85478 333.656 6.13092 340.132C6.61144 341.471 6.61144 341.471 5.75157 343.343C0.16236 355.406 1.62921 372.502 10.5568 399.26C18.6497 423.463 18.6497 432.896 10.5568 453.129C1.4016 476.017 2.64084 482.719 18.3968 495.869C24.6941 501.155 27.3496 504.014 28.7659 507.201C29.8788 509.704 30.0051 509.45 26.9702 510.943C21.2547 513.75 18.7509 517.872 21.457 519.996C25.3769 523.082 31.5984 518.909 32.1549 512.84C32.5847 507.984 45.0531 507.656 66.8282 511.954C92.8773 517.064 94.9511 517.216 101.931 514.257C103.676 513.498 103.676 513.498 105.295 514.306C109.443 516.354 114.931 514.989 126.134 509.071C128.082 508.035 131.622 506.188 133.974 504.924C153.17 494.807 166.119 492.379 175.602 497.159C183.24 501.004 183.67 511.119 176.462 517.695C170.545 523.107 163.16 519.769 164.551 512.333C165.385 507.959 173.807 507.656 173.807 512.005C173.807 513.143 173.428 513.953 172.897 513.953C172.188 513.953 172.618 514.837 173.352 514.913C175.476 515.167 176.311 511.271 174.616 509.173C170.494 504.09 162.148 507.732 162.477 514.433C162.881 522.451 170.873 525.156 177.423 519.516C179.523 517.695 182.912 512.612 182.912 511.271C182.912 511.095 183.038 510.918 183.164 510.918C183.316 510.918 183.417 511.095 183.417 511.271C183.417 512.612 186.806 517.695 188.905 519.516C195.456 525.156 203.447 522.451 203.853 514.433C204.181 507.732 195.835 504.09 191.713 509.173C190.018 511.271 190.852 515.167 192.976 514.913C193.711 514.837 194.141 513.953 193.432 513.953C192.901 513.953 192.521 513.143 192.521 512.005C192.521 507.656 200.943 507.959 201.778 512.333C203.17 519.769 195.784 523.107 189.866 517.695C182.659 511.119 183.089 501.004 190.727 497.159C200.211 492.379 213.158 494.807 232.354 504.924C234.732 506.188 238.247 508.035 240.195 509.071C251.398 514.989 256.887 516.354 261.033 514.306C262.653 513.498 262.653 513.498 264.398 514.257C271.378 517.216 273.451 517.064 299.5 511.954C321.275 507.656 333.745 507.984 334.173 512.84C334.731 518.909 340.952 523.082 344.871 519.996C347.578 517.872 345.074 513.75 339.359 510.943C336.324 509.45 336.449 509.704 337.563 507.201C338.98 504.014 341.635 501.155 347.933 495.869C363.687 482.719 364.928 476.017 355.772 453.129C347.678 432.896 347.678 423.463 355.772 399.26C364.7 372.502 366.166 355.406 360.577 343.343C359.717 341.471 359.717 341.471 360.197 340.132C362.473 333.656 361.108 328.017 353.572 312.514C341.836 288.412 340.067 280.901 343.657 270.178C347.174 259.681 359.541 260.061 363.232 270.785C365.383 277.031 360.021 283 356.176 278.624C353.32 275.362 355.975 271.189 359.869 272.807C361.462 273.49 362.045 272.731 360.804 271.593C357.669 268.685 352.409 271.972 352.94 276.5C353.699 282.949 362.069 284.062 364.877 278.093C367.229 273.137 364.218 265.474 358.756 262.413C358.024 262.009 357.417 261.629 357.417 261.553C357.417 261.477 358.024 261.098 358.756 260.694C364.218 257.633 367.229 249.97 364.877 245.013C362.069 239.044 353.699 240.158 352.94 246.607C352.409 251.134 357.669 254.421 360.804 251.514C362.045 250.376 361.462 249.617 359.869 250.3C355.975 251.918 353.32 247.745 356.176 244.482C360.021 240.106 365.383 246.076 363.232 252.322C359.541 263.046 347.174 263.425 343.657 252.929C340.067 242.206 341.836 234.695 353.572 210.592C361.108 195.09 362.473 189.45 360.197 182.976C359.717 181.635 359.717 181.635 360.577 179.764C366.166 167.7 364.7 150.604 355.772 123.847C347.678 99.6435 347.678 90.2102 355.772 69.9778C364.928 47.09 363.687 40.3879 347.933 27.2369C341.635 21.9511 338.98 19.0933 337.563 15.9067C336.449 13.403 336.324 13.6559 339.359 12.1638C345.074 9.35651 347.578 5.23416 344.871 3.10976C340.952 0.0243159 334.731 4.19725 334.173 10.267C333.745 15.1227 321.275 15.4515 299.5 11.1521C273.451 6.04345 271.378 5.8917 264.398 8.85069C262.653 9.60941 262.653 9.60941 261.033 8.80012C256.887 6.75159 251.398 8.11728 240.195 14.0353C238.247 15.0722 234.732 16.9184 232.354 18.1829C213.158 28.2991 200.211 30.727 190.727 25.9471C183.089 22.1029 182.659 11.9867 189.866 5.41119C195.784 -0.000974045 203.17 3.33738 201.778 10.7728C200.943 15.148 192.521 15.4515 192.521 11.1016C192.521 9.96348 192.901 9.15418 193.432 9.15418C194.141 9.15418 193.711 8.26902 192.976 8.19315C190.852 7.94023 190.018 11.835 191.713 13.9341C195.835 19.0175 204.181 15.3756 203.853 8.67366C203.447 0.656578 195.456 -2.0495 188.905 3.59027C186.806 5.41119 183.417 10.4946 183.417 11.835C183.417 12.012 183.316 12.189 183.164 12.189C183.038 12.189 182.912 12.012 182.912 11.835C182.912 11.2027 181.015 7.76321 179.801 6.16991C176.311 1.64291 171.177 -0.481495 167.383 1.06123ZM25.6804 4.62719C27.7037 5.18358 29.5499 7.53559 29.8281 9.9382C30.0051 11.3545 29.727 11.3039 26.7174 9.63471C21.9627 6.92862 21.2294 3.38794 25.6804 4.62719ZM343.278 4.8295C344.67 5.94229 341.609 8.97715 337.311 10.7728C336.349 11.1774 336.349 11.1774 336.501 9.9382C336.931 6.24578 341.129 3.08446 343.278 4.8295ZM95.6594 9.15418C100.692 9.96348 102.285 10.9245 101.426 12.6696C99.0229 17.4748 101.881 23.0892 106.534 22.7605C112.225 22.3559 111.972 15.2998 106.155 11.228C105.017 10.444 106.155 10.0394 109.569 10.0394C113.767 10.0394 117.738 11.6327 129.928 18.2588C150.944 29.6648 162.704 32.472 174.06 28.8554C178.536 27.4139 182.912 23.2664 182.912 20.4337C182.912 20.2061 183.038 20.0291 183.164 20.0291C183.316 20.0291 183.417 20.2061 183.417 20.4337C183.417 23.2664 187.793 27.4139 192.269 28.8554C203.625 32.472 215.385 29.6648 236.402 18.2588C248.59 11.6327 252.562 10.0394 256.76 10.0394C260.174 10.0394 261.312 10.444 260.174 11.228C254.357 15.2998 254.104 22.3559 259.795 22.7605C264.447 23.0892 267.306 17.4748 264.903 12.6696C264.195 11.2027 264.195 11.2027 265.333 10.7222C271.731 8.0161 273.806 8.14256 295.834 12.5684C317.584 16.9184 323.071 17.2724 332 14.8698C334.553 14.187 334.401 14.1364 335.034 15.8562C336.476 19.928 339.435 23.3168 346.54 29.1337C361.259 41.172 362.449 47.3176 354.002 68.2075C345.277 89.8057 345.226 100.655 353.775 125.01C362.045 148.606 363.687 165.02 359.035 177.564C358.376 179.359 358.376 179.359 357.39 178.575C351.119 173.618 340.522 180.472 345.681 186.162C348.437 189.248 353.596 188.843 357.062 185.277C358.403 183.912 358.403 183.912 358.706 185.378C359.793 190.689 358.3 195.797 351.599 209.708C343.885 225.641 341.533 231.685 340.622 237.83C339.156 247.694 341.912 257.659 347.047 261.123C347.678 261.553 347.678 261.553 347.047 261.984C341.912 265.447 339.156 275.413 340.622 285.276C341.533 291.422 343.885 297.465 351.599 313.398C358.3 327.309 359.793 332.417 358.706 337.728C358.403 339.195 358.403 339.195 357.062 337.829C353.596 334.263 348.437 333.859 345.681 336.945C340.522 342.635 351.119 349.488 357.39 344.532C358.376 343.747 358.376 343.747 359.035 345.543C363.687 358.087 362.045 374.501 353.775 398.097C348.741 412.437 347.678 417.494 347.678 427.08C347.705 437.524 348.615 441.572 354.002 454.899C362.449 475.79 361.259 481.935 346.54 493.972C339.435 499.79 336.476 503.179 335.034 507.25C334.401 508.97 334.553 508.919 332 508.236C323.071 505.835 317.584 506.188 295.834 510.539C273.806 514.964 271.731 515.091 265.333 512.384C264.195 511.905 264.195 511.905 264.903 510.436C267.306 505.632 264.447 500.017 259.795 500.346C254.104 500.751 254.357 507.808 260.174 511.878C261.312 512.663 260.174 513.067 256.76 513.067C252.562 513.067 248.59 511.474 236.402 504.849C215.385 493.441 203.625 490.634 192.269 494.251C187.793 495.693 183.417 499.841 183.417 502.673C183.417 502.901 183.316 503.077 183.164 503.077C183.038 503.077 182.912 502.901 182.912 502.673C182.912 499.841 178.536 495.693 174.06 494.251C162.704 490.634 150.944 493.441 129.928 504.849C117.738 511.474 113.767 513.067 109.569 513.067C106.155 513.067 105.017 512.663 106.155 511.878C111.972 507.808 112.225 500.751 106.534 500.346C101.881 500.017 99.0229 505.632 101.426 510.436C102.134 511.905 102.134 511.905 100.996 512.384C94.5972 515.091 92.5232 514.964 70.4953 510.539C48.7454 506.188 43.2574 505.835 34.3298 508.236C31.7756 508.919 31.9273 508.97 31.2949 507.25C29.8534 503.179 26.8944 499.79 19.7879 493.972C5.06872 481.935 3.88006 475.79 12.3271 454.899C21.0523 433.302 21.1029 422.452 12.5547 398.097C4.2847 374.501 2.64083 358.087 7.29428 345.543C7.95184 343.747 7.95184 343.747 8.93817 344.532C15.2102 349.488 25.8069 342.635 20.6477 336.945C17.891 333.859 12.7317 334.263 9.26694 337.829C7.92654 339.195 7.92654 339.195 7.62305 337.728C6.53556 332.417 8.02771 327.309 14.7297 313.398C22.4434 297.465 24.7954 291.422 25.7058 285.276C27.1726 275.413 24.416 265.447 19.282 261.984C18.6497 261.553 18.6497 261.553 19.282 261.123C24.416 257.659 27.1726 247.694 25.7058 237.83C24.7954 231.685 22.4434 225.641 14.7297 209.708C8.02771 195.797 6.53556 190.689 7.62305 185.378C7.92654 183.912 7.92654 183.912 9.26694 185.277C12.7317 188.843 17.891 189.248 20.6477 186.162C25.8069 180.472 15.2102 173.618 8.93817 178.575C7.95184 179.359 7.95184 179.359 7.29428 177.564C2.64083 165.02 4.2847 148.606 12.5547 125.01C17.5875 110.67 18.6497 105.612 18.6497 96.0271C18.6244 85.5821 17.714 81.5357 12.3271 68.2075C3.88006 47.3176 5.06872 41.172 19.7879 29.1337C26.8944 23.3168 29.8534 19.928 31.2949 15.8562C31.9273 14.1364 31.7756 14.187 34.3298 14.8698C43.2574 17.2724 48.7454 16.9184 70.4953 12.5684C88.9068 8.87599 91.5369 8.52192 95.6594 9.15418ZM106.812 14.6675C108.987 17.1207 109.063 19.7004 107.015 20.535C103.676 21.9259 101.122 16.3367 103.449 12.7707C103.853 12.1132 105.27 12.9225 106.812 14.6675ZM263.613 14.3893C264.599 17.9047 261.97 21.6476 259.315 20.535C256.811 19.498 257.594 16.0838 260.933 13.403C262.653 12.012 262.981 12.1385 263.613 14.3893ZM16.8035 179.562C21.4823 181.661 20.0155 186.441 14.8561 185.859C12.5294 185.606 8.76112 182.166 9.51984 181.003C10.835 179.031 14.148 178.373 16.8035 179.562ZM355.089 179.587C357.037 180.573 357.314 181.256 356.303 182.622C353.824 186.011 349.626 186.972 347.402 184.645C344.416 181.534 350.74 177.361 355.089 179.587ZM17.5875 337.525C20.2177 338.639 20.3442 341.27 17.8404 342.988C14.1986 345.492 7.85066 343.519 10.0004 340.536C11.9983 337.728 15.1596 336.49 17.5875 337.525ZM354.027 338.311C356.303 339.904 357.314 341.471 356.631 342.332C354.052 345.619 346.667 344.001 346.667 340.156C346.667 337.273 350.992 336.186 354.027 338.311ZM107.268 502.673C109.493 503.836 108.633 507.125 105.396 509.704C103.879 510.918 103.879 510.918 103.449 510.361C100.894 506.946 103.879 500.928 107.268 502.673ZM261.439 502.673C263.791 503.659 264.626 508.035 262.881 510.361C261.995 511.525 257.746 507.073 257.771 504.974C257.797 502.925 259.491 501.863 261.439 502.673ZM29.8281 513.168C29.3981 516.886 25.2 520.023 23.0503 518.278C21.7351 517.216 27.4002 511.929 29.8534 511.929C29.9292 511.929 29.904 512.485 29.8281 513.168ZM339.611 513.471C342.722 515.243 344.367 517.392 343.278 518.278C341.129 520.023 336.931 516.861 336.501 513.168C336.324 511.753 336.601 511.802 339.611 513.471Z" fill="black"/>
</svg>
