<svg width="363" height="517" viewBox="0 0 363 517" fill="none" xmlns="http://www.w3.org/2000/svg">
<path d="M14.5683 1.53808C12.014 2.87848 10.4207 6.06508 10.4207 9.80807C10.4207 11.0979 10.3954 12.1601 10.3701 12.1601C10.3448 12.1601 9.66197 11.9831 8.85267 11.7807C2.90941 10.238 -2.35103 15.9284 1.59429 19.6461C4.32566 22.2256 10.1931 20.253 11.9128 16.1813C12.368 15.0685 13.3038 17.2688 13.5061 19.9242C13.6579 21.8717 13.8602 22.2763 14.4672 21.7704C15.0994 21.2393 14.9477 18.3815 14.2143 16.5859C13.8602 15.7513 13.582 15.0432 13.582 15.0179C13.582 14.9926 14.0119 15.1444 14.5177 15.3467C16.4145 16.156 20.6633 15.6249 20.6633 14.588C20.6633 14.0822 20.2081 13.981 19.1459 14.2086C16.3387 14.8662 13.4555 14.0822 15.0994 13.1211C21.8266 9.2011 21.2955 -2.0026 14.5683 1.53808ZM17.6538 3.00492C20.107 5.17991 17.8308 10.4403 13.6326 12.3877C11.8369 13.2223 11.6852 13.02 11.7105 10.061C11.7358 4.82583 15.1753 0.77936 17.6538 3.00492ZM9.35848 13.3487C11.5335 13.9557 11.4829 15.1444 9.18144 17.4964C5.74194 21.0117 0.0515722 19.3932 2.07481 15.4478C3.21289 13.2476 6.09601 12.413 9.35848 13.3487Z" fill="black"/>
<path d="M344.888 1.61373C341.322 3.99103 342.966 10.2378 347.923 13.1209C349.567 14.0819 346.684 14.866 343.877 14.2084C342.815 13.9808 342.359 14.0819 342.359 14.5878C342.359 15.6247 346.608 16.1558 348.505 15.3465C349.011 15.1441 349.44 14.9924 349.44 15.0177C349.44 15.043 349.163 15.7511 348.808 16.5857C348.074 18.3813 347.923 21.2391 348.556 21.7702C349.163 22.276 349.364 21.8715 349.516 19.924C349.719 17.2685 350.654 15.0683 351.109 16.1811C352.83 20.2527 358.696 22.2254 361.428 19.6459C365.373 15.9282 360.113 10.2378 354.171 11.7805C353.361 11.9828 352.678 12.1599 352.653 12.1599C352.627 12.1599 352.602 11.0977 352.602 9.80785C352.602 3.99103 348.226 -0.662413 344.888 1.61373ZM348.581 3.18175C350.806 4.90149 352.426 11.3 350.958 12.7668C350.123 13.6014 345.597 9.9596 344.763 7.78461C343.321 3.99103 345.774 1.05734 348.581 3.18175ZM359.303 13.7785C363.427 16.4845 360.417 21.1127 355.889 19.0136C354.095 18.179 351.792 15.3718 352.02 14.2337C352.274 12.8933 357.482 12.5645 359.303 13.7785Z" fill="black"/>
<path d="M173.696 3.63717C172.001 4.49706 171.42 7.45605 172.558 9.37812C173.696 11.3508 176.882 12.1095 179.159 10.9461C180.524 10.238 180.246 11.4014 178.678 12.9694C177.692 13.9557 177.54 14.6891 178.324 14.6891C178.956 14.6891 180.373 13.2729 180.878 12.1601C181.131 11.6037 181.409 11.1485 181.511 11.1485C181.612 11.1485 181.89 11.6037 182.143 12.1601C182.649 13.2729 184.065 14.6891 184.697 14.6891C185.481 14.6891 185.329 13.9557 184.343 12.9694C182.775 11.4014 182.497 10.238 183.863 10.9461C186.923 12.4889 190.539 10.8703 191.019 7.73423C191.729 2.90376 186.518 1.7151 182.674 5.83745C181.511 7.07669 181.511 7.07669 180.347 5.83745C178.324 3.68776 175.466 2.72672 173.696 3.63717ZM177.135 5.07873C180.195 6.44442 180.929 8.13889 178.981 9.30225C176.124 11.022 173.418 9.88394 173.418 6.97552C173.418 4.67409 174.758 3.99125 177.135 5.07873ZM189.275 5.23047C191.45 8.21477 187.429 11.3508 184.04 9.30225C182.295 8.26533 182.269 8.11359 183.66 6.72262C185.684 4.69937 188.364 3.99125 189.275 5.23047Z" fill="black"/>
<path d="M32.423 8.08848C23.0401 8.24022 22.8125 8.24022 22.8125 8.74602C22.8125 9.25183 23.0149 9.25183 41.5275 9.35299C83.3075 9.55532 170.079 9.20125 170.56 8.82189C171.85 7.78499 172.836 7.78499 129.943 7.9873C73.2418 8.24022 62.0887 8.2655 51.3908 8.08848C46.257 8.01261 37.7087 8.01261 32.423 8.08848Z" fill="black"/>
<path d="M192.304 8.18962C191.976 9.04949 192.835 9.07477 233.098 9.25182C310.942 9.63118 340.204 9.47943 340.204 8.746C340.204 8.06316 322.02 7.73439 306.062 8.16432C300.22 8.29077 289.977 8.36665 283.301 8.26549C250.094 7.86083 192.456 7.81026 192.304 8.18962Z" fill="black"/>
<path d="M6.87592 24.5774C6.77474 24.7291 6.72418 30.4447 6.77474 37.2984C6.92649 58.5172 6.57243 124.804 6.26895 129.508C5.71254 138.764 5.68726 146.781 6.14249 158.845C6.47126 168 6.623 179.128 6.72418 208.919C6.87592 247.007 6.87592 247.234 7.38172 247.234C8.14043 247.234 8.14043 182.365 7.40702 159.047C6.9012 143.089 6.87592 145.061 7.78638 122.78C7.9634 118.456 8.01399 110.11 7.93812 99.9178C7.83694 91.0913 7.86225 74.3995 7.98869 62.8671C8.31748 30.6723 8.08986 22.6047 6.87592 24.5774Z" fill="black"/>
<path d="M355.101 24.5775C355 24.7544 354.949 36.4134 355.025 50.4749C355.076 64.5111 355.076 85.1734 355.049 96.3771C355 108.162 355.076 119.391 355.228 123.059C356.138 144.379 356.112 143.139 355.607 159.072C354.873 182.365 354.873 247.234 355.632 247.234C356.138 247.234 356.138 247.007 356.29 208.919C356.39 179.128 356.542 168 356.87 158.845C357.325 146.756 357.301 138.713 356.745 129.508C356.491 125.613 356.339 100.854 356.187 39.347C356.138 23.844 356.087 23.0094 355.101 24.5775Z" fill="black"/>
<path d="M3.58914 248.803C0.528995 249.586 0.933643 253.962 4.37316 257.401C5.71354 258.742 5.71354 258.742 4.37316 260.057C-0.0779765 264.533 0.958934 269.946 6.01703 268.605C8.90014 267.822 10.6958 263.497 9.38068 260.411C9.0266 259.526 10.7716 260.739 11.7833 262.029C12.6937 263.243 13.2501 263.547 13.4777 262.966C13.8065 262.105 11.6315 259.4 10.367 259.097C10.0382 258.994 9.78532 258.843 9.78532 258.742C9.78532 258.642 10.0382 258.49 10.367 258.387C11.6315 258.084 13.8065 255.379 13.4777 254.518C13.2501 253.938 12.6937 254.241 11.7833 255.455C10.7716 256.745 9.0266 257.959 9.38068 257.073C11.151 252.849 7.61033 247.792 3.58914 248.803ZM6.59872 250.624C8.67253 251.787 9.07719 257.325 7.10453 257.908C6.19407 258.186 2.70398 253.331 2.70398 251.787C2.70398 250.093 4.62606 249.51 6.59872 250.624ZM7.9644 260.766C9.48183 263.649 7.61033 267.416 4.65134 267.416C1.89468 267.416 2.32463 263.926 5.48593 260.815C7.05394 259.273 7.1804 259.273 7.9644 260.766Z" fill="black"/>
<path d="M356.643 248.98C353.963 249.966 352.394 254.166 353.635 257.074C353.987 257.96 352.242 256.746 351.231 255.456C350.321 254.242 349.765 253.938 349.538 254.519C349.208 255.38 351.383 258.085 352.648 258.388C352.976 258.491 353.229 258.642 353.229 258.743C353.229 258.843 352.976 258.995 352.648 259.098C351.383 259.401 349.208 262.106 349.538 262.967C349.765 263.547 350.321 263.244 351.231 262.03C352.242 260.74 353.987 259.526 353.635 260.412C352.318 263.498 354.114 267.823 356.998 268.606C362.056 269.947 363.092 264.534 358.642 260.057C357.301 258.743 357.301 258.743 358.642 257.402C363.219 252.825 361.853 247.083 356.643 248.98ZM359.881 250.701C360.791 251.763 359.704 254.519 357.529 256.67C355.96 258.212 355.911 258.236 355.253 257.15C353.001 253.483 357.174 247.614 359.881 250.701ZM357.529 260.816C360.387 263.623 361.095 266.988 358.894 267.417C355.632 268.024 353.305 263.523 355.253 260.312C355.911 259.249 355.96 259.274 357.529 260.816Z" fill="black"/>
<path d="M6.87991 270.427C6.82935 270.603 6.72817 288.004 6.6776 309.07C6.60173 339.47 6.47527 349.737 6.1212 358.766C5.69127 370.476 5.71656 378.898 6.27294 387.976C6.52586 391.872 6.6776 416.53 6.82935 478.138C6.87991 492.882 6.87991 493.058 7.38573 493.058C8.09386 493.058 8.2709 482.008 7.9927 454.618C7.86624 443.059 7.84096 426.394 7.94212 417.566C8.01799 407.375 7.96742 399.029 7.79037 394.704C6.87991 372.423 6.90522 374.395 7.41101 358.438C8.11916 336.535 8.14445 270.3 7.43632 270.174C7.2087 270.123 6.95579 270.224 6.87991 270.427Z" fill="black"/>
<path d="M355.1 270.451C354.721 271.437 355.176 346.577 355.631 359.272C356.111 372.802 356.086 374.118 355.227 394.679C355.049 398.852 354.999 407.223 355.1 417.566C355.176 426.545 355.151 443.262 355.024 454.743C354.745 481.981 354.923 493.058 355.631 493.058C356.137 493.058 356.137 492.881 356.187 478.138C356.338 416.631 356.49 391.872 356.744 387.976C357.3 378.771 357.325 370.728 356.87 358.64C356.541 349.484 356.39 338.356 356.289 308.565C356.137 272.323 356.111 270.25 355.682 270.174C355.455 270.123 355.176 270.25 355.1 270.451Z" fill="black"/>
<path d="M13.7337 495.765C13.6579 495.941 13.5567 496.852 13.4808 497.789C13.2785 500.293 12.368 502.366 11.9128 501.304C10.1931 497.231 4.32566 495.258 1.59429 497.838C-2.35103 501.556 2.90941 507.246 8.85267 505.704C9.66197 505.501 10.3448 505.325 10.3701 505.325C10.3954 505.325 10.4207 506.387 10.4207 507.677C10.4207 513.494 14.7959 518.147 18.1343 515.871C21.7003 513.494 20.0564 507.246 15.0994 504.363C13.4555 503.403 16.3387 502.618 19.1459 503.276C20.2081 503.504 20.6633 503.403 20.6633 502.897C20.6633 501.859 16.4145 501.328 14.5177 502.138C14.0119 502.341 13.582 502.493 13.582 502.466C13.582 502.442 13.8602 501.734 14.2143 500.9C15.15 498.597 15.0488 495.461 14.0372 495.461C13.9108 495.461 13.7843 495.613 13.7337 495.765ZM7.13291 498.472C9.00441 499.331 11.3817 502.341 10.9771 503.377C10.4966 504.642 5.43845 504.845 3.69341 503.68C-0.403657 500.975 2.6312 496.397 7.13291 498.472ZM13.8855 505.224C18.0078 507.322 20.0564 512.356 17.6285 514.505C15.0488 516.806 11.1794 511.698 11.6346 506.639C11.8622 504.263 11.9128 504.211 13.8855 505.224Z" fill="black"/>
<path d="M348.48 495.765C347.923 496.32 348.126 499.204 348.808 500.899C349.163 501.734 349.44 502.441 349.44 502.466C349.44 502.493 349.011 502.341 348.505 502.138C346.608 501.328 342.359 501.859 342.359 502.897C342.359 503.403 342.815 503.504 343.877 503.276C346.684 502.618 349.567 503.403 347.923 504.363C342.966 507.246 341.322 513.494 344.888 515.871C348.226 518.147 352.602 513.494 352.602 507.676C352.602 506.387 352.627 505.324 352.653 505.324C352.678 505.324 353.361 505.501 354.171 505.704C360.113 507.246 365.373 501.556 361.428 497.838C358.696 495.258 352.83 497.231 351.109 501.303C350.654 502.39 349.744 500.292 349.491 497.561C349.315 495.638 349.061 495.182 348.48 495.765ZM359.81 498.369C362.869 499.962 360.923 504.086 356.927 504.49C353.664 504.818 351.591 503.731 352.35 502.037C353.715 499.027 357.482 497.155 359.81 498.369ZM351.312 506.059C352.171 511.091 348.074 516.908 345.394 514.505C342.991 512.356 344.99 507.373 349.061 505.249C350.781 504.338 351.033 504.439 351.312 506.059Z" fill="black"/>
<path d="M177.819 503.149C177.744 503.352 178.098 503.934 178.679 504.515C180.247 506.084 180.526 507.246 179.16 506.539C176.1 504.997 172.483 506.615 172.003 509.75C171.294 514.581 176.504 515.77 180.349 511.647C181.512 510.408 181.512 510.408 182.675 511.647C186.519 515.77 191.73 514.581 191.02 509.75C190.541 506.615 186.924 504.997 183.864 506.539C182.498 507.246 182.776 506.084 184.344 504.515C185.331 503.529 185.482 502.796 184.698 502.796C184.066 502.796 182.65 504.211 182.144 505.325C181.891 505.881 181.613 506.336 181.512 506.336C181.411 506.336 181.133 505.881 180.88 505.325C180.096 503.58 178.174 502.214 177.819 503.149ZM178.983 508.157C180.753 509.245 180.778 509.397 179.261 510.863C176.302 513.747 173.419 513.544 173.419 510.459C173.419 507.601 176.15 506.463 178.983 508.157ZM187.936 507.701C190.137 508.612 190.338 512.406 188.189 512.811C186.545 513.115 182.22 510.433 182.574 509.295C183.004 508.032 186.342 507.045 187.936 507.701Z" fill="black"/>
<path d="M60.546 508.005C60.4448 508.132 51.8967 508.232 41.5782 508.232C22.9897 508.232 22.8125 508.232 22.8125 508.739C22.8125 509.422 40.9712 509.725 56.9547 509.321C62.7968 509.194 73.0394 509.118 79.7161 509.219C112.948 509.625 170.56 509.674 170.711 509.295C171.04 508.435 170.281 508.411 131.815 508.259C110.672 508.183 86.0389 508.031 77.0606 507.956C68.0826 507.88 60.6471 507.904 60.546 508.005Z" fill="black"/>
<path d="M266.106 508.107C261.933 508.208 243.699 508.308 225.615 508.335C191.423 508.359 191.752 508.359 192.359 509.346C192.586 509.674 253.156 509.598 283.304 509.219C289.981 509.118 300.223 509.194 306.065 509.321C322.048 509.725 340.207 509.422 340.207 508.739C340.207 508.232 340.029 508.232 325.792 508.208C317.875 508.208 302.903 508.132 292.534 508.056C282.166 507.98 270.279 508.005 266.106 508.107Z" fill="black"/>
</svg>
