<svg width="344" height="498" viewBox="0 0 344 498" fill="none" xmlns="http://www.w3.org/2000/svg">
<path d="M161.376 0.7445C158.847 3.29884 164.082 10.3802 169.495 11.7459C170.759 12.0493 170.759 12.0493 169.747 12.454C168.255 13.0357 161.477 13.0104 159.277 12.4034C155.838 11.493 154.674 10.9366 154.877 10.3549C155.888 7.26944 154.194 4.33576 151.336 4.28517C148.073 4.2093 147.82 7.01654 150.855 9.84907C152.626 11.5182 151.513 12.0999 146.632 12.0747C142.155 12.0747 137.123 10.8607 137.401 9.87438C137.502 9.57089 137.628 9.11566 137.679 8.88805C138.514 5.92906 132.874 2.71715 130.674 4.91743C129.384 6.20724 130.547 8.25577 133.557 10.0514C138.488 12.9598 123.187 15.1348 112.692 12.9851C109.935 12.4034 110.112 12.5804 110.846 11.0883C113.046 6.76365 108.696 2.79303 104.194 5.04389C100.603 6.83952 101.792 10.5319 106.622 12.454C107.735 12.9092 107.659 13.061 105.965 13.8197C100.603 16.2223 89.7281 15.7671 82.3686 12.8081C81.4077 12.4287 81.4077 12.4287 82.0905 11.3918C84.2402 8.15462 81.7616 4.63924 77.3106 4.63924C72.2273 4.63924 72.126 8.86274 77.1589 11.8217C78.6509 12.7069 78.6509 12.7069 77.8922 13.0863C72.9353 15.6406 61.7316 15.4383 52.9053 12.6058C49.3141 11.4677 49.3645 11.493 49.8956 10.456C51.3372 7.6741 48.7323 4.36104 45.0905 4.28517C40.6899 4.23458 41.1958 8.35695 45.9251 11.0124C47.5184 11.9229 47.4931 11.7712 46.0009 12.6816C40.9428 15.8176 30.6243 16.5764 23.2901 14.3761C21.9497 13.9714 21.9497 13.9714 21.9497 12.5299C21.9245 8.43282 17.1951 4.51279 14.0338 6.03022C11.0748 7.42119 13.0727 11.3159 18.0297 13.7691C20.5081 15.0083 20.407 14.8313 19.3701 16.374C17.625 19.0295 12.5669 21.9885 11.353 21.0528C7.60998 18.1444 3.38646 17.8662 1.9702 20.3952C0.553932 22.9242 5.66261 24.5429 10.9483 23.2025C11.6565 23.0255 13.1233 25.7062 13.7303 28.1848C15.0707 33.9004 12.6175 41.3864 9.73439 40.4001C7.48352 39.6414 5.25797 40.754 5.25797 42.6508C5.25797 44.6235 7.35708 45.0028 9.88613 43.4854C11.8335 42.2969 13.9832 44.8511 15.273 49.9092C17.0686 56.8642 12.8957 67.2079 9.20328 64.9824C6.04197 63.0857 3.13357 63.4902 2.07136 66.0192C0.553932 69.56 5.35912 71.1533 9.55736 68.4978C10.8219 67.6884 11.1001 67.8908 12.7187 70.9509C16.4617 78.0069 13.528 90.1464 8.49516 88.3509C5.58674 87.3139 2.72892 87.9209 2.12194 89.6659C1.13561 92.4479 5.96609 93.2571 9.32974 90.8546C9.98728 90.3994 9.98728 90.3994 11.6565 91.7651C21.014 99.4786 21.0644 115.513 11.7829 125.857C10.6954 127.045 10.6954 127.045 9.20328 126.287C5.61204 124.44 1.41381 126.059 1.03445 129.448C0.629803 132.862 5.1821 132.989 9.55736 129.65C13.1739 126.868 18.6619 141.056 16.7652 148.289C15.88 151.704 12.8957 156.104 11.9094 155.421C7.8376 152.614 2.72892 153.347 2.72892 156.736C2.72892 159.518 7.10417 160.226 10.9483 158.077C13.528 156.635 15.1718 164.323 13.4521 169.66C11.8841 174.465 9.4309 177.399 7.68585 176.488C5.48558 175.35 2.93123 175.755 2.09665 177.373C0.528642 180.433 4.01874 181.951 7.63527 179.776C9.05154 178.941 9.05154 178.941 9.98728 180.029C15.7029 186.554 17.0686 199.78 12.921 208.101C11.9347 210.049 11.9599 210.049 10.5437 209.291C6.64894 207.291 2.22311 209.139 2.22311 212.781C2.22311 216.472 7.0536 216.699 10.746 213.209C12.314 211.718 12.5669 211.87 14.1096 214.93C17.0433 220.823 13.4268 230.787 9.1527 228.562C6.2443 227.045 3.13357 227.473 1.99549 229.522C0.47806 232.228 5.25797 233.771 9.12741 231.849C13.2751 229.801 15.0454 240.094 11.6818 246.695C11.0748 247.909 11.0748 247.909 9.81026 247.048C5.28325 244.013 -0.432397 246.392 0.730965 250.817C1.79317 254.787 6.44663 255.166 9.962 251.576C11.7829 249.704 12.4405 250.513 13.1233 255.394C13.2751 256.507 13.4521 257.494 13.5027 257.57C13.8314 258.125 13.098 262.653 12.491 263.664C10.9483 266.27 10.7966 266.371 9.12741 265.536C5.25797 263.615 0.47806 265.157 1.99549 267.863C3.13357 269.912 6.2443 270.341 9.1527 268.823C13.4268 266.598 17.018 276.537 14.1096 282.455C12.5922 285.515 12.314 285.667 10.746 284.176C7.0536 280.686 2.22311 280.913 2.22311 284.604C2.22311 288.246 6.64894 290.094 10.5437 288.095C11.9599 287.336 11.9347 287.336 12.921 289.284C17.0686 297.605 15.7029 310.831 9.98728 317.356C9.05154 318.443 9.05154 318.443 7.63527 317.609C4.01874 315.435 0.528642 316.952 2.09665 320.012C2.93123 321.63 5.48558 322.036 7.68585 320.898C9.4309 319.987 11.8841 322.92 13.4521 327.726C15.1718 333.062 13.528 340.749 10.9483 339.308C7.10417 337.159 2.72892 337.866 2.72892 340.649C2.72892 344.038 7.8376 344.771 11.9094 341.963C12.8957 341.28 15.88 345.681 16.7652 349.095C18.6619 356.33 13.1739 370.518 9.55736 367.735C5.1821 364.397 0.629803 364.524 1.03445 367.938C1.41381 371.326 5.61204 372.945 9.20328 371.098C13.2751 369.025 19.547 382.682 18.6366 391.659C17.9538 398.59 11.8588 408.302 9.32974 406.53C5.96609 404.129 1.13561 404.937 2.12194 407.719C2.72892 409.464 5.58674 410.071 8.49516 409.034C13.528 407.239 16.4617 419.379 12.7187 426.435C11.1001 429.494 10.8219 429.697 9.55736 428.887C5.35912 426.232 0.553932 427.825 2.07136 431.366C3.13357 433.895 6.04197 434.299 9.20328 432.402C12.8957 430.177 17.0686 440.52 15.273 447.476C13.9832 452.535 11.8335 455.088 9.88613 453.9C7.35708 452.383 5.25797 452.762 5.25797 454.735C5.25797 456.632 7.48352 457.743 9.73439 456.984C12.6175 455.998 15.0707 463.485 13.7303 469.2C13.1233 471.679 11.6565 474.359 10.9483 474.183C5.66261 472.842 0.553932 474.461 1.9702 476.99C3.38646 479.518 7.60998 479.241 11.353 476.332C12.5669 475.397 17.625 478.356 19.3701 481.011C20.407 482.553 20.5081 482.377 18.0297 483.615C13.0727 486.07 11.0748 489.964 14.0338 491.354C17.1951 492.872 21.9245 488.953 21.9497 484.856C21.9497 483.414 21.9497 483.414 23.2901 483.008C30.6243 480.808 40.9428 481.567 46.0009 484.704C47.4931 485.615 47.5184 485.463 45.9251 486.373C41.1958 489.029 40.6899 493.151 45.0905 493.099C48.7323 493.023 51.3372 489.712 49.8956 486.929C49.3645 485.892 49.3141 485.918 52.9053 484.78C61.7316 481.946 72.9353 481.745 77.8922 484.298C78.6509 484.678 78.6509 484.678 77.1589 485.563C72.126 488.522 72.2273 492.746 77.3106 492.746C81.7616 492.746 84.2402 489.23 82.0905 485.994C81.4077 484.956 81.4077 484.956 82.3686 484.577C89.7281 481.618 100.603 481.163 105.965 483.566C107.659 484.325 107.735 484.477 106.622 484.932C101.792 486.853 100.603 490.546 104.194 492.341C108.696 494.592 113.046 490.622 110.846 486.297C110.112 484.805 109.935 484.981 112.692 484.401C123.187 482.25 138.488 484.425 133.557 487.333C130.547 489.129 129.384 491.178 130.674 492.468C132.899 494.693 138.514 491.43 137.679 488.446C137.578 488.168 137.477 487.712 137.401 487.46C137.123 486.525 142.333 485.311 146.632 485.311C151.513 485.285 152.626 485.867 150.855 487.536C147.82 490.368 148.073 493.175 151.336 493.099C154.194 493.05 155.888 490.116 154.877 487.03C154.674 486.449 155.838 485.892 159.277 484.981C161.477 484.374 168.255 484.349 169.747 484.932C170.759 485.336 170.759 485.336 169.495 485.639C165.195 486.726 161.25 490.823 160.87 494.668C160.289 500.334 169.317 495.679 171.695 489.078C172.099 487.967 172.251 487.967 172.656 489.078C175.033 495.679 184.062 500.334 183.48 494.668C183.101 490.823 179.155 486.726 174.856 485.639C173.592 485.336 173.592 485.336 174.603 484.932C176.095 484.349 182.873 484.374 185.073 484.981C188.513 485.892 189.676 486.449 189.474 487.03C188.462 490.116 190.157 493.05 193.015 493.099C196.278 493.175 196.53 490.368 193.495 487.536C191.725 485.867 192.837 485.285 197.719 485.311C202.017 485.311 207.228 486.525 206.949 487.46C206.873 487.712 206.773 488.168 206.672 488.446C205.838 491.43 211.452 494.693 213.677 492.468C214.967 491.178 213.804 489.129 210.794 487.333C205.862 484.425 221.164 482.25 231.658 484.401C234.415 484.981 234.238 484.805 233.504 486.297C231.304 490.622 235.655 494.592 240.156 492.341C243.747 490.546 242.559 486.853 237.753 484.932C236.615 484.477 236.691 484.325 238.386 483.566C243.747 481.163 254.623 481.618 261.982 484.577C262.942 484.956 262.942 484.956 262.259 485.994C260.11 489.23 262.589 492.746 267.039 492.746C272.123 492.746 272.225 488.522 267.191 485.563C265.7 484.678 265.7 484.678 266.459 484.298C271.415 481.745 282.619 481.946 291.445 484.78C295.036 485.918 294.987 485.892 294.455 486.929C293.014 489.712 295.618 493.023 299.26 493.099C303.661 493.151 303.154 489.029 298.45 486.373C296.832 485.463 296.857 485.615 298.35 484.704C303.408 481.567 313.727 480.808 321.086 483.008C322.401 483.414 322.401 483.414 322.401 484.856C322.425 488.953 327.156 492.872 330.316 491.354C333.275 489.964 331.278 486.07 326.321 483.615C323.842 482.377 323.943 482.553 324.98 481.011C326.725 478.356 331.784 475.397 332.998 476.332C336.741 479.241 340.965 479.518 342.38 476.99C343.797 474.461 338.689 472.842 333.402 474.183C332.695 474.359 331.227 471.679 330.62 469.2C329.28 463.485 331.733 455.998 334.616 456.984C336.868 457.743 339.093 456.632 339.093 454.735C339.093 452.762 336.993 452.383 334.464 453.9C332.516 455.088 330.367 452.535 329.077 447.476C327.281 440.52 331.454 430.177 335.147 432.402C338.309 434.299 341.217 433.895 342.279 431.366C343.797 427.825 338.992 426.232 334.793 428.887C333.529 429.697 333.25 429.494 331.632 426.435C327.888 419.379 330.823 407.239 335.855 409.034C338.764 410.071 341.621 409.464 342.228 407.719C343.214 404.937 338.385 404.129 335.02 406.53C334.364 406.985 334.364 406.985 332.695 405.619C323.336 397.907 323.287 381.872 332.568 371.529C333.654 370.339 333.654 370.339 335.147 371.098C338.738 372.945 342.937 371.326 343.317 367.938C343.721 364.524 339.168 364.397 334.793 367.735C331.177 370.518 325.688 356.33 327.585 349.095C328.471 345.681 331.454 341.28 332.441 341.963C336.513 344.771 341.621 344.038 341.621 340.649C341.621 337.866 337.247 337.159 333.402 339.308C330.823 340.749 329.178 333.062 330.898 327.726C332.467 322.92 334.92 319.987 336.665 320.898C338.865 322.036 341.42 321.63 342.254 320.012C343.821 316.952 340.331 315.435 336.716 317.609C335.299 318.443 335.299 318.443 334.364 317.356C328.647 310.831 327.281 297.605 331.43 289.284C332.416 287.336 332.391 287.336 333.806 288.095C337.702 290.094 342.127 288.246 342.127 284.604C342.127 280.913 337.296 280.686 333.605 284.176C332.036 285.667 331.784 285.515 330.24 282.455C327.308 276.562 330.923 266.598 335.198 268.823C338.106 270.341 341.217 269.912 342.355 267.863C343.872 265.157 339.093 263.615 335.223 265.536C333.554 266.371 333.402 266.27 331.86 263.664C331.253 262.653 330.519 258.125 330.847 257.57C330.898 257.494 331.075 256.507 331.227 255.394C331.909 250.513 332.568 249.704 334.388 251.576C337.903 255.166 342.558 254.787 343.62 250.817C344.783 246.392 339.068 244.013 334.54 247.048C333.275 247.909 333.275 247.909 332.668 246.695C329.305 240.094 331.075 229.801 335.223 231.849C339.093 233.771 343.872 232.228 342.355 229.522C341.217 227.473 338.106 227.045 335.198 228.562C330.923 230.787 327.332 220.848 330.24 214.93C331.758 211.87 332.036 211.718 333.605 213.209C337.296 216.699 342.127 216.472 342.127 212.781C342.127 209.139 337.702 207.291 333.806 209.291C332.391 210.049 332.416 210.049 331.43 208.101C327.281 199.78 328.647 186.554 334.364 180.029C335.299 178.941 335.299 178.941 336.716 179.776C340.331 181.951 343.821 180.433 342.254 177.373C341.42 175.755 338.865 175.35 336.665 176.488C334.92 177.399 332.467 174.465 330.898 169.66C329.178 164.323 330.823 156.635 333.402 158.077C337.247 160.226 341.621 159.518 341.621 156.736C341.621 153.347 336.513 152.614 332.441 155.421C331.454 156.104 328.471 151.704 327.585 148.289C325.688 141.056 331.177 126.868 334.793 129.65C339.168 132.989 343.721 132.862 343.317 129.448C342.937 126.059 338.738 124.44 335.147 126.287C331.075 128.36 324.804 114.704 325.714 105.725C326.397 98.7957 332.492 89.0842 335.02 90.8546C338.385 93.2571 343.214 92.4479 342.228 89.6659C341.621 87.9209 338.764 87.3139 335.855 88.3509C330.823 90.1464 327.888 78.0069 331.632 70.9509C333.25 67.8908 333.529 67.6884 334.793 68.4978C338.992 71.1533 343.797 69.56 342.279 66.0192C341.217 63.4902 338.309 63.0857 335.147 64.9824C331.454 67.2079 327.281 56.8642 329.077 49.9092C330.367 44.8511 332.516 42.2969 334.464 43.4854C336.993 45.0028 339.093 44.6235 339.093 42.6508C339.093 40.754 336.868 39.6414 334.616 40.4001C331.733 41.3864 329.28 33.9004 330.62 28.1848C331.227 25.7062 332.695 23.0255 333.402 23.2025C338.689 24.5429 343.797 22.9242 342.38 20.3952C340.965 17.8662 336.741 18.1444 332.998 21.0528C331.784 21.9885 326.725 19.0295 324.98 16.374C323.943 14.8313 323.842 15.0083 326.321 13.7691C331.278 11.3159 333.275 7.42119 330.316 6.03022C327.156 4.51279 322.425 8.43282 322.401 12.5299C322.401 13.9714 322.401 13.9714 321.086 14.3761C313.727 16.5764 303.408 15.8176 298.35 12.6816C296.857 11.7712 296.832 11.9229 298.45 11.0124C303.154 8.35695 303.661 4.23458 299.26 4.28517C295.618 4.36104 293.014 7.6741 294.455 10.456C294.987 11.493 295.036 11.4677 291.445 12.6058C282.619 15.4383 271.415 15.6406 266.459 13.0863C265.7 12.7069 265.7 12.7069 267.191 11.8217C272.225 8.86274 272.123 4.63924 267.039 4.63924C262.589 4.63924 260.11 8.15462 262.259 11.3918C262.942 12.4287 262.942 12.4287 261.982 12.8081C254.623 15.7671 243.747 16.2223 238.386 13.8197C236.691 13.061 236.615 12.9092 237.753 12.454C242.559 10.5319 243.747 6.83952 240.156 5.04389C235.655 2.79303 231.304 6.76365 233.504 11.0883C234.238 12.5804 234.415 12.4034 231.658 12.9851C221.164 15.1348 205.862 12.9598 210.794 10.0514C213.804 8.25577 214.967 6.20724 213.677 4.91743C211.452 2.69187 205.838 5.95434 206.672 8.93862C206.773 9.21682 206.873 9.67205 206.949 9.92495C207.228 10.8607 202.017 12.0747 197.719 12.0747C192.837 12.0999 191.725 11.5182 193.495 9.84907C196.53 7.01654 196.278 4.2093 193.015 4.28517C190.157 4.33576 188.462 7.26944 189.474 10.3549C189.676 10.9366 188.513 11.493 185.073 12.4034C182.873 13.0104 176.095 13.0357 174.603 12.454C173.592 12.0493 173.592 12.0493 174.856 11.7459C179.155 10.6584 183.101 6.56132 183.48 2.71715C184.062 -2.94791 175.033 1.70554 172.656 8.30636C172.251 9.41915 172.099 9.41915 171.695 8.30636C169.874 3.22297 163.526 -1.40519 161.376 0.7445ZM165.549 2.54013C168.23 4.38633 172.302 10.709 170.81 10.709C168.508 10.709 164.209 7.59823 162.868 4.96801C161.098 1.52851 162.388 0.365143 165.549 2.54013ZM182.14 2.64128C182.039 5.5497 178.953 8.91333 175.159 10.2284C173.111 10.9366 173.035 10.886 173.667 9.19153C175.615 4.08284 182.241 -1.05113 182.14 2.64128ZM134.796 6.0555C136.035 6.68777 136.844 9.03979 136.01 9.57089C135.302 10.0008 131.457 7.21887 131.457 6.25783C131.457 5.39796 133.304 5.29678 134.796 6.0555ZM212.235 5.65086C213.525 6.13137 212.59 7.59823 210.136 8.91333C208.062 10.0008 207.076 8.60985 208.669 6.78893C209.529 5.77732 211.198 5.24622 212.235 5.65086ZM46.9366 6.00493C48.7575 6.94067 49.5669 9.2674 48.4541 10.3549C48.0747 10.7595 47.9484 10.7342 46.8355 10.0767C44.18 8.50869 42.5867 6.30842 43.7754 5.82788C44.4076 5.5497 46.2792 5.67614 46.9366 6.00493ZM108.317 6.00493C110.391 6.89009 110.77 9.49502 109.101 11.5688C108.62 12.1505 104.852 10.5066 103.916 9.2674C102.196 7.1177 105.358 4.76568 108.317 6.00493ZM152.955 6.38429C154.067 7.47177 154.27 9.54559 153.308 9.87438C152.929 10.0008 150.729 8.02816 150.274 7.1177C149.49 5.57499 151.589 4.9933 152.955 6.38429ZM194.153 6.00493C194.582 6.53603 193.975 7.62352 192.509 8.91333C191.194 10.0767 190.864 10.102 190.536 9.14095C189.828 7.1177 192.888 4.4622 194.153 6.00493ZM239.119 5.92906C242.078 7.04183 241.522 9.14095 237.779 11.0124C235.401 12.1758 235.352 12.1758 234.49 10.279C233.227 7.42119 236.034 4.76568 239.119 5.92906ZM300.499 5.8026C301.764 6.28311 300.246 8.4581 297.515 10.0767C296.022 10.9619 295.466 10.6078 295.466 8.83746C295.466 6.66247 298.298 4.96801 300.499 5.8026ZM79.8144 6.43486C81.7616 7.3959 82.1664 9.46972 80.7501 11.0377C79.612 12.2517 75.7426 10.1779 74.7815 7.85113C74.0482 6.10609 77.26 5.19563 79.8144 6.43486ZM269.19 6.51073C270.378 7.52236 269.418 8.9892 266.383 10.8101C264.308 12.0493 263.221 11.6447 262.817 9.46972C262.311 6.78893 266.99 4.58866 269.19 6.51073ZM17.3215 7.57293C19.193 8.48339 20.6599 10.6584 20.6851 12.5299C20.6851 13.6932 20.8116 13.6932 18.6366 12.5804C13.5532 10.0261 12.2634 5.19563 17.3215 7.57293ZM330.216 7.62352C330.823 8.7363 328.698 11.0883 325.714 12.5804C323.539 13.6932 323.666 13.6932 323.666 12.5299C323.691 9.2674 328.977 5.29678 330.216 7.62352ZM138.691 12.2264C144.002 13.845 149.54 13.8956 152.6 12.3023C153.587 11.7964 153.587 11.7965 155.256 12.4793C160.921 14.8313 169.317 14.9831 171.72 12.8081C172.15 12.4287 172.2 12.4287 172.63 12.8081C175.033 14.9831 183.429 14.8313 189.095 12.4793C190.764 11.7965 190.764 11.7964 191.75 12.3023C194.861 13.9209 200.5 13.845 205.963 12.1252C207.911 11.493 207.911 11.493 208.618 12.0999C212.615 15.4636 223.895 16.2476 233.58 13.845C235.149 13.4403 235.149 13.4403 236.363 14.1991C241.698 17.6133 253.913 17.4615 262.766 13.8703C264.031 13.3645 264.259 13.3392 264.714 13.6426C269.57 17.0569 282.771 16.981 292.887 13.4909C295.846 12.4793 295.846 12.4793 296.908 13.3139C301.815 17.0316 313.017 18.0938 321.49 15.6153C322.173 15.4383 322.756 15.2865 322.78 15.3371C322.805 15.3624 323.108 15.9188 323.488 16.5511C324.449 18.2455 326.826 20.3194 329.254 21.5839C330.419 22.1655 331.405 22.6966 331.43 22.722C331.481 22.7472 331.101 23.506 330.62 24.3912C328.015 29.2974 328.546 36.8846 331.784 41.0323C332.264 41.614 332.239 41.614 331.126 42.9038C325.916 48.8723 326.067 58.8621 331.454 65.4881C332.695 67.0056 332.695 67.0056 332.088 67.7643C327.357 73.5812 327.257 82.4833 331.86 88.1485C333.023 89.5648 333.023 89.5648 330.671 91.9421C321.845 100.844 322.073 115.487 331.202 126.236C332.543 127.829 332.543 127.829 331.43 129.144C324.626 137.136 323.918 148.745 329.812 155.27C331.202 156.787 331.202 156.787 330.595 157.773C327.509 162.882 328.723 171.582 333.226 176.615C334.44 177.955 334.44 177.955 333.706 178.739C327.129 185.719 325.688 200.717 330.747 209.619C331.454 210.884 331.454 210.884 330.595 211.87C326.422 216.65 326.953 224.742 331.708 229.321C332.744 230.307 332.744 230.307 331.909 231.343C330.291 233.367 330.013 234.074 329.709 236.73C329.28 240.447 330.291 245.582 331.909 248.034C332.315 248.693 332.315 248.744 331.405 250.538C329.963 253.372 329.33 257.139 329.709 260.553C329.988 263.311 330.267 263.994 331.909 266.042C332.744 267.078 332.744 267.078 331.708 268.064C326.953 272.643 326.422 280.735 330.595 285.515C331.454 286.501 331.454 286.501 330.747 287.766C325.688 296.668 327.129 311.666 333.706 318.646C334.44 319.429 334.44 319.429 333.226 320.77C328.723 325.803 327.509 334.503 330.595 339.611C331.202 340.598 331.202 340.598 329.812 342.115C323.918 348.64 324.626 360.248 331.43 368.241C332.543 369.556 332.543 369.556 331.202 371.149C322.073 381.898 321.845 396.541 330.671 405.443C333.023 407.82 333.023 407.82 331.86 409.237C327.257 414.902 327.357 423.804 332.088 429.621C332.695 430.38 332.695 430.38 331.454 431.898C326.067 438.523 325.916 448.513 331.126 454.481C332.239 455.771 332.264 455.771 331.784 456.353C328.546 460.501 328.015 468.088 330.62 472.993C331.101 473.879 331.481 474.638 331.43 474.663C331.405 474.689 330.419 475.22 329.254 475.801C326.826 477.066 324.449 479.139 323.488 480.835C323.108 481.466 322.805 482.022 322.78 482.049C322.756 482.098 322.173 481.946 321.49 481.77C313.017 479.291 301.815 480.353 296.908 484.071C295.846 484.905 295.846 484.905 292.887 483.894C282.771 480.404 269.57 480.328 264.714 483.742C264.259 484.046 264.031 484.021 262.766 483.515C253.913 479.924 241.698 479.772 236.363 483.187C235.149 483.945 235.149 483.945 233.58 483.539C223.895 481.138 212.615 481.922 208.618 485.285C207.911 485.892 207.911 485.892 205.963 485.26C200.5 483.539 194.861 483.464 191.75 485.083C190.764 485.588 190.764 485.588 189.095 484.905C183.429 482.553 175.033 482.401 172.63 484.577C172.2 484.956 172.15 484.956 171.72 484.577C169.317 482.401 160.921 482.553 155.256 484.905C153.587 485.588 153.587 485.588 152.6 485.083C149.49 483.464 143.85 483.539 138.387 485.26C136.44 485.892 136.44 485.892 135.732 485.285C131.736 481.922 120.456 481.138 110.77 483.539C109.202 483.945 109.202 483.945 107.988 483.187C102.652 479.772 90.4364 479.924 81.5847 483.515C80.3201 484.021 80.0925 484.046 79.6372 483.742C74.7815 480.328 61.5798 480.404 51.4637 483.894C48.5047 484.905 48.5047 484.905 47.4425 484.071C42.5361 480.353 31.3325 479.291 22.8601 481.77C22.1773 481.946 21.5955 482.098 21.5703 482.049C21.5451 482.022 21.2416 481.466 20.8622 480.835C19.9011 479.139 17.5239 477.066 15.096 475.801C13.9326 475.22 12.9463 474.689 12.921 474.663C12.8704 474.638 13.2498 473.879 13.7303 472.993C16.3352 468.088 15.8041 460.501 12.5669 456.353C12.0864 455.771 12.1117 455.771 13.2245 454.481C18.4343 448.513 18.2826 438.523 12.8957 431.898C11.6565 430.38 11.6565 430.38 12.2634 429.621C16.9928 423.804 17.0939 414.902 12.491 409.237C11.3277 407.82 11.3277 407.82 13.6797 405.443C22.506 396.541 22.2784 381.898 13.1486 371.149C11.8082 369.556 11.8082 369.556 12.921 368.241C19.7242 360.248 20.4322 348.64 14.5396 342.115C13.1486 340.598 13.1486 340.598 13.7556 339.611C16.841 334.503 15.6271 325.803 11.1254 320.77C9.91141 319.429 9.91141 319.429 10.6448 318.646C17.2204 311.666 18.6619 296.668 13.6038 287.766C12.8957 286.501 12.8957 286.501 13.7556 285.515C17.9285 280.735 17.3974 272.643 12.6428 268.064C11.6059 267.078 11.6059 267.078 12.4405 266.042C14.0843 263.994 14.3625 263.311 14.6407 260.553C15.0201 257.139 14.3878 253.372 12.9463 250.538C12.0358 248.744 12.0358 248.693 12.4405 248.034C14.0591 245.582 15.0707 240.447 14.6407 236.73C14.3373 234.074 14.0591 233.367 12.4405 231.343C11.6059 230.307 11.6059 230.307 12.6428 229.321C17.3974 224.742 17.9285 216.65 13.7556 211.87C12.8957 210.884 12.8957 210.884 13.6038 209.619C18.6619 200.717 17.2204 185.719 10.6448 178.739C9.91141 177.955 9.91141 177.955 11.1254 176.615C15.6271 171.582 16.841 162.882 13.7556 157.773C13.1486 156.787 13.1486 156.787 14.5396 155.27C20.4322 148.745 19.7242 137.136 12.921 129.144C11.8082 127.829 11.8082 127.829 13.1486 126.236C22.2784 115.487 22.506 100.844 13.6797 91.9421C11.3277 89.5648 11.3277 89.5648 12.491 88.1485C17.0939 82.4833 16.9928 73.5812 12.2634 67.7643C11.6565 67.0056 11.6565 67.0056 12.8957 65.4881C18.2826 58.8621 18.4343 48.8723 13.2245 42.9038C12.1117 41.614 12.0864 41.614 12.5669 41.0323C15.8041 36.8846 16.3352 29.2974 13.7303 24.3912C13.2498 23.506 12.8704 22.7472 12.921 22.722C12.9463 22.6966 13.9326 22.1655 15.096 21.5839C17.5239 20.3194 19.9011 18.2455 20.8622 16.5511C21.2416 15.9188 21.5451 15.3624 21.5703 15.3371C21.5955 15.2865 22.1773 15.4383 22.8601 15.6153C31.3325 18.0938 42.5361 17.0316 47.4425 13.3139C48.5047 12.4793 48.5047 12.4793 51.4637 13.4909C61.5798 16.981 74.7815 17.0569 79.6372 13.6426C80.0925 13.3392 80.3201 13.3645 81.5847 13.8703C90.4364 17.4615 102.652 17.6133 107.988 14.1991C109.202 13.4403 109.202 13.4403 110.77 13.845C120.532 16.2476 132.849 15.3371 135.909 11.9482C136.162 11.67 136.49 11.493 136.667 11.5688C136.819 11.6194 137.73 11.9229 138.691 12.2264ZM7.5594 20.37C9.60793 21.0781 10.4931 21.9379 9.40561 22.1655C7.86288 22.4944 4.3981 22.2668 3.63938 21.7609C1.94491 20.6481 5.08094 19.51 7.5594 20.37ZM340.458 20.3446C342.911 21.4827 338.461 22.9242 334.92 22.1655C333.933 21.9379 333.933 21.9379 334.92 21.3309C336.868 20.0917 339.041 19.7124 340.458 20.3446ZM9.63323 41.791C9.93672 42.0945 8.6216 42.8784 7.48352 43.0302C6.54778 43.1567 6.47191 43.106 6.57307 42.5497C6.72481 41.5127 8.82393 40.9816 9.63323 41.791ZM337.499 41.8416C338.082 42.3473 337.903 43.0808 337.171 43.0808C336.488 43.0808 334.895 42.4232 334.641 42.0438C334.237 41.3864 336.741 41.2092 337.499 41.8416ZM8.39398 65.994C9.86084 66.9297 9.86084 66.9045 7.98934 67.8401C5.40971 69.13 3.18415 68.7254 3.18415 66.9803C3.18415 65.0077 5.9914 64.4766 8.39398 65.994ZM340.509 65.6653C342.962 67.7897 339.675 69.5093 336.361 67.8401C334.616 66.9803 334.54 66.8792 335.375 66.3481C337.626 64.9066 339.345 64.679 340.509 65.6653ZM7.78701 89.4889C8.67218 89.8177 8.67218 89.8177 7.53411 90.3235C5.40971 91.2844 3.23472 91.2592 3.23472 90.2729C3.23472 89.2107 5.86494 88.7555 7.78701 89.4889ZM340.559 89.5142C342.558 90.9051 339.572 91.5627 336.816 90.3235C335.678 89.8177 335.678 89.8177 336.564 89.4889C337.803 89.0083 339.876 89.0337 340.559 89.5142ZM8.6469 127.425C9.63323 127.88 9.63323 127.88 8.77334 128.588C5.23268 131.496 0.908 131.471 2.65305 128.563C3.66467 126.843 6.34545 126.312 8.6469 127.425ZM340.358 127.323C341.976 128.234 342.658 130.03 341.596 130.611C340.079 131.42 333.933 128.563 335.223 127.678C336.665 126.691 338.941 126.539 340.358 127.323ZM9.98728 155.75C11.4036 156.61 11.2012 156.863 8.46985 157.697C5.00507 158.734 2.50131 157.116 5.00507 155.421C6.19371 154.612 8.26754 154.764 9.98728 155.75ZM339.371 155.446C341.849 157.116 339.32 158.734 335.881 157.697C333.275 156.888 332.972 156.61 334.136 155.902C336.033 154.713 338.03 154.536 339.371 155.446ZM6.92714 177.525C7.96406 178.031 7.86288 178.259 6.16843 179.043C4.651 179.751 3.91756 179.801 3.38646 179.245C1.91962 177.803 4.67628 176.463 6.92714 177.525ZM340.862 177.626C341.723 178.486 341.242 179.65 340.028 179.65C339.396 179.65 336.968 178.562 336.716 178.183C336.185 177.297 340.028 176.792 340.862 177.626ZM10.0379 210.505C11.1254 211.06 11.1254 211.06 10.2908 211.946C7.40765 214.905 3.48764 215.209 3.48764 212.451C3.48764 210.15 7.18004 209.036 10.0379 210.505ZM338.941 210.099C341.116 211.009 341.545 213.589 339.624 214.247C337.423 215.006 332.188 211.591 334.06 210.605C335.855 209.695 337.55 209.518 338.941 210.099ZM8.3687 229.573C9.60793 230.18 9.55736 230.356 7.91347 230.963C4.54984 232.228 1.23678 230.762 4.01874 229.269C4.82802 228.839 7.15475 228.991 8.3687 229.573ZM340.331 229.294C343.165 230.736 339.775 232.228 336.437 230.963C334.616 230.28 334.717 230.004 337.069 229.142C337.778 228.89 339.724 228.966 340.331 229.294ZM8.16637 247.53C10.2402 248.49 10.5437 248.996 9.6838 250.083C6.87655 253.801 1.9702 253.7 1.86904 249.931C1.81846 247.378 5.13151 246.088 8.16637 247.53ZM341.268 247.554C344.075 249.375 341.748 253.649 338.41 252.765C336.082 252.131 333.63 249.578 334.44 248.641C335.881 247.048 339.572 246.441 341.268 247.554ZM7.91347 266.422C8.67218 266.699 9.30444 267.029 9.30444 267.154C9.30444 267.964 5.15681 268.723 4.01874 268.116C1.23678 266.623 4.54984 265.157 7.91347 266.422ZM340.889 266.371C342.734 267.888 338.637 269.077 336.006 267.812C334.743 267.205 334.793 267.029 336.386 266.422C338.131 265.764 340.104 265.739 340.889 266.371ZM8.06521 283.77C10.5437 285.086 11.3024 286.249 10.0885 286.881C6.64894 288.626 2.57718 286.78 3.63938 283.973C4.09461 282.784 6.06727 282.708 8.06521 283.77ZM339.624 283.087C341.672 283.087 340.889 286.68 338.662 287.412C336.158 288.222 332.771 286.805 334.06 285.439C335.502 283.948 338.055 282.683 339.041 282.986C339.244 283.038 339.497 283.087 339.624 283.087ZM6.16843 318.343C7.86288 319.126 7.96406 319.354 6.92714 319.86C4.67628 320.922 1.91962 319.581 3.38646 318.14C3.91756 317.584 4.651 317.635 6.16843 318.343ZM340.965 318.14C342.431 319.581 339.675 320.922 337.423 319.86C336.386 319.354 336.488 319.126 338.182 318.343C339.699 317.635 340.434 317.584 340.965 318.14ZM8.59631 339.738C11.2012 340.548 11.4036 340.801 9.98728 341.635C7.3065 343.204 2.98182 342.191 4.17048 340.269C4.85333 339.156 6.21901 339.004 8.59631 339.738ZM339.876 339.89C341.166 341.053 339.371 342.646 336.993 342.445C335.35 342.293 333.023 341.155 333.503 340.673C334.692 339.486 338.865 338.98 339.876 339.89ZM6.57307 367.407C9.25387 368.772 9.78497 369.429 8.6469 369.96C6.34545 371.073 3.66467 370.567 2.65305 368.822C1.33794 366.622 3.51292 365.863 6.57307 367.407ZM341.648 366.8C343.493 367.811 340.61 370.77 338.006 370.542C336.613 370.415 334.717 369.656 334.92 369.328C335.855 367.835 340.382 366.142 341.648 366.8ZM7.53411 407.061C8.67218 407.567 8.67218 407.567 7.78701 407.896C5.86494 408.63 3.23472 408.174 3.23472 407.112C3.23472 406.151 5.4603 406.126 7.53411 407.061ZM340.458 406.505C341.951 407.061 340.737 408.275 338.713 408.25C336.741 408.226 335.475 407.695 336.31 407.264C337.903 406.405 339.472 406.126 340.458 406.505ZM7.98934 429.546C9.86084 430.481 9.86084 430.456 8.39398 431.391C5.9914 432.909 3.18415 432.377 3.18415 430.405C3.18415 428.66 5.40971 428.256 7.98934 429.546ZM340.61 429.216C342.127 430.456 340.711 432.429 338.461 432.25C337.247 432.15 334.793 430.961 334.793 430.481C334.793 429.443 339.599 428.381 340.61 429.216ZM9.1527 454.936C10.0126 455.518 9.65851 455.949 8.31811 455.949C7.20534 455.949 6.5225 455.494 6.5225 454.735C6.5225 454.101 8.06521 454.228 9.1527 454.936ZM337.778 454.86C337.676 455.67 336.488 456.201 335.451 455.898C334.44 455.619 334.464 455.367 335.551 454.784C336.816 454.101 337.879 454.128 337.778 454.86ZM9.65851 475.27C10.4172 475.421 10.4172 475.421 9.40561 476.079C7.10417 477.572 3.66467 477.773 3.13357 476.408C2.72892 475.372 6.82598 474.663 9.65851 475.27ZM340.686 475.624C341.875 476.383 340.813 477.318 338.738 477.318C336.613 477.318 333.226 475.6 334.692 475.245C336.109 474.917 339.978 475.144 340.686 475.624ZM20.6851 484.829C20.6599 487.536 18.0297 490.216 15.3995 490.216C12.5416 490.216 14.3373 487.081 18.4343 484.905C20.7357 483.691 20.6851 483.691 20.6851 484.829ZM325.714 484.805C329.861 486.878 331.834 490.216 328.95 490.216C326.321 490.216 323.691 487.536 323.666 484.829C323.666 483.691 323.539 483.691 325.714 484.805ZM109.43 486.297C111.503 489.332 108.721 492.771 105.231 491.457C102.323 490.368 102.829 488.244 106.471 486.423C108.924 485.209 108.696 485.209 109.43 486.297ZM238.259 486.626C241.546 488.319 241.901 490.419 239.119 491.457C235.628 492.771 232.848 489.332 234.921 486.297C235.628 485.285 235.704 485.285 238.259 486.626ZM80.7501 486.347C82.8493 488.623 80.9271 491.481 77.26 491.481C73.4917 491.481 73.8458 489.053 77.9681 486.574C79.789 485.487 79.9155 485.463 80.7501 486.347ZM266.383 486.574C270.505 489.053 270.859 491.481 267.09 491.481C263.424 491.481 261.501 488.623 263.6 486.347C264.435 485.463 264.562 485.487 266.383 486.574ZM48.7071 487.46C49.6934 489.306 47.7208 491.734 45.2422 491.734C42.3339 491.734 42.9661 489.736 46.6079 487.46C47.9988 486.574 48.2264 486.574 48.7071 487.46ZM171.037 487.233C169.57 492.416 162.084 498.79 162.211 494.744C162.312 491.961 165.296 488.598 168.888 487.233C170.784 486.525 171.24 486.525 171.037 487.233ZM175.387 487.208C179.029 488.574 182.039 491.912 182.14 494.744C182.241 498.006 176.5 494.086 174.199 489.332C172.807 486.398 172.858 486.271 175.387 487.208ZM297.767 487.46C301.384 489.736 302.016 491.734 299.108 491.734C296.477 491.734 294.404 488.801 295.821 487.105C296.276 486.55 296.301 486.55 297.767 487.46ZM153.814 488.244C154.345 489.736 152.929 491.734 151.361 491.734C149.464 491.734 149.667 490.394 151.842 488.471C153.157 487.308 153.486 487.284 153.814 488.244ZM192.509 488.471C194.633 490.368 194.885 491.734 193.065 491.734C191.244 491.734 189.803 489.484 190.637 487.915C191.016 487.257 191.168 487.284 192.509 488.471ZM136.212 488.902C136.339 490.723 133.885 492.416 132.115 491.734C130.825 491.254 131.786 489.788 134.239 488.446C135.934 487.536 136.111 487.561 136.212 488.902ZM210.162 488.498C212.59 489.788 213.525 491.254 212.235 491.734C210.542 492.392 208.087 490.774 208.087 489.002C208.087 487.435 208.163 487.436 210.162 488.498Z" fill="black"/>
</svg>
