<svg width="354" height="514" viewBox="0 0 354 514" fill="none" xmlns="http://www.w3.org/2000/svg">
<path d="M163.202 0.928942C157.335 3.9891 164.113 14.1053 172.712 15.1928C174.457 15.3951 174.457 15.3951 171.599 18C167.325 21.8948 166.945 22.2994 167.122 22.704C167.957 24.8791 175.215 20.3015 176.935 16.5079C177.062 16.2297 177.112 16.2297 177.239 16.5079C178.958 20.3015 186.217 24.8791 187.051 22.704C187.228 22.2994 186.849 21.8948 182.575 18C179.717 15.3951 179.717 15.3951 181.462 15.1928C190.061 14.1053 196.838 3.9891 190.971 0.928942C187.153 -1.06901 177.34 5.53181 177.34 10.1094C177.34 10.3117 177.239 10.4888 177.087 10.4888C176.96 10.4888 176.834 10.3117 176.834 10.1094C176.834 5.53181 167.021 -1.06901 163.202 0.928942ZM168.235 3.7362C172.433 5.75942 177.34 12.3097 174.76 12.4614C170.006 12.7396 163.177 8.2379 163.177 4.7984C163.177 2.54754 164.947 2.16818 168.235 3.7362ZM190.567 3.33154C193.5 5.98704 185.18 12.8155 179.414 12.4614C178.124 12.3855 178.124 12.3855 178.908 10.7417C181.209 5.91117 188.366 1.35888 190.567 3.33154Z" fill="black"/>
<path d="M30.2718 6.06264C12.3156 8.11117 3.43862 15.6224 3.48919 28.6977C3.51449 38.4851 6.62522 45.8446 16.615 59.805C31.334 80.4166 31.3847 88.3579 16.8679 119.238C1.71886 151.458 -1.46774 167.618 2.09821 193.591C3.89385 206.641 7.25748 218.352 15.4769 240.379C30.0949 279.504 30.4488 290.126 18.6382 331.298C10.7982 358.587 8.80019 368.526 8.80019 380.614C8.77491 393.639 10.0141 398.319 19.7257 421.46C28.3751 442.121 28.6279 448.14 21.7995 468.5C13.7824 492.449 14.9964 503.147 26.3518 508.837C37.7325 514.503 52.6033 512.479 72.7599 502.515C90.7162 493.638 96.1283 493.689 117.347 502.87C132.673 509.52 143.219 510.178 153.765 505.17C159.911 502.263 158.495 501.2 149.542 501.984C137.251 503.071 132.901 502.464 120.736 497.987C99.3655 490.123 90.539 489.92 76.7304 497.001C63.5288 503.754 61.1515 504.918 58.3443 505.905C41.8802 511.72 25.8965 509.292 21.6731 500.315C18.4612 493.462 19.5739 485.671 26.2254 468.5C35.0265 445.788 34.6217 439.138 22.8617 411.596C17.9554 400.037 16.3621 395.536 14.9964 389.214C11.9109 375.075 14.0859 357.196 22.8364 324.166C28.5268 302.721 29.5638 296.245 29.3107 283.246C29.0579 269.462 27.667 262.585 19.0176 231.906C4.60198 180.87 4.98133 162.99 21.3442 121.665C30.6764 98.0947 32.4721 89.496 30.196 79.2786C28.5774 72.0962 27.2118 69.5418 16.2103 53.4822C3.51449 34.9191 4.2479 19.3402 18.0818 14.0291C30.7018 9.14807 49.6191 10.008 82.3703 16.9628C116.007 24.12 127.286 25.0304 141.12 21.7427C149.415 19.7701 157.736 14.7373 155.283 13.1693C154.979 12.9922 154.448 13.144 153.158 13.8268C141.297 19.9977 122.987 19.5931 88.0859 12.3853C58.9006 6.36613 42.8665 4.62108 30.2718 6.06264Z" fill="black"/>
<path d="M305.178 5.96215C296.808 6.61971 286.085 8.31416 272.174 11.172C241.852 17.3429 238.059 17.8993 225.64 17.9246C214.083 17.9499 206.545 16.7106 201.007 13.8275C199.717 13.1447 199.186 12.9929 198.882 13.1699C196.43 14.738 204.751 19.7708 213.046 21.7435C226.879 25.0312 238.159 24.1207 271.795 16.9635C304.547 10.0086 323.463 9.14875 336.085 14.0298C349.918 19.3408 350.652 34.9197 337.955 53.483C326.953 69.5425 325.588 72.0967 323.97 79.2793C321.694 89.4967 323.49 98.0954 332.822 121.666C349.184 162.991 349.563 180.871 335.147 231.907C326.498 262.585 325.108 269.463 324.856 283.247C324.601 296.246 325.639 302.721 331.329 324.166C340.079 357.197 342.255 375.076 339.169 389.215C337.803 395.537 336.21 400.038 331.305 411.597C319.545 439.112 319.165 445.84 327.94 468.501C334.592 485.648 335.705 493.462 332.492 500.315C328.27 509.293 312.286 511.721 295.821 505.905C293.014 504.919 290.637 503.754 277.436 497.002C263.627 489.921 254.8 490.124 233.43 497.988C221.264 502.464 216.915 503.071 204.624 501.985C195.671 501.201 194.254 502.263 200.4 505.171C210.946 510.179 221.492 509.521 236.818 502.87C258.037 493.69 263.449 493.639 281.406 502.516C301.563 512.48 316.434 514.503 327.815 508.838C339.169 503.147 340.383 492.449 332.367 468.501C325.538 448.14 325.791 442.122 334.44 421.46C344.152 398.319 345.39 393.64 345.365 380.615C345.365 368.527 343.368 358.587 335.527 331.298C323.717 290.127 324.07 279.505 338.689 240.38C358.846 186.435 358.592 164.559 337.298 119.238C322.78 88.3586 322.832 80.4174 337.551 59.8055C347.541 45.8452 350.652 38.4857 350.676 28.6982C350.752 11.7031 334.643 3.66072 305.178 5.96215Z" fill="black"/>
<path d="M163.202 491.311C157.335 494.372 164.113 504.488 172.712 505.575C174.457 505.778 174.457 505.778 171.599 508.382C167.325 512.278 166.945 512.682 167.122 513.086C167.957 515.262 175.215 510.685 176.935 506.891C177.062 506.612 177.112 506.612 177.239 506.891C178.958 510.685 186.217 515.262 187.051 513.086C187.228 512.682 186.849 512.278 182.575 508.382C179.717 505.778 179.717 505.778 181.462 505.575C190.061 504.488 196.838 494.372 190.971 491.311C187.153 489.313 177.34 495.914 177.34 500.491C177.34 500.694 177.239 500.871 177.087 500.871C176.96 500.871 176.834 500.694 176.834 500.491C176.834 495.914 167.021 489.313 163.202 491.311ZM168.235 494.118C172.433 496.142 177.34 502.692 174.76 502.843C170.006 503.122 163.177 498.621 163.177 495.18C163.177 492.931 164.947 492.551 168.235 494.118ZM190.567 493.714C193.5 496.37 185.18 503.198 179.414 502.843C178.124 502.767 178.124 502.767 178.908 501.125C181.209 496.294 188.366 491.741 190.567 493.714Z" fill="black"/>
</svg>
