<svg width="349" height="498" viewBox="0 0 349 498" fill="none" xmlns="http://www.w3.org/2000/svg">
<path d="M36.6218 1.06011C21.2199 2.37522 8.22051 5.84001 9.73794 8.21733C10.0667 8.72312 10.269 8.69784 13.6074 8.015C29.8944 4.72724 43.3491 4.72724 71.5226 8.09087C96.5096 11.0751 106.879 11.0246 141.451 7.73679C177.616 4.29729 189.604 4.17083 215.755 7.00338C227.236 8.21733 230.878 8.49551 237.682 8.67256C247.166 8.90017 251.339 8.62197 277.639 6.11821C295.166 4.42375 302.855 4.01909 322.404 3.69032C339.02 3.41212 339.905 3.36155 339.805 2.60283C339.425 -0.0526728 307.002 0.655462 272.835 4.06968C246.735 6.67459 238.086 6.77577 221.874 4.67665C200.302 1.91999 197.394 1.59121 188.238 1.16127C175.34 0.554299 163.201 0.984238 138.669 2.93161C107.283 5.43536 96.4337 5.43536 73.2929 2.93161C57.891 1.26243 56.0953 1.13598 46.7379 1.03482C41.8063 1.00953 37.254 1.00953 36.6218 1.06011Z" fill="black"/>
<path d="M342.278 13.2495C341.95 13.806 341.115 17.903 340.736 20.7609C339.877 27.6398 339.801 31.3575 339.826 62.7431C339.877 97.9727 339.774 102.753 338.156 132.545C336.967 154.8 337.549 169.14 340.736 194.633C345.01 228.978 344.96 240.738 340.357 286.565C336.994 320.024 336.967 327.484 340.104 355.733C342.733 379.632 343.189 391.191 342.202 411.018C341.698 421.589 341.647 435.601 342.102 443.491C342.557 451.458 342.506 461.701 341.925 469.111C341.571 474.119 341.546 475.181 341.823 475.409C342.481 475.964 342.885 475.003 343.492 471.312C344.706 464.053 344.757 462.966 344.782 442.226C344.808 426.217 344.884 421.513 345.237 416.557C346.781 395.237 346.25 382.515 342.633 355.05C340.205 336.461 339.522 320.908 340.56 308.567C341.292 299.994 342.001 293.266 344.023 275.943C349.461 229.661 349.765 220.429 346.933 186.161C346.375 179.484 345.795 172.15 345.617 169.848C345.188 164.208 345.188 138.488 345.643 119.014C346.098 98.8073 345.768 85.7574 344.15 59.3289C342.836 37.6296 342.532 25.6672 343.189 19.0411C343.695 13.7048 343.34 11.5298 342.278 13.2495Z" fill="black"/>
<path d="M8.72633 19.0914C4.12345 24.5795 3.51648 38.0847 6.90542 59.0757C9.38389 74.3765 9.68738 77.74 9.48505 88.1599C9.3333 95.7975 9.0551 99.4899 7.66413 112.186C4.62927 140.005 4.73043 149.793 8.42285 180.597C12.7475 216.736 12.4946 231.607 6.88013 271.011C1.87261 306.215 1.46796 315.572 3.7441 341.696C5.74206 364.56 5.59032 372.096 2.60603 395.186C0.860987 408.691 0.683954 410.739 0.532211 418.15C0.329887 427.431 0.48163 428.899 2.9601 445.388C4.19933 453.658 4.50281 457.275 4.75573 467.643C5.05922 480.061 5.41327 482.817 6.60193 482.641C9.35859 482.262 8.67574 463.573 5.13509 442.606C2.02435 424.169 2.02435 418.782 5.00863 395.692C7.84116 373.817 8.19523 366.381 7.41123 345.238C6.55134 322.476 6.98129 315.193 11.2048 280.495C16.5158 236.842 16.5411 221.77 11.3312 183.631C6.88013 151.007 6.82955 140.182 10.9519 110.415C14.619 84.0628 14.5937 78.0435 10.699 54.9027C7.91703 38.4386 7.71472 30.4721 9.83912 21.3171C10.522 18.4339 10.0667 17.5234 8.72633 19.0914Z" fill="black"/>
<path d="M313.677 484.866C313.121 484.918 311.351 485.094 309.758 485.246C308.165 485.398 302.802 486.005 297.871 486.612C276.223 489.267 270.202 489.445 249.313 488.08C230.876 486.839 219.926 487.093 198.731 489.167C171.949 491.771 165.5 491.695 145.243 488.508C129.461 486.031 122.178 485.904 105.789 487.776C91.6269 489.394 89.7553 489.571 83.3821 489.698C74.6569 489.901 71.5714 489.597 58.1675 487.245C43.7265 484.741 32.6241 485.018 23.0642 488.129C18.2084 489.722 14.6172 492.074 14.6172 493.694C14.6172 494.933 15.5024 494.832 17.5256 493.315C21.4457 490.405 30.2973 488.635 40.793 488.635C48.6836 488.635 49.6445 488.736 59.8872 490.684C75.9973 493.694 83.5086 493.998 101.996 492.328C121.773 490.532 128.298 490.735 143.852 493.719C152.931 495.464 154.853 495.792 159.051 496.323C170.533 497.816 179.992 497.664 202.146 495.716C218.964 494.25 220.154 494.199 234.897 494.326C259.632 494.502 270.76 494.453 274.224 494.123C281.962 493.364 287.122 492.605 301.158 490.153C314.462 487.825 315.6 487.7 325.437 487.522C333.327 487.397 334.162 487.321 334.238 486.942C334.517 485.525 321.087 484.159 313.677 484.866Z" fill="black"/>
</svg>
