<svg width="362" height="515" viewBox="0 0 362 515" fill="none" xmlns="http://www.w3.org/2000/svg">
<path d="M128.466 0.611292C123.079 1.97698 121.03 6.85804 123.686 12.0426C124.9 14.3946 125.229 14.0911 120.069 15.4062C107.854 18.517 97.4849 17.8847 78.2135 12.8772C63.7727 9.1089 57.2225 8.17316 49.4837 8.70426C41.9724 9.23536 35.4727 11.2839 35.4727 13.1048C35.4727 13.99 36.029 14.0658 37.6729 13.4083C46.3729 9.86761 57.526 10.6769 76.4433 16.1649C98.6484 22.6141 111.951 23.0946 125.608 17.8847C127.884 17.0248 127.884 17.0248 130.666 18.4411C141.061 23.6509 151.581 22.69 177.605 14.2429C206.311 4.88538 224.596 4.12666 239.315 11.6379C242.399 13.206 242.222 12.9531 241.337 14.6728C238.074 20.9954 243.436 27.7227 249.81 25.2948C254.134 23.6257 254.11 19.1745 249.734 14.4705C248.495 13.1301 248.52 13.0795 250.796 12.5231C258.939 10.5252 267.412 11.0057 284.204 14.3946C302.971 18.1882 311.493 18.4158 320.497 15.3809C323.733 14.2682 322.495 13.4842 318.094 13.8129C307.497 14.6475 299.909 14.1923 288.377 12.0679C272.571 9.18477 269.94 8.856 262.201 8.856C256.435 8.88128 250.24 9.61471 246.395 10.7528C245.585 11.0057 245.358 10.9551 244.119 10.2217C230.21 1.97698 208.004 2.43221 179.123 11.5368C160.661 17.3789 156.159 18.4917 148.445 19.1239C142.451 19.6297 136.862 18.8458 132.538 16.8731C130.16 15.7856 130.16 15.912 132.361 14.5211C141.566 8.67897 138.607 -1.94306 128.466 0.611292ZM133.296 3.69674C136.761 5.36591 134.965 9.03303 129.199 12.0426C126.898 13.2312 126.341 12.9278 125.229 9.96877C123.382 5.11299 128.289 1.29414 133.296 3.69674ZM247.533 18.6687C249.076 21.7541 247.761 23.9039 245.03 22.7658C242.551 21.7289 241.995 18.517 243.943 16.1649C244.802 15.1027 246.268 16.1144 247.533 18.6687Z" fill="black"/>
<path d="M23.2839 1.69902C20.8814 2.60947 17.3153 6.68125 15.7726 10.2978C15.2921 11.4106 15.2921 11.4106 13.8758 10.0955C4.03783 0.78856 4.1137 17.5562 13.9517 28.0012C23.5369 38.1427 27.4568 36.4229 29.0501 21.3497C30.5675 6.90886 28.4938 -0.223059 23.2839 1.69902ZM25.5854 6.73183C26.4452 10.7024 24.9785 25.902 23.3852 29.4934C21.5388 33.6915 8.69129 18.0367 8.66599 11.537C8.66599 8.65391 9.9558 9.46321 15.0645 15.4823C17.7959 18.7195 19.0857 18.6689 17.543 15.3812C16.6831 13.535 18.3775 10.1461 21.8677 6.75712C24.4474 4.25336 25.0543 4.25336 25.5854 6.73183Z" fill="black"/>
<path d="M333.346 3.51977C328.338 4.7843 326.087 13.3831 328.439 22.2094C331.601 33.9695 337.19 32.7303 346.875 18.163C355.324 5.44186 352.01 -1.66477 341.363 6.30173C340.377 7.03516 339.819 7.33865 339.743 7.13632C338.935 4.60728 335.874 2.86223 333.346 3.51977ZM335.646 6.02353C336.608 6.52935 337.115 7.36393 337.949 9.91828C339.011 13.029 339.946 13.6107 340.377 11.3598C340.73 9.48834 348.823 5.21425 348.823 6.88342C348.823 11.6127 335.849 28.5826 333.725 26.6354C328.11 21.4761 329.831 3.03926 335.646 6.02353Z" fill="black"/>
<path d="M348.118 25.6239C345.235 27.3941 344.097 41.5315 346.043 51.1926C346.752 54.6572 347.384 57.0851 350.671 68.8959C357.803 94.3634 358.182 114.773 351.836 130.023C350.925 132.173 351.126 132.097 349.736 131.009C345.083 127.469 339.696 130.048 339.67 135.84C339.645 140.493 343.262 143.199 347.739 141.859C348.877 141.53 349.457 141.176 351.657 139.456C353.934 137.686 355.73 151.014 354.415 159.942C353.353 167.276 351.229 174.205 345.335 189.532C332.462 223.093 331.627 233.208 338.987 268.236C345.057 297.244 346.65 314.719 344.677 330.4C343.843 336.976 344.021 336.621 341.542 336.798C333.095 337.355 327.657 344.284 330.844 350.43C334.562 357.586 341.415 354.4 345.184 343.728C345.994 341.401 346.043 341.401 348.826 343.046C357.399 348.102 360.383 360.724 356.792 376.732C355.857 380.879 354.895 384.016 351.229 395.017C346.65 408.699 345.208 414.668 344.097 424.304C343.312 431.03 343.666 467.727 344.501 468.562C345.083 469.144 345.639 468.385 345.967 466.69C346.726 462.441 346.878 459.584 347.056 443.321C347.333 419.069 347.763 416.438 354.668 395.473C362.002 373.167 363.065 364.642 359.927 352.958C357.678 344.536 351.961 337.48 347.409 337.48C347.056 337.48 347.029 337.304 347.156 336.393C350.292 317.299 349.154 301.214 342.325 268.312C335.068 233.184 335.724 224.508 348.243 191.175C358.916 162.749 360.534 149.851 354.996 137.914C354.112 136.042 354.112 135.966 354.491 135.208C362.382 119.957 361.547 94.9704 352.113 63.6101C346.574 45.1733 345.891 38.876 348.446 29.0885C349.281 25.8767 349.18 24.9663 348.118 25.6239ZM346.878 132.704C349.508 133.817 349.685 134.803 347.612 136.75C346.271 137.99 345.411 138.141 344.273 137.383C341.39 135.435 343.642 131.363 346.878 132.704ZM342.504 341.249C342.504 342.211 340.303 346.915 339.038 348.66C336.661 351.922 333.903 351.517 333.903 347.901C333.903 344.739 336.255 342.184 339.973 341.376C341.694 340.997 342.504 340.946 342.504 341.249Z" fill="black"/>
<path d="M7.52512 32.8318C2.87168 41.1777 2.84637 47.4498 7.37338 63.3069C12.6591 81.7437 14.1007 93.7566 12.2292 103.898C11.4199 108.45 9.92773 113.079 9.39662 112.75C7.32279 111.46 2.34057 113.787 1.55657 116.417C-0.0367337 121.703 6.84228 122.714 10.3071 117.681C12.0015 115.254 16.3262 122.588 17.616 130.099C19.2852 139.634 18.0713 149.472 12.3303 173.093C2.39115 213.81 1.7336 230.098 8.68848 262.243C9.39662 265.429 10.5094 270.664 11.2175 273.851C16.0733 296.309 16.8067 312.722 13.5443 327.365C12.7603 330.982 12.9373 330.779 11.4199 329.818C6.46292 326.758 1.2025 330.804 0.873724 337.886C0.418495 348.357 8.58732 348.002 13.089 337.355C13.8225 335.66 13.8225 335.66 14.2524 336.521C20.0692 347.395 18.7541 364.39 10.4335 385.659C6.46292 395.826 5.40072 399.595 4.3638 406.854C4.08562 408.927 3.75683 411.076 3.60509 411.683C0.317332 426.353 2.23941 448.583 7.8792 461.329C11.5716 469.675 15.0364 476.504 15.694 476.756C16.9079 477.236 16.7562 476.276 14.8088 471.014C7.98035 452.477 6.63995 446.407 6.63995 433.864C6.63995 421.091 8.53674 410.824 14.9858 388.821C22.9017 361.735 23.1799 345.802 15.8963 334.472C14.8341 332.803 14.8341 332.803 15.4411 330.779C20.0692 314.694 19.5381 298.357 13.3419 266.92C6.18472 230.629 6.56408 216.845 15.8457 177.873C20.8531 156.857 21.7636 151.52 21.9912 141.986C22.2695 129.416 20.0185 121.5 14.6065 116.038C12.5579 113.989 12.5579 113.989 13.1396 112.497C17.6413 101.04 16.5538 85.2338 9.82655 63.3322C5.07195 47.8037 4.8949 42.6445 8.78965 33.9699C10.2312 30.8085 9.19429 29.8474 7.52512 32.8318ZM6.96874 116.695C5.17311 118.44 3.70626 118.415 4.64201 116.67C4.97078 116.012 6.26059 115.456 7.39866 115.456C8.28384 115.431 8.28384 115.431 6.96874 116.695ZM9.80127 331.665C12.0015 332.727 12.128 333.055 11.0658 335.61C7.70215 343.753 3.75683 345.701 2.97283 339.632C2.28999 334.269 6.08356 329.869 9.80127 331.665Z" fill="black"/>
<path d="M348.112 478.653C345.936 479.69 342.774 483.305 341.966 485.657C341.611 486.644 341.511 486.644 340.574 485.657C338.146 483.053 334.049 482.674 331.824 484.849C327.474 489.072 331.217 499.568 340.069 508.142C347.023 514.868 349.477 513.529 352.461 501.313C356.734 483.888 355.092 475.263 348.112 478.653ZM351.651 480.802C353.751 483.205 352.133 494.586 348.263 504.601C346.719 508.622 346.518 508.749 344.546 507.307C335.466 500.631 329.295 487.478 334.403 485.784C336.427 485.102 338.324 486.34 340.98 490.084C343.863 494.13 345.405 493.499 343.256 489.123C342.801 488.212 342.801 488.085 343.18 487.353C345.405 483.002 350.285 479.235 351.651 480.802Z" fill="black"/>
<path d="M7.48012 480.676C3.13016 483.76 4.77405 496.937 11.122 509.911C12.8923 513.553 13.2464 513.705 15.4213 511.657C21.7186 505.739 29.6599 494.762 31.4556 489.502C34.3387 481.132 26.094 479.462 18.6332 486.871C16.5341 488.946 16.5341 488.946 16.1295 487.505C14.435 481.687 10.4644 478.577 7.48012 480.676ZM10.4138 483.281C11.7289 484.394 14.4856 491.071 14.4856 493.119C14.4856 495.117 15.9019 494.661 18.2539 491.905C21.3899 488.237 24.2983 486.037 26.8779 485.43C31.9613 484.216 27.7884 492.713 17.3181 504.98C16.1042 506.397 14.7132 508.039 14.2327 508.622C13.0946 510.063 13.1958 510.164 11.7542 506.473C6.64553 493.548 5.81095 479.436 10.4138 483.281Z" fill="black"/>
<path d="M253.428 490.792C247.131 491.602 245.082 498.252 249.71 502.88C251.101 504.272 250.545 504.601 244.399 506.194C234.157 508.849 211.395 510.039 195.942 508.749C178.567 507.307 168.653 505.915 151.304 502.501C137.42 499.769 130.642 499.011 124.749 499.517C121.613 499.796 121.613 499.796 120.197 498.707C111.295 491.778 86.6616 490.261 59.7526 494.94C46.3992 497.266 32.0341 501.793 32.2365 503.614C32.363 504.652 33.0458 504.576 38.4327 502.78C65.5441 493.878 102.038 492.334 115.72 499.517C117.162 500.276 117.39 500.479 117.01 500.655C116.757 500.756 115.518 501.211 114.279 501.642C107.122 504.197 104.314 509.153 108.032 512.77C113.798 518.358 125.685 511.784 123.889 503.994C123.383 501.717 134.511 502.501 154.592 506.143C197.004 513.832 236.078 513.984 252.921 506.522C254.262 505.915 254.262 505.915 256.336 506.522C263.746 508.673 271.586 508.091 290.023 504.018C305.753 500.528 309.977 500.276 319.713 502.273C322.623 502.855 324.189 503.083 324.368 502.907C325.075 502.197 323.533 501.211 319.334 499.769C311.14 496.938 304.565 497.114 287.115 500.604C274.19 503.184 272.092 503.462 265.617 503.487C258.587 503.514 258.536 503.514 259.953 501.97C265.137 496.431 261.243 489.781 253.428 490.792ZM256.563 494.03C260.23 495.065 259.902 498.582 255.905 501.363C254.718 502.173 254.363 502.072 252.39 500.528C248.344 497.368 251.404 492.613 256.563 494.03ZM120.627 505.89C120.323 508.546 117.314 510.746 113.925 510.771C107.628 510.822 110.435 506.549 118.174 504.322C120.652 503.59 120.854 503.715 120.627 505.89Z" fill="black"/>
</svg>
