<svg width="358" height="508" viewBox="0 0 358 508" fill="none" xmlns="http://www.w3.org/2000/svg">
<path d="M149.834 1.10268C142.424 2.29133 135.773 6.8942 130.993 14.102C129.273 16.7322 129.273 16.7322 128.742 16.1C125.404 12.0788 124.316 10.9407 122.495 9.47383C110.963 0.19222 95.6367 2.72127 83.7248 15.847C83.0672 16.5805 82.4855 17.1622 82.4602 17.1116C82.4096 17.061 81.9039 16.1252 81.2969 15.0124C72.2428 -1.75515 54.7672 -3.47489 45.9661 11.5224C45.3339 12.6099 45.3339 12.6099 44.2717 11.143C39.2135 4.28928 30.0583 1.73494 23.3564 5.3009C18.9811 7.65291 16.9325 12.6857 18.7535 16.6816C19.2846 17.845 19.2846 17.845 17.6913 18.022C0.493725 19.7924 -4.51379 42.2756 10.5341 50.1662C12.6079 51.2537 12.6332 50.8997 10.2306 52.8976C-0.720218 62.1033 2.23877 76.2408 16.4267 82.5381C17.9189 83.1956 17.9189 83.1956 16.882 84.2578C9.57301 91.8703 7.90384 107.55 13.6195 115.163C13.923 115.567 14.2518 116.048 14.3529 116.225C14.4541 116.402 13.6701 117.211 12.3297 118.274C-2.38938 130.008 -2.99636 143.792 10.7364 153.832C11.6468 154.49 12.4308 155.071 12.4561 155.122C12.5067 155.172 11.8997 155.982 11.1157 156.917C4.46433 164.732 6.08292 179.932 14.4035 188.278C15.0358 188.885 15.4404 189.39 15.314 189.39C14.8081 189.39 11.2422 191.97 9.8765 193.336C2.11232 201.099 2.23877 211.975 10.2053 220.877C12.355 223.28 12.355 222.874 10.4582 225.936C1.93528 239.769 4.11026 250.871 16.882 258.534C18.3741 259.42 18.3741 259.42 17.0084 260.078C-0.0120845 268.625 -2.23764 284.786 11.6974 299.176C14.7829 302.388 14.7829 302.388 14.1759 302.794C0.544307 311.695 0.316693 328.563 13.6701 338.857C15.0105 339.919 15.0105 339.919 12.9619 341.867C2.44109 351.731 0.873083 366.474 9.42127 375.251C10.4329 376.287 11.2169 377.148 11.1916 377.172C11.141 377.224 10.6099 377.5 9.97767 377.804C-0.391443 383.014 -0.0879563 397.151 10.5593 406.18C12.1526 407.546 12.2032 407.597 11.6215 407.849C1.1007 412.656 2.79516 429.928 14.6311 438.376C16.3003 439.539 16.3003 439.539 14.4541 440.777C1.78354 449.25 0.797212 464.07 12.5573 468.901C14.5047 469.711 14.5047 469.711 12.4308 471.885C3.75621 480.989 -0.0626647 496.366 5.50125 499.805C9.29483 502.157 16.9831 498.77 20.5239 493.18C21.5354 491.587 21.5354 491.587 21.8389 493.053C24.3933 504.712 42.906 507.14 53.5532 497.201C54.7419 496.088 54.7924 496.063 55.1465 496.543C65.0604 510.454 88.353 510.454 102.946 496.594C105.449 494.191 105.449 494.191 106.309 495.431C117.361 511.465 142.298 511.49 158.711 495.481C161.392 492.876 161.392 492.876 163.466 495.153C175.276 508.026 193.587 508.785 207.673 496.973C209.469 495.431 209.469 495.431 210.455 497.101C217.46 509.113 233.799 507.671 244.167 494.166C244.801 493.356 244.801 493.356 245.912 494.9C255.423 507.999 273.201 507.747 282.558 494.394C283.747 492.7 283.747 492.7 284.885 494.369C292.7 505.85 306.281 507.999 313.489 498.895C314.451 497.681 314.451 497.681 315.285 499.377C320.52 510.048 334.581 507.62 341.258 494.9C342.193 493.155 342.193 493.155 343.331 494.722C349.2 502.791 358.505 500.488 357.898 491.107C357.57 485.896 353.904 479.851 349.173 476.691C348.593 476.312 348.593 476.312 350.211 474.643C355.774 468.85 355.926 459.062 350.539 452.361C349.503 451.071 348.062 449.73 345.607 447.809C344.572 447.025 344.52 447.126 347.403 443.763C357.849 431.572 357.519 420.14 346.393 409.924C343.585 407.369 343.559 407.849 346.544 404.765C358.304 392.498 357.874 381.118 345.254 371.127C342.093 368.624 342.117 369.029 344.799 365.285C353.725 352.869 354.611 342.448 347.531 333.85C346.544 332.687 346.544 332.687 348.289 332.156C361.161 328.159 357.925 311.898 343.054 305.802C341.41 305.119 341.41 305.119 343.382 304.436C348.87 302.539 354.181 297.735 356.559 292.524C359.947 285.165 357.242 278.667 348.314 272.646C345.027 270.421 345.051 270.673 348.01 268.17C360.782 257.498 360.933 246.522 348.517 236.304C345.607 233.902 345.634 234.382 348.138 231.55C356.408 222.192 354.966 213.138 343.737 203.831C341.51 201.985 341.51 201.985 344.647 198.774C353.625 189.492 354.232 183.472 347.075 174.469C343.786 170.321 343.786 170.347 347.808 166.047C360.681 152.264 360.909 143.716 348.718 130.944C343.585 125.582 343.61 126.088 348.187 120.423C361.819 103.555 361.136 89.9988 346.165 80.0596C343.585 78.3398 343.585 78.3398 345.531 76.6202C358.632 65.0877 359.67 52.6448 348.162 44.9563C347.1 44.2483 346.265 43.5906 346.317 43.4895C346.393 43.4137 346.948 42.9584 347.58 42.478C357.925 34.7895 357.14 21.0568 346.341 20.0452C344.672 19.8683 344.672 19.8683 345.987 18.5278C353.524 10.6625 346.518 2.72127 332.812 3.60644C324.06 4.18813 316.776 7.60234 312.25 13.2421C310.782 15.063 310.782 15.063 309.948 13.5203C302.032 -1.02172 285.972 -1.19876 268.321 13.0398C263.313 17.0863 264.172 17.0357 260.734 13.4191C248.594 0.622159 230.941 0.445125 216.55 12.9639C213.87 15.3159 214.249 15.3412 212.301 12.6604C201.654 -1.78044 184.229 -2.31154 176.111 11.5729C175.276 13.0145 175.276 13.0145 173.81 11.0671C167.967 3.32824 159.116 -0.36417 149.834 1.10268ZM158.534 4.64336C163.971 6.05961 168.397 9.34739 171.736 14.4308C174.897 19.2107 176.187 19.236 178.817 14.5319C185.797 1.98785 199.581 1.96255 208.686 14.4813C212.959 20.374 213.946 20.5511 218.902 16.1758C232.103 4.5169 246.318 4.56748 257.824 16.3023C263.086 21.6638 263.97 21.6892 269.838 16.6563C286.454 2.39249 299.933 2.26604 306.761 16.277C309.519 21.942 310.858 22.1697 313.868 17.4909C319.128 9.32209 330.232 5.37677 340.019 8.20932C346.062 9.95436 346.138 11.7753 340.475 19.3624C337.895 22.8273 337.995 23.0042 342.978 23.0549C354.814 23.2066 354.257 34.4356 342.117 40.5306C338.426 42.3767 338.475 45.0322 342.244 46.2716C356.76 51.026 356.939 62.4068 342.624 73.5094C336.933 77.91 336.933 79.6296 342.624 82.7403C357.191 90.6816 358.026 101.885 345.228 117.186C338.527 125.178 338.578 126.366 345.81 133.498C356.836 144.348 356.836 150.772 345.835 162.456C341.309 167.287 340.399 169.057 341.157 171.611C341.537 172.901 342.193 173.761 345.455 177.276C351.349 183.624 350.235 189.239 341.662 196.598C336.123 201.327 336.074 202.795 341.358 206.765C351.449 214.352 352.614 221.357 345.103 229.198C340.854 233.623 341.055 235.04 346.417 239.086C357.367 247.28 357.14 255.803 345.786 264.934C342.193 267.79 341.283 268.928 341.283 270.446C341.283 272.394 341.89 273.001 347.504 276.643C354.814 281.398 356.381 286.455 352.386 292.424C350.16 295.762 348.289 297.228 340.095 302.06C335.315 304.867 335.264 305.449 339.564 307.649C346.797 311.316 350.969 315.768 352.056 320.952C352.967 325.301 351.552 327.274 345.911 329.373C342.295 330.739 342.117 331.877 344.951 335.215C351.855 343.385 350.767 352.186 341.434 363.895C337.616 368.675 337.844 370.141 342.902 373.582C354.611 381.548 354.991 390.956 344.04 402.21C338.906 407.496 338.881 408.128 343.889 412.276C354.484 421.102 354.663 430.485 344.496 441.866C339.716 447.202 339.816 447.936 345.759 452.689C353.094 458.582 352.815 469.684 345.203 474.085C342.548 475.629 342.8 476.968 346.089 478.713C352.208 481.951 356.457 490.094 354.308 494.494C352.815 497.58 350.262 497.025 344.951 492.472C341.941 489.917 341.789 489.917 339.134 492.801C334.302 498.087 331.901 500.312 329.801 501.349C323.732 504.308 318.421 501.273 316.928 493.939C316.069 489.79 314.324 489.917 312.224 494.217C307.243 504.485 294.673 503.22 286.959 491.687C284.227 487.641 283.317 487.692 279.978 492.093C271.052 503.853 256.686 503.902 248.719 492.169C245.483 487.438 244.294 487.287 241.335 491.183C231.902 503.675 219.232 504.915 213.339 493.914C211.011 489.614 210.025 489.639 204.917 494.166C192.474 505.219 176.389 504.433 165.666 492.245C161.822 487.869 161.038 487.893 156.081 492.573C140.502 507.216 119.561 507.165 109.268 492.421C106.436 488.4 105.677 488.476 100.771 493.256C86.5825 507.089 62.7337 506.609 57.2709 492.37C56.3098 489.866 54.4637 489.614 52.9715 491.738C46.5983 500.843 30.0837 502.032 25.7336 493.711C24.9749 492.245 24.7979 491.814 24.0392 489.032C23.7105 487.869 23.4829 487.514 22.8253 487.211C21.6113 486.604 21.5102 486.655 20.0687 488.906C16.9073 493.811 12.4814 496.922 8.73842 496.922C2.13761 496.898 11.1916 474.616 19.4616 470.621C22.2183 469.28 21.7378 466.852 18.6776 466.828C3.50329 466.777 4.13556 448.012 19.5122 441.815C22.1676 440.728 22.6229 439.135 20.6756 437.87C16.7049 435.366 15.6933 434.607 14.0747 432.963C6.08292 424.996 6.31053 415.563 14.6058 410.632C18.1718 408.483 18.2477 407.293 14.9599 404.689C3.32626 395.482 3.32626 383.293 14.9599 379.828C18.0959 378.893 18.02 377.021 14.8081 374.896C5.17246 368.548 5.32421 354.511 15.1116 345.206C16.2244 344.144 17.6913 342.751 18.3488 342.12C20.6502 339.944 20.2963 339.085 15.3898 335.039C5.17246 326.617 5.42538 314.982 16.0221 306.536C20.4226 303.021 20.3974 301.908 15.6933 297.255C2.13761 283.775 3.98382 271.408 20.802 263.01C26.3153 260.254 26.366 258.686 21.0802 255.879C8.46024 249.202 6.25997 240.831 13.8218 228.413C16.9578 223.28 16.9073 222.142 13.4172 218.121C4.84369 208.282 7.01868 197.306 18.627 191.97C21.1813 190.807 21.5607 189.365 19.6639 187.949C9.82593 180.488 7.42332 166.3 14.6817 158.511C17.8177 155.147 17.6913 154.262 13.5942 151.202C1.48006 142.097 1.80883 131.5 14.5805 121.587C19.7145 117.565 19.9928 116.756 17.3372 113.57C11.0652 106.033 13.493 90.024 21.662 84.9154C24.899 82.9175 24.5451 81.2988 20.5998 80.1355C11.925 77.5811 5.45066 69.4376 7.04397 63.1909C7.80268 60.2065 9.97767 57.4751 14.2012 54.1874C18.2477 51.026 18.1718 49.6351 13.8724 48.0671C1.27773 43.4895 1.07541 28.9981 13.5183 22.726C14.9852 21.9927 21.0296 19.9442 21.7631 19.9442C23.1794 19.9442 23.6092 18.9578 22.6229 18.0473C19.7652 15.4677 21.7631 9.67616 26.0625 8.08286C32.2333 5.75612 38.5054 8.58867 42.7036 15.5941C44.7015 18.9325 46.3961 18.6796 48.5457 14.7595C56.3605 0.419833 70.3715 1.45675 78.5149 16.9598C81.3474 22.3466 82.435 22.4984 86.4308 17.9209C99.1013 3.47998 114.731 3.35354 125.53 17.6174C128.944 22.1444 130.032 21.9673 133.749 16.3276C140.198 6.54014 149.303 2.24075 158.534 4.64336Z" fill="black"/>
</svg>
