<svg width="364" height="523" viewBox="0 0 364 523" fill="none" xmlns="http://www.w3.org/2000/svg">
<path d="M171.052 1.36386C166.096 3.96878 173 15.4001 180.966 17.8027C184.659 18.9155 194.421 9.93734 194.749 5.13216C195.128 -0.912282 186.429 -0.229439 182.737 6.04261C182.383 6.64958 182.003 7.1301 181.902 7.1301C181.801 7.1301 181.422 6.64958 181.068 6.04261C178.817 2.19845 173.86 -0.128275 171.052 1.36386ZM175.58 3.64001C177.097 4.37344 179.828 7.15538 180.764 8.95101C181.194 9.76032 181.7 10.4179 181.902 10.4179C182.105 10.4179 182.61 9.76032 183.04 8.95101C185.721 3.81704 192.776 0.782182 192.776 4.77808C192.776 7.00364 190.476 9.70973 185.139 13.7562C181.7 16.3611 179.879 15.7036 173.91 9.7856C169.383 5.30918 170.496 1.2627 175.58 3.64001Z" fill="black"/>
<path d="M126.138 1.59159C109.219 2.50205 92.7548 6.29561 62.659 16.2348C39.063 24.0242 35.1936 24.9601 34.7383 22.9874C32.4117 12.9217 20.1964 9.17873 14.2784 16.69C8.66393 23.822 16.9592 28.7789 31.6276 27.0591C33.1957 26.8569 33.1957 26.8569 33.1957 30.0939C33.1705 39.0974 31.1978 46.4317 20.4745 76.932C-2.36274 141.979 -5.70109 192.03 8.7398 252.954C9.22031 254.976 9.39734 255.356 9.802 255.356C10.5354 255.356 10.409 254.117 8.89154 245.872C3.45408 216.282 2.49303 207.28 2.46775 185.175C2.46775 161.857 4.6933 144.255 11.0665 117.422C14.5313 102.779 16.5798 96.1528 27.126 65.5513C33.5244 46.9374 35.4971 38.7687 35.5729 30.3722C35.5983 26.4269 35.5983 26.4269 38.6332 25.7692C43.3372 24.7325 48.7493 23.1137 61.9003 18.7638C107.727 3.66542 131.272 0.504097 155.147 6.27033C159.142 7.23138 159.775 7.28194 159.775 6.49794C159.775 6.068 159.269 5.8151 156.866 5.0311C148.293 2.14798 137.696 0.959326 126.138 1.59159ZM26.1649 15.4761C29.0986 16.5889 33.8785 23.215 32.6394 24.4542C31.4759 25.6175 20.6769 25.1623 17.5409 23.7966C10.6113 20.8376 18.9825 12.7447 26.1649 15.4761Z" fill="black"/>
<path d="M225.712 1.59114C216.835 2.12224 204.039 5.03066 204.039 6.4975C204.039 7.2815 204.671 7.23093 208.667 6.26989C232.54 0.503652 256.087 3.66497 301.913 18.7634C315.064 23.1133 320.475 24.732 325.179 25.7688C328.214 26.4264 328.214 26.4264 328.241 30.3717C328.317 38.7682 330.289 46.9369 336.687 65.5509C347.233 96.1523 349.282 102.778 352.747 117.422C359.12 144.255 361.345 161.857 361.345 185.175C361.321 207.279 360.359 216.282 354.921 245.871C353.403 254.117 353.278 255.355 354.01 255.355C354.416 255.355 354.593 254.976 355.073 252.954C369.515 192.029 366.176 142.004 343.339 76.9316C332.59 46.33 330.642 39.097 330.617 30.0935C330.617 26.8564 330.617 26.8564 332.211 27.0586C346.854 28.7784 355.148 23.8216 349.534 16.6896C343.616 9.17828 331.401 12.9213 329.075 22.987C328.62 24.9596 324.751 24.0238 301.155 16.2343C264.861 4.27194 245.059 0.42778 225.712 1.59114ZM343.92 15.4503C354.872 19.7245 346.575 26.8058 332.918 24.8331C330.87 24.5549 330.921 24.6307 331.579 22.5822C332.945 18.384 335.549 15.855 339.595 14.8686C340.405 14.6916 342.781 14.9951 343.92 15.4503Z" fill="black"/>
<path d="M9.35227 267.798C8.87174 268.584 4.79996 288.663 3.51015 296.705C-4.30462 344.859 0.854655 390.23 20.48 446.172C31.2033 476.673 33.176 484.007 33.2012 493.012C33.2012 496.247 33.2012 496.247 31.6331 496.046C16.9647 494.326 8.66943 499.282 14.2839 506.414C20.2019 513.925 32.4172 510.183 34.7438 500.117C35.1991 498.144 39.0685 499.081 62.6646 506.869C102.775 520.098 124.677 523.789 145.238 520.78C152.168 519.768 159.78 517.567 159.78 516.608C159.78 515.822 159.148 515.874 155.152 516.835C131.278 522.601 107.732 519.439 61.9058 504.341C48.7549 499.992 43.3427 498.372 38.6387 497.336C35.6039 496.678 35.6039 496.678 35.5784 492.733C35.4773 482.945 34.1116 477.887 21.7194 441.747C3.68719 389.244 -1.47207 345.263 5.02758 299.867C5.73573 294.86 6.94967 287.855 8.89704 277.233C10.3639 269.266 10.5156 267.798 9.88337 267.673C9.65576 267.622 9.42814 267.698 9.35227 267.798ZM30.8998 498.271C32.9483 498.55 32.8977 498.474 32.2401 500.523C29.9387 507.604 23.2368 510.36 17.6981 506.465C10.5662 501.433 18.558 496.475 30.8998 498.271Z" fill="black"/>
<path d="M353.479 267.95C353.328 268.356 353.859 271.619 355.403 279.889C366.277 337.98 362.686 381.784 342.099 441.747C329.707 477.887 328.341 482.946 328.241 492.733C328.214 496.678 328.214 496.678 325.179 497.336C320.475 498.372 315.064 499.992 301.913 504.341C256.087 519.44 232.54 522.602 208.667 516.835C204.671 515.874 204.039 515.823 204.039 516.608C204.039 517.568 211.651 519.768 218.58 520.781C239.141 523.789 261.043 520.098 301.155 506.87C324.751 499.082 328.62 498.144 329.075 500.117C331.401 510.183 343.616 513.926 349.534 506.414C355.148 499.283 346.854 494.326 332.211 496.047C330.617 496.248 330.617 496.248 330.617 493.012C330.642 484.008 332.59 476.775 343.339 446.173C366.176 381.101 369.515 331.075 355.073 270.151C354.517 267.799 353.885 266.915 353.479 267.95ZM343.085 498.372C348.32 499.385 350.192 501.813 347.941 504.745C344.122 509.753 336.662 509.273 333.121 503.786C332.135 502.242 330.896 498.93 331.173 498.626C331.807 498.019 340.228 497.841 343.085 498.372Z" fill="black"/>
<path d="M179.778 505.859C174.315 508.717 169.308 514.408 169.055 517.974C168.676 524.017 177.375 523.334 181.068 517.063C181.852 515.722 181.953 515.722 182.737 517.063C184.988 520.906 189.945 523.233 192.752 521.741C196.925 519.567 194.473 513.395 187.289 507.983C183.369 505.024 182.054 504.645 179.778 505.859ZM185.114 509.324C190.476 513.395 192.777 516.102 192.777 518.326C192.777 522.323 185.721 519.288 183.041 514.154C182.611 513.346 182.105 512.687 181.902 512.687C181.7 512.687 181.194 513.346 180.764 514.154C179.171 517.215 175.529 520.072 173.177 520.123C170.041 520.199 170.421 516.784 173.911 513.319C175.023 512.207 181.194 507.2 181.827 506.896C181.852 506.87 183.319 507.983 185.114 509.324Z" fill="black"/>
</svg>
