<svg width="371" height="519" viewBox="0 0 371 519" fill="none" xmlns="http://www.w3.org/2000/svg">
<path d="M142.629 0.424655C133.195 1.91679 131.729 2.32144 126.013 4.8252C120.904 7.07606 116.301 8.31529 111.016 8.84639C107.627 9.17517 101.38 8.0118 95.0827 5.8874C88.1025 3.5101 84.9411 4.09178 74.8502 9.6051C68.2746 13.1711 65.518 14.2586 60.7129 15.0426C54.2638 16.13 49.9137 14.8402 42.2507 9.55453C23.9656 -3.06544 12.9644 -1.44684 5.04844 15.0426C-1.70412 29.0789 -0.920125 39.9537 8.36148 61.0208C14.4312 74.7535 15.7716 79.6852 15.7716 88.2586C15.7716 93.1144 15.6957 93.9742 14.2795 104.192C13.7989 107.606 13.0149 113.625 12.5091 117.595C12.0286 121.566 11.0423 128.496 10.3594 133.023C6.69231 157.2 6.94523 167.797 11.6493 185.526C16.9097 205.455 17.0614 212.056 12.8885 242.859C8.36148 276.066 8.41207 282.034 13.1667 298.65C18.9582 318.807 18.7559 334.006 12.408 354.263C7.32458 370.424 7.17284 380.794 11.7504 395.033C18.1742 414.961 18.6294 424.168 14.5324 449.179C11.4216 468.071 9.62601 489.618 10.5871 496.75C12.2309 509.168 19.6157 515.87 32.1093 516.351C39.2917 516.628 42.9842 515.921 64.6075 510.231C81.2993 505.83 88.3301 506.285 103.53 512.734C115.796 517.945 118.881 517.894 131.248 512.254C153.984 501.885 168.931 501.302 189.416 509.927C202.212 515.339 207.802 514.758 224.697 506.185C245.055 495.866 248.369 496.118 266.476 509.396C282.56 521.181 287.695 521.535 301.124 511.824C311.822 504.085 322.875 502.592 336.353 507.069C347.026 510.61 354.31 510.003 362.176 504.92C372.343 498.343 373.202 489.315 365.564 470.146C361.342 459.573 361.214 458.031 363.542 445.639C365.184 436.812 365.514 434.207 365.514 429.175C365.514 419.539 363.642 412.939 356.334 396.676C348.341 378.897 347.962 367.795 354.183 336.105C359.039 311.32 359.115 303.733 354.689 281.226C351.63 265.57 351.933 261.979 357.876 245.287C367.512 218.101 368.65 199.157 362.529 168.556C357.421 143.038 357.521 136.665 363.288 115.446C369.13 93.9994 369.357 86.1595 364.805 67.2675C361.746 54.5717 361.645 50.854 364.173 38.2339C367.764 20.2524 366.929 12.4123 360.81 6.64611C352.21 -1.47213 339.718 -0.460513 318.398 10.1362C300.669 18.9373 298.924 18.912 283.118 9.85802C264.681 -0.713417 255.854 -1.2951 220.194 5.55863C193.994 10.6167 189.694 10.5914 174.065 5.15399C165.264 2.11913 161.369 1.23395 153.225 0.500526C150.443 0.247621 143.969 0.19704 142.629 0.424655ZM156.109 5.81153C161.976 6.29206 165.643 7.30367 174.672 10.8949C194.5 18.7603 204.009 19.089 233.674 12.8929C260.812 7.2278 265.54 7.43013 281.094 14.8402C297.583 22.7309 301.376 22.7815 317.488 15.3208C334.052 7.63244 343.865 5.8874 351.124 9.30161C357.648 12.3871 358.711 18.3556 355.575 34.491C352.489 50.4746 352.817 55.6843 357.927 69.4171C365.109 88.7643 364.881 96.9839 356.334 127.332C351.072 146.073 349.961 158.01 352.135 171.97C352.793 175.991 352.969 176.952 354.917 186.512C359.418 208.742 358.862 222.399 352.489 244.933C348.417 259.399 348.013 261.928 347.482 276.546C347.051 288.155 345.964 298.246 342.651 321.917C339.464 344.779 339.312 355.731 342.044 371.638C343.713 381.274 345.105 385.397 350.517 396.55C359.065 414.202 359.596 420.374 353.955 437.142C347.609 455.982 347.988 461.142 356.789 475.937C361.721 484.207 364.046 491.035 363.162 494.701C362.125 498.95 355.473 503.503 349.126 504.288C345.433 504.743 342.878 504.337 334.255 501.909C320.826 498.167 306.031 499.33 294.575 505.071C284.028 510.358 281.929 510.103 265.413 501.758C248.976 493.463 244.727 493.311 226.618 500.544C206.133 508.713 201.936 509.117 189.037 504.034C170.271 496.674 158.916 497.156 130.236 506.513C117.288 510.762 116.681 510.762 106.16 506.537C94.0457 501.682 88.406 500.367 79.6553 500.392C72.9028 500.418 70.5255 500.747 52.974 504.136C23.2828 509.876 17.3902 505.906 16.7579 479.755C16.505 469.209 17.0867 462.356 19.4387 448.395C23.0047 427.176 22.9541 415.67 19.1858 394.906C17.1879 383.804 17.3143 372.524 19.6157 356.742C22.6254 335.929 22.5747 323.031 19.3376 306.516C15.5187 287.068 15.6199 283.703 21.0825 249.864C26.3431 217.342 25.9131 208.793 18.073 187.777C9.44898 164.636 9.57542 153.356 18.8823 116.837C23.738 97.6919 24.0669 96.2504 24.5474 90.4335C25.382 80.3174 23.4093 73.0843 15.1646 56.1396C6.11064 37.5511 5.22547 29.7111 10.7641 17.4957C15.367 7.35426 18.1742 7.02547 34.2589 14.6126C45.8925 20.1006 48.2445 20.9606 52.8222 21.4917C59.6 22.3009 66.5802 20.4295 75.7354 15.3966C83.4489 11.1478 87.6472 10.5156 96.0183 12.2606C106.893 14.5115 110.99 14.1574 126.822 9.57982C136.407 6.79786 148.825 5.20455 156.109 5.81153Z" fill="black"/>
</svg>
