<svg width="366" height="515" viewBox="0 0 366 515" fill="none" xmlns="http://www.w3.org/2000/svg">
<path d="M131.917 1.13078C124.81 3.10344 118.285 10.7917 118.285 17.1903C118.285 18.3283 115.377 18.6824 108.726 18.3789C94.6894 17.696 86.5205 16.0269 69.3229 10.3871C51.0885 4.39325 41.9839 3.07815 32.323 5.02551C14.1644 8.71793 0.836281 22.6782 0.886862 37.9538C0.912152 43.7959 2.45488 45.1616 2.73306 39.5975C3.89644 16.735 27.7453 2.87582 54.3003 9.65367C55.8936 10.0583 61.8116 11.9298 67.4515 13.8013C88.4173 20.7814 96.662 22.3495 112.013 22.3747C119.55 22.4001 119.55 22.4001 119.853 23.1589C123.698 32.4404 152.023 39.623 174.557 36.9927C188.441 35.3994 198.431 33.098 221.851 26.1937C241.702 20.3262 244.84 19.4158 250.555 17.8478C309.583 1.73775 344.104 1.73775 351.97 17.8478C353.158 20.2503 353.336 23.8417 352.274 23.4117C342.562 19.5676 330.751 23.083 333.482 28.9755C336.189 34.8176 346.507 35.0707 353.133 29.4562C355.005 27.8629 355.991 28.1916 358.696 31.2265C364.717 37.9031 363.376 47.1088 352.425 73.9928C340.184 104.038 337.3 114.508 337.276 129C337.276 139.824 338.439 144.755 345.849 164.786C352.222 182.084 355.309 193.667 357.509 208.665C359.455 221.916 359.937 228.796 359.937 242.933C359.937 257.172 359.861 258.133 357.103 281.502C355.737 293.034 356.268 307.423 358.04 307.423C358.823 307.423 358.875 306.919 359.279 298.067C359.557 291.946 360.062 286.913 361.682 274.294C367.169 231.4 363.552 201.203 347.847 158.412C337.907 131.402 338.97 119.162 354.55 80.1888C363.958 56.6941 366.158 48.9297 365.803 40.8621C365.525 34.3372 362.945 29.4562 358.065 26.1937C356.32 25.0556 356.32 25.0556 356.674 23.8669C358.268 18.6065 354.144 11.6263 346.887 7.22578C329.865 -3.06744 294.205 0.675553 230.322 19.4917C198.835 28.7733 189.099 31.1254 175.948 32.6428C155.159 35.0453 133.814 31.1254 125.67 23.4117C123.976 21.8184 123.976 21.8184 124.987 21.6414C137.987 19.3905 144.916 14.7876 144.942 8.36386C144.967 2.87582 138.543 -0.690134 131.917 1.13078ZM138.644 5.55661C144.815 8.41444 138.467 14.7371 127.087 17.0638C122.762 17.949 122.559 17.9237 122.711 16.6844C123.672 9.78013 133.283 3.07815 138.644 5.55661ZM346.936 25.5361C351.033 26.2189 351.16 26.5731 347.873 28.1916C343.928 30.1895 339.224 30.0125 337.048 27.8375C335.252 26.042 341.373 24.6256 346.936 25.5361Z" fill="black"/>
<path d="M6.46833 178.241C5.81077 179.025 6.06369 190.001 6.97415 200.572C9.12383 225.407 8.28925 242.049 2.8265 283.904C-1.11882 314.101 -1.01766 317.769 4.87503 355.729C8.11222 376.467 9.50319 386.002 12.8163 409.598C17.3685 441.944 17.8238 445.434 18.6836 455.248C19.063 459.37 19.1389 478.617 18.8101 481.348C18.6078 483.017 18.6078 483.017 16.1546 483.017C2.62417 482.865 -5.06414 499.785 6.44305 504.362C13.4738 507.144 19.1136 501.858 21.2885 490.452C21.5415 489.187 21.8196 488.125 21.8955 488.125C22.8059 488.125 31.5566 493.36 37.4745 497.457C54.1915 508.965 58.0357 511.014 66.7103 512.884C80.2154 515.794 94.808 514.325 117.519 507.751C129.507 504.286 132.187 503.552 136.613 502.44C166.38 494.978 201.786 495.333 235.373 503.426C262.307 509.9 280.036 509.269 297.208 501.124C297.36 501.074 297.688 501.427 297.967 501.958C302.392 510.255 319.742 511.898 333.626 505.348C349.307 497.937 356.818 485.57 359.777 462.329C361.674 447.534 361.067 435.698 356.894 406.184C355.377 395.31 354.667 389.669 353.935 382.032C352.873 371.156 353.556 358.41 355.908 345.159C357.729 334.889 357.829 333.6 356.894 333.6C356.388 333.6 356.185 334.157 354.87 339.29C349.584 359.802 349.155 373.762 352.873 403.022C353.353 406.766 354.112 412.912 354.591 416.679C361.168 468.374 352.77 495.585 327.608 503.931C316.986 507.448 305.529 506.006 301.963 500.669C300.901 499.102 300.799 499.303 303.226 497.685C311.523 492.146 314.254 486.228 310.157 482.638C304.543 477.706 296.322 484.963 296.222 494.902C296.197 497.964 296.525 497.584 292.252 499.278C277.43 505.145 261.245 505.475 239.546 500.365C219.364 495.585 211.498 494.422 194.275 493.664C168.049 492.501 148.601 494.802 124.094 501.958C107.681 506.738 102.598 508.079 96.2749 509.217C74.6768 513.111 62.4867 510.456 44.6823 497.964C34.6673 490.957 28.0665 486.835 23.8429 484.963C22.452 484.332 22.199 484.104 22.2748 483.7C24.3992 474.265 22.9072 454.489 16.8374 412.127C12.8668 384.333 12.1081 379.225 8.01105 353.201C6.64536 344.424 5.33026 335.902 5.10264 334.233C4.87503 332.564 4.57154 330.971 4.44509 330.692C3.66109 328.971 3.0794 321.536 3.0794 312.862C3.1047 302.822 3.12999 302.468 5.7349 281.628C9.70552 250.092 10.8689 236.359 10.8689 221.689C10.8689 212.888 10.7171 209.777 9.65493 199.182C9.32616 195.843 8.74448 189.824 8.3904 185.777C7.65699 177.887 7.45466 177.027 6.46833 178.241ZM308.006 486.101C308.943 487.391 307.299 490.073 303.909 492.753C300.446 495.485 300.267 495.536 300.495 493.84C301.204 488.025 305.857 483.218 308.006 486.101ZM18.0767 486.987C18.4054 487.291 16.3569 494.726 15.4212 496.598C12.361 502.668 4.39452 501.882 5.05206 495.561C5.58316 490.401 15.0924 484.129 18.0767 486.987Z" fill="black"/>
</svg>
