<svg width="363" height="512" viewBox="0 0 363 512" fill="none" xmlns="http://www.w3.org/2000/svg">
<path d="M224.234 510.734C234.021 509.672 241.736 506.815 249.903 501.201C255.138 497.608 255.114 497.608 263.687 499.911C275.396 503.046 282.68 503.805 295.047 503.147C304.506 502.667 311.511 502.768 321.097 503.526C335.335 504.664 345.376 504.312 345.376 502.642C345.376 500.567 314.218 498.443 297.298 499.38C282.503 500.163 276.155 499.48 260.652 495.308C255.089 493.815 253.192 494.145 247.602 497.608C229.621 508.761 212.626 509.141 188.094 498.898C171.832 492.121 167.179 491.817 148.818 496.37C128.054 501.529 122.465 501.529 105.318 496.47C89.7898 491.893 84.6811 492.172 66.2948 498.746C45.4049 506.182 35.4658 506.436 29.1684 499.657C27.044 497.407 25.1725 491.793 26.5129 491.793C29.3202 491.793 32.0515 489.314 32.0768 486.734C32.1022 482.282 26.8416 482.485 24.5403 487.038C23.8068 488.479 23.5792 488.428 21.6571 486.506C16.0426 480.892 15.4862 471.232 19.5074 449.861C23.377 429.248 23.0228 418.55 18.1923 411.039C17.1048 409.32 17.1048 409.32 17.8888 407.524C24.2368 393.033 24.2874 380.489 18.0659 359.776C11.6421 338.354 11.1616 326.241 16.2197 313.595C17.4842 310.433 17.5095 309.878 16.422 310.005C14.9551 310.156 12.1479 316.757 10.934 322.852C8.7084 333.98 9.56827 343.413 14.4493 360.787C19.6845 379.401 19.9373 388.353 15.638 400.999C13.9182 406.007 13.3366 407.044 12.3502 406.766C5.67354 404.92 -2.64704 416.426 2.05699 420.978C4.76308 423.609 9.59355 421.232 13.6653 415.238C15.3092 412.835 15.3092 412.835 16.0679 414.353C17.5854 417.336 18.3694 421.813 18.3694 427.378C18.3694 432.992 17.8383 437.038 15.1322 451.581C11.111 473.102 13.463 486.607 21.91 490.579C23.1493 491.159 23.1493 491.159 23.1746 492.931C23.1998 500.34 28.8649 506.233 37.4636 507.851C44.5197 509.192 52.3345 507.75 67.1042 502.388C79.3954 497.938 83.1637 497.001 89.0563 497.001C94.2155 497.001 95.8847 497.356 108.227 501.125C122.06 505.347 129.42 505.222 148.615 500.518C167.887 495.787 171.149 495.99 187.006 503.022C202.51 509.875 212.777 511.999 224.234 510.734ZM27.0947 487.948C28.0556 486.076 29.7502 485.192 29.7502 486.582C29.7502 487.442 29.0167 488.227 27.8534 488.606C26.614 489.035 26.5636 489.01 27.0947 487.948ZM5.59767 414.504C6.76102 412.101 9.66942 409.825 11.1363 410.155C11.9962 410.307 7.77264 415.743 5.85056 416.957C4.76308 417.64 4.66191 416.452 5.59767 414.504Z" fill="black"/>
<path d="M351.111 393.488C351.365 393.387 351.441 390.908 351.441 382.208C351.441 376.062 351.566 364.429 351.718 356.362C351.972 344.45 351.945 339.796 351.669 331.577C350.883 308.688 351.213 300.115 353.489 284.536C356.65 262.964 356.852 260.94 356.852 252.418C356.852 243.59 356.27 239.545 353.11 226.419C349.013 209.297 349.518 201.785 356.498 177.431C363.326 153.607 364.44 142.707 361.278 130.517C359.811 124.751 355.967 118.277 353.135 116.759C352.528 116.43 352.503 116.355 352.807 115.748C354.349 112.763 355.31 107.275 355.31 101.56C355.31 95.2875 354.829 91.9998 352.2 79.9362C349.062 65.6218 349.013 60.9431 351.82 49.7142C355.614 34.5651 354.829 26.6492 348.71 17.9745C341.805 8.16178 334.874 6.29028 315.654 9.07224C302.352 10.9943 295.548 11.3737 290.161 10.5391C287.91 10.2103 287.91 10.2103 288.947 9.22398C292.993 5.32923 290.744 0.650493 284.85 0.650493C279.995 0.650493 276.252 5.05105 278.225 8.49055C278.756 9.42629 278.756 9.42629 276.757 9.80565C269.397 11.1461 257.41 9.78036 243.703 5.98679C223.673 0.448169 220.487 0.448168 197.422 6.08795C170.993 12.537 159.232 13.0934 144.033 8.61701C141.327 7.80771 139.101 6.97312 129.314 2.95193C119.881 -0.917518 115.227 -0.968098 104.732 2.72432C80.655 11.2219 76.9626 11.5507 57.6912 6.7455C37.4587 1.73799 26.5587 1.99088 20.6659 7.60538C17.1505 10.969 16.7206 14.535 18.7439 23.6648C20.9946 33.6798 20.3624 36.0319 13.8122 42.6327C6.57911 49.8911 6.30093 51.8131 10.2715 65.3941C15.7849 84.1598 15.8607 89.6226 10.6509 94.4025C6.35151 98.3224 5.41575 101.484 6.73085 107.882C8.04595 114.357 15.0514 131.149 16.4424 131.149C17.5299 131.149 17.4034 130.416 15.3296 123.942C9.94276 107.25 9.46223 102.192 12.9776 99.157C21.3235 91.9998 21.7788 85.1714 15.3296 64.7367C11.2831 51.9903 11.3337 51.4086 16.9735 45.4147C24.3584 37.5493 25.0665 34.3375 22.0064 22.0211C18.0863 6.29027 27.7472 2.87606 55.9209 10.008C76.4315 15.1925 82.5264 14.9396 101.444 7.98473C117.174 2.2185 118.388 2.2185 132.172 8.03532C154.68 17.5445 167.25 17.9239 198.812 10.0333C221.118 4.44408 223.901 4.39349 241.276 9.24926C259.94 14.4338 272.432 15.5972 281.284 12.9164C282.295 12.6129 282.523 12.6382 284.471 13.321C291.148 15.5972 298.76 15.5719 315.654 13.1187C334.066 10.4632 339.984 11.9048 345.8 20.5036C350.959 28.1412 351.517 34.1099 348.38 47.2356C345.244 60.3614 345.168 65.5713 347.924 78.2923C350.959 92.2526 351.441 95.4392 351.441 101.56C351.414 110.184 350.075 114.812 347.52 115.04C343.044 115.393 340.237 120.249 343.12 122.652C345.017 124.27 348.406 122.88 350.732 119.541C351.289 118.757 351.82 119.086 353.414 121.059C359.407 128.443 360.849 142.353 357.359 158.716C356.549 162.51 355.36 166.758 351.314 180.592C345.269 201.254 345.017 209.727 349.848 229.15C354.349 247.232 354.425 252.949 350.682 277.708C347.141 301.001 346.786 310.08 348.558 332.842C348.634 333.953 348.71 343.286 348.683 353.579C348.658 372.447 348.835 379.173 349.569 387.974C350.024 393.437 350.151 393.892 351.111 393.488ZM344.865 119.611C344.77 118.662 346.244 118.1 346.799 117.897C347.306 117.72 347.496 117.91 346.989 118.492C345.978 119.68 344.96 120.559 344.865 119.611ZM282.398 7.30189C281.487 6.13853 282.322 5.07633 284.42 4.79813C287.254 4.41877 287.506 5.58215 284.926 7.17545C283.282 8.16178 283.081 8.16178 282.398 7.30189Z" fill="black"/>
</svg>
