<svg width="374" height="525" viewBox="0 0 374 525" fill="none" xmlns="http://www.w3.org/2000/svg">
<path d="M170.694 0.427191C159.061 4.01845 168.292 29.4102 184.756 39.147C186.703 40.3103 178.636 41.2207 174.893 40.2598C170.34 39.0963 166.623 36.618 158.201 29.1319C138.525 11.6309 121.529 7.00272 95.9104 12.1873C89.4865 13.5024 86.5782 13.4518 83.5433 11.9344C80.9889 10.6951 80.8119 10.2905 82.5822 9.78468C88.6771 8.01433 90.9028 3.46204 86.5527 1.66643C82.127 -0.205072 77.9034 3.61379 78.6875 8.77305C78.8139 9.58235 67.7114 10.3917 60.9336 10.0882C53.0682 9.70881 40.8781 11.4791 30.2309 14.4887C19.4823 17.5489 19.4571 17.5489 18.9766 15.5256C17.4844 8.95009 11.9711 4.22076 8.12694 6.21872C2.84122 8.95009 9.94786 18.5099 17.2821 18.5099C18.3696 18.5099 18.4455 18.7628 18.4455 22.9104C18.4455 28.4238 17.5603 32.9255 14.4243 43.0416C10.4284 55.9398 8.5063 71.443 10.479 74.6548C10.5295 74.7559 10.7066 75.6664 10.8836 76.7033C11.0353 77.7403 11.6676 80.1428 12.2746 82.065C14.4496 88.8428 14.4749 92.3835 12.3252 90.4613C9.06269 87.5277 5.72434 88.7163 6.02783 92.7375C6.33131 96.4299 11.0859 97.9726 13.4632 95.1401C14.5254 93.8755 17.8385 101.21 18.926 107.28C21.1263 119.419 20.6711 127.765 16.9028 145.595C9.77083 179.105 8.96153 192.61 13.2609 206.746C16.2199 216.509 20.2158 223.11 29.5733 233.631C37.0593 242.053 39.5376 245.771 40.7011 250.323C41.662 254.065 40.7516 262.133 39.5883 260.186C30.7872 245.289 9.0374 235.832 2.15838 243.899C-1.66048 248.35 2.15838 257.759 9.39148 261.856C10.5801 262.538 10.5801 262.588 9.41676 263.271C2.15838 267.368 -1.66048 276.776 2.15838 281.227C9.0374 289.295 30.7872 279.837 39.5883 264.94C40.7516 262.994 41.662 271.061 40.7011 274.803C39.5376 279.355 37.0593 283.073 29.5733 291.495C20.2158 302.016 16.2199 308.617 13.2609 318.38C8.96153 332.517 9.77083 346.022 16.9028 379.532C20.14 394.807 20.9745 404.746 19.71 413.168C18.6731 420.249 17.8638 423.083 15.5118 427.887C14.1208 430.746 14.1208 430.746 13.4632 429.987C11.0859 427.153 6.33131 428.697 6.02783 432.388C5.72434 436.409 9.06269 437.599 12.3252 434.664C14.4749 432.743 14.4496 436.284 12.2746 443.061C11.6676 444.983 11.0353 447.386 10.8836 448.424C10.7066 449.459 10.5295 450.37 10.479 450.472C8.5063 453.683 10.4284 469.186 14.4243 482.084C17.5603 492.201 18.4455 496.703 18.4455 502.216C18.4455 506.363 18.3696 506.617 17.2821 506.617C9.94786 506.617 2.84122 516.177 8.12694 518.908C11.9711 520.906 17.4844 516.177 18.9766 509.576C19.4571 507.577 19.4823 507.577 30.2309 510.638C40.954 513.673 53.0175 515.392 61.0599 515.039C67.939 514.735 78.8139 515.543 78.6875 516.353C77.9034 521.513 82.127 525.331 86.5527 523.461C90.9028 521.664 88.6771 517.112 82.5822 515.342C80.8119 514.836 80.9889 514.432 83.5433 513.191C86.5782 511.674 89.4865 511.625 95.9104 512.939C121.529 518.123 138.525 513.495 158.201 495.995C166.623 488.508 170.34 486.029 174.893 484.867C178.636 483.905 186.703 484.815 184.756 485.98C169.86 494.781 160.401 516.53 168.469 523.409C172.92 527.228 182.328 523.409 186.425 516.15C187.108 514.988 187.158 514.988 187.841 516.177C191.938 523.409 201.346 527.228 205.798 523.409C213.865 516.53 204.407 494.781 189.51 485.98C187.563 484.815 195.631 483.905 199.373 484.867C203.925 486.029 207.643 488.508 216.065 495.995C235.742 513.495 252.737 518.123 278.355 512.939C284.78 511.625 287.688 511.674 290.722 513.191C293.277 514.432 293.454 514.836 291.684 515.342C285.59 517.112 283.363 521.664 287.714 523.461C292.139 525.331 296.363 521.513 295.578 516.353C295.453 515.543 306.327 514.735 313.207 515.039C321.249 515.392 333.313 513.673 344.035 510.638C354.784 507.577 354.809 507.577 355.289 509.601C356.782 516.177 362.296 520.906 366.139 518.908C371.425 516.177 364.318 506.617 356.985 506.617C355.896 506.617 355.82 506.363 355.82 502.216C355.82 496.703 356.706 492.201 359.841 482.084C363.838 469.186 365.759 453.683 363.787 450.472C363.737 450.37 363.559 449.459 363.383 448.424C363.231 447.386 362.599 444.983 361.992 443.061C359.817 436.284 359.792 432.743 361.941 434.664C365.204 437.599 368.542 436.409 368.238 432.388C367.935 428.697 363.18 427.153 360.803 429.987C359.741 431.25 356.427 423.917 355.34 417.847C353.14 405.708 353.595 397.362 357.364 379.532C364.496 346.022 365.304 332.517 361.006 318.38C358.047 308.617 354.05 302.016 344.694 291.495C337.207 283.073 334.728 279.355 333.565 274.803C332.603 271.061 333.514 262.994 334.679 264.94C343.48 279.837 365.228 289.295 372.108 281.227C375.926 276.776 372.108 267.368 364.875 263.271C364.344 262.967 363.914 262.639 363.914 262.563C363.914 262.487 364.344 262.159 364.875 261.856C372.108 257.759 375.926 248.35 372.108 243.899C365.228 235.832 343.48 245.289 334.679 260.186C333.514 262.133 332.603 254.065 333.565 250.323C334.728 245.771 337.207 242.053 344.694 233.631C354.05 223.11 358.047 216.509 361.006 206.746C365.304 192.61 364.496 179.105 357.364 145.595C354.126 130.319 353.292 120.38 354.557 111.958C355.592 104.877 356.402 102.044 358.754 97.2393C360.145 94.3814 360.145 94.3814 360.803 95.1401C363.18 97.9726 367.935 96.4299 368.238 92.7375C368.542 88.7163 365.204 87.5277 361.941 90.4613C359.792 92.3835 359.817 88.8428 361.992 82.065C362.599 80.1428 363.231 77.7403 363.383 76.7033C363.559 75.6664 363.737 74.7559 363.787 74.6548C365.759 71.443 363.838 55.9398 359.841 43.0416C356.706 32.9255 355.82 28.4238 355.82 22.9104C355.82 18.7628 355.896 18.5099 356.985 18.5099C364.318 18.5099 371.425 8.95009 366.139 6.21872C362.296 4.22076 356.782 8.95009 355.289 15.5256C354.809 17.5489 354.784 17.5489 344.035 14.4887C333.389 11.4791 321.198 9.70881 313.332 10.0882C306.555 10.3917 295.453 9.58235 295.578 8.77305C296.363 3.61379 292.139 -0.205072 287.714 1.66643C283.363 3.46204 285.59 8.01433 291.684 9.78468C293.454 10.2905 293.277 10.6951 290.722 11.9344C287.688 13.4518 284.78 13.5024 278.355 12.1873C252.737 7.00272 235.742 11.6309 216.065 29.1319C207.643 36.618 203.925 39.0963 199.373 40.2598C195.631 41.2207 187.563 40.3103 189.51 39.147C204.407 30.3459 213.865 8.59602 205.798 1.71701C201.346 -2.10186 191.938 1.71701 187.841 8.95009C187.538 9.48119 187.209 9.91112 187.133 9.91112C187.057 9.91112 186.729 9.48119 186.425 8.95009C183.112 3.10799 175.474 -1.03966 170.694 0.427191ZM176.46 2.12166C180.178 3.48735 186.374 9.48119 186.374 11.6815C186.374 12.3896 187.057 12.8195 187.512 12.4402C187.715 12.2631 187.892 11.9344 187.892 11.6815C187.892 7.66028 197.856 0.730677 202.435 1.59055C214.092 3.76553 203.749 30.1941 188.094 38.2617C184.908 39.9057 173.628 28.6008 169.303 19.4456C163.841 7.91318 167.583 -1.14082 176.46 2.12166ZM86.401 3.08269C88.753 4.49896 87.1093 6.92685 82.8857 8.26725C80.0026 9.17771 79.9015 9.12712 79.9015 6.64865C79.9015 3.63909 83.7961 1.48939 86.401 3.08269ZM292.443 3.3356C294.288 4.44837 295.301 8.89951 293.708 8.89951C291.86 8.89951 287.536 6.72452 286.98 5.48529C285.918 3.15856 289.736 1.64114 292.443 3.3356ZM12.047 7.63498C14.2978 8.64661 16.3211 11.5044 17.4339 15.1716C18.1167 17.3971 18.1673 17.296 16.144 16.9672C12.8563 16.4614 9.66966 14.2358 8.43043 11.555C6.83713 8.19138 8.7592 6.11755 12.047 7.63498ZM365.81 7.76143C368.365 10.2905 363.483 16.1326 358.123 16.9672C356.099 17.296 356.15 17.3971 356.833 15.1716C358.603 9.27886 363.407 5.33355 365.81 7.76143ZM80.6602 11.5297C84.049 14.691 88.1715 15.1463 97.0989 13.3506C114.499 9.83525 130.482 12.0355 143.38 19.7238C148.287 22.6576 149.577 23.6692 160.932 33.5072C170.163 41.499 177.245 43.8258 184.68 41.2966C187.133 40.4368 187.133 40.4368 189.612 41.2966C197.021 43.8258 204.104 41.499 213.333 33.5072C224.69 23.6692 225.979 22.6576 230.886 19.7238C243.784 12.0355 259.767 9.83525 277.168 13.3506C286.07 15.1463 290.218 14.691 293.581 11.555C294.744 10.4675 294.744 10.4675 296.136 10.6951C298.437 11.0745 306.024 11.4286 311.917 11.4286C323.499 11.4286 333.389 12.8448 344.263 16.0314C348.309 17.1948 351.598 18.0294 353.571 18.3582C354.454 18.5099 354.454 18.5099 354.481 22.7587C354.481 28.9802 355.113 32.2426 358.35 42.7888C363.711 60.2392 364.344 70.836 360.727 81.6602C359.158 86.3897 358.806 88.9187 359.361 91.8524C359.589 93.0157 359.538 93.2433 359.109 93.9009C354.91 99.7683 352.558 110.694 352.861 122.681C353.064 130.597 353.468 133.43 356.351 146.859C359.21 160.288 359.589 162.362 360.627 170.582C363.534 193.545 361.89 205.76 354.102 218.81C351.167 223.717 350.156 225.007 340.318 236.363C332.326 245.593 329.999 252.675 332.528 260.084C333.389 262.563 333.389 262.563 332.528 265.016C329.999 272.451 332.326 279.534 340.318 288.763C350.156 300.119 351.167 301.409 354.102 306.316C361.89 319.366 363.534 331.582 360.627 354.544C359.589 362.765 359.21 364.838 356.351 378.267C353.468 391.696 353.064 394.528 352.861 402.445C352.558 414.433 354.91 425.359 359.109 431.225C359.538 431.884 359.589 432.111 359.361 433.274C358.806 436.208 359.158 438.737 360.727 443.465C364.344 454.29 363.711 464.888 358.35 482.338C355.113 492.884 354.481 496.147 354.481 502.368C354.454 506.617 354.454 506.617 353.571 506.769C351.598 507.097 348.309 507.932 344.263 509.094C333.389 512.281 323.499 513.698 311.917 513.698C306.024 513.698 298.437 514.052 296.136 514.432C294.744 514.659 294.744 514.659 293.581 513.571C290.218 510.435 286.07 509.98 277.168 511.776C259.767 515.291 243.784 513.091 230.886 505.403C225.979 502.469 224.69 501.458 213.333 491.619C204.104 483.628 197.021 481.301 189.586 483.829C187.133 484.69 187.133 484.69 184.655 483.829C177.245 481.301 170.163 483.628 160.932 491.619C149.577 501.458 148.287 502.469 143.38 505.403C130.482 513.091 114.499 515.291 97.0989 511.776C88.1967 509.98 84.049 510.435 80.6854 513.571C79.5221 514.659 79.5221 514.659 78.131 514.432C75.8296 514.052 68.2425 513.698 62.3497 513.698C50.7668 513.698 40.8781 512.281 30.0033 509.094C25.9567 507.932 22.6689 507.097 20.6963 506.769C19.8111 506.617 19.8111 506.617 19.7858 502.368C19.7858 496.147 19.1536 492.884 15.9164 482.338C10.5548 464.888 9.92257 454.29 13.5391 443.465C15.1071 438.737 15.4612 436.208 14.9048 433.274C14.6772 432.111 14.7278 431.884 15.1577 431.225C19.3559 425.359 21.7078 414.433 21.4044 402.445C21.2022 394.528 20.7974 391.696 17.9144 378.267C15.0565 364.838 14.6772 362.765 13.6403 354.544C10.7319 331.582 12.3757 319.366 20.1652 306.316C23.0989 301.409 24.1105 300.119 33.9486 288.763C41.9403 279.534 44.2671 272.451 41.7379 265.016C40.8781 262.563 40.8781 262.563 41.7379 260.084C44.2671 252.675 41.9403 245.593 33.9486 236.363C24.1105 225.007 23.0989 223.717 20.1652 218.81C12.3757 205.76 10.7319 193.545 13.6403 170.582C14.6772 162.362 15.0565 160.288 17.9144 146.859C20.7974 133.43 21.2022 130.597 21.4044 122.681C21.7078 110.694 19.3559 99.7683 15.1577 93.9009C14.7278 93.2433 14.6772 93.0157 14.9048 91.8524C15.4612 88.9187 15.1071 86.3897 13.5391 81.6602C9.92257 70.836 10.5548 60.2392 15.9164 42.7888C19.1536 32.2426 19.7858 28.9802 19.7858 22.7587C19.8111 18.5099 19.8111 18.5099 20.6963 18.3582C22.6689 18.0294 25.9567 17.1948 30.0033 16.0314C40.8781 12.8448 50.7668 11.4286 62.3497 11.4286C69.6082 11.4286 77.6506 10.948 79.3704 10.4422C79.4208 10.4422 80.0026 10.9228 80.6602 11.5297ZM10.3272 90.5626C12.7298 91.8018 13.4885 93.3192 12.2746 94.5331C10.4284 96.3793 7.31764 94.9631 7.31764 92.257C7.31764 90.2591 8.45571 89.6015 10.3272 90.5626ZM366.442 90.5878C367.96 92.1053 366.241 95.393 363.914 95.393C361.638 95.393 360.651 93.6479 362.068 92.08C363.737 90.2337 365.482 89.6267 366.442 90.5878ZM15.2841 242.964C23.9081 245.467 34.8843 254.217 38.7031 261.601C40.347 264.788 29.0422 276.068 19.8869 280.393C6.25544 286.842 -3.02617 280.241 4.63685 269.543C6.50836 266.912 10.833 263.322 12.1228 263.322C12.831 263.322 13.2609 262.639 12.8816 262.184C12.7045 261.981 12.3757 261.804 12.1228 261.804C10.833 261.804 6.50836 258.214 4.63685 255.583C-1.83751 246.53 3.95401 239.701 15.2841 242.964ZM366.973 242.432C372.967 243.823 374.08 249.337 369.629 255.583C367.758 258.214 363.434 261.804 362.144 261.804C361.89 261.804 361.562 261.981 361.385 262.184C361.006 262.639 361.435 263.322 362.144 263.322C363.434 263.322 367.758 266.912 369.629 269.543C377.292 280.241 368.011 286.842 354.379 280.393C345.225 276.068 333.92 264.788 335.562 261.601C341.152 250.752 358.172 240.357 366.973 242.432ZM12.2746 430.594C13.3368 431.656 13.3368 431.781 12.1987 433.046C9.79612 435.702 7.31764 435.626 7.31764 432.87C7.31764 430.163 10.4284 428.746 12.2746 430.594ZM365.962 430.719C367.531 432.288 367.201 435.044 365.431 435.044C364.217 435.044 361.131 432.667 361.131 431.732C361.131 429.86 364.42 429.177 365.962 430.719ZM188.802 487.294C204.684 496.854 213.916 521.385 202.435 523.536C197.856 524.396 187.892 517.467 187.892 513.445C187.892 512.736 187.209 512.307 186.754 512.687C186.551 512.863 186.374 513.191 186.374 513.445C186.374 516.353 178.711 522.854 174.437 523.561C162.298 525.534 165.055 505.908 178.812 492.554C181.696 489.774 186.248 486.384 187.133 486.384C187.209 486.384 187.968 486.788 188.802 487.294ZM17.9396 508.108C17.9396 513.318 11.0859 520.02 8.45571 517.364C5.97726 514.912 10.7572 508.994 15.9164 508.159C17.8385 507.856 17.9396 507.856 17.9396 508.108ZM359.765 508.538C365.355 510.056 369.124 518.022 364.242 517.998C361.006 517.971 356.327 512.129 356.327 508.108C356.327 507.831 357.945 508.032 359.765 508.538ZM82.8857 516.86C87.1093 518.199 88.7278 520.602 86.401 522.068C83.8972 523.637 79.9015 521.437 79.9015 518.478C79.9015 515.999 80.0026 515.949 82.8857 516.86ZM294.212 516.784C295.022 519.819 293.302 522.195 290.115 522.474C287.79 522.651 286.246 521.285 286.98 519.64C287.815 517.795 293.833 515.418 294.212 516.784Z" fill="black"/>
</svg>
