<svg width="367" height="517" viewBox="0 0 367 517" fill="none" xmlns="http://www.w3.org/2000/svg">
<path d="M201.923 0.595607C196.208 0.873803 191.377 2.13833 188.089 4.23743C186.901 4.99614 186.901 4.99614 185.788 4.36389C183.967 3.2764 181.312 3.5293 179.744 4.89499C179.364 5.24906 179.061 5.22378 176.961 4.64209C172.333 3.35227 167.806 3.07407 163.583 3.83279C149.167 6.38713 143.072 15.2641 150.862 22.396C159.309 30.1349 173.75 27.2011 180.426 16.3769C181.666 14.3789 181.666 14.3789 181.489 17.4138C181.033 24.8998 177.088 31.981 172.005 34.5102C167.68 36.6346 163.709 35.5724 152.48 29.2751C143.452 24.1917 136.75 27.1 128.176 39.7706C122.41 48.2934 119.805 49.5832 115.278 46.1186C111.484 43.1848 111.181 43.1848 111.055 46.1438C110.979 47.9395 110.979 47.9395 109.663 48.2175C104.125 49.4063 112.243 56.6647 119.78 57.2463C125.42 57.6763 127.873 55.8806 135.359 45.8655C144.792 33.3215 145.475 33.018 154.757 37.5451C165.201 42.6285 165.657 42.7296 170.942 41.2121C178.631 39.0119 184.169 32.0823 185.586 22.9271C186.117 19.4623 186.041 19.5381 187.23 21.789C193.173 33.0939 202.884 36.2805 216.896 31.5765C229.161 27.4287 232.55 27.4035 240.744 31.3488C247.218 34.4596 248.508 34.8642 251.746 34.8389C254.022 34.8389 255.439 34.4343 258.574 32.8663C266.161 29.0475 271.876 29.6544 278.579 34.9654C280.45 36.4829 280.677 36.5587 281.311 35.8505C281.715 35.3953 281.715 35.2689 281.36 34.2067C280.728 32.3858 280.804 32.1076 281.918 31.9052C284.395 31.5006 285.002 30.489 283.56 29.1486C274.052 20.474 265.985 19.2347 254.426 24.6974C247.851 27.8081 245.701 27.707 238.569 23.9387C230.502 19.6899 226.101 19.6646 213.228 23.8123C202.201 27.3529 196.359 24.8745 188.696 13.3926C187.634 11.8499 187.634 11.8499 188.722 12.2545C189.759 12.6592 190.77 13.5949 195.094 18.0966C203.719 27.1507 217.173 21.8901 216.389 9.77605C215.959 3.07407 211.357 0.165668 201.923 0.595607ZM207.917 2.82117C210.648 3.37756 213.683 5.09732 213.683 6.03306C213.683 6.4377 211.407 6.10893 207.816 5.19847C201.443 3.57989 193.88 3.90866 189.859 5.93191C188.469 6.64003 187.887 6.84236 187.786 6.61475C187.634 6.21009 190.417 4.74325 192.693 4.00982C197.093 2.59356 204.25 2.03717 207.917 2.82117ZM175.874 6.61475C177.72 7.12055 177.67 7.09526 177.847 8.5621C177.998 10.029 177.24 10.1048 170.007 9.24495C161.534 8.25862 155.945 9.21966 151.595 12.4316C150.23 13.4432 150.128 13.4179 150.912 12.2545C154.301 7.32288 167.629 4.3133 175.874 6.61475ZM207.285 6.9688C211.661 8.05631 212.672 10.206 210.648 14.2272C208.474 18.5771 207.234 18.4001 200.28 12.6845C196.536 9.62431 194.26 8.38508 191.301 7.87926C190.29 7.70223 190.29 7.70223 191.352 7.22172C192.287 6.81706 193.148 6.61475 195.98 6.13422C198.205 5.75486 204.047 6.1848 207.285 6.9688ZM185.307 7.12055C187.052 9.16908 183.841 12.2039 181.59 10.6359C180.452 9.82664 180.098 8.031 180.907 7.01939C181.716 5.98247 184.372 6.03306 185.307 7.12055ZM214.441 10.1048C214.441 13.5191 213.076 17.1103 211.786 17.1103C211.154 17.1103 211.154 17.1103 212.04 15.517C213.43 13.0132 213.658 10.7118 212.772 8.43566C212.647 8.08159 212.772 8.00572 213.531 8.00572C214.441 8.00572 214.441 8.00572 214.441 10.1048ZM192.314 9.87722C194.69 10.5095 196.46 11.6476 201.039 15.5929C204.074 18.1725 205.919 19.1335 208.423 19.3359C210.269 19.5129 210.269 19.5129 209.258 19.9933C205.515 21.789 199.37 20.1451 196.132 16.478C192.793 12.7098 191.479 11.5464 189.734 10.7371C187.407 9.62431 189.202 9.04264 192.314 9.87722ZM170.664 11.0406C172.839 11.3188 175.065 11.5717 175.621 11.597C178.985 11.8246 164.822 18.6024 159.486 19.3359C155.262 19.8922 155.869 11.5211 160.093 10.7118C161.686 10.4083 167.073 10.5854 170.664 11.0406ZM155.313 13.1144C154.554 14.7077 154.428 17.1862 155.06 18.653C155.667 20.0692 150.938 20.044 150.204 18.6277C149.218 16.7057 149.294 16.2757 150.71 15.0871C151.646 14.3031 155.616 11.7993 155.92 11.7993C155.945 11.7993 155.667 12.4063 155.313 13.1144ZM179.794 12.3304C181.489 13.7467 174.609 21.3844 170.133 23.0536C162.925 25.7091 158.069 25.4056 153.29 21.9914C152.101 21.1568 152.101 21.1568 155.009 21.2579C162.293 21.5614 173.901 17.1609 178.251 12.4569C178.985 11.6728 178.985 11.6728 179.794 12.3304ZM190.29 18.2484C197.245 27.1507 203.061 28.9462 213.709 25.4815C226.456 21.3338 229.87 21.359 238.113 25.5826C245.6 29.4268 248.255 29.5027 255.412 26.0885C262.468 22.7247 266.971 22.1432 272.104 23.9134C276.859 25.532 283.384 30.0084 281.007 30.0084C280.046 30.0084 279.439 30.7419 279.439 31.9052C279.439 33.0432 279.439 33.0432 277.997 32.1076C270.89 27.5805 265.478 27.2518 258.195 30.8936C252.252 33.8778 250.708 33.7767 242.514 29.8821C233.409 25.532 229.363 25.3802 218.741 28.8703C201.494 34.5354 191.352 30.2614 186.471 15.2135C185.434 12.1028 185.813 11.6981 187.432 14.2272C188.14 15.3147 189.404 17.1356 190.29 18.2484ZM184.346 18.8301C183.309 30.3877 178.58 37.292 170.057 39.6441C165.834 40.8075 164.898 40.5545 155.009 35.8253C145.955 31.4499 143.603 32.1582 136.649 41.3132C127.24 53.7057 124.357 55.9564 118.869 55.2231C114.823 54.692 107.463 49.988 110.65 49.988C112.37 49.988 112.749 49.6591 112.825 48.0406C112.901 46.7001 112.901 46.7001 114.039 47.6106C119.375 51.91 123.068 50.3167 129.719 40.8834C138.849 27.9346 142.946 26.7459 156.021 33.2963C159.334 34.9654 162.723 36.5333 163.583 36.8368C173.092 40.0234 183.335 29.5027 183.335 16.5033C183.335 13.949 183.385 13.5949 183.79 13.5191C184.422 13.3926 184.65 15.3653 184.346 18.8301Z" fill="black"/>
<path d="M247.702 1.35457C240.419 2.21445 226.028 5.37576 225.724 6.15977C225.269 7.32313 226.659 7.22197 235.563 5.47693C254.986 1.63277 262.573 2.51794 287.611 11.6478C300.33 16.3012 305.996 17.9199 313.887 19.2602C325.065 21.1065 338.773 21.8145 343.046 20.7523C343.68 20.6006 343.68 20.6006 343.68 22.3204C343.704 27.4544 346.005 33.2711 351.874 43.0081C358.448 53.8577 359.992 59.4216 358.12 65.4913C357.386 67.8685 357.462 67.8181 355.516 67.287C349.067 65.6178 343.35 70.3471 344.943 76.0881C346.436 81.3991 353.416 79.7299 357.337 73.1543C358.702 70.8529 358.676 70.8529 360.472 72.7243C365.986 78.5159 365.176 85.6731 357.082 103.225C335.155 150.72 333.816 174.139 351.14 207.068C359.789 223.431 360.827 227.932 358.727 239.793C357.109 249.024 356.83 250.972 356.551 254.311C356.198 258.635 356.502 263.161 357.589 269.789C360.117 285.115 359.916 289.97 355.92 309.09C348.585 344.116 346.79 360.049 349.243 367.94C349.698 369.408 349.698 369.408 348.736 371.86C341.756 389.639 342.819 406.964 352.202 428.588C357.462 440.727 358.651 444.342 359.082 449.805C359.916 460.048 355.844 476.235 349.218 489.031C346.715 493.837 347.346 493.406 343.577 493.078C331.995 492.141 318.084 495.252 296.765 503.497C263.256 516.496 247.22 517.534 217.099 508.632C202.28 504.256 196.286 502.991 187.08 502.411C180.125 501.955 172.058 502.714 166.974 504.332C164.9 504.99 164.9 504.99 163.838 504.433C157.92 501.424 151.117 501.701 130.986 505.722C90.0912 513.943 67.6586 515.385 56.9101 510.502C55.2661 509.744 55.2661 509.743 56.0249 509.288C59.9702 506.887 60.5771 502.208 57.2136 500.235C54.6592 498.742 51.7508 499.577 50.461 502.132C49.3988 504.231 49.3988 505.394 50.4358 508.657C50.9162 510.199 38.8274 511.261 32.8588 510.174C19.2526 507.722 14.2956 501.804 14.2956 488.02C14.2956 480.609 14.422 479.042 16.774 458.633C18.3168 445.38 18.165 430.989 16.3947 423.857C15.8889 421.784 15.8889 421.784 16.7487 420.063C22.3633 408.91 23.0462 386.504 18.595 360.428C17.0269 351.35 15.1554 343.357 10.7802 326.92C1.82736 293.51 2.33316 278.741 13.7392 239.54C22.0344 210.988 24.4119 200.264 24.6899 190.351C25.0188 178.464 21.8827 169.46 16.2682 166.173C15.2313 165.566 15.2313 165.566 15.0796 161.19C14.9025 156.588 14.2956 150.948 13.2334 144.069C12.6264 140.124 12.0447 136.912 8.73167 118.905C3.31949 89.4667 3.52182 76.3915 9.59154 62.8358C12.7529 55.805 16.6729 50.494 25.9293 40.7065C32.884 33.347 35.2361 30.3121 36.3996 27.2014C36.9052 25.8611 37.057 25.684 37.5122 25.8357C50.3599 29.6041 62.1704 27.2773 86.8793 16.0989C104.33 8.2083 111.183 6.48854 124.132 6.81731C132.124 7.01964 138.345 8.05656 139.661 9.42225C140.343 10.1557 140.495 10.181 140.849 9.49812C142.24 6.91849 133.414 4.64234 121.881 4.61704C109.742 4.59176 103.293 6.31152 85.3367 14.3792C63.8144 24.0654 51.3208 26.9233 41.0782 24.5207C37.2594 23.6102 37.4111 23.7367 37.4111 21.6882C37.4111 15.4161 33.8199 10.6868 28.8124 10.358C20.8711 9.82689 24.336 19.6649 33.6934 24.2172C35.9948 25.33 33.8704 29.0223 26.6121 36.6349C24.8164 38.481 22.2368 41.1872 20.8711 42.654C7.39126 56.9684 1.9791 70.4229 2.61136 88.1769C2.94013 97.8632 4.0782 105.956 8.17526 128.009C13.1069 154.438 13.9921 164.908 11.3366 165.111C4.30582 165.718 0.0317273 172.824 4.98866 175.631C8.50405 177.604 13.1828 174.519 14.5232 169.385C15.5348 165.389 20.4665 173.431 21.8575 181.372C23.6277 191.337 21.4275 203.401 11.7412 237.137C-0.448792 279.601 -0.929312 293.055 8.47875 328.361C19.91 371.202 22.0851 400.667 15.1049 417.383C14.3209 419.204 14.3209 419.204 13.1828 418.218C8.22585 413.842 0.411086 418.142 0.0317273 425.45C-0.297049 431.823 6.07616 432.078 12.5252 425.932C14.0932 424.464 14.1438 424.439 14.2703 425.046C15.3325 430.206 15.5348 445.128 14.6496 453.75C14.4979 455.268 13.9921 459.771 13.5116 463.741C9.84443 494.165 11.0078 501.828 20.1883 507.998C27.8513 513.133 42.0393 514.702 51.3208 511.439C52.4589 511.033 52.4589 511.033 54.4822 512.046C66.0653 517.737 88.9531 516.599 130.91 508.226C149.423 504.535 157.87 503.953 161.385 506.153C161.512 506.204 160.728 506.836 159.691 507.519C152.331 512.45 156.099 518.848 164.799 516.219C169.402 514.827 171.046 510.806 168.315 507.57C167.556 506.659 167.328 506.836 170.641 505.976C181.061 503.346 195.097 504.812 214.546 510.578C230.073 515.157 236.094 516.219 248.713 516.523C264.343 516.902 274.534 514.65 298.282 505.646C317.276 498.439 327.14 496.011 338.773 495.683C344.235 495.531 345.601 495.658 345.298 496.314C341.1 505.976 347.067 517.281 354.378 513.564C361.458 509.971 359.461 498.666 351.064 494.772C349.243 493.938 349.243 493.938 350.28 492.193C357.033 480.685 361.661 464.676 361.661 452.916C361.635 445.279 360.751 442.017 354.985 428.588C345.88 407.344 344.488 393.053 349.875 376.058C351.164 371.987 351.14 372.012 352.329 373.074C358.019 378.234 365.707 372.594 361.813 366.094C359.637 362.452 355.136 362.073 352.302 365.26C351.089 366.625 351.089 366.601 350.861 360.808C350.457 351.375 352.026 341.108 359.334 305.169C361.61 293.94 362.192 288.098 361.661 281.37C361.382 277.78 361.104 275.807 359.738 267.613C358.399 259.571 358.575 254.208 360.497 243.713C361.889 236.102 361.989 235.165 361.965 231.068C361.965 223.683 360.648 219.839 353.668 206.688C336.421 174.114 337.255 152.996 357.589 108.03C361.661 99.0517 363 95.8905 363.937 93.2602C367.856 82.183 366.49 73.5843 360.168 69.386C359.561 69.0066 359.561 69.0066 360.396 66.6546C362.849 59.5227 361.231 53.1242 354.15 41.7183C349.243 33.8781 346.916 28.5166 346.233 23.585C345.753 20.196 345.728 20.2971 347.549 19.7914C355.313 17.6417 359.434 11.142 356.678 5.32519C354.351 0.418825 346.36 7.60133 344.235 16.5289C343.704 18.7291 343.604 18.7797 336.345 18.7291C323.143 18.6533 307.817 16.0231 294.995 11.6478C291.656 10.5097 286.093 8.61295 282.603 7.42429C267.656 2.29032 256.276 0.317663 247.702 1.35457ZM355.11 6.48854C357.185 10.6109 353.795 15.669 347.801 17.4393C346.208 17.9199 346.208 17.9199 347.067 15.4414C349.268 8.94172 353.82 3.88363 355.11 6.48854ZM31.4425 13.0135C33.9717 14.3792 36.1465 19.2602 35.4385 21.9663C35.0843 23.3826 28.7365 18.6786 27.2191 15.8713C25.4234 12.6089 27.7248 11.0408 31.4425 13.0135ZM355.212 69.4872C356.578 69.8412 356.578 69.9171 355.288 72.1173C351.747 78.2125 346.309 79.3251 346.764 73.8624C347.067 70.2712 350.736 68.3744 355.212 69.4872ZM12.247 168.601C11.3113 172.091 8.42818 174.594 6.40493 173.633C3.39536 172.167 7.29011 167.412 11.5389 167.361C12.5758 167.336 12.5758 167.336 12.247 168.601ZM358.575 366.069C360.851 367.763 360.978 371.229 358.803 372.34C356.35 373.605 351.798 370.798 352.885 368.698C354.402 365.791 356.754 364.704 358.575 366.069ZM9.92031 419.001C10.9319 419.28 12.8793 420.822 12.8793 421.353C12.8793 423.656 3.69884 429.067 2.7631 427.347C0.815733 423.656 5.79796 417.838 9.92031 419.001ZM350.482 497.276C356.071 499.804 358.22 507.57 354.25 510.908C349.015 515.309 343.756 505.698 347.119 497.883C347.902 496.113 347.928 496.113 350.482 497.276ZM55.8731 502.308C57.9471 503.37 57.2388 505.749 54.3052 507.57C53.3189 508.177 53.1165 508.126 52.6865 507.115C51.4726 504.156 53.4959 501.07 55.8731 502.308ZM165.507 508.201C168.821 511.033 166.645 514.119 161.309 514.171C156.959 514.22 157.617 511.388 162.548 508.784C164.774 507.619 164.825 507.619 165.507 508.201Z" fill="black"/>
</svg>
