<svg width="371" height="522" viewBox="0 0 371 522" fill="none" xmlns="http://www.w3.org/2000/svg">
<path d="M88.9779 1.00287C87.0052 2.01449 85.665 4.18946 84.8304 7.67955C84.5269 8.94408 84.4762 9.01995 83.844 8.8935C80.9862 8.28652 74.006 8.1095 69.2767 8.48885C64.2944 8.9188 62.1194 9.24757 50.2582 11.4984C49.1708 11.7007 49.1708 11.7007 49.8536 10.9167C52.9644 7.22432 51.9022 2.95023 47.9314 3.22844C44.492 3.48133 41.9882 7.35078 42.7976 11.2202C43.1515 12.9147 43.5056 12.6871 40.2179 13.0159C32.2767 13.8251 24.6643 12.94 16.6977 10.3098C14.5986 9.60164 12.7524 9.09582 12.5754 9.1717C12.3225 9.27285 12.2719 11.726 12.3225 21.0834C12.3983 38.2052 12.2466 39.925 10.7544 39.672C4.91234 38.6856 -0.246911 42.024 0.435931 46.3487C1.09348 50.294 5.94926 50.4205 10.1222 46.6017C11.5637 45.2865 11.5637 45.2865 11.3867 46.8039C11.0326 50.0411 10.9062 67.5422 11.2097 72.3474C11.5132 77.0514 12.1454 84.9927 12.3477 86.5101C12.4489 87.2688 12.4489 87.2688 10.5015 87.2688C4.93765 87.2688 1.37168 92.1498 3.79957 96.3986C5.51931 99.4082 9.56581 98.7 12.0948 94.9318C13.157 93.389 12.9547 92.4026 14.2445 105.857C16.3437 127.405 17.1024 142.225 16.0908 141.922C10.8809 140.404 4.98821 143.894 5.49403 148.244C5.97454 152.569 11.4626 152.999 15.2562 149.003C16.546 147.612 16.546 147.612 16.546 148.674C16.546 153.15 15.8631 162.736 14.6492 175.406C14.194 180.338 13.7134 185.649 13.6376 187.192C13.4605 190.024 13.4605 190.024 12.6512 189.696C7.4161 187.495 1.52342 190.227 1.49813 194.855C1.47284 199.381 7.49197 200.039 12.1707 196.018C13.2076 195.132 13.2076 195.132 13.0812 199.863C12.9042 206.261 13.4605 218.906 14.1687 224.546C14.3204 225.76 14.3204 225.76 13.4353 225.608C8.42773 224.673 3.49609 232.867 6.96087 236.357C9.13586 238.506 13.2835 236.609 14.6998 232.84C15.1803 231.501 15.1803 231.501 15.9896 233.144C19.0497 239.341 23.9056 241.668 25.9287 237.874C27.7244 234.561 25.2458 230.97 19.1003 227.96C15.2815 226.088 15.6861 226.873 15.2815 220.424C14.978 215.517 14.978 199.305 15.2562 197.662C15.3826 197.029 15.4838 196.65 15.5091 196.828C15.6102 197.89 20.2383 201.885 22.5145 202.846C26.6369 204.643 30.3799 201.152 28.5337 197.256C27.168 194.373 20.5166 190.834 16.4954 190.834C15.5091 190.834 15.5091 190.834 15.6608 189.114C15.939 185.902 16.7989 176.797 17.4059 170.348C17.7599 166.807 18.1646 161.446 18.3163 158.461C18.9233 146.651 18.7968 147.637 19.4037 148.472C23.2227 153.934 30.7845 155.679 31.3914 151.228C31.8721 147.511 26.5104 143.312 20.4407 142.655C18.8727 142.478 18.8727 142.478 18.721 137.749C18.3416 126.975 17.6841 118.098 16.1413 102.873C15.6861 98.093 15.2815 94.1477 15.2815 94.0972C15.2815 94.0466 16.3437 95.0582 17.6335 96.348C22.7169 101.431 28.1037 102.468 29.9246 98.6748C32.3273 93.7179 25.9035 88.4321 16.6219 87.724C14.5733 87.5723 14.5227 87.5469 14.5227 86.9147C14.5227 86.5605 14.2951 83.627 14.0169 80.4404C13.0306 68.8825 12.9042 56.7178 13.6629 47.9926C13.8399 46.1465 13.8399 46.1465 14.6492 47.3604C17.7599 51.9886 22.7675 54.3406 25.9035 52.6714C31.4673 49.7376 24.0573 40.3548 16.116 40.3548C14.194 40.3548 14.194 40.3548 14.371 38.6352C14.9527 32.5907 14.8009 17.3911 14.0928 12.5859C13.9158 11.2708 14.0928 11.2455 17.0771 12.2571C23.7538 14.508 34.1735 15.5702 41.3812 14.7356C43.1011 14.5333 43.1011 14.5333 42.9493 15.6714C42.6458 17.821 44.3909 21.918 46.1359 23.2078C50.1317 26.1416 53.1413 19.3132 49.7777 14.9379C48.9432 13.8251 48.9432 13.7999 49.4995 13.6734C50.9158 13.3446 62.2965 11.4984 65.2301 11.1191C68.7961 10.6385 78.7859 10.4868 81.3403 10.8409C82.7564 11.0432 82.7564 11.0432 81.9725 12.7377C80.1263 16.6324 81.1127 22.2469 83.8945 23.6378C88.3457 25.8381 91.7851 18.7315 88.8516 13.3193C87.9411 11.6249 87.4859 11.6755 92.6704 12.8135C110.146 16.6577 117.91 17.7452 126.13 17.5428C128.026 17.5176 129.595 17.4923 129.595 17.5176C129.595 17.5428 129.367 17.9475 129.089 18.4027C126.18 23.3596 128.861 29.6569 133.54 28.8982C137.561 28.2408 138.927 21.3365 135.791 17.6693C134.931 16.6577 134.931 16.6577 136.499 16.5059C137.359 16.4554 141.431 15.6461 145.528 14.7356C151.597 13.3699 161.89 11.5237 163.307 11.5237C163.509 11.5237 163.762 12.2066 163.939 13.3193C164.647 17.4164 167.657 20.1478 171.121 19.819C175.699 19.3638 174.89 13.3699 169.933 10.9673C168.82 10.4109 168.82 10.4109 170.211 9.72808C174.864 7.37606 176.18 3.12726 172.538 2.14093C169.048 1.20519 163.939 5.07464 163.686 8.84293C163.635 9.75338 163.635 9.75338 161.713 9.75338C157.54 9.75338 151.977 10.6133 143.125 12.6618C140.495 13.2688 137.915 13.8251 137.435 13.9263C136.954 14.0275 136.322 14.1539 136.069 14.2298C135.74 14.331 135.993 13.901 136.853 12.94C141.127 8.13478 140.292 3.40546 135.184 3.43075C130.657 3.45605 128.001 8.3877 129.67 13.6734C130.202 15.292 130.606 15.1908 124.208 15.1655C116.014 15.115 110.576 14.3562 96.7927 11.372C90.1414 9.90513 90.1414 9.90513 91.3806 9.22228C98.4114 5.20109 96.1352 -2.61367 88.9779 1.00287ZM93.1256 2.31798C94.4913 2.69734 92.9739 5.40341 90.3942 7.17375C88.8261 8.23595 88.1687 8.41298 88.9274 7.55311C89.5344 6.84496 90.1666 5.45399 90.0149 5.20109C89.762 4.79643 88.9779 4.92289 88.4974 5.45399C87.8398 6.18742 87.7639 5.90922 88.3205 4.77115C89.3573 2.79849 91.2288 1.81216 93.1256 2.31798ZM171.931 4.08831C173.043 4.51825 171.121 7.04729 168.769 8.23595C167.732 8.79234 167.732 8.79234 168.415 7.88188C169.655 6.23799 168.719 5.63102 167.1 7.02201C166.165 7.8566 166.165 7.8566 166.645 7.02201C167.884 4.92289 170.413 3.50662 171.931 4.08831ZM49.3225 5.58045C49.8788 6.44032 49.3225 7.98304 47.881 9.55105C46.9199 10.588 46.8946 10.588 47.274 9.82926C47.7797 8.76706 47.7797 7.24962 47.2486 7.04729C46.7175 6.84496 46.3888 7.24962 45.7059 8.94408C45.1242 10.3856 45.1242 10.3856 45.2507 8.9188C45.5289 5.75748 48.0832 3.68366 49.3225 5.58045ZM136.929 6.21271C137.713 6.99671 135.386 12.7882 134.299 12.7882C134.248 12.7882 134.374 12.2066 134.551 11.4731C135.158 9.1717 134.88 7.88188 133.944 8.46357C133.616 8.66588 132.376 11.2455 132.376 11.7766C132.376 12.1054 132.351 12.1054 132.124 11.7766C130.227 8.84293 134.551 3.83541 136.929 6.21271ZM170.262 13.9769C171.779 15.115 172.209 16.5818 171.223 17.2141C169.806 18.1498 166.999 16.3795 166.342 14.1539C166.038 13.1676 166.038 13.1676 166.873 14.1539C168.112 15.6461 169.048 15.1403 168.162 13.4458C167.96 13.0664 167.783 12.6871 167.783 12.6365C167.783 12.4595 169.376 13.3193 170.262 13.9769ZM84.7545 17.3658C85.3361 17.9475 85.8419 17.1635 85.8672 15.5955C85.9178 13.0159 86.1454 12.7124 86.8535 14.3057C87.9157 16.7588 87.6122 19.6419 86.1454 20.9571C84.2739 22.6515 82.6553 17.7452 83.8186 14.0528C84.198 12.9147 84.198 12.9147 84.3245 14.9885C84.4004 16.1266 84.5773 17.1888 84.7545 17.3658ZM45.8829 18.1245C45.8829 18.5798 46.5405 18.959 46.9199 18.7062C47.2233 18.5292 47.1981 17.037 46.8692 16.1519C46.6164 15.4437 46.6164 15.4437 47.2992 16.076C48.7408 17.4164 49.373 20.1225 48.5132 21.3365C47.5775 22.6767 45.1242 19.5156 44.7702 16.4554C44.6185 15.1908 44.6185 15.1908 45.2507 16.4554C45.6048 17.1382 45.8829 17.8969 45.8829 18.1245ZM131.618 20.6789C132.275 24.877 133.616 24.7759 133.666 20.5523C133.692 18.7315 133.692 18.7315 134.096 19.6167C135.563 22.8539 133.97 27.229 131.719 26.1668C130.1 25.4081 129.67 22.5504 130.733 19.9201C131.289 18.5545 131.264 18.5292 131.618 20.6789ZM7.9725 41.9481C6.101 42.6057 6.50564 44.1232 8.45302 43.769C9.33819 43.6173 9.33819 43.6173 8.45302 44.376C6.55623 46.0452 3.87544 47.0569 3.1926 46.3741C1.574 44.7554 4.58357 41.67 7.82076 41.6446C8.83237 41.6446 8.83238 41.6446 7.9725 41.9481ZM21.2753 44.4014C24.9424 46.1969 26.8391 49.0548 25.2713 50.4205C23.5008 51.9379 19.2521 49.7629 16.4195 45.9188C15.2562 44.3255 15.3067 44.2497 16.7989 45.1854C18.3416 46.121 20.5418 47.0063 20.8707 46.8039C21.6547 46.2982 21.0225 45.5899 18.3416 43.9462C16.2678 42.6816 18.4175 43.0103 21.2753 44.4014ZM8.85766 90.0002C6.101 91.7705 6.80913 93.1614 9.79342 91.8211C11.2603 91.1887 11.2603 91.1887 10.805 91.9981C9.05999 95.0836 6.3792 96.4238 5.77223 94.5018C5.21583 92.7568 6.101 91.0624 8.07366 90.1519C9.21173 89.6208 9.56581 89.545 8.85766 90.0002ZM22.8434 91.2141C26.9657 92.5039 29.1153 94.7547 28.4831 97.1067C27.775 99.737 24.0573 98.9024 19.9603 95.1847C18.3416 93.7179 15.8884 90.6324 16.7989 91.2141C21.2501 94.0466 22.9445 94.8053 23.2227 94.0718C23.4249 93.5407 22.8938 92.9338 20.9718 91.4922C19.2521 90.2024 19.505 90.1772 22.8434 91.2141ZM13.2582 144.501C11.1338 145.538 11.3614 146.727 13.5617 146.145C14.5733 145.867 14.5733 145.867 13.7387 146.727C11.412 149.129 7.9472 149.509 7.9472 147.359C7.9472 145.437 10.3751 143.818 13.2582 143.818C14.6492 143.818 14.6492 143.818 13.2582 144.501ZM22.8938 147.738C24.8665 148.548 26.3587 147.738 24.6136 146.828C23.5262 146.246 24.4113 146.297 25.7011 146.878C28.5337 148.194 30.3292 150.47 29.2924 151.481C28.0785 152.72 24.5378 151.33 21.7053 148.497C19.7831 146.575 19.2268 145.589 20.5925 146.575C21.0225 146.878 22.0592 147.409 22.8938 147.738ZM10.2486 191.263C11.0326 191.414 10.9568 191.466 8.95883 191.945C7.06205 192.427 6.80913 192.552 6.73326 193.084C6.6321 193.691 9.76812 193.793 11.3614 193.235C11.6396 193.135 11.3109 193.463 10.628 193.969C7.99779 195.891 4.35596 196.549 4.15363 195.132C3.77427 192.579 6.93559 190.58 10.2486 191.263ZM20.9466 194.373C25.1195 195.815 27.522 198.218 26.6115 200.115C25.8024 201.835 22.5399 200.773 19.2521 197.687C16.8748 195.462 16.723 195.056 18.5186 195.942C22.211 197.738 23.1214 196.801 19.9603 194.449C19.0244 193.742 19.1256 193.742 20.9466 194.373ZM11.1591 228.971C9.51522 230.691 11.412 230.995 13.3594 229.301C13.8146 228.921 13.8146 228.921 13.6376 229.528C12.9294 231.956 10.5015 234.94 9.38876 234.788C7.4161 234.509 8.42773 230.312 10.8303 228.77C11.8925 228.087 11.9684 228.136 11.1591 228.971ZM21.3764 230.943C24.816 233.019 25.9287 236.129 23.8043 237.723C22.3627 238.785 19.5809 236.306 17.7852 232.385C16.8242 230.336 16.8495 230.312 18.2404 231.526C20.3901 233.423 21.8064 233.195 20.3648 231.171C19.3785 229.805 19.4796 229.781 21.3764 230.943Z" fill="black"/>
<path d="M276.632 0.648501C273.573 1.86244 275.267 6.74352 279.591 9.22197C280.832 9.90482 280.832 9.90482 274.18 11.3717C260.396 14.356 254.96 15.1147 246.765 15.1653C240.366 15.1905 240.772 15.2917 241.303 13.6731C242.972 8.38739 240.316 3.45574 235.789 3.43046C230.681 3.40517 229.846 8.13449 234.12 12.9397C234.979 13.9007 235.233 14.3307 234.903 14.2295C234.651 14.1536 234.019 14.0272 233.537 13.926C233.057 13.8249 230.502 13.2685 227.847 12.6615C218.996 10.613 213.431 9.75307 209.258 9.75307C207.337 9.75307 207.337 9.75307 207.286 8.84262C207.033 5.07434 201.925 1.20489 198.435 2.14064C194.793 3.12697 196.108 7.37577 200.761 9.72779C202.153 10.4106 202.153 10.4106 201.04 10.967C196.083 13.3696 195.273 19.3635 199.85 19.8188C203.316 20.1475 206.326 17.4161 207.033 13.319C207.21 12.2063 207.464 11.5234 207.665 11.5234C209.082 11.5234 219.376 13.3696 225.446 14.7353C229.543 15.6458 233.613 16.4551 234.474 16.5056C236.041 16.6574 236.041 16.6574 235.182 17.669C232.046 21.3362 233.412 28.2405 237.433 28.8979C242.111 29.6567 244.793 23.3593 241.883 18.4024C241.606 17.9472 241.379 17.5426 241.379 17.5173C241.379 17.492 242.945 17.5173 244.842 17.5426C253.063 17.7449 260.826 16.6574 278.301 12.8132C283.487 11.6752 283.032 11.6246 282.122 13.319C279.187 18.7312 282.626 25.8378 287.078 23.6376C289.86 22.2467 290.847 16.6321 288.999 12.7374C288.216 11.0429 288.216 11.0429 289.633 10.8406C292.186 10.4865 302.176 10.6382 305.742 11.1188C308.677 11.4981 320.057 13.3443 321.472 13.6731C322.03 13.7996 322.03 13.8248 321.195 14.9376C317.83 19.3129 320.841 26.1413 324.837 23.2076C326.582 21.9178 328.327 17.8208 328.024 15.671C327.872 14.533 327.872 14.533 329.591 14.7353C336.798 15.5699 347.219 14.5077 353.896 12.2568C356.88 11.2452 357.056 11.2705 356.88 12.5856C356.172 17.3908 356.02 32.5904 356.601 38.6349C356.779 40.3545 356.779 40.3545 354.856 40.3545C346.916 40.3545 339.505 49.7374 345.068 52.6711C348.206 54.3403 353.213 51.9883 356.324 47.3601C357.132 46.1462 357.132 46.1462 357.31 47.9923C358.069 56.7175 357.942 68.8822 356.955 80.4401C356.677 83.6267 356.449 86.5603 356.449 86.9144C356.449 87.5466 356.4 87.572 354.376 87.7238C345.068 88.4318 338.646 93.7176 341.047 98.6745C342.868 102.468 348.255 101.431 353.365 96.3477C354.628 95.0579 355.69 94.0463 355.69 94.097C355.69 94.1474 355.286 98.0927 354.831 102.873C353.289 118.098 352.631 126.975 352.251 137.748C352.1 142.478 352.1 142.478 350.531 142.655C344.461 143.312 339.101 147.51 339.581 151.228C340.188 155.679 347.75 153.934 351.569 148.471C352.176 147.637 352.048 146.65 352.655 158.461C352.807 161.445 353.213 166.807 353.566 170.348C354.173 176.797 355.034 185.901 355.311 189.113C355.463 190.834 355.463 190.834 354.476 190.834C350.455 190.834 343.805 194.373 342.439 197.256C340.592 201.152 344.336 204.642 348.458 202.846C350.734 201.884 355.362 197.89 355.463 196.828C355.489 196.649 355.59 197.029 355.717 197.662C355.994 199.305 355.994 215.517 355.69 220.424C355.286 226.873 355.69 226.087 351.872 227.96C345.727 230.97 343.247 234.56 345.044 237.874C347.068 241.668 351.923 239.34 354.983 233.143C355.793 231.501 355.793 231.501 356.273 232.84C357.69 236.609 361.836 238.506 364.012 236.357C367.477 232.866 362.545 224.672 357.538 225.607C356.652 225.759 356.652 225.759 356.804 224.545C357.511 218.906 358.069 206.26 357.891 199.862C357.765 195.132 357.765 195.132 358.801 196.018C363.48 200.039 369.499 199.381 369.474 194.855C369.45 190.227 363.556 187.495 358.321 189.696C357.511 190.024 357.511 190.024 357.335 187.191C357.259 185.648 356.779 180.337 356.324 175.406C355.11 162.735 354.427 153.15 354.427 148.674C354.427 147.612 354.427 147.612 355.717 149.003C359.51 152.998 364.998 152.568 365.478 148.244C365.984 143.894 360.091 140.404 354.882 141.921C353.869 142.225 354.628 127.405 356.728 105.857C358.018 92.4024 357.815 93.3887 358.877 94.9315C361.407 98.6997 365.453 99.408 367.173 96.3983C369.601 92.1495 366.035 87.2685 360.47 87.2685C358.524 87.2685 358.524 87.2685 358.625 86.5098C358.828 84.9924 359.459 77.0511 359.763 72.3471C360.066 67.5419 359.939 50.0409 359.586 46.8036C359.408 45.2862 359.408 45.2862 360.85 46.6014C365.023 50.4202 369.878 50.2937 370.536 46.3484C371.219 42.0237 366.06 38.6854 360.218 39.6717C358.725 39.9247 358.573 38.2049 358.649 21.0832C358.701 11.7257 358.649 9.27256 358.397 9.17141C358.221 9.09553 356.373 9.60133 354.275 10.3095C346.309 12.9397 338.695 13.8248 330.755 13.0155C327.466 12.6868 327.821 12.9144 328.176 11.2199C328.984 7.35049 326.48 3.48104 323.041 3.22813C319.071 2.94994 318.009 7.22403 321.119 10.9164C321.802 11.7004 321.802 11.7004 320.714 11.4981C308.853 9.24728 306.677 8.91849 301.696 8.48856C296.966 8.1092 289.986 8.28623 287.129 8.8932C286.496 9.01966 286.446 8.94379 286.143 7.67926C284.777 1.93831 280.781 -1.02067 276.632 0.648501ZM279.895 2.39354C281.059 2.67174 281.97 3.45574 282.653 4.77086C283.208 5.90893 283.133 6.18711 282.474 5.4537C281.994 4.9226 281.211 4.79614 280.957 5.20078C280.805 5.4537 281.439 6.84467 282.046 7.5528C282.804 8.41269 282.146 8.23564 280.578 7.17344C276.632 4.49266 276.228 1.55896 279.895 2.39354ZM200.988 4.21446C202.102 4.51794 203.595 5.78247 204.302 7.0217C204.808 7.85629 204.808 7.85629 203.871 7.0217C202.254 5.63073 201.318 6.2377 202.557 7.88159C203.543 9.17141 201.647 8.18508 199.877 6.4906C197.853 4.54324 198.359 3.48104 200.988 4.21446ZM324.179 5.47899C325.114 6.21242 325.569 7.19875 325.721 8.91849C325.848 10.3853 325.848 10.3853 325.266 8.94379C324.583 7.24931 324.255 6.84467 323.724 7.047C323.193 7.24931 323.193 8.76674 323.699 9.82895C324.078 10.5877 324.052 10.5877 323.092 9.55076C320.486 6.74352 321.423 3.304 324.179 5.47899ZM237.558 6.11124C238.799 6.97113 239.607 10.5877 238.848 11.7763C238.621 12.1051 238.596 12.1051 238.596 11.7763C238.596 11.2452 237.357 8.66559 237.027 8.46326C236.092 7.88159 235.813 9.17141 236.42 11.4728C236.599 12.2063 236.724 12.7879 236.675 12.7879C236.219 12.7879 233.537 7.78042 233.537 6.94583C233.537 5.83306 236.344 5.27666 237.558 6.11124ZM202.809 13.4455C201.925 15.1399 202.86 15.6458 204.099 14.1536C204.934 13.1673 204.934 13.1673 204.63 14.1536C203.974 16.3792 201.167 18.1495 199.75 17.2138C198.56 16.4298 199.422 14.71 201.671 13.3696C203.215 12.4339 203.34 12.4339 202.809 13.4455ZM285.105 15.5952C285.156 18.6553 286.446 18.1495 286.647 14.9882C286.774 12.9144 286.774 12.9144 287.154 14.0525C288.316 17.7449 286.698 22.6512 284.826 20.9568C283.36 19.6416 283.057 16.7586 284.119 14.3054C284.826 12.7121 285.054 13.0155 285.105 15.5952ZM326.228 16.5056C325.772 19.5912 323.369 22.6512 322.459 21.3362C321.599 20.1223 322.231 17.4161 323.673 16.0757C324.355 15.4434 324.355 15.4434 324.103 16.1516C323.775 17.0367 323.748 18.5289 324.052 18.7059C324.407 18.9335 325.089 18.5795 325.089 18.1748C325.089 17.7449 326.1 15.317 326.279 15.317C326.355 15.317 326.328 15.8481 326.228 16.5056ZM237.661 23.3341C238.317 24.3963 238.924 23.4352 239.379 20.6279C239.683 18.7312 239.683 18.7312 240.189 19.8692C241.327 22.4236 240.897 25.3826 239.254 26.1666C237.079 27.2035 235.536 23.41 236.775 19.9705C237.206 18.7312 237.206 18.7312 237.331 20.881C237.407 22.0695 237.558 23.1823 237.661 23.3341ZM366.187 42.5044C369.651 44.5275 368.437 47.7395 364.897 45.9186C362.671 44.7805 361.305 43.5411 362.519 43.7687C364.467 44.1229 364.871 42.6307 363.001 41.9226C362.166 41.6191 362.191 41.6191 363.608 41.7202C364.567 41.7961 365.453 42.0743 366.187 42.5044ZM352.631 43.9711C350 45.5644 349.317 46.2979 350.102 46.8036C350.431 47.006 352.631 46.1208 354.173 45.1851C355.666 44.2494 355.717 44.3253 354.552 45.9186C351.72 49.7626 347.472 51.9376 345.702 50.4202C343.83 48.8017 347.219 44.9068 351.745 43.4907C353.769 42.8583 354.148 43.0607 352.631 43.9711ZM364.366 91.1632C365.857 92.63 365.681 95.2855 364.063 95.4372C363.152 95.5385 361.18 93.7935 360.167 91.9978C359.712 91.1884 359.712 91.1884 361.18 91.8208C364.188 93.1611 364.846 91.846 362.115 89.9999C361.836 89.7975 362.064 89.8482 362.646 90.0504C363.202 90.278 363.987 90.7586 364.366 91.1632ZM349.975 91.5173C348.079 92.9335 347.547 93.5404 347.75 94.0715C348.027 94.805 349.723 94.0463 354.173 91.2138C355.083 90.6321 352.631 93.7176 351.013 95.1844C346.916 98.9021 343.198 99.7367 342.489 97.1064C341.832 94.6027 344.385 92.1748 349.116 90.9104C351.517 90.2527 351.593 90.3034 349.975 91.5173ZM360.977 144.577C364.643 146.625 363.076 150.09 359.332 148.219C357.435 147.283 356.045 145.765 357.411 146.145C359.611 146.726 359.839 145.563 357.714 144.476C356.324 143.767 356.324 143.767 358.118 143.869C359.408 143.945 360.218 144.147 360.977 144.577ZM350.658 147.03C348.306 150.343 343.096 152.923 341.681 151.481C340.643 150.469 342.439 148.193 345.271 146.878C346.561 146.297 347.447 146.246 346.358 146.828C345.751 147.131 345.651 148.042 346.182 148.244C346.586 148.396 349.495 147.257 350.379 146.575C351.214 145.942 351.316 146.119 350.658 147.03ZM363.96 191.465C365.908 192.048 367.046 193.514 366.819 195.132C366.616 196.549 362.974 195.891 360.345 193.969C359.662 193.463 359.332 193.134 359.611 193.235C361.204 193.793 364.34 193.69 364.239 193.083C364.163 192.552 363.911 192.427 362.014 191.945C360.421 191.566 360.042 191.389 360.497 191.289C361.711 191.035 362.697 191.086 363.96 191.465ZM351.013 194.449C347.851 196.801 348.761 197.738 352.454 195.942C354.249 195.056 354.097 195.462 351.72 197.687C348.433 200.773 345.171 201.835 344.361 200.115C343.475 198.269 345.651 195.993 349.723 194.476C351.669 193.741 351.973 193.741 351.013 194.449ZM361.508 230.109C363.708 233.068 362.519 236.205 360.042 233.978C358.676 232.739 356.297 228.162 357.614 229.301C359.56 230.994 361.457 230.716 359.839 228.97C359.105 228.187 359.105 228.187 359.939 228.667C360.421 228.921 361.104 229.577 361.508 230.109ZM350.607 231.171C349.165 233.195 350.582 233.422 352.731 231.525C354.124 230.312 354.148 230.336 353.187 232.385C351.392 236.305 348.61 238.784 347.168 237.722C345.068 236.154 346.081 233.17 349.469 231.019C351.442 229.756 351.593 229.78 350.607 231.171Z" fill="black"/>
<path d="M22.1858 282.132C20.3142 282.562 17.5829 285.419 15.9896 288.632C15.1803 290.275 15.1803 290.275 14.6998 288.936C13.2835 285.167 9.13586 283.27 6.96087 285.419C3.49609 288.909 8.42773 297.103 13.4353 296.168C14.3204 296.016 14.3204 296.016 14.1687 297.23C13.4605 302.869 12.9042 315.515 13.0812 321.913C13.2076 326.644 13.2076 326.644 12.1707 325.758C7.49197 321.737 1.47284 322.395 1.49813 326.921C1.52342 331.549 7.4161 334.28 12.6512 332.08C13.4605 331.752 13.4605 331.752 13.6376 334.584C13.7134 336.128 14.194 341.439 14.6492 346.37C15.8631 359.041 16.546 368.625 16.546 373.102C16.546 374.164 16.546 374.164 15.2562 372.774C11.4626 368.777 5.97454 369.208 5.49403 373.532C4.98821 377.882 10.8809 381.372 16.116 379.854C17.1024 379.551 16.3437 394.37 14.2445 415.918C12.9547 429.374 13.157 428.387 12.0948 426.843C9.56581 423.076 5.51931 422.367 3.79957 425.377C1.37168 429.626 4.93765 434.506 10.5015 434.506C12.4489 434.506 12.4489 434.506 12.3477 435.265C12.1454 436.783 11.5132 444.724 11.2097 449.428C10.9062 454.233 11.0326 471.735 11.3867 474.972C11.5637 476.49 11.5637 476.49 10.1222 475.174C5.94926 471.355 1.09348 471.482 0.435931 475.428C-0.246911 479.752 4.91234 483.091 10.7544 482.104C12.2466 481.85 12.3983 483.571 12.3225 500.693C12.2719 510.05 12.3225 512.502 12.5754 512.605C12.7524 512.681 14.5986 512.174 16.6977 511.467C24.6643 508.836 32.2767 507.95 40.2179 508.76C43.5056 509.088 43.1515 508.86 42.7976 510.556C41.9882 514.426 44.492 518.295 47.9314 518.547C51.9022 518.826 52.9644 514.551 49.8536 510.86C49.1708 510.074 49.1708 510.074 50.2582 510.277C62.1194 512.529 64.2944 512.857 69.2767 513.288C74.006 513.667 80.9862 513.489 83.844 512.882C84.4762 512.756 84.5269 512.832 84.8304 514.096C86.0948 519.382 88.3205 521.531 92.4428 521.33C97.5514 521.102 96.8939 515.715 91.3806 512.554C90.1414 511.871 90.1414 511.871 96.7927 510.404C110.576 507.419 116.014 506.66 124.208 506.611C130.606 506.584 130.202 506.484 129.67 508.102C128.001 513.388 130.657 518.32 135.184 518.344C140.292 518.371 141.127 513.64 136.853 508.836C135.993 507.874 135.74 507.445 136.069 507.546C136.322 507.622 136.954 507.749 137.435 507.849C137.915 507.95 140.495 508.508 143.125 509.115C151.977 511.163 157.54 512.022 161.713 512.022C163.635 512.022 163.635 512.022 163.686 512.933C163.939 516.702 169.048 520.571 172.538 519.634C176.18 518.648 174.864 514.399 170.211 512.047C168.82 511.364 168.82 511.364 169.933 510.809C174.89 508.405 175.699 502.411 171.121 501.956C167.657 501.628 164.647 504.359 163.939 508.456C163.762 509.57 163.509 510.253 163.307 510.253C161.89 510.253 151.597 508.405 145.528 507.04C141.431 506.129 137.359 505.321 136.499 505.27C134.931 505.118 134.931 505.118 135.791 504.107C138.927 500.439 137.561 493.534 133.54 492.878C128.861 492.119 126.18 498.417 129.089 503.373C129.367 503.828 129.595 504.232 129.595 504.259C129.595 504.284 128.026 504.259 126.13 504.232C117.91 504.031 110.146 505.118 92.6704 508.963C87.4859 510.101 87.9411 510.15 88.8516 508.456C91.7851 503.045 88.3457 495.938 83.8945 498.138C81.1127 499.528 80.1263 505.143 81.9725 509.039C82.7564 510.733 82.7564 510.733 81.3403 510.936C78.7859 511.288 68.7961 511.137 65.2301 510.657C62.2965 510.277 50.9158 508.432 49.4995 508.102C48.9432 507.977 48.9432 507.95 49.7777 506.838C53.1413 502.463 50.1317 495.634 46.1359 498.569C44.3909 499.858 42.6458 503.955 42.9493 506.104C43.1011 507.243 43.1011 507.243 41.3812 507.04C34.1735 506.205 23.7538 507.267 17.0771 509.519C14.0928 510.53 13.9158 510.505 14.0928 509.191C14.8009 504.384 14.9527 489.185 14.371 483.115C14.194 481.422 14.194 481.422 16.116 481.422C24.0573 481.422 31.4673 472.038 25.9035 469.104C22.7675 467.435 17.7599 469.787 14.6492 474.415C13.8399 475.629 13.8399 475.629 13.6629 473.783C12.9042 465.058 13.0306 452.894 14.0169 441.335C14.2951 438.124 14.5227 435.216 14.5227 434.861C14.5227 434.229 14.5733 434.203 16.6219 434.051C25.9035 433.344 32.3273 428.057 29.9246 423.101C28.1037 419.307 22.7169 420.345 17.6082 425.428C16.3437 426.718 15.2815 427.729 15.2815 427.678C15.2815 427.629 15.6861 423.683 16.1413 418.903C17.6841 403.678 18.3416 394.801 18.721 384.027C18.8727 379.299 18.8727 379.299 20.4407 379.12C26.5104 378.464 31.8721 374.264 31.3914 370.547C30.7845 366.097 23.2227 367.842 19.4037 373.305C18.7968 374.139 18.9233 375.126 18.3163 363.314C18.1646 360.331 17.7599 354.968 17.4059 351.427C16.7989 344.978 15.939 335.873 15.6608 332.638C15.5091 330.942 15.5091 330.942 16.4954 330.942C20.5166 330.942 27.168 327.402 28.5337 324.519C30.3799 320.623 26.6369 317.133 22.5145 318.929C20.2383 319.891 15.6102 323.886 15.5091 324.948C15.4838 325.126 15.3826 324.747 15.2562 324.113C14.978 322.471 14.978 306.259 15.2815 301.352C15.6861 294.903 15.2815 295.688 19.1003 293.816C24.1836 291.337 26.4093 288.936 26.4093 286.026C26.4093 283.346 24.5125 281.601 22.1858 282.132ZM24.0573 284.256C25.8276 285.798 24.7654 288.556 21.604 290.654C19.5555 292.02 19.3533 292.02 20.3648 290.605C21.8064 288.581 20.3901 288.353 18.2404 290.25C16.8495 291.439 16.8495 291.439 17.6841 289.592C19.5809 285.318 22.464 282.891 24.0573 284.256ZM10.9315 287.822C12.2972 289.036 14.6745 293.613 13.3594 292.475C11.3867 290.757 9.5405 291.085 11.1844 292.83C11.8672 293.588 11.8672 293.588 11.0326 293.109C8.90825 291.895 7.64372 288.606 8.7565 287.266C9.21173 286.709 9.91986 286.912 10.9315 287.822ZM26.6115 321.661C27.522 323.558 25.1195 325.961 20.9466 327.402C19.1003 328.034 19.0497 327.958 20.6177 326.795C22.9697 325.05 21.5029 324.341 18.5692 325.809C16.723 326.72 16.8748 326.34 19.2521 324.089C22.5651 320.978 25.7769 319.916 26.6115 321.661ZM8.02307 326.39C8.78179 326.668 9.94516 327.3 10.628 327.806C11.3109 328.313 11.6396 328.641 11.3614 328.541C9.76812 327.983 6.6321 328.085 6.73326 328.692C6.80913 329.223 7.06205 329.349 8.95883 329.83C11.1085 330.361 11.1085 330.361 9.91986 330.562C6.75856 331.069 3.79957 329.045 4.15363 326.644C4.28009 325.733 5.97454 325.631 8.02307 326.39ZM29.2924 370.294C30.3292 371.305 28.5337 373.582 25.7011 374.898C24.4113 375.478 23.5262 375.53 24.6136 374.947C25.2206 374.644 25.3217 373.733 24.7906 373.532C24.3608 373.381 21.6294 374.443 20.5925 375.201C19.2268 376.188 19.7831 375.201 21.7053 373.278C24.5378 370.446 28.0785 369.056 29.2924 370.294ZM11.6396 373.557C13.5364 374.492 14.9274 376.01 13.5617 375.63C11.3614 375.05 11.1338 376.212 13.2582 377.299C14.6492 378.009 14.6492 378.009 12.8536 377.906C10.7544 377.781 9.21173 377.047 8.45302 375.808C6.98618 373.481 8.85766 372.167 11.6396 373.557ZM27.7244 423.505C30.2029 425.453 27.7244 429.019 22.8434 430.561C19.505 431.599 19.2521 431.574 20.9718 430.284C22.8938 428.843 23.4249 428.236 23.2227 427.705C22.9445 426.97 21.2501 427.729 16.7989 430.561C15.8884 431.143 18.3669 428.033 19.9603 426.591C23.248 423.632 26.3335 422.394 27.7244 423.505ZM9.05999 427.629C11.3361 430.005 11.5637 430.739 9.79342 429.954C6.78385 428.615 6.12629 429.929 8.85766 431.775C9.16115 431.978 8.93353 431.953 8.32656 431.726C7.03674 431.244 5.67106 429.802 5.64577 428.892C5.51931 425.857 6.9103 425.353 9.05999 427.629ZM25.2965 471.38C27.345 473.152 22.5145 477.931 18.0634 478.538C16.9253 478.69 16.9253 478.69 18.3416 477.829C21.0225 476.186 21.6547 475.477 20.8707 474.972C20.5418 474.77 18.3416 475.655 16.7989 476.59C15.3067 477.501 15.2562 477.45 16.3942 475.883C19.3533 471.911 23.4756 469.813 25.2965 471.38ZM6.07572 475.856C8.30127 476.994 9.66696 478.235 8.45302 478.007C6.50564 477.653 6.101 479.145 7.9725 479.853C8.80709 480.156 8.78179 480.156 7.36553 480.056C4.81119 479.853 2.88912 478.311 2.88912 476.414C2.88912 474.897 3.85014 474.718 6.07572 475.856ZM133.161 495.583C134.577 496.368 135.108 499.934 134.096 502.159C133.692 503.045 133.692 503.045 133.666 501.224C133.616 496.949 132.275 496.899 131.592 501.148C131.289 503.045 131.289 503.045 130.783 501.907C129.266 498.466 130.808 494.344 133.161 495.583ZM48.9177 502.007C48.9177 503.273 48.2097 504.839 47.2992 505.7C46.6164 506.332 46.6164 506.332 46.8692 505.625C47.1981 504.739 47.2233 503.246 46.9199 503.07C46.5405 502.817 45.8829 503.197 45.8829 503.652C45.8829 503.88 45.6048 504.612 45.2507 505.321C44.6185 506.584 44.6185 506.584 44.7702 505.321C45.2759 501.072 48.9432 498.138 48.9177 502.007ZM86.2719 500.945C87.6628 502.487 87.8905 505.067 86.8535 507.47C86.1454 509.063 85.9178 508.76 85.8672 506.18C85.8167 503.121 84.5269 503.625 84.3245 506.787C84.198 508.86 84.198 508.86 83.8186 507.722C82.5795 503.828 84.3751 498.872 86.2719 500.945ZM171.324 504.638C172.411 505.522 171.374 507.318 169.073 508.584C167.631 509.342 167.631 509.342 168.162 508.329C169.048 506.636 168.112 506.129 166.873 507.622C166.038 508.608 166.038 508.608 166.316 507.647C166.721 506.332 167.96 504.991 169.174 504.562C170.515 504.081 170.666 504.107 171.324 504.638ZM135.513 510.733C138.016 514.475 137.915 516.068 135.209 516.068C132.756 516.068 130.758 512.123 132.124 509.999C132.351 509.67 132.376 509.67 132.376 509.999C132.376 510.53 133.616 513.109 133.944 513.312C134.88 513.895 135.158 512.605 134.551 510.302C134.121 508.633 134.121 508.633 135.513 510.733ZM49.3225 514.426C50.3847 517.206 47.1475 517.764 45.7566 515.057C45.5542 514.653 45.3266 513.667 45.2507 512.857C45.1242 511.391 45.1242 511.391 45.7059 512.832C46.3888 514.526 46.7175 514.93 47.2486 514.729C47.7797 514.526 47.7797 513.009 47.274 511.947C46.8946 511.188 46.9199 511.188 47.881 512.225C48.4373 512.832 49.0695 513.819 49.3225 514.426ZM171.096 515.285C173.726 517.84 170.843 518.978 168.087 516.448C166.696 515.209 165.785 513.591 167.1 514.729C168.719 516.144 169.655 515.537 168.415 513.895C167.429 512.605 169.326 513.591 171.096 515.285ZM90.9506 514.981C93.2521 516.651 94.3902 519.154 92.9739 519.483C91.1529 519.862 89.2814 518.876 88.3205 517.005C87.7639 515.867 87.8398 515.588 88.4974 516.322C88.9779 516.854 89.762 516.979 90.0149 516.575C90.1666 516.322 89.2814 514.426 88.8768 514.172C88.7503 514.096 88.624 513.895 88.624 513.767C88.624 513.464 89.4331 513.868 90.9506 514.981Z" fill="black"/>
<path d="M346.916 282.156C341.757 283.598 344.564 290.225 351.872 293.816C355.69 295.688 355.286 294.903 355.69 301.352C355.994 306.259 355.994 322.471 355.717 324.113C355.59 324.747 355.489 325.126 355.463 324.948C355.362 323.886 350.734 319.891 348.458 318.929C344.336 317.133 340.592 320.623 342.439 324.519C343.805 327.402 350.455 330.942 354.476 330.942C355.463 330.942 355.463 330.942 355.311 332.638C355.034 335.873 354.173 344.978 353.566 351.427C353.213 354.968 352.807 360.331 352.655 363.314C352.048 375.126 352.176 374.139 351.569 373.305C347.75 367.842 340.188 366.097 339.581 370.547C339.101 374.264 344.461 378.464 350.531 379.12C352.1 379.298 352.1 379.298 352.251 384.027C352.631 394.801 353.289 403.678 354.831 418.903C355.286 423.683 355.69 427.629 355.69 427.678C355.69 427.729 354.628 426.718 353.365 425.428C348.255 420.345 342.868 419.307 341.047 423.101C338.646 428.057 345.068 433.344 354.376 434.051C356.4 434.203 356.449 434.229 356.449 434.861C356.449 435.216 356.677 438.124 356.955 441.335C357.942 452.894 358.069 465.058 357.31 473.783C357.132 475.629 357.132 475.629 356.324 474.415C353.213 469.787 348.206 467.435 345.068 469.104C339.505 472.038 346.916 481.421 354.856 481.421C356.779 481.421 356.779 481.422 356.601 483.115C356.02 489.185 356.172 504.384 356.88 509.19C357.056 510.505 356.88 510.53 353.896 509.519C347.219 507.267 336.798 506.205 329.591 507.04C327.872 507.242 327.872 507.242 328.024 506.104C328.327 503.955 326.582 499.858 324.837 498.568C320.841 495.634 317.83 502.463 321.195 506.838C322.03 507.95 322.03 507.977 321.472 508.102C320.057 508.432 308.677 510.277 305.742 510.657C302.176 511.137 292.186 511.288 289.633 510.936C288.216 510.733 288.216 510.733 288.999 509.039C290.847 505.143 289.86 499.528 287.078 498.138C282.626 495.938 279.187 503.045 282.122 508.456C283.032 510.15 283.487 510.101 278.301 508.963C260.826 505.118 253.063 504.031 244.842 504.232C242.945 504.259 241.379 504.283 241.379 504.259C241.379 504.232 241.606 503.828 241.883 503.373C244.793 498.417 242.111 492.119 237.433 492.878C233.412 493.534 232.046 500.439 235.182 504.107C236.041 505.118 236.041 505.118 234.474 505.27C233.613 505.321 229.543 506.129 225.446 507.04C219.376 508.405 209.082 510.253 207.665 510.253C207.464 510.253 207.21 509.57 207.033 508.456C206.326 504.359 203.316 501.628 199.85 501.956C195.273 502.411 196.083 508.405 201.04 510.808C202.153 511.364 202.153 511.364 200.761 512.047C196.108 514.399 194.793 518.648 198.435 519.634C201.925 520.571 207.033 516.702 207.286 512.933C207.337 512.022 207.337 512.022 209.258 512.022C213.431 512.022 218.996 511.163 227.847 509.115C230.502 508.508 233.057 507.95 233.537 507.849C234.019 507.749 234.651 507.622 234.903 507.546C235.233 507.445 234.979 507.874 234.12 508.836C229.846 513.64 230.681 518.371 235.789 518.344C240.316 518.32 242.972 513.388 241.303 508.102C240.772 506.484 240.366 506.584 246.765 506.611C254.96 506.66 260.396 507.419 274.18 510.404C280.832 511.871 280.832 511.871 279.591 512.553C274.079 515.715 273.421 521.102 278.529 521.33C282.653 521.531 284.878 519.382 286.143 514.096C286.446 512.832 286.496 512.756 287.129 512.882C289.986 513.489 296.966 513.667 301.696 513.288C306.677 512.857 308.853 512.529 320.714 510.277C321.802 510.074 321.802 510.074 321.119 510.86C318.009 514.551 319.071 518.826 323.041 518.547C326.48 518.295 328.984 514.426 328.176 510.556C327.821 508.86 327.466 509.088 330.755 508.76C338.695 507.95 346.309 508.836 354.275 511.467C356.373 512.174 358.221 512.681 358.397 512.605C358.649 512.502 358.701 510.05 358.649 500.693C358.573 483.571 358.725 481.85 360.218 482.104C366.06 483.091 371.219 479.752 370.536 475.428C369.878 471.482 365.023 471.355 360.85 475.173C359.408 476.49 359.408 476.49 359.586 474.972C359.939 471.735 360.066 454.233 359.763 449.428C359.459 444.724 358.828 436.783 358.625 435.265C358.524 434.506 358.524 434.506 360.47 434.506C366.035 434.506 369.601 429.626 367.173 425.377C365.453 422.367 361.407 423.076 358.877 426.843C357.815 428.387 358.018 429.374 356.728 415.918C354.628 394.37 353.869 379.551 354.882 379.854C360.091 381.372 365.984 377.882 365.478 373.532C364.998 369.208 359.51 368.777 355.717 372.774C354.427 374.164 354.427 374.164 354.427 373.102C354.427 368.625 355.11 359.041 356.324 346.37C356.779 341.439 357.259 336.128 357.335 334.584C357.511 331.752 357.511 331.752 358.321 332.08C363.556 334.28 369.45 331.549 369.474 326.921C369.499 322.395 363.48 321.737 358.801 325.758C357.765 326.644 357.765 326.644 357.891 321.913C358.069 315.515 357.511 302.869 356.804 297.23C356.652 296.016 356.652 296.016 357.538 296.168C362.545 297.103 367.477 288.909 364.012 285.419C361.836 283.27 357.69 285.167 356.273 288.936C355.793 290.275 355.793 290.275 354.983 288.632C352.758 284.156 349.42 281.474 346.916 282.156ZM349.268 284.281C350.506 285.015 352.327 287.418 353.289 289.567C354.124 291.439 354.124 291.439 352.731 290.25C350.582 288.353 349.165 288.581 350.607 290.605C351.62 292.02 351.417 292.02 349.368 290.654C346.206 288.556 345.144 285.798 346.916 284.256C347.8 283.497 347.927 283.497 349.268 284.281ZM362.469 287.771C363.152 289.188 361.787 292.071 359.939 293.108C359.105 293.588 359.105 293.588 359.814 292.83C361.432 291.085 359.586 290.756 357.614 292.475C356.297 293.613 358.676 289.036 360.042 287.797C361.229 286.735 361.988 286.735 362.469 287.771ZM348.433 321.636C349.899 322.42 353.187 325.251 353.668 326.137C353.82 326.441 353.49 326.34 352.403 325.809C349.469 324.341 348.003 325.05 350.355 326.795C351.897 327.958 351.872 328.034 350.102 327.427C345.448 325.834 343.02 323.051 344.613 321.154C345.095 320.547 346.813 320.775 348.433 321.636ZM366.491 326.086C368.791 327.554 364.467 331.094 361.053 330.562C359.863 330.361 359.863 330.361 362.014 329.83C363.911 329.348 364.163 329.223 364.239 328.692C364.34 328.059 361.18 327.983 359.611 328.54C358.498 328.969 361.407 327.023 362.722 326.492C364.139 325.91 365.908 325.707 366.491 326.086ZM345.802 370.649C346.889 371.18 348.003 372.015 349.268 373.278C351.189 375.201 351.745 376.188 350.379 375.201C349.344 374.443 346.612 373.38 346.182 373.532C345.651 373.733 345.751 374.644 346.358 374.947C347.447 375.53 346.561 375.478 345.271 374.898C343.198 373.936 341.275 372.039 341.275 370.926C341.275 369.712 343.502 369.56 345.802 370.649ZM362.57 373.354C364.315 374.923 361.584 377.705 358.118 377.906C356.324 378.009 356.324 378.009 357.714 377.299C359.839 376.212 359.611 375.05 357.411 375.63C356.4 375.909 356.4 375.909 357.234 375.05C358.928 373.305 361.584 372.443 362.57 373.354ZM345.854 423.329C348.154 424.036 351.29 426.491 353.541 429.347C354.452 430.512 354.628 430.865 354.173 430.561C349.723 427.729 348.027 426.97 347.75 427.704C347.547 428.236 348.079 428.843 350 430.284C351.468 431.371 351.493 431.396 350.634 431.244C349.217 430.967 346.586 430.081 345.524 429.55C341.123 427.299 341.426 421.988 345.854 423.329ZM365.201 427.274C365.781 429.07 364.719 430.916 362.646 431.726C362.064 431.927 361.836 431.978 362.115 431.775C364.846 429.929 364.188 428.615 361.18 429.954C359.712 430.588 359.712 430.588 360.167 429.778C361.912 426.692 364.594 425.352 365.201 427.274ZM349.824 471.634C351.24 472.317 353.338 474.214 354.552 475.856C355.717 477.45 355.666 477.525 354.173 476.59C352.631 475.655 350.431 474.769 350.102 474.972C349.317 475.477 349.951 476.186 352.631 477.829C354.048 478.69 354.048 478.69 352.91 478.538C351.038 478.284 347.8 476.539 346.485 475.073C343.602 471.862 345.751 469.61 349.824 471.634ZM367.78 475.401C369.271 476.894 366.667 479.802 363.608 480.056C362.191 480.156 362.166 480.156 363.001 479.853C364.871 479.145 364.467 477.653 362.519 478.007C361.635 478.159 361.635 478.159 362.519 477.4C364.416 475.731 367.098 474.718 367.78 475.401ZM239.91 496.014C240.999 497 241.124 499.782 240.165 501.931C239.683 503.045 239.683 503.045 239.379 501.148C238.696 496.899 237.357 496.949 237.306 501.224C237.281 503.045 237.281 503.045 236.876 502.159C235.206 498.441 237.483 493.813 239.91 496.014ZM324.382 500.996C325.165 501.931 326.051 504.005 326.203 505.321C326.355 506.584 326.355 506.584 325.721 505.321C325.368 504.612 325.089 503.879 325.089 503.652C325.089 503.197 324.431 502.817 324.052 503.07C323.748 503.246 323.775 504.739 324.103 505.625C324.534 506.736 323.141 505.346 322.534 504.056C321.22 501.224 322.61 498.897 324.382 500.996ZM286.901 501.653C287.634 502.994 287.761 505.826 287.154 507.722C286.774 508.86 286.774 508.86 286.647 506.787C286.446 503.625 285.156 503.121 285.105 506.18C285.054 508.76 284.826 509.063 284.119 507.47C282.349 503.398 284.902 498.037 286.901 501.653ZM202.481 504.839C203.316 505.27 204.277 506.535 204.681 507.722C204.96 508.608 204.96 508.608 204.126 507.622C202.86 506.129 201.925 506.635 202.809 508.329C203.34 509.342 203.34 509.342 201.899 508.584C198.005 506.459 198.56 502.842 202.481 504.839ZM236.42 510.302C235.813 512.605 236.092 513.895 237.027 513.312C237.357 513.109 238.596 510.53 238.596 509.999C238.596 509.67 238.621 509.67 238.848 509.999C240.745 512.933 236.42 517.94 234.044 515.564C233.26 514.778 235.586 508.988 236.675 508.988C236.724 508.988 236.599 509.57 236.42 510.302ZM323.699 512.022C323.193 513.009 323.193 514.526 323.724 514.729C324.255 514.93 324.583 514.526 325.266 512.832C325.848 511.391 325.848 511.391 325.721 512.857C325.493 515.234 324.331 516.827 322.789 516.827C320.941 516.827 321.017 514.577 322.965 512.326C324.027 511.061 324.23 510.985 323.699 512.022ZM202.532 513.919C201.318 515.537 202.278 516.119 203.871 514.729C204.808 513.919 204.808 513.919 204.302 514.754C202.86 517.282 198.636 518.951 198.636 517.03C198.636 516.195 202.001 513.212 203.139 513.033C203.189 513.033 202.912 513.439 202.532 513.919ZM282.046 514.223C281.439 514.93 280.805 516.322 280.957 516.575C281.211 516.979 281.994 516.853 282.474 516.322C283.133 515.588 283.208 515.867 282.653 517.005C281.691 518.875 279.819 519.862 277.998 519.482C276.456 519.13 277.846 516.474 280.578 514.602C282.146 513.54 282.804 513.363 282.046 514.223Z" fill="black"/>
</svg>
