<svg width="358" height="505" viewBox="0 0 358 505" fill="none" xmlns="http://www.w3.org/2000/svg">
<path d="M295.622 1.17623C291.753 1.45442 284.773 2.18785 276.909 3.17417C253.741 6.05729 246.029 6.13316 221.268 3.67999C205.438 2.11197 204.172 2.06139 189.276 2.0361C180.071 2.0361 174.001 2.13727 171.32 2.36488C159.585 3.32592 153.591 3.98348 134.649 6.46193C113.582 9.21861 107.613 9.74971 95.0186 9.92674C79.4903 10.1544 73.4206 9.54738 54.8573 5.95613C41.5039 3.3512 36.3953 2.74423 29.5669 2.99715C23.1683 3.22476 13.8867 4.84335 13.8867 5.72852C13.8867 6.46193 14.9995 6.51252 20.7404 6.05729C32.1211 5.17212 37.7104 5.77909 55.2367 9.85087C82.1458 16.0723 94.9934 16.5023 135.281 12.5317C173.773 8.73808 185.28 8.76338 216.716 12.6581C244.056 16.047 252.654 15.7436 279.943 10.382C310.948 4.28696 321.622 4.89393 340.69 13.7962C350.832 18.5002 353.463 17.1345 344.459 11.8235C329.967 3.30063 314.059 -0.16417 295.622 1.17623Z" fill="black"/>
<path d="M5.54099 6.63973C-0.0735044 22.1681 -0.554024 31.5256 3.01194 55.6527C8.677 93.9678 8.98049 112.809 4.65581 156.182C0.988697 192.828 0.938116 202.718 4.15001 233.446C7.00783 260.632 6.93196 266.727 3.3913 295.281C-0.90809 329.878 -0.8828 338.983 3.6442 369.001C7.26075 393.129 7.99416 406.812 6.78021 427.55C6.0468 440.093 6.27442 470.062 7.109 470.569C8.47469 471.455 8.80346 468.241 9.08166 450.817C9.2081 443.23 9.43572 435.086 9.58746 432.734C9.7392 430.357 10.1186 424.111 10.4726 418.824C11.5854 401.626 11.7119 397.808 11.7119 383.544C11.7119 372.366 11.5854 367.004 11.1049 357.116C10.6497 347.657 10.4979 341.714 10.4979 332.079C10.4979 319.736 10.5738 317.359 11.6107 300.213C13.2799 272.948 13.0017 265.26 9.2334 236.86C5.84447 211.088 5.86976 196.141 9.35984 166.046C11.3325 149.051 11.5854 146.648 12.0912 141.008C13.0523 130.563 13.1787 128.312 13.3052 116.603C13.5581 94.7772 12.3947 82.5618 7.43777 54.7675C4.93401 40.706 4.68111 38.4551 4.65581 30.1092C4.65581 22.1427 4.73168 21.5105 6.5779 12.0266C7.91829 5.24876 7.94359 4.43945 6.95726 4.43945C6.42616 4.43945 6.24911 4.71766 5.54099 6.63973Z" fill="black"/>
<path d="M351.821 26.113C348.431 34.0289 347.596 44.9292 348.331 71.0796C349.317 105.803 348.458 118.12 342.919 148.721C338.24 174.669 337.102 185.291 337.102 203.097C337.102 220.623 338.063 229.676 342.665 254.941C350.834 299.833 351.138 315.917 344.436 348.643C343.627 352.613 342.388 358.607 341.679 361.996C336.874 385.237 337.329 393.659 344.968 421.732C351.189 444.569 352.503 452.763 352.706 470.365C352.832 481.721 352.907 482.404 353.793 481.518C354.148 481.166 355.235 475.297 355.918 470.037C358.294 452.334 357.335 440.498 351.542 415.258C345.447 388.779 345.32 381.823 350.127 341.839C353.769 311.441 353.313 299.199 347.092 259.746C340.92 220.572 341.326 200.972 349.241 157.699C353.693 133.294 354.855 122.47 354.855 105.222C354.855 94.0687 354.704 91.3119 352.858 67.033C351.845 53.705 351.845 39.4917 352.858 31.9552C353.793 25.0002 353.363 22.5219 351.821 26.113Z" fill="black"/>
<path d="M5.74454 482.556C4.85937 484.528 7.41372 490.85 10.2968 493.734C16.2654 499.703 23.2456 500.285 41.7835 496.364C64.3425 491.56 72.4103 491.712 91.6563 497.224C105.971 501.321 110.574 502.334 119.527 503.32C136.294 505.165 151.696 503.623 185.712 496.719C222.611 489.232 230.325 488.98 257.563 494.443C285.229 499.982 294.816 500.562 314.212 497.857C323.065 496.617 324.303 496.465 331.158 495.833C339.933 495.023 342.235 494.519 341.829 493.481C341.35 492.191 327.693 492.47 312.822 494.088C294.537 496.061 282.069 494.898 259.46 489.081C245.347 485.464 240.871 484.528 233.916 483.794C229.212 483.29 218.969 483.239 213.81 483.669C203.466 484.553 196.486 485.615 173.598 489.891C136.471 496.82 121.676 497.148 93.0474 491.787C72.0562 487.867 65.3036 488.019 42.9722 492.95C28.6829 496.086 23.4478 496.643 18.845 495.505C13.4834 494.164 9.61399 490.371 7.56546 484.477C6.60441 481.645 6.30093 481.342 5.74454 482.556Z" fill="black"/>
</svg>
