<svg width="370" height="532" viewBox="0 0 370 532" fill="none" xmlns="http://www.w3.org/2000/svg">
<path d="M104.154 0.324695C104.305 0.375276 104.609 0.375276 104.786 0.324695C104.938 0.248823 104.811 0.198242 104.457 0.198242C104.103 0.198242 103.977 0.248823 104.154 0.324695Z" fill="black"/>
<path d="M161.865 13.2985C144.719 14.9424 127.723 20.5821 107.263 31.4317C86.4492 42.4837 79.0897 44.7599 64.1178 44.7851C45.9086 44.8105 36.2982 40.4352 29.0651 28.8521C24.8416 22.0743 20.8458 19.0647 20.0871 22.0743C19.7582 23.3389 22.1356 31.3558 24.8922 38.4119C33.137 59.3778 32.8335 73.7934 23.7289 92.8372C4.78627 132.493 3.42058 150.221 16.2176 189.902C21.8321 207.377 22.6413 212.132 22.6413 228.141C22.6161 243.746 22.0597 248.298 16.3188 278.089C7.41648 324.422 7.54294 337.523 17.0775 365.975C26.1568 392.959 25.7016 402.039 13.7897 433.121C-3.63547 478.593 -3.40786 500.495 14.5484 510.838C28.0029 518.577 43.6831 517.794 85.6146 507.221C116.09 499.534 125.397 499.761 154.632 508.917C171.704 514.253 180.151 516.326 189.685 517.591C211.663 520.499 234.777 514.936 263.002 499.964C283.817 488.912 291.177 486.635 306.148 486.611C324.357 486.584 333.968 490.96 341.2 502.544C345.425 509.321 349.419 512.331 350.178 509.321C350.508 508.056 348.129 500.04 345.373 492.984C337.128 472.017 337.432 457.601 346.536 438.558C365.479 398.903 366.845 381.174 354.047 341.493C348.433 324.018 347.625 319.263 347.625 303.254C347.65 287.625 348.232 282.92 354.074 252.672C362.824 207.277 362.672 193.72 353.188 165.421C344.108 138.436 344.563 129.357 356.475 98.2745C373.901 52.8022 373.673 30.9006 355.717 20.5568C342.263 12.818 326.582 13.602 284.652 24.1735C254.176 31.8617 244.868 31.6341 215.633 22.4789C189.812 14.4366 175.624 12.0087 161.865 13.2985ZM340.163 21.4167C355.464 23.9458 362.42 31.8365 361.382 45.4933C360.496 57.4304 357.386 66.4843 347.65 85.7305C325.774 129.002 324.812 147.541 342.566 182.871C356.324 210.287 356.627 220.605 345.095 272.399C335.789 314.307 335.51 321.64 342.187 354.998C347.978 383.881 348.129 390.303 343.552 409.095C342.642 412.788 341.225 418.806 340.417 422.499C339.583 426.191 338.217 431.805 337.382 435.018C334.12 447.334 333.613 450.242 333.41 458.159C333.158 468.147 334.624 477.986 337.811 487.546C338.824 490.53 338.824 490.53 336.775 488.557C326.582 478.796 305.137 475.255 285.283 480.059C279.113 481.552 272.816 483.98 261.89 489.012C230.453 503.504 211.308 505.249 176.281 496.853C149.524 490.429 144.415 489.467 133.54 488.735C119.251 487.798 108.73 489.923 89.4082 497.661C58.3009 510.131 38.9537 513.393 24.3863 508.614C10.9824 504.213 6.75894 495.992 9.61676 479.908C11.5388 469.16 13.992 462.711 22.6161 445.665C44.4923 402.393 45.4534 383.854 27.6995 348.525C13.9414 321.109 13.6379 310.79 25.1705 258.996C34.4773 217.089 34.7555 209.756 28.0788 176.397C22.2874 147.515 22.1356 141.091 26.7131 122.301C27.6236 118.608 29.0399 112.589 29.8491 108.897C30.6837 105.204 32.0494 99.5643 32.8839 96.3777C36.1464 84.0613 36.6523 81.153 36.8547 73.2369C37.1075 63.2473 35.6407 53.4092 32.4541 43.8494C31.4424 40.8652 31.4424 40.8652 33.4909 42.8378C43.6831 52.5998 65.1293 56.1406 84.9824 51.3354C91.1533 49.8432 97.4506 47.4154 108.376 42.3826C139.812 27.8912 158.957 26.1461 193.985 34.5424C220.741 40.9663 225.851 41.9274 236.725 42.6607C251.014 43.5966 261.535 41.4722 280.858 33.7333C297.751 26.9553 307.792 23.8445 318.464 22.0236C327.113 20.5568 333.79 20.3799 340.163 21.4167Z" fill="black"/>
<path d="M265.505 531.172C265.656 531.223 265.96 531.223 266.138 531.172C266.29 531.096 266.163 531.045 265.808 531.045C265.455 531.045 265.328 531.096 265.505 531.172Z" fill="black"/>
</svg>
