<svg width="346" height="505" viewBox="0 0 346 505" fill="none" xmlns="http://www.w3.org/2000/svg">
<path d="M283.57 0.442004C271.254 1.60537 262.047 3.57803 241.714 9.52129C211.872 18.2212 204.916 18.3224 184.052 10.4065C165.742 3.47687 157.067 1.7824 139.541 1.83298C127.3 1.85827 123.279 2.3135 105.171 5.85417C85.5962 9.67303 79.7795 9.64775 64.0487 5.70243C32.7644 -2.13762 8.91545 2.08588 2.87104 16.5521C-0.391446 24.3162 1.22715 33.8002 8.51081 49.4297C13.1896 59.47 13.2148 62.2268 8.89017 77.4011C0.493722 106.763 0.392561 120.977 8.40965 146.849C14.9093 167.814 14.9093 173.834 8.43494 198.694C1.3536 225.756 1.22715 234.329 7.52448 260.782C14.4794 290.019 14.5805 302.283 8.0303 327.296C7.19571 330.483 5.95646 335.263 5.27362 337.918C-1.12487 362.525 -0.492607 379.775 7.54976 402.257C14.9346 422.794 14.9599 424.488 8.0303 439.08C0.87308 454.229 -0.189122 462.196 3.40214 474.108C7.65094 488.271 16.7302 494.769 36.2292 497.628C54.2108 500.259 68.3229 499.121 87.5688 493.506C110.179 486.879 113.466 486.854 136.455 493.328C155.803 498.741 166.88 498.665 189.464 492.975C208.179 488.244 211.265 488.599 226.794 497.249C245.128 507.491 252.135 507.415 270.621 496.769C283.773 489.181 284.961 489.079 295.81 494.441C316.853 504.836 336.225 498.741 341.233 480.153C344.546 467.862 344.14 457.391 339.588 438.093C335.466 420.542 335.518 415.586 340.095 394.822C346.747 364.65 346.088 356.431 334.986 331.976C324.768 309.491 324.516 302.435 332.76 267.231C340.626 233.62 340.904 224.439 334.911 198.442C328.511 170.672 329.118 159.949 338.856 130.89C344.495 113.996 345.254 110.683 345.254 102.717C345.278 93.7387 344.216 90.0716 337.363 75.656C332.103 64.5534 332.179 62.252 338.122 49.2273C343.761 36.9361 344.85 30.386 342.498 23.4058C337.187 7.80155 311.618 -2.16292 283.57 0.442004ZM44.3221 6.0565C51.4035 7.14399 52.6175 7.44747 61.2668 10.28C80.3864 16.5521 86.6838 16.6026 111.595 10.6594C142.449 3.29983 158.711 3.57803 181.422 11.9239C205.195 20.6744 211.265 20.8262 242.321 13.5425C281.091 4.4632 303.701 4.56436 322.745 13.9218C338.653 21.7366 341.181 29.5514 334.404 49.986C329.952 63.4407 330.055 65.034 336.174 77.8056C345.533 97.3298 345.457 104.158 335.518 128.437C322.948 159.165 321.506 172.948 328.207 198.315C333.873 219.735 334.429 223.176 334.201 235.492C334.025 245.607 333.418 250.008 329.473 269.886C322.948 302.714 323.151 309.239 331.345 331.014C340.347 354.989 340.423 360.352 332.128 391.535C329.6 401.068 328.841 406.127 328.866 413.411C328.866 421.908 329.624 425.374 334.404 438.575C340.626 455.722 341.688 467.128 338.35 480.102C334.177 496.287 315.715 501.549 298.997 491.306C297.328 490.293 294.799 488.726 293.358 487.865C285.416 483.036 280.839 483.465 265.74 490.496C249.807 497.88 245.837 497.956 229.55 491.103C212.427 483.895 208.002 483.692 189.616 489.155C165.894 496.211 155.019 496.162 130.436 488.802C111.443 483.136 106.259 482.933 83.2696 487.006C69.3851 489.434 65.895 489.788 53.6797 489.965C21.5606 490.42 11.2675 486.222 6.00705 470.566C2.64342 460.551 3.65503 453.598 10.5593 439.207C17.5142 424.74 17.6154 422.464 11.9503 401.575C8.00499 386.88 6.99338 375.095 8.40965 360.173C9.11778 352.764 9.80062 348.641 13.1896 330.963C18.3741 303.877 17.843 291.384 10.2811 262.174C3.19981 234.733 3.37683 226.084 11.571 198.694C16.452 182.382 17.6407 176.337 17.6407 167.84C17.6407 160.177 16.9831 156.636 12.2032 139.009C6.51287 117.967 6.38641 103.678 11.7227 80.8405C16.2497 61.4933 16.1991 59.7482 10.964 47.8871C2.33993 28.3374 2.39051 17.7154 11.1663 11.1399C18.8799 5.32307 29.0973 3.75506 44.3221 6.0565Z" fill="black"/>
</svg>
