<svg width="349" height="517" viewBox="0 0 349 517" fill="none" xmlns="http://www.w3.org/2000/svg">
<path d="M128.833 0.893956C108.448 1.50093 88.3678 2.76546 76.5319 4.18172C74.5592 4.40933 73.8764 5.06689 74.7362 5.90148C75.2166 6.38199 73.8005 6.40729 87.1032 5.80032C111.129 4.73812 114.543 4.66225 135.534 4.66225C156.273 4.66225 161.938 4.78869 177.77 5.69915C184.497 6.05322 188.24 6.30612 212.418 7.92472C261.001 11.2125 305.664 11.4401 332.068 8.58226C337.124 8.02588 337.403 7.95001 337.303 7.24188C337.151 6.23025 336.544 6.20496 314.465 6.30612C253.565 6.66019 250.303 6.55904 196.61 2.8919C186.318 2.20906 176.151 1.62738 167.401 1.24802C161.457 0.995117 134.068 0.742212 128.833 0.893956Z" fill="black"/>
<path d="M3.31777 15.5872C2.60962 16.9023 1.16807 75.3234 0.73813 120.745C0.308191 164.042 0.763419 187.36 2.76136 226.839C3.72241 245.706 3.97531 251.598 4.27879 260.981C4.58228 270.717 4.58228 298.74 4.27879 309.539C3.69713 330.252 3.64654 344.111 4.17764 344.388C5.31571 344.995 5.341 344.844 6.17558 336.346C8.07237 316.822 8.70464 299.827 8.50231 274.89C8.35057 257.794 8.2747 255.746 7.18721 234.805C5.54333 203.85 5.21456 196.314 4.75933 178.787C4.40525 165.206 4.40525 109.87 4.78461 79.9768C5.0881 53.7 5.13868 17.7875 4.8352 16.2954C4.63287 15.1573 3.74769 14.7526 3.31777 15.5872Z" fill="black"/>
<path d="M343.726 154.053C343.119 154.812 342.083 187.285 341.652 218.999C341.4 237.106 341.601 268.847 342.032 282.225C342.108 284.526 342.335 293.175 342.538 301.445C343.802 352.279 343.777 369.198 342.284 409.816C340.615 455.567 340.666 504.528 342.411 504.528C343.195 504.528 343.346 503.846 343.904 497.548C344.763 488.116 344.89 484.902 345.698 450.533C345.977 438.9 346.18 432.703 346.963 413.735C348.001 388.041 348.077 384.576 348.077 361.763C348.077 338.774 348.001 335.056 346.836 300.813C345.118 250.258 345.067 247.703 345.118 198.387C345.143 164.624 345.091 154.103 344.864 153.951C344.408 153.673 344.029 153.699 343.726 154.053Z" fill="black"/>
<path d="M30.8351 506.577C22.5399 507.033 5.97464 508.802 5.51942 509.257C4.68483 510.092 5.46883 510.422 8.02317 510.244C9.36358 510.168 16.976 510.016 24.8919 509.94C45.2255 509.713 51.017 510.043 74.2084 512.875C100.536 516.086 106.96 516.365 142.24 515.758C162.295 515.403 170.338 515.378 190.798 515.606C227.065 516.01 238.191 515.733 273.75 513.582C289.431 512.647 306.779 512.444 316.111 513.127C331.033 514.216 335.333 513.203 325.925 510.851C317.983 508.878 312.166 508.271 300.937 508.271C292.845 508.271 290.746 508.374 273.878 509.46C244.616 511.382 240.695 511.509 210.777 511.382C176.458 511.23 148.031 511.205 126.686 511.306C104.608 511.408 99.6506 511.154 78.2548 508.829C55.8475 506.374 44.2392 505.819 30.8351 506.577Z" fill="black"/>
</svg>
