<svg width="361" height="515" viewBox="0 0 361 515" fill="none" xmlns="http://www.w3.org/2000/svg">
<path d="M75.4393 1.14279C70.2042 2.15441 66.4865 6.4538 66.4358 11.6131C66.4106 14.1168 66.4106 14.1168 64.9184 14.572C49.3902 19.2002 21.9499 16.6459 14.034 9.81743C12.6936 8.67935 11.7326 9.00812 12.5924 10.2979C17.3976 17.6322 46.3299 21.2487 64.2862 16.747C67.4476 15.963 67.4476 15.963 67.827 16.57C74.63 27.5208 97.2397 28.0519 141.7 18.315C171.644 11.7648 179.763 11.6383 187.274 17.6828C190.637 20.3889 191.219 21.805 189.424 22.8927C182.722 26.8884 181.887 32.8318 187.704 35.0321C193.243 37.1311 196.506 32.1994 194.154 25.2699C193.672 23.8283 193.723 23.7525 195.644 23.1455C202.752 20.9705 212.084 20.5659 226.676 21.8305C249.261 23.8031 266.104 22.9685 277.713 19.3014C280.268 18.4921 280.268 18.4921 281.633 19.7313C290.914 28.153 315.041 27.6219 329.937 18.6438C336.134 14.9261 344.48 6.30205 342.608 5.56862C342.331 5.46747 341.597 5.94798 340.331 7.11134C334.668 12.3212 333.275 13.4593 330.747 15.179C317.266 24.1825 294.657 26.0793 284.365 19.099C282.316 17.7081 282.316 17.7839 284.642 16.4182C290.939 12.7764 293.09 6.25146 288.689 4.12706C283.606 1.6486 276.575 9.66568 278.648 15.5584C279.13 16.9241 279.205 16.8988 275.74 17.7839C268.026 19.7565 263.246 20.2117 250.196 20.1865C238.715 20.1865 239.549 20.2372 223.009 18.6691C211.046 17.531 200.147 18.3403 193.774 20.8441C192.409 21.4005 192.409 21.4005 192.029 20.7935C185.251 10.3991 176.07 9.51394 143.091 16.0389C127.841 19.0485 126.096 19.3772 120.608 20.2117C98.8077 23.4996 81.4838 22.7914 74.0736 18.2897C72.4297 17.3034 70.1031 15.0273 70.5583 14.8502C82.9506 10.2727 86.997 -1.10807 75.4393 1.14279ZM79.6881 3.79829C81.686 5.06281 77.9431 9.1093 72.2021 11.8407C69.2179 13.2569 69.2431 13.2569 69.2431 11.0314C69.2937 6.12501 75.9704 1.49685 79.6881 3.79829ZM288.587 6.32734C290.636 8.62877 287.197 13.4845 281.986 15.6595C280.899 16.1148 280.292 15.0273 280.292 12.6753C280.292 8.32528 286.262 3.74771 288.587 6.32734ZM192.636 25.801C194.457 31.1627 191.953 34.9308 188.058 32.7305C185.074 31.0614 186.161 27.7989 190.512 25.4216C192.257 24.4353 192.154 24.4353 192.636 25.801Z" fill="black"/>
<path d="M353.829 6.85873C349.934 11.0064 343.688 25.1184 341.64 34.3243C336.936 55.4924 339.413 78.9367 349.303 107.009C355.194 123.777 356.332 130.125 354.739 137.231C354.259 139.305 354.386 139.28 352.59 137.56C347.455 132.654 340.475 133.665 340.475 139.305C340.475 145.754 347.582 149.548 352.565 145.754C354.107 144.591 354.132 144.641 354.31 148.207C354.614 154.226 352.666 159.183 344.775 172.461C329.701 197.752 327.148 213.837 336.96 221.196C337.719 221.752 338.377 222.259 338.427 222.283C338.453 222.334 338.047 223.497 337.492 224.863C329.094 245.323 330.411 270.638 341.488 302.58C346.014 315.605 346.571 317.25 347.531 320.613C352.362 337.229 351.932 354.021 346.42 363.404C345.61 364.795 345.762 364.795 344.219 363.404C337.668 357.511 328.539 360.218 327.881 368.235C327.249 376.327 337.061 376.858 345.054 369.17C348.341 366.008 351.882 381.816 350.87 395.143C350.162 404.602 349.2 409.255 343.385 431.436C332.991 471.117 338.529 501.617 357.977 511.985C360.759 513.478 360.684 512.164 357.85 510.039C346.496 501.515 340.855 487.657 340.881 468.234C340.881 456.751 341.867 450.581 347.076 429.665C355.043 397.673 355.422 380.071 348.392 368.412C347.304 366.591 347.304 366.591 348.165 365.25C354.183 355.817 355.65 341.529 352.235 325.368C351.073 319.93 349.732 315.63 344.421 300.658C335.115 274.356 332.763 254.781 336.581 236.067C337.592 231.185 340.122 223.421 340.678 223.421C340.779 223.421 341.589 223.674 342.499 223.977C349.303 226.204 354.411 222.839 352.008 217.731C349.707 212.799 344.144 213.482 340.475 219.172C339.54 220.589 339.54 220.589 338.377 219.679C329.956 212.976 332.863 198.408 347.507 174.105C357.194 158.02 359.215 150.711 356.256 142.846C355.877 141.834 355.877 141.708 356.511 139.811C359.064 131.895 358.077 124.46 352.235 107.464C344.927 86.2456 342.854 76.0536 342.12 58.0214C341.386 40.1916 346.496 20.3133 355.043 7.7186C356.029 6.27704 355.018 5.5942 353.829 6.85873ZM348.241 137.585C351.503 139.128 353.146 141.885 351.68 143.301C348.772 146.133 344.775 145.097 343.106 141.101C341.64 137.585 344.32 135.739 348.241 137.585ZM349.252 216.769C350.01 217.276 350.769 218.541 350.972 219.628C351.477 222.308 348.645 223.548 344.32 222.535C341.336 221.828 341.285 221.752 342.499 219.931C344.751 216.568 347.178 215.43 349.252 216.769ZM338.326 362.139C343.461 363.48 345.103 365.883 342.575 368.311C336.606 374.102 329.273 374.178 329.677 368.436C330.005 363.859 333.926 361.001 338.326 362.139Z" fill="black"/>
<path d="M6.9763 14.9258C6.90043 15.1534 6.92574 15.5074 7.05218 15.6845C19.6469 33.5648 24.2751 58.7541 19.4193 82.6791C18.2306 88.4705 16.5361 94.4137 13.0966 104.732C7.38096 121.854 6.21759 127.823 7.70973 132.653C8.16496 134.095 8.16496 134.095 7.53271 135.207C5.30713 139.229 4.42198 147.499 4.70016 161.838C4.97836 175.318 6.64753 183.31 13.7289 205.084C19.4698 222.762 20.8354 231.008 19.0399 237.381C18.787 238.291 18.787 238.291 17.4972 237.432C12.0091 233.764 4.97836 236.977 5.00364 243.147C5.05423 250.304 14.8164 250.886 19.0652 243.982C20.6078 241.503 24.6797 250.152 25.3625 257.36C26.2223 266.415 20.4815 286.166 8.84781 314.087C0.527235 334.066 -0.25677 340.667 4.95308 346.484C6.09115 347.749 6.09115 347.749 5.10482 350.682C0.29962 365.073 2.14583 383.864 10.6181 407.03C18.5341 428.628 21.0885 439.755 19.571 446.052C18.964 448.632 18.9134 448.658 17.1937 447.721C10.5929 444.156 4.52313 446.104 4.54842 451.794C4.54842 458.799 12.1103 460.367 17.8259 454.55C20.0009 452.325 20.5574 452.553 22.6818 456.574C28.625 467.903 21.2148 482.674 4.29552 493.144C0.476655 495.521 -0.332642 496.279 0.653688 496.634C2.09524 497.14 11.3263 491.702 15.3222 487.96C27.6134 476.427 30.4459 461.151 22.0242 451.693C20.8354 450.352 20.8354 450.352 21.3665 448.987C23.9968 442.082 22.0748 431.916 13.8553 409.179C6.84986 389.807 5.25656 382.371 5.25656 369.221C5.28185 357.814 7.25451 348.887 9.65711 349.291C14.6393 350.151 19.0652 347.419 19.4445 343.246C20.0263 337.279 12.3379 338.011 8.06381 344.335C7.20392 345.598 7.20392 345.598 6.41992 344.639C2.24699 339.58 3.20803 333.486 11.1492 314.339C17.1178 299.95 23.4405 282.018 25.843 272.737C29.232 259.611 28.2204 250.634 22.4035 242.288C21.0126 240.315 21.0126 240.315 21.4172 238.671C23.314 231.184 22.1253 223.724 16.1315 205.464C8.21555 181.312 6.62225 173.573 6.62225 159.183C6.62225 143.477 8.11438 135.157 10.5676 137.054C14.4117 139.987 20.1274 137.838 22.6059 132.527C25.9947 125.293 19.141 122.967 12.4391 129.062C10.4411 130.883 10.4411 130.883 10.4411 127.924C10.4411 123.346 11.4527 119.047 15.7521 105.187C21.8472 85.5874 23.2129 78.3037 23.2129 65.4815C23.2129 46.893 17.7501 27.4698 9.50537 16.7467C7.70974 14.4199 7.30509 14.1165 6.9763 14.9258ZM20.785 128.379C22.0242 131.743 15.8786 136.649 12.8943 134.676C11.2251 133.589 11.2504 133.361 13.4254 131.313C16.6373 128.303 20.2285 126.887 20.785 128.379ZM15.398 239.227C17.8512 240.492 17.9777 240.668 17.1937 241.857C13.9818 246.689 8.0385 247.472 8.0385 243.071C8.0385 239.481 11.908 237.457 15.398 239.227ZM16.8649 342.059C18.7364 343.804 14.1588 347.698 10.8457 347.167C9.55593 346.964 9.53065 346.812 10.8205 345.119C12.9449 342.287 15.651 340.921 16.8649 342.059ZM14.2094 448.935C17.6742 450.1 17.9524 450.605 16.1315 452.528C12.6161 456.219 8.44317 456.27 7.43153 452.68C6.49579 449.239 9.75826 447.418 14.2094 448.935Z" fill="black"/>
<path d="M267.014 480.777C253.964 482.143 243.038 487.226 237.348 494.61C236.286 495.976 236.286 495.976 232.923 496.128C228.116 496.382 224.019 497.038 210.617 499.72C185.452 504.752 175.336 504.804 164.916 499.921C162.008 498.556 162.084 498.734 163.904 497.418C168.254 494.333 168.28 489.451 163.98 487.126C157.885 483.787 152.195 491.399 156.773 496.761C157.885 498.076 157.911 497.975 155.938 498.582C145.265 501.742 134.997 500.428 118.053 493.7C98.9837 486.113 83.7083 487.681 69.8238 498.631C69.0651 499.238 68.7868 499.314 68.3822 499.113C67.4718 498.607 62.8184 497.038 62.2366 497.014C61.9079 497.014 60.8457 496.837 59.834 496.659C45.7977 493.979 23.1122 499.163 7.60915 508.597C4.57429 510.467 4.39726 510.619 4.92836 511.126C5.23185 511.429 6.04113 511.101 10.6946 508.749C21.7212 503.235 33.2285 500.2 46.6071 499.341C54.0931 498.834 63.9564 499.618 66.4096 500.908C66.8396 501.111 66.7637 501.262 65.8532 502.249C60.3651 508.191 61.4527 514.109 67.9776 514.109C75.3117 514.136 78.1444 506.826 72.7069 501.845C71.0377 500.327 70.9871 500.377 75.1096 497.924C88.6651 489.755 100.071 489.299 117.294 496.23C134.745 503.26 145.518 504.424 157.556 500.579C159.883 499.821 159.883 499.821 161.856 500.959C172.63 507.205 185.3 507.459 211.375 501.945C223.464 499.417 230.116 498.328 233.655 498.328C234.92 498.328 234.92 498.328 234.313 500.149C231.785 507.711 238.993 514.515 247.236 512.364C256.012 510.088 252.243 499.417 241.8 496.886C239.675 496.382 239.649 496.482 242.179 494.155C250.094 486.746 259.933 483.533 274.474 483.56C292.582 483.584 301.915 486.746 318.127 498.379C331.201 507.763 342.506 513.73 342.506 511.253C342.506 510.898 341.571 510.24 338.915 508.673C329.583 503.286 325.865 500.908 319.086 496.052C302.015 483.761 285.375 478.88 267.014 480.777ZM162.842 488.996C166.181 490.616 165.473 494.003 161.3 496.458C159.934 497.241 158.872 496.583 157.734 494.155C156.014 490.513 159.251 487.251 162.842 488.996ZM241.142 499.062C250.322 501.414 253.205 509.988 244.808 509.988C238.511 509.988 235.224 505.46 237.652 500.149C238.486 498.355 238.435 498.379 241.142 499.062ZM70.8353 503.514C74.7048 507.004 73.061 511.556 67.927 511.581C63.9058 511.632 63.7288 508.115 67.5476 503.893C69.1662 502.072 69.2168 502.072 70.8353 503.514Z" fill="black"/>
</svg>
