<svg width="358" height="507" viewBox="0 0 358 507" fill="none" xmlns="http://www.w3.org/2000/svg">
<path d="M65.8628 0.29252C62.9543 0.899492 60.4253 2.31576 55.4685 6.05875C49.2722 10.7375 48.4376 10.9145 42.3931 8.66368C30.9365 4.38957 23.2483 4.89539 17.5074 10.3075C11.817 15.6691 11.2353 23.9644 15.4588 39.1135C19.1512 52.3151 19.1765 51.784 14.8519 53.7819C0.0822042 60.6356 -3.25615 71.9152 3.44585 92.5522C7.89696 106.336 7.94755 109.269 3.85049 121.738C-0.904125 136.178 -0.524768 140.882 6.12663 151.201C13.8908 163.214 14.3966 165.996 9.79375 171.357C1.90312 180.563 1.24557 188.479 7.08768 204.31C10.7295 214.2 10.603 216.222 5.9243 223.153C0.866209 230.664 0.38569 233.724 3.49641 238.377C6.80947 243.259 16.3693 248.999 18.2155 247.153C19.1006 246.267 18.873 245.839 15.9141 243.081C5.9496 233.824 5.97489 233.876 11.1089 226.061C16.7234 217.539 16.9257 214.124 12.6769 201.226C8.37749 188.176 8.73155 182.586 14.3208 175.05C20.1123 167.235 19.5558 162.379 11.4124 149.886C4.55861 139.39 4.25513 136.558 8.68098 123.381C13.4103 109.193 13.385 105.349 8.40278 89.9978C2.4848 71.8141 4.83682 63.5693 17.4821 58.0559C24.1081 55.1728 24.8164 52.6438 22.0091 41.8953C17.5074 24.5714 17.1786 19.5891 20.2387 15.1128C23.7288 10.0547 30.355 9.37181 39.9907 13.1401C48.7159 16.529 51.2197 16.1244 58.5792 10.1811C66.8996 3.42855 69.7069 3.2515 76.8136 9.01773C87.916 18.0464 90.9257 18.2994 106.631 11.6732C122.943 4.76893 127.319 4.92067 136.954 12.6343C148.057 21.5365 152.786 21.5365 169.25 12.5078C182.983 4.99655 186.119 4.8448 194.01 11.1421C203.999 19.1086 209.261 18.8558 227.925 9.49827C240.823 3.02389 243.276 3.17563 251.621 10.9145C262.041 20.525 266.365 21.1319 284.55 15.6691C303.315 10.0294 312.47 9.11891 321.448 11.9514C328.1 14.0506 329.87 16.7819 328.049 22.1687C326.355 27.2016 327.593 30.0848 332.197 31.8044C339.581 34.5612 341.884 36.1291 343.629 39.5433C346.006 44.2221 345.55 49.3814 341.706 61.0908C336.952 75.6581 337.153 78.2884 343.83 89.5426C349.699 99.4313 349.824 105.501 344.488 122.066C339.481 137.595 339.708 140.882 346.41 152.187C353.138 163.492 353.086 168.677 346.133 187.695C342.667 197.129 341.884 200.568 341.884 205.904C341.884 211.038 342.136 212.076 345.981 223.026C349.926 234.306 349.647 240.831 344.488 256.865C339.329 272.974 339.329 276.971 344.513 288.554C350.027 300.845 350.179 306.509 345.323 320.976C341.884 331.243 341.96 333.243 345.677 329.398C353.72 321.077 356.755 308.129 353.593 295.811C352.935 293.283 352.051 290.88 349.04 283.672C346.182 276.768 346.309 272.47 349.799 261.29C356.349 240.349 356.501 234.659 350.937 218.17C347.017 206.486 347.119 204.589 352.682 187.948C358.928 169.208 358.828 162.228 352.176 150.012C346.561 139.694 346.512 138.404 350.937 124.697C357.487 104.464 357.134 98.2426 348.661 82.8659C345.45 77.0492 345.423 74.3431 348.534 64.1511C355.161 42.3505 351.645 31.5515 336.066 25.7094C334.524 25.1277 334.574 25.2794 335.156 22.9274C339.304 5.52765 316.695 -0.440903 284.802 9.67529C265.885 15.6691 263.736 15.4415 253.594 6.31166C244.996 -1.42723 239.558 -1.7813 226.305 4.49075C215.076 9.80175 212.193 10.9398 208.426 11.4709C204.833 11.9767 202.053 11.1169 198.663 8.46135C192.796 3.85847 191.101 2.84686 188.066 2.06286C182.755 0.697169 178.279 1.70879 169.478 6.1852C159.235 11.4203 158.35 11.8503 156.251 12.5584C150.409 14.5564 147.146 13.6712 140.394 8.28432C128.533 -1.19962 121.982 -1.47781 102.837 6.66572C90.9257 11.7491 88.7506 11.648 80.8348 5.75526C74.0822 0.697169 70.3138 -0.668518 65.8628 0.29252Z" fill="black"/>
<path d="M17.4596 290.375C15.4364 290.956 10.6312 295.28 7.87452 298.998C3.47397 304.916 2.867 308.761 5.16844 315.841C7.57103 323.201 7.394 325.377 3.82804 333.747C-0.269021 343.334 0.135628 346.368 6.50883 353.525C13.0844 360.909 13.312 362.63 9.11376 373.276C4.03037 386.174 4.33386 390.702 10.9347 400.818C16.448 409.239 16.3721 410.681 9.61956 424.971C-0.117277 445.532 -0.496634 453.12 7.72277 461.035C11.314 464.5 11.3899 465.915 8.50679 474.995C4.33386 488.146 4.33386 493.787 8.50679 498.237C13.4384 503.523 20.3428 503.878 36.4528 499.653C48.4153 496.543 49.2498 496.594 53.6756 500.716C61.2121 507.721 67.1049 508.151 81.04 502.789C96.6947 496.746 96.4924 496.746 103.296 501.095C112.906 507.265 120.139 506.33 139.132 496.518C147.25 492.319 149.147 492.294 154.18 496.391C159.896 501.07 161.514 502.284 163.259 503.295C170.72 507.544 176.638 506.609 185.034 499.754C198.59 488.728 199.981 488.703 210.326 499.147C218.469 507.368 220.796 507.671 231.847 501.93C242.04 496.619 244.923 496.518 255.518 501.07C271.351 507.848 277.066 507.089 288.978 496.643C296.034 490.448 296.161 490.422 310.222 495.05C333.566 502.713 346.236 502.385 352.027 493.912C356.579 487.235 354.203 478.941 343.985 465.891C338.7 459.113 338.7 458.962 343.96 452.537C352.281 442.346 354.885 436.325 354.531 428.207C354.278 422.088 352.585 418.192 346.919 410.757C342.898 405.472 342.949 405.142 349.068 394.875C361.031 374.87 359.993 356.332 346.488 349.58C341.911 347.279 341.887 349.327 346.412 356.535C353.95 368.548 353.267 376.338 343.226 392.675C335.942 404.486 335.866 406.914 342.443 415.133C352.154 427.247 351.395 434.531 338.852 450.009C332.528 457.772 332.604 460.301 339.459 469.457C350.788 484.58 351.067 491.863 340.394 493.887C333.617 495.177 325.878 493.635 307.921 487.463C296.868 483.645 292.898 484.227 285.463 490.828C281.366 494.443 280.404 495.253 278.71 496.391C273.121 500.109 269.075 499.957 258.073 495.556C245.2 490.448 241.33 490.6 228.99 496.795C220.39 501.12 220.265 501.095 213.309 494.418C202.384 483.923 197.3 483.872 184.579 494.139C173.451 503.168 170.442 503.068 159.491 493.305C150.488 485.289 147.326 485.137 133.062 492.042C117.914 499.401 113.918 499.729 105.319 494.318C97.9339 489.69 95.0508 489.866 78.258 496.087C66.5738 500.388 64.0448 500.185 57.3427 494.215C52.5375 489.942 48.0359 489.284 39.1842 491.535C37.338 492.015 33.7973 492.926 31.3187 493.559C14.6018 497.884 10.353 494.949 13.8937 481.571C14.4753 479.42 15.3352 476.133 15.841 474.288C18.1425 465.612 17.5102 461.541 13.1855 456.659C8.05156 450.893 8.48149 446.872 16.1698 429.472C24.0099 411.718 24.1364 408.228 17.5102 397.151C12.4521 388.729 12.3762 386.933 16.4733 375.503C20.6967 363.667 20.2163 358.633 14.0707 350.667C8.53207 343.459 8.63323 343.94 11.2129 336.479C14.5259 326.995 14.5765 322.696 11.5163 314.779C8.83556 307.799 9.36666 305.246 15.3352 297.077C18.8 292.321 19.2806 291.563 19.2047 291.183C19.0782 290.576 18.193 290.172 17.4596 290.375Z" fill="black"/>
</svg>
