<svg width="55" height="140" viewBox="0 0 55 140" fill="none" xmlns="http://www.w3.org/2000/svg">
<path fill-rule="evenodd" clip-rule="evenodd" d="M32.8927 123.674C27.0926 117.624 22.7427 111.424 20.3427 103.274C20.1988 102.801 20.0128 102.32 19.8262 101.838C19.5586 101.146 19.2899 100.451 19.1426 99.7738C21.0426 100.224 22.3426 102.174 22.8926 103.974C25.2926 111.024 28.3426 117.724 33.7426 122.974C34.387 123.515 35.4787 124.813 36.8041 126.388L36.8043 126.388C41.2385 131.66 48.2874 140.041 49.9426 133.574C51.3339 126.835 50.2301 119.832 49.1624 113.057L49.1623 113.056C49.0021 112.04 48.8427 111.028 48.6926 110.024C46.1926 97.4738 42.2427 85.2738 38.2927 73.1238C36.6621 68.3029 35.1153 63.4402 33.5671 58.5732L33.5671 58.5732L33.567 58.5729L33.5669 58.5725C28.5639 42.8444 23.5467 27.0717 15.6426 12.5238C7.84265 -1.17623 4.49266 0.673798 4.49266 15.9238C4.84266 25.6238 6.64264 35.1738 8.69264 44.6238C9.44741 47.9888 10.1181 51.3737 10.7887 54.758C12.2505 62.1352 13.7119 69.5102 16.0426 76.6738C16.4063 77.625 16.7465 78.5996 17.0884 79.5791C17.9687 82.1009 18.8602 84.655 20.1926 86.9238C20.3426 87.2238 20.2927 87.5738 20.2427 87.8738C16.3927 87.4238 10.4926 66.4738 9.64265 62.3238C9.1402 59.4183 8.1653 55.3078 7.038 50.5548C3.00497 33.5505 -2.97863 8.32199 3.74266 0.623779C14.5975 1.21421 23.5132 24.3712 28.0168 36.0682C28.4711 37.2484 28.8806 38.3119 29.2426 39.2238C31.5736 46.5229 34.0997 53.7937 36.629 61.0739C43.5945 81.1225 50.5849 101.243 53.5927 122.224C53.627 122.876 53.7334 123.803 53.8585 124.892C54.4621 130.151 55.4989 139.182 50.9426 139.224C45.033 137.394 40.8096 132.569 36.7205 127.898C35.4472 126.443 34.1868 125.004 32.8927 123.674ZM8.79243 31.1738C9.84243 28.5738 12.3425 26.9737 15.0925 26.8237C16.1425 27.2737 17.2424 28.1238 17.6924 29.1738C14.1924 30.1238 13.2924 31.0737 11.2924 33.8237C10.5424 33.4737 8.39243 32.0738 8.79243 31.1738ZM19.1658 37.7016C17.7782 39.3733 16.1273 41.3623 13.6924 41.2737C12.9424 41.3237 14.8424 42.8738 15.5424 42.8738C15.609 42.8738 15.659 42.8571 15.6924 42.8237C18.2924 42.8237 20.6924 41.2237 21.9924 39.0737C21.5424 38.1737 20.5924 37.4737 19.6924 37.0737C19.5205 37.2742 19.3454 37.4852 19.1658 37.7016ZM19.2925 59.4237C20.7425 57.9737 22.7925 57.4737 24.7925 57.1737C25.0925 56.8237 26.1425 57.4237 26.7925 58.0237C27.2925 58.5237 27.5425 58.9737 26.9925 58.9737C23.2425 59.6237 19.6425 62.3237 18.8425 65.9737C15.5925 64.7737 17.5425 61.1737 19.2925 59.4237ZM20.1925 70.9237C19.5925 71.5737 23.1425 74.7237 23.9925 74.3737C24.3259 74.4071 24.6592 74.4237 24.9925 74.4237C27.9425 74.4237 30.4925 72.2737 32.1425 69.9237C31.8925 68.8737 30.6926 68.0737 29.8426 67.5237C28.9915 67.983 28.2207 68.5737 27.4612 69.1558C25.4096 70.7281 23.4402 72.2374 20.1925 70.9237ZM37.3925 112.624C39.6925 111.424 43.2425 111.124 44.4425 113.924C42.0425 113.774 39.3925 114.424 37.3425 115.924C34.9425 114.374 34.5925 113.924 37.3925 112.624ZM38.1424 121.174C39.1924 123.074 41.1424 124.674 43.3924 124.924C43.9591 125.024 44.5424 125.074 45.1424 125.074C46.3424 125.074 47.5425 124.824 48.5425 124.274C48.0425 122.974 46.7424 121.724 45.4424 121.224C43.5924 121.924 41.5424 122.024 39.6424 121.474C39.4924 121.524 39.1924 121.374 38.9424 121.174C38.5424 120.924 38.1424 120.724 38.1424 121.174ZM26.9925 85.7737C27.6425 84.3737 29.4426 83.9237 30.8926 83.7237C33.6426 83.5237 36.9426 84.3237 38.7926 86.5237C39.119 87.054 38.713 86.8854 38.3895 86.751C38.3166 86.7207 38.2478 86.6921 38.1926 86.6737C35.2925 85.2737 31.0426 84.8237 28.8926 87.5237C28.1426 87.1737 27.2925 86.5737 26.9925 85.7737ZM29.1425 98.6738C30.1425 100.124 31.9425 100.774 33.6425 100.824H33.8425C36.0196 100.824 38.0562 100.028 40.043 99.2517C40.1095 99.2257 40.176 99.1997 40.2425 99.1738C40.6144 99.1273 40.3812 98.8214 40.226 98.6179C40.2143 98.6025 40.203 98.5878 40.1925 98.5737C40.0949 98.4762 39.9958 98.3708 39.8943 98.2628C39.4234 97.762 38.9006 97.206 38.2425 97.1238C38.0038 97.2224 37.7635 97.3236 37.5216 97.4256C35.4324 98.3061 33.2227 99.2374 30.8925 98.9238C30.2925 98.8238 29.7425 98.6238 29.1925 98.3738C28.9633 98.3279 29.0703 98.5342 29.1282 98.6459C29.1335 98.6561 29.1383 98.6654 29.1425 98.6738Z" fill="black"/>
</svg>
