<svg width="134" height="110" viewBox="0 0 134 110" fill="none" xmlns="http://www.w3.org/2000/svg">
<path fill-rule="evenodd" clip-rule="evenodd" d="M53.452 22.4204C50.752 22.1704 48.252 20.3204 46.802 18.0704C46.802 17.8704 46.7187 17.8204 46.552 17.9204C45.3473 18.1614 43.953 18.0425 42.5841 17.6588C42.2513 24.1209 42.1573 30.6082 42.302 37.1205C42.2705 37.3254 42.2936 37.9328 42.3213 38.6592C42.3814 40.237 42.4629 42.3759 42.052 42.1705C40.902 41.7205 39.852 40.8705 39.052 39.9205C38.7246 39.2657 38.7617 38.4822 38.7982 37.7104C38.8174 37.3037 38.8365 36.9002 38.802 36.5205C38.802 34.8205 38.818 33.1205 38.834 31.4205C38.858 28.8705 38.882 26.3205 38.852 23.7705C38.8378 22.636 38.8156 21.4976 38.7933 20.3562L38.7933 20.355C38.7636 18.8324 38.7338 17.3047 38.7228 15.7746C35.9254 13.6755 34.712 10.4809 38.652 7.77044C35.852 4.67044 40.452 1.57044 43.152 0.570441C45.852 -0.429559 48.602 1.07044 50.552 2.87044C50.5882 2.89762 50.6163 2.91988 50.6385 2.9375C50.6872 2.97616 50.7078 2.99257 50.7255 2.98985C50.7386 2.98784 50.7501 2.97546 50.77 2.95395C50.7788 2.9445 50.7891 2.9333 50.802 2.92044C51.652 1.97044 52.902 1.07044 54.252 1.17044C57.602 1.82044 59.752 4.97044 60.802 7.97044C61.052 8.42044 60.652 8.32044 60.402 8.17044C58.8259 7.48889 58.1208 6.04525 57.4209 4.61245L57.4209 4.61239C57.2993 4.3634 57.1778 4.11473 57.052 3.87044C55.952 3.27044 53.552 5.47044 52.902 6.42044C52.896 6.45625 52.8908 6.49562 52.8853 6.53668L52.8853 6.53697C52.8448 6.83988 52.7922 7.23455 52.352 6.97044C52.3002 6.93998 52.244 6.9073 52.1841 6.87251C51.2615 6.33624 49.4794 5.30039 49.902 4.22044C50.202 3.82044 49.952 3.47044 49.702 3.12044C47.002 1.02044 41.352 4.47044 40.602 7.47044C41.7248 7.74462 42.7556 8.32902 43.5447 8.96817C44.8908 8.14366 48.0758 7.64169 48.7521 7.5705C51.3521 7.3705 54.2021 7.5705 55.9521 9.6705C56.9521 10.6705 56.5021 10.8205 55.4521 10.1705C52.5021 9.6205 49.4521 10.1705 46.7021 11.4205C58.5521 15.0705 71.0521 13.6205 83.0521 11.6205C83.4635 11.5409 83.9279 11.4612 84.4086 11.3788L84.4086 11.3788L84.4087 11.3788L84.4088 11.3787L84.4088 11.3787L84.4089 11.3787C85.7389 11.1506 87.1942 10.901 88.0021 10.5705C83.6021 9.2205 78.9521 8.8705 74.3521 9.0705C71.2521 9.2205 68.2021 9.7205 65.2021 10.2205C64.4021 10.5705 61.8021 8.5205 61.8021 7.7705C64.594 7.26067 67.4095 6.8923 70.2314 6.73407C70.0519 6.54088 69.8902 6.33538 69.752 6.12044C69.5878 5.7921 69.929 5.49745 70.1671 5.2918L70.1672 5.29174C70.2191 5.24688 70.2662 5.20626 70.302 5.17044C70.552 4.32044 70.202 2.72044 69.152 2.62044C67.102 2.42044 65.452 4.27044 64.452 5.82044C64.2007 5.96005 63.9026 6.03729 63.61 6.11311C63.3786 6.17307 63.1507 6.23213 62.952 6.32044C61.852 6.07044 60.852 5.02044 60.252 4.07044C60.2182 3.83362 60.6193 3.80282 60.9597 3.77669C61.1223 3.7642 61.2712 3.75278 61.352 3.72044C62.1292 3.83702 62.6648 3.34955 63.1935 2.86835L63.1935 2.86829C63.3451 2.73037 63.4961 2.59296 63.652 2.47044C67.0889 -0.589838 68.9742 1.31516 71.3116 3.67699C71.4565 3.82341 71.6031 3.97158 71.752 4.12044C75.352 1.62044 80.302 1.42044 83.202 5.07044C83.2687 5.23711 83.3853 5.23711 83.552 5.07044C85.052 4.42044 86.802 4.17044 88.502 4.37044C92.802 4.72044 98.852 11.5204 95.352 15.4704C94.429 16.1824 93.2418 16.6163 92.0618 16.6399C92.103 16.7485 92.1047 16.8453 92.052 16.9205C92.3211 21.6294 92.3874 26.3383 92.4537 31.0395V31.0397V31.0402C92.4914 33.7146 92.529 36.3864 92.6039 39.0542C94.2165 39.0489 95.8003 39.4228 97.102 40.3205C99.352 41.9205 103.502 45.2705 101.852 48.3205C101.252 49.0205 100.152 49.4205 99.252 49.0705C97.302 51.3205 93.452 53.7206 90.302 51.8205C90.1353 51.5872 90.0131 51.7539 89.8909 51.9205C89.8298 52.0039 89.7687 52.0872 89.702 52.1205C87.002 54.9705 82.052 57.0205 79.052 53.4705C78.9282 53.5531 78.8014 53.6383 78.6719 53.7254C76.4464 55.2214 73.409 57.2633 70.952 55.4205C70.8777 55.402 70.7826 55.3144 70.6823 55.2218C70.5126 55.0654 70.3277 54.8949 70.202 55.0205C67.602 56.7705 64.202 58.5705 61.002 57.2705C59.902 56.7705 58.902 56.0205 58.052 55.1205C53.902 57.8205 48.402 57.1705 45.202 53.2705C41.702 55.2705 37.602 53.5205 35.202 50.6705C34.152 49.4705 33.952 47.7705 34.452 46.3205C34.5187 46.1872 34.4687 46.1205 34.302 46.1205C31.752 44.9205 27.802 42.7206 28.402 39.3205C28.852 37.8205 29.952 36.3705 31.552 35.9205C34.302 35.3205 37.202 37.3205 38.852 39.4205C38.9108 39.8322 38.3818 39.6041 37.8546 39.3768C37.4852 39.2176 37.1168 39.0587 36.952 39.1205C34.652 38.9705 32.852 41.3205 32.752 43.4205C32.7114 43.8262 34.3496 43.7382 35.2361 43.6905L35.2363 43.6905C35.4423 43.6794 35.6077 43.6705 35.702 43.6705C36.552 43.3705 39.302 45.3705 39.352 46.1705C38.102 47.5205 37.352 49.4705 37.752 51.3205C37.7909 51.7094 38.8277 51.6144 39.4984 51.5529L39.4985 51.5529C39.6902 51.5354 39.852 51.5205 39.952 51.5205C41.802 51.1705 43.702 50.2705 44.952 48.8705C45.052 48.8205 45.152 48.8705 45.252 48.9205C46.202 49.4205 47.502 50.1205 47.852 51.1705C47.8136 51.3625 47.6278 51.525 47.4757 51.658L47.4757 51.658L47.4756 51.6581C47.4297 51.6983 47.3868 51.7357 47.352 51.7705C46.852 52.2705 46.952 53.1705 47.202 53.7705C47.3158 54.3394 47.9473 54.4193 48.5075 54.4901H48.5076C48.6859 54.5127 48.8571 54.5343 49.002 54.5705C51.902 54.9205 54.652 53.7205 57.152 52.4205C58.002 52.2205 59.052 53.3205 59.552 53.9705C59.5727 54.1573 59.5504 54.3526 59.5279 54.5494V54.5494V54.5495V54.5495V54.5495V54.5496C59.4963 54.827 59.4642 55.1073 59.552 55.3705C59.902 56.4205 62.752 55.7205 63.602 55.4705C65.2406 54.9244 66.666 54.0129 68.0684 53.1161L68.0685 53.1161C68.4634 52.8636 68.8565 52.6122 69.252 52.3705C70.102 52.6705 71.102 53.3705 71.402 54.1705C72.9169 53.9812 74.2127 53.1742 75.4905 52.3785C76.2371 51.9136 76.9775 51.4524 77.752 51.1205C78.752 51.4705 79.802 52.2705 80.152 53.3205C80.502 53.3705 80.952 53.3205 81.352 53.2705C83.852 52.8205 86.102 51.2705 87.852 49.4705C87.9689 49.081 88.2982 49.2985 88.5799 49.4845C88.6597 49.5372 88.7357 49.5874 88.802 49.6205C90.352 51.4205 96.252 48.5205 96.452 46.5705C96.5341 46.1602 96.953 46.4571 97.2387 46.6597C97.3011 46.7039 97.3572 46.7437 97.402 46.7705C99.602 46.4705 99.752 44.1705 98.602 42.6705C98.1893 42.0928 97.3678 42.1281 96.6718 42.1581H96.6717L96.6716 42.1581C96.5244 42.1645 96.3829 42.1705 96.252 42.1705C96.0595 42.1705 95.8669 42.2066 95.6761 42.2423L95.676 42.2423C95.272 42.3179 94.8755 42.3922 94.502 42.1205C94.2606 42.0328 93.3934 41.4058 92.6567 40.7425C92.6841 41.5355 92.7156 42.3282 92.752 43.1205C92.737 43.2254 92.758 43.4201 92.7812 43.636C92.8355 44.1405 92.9022 44.7606 92.552 44.6205C91.352 44.0705 89.102 42.9205 89.402 41.3705C89.4965 39.556 89.6124 37.7415 89.7282 35.9297C89.9187 32.9487 90.1087 29.9749 90.202 27.0205C90.3092 24.2337 90.2887 21.4723 90.2683 18.7183V18.7179V18.7175L90.2683 18.714L90.2683 18.7105L90.2682 18.707L90.2682 18.7036L90.2682 18.7002L90.2682 18.6968L90.2682 18.6934L90.2681 18.69L90.2681 18.6867L90.2681 18.6834L90.2681 18.68C90.2622 17.8933 90.2564 17.1071 90.2537 16.321C89.8444 16.1564 89.4558 15.9251 89.102 15.6204C88.902 15.4704 89.052 15.5204 88.952 15.5704C87.002 18.6704 82.402 20.5204 79.602 17.3704C79.4102 17.5485 79.2071 17.7567 78.9939 17.9753C78.4287 18.5545 77.7917 19.2074 77.102 19.5704C73.902 21.6704 71.102 20.7204 68.552 18.4204C67.302 19.5204 65.752 20.4204 64.052 20.4204C62.452 20.3704 61.052 19.5204 59.852 18.5704C59.6044 18.8025 59.3461 19.0609 59.0761 19.3311C57.6009 20.8068 55.7765 22.6318 53.452 22.4204ZM46.752 14.9704C45.4709 15.5576 44.0758 15.8029 42.6884 15.767C42.7089 15.4181 42.7301 15.0693 42.752 14.7205C42.5922 14.0412 40.5801 12.1803 39.4211 11.7155C39.8189 10.9879 40.3978 10.3497 41.052 9.92044C42.6962 10.936 43.7703 11.3786 44.3932 11.451C47.361 13.832 52.7801 14.9738 57.786 15.5121L57.7702 15.5158L57.752 15.5204C57.5686 15.7371 57.3853 15.9594 57.202 16.1816L57.2018 16.1817L57.2018 16.1817L57.2018 16.1818L57.2018 16.1818L57.2018 16.1818L57.2017 16.1818L57.2017 16.1819L57.2017 16.1819L57.2017 16.1819L57.2016 16.1819L57.2016 16.182C56.8351 16.6263 56.4685 17.0706 56.102 17.4704C54.452 19.3204 51.902 20.9704 49.402 19.8704C48.802 19.3204 48.352 17.7204 48.952 17.0704C50.202 16.4704 49.102 15.5704 48.402 15.0704C47.902 14.6704 47.102 14.1204 46.752 14.9704ZM59.3939 16.3308C59.0631 16.0341 58.704 15.7121 58.3352 15.569C61.3163 15.8657 64.1111 15.9539 66.1021 15.9705L66.1146 15.9704C64.5375 17.2958 62.7 18.5046 60.602 18.0204C60.552 17.5204 60.252 17.0204 59.852 16.7204C59.7073 16.6119 59.5539 16.4743 59.3939 16.3308ZM69.852 16.9704C69.5636 16.6155 69.2162 16.2212 68.8272 15.8792C71.5429 15.7317 74.2407 15.4297 76.9204 15.1024C75.0852 16.8873 72.5281 18.8557 70.052 18.2704C69.9829 18.0632 69.9775 17.8559 69.9721 17.6535C69.9659 17.4165 69.9599 17.1862 69.852 16.9704ZM80.502 16.8204C80.502 15.9349 79.7634 15.3535 79.0962 14.8332L79.6021 14.7705C81.7551 14.5061 83.908 14.1846 86.0179 13.7845C84.5292 15.4493 82.636 17.0532 80.502 16.8204ZM89.552 14.4204C89.3346 13.9858 89.0007 13.5744 88.6064 13.2258C88.7993 13.1857 88.9976 13.1521 89.1968 13.1183C89.9777 12.9857 90.7717 12.8508 91.3021 12.3205C90.5121 10.0721 87.5064 8.82068 84.4842 8.05023C84.4917 7.99388 84.4977 7.934 84.502 7.87044C86.702 6.27044 90.402 5.67044 92.652 7.22044C94.902 10.6204 94.202 14.2704 89.702 14.5204C89.5752 14.5204 89.5384 14.5204 89.533 14.5074C89.5308 14.5021 89.5338 14.4946 89.538 14.484C89.5438 14.4694 89.552 14.449 89.552 14.4204ZM81.652 7.07044C81.7428 7.19149 81.8679 7.3446 82.0154 7.50967C81.2427 7.36292 80.5131 7.24079 79.8699 7.13314C79.6351 7.09383 79.4118 7.05645 79.2021 7.0205C77.1678 6.75745 75.1274 6.64202 73.0873 6.64832C75.4677 4.69512 79.011 3.53157 81.902 4.67044C82.4991 5.62041 82.168 5.86316 81.8525 6.09452C81.5867 6.28936 81.332 6.47613 81.652 7.07044ZM51.8021 46.8206C56.5521 48.4706 61.4521 49.8206 66.5021 50.0706C73.4762 50.4305 80.3289 48.442 86.9872 46.51L86.9882 46.5097L86.9892 46.5094L86.9979 46.5069C87.7351 46.293 88.4698 46.0798 89.2021 45.8705C88.6021 44.7705 87.3521 43.8206 86.1521 43.4206C84.3021 43.8206 82.5021 44.2705 80.6521 44.7705C67.9021 48.7705 59.4021 48.3706 46.9521 43.5706C46.8321 43.5466 46.5565 43.439 46.2264 43.3102L46.2263 43.3102C45.1809 42.9022 43.5881 42.2806 44.6521 43.4206C45.8998 44.9892 47.7576 45.541 49.6093 46.091L49.6093 46.0911C50.3546 46.3125 51.0989 46.5336 51.8021 46.8206ZM57.252 34.6205C56.021 34.2538 54.8861 33.5304 54.0771 32.5509C54.0618 34.5574 54.4349 36.5587 55.652 38.1705C58.102 38.9205 60.552 36.8705 61.602 34.8205C61.9776 34.1445 62.2403 33.4049 62.4777 32.6522C60.992 34.0054 59.2417 35.0311 57.252 34.6205ZM69.852 33.9205C68.5591 33.6682 67.3059 32.9784 66.2933 32.0392L66.272 32.0826L66.2302 32.169C66.4095 34.6183 66.822 38.2298 67.9521 38.1205C69.5021 37.9705 70.8021 37.0205 71.8521 35.9705C73.097 34.6952 73.549 33.0141 73.8129 31.2858C72.8791 32.7349 71.6722 34.0235 69.852 33.9205ZM76.8137 28.7424C76.758 28.4658 76.7383 28.1723 76.7186 27.8787C76.6707 27.1628 76.6227 26.4461 76.052 25.9705C75.9947 25.9275 75.9126 25.8608 75.8131 25.7799L75.8125 25.7794L75.8124 25.7793L75.8114 25.7786L75.8111 25.7783C75.2161 25.2945 74.0015 24.3071 73.702 24.8205C73.4622 25.3001 73.2272 25.8396 72.982 26.4024L72.9819 26.4027C71.8467 29.0082 70.4947 32.1116 67.452 32.0705C66.7133 31.0086 66.5715 29.691 66.436 28.4324L66.4358 28.4307L66.4356 28.4286C66.4245 28.3254 66.4134 28.2227 66.402 28.1205C65.902 27.3205 65.002 26.6205 64.102 26.3705C62.352 29.1705 60.052 32.3705 56.602 33.1705C54.8241 33.7208 54.874 30.3646 54.9008 28.5636V28.5633C54.9056 28.2372 54.9097 27.9621 54.902 27.7705C54.952 27.2205 54.852 26.7705 54.352 26.4705C54.294 26.4291 54.2168 26.3657 54.127 26.292L54.1269 26.2919C53.6746 25.9205 52.9023 25.2865 52.652 25.8705C50.802 28.3705 48.402 30.9205 45.402 31.8705C44.752 31.8705 46.252 32.9205 46.552 32.9205C47.1788 32.8813 47.7817 32.716 48.3616 32.4663C47.1364 33.687 45.2242 35.4398 43.952 35.0705C43.302 35.0705 45.352 36.5205 45.602 36.5205C47.5151 36.9536 49.8451 34.7809 51.5386 32.8618C51.7128 35.9087 54.0529 38.3959 56.852 39.6205C59.202 40.9205 61.952 39.6205 63.552 37.6205C64.0225 36.9806 64.401 36.284 64.7406 35.5627C64.8349 35.8397 64.953 36.1097 65.1021 36.3705C66.1021 38.0205 67.8521 39.5205 69.8021 39.8205C72.5452 39.6761 75.0568 37.5399 75.91 34.9277C76.1811 35.4037 76.5203 35.8412 76.952 36.2206C78.052 37.1706 79.302 38.0206 80.752 38.3206C82.652 38.7706 84.602 38.2206 86.102 37.0706C86.1529 37.0197 86.2384 36.9687 86.3271 36.9159C86.4999 36.813 86.685 36.7027 86.652 36.5706C86.202 35.9206 85.102 34.9706 84.302 34.9206C82.702 36.0206 80.902 36.9206 78.902 36.4706C78.602 36.4706 78.352 36.4206 78.302 36.1206C77.652 34.8206 77.302 33.4206 77.002 32.0206C76.9854 31.9417 76.9681 31.8628 76.9504 31.784C79.2188 33.8081 82.4694 34.9093 84.702 32.4205C84.8306 32.2736 84.9996 32.1334 85.1695 31.9925C85.4621 31.7499 85.7571 31.5052 85.852 31.2205C85.252 30.4205 84.252 29.5705 83.252 29.3705C80.814 31.5597 77.9305 33.7489 76.9169 29.1392C76.9332 28.9975 76.8988 28.8592 76.8137 28.7424ZM19.4694 60.1651C33.9018 62.9907 48.39 65.8271 63.1521 65.9705C75.5521 66.2705 88.0021 65.8705 100.252 63.8705C100.7 63.784 101.226 63.686 101.82 63.5755C110.838 61.8966 135.255 57.3506 131.502 47.1705C130.352 44.6205 127.702 43.2205 125.352 42.0205C119.902 39.5205 113.852 39.1205 107.952 39.1205C105.802 38.8705 109.802 41.1205 110.252 41.1205C110.726 41.1364 111.283 41.1473 111.903 41.1594C117.114 41.261 126.776 41.4493 128.652 45.4705C129.852 48.2205 128.152 51.2205 125.752 52.6205C115.452 59.1705 96.8021 61.6705 84.6021 62.8205C66.5021 64.2205 48.2021 63.9205 30.3521 60.6705C27.8696 60.2228 25.3954 59.7586 22.9228 59.2947L22.9224 59.2946C19.3193 58.6186 15.7195 57.9431 12.1021 57.3205C11.4056 57.1812 10.6995 57.0611 9.99195 56.9408L9.99186 56.9408L9.99175 56.9408L9.99165 56.9408L9.99155 56.9408L9.99149 56.9408C7.90532 56.5861 5.80612 56.2292 3.90207 55.3705C2.40207 53.4205 4.90207 51.5205 6.50207 50.5705C12.5521 46.8705 19.4021 44.4205 26.2521 42.6205C27.1521 42.6205 23.8021 40.0205 22.4521 40.9205C20.7998 41.5429 19.1039 42.1192 17.3987 42.6987C11.5703 44.6796 5.6327 46.6974 0.952067 50.7205C-1.14793 52.9705 1.95207 55.1205 3.85207 56.1705C6.95655 57.9499 10.5197 58.5539 14.064 59.1548L14.0642 59.1548L14.0645 59.1549C15.2009 59.3475 16.3353 59.5398 17.4521 59.7705C18.1198 59.9009 18.7876 60.0317 19.4556 60.1624L19.4602 60.1633L19.4648 60.1642L19.4694 60.1651ZM78.852 80.1705C74.352 79.8705 70.702 76.2705 68.602 72.5705C64.102 79.9205 57.552 80.1705 52.702 72.9705C48.502 79.9205 42.252 79.7705 37.952 73.0205C32.352 82.7205 25.152 79.5205 20.552 71.0205C20.2187 70.3205 19.9187 69.5872 19.652 68.8205C19.6115 68.7396 19.6038 68.7569 19.5759 68.8194C19.5714 68.8293 19.5665 68.8404 19.5608 68.8524L19.552 68.8705L19.252 69.3705C13.152 79.5205 3.502 73.7205 1.552 64.1705C1.002 61.3205 0.601995 58.3705 0.751995 55.4205C0.751995 55.2705 0.851995 55.1205 1.00199 55.2205C2.40167 55.7588 2.48756 57.0957 2.57248 58.4177C2.60587 58.9374 2.63911 59.4548 2.752 59.9205C3.352 63.9205 4.052 68.1205 6.402 71.5205C6.652 71.9205 7.002 72.2205 7.502 72.2705C10.302 73.0705 13.102 71.4705 14.902 69.4205C16.052 68.1705 17.002 66.7705 17.852 65.2705C17.9037 65.1878 17.9532 65.086 18.0045 64.9803C18.2017 64.5747 18.426 64.1135 18.902 64.4705C20.8676 65.4194 21.2023 66.8967 21.5721 68.5286C21.7478 69.3043 21.9315 70.115 22.302 70.9205C23.102 72.9205 24.102 75.0205 25.752 76.4205C28.402 77.6705 31.352 75.8705 33.102 73.9205C34.502 72.4205 35.602 70.5705 36.552 68.7705C36.7602 68.1044 37.419 68.6516 37.8357 68.9977C37.9195 69.0672 37.9934 69.1287 38.052 69.1705C39.152 69.8705 39.502 70.7205 39.602 71.9705C39.6487 72.1505 39.6936 72.3448 39.7403 72.5467L39.7403 72.5468L39.7403 72.5469L39.7403 72.5469C40.0436 73.8594 40.4221 75.4972 41.852 75.6705C45.652 76.1205 48.502 72.7705 50.352 69.8705C50.487 69.7162 50.5997 69.5321 50.7131 69.3469C50.8935 69.0522 51.0756 68.7547 51.352 68.5705C52.1754 68.7005 52.8486 69.3939 53.4366 69.9997C53.527 70.0928 53.6154 70.1839 53.702 70.2705C54.102 70.7205 54.202 71.2705 54.252 71.8205C54.452 73.0205 54.902 74.2705 55.652 75.2205C57.952 76.3205 60.752 75.3705 62.602 73.8205C63.3975 73.242 63.9954 72.4543 64.5862 71.6759C65.2209 70.8397 65.8475 70.0143 66.702 69.4705C68.052 69.6705 69.102 70.9205 69.902 71.9705C70.2467 72.4876 70.5321 73.0642 70.8194 73.6448C71.3656 74.7485 71.9191 75.867 72.902 76.6205C76.102 78.4705 80.052 76.9205 82.552 74.6205C83.4096 73.9058 84.0969 73.0323 84.7816 72.1621C85.5341 71.2058 86.2834 70.2535 87.252 69.5205C87.963 69.481 88.5491 70.0343 89.0844 70.5396L89.0845 70.5398L89.0849 70.5401C89.2271 70.6743 89.3656 70.8051 89.502 70.9205C90.231 71.562 90.6369 72.3906 91.047 73.2278C91.34 73.826 91.6352 74.4287 92.052 74.9705C95.152 76.6705 98.852 74.6205 101.002 72.2205C101.852 71.303 102.586 70.2931 103.33 69.2693L103.33 69.2692C103.681 68.7866 104.034 68.301 104.402 67.8205C104.702 67.1705 105.402 67.6705 105.752 67.9705C107.309 69.0192 107.553 69.9467 107.82 70.9584C107.973 71.5385 108.133 72.1463 108.552 72.8205C110.502 73.4705 112.452 72.4205 113.852 71.1205C115.972 69.2171 117.231 66.64 118.471 64.1015C118.664 63.706 118.857 63.3114 119.052 62.9205C119.297 62.1451 119.941 62.7354 120.415 63.1689L120.415 63.1689C120.521 63.2665 120.619 63.3562 120.702 63.4205C121.789 64.1558 122.14 65.3 122.5 66.474C122.703 67.136 122.909 67.8075 123.252 68.4205C124.002 69.5205 125.852 69.5705 126.902 68.9205C129.379 67.3609 129.584 64.1602 129.755 61.4802L129.755 61.4782L129.755 61.4758C129.771 61.236 129.786 61.0004 129.802 60.7705C129.802 59.5189 129.716 58.2386 129.63 56.9731V56.9729V56.9727L129.63 56.9719L129.63 56.9676L129.63 56.9637C129.603 56.5641 129.576 56.1658 129.552 55.7705C129.602 55.6205 129.702 55.6205 129.802 55.6705C130.225 55.8243 130.589 56.1259 130.939 56.4163L130.939 56.4166C131.044 56.5037 131.148 56.5897 131.252 56.6705C131.359 56.7861 131.47 56.9018 131.583 57.0185L131.583 57.0186C132.103 57.5582 132.646 58.1218 132.852 58.8205C133.002 60.5205 133.102 62.2205 133.052 63.8705C132.952 74.1205 127.052 75.1705 121.202 67.4205C118.302 74.9205 112.502 80.0705 106.452 71.8705C101.552 80.7705 94.752 80.5205 89.102 72.8705C86.702 76.4205 83.502 80.2705 78.852 80.1705ZM47.302 100.62C48.052 101.92 49.702 102.82 51.152 103.37C51.8814 103.262 52.6109 103.105 53.3418 102.948L53.3419 102.948L53.3419 102.948C54.9658 102.599 56.597 102.248 58.252 102.42C58.6463 102.434 59.0591 102.496 59.4773 102.558C60.597 102.725 61.7555 102.898 62.702 102.17L62.7713 102.089C65.0081 99.4548 67.7015 96.283 67.652 92.6704C67.2928 90.9544 66.1134 90.0904 65.0386 89.303C63.4202 88.1175 62.039 87.1057 64.052 83.6204C64.1187 83.6204 64.1853 83.6038 64.252 83.5704C64.402 82.7205 60.302 80.0204 59.452 80.3204C56.952 84.1204 59.802 86.9704 63.002 88.9704C65.602 90.9204 61.402 96.2704 59.852 98.0204C58.5983 99.9359 56.7381 99.7167 54.829 99.4917H54.8289H54.8288C53.9971 99.3937 53.1562 99.2946 52.352 99.3705C50.652 99.6205 48.852 99.9705 47.302 100.62ZM83.102 104.171C80.152 103.821 77.402 102.321 75.152 100.371C73.002 98.8206 72.752 96.0206 73.952 93.7706C74.3048 92.7651 74.8941 91.8032 75.4849 90.8387C76.5688 89.0694 77.658 87.2916 77.302 85.2206C77.1443 84.7474 76.6963 84.4539 76.2343 84.1511C75.8174 83.878 75.3891 83.5974 75.152 83.1706C74.852 82.7706 75.452 82.8206 75.652 82.9206C77.402 83.6206 79.152 84.8206 80.252 86.4206C81.4597 88.5155 80.2254 90.8169 78.9447 93.2052C77.6271 95.6619 76.2604 98.2105 77.452 100.721C78.6968 101.114 79.9845 101.099 81.2729 101.084H81.273C81.9512 101.077 82.6296 101.069 83.302 101.121C84.752 101.821 86.452 102.721 87.202 104.121C87.202 104.292 86.9816 104.28 86.8557 104.273C86.8347 104.272 86.8163 104.271 86.802 104.271C85.552 104.371 84.302 104.371 83.102 104.171ZM66.7937 107.264C67.8937 108.25 69.1624 109.389 70.702 109.521C71.8316 109.548 72.9005 109.242 73.9672 108.936C74.8363 108.687 75.704 108.438 76.602 108.371C77.8058 108.371 79.0097 108.471 80.2212 108.572C81.274 108.659 82.3326 108.747 83.402 108.771C84.652 108.771 81.202 106.221 80.702 106.121C79.8898 105.839 79.0192 105.851 78.1387 105.863C77.6098 105.87 77.0774 105.877 76.552 105.821C73.902 105.371 71.352 105.871 68.802 106.621C67.852 105.371 66.402 104.021 64.752 103.821C63.8649 104.025 62.9894 104.335 62.1097 104.646C60.4111 105.246 58.6966 105.852 56.852 105.721C56.802 105.221 53.702 102.621 53.902 103.871C54.652 106.421 57.902 108.121 60.502 108.121C62.2584 108.077 63.9763 107.57 65.6556 107.075C65.8885 107.006 66.1206 106.938 66.352 106.871C66.4963 106.997 66.6434 107.129 66.7937 107.264Z" fill="black"/>
</svg>
