<svg width="238" height="237" viewBox="0 0 238 237" fill="none" xmlns="http://www.w3.org/2000/svg">
<path fill-rule="evenodd" clip-rule="evenodd" d="M115.446 0.25C112.846 3 114.546 8.05 117.796 9.5H117.896C117.946 9.5 117.996 9.49999 117.996 9.39999C116.946 7.39999 116.546 4.64999 118.196 2.79999C118.196 2.04999 116.246 0.25 115.446 0.25ZM110.644 11.7024C108.713 10.7492 108.849 10.0588 109.108 8.74933C109.378 7.38007 109.781 5.3339 108.094 1.60242C107.944 1.40242 107.944 1.20242 108.244 1.35242C111.294 3.20242 111.794 8.5524 110.744 11.7024H110.694H110.644ZM108.58 20.7325C108.707 20.7589 108.834 20.7815 108.96 20.7999H109.055C110.177 20.7999 111.142 20.3576 111.968 19.7036C111.801 22.4783 114.448 24.8849 117.096 25.25H117.296C120.846 25.25 123.946 21.4 119.446 19.75C119.496 20.9 119.046 22.1 117.896 22.6C113.646 25.05 113.146 21.8 114.846 18.55C114.996 18.4 114.996 18.2 114.846 18.05C114.498 17.6552 114.206 17.354 113.958 17.1412C113.682 16.1729 111.933 14.6827 111.078 14.7249C110.945 14.877 110.812 15.038 110.675 15.2029L110.675 15.2031C109.644 16.4455 108.433 17.9059 106.232 17.4146C105.197 14.493 106.373 12.702 108.913 13.5655C110.278 14.0293 108.631 12.267 108.302 11.9888C105.711 9.79993 101.903 13.0499 102.515 15.1423C103.148 17.3075 105.018 19.3275 107.193 20.283C107.169 20.3811 107.168 20.5176 107.196 20.7C107.396 23.8 104.346 25.45 101.546 24.9C101.526 24.8967 101.508 24.8939 101.491 24.8914C101.47 24.8883 101.452 24.8856 101.435 24.8832L101.435 24.8832C101.357 24.8722 101.321 24.867 101.305 24.8462C101.291 24.8281 101.292 24.798 101.294 24.7418L101.294 24.7414L101.295 24.7111C101.295 24.693 101.296 24.6727 101.296 24.65C101.396 23.3 102.346 21.9 103.596 21.4C103.656 21.4405 103.74 21.5056 103.836 21.5812C104.217 21.8789 104.806 22.3392 105.046 22.1C104.414 21.1072 103.639 20.2186 102.824 19.6767C102.212 18.9004 101.36 18.2579 100.446 17.9C100.265 17.8099 100.166 17.9634 100.075 18.1043L100.067 18.1177C100.06 18.1287 100.053 18.1395 100.046 18.15C98.9456 19.3 97.6956 20.35 96.2956 21.1C96.2364 21.1148 96.0941 21.1821 95.9257 21.2617C95.5246 21.4514 94.9751 21.7113 95.0456 21.5C95.8956 18.85 98.7456 15.6 101.796 16.25C102 16.291 101.903 16.1304 101.834 16.0161C101.818 15.991 101.805 15.968 101.796 15.95C99.7456 12.9 95.8456 14.95 93.9956 17.15C93.9423 17.2189 93.8875 17.2892 93.8316 17.3608C92.9964 18.4317 91.9363 19.7909 92.5456 21.15C93.4456 22.6 94.9956 24 96.7456 24.15C97.4343 24.123 98.1267 23.9756 98.7971 23.7355C99.5579 25.2203 101.503 26.3388 102.896 26.95C103.596 27.25 104.396 27.4 105.196 27.4C107.496 27.4 109.746 26.25 109.896 23.75C109.904 23.6907 109.912 23.6302 109.921 23.5688C110.022 22.8527 110.14 22.0105 109.496 21.55C109.451 21.5107 109.391 21.4549 109.319 21.3879C109.132 21.2148 108.864 20.9665 108.58 20.7325ZM123.395 19.9499C123.845 21.8999 125.995 23.4999 127.895 23.7999C127.995 23.8333 128.079 23.8499 128.145 23.8499C129.345 23.8499 130.445 23.05 130.845 21.9C130.395 20.95 129.395 20.2 128.495 19.75C128.32 19.7062 128.298 19.7775 128.262 19.8967C128.257 19.9135 128.252 19.9313 128.245 19.9499C127.995 20.4999 127.645 20.9499 127.195 21.2999C126.845 21.4999 125.545 22.0999 125.595 21.4499C125.495 20.3499 126.245 18 127.695 18.75C129.295 19.5 126.795 17.1499 126.345 17.0999C124.595 15.9499 123.245 18.3999 123.395 19.9499ZM100.883 2.80005C99.8329 4.45005 98.7829 6.30005 99.0329 8.30005L99.0392 8.45564C99.0853 9.62261 99.1386 10.9715 100.383 11.4501C100.233 8.45007 100.283 7.05006 102.133 4.25006C102.533 3.85006 101.283 2.95005 100.883 2.80005ZM118.195 18.85C116.545 18.1 114.995 16.75 114.095 15.15C112.645 11.6 114.295 8.25004 117.445 12.5C117.545 12.65 117.745 13 117.396 12.95C115.946 12.5 116.046 15.75 116.396 16.6C122.546 18 122.596 12.8 118.646 9.65003C117.495 8.20003 119.445 9.40003 119.795 9.90003C121.795 11.8 124.145 14.2 124.045 17.1C123.745 18.75 122.196 19.35 120.646 19.35C119.745 19.35 118.895 19.15 118.195 18.85ZM127.446 17.55C124.396 15.85 123.496 12.9 125.646 9.99997C126.596 8.54997 127.596 8.09994 128.796 9.59994C128.852 9.68508 128.941 9.78231 129.035 9.88475L129.035 9.88486C129.272 10.1434 129.539 10.4351 129.396 10.65C127.446 11.1 126.396 13.95 126.546 15.8C128.146 16.3 130.396 15.5999 130.896 13.8499C131.193 12.2863 130.188 11.1385 129.222 10.035L129.222 10.0347C128.89 9.65625 128.564 9.283 128.296 8.89996C128.046 8.19996 129.246 9.24996 129.396 9.39996C129.602 9.63247 129.824 9.87165 130.052 10.1176L130.052 10.1178C131.589 11.7759 133.412 13.7423 132.846 16.05C132.296 17.4 130.896 18.05 129.496 18.05C128.796 18.05 128.046 17.85 127.446 17.55ZM124.901 3.41504C124.005 6.28948 124.651 6.97173 127.479 7.56703L127.574 7.53575C127.622 7.52011 127.669 7.50449 127.653 7.457C127.377 6.14531 127.825 4.85166 128.251 3.61892L128.268 3.56961C128.319 3.34636 128.43 3.11116 128.544 2.87049L128.544 2.87043C128.721 2.49796 128.903 2.11237 128.876 1.73768C128.741 1.556 128.548 1.4471 128.352 1.33566C128.274 1.29152 128.195 1.24697 128.119 1.19734C127.488 0.878816 126.856 0.5603 126.161 0.526149C125.701 1.00462 125.458 1.76251 125.226 2.48724C125.122 2.81262 125.02 3.13132 124.901 3.41504ZM132.045 20.05C132.445 19.1 133.595 16.4 134.695 18.1C134.745 18.15 134.945 18.4 134.845 18.45C133.195 19.55 132.395 22.2 132.995 24.1C134.595 25.2 137.195 24.15 138.445 22.8C139.774 21.428 139.082 19.8723 138.447 18.448L138.447 18.4468L138.445 18.4436C138.341 18.2083 138.238 17.9766 138.145 17.75C142.145 20.6 140.845 25.8 135.695 25.85C132.895 25.75 130.745 22.7 132.045 20.05ZM137.929 8.72552C136.054 10.7494 132.778 14.287 136.695 16.0499H136.795C136.895 16.0499 136.845 15.9499 136.795 15.8499C136.567 14.0259 137.928 12.6351 139.187 11.3482C139.584 10.9419 139.971 10.5459 140.295 10.1499C140.395 9.74994 138.345 7.69992 138.045 8.59992L137.929 8.72552ZM99.8455 35.6C98.3589 34.8401 98.2038 34.1676 97.9956 33.2651C97.8887 32.8017 97.7679 32.2776 97.4456 31.65C95.5956 31.25 91.6455 31.6 90.5455 33.25C90.1064 33.4097 89.4123 32.8681 88.8958 32.4652C88.7654 32.3634 88.6463 32.2705 88.5455 32.2C86.8664 31.0655 89.3062 30.3428 90.4816 29.9947C90.6012 29.9593 90.7078 29.9277 90.7955 29.9C94.0455 29 97.6956 30.1 99.6956 32.85C103.246 30.2 106.746 29.35 110.396 32.75C113.346 30.65 117.396 28.25 120.896 30.6C121.176 30.7 121.44 30.928 121.704 31.156C122.1 31.498 122.496 31.84 122.946 31.75C123.706 31.4211 124.435 31.0395 125.148 30.6662C127.903 29.2235 130.418 27.9063 133.596 30.25C134.256 30.1 134.754 29.626 135.252 29.152C135.584 28.836 135.916 28.52 136.296 28.3C138.096 27.15 140.446 27.5 142.146 28.65C142.362 28.7584 142.553 28.4488 142.699 28.2122L142.699 28.212L142.699 28.2119C142.755 28.1213 142.804 28.0415 142.846 28C144.146 25.45 147.446 25.5 149.696 25.55C148.446 24 149.296 21.9 150.896 21.05C151.096 20.85 151.446 20.65 151.696 20.9C152.446 21.3 153.296 21.85 153.646 22.65C151.896 23.9 150.896 25.65 152.446 27.55C152.546 27.8 152.096 27.75 151.696 27.7C151.496 27.65 151.296 27.6 151.246 27.65C147.446 27.5 146.896 28.1 144.796 30.9C144.332 31.0071 143.919 30.7066 143.52 30.4167C143.36 30.3004 143.203 30.1859 143.046 30.1C141.596 29.35 139.696 29.65 138.496 30.65C136.372 32.8655 135.698 32.4393 134.702 31.81C134.619 31.7576 134.534 31.7038 134.446 31.65C133.846 31.25 133.096 30.9 131.946 30.95C130.696 30.95 129.446 31.6 128.296 32.3C126.546 33.35 124.846 34.35 123.196 33.1C122.596 32.75 122.046 32.25 121.546 31.75C118.596 30.85 115.696 32.6 113.396 34.3C112.196 35.55 110.746 34.2 109.796 33.3C108.246 31.2 104.746 32.75 103.046 34C102.771 34.225 102.508 34.45 102.246 34.6749C101.983 34.8999 101.721 35.125 101.446 35.35C101.196 35.65 100.846 35.9 100.496 35.9C100.262 35.9 100.046 35.8 99.8455 35.6ZM86.2595 27.6674C86.119 27.7958 85.98 27.9229 85.8454 28.05C86.2454 28.85 87.1954 29.4 87.9954 29.75C89.3954 28.85 90.8954 26.95 90.4954 25.1C90.1954 23.85 89.1454 22.9 88.1454 22.1C88.0454 22.0666 88.0454 22.0166 88.1454 21.95C88.9454 21.15 90.1454 19.75 89.1454 18.65C87.8954 17.25 86.0454 16.6 84.2454 16.9C84.2186 16.9134 84.1918 16.9232 84.1669 16.9323C84.099 16.9572 84.0454 16.9768 84.0454 17.05C84.5454 17.7 85.3454 18.4 86.1454 18.5C86.428 18.3789 86.841 18.3881 87.2002 18.3962C87.2858 18.3981 87.3684 18.4 87.4454 18.4C87.2987 19.1335 86.7754 19.6518 86.27 20.1523L86.27 20.1523L86.2699 20.1523L86.2699 20.1524C86.0864 20.3341 85.9053 20.5135 85.7454 20.7C85.7454 20.9158 85.9318 21.0944 86.0792 21.2357C86.1026 21.258 86.1249 21.2795 86.1454 21.3C86.3335 21.4478 86.5207 21.5865 86.7023 21.7211C87.8721 22.5883 88.8081 23.2821 88.2454 25.1C87.9052 26.1631 87.0587 26.9368 86.2595 27.6674ZM107.196 43.5001C105.496 42.9501 103.946 41.85 102.796 40.45C102.283 40.6529 101.757 40.9059 101.218 41.1652C99.2311 42.1205 97.0656 43.1618 94.7455 42.1C93.2955 41.5 91.9455 40.3 91.1455 39.15C87.7456 40.8 83.6455 39.9 82.0455 36.4C76.8366 34.2731 77.5441 32.4476 78.9336 28.8625C79.1446 28.318 79.3713 27.7329 79.5955 27.1C79.5955 27.046 79.6101 26.9775 79.6255 26.9051L79.6255 26.905C79.6671 26.7095 79.7145 26.4865 79.4955 26.45C77.2955 25.45 74.6455 23.4 76.4455 20.8C76.532 20.679 76.6409 20.5041 76.767 20.3016C77.3704 19.3326 78.3685 17.7297 79.1955 18.35C79.2669 18.3954 79.3449 18.4433 79.4271 18.4938C79.9785 18.8322 80.715 19.2843 80.8455 19.85C79.4955 20.9 78.1455 22.7001 78.0455 24.5001C78.0551 24.5385 78.0629 24.5807 78.0709 24.6245L78.071 24.6245L78.071 24.6246C78.1048 24.8082 78.1436 25.0193 78.3455 25.1C80.6455 26.1 82.7456 27.3 81.1455 30.05C81.0899 30.2356 80.986 30.5054 80.8634 30.8242C80.3249 32.2235 79.4238 34.565 80.6455 34.85C82.3955 35.3 83.8955 36.6 84.5955 38.15C86.3922 38.359 88.0841 37.6251 89.7296 36.9115L89.73 36.9113C90.0535 36.771 90.3752 36.6315 90.6955 36.5001C91.3346 36.3802 91.878 36.8348 92.3766 37.2519L92.3767 37.2519C92.5022 37.3569 92.6249 37.4595 92.7455 37.55C93.398 37.9356 93.382 38.5674 93.3653 39.2264C93.3538 39.6784 93.3421 40.1432 93.5455 40.55C95.7455 40.95 97.8455 39.8 99.6955 38.7C99.9174 38.6147 100.139 38.4711 100.365 38.3249C100.801 38.0429 101.252 37.7512 101.746 37.85C102.796 38.3 103.896 39 104.345 40.05C104.38 40.1662 104.41 40.2877 104.439 40.4102C104.538 40.8153 104.638 41.2313 104.946 41.5001C107.196 42.3001 109.496 41.5001 111.546 40.7501C111.685 40.6958 111.823 40.6416 111.96 40.5879C113.59 39.9485 115.027 39.3849 115.996 39.8L116.195 39.9243C117.54 40.7627 118.529 41.3791 120.246 40.95C122.539 40.5941 124.458 39.2683 126.347 37.9626L126.347 37.9626L126.348 37.9625L126.348 37.9625L126.348 37.9624L126.348 37.9624L126.348 37.9623L126.348 37.9623L126.348 37.9623L126.348 37.9622L126.348 37.9622L126.348 37.9621L126.348 37.9621L126.348 37.962L126.348 37.962L126.348 37.9619L126.348 37.9619L126.349 37.9618L126.349 37.9618L126.349 37.9618L126.349 37.9617L126.349 37.9617L126.349 37.9616L126.349 37.9616L126.349 37.9615L126.349 37.9615C126.848 37.6168 127.344 37.2736 127.846 36.95C128.796 37.25 129.695 38 130.346 38.8C132.493 38.6978 134.362 37.6658 136.221 36.6391L136.221 36.639C137.089 36.1598 137.955 35.6819 138.846 35.3C139.146 35.2 139.446 35.3 139.696 35.45C141.446 36.5 143.696 36.05 145.496 35.3C146.878 34.7948 148.12 33.9924 149.355 33.194C150.443 32.4913 151.525 31.7916 152.696 31.3C154.846 31.85 157.246 30.9 157.696 28.55C157.796 28.2 157.796 27.8501 157.646 27.5001C157.657 27.3337 157.678 27.1701 157.698 27.0087L157.698 27.0084L157.698 27.008C157.762 26.4906 157.824 25.9953 157.595 25.5001C156.796 24.0501 158.395 25.2 158.845 25.6C159.995 26.35 160.446 27.8 160.146 29.1C161.046 32.05 157.896 34.15 155.196 33.4C154.632 33.7503 154.057 34.1307 153.47 34.5188L153.469 34.52L153.467 34.5211L153.466 34.5214C150.202 36.6813 146.578 39.0787 142.595 37.85C142.436 37.8301 142.277 37.7386 142.114 37.6454C141.869 37.5047 141.616 37.3598 141.345 37.45C140.696 37.7999 140.046 38.1997 139.396 38.5995L139.396 38.6C139.22 38.6895 139.041 38.7816 138.86 38.8751L138.86 38.8752L138.859 38.8753C136.303 40.1928 133.203 41.7906 130.496 40.2501C130.323 40.2008 130.151 40.0668 129.985 39.9375C129.813 39.804 129.648 39.6754 129.496 39.65C129.462 39.65 129.429 39.6945 129.395 39.7389L129.385 39.753C129.372 39.7704 129.359 39.7869 129.346 39.8C126.846 41.75 123.646 43.6501 120.296 43.0001C119.632 42.9005 119.034 42.5364 118.458 42.1859L118.458 42.1859C118.167 42.0084 117.881 41.8345 117.596 41.7C116.85 41.925 116.105 42.1936 115.356 42.4633L115.356 42.4634L115.356 42.4634L115.356 42.4634L115.356 42.4634L115.356 42.4635L115.356 42.4635L115.356 42.4635L115.356 42.4635L115.356 42.4635L115.356 42.4636L115.355 42.4636L115.355 42.4636L115.355 42.4636L115.355 42.4637L115.355 42.4637L115.355 42.4637L115.355 42.4637L115.355 42.4638L115.355 42.4638L115.355 42.4638L115.355 42.4638L115.355 42.4638L115.355 42.4639L115.355 42.4639L115.354 42.4639C113.442 43.153 111.507 43.85 109.496 43.85C108.746 43.85 107.996 43.7501 107.196 43.5001ZM80.6955 61.75C80.6455 61.8875 80.5955 62.025 80.5455 62.1501C81.0955 63.3501 82.3455 64.3 83.4955 64.85C85.6955 60.7 85.3955 54.9501 84.5955 50.2501C84.4111 49.5331 84.2561 48.7637 84.0974 47.9758L84.0974 47.9756L84.0974 47.9754C83.4813 44.917 82.8092 41.58 80.1456 39.9501C79.4508 39.6258 79.6571 40.031 79.8502 40.4104C79.8655 40.4406 79.8808 40.4706 79.8956 40.5001C82.3456 47.1001 83.3955 54.65 80.8455 61.35C80.7955 61.475 80.7455 61.6125 80.6955 61.75ZM158.095 62.7499C153.795 60.3999 151.995 55.2999 152.745 50.5999C153.095 46.3999 153.745 42.0999 154.945 38.0499C155.195 37.5999 156.195 38.7499 156.345 39.0499C156.345 39.1249 156.308 39.1999 156.27 39.2749C156.233 39.3499 156.195 39.4249 156.195 39.4999C154.995 45.3999 153.945 51.7499 155.245 57.6999C155.303 58.7627 156.499 60.271 157.364 61.3622C158.005 62.1705 158.465 62.7499 158.145 62.7499H158.095ZM80.5455 76.0499C81.6455 77.3999 83.0455 78.5499 84.5455 79.3999C86.1455 80.2999 87.8455 80.5999 89.5455 80.5999C91.8455 80.5999 94.1455 79.9999 96.2955 79.2499C96.2955 78.7793 95.8341 78.3702 95.4421 78.0226C95.3343 77.9271 95.2318 77.8362 95.1455 77.7499C94.3955 77.0499 93.5455 76.3999 92.5455 76.9999C89.4455 77.8999 85.7455 78.7999 82.7455 77.0999C82.5808 76.7842 82.4424 76.4496 82.3036 76.1138C81.9366 75.2265 81.5661 74.3303 80.6955 73.7499L80.6572 73.719C79.6296 72.8867 78.9802 72.3609 77.7455 73.2499C77.0955 73.6499 73.5455 74.7499 73.2955 73.8499C73.1375 72.4013 74.0893 71.0776 74.9672 69.8568C75.7559 68.76 76.4848 67.7464 76.2955 66.7999C75.0032 64.6852 73.2029 64.1716 72.0674 63.8476C70.7867 63.4822 70.3518 63.3581 72.4455 61.4499C74.0455 60.0999 76.4455 59.2499 78.2955 60.4499C78.4455 60.4999 78.5955 60.4999 78.5955 60.3499C76.1955 55.6999 70.1955 55.1999 67.6455 60.0499C66.7955 62.7499 70.6455 64.9499 72.6955 65.9999C72.5004 66.3103 72.288 66.6238 72.0726 66.9418C71.0732 68.4171 70.0076 69.9901 70.2955 71.7999C71.5955 75.5999 76.4955 78.0999 80.1955 76.1499C80.2202 76.1376 80.2509 76.1162 80.2839 76.0931C80.385 76.0226 80.5078 75.9369 80.5455 76.0499ZM127.296 71.65C126.399 71.3396 125.644 70.7911 124.902 70.2509L124.902 70.2508L124.902 70.2507L124.901 70.2507L124.901 70.2506L124.901 70.2505L124.901 70.2505L124.901 70.2504L124.901 70.2503L124.901 70.2503L124.901 70.2502L124.901 70.2501L124.901 70.25L124.901 70.25L124.9 70.2499L124.9 70.2498L124.9 70.2498L124.9 70.2497L124.9 70.2496L124.9 70.2496L124.9 70.2495C124.567 70.0072 124.236 69.7666 123.896 69.55C121.196 68.25 119.545 69.2 118.095 70.2L117.956 70.2962C115.917 71.7087 114.153 72.9305 110.046 67.65C107.896 66.45 105.896 67.45 103.996 68.45L103.769 68.5656L103.754 68.5736L103.748 68.5766C101.098 69.9313 98.7337 71.1403 96.7455 66C93.8955 65.2 90.5455 67.2 89.1455 69.65C89.0455 69.85 88.1955 69.1 88.0955 69C87.6244 68.529 88.2826 67.9266 88.8138 67.4403C89.0156 67.2556 89.1992 67.0877 89.2955 66.95C91.8455 64.3 96.1455 63.5 98.2955 67C98.9583 68.7233 100.012 68.0256 101.49 67.0464L101.49 67.0461L101.492 67.045C101.686 66.9166 101.887 66.7833 102.095 66.65C104.445 65.15 107.896 63.65 112.696 69.4C113.766 69.2573 114.644 68.6506 115.523 68.043C116.493 67.3733 117.463 66.7025 118.696 66.65C120.351 66.3689 121.675 67.2001 122.984 68.022L122.984 68.0221C123.77 68.5158 124.551 69.0061 125.396 69.25C127.199 69.2178 128.732 68.2526 130.263 67.289C131.11 66.7562 131.955 66.2239 132.845 65.85C138.995 62.55 147.796 60.95 152.496 67.4C152.946 67.95 155.296 70.9 153.146 69.6C151.846 68.8 150.796 67.65 150.046 66.35C146.145 64.85 141.746 65.9 137.996 67.4C136.672 67.793 135.383 68.605 134.085 69.4223C132.245 70.581 130.389 71.75 128.396 71.75C128.029 71.75 127.662 71.7167 127.296 71.65ZM102.895 80.75C106.395 80 110.595 79.8 114.045 81.15C114.722 81.412 115.266 81.903 115.809 82.3937C116.51 83.0266 117.21 83.6592 118.195 83.8C119.586 83.7073 120.762 82.9377 121.937 82.1685C123.297 81.2785 124.656 80.389 126.345 80.55C127.56 80.6981 128.616 81.3024 129.671 81.9055L129.671 81.9057C130.396 82.3206 131.121 82.7351 131.895 83C136.695 85.05 141.695 82.1499 145.345 79.1C149.895 83.0499 156.495 78.3 160.295 75.25C162.895 76.85 166.645 75.2 168.195 72.85C171.395 68.5 156.245 60.9 163.295 66.95C163.644 67.2405 164.06 67.4128 164.475 67.5847C164.774 67.7087 165.073 67.8324 165.345 68C166.545 69.9 163.795 71.85 162.195 72.5C160.195 73.4 159.245 73.05 158.595 72.7C158.556 72.6805 158.518 72.661 158.482 72.6417L158.438 72.6188L158.383 72.5899C157.905 72.3379 157.571 72.1619 157.045 72.6L156.643 72.857C153.304 74.9902 149.683 77.3038 145.645 77.4C145.127 77.3711 144.757 76.9933 144.375 76.6018C144.094 76.3142 143.805 76.0193 143.445 75.85C142.799 75.1633 141.566 76.0103 139.903 77.152C139.507 77.4235 139.087 77.7117 138.645 78C136.145 79.6 132.945 81.2 129.395 79.95C128.623 79.6639 127.863 79.251 127.1 78.8365L127.1 78.8365C125.196 77.802 123.273 76.7576 121.095 77.65C120.174 77.935 119.359 78.4701 118.549 79.0021C117.511 79.6833 116.481 80.3596 115.245 80.5C111.345 76.9 106.045 76.6499 100.995 77.35C100.897 77.3922 100.715 77.4106 100.515 77.431C100.004 77.4829 99.3721 77.547 99.6954 78.05C100.445 79.1 101.545 80.5 102.895 80.75ZM167.946 65.15C169.096 64.05 170.396 61.8999 168.396 60.8499C168.192 60.6467 167.955 60.4412 167.708 60.228C166.803 59.4446 165.778 58.5577 165.896 57.3C165.896 57.2367 165.876 57.2335 165.836 57.227C165.812 57.2232 165.782 57.2183 165.746 57.2C164.546 56.65 163.246 56.1 161.946 56C161.246 55.6 160.346 54.95 160.196 54.2C163.046 54.35 168.246 56.4 168.196 59.8C170.796 61.8 173.796 64.85 170.496 67.7C169.446 67.1499 168.346 66.25 167.946 65.15ZM60.6955 87.6499C65.2455 90.9999 70.9455 91.8 76.3955 92.5C87.3455 94.1 98.3955 94.8999 109.446 94.8999C110.979 94.8999 112.529 94.8833 114.095 94.8499C123.795 94.9999 133.496 94.6999 143.196 93.8499C155.496 93.1999 167.896 91.85 179.396 87.25C182.696 86 186.346 84.2499 187.396 80.5499C187.996 78.1999 188.595 75.6 187.845 73.25C186.195 69.35 182.195 67.0499 178.546 65.2999C178.478 65.2701 178.388 65.2257 178.285 65.1756C177.701 64.8896 176.73 64.4141 177.496 65.3499C178.342 66.3237 179.512 66.8672 180.67 67.4056C180.879 67.503 181.089 67.6003 181.296 67.6999C184.695 68.8999 185.895 72.45 185.095 75.75C184.636 82.7202 177.801 84.743 171.861 86.5009L171.861 86.501C170.685 86.8489 169.545 87.1865 168.496 87.5499C159.596 90.1499 150.296 90.9 141.046 91.5C131.745 92.25 122.395 92.65 113.045 92.5C100.495 92.65 87.8955 92.1999 75.4955 90.3499C69.3455 89.6999 51.9955 87.5 60.3955 78.25C62.4955 76.3 64.7955 74.2499 67.2955 72.9499C66.6955 71.6999 65.2455 70.8499 64.0955 70.1999C63.4455 69.7499 62.7955 70.2499 62.2955 70.6499C54.1955 76.5499 51.0955 81.1499 60.6955 87.6499ZM108.295 54.2C106.18 53.6432 104.684 52.7145 103.289 51.8485C100.926 50.3812 98.8529 49.0938 94.5453 50.1C93.975 50.119 93.3902 50.3187 92.8074 50.5178C91.8575 50.8422 90.913 51.1648 90.0453 50.7C88.0522 49.7403 88.7293 49.5981 89.8238 49.3681C90.212 49.2865 90.6526 49.194 91.0453 49.05C93.9953 48.4 97.1954 48.05 99.9454 49.4C101.13 49.8364 102.179 50.5255 103.224 51.2128C103.856 51.6279 104.486 52.0423 105.145 52.4C106.645 53.1 108.295 53.05 109.945 53C111.995 52.9 113.995 52.85 115.645 54.15C116.345 54.5 115.345 54.6 113.845 54.6C111.695 54.6 108.545 54.35 108.295 54.2ZM132.546 54.85C130.346 55.05 128.146 55.7 126.246 56.95C126.796 57.75 127.896 58.2 128.796 58.5C132.496 56.35 136.896 55.95 141.096 56.4L141.401 56.4308C143.304 56.6232 145.245 56.8196 147.096 56.25C147.255 56.1486 147.59 56.0557 147.953 55.9552C148.841 55.709 149.89 55.4183 148.896 54.85C147.141 53.49 146.695 53.6697 145.193 54.2746L145.193 54.2747C144.983 54.3592 144.753 54.452 144.496 54.55C142.527 55.1124 140.559 54.972 138.55 54.8286C138.415 54.819 138.281 54.8094 138.146 54.8C136.296 54.6 134.396 54.45 132.546 54.85ZM131.43 47.1952L131.43 47.1953C133.905 47.8063 136.344 48.4081 138.746 46.95C138.996 46.8 139.346 46.85 139.596 46.95C140.046 47.15 143.046 48.6 141.996 48.95C139.596 50.3 136.996 50.05 134.496 49.2C129.396 48.45 123.696 48.05 118.896 50.05C108.346 46.2 127.596 46.25 130.196 46.9C130.608 46.9924 131.019 47.0939 131.43 47.1952ZM98.4955 107.3C100.396 109.05 102.495 110.7 104.745 112.05C107.745 113.95 110.646 114.95 113.396 114.95C117.496 114.95 121.245 112.8 124.295 108.6C130.045 114.55 138.096 112.45 142.946 106.5L144.045 105.2C144.045 105.15 144.295 105.55 144.295 105.55C148.995 111.7 156.446 113.3 160.696 105.75C161.18 104.975 161.468 104.403 161.661 104.019C161.861 103.62 161.959 103.425 162.068 103.419C162.173 103.413 162.288 103.579 162.514 103.906C162.762 104.266 163.145 104.82 163.795 105.55C169.145 112.1 176.745 109.2 177.845 101.15C177.295 100.25 176.346 99.1 175.245 98.85C175.195 99.0294 175.145 99.2095 175.095 99.3898L175.095 99.39C174.7 100.818 174.3 102.263 173.545 103.55C171.945 106.35 166.996 108.4 164.696 105.4C164.133 104.691 163.848 103.834 163.566 102.986C163.171 101.799 162.782 100.629 161.646 99.9C161.296 99.6 160.545 99 160.345 99.75C159.395 101.5 158.445 103.25 157.245 104.85C154.945 108.1 150.095 109.9 146.795 107.15C146.14 106.595 145.777 105.837 145.418 105.087C145.064 104.35 144.715 103.62 144.095 103.1C142.421 101.323 141.961 102.045 141.231 103.191C140.893 103.722 140.497 104.344 139.896 104.85C136.446 108.7 130.596 111.7 125.646 108.85C125.202 108.522 124.826 108.098 124.448 107.672C123.845 106.992 123.237 106.307 122.345 106C122.015 105.853 121.82 106.137 121.64 106.397C121.575 106.492 121.512 106.583 121.446 106.65C119.146 109.55 115.996 112.15 112.196 112.6C106.859 113.089 102.949 109.96 99.1148 106.891C98.2431 106.193 97.3753 105.498 96.4955 104.85C95.9043 104.407 95.4102 105.08 94.768 105.955C94.1067 106.855 93.2884 107.97 92.0455 108.3C88.9455 109.3 85.3955 107.65 83.2455 105.35C82.9075 104.988 82.5811 104.599 82.2516 104.207C81.2165 102.975 80.1505 101.707 78.5955 101.1C78.1704 100.958 77.921 101.344 77.6873 101.705C77.5911 101.853 77.4976 101.998 77.3955 102.1C76.4455 103.35 75.3955 104.6 73.9955 105.35C71.3455 106.65 67.6955 106.1 65.4955 104.15C64.9579 103.683 64.6279 103.073 64.3012 102.47C63.9291 101.782 63.5612 101.103 62.8955 100.65C62.4955 100.3 60.7955 99.1 61.4955 100.35C64.6455 106.6 75.0955 112.15 80.0455 104.85C80.2718 104.624 80.3936 104.408 80.4819 104.251C80.6665 103.924 80.7042 103.857 81.2455 104.5C85.3455 109 94.5955 115.1 98.4955 107.3ZM56.9456 144.3C53.9381 142.608 53.978 142.286 54.3257 139.472L54.3258 139.471C54.348 139.291 54.3715 139.101 54.3956 138.9C54.7074 135.885 54.8031 132.847 54.8991 129.801C54.9416 128.451 54.9841 127.101 55.0455 125.75C55.7955 115.05 55.7455 104.3 53.2455 93.8C53.2122 93.6667 53.1956 93.5333 53.1956 93.4C53.1956 93.1887 53.4457 93.3346 53.5835 93.415L53.6124 93.4318C53.6252 93.4392 53.6364 93.4454 53.6456 93.45C54.915 94.0303 55.0794 95.2157 55.2457 96.4145C55.3087 96.8685 55.372 97.3243 55.4955 97.75C57.8955 107.55 58.1955 117.6 58.0955 127.6C58.0895 128.268 58.0857 128.937 58.0818 129.608C58.0537 134.508 58.0252 139.462 57.1456 144.3H57.0455H56.9456ZM181.254 137.287C181.874 140.7 182.497 144.132 186.145 145.5H186.245C186.591 145.5 186.404 144.85 186.23 144.242C186.126 143.882 186.027 143.536 186.045 143.35C185.195 139.15 184.345 134.9 184.245 130.6C183.895 118.45 185.745 106.35 188.095 94.45C188.737 93.2087 187.108 92.0774 185.998 91.3069C185.811 91.1773 185.639 91.0579 185.495 90.95C184.516 90.2264 184.407 90.8072 184.273 91.5203C184.249 91.6449 184.225 91.7736 184.195 91.9C183.975 93.1293 183.749 94.3619 183.524 95.5975C181.141 108.635 178.699 122.001 180.845 135.2C180.999 135.883 181.127 136.585 181.254 137.287ZM112.47 159.178L112.468 159.178C94.8379 158.37 71.3395 157.293 59.4954 148.4C59.4775 148.364 59.4467 148.322 59.4145 148.278C59.3571 148.199 59.2954 148.114 59.2954 148.05C59.2954 147.9 59.4954 148 59.5454 148.05C59.8528 148.244 60.1393 148.454 60.4218 148.661C61.0122 149.093 61.5852 149.513 62.2954 149.75C73.1454 154.6 85.1954 155.15 96.8954 155.6C99.0484 155.669 101.204 155.751 103.362 155.833C113.731 156.229 124.14 156.626 134.445 155.55C147.095 153.85 159.595 150.8 171.945 147.4C172.285 147.362 172.631 147.253 172.982 147.143C173.562 146.961 174.154 146.775 174.745 146.9C176.095 147.55 177.445 148.5 178.345 149.75C179.043 150.115 177.114 150.657 175.653 151.068C174.915 151.275 174.296 151.449 174.195 151.55C158.945 156.15 143.195 159.8 127.245 159.8C125.379 159.8 123.495 159.75 121.595 159.65C118.833 159.469 115.753 159.328 112.47 159.178ZM81.6954 165.8C83.0954 167.45 84.8954 168.95 86.9954 169.65C87.8454 169.9 88.5954 170 89.2954 170C91.2874 170 92.979 169.27 94.887 168.447C95.0384 168.382 95.1911 168.316 95.3454 168.25C98.0954 167.15 101.295 166.05 106.445 166.8C106.845 166.4 105.245 165.15 104.645 164.7C102.295 163.1 95.9454 163.9 93.3454 165.05C92.7273 165.264 92.0486 165.565 91.337 165.882L91.3368 165.882C88.8827 166.974 86.0385 168.239 83.9454 166.65C83.3954 164.85 82.9954 163.75 81.2454 162.75C81.213 162.728 81.1795 162.706 81.145 162.682C80.8597 162.489 80.5077 162.25 80.1954 162.25C79.7156 162.463 79.2785 162.762 78.8385 163.062C78.4531 163.325 78.0656 163.59 77.6454 163.8C75.2454 165.2 71.5954 166.35 69.1454 164.7C68.6505 163.893 68.7391 163.017 68.8174 162.244C68.8893 161.532 68.9526 160.907 68.5454 160.5C67.8954 159.8 67.0954 159 66.0954 158.75C62.3454 160.05 58.0954 160.65 54.2954 159.15C53.2954 157.75 54.5454 155.7 55.7454 154.7C55.7454 153.882 54.381 153.022 53.6073 152.534L53.6071 152.534C53.53 152.486 53.4588 152.441 53.3954 152.4C52.6062 152.256 51.7719 152.235 50.9317 152.214H50.9316H50.9315H50.9314H50.9313H50.9312H50.9311H50.9309H50.9308H50.9307H50.9306C49.4293 152.176 47.9096 152.137 46.5954 151.4C44.6954 148 46.4454 143.25 49.1954 140.85C49.5454 140.55 50.0454 140.45 50.3954 140.8C50.7454 141.05 51.3454 141.2 50.8454 140.6C47.1954 135.7 44.2454 140.7 43.0954 144.5C41.6454 149.55 46.7954 153.75 51.3454 154.55C50.3954 156.75 52.2954 158.65 53.8954 159.9C57.2454 162.6 61.9454 162.85 65.9954 161.95C68.5454 168.2 76.4454 169.7 81.6954 165.8ZM122.719 168.885L122.719 168.885C120.215 167.334 118.766 166.435 112.795 166.95C112.762 166.95 112.745 166.967 112.745 167C112.116 166.958 111.593 166.459 111.115 166.004C111.024 165.916 110.934 165.831 110.845 165.75C110.837 165.742 110.827 165.733 110.816 165.722L110.788 165.697C110.637 165.559 110.329 165.28 110.545 165.15C112.095 164.95 113.695 164.85 115.295 164.9C118.174 164.9 120.592 166.465 122.904 167.961L123.195 168.15C125.195 169.35 127.645 169.1 129.695 168.15C131.836 167.24 132.863 166.517 133.512 166.06L133.512 166.06C133.907 165.782 134.162 165.603 134.443 165.54C134.953 165.426 135.55 165.696 137.228 166.457C137.608 166.629 138.043 166.826 138.545 167.05C142.595 168.3 147.395 167.65 150.345 164.4C150.545 164.2 150.795 164.1 151.045 164.2C153.445 165.2 156.145 165.25 158.645 164.65C161.645 163.9 164.945 162.35 165.945 159.2L165.953 159.181L165.959 159.165L165.962 159.155L165.968 159.138C165.981 159.099 165.993 159.059 166.004 159.02L166.004 159.02L166.004 159.02L166.004 159.019C166.062 158.823 166.116 158.638 166.345 158.6C167.057 158.711 167.763 158.851 168.47 158.992L168.47 158.992L168.471 158.992C169.997 159.296 171.523 159.6 173.095 159.6C176.595 159.75 181.045 158.35 181.595 154.5C189.995 155.9 198.145 152.55 195.995 142.7C195.7 141.628 195.076 140.72 194.468 139.835C194.253 139.522 194.041 139.213 193.845 138.9C193.827 138.872 193.803 138.841 193.777 138.807C193.666 138.66 193.523 138.472 193.645 138.35C196.445 139 198.595 142.7 199.595 145.25C201.695 155.05 193.145 158.55 184.845 157.2C183.845 163.95 174.795 162.85 169.945 161.65C168.295 166.25 162.795 168 158.195 167.9C156.795 167.85 155.445 167.6 154.145 167.05C153.995 167 153.945 167.05 153.845 167.15C153.495 167.6 153.095 167.95 152.645 168.3C148.645 171.65 142.545 171.05 138.295 168.55L138.175 168.617C135.603 170.052 132.649 171.7 129.645 171.7C128.879 171.7 128.112 171.583 127.345 171.35C125.228 170.44 123.863 169.595 122.719 168.885L122.719 168.885ZM98.5053 178.944H98.5056H98.5058H98.5061H98.5063H98.5066H98.5069H98.5071H98.5074C107.433 179.227 116.356 179.509 125.295 179.65H126.045C151.845 179.65 177.696 177.7 202.946 172.4C209.446 171.1 215.895 169.7 222.345 168.15C223.253 167.861 224.192 167.598 225.141 167.332C228.791 166.309 232.576 165.249 235.196 162.55C237.046 160.35 236.096 157.3 234.646 155.2C230.596 149.1 223.395 145.95 216.495 144.35C214.748 143.986 213.001 143.754 211.235 143.52L211.233 143.52L211.232 143.52L211.23 143.52L211.229 143.52C210.571 143.433 209.91 143.345 209.245 143.25C209.145 143.9 210.695 145.75 211.345 145.6C225.845 147.05 248.296 157.95 221.146 164.3C201.096 169.05 180.796 173.45 160.196 175.15C139.71 177.138 119.113 176.511 98.5321 175.885H98.5318L98.5195 175.884C95.2943 175.786 92.0694 175.688 88.8455 175.6C81.2304 175.185 73.5728 175.28 65.9118 175.376L65.0556 175.387L63.9955 175.4C53.7955 175.6 43.6455 175.75 33.4455 174.85C23.0455 173.65 11.8955 172.05 2.94551 166.25C1.00763 159.467 28.8782 149.915 36.2968 147.373C36.5346 147.291 36.7514 147.217 36.9455 147.15C36.8955 146.35 36.0455 145.5 35.4455 145C35.2932 144.939 35.1037 145.027 34.9111 145.116C34.7876 145.173 34.6627 145.23 34.5455 145.25C28.4455 147.1 22.4955 149.5 16.5955 151.9C15.8423 152.241 14.9885 152.603 14.0758 152.99L14.0721 152.992L14.0713 152.992C9.2287 155.047 2.73019 157.804 0.795489 161.8C-0.304511 171 18.8455 174.95 25.6955 176.3C40.0113 178.937 54.6425 178.701 69.1783 178.466C72.0053 178.42 74.8287 178.374 77.6455 178.35C84.6048 178.503 91.5544 178.723 98.5029 178.944L98.5053 178.944ZM135.746 197.15C131.846 197 128.296 194.75 125.796 191.85C125.696 191.7 125.546 191.55 125.546 191.55C124.746 192.483 123.862 193.333 122.896 194.1C115.696 199.9 107.046 196.1 101.996 189.95C96.4955 199.05 87.3455 198.2 81.7955 189.75L81.7795 189.728L81.7597 189.701L81.7339 189.664C81.7031 189.62 81.6881 189.599 81.6756 189.6C81.6639 189.601 81.6543 189.623 81.6357 189.664C81.6256 189.687 81.6128 189.715 81.5955 189.75C79.5955 192.75 76.4455 195.15 72.7955 195.55C67.2955 196.25 62.2455 192.65 58.9455 188.55C58.8506 188.502 58.7894 188.387 58.7407 188.296C58.6868 188.194 58.648 188.121 58.5955 188.2C58.0955 189.05 57.5455 189.95 56.8955 190.75C51.5455 197.55 42.3455 192.75 37.7955 187.4C35.3455 200.15 23.3455 194.95 17.8955 187.35C16.5455 191.15 12.3955 193.25 8.99552 190.4C4.74552 187.6 3.3455 182.55 2.5955 177.8C2.5955 177.584 2.45941 176.973 2.30855 176.295C2.04037 175.09 1.72552 173.676 2.04551 173.9C3.29551 174.35 3.5955 175.5 3.8455 176.65C4.02677 177.375 4.19435 178.105 4.36203 178.835C4.74937 180.521 5.13723 182.21 5.69553 183.85C6.34553 185.75 7.14555 187.85 8.64555 189.25C11.8455 190.5 14.3955 187.3 15.3955 184.6C15.4955 182.65 18.5455 185.9 18.8455 186.6C20.1455 188.65 21.5955 190.8 23.8455 191.95C29.0955 194.8 34.0955 191.1 34.9455 185.6C35.0585 185.275 35.0957 184.946 35.127 184.67C35.2064 183.967 35.2476 183.603 36.3955 184.5C37.3817 185.166 38.0837 186.103 38.7894 187.044C39.4075 187.868 40.0284 188.696 40.8455 189.35C43.8455 191.9 48.4955 192.7 51.8455 190.3C53.7955 189.05 55.0455 187 56.0955 185C56.1955 184.7 56.3955 184.45 56.6955 184.65C58.4653 185.375 59.4438 186.892 60.4223 188.408C61.1302 189.505 61.8381 190.602 62.8455 191.4C67.5455 194.7 74.2455 192.9 77.5955 188.5C78.0942 188.001 78.4801 187.367 78.8604 186.742C79.2807 186.052 79.6942 185.372 80.2455 184.9C81.3955 185.3 82.5455 186.25 83.1955 187.25C83.2858 187.566 83.3716 187.9 83.4597 188.243C83.9567 190.18 84.5267 192.4 86.3955 193.25C91.1455 195.2 95.8455 191.65 98.2955 187.8C99.3455 185.75 100.296 186.4 101.746 187.6C102.717 188.294 103.364 189.28 104.014 190.268C104.534 191.061 105.056 191.855 105.746 192.5C111.396 196.3 118.996 193.3 122.646 188.1C122.845 187.888 123.011 187.641 123.167 187.408C123.636 186.71 124.02 186.137 124.996 187C127.19 188.229 127.347 189.321 127.52 190.526C127.643 191.38 127.774 192.292 128.646 193.35C132.046 195 135.995 194.3 139.345 192.85C142.745 191.4 145.646 189.15 148.196 186.55C149.496 184.55 152.346 187.9 152.996 189.2C154.096 190.9 155.396 192.65 157.496 193.05C163.396 194.65 169.446 191.7 174.146 188.35C174.611 188.145 175.437 187.42 176.332 186.635L176.332 186.635L176.333 186.634L176.333 186.634C177.841 185.311 179.544 183.817 180.046 184.35C181.83 185.171 182.494 186.476 183.218 187.901C183.509 188.473 183.809 189.063 184.196 189.65C189.996 192.4 196.896 188.85 200.396 184C200.641 183.754 200.873 183.365 201.109 182.969L201.109 182.968C201.497 182.316 201.898 181.643 202.396 181.55C203.596 182.1 204.695 183 205.345 184.15C206.895 188.2 212.646 186.95 215.646 185.35C217.146 184.5 218.546 183.5 219.746 182.25C220.946 181.05 221.896 179.65 222.796 178.15C222.895 178.017 222.988 177.851 223.082 177.683L223.082 177.683C223.411 177.095 223.757 176.478 224.496 177.1C225.888 177.728 226.505 179.012 227.121 180.293C227.632 181.357 228.142 182.419 229.095 183.1C233.945 185.3 234.996 178.2 234.746 174.8C234.796 174.615 234.756 174.099 234.711 173.516C234.623 172.363 234.514 170.951 235.046 171.35C237.732 172.735 237.705 174.014 237.657 176.341C237.648 176.786 237.638 177.27 237.646 177.8C237.646 188.5 230.945 187.7 225.595 180.45C222.045 187.8 211.996 192.75 205.446 186.1C205.223 185.877 205.046 185.692 204.903 185.541L204.902 185.541C204.562 185.184 204.411 185.025 204.291 185.046C204.195 185.062 204.119 185.193 203.983 185.426C203.844 185.664 203.643 186.009 203.296 186.45C198.096 194.25 186.996 195.95 181.246 187.75C174.996 193.6 165.246 199.55 156.946 194.25C155.096 193.05 153.346 191.55 151.896 189.9C151.795 189.799 151.72 189.696 151.655 189.607C151.464 189.343 151.37 189.213 150.996 189.7C147.046 193.75 141.696 197.15 135.896 197.15H135.746ZM94.6455 228.65C95.1955 229.85 96.4955 230.7 97.6455 231.2H97.9955C103.495 231.2 108.745 229.1 112.945 225.45C115.545 222.4 113.695 217.5 111.695 214.55C108.895 211.4 107.795 206.2 111.095 202.95C111.395 203.2 111.795 203.35 111.595 202.75C109.895 200.2 108.346 201.75 107.396 203.95C106.446 206.05 106.545 208.55 107.745 210.5C110.545 214.35 114.345 221.5 108.495 224.4C105.095 226.6 101.395 228.35 97.2955 228.4C96.9316 228.464 96.531 228.473 96.133 228.483C95.6014 228.495 95.0744 228.507 94.6455 228.65ZM120.145 236.7C117.245 236.45 114.295 236 111.445 235.4C109.995 234.65 108.745 233.55 107.745 232.3C107.645 232.2 106.895 231.25 107.395 231.2C112.745 232.3 118.245 233.35 123.745 232.95C124.437 232.885 125.155 232.851 125.881 232.816C128.515 232.689 131.268 232.557 133.345 230.95C122.379 224.291 124.611 220.366 128.577 213.394C129.584 211.624 130.703 209.657 131.745 207.4C132.595 205.6 133.295 203.4 132.445 201.5C131.776 201.165 131.015 201.013 130.293 200.869L130.293 200.869L130.195 200.85C129.445 200.8 125.945 198.1 126.595 197.5C127.171 197.577 127.717 197.742 128.256 197.905L128.257 197.905L128.257 197.905C128.42 197.954 128.583 198.004 128.745 198.05C130.695 198.65 132.395 199.85 133.895 201.2C136.945 203.7 137.545 207.25 135.695 210.7C135.041 212.114 134.316 213.501 133.59 214.888L133.59 214.889L133.59 214.889L133.59 214.889L133.59 214.89L133.589 214.89C132.597 216.788 131.604 218.686 130.795 220.65L130.767 220.722C129.97 222.764 128.912 225.473 130.345 227.45C131.095 227.95 131.895 228.45 132.695 228.9C132.834 228.996 133.011 229.113 133.215 229.247L133.215 229.247C135.139 230.518 139.453 233.368 136.695 234.95C133.095 236.45 128.695 236.85 124.545 236.85C123.045 236.85 121.545 236.8 120.145 236.7ZM84.9956 141.05C88.0956 142.55 91.4956 143.45 94.9456 143.6C97.4956 143.75 100.046 143.45 102.546 142.95C102.946 142.5 100.696 141.15 100.196 140.9C99.8956 140.75 99.5956 140.75 99.2956 140.8C96.5456 141.25 93.6956 141.45 90.9456 141.15C86.7383 140.737 83.6369 139.27 80.6273 137.846C76.3406 135.818 72.2402 133.878 65.3956 135.2C65.2105 135.2 65.0339 135.217 64.8623 135.233C64.6166 135.257 64.3811 135.279 64.1456 135.25C64.0456 135.2 63.7456 135.1 63.6456 135.15C63.5956 136.15 66.6956 138 67.6956 138.25C68.8389 138.299 69.9821 138.134 71.1254 137.97C72.3321 137.796 73.5388 137.623 74.7456 137.7C77.9355 137.7 80.8281 139.075 83.6476 140.415L83.6477 140.415C84.0986 140.63 84.5476 140.843 84.9956 141.05ZM129.745 129.15C126.548 129.056 123.416 128.365 120.289 127.675C116.766 126.897 113.248 126.12 109.645 126.2C106.995 126.35 104.345 126.9 101.795 127.55C101.545 127.65 101.245 127.75 100.995 127.55C100.545 127.3 100.045 127 99.7954 126.55C101.095 126.15 102.445 125.85 103.795 125.55C108.802 124.238 113.761 125.215 118.721 126.192C120.944 126.63 123.167 127.068 125.395 127.3C126.313 127.465 127.253 127.452 128.19 127.44H128.19C129.242 127.426 130.29 127.412 131.295 127.65C133.987 129.318 132.885 129.261 131.3 129.18H131.3H131.3H131.3C130.795 129.154 130.241 129.126 129.745 129.15ZM143.253 143.961C144.547 144.231 145.842 144.501 147.145 144.7C149.845 145 152.645 145.3 155.245 144.5C156.281 144.21 157.316 143.817 158.323 143.435L158.324 143.435L158.324 143.435C158.533 143.356 158.74 143.277 158.945 143.2C159.445 143.1 158.745 142.5 158.545 142.35C158.486 142.301 158.426 142.252 158.365 142.201C157.865 141.786 157.32 141.334 156.695 141.2L156.345 141.332C154.868 141.887 153.425 142.429 151.895 142.8C148.545 143.45 145.095 142.95 141.745 142.3C137.645 141.3 133.395 141.15 129.195 141.55C128.57 141.6 127.933 141.637 127.295 141.675C126.658 141.712 126.02 141.75 125.395 141.8C125.353 142.014 125.603 142.191 125.801 142.332L125.847 142.365C125.864 142.377 125.88 142.388 125.895 142.4C126.545 143 127.295 143.45 128.195 143.3C129.009 143.26 129.831 143.205 130.654 143.149L130.655 143.149L130.656 143.149L130.656 143.149C131.906 143.065 133.16 142.98 134.395 142.95C137.411 142.742 140.33 143.351 143.253 143.961ZM171.945 124.6C170.476 124.443 169.048 124.147 167.618 123.852C166.323 123.584 165.026 123.316 163.695 123.15C159.945 122.7 156.045 122.9 152.395 123.95C151.577 124.196 150.825 123.536 150.168 122.96C150.022 122.832 149.881 122.709 149.745 122.6C149.218 122.143 149.606 122.081 150.021 122.016C150.197 121.988 150.377 121.959 150.495 121.9C153.845 121.1 157.345 120.95 160.795 121.2C162.604 121.433 164.412 121.786 166.22 122.138C167.512 122.39 168.804 122.642 170.095 122.85C170.445 122.95 172.645 124.5 171.945 124.6ZM78.8982 121.13C80.4999 121.614 82.1049 122.099 83.7455 122.25C87.8244 122.842 91.6319 121.475 95.4457 120.106C97.7561 119.276 100.069 118.446 102.445 118.05C102.55 117.98 102.34 117.766 102.186 117.608C102.118 117.539 102.061 117.48 102.045 117.45C101.545 117 100.945 116.55 100.295 116.3C99.8267 116.237 99.358 116.37 98.8892 116.503C98.608 116.583 98.3267 116.662 98.0455 116.7C96.0758 117.113 94.177 117.787 92.2745 118.462C90.2651 119.175 88.2515 119.889 86.1455 120.3C82.7766 120.982 79.8532 120.219 76.9914 119.471C73.1425 118.466 69.4052 117.49 64.8455 120.1C65.0455 120.8 65.9955 121.3 66.6455 121.6C67.3164 121.504 67.9759 121.225 68.6403 120.943C69.3624 120.637 70.0903 120.328 70.8455 120.25C73.6172 119.534 76.2531 120.33 78.8982 121.13Z" fill="black"/>
</svg>
