<svg width="91" height="116" viewBox="0 0 91 116" fill="none" xmlns="http://www.w3.org/2000/svg">
<path fill-rule="evenodd" clip-rule="evenodd" d="M27.5001 2.25413C27.2501 1.50413 27.7001 0.704132 28.3501 0.354132C29.0471 0.00561651 29.7441 0.606033 30.2758 1.06401L30.2758 1.06402L30.2758 1.06403L30.2758 1.06404L30.276 1.06418L30.2762 1.06432C30.3546 1.13187 30.4294 1.1963 30.5001 1.25413C30.5393 1.29335 30.5823 1.33258 30.6262 1.37255L30.6263 1.37258C30.8062 1.53644 31.0001 1.71298 31.0001 1.95413C31.1501 2.40413 30.75 2.20413 30.55 2.05413C30.35 1.95413 30.05 2.55413 29.95 2.75413C29.7074 3.23932 29.9453 3.26811 30.2639 3.30668C30.405 3.32376 30.5619 3.34276 30.7 3.40414C31.05 3.45414 33.3501 5.05413 32.6001 5.20413C30.6501 4.85413 28.5001 4.05413 27.5001 2.25413ZM54.9499 18.9541C55.7499 17.6541 56.8499 16.6541 58.0499 15.8041C60.3999 14.6541 59.8999 8.10413 58.8999 6.05413C58.4938 5.42644 57.406 5.12595 56.4822 4.87076C56.155 4.78038 55.8484 4.69567 55.6 4.60413C53 4.05413 49.9499 6.55413 50.8999 9.30413C51.187 10.3741 51.9508 11.1035 52.7079 11.8266C53.4013 12.4889 54.0892 13.1458 54.3999 14.0541C54.2999 15.8541 53.5999 17.7541 52.9999 19.3541C52.1499 19.1041 51.1999 18.5041 50.7499 17.7541C50.7977 17.5152 50.8498 17.2705 50.9028 17.0218L50.9028 17.0215C51.293 15.1883 51.7304 13.133 50.85 11.5041C47.55 8.85414 44.2999 4.45413 50.1499 2.45413C52.7389 1.76066 55.3706 3.11904 57.6893 4.31587C57.8783 4.41343 58.0653 4.50992 58.2499 4.60413C61.4499 6.35413 62.6499 8.90413 62.4999 12.4541C62.8098 16.2608 61.9441 16.9718 59.6947 18.8193C59.4032 19.0588 59.0884 19.3173 58.7499 19.6041C58.564 19.7281 58.3951 19.9375 58.2257 20.1475C57.985 20.4458 57.7433 20.7455 57.4499 20.8041C56.5499 20.4041 55.4499 19.8041 54.9499 18.9541ZM51.7 45.6542C46.95 45.3542 41 43.7542 38.8 39.1042C38.8413 38.5261 39.4624 38.3913 39.9872 38.2774C40.0979 38.2534 40.2043 38.2303 40.3 38.2042C43.4 37.4042 46.5501 39.1542 48.5001 41.5042C49.1501 42.3042 49.1001 42.8042 48.0001 42.1542C47.6621 42.0274 47.3688 41.7758 47.0748 41.5236C46.6729 41.1788 46.2699 40.833 45.7501 40.8042C45.0501 40.7542 42.3 40.9042 42.3 41.8042C43.5228 42.4767 44.9448 42.7006 46.3564 42.923C48.4081 43.2461 50.4375 43.5657 51.8 45.2542C51.9501 45.4042 52.0501 45.6542 51.8501 45.6542H51.7ZM0.400024 99.4042C0.750024 98.5542 1.05004 97.7042 1.35004 96.8542C2.44383 94.1324 3.18821 91.3071 3.93212 88.4837C4.65047 85.7572 5.36838 83.0324 6.40002 80.4042C10.8998 70.2638 16.8255 68.679 22.0769 67.2744C25.1115 66.4628 27.921 65.7114 30.1 63.4042C32.8407 59.5073 34.0776 54.8035 35.2872 50.2038L35.2874 50.2032C35.49 49.4325 35.6919 48.6647 35.9 47.9042C36.1455 47.004 36.3743 46.0955 36.6034 45.1855L36.6034 45.1855C36.9343 43.8713 37.266 42.554 37.65 41.2542C38.7 41.3541 40 42.5542 40.55 43.4042C40.4373 43.7949 40.3235 44.1868 40.2093 44.5796L40.2085 44.5824C39.5635 46.8025 38.9096 49.0533 38.4 51.3042C38.0992 52.2726 37.8213 53.271 37.5408 54.279L37.5408 54.279L37.5407 54.2791L37.5407 54.2792L37.5407 54.2793L37.5407 54.2794L37.5406 54.2794L37.5406 54.2795L37.5406 54.2796L37.5406 54.2797L37.5406 54.2798L37.5405 54.2799L37.5405 54.2799L37.5405 54.28L37.5405 54.2801L37.5404 54.2802C36.3294 58.6319 35.0693 63.1596 31.7 66.2042C29.8159 67.5878 27.5851 68.2088 25.3445 68.8325C23.7796 69.2681 22.2098 69.7051 20.75 70.4042C13.55 73.1542 9.40002 80.4042 7.65002 87.6042C7.41108 88.4497 7.18057 89.3155 6.94765 90.1903C5.91335 94.0752 4.83132 98.1394 2.75003 101.404C1.85003 101.004 0.850024 100.304 0.400024 99.4042ZM41.7795 101.277C39.6088 105.299 37.4417 109.315 36.1999 113.754C35.7999 114.504 37.4999 115.604 38.0999 115.904C38.2962 115.904 38.364 115.647 38.4295 115.4C38.4641 115.269 38.498 115.141 38.5499 115.054C39.5499 112.404 40.5499 109.804 41.8999 107.304C42.4817 106.276 43.0808 105.254 43.6805 104.23C45.9671 100.329 48.2635 96.4113 49.6499 92.0542C52.0499 85.8542 50.9499 80.7042 47.5999 75.1042C47.5225 74.9825 47.4443 74.8605 47.3658 74.7382L47.3648 74.7366C46.3791 73.2004 45.3536 71.6023 45.3999 69.7042C45.6923 65.0989 47.5076 60.8143 49.3029 56.5768C49.9636 55.0174 50.6215 53.4644 51.1999 51.9042C51.3999 51.2042 51.5999 50.4542 51.6999 49.7542C51.0999 48.9042 50.1499 48.1041 49.1499 47.7542C48.8417 49.7963 47.9098 51.7791 46.9952 53.7254C46.7229 54.3047 46.4522 54.8807 46.1999 55.4542C45.9059 56.2249 45.5728 57.0233 45.2315 57.8415L45.2314 57.8418C43.4246 62.1726 41.3869 67.0567 43.6999 71.3042C45.3999 73.9542 46.8999 76.7542 47.7499 79.8042C49.2217 84.4156 47.3241 89.2677 45.6463 93.5576L45.5499 93.8042C44.4316 96.363 43.1049 98.8213 41.7795 101.277ZM47.65 34.6041C47.45 35.3041 49.05 36.3541 49.65 36.6541H49.7C49.8 36.6541 49.8 36.6041 49.8 36.5041C49.968 35.776 50.1988 35.0793 50.4308 34.3788L50.4308 34.3788C50.613 33.8286 50.796 33.276 50.95 32.7041C51.1161 31.9567 51.3598 31.2092 51.6023 30.4654L51.6023 30.4653C51.9438 29.4178 52.283 28.3774 52.4 27.3541C51.95 26.6541 51.35 26.1541 50.65 25.7541C50.3592 25.6087 50.3062 25.8861 50.2606 26.1253C50.2434 26.2151 50.2273 26.2995 50.2 26.3541C50.0503 26.8687 49.9024 27.385 49.7542 27.902L49.7541 27.9023L49.754 27.9027L49.7539 27.903L49.7538 27.9033L49.7538 27.9036L49.7537 27.9039L49.7536 27.9043L49.7535 27.9046L49.7534 27.9049L49.7533 27.9052L49.7532 27.9055L49.7531 27.9059C49.1098 30.151 48.4624 32.4106 47.65 34.6041ZM44.75 33.7541C43.65 33.2541 42.25 32.4041 42.35 31.0541C42.05 28.9043 41.6001 26.8045 41.1501 24.7046L41.15 24.7041C41.0202 24.2221 40.8922 23.7353 40.7634 23.2459L40.763 23.2443L40.7626 23.2429L40.7623 23.2416C39.5022 18.4518 38.1735 13.4008 34.5 9.95411C34.15 9.70411 33.05 8.50412 34.2 9.00412C39.7 12.3041 41.85 18.7541 43.25 24.6541C43.9 27.5541 44.45 30.5041 44.9 33.4541C44.95 33.6541 44.95 33.7541 44.8 33.7541H44.75ZM62.9 28.3541C60.1 30.2541 57.8 32.7542 55.55 35.2042C55.3462 35.4717 55.0904 35.7068 54.8547 35.9234C54.1652 36.5572 53.6469 37.0335 55.1 37.7042C56.1215 36.8703 57.0822 35.9234 58.0509 34.9686C59.4055 33.6334 60.7758 32.2828 62.35 31.2042C65.65 28.7542 69.5 27.2542 73.35 25.9542L73.3898 25.9409C73.8115 25.8008 73.9881 25.7422 73.6 25.3541C73.4983 25.2609 73.3922 25.1532 73.2818 25.0412L73.2818 25.0411C72.7413 24.4925 72.0974 23.839 71.35 24.2541C68.4 25.3541 65.5 26.5541 62.9 28.3541ZM38.45 37.7041C37.0131 37.1204 36.0198 35.9318 35.0355 34.7539C34.9238 34.6202 34.8122 34.4867 34.7 34.3541C29.35 30.5041 22.35 29.7541 16.05 31.3541C15 31.7541 14.1 31.3041 13.3 30.5541C13.1738 30.4376 13.04 30.3211 12.9045 30.2031L12.9045 30.203C12.3425 29.7135 11.7515 29.1987 11.55 28.5541C17.25 26.4541 23.8001 26.8541 29.2501 29.6541C32.8501 31.5041 36.3001 33.9541 38.6001 37.3041C38.7501 37.4541 38.75 37.7541 38.55 37.7541C38.5167 37.7541 38.4834 37.7375 38.45 37.7041ZM65.0511 44.2727C65.6444 44.2708 66.2423 44.2689 66.8001 44.4041C69.5614 44.9062 72.0399 46.1799 74.5121 47.4504L74.5122 47.4505C75.4868 47.9513 76.4604 48.4517 77.4501 48.9041C78.2501 47.8041 69.3001 44.1041 68.0001 43.6041C66.1001 42.9041 64.0501 42.6041 62.0001 42.7541C61.4001 42.6541 61.7501 43.0541 61.9501 43.2541C62.7444 44.2801 63.8892 44.2764 65.0511 44.2727ZM0.25 25.5041C0.65 22.0541 3.54999 21.7041 5.64999 24.2041C7.59999 26.3041 5.45 25.1041 4.75 24.0541C2.75 24.1041 1.85 27.3041 3 28.7041C3.0774 28.8125 3.38007 29.0407 3.73736 29.31C4.53405 29.9107 5.6023 30.716 5.04999 30.8541C3.09999 29.7041 0.4 28.0041 0.25 25.5041ZM26.1501 19.7541C26.4501 19.7541 26.7501 19.8041 27.0001 19.9541C27.9001 20.9041 28.9001 21.8041 30.1001 22.2541C31.4001 22.1541 26.3001 17.9541 25.7001 17.8041C25.3001 17.4041 21.3001 15.5541 21.3501 16.5041C22.0501 17.7041 24.6 19.9541 25.9501 19.9041C26.0162 19.8601 26.0143 19.8257 26.0129 19.801C26.0112 19.7698 26.0103 19.7541 26.1501 19.7541ZM77.9 19.0042C76.25 21.6542 78.75 24.1542 81.1 25.1542H81.15C81.55 25.1542 81 24.6042 80.85 24.5042C79.4 23.5042 80.3 21.1042 81.25 20.0542C81.05 19.2042 79.65 18.4042 78.85 18.0042C78.462 17.8278 78.273 18.2487 78.1076 18.6173C78.0386 18.7711 77.9736 18.9158 77.9 19.0042ZM90.75 56.8042C87.85 56.5542 81.7 53.7542 83.4 50.1042C83.65 49.4542 84.1001 48.7042 84.8501 48.5042C86.6001 48.8541 88.1 50.2542 89.2 51.5542C89.7 52.3042 88.75 52.0042 88.4 51.7542C87.65 52.2042 87.15 53.1042 87 53.9542C87.55 53.8542 88.85 54.6042 89.8 55.3542C90.75 56.0542 91.35 56.8042 90.75 56.8042ZM35.3001 65.5041C34.9501 65.4041 35.0001 65.6541 35.1501 65.8041C36.2501 67.3041 38.0501 68.1041 39.8501 68.4541C40.5001 68.4041 39.0501 67.3541 38.8501 67.2541C38.4362 66.8747 37.9033 66.757 37.3663 66.6385C37.1249 66.5851 36.8827 66.5317 36.6501 66.4541C36.2501 66.0541 35.8001 65.7541 35.3001 65.5041ZM36.95 103.754C34.2 103.054 30.9 101.654 30.5 98.4541C30.4824 98.3453 30.4651 98.2327 30.4474 98.1174L30.4474 98.1174C30.2128 96.5918 29.906 94.5971 28 94.5041C26.613 94.2777 25.3382 94.7883 24.0576 95.3013C23.0761 95.6945 22.0913 96.089 21.05 96.1541C17.7 96.3041 14.35 95.4541 11.25 94.2541C11.1545 94.2011 10.9037 94.0918 10.5765 93.9491L10.5763 93.949C9.36099 93.4193 7.09097 92.4298 7.79999 92.1541C8.67095 92.1956 9.4731 92.6155 10.235 93.0143C10.3916 93.0963 10.5465 93.1774 10.7 93.2541C12.2412 94.0247 13.988 94.3022 15.6794 94.5708L15.6795 94.5709L15.6847 94.5717C15.8572 94.5991 16.029 94.6264 16.2 94.6541C18.05 95.0041 19.9 94.5041 21.65 93.9041L21.8214 93.8468L21.8215 93.8468C22.969 93.4628 24.1618 93.0636 25.4 93.2541C27.55 93.6541 30.3 94.2041 31.55 96.2041C31.9682 96.9314 32.2012 97.7909 32.4343 98.6504C32.8421 100.155 33.25 101.659 34.65 102.454C34.7595 102.488 34.87 102.522 34.9807 102.555C35.679 102.765 36.389 102.979 36.95 103.454C36.9651 103.469 36.9894 103.489 37.016 103.511C37.0771 103.56 37.15 103.619 37.15 103.654C37.15 103.754 37.1 103.754 37 103.754H36.95ZM28.7 78.0541C27.7 80.7041 30.15 82.9541 32.25 84.1541C32.95 84.5541 33.65 84.7041 34.25 84.7041C36.9 84.7041 39 81.7041 39.3 79.0541C39.4 78.8541 39.6 78.8541 39.75 78.8541H40.4C41.25 78.9041 42.05 78.9041 42.85 78.6041C43.6 78.3541 41.5 76.9041 41.15 76.7541C40.91 76.6941 40.67 76.7961 40.43 76.8981C40.27 76.9661 40.11 77.0341 39.95 77.0541C39.6563 77.152 39.3319 77.1809 39.0069 77.2099C38.5019 77.2548 37.9955 77.2999 37.6 77.6041C37 80.3541 34.4 83.5041 31.35 82.6041C30.5899 80.7533 31.5993 79.2302 32.602 77.7171C33.1163 76.9411 33.6288 76.1677 33.9 75.3541C33.9409 74.1696 32.8139 73.3521 31.8546 72.6563C31.6397 72.5004 31.4331 72.3506 31.25 72.2041C31.1116 72.0976 30.9142 71.9208 30.682 71.7128C29.8238 70.9443 28.4903 69.75 27.9 70.1041C28.4375 71.3135 29.6571 72.2018 30.7321 72.9848C30.8571 73.0759 30.9802 73.1656 31.1 73.2541C30.8926 74.1618 30.3891 74.9484 29.8828 75.7396C29.413 76.4738 28.9407 77.2118 28.7 78.0541Z" fill="black"/>
</svg>
