<svg width="142" height="105" viewBox="0 0 142 105" fill="none" xmlns="http://www.w3.org/2000/svg">
<path fill-rule="evenodd" clip-rule="evenodd" d="M69.8054 6.27611C69.9217 7.38054 70.7936 8.25242 71.7818 8.71744C72.1887 8.71744 71.3749 6.04358 71.2005 5.63669C70.6774 3.71848 69.5148 1.97467 67.7128 0.92837C66.0271 -0.292309 64.1671 1.10275 63.702 2.84657C64.0508 3.5441 64.6902 4.06727 65.3296 4.53229C65.4013 4.56812 65.473 4.62053 65.5463 4.67419C65.711 4.79458 65.8842 4.92125 66.0853 4.88104C66.1717 4.77098 66.2582 4.65666 66.3458 4.54083C66.9061 3.80019 67.5134 2.99737 68.4685 2.84657C68.5848 2.84657 68.5848 2.84658 68.5848 2.96283C69.0885 4.04788 69.4954 5.15231 69.8054 6.27611ZM76.7229 13.0191C75.5603 12.4959 74.2815 11.5659 73.7583 10.3452C73.2933 7.43882 74.2234 3.71865 77.3623 2.78861C79.2223 2.43985 80.8499 4.06741 81.8381 5.46247C83.175 7.26442 82.1287 9.53141 80.8499 11.1009C80.8346 11.1162 80.8153 11.1436 80.7919 11.1767L80.7918 11.1768C80.7264 11.2695 80.6295 11.4068 80.5011 11.4496C80.2429 11.3758 80.0081 11.2084 79.767 11.0365C79.6282 10.9375 79.4873 10.837 79.3386 10.7521C79.2467 10.6602 79.146 10.5684 79.0431 10.4745C78.69 10.1526 78.3111 9.80708 78.176 9.35702C78.2705 9.22478 78.3697 9.08913 78.4712 8.95051L78.4729 8.94818L78.4735 8.94731C79.3078 7.80706 80.2887 6.46638 79.978 5.17183C77.8854 6.16 76.8391 8.71761 76.8391 10.9846C76.8779 11.6046 76.9166 12.244 76.9554 12.9028C76.9554 13.0772 76.8391 13.0772 76.7229 13.0191ZM66.8412 19.1225C66.3283 18.9867 65.6206 18.8177 64.7773 18.6163C59.122 17.2653 47.3684 14.4577 47.3684 10.4615C49.9025 7.83351 53.5733 8.61534 56.8818 9.32003C57.6714 9.48821 58.4404 9.65199 59.1683 9.76398C59.4364 9.77931 59.7046 9.79059 59.9717 9.80182L59.9718 9.80182L59.9719 9.80183L59.9719 9.80183L59.972 9.80183L59.9721 9.80184L59.9721 9.80184L59.9722 9.80184L59.9723 9.80184L59.9724 9.80185L59.9724 9.80185L59.9725 9.80185L59.9726 9.80186L59.9726 9.80186L59.9727 9.80186L59.9728 9.80186L59.9728 9.80187L59.9729 9.80187L59.973 9.80187L59.973 9.80188L59.9731 9.80188L59.9732 9.80188L59.9732 9.80188L59.9733 9.80189C61.733 9.87588 63.4522 9.94818 64.8648 11.159C68.2909 13.2229 63.1871 12.2677 59.524 11.582C58.0286 11.3022 56.7733 11.0672 56.4363 11.1009C54.5762 10.9847 52.4255 11.3916 50.9723 12.6704C50.4421 13.5677 53.3465 14.322 55.4678 14.8728C56.3695 15.107 57.1297 15.3044 57.4245 15.4605C60.0402 16.2161 62.7141 16.9137 65.388 17.3206C66.783 17.7275 68.0618 17.1462 68.8175 15.9836C69.515 16.0999 72.247 17.3205 71.8983 18.1343C71.1537 19.8717 69.2222 19.532 67.6242 19.2509C67.3509 19.2028 67.0873 19.1565 66.8412 19.1225ZM48.24 60.3348C42.776 59.3466 36.7308 54.8126 37.2539 48.7092C37.6638 42.88 39.7149 37.4075 41.7581 31.9565L41.7581 31.9563C42.3228 30.4498 42.8868 28.9449 43.4154 27.4345C43.6482 26.7245 43.9044 26.0098 44.1623 25.2899C45.1925 22.4151 46.252 19.4585 45.9731 16.3903C45.8568 15.809 48.24 17.3203 48.1238 17.7272C48.9088 21.9854 46.9386 28.0351 44.9067 34.2743C41.9737 43.2805 38.9119 52.6818 43.8223 57.6609C47.479 58.0828 50.0014 54.875 52.2128 52.0627C52.7434 51.388 53.256 50.736 53.7622 50.1624C58.0636 44.8147 60.2143 38.3044 61.9581 31.736C62.7185 29.1418 63.5821 26.582 64.443 24.0302L64.4431 24.0301L64.4431 24.0299L64.4442 24.0268C64.7017 23.2634 64.9591 22.5007 65.2133 21.738C65.562 20.6917 69.1078 23.3075 69.3985 23.9469C68.9254 25.5785 68.4748 27.2325 68.0221 28.894C65.7493 37.2366 63.4248 45.769 57.9473 52.6038C57.403 53.2073 56.861 53.8782 56.3058 54.5657L56.3058 54.5657C54.1337 57.2549 51.7584 60.1959 48.24 60.3348ZM18.8274 86.9573C19.5831 88.643 21.3851 89.9218 22.9545 90.6775C23.3291 90.6485 23.6987 90.608 24.0632 90.5565C27.6368 94.5528 31.9581 97.838 36.9276 99.874C37.6085 100.651 38.4809 101.261 39.5793 101.664C40.0092 101.735 39.8649 101.299 39.7046 100.858C39.8945 100.915 40.0852 100.971 40.2768 101.024C40.4512 101.024 40.6255 101.024 40.5674 100.792C40.2439 100.198 39.8359 99.7023 39.3675 99.2805C38.6032 94.2849 39.7731 89.1783 40.9014 84.2533C41.0239 83.7186 41.1459 83.186 41.2649 82.6559C42.0084 79.8912 42.6775 77.0802 43.3392 74.2673C45.0208 74.5942 46.7737 74.6442 48.4155 74.6911L48.4729 74.6927C51.0887 74.6927 53.7625 74.6927 56.262 73.8208C60.6797 72.542 60.2728 69.0544 57.1921 66.4386C55.3901 64.8111 53.1231 63.1254 50.5655 63.5323C48.6657 63.8902 46.9353 64.7307 45.3746 65.8438C45.7309 64.46 46.1021 63.0869 46.4964 61.7299C46.4426 60.7079 44.1489 58.8895 42.9317 58.4395C42.2932 57.9451 41.6584 57.5857 41.3809 57.8354C41.3341 59.4759 40.8715 61.0786 40.4198 62.6435C40.3113 63.0193 40.2035 63.393 40.1021 63.7644C39.987 64.1773 39.8668 64.5918 39.7415 65.0075C39.5202 64.5816 39.2739 64.1663 38.9977 63.7646C36.7307 59.7538 25.2214 49.9302 25.6865 60.3931C26.4033 64.981 30.6957 69.726 35.3977 71.3655C34.3379 71.8353 33.2027 72.1339 32.0226 72.1929C28.1177 72.7624 25.8922 70.6562 23.5335 68.4239C22.5215 67.4662 21.485 66.4853 20.2809 65.6826C18.7114 64.4619 16.6188 64.52 15.0494 65.7407C10.8993 68.9817 10.6461 68.7558 9.02686 67.3107C8.26475 66.6306 7.20002 65.6804 5.28395 64.6944C3.94702 64.055 2.49383 63.8225 1.04064 63.6481C1.01784 63.6481 0.992817 63.6459 0.967307 63.6436H0.967303H0.967299C0.8627 63.6343 0.75 63.6242 0.75 63.7644C1.18349 65.0649 2.37469 66.0622 3.42889 66.9449L3.43122 66.9469C3.5071 67.0104 3.58226 67.0733 3.65638 67.1357C4.29774 67.5989 5.07014 67.7564 5.8531 67.916C6.34744 68.0167 6.84599 68.1183 7.31842 68.2983C8.53904 68.7052 9.52718 69.4608 10.5153 70.2164L10.5154 70.2165C10.7898 70.4074 11.0789 70.6424 11.3801 70.8872L11.3803 70.8873C12.5468 71.8355 13.896 72.932 15.2819 72.1929C15.8664 71.8032 16.4463 71.2503 17.0407 70.6836L17.0408 70.6836C18.5745 69.2214 20.2045 67.6673 22.2572 68.5889C23.1043 69.205 23.8833 69.923 24.6644 70.643L24.6645 70.6431L24.6645 70.6431L24.6646 70.6431C25.6523 71.5535 26.6433 72.467 27.7793 73.181C28.8633 73.9143 30.0522 74.4378 31.2981 74.7034C29.5696 75.8052 27.7512 76.326 25.2217 76.5525C22.7159 77.0312 20.8101 75.9824 19.0817 75.0312C17.2416 74.0186 15.6025 73.1166 13.6543 74.2855C13.2007 74.5375 12.7498 74.8196 12.2963 75.1033C10.6578 76.1282 8.98541 77.1744 7.02775 76.9013C6.95943 76.8888 6.88979 76.8771 6.81946 76.8652C6.23152 76.7659 5.59542 76.6586 5.28392 76.0875C5.19151 75.9756 5.0987 75.8621 5.00517 75.7478L5.00356 75.7458C3.97973 74.4938 2.87021 73.137 1.27312 72.6579C0.57559 72.8323 4.12137 76.3781 4.58639 76.7269C10.0037 81.585 13.0254 79.8444 15.6352 78.3411C17.3658 77.3442 18.9153 76.4517 20.8621 77.6569C23.1291 79.1101 25.5704 80.5051 28.3606 80.5633C29.5624 80.5795 30.7006 80.4279 31.7716 80.1261C29.7764 82.2914 27.4206 84.08 24.6402 85.2716C23.6742 85.6641 22.6299 85.9154 21.5967 86.164C20.6403 86.3942 19.6936 86.622 18.8274 86.9573ZM35.491 97.2859C34.2875 93.685 34.94 88.5743 36.0822 83.5558C33.1733 86.9386 29.4866 89.511 25.0057 90.397C27.4556 93.0954 30.007 95.7321 33.5921 96.7227C33.7035 96.7549 33.8155 96.7871 33.9279 96.8194C34.4436 96.9675 34.9693 97.1185 35.491 97.2859ZM81.0242 24.1214C77.8272 24.0632 73.7001 23.0751 72.5376 19.7037C72.806 18.8601 73.8586 18.4212 74.861 18.0033C75.3781 17.7877 75.8819 17.5776 76.2577 17.3205C76.5488 17.204 76.873 17.066 77.2216 16.9176C80.0054 15.7324 84.3442 13.8851 85.7906 17.088C81.9542 17.2623 78.1178 19.1805 75.0952 21.5056C82.8261 23.1913 91.6034 20.8081 97.5324 15.6348C96.7541 15.5119 95.9108 15.6199 95.0712 15.7275C93.5281 15.9253 91.9976 16.1214 90.9059 14.8791C90.7952 14.7315 90.6435 14.5839 90.488 14.4326C90.1536 14.1072 89.8014 13.7646 89.8014 13.3678C90.2939 13.3388 90.804 13.2938 91.3238 13.2479C93.9328 13.0177 96.7851 12.7661 98.8694 14.4141C98.9751 14.5117 99.1003 14.6185 99.2344 14.7329C100.059 15.436 101.222 16.4288 100.323 17.3786C98.8694 18.8318 97.0674 19.8781 95.2654 20.75C90.9059 23.017 85.965 24.1795 81.0242 24.1214ZM84.4537 56.6727C87.7508 61.1844 92.4292 65.7538 98.2599 66.3712C98.4275 66.7423 98.5858 67.1135 98.695 67.4846C99.0489 68.4262 99.396 69.3721 99.7339 70.3222C100.06 72.2592 100.555 74.1784 101.091 76.0579C99.5426 74.4612 97.7298 73.1054 95.8466 71.9607C92.5914 69.9263 87.8831 67.8918 84.5117 70.6819C81.7631 73.316 87.3633 77.4732 89.4756 79.0411L89.5688 79.1104C91.1964 80.2148 92.9983 80.9705 94.9747 81.203C97.245 81.4498 99.6829 81.4451 101.826 80.5485C101.917 81.1888 101.957 81.8311 101.892 82.4815C101.194 87.7711 94.2772 88.0618 90.3826 86.2598C89.3334 85.7562 89.3145 86.7071 89.2975 87.5591C89.291 87.8871 89.2847 88.2004 89.2201 88.4105C88.9295 90.5612 86.9531 91.0844 85.1512 90.3868C82.0275 89.2806 80.9802 90.0685 79.7867 90.9664C78.8481 91.6726 77.819 92.4469 75.6182 92.4213C75.4859 92.7742 75.8892 93.261 76.193 93.6277L76.193 93.6277L76.1931 93.6278C76.2896 93.7442 76.376 93.8485 76.432 93.9326C76.5836 94.0842 76.7368 94.2482 76.8932 94.4157L76.8934 94.4159C77.6967 95.2759 78.5872 96.2293 79.8034 96.0834C81.1213 96.303 82.1513 95.6418 83.1859 94.9776C84.0678 94.4115 84.9531 93.8431 86.0231 93.8164C86.6659 93.8164 87.2818 93.9776 87.8967 94.1386C88.5607 94.3124 89.2235 94.4859 89.9176 94.4558C92.1311 94.4558 92.43 92.2221 92.6712 90.4191C92.7024 90.1861 92.7326 89.9603 92.7659 89.7475C92.824 89.6312 92.8821 89.5731 92.9984 89.6312C94.2772 90.2125 95.6722 90.7937 97.0673 90.91C100.826 91.1188 103.293 89.9312 104.293 87.6592C104.481 88.9308 104.632 90.2082 104.74 91.4913C104.915 94.2233 104.973 97.0134 104.74 99.7454C104.951 100.183 105.229 100.589 105.554 100.962C105.378 101.019 105.203 101.078 105.031 101.14C105.787 102.826 107.588 104.105 109.274 104.86C109.91 104.704 110.556 104.556 111.209 104.407C114.434 103.668 117.785 102.9 120.493 100.966C121.365 100.094 122.76 98.0595 122.469 96.8389C121.423 95.4438 119.97 94.0487 118.284 93.5837L118.132 93.6117C115.943 94.0159 113.126 94.5362 111.309 93.0025C109.309 90.3026 108.083 87.1728 106.928 84.0568C107.606 84.6731 108.348 85.22 109.158 85.6785C112.356 87.6403 114.616 85.6283 116.879 83.614C117.7 82.8829 118.521 82.1514 119.388 81.6096C119.679 81.4352 119.853 81.5515 120.086 81.784C122.353 83.8766 125.201 86.4923 128.514 85.7367C129.909 85.3879 131.014 84.3997 131.944 83.3534C132.05 83.2474 132.151 83.1251 132.253 83.0015C132.486 82.7187 132.725 82.4285 133.048 82.3071C133.366 82.2674 133.657 82.4992 133.939 82.7242C134.07 82.8284 134.198 82.9311 134.327 83.0047C136.594 84.6904 139.559 83.3534 140.779 81.0864L140.78 81.0856C141.07 80.5627 141.361 80.0399 141.593 79.517C141.593 79.3862 141.495 79.2227 141.421 79.1001C141.397 79.0593 141.375 79.0229 141.361 78.9939C140.605 77.8894 139.5 76.5525 138.222 76.1456C138.107 76.1456 138.017 76.2965 137.936 76.4328C137.894 76.5038 137.855 76.5709 137.815 76.6107C136.827 78.4126 135.257 80.8539 132.932 80.5052C132.538 80.4015 132.159 80.1572 131.778 79.9122C131.093 79.4706 130.404 79.0268 129.619 79.4007C129.463 79.5213 129.308 79.6417 129.155 79.761L129.152 79.764C126.799 81.5995 124.758 83.1916 121.539 81.6096C120.946 81.2608 120.458 80.7654 119.973 80.2742L119.973 80.2742L119.973 80.2741L119.973 80.2741L119.973 80.274L119.973 80.274L119.973 80.2739C119.651 79.9468 119.33 79.6215 118.981 79.3426C117.528 78.1801 116.133 77.25 114.564 78.8195C113.992 79.226 113.427 79.7379 112.851 80.2601C111.204 81.7538 109.464 83.3321 107.182 82.7722C106.718 82.2422 106.348 81.599 106.031 80.9286C106 80.5952 105.957 80.2638 105.904 79.9343C109.6 78.9665 113.617 77.8592 115.494 74.4021C117.121 71.3795 117.063 66.9037 114.215 64.6367C113.169 63.6485 111.657 62.6022 110.262 63.6485C106.986 65.7712 105.212 69.2494 103.98 72.8615C103.341 70.4002 102.836 67.8849 102.507 65.3372C102.614 65.2803 102.719 65.221 102.822 65.1593L102.819 65.1565C111.531 59.9643 107.057 39.7775 104.508 32.0267C104.138 31.1513 103.824 30.2083 103.506 29.2546C102.472 26.1551 101.4 22.9416 98.2881 21.5637C97.8812 21.4474 98.0556 21.7962 98.1718 22.0287C102.125 30.806 109.623 57.0215 98.1718 62.253C89.6852 65.6244 86.4301 56.324 84.5119 49.9299C84.0099 48.2088 83.5355 46.4822 83.0615 44.7569L83.0613 44.7559C81.9986 40.8876 80.9377 37.0258 79.571 33.2473C78.8154 30.4572 77.0134 27.8996 74.2814 26.6789L74.2563 26.6705C74.0666 26.6063 73.6472 26.4646 73.7583 26.8533C75.1394 28.6027 75.7912 30.7896 76.4358 32.952C76.6051 33.5199 76.7739 34.0862 76.9553 34.6424C77.7359 37.0028 78.3679 39.4225 78.9996 41.841L78.9996 41.841C80.3435 46.9863 81.6858 52.1254 84.4537 56.6727ZM107.815 91.0635C108.331 94.0504 108.685 97.0663 108.826 100.113L109.016 100.07C111.524 99.5026 114.088 98.9224 116.191 97.4201C112.705 96.1318 109.977 93.8555 107.815 91.0635ZM60.7958 30.7479C59.7154 30.4271 58.5762 30.2142 57.4351 30.001C54.647 29.48 51.8476 28.9569 49.8678 26.8533C49.2284 26.272 49.2865 25.4001 49.7516 24.7607C49.9259 23.7726 54.1692 27.0859 53.1811 27.2021C53.0648 27.144 52.716 27.4927 52.716 27.5509C53.2867 27.6825 53.8656 27.8059 54.4496 27.9304C55.4125 28.1357 56.3894 28.3439 57.3663 28.5972C58.4707 28.8297 59.5751 29.1784 60.3889 29.9922C60.5633 30.1085 61.2608 30.7479 60.7958 30.7479ZM84.0467 34.8751C84.5698 35.8051 85.6743 36.4446 86.6043 36.7933C87.7424 36.4717 88.9332 36.2975 90.1274 36.1228C91.7387 35.887 93.3561 35.6504 94.8584 35.0495C96.1118 34.5899 96.7346 33.4697 97.3526 32.3579C97.5945 31.9229 97.8356 31.4892 98.1136 31.0968C98.1136 30.5736 96.1372 29.1205 95.6722 29.4111C95.5246 29.6325 95.3808 29.8597 95.2367 30.0874C94.5863 31.1149 93.9289 32.1534 92.8821 32.7244C91.4344 33.4944 89.8072 33.7095 88.1908 33.9232C86.7567 34.1128 85.331 34.3012 84.0467 34.8751ZM56.3781 36.5606C54.9831 35.9212 53.6461 34.7586 52.8905 33.3635C52.7161 32.666 53.4136 31.9103 54.053 31.7941C55.3318 32.1429 56.32 33.1892 57.1338 34.1192C57.4244 34.4098 57.8894 35.2236 57.0756 34.8749C56.785 34.8167 56.4362 35.4561 56.3781 35.7468C56.32 35.9211 56.32 35.9211 56.4363 36.0374C56.5525 36.2118 56.8431 36.6768 56.3781 36.5606ZM47.6589 38.3626C48.2401 39.1182 49.0539 39.7576 49.9258 40.1064C50.0963 40.149 50.1418 39.9418 50.1768 39.7824C50.1896 39.7242 50.201 39.6725 50.2165 39.6414C50.5071 38.3626 48.7052 37.3163 47.717 36.8513C47.4845 36.8125 47.562 36.9804 47.6395 37.1484C47.6783 37.2323 47.717 37.3163 47.717 37.3744C47.7424 37.5268 47.7012 37.6793 47.6613 37.8268C47.6099 38.0169 47.5607 38.1989 47.6589 38.3626ZM48.7634 51.7901C46.9033 50.9763 44.9851 49 47.194 47.3724C47.659 46.9074 50.0422 48.8837 49.8678 49.3487C49.2866 49.5231 48.9378 50.2206 48.8216 50.8019C48.7828 50.9957 48.7828 51.1894 48.8216 51.3832C48.8797 51.4995 49.0541 51.8482 48.7634 51.7901ZM85.2093 43.0129C85.7906 43.7685 86.5463 44.408 87.4182 44.7567C87.5344 44.8148 87.5926 44.7568 87.7088 44.5824C88.2901 43.8848 88.232 42.9548 87.8832 42.141C87.5926 41.0366 86.6044 40.1646 85.5581 39.8159C85.4297 39.8159 85.4904 39.9734 85.5313 40.0797C85.546 40.1178 85.5581 40.1493 85.5581 40.1646C86.3717 41.6755 85.8167 42.1795 85.4421 42.5196C85.2547 42.6898 85.1124 42.819 85.2093 43.0129ZM98.3462 47.1979C96.8349 46.4423 95.4979 45.0472 94.6841 43.594C94.2773 42.7221 94.5679 41.6758 94.9166 40.8039C95.1352 40.4542 95.8467 40.9591 96.3345 41.3052C96.4955 41.4194 96.6321 41.5163 96.7186 41.5595C97.1255 41.8502 99.8575 44.1753 99.0437 44.524C98.8253 44.4694 98.6582 44.7226 98.5424 44.898L98.5206 44.931C98.2299 45.2797 97.9974 45.7447 98.0555 46.1516C98.0555 46.2307 98.1698 46.3837 98.2932 46.5489C98.5326 46.8696 98.8065 47.2363 98.3462 47.1979ZM91.3126 55.7428C91.8938 56.3241 92.5332 56.9054 93.347 57.196H93.4633C93.6377 56.731 93.7539 56.2079 93.812 55.6847C93.812 53.999 91.8938 52.2552 90.4988 51.4414C90.2081 51.3251 90.4406 51.6739 90.5569 51.732C91.8938 52.9527 91.7195 53.8828 91.0219 55.336C91.0219 55.4761 91.1346 55.5787 91.2392 55.674L91.2594 55.6924C91.2692 55.7014 91.2789 55.7104 91.2883 55.7193L91.3012 55.7316L91.3126 55.7428ZM32.197 60.0443C29.1744 60.9743 29.93 65.2757 31.267 67.4264C32.5458 68.4727 35.8009 68.4728 37.4285 68.4728C37.2477 67.8748 37.0836 67.2703 36.9194 66.6654C36.3971 64.7418 35.8741 62.8152 34.8128 61.0905C34.4059 60.1023 33.1852 59.8699 32.197 60.0443ZM47.4265 69.4609C49.4028 68.0077 51.6116 66.6127 54.1111 66.4383C54.2211 66.454 54.3819 66.4485 54.5593 66.4424H54.5594H54.5595H54.5596H54.5597C55.0387 66.4259 55.6382 66.4053 55.6806 66.787C55.9712 67.6589 55.6806 68.6471 54.983 69.2865C52.9254 71.0932 50.0878 71.2101 47.4055 71.3205C46.9811 71.338 46.5606 71.3553 46.1476 71.3791C46.1261 71.3576 45.977 71.36 45.8096 71.3627C45.525 71.3672 45.1875 71.3726 45.3339 71.2628C45.9733 70.6234 46.6708 70.0422 47.4265 69.4609ZM113.052 66.7872C110.321 68.9379 108.344 71.9605 107.123 75.2157C110.902 74.2856 114.041 70.6236 113.459 66.4965C113.304 66.574 113.169 66.6709 113.052 66.7872ZM90.1504 74.925C89.7435 75.3319 89.3366 75.855 89.2785 76.4363C91.4292 76.9594 93.638 77.0757 95.7888 76.6688C96.4879 76.5639 97.1871 76.3119 97.8736 76.0644C98.3286 75.9004 98.7781 75.7383 99.2183 75.6225C96.6607 73.8786 92.8243 72.5999 90.1504 74.925Z" fill="black"/>
</svg>
