<svg width="78" height="87" viewBox="0 0 78 87" fill="none" xmlns="http://www.w3.org/2000/svg">
<path fill-rule="evenodd" clip-rule="evenodd" d="M57.1707 32.077C54.9207 32.027 52.7208 31.827 50.4708 31.577C48.7708 31.427 46.9708 30.277 46.0208 28.877C47.3439 28.8049 48.7249 28.9063 50.1193 29.0087C51.6229 29.1192 53.142 29.2308 54.6208 29.127C55.0087 29.1001 55.404 29.0747 55.8049 29.049C60.623 28.7392 66.2511 28.3774 69.6208 24.777C71.7708 21.927 72.8208 18.477 73.8208 15.127C74.8208 11.577 74.5208 7.77702 73.8708 4.12702C68.5708 7.27702 62.6708 9.52703 56.5208 10.327C55.4629 10.4803 54.3862 10.5631 53.3081 10.6461C50.87 10.8335 48.4242 11.0216 46.1707 12.027C42.1207 13.827 38.0708 17.327 37.3208 21.827C37.2874 21.9604 37.3207 22.0604 37.4207 22.127C37.7207 22.527 37.2708 22.527 37.0208 22.377C35.9208 21.927 33.8708 20.877 33.5208 19.827C34.1208 16.477 36.6708 13.727 39.3208 11.727C42.9859 9.00056 47.45 8.67139 51.8561 8.3465L51.8563 8.34648C52.3791 8.30794 52.901 8.26945 53.4207 8.22702C60.5207 7.32702 67.4707 4.52702 73.2708 0.277025C74.0708 0.0270249 76.1708 1.57703 76.4708 2.22703C76.4708 3.57583 76.7115 4.90745 76.951 6.23195V6.23201C77.1198 7.16604 77.288 8.09653 77.3708 9.02703C78.1208 14.577 76.5208 20.077 74.7208 25.227C72.5778 31.3764 64.2712 31.7529 58.4152 32.0182L58.4148 32.0183C57.9859 32.0377 57.57 32.0566 57.1707 32.077ZM23.3208 55.0771C23.1708 56.9271 24.6708 58.2771 26.2208 58.9771C26.3708 58.9771 26.4708 58.9771 26.4208 58.8271C26.1208 58.3271 26.0708 57.7271 26.1208 57.1771C26.4208 50.7271 28.0708 44.1771 31.4708 38.6271C33.3208 35.4271 35.5208 32.5271 37.8208 29.6771C38.0665 29.3087 38.3707 28.957 38.6754 28.6049C39.1148 28.097 39.555 27.5882 39.8208 27.0271C39.6713 26.728 39.4099 26.4848 39.1413 26.2349C39.0506 26.1505 38.9591 26.0654 38.8708 25.9771C38.7459 25.8834 38.6209 25.7832 38.4946 25.6819C38.0144 25.2967 37.5146 24.8959 36.9208 24.7771C35.2208 26.4771 33.6708 28.4271 32.1708 30.3271C28.3708 35.0771 25.4208 40.5271 24.2708 46.4771C23.7208 49.3271 23.2208 52.1771 23.3208 55.0771ZM16.0208 63.377C17.0208 65.177 19.1208 66.577 20.9708 67.427C24.4023 68.5423 27.8338 66.8608 30.9812 65.3186L30.9818 65.3183C31.503 65.063 32.0164 64.8114 32.5208 64.577C32.6641 64.4974 32.8079 64.4178 32.9521 64.338L32.9522 64.338L32.9525 64.3378C34.1665 63.666 35.4035 62.9814 36.5208 62.177C36.5342 62.168 36.5485 62.159 36.5634 62.15C36.5776 62.1413 36.5922 62.1325 36.6072 62.1236C36.7495 62.0387 36.9119 61.9418 36.8708 61.777C36.4708 61.127 34.6208 59.177 33.8708 59.727C31.2208 61.227 28.5207 62.627 25.6707 63.727C22.8707 64.827 19.4208 66.077 16.9708 63.627C16.9564 63.6198 16.9275 63.6022 16.8884 63.5785L16.8884 63.5785C16.6559 63.4373 16.0636 63.0774 16.0208 63.377ZM36.6708 84.627C35.5208 84.177 34.2208 83.377 33.6708 82.227C34.1232 81.9938 34.5825 81.7636 35.0446 81.5319L35.0447 81.5319L35.0448 81.5318L35.0448 81.5318C37.8516 80.1249 40.7602 78.667 42.8208 76.177C48.4708 70.227 51.5708 55.627 40.0208 54.977C39.1685 54.7822 38.2925 54.8009 37.4275 54.8193H37.4274C36.5163 54.8387 35.6172 54.8579 34.7708 54.627C34.7234 54.5986 34.6688 54.5665 34.6088 54.5313C34.0359 54.1952 32.9708 53.5701 32.9708 53.027C33.5931 53.0737 34.2251 53.101 34.8622 53.1285L34.8624 53.1285L34.8626 53.1286L34.8628 53.1286H34.8628C36.2732 53.1895 37.7089 53.2515 39.1208 53.527C45.7708 54.677 51.7208 60.277 50.5208 67.377C49.8708 75.327 44.2708 82.327 36.6708 84.627ZM0.320734 67.527C-0.829265 76.277 12.3207 84.177 19.5707 86.277C21.6207 86.677 23.8707 86.627 25.8207 86.227C25.4455 85.4765 24.6303 84.9901 23.9117 84.5613L23.7707 84.477C23.0147 84.1443 22.1672 84.2324 21.3168 84.3207H21.3167H21.3166C20.761 84.3784 20.2041 84.4363 19.6707 84.377C14.4207 84.227 8.22073 80.477 5.22073 76.177C1.52073 71.627 4.12072 65.577 7.87072 61.877C10.0707 59.727 13.0707 57.027 16.3707 57.777C16.5872 57.9162 16.7989 58.084 17.0132 58.254C17.4919 58.6335 17.9836 59.0234 18.5707 59.127C18.8012 59.127 18.6186 58.891 18.4989 58.7363C18.4627 58.6895 18.4323 58.6502 18.4207 58.627C16.4207 56.527 13.3707 54.827 10.4707 55.977C5.57073 57.877 1.47073 62.427 0.320734 67.527ZM46.8707 22.0771C47.1707 22.5771 47.8207 22.9271 48.3207 23.1271C52.2707 19.0271 58.1207 17.0271 63.7207 16.3271C63.7944 16.2903 63.9361 16.2806 64.083 16.2705C64.3348 16.2533 64.6023 16.235 64.5707 16.0771C64.1207 15.4771 63.3207 15.0271 62.6207 14.6771C58.0207 14.7771 53.3207 16.7771 49.4707 19.3271C48.4707 20.0771 47.5207 21.0271 46.8707 22.0771Z" fill="black"/>
</svg>
