<svg width="43" height="53" viewBox="0 0 43 53" fill="none" xmlns="http://www.w3.org/2000/svg">
<path fill-rule="evenodd" clip-rule="evenodd" d="M6.86096 11.15C4.76096 11.05 2.81095 10.2 1.36095 8.70001C-0.255013 7.36107 1.71028 6.3632 2.92629 5.74577C3.02716 5.69456 3.12287 5.64596 3.21095 5.60001C4.95201 4.7518 6.73293 4.02317 8.48253 3.30735L8.48311 3.30711C8.69289 3.22129 8.90221 3.13564 9.11096 3.05C12.661 1.65 16.3609 0.3 20.2109 0.25C21.5609 0.55 22.7609 1.55 23.7109 2.55C23.8109 2.65 24.111 3.05 23.761 3.05C19.2447 2.85017 14.9839 4.53525 10.8 6.18995L10.8 6.18996C9.74974 6.60533 8.70434 7.01877 7.66095 7.40001C7.51522 7.46073 7.3695 7.52071 7.22404 7.58058C6.17171 8.01373 5.13344 8.44108 4.21095 9.10001C4.07762 9.13334 4.06095 9.15001 4.16095 9.15001C4.99428 9.28334 5.84427 9.36668 6.71094 9.40001C11.5388 9.6414 16.3201 8.81061 21.0547 7.98792L21.5609 7.90001C21.9547 7.80914 22.8378 7.66729 23.9896 7.4823L23.9896 7.4823C28.5415 6.75118 37.2893 5.34612 36.611 3.75C34.961 3.35 32.9609 2.75001 32.0609 1.15001C32.1072 1.01136 32.4524 1.12902 32.6229 1.18711L32.6609 1.20001C32.8276 1.23335 32.9943 1.28334 33.1609 1.35001C35.4109 1.85001 37.611 2.8 39.1609 4.55C41.3777 7.25041 34.53 8.29388 30.8219 8.85891L30.8219 8.85891C29.93 8.99483 29.2197 9.10306 28.861 9.20001C27.6625 9.38061 26.4626 9.57334 25.2616 9.76624C19.1475 10.7483 13.0042 11.7351 6.86096 11.15ZM14.2609 52.5C11.1109 52.6 8.26086 51.05 6.21086 48.7C4.02173 46.0731 3.3472 42.6415 2.71365 39.4184L2.66085 39.15C1.47163 33.8146 1.58406 28.3965 1.69655 22.9754C1.75906 19.9633 1.82158 16.9503 1.66085 13.95C1.67677 13.8228 1.63699 13.4373 1.58984 12.9805C1.48884 12.0017 1.35405 10.6955 1.66085 10.9C2.41085 11.15 4.31085 12.3 4.16085 13.15C4.78647 17.5622 4.82662 21.9744 4.86678 26.3866C4.8876 28.6744 4.90842 30.9622 5.01086 33.25C5.04663 33.5779 5.08205 33.9069 5.11755 34.2367L5.11758 34.2369C5.51797 37.9561 5.92976 41.7811 6.9911 45.3778C7.03277 43.0519 7.08082 40.726 7.16103 38.4001C7.31103 34.6001 7.56102 30.6501 9.06102 27.1501C11.111 22.7001 14.111 19.3501 18.061 24.3501C19.1316 25.6677 19.524 27.7313 19.8246 29.3122C19.889 29.651 19.9493 29.9677 20.011 30.2501C20.0974 29.8961 20.1822 29.4451 20.2772 28.9405C20.7321 26.5231 21.4187 22.8742 23.611 22.7501C26.861 23.6001 28.511 27.1501 29.261 30.1501C29.4138 29.7301 29.5574 29.2992 29.702 28.8654C30.3148 27.0266 30.9451 25.1351 32.361 23.8001C33.611 22.9501 35.261 24.9501 35.961 25.8501C36.7688 27.2234 36.9893 28.8577 37.2024 30.4367C37.2531 30.8124 37.3034 31.185 37.361 31.5501C37.7033 34.3864 37.9022 37.2705 38.0979 40.1089L38.111 40.3001C38.2158 41.7141 38.3068 43.1281 38.3841 44.5421C39.1767 42.9226 39.2607 41.0436 39.3433 39.1929V39.1928C39.3796 38.3817 39.4156 37.5761 39.5109 36.8C39.6609 29.65 39.6609 22.45 38.3609 15.4C38.8109 15.05 40.9109 16.95 40.7609 17.5C42.2109 24.55 42.2109 31.7 41.8609 38.85C41.7447 39.6284 41.6987 40.4905 41.6514 41.3773C41.4951 44.307 41.3244 47.5067 38.5608 48.85C31.0108 52.35 22.4609 52.7 14.2609 52.5ZM35.7425 46.6934C35.4605 46.3779 35.2664 46.0238 35.311 45.6001L35.3186 45.4915C35.466 43.3794 35.6102 41.3139 35.561 39.2001C35.461 34.8001 35.311 30.3501 34.411 26.1001C31.311 30.8001 30.861 37.2001 30.761 42.7501C30.761 43.115 30.772 43.4853 30.7831 43.8575C30.8054 44.6075 30.8279 45.365 30.761 46.1001C30.361 46.5001 28.611 44.8001 28.311 44.4501C27.704 43.9569 27.7303 43.2047 27.7565 42.4555C27.7648 42.2172 27.7731 41.9793 27.761 41.7501C27.7311 40.4327 27.8087 39.1333 27.8866 37.8302C27.9387 36.9573 27.991 36.0827 28.011 35.2001C27.711 31.8501 27.261 28.4001 25.861 25.3001C25.361 23.9501 24.011 26.9001 23.911 27.4001C23.3037 29.2601 22.9845 31.2066 22.6691 33.1301C22.5691 33.7402 22.4694 34.3481 22.361 34.9501L22.361 34.9505C21.861 37.8004 21.361 40.6502 21.461 43.5501C21.461 44.7257 21.5567 45.9012 21.6534 47.0886C21.7129 47.8203 21.7729 48.5566 21.811 49.3001C21.8 49.4099 21.8083 49.5703 21.8179 49.7496C27.0265 49.3011 32.3485 48.3087 35.7425 46.6934ZM19.6818 49.904C15.8548 50.1278 12.2464 50.0561 9.69979 49.7215C9.76903 48.4641 9.82483 47.2025 9.8807 45.9393C10.0773 41.4955 10.2748 37.0307 11.061 32.6501C11.761 29.8001 13.361 24.7501 16.511 23.9501C17.5952 26.1185 17.8895 28.5877 18.1768 30.9991C18.2208 31.3679 18.2646 31.7353 18.311 32.1001C18.344 32.7766 18.4151 33.4586 18.4866 34.1442C18.6318 35.5362 18.7785 36.9431 18.611 38.3501C18.2944 40.5668 18.4481 42.7835 18.6019 45.0001C18.6667 45.9335 18.7314 46.8668 18.761 47.8001C18.761 47.9168 18.7444 48.039 18.7277 48.1612C18.6944 48.4057 18.661 48.6501 18.761 48.8501C19.0201 49.2387 19.335 49.59 19.6818 49.904Z" fill="black"/>
</svg>
