<svg width="120" height="103" viewBox="0 0 120 103" fill="none" xmlns="http://www.w3.org/2000/svg">
<path fill-rule="evenodd" clip-rule="evenodd" d="M3.97857 5.51666C4.47857 6.51666 5.62856 7.21666 6.62856 7.61666H6.67858C6.90208 7.61666 6.81975 7.35161 6.74406 7.10793C6.70122 6.97001 6.66051 6.83894 6.67858 6.76666C6.61738 6.39178 6.53861 6.01807 6.46217 5.65538C6.03904 3.64775 5.68708 1.97787 8.77859 2.31666C8.87562 2.7048 8.80788 3.11648 8.74096 3.52315C8.66994 3.95467 8.59986 4.38054 8.72857 4.76666C8.92857 5.01666 10.3786 6.31666 10.3786 5.61666C11.2786 2.16666 8.47856 0.566658 5.37856 0.766658C3.21554 0.726602 3.55551 2.77237 3.82771 4.41032C3.89528 4.81695 3.95868 5.19845 3.97857 5.51666ZM36.2285 25.2667C36.3285 24.5667 34.5785 23.8167 34.0285 23.7167C33.5284 27.2889 34.5596 31.0142 37.2314 33.124C37.2119 33.1354 37.1942 33.1496 37.1785 33.1666C37.2189 33.3506 37.2597 33.5353 37.3006 33.7206C38.1718 37.6652 39.1067 41.8984 37.5785 45.7667C37.1285 47.0667 36.4285 47.7666 35.2285 48.3166C35.7285 49.4166 36.8785 50.3666 37.9785 50.9166C39.41 50.7505 40.3383 49.9538 40.9155 48.798C41.2515 49.9558 41.7293 51.0444 42.4167 52.0162C41.2379 52.1791 39.861 51.7561 38.5861 51.3644C37.9256 51.1614 37.2925 50.9669 36.7285 50.8667C35.5618 50.5333 34.3785 50.2 33.1785 49.8667C32.9785 49.7667 32.6285 49.7167 32.8285 50.1167C33.7785 51.6167 35.3785 52.4167 37.0785 52.7167C37.8993 52.8846 38.7131 53.0942 39.5277 53.304L39.5278 53.304C40.8967 53.6567 42.268 54.0099 43.6785 54.1666H43.7285C43.9816 54.1666 44.249 54.1489 44.5144 54.1068L44.5285 54.1167C44.5643 54.1064 44.5998 54.0962 44.6348 54.0859C45.323 53.9568 45.9819 53.6559 46.3285 53.0666C46.1285 52.2166 45.1285 51.5166 44.4285 51.0666C44.3872 51.0666 44.3498 51.0629 44.316 51.0595C44.2273 51.0505 44.1647 51.0442 44.1285 51.1167C43.9574 51.3116 43.7722 51.4708 43.5753 51.5989C42.952 50.0352 42.8144 48.291 42.6853 46.6528V46.6528L42.6785 46.5667C42.4285 43.1166 42.1785 39.6167 42.0785 36.1667C42.2129 35.8978 41.6536 35.2533 41.0299 34.738C41.0956 34.7482 41.1618 34.7577 41.2285 34.7667C46.0285 34.3167 49.2785 29.5667 51.4785 25.6667C52.4775 23.8049 50.3424 22.5206 48.8557 21.6262C48.7054 21.5358 48.5617 21.4493 48.4285 21.3667C44.6785 19.4667 40.1285 19.0167 36.1285 20.1667C34.0785 21.1667 37.6785 22.8667 38.6785 23.1167C39.7785 23.4167 40.9785 23.4167 42.1285 23.3667C42.3285 23.3667 41.9285 23.0167 41.9285 23.0167C41.1567 22.2449 40.1987 22.2177 39.2275 22.1901C38.6887 22.1748 38.1459 22.1594 37.6285 22.0167C38.6721 20.7359 42.0558 20.8502 43.7664 20.908C43.8589 20.9111 43.9465 20.9141 44.0285 20.9167C44.2267 20.9472 44.4579 20.9777 44.7115 21.0111C46.9525 21.3066 50.9354 21.8317 49.2285 24.6167C47.3285 27.6667 45.1285 30.8167 41.9285 32.5667C41.8657 32.5966 41.8013 32.6275 41.7355 32.6592L41.7316 32.6611L41.7312 32.6613C40.6969 33.1588 39.3144 33.8239 38.3285 33.1667C36.3285 31.0667 36.1285 28.0167 36.2285 25.2667ZM83.6786 46.0666C83.1787 46.0166 82.6788 46.0166 82.2788 46.0166H82.2786C80.0786 45.9666 77.6785 45.1166 76.2285 43.4166C75.5496 42.2285 77.1033 41.1845 78.1699 40.4678C78.3601 40.34 78.5348 40.2226 78.6786 40.1166C79.5786 40.3666 80.5785 40.8666 81.1285 41.6166C80.4785 42.0166 79.8285 42.5166 79.2285 43.0166C78.9785 43.2166 78.2286 44.1666 78.6786 44.3166C79.3786 44.4666 80.1286 44.4666 80.9286 44.4166C81.9286 44.3666 82.9785 44.3166 83.8785 44.8166C85.8285 45.8666 85.5286 46.1166 84.6786 46.1166C84.5343 46.1166 84.3786 46.1051 84.2168 46.0931L84.2167 46.0931C84.042 46.0801 83.8603 46.0666 83.6786 46.0666ZM68.2786 55.3667C63.3786 55.2167 56.2786 54.0667 54.1786 48.9667C53.6609 46.5775 55.9656 45.3617 57.961 44.309C58.4712 44.0398 58.9611 43.7814 59.3785 43.5167C59.8859 43.2747 60.4054 43.0023 60.9337 42.7253C63.7896 41.2277 66.9015 39.5959 69.7286 41.9167C69.9786 42.0667 71.6286 43.1667 70.6786 43.1167C68.6024 43.0074 66.261 44.1717 64.118 45.2373L64.118 45.2373C63.3193 45.6345 62.5481 46.018 61.8286 46.3167C61.6773 46.3961 61.5168 46.4784 61.3501 46.5639C59.3136 47.6083 56.3496 49.1285 57.8286 51.7167C59.1286 53.9167 66.9286 53.8167 71.6786 53.7167C72.3587 53.7167 72.9746 53.7006 73.5081 53.6867L73.5084 53.6867H73.5086H73.5087H73.5089H73.509H73.5091H73.5093H73.5093H73.5094C73.9166 53.676 74.2757 53.6667 74.5786 53.6667C78.9286 53.5167 83.3785 53.2667 87.6285 52.3167C88.3167 52.1692 88.8871 51.9764 89.3917 51.8059C90.94 51.2826 91.8684 50.9688 93.6786 52.8167C91.4286 53.9167 88.5286 54.3667 85.9286 54.7167C81.6286 55.2167 77.2786 55.4167 72.9286 55.4167C71.3619 55.4167 69.8119 55.4 68.2786 55.3667ZM42.7286 31.0666C42.5536 31.0416 42.3911 30.9541 42.2286 30.8666C42.0661 30.7791 41.9036 30.6916 41.7286 30.6666C40.7786 30.9166 39.8286 30.5666 39.0286 30.0666C33.7286 27.0166 40.6286 22.6666 45.4286 27.0666C45.4357 27.0737 45.456 27.0899 45.4849 27.113L45.4852 27.1133L45.4853 27.1134C45.6603 27.2534 46.1501 27.6452 45.9786 27.8166C45.6786 27.8166 45.3786 27.7166 45.0786 27.5666C44.7786 27.4166 44.4286 27.3166 44.1286 27.3666C46.9786 28.6166 45.5286 29.3666 43.4286 30.1166H43.4286C43.3786 30.1166 43.2786 30.1166 43.2786 30.1666C43.2486 30.3466 43.1646 30.5266 43.0807 30.7066C43.0246 30.8266 42.9686 30.9466 42.9286 31.0666H42.8286H42.7286ZM2.77856 12.3667C2.77856 11.2667 2.82856 10.2167 3.02856 9.16666C3.32856 7.21666 4.67855 7.56666 6.07855 7.96666C6.77855 8.16666 7.52854 8.36667 8.12854 8.26667C9.02854 8.21667 10.1286 8.01667 10.5286 7.06667C10.5286 6.96667 10.6785 6.96667 10.7285 7.01667C12.1785 7.81667 12.5286 8.41667 10.7786 9.11667C9.27856 9.61667 7.67856 9.26666 6.17856 8.91666C4.54159 8.56837 4.45735 10.4279 4.38793 11.9601C4.36307 12.509 4.3401 13.0158 4.24837 13.3642C4.70613 13.7248 5.02021 14.064 4.9286 14.2167C5.55983 17.41 5.77743 20.9066 5.99098 24.338C6.06498 25.5272 6.1385 26.7085 6.22858 27.8667C6.29349 29.0351 6.43214 30.214 6.57102 31.3949C6.86005 33.8526 7.1501 36.3189 6.7786 38.7167C6.43012 40.0235 5.76116 41.1785 5.09501 42.3287C4.61423 43.1588 4.13491 43.9864 3.7786 44.8667C1.9662 48.8469 3.66465 52.9533 5.2297 56.7373C5.86664 58.2772 6.48148 59.7638 6.82859 61.1667C5.22748 60.6958 4.55778 59.2491 3.90047 57.8292C3.85987 57.7415 3.81932 57.6539 3.7786 57.5667C3.58542 57.1417 3.38747 56.7155 3.18861 56.2874L3.18854 56.2872L3.18842 56.287L3.18834 56.2868L3.18823 56.2866L3.18815 56.2864L3.18804 56.2861C2.10033 53.9444 0.985768 51.5449 0.478583 48.9667C-0.302426 45.7362 1.05904 43.0349 2.43333 40.3082C2.99464 39.1946 3.55809 38.0766 3.97858 36.9167C4.32181 34.617 4.05244 32.2703 3.78509 29.941C3.66298 28.8772 3.54129 27.817 3.47858 26.7667C3.25967 25.0336 3.19384 23.2739 3.12811 21.5168C3.01368 18.4579 2.89954 15.4066 1.97858 12.5167C1.64867 11.9806 2.14359 12.0907 2.8181 12.4403C2.8041 12.4159 2.79091 12.3914 2.77856 12.3667ZM15.7328 76.3949L15.7326 76.3949L15.7324 76.3948C14.6019 76.3057 13.4727 76.2167 12.3286 76.2167C12.0714 76.2167 11.8178 76.2222 11.5681 76.2276C9.97379 76.2622 8.53907 76.2933 7.32861 74.8667C4.42861 72.0167 2.42861 68.3667 1.07861 64.5667C1.1152 64.4569 1.33916 64.5613 1.47629 64.6252C1.52658 64.6487 1.5652 64.6667 1.57861 64.6667C2.67861 65.2167 3.2286 66.2167 3.6286 67.3167L3.6754 67.4184C4.8126 69.891 6.05503 72.5924 7.97861 74.4667C9.52861 74.3667 11.1786 74.5667 12.7786 74.7667C15.3286 75.0667 17.8786 75.3667 20.2786 74.4667C21.4786 73.8667 21.5286 72.5667 21.4286 71.3667C21.4286 69.2167 21.6286 67.0667 21.8286 64.9167C22.3286 60.5667 22.0286 56.2167 21.3786 51.9667C20.8286 45.1667 18.5286 40.8167 15.2286 35.0167C13.0286 30.6667 12.3786 25.6667 11.8286 20.8667C11.5786 16.8667 11.5286 12.8167 12.2286 8.91667C12.1786 7.96667 14.0786 9.46667 14.0286 9.71667C13.2783 12.762 13.3851 16.0022 13.4893 19.1621C13.5031 19.5819 13.5169 20.0003 13.5286 20.4167C13.9286 24.7667 14.6786 29.1667 16.0286 33.3167C16.8357 35.5119 17.9763 37.5405 19.1139 39.5637C19.7383 40.6741 20.3617 41.7828 20.9286 42.9167C23.2457 48.0335 23.7452 53.7563 24.2269 59.275L24.2786 59.8667C24.4589 62.7151 24.1712 65.5376 23.8841 68.3528C23.7732 69.4415 23.6623 70.5291 23.5786 71.6167C23.7786 75.1667 22.3786 76.5667 18.9786 76.5667H18.5786C17.6228 76.5439 16.6773 76.4694 15.7328 76.3949ZM13.5286 45.3667C10.9786 46.8667 8.12858 47.6666 5.22858 48.0667C4.42858 48.1166 6.57859 49.5167 6.92859 49.5667C9.67859 49.2667 15.5786 47.3167 16.9786 44.9167C16.5286 44.4667 15.9286 44.0667 15.3286 43.8167C15.2286 43.8167 15.2286 43.8167 15.1286 43.9167C14.6786 44.4667 14.1286 45.0167 13.5286 45.3667ZM12.2356 63.5942L12.2357 63.5942C14.0782 63.2671 16.009 62.9243 17.2786 61.4166C17.3539 61.3602 17.415 61.2471 17.4779 61.1307C17.5822 60.9377 17.6915 60.7354 17.8786 60.7666C18.5286 60.9666 19.8286 61.7666 19.9786 62.4166C18.4286 64.6166 15.5286 65.1666 13.0286 65.5166C12.2286 65.2166 11.2786 64.6666 10.8286 63.8666C11.2828 63.7634 11.7562 63.6794 12.2356 63.5942ZM5.87855 45.1166C6.57855 45.8666 7.37858 46.5166 8.27858 46.8166C8.71464 46.8166 9.0564 46.5337 9.37864 46.267L9.37868 46.267C9.46286 46.1973 9.5457 46.1288 9.62855 46.0666C10.4286 45.4333 11.1952 44.7666 11.9286 44.0666C12.0581 44.0019 12.1865 43.9382 12.3141 43.8749C13.0732 43.4984 13.8009 43.1375 14.5286 42.6666C14.9781 42.3397 14.96 41.7789 14.8565 41.2574C15.0112 41.3356 15.1688 41.4057 15.3286 41.4666H15.3786C15.9295 41.4666 15.0081 39.3121 14.6228 38.4113C14.5535 38.2492 14.5015 38.1276 14.4786 38.0666C14.3184 37.6499 14.1992 37.2127 14.0816 36.7813C14.0157 36.5397 13.9504 36.2999 13.8786 36.0666C13.5786 34.6166 13.2286 33.1666 12.7786 31.7666C12.6786 30.9666 12.5786 30.1666 12.2286 29.4166C12.0122 28.7915 11.7381 28.2012 11.3839 27.6621C11.3786 27.4978 11.3786 27.3322 11.3786 27.1666C11.3706 27.016 11.3652 26.8617 11.3597 26.7051C11.3306 25.8742 11.2993 24.9819 10.8786 24.2666C10.6286 23.7166 7.6786 21.3666 7.27859 22.0166C7.24631 22.0812 7.25572 22.1249 7.26644 22.1747C7.27232 22.2021 7.27859 22.2312 7.27859 22.2666C7.37857 22.5666 7.37857 22.9165 7.37857 23.2164V23.2166C6.90248 23.1373 6.96158 23.6561 7.00629 24.0486C7.01793 24.1507 7.02859 24.2443 7.02859 24.3166C6.97859 24.7666 6.92859 25.2666 6.92859 25.7166C6.93042 25.7367 6.93257 25.7567 6.93503 25.7766C6.89816 25.955 6.87854 26.1359 6.87854 26.3167C6.91337 26.9088 7.11805 27.4524 7.32355 27.9981C7.41305 28.2358 7.5027 28.4739 7.57855 28.7166C7.66605 29.1166 7.75668 29.5166 7.8473 29.9166L7.84731 29.9167C8.11918 31.1167 8.39105 32.3167 8.57855 33.5167C8.71873 34.9534 8.68697 36.4148 8.65543 37.8662L8.65542 37.8664C8.64681 38.2628 8.63821 38.6584 8.63314 39.0527L8.62851 39.0666L8.60652 39.1609C8.26344 40.6333 7.90129 42.1876 6.62851 43.1666C6.52851 43.2866 6.39651 43.3746 6.26452 43.4626C6.06653 43.5946 5.86853 43.7266 5.77853 43.9666C5.76262 44.0621 5.78976 44.1703 5.84888 44.2855C5.51162 44.5366 5.48908 44.7704 5.87855 45.1166ZM18.6786 66.3667C17.9225 65.7113 17.2171 65.488 16.4858 65.5109C16.2145 65.3879 16.014 65.4319 15.838 65.5891C15.3166 65.6934 14.772 65.8898 14.1786 66.1167C13.1286 66.4167 12.0786 66.6667 10.9786 66.7667C10.2603 66.8744 9.54203 66.7758 8.80521 66.6746L8.80484 66.6745L8.80445 66.6745L8.80403 66.6744C8.51544 66.6348 8.22401 66.5948 7.92861 66.5666C7.76819 66.5437 7.61827 66.4683 7.46923 66.3933C7.2931 66.3047 7.11819 66.2167 6.92861 66.2167C6.77861 66.2667 6.57861 66.2166 6.42861 66.1666C5.97861 66.1666 5.3286 66.3667 5.2286 66.8667C5.19974 67.1264 5.35414 67.3195 5.50909 67.5133C5.62257 67.6553 5.73634 67.7976 5.77862 67.9667C5.87862 68.2667 6.0286 68.5333 6.2286 68.7667C6.3286 68.8333 6.36194 68.9 6.32861 68.9667C6.42123 69.3989 6.76167 69.6786 7.10275 69.9588C7.31406 70.1325 7.5256 70.3063 7.67861 70.5167C7.48181 70.7922 7.74978 71.0677 7.97029 71.2945C8.0299 71.3558 8.08604 71.4135 8.1286 71.4667C8.8786 72.2167 9.77862 72.7666 10.7786 73.0666C11.0574 73.1363 11.3038 73.3032 11.553 73.4719C11.84 73.6663 12.1306 73.8631 12.4786 73.9166C12.6286 73.9166 12.7786 73.8667 12.9286 73.7667C12.9712 73.756 13.0138 73.7431 13.0559 73.7303C13.2115 73.6831 13.3605 73.638 13.4786 73.7167C14.0786 73.8167 14.6786 73.8666 15.2786 73.8166C15.4164 73.7891 15.539 73.8375 15.6631 73.8865C15.7642 73.9264 15.8664 73.9667 15.9786 73.9667H16.0286C16.4054 73.9667 16.7625 73.8089 17.1123 73.6544C17.3194 73.5628 17.524 73.4725 17.7286 73.4166C17.7399 73.411 17.7493 73.406 17.7573 73.4017L17.7576 73.4015C17.7771 73.3911 17.7887 73.3849 17.8007 73.3839C17.8185 73.3825 17.8372 73.3925 17.8835 73.4173L17.884 73.4175L17.9107 73.4317L17.9397 73.4469C17.9515 73.453 17.9644 73.4596 17.9786 73.4667C18.3244 73.6396 18.5954 73.4014 18.8564 73.1722L18.8566 73.172C18.8975 73.1361 18.938 73.1005 18.9786 73.0666C19.5563 72.6588 19.649 72.02 19.7433 71.3701C19.7877 71.0637 19.8325 70.7549 19.9286 70.4667C20.6286 68.4167 20.4786 67.6667 18.6786 66.3667ZM17.9785 58.4666H18.0285H18.0785C18.3941 58.4666 18.4392 57.606 18.4725 56.9711V56.9711C18.4866 56.7007 18.4987 56.4712 18.5285 56.3666C18.5377 56.2476 18.5473 56.1286 18.5568 56.0096C18.6518 54.829 18.7465 53.6522 18.4285 52.5166C18.1285 51.5166 17.0285 49.9666 16.0285 49.8666C15.0285 50.0166 14.7285 51.3666 14.7285 52.2666C9.67852 46.1166 10.3285 55.5166 17.9785 58.4666ZM38.6786 79.0167C26.7286 83.6667 18.1286 93.0167 34.4286 99.6167C42.7286 102.517 51.7286 102.817 60.4286 102.917C68.7286 102.867 95.7786 98.9667 96.6286 88.8667C95.6286 79.1167 84.4286 75.2167 75.9286 74.6667C75.2786 74.5167 75.6286 74.9667 75.9286 75.1667C77.0136 76.1838 78.4664 76.3273 79.9128 76.4702C80.5995 76.538 81.2848 76.6057 81.9286 76.7667C86.5786 77.3667 91.4286 79.1667 93.3786 83.7667C99.2188 94.5146 75.3371 98.9039 67.7868 100.292L67.3786 100.367C57.5286 101.867 47.4286 101.267 37.6786 99.5667C23.8786 97.2167 25.7786 88.2667 36.5286 82.8667C42.5183 79.49 49.7683 77.7292 56.356 76.1293L56.357 76.1291L56.3584 76.1288L56.3604 76.1283L56.3623 76.1278L56.3637 76.1275L56.3644 76.1273L56.3656 76.127C57.9685 75.7377 59.532 75.3579 61.0286 74.9667C59.0786 72.8667 57.5286 73.0167 55.0286 73.8667C54.5586 73.9895 54.0885 74.1116 53.6186 74.2336L53.6151 74.2345L53.615 74.2346C48.5382 75.5532 43.4828 76.8662 38.6786 79.0167ZM99.1787 100.567C99.7287 97.6666 101.129 94.7666 103.379 92.8167C104.841 91.6984 106.567 91.1556 108.291 90.6132C108.439 90.5667 108.587 90.5201 108.735 90.4732C108.434 90.0602 108.373 89.5584 108.287 88.8342L108.279 88.7666C108.232 88.5801 108.181 88.3917 108.13 88.2023L108.129 88.201C107.795 86.9695 107.449 85.693 108.229 84.5666C108.661 84.182 109.557 85.2306 109.891 85.6229L109.929 85.6666C110.148 85.8417 110.022 86.0168 109.92 86.1584C109.905 86.1785 109.891 86.198 109.879 86.2166C109.25 87.0737 109.454 88.1102 109.651 89.1118L109.673 89.2249L109.695 89.3356C110.139 88.6429 110.681 88.0269 111.279 87.4667L111.279 87.4663C112.029 86.7164 112.779 85.9666 113.529 85.2667C113.879 85.2277 114.169 85.4623 114.446 85.686C114.524 85.7492 114.601 85.8116 114.679 85.8667C115.816 86.6133 115.235 87.0819 114.552 87.6319C114.373 87.7764 114.186 87.9266 114.022 88.0889C114.554 87.757 115.075 87.4052 115.595 87.0544L115.596 87.0538L115.596 87.0538C115.989 86.7877 116.382 86.5223 116.779 86.2667C117.729 86.6167 118.779 87.4167 119.229 88.3667C118.665 89.0108 117.842 89.4929 117.073 89.9434L117.073 89.9435L117.073 89.9435L117.073 89.9436C116.887 90.0525 116.704 90.1596 116.529 90.2667C114.389 91.3842 112.487 92.0597 110.801 92.6587C106.3 94.2571 103.334 95.3106 101.479 102.767C100.629 102.317 99.3787 101.617 99.1787 100.567ZM53.6285 84.1666C50.9785 87.2666 55.4785 89.9166 57.9785 91.1666C59.4785 91.8166 61.0785 92.1166 62.6785 92.1166C65.0785 92.1166 67.5785 91.4666 69.8285 90.6166C70.2035 90.4666 70.5786 90.3291 70.9536 90.1916L70.9543 90.1914C71.329 90.0539 71.7038 89.9165 72.0785 89.7666C72.1169 89.5746 71.9194 89.4121 71.7577 89.2791C71.7089 89.2389 71.6633 89.2014 71.6285 89.1666C71.4955 89.0716 71.3553 88.9586 71.2089 88.8406L71.2081 88.8399L71.208 88.8398L71.2079 88.8398C70.584 88.3366 69.8476 87.7428 69.0785 88.0666C66.4285 88.9666 63.7285 89.8666 60.8785 90.0166L60.7766 90.0168L60.7227 90.017C60.6433 90.0173 60.5629 90.0177 60.4815 90.0182C59.1031 90.0265 57.467 90.0363 56.3285 89.2166C55.5285 87.4166 58.2285 84.7666 59.6785 83.9666C59.5575 83.2812 58.5912 82.6933 57.8282 82.2291C57.6451 82.1177 57.4737 82.0134 57.3285 81.9166C57.2455 81.8811 57.1569 81.8343 57.0647 81.7855C56.7679 81.6288 56.4337 81.4522 56.1285 81.5666C55.1285 82.2166 54.3285 83.2166 53.6285 84.1666ZM94.4787 39.0166C91.3287 37.5166 92.5287 36.8166 95.0287 35.6666C98.2787 34.2666 101.779 33.5666 105.329 33.6166C106.089 33.6589 106.706 34.1645 107.301 34.6519L107.301 34.652L107.301 34.652L107.301 34.6521L107.302 34.653C107.412 34.7425 107.52 34.8314 107.629 34.9166C107.648 34.9364 107.682 34.9675 107.724 35.0064C108.002 35.2628 108.65 35.86 108.129 35.8166C106.429 35.6666 104.679 35.6666 102.979 35.9666C101.308 36.259 97.3354 37.0048 95.4599 38.2041C96.4394 38.2109 98.0936 38.2982 100.028 38.4166C106.078 38.6666 114.828 38.9666 114.028 36.3166C113.178 36.0166 112.378 35.6666 111.778 35.0166C111.628 34.9166 111.128 34.3666 111.678 34.5666C113.828 35.0166 118.678 38.3666 114.228 39.3666C112.628 39.7666 110.978 39.9166 109.378 39.9166H109.328C107.042 39.9166 104.737 39.8186 102.436 39.7207C101.063 39.6623 99.6923 39.604 98.3285 39.5666H97.2785L97.2021 39.5668L97.1068 39.5671C96.3584 39.5704 95.5822 39.5739 94.9785 39.0166C94.9058 38.9621 94.8182 38.896 94.7301 38.8253C94.6929 38.8718 94.659 38.919 94.6287 38.9666C94.5953 39 94.562 39.0166 94.5287 39.0166H94.4787ZM103.779 53.6166C99.7286 51.8166 95.0786 48.4166 93.6786 43.9666C93.2786 42.6666 93.2286 41.3166 93.2786 39.9666V39.7666C93.2536 39.7166 93.2036 39.6791 93.1536 39.6416C93.1036 39.6041 93.0536 39.5666 93.0286 39.5166C93.3786 39.2166 94.2285 39.9666 94.4785 40.2166C94.8269 40.755 94.9346 41.3737 95.0429 41.9963L95.043 41.9964L95.043 41.9965L95.043 41.9966L95.043 41.9967L95.043 41.9968C95.1057 42.357 95.1686 42.7185 95.2786 43.0666C95.6786 44.8666 96.3285 46.5666 97.3785 48.0666C98.5785 49.7666 100.179 51.1666 102.129 51.9166C103.979 52.7666 106.079 53.2166 108.079 52.8166C110.679 52.2666 113.379 50.8166 114.679 48.4166C115.427 46.7803 115.519 45.0127 115.609 43.2776C115.616 43.1571 115.622 43.0367 115.629 42.9166C115.662 42.5499 115.679 42.2 115.679 41.8666C115.679 41.8436 115.676 41.8153 115.673 41.7847C115.663 41.6825 115.652 41.5551 115.729 41.5166C115.779 41.4666 115.979 41.5166 116.029 41.5666C116.328 41.6666 116.578 41.8165 116.828 41.9664L116.829 41.9666C116.874 41.9969 116.92 42.0271 116.965 42.0574L116.966 42.0577L116.966 42.058L116.967 42.0582L116.967 42.0585L116.967 42.0588C117.527 42.4292 118.105 42.8127 118.429 43.3666C118.466 44.1166 118.419 44.8666 118.372 45.6166C118.357 45.8666 118.341 46.1166 118.329 46.3666C118.179 49.0166 117.329 51.4666 115.029 52.9666C113.129 54.3166 111.179 54.9666 109.179 54.9666C109.021 54.9666 108.864 54.9628 108.708 54.9553L108.787 55.0224L108.833 55.0615L108.836 55.0635L108.836 55.0637C108.918 55.1331 108.999 55.2014 109.078 55.2666L109.089 55.3093C109.563 55.6553 109.995 56.0415 110.078 56.1667C110.283 56.3367 110.232 56.5994 110.179 56.8759C110.154 57.0058 110.128 57.1388 110.128 57.2667C110.107 57.8204 110.078 58.3933 110.048 58.9798L110.048 58.9801L110.048 58.9805L110.048 58.981C110.015 59.6293 109.981 60.294 109.956 60.9673C110.031 62.1564 110.037 63.3572 109.96 64.5508C110.137 67.837 110.924 71.0039 113.428 73.1667C114.678 73.7667 115.928 74.3667 116.828 75.4167C116.978 75.5167 117.178 75.8667 116.928 75.8667H116.828C116.684 75.8102 116.541 75.7531 116.401 75.6953C116.446 75.7761 116.468 75.8579 116.429 75.9166C113.229 75.1166 109.879 75.5167 106.729 76.4667C106.317 76.5696 105.905 76.6942 105.493 76.8187C104.505 77.1177 103.517 77.4166 102.529 77.4166C102.229 77.4166 101.929 77.3833 101.629 77.3166C101.279 77.3666 99.1786 75.8167 99.8286 75.7167C99.9355 75.7434 100.042 75.765 100.149 75.7819L100.128 75.7666C99.3785 75.1666 98.8785 74.6166 99.7285 74.7166C102.878 74.8666 104.878 71.7166 106.078 69.2166C106.804 67.6127 107.249 65.9412 107.494 64.2403C107.248 61.9412 107.348 59.4276 107.54 56.7383C107.506 56.494 107.467 56.2513 107.428 56.0097L107.428 56.009C107.361 55.5972 107.295 55.1887 107.258 54.7813C106.113 54.5639 104.966 54.1624 103.779 53.6166ZM106.787 74.2674C108.21 73.9219 109.682 73.7028 111.129 73.6666C111.667 73.6521 112.214 73.6672 112.749 73.7329C111.067 72.5467 109.879 71.1814 109.054 69.6572C108.725 70.7304 108.304 71.7723 107.778 72.7666C107.488 73.2599 107.158 73.7755 106.787 74.2674ZM108.429 51.9166C103.579 51.3666 100.229 47.2666 97.6787 43.4666C97.6787 42.9166 99.4787 44.1666 99.6787 44.3166C100.544 45.0681 101.203 46.0045 101.828 46.891C103.406 49.1307 104.76 51.0517 108.629 48.8666C108.591 48.8478 108.56 48.8146 108.531 48.7834C108.484 48.7319 108.441 48.6855 108.379 48.7166C107.829 48.9166 107.229 49.1166 106.679 49.0666C105.229 48.8166 103.979 47.7666 103.029 46.7166C102.906 46.4397 102.631 46.3143 102.357 46.1888C102.185 46.1104 102.013 46.032 101.879 45.9166C101.789 45.8421 101.672 45.7542 101.543 45.6573C100.805 45.1042 99.6747 44.257 101.079 43.9166C100.977 43.8379 100.864 43.7592 100.746 43.6776C100.339 43.3965 99.8837 43.0817 99.7287 42.6166C99.7645 42.5092 99.9285 42.4787 100.074 42.4517C100.131 42.441 100.186 42.4308 100.229 42.4166C101.879 42.3166 103.529 42.3666 105.179 42.4166H105.179C108.229 42.4666 111.579 42.6666 113.929 44.8166C115.224 45.9028 114.18 47.5125 113.364 48.7709C113.204 49.0187 113.052 49.2528 112.929 49.4666C111.929 50.8666 110.329 51.9166 108.579 51.9166H108.429Z" fill="black"/>
</svg>
