<svg width="254" height="241" viewBox="0 0 254 241" fill="none" xmlns="http://www.w3.org/2000/svg">
<path fill-rule="evenodd" clip-rule="evenodd" d="M122.738 5.85001C123.888 4.35001 125.038 2.6 124.988 0.75C127.788 2.35 130.738 4.70001 131.988 7.85001C132.538 9.30001 132.238 10.9 131.388 12.15C130.788 12.5 129.488 11.2 129.088 10.7C131.388 7.45001 129.888 4.54999 126.788 2.39999C126.643 4.20592 125.869 5.41722 125.12 6.58845C124.065 8.2384 123.061 9.80881 123.938 12.85C121.138 11.85 121.388 7.95001 122.738 5.85001ZM124.138 36.4501C123.938 35.0751 123.763 33.6876 123.588 32.3001C123.413 30.9126 123.238 29.5251 123.038 28.1501C122.961 27.0622 122.739 25.9415 122.515 24.8123L122.515 24.8122C122.009 22.2567 121.494 19.6582 122.638 17.3001C123.053 16.1793 123.641 16.7472 124.229 17.3157L124.229 17.3158L124.229 17.316C124.349 17.4322 124.469 17.5483 124.588 17.6501C125.161 17.9492 124.952 18.6334 124.672 19.548C124.39 20.4681 124.037 21.6214 124.338 22.8501C124.586 24.9558 124.89 27.1304 125.195 29.3119C125.752 33.2944 126.312 37.2997 126.538 40.9501C124.549 40.254 124.34 38.3217 124.141 36.4809L124.138 36.4501ZM129.238 45.8002C126.338 43.0502 118.988 44.5502 125.488 48.2002C126.059 48.4541 126.64 48.6364 127.225 48.7622C127.264 51.1401 127.551 53.512 127.838 55.8502C128.338 60.1002 128.838 64.3502 128.888 68.6502L128.884 68.8427V68.843V68.8434V68.8437V68.8439V68.8442V68.8445V68.8447V68.8449V68.8451V68.8453V68.8455V68.8457V68.846V68.8462V68.8463C128.877 69.2039 128.87 69.5396 128.872 69.8555C128.119 69.0684 127.277 68.3963 126.738 68.0499C124.588 66.5999 122.088 66.9499 119.588 67.2999C117.238 67.6499 114.888 67.9499 112.888 66.7499C112.49 65.904 112.315 64.9715 112.141 64.0447L112.141 64.0446L112.141 64.0446L112.141 64.0445L112.141 64.0444L112.141 64.0444L112.141 64.0443L112.141 64.0442L112.14 64.0442L112.14 64.0441L112.14 64.044L112.14 64.0439L112.14 64.0439L112.14 64.0438L112.14 64.0437L112.14 64.0437L112.14 64.0436L112.14 64.0435L112.14 64.0435L112.14 64.0434L112.14 64.0433L112.14 64.0432L112.14 64.0431L112.14 64.0431L112.14 64.043L112.14 64.0429L112.14 64.0428C111.999 63.2902 111.858 62.5414 111.599 61.846C112.445 61.834 113.292 61.7976 114.138 61.7612L114.138 61.7612C114.655 61.739 115.172 61.7168 115.688 61.7001C115.838 61.7001 116.038 61.7001 115.988 61.5501C114.838 59.6001 113.388 59.6001 111.338 59.7501H111.088C111.063 59.7501 111.038 59.7509 111.013 59.7517H111.013H111.013C110.84 59.7571 110.682 59.7621 110.638 59.5001C109.288 57.5501 106.788 56.6001 104.488 56.9501C103.838 57.0501 102.888 57.2501 102.888 58.0501C103.638 60.2001 106.238 61.5001 108.438 61.7501C108.754 61.7865 109.069 61.8141 109.385 61.8328C109.595 62.9006 109.859 63.9612 110.338 64.9499C113.538 70.8499 118.488 70.1999 122.488 69.5999L122.763 69.5572C126.184 69.0244 128.895 68.6024 129.138 72.4499C128.638 72.4999 129.988 73.6499 130.188 73.6499C130.257 73.5716 130.314 73.4896 130.36 73.4045C130.991 77.9408 131.538 82.4846 131.538 87.0502C131.838 94.4002 125.988 99.5502 120.488 103.5C119.638 104 122.138 105.75 122.688 105.95C122.894 105.827 123.101 105.7 123.307 105.57C126.47 107.857 132.677 108.051 137.589 108.204C139.357 108.26 140.958 108.31 142.188 108.45H142.288C142.688 108.45 142.388 107.9 141.788 107.35C141.088 106.7 140.038 106.1 139.238 106.35C137.973 106.282 136.689 106.255 135.4 106.228C131.627 106.149 127.806 106.069 124.239 104.961C127.609 102.673 130.798 99.5638 132.505 95.8769C133.455 100.563 137.226 104.52 141.688 106.1C142.838 106.45 144.088 106.6 145.288 106.6C145.955 106.6 146.622 106.567 147.288 106.5C147.094 105.527 145.952 104.744 145.154 104.195L145.088 104.15C144.738 104.1 144.388 104.1 143.988 104.15H143.188C134.538 105.1 133.288 95.4001 134.238 88.9001C134.266 88.8297 134.279 88.7235 134.292 88.6096C134.326 88.3191 134.365 87.9783 134.688 88.0501C134.738 88.1001 134.888 88.1501 134.838 88.0001C134.311 87.2138 133.888 86.8746 133.549 86.8569C133.15 82.8412 132.486 78.8627 131.823 74.8909L131.823 74.8905L131.823 74.8877L131.822 74.885L131.822 74.8823L131.821 74.8795L131.821 74.8768L131.821 74.874C131.687 74.0714 131.553 73.269 131.421 72.4666C133.135 69.0728 135.953 68.7145 139.07 68.3182C140.232 68.1704 141.435 68.0175 142.638 67.7001C146.725 66.6037 150.364 63.3715 151.081 59.1421C151.168 59.1474 151.254 59.1501 151.338 59.1501C151.638 59.1501 151.905 59.1168 152.138 59.0502C154.538 59.4002 151.788 57.3502 151.038 57.0002C150.638 56.9502 150.238 56.9502 149.838 56.9502C149.438 56.9501 149.038 56.9501 148.638 56.9001C149.668 56.2287 150.978 56.3988 152.138 56.5495C152.273 56.5671 152.407 56.5844 152.538 56.6002C151.788 54.7002 149.338 54.1001 147.388 54.4001C144.158 54.9559 145.777 57.0315 148.14 58.2474C147.364 59.987 146.445 61.7121 144.888 62.9001C142.61 65.125 139.813 65.5539 137.144 65.9633C134.99 66.2935 132.919 66.6111 131.271 67.8486C131.062 65.5269 130.688 63.1717 130.312 60.8088V60.8087V60.8085V60.8084V60.8082V60.8081V60.808V60.8078V60.8077V60.8076V60.8074V60.8073C129.683 56.8501 129.05 52.8714 129.187 48.993C129.337 48.9978 129.488 49.0001 129.638 49.0001C131.388 49.0001 133.188 48.7002 134.888 48.3502C135.688 48.1502 133.388 46.4502 132.938 46.4502L132.887 46.4607C130.252 47.0078 127.421 47.5954 124.738 46.8502C125.288 45.4002 127.638 45.6502 128.888 45.9502C128.947 45.9619 129.016 45.9847 129.084 46.0068C129.305 46.079 129.506 46.1445 129.238 45.8002ZM128.467 36.9682L128.488 37.2001C128.496 37.358 128.502 37.5154 128.509 37.6718C128.586 39.5441 128.658 41.2656 130.688 42.0501C130.711 38.9038 130.422 35.5913 130.129 32.2356C129.78 28.232 129.425 24.167 129.588 20.25C129.538 19.7 127.888 18.1 127.388 18.35C127.388 20.3 127.438 22.25 127.538 24.2C127.686 28.4721 128.074 32.696 128.467 36.9663L128.467 36.9678L128.467 36.9682ZM103.722 48.9021C103.759 49.7697 103.795 50.6361 103.838 51.5C103.845 51.8026 103.843 52.092 103.842 52.3682C103.832 54.1004 103.825 55.317 105.938 56.05C106.438 49.7001 105.288 42.5 104.238 35.95C103.788 35.35 103.038 34.65 102.238 34.55C102.291 35.4281 102.458 36.2919 102.625 37.1567V37.1567V37.1568V37.1568V37.1569V37.1569V37.157V37.1571V37.1571V37.1572V37.1572V37.1573V37.1573V37.1574V37.1575V37.1575V37.1576V37.1576V37.1577V37.1577V37.1578V37.1579V37.1579V37.158V37.158V37.1581V37.1581V37.1582V37.1583V37.1583V37.1584V37.1584V37.1585C102.771 37.9182 102.918 38.6787 102.988 39.45C103.459 42.5861 103.591 45.7528 103.722 48.9021ZM108.588 55.5C108.316 52.7388 108.255 49.9777 108.195 47.2165C108.178 46.4277 108.16 45.6388 108.138 44.85C108.138 41.7 107.788 38.55 107.438 35.45C107.238 34.5 109.138 36.15 109.388 36.4C109.966 38.7897 110.128 41.417 110.287 43.9843V43.9845V43.9846V43.9847V43.9848V43.9849C110.334 44.7478 110.381 45.5055 110.438 46.25C110.417 47.8931 110.523 49.6364 110.628 51.3671C110.77 53.6917 110.91 55.9937 110.738 58C109.738 57.55 108.438 56.8 108.588 55.5ZM100.709 20.4042C100.603 20.6368 100.501 20.8585 100.388 21.0001C97.5881 25.2501 100.388 29.3001 104.488 31.0501C104.993 31.0501 104.532 30.5973 104.231 30.3016C104.145 30.2167 104.072 30.1447 104.038 30.1001C100.688 28.3501 101.938 24.5501 103.238 21.8001C103.628 22.0435 104.011 22.2666 104.381 22.4817C106.67 23.8125 108.427 24.8343 107.738 28.4501C107.564 29.2319 108.523 29.7873 109.203 30.1819C109.306 30.2416 109.403 30.2976 109.488 30.3501C109.96 30.7043 109.968 30.2222 109.974 29.8302C109.976 29.7241 109.977 29.6246 109.988 29.5501C110.138 25.8001 107.188 23.1501 104.038 21.7001C103.588 20.8001 102.838 20.0001 101.888 19.5501C101.279 19.1558 100.978 19.8151 100.709 20.4042ZM146.688 51.1001C146.668 50.3002 146.664 49.5002 146.66 48.7003C146.654 47.5002 146.648 46.3002 146.588 45.1001C146.53 43.1022 146.355 41.1044 146.179 39.0968C146.051 37.6376 145.922 36.1733 145.838 34.7001C146.438 34.6501 147.138 35.5001 147.488 35.9501C147.563 36.4969 147.588 37.0561 147.613 37.6092V37.6096V37.61C147.638 38.1693 147.663 38.7223 147.738 39.2501C147.805 40.4461 147.901 41.671 147.998 42.9053C148.262 46.2637 148.531 49.6924 148.238 52.8001C147.588 52.4501 146.688 51.9001 146.688 51.1001ZM151.412 44.845C151.42 45.7131 151.428 46.5815 151.438 47.45C151.338 50.05 151.438 51.25 154.088 52.4C154.554 49.7289 154.422 46.5947 154.291 43.4889V43.4888V43.4886V43.4885V43.4884V43.4882V43.4881V43.488C154.211 41.5943 154.131 39.7112 154.188 37.95C154.105 37.4172 154.144 36.829 154.182 36.2388C154.26 35.0567 154.339 33.867 153.438 33.1C150.924 31.0709 150.939 31.2599 151.115 33.461L151.115 33.4615L151.115 33.4627L151.115 33.4653L151.116 33.4711L151.116 33.4733L151.116 33.478C151.139 33.7677 151.165 34.0918 151.188 34.45C151.348 37.8915 151.38 41.3651 151.412 44.845ZM149.788 26.2002C150.588 24.5002 151.288 22.2502 149.938 20.6002C149.447 20.2567 148.935 19.9346 148.421 19.6112C147.363 18.9459 146.296 18.2749 145.388 17.4001C143.338 20.1501 142.738 24.2502 145.088 27.0502C145.238 27.1502 145.238 27.4502 144.988 27.3002C142.088 25.4002 140.938 21.1502 142.338 18.0002C142.457 17.7768 142.554 17.5003 142.654 17.2155L142.654 17.2154C142.89 16.5436 143.141 15.8257 143.738 15.6501C144.449 15.844 144.993 16.3303 145.532 16.812C145.826 17.0757 146.12 17.3379 146.438 17.5502C146.849 17.8288 147.272 18.0945 147.697 18.3612C148.721 19.0038 149.755 19.6521 150.638 20.5002C152.838 22.3002 153.888 26.0502 152.038 28.3002C151.138 27.8502 150.138 27.1002 149.788 26.2002ZM77.9024 101.197L77.8881 101.2C77.8711 101.676 77.8368 102.147 77.7852 102.614C77.4733 105.289 76.6402 107.863 75.0881 110.05C74.0659 111.413 72.5356 112.268 71.0846 113.079C70.8324 113.22 70.5825 113.359 70.3381 113.5C71.0881 114.75 72.6382 115.5 73.9882 116C79.7874 114.494 81.616 108.705 81.6314 103.119C86.5005 102.15 91.3609 101.288 95.8043 100.522C95.8434 102.056 95.8241 103.593 95.8048 105.122V105.122V105.122V105.122V105.123V105.123V105.123V105.123V105.123V105.124V105.124V105.124V105.124V105.124V105.124V105.125V105.125V105.125V105.125C95.7898 106.324 95.7747 107.517 95.7881 108.7C95.681 109.093 95.2935 108.95 94.9351 108.818C94.7915 108.766 94.6525 108.714 94.5381 108.7C92.8381 108.3 85.838 107.1 90.588 110C93.6224 111.376 97.0303 111.607 100.39 111.834H100.39L100.39 111.834L100.39 111.834L100.391 111.834H100.391C101.792 111.929 103.184 112.024 104.538 112.2C104.605 112.233 104.655 112.25 104.688 112.25C104.888 112.25 104.838 112 104.638 111.85C103.237 110.341 102.016 110.252 100.68 110.155H100.68C100.156 110.116 99.615 110.077 99.0381 109.95C99.4527 109.294 99.3897 108.518 99.3278 107.754L99.3278 107.754C99.3001 107.413 99.2726 107.074 99.2881 106.75C99.2501 106.042 99.2186 105.331 99.187 104.619C99.1187 103.078 99.05 101.529 98.9156 99.9893L99.7363 99.8493C104.657 99.0097 108.818 98.2999 111.538 97.7002C111.905 97.6335 112.272 97.5654 112.638 97.4974L112.639 97.4973C114.472 97.1571 116.305 96.8168 118.138 96.6502C119.388 96.5502 116.138 94.7502 115.888 94.7002C110.125 95.3581 104.363 96.2323 98.6095 97.2291C98.5954 97.1175 98.5738 97.0074 98.5381 96.9001C98.404 96.7295 98.2551 96.5737 98.0956 96.4292C100.244 96.0083 102.324 94.5429 103.588 92.9C104.188 91.5 104.688 89.8 104.638 88.3C104.128 87.7903 103.538 87.3286 102.905 86.9606C103.55 86.5483 104.074 85.9891 104.238 85.2501C104.238 84.5855 103.306 84.0934 102.647 83.7452L102.647 83.7451L102.645 83.7444C102.512 83.6738 102.389 83.6091 102.288 83.5501C101.988 83.4001 101.688 83.3001 101.338 83.4001C100.805 83.4668 100.272 83.5779 99.7384 83.689C99.4716 83.7445 99.2049 83.8001 98.9382 83.8501C98.1715 83.9835 97.3881 84.0834 96.5882 84.1501C95.9675 84.1828 95.3468 84.2208 94.7244 84.2589L94.724 84.2589C93.4412 84.3375 92.151 84.4165 90.8382 84.4501C90.6381 84.6001 91.7382 85.2001 91.9382 85.2501C92.7382 85.3001 93.5381 85.3001 94.3382 85.3001C94.7715 85.2668 95.1881 85.2501 95.5882 85.2501C95.9276 85.2501 96.2671 85.2521 96.6062 85.2541L96.6089 85.2541C97.9669 85.2621 99.3185 85.2701 100.638 85.1501L100.838 85.1001C99.4882 86.0001 97.8382 86.2001 96.2382 86.2501C93.8882 86.2501 91.6382 85.5501 89.5382 84.6001C89.5135 84.6001 89.4586 84.585 89.392 84.5666C89.1882 84.5104 88.8751 84.424 88.9882 84.6501C89.0399 84.7125 89.0941 84.7739 89.1507 84.8342C89.1488 84.8756 89.1601 84.93 89.1882 85C89.5193 86.0848 89.7462 87.1827 89.9669 88.2513C90.6969 91.7841 91.3608 94.9972 95.5095 96.3627C95.5684 96.8243 95.6169 97.2873 95.6567 97.7513C90.9314 98.6028 86.2135 99.5264 81.5082 100.47C81.4227 99.5639 81.296 98.6835 81.1381 97.85C80.7856 95.4056 79.6265 93.2485 78.4711 91.0982C77.1685 88.6741 75.8706 86.2586 75.7382 83.45C74.9382 82.7 73.7881 81.85 72.6381 81.75C72.5381 83.2 73.0881 84.7 73.6381 86.05C74.0667 87.0909 74.5953 88.0902 75.1253 89.092C75.8936 90.5444 76.6647 92.0022 77.1381 93.6C77.7194 96.0145 78.0307 98.6288 77.9024 101.197ZM162.938 131.05C159.105 131.05 155.288 131 151.488 130.9C150.923 130.88 150.314 130.859 149.664 130.837C127.166 130.067 55.0375 127.597 44.6381 113.65C42.8973 110.57 54.9842 106.693 63.0757 104.509C62.2076 101.284 61.5305 98.0131 61.9382 94.65C61.8501 92.4698 63.1587 90.6 64.4415 88.7671C66.0712 86.4386 67.6591 84.1698 66.2881 81.4C66.2881 81.375 66.2632 81.35 66.2382 81.325C66.2132 81.3 66.1882 81.275 66.1882 81.25C66.2382 81.15 66.3381 81.2 66.3381 81.2C68.3381 81.65 69.2382 83.8 68.9882 85.7C68.8548 87.4333 68.0104 88.9444 67.1659 90.4556C66.7437 91.2111 66.3215 91.9667 65.9882 92.75C64.5103 96.4317 64.9147 100.127 65.7861 103.801L65.7881 103.8C66.0215 104.733 66.2715 105.683 66.5381 106.65L66.5329 106.651C66.6111 106.933 66.6899 107.213 66.7686 107.494L66.7706 107.501C67.3775 109.665 67.9812 111.817 68.2881 113.95C68.2548 113.983 68.2048 114 68.1381 114C68.1048 114 68.0715 113.983 68.0381 113.95C65.1052 112.956 64.8905 111.863 64.3476 109.098L64.3381 109.05C64.1927 108.503 64.0406 107.956 63.8862 107.408C56.3843 109.644 50.511 112.251 48.5381 115.3C48.6139 117.042 53.5954 118.268 56.9198 119.086C57.9843 119.348 58.8788 119.568 59.3881 119.75C67.1381 121.65 75.0881 122.9 82.9881 123.9C111.438 127.15 140.088 128.85 168.688 128.1C177.538 127.8 186.338 127.15 195.038 125.5C201.188 124.2 222.588 119.25 208.738 111.95C200.088 107.65 190.488 105.85 180.938 104.55C179.446 104.376 177.942 104.202 176.437 104.028L176.413 104.025L176.389 104.022C174.885 103.848 173.38 103.674 171.888 103.5C171.451 103.441 171.006 103.404 170.559 103.367C169.115 103.248 167.66 103.128 166.438 102.25C166.331 102.197 165.895 101.928 165.445 101.61C164.981 101.797 164.496 101.9 163.988 101.9H163.983C164.797 105.589 165.026 109.418 164.338 113.15C164.733 113.183 165.15 113.173 165.588 113.162C165.816 113.156 166.049 113.15 166.288 113.15C168.788 113.05 171.338 112.95 173.138 115.05C173.338 115.2 173.488 115.5 173.188 115.5H173.038C170.488 115.4 167.888 115.4 165.288 115.45C164.772 115.45 164.255 115.451 163.738 115.453H163.738C161.155 115.46 158.571 115.467 155.988 115.3C155.338 115.25 152.188 113.55 152.788 112.9C155.388 112.55 158.088 112.6 160.638 113.15C161.989 109.331 162.472 105.295 161.804 101.285C159.318 100.133 157.083 98.1882 156.038 95.5502C155.941 95.2661 155.837 94.9764 155.732 94.6825C155.132 93.0106 154.483 91.2011 154.738 89.5002C155.638 89.6002 157.088 90.4502 157.538 91.2502C157.688 94.2502 158.938 97.3502 160.738 99.7002C163.935 99.0963 165.82 95.489 167.522 92.2315C167.792 91.7143 168.058 91.2058 168.323 90.7196C167.411 90.8122 166.448 90.8499 165.538 90.8499H164.688C164.313 90.8355 163.936 90.8242 163.558 90.8129C161.314 90.7456 159.035 90.6773 156.938 89.9499C155.588 89.3999 151.438 87.4499 154.188 86.0999C158.538 84.1499 164.488 83.1999 168.338 86.6499C168.938 87.1999 168.188 87.0999 167.838 86.9499C166.588 86.6499 165.238 86.6999 163.988 86.7499C161.638 86.8999 159.288 87.4499 157.188 88.5499C156.859 88.7326 157.812 88.7818 158.447 88.8146L158.447 88.8146L158.447 88.8146L158.448 88.8146L158.448 88.8147L158.449 88.8147L158.449 88.8147L158.449 88.8147L158.45 88.8148L158.45 88.8148L158.451 88.8148L158.451 88.8148L158.451 88.8148L158.452 88.8149L158.452 88.8149L158.453 88.8149C158.684 88.8269 158.871 88.8366 158.938 88.8499C161.638 89.0999 174.438 89.6999 167.788 84.8499C167.088 83.9499 169.188 85.0499 169.388 85.1999C172.313 87.0687 173.018 88.3516 172.503 89.2162C173.064 89.5991 173.496 90.0291 173.538 90.4502C172.923 91.3067 172.278 92.5249 171.578 93.8499C170.298 96.2692 168.831 99.0444 167.006 100.623C178.52 101.766 190.15 103.121 200.988 107.25C205.488 109.05 223.888 116.9 215.988 122.7C207.888 127.5 198.238 128.8 188.988 129.9C180.388 130.75 171.688 131.05 163.038 131.05H162.938ZM133.91 209.023C136.526 212.604 139.577 216.78 145.288 219.25C147.438 220.4 149.638 220.9 151.788 220.9C158.538 220.9 164.938 216 168.938 210.5C169.207 210.184 169.492 209.826 169.791 209.45C171.717 207.027 174.259 203.83 177.288 205.95C177.485 206.138 177.684 206.328 177.884 206.519C184.229 212.58 192.036 220.037 201.488 218.05C206.088 217.05 210.238 214 212.188 209.7C214.209 204.998 214.327 199.902 214.444 194.861C214.477 193.416 214.51 191.976 214.588 190.55C214.73 188.223 214.911 185.893 215.092 183.56C215.677 176.022 216.264 168.461 215.538 160.9C215.448 159.31 215.304 157.72 215.16 156.13C215.064 155.07 214.968 154.01 214.888 152.95C214.845 152.688 214.839 152.406 214.833 152.12C214.82 151.424 214.806 150.711 214.238 150.25C213.838 149.9 210.288 146.8 210.388 148.35C210.588 151.017 210.788 153.7 210.988 156.4C211.739 163.747 211.218 171.074 210.699 178.394V178.394V178.394V178.394V178.395V178.395V178.395V178.395V178.395V178.395V178.395V178.395V178.396V178.396V178.396V178.396V178.396V178.396V178.396V178.397V178.397V178.397V178.397V178.397V178.397C210.387 182.783 210.076 187.167 210.038 191.55C210.008 192.392 209.99 193.243 209.972 194.099L209.972 194.101C209.873 198.886 209.771 203.817 207.438 208.1C203.238 215.55 192.238 218.25 185.638 212.3C184.296 211.242 182.989 210.006 181.7 208.787C176.409 203.784 171.428 199.073 165.638 208.2C160.438 215.55 149.638 222.7 141.288 215.9C139.309 214.305 137.858 212.257 136.405 210.204L136.405 210.204L136.405 210.204L136.405 210.204L136.405 210.204L136.405 210.203L136.405 210.203L136.405 210.203L136.404 210.203L136.404 210.203L136.404 210.203L136.404 210.203L136.404 210.203L136.404 210.203L136.404 210.203L136.404 210.203L136.404 210.202L136.404 210.202L136.404 210.202L136.403 210.202L136.403 210.202L136.403 210.202L136.403 210.202L136.403 210.202L136.403 210.202C135.214 208.522 134.023 206.84 132.538 205.4C128.038 200.95 120.488 198 115.188 202.9C113.781 203.794 112.062 205.287 110.174 206.927L110.174 206.927C104.885 211.522 98.2653 217.272 93.4382 214.25C89.3626 210.725 87.5788 205.717 85.8099 200.751L85.8099 200.751C85.17 198.954 84.532 197.163 83.7882 195.45C82.5882 193.65 80.3382 191.9 78.1382 191.95C77.2461 192.21 76.6304 192.968 76.0445 193.689C75.8423 193.937 75.6435 194.182 75.4382 194.4C74.1331 195.854 72.8837 197.528 71.6099 199.234L71.6098 199.235L71.6096 199.235L71.6095 199.235L71.6094 199.235L71.6092 199.235L71.6091 199.235L71.6089 199.236L71.6088 199.236L71.6087 199.236L71.6085 199.236L71.6084 199.236L71.6083 199.237L71.6081 199.237L71.608 199.237L71.6078 199.237L71.6077 199.237L71.6076 199.237L71.6074 199.238L71.6073 199.238L71.6072 199.238L71.607 199.238C67.7577 204.395 63.6863 209.849 57.1882 210.45C49.668 199.488 49.4045 175.927 49.219 159.338C49.1862 156.404 49.1558 153.689 49.0882 151.3C49.0382 142.65 49.0882 133.95 49.3882 125.3C49.3971 125.144 49.4069 124.998 49.416 124.861C49.5088 123.474 49.5361 123.065 47.9882 122.2C47.8015 122.092 47.6128 121.974 47.4215 121.855L47.4212 121.855C46.6391 121.366 45.812 120.85 44.8882 120.85C44.8633 121.598 44.8756 122.37 44.8881 123.148V123.148V123.149V123.149V123.149V123.149V123.149V123.149V123.149V123.149V123.149V123.149V123.149V123.149V123.149V123.149V123.149V123.15V123.15V123.15V123.15V123.15V123.15V123.15V123.15V123.15V123.15V123.15V123.15V123.151V123.151V123.151V123.151V123.151V123.151V123.151V123.151V123.152V123.152V123.152V123.152V123.152V123.152V123.152V123.152V123.152V123.153V123.153V123.153C44.9006 123.935 44.9133 124.724 44.8882 125.5C44.7382 135.1 44.6882 144.75 44.6882 154.35C44.7424 156.928 44.7667 159.527 44.791 162.137C44.9237 176.381 45.0596 190.955 50.0882 204.35C51.6882 208.25 54.9882 211.1 58.7882 212.8C66.4148 216.154 72.3514 207.518 76.9545 200.822C78.1153 199.134 79.1913 197.569 80.1882 196.35C80.2351 196.303 80.3163 196.183 80.4087 196.046L80.4089 196.046L80.4091 196.045C80.6121 195.744 80.8695 195.363 80.9382 195.5C81.2602 196.412 81.5534 197.339 81.8487 198.272C82.1036 199.078 82.3602 199.889 82.6382 200.7C84.8882 208.2 90.2382 214.95 97.7882 217.55C103.355 219.406 108.329 214.544 113.162 209.82C116.273 206.78 119.325 203.797 122.438 202.7C128.233 201.251 130.755 204.704 133.91 209.023ZM85.1882 183.6C85.3632 182.275 85.5507 180.963 85.7382 179.65C85.9257 178.338 86.1132 177.025 86.2882 175.7C86.8882 171.3 86.9882 166.85 86.9382 162.4C86.8882 156.75 86.4882 151.15 85.7382 145.55C85.7117 145.085 85.6604 144.61 85.6088 144.131C85.4662 142.808 85.321 141.462 85.6882 140.25C86.7382 140.4 87.9882 141.1 88.5882 141.95C88.5882 141.983 88.5715 142.017 88.5382 142.05C88.2621 145.308 88.7026 148.582 89.1441 151.862C89.502 154.522 89.8606 157.186 89.8382 159.85C90.1882 168.3 90.2382 177.6 88.1882 185.55C87.0882 185.15 85.8382 184.55 85.1882 183.6ZM132.588 179.3V192.05C132.583 192.386 132.572 192.697 132.562 192.987C132.484 195.285 132.452 196.218 135.338 197.15C135.763 191.056 135.701 184.676 135.638 178.245C135.576 171.801 135.513 165.307 135.938 159C136.138 155.35 136.488 151.65 137.188 148.1C136.538 147.3 135.488 146.7 134.488 146.45C134.148 147.266 134.016 148.245 133.888 149.196V149.196C133.828 149.643 133.768 150.085 133.688 150.5C132.724 158.508 132.674 166.586 132.624 174.646V174.646V174.646V174.646V174.647V174.647V174.647V174.647V174.647V174.647V174.647V174.647V174.648V174.648V174.648V174.648V174.648V174.648V174.648V174.649V174.649V174.649V174.649C132.614 176.201 132.604 177.751 132.588 179.3ZM169.538 192.55C168.538 192.2 167.338 191.65 166.738 190.75C166.771 188.117 166.771 185.5 166.738 182.9C166.738 177.25 166.638 171.6 166.388 165.95C166.088 160.15 165.888 154.35 165.788 148.55C165.837 148.305 165.795 147.57 165.747 146.71C165.646 144.935 165.516 142.63 166.088 143C166.138 143.022 166.189 143.044 166.241 143.066L166.322 143.101C167.465 143.589 169.015 144.252 168.688 145.7C168.688 149.05 168.738 152.4 168.838 155.75C168.949 159.146 169.098 162.546 169.248 165.948C169.637 174.816 170.027 183.696 169.738 192.55H169.638H169.538ZM96.0882 87.8501C94.9085 87.582 93.3695 87.1845 91.9722 86.6037C92.1636 86.9763 92.3087 87.416 92.4382 87.95C92.7797 88.9065 93.0591 89.8836 93.3376 90.8579C93.6707 92.0229 94.0025 93.1837 94.4382 94.3C96.5882 93.7 99.1382 92.6 100.188 90.5C100.416 90.2035 100.582 89.2411 100.742 88.3105C100.773 88.1331 100.803 87.9568 100.833 87.7866C100.001 87.9735 99.1637 88.0501 98.2882 88.0501C97.5548 88.0501 96.8215 87.9835 96.0882 87.8501ZM73.2276 79.583C73.2825 79.6059 73.3361 79.6282 73.3881 79.6501H73.4882C73.5548 79.6501 73.5881 79.6334 73.5881 79.6001C73.4548 78.1001 73.3715 76.6001 73.3381 75.1001C73.2396 74.3611 73.3029 73.3523 73.3703 72.2776C73.5082 70.0803 73.6634 67.6074 72.4882 66.6001C71.0162 65.2508 69.1764 65.9746 67.4883 66.6386C67.1122 66.7866 66.7435 66.9316 66.3881 67.0501C65.5883 67.3978 65.9252 69.7771 66.1877 71.6312C66.3027 72.443 66.4034 73.1542 66.3881 73.5501C66.5034 73.9618 66.5373 74.444 66.5721 74.9377C66.6428 75.9431 66.7169 76.9965 67.4882 77.6001C69.4041 78.8774 69.3639 78.4899 69.1902 76.8173L69.1901 76.8157C69.1734 76.6555 69.1556 76.4835 69.1381 76.3001C69.0935 75.9353 69.0477 75.5694 69.0018 75.2025V75.2024V75.2023L69.0018 75.2022C68.7394 73.1054 68.4732 70.9777 68.3881 68.8501C68.8306 68.3055 69.5744 68.0853 70.2882 67.874C70.6228 67.7749 70.9509 67.6778 71.2382 67.5501C71.2382 68.8414 71.1693 70.1327 71.1003 71.424C70.9932 73.4327 70.886 75.4414 71.0381 77.4501C70.9436 78.6317 72.2788 79.1878 73.2276 79.583ZM69.2382 99.55C68.5882 99.5 65.6882 97.55 66.1882 97C67.6882 97.85 69.3882 97.95 71.0882 97.65C71.6048 97.6019 72.055 97.5135 72.4638 97.4331C73.7563 97.1792 74.6347 97.0065 75.8882 98.45C76.4616 99.0234 76.2298 99.06 75.7424 99.1369C75.6348 99.1539 75.5148 99.1729 75.3882 99.2C74.9363 99.2646 74.4791 99.35 74.0185 99.436L74.0184 99.4361C73.052 99.6166 72.0701 99.8 71.0882 99.8C70.4882 99.8 69.8382 99.75 69.2382 99.55ZM67.0381 104C67.8381 105.5 69.9381 107 71.5881 107.4C71.6577 107.4 71.8063 107.412 71.9999 107.428H71.9999H72C72.3622 107.458 72.882 107.5 73.3381 107.5C73.8881 107.5 74.3881 107.45 74.2881 107.25C73.6381 106.2 72.4881 105.45 71.3881 104.9C71.1837 104.877 70.9804 104.858 70.7787 104.839C69.6479 104.732 68.564 104.629 67.5881 103.95C67.4881 103.9 67.0881 103.75 67.0381 104ZM111.288 230.4C111.338 229.95 112.388 230.6 112.538 230.7C118.188 234.45 123.538 228.4 124.838 223.15C126.338 218.05 125.988 212.7 125.588 207.45C125.584 207.418 125.578 207.384 125.573 207.349L125.573 207.349C125.517 206.998 125.443 206.532 125.988 206.85C127.238 207.55 128.838 208.55 129.138 210C129.161 210.177 129.183 210.354 129.205 210.532L129.231 210.74L129.249 210.886C129.698 211.392 129.996 211.846 129.938 212.05C130.003 212.536 130.067 213.024 130.131 213.513C130.857 219.066 131.607 224.8 134.088 229.9C136.146 233.868 141.467 230.877 144.362 229.249L144.538 229.15C146.038 229.6 148.738 231.7 149.038 233.25C146.988 234.65 144.638 236.1 142.088 236.1C137.538 235.75 133.788 232.4 131.138 229C130.466 228 129.903 226.954 129.429 225.873C128.496 230.986 126.124 235.838 120.738 236.3C117.088 235.8 113.088 233.6 111.288 230.4ZM10.9056 182.402C7.0005 179.84 3.77606 176.296 1.83815 172C-1.05538 163.954 0.607339 153.708 2.0934 144.55C2.48191 142.156 2.85835 139.837 3.13814 137.65C8.98814 108 9.58816 86.65 2.78816 57C2.73816 56.95 2.68816 56.85 2.78816 56.8C2.83816 56.75 2.98816 56.8 3.03816 56.85C3.88816 57.25 4.73819 57.95 5.18819 58.75C5.48819 60.8 5.93819 62.8 6.43819 64.85C8.73819 73.9 10.5882 83.05 11.3382 92.4C13.2312 108.09 11.1711 123.615 9.10829 139.16C7.95653 147.839 6.80394 156.525 6.33815 165.25C6.23815 169.8 6.18816 177.6 10.7882 180C17.4882 182.85 24.9381 182.15 31.8881 181.2C32.9381 181.7 37.2381 184.8 36.1381 185.6C34.6128 186.071 33.0414 186.466 31.4409 186.724C31.6094 187.254 31.6832 187.841 31.7567 188.427C31.7958 188.738 31.8349 189.049 31.888 189.35L31.8882 189.351L31.8882 189.351C32.3382 192.201 32.7881 195.051 33.0881 197.9C33.6783 203.305 33.9211 208.73 34.1643 214.161C34.3125 217.473 34.4609 220.786 34.6881 224.1C34.8131 225.675 34.9506 227.25 35.0881 228.825L35.0882 228.826L35.0882 228.827L35.0883 228.828L35.0884 228.829L35.0885 228.83C35.2259 230.403 35.3632 231.977 35.4881 233.55C35.4881 233.635 35.5119 233.751 35.5371 233.874C35.6015 234.189 35.6755 234.55 35.3881 234.55H35.2881C31.6633 232.984 31.523 231.137 31.2826 227.971C31.2544 227.599 31.2248 227.21 31.1881 226.8C30.5897 221.872 30.6108 216.944 30.6758 211.998C27.2695 212.022 23.7324 212.171 20.2618 212.316L20.2573 212.317L20.2533 212.317C19.1562 212.363 18.0657 212.409 16.9882 212.45H16.8381C16.1545 212.45 15.4242 212.257 14.735 211.932C14.9048 220.167 14.903 228.468 14.8382 235.95C9.6382 233.85 9.73821 229.75 10.0382 224.9C10.1215 223.033 10.2215 221.167 10.3215 219.3C10.5215 215.567 10.7215 211.833 10.7882 208.1C10.9382 202.35 10.9382 196.55 10.8882 190.75C10.9132 189.4 10.9007 188.038 10.8882 186.675C10.8757 185.313 10.8632 183.95 10.8882 182.6C10.8998 182.542 10.9033 182.474 10.9056 182.402ZM14.6698 209.113C14.5795 205.588 14.4551 202.094 14.2882 198.7C14.2542 198.102 14.2211 197.504 14.1881 196.908C13.9783 193.117 13.7702 189.359 13.3382 185.6C13.2937 184.91 13.1698 184.21 12.9047 183.597C16.9181 185.772 21.4833 186.977 26.0382 187C26.5382 187.033 27.0382 187.05 27.5382 187.05C28.2176 187.05 28.8943 187.018 29.5671 186.959C29.5969 187.195 29.6298 187.432 29.661 187.657C29.7374 188.207 29.8036 188.683 29.7881 188.9C30.3881 194.5 30.7381 200.1 30.7381 205.75C30.7381 207 30.7255 208.247 30.7096 209.494C28.5407 207.974 25.6457 208.201 22.7496 208.429C22.1773 208.474 21.6049 208.519 21.0381 208.55C20.1299 208.61 19.2084 208.709 18.2841 208.809C17.0762 208.939 15.8636 209.07 14.6698 209.113ZM218.838 192.65C225.138 191.35 231.488 189.55 237.088 186.4C245.824 181.493 245.713 170.476 245.615 160.839C245.591 158.397 245.567 156.043 245.688 153.9C245.788 145.1 245.744 136.3 245.7 127.5C245.634 114.3 245.568 101.1 245.988 87.9C246.338 80 247.538 72.05 249.738 64.45C249.878 64.0589 250.002 63.6521 250.127 63.2428L250.127 63.2424L250.127 63.2419L250.127 63.2412L250.127 63.241C250.449 62.1859 250.776 61.1142 251.388 60.25C252.211 60.3415 252.867 61.0605 253.432 61.6799L253.526 61.7823L253.588 61.85C248.438 76.5 248.738 93.4 249.138 109.1C249.561 123.648 249.689 138.197 249.816 152.768V152.77C249.854 157.128 249.892 161.488 249.938 165.85C249.934 166.226 249.93 166.606 249.927 166.99C249.853 174.904 249.764 184.515 242.972 189.407L242.988 189.65C243.186 192.543 243.433 195.437 243.68 198.336L243.68 198.339C243.933 201.301 244.186 204.269 244.388 207.25C244.688 211.917 244.722 216.584 244.755 221.25C244.772 223.584 244.788 225.917 244.838 228.25C244.938 231.2 245.288 234.1 245.688 237C245.671 237.153 245.723 237.495 245.782 237.88L245.782 237.881L245.782 237.881C245.896 238.633 246.036 239.55 245.738 239.55H245.688C244.388 239 243.338 237.95 242.538 236.85C242.215 236.203 242.163 235.451 242.113 234.716C242.086 234.316 242.059 233.921 241.988 233.55C241.428 228.545 241.383 223.54 241.337 218.535C241.334 218.184 241.331 217.833 241.327 217.481C240.306 217.527 239.28 217.594 238.253 217.661C236.428 217.781 234.599 217.9 232.788 217.9C232.388 217.9 231.988 217.883 231.588 217.85C231.468 217.835 231.348 217.834 231.23 217.832C230.974 217.829 230.724 217.826 230.494 217.687C230.802 223.701 231.031 229.72 231.188 235.75C231.222 236.917 231.272 238.083 231.338 239.25C231.372 239.483 231.388 239.733 231.388 240C231.438 240.15 231.338 240.25 231.188 240.25H231.088C229.688 239.65 228.438 238.5 227.538 237.3C227.227 236.989 227.232 236.559 227.237 236.151V236.15V236.149C227.238 236.099 227.238 236.049 227.238 236V233.95C227.638 222.6 227.638 211.25 227.288 199.85C227.26 198.486 227.231 197.107 227.258 195.72C225.564 196.123 223.855 196.451 222.138 196.7C221.288 196.55 215.988 192.55 218.838 192.65ZM230.353 215.03C231.207 214.993 232.054 214.928 232.888 214.85L232.938 214.846C235.121 214.647 237.254 214.453 239.388 214.85C239.655 214.777 240.567 215.362 241.312 215.996C241.296 214.697 241.275 213.399 241.238 212.1C241.261 208.117 241.064 204.114 240.867 200.123L240.867 200.122L240.867 200.121C240.714 197.016 240.562 193.919 240.514 190.845C236.85 192.712 232.96 194.209 228.962 195.287C228.971 195.408 228.98 195.529 228.988 195.65C229.545 202.108 229.996 208.566 230.353 215.03Z" fill="black"/>
</svg>
