<svg width="75" height="70" viewBox="0 0 75 70" fill="none" xmlns="http://www.w3.org/2000/svg">
<path fill-rule="evenodd" clip-rule="evenodd" d="M22.1864 36.9241C21.4813 36.6891 18.367 34.6913 20.071 34.28C24.948 31.342 29.7662 28.4041 34.3494 25.0548C39.4614 21.118 44.1622 16.476 47.6877 11.129C49.568 8.36733 51.507 5.60567 53.6224 3.02028C53.9002 2.72263 54.1512 2.36466 54.4048 2.00297L54.4048 2.00291C54.9022 1.29359 55.4096 0.569921 56.149 0.258606C57.9705 0.963712 58.6756 2.19765 58.4993 4.13669C58.4993 9.06597 56.9171 13.6876 55.3492 18.2677L55.3492 18.2677C55.1041 18.9835 54.8595 19.6982 54.6212 20.4129C55.7276 20.0987 56.8308 19.7719 57.9346 19.4448C61.5789 18.3651 65.2288 17.2837 69.0171 16.6523C71.3675 16.0647 72.719 16.006 74.3642 18.0038C75.8296 20.0464 69.2409 24.7067 65.0469 27.6731C63.6914 28.6319 62.586 29.4138 62.0836 29.8731C61.2857 30.3902 60.7145 30.885 60.2531 31.2847C58.8797 32.4745 58.4798 32.821 55.9727 30.4019C55.918 30.3334 55.8536 30.265 55.7879 30.1951C55.5716 29.9648 55.34 29.7185 55.3851 29.403C56.247 28.8859 57.1088 28.3372 57.9475 27.8032L57.948 27.8028C58.2528 27.6088 58.5544 27.4168 58.8519 27.2289C59.6024 26.7324 60.3619 26.2405 61.1234 25.7473C64.2373 23.7305 67.3837 21.6928 70.0748 19.2377C66.9568 19.8541 63.8611 20.7165 60.7739 21.5766C58.8579 22.1104 56.9452 22.6432 55.0325 23.1158C54.2687 23.4683 53.446 23.2333 52.8585 22.6457C52.7821 22.5857 52.7016 22.5242 52.619 22.461C51.812 21.8436 50.7977 21.0676 51.3307 20.0016C51.8358 18.5562 52.413 17.1367 52.9891 15.72C54.3569 12.3564 55.7181 9.00898 56.0902 5.37063C54.8039 7.0857 53.6045 8.88767 52.402 10.6943C50.6382 13.3443 48.8677 16.0043 46.8063 18.4151C41.4627 24.6881 34.5022 29.087 27.6103 33.4426C25.7871 34.5948 23.9687 35.7441 22.1864 36.9241ZM10.6696 69.0653C6.90906 68.8303 3.44229 66.2449 1.67953 63.0131C-0.788342 57.4311 2.09084 51.0263 5.26382 46.2669C5.54882 45.9222 5.83606 45.5679 6.12714 45.2088C8.41665 42.3842 10.944 39.2662 14.4889 38.2757C16.1254 38.6143 17.4908 39.9824 18.6374 41.1312L18.7784 41.2724C19.0721 41.5074 19.836 42.5651 18.8959 42.33C14.9662 42.7857 11.5885 46.7189 9.08388 49.6355L8.84811 49.9099C4.55872 54.7869 0.0342891 70.5343 11.7861 66.1274C16.8393 63.542 21.54 60.0752 25.6531 56.1384C26.8473 54.8515 28.0289 53.552 29.2102 52.2529C34.7712 46.137 40.3255 40.0284 47.1589 35.279C47.3499 35.1321 47.5409 34.9815 47.7318 34.8309C48.3047 34.3792 48.8776 33.9275 49.4505 33.575C50.3906 33.8688 51.272 34.6326 51.8596 35.4553C50.4212 36.711 48.8587 37.8779 47.2857 39.0527L47.2857 39.0528C44.8103 40.9015 42.3091 42.7695 40.2253 45.033C37.8592 47.3004 35.6652 49.7465 33.4722 52.1915C29.13 57.0326 24.7919 61.8691 19.1309 65.3048C18.7245 65.5634 18.3166 65.8351 17.9052 66.1092L17.9049 66.1094C15.6994 67.5785 13.3932 69.1148 10.6696 69.0653ZM12.9025 50.7913C13.4901 52.4365 14.9003 53.7292 16.5456 54.3756C17.0183 54.4544 16.6987 54.0049 16.419 53.6116C16.2815 53.4182 16.1536 53.2385 16.1343 53.1416C15.6054 51.9077 14.254 50.9676 13.0788 50.4975C12.8438 50.38 12.785 50.615 12.9025 50.7913Z" fill="black"/>
</svg>
