<svg width="94" height="122" viewBox="0 0 94 122" fill="none" xmlns="http://www.w3.org/2000/svg">
<path fill-rule="evenodd" clip-rule="evenodd" d="M34.7001 12.15C33.7001 11.75 32.5501 11.05 32.0001 10.1C32.4001 9.25 32.7 8.25 32.15 7.45C32.0174 7.25107 31.8573 7.06863 31.6989 6.8881C31.3795 6.52412 31.0669 6.16792 31.0001 5.7C30.918 5.51529 31.0044 5.19578 31.0898 4.8798C31.2125 4.426 31.3333 3.97948 30.9501 3.95C30.3501 3.75 26.4501 1.25 27.3001 0.75C27.859 0.982888 28.4613 1.07476 29.0666 1.16709C29.7608 1.27298 30.459 1.37947 31.1001 1.7L31.2606 1.79006C34.0317 3.34423 36.1227 4.51695 34.7001 8C34.6952 8.02665 34.6918 8.05272 34.6897 8.07824C36.0191 7.139 37.9327 7.08923 39.3 8.05006C39.7 8.25006 42.2 10.1001 41.6 10.4501C39.95 9.80005 37.9 9.95006 36.8 11.4001C37.489 11.4862 38.0297 11.9433 38.5179 12.3559C38.5965 12.4224 38.6737 12.4876 38.75 12.5501C38.8019 12.6123 38.8668 12.6768 38.9342 12.7438L38.9343 12.7439L38.9343 12.7439L38.9346 12.7442L38.9346 12.7442C39.192 13 39.4876 13.2937 39.25 13.6501C39.1805 13.7785 39.1098 13.9068 39.039 14.0354L39.0385 14.0363C38.4478 15.1092 37.85 16.1948 37.85 17.4001C39.55 17.5001 41.25 17.2501 42.8 16.5001C43.5 16.8001 44.2 17.3001 44.6 17.9501C43.35 19.3001 40.8 19.6501 39 19.3001C36.05 18.0501 34.15 16.2001 36.3 13.0501L36.3093 13.0362L36.3242 13.0145C36.351 12.9756 36.3654 12.9547 36.362 12.9373C36.358 12.9171 36.3299 12.9016 36.2693 12.8682C36.2384 12.8512 36.199 12.8295 36.15 12.8001C35.9967 12.6906 35.8212 12.5748 35.6347 12.4518C35.4159 12.3074 35.1822 12.1532 34.9521 11.9879C34.9076 12.0961 34.8412 12.1853 34.7001 12.15ZM45.5944 16.6713C44.7916 16.1351 44.0688 15.4658 43.7001 14.6999C44.1363 14.3759 44.6254 14.0736 45.1231 13.7659C46.6221 12.8393 48.1996 11.8641 48.65 10.1C47.55 9.74995 43.15 7.29995 43.65 5.94995C40.9 4.29995 40.5501 2.49995 43.8501 1.39995C45.6119 0.861614 47.1821 2.19145 48.467 3.27958L48.5501 3.34995C50.2431 4.57737 48.9982 6.23473 47.9999 7.56382L47.9998 7.56389C47.8188 7.80488 47.6459 8.03507 47.5001 8.24995L47.6328 8.32064C49.8747 9.51473 52.9553 11.1555 50.7001 13.9499C50.4868 14.2486 50.2613 14.5352 50.0306 14.8165C52.9501 14.8929 56.0865 16.7839 58.0999 18.55C59.0499 19.35 58.7499 20.3 57.7999 20.9C56.6999 21.7 55.35 22.25 54 22.15C53.8333 22.0834 53.8333 22.1167 54 22.25C55.4 24.15 57.2499 28.2 54.5499 29.65C53.6499 29.35 52.7999 28.8 52.0999 28.15C51.7894 27.8783 51.8706 27.5162 51.9459 27.1807C51.9676 27.084 51.9888 26.9895 52 26.9C52.0697 26.8303 52.188 26.8578 52.2871 26.8809C52.3302 26.8909 52.3696 26.9 52.3999 26.9C52.444 26.9147 52.4924 26.9467 52.5401 26.9782C52.6546 27.0538 52.7646 27.1265 52.7999 26.95C53.7499 25.1 52.5999 22.9 51.5499 21.3C51.5166 21.2 51.4499 21.2167 51.3499 21.35C50.7499 21.7 50.15 22.15 49.7 22.7C49.5779 22.8221 49.4557 23.0105 49.3606 23.1573C49.3389 23.1908 49.3185 23.2221 49.2999 23.25C49.0696 23.2622 48.8451 23.2272 48.6264 23.1617C48.8655 23.3592 49.1065 23.5732 49.3499 23.8C49.9999 24.65 48.7999 24.1 48.4999 23.9C48.3985 23.8797 48.3136 23.8183 48.2317 23.7592C48.1118 23.6725 47.9985 23.5906 47.8499 23.65C46.6499 24.05 45.6999 25 44.8999 26C45.0414 25.9697 45.1849 25.9312 45.3296 25.8924C45.901 25.7392 46.4914 25.5809 47.0499 25.9C47.1755 25.9733 47.3099 26.0444 47.4471 26.1169L47.4471 26.117L47.4472 26.117L47.4472 26.117L47.4473 26.117C47.9653 26.391 48.5232 26.6862 48.7999 27.2C48.6153 27.777 48.3135 28.322 48.0076 28.8744C47.6507 29.5188 47.2884 30.1732 47.0999 30.9C48.0999 30.5 49.3499 29.8 50.2499 29.25C50.9499 28.95 52.0999 29.95 52.5499 30.4C52.634 30.5262 52.612 30.5462 52.5435 30.6089L52.5274 30.6236C52.5188 30.6316 52.5096 30.6404 52.4999 30.65C52.3582 30.7492 52.2138 30.8525 52.0668 30.9575C50.6584 31.9643 49.0157 33.1386 47.2499 32.55C44.4499 31.25 44.1999 30.6 45.6499 27.9C44.4624 27.7021 41.757 26.5249 41.7008 25.1921C40.5385 25.3979 38.9751 25.2983 37.6 24.95C39.0279 28.429 39.5931 30.789 38.9174 31.4771C39.5252 31.7506 42.0564 33.4645 41.0499 33.8C41.7703 33.8167 42.5411 33.6314 43.3155 33.4453C44.8523 33.0758 46.403 32.7031 47.5999 33.9C47.7332 34.1333 47.911 34.0555 48.0888 33.9778C48.1777 33.9389 48.2666 33.9 48.3499 33.9C49.3147 33.5089 50.3338 33.4441 51.3507 33.3795C52.2836 33.3202 53.2147 33.261 54.0999 32.95C54.6288 32.95 55.0914 33.3472 55.5149 33.7107L55.515 33.7108L55.5151 33.7109C55.612 33.7941 55.7068 33.8755 55.7999 33.95C57.6404 35.3103 55.4788 35.39 54.0036 35.4444H54.0035C53.6352 35.458 53.3097 35.47 53.0999 35.5C52.5362 35.5297 51.9725 35.6693 51.4179 35.8068C50.1033 36.1326 48.8401 36.4456 47.7499 35.25C47.7312 35.2313 47.7134 35.2131 47.6963 35.1955L47.6959 35.1951C47.5293 35.0244 47.4217 34.9141 47.1499 35.05C43.8499 36 40.9999 36.7 38.4499 33.8C37.8137 33.291 37.5373 32.2423 38.109 31.6612C37.2101 31.5031 35.7267 30.5524 33.55 28.65C33.502 28.7938 33.4512 28.9514 33.397 29.1194C32.7732 31.0535 31.7042 34.368 29.45 34C25.3928 32.0272 25.6029 31.6893 26.6559 29.9952L26.6559 29.9952C27.0174 29.4136 27.4783 28.6722 27.9 27.65C27.7708 27.5854 27.6382 27.5208 27.5038 27.4554C26.4933 26.9633 25.3795 26.4208 24.85 25.45C25.05 24.35 27.2499 23.25 28.25 22.75L28.25 22.75C28.55 22.2 32.2 24.45 31.3 24.7C32.95 25.4 34.35 26.55 35.3 28.1C35.1 26.4 34.45 24.75 33.8 23.15C33.7885 23.127 33.7823 23.1094 33.7777 23.0963L33.7777 23.0963C33.7726 23.0817 33.7695 23.073 33.7634 23.0693C33.7543 23.0637 33.7385 23.0693 33.699 23.0831L33.6989 23.0832C33.6855 23.0879 33.6694 23.0935 33.65 23.1C33.25 23.25 32.8 23.35 32.35 23.2C31.15 22.8 30 22.05 29.1 21.2C29.0293 21.1646 29.0085 21.1793 28.9671 21.2086C28.95 21.2207 28.9292 21.2353 28.9 21.25C28.808 21.3266 28.7114 21.4032 28.6129 21.4813L28.6129 21.4813L28.6128 21.4814C28.3901 21.658 28.158 21.842 27.95 22.05C27.2 22.15 24.35 20.45 24.35 19.75C25.0424 19.193 25.821 18.6406 26.6461 18.1936C24.8673 17.3581 23.5578 16.4172 22.7023 15.5929C22.4016 15.5961 22.1008 15.5432 21.8 15.3999C20.6 14.7999 19.2001 13.9499 18.7001 12.6499C18.655 12.0644 18.8534 11.4789 19.0394 10.9299C19.0599 10.8694 19.0802 10.8094 19.1 10.7499C19.1279 10.6849 19.1541 10.6078 19.1814 10.5272C19.301 10.1743 19.4429 9.75568 19.85 9.99994C20.25 9.94994 23.75 12.6499 22.3 12.3999C22.1757 12.4828 22.1201 12.6688 22.0762 12.8154C22.0672 12.8457 22.0586 12.8743 22.05 12.8999C22.011 13.0171 22.0329 13.0122 22.0682 13.0045C22.0781 13.0023 22.0891 12.9999 22.1 12.9999C22.3 12.9666 22.4834 12.9666 22.65 12.9999C23.78 13.3117 24.7886 12.7731 25.794 12.2363C26.0787 12.0842 26.3631 11.9323 26.65 11.7999C27.2444 11.5027 27.6793 11.6349 28.1675 11.7832C28.6648 11.9344 29.2173 12.1023 30.05 11.8499C30.9 12.0999 31.85 12.7999 32.3 13.5999C31.55 13.9499 30.65 13.8999 29.9 13.5499C29.3522 13.3978 28.7487 13.8014 28.1574 14.1969C27.7773 14.4512 27.4022 14.7021 27.05 14.7999C26.35 15.0999 25.6501 15.0999 24.9501 15.0499C24.8439 15.0752 24.7377 15.1041 24.6316 15.135C24.8287 15.3083 25.0349 15.4964 25.2501 15.7C25.3015 15.8372 25.6943 16.2215 26.1477 16.6653C26.553 17.0619 27.0067 17.506 27.3087 17.8635C29.0512 17.0731 30.9465 16.8421 32.65 18.05C35.75 17.4 38.65 19.4 41.1 21.1C42.1837 21.8827 42.8425 22.5445 43.173 23.0949C44.296 21.9079 45.3602 21.6193 46.4231 21.8973C46.2712 21.7821 46.1303 21.6781 46.0015 21.583L45.9999 21.5817L45.9994 21.5814L45.9993 21.5813C44.7495 20.6583 44.6406 20.5778 46.5999 19.3C46.6233 19.2845 46.643 19.2725 46.6589 19.2629C46.6898 19.2442 46.7062 19.2343 46.7068 19.2234C46.7076 19.211 46.6878 19.1974 46.6454 19.1682L46.6454 19.1682C46.6211 19.1515 46.5894 19.1296 46.5499 19.1C45.2883 18.1723 44.963 17.465 45.5944 16.6713ZM52.8999 17.55C51.9999 17.8 50.8999 18.45 50.3999 19.1C50.6187 19.2094 50.8374 19.3857 51.0562 19.5621C51.3374 19.7889 51.6187 20.0156 51.8999 20.1C53.0999 20.05 55.8499 19.3 55.7499 17.75C54.8499 17.45 53.8499 17.35 52.8999 17.55ZM62 39.9C55.3092 39.6004 48.5962 39.4338 41.8905 39.2674C38.5239 39.1838 35.1592 39.1003 31.8 39C26.15 38.9 20.25 38.6 15 36.35C12.6059 35.1143 13.3431 34.654 14.6091 33.8636C14.9823 33.6305 15.4015 33.3688 15.8 33.05C16.0056 32.9301 16.2963 32.7426 16.643 32.5191L16.6432 32.519L16.6432 32.519C16.8354 32.395 17.0448 32.26 17.2665 32.1192C16.1503 32.2034 15.0248 32.1779 14 31.8499C12.25 31.1999 8.7 28.8499 10.75 26.8499C12.1173 25.6863 13.8231 25.7244 15.5424 25.7628C16.7781 25.7904 18.0209 25.8181 19.15 25.3999C17.85 25.1999 14.5 23.1499 16.15 21.6999C17.65 20.2999 21 19.0499 22.1 21.4499C20.5 21.4999 18.9 22.4499 18 23.6999C18.2201 23.7338 18.446 23.7562 18.6737 23.7788C19.1184 23.8229 19.5701 23.8677 20 23.9999C21.7 24.7999 23.6 26.4999 20.75 27.2999C19.8625 27.648 18.763 27.6993 17.6539 27.751C15.5763 27.8478 13.4649 27.9463 12.65 29.9999C13.1605 30.1489 13.7254 30.1168 14.2907 30.0846C15.054 30.0412 15.818 29.9978 16.45 30.3999C16.5735 30.5111 16.7246 30.6284 16.8834 30.7518L16.8835 30.7518L16.8835 30.7519C17.2603 31.0445 17.6813 31.3715 17.885 31.7329C19.5212 30.7305 21.5212 29.6835 22.3 30.3C22.5 30.35 24.45 31.35 23.8 31.55C21.6443 32.3261 19.7488 33.6226 17.8891 34.8947L17.889 34.8947L17.8881 34.8954L17.8847 34.8977C17.5892 35.0998 17.2946 35.3013 17 35.5L16.3 36C16.2 36.0333 16.2 36.05 16.3 36.05C21.0766 37.4432 26.075 37.4737 31.0177 37.504H31.0177H31.0178H31.0179H31.018H31.0181H31.0182H31.0183H31.0184H31.0185H31.0186H31.0186H31.0187H31.0188H31.0189H31.019H31.0191H31.0192H31.0193H31.0194H31.0195H31.0196H31.0196H31.0197H31.0198H31.0199H31.02H31.0201H31.0202H31.0203H31.0204H31.0205H31.0206H31.0207H31.0207H31.0208H31.0209H31.021H31.0211H31.0212H31.0213C32.2861 37.5117 33.5472 37.5194 34.8 37.55C38.2105 37.6763 41.621 37.7317 45.0315 37.7871H45.0318C49.7212 37.8633 54.4106 37.9395 59.1 38.2L59.1633 38.2024C61.8308 38.3053 69.9109 38.6169 65.05 34.5C64.3899 34.2585 63.6832 34.1155 62.9766 33.9725C61.4886 33.6715 60.0009 33.3704 58.95 32.15C58.95 32.1314 58.9362 32.1059 58.9213 32.0786L58.9213 32.0785C58.8963 32.0325 58.8686 31.9814 58.9 31.95C61.95 32.25 65 33.3 67.35 35.35C72.75 40.2 65.55 40.05 62 39.9ZM46 71.0001L45.8545 70.9949C46.1272 71.2742 46.3323 71.5785 46.3999 71.9C46.8499 73.9 46.2999 77.1 43.6499 76.9C41.7999 76.65 40.2499 75.4 38.8999 74.2C37.5499 77.4 34.0499 74.7 32.3999 73.2C31.3999 72.25 30.85 70.95 30.6 69.6C30.5761 69.5105 30.5537 69.4196 30.5328 69.3277C29.971 69.2369 29.41 69.1442 28.85 69.05C28.7637 69.0357 28.6773 69.0207 28.5907 69.0052C29.7657 70.2069 30.4062 71.4996 29.7 72.5C30.85 76.05 25.75 79.4 23.15 76.45C22.4399 76.993 21.6337 77.571 20.7718 78.0089C21.655 78.0109 22.5385 78.0069 23.4208 78.0028C25.8677 77.9915 28.3051 77.9802 30.7 78.1C33.9965 78.0123 37.3059 78.0356 40.6168 78.0589H40.6171H40.6174H40.6177H40.618H40.6183H40.6186H40.6189H40.6193H40.6196H40.6199H40.6202H40.6205H40.6208H40.6211H40.6214H40.6217H40.622H40.6223H40.6227H40.623H40.6233H40.6236H40.6239H40.6242H40.6245H40.6248H40.6251H40.6254H40.6257H40.626H40.6264H40.6267H40.627H40.6273H40.6276H40.6279H40.6282H40.6285H40.6288H40.6291H40.6294C48.6635 78.1154 56.7069 78.172 64.5999 76.65C65.378 76.4388 66.6455 76.188 68.1545 75.8895C73.4329 74.8452 81.6667 73.2163 82.2499 70.65C82.703 67.0707 78.8043 66.3653 75.9852 65.8552L75.985 65.8551C75.693 65.8023 75.4127 65.7516 75.1499 65.7C74.2999 65.1 73.1499 64.25 72.95 63.25C74.8999 63.4 76.95 63.95 78.7 64.9C81.35 66.55 84.8999 69.35 84.2999 72.85C83.25 75.1831 77.6641 76.367 73.7273 77.2014L73.727 77.2015L73.7268 77.2015L73.7265 77.2016C72.6015 77.44 71.6111 77.6499 70.8999 77.85C63.8999 79.5 56.7499 80.25 49.5499 80.05C48.0003 80.0577 46.4519 80.0678 44.9043 80.0779C36.4149 80.1332 27.9503 80.1883 19.45 79.85C19.0729 79.828 18.6798 79.807 18.2737 79.7853C12.2168 79.4615 3.24599 78.9821 0.949951 72.75C1.15865 70.2039 3.21407 68.3546 5.10919 66.6496L5.1095 66.6493L5.10978 66.6491L5.11 66.6489L5.11022 66.6487L5.11045 66.6485L5.11059 66.6483L5.11065 66.6483C5.4852 66.3113 5.85347 65.9799 6.19995 65.65L6.35471 65.5225C8.00615 64.1622 9.70603 62.7621 11.4999 61.55C12.0606 61.5126 12.5095 62.0061 12.9093 62.4457C13.0443 62.5941 13.1737 62.7364 13.2999 62.85L13.384 62.9518C14.0065 63.705 14.0626 63.7728 13.2 64.3C12.7648 64.6228 12.3257 64.9437 11.8858 65.2652L11.8857 65.2653C9.19122 67.2344 6.46301 69.2281 4.3999 71.85C4.34189 71.9396 4.27219 72.0426 4.19556 72.1559C3.54574 73.1163 2.39758 74.8133 3.6499 75.35C7.51492 77.0424 11.6205 77.6677 15.7993 77.8912C14.7641 77.2089 13.7725 76.2595 13.7 75.1C13.75 74.75 13.9 74.4 14.05 74.1C14.1834 74 14.1667 73.9333 14 73.9L13.5 73.5C9.95003 70.9 11 67.9 15.5 68.6C17.55 68.7 19.6 69.4 20.8 71.15C21.05 71.45 21.45 72.15 20.65 71.8C20.4491 71.7577 20.232 71.7081 20.003 71.6558C18.0661 71.2137 15.2784 70.5773 14.25 72.5C14.507 72.5701 14.775 72.5637 15.0385 72.5575C15.3389 72.5504 15.6336 72.5434 15.9 72.65L15.9717 72.7012C16.6538 73.1877 17.4102 73.7272 17.7 74.5C17.5851 74.6264 17.4675 74.7476 17.351 74.8677L17.3509 74.8677C16.9603 75.2701 16.581 75.6609 16.35 76.2C17.2317 76.2 18.415 75.5108 19.3401 74.972L19.3417 74.9711C19.4127 74.9297 19.4823 74.8892 19.55 74.85C20.55 74.25 21.55 73.5 22.35 72.65C22.9 72.6 25 74.4 24.55 75C25.75 74.5 26.8 73.5 27.2 72.25C27.2081 72.2099 27.2186 72.1698 27.2291 72.1301C27.284 71.9224 27.3359 71.7259 27 71.6C26.9247 71.5031 26.7984 71.3761 26.654 71.231C26.1277 70.7019 25.3615 69.9316 25.95 69.5C26.35 69.35 26.85 69.6 27.2 69.8C27.35 69.6 27.4 69.05 27.2 68.85C27.0078 68.7346 26.8118 68.6354 26.613 68.5517C26.3108 68.4672 26.0091 68.3757 25.7086 68.2774C24.411 68.0276 23.054 68.3495 21.8624 69.0521C22.7992 69.7782 23.8248 70.8681 23 71C22.7625 70.9736 21.7592 70.265 21.0703 69.5941C21.0467 69.6126 21.0233 69.6312 21 69.65C20.9701 69.6699 20.9461 69.6879 20.9254 69.7035L20.9252 69.7036C20.842 69.766 20.81 69.79 20.65 69.75C19.4 69.2 18.3 68.1 17.5 67C17.45 66.9 17.4 66.75 17.45 66.6C17.6 66.525 17.7625 66.4625 17.925 66.4C18.0875 66.3375 18.25 66.275 18.4 66.2C19.0355 65.9458 19.6839 65.7174 20.3453 65.5806C17.7514 63.6896 15.7855 61.0894 15.25 57.8C14.7476 54.5903 14.9152 51.3493 15.083 48.1033C15.2158 45.5344 15.3488 42.9623 15.15 40.4001C15.15 40.3753 15.1486 40.3492 15.1472 40.3228C15.1403 40.1895 15.133 40.05 15.3 40.05C15.95 40.35 16.6 40.9001 17 41.5001C17.0966 42.9004 17.1465 44.3007 17.1949 45.656L17.1949 45.6563L17.2 45.8C17.3503 47.5731 17.3199 49.4049 17.2894 51.2451V51.2452C17.2547 53.3368 17.2199 55.4393 17.4498 57.4792C18.391 57.2151 19.6705 57.1691 20.6864 57.1326C21.2308 57.1131 21.6995 57.0962 21.9999 57.05C21.7499 56.85 20.2999 55.4 21.3999 55.75C22.1999 56.2 23.0999 56.55 23.9999 56.75C25.0499 56.85 25.8999 57.5 26.5999 58.25L26.6394 58.2971C26.897 58.6038 27.3096 59.095 26.5499 59C28.2999 60.3 31.5999 61.95 32.9999 59.25C32.887 59.2637 32.7748 59.2778 32.6633 59.2919C31.1458 59.4833 29.7644 59.6576 28.5999 58.4C27.1176 57.1956 27.3519 56.7208 28.0305 55.3455L28.031 55.3445L28.0321 55.3424C28.0855 55.2341 28.1417 55.1202 28.2 55C28.2 55 28.35 54.75 28.2 54.9C27.5 55.6 26.8499 56.3 26.2999 57.1C26.1999 57.15 26.05 57.1 25.95 57.05C25.4 56.85 22.8499 55.05 23.6499 54.45C24.7999 52.9 27.85 48.95 29.95 49.4C31.1 50 32.4499 50.9 32.7999 52.2C32.9882 52.6841 32.1784 54.2096 31.5219 55.4462C30.9579 56.5087 30.5071 57.358 30.8999 57.15C32.4499 57.1 35.4999 58.9 35.1499 60.65C34.6999 62 33.1999 62.9 31.8499 62.7C31.5137 62.7 31.084 62.5318 30.7208 62.3896C30.4899 62.2993 30.2859 62.2194 30.1499 62.2C30.3475 62.3976 30.3234 62.5856 30.2171 62.764C30.7563 63.0809 31.3934 63.8302 31.5001 64.15C31.7501 65.2 32.0501 66.4 32.7501 67.2001C34.2001 67.75 35.75 67.15 37.05 66.4501C37.4653 66.2326 37.9039 65.9564 38.3572 65.6711C38.812 65.3848 39.2814 65.0893 39.7566 64.8345C39.6864 64.7571 39.6176 64.6789 39.55 64.6C38.05 64 36.5 62.85 35.95 61.3C35.9 59.45 38.7 59.6 39.95 59.95C40.4 59.6 41 59.4 41.55 59.45C41.8 56.6 42.15 53 45.1 51.65C47.3 50.65 50.15 50.8 51.7 52.9C52.15 53.4 52.6 54.1 52.3 54.85C51.4996 56.4507 49.944 57.4704 48.4302 58.4626C47.958 58.7721 47.4898 59.079 47.05 59.4C50.2 61.1 51.65 63.85 46.85 64.1C47.0799 65.3419 46.3791 66.1818 45.3798 66.6149C45.4702 66.7846 45.5449 66.9624 45.6 67.15C45.6 67.2097 45.6445 67.3495 45.6964 67.5123C45.8183 67.8951 45.9807 68.4053 45.7001 68.3C45.0644 68.0219 44.3971 67.5544 43.9742 66.9476C43.5696 66.9767 43.1618 66.9542 42.779 66.88C42.2313 67.1684 41.6988 67.5002 41.1668 67.8316C40.9187 67.9862 40.6707 68.1407 40.4214 68.2907C41.1808 68.3506 41.9404 68.4038 42.7 68.4501C46.4371 68.6219 50.1004 67.908 53.7533 67.1962L53.7541 67.1961L53.7548 67.1959L53.7555 67.1958L53.7562 67.1956L53.7569 67.1955L53.7577 67.1954L53.7584 67.1952L53.7591 67.1951L53.7598 67.195L53.7605 67.1948L53.7613 67.1947L53.762 67.1945L53.7627 67.1944L53.7634 67.1943L53.7641 67.1941L53.7649 67.194L53.7656 67.1939L53.7663 67.1937L53.767 67.1936L53.7678 67.1934L53.7685 67.1933L53.7692 67.1932L53.7699 67.193L53.7706 67.1929L53.7714 67.1928L53.7721 67.1926L53.7728 67.1925L53.7735 67.1923L53.7742 67.1922L53.775 67.1921L53.7757 67.1919L53.7764 67.1918L53.7771 67.1917L53.7778 67.1915L53.7786 67.1914L53.7793 67.1912L53.78 67.1911L53.7807 67.191L53.7815 67.1908L53.7822 67.1907C54.3716 67.0758 54.9608 66.9609 55.55 66.8501C55.7634 66.8066 55.977 66.7634 56.1909 66.7203C58.6831 66.217 61.1976 65.7092 63.5 64.65C69.15 62.15 67.7 49.7 66.8 44.65C66.7 44.45 66.75 44.1501 67.05 44.3501C67.95 44.9001 69 45.7001 69.2 46.7501C70.1 51.5001 70.25 56.35 69.25 61.05C68.75 66.2001 64.7 67.65 60.25 68.7001C59.5208 68.8569 58.7891 69.0199 58.0549 69.1834L58.0517 69.1841C54.1055 70.0631 50.0883 70.9579 46 71.0001ZM37.8688 70.3632C39.7564 70.5827 41.649 70.7601 43.5432 70.8794C43.5524 72.4008 43.1855 74.0575 41.6 74.6C41.5422 74.6096 41.4807 74.6229 41.4169 74.6368C41.1496 74.6948 40.8422 74.7615 40.6 74.6C40.2 74 39.95 73.35 39.8 72.65C39.75 72 39.4 71.45 38.85 71.1C38.8145 71.0724 38.7719 71.0386 38.7233 71.0001C38.5183 70.8375 38.206 70.5898 37.8688 70.3632ZM33.6507 69.8078C34.4959 69.9308 35.3426 70.0478 36.1906 70.1572C36.0977 70.3398 36.0089 70.5298 35.9192 70.7219C35.5345 71.5458 35.1315 72.4086 34.3 72.9C33.913 71.9326 33.6664 70.8717 33.6507 69.8078ZM24.3933 66.0501C24.2884 66.0239 24.183 65.9975 24.0774 65.9709C23.4314 65.6987 22.852 65.5306 22.4181 65.5038C21.2297 65.1105 20.1254 64.5626 19.35 63.6001C18.8294 62.7159 18.4359 61.799 18.1393 60.8577C19.5225 61.744 21.2881 62.093 22.8999 62C22.9999 61.9667 23.0166 61.9833 22.95 62.05C22.9147 62.0853 22.8784 62.1206 22.8418 62.1561L22.8413 62.1566C22.6189 62.3729 22.3857 62.5996 22.2999 62.9C22.2499 64.1 24.6499 65.8 25.7999 65.9C27.4499 65.9 28.7 64.55 29.7 63.4C29.7201 63.3647 29.7453 63.329 29.7739 63.2927C30.0429 64.7995 30.8294 66.2322 31.9227 67.3588C29.788 67.0627 27.662 66.7239 25.55 66.3501C25.1789 66.2465 24.7943 66.1504 24.4046 66.0529L24.4046 66.0529L24.3933 66.0501ZM0.624922 83.5461C1.00659 88.5939 1.39111 93.6795 2.14996 98.65C5.44996 110.6 21.8 111.05 32 111.25L40.393 111.025L40.3999 111.05L46.876 110.873C46.7485 111.424 46.7179 111.974 46.8999 112.5C48.2999 114.5 50.6499 115.75 52.8999 116.45C54.2499 116.5 51.1499 114.15 50.8499 114C50.9499 112.8 51.3499 111.6 51.8999 110.5C52.2999 110.25 52.7499 109.85 52.7999 109.3C52.5688 108.645 51.9814 108.198 51.4267 107.776C51.2615 107.65 51.0991 107.526 50.9499 107.4C50.9499 107 50.9999 106.6 51.0999 106.25C52.8999 107.1 51.4999 105.4 50.9999 104.8C49.7499 103.65 48.2999 102.45 46.6499 102.05C45.9805 102.05 45.7891 102.807 45.649 103.361L45.6489 103.361L45.6486 103.362L45.6486 103.362L45.6486 103.362C45.6318 103.428 45.6159 103.491 45.5999 103.55C44.9999 105.85 45.8999 107.2 47.6999 108.5L47.6946 108.517C46.6313 108.543 45.5644 108.566 44.4949 108.59L44.4903 108.59L44.4888 108.59L44.4874 108.59L44.4862 108.59L44.4802 108.59H44.4797C41.9461 108.645 39.398 108.701 36.85 108.8C29.65 109.1 22.4 109.4 15.3 107.85C14.7399 107.683 14.1589 107.524 13.5683 107.363L13.5681 107.363L13.568 107.362L13.5678 107.362C10.6262 106.559 7.44865 105.69 5.45001 103.4C4.22504 101.195 3.93375 98.6233 3.65026 96.1205C3.58661 95.5585 3.52335 95.0001 3.45001 94.45C3.05001 90.85 2.59999 87.25 2.04999 83.65C1.89999 82.5 1.75 81.35 1.75 80.15C1.4 79.6 0.85 78.9 0.25 78.75C0.382633 80.3416 0.503634 81.9419 0.624922 83.5461ZM24.7499 59.65C25.5421 59.7898 26.1606 60.3639 26.7672 60.9271C26.8115 60.9681 26.8557 61.0092 26.8999 61.05C26.9599 61.02 27.0199 60.936 27.08 60.852C27.12 60.796 27.16 60.74 27.2 60.7C27.3569 60.6215 27.2367 60.543 27.1535 60.4887C27.1307 60.4738 27.1107 60.4608 27.0999 60.45C26.3332 59.9833 25.5832 59.5333 24.8499 59.1C24.4368 59.125 24.0205 59.1375 23.6034 59.15L23.603 59.1501H23.603C22.3546 59.1875 21.0991 59.2252 19.8999 59.6C20.4453 59.7039 21.328 59.6728 22.2607 59.6401H22.2608C23.1236 59.6097 24.0291 59.5779 24.7499 59.65ZM44.2501 58.6499C43.8427 60.5174 43.8733 60.5403 44.4516 60.9733C44.7249 61.1779 45.1205 61.4741 45.6501 62.1C46.5501 62.05 47.8501 61.8999 48.1501 60.8999C47.9173 60.8002 47.6763 60.706 47.4329 60.6108C46.2124 60.1338 44.9337 59.6339 44.3501 58.2999C44.3168 58.4333 44.2835 58.5499 44.2501 58.6499ZM44.4001 58C44.9501 55.35 47.3002 53.45 50.0002 53.3C50.0092 53.3 50.0179 53.2998 50.0262 53.2995L50.0345 53.2992C50.0454 53.2987 50.0555 53.2981 50.0649 53.2975L50.0651 53.2975C50.1611 53.2917 50.1757 53.2908 50.0501 53.5C49.0326 55.1688 47.2861 56.2744 45.6197 57.3291L45.6194 57.3293L45.6193 57.3294L45.6192 57.3295C45.2388 57.5703 44.8626 57.8084 44.5002 58.05C44.4502 58.0833 44.4169 58.1166 44.3965 58.137L44.3965 58.137C44.383 58.1505 44.3752 58.1583 44.372 58.1567C44.3675 58.1545 44.3718 58.1345 44.3821 58.0866L44.3821 58.0864C44.3869 58.064 44.393 58.0355 44.4001 58ZM38.4501 62.1001L38.3001 62.2501C38.2001 62.3501 38.1334 62.4667 38.1001 62.6001C38.37 62.6675 38.6627 62.6895 38.9627 62.712H38.9628C39.1074 62.7228 39.2537 62.7338 39.4001 62.7501L39.1001 62.4501L38.7001 61.9C38.6001 61.9667 38.5168 62.0334 38.4501 62.1001ZM25.45 11.5001C24.6594 11.3563 24.0239 10.8253 23.4133 10.3151C23.1743 10.1154 22.9391 9.91887 22.7 9.75005C21.8 9.45005 20.8499 8.85005 20.3999 8.05005C20.5222 7.03119 21.5746 6.11198 22.4199 5.37366C22.6117 5.20617 22.7928 5.04798 22.95 4.90005C23.7395 4.06121 24.3341 4.53716 25.0705 5.12649L25.0999 5.15005C25.1245 5.17461 25.1504 5.19918 25.1767 5.22418C25.3114 5.35186 25.4581 5.49099 25.4999 5.70005C24.6499 6.25005 23.8499 7.00005 23.1499 7.80005C23.1499 7.83972 23.1106 7.88726 23.0725 7.93331C23.0145 8.00333 22.9594 8.06989 23.0499 8.10005C23.4499 8.30005 23.8999 8.60005 24.2499 8.95005C24.2833 8.96672 24.3111 9.00561 24.3388 9.0445C24.3944 9.12228 24.4499 9.20005 24.5499 9.10005C24.6956 9.01267 24.8412 8.90833 24.9967 8.7969L24.9967 8.79688C25.1082 8.71703 25.2247 8.63354 25.3499 8.55005C25.503 8.46498 25.7372 8.25835 25.9953 8.0306C26.4957 7.58903 27.086 7.06811 27.3499 7.20005C27.8999 7.45005 29.7499 8.45005 29.4999 9.15005C29.238 9.34648 28.9738 9.56672 28.704 9.79154L28.704 9.79156C27.7376 10.5969 26.7007 11.461 25.45 11.5001ZM58.4 27.1C58.85 28 59.85 28.65 60.75 29.05C64.35 29.1 66.4 27.4 62.7 24.85C63.55 24.25 64.35 23.6 65.15 22.9C69.5718 19.2224 66.48 17.4616 63.1585 15.5699C62.6867 15.3012 62.2102 15.0299 61.75 14.75C60.5789 14.056 61.8537 13.2491 62.6364 12.7537C62.7559 12.678 62.8639 12.6096 62.95 12.55C63.6 12.1 63.8 11.65 63.15 11.1C61.9 9.95001 60.45 8.70001 58.7 8.90001C56.55 8.95001 54.2 9.25001 52.6 10.75C51.8 11.3 56.2 14.35 56.9 14C56.9946 13.9369 56.93 13.8539 56.8694 13.7761C56.834 13.7306 56.8 13.6869 56.8 13.65C57.0329 13.1377 57.5694 12.8423 58.0055 12.6022L58.1 12.55C59.6526 14.5732 61.958 15.8437 64.1827 17.0697L64.1871 17.0722C64.3251 17.1482 64.4628 17.2241 64.6 17.3C64.75 17.35 64.75 17.35 64.8 17.5C64.8872 19.5925 62.9981 21.0768 61.419 22.3175C61.1869 22.4999 60.9615 22.677 60.75 22.85C59.7865 23.3318 60.8538 24.1037 61.5707 24.6221C61.7467 24.7494 61.9015 24.8613 62 24.95C62.0431 24.9802 62.0873 25.0104 62.1318 25.0407C62.6035 25.3626 63.1069 25.706 62.65 26.3C61.9221 27.1665 60.7858 27.12 59.724 27.0765C59.2541 27.0573 58.7988 27.0387 58.4 27.1ZM52.1524 45.5721C52.4773 45.8397 52.8136 46.1166 53.1499 46.3C54.8999 47.45 57.1 46.75 58.45 45.4C60.55 46.95 62.1499 47.65 64.4999 45.65C64.9572 45.3299 64.0761 44.5916 63.6545 44.2383C63.6152 44.2053 63.5798 44.1757 63.5499 44.15C63.5073 44.1181 63.4624 44.0793 63.4152 44.0385L63.4151 44.0384L63.4149 44.0383C63.2409 43.8879 63.0359 43.7107 62.7999 43.75C61.7499 44.65 60.2999 45.6 58.8999 44.95C58.4999 44.35 57.9 43.7 57.2 43.45C56.8947 43.5518 56.6025 43.757 56.3034 43.967L56.3033 43.9671C56.0145 44.1699 55.7192 44.3772 55.3999 44.5C54.4499 45 53.2999 45.35 52.2499 44.95C51.9499 44.35 51.4499 43.85 50.8499 43.45C50.5499 43.2 50.2999 43.25 50.0499 43.5C49.0499 44.05 48.0499 44.6 46.8999 44.7C45.9114 44.8854 45.3237 44.4028 44.7123 43.9007C44.3341 43.5901 43.9468 43.272 43.45 43.1C43.1249 43.2219 42.7814 43.3768 42.4259 43.5371L42.4258 43.5371C41.0315 44.1657 39.4546 44.8766 38.0999 44C37.8999 43.55 36.8999 42.35 36.3999 42.6C35.3499 43.75 33.55 45.15 31.95 44.25C31.7 43.9 30.5499 42.3 30.0999 42.95C29.2499 44.05 27.8999 45.5 26.3999 44.7C26.3393 44.6284 26.2775 44.5538 26.2144 44.4776L26.214 44.4771L26.214 44.4771C25.704 43.8611 25.1061 43.139 24.3499 43.05L24.221 43.1641C23.3991 43.8926 22.4373 44.745 21.2499 44.65C21.0999 44.05 21.0499 43.3 21.2999 42.7C21.3197 42.6803 21.3472 42.6762 21.3732 42.6722C21.4133 42.6661 21.45 42.6606 21.45 42.6C21.15 41.9 20.4 41.35 19.7 41C19.55 40.9 19.3999 41 19.3499 41.2C18.3999 43.5 21.2499 46.75 23.5999 46.25C24.4499 45.95 25.0999 45.35 25.5999 44.6C25.6333 44.5334 25.6833 44.55 25.7499 44.65C27.5499 46.55 29.9499 47.05 31.3499 44.45C31.354 44.4419 31.3581 44.433 31.3622 44.4238L31.3745 44.3956C31.4175 44.2957 31.4662 44.1825 31.5499 44.35C33.3999 46.25 35.5999 45.95 37.3499 44.15C40.1999 46.25 41.4999 46.7 44.8999 44.9C46.8999 46.75 49.5499 47 51.5499 45.1C51.7442 45.236 51.946 45.4022 52.1524 45.5721ZM9.7 88.2501C6.5 87.6001 4.54998 84.5 3.49998 81.65C3.41606 81.3143 3.78996 81.4717 4.001 81.5605L4.00119 81.5606L4.00186 81.5609L4.00239 81.5611L4.00331 81.5615C4.04273 81.5781 4.07631 81.5922 4.09996 81.6001C6.14996 82.8 6.64996 83.6501 7.34996 85.8501C8.64996 86.0234 9.7622 85.2203 10.7843 84.4823C10.9415 84.3687 11.0966 84.2567 11.25 84.15C11.8308 84.1915 12.3084 84.6461 12.7398 85.0568L12.7399 85.0569C12.8284 85.1411 12.9149 85.2235 13 85.3C15.65 86.25 18.5 84.8 20.55 83.2001C21.4349 82.4416 22.4618 83.4942 23.2118 84.263L23.2119 84.2631C23.3518 84.4065 23.482 84.54 23.6 84.65C25.4497 85.3719 27.4623 84.4247 29.197 83.6083C29.3847 83.5199 29.5693 83.4331 29.75 83.3501C30.9839 82.615 31.7766 83.1205 32.6422 83.6724C33.4251 84.1716 34.2676 84.7088 35.55 84.4C36.1923 84.3465 36.7773 84.0495 37.3587 83.7542C37.8635 83.4979 38.3655 83.243 38.8999 83.15C39.2839 83.2323 39.5777 83.4801 39.8719 83.7283C40.114 83.9326 40.3565 84.1372 40.6499 84.2501C42.6554 84.969 44.5749 84.113 46.4302 83.2857C47.0265 83.0198 47.6162 82.7568 48.2 82.55C49.05 82.9 49.95 83.65 50.2 84.55C52.3827 84.9978 54.2678 83.8168 55.6888 82.9265C56.8068 82.2261 57.6376 81.7056 58.1 82.3C58.6 82.7001 59.15 83.1501 59.45 83.7501C59.4833 83.8501 59.5333 83.8834 59.6 83.8501C62.3 84.4001 64.85 82.7501 67 81.3501C67.0833 81.3 67.1611 81.2389 67.2389 81.1778C67.3944 81.0556 67.55 80.9334 67.75 80.9C68.1206 80.9927 68.4148 81.257 68.7035 81.5163C68.8822 81.6768 69.0588 81.8353 69.25 81.9501C70.4214 82.1843 71.4808 81.6793 72.5181 81.1848C73.0305 80.9405 73.5375 80.6988 74.05 80.55C74.7 80.75 75.25 81.3501 75.7 81.8501C77.1 82.0001 78.55 81.2001 79.35 80.05C80.1 80.15 81.0499 81.2001 81.3999 81.8501C81.3499 82.4001 80.85 82.8 80.45 83.1001C78.95 84.2501 76.9 84.05 75.6 82.7001C73.55 84.15 71.3999 84.7001 69.3999 83.15C66.7 85.55 62.1499 87.4501 59.1499 84.55C59.0589 84.4741 59.0046 84.4028 58.9635 84.3487C58.8692 84.2247 58.8437 84.1911 58.6 84.4C55.9 86.65 51.8 87.8501 49.2 84.8C46.6 86.15 43.2 87.2001 40.7 85.05C40.6193 85.0097 40.5711 85.0671 40.5292 85.117C40.5192 85.1289 40.5096 85.1404 40.5 85.15C40.3666 85.25 40.2333 85.3334 40.1 85.4C38.1 86.9 35.4 86.7001 33.5 85.15C33.1648 84.9825 32.8296 85.1968 32.5095 85.4016C32.3521 85.5023 32.1983 85.6006 32.05 85.65C28.35 87.7001 26.25 87.7501 23.05 85.2001C20.25 87.2501 16.1499 88.65 13.1499 86.15C12.3499 87.3 11.15 88.2501 9.7 88.2501ZM56.5 106.3C59.7001 107.3 63.05 107.45 66.4 107.55C68.05 107.75 64.95 105.2 64.55 104.95C64.6499 104.936 64.8636 104.97 65.1066 105.01C65.7153 105.108 66.5074 105.236 66.15 104.7C66.1167 104.667 66.1334 104.65 66.2001 104.65C66.3001 104.683 66.4167 104.7 66.55 104.7C69.8535 105.399 72.2287 105.028 72.0605 103.742C73.1959 104.558 74.5643 104.973 76 104.85C76.096 104.85 76.2022 104.855 76.312 104.86L76.3139 104.86L76.3141 104.86H76.3142C76.5472 104.872 76.7966 104.884 77 104.85C77 104.25 75.55 103.3 75.05 103C74.6254 102.717 74.1507 102.734 73.6968 102.751C73.5093 102.758 73.3254 102.765 73.15 102.75C73.4904 102.02 74.1619 101.291 74.9805 101.068C74.7452 101.317 75.602 102.048 76.3316 102.536C76.3333 102.644 76.3666 102.75 76.4501 102.85C76.9001 103.55 77.6001 104.15 78.3501 104.45C78.6501 104.55 78.5 104.25 78.4 104.15C78.0684 103.689 78.1305 103.337 78.1912 102.994C78.1963 102.965 78.2014 102.936 78.2062 102.907C78.4118 102.874 78.6162 102.836 78.8187 102.798L78.8188 102.798L78.8189 102.798L78.819 102.798L78.8191 102.798C79.1177 102.741 79.4121 102.686 79.7 102.65C79.925 102.6 80.1625 102.562 80.4 102.525L80.4004 102.525L80.4007 102.525L80.4011 102.525L80.4015 102.525L80.4018 102.525L80.4021 102.525C80.6389 102.487 80.8757 102.45 81.1 102.4C81.5 102.05 79.3 100.5 78.9 100.45C78.3222 100.517 77.7444 100.623 77.1667 100.729C76.967 100.766 76.7673 100.802 76.5677 100.837L76.5001 100.8C76.5345 100.714 76.5728 100.624 76.6124 100.531C76.9179 99.8145 77.2969 98.9254 76.5001 98.35C76.4641 98.3211 76.4207 98.284 76.3721 98.2423C76.0833 97.9946 75.6068 97.586 75.3501 97.7999C75.3501 97.9319 75.4476 98.0221 75.5397 98.1072C75.6221 98.1834 75.7001 98.2555 75.7001 98.35C75.5872 99.0112 75.3287 99.4279 75.1292 99.7495L75.1291 99.7495L75.129 99.7498C75.0303 99.9089 74.9461 100.045 74.9011 100.175L74.8202 100.101C74.0104 99.3545 72.854 98.2888 71.85 98.8999C71.022 99.4844 70.2414 100.543 70.3403 101.615C69.9501 101.312 69.4884 100.99 68.9501 100.65C70.2501 99.1 73.1001 94.95 72.7001 92.95C72.1501 91.85 70.3 90.2 69.1 90C65.9104 90.9245 63.4046 95.61 61.7801 98.7222L61.7681 98.7018L61.7681 98.7017C61.4686 98.1911 61.1823 97.703 60.95 97.25C60.7445 96.9101 60.5427 96.5564 60.3386 96.1985L60.3378 96.1972L60.3377 96.197L60.3376 96.1969L60.3376 96.1967L60.3375 96.1966L60.3374 96.1965L60.3373 96.1963L60.3372 96.1962L60.3372 96.1961L60.3371 96.1959L60.337 96.1958L60.3369 96.1956L60.3368 96.1955L60.3368 96.1954L60.3367 96.1952L60.3359 96.194L60.3359 96.1938L60.3356 96.1933C59.2493 94.2888 58.0949 92.265 55.95 91.55C55.6303 91.5181 56.2307 92.5699 56.7182 93.4239C56.9931 93.9053 57.232 94.3239 57.25 94.45C58 96.1 56.85 96.1 55.6 95.65C54.45 95.2 53.8 95.7 54.25 96.95C54.6864 98.1622 55.593 99.1864 56.5138 100.068C56.2925 99.9805 56.0713 99.8911 55.85 99.8C55.4164 99.6355 54.9873 99.4487 54.556 99.2609C53.5449 98.8207 52.5216 98.3752 51.4 98.2C49.6 97.85 48.75 99.35 49.55 100.9C51.05 103.45 53.75 105.3 56.5 106.3ZM52.8501 103C52.5001 102.7 52.6501 101.85 53.0001 101.5C54.0994 100.649 55.8778 101.483 57.4077 102.2L57.4078 102.201L57.4079 102.201C58.035 102.495 58.6204 102.769 59.1001 102.9C59.9001 103.5 60.7001 104.1 61.7001 104.35C58.7001 104.3 55.6501 104.15 52.8501 103ZM65.5001 100.6C65.4161 100.754 65.3281 100.908 65.2395 101.063L65.2395 101.063C65.0118 101.462 64.7801 101.868 64.6001 102.3C64.7428 102.327 64.8994 102.36 65.0665 102.394C66.4218 102.673 68.4709 103.096 69.4501 102.25C69.5501 102.183 69.5668 102.15 69.5001 102.15C68.9337 102.031 68.5273 102 68.1934 101.975C67.4072 101.917 67.0231 101.888 65.9001 100.8C65.8447 100.782 65.7894 100.709 65.7366 100.639C65.6462 100.52 65.5632 100.411 65.5001 100.6ZM57.7499 100.15C57.2499 99.7499 56.6499 98.75 57.0499 98.1C57.4231 97.8703 57.9117 98.0197 58.4021 98.1697C58.7658 98.281 59.1305 98.3925 59.4499 98.35L59.5019 98.4611C59.8425 99.1879 60.2425 100.042 60.0999 100.85C60.0665 100.85 60.0166 100.867 59.9499 100.9C59.9499 100.967 59.9165 100.967 59.8499 100.9C59.7203 100.863 59.5891 100.828 59.4571 100.792L59.4555 100.792L59.4542 100.791L59.4541 100.791C58.8737 100.635 58.2787 100.475 57.7499 100.15ZM61.65 115.2C61.9 116.55 63.15 117.5 64.25 118.15C66.102 118.9 67.8763 117.122 69.1955 115.799C69.3721 115.622 69.5406 115.454 69.7 115.3L70.3 114.6C70.3667 114.467 70.4333 114.483 70.5 114.65C72.3 116.4 74.3 116.15 75.5 113.9C77.15 110.55 73.35 106.15 70.1 105.5C69.45 105.45 68.3 105.45 68.2 106.3C68.45 107.3 70.5 109.2 71.5 109.4C71.6206 109.4 71.6119 109.303 71.6039 109.213V109.213C71.6029 109.203 71.602 109.192 71.6013 109.182L71.6005 109.169L71.6001 109.16L71.6 109.15C71.55 108.5 72.4 108.25 72.95 108.3C73.75 109.95 73.05 111.95 71.45 112.85C71.05 112.25 69.95 111.05 69.25 111C67.8 112.95 65.95 114.7 63.8 115.9C63.8168 115.774 63.8391 115.646 63.8617 115.516C63.9739 114.872 64.091 114.199 63.55 113.7C63.4779 113.628 63.4049 113.553 63.3307 113.477C62.8392 112.974 62.2951 112.417 61.6 112.2C61.0042 112.23 60.4261 112.419 59.8447 112.61L59.8446 112.61C59.4502 112.739 59.0541 112.869 58.65 112.95C58.95 112.5 59.75 111.95 60.35 111.7C60.8688 111.407 61.5199 111.5 61.9865 111.567C62.5542 111.649 62.8489 111.691 62.3 110.95C60.9 109.1 58.75 108.05 56.75 109.8C55.95 110.5 55 111.4 55.05 112.55C55.5 113.8 56.7 114.7 57.8 115.4C59 116 60.45 115.65 61.65 115.2ZM41.5 100.9C40.2 100.75 39 99.9 38.15 98.95C37.4107 98.1121 37.9832 97.0313 38.4307 96.1865L38.45 96.15C38.524 96.039 38.5981 95.9247 38.673 95.8088C39.1046 95.1423 39.5684 94.426 40.25 94C40.8699 94.124 41.4214 94.5553 41.9329 94.9553C42.0403 95.0393 42.1459 95.1219 42.25 95.2C42.2878 95.2504 42.3669 95.3199 42.4577 95.3996C42.727 95.6361 43.0992 95.963 42.8 96.15C41.75 97 40.65 98 40.05 99.25C40.4996 99.1971 40.8933 98.9763 41.2828 98.7579C41.6296 98.5633 41.9732 98.3707 42.35 98.3C42.6581 98.3 42.9069 98.1813 43.1649 98.0582C43.2418 98.0215 43.3196 97.9845 43.4 97.95C43.8 97.65 44.95 98.7 45.15 99.05C45.1921 99.1343 45.1632 99.1475 45.0932 99.1796C45.0802 99.1855 45.0657 99.1922 45.05 99.2C44.8781 99.3433 44.6733 99.4373 44.4733 99.5291L44.4732 99.5292C44.3243 99.5975 44.178 99.6646 44.05 99.75C43.35 100.45 42.5 101.05 41.5 100.9ZM40.1 102.6C40.7 103.25 41.45 103.9 42.3 104.15C43.8201 104.53 44.8766 103.448 45.8611 102.44L45.8612 102.44C46.0424 102.254 46.2212 102.071 46.4 101.9C46.8635 101.475 47.3866 101.11 47.9233 100.735L47.9234 100.735L47.9235 100.735L47.9242 100.735C48.082 100.625 48.241 100.514 48.4 100.4C48.4342 100.331 48.3276 100.192 48.241 100.08C48.2013 100.028 48.1657 99.9815 48.15 99.95C47.8833 99.6833 47.6 99.45 47.3 99.25C46.95 98.95 46.8 99 46.4 99.25C45.3968 99.7516 44.5334 100.463 43.6637 101.179L43.6637 101.179L43.6636 101.179L43.6635 101.179L43.6634 101.18L43.6633 101.18L43.6633 101.18L43.6632 101.18L43.6631 101.18L43.663 101.18C43.4926 101.32 43.322 101.461 43.15 101.6C42.95 101.75 41.75 102.55 41.6 102.3C41.5593 102.255 41.5173 102.207 41.4742 102.159C41.0406 101.67 40.4866 101.045 39.85 101C39.6 101.55 39.65 102.15 40.1 102.6ZM39.65 106.55C38.5 106.45 37.5 105.65 36.7 104.9C35.8848 104.216 35.8026 103.228 35.7188 102.219C35.6432 101.31 35.5662 100.385 34.95 99.65C34.3441 98.7589 34.9323 97.6137 35.465 96.5768L35.465 96.5767L35.4651 96.5766C35.6796 96.159 35.8852 95.7589 36 95.4C36.25 95 37.25 96 37.35 96.25C37.2982 96.7163 37.1255 97.1826 36.9504 97.6559C36.7874 98.096 36.6223 98.5422 36.55 99C36.2592 99.8723 36.7277 100.607 37.1813 101.318C37.2737 101.462 37.3654 101.606 37.45 101.75C37.7383 102.363 37.8188 103.053 37.8975 103.728L37.8975 103.728C37.9279 103.99 37.9581 104.249 38 104.5C38.4 104.467 38.8 104.389 39.2 104.311C39.4 104.272 39.6 104.233 39.8 104.2C40.5843 104.385 41.241 104.995 41.8484 105.559L41.9372 105.642L42 105.7C42.1 105.8 42.25 105.95 42.25 106.15C42.25 106.25 42 106.25 41.95 106.25C41.7076 106.282 41.4601 106.325 41.2106 106.368L41.2106 106.368C40.6881 106.458 40.1576 106.55 39.65 106.55ZM41.6499 105.05C41.8499 105.65 42.7499 106.5 43.3999 106.7C44.0499 106.75 44.7499 106.75 45.3999 106.6C45.4499 106.55 45.3999 106.45 45.3499 106.4C44.9499 105.75 44.3499 105.15 43.6499 104.85C43.4542 104.811 43.2278 104.864 43.0187 104.912C42.9608 104.926 42.9042 104.939 42.8499 104.95C42.4832 105.017 42.1166 105.033 41.7499 105C41.7365 105 41.7231 104.996 41.7107 104.993C41.6767 104.984 41.6499 104.977 41.6499 105.05ZM77.3001 95.3C77.2006 95.2353 77.0793 95.1592 76.9422 95.0733L76.942 95.0731C75.702 94.2955 73.1747 92.7106 73.8501 91.45C74.2501 90.9 75.2001 90.25 75.9501 90.45C76.8001 90.8 78.65 91.8 78.9 92.7C78.6546 92.9727 78.3496 93.2009 78.05 93.4249C77.8004 93.6116 77.5546 93.7955 77.3501 94C77.8501 93.95 79.95 95.3 79.9 95.8C79 96.2 78.0501 95.75 77.3001 95.3ZM80.9 100.55C81.25 100.9 81.65 101.25 82.15 101.4C82.2268 101.438 82.2446 101.418 82.294 101.361C82.3014 101.353 82.3095 101.343 82.3186 101.333C82.3279 101.323 82.3383 101.312 82.35 101.3C82.65 100.95 83 100.45 82.9 99.95C82.7799 99.4694 82.4352 99.1492 82.0972 98.8353C82.0132 98.7573 81.9296 98.6796 81.85 98.6C81.65 98.3 81.75 97.95 81.85 97.65C81.9934 97.3632 82.1673 97.0866 82.3409 96.8104L82.3409 96.8103C82.7121 96.2198 83.0819 95.6313 83.15 94.95C83.35 92.6 79.8001 91.35 78.0001 90.85C77.9493 90.8399 77.8964 90.8256 77.847 90.8122L77.8468 90.8121L77.8466 90.8121L77.8464 90.8121C77.6527 90.7597 77.5112 90.7214 77.7501 91C78.0001 91.25 78.3501 91.5 78.7001 91.6C79.6001 91.9 80.5 92.2 81.35 92.65C82.003 93.5207 81.3294 94.5051 80.7813 95.3061C80.6999 95.4251 80.6212 95.5401 80.5501 95.65C79.6001 96.85 79.8501 97.45 80.9501 98.35C81.7501 98.95 81.3001 99.75 80.8001 100.35C80.8001 100.409 80.8344 100.45 80.8628 100.484C80.8829 100.509 80.9 100.529 80.9 100.55ZM52.8999 121.3C51.6999 121.25 50.6999 120.6 49.7999 119.85C49.7666 119.783 49.7333 119.767 49.7 119.8L49.597 119.863C48.7239 120.398 47.7601 120.989 46.7499 120.7C45.6999 120.3 44.6999 119.6 44.0999 118.65C44.0999 118.583 44.0833 118.567 44.0499 118.6C43.6499 118.7 43.1999 118.75 42.7499 118.65C41.5499 118.25 40.35 117.45 39.7 116.4C39.35 115.2 40.2499 114 40.9999 113.15C41.3922 112.611 42.0248 113.033 42.4735 113.332L42.4999 113.35C42.7499 113.5 44.4499 114.7 43.8999 114.85C43.2828 115.159 42.9377 115.817 42.6248 116.414C42.5828 116.494 42.5414 116.573 42.4999 116.65C43.2499 116.5 43.9499 116.65 44.5499 117.1L44.6219 117.154L44.689 117.204C45.2605 117.628 45.9113 118.111 46.0499 118.85C46.0166 118.983 46.0666 119 46.2 118.9C46.4565 118.806 46.7166 118.656 46.9795 118.506C47.69 118.098 48.4199 117.68 49.1499 118.3C49.6999 118.6 50.1999 119 50.5999 119.55C50.7999 119.8 51.4999 119.55 51.7499 119.45C52.2499 119.2 52.5999 118.8 52.8499 118.4C52.9218 118.364 52.9938 118.38 53.0471 118.392C53.0599 118.394 53.0717 118.397 53.0821 118.398C53.0886 118.399 53.0945 118.4 53.0999 118.4C53.6999 118.7 55.0499 119.45 55.1499 120.1C54.6999 120.9 53.7999 121.35 52.8999 121.3ZM72.7 116.5C71.35 116.5 74.7 119.1 75.1499 119.1C75.5013 119.034 75.8527 118.959 76.2045 118.883C77.4551 118.614 78.7123 118.344 80 118.5C80.2992 118.473 81.0091 118.597 81.8206 118.74L81.8208 118.74H81.8208C83.9928 119.121 86.8931 119.629 84.6 117.7C86.2 117.833 87.8167 118 89.45 118.2C89.5133 118.208 89.5774 118.217 89.6421 118.226C90.3432 118.323 91.1175 118.429 91.85 118.2C94.35 117.15 90.6 114.75 89.5 114.1C89.2325 113.94 89.0186 113.847 88.869 113.782L88.8689 113.782C88.7172 113.717 88.6315 113.68 88.6228 113.629C88.6114 113.564 88.7299 113.476 89.0022 113.273L89.0032 113.273L89.0057 113.271C89.0892 113.209 89.1871 113.136 89.3 113.05C90.7 112.1 90.2 111.6 89.05 110.8C88.1324 110.271 86.9906 110.439 85.8884 110.601C85.429 110.669 84.9765 110.735 84.55 110.75C83.4668 110.838 82.3933 111.044 81.3167 111.25L81.3167 111.251C79.9582 111.511 78.5947 111.772 77.2 111.8C76.85 111.7 77.25 112.15 77.3 112.2C78.1756 113.314 79.4947 113.035 80.7277 112.774C81.0438 112.707 81.3541 112.641 81.6499 112.6C82.1295 112.535 82.609 112.467 83.0876 112.399L83.0878 112.399L83.088 112.399L83.0882 112.399L83.0884 112.399C84.4561 112.205 85.8168 112.011 87.1499 111.9L87.1557 111.9C87.1696 111.898 87.1933 111.893 87.2201 111.887C87.3164 111.866 87.4513 111.837 87.3 111.95C87.1844 112.027 87.0466 112.089 86.9037 112.154L86.9036 112.154C86.6755 112.257 86.4344 112.366 86.25 112.55C86.1612 112.994 87.0968 113.674 87.5879 114.031L87.6715 114.092C87.7001 114.113 87.7264 114.132 87.75 114.15C88.1274 114.349 88.5364 114.508 88.9488 114.668C89.5743 114.912 90.2076 115.158 90.75 115.55C91 116.85 89.05 116.7 88.2 116.55C85.75 116.2 83.25 115.85 80.75 115.8C80 115.85 81.9 117.35 82.2 117.45L81.8396 117.37C78.8097 116.695 75.778 116.019 72.7 116.5ZM85.7001 105.65C84.9001 105.3 83.9501 104.7 83.55 103.9C83.65 103.767 83.7945 103.678 83.9389 103.589C84.0111 103.544 84.0834 103.5 84.15 103.45C86.0246 102.35 86.006 100.153 85.9891 98.1603C85.9853 97.708 85.9816 97.2662 86.0001 96.85C85.9501 90.4 85.6001 83.95 84.7501 77.55C84.7271 77.3776 84.7014 77.2026 84.6756 77.0261L84.6755 77.0252C84.5889 76.4342 84.5001 75.8273 84.5001 75.25C85.1001 75.35 85.65 75.9 86.05 76.35C87.5 83.75 88.2001 91.35 88.3 98.9C88.304 99.1004 88.3098 99.3052 88.3156 99.5128C88.3844 101.947 88.4643 104.775 85.7001 105.65ZM80.35 107.7C80.9 108.6 81.9 109.35 82.95 109.7C83.2197 109.739 83.4597 109.569 83.67 109.421C83.7326 109.377 83.7926 109.334 83.85 109.3C84.65 108.55 85.7 108.45 86.7 108.85C88.7937 109.58 91.0297 109.268 93.1308 108.974L93.3 108.95C93.45 108.45 91.8 107.25 91.3 107C91.2872 106.991 91.2742 106.983 91.261 106.974L91.2322 106.954L91.2306 106.953C90.9398 106.757 90.5699 106.508 90.2 106.6C89.9881 106.639 89.7763 106.679 89.564 106.719L89.5639 106.719C88.6743 106.889 87.7784 107.06 86.85 107.1C86.1432 107.194 85.4587 107.022 84.7755 106.85C84.0086 106.657 83.2433 106.465 82.45 106.65C82.3167 106.717 82.2278 106.606 82.1389 106.494C82.0945 106.439 82.05 106.383 82 106.35C80.75 105.25 79.75 104.85 78.15 105.55L78.1122 105.566C78.0803 105.579 78.0399 105.596 77.9924 105.615L77.9923 105.615L77.9922 105.615C77.3624 105.873 75.4895 106.64 75.85 107C76.35 107.7 77.15 108.3 77.9 108.65C78.05 108.7 78.15 108.7 78.3 108.65C78.95 108.25 79.6 107.9 80.35 107.7ZM35.3499 20.75C40.5999 18.75 42.3499 24.35 34.6999 22.6C34.6999 22.6 34.4999 22.6 34.4999 22.55C34.9999 22.1 35.3999 21.4 35.3499 20.75ZM29.8998 25.4C29.3998 25.75 28.8998 26.15 28.3998 26.55C28.8331 26.75 29.2331 26.9834 29.5998 27.25C29.6998 27.3834 29.7498 27.3834 29.7498 27.25C29.9498 26.6 30.0498 25.95 30.0998 25.3L29.8998 25.4Z" fill="black"/>
</svg>
