<svg width="78" height="142" viewBox="0 0 78 142" fill="none" xmlns="http://www.w3.org/2000/svg">
<path fill-rule="evenodd" clip-rule="evenodd" d="M16.3001 28.4241C13.5001 19.1241 15.4001 8.87412 20.9501 0.974116C21.4501 0.224116 21.9001 -0.0758838 22.6001 0.724116C23.3403 1.26957 23.1395 1.51144 22.7781 1.94651C22.6757 2.06977 22.5605 2.20854 22.4501 2.37413C14.9501 13.9741 16.5001 25.4241 20.9001 37.3241C18.4146 36.0012 17.6005 33.039 16.8599 30.3446L16.8599 30.3445C16.6769 29.6784 16.4983 29.0287 16.3001 28.4241ZM35.3502 141.874C33.5502 141.074 31.6002 139.674 30.7502 137.874C31.3002 135.424 31.8501 133.024 32.4501 130.574C32.5892 129.994 32.7289 129.413 32.8688 128.832C35.0432 119.795 37.2502 110.623 37.2502 101.274C37.3502 92.5241 35.5502 83.7741 30.9002 76.3241C29.8226 74.4552 28.5636 72.6713 27.3026 70.8847L27.3026 70.8846C24.8189 67.3656 22.3277 63.8358 21.2001 59.6242C20.1001 54.7742 20.3502 49.5241 21.5002 44.7241C22.1002 44.2241 26.9002 48.1241 25.7502 48.4741C23.527 62.3073 26.527 66.5727 34.0269 77.2356L34.3002 77.6242C37.1695 81.9115 39.1015 86.4531 40.3099 91.1527C40.3361 89.4316 40.3699 87.7077 40.4038 85.9826V85.9824V85.9821V85.9819V85.9817V85.9815V85.9813V85.9811V85.9809V85.9807V85.9805V85.9803V85.9801V85.9799V85.9796C40.5064 80.7604 40.6093 75.529 40.5 70.3242C40.4 67.4242 40.2 64.6242 39.95 61.7742C39.9167 60.9409 39.8667 60.1242 39.8 59.3242C39.879 59.0478 40.3633 59.3014 40.6374 59.445C40.7104 59.4832 40.7685 59.5137 40.8 59.5242C40.9298 59.6176 41.0655 59.7127 41.2044 59.81C42.4033 60.6497 43.8397 61.6558 43.75 63.2242C44.7 71.5242 44.15 79.9242 43.55 88.2242C43.5159 88.788 43.4788 89.3519 43.438 89.9155C44.5554 86.676 45.7489 83.4617 47.0001 80.2741C49.2501 74.9241 50.8001 69.2741 51.1001 63.4241C51.3164 61.6543 51.3471 59.8613 51.3777 58.0725C51.425 55.3129 51.472 52.5633 52.2001 49.9241C52.5501 49.3241 55.2501 51.5241 55.3001 52.0241C54.7909 53.7083 54.834 55.5152 54.8766 57.3006V57.3007V57.3009V57.301V57.3011V57.3013V57.3014V57.3015V57.3017V57.3018V57.302V57.3021V57.3022V57.3024V57.3025V57.3026C54.8884 57.7958 54.9001 58.2873 54.9001 58.7741L54.9065 59.413C54.9564 64.3537 55.0067 69.3308 54.0001 74.1241C53.2554 77.6704 52.0076 81.0657 50.7563 84.4707C50.2434 85.8665 49.7298 87.264 49.2501 88.6741C46.312 97.1871 43.459 105.814 41.418 114.618C40.361 123.902 37.9706 133.198 35.6502 141.874C35.6168 141.907 35.5668 141.924 35.5002 141.924C35.4335 141.924 35.3835 141.907 35.3502 141.874ZM23.3501 16.1241C21.4501 21.8241 21.4001 26.9241 27.6001 29.6741C28.2001 29.8741 28.7668 29.9741 29.3001 29.9741C32.5384 29.9741 35.0873 26.7186 37.1144 24.1295C37.4034 23.7603 37.6818 23.4048 37.9501 23.0741C38.0485 22.8773 38.2652 22.6267 38.498 22.3576C38.9749 21.8063 39.5189 21.1773 39.2501 20.7741C38.7001 20.1241 37.9501 19.2741 37.1001 19.1741C36.589 19.7626 36.0876 20.3607 35.5868 20.958L35.5865 20.9583C34.4706 22.2893 33.358 23.6162 32.1501 24.8241C21.0501 35.0741 24.9501 16.7241 27.6001 11.3241H27.6501C27.6501 10.8741 25.9001 9.22412 25.6501 9.92412C24.6501 11.9241 23.9501 14.0241 23.3501 16.1241ZM39.3 29.0241C39.6424 27.5784 40.1585 26.1617 40.6721 24.7519L40.6722 24.7516L40.6723 24.7512L40.6724 24.7509L40.6726 24.7505C40.8338 24.3079 40.9948 23.866 41.15 23.4241C41.9 23.5241 43.4 24.7241 43.55 25.5241C42.3 28.2241 39.55 36.4241 42.15 38.5241C45.85 38.8741 47.8 34.7741 48.7 31.8241C49.0984 30.589 49.3381 29.2904 49.5708 28.0296C49.6302 27.7081 49.6891 27.389 49.75 27.0741C50.65 27.2241 51.5 28.1241 52 28.8741C51.35 33.2741 50.25 40.4741 44.75 40.8741C38.8 39.3741 37.65 34.4241 39.3 29.0241ZM56.9146 28.4158C56.3161 27.7512 55.3655 26.6956 55.45 28.1741C54.55 33.1241 55.05 37.9741 60.75 39.4241C65 39.1741 65.25 33.6242 64.7 30.3742C64.35 29.8242 63.05 28.1741 62.4 28.4241V29.7241C62.5 32.4241 61.9 36.3742 58.7 36.8742H58.45C58.4133 36.8742 58.375 36.8749 58.336 36.8757C58.0565 36.8812 57.7378 36.8874 57.65 36.6242C57.0247 35.1352 57.1265 33.5043 57.2266 31.9006V31.9005V31.9005V31.9005V31.9004V31.9004V31.9004V31.9003V31.9003V31.9003V31.9002C57.2946 30.8114 57.3618 29.7351 57.2 28.7241C57.1225 28.6466 57.0245 28.5378 56.9146 28.4158ZM32.3501 16.9241C31.8501 16.6241 31.3501 16.2741 30.9001 15.8741C30.5001 15.5241 30.1501 15.1741 29.8501 14.8241C29.7501 14.7241 29.3001 14.2241 29.5001 14.0241C29.6126 13.9116 29.8376 14.0241 30.0064 14.1085C30.0626 14.1366 30.1126 14.1616 30.1501 14.1741C30.6501 14.4741 31.1501 14.8741 31.6001 15.2741C31.9501 15.5741 32.3501 15.9241 32.6501 16.3241C32.8001 16.4741 33.1001 16.8241 33.0001 17.0741C32.9668 17.1075 32.9335 17.1241 32.9001 17.1241C32.7001 17.1241 32.5001 17.0241 32.3501 16.9241ZM28.8501 21.4241C29.3501 21.8741 29.9501 22.3241 30.5501 22.6741C30.5955 22.6893 30.6455 22.7136 30.7001 22.7401L30.7001 22.7401C30.8258 22.8012 30.9758 22.8741 31.1501 22.8741C31.1834 22.8741 31.2334 22.8575 31.3001 22.8241C31.3861 22.566 31.1391 22.271 30.9411 22.0344C30.9089 21.9959 30.878 21.9591 30.8501 21.9241C30.5001 21.5241 30.1001 21.1241 29.6501 20.7241C29.1501 20.2741 28.6001 19.8241 27.9501 19.5241C27.8501 19.4241 27.4001 19.1741 27.2501 19.3241C27.048 19.4858 27.3688 19.8763 27.5519 20.0992L27.552 20.0992L27.552 20.0993L27.552 20.0993C27.5954 20.1521 27.631 20.1954 27.6501 20.2241C28.0001 20.6741 28.4001 21.0741 28.8501 21.4241ZM45.9501 29.7741C45.6904 29.6257 45.4582 29.4222 45.2332 29.225C45.1549 29.1564 45.0775 29.0886 45.0001 29.0241C44.7668 28.7907 44.5501 28.5407 44.3501 28.2741C44.3001 28.2241 44.0001 27.874 44.1001 27.724C44.1706 27.6536 44.3155 27.7321 44.4125 27.7846C44.4531 27.8066 44.4853 27.8241 44.5001 27.8241C44.8501 28.024 45.2001 28.3241 45.4501 28.5741C45.7168 28.8074 45.9501 29.0574 46.1501 29.3241C46.1701 29.354 46.1941 29.386 46.2193 29.4196C46.3201 29.554 46.4401 29.7141 46.4001 29.8741H46.3001C46.1501 29.8741 46.0501 29.8241 45.9501 29.7741ZM43.3 32.8743C43.15 32.7743 42.7 32.4743 42.75 32.8743C42.9 33.8243 43.95 34.5243 44.75 34.9742C45.5 34.6242 43.7 33.1243 43.3 32.8743ZM58.2001 27.674C58.8001 27.374 62.6501 30.674 61.2001 30.924C60.1501 30.374 58.1501 28.974 58.2001 27.674ZM59.5001 33.274C59.8001 33.574 60.1501 33.874 60.5501 34.074C60.6501 34.174 60.8001 34.224 60.9501 34.224H61.0001C61.1001 34.024 60.9001 33.774 60.7501 33.624C60.5501 33.324 60.3001 33.074 60.0001 32.824C59.7001 32.524 59.3001 32.224 58.9501 32.024C58.8501 31.974 58.5501 31.824 58.4501 31.924C58.3501 32.024 58.6501 32.424 58.7501 32.474C58.9501 32.774 59.2001 33.024 59.5001 33.274ZM7.90001 62.0742C3.38142 59.3442 4.35716 56.6142 5.78015 52.6329L5.78024 52.6327C5.86883 52.3848 5.95916 52.1321 6.05 51.8742C3.95 51.0242 0.35 48.7242 1 46.0742C1.8 43.7242 3.65 41.7242 5.8 40.5242C6.09576 40.3374 6.50298 40.1748 6.93264 40.0033C7.8831 39.6239 8.94341 39.2006 9.15001 38.3742C8.94571 38.2503 8.73468 38.1234 8.51849 37.9935C5.50728 36.1837 1.49641 33.773 0.75 30.2742C0.85 27.7742 3 25.5742 5.2 24.6242C8.15 23.4742 10.95 26.1242 12.65 28.2742C12.871 28.8489 12.8185 28.8373 12.4578 28.7578L12.4578 28.7578C12.4105 28.7473 12.3579 28.7358 12.3 28.7242C11.55 28.5742 10.05 28.4742 7.85001 30.6742C7.79133 30.7358 7.73161 30.7981 7.67122 30.8611C6.70243 31.8719 5.5588 33.0651 5.7 34.5242C5.89243 34.9732 6.33175 35.1959 6.76721 35.4167L6.76724 35.4167C7.01062 35.5401 7.25281 35.6628 7.45 35.8242C7.65019 35.9622 7.91424 36.1308 8.21741 36.3243C10.1101 37.5326 13.5274 39.7141 12.45 41.5242C12.0167 42.0575 11.4056 42.3242 10.7944 42.5909C10.4889 42.7242 10.1833 42.8575 9.90001 43.0242C7.40001 44.3242 4.95001 46.5742 4.40001 49.4242C6.35001 49.5242 8.15 50.5242 9.2 52.1742C9.45 52.7242 9.2 53.4242 9 53.9742C8.4 55.7742 7.95001 57.6742 7.90001 59.6242C9.07248 59.2724 10.1533 58.6458 11.2141 58.0307L11.2143 58.0306L11.2145 58.0305L11.2159 58.0296C11.5117 57.8582 11.8058 57.6876 12.1 57.5242C12.606 57.0182 13.2541 57.4722 13.7747 57.8369C13.8714 57.9046 13.9638 57.9693 14.05 58.0242C14.1714 58.1355 14.3359 58.2714 14.5205 58.424L14.5206 58.424C15.2483 59.0254 16.2899 59.8861 16.25 60.5242L16.1627 60.5807C14.4801 61.6698 12.465 62.9742 10.45 62.9742C9.6 62.9742 8.70001 62.7242 7.90001 62.0742ZM60.4346 71.3012L60.45 71.3241C62 73.2241 64 75.2241 66.5 75.7741C69.65 75.7241 71.7 71.7241 70.9 68.9241C70.139 66.5935 68.3373 64.8963 66.614 63.273L66.6134 63.2724C66.5254 63.1895 66.4375 63.1067 66.35 63.0241C65.6869 62.6527 66.7827 61.817 68.0176 60.8753C69.1105 60.0418 70.3122 59.1253 70.5 58.3741C71.6361 56.0111 69.0965 54.2263 67.2728 52.9446C67.0898 52.8161 66.9141 52.6926 66.75 52.5741L66.7129 52.5491L66.6437 52.5019C66.1289 52.1508 64.3959 50.9689 64.35 51.4741C64.75 52.2741 65.45 53.0741 66.3 53.3741C66.8951 53.5328 67.4588 53.9433 67.9909 54.331C68.1294 54.4318 68.2658 54.5312 68.4 54.6241C68.64 54.7441 68.624 54.9921 68.608 55.2401C68.604 55.3021 68.6 55.3641 68.6 55.4241C68.0502 57.1551 66.5714 57.9737 65.3494 58.6502C63.571 59.6346 62.3365 60.318 65.3 63.0741C67.25 64.7741 69.25 66.6741 68.3 69.5241C67.7 71.7741 64.85 73.7241 62.7 72.1741C62.565 72.0514 62.4331 71.9287 62.3019 71.8067L62.3018 71.8066C61.8985 71.4316 61.5028 71.0636 61.05 70.7241C60.85 70.5741 60.6 70.4241 60.35 70.3241C59.679 70.1803 60.2944 71.0932 60.4346 71.3012ZM56.3501 45.1741C56.4001 45.0241 56.6001 45.0241 56.7001 45.0241C57.0001 44.9575 57.3001 44.9075 57.6001 44.8741C62.0501 44.3741 66.5501 42.6241 69.6001 39.2241C72.7001 35.8741 74.2001 30.5741 72.1001 26.3241C71.7505 25.6249 70.9608 25.3168 70.2097 25.0238C69.8867 24.8977 69.5708 24.7745 69.3001 24.6241C67.5224 23.913 65.7237 23.3482 63.9176 22.781C62.9299 22.4708 61.94 22.16 60.9501 21.8241C59.1478 21.2334 57.3398 20.6886 55.5456 20.148L55.5455 20.148C45.4936 17.1192 35.8778 14.2218 30.1502 4.12413C30.0002 3.67413 31.0501 4.52412 31.1001 4.57412C31.7446 5.30745 32.3495 6.08029 32.9545 6.85313C33.7106 7.81918 34.4668 8.78523 35.3001 9.67412C38.4782 13.1202 43.0344 14.4258 47.4867 15.7016L47.4868 15.7016C48.8484 16.0918 50.2003 16.4791 51.5001 16.9241C54.3501 17.7241 57.1501 18.5241 59.9501 19.3741C65.2001 20.8741 70.7001 22.6241 74.4001 26.8741C77.5501 30.1741 77.7502 35.3241 75.9001 39.3241C73.2001 45.4241 66.3502 48.4241 60.0002 48.6241C58.6502 47.9241 56.9001 46.5741 56.3501 45.1741ZM28.9499 42.8742C30.65 44.9242 33.0999 46.1242 35.45 47.2742C39.2 49.2742 43.4 50.1742 47.65 50.1742C47.8166 50.1742 48 50.1575 48.2 50.1242C49.0571 50.1693 48.0012 49.1561 47.603 48.774C47.5598 48.7326 47.5244 48.6986 47.5 48.6742C45.2703 46.5374 44.2489 46.5584 41.6295 46.6122C41.4294 46.6163 41.22 46.6206 41 46.6242C37.25 46.6742 33.35 45.4742 30.35 43.1742C30.05 42.8742 28.0499 41.6742 28.9499 42.8742Z" fill="black"/>
</svg>
