<svg width="102" height="107" viewBox="0 0 102 107" fill="none" xmlns="http://www.w3.org/2000/svg">
<path fill-rule="evenodd" clip-rule="evenodd" d="M46.65 32.6245C46.1 32.9745 48.2 34.5245 48.6 34.6245C48.75 34.6745 48.85 34.5245 48.75 34.4245C48.9161 34.0212 49.0872 33.6191 49.2583 33.2168L49.2583 33.2168C50.1692 31.0761 51.0816 28.9316 51.25 26.5745C51.6 22.8245 51.35 18.6245 49.15 15.3745C50.25 11.0245 49.15 6.22451 47.15 2.27451C46.95 2.02451 45.1 0.274511 45 0.874511C46.45 4.67451 47.6 8.87451 46.7 12.9245C45.35 11.8745 43.65 10.8245 41.85 11.2245C39.6 11.6745 37.25 14.1245 38.2 16.4745C40.55 20.5745 45.75 22.5745 48.35 17.5245C49.65 22.5745 49.05 27.9745 46.65 32.6245ZM0.75 48.3746C1.15 51.4245 6.24998 54.4746 8.84998 55.8246C10.2 55.5746 6.59999 52.8746 6.04999 52.5246C6.47514 50.5051 8.00174 49.1635 9.53413 47.8167C10.8852 46.6293 12.2408 45.438 12.85 43.7746C13.71 40.8777 11.128 38.7184 9.07321 36.9999C8.85818 36.8201 8.64892 36.6451 8.44998 36.4745C8.19998 36.3245 8.09999 36.0746 8.14999 35.8246C9.79312 32.8879 14.0029 31.9557 17.8054 31.1136C19.4412 30.7514 21.0017 30.4058 22.25 29.9246C25.1258 28.7827 21.8491 26.5677 19.9836 25.3068L19.9836 25.3067C19.6435 25.0769 19.3504 24.8787 19.15 24.7245C24.05 21.3746 33.05 19.7246 38.55 23.6746C39.2449 24.1378 39.8325 24.7621 40.4172 25.3832C41.0946 26.1029 41.7681 26.8183 42.6 27.2746C41.25 25.3746 39.1 23.5745 37.05 22.2245C32.8 19.5245 27.45 19.0246 22.55 20.0246C20.3 20.4246 18.1 20.9245 15.9 21.4745C15 21.5745 15.25 22.5245 15.75 22.9745C16.4615 24.0062 17.4514 24.6772 18.1682 25.163C19.4664 26.043 19.8689 26.3159 16.1 27.0246C15.7489 27.0865 15.3942 27.1474 15.0368 27.2088L15.0357 27.209L15.0351 27.2091L15.0345 27.2092L15.0341 27.2092L15.0341 27.2093C11.0653 27.8907 6.77674 28.6271 3.75 31.4246C2.88614 33.3401 4.75902 34.8606 6.38032 36.1769C6.91734 36.6129 7.42677 37.0265 7.79999 37.4246C9.65215 40.3645 7.19998 42.1635 4.68197 44.0109C2.91755 45.3053 1.12081 46.6235 0.75 48.3746ZM23.7 41.8245C23.8624 43.9772 25.9055 45.9319 28.0604 46.6702C21.657 46.924 16.508 53.9603 25.7001 58.0245C26.3454 58.2346 26.9912 58.3637 27.6302 58.4192C27.3248 59.1119 27.1396 59.8502 27.1001 60.5745C27.1214 61.7228 27.631 62.7173 28.3828 63.5581C26.922 63.1626 26.955 64.0137 31.1998 66.8245C31.7998 69.8745 30.2998 73.3745 27.5498 74.8745C25.1498 76.5245 26.6499 71.3245 27.1499 70.3245C27.1787 70.272 27.2083 70.2179 27.2385 70.1625C27.7852 69.1611 28.5681 67.7271 29.7998 67.7745C29.4498 66.8745 28.2498 66.1245 27.2998 66.0245C26.5394 66.2181 25.8631 66.6334 25.2868 67.1901C25.2063 67.1496 25.1271 67.111 25.0499 67.0745C24.4685 67.1338 23.8562 67.2353 23.2309 67.3391C21.2211 67.6724 19.0779 68.0278 17.3999 67.0745C15.9999 63.3745 19.1499 58.1245 22.9499 57.4245C23.3767 57.3469 23.6831 57.5703 23.9858 57.7912C24.0732 57.8549 24.1603 57.9184 24.2499 57.9745C25.0499 58.0745 23.0499 56.5245 22.7499 56.4745C18.3999 54.6245 13.7499 60.7245 14.5999 64.7745C15.8999 67.8245 19.2999 69.8245 22.4999 69.9245C22.8625 69.9245 23.225 69.9108 23.5866 69.8855C23.2012 70.9282 23.0267 72.0366 23.0998 73.0245C23.8498 75.8245 26.8999 77.9745 29.6499 78.4745C30.651 78.4745 31.5556 78.1753 32.3439 77.6748C31.5821 78.8261 30.9458 80.1013 30.4998 81.1744C30.0872 81.9491 29.9015 82.7195 29.8985 83.466C27.6752 79.621 22.381 75.3436 18.1501 78.3245C12.1501 82.1745 18.9501 87.1745 23.2501 88.1745C23.7781 88.5265 29.2128 88.3085 31.9826 87.7648C33.5947 89.3035 35.8845 90.3307 37.8998 90.4244C39.4574 90.466 41.2048 90.0762 42.7084 89.3017C42.8398 89.4445 42.9739 89.5854 43.1079 89.7262C43.975 90.6376 44.8379 91.5446 44.9498 92.9245C45.0385 93.1904 44.6031 93.0197 44.1599 92.8459C43.8533 92.7257 43.5429 92.604 43.3998 92.6245C40.1498 92.1745 37.0998 95.1245 36.5498 98.2245C36.5998 100.924 39.6498 103.224 42.1498 103.574C46.0998 103.674 48.8998 99.5745 48.5498 95.9245C47.9683 92.9686 45.7432 90.6703 43.4219 88.8928C44.0435 88.4974 44.6043 88.0289 45.0672 87.4914C45.7052 89.5225 47.4525 91.2259 50.0498 92.5245C53.9498 94.4245 58.2998 91.1745 59.4498 87.4245C60.1998 84.7245 59.7998 81.8245 59.3998 79.0745C58.7998 77.6745 57.2498 76.3745 55.7998 75.8745C55.6498 75.8745 55.6498 75.9745 55.6998 76.1245C55.8128 76.6517 55.8407 77.2072 55.8689 77.7697V77.7698C55.8782 77.9542 55.8875 78.1394 55.8998 78.3245C52.3998 73.5245 48.4998 77.2245 46.3498 81.0745C46.2654 81.2072 46.1845 81.3391 46.1073 81.4704C45.5796 79.4146 44.326 77.6715 42.2498 76.7244C41.6259 76.4333 41.7632 76.8688 41.8846 77.2537C41.9091 77.3315 41.933 77.4072 41.9498 77.4744C43.9998 82.9744 39.1498 87.5245 33.7498 87.1245C33.6915 87.1093 33.6367 87.0901 33.5852 87.0669C33.5784 87.0204 33.5506 86.9729 33.5001 86.9245C33.3539 86.687 33.1844 86.4679 32.9986 86.2626C32.4128 83.7432 36.0821 76.7838 37.9498 76.2744C38.2996 76.0592 38.577 76.2929 38.86 76.5312C39.1028 76.7358 39.3496 76.9437 39.6498 76.8744C38.0182 74.0774 36.267 73.986 34.7003 75.0755C35.1984 74.1766 35.5393 73.1877 35.6998 72.2245C36.3715 70.0816 35.0177 68.0052 33.2286 66.4124C34.8682 66.7249 36.6651 66.5322 38.1927 65.84C34.6251 69.5345 39.1736 73.8922 43.25 75.3745C48.4 77.2245 55.3 72.9745 53.25 67.1245C53.1166 65.3458 51.7968 64.1208 50.416 63.168C51.2761 62.8779 51.9622 62.4636 52.4915 61.9571C53.1149 63.7586 54.5733 65.3302 56.3123 66.464C55.0816 67.1271 54.1521 68.1297 53.95 69.5245C54.5 71.6745 56.75 73.0745 58.55 74.1745C62 75.9245 66.1499 75.3745 69.7 74.3245C69.8796 74.2197 70.436 74.0521 71.1072 73.8499L71.1074 73.8499C72.6773 73.3769 74.8753 72.7148 74.3499 72.2245C73.3999 71.0245 72 69.5745 70.4 69.2745C70.2874 69.3067 70.1645 69.3699 70.0362 69.4358C69.7657 69.5749 69.4713 69.7262 69.2 69.6245C68.2186 68.6934 67.1612 67.8131 66.0151 67.098C67.8183 66.0377 69.228 64.3507 69.7629 62.2777C71.2062 63.6174 73.0686 64.5768 74.9695 65.0175C74.6344 65.5686 74.3854 66.1624 74.2498 66.6745C73.9998 69.4245 77.3998 71.7245 79.8498 72.1245C84.3362 71.8863 83.0849 66.8562 80.6519 64.1685C84.3251 61.4405 81.6862 54.4075 77.9498 51.4746C77.5498 51.1246 75.0998 49.5746 76.0498 51.0746C76.1884 51.3794 76.3346 51.6882 76.4826 52.0005C77.4023 53.9417 78.3874 56.021 77.9998 58.1746C77.3498 61.2746 73.7498 62.7246 70.8998 61.7746C69.5998 58.9746 71.9998 54.7246 75.3498 55.5246C75.5775 55.1146 74.3945 54.2897 73.9174 53.9571L73.9168 53.9567C73.8705 53.9244 73.8308 53.8967 73.7998 53.8746C71.3956 52.617 68.6357 54.3692 67.7668 56.7428C66.9868 56.1395 66.2025 55.7189 65.7 55.9245C65.2 60.5245 61.5 64.6745 56.65 64.3745C56.55 62.7745 57.3 60.8245 58.8 60.0745C59.55 60.3245 59.7 60.1245 59.2 59.4745C57.1025 56.951 55.1339 55.7378 53.773 56.8488C53.2242 54.1416 51.2666 51.2988 48.6501 49.7245C49.0504 49.6495 49.6885 50.1627 50.2638 50.6255L50.2638 50.6255C50.8383 51.0876 51.3502 51.4993 51.5001 51.2245C50.3863 49.7847 49.2319 48.8357 48.082 48.3283C49.3758 46.8975 50.4072 45.1743 51.2 43.5246C51 42.6746 47.15 39.4746 46.65 40.6246C44.8031 44.1188 42.1588 48.0614 37.8714 48.4725C37.8626 48.1749 37.8391 47.8753 37.8001 47.5745C37.7821 47.5228 37.7626 47.4714 37.7416 47.4204C37.7075 43.7218 40.3149 36.0172 44.1 37.7746C46.35 38.4246 40.6 33.9246 39 35.3746C36.1 37.2246 34.8 40.9746 34.2 44.1746C34.1421 44.483 34.1155 44.7855 34.1173 45.0814C33.7225 44.519 33.0679 44.0387 32.4952 43.6184C32.3571 43.517 32.2237 43.4192 32.0999 43.3245C31.3674 42.9301 30.2856 43.2659 29.1855 43.6075C28.3334 43.872 27.4702 44.14 26.75 44.0745C26.75 41.5745 27.9 37.5245 29.65 36.3245C29.6657 36.4822 29.6517 36.6498 29.6376 36.8179C29.6069 37.183 29.5761 37.5506 29.8499 37.8245C29.9303 37.9049 30.0128 37.9906 30.0974 38.0785C30.592 38.5923 31.1595 39.1818 31.8 39.2245C32.1 36.8745 31 34.1245 28.45 33.6245C25.35 34.6245 24.1 38.8745 23.7 41.8245ZM30.4613 46.9038C31.7291 46.7487 33.0047 46.369 34.1992 45.9202C34.247 46.1702 34.3147 46.4145 34.4006 46.6525C34.3424 47.3795 34.2821 48.1243 34.1001 48.7745C32.9633 47.8065 31.719 47.2063 30.4613 46.9038ZM37.7373 50.318C38.6522 50.8541 39.648 51.2483 40.608 51.4717C40.3268 51.8897 40.057 52.3412 39.8001 52.8245C38.9282 54.1779 38.7066 55.5414 38.944 56.8226C38.1815 61.4334 34.9078 65.2906 29.8001 63.8245C28.8456 62.057 29.3158 59.7396 30.5745 58.1623C34.1622 57.217 37.0816 54.0597 37.7373 50.318ZM47.7001 63.6245C48.2018 63.6059 48.6695 63.5597 49.1044 63.4885C49.6743 65.8424 49.6375 68.4962 47.65 70.1745C45.95 71.8745 43.4 72.6245 41.05 72.3745C40.2983 72.3745 40.6024 71.3577 40.7866 70.7422C40.8106 70.6617 40.8326 70.5881 40.85 70.5245C42.2 67.7245 45.55 65.5245 48.7 65.6745C48.7744 65.3023 48.4055 64.9577 48.0882 64.6615C47.9794 64.5599 47.8766 64.4639 47.8 64.3745C47.5578 64.0582 47.3043 63.7892 47.0418 63.5634C47.263 63.5932 47.4827 63.6137 47.7001 63.6245ZM41.8703 61.274C42.5155 61.7923 43.2288 62.2424 43.9736 62.6065C42.8729 62.7141 41.7519 63.1996 40.715 63.8564C40.8746 63.6418 41.0203 63.4145 41.1501 63.1745C41.2618 62.8394 41.401 62.4868 41.5442 62.124C41.6541 61.8456 41.7663 61.5612 41.8703 61.274ZM22.0499 98.7745C22.5999 101.925 25.4499 104.275 28.1499 105.625C38.2999 108.675 37.7999 94.4245 30.7999 91.1245C30.3768 90.9734 30.7758 91.8637 31.1466 92.691C31.3892 93.2322 31.6197 93.7465 31.5999 93.9245C31.6589 94.1015 31.039 93.5648 30.4489 93.054C30.039 92.699 29.6434 92.3565 29.4999 92.2745C25.3499 88.4745 21.3499 94.8245 22.0499 98.7745ZM52.15 47.9745C51.3 52.0745 54.1 55.6245 57.65 57.3245C64.1 60.4245 68.2 51.1245 66.9 45.8745C66.2 43.0745 64.35 40.5745 62.05 38.8245C61.75 38.5245 59.55 37.1745 60.4 38.4745C70.3 48.5745 50.7 65.5245 56.45 46.1745C56.5228 46.0532 56.5926 45.9142 56.6645 45.7711C56.8889 45.3246 57.1334 44.8381 57.55 44.7245C57.85 44.7745 57.6 44.3745 57.5 44.2745C53.7106 39.9021 52.895 44.1209 52.2097 47.666L52.15 47.9745ZM91.2499 62.8245C90.5499 62.7245 86.1999 59.7245 87.6499 59.3245C94.9999 56.9245 100.85 54.0745 93.2999 46.8745C91.5129 45.0237 92.068 44.3541 92.8075 43.462C93.2267 42.9562 93.7052 42.379 93.8499 41.4745C92.7583 41.3381 91.669 41.2743 90.5971 41.2116C86.5627 40.9755 82.7757 40.754 80.0499 36.7245C79.769 35.7764 80.3512 34.927 80.9132 34.1069C81.1515 33.7593 81.3861 33.4169 81.5499 33.0745C81.7038 32.8052 81.8626 32.5342 82.0227 32.2611L82.0259 32.2557L82.0265 32.2547C83.1135 30.4007 84.2564 28.4513 84.2999 26.2745C79.0408 26.2745 74.3573 29.1521 70.0256 31.8135L70.0253 31.8137L70.023 31.8151C69.5783 32.0883 69.1374 32.3592 68.6999 32.6245C67.5999 32.1745 66.0499 31.3745 65.6499 30.2745C66.9499 29.2745 68.2999 28.3245 69.6999 27.4245C73.5999 25.1745 78.2499 22.5245 82.8999 23.6745C89.9999 26.6245 88.9999 30.3245 85.7499 36.1245C85.7344 36.2021 85.6273 36.4002 85.502 36.632L85.5018 36.6323L85.5016 36.6327L85.5015 36.6328C85.2232 37.1475 84.8553 37.8279 85.1999 37.7245C89.8999 37.8245 95.9499 38.8745 97.9999 43.6745C98.2619 44.5913 97.7804 45.4319 97.3213 46.2337C96.7287 47.2684 96.1731 48.2385 97.2999 49.2245C105.1 56.9745 99.5499 60.5245 91.2499 62.8245ZM56.8998 35.4246C55.6498 34.8746 54.0998 33.8746 54.2998 32.2746C54.4498 28.2246 56.8998 24.6746 59.3998 21.6746C62.7498 18.0246 63.1998 14.1246 63.0498 9.42456C64.0498 9.57456 64.9998 10.4746 65.6498 11.2746C66.0998 13.6246 65.9498 16.1246 65.2498 18.4746C64.5032 20.7642 63.0009 22.6203 61.4952 24.4805C59.9759 26.3577 58.4532 28.2391 57.6998 30.5746C57.1998 32.0746 56.6998 33.7746 57.0998 35.3746C57.061 35.4521 56.9922 35.4395 56.9399 35.4299C56.9248 35.4271 56.911 35.4246 56.8998 35.4246ZM41.3999 15.4245C40.7999 16.1745 40.3499 17.2745 40.6999 18.2245C41.7499 18.5745 42.8999 18.3245 43.8499 17.7745C45.1499 16.9245 45.9499 15.4745 46.3999 14.0245C46.5471 13.6811 46.5017 13.6746 46.1694 13.6273L46.1499 13.6245C44.3499 13.0745 42.4999 14.0245 41.3999 15.4245ZM23.2999 55.6746C21.8999 52.3746 25.1499 48.7246 28.2999 48.0746C30.2499 47.7746 32.3499 48.1246 33.9999 49.1246C32.8499 53.5246 27.7999 57.0246 23.2999 55.6746ZM41.8498 59.7245C40.6498 55.7745 43.8498 50.5245 47.7998 49.6245C47.9498 49.5745 48.0499 49.5745 47.9999 49.7245C50.2499 52.5245 51.6499 56.9745 48.1499 59.4245C46.7499 60.5245 42.8998 61.4745 41.8498 59.7245ZM23.8998 80.7245C22.1498 81.2745 20.4498 82.7745 20.0498 84.5745C22.0671 84.8849 24.4758 84.4728 26.7386 84.0857L26.7387 84.0857C27.3922 83.9739 28.0336 83.8642 28.6498 83.7745C26.9283 82.7646 26.4397 81.8706 26.1148 81.2762C25.732 80.5759 25.5767 80.2918 23.8998 80.7245ZM25.9998 102.474C25.1998 99.4745 26.4998 94.9745 29.7998 94.1745C30.3728 94.0734 30.7868 94.4722 31.1949 94.8655C31.3921 95.0555 31.588 95.2442 31.7998 95.3745C32.1497 95.5145 32.1568 95.8749 32.1638 96.2329C32.1668 96.3864 32.1697 96.5395 32.1998 96.6745C32.4998 100.024 29.3498 103.125 25.9998 102.474ZM44.8499 94.9245C41.9499 95.0745 39.5499 97.8745 39.3999 100.674C42.1499 100.524 44.9999 97.3245 44.8499 94.9245ZM48.5998 89.6745C48.3498 85.6745 51.6998 79.9245 55.8998 79.3245C55.9665 79.3245 55.9831 79.3412 55.9498 79.3745C56.6498 84.0245 53.7498 89.5745 48.5998 89.6745ZM58.1998 71.7745C61.5998 72.1245 64.9498 71.1245 68.1498 70.0746C65.9498 67.3745 60.7498 68.1245 58.4498 70.6745C58.419 70.7208 58.3751 70.7801 58.3254 70.8472C58.053 71.2153 57.6078 71.8168 58.1998 71.7745ZM77.2998 69.1746C77.4998 67.9246 78.1998 66.7246 79.2498 66.0246C79.2998 65.9246 79.3498 65.8746 79.3498 65.9746C79.6498 67.3746 78.7498 68.9746 77.2998 69.1746Z" fill="black"/>
</svg>
