<svg width="137" height="163" viewBox="0 0 137 163" fill="none" xmlns="http://www.w3.org/2000/svg">
<path fill-rule="evenodd" clip-rule="evenodd" d="M120.857 12.1126C124.476 12.7754 128.097 13.4386 131.758 13.5341H132.058C132.954 13.5341 134.035 13.4227 134.858 13.0336L134.858 13.0341C135.308 12.8341 135.658 12.534 135.908 12.134L135.9 12.1297C136.093 11.784 136.178 11.3578 136.108 10.8341C135.808 8.53405 134.858 6.08407 132.958 4.53407C130.565 2.78221 127.588 2.19879 124.683 1.6293L124.682 1.62925C124.188 1.53234 123.695 1.43584 123.208 1.33405C115.758 -0.215946 107.908 -0.415934 100.458 1.03407C100.008 0.884066 100.208 2.08407 100.658 3.28407C101.108 4.63407 101.808 5.98405 102.058 5.48405C102.058 5.38405 102.108 5.38404 102.158 5.38404C103.154 5.03937 104.238 4.90003 105.297 4.76382C105.621 4.72219 105.942 4.68086 106.258 4.63404C111.808 3.93404 117.458 4.23407 122.908 5.28407C123.827 5.46783 124.756 5.61714 125.685 5.76636C128.294 6.18556 130.898 6.6041 133.258 7.78407C133.658 7.98407 134.058 8.23407 134.408 8.53407C134.442 8.5674 134.425 8.60071 134.358 8.63404C134.225 8.83404 134.075 8.98405 133.908 9.08405C131.337 10.3887 125.822 9.36701 121.655 8.59522L121.655 8.59521C120.392 8.36131 119.254 8.15036 118.358 8.03407C115.99 7.57947 113.609 7.25082 111.229 6.9221C108.634 6.56386 106.04 6.20554 103.458 5.68406C102.558 5.33406 103.658 8.23405 103.858 8.58405C104.203 9.52036 104.597 9.58242 105.517 9.72762L105.558 9.73405C107.901 10.2416 110.274 10.5357 112.653 10.8307C113.321 10.9135 113.99 10.9964 114.658 11.0841C116.729 11.3565 118.793 11.7345 120.857 12.1126ZM99.2735 75.6587C98.2216 74.9497 97.2162 74.1728 96.2584 73.384C92.8584 70.784 90.7084 67.034 89.4084 63.034C88.1303 59.6257 88.6672 56.0359 89.1943 52.5121C89.2858 51.9003 89.377 51.2905 89.4584 50.684C89.9584 46.534 90.7083 42.434 91.8583 38.434C92.3169 36.7899 92.7935 35.1502 93.2699 33.5112L93.27 33.5111L93.27 33.511L93.27 33.511L93.27 33.5109L93.2701 33.5108L93.2701 33.5108L93.2701 33.5107L93.2701 33.5106L93.2701 33.5106L93.2702 33.5105L93.2702 33.5104L93.2702 33.5104L93.2702 33.5103L93.2703 33.5102L93.2703 33.5102C95.5466 25.679 97.8189 17.8616 98.1083 9.63397C98.1197 9.57697 98.1285 9.52258 98.1371 9.4696C98.1661 9.29019 98.1925 9.12699 98.3083 8.93399C98.4304 8.8119 98.685 8.95478 98.8834 9.0661L98.8835 9.0662L98.8839 9.06639L98.884 9.06647L98.8844 9.06668C98.9294 9.09192 98.9714 9.1155 99.0084 9.13397C99.6584 9.48397 100.258 9.98399 100.758 10.534C100.769 10.5557 100.782 10.5774 100.796 10.5996C100.845 10.6797 100.897 10.7665 100.858 10.884C100.64 11.3931 100.634 11.9816 100.627 12.5725C100.624 12.794 100.622 13.0159 100.608 13.234C100.861 21.5238 99.2449 29.5951 97.6278 37.6732L97.6278 37.6733L97.6277 37.6736C96.6797 42.4095 95.7312 47.1479 95.1584 51.934C95.0527 52.9117 94.919 53.8988 94.7848 54.8902C94.1571 59.5266 93.5164 64.2589 95.6584 68.584L95.6979 68.6856C96.7351 71.3538 97.7985 74.0896 100.958 74.534C106.858 76.034 112.158 72.784 115.808 68.384C119.808 63.534 121.108 57.034 122.058 50.984C123.053 45.0576 124.086 39.1312 125.803 33.3991C122.991 34.1551 120.074 34.5897 117.158 34.6339C114.108 34.6339 111.008 34.0839 108.308 32.6339C105.958 31.2839 103.508 29.8339 101.758 27.7339C100.178 25.7095 103.328 25.1479 104.755 24.8934L104.808 24.8839C107.858 24.2839 110.958 24.0339 114.008 24.6339C114.858 24.8339 115.658 25.3339 116.358 25.8839C116.558 26.0339 118.408 27.5839 117.458 27.4339C114.558 26.4339 108.958 27.3839 106.008 28.2839C105.508 28.4339 104.758 28.8839 105.008 29.4839L105.008 29.484C105.308 29.684 105.608 29.884 105.908 30.0339C107.758 31.0839 109.908 31.3839 112.008 31.4339C115.649 31.531 119.148 30.5443 122.597 29.5717L122.908 29.4839C123.339 29.3916 125.229 30.6633 126.327 31.7247C126.435 31.3937 126.545 31.0635 126.658 30.734C127.858 26.434 129.308 22.184 131.958 18.534C132.358 17.584 135.708 20.734 135.708 21.284C132.408 28.034 130.308 35.334 128.308 42.534C127.486 45.6635 126.999 48.9479 126.511 52.2434C125.453 59.3731 124.388 66.5551 119.908 72.334C117.058 75.784 113.158 78.834 108.508 78.834H108.208C106.138 78.834 104.181 78.2853 102.343 77.4234C102.32 77.4304 102.292 77.434 102.258 77.434C101.458 80.684 100.408 83.834 99.1082 86.884C99.0278 87.0127 98.8852 87.3692 98.7155 87.7935C98.3578 88.688 97.8795 89.884 97.6082 89.884H97.5582C96.5582 89.384 95.1582 88.334 94.7083 87.284C95.0083 86.434 95.3583 85.534 95.7083 84.734C96.7041 82.6779 97.473 80.56 98.2402 78.4464C98.5785 77.5144 98.9165 76.5833 99.2735 75.6587ZM33.9082 119.834C34.1082 120.934 36.6582 123.134 37.7582 123.534H38.1082C40.6439 123.534 43.1439 122.998 45.6082 122.47L45.6105 122.469C46.0609 122.373 46.5102 122.277 46.9582 122.184C48.0469 121.95 49.0854 121.763 50.0816 121.584C54.6212 120.766 58.2819 120.107 61.8082 115.884C62.4464 115.157 63.047 114.399 63.6477 113.64L63.6477 113.64C64.7411 112.259 65.8351 110.878 67.1582 109.684C68.7082 108.284 70.4582 107.084 72.3582 106.184C75.1023 104.79 78.1501 104.686 81.1709 104.584L81.1718 104.584C81.6182 104.568 82.064 104.553 82.5082 104.534C85.9592 104.411 89.3427 103.68 92.7142 102.952L92.7142 102.952C93.4459 102.793 94.1771 102.636 94.9082 102.484C100.058 101.384 100.008 98.684 97.2082 94.934C94.4082 91.334 89.8082 87.684 85.2582 86.934C83.8082 86.734 82.3582 86.784 80.9082 86.8839C79.4762 87.0203 78.0209 87.2032 76.574 87.385L76.573 87.3852C75.8985 87.4699 75.2258 87.5545 74.5582 87.6339C72.6082 87.8839 70.6082 88.084 68.6582 87.734C67.281 87.4745 66.1747 86.9521 65.0976 86.4435C63.4764 85.678 61.9213 84.9436 59.6082 85.184C56.9082 85.284 54.2582 85.684 51.6582 86.284L50.8582 86.484C50.8402 86.5019 50.8094 86.5134 50.7773 86.5254C50.7198 86.5468 50.6582 86.5698 50.6582 86.6339C50.6582 86.6589 50.6832 86.6839 50.7082 86.709C50.7332 86.734 50.7582 86.759 50.7582 86.784C51.0082 87.034 51.3082 87.284 51.6082 87.434C51.7748 87.4673 51.9414 87.4562 52.1081 87.4451H52.1082C52.1915 87.4395 52.2748 87.434 52.3582 87.434H52.8082H57.2582H58.6582H58.6584C60.8583 87.434 63.1082 87.434 65.2082 87.984C66.1866 88.348 67.1029 88.8364 68.0136 89.3217L68.0137 89.3218C69.1042 89.9029 70.1866 90.4798 71.3582 90.834C74.0082 91.784 76.8082 91.634 79.5582 91.334C80.5954 91.2834 81.671 91.1624 82.7608 91.0398H82.7609C85.9787 90.6778 89.3196 90.302 92.1582 91.684C92.8582 91.984 93.2582 92.584 93.6082 93.184C94.2582 94.134 94.9082 95.384 94.4082 96.534C93.6149 97.9536 91.6359 98.3969 89.9856 98.7666C89.6598 98.8396 89.3467 98.9098 89.0582 98.984L88.6227 99.0809C86.0578 99.6523 83.4106 100.242 80.8082 100.384C79.8707 100.459 78.9332 100.45 77.9957 100.44H77.9955C77.683 100.437 77.3706 100.434 77.0582 100.434C74.0082 100.384 70.9082 100.384 68.1082 101.734C65.6582 102.884 63.4582 104.584 61.6582 106.634C60.9525 107.453 60.2826 108.323 59.6092 109.198C57.8972 111.423 56.1625 113.677 53.7582 115.184C51.4952 116.542 48.8636 117.039 46.2712 117.529C45.9996 117.581 45.7284 117.632 45.4582 117.684C44.2582 117.898 43.0582 118.168 41.8582 118.437L41.858 118.437L41.8577 118.437L41.8575 118.437L41.8572 118.437L41.857 118.437L41.8567 118.437L41.8565 118.437L41.8562 118.437L41.8559 118.437L41.8557 118.437L41.8554 118.438L41.8552 118.438L41.8549 118.438L41.8547 118.438C40.2558 118.797 38.657 119.156 37.0582 119.384C36.1248 119.484 35.1749 119.584 34.2082 119.684C34.1082 119.684 33.9582 119.684 33.9082 119.834ZM114.858 107.784C113.266 107.687 111.767 107.218 110.226 106.736L110.058 106.684C109.208 106.484 108.358 106.184 107.658 105.634C107.158 105.334 103.558 102.284 104.508 101.884C105.019 101.993 105.477 102.183 105.94 102.375L105.94 102.375C106.111 102.445 106.283 102.516 106.458 102.584C106.65 102.657 106.841 102.732 107.032 102.807C108.784 103.491 110.519 104.169 112.458 104.034C114.708 103.984 117.258 102.534 117.358 100.034C117.319 98.1506 116.233 96.5445 115.187 94.998C114.9 94.5736 114.617 94.1537 114.358 93.7338C112.792 91.3672 111.342 88.9338 110.008 86.4338C109.968 86.3265 109.812 86.0425 109.619 85.6895L109.619 85.6893L109.619 85.6891L109.619 85.6889C109.091 84.7266 108.283 83.251 108.758 83.4338C109.608 83.8338 110.458 84.4838 110.958 85.2838C112.858 89.0838 115.158 92.6838 117.608 96.1338C117.821 96.4459 118.041 96.758 118.263 97.0717L118.263 97.0718L118.263 97.0718L118.263 97.0719L118.263 97.072L118.263 97.0721L118.264 97.0732C119.495 98.8195 120.762 100.615 121.058 102.734C121.358 105.884 118.058 107.784 115.208 107.784H114.858ZM97.6582 114.584C93.9082 112.634 101.358 120.784 102.158 120.884C104.008 122.134 106.058 123.434 108.308 123.734C112.886 123.61 110.762 117.464 109.457 113.688C109.18 112.887 108.939 112.192 108.808 111.684L108.858 111.634C108.958 110.934 105.608 107.384 105.058 108.084C105.143 108.338 105.229 108.593 105.315 108.849L105.315 108.849L105.315 108.849C106.098 111.171 106.918 113.603 107.008 116.034C107.108 120.034 103.708 119.634 101.208 117.984C100.208 116.684 99.0082 115.434 97.6582 114.584ZM104.858 134.434C101.458 134.134 99.0082 131.084 97.1082 128.434C96.7582 127.834 94.4082 123.784 96.5582 125.534C98.2082 126.734 99.2082 128.484 99.9582 130.334C103.658 132.434 103.858 129.534 103.158 126.584C102.558 124.934 105.608 128.084 105.658 128.534C105.708 128.634 105.808 128.834 105.808 128.984C105.723 129.112 105.783 129.276 105.833 129.414C105.842 129.438 105.851 129.462 105.858 129.484C105.898 129.725 105.964 130.016 106.037 130.335C106.414 132.003 106.965 134.434 104.908 134.434H104.858ZM2.34725 112.071L2.34502 112.072L2.34251 112.073L2.33963 112.075L2.33646 112.076L2.33314 112.078L2.32957 112.08L2.32573 112.082C1.63519 112.432 0.945552 112.783 0.258253 113.134C-0.891747 113.534 3.05828 116.584 3.90828 116.734C5.94604 116.034 7.89128 114.965 9.83405 113.897C11.0851 113.209 12.3352 112.521 13.6082 111.934C18.6582 109.334 23.8083 106.184 26.4083 100.934C27.2372 99.2123 27.9229 97.5396 28.5884 95.9165C30.5321 91.1754 32.3023 86.8576 36.9583 82.9838C41.2083 79.2338 46.5582 76.9838 51.8582 75.1838L52.4113 74.9976C57.5773 73.2579 62.753 71.5149 68.2083 70.9838C69.811 70.8151 71.4296 70.7887 73.0462 70.7624H73.0464C74.3044 70.7418 75.5611 70.7213 76.8082 70.6338C78.2582 70.5338 79.7583 70.5339 81.2083 70.7839C83.9583 71.3338 86.7083 72.0338 89.2083 73.2338C89.8583 73.4838 90.2582 74.0338 90.6082 74.6338C91.2082 75.5338 92.1082 76.2338 93.0582 76.8338C95.0082 77.9838 93.3582 75.5338 92.8082 74.9838C90.8082 72.8338 88.4083 70.9838 85.7083 69.6838C81.7583 68.0338 77.4582 66.5838 73.1082 66.9338C71.8056 67.0996 70.503 67.1645 69.2003 67.2293C67.753 67.3013 66.3056 67.3733 64.8582 67.5838C57.9583 68.7338 51.3583 71.0338 44.7584 73.3338L44.7583 73.3338C34.8083 76.5838 27.7582 83.1838 24.3582 93.1838C22.3582 98.5338 18.5583 102.984 13.6583 105.934C10.0219 108.175 6.17086 110.13 2.34725 112.071ZM6.70824 162.584C5.75824 162.334 1.60823 159.434 2.50823 158.534C5.20823 154.184 8.20821 150.034 11.3582 146.034C16.6082 139.334 22.8582 132.884 31.0582 130.034C33.9582 128.834 37.0082 128.934 40.0582 129.034L40.2934 129.039L40.5184 129.043C42.9645 129.093 45.4028 129.143 47.7082 128.484C49.0081 127.934 50.283 127.309 51.5579 126.684L51.5582 126.684C52.8332 126.059 54.1082 125.434 55.4083 124.884C59.9083 122.934 64.6582 121.734 69.4582 120.884C72.2082 120.334 74.8082 121.684 76.7582 123.584C76.8699 123.708 77.0216 123.848 77.185 123.998C77.6803 124.453 78.2834 125.008 78.2082 125.534C78.0582 125.634 77.7583 125.484 77.6583 125.434C75.7583 124.134 74.5582 124.234 72.3582 124.634C68.3082 125.384 64.3582 126.584 60.6082 128.284C58.9167 129.043 57.5685 129.755 56.3753 130.386L56.3749 130.386C52.7716 132.29 50.5804 133.447 44.6082 132.884C32.7582 131.634 23.1583 140.584 16.4083 149.384C13.8583 152.684 11.4083 156.034 9.15826 159.534C8.9922 159.717 8.73791 160.114 8.45032 160.564C7.87197 161.469 7.15897 162.584 6.75823 162.584H6.70824ZM80.6091 146.059L81.0583 146.184C84.0083 146.934 87.1084 147.684 90.1584 147.684C91.6084 147.684 93.0584 147.534 94.5084 147.084C96.8514 146.662 95.6699 145.208 93.9842 143.134C92.0727 140.782 89.5127 137.632 90.7084 134.284C90.8024 133.884 90.9739 133.507 91.1447 133.13C91.3372 132.706 91.5289 132.284 91.6083 131.834C90.8583 130.434 89.5084 129.284 88.1584 128.484C88.0584 128.434 87.8084 128.334 87.7084 128.434C87.5763 128.599 87.466 128.808 87.3632 129.002L87.3631 129.003L87.363 129.003C87.3101 129.103 87.2593 129.199 87.2084 129.284C86.3584 130.684 86.1084 132.334 86.4584 133.884C86.9805 136.364 88.5252 138.428 90.0047 140.405L90.0049 140.405L90.005 140.405C90.2255 140.7 90.4444 140.992 90.6584 141.284C91.4338 142.1 90.8101 142.217 90.1469 142.341C89.9975 142.369 89.8462 142.397 89.7084 142.434C86.3584 143.334 82.8084 143.084 79.4584 142.284C75.3084 141.484 71.2584 140.434 67.2584 139.034C67.1842 139.007 67.1095 138.981 67.0343 138.954L66.8191 138.879C66.2507 138.679 65.6638 138.472 65.1083 138.234C65.0417 138.201 65.0584 138.184 65.1584 138.184L65.4584 138.084C67.0334 137.609 68.6584 137.346 70.2833 137.084C71.9083 136.821 73.5333 136.559 75.1083 136.084C79.8583 134.784 84.3083 132.084 87.0583 127.984C89.4083 124.634 90.2583 120.584 90.8083 116.634C90.9417 115.867 91.0417 115.084 91.1083 114.284C91.2083 114.034 91.1084 113.834 90.9584 113.634C90.7584 113.234 88.2584 110.934 87.9584 111.534C87.9584 114.134 87.3083 116.684 86.5583 119.134C84.3583 126.534 77.0084 131.184 69.6584 132.534C68.5228 132.757 67.3708 132.89 66.2223 133.022C64.539 133.215 62.8633 133.408 61.2584 133.884C61.1904 133.907 61.1193 133.93 61.0462 133.953C60.1519 134.242 58.965 134.625 59.6584 135.734C63.3716 141.255 74.1028 144.245 80.6091 146.059ZM97.3262 55.5492C96.7911 61.651 96.422 65.8607 102.158 69.7339C104.058 71.1339 105.808 71.784 107.408 71.784C110.258 71.784 112.608 69.6839 114.608 66.3339C117.408 62.1339 118.908 57.2839 119.808 52.3839C120.327 49.8623 120.681 47.3132 121.034 44.7774C121.157 43.894 121.279 43.0123 121.408 42.1339C121.408 41.9691 121.446 41.7933 121.485 41.6157C121.563 41.2546 121.643 40.8856 121.408 40.5839C120.808 39.8839 119.508 38.584 118.558 38.5339C118.315 40.0241 118.097 41.5253 117.878 43.0298L117.878 43.0299L117.878 43.0301L117.878 43.0302L117.878 43.0304L117.878 43.0305L117.878 43.0307C117.061 48.6437 116.237 54.3004 114.108 59.5839C111.958 64.4839 107.458 72.7339 101.258 68.0839C99.2819 65.3962 99.4928 61.9274 99.6926 58.6407C99.7455 57.7697 99.7977 56.9115 99.8082 56.0839C100.108 49.7339 100.508 43.3839 102.008 37.1839C102.258 36.1839 102.558 35.1339 102.858 34.0839C102.608 33.4839 101.908 32.9839 101.308 32.7339C101.158 32.6839 101.158 32.8339 101.158 32.9339V32.9339L100.658 34.7339C99.1082 41.4839 97.8582 48.2839 97.3582 55.1839L97.3262 55.5492ZM105.408 43.5339C104.408 42.7839 103.208 41.8839 102.958 40.5839C102.858 39.5339 103.408 38.2339 104.308 37.6339C104.508 37.2339 105.858 38.2339 106.858 39.2339C107.758 40.1339 108.408 41.0339 107.758 40.9339C106.858 40.3839 106.008 41.5339 105.608 42.1839C105.715 42.2901 105.846 42.4027 105.985 42.5214C106.237 42.7381 106.515 42.9755 106.708 43.2339C107.208 43.7339 107.058 43.8839 106.358 43.9339C106.008 43.8839 105.708 43.7339 105.408 43.5339ZM109.008 57.7339C109.358 58.6339 110.258 59.4339 111.108 59.8839C111.608 59.8839 112.058 59.4839 112.308 59.0339C113.058 57.6839 111.908 56.3339 110.958 55.4339C110.869 55.3506 110.778 55.2636 110.686 55.1751L110.686 55.1749C110.002 54.5202 109.227 53.778 108.258 53.7339C107.908 53.5339 107.908 53.7839 108.058 54.0339C108.508 54.9339 109.308 55.6839 110.108 56.2839C110.108 56.4993 109.997 56.7146 109.902 56.8979C109.887 56.9275 109.872 56.9562 109.858 56.9839C109.734 57.2024 109.531 57.3429 109.335 57.4785C109.218 57.5601 109.102 57.6399 109.008 57.7339ZM105.308 50.8339C104.358 50.3839 103.608 49.6339 102.958 48.8839C102.938 48.8572 102.895 48.8057 102.837 48.7366L102.837 48.7361C102.462 48.2873 101.472 47.104 102.208 47.2339C103.086 47.6033 103.792 48.3139 104.447 48.9718L104.448 48.9729L104.511 49.0361L104.608 49.1339C104.617 49.1461 104.631 49.1632 104.647 49.1845L104.685 49.2319C104.993 49.6227 105.947 50.8339 105.408 50.8339H105.308ZM112.208 41.5838C112.008 42.2338 114.058 43.9838 114.708 44.1838H114.758C114.792 44.1838 114.825 44.1671 114.858 44.1338C114.858 44.0671 114.903 44.0449 114.947 44.0227C114.969 44.0116 114.992 44.0005 115.008 43.9838C115.308 43.5838 113.858 42.3338 113.508 42.0338C113.447 41.993 113.371 41.9293 113.286 41.858C112.955 41.5798 112.487 41.1858 112.208 41.5838ZM106.458 65.484C105.508 65.034 104.158 64.0341 103.808 63.0341C104.178 62.418 104.919 63.084 105.421 63.5354C105.53 63.6336 105.628 63.7216 105.708 63.7841C105.78 63.856 105.87 63.9344 105.966 64.0186L105.967 64.0187C106.406 64.4031 106.986 64.9099 106.658 65.484C106.625 65.5174 106.592 65.5341 106.558 65.5341C106.525 65.5341 106.492 65.5174 106.458 65.484Z" fill="black"/>
</svg>
