<svg width="137" height="163" viewBox="0 0 137 163" fill="none" xmlns="http://www.w3.org/2000/svg">
<path fill-rule="evenodd" clip-rule="evenodd" d="M0.38749 10.2313C-0.0125098 11.9813 0.437515 14.6313 2.03751 15.6313C2.73751 16.0313 3.68748 16.1813 4.68748 16.1813C6.24565 16.1813 8.01933 15.8221 9.65335 15.4912C10.7459 15.27 11.776 15.0614 12.6375 14.9813C16.8875 14.2813 21.0875 13.3313 25.1375 12.0313C28.2875 11.0313 31.3875 9.78129 34.3375 8.28129C34.3852 8.25745 34.4354 8.23488 34.4859 8.21216L34.4859 8.21214C34.7533 8.09191 35.0296 7.96768 34.9875 7.63127C34.9875 6.63127 34.8375 5.63129 34.4875 4.68129C34.4823 4.66547 34.477 4.6491 34.4716 4.63234L34.4713 4.6314L34.4711 4.63088C34.4255 4.48906 34.3712 4.32042 34.2375 4.23127C34.1575 4.15127 34.0775 4.19929 33.9975 4.2473C33.9775 4.25929 33.9575 4.27129 33.9375 4.28129C33.5708 4.44796 33.1875 4.61463 32.7875 4.78129C28.8375 6.63129 24.7375 8.18129 20.5375 9.43129C16.5375 10.6813 12.3875 11.5313 8.28751 12.3313C7.83164 12.4055 7.36453 12.5044 6.89094 12.6047L6.89089 12.6048C5.13095 12.9775 3.28161 13.3692 1.5875 12.5813C8.9875 5.73128 23.2875 3.53127 33.0875 3.73127C33.25 3.73834 33.4125 3.74441 33.5747 3.75046L33.5748 3.75047C34.5606 3.78727 35.5359 3.82368 36.4375 4.08128L36.4517 4.08856L36.4673 4.09671C36.5485 4.13954 36.5979 4.16563 36.6875 4.03129C36.8375 2.98129 36.5375 1.78129 36.1375 0.781293C35.8855 0.313354 35.3744 0.311854 34.884 0.310414C34.6932 0.309854 34.5056 0.309303 34.3375 0.281293C27.2375 0.0812933 20.0375 0.831293 13.1875 2.78129C9.33748 3.98129 2.33749 6.63127 0.38749 10.2313ZM20.4875 66.2312C23.6375 70.4312 27.7875 73.7812 32.3875 76.2312C32.8818 76.4872 33.3777 76.7556 33.8767 77.0258C35.545 77.929 37.2492 78.8515 39.0508 79.3928L39.0881 79.4925C39.1906 79.7659 39.2741 79.9885 39.2873 80.0813C39.8566 81.6625 40.2858 83.3038 40.7142 84.9418C40.9631 85.8935 41.2117 86.8442 41.4874 87.7813C42.1374 90.1313 43.6373 92.2313 45.8873 93.2813H46.0373C46.3329 93.2813 46.0936 92.8533 45.9518 92.5998L45.9193 92.5415C45.9069 92.5189 45.896 92.4986 45.8873 92.4813C45.1865 91.1575 44.7282 89.7125 44.2764 88.2878C44.148 87.8829 44.0201 87.4796 43.8873 87.0813C43.4783 85.7374 43.001 84.4276 42.5253 83.1221C42.1868 82.1933 41.8491 81.2666 41.5373 80.3313C41.6652 80.2383 41.6174 80.0508 41.4626 79.8171C44.4119 79.5893 47.0084 77.6788 49.3356 75.9664L49.3357 75.9664L49.5875 75.7812C51.4875 74.1312 51.9375 71.5312 52.1375 69.1312C52.4135 63.886 51.4194 58.6832 50.4409 53.5617C50.356 53.1176 50.2713 52.6741 50.1875 52.2312C49.4944 49.7508 48.7482 47.2904 48.0021 44.8305L48.002 44.8305L48.002 44.8304L48.002 44.8304L48.002 44.8303C46.7027 40.5465 45.4038 36.2643 44.3875 31.8812C43.9638 29.7287 43.4309 27.5992 42.8979 25.4694L42.8979 25.4693L42.8979 25.4692C41.8585 21.3158 40.8188 17.1609 40.5875 12.8312C40.5435 11.3347 38.7558 10.0707 37.4417 9.14145C37.263 9.0151 37.0931 8.89494 36.9375 8.78122C36.9007 8.76117 36.8621 8.73977 36.8222 8.71763C36.2654 8.4086 35.4475 7.95474 35.5875 8.9812C35.2631 12.9456 36.2636 16.78 37.2595 20.597L37.2595 20.597L37.2595 20.597L37.2595 20.5971L37.2595 20.5971L37.2596 20.5971L37.2596 20.5972L37.2596 20.5972L37.2596 20.5972L37.2596 20.5973L37.2596 20.5973L37.2596 20.5973L37.2596 20.5974L37.2596 20.5974L37.2597 20.5974C37.6454 22.0758 38.0304 23.5516 38.3375 25.0312C39.3614 29.9801 41.0272 34.7626 42.6915 39.541C44.4407 44.5629 46.1882 49.5801 47.1875 54.7812L47.222 54.9813C47.7103 57.8124 48.1909 60.5991 48.3375 63.4812C48.3875 67.1812 47.9375 71.5812 44.2875 73.4812L44.0396 73.6345C42.4263 74.6324 40.845 75.6104 39.0375 76.1812C36.5385 76.8367 34.1737 75.5453 31.9708 74.3423C31.485 74.077 31.0072 73.8161 30.5375 73.5812C27.9375 72.3312 25.5875 70.5812 23.9375 68.2312C20.1036 63.1635 18.2117 57.0472 16.3449 51.0118L16.3447 51.0114C16.0934 50.199 15.8426 49.388 15.5875 48.5812C12.7875 38.5312 9.18747 28.6812 4.63747 19.2812C4.38747 18.4312 3.73747 17.6812 2.88747 17.4312C2.82081 17.4312 2.84303 17.5201 2.86525 17.609C2.87636 17.6534 2.88747 17.6979 2.88747 17.7312C3.21247 18.5812 3.56247 19.4312 3.91247 20.2812C4.26246 21.1312 4.61246 21.9812 4.93746 22.8312C7.56511 29.5942 9.48766 36.5427 11.4085 43.4849C11.7172 44.6008 12.0259 45.7165 12.3375 46.8312C12.4824 47.3202 12.6264 47.8104 12.7707 48.3013L12.7709 48.3018L12.771 48.3023L12.7724 48.3071L12.7726 48.3077L12.7728 48.3083C14.6197 54.593 16.5005 60.9924 20.4875 66.2312ZM23.9368 40.1958H23.9367C21.6409 40.0625 19.2747 39.925 17.1873 38.8814C16.0873 38.1814 14.8374 37.2814 14.3874 36.0314C14.304 35.3233 14.9842 34.9968 15.5316 34.7341L15.5317 34.7341C15.6413 34.6815 15.7456 34.6314 15.8374 34.5814C19.1374 33.1814 23.0874 31.7314 26.5874 33.2314C27.5374 33.7314 28.4874 34.4314 29.0874 35.3814C29.3374 35.7814 28.8374 35.6314 28.6374 35.4814C26.0577 34.514 23.2234 35.4565 20.6427 36.3146L20.6421 36.3148C20.4219 36.388 20.2036 36.4606 19.9874 36.5314C19.8763 36.571 19.7628 36.6107 19.6475 36.651L19.647 36.6511L19.6469 36.6512C19.0356 36.8646 18.3761 37.0949 17.7874 37.4314C17.654 37.4647 17.6207 37.498 17.6873 37.5314C20.2373 37.9814 22.8874 38.1314 25.4874 37.8814C28.2374 37.6314 30.9373 37.2814 33.6873 36.8814C34.9112 36.5387 35.2244 36.8191 36.1286 37.6288L36.1873 37.6814C36.2174 37.7077 36.248 37.7342 36.279 37.7611C36.6605 38.0923 37.0987 38.4727 37.2374 38.9814C36.2312 39.4126 35.0958 39.5081 33.9798 39.6019L33.9797 39.6019C33.543 39.6386 33.1092 39.6751 32.6873 39.7314C32.1762 39.7869 31.6651 39.8474 31.1539 39.9079C29.3651 40.1196 27.5762 40.3314 25.7874 40.3314C25.6207 40.3314 25.454 40.3147 25.2874 40.2814C24.8418 40.2484 24.3909 40.2222 23.9372 40.1958H23.9371L23.937 40.1958L23.9369 40.1958H23.9368H23.9368ZM19.8374 55.2312C21.4374 61.5312 28.7374 71.1812 34.7874 73.6812C35.6374 74.0312 36.4874 74.1812 37.3374 74.1812C39.9373 74.1812 42.4873 72.7812 43.6873 70.4312C45.1373 67.9812 45.3374 65.0812 45.4874 62.2812C45.5207 61.7479 45.5707 61.2146 45.6207 60.6812C45.7207 59.6146 45.8207 58.5479 45.7874 57.4812C45.6374 55.3812 44.8874 53.4312 44.0874 51.4812C43.3374 49.3812 42.2374 47.4312 40.5874 45.8812C40.5342 45.8281 40.4811 45.7748 40.4279 45.7213L40.4276 45.7211C39.6796 44.9699 38.9142 44.2013 37.8873 43.7812C37.4373 43.6312 37.6873 44.1812 37.8374 44.3312C38.7374 45.3812 39.5874 46.4312 39.9874 47.7312C40.6874 49.3812 41.3874 51.0312 41.7874 52.7312C42.1784 54.3822 42.0786 56.1088 41.9801 57.8124C41.9653 58.0693 41.9504 58.3257 41.9373 58.5812C41.8373 62.6312 41.4373 67.4812 37.6373 69.7812C35.7373 70.8812 33.2374 71.2312 31.2374 70.2812C30.22 69.5545 29.4138 68.5637 28.627 67.5968L28.6269 67.5966C28.331 67.233 28.0379 66.8728 27.7374 66.5312C22.9042 60.6624 21.7681 55.8152 20.1066 48.7268L20.0374 48.4312C19.7374 46.9812 19.4374 45.7812 18.0374 45.0312C17.9874 44.9812 17.5874 44.7312 17.5374 44.8812C17.9651 46.497 18.2911 48.1466 18.6176 49.798C18.978 51.6215 19.3388 53.447 19.8374 55.2312ZM33.3873 66.5313C31.8373 65.7813 30.2874 64.1813 30.5874 62.3313C30.5874 62.1813 30.6374 62.1313 30.7874 62.1313C31.3874 62.3813 32.8374 63.6313 32.8374 64.2813C32.8124 64.3063 32.7999 64.3188 32.7874 64.3188C32.7749 64.3188 32.7625 64.3064 32.7377 64.2816L32.7376 64.2815L32.7375 64.2815L32.7374 64.2814L32.7374 64.2813C32.7374 64.2813 32.6873 64.2813 32.6873 64.3813C32.6374 64.6312 32.6873 64.931 32.7373 65.2308L32.7374 65.2313C32.7466 65.2589 32.7541 65.2831 32.7608 65.3048C32.7907 65.4014 32.8057 65.4497 32.8873 65.5313C33.0373 65.6813 33.8373 66.5313 33.4373 66.5313H33.3873ZM36.0376 54.3312C36.1876 55.2812 37.3375 56.1312 38.1376 56.5312H38.2376C38.3376 56.5312 38.3376 56.3313 38.3376 56.2312V56.2312C38.3876 54.7312 34.4876 50.9312 33.3376 52.8812C33.0253 53.4611 34.0664 54.2402 34.6141 54.6499C34.6802 54.6994 34.7391 54.7435 34.7876 54.7812L34.8117 54.7976L34.8323 54.8118C35.0111 54.9354 35.3833 55.1926 35.3376 54.7812C35.3876 54.4812 35.7876 54.3312 36.0376 54.3312ZM28.3875 48.8813C27.4375 48.5813 24.7375 46.6313 25.2875 45.4813C25.5529 45.1402 25.9619 45.46 26.2968 45.7218C26.4036 45.8053 26.5029 45.883 26.5875 45.9313C26.6359 45.9918 26.734 46.0873 26.8506 46.201C27.2164 46.5573 27.765 47.0918 27.5375 47.2813C27.4972 47.4023 27.6519 47.5232 27.7396 47.5917C27.7607 47.6082 27.7779 47.6216 27.7875 47.6313C27.9375 47.7813 28.9876 48.8813 28.4876 48.8813H28.3875ZM25.2875 54.8313C24.9875 55.4813 27.1875 57.2813 27.7875 57.5313H27.8375C28.3875 57.5313 27.2875 56.0813 27.0875 55.9313C27.0207 55.8728 26.9413 55.7976 26.8528 55.7138C26.4119 55.296 25.7456 54.6647 25.2875 54.8313ZM34.7375 48.8313C34.0375 48.5813 32.0374 46.9813 32.1374 46.2813L32.1874 46.2313C32.2374 46.2813 32.2374 46.2813 32.2874 46.1813C32.1874 45.4813 33.5375 46.4313 34.4875 47.3313C35.2375 48.0813 35.7374 48.7813 35.1874 48.7313C35.1874 48.7313 35.1374 48.7313 35.0874 48.6813C34.9874 48.6313 34.8874 48.5813 34.9374 48.6813C34.9874 48.7813 34.9374 48.8313 34.8374 48.8313H34.7375ZM51.9876 161.981C51.6252 161.938 51.2613 161.895 50.8965 161.853L50.8936 161.853C48.3398 161.557 45.743 161.256 43.3376 160.381C41.2876 159.381 39.3875 157.881 38.1375 155.981C37.8875 155.581 37.9375 155.281 38.4375 155.131C41.7875 153.481 45.1876 151.981 48.7876 150.881C49.2672 150.714 49.7583 150.56 50.2519 150.406C51.8168 149.917 53.4072 149.42 54.7376 148.431C57.8004 146.711 53.9627 134.64 52.0283 128.556C51.6574 127.389 51.3565 126.443 51.1875 125.831C50.9355 125.183 50.716 124.516 50.4961 123.848C50.1052 122.66 49.7136 121.469 49.1375 120.381C49.0875 119.331 52.3876 121.931 52.5876 122.231C53.4516 122.879 53.7931 123.863 54.128 124.829C54.1807 124.981 54.2332 125.132 54.2876 125.281C54.7876 126.656 55.3001 128.019 55.8126 129.381L55.8131 129.383L55.8132 129.383L55.8134 129.384L55.8136 129.384L55.8138 129.385C56.3259 130.746 56.838 132.107 57.3376 133.481C57.5461 134.114 57.7568 134.746 57.9674 135.378C59.171 138.987 60.3716 142.587 61.1375 146.331L61.1644 146.469L61.1891 146.594L61.2335 146.818C61.5132 148.224 61.8064 149.698 61.5376 151.131C60.9285 153.491 58.4649 154.171 56.1763 154.802C55.4587 155 54.7582 155.193 54.1375 155.431C51.9875 156.081 49.8876 156.781 47.8376 157.731C47.7376 157.731 47.5376 157.781 47.7376 157.781C50.4376 158.131 53.1376 158.231 55.8376 157.881C56.1122 157.83 56.4041 157.776 56.7107 157.72C61.7627 156.788 70.8249 155.118 73.0876 150.781C73.1876 150.648 73.1375 150.548 72.9375 150.481C72.1875 149.931 71.4875 149.231 70.8875 148.481C70.5875 148.181 69.5876 146.731 70.7376 147.281C73.0376 148.731 77.6376 151.731 77.8376 154.531C76.7939 157.947 72.8697 159.022 69.6947 159.892L69.6946 159.892C69.5232 159.939 69.354 159.985 69.1875 160.031C64.6875 161.181 60.0876 162.181 55.4876 162.181C54.3209 162.181 53.1542 162.115 51.9876 161.981ZM114.173 103.309C120.628 110.022 127.295 116.954 136.337 120.031C136.404 120.065 136.454 120.081 136.487 120.081C136.587 120.081 136.687 120.031 136.637 119.831C135.31 117.599 133 116.623 130.673 115.639C129.144 114.993 127.607 114.343 126.337 113.331C122.727 110.57 119.577 107.276 116.429 103.983C114.389 101.85 112.35 99.717 110.187 97.7314C103.187 91.3814 95.8374 85.3814 87.8874 80.3314C83.0874 77.1814 77.8874 73.7814 71.9374 74.2314C68.4874 74.3314 65.1374 75.5314 61.8874 76.7314C57.9874 78.2314 54.0874 79.7814 50.3874 81.7314C49.6208 82.0981 48.8708 82.4814 48.1374 82.8814C48.1177 82.8913 48.0921 82.9012 48.0645 82.9118C47.9523 82.9551 47.8072 83.011 47.8874 83.1314C48.4374 83.9814 49.4374 84.5814 50.3375 85.0814C50.5375 85.2314 50.8874 85.2814 51.0875 85.0814C51.8671 84.673 52.6192 84.3198 53.3847 83.9602L53.3852 83.96C53.6504 83.8354 53.9173 83.7101 54.1874 83.5814C60.8374 80.9814 67.6874 78.3314 74.8375 77.5314C79.8375 76.8814 84.4875 79.1314 88.4875 81.9814C97.3875 87.7314 105.687 94.5314 113.087 102.181C113.258 102.358 113.428 102.535 113.599 102.712L114.173 103.309ZM20.6874 106.731C19.4874 104.931 20.0374 102.481 21.0374 100.731C23.4691 97.1553 26.9749 94.6024 30.4575 92.0664C31.8443 91.0565 33.2273 90.0493 34.5374 88.9813C35.1114 88.3595 36.692 89.6595 37.3095 90.1674L37.3874 90.2313C37.5374 90.3313 37.8374 90.5813 37.5874 90.7813C36.5668 92.0061 35.3129 93.0307 34.0706 94.046L34.0706 94.046L34.0705 94.0461L34.0704 94.0462L34.0703 94.0463C33.7912 94.2744 33.5126 94.502 33.2374 94.7313C32.6256 95.2041 32.0137 95.6924 31.3932 96.1876L31.3928 96.1878C30.898 96.5828 30.3976 96.982 29.8874 97.3813C26.7374 99.9813 22.6874 103.481 23.7374 108.031C25.1374 108.331 26.5374 108.231 27.8874 108.131L27.9583 108.124C28.8822 108.026 29.761 107.934 30.6874 108.031L30.7622 108.067L30.7623 108.067C31.7985 108.56 33.0516 109.156 33.6374 110.181C32.7 110.406 31.6782 110.463 30.6564 110.519H30.6562C30.3156 110.538 29.9749 110.556 29.6374 110.581H29.2374C26.0374 110.581 22.7874 109.181 20.6874 106.731ZM22.5874 120.481C23.5874 122.831 26.7374 124.081 29.0874 124.481C29.854 124.581 30.6207 124.631 31.3874 124.631C34.7387 124.631 38.001 123.533 41.1972 122.457C42.1496 122.137 43.0961 121.818 44.0374 121.531C45.5874 121.381 41.9874 119.281 41.4874 119.331C40.1453 119.676 38.8031 120.11 37.4568 120.544C33.5368 121.81 29.5813 123.087 25.4874 122.231C24.9874 119.281 27.7874 116.431 29.9874 114.781C29.6874 114.281 28.5374 113.481 27.9374 113.531C26.2874 114.331 24.9374 115.731 23.7874 117.181C23.1374 118.131 22.3874 119.281 22.5874 120.481ZM40.4373 138.731C38.0373 137.731 34.2873 135.931 34.6873 132.781C34.9356 130.844 35.7761 129.006 36.5714 127.266L36.5873 127.231C37.1873 126.781 39.6373 128.631 40.1373 129.181C40.2873 129.331 40.4873 129.531 40.2873 129.731C40.171 130.019 40.049 130.309 39.9259 130.602L39.9254 130.603C39.1493 132.45 38.3284 134.403 38.5873 136.431C41.2858 136.645 43.7642 135.428 46.1481 134.258C46.547 134.062 46.9432 133.868 47.3373 133.681C47.9373 133.631 51.7873 135.981 50.9373 136.481C48.5873 137.831 45.7873 139.131 42.9873 139.131C42.1373 139.131 41.2873 138.981 40.4373 138.731ZM71.1375 120.081C78.0875 128.131 86.7875 135.631 97.5875 137.531C98.2208 137.665 98.8708 137.765 99.5375 137.831C102.788 138.231 106.137 137.781 109.137 136.631C108.737 134.981 106.137 132.581 104.637 131.781C103.681 131.752 102.742 131.936 101.799 132.122C101.166 132.246 100.531 132.371 99.8875 132.431C97.3375 132.731 94.7375 132.531 92.1875 132.031C87.8375 131.231 83.6375 129.431 80.0375 126.881C77.7247 125.204 75.7174 123.053 73.7097 120.902C70.0311 116.96 66.3509 113.016 60.7875 111.981C59.2748 111.643 57.7115 111.444 56.1449 111.245C53.3098 110.885 50.4638 110.523 47.8875 109.331C46.9875 107.631 46.8875 104.931 48.7375 103.831C50.1123 103.125 51.6803 103.137 53.2159 103.149C53.7468 103.153 54.2737 103.157 54.7875 103.131C57.5375 103.081 60.2875 102.981 62.9875 102.431C64.3952 102.064 65.779 101.556 67.1527 101.052C71.3901 99.4958 75.532 97.975 79.9875 100.731C80.6756 101.357 81.2072 102.13 81.7382 102.903C82.4804 103.983 83.2215 105.061 84.3875 105.731C84.5375 105.881 84.8375 105.881 84.6875 105.581C82.4875 101.631 79.2375 97.9814 74.9875 96.2814C70.6015 94.2435 66.0193 95.5029 61.5885 96.7208C61.0188 96.8774 60.4515 97.0333 59.8875 97.1814C56.8877 97.8242 53.7859 97.8294 50.7096 97.8345C49.4788 97.8365 48.252 97.8385 47.0375 97.8814C46.963 97.8869 46.888 97.8923 46.8127 97.8977C45.5236 97.99 44.1351 98.0894 43.2375 99.0814C40.4875 103.631 45.0375 108.681 48.4375 111.531C51.6853 114.423 56 115.087 60.2133 115.735C61.3187 115.905 62.4172 116.074 63.4875 116.281C66.2875 116.781 69.2875 117.681 71.1375 120.081Z" fill="black"/>
</svg>
