<svg width="107" height="122" viewBox="0 0 107 122" fill="none" xmlns="http://www.w3.org/2000/svg">
<path fill-rule="evenodd" clip-rule="evenodd" d="M2.00003 7.55137C5.80003 10.6014 10.75 11.7014 15.55 12.0514C18.65 12.3514 21.7667 12.5014 24.9 12.5014H27.2L27.8424 12.4903C33.3316 12.3958 38.8584 12.3007 44.2 11.0014C44.6084 10.8771 45.0972 10.756 45.6274 10.6245C48.0836 10.0158 51.4299 9.18645 51.8 6.80137C51.8 6.00137 51.05 5.35136 50.45 4.85136C44.25 -0.498638 31.55 0.10138 23.65 0.65138C18.45 1.15138 13.25 1.70137 8.10001 2.45137C6.35001 2.60137 11.45 5.70139 12.05 5.75139C14.4634 5.47399 16.8844 5.12734 19.312 4.77975L19.3121 4.77974C25.636 3.87426 32.005 2.96235 38.4 3.25139C41.2 3.35139 44.05 3.70139 46.8 4.25139C46.9 4.25139 46.9167 4.26804 46.85 4.30137C45.8 5.20137 44.55 5.80137 43.25 6.20137C36.55 8.30137 29.55 8.95137 22.55 9.30137C18.35 9.60137 14.15 9.70139 9.95001 9.50139C7.45001 9.40139 4.90001 9.05137 2.85001 7.70137C2.70001 7.55137 1.50003 7.00137 2.00003 7.55137ZM35.9001 56.9512C35.5856 56.9116 35.272 56.8637 34.9594 56.8079C35.5142 57.0901 36.0764 57.357 36.65 57.6012C36.6679 57.6147 36.7025 57.6395 36.7502 57.6737L36.7502 57.6738C37.2325 58.02 39.055 59.3282 38.5999 59.6012C38.3591 59.7458 38.0254 59.6118 37.7777 59.5124L37.75 59.5013C36.2503 58.9559 34.8332 58.2454 33.3862 57.5198L33.3831 57.5182L33.372 57.5127L33.1912 57.422L32.9499 57.3012C28.6499 55.5512 24.4 53.6012 20.4499 51.0512C15.5499 48.3512 11.75 44.2012 8.29995 39.8512C4.99995 45.6512 9.99994 52.0512 13.8499 56.3012C15.7071 58.2727 17.4989 60.3094 19.2907 62.3461C20.6346 63.8737 21.9785 65.4012 23.3499 66.9012C23.4137 67.0033 23.5784 67.1769 23.7701 67.379L23.7703 67.3793L23.7706 67.3795L23.7706 67.3796C24.3302 67.9696 25.119 68.8012 24.3 68.8012H24.1999C21.3279 67.8596 19.1652 65.5878 17.1274 63.4472C17.0011 63.3146 16.8754 63.1825 16.75 63.0512L7.14996 52.4012C3.49996 48.2512 -0.700039 43.2512 0.149961 37.4012C0.349961 36.0012 1.04994 34.3513 2.59994 34.0013C4.09017 33.8929 5.49231 34.4893 6.7984 35.3051C3.52537 29.4386 2.07072 22.6003 1.05009 16.0512L1.05009 16.0512C0.90009 14.5012 0.750091 12.9512 0.800091 11.4012C0.954896 11.0529 1.52908 11.3337 1.91979 11.5247C2.03386 11.5805 2.13229 11.6286 2.20008 11.6512C2.31425 11.7189 2.43343 11.7887 2.55637 11.8607C3.88717 12.6401 5.65929 13.6781 6.30009 15.0512C6.15009 15.8012 6.05008 16.6012 6.10008 17.3512C6.50008 24.4512 8.8001 32.3512 12.2501 38.5512C15.3001 43.4512 21.6501 49.3012 26.9501 51.5512C27.6251 51.8012 28.3376 51.9387 29.0501 52.0762C29.7626 52.2137 30.4751 52.3512 31.1501 52.6012C32.6501 53.3012 34.0001 54.2512 35.2501 55.3512C35.2903 55.3914 35.3401 55.4397 35.3962 55.4941L35.3968 55.4947C35.8986 55.9811 36.8992 56.9512 36.0001 56.9512H35.9001ZM52.4757 61.0983C52.9162 61.2457 53.3582 61.3936 53.8002 61.5515C54.0545 61.6423 54.3088 61.7595 54.5631 61.8768L54.5632 61.8768L54.5632 61.8769L54.5633 61.8769L54.5634 61.8769L54.5634 61.8769L54.5635 61.8769L54.5635 61.877L54.5636 61.877L54.5636 61.877L54.5637 61.877L54.5638 61.8771L54.5638 61.8771C55.0093 62.0824 55.4547 62.2878 55.9002 62.3515C57.2002 62.2515 53.0502 58.6015 52.4502 58.8015C52.4168 58.8015 52.3835 58.8181 52.3502 58.8515C52.0309 58.7322 51.7123 58.6146 51.3951 58.4975L51.3944 58.4973C47.1916 56.9461 43.2246 55.482 40.9002 51.2515C38.6002 47.2015 39.7002 41.7515 45.1502 41.8015C47.4383 41.8423 49.3925 43.152 51.2857 44.4208C51.7092 44.7046 52.1297 44.9864 52.5502 45.2515C57.6002 48.4515 63.1502 51.2515 69.2502 51.7015C72.1002 52.0515 75.0002 52.3515 77.9002 52.5015C79.7002 52.6515 81.7502 52.9015 83.2502 54.0015C83.8835 54.8348 84.4224 55.7459 84.9613 56.657C86.0391 58.4792 87.1169 60.3015 88.9502 61.5015C89.2502 61.7515 90.7502 62.6515 90.2002 61.6015C87.3002 54.7515 81.3002 48.6015 73.6002 47.6015C72.2811 47.4821 71.0385 47.3848 69.8547 47.2921C62.1092 46.6853 56.8836 46.2759 49.2502 41.2015C48.9194 40.9979 48.5862 40.7871 48.25 40.5743L48.2496 40.574C46.2975 39.3388 44.2428 38.0387 41.9646 37.721C42.2102 37.4786 42.4841 37.1892 42.8 36.8512C42.8139 36.8374 42.8261 36.8249 42.837 36.8139L42.837 36.8138C42.8835 36.7665 42.9047 36.7448 42.9259 36.7449C42.9437 36.7449 42.9615 36.7604 42.9943 36.789C43.0441 36.8324 43.1284 36.9059 43.3 37.0013C43.3223 37.0124 43.3566 37.0301 43.4011 37.0531L43.4013 37.0532C43.9565 37.3397 46.0852 38.4381 45.9 37.6513C45.8 37.4013 45.55 37.1513 45.35 37.0013C45.2892 36.9405 45.2408 36.8961 45.203 36.8615L45.2026 36.8612L45.2025 36.8612L45.2025 36.8611C45.136 36.8003 45.1026 36.7697 45.0931 36.7329C45.0835 36.6958 45.0984 36.6523 45.1284 36.5649C45.135 36.5459 45.1422 36.5248 45.15 36.5013C45.4811 35.5494 46.052 34.7004 46.6358 33.869C47.8567 34.8885 49.5553 35.8028 50.5501 36.1012C50.6168 36.1346 50.6835 36.1513 50.7501 36.1513C50.8501 36.1513 50.9001 36.1013 50.9501 36.0013C51.1168 35.5013 51.2668 35.0179 51.4001 34.5512C52.0001 31.5512 52.1001 28.4513 51.6501 25.4013C51.4001 22.1513 49.3001 20.3513 46.6501 18.7513C44.0501 17.0513 40.9501 16.2512 37.8001 16.4512C35.2059 16.4722 32.6204 16.922 30.0327 17.3723L30.0327 17.3723C26.436 17.9981 22.835 18.6247 19.2001 18.1012L18.9144 18.0439C17.0051 17.6602 15.0526 17.2679 13.1001 17.6012C12.7294 17.6298 12.3749 17.7396 12.0275 17.8473C11.7657 17.9284 11.5079 18.0083 11.2501 18.0512C11.1501 18.0512 11.0501 18.0513 11.0501 18.1513C11.0001 18.3013 11.2001 18.5512 11.3001 18.6012C11.5594 18.9181 12.6649 19.7659 13.6607 20.3227C13.2829 20.7136 12.8796 21.1062 12.5 21.4513C12.4816 21.7088 12.7137 22.0069 13.0417 22.2984C13.0123 22.2875 12.9625 22.2645 12.8999 22.2356L12.8998 22.2356C12.5961 22.0954 11.9907 21.816 11.95 22.1013C12.05 23.0513 12.1 24.0013 12.15 24.9513C12.5 29.0513 12.95 33.3013 15.05 36.9513C18.9 43.2013 26.25 46.8513 33.5 47.0513H33.8499C35.4999 47.0513 32.1 44.8013 31.55 44.5513C30.5192 43.986 29.3336 43.8188 28.155 43.6525L28.1549 43.6525C27.5613 43.5688 26.9694 43.4853 26.4 43.3513C26.2247 43.3141 26.0494 43.2775 25.8743 43.2409C24.4006 42.933 22.9353 42.6269 21.55 42.0013C19.0617 39.5628 17.8613 36.0841 17.1599 32.7485C18.3109 33.8085 19.7345 34.6517 21.2 35.2013C21.3334 35.2013 21.3667 35.2346 21.3 35.3013C21.1744 35.584 21.0191 35.8667 20.8621 36.1526L20.8621 36.1526C20.5194 36.7766 20.1686 37.4154 20.1 38.1012C20.65 39.5513 24.35 41.8013 25.8 41.9513C27.082 41.8758 27.9375 40.8621 28.7525 39.8964C29.0182 39.5815 29.2796 39.2717 29.55 39.0013C29.6167 38.9013 29.7 38.9346 29.8 39.1012C33.5975 41.9062 34.0431 41.3592 36.119 38.8102C36.4483 38.4058 36.8187 37.951 37.25 37.4513C37.4 37.2513 37.55 37.0513 37.8 37.5013C38.0773 37.6791 38.3277 37.8378 38.5564 37.9768C36.0136 38.7565 34.7503 40.8922 35.1502 44.0515C35.8172 48.7684 39.5262 52.3048 42.8592 55.4829L42.86 55.4836L42.861 55.4845C43.0251 55.641 43.1883 55.7966 43.3502 55.9515C45.2502 57.6015 47.3502 59.0515 49.6502 60.0515C50.574 60.462 51.5211 60.7789 52.4757 61.0983ZM45.6501 20.9013C46.0662 22.1495 46.2365 23.4726 46.2549 24.8162C45.5015 24.2442 44.6258 23.814 43.75 23.5013C43.1578 22.4079 41.9428 21.7296 40.8617 21.126L40.7875 21.0845C42.4084 20.9465 44.0293 20.8718 45.6501 20.9013ZM35.25 23.2013C35.8643 22.587 36.5041 22.0113 37.1697 21.4741L36.7019 21.5207L36.7008 21.5208L36.7002 21.5209C36.1684 21.574 35.6348 21.6273 35.0999 21.6781C35.2744 21.874 35.4269 22.0814 35.55 22.3013C35.6167 22.5346 35.5056 22.7235 35.3945 22.9124C35.3389 23.0068 35.2834 23.1013 35.25 23.2013ZM20.3306 20.5844C20.9278 20.7058 21.5213 20.8536 22.1082 21.0052C21.9767 21.0961 21.8389 21.192 21.6938 21.293L21.6932 21.2934L21.6898 21.2958C21.5501 21.393 21.4038 21.4948 21.25 21.6012C21.2167 21.6346 21.2 21.6013 21.2 21.5013C20.9485 21.1659 20.6539 20.8617 20.3306 20.5844ZM16.7897 30.7787C16.6886 30.2002 16.5958 29.6209 16.5166 29.0405C16.7724 29.1877 17.0342 29.3254 17.3 29.4513L17.3411 29.4687L17.3993 29.4932L17.3993 29.4932C17.5184 29.543 17.566 29.563 17.5728 29.5924C17.5774 29.612 17.5638 29.6358 17.5411 29.6755C17.5294 29.696 17.5153 29.7207 17.5 29.7513C17.3999 29.9293 17.2601 30.1198 17.1148 30.3177L17.1148 30.3177C17.0046 30.4678 16.8913 30.6222 16.7897 30.7787ZM101.6 93.3512C102.7 94.8512 104.15 96.2512 105.85 97.0012H105.95C106.299 97.0012 106.21 96.2961 106.141 95.7506V95.7505C106.111 95.5138 106.085 95.3071 106.1 95.2012C105.9 88.3512 103.5 81.8512 100 76.0512C98.3501 73.2512 96.55 70.5512 94.65 67.9012C93.65 66.3012 92.4001 64.8012 90.7501 63.8512C89.1366 62.997 90.5858 64.8453 91.0367 65.4203L91.1 65.5012C96.3 72.4512 100.7 80.4512 101.05 89.3012C101.119 89.7666 101.129 90.2499 101.138 90.7325C101.156 91.6498 101.174 92.5649 101.6 93.3512ZM88.3501 117.801C89.5501 119.201 91.1001 120.451 92.8501 121.101C92.8834 121.135 92.9168 121.151 92.9501 121.151C93.1501 121.151 93.2501 120.901 93.1501 120.751C92.9834 119.918 92.8001 119.085 92.6001 118.251C91.5001 113.551 89.5501 109.101 87.4001 104.751C85.4001 100.651 83.2501 96.6012 80.2501 93.1012C77.4501 89.9012 74.2001 87.0512 70.6501 84.6512C67.9022 82.6884 64.9251 81.0568 61.955 79.429L61.955 79.429L61.9549 79.429L61.9549 79.4289L61.9548 79.4289L61.9548 79.4289L61.9547 79.4289L61.9546 79.4288L61.9546 79.4288L61.9545 79.4288L61.9545 79.4288C60.7635 78.776 59.5736 78.1238 58.4001 77.4512C53.2501 74.5512 47.9501 71.8012 42.1501 70.4512C37.9183 69.6132 33.5461 69.1615 29.21 68.7134L29.2097 68.7134C28.3714 68.6268 27.5344 68.5403 26.7001 68.4512C25.6001 68.0512 26.2501 68.9512 27.3001 69.8512C28.2501 70.7012 29.5001 71.5012 29.9001 71.3012C31.3157 71.269 32.7935 71.6716 34.2534 72.0693L34.2534 72.0694L34.2535 72.0694C35.0624 72.2897 35.8658 72.5086 36.6501 72.6512C37.2156 72.7758 37.781 72.8986 38.3461 73.0212C40.7291 73.5386 43.106 74.0545 45.4501 74.7012C52.0638 76.3435 57.8894 79.7591 63.6965 83.1638L63.6998 83.1657C64.433 83.5956 65.1659 84.0253 65.9001 84.4512C70.7001 87.0512 73.5501 88.6012 76.5501 93.4512C79.7501 98.5012 82.6501 103.751 85.1001 109.201C85.8282 110.684 86.3527 112.255 86.8775 113.826C87.3258 115.168 87.7743 116.511 88.3501 117.801ZM53.0493 39.4296C52.7483 39.6818 52.4516 39.9304 52.2 40.2014C52.7 41.5014 55.2999 43.2015 56.6499 43.6515C59.9364 42.2702 60.4098 35.8071 60.6634 32.3449L60.6636 32.3431L60.688 32.0108L60.7 31.8514C61.1184 25.5285 59.2024 19.3352 57.3638 13.3922L57.3637 13.3922C57.225 12.9438 57.0868 12.4969 56.95 12.0515C56.6 11.7015 56.15 11.3515 55.7 11.2515C55.6 11.2515 55.5999 11.4015 55.5999 11.5015C55.661 12.3262 55.8714 13.1323 56.0829 13.9425L56.083 13.9427C56.2176 14.4586 56.3527 14.9763 56.45 15.5015C57.7 20.9015 57.9499 26.5515 56.6499 32.0015C56.1499 34.1015 55.5999 36.3014 54.3499 38.1014C54.0129 38.6223 53.5257 39.0305 53.0493 39.4296ZM38.4 100.851C39.1851 98.7231 39.5775 96.5181 39.7147 94.2891C38.5371 88.4766 37.931 82.5264 37.4002 76.6514C37.4002 76.6059 37.3996 76.5598 37.3988 76.5133C37.2664 76.026 37.1386 75.5386 37.05 75.0513C37.05 75.0409 37.0478 75.0263 37.0453 75.0091C37.0357 74.9434 37.0207 74.8409 37.0999 74.8013C37.1899 74.8013 37.28 74.8553 37.37 74.9093C37.43 74.9453 37.49 74.9813 37.55 75.0013C37.5915 75.0346 37.6359 75.0678 37.6812 75.1018L37.6813 75.1019L37.6814 75.102C37.796 75.1879 37.9166 75.2783 38.0132 75.3844L38.0661 75.412L38.0661 75.4121C38.1459 75.454 38.2123 75.4888 38.2502 75.5014C38.7002 75.8014 39.1501 76.1014 39.5501 76.5014C40.1438 77.0326 40.1517 77.8957 40.1595 78.7491C40.1642 79.2613 40.1689 79.77 40.3001 80.2014C40.4081 80.8492 40.5276 81.5985 40.6597 82.4277L40.6598 82.4279C41.9354 90.4299 44.3978 105.877 49.2001 109.501C49.3483 109.526 49.4965 109.55 49.6445 109.574C51.2938 109.841 52.9154 110.104 54.2002 111.251C54.7002 111.501 58.1501 114.251 56.6501 114.251C55.678 114.119 54.7226 113.902 53.7924 113.608C47.4131 116.273 40.1957 116.557 33.3501 116.701C33.0001 116.701 31.6501 115.801 30.6001 114.901C29.5501 113.951 28.8001 113.051 29.6501 113.051C30.2152 113.071 30.7802 113.087 31.3452 113.097C30.2732 112.373 29.14 111.366 28.95 110.701C28.95 110.601 29.1 110.551 29.25 110.551C29.3833 110.485 29.5166 110.401 29.65 110.301C33.8 108.651 36.85 105.001 38.4 100.851ZM34.6515 113.105C38.6775 113.045 42.6888 112.723 46.6501 112.051C47.5545 111.922 48.4455 111.726 49.3301 111.505C45.9327 109.317 43.2188 106.051 41.8011 102.273C40.8451 106.497 38.4086 110.832 34.6515 113.105Z" fill="black"/>
</svg>
