<svg width="53" height="99" viewBox="0 0 53 99" fill="none" xmlns="http://www.w3.org/2000/svg">
<path fill-rule="evenodd" clip-rule="evenodd" d="M47.0483 18.567C47.1623 18.3674 47.2782 18.1697 47.3938 17.9723C47.8863 17.1314 48.3743 16.2984 48.6983 15.367C49.8483 11.767 50.1983 7.417 47.8483 4.267C46.2983 2.867 43.8983 2.967 41.9483 3.267C39.4983 3.717 36.3983 4.617 35.4983 7.217C35.0983 7.917 32.8983 5.767 32.4983 5.367C32.2483 5.067 31.9983 4.667 32.3483 4.367C33.9483 2.167 36.7983 1.317 39.3983 0.916997C43.9983 0.016997 48.5983 2.867 50.8983 6.767C53.0983 10.967 52.2983 17.167 49.2983 20.667C48.3983 20.217 47.3983 19.467 47.0483 18.567ZM13.6983 15.517C10.4983 15.567 7.34832 15.5669 4.24832 15.117C-1.31182 12.9357 0.664755 12.2544 3.91887 11.1328L3.9189 11.1328C4.46895 10.9432 5.0555 10.7411 5.64832 10.517C6.85379 10.1872 8.14844 9.74078 9.49244 9.27728C14.6707 7.49149 20.5817 5.45303 24.9483 8.86695C25.0983 8.96695 25.6983 9.51695 25.0983 9.41695C21.2764 8.82896 17.4545 10.0176 13.8208 11.1478L13.5983 11.217C12.7315 11.5251 11.7164 11.8407 10.6957 12.1581L10.6957 12.1581C9.0669 12.6644 7.42416 13.1751 6.34832 13.667C15.9983 13.9669 25.6983 14.067 35.1483 11.867C34.4587 11.775 33.7363 11.7723 33.0111 11.7696C31.3703 11.7634 29.716 11.7572 28.3983 10.717C28.3911 10.7097 28.3744 10.6951 28.3519 10.6754L28.3518 10.6754C28.219 10.5593 27.8846 10.267 28.0983 10.267C29.0983 10.267 30.0983 10.3114 31.0983 10.3558C31.5983 10.3781 32.0983 10.4003 32.5983 10.4169C33.1049 10.4507 33.6191 10.4617 34.1341 10.4727C35.9063 10.5104 37.6874 10.5484 39.1983 11.517C39.6483 11.767 40.9983 12.5669 39.9483 12.917C33.2483 14.8169 26.2483 15.517 19.2983 15.567C17.4484 15.517 15.5484 15.517 13.6984 15.517H13.6983ZM43.4323 15.0255C43.3466 15.1458 43.2559 15.2732 43.1983 15.417C43.5483 16.217 44.3483 16.817 45.0983 17.167C46.1983 16.367 46.4983 14.617 46.3983 13.317C46.3983 10.967 45.0983 8.91705 43.1983 7.66705C41.7983 6.71705 40.0483 6.31705 38.3983 6.41705C38.2415 6.41705 38.0847 6.45804 37.935 6.49717C37.7983 6.53289 37.6676 6.56705 37.5483 6.56705C37.2983 6.56705 37.4983 6.91705 37.5983 7.01705C37.7483 7.36705 39.9983 9.51705 40.0483 8.71705C41.1483 8.26705 42.4983 8.61705 43.5983 8.91705C44.2983 10.717 44.4983 12.9671 43.5983 14.7671C43.5559 14.8519 43.4954 14.9368 43.4323 15.0255ZM10.9484 93.8169C9.74837 93.3169 8.74837 92.4169 7.94837 91.4169C7.26005 89.5544 7.03076 87.4952 6.80913 85.5047L6.80912 85.5047L6.80911 85.5046L6.8091 85.5045L6.8091 85.5045L6.80909 85.5044L6.80908 85.5043L6.80908 85.5043L6.80907 85.5042L6.80906 85.5041C6.75702 85.0368 6.70541 84.5732 6.64837 84.117C6.03615 77.8867 5.89082 71.6305 5.74533 65.3671C5.68882 62.9344 5.63229 60.5007 5.54837 58.0669C5.04837 44.4169 4.04837 30.7169 0.848367 17.3669C0.798367 16.5169 3.94837 19.2169 3.54837 19.8169C7.38544 36.1142 8.15839 52.82 8.92944 69.4848C9.09279 73.0155 9.25606 76.5443 9.44837 80.0669C9.69837 83.5169 9.99837 86.9669 10.5984 90.4169C10.5794 90.645 10.7048 91.1908 10.8402 91.7798C11.061 92.7408 11.3083 93.8169 10.9984 93.8169H10.9484ZM38.4841 92.2695C38.5465 94.7037 38.561 95.2703 41.5984 96.7669H41.6484C41.9453 96.7669 41.9157 95.7874 41.8899 94.9343C41.8766 94.4944 41.8643 94.0881 41.8984 93.8669C41.8235 87.675 41.4867 81.4955 41.1497 75.3099L41.1497 75.3097C40.8117 69.1079 40.4734 62.9 40.3984 56.6669C40.3288 50.6193 40.4634 44.5823 40.5979 38.5462V38.546V38.5459V38.5457V38.5456V38.5454V38.5453V38.5451V38.545V38.545V38.5449V38.5449V38.5449V38.5448V38.5448V38.5448V38.5447C40.7536 31.5562 40.9093 24.5688 40.7484 17.5669C40.7984 16.8669 39.2984 15.9669 38.6484 15.8669C38.5672 15.8669 38.5849 16.0317 38.5944 16.1205C38.5966 16.1411 38.5984 16.1575 38.5984 16.1669V18.2669C38.6407 25.4593 38.2892 32.6517 37.9377 39.844C37.8738 41.1517 37.8099 42.4593 37.7484 43.7669C37.1984 55.2669 37.5984 66.8169 38.0984 78.3669C38.1627 80.1898 38.1994 82.0219 38.2362 83.8553V83.8554V83.8555V83.8556V83.8557V83.8558V83.8559V83.8561V83.8562L38.2362 83.8567V83.8568V83.8569V83.857V83.8571V83.8572V83.8572V83.8573C38.2852 86.2978 38.3342 88.7405 38.4483 91.1669C38.4663 91.5735 38.4756 91.9386 38.4841 92.2692L38.4841 92.2695ZM18.8983 98.7669C15.0483 98.2669 10.2983 97.6169 7.99829 94.2169C8.19829 93.7169 9.89829 94.8669 10.2483 95.1169C12.7929 96.5306 16.9807 96.5231 20.0911 96.5176L20.2921 96.5173C20.4126 96.5171 20.5314 96.5169 20.6483 96.5169C24.5983 96.3169 28.4983 95.3669 32.1483 93.8669C32.4959 93.76 32.8293 93.6101 33.156 93.4632C33.4401 93.3354 33.7192 93.21 33.9983 93.1169C35.4983 93.5169 36.9483 94.5169 37.8983 95.6669C37.9421 95.8421 37.8708 95.8639 37.7516 95.9002C37.7347 95.9053 37.7169 95.9107 37.6983 95.9169C36.2483 96.5169 34.7483 97.0169 33.2483 97.4669C29.7983 98.4169 26.2983 98.9669 22.7483 98.9669C21.4483 98.9669 20.165 98.9003 18.8983 98.7669ZM12.4984 38.017C8.09835 38.817 4.39835 40.717 10.5984 43.267C11.3984 43.517 12.1984 43.617 12.9984 43.617C14.7484 43.617 16.4984 43.167 18.2484 42.717L18.5841 42.635C20.3277 42.2088 22.1101 41.773 23.8484 41.867C24.3232 41.9901 24.7857 42.1627 25.2467 42.3347C26.0963 42.6518 26.9408 42.967 27.8484 42.967C29.7484 43.217 40.3484 42.167 34.7983 39.367C34.0989 38.9822 34.0599 39.0623 33.9114 39.3677C33.8476 39.4989 33.7636 39.6716 33.5984 39.867C31.0484 41.367 27.3984 41.367 24.4984 41.167C22.5484 40.417 20.5984 39.717 18.5484 40.517C18.0034 40.6559 17.422 40.8222 16.8216 40.9939L16.8209 40.9941L16.82 40.9943L16.8197 40.9944C14.6109 41.6262 12.1457 42.3314 10.2984 42.017C11.8984 40.667 14.1984 39.867 16.2984 39.867C17.3984 39.867 13.6484 37.467 12.4984 38.017ZM11.6483 57.517C10.5027 56.5623 11.311 55.4619 12.0465 54.4606C12.2741 54.1508 12.4947 53.8505 12.6483 53.567C13.7983 51.917 14.8483 50.167 15.8483 48.417C16.3983 48.517 18.3983 49.817 17.7483 50.417C16.4983 52.717 14.9983 54.917 13.4983 57.067C13.4505 57.1386 13.3943 57.2102 13.3369 57.2831C13.154 57.5159 12.9602 57.7624 12.9983 58.067C14.0002 58.7742 15.0368 59.4467 16.0673 60.1152L16.0676 60.1154L16.0679 60.1156L16.0683 60.1159L16.0687 60.1161L16.0691 60.1164C16.7865 60.5818 17.5008 61.0452 18.1983 61.517L18.2524 61.56C18.5942 61.8309 19.7161 62.7199 19.1983 62.767L19.0213 62.656C16.526 61.0906 13.944 59.4708 11.6483 57.517ZM27.9023 69.9504H27.9025C28.3754 69.9528 28.8454 69.9552 29.2984 70.017C29.8484 70.217 30.4984 70.367 31.0484 70.367C31.7984 70.367 32.4484 70.117 32.9484 69.467C32.9817 69.417 33.0317 69.367 33.0836 69.3152C33.1873 69.2115 33.2984 69.1003 33.2984 68.967C33.0239 68.4638 32.5401 68.128 32.0768 67.8064C32.0337 67.7765 31.9909 67.7468 31.9484 67.717C31.7984 67.617 31.4984 67.417 31.3984 67.717C30.6484 68.517 29.4984 69.017 28.3984 68.667C27.6499 68.4799 26.8734 68.4608 26.1109 68.4421C25.8546 68.4358 25.5999 68.4296 25.3484 68.417C25.8627 66.5972 27.0656 64.8086 28.2142 63.101C28.5173 62.6504 28.8165 62.2054 29.0984 61.767C29.189 61.6504 29.2797 61.5271 29.3721 61.4015C29.6364 61.0421 29.9149 60.6634 30.2484 60.367C30.2484 60.3004 30.2039 60.2337 30.1595 60.167C30.1373 60.1337 30.115 60.1003 30.0984 60.067C29.5484 59.467 28.7984 58.767 27.9984 58.567C27.1226 59.5622 26.4053 60.7475 25.6951 61.9211C25.5133 62.2216 25.3319 62.5214 25.1484 62.817C24.9732 63.144 24.779 63.4709 24.5828 63.801L24.5828 63.8012C23.9391 64.8846 23.275 66.0024 23.1984 67.267C23.4984 68.467 24.7984 69.317 25.8984 69.767C26.5453 69.9435 27.2268 69.9469 27.9023 69.9504ZM25.4983 55.317C24.2983 54.717 22.1983 53.567 23.2983 52.017C23.4018 51.8359 23.5254 51.5676 23.6648 51.2652L23.6648 51.2651C24.064 50.3989 24.5924 49.2523 25.1483 49.067C25.8983 49.417 26.7483 49.967 27.0983 50.667C26.959 50.9456 26.7957 51.2434 26.6293 51.5469L26.6292 51.547L26.6292 51.547L26.6291 51.5472C26.2579 52.2242 25.8708 52.9302 25.6983 53.517C26.4319 53.4 27.0814 53.3231 27.65 53.2558C30.7239 52.8921 31.4297 52.8085 30.2483 48.167C30.3483 47.667 31.8483 48.967 32.0483 49.217C32.9483 50.367 33.1983 52.717 32.6983 54.117C32.2983 54.817 28.4983 55.417 26.4983 55.417H26.4982C26.0482 55.417 25.6483 55.417 25.4983 55.317ZM18.77 79.9548L18.7703 79.9548C19.4516 80.0777 20.1336 80.2008 20.7983 80.3669C21.4483 80.5669 21.9983 80.7169 22.5483 80.7169C23.7483 80.7169 24.6983 80.0669 25.0483 78.4669C25.3483 77.5669 25.3483 77.2169 24.5483 76.6169C24.5034 76.5777 24.4579 76.5372 24.4117 76.496C24.0461 76.1704 23.6366 75.8057 23.1483 75.7169C23.0233 75.7794 22.9959 75.9396 22.9686 76.0998C22.9522 76.1958 22.9358 76.2919 22.8983 76.3669C22.1995 79.3674 20.2168 78.7863 18.1445 78.179L18.1443 78.1789C17.6958 78.0475 17.2431 77.9148 16.7983 77.8169C16.7612 77.7984 16.724 77.7936 16.6946 77.7898C16.6447 77.7834 16.6169 77.7798 16.6483 77.7169C17.2108 76.4419 17.6889 75.1669 18.1671 73.8919C18.3264 73.4669 18.4858 73.0419 18.6483 72.6169C19.4483 72.0669 14.5983 68.2669 14.1483 69.0169C13.9666 69.986 13.6871 70.9387 13.4085 71.8883C12.9971 73.2906 12.5877 74.686 12.4983 76.1169C13.0483 77.6169 14.5983 78.5669 15.9483 79.3169C16.8543 79.6092 17.8115 79.7819 18.77 79.9548ZM25.9484 87.117C25.9484 86.767 26.5484 87.217 26.6484 87.317H27.7984C29.3984 87.367 31.8984 87.367 31.5484 86.167L31.5158 86.0477C30.9269 83.8892 30.3502 81.7754 30.4484 79.517C30.4484 79.017 31.4484 79.967 31.5984 80.117C31.8925 80.4111 31.8662 80.8334 31.8406 81.2443C31.8271 81.462 31.8137 81.6765 31.8484 81.867C31.9013 83.7365 32.5265 85.2078 33.0022 86.3271C33.8749 88.381 34.244 89.2494 29.6484 89.217H29.2984C27.8984 89.217 26.5984 88.317 25.9484 87.117ZM15.4983 87.317C14.3983 90.467 18.4483 91.567 20.8483 91.567C21.9983 91.617 23.1483 91.617 24.2483 91.617C24.9483 91.517 23.0983 90.167 22.8483 90.067C22.5983 89.917 22.3483 89.817 22.0483 89.867C20.6983 89.967 19.2983 90.017 17.9483 89.917C17.6149 89.917 17.2816 89.8837 16.9483 89.817C16.8588 89.7872 16.8761 89.6683 16.894 89.5454C16.9061 89.4624 16.9184 89.3775 16.8983 89.317C16.8983 89.0562 16.9292 88.7702 16.961 88.4755C17.0635 87.5271 17.1756 86.4892 16.2983 85.917C15.6233 85.3095 15.6089 85.9094 15.594 86.5326C15.5868 86.8327 15.5795 87.1382 15.4983 87.317Z" fill="black"/>
</svg>
