<svg width="63" height="52" viewBox="0 0 63 52" fill="none" xmlns="http://www.w3.org/2000/svg">
<path fill-rule="evenodd" clip-rule="evenodd" d="M36.6908 9.29991C36.9408 11.5499 37.9908 13.5499 39.1408 15.4499C39.5908 15.9499 39.5908 14.2999 39.5908 14.0499C39.7323 12.6345 39.0886 11.4916 38.4398 10.3398C37.9427 9.4572 37.4426 8.56943 37.2908 7.54991C37.4908 2.74991 45.0908 4.29991 44.5908 7.04991C44.3408 8.59991 43.8908 10.0999 43.2908 11.4999C43.1539 11.8421 42.9526 12.1668 42.7511 12.4919C42.3636 13.1168 41.975 13.7435 42.0408 14.4999C41.9908 14.7999 42.1408 16.5999 42.4908 15.6499C45.1908 12.0499 46.2908 6.89991 44.6908 2.59991C43.9408 1.04991 42.0908 0.349915 40.4408 0.449915C36.1408 0.649915 36.3408 6.14991 36.6908 9.29991ZM43.6409 19.95C42.9409 17.85 43.9909 16.2 45.5909 14.9C48.6909 12 52.9909 10.95 57.1409 11.15C60.7909 11.25 62.8409 12.5 61.991 16.45C60.4409 22.65 54.2409 23.6501 48.7909 22.5C48.0409 22.4501 48.341 20.7 48.441 20.15C48.4743 19.8834 48.6076 19.8 48.8409 19.9C49.1296 19.9361 49.4166 19.9738 49.7025 20.0114L49.7035 20.0115L49.7037 20.0116C51.0025 20.1822 52.28 20.35 53.5909 20.35C56.7909 20.45 59.9909 18.75 61.2909 15.7C62.1409 14.15 57.091 14.3 56.191 14.35C50.641 14.55 47.1909 16.15 43.6409 19.95ZM13.4409 21.2C9.89093 24.25 9.39088 29.6 10.1409 33.95C10.6177 34.3146 10.654 32.9487 10.691 31.5554C10.72 30.4648 10.7494 29.3574 10.9909 29.05C13.9409 21.05 25.6909 18.85 33.0909 20.8C34.7909 21.25 36.5409 22.05 37.8409 23.2C38.4409 21.75 37.8409 20.7 36.5909 19.85C29.9909 15.15 19.5909 16.05 13.4409 21.2ZM0.840966 33.4501C-0.209034 35.3001 -0.20901 38.1001 0.99099 39.8501C1.84099 40.9001 3.89095 41.9001 5.14095 41.7501C5.49095 40.8001 5.49098 39.6501 5.29098 38.6501C5.24098 38.5501 5.19097 38.4501 5.09097 38.4001C4.99645 38.359 4.90127 38.3179 4.80562 38.2766L4.80429 38.276C3.73659 37.8151 2.61255 37.3299 1.74099 36.5501C1.51455 36.4369 1.94331 36.2382 2.23168 36.1046L2.23177 36.1045L2.23198 36.1044L2.23205 36.1044L2.23226 36.1043L2.23233 36.1043C2.32572 36.061 2.40431 36.0246 2.441 36.0001C3.941 35.4001 6.09095 35.1501 7.39095 36.2501C7.64095 37.0501 7.84098 35.3501 7.79098 35.1501C7.89098 31.8001 2.64097 31.4501 0.840966 33.4501ZM41.9408 33.3499C41.6408 32.2499 41.4407 30.8999 41.8907 29.8499C42.306 29.6596 42.7751 29.5052 43.2484 29.3494C44.1429 29.055 45.0522 28.7558 45.6407 28.1999C44.7907 27.4499 43.8408 26.7999 42.7408 26.5499C41.8408 26.3499 40.7908 26.2499 40.0408 26.7999C39.4908 26.3499 39.1407 22.7499 39.8907 22.4999C44.6407 21.5999 48.2907 26.1499 46.8407 30.6499C46.2133 32.1009 44.6631 32.5984 43.2275 33.0591C42.8327 33.1858 42.4466 33.3097 42.0907 33.4499C42.0241 33.4499 41.9741 33.4166 41.9408 33.3499ZM11.6909 42.5001C11.0909 43.6501 11.0909 45.1501 11.3909 46.3501C16.0409 51.8501 22.6409 52.7001 29.0409 50.0501C33.8409 48.1501 36.8409 43.7001 39.0409 39.3001C39.4409 38.7501 39.5909 37.3001 39.1909 36.7501C38.8776 37.194 38.6188 37.6925 38.3576 38.1956L38.3575 38.1957L38.3575 38.1957L38.3575 38.1958L38.3574 38.1958C38.1185 38.6561 37.8775 39.1202 37.5909 39.5501C35.6409 42.8001 32.9409 45.7501 29.2909 47.0001C25.1909 48.4001 20.2909 48.8001 16.4409 46.5001C15.2909 45.9095 14.334 44.9711 13.4022 44.0573C12.8351 43.5012 12.2774 42.9541 11.6909 42.5001ZM14.8409 41.05C14.0409 38.75 15.491 36.55 16.741 34.75C17.391 34.5 17.1909 37.4 17.0909 37.9C16.8672 38.3753 16.5498 38.8037 16.2346 39.2289C15.9862 39.5641 15.7393 39.8974 15.5409 40.25C15.501 40.3033 15.4503 40.4099 15.3928 40.531C15.2345 40.8641 15.0243 41.3067 14.8409 41.05ZM20.4785 38.7436C19.3237 40.607 18.0347 42.687 18.7409 44.9C18.9076 45.2333 19.3187 44.4111 19.6483 43.7518C19.8131 43.4222 19.9576 43.1333 20.0409 43.05C20.066 43.0135 20.091 42.9772 20.116 42.941C20.6399 42.1812 21.1409 41.4544 21.1409 40.5C21.1409 40.4589 21.143 40.3881 21.1457 40.2964C21.1658 39.6076 21.2205 37.7381 20.6909 38.4C20.621 38.5137 20.55 38.6282 20.4785 38.7436Z" fill="black"/>
</svg>
