<svg width="53" height="53" viewBox="0 0 53 53" fill="none" xmlns="http://www.w3.org/2000/svg">
<path fill-rule="evenodd" clip-rule="evenodd" d="M17.7201 36.8012C9.3701 30.2512 8.0201 19.0012 10.0201 9.15119C10.0284 9.11538 10.0363 9.08019 10.0441 9.04574L10.0442 9.0455C10.1778 8.4547 10.2615 8.08431 10.9701 8.65119C11.104 8.76147 11.259 8.87796 11.4228 9.00105L11.4228 9.00106L11.4229 9.00107L11.4229 9.00107L11.4229 9.00108L11.4229 9.00109C12.2987 9.65926 13.4256 10.506 12.9201 11.6012C10.1201 24.9012 13.2201 37.7512 27.9701 41.1012C35.5201 43.1012 43.3201 39.8012 49.8701 36.2512C50.2214 32.914 45.9081 30.4899 42.2014 28.4068L42.2014 28.4068L42.2014 28.4068C40.6322 27.525 39.1718 26.7042 38.2201 25.9012C29.1201 20.1012 23.4201 10.7012 18.9701 1.15119C18.6201 0.601186 19.2201 0.701189 19.5201 0.951189C21.766 2.17623 22.8447 4.46848 23.9001 6.71121L23.9001 6.7113L23.9001 6.71136L23.9002 6.7114L23.9002 6.71142L23.9002 6.71144C24.137 7.21473 24.3727 7.71552 24.6201 8.2012C29.5453 19.4588 35.4674 23.0843 41.0562 26.5057C44.9992 28.9196 48.7762 31.2319 51.9201 36.0512C53.1506 38.4175 52.0069 38.9024 50.1001 39.7108L50.099 39.7112C49.9917 39.7567 49.882 39.8033 49.7701 39.8512C38.7201 46.1012 27.2201 45.5012 17.7201 36.8012ZM32.1201 26.6512C28.8201 26.2512 25.8701 23.8512 24.0701 21.2012C23.1701 19.6012 23.0701 17.6512 23.5201 15.9012C23.7743 15.3928 24.3976 15.8074 24.9114 16.1492C25.1051 16.278 25.2832 16.3964 25.4201 16.4512C27.9769 18.2166 27.8284 18.9258 27.5915 20.0566C27.4393 20.7833 27.2506 21.6841 27.7201 23.1512C28.9201 22.8512 33.4701 26.5512 32.1201 26.6512ZM14.3202 20.0512C13.1202 20.8012 16.6702 23.2012 17.4202 23.5012C17.8389 23.3469 18.2382 23.0858 18.6438 22.8206C19.1583 22.4841 19.683 22.141 20.2702 22.0012C20.7501 21.7269 21.3241 21.6525 21.7866 21.5925C22.6732 21.4774 23.1503 21.4156 21.7702 20.1012C19.4202 17.2512 16.9702 18.0512 14.3202 20.0512ZM22.2701 35.1013L22.1861 35.0566C21.4209 34.6501 20.131 33.965 20.4202 33.0013C21.0202 30.4513 21.9201 27.9012 22.8701 25.4012C23.4701 25.4512 25.0202 26.6013 24.9202 27.2013C24.3751 28.525 23.9378 29.97 23.5104 31.3824C23.1145 32.6908 22.727 33.9712 22.2701 35.1013ZM28.9494 32.1866C28.6419 34.5257 28.522 35.4377 32.0702 37.2512C32.6202 37.4512 32.9202 33.2512 32.8202 32.7012C32.3702 31.8512 30.0702 29.6012 29.1702 29.9512C29.1279 30.829 29.0319 31.5591 28.9494 32.1866ZM40.3202 38.4012C38.2202 37.6012 37.2702 35.5512 36.9202 33.4512C36.8749 33.1792 36.8167 32.8943 36.7573 32.6036L36.7573 32.6034C36.5547 31.6117 36.3382 30.5518 36.5702 29.7012C37.5702 29.9512 38.4202 30.8011 39.0702 31.5511C39.4567 32.0566 39.4543 32.6857 39.4519 33.3125C39.4502 33.7398 39.4486 34.166 39.5702 34.5511C39.5011 34.8508 39.7719 35.7452 40.03 36.5981L40.0301 36.5981C40.332 37.5955 40.6167 38.5359 40.3202 38.4012ZM3.62007 32.9012C8.47007 43.9012 18.7201 52.7512 31.1701 52.8512C31.1887 52.8512 31.2108 52.8529 31.2344 52.8548C31.3376 52.8629 31.4701 52.8733 31.4701 52.7512C31.5049 52.6815 31.4183 52.5631 31.3456 52.464C31.3141 52.4209 31.2852 52.3815 31.2701 52.3512C29.4352 50.196 26.7012 49.873 23.918 49.5441C21.923 49.3084 19.9027 49.0697 18.1701 48.1512C13.8201 46.2512 11.1201 41.9512 8.87007 37.9512C4.52007 30.3512 4.32007 21.1012 6.47007 12.7512C6.51616 12.659 6.54809 12.5291 6.58181 12.3918C6.65784 12.0824 6.74298 11.7358 7.02007 11.7012C7.22007 11.7512 7.32007 11.6012 7.22007 11.4512C6.77007 10.5012 2.57007 6.55121 2.22007 8.85121C0.0700678 16.6512 0.0700695 25.4512 3.62007 32.9012Z" fill="black"/>
</svg>
