<svg width="42" height="40" viewBox="0 0 42 40" fill="none" xmlns="http://www.w3.org/2000/svg">
<path fill-rule="evenodd" clip-rule="evenodd" d="M7.65002 28.1543C10.05 31.7543 20.25 33.5543 24.5 33.8543C30.9 34.2543 34.9 27.9543 36.25 22.4043C37.29 18.4121 36.9569 14.3299 36.6252 10.2633C36.4625 8.26906 36.3 6.27855 36.3 4.30429C36.3 4.16122 36.3073 4.01632 36.3146 3.8717L36.3146 3.87157C36.3454 3.25808 36.376 2.64933 35.85 2.20428C35.3 1.65428 34.65 1.05429 33.9 0.754285C33.6464 0.71805 33.5503 0.918155 33.4595 1.1072C33.425 1.17901 33.3913 1.24923 33.35 1.30429C29.8 7.60429 23.15 12.5043 17.05 16.2043C12.7 18.3043 7.90005 19.8043 3.05005 19.9043C3.14759 20.5871 4.10135 21.2223 4.70502 21.6243L4.75003 21.6543C5.99375 22.0567 7.37127 21.7632 8.70639 21.4788L8.70642 21.4788L8.70645 21.4788L8.70648 21.4788L8.70653 21.4788C9.1963 21.3745 9.68037 21.2714 10.15 21.2043C19.65 19.6543 27.8 13.7043 34 6.60429C34.55 9.80429 34.8 14.0543 34.55 17.6043C33.9501 22.7543 31.8 28.4543 26.95 31.0543C22.6461 32.8189 17.8604 31.3603 13.4861 30.0271C12.7787 29.8115 12.0821 29.5992 11.4 29.4043C10.2 28.9709 9.03336 28.4876 7.90002 27.9543C7.65002 27.8043 7.50002 27.9043 7.65002 28.1543ZM17.6 21.8543C18.25 23.0043 19.6 23.7043 20.9 23.8043C22.25 23.8543 23.5 22.9043 24.1 21.7043C24.3054 21.4167 24.1058 21.1967 23.9171 20.9887L23.9171 20.9887C23.8761 20.9435 23.8357 20.8989 23.8 20.8543C23.7516 20.8156 23.6751 20.7413 23.5818 20.6507C23.1929 20.2729 22.5113 19.6107 22.35 20.0543C21.65 21.8043 19.4 23.1043 17.75 21.8043C17.65 21.7543 17.55 21.7543 17.6 21.8543ZM14.3501 27.9043C13.1501 27.3043 11.9001 26.2543 11.8501 24.8043C11.8001 24.6543 11.8501 24.5543 12.0501 24.6043C12.7501 24.9043 14.8501 26.5543 14.6501 27.3043C14.6167 27.371 14.6056 27.471 14.5945 27.571C14.5723 27.771 14.5501 27.971 14.3501 27.9043ZM18.6502 27.1543C19.0002 28.2043 19.9002 29.1043 20.8502 29.6043C21.2076 29.6837 20.8712 28.8171 20.6925 28.3568L20.6925 28.3567C20.6462 28.2375 20.6105 28.1455 20.6002 28.1043C20.3502 27.6543 18.6502 25.7543 18.2002 26.1043C18.2252 26.3043 18.3252 26.4668 18.4252 26.6293C18.5252 26.7918 18.6252 26.9543 18.6502 27.1543ZM27.6501 27.6544C26.6001 27.1544 25.7001 26.4044 24.9001 25.5544C23.7001 24.2544 24.3001 24.1544 25.4501 25.1544C25.4807 25.1799 25.5367 25.2245 25.6117 25.2844L25.6117 25.2844L25.6117 25.2844C26.2732 25.8121 28.4135 27.5197 27.6501 27.6544ZM27.4 17.3044C27.3 18.2044 29.95 20.8044 30.9 20.7044C31.75 20.6044 29.6 18.5544 29.3 18.3044C28.9 17.9377 28.4333 17.6544 27.9 17.4544C27.8793 17.4441 27.85 17.4251 27.8157 17.403L27.8157 17.403L27.8157 17.4029C27.6843 17.318 27.4793 17.1855 27.4 17.3044ZM19.25 39.3545C12.1 38.6545 4.75 34.7045 0.75 28.8545C1.60253 29.1273 2.1527 29.7955 2.70191 30.4625C2.95797 30.7735 3.21382 31.0842 3.5 31.3545C5.8 33.9045 8.75 35.6545 12 36.5545C14.9 37.5045 18 37.8545 21.1 37.6045C21.7651 37.5458 22.4303 37.4718 23.0984 37.3975L23.0986 37.3975L23.0987 37.3974C24.1381 37.2818 25.1848 37.1654 26.25 37.1045C26.9014 37.0611 27.4774 37.6589 27.9452 38.1444C28.016 38.2179 28.0843 38.2888 28.15 38.3545C28.3 38.5545 28.4 38.7045 28.05 38.7045C27.633 38.762 27.215 38.8226 26.7961 38.8834L26.796 38.8834C24.3016 39.2451 21.7758 39.6114 19.25 39.3545ZM36.3501 31.8044C36.7001 32.5544 37.5001 33.1544 38.2501 33.5044C42.0501 30.7044 42.0501 25.4544 41.8001 21.1544C41.7001 16.3544 41.0001 11.4044 39.9001 6.8544C39.828 6.78235 39.7529 6.70408 39.6748 6.62272C39.2107 6.13942 38.642 5.54719 38.0001 5.50439C38.0001 5.69749 38.0415 5.91131 38.0844 6.1325C38.1081 6.25496 38.1323 6.37968 38.1501 6.50439C39.4501 11.9044 39.8501 17.5044 39.8001 23.0544C39.8001 24.8544 39.5001 26.6544 38.8501 28.2544C38.3349 29.4137 37.5247 30.3886 36.7362 31.3374C36.6064 31.4936 36.4773 31.649 36.3501 31.8044Z" fill="black"/>
</svg>
