<svg width="66" height="36" viewBox="0 0 66 36" fill="none" xmlns="http://www.w3.org/2000/svg">
<path fill-rule="evenodd" clip-rule="evenodd" d="M0.292651 18.5238C-0.0573494 19.2238 1.84265 20.3238 2.49265 20.5738C6.29265 14.3238 13.3426 10.4738 19.9426 7.37377C30.2426 2.47377 41.9427 2.02377 51.9427 7.97377C54.7427 9.52377 57.2426 11.5238 59.5926 13.7238C60.2157 14.2429 60.7967 14.828 61.3794 15.4147C62.4803 16.5231 63.5868 17.6372 64.9927 18.3238C68.3427 19.6738 56.3427 9.52377 55.5427 9.12377C40.7927 -1.52623 27.3926 -2.02623 11.9426 7.67377C7.49265 10.4738 2.89265 13.7738 0.292651 18.5238ZM8.49271 22.8739C9.44271 24.3739 11.0927 25.4239 12.6927 26.0239C13.0427 26.0739 12.6427 25.6739 12.5427 25.5739C12.0427 25.0739 11.4427 24.7239 10.7927 24.5239C10.2927 24.3239 9.99271 23.8239 9.74271 23.3739C9.04271 22.0739 8.89271 20.4739 9.09271 19.0239C9.24271 18.8739 7.99271 17.9239 7.94271 18.2239C7.54271 19.7739 7.69271 21.5239 8.49271 22.8739ZM20.5428 26.0239C19.4928 25.5739 17.6428 24.6239 17.4928 23.3239C17.4739 23.1284 17.4556 22.9308 17.4371 22.7316L17.437 22.7308L17.437 22.7303L17.437 22.7302L17.4369 22.7293L17.4368 22.7287C17.1626 19.7688 16.8559 16.4598 14.0928 14.7739C14.052 14.7331 14.0029 14.6902 13.9515 14.6453C13.7505 14.4698 13.5132 14.2627 13.5928 14.0239C14.1147 14.0239 14.6088 14.3574 15.0751 14.6722L15.0752 14.6722C15.2343 14.7796 15.3902 14.8848 15.5428 14.9739C19.3428 17.2739 20.8928 21.8239 20.7928 26.0239C20.6928 26.0572 20.6095 26.0572 20.5428 26.0239ZM24.3428 10.8239C23.7428 15.4239 25.0428 21.4239 29.6928 23.3739C30.1832 23.5047 29.7329 22.8016 29.3485 22.2014C29.1451 21.8838 28.9601 21.595 28.9428 21.4739C27.1928 18.1739 26.8428 13.8239 28.4428 10.3739C29.4928 9.72387 26.0928 7.67387 25.4928 7.52387C24.7504 7.61666 24.4817 9.7329 24.3669 10.6367C24.358 10.7069 24.35 10.7698 24.3428 10.8239ZM39.3426 21.4739C38.7426 21.1739 37.1926 20.2739 37.4926 19.5239C38.4426 16.0239 39.3426 12.0239 37.4426 8.67387C37.3844 8.63026 37.3221 8.58666 37.2579 8.54183L37.2575 8.54149L37.2574 8.54145C37.1011 8.43216 36.9343 8.31556 36.7926 8.17387C36.7426 8.12387 36.4926 7.87387 36.5426 7.77387C41.2426 9.77387 40.7426 17.3739 39.4426 21.4739H39.3426ZM48.7427 11.9738C47.1427 14.4738 45.8427 19.3238 49.4427 20.6738C49.6523 20.7523 49.5188 20.0625 49.3729 19.3087L49.3729 19.3086C49.2403 18.6235 49.0975 17.8856 49.1927 17.6238C49.3427 15.6738 49.9927 13.6738 51.0927 12.0738C51.2427 11.7238 50.1427 11.0238 49.8427 10.8738C49.4484 10.8379 49.2083 11.2389 48.9934 11.5978L48.9934 11.5979L48.9934 11.5979C48.9085 11.7396 48.8276 11.8747 48.7427 11.9738ZM57.1927 23.374C56.2427 22.974 55.1427 22.274 54.6927 21.324C55.8427 19.524 56.4427 17.024 55.1927 15.124C55.7427 14.824 57.4927 16.424 57.8927 16.974C58.8927 18.974 58.5427 21.324 57.4427 23.224C57.3427 23.374 57.3427 23.374 57.1927 23.374ZM1.14273 26.1238C7.84273 33.6738 18.8427 35.2738 28.3927 35.9238C40.2927 36.1238 52.6427 33.6238 62.7427 27.1738C63.0422 26.9204 63.3734 26.6883 63.7023 26.4578C64.0873 26.188 64.4691 25.9204 64.7927 25.6238C64.3427 24.6238 63.2927 23.8738 62.3427 23.4238C61.3932 23.862 60.4674 24.4188 59.5365 24.9787C58.5555 25.5686 57.5689 26.162 56.5427 26.6238C43.5927 32.8238 28.4427 35.1738 14.3427 31.7738C14.013 31.6891 13.6801 31.6053 13.3452 31.5209C9.92156 30.6584 6.28431 29.7421 3.64273 27.3738C3.44273 27.0238 0.242733 24.5238 1.14273 26.1238Z" fill="black"/>
</svg>
