<svg width="117" height="170" viewBox="0 0 117 170" fill="none" xmlns="http://www.w3.org/2000/svg">
<path fill-rule="evenodd" clip-rule="evenodd" d="M75.1111 48.4736C74.4111 41.9736 75.9612 35.2736 79.8112 29.9236C81.1042 27.9639 82.6585 26.1919 84.2101 24.4229C86.4984 21.8141 88.7809 19.2118 90.2111 16.0236C91.2086 13.7437 91.9461 11.3826 92.683 9.02356L92.6831 9.02328C93.2391 7.2436 93.7946 5.46513 94.4611 3.72363C94.604 3.3664 94.7214 2.99003 94.8383 2.61502V2.61499L94.8383 2.61494L94.8383 2.61489L94.8384 2.61482L94.8384 2.61474L94.8384 2.61462L94.8385 2.61447L94.8385 2.61428L94.8386 2.61422L94.8386 2.61416L94.8386 2.61412V2.61409C95.0489 1.93966 95.2578 1.26973 95.6111 0.723633C96.8515 1.10527 97.7732 2.26069 98.55 3.23448L98.6611 3.37364C99.4222 3.78877 98.2924 7.36337 97.4411 10.0567L97.4411 10.0568L97.4411 10.0568C97.062 11.2561 96.7382 12.2807 96.6611 12.7736C95.1078 20.468 91.8059 24.2998 87.8678 28.8698L87.8677 28.8699L87.8677 28.87L87.8676 28.87L87.8674 28.8703L87.8672 28.8704L87.8671 28.8706C86.3546 30.6258 84.7483 32.4899 83.1111 34.7236C78.0611 41.4236 77.7611 50.1736 79.1111 58.1236C79.0902 58.333 79.2796 58.6124 79.4518 58.8665C79.691 59.2194 79.8972 59.5236 79.4611 59.5236C75.7853 57.8567 75.5075 53.8878 75.2544 50.272C75.2115 49.658 75.1692 49.0542 75.1111 48.4736ZM59.0612 40.9737C60.0612 45.3237 60.1612 49.8237 59.6112 54.2237C59.2112 56.4237 58.9612 58.2237 61.3112 59.3737C64.5112 53.0237 63.0611 45.0237 61.6611 38.1737C60.9384 34.332 59.76 30.5844 58.5826 26.84C56.6646 20.7401 54.7492 14.6489 54.8112 8.17372C54.1112 7.07372 53.0111 5.57373 51.6611 5.32373C51.5615 5.78868 51.5501 6.29774 51.539 6.79232V6.79239V6.79245V6.79251V6.79258V6.79264V6.7927V6.79277V6.79283V6.79289V6.79295V6.79301V6.79308V6.79314V6.7932V6.79326V6.79332V6.79339V6.79345V6.79351V6.79357V6.79363V6.79369V6.79375C51.5334 7.04329 51.5279 7.28912 51.5111 7.52373C51.3214 13.0265 53.0219 18.3042 54.6912 23.485L54.6939 23.4935C54.7832 23.7705 54.8724 24.0473 54.9611 24.3237C56.7611 29.7237 57.9612 35.3737 59.0612 40.9737ZM83.2611 79.3237C83.2611 81.7737 83.9611 83.8237 86.4111 84.8737H86.4611C86.7176 84.8737 86.6246 84.3805 86.5381 83.921C86.4896 83.6638 86.4432 83.4172 86.4611 83.2737C85.9611 78.3237 85.3111 73.2237 82.7111 68.8737C77.6111 60.4737 69.4111 53.2737 60.0111 60.5737C56.2111 63.1737 53.3112 66.9737 51.3112 71.1237C51.1546 71.562 50.9349 72.0612 50.6998 72.5956C49.8084 74.6215 48.6951 77.1515 49.9611 78.7737C49.9912 78.7963 50.0384 78.8359 50.0962 78.8845C50.4223 79.1585 51.0885 79.7182 50.9611 79.1237C51.4111 73.7237 55.1112 68.9237 58.8112 65.2237C69.3112 55.7237 77.9111 58.9237 82.1111 71.9737C82.8111 74.3737 83.0611 76.8237 83.2611 79.3237ZM60.4692 67.3918C60.4226 67.5612 60.3781 67.7233 60.3111 67.8238C60.0121 69.1695 61.7003 70.2668 62.7015 70.9176L62.7111 70.9238C62.9674 70.8725 63.0398 70.5584 63.1168 70.224C63.19 69.9062 63.2674 69.57 63.5111 69.4238C63.2611 68.2738 61.9611 67.2738 60.9611 66.7238C60.6618 66.6905 60.5616 67.0554 60.4692 67.3918ZM75.2611 71.5237C73.8111 70.6237 71.7611 69.1737 72.1611 67.2737C72.1737 67.211 72.1768 67.1357 72.1799 67.0597C72.1893 66.8326 72.1989 66.5988 72.4611 66.6737C74.1611 67.5737 75.8111 69.2237 75.5111 71.3237C75.5111 71.4737 75.4611 71.5237 75.3611 71.5237H75.2611ZM39.3611 131.174C40.0611 133.024 42.111 135.324 44.011 135.924C45.061 137.374 46.3111 138.874 47.9611 139.724C49.6111 139.424 45.461 135.074 44.761 134.474C44.6361 134.373 44.4808 134.243 44.3021 134.094L44.3011 134.094C42.9774 132.991 40.374 130.821 39.3611 131.174ZM58.211 131.324C56.8315 130.603 56.0964 129.73 55.4121 128.917C54.4347 127.756 53.5609 126.718 51.0611 126.424C44.8611 121.274 52.711 123.774 54.961 126.274C55.511 126.724 59.811 131.324 58.211 131.324ZM57.2611 112.074C59.4611 112.174 61.1611 112.824 62.9611 114.274C63.5483 114.687 64.022 115.242 64.4974 115.799C65.1149 116.523 65.7353 117.25 66.6111 117.674C68.2611 117.224 61.611 111.224 60.5111 111.024C58.611 109.774 53.2611 108.724 57.2611 112.074ZM75.711 102.774C75.6777 102.774 75.611 102.757 75.511 102.724C72.211 100.324 63.3111 94.9238 59.611 98.1238C56.861 96.6738 57.561 94.6738 60.511 94.3238C62.261 94.1238 64.0611 94.5738 65.8111 95.0738C69.7611 96.0738 73.461 98.3238 75.711 101.874C75.911 102.074 76.161 102.774 75.761 102.774H75.711ZM38.9111 100.624C38.9445 100.657 38.9778 100.674 39.0111 100.674C39.1611 100.674 39.1611 100.474 39.1111 100.324C38.1781 98.3765 36.2246 97.5813 34.3457 96.8165C33.9089 96.6386 33.4762 96.4625 33.0612 96.2738C30.2612 95.1238 27.4611 93.2738 26.1611 90.4738C25.9611 90.0738 26.3612 90.1738 26.5612 90.3238C27.5962 90.8413 28.6256 91.3727 29.6554 91.9042L29.6556 91.9042L29.6556 91.9043C33.0036 93.6323 36.355 95.362 39.9111 96.6238C40.0611 96.6238 40.511 96.8238 40.961 97.0238L40.9611 97.0238L41.1117 97.0843C41.8137 97.367 42.5011 97.6438 42.3611 97.2238C41.5611 95.6238 40.2111 93.8238 38.5111 93.2238C34.182 91.9612 30.1783 89.9258 26.1697 87.8879L26.1696 87.8878L26.1681 87.8871L26.1665 87.8863L26.165 87.8855L26.1645 87.8853L26.164 87.885L26.1635 87.8848L26.163 87.8845L26.1625 87.8842L26.162 87.884L26.1615 87.8837L26.161 87.8835L26.1606 87.8832C25.7276 87.6631 25.2946 87.443 24.8611 87.2238C24.6995 87.1797 24.4989 87.0665 24.2861 86.9464C23.7751 86.6579 23.1935 86.3296 22.9111 86.8238C23.4315 89.2953 25.3055 91.3157 27.0331 93.1782L27.0333 93.1783L27.034 93.1792L27.0361 93.1814L27.0372 93.1826C27.3004 93.4663 27.5601 93.7464 27.8112 94.0238C30.8112 97.3238 34.8111 99.1738 38.9111 100.624ZM19.4612 102.924C17.4112 99.0737 16.0112 92.2737 21.7612 98.6737C27.4085 104.188 30.947 104.586 33.6589 104.89C36.0612 105.16 37.8148 105.357 39.8112 108.974C39.9612 109.174 39.9612 109.624 39.5612 109.424C32.8612 109.224 27.1112 105.474 22.4112 100.974L21.6612 100.224C21.3386 100.731 21.3983 101.407 21.4487 101.98C21.453 102.029 21.4573 102.077 21.4612 102.124C21.7273 106.515 25.6131 108.152 29.1747 109.652L29.1759 109.652L29.1775 109.653C29.63 109.844 30.0772 110.032 30.5112 110.224C31.0612 110.424 33.8112 113.074 32.8612 113.274C27.4112 111.374 22.2112 108.174 19.4612 102.924ZM11.561 109.974C13.211 116.074 18.111 120.824 23.811 123.374C24.611 123.374 22.911 121.624 22.611 121.324C21.6256 120.607 20.7053 120.046 19.8632 119.532L19.8631 119.532C16.9453 117.753 14.9654 116.546 14.461 111.424C19.311 116.374 25.811 121.624 33.211 120.574C33.511 120.624 33.361 120.274 33.311 120.174C32.1398 118.222 31.1591 118.223 29.811 118.224L29.711 118.224C29.111 118.274 28.511 118.274 27.761 118.124C23.261 117.424 19.261 114.724 15.961 111.674C15.4752 111.188 15.0375 110.648 14.6 110.108L14.5999 110.108C13.7766 109.092 12.9537 108.077 11.811 107.424C10.8255 107.013 11.2227 108.592 11.4515 109.502C11.5013 109.7 11.5432 109.867 11.561 109.974ZM21.6611 168.074C21.4944 168.074 21.3278 168.057 21.1611 168.024C15.5611 164.674 14.6111 157.174 16.4611 151.374C16.5911 151.07 16.5708 151.068 16.3676 151.04L16.3432 151.036L16.3172 151.033L16.2958 151.029L16.2611 151.024C12.5111 149.824 8.7611 148.324 5.3611 146.374C3.7111 145.224 -0.738913 141.924 0.661087 139.724C2.11109 138.024 4.5611 138.424 6.8611 138.824L7.01962 138.848L7.01979 138.848C7.9616 138.989 8.85617 139.124 9.66109 139.124C12.4111 139.424 15.2111 139.074 17.9111 138.574C19.2718 138.222 20.6876 138.134 22.0913 138.047H22.0916C23.6793 137.949 25.2515 137.851 26.7111 137.374C27.0482 136.301 27.7799 135.397 28.5146 134.49C28.9785 133.917 29.4435 133.343 29.8111 132.724C30.6185 131.874 30.5952 130.916 30.5701 129.88C30.5656 129.697 30.5611 129.511 30.5611 129.324C30.9444 127.431 32.6818 126.514 34.4044 125.605C36.2774 124.617 38.1329 123.638 38.2111 121.424C38.1512 121.085 38.0675 120.755 37.9861 120.435L37.986 120.435C37.6594 119.151 37.3703 118.014 38.8111 116.974C39.3623 116.401 39.9202 115.91 40.442 115.45C42.3816 113.742 43.8219 112.473 42.5611 109.124C42.6978 107.565 43.6868 106.381 44.6776 105.194C45.4988 104.21 46.3212 103.225 46.6611 102.024C46.7879 101.421 46.412 100.939 46.0307 100.451C45.8108 100.169 45.5891 99.8847 45.4611 99.5738C44.0111 96.7738 46.5111 93.8238 48.2611 91.7738C48.3575 91.6581 48.4762 91.5573 48.5943 91.457C48.7824 91.2972 48.969 91.1388 49.0611 90.9238C49.1611 90.6238 49.8111 91.1738 49.9111 91.2738C50.8111 91.9738 51.9111 92.8738 52.2111 93.9738C52.2111 94.0738 52.1611 94.0738 52.0612 94.0738H52.0611C51.9514 94.0006 51.8417 94.088 51.7515 94.1598C51.7184 94.1861 51.688 94.2104 51.6611 94.2238C46.7318 99.0267 47.5335 100.695 48.2235 102.13C48.6253 102.966 48.9892 103.722 48.1611 104.974C44.2056 109.314 44.566 110.968 44.865 112.34C45.1103 113.465 45.3142 114.401 43.0611 116.474C39.4032 119.698 39.5699 120.289 39.8912 121.428C40.0881 122.126 40.3431 123.031 39.8111 124.874C39.066 125.991 37.738 126.714 36.4243 127.428C34.2116 128.631 32.0395 129.812 32.7611 132.824C32.5209 133.976 31.7965 134.933 31.0695 135.893C30.2828 136.932 29.493 137.974 29.3111 139.274C29.3471 140.316 28.1167 140.351 27.0507 140.381C26.6339 140.393 26.2422 140.404 25.9611 140.474C23.8791 140.62 21.8504 141.06 19.8167 141.5L19.8164 141.5C19.0663 141.663 18.3155 141.826 17.5611 141.974C16.1983 142.491 13.9522 142.301 11.6944 142.11C11.5499 142.098 11.4054 142.086 11.2611 142.074L11.0082 142.052C7.59398 141.758 4.23942 141.47 3.3611 143.324C3.3611 143.524 3.3611 143.774 3.6111 143.824C5.70665 145.003 7.95466 145.876 10.1887 146.745C10.5133 146.871 10.8376 146.997 11.1611 147.124C11.9869 147.487 12.8781 147.714 13.7646 147.94L13.7647 147.94C15.5618 148.397 17.3391 148.85 18.5111 150.424C20.1014 151.787 19.606 153.614 19.1036 155.466C18.8321 156.468 18.5585 157.476 18.6111 158.424C18.4111 160.674 18.7111 163.024 19.6611 165.174C21.2795 165.405 23.069 164.097 24.4758 163.068C24.5902 162.985 24.7021 162.903 24.8111 162.824C27.0652 161.062 28.681 158.728 30.2919 156.402L30.2926 156.401L30.2928 156.401C30.6469 155.889 31.0008 155.378 31.3611 154.874C32.3611 153.074 34.2111 152.174 36.2611 152.274C43.8611 152.924 53.6611 153.074 56.4611 144.274C56.925 144.094 57.4148 143.922 57.9146 143.747L57.9151 143.747L57.9152 143.747L57.9154 143.747C60.7554 142.751 63.9234 141.64 64.5611 138.324C64.7709 134.787 66.0405 133.676 67.5408 132.363C68.5436 131.485 69.6496 130.517 70.6111 128.674C71.8517 126.49 72.058 123.962 72.2565 121.529L72.2611 121.474C72.7913 120.453 73.3461 119.548 73.879 118.68C75.356 116.271 76.6641 114.138 76.8111 110.574C76.5479 108.666 77.8001 107.45 79.0578 106.229L79.0579 106.229C79.7115 105.595 80.3665 104.959 80.8111 104.224C82.8611 101.274 82.5111 97.4738 81.3611 94.2238C81.2611 93.9738 81.1111 93.4738 81.6111 93.7738C85.4111 96.5738 85.3611 103.074 82.7611 106.724C81.8543 107.69 81.1699 108.369 80.6466 108.888L80.6465 108.888L80.6464 108.888L80.6464 108.888L80.6463 108.888L80.6463 108.888L80.6463 108.888L80.6462 108.888L80.6462 108.888L80.6461 108.888L80.6461 108.888L80.646 108.888C79.8486 109.679 79.4253 110.099 79.159 110.602C78.8578 111.171 78.7573 111.846 78.5432 113.285C78.4478 113.926 78.3297 114.72 78.1611 115.724C77.9095 117.485 76.9547 118.933 76.0043 120.375C75.2547 121.512 74.5079 122.645 74.1111 123.924C74.0611 126.624 73.4611 129.424 72.0111 131.724C71.0611 133.224 69.8111 134.474 68.5611 135.724C67.4239 136.684 67.2957 138.04 67.1631 139.444C67.0333 140.817 66.8992 142.236 65.8111 143.374C64.6785 144.806 62.991 145.417 61.3254 146.021C60.491 146.323 59.662 146.623 58.9111 147.024C57.8111 151.924 52.8611 154.524 48.2111 155.124C46.5611 155.524 44.6111 155.274 42.6611 155.024C39.4611 154.624 36.2611 154.224 34.3611 156.524C34.0113 157.035 33.6316 157.619 33.2235 158.246C30.5985 162.281 26.798 168.124 22.2111 168.124C22.0444 168.124 21.8611 168.107 21.6611 168.074ZM32.3611 165.624C33.6611 167.674 35.7611 169.524 38.2111 169.874C38.3444 169.907 38.4778 169.924 38.6111 169.924C40.8611 169.924 41.3611 167.124 41.3111 165.274C41.3045 165.123 41.2984 164.969 41.2923 164.813C41.2071 162.637 41.1038 160 38.9111 158.974C38.5111 158.774 38.6611 159.124 38.7611 159.274C39.2611 161.974 39.3111 167.324 35.4611 167.124C35.4611 166.767 35.4871 166.424 35.5125 166.087C35.5371 165.762 35.5611 165.443 35.5611 165.124C35.0611 164.124 34.1111 163.424 33.2111 162.774C33.1525 162.735 33.0881 162.686 33.0194 162.634C32.7371 162.421 32.3829 162.153 32.0612 162.274C31.9111 163.324 31.9111 164.624 32.3611 165.624ZM17.3111 137.474C7.66115 131.974 13.8611 123.924 21.7111 132.174C22.0111 132.374 25.6111 136.674 23.9611 135.824C22.9285 135.389 22.2947 134.496 21.6663 133.612C21.1384 132.868 20.6144 132.13 19.8611 131.674C17.0611 130.924 15.4611 133.974 16.9111 136.174C16.9279 136.275 17.0576 136.454 17.1977 136.649C17.4748 137.033 17.7928 137.474 17.3611 137.474H17.3111ZM17.311 144.824C17.911 146.074 19.311 147.024 20.561 147.574H20.661C20.711 147.574 20.811 147.574 20.811 147.474C21.4119 147.113 22.0769 146.785 22.729 146.463C22.8909 146.383 23.0519 146.303 23.211 146.224C23.2296 146.218 23.2474 146.212 23.2643 146.207C23.3835 146.171 23.4548 146.149 23.411 145.974C22.811 145.124 21.811 144.274 20.811 143.974C20.2923 144.045 19.7847 144.204 19.2777 144.364L19.2775 144.364C18.7095 144.543 18.1422 144.721 17.561 144.774C17.461 144.724 17.361 144.724 17.311 144.824ZM21.9111 148.324C22.6884 148.324 23.4384 148.022 24.1812 147.724C24.4417 147.619 24.7014 147.515 24.9611 147.424C25.8111 147.724 26.8111 148.474 27.2111 149.324C26.4111 149.824 25.4111 150.424 24.4111 150.524C23.5611 150.174 22.1111 149.174 21.9111 148.324ZM25.3166 154.709C24.8748 155.138 24.4219 155.578 23.9111 155.874C24.2611 156.474 25.0111 156.974 25.6111 157.224C26.3296 156.972 26.919 156.334 27.4721 155.735C27.6889 155.5 27.9 155.271 28.1111 155.074C27.8111 154.424 27.1111 153.974 26.4611 153.724C26.0682 153.978 25.6966 154.339 25.3167 154.708L25.3166 154.709ZM38.9111 148.924C36.2901 147.881 35.6071 146.695 34.9191 145.501C34.3866 144.576 33.851 143.646 32.4111 142.774C29.6611 140.924 29.7611 139.574 32.8611 141.874C33.2638 142.215 33.6788 142.552 34.0961 142.891L34.0964 142.891L34.0977 142.892L34.0991 142.893L34.1005 142.894C36.0651 144.489 38.0807 146.124 39.1111 148.474C39.2111 148.674 39.2611 148.924 39.0111 148.924H38.9111ZM110.661 102.024C107.411 107.124 101.211 109.624 95.5611 111.124C93.7611 111.124 96.1111 113.224 96.7111 113.624C102.361 112.224 108.311 109.624 112.011 105.024C112.065 104.941 112.12 104.859 112.175 104.775L112.278 104.62C113.073 103.426 113.946 102.115 113.811 100.724C113.211 99.3237 111.711 97.3736 110.011 98.3736C109.277 98.6594 108.541 98.952 107.802 99.2457C101.943 101.574 95.9044 103.973 89.5111 103.574C88.0111 103.074 90.6111 106.074 91.0111 106.374C93.5611 109.524 107.361 103.674 110.661 102.024ZM85.2112 125.374C85.7612 125.274 86.3612 125.324 86.9112 125.374C87.0651 125.374 87.2131 125.38 87.3573 125.385C87.6348 125.396 87.898 125.407 88.1612 125.374C88.2872 125.368 88.5705 125.363 88.9718 125.356C92.2326 125.3 103.282 125.11 101.011 123.374C99.8655 122.558 98.0111 122.203 96.1272 121.841C93.16 121.273 90.1199 120.69 89.6612 118.274C90.2612 118.574 90.9112 118.774 91.5612 118.924C91.9477 118.998 92.3486 119.07 92.7591 119.144C97.0743 119.922 102.452 120.893 103.411 125.824C102.748 127.465 100.278 127.545 98.1343 127.615H98.1342C97.2089 127.645 96.3442 127.673 95.7112 127.824C94.9112 127.881 94.1111 127.954 93.3111 128.028C91.3112 128.211 89.3112 128.395 87.3112 128.324C86.4112 127.624 85.4612 126.524 85.2112 125.374ZM86.9612 145.374C86.9945 145.407 87.0446 145.424 87.1112 145.424C87.5112 145.49 87.8612 145.524 88.1612 145.524C92.6612 145.724 89.0112 141.524 86.8112 139.624C85.4841 138.417 84.3208 137.047 83.1675 135.689L83.1674 135.689L83.1674 135.689L83.1673 135.689L83.1672 135.688C82.4088 134.795 81.6547 133.907 80.8612 133.074C80.6112 132.874 80.4612 133.074 80.5612 133.324C81.9129 135.589 83.7717 137.56 85.6112 139.511L85.6115 139.511C86.2895 140.23 86.9649 140.947 87.6112 141.674C88.0186 141.918 87.8285 141.997 87.5819 142.099L87.5817 142.099L87.5816 142.099C87.5256 142.122 87.4667 142.146 87.4112 142.174C84.0339 142.596 80.8922 140.838 77.8957 139.162L77.8956 139.162L77.8955 139.162L77.8953 139.162L77.8952 139.161C76.9881 138.654 76.0942 138.154 75.2112 137.724C74.8024 137.724 75.3428 138.714 75.4825 138.971L75.4982 138.999C75.5042 139.01 75.5086 139.019 75.5112 139.024C77.6691 142.812 82.4027 144.117 86.4476 145.232L86.4558 145.234L86.7703 145.321L86.9612 145.374ZM41.9611 86.9736C37.3111 85.1236 25.9111 76.0736 31.4111 70.7736C33.0958 69.6665 35.0122 68.9301 36.8927 68.2076L37.1111 68.1236C38.8111 67.4736 40.5611 68.3736 41.8611 69.5236C42.2611 69.8236 45.8111 73.6236 45.3611 73.8236C44.4111 73.5736 43.6111 72.8236 42.9611 72.1236C42.7346 71.9349 42.5152 71.5965 42.2895 71.2483C41.9173 70.6742 41.528 70.0736 41.0611 70.0736C38.8611 70.4236 36.0611 72.3236 34.5611 74.0236C32.8111 76.8236 34.8111 80.2736 36.8111 82.4236C37.3873 83.0822 38.1292 83.4847 38.8715 83.8875C39.4817 84.2186 40.0922 84.5499 40.6111 85.0236C40.9111 85.2736 43.0111 87.0236 41.9611 86.9736ZM94.761 92.0738C95.261 93.1238 96.411 93.9238 97.461 94.3738C101.261 93.0738 103.911 89.3238 103.361 85.2238C103.297 84.7632 103.305 84.2572 103.312 83.7427C103.327 82.6374 103.343 81.4926 102.661 80.6738C102.011 80.0238 101.161 79.3238 100.161 79.5238C99.4803 79.5919 98.7885 79.6451 98.0926 79.6986C96.2327 79.8418 94.3439 79.9871 92.561 80.4238C92.5376 80.4355 92.5004 80.4472 92.4592 80.4602C92.3244 80.5027 92.1461 80.5589 92.261 80.6738C92.8415 81.6534 93.8432 81.5272 94.8268 81.4034C95.1987 81.3566 95.568 81.3101 95.911 81.3238C96.4922 81.3238 97.0956 81.3072 97.7008 81.2906L97.7015 81.2906H97.7016H97.7017C98.9183 81.2572 100.143 81.2236 101.211 81.3238C101.511 84.7738 101.311 88.5238 97.961 90.4738C97.3824 90.9001 96.6925 91.1966 96.0157 91.4875C95.5811 91.6743 95.1519 91.8587 94.761 92.0738ZM108.811 83.5737C107.611 82.9737 106.311 81.9737 105.811 80.7237C106.089 80.3874 106.371 80.0521 106.654 79.7161L106.654 79.7158C108.305 77.7537 109.979 75.7642 110.961 73.3737C114.061 64.9237 114.911 52.7737 110.661 44.6237C107.211 45.5237 103.261 52.2737 102.361 55.6237C102.261 55.7901 102.189 56.0839 102.111 56.4C101.956 57.0337 101.778 57.7571 101.311 57.7237C99.6862 56.898 98.5013 55.4905 97.3102 54.0756C96.2655 52.8347 95.2161 51.5882 93.8611 50.7237C91.1111 49.4237 92.3111 63.7737 92.8611 65.2737C93.6111 68.7737 94.661 72.3737 96.911 75.2737C96.911 75.289 96.9204 75.3184 96.932 75.3547C96.9582 75.4369 96.9957 75.5544 96.961 75.6237C94.111 74.7737 92.511 71.0237 91.461 68.4737C89.161 62.4737 87.811 54.5237 89.911 48.3237C91.273 46.3716 96.6335 52.1279 98.5068 54.1395C98.6966 54.3433 98.8506 54.5087 98.961 54.6237C100.261 49.8237 102.861 44.6737 107.411 42.2237C109.119 41.7161 110.571 43.2532 111.688 44.4366C111.738 44.489 111.787 44.5408 111.835 44.5917C111.878 44.6364 111.92 44.6805 111.961 44.7237C113.511 46.5237 114.361 48.7737 115.111 51.0237C116.911 56.8737 116.811 63.1237 116.011 69.1237C115.461 73.8737 113.911 78.5737 110.461 81.9737C110.028 82.4737 109.594 82.9571 109.161 83.4237C109.011 83.5737 108.961 83.5737 108.811 83.5737ZM26.7112 63.3236C27.4612 65.5236 28.4112 67.8736 30.7612 68.8236C31.1612 68.9236 30.9612 68.4236 30.8112 68.2736C28.7612 64.2236 27.2612 59.7736 26.7112 55.2736C25.8612 48.8236 28.1612 39.4236 32.6112 34.6236C33.6183 37.3618 34.3878 40.1593 35.1564 42.9539C35.6088 44.5991 36.061 46.2432 36.5612 47.8736C36.8612 48.7236 39.0612 51.2236 39.8612 49.9736C42.0612 47.7236 44.9612 45.9236 48.2112 45.7236C49.4612 50.8736 48.3112 56.9736 44.4612 60.7736C44.6112 61.7736 45.9612 62.6736 46.8112 63.1736C47.0612 63.3736 47.2612 63.1236 47.4112 62.9236C51.0612 58.5736 53.4112 47.3736 47.5112 44.0736C44.7612 42.8736 40.4612 45.5236 38.3112 47.1736C38.0446 46.2238 37.7835 45.2684 37.5225 44.313C37.0002 42.4017 36.4779 40.4905 35.9112 38.6236C35.2112 36.2736 34.2112 33.8236 32.0612 32.4236C28.2112 29.1236 24.3112 43.1236 23.9612 45.7236C22.9112 51.7236 24.4612 57.7736 26.7112 63.3236Z" fill="black"/>
</svg>
