<svg width="147" height="133" viewBox="0 0 147 133" fill="none" xmlns="http://www.w3.org/2000/svg">
<path fill-rule="evenodd" clip-rule="evenodd" d="M86.2425 16.2237C86.8425 12.9237 88.3425 9.7737 90.4425 7.1237C92.9425 3.9237 96.7925 2.32369 100.493 0.973694C100.639 0.941175 100.785 0.871643 100.93 0.802927L100.93 0.802918C101.23 0.660328 101.523 0.521256 101.793 0.723694C102.543 1.17369 103.393 1.72369 103.743 2.57369C103.493 2.72369 103.205 2.83619 102.918 2.94869C102.63 3.06119 102.343 3.17369 102.093 3.32369C94.9425 5.72369 89.4925 11.5737 88.3925 18.9237C87.3925 18.4237 85.8925 17.5737 86.2425 16.2237ZM68.3425 43.2238C67.1925 42.7738 60.8425 38.8238 64.2925 38.2238C65.3925 38.1238 71.8425 42.0738 70.0425 43.0238C69.8425 43.3738 69.5925 43.5238 69.2925 43.5238C68.9925 43.5238 68.6425 43.3738 68.3425 43.2238ZM102.243 11.5237C98.6927 11.9737 94.9927 14.1737 92.6427 16.9737C91.1427 18.8237 90.7427 19.5737 93.1427 20.7737C94.9427 16.9737 99.0927 14.7737 103.093 13.5737C103.186 13.5177 103.335 13.4896 103.487 13.4608C103.744 13.4123 104.011 13.3618 104.043 13.1737C103.643 12.4737 102.893 11.9237 102.243 11.5237ZM132.443 114.624C113.243 111.274 106.093 90.4736 104.393 73.4236C104.164 72.0543 103.957 70.6615 103.749 69.2581C102.631 61.7454 101.469 53.9325 96.7926 47.8236C93.2426 44.4236 87.0926 46.6736 84.0426 49.7236C83.9748 49.7999 83.9041 49.8762 83.8327 49.9532L83.8325 49.9535C83.483 50.3307 83.1172 50.7254 82.9926 51.2236C82.9426 51.2736 82.8927 51.2736 82.8427 51.2736C82.0927 50.9736 81.3926 50.4236 80.9426 49.8236C83.0926 44.8236 90.9926 42.4236 95.4926 45.9236C104.333 52.5208 106.079 64.1014 107.78 75.3822C108.657 81.2007 109.522 86.9395 111.343 91.8736C113.043 97.7236 116.143 103.224 120.243 107.774C125.143 111.074 131.693 111.774 137.443 110.874C138.102 110.812 138.77 110.648 139.44 110.484L139.44 110.484C140.395 110.25 141.352 110.015 142.293 110.074C143.843 110.874 145.443 112.024 146.393 113.524C144.043 114.674 141.093 115.174 138.143 115.174C136.193 115.174 134.193 114.924 132.443 114.624ZM113.459 50.6651C116.275 63.0171 118.943 74.714 134.643 75.5237C134.709 75.557 134.759 75.5737 134.793 75.5737C135.043 75.5737 134.793 75.1237 134.693 75.0237C133.2 72.8833 130.835 72.5354 128.446 72.1842C126.594 71.9118 124.728 71.6374 123.243 70.5237C119.823 65.9467 118.545 60.4044 117.268 54.8625C116.061 49.628 114.854 44.3939 111.843 39.9737C107.443 33.9237 98.9927 32.0737 92.2427 35.0737C89.5427 36.4737 87.0927 37.8237 91.1927 39.5737C93.3427 36.2737 98.0927 35.7237 101.743 35.7237C109.093 35.4737 110.943 40.3237 112.493 46.5237C112.829 47.9021 113.144 49.2864 113.458 50.6627L113.458 50.6632L113.458 50.6637L113.458 50.6641L113.459 50.6646L113.459 50.6651ZM62.8927 86.1736C57.4427 85.7736 52.9427 81.4736 49.9927 77.2236C50.0427 77.0236 50.3927 77.1736 50.4927 77.2236C52.4049 77.9091 53.6402 79.4017 54.8749 80.8935C55.3513 81.4691 55.8276 82.0446 56.3427 82.5736C58.6927 83.6236 61.1927 82.8736 63.2927 81.6736C64.8427 82.1236 66.4927 83.2736 67.2927 84.6736C66.0927 85.5236 64.5427 86.1736 63.0427 86.1736H62.8927ZM61.0425 70.5236C63.5425 72.6236 66.6925 74.6236 70.0425 75.0236H70.4925C72.5633 75.0236 71.4726 74.213 70.3224 73.3581C70.1951 73.2635 70.067 73.1683 69.9425 73.0736C69.3898 72.6591 68.71 72.7113 68.0591 72.7611C68.0033 72.7654 67.9477 72.7697 67.8925 72.7736L67.871 72.7751C67.1792 72.8246 66.5363 72.8706 65.9425 72.5736C65.5425 72.6236 64.4425 72.0736 63.4425 71.4736L63.2837 71.3879L63.1859 71.3349L63.0229 71.2464L63.0226 71.2463C61.8964 70.6347 60.9534 70.1227 61.0425 70.5236ZM78.9425 68.1736C75.6425 68.0236 71.5425 65.6236 69.8425 62.9736C70.4473 63.2668 70.9848 63.6944 71.5242 64.1233C72.4564 64.8647 73.3938 65.6103 74.6925 65.6736C76.2925 65.6236 77.6425 66.1236 78.6925 67.3736C78.8425 67.5236 79.4925 68.1736 78.9925 68.1736H78.9425ZM40.9426 99.1237C41.5926 99.1237 42.2426 99.1237 42.8426 99.3737C44.2426 99.7737 45.6426 99.9737 47.0426 99.9737C48.0426 99.9737 49.0426 99.857 50.0426 99.6237C50.5426 98.7237 47.1926 96.5737 46.3426 96.2237C45.8014 96.2562 45.2579 96.3051 44.7125 96.3541L44.712 96.3541C42.7383 96.5316 40.7404 96.7113 38.7426 96.1237C34.1426 95.2737 36.5926 97.1237 38.7426 98.6237C39.3926 99.1237 40.1426 99.1237 40.9426 99.1237ZM53.3427 94.0737C49.5927 93.3737 45.6426 91.0737 43.4426 87.9737C44.1934 87.6665 45.3168 88.5473 46.2724 89.2964C46.7169 89.6449 47.1251 89.9649 47.4426 90.1236C48.3426 90.5237 49.3426 90.4737 50.2926 90.4237C51.0926 90.3737 51.8926 90.3737 52.6426 90.5737C54.8426 91.8737 58.4926 94.1737 55.1426 94.1737C54.7093 94.207 54.1093 94.1737 53.3427 94.0737ZM38.5927 60.4238C37.4927 58.9738 35.8927 57.1738 34.0427 56.8738C33.1926 61.9238 39.7926 66.5238 44.1926 67.4738C45.4426 67.2738 41.8427 64.4238 41.2927 64.1238C40.943 63.844 40.4737 63.7382 40.0116 63.634C39.4826 63.5146 38.9629 63.3974 38.6427 63.0238C38.621 62.8828 38.5898 62.7347 38.558 62.5831C38.4431 62.036 38.3186 61.4436 38.5927 60.9738C38.7427 60.7738 38.6927 60.6238 38.5927 60.4238ZM23.4426 67.1237C24.0236 66.9301 24.9646 67.7565 25.6381 68.348C25.8341 68.5201 26.0074 68.6723 26.1426 68.7737C26.6418 69.1678 26.6854 69.7552 26.7305 70.3617C26.7711 70.9095 26.813 71.4729 27.1926 71.9237C27.4107 72.4962 27.9558 72.5187 28.5281 72.5424C29.0054 72.5621 29.5016 72.5826 29.8427 72.9237C30.3927 73.2237 33.5426 75.4237 32.5426 75.7737C28.4426 75.2237 23.5426 71.6237 23.4426 67.1237ZM13.1926 85.9236C11.2926 85.4236 14.6927 88.5236 15.0927 88.8236C17.2927 90.5236 19.7426 92.1236 22.4426 92.8236C23.9426 92.6236 19.7427 89.3736 19.1427 89.1236C18.6333 88.8019 18.0807 88.6527 17.539 88.5064C17.0705 88.3798 16.6101 88.2555 16.1926 88.0236C16.0002 87.8717 15.8098 87.7156 15.6189 87.5592C14.8677 86.9435 14.1097 86.3223 13.1926 85.9236ZM20.7925 107.324C11.6425 106.824 6.44255 96.5736 13.5926 103.674C14.1408 103.769 14.6497 103.841 15.1286 103.908C17.4017 104.227 19.0015 104.452 20.9425 106.724C21.1425 106.924 21.3425 107.324 20.9925 107.324H20.7925ZM1.29256 109.174C5.34257 121.674 17.5426 131.124 30.5926 132.424C31.7592 132.524 32.9426 132.574 34.1426 132.574C36.0926 132.574 37.9926 132.474 39.9426 132.324L39.9735 132.322H39.9737C43.6136 132.122 47.3025 131.92 50.7926 130.774C51.3871 130.501 52.0308 130.364 52.6689 130.227L52.6691 130.227C53.3187 130.089 53.9624 129.951 54.5426 129.674C54.2926 129.124 53.6926 128.574 53.0926 128.374C52.1305 128.681 51.1092 128.693 50.0743 128.705C49.7645 128.709 49.4536 128.712 49.1426 128.724C45.4426 128.974 41.7426 129.024 38.0426 128.874C30.7926 128.774 23.2926 128.624 16.6426 125.424C14.4926 124.424 12.3426 123.224 10.8426 121.374C8.64258 118.574 7.19258 115.174 6.34258 111.774C5.78091 108.666 5.55574 105.502 5.33107 102.345C5.25574 101.286 5.18047 100.228 5.09258 99.1736C4.79258 86.7736 14.0426 68.9736 22.8926 60.5236C29.3926 54.7736 36.8926 50.3236 44.3926 46.1236C47.4466 44.4133 50.4819 42.6844 53.51 40.9597L53.5101 40.9596L53.5102 40.9596L53.5103 40.9595L53.5124 40.9583L53.5182 40.955L53.5183 40.955L53.5183 40.955C55.445 39.8575 57.3688 38.7618 59.2926 37.6736C61.1705 36.6285 63.0645 35.6207 64.957 34.6137L64.9571 34.6136C68.8592 32.5373 72.7552 30.4642 76.4926 28.0736V28.1236C77.2426 44.5236 68.8926 51.7236 56.9926 61.1236C47.8926 67.9236 38.7426 74.9736 31.7426 84.0736C30.4926 85.6736 29.2926 87.2736 28.3426 89.0736C28.4426 89.9236 30.2926 91.2736 31.0926 91.5736C31.2734 91.6459 31.3495 91.5352 31.4346 91.4117C31.4672 91.3643 31.501 91.3151 31.5426 91.2736C31.859 90.8739 32.1699 90.4741 32.4809 90.0744L32.4815 90.0735C33.1037 89.2736 33.7259 88.4736 34.3926 87.6736C37.0426 84.3736 39.8926 81.2236 42.9426 78.2236C46.9523 74.2574 51.418 70.8042 55.8842 67.3505C61.6652 62.88 67.4472 58.4088 72.2426 52.8236C75.4926 49.1236 77.6926 44.6236 78.7926 39.8236C79.7426 35.3736 79.9926 30.7236 79.6426 26.2236C79.048 25.0345 77.8643 24.1891 76.8212 23.444L76.7926 23.4236C76.3926 23.1736 75.9426 22.9236 75.4926 23.0736C74.5598 23.4128 73.6629 23.9318 72.7715 24.4476L72.7713 24.4477L72.7711 24.4478C72.6115 24.5402 72.452 24.6325 72.2926 24.7236C68.2137 27.2181 63.9758 29.4399 59.7321 31.6647C57.6812 32.7399 55.6289 33.8158 53.5926 34.9236C50.4786 36.7427 47.2159 38.484 43.9199 40.243L43.9197 40.2431C31.8151 46.703 19.2629 53.4018 11.9926 65.0736C5.79258 74.3736 -0.00741685 85.0236 0.0925831 96.5236C0.177393 97.7109 0.218246 98.9103 0.2592 100.113C0.363111 103.163 0.46767 106.233 1.29256 109.174ZM60.3925 123.124C64.3925 122.924 72.4925 121.874 74.2925 117.824C73.0477 117.67 72.0368 117.661 71.1609 117.653H71.1607C68.6237 117.63 67.2185 117.617 64.5425 114.124C64.0071 113.567 64.8566 112.873 66.105 111.852C67.7717 110.49 70.1492 108.547 70.8925 105.574C68.2482 107.212 65.7786 109.181 63.3088 111.151C58.5399 114.954 53.7705 118.757 47.7425 120.174C40.1425 121.674 32.7925 115.524 30.8925 108.374C30.1381 105.734 29.7542 103.009 29.3693 100.279C29.091 98.3036 28.8122 96.3255 28.3925 94.3738C28.1832 93.9552 28.5696 94.1323 28.8477 94.2598L28.8478 94.2598L28.8494 94.2606L28.8506 94.2611C28.9036 94.2854 28.9525 94.3078 28.9925 94.3238C29.0678 94.374 29.1474 94.4242 29.2288 94.4756C29.6336 94.7312 30.0843 95.0158 30.2925 95.4738C30.733 97.001 31.0528 98.5627 31.3734 100.129C31.5987 101.228 31.8243 102.33 32.0925 103.424C33.1425 107.924 34.3925 112.574 37.3925 116.224C37.4279 116.259 37.4633 116.303 37.5006 116.349L37.5007 116.349C37.6217 116.499 37.7633 116.674 37.9925 116.674C41.4925 117.624 45.0925 116.524 48.2425 114.874C50.1805 114.19 53.5336 111.621 57.1441 108.856C63.0348 104.344 69.6105 99.3068 71.8425 101.074C75.8925 103.474 75.6925 105.374 74.5425 109.574C73.9425 111.474 72.8925 113.274 71.3425 114.574C71.7925 114.674 72.2925 114.824 72.7425 114.974C85.5925 121.424 70.8925 125.874 64.1425 127.224C63.4425 127.224 58.7425 123.174 60.3925 123.124ZM30.9425 119.024C28.9925 120.824 26.5425 122.474 23.7425 122.274C22.7925 122.474 25.9425 124.974 26.4925 125.024C28.4925 124.824 30.5925 124.224 32.1925 122.974C32.3764 122.804 32.5883 122.634 32.8044 122.461C33.3523 122.022 33.9274 121.562 34.1425 121.024C33.8425 120.374 31.5425 117.924 30.9425 119.024ZM59.0426 57.1237C54.5426 55.7737 50.5426 52.0238 49.1426 47.4738C49.1426 47.2238 49.5426 47.4238 49.6426 47.5238C50.5426 48.0738 51.4426 48.7737 51.8926 49.6737C52.133 50.828 52.8823 51.8434 53.5621 52.7646L53.6426 52.8737C54.0301 53.0443 54.4369 53.1715 54.8435 53.2987C55.7484 53.5819 56.6526 53.8648 57.3426 54.6237C57.6926 54.8737 60.1426 57.1237 59.0926 57.1237H59.0426ZM19.8499 118.013C20.1332 118.002 20.4242 117.99 20.6927 118.024H20.7927C22.0927 118.024 23.5427 117.724 24.6427 117.024C23.9427 115.574 22.2927 114.324 20.7927 113.774C18.7927 114.624 16.6427 114.924 14.5427 114.724C14.5234 114.724 14.5023 114.722 14.4804 114.72C14.3886 114.712 14.283 114.703 14.2427 114.824C14.7927 116.124 16.2427 117.074 17.3927 117.774C18.0427 118.024 18.7427 118.024 19.4427 118.024C19.5742 118.024 19.7111 118.018 19.8499 118.013Z" fill="black"/>
</svg>
