<svg width="65" height="56" viewBox="0 0 65 56" fill="none" xmlns="http://www.w3.org/2000/svg">
<path fill-rule="evenodd" clip-rule="evenodd" d="M13.3607 41.6586C13.2414 37.4029 12.8791 33.0853 10.9534 29.2339C9.70344 27.0339 6.95347 23.4839 4.30347 23.184C1.95347 23.4839 1.40349 26.434 1.25349 28.384C0.653485 33.634 2.65344 39.184 6.95344 42.434C7.81716 43.1799 8.80421 43.8334 9.79353 44.3943C5.60996 47.6458 -1.83403 53.8487 1.6535 55.4339C4.39354 51.7365 8.31059 49.1507 12.239 46.6116C13.757 48.1256 15.4025 49.5258 17.4034 50.3339C19.6972 51.1816 22.19 51.2833 24.6336 51.3831H24.6337L24.6534 51.3839C27.1034 51.4339 30.9534 50.9839 31.1034 47.9339C30.8599 46.229 29.335 44.9987 28.0545 43.9655L27.9534 43.8839C26.3034 42.5339 24.2534 41.7339 22.1034 41.5839C21.265 41.513 20.4098 41.4924 19.559 41.5377C21.2267 40.3105 22.9167 39.1125 24.6063 37.9147C25.2121 37.4852 25.8179 37.0558 26.4226 36.6251C26.6146 36.7642 26.823 36.8647 27.0536 36.8839C34.9036 42.2839 45.2036 44.5339 54.7036 45.0339C62.8536 45.1839 68.3036 41.2839 61.6536 33.8339C58.1536 29.5839 53.1036 25.8339 47.2536 26.8339C42.7514 27.4493 38.4381 28.925 34.2592 30.7444C35.7875 29.4999 37.2755 28.2047 38.7035 26.8339C44.5035 21.2339 52.4535 10.1339 43.9535 3.4839C37.1035 -3.3161 24.9535 1.3339 23.6535 10.6839C23.1535 13.7839 23.1535 16.9339 23.1535 20.0339C22.9535 24.1339 23.7035 28.3839 25.8535 31.9339C23.2421 33.8714 20.6937 35.8878 18.1464 37.9033L18.1463 37.9034C16.5557 39.1619 14.9656 40.4201 13.3607 41.6586ZM37.2535 3.53386C28.4036 5.38386 26.7035 12.7339 26.9035 20.6839C26.9035 21.301 26.893 21.9216 26.8825 22.5438L26.8825 22.544C26.8368 25.2487 26.7906 27.9824 27.6035 30.5839C32.6535 26.6339 37.6035 22.2839 40.8535 16.6839C42.9535 13.0339 45.2035 8.33386 43.1035 4.23386C41.5535 3.08386 39.1036 3.28386 37.2535 3.53386ZM49.3535 29.6839C42.8035 30.4839 36.5534 32.8839 30.4534 35.2839C30.2938 35.3504 30.1235 35.4205 29.9493 35.4922C29.4685 35.69 28.9571 35.9004 28.5535 36.0839C28.6874 36.191 28.8643 36.2695 29.0459 36.35L29.0459 36.35C29.2033 36.4197 29.3642 36.491 29.5035 36.5839C36.6535 39.9339 44.5534 41.5839 52.4034 41.6839C56.7534 41.8839 64.1535 39.9339 60.5035 34.2839C58.4035 30.2339 53.6035 29.0339 49.3535 29.6839ZM3.85343 30.8838C3.95343 29.4838 4.15345 27.9838 5.00345 26.8338C5.50345 26.0838 6.45343 25.4838 7.35343 25.8838C8.30343 27.2338 8.70344 28.8838 9.05344 30.4338C9.85344 34.5338 9.8534 38.6838 9.7034 42.8338C9.47156 42.7179 9.23285 42.6061 8.99274 42.4936L8.9926 42.4936L8.9924 42.4935C7.78273 41.9269 6.53743 41.3436 5.9534 40.1338C4.3034 37.3338 3.55343 34.0838 3.85343 30.8838ZM13.0534 45.8339C14.1365 47.0419 15.8442 47.2782 17.4249 47.4969H17.425C17.7416 47.5407 18.053 47.5838 18.3534 47.6339C18.4739 47.6455 18.603 47.6584 18.7398 47.672C21.5555 47.9526 27.6057 48.5555 27.6534 44.8839C24.3034 43.5839 18.7534 43.4839 15.4034 44.9839C15.0534 45.1089 14.7409 45.3089 14.4284 45.5089L14.4283 45.5089C14.1158 45.7089 13.8034 45.9089 13.4534 46.0339C13.351 46.0339 13.2255 45.9408 13.1242 45.8658C13.0771 45.8308 13.0352 45.7998 13.0034 45.7839L13.0534 45.8339Z" fill="black"/>
</svg>
