<svg width="84" height="37" viewBox="0 0 84 37" fill="none" xmlns="http://www.w3.org/2000/svg">
<path fill-rule="evenodd" clip-rule="evenodd" d="M3 36.5C2.1 36.1 1.15 35.45 0.75 34.6C3.08203 31.5878 6.40544 29.5197 9.8028 27.8913C8.52054 26.6287 8.16506 24.3976 8.70006 22.65C8.76055 22.4685 8.82226 22.2706 8.88718 22.0625C9.41241 20.3787 10.1475 18.0219 12.1501 18.1999C15.1943 18.9828 14.7964 23.5103 13.687 26.1896C17.3342 24.8696 21.2237 24.2637 25.0915 24.7237C25.0219 24.4091 24.999 24.0945 24.9761 23.7799C24.9681 23.6699 24.9601 23.5599 24.9501 23.4499C24.7001 20.8499 27.2501 18.4999 29.8001 18.8999C31.2501 19.1499 32.4501 20.1999 33.3001 21.3999C34.368 22.9894 33.8569 24.4925 32.7166 25.6335C35.1457 25.7405 37.591 25.6677 40.0204 25.4156C39.9444 25.3116 39.8709 25.2063 39.8 25.0999C39.3527 24.2948 39.2655 23.3697 39.1805 22.4677L39.1803 22.4655L39.1803 22.4653L39.1803 22.4651C39.1704 22.3596 39.1604 22.2545 39.15 22.1499C39 18.9999 39.75 13.2999 44.1 13.9999C46 14.2999 47.6 15.4499 48.95 16.8499C51.6929 19.2881 50.5309 21.9158 48.27 23.8417C50.0803 23.3317 51.8592 22.7157 53.5919 21.9943C53.4495 21.4825 53.3614 20.9381 53.2721 20.3863L53.2721 20.3862C53.219 20.0583 53.1656 19.7278 53.1 19.4C52.75 17.3 52.5 15.1 53.15 13C53.6 11.6 54.3 9.8 55.8 9.25C57.0765 9.25 58.1592 10.49 59.014 11.469L59.0141 11.469C59.1303 11.6021 59.2423 11.7304 59.35 11.85C60.6653 13.5281 61.24 15.6999 61.3728 17.8056C62.08 17.3255 62.7729 16.8237 63.45 16.3C63.6296 16.1582 63.8063 16.019 63.9801 15.882C67.728 12.9292 70.1576 11.015 71.4 5.95001L71.4483 5.85122C72.5439 3.60893 74.0407 0.545634 76.8 0.25C82.2 1.95 83.75 9.50001 80.25 13.7C79.3681 14.8024 78.2128 15.5554 76.9431 16.0595C81.0041 17.8021 87.6408 23.21 79.7 23.7999C76.9 23.6999 74.4 22.2499 72.15 20.6499C71.9643 20.5106 71.7776 20.3714 71.5904 20.2318C70.6032 19.4956 69.6016 18.7487 68.6662 17.9349C68.3816 18.1774 68.0928 18.4157 67.8 18.65C66.2124 19.9538 64.5256 21.1223 62.761 22.1578C63.3061 22.4892 63.8097 22.8898 64.2502 23.3498C66.4502 25.2498 69.1502 29.4998 64.2502 29.6498C61.6002 29.4498 59.5502 27.6498 57.7002 25.8998C57.4273 25.6022 57.136 25.3168 56.8415 25.0324C54.0904 26.1179 51.2245 26.9316 48.3075 27.48C48.565 27.7483 48.8125 28.0229 49.05 28.2999C51.35 31.0999 53.45 37.2499 47.35 34.8999C44.7043 33.4992 42.2402 31.16 41.4185 28.2827C39.3727 28.3787 37.3262 28.3504 35.3 28.2C33.8516 28.1177 32.4031 27.9 30.9529 27.6609C31.0726 27.7698 31.1885 27.8826 31.3001 27.9998C32.8001 29.5498 33.5501 31.3998 32.7001 33.4998C32.4501 34.4498 31.7501 35.4999 30.6501 35.3499C28.8001 35.2999 27.7001 33.6998 26.9001 32.2498C26.7991 32.0846 26.6948 31.9193 26.5898 31.7532C26.1232 31.0143 25.645 30.2571 25.4001 29.3998C25.3183 28.9906 25.4597 27.867 25.7269 26.906C24.5044 26.8002 23.2791 26.7757 22.05 26.9C19.9568 27.1654 17.8592 27.6567 15.8188 28.3509C17.3233 28.7516 18.8547 29.4603 19.65 30.7999C20.05 31.8499 19.5501 32.9998 19.1001 33.9498C18.6501 34.9998 17.5501 35.4998 16.5001 35.4498C14.1501 35.3998 12.6 33.0998 11.9 31.1498C11.7974 30.8078 11.8001 30.4014 11.8741 29.9827C8.5162 31.6317 5.45159 33.8441 3 36.5ZM78.7502 2.44995C76.4002 3.94995 75.0502 6.69999 74.2502 9.29999C74.1684 9.59084 74.0916 9.885 74.0146 10.1798L74.0145 10.1803L74.0143 10.1809C73.6678 11.5072 73.3182 12.8457 72.5002 13.95C78.1002 13.4 81.5502 7.34995 78.7502 2.44995ZM70.0503 17.3499C71.9003 19.1499 74.2503 20.5499 76.9003 20.4499C77.8503 20.4999 80.3503 20.0499 79.9003 18.7499C77.2003 17.0999 73.8003 16.2999 70.7003 17.3499C70.5003 17.5499 70.2503 17.4499 70.0503 17.2999V17.3499ZM55.8002 16.9C56.1502 15.5 56.8002 14.1 57.8002 13.05C57.8336 12.9833 57.8669 12.95 57.9002 12.95C58.0002 13.35 58.1002 13.8499 58.1502 14.2499C58.6002 16.4499 57.1502 18.35 55.5002 19.6C55.5002 18.7 55.5502 17.8 55.8002 16.9ZM57.7504 24.3C58.5504 25.35 59.7504 25.95 61.1004 26C62.2004 26.15 64.1504 25.6 63.7504 24.15C61.8004 23.15 59.3504 23 57.4004 24C57.4004 24 57.6504 24.25 57.7504 24.3ZM42.5002 22.9998C42.9002 20.7998 44.0503 17.9998 46.6003 17.6998C46.9002 17.6665 47.2002 17.6665 47.5002 17.6998C47.3002 20.3498 44.7502 21.9998 42.5002 22.9998ZM44.2002 27.5999C44.2308 27.814 44.2591 28.0305 44.2875 28.2482C44.4449 29.454 44.6073 30.6987 45.2002 31.7999C47.8502 32.3999 48.9002 31.1998 47.5002 28.7498C47.4319 28.6644 47.3869 28.5556 47.3414 28.4455C47.2535 28.2332 47.1636 28.0157 46.9002 27.9498C46.523 27.8241 46.1106 27.7862 45.6926 27.7478C45.1133 27.6945 44.523 27.6403 44.0002 27.3499C44.0669 27.4165 44.1336 27.4999 44.2002 27.5999ZM27.1003 24.8499C27.1503 23.2499 28.3503 21.8999 29.7503 21.1999C30.0003 20.9999 31.9503 20.4999 31.9503 20.9999C32.1003 21.5999 31.8503 22.2499 31.4503 22.6999C30.4003 23.9999 28.7503 24.6499 27.1003 24.8499ZM28.3503 28.9999C29.0003 30.4499 29.9503 32.1999 31.6503 32.3499C31.7475 32.3823 31.6978 32.3098 31.6507 32.2411L31.6507 32.2411C31.6251 32.2038 31.6003 32.1675 31.6003 32.1499C31.0003 31.0499 30.0503 30.1499 29.0503 29.4499C29.017 29.4333 28.9061 29.3501 28.7803 29.2557L28.78 29.2555L28.7799 29.2555L28.7799 29.2554L28.7799 29.2554L28.7798 29.2554C28.528 29.0665 28.217 28.8333 28.3503 28.9999ZM17.6504 32.8499C15.7504 32.8999 14.4504 31.2498 13.7004 29.6998C13.6337 29.6332 13.6337 29.5999 13.7004 29.5999C15.5004 30.0999 17.4004 31.0998 18.5504 32.6498C18.6504 32.8498 17.8004 32.8499 17.6504 32.8499ZM10.4003 21.3999C10.1003 21.4499 9.80031 21.6 9.65031 21.85C9.55031 22.45 9.65031 23.0999 9.75031 23.6999C10.0503 25.0499 11.1003 26.45 12.5503 26.6C12.6323 26.4769 12.733 26.3576 12.834 26.238C13.1025 25.92 13.373 25.5996 13.3003 25.1999C13.4003 23.4999 12.5003 21.0499 10.4003 21.3999Z" fill="black"/>
</svg>
