<svg width="50" height="147" viewBox="0 0 50 147" fill="none" xmlns="http://www.w3.org/2000/svg">
<path fill-rule="evenodd" clip-rule="evenodd" d="M20.099 10.0133C19.4189 9.51172 18.8514 8.89652 18.6 8.14226C18.3 5.89226 18.2 3.59226 18.5 1.39226C19.6 -0.557738 25.05 2.44226 26.25 3.64226C27.9766 5.07411 27.4332 7.25084 26.9499 9.18656L26.9499 9.18664L26.9499 9.18668C26.8594 9.54915 26.771 9.90317 26.7 10.2423C26.4 10.9923 24.45 9.24227 24.1 8.84227C23.9302 8.23581 24.1723 7.45278 24.4266 6.63027C24.6965 5.75749 24.9802 4.84023 24.8 4.04226C25 3.29226 22.55 2.99226 22.15 3.39226C21.6819 5.54552 21.9588 8.13702 22.3653 10.3872C23.3624 10.6371 24.4715 11.0064 25.6999 11.4921C26.5999 11.3921 29.1999 13.3921 29.2499 14.2921C28.5097 14.1772 27.6848 13.9256 26.8284 13.6643C24.3297 12.9019 21.5628 12.0578 19.8499 14.2921C18.0819 17.5628 18.4498 21.6496 18.8046 25.5906C19.0518 28.3371 19.2927 31.0128 18.7999 33.2921C15.9999 32.0921 15.5499 30.7421 15.4999 27.8421C15.2499 25.0921 15.0499 22.2921 14.8999 19.4921C14.494 12.7763 15.8854 9.76412 20.099 10.0133ZM29.65 47.0921C27.1796 45.9421 27.1765 45.2638 27.168 43.357C27.1665 43.0255 27.1649 42.6569 27.15 42.2422C27.05 36.4922 27.2 30.6922 27.55 24.9422C27.6491 22.994 27.7046 21.0457 27.7596 19.1119L27.7596 19.1117C27.7879 18.1174 27.8161 17.1269 27.8501 16.1421C28.1001 15.4921 30.8501 17.7921 30.8501 18.2921C30.504 22.6873 30.3735 27.1303 30.243 31.5715L30.243 31.5718C30.185 33.5471 30.127 35.522 30.05 37.4922C30.0357 38.3514 30.0296 39.2148 30.0235 40.081V40.0811V40.0812V40.0812V40.0813V40.0814V40.0814V40.0815V40.0815V40.0816V40.0816C30.0082 42.2397 29.9928 44.4159 29.8501 46.5921C29.8351 46.6521 29.8336 46.7299 29.8321 46.8069C29.8286 46.9869 29.8251 47.1622 29.65 47.0921ZM3.101 135.869C3.34372 138.081 3.47114 139.242 6.04999 140.442C6.34999 140.542 6.3 140.142 6.25 139.992C6.15447 137.031 5.63309 134.11 5.11204 131.191C4.81491 129.527 4.51789 127.863 4.3 126.192C4.14281 123.363 4.02337 120.53 3.93988 117.696C8.27236 122.16 20.507 122.624 26.6576 122.858C26.9715 122.87 27.2696 122.881 27.55 122.892C30.8152 122.932 33.9875 122.166 37.1644 121.4C38.0253 121.192 38.8865 120.984 39.75 120.792C41.4134 120.296 43.0768 119.818 44.7402 119.358C44.4867 122.565 44.1673 125.771 43.8 128.992C43.766 129.279 43.7329 129.566 43.6998 129.854L43.6996 129.856C43.3918 132.533 43.0783 135.26 41.95 137.742C38.9338 143.031 32.2301 143.266 26.4097 143.471H26.4094H26.4092H26.409C25.1862 143.514 24.0024 143.555 22.9 143.642C21.7 143.642 25.2 146.392 25.6 146.292C26.0017 146.284 26.4144 146.278 26.8361 146.271C34.4457 146.151 44.984 145.985 46.5 136.842C48.3537 127.573 48.6123 118.101 48.8696 108.677C48.9246 106.662 48.9795 104.65 49.05 102.642C49.2 94.2921 48.6 85.1421 43.3 78.2921C40.375 74.5571 37.0855 71.1867 33.7961 67.8162L33.796 67.8161C33.4305 67.4416 33.065 67.0671 32.7 66.6921C30.734 63.9236 30.7319 58.4828 30.7304 54.2193C30.73 53.1698 30.7296 52.1915 30.7 51.3421C31.25 51.2921 28.25 48.8421 28.3 49.5921C28.15 53.0421 28.05 56.5421 28.15 59.9921C28.1 63.5921 30.55 66.3421 33.15 68.5421C36.15 71.5921 39.15 74.7421 41.55 78.2921C44.5054 83.2917 45.4834 88.813 45.6911 94.4675C45.2999 94.284 44.8977 94.1512 44.4999 94.0923C42.1499 94.8923 39.7999 95.6923 37.3999 96.3423C32.44 97.5597 27.3989 98.0046 22.3863 98.4469H22.3862L22.3853 98.447C21.8398 98.4951 21.2946 98.5432 20.7499 98.5923C15.0969 98.9898 9.09278 98.373 3.97802 95.8806C4.00011 95.1841 4.02412 94.488 4.05 93.7923C4.1 85.9422 4.80001 77.5922 11.6 72.5423C12.2395 71.9637 12.9532 71.4361 13.6704 70.9059L13.6705 70.9058C15.3086 69.6948 16.9654 68.47 17.8 66.5922C19.4469 61.5574 19.1454 56.124 18.8541 50.8754L18.8541 50.8751L18.854 50.8747L18.854 50.8744C18.8358 50.5462 18.8176 50.2188 18.8 49.8923C18.7742 47.9313 18.5087 45.9969 18.244 44.0685C17.9959 42.2601 17.7484 40.4571 17.7 38.6423C17.8 38.2423 17.6 37.8922 17.25 37.5922C17 37.3422 16.65 37.0923 16.3 36.8923C16.2823 36.8834 16.2568 36.8668 16.2266 36.847C16.0857 36.755 15.8412 36.5953 15.8 36.8422C15.648 38.3925 15.8102 39.9612 15.9719 41.5259C16.0763 42.535 16.1804 43.5425 16.2 44.5422C16.35 48.7422 16.45 52.9923 16.05 57.1923C16.0163 57.4357 15.9834 57.6825 15.9502 57.9316C15.5405 61.0089 15.0828 64.4458 12.4 66.3422C7.24999 69.9922 2.2 74.0423 1.25 80.6923C0.469163 86.6043 0.490207 92.5993 0.511182 98.5745C0.518413 100.634 0.525635 102.691 0.5 104.742C0.644837 107.331 0.652007 109.94 0.659186 112.551C0.671833 117.153 0.684506 121.763 1.45 126.292C1.56 126.872 1.672 127.452 1.78401 128.032C2.232 130.352 2.68 132.672 3 134.992C3.03876 135.302 3.07078 135.594 3.101 135.869ZM3.88042 115.416C4.60842 113.844 5.48496 112.328 6.36464 110.806C6.90305 109.875 7.44265 108.942 7.95009 107.992C8.48342 107.092 9.00007 106.159 9.50007 105.192C9.25007 105.392 9.00006 105.692 8.80006 105.942C8.43856 106.225 8.03754 106.755 7.60941 107.321C6.67559 108.555 5.61284 109.959 4.55008 109.342C4.29734 109.232 4.04461 109.113 3.79453 108.983C3.80336 111.127 3.83173 113.271 3.88042 115.416ZM7.4562 118.453C11.9427 119.573 16.5464 119.75 21.15 119.842C21.7915 119.871 22.4293 119.872 23.064 119.848C22.991 119.78 22.9196 119.712 22.8501 119.642C22.2779 119.114 22.5581 118.431 22.8039 117.832C22.8373 117.75 22.8701 117.67 22.9001 117.592C24.0277 114.481 25.5183 111.492 26.9954 108.529C27.4177 107.682 27.8388 106.837 28.2501 105.992C28.4167 105.626 28.6001 105.276 28.8001 104.942C28.8001 104.908 28.8463 104.851 28.8445 104.85C28.8436 104.849 28.8321 104.86 28.8001 104.892C25.9001 108.242 23.1501 111.642 20.4001 115.092C20.1328 115.346 19.7618 115.836 19.336 116.398C18.1688 117.939 16.5892 120.025 15.6001 119.292C15.5221 119.253 15.4336 119.21 15.3371 119.163C14.3199 118.667 12.4131 117.738 12.5501 116.642C13.7196 113.653 15.4522 110.927 17.1624 108.236C17.4262 107.821 17.6895 107.407 17.9501 106.992C15.7001 109.042 13.5001 111.292 11.5001 113.642C10.8206 114.364 10.1952 115.158 9.57028 115.952C8.88824 116.818 8.20678 117.683 7.4562 118.453ZM28.6804 119.108C29.9815 118.838 31.2764 118.519 32.5705 118.191C32.2051 117.908 31.8629 117.605 31.5501 117.292C30.9729 116.754 31.1952 115.948 31.3967 115.219C31.457 115 31.5155 114.788 31.5501 114.592C31.2542 114.962 30.7747 115.747 30.2135 116.666C29.7401 117.442 29.2086 118.312 28.6804 119.108ZM37.7141 116.928C37.7986 116.909 37.8832 116.891 37.9677 116.873C37.93 116.79 37.9068 116.713 37.9001 116.642C37.8387 116.727 37.7768 116.823 37.7141 116.928ZM44.5 116.785C44.6389 116.865 44.7766 116.947 44.9121 117.034C44.9419 116.599 44.9705 116.165 44.9977 115.73C44.8358 116.084 44.6699 116.436 44.5 116.785ZM45.1352 113.309C45.1584 112.854 45.18 112.398 45.2 111.942C45.2274 110.407 45.2914 108.852 45.3661 107.284C45.3378 107.362 45.3095 107.44 45.2812 107.517C44.7094 109.092 44.1375 110.667 43.6501 112.242C43.7646 112.344 43.9667 112.478 44.2002 112.633C44.4997 112.832 44.8509 113.066 45.1352 113.309ZM45.5859 102.776C45.6678 100.958 45.731 99.1348 45.7363 97.3182C45.5897 97.3589 45.4441 97.3999 45.2999 97.4423C43.7345 97.9351 42.1692 98.3943 40.5844 98.7809C41.3842 99.2293 42.1323 99.8032 42.5501 100.542C42.4321 100.955 42.2097 101.351 41.9856 101.749C41.8298 102.026 41.6731 102.305 41.5501 102.592C41.7397 102.445 41.9028 102.253 42.0653 102.061C42.2885 101.799 42.5108 101.537 42.8001 101.392C43.7243 101.392 44.7671 102.074 45.5859 102.776ZM37.3706 99.4478C37.2804 99.463 37.1902 99.4778 37.0999 99.4923C36.3078 99.6683 35.507 99.8228 34.7002 99.9558C34.7896 100.931 34.0873 102.348 33.5102 103.512C33.2189 104.1 32.9596 104.623 32.8501 104.992C32.9407 104.877 33.0891 104.683 33.2815 104.431C34.1579 103.282 35.9487 100.935 37.3706 99.4478ZM27.8815 100.609C27.2689 100.659 26.6562 100.718 26.0436 100.777L26.0434 100.777C25.4388 100.835 24.8342 100.893 24.2296 100.942C24.6794 101.296 25.0629 101.691 25.3001 102.092C25.3752 102.731 25.0553 103.313 24.743 103.881C24.6397 104.069 24.5371 104.256 24.4501 104.442C25.0226 103.831 25.5782 103.195 26.1345 102.559C26.7096 101.902 27.2854 101.243 27.8815 100.609ZM19.475 101.004C19.4333 101 19.3916 100.996 19.3499 100.992C15.9089 100.769 11.2904 99.9372 7.35723 98.4054C8.33018 99.0942 9.04571 99.7944 8.65007 99.9922C8.55007 99.9589 8.50007 99.9922 8.50007 100.092C8.39322 100.448 8.23562 100.779 8.0815 101.103C8.01927 101.233 7.9576 101.363 7.90007 101.492C8.0382 101.39 8.17947 101.282 8.32351 101.172C9.5872 100.205 11.0638 99.0753 12.5001 100.242C15.4206 101.797 14.8796 102.952 13.7619 105.338C13.6933 105.485 13.6224 105.636 13.5501 105.792L13.2501 106.392C13.1883 106.485 13.2219 106.444 13.2685 106.387C13.2973 106.352 13.331 106.311 13.3501 106.292C13.5834 106.059 13.8167 105.842 14.0501 105.642C15.6501 104.142 17.2834 102.726 18.9501 101.392C19.1281 101.274 19.3021 101.141 19.475 101.004ZM3.90814 98.3365C3.99067 98.1394 4.07147 97.9414 4.15007 97.7422C4.15007 97.6922 4.17507 97.6047 4.20007 97.5172C4.22507 97.4297 4.25007 97.3422 4.25007 97.2922C4.25007 97.2314 4.20892 97.1705 4.17002 97.113C4.11305 97.0288 4.06093 96.9517 4.15007 96.8923C4.15015 96.8922 4.15024 96.8922 4.15032 96.8921C4.08329 96.8535 4.01675 96.8146 3.9507 96.7754C3.93544 97.2956 3.92125 97.816 3.90814 98.3365Z" fill="black"/>
</svg>
