<svg width="149" height="115" viewBox="0 0 149 115" fill="none" xmlns="http://www.w3.org/2000/svg">
<path d="M24.191 0.794022C17.7171 2.09734 10.9869 9.72496 7.71791 19.4892C5.26083 26.8604 10.2605 28.997 13.0594 21.7753C17.418 10.5796 22.7381 5.53725 29.1479 6.54145C35.7927 7.58838 48.3772 14.6178 55.492 21.2412C59.2524 24.7238 62.6496 22.4804 59.9575 18.2927C53.9751 9.04126 33.3783 -1.04344 24.191 0.794022Z" fill="black"/>
<path d="M134.332 2.09814C122.901 2.86731 99.0143 12.8665 91.0875 20.2378C87.669 23.3999 89.8697 26.7544 93.7155 24.2118C106.257 15.9219 130.166 6.60634 137.259 7.26868C141.725 7.696 143.284 12.1187 142.045 20.7719C140.806 29.2755 145.784 30.4293 147.622 22.0539C150.356 9.53347 144.951 1.39306 134.332 2.09814Z" fill="black"/>
<path d="M29.7038 16.1329C27.6741 18.0131 28.5287 19.872 31.9259 20.9616C34.5539 21.8163 37.1178 23.141 40.1945 25.2134C44.3608 28.0551 46.7324 28.2474 46.7324 25.769C46.7324 21.3249 32.6523 13.3554 29.7038 16.1329Z" fill="black"/>
<path d="M113.862 18.8519C107.474 20.5826 101.641 24.1293 101.641 26.2659C101.662 28.6589 103.564 28.8939 107.345 26.9923C108.862 26.2232 111.341 25.1122 112.858 24.5139C117.836 22.5269 119.289 21.2877 118.797 19.4288C118.562 18.5315 116.148 18.2537 113.862 18.8519Z" fill="black"/>
<path d="M71.5377 24.9559C69.0379 25.3832 67.7987 27.477 68.9311 29.3359C69.7644 30.6819 70.8327 31.0451 76.2169 31.6647C84.0154 32.5835 85.2546 33.8441 84.0368 39.5701C82.8403 45.2107 82.648 45.3603 76.6442 45.5739C64.7434 46.0013 56.7739 44.1852 56.7739 41.023C56.7739 38.4591 60.2352 33.6945 63.9315 31.1947C68.3328 28.2035 65.7689 24.6354 61.0684 27.1993C50.8342 32.7758 47.6934 43.2451 54.7869 48.0951C61.5385 52.6674 82.5198 53.1802 86.5579 48.8643C90.1047 45.0612 91.7499 35.2329 89.5705 30.8956C87.3271 26.4942 78.9303 23.738 71.5377 24.9559Z" fill="black"/>
<path d="M14.7462 27.9292C-0.744109 30.1085 6.94761 43.3981 26.0914 47.479C38.7187 50.1711 52.0083 46.9876 48.2265 42.1803C47.265 40.9624 46.0472 40.8769 42.5646 41.7743C33.0567 44.2314 19.6603 41.4752 13.5069 35.8132C9.06284 31.711 32.4158 33.8903 42.65 38.5481C45.4489 39.8086 47.0514 39.2318 47.3078 36.9029C47.7992 32.181 26.4119 26.284 14.7462 27.9292Z" fill="black"/>
<path d="M124.716 28.2746C109.995 30.347 91.1074 38.7652 91.1074 43.2307C91.1074 45.8159 93.4149 46.0937 96.9403 43.9571C109.119 36.5645 129.181 31.6076 136.083 34.3211C144.223 37.5046 117.259 46.3074 99.3333 46.3074C94.355 46.3074 92.4535 47.8243 94.3123 50.3242C96.9403 53.8495 115.187 52.2898 129.63 47.3329C150.953 39.9831 147.129 25.1124 124.716 28.2746Z" fill="black"/>
<path d="M47.7347 48.3577C47.3074 48.5927 46.7946 49.4046 45.8545 51.2848C41.4318 60.1303 35.4707 65.9418 23.8476 72.8002C9.36158 81.3466 7.24635 82.7567 4.31923 85.7052C-0.616292 90.6835 -0.253072 93.8456 6.13533 102.178C12.951 111.067 15.4722 111.665 27.8858 107.37C49.6363 99.8708 63.5241 86.453 70.9167 65.8563C73.8652 57.6518 73.8438 53.9983 70.8312 53.9983C69.0792 53.9983 68.2673 55.4084 65.4043 63.1429C57.6485 84.1242 47.2219 94.4439 26.7534 101.366C16.7969 104.742 16.3482 104.678 11.9255 99.3367C6.8404 93.226 6.47718 92.4782 7.7805 90.9185C9.7248 88.5469 13.0579 86.2394 23.7622 79.9151C34.0605 73.8044 38.9533 70.0013 43.547 64.5103C47.2647 60.0234 51.2174 52.7804 51.2174 50.4088C51.2174 48.6995 49.2517 47.5458 47.7347 48.3577Z" fill="black"/>
<path d="M82.0699 55.2365C79.6769 57.1595 82.3476 69.4235 86.5781 76.0042C92.1332 84.6574 98.9916 88.5032 113.392 91.003C115.507 91.3662 115.507 91.3449 113.713 97.2205C110.636 107.455 110.187 107.946 104.312 107.925C92.3896 107.882 82.3476 96.3659 79.2923 79.2091C77.6044 69.6371 72.7757 70.4704 74.0577 80.1064C76.8352 100.853 89.9752 115.424 105.38 114.826C113.478 114.527 116.661 111.194 119.439 100.019C122.409 88.1186 121.704 86.5589 112.538 84.8924C96.3636 81.9653 88.7574 74.2522 85.9371 58.0141C85.4457 55.1083 83.715 53.8905 82.0699 55.2365Z" fill="black"/>
<path d="M24.8318 82.6062C19.9603 84.465 18.5929 85.4051 18.3793 87.0716C18.0801 89.3792 20.6227 89.7637 24.8104 88.0758C29.8741 86.0247 30.8997 85.0633 30.0664 83.0335C29.4468 81.5592 27.8871 81.4311 24.8318 82.6062Z" fill="black"/>
<path d="M32.9498 88.2476C26.07 91.2816 24.2966 92.9481 25.8777 94.9138C27.5229 96.9649 37.3298 92.1789 37.3298 89.3159C37.3298 87.6707 35.3428 87.1793 32.9498 88.2476Z" fill="black"/>
<path d="M99.4608 90.811C98.0293 92.1357 98.6276 94.1014 100.786 95.1697C105.016 97.2849 108.221 96.6012 107.601 93.7382C107.131 91.4947 101.085 89.3154 99.4608 90.811Z" fill="black"/>
<path d="M92.4117 95.5756C89.164 97.3276 95.937 104.378 100.189 103.673C103.095 103.182 102.197 100.062 98.5223 97.8404C97.689 97.349 96.4925 96.5584 95.8729 96.0884C94.6123 95.1483 93.5013 94.9774 92.4117 95.5756Z" fill="black"/>
</svg>
