<svg width="247" height="365" viewBox="0 0 247 365" fill="none" xmlns="http://www.w3.org/2000/svg">
<path d="M27.1576 0.784612C5.19343 2.38705 -1.32317 9.75828 1.06981 30.3764C4.46699 59.8827 10.1503 69.2836 26.6234 72.5526C50.8523 77.3386 82.5807 67.4462 101.361 49.1997C108.69 42.0849 105.378 37.4912 97.4727 43.7941C86.8966 52.2337 77.8802 57.4256 67.8596 60.8441C50.5318 66.7838 30.5761 67.3607 21.346 62.1902C19.7009 61.2714 19.765 61.2073 28.76 56.6991C47.6902 47.1913 65.2102 42.0421 86.0206 39.9056C91.1484 39.3714 92.5799 38.7732 92.9431 36.9784C93.755 33.1326 81.9611 33.1967 64.441 37.128C47.8611 40.8457 29.8069 48.0887 18.718 55.4599C17.372 56.3573 16.1969 57.1051 16.1114 57.1478C15.1927 57.5751 12.4578 49.3706 11.0477 41.9139C8.20602 26.9578 8.01372 18.2619 10.4494 15.057C14.8294 9.33097 33.5246 7.98492 62.7318 11.2753C78.2648 13.0059 95.4216 16.0612 100.849 18.0269C104.758 19.437 106.895 18.5824 106.446 15.7835C105.613 10.5061 76.5341 3.32715 46.4937 0.998271C42.5624 0.699148 30.2983 0.549587 27.1576 0.784612Z" fill="black"/>
<path d="M196.589 3.77438C171.677 5.12043 143.901 12.5344 142.961 18.0895C142.512 20.803 144.799 21.6576 148.773 20.2475C158.708 16.7007 179.048 13.3036 196.141 12.3207C220.348 10.9533 234.578 13.4531 236.843 19.4783C240.133 28.1956 236.757 52.9159 231.352 59.7103C230.967 60.223 230.967 60.223 228.937 58.9838C215.05 50.5016 192.444 44.5191 172.446 44.0277C162.019 43.75 158.515 44.7969 159.327 47.8949C159.733 49.3905 160.374 49.5615 165.609 49.7538C188.257 50.5229 207.849 54.9243 222.229 62.5092C225.412 64.1971 225.497 64.3039 224.002 64.6244C214.9 66.6542 193.769 63.5561 172.425 57.0823C166.634 55.3303 163.515 57.3814 167.275 60.4794C171.378 63.8339 198.171 70.3932 213.319 71.7393C232.741 73.4699 240.924 66.0773 244.748 43.4081C248.103 23.666 245.368 12.3207 236.18 7.79116C229.514 4.52218 213.404 2.87701 196.589 3.77438Z" fill="black"/>
<path d="M126.68 20.272C124.565 21.7676 125.548 24.2033 128.924 25.8058C135.419 28.8825 139.094 34.3735 137.299 38.3262C135.205 42.984 117.707 41.937 115.036 37.0015C113.348 33.8821 114.587 29.3525 118.112 25.6989C121.424 22.259 119.416 19.6524 115.1 21.7676C105.058 26.6818 105.656 41.8729 116.04 45.6333C129.885 50.6543 143.538 45.8256 143.517 35.9332C143.517 27.1091 132.064 16.4902 126.68 20.272Z" fill="black"/>
<path d="M149.328 49.2846C147.213 50.5666 147.939 52.9809 153.494 63.0656C160.139 75.0946 162.938 81.2053 165.951 90.0507C173.322 111.844 175.01 133.68 172.873 179.937C172.809 181.112 172.724 183.462 172.659 185.172C170.993 228.566 171.484 243.308 175.117 259.674C181.419 288.006 195.008 315.888 212.678 336.72C213.554 337.745 214.237 338.621 214.195 338.664C213.853 338.985 206.375 333.622 202.144 330.032C196.589 325.311 194.282 324.819 192.936 328.045C191.782 330.78 196.568 338.621 207.764 352.381C211.204 356.633 211.353 356.59 204.281 353.108C179.497 340.929 162.34 311.957 155.481 270.742C151.123 244.505 148.559 203.739 149.584 176.732C150.311 157.46 150.375 155.067 150.268 146.606C149.755 108.639 133.517 49.2846 124.65 53.0023C122.727 53.8142 122.77 54.4765 125.163 60.2881C126.744 64.1339 126.744 64.1339 125.612 66.4842C120.057 78.1286 117.514 97.1015 117.941 124.065C118.219 142.846 119.01 150.773 123.091 175.13C127.962 204.315 129.287 217.263 129.543 238.052C129.842 263.862 127.107 282.451 119.223 307.641C115.292 320.225 107.173 339.305 106.489 337.575C106.254 336.955 106.297 321.636 106.553 312.064C106.81 303.368 106.81 303.154 106.404 302.449C104.951 299.971 101.703 300.248 100.507 302.94C97.537 309.649 94.4389 314.414 88.4351 321.486C84.867 325.674 83.2432 327.426 83.2432 327.041C83.2432 326.699 88.0292 312.491 90.9135 304.18C100.336 277.259 104.609 240.616 101.596 212.734C100.913 206.324 97.1524 182.031 94.2466 165.195C90.2726 142.205 89.9948 139.449 89.9734 123.745C89.9521 95.7982 94.7167 77.744 107.344 57.8737C112.707 49.4128 106.981 47.6822 101.276 56.0149C84.226 80.9916 79.2264 115.839 86.5549 158.678C90.0803 179.232 94.033 203.867 94.8662 210.49C96.896 226.216 96.3618 244.74 93.2638 266.148C91.1913 280.592 89.2256 288.625 84.0978 303.539C80.0597 315.269 77.0044 324.712 73.6926 335.694C72.3466 340.203 75.7651 343.108 79.5255 340.673C82.6236 338.664 92.6228 327.533 97.7934 320.354C99.5881 317.854 99.5881 317.854 99.7163 326.101C99.9941 342.596 100.507 345.416 103.498 346.74C108.092 348.77 113.177 341.826 120.313 323.836C137.363 280.805 140.739 236.813 131.21 181.326C127.513 159.682 126.958 156.242 126.21 149.384C123.732 127.078 124.33 97.2938 127.599 81.1412C128.069 78.7268 129.522 73.0008 129.693 72.8512C129.97 72.5734 134.35 88.6833 136.209 96.8237C142.427 124.001 143.73 138.38 142.875 170.109C142.555 181.668 142.662 202.884 143.046 210.49C146.55 277.088 152.811 304.564 170.587 331.635C180.928 347.403 190.863 355.714 206.781 361.953C216.246 365.649 219.964 365.777 221.374 362.444C222.463 359.838 221.181 357.637 210.947 344.412C210.84 344.262 211.844 344.668 213.212 345.309C218.553 347.894 222.207 347.83 223.468 345.138C224.707 342.531 223.873 340.929 216.246 331.314C201.567 312.833 191.077 292.77 184.838 271.169C177.745 246.62 176.826 231.877 179.069 179.403C180.266 151.328 180.33 140.047 179.39 126.629C177.467 99.6868 170.993 79.4746 156.528 55.3739C152.896 49.3274 151.358 48.0454 149.328 49.2846Z" fill="black"/>
</svg>
