<svg width="90" height="138" viewBox="0 0 90 138" fill="none" xmlns="http://www.w3.org/2000/svg">
<path d="M68.3366 0.91008C59.5553 2.06384 45.582 13.6441 40.0055 24.4339C39.6209 25.1817 39.5141 25.1817 38.2321 24.3698C19.3447 12.7681 -2.49127 37.638 0.371756 67.4648C4.6663 111.97 27.8056 142.16 53.2737 136.455C72.8235 132.097 83.25 112.59 87.8651 71.7166C93.3988 22.8742 86.6686 -1.50426 68.3366 0.91008ZM74.02 9.09321C82.5877 13.0245 84.4465 46.0135 78.2504 83.7884C72.3962 119.427 57.7605 135.173 38.0398 127.033C22.87 120.773 8.93948 91.01 7.74299 62.3156C6.84562 40.8216 21.8445 22.9169 34.7281 30.0745C36.3946 30.9932 36.3519 30.9078 35.8605 32.4889C34.3649 37.2321 38.1039 39.6037 40.7106 35.5869C44.1077 30.3523 45.3256 28.6216 47.2485 26.2073C57.9956 12.8109 68.0803 6.37975 74.02 9.09321Z" fill="black"/>
<path d="M61.9266 27.6597C56.2006 29.6895 49.6199 37.7658 43.7015 49.9871C42.2273 53.0424 42.2273 53.0424 40.5821 51.4827C32.7408 43.8764 23.8312 43.556 20.4768 50.7349C13.9388 64.6655 28.724 104.769 43.0392 111.948C53.2093 117.055 59.0849 109.042 68.2082 77.6986C78.2929 43.0432 75.7503 22.7883 61.9266 27.6597ZM65.6443 33.5995C70.7721 35.9497 67.3749 59.8795 57.8885 88.2748C51.4573 107.461 48.5516 109.897 41.6077 101.885C28.6172 86.9287 19.6222 48.3846 30.0487 52.3373C33.0186 53.4697 39.5352 59.4308 39.3642 60.8623C38.8301 65.3064 42.74 65.6697 44.6202 61.3751C51.4146 45.7566 61.9052 31.9115 65.6443 33.5995Z" fill="black"/>
</svg>
