<svg width="76" height="124" viewBox="0 0 76 124" fill="none" xmlns="http://www.w3.org/2000/svg">
<path d="M65.5971 1.42245C58.5037 4.15728 36.625 21.891 32.9073 27.8948C27.8863 36.0566 33.9543 42.1458 44.7013 39.7529C45.4064 39.6033 45.385 39.6033 38.612 53.2134C34.873 60.6914 31.1553 68.1909 30.3434 69.8788C29.5101 71.5453 28.7623 73.105 28.6555 73.3187C28.5273 73.5537 27.2454 74.216 25.5575 74.9425C10.2381 81.395 4.27703 86.0527 8.82797 87.997C10.6227 88.7662 12.7593 88.1039 19.9596 84.5571C22.4594 83.3179 24.5319 82.3137 24.5746 82.3137C24.6174 82.3137 24.1046 83.5316 23.4636 85.0272C22.1816 87.997 19.2118 95.3896 18.5708 97.2485C18.2076 98.2954 18.0153 98.4877 16.5624 99.4705C11.7978 102.675 2.65323 109.512 1.71313 110.538C-0.145706 112.632 0.409807 114.897 2.90962 115.495C4.57616 115.901 10.6868 112.098 16.9897 106.778C18.8272 105.218 18.8272 105.218 19.5323 108.017C21.6902 116.563 24.0618 122.546 25.5361 123.293C27.7368 124.383 28.9974 122.46 28.2068 119.17C28.0145 118.337 27.4377 115.602 26.9035 113.081C25.5788 106.714 24.9806 104.107 24.361 101.863C23.8055 99.9406 23.8055 99.9406 26.348 94.1718C29.9802 85.9459 31.0699 83.5316 31.2622 83.3393C31.4331 83.1683 32.1168 84.3648 36.9668 93.424C40.0222 99.15 41.0691 100.582 42.3724 100.731C43.8467 100.923 45.4064 99.4919 45.4064 97.9749C45.4064 96.4793 39.0393 82.9333 35.3858 76.6304C34.7662 75.5621 34.7662 75.5621 39.4667 66.0543C43.4621 57.9993 48.7181 47.1454 49.9146 44.4961C50.2564 43.7483 50.2564 43.7483 50.5983 44.4106C52.158 47.4232 55.7047 49.282 58.9523 48.7906C67.6696 47.5087 74.4212 34.5182 75.0409 17.8955C75.5109 4.69143 72.1992 -1.12009 65.5971 1.42245Z" fill="black"/>
</svg>
