<svg width="138" height="183" viewBox="0 0 138 183" fill="none" xmlns="http://www.w3.org/2000/svg">
<path d="M113.613 0.719813C95.8582 3.60421 75.6248 19.9064 68.6595 36.8923C68.1894 38.0247 68.1894 38.0247 67.8048 36.5718C59.6003 5.82626 16.0567 -4.87805 3.17303 20.6969C-8.32181 43.5157 17.6591 67.7446 49.6011 64.0056C50.8617 63.856 51.8873 63.7705 51.8873 63.8133C51.8873 63.856 51.3745 64.5184 50.7335 65.3089C30.7991 90.1574 14.4542 132.312 12.574 163.848C12.0612 172.202 13.1295 175.877 16.3772 177.095C19.8384 178.399 21.505 176.561 25.7354 166.797C28.4061 160.622 28.2993 160.75 28.4702 163.25C29.5599 177.523 32.658 183.74 37.8071 181.967C41.2684 180.792 42.1871 177.928 44.4092 161.391C48.7037 129.684 56.951 98.5328 68.1894 71.5477C70.9029 65.0525 71.0952 64.7106 71.4584 65.5653C77.6972 80.0941 80.3893 106.93 79.0219 141.094C77.9536 167.566 79.4065 175.215 85.4317 175.151C89.8544 175.108 91.2432 171.818 95.3668 151.777C96.2642 147.418 97.247 142.824 97.5462 141.542C98.1871 138.786 97.7812 138.102 101.606 148.465C108.293 166.69 109.981 169.617 113.848 169.617C118.613 169.617 119.874 163.891 118.976 146.649C116.605 101.567 107.268 72.8083 90.645 59.5615C89.2135 58.4077 89.2135 58.4504 90.7945 58.1086C108.55 54.455 130.193 38.6443 135.983 25.1624C142.158 10.6763 130.535 -2.03639 113.613 0.719813ZM121.241 8.19787C139.957 11.4669 126.796 34.7984 99.7468 46.2933C90.3672 50.2673 76.3939 52.468 75.6034 50.075C75.3256 49.2417 73.7873 47.4256 72.954 46.9983C72.1421 46.5496 73.3386 43.3661 76.3298 38.0033C86.3932 19.8636 107.567 5.82626 121.241 8.19787ZM32.7007 15.9964C45.3707 18.1757 55.4981 27.8972 61.9079 43.9857C63.3607 47.6607 63.3821 47.7461 62.7198 48.4298C62.0361 49.1563 61.6301 49.9896 61.2028 51.4852C59.9636 55.7156 38.3413 57.0617 27.7438 53.5363C0.48093 44.5199 4.8823 11.1891 32.7007 15.9964ZM77.6331 59.882C77.74 60.0315 79.1074 61.1639 80.6244 62.4245C95.0891 74.1971 102.674 90.7129 107.652 121.223C109.361 131.735 111.69 152.183 111.22 152.653C111.178 152.717 110.237 150.281 109.148 147.247C102.759 129.471 101.542 127.42 97.3752 127.441C92.9311 127.462 91.1791 131.137 88.1238 147.076C87.2478 151.627 87.2264 151.413 87.6751 142.482C89.4698 107.036 85.3676 77.8293 76.223 61.1425C75.7743 60.2879 75.3897 59.5828 75.3897 59.5401C75.3897 59.3478 77.4409 59.6683 77.6331 59.882ZM64.1726 61.9331C53.2974 83.6195 41.1188 127.975 36.9098 161.327C36.632 163.421 36.397 165.088 36.3543 165.066C36.3329 165.023 36.0979 163.165 35.8415 160.943C34.7304 150.815 33.5126 148.379 29.5599 148.379C26.9746 148.379 25.3081 149.811 23.0219 154.041C21.7186 156.456 21.7186 156.157 22.9792 149.961C28.7053 121.587 42.1444 90.6275 59.7499 65.2662C62.5916 61.1639 62.848 60.8648 64.1513 60.2024C64.7495 59.9033 65.2623 59.6256 65.305 59.6042C65.3264 59.6042 64.8136 60.6298 64.1726 61.9331Z" fill="black"/>
<path d="M104.126 22.8542C96.648 24.9908 82.6533 36.8702 82.6533 41.0793C82.6533 43.6646 85.0463 43.9637 87.4393 41.6776C91.1142 38.1522 99.2332 32.9176 106.049 29.6699C113.399 26.1659 111.86 20.6749 104.126 22.8542Z" fill="black"/>
<path d="M26.868 24.6295C22.6162 26.1465 23.2572 30.4838 27.9363 32.1503C38.3842 35.8466 45.9905 39.9702 49.9645 44.0939C51.7379 45.9313 53.4472 46.4655 54.7505 45.6108C61.8653 40.9744 35.863 21.4033 26.868 24.6295Z" fill="black"/>
</svg>
