<svg width="158" height="127" viewBox="0 0 158 127" fill="none" xmlns="http://www.w3.org/2000/svg">
<path d="M131.041 1.1176C114.654 3.57467 90.1041 21.6929 82.3269 37.0978C82.1133 37.5037 81.9423 37.8669 81.921 37.8883C81.8782 37.931 81.0663 38.1019 80.1049 38.2729C78.1819 38.6361 76.1094 39.3625 73.161 40.6659C71.238 41.5205 71.238 41.5205 69.6783 40.794C55.0854 34.0424 21.0068 29.5556 10.3239 32.9741C3.05947 35.2817 -0.722293 47.5457 1.43566 61.6685C4.64055 82.6285 19.5967 99.3152 39.702 104.379C40.9412 104.699 41.9881 104.999 42.0308 105.041C42.0736 105.105 41.5822 106.772 40.9198 108.78C37.4372 119.527 38.9114 125.018 45.6417 126.429C51.3891 127.625 75.0412 121.408 84.2926 116.237C85.019 115.831 85.6386 115.511 85.7027 115.511C85.7455 115.511 86.2796 116.322 86.8779 117.305C91.2365 124.441 97.4326 124.612 116.811 118.16C131.703 113.203 134.203 106.473 126.789 91.3244C125.678 89.0382 125.678 89.0382 126.768 88.91C148.326 86.1752 162.919 56.5621 156.253 29.0428C151.488 9.3862 142.493 -0.591674 131.041 1.1176ZM137.878 8.80932C143.711 11.651 120.871 27.5472 102.817 33.2305C98.9923 34.427 91.5142 36.2004 91.2792 35.9654C90.916 35.6021 103.479 23.9791 108.073 20.411C119.824 11.3091 132.729 6.28814 137.878 8.80932ZM145.442 20.0478C150.505 33.9356 151.595 44.5758 148.988 54.8101C145.805 67.3732 136.575 78.6758 127.623 80.9833C125.443 81.5388 121.298 81.8593 121.085 81.4961C117.089 74.3385 104.163 62.1386 96.4284 58.2072C94.2918 57.1176 94.2918 57.1176 94.5482 55.1733C95.0823 51.071 94.826 46.3705 93.9286 43.9776C93.4158 42.6101 93.1594 42.8238 96.1079 42.2469C113.35 38.9352 138.22 25.4533 143.455 16.6079C143.925 15.796 143.818 15.6037 145.442 20.0478ZM29.9378 40.8581C38.3986 41.5205 61.4952 44.7254 62.0934 45.3023C62.1362 45.345 61.6661 45.4945 61.0251 45.6227C51.3464 47.6098 38.9969 46.7551 25.1732 43.1657C22.2033 42.3965 17.0541 40.7727 17.0541 40.6018C17.0541 40.3881 26.4978 40.5804 29.9378 40.8581ZM14.2125 47.0543C29.1686 52.8444 48.8038 55.6647 60.3628 53.6777C61.9225 53.4213 61.9225 53.4213 62.243 54.4896C62.6917 56.0493 63.6531 57.609 65.106 59.1473C66.3666 60.5148 66.3666 60.5148 64.7642 62.63C59.209 70.0012 51.966 82.8421 46.5391 94.8925C45.7912 96.5376 45.1716 97.9051 45.1716 97.9264C45.0434 98.1401 34.4246 94.3156 32.3948 93.3328C15.7508 85.2778 6.24299 66.7322 9.02055 47.8021C9.46924 44.7681 9.38377 44.8963 10.6871 45.5586C11.2853 45.8578 12.8878 46.5415 14.2125 47.0543ZM86.9206 45.2809C89.1854 46.3919 88.523 56.7971 86.0019 59.8524C84.2498 61.989 70.8962 55.7502 70.8962 52.8017C70.8962 49.6395 83.6516 43.6357 86.9206 45.2809ZM78.652 66.9032C79.8912 67.3091 81.1091 67.651 81.3655 67.651C81.8141 67.651 81.8355 67.7151 81.7073 68.762C80.874 76.0264 81.5577 94.807 82.9893 103.866C83.2884 105.746 83.5875 107.627 83.6302 108.032C83.7584 108.887 84.3567 108.545 77.8187 111.237C68.0331 115.276 53.7821 119.143 48.7611 119.143C46.9664 119.143 46.9664 119.143 46.9664 117.989C46.9664 113.118 55.5127 93.3755 66.4093 73.0993C71.644 63.3564 71.2808 63.7196 74.0156 65.023C75.3403 65.6426 77.4341 66.4972 78.652 66.9032ZM95.1464 66.775C113.393 80.385 128.093 102.947 121.619 107.392C117.987 109.891 100.167 115.468 96.4711 115.254C92.3689 115.019 90.51 106.067 88.523 76.6246C88.2453 72.2233 87.9461 68.3133 87.9034 67.9501C87.818 67.3732 87.9034 67.2664 88.7153 66.8177C89.2281 66.5613 90.1041 65.8776 90.6596 65.3007C91.8561 64.0829 91.3433 63.9333 95.1464 66.775Z" fill="black"/>
</svg>
