<svg width="154" height="132" viewBox="0 0 154 132" fill="none" xmlns="http://www.w3.org/2000/svg">
<path d="M126.508 0.98176C113.005 4.4644 98.4547 26.3431 98.3265 43.3076C98.2837 48.3499 102.92 48.7132 103.561 43.7135C105.89 25.1466 119.415 6.13094 130.354 6.04548C134.349 6.00274 135.418 8.2248 135.802 17.3053C136.208 26.9413 137.426 30.4453 142.404 36.2568C149.711 44.7818 149.605 45.4869 141.037 45.8715C132.491 46.2561 129.414 47.303 123.966 51.683C118.987 55.6998 113.496 57.6227 106.937 57.6227C104.694 57.6227 103.39 59.1611 103.988 61.084C105.334 65.2931 118.688 63.2206 126.038 57.6227C127.213 56.7467 128.666 55.6571 129.264 55.187C129.863 54.7383 131.038 54.0546 131.85 53.67C134.371 52.4949 135.674 52.3026 143.109 51.9608C154.732 51.4053 156.805 44.0768 148.194 34.0134C142.746 27.625 142.02 25.7876 141.486 16.8566C140.652 3.18245 136.208 -1.53941 126.508 0.98176Z" fill="black"/>
<path d="M114.478 32.5202C112.961 33.1825 110.012 36.5583 108.687 39.1863C106.743 43.0322 107.94 46.3012 111.486 46.8353C115.61 47.4549 124.776 42.1134 125.566 38.6522C126.272 35.5114 123.494 35.3405 119.114 38.2889C117.148 39.6136 114.52 41.0238 114.2 40.917C113.943 40.8315 115.332 38.7376 116.465 37.5411C117.811 36.1096 118.067 35.6182 118.067 34.5499C118.046 32.6484 116.358 31.7083 114.478 32.5202Z" fill="black"/>
<path d="M30.7237 44.1861C0.191871 45.8954 -9.31595 60.7233 11.3235 74.4829C15.4471 77.2178 15.3403 77.0682 16.1736 82.0465C18.3956 95.2292 24.0362 97.494 36.6207 90.251C42.2399 87.0033 43.0732 86.747 49.2693 86.4692C62.1102 85.8923 68.2636 82.2601 71.2975 73.5001C73.0282 68.415 68.8832 66.7271 66.3407 71.4703C62.858 78.0083 59.4608 79.8458 50.1239 80.2731C42.0904 80.6149 40.3384 81.1277 34.0995 84.9736C24.8054 90.6783 23.3311 90.2296 22.1133 81.1918C21.1304 73.842 20.5322 72.8164 14.8916 69.0774C6.15295 63.2445 4.42232 59.5482 9.03735 56.4929C21.7073 48.1174 46.0217 47.6687 60.2727 55.51C64.8237 58.0312 67.0457 57.8175 67.0457 54.869C67.0457 48.8652 47.8378 43.2246 30.7237 44.1861Z" fill="black"/>
<path d="M89.3299 45.8133C85.5909 46.3047 82.8133 48.249 82.8133 50.3856C82.8133 52.3512 84.5653 52.9281 88.0907 52.0948C92.5562 51.0479 94.5219 52.2017 95.2269 56.2398C96.2952 62.3718 93.2826 64.2734 82.386 64.3161C72.5577 64.3589 71.2758 62.0941 77.7069 56.0475C82.1724 51.8385 79.5016 48.7618 74.6729 52.5435C61.8961 62.5214 68.9042 71.6874 87.6207 69.508C97.6413 68.3543 100.996 65.299 101.017 57.4149C101.038 49.5737 96.3166 44.8945 89.3299 45.8133Z" fill="black"/>
<path d="M141.721 53.417C141.273 53.8871 140.888 54.5921 140.61 55.4895C137.662 65.211 118.903 70.6593 105.378 65.7238C100.506 63.9504 98.4126 68.2663 103.006 70.5952C117.642 78.0733 145.695 68.48 145.93 55.8955C145.973 52.9897 143.58 51.5796 141.721 53.417Z" fill="black"/>
<path d="M48.1378 57.9226C46.4285 59.6319 47.2831 61.5121 50.0607 62.1958C53.0519 62.9436 52.9024 63.3282 49.0138 65.0161C41.9203 68.0928 44.5483 72.7292 51.77 69.8875C57.496 67.6441 59.7181 63.5632 57.0901 60.1233C55.1244 57.538 49.8257 56.2347 48.1378 57.9226Z" fill="black"/>
<path d="M87.9627 71.0633C86.5739 72.2812 86.8944 73.6486 89.266 76.6398C100.782 91.2327 108.153 110.654 105.931 120.504C105.611 121.871 105.568 121.893 103.966 121.081C98.1542 118.154 91.7872 118.773 82.5785 123.132C71.5323 128.367 70.1435 127.683 69.2675 116.509C68.8829 111.723 68.1565 109.971 66.5541 109.971C61.8322 109.971 62.6655 125.076 67.6437 129.691C71.1905 132.982 74.9936 132.747 84.0527 128.644C91.9581 125.055 95.8467 124.393 100.013 125.867C100.846 126.145 102.363 126.7 103.432 127.063C115.012 131.208 114.862 109.479 103.175 88.2842C95.5903 74.5032 90.548 68.8199 87.9627 71.0633Z" fill="black"/>
<path d="M76.745 71.9412C75.869 72.7104 75.6767 73.2445 75.2494 76.0007C74.6512 79.7825 72.9846 84.6966 71.4035 87.4101C65.7416 97.0889 48.9907 100.401 32.3894 95.1018C29.2059 94.0976 27.2402 95.0805 27.9026 97.3666C28.9282 100.956 45.444 104.225 55.2296 102.815C69.5233 100.721 77.6637 93.2003 80.4627 79.462C81.7233 73.2873 79.7576 69.3132 76.745 71.9412Z" fill="black"/>
<path d="M125.16 76.2553C123.173 77.2595 124.369 79.9089 128.215 82.9856C136.89 89.9295 141.569 96.5956 141.911 102.493C142.06 105.078 142.167 105.035 138.663 103.903C132.702 101.958 131.014 102.065 125.331 104.8C120.908 106.937 119.711 107.279 116.613 107.3C113.558 107.3 112.938 107.642 112.938 109.308C112.938 112.834 120.31 112.876 128.429 109.372C132.168 107.77 132.681 107.749 136.548 108.966C145.992 111.979 149.816 107.492 146.782 97.023C143.94 87.1946 129.988 73.7982 125.16 76.2553Z" fill="black"/>
<path d="M122.939 85.8302C121.657 86.8344 121.977 88.1377 124.093 90.5093C126.443 93.1801 128.302 93.9492 129.498 92.7527C131.656 90.5948 125.332 83.9286 122.939 85.8302Z" fill="black"/>
<path d="M114.414 89.9735C112.064 92.1528 116.102 98.2207 119.905 98.2207C122.191 98.2207 122.084 95.2295 119.691 91.9819C117.768 89.3966 115.824 88.6702 114.414 89.9735Z" fill="black"/>
<path d="M89.116 101.063C87.2571 101.918 87.6417 104.909 90.1629 109.204C92.8977 113.883 96.4231 110.806 94.2651 105.593C92.449 101.234 91.1885 100.123 89.116 101.063Z" fill="black"/>
<path d="M77.8351 105.718C76.3608 106.85 76.895 110.311 79.2452 114.734C81.2963 118.623 85.249 117.512 84.3089 113.303C83.7107 110.589 82.0228 106.572 81.1681 105.782C80.4203 105.098 78.647 105.055 77.8351 105.718Z" fill="black"/>
</svg>
