<svg width="177" height="210" viewBox="0 0 177 210" fill="none" xmlns="http://www.w3.org/2000/svg">
<path d="M37.3408 0.733395C31.2088 2.29311 26.081 10.0062 22.9616 22.4411C18.0474 41.9696 18.6456 59.8101 24.564 70.1939C25.3118 71.4972 25.3545 71.775 24.7777 71.775C19.1798 71.775 4.3305 81.0478 1.83069 86.1115C-2.72024 95.3416 3.64679 114.891 13.646 122.412C25.9314 131.642 54.2412 131.151 66.9966 121.472C68.4923 120.34 68.4068 120.297 68.9623 122.733C71.2057 132.689 70.3511 139.355 64.1977 159.909C58.3007 179.545 56.7838 187.728 56.741 200.077C56.7197 206.872 57.0829 208.153 59.3263 209.072C62.1893 210.269 63.3858 209.136 66.4625 202.342C70.928 192.471 74.1329 186.36 79.9444 176.617C83.9184 169.994 83.3843 170.4 84.6021 172.985C92.8921 190.762 115.219 206.423 121.437 198.838C123.766 195.996 123.552 193.732 120.07 183.732C116.16 172.494 115.198 166.127 114.728 147.944C114.514 140.189 114.279 134.698 113.959 131.044C113.831 129.527 113.831 129.527 116.245 130.723C141.585 143.223 171.903 128.63 175.984 102.008C177.586 91.5171 162.16 75.4927 144.704 69.5102C142.974 68.912 142.974 68.912 143.892 67.0745C152.823 49.2767 155.921 9.83527 148.7 5.86121C137.995 -0.0144108 100.862 25.8383 89.2813 47.2042C88.7685 48.1657 88.7685 48.1657 86.0977 48.1871C83.427 48.2084 81.2263 48.593 78.8547 49.4263C77.701 49.8536 77.8505 50.0245 77.2309 47.5033C71.4835 23.8727 49.1775 -2.25783 37.3408 0.733395ZM42.4045 8.21146C51.6346 12.6342 64.6037 30.5602 70.6288 47.1829C71.804 50.4091 72.039 50.3236 68.2145 48.1871C52.8097 39.6193 41.6781 26.4579 38.4518 13.0188C37.1485 7.54912 38.2595 6.20306 42.4045 8.21146ZM145.709 10.8822C145.709 12.7624 139.812 19.7277 133.893 24.8555C123.894 33.5087 113.51 39.7262 100.007 45.089C95.6697 46.8196 95.8406 46.8196 97.2507 45.0463C107.805 31.8421 125.988 17.6338 139.277 12.2282C142.397 10.9677 145.709 10.2626 145.709 10.8822ZM34.7983 21.5651C40.4602 34.7479 52.3183 47.2042 66.0138 54.3191C67.3599 55.0241 68.5136 55.6437 68.5564 55.6651C68.5991 55.7078 68.3854 56.3061 68.0863 56.9898C66.2702 61.0066 66.3343 68.6342 68.2572 76.1764C68.8982 78.7189 69.176 78.4625 65.1592 79.1249C41.6567 83.0776 29.2431 74.9799 26.8074 54.084C25.675 44.4694 27.9825 26.928 31.7643 16.4801C32.3198 14.899 32.3198 14.899 33.2172 17.4415C33.7086 18.8303 34.4137 20.6891 34.7983 21.5651ZM146.136 28.6159C145.046 52.1397 138.337 70.1512 128.915 74.8731C124.108 77.266 115.198 77.3088 105.754 74.9585C96.567 72.6724 97.3362 73.4415 97.1866 66.4122C97.0371 59.8742 96.8234 57.8872 95.9047 55.1737C95.456 53.8063 95.4987 53.4003 96.0756 53.4003C97.614 53.4003 108.938 49.0417 114.087 46.4564C124.749 41.1149 137.867 31.0089 144.811 22.7616C146.52 20.7532 146.52 20.6891 146.136 28.6159ZM88.5335 54.8532C91.952 56.8402 91.6956 75.514 88.1916 78.7616C85.3499 81.411 77.936 81.4324 76.3976 78.783C74.1756 74.9371 73.5987 63.6346 75.4362 59.8742C77.2736 56.0711 85.3286 52.9944 88.5335 54.8532ZM144.32 76.0482C158.464 83.0989 173.356 97.8628 168.784 100.341C163.635 103.14 146.52 92.8418 136.671 80.9837C134.705 78.6334 134.748 78.9539 136.265 77.6079C136.949 77.0096 137.995 75.92 138.572 75.2149C139.833 73.6552 139.363 73.5911 144.32 76.0482ZM30.6533 78.2061C32.7899 80.4282 36.6144 82.7784 40.2252 84.0604C42.4045 84.8296 42.4259 84.7655 39.6269 86.1329C30.6319 90.5983 17.2782 92.4572 10.2061 90.2351C8.19773 89.5942 8.17636 89.5942 8.98826 88.3763C11.1249 85.1287 18.4534 80.8982 26.6579 78.1848C29.7559 77.1592 29.6491 77.1378 30.6533 78.2061ZM103.084 81.176C111.822 83.4621 120.475 84.039 126.159 82.7571C128.851 82.1375 128.616 82.0947 129.577 83.569C135.987 93.6323 155.045 106.238 165.237 107.157C166.861 107.306 166.861 107.306 165.857 108.717C152.054 128.373 133.637 133.394 116.865 122.092C112.271 118.994 112.228 118.951 111.181 114.742C108.147 102.649 102.699 90.9829 96.2679 82.7571C94.3236 80.2786 95.1142 78.8257 97.9131 79.7231C99.0027 80.065 101.332 80.7273 103.084 81.176ZM66.3129 87.1584C63.4713 93.9101 63.3644 102.691 65.9924 111.772C67.5949 117.306 48.3229 123.203 33.1958 121.793C19.0089 120.446 12.5136 114.592 8.45412 99.3797C7.98407 97.6064 7.9627 97.3927 8.28319 97.5209C18.197 101.431 42.725 95.0638 48.5152 87.0943C49.1134 86.2824 49.1134 86.2824 55.9078 86.2183C61.4629 86.1542 63.0867 86.0688 64.8387 85.7269C66.0138 85.5133 66.9966 85.3423 67.018 85.3423C67.0607 85.3637 66.7403 86.1756 66.3129 87.1584ZM77.6796 87.2439C78.406 87.4362 79.3461 87.5858 79.7521 87.5858C81.1622 87.5858 81.1409 87.543 81.1622 90.6838C81.2263 99.102 82.7647 107.947 86.0123 118.353C91.546 136.193 89.8581 146.598 78.171 166.426C71.4621 177.814 69.6887 180.955 66.4625 187.151C64.4968 190.89 64.4968 190.89 64.6464 189.608C65.3301 183.134 67.0821 175.848 71.3553 161.832C78.8761 137.069 79.2393 130.702 74.1329 113.332C70.2229 100.021 69.9879 93.8673 73.1714 87.2439C73.8978 85.7269 73.8978 85.7269 75.137 86.3252C75.8208 86.6457 76.9745 87.073 77.6796 87.2439ZM93.7895 91.8589C101.481 107.264 105.348 120.724 106.588 136.62C106.887 140.381 106.994 142.817 107.25 150.081C107.912 169.097 109.002 175.058 114.578 189.715C116.566 194.971 116.566 194.971 112.25 192.813C102.357 187.877 93.2126 178.455 88.3198 168.221C86.6746 164.823 86.7174 165.294 88.042 162.986C97.0157 147.282 98.1908 133.95 92.187 115.532C89.089 106.089 88.1489 100.875 87.1019 87.714C87.0592 87.1584 87.166 87.073 88.3412 86.6457C89.0462 86.3893 89.8154 86.0688 90.0504 85.9406C90.5632 85.6415 91.0974 86.4747 93.7895 91.8589Z" fill="black"/>
</svg>
