<svg width="120" height="148" viewBox="0 0 120 148" fill="none" xmlns="http://www.w3.org/2000/svg">
<path d="M63.6084 1.30963C60.318 2.01471 58.0319 2.95481 51.8785 6.22379C46.9216 8.83043 45.0628 8.85179 39.2512 6.28788C28.1196 1.37373 19.8724 2.89071 11.8602 11.3302C2.35235 21.3295 0.472147 38.935 8.01431 47.289C10.1723 49.682 13.4626 47.93 12.0311 45.1524C7.3306 36.0506 10.5996 20.4748 18.6118 13.8728C24.3806 9.10818 28.7606 8.78769 36.7087 12.5481C45.0841 16.4794 47.7335 16.3726 57.3054 11.5866C66.9201 6.7793 68.3943 6.7152 75.7228 10.9884C80.3378 13.6805 83.6923 14.0223 92.2386 12.6336C102.729 10.9456 107.109 11.5225 110.699 15.112C114.224 18.6374 114.224 23.1242 110.677 30.9014C108.413 35.8583 108.69 39.0204 111.34 38.6145C116.275 37.8239 121.424 24.9189 119.63 17.8255C116.938 7.16389 107.131 2.82661 91.4908 5.36915C83.735 6.62974 82.1539 6.48018 77.7526 4.00173C72.4325 1.05324 68.4157 0.284069 63.6084 1.30963Z" fill="black"/>
<path d="M55.2316 14.661C51.2789 15.6225 46.9416 19.0624 42.7753 24.532C41.301 26.4977 41.301 26.4977 39.6772 24.9594C26.0458 11.9048 10.6623 20.323 13.5895 39.2318C15.5979 52.2436 25.063 71.2379 30.2335 72.648C33.8016 73.6522 34.3998 70.896 31.6223 66.1314C21.1957 48.1413 17.4567 29.5957 23.6528 26.4763C26.8791 24.8525 30.8317 26.3909 35.5322 31.1127C40.8523 36.4542 42.9462 36.3046 47.5612 30.1726C54.6333 20.8144 57.5177 19.682 62.5387 24.3184C69.6963 30.9418 72.9866 31.305 81.5116 26.4763C102.621 14.5114 103.497 26.7114 83.4132 53.4187C76.277 62.9052 75.9351 63.4607 75.9138 65.64C75.8069 73.0967 84.5029 66.4733 94.8867 51.1539C106.787 33.5912 108.475 20.3871 99.3949 15.9216C93.9893 13.2508 87.9855 14.4046 78.0076 20.0238C72.5593 23.1005 71.9183 23.0578 67.987 19.4683C62.9019 14.8106 59.6543 13.5927 55.2316 14.661Z" fill="black"/>
<path d="M53.0098 36.9687C51.0014 38.1866 50.339 50.2583 52.091 53.6982C53.2661 55.9843 55.8728 55.8775 56.8342 53.4632C57.7316 51.2411 57.112 39.2121 56.0223 37.5456C55.3814 36.5841 54.0567 36.3277 53.0098 36.9687Z" fill="black"/>
<path d="M28.7192 42.0304C27.7791 43.1201 27.8004 44.3166 28.8046 45.9831C30.1079 48.0984 31.5822 51.5596 32.4368 54.5081C34.2316 60.7897 37.7142 62.499 38.9534 57.713C40.5345 51.581 31.924 38.3555 28.7192 42.0304Z" fill="black"/>
<path d="M75.2523 42.9522C73.9704 43.5504 73.2653 44.4264 70.7655 48.5287C69.5049 50.5798 67.9452 52.9728 67.2828 53.8274C65.189 56.4981 65.1035 56.6477 65.1035 57.6305C65.1035 59.7885 67.3683 60.6645 69.4408 59.3184C76.4702 54.7034 81.7048 39.9609 75.2523 42.9522Z" fill="black"/>
<path d="M105.336 44.3595C102.516 46.261 95.3799 56.2389 95.3799 58.2687C95.3799 60.6617 97.9652 61.2385 99.9522 59.2942C101.277 58.0123 107.687 50.0001 108.669 48.419C110.913 44.8082 108.691 42.0947 105.336 44.3595Z" fill="black"/>
<path d="M9.5963 52.7609C8.25024 54.0215 8.91259 57.1622 11.7756 62.8028C14.9805 69.1271 18.9546 65.5163 16.0915 58.8929C13.2499 52.3763 11.6474 50.8593 9.5963 52.7609Z" fill="black"/>
<path d="M92.5379 65.1733C90.5295 66.3911 91.4055 69.2328 93.9053 69.596C98.3708 70.237 99.2255 73.2068 95.9137 76.604C91.8329 80.7917 94.4822 84.7658 99.6528 82.1805C108.626 77.6937 104.952 64.7673 94.6959 64.7673C93.6062 64.7673 93.0293 64.8741 92.5379 65.1733Z" fill="black"/>
<path d="M45.6616 67.97C40.3201 69.1024 36.6024 75.2985 38.1835 80.4264C41.9653 92.669 65.5318 91.5366 65.5318 79.1017C65.5318 73.867 59.528 68.6537 56.5154 71.2604C54.9344 72.6278 55.0625 74.2089 56.9855 77.2001C58.7375 79.8708 57.3914 81.3878 53.0542 81.6015C44.6574 82.0288 41.5593 74.0593 49.6997 73.0124C52.3704 72.6705 53.4387 69.8289 51.409 68.3974C50.6612 67.8632 47.3495 67.6282 45.6616 67.97Z" fill="black"/>
<path d="M14.2541 69.0602C6.1564 70.6413 4.85308 81.2388 12.3098 84.9137C16.5402 87.0076 19.446 83.4181 16.3052 79.9782C13.2499 76.6451 13.8695 74.9999 18.5272 74.1667C21.7321 73.5898 22.6295 70.4917 19.9801 69.1243C19.3392 68.7825 15.8565 68.7397 14.2541 69.0602Z" fill="black"/>
<path d="M27.8421 78.0129C26.9661 78.2907 25.7696 79.5085 22.4792 83.4612C7.71541 101.28 4.04048 113.544 11.3476 120.488C15.9626 124.868 22.6929 125.616 35.4697 123.18C41.8795 121.963 41.324 121.898 42.8409 123.885C51.195 134.868 66.8776 132.197 71.3003 119.035C72.0054 116.877 71.7703 117.006 74.2274 117.561C87.1752 120.446 96.4693 114.378 95.7856 103.438C95.166 93.1613 87.6666 80.3845 82.1969 80.2777C78.5006 80.2136 78.4365 82.9484 81.9832 88.3967C86.2137 94.892 88.4357 102.135 87.517 106.472C86.7265 110.147 80.5731 111.515 73.0096 109.656C67.5826 108.331 65.9375 109.25 64.3564 114.442C61.6002 123.565 54.1862 125.253 48.7593 117.946C45.5544 113.673 43.0119 113.032 35.021 114.527C11.839 118.843 10.7494 112.925 29.4873 84.7645C31.3461 81.987 31.7307 81.0041 31.4529 79.7436C31.1324 78.2266 29.5727 77.5001 27.8421 78.0129Z" fill="black"/>
<path d="M8.39873 89.1251C3.27092 93.8256 -0.361284 105.021 1.13433 111.581C2.28809 116.623 5.72799 115.085 6.66809 109.102C7.99278 100.684 9.21063 97.0518 12.0309 92.8855C14.6803 89.0182 11.7959 86.0484 8.39873 89.1251Z" fill="black"/>
<path d="M65.489 90.9391C62.6687 93.5671 67.7965 103.203 72.0056 103.224C74.7832 103.246 74.9541 100.703 72.4543 97.0925C71.6851 96.0028 70.7023 94.3149 70.2323 93.3107C68.9289 90.4904 67.006 89.5289 65.489 90.9391Z" fill="black"/>
<path d="M99.6108 91.0883C98.0511 91.9857 97.8588 92.9472 98.6494 96.0879C100.359 102.861 100.23 107.711 98.1793 114.078C96.1923 120.274 97.8375 123.65 101.406 120.616C108.349 114.655 106.683 87.0502 99.6108 91.0883Z" fill="black"/>
<path d="M35.9384 92.5209C35.4684 92.7986 34.977 93.5464 34.1864 95.1275C33.5668 96.3453 32.2849 98.546 31.302 99.9989C26.8152 106.686 31.9003 109.891 36.5794 103.353C41.0021 97.1573 40.5535 89.7006 35.9384 92.5209Z" fill="black"/>
<path d="M48.1379 96.1122C45.3176 99.1461 48.2874 110.705 51.8983 110.705C54.0562 110.705 54.6331 108.12 53.5221 103.334C53.223 102.031 52.7956 100.022 52.6033 98.847C52.0265 95.6208 49.8471 94.2747 48.1379 96.1122Z" fill="black"/>
<path d="M3.63486 119.89C0.814563 121.6 2.03242 129.484 5.68599 133.415C9.21136 137.154 13.2281 138.137 23.0137 137.539C33.1839 136.94 35.3846 137.496 42.6703 142.325C53.631 149.61 59.4426 149.311 68.053 141.021C73.2663 136.022 74.356 135.445 80.5948 134.419C86.62 133.415 89.5471 131.77 91.7478 128.138C93.3075 125.638 92.6665 122.796 90.5299 122.647C88.6497 122.54 88.5002 122.604 86.5986 124.356C84.3125 126.471 82.8596 127.198 79.5265 127.924C71.5784 129.633 69.5486 130.637 64.0149 135.594C57.1564 141.769 54.678 141.833 46.0889 136.128C37.7135 130.552 33.7821 129.676 22.3727 130.787C11.6257 131.834 7.71575 129.697 7.60892 122.711C7.58755 120.168 5.53642 118.715 3.63486 119.89Z" fill="black"/>
</svg>
