<svg width="77" height="96" viewBox="0 0 77 96" fill="none" xmlns="http://www.w3.org/2000/svg">
<path d="M34.7584 1.33183C15.3155 3.9171 11.4483 7.35701 13.0721 20.5611C13.7558 26.0308 17.6871 48.4436 18.1358 49.2982C19.1613 51.3066 21.8321 51.6485 23.1354 49.9392C24.3105 48.4009 24.0969 44.6191 22.0457 30.2826C19.5887 13.1044 19.5887 12.5917 22.4303 11.2456C26.3616 9.38677 41.5314 7.07925 42.3861 8.21165C42.9202 8.91672 43.2621 11.096 44.4799 21.6294C45.4414 29.7912 47.1507 39.5981 48.2189 43.0594C49.0949 45.8797 51.1674 46.9266 53.1758 45.5165C54.6928 44.4696 54.7569 41.5638 53.4963 33.808C52.4494 27.4837 52.193 25.6676 51.317 18.4245C49.2659 1.31046 47.6207 -0.377444 34.7584 1.33183Z" fill="black"/>
<path d="M5.76485 7.73363C-1.69184 11.4727 -1.60638 22.5829 6.04261 45.6581C8.41422 52.8584 9.52525 54.354 12.0464 53.7558C14.7172 53.1148 14.7172 50.38 12.0251 41.9618C6.25627 23.9717 5.52983 15.7031 9.46115 12.5623C13.5848 9.22925 10.5935 5.31929 5.76485 7.73363Z" fill="black"/>
<path d="M32.1953 32.7102C25.9992 33.2657 25.9351 37.432 31.9603 44.4828C32.9859 45.6579 32.9859 45.6579 32.3876 46.598C30.9134 48.9055 30.2938 52.8796 30.9988 55.5717C31.3193 56.8322 31.3193 56.9818 30.9988 57.4732C28.8836 60.6995 31.6398 62.7506 35.7207 60.9986C37.7291 60.144 40.7417 59.4603 43.4979 59.2252C48.0488 58.862 49.8222 56.5759 47.4506 54.1829C46.9805 53.7128 46.7241 53.2641 46.7241 52.8796C46.7028 50.6148 43.9893 44.7392 42.9424 44.6964C42.0236 44.6537 41.8527 43.9486 42.2587 42.0043C43.9893 33.693 41.9809 31.8342 32.1953 32.7102ZM36.9813 38.6499C36.6181 40.1241 36.5967 40.1455 35.8489 39.0772C35.1652 38.073 35.1652 38.073 36.148 38.073C37.0881 38.073 37.1095 38.0944 36.9813 38.6499ZM39.5025 50.6789C40.6776 53.0719 40.5921 53.2855 38.5196 53.7769C36.4899 54.2683 36.4685 54.2256 37.2377 51.4267C37.8573 49.0978 38.6051 48.8628 39.5025 50.6789Z" fill="black"/>
<path d="M51.9575 50.6795C47.663 52.0042 49.7782 56.2132 57.4272 61.6402C63.7942 66.1484 64.0506 65.251 55.5897 68.0927C44.9495 71.6821 44.6931 71.618 30.2498 61.9607C23.2418 57.2602 22.0453 56.8756 20.571 58.8626C18.9686 61.0419 19.8873 62.153 28.8824 68.9259C41.1036 78.1346 44.2231 78.9038 55.141 75.3357C75.225 68.7764 75.6096 65.9775 58.1536 53.0084C55.0128 50.6795 53.6454 50.1667 51.9575 50.6795Z" fill="black"/>
<path d="M16.5329 66.5339C14.5459 68.4355 14.0759 76.4691 15.7638 79.7808C17.8149 83.819 25.4211 87.6007 42.1293 92.9636C50.9747 95.7838 51.3166 95.8052 62.2987 93.6473C73.3662 91.4893 73.7935 91.3611 75.2678 89.4168C77.6607 86.276 75.7805 75.1017 72.5329 73.1146C69.5631 71.3199 67.8538 73.8197 68.9221 78.392C70.1827 83.8617 70.375 85.4 69.8622 85.6778C69.4776 85.8914 56.594 88.5194 53.9446 88.9254C49.586 89.6091 26.9808 82.1097 22.4513 78.4988C20.5284 76.9605 19.9942 74.9735 20.4215 70.8499C20.8916 66.4485 18.9259 64.2692 16.5329 66.5339Z" fill="black"/>
<path d="M24.3538 70.2523C22.6873 71.5556 22.4523 77.1535 23.9906 78.4782C25.3794 79.6747 27.3237 78.7987 27.9219 76.7262C29.3748 71.6838 27.3023 67.9234 24.3538 70.2523Z" fill="black"/>
<path d="M33.5852 75.5304C31.2349 76.9833 31.5554 82.6666 34.0339 83.158C36.2773 83.6281 37.7943 81.3206 37.4524 77.9234C37.2601 75.8082 35.209 74.5476 33.5852 75.5304Z" fill="black"/>
<path d="M60.0574 76.6995C57.9636 78.6224 59.5019 83.793 62.1727 83.793C64.7366 83.793 65.6339 79.1566 63.4973 77.02C62.6427 76.1653 60.8052 75.9944 60.0574 76.6995Z" fill="black"/>
<path d="M43.5608 79.693C42.5138 80.6758 42.3856 82.5346 43.1975 84.6071C44.3086 87.3419 47.7912 86.9787 48.1331 84.0943C48.5818 80.3126 45.7828 77.6205 43.5608 79.693Z" fill="black"/>
<path d="M52.0653 80.1672C50.1851 82.1756 51.873 86.3633 54.5865 86.3633C56.5308 86.3633 57.4068 84.5685 56.7658 81.8978C56.2316 79.633 53.5182 78.6288 52.0653 80.1672Z" fill="black"/>
</svg>
