<svg width="131" height="109" viewBox="0 0 131 109" fill="none" xmlns="http://www.w3.org/2000/svg">
<path d="M24.6532 0.248444C15.2095 1.3381 9.12019 3.77382 4.69745 8.28202C-4.27622 17.4053 0.830223 31.4854 14.7608 36.0363C26.4052 39.8394 45.3567 36.4636 57.0439 28.5155C58.7318 27.3831 58.8813 26.5499 55.3773 36.9764C47.2369 61.2267 45.9336 71.1405 49.0317 85.1565C51.2964 95.348 56.3388 92.9337 54.8218 82.3789C53.6681 74.2385 53.839 66.5468 55.3346 58.6628C56.5738 52.2103 62.364 32.4041 62.6204 33.7929C63.1332 36.6559 62.5776 55.5006 61.5948 69.4526C59.8428 93.6815 61.6162 108.445 66.2312 108.445C68.1755 108.445 68.8378 105.796 68.1541 100.839C67.214 94.2156 67.0858 86.3103 67.7055 75.2427C68.2182 66.1622 68.5601 58.8764 68.6669 55.0306C68.731 52.7444 68.8378 50.1378 68.8806 49.2618C69.1156 45.5441 68.2396 28.1737 67.7909 27.4259C67.5986 27.1054 67.9405 27.2549 69.9061 28.3019C84.1999 35.9722 103.386 38.7498 115.031 34.8398C130.286 29.7334 135.905 11.6578 124.453 4.50026C111.356 -3.66151 80.0977 0.889421 64.8424 13.1534C62.9409 14.6918 62.9409 14.6918 61.7871 13.4098C54.2449 4.94894 37.0454 -1.1617 24.6532 0.248444ZM112.958 6.44455C124.24 8.08973 127.979 13.9867 122.723 21.9135C117.531 29.7334 105.352 32.2973 89.7123 28.8146C80.6104 26.8062 69.3506 22.0203 68.8592 19.9692C68.731 19.4136 68.4533 18.6658 68.261 18.2813C68.0687 17.8967 67.9191 17.5548 67.9191 17.5121C67.9191 17.3412 71.8932 14.9695 74.222 13.7731C86.0587 7.64104 101.335 4.75665 112.958 6.44455ZM33.05 6.9787C43.8825 8.15382 58.0481 14.8841 56.5738 18.1744C56.3174 18.7513 56.0824 19.7128 56.0397 20.2896C55.9756 21.5075 56.0824 21.4007 53.2835 23.1313C34.4601 34.8612 10.8081 33.9852 7.00496 21.422C4.2274 12.3629 17.0683 5.2267 33.05 6.9787Z" fill="black"/>
</svg>
