<svg width="71" height="94" viewBox="0 0 71 94" fill="none" xmlns="http://www.w3.org/2000/svg">
<path d="M54.6931 1.04336C48.7321 2.30395 42.3223 6.42757 37.2799 12.2177C35.6134 14.1407 35.6134 14.1407 34.5237 12.7091C25.8278 1.42795 7.34633 9.46152 1.8553 26.9175C-4.42628 46.7877 11.534 83.7721 29.6309 91.2929C42.6428 96.7198 50.7405 90.0964 60.0987 66.4016C76.4436 25.0586 74.1147 -3.14435 54.6931 1.04336ZM61.1456 8.11547C71.2303 13.9911 53.4112 78.8793 40.0148 85.0327C28.6481 90.2673 10.5512 66.188 7.26087 41.4463C5.57296 28.7336 11.4913 17.4096 21.576 14.0338C26.1697 12.5168 31.7248 16.6405 31.5539 21.4478C31.4898 23.4348 32.8358 24.6954 34.5665 24.2894C35.3356 24.0972 35.7202 23.7339 38.8824 20.1445C46.9373 10.9785 56.8725 5.61566 61.1456 8.11547Z" fill="black"/>
<path d="M45.783 21.513C42.5781 22.3035 38.6468 25.4229 35.271 29.8884C34.2668 31.1917 34.2668 31.1917 33.0703 30.0807C15.7853 13.9922 9.80285 46.2974 26.0409 68.1547C34.5659 79.6709 40.1638 76.3378 48.8811 54.5446C57.5342 32.8369 56.2523 18.9918 45.783 21.513ZM47.8769 28.7133C48.3896 30.508 47.9196 35.5076 46.894 39.5885C44.4156 49.3955 36.3606 68.0051 34.6086 68.0051C32.9635 68.0051 27.1306 58.0486 25.5281 52.4508C23.5411 45.571 23.3916 32.9651 25.2931 32.9651C26.4255 32.9651 31.0833 37.4947 31.3183 38.798C31.8311 41.8747 34.8009 41.6396 37.0016 38.3279C41.2748 31.8754 47.2786 26.5553 47.8769 28.7133Z" fill="black"/>
</svg>
