<svg width="71" height="100" viewBox="0 0 71 100" fill="none" xmlns="http://www.w3.org/2000/svg">
<path d="M37.6778 1.07485C34.1524 2.03632 31.6099 6.1813 32.3363 9.83487C34.067 18.6162 47.9548 17.4198 47.9334 8.46745C47.9334 5.21983 45.1986 3.5533 43.5107 5.75398C43.2329 6.09584 42.9765 6.84364 42.8911 7.52735C42.656 9.51438 41.2245 10.6254 39.5153 10.1554C37.2077 9.51438 37.5496 7.07867 40.1349 5.81808C44.3653 3.80969 42.2928 -0.185735 37.6778 1.07485Z" fill="black"/>
<path d="M6.38047 10.5592C1.61588 13.1659 1.76544 21.4131 6.63686 23.9984C14.1363 27.9938 22.939 19.4475 17.4053 13.5291C14.585 10.4952 11.5724 12.8668 13.4526 16.6272C14.3927 18.486 13.0253 20.2166 10.6109 20.2166C7.17101 20.2166 6.63686 14.6401 10.0127 14.1274C11.8501 13.871 12.6407 11.9908 11.4869 10.6233C10.6964 9.68325 8.04701 9.64052 6.38047 10.5592Z" fill="black"/>
<path d="M57.7617 18.9169C54.7277 19.5365 52.5484 22.9123 52.9116 26.4163C53.7876 34.7917 66.2439 37.9325 69.6198 30.6254C71.4359 26.7368 69.1924 21.5021 65.7098 21.5021C63.2741 21.5021 62.6545 23.2114 63.9578 26.224C65.1115 28.8093 63.5518 29.7921 60.817 28.211C58.9368 27.1214 58.1463 24.7711 59.3855 23.9165C61.1161 22.72 61.4793 22.2499 61.4793 21.1176C61.4793 19.1946 60.176 18.4468 57.7617 18.9169Z" fill="black"/>
<path d="M36.1832 19.5135C33.7689 20.4322 33.5125 21.1587 27.0386 45.2808C25.7994 49.9385 25.7994 49.9385 24.7738 46.99C19.1546 30.9656 15.5651 25.966 11.2706 28.188C9.04855 29.3418 8.55714 30.8588 6.71967 42.0118C6.14279 45.6012 5.03177 51.7974 4.26259 55.7928C0.673125 74.5307 0.480832 77.3937 2.61742 78.5475C5.03177 79.8294 6.50601 77.0305 8.38621 67.7149C9.98865 59.7241 11.0569 53.6989 13.0012 41.264C13.3217 39.2769 13.6422 37.4608 13.7277 37.2472C14.0054 36.5207 16.6121 42.6314 19.8383 51.5837C22.7227 59.6173 23.3851 60.6001 25.9276 60.6001C29.047 60.6001 29.5171 59.6386 33.1706 45.7508C35.9909 35.1106 36.3114 33.9355 36.461 34.3201C36.5251 34.491 36.8883 37.0976 37.2515 40.0888C40.3709 65.2792 41.1615 67.8645 45.6697 67.8645C48.4045 67.8645 50.0497 65.7706 54.1519 56.9679C56.5663 51.776 56.4595 51.1564 55.968 66.1552C55.7757 71.7317 55.5621 79.5516 55.4766 83.5043C55.4125 87.4784 55.3057 90.726 55.263 90.726C55.1989 90.726 54.622 90.2987 53.9596 89.7859C40.3709 79.3807 19.4537 77.2655 4.0062 84.7436C-1.99761 87.6493 -0.331072 91.8157 5.75821 89.1663C20.8425 82.607 39.3026 85.4486 52.4213 96.3666C56.1603 99.4647 57.6987 100.02 59.5575 98.8664C61.3736 97.734 61.5445 96.8153 61.8223 87.6921C61.9505 83.6539 62.2282 76.1545 62.4633 71.0267C63.617 45.2594 63.2324 41.3708 59.3011 40.3239C55.8398 39.3838 54.1733 41.499 48.3618 54.1262C46.5457 58.0576 46.0115 58.9763 46.0115 58.1858C46.0115 58.0362 45.7765 56.3697 45.4774 54.4895C45.1783 52.6306 44.3236 45.9431 43.5545 39.6615C41.6529 24.0431 41.4179 22.6756 40.3282 21.0305C39.4949 19.7272 37.5079 19.0221 36.1832 19.5135Z" fill="black"/>
</svg>
