<svg width="59" height="81" viewBox="0 0 59 81" fill="none" xmlns="http://www.w3.org/2000/svg">
<path d="M40.5411 0.704194C38.2549 0.811024 31.0973 0.960585 24.6235 1.06741C10.7997 1.23834 12.0603 0.960585 9.13319 4.55005C8.15036 5.74654 6.48382 7.69084 5.4369 8.88733C1.93289 12.8614 1.78333 13.8869 4.19767 18.0747C5.94968 21.1514 6.82568 22.8606 8.62041 26.8347C9.96646 29.7832 9.96646 29.7832 8.57768 31.3215C-5.39561 46.5981 -0.737846 73.4551 16.9104 79.1811C29.6231 83.3261 47.4422 77.13 54.1725 66.212C62.0565 53.4566 57.7833 36.5348 44.6647 28.608C43.2331 27.7534 42.8913 28.5226 47.7414 21.5787C50.0702 18.2456 52.3564 14.9552 52.8478 14.2288C54.3434 11.9854 54.2793 10.5752 52.5059 8.31045C51.3522 6.8362 49.4293 4.1441 48.3823 2.49893C47.1431 0.575999 46.5662 0.447804 40.5411 0.704194ZM44.686 7.92587C45.2202 8.63094 45.6689 9.22918 45.6689 9.27192C45.6689 9.31465 43.4041 9.35738 40.6479 9.40011C35.6269 9.46421 35.6269 9.46421 35.6269 8.18226C35.6269 6.87894 35.6269 6.87894 39.6437 6.81484C41.8444 6.79347 43.6605 6.75074 43.6818 6.70801C43.7032 6.68664 44.1519 7.24216 44.686 7.92587ZM18.0428 7.17806C17.9787 7.34899 17.8077 8.24635 17.6582 9.16509C17.4018 10.8744 17.4018 10.8744 14.5388 11.1307C11.0348 11.4512 11.163 11.6863 13.3209 9.05826C15.0302 7.00713 18.6624 5.55425 18.0428 7.17806ZM29.6017 8.28909C29.4094 10.0411 29.7513 9.82743 26.7387 10.0838C22.8287 10.4043 23.2347 10.5752 23.2347 8.58821C23.2347 6.87894 23.2347 6.87894 26.5037 6.87894C29.7726 6.87894 29.7726 6.87894 29.6017 8.28909ZM43.9169 16.5791C41.3102 20.4035 37.6139 25.0399 37.2293 24.9545C36.9943 24.9117 36.0328 24.6554 35.0927 24.4203C30.2641 23.117 26.3968 23.6939 25.82 25.8305C25.2644 27.7961 26.3541 29.3986 28.7043 30.0396C45.5834 34.7614 53.2538 44.0342 50.6898 56.6828C48.4037 68.0708 33.9604 76.2326 20.9058 73.5405C3.94128 70.0579 2.57387 41.1071 18.8547 30.2746C21.269 28.6508 21.5681 28.3089 21.5895 26.9415C21.6322 24.6767 19.4316 23.9289 16.654 25.2536C15.1797 25.9373 14.902 26.0228 14.902 25.6809C14.902 25.2963 13.385 21.5787 12.2099 19.1002C11.0775 16.7072 11.0775 16.7072 13.15 16.7072C14.2824 16.7072 15.5643 16.6431 15.9916 16.5791C16.7608 16.4509 16.7608 16.4509 16.8676 18.2883C17.2309 23.9289 22.4014 23.117 22.8501 17.3482C22.9356 16.4509 23.427 16.3013 26.7814 16.3013C28.9394 16.2799 28.9394 16.2799 29.0462 17.7542C29.4308 23.0102 34.7723 22.7965 35.1568 17.5191C35.2637 15.9167 34.7723 16.0235 41.9939 15.8953C44.4083 15.8526 44.4083 15.8526 43.9169 16.5791Z" fill="black"/>
<path d="M28.2559 36.6847C28.1491 36.7274 27.7858 36.8129 27.4867 36.877C26.6321 37.0693 25.457 38.3512 25.3074 39.2272C24.9655 41.2997 26.0338 42.3894 29.4524 43.5004C41.6737 47.4317 41.8019 59.2471 29.666 62.3451C19.3677 64.9731 13.5562 51.9399 20.7778 42.4535C23.6836 38.6503 20.2437 35.6164 16.6115 38.7785C9.0266 45.3592 9.24026 59.3539 16.9961 65.7209C29.1319 75.6347 50.0491 62.1956 44.6863 47.9231C42.1651 41.2356 33.1273 35.0609 28.2559 36.6847Z" fill="black"/>
</svg>
