<svg width="51" height="109" viewBox="0 0 51 109" fill="none" xmlns="http://www.w3.org/2000/svg">
<path d="M15.0937 1.00108C2.70147 1.85571 -0.652972 4.01367 0.458055 10.3807C1.80411 18.0511 4.47484 19.6962 13.769 18.6493C17.6149 18.222 17.3585 18.0724 17.5508 20.9568C17.7217 23.6062 17.9994 23.3071 14.8587 23.8199C8.21387 24.8668 6.93192 25.6573 6.91055 28.734C6.86782 33.0285 9.47446 35.8061 13.534 35.7634C16.0765 35.7634 15.6919 35.101 16.3756 40.9126C17.0807 47.0232 17.8499 55.9969 18.1917 62.1716C18.3627 65.3979 18.555 68.2609 18.5977 68.5173C18.6404 68.8591 18.3413 69.2651 17.4439 70.0556C9.81631 76.7645 4.26118 89.8618 5.99182 97.0621C9.1967 110.48 37.2501 112.146 46.8434 99.4978C54.0864 89.9473 50.8815 75.5467 39.814 67.9618C37.0578 66.0816 37.2287 66.5516 37.5065 61.082C37.9338 52.1297 37.2715 13.1369 36.6519 10.808C36.2886 9.46197 35.434 8.75689 34.1093 8.75689C31.1822 8.75689 30.8617 10.4448 31.5027 23.2857C31.6309 26.1701 31.6736 34.9728 31.6095 46.8309C31.46 70.953 31.1395 69.2865 36.4596 72.8546C46.117 79.3284 47.7194 92.7248 39.579 98.8355C31.5027 104.925 15.3073 103.921 11.7179 97.1048C9.04714 92.0839 16.2261 76.4654 22.764 73.0255C25.5843 71.5512 25.3707 63.7527 21.8026 38.8828C20.7556 31.5329 20.0719 30.3792 16.4825 29.9946C15.2005 29.8664 15.2005 29.8664 17.1448 29.375C22.4649 28.0289 23.4691 26.4692 22.8922 20.4654C22.2085 13.3078 21.7812 12.966 13.4699 13.0728C7.23104 13.1583 7.53016 13.2437 6.78236 10.9789C5.71406 7.70997 6.16275 7.58177 21.3539 6.94079C31.7377 6.51348 31.9727 6.44938 31.9727 4.0564C31.9727 1.32157 25.9689 0.231905 15.0937 1.00108ZM14.9441 30.0587C14.7946 30.1014 14.4954 30.1014 14.3031 30.0587C14.0895 29.9946 14.2177 29.9519 14.5595 29.9519C14.9228 29.9519 15.0723 29.9946 14.9441 30.0587Z" fill="black"/>
<path d="M25.9898 13.3084C24.7719 13.7143 24.4941 14.5476 24.4941 17.8379C24.5155 25.3801 25.3701 28.4141 27.4854 28.4141C29.5365 28.4141 29.9638 26.7475 29.6006 20.295C29.2374 13.6502 28.5964 12.4324 25.9898 13.3084Z" fill="black"/>
<path d="M25.8836 38.3278C24.3452 39.8662 25.093 51.7029 26.845 53.5831C29.7722 56.7239 31.5669 48.8185 29.9217 39.973C29.5585 38.0501 27.1655 37.0672 25.8836 38.3278Z" fill="black"/>
<path d="M30.7749 80.7396C30.0698 81.0815 29.1297 81.6584 28.7024 82.043C27.9119 82.7267 27.9119 82.7267 26.8009 81.9148C22.1645 78.4962 18.7459 83.1326 20.5193 90.4184C22.955 100.546 29.7494 100.888 35.4113 91.1876C39.6631 83.9018 36.971 77.8125 30.7749 80.7396Z" fill="black"/>
</svg>
