<svg width="57" height="69" viewBox="0 0 57 69" fill="none" xmlns="http://www.w3.org/2000/svg">
<path d="M45.2167 0.931798C40.7513 1.95736 34.6833 6.27327 30.4529 11.4438C29.3846 12.7258 29.3846 12.7258 28.124 12.1275C19.5563 8.11074 7.20681 13.9864 2.24992 24.4556C-6.16824 42.2321 10.604 69.1103 29.4701 68.0848C41.8623 67.4011 49.8318 56.8463 54.2759 35.2027C59.1473 11.6147 55.686 -1.46118 45.2167 0.931798ZM48.1652 7.70478C53.6349 11.9993 45.4517 49.2401 37.2686 57.295C22.7825 71.5461 -2.42921 41.292 9.72798 24.242C14.2362 17.9604 25.902 14.5846 27.0344 19.2637C27.654 21.849 30.282 21.5285 32.4399 18.6228C37.055 12.3198 46.0927 6.05961 48.1652 7.70478Z" fill="black"/>
<path d="M36.8619 21.7444C35.0671 22.3853 32.5673 24.5006 30.7085 26.979C30.0889 27.7909 30.0889 27.7909 28.4437 26.0816C16.7138 13.9885 11.3937 32.235 22.0126 48.1099C30.6871 61.079 39.1053 55.5666 42.9725 34.393C44.7031 24.9492 42.2247 19.8214 36.8619 21.7444ZM25.4525 32.5982C26.4567 34.0511 26.4994 34.1579 26.2857 34.9057C25.0679 39.2858 29.4052 40.0549 32.0973 35.9527C33.5929 33.6452 36.755 29.5856 36.9046 29.7566C37.9301 30.7608 33.0801 46.4861 31.2426 48.1526C29.2129 49.9901 22.9313 38.9012 22.269 32.3632C21.863 28.1755 22.4185 28.2182 25.4525 32.5982Z" fill="black"/>
</svg>
