<svg width="70" height="126" viewBox="0 0 70 126" fill="none" xmlns="http://www.w3.org/2000/svg">
<path d="M33.109 0.902043C31.0151 2.0558 30.2887 4.36332 27.5325 18.4862C26.8701 21.8833 26.2719 24.9387 26.1864 25.2378C26.0582 25.7933 25.9728 25.7506 21.8919 22.6739C16.4222 18.593 5.31194 10.6235 4.43594 10.1748C1.85067 8.85015 -0.478215 11.4995 1.25242 13.7857C2.51301 15.4308 23.0029 31.3698 25.8659 32.9295C26.3787 33.2073 26.5924 33.5919 27.1051 35.1729C27.4256 36.2199 28.558 39.4675 29.605 42.3946C31.8484 48.6548 31.9552 48.0352 28.8144 47.0096C21.9987 44.7876 10.0124 41.3904 7.93994 41.1126C4.6496 40.664 3.41038 44.1252 6.31614 45.6208C8.45273 46.7319 32.9167 55.321 33.9636 55.3423C34.69 55.3423 45.4584 85.5323 44.9243 86.0024C44.8816 86.0451 44.2406 85.9596 43.4928 85.8314C32.7244 84.0794 31.8056 96.899 41.7194 110.573C52.3596 125.23 63.4913 129.781 67.508 121.064C70.6488 114.269 69.6233 89.9123 65.8629 82.071C62.6793 75.4049 56.1628 76.3664 51.5264 84.1863C51.2059 84.7204 50.9495 85.0836 50.9495 84.9982C50.9281 84.0367 44.9884 65.9612 42.1681 58.2481C40.0529 52.4793 40.0529 52.4793 40.6084 50.77C41.463 48.1634 44.3688 40.3648 46.2703 35.6216C49.2402 28.2076 49.3898 24.8532 46.7404 25.2805C44.2192 25.7078 41.7835 29.7674 37.8308 40.1084C36.5061 43.5484 36.5061 43.5484 35.8865 41.9245C35.5447 41.0272 34.3268 37.9719 33.1944 35.1729C32.0407 32.3526 31.1219 30.0024 31.1647 29.9383C31.5279 29.34 35.2242 12.5678 35.9934 8.01688C36.8907 2.73951 35.5874 -0.465374 33.109 0.902043Z" fill="black"/>
</svg>
