<svg width="66" height="100" viewBox="0 0 66 100" fill="none" xmlns="http://www.w3.org/2000/svg">
<path d="M34.6373 0.728652C25.8559 1.90378 15.9207 13.7832 13.5064 26.0045C12.78 29.7435 12.6518 36.5379 13.2927 37.5848C13.3568 37.6703 12.9936 37.7557 12.4808 37.7557C4.4259 37.7985 0.601407 39.7214 3.10122 42.499C3.91312 43.3963 5.17371 43.4604 18.1855 43.1186C23.3561 42.9904 29.5522 42.8195 31.9665 42.7767C39.6582 42.5631 47.5423 42.2212 51.73 41.9221C60.9387 41.217 60.0627 40.341 60.0627 50.2548C60.0199 84.312 44.9997 100.7 23.4415 90.2517C13.3568 85.3589 7.01117 70.6592 6.64795 51.3231C6.54112 45.6825 6.02834 44.3792 3.89175 44.3792C1.05009 44.3792 0.195456 47.1781 0.409114 55.8954C0.943262 78.9919 11.1775 94.7172 28.142 98.5203C52.1573 103.905 65.5964 86.7691 65.5323 50.7889C65.511 36.1747 65.0837 35.491 55.7681 35.5337C50.8326 35.5551 50.8326 35.5551 50.7044 30.5127C50.1916 9.44594 44.7647 -0.617399 34.6373 0.728652ZM38.0558 6.75383C42.2008 8.63403 44.4442 16.7317 44.9143 31.3887C45.0424 36.0037 45.0425 36.0037 43.6537 36.0892C42.2435 36.1533 42.2435 36.1533 42.1153 35.085C40.8547 24.7866 35.2569 19.0392 29.2958 21.9236C25.6636 23.697 22.1382 30.6623 22.1382 36.0678C22.1382 37.1148 22.1382 37.1148 20.5358 37.1148C18.4419 37.1148 18.2496 32.1365 20.1085 25.1926C22.9074 14.7019 32.928 4.40358 38.0558 6.75383ZM33.0776 27.4788C35.4064 29.3162 36.8807 36.4738 34.9364 36.4738C34.2954 36.4738 32.4152 36.5379 30.7273 36.6234C27.266 36.7729 27.3301 36.9011 28.4839 33.1621C29.8086 28.8889 31.7742 26.4532 33.0776 27.4788Z" fill="black"/>
<path d="M50.7912 46.6635C49.9793 47.6677 50.1503 50.4666 51.2613 55.0389C52.2868 59.3121 56.3891 57.7951 55.7909 53.351C55.5131 51.3426 54.7653 47.8813 54.4875 47.3258C53.7825 45.9584 51.6245 45.5738 50.7912 46.6635Z" fill="black"/>
<path d="M11.5206 49.3961C8.89261 51.2336 11.2856 71.5098 14.17 72.0653C16.5843 72.514 17.0544 70.8047 16.1784 64.5659C15.6015 60.3995 15.3024 56.8101 15.3024 53.8829C15.3024 49.6739 13.7427 47.8364 11.5206 49.3961Z" fill="black"/>
<path d="M32.4581 53.5877C25.3433 54.8269 22.5871 62.1981 27.0953 67.9242C27.7362 68.7361 27.7362 68.7361 26.7748 70.1676C24.4459 73.693 23.2067 77.0474 23.6554 78.6712C24.3604 81.171 25.6424 81.6411 32.394 81.8761C43.9316 82.2607 45.8973 79.9532 41.5172 71.1291C40.3208 68.7361 40.3208 68.7361 40.9404 67.7319C45.4272 60.6598 40.3635 52.1989 32.4581 53.5877Z" fill="black"/>
<path d="M51.8785 63.3517C51.1734 64.014 51.1734 64.014 50.6393 68.159C50.0838 72.5176 50.682 74.291 52.7118 74.291C54.8697 74.291 56.3867 69.8896 55.8098 65.2319C55.5107 62.9244 53.4168 61.9202 51.8785 63.3517Z" fill="black"/>
</svg>
