<svg width="83" height="117" viewBox="0 0 83 117" fill="none" xmlns="http://www.w3.org/2000/svg">
<path d="M62.715 0.866537C56.177 1.80664 51.0065 4.47737 45.7077 9.64792C43.6566 11.6563 43.6566 11.6563 43.0584 10.8871C38.5715 4.99015 25.5383 3.6441 16.5647 8.1523C3.08278 14.9039 -1.81001 31.2488 1.92902 56.9306C10.4967 115.495 44.1694 136.454 64.4029 95.8166C74.9363 74.6643 84.4655 31.8684 81.8802 17.4037C79.8932 6.31484 72.0305 -0.479514 62.715 0.866537ZM67.8214 8.53689C76.4105 10.7803 77.7779 23.4289 72.116 48.3202C60.4288 99.5128 46.071 118.721 29.5979 105.132C14.6631 92.8467 3.10415 46.9314 9.87714 26.7406C13.2743 16.5491 21.842 11.1222 31.7558 12.8101C35.4307 13.451 40.409 16.72 40.0671 18.2797C39.4262 21.1641 42.9088 22.8734 44.5326 20.4804C49.8741 12.6178 61.198 6.80625 67.8214 8.53689Z" fill="black"/>
<path d="M55.1521 27.7906C50.6439 29.0084 44.8538 34.0935 40.431 40.7383C39.2559 42.5117 39.3841 42.4903 38.4654 40.7597C28.0602 20.9535 14.6638 31.2091 18.0396 56.3995C22.2273 87.7646 40.8797 105.562 51.7977 88.6193C56.9041 80.6712 64.1258 60.4377 66.1128 48.4941C68.5272 34.0508 63.9549 25.419 55.1521 27.7906ZM58.8912 35.5037C62.3952 40.7169 57.4383 62.1256 48.4005 80.7566C43.8496 90.1576 40.4951 90.6063 34.7904 82.6368C26.415 70.9497 21.2445 42.7467 26.4364 37.0206C28.4448 34.7986 35.8801 47.1694 35.0896 51.4426C34.6409 53.8783 35.4742 55.3098 37.3544 55.3098C38.8286 55.3098 39.1705 55.0107 40.5165 52.7032C46.9904 41.6998 56.84 32.4483 58.8912 35.5037Z" fill="black"/>
</svg>
