<svg width="347" height="484" viewBox="0 0 347 484" fill="none" xmlns="http://www.w3.org/2000/svg">
<path fill-rule="evenodd" clip-rule="evenodd" d="M335.228 475.178C335.876 475.826 336.674 476.425 337.572 476.774H337.672C337.706 476.774 337.739 476.757 337.772 476.724C337.739 476.059 337.689 475.394 337.622 474.729C337.423 472.236 337.174 469.743 336.924 467.25L336.924 467.245C336.176 458.465 334.629 449.784 332.983 441.153C331.735 433.919 330.488 426.635 330.588 419.301C330.638 410.371 333.033 401.541 337.423 393.808C337.548 393.583 337.685 393.359 337.822 393.134C337.959 392.91 338.096 392.685 338.221 392.461C338.288 392.128 338.404 392.045 338.57 392.211C341.663 394.357 344.507 391.214 345.754 388.57C346.054 388.071 346.303 387.572 346.453 387.023C346.497 386.496 346.425 386.356 346.237 385.989C346.211 385.939 346.183 385.885 346.153 385.826C345.655 385.127 344.856 384.678 344.108 384.279C344.064 384.259 344.02 384.239 343.976 384.218C343.471 383.985 342.962 383.75 342.412 383.98C341.464 384.229 340.716 384.828 339.967 385.426L339.967 385.427L339.967 385.427C339.019 386.275 338.071 387.123 337.273 388.121C337.207 388.32 337.157 388.337 337.124 388.17C336.625 386.524 336.375 384.828 336.176 383.182C335.377 375.798 335.876 368.314 336.874 360.981C337.666 355.626 338.881 350.331 340.097 345.033C340.795 341.989 341.494 338.944 342.112 335.886C344.108 326.008 343.41 319.024 340.865 309.395C340.691 308.723 340.514 308.05 340.337 307.376C338.789 301.493 337.218 295.522 337.173 289.389C337.209 283.441 337.923 277.571 338.636 271.704C338.909 269.452 339.183 267.199 339.418 264.944C340.067 259.156 340.516 253.269 339.768 247.482C339.219 242.543 338.071 237.704 336.674 232.964C336.326 231.8 335.966 230.635 335.606 229.468C334.47 225.79 333.329 222.097 332.534 218.347C331.985 215.703 331.586 213.059 331.586 210.365C331.586 207.571 332.035 204.777 332.534 202.033C333.332 197.543 334.429 193.203 335.627 188.812C336.924 184.073 338.221 179.283 338.52 174.294C339.169 167.16 337.523 160.076 335.627 153.241C334.38 148.901 333.432 144.461 333.531 139.971C333.731 134.533 334.978 129.145 336.325 123.856C337.055 121.024 337.905 118.244 338.754 115.464C339.356 113.494 339.957 111.525 340.516 109.538C342.961 101.157 343.659 93.4237 341.165 84.8428C340.8 83.6284 340.365 82.4378 339.928 81.242C339.467 79.9813 339.004 78.715 338.62 77.4092C338.121 75.713 337.822 73.9669 337.622 72.2207C337.155 67.8386 337.749 63.4823 338.341 59.1333C338.572 57.4418 338.802 55.7514 338.969 54.061C339.418 49.8703 339.169 45.6796 338.271 41.5387C337.772 39.0942 337.124 36.6496 335.976 34.4046C334.978 32.4589 333.681 30.7127 332.234 29.1163C331.152 27.7968 329.642 26.3496 328.043 24.8165C324.261 21.1905 319.978 17.0842 319.662 13.0519C319.927 12.9488 320.193 12.8459 320.459 12.743C323.796 11.4512 327.178 10.1422 330.089 8.06294C332.234 6.41659 332.833 3.87223 330.588 2.07621C327.395 -0.767488 323.953 -0.368373 320.909 2.32566C318.515 4.57068 316.669 7.7636 317.118 11.1561C313.326 12.553 309.385 13.5009 305.394 14.1993C299.806 15.247 294.119 15.696 288.481 15.4466C284.64 15.3468 280.848 15.0475 277.057 14.6483C264.223 12.8791 251.341 11.5367 238.457 10.194C228.453 9.15137 218.446 8.10857 208.459 6.86559C203.121 6.26692 197.732 5.8678 192.295 5.91769C187.655 6.06736 182.965 6.56626 178.375 7.26471C174.152 7.89505 169.946 8.64043 165.744 9.38532C159.967 10.4091 154.196 11.4319 148.392 12.1539C137.017 13.7004 125.493 14.2492 114.018 13.7004C102.344 13.2514 90.8194 11.7548 79.3947 9.40995C78.6525 9.26356 77.9084 9.1157 77.1626 8.96752C63.422 6.23732 49.1154 3.39466 35.3923 7.46427C30.8523 8.7115 26.5618 10.757 22.7204 13.4011C21.1738 14.3989 19.727 15.4466 18.38 16.6938C18.315 16.7547 18.2497 16.8156 18.1843 16.8766C17.446 17.5653 16.693 18.2676 16.2347 19.1384C16.316 19.301 16.4966 19.4304 16.6687 19.5537C16.7078 19.5818 16.7465 19.6095 16.7835 19.6373C16.8434 19.6572 16.9033 19.6932 16.9631 19.7291C17.0529 19.783 17.1427 19.8368 17.2325 19.8368C17.3025 19.8718 17.3234 19.8332 17.3469 19.7898C17.3569 19.7713 17.3673 19.752 17.3822 19.7371C19.0285 17.3923 21.4731 15.7459 23.8678 14.1993C28.0086 11.5053 32.5486 9.45984 37.338 8.21261C42.4766 6.86559 47.8147 6.3667 53.103 6.46648C60.4867 6.71592 67.7705 7.96316 74.9546 9.40995L75.3473 9.49005C82.7979 11.0098 90.2037 12.5203 97.7541 13.5009C107.882 14.798 118.159 15.4466 128.386 15.3468C136.618 15.1971 144.8 14.4488 152.932 13.3512C158.403 12.6176 163.837 11.6781 169.268 10.739C172.701 10.1454 176.133 9.5519 179.573 9.01084C184.911 8.21261 190.349 7.56404 195.787 7.56404C201.774 7.51416 207.81 8.21261 213.747 8.91106C224.411 10.2988 235.128 11.3925 245.839 12.4856C249.761 12.8858 253.682 13.286 257.6 13.7004C261.267 14.0996 264.921 14.6109 268.575 15.1223C272.23 15.6337 275.884 16.145 279.551 16.5441C287.783 17.3424 296.164 17.8912 304.396 16.6938C308.038 16.1949 311.63 15.4466 315.172 14.4987C315.741 14.3565 316.335 14.1636 316.919 13.9742C317.154 13.8978 317.387 13.822 317.617 13.7503C317.683 13.7171 317.717 13.7503 317.717 13.8501C317.816 14.0829 317.933 14.3157 318.066 14.5486C319.927 18.0533 322.79 20.7868 325.65 23.5162C327.39 25.1771 329.128 26.8365 330.638 28.6673C333.482 31.96 334.928 35.4023 335.727 39.6429C336.226 41.9877 336.575 44.3326 336.724 46.7272C336.774 50.3193 336.325 53.8614 335.826 57.3537C334.878 63.4901 334.18 69.8759 336.076 75.8627C336.447 77.1913 336.951 78.4817 337.46 79.7813C337.772 80.5799 338.086 81.382 338.371 82.1986C339.369 84.9425 339.917 87.886 340.217 90.7796C341.165 98.3628 339.069 105.796 336.874 112.98C334.978 118.967 333.182 125.004 332.035 131.19C331.536 133.834 331.087 136.478 331.087 139.172C331.137 141.617 331.336 144.062 331.835 146.456C332.306 148.634 332.901 150.782 333.494 152.926C334.41 156.232 335.323 159.53 335.777 162.92C336.824 169.006 336.425 175.292 334.978 181.279C334.408 183.629 333.775 185.971 333.141 188.315C331.447 194.581 329.749 200.858 329.241 207.321C329.041 211.462 329.79 215.553 330.788 219.544C331.521 222.354 332.387 225.139 333.253 227.926C334.51 231.968 335.768 236.015 336.625 240.149C337.373 243.79 337.872 247.482 338.022 251.174C338.071 257.111 337.373 262.998 336.625 268.885C336.511 269.783 336.394 270.683 336.277 271.584C335.776 275.439 335.271 279.321 335.028 283.203C334.829 286.296 334.679 289.439 335.078 292.532C335.559 297.061 336.722 301.475 337.884 305.887C339.372 311.536 340.859 317.182 340.915 323.065C341 329.502 339.503 335.796 338.01 342.068C337.745 343.184 337.48 344.3 337.223 345.415C335.876 351.003 334.629 356.69 333.931 362.428C333.382 367.367 333.033 372.405 333.232 377.394C333.382 380.737 333.681 384.179 334.829 387.372C335.029 387.935 335.263 388.432 335.502 388.943C335.56 389.067 335.618 389.192 335.677 389.318C335.707 389.379 335.757 389.441 335.807 389.502C335.918 389.64 336.03 389.778 335.926 389.917C333.831 393.11 332.135 396.552 330.837 400.094C328.892 405.332 327.794 410.92 327.645 416.558C327.395 422.594 328.243 428.631 329.191 434.618C329.672 437.486 330.201 440.347 330.73 443.207C331.627 448.057 332.523 452.902 333.182 457.766C333.881 463.104 334.529 468.443 335.028 473.781C335.043 473.918 335.04 474.066 335.036 474.215C335.028 474.552 335.02 474.901 335.228 475.178ZM339.169 391.114C340.117 389.717 341.264 388.47 342.561 387.322L343.659 386.524C342.861 388.52 341.364 390.615 339.169 391.114ZM319.712 10.1583C320.411 6.8157 323.204 3.37333 326.497 2.22588C327.096 2.02632 327.744 1.87665 328.393 1.87665C328.559 1.87665 328.709 1.89328 328.842 1.92654C329.108 1.86002 329.258 1.94317 329.291 2.17599C329.939 4.17156 328.343 5.8678 326.796 6.76581C324.551 8.16272 322.157 9.2104 319.712 10.1583ZM22.2215 471.086C21.2736 478.121 25.7636 482.561 32.4488 483.808C32.9477 483.841 33.4466 483.858 33.9455 483.858C40.4311 483.858 46.7172 480.914 52.205 477.572C63.2514 486.116 76.5265 482.979 89.442 479.927C94.5507 478.719 99.6032 477.525 104.439 477.073C118.951 474.631 127.538 477.008 140.606 480.624C141.42 480.849 142.252 481.079 143.104 481.314C156.324 484.606 169.345 481.763 182.367 478.919C193.691 476.424 204.966 473.98 216.491 475.476C227.067 476.774 237.744 476.474 248.221 474.279C250.642 473.954 253.093 473.385 255.558 472.813C261.421 471.451 267.355 470.073 273.115 471.934C287.275 480.051 303.64 479.051 319.46 478.086C321.922 477.935 324.371 477.786 326.796 477.672C326.846 477.622 326.996 477.622 327.196 477.622C327.545 477.622 327.994 477.622 327.694 477.322L327.615 477.243C326.686 476.312 325.609 475.234 324.202 475.476C321.729 475.595 319.251 475.743 316.771 475.892C307.743 476.432 298.68 476.975 289.679 476.075C284.041 475.576 278.603 473.88 273.664 471.186C268.376 468.243 262.24 468.941 256.552 470.138C255.207 470.407 253.863 470.684 252.517 470.962C246.373 472.227 240.205 473.498 233.902 474.03C228.115 474.728 222.278 474.279 216.491 473.78C211.103 473.331 205.715 472.932 200.327 473.381C193.551 474.056 186.903 475.547 180.26 477.037C173.159 478.63 166.062 480.222 158.819 480.815C152.882 481.314 146.895 481.014 141.058 479.667C138.576 479.114 136.112 478.419 133.646 477.724C129.221 476.477 124.785 475.226 120.204 474.778C113.17 474.129 106.135 474.778 99.2009 475.926C95.1439 476.433 90.9264 477.417 86.6524 478.414C76.6304 480.753 66.2975 483.165 56.9944 479.667C55.5476 479.118 53.6518 478.32 52.8536 477.123C55.4478 475.377 58.1419 473.531 59.4889 470.637C63.1308 463.353 52.0554 459.861 49.062 469.639C48.0631 474.079 50.1662 474.846 50.1696 475.622C50.1724 476.241 48.8382 476.866 43.5243 479.368C34.9932 482.96 22.9199 485.604 24.4166 472.084C24.4507 468.935 24.6473 465.78 24.8442 462.623C25.2241 456.528 25.6045 450.426 24.8157 444.345C24.4166 441.751 23.7182 439.207 22.3711 436.962C21.9535 436.163 21.4103 435.423 20.8666 434.683C19.9165 433.39 18.9649 432.095 18.6793 430.476C18.1226 420.734 20.4421 411.278 22.761 401.826C24.1826 396.031 25.6039 390.237 26.3623 384.378C28.2082 373.004 29.206 361.18 25.4144 350.054C24.144 345.812 22.4014 341.742 20.6569 337.668C18.7706 333.262 16.8821 328.851 15.5862 324.212C10.7968 307.948 9.74912 290.237 14.6882 273.873C24.0175 278.413 30.6029 270.082 29.0064 261.052C26.8113 255.564 21.9221 255.913 18.4299 260.104C15.2868 263.347 13.7403 267.637 12.493 271.878C4.16704 263.669 3.98783 245.813 3.8445 231.531C3.8049 227.585 3.76803 223.912 3.56283 220.791C3.01405 201.484 2.66482 182.027 6.40653 163.019C7.55887 156.165 9.3442 149.315 11.1336 142.45C15.3095 126.428 19.5076 110.321 15.7358 93.8723C14.8793 89.9269 13.3475 86.1976 11.815 82.4666C10.4019 79.0264 8.98828 75.5847 8.10277 71.9709C6.95531 66.9819 7.65376 61.8433 8.75133 56.9043C9.09504 55.1708 9.50589 53.4463 9.91685 51.7213C10.8778 47.6875 11.8394 43.6514 11.9443 39.4929C12.0939 37.8465 11.595 37.1481 9.99857 36.6492C10.0932 41.6064 8.88178 46.5924 7.6707 51.5771C5.68844 59.7358 3.70699 67.8913 7.4542 75.9122C19.3055 100.108 14.1249 119.442 8.41427 140.754C6.0476 149.586 3.58989 158.758 2.21582 168.756C-0.290419 185.268 0.204486 202.022 0.696682 218.684L0.719132 219.444C0.958223 222.573 1.01104 226.295 1.06803 230.313C1.28457 245.575 1.56146 265.091 12.3434 272.476C7.15487 289.239 8.35222 307.349 13.4409 323.962C14.734 328.246 16.5216 332.34 18.309 336.433C19.8317 339.921 21.3543 343.408 22.5707 347.011C27.3601 359.484 25.9632 373.054 23.6184 385.875C22.8117 390.948 21.5413 395.976 20.27 401.007C18.0032 409.979 15.7335 418.962 16.0851 428.231C16.2894 430.275 17.4702 431.853 18.6593 433.443C19.2121 434.182 19.7668 434.923 20.2259 435.715C22.9698 440.255 23.1694 445.792 23.1694 450.981C23.1694 454.828 22.9215 458.675 22.6731 462.532C22.4898 465.377 22.3062 468.227 22.2215 471.086ZM51.5066 475.027C50.2593 471.136 53.2028 466.097 57.0942 465.1H57.4933H57.9922C59.2394 469.49 54.7494 472.882 51.5066 475.027ZM16.0352 269.483C17.6316 265.143 20.176 260.553 24.5663 258.607C24.9321 258.408 25.2647 258.308 25.5641 258.308C27.41 258.308 27.8091 262.099 26.6117 265.891C25.2647 270.231 21.8722 274.522 16.135 273.225C16.0152 273.191 15.8545 273.174 15.6888 273.157C15.3713 273.124 15.036 273.089 14.9376 272.925C15.237 271.778 15.6361 270.581 16.0352 269.483Z" fill="black"/>
</svg>
