<svg width="343" height="480" viewBox="0 0 343 480" fill="none" xmlns="http://www.w3.org/2000/svg">
<path fill-rule="evenodd" clip-rule="evenodd" d="M291.188 23.219C294.081 26.362 298.322 27.7589 302.463 27.9086C312.391 28.158 321.471 20.3254 311.992 11.8442C319.36 11.7957 326.163 14.9973 332.676 18.0622C332.866 18.1515 333.055 18.2408 333.245 18.3298C332.25 16.4109 330.065 15.555 327.971 14.7346C327.125 14.4032 326.294 14.0776 325.562 13.6901C320.623 11.4949 315.284 9.99826 309.846 10.098C288.402 -3.24504 244.29 3.12138 217.857 6.93617C216.617 7.11513 215.416 7.28847 214.258 7.4539C208.586 8.18669 201.745 9.585 194.376 11.0913C172.646 15.5331 146.321 20.9143 131.791 12.9417C132.606 12.5401 133.618 12.1491 134.703 11.7304C138.333 10.3285 142.766 8.61637 143.266 5.15899C142.617 1.76651 138.576 0.0203776 135.383 0.469382C129.696 0.768719 123.16 6.55589 128.947 11.5947C111.636 17.332 92.578 19.2777 74.7176 15.1369C70.1658 13.9697 65.9645 12.5531 61.9044 11.1842C50.345 7.28655 39.9299 3.77475 25.826 7.50379C22.8825 8.30202 19.8891 9.29981 17.4445 11.1956C17.3343 11.3059 17.2053 11.423 17.0696 11.5462C16.4688 12.0918 15.7352 12.758 15.898 13.4905C16.1474 13.8896 16.5465 14.2888 16.9457 14.3885C17.0122 14.3885 17.0122 14.3885 17.0048 14.3737C17.0011 14.3664 16.9955 14.3553 16.9955 14.3386C21.5854 6.75545 39.8948 6.40622 47.9769 7.9528C53.1261 8.90833 58.0353 10.6829 62.9449 12.4576C67.2633 14.0186 71.582 15.5797 76.0646 16.5837C93.2266 20.6746 111.436 19.0781 128.299 14.1391C128.747 14.0305 129.132 13.874 129.484 13.7307C130.427 13.3472 131.137 13.0587 132.19 14.0393C134.784 15.5859 137.578 16.7832 140.522 17.3819C153.957 20.4415 167.629 17.9836 181.012 15.5776C182.687 15.2766 184.356 14.9764 186.021 14.6879C186.749 14.5489 187.477 14.4098 188.205 14.2707C208.384 10.4148 228.618 6.54846 249.131 4.95943C264.048 3.76208 279.264 2.86407 294.081 5.50821C298.871 6.55589 303.61 7.75324 308 9.89848C308.566 10.098 308.682 10.1978 308.35 10.1978C307.551 10.2477 306.803 10.2976 306.005 10.4473C300.467 10.9462 284.802 15.5859 291.188 23.219ZM297.923 14.638C301.864 12.8918 306.254 12.1435 310.545 11.8442C313.089 12.1435 314.436 16.4839 313.838 18.7289C311.942 26.9108 297.723 28.1081 292.036 23.4185C289.292 19.4274 294.88 16.1347 297.923 14.638ZM129.496 11.3952C126.104 6.90512 132.49 2.61463 136.63 2.31529C138.127 2.11573 139.674 2.11573 141.071 2.71441C141.986 6.45455 136.142 8.73498 132.093 10.3149C131.065 10.716 130.153 11.0719 129.496 11.3952ZM64.2399 473.671C73.8187 477.113 83.9463 478.809 94.0738 479.358C105.916 480.138 117.568 477.347 128.982 474.613L129.795 474.419C132.994 473.675 136.192 472.908 139.392 472.142C154.851 468.437 170.347 464.725 186.22 463.443C193.603 462.844 201.037 463.044 208.37 464.241C212.291 464.884 216.129 465.899 219.964 466.914C222.082 467.474 224.2 468.035 226.331 468.532C232.816 470.029 239.402 471.026 246.087 471.176C252.523 471.226 258.958 471.276 265.394 471.176C265.461 471.176 265.494 471.143 265.494 471.076C265.53 471.005 265.463 470.908 265.404 470.822C265.381 470.788 265.358 470.755 265.344 470.727C264.746 469.979 263.997 469.28 263.099 468.881C262.675 468.856 262.264 468.869 261.852 468.881C261.44 468.894 261.029 468.906 260.605 468.881C259.027 468.881 257.45 468.889 255.873 468.897C250.615 468.924 245.358 468.95 240.1 468.682C236.508 468.482 232.866 467.883 229.274 467.285C225.478 466.589 221.737 465.616 217.998 464.644C212.352 463.176 206.71 461.708 200.887 461.198C184.274 459.452 167.711 462.795 151.596 466.387C144.65 467.922 137.757 469.592 130.879 471.258C128.371 471.865 125.865 472.472 123.359 473.072C115.576 474.918 107.744 476.564 99.7612 477.163C93.8743 477.462 87.9374 477.013 82.1004 476.315C72.771 475.067 63.4417 472.772 54.9605 468.582C51.9006 467.052 48.9073 465.389 45.9804 463.593C45.3459 463.197 44.7124 462.796 44.0778 462.394C40.0723 459.857 36.0277 457.295 31.4626 455.96C30.9637 455.793 30.4482 455.66 29.916 455.561C29.6499 455.594 29.5502 455.494 29.6167 455.261C29.6167 454.513 29.5668 453.765 29.4171 453.016C28.4193 447.479 25.4759 442.49 22.233 437.95C20.3812 435.512 18.3422 433.228 16.3022 430.943C14.0004 428.366 11.6975 425.786 9.66091 422.983C7.366 419.391 5.61987 415.45 4.57219 411.309C3.37484 406.469 3.52451 401.431 3.97352 396.492C4.67197 388.26 6.06887 380.078 7.61544 371.946C9.01235 364.712 10.509 357.428 12.7042 350.294C14.5002 344.507 16.845 338.869 20.1876 333.781C21.8339 335.227 23.7796 336.475 25.9748 336.774C27.2719 336.924 28.6189 336.674 29.8661 336.325C31.712 335.776 33.5579 334.728 34.3562 332.932C34.9548 331.585 35.0546 330.039 34.7553 328.642C34.3063 327.145 33.1089 325.948 31.9116 325C30.6145 324.102 29.0679 323.304 27.4714 323.304C26.3739 323.354 25.3262 323.803 24.3783 324.351C22.1832 325.748 20.437 327.744 18.8905 329.839C18.6576 330.538 18.4581 330.621 18.2918 330.089C16.7951 327.345 15.5479 324.451 14.4004 321.558C11.407 313.575 9.26179 305.244 8.06445 296.812C7.4691 292.397 7.26845 287.932 7.06999 283.516L7.06666 283.442C6.8671 275.809 7.01677 268.126 7.31611 260.493C7.86489 246.973 9.31168 233.403 12.7541 220.332C14.3505 214.445 16.2962 208.708 18.5412 203.07C20.2766 198.632 22.2129 194.282 24.156 189.918C25.1177 187.758 26.081 185.594 27.0224 183.414C29.5169 177.577 31.9615 171.54 32.4604 165.154C33.2586 158.02 30.9138 150.237 25.3761 145.498C25.0102 145.232 24.6277 144.966 24.2286 144.7C23.9958 144.666 23.9127 144.567 23.9792 144.4C24.0457 144.167 24.1122 143.951 24.1787 143.752C25.4759 138.763 25.5257 133.524 25.3262 128.386C24.9271 123.596 24.1288 118.807 22.9814 114.117C21.6344 108.879 19.8384 103.74 17.743 98.7514C16.8453 96.5941 15.9245 94.4808 15.0149 92.3932C9.65603 80.0948 4.6855 68.6875 7.11655 54.3997C8.11434 47.8143 9.91036 41.3786 12.1055 35.0925C12.3057 34.5252 12.5035 33.9553 12.7015 33.3847C13.3917 31.3962 14.0852 29.3977 14.8993 27.4594C14.8993 27.401 14.9164 27.3597 14.9306 27.3254C14.9406 27.3012 14.9492 27.2806 14.9492 27.2599C14.9492 27.21 14.8993 27.1601 14.8494 27.1102L14.8494 27.1102C14.6 26.8608 14.3505 26.6113 14.0013 26.5115C13.9514 26.5115 13.9015 26.5614 13.9015 26.6113C13.6646 26.9836 13.4966 27.4018 13.3351 27.8036C13.2586 27.9941 13.1835 28.1809 13.1033 28.3575C12.5379 29.8209 11.9725 31.3009 11.407 32.7976C10.3427 35.6247 9.36157 38.5016 8.46356 41.4285C6.06887 49.6104 4.22296 58.2911 5.32053 66.8721C6.4595 75.4144 9.84782 83.2593 13.2351 91.1018C14.8923 94.9389 16.5494 98.7754 17.9426 102.693C20.7863 110.575 22.6821 118.857 23.1809 127.238C23.3306 132.626 23.1809 138.064 21.5845 143.253C17.6432 141.407 12.9536 143.053 10.1598 146.146C6.66754 150.088 4.5223 156.573 9.7108 160.066C14.3006 163.707 18.0423 157.471 19.9381 153.929C20.9858 152.033 21.9337 150.088 22.7319 148.092C23.0313 147.327 23.314 146.562 23.5801 145.797C23.5135 145.165 23.6466 144.982 23.9792 145.248C25.8881 146.226 26.9714 148.16 27.9997 149.995C28.0732 150.126 28.1465 150.257 28.2198 150.387C29.5668 153.031 30.2652 156.025 30.5646 158.968C30.814 162.41 30.2652 165.853 29.5169 169.195C28.3196 173.935 26.3739 178.375 24.4282 182.815C23.874 184.044 23.3168 185.272 22.7597 186.5C18.2509 196.436 13.7444 206.366 10.8583 216.89C7.26622 229.312 5.71964 242.233 5.02119 255.105C4.5223 267.527 4.17307 279.95 5.32053 292.372C6.01898 298.409 7.26622 304.346 8.86268 310.183C10.1099 314.673 11.6066 319.113 13.5024 323.404C13.6132 323.647 13.7237 323.892 13.8343 324.137C14.9683 326.649 16.1199 329.2 17.8927 331.336C13.9514 337.073 11.407 343.509 9.46135 350.144C7.46578 357.029 6.01898 364.063 4.62208 371.098C2.87595 380.527 1.27949 390.056 0.880371 399.684C0.880371 402.379 0.98015 405.073 1.47904 407.717C2.32716 412.157 4.12318 416.397 6.4181 420.239C7.96671 422.777 9.92334 425.018 11.8722 427.251C12.1835 427.607 12.4947 427.964 12.8039 428.321C13.228 428.799 13.6537 429.276 14.0793 429.752C16.0068 431.91 17.9314 434.065 19.6887 436.353C22.6322 440.394 25.1765 444.735 26.3739 449.574C26.8229 451.27 26.9725 453.016 26.8229 454.762C26.9227 455.095 26.8728 455.228 26.6732 455.162C25.6422 455.128 24.6111 455.178 23.5801 455.311C19.7885 455.76 16.1964 457.357 13.2031 459.652C10.7585 461.348 8.41367 463.294 6.8671 465.838C5.56998 467.933 4.32274 470.877 6.26843 472.922C7.31611 474.12 8.71301 475.117 10.3095 475.417C13.4525 475.766 18.8406 474.169 21.6843 472.673C23.0812 471.974 24.2785 470.877 25.2264 469.629C27.9703 466.087 29.1178 461.597 29.5668 457.157C35.3469 457.645 40.2516 460.787 45.0882 463.886C46.6805 464.906 48.2654 465.921 49.8718 466.836C54.5115 469.48 59.251 471.874 64.2399 473.671ZM17.7929 460.101C20.2375 458.604 22.9315 457.656 25.7253 457.257C26.6592 456.771 26.5582 457.181 26.4275 457.71C26.3837 457.888 26.3365 458.079 26.324 458.255C25.9249 460.649 25.1765 462.994 23.9792 465.09C22.0834 468.632 19.4392 470.727 15.5978 471.825C14.0512 472.373 12.5046 472.773 10.8583 473.022C10.7085 473.046 10.5563 473.072 10.4021 473.098C9.58056 473.239 8.70504 473.39 7.86489 473.221C7.46578 471.625 8.11434 469.979 8.86268 468.582C10.8084 464.89 14.3505 462.346 17.7929 460.101ZM21.4348 331.935C23.1809 329.54 25.1765 327.145 27.9204 325.798C28.9182 325.349 30.0657 325.2 31.1632 325.549C31.4293 325.615 31.6954 325.715 31.9615 325.848C32.161 326.048 32.3606 326.397 32.4604 326.696C33.3085 329.191 32.4105 332.384 29.916 333.631C27.5213 334.828 24.528 335.477 21.9836 334.279C21.4348 334.03 20.9858 333.731 20.5867 333.282C20.5202 333.215 20.5368 333.149 20.6366 333.082C20.886 332.683 21.1355 332.334 21.4348 331.935ZM11.0079 149.439C12.7541 146.745 15.5978 144.55 18.8905 144.251C19.6887 144.151 20.4869 144.101 21.2851 144.251C20.3871 146.845 19.2896 149.339 17.9426 151.734C17.8472 151.904 17.7475 152.083 17.6436 152.271C16.0081 155.217 13.3168 160.065 9.61102 159.267C7.815 156.124 9.11213 152.233 11.0079 149.439ZM290.159 470.36C293.912 470.859 297.648 471.356 301.414 471.475C309.247 471.475 317.529 469.58 323.665 464.491C327.207 461.547 329.402 457.307 330.649 452.917C332.171 447.369 332.323 441.66 332.475 435.956C332.562 432.684 332.649 429.413 332.994 426.176L334.641 426.026C336.137 426.126 337.634 425.677 338.981 424.978C339.929 424.48 340.627 423.631 341.026 422.634C341.575 421.037 342.074 419.241 341.426 417.595C340.577 415.499 338.332 412.556 335.838 412.706C332.146 412.855 331.148 420.738 330.849 423.581C325.96 422.434 322.168 419.042 319.823 414.701C317.578 410.76 316.182 406.37 315.533 401.88C314.685 396.641 314.485 391.353 315.034 386.065C315.633 380.228 316.78 374.391 318.476 368.753C320.938 360.547 324.46 352.704 327.978 344.868C329.165 342.224 330.352 339.58 331.498 336.924C334.99 328.742 338.083 320.36 339.879 311.58C343.222 295.815 342.573 279.501 340.627 263.586C339.33 253.858 337.185 244.229 333.792 234.999C332.099 230.391 330.148 225.884 328.196 221.375C325.605 215.39 323.013 209.402 321.021 203.17C319.774 198.979 318.676 194.689 318.476 190.299C318.177 183.963 318.826 177.527 320.622 171.44C323.865 172.438 327.606 172.787 330.649 170.991C333.593 169.096 335.09 165.454 335.189 162.011C335.189 159.118 332.845 156.523 330.25 155.576C328.105 154.927 326.159 156.473 324.613 157.771C321.27 160.764 319.424 165.005 318.127 169.195C316.581 168.696 315.084 168.048 313.787 167.05C311.093 164.805 309.496 161.462 308.648 158.07C307.002 151.135 309.446 144.051 311.941 137.615C313.687 133.175 315.733 128.785 317.878 124.494C319.567 121.214 321.282 117.95 322.996 114.688C326.548 107.927 330.096 101.176 333.393 94.3113C335.638 89.6217 337.784 84.8822 339.28 79.8932C342.324 68.3189 343.371 54.2501 339.33 42.8254C338.632 40.73 337.784 38.6846 336.886 36.6391C336.453 35.6081 336.004 34.577 335.539 33.546C335.509 33.4793 335.48 33.4104 335.452 33.3406C335.286 32.9406 335.108 32.5111 334.641 32.2987C334.641 32.2987 334.591 32.2488 334.541 32.2488C334.508 32.2821 334.519 32.3154 334.53 32.3486C334.535 32.3652 334.541 32.3819 334.541 32.3985C334.907 33.3132 335.289 34.2224 335.672 35.1315C336.437 36.9496 337.202 38.7678 337.834 40.6303C340.278 47.3653 340.877 54.6492 340.378 61.7335C339.929 67.4708 338.931 73.1582 337.235 78.646C335.439 84.0341 332.894 89.1727 330.3 94.2115C327.545 99.6075 324.674 104.921 321.801 110.237C319.681 114.162 317.559 118.088 315.483 122.05C313.038 126.839 310.793 131.728 308.798 136.767C307.152 140.808 305.854 144.999 305.405 149.339C304.458 158.419 309.746 166.501 317.778 170.393C316.281 176.23 315.683 182.316 315.982 188.353C316.281 193.791 317.728 199.129 319.524 204.268C321.35 209.465 323.528 214.531 325.707 219.599C328.171 225.331 330.636 231.064 332.595 236.995C335.589 246.125 337.434 255.554 338.432 265.083C339.879 279.102 340.228 293.42 337.484 307.339C335.988 315.421 333.343 323.254 330.3 330.837C328.741 334.588 327.079 338.299 325.417 342.01C323.41 346.492 321.403 350.975 319.574 355.532C315.683 365.111 312.939 375.239 312.19 385.566C311.941 389.707 312.041 393.798 312.639 397.839C313.088 401.032 313.637 404.175 314.785 407.168C317.578 414.851 323.016 421.935 330.699 425.128C330.478 427.845 330.405 430.596 330.332 433.353C330.158 439.911 329.984 446.5 327.806 452.717C325.661 459.053 320.672 463.842 314.485 466.237C309.596 468.233 304.208 469.131 298.92 469.031C295.666 468.952 292.413 468.535 289.159 468.118C288.272 468.004 287.385 467.89 286.497 467.784L276.021 466.486L275.023 466.387C274.923 466.437 274.923 466.486 274.923 466.536C275.272 467.285 275.871 467.833 276.47 468.332C276.819 468.632 277.218 468.781 277.667 468.781C278.631 468.881 279.596 468.998 280.56 469.131C282.789 469.397 285.017 469.679 287.246 469.979C288.218 470.102 289.189 470.231 290.159 470.36ZM333.693 421.586C334.192 419.341 334.84 416.797 336.686 415.3C337.235 414.901 337.883 414.851 338.532 414.901C338.95 414.866 339.076 415.196 339.199 415.517C339.252 415.656 339.305 415.793 339.38 415.899C340.128 417.944 339.23 421.586 337.335 422.683C336.337 423.332 335.14 423.731 333.992 423.881C333.393 424.147 333.161 424.08 333.294 423.681C333.393 422.983 333.543 422.284 333.693 421.586ZM330.849 166.402C329.103 169.096 326.559 170.093 323.416 170.143C322.667 170.143 321.919 170.093 321.22 169.994C321.087 169.994 321.054 169.96 321.121 169.894C321.301 169.352 321.508 168.81 321.722 168.249C321.804 168.035 321.886 167.819 321.969 167.599C322.517 166.052 323.366 164.655 324.264 163.258C325.162 161.862 326.209 160.515 327.556 159.467C328.804 158.469 330.35 157.272 332.046 157.571C333.543 160.165 332.346 164.057 330.849 166.402Z" fill="black"/>
</svg>
