<svg width="341" height="496" viewBox="0 0 341 496" fill="none" xmlns="http://www.w3.org/2000/svg">
<path fill-rule="evenodd" clip-rule="evenodd" d="M4.82168 232.963C5.27069 233.861 6.26848 234.51 7.16649 234.859C7.23301 234.892 7.2829 234.892 7.31616 234.859C7.71898 233.4 8.19071 231.932 8.6655 230.454C10.3663 225.16 12.1064 219.743 10.8583 214.205C10.2198 210.374 8.74311 206.306 7.23759 202.159C4.15545 193.67 0.952373 184.847 4.57224 177.037C8.5135 181.627 16.2962 179.731 15.4481 173.046C13.702 168.806 9.26184 168.456 5.66981 170.751C6.58172 165.915 7.58547 161.095 8.5878 156.281C9.39506 152.404 10.2014 148.532 10.9581 144.659C11.2138 143.447 11.4858 142.233 11.7582 141.016C12.9205 135.826 14.0916 130.597 14.0512 125.302C14.0512 120.412 12.4603 115.86 10.8702 111.311C10.1728 109.315 9.47544 107.319 8.91262 105.296C7.51571 99.2098 7.71527 92.9238 8.0645 86.7375C8.11108 82.1023 8.98415 77.5541 9.85612 73.0117C10.8518 67.8248 11.846 62.6454 11.6066 57.3526C11.3073 52.4635 10.0601 47.6741 8.61328 43.0344C6.86715 37.9456 5.52014 31.7593 9.16206 27.1695C11.6066 28.4666 14.8495 29.3148 17.4437 27.8181C22.2331 23.777 12.7042 17.1916 7.1166 25.1739C1.22965 19.3369 7.5656 13.5497 13.6521 11.9034C24.4282 8.71043 35.9028 8.8601 47.078 9.45877C54.8004 9.72937 62.4533 10.9118 70.0983 12.0931C80.7768 13.7431 91.44 15.3907 102.256 14.5475C102.944 14.4733 103.641 14.4064 104.343 14.339C108.834 13.9081 113.526 13.4578 117.322 10.9555C127.001 13.8989 137.428 13.4 147.406 12.3524C148.707 12.1877 150.008 11.9578 151.312 11.7272C153.96 11.2593 156.622 10.7888 159.329 10.8557C160.427 11.0053 158.032 9.15944 157.483 9.20933C155.087 9.4664 152.681 9.76908 150.268 10.0726C139.568 11.4185 128.736 12.7809 118.071 10.257C123.259 4.32016 112.134 -3.76192 107.744 2.32459C106.523 5.81286 110.599 7.89108 113.477 9.35864C113.892 9.57021 114.283 9.76909 114.628 9.95767C114.961 10.0242 114.928 10.1073 114.529 10.2071C114.229 10.3734 113.946 10.5065 113.68 10.6062C109.122 12.3337 104.24 12.6765 99.4796 13.0109C99.2906 13.0242 99.1017 13.0375 98.9131 13.0508C88.89 13.7159 78.9121 12.1194 69.0656 10.5439C68.5709 10.4647 68.0766 10.3857 67.5826 10.3069C55.7089 8.51088 43.6855 7.41331 31.6622 7.56298C31.0262 7.60512 30.3507 7.6458 29.6434 7.68839C21.1408 8.20041 8.0344 8.98965 3.47467 15.9444C0.998712 19.4603 4.56841 23.3693 6.67058 25.6714L6.71748 25.7227C2.93337 31.1604 4.96638 37.4088 6.98995 43.6283C8.14113 47.1664 9.28926 50.6952 9.36162 54.0599C9.99383 59.7498 8.82182 65.3072 7.64757 70.8752C6.78322 74.9738 5.91765 79.0781 5.76958 83.2452C5.37047 89.7309 5.07113 96.3662 6.46804 102.802C7.02319 105.215 7.90733 107.527 8.79192 109.84C9.97418 112.932 11.1572 116.026 11.5568 119.365C12.7558 125.66 11.1244 131.955 9.53396 138.093C9.27154 139.105 9.01024 140.114 8.76295 141.117C7.62391 145.323 6.75416 149.567 5.88344 153.816C5.7626 154.405 5.64174 154.995 5.52014 155.585C5.19755 157.254 4.80004 158.919 4.40188 160.587C3.38379 164.852 2.36148 169.134 2.57666 173.545C-2.33907 181.226 0.943995 190.063 4.32094 199.153C7.52429 207.775 10.8121 216.625 7.26627 224.931C6.41815 227.575 5.57003 230.269 4.82168 232.963ZM6.11881 177.337C3.62434 174.543 10.2097 171.55 12.4548 171.3C12.6211 171.267 12.804 171.25 13.0035 171.25C14.0013 175.142 9.81063 178.584 6.11881 177.337ZM15.3982 22.9788C13.0534 23.2781 10.9082 24.7748 9.51129 26.6207C17.0446 29.4145 18.3916 22.3302 15.3982 22.9788ZM109.839 6.61508C108.043 4.66939 109.589 2.02525 111.934 1.67602C113.331 1.37669 114.978 1.27691 116.225 2.02525C118.27 4.12061 118.121 7.9122 115.576 9.55855C113.531 8.8601 111.435 8.06187 109.839 6.61508ZM227.595 495.05C227.692 495.06 227.786 495.069 227.878 495.083C228.177 495.116 228.477 495.132 228.776 495.132C229.208 495.132 229.641 495.083 230.073 494.983C230.821 494.833 231.62 494.534 232.268 494.135C232.667 493.835 232.967 493.486 233.166 493.037C233.366 492.638 233.516 492.139 233.466 491.69C233.416 491.191 233.216 490.642 232.967 490.193C232.568 489.345 231.769 488.697 231.071 488.198C230.605 487.832 230.123 487.499 229.624 487.2C228.726 486.551 227.678 486.003 226.681 485.554C226.548 485.52 226.415 485.47 226.282 485.404C225.949 485.337 225.982 485.254 226.381 485.154C226.681 484.988 226.963 484.855 227.229 484.755C227.895 484.456 228.56 484.223 229.225 484.057C229.79 483.924 230.339 483.791 230.871 483.658C232.019 483.408 233.166 483.209 234.364 483.009C236.908 482.66 239.452 482.46 241.997 482.311C243.294 482.244 244.608 482.194 245.938 482.161H245.94C247.137 482.161 248.383 482.161 249.63 482.211C252.324 482.261 254.968 482.51 257.612 482.76C260.306 483.059 262.95 483.408 265.644 483.857C266.919 484.057 268.206 484.257 269.493 484.457C270.775 484.656 272.058 484.856 273.327 485.055C276.021 485.454 278.715 485.836 281.409 486.202C283.822 486.475 286.235 486.707 288.61 486.935L289.292 487C291.853 487.233 294.414 487.416 296.975 487.549L301.365 487.749C302.562 487.782 303.776 487.799 305.007 487.799H307.551H309.248C309.846 487.749 310.495 487.749 311.143 487.749C311.942 487.682 312.723 487.632 313.488 487.599C314.735 487.549 315.982 487.4 317.229 487.25L317.23 487.25C317.978 487.2 318.727 487.1 319.475 487C319.974 486.901 320.473 486.817 320.972 486.751C321.413 486.672 321.854 486.598 322.293 486.525C323.246 486.366 324.191 486.207 325.113 486.003C325.545 485.936 325.977 485.825 326.41 485.714C326.626 485.659 326.842 485.604 327.058 485.554C327.424 485.487 327.79 485.376 328.156 485.265C328.339 485.21 328.522 485.155 328.705 485.105C329.303 484.905 329.902 484.705 330.501 484.456C331.698 484.057 332.795 483.508 333.893 482.909C334.641 482.411 335.39 481.862 336.038 481.213C336.587 480.664 337.036 480.066 337.435 479.417C337.735 478.868 338.034 478.32 338.184 477.671C338.283 477.072 338.283 476.424 338.184 475.825C338.117 475.459 338.017 475.11 337.884 474.778C337.751 474.412 337.585 474.062 337.385 473.73C337.119 473.198 336.803 472.682 336.437 472.183C335.789 471.335 335.09 470.537 334.242 469.838C334.076 469.805 334.059 469.739 334.192 469.639C334.226 469.572 334.259 469.522 334.292 469.489C334.492 469.223 334.675 468.94 334.841 468.641C335.14 468.175 335.39 467.677 335.589 467.144C336.138 465.748 336.388 464.201 336.388 462.704C336.338 461.407 336.188 460.16 335.939 458.913C335.689 457.765 335.34 456.618 334.991 455.52C334.242 453.175 333.494 450.831 332.895 448.436C332.596 447.239 332.297 446.041 332.047 444.794L331.748 442.998L331.548 441.302C331.415 440.104 331.349 438.907 331.349 437.71C331.349 436.462 331.399 435.265 331.548 434.018C331.748 432.687 331.964 431.357 332.197 430.027C332.396 428.796 332.629 427.565 332.895 426.335L333.016 425.768C333.474 423.619 333.925 421.502 334.292 419.3C334.725 416.939 335.007 414.544 335.14 412.116L335.14 412.115C335.29 409.621 335.44 407.127 335.44 404.583V400.891C335.373 399.594 335.273 398.28 335.14 396.95C335.04 395.803 334.891 394.705 334.641 393.558L334.442 392.56L334.242 391.662C334.109 391.13 333.96 390.597 333.793 390.065C333.394 388.868 332.962 387.671 332.496 386.473C332.047 385.426 331.648 384.378 331.249 383.28C331.016 382.648 330.8 382.016 330.6 381.385C330.401 380.753 330.218 380.137 330.052 379.539C329.985 379.273 329.919 378.99 329.852 378.69L329.652 377.693C329.519 377.127 329.42 376.562 329.353 375.996C329.253 375.365 329.154 374.716 329.054 374.051C329.004 373.452 328.954 372.853 328.954 372.255C328.921 372.088 328.932 371.922 328.943 371.756C328.948 371.673 328.954 371.59 328.954 371.506V370.409C328.954 370.209 328.971 370.01 329.004 369.81C329.004 369.378 329.021 368.962 329.054 368.563C329.079 368.239 329.129 367.914 329.179 367.59C329.228 367.266 329.278 366.942 329.303 366.617L329.603 364.971C329.835 363.774 330.085 362.56 330.351 361.329C330.916 358.968 331.515 356.606 332.147 354.245C332.288 353.682 332.431 353.119 332.575 352.556C333.042 350.722 333.511 348.881 333.893 347.011C334.392 344.616 334.891 342.221 335.39 339.777C335.664 338.529 335.951 337.27 336.238 336.01C336.525 334.75 336.812 333.491 337.086 332.243C337.635 329.799 338.084 327.354 338.283 324.91C338.383 324.311 338.383 323.663 338.383 323.064V323.064V322.465C338.383 322.266 338.366 322.049 338.333 321.817L338.383 321.767C338.782 321.218 339.131 320.569 339.431 319.971C340.129 318.624 340.528 317.127 340.728 315.58C340.743 315.362 340.764 315.139 340.785 314.913C340.83 314.415 340.878 313.9 340.878 313.385C340.927 312.387 340.828 311.39 340.678 310.442C340.612 309.91 340.528 309.377 340.429 308.845L339.93 306.85C339.797 306.284 339.647 305.719 339.481 305.153C338.134 300.315 336.438 295.575 334.742 290.836L334.741 290.835C334.342 289.738 333.96 288.623 333.594 287.493C333.427 286.927 333.278 286.362 333.145 285.796C332.978 285.231 332.845 284.666 332.746 284.1C332.579 283.435 332.446 282.77 332.346 282.105C332.097 280.807 331.997 279.51 332.097 278.163C332.13 277.398 332.213 276.65 332.346 275.918C332.38 275.552 332.43 275.203 332.496 274.871L332.696 273.873C332.945 272.725 333.294 271.578 333.644 270.43L334.691 267.138C335.024 265.974 335.356 264.826 335.689 263.695C335.789 263.429 335.872 263.163 335.939 262.897C335.939 262.802 335.999 262.647 336.043 262.534C336.068 262.468 336.088 262.416 336.088 262.398C336.038 262.249 335.988 262.149 335.939 262.099C335.639 261.7 335.24 261.4 334.841 261.101C334.492 260.852 334.142 260.602 333.743 260.502C333.677 260.469 333.627 260.469 333.594 260.502C333.527 260.602 333.494 260.702 333.494 260.802C333.427 260.935 333.378 261.068 333.344 261.201L333.045 262.298C332.845 262.93 332.646 263.579 332.446 264.244C332.315 264.667 332.181 265.089 332.048 265.512C331.473 267.336 330.896 269.166 330.451 271.029C330.251 271.728 330.101 272.376 330.002 273.075C329.902 273.673 329.819 274.272 329.752 274.871C329.603 276.218 329.553 277.565 329.652 278.912C329.752 279.659 329.902 280.407 330.051 281.155L330.052 281.157C330.251 282.254 330.501 283.402 330.8 284.549C331.166 285.746 331.548 286.927 331.947 288.091C332.346 289.289 332.758 290.473 333.17 291.658C333.581 292.843 333.993 294.028 334.392 295.225C335.14 297.52 335.839 299.815 336.487 302.16C336.82 303.391 337.136 304.621 337.435 305.852C337.735 307.049 337.884 308.296 337.984 309.494C338.134 310.641 338.034 311.739 337.884 312.836C337.784 313.934 337.635 315.032 337.286 316.129C337.119 316.595 336.936 317.044 336.737 317.476C336.67 317.709 336.587 317.925 336.487 318.125C336.421 318.191 336.371 318.258 336.338 318.324C336.338 318.324 335.939 317.925 335.839 317.875C335.606 317.676 335.356 317.476 335.09 317.277C334.641 316.927 334.142 316.628 333.644 316.379C333.012 316.079 332.346 315.896 331.648 315.83H331.648C331.249 315.78 330.85 315.73 330.401 315.78C330.002 315.813 329.619 315.88 329.253 315.979C328.655 316.179 328.106 316.379 327.607 316.778C326.958 317.227 326.46 317.875 326.11 318.524C325.811 319.122 325.611 319.771 325.462 320.37C325.312 321.018 325.312 321.667 325.412 322.315C325.562 322.764 325.761 323.213 326.06 323.563C326.41 323.962 326.759 324.311 327.158 324.66C327.624 325.026 328.106 325.342 328.605 325.608C329.702 326.207 330.95 326.257 332.147 325.907C332.945 325.658 333.743 325.359 334.492 325.009C334.542 324.96 335.24 324.61 335.24 324.61C335.24 324.677 335.223 324.743 335.19 324.81V324.86C334.991 326.124 334.758 327.387 334.492 328.651C334.242 329.874 333.968 331.096 333.693 332.318C333.419 333.541 333.145 334.763 332.895 335.985C332.396 338.43 331.897 340.924 331.448 343.369C330.983 345.83 330.484 348.275 329.952 350.703C329.403 353.097 328.854 355.492 328.355 357.936C328.123 359.101 327.906 360.281 327.707 361.479C327.574 362.044 327.474 362.609 327.407 363.175C327.395 363.25 327.382 363.325 327.37 363.399C327.283 363.913 327.202 364.398 327.158 364.921C327.091 365.387 327.042 365.869 327.008 366.368C326.975 366.534 326.958 366.717 326.958 366.917C326.909 367.565 326.859 368.214 326.859 368.862V370.06V370.758L326.958 371.856C326.958 372.088 326.975 372.305 327.008 372.504C327.072 372.884 327.13 373.263 327.188 373.641C327.313 374.456 327.437 375.263 327.607 376.046C327.65 376.246 327.689 376.442 327.727 376.635C327.822 377.116 327.914 377.579 328.056 378.042C328.222 378.674 328.389 379.289 328.555 379.888C328.954 381.085 329.353 382.283 329.802 383.48C329.977 384.004 330.176 384.515 330.376 385.026C330.575 385.538 330.775 386.049 330.95 386.573C331.349 387.72 331.698 388.868 331.997 390.065C332.064 390.398 332.147 390.747 332.247 391.113C332.313 391.446 332.363 391.795 332.396 392.161C332.496 392.693 332.579 393.225 332.646 393.757C333.294 398.696 333.095 403.685 332.845 408.624C332.812 409.788 332.746 410.952 332.646 412.116C332.513 413.414 332.363 414.711 332.197 416.008C331.957 417.923 331.59 419.839 331.223 421.755C331.131 422.234 331.039 422.713 330.95 423.192C330.451 425.636 330.002 428.081 329.652 430.575C329.553 431.274 329.47 431.972 329.403 432.671C329.37 432.937 329.353 433.186 329.353 433.419C329.347 433.457 329.34 433.494 329.334 433.531C329.291 433.783 329.253 434.006 329.253 434.267C329.203 435.515 329.203 436.762 329.303 438.009C329.453 440.454 329.852 442.848 330.351 445.243C330.9 447.638 331.598 449.982 332.297 452.327C332.446 452.876 332.621 453.425 332.795 453.974C332.97 454.522 333.145 455.071 333.294 455.62C333.323 455.743 333.351 455.864 333.379 455.984C333.499 456.496 333.613 456.981 333.694 457.466L333.893 458.464C333.911 458.569 333.922 458.674 333.931 458.779C333.949 458.973 333.96 459.167 333.993 459.362C334.093 460.21 334.093 461.058 334.043 461.906C333.993 463.353 333.594 464.85 332.995 466.147C332.729 466.745 332.413 467.311 332.047 467.843L331.848 468.142C331.814 468.142 331.781 468.159 331.748 468.192L330.85 467.743C329.802 467.294 328.705 466.945 327.557 466.845C326.709 466.745 325.811 466.695 324.963 466.945C324.464 467.095 323.915 467.294 323.466 467.544C322.568 468.092 322.019 469.19 322.169 470.238C322.236 470.537 322.319 470.82 322.418 471.086C322.461 471.149 322.494 471.221 322.529 471.298C322.578 471.404 322.631 471.519 322.718 471.634C322.917 471.934 323.217 472.233 323.516 472.483C324.115 473.031 324.863 473.48 325.611 473.78C326.26 474.079 326.909 474.079 327.557 474.029C328.256 473.979 328.904 473.78 329.603 473.53C330.351 473.181 331.099 472.832 331.748 472.333C332.28 471.901 332.779 471.418 333.244 470.886C333.411 470.72 333.56 470.537 333.694 470.337C333.727 470.271 333.76 470.221 333.793 470.188L334.043 470.437C334.109 470.537 334.176 470.62 334.242 470.687C334.641 471.185 334.991 471.701 335.29 472.233C335.939 473.381 336.338 474.628 336.138 475.975C336.038 476.773 335.639 477.472 335.19 478.17C334.791 478.868 334.292 479.467 333.694 480.016C332.546 481.064 331.149 481.862 329.702 482.51C328.904 482.86 328.106 483.159 327.258 483.458C326.913 483.596 326.544 483.687 326.167 483.779C326 483.82 325.83 483.861 325.661 483.907C325.024 484.135 324.345 484.279 323.701 484.417L323.516 484.456L321.87 484.755C321.238 484.888 320.606 485.005 319.974 485.105C319.375 485.204 318.826 485.304 318.228 485.354C317.396 485.487 316.548 485.604 315.683 485.703C315.185 485.753 314.636 485.803 314.137 485.853C313.813 485.878 313.476 485.915 313.139 485.953C312.802 485.99 312.466 486.028 312.141 486.053L309.846 486.152C308.549 486.202 307.202 486.252 305.905 486.252H303.86C303.327 486.252 302.795 486.235 302.263 486.202C299.469 486.152 296.626 486.053 293.832 485.853C291.953 485.75 290.074 485.601 288.211 485.453C287.353 485.385 286.499 485.317 285.65 485.254C280.461 484.755 275.323 484.057 270.184 483.259C268.821 483.026 267.44 482.81 266.043 482.61C264.696 482.361 263.349 482.161 262.002 481.962C259.375 481.596 256.731 481.28 254.07 481.014C252.806 480.881 251.542 480.781 250.278 480.714C248.915 480.648 247.568 480.598 246.237 480.565C243.693 480.515 241.149 480.664 238.654 480.814C236.16 481.014 233.665 481.263 231.221 481.712C230.024 481.912 228.877 482.211 227.73 482.51L227.728 482.51C226.631 482.81 225.533 483.209 224.535 483.758C224.303 483.891 224.07 484.04 223.837 484.207C223.737 484.273 223.654 484.34 223.588 484.406C223.513 484.381 223.425 484.344 223.338 484.306C223.251 484.269 223.163 484.232 223.089 484.207C222.889 484.14 222.689 484.09 222.49 484.057C221.293 483.708 220.045 483.408 218.798 483.209C217.651 483.009 216.503 482.81 215.356 482.71C214.291 482.577 213.244 482.477 212.213 482.411C210.916 482.311 209.618 482.261 208.321 482.211C207.074 482.211 205.827 482.211 204.58 482.261C203.449 482.261 202.318 482.294 201.187 482.361C198.593 482.51 196.049 482.66 193.504 483.009C192.282 483.184 191.059 483.383 189.837 483.583C188.615 483.783 187.393 483.982 186.17 484.157C184.973 484.356 183.726 484.506 182.529 484.506H181.581C181.559 484.506 181.527 484.501 181.492 484.496C181.366 484.477 181.192 484.45 181.231 484.606C181.281 484.706 181.381 484.805 181.481 484.905C181.614 485.038 181.764 485.171 181.93 485.304C182.279 485.604 182.628 485.853 183.027 486.053C183.177 486.102 183.277 486.102 183.427 486.152H183.726C183.992 486.152 184.241 486.136 184.474 486.102C185.073 486.069 185.672 486.019 186.27 485.953C187.567 485.803 188.815 485.604 190.062 485.404C192.407 485.005 194.751 484.606 197.146 484.356C199.74 484.09 202.335 483.907 204.929 483.807C206.159 483.774 207.373 483.758 208.571 483.758C209.818 483.708 211.015 483.708 212.263 483.807C212.911 483.807 213.51 483.808 214.158 483.857L216.254 484.057C217.6 484.157 218.897 484.356 220.194 484.556L220.195 484.556C220.519 484.606 220.831 484.668 221.143 484.73C221.455 484.793 221.767 484.855 222.091 484.905L222.59 485.005C222.69 485.038 222.773 485.071 222.839 485.105L222.739 485.204C222.507 485.437 222.324 485.703 222.191 486.003C221.841 486.601 221.692 487.25 221.592 487.898C221.559 488.231 221.559 488.58 221.592 488.946C221.592 489.196 221.642 489.445 221.692 489.694C221.891 490.393 222.091 491.041 222.49 491.64C222.789 492.089 223.138 492.488 223.487 492.887L223.488 492.887C223.953 493.32 224.452 493.719 224.984 494.085C225.284 494.284 225.633 494.484 225.982 494.634C226.248 494.733 226.514 494.816 226.78 494.883C227.038 494.993 227.323 495.022 227.595 495.05ZM224.086 487.05C224.286 486.751 224.535 486.502 224.785 486.252C224.951 486.086 225.134 485.936 225.334 485.803H225.433C225.708 485.903 225.97 486.003 226.232 486.102C226.494 486.202 226.755 486.302 227.03 486.402C227.678 486.651 228.327 486.951 228.926 487.3C229.524 487.599 230.073 487.948 230.572 488.347C230.772 488.447 230.921 488.597 231.071 488.747C231.27 488.946 231.42 489.196 231.52 489.445C231.769 489.994 231.919 490.543 231.869 491.141C231.719 491.74 231.42 492.339 230.921 492.738C230.372 493.187 229.674 493.486 228.976 493.686C228.028 493.935 227.03 493.985 226.082 493.835C225.733 493.785 225.384 493.686 225.084 493.586C224.885 493.536 224.835 493.486 224.685 493.336C224.086 492.738 223.687 491.939 223.488 491.141C223.288 490.443 223.188 489.794 223.288 489.046C223.438 488.347 223.637 487.649 224.086 487.05ZM328.156 471.485C327.657 471.784 327.158 471.984 326.609 472.183C326.243 472.283 325.877 472.35 325.512 472.383C325.279 472.416 325.029 472.433 324.763 472.433C324.664 472.433 324.564 472.416 324.464 472.383C324.403 472.352 324.342 472.172 324.292 472.025C324.261 471.932 324.234 471.853 324.215 471.834C324.015 471.185 324.065 470.487 324.364 469.888C324.53 469.556 324.747 469.273 325.013 469.04C325.262 468.841 325.512 468.741 325.761 468.641C326.16 468.442 326.559 468.292 326.958 468.192C327.151 468.168 327.332 468.156 327.507 468.144C327.694 468.131 327.875 468.118 328.056 468.092C329.054 468.142 330.002 468.292 330.9 468.541L331.399 468.741L330.999 469.24C330.767 469.506 330.517 469.755 330.251 469.988C329.619 470.62 328.921 471.119 328.156 471.485ZM328.505 320.37C329.004 319.472 329.802 318.723 330.75 318.324C331.548 317.925 332.446 317.825 333.294 317.775L333.993 317.875C334.259 317.909 334.525 317.958 334.791 318.025C334.891 318.158 334.974 318.291 335.041 318.424C335.14 318.624 335.24 318.84 335.34 319.073C335.406 319.305 335.456 319.522 335.49 319.721C335.49 319.788 335.456 319.854 335.39 319.921C335.057 320.353 334.691 320.752 334.292 321.118C333.56 321.85 332.729 322.448 331.798 322.914L331.797 322.914C330.999 323.313 330.101 323.762 329.203 323.962C328.971 324.028 328.721 324.062 328.455 324.062C328.289 324.095 328.106 324.111 327.906 324.111C327.873 323.945 327.84 323.795 327.807 323.662C327.773 323.463 327.757 323.263 327.757 323.064C327.757 322.615 327.856 322.166 327.956 321.767C328.106 321.268 328.256 320.819 328.505 320.37ZM108.642 494.085C109.291 494.534 110.089 494.833 110.837 494.983C111.27 495.083 111.702 495.132 112.135 495.132C112.434 495.132 112.733 495.116 113.033 495.083L113.149 495.066C113.469 495.021 113.819 494.972 114.13 494.883C114.396 494.816 114.662 494.733 114.928 494.634C115.278 494.484 115.627 494.284 115.926 494.085C116.458 493.719 116.957 493.32 117.423 492.887L117.423 492.887C117.772 492.488 118.121 492.089 118.421 491.64C118.82 491.041 119.019 490.393 119.219 489.694C119.269 489.445 119.319 489.196 119.319 488.946C119.352 488.58 119.352 488.231 119.319 487.898C119.219 487.25 119.069 486.601 118.72 486.003C118.587 485.703 118.404 485.437 118.171 485.204L118.071 485.105C118.138 485.071 118.221 485.038 118.321 485.005L118.82 484.905C119.144 484.855 119.456 484.793 119.768 484.73C120.079 484.668 120.391 484.606 120.716 484.556L120.717 484.556C122.013 484.356 123.31 484.157 124.657 484.057L126.752 483.857C127.401 483.808 127.999 483.807 128.648 483.807C129.895 483.708 131.093 483.708 132.34 483.758C133.537 483.758 134.751 483.774 135.982 483.807C138.576 483.907 141.17 484.09 143.764 484.356C146.159 484.606 148.504 485.005 150.849 485.404C152.096 485.604 153.343 485.803 154.64 485.953C155.239 486.019 155.838 486.069 156.436 486.102C156.669 486.136 156.919 486.152 157.185 486.152H157.484C157.559 486.127 157.621 486.115 157.684 486.102C157.746 486.09 157.808 486.077 157.883 486.053C158.282 485.853 158.631 485.604 158.981 485.304C159.147 485.171 159.297 485.038 159.43 484.905C159.529 484.805 159.629 484.706 159.679 484.606C159.718 484.45 159.544 484.477 159.419 484.496C159.383 484.501 159.352 484.506 159.33 484.506H158.382C157.185 484.506 155.937 484.356 154.74 484.157C153.518 483.982 152.296 483.783 151.074 483.583C149.851 483.383 148.629 483.184 147.406 483.009C144.862 482.66 142.318 482.51 139.723 482.361C138.593 482.294 137.462 482.261 136.331 482.261C135.084 482.211 133.836 482.211 132.589 482.211C131.292 482.261 129.995 482.311 128.698 482.411C127.667 482.477 126.619 482.577 125.555 482.71C124.407 482.81 123.26 483.009 122.112 483.209C120.865 483.408 119.618 483.708 118.421 484.057C118.221 484.09 118.021 484.14 117.822 484.207C117.747 484.232 117.66 484.269 117.572 484.306C117.485 484.344 117.398 484.381 117.323 484.406C117.257 484.34 117.173 484.273 117.074 484.207C116.841 484.04 116.608 483.891 116.375 483.758C115.377 483.209 114.28 482.81 113.182 482.51L113.18 482.51C112.034 482.211 110.887 481.912 109.69 481.712C107.245 481.263 104.751 481.014 102.256 480.814C99.762 480.664 97.2176 480.515 94.6732 480.565C93.3429 480.598 91.9958 480.648 90.6322 480.714C89.3683 480.781 88.1045 480.881 86.8406 481.014C84.1798 481.28 81.5357 481.596 78.9082 481.962C77.5612 482.161 76.2141 482.361 74.8671 482.61C73.4702 482.81 72.09 483.026 70.7263 483.259C65.5877 484.057 60.4491 484.755 55.2606 485.254C54.4114 485.317 53.5573 485.385 52.6998 485.453C50.8368 485.601 48.9578 485.75 47.0787 485.853C44.2849 486.053 41.4412 486.152 38.6474 486.202C38.1153 486.235 37.5831 486.252 37.051 486.252H35.0055C33.7084 486.252 32.3613 486.202 31.0642 486.152L28.7693 486.053C28.445 486.028 28.1083 485.99 27.7715 485.953C27.4348 485.915 27.098 485.878 26.7737 485.853C26.5251 485.828 26.2641 485.803 26.003 485.778C25.7402 485.753 25.4774 485.728 25.2272 485.703C24.3624 485.604 23.5143 485.487 22.6828 485.354C22.1598 485.311 21.6748 485.229 21.1614 485.142C21.0872 485.13 21.0123 485.117 20.9367 485.105C20.3047 485.005 19.6728 484.888 19.0409 484.755L17.3945 484.456L17.2095 484.417C16.5651 484.279 15.8864 484.135 15.2493 483.907C15.0801 483.861 14.9109 483.82 14.7432 483.779C14.3669 483.687 13.9979 483.596 13.6528 483.458C12.8047 483.159 12.0065 482.86 11.2082 482.51C9.76143 481.862 8.36453 481.064 7.21707 480.016C6.6184 479.467 6.11951 478.868 5.72039 478.17C5.27139 477.472 4.87227 476.773 4.77249 475.975C4.57294 474.628 4.97205 473.381 5.62061 472.233C5.91995 471.701 6.26918 471.185 6.66829 470.687C6.73481 470.62 6.80133 470.537 6.86785 470.437L7.1173 470.188C7.15056 470.221 7.18382 470.271 7.21707 470.337C7.35011 470.537 7.49978 470.72 7.66608 470.886C8.13171 471.418 8.63061 471.901 9.16276 472.333C9.81133 472.832 10.5597 473.181 11.308 473.53C12.0065 473.78 12.655 473.979 13.3535 474.029C14.002 474.079 14.6506 474.079 15.2992 473.78C16.0475 473.48 16.7958 473.031 17.3945 472.483C17.6939 472.233 17.9932 471.934 18.1927 471.634C18.2792 471.519 18.3324 471.404 18.3811 471.298C18.4167 471.221 18.45 471.149 18.4921 471.086C18.5919 470.82 18.675 470.537 18.7415 470.238C18.8912 469.19 18.3424 468.092 17.4444 467.544C16.9954 467.294 16.4466 467.095 15.9477 466.945C15.0996 466.695 14.2016 466.745 13.3535 466.845C12.206 466.945 11.1085 467.294 10.0608 467.743L9.16276 468.192C9.1295 468.159 9.09624 468.142 9.06298 468.142L8.86343 467.843C8.49757 467.311 8.1816 466.745 7.91553 466.147C7.31685 464.85 6.91774 463.353 6.86785 461.906C6.81796 461.058 6.81796 460.21 6.91774 459.362C6.94268 459.212 6.95516 459.062 6.96763 458.913C6.9801 458.763 6.99257 458.613 7.01752 458.464L7.21707 457.466C7.31685 456.867 7.46652 456.219 7.61619 455.62C7.76586 455.071 7.94047 454.522 8.11508 453.974C8.2897 453.425 8.46431 452.876 8.61398 452.327C9.31243 449.982 10.0109 447.638 10.5597 445.243C11.0586 442.848 11.4577 440.454 11.6073 438.009C11.7071 436.762 11.7071 435.515 11.6572 434.267C11.6572 434.006 11.6192 433.783 11.5764 433.531C11.5701 433.494 11.5638 433.457 11.5575 433.419C11.5575 433.186 11.5408 432.937 11.5076 432.671C11.441 431.972 11.3579 431.274 11.2581 430.575C10.9089 428.081 10.4599 425.636 9.96099 423.192C9.87119 422.713 9.7794 422.234 9.6876 421.755C9.32041 419.839 8.95323 417.924 8.71376 416.008C8.54746 414.711 8.39779 413.414 8.26475 412.116C8.16497 410.952 8.09845 409.788 8.0652 408.624C7.81575 403.685 7.61619 398.696 8.26475 393.757C8.33127 393.225 8.41442 392.693 8.5142 392.161C8.54746 391.795 8.59735 391.446 8.66387 391.113C8.76365 390.747 8.8468 390.398 8.91332 390.065C9.21265 388.868 9.56188 387.72 9.96099 386.573C10.1356 386.049 10.3352 385.538 10.5347 385.026C10.7343 384.515 10.9338 384.004 11.1084 383.48C11.5575 382.283 11.9566 381.085 12.3557 379.888C12.522 379.289 12.6883 378.674 12.8546 378.042C12.997 377.579 13.0886 377.116 13.1838 376.635C13.222 376.442 13.2607 376.246 13.3036 376.046C13.4739 375.263 13.5977 374.456 13.7227 373.642C13.7807 373.264 13.839 372.884 13.9023 372.504C13.9355 372.305 13.9521 372.088 13.9521 371.856L14.0519 370.758V370.06V368.862C14.0519 368.214 14.002 367.565 13.9521 366.917C13.9521 366.717 13.9355 366.534 13.9023 366.368C13.869 365.869 13.8191 365.387 13.7526 364.921C13.709 364.398 13.6273 363.913 13.5407 363.399C13.5283 363.325 13.5157 363.25 13.5031 363.175C13.4366 362.609 13.3368 362.044 13.2038 361.479C13.0042 360.281 12.7881 359.101 12.5552 357.936C12.0563 355.492 11.5076 353.097 10.9588 350.703C10.4266 348.275 9.92773 345.83 9.4621 343.369C9.01309 340.924 8.5142 338.43 8.01531 335.985C7.76586 334.763 7.49147 333.541 7.21708 332.318C6.94269 331.096 6.66829 329.874 6.41884 328.651C6.15277 327.387 5.91995 326.124 5.72039 324.86V324.81C5.68713 324.743 5.6705 324.677 5.6705 324.61C5.6705 324.61 6.36896 324.96 6.41884 325.009C7.16719 325.359 7.96542 325.658 8.76365 325.907C9.96099 326.257 11.2082 326.207 12.3058 325.608C12.8047 325.342 13.287 325.026 13.7526 324.66C14.1517 324.311 14.5009 323.962 14.8502 323.563C15.1495 323.213 15.3491 322.764 15.4488 322.315C15.5985 321.667 15.5985 321.018 15.4488 320.37C15.2992 319.771 15.0996 319.122 14.8003 318.524C14.451 317.875 13.9521 317.227 13.3036 316.778C12.8047 316.379 12.2559 316.179 11.6572 315.979C11.2914 315.88 10.9089 315.813 10.5098 315.78C10.0609 315.73 9.66189 315.78 9.26289 315.83H9.26254C8.56409 315.896 7.8989 316.079 7.26697 316.379C6.76807 316.628 6.26918 316.927 5.82017 317.277C5.55409 317.476 5.30465 317.676 5.07183 317.875C4.97205 317.925 4.57294 318.324 4.57294 318.324C4.53968 318.258 4.48979 318.191 4.42327 318.125C4.32349 317.925 4.24034 317.709 4.17382 317.476C3.97426 317.044 3.79133 316.595 3.62504 316.129C3.27581 315.032 3.12614 313.934 3.02636 312.836C2.87669 311.739 2.77692 310.641 2.92658 309.494C3.02636 308.296 3.17603 307.049 3.47537 305.852C3.7747 304.621 4.09067 303.391 4.42327 302.16C5.07183 299.815 5.77028 297.52 6.51862 295.225C6.91774 294.028 7.32933 292.843 7.74091 291.658C8.1525 290.473 8.56409 289.289 8.9632 288.091C9.36232 286.927 9.74481 285.746 10.1107 284.549C10.41 283.402 10.6594 282.254 10.859 281.157C11.0087 280.408 11.1583 279.66 11.2581 278.912C11.3579 277.565 11.308 276.218 11.1583 274.871C11.0918 274.272 11.0087 273.673 10.9089 273.075C10.8091 272.376 10.6594 271.728 10.4599 271.029C10.0391 269.269 9.50089 267.539 8.95786 265.793C8.79274 265.262 8.62717 264.729 8.46431 264.194L7.86564 262.298L7.5663 261.201C7.53304 261.068 7.48315 260.935 7.41663 260.802C7.41663 260.702 7.38337 260.602 7.31685 260.502C7.28359 260.469 7.23371 260.469 7.16719 260.502C6.76807 260.602 6.41884 260.852 6.06962 261.101C5.6705 261.4 5.27139 261.7 4.97205 262.099C4.92216 262.149 4.87227 262.249 4.82238 262.398C4.82238 262.416 4.84243 262.468 4.86786 262.534C4.9119 262.647 4.97205 262.802 4.97205 262.897C5.03857 263.163 5.12172 263.429 5.2215 263.695C5.55409 264.826 5.88669 265.974 6.21929 267.138L7.26697 270.43C7.61619 271.578 7.96542 272.725 8.21486 273.873L8.41442 274.871C8.48094 275.203 8.53083 275.552 8.56409 275.918C8.69713 276.65 8.78028 277.398 8.81354 278.163C8.91331 279.51 8.81354 280.807 8.56409 282.105C8.46431 282.77 8.33127 283.435 8.16497 284.1C8.0652 284.666 7.93216 285.231 7.76586 285.796C7.63282 286.362 7.48315 286.927 7.31685 287.493C6.951 288.623 6.56851 289.738 6.1694 290.835C4.47316 295.575 2.77692 300.314 1.4299 305.153C1.2636 305.719 1.11393 306.284 0.980896 306.85L0.482002 308.845C0.382223 309.377 0.299074 309.91 0.232555 310.442C0.0828865 311.39 -0.0168922 312.387 0.0329973 313.385C0.0329973 313.9 0.0801832 314.414 0.125882 314.913C0.146637 315.139 0.167085 315.362 0.182666 315.58C0.382224 317.127 0.781338 318.624 1.47979 319.971C1.77913 320.569 2.12835 321.218 2.52747 321.767L2.57736 321.817C2.5441 322.049 2.52747 322.266 2.52747 322.465V323.064C2.52747 323.662 2.52747 324.311 2.62725 324.91C2.82681 327.354 3.27581 329.799 3.82459 332.243C4.09899 333.491 4.38585 334.75 4.67272 336.01C4.95958 337.27 5.24644 338.529 5.52083 339.777C6.01973 342.221 6.51862 344.616 7.01752 347.011C7.39915 348.881 7.86836 350.721 8.33582 352.555C8.47946 353.119 8.62293 353.682 8.76365 354.245C9.39558 356.606 9.99425 358.968 10.5597 361.329C10.8257 362.56 11.0752 363.774 11.308 364.971L11.6073 366.617C11.6323 366.942 11.6822 367.266 11.7321 367.59C11.782 367.914 11.8318 368.239 11.8568 368.563C11.8901 368.962 11.9067 369.378 11.9067 369.81C11.9399 370.01 11.9566 370.209 11.9566 370.409V371.506C11.9566 371.59 11.9621 371.673 11.9677 371.756C11.9787 371.922 11.9898 372.088 11.9566 372.255C11.9566 372.853 11.9067 373.452 11.8568 374.051C11.757 374.716 11.6572 375.365 11.5575 375.996C11.4909 376.562 11.3912 377.127 11.2581 377.693L11.0586 378.69C10.992 378.99 10.9255 379.273 10.859 379.539C10.6927 380.137 10.5098 380.753 10.3102 381.385C10.1107 382.016 9.89447 382.648 9.66166 383.28C9.26254 384.378 8.86343 385.426 8.41442 386.473C7.94879 387.671 7.51641 388.868 7.1173 390.065C6.951 390.597 6.80133 391.13 6.66829 391.662L6.46873 392.56L6.26918 393.558C6.01973 394.705 5.87006 395.803 5.77028 396.95C5.63724 398.28 5.53746 399.594 5.47094 400.891C5.43753 401.727 5.44887 402.562 5.46001 403.382C5.4655 403.787 5.47094 404.188 5.47094 404.583C5.47094 407.127 5.62061 409.622 5.77028 412.116C5.90332 414.544 6.18603 416.939 6.6184 419.3C6.9853 421.502 7.43653 423.619 7.89456 425.768L8.01531 426.335C8.28138 427.565 8.5142 428.796 8.71376 430.027C8.94657 431.357 9.16276 432.687 9.36232 434.018C9.51199 435.265 9.56188 436.462 9.56188 437.71C9.56188 438.907 9.49536 440.104 9.36232 441.302L9.16276 442.998L8.86343 444.794C8.61398 446.041 8.31464 447.239 8.01531 448.436C7.41663 450.831 6.66829 453.175 5.91995 455.52C5.57072 456.618 5.2215 457.765 4.97205 458.913C4.7226 460.16 4.57294 461.407 4.52305 462.704C4.52305 464.201 4.77249 465.748 5.32128 467.144C5.52083 467.677 5.77028 468.175 6.06962 468.641C6.23592 468.94 6.41884 469.223 6.6184 469.489C6.65166 469.522 6.68492 469.572 6.71818 469.639C6.85122 469.739 6.83459 469.805 6.66829 469.838C5.82017 470.537 5.12172 471.335 4.47316 472.183C4.1073 472.682 3.79133 473.198 3.52526 473.73C3.3257 474.062 3.1594 474.412 3.02636 474.778C2.89332 475.11 2.79355 475.459 2.72703 475.825C2.62725 476.424 2.62725 477.072 2.72703 477.671C2.87668 478.32 3.17598 478.868 3.4753 479.417L3.47537 479.417C3.87448 480.066 4.32349 480.664 4.87227 481.213C5.52083 481.862 6.26918 482.411 7.01752 482.909C8.11509 483.508 9.21265 484.057 10.41 484.456C11.0087 484.705 11.6073 484.905 12.206 485.105C12.3889 485.155 12.5719 485.21 12.7548 485.265C13.1207 485.376 13.4865 485.487 13.8524 485.554C14.0685 485.604 14.2847 485.659 14.5008 485.714C14.9332 485.825 15.3656 485.936 15.7981 486.003C16.7197 486.207 17.6647 486.366 18.6171 486.525C19.0566 486.598 19.4978 486.672 19.9389 486.751C20.4378 486.817 20.9367 486.901 21.4356 487C22.1839 487.1 22.9322 487.2 23.6806 487.25L23.6817 487.25C24.9286 487.4 26.1754 487.549 27.4223 487.599C28.1873 487.632 28.9689 487.682 29.7671 487.749H29.7683C30.4165 487.749 31.0646 487.749 31.6629 487.799H33.3591H35.9035C37.1341 487.799 38.3481 487.782 39.5454 487.749L43.9357 487.549C46.4967 487.416 49.0577 487.233 51.6187 487L52.3013 486.935C54.676 486.707 57.0886 486.475 59.5012 486.202C62.1952 485.836 64.8892 485.454 67.5833 485.055C68.853 484.856 70.1351 484.656 71.4172 484.457C72.7044 484.257 73.9916 484.057 75.2662 483.857C77.9603 483.408 80.6044 483.059 83.2985 482.76C85.9426 482.51 88.5867 482.261 91.2808 482.211C92.5272 482.161 93.7737 482.161 94.9704 482.161H94.9726C96.303 482.194 97.6167 482.244 98.9138 482.311C101.458 482.46 104.003 482.66 106.547 483.009C107.744 483.209 108.892 483.408 110.039 483.658C110.571 483.791 111.12 483.924 111.686 484.057C112.351 484.223 113.016 484.456 113.681 484.755C113.947 484.855 114.23 484.988 114.529 485.154C114.928 485.254 114.962 485.337 114.629 485.404C114.496 485.47 114.363 485.52 114.23 485.554C113.232 486.003 112.184 486.551 111.286 487.2C110.788 487.499 110.305 487.832 109.84 488.198C109.141 488.697 108.343 489.345 107.944 490.193C107.694 490.642 107.495 491.191 107.445 491.69C107.395 492.139 107.545 492.638 107.744 493.037C107.944 493.486 108.243 493.835 108.642 494.085ZM114.679 486.102C114.941 486.003 115.203 485.903 115.477 485.803H115.577C115.776 485.936 115.959 486.086 116.126 486.252C116.375 486.502 116.625 486.751 116.824 487.05C117.273 487.649 117.473 488.347 117.622 489.046C117.722 489.794 117.622 490.443 117.423 491.141C117.223 491.939 116.824 492.738 116.225 493.336C116.076 493.486 116.026 493.536 115.826 493.586C115.527 493.686 115.178 493.785 114.829 493.835C113.881 493.935 112.883 493.935 111.935 493.686C111.237 493.486 110.538 493.187 109.989 492.738C109.49 492.339 109.191 491.74 109.041 491.141C108.991 490.543 109.141 489.994 109.391 489.445C109.49 489.196 109.64 488.946 109.84 488.747C109.989 488.597 110.139 488.447 110.339 488.347C110.837 487.948 111.386 487.599 111.985 487.3C112.584 486.951 113.232 486.651 113.881 486.402C114.155 486.302 114.417 486.202 114.679 486.102ZM9.51199 468.741L10.0109 468.541C10.9089 468.292 11.8568 468.142 12.8546 468.092C13.0354 468.118 13.2163 468.131 13.404 468.144C13.5789 468.156 13.7597 468.168 13.9521 468.192C14.3513 468.292 14.7504 468.442 15.1495 468.641L15.1497 468.641C15.3991 468.741 15.6485 468.841 15.8978 469.04C16.1639 469.273 16.3801 469.556 16.5464 469.888C16.8457 470.487 16.8956 471.185 16.6961 471.834C16.6768 471.853 16.65 471.932 16.6186 472.025C16.569 472.172 16.5078 472.352 16.4466 472.383C16.3468 472.416 16.2471 472.433 16.1473 472.433C15.8812 472.433 15.6318 472.416 15.3989 472.383C15.0331 472.35 14.6672 472.283 14.3014 472.183C13.7526 471.984 13.2537 471.784 12.7548 471.485C11.9898 471.119 11.2914 470.62 10.6594 469.988C10.3934 469.755 10.1439 469.506 9.9111 469.24L9.51199 468.741ZM6.11951 318.025C6.38558 317.958 6.65166 317.909 6.91774 317.875L7.61619 317.775C8.46431 317.825 9.36232 317.925 10.1606 318.324C11.1085 318.723 11.9067 319.472 12.4056 320.37C12.655 320.819 12.8047 321.268 12.9544 321.767C13.0541 322.166 13.1539 322.615 13.1539 323.064C13.1539 323.263 13.1373 323.463 13.104 323.662C13.0708 323.795 13.0375 323.945 13.0042 324.111C12.8047 324.111 12.6218 324.095 12.4555 324.062C12.1894 324.062 11.9399 324.028 11.7071 323.962C10.8093 323.762 9.91138 323.313 9.11324 322.914L9.11287 322.914C8.1816 322.448 7.35011 321.85 6.6184 321.118C6.21929 320.752 5.85343 320.353 5.52083 319.921C5.45432 319.854 5.42106 319.788 5.42106 319.721C5.45432 319.522 5.5042 319.305 5.57072 319.073C5.6705 318.84 5.77028 318.624 5.87006 318.424C5.93658 318.291 6.01973 318.158 6.11951 318.025ZM333.494 234.56C333.494 234.66 333.527 234.759 333.594 234.859C333.594 234.893 333.61 234.909 333.644 234.909C333.677 234.909 333.71 234.893 333.743 234.859C334.142 234.759 334.492 234.51 334.841 234.261C335.24 233.961 335.639 233.662 335.939 233.263C335.988 233.213 336.038 233.113 336.088 232.963C336.088 232.945 336.068 232.894 336.043 232.828C335.999 232.714 335.939 232.559 335.939 232.465C335.872 232.198 335.789 231.932 335.689 231.666C335.356 230.535 335.024 229.388 334.691 228.224L333.644 224.931C333.294 223.784 332.945 222.636 332.696 221.489L332.496 220.491C332.43 220.158 332.38 219.809 332.346 219.443C332.213 218.712 332.13 217.963 332.097 217.198C331.997 215.851 332.097 214.554 332.346 213.257C332.446 212.592 332.579 211.927 332.746 211.262C332.845 210.696 332.978 210.131 333.145 209.565C333.278 209 333.427 208.434 333.594 207.869C333.96 206.738 334.342 205.624 334.741 204.526L334.742 204.525C336.438 199.786 338.134 195.047 339.481 190.208C339.647 189.643 339.797 189.077 339.93 188.512L340.429 186.516C340.528 185.984 340.612 185.452 340.678 184.92C340.828 183.972 340.927 182.974 340.878 181.976C340.878 181.462 340.83 180.947 340.785 180.449C340.764 180.222 340.743 179.999 340.728 179.781C340.528 178.235 340.129 176.738 339.431 175.391C339.131 174.792 338.782 174.144 338.383 173.595L338.333 173.545C338.366 173.312 338.383 173.096 338.383 172.897V172.298V172.297C338.383 171.699 338.383 171.05 338.283 170.452C338.084 168.007 337.635 165.563 337.086 163.118C336.812 161.871 336.525 160.611 336.238 159.352C335.951 158.092 335.664 156.832 335.39 155.585C334.891 153.14 334.392 150.746 333.893 148.351C333.511 146.481 333.042 144.64 332.575 142.805C332.431 142.242 332.288 141.68 332.147 141.117C331.515 138.756 330.916 136.394 330.351 134.033C330.085 132.802 329.835 131.588 329.603 130.391L329.303 128.744C329.278 128.42 329.228 128.096 329.179 127.772C329.129 127.447 329.079 127.123 329.054 126.799C329.021 126.4 329.004 125.984 329.004 125.552C328.971 125.352 328.954 125.152 328.954 124.953V123.855C328.954 123.772 328.948 123.689 328.943 123.606C328.932 123.44 328.921 123.273 328.954 123.107C328.954 122.508 329.004 121.91 329.054 121.311C329.154 120.646 329.253 119.997 329.353 119.365C329.42 118.8 329.519 118.234 329.652 117.669L329.852 116.671C329.919 116.372 329.985 116.089 330.052 115.823C330.218 115.224 330.401 114.609 330.6 113.977C330.8 113.345 331.016 112.713 331.249 112.081C331.648 110.984 332.047 109.936 332.496 108.888C332.962 107.691 333.394 106.494 333.793 105.296C333.96 104.764 334.109 104.232 334.242 103.7L334.442 102.802L334.641 101.804C334.891 100.657 335.04 99.5591 335.14 98.4117C335.273 97.0813 335.373 95.7675 335.44 94.4704C335.473 93.6351 335.462 92.7999 335.451 91.9796C335.445 91.575 335.44 91.1741 335.44 90.7786C335.44 88.2347 335.29 85.7408 335.14 83.2468L335.14 83.2453C335.007 80.8173 334.725 78.4226 334.292 76.0612C333.925 73.8599 333.474 71.7428 333.016 69.5939C332.976 69.4051 332.936 69.2161 332.895 69.0268C332.629 67.7962 332.396 66.5656 332.197 65.335C331.964 64.0046 331.748 62.6742 331.548 61.3438C331.399 60.0966 331.349 58.8992 331.349 57.652C331.349 56.4547 331.415 55.2573 331.548 54.06L331.748 52.3637L332.047 50.5677C332.297 49.3205 332.596 48.1231 332.895 46.9258C333.494 44.5311 334.242 42.1863 334.991 39.8415C335.34 38.7439 335.689 37.5964 335.939 36.449C336.188 35.2018 336.338 33.9545 336.388 32.6574C336.388 31.1607 336.138 29.6141 335.589 28.2172C335.39 27.6851 335.14 27.1862 334.841 26.7206C334.675 26.4212 334.492 26.1385 334.292 25.8724C334.259 25.8392 334.226 25.7893 334.192 25.7228C334.059 25.623 334.076 25.5398 334.242 25.4733C335.09 24.8248 335.789 24.0265 336.437 23.1784C336.803 22.6795 337.119 22.164 337.385 21.6318C337.585 21.2992 337.751 20.95 337.884 20.5842C338.017 20.2516 338.117 19.9023 338.184 19.5365C338.283 18.9378 338.283 18.2892 338.184 17.6906C338.034 17.042 337.735 16.4932 337.435 15.9444C337.036 15.2959 336.587 14.6972 336.038 14.1484C335.39 13.4999 334.641 12.9511 333.893 12.4522C332.795 11.8535 331.698 11.3047 330.501 10.9056C329.902 10.6562 329.303 10.4566 328.705 10.257C328.522 10.2072 328.339 10.1517 328.156 10.0963C327.79 9.98543 327.424 9.87456 327.058 9.80804C326.842 9.75815 326.626 9.70272 326.41 9.64729C325.977 9.53642 325.545 9.42555 325.113 9.35903C324.191 9.1542 323.246 8.99609 322.293 8.83675C321.854 8.76323 321.413 8.68945 320.972 8.61069C320.473 8.54417 319.974 8.46102 319.475 8.36124C318.727 8.26147 317.978 8.16169 317.23 8.1118C315.983 7.96213 314.736 7.81246 313.488 7.76257C312.723 7.72931 311.942 7.67942 311.143 7.6129C310.495 7.6129 309.846 7.6129 309.248 7.56301H307.551H305.007C303.776 7.56301 302.562 7.57964 301.365 7.6129L296.975 7.81246C294.414 7.9455 291.853 8.12843 289.292 8.36124L288.61 8.42678C286.235 8.65474 283.822 8.88634 281.409 9.15948C278.715 9.52533 276.021 9.90782 273.327 10.3069C272.055 10.5065 270.77 10.706 269.486 10.9056C268.201 11.1052 266.917 11.3047 265.644 11.5043C262.95 11.9533 260.306 12.3025 257.612 12.6018C254.968 12.8513 252.324 13.1007 249.63 13.1506C248.383 13.2005 247.135 13.2005 245.938 13.2005C244.608 13.1673 243.294 13.1174 241.997 13.0509C239.452 12.9012 236.908 12.7016 234.364 12.3524C233.166 12.1528 232.019 11.9533 230.871 11.7038C230.339 11.5708 229.79 11.4378 229.225 11.3047C228.56 11.1384 227.895 10.9056 227.229 10.6063C226.963 10.5065 226.681 10.3735 226.381 10.2072C225.982 10.1074 225.949 10.0242 226.282 9.95771C226.415 9.89119 226.548 9.8413 226.681 9.80804C227.678 9.35903 228.726 8.81025 229.624 8.16169C230.123 7.86235 230.605 7.52975 231.071 7.1639C231.769 6.665 232.568 6.01644 232.967 5.16832C233.216 4.71932 233.416 4.17053 233.466 3.67164C233.516 3.22263 233.366 2.72374 233.166 2.32462C232.967 1.87562 232.667 1.52639 232.268 1.22706C231.62 0.827942 230.821 0.528605 230.073 0.378937C229.375 0.179379 228.626 0.179379 227.878 0.279158C227.786 0.292234 227.692 0.301882 227.595 0.311696C227.323 0.339328 227.038 0.368274 226.78 0.478716C226.514 0.545235 226.248 0.628384 225.982 0.728163C225.633 0.877831 225.284 1.07739 224.984 1.27695C224.452 1.6428 223.953 2.04192 223.488 2.47429C223.139 2.87341 222.789 3.27252 222.49 3.72153C222.091 4.3202 221.891 4.96876 221.692 5.66722L221.692 5.66745C221.642 5.91682 221.592 6.16619 221.592 6.41556C221.559 6.78141 221.559 7.13064 221.592 7.46324C221.692 8.1118 221.841 8.76036 222.191 9.35903C222.324 9.65837 222.507 9.92445 222.739 10.1573L222.839 10.257C222.773 10.2903 222.69 10.3236 222.59 10.3568L222.091 10.4566C221.767 10.5065 221.455 10.5688 221.143 10.6312C220.831 10.6936 220.519 10.7559 220.195 10.8058C218.898 11.0054 217.601 11.2049 216.254 11.3047L214.158 11.5043C213.51 11.5542 212.911 11.5542 212.263 11.5542C211.015 11.6539 209.818 11.6539 208.571 11.6041C207.373 11.6041 206.159 11.5874 204.929 11.5542C202.335 11.4544 199.74 11.2715 197.146 11.0054C194.751 10.7559 192.407 10.3568 190.062 9.95771C188.815 9.75815 187.567 9.55859 186.27 9.40892C185.672 9.3424 185.073 9.29251 184.474 9.25925C184.241 9.226 183.992 9.20937 183.726 9.20937H183.427C183.352 9.23431 183.289 9.24678 183.227 9.25925C183.165 9.27173 183.102 9.2842 183.027 9.30914C182.628 9.5087 182.279 9.75815 181.93 10.0575C181.764 10.1905 181.614 10.3236 181.481 10.4566C181.381 10.5564 181.281 10.6562 181.231 10.7559C181.192 10.9116 181.366 10.8851 181.492 10.8659C181.527 10.8605 181.559 10.8557 181.581 10.8557H182.529C183.726 10.8557 184.973 11.0054 186.17 11.2049C187.393 11.3796 188.615 11.5791 189.837 11.7787C191.06 11.9782 192.282 12.1778 193.504 12.3524C196.049 12.7016 198.593 12.8513 201.187 13.001C202.318 13.0675 203.449 13.1007 204.58 13.1007C205.827 13.1506 207.074 13.1506 208.321 13.1506C209.618 13.1007 210.916 13.0509 212.213 12.9511C213.244 12.8846 214.291 12.7848 215.356 12.6517C216.503 12.552 217.651 12.3524 218.798 12.1528C220.045 11.9533 221.293 11.6539 222.49 11.3047C222.689 11.2715 222.889 11.2216 223.089 11.1551C223.163 11.1301 223.251 11.0927 223.338 11.0553C223.425 11.0179 223.513 10.9804 223.588 10.9555C223.654 11.022 223.737 11.0885 223.837 11.1551C224.07 11.3214 224.303 11.471 224.535 11.6041C225.533 12.1528 226.631 12.552 227.728 12.8513C228.876 13.1506 230.023 13.45 231.221 13.6495C233.665 14.0985 236.16 14.348 238.654 14.5475C241.149 14.6972 243.693 14.8469 246.237 14.797C247.568 14.7637 248.915 14.7138 250.278 14.6473C251.542 14.5808 252.806 14.481 254.07 14.348C256.731 14.0819 259.375 13.7659 262.002 13.4001C263.349 13.2005 264.696 13.001 266.043 12.7515C267.44 12.552 268.821 12.3358 270.184 12.103C275.323 11.2548 280.461 10.6063 285.65 10.1074C286.939 10.0119 288.24 9.90494 289.547 9.79753C290.97 9.68049 292.401 9.56287 293.832 9.45881C296.626 9.30914 299.469 9.20937 302.263 9.15948C302.795 9.12622 303.327 9.10959 303.86 9.10959H305.905C307.202 9.10959 308.549 9.15948 309.846 9.20937L312.141 9.30914C312.466 9.33409 312.802 9.37151 313.139 9.40892C313.476 9.44634 313.813 9.48376 314.137 9.5087C314.386 9.53365 314.648 9.55859 314.91 9.58354C315.172 9.60848 315.434 9.63343 315.683 9.65837C316.548 9.75815 317.396 9.87456 318.228 10.0076C318.751 10.0512 319.236 10.1329 319.75 10.2194C319.824 10.2319 319.898 10.2445 319.974 10.257C320.606 10.3568 321.238 10.4732 321.87 10.6063L323.516 10.9056C323.577 10.9187 323.639 10.9319 323.701 10.9451C324.345 11.0823 325.024 11.2268 325.661 11.4544C325.83 11.5005 326 11.5419 326.167 11.5829C326.544 11.675 326.913 11.7653 327.258 11.9034C328.106 12.2027 328.904 12.5021 329.702 12.8513C331.149 13.4999 332.546 14.2482 333.694 15.3458C334.292 15.8945 334.791 16.4932 335.19 17.1917C335.639 17.8901 336.038 18.5886 336.138 19.3868C336.338 20.7338 335.939 21.9811 335.29 23.1285C334.991 23.6607 334.641 24.1762 334.242 24.6751C334.176 24.7416 334.109 24.8248 334.043 24.9245L333.793 25.174C333.76 25.1407 333.727 25.0908 333.694 25.0243C333.56 24.8248 333.411 24.6418 333.244 24.4755C332.779 23.9434 332.28 23.4611 331.748 23.0287C331.099 22.5298 330.351 22.1806 329.603 21.8314C328.904 21.5819 328.256 21.3824 327.557 21.3325C326.909 21.2826 326.26 21.2826 325.611 21.5819C324.863 21.8813 324.115 22.3303 323.516 22.8791C323.217 23.1285 322.917 23.4279 322.718 23.7272C322.631 23.8425 322.578 23.9578 322.529 24.0635C322.494 24.1407 322.461 24.2128 322.418 24.276C322.319 24.542 322.236 24.8248 322.169 25.1241C322.019 26.1718 322.568 27.2693 323.466 27.8181C323.915 28.0676 324.464 28.2671 324.963 28.4168C325.811 28.6662 326.709 28.6164 327.557 28.5166C328.705 28.4168 329.802 28.0676 330.85 27.6186L331.748 27.1696C331.781 27.2028 331.814 27.2194 331.848 27.2194L332.047 27.5188C332.413 28.0509 332.729 28.6164 332.995 29.215C333.594 30.5122 333.993 32.0088 334.043 33.4556C334.093 34.3037 334.093 35.1519 333.993 36C333.968 36.1497 333.955 36.2993 333.943 36.449C333.93 36.5987 333.918 36.7483 333.893 36.898L333.694 37.8958C333.613 38.3808 333.499 38.8659 333.379 39.3774C333.351 39.4973 333.323 39.6186 333.294 39.7417C333.145 40.2905 332.97 40.8393 332.795 41.388C332.621 41.9368 332.446 42.4856 332.297 43.0344C331.598 45.3792 330.9 47.724 330.351 50.1187C329.852 52.5134 329.453 54.9081 329.303 57.3527C329.203 58.5999 329.203 59.8471 329.253 61.0944C329.253 61.3557 329.291 61.579 329.334 61.8306C329.34 61.8673 329.347 61.9045 329.353 61.9425C329.353 62.1753 329.37 62.4248 329.403 62.6908C329.47 63.3893 329.553 64.0877 329.652 64.7862C330.002 67.2807 330.451 69.7252 330.95 72.1698C331.039 72.6488 331.131 73.1278 331.223 73.6068C331.59 75.5225 331.957 77.4382 332.197 79.3539C332.363 80.651 332.513 81.9481 332.646 83.2453C332.746 84.4094 332.812 85.5735 332.845 86.7375C333.095 91.6766 333.294 96.6655 332.646 101.605C332.579 102.137 332.496 102.669 332.396 103.201C332.363 103.567 332.313 103.916 332.247 104.249C332.147 104.615 332.064 104.964 331.997 105.296C331.698 106.494 331.349 107.641 330.95 108.789C330.775 109.313 330.575 109.824 330.376 110.335C330.176 110.847 329.977 111.358 329.802 111.882C329.353 113.079 328.954 114.276 328.555 115.474C328.389 116.073 328.222 116.688 328.056 117.32C327.914 117.783 327.822 118.246 327.727 118.727C327.689 118.92 327.65 119.115 327.607 119.315C327.437 120.099 327.313 120.906 327.188 121.72C327.13 122.098 327.072 122.478 327.008 122.857C326.975 123.057 326.958 123.273 326.958 123.506L326.859 124.604V125.302V126.499C326.859 127.148 326.909 127.797 326.958 128.445C326.958 128.645 326.975 128.828 327.008 128.994C327.042 129.493 327.091 129.975 327.158 130.441C327.202 130.964 327.283 131.449 327.37 131.962C327.382 132.036 327.395 132.111 327.407 132.187C327.474 132.752 327.574 133.318 327.707 133.883C327.906 135.08 328.123 136.261 328.355 137.425C328.854 139.87 329.403 142.264 329.952 144.659L329.952 144.659C330.484 147.087 330.983 149.532 331.448 151.993C331.897 154.438 332.396 156.932 332.895 159.377C333.145 160.599 333.419 161.821 333.693 163.043C333.968 164.266 334.242 165.488 334.492 166.71C334.758 167.974 334.991 169.238 335.19 170.502V170.552C335.223 170.618 335.24 170.685 335.24 170.751C335.24 170.751 334.542 170.402 334.492 170.352C333.743 170.003 332.945 169.704 332.147 169.454C330.95 169.105 329.702 169.155 328.605 169.754C328.106 170.02 327.624 170.336 327.158 170.701C326.759 171.051 326.41 171.4 326.06 171.799C325.761 172.148 325.562 172.597 325.462 173.046C325.312 173.695 325.312 174.343 325.462 174.992C325.611 175.591 325.811 176.239 326.11 176.838C326.46 177.486 326.958 178.135 327.607 178.584C328.106 178.983 328.655 179.183 329.253 179.382C329.619 179.482 330.002 179.548 330.401 179.582C330.85 179.632 331.249 179.582 331.648 179.532C332.346 179.465 333.012 179.282 333.644 178.983C334.142 178.734 334.641 178.434 335.09 178.085C335.356 177.886 335.606 177.686 335.839 177.486C335.939 177.437 336.338 177.037 336.338 177.037C336.371 177.104 336.421 177.17 336.487 177.237C336.587 177.437 336.67 177.653 336.737 177.886C336.936 178.318 337.119 178.767 337.286 179.233C337.635 180.33 337.784 181.428 337.884 182.525C338.034 183.623 338.134 184.72 337.984 185.868C337.884 187.065 337.735 188.312 337.435 189.51C337.136 190.74 336.82 191.971 336.487 193.202C335.839 195.546 335.14 197.841 334.392 200.136C333.993 201.334 333.581 202.518 333.17 203.703C332.758 204.888 332.346 206.073 331.947 207.27C331.548 208.434 331.166 209.615 330.8 210.813C330.501 211.96 330.251 213.107 330.052 214.205L330.051 214.206C329.902 214.954 329.752 215.702 329.652 216.45C329.553 217.797 329.603 219.144 329.752 220.491C329.819 221.09 329.902 221.688 330.002 222.287C330.101 222.986 330.251 223.634 330.451 224.333C330.871 226.092 331.41 227.822 331.952 229.568C332.118 230.099 332.283 230.632 332.446 231.167L333.045 233.063L333.344 234.161C333.378 234.294 333.427 234.427 333.494 234.56ZM327.807 171.699C327.84 171.566 327.873 171.417 327.906 171.25H328.156C328.256 171.25 328.355 171.267 328.455 171.3C328.721 171.3 328.971 171.333 329.203 171.4C330.101 171.599 330.999 172.048 331.798 172.448C332.729 172.913 333.56 173.512 334.292 174.244C334.691 174.609 335.057 175.009 335.39 175.441C335.456 175.507 335.49 175.574 335.49 175.641C335.456 175.84 335.406 176.056 335.34 176.289C335.24 176.522 335.14 176.738 335.041 176.938C334.974 177.071 334.891 177.204 334.791 177.337C334.525 177.403 334.259 177.453 333.993 177.486C333.76 177.553 333.527 177.586 333.294 177.586C332.446 177.536 331.548 177.437 330.75 177.037C329.802 176.638 329.004 175.89 328.505 174.992C328.256 174.543 328.106 174.094 327.956 173.595C327.856 173.196 327.757 172.747 327.757 172.298C327.757 172.098 327.773 171.899 327.807 171.699ZM324.292 23.3367C324.342 23.19 324.403 23.0094 324.464 22.9788C324.53 22.9456 324.614 22.929 324.713 22.929H324.763C325.029 22.929 325.279 22.9456 325.512 22.9788C325.877 23.0121 326.243 23.0786 326.609 23.1784C327.158 23.378 327.657 23.5775 328.156 23.8769C328.921 24.2427 329.619 24.7416 330.251 25.3735C330.517 25.6064 330.767 25.8558 330.999 26.1219L331.399 26.6208L330.9 26.8203C330.002 27.0698 329.054 27.2195 328.056 27.2693C327.875 27.2435 327.694 27.231 327.507 27.2181C327.332 27.2061 327.151 27.1936 326.958 27.1696C326.559 27.0698 326.16 26.9201 325.761 26.7206C325.512 26.6208 325.262 26.521 325.013 26.3214C324.747 26.0886 324.53 25.8059 324.364 25.4733C324.065 24.8746 324.015 24.1762 324.215 23.5276C324.234 23.5083 324.261 23.4293 324.292 23.3367ZM225.084 1.77584C225.384 1.67606 225.733 1.57628 226.082 1.52639C226.481 1.49313 226.88 1.4765 227.279 1.4765C227.845 1.44324 228.41 1.50976 228.976 1.67606C229.674 1.87562 230.372 2.17496 230.921 2.62396C231.42 3.02308 231.719 3.62175 231.869 4.22042C231.919 4.8191 231.769 5.36788 231.52 5.91666C231.42 6.16611 231.27 6.41556 231.071 6.61511C230.921 6.76478 230.772 6.91445 230.572 7.01423C230.073 7.41335 229.524 7.76257 228.926 8.06191C228.327 8.41114 227.678 8.71047 227.03 8.95992C226.755 9.0597 226.494 9.15948 226.232 9.25925C225.97 9.35903 225.708 9.45881 225.433 9.55859H225.334C225.134 9.42555 224.951 9.27588 224.785 9.10959C224.535 8.86014 224.286 8.61069 224.086 8.31136C223.637 7.71268 223.438 7.01423 223.288 6.31578C223.188 5.56744 223.288 4.91887 223.488 4.22042C223.687 3.42219 224.086 2.62396 224.685 2.02529L224.685 2.02526C224.835 1.87561 224.885 1.82573 225.084 1.77584Z" fill="black"/>
</svg>
