<svg width="322" height="382" viewBox="0 0 322 382" fill="none" xmlns="http://www.w3.org/2000/svg">
<path fill-rule="evenodd" clip-rule="evenodd" d="M150.934 24.0687C150.447 24.0811 149.961 24.0936 149.462 24.0936C143.176 24.2433 136.84 21.3497 132.699 16.66C130.953 14.6644 129.456 11.8706 130.155 9.17652C131.402 5.48467 134.844 2.89039 138.187 1.19414C144.124 -1.89904 150.061 3.08995 152.755 8.12883C153.468 9.39806 154.011 10.74 154.401 12.123C154.931 10.3296 155.654 8.59532 156.697 7.03128C158.443 3.98799 161.636 1.89262 165.128 1.54339C167.473 1.24405 170.017 1.34383 171.963 2.79064C174.358 4.48689 176.553 6.9315 176.952 9.97478C177.152 13.3673 175.755 17.7077 173.31 20.1024C171.135 22.1037 168.201 22.6254 165.401 23.1231L165.401 23.1232C164.99 23.1962 164.582 23.2687 164.18 23.3453C163.906 23.3952 163.631 23.4456 163.357 23.4959C161.326 23.869 159.294 24.2421 157.262 24.4127C157.898 25.8974 158.546 27.3749 159.291 28.833C160.488 31.2277 161.785 33.7721 163.781 35.6679C169.368 37.9129 175.655 37.2643 181.342 35.9173C185.844 34.8607 190.208 33.3389 194.567 31.8191C199.675 30.0379 204.775 28.2595 210.078 27.2365C217.711 25.2909 225.294 29.282 229.435 35.7177C232.731 41.3844 233.212 47.8219 233.694 54.2727C234.044 58.9532 234.395 63.6408 235.821 68.0461C239.114 79.4209 244.901 93.5895 259.369 89.6981C257.972 83.0129 261.564 71.3887 269.247 70.2911C272.839 70.6902 275.982 73.8832 277.579 76.9763C280.273 84.4098 270.395 92.4919 263.959 94.238C265.755 101.622 269.746 104.864 276.182 108.207C281.37 111.45 286.858 115.391 289.053 121.328C290.661 126.15 290.435 131.174 290.208 136.204C289.985 141.165 289.762 146.131 291.298 150.912C291.957 154.064 293.686 156.689 295.416 159.317L295.416 159.317C296.698 161.265 297.982 163.214 298.831 165.38C301.742 172.58 300.156 179.986 298.568 187.403C297.57 192.065 296.571 196.73 296.686 201.351C297.035 210.231 299.031 215.02 307.512 218.463C318.538 223.951 319.785 230.785 317.64 242.16C316.989 245.624 316.313 249.09 315.637 252.559C312.164 270.369 308.677 288.253 308.51 306.418C308.859 313.502 309.707 321.734 315.046 326.872C315.506 327.398 316.48 328.189 317.517 329.031L317.517 329.031C319.629 330.746 322.004 332.674 320.833 333.009C306.165 323.879 302.224 313.103 303.371 296.39C304.469 278.979 308.011 261.767 311.952 244.804C312.096 244.074 312.294 243.198 312.516 242.221L312.516 242.22C314.063 235.387 316.734 223.588 309.707 221.755C287.856 211.029 290.749 198.158 295.489 177.803C296.487 172.614 296.986 167.077 294.641 162.187C293.828 160.14 292.593 158.347 291.361 156.56C290.702 155.603 290.044 154.648 289.452 153.656C284.958 146.389 285.687 137.654 286.371 129.474C286.4 129.119 286.43 128.765 286.459 128.412C287.311 116.247 282.237 113.306 275.897 109.631C272.59 107.715 268.939 105.599 265.605 101.871C263.709 99.7758 262.213 97.1815 260.916 94.8367C253.931 95.4354 247.695 91.0451 242.756 86.5551C235.572 80.0195 231.63 70.6902 229.535 61.3609C228.626 57.4203 228.343 53.406 228.059 49.3852C227.876 46.7884 227.692 44.1889 227.34 41.6047C226.841 38.312 226.043 34.9195 224.147 32.1257C221.004 30.9062 217.377 31.7152 214.134 32.4383C214.039 32.4597 213.943 32.4809 213.848 32.5021C213.739 32.5265 213.629 32.5507 213.521 32.5747C209.232 33.6295 205.028 35.1757 200.82 36.7231C192.888 39.6403 184.944 42.562 176.403 42.2034C167.275 41.71 158.791 35.5578 155.14 27.2375C154.782 28.4927 154.26 29.7394 153.817 30.7981C153.687 31.1087 153.563 31.4032 153.453 31.6769C147.117 44.9475 134.894 54.4764 121.125 59.1161C106.707 64.9033 91.0412 67.8468 75.6753 64.7037C74.5051 64.4898 73.3262 64.2609 72.1408 64.0306C63.9258 62.435 55.3975 60.7786 47.2882 63.6561C34.6662 67.8967 30.6251 81.9655 38.807 92.3924C42.6984 88.501 47.7372 84.8591 53.4745 84.8092C57.8149 84.8591 64.5998 89.1496 62.5045 94.0886C58.9124 99.7261 50.6807 100.824 44.9434 98.0798C44.6182 98.0798 43.8407 97.5898 43.0654 97.1012C42.0568 96.4656 41.052 95.8324 41.052 96.2837C38.2083 99.5266 35.9134 103.268 34.4666 107.409C31.4473 117.117 32.1907 127.517 32.9115 137.603C32.9649 138.349 33.0181 139.094 33.0697 139.837C33.246 143.213 33.4885 146.596 33.7313 149.982C34.382 159.058 35.0344 168.158 34.4167 177.204C33.5545 188.35 26.621 196.592 19.6746 204.85C15.7692 209.493 11.8598 214.14 9.02301 219.311C2.78683 228.99 0.541807 245.104 14.7603 248.496C15.6084 236.922 30.7748 226.296 37.5598 239.816C37.8591 246.75 27.5819 252.138 21.4455 251.939C21.3495 251.934 21.2511 251.929 21.151 251.924C20.2104 251.878 19.1092 251.825 18.2526 251.689C18.0031 253.51 18.1403 255.344 18.2775 257.177C18.4147 259.011 18.5519 260.844 18.3024 262.665C17.6478 267.065 15.2967 270.829 12.9687 274.556C12.103 275.942 11.2406 277.323 10.4698 278.729C5.7802 286.462 3.38551 295.542 4.28352 304.572C4.34353 310.093 7.45366 314.243 10.5853 318.421C12.6603 321.19 14.7448 323.971 15.9576 327.172C19.4403 337.191 15.7734 346.88 12.1177 356.539C8.96546 364.867 5.82159 373.174 7.27688 381.651C-0.789772 377.618 4.81431 363.445 8.89673 353.121C10.2175 349.781 11.3789 346.844 11.8667 344.783C14.2614 337.449 15.359 328.968 11.3179 321.983C10.1814 319.933 8.73617 318.082 7.29367 316.234C5.50695 313.946 3.72434 311.662 2.53739 309.012C-0.555759 301.329 0.34225 292.349 3.08617 284.666C4.41141 280.715 6.59378 277.162 8.7722 273.616C11.0222 269.953 13.268 266.297 14.5607 262.216C15.3314 259.703 15.0893 257.145 14.8473 254.587C14.729 253.336 14.6106 252.086 14.6106 250.841C0.142694 242.809 -4.09791 232.133 4.58285 217.066C7.66924 211.399 11.8204 206.476 15.9694 201.556C20.0025 196.773 24.0337 191.993 27.083 186.534C31.4733 178.402 31.3236 168.873 30.8746 159.893C30.8015 153.976 30.3541 148.052 29.9067 142.129C29.132 131.871 28.3574 121.616 29.5276 111.4C30.1761 106.661 31.7227 102.021 34.3668 98.0299C35.3646 96.4334 36.5121 94.9367 37.7593 93.4899C38.0254 93.3236 37.9755 93.174 37.6097 93.0409L36.562 91.9933C19.3002 71.6883 38.5077 53.8278 61.1575 58.8168C73.4801 61.2115 86.202 63.257 98.5745 60.2137C113.691 56.1228 129.456 50.7347 140.631 39.2102C144.947 34.7251 149.227 29.63 151.98 24.0465C151.628 24.0509 151.281 24.0598 150.934 24.0687ZM152.705 20.0026C152.106 13.2675 147.267 5.43478 140.482 3.63874C138.536 3.13984 136.491 3.63874 134.745 4.63654C132.949 6.28291 133.647 9.2763 134.794 11.1721C138.586 16.8097 145.97 19.9527 152.705 20.0026ZM156.148 20.1523C158.692 13.1178 161.985 5.08557 170.716 5.08557C170.833 5.09861 171.029 5.10143 171.257 5.1047C171.9 5.11397 172.8 5.12693 172.911 5.38491C173.659 7.4304 173.061 9.62555 172.412 11.5713C170.37 17.6966 165.153 18.5743 159.743 19.4845C158.543 19.6863 157.334 19.8897 156.148 20.1523ZM272.49 74.2324C266.952 75.8787 263.859 83.2125 263.61 88.0517C268.1 85.4076 274.885 80.0195 273.338 74.1326C273.039 74.1326 272.756 74.1659 272.49 74.2324ZM29.5775 236.872C24.2393 238.618 20.1484 243.408 18.7514 248.796C29.5775 249.195 40.9522 233.779 29.5775 236.872ZM59.9601 90.3968C57.765 97.0321 47.6374 97.9301 42.0997 95.1363C45.5421 91.644 49.7827 88.4511 54.7716 87.603C56.9667 87.2538 60.5588 87.2538 59.9601 90.3968Z" fill="black"/>
</svg>
