<svg width="373" height="431" viewBox="0 0 373 431" fill="none" xmlns="http://www.w3.org/2000/svg">
<path d="M60.3926 0.724256C48.752 3.60139 41.7308 23.187 45.1094 43.2478C45.2942 44.3036 45.2942 44.3036 42.8922 42.0072C25.4182 25.4307 -3.69632 28.4926 0.870149 46.4417C4.69753 61.4345 22.3299 69.0893 42.6546 64.5756C44.9247 64.0741 44.8455 63.9685 43.7369 66.6345C40.9917 73.1278 39.9095 78.8821 38.2201 96.0393C36.9004 109.607 35.343 114.912 27.0019 134.577C10.4782 173.537 9.8975 183.093 21.9868 215.48C29.6151 235.884 31.5684 245.123 30.4598 255.443C29.9319 260.221 30.3278 259.746 26.8964 259.614C16.3645 259.218 8.41934 269.063 11.2965 278.962C14.3848 289.652 26.2365 284.558 31.9116 270.067C33.0466 267.137 33.0466 267.137 34.8943 269.38C42.7866 279.015 42.4699 294.43 33.6009 333.522C23.1482 379.53 20.7462 402.6 24.6263 420.047C27.6882 433.773 31.8324 434.591 29.7735 421.05C26.4476 399.115 28.3481 380.902 38.6161 335.317C41.6516 321.881 42.8922 315.89 43.8688 310.082C48.1186 284.69 45.083 268.773 34.6303 261.937C34.4983 261.831 34.6039 260.722 34.8415 259.429C35.4222 256.42 35.5014 245.809 34.9735 242.404C33.6537 233.957 31.9907 228.203 26.3948 212.841C15.7574 183.7 16.2325 174.25 29.8527 141.704C31.0141 138.932 33.0202 134.102 34.34 130.961C40.9653 115.203 42.3115 109.554 44.1592 90.3642C45.1886 79.6476 46.8516 70.6202 48.5937 66.001C49.0952 64.734 49.0952 64.734 50.8109 64.6548C52.2363 64.602 52.7114 64.47 53.5033 63.8893C54.4271 63.1766 54.4799 63.1502 56.0373 63.467C66.6748 65.5522 87.369 60.2467 101.121 51.9056C103.048 50.7442 103.048 50.7442 105.74 52.064C118.991 58.5837 136.703 55.1523 180.097 37.6519C198.706 30.1555 206.15 27.5423 213.356 25.985C228.824 22.6591 243.5 25.5363 250.257 33.2174C251.656 34.8012 251.709 34.6428 249.386 35.6986C233.654 42.7727 229.246 57.8711 242.286 60.0355C252.369 61.6984 261.343 50.8762 259.258 39.5788C258.915 37.7311 258.677 37.9423 261.687 37.3352C282.091 33.1382 307.483 41.1098 322.265 56.3665C339.528 74.1572 344.754 98.9165 342.114 150.415C341.93 153.899 341.798 162.213 341.798 168.892C341.798 186.55 341.982 188.029 348.185 218.516C352.91 241.638 355.946 267.163 353.887 266.292C341.111 260.986 328.864 269.829 332.031 282.077C335.885 297.017 353.702 293.348 358.031 276.718C358.321 275.53 358.321 275.53 359.377 276.718C368.325 286.828 369.54 299.735 364.841 335.449C361.067 364.062 360.169 372.931 359.562 387.712C358.929 402.969 359.932 411.601 362.36 411.601C363.997 411.601 364.577 408.75 364.604 400.646C364.63 387.501 365.475 373.96 367.27 358.545C367.824 353.583 367.93 352.817 369.724 339.144C372.285 319.875 372.866 313.408 372.866 304.698C372.892 288.095 368.88 277.088 360.248 270.093C359.456 269.459 359.456 269.459 359.43 262.333C359.404 250.903 357.873 239.474 353.491 217.856C352.62 213.58 351.327 207.218 350.614 203.734C347.13 186.603 346.417 175.992 347.288 155.166C349.057 113.381 347.948 97.2799 342.062 79.4364C334.09 55.2843 315.824 38.8661 290.432 33.0854C279.689 30.6306 264.537 30.4987 257.648 32.7951C256.988 33.0327 256.856 32.9271 255.616 31.2377C247.75 20.6794 230.54 16.7729 210.98 21.1282C203.537 22.7647 197.466 24.9028 178.25 32.6367C136.967 49.2133 120.918 52.7239 109.014 47.7351C108.063 47.3392 108.063 47.3392 111.442 43.9869C120.153 35.2763 120.892 27.0936 112.999 26.7769C104.025 26.4337 96.1852 36.6753 99.0096 45.0691C100.303 48.8701 79.2655 57.1848 65.2758 58.4254C59.2576 58.9533 58.4129 58.8477 60.023 57.7391C74.8311 47.7879 83.4097 26.6449 78.6848 11.7049C76.0981 3.49581 68.2585 -1.22903 60.3926 0.724256ZM67.8362 6.42574C80.2422 12.6287 74.963 39.4204 58.888 51.8528C56.7236 53.5158 51.8931 56.4985 51.682 56.2873C51.1541 55.7066 49.9663 39.8692 49.9663 33.2702C49.9663 13.7374 58.0961 1.56892 67.8362 6.42574ZM113.052 32.2672C113.052 34.3788 104.949 44.0925 103.998 43.1422C102.89 42.0336 104.051 38.1006 106.189 35.6458C108.486 33.0327 113.052 30.789 113.052 32.2672ZM21.9604 36.9656C29.5887 38.523 37.8242 43.5118 42.2059 49.2133C43.8688 51.3777 47.6434 57.6863 47.4059 57.8975C47.3003 58.003 46.0597 58.4518 44.6871 58.9005C26.7908 64.6548 9.42237 58.3726 5.99093 44.9107C4.2752 38.2854 11.3493 34.7748 21.9604 36.9656ZM254.111 40.661C255.378 48.3686 248.858 56.3929 242.655 54.73C236.927 53.199 240.913 46.2041 250.336 41.2681C253.9 39.394 253.9 39.4204 254.111 40.661ZM27.1339 264.735C28.6913 264.972 28.6649 265.262 26.6324 269.486C21.7492 279.622 15.8365 282.552 16.2325 274.633C16.4964 269.248 20.3502 265.131 25.5766 264.603C25.735 264.576 26.4476 264.655 27.1339 264.735ZM348.581 270.251C350.799 270.726 353.517 271.914 353.517 272.416C353.517 281.945 343.065 289.784 338.604 283.608C333.536 276.639 339.712 268.377 348.581 270.251Z" fill="black"/>
</svg>
