<svg width="382" height="443" viewBox="0 0 382 443" fill="none" xmlns="http://www.w3.org/2000/svg">
<path d="M238.514 1.10988C219.747 3.77585 200.874 12.592 190.685 23.5199C189.471 24.7869 188.494 25.9483 188.494 26.0539C188.494 26.5818 187.993 26.2386 187.386 25.2884C179.203 13.0144 158.456 6.12507 142.328 10.3484C118.282 16.6306 115.035 47.0121 137.841 52.2912C139.821 52.7664 139.821 52.7664 140.137 54.5877C142.434 67.9439 166.375 68.0495 179.837 54.7724C182.186 52.4232 182.239 52.5816 180.233 56.4882C170.651 75.2819 154.84 79.2413 108.779 74.4373C72.5643 70.6627 63.2994 70.3987 51.7116 72.7479C37.0884 75.7307 28.0346 83.9925 27.9027 94.4453C27.8763 97.2696 27.8763 97.2696 26.6621 98.9325C17.8723 111.048 16.4997 123.956 19.324 166.981C20.5118 185.062 20.3799 187.833 18.4794 187.833C10.0327 187.833 1.79725 196.94 3.22263 204.674C4.91195 213.728 16.1565 212.434 21.6997 202.589C22.4915 201.163 22.4915 201.163 22.3068 203.011C21.6997 209.61 18.1098 219.482 10.0591 236.534C-4.30017 267.047 -3.40271 275.573 14.9423 282.858C27.1108 287.689 27.5595 289.22 21.1453 304.265C14.652 319.495 14.2033 325.223 18.7169 334.99C22.7027 343.621 22.4651 345.284 15.655 357.136C9.87436 367.272 8.58096 371.944 8.81853 381.974C9.08248 392.295 10.6926 398.894 13.9921 402.827C14.652 403.619 15.0215 404.305 14.9159 404.543C9.74238 417.872 16.2885 441.497 25.1575 441.497C28.2986 441.497 28.061 439.2 24.5504 435.531C19.4824 430.199 17.186 419.271 19.1657 409.69C19.72 406.997 19.6408 407.077 22.0956 407.578C28.9321 409.003 34.7128 405.229 34.264 399.659C33.7361 392.796 25.1047 391.054 19.456 396.677C17.2124 398.92 16.79 398.604 15.4703 393.351C12.4611 381.446 13.7545 371.706 19.6936 361.122C27.9027 346.525 28.4042 343.014 23.8641 333.142C19.6936 324.141 19.9839 320.868 26.2925 305.954C33.6569 288.507 32.2316 283.993 17.3444 277.975C2.06121 271.825 1.77086 266.81 15.1007 238.592C27.4539 212.434 30.7006 198.286 25.923 191.555C25.3951 190.843 25.3687 190.394 25.2631 182.396C25.2103 177.486 24.8935 169.568 24.4976 163.417C22.0956 126.147 23.7321 109.808 30.5158 102.866C30.5686 102.813 31.2021 103.288 31.8884 103.895C39.9655 111.101 55.8558 105.743 55.8558 95.8442C55.8558 87.7143 44.532 85.2331 34.8711 91.2514C31.0174 93.6534 36.0853 85.9722 40.2559 83.0687C50.6822 75.889 63.2466 74.9652 99.8047 78.7926C149.086 83.9661 162.072 82.5936 175.851 70.8211C180.259 67.0465 186.647 57.9399 186.647 55.4059C186.647 54.6669 187.095 55.1156 187.412 56.1714C192.005 71.481 209.215 79.8748 229.672 76.7601C238.805 75.3875 245.061 73.5662 259.235 68.2607C313.531 47.8831 333.724 49.0182 341.88 72.9327C344.045 79.2941 344.229 92.8087 342.171 92.1752C330.847 88.7438 316.725 94.8676 316.672 103.235C316.593 114.717 335.677 113.371 344.097 101.308C345.206 99.6716 345.206 99.6716 346.262 100.807C351.303 106.271 350.459 113.661 342.25 135.702C334.12 157.558 332.615 166.11 335.149 175.903C337.314 184.296 344.256 192.637 352.782 197.098C354.972 198.233 354.972 198.233 355.131 201.955C355.5 210.771 358.641 218.637 367.326 232.442C378.042 249.468 378.201 251.447 369.543 264.381C361.281 276.787 360.41 281.248 363.657 294.604C365.188 300.966 364.607 302.629 357.586 311.63C346.737 325.566 343.807 338.052 348.875 349.059C349.746 351.012 349.746 351.012 348.822 352.886C345.259 359.934 345.576 366.374 350.168 380.126C355.738 396.861 356.028 402.853 352.016 421.04C348.268 438.144 348.083 442.816 351.171 442.816C353.072 442.816 353.653 441.761 354.392 436.851C354.92 433.499 356.398 426.029 357.902 419.06C361.439 402.932 360.911 395.515 355.052 377.751C351.33 366.401 350.881 361.834 353.046 356.634C353.441 355.71 353.441 355.71 354.708 356.661C361.228 361.676 368.645 359.195 368.645 352.015C368.645 344.809 361.228 341.325 354.893 345.522C353.494 346.472 353.494 346.472 352.94 344.677C350.01 335.333 352.782 326.649 362.706 313.873C369.992 304.529 370.863 301.071 368.381 291.305C366.006 281.882 366.851 278.344 374.057 267.417C383.823 252.582 383.665 248.227 372.684 230.727C366.323 220.538 364.053 216.209 362.178 210.613C360.489 205.519 359.75 200.028 360.806 200.371C370.229 203.354 379.652 199.87 380.075 193.245C380.814 181.525 361.149 179.994 356.741 191.45C356.134 193.007 355.606 192.849 351.356 189.734C336.707 179.044 335.941 167.957 347.661 136.626C356.794 112.157 356.899 100.833 348.004 94.9996C347.45 94.63 347.45 94.5772 347.793 93.3894C351.198 81.9073 347.529 66.5449 339.293 57.9663C325.99 44.003 305.164 45.3756 256.991 63.3247C226.293 74.754 209.901 75.0972 198.921 64.5389C196.228 61.9785 195.067 60.1572 197.073 61.6881C218.902 78.4494 261.215 63.9054 255.012 41.7857C254.721 40.8091 254.721 40.8091 256.939 38.6182C264.593 31.0691 267.893 18.3727 264.171 10.7443C260.74 3.74945 249.574 -0.447474 238.514 1.10988ZM248.756 6.60019C257.044 8.18394 260.898 12.6712 260.212 19.9037C259.552 26.9513 253.507 37.0873 251.501 34.5533C242.738 23.6255 219.245 19.5341 198.287 25.262C195.7 25.9483 195.727 25.8691 198.472 23.5727C211.828 12.46 236.244 4.22457 248.756 6.60019ZM156.054 14.4133C164.949 15.2844 174.478 19.4549 179.784 24.8397C181.209 26.2914 181.209 26.2914 178.86 26.133C167.457 25.3412 152.596 31.3066 145.522 39.4893C143.463 41.8913 140.982 46.0354 140.982 47.1177C140.982 48.4903 133.882 45.5603 131.453 43.1847C119.364 31.3594 135.571 12.4073 156.054 14.4133ZM226.9 28.5351C235.611 30.1188 241.787 32.732 245.773 36.5066C248.043 38.6446 248.043 38.6446 245.668 39.8324C229.223 47.9623 209.136 45.4283 196.492 33.603C194.513 31.7289 194.354 31.9401 198.815 30.6731C208.555 27.9544 219.325 27.1361 226.9 28.5351ZM180.417 31.5442C181.975 32.1513 168.513 41.1786 161.756 44.0822C156.476 46.3522 146.525 48.7278 146.525 47.7248C146.525 44.0822 157.4 35.8731 165.794 33.2071C170.598 31.6762 178.464 30.7787 180.417 31.5442ZM192.058 36.8761C204.886 50.1004 228.933 53.743 246.987 45.1644C254.325 41.6801 249.733 53.3999 241.946 58.0191C220.644 70.6891 194.249 61.6617 190.501 40.4395C189.524 34.9228 189.735 34.4741 192.058 36.8761ZM182.291 40.0436C180.655 45.0324 178.992 47.8568 175.93 50.9187C166.929 59.8668 149.297 62.4008 145.892 55.2212C145.047 53.4527 145.179 53.2943 147.792 53.0831C158.826 52.2121 171.284 46.7481 181.447 38.3015C183.506 36.5858 183.479 36.5066 182.291 40.0436ZM48.7817 93.759C52.9522 95.2371 49.7583 100.094 43.5553 101.678C40.863 102.364 38.0122 101.783 35.7422 100.041C34.1321 98.827 34.1585 98.5366 35.8478 97.2432C40.4934 93.7062 45.1391 92.4656 48.7817 93.759ZM338.422 96.7945C340.56 97.1376 340.508 97.032 339.373 98.5894C335.941 103.261 329.421 106.587 325.33 105.743C315.537 103.71 328.075 95.1052 338.422 96.7945ZM372.156 189.496C377.884 192.162 373.449 196.914 366.059 195.99C362.02 195.488 361.07 194.987 361.624 193.746C363.498 189.602 368.25 187.675 372.156 189.496ZM19.2976 193.482C19.2976 196.782 15.1799 203.328 12.118 204.832C6.4693 207.657 7.68351 198.814 13.4906 194.96C15.9982 193.297 19.2976 192.453 19.2976 193.482ZM362.258 349.639C364.369 351.302 363.314 354.575 360.859 353.863C359.724 353.546 357.955 352.464 357.216 351.672C355.817 350.167 360.516 348.267 362.258 349.639ZM28.2458 399.158C30.3047 400.874 26.6093 403.355 23.3362 402.457C21.9636 402.088 21.9636 402.009 23.125 400.662C24.8671 398.604 26.8996 398.023 28.2458 399.158Z" fill="black"/>
</svg>
