<svg width="385" height="544" viewBox="0 0 385 544" fill="none" xmlns="http://www.w3.org/2000/svg">
<path d="M296.897 0.193931C285.283 1.27616 280.347 13.2862 288.741 19.9644C289.77 20.809 289.77 20.809 288.002 21.2314C276.467 23.9765 263.929 23.5014 242.258 19.5156C221.247 15.6618 212.906 14.7116 204.327 15.2395C200.922 15.4507 200.843 15.4507 200.104 14.8436C188.041 4.94517 168.297 4.734 136.939 14.1837C112.655 21.5217 104.498 23.2902 95.2334 23.3166C88.8193 23.3166 84.0153 22.1816 86.3381 21.2314C97.741 16.6121 96.3685 2.2792 84.5696 2.70153C76.4133 2.99188 71.6092 10.8842 74.8295 18.7238C75.1199 19.41 71.9788 18.4862 65.591 16.005C54.1881 11.5969 48.8297 12.2304 33.5466 19.9116C27.5283 22.8943 28.3202 22.7359 27.7923 21.0466C23.9121 9.1157 11.3741 8.85174 8.25944 20.6242C6.09499 28.7014 12.4828 33.4526 21.5893 30.5227C22.8299 30.1267 24.0705 29.7308 24.3345 29.6516C26.4197 28.9653 23.5954 43.0343 19.7416 52.6687C17.8939 57.2088 17.6035 58.4758 18.2106 59.0829C21.3517 62.224 28.9801 42.3744 28.9801 31.0506C28.9801 27.5927 28.9801 27.5927 30.643 26.6953C50.4663 16.0314 53.185 15.4771 64.8783 19.674C70.2631 21.6009 72.9818 22.3136 75.9645 22.6039C77.6011 22.7623 78.129 22.9207 79.1584 23.6598C83.0386 26.4841 90.1919 27.9887 97.873 27.6455C107.851 27.1968 116.376 25.2963 138.786 18.671C165.868 10.6203 179.594 9.88118 192.66 15.741C194.27 16.4801 194.27 16.4801 191.261 17.4304C173.048 23.2638 171.596 40.7906 189.334 40.7906C201.714 40.7642 209.791 30.2587 204.881 20.5187C204.037 18.8029 203.799 18.8821 209.606 18.9085C216.839 18.9613 223.57 19.806 237.902 22.4456C263.348 27.1176 277.76 27.6191 291.407 24.2405C294.785 23.4222 294.785 23.4222 296.554 23.9765C303.628 26.1674 305.027 26.2729 328.836 26.2729C353.78 26.2729 355.496 26.4313 363.388 29.6516C379.964 36.3825 385.877 55.0971 375.715 68.5326C374.527 70.1163 371.94 72.7823 371.808 72.5711C371.755 72.5183 371.307 71.6209 370.805 70.6178C363.942 56.9184 340.582 58.0534 340.582 72.096C340.582 83.2614 356.604 88.5405 368.403 81.2553C369.301 80.701 369.301 80.701 369.116 82.5223C368.403 89.6228 365.764 96.4856 356.287 115.887C347.445 133.968 344.621 140.883 342.562 149.409C338.206 167.543 341.691 186.205 351.774 198.479C352.988 199.957 352.988 199.957 352.803 201.541C351.747 209.697 355.1 217.193 365.632 230.418C376.48 243.959 379.542 252.801 378.222 266.606C376.19 287.723 365.473 306.411 351.14 313.855C348.527 315.227 348.527 315.227 348.078 312.773C345.861 300.604 333.613 295.694 325.22 303.613C316.139 312.218 327.358 323.278 342.667 320.77C344.964 320.401 344.568 323.41 339.658 343.814C328.572 389.822 331.106 413.393 348.659 427.251C350.137 428.439 350.137 428.439 349.873 429.679C348.659 435.381 349.794 443.247 354.308 459.691C361.435 485.823 359.983 500.077 349.557 506.597C347.498 507.89 347.445 507.864 347.524 505.673C348.052 493.9 333.561 486.536 328.651 496.091C325.668 501.925 330.235 510.054 337.837 512.483C339.896 513.116 339.816 513.327 336.675 515.492C328.123 521.352 316.879 522.513 296.765 519.583C280.532 517.208 273.642 516.706 263.638 517.128C248.408 517.788 225.101 524.968 225.101 529.033C225.101 530.485 228.242 530.01 237.639 527.185C255.376 521.853 268.284 520.929 288.054 523.595C304.261 525.76 305.449 525.865 311.837 525.997C327.305 526.341 338.154 522.592 344.304 514.753C345.36 513.407 345.544 513.301 347.366 512.826C363.889 508.682 367.928 489.677 358.953 458.108C354.994 444.118 354.361 441.03 354.334 435.354C354.308 430.656 354.202 430.841 356.235 431.685C369.301 437.202 382.736 431.157 378.381 421.734C374.316 412.839 358.716 412.944 352.882 421.919C351.51 424.004 351.668 424.031 348.633 420.837C335.884 407.375 334.828 388.264 344.409 344.342C347.339 330.959 348.369 325.047 348.369 321.747C348.369 320.322 348.738 319.134 349.187 319.134C350.348 319.134 356.499 315.782 359.613 313.432C379.252 298.677 389.124 260.219 378.565 239.551C376.797 236.093 374.553 232.846 369.485 226.538C361.751 216.85 358.135 210.225 358.135 205.738C358.135 204.655 358.162 204.655 359.613 205.632C372.6 214.58 387.223 207.137 380.941 194.757C376.216 185.466 360.194 184.885 355.364 193.833C354.651 195.153 354.651 195.153 352.724 192.197C344.621 179.843 342.746 163.98 347.471 147.746C349.794 139.801 352.566 133.308 361.039 116.019C370.726 96.2481 373.55 87.8015 373.128 79.8827C373.049 78.3254 373.049 78.3254 375.372 76.0553C392.08 59.7692 385.903 33.1358 363.546 25.1379C355.152 22.1288 350.718 21.6537 328.044 21.3897C311.019 21.1786 308.406 21.0466 303.945 20.3075C302.15 20.0171 302.15 20.0171 303.417 19.2253C313.051 13.1015 311.441 1.67209 300.751 0.273119C298.877 0.0355567 298.613 0.00916093 296.897 0.193931ZM301.358 5.31471C307.878 6.71368 306.399 12.9167 298.454 17.404C295.973 18.7765 292.067 16.9024 290.272 13.4182C288.028 9.06291 295.023 3.94213 301.358 5.31471ZM87.8426 7.13602C93.3857 9.96036 90.0335 16.8497 82.1676 18.8821C80.5838 19.3045 80.5838 19.3045 79.7391 18.3278C75.0671 12.9959 81.6132 3.94213 87.8426 7.13602ZM19.8736 17.1664C21.3517 18.0903 23.4106 21.4161 23.8593 23.6598C24.0177 24.478 24.0177 24.478 21.7477 25.2963C15.703 27.4871 12.7467 26.8273 12.7731 23.343C12.8523 18.9613 16.97 15.3715 19.8736 17.1664ZM199.761 20.7826C206.439 28.8597 195.326 40.3155 185.005 36.013C176.796 32.5815 182.815 23.7389 195.59 20.4923C198.837 19.6476 198.81 19.6476 199.761 20.7826ZM357.132 65.6026C361.118 66.4473 365.684 69.8787 367.506 73.4158C368.509 75.3427 368.377 75.5802 365.42 76.9792C359.481 79.7771 354.334 80.0939 350.058 77.9294C341.189 73.4158 346.917 63.4382 357.132 65.6026ZM371.993 193.596C378.935 197.027 379.648 204.18 373.181 205.315C370.119 205.87 366.133 204.682 362.306 202.095C358.478 199.535 358.478 199.535 359.297 197.845C361.672 193.015 367.11 191.194 371.993 193.596ZM337.995 304.616C340.688 305.751 343.169 309.262 343.829 312.799C344.594 316.837 344.752 316.521 341.823 317.022C331.396 318.844 322.606 312.773 327.542 307.15C330.261 304.088 334.432 303.059 337.995 304.616ZM368.825 419.834C378.17 422.262 375.583 430.418 365.737 429.627C362.57 429.363 355.76 427.145 355.76 426.353C355.76 422.552 363.81 418.54 368.825 419.834ZM338.734 497.015C342.667 499.206 345.254 509.236 341.691 508.523C338.074 507.811 335.461 506.28 333.825 503.904C330.288 498.81 333.587 494.164 338.734 497.015Z" fill="black"/>
<path d="M1.34036 92.3166C-0.771298 99.2059 2.3434 112.034 7.54337 117.788C8.41443 118.765 8.44082 118.818 8.15047 120.032C4.79821 134.127 7.51697 149.991 18.2336 179.106C25.0438 197.636 26.7331 204.947 25.8356 211.837C25.3341 215.664 25.3869 215.532 24.2519 214.634C16.0956 208.22 4.2175 212.523 2.13224 222.659C-0.560131 235.804 17.1514 238.285 25.6772 225.958C26.5747 224.638 26.6803 224.744 27.3666 227.436C29.9534 237.599 27.6041 248.395 17.1514 274.526C3.87435 307.785 1.47234 320.587 7.06824 328.321C7.83372 329.403 7.83372 329.403 7.46418 331.198C6.03881 338.114 6.22358 350.467 7.86011 359.125C9.60223 368.205 11.4499 373.141 18.6824 388.028C29.0031 409.25 31.7219 422 29.1615 437.256C28.5016 441.057 28.5544 441.004 27.0234 439.896C14.5118 431 -3.46366 448.131 3.82156 462.016C9.23269 472.283 21.4539 469.459 28.5016 456.261C29.4782 454.414 29.4782 454.414 29.5046 457.053C29.5046 462.306 28.7392 465.843 25.1493 476.718C21.6651 487.329 21.1372 489.018 20.1341 493.057C14.8814 514.121 20.0286 525.26 36.4995 528.586C38.8751 529.061 38.8751 529.061 39.4558 530.935C42.7817 541.678 56.4811 546.139 69.3622 540.648C72.1866 539.461 74.219 538.299 79.5246 534.921C94.3326 525.445 104.469 524.89 121.256 532.545C131.973 537.455 140.974 539.065 148.206 537.375C149.843 537.006 149.843 537.006 151.559 538.114C159.187 543.024 182.864 543.71 182.864 539.012C182.864 537.983 182.098 537.877 172.728 537.851C162.618 537.798 161.695 537.666 157.524 535.686C155.756 534.841 155.597 534.709 156.046 534.419C164.229 529.509 164.968 519.479 157.471 515.388C148.629 510.531 140.129 522.145 145.382 531.859C146.332 533.601 146.464 533.416 143.719 533.733C137.938 534.393 132.712 533.099 122.814 528.586C105.023 520.456 92.5113 521.327 75.9612 531.911C61.6811 541.044 51.7563 541.52 46.1076 533.31C43.8639 530.037 44.0223 529.641 47.6649 529.298C59.8598 528.137 66.01 521.036 60.3877 514.649C54.0527 507.443 41.4619 512.273 39.1391 522.779C38.6376 524.996 38.9015 524.89 35.4965 524.046C21.2692 520.535 18.8407 509.818 26.8915 486.088C32.7777 468.667 33.5168 466.08 34.0447 460.273C34.4142 456.261 34.1239 452.751 33.0945 449.187C32.4082 446.891 32.4082 446.891 33.0417 444.436C37.6081 426.883 34.8894 411.864 22.9585 388.292C11.6611 366.014 8.33524 351.576 10.8692 335.765C11.4235 332.148 11.186 332.465 12.9017 333.257C24.5158 338.563 40.67 329.826 36.1564 320.693C31.5635 311.375 16.8083 311.956 11.1068 321.696C10.1829 323.279 9.97177 322.804 9.787 318.607C9.36467 309.422 11.8459 300.157 21.3219 275.45C32.3554 246.653 34.5462 232.821 29.6894 221.999C29.0559 220.574 29.0559 220.574 29.6894 218.752C33.2528 208.563 31.7747 200.354 21.3747 171.953C13.7464 151.179 11.0276 136.609 12.6114 125.258C13.1129 121.721 12.9017 121.959 14.9342 122.672C24.1991 125.813 34.2559 119.135 34.2559 109.817C34.2559 96.3023 17.7321 97.8597 10.8956 112.008C9.49665 114.885 9.49665 114.885 8.38803 113.248C4.63983 107.732 3.24086 101.344 3.71598 92.1318C3.82156 90.0201 2.00026 90.1785 1.34036 92.3166ZM28.8447 106.649C34.8102 112.43 23.6976 122.883 15.3829 119.319C13.852 118.66 13.852 118.686 14.9606 115.994C18.2864 107.943 25.3077 103.218 28.8447 106.649ZM17.4946 215.769C21.6915 216.878 23.8559 219.095 22.6153 220.969C18.7352 226.777 12.0306 230.551 8.65199 228.809C3.47842 226.143 7.35859 217.036 14.2479 215.69C15.858 215.374 16.0164 215.374 17.4946 215.769ZM27.4458 319.188C32.5665 321.537 32.8569 325.444 28.1057 327.793C23.0113 330.301 17.2834 330.063 13.1921 327.16C13.0073 327.054 14.3007 324.758 15.4093 323.2C18.4184 318.951 23.328 317.314 27.4458 319.188ZM23.3808 443.486C27.3402 445.439 27.3666 447.577 23.5392 454.15C17.9961 463.626 11.5819 465.632 8.36163 458.927C4.37587 450.586 15.2509 439.421 23.3808 443.486ZM54.7654 517.13C59.7542 519.532 54.4222 524.23 45.87 524.943C44.0751 525.101 44.0751 525.101 44.3127 523.993C45.5269 518.634 50.7532 515.177 54.7654 517.13ZM154.515 519.981C158.395 521.749 158.659 526.052 155.096 529.404C152.192 532.175 151.638 532.123 149.948 528.876C147.573 524.257 150.661 518.238 154.515 519.981Z" fill="black"/>
</svg>
