<svg width="366" height="527" viewBox="0 0 366 527" fill="none" xmlns="http://www.w3.org/2000/svg">
<path d="M83.4676 0.273883C77.159 0.854589 71.6687 2.20077 59.9754 6.05455C42.9765 11.6241 36.2456 12.5479 24.3411 10.9642C2.45905 8.06063 -1.76427 11.9936 4.0428 29.8899C8.23972 42.8238 8.23972 45.8329 3.93721 57.1567C-0.0749401 67.6886 0.400183 71.2785 7.18389 81.9423C12.8854 90.9433 14.5747 96.46 13.4133 102.267C12.6478 105.936 11.8823 107.705 6.97273 117.049C0.822515 128.768 0.954494 134.443 7.7646 151.865C14.9178 170.131 14.8651 176.809 7.47425 194.731C1.03368 210.384 0.901703 214.132 6.26004 230.154C12.859 249.793 12.8326 259.137 6.12806 282.946C2.40626 296.144 2.06312 297.992 3.11895 299.021C4.46513 300.394 5.83771 299.021 7.02552 295.114C14.997 269.167 16.4752 261.961 16.0793 250.875C15.7889 243.3 14.8387 238.812 11.2488 228.148C6.41842 213.789 6.4976 211.282 12.1199 197.028C20.0386 177.046 20.0386 168.705 12.1463 149.779C4.83467 132.279 4.80827 130.009 11.6712 115.729C19.0884 100.314 18.7716 94.3747 9.87626 79.5667C3.62047 69.1668 3.54128 68.3221 8.18693 56.3385C11.5392 47.6279 11.724 40.9761 8.82043 31.5265C8.23972 29.7051 7.34227 26.8016 6.81435 25.0595C3.54128 14.4484 6.97273 12.0992 22.6254 14.2108C37.5654 16.2697 45.009 15.3459 64.0667 9.11646C83.9164 2.6231 89.565 2.49113 112.239 8.16621C135.045 13.8677 143.756 13.9469 173.741 8.82611C191.162 5.84339 197.84 5.1571 204.677 5.65862C211.329 6.16014 214.628 6.92561 225.873 10.4362C236.457 13.7621 244.271 14.5276 253.72 13.155C259.211 12.3631 261.903 11.6505 276.421 7.16317C288.272 3.49416 291.017 3.36219 304.031 5.65862C315.486 7.69109 322.877 7.74388 322.877 5.81699C322.877 4.65558 321.32 4.12766 315.75 3.41498C313.929 3.20381 309.547 2.49113 305.984 1.83123C290.305 -1.01951 287.243 -0.729156 268.106 5.39466C256.624 9.06367 248.177 10.489 241.446 9.88194C236.88 9.4596 233 8.61494 226.665 6.63526C213.044 2.35915 211.408 2.09519 200.005 2.09519C190.027 2.12159 188.76 2.25356 174.031 4.76116C153.865 8.19261 150.302 8.61494 141.934 8.64134C132.59 8.66773 127.126 7.84946 112.899 4.20685C99.0675 0.696215 90.8848 -0.412407 83.4676 0.273883Z" fill="black"/>
<path d="M341.754 6.55682C341.622 6.63601 341.173 6.74159 340.777 6.82078C338.111 7.42788 340.302 9.1964 344.394 9.75071C363.61 12.3375 366.012 18.8308 356.14 41.5576C345.951 64.9706 345.106 72.9421 350.227 96.7775C355.163 119.742 354.741 129.086 347.719 153.74C340.249 180.056 340.408 186.497 349.382 212.866C359.756 243.274 360.284 257.053 352.497 290.602C346.532 316.179 346.452 323.227 351.916 348.012C356.43 368.495 356.615 376.177 353.21 400.118C351.811 409.963 351.837 414.266 353.236 414.266C354.635 414.266 355.744 410.861 357.195 402.124C361.26 377.549 361.128 368.786 356.272 346.059C351.626 324.23 351.679 316.047 356.668 294.403C361.683 272.758 362.316 268.35 362.316 255.231C362.343 239.235 360.785 231.369 353.078 208.458C345.792 186.761 345.661 179.238 352.127 155.983C359.413 129.878 359.782 120.243 354.45 93.9532C350.28 73.3645 351.072 66.0001 359.835 44.7251C361.181 41.452 362.633 37.8358 363.055 36.6744C369.443 19.3324 365.378 9.75071 350.491 7.24311C347.667 6.76799 342.308 6.34566 341.754 6.55682Z" fill="black"/>
<path d="M4.36136 315.073C4.01822 315.68 4.20299 320.748 5.04765 331.253C6.49942 349.968 6.52582 350.469 6.52582 365.172C6.52582 383.095 6.28825 386.077 3.09437 408.725C0.745146 425.486 0.71875 425.592 0.71875 433.801C0.745146 442.063 0.877125 443.382 2.96239 454.548C5.33801 467.112 5.60196 473.526 4.25578 485.536C3.35833 493.429 3.35833 507.445 4.22939 512.724C6.20907 524.629 8.39991 526.028 19.1958 522.253C38.1215 515.628 41.421 515.258 54.2229 518.426C68.2127 521.857 74.0198 521.514 93.4206 516.05C104.718 512.882 110.393 511.932 117.731 511.932C126.785 511.959 129.424 512.566 147.875 518.848C159.516 522.834 165.349 522.966 180.87 519.587C200.561 515.311 206.896 515.205 223.895 518.822C241.95 522.675 247.651 523.23 247.651 521.144C247.651 519.772 245.434 518.98 233.793 516.261C209.536 510.56 202.118 510.401 180.078 515.1C164.689 518.399 160.756 518.32 150.119 514.677C133.014 508.765 131.457 508.342 125.016 507.577C114.616 506.363 106.355 507.366 89.8044 511.906C72.4096 516.657 68.3447 516.868 55.226 513.78C42.2921 510.718 36.749 511.167 20.5948 516.683C12.3857 519.481 11.4882 519.613 10.8283 518.267C8.71666 513.965 8.00398 498.814 9.29737 485.932C10.538 473.447 10.2476 466.848 7.8456 453.809C5.94511 443.356 5.76034 441.614 5.73394 434.065C5.73394 426.568 5.81313 425.671 7.8456 410.309C11.8314 380.27 12.0425 362.875 8.76946 333.761C6.6314 314.703 6.6314 314.756 5.31161 314.756C4.91568 314.756 4.49334 314.914 4.36136 315.073Z" fill="black"/>
<path d="M355.451 428.414C355.187 429.47 355.557 432.532 356.428 436.729C357.959 444.119 357.827 447.92 355.61 457.924C353.445 467.691 353.181 475.187 354.659 484.742C356.375 495.67 356.507 497.096 356.533 502.692C356.533 514.464 354.791 516.391 345.13 515.23C337.423 514.279 333.912 514.834 325.914 518.186C315.277 522.647 312.268 523.016 300.706 521.195C285.08 518.767 268.028 519.057 267.078 521.776C266.445 523.544 266.418 523.544 277.082 523.148C283.734 522.911 288.195 523.28 298.067 524.864C313.297 527.319 315.91 527.055 329.425 521.433C335.549 518.899 338.452 518.529 345.315 519.426C360.334 521.433 363.449 513.699 358.909 485.798C356.85 473.128 356.877 469.591 359.173 459.93C360.968 452.408 361.179 451.193 361.337 446.944C361.575 440.635 360.44 433.957 358.46 429.971C357.352 427.754 355.821 426.962 355.451 428.414Z" fill="black"/>
</svg>
