<svg width="378" height="525" viewBox="0 0 378 525" fill="none" xmlns="http://www.w3.org/2000/svg">
<path d="M199.237 0.67103C198.867 0.723822 197.521 0.908592 196.201 1.06697C187.675 2.1228 177.935 6.10856 170.888 11.4141C169.304 12.6019 169.304 12.6019 166.928 10.939C149.375 -1.20307 120.023 0.433469 101.546 14.5552C99.1703 16.3501 99.1703 16.3501 96.9795 14.9247C84.3887 6.53089 64.2488 4.34004 50.655 9.85675C49.124 10.4903 49.124 10.4903 47.5139 8.56336C35.0815 -6.35024 8.92327 3.62736 8.92327 23.2658C8.92327 24.612 8.84408 24.744 7.70906 25.8526C-3.0604 36.3317 -2.13655 62.4635 9.50397 76.2949C10.507 77.5091 10.507 77.5091 9.47758 79.6207C2.72027 93.109 4.9639 115.598 14.5192 130.01C15.9445 132.148 15.9445 132.148 14.1496 134.049C3.7497 145.161 0.846167 166.542 7.4979 183.171C8.42175 185.441 8.42175 185.441 7.23394 187.236C-0.711182 199.062 -0.631995 218.489 7.39231 230.235C8.47454 231.845 8.47454 231.845 7.12836 234.485C-0.394433 249.53 -0.552808 267.532 6.75882 278.275C7.28673 279.041 7.28673 279.041 5.99334 281.469C-0.552808 293.902 -0.948745 313.355 5.06949 326.395C5.96694 328.322 5.96694 328.322 5.04309 330.512C-1.95178 347.063 2.37712 373.722 14.0968 386.392C15.8126 388.266 15.8126 387.818 14.1232 390.193C4.91111 403.022 4.46239 424.165 13.173 434.96C14.4928 436.623 14.4928 436.623 13.9649 438.234C10.1639 449.663 12.8298 466.081 19.9039 474.818C21.0917 476.296 21.0917 476.296 21.1709 482.895C21.4349 513.646 46.3524 527.583 66.4132 508.209C68.3665 506.335 68.3665 506.335 69.6071 507.39C80.7461 517.078 99.4607 519.427 110.626 512.564C111.919 511.772 111.919 511.772 113.794 513.329C130.898 527.478 159.801 527.768 174.715 513.963C176.563 512.247 176.563 512.247 177.407 512.881C195.673 526.607 223.653 527.24 236.032 514.201C237.035 513.171 236.639 513.065 240.15 515.362C259.92 528.428 286.184 527.266 295.581 512.881C296.003 512.274 296.003 512.274 297.772 513.356C326.939 531.199 364.289 516.576 358.984 489.362C358.773 488.174 358.773 488.174 360.884 485.904C376.801 469.011 379.308 435.752 365.794 420.39C364.923 419.387 364.923 419.387 365.873 417.354C372.842 402.019 370.36 380.638 360.145 368.338C359.538 367.598 358.905 366.807 358.72 366.569C358.403 366.173 358.588 365.856 360.119 364.061C374.742 346.957 376.511 318.925 363.841 304.935C362.6 303.562 362.6 303.562 364.025 301.108C373.105 285.64 373.396 265.077 364.738 252.302C363.735 250.85 363.735 250.85 365.028 249.187C376.167 234.828 378.147 208.247 369.067 194.521C368.433 193.571 368.433 193.571 369.727 191.064C377.91 175.517 378.886 155.245 372.076 141.941C370.756 139.354 370.756 139.354 371.838 136.82C378.833 120.534 377.646 99.5495 369.093 88.1994C367.642 86.2725 367.642 86.2725 369.225 83.9496C380.364 67.3995 380.074 43.8809 368.592 33.349C366.665 31.5805 366.665 31.5805 367.061 30.1023C372.604 10.3055 346.604 -3.94823 318.545 3.44259C314.876 4.41923 309.967 6.39891 306.958 8.14103C304.74 9.43442 304.74 9.43442 303.183 8.16743C289.378 -2.94519 259.868 -0.939111 241.496 12.4171C239.781 13.6313 239.781 13.6313 238.302 12.206C229.777 3.9705 211.59 -1.38784 199.237 0.67103ZM36.4012 6.02937C38.6977 6.76845 41.6804 8.72174 43.5809 10.7806C45.4022 12.7867 45.455 12.4963 43.2113 14.1857C33.4713 21.6293 32.6794 37.0444 41.9707 39.0241C50.6813 40.8982 56.2772 27.8059 51.8164 15.9542C51.1565 14.2385 51.1565 14.2385 52.1067 13.8425C64.1432 8.82732 82.0923 10.7806 93.5744 18.3562C95.7389 19.7816 95.7389 19.7816 94.2871 21.7085C86.0517 32.6363 89.3247 45.6758 99.8302 43.7753C108.91 42.1388 111.18 30.6038 104.186 21.4973C102.628 19.4648 102.391 19.8607 106.825 16.8516C122.742 6.05577 146.023 4.78877 161.491 13.8425C165.239 16.0334 165.397 16.2709 164.104 17.8019C155.314 28.3602 156.344 40.2911 166.136 41.3205C177.302 42.4819 182.159 28.149 174.134 17.6963C172.867 16.0334 172.656 16.3765 176.668 13.6841C194.195 1.96442 220.538 2.78269 234.343 15.5054C236.059 17.0628 236.059 17.0628 234.765 18.4882C225.738 28.5186 227.744 42.2707 237.959 40.3703C246.511 38.8129 248.834 28.5977 243.106 17.8811C242.922 17.5379 249.125 13.6577 252.556 12.0212C268.473 4.39283 287.478 4.15527 298.458 11.4405C300.359 12.7075 300.359 12.7075 298.643 14.5024C289.246 24.48 290.672 38.3114 301.071 38.3114C310.6 38.3114 315.246 26.0638 309.703 15.6374C308.383 13.1562 308.251 13.3146 313.002 11.0974C335.36 0.67103 364.025 9.5928 362.257 26.4333C361.966 29.2048 361.94 29.284 360.831 28.9409C352.332 26.4861 341.008 33.085 340.507 40.8454C339.82 51.3245 355.843 49.6352 363.286 38.417C364.474 36.6484 364.421 36.6484 365.715 38.0474C374.214 47.3123 374.267 65.4198 365.82 79.2512C363.55 82.9466 363.735 82.8146 362.072 81.8644C352.702 76.5588 339.794 82.1811 339.794 91.5516C339.82 101.16 353.625 101.107 362.864 91.4724C364.025 90.2582 363.946 90.2582 365.187 92.0268C371.759 101.45 373 117.789 368.169 131.515C366.902 135.078 367.193 134.893 365.213 133.415C352.886 124.15 335.676 133.363 339.002 147.484C341.8 159.362 356.767 158.966 366.111 146.745C367.51 144.897 367.51 144.897 367.958 145.795C373.053 155.72 372.208 173.326 366.031 186.339C364.685 189.19 364.685 189.19 363.418 188.292C353.441 181.112 339.108 188.081 340.005 199.669C340.85 210.412 352.728 211.23 362.521 201.252C365.213 198.507 365.213 198.507 366.137 200.54C371.865 213.104 370.176 231.819 362.257 243.67C359.908 247.181 360.251 246.996 358.614 245.782C349.033 238.629 336.31 241.004 334.383 250.269C332.245 260.669 346.71 264.338 357.902 256.235C359.908 254.783 359.908 254.783 360.963 256.525C367.642 267.664 367.325 283.898 360.172 296.99C358.245 300.5 358.482 300.342 356.635 299.497C347.079 295.221 335.307 300.448 334.488 309.369C333.512 319.875 346.71 320.376 357.057 310.188C359.617 307.654 359.353 307.627 361.518 310.768C370.677 324.045 368.011 347.221 355.763 360.868C354.153 362.689 354.338 362.662 352.332 361.369C341.879 354.612 326.517 360.234 328.549 370.106C330.318 378.526 342.618 378.817 353.256 370.713C354.391 369.842 354.391 369.842 355.711 371.452C364.5 382.354 367.061 399.617 361.834 412.999C360.699 415.955 360.884 415.85 358.773 414.794C348.98 409.911 336.759 416.061 337.63 425.432C338.527 434.855 351.435 435.251 359.987 426.091C361.016 424.983 361.966 424.191 362.046 424.323C372.868 439.237 371.363 464.682 358.746 480.203C357.083 482.235 357.004 482.262 356.529 481.127C351.171 468.193 333.274 466.081 328.866 477.88C323.983 490.919 337.841 499.841 351.91 492.767C353.995 491.711 353.995 491.711 353.837 494.298C352.728 511.667 333.222 520.747 311.735 513.884C306.034 512.036 298.3 508.156 298.406 507.153C298.406 506.862 298.617 505.727 298.854 504.592C301.494 491.711 291.384 477.458 283.096 482.314C276.84 485.983 279.612 497.254 289.035 506.546C291.622 509.106 291.622 509.106 290.46 510.69C282.304 521.75 260.58 522.119 243.555 511.508C239.675 509.08 239.939 509.449 240.863 507.522C246.274 496.383 240.731 482.948 230.753 482.895C220.644 482.869 220.802 496.753 231.044 507.786C233.102 510.004 233.129 509.898 229.829 512.326C217.925 521.169 197.547 520.166 182.132 509.951C179.704 508.341 179.704 508.341 180.179 507.628C187.913 496.674 183.742 480.044 173.237 479.992C162.388 479.965 161.2 495.196 171.125 506.889C172.683 508.71 172.683 508.71 171.363 509.872C158.35 521.407 135.016 522.146 119.073 511.535C115.325 509.027 115.377 509.133 117.04 506.994C124.642 497.149 121 482.394 110.943 482.367C101.678 482.367 99.5135 495.723 107.089 506.123C108.752 508.393 108.805 508.103 106.403 509.212C95.8709 514.069 82.4618 511.983 72.3523 503.933C70.9797 502.824 70.9797 502.824 71.6396 501.847C80.007 489.626 78.2121 473.789 68.4457 473.789C58.0722 473.789 55.2478 489.996 63.6945 501.108C65.2782 503.193 64.9351 503.801 59.999 507.549C43.5281 520.034 24.7607 506.678 24.7079 482.42C24.6815 479.068 24.6287 479.173 26.1597 479.833C33.6033 483.027 40.7301 478.329 40.7301 470.199C40.7301 458.954 27.0571 457.925 23.4409 468.879C22.4115 471.994 18.2146 461.567 17.3435 453.728C16.7628 448.554 17.7394 438.867 18.7689 439.685C21.91 442.272 29.0104 440.398 31.0165 436.465C35.583 427.517 24.1536 421.868 18.109 430.104C17.0004 431.582 17.0532 431.582 15.9445 429.76C9.87351 419.73 10.7182 404.13 17.9506 393.255C19.2968 391.223 19.2968 391.223 21.1709 392.226C27.849 395.816 34.6327 393.994 35.8733 388.293C37.3779 381.298 28.2186 378.421 20.7222 383.541C19.112 384.65 19.112 384.65 17.6603 383.093C8.28977 373.036 3.7233 352.5 7.4979 337.507C8.7385 332.598 8.68571 332.624 10.6654 334.577C17.7131 341.519 27.3211 338.51 27.8754 329.166C28.4561 318.714 18.7161 314.411 11.0085 321.67C9.18722 323.386 9.18722 323.386 8.63291 322.119C5.49182 314.807 4.88472 302.058 7.20754 292.529C7.97302 289.388 9.9527 284.056 10.6654 283.238C10.6918 283.185 11.4309 283.686 12.2755 284.346C21.6988 291.658 34.2104 287.012 32.1515 276.955C30.3038 267.981 19.5872 266.08 11.8004 273.366C10.2695 274.817 10.2695 274.817 8.89687 271.597C4.88472 262.095 5.70299 249.187 10.9821 238.259C12.2227 235.672 12.2227 235.672 13.4633 236.57C22.8866 243.327 35.583 237.599 35.583 226.619C35.583 215.981 24.2328 214.635 14.6248 224.138C11.2989 227.411 11.7212 227.437 9.87351 223.689C5.06949 213.896 5.22786 201.12 10.2958 191.856C11.1141 190.351 11.1141 190.351 12.2755 191.908C19.112 200.988 29.7759 201.596 32.4155 193.017C35.8469 181.904 23.4145 173.59 13.6745 180.532C12.5395 181.35 12.4339 181.244 11.4573 178.209C6.81161 163.797 9.60956 146.877 18.241 137.375C19.4024 136.081 19.4024 136.081 20.8805 137.375C28.4561 144.132 38.4601 142.522 37.9058 134.63C37.4307 128.189 29.3272 125.206 21.5932 128.69C20.7222 129.086 19.9567 129.35 19.9039 129.298C11.4045 119.98 7.4979 96.0653 12.4339 83.7913C13.8593 80.2542 13.5953 80.4126 15.8126 81.7852C24.0216 86.7476 33.2602 83.6329 33.2865 75.8725C33.3393 67.5051 23.0978 65.1559 15.3902 71.7284C13.5689 73.3122 13.5689 73.3122 12.4603 71.8868C5.06949 62.3843 2.72027 45.0423 7.52429 35.5134C9.47758 31.6069 9.9791 31.1317 10.6654 32.5043C14.3608 39.7631 23.8369 37.4139 23.8369 29.2576C23.8369 23.8729 20.6694 21.3125 14.9943 22.1308C12.909 22.4211 13.0938 22.6323 13.5425 20.4415C15.6278 10.4375 27.2419 3.12584 36.4012 6.02937ZM48.6753 20.2303C50.6286 27.9906 46.6692 36.9388 42.2875 34.6424C37.4835 32.1612 39.384 22.9491 45.7717 17.6699C47.6194 16.1389 47.6194 16.1389 48.6753 20.2303ZM305.242 18.7257C308.594 25.2191 305.453 34.616 300.491 32.9794C295.977 31.5013 296.927 24.3216 302.418 18.409C304.107 16.5613 304.133 16.5613 305.242 18.7257ZM171.389 23.477C174.266 28.9937 173.052 34.2728 168.538 35.7774C162.151 37.9154 161.438 29.6008 167.403 21.9724C169.198 19.676 169.409 19.7552 171.389 23.477ZM239.965 23.1338C242.262 28.3602 241.127 34.0353 237.563 35.1175C232.97 36.4637 232.918 29.548 237.51 23.3978C239.121 21.2597 239.121 21.2597 239.965 23.1338ZM101.388 26.2221C104.925 31.95 103.156 39.0505 98.1937 39.0505C93.2313 39.0505 93.0993 31.5541 97.9561 24.9551C99.4871 22.8963 99.3023 22.8435 101.388 26.2221ZM17.977 27.4627C20.2734 28.6505 20.2998 31.6333 18.0298 32.6627C16.578 33.3226 13.6745 30.4454 13.6745 28.3866C13.6745 27.5419 16.7892 26.8556 17.977 27.4627ZM358.878 33.9297C359.696 34.0881 359.696 34.0881 358.905 35.2759C354.285 41.9804 343.305 45.7814 346.287 39.6576C348.135 35.8302 354.312 33.0322 358.878 33.9297ZM26.8724 72.6259C31.4124 74.9223 27.717 80.6766 22.5699 79.304C21.0125 78.9081 18.4785 77.6939 17.4227 76.8492C15.1527 75.0543 23.9161 71.1477 26.8724 72.6259ZM357.611 85.7446C360.066 86.6948 360.066 86.6684 358.271 88.3049C351.91 94.1912 343.094 95.4582 345.311 90.1527C347.026 86.0085 352.913 83.9233 357.611 85.7446ZM30.3566 132.227C34.4744 133.389 33.8936 137.876 29.7759 136.952C27.5587 136.451 23.3617 133.785 23.9161 133.231C24.8135 132.333 28.5881 131.752 30.3566 132.227ZM357.981 135.474C359.696 136.108 362.494 137.929 363.656 139.196C365.292 140.938 357.638 148.804 352.728 150.441C345.205 152.948 340.955 144.554 346.525 138.219C349.297 135.078 353.837 133.996 357.981 135.474ZM24.444 183.409C28.2978 185.389 29.1688 190.932 25.9749 193.307C23.5201 195.155 17.977 191.592 14.9151 186.18C14.6775 185.732 17.6867 183.699 19.4552 183.145C21.2237 182.538 22.9394 182.643 24.444 183.409ZM358.165 191.407C362.098 193.36 362.151 193.835 358.799 197.399C352.49 204.156 344.73 204.789 345.311 198.507C345.865 192.621 352.807 188.794 358.165 191.407ZM28.4561 223.108C32.1779 224.982 29.8815 231.951 24.9191 233.825C22.4379 234.749 19.9303 234.3 16.974 232.399C15.0471 231.185 15.0471 231.185 16.8156 229.153C20.8014 224.533 25.9485 221.841 28.4561 223.108ZM349.508 247.181C351.751 247.762 356.027 250.111 356.027 250.744C356.027 251.589 349.877 254.783 347.132 255.364C342.988 256.235 339.451 254.387 339.715 251.51C340.058 248.026 344.756 245.94 349.508 247.181ZM24.18 273.867C27.8226 275.372 28.7729 279.648 26.0013 282.076C23.3881 284.373 18.6369 283.449 14.6248 279.859C13.4369 278.777 13.4369 278.803 14.9151 277.299C18.0826 274.078 21.5668 272.759 24.18 273.867ZM352.464 303.668C355.077 304.381 355.104 304.592 352.992 306.598C345.944 313.302 337.234 314.517 340.216 308.393C342.17 304.301 347.422 302.295 352.464 303.668ZM21.3029 323.042C25.1831 325.814 23.9688 333.231 19.5344 333.812C17.5283 334.076 14.1496 331.832 12.2227 328.929C10.2167 325.893 18.0826 320.772 21.3029 323.042ZM345.284 364.009C349.93 365.566 350.458 366.199 348.241 367.651C341.378 372.139 333.591 372.587 333.591 368.47C333.591 364.801 340.164 362.293 345.284 364.009ZM30.3038 385.759C33.4185 387.369 29.2744 390.246 25.6846 388.979C22.8074 387.95 22.781 387.87 24.3648 386.841C26.582 385.442 28.8785 385.02 30.3038 385.759ZM355.843 419.361C358.06 420.364 358.06 420.39 355.579 422.818C350.141 428.15 342.83 429.206 342.83 424.64C342.83 419.783 350.247 416.774 355.843 419.361ZM27.1363 431.582C28.2714 434.274 24.5232 436.755 21.5668 435.251C20.2998 434.591 20.4054 434.301 22.5171 432.162C24.6023 430.104 26.4237 429.866 27.1363 431.582ZM34.6591 465.923C39.5159 469.724 33.3657 477.748 27.9282 474.686C25.8957 473.525 25.8429 473.366 26.8196 471.281C29.0896 466.477 32.4419 464.181 34.6591 465.923ZM343.094 475.531C346.604 476.56 349.824 479.648 351.804 483.872C352.86 486.063 352.86 486.01 350.801 487.25C344.73 490.84 338.791 491.025 335.412 487.699C330.001 482.367 335.703 473.34 343.094 475.531ZM70.6101 478.857C73.9096 482.05 73.2761 489.837 69.1056 497.122C67.6274 499.709 67.3371 499.524 64.8031 494.509C60.3158 485.561 64.8559 473.313 70.6101 478.857ZM174.345 484.4C179.968 486.828 180.997 499.366 175.982 504.513C175.269 505.252 170.65 498.363 169.383 494.668C167.324 488.702 170.254 482.631 174.345 484.4ZM112.368 486.696C117.859 489.494 118.254 498.469 113.107 504.249C110.573 507.126 105.215 494.984 106.825 490.022C107.828 486.96 110.151 485.587 112.368 486.696ZM288.243 486.96C292.123 489.415 294.895 497.307 293.786 502.824C293.522 504.249 290.592 501.61 287.742 497.36C283.202 490.576 283.518 483.977 288.243 486.96ZM232.918 488.042C237.722 490.787 239.279 499.049 236.138 505.068C235.478 506.308 230.648 500.316 228.774 495.961C226.24 489.969 228.562 485.535 232.918 488.042Z" fill="black"/>
</svg>
