<svg width="380" height="544" viewBox="0 0 380 544" fill="none" xmlns="http://www.w3.org/2000/svg">
<path d="M81.2475 1.20835C76.2587 3.00327 74.1998 7.96567 76.6282 12.4529C77.4201 13.9311 77.4201 13.9311 76.4435 14.1951C71.9826 15.3829 66.4923 15.5412 59.339 14.6966C51.3675 13.7463 46.8538 14.2479 42.3665 16.5179C40.2813 17.5737 40.2813 17.5737 38.6183 17.0194C28.0864 13.4824 14.2023 20.3717 9.76779 31.3259C5.49168 41.805 6.46832 52.9704 13.1728 70.7348C18.6104 85.1732 19.7718 90.1356 19.7982 98.9254C19.7982 106.659 17.9769 114.129 16.5779 112.123C11.5627 104.917 1.47952 105.999 1.45312 113.733C1.45312 120.332 8.89673 124.582 14.8886 121.388C18.0561 119.672 17.3698 152.034 13.3312 194.742C11.4835 213.932 12.1434 223.777 15.2053 223.777C16.2611 223.777 16.4987 222.774 16.4987 217.997C16.4987 212.691 16.8682 206.963 17.8185 196.458C19.6134 176.978 20.4581 162.698 20.9596 144.326C21.3027 132.078 20.9596 125.612 19.6398 119.356C19.3231 117.746 19.3231 117.719 20.1149 116.452C26.2123 106.501 25.2357 90.9803 17.1322 69.3622C11.9586 55.5308 10.5597 47.8233 11.8531 39.9837C13.6216 29.1879 21.4875 21.7706 31.5971 21.3747C36.1899 21.1899 36.1371 21.1635 35.0021 23.46C32.5737 28.3432 34.8965 32.6721 39.9381 32.6721C45.1909 32.6721 48.2792 27.0498 45.6132 22.325C44.1087 19.6854 49.0183 18.524 58.072 19.3422C67.0994 20.1869 74.2262 19.659 79.611 17.7849C81.4587 17.1514 81.4587 17.1514 83.148 17.9169C92.4129 22.1138 106.455 21.4275 123.797 15.8844C143.489 9.6286 146.498 9.655 165.16 16.2803C168.538 17.4681 169.33 17.3362 169.33 15.594C169.33 12.5057 153.493 7.22659 144.254 7.22659C137.893 7.25298 135.491 7.7545 123.665 11.4499C107.485 16.5443 96.689 17.5737 87.5825 14.855C86.2099 14.459 86.2099 14.459 87.5297 13.1392C93.3895 7.27938 88.7703 -1.48401 81.2475 1.20835ZM85.0485 5.48447C86.7378 6.5139 86.2099 8.46719 83.6495 10.7372C82.0394 12.1626 81.4323 12.0306 80.4028 10.0509C78.9511 7.25298 82.4089 3.84793 85.0485 5.48447ZM41.4427 24.6742C42.6305 26.4427 41.9442 28.4488 40.0965 28.4488C38.3544 28.4488 38.1696 27.2082 39.6214 25.0965C40.7564 23.4336 40.598 23.46 41.4427 24.6742ZM9.76779 111.965C11.9058 112.968 14.651 116.347 13.8063 116.927C11.3779 118.643 8.55358 118.485 6.78507 116.531C4.1191 113.654 6.30994 110.328 9.76779 111.965Z" fill="black"/>
<path d="M295.493 2.95098C290.795 4.00681 286.624 9.60272 287.944 13.0606C288.155 13.5621 287.152 13.4829 278.204 12.2159C263.792 10.157 259.912 9.7611 252.072 9.54993C236.763 9.1012 219.263 12.2687 218.127 15.7001C217.494 17.6798 218.735 18.023 222.245 16.8088C233.807 12.8494 252.996 12.3215 273.453 15.3834C281.372 16.5712 284.777 17.0463 287.786 17.3367C290.056 17.5742 290.293 17.6534 291.349 18.5509C295.863 22.4575 303.808 24.1204 322.945 25.1498C348.338 26.5224 355.834 30.0858 358.183 41.8583C359.767 49.6451 356.415 62.7902 353.353 60.8897C347.282 57.1415 338.703 58.5141 336.169 63.6084C331.629 72.6622 344.537 77.0967 353.221 69.4947C354.594 68.2805 354.594 68.2805 354.963 69.0196C356.6 72.2398 357.128 77.3606 357.233 90.8752C357.26 94.6498 357.339 98.0813 357.391 98.53C357.444 98.9523 357.55 101.645 357.655 104.469C358.21 122.577 359.635 134.771 361.773 139.734C362.275 140.922 362.275 140.922 361.668 141.898C357.471 148.656 357.655 156.284 362.38 173.89C367.343 192.314 368.214 201.579 366.366 216.915C365.416 224.728 367.976 226.708 369.824 219.581C372.965 207.254 371.962 192.684 366.524 172.201C362.803 158.184 362.222 152.72 363.938 147.547C364.782 145.066 364.73 145.092 365.97 146.333C371.117 151.506 379.67 148.656 379.696 141.74C379.696 135.352 373.071 133.161 365.68 137.121C365.442 137.253 364.466 133.557 363.964 130.812C362.829 124.345 361.8 108.613 361.219 89.2915C360.77 74.2723 360.348 70.8409 358.421 66.6967C357.471 64.6643 357.471 64.6643 358.421 62.9485C363.357 54.106 363.726 40.8025 359.213 33.3061C354.198 24.965 345.962 22.2727 321.625 20.9265C309.378 20.2666 304.336 19.6067 299.453 18.1022C297.737 17.5478 297.737 17.5478 300.113 16.9143C311.621 13.8788 307.134 0.285008 295.493 2.95098ZM300.984 7.64942C304.732 10.1306 301.723 12.9286 294.649 13.5357C292.616 13.7205 292.616 13.7205 292.3 12.6646C291.165 8.83724 297.368 5.27381 300.984 7.64942ZM349.974 63.7932C352.06 64.8226 352.086 64.849 350.344 66.2216C346.279 69.4155 341.501 70.2074 339.997 67.9109C337.727 64.4531 345.144 61.3912 349.974 63.7932ZM373.889 139.971C377.083 141.608 374.206 145.858 370.906 144.379C369.586 143.772 367.686 141.872 367.95 141.423C368.715 140.183 372.516 139.259 373.889 139.971Z" fill="black"/>
<path d="M196.758 3.5008C194.435 4.34546 191.083 6.48352 189.552 8.09366C188.813 8.88554 188.813 8.88554 188.179 8.12006C183.507 2.60334 176.354 8.12006 176.407 17.2266C176.486 30.8468 186.49 38.4488 196.362 32.3778C210.246 23.8255 210.615 -1.61998 196.758 3.5008ZM201.746 8.25204C205.759 12.8185 200.374 25.8844 192.957 29.527C187.598 32.1666 182.636 28.6032 181.105 21.0012C179.363 12.449 183.956 6.21956 186.252 14.0063C187.334 17.6753 190.449 17.9921 190.449 14.4286C190.449 13.2408 190.502 13.1353 192.244 11.6307C197.206 7.27539 200.031 6.27236 201.746 8.25204Z" fill="black"/>
<path d="M19.6411 227.288C18.1101 227.869 16.9487 228.687 15.5233 230.166C14.23 231.565 14.23 231.565 12.7254 230.799C0.662535 224.622 -3.66637 244.076 6.68077 257.987C15.8929 270.366 24.5243 267.489 28.774 250.596C32.7334 234.943 28.4309 224.015 19.6411 227.288ZM23.838 231.301C29.7507 236.289 22.5182 263.319 16.1041 260.204C10.9833 257.723 5.14981 246.98 5.14981 240.038C5.14981 233.333 10.8513 232.092 13.8604 238.137C16.0513 242.572 19.7467 240.486 17.6878 235.973C16.7376 233.887 17.2391 233.016 20.3274 231.485C22.3862 230.456 22.8086 230.43 23.838 231.301Z" fill="black"/>
<path d="M366.779 235.366C365.38 235.788 363.743 236.818 362.423 238.058C361.077 239.325 361.077 239.325 359.652 238.164C351.601 231.565 344.474 242.097 347.879 255.48C352.578 274.009 367.28 273.244 373.8 254.107C377.971 241.807 374.671 232.964 366.779 235.366ZM370.817 239.616C374.592 244.103 368.468 260.97 361.922 264.164C356.828 266.619 351.601 258.647 351.601 248.458C351.601 239.8 355.904 237.689 359.23 244.71C360.734 247.93 363.506 247.534 363.294 244.156C363.083 240.936 368.943 237.372 370.817 239.616Z" fill="black"/>
<path d="M21.8808 272.557C20.825 273.244 20.4554 274.907 20.4554 278.892C20.4554 284.198 20.3498 284.647 19.3996 283.96C12.1671 278.813 3.06061 280.898 3.03421 287.735C3.00782 293.964 11.7184 297.686 18.5813 294.36C20.8513 293.225 20.7458 293.146 21.5376 296.498C23.6229 305.367 21.2737 314.764 11.7448 335.96C-0.68759 363.57 -0.845965 373.415 11.0057 379.671C12.0088 380.173 12.8006 380.648 12.8006 380.674C12.8006 380.727 12.2199 381.994 11.5072 383.499C4.56517 398.096 6.8616 413.643 19.6635 438.771C26.2889 451.784 27.5559 455.929 26.5528 461.234C26.0249 464.032 25.9193 464.111 24.494 463.082C19.162 459.281 12.5367 459.598 9.71234 463.795C5.38343 470.262 14.3316 476.887 22.9894 473.561C24.0188 473.165 22.6727 478.286 19.558 486.759C8.76209 516.058 19.9275 531.025 46.1121 522.367C49.174 521.364 49.174 521.364 50.309 523.079C63.9292 543.906 107.905 549.264 125.379 532.265C127.49 530.18 127.49 530.18 130.922 530.602C144.41 532.265 167.744 532.107 169.512 530.312C171.413 528.438 170.146 528.147 160.063 528.095C148.844 528.042 139.632 527.514 131.845 526.484C129.602 526.194 129.602 526.194 129.602 523.792C129.602 514.474 111.785 507.506 104.473 513.946C98.8244 518.909 105.555 525.297 119.967 528.649C122.792 529.335 122.686 529.626 118.753 531.948C103.048 541.213 77.9454 539.973 62.6622 529.177C58.9932 526.59 52.6846 519.833 53.4765 519.331C61.5272 514.448 62.4511 508.087 55.5618 504.946C49.3324 502.068 44.4228 507.928 46.6928 515.557C47.2207 517.378 47.2999 517.299 44.7395 518.064C28.2686 523.106 20.561 519.146 20.6138 505.685C20.6402 500.168 21.4321 496.895 25.5762 485.65C28.2158 478.55 29.0604 474.353 28.6117 470.895C28.3741 469.153 28.4005 469.1 29.43 467.015C33.4157 459.07 32.3599 452.893 24.494 437.795C11.8504 413.59 9.44838 397.62 16.4697 384C17.4727 382.021 17.4727 382.021 20.6138 382.1C28.6117 382.311 34.6035 378.008 35.1578 371.7C35.8969 362.989 23.5965 365.602 16.2057 375.738C14.4108 378.22 8.97326 373.627 7.65347 368.506C6.06972 362.435 7.94382 356.021 17.763 334.112C27.3447 312.679 29.3508 300.431 24.8107 290.876C23.8869 288.949 23.8869 288.949 24.5995 286.917C25.7874 283.485 25.5234 275.144 24.1772 273.56C23.4645 272.742 22.3559 272.241 21.8808 272.557ZM14.49 286.573C17.6311 288.078 18.3174 289.16 16.76 290.216C14.2788 291.905 10.3458 291.694 8.47174 289.794C5.35704 286.6 9.65955 284.251 14.49 286.573ZM30.9081 371.198C31.7 374.366 26.1833 378.246 21.4057 377.876C20.3234 377.797 20.3234 377.797 23.095 375.026C27.0543 371.066 30.4594 369.403 30.9081 371.198ZM19.558 466.038C22.2239 467.411 22.699 468.651 20.9041 469.549C17.7103 471.185 13.0646 469.734 13.0646 467.12C13.0646 465.457 17.1295 464.798 19.558 466.038ZM54.242 509.512C55.9841 510.409 56.0105 511.808 54.2948 513.392C51.9455 515.583 51.708 515.609 51.3384 513.577C50.6785 510.119 51.9455 508.324 54.242 509.512ZM117.301 516.665C122.079 517.747 125.511 520.73 125.511 523.792C125.511 525.534 125.405 525.561 122.475 524.927C114.899 523.291 109.462 520.968 107.561 518.539C105.951 516.48 111.626 515.398 117.301 516.665Z" fill="black"/>
<path d="M363.79 280.421C363.446 280.791 363.605 284.961 364.133 288.34C367.221 308.717 365.584 336.67 360.701 346.252C359.408 348.786 359.487 348.733 357.666 347.994C350.037 344.906 341.168 347.915 341.168 353.564C341.168 360.031 351.278 361.324 358.59 355.781C360.358 354.461 360.173 354.435 361.493 355.939C367.142 362.327 367.485 374.496 362.628 396.404C361.044 403.663 360.437 407.411 360.437 410.209C360.437 412.162 360.332 412.69 359.883 413.324C355.29 419.764 353.786 431.774 355.792 445.896C358.035 461.522 358.484 466.749 358.246 474.404C357.613 495.362 350.724 514.182 341.96 518.986C340.561 519.751 340.561 519.751 340.772 519.118C343.438 510.724 340.588 505.26 333.778 505.735C325.437 506.342 321.979 516.373 328.182 522.048C330.98 524.635 325.463 525.083 313.849 523.288C289.749 519.514 272.196 520.834 244.006 528.515C230.042 532.342 223.417 533.504 219.273 532.844C214.812 532.157 214.469 532.21 214.469 533.688C214.469 537.78 227.587 537.542 244.428 533.134C276.525 524.714 289.485 523.737 315.433 527.749C324.909 529.201 331.032 528.515 335.361 525.479C335.731 525.215 336.681 524.925 337.473 524.819C348.11 523.473 355.976 513.548 360.437 495.863C364.106 481.425 364.291 469.6 361.229 449.116C359.117 434.836 358.959 429.188 360.543 422.985C361.625 418.84 361.625 418.814 362.549 420.239C367.828 428.554 375.826 425.967 375.43 416.043C375.193 410.051 372.896 407.569 367.775 407.807C364.951 407.939 365.004 408.546 367.036 398.991C372.236 374.39 371.576 361.113 364.687 352.93C363.077 351.003 363.077 351.003 364.001 349.367C367.274 343.349 368.884 334.4 369.412 319.223C370.125 297.446 367.195 277.042 363.79 280.421ZM354.973 351.558C356.188 351.954 356.135 352.218 354.525 353.3C351.911 355.068 348.374 355.675 346.448 354.699C342.567 352.719 350.064 349.948 354.973 351.558ZM370.547 412.347C373.82 415.752 371.893 422.721 368.33 420.319C366.324 418.946 364.634 414.3 365.743 413.113C367.432 411.318 369.253 411.027 370.547 412.347ZM336.232 510.645C338.238 512.466 337.631 517.376 335.097 519.804C333.329 521.494 329.29 518.352 329.29 515.291C329.29 511.754 333.989 508.612 336.232 510.645Z" fill="black"/>
<path d="M199.591 515.978C197.611 516.4 194.391 519.092 193.256 521.257C192.86 522.022 192.86 522.022 191.54 521.125C182.645 515.133 178.184 531.921 186.314 540.684C193.599 548.471 203.946 540.183 205.556 525.269C206.295 518.459 204.104 515.054 199.591 515.978ZM201.755 520.65C203.788 525.559 198.376 537.622 193.414 539.206C190.115 540.262 186.419 534.745 186.393 528.78C186.393 523.448 188.32 522.788 190.616 527.354C192.358 530.786 194.47 530.944 194.839 527.671C195.315 523.844 200.752 518.3 201.755 520.65Z" fill="black"/>
</svg>
