<svg width="365" height="542" viewBox="0 0 365 542" fill="none" xmlns="http://www.w3.org/2000/svg">
<path d="M153.018 0.316597C140.796 1.08207 125.064 6.86274 119.205 12.7226C116.855 15.0718 118.993 16.3388 122.266 14.5175C139.899 4.72469 157.822 2.42826 172.867 8.02416C177.618 9.79267 180.469 11.3236 187.702 16.0485C202.879 25.9205 210.613 26.5276 247.25 20.6941C295.713 13.013 300.147 13.9896 306.667 33.8392C311.999 50.0462 316.618 55.7213 334.092 67.3618C348.056 76.6795 353.414 81.6419 356.793 88.32C360.778 96.1596 359.881 100.304 350.458 117.989C344.149 129.841 342.328 136.862 342.301 149.268C342.275 160.433 343.357 164.683 346.129 164.261C347.818 164.023 348.003 162.519 347.554 151.907C347.237 143.83 347.897 138.604 350.141 131.873C351.197 128.679 352.385 126.198 359.485 112.314C369.621 92.4642 364.579 81.2724 337.313 63.0329C327.256 56.302 323.376 53.1081 319.839 48.568C315.8 43.3945 314.296 40.1742 310.6 28.6392C304.503 9.79267 294.947 7.7602 247.778 15.3094C210.244 21.3012 205.149 20.9317 189.576 10.8221C176.325 2.24349 166.611 -0.554463 153.018 0.316597Z" fill="black"/>
<path d="M96.795 15.1006C75.8631 17.8986 55.6176 27.1635 51.2095 35.9533C48.1212 42.1035 49.309 47.3562 55.7496 56.0932C60.2896 62.2698 60.8703 61.6363 47.3029 65.3581C21.0127 72.5642 9.74175 79.9286 8.87069 90.5133C8.34278 96.6107 11.0879 101.494 20.8544 111.788C30.304 121.792 30.3304 122.637 21.0919 135.492C3.40677 160.145 1.90221 175.138 13.9651 206.259C19.5082 220.565 19.429 222.255 11.9854 241.523C-3.98404 283.018 -3.42973 297.958 14.8361 316.751C26.9254 329.184 26.8726 330.398 12.7245 360.832C-3.29775 395.305 -3.48252 402.933 11.2463 418.401C19.8249 427.376 19.9305 428.432 13.9123 444.507C-0.895737 484.048 7.12857 496.718 53.3739 506.774C69.8713 510.364 75.2296 510.76 75.4936 508.437C75.7311 506.484 72.8804 505.375 61.7942 503.132C12.2757 493.128 4.93772 483.81 18.3732 447.912C25.8432 427.904 25.632 425.634 14.9417 414.363C2.27175 401.007 2.56211 395.252 17.5549 363.208C32.6269 330.899 32.7061 327.362 18.6635 312.898C2.21896 295.951 1.82302 282.833 16.6838 244.269C24.9721 222.782 25.1041 219.615 18.5315 203.118C7.92044 176.537 9.21384 161.122 23.7315 141.14C36.6918 123.323 36.6918 120.604 23.6523 106.826C6.65345 88.8768 12.5133 80.4037 48.7547 70.4789C66.5718 65.5957 67.9708 63.484 60.184 52.9521C53.8491 44.3471 53.3739 40.7573 57.9668 35.8213C63.2723 30.1462 80.6408 22.8082 97.0589 19.2975C103.605 17.8986 104.054 17.6874 104.054 16.262C104.054 14.9686 101.203 14.5199 96.795 15.1006Z" fill="black"/>
<path d="M348.114 186.121C347.559 187.572 348.114 189.922 350.436 196.045C355.531 209.481 354.713 214.443 344.603 231.363C337.951 242.476 336.13 246.197 334.757 251.556C332.382 260.794 333.965 272.54 337.45 271.643C338.743 271.326 338.849 270.825 339.007 262.906C339.218 251.661 339.957 249.602 348.853 234.794C361.523 213.704 361.971 206.34 351.571 187.995C350.199 185.593 348.642 184.748 348.114 186.121Z" fill="black"/>
<path d="M337.682 289.802C336.758 290.91 338.369 294.474 341.43 298.064C357.558 317.148 358.641 327.917 346.498 349.087C333.063 372.473 332.166 381.527 341.642 398.843C352.992 419.643 352.728 426.373 340.032 442.264C328.549 456.623 324.854 462.852 323.297 470.613C321.792 478.056 322.795 483.124 328.285 496.111C338.184 519.55 335.386 524.222 311.392 524.196C303.843 524.196 300.253 524.011 286.844 522.903C258.838 520.58 254.509 521.161 241.074 528.974C224.286 538.74 211.616 538.001 191.028 526.07C175.612 517.148 172.524 516.805 152.358 521.715C131.056 526.888 122.689 527.205 110.573 523.378C102.734 520.897 97.6129 517.412 93.2048 511.5C90.6972 508.147 89.1927 507.725 89.0607 510.365C88.744 516.409 100.992 526.519 112.104 529.37C123.745 532.352 133.564 531.745 154.073 526.73C172.313 522.269 173.817 522.428 187.728 530.425C211.009 543.782 224.92 544.415 244.822 533.039C256.278 526.493 260.58 525.938 284.073 527.892C339.187 532.511 347.264 526.836 333.037 493.471C324.643 473.807 325.778 468.923 344.123 445.827C358.297 427.957 358.72 418.956 346.472 396.414C337.946 380.762 338.685 373.371 350.722 352.518C360.251 336.047 362.151 325.7 357.822 313.716C353.968 302.947 340.269 286.687 337.682 289.802Z" fill="black"/>
</svg>
