<svg width="379" height="539" viewBox="0 0 379 539" fill="none" xmlns="http://www.w3.org/2000/svg">
<path d="M165.573 1.32928C156.598 6.55563 164.596 23.4225 178.507 28.6489C180.038 29.2296 179.906 29.4671 176.923 31.4204C168.74 36.8052 164.438 36.0397 141.658 25.059C120.41 14.7911 112.095 14.5535 94.2253 23.5809C80.7898 30.3646 72.8183 32.5026 63.8173 31.8164C41.6185 30.0478 32.1952 31.9483 24.0653 39.8407C17.5984 46.1493 15.6187 51.6396 14.906 65.3918C14.2725 77.7714 13.5598 80.5957 7.91114 93.7144C-0.165962 112.508 -1.169 122.723 3.68782 136.845C5.95785 143.444 6.8817 144.922 8.70301 144.922C10.973 144.922 11.0786 143.761 9.25732 137.716C4.26852 121.192 4.79644 114.805 12.6624 96.222C18.4694 82.5226 19.2349 79.0912 20.0532 63.2273C20.8451 47.9706 28.4206 38.8904 42.0408 36.8052C44.8124 36.3564 44.7068 36.3564 62.6823 36.8579C75.933 37.2275 81.2913 35.9605 94.9907 29.1768C113.415 20.0966 118.852 20.0702 137.303 28.9392C156.176 38.0194 161.191 39.8671 166.893 39.8671C172.146 39.8671 177.24 37.8346 180.909 34.324C183.073 32.2651 183.073 32.2651 184.367 34.0072C190.042 41.6356 201.524 40.9229 221.057 31.7372C234.149 25.587 236.604 25.5078 246.977 30.7077C261.02 37.7554 270.021 38.3361 286.122 33.2417C312.069 25.0326 338.465 23.792 348.944 30.3118C353.511 33.1361 357.866 39.1544 360.136 45.7005C362.406 52.3786 362.538 57.7634 360.69 71.0141C358.262 88.4616 358.764 93.7144 364.175 107.836C372.727 130.141 372.727 137.188 364.148 172.11C358.684 194.361 357.866 205.21 360.057 225.165C361.218 235.961 362.089 239.472 363.647 239.841C365.23 240.237 365.547 238.099 364.914 231.289C364.676 228.57 364.307 224.505 364.095 222.262C362.485 204.233 363.462 194.018 369.163 169.602C376.528 138.218 376.449 128.451 368.741 107.836C363.013 92.4738 362.749 89.7814 365.151 71.3308C367.501 53.5665 366.049 44.5391 359.265 34.324C351.557 22.7098 336.222 19.252 309.747 23.1322C299.531 24.6367 292.537 26.1941 284.855 28.6225C270.734 33.1361 262.208 32.7666 251.544 27.1971C242.437 22.4459 240.827 21.8916 235.838 21.8916C230.929 21.8916 227.603 22.789 220.529 26.0621C206.381 32.6082 202.395 33.9016 196.113 33.9016C191.863 33.928 190.359 33.4529 188.194 31.4996C186.61 30.0742 186.505 30.259 189.567 29.0448C202.87 23.792 210.367 12.4419 204.454 6.52924C199.28 1.35567 188.907 5.86934 184.42 15.2662C183.496 17.1667 183.496 17.1667 182.783 14.8439C179.431 4.10083 171.486 -2.12857 165.573 1.32928ZM170.113 5.92214C173.518 7.34751 176.052 11.3333 178.824 19.6215C180.196 23.7393 180.46 24.8215 180.143 24.8215C179.167 24.8215 174.284 21.6804 172.146 19.6743C167.051 14.9231 164.86 7.16274 168.213 5.81655C169.004 5.4998 169.084 5.4998 170.113 5.92214ZM200.495 9.37998C203.979 10.8317 201.339 16.0581 195.031 20.1758C192.629 21.7068 186.399 24.9535 186.188 24.7687C186.03 24.6103 187.191 21.0733 188.036 19.1464C190.939 12.5739 196.931 7.87542 200.495 9.37998Z" fill="black"/>
<path d="M6.63987 161.764C0.938385 175.014 1.36072 193.254 8.03884 223.187C12.5261 243.248 13.318 248.923 13.318 260.933C13.2916 272.996 12.6317 277.641 7.90686 298.151C1.75665 324.89 1.62467 334.762 6.98301 360.735C11.919 384.623 12.7109 390.509 12.7373 403.602C12.7637 415.057 12.051 421.92 8.83072 441.48C6.00637 458.742 5.47845 463.309 5.45206 470.911C5.39927 489.837 11.0216 497.201 27.5717 499.814C37.2853 501.345 39.7137 503.035 48.8203 514.332C65.5024 535.105 78.4627 537.455 109.003 525.286C130.7 516.628 134.422 516.681 148.623 525.84C166.149 537.138 176.602 539.012 183.518 532.096C185.075 530.565 185.075 530.565 185.629 531.278C191.041 538.405 200.807 538.854 214.718 532.677C228.945 526.342 231.453 525.55 236.969 525.55C241.641 525.55 243.172 526.052 252.859 530.776C277.276 542.655 291.82 540.754 312.514 523.042C324.102 513.118 325.157 512.827 346.696 513.514C362.112 514.015 371.086 510.505 375.758 502.137C380.245 494.139 379.058 485.772 370.901 467.875C358.39 440.371 357.519 430.552 364.672 397.399C370.664 369.419 370.901 361.448 366.361 333.785C362.692 311.454 362.639 304.565 365.992 291.129C369.397 277.43 364.725 278.829 360.449 292.792C357.36 302.928 357.439 312.088 360.818 332.729C365.517 361.474 365.358 369.393 359.525 396.132C352.371 428.836 353.243 441.744 364.17 466.028C373.013 485.64 374.465 491.156 372.485 497.465C369.555 506.862 359.683 510.557 341.417 509.053C325.131 507.707 321.198 508.974 308.291 519.611C288.731 535.739 277.856 536.953 254.443 525.682C243.489 520.403 238.606 519.4 230.845 520.904C226.675 521.723 223.956 522.726 211.814 528.058C201.177 532.73 194.947 532.994 190.777 528.876C188.665 526.791 188.665 526.553 190.909 524.257C203.024 511.851 206.192 497.835 196.848 497.835C192.492 497.835 188.19 502.559 185.92 509.818C185.286 511.93 185.154 512.115 184.943 511.534C180.852 501.108 174.095 496.752 168.525 500.949C159.049 508.102 168.155 527.398 181.01 527.398C182.515 527.398 180.034 529.509 177.684 530.222C171.851 532.043 164.618 529.668 152.82 522.119C135.821 511.217 130.225 510.98 107.445 520.139C77.882 531.991 68.5907 530.222 51.803 509.449C43.1452 498.706 39.9777 496.673 29.2874 494.799C18.4916 492.899 14.9017 490.576 12.4733 483.924C9.64898 476.164 9.99213 467.479 14.1099 442.14C19.8377 406.954 19.653 395.525 12.8429 362.82C6.85103 334.128 6.90383 326.236 13.318 298.309C20.6824 266.185 20.6824 255.284 13.318 222.395C7.90686 198.164 7.0622 189.981 8.43478 174.011C9.43782 162.292 8.67234 157.039 6.63987 161.764ZM197.164 503.985C197.164 506.994 194.446 512.009 190.011 517.235C187.715 519.928 187.715 519.954 188.586 516.523C189.932 511.296 192.994 505.674 195.554 503.694C197.006 502.586 197.164 502.612 197.164 503.985ZM174.174 505.093C177.13 506.598 180.693 513.857 181.565 520.033C181.881 522.33 181.908 522.303 180.324 521.881C172.748 519.875 167.892 512.431 170.531 506.888C171.481 504.909 172.696 504.302 174.174 505.093Z" fill="black"/>
</svg>
