<svg width="377" height="535" viewBox="0 0 377 535" fill="none" xmlns="http://www.w3.org/2000/svg">
<path d="M32.7097 0.438893C24.1046 1.30995 14.9453 6.11398 14.9453 9.7566C14.9453 11.8683 16.6082 11.8155 19.0631 9.62462C29.4894 0.412499 47.3857 2.65614 69.7165 15.986C98.5935 33.2224 129.477 34.595 172.264 20.6052C201.722 10.9708 211.092 10.7332 231.522 19.1535C249.683 26.6235 264.596 29.2895 277.715 27.389C288.432 25.858 294.714 23.7727 309.786 16.7779C329.636 7.56575 337.449 5.53328 345.552 7.40737C353.761 9.28147 355.266 6.56271 347.162 4.50384C337.581 2.07543 328.844 4.00232 309.152 12.8713C290.781 21.1332 282.466 23.324 270.456 23.0337C257.575 22.6905 248.653 20.4733 231.391 13.2672C212.782 5.50688 199.557 6.06119 169.756 15.8012C130.902 28.524 102.922 27.8905 76.4474 13.7424C54.9877 2.2602 44.9045 -0.801707 32.7097 0.438893Z" fill="black"/>
<path d="M360.987 15.5937C360.987 16.2536 361.383 17.0983 362.412 18.682C368.272 27.7094 371.888 39.9042 371.915 50.8321C371.941 60.8096 370.516 66.5111 363.89 82.7709C351.062 114.287 349.953 129.782 357.714 169.745C361.752 190.571 362.755 199.81 362.491 214.433C362.307 225.282 361.911 229.347 358.77 250.78C355.127 275.75 356.13 287.127 363.785 307.32C368.114 318.749 368.536 319.99 369.565 324.028C372.39 335.352 370.304 343.112 358.875 363.912C343.302 392.208 342.958 400.681 356.368 425.124C365.58 441.912 366.002 445.422 360.881 461.022C356.156 475.355 356.077 480.449 360.459 492.961C364.181 503.651 364.207 506.053 360.564 513.47C357.529 519.7 357.714 522.366 360.987 519.093C367.401 512.679 368.43 504.047 364.181 492.169C359.641 479.526 359.773 476.965 365.685 459.702C370.991 444.234 370.225 439.166 359.561 419.581C348.818 399.916 349.32 392.604 363.019 367.581C374.237 347.098 376.217 340.13 374.317 328.251C373.525 323.447 373.05 321.837 367.639 305.789C361.119 286.546 360.617 275.434 364.814 246.029C369.433 213.773 369.09 200.364 362.94 168.953C355.576 131.286 356.262 118.511 367.454 87.7861C377.247 60.8888 378.302 49.9346 372.759 33.1469C369.117 22.0343 360.987 9.91863 360.987 15.5937Z" fill="black"/>
<path d="M8.71101 21.3984C6.96889 23.1405 3.08871 32.775 1.98009 38.1333C-0.44832 49.7474 0.317157 58.4052 5.33235 75.8792C13.5414 104.492 13.647 114.021 6.09783 146.382C-2.21684 181.99 -1.02903 194.687 12.7232 218.205C20.5099 231.482 22.4368 237.263 22.4368 247.346C22.4368 257.165 21.3546 261.468 11.9049 288.787C8.05111 299.953 6.20341 306.895 4.35571 317.163C3.61663 321.201 3.43186 336.353 4.06535 341.579C5.30596 351.741 6.96889 359.818 10.8491 374.046C17.8703 399.887 17.9495 408.624 11.3506 425.333C0.79228 452.019 -0.157967 459.251 3.72221 483.139C4.35571 487.178 5.06839 491.929 5.30596 493.75C5.83387 498.159 6.04504 498.766 7.04807 498.766C8.71101 498.766 8.7374 494.331 7.15366 483.588C4.59327 466.193 4.46129 462.208 6.12422 453.761C7.33843 447.611 9.18613 442.516 13.4886 433.568C19.3485 421.32 21.3546 413.666 21.381 403.345C21.4074 394.291 20.6419 390.121 14.9404 368.635C6.04504 335.033 6.67853 313.388 17.4744 282.452C29.986 246.581 30.1972 237.58 19.0317 218.311C14.8084 211.026 14.7028 210.814 12.8287 207.093C4.43489 190.331 4.11815 178.612 11.245 147.702C18.979 114.047 18.8998 103.648 10.6115 74.9818C3.82779 51.4104 3.66942 42.7526 9.76684 27.1263C11.245 23.3517 11.5617 21.6888 10.9283 21.0553C10.4003 20.5273 9.42369 20.6857 8.71101 21.3984Z" fill="black"/>
<path d="M220.825 506.845C215.123 507.558 208.234 509.617 201.028 512.732C198.626 513.787 194.772 515.398 192.449 516.321C190.126 517.219 186.325 518.75 184.002 519.7C159.586 529.572 148.447 529.387 132.32 518.855C113.816 506.793 104.789 506.265 73.0083 515.345C53.5018 520.941 48.3547 521.891 38.6938 521.653C27.8188 521.363 22.1173 519.357 15.9143 513.603C10.7143 508.772 9.42091 511.834 14.5153 516.849C25.5751 527.751 41.9405 528.78 73.1403 520.545C106.188 511.808 112.021 512.072 128.835 523.052C138.628 529.44 143.353 531.341 151.245 532.053C161.856 532.977 181.653 527.751 195.247 520.413C223.385 505.182 237.533 505.842 251.787 523.026C264.272 538.098 290.166 538.547 316.087 524.135C328.519 517.193 331.66 516.559 339.685 519.225C347.788 521.917 348.131 518.064 340.107 514.87C331.396 511.385 326.54 512.125 314.873 518.618C301.147 526.273 293.281 528.727 281.403 529.044C268.311 529.414 262.028 526.933 253.159 517.905C244.079 508.667 233.996 505.209 220.825 506.845Z" fill="black"/>
</svg>
