<svg width="375" height="531" viewBox="0 0 375 531" fill="none" xmlns="http://www.w3.org/2000/svg">
<path d="M189.07 0.0594428C182.893 0.956898 177.641 2.72541 167.294 7.42386C146.23 16.9791 136.358 17.2431 110.939 8.95481C90.6139 2.30308 85.15 3.06856 61.7898 15.6329C49.1726 22.4166 41.8346 25.4786 34.8661 26.8511C31.2499 27.5638 31.4083 27.7222 32.3849 24.5547C36.2915 12.0167 32.6225 4.78428 23.1464 6.20965C8.39115 8.45329 8.36475 28.1445 23.12 31.4704C24.9941 31.8927 24.9941 31.8927 24.3342 33.3709C23.1728 36.0633 16.8642 45.0114 10.9779 52.4022C2.4785 63.0397 1.66023 67.7118 5.72518 82.5198C8.91907 94.1867 8.89267 95.1633 5.35564 104.428C-1.63924 122.641 -0.0290947 136.921 11.9018 162.525C20.1109 180.184 20.1901 183.695 12.8784 207.9C4.90691 234.322 4.93331 235.906 13.8023 260.427C19.055 274.971 18.8703 277.479 11.2947 292.498C1.13232 312.585 1.05313 317.125 10.2916 335.919C22.5921 360.889 23.2784 366.38 15.9139 379.736C3.16479 402.779 3.00642 414.077 14.8581 446.913C22.2753 467.449 24.4662 477.347 24.4926 490.361C24.4926 497.408 24.519 497.355 22.0114 497.54C7.91603 498.649 -3.22298 512.243 1.73942 522.326C7.73126 534.494 24.0966 524.042 28.2936 505.38C29.0062 502.212 28.9007 502.265 32.9392 503.268C39.2742 504.878 42.5473 507.122 51.6802 516.07C70.4212 534.441 79.4221 534.573 120.705 517.179C150.902 504.456 157.95 504.43 177.113 516.809C204.3 534.362 216.205 535.154 243.709 521.191C260.919 512.454 262.213 512.295 269.181 518.023C283.409 529.717 299.008 529.189 325.932 516.07C335.303 511.504 338.364 510.157 341.981 509.075C344.33 508.362 344.224 508.257 343.723 510.817C341.162 523.778 348.236 530.878 360.906 528.08C381.495 523.514 376.876 501.896 355.284 501.816C350.982 501.816 350.982 501.816 351.114 501.024C353.41 488.698 352.143 481.069 345.069 464.466C336.121 443.429 336.913 439.1 355.205 410.038C370.066 386.361 372.045 378.205 366.186 364.822C357.66 345.29 357.29 339.588 363.414 320.293C369.907 299.862 369.063 292.392 358.003 272.833C344.515 248.945 343.908 241.317 353.357 214.947C361.25 192.933 361.778 186.202 356.947 168.174C352.777 152.653 353.331 147.612 361.434 127.129C375.451 91.7583 375.424 81.2792 361.17 56.256C353.621 43.0317 350.982 36.9871 349.82 30.3618C349.134 26.376 348.844 26.6928 353.067 26.6928C365.473 26.64 372.468 16.8999 365.235 9.69389C358.399 2.88379 347.101 8.08375 344.858 19.0908C344.436 21.2024 344.647 21.1497 340.714 19.9091C336.306 18.5101 331.845 16.6096 323.952 12.835C302.044 2.32948 293.281 1.72238 278.288 9.69389C267.756 15.2634 264.324 16.7416 258.86 17.9558C245.9 20.8593 233.177 18.0877 218.633 9.21877C205.013 0.877711 203.165 0.165026 194.877 0.033047C192.132 -0.0197445 189.519 0.00665127 189.07 0.0594428ZM197.833 4.94266C202.268 5.54976 206.016 7.21269 213.645 11.9903C237.902 27.1151 255.667 28.0389 278.578 15.3954C294.653 6.5264 300.038 6.73757 322.157 17.2167C331.185 21.4928 336.121 23.5253 340.767 24.8715C344.62 25.9801 344.145 25.5577 344.436 28.1973C345.333 36.4328 348.421 44.3779 355.891 57.4438C369.907 82.0447 370.066 90.4913 357.026 123.697C350.586 140.089 349.081 145.711 349.081 153.392C349.081 158.909 349.24 159.78 352.988 174.166C356.155 186.281 355.311 193.646 348.632 212.255C338.285 241.053 339.051 250.74 353.648 276.133C363.625 293.527 364.338 299.862 358.293 318.815C352.117 338.268 352.433 346.741 360.062 364.189C366.502 378.944 365.473 383.616 350.559 407.293C331.607 437.358 330.499 443.64 340.054 466.446C347.049 483.155 347.999 488.645 345.834 500.365C345.439 502.608 345.439 502.608 342.614 503.347C337.705 504.641 332.927 506.62 323.029 511.451C298.639 523.355 286.101 524.147 273.563 514.539C272.111 513.404 270.131 511.9 269.181 511.187C263.427 506.805 258.28 507.808 240.278 516.888C214.964 529.637 205.699 528.872 179.62 512.005C169.089 505.195 165.024 503.453 157.712 502.714C147.998 501.737 138.417 503.902 121.893 510.87C102.677 518.947 98.6118 520.531 92.1713 522.405C74.9612 527.394 68.9958 525.705 54.7157 511.715C44.8965 502.08 40.2772 499.203 32.6752 497.989C31.593 497.831 30.458 497.646 30.1676 497.593C29.6661 497.487 29.6397 497.303 29.7189 492.129C29.9829 477.321 27.6864 466.525 19.4774 443.878C8.97186 414.948 8.89267 404.495 18.9495 385.411C25.2844 373.427 25.8651 371.87 25.8651 366.802C25.8915 359.121 22.856 349.935 14.9637 333.807C6.04193 315.515 6.06832 313.509 15.782 294.082C22.856 279.907 23.4631 276.872 21.0611 267.105C20.3748 264.228 19.6621 262.09 14.8845 248.47C10.4236 235.747 10.6876 231.841 17.4977 209.087C24.7829 184.671 24.7565 178.732 17.2073 162.341C15.9403 159.595 14.251 155.874 13.4063 154.052C4.77493 135.206 3.7191 121.322 9.71094 105.405C13.3008 95.9024 13.2744 92.8669 9.60536 79.8274C5.98914 66.9991 7.25613 63.1453 19.9525 48.0469C23.12 44.2987 25.5748 40.5241 27.7392 36.0369C29.6397 32.1303 29.6397 32.1303 31.2499 32.1303C39.1422 32.0511 48.1959 28.646 68.7054 18.0086C87.4464 8.29492 91.2738 7.89898 109.355 13.9436C134.009 22.1527 147.682 22.0999 166.37 13.706C184.926 5.39139 190.258 3.91322 197.833 4.94266ZM27.3169 11.5152C29.7981 13.0198 29.9301 18.0877 27.7392 24.9506C26.8946 27.511 26.8418 27.5638 24.6245 27.0095C17.1809 25.1618 14.3566 19.17 18.5799 14.1812C20.8499 11.4624 25.1261 10.169 27.3169 11.5152ZM360.194 12.4654C364.074 14.3923 363.599 18.5629 359.27 20.7273C356.05 22.3375 349.319 22.6806 349.609 21.2024C350.876 14.3395 355.786 10.2746 360.194 12.4654ZM23.4367 502.661C23.3839 508.468 17.2073 519.158 12.5353 521.481C4.64295 525.414 2.58409 515.357 9.81652 508.151C13.1952 504.773 23.4631 500.655 23.4367 502.661ZM359.798 507.333C365.183 508.362 368.957 511.556 368.957 515.041C368.957 522.722 352.592 526.813 349.24 519.95C347.999 517.39 348.923 507.386 350.454 507.148C352.196 506.884 358.003 506.99 359.798 507.333Z" fill="black"/>
</svg>
