<svg width="369" height="534" viewBox="0 0 369 534" fill="none" xmlns="http://www.w3.org/2000/svg">
<path d="M120.691 0.934945C115.253 1.67403 109.789 3.15219 100.366 6.39887C66.6588 17.9866 60.2182 18.2506 41.1077 8.72169C29.6783 3.02021 25.6926 2.30752 19.7271 4.78872C12.7586 7.66586 2.86023 19.7815 7.03076 20.283C7.82263 20.3886 7.82263 20.3622 12.8642 14.9247C21.2845 5.79176 25.719 5.39583 37.9402 12.6811C48.3929 18.9105 53.5137 20.4414 63.808 20.4414C74.2871 20.4414 79.144 19.28 103.93 10.8334C124.782 3.73289 133.308 3.89127 157.909 11.7572C179.738 18.7257 192.487 18.5145 221.391 10.7014C239.366 5.84455 248.578 6.2141 263.756 12.3643C284.239 20.6526 295.14 20.8901 321.035 13.6049C342.97 7.4547 346.902 7.4019 354.082 13.1826C359.335 17.4059 361.579 15.9013 357.091 11.1501C352.947 6.74201 348.803 5.02629 341.782 4.81512C334.338 4.60395 331.778 5.05268 318.791 8.72169C294.349 15.611 285.981 15.3998 265.841 7.4019C248.13 0.354238 242.164 0.327842 218.223 7.13795C187.499 15.8749 180.9 15.611 150.518 4.63035C140.039 0.829362 130.273 -0.384843 120.691 0.934945Z" fill="black"/>
<path d="M364.8 28.9647C363.374 30.4956 362.424 32.053 360.84 35.5108C355.535 47.0458 354.717 57.4193 357.04 82.68C359.468 108.759 359.23 118.367 355.72 139.246C348.144 184.172 348.408 203.81 357.013 232.423C357.673 234.588 359.046 239.18 360.075 242.586C365.671 261.142 365.724 268.533 360.497 285.347C353.001 309.472 350.203 325.468 350.705 341.702C351.021 353.052 352.156 359.545 356.617 375.884C362.583 397.687 362.424 403.89 355.297 425.772C348.039 448.129 347.959 457.817 354.849 477.798C359.679 491.788 359.917 496.935 356.67 514.066C355.139 521.985 355.377 524.492 357.594 524.492C359.811 524.492 360.392 522.988 362.345 512.482C365.275 496.565 365.037 492.764 360.128 479.54C351.76 456.945 351.76 450.162 359.969 424.98C367.149 403.072 367.387 394.572 361.5 373.535C353.555 345.107 353.951 327.474 363.243 294.664C369.789 271.542 369.683 261.749 362.741 238.758C357.937 222.973 356.353 216.507 355.113 208.007C352.684 191.325 353.634 176.675 358.782 151.784C363.031 131.222 364.562 115.701 363.823 100.84C363.533 95.2708 363.111 89.9917 361.791 76.4242C359.996 57.7888 361.817 42.6905 367.096 32.185C368.997 28.4104 367.439 26.2195 364.8 28.9647Z" fill="black"/>
<path d="M4.75499 33.7968C3.14485 34.747 0.901214 46.018 0.663652 54.3855C0.452486 62.4362 1.27075 68.2696 4.83418 83.5264C10.2717 106.86 10.6676 112.905 8.50319 139.644C7.26259 155.217 7.13061 158.385 7.28899 166.963C7.68492 185.625 8.63517 196.21 11.3011 211.836C11.9346 215.611 12.8849 221.127 13.3864 224.11C16.2899 241.215 15.6564 248.764 9.82298 267.399C2.59054 290.496 2.14181 305.066 7.8169 331.963C11.6179 350.018 12.4098 357.224 11.6971 367.043C10.9844 376.757 10.0077 382.458 7.2098 393.729C0.92761 418.805 0.769235 426.777 6.12757 447.814C10.4565 464.839 10.7732 469.406 8.76715 488.728C6.5499 510.557 7.73771 522.857 12.093 522.91C13.9407 522.91 14.4686 520.482 13.6504 515.519C12.5681 508.683 12.6209 503.852 13.9407 490.76C15.0229 480.07 14.6534 469.459 12.8849 459.824C12.225 456.287 11.8818 454.888 8.79354 442.931C4.64941 426.882 4.80778 419.518 9.691 400.83C15.9996 376.73 16.8442 372.507 17.1346 363.744C17.4514 353.793 16.8706 349.543 12.1986 326.922C7.42096 303.799 7.92248 295.775 16.2899 260.668C18.8767 249.767 18.9295 238.364 16.3955 223.714C11.8291 197.187 11.5387 194.468 11.5651 178.973C11.5915 171.239 11.6971 166.858 12.0402 163.136C12.2778 160.312 12.6473 155.481 12.8585 152.446C13.0697 149.384 13.5448 143.286 13.9143 138.852C15.9996 113.248 15.5245 105.91 10.3245 83.6848C5.3093 62.3306 4.46464 51.7459 6.70828 38.2049C7.42096 33.876 6.86665 32.5826 4.75499 33.7968Z" fill="black"/>
<path d="M228.778 515.255C221.308 515.889 216.293 517.208 201.195 522.461C182.533 528.955 175.802 529.218 159.753 524.071C143.441 518.845 129.504 519.214 104.507 525.523C88.4057 529.614 84.7631 529.35 64.7287 522.646C42.6882 515.282 34.3736 515.334 26.666 522.936C21.5716 527.951 23.6569 531.172 28.9096 526.421C35.535 520.455 42.0019 520.666 62.485 527.529C85.7397 535.316 91.3884 535.342 115.013 527.925C131.695 522.672 142.939 522.752 159.225 528.189C177.544 534.313 183.721 534.181 203.702 527.239C221.625 521.036 226.191 520.059 236.565 520.349C247.598 520.64 262.354 523.596 272.331 527.529C288.274 533.785 289.752 533.838 303.214 528.638C319.764 522.25 327.868 521.775 340.195 526.473C348.773 529.746 351.519 527.344 343.705 523.438C331.643 517.367 319.421 517.684 301.631 524.494C292.128 528.136 289.594 528.664 285.635 527.767C283.84 527.371 282.784 526.975 273.123 523.227C256.098 516.628 242.187 514.12 228.778 515.255Z" fill="black"/>
</svg>
