<svg width="383" height="531" viewBox="0 0 383 531" fill="none" xmlns="http://www.w3.org/2000/svg">
<path d="M269.503 0.367651C237.538 1.74023 217.107 3.66712 147.686 11.8762C137.234 13.0904 121.212 14.9909 112.052 16.0731C96.2939 17.9208 84.6006 19.1878 76.022 19.9533C70.822 20.402 56.7003 20.402 54.2191 19.9533C52.345 19.6102 52.345 19.6102 53.0841 17.4457C57.0698 5.80518 49.1247 -2.74705 41.5227 5.0133C36.4811 10.1869 37.0882 17.8944 42.8689 21.7218C44.6638 22.9096 38.2761 27.5817 31.4923 30.0101C29.5919 30.6964 29.5919 30.6964 29.4335 29.1918C27.7969 15.1229 18.0041 9.18383 9.90062 17.3665C1.08443 26.2355 6.70673 36.9522 20.2478 37.1369C22.0427 37.1633 23.4944 37.2425 23.4944 37.2953C23.4944 38.1136 21.7259 43.0232 18.8752 50.1236C16.9219 54.9013 14.9158 60.022 14.3615 61.4738C13.8336 62.9256 13.3057 64.219 13.2001 64.3773C12.0915 65.8027 8.1585 82.7488 6.09963 94.9964C-0.710479 135.303 -1.39677 165.051 3.82959 194.244C4.35751 197.148 4.96461 200.527 5.17578 201.767C5.38694 203.008 5.91486 205.542 6.36358 207.442C6.78592 209.316 7.525 212.484 7.97373 214.437C8.42245 216.39 9.71585 221.432 10.8773 225.655C19.4031 256.961 21.7523 271.61 21.3036 291.117C20.9076 308.3 19.0599 321.683 12.2762 356.314C1.50677 411.297 0.0286024 428.665 4.3839 450.151C5.96765 457.938 9.00316 467.652 11.2468 472.113C11.8803 473.38 11.8803 473.38 10.9828 475.148C-1.8191 500.646 25.3421 527.781 50.4973 514.61C52.8465 513.369 52.8465 513.369 53.4008 514.161C61.5571 525.643 79.5854 530.394 115.088 530.394C148.584 530.394 165.9 527.913 200.056 518.279C229.038 510.07 241.048 507.456 264.224 504.289C308.357 498.244 328.92 498.403 340.032 504.922C342.566 506.401 342.514 506.242 341.431 508.248C334.252 521.816 335.862 531.16 345.285 530.605C355.236 530.025 358.008 516.932 350.274 506.823C349.271 505.477 349.271 505.477 350.353 503.893C353.204 499.67 356.926 495.658 360.067 493.44C362.205 491.962 362.416 491.989 362.416 493.968C362.495 508.327 375.482 513.95 381.131 502.045C385.671 492.569 380.629 484.492 370.255 484.466C366.56 484.466 366.481 483.146 368.751 456.486C371.945 419.004 370.493 406.757 357.929 365.685C333.618 286.154 334.357 262.609 364.264 169.828C373.159 142.245 375.535 133.085 377.066 120.442C379.784 97.9791 374.954 74.0646 365.214 62.0017C364.554 61.2099 364.554 61.2099 365.715 59.3622C373.238 47.4841 368.909 26.4467 357.269 18.1848C350.617 13.4599 341.062 12.3249 331.005 15.0437C329.553 15.4396 329.553 15.4396 326.782 12.7209C319.47 5.51482 311.367 2.03058 298.67 0.605213C295.318 0.235673 276.287 0.077298 269.503 0.367651ZM298.802 5.88436C308.833 7.15136 316.171 10.2397 322.162 15.7564C324.01 17.4457 324.01 17.4457 321.635 18.6599C305.718 26.6578 300.914 40.9907 313.267 43.6303C325.119 46.1379 336.759 33.4679 333.143 22.0122C332.51 20.0061 332.351 20.2173 334.885 19.5838C340.587 18.1848 346.895 18.7391 351.541 21.0355C362.31 26.3675 367.695 45.0293 361.598 55.7195C360.568 57.5408 360.568 57.5408 358.985 56.5642C350.881 51.5754 339.003 56.4322 341.009 63.9286C342.514 69.4717 352.702 70.4484 359.644 65.7499C360.832 64.9581 361.096 65.1956 363.525 69.2078C371.259 82.0361 374.241 102.202 371.364 122.58C369.833 133.561 367.352 142.905 359.512 167.057C328.893 261.633 328.101 285.943 352.913 367.665C360.964 394.166 362.627 401.24 364.184 415.573C364.765 420.984 364.844 439.223 364.316 445.532C364.132 447.696 363.63 453.583 363.208 458.598C362.337 468.892 361.888 476.679 361.888 482.328C361.862 486.181 361.862 486.181 360.779 486.683C356.741 488.557 351.224 493.493 347.397 498.64C346.183 500.277 345.153 501.623 345.127 501.623C345.1 501.623 344.124 501.042 342.936 500.33C331.718 493.599 311.657 492.965 270.955 498.06C243.529 501.517 229.065 504.5 199.95 512.762C163.234 523.162 146.974 525.406 111.445 525.036C83.0169 524.746 68.8951 521.684 60.6333 514.029C57.2282 510.888 57.0962 510.466 58.9967 508.459C68.6048 498.271 68.2088 485.152 58.3104 485.838C50.6029 486.393 46.4059 497.268 49.9958 507.351C50.5237 508.829 48.0161 510.36 42.3146 512.076C28.3776 516.299 13.2001 503.893 13.2001 488.32C13.2001 485.495 14.5991 479.292 15.4173 478.474C15.4701 478.421 16.262 478.843 17.1594 479.424C25.2366 484.65 36.27 477.55 32.3898 469.631C30.0934 464.933 22.8345 463.877 17.529 467.467C15.4701 468.839 15.7077 468.998 14.2823 465.329C4.56867 440.649 5.14938 420.403 17.397 357.872C29.7766 294.654 29.8822 276.362 18.0041 231.726C6.44277 188.173 3.90878 165.711 6.73312 131.687C8.23768 113.605 13.0153 83.1711 15.2854 77.0473C15.5493 76.3082 15.9716 74.7245 16.2356 73.4839C17.0539 69.3661 19.4559 62.82 25.6061 47.7744C26.7675 44.8973 28.1137 41.1491 28.5888 39.4862C29.0639 37.7968 29.6182 36.3715 29.8294 36.2395C30.0406 36.1339 31.4132 35.6588 32.8385 35.21C38.1441 33.5207 43.2912 30.4588 47.0658 26.7106C49.3887 24.4142 49.3887 24.4142 51.2892 24.7837C61.5043 26.7106 73.1184 25.9979 118.915 20.5604C139.266 18.132 176.22 13.8031 187.412 12.5361C220.565 8.7351 243.213 6.80821 268.051 5.6468C274.756 5.35645 295.74 5.51482 298.802 5.88436ZM48.3592 8.55033C49.2039 10.2397 48.9663 13.2752 47.7257 16.3899C47.0922 18.0528 46.9075 18.0792 45.4557 16.8386C43.0273 14.7797 42.8689 11.8498 45.0334 9.26302C46.6435 7.33613 47.6465 7.12496 48.3592 8.55033ZM19.2183 19.4782C22.5178 21.2203 25.87 31.3035 23.3361 31.937C19.5087 32.9136 12.8569 30.7756 11.5899 28.1888C9.68945 24.2294 15.5493 17.5513 19.2183 19.4782ZM327.943 23.5431C330.134 30.4588 323.72 38.6151 316.091 38.6415C307.592 38.6415 312.607 29.271 324.221 23.4375C327.468 21.8274 327.389 21.8274 327.943 23.5431ZM354.788 60.4972C356.741 61.3418 356.53 61.6586 353.309 62.8464C349.693 64.1662 345.074 63.3479 346.631 61.685C348.4 59.7845 351.91 59.2566 354.788 60.4972ZM25.7909 470.766C27.8233 471.532 28.2721 473.01 26.8731 474.383C24.6558 476.521 21.9107 476.494 19.4031 474.33C17.661 472.825 23.1513 469.763 25.7909 470.766ZM374.294 490.458C379.151 492.965 377.356 503.207 372.024 503.207C369.147 503.207 365.61 489.982 368.408 489.666C370.546 489.402 372.789 489.718 374.294 490.458ZM60.1053 491.777C61.5307 493.942 59.7358 499.274 56.146 503.523C54.615 505.345 54.1135 504.395 54.1135 499.643C54.1135 494.047 58.1521 488.768 60.1053 491.777ZM347.687 513C350.749 519.071 349.614 524.561 345.153 525.3C341.299 525.907 341.22 522 344.916 513.554C346.315 510.413 346.394 510.386 347.687 513Z" fill="black"/>
</svg>
