<svg width="377" height="535" viewBox="0 0 377 535" fill="none" xmlns="http://www.w3.org/2000/svg">
<path d="M351.889 0.405667C342.677 3.23001 339.536 20.7568 347.032 27.6197C351.625 31.7902 356.35 31.3679 363.239 26.1943C375.038 17.3253 376.173 7.21577 365.378 7.16298C362.949 7.16298 362.87 7.13658 362.606 6.47669C360.864 2.22697 355.637 -0.72935 351.889 0.405667ZM356.271 4.97213C358.066 5.7904 359.148 8.77312 358.911 12.231C358.515 17.3517 361.154 17.035 363.213 11.703C364.005 9.67058 369.31 11.3863 368.941 13.5771C367.859 20.3081 354.001 28.8339 350.094 25.1649C343.337 18.8299 348.643 1.51429 356.271 4.97213Z" fill="black"/>
<path d="M19.4606 1.22647C17.7713 2.07114 16.2139 3.5493 15.1845 5.18584C14.2342 6.74319 14.2342 6.74319 13.1784 5.97771C7.42413 1.80718 1.4059 4.86909 1.14194 12.1279C0.48205 29.5755 19.2758 40.3714 26.3763 26.6192C33.0808 13.6589 28.4352 -3.39278 19.4606 1.22647ZM24.5022 5.95131C27.96 11.0193 24.7134 25.1938 19.4078 28.3085C14.2606 31.344 5.60283 22.607 4.86375 13.6589C4.33583 7.35029 9.43021 6.16248 13.1784 11.7056C15.8972 15.7441 18.4576 15.2954 17.1642 10.9665C16.7682 9.72591 17.2697 8.85485 19.5398 6.69039C22.2058 4.1564 23.1824 3.99803 24.5022 5.95131Z" fill="black"/>
<path d="M73.2804 3.7622C72.8581 3.81499 70.1129 3.97337 67.2094 4.13174C50.712 5.05559 39.0715 6.34898 38.5436 7.35202C37.171 9.88602 40.6288 10.1764 58.2348 9.01496C61.4287 8.80379 67.3677 8.43425 71.4327 8.22308C82.2813 7.64238 83.0732 7.5104 83.9707 5.92665C84.9473 4.15814 79.9849 3.1287 73.2804 3.7622Z" fill="black"/>
<path d="M294.181 7.05886C287.028 7.4284 284.018 8.90656 287.344 10.4111C288.427 10.9126 333.247 10.8335 334.302 10.3319C336.124 9.46087 336.097 8.43144 334.25 7.50759C332.903 6.84769 304.396 6.53094 294.181 7.05886Z" fill="black"/>
<path d="M363.031 35.5137C362.213 36.0152 360.022 71.8342 360.444 77.4565C360.708 81.1519 362.424 82.6829 363.585 80.2809C364.535 78.3012 365.934 36.6751 365.09 35.672C364.72 35.2497 363.585 35.1441 363.031 35.5137Z" fill="black"/>
<path d="M4.94087 37.4399C3.56829 39.5779 3.30433 79.1452 4.65051 81.7319C5.57437 83.5269 6.99974 82.7086 7.31648 80.2274C7.76521 76.664 7.55405 38.179 7.10532 37.5982C6.49822 36.8592 5.3896 36.78 4.94087 37.4399Z" fill="black"/>
<path d="M374.139 448.95C372.476 450.956 370.443 486.459 371.842 488.676C372.66 489.969 374.35 489.283 374.825 487.488C375.696 484.268 376.593 454.177 375.96 449.953C375.775 448.686 374.772 448.158 374.139 448.95Z" fill="black"/>
<path d="M7.45025 453.467C5.65533 458.165 5.68173 493.562 7.47664 494.565C8.55887 495.172 9.06039 494.697 9.6147 492.559C10.3274 489.787 10.301 454.126 9.56191 453.335C9.0076 452.727 7.68781 452.807 7.45025 453.467Z" fill="black"/>
<path d="M366.645 502.322C364.375 503.14 362.342 504.988 360.864 507.601C360.019 509.052 360.019 509.052 358.673 508.366C346.452 501.952 345.607 523.28 357.802 530.459C368.492 536.742 375.197 530.222 375.223 513.566C375.25 504.116 372.346 500.289 366.645 502.322ZM370.261 506.914C372.584 510.346 371.211 522.857 368.096 526.949C363.424 533.099 349.646 519.928 353.315 512.801C354.371 510.768 356.377 510.979 358.251 513.329C361.207 517.05 362.501 517.314 362.712 514.226C363.055 509.369 368.44 504.169 370.261 506.914Z" fill="black"/>
<path d="M9.7728 504.171C2.38199 506.837 -1.97331 520.906 2.14443 528.825C7.318 538.776 19.1169 534.447 26.0326 520.035C29.7016 512.433 25.3991 506.389 18.457 509.398C17.4804 509.82 17.4804 509.82 17.322 509.081C16.6357 505.914 12.4388 503.195 9.7728 504.171ZM12.8347 509.213C13.2306 510.031 13.389 511.008 13.4946 513.384C13.7058 518.399 16.0022 519.164 17.5332 514.73C18.0611 513.252 22.8651 512.196 23.3666 513.463C25.1879 518.188 15.5007 530.726 10.0368 530.726C5.78704 530.726 3.62259 523.124 5.73425 515.733C7.52916 509.556 11.2774 506.098 12.8347 509.213Z" fill="black"/>
<path d="M334.076 524.813C333.073 524.866 329.325 525.024 325.761 525.183C314.648 525.658 300.58 526.582 298.758 526.925C297.834 527.11 297.122 528.35 297.597 528.984C297.993 529.512 299.867 529.802 302.665 529.776C310.927 529.67 327.556 529.327 327.952 529.248C328.216 529.221 330.116 529.142 332.175 529.116C340.569 528.984 342.628 528.641 343.341 527.242C344.317 525.368 340.939 524.497 334.076 524.813Z" fill="black"/>
<path d="M60.6133 525.475C55.3606 525.633 44.0104 526.32 41.6084 526.636C41.1861 526.689 39.9983 526.821 38.9688 526.9C34.8247 527.27 30.2318 527.903 29.8887 528.167C28.8856 528.986 28.9912 530.305 30.0735 530.596C31.0765 530.86 41.9515 530.569 49.6591 530.068C50.7413 530.015 55.4398 529.883 60.0854 529.804C77.7442 529.487 78.4569 529.434 79.1432 528.062C80.2782 525.818 74.6823 525.053 60.6133 525.475Z" fill="black"/>
</svg>
