<svg width="359" height="388" viewBox="0 0 359 388" fill="none" xmlns="http://www.w3.org/2000/svg">
<path d="M255.093 0.820774C224.395 2.08777 196.521 9.10904 180.499 19.6673C176.962 21.9902 176.143 22.1485 174.322 20.9871C162.893 13.7019 130.162 9.50498 109.309 12.6725C62.5095 19.7729 60.3979 51.5798 106.458 55.1696C125.701 56.6478 149.589 51.2895 163.711 42.3413C164.45 41.8398 165.083 41.4966 165.083 41.5758C165.083 43.2124 156.637 55.3544 152.413 59.7625C133.488 79.5593 75.8922 93.1003 50.737 83.677C48.731 82.938 48.731 83.0436 50.5523 80.5096C58.0223 70.0568 55.066 59.2082 44.7188 59.2874C32.4184 59.3666 28.5118 73.066 38.1463 82.3837C40.2315 84.3897 40.2315 84.3897 36.9849 87.9268C13.5454 113.583 2.27444 139.478 6.28659 158.535C6.78811 160.937 6.78811 160.937 5.83787 163.155C-1.8169 181.13 -0.761073 204.121 9.71804 247.252C17.5576 279.534 17.9799 289.221 12.9119 321.899C8.55663 349.957 8.02871 365.663 10.9322 381.184C11.9089 386.41 12.4632 387.492 14.1525 387.492C16.4226 387.492 16.6073 385.275 15.2612 373.766C13.8622 361.809 14.6013 346.42 17.4256 327.838C21.2794 302.471 21.3586 301.706 21.3586 289.828C21.3586 276.155 20.3291 268.447 16.2378 251.422C15.4987 248.36 14.3373 243.609 13.6774 240.864C5.6267 207.394 4.20133 185.222 9.11094 169.78C9.55967 168.381 9.982 167.167 10.0348 167.114C10.0876 167.061 10.6683 167.51 11.3546 168.117C18.4286 174.663 29.4093 168.671 29.4357 158.245C29.4621 147.819 19.0357 144.836 11.8297 153.203C10.8795 154.286 10.8795 154.286 11.0378 150.194C11.5921 132.773 21.1474 113.583 39.1757 93.7074C41.5777 91.0679 43.8742 88.5075 44.2701 88.006C44.9828 87.1613 45.062 87.1349 45.7219 87.478C66.2578 98.0891 124.883 88.1379 149.22 69.8721C158.933 62.5868 167.406 50.8143 173.9 35.6368C175.061 32.8652 175.061 32.8652 176.222 32.7068C176.856 32.6277 177.78 32.4693 178.281 32.3901C179.179 32.2053 179.232 32.2581 180.789 34.2378C212.833 75.2832 281.41 99.5673 329.767 86.9765C331.72 86.475 333.33 86.0791 333.356 86.1319C333.383 86.1582 333.568 87.2405 333.752 88.5603C333.937 89.8537 334.729 94.3145 335.494 98.4587C342.305 134.357 343.044 162.732 337.474 174.637C336.392 176.907 336.392 176.907 335.257 175.376C327.866 165.346 313.744 165.425 311.606 175.508C309.653 184.694 322.613 191.82 332.67 187.122C334.703 186.198 334.623 186.119 335.283 189.26C338.292 203.382 335.97 218.084 326.837 242.843C319.578 262.482 317.387 271.773 317.387 283.097C317.387 291.464 318.443 297.298 323.326 316.092C328.816 337.208 329.872 350.96 327.523 370.836C326.467 380.022 326.757 382.187 329.133 382.187C331.245 382.187 331.773 380.656 332.828 371.787C335.31 350.565 334.043 335.281 327.945 312.396C320.238 283.519 320.686 275.046 331.509 245.747C341.803 217.873 344.152 200.663 339.797 185.09C339.031 182.344 339.031 182.344 339.797 181.394C348.349 170.545 348.772 139.61 340.906 98.3267C339.031 88.4283 338.372 84.1258 338.741 83.9938C355.186 78.5035 364.688 57.598 353.1 52.4773C343.44 48.2012 333.383 59.9737 332.749 76.2862C332.565 80.6151 332.565 80.6151 329.529 81.5126C288.563 93.3379 227.193 74.8609 194.383 40.7839C193.195 39.5433 193.195 39.5433 194.779 40.256C239.81 60.5016 303.292 49.7057 305.931 21.3567C307.066 9.42579 293.42 1.903 268.634 0.794378C262.616 0.530421 262.193 0.530421 255.093 0.820774ZM270.455 6.07353C297.168 7.89484 307.647 17.8724 295.927 30.252C278.453 48.7027 228.433 50.656 194.779 34.185C182.267 28.0612 180.34 26.1871 184.141 23.7323C202.169 12.1709 241.552 4.12024 270.455 6.07353ZM133.541 16.8958C147.319 17.7405 168.409 22.4917 171.339 25.448C171.55 25.6592 170.6 28.6155 170.072 29.381C158.748 45.7991 116.489 55.3016 91.7033 47.0133C59.8964 36.3759 90.5682 14.309 133.541 16.8958ZM351.332 57.6772C355.608 60.4752 351.358 69.8721 343.44 75.204C337.527 79.1634 336.999 78.5563 338.741 70.0832C340.483 61.663 347.241 54.9849 351.332 57.6772ZM46.4873 64.8041C50.737 66.599 50.3939 71.6406 45.6163 78.0548C43.8742 80.404 43.8742 80.404 41.6569 78.1867C35.3747 71.9573 39.0965 61.7158 46.4873 64.8041ZM22.6784 154.338C27.6672 159.301 20.118 168.751 14.9444 164.052C12.7536 162.099 12.6216 161.333 14.0733 159.274C17.4256 154.497 20.8571 152.544 22.6784 154.338ZM325.702 174.188C329.318 175.877 333.119 180.681 331.561 181.605C327.312 184.218 321.953 183.823 318.654 180.629C313.903 176.036 319.235 171.153 325.702 174.188Z" fill="black"/>
</svg>
