<svg width="363" height="529" viewBox="0 0 363 529" fill="none" xmlns="http://www.w3.org/2000/svg">
<path d="M50.6104 0.588288C36.3303 1.27458 21.6806 3.96695 21.3111 5.94663C21.0207 7.3456 22.8157 7.50398 28.1476 6.50094C50.7688 2.33041 66.6854 2.48878 107.757 7.29281C141.676 11.2522 156.88 11.4633 219.754 8.87655C235.064 8.24306 243.959 7.82073 274.658 6.23698C293.768 5.26034 297.754 5.10196 310.028 4.78521C338.245 4.07253 339.09 4.01974 339.274 2.75274C339.486 1.22179 336.529 0.984225 319.662 1.16899C303.086 1.35377 301.476 1.43295 260.536 3.5974C241.663 4.60044 225.113 5.36592 209.328 5.97302C154.187 8.05829 142.864 7.84712 108.1 3.86136C78.8538 0.509101 66.3687 -0.203584 50.6104 0.588288Z" fill="black"/>
<path d="M0.937089 16.0042C-0.145137 17.324 0.0660287 30.4955 1.465 49.7908C3.20712 73.6261 3.18073 72.5439 3.15433 92.0239C3.15433 106.964 3.04875 112.481 2.54723 122.775C0.752318 160.125 1.4914 184.937 5.8203 232.317C9.99083 278.061 10.0172 287.062 5.97868 326.154C1.94013 365.035 1.35942 386.231 3.15433 426.722C4.26295 451.983 4.39493 457.869 4.39493 483.077C4.42133 510.37 4.42133 510.133 5.55635 510.133C8.38069 510.133 9.09338 473.971 7.14009 428.042C5.2132 382.377 5.52995 368.757 9.51571 329.85C11.7593 307.888 12.1289 303.48 12.5776 292.5C13.2111 276.768 12.5776 263.28 9.64769 230.602C5.29239 182.271 4.84366 164.771 6.79695 121.323C7.21928 111.821 7.37765 104.694 7.37765 92.8158C7.40405 74.5236 7.0873 68.2678 5.02843 45.6994C3.84062 32.6599 3.55027 28.7006 3.39189 22.5239C3.20712 15.9514 3.15433 15.6083 1.88734 15.6083C1.54419 15.6083 1.12186 15.793 0.937089 16.0042Z" fill="black"/>
<path d="M355.294 22.8395C355.189 23.6313 355.347 29.8607 355.664 36.6444C356.878 63.3305 357.089 75.7629 357.538 139.139C357.696 160.124 357.934 184.355 358.092 192.987C358.409 210.724 358.251 253.723 357.828 262.539C356.799 283.973 355.981 295.745 353.684 322.062C347.692 390.902 347.112 407.584 349.091 453.645C349.83 470.406 350.015 483.789 349.619 490.467C348.775 505.407 348.907 509.551 350.226 509.419C353.684 509.076 355.004 486.903 353.579 452.958C352.681 431.631 352.444 421.178 352.628 408.244C352.945 384.145 353.579 374.088 358.303 318.234C362.263 271.672 363.16 244.221 362.289 196.286C361.788 168.227 361.497 149.038 361.233 125.017C360.626 69.8503 358.963 26.5085 357.274 22.074C356.746 20.675 355.506 21.1501 355.294 22.8395Z" fill="black"/>
<path d="M219.236 518.341C206.989 518.632 195.639 519.239 173.176 520.823C136.169 523.436 122.047 523.805 97.0241 522.829C63.3167 521.509 46.9513 521.562 27.9992 523.066C20.4764 523.673 19.183 524.016 19.5261 525.389C19.7637 526.392 20.8195 526.498 27.3393 526.155C30.454 525.97 35.9179 525.706 39.4813 525.547C48.6143 525.125 74.3765 525.415 89.6333 526.102C120.094 527.448 135.509 527.158 173.308 524.518C204.798 522.327 211.159 522.037 228.739 522.037C246.82 522.037 252.68 522.354 279.419 524.782C323.157 528.768 341.185 529.692 341.396 527.897C341.581 526.207 336.566 525.495 311.754 523.726C299.4 522.829 296.814 522.618 278.099 520.955C252.653 518.685 236.051 517.945 219.236 518.341Z" fill="black"/>
</svg>
