<svg width="64" height="77" viewBox="0 0 64 77" fill="none" xmlns="http://www.w3.org/2000/svg">
<path fill-rule="evenodd" clip-rule="evenodd" d="M4.56967 24.5289C6.81967 26.7289 9.46968 28.6789 12.5197 29.6789C15.0197 30.4289 17.6196 30.5289 20.1696 30.1289C20.5413 30.0613 20.9244 30.0109 21.3093 29.9602C22.0635 29.8609 22.8245 29.7606 23.5197 29.5289C23.7738 29.3701 23.6849 29.2112 23.6246 29.1037C23.5901 29.042 23.5649 28.9971 23.6197 28.9789C29.2697 26.2289 34.9196 22.4289 38.1696 16.8789C40.0696 13.7789 39.3197 9.92887 37.7697 6.82887C36.3197 4.12887 34.0196 1.62888 31.1696 0.42888C28.8696 -0.37112 26.8696 1.67889 25.4696 3.27889C22.0196 7.87889 19.1197 13.2789 18.2697 18.9789C14.1197 13.8789 6.06963 4.22887 1.46963 14.5789C-0.430368 18.2289 1.71967 22.0289 4.56967 24.5289ZM33.2196 3.47896C28.0196 4.67896 21.9696 16.579 21.0696 21.579C21.0518 21.686 21.0325 21.793 21.0133 21.9C20.8708 22.6923 20.7291 23.48 21.1696 24.229C21.2021 24.3591 21.4887 24.1929 21.74 24.0471C21.875 23.9688 21.9998 23.8964 22.0696 23.879C26.6696 21.429 31.2696 18.329 34.2196 13.929C36.1696 11.129 35.9196 7.57898 34.5196 4.62898C34.4642 4.52745 34.4123 4.41398 34.3593 4.29834C34.1253 3.78758 33.8719 3.23434 33.2196 3.47896ZM8.41958 15.479C6.26958 17.679 4.71961 21.329 6.31961 24.179C8.01961 25.129 10.0196 25.329 11.9196 25.429C13.0247 25.429 14.1298 25.3005 15.244 25.171C16.0959 25.072 16.9531 24.9723 17.8196 24.929C17.8696 24.979 18.0196 24.979 18.0196 24.929C18.0696 24.929 17.9196 24.379 17.9196 24.379C17.2696 20.929 15.4696 17.729 13.1696 15.079C12.0196 13.229 9.61958 14.079 8.41958 15.479Z" fill="black"/>
<path fill-rule="evenodd" clip-rule="evenodd" d="M37.6697 76.7789C33.2697 74.9789 29.5197 71.6289 26.8197 67.7789C23.6197 63.1289 24.3197 57.3289 25.1197 52.0789C25.7697 47.6289 26.3697 42.8789 25.1197 38.4789C24.8197 37.6289 23.7697 37.3289 23.2197 36.6289C21.5697 35.0789 19.2197 33.3289 19.3197 30.8289C19.6697 28.9289 20.6197 26.9789 21.9697 25.6289C22.3197 25.4789 22.7698 25.8289 23.0198 25.9789C23.9698 26.6789 25.7697 28.0289 25.9197 29.2289C25.8864 29.2289 25.8531 29.2289 25.8197 29.2289C24.9197 31.2289 24.2198 33.4789 24.5198 35.6789C26.5698 37.3289 28.5698 39.1289 30.0198 41.3789C31.9198 44.8789 31.6197 49.1289 31.4197 53.0289C31.0697 58.2289 28.0197 69.6289 33.8697 72.2789C34.6197 72.5789 39.3697 76.6289 37.6697 76.7789Z" fill="black"/>
<path fill-rule="evenodd" clip-rule="evenodd" d="M62.7197 71.179C56.6197 69.979 50.1697 65.629 48.7697 59.279C48.3697 57.029 48.6197 54.729 48.2697 52.479C43.6697 50.929 39.6697 47.379 37.4197 43.079C35.2197 39.279 34.8197 34.679 32.6197 30.929C30.2197 29.679 27.5197 30.179 24.9697 30.079C24.0697 29.779 22.2697 28.379 22.1697 27.529C23.7197 27.079 25.2697 26.479 26.9197 26.729C31.1197 27.279 34.4697 30.479 37.0197 33.629C39.9697 37.529 40.6697 42.529 43.0197 46.729C43.1197 46.929 43.2197 47.129 43.3197 47.329C44.2197 47.629 45.1197 47.829 46.0197 48.179C49.2197 49.829 52.8697 52.379 53.6697 56.079C54.2697 58.629 53.2197 63.629 54.9697 65.429C57.8697 65.979 60.3197 67.179 62.2197 69.529C62.5697 69.879 63.7697 71.279 62.7197 71.179Z" fill="black"/>
</svg>
