<svg width="51" height="130" viewBox="0 0 51 130" fill="none" xmlns="http://www.w3.org/2000/svg">
<path fill-rule="evenodd" clip-rule="evenodd" d="M21.4341 30.9171C20.9388 30.7784 20.448 30.6198 19.9571 30.4413C12.6571 27.4413 4.8571 22.0913 1.2071 14.8913C-2.3929 6.7413 3.80711 -3.35869 12.9071 2.49131C19.2863 6.23331 23.1762 12.8965 24.8664 20.0366C26.0165 15.7721 28.0452 11.7221 30.7571 8.2913C30.9533 8.08133 31.1522 7.86661 31.3538 7.64888C34.0807 4.70381 37.3204 1.20504 41.5571 1.39127C43.7571 1.79127 45.6071 3.24128 47.2071 4.74128C53.3071 10.8913 49.1071 20.7913 43.7071 25.8913C39.804 30.0065 34.1729 31.3859 28.7077 31.9843L28.7071 31.9913C28.6368 31.9987 28.5662 32.0039 28.4954 32.0072C28.2495 32.0333 28.0039 32.0578 27.7589 32.0809C27.7975 32.829 27.6619 33.662 27.5271 34.4899C27.3622 35.5032 27.1985 36.5088 27.3571 37.3415C27.2601 39.6681 28.9489 41.1959 30.5099 42.6082L30.6571 42.7414C33.1071 45.1414 35.4071 47.7915 36.6571 51.0415C38.3836 55.1903 38.1047 59.6181 37.8259 64.0441C37.5638 68.2059 37.3017 72.3661 38.7071 76.2915C38.9935 76.8644 39.3311 77.4081 39.6695 77.9533C40.2171 78.8356 40.7672 79.7217 41.1071 80.7415C42.0546 84.3482 41.0589 87.8801 40.0618 91.4172L40.0618 91.4173C39.4278 93.6664 38.7931 95.9176 38.6571 98.1914C38.3008 101.727 39.6121 104.902 40.9275 108.087C42.0118 110.712 43.099 113.345 43.2571 116.191C43.455 118.368 43.4451 120.576 43.4353 122.78C43.4277 124.475 43.4202 126.168 43.5071 127.841C43.4535 128.127 43.4893 128.49 43.5232 128.833C43.5842 129.451 43.639 130.006 43.1571 129.941C41.3071 128.891 38.8571 126.891 38.4071 124.691C38.3147 122.9 38.3384 121.094 38.3621 119.286C38.4025 116.198 38.4431 113.1 37.9071 110.041C37.4193 107.425 36.3808 104.966 35.3499 102.525L35.3499 102.525C35.2184 102.213 35.0871 101.902 34.9571 101.591C32.452 96.6192 33.7502 91.4166 35.0241 86.3114C35.4283 84.6915 35.8301 83.0813 36.1071 81.4915C36.7532 77.5479 35.7116 75.8381 34.5349 73.9068C33.0711 71.5041 31.3983 68.7584 32.5071 60.9415C34.0921 47.5778 31.5239 45.2443 28.4886 42.4863C26.9771 41.1127 25.3496 39.634 24.0616 36.6351C23.9563 36.8895 23.85 37.1448 23.7434 37.4007L23.7425 37.403C21.5855 42.5811 19.3057 48.0541 23.0072 53.0413C29.4622 62.0875 26.0397 70.4724 22.3962 79.3984L22.3959 79.3993C22.032 80.2908 21.6659 81.1877 21.3072 82.0913C20.9793 83.1467 20.5548 84.2692 20.1155 85.4311C18.4111 89.9385 16.4834 95.0364 19.1072 99.0913C24.1057 104.09 23.6075 111.287 23.1576 117.786L23.1572 117.791C23.1572 120.241 23.2572 122.691 23.6572 125.141C23.6572 125.341 23.4572 125.291 23.3072 125.241C20.6572 123.841 18.3572 121.291 18.6072 118.091C18.501 116.093 18.6452 114.063 18.7895 112.03C19.0531 108.317 19.3174 104.596 18.0572 101.041C17.5005 99.5981 16.5273 98.359 15.5547 97.1206C14.1685 95.3556 12.7835 93.592 12.6072 91.2413C12.2545 88.508 13.1456 85.8136 14.0125 83.1924C14.1289 82.8407 14.2448 82.4903 14.3572 82.1413C15.1054 80.1022 15.9307 78.0842 16.757 76.0635C18.1393 72.6834 19.5245 69.2961 20.5572 65.7913C23.0015 57.8919 21.0385 54.3643 19.0969 50.8751C17.7817 48.5118 16.4764 46.166 16.5572 42.4913C17.2739 38.868 19.0052 35.5618 20.7159 32.2949C20.9567 31.8351 21.197 31.3761 21.4341 30.9171ZM27.7571 27.5412C28.9071 18.3912 34.4071 9.34118 42.5071 4.79118L42.6234 4.74739C43.4112 4.45023 44.4452 4.06022 45.2071 4.44117C46.4571 6.39117 46.7071 8.79118 46.4571 11.0412C45.1571 20.1412 36.6571 26.8412 27.7571 27.5412ZM6.40706 17.7412C4.55706 13.1412 6.25706 5.7912 11.9071 5.0912C12.9571 5.0412 14.257 5.09122 15.107 5.79122C16.107 7.09122 17.007 8.54122 17.707 10.0412C20.407 15.3912 21.8571 21.2412 22.5071 27.1412C16.2571 26.3412 8.70706 24.4412 6.40706 17.7412Z" fill="black"/>
</svg>
