<svg width="146" height="41" viewBox="0 0 146 41" fill="none" xmlns="http://www.w3.org/2000/svg">
<path fill-rule="evenodd" clip-rule="evenodd" d="M59.8105 25.702C51.6105 22.252 41.5605 16.702 40.7105 6.85199C40.3605 3.45199 42.0605 -1.04801 46.2105 0.601994C52.267 2.96631 57.7991 7.68033 60.8089 13.5482C61.0581 11.975 61.4655 10.4312 62.1103 8.95201C64.2103 3.85201 70.7603 -1.79799 75.8603 3.05201C77.4103 4.35201 78.9103 5.95201 79.4103 8.00201C80.4103 12.452 77.5103 16.552 74.8103 19.802C72.5024 22.6868 69.2477 24.6543 65.7063 25.568C65.9524 28.1674 66.8667 30.7814 68.2105 33.0519C72.154 35.0237 76.9427 31.5202 80.5604 28.8734C81.1627 28.4327 81.7325 28.0159 82.2605 27.6519C82.6003 27.4 82.9545 27.1261 83.3212 26.8426L83.3219 26.8421C86.0846 24.7058 89.556 22.0216 92.9105 24.0519C95.2105 25.4519 97.2105 27.4019 98.7105 29.6519C99.0112 29.9714 99.3331 30.5169 99.6708 31.0894C100.232 32.0399 100.836 33.0647 101.461 33.2519C105.599 34.2866 109.9 30.9095 113.234 28.2917L113.234 28.2911C113.606 27.9996 113.965 27.7175 114.311 27.4519C114.608 27.2127 114.919 26.9419 115.241 26.661C117.143 25.0051 119.445 22.9999 121.711 25.0519C123.561 26.4019 125.111 28.0519 126.461 29.9019C126.66 30.2019 126.861 30.5019 127.261 30.6019C131.461 32.0519 136.161 29.7019 138.711 26.3019C139.616 25.138 140.001 23.7139 140.378 22.3181C140.438 22.0949 140.498 21.8725 140.561 21.6519C140.572 21.6283 140.581 21.5992 140.591 21.5684C140.622 21.4687 140.658 21.3519 140.811 21.3519C142.411 21.8519 143.811 23.5519 144.811 24.9019C145.011 25.2519 145.161 25.6519 144.961 26.0519C144.926 26.2034 144.893 26.3558 144.859 26.5088L144.857 26.5157C144.545 27.9267 144.221 29.3908 143.411 30.6519C141.611 33.5519 138.361 35.5019 135.011 35.8019C130.411 36.1019 126.711 32.5519 123.861 29.3019C122.556 30.127 121.408 31.1505 120.257 32.1762L120.257 32.1762C119.246 33.0774 118.233 33.9803 117.111 34.7519C113.861 36.9019 109.861 39.5019 105.811 38.0519C101.161 36.1019 97.5605 32.1019 94.9605 27.8519C92.3394 28.1889 90.195 29.7597 88.0864 31.3044L88.0862 31.3045C87.3792 31.8224 86.6761 32.3374 85.9605 32.8019C85.7196 32.9525 85.478 33.1045 85.2354 33.2571L85.2333 33.2585C82.6571 34.8795 79.9758 36.5666 76.9605 37.2519C72.8105 38.1519 68.9105 35.6019 66.2105 32.6519C65.6692 32.0264 65.2118 31.3285 64.8341 30.5819C64.9255 31.4738 64.9627 32.3658 64.8604 33.252C64.7604 36.652 61.6604 40.252 58.0104 38.952C54.9104 37.602 52.6104 34.852 50.6604 32.152C47.8814 30.7411 44.1883 34.0098 41.7071 36.2059C41.2866 36.5781 40.901 36.9194 40.5604 37.202C38.6104 38.902 36.4104 40.702 33.6604 40.652C31.9139 40.7361 29.5121 39.3591 27.0773 37.9632C23.7267 36.0423 20.3137 34.0856 18.4604 35.852C18.0667 36.2949 17.7807 36.8616 17.4963 37.425C16.9139 38.5787 16.3386 39.7184 14.8604 39.752C9.11044 39.252 3.96044 32.052 0.860443 27.652C0.0604426 25.602 3.86044 29.052 4.11044 29.452C4.64492 29.9734 5.1556 30.6716 5.68148 31.3905C7.17264 33.4291 8.786 35.6348 11.4104 34.452C12.0554 34.0578 12.4179 33.3812 12.774 32.7165C12.9148 32.4537 13.0546 32.1928 13.2104 31.952C14.6604 29.502 17.7104 30.602 19.8104 31.502C21.0127 31.9593 22.1807 32.5943 23.3405 33.2248C26.6184 35.0066 29.8303 36.7526 33.5604 34.352C34.9456 33.4285 36.1922 32.525 37.3382 31.6943C43.8866 26.9481 47.1541 24.5797 54.2604 34.452C55.7104 35.602 58.3104 34.702 59.6104 33.552C61.7852 31.6879 61.9089 28.919 61.8322 26.2291C61.1436 26.1483 60.4629 25.963 59.8105 25.702ZM74.6604 4.60215C71.9604 4.70215 69.7604 6.45215 68.0104 8.35215C64.6604 11.7522 63.4604 16.4522 63.2604 21.1021C69.1604 19.6522 77.5604 11.1522 75.8104 4.70215C75.5281 4.58119 75.1808 4.59029 74.8734 4.59834C74.7996 4.60028 74.7281 4.60215 74.6604 4.60215ZM47.8603 5.50216C44.9103 8.45216 45.9603 13.8522 48.1103 17.0522C48.7407 18.1674 49.8883 18.7654 51.006 19.3478L51.1103 19.4022C51.4811 19.5804 51.8539 19.7689 52.2294 19.9586L52.2295 19.9587L52.2296 19.9587C54.4867 21.0995 56.8382 22.2881 59.4103 21.6022C59.4436 21.6355 59.4603 21.6188 59.4603 21.5522C59.0103 17.1522 54.1603 1.75216 47.8603 5.50216Z" fill="black"/>
</svg>
