<svg width="162" height="24" viewBox="0 0 162 24" fill="none" xmlns="http://www.w3.org/2000/svg">
<path fill-rule="evenodd" clip-rule="evenodd" d="M27.5516 4.36116C72.2203 4.04994 117.176 3.73673 161.11 12.5749C161.91 13.0249 161.41 10.8249 161.11 10.1249C161.054 9.97864 161.003 9.82481 160.951 9.66908C160.773 9.13263 160.587 8.57364 160.16 8.22488C158.694 7.95821 157.244 7.69155 155.81 7.42488C147.16 5.82488 138.46 4.62488 129.76 3.72488C93.6172 -0.0390879 57.2683 0.597923 20.975 1.23396C17.2527 1.29919 13.5311 1.36442 9.8103 1.42488C6.9103 1.47488 3.96031 1.57488 1.01031 1.82488C0.840369 1.82488 0.85091 2.07758 0.857917 2.24556C0.859157 2.27527 0.860286 2.30233 0.860286 2.32488C1.01029 3.07488 1.21029 3.97488 1.71029 4.62488C2.1792 4.62488 2.66029 4.58834 3.14756 4.55132C3.64748 4.51335 4.15389 4.47488 4.6603 4.47488C12.278 4.46758 19.9106 4.4144 27.5516 4.36116ZM85.9603 15.7749C109.81 16.8749 133.41 20.2749 157.01 23.9249C157.81 24.2749 157.26 22.0249 156.96 21.3749C156.9 21.2253 156.847 21.0519 156.79 20.8709C156.565 20.1441 156.301 19.2948 155.46 19.3749L146.76 18.2749C137.56 17.0749 128.344 15.9582 119.11 14.9249C88.0103 11.3749 56.6603 11.8749 25.4103 13.9749C24.5408 13.9923 23.6654 14.052 22.7859 14.112C21.1366 14.2245 19.4735 14.338 17.8103 14.1749C17.651 14.1351 17.682 14.3808 17.7012 14.5329C17.7061 14.5718 17.7103 14.6046 17.7103 14.6249C17.8077 16.4758 19.0913 16.4287 20.4519 16.3788C20.488 16.3775 20.5241 16.3762 20.5603 16.3749C24.5973 16.2638 28.6343 16.1355 32.6713 16.0073C50.4343 15.4429 68.1973 14.8786 85.9603 15.7749Z" fill="black"/>
</svg>
