<svg width="46" height="47" viewBox="0 0 46 47" fill="none" xmlns="http://www.w3.org/2000/svg">
<path fill-rule="evenodd" clip-rule="evenodd" d="M4.44269 26.5354C0.415708 24.158 0.484661 23.6168 0.994812 19.6122L1.0427 19.2354L2.94269 1.7354C2.69269 -1.0146 6.14269 2.78539 6.69269 3.53539C7.03137 4.52065 6.85814 5.65759 6.68671 6.78276L6.68671 6.78277C6.57975 7.4848 6.47348 8.18225 6.49269 8.83541L4.69269 26.5354C4.62602 26.5687 4.54269 26.5687 4.44269 26.5354ZM16.2926 30.8856C14.9426 30.2356 13.3926 29.2356 12.7426 27.8356C13.0657 27.2218 13.4513 26.629 13.8321 26.0435C14.0408 25.7227 14.248 25.4041 14.4426 25.0856C14.9873 24.3434 15.5339 23.5938 16.0832 22.8405L16.0835 22.8401C19.5678 18.0615 23.1623 13.1318 27.0926 8.98558C28.5926 9.63558 30.1926 10.7856 30.8926 12.2856C30.776 12.5188 30.5745 12.718 30.3672 12.9228L30.3672 12.9229C30.2189 13.0694 30.0677 13.2188 29.9426 13.3856C25.0426 18.8856 20.3426 24.9856 16.2926 30.8856ZM23.3927 42.8855C24.0927 44.3855 25.6927 45.4855 27.1427 46.1355C29.2705 45.3717 31.5043 44.6673 33.7476 43.96C37.6717 42.7227 41.625 41.4762 45.0927 39.8855C44.3427 38.7855 42.3927 36.7355 41.0427 36.9855C37.4427 38.2355 33.8427 39.4855 30.1927 40.6855C29.3326 40.9531 28.458 41.2572 27.5826 41.5615C26.168 42.0533 24.7517 42.5457 23.3927 42.8855Z" fill="black"/>
</svg>
