<svg width="30" height="28" viewBox="0 0 30 28" fill="none" xmlns="http://www.w3.org/2000/svg">
<path fill-rule="evenodd" clip-rule="evenodd" d="M14.1711 20.2854C15.0229 18.8427 16.4157 17.3844 17.8607 15.8717C17.9768 15.7501 18.0933 15.6282 18.2098 15.5059C19.0163 14.5354 19.9535 13.5799 20.9081 12.6067C23.4455 10.0197 26.1059 7.3074 26.7598 3.85587C22.1659 4.41272 17.2274 8.54404 16.4208 13.1723C16.6391 13.649 16.8203 14.1133 16.9598 14.5559C17.3448 15.5184 16.1549 14.7207 15.7976 14.4812C15.7837 14.4719 15.7711 14.4634 15.7598 14.4559C15.6562 14.373 15.5495 14.2891 15.441 14.2039C14.5018 13.4657 13.4339 12.6264 13.2098 11.5059C12.9098 10.3059 12.2098 9.0559 11.3598 8.2059C8.2098 6.6559 2.9598 9.90589 4.9098 13.5059C5.90865 14.2654 7.04173 15.0033 8.20452 15.7605C10.301 17.1258 12.4941 18.554 14.1711 20.2854ZM13.4082 22.1558C13.311 21.4832 13.1318 20.843 12.7098 20.3059C11.6384 19.5345 10.518 18.8202 9.39757 18.1059C6.59655 16.3202 3.79552 14.5345 1.7598 11.8559C-0.890196 8.95589 0.359802 5.05589 4.1598 4.15589C7.56645 3.4304 11.192 5.9286 13.7685 9.02675C13.8505 8.82768 13.9363 8.63149 14.0201 8.44011C14.1237 8.20349 14.2241 7.9742 14.3098 7.75587C16.1098 3.65587 22.4598 -1.44413 26.8598 1.75587C28.3098 2.95587 30.1098 4.65587 29.7598 6.80587C29.3179 9.10406 27.7821 10.9335 26.292 12.7084C26.0963 12.9415 25.9014 13.1737 25.7098 13.4059C24.9817 14.2554 24.2281 15.0903 23.4726 15.9274C21.4266 18.1942 19.3666 20.4767 17.7598 23.1059C16.7097 24.4031 16.9951 25.9866 17.1665 26.9369C17.2712 27.518 17.3333 27.8623 17.0212 27.7597C16.9935 27.8495 16.9188 27.9089 16.7598 27.8559C15.6098 27.3059 14.6598 26.3559 13.9098 25.3559C13.7901 25.0703 13.711 24.7661 13.6549 24.451C13.3116 23.6817 13.2538 22.9186 13.4082 22.1558Z" fill="black"/>
</svg>
