<svg width="40" height="46" viewBox="0 0 40 46" fill="none" xmlns="http://www.w3.org/2000/svg">
<path fill-rule="evenodd" clip-rule="evenodd" d="M18.6712 33.4046C16.0085 37.8894 15.2113 41.8984 21.26 45.3428C21.7935 45.3742 21.3619 44.8148 20.9418 44.2701C20.6925 43.947 20.4473 43.629 20.41 43.4428C19.3024 41.4988 19.6766 39.3709 20.6178 37.29C21.334 38.3282 22.2443 39.2073 23.51 39.7428C23.9368 39.8282 23.7442 39.4034 23.6165 39.1218C23.5946 39.0735 23.5746 39.0294 23.56 38.9928C23.1204 37.6093 22.5203 36.3128 21.8029 35.0867C22.3354 34.213 22.913 33.3636 23.4612 32.5572C23.9947 31.7725 24.5004 31.0287 24.91 30.3428C26.6621 27.833 28.4815 25.3681 30.2992 22.9055C32.3199 20.1678 34.3384 17.433 36.26 14.6428C40.16 8.99283 42.41 3.79282 34.61 0.442816C28.428 -0.703852 21.9974 3.4188 19.0853 8.69676C16.3767 5.19818 12.3878 2.49324 8.46002 3.64283C-5.74182 10.3065 2.60515 17.5945 10.2112 24.2356C11.7365 25.5674 13.2321 26.8733 14.51 28.1428C16.1334 29.7185 17.6656 31.3853 18.6712 33.4046ZM19.6015 31.922C19.8465 31.5486 20.1002 31.1722 20.36 30.7928C21.5826 28.725 23.5614 26.0559 25.7231 23.1401C30.7225 16.3967 36.6996 8.33448 36.56 3.34281C31.61 3.44281 26.91 6.1428 23.91 9.9928C22.96 11.1928 21.76 12.7428 22.21 14.3928C22.191 14.4497 22.1577 14.4778 22.1182 14.4908C22.1511 14.6091 22.1818 14.7265 22.21 14.8428C22.31 16.1428 19.06 12.9928 18.86 12.5928C18.5164 12.2873 18.4643 11.8652 18.4144 11.46C18.3989 11.3347 18.3837 11.211 18.36 11.0928C18.01 9.84281 17.36 8.69282 16.61 7.69282C16.3278 7.45088 15.9154 7.37153 15.5304 7.29743C15.438 7.27964 15.3471 7.26216 15.26 7.24281C10.86 6.84281 4.16004 12.0928 5.11004 16.7428C6.10375 19.4258 8.32628 21.2311 10.542 23.0309C11.6709 23.9478 12.7981 24.8634 13.76 25.8928C15.7904 27.771 17.8466 29.7392 19.6015 31.922Z" fill="black"/>
</svg>
