<svg width="48" height="47" viewBox="0 0 48 47" fill="none" xmlns="http://www.w3.org/2000/svg">
<path fill-rule="evenodd" clip-rule="evenodd" d="M23.2759 34.7696C24.6585 32.4875 26.569 30.4738 28.4591 28.4815C29.6045 27.274 30.7425 26.0745 31.7511 24.8278C32.2157 24.294 32.6896 23.7572 33.1674 23.2161C37.5222 18.2838 42.195 12.9913 43.051 6.27784C43.0844 5.91118 43.0844 5.5445 43.051 5.17784C43.1288 4.9834 42.9949 5.00068 42.8609 5.01796C42.8227 5.0229 42.7844 5.02784 42.7511 5.02784C37.1188 5.17104 30.8486 8.54935 28.5512 13.9014C28.6863 14.378 28.8031 14.8544 28.901 15.3279C29.0334 16.0655 28.4647 15.8516 27.7037 15.2654C26.6061 14.9246 24.2476 12.4727 23.951 12.0278C22.7067 10.9842 23.138 9.715 23.8222 8.55652C23.5195 7.61482 23.1248 6.70421 22.551 5.87789C21.301 5.12789 19.751 4.97787 18.301 4.92787C10.201 4.32787 0.300984 13.9779 7.40098 21.2779C8.99221 22.763 11.0641 24.3899 13.2932 26.1401C16.6306 28.7606 20.3201 31.6576 23.2759 34.7696ZM22.6621 35.8728C22.1367 35.1584 21.4563 34.4414 20.551 33.7279C18.5371 31.8654 16.3031 30.1634 14.0629 28.4567C8.90565 24.5277 3.71534 20.5735 1.101 14.5779C-1.499 7.47788 5.901 0.827874 12.601 0.427874C17.7504 -0.05964 22.1013 2.79508 25.0654 6.7969C28.7671 2.27707 35.138 -1.22942 40.851 0.877848C43.851 2.52785 47.051 5.22784 47.601 8.77784C47.5577 15.4545 42.2137 21.2665 37.6647 26.2139C36.9675 26.9722 36.2889 27.7102 35.651 28.4278C34.7831 29.4622 33.8077 30.4768 32.8198 31.5045C30.506 33.9114 28.1228 36.3904 26.8878 39.3646C28.2698 41.6378 29.0589 43.9989 28.901 46.4279C27.1794 45.5106 26.2344 44.4699 25.6322 43.344C24.2551 42.653 21.4527 40.4512 21.551 38.8778C21.8002 37.8167 22.1822 36.8202 22.6621 35.8728Z" fill="black"/>
</svg>
