<svg width="43" height="40" viewBox="0 0 43 40" fill="none" xmlns="http://www.w3.org/2000/svg">
<path fill-rule="evenodd" clip-rule="evenodd" d="M20.2011 34.9278C20.8511 36.6278 22.4511 38.0278 24.0511 38.9278C24.3011 38.9992 24.4746 38.739 24.6262 38.5116C24.6868 38.4206 24.744 38.3349 24.8011 38.2778C25.192 37.8233 25.5829 37.3688 25.9731 36.9137C26.7729 38.0973 27.7488 39.1339 29.1511 39.8278C29.8273 40.0769 28.9836 38.4008 28.387 37.2156C28.1454 36.7357 27.9443 36.3363 27.9011 36.1778C27.745 35.8547 27.5822 35.5376 27.413 35.2263C28.6803 33.7314 29.9333 32.2222 31.1511 30.6778C35.5511 25.0778 39.9011 19.0778 41.8011 12.1278C42.6011 9.42778 42.5511 6.22776 40.5011 4.07776C39.0511 2.37776 37.3011 0.477783 35.0011 0.227783C30.0899 0.266761 22.5352 5.01543 19.8457 10.3523C16.4112 4.34788 9.42368 -0.42765 3.70112 4.37783C-1.84888 9.42783 1.55113 15.5778 6.30113 19.6778C8.74094 22.0226 11.6627 23.7047 14.5828 25.3859C16.2705 26.3576 17.9578 27.329 19.5511 28.4278C21.0457 29.1751 22.0712 30.2798 22.904 31.5256C21.9567 32.6417 21.0192 33.7591 20.2011 34.9278ZM23.8932 30.3573C20.2605 26.4137 15.5142 23.5178 10.867 20.6824C9.42333 19.8015 7.98926 18.9266 6.60112 18.0278C3.20112 12.6278 9.95113 4.77781 15.8011 7.32781C17.3511 8.22781 18.2511 11.2778 18.7511 13.0278C18.8155 13.1842 18.8562 13.3457 18.8832 13.5098C18.8386 13.9851 18.8429 14.4586 18.9011 14.9278C18.7612 15.4874 21.4488 18.3525 21.6487 17.7211C21.7315 17.7465 21.8156 17.7656 21.9011 17.7778C21.9584 17.6347 21.9501 17.4752 21.9419 17.318C21.9358 17.2007 21.9298 17.0847 21.9511 16.9778C21.9334 16.5104 21.8811 16.0312 21.7969 15.5447C23.2133 9.8602 32.7791 4.84164 37.8011 4.52777C37.1248 13.5126 30.895 21.4708 25.4688 28.4022C25.2785 28.6453 25.0892 28.8872 24.9011 29.1278C24.5724 29.5413 24.2347 29.9504 23.8932 30.3573Z" fill="black"/>
</svg>
