<svg width="171" height="81" viewBox="0 0 171 81" fill="none" xmlns="http://www.w3.org/2000/svg">
<path fill-rule="evenodd" clip-rule="evenodd" d="M26.85 64.3445C27.1 71.1945 28.6 79.3445 36.6 80.6445C44.3275 79.942 48.8966 70.7731 52.1562 64.2319C52.3766 63.7896 52.591 63.3594 52.8 62.9445C53.7667 60.8779 54.6167 58.7612 55.35 56.5945C55.3794 56.4182 55.4779 56.501 55.5947 56.5992C55.6766 56.6681 55.7676 56.7445 55.85 56.7445C69.4 64.7945 78 48.4945 78.8 36.8945C78.85 36.6946 78.85 36.4947 78.85 36.3447V36.3445C78.9906 36.3445 79.2419 36.5343 79.4972 36.7271C79.6958 36.8771 79.8968 37.0289 80.05 37.0945C87.7 42.1945 96.1 34.5945 96.6 26.5945C100.05 25.3945 103.3 23.3946 105.85 20.6946C105.45 25.4446 107.5 30.0945 111.6 32.6445C119.95 37.8945 122.95 24.1945 123.45 18.3445C123.597 17.733 123.648 16.954 123.697 16.2064C123.748 15.4259 123.797 14.6798 123.95 14.1946C128.35 18.8446 135.05 20.8945 141.35 19.9945C146.6 31.0445 159.5 33.3946 170.45 34.7946C171 34.7446 170.2 33.6445 170.05 33.4945C168.35 31.1945 166.05 29.3446 163.05 29.4446C161.907 29.2335 160.619 29.0719 159.269 28.9024C152.943 28.1083 145.233 27.1406 144.45 20.0945C144.3 19.3945 144.3 19.3446 145 19.1946C150.8 17.5446 157.4 12.8445 157.3 6.24454C150.65 -6.80546 138.9 6.19454 140.35 16.2445C135.35 17.4945 129.55 17.2446 125.25 14.1946C124.815 13.7599 124.567 13.2087 124.32 12.6591C124.055 12.0706 123.791 11.4841 123.3 11.0446C123.247 10.9917 123.18 10.9215 123.101 10.8395L123.099 10.8375L123.099 10.8371C122.507 10.2206 121.279 8.94204 120.75 9.29456C120.633 10.0973 120.523 11.0644 120.401 12.1373C119.589 19.2846 118.245 31.1271 110.55 30.3445C108.956 27.1973 109.133 23.6492 109.305 20.1917C109.344 19.4196 109.382 18.6521 109.4 17.8945C109.413 17.6821 109.431 17.4696 109.45 17.2571C109.506 16.6196 109.563 15.9821 109.45 15.3445C108.9 14.0945 107.6 12.9445 106.3 12.4945C103.85 16.2945 100.8 19.8945 96.55 21.8945C95.8 11.4445 85.4 4.49454 79.3 15.7445C76.5 21.5445 83.75 26.6445 88.85 27.3945C90.15 27.5945 91.45 27.6279 92.75 27.4945C93.1033 27.2982 93.0251 27.5027 92.951 27.6964L92.951 27.6965C92.9307 27.7495 92.9108 27.8016 92.9 27.8445C91.05 33.2945 84.7 37.9945 79 35.1445C79.3 31.8445 79.2 27.9445 75.85 26.1445C75.15 25.5945 74.05 25.5945 73.7 26.4945C72.65 28.8945 74.3 31.5945 75.8 33.4445C75 39.4945 73.3 45.7446 69.35 50.5446C66.4 54.2946 61.5 56.6946 56.75 55.2946C56.6699 55.2465 56.5231 55.2241 56.3721 55.2011C56.0516 55.1522 55.7121 55.1004 55.95 54.7946C56.25 53.8946 56.5167 52.9945 56.75 52.0945C59.65 40.7945 62.95 20.6945 54.65 11.2445C40.05 -2.35546 38.1 43.6445 52.25 54.0945C49.4 61.6945 45.8 69.4446 39.8 75.0446C38.4 76.3946 33.75 79.2945 32.3 77.1945C30.753 72.7255 30.6463 67.8963 30.5398 63.0721C30.3984 56.6698 30.2572 50.2763 26.75 44.7445C21.75 37.7445 14.1 35.7445 6.5 39.8945C4.15 41.1945 1.75 42.7945 0.25 45.0945C0.605638 46.0034 1.46095 46.6624 2.24827 47.269L2.24831 47.2691L2.24838 47.2691C2.45724 47.4301 2.66131 47.5873 2.85001 47.7445C2.96012 47.8046 3.13036 47.9208 3.33344 48.0594C4.1447 48.613 5.48004 49.5243 5.60001 48.6445C9.05001 43.6945 16.05 40.2945 22.1 41.7445C25.7583 46.5461 26.1057 52.7998 26.4402 58.8233V58.8234C26.5447 60.7032 26.6478 62.5607 26.85 64.3445ZM52.6 53.0945C45.85 45.5445 41.3 17.1945 51.3 11.2445C53.5879 10.2462 54.2492 12.1202 54.8675 13.8723C54.9924 14.2263 55.1156 14.5752 55.25 14.8945C58.6 27.4445 56.4 40.9445 52.6 53.0945ZM89.25 12.5946C84.8 13.3446 80.3 18.7445 82.45 23.2445C85.95 24.8445 90.05 24.4446 93.6 23.1946C94.0505 22.9866 93.9006 21.554 93.7828 20.4278C93.7306 19.9289 93.6847 19.4901 93.7 19.2445C93.4 17.0445 92.85 14.8446 91.75 12.9446C91.1 12.3946 90.05 12.4946 89.25 12.5946ZM144.6 14.6945C145.45 10.2445 148.2 5.29453 153.05 4.44453C153.15 4.44453 153.267 4.42786 153.4 4.39452C152.4 9.04452 148.75 12.7445 144.6 14.6945Z" fill="black"/>
</svg>
