<svg width="182" height="97" viewBox="0 0 182 97" fill="none" xmlns="http://www.w3.org/2000/svg">
<path fill-rule="evenodd" clip-rule="evenodd" d="M64.9749 96.3435C56.0249 93.8935 53.8749 83.5935 53.0249 75.5435C52.8999 74.4685 52.7999 73.3935 52.6999 72.3185C52.5999 71.2435 52.4999 70.1685 52.3749 69.0935C52.3749 69.0435 52.3874 69.0185 52.3937 69.006C52.3954 69.0027 52.3966 69.0002 52.397 68.9984C52.3972 68.9974 52.3972 68.9967 52.3969 68.996C52.396 68.9944 52.3931 68.9938 52.3871 68.9937L52.3749 68.9936C52.0251 69.0435 51.6878 69.106 51.3505 69.1684L51.3499 69.1685L51.3494 69.1686C51.0121 69.2311 50.6748 69.2936 50.3249 69.3435C47.3782 69.6382 44.4171 69.5023 41.4571 69.3665H41.457C38.8922 69.2487 36.3282 69.1311 33.7749 69.2935C22.8249 69.3935 11.7749 74.2435 5.37493 83.3435C4.77493 84.1435 4.22493 84.9935 3.72493 85.8935C3.58217 86.3694 3.07708 86.0301 2.77004 85.8238L2.72493 85.7935L2.56424 85.6731C-0.276114 83.5443 -0.283262 83.539 1.97493 80.5935C5.67493 75.6435 10.6249 71.6436 16.3249 69.1936C22.6749 66.3936 29.7749 65.8935 36.6749 66.1435C37.5552 66.1608 38.443 66.1959 39.3341 66.2312L39.3345 66.2312C43.6057 66.4003 47.9536 66.5724 51.9249 64.7935C51.9444 64.787 51.9625 64.7812 51.9791 64.7758L52.0141 64.7646C52.1048 64.7357 52.1451 64.7229 52.1579 64.6966C52.1681 64.6756 52.1608 64.6461 52.1476 64.5929C52.141 64.5663 52.133 64.5338 52.1249 64.4936C51.8749 59.9936 51.7749 55.4435 51.7249 50.8935C51.5249 42.7435 51.6249 34.5435 51.9249 26.3935C52.0094 25.1427 52.0754 23.8804 52.1416 22.6129L52.1416 22.6126L52.1416 22.6123L52.1417 22.6119C52.4671 16.3816 52.7991 10.0269 55.3749 4.29354C58.4749 -2.50646 63.8249 0.343552 67.3749 4.99355C70.3246 9.06054 71.3168 14.0863 72.2798 18.9638L72.2805 18.9673C72.3947 19.5454 72.5084 20.1215 72.6249 20.6936C75.3749 37.1436 72.6249 57.7435 57.2749 67.1435C56.6253 67.1796 57.0177 70.6805 57.2863 73.0768L57.2863 73.077L57.2864 73.0774C57.3898 74.0006 57.4749 74.7598 57.4749 75.0935L57.5498 75.7755C58.1235 81.0133 58.7145 86.408 60.7749 91.3435C65.7249 90.3935 74.6249 74.6935 74.4249 69.8935C74.4249 65.6435 78.2249 70.1436 79.3249 71.4936C79.9603 72.669 79.6268 73.9251 79.2991 75.1594C79.1111 75.8678 78.9249 76.569 78.9249 77.2436C81.2249 85.4936 85.9749 91.1935 93.1249 82.8935C88.7749 76.8435 87.9249 68.0436 91.7249 61.4936C95.1249 55.3436 100.775 61.3935 101.775 65.8935C103.025 72.6435 101.725 80.1435 97.8749 85.8935C108.025 89.5935 114.825 77.0435 117.575 69.0935C122.073 55.26 121.799 40.7408 121.527 26.3133C121.439 21.6551 121.352 17.0064 121.425 12.3935C121.425 11.4435 121.625 10.7435 122.625 11.6435C125.906 13.5823 126.073 17.1336 126.236 20.5974C126.292 21.7788 126.347 22.95 126.525 24.0435C127.675 36.6935 128.825 49.3436 129.125 61.9936C136.875 59.1936 145.625 69.1436 147.575 76.1936L147.966 76.0452C150.777 74.9809 153.987 73.7653 156.375 72.0935C153.925 66.4435 154.675 58.0435 160.325 54.5435C164.425 52.3435 168.325 56.7435 170.375 59.8935C173.925 66.8435 166.975 73.3435 161.125 76.0435C165.034 77.8991 169.192 76.5749 173.131 75.3201C174.181 74.9858 175.215 74.6565 176.225 74.3935C178.525 75.6435 180.925 77.7935 181.875 80.2935C181.186 80.7635 180.221 80.939 179.253 81.1152C178.676 81.2203 178.098 81.3255 177.575 81.4936C171.175 83.5936 164.075 82.0435 159.725 76.7935C156.189 78.6081 152.48 79.9031 148.758 81.2023C148.481 81.2993 148.203 81.3963 147.925 81.4936C147.772 81.8171 147.622 82.149 147.47 82.4843C146.332 84.9986 145.107 87.7053 141.975 88.5435C139.075 89.0435 136.775 85.9935 135.325 83.8435C134.326 80.4864 138.214 79.2696 141.22 78.3292L141.22 78.3291C141.974 78.093 142.673 77.8743 143.225 77.6435C147.075 66.4935 129.975 57.8435 129.275 72.5935C129.325 75.5926 129.325 78.5917 129.325 81.5908V81.5935C129.325 81.6383 129.335 81.7055 129.347 81.7835L129.347 81.7838V81.7839C129.387 82.0546 129.447 82.4548 129.175 82.4936C127.625 81.8936 126.075 80.3435 125.475 78.7935C125.173 75.6665 125.293 72.5394 125.413 69.404C125.511 66.8243 125.61 64.239 125.475 61.6435C124.175 74.3435 113.925 99.7935 97.8249 87.8935C97.678 87.7849 97.4685 87.6003 97.2882 87.4414C97.1039 87.279 96.9502 87.1435 96.9249 87.1435C96.3249 87.8935 95.5749 88.5936 94.7749 89.1936C88.0249 94.3936 80.9249 85.8936 77.6749 80.4436C77.3842 81.0487 77.0731 81.727 76.7399 82.4535C74.2649 87.8498 70.5715 95.9029 64.9749 96.3435ZM97.6749 62.7436C92.1749 66.7436 92.4249 75.2436 94.3749 81.0936C97.6749 75.6436 98.7749 68.8936 97.8749 62.6436L97.6749 62.7436ZM159.575 69.8435C159.525 65.4435 161.375 59.7435 166.175 58.6935C166.325 58.5935 166.525 58.5435 166.475 58.7935C166.675 62.4935 164.625 65.8935 161.975 68.2935C161.878 68.3486 161.634 68.5669 161.336 68.8334L161.335 68.8339L161.335 68.8341L161.335 68.8342C160.55 69.5349 159.394 70.5677 159.575 69.8435ZM63.7249 4.14355C57.5875 6.63168 57.0562 17.2366 56.6828 24.691C56.6059 26.2246 56.5358 27.6248 56.4249 28.7936C55.9749 39.8436 56.1249 50.8936 56.5749 61.8936C72.4249 47.7436 71.6249 22.4936 64.4749 4.04358C64.2082 4.04358 63.9582 4.07689 63.7249 4.14355ZM76.4249 54.3435C75.6249 56.2435 78.4749 58.2435 79.9249 59.1435C79.9514 59.1435 79.9765 59.1451 79.9999 59.1465C80.1087 59.1534 80.1837 59.1581 80.2249 58.9935C80.6694 57.7235 81.376 56.5543 82.0759 55.3962C82.4781 54.7306 82.8781 54.0687 83.2249 53.3935C82.5249 51.5935 80.7749 50.0935 79.1249 49.1435C78.9249 49.0935 78.8249 49.1435 78.7749 49.2935C78.5223 49.8303 78.2597 50.357 77.9982 50.8817C77.4315 52.0188 76.8696 53.146 76.4249 54.3435Z" fill="black"/>
</svg>
