<svg width="46" height="50" viewBox="0 0 46 50" fill="none" xmlns="http://www.w3.org/2000/svg">
<path fill-rule="evenodd" clip-rule="evenodd" d="M36.326 30.4C35.726 31.3 38.076 33.1 38.876 33.5C40.14 31.8147 41.0779 29.7128 42.0169 27.6085C42.6379 26.2167 43.2594 24.8239 43.976 23.55C44.1034 23.1359 44.3577 22.6913 44.6192 22.2341C45.1786 21.256 45.7712 20.2199 45.226 19.3C44.326 18.05 43.076 16.95 41.476 17.55C39.1424 17.96 36.8286 18.5092 34.5097 19.0596C33.1519 19.3819 31.7924 19.7046 30.426 20C30.3801 20 30.3295 20.0141 30.2799 20.0278C30.1676 20.059 30.0607 20.0887 30.026 19.95C29.1652 17.0546 28.4269 14.0981 27.6913 11.1521C27.4869 10.3334 27.2826 9.51551 27.076 8.69998C26.8805 8.05912 26.7204 7.36871 26.5572 6.66515C25.9693 4.13005 25.3417 1.42414 22.876 0.25C22.237 0.619959 21.96 2.39255 21.7253 3.89384C21.6111 4.62444 21.507 5.2908 21.376 5.69998C21.1856 6.76625 21.0113 7.83897 20.8368 8.91322C20.3238 12.0704 19.8087 15.2409 18.876 18.3C18.076 20.6 17.926 21.4 20.126 22.8C21.7616 19.4286 22.4613 15.1436 23.1474 10.9417C23.489 8.84952 23.8272 6.77793 24.276 4.84998C24.751 6.69998 25.2135 8.57498 25.676 10.45C26.1385 12.325 26.601 14.2 27.076 16.05C27.1041 16.1581 27.1323 16.2674 27.1608 16.3777C27.7904 18.8183 28.5449 21.7432 31.176 22.7C33.3336 22.4842 35.4533 21.9264 37.5818 21.3663C38.906 21.0178 40.2337 20.6685 41.576 20.4C41.6158 20.39 41.6522 20.3806 41.6851 20.372C41.983 20.2945 42.0011 20.2898 41.776 20.65C41.2454 21.6079 40.7236 22.5702 40.2015 23.533C38.9522 25.8366 37.7013 28.1432 36.326 30.4ZM27.5761 40.0999C29.7261 43.7999 32.2261 48.05 36.2261 49.95C38.7261 49.65 38.1761 42.7999 37.9261 40.8499C37.8761 39.0999 36.6761 37.85 35.2761 36.95C34.8761 36.6 34.5761 36.6999 34.8261 37.2499C35.1761 38.9499 35.2761 40.6499 35.1761 42.3999C34.7011 50.1486 32.7277 46.58 30.3131 42.2136C28.6611 39.2263 26.8026 35.8656 25.0761 35.4999C24.6921 35.4146 24.4173 35.7663 24.1896 36.0577C24.1505 36.1077 24.1128 36.156 24.0761 36.2C21.7261 39.1 18.4761 41.0499 15.2761 42.8999C14.2246 43.671 15.9987 39.356 17.2225 36.3795C17.7445 35.11 18.1663 34.084 18.2261 33.7999C18.7265 31.0162 13.9441 28.4281 9.54581 26.0479C6.91314 24.6232 4.41813 23.273 3.27609 21.9999C7.67609 21.9999 12.1261 22.9999 16.2761 24.3999C15.609 21.8495 11.7397 21.0234 8.7033 20.3751C7.87047 20.1973 7.10031 20.0329 6.4761 19.8499C5.82921 19.7691 5.16663 19.6411 4.49682 19.5118C3.09575 19.2413 1.66303 18.9646 0.276087 19.0999C-0.0935597 20.8249 3.55164 23.4946 5.72434 25.0859C6.19664 25.4318 6.59935 25.7267 6.87612 25.9499C8.87795 27.3586 11.0172 28.52 13.1512 29.6785C13.8955 30.0825 14.6392 30.4862 15.3761 30.8999C15.1207 31.9502 14.4865 33.3589 13.7893 34.9078C12.0302 38.8158 9.86959 43.6157 12.3761 45.7999C13.4761 47.0499 15.0761 48.1999 16.5761 46.8999C16.8243 46.7524 17.0731 46.605 17.3222 46.4575C20.7874 44.4059 24.3072 42.3219 26.8261 39.1499C26.8261 39.1499 26.9261 38.9999 26.9761 38.9999C27.092 39.2705 27.2677 39.5708 27.4339 39.8549C27.4827 39.9384 27.5307 40.0204 27.5761 40.0999Z" fill="black"/>
</svg>
