<svg width="24" height="70" viewBox="0 0 24 70" fill="none" xmlns="http://www.w3.org/2000/svg">
<path fill-rule="evenodd" clip-rule="evenodd" d="M6.64997 69C4.69997 68.15 2.49998 66.8 1.49998 64.9C3.34998 61.25 7.29997 57.8 6.79997 53.4C4.34997 52.15 1.64996 50.6 0.199959 48.1C-1.10004 45.05 14.35 36.25 11 31.25C-2.40002 23.25 6.14998 19.75 14.1 12.5C15.95 10.6 18.55 8.29998 18.05 5.39998C14.2 3.99998 10.05 4.09997 6.04997 4.49997C5.24997 4.34997 0.899959 1.59997 1.94996 1.09997C5.94996 0.599974 10.15 0.599974 14 1.84997C19.55 3.84997 27.1 8.49997 21 14.6C18.5 18.35 7.49996 24.2 10.2 29.1C12.5 30.95 16.3 32.55 16.5 35.9C15.45 41.5 9.69997 44.6 6.54997 49C6.24997 49.5 5.19996 50.5 5.69996 50.9C10.05 53.2 13.8 56.25 10.7 61.4C9.49996 63.7 8.24997 65.95 7.29997 68.35C7.14997 68.6 7.09997 69.05 6.79997 69.05C6.76663 69.05 6.71664 69.0333 6.64997 69Z" fill="black"/>
</svg>
