<svg width="18" height="50" viewBox="0 0 18 50" fill="none" xmlns="http://www.w3.org/2000/svg">
<path fill-rule="evenodd" clip-rule="evenodd" d="M3.44979 44C0.499791 39.8 7.64981 35.4 8.74981 31.4C8.79981 31.25 8.7998 31.25 8.7998 31.25C8.5998 31.2 8.39981 31.15 8.24981 31.1C5.39981 30.35 2.9998 28.4 1.2998 26.05C-1.1502 22.8 9.49982 21.2 9.59982 17.25C5.09982 14.4 -3.45021 8.85004 4.69979 4.55004C8.09979 2.70004 13.0498 -1.69996 16.3498 2.50004C16.6498 2.80004 18.1498 4.30005 17.2998 4.40005C14.5998 4.10005 8.0498 9.00004 6.3998 11.25C4.7998 13.45 7.7498 13.9 9.0498 15.05C16.1498 20.05 14.3998 22.25 7.74981 26.15C5.14981 28 6.34982 27.25 8.34982 28.45C19.1998 34.8 7.1998 38.6 7.7998 46.3C7.7998 47.05 10.4998 49.2 9.09982 49.25C6.74982 48.15 4.84979 46.15 3.44979 44Z" fill="black"/>
</svg>
