<svg width="21" height="56" viewBox="0 0 21 56" fill="none" xmlns="http://www.w3.org/2000/svg">
<path fill-rule="evenodd" clip-rule="evenodd" d="M14.6 55.7001C12.1 54.3501 8.09999 51.4 7.54999 48.55C9.99999 44.05 16.75 41.4501 16.6 35.6001C13.15 34.5501 9.44999 35.3 6.04999 34.05C3.94999 32.85 0.5 30.6001 0.25 28.0001C3.45 23.4501 13.55 20.4001 16.05 15.3501C13.4 13.8501 9.1 14.25 6.25 12.4C5 11.45 2.25 9.85005 3 8.00005C7.1 4.85005 11.8 2.05005 16.6 0.0500488C17.1 0.150049 19.75 2.20005 18.45 2.35005C14.1 4.45005 9.75001 7.10005 6.35001 10.5001C10.3 11.3501 14.65 11.7 17.7 14.65C19 15.85 20.75 17.5501 19.9 19.5001C17.25 24.2001 11.8 26.45 8.04999 30.15C7.34999 30.5 9.59999 30.55 9.89999 30.65C14.2 31.35 18.45 33.9501 20.55 37.8501C21.9 41.9501 17.8 45.2001 15.55 48.1001C14.45 49.5001 12.95 50.9001 12.8 52.7501C13.45 53.4001 14.4 54.2501 14.85 55.1001C15.05 55.3001 15.05 55.7001 14.75 55.7001C14.7167 55.7001 14.6667 55.7001 14.6 55.7001Z" fill="black"/>
</svg>
