<svg width="20" height="56" viewBox="0 0 20 56" fill="none" xmlns="http://www.w3.org/2000/svg">
<path fill-rule="evenodd" clip-rule="evenodd" d="M6.99997 36.15C11.15 35.6 15.2 34 17.95 30.65C19.65 28.9 16.85 27.9 15.6 27.1C12.85 25.2 5.69997 22.6 5.74997 18.85C9.84997 16.9 26 10.95 17.05 5.65C13.8 3.6 10.4 1.3 6.54996 0.5C4.69996 0.65 2.74996 2.15 1.79996 3.7C4.34996 4.65 14.4 10.2 14.2 13.05C10.35 14.9 0.699951 18.35 0.699951 23.3C2.59995 27.65 7.84996 29.3 11.4 32.15C8.19996 33.3 2.79995 34.2 1.44995 38.1C2.34995 40.5 5.14998 41.6 6.84998 43.4C9.14998 45.35 11.65 48.25 10.85 51.45C10.25 51.75 5.14995 55.35 6.94995 55.55C21.1 48.45 18.2 44.2 6.99997 36.15Z" fill="black"/>
</svg>
