<svg width="21" height="31" viewBox="0 0 21 31" fill="none" xmlns="http://www.w3.org/2000/svg">
<path fill-rule="evenodd" clip-rule="evenodd" d="M4.35001 15.5634C2.80001 15.3634 1.4 13.8134 0.75 12.4634C7.4 11.9634 10.8 9.16343 10.25 2.06343C10.35 1.76343 9.85001 0.613426 10.35 0.763426C11 1.01343 11.55 1.51343 12.05 2.01343C12.55 2.51343 13.35 3.11343 13.35 3.81343C13.4 5.46343 13.75 7.11343 13.45 8.71343C13.2 13.4134 8.75001 16.1134 4.35001 15.5634Z" fill="black"/>
<path fill-rule="evenodd" clip-rule="evenodd" d="M20.6501 18.7634C13.1001 17.2134 10.3001 8.31343 11.0501 1.51343C12.1501 1.66343 14.4501 3.81343 14.1501 5.06343C14.3001 7.31343 14.8001 14.7634 17.1001 15.4134C17.9001 15.2634 21.7501 18.4634 20.6501 18.7634Z" fill="black"/>
<path fill-rule="evenodd" clip-rule="evenodd" d="M13.5498 26.4635C12.1998 25.7635 10.4498 24.5635 10.6498 22.8635C10.2998 19.3635 10.2998 16.5635 5.9498 16.8635C5.6998 16.9135 5.89982 16.9135 5.84982 17.1135C5.19982 17.7135 1.59982 14.3635 1.84982 13.5635C6.84982 13.9135 11.8498 17.4635 13.1498 22.4135C13.2998 23.2135 14.1998 26.1635 13.5498 26.4635Z" fill="black"/>
<path fill-rule="evenodd" clip-rule="evenodd" d="M15.9999 30.4635C14.3999 29.6135 12.3499 28.2635 12.1499 26.3635C11.8499 22.8635 13.0999 18.0635 16.5999 16.6635C17.6999 16.6635 18.7499 17.6635 19.1999 18.5135C19.0999 18.6635 18.9499 18.5134 18.9999 18.8134C16.2499 20.6134 15.7499 25.1134 15.9499 28.3134C15.8499 28.7634 16.6499 30.6135 15.9999 30.4635Z" fill="black"/>
</svg>
