<svg width="17" height="26" viewBox="0 0 17 26" fill="none" xmlns="http://www.w3.org/2000/svg">
<path fill-rule="evenodd" clip-rule="evenodd" d="M2.40002 12.6134C2.46498 12.7722 2.54244 12.9278 2.63044 13.0796C1.37093 12.4544 -0.72891 11.8246 0.750005 13.4634C0.870875 13.5842 0.995641 13.7155 1.12451 13.8511L1.12457 13.8511C1.79533 14.5568 2.57731 15.3795 3.5 15.4634C5.77221 15.3417 6.76028 17.887 7.55972 19.9464L7.55973 19.9465C7.74453 20.4225 7.91926 20.8726 8.09743 21.2578C8.01683 21.5091 7.95058 21.7308 7.90005 21.9135C7.2261 23.5984 9.42571 24.9125 10.7059 25.6773C10.7554 25.7068 10.8035 25.7356 10.8501 25.7635C10.9167 25.7968 11.0001 25.7968 11.1001 25.7635C11.1772 25.1925 11.2734 24.6251 11.3878 24.0622C11.425 24.0796 11.4624 24.0967 11.5 24.1134C11.9592 24.184 11.7696 23.6308 11.5834 23.1765C12.2128 20.5401 13.2363 18.0147 14.5569 15.6974C15.1563 15.8587 15.7925 15.9255 16.4 15.9635C17.1 16.0635 16.3 15.1635 16.1 14.9635C15.35 14.1635 14.5 13.2635 13.4 12.9635C12.75 12.9135 12.1 12.8135 11.5 12.6135C9.97457 10.2356 9.2543 7.53571 8.54448 4.87497C8.46324 4.57044 8.38213 4.26643 8.29998 3.96347C8.19998 3.51347 8.09998 3.06348 7.79998 2.66348C7.69362 2.53585 7.46058 2.29963 7.22789 2.13961C7.07602 1.67233 6.91496 1.21268 6.75003 0.763377C5.48906 -0.803278 5.83419 0.66705 6.11166 1.84918C6.19727 2.2139 6.27644 2.55118 6.30002 2.76338C7.20002 6.56338 5.45002 10.3634 2.40002 12.6134ZM12.0135 14.353C10.8949 13.5142 9.92046 12.4596 9.04998 11.3635C8.69025 10.8598 8.37277 10.3097 8.09582 9.72748C7.8663 10.9309 7.3969 12.0913 6.60004 13.1634C6.49007 13.3222 6.3801 13.508 6.26502 13.7023L6.26498 13.7024L6.26497 13.7024C6.00655 14.1388 5.72237 14.6188 5.3546 14.9356C6.73789 16.0385 7.98807 17.3095 9.0544 18.7175C9.82129 16.9476 10.8696 15.0687 12.0135 14.353Z" fill="black"/>
</svg>
