<svg width="186" height="30" viewBox="0 0 186 30" fill="none" xmlns="http://www.w3.org/2000/svg">
<path fill-rule="evenodd" clip-rule="evenodd" d="M50.0088 22.3863C57.9095 25.8219 65.7957 29.2513 74.65 29.0095C82.6 29.0095 90.45 26.7095 97.35 22.9595C98.1739 23.0726 99.0291 23.2535 99.9021 23.4382C101.731 23.8252 103.638 24.2287 105.5 24.0595C117.422 23.1472 128.296 18.2767 139.166 13.4076C145.574 10.5374 151.98 7.66772 158.6 5.60947C165.8 3.45947 174.25 1.40952 181.05 5.65952L183.25 6.95951C183.266 6.96986 183.284 6.98235 183.305 6.99668C183.696 7.25914 185.003 8.13622 185.05 7.70951C183.787 5.62892 181.502 4.40416 179.283 3.21466C178.516 2.80337 177.757 2.39629 177.05 1.95951C165.45 -3.5556 148.103 4.19728 133.081 10.9112C126.993 13.6319 121.287 16.182 116.5 17.6095C111.5 19.3095 106.35 20.8095 101.05 20.7095C100.683 20.7428 100.683 20.6762 101.05 20.5095C104.35 17.8095 108.5 13.7595 107 9.15952C104.25 3.55952 96.9 -0.490527 90.8 1.60947C85.7 3.30947 83.85 9.70947 86.65 14.1095C88.05 16.5595 90.2 18.4595 92.45 20.1095C92.7135 20.2083 92.1526 20.459 91.6676 20.6757C91.4163 20.788 91.1853 20.8912 91.1 20.9595C80.25 26.4595 67.25 27.5595 55.75 23.2095C53.5886 22.3488 51.4309 21.427 49.2667 20.5022C40.3665 16.6995 31.3538 12.8486 21.5 13.0095C14.85 13.3095 7.55 14.4595 2.75 19.4595C2.52304 19.7369 2.27382 20.0111 2.02239 20.2878C1.27678 21.1082 0.511737 21.95 0.25 22.9595C0.75 23.7095 1.54999 24.4095 2.39999 24.6595C4.44999 21.1595 8.04999 18.5095 11.9 17.2595C19.1 14.9095 26.9 14.8595 34.2 16.6595C39.6594 17.8859 44.8372 20.1375 50.0088 22.3863ZM93.95 19.4094C86.4 16.5094 89.25 4.90936 97.05 4.45936C98.9 4.30936 100.85 4.60937 102.55 5.40937C105.45 11.3594 98.35 16.5594 93.95 19.4094Z" fill="black"/>
</svg>
