<svg width="265" height="56" viewBox="0 0 265 56" fill="none" xmlns="http://www.w3.org/2000/svg">
<path fill-rule="evenodd" clip-rule="evenodd" d="M67.3482 54.3238C47.2982 44.8738 70.5482 30.0738 81.9482 26.5238L82.3311 26.3912L82.3312 26.3911C84.7991 25.5361 87.2284 24.6943 89.7482 24.1238C89.8106 24.0926 89.8876 24.0809 89.9564 24.0704C90.1082 24.0473 90.2202 24.0302 90.0482 23.8238C88.5482 19.4738 85.6982 15.5738 81.9482 12.9238C62.8982 -1.02619 22.7982 11.3738 7.59821 26.9738C7.4593 27.1448 7.30898 27.3157 7.15652 27.4891C6.59552 28.1271 6.00547 28.7982 5.84821 29.6238C5.79821 29.8238 5.59824 29.7738 5.44824 29.7238C3.59824 28.9738 1.94822 27.5238 0.798217 25.9238C0.553696 25.1204 1.28536 24.3657 1.95317 23.677C2.24123 23.3799 2.51742 23.095 2.69824 22.8238C4.79824 20.4738 7.34824 18.5738 9.94824 16.7738C18.6982 10.9238 28.6982 7.17382 38.8482 4.62382C53.3982 0.773818 69.9482 1.62377 82.0982 11.3238C86.2482 14.4738 90.0482 18.2238 92.7982 22.6738C92.8649 22.7405 92.9149 22.8571 92.9649 22.9738C93.0649 23.2071 93.1649 23.4404 93.3982 23.2738C94.3649 23.0738 95.3482 22.8738 96.3482 22.6738C113.998 19.0238 130.448 24.5238 146.748 30.7738C163.348 36.5238 182.048 39.0738 198.748 32.4238C186.848 21.5738 192.398 -0.576219 209.848 0.273781C215.248 0.673781 219.898 4.3738 222.898 8.67381C229.398 20.6738 215.448 31.9238 205.398 36.0238C221.698 44.6738 240.548 39.7238 256.648 33.1738C257.179 33.0718 257.709 32.8031 258.24 32.5345C259.009 32.145 259.779 31.7555 260.548 31.8738C262.048 32.8738 264.098 34.3238 264.498 36.1738C244.948 44.8238 222.298 50.6738 203.598 36.7738C185.448 44.0238 165.198 40.3738 147.448 33.7238C129.998 26.7238 113.848 22.9238 95.0982 27.5738C100.498 43.1738 82.2482 58.8238 67.3482 54.3238ZM90.8481 28.6237C82.1481 31.1237 61.5481 39.2237 64.0481 50.7237C76.9481 53.7237 91.6481 42.0237 90.9981 28.6237H90.8481ZM200.048 31.8735C194.598 24.7235 196.048 13.5235 202.948 7.87348C207.198 4.37348 213.548 3.37343 218.548 5.82343C218.825 5.9617 218.934 6.24339 219.041 6.51976C219.089 6.64314 219.137 6.76546 219.198 6.87348C222.298 18.7735 209.698 27.8235 200.048 31.8735Z" fill="black"/>
</svg>
