<svg width="123" height="261" viewBox="0 0 123 261" fill="none" xmlns="http://www.w3.org/2000/svg">
<path d="M68.007 0.334166C35.4881 1.1888 12.0711 9.50013 8.56708 21.4437C5.40493 32.2548 22.9677 35.2247 69.9299 31.8275C109.115 28.9858 122.49 25.0972 122.49 16.5509C122.469 10.5043 112.662 4.62871 100.654 3.49632C92.3427 2.70578 91.7445 8.11135 99.949 9.92745C107.342 11.5513 115.802 15.2476 115.29 16.5936C114.392 18.9225 101.551 21.6573 82.8563 23.4948C48.8204 26.8279 22.113 27.0415 15.8315 24.0076C14.7418 23.4734 14.7205 23.3452 15.511 22.0846C21.7498 12.3204 45.3164 6.42344 80.1855 5.8893C90.548 5.73974 90.8257 5.697 91.5094 4.35095C93.3469 0.825581 87.514 -0.178616 68.007 0.334166Z" fill="black"/>
<path d="M115.01 28.7336C112.98 29.5028 112.66 31.7248 113.408 39.9934C116.548 75.3326 114.412 92.2544 106.25 96.5062C93.8365 102.937 38.3066 104.476 24.5683 98.771C15.0819 94.8397 13.9281 90.6519 13.7999 59.6073C13.7572 46.6596 13.4153 36.1476 12.988 35.3784C12.1334 33.7546 9.56946 33.9255 8.75755 35.6562C7.36877 38.5833 6.4073 73.4951 7.43287 83.3234C9.71902 105.266 23.1795 110.693 70.7827 108.856C115.651 107.125 121.078 102.403 121.463 64.8206C121.74 37.985 119.753 26.9389 115.01 28.7336Z" fill="black"/>
<path d="M58.5619 34.7135C52.1522 37.9825 49.6951 50.0328 54.9511 52.5326C57.6005 53.7932 59.4379 51.7421 58.2842 48.815C57.4723 46.7852 58.2628 44.2854 60.5703 41.4437C62.3437 39.2858 67.1724 45.3964 67.0869 49.691C66.9587 56.0366 72.5139 55.9298 73.4967 49.5628C74.6077 42.4266 64.053 31.9145 58.5619 34.7135Z" fill="black"/>
<path d="M61.8745 52.3225C59.1396 53.7113 60.1225 62.5354 63.0282 62.8559C65.3571 63.1123 66.81 56.6598 65.1435 53.5403C64.5452 52.4507 62.8787 51.8311 61.8745 52.3225Z" fill="black"/>
<path d="M81.8503 56.6361C77.7694 58.089 79.436 61.6999 84.5852 62.5972C89.0293 63.3664 89.8412 63.8792 87.2345 64.2638C76.167 65.9517 41.5756 66.1653 39.9732 64.5415C39.61 64.1997 46.3829 62.0845 47.8999 62.0631C51.2116 62.0417 50.9125 57.9608 47.5581 57.3412C40.3578 56.0379 31.2345 60.4179 31.2559 65.1611C31.2986 70.759 40.1014 72.7033 63.1979 72.2332C92.2982 71.6136 100.118 69.4984 98.1311 62.7468C96.956 58.7941 86.679 54.9269 81.8503 56.6361Z" fill="black"/>
<path d="M32.9026 71.9523C31.5138 72.7642 31.0438 74.6444 31.0651 79.3663C31.0865 89.921 36.1716 95.583 47.9442 98.1683C49.9099 98.5956 50.6577 98.7024 52.6233 98.9161C53.2216 98.9802 54.4181 99.1297 55.2941 99.2366C73.22 101.437 84.7363 99.2366 89.6718 92.6772C94.6928 85.9684 95.1414 74.794 90.3982 74.0462C87.877 73.6616 87.2788 74.6444 87.0865 79.58C86.7019 90.4979 82.386 93.5746 67.5794 93.5532C43.906 93.5105 36.7057 89.7288 36.5775 77.187C36.5348 73.4693 36.428 72.8497 35.7229 72.1446C35.2956 71.7387 33.5009 71.6105 32.9026 71.9523Z" fill="black"/>
<path d="M81.789 111.804C80.0797 112.359 79.7806 113.47 79.631 120.179C79.4174 128.939 79.7379 128.683 68.008 130.243C52.6673 132.294 48.2018 129.409 46.7703 116.504C46.4285 113.535 44.9756 112.381 42.9031 113.449C41.1083 114.368 40.8947 121.29 42.4758 126.162C45.6593 135.798 53.7142 138.768 70.1446 136.396C83.9256 134.409 85.9553 132.379 85.9553 120.5C85.9553 113.171 84.823 110.8 81.789 111.804Z" fill="black"/>
<path d="M74.6959 138.62C73.4353 139.774 73.6703 141.313 75.7001 145.436C77.3452 148.748 77.4307 148.513 74.589 148.684C73.3071 148.769 69.0125 149.068 65.0171 149.346C57.945 149.859 52.924 150.008 51.9198 149.752C51.2575 149.56 51.3002 149.41 53.159 145.351C55.552 140.116 54.2487 136.868 50.6592 139.112C48.779 140.287 45.2109 147.68 45.2109 150.393C45.2109 155.628 49.2277 156.568 66.47 155.329C79.0331 154.431 80.4647 154.153 82.0885 152.209C85.4643 148.214 78.3708 135.223 74.6959 138.62Z" fill="black"/>
<path d="M52.5795 159.749C51.5966 160.839 51.5966 160.903 51.8744 167.163C53.5409 203.186 51.1052 208.207 21.1075 230.598C2.4551 244.529 -0.72842 247.99 0.703094 252.798C2.41237 258.566 11.4501 260.383 38.5848 260.361C98.452 260.318 118.002 256.857 118.899 246.11C119.369 240.405 113.964 234.466 98.9862 224.231C81.6584 212.373 80.291 208.912 78.7954 173.381C78.4108 164.343 77.5989 161.672 75.0564 161.266C72.8984 160.924 72.1934 162.89 72.5779 168.061C72.7061 169.748 72.8984 173.53 73.0266 176.479C74.4581 211.305 77.1716 218.42 93.0037 228.761C94.5421 229.765 97.3624 231.603 99.3067 232.885C107.127 237.991 111.742 242.328 112.254 245.106C112.917 248.631 99.7126 251.11 74.3086 252.221C69.4799 252.413 65.869 252.541 48.6695 253.118C37.602 253.481 19.7828 253.481 16.407 253.118C11.8134 252.605 7.51881 251.601 7.09149 250.917C6.68554 250.255 11.9843 245.875 22.8168 237.906C53.4982 215.343 57.7714 208.827 58.2201 183.957C58.391 173.808 57.4509 162.185 56.3185 160.347C55.6134 159.236 53.37 158.895 52.5795 159.749Z" fill="black"/>
<path d="M40.7456 229.334C38.203 229.847 33.9299 233.372 32.5197 236.171C28.2893 244.483 40.7883 247.602 53.9924 241.513C54.9753 241.043 55.8085 240.701 55.8085 240.722C59.4194 247.987 69.6109 248.542 71.4484 241.598C71.4484 241.556 71.9825 241.748 72.6235 241.983C82.9005 245.914 91.575 241.406 89.3743 233.266C87.9001 227.817 82.5586 229.057 82.9859 234.74C83.2851 238.564 78.4991 238.949 72.1748 235.616C68.7563 233.821 66.7906 234.697 66.0001 238.372C65.1454 242.346 62.0474 241.256 60.2099 236.321C59.3766 234.099 57.1332 233.159 55.1889 234.184C49.527 237.197 45.0615 238.543 40.7883 238.543C38.1603 238.543 38.1603 238.479 41.1729 235.552C44.2923 232.518 44.8051 231.279 43.5659 229.975C42.7967 229.185 42.2198 229.057 40.7456 229.334Z" fill="black"/>
</svg>
