<svg width="69" height="74" viewBox="0 0 69 74" fill="none" xmlns="http://www.w3.org/2000/svg">
<path d="M31.1245 1.00546C24.0738 2.50107 21.3603 13.3549 24.9498 25.5762C25.2276 26.5804 25.4839 27.4564 25.4839 27.5419C25.4839 27.6274 24.8643 27.4137 24.0952 27.0505C15.3351 23.0764 5.61367 25.7899 1.91737 33.2466C-1.33024 39.7845 3.22069 45.6602 11.532 45.6602C12.6217 45.6602 13.519 45.7029 13.519 45.767C13.519 45.8311 13.2413 46.3225 12.8994 46.878C8.51943 54.0356 9.60909 64.569 15.3351 70.3805C21.7663 76.9185 29.1375 74.205 33.0688 63.8425C33.7525 62.0478 33.7525 62.0478 34.4576 63.3084C44.7346 81.5335 59.8617 71.6411 51.6999 52.0486C50.5675 49.3778 50.5675 49.3778 53.6869 49.3565C64.7758 49.3137 71.1856 40.7887 66.8269 31.8578C63.9212 25.8753 55.5457 23.3755 48.0463 26.2386C46.743 26.73 46.8071 26.7941 47.0849 25.1275C49.136 12.6285 40.1623 -0.917472 31.1245 1.00546ZM34.6285 7.60752C40.1623 10.4705 42.6194 19.8929 39.9914 28.1829C39.094 30.9818 39.094 31.0032 37.7693 30.5758C37.0643 30.3622 36.1883 30.2767 35.1627 30.3408C33.4321 30.4263 33.0902 29.9349 31.8082 25.5549C28.7316 14.9147 30.2272 5.34273 34.6285 7.60752ZM57.3832 31.6869C61.1863 32.9261 62.7888 37.1779 60.4813 39.9768C57.6396 43.4167 47.7258 42.6476 43.1535 38.6094C39.735 35.6182 51.6144 29.8494 57.3832 31.6869ZM19.0742 32.0928C21.0185 32.6911 25.7831 35.3191 26.2318 36.0669C26.4454 36.4087 18.305 38.0112 14.3523 38.3958C9.71592 38.8658 7.36567 38.2889 7.64343 36.7292C8.3485 32.8193 13.9464 30.5545 19.0742 32.0928ZM29.5435 43.5663C29.5435 43.8441 29.6503 45.1901 29.7785 46.6003C30.569 55.809 24.6507 68.8208 20.8262 66.2141C12.9635 60.9154 16.8949 46.2584 26.9155 43.6304C29.3512 42.9894 29.5435 42.9894 29.5435 43.5663ZM41.9998 47.3908C46.508 53.9501 48.901 62.7101 46.9567 65.6586C45.7602 67.4961 41.7648 63.7571 39.2863 58.437C34.1585 47.5617 36.2524 39.0581 41.9998 47.3908Z" fill="black"/>
</svg>
