<svg width="74" height="85" viewBox="0 0 74 85" fill="none" xmlns="http://www.w3.org/2000/svg">
<path d="M43.2279 0.918268C36.2626 2.43525 30.9212 11.5798 32.0536 20.0407C32.9509 26.6855 38.2283 24.9763 38.2283 18.0323C38.2283 10.6397 44.1894 4.27271 48.0139 7.56306C49.1676 8.54589 49.83 9.99877 50.5137 13.2037C51.582 18.1392 52.4793 19.122 57.1157 20.4467C67.585 23.4806 68.4183 34.2491 58.6968 40.9152C55.4492 43.1373 56.4961 46.5772 60.5984 47.1327C71.1318 48.5856 68.1405 63.6485 57.1798 64.2681C53.2058 64.5032 52.6289 65.1228 52.7144 69.0327C52.9494 78.8183 41.3691 80.8694 35.4721 72.0881C30.5793 64.8236 26.1138 68.0072 30.0024 75.9766C36.519 89.2449 57.1798 86.6169 58.8677 72.3017C59.0173 71.148 59.0173 71.148 60.3206 70.8916C73.3965 68.3277 77.8406 50.7008 67.2218 43.4578C66.2176 42.7527 66.2176 42.7527 67.0295 41.7058C75.3195 31.2365 72.0291 19.2288 59.701 14.9129C56.5602 13.8233 57.0303 14.4429 55.9833 10.0415C54.3382 3.18305 49.2958 -0.406417 43.2279 0.918268Z" fill="black"/>
<path d="M18.2099 12.2234C11.8001 13.6976 8.5525 20.2783 11.5224 25.7694C12.2702 27.1581 12.4411 26.9231 9.77035 28.376C2.39912 32.3714 -0.14342 40.3409 4.23659 45.7678C4.89893 46.6011 4.89893 46.6011 3.53151 48.054C-6.08314 58.2455 5.62537 70.83 21.3934 67.2192C27.7818 65.7663 26.1153 62.4332 18.2526 60.959C12.1633 59.8266 10.86 59.442 9.4285 58.3523C6.7364 56.3012 7.80469 52.8186 11.6719 51.0238C14.2999 49.806 14.5777 49.635 14.9836 49.0795C16.4365 47.1352 15.4323 44.4431 12.9539 43.6312C6.82186 41.6015 8.27474 37.0719 16.3297 33.0124C21.2225 30.5767 21.9275 28.3333 18.9363 24.8934C15.005 20.3851 18.7227 16.1547 24.0855 19.0177C26.7562 20.4279 28.9142 19.616 28.9142 17.1803C28.9142 13.8899 22.9745 11.1551 18.2099 12.2234Z" fill="black"/>
<path d="M35.8119 34.3735C28.6543 37.2792 28.227 45.441 35.0427 49.2014C41.5593 52.8123 49.0374 43.8599 44.9565 37.3433C43.1831 34.5017 38.8886 33.1129 35.8119 34.3735Z" fill="black"/>
</svg>
