<svg width="67" height="73" viewBox="0 0 67 73" fill="none" xmlns="http://www.w3.org/2000/svg">
<path d="M45.6016 1.0812C40.3884 2.36316 35.581 7.68326 32.8889 15.1613C32.2052 17.0629 32.2052 17.0629 31.3933 15.5886C27.3765 8.34561 21.3941 4.92706 16.779 7.25594C10.2625 10.5677 10.4761 19.755 17.2491 27.7245C18.4242 29.1132 18.4242 29.1132 16.3731 29.2414C5.94654 29.8824 -1.72381 37.8305 0.391413 45.7573C2.35707 53.1926 10.6043 53.9618 20.5822 47.6802C21.4368 47.1247 21.4368 47.1247 21.1163 48.0221C15.5398 63.8328 28.8721 80.5196 37.4185 68.4265C39.4696 65.5421 41.0293 58.5768 40.5806 54.3891C40.5379 53.9831 40.4525 52.7439 40.3884 51.6543C40.3243 50.5646 40.1961 49.2826 40.132 48.8126C39.9824 47.9366 39.9824 47.9366 41.3071 48.5989C52.9942 54.4959 66.2411 49.9023 66.1983 39.9671C66.177 32.7027 59.2117 27.8313 49.3193 28.1518C47.14 28.2159 47.14 28.2159 48.3578 26.8271C59.5536 14.093 57.8443 -1.91002 45.6016 1.0812ZM49.1056 8.04648C51.8405 11.2941 47.0118 19.8191 38.2731 27.169C36.5639 28.6218 36.628 28.6432 36.8843 26.5066C38.1236 16.1655 45.9648 4.30745 49.1056 8.04648ZM21.7787 13.2384C24.834 15.5886 27.462 20.9301 28.8294 27.639C29.2781 29.8824 29.2567 29.9038 27.462 28.4723C21.1591 23.3658 17.7405 17.7893 18.5097 13.9007C18.8515 12.2556 20.1335 11.9992 21.7787 13.2384ZM53.7207 34.3052C59.874 35.6512 62.3525 40.5013 58.2716 43.3002C52.9515 46.9751 42.9523 44.3471 38.8073 38.1937C37.9526 36.9118 37.9313 36.9332 39.7474 36.0358C43.5505 34.1556 49.5543 33.4078 53.7207 34.3052ZM23.5948 36.4417C24.599 36.6768 25.475 36.9545 25.5604 37.04C25.9877 37.4673 14.792 43.642 11.7581 44.6676C8.31816 45.8214 6.92937 45.3513 6.92937 43.0438C6.92937 37.5314 15.0698 34.3052 23.5948 36.4417ZM33.0812 42.4242C36.0938 56.3547 32.5043 71.6314 28.1243 63.4055C25.304 58.1068 26.5219 49.945 31.3506 42.0396C32.5471 40.0526 32.5684 40.0526 33.0812 42.4242Z" fill="black"/>
</svg>
