<svg width="76" height="74" viewBox="0 0 76 74" fill="none" xmlns="http://www.w3.org/2000/svg">
<path d="M50.9519 0.843761C47.5333 1.65566 42.9396 7.65948 39.9912 15.1589C39.5211 16.3981 39.0083 17.6373 38.9015 17.9365C38.6878 18.4279 38.6451 18.3852 38.0469 17.0391C30.9534 0.907858 14.4803 7.55265 19.8859 24.3676C20.655 26.7606 20.8046 26.5683 18.6253 25.9059C9.50203 23.1711 0.3788 27.7221 0.955679 34.7301C1.36163 39.7938 7.30135 43.9601 16.0614 45.3062C17.7706 45.5626 17.7706 45.5626 15.8904 47.5069C9.03198 54.6217 8.41237 63.5313 14.3307 69.706C21.5524 77.2268 31.2525 73.2955 36.0385 60.946C36.6367 59.4077 36.6367 59.4077 37.6836 61.1597C43.3883 70.5607 53.5585 75.6885 60.3315 72.5904C66.3567 69.8128 65.0747 62.4416 56.9984 53.3184C56.2506 52.4637 55.8874 51.9082 56.1224 51.9937C58.1949 52.8056 66.6985 52.2287 69.9248 51.0536C82.5093 46.4599 73.3006 34.7087 56.4215 33.8113C54.1354 33.6831 54.1354 33.6831 55.5028 31.8457C64.391 19.9235 61.2288 -1.61332 50.9519 0.843761ZM53.7508 7.0826C55.9515 11.6549 55.2037 19.7739 52.127 25.0513C50.0118 28.6835 43.7516 34.1959 42.8328 33.2558C41.5295 31.9739 44.3498 20.2013 47.5547 13.5565C50.6955 7.0185 52.7039 4.92465 53.7508 7.0826ZM28.8382 13.8556C31.4875 15.7999 33.325 20.6713 34.6497 29.2604C35.5471 35.2001 35.0129 35.6702 31.4875 32.038C25.2914 25.6923 22.8557 17.5946 26.0392 14.0692C26.958 13.0437 27.6203 13.001 28.8382 13.8556ZM17.0015 31.5679C19.9072 32.5935 28.7313 37.9136 29.0305 38.8109C29.1373 39.1314 24.3086 39.4092 21.296 39.2169C12.7924 38.7255 5.84847 35.7129 7.19452 33.1063C8.41237 30.756 12.771 30.0723 17.0015 31.5679ZM59.1564 40.7766C62.2971 41.4176 65.8439 42.8064 67.9591 44.1738C68.4719 44.5156 68.4719 44.5156 67.5531 44.9002C62.9595 46.8659 53.238 45.8403 45.7172 42.6354C44.7985 42.2509 44.8198 42.2936 45.1403 41.5671C45.7599 40.2211 54.1354 39.751 59.1564 40.7766ZM32.3849 46.0753C33.8164 53.3611 27.3212 66.8857 22.4284 66.8644C18.6253 66.843 15.9118 61.6724 17.3219 57.0788C18.668 52.6133 25.2273 47.2077 31.1243 45.7121C32.1712 45.4344 32.2567 45.4771 32.3849 46.0753ZM41.3799 48.1478C49.2639 54.0448 55.8019 61.2879 57.2762 65.732C58.5154 69.4924 50.6741 67.078 46.3155 62.3562C42.8969 58.6812 39.1365 50.7545 39.1365 47.2505C39.1365 46.4172 39.0297 46.3745 41.3799 48.1478Z" fill="black"/>
</svg>
