<svg width="215" height="341" viewBox="0 0 215 341" fill="none" xmlns="http://www.w3.org/2000/svg">
<path d="M110.999 1.15362C105.145 2.75606 102.709 10.2341 105.807 17.0071C106.213 17.8617 106.469 18.5882 106.384 18.6523C106.298 18.695 105.85 18.8446 105.38 18.9941C99.0125 21.0025 96.3845 27.0277 100.316 30.5744C101.149 31.3222 101.149 31.3222 100.273 31.7496C99.2903 32.241 96.5127 34.1853 94.9317 35.51C94.2052 36.1082 93.9275 36.2578 94.0343 35.9586C94.953 32.9888 95.2949 25.468 94.6753 22.199C91.3849 4.80718 73.6726 9.9991 73.6299 28.3738C73.6299 29.6771 73.5658 30.7454 73.5017 30.7454C73.4589 30.7454 72.9034 30.3181 72.3052 29.8053C62.7333 21.6862 50.8111 23.2673 48.3327 32.9888C46.9652 38.3303 49.9565 44.2913 56.4303 49.12C57.6696 50.0601 57.6696 50.0601 55.8321 50.4447C54.016 50.8507 54.016 50.8507 53.2468 49.996C50.6402 47.1116 44.9782 45.4878 40.7264 46.4066C39.9572 46.5561 39.9572 46.5561 40.4486 44.8469C44.0808 32.3478 39.2949 20.6179 31.9023 23.8656C27.9069 25.6389 25.3857 33.8434 26.3685 41.7915C26.5608 43.3299 26.5608 43.3299 25.7062 42.7957C20.4288 39.5054 13.1858 37.6679 8.89123 38.5226C-3.54371 41.0224 -0.55249 55.2948 13.2285 59.2475C16.412 60.1662 19.5314 60.3585 23.4628 59.8884C24.467 59.7602 24.467 59.7602 24.2533 60.914C24.1037 61.7045 24.1251 62.4737 24.296 63.4993C24.5524 64.9308 24.5524 64.9735 24.061 65.294C22.3945 66.4264 20.9202 68.7339 20.3647 71.0628C20.1724 71.9388 19.9801 72.2807 19.7878 72.2166C19.6169 72.1738 18.8691 71.9388 18.0999 71.7038C6.11367 68.0075 -1.108 80.2288 9.19035 86.724C10.5578 87.5786 10.6219 87.6855 9.83133 87.8778C5.04537 89.0315 0.900391 93.4329 0.900391 97.3001C0.921757 105.676 14.1472 108.88 25.6421 103.283C27.3941 102.449 27.5223 102.407 27.4155 102.834C25.7062 109.628 26.6036 118.922 29.4238 123.687C33.4193 130.46 41.6879 129.819 45.1919 122.469C45.7474 121.294 46.0251 120.931 46.2815 120.995C47.4353 121.337 49.9778 121.508 51.2171 121.337C51.9862 121.23 52.6699 121.123 52.734 121.123C52.8195 121.123 52.905 121.871 52.9691 122.768C53.2254 127.084 56.3235 130.118 60.5112 130.161C66.9851 130.204 72.6043 123.772 70.7882 118.431C70.4464 117.427 70.4891 117.064 70.9378 117.064C71.0873 117.064 71.7069 116.722 72.3265 116.316C73.3735 115.611 73.4803 115.568 74.0145 115.846C74.3563 116.017 75.2537 116.358 76.0656 116.615C76.8561 116.893 77.433 117.192 77.3689 117.299C77.3048 117.405 76.9202 118.004 76.5143 118.623C69.2499 129.584 82.9668 137.596 92.7951 128.131C93.6711 127.298 93.6711 127.298 94.5471 130.033C96.9828 137.682 97.6879 140.929 96.9614 141.079C96.6623 141.143 95.5085 141.357 94.3975 141.527C91.5986 141.998 90.7439 142.617 90.7439 144.134C90.7439 146.207 91.6199 146.655 95.5726 146.655C98.6066 146.655 98.6066 146.655 99.1621 150.181C101.683 166.269 102.217 182.721 101.021 207.655C99.2262 244.981 99.6535 271.966 102.068 273.248C105.059 274.851 105.807 270.535 106.234 248.784C106.362 241.285 106.811 230.281 107.516 216.522C108.777 191.759 108.819 181.909 107.73 168.876C107.153 162.06 105.85 152.83 104.76 147.617C104.397 145.929 104.269 146.036 106.961 145.737C109.674 145.416 109.29 144.732 109.866 150.758C112.088 173.17 111.982 189.152 109.439 218.124C106.875 247.075 106.512 253.442 106.469 267.8C106.448 280.876 107.067 284.572 109.354 284.572C111.618 284.572 112.409 281.047 113.178 267.479C113.99 253.506 114.781 243.208 116.597 224C117.686 212.355 118.434 203.211 118.733 198.147C119.054 192.229 119.075 191.994 119.118 193.917C119.31 202.677 120.25 213.787 121.724 224.812C122.365 229.469 122.365 229.469 120.848 236.777C115.507 262.8 114.033 271.475 113.99 276.987C113.969 280.919 114.204 281.581 115.742 281.581C117.515 281.581 118.37 279.102 120.421 267.907C121.126 264.082 122.237 258.356 122.9 255.194C123.562 252.01 124.203 248.87 124.331 248.186C124.716 246.284 124.823 246.648 125.314 251.284C126.425 261.817 126.788 267.714 127.066 279.765C127.386 294.55 127.621 295.64 130.399 294.956C134.053 294.037 133.604 267.052 129.395 235.067C128.519 228.401 128.519 228.401 129.288 223.53C130.912 213.125 132.172 200.006 133.048 184.046C133.177 181.802 133.305 179.559 133.326 179.025C133.454 176.952 133.668 179.452 134.437 191.524C136.125 218.252 136.296 223.508 136.232 243.763C136.168 263.612 136.253 264.488 138.369 264.488C139.48 264.488 139.779 264.168 140.313 262.458C142.834 254.126 143.026 229.662 140.847 195.156C139.266 170.179 139.202 163.064 140.441 154.561C141.381 148.108 144.052 139.925 145.206 139.925C148.175 139.925 148.816 144.989 149.265 172.102C149.586 190.562 149.351 197.592 147.47 226.03C145.996 248.036 145.74 250.942 143.283 271.753C140.655 294.101 139.971 297.669 137.279 303.032C130.655 316.194 115.614 318.886 105.551 308.673C96.47 299.507 94.0984 283.376 96.6196 248.25C98.6707 219.705 99.0125 212.761 99.2262 196.438C99.3544 185.263 99.0125 169.666 98.5211 164.432C97.9015 157.787 94.3548 155.992 92.966 161.633C92.4959 163.534 92.5173 163 92.6455 191.096C92.731 207.035 92.6241 211.757 91.9191 224.748C91.6413 229.705 90.7867 242.695 90.4235 247.609C89.7397 256.476 89.5902 260.728 89.5688 269.509C89.5688 297.199 95.2949 311.899 108.584 318.223C118.413 322.903 128.07 321.578 136.574 314.399C137.578 313.544 137.578 313.544 138.24 314.313C140.078 316.429 142.556 318.202 148.945 322.026C157.94 327.389 158.089 327.966 151.145 330.252C135.612 335.38 107.452 334.162 84.0564 327.304C79.2705 325.915 78.9927 325.766 79.9755 325.167C88.6501 319.933 96.3204 308.566 93.2651 305.511C91.855 304.101 89.9748 304.763 88.6287 307.134C85.8512 312.006 82.0267 315.574 75.275 319.591C63.9084 326.342 70.1045 331.919 94.5898 337.025C131.745 344.738 168.772 337.923 162.106 324.59C160.888 322.176 158.602 320.339 150.248 315.125C143.432 310.874 141.36 308.865 142.257 307.37C145.59 301.708 147.428 294.977 149.265 281.795C153.196 253.677 154.03 244.532 155.953 210.005C156.316 203.318 156.316 176.568 155.953 168.128C154.436 133.772 153.346 131.635 138.304 133.943C134.864 134.477 135.014 134.519 135.527 132.938C135.997 131.507 136.04 131.486 141.68 128.665C157.705 120.653 181.891 113.923 194.027 114.094C195.544 114.115 195.544 114.115 194.262 114.393C187.232 115.974 185.673 119.35 188.942 126.059C190.523 129.306 190.736 129.349 186.463 125.46C181.934 121.337 178.643 121.08 176.806 124.734C176.037 126.23 176.037 126.315 177.062 131.336C178.024 136.207 178.408 139.434 178.301 142.254C178.237 144.241 178.237 144.241 176.25 142.724C169.071 137.233 163.538 135.267 159.927 136.891C156.017 138.664 157 142.938 161.465 143.664C164.392 144.134 167.704 145.608 172.426 148.514C182.339 154.625 186.057 150.993 184.754 136.528C184.519 133.857 184.412 134.007 185.801 134.925C195.309 141.335 200.65 135.46 195.415 124.328C193.941 121.209 193.749 121.444 198.471 120.696C205.457 119.585 206.718 119.35 208.299 118.901C214.452 117.106 215.072 111.743 209.431 108.902C201.654 104.949 185.587 105.483 169.071 110.226C167.063 110.803 165.396 111.252 165.354 111.209C164.734 110.568 179.327 92.7064 180.459 92.7064C180.545 92.7064 180.737 93.2192 180.887 93.8602C183.344 104.821 195.244 103.988 196.398 92.7705C196.548 91.4459 196.548 91.4459 198.428 92.386C204.026 95.1849 208.855 94.9926 212.209 91.8304C217.572 86.7667 213.811 78.5409 205.073 76.2974C203.513 75.8915 203.513 75.8915 205.073 74.6095C212.572 68.4775 215.136 61.0636 211.034 57.3886C207.124 53.8419 199.432 56.1708 192.745 62.9224C190.8 64.8881 190.8 64.8881 190.544 63.8411C187.296 51.2139 174.263 56.4058 176.742 69.3535C177.169 71.5542 177.169 71.5542 176.421 71.5542C174.926 71.5542 173.152 72.7934 172.319 74.4386C172.084 74.9087 171.87 75.3146 171.827 75.3573C171.806 75.3787 171.058 75.2505 170.161 75.0582C169.264 74.8873 167.554 74.6736 166.336 74.5882C164.157 74.4386 164.157 74.4386 166.208 72.9003C178.088 63.9907 177.575 53.0727 165.268 52.8804C164.221 52.8804 163.388 52.795 163.388 52.7309C163.388 52.4317 166.465 45.8724 166.913 45.2101C167.148 44.8682 167.234 44.9323 167.853 45.8724C172.682 53.3932 182.639 51.5557 183.002 43.0735C183.045 41.9411 183.13 41.001 183.151 41.001C183.173 41.001 183.814 41.236 184.562 41.5138C193.065 44.6973 199.71 41.1292 199.71 33.4161C199.71 27.3909 195.48 22.84 188.685 21.5367C187.36 21.3016 187.36 21.3016 188.621 19.336C197.531 5.59772 186.784 -2.43585 175.182 9.29402C173.28 11.2383 172.746 11.6443 172.639 11.3665C170.652 5.49089 166.999 1.49547 163.238 1.06815C153.837 -0.000139737 150.312 12.0289 157.576 20.2761C158.431 21.2376 158.431 21.2376 157.106 21.8785C146.017 27.1986 147.684 47.5817 158.965 44.4623C159.991 44.1845 160.034 43.9922 158.068 47.9663C157.149 49.8251 156.081 52.2181 155.696 53.2864C155.034 55.2093 155.034 55.2093 153.282 56.1708C151.145 57.3459 147.94 59.6961 145.996 61.5122C144.842 62.6019 144.586 62.7728 144.671 62.3455C146.637 54.0556 145.035 41.6633 141.552 38.1593C135.057 31.6641 127.493 39.9327 126.382 54.7606C126.104 58.6065 126.297 58.2646 124.865 57.4527C123.562 56.7263 123.562 56.4485 125.271 48.9064C127.023 41.1719 127.493 38.8858 127.835 36.3005C128.198 33.587 128.198 33.587 129.309 33.9716C139.95 37.7107 148.517 29.1216 141.146 22.0922C139.458 20.4897 135.484 18.7805 133.433 18.7805C132.942 18.7805 132.942 18.6736 133.476 17.9258C140.868 7.54202 131.04 -3.39732 123.412 6.70875C122.323 8.14026 122.408 8.16163 121.511 6.55919C119.139 2.39284 114.738 0.128056 110.999 1.15362ZM164.05 7.88387C166.101 9.935 167.918 14.9132 168.238 19.3787C168.366 21.4512 168.366 21.4512 167.319 20.5538C161.059 15.2978 158.517 9.9991 160.995 7.39246C161.892 6.45236 162.747 6.58055 164.05 7.88387ZM113.84 8.01207C115.635 8.9308 117.323 13.3322 117.964 18.8232C118.114 20.0411 118.05 20.0411 116.426 19.2292C113.199 17.6054 111.042 14.2723 111.042 10.9606C111.042 8.35392 112.195 7.13607 113.84 8.01207ZM129.523 10.811C129.331 12.1143 127.515 15.5542 126.062 17.3917C124.887 18.8873 124.887 18.8873 125.036 17.9258C125.485 15.2124 127.045 11.7725 128.54 10.2341C129.587 9.16583 129.758 9.27266 129.523 10.811ZM185.737 10.8965C185.224 14.7637 181.25 19.4855 176.314 22.1136C174.498 23.0964 174.498 23.0964 174.498 22.4127C174.498 19.3787 182.81 10.1273 185.801 9.8068C185.844 9.8068 185.822 10.2982 185.737 10.8965ZM85.5093 21.1948C86.7058 25.1475 86.1503 32.9674 84.0137 42.2616C83.5864 44.1204 83.6077 44.1418 82.4112 40.6805C79.2491 31.4932 79.8046 22.2845 83.6932 19.6778C84.6119 19.0796 84.9538 19.3787 85.5093 21.1948ZM111.683 24.6561C110.721 25.2116 107.837 26.0449 106.918 26.0449C106.021 26.0235 106.021 26.0235 107.046 25.4894C108.862 24.5493 113.242 23.7587 111.683 24.6561ZM135.185 26.2372C138.347 27.22 137.77 28.9293 134.288 28.8652C132.407 28.8224 126.874 26.7927 127.365 26.3226C127.942 25.7244 133.369 25.6817 135.185 26.2372ZM165.482 27.4764C166.55 27.861 166.55 27.8396 165.717 29.5275C162.491 35.9159 157 39.5908 156.423 35.745C155.611 30.2753 160.568 25.7244 165.482 27.4764ZM188.45 28.5874C191.484 29.5702 193.514 32.7751 192.424 34.869C191.206 37.1765 183.322 34.2066 179.006 29.8053C177.981 28.7797 178.024 28.6729 179.605 28.1601C180.758 27.7755 186.89 28.0746 188.45 28.5874ZM119.673 28.972C119.246 30.7881 117.43 32.711 115.272 33.6298C114.204 34.0571 114.246 33.8434 115.528 32.1983C117.344 29.848 119.951 27.8396 119.673 28.972ZM35.0003 31.3222C36.09 34.0784 35.5986 39.8472 33.868 44.2486C33.0133 46.4707 32.8424 45.7656 32.7997 39.719C32.7356 32.7751 33.868 28.4806 35.0003 31.3222ZM60.6608 33.3306C65.2972 34.3135 71.2796 39.4413 76.9843 47.368C77.8603 48.5645 78.5654 49.5901 78.5654 49.6328C78.5654 50.2524 69.0576 47.6244 65.6177 46.022C55.8748 41.4924 51.9649 31.4932 60.6608 33.3306ZM175.951 37.5397C177.425 42.1975 176.87 44.6759 174.691 43.1162C173.067 41.9625 171.87 35.6168 172.939 33.8862C173.238 33.3734 175.481 36.1082 175.951 37.5397ZM107.473 36.7706C107.666 37.3902 108.114 38.1807 108.456 38.5439C109.695 39.8259 106.704 43.6931 103.029 45.5519C100.444 46.8339 93.0301 49.3337 91.7695 49.3337C90.3594 49.3337 99.0339 41.0651 104.119 37.5825C107.388 35.3177 107.046 35.4031 107.473 36.7706ZM120.784 38.1593C119.396 41.7488 117.558 49.7824 117.195 53.8419C116.853 57.41 115.315 58.4569 112.964 56.7049C111.426 55.5939 107.559 53.5855 105.85 53.0514C104.675 52.6881 104.675 52.6881 106.405 51.8549C111.405 49.4405 114.93 45.2955 115.614 41.001C115.742 40.3173 115.849 40.2105 117.195 39.6763C117.985 39.3558 119.075 38.8003 119.588 38.4585C120.699 37.732 120.977 37.6679 120.784 38.1593ZM137.685 43.5649C140.163 48.5218 139.351 60.8285 135.869 71.1055C133.796 77.2803 131.617 57.3886 133.497 49.3337C134.758 43.9495 136.617 41.4069 137.685 43.5649ZM14.4891 46.6843C18.0358 47.2826 23.2491 49.3764 26.5395 51.4916C27.6077 52.1967 27.6077 52.1967 26.0694 52.6668C20.2152 54.5256 13.784 53.5 10.3868 50.1883C7.18196 47.0475 8.76304 45.7015 14.4891 46.6843ZM47.0293 53.2436C48.589 53.9701 48.5677 54.2692 47.008 54.141C46.3243 54.0983 44.9141 53.9915 43.8458 53.9274C42.7989 53.8633 41.4528 53.6923 40.8546 53.5214C39.6795 53.2223 39.594 53.2864 41.9229 52.6668C43.0126 52.389 45.8542 52.7095 47.0293 53.2436ZM34.3166 58.9483C35.8336 62.196 36.1755 63.1361 36.5601 64.9949C37.0728 67.4092 37.0515 67.4306 35.8336 66.405C35.2354 65.9136 34.0602 65.1444 33.2056 64.7171C31.2186 63.7129 30.5562 61.6618 31.475 59.2688C31.6673 58.7988 31.8809 58.0937 31.9878 57.6878C32.1587 56.9827 32.5005 56.5981 32.9706 56.5981C33.0988 56.5981 33.697 57.6664 34.3166 58.9483ZM79.5269 56.8118C76.6852 61.4268 62.3059 64.183 56.4517 61.2559C52.7127 59.3757 54.1869 58.2433 61.5795 57.3459C66.3227 56.769 79.8046 56.3631 79.5269 56.8118ZM97.7092 57.9869C102.965 59.0552 110.315 62.4523 109.866 63.6061C109.482 64.6103 109.097 67.1101 109.161 68.1998C109.418 71.8106 99.2048 66.0845 91.9191 58.521C90.4662 57.004 92.1114 56.8545 97.7092 57.9869ZM167.64 60.4653C171.806 61.9182 158.346 71.661 144.607 77.1307C141.189 78.4981 141.189 78.5195 143.539 75.4001C150.974 65.4863 162.17 58.5638 167.64 60.4653ZM46.5166 60.914C46.5807 68.1998 63.1819 72.1311 75.1468 67.7084C76.151 67.3451 77.1125 67.0033 77.2834 66.9392C77.5612 66.8537 77.6039 67.3879 77.6039 70.956C77.6039 79.3314 80.7233 84.5447 85.9366 84.9506C89.697 85.2497 93.5001 81.1689 93.5215 76.7889C93.5215 75.8488 93.7779 76.2761 95.2094 79.7373C97.346 84.9293 101.064 95.9541 100.743 96.2318C99.9954 96.8728 99.2903 96.9583 99.1835 96.4027C98.0724 91.104 95.6367 88.1982 91.3636 87.1299C86.0862 85.7839 80.9156 89.8861 80.9156 95.4199C80.9156 96.125 80.9156 96.125 79.3773 94.9499C77.7535 93.6679 72.9889 90.6553 71.4719 89.9075C70.5532 89.4802 70.5532 89.4802 70.6173 87.9418C70.8523 83.2841 67.6688 79.2459 62.3273 77.4298C58.6951 76.1906 51.5375 69.2681 46.3029 61.8755C45.4269 60.6576 45.4269 60.6576 45.961 60.6576C46.2815 60.6576 46.5166 60.7858 46.5166 60.914ZM206.633 62.6233C205.543 66.1914 200.458 70.7423 194.668 73.3917C192.638 74.3104 192.638 74.3104 193.963 72.3875C197.552 67.1742 201.612 63.6488 205.372 62.4523C206.633 62.0464 206.803 62.0678 206.633 62.6233ZM184.391 63.6702C185.502 65.8923 185.865 70.0586 185.267 73.5199C185.074 74.6523 184.903 74.5454 184.156 72.8789C182.98 70.2509 182.745 69.1185 182.724 66.3196C182.724 62.3455 183.28 61.4695 184.391 63.6702ZM121.105 63.4352C123.605 64.1403 127.045 69.5672 128.54 75.1864C128.903 76.5325 129.438 78.3486 129.715 79.2032C130.356 81.062 130.484 81.062 127.386 79.2246C119.417 74.4813 115.336 67.9434 118.135 64.3753C118.904 63.4138 119.887 63.0933 121.105 63.4352ZM86.2357 72.1311C86.8554 77.1521 86.0648 78.0708 85.2102 73.3703C84.9111 71.7251 84.6974 67.4092 84.8897 66.8324C85.1033 66.1914 85.8939 69.2894 86.2357 72.1311ZM47.5421 72.8362C48.0976 73.4771 49.1873 74.695 49.9992 75.5283C51.4521 77.0452 51.4521 77.0452 49.9992 77.4085C48.1404 77.8785 45.085 79.075 43.3758 80.0151C41.7306 80.9125 41.8161 80.9338 41.8161 79.716C41.8161 79.1605 41.6238 77.8358 41.4315 76.7675C41.0469 74.8232 41.0469 74.8232 41.7306 74.054C42.5425 73.178 43.1835 71.2765 43.4185 69.1612C43.5681 67.7297 43.5681 67.7297 45.0637 69.6954C45.8969 70.785 47.008 72.1952 47.5421 72.8362ZM31.0904 70.5287C34.6585 72.3234 36.6669 78.7332 35.3208 84.096C34.7012 86.5744 34.6585 86.5958 33.0133 84.8224C26.4326 77.729 25.0652 67.5374 31.0904 70.5287ZM102.709 74.7377C105.166 75.6992 107.559 76.1265 109.781 75.9556C111.661 75.806 111.661 75.806 112.559 77.0452C113.776 78.7118 116.639 81.4894 118.37 82.6645C120.079 83.8182 120.079 83.69 118.562 84.5447C113.477 87.4718 110.23 92.8774 111.447 96.36C111.768 97.2574 111.704 97.3001 110.593 96.6805C110.08 96.4027 109.14 96.0182 108.52 95.8045C107.623 95.5267 107.388 95.3344 107.281 94.8858C105.914 88.7965 103.371 81.938 100.059 75.5069C99.3544 74.0968 98.7134 72.8789 98.6921 72.7934C98.6493 72.6866 99.1835 72.943 99.8672 73.3489C100.551 73.7549 101.833 74.3745 102.709 74.7377ZM179.177 79.0323C180.16 81.1048 180.203 81.5534 179.412 83.0918C179.028 83.8396 179.028 83.8396 178.878 82.985C178.793 82.5149 178.558 81.4466 178.344 80.6347C177.66 77.964 177.596 77.1093 178.109 77.1093C178.195 77.1093 178.686 77.964 179.177 79.0323ZM17.3094 77.964C18.8477 78.5409 21.668 80.3997 21.839 80.9552C21.9031 81.1689 22.5654 82.2585 23.3132 83.3695C24.6593 85.3993 24.6593 85.3993 22.715 84.8652C15.536 82.8995 9.36128 79.0964 11.5192 77.9426C12.908 77.1948 15.301 77.2162 17.3094 77.964ZM169.477 81.8526C172.725 82.7927 171.187 84.1387 165.631 85.2497C160.739 86.2326 143.56 84.8652 147.47 83.8182C155.162 81.7244 165.781 80.7843 169.477 81.8526ZM199.24 81.8312C204.453 82.3867 208.043 84.2242 208.043 86.318C208.043 89.2665 201.953 87.6214 196.975 83.3268C194.774 81.4466 194.903 81.3612 199.24 81.8312ZM58.1823 83.1132C65.9595 84.1815 66.4509 90.2494 58.9942 93.2192C57.5414 93.7961 57.5414 93.7961 56.5799 93.4115C55.1056 92.8346 51.858 92.8774 50.6402 93.4756C49.636 93.9884 49.3796 93.9457 44.2731 92.1509C39.4872 90.463 39.4231 90.3989 41.1965 89.0529C45.7688 85.5916 50.2342 83.5832 54.4006 83.0918C56.4517 82.8568 56.3876 82.8568 58.1823 83.1132ZM189.198 85.6984C190.779 90.869 190.031 97.3001 188.236 94.0739C187.211 92.215 187.147 88.5401 188.108 85.5061C188.557 84.0533 188.707 84.0746 189.198 85.6984ZM128.968 89.4161C126.745 91.745 122.301 93.967 119.866 93.9884C117.579 94.0098 122.665 90.2707 126.233 89.3093C129.502 88.4333 129.908 88.4546 128.968 89.4161ZM175.353 89.1383C166.721 96.8728 160.632 104.543 155.995 113.41C155.162 115.012 155.162 115.012 152.705 116.038C150.034 117.17 143.069 120.568 140.569 121.956C138.689 123.003 138.646 123.366 140.997 117.918C141.937 115.739 143.005 113.26 143.368 112.406C143.945 111.081 144.116 110.846 144.479 110.953C144.714 110.996 145.612 111.252 146.488 111.487C156.166 114.179 161.145 103.603 154.649 94.1166C154.051 93.2406 154.051 93.2406 157.705 93.2192C164.542 93.1551 170.546 91.8091 174.178 89.5443C175.267 88.8606 175.908 88.6469 175.353 89.1383ZM141.146 91.1254C147.855 93.1551 154.778 104.885 149.244 104.885C144.949 104.885 140.441 98.8598 139.159 91.3604C138.988 90.4203 138.839 90.4417 141.146 91.1254ZM27.7146 92.9415C29.6375 93.2406 29.6589 93.3474 27.8855 94.6935C21.4116 99.6504 13.0148 101.253 8.65621 98.347C4.74625 95.7831 19.4673 91.5954 27.7146 92.9415ZM71.771 97.1505C75.275 99.9708 74.8905 100.676 69.8054 100.697C67.4979 100.719 67.2628 100.761 65.8741 101.402C64.2502 102.193 64.0366 102.236 64.0366 101.83C64.0366 101.616 63.2674 99.9495 62.37 98.2188C62.3273 98.1547 62.8615 97.8343 63.5238 97.5351C64.8271 96.9369 67.0919 95.3985 67.7542 94.6507C68.1175 94.2662 68.2029 94.2448 68.5021 94.5012C68.6943 94.6507 70.1686 95.8472 71.771 97.1505ZM89.8679 95.1635C90.8935 96.0395 91.449 98.3043 91.684 102.535C91.8122 104.778 91.8122 104.778 90.8294 103.731C89.1201 101.872 87.9664 99.0307 87.9664 96.6378C87.9664 94.4798 88.5219 94.0525 89.8679 95.1635ZM37.2865 96.4668C39.829 99.9067 41.7947 105.761 40.6196 106.381C36.6455 108.517 36.325 113.773 39.9359 117.619C41.0896 118.837 40.876 119.585 38.8676 121.379C33.8466 125.909 31.9237 110.355 35.855 97.0224C36.4105 95.2063 36.3678 95.2276 37.2865 96.4668ZM46.8584 100.804C46.8798 101.808 47.0507 103.24 47.243 103.945C47.649 105.547 47.649 105.526 47.2644 105.526C47.0721 105.526 46.9225 105.227 46.837 104.714C46.5807 103.218 45.8969 100.676 45.4483 99.6717C45.2132 99.1162 45.0209 98.6248 45.0209 98.6034C45.0209 98.5607 45.4269 98.6248 45.9397 98.753C46.837 98.9453 46.837 98.9453 46.8584 100.804ZM55.8321 99.6504C58.5456 101.723 59.7207 106.552 58.3319 109.799C57.9046 110.739 57.9046 110.739 56.9645 109.521C52.4776 103.795 51.623 96.4455 55.8321 99.6504ZM135.954 103.731C136.488 104.5 137.493 105.718 138.176 106.445C139.415 107.769 139.415 107.769 138.24 109.799C134.352 116.572 130.399 125.802 128.455 132.767C127.557 135.951 127.515 135.374 128.241 129.434C129.181 121.529 130.271 114.906 132.108 105.846C133.54 98.8385 133.348 99.2871 134.224 100.954C134.629 101.723 135.399 102.983 135.954 103.731ZM126.19 104.906C123.84 114.884 122.109 124.883 121.062 134.541C120.848 136.699 120.763 136.955 120.357 137.041C119.225 137.297 115.016 138.002 114.973 137.938C114.93 137.895 114.652 136.934 114.353 135.801C113.819 133.708 112.9 131.208 112.388 130.396C112.174 130.075 112.174 129.798 112.345 129.221C113.435 125.695 111.704 118.944 108.734 115.055C108.307 114.478 107.815 113.837 107.666 113.645C107.409 113.303 107.495 113.218 108.52 112.897C114.332 111.017 117.473 106.21 115.592 102.086C115.165 101.103 115.165 101.103 116.533 101.616C119.032 102.513 122.836 102.172 125.998 100.761C126.639 100.484 127.194 100.27 127.237 100.291C127.258 100.313 126.788 102.385 126.19 104.906ZM107.644 102.642C111.319 104.543 108.99 106.915 103.457 106.915C98.1365 106.915 97.2605 106.552 99.0766 105.099C101.918 102.855 105.85 101.723 107.644 102.642ZM69.0362 110.248C69.4849 111.53 69.0576 111.786 65.5749 112.384C62.8401 112.876 63.6093 110.782 67.1346 108.154C68.4166 107.193 68.4166 107.193 68.5662 108.261C68.6516 108.859 68.8653 109.756 69.0362 110.248ZM78.9927 107.962C80.7447 108.346 84.1205 109.564 84.1205 109.821C84.1205 110.675 77.5612 109.479 76.9629 108.517C76.4715 107.705 77.0698 107.556 78.9927 107.962ZM48.0976 112.705C49.636 113.111 52.9263 114.478 52.9263 114.713C52.9263 115.034 50.4906 115.397 49.0805 115.312C46.9652 115.162 44.85 114.051 44.1449 112.726C43.8672 112.235 46.1961 112.213 48.0976 112.705ZM102.452 118.559C104.931 121.593 106.256 126.764 104.974 128.516C103.35 130.716 97.2605 118.004 98.7562 115.568C98.9484 115.247 101.32 117.17 102.452 118.559ZM90.2739 116.999C89.3124 120.589 86.7058 123.858 84.2701 124.499C81.3002 125.311 86.6203 117.598 89.8893 116.358C90.4662 116.145 90.5089 116.209 90.2739 116.999ZM62.9469 118.986C65.3399 120.204 64.8699 122.085 61.9641 122.961C60.2762 123.473 59.7634 123.067 59.7634 121.166C59.7634 118.26 60.5326 117.747 62.9469 118.986ZM108.264 137.169C108.563 139.263 108.798 139.049 105.657 139.583C103.029 140.032 103.029 140.032 102.452 137.895C101.79 135.46 101.769 135.545 102.858 135.844C103.969 136.165 106.063 136.101 106.982 135.759C107.388 135.609 107.794 135.46 107.858 135.46C107.943 135.438 108.114 136.207 108.264 137.169ZM137.621 141.57C135.869 145.672 134.202 152.659 133.753 157.872C133.433 161.718 133.241 158.043 133.348 150.501C133.497 140.758 133.305 141.549 135.463 141.143C138.133 140.651 138.027 140.63 137.621 141.57ZM120.143 145.523C119.951 147.98 119.609 156.056 119.374 163.62C119.267 167.402 119.139 170.564 119.096 170.606C119.054 170.649 118.947 169.26 118.861 167.53C118.605 161.804 117.601 152.253 116.639 146.655C116.276 144.519 116.276 144.519 117.665 144.284C120.4 143.814 120.293 143.75 120.143 145.523ZM126.916 172.294C126.916 178.298 126.81 184.516 126.681 186.503C126.553 188.447 126.318 191.951 126.169 194.301C125.763 200.455 125.656 186.139 125.976 170.906C126.382 151.89 126.916 152.659 126.916 172.294Z" fill="black"/>
<path d="M62.1109 132.022C42.1551 133.667 29.6774 139.778 33.0319 146.294C33.801 147.768 36.835 149.969 38.1383 149.969C38.7152 149.969 38.3306 150.354 37.3905 150.717C20.1482 157.191 8.6534 174.262 14.7213 184.368C18.3321 190.351 25.6606 189.304 35.5103 181.398C38.0529 179.369 37.9033 179.304 37.3478 182.167C33.8865 200.414 35.2753 211.033 41.3432 212.87C47.1334 214.644 51.2356 208.298 58.1154 186.953C59.8888 181.42 59.8888 181.42 60.5084 183.257C64.2474 194.816 72.922 194.645 75.8918 182.958C76.661 179.839 77.0242 176.121 77.2806 168.75C77.7079 155.481 78.7335 151.764 83.0067 148.132C87.9422 143.923 85.2501 139.607 79.5027 142.47C72.6015 145.931 70.5504 151.401 70.2299 167.169C70.0162 177.958 69.3753 183.599 68.3283 184.24C67.6873 184.646 66.1704 179.112 65.3157 173.151C64.4825 167.361 63.4355 165.78 60.487 165.78C57.5599 165.78 56.3634 167.724 53.1372 177.745C52.0689 181.099 50.4237 186.184 49.4836 189.069C46.4924 198.341 43.8857 204.26 43.6294 202.444C43.0952 198.982 43.7789 189.325 45.2318 179.411C46.8983 168.023 43.7362 165.417 35.9376 171.762C28.8014 177.574 25.1265 179.945 22.4985 180.415C19.9132 180.907 21.2379 174.155 24.6778 169.305C28.8228 163.451 35.4249 159.37 47.7957 155.011C56.3634 151.999 55.9575 146.508 47.0479 144.521C43.6507 143.752 43.6935 143.773 44.6977 143.41C50.9151 141.145 64.9525 139.115 75.6141 138.966C81.9384 138.859 83.1776 138.196 82.3871 135.312C81.6393 132.62 72.6229 131.167 62.1109 132.022Z" fill="black"/>
<path d="M95.2536 321.322C89.5276 327.07 115.615 331.834 131.875 328.01C140.336 326.023 139.267 321.451 130.657 322.861C122.794 324.143 107.112 323.267 99.1209 321.109C96.8774 320.489 96.0442 320.532 95.2536 321.322Z" fill="black"/>
</svg>
