<svg width="187" height="238" viewBox="0 0 187 238" fill="none" xmlns="http://www.w3.org/2000/svg">
<path d="M92.2849 0.724776C87.9903 1.38712 86.8793 14.1853 90.9388 16.1509C94.6779 17.967 97.3059 14.3562 97.2845 7.43366C97.2631 2.47678 95.5752 0.211994 92.2849 0.724776Z" fill="black"/>
<path d="M92.7971 25.7851C92.6262 25.8919 92.263 25.9988 92.0066 25.9988C90.7887 25.9988 88.759 29.3532 87.8616 32.8359C85.1695 43.2197 94.5277 47.5356 97.519 37.28C99.5274 30.3788 96.6216 23.3067 92.7971 25.7851Z" fill="black"/>
<path d="M92.7737 49.1352C87.4322 51.1223 86.2571 62.4676 91.1712 64.6896C94.9102 66.3989 97.9656 62.2539 98.0083 55.3741C98.051 50.4813 95.9358 47.9815 92.7737 49.1352Z" fill="black"/>
<path d="M89.2051 66.8048C82.7953 68.5354 79.3981 74.6675 82.3894 79.1116C87.0258 86.0341 100.529 82.0814 100.892 73.6846C101.106 68.3432 95.5721 65.0742 89.2051 66.8048ZM93.9697 72.8727C94.9311 73.2787 94.9098 73.7274 93.8842 74.7102C91.6622 76.8254 86.7053 76.6972 88.2009 74.5606C89.2692 73.0437 92.2818 72.1676 93.9697 72.8727Z" fill="black"/>
<path d="M159.609 71.2269C158.69 71.3765 157.494 72.7011 156.148 75.0941C150.849 84.5165 150.785 91.6527 155.955 96.4814C159.823 100.114 163.54 96.8446 160.058 92.8705C157.323 89.7725 157.237 85.948 159.801 80.3074C160.656 78.4272 160.378 78.4058 162.728 80.5211C168.818 86.0335 169.202 86.5462 168.989 88.8324C168.54 93.7465 173.347 95.0071 175.548 90.5417C177.257 87.0376 175.099 82.5508 169.672 78.299C165.527 75.0728 164.673 74.3249 163.754 73.1498C162.387 71.3765 161.468 70.9491 159.609 71.2269Z" fill="black"/>
<path d="M5.60156 85.8243C-0.915036 89.2642 -2.09016 105.566 4.17005 105.566C6.41346 105.566 7.09717 103.814 6.15707 100.503C4.89649 96.1654 6.30663 89.6916 7.86634 92.6187C8.76371 94.3279 9.23376 94.9262 11.349 97.0841C13.101 98.9002 13.571 99.8617 13.2078 100.973C12.3745 103.601 16.2418 105.652 18.3143 103.686C21.2841 100.887 20.109 96.2936 15.4512 92.3196C14.0197 91.1017 13.1651 90.1402 12.0327 88.4951C9.91747 85.3756 7.97317 84.5637 5.60156 85.8243Z" fill="black"/>
<path d="M87.9888 86.2326C82.1132 87.9205 78.5665 94.0097 80.8313 98.5393C81.3654 99.6076 81.3654 99.6076 79.9125 103.24C75.1266 115.183 69.721 123.58 59.9995 134.22C56.0682 138.536 55.6195 139.263 56.0468 140.716C56.581 142.638 58.6535 142.98 60.8328 141.527C67.8194 136.848 78.6947 122.555 83.7584 111.359C85.3395 107.898 85.3181 107.598 84.0148 115.525C79.1861 144.967 72.99 163.919 65.2555 172.999C59.7645 179.452 63.9522 183.105 69.956 177.08C75.4471 171.547 78.7374 165.521 82.0278 154.945C82.7756 152.531 83.1601 151.569 83.1601 152.061C83.1601 152.467 83.0747 155.736 82.9892 159.325C82.4337 179.131 83.1815 185.605 85.9804 185.605C88.4162 185.605 89.0571 183.17 89.3135 173.106C89.399 169.581 89.5058 166.932 89.5485 167.231C90.5314 174.645 93.6935 185.05 96.9625 191.609C110.081 217.804 140.848 212.035 141.169 183.319C141.19 180.926 141.233 180.691 141.574 180.691C152.77 180.691 157.086 171.119 147.044 168.619C145.42 168.213 145.356 167.829 145.356 158.492C145.314 133.836 143.326 127.041 135.336 124.178C134.737 123.943 134.246 123.666 134.246 123.559C134.032 115.931 133.605 113.175 132.515 112.085C131.127 110.696 128.969 111.038 128.264 112.748C127.665 114.179 124.738 110.355 124.781 108.197C124.824 105.462 130.293 97.6206 131.426 98.7102C135.72 102.77 137.494 106.039 137.024 109.009C136.553 111.914 137.408 113.495 139.438 113.474C143.861 113.41 144.758 106.231 141.04 100.548C139.652 98.4111 132.836 91.1253 131.832 90.698C130.016 89.9502 128.178 90.6339 126.64 92.6851C119.076 102.727 117.623 105.932 118.756 110.248C119.952 114.82 125.486 118.709 127.302 116.252C127.494 115.953 127.58 116.465 127.708 118.965C127.793 120.653 127.879 122.277 127.9 122.555C127.943 122.982 127.793 123.089 126.768 123.366C121.448 124.734 119.268 130.823 119.931 142.532C120.422 151.356 122.067 162.081 123.905 168.513C124.973 172.209 124.973 171.931 123.948 172.679C118.777 176.397 122.858 180.948 131.639 181.268C135.656 181.418 135.25 180.969 134.866 184.879C133.69 196.694 127.345 203.424 118.67 202.078C100.125 199.194 92.0484 169.923 94.9114 116.059C95.0396 113.495 95.0396 113.495 95.8728 115.846C100.616 129.263 109.462 144.39 113.756 146.463C117.602 148.322 119.055 145.01 116.192 140.929C109.59 131.528 104.847 122.448 99.7401 109.543C96.4497 101.167 96.4497 101.21 97.6249 99.7999C103.372 92.7064 96.9411 83.6473 87.9888 86.2326ZM92.7107 92.856C95.4028 94.5012 91.0655 98.347 87.9888 97.0651C86.4932 96.4454 86.2796 95.2703 87.3906 93.9243C88.5871 92.5141 91.2792 91.98 92.7107 92.856ZM133.883 130.118C139.032 132.661 139.737 136.571 139.374 160.735C139.267 167.808 139.267 167.808 136.917 167.957C135.635 168.021 133.733 168.256 132.708 168.47C130.635 168.897 130.849 169.495 128.905 157.936C124.824 133.579 126.127 126.294 133.883 130.118Z" fill="black"/>
<path d="M164.585 93.2417C162.512 93.9254 161.893 96.4893 162.79 100.784C162.961 101.553 163.089 102.194 163.089 102.215C163.089 102.237 162.512 102.557 161.807 102.942C155.633 106.232 153.71 114.779 155.846 129.521C156.573 134.542 158.111 142.191 158.944 144.819C159.008 145.075 158.752 145.353 158.047 145.759C152.748 148.857 152.919 154.241 158.346 155.908C160.419 156.549 160.59 156.57 164.371 156.698C168.644 156.827 168.11 155.929 168.11 163.023C168.089 180.564 160.205 190.927 143.454 195.435C138.113 196.888 139.202 201.759 144.715 200.969C159.222 198.917 171.529 187.358 174.392 173.107C175.439 167.894 175.524 157.147 174.52 156.164C174.456 156.1 175.631 155.737 177.127 155.352C184.177 153.622 187.361 150.609 185.865 147.062C185.246 145.609 182.596 143.516 181.336 143.516C181.186 143.516 181.015 142.212 180.844 139.926C180.417 133.751 178.836 120.163 178.024 115.526C176.699 107.963 174.178 103.732 170.161 102.386C169.136 102.044 169.136 102.044 169.008 99.972C168.666 94.7801 167.106 92.4084 164.585 93.2417ZM168.345 108.454C171.272 109.779 172.319 115.035 173.986 136.785C174.093 138.431 174.264 140.311 174.328 140.973C174.456 142.17 174.456 142.17 171.764 142.319C170.29 142.405 168.239 142.597 167.213 142.768C166.187 142.939 165.333 143.046 165.311 143.024C165.247 142.939 163.111 129.606 162.769 127.064C162.213 123.154 162.107 115.804 162.534 113.603C163.453 109.159 165.632 107.215 168.345 108.454Z" fill="black"/>
<path d="M9.08581 102.916C7.71839 103.236 7.01332 104.753 7.16288 107.103C7.24834 108.407 7.24834 108.407 6.24415 108.749C4.04346 109.539 2.48375 111.654 1.97097 114.582C1.45819 117.487 2.52648 136.653 3.85117 148.639C4.12893 151.181 4.12893 151.737 3.8939 151.822C0.881311 152.826 0.176236 157.271 2.71878 159.215C4.08619 160.262 9.91908 161.416 11.607 160.967C11.9488 160.881 11.9916 161.351 12.0984 168.167C12.4189 188.7 18.1022 206.604 25.3666 210.044C31.1354 212.779 38.6562 209.083 42.3098 201.733C45.6428 195.024 41.0278 192.588 36.8615 198.849C33.9984 203.143 31.0499 205.408 28.9134 204.938C23.5932 203.763 18.1449 183.615 17.7604 163.723C17.6963 160.347 17.6963 160.347 18.9996 159.941C23.8283 158.446 24.9607 153.147 20.8157 151.416C20.2388 151.181 20.2388 151.16 20.3884 149.857C20.7516 146.759 21.3712 135.136 21.5849 127.465C21.9267 114.752 20.132 110.095 14.3418 108.599C13.2308 108.321 13.2308 108.321 12.8889 106.398C12.3548 103.343 11.3292 102.424 9.08581 102.916ZM12.1411 114.453C14.9614 114.923 15.346 116.163 15.3247 124.816C15.3033 130.157 14.6196 142.87 14.0427 148.767C13.9359 149.835 13.9359 149.835 12.1839 149.835C10.4319 149.814 10.4319 149.814 10.0686 145.541C8.27391 124.602 7.78249 115.928 8.33801 114.945C8.74396 114.261 9.96181 114.09 12.1411 114.453Z" fill="black"/>
<path d="M43.0116 112.512C34.5721 115.247 30.7476 122.106 33.9525 128.857C36.3455 133.899 41.0887 131.742 39.2726 126.421C38.2257 123.345 38.8239 121.593 41.7297 119.328C44.3577 117.255 44.7636 117.255 46.1738 119.435C48.5881 123.088 48.7163 123.516 48.5668 126.956C48.4599 129.391 49.3146 130.545 51.2589 130.545C55.5107 130.545 56.5149 123.922 53.075 118.687C49.2077 112.79 46.7934 111.294 43.0116 112.512Z" fill="black"/>
<path d="M41.8576 127.376C40.7679 128.466 40.6184 131.948 41.4944 135.858C41.6653 136.628 41.6653 136.628 40.6611 136.756C34.6359 137.546 33.6958 141.499 35.8538 156.754C36.8366 163.698 37.5417 170.022 37.7767 173.954C37.8408 175.129 37.9476 176.582 38.0117 177.201C38.1186 178.184 38.0758 178.312 37.6485 178.441C36.0461 178.953 34.5291 181.496 34.871 183.077C35.4906 185.769 37.8836 186.966 43.2891 187.243C45.618 187.372 45.8103 187.414 45.8958 187.82C45.9385 188.077 46.0881 189.081 46.2376 190.085C49.1434 210.767 61.9202 224.933 69.9751 216.408C75.4021 210.639 79.2479 188.162 75.5302 183.782C72.8168 180.556 70.7229 182.97 70.2315 189.871C69.2059 204.379 67.3044 211.942 64.3986 213.16C61.151 214.506 54.378 202.071 51.8568 190.149C51.109 186.624 51.0663 186.795 52.7969 186.474C60.4887 185.064 63.2449 179.082 57.1769 176.924C56.1514 176.56 56.1514 176.56 56.1087 171.839C55.8736 146.328 54.1003 138.145 48.6092 136.841C47.4982 136.563 47.4982 136.563 47.4982 135.26C47.4982 133.807 47.0282 130.773 46.5367 129.043C45.853 126.692 43.4173 125.816 41.8576 127.376ZM46.7077 142.46C48.8015 143.037 49.5066 149.404 49.6134 168.762C49.6348 175.984 49.6348 175.984 48.5665 175.984C47.9683 175.984 46.7931 176.09 45.9599 176.219C44.0369 176.518 44.1651 176.817 44.0156 171.753C43.8233 166.027 43.4173 162.224 41.8362 151.712C41.0243 146.413 40.8748 143.315 41.3876 142.888C42.0713 142.311 45.2761 142.055 46.7077 142.46Z" fill="black"/>
<path d="M147.021 148.062C144.799 149.899 146.979 153.275 150.077 152.784C152.427 152.399 152.534 149.322 150.248 148.019C149.179 147.4 147.769 147.421 147.021 148.062Z" fill="black"/>
<path d="M26.6265 148.406C23.8703 149.282 22.8874 151.846 24.7676 153.192C26.3701 154.367 31.156 152.743 31.6688 150.863C32.3525 148.385 30.1091 147.274 26.6265 148.406Z" fill="black"/>
<path d="M180.566 162.893C178.408 163.256 177.681 166.29 179.327 168.17C180.801 169.837 180.801 170.649 179.348 170.649C177.767 170.649 176.57 172.038 176.912 173.469C177.532 176.076 182.809 176.14 185.245 173.597C189.027 169.645 185.715 162.017 180.566 162.893Z" fill="black"/>
<path d="M5.19538 170.962C-1.59897 174.637 -0.573411 183.141 6.69099 183.141C8.1225 183.141 8.65665 183.055 9.23353 182.713C11.8615 181.154 11.1137 177.692 8.1225 177.692C6.26367 177.692 6.60553 176.731 9.08397 174.851C12.4384 172.351 8.99851 168.932 5.19538 170.962Z" fill="black"/>
<path d="M86.382 189.021C84.8864 189.363 84.5659 190.239 83.9249 195.752C83.7326 197.269 83.3053 200.495 82.9421 202.909C80.7628 217.844 80.5064 220.152 80.6559 224.638C81.2542 242.287 98.1332 241.112 98.2187 223.421C98.2614 214.511 92.984 206.029 89.6296 209.597C88.3904 210.922 88.4758 212.268 90.0355 216.156C92.984 223.463 92.4926 231.54 89.0954 231.54C86.7025 231.54 86.4888 225.173 88.3904 210.174C90.762 191.308 90.4629 188.103 86.382 189.021Z" fill="black"/>
<path d="M175.434 190.241C173.682 191.331 174.003 195.476 175.969 197.527C179.921 201.672 187.186 198.339 186.267 192.805C185.754 189.792 181.887 189.707 180.99 192.698C180.541 194.215 179.494 193.873 179.216 192.121C178.938 190.198 177.016 189.258 175.434 190.241Z" fill="black"/>
<path d="M9.14639 197.547C3.78355 200.816 5.70648 209.17 11.8171 209.191C17.0518 209.191 18.4833 204.235 13.4196 203.679C11.7103 203.487 11.6462 203.359 12.5222 201.906C13.6332 200.111 13.676 198.808 12.6504 197.803C11.8599 196.991 10.236 196.885 9.14639 197.547Z" fill="black"/>
<path d="M161.251 200.942C160.567 201.519 160.311 202.139 160.311 203.271C160.289 205.664 157.533 206.433 155.738 204.553C152.79 201.498 149.222 205.728 151.85 209.168C155.717 214.232 165.93 211.006 165.93 204.724C165.93 201.562 163.174 199.34 161.251 200.942Z" fill="black"/>
<path d="M133.753 210.025C132.941 210.773 132.535 211.884 132.535 213.38C132.514 215.58 130.783 217.546 130.228 215.965C129.01 212.461 124.865 214.298 125.677 217.995C127.194 224.768 136.723 223.208 138.838 215.858C140.12 211.414 136.573 207.355 133.753 210.025Z" fill="black"/>
<path d="M34.98 214.123C34.2321 214.7 33.7835 215.661 33.4202 217.435C32.8647 220.041 31.9246 219.999 30.7068 217.328C28.8907 213.354 24.7457 214.871 25.814 219.101C28.2283 228.78 40.5137 226.387 39.2745 216.473C38.9754 213.952 36.732 212.734 34.98 214.123Z" fill="black"/>
<path d="M105.87 215.259C104.439 216.584 104.161 219.959 105.293 222.246C107.473 226.711 113.733 227.801 117.579 224.425C121.66 220.835 118.839 216.819 114.032 219.361C111.34 220.793 109.887 220.066 109.887 217.331C109.887 214.874 107.558 213.678 105.87 215.259Z" fill="black"/>
<path d="M52.0507 218.059C51.1747 218.614 50.1492 220.751 49.7219 222.93C48.5254 229.233 53.5464 234.318 58.3537 231.648C62.3064 229.468 61.2594 224.554 57.0717 225.537C55.7898 225.815 55.7043 225.751 55.4907 224.298C55.4052 223.721 55.4693 222.781 55.7043 221.798C56.4094 218.529 54.5078 216.563 52.0507 218.059Z" fill="black"/>
<path d="M72.7325 225.173C72.3479 225.558 71.8992 226.327 71.6855 226.883C71.2796 228.058 70.9804 228.165 70.4249 227.331C67.2841 222.631 62.9041 225.707 65.7672 230.6C69.2071 236.454 77.5398 234.382 77.4757 227.673C77.4329 224.917 74.4845 223.379 72.7325 225.173Z" fill="black"/>
</svg>
