<svg width="277" height="247" viewBox="0 0 277 247" fill="none" xmlns="http://www.w3.org/2000/svg">
<path d="M135.701 1.14585C132.261 2.4278 130.487 5.39766 129.953 10.7178C129.718 13.1748 129.718 13.1748 127.795 13.3458C122.347 13.7945 120.681 14.585 119.441 17.2344C117.048 22.3408 124.697 34.2416 129.227 32.4896C131.043 31.7632 130.872 29.9257 128.671 26.2294C125.36 20.717 125.296 20.2042 127.859 20.0333C134.376 19.5846 136.256 18.0035 137.303 12.1066C138.115 7.59835 138.628 7.66245 140.273 12.4911C143.2 21.0589 148.948 18.4736 146.832 9.54265C145.401 3.47473 140.102 -0.520688 135.701 1.14585Z" fill="black"/>
<path d="M216.144 5.01676C209.2 6.59783 206.188 17.2167 210.91 23.4128C212.149 25.0366 215.503 24.9084 215.503 23.2419C215.503 23.0709 215.61 22.8573 215.717 22.7932C216.016 22.6009 215.973 21.6394 215.589 20.1011C214.649 16.4048 215.995 11.7897 218.024 11.7897C218.986 11.7897 219.712 12.7726 220.952 15.8279C223.323 21.6181 225.246 23.2632 231.741 25.1434C238.258 27.045 238.429 27.6005 233.835 32.4506C230.758 35.6768 229.968 37.5143 230.994 39.0526C233.664 43.1335 243.792 35.3563 244.475 28.6902C245.031 23.4342 241.506 20.1438 232.767 17.7936C228.964 16.768 228.814 16.6398 226.827 12.5162C223.815 6.27734 220.567 4.01256 216.144 5.01676Z" fill="black"/>
<path d="M66.2207 18.1344C64.8319 19.3523 61.627 29.5865 61.6057 32.941C61.5843 35.9536 63.1868 38.2397 65.8789 39.0303C67.3317 39.4576 68.2932 39.3507 70.9426 38.4747C73.186 37.7269 73.0364 37.6628 72.78 39.2866C72.3955 41.701 73.0151 43.5812 75.1089 46.2733C76.6473 48.2603 76.69 48.5381 75.5362 49.9269C71.2631 55.076 77.0959 59.0074 82.0315 54.3282C85.3645 51.1874 85.3645 46.8288 82.0315 42.171C81.0486 40.7823 81.0486 40.7823 81.3478 38.838C82.6083 30.6762 78.4634 27.3218 70.6862 30.2061C69.2119 30.7617 69.2547 30.9967 69.8102 26.5953C70.6648 19.63 70.2161 17.7712 67.6736 17.7712C67.0112 17.7712 66.4985 17.8994 66.2207 18.1344Z" fill="black"/>
<path d="M46.3285 21.7207C39.6837 23.1736 37.6539 29.0278 42.0767 33.9206C43.0595 35.0103 43.0595 35.0103 42.3117 35.7367C37.0557 40.8218 39.6196 48.4708 47.119 50.1587C52.3323 51.3338 54.6612 46.2701 50.4307 42.937C48.7856 41.6551 48.7856 41.8046 50.2598 40.1594C53.3792 36.6554 53.2938 34.1984 49.8752 30.673C47.5036 28.2159 48.4864 27.6818 53.7638 28.4723C57.2678 29.0065 59.3403 26.8271 57.631 24.4128C56.1995 22.4044 49.9821 20.9302 46.3285 21.7207Z" fill="black"/>
<path d="M198.027 23.2819C192.622 25.2262 192.75 28.8156 198.54 37.3406C206.211 48.6432 213.411 51.0575 219.821 44.4341C223.795 40.3105 221.722 35.5245 217.406 38.8576C213.368 41.9557 211.189 41.1224 206.98 34.8622C205.997 33.3879 204.865 31.7855 204.459 31.2941C203.561 30.1617 203.497 30.2258 205.313 30.2472C208.283 30.2899 209.95 28.1319 208.625 25.9526C207.258 23.6665 201.19 22.1495 198.027 23.2819Z" fill="black"/>
<path d="M102.159 25.4639C94.7019 27.1518 91.9884 30.8267 91.5825 39.7791C91.4329 42.9839 91.2406 44.5009 90.8347 46.2957C90.0014 49.821 90.0014 49.9065 90.4287 51.103C91.4756 54.0301 94.6592 54.5429 96.988 52.1285C99.5519 49.5005 100.428 46.082 100.214 39.6722C100.043 35.1427 100.129 34.8008 101.432 33.7111C103.355 32.0873 106.368 31.1472 109.017 31.3395C111.282 31.5105 112.136 31.0831 112.371 29.6303C112.948 26.1263 108.034 24.1179 102.159 25.4639Z" fill="black"/>
<path d="M169.46 28.5388C168.755 28.7097 166.939 29.2866 165.422 29.8208C162.26 30.9532 161.64 30.9959 158.051 30.3763C148.308 28.667 141.813 33.2393 142.667 41.1874C143.522 49.0714 149.953 49.9261 150.316 42.213C150.551 37.7689 151.235 37.3843 157.217 38.2817C161.726 38.9654 163.2 38.8372 167.601 37.4056C171.96 35.9741 173.733 35.9314 176.318 37.2134C178.519 38.2817 180.463 40.8242 180.463 42.6189C180.463 44.4137 182.557 45.4179 184.566 44.5846C185.378 44.2641 186.125 42.1489 186.125 40.3114C186.061 32.6197 177.622 26.6586 169.46 28.5388Z" fill="black"/>
<path d="M118.842 40.9767C110.21 43.0705 106.77 54.0099 110.937 66.1243C114.291 75.8458 126.406 91.2933 130.273 90.7805C133.2 90.396 133.114 87.7252 130.059 83.3666C119.803 68.8378 115.787 55.5268 120.103 50.5058C124.803 45.1003 135.23 59.565 139.631 77.5978C143.477 93.3445 144.161 108.856 141.96 129.517C140.785 140.713 141.276 143.106 144.737 142.849C151.681 142.358 154.096 108.856 149.032 82.9393C143.498 54.6295 131.469 37.9213 118.842 40.9767Z" fill="black"/>
<path d="M225.544 49.5015C217.639 51.6381 208.387 62.8338 211.742 66.1883C213.344 67.7907 215.139 67.0856 217.575 63.9235C220.737 59.8212 225.16 56.6591 227.766 56.6591C228.599 56.6591 228.706 56.8514 229.71 60.5049C231.27 66.1455 233.962 68.7735 236.676 67.3207C238.556 66.3378 238.748 64.5217 237.488 59.4366C235.415 50.9544 231.676 47.8563 225.544 49.5015Z" fill="black"/>
<path d="M171.706 51.7625C162.348 52.959 156.023 70.244 158.01 89.1314C158.908 97.6564 159.335 98.7461 161.856 98.7461C163.886 98.7461 164.335 97.4428 164.869 90.0288C166.065 73.5771 168.095 65.1162 171.855 60.9285C173.244 59.3688 173.415 59.5183 175.445 64.3897C178.799 72.4233 182.517 73.5771 189.76 68.8125C195.7 64.9025 195.721 64.9025 195.764 69.133C195.849 76.8461 201.255 77.4443 203.028 69.9662C205.678 58.8987 196.832 54.2623 186.748 61.4199C184.355 63.1078 183.5 63.6206 183.35 63.4496C183.286 63.3856 182.645 61.9754 181.962 60.3089C179.163 53.5786 176.278 51.1643 171.706 51.7625Z" fill="black"/>
<path d="M7.46442 56.6349C-0.39823 58.8784 0.605967 65.4163 10.9684 79.1973C14.6006 84.0474 16.4381 86.6967 18.1046 89.4102C21.3095 94.7089 25.2622 95.1149 25.7109 90.2007C25.9886 87.1882 23.7025 82.8936 18.1474 75.9924C12.8273 69.3904 10.3915 65.7795 10.3915 64.4976C10.3915 64.1985 12.2076 64.4548 13.8315 64.989C19.1088 66.741 25.369 70.9501 28.6166 74.9028C32.377 79.4751 37.0989 77.5949 34.4923 72.5739C29.514 63.0447 15.0066 54.477 7.46442 56.6349Z" fill="black"/>
<path d="M48.4645 57.9601C36.115 59.5625 36.115 72.0188 48.4859 82.9582C58.0792 91.4618 75.7701 100.735 79.0391 98.9826C81.368 97.7434 80.7056 94.859 77.6931 93.1283C58.3783 82.1676 47.0116 72.4034 47.3962 67.0833C47.674 63.1093 60.3653 65.7159 69.1467 71.5701C78.6332 77.8731 83.355 84.7315 88.9101 100.243C95.0422 117.357 100.918 127.356 110.255 136.693C119.698 146.116 128.245 150.004 127.86 144.706C127.732 142.932 127.048 142.078 122.668 138.274C110.874 128.019 104.272 118.596 98.3539 103.555C97.4779 101.311 96.1104 97.8716 95.3199 95.8632C89.6152 81.3985 83.12 72.8094 72.608 65.8441C65.429 61.0581 54.7461 57.2336 50.0456 57.7464C49.9174 57.7678 49.2123 57.8533 48.4645 57.9601Z" fill="black"/>
<path d="M232.914 72.4836C197.318 74.8766 172.384 93.6786 158.518 128.548C154.501 138.632 154.031 142.393 156.659 143.504C158.902 144.444 159.864 143.589 161.423 139.273C175.503 100.409 201.976 80.3249 239.152 80.2608C246.502 80.2608 246.011 80.1326 245.284 81.7564C239.516 94.3623 267.056 102.994 273.21 90.5164C278.402 79.9403 257.954 70.7957 232.914 72.4836ZM258.296 82.6324C262.078 83.8717 266.351 86.2646 266.351 87.2047C266.351 88.6149 258.852 88.5294 255.668 87.0765C253.104 85.9014 252.976 85.2818 254.771 82.8675C255.69 81.671 255.348 81.6923 258.296 82.6324Z" fill="black"/>
<path d="M227.467 94.4061C219.369 95.7735 206.742 103.529 206.742 107.14C206.742 109.619 209.221 109.832 212.725 107.674C219.156 103.7 225.566 101.094 229.112 101.03C231.227 100.965 231.163 100.88 231.334 105.11C231.548 110.388 232.061 112.567 233.663 114.853C238.364 121.712 244.838 119.02 241.184 111.734C240.03 109.448 239.817 108.828 239.517 106.969C238.727 101.713 238.535 100.795 238.129 99.7049C236.526 95.4103 232.723 93.5088 227.467 94.4061Z" fill="black"/>
<path d="M112.328 98.5324C105.982 101.481 107.371 111.245 115.447 120.475C117.648 122.996 120.725 123.723 121.579 121.928C122.37 120.262 122.007 118.766 119.934 115.155C118.032 111.865 116.11 107.271 116.451 106.908C117.242 106.117 123.951 113.061 125.276 116.052C126.814 119.492 130.467 118.403 130.467 114.493C130.467 106.246 118.46 95.6694 112.328 98.5324Z" fill="black"/>
<path d="M43.8281 104.111C26.0303 105.158 17.3344 112.145 20.9239 122.464C22.2059 126.118 22.2486 126.054 16.5866 130.284C5.90368 138.254 1.28865 144.3 0.839965 150.902C-0.1215 164.833 21.2658 170.003 30.8377 158.167C33.3802 155.026 34.363 151.971 35.1749 144.792C35.6877 140.07 36.0937 138.125 37.2902 134.365C38.7858 129.665 38.2303 127.378 35.5595 127.378C31.5214 127.378 28.231 133.981 27.0559 144.471C26.0303 153.765 23.6801 156.5 16.8003 156.5C5.94641 156.522 7.48476 149.065 20.6675 138.019C29.8976 130.284 30.9872 127.87 28.4447 121.011C27.3978 118.255 27.4191 117.315 28.5515 116.247C32.9956 112.016 50.4516 109.709 59.7885 112.123C63.5702 113.106 65.5359 111.845 64.6812 109.025C64.0189 106.782 58.2501 104.624 51.7335 104.196C47.8449 103.961 46.7553 103.94 43.8281 104.111Z" fill="black"/>
<path d="M214.329 118.958C208.154 119.578 204.009 120.368 199.907 121.736C190.912 124.705 184.31 130.068 183.733 134.854C183.37 137.952 186.916 138.978 188.754 136.286C194.587 127.825 216.551 124.364 237.084 128.701C260.565 133.658 276.632 147.14 263.791 151.114C256.548 153.357 248.108 150.174 241.827 142.824C239.818 140.452 237.618 139.897 234.071 140.837C226.593 142.781 224.05 141.392 222.213 134.299C221.23 130.538 220.375 128.957 219.008 128.444C213.068 126.18 211.722 137.525 217.085 144.618C220.418 149.041 226.166 150.75 233.515 149.511C235.823 149.105 235.823 149.105 236.592 150.045C251.911 168.484 286.268 158.186 273.491 138.978C265.436 126.885 235.759 116.843 214.329 118.958Z" fill="black"/>
<path d="M56.6914 120.221C51.7132 121.588 51.0936 126.161 55.2813 130.882C57.0333 132.891 57.076 132.677 54.8113 134.493C47.8887 140.07 46.0085 144.514 48.9356 148.381C51.7987 152.141 56.8196 152.483 67.118 149.599C74.1901 147.612 74.767 147.633 78.8479 150.069C89.0394 156.18 96.1329 151.073 93.9322 139.215C92.8639 133.574 92.7998 134.45 94.4877 132.143C96.7098 129.088 93.0562 125.925 89.4667 127.784C85.5568 129.814 84.5312 133.019 85.685 139.621C86.7533 145.774 86.7105 145.817 82.2878 142.954C76.7967 139.429 74.1046 139.172 65.3019 141.416C57.5247 143.403 57.6956 143.424 60.4305 140.796C64.96 136.437 65.9215 133.895 64.3618 130.455C63.6995 129.002 63.6354 129.024 67.5881 130.156C71.1134 131.16 72.7586 131.801 74.6388 132.848C77.1386 134.237 79.2538 133.788 79.8093 131.737C81.2195 126.631 64.1695 118.17 56.6914 120.221Z" fill="black"/>
<path d="M106.004 151.733C93.5048 152.267 91.1118 152.929 91.475 155.792C91.7741 158.164 92.2869 158.292 101.773 158.57C116.708 158.976 126.707 159.425 142.753 160.386C193.219 163.42 193.946 163.484 197.236 164.852C201.445 166.625 194.907 183.675 181.981 204.678C164.44 233.18 143.629 243.628 117.883 236.855C92.7356 230.253 76.8821 206.536 74.4891 171.817C74.0618 165.856 73.3354 164.189 70.921 163.741C63.8489 162.459 63.9344 182.521 71.0919 200.789C80.2579 224.142 97.5002 240.081 118.717 244.76C150.06 251.682 176.383 234.227 197.663 192.435C206.359 175.364 208.111 164.681 203.005 159.873C199.757 156.797 195.42 155.899 178.541 154.724C140.061 152.075 118.695 151.199 106.004 151.733Z" fill="black"/>
<path d="M209.711 160.92C206.891 162.437 208.002 165.514 211.763 166.582C216.378 167.907 218.215 170.92 219.369 179.081C219.604 180.791 219.946 183.205 220.117 184.487C221.804 196.644 229.005 203.951 238.769 203.374C245.927 202.968 249.794 199.144 253.212 189.123C255.969 181.047 257.122 179.893 263.105 179.295C273.189 178.248 271.181 171.262 260.797 171.304C252.336 171.347 248.085 175.278 244.346 186.581C241.974 193.781 240.585 195.191 236.654 194.508C231.654 193.61 229.432 190.256 227.488 180.534C225.351 169.958 223.215 165.685 218.493 162.651C215.843 160.942 211.314 160.044 209.711 160.92Z" fill="black"/>
<path d="M48.487 161.178C44.8975 163.699 36.3939 182.202 34.1932 192.201C30.0268 211.153 45.4957 215.426 53.8498 197.65C58.1657 188.484 58.593 178.869 54.6831 178.869C52.6319 178.869 51.3286 180.813 49.5766 186.454C47.3332 193.74 45.0043 198.333 42.6541 200.192C42.0131 200.683 42.0131 200.683 42.0131 198.547C42.0131 191.646 45.7094 178.997 50.8799 168.207C52.9952 163.785 53.2088 162.631 52.1405 161.37C51.4141 160.494 49.5766 160.409 48.487 161.178Z" fill="black"/>
<path d="M85.2796 183.335C80.7501 184.168 79.9382 188.035 82.5448 196.261C87.5658 212.179 105.235 220.853 132.605 220.832C153.052 220.832 165.167 216.238 176.982 204.017C184.011 196.731 185.87 192.052 182.943 189.018C180.807 186.817 178.414 186.582 161.171 186.967C125.853 187.736 121.538 187.608 105.257 185.365C91.4544 183.463 86.9889 183.014 85.2796 183.335Z" fill="black"/>
</svg>
