<svg width="176" height="308" viewBox="0 0 176 308" fill="none" xmlns="http://www.w3.org/2000/svg">
<path d="M126.511 0.560881C124.972 1.11639 119.204 7.46206 117.024 11.0088C114.14 15.6879 113.841 21.008 116.341 23.5719C118.947 26.2427 122.665 24.1275 121.276 20.773C120.315 18.4655 122.195 14.3205 126.041 10.1969C127.814 8.3167 127.814 8.3167 129.203 10.0046C132.6 14.0641 133.604 16.2434 133.861 20.132C134.202 24.9821 137.258 26.9478 139.928 23.9993C143.069 20.5166 141.403 14.8974 134.843 6.75699C133.711 5.36821 132.258 3.53074 131.638 2.6761C130.015 0.51815 128.455 -0.122827 126.511 0.560881Z" fill="black"/>
<path d="M45.0433 2.24753C42.6931 3.10216 37.5439 8.89232 35.6637 12.7595C32.4161 19.5325 34.0613 27.5234 38.5481 26.626C40.1292 26.3055 40.5351 25.2159 40.1933 22.1392C39.8728 19.2334 42.5222 13.5928 45.3425 11.1144C46.4108 10.1956 51.1326 17.1182 51.8591 20.6436C53.1624 27.0747 58.7816 26.4764 58.7816 19.9171C58.7816 16.7122 57.6278 14.597 53.4401 10.0888C50.8335 7.26851 50.1925 6.34978 49.8934 4.98236C49.402 2.69621 47.2013 1.47836 45.0433 2.24753Z" fill="black"/>
<path d="M84.3783 15.4307C81.558 16.0931 75.6397 24.0198 74.2295 28.9981C72.3707 35.6215 76.2166 44.3815 80.5966 43.5055C82.84 43.0568 83.1178 41.0698 81.4085 37.7367C79.336 33.6986 79.977 29.8741 83.5664 24.9813C84.7629 23.3361 84.7629 23.3361 87.3696 25.7291C93.758 31.6475 94.6126 33.0362 94.5058 37.4376C94.4417 40.1938 94.869 41.1125 96.3219 41.4971C100.168 42.5441 102.454 36.6471 100.275 31.2629C99.0994 28.3357 97.6466 26.6051 91.3864 20.6654C90.4035 19.7253 89.2284 18.3579 88.7583 17.6314C87.5619 15.7299 86.1303 15.0034 84.3783 15.4307Z" fill="black"/>
<path d="M127.579 21.9701C126.617 22.9315 126.126 25.3672 126.233 28.8499C126.275 30.8369 126.275 30.8369 124.545 31.542C116.084 34.9391 114.952 41.9044 118.626 67.5649C121.126 84.9353 121.703 87.0078 124.096 87.0078C126.959 87.0078 127.109 85.4908 125.549 72.9063C121.96 43.9556 122.002 39.4046 125.998 37.3962C130.527 35.1101 135.634 35.2169 136.702 37.6099C137.77 40.0029 138.262 53.0361 137.706 64.5736C136.873 82.2005 137.3 84.7644 140.89 83.867C143.368 83.2688 143.518 82.3714 143.924 67.2444C144.757 35.2596 143.219 29.79 133.305 29.7472C132.279 29.7472 132.301 29.8113 132.066 26.7133C131.702 22.3119 129.544 20.0258 127.579 21.9701Z" fill="black"/>
<path d="M45.2565 23.9329C44.3164 24.8302 44.1027 27.8428 44.701 31.6887C44.8291 32.4579 44.8078 32.4792 44.0172 32.7356C36.7315 35.1072 35.7273 38.6112 36.2401 60.084C36.8597 86.3213 36.7742 85.5307 39.1245 86.0008C42.7139 86.6845 42.8635 85.8085 43.0771 60.8318C43.2481 38.6326 43.0344 40.1282 46.1752 38.9531C50.1279 37.4788 52.6704 37.9062 53.4396 40.1923C54.6147 43.7818 54.5506 62.0283 53.3114 78.245C52.9482 83.0096 53.6105 84.5479 55.9821 84.5265C59.0161 84.4838 59.5289 82.5181 60.1912 68.203C61.4945 40.2564 59.9562 33.2057 52.2004 31.881C51.0039 31.6673 50.7475 31.5391 50.662 31.1545C50.6193 30.9195 50.3843 29.7017 50.1493 28.4624C49.5083 25.1935 49.2946 24.5952 48.5895 23.9329C47.6708 23.0782 46.1752 23.0782 45.2565 23.9329Z" fill="black"/>
<path d="M87.7767 41.6869C87.3921 42.0715 87.093 42.6483 87.0289 43.1611C86.687 45.2122 86.4306 49.4213 86.5588 50.6392C86.687 51.8143 86.6443 51.9852 86.3025 52.0921C79.444 54.3355 77.7988 58.5659 77.7988 73.9707C77.8202 83.799 77.8843 85.3374 78.8671 97.3236C79.1662 100.828 79.4013 104.524 79.4013 105.55C79.4226 110.656 80.5337 112.429 83.2044 111.596C85.5546 110.891 86.0674 104.31 85.0632 87.9654C83.7385 66.4927 84.5718 59.506 88.6313 57.989C93.9514 56.002 94.1651 56.6216 94.2719 74.7185C94.5283 110.57 94.4642 110.165 98.4596 110.165C100.981 110.165 101.558 108.519 101.216 102.174C101.066 99.6525 100.874 90.3156 100.767 81.4488C100.468 55.7456 99.6775 52.3484 93.7378 51.4083C93.2464 51.3229 92.8618 51.2588 92.8618 51.2374C92.8618 51.0238 92.1567 45.2336 91.9858 43.9944C91.5798 41.1741 89.4646 40.0203 87.7767 41.6869Z" fill="black"/>
<path d="M8.78484 55.0218C7.82337 55.4705 6.69098 56.8379 6.1141 58.2695C5.83635 58.9745 4.83215 61.3248 3.87068 63.5041C-0.765714 73.952 -0.872543 79.379 3.4861 83.7376C6.96874 87.2202 10.9214 84.2504 8.33615 80.1054C6.60552 77.3492 7.0542 74.7639 10.4727 67.5636C11.5624 65.2775 12.5239 63.2263 12.6093 63.0127C12.8657 62.2222 16.3697 65.2561 17.9508 67.6491C19.19 69.5293 19.5746 71.0035 19.7669 74.6571C19.9806 78.9089 20.6643 79.9558 23.1427 79.9558C27.1381 79.9558 28.2705 73.3965 25.3007 67.4568C21.8394 60.5983 12.3316 53.4194 8.78484 55.0218Z" fill="black"/>
<path d="M157.598 61.7064C155.632 62.5611 149.394 69.4836 148.176 72.1757C145.74 77.5599 147.791 86.1704 151.594 86.4054C154.414 86.555 155.419 84.7602 154.244 81.6622C152.833 77.9018 153.774 74.355 157.149 70.7656C159.136 68.6503 158.73 68.5221 161.123 72.0903C163.687 75.8506 164.563 78.0941 164.841 81.5981C165.097 84.803 166.593 86.79 168.345 86.2558C168.495 86.2131 168.858 86.1276 169.178 86.0635C174.157 84.9739 172.533 77.0471 165.226 66.706C161.401 61.3005 160.247 60.5527 157.598 61.7064Z" fill="black"/>
<path d="M12.3963 81.3376C11.4776 82.3205 11.4135 82.876 11.3708 89.243C11.3494 94.4349 11.3494 94.4349 10.2597 94.7768C4.19183 96.6997 3.12354 102.191 3.76451 128.129C4.12773 142.295 4.61915 144.687 7.24715 144.687C9.91789 144.687 9.91789 144.752 10.0675 127.595C10.3025 99.9901 10.217 100.417 15.9003 100.375C19.5112 100.332 19.7248 102.383 19.148 129.838C18.9129 141.718 19.2121 143.192 21.9896 143.192C24.7672 143.192 25.1518 141.718 25.5577 128.877C26.4765 100.524 25.4936 95.5673 18.6352 94.1785C17.3319 93.9008 17.3319 93.9008 17.2891 92.2129C16.9473 81.6795 15.3876 78.1755 12.3963 81.3376Z" fill="black"/>
<path d="M158.709 84.1883C157.812 85.0216 157.534 86.6026 157.513 90.769C157.491 94.2089 157.491 94.2089 156.337 94.8285C150.44 97.9052 149.223 104.08 149.543 129.099C149.714 141.684 149.906 142.88 151.893 143.436C155.654 144.461 155.803 143.479 156.53 114.25C156.829 102.392 157.064 101.388 159.713 99.9991C163.025 98.2684 164.606 99.9991 165.803 106.665C166.807 112.242 167.191 117.733 167.426 129.74C167.683 143.692 168.003 144.91 171.336 144.91C174.541 144.91 174.862 143.18 174.157 129.698C172.811 103.759 170.054 93.6961 164.307 93.632C164.179 93.632 163.965 92.756 163.816 91.645C162.811 84.1456 161.23 81.8381 158.709 84.1883Z" fill="black"/>
<path d="M43.9325 89.4593C36.7536 90.784 33.4846 93.3265 34.6384 96.7023C35.3434 98.7534 39.2534 100.655 42.8001 100.676C43.8684 100.676 43.9112 100.805 44.1462 104.544C45.5777 128.409 59.1664 145.288 81.2587 150.673C82.1561 150.908 82.1561 150.908 80.5323 152.446C79.6349 153.301 77.7547 155.33 76.3232 156.975C67.3709 167.381 59.4655 172.167 47.1374 174.666C30.6429 178.021 20.7719 173.406 17.1397 160.608C16.4133 158.108 16.3919 158.215 17.8234 158.044C30.5148 156.527 27.3526 145.545 14.3408 146.015C3.52964 146.421 -0.145292 154.561 9.23433 157.339C10.7513 157.787 10.7513 157.787 10.9009 159.561C13.3152 190.99 56.4316 192.251 82.0065 161.676C84.6559 158.492 86.878 156.249 88.0958 155.544C88.8436 155.117 88.9291 157.146 89.1214 181.974C89.506 231.158 89.6128 232.504 93.0741 232.504C95.7662 232.504 96.1935 230.56 95.8516 219.898C95.7234 216.074 95.5311 201.417 95.4243 187.315C95.3175 173.214 95.1679 159.967 95.0825 157.873C94.9115 153.45 94.7192 153.685 97.4968 154.818C99.8898 155.8 102.133 157.339 106.535 160.928C135.592 184.73 163.368 184.025 165.013 159.433C165.141 157.616 165.141 157.616 166.872 157.275C176.828 155.309 178.068 146.869 168.624 145.224C161.445 143.985 151.574 145.801 148.86 148.878C145.378 152.852 149.608 157.723 156.552 157.723C157.77 157.723 157.749 157.681 157.279 159.796C155.377 168.171 152.364 170.65 144.139 170.65C134.353 170.65 127.537 167.466 114.675 156.89C109.569 152.681 107.624 151.271 105.253 150.074C103.223 149.049 103.223 149.049 106.748 147.318C124.76 138.43 134.46 123.752 135.357 103.988C135.485 101.018 135.485 101.018 136.789 100.762C144.993 99.0953 146.361 92.3437 138.861 90.3994C131.725 88.5619 120.593 91.0617 119.012 94.8435C117.602 98.1766 121.683 101.317 127.388 101.317C127.9 101.317 127.9 101.317 127.9 104.394C127.9 122.106 119.098 133.644 98.266 143.28C94.9543 144.797 94.7833 144.861 94.6979 144.412C94.6551 144.156 94.5056 141.25 94.356 137.96C94.2278 134.67 94.0142 130.503 93.9073 128.687C93.6509 124.948 93.6723 124.82 94.5483 124.82C98.4155 124.82 101.791 121.423 100.659 118.688C98.095 112.556 76.836 113.945 76.836 120.248C76.836 123.388 79.2076 124.649 86.1515 125.162C88.0958 125.29 88.0958 125.29 88.2454 127.555C88.5231 132.383 88.3949 144.263 88.0531 144.263C84.9978 144.263 76.0027 141.549 71.6441 139.306C60.9184 133.794 53.3976 121.294 50.6841 104.415C50.4919 103.24 50.2996 101.98 50.2355 101.616C50.1286 100.975 50.1286 100.975 51.9447 100.612C56.9016 99.6722 59.5083 96.6169 58.1622 93.3692C56.8375 90.2285 50.0432 88.3483 43.9325 89.4593Z" fill="black"/>
<path d="M104.676 174.008C101.108 177.94 109.44 193.579 122.623 207.659C124.247 209.39 124.247 209.39 121.875 214.027C113.457 230.542 105.06 255.605 102.069 273.103C101.706 275.347 101.706 275.347 99.1421 275.496C94.1638 275.795 90.5743 276.116 87.3267 276.543C85.5106 276.757 83.9937 276.906 83.9509 276.864C83.8868 276.8 83.6304 275.731 83.3527 274.449C81.0879 263.702 68.9307 218.77 66.7086 212.809C66.0036 210.95 66.0036 210.95 66.5377 210.458C76.9002 200.865 87.4549 176.316 81.1947 176.316C79.9555 176.316 79.2504 177.17 78.3531 179.734C75.9387 186.635 69.3153 196.827 61.3458 205.907C58.4187 209.219 58.2264 210.031 59.5297 212.916C60.4271 214.881 61.8586 220.073 65.213 233.363C66.7941 239.644 69.7212 251.182 71.7083 259.002C73.6953 266.822 75.7251 274.898 76.1951 276.949C77.8403 284.043 78.6735 284.684 84.8269 283.701C91.0871 282.696 94.5057 282.44 100.232 282.568C105.83 282.696 106.171 282.632 107.218 281.521C108.009 280.667 108.244 279.94 108.244 278.274C108.265 267.548 121.576 227.743 130.037 213.172C132.516 208.899 132.409 207.809 129.225 204.326C122.196 196.677 116.128 188.11 111.556 179.414C109.547 175.568 108.992 174.735 108.03 174.094C106.898 173.346 105.317 173.325 104.676 174.008Z" fill="black"/>
<path d="M117.322 270.047C114.993 270.41 114.395 273.209 116.147 275.624C116.937 276.735 119.608 278.999 124.565 282.803C131.786 288.336 135.162 291.498 135.162 292.695C135.162 294.02 124.159 296.968 113.903 298.4C87.965 301.989 56.2367 299.959 50.9807 294.362C49.9979 293.315 54.5061 288.7 63.2661 281.82C71.9834 274.961 72.6884 274.192 72.1543 272.291C71.2355 269.086 65.4668 271.671 53.4164 280.709C31.2813 297.289 47.1135 308.292 91.8964 307.416C125.74 306.775 145.012 300.259 142.021 290.473C139.991 283.743 122.45 269.235 117.322 270.047Z" fill="black"/>
</svg>
