<svg width="113" height="93" viewBox="0 0 113 93" fill="none" xmlns="http://www.w3.org/2000/svg">
<path d="M37.0751 0.37171C28.6996 1.6323 19.1918 4.36713 13.1025 7.23016C-0.336594 13.5972 2.22731 22.464 18.0594 24.4083C18.5295 24.4511 20.2601 24.7075 21.9053 24.9425C25.1102 25.4125 29.7038 25.8612 35.6863 26.2885C47.4162 27.1432 84.6569 26.374 94.8698 25.0493C109.313 23.1905 114.398 18.3191 107.903 12.5289C99.784 5.2645 59.4238 -1.93581 55.7061 3.21337C54.0396 5.49952 56.0266 7.29426 60.4921 7.55065C76.6874 8.46938 91.1308 11.4392 99.8908 15.6483C102.134 16.7166 102.134 16.7166 97.6474 17.4858C73.8885 21.5453 6.00907 19.8147 11.3505 15.2851C15.4101 11.8452 28.1655 7.55065 40.6004 5.41406C43.5703 4.90128 44.8736 4.00391 44.8736 2.4442C44.8736 0.200783 42.4806 -0.440194 37.0751 0.37171Z" fill="black"/>
<path d="M53.8078 9.00496C50.2183 10.0305 45.3469 15.0515 45.8596 17.2095C46.4152 19.4529 48.5731 19.4529 51.2438 17.1667C55.3034 13.6841 55.5598 13.62 57.5895 15.5643C60.3457 18.2564 62.9096 17.9359 62.9096 14.9233C62.9096 11.3338 57.6536 7.93666 53.8078 9.00496Z" fill="black"/>
<path d="M3.14712 27.6784C2.05746 28.8321 1.67287 30.5841 0.9678 37.6776C-2.49347 72.9527 4.70683 84.9603 32.7175 90.6436C48.571 93.8699 71.9453 93.5921 87.9697 90.0026C105.126 86.1781 111.515 78.1873 112.37 59.4922C113.181 41.7798 108.908 26.8237 104.144 30.6909C102.776 31.7806 102.627 33.0626 103.396 37.293C106.601 54.8558 104.956 70.6451 99.3577 76.243C89.3798 86.2209 42.204 88.678 21.2868 80.2812C8.55269 75.1747 5.19825 64.2568 7.01435 33.8317C7.3562 27.9134 5.6042 25.1144 3.14712 27.6784Z" fill="black"/>
<path d="M42.7809 28.3846C40.8367 30.3289 42.61 39.4094 45.5371 42.5929C49.1053 46.4815 53.5707 43.6398 50.4727 39.4521C48.7634 37.1232 47.8447 34.6875 46.7123 29.4102C46.3491 27.7436 44.0202 27.1454 42.7809 28.3846Z" fill="black"/>
<path d="M63.2685 29.2588C62.2216 29.6862 61.9652 30.1776 61.2174 33.297C60.7687 35.1772 59.6791 37.3993 58.098 39.7281C54.5299 44.92 58.739 46.9925 63.0976 42.2066C68.3963 36.4164 68.5032 27.165 63.2685 29.2588Z" fill="black"/>
<path d="M52.3951 44.1922C50.2799 46.3074 50.814 54.4264 53.1215 55.0674C56.3691 55.9648 57.6297 52.0762 56.2623 45.41C55.8991 43.6367 53.6557 42.9316 52.3951 44.1922Z" fill="black"/>
<path d="M70.0876 46.2447C69.7885 46.2874 69.2329 46.3943 68.8484 46.4584C67.2246 46.7148 66.0494 48.4881 66.4767 50.0265C66.8827 51.5221 67.9724 51.9708 71.8182 52.2913C77.9502 52.804 77.6725 53.3595 70.5149 54.7911C58.5286 57.184 33.5946 58.0814 34.257 56.073C34.492 55.3679 40.4317 52.804 43.5511 52.0776C47.9525 51.0734 47.9953 47.1848 43.6152 47.1848C32.2059 47.1848 22.5912 56.1157 29.1505 60.6239C36.885 65.9441 75.5145 63.2947 82.4157 56.949C87.864 51.9708 79.339 44.5782 70.0876 46.2447Z" fill="black"/>
<path d="M78.3319 62.0104C77.4559 62.8864 77.0499 64.0616 76.5799 67.0314C75.9389 71.2191 75.4048 72.1806 73.1186 73.3344C64.1236 77.8426 43.5696 78.3553 35.8352 74.2745C33.1858 72.8643 31.8397 70.3218 31.3056 65.7281C30.921 62.2882 27.0965 62.1814 26.2846 65.5999C23.5711 76.8384 34.3609 83.6114 54.2739 83.184C74.0587 82.7781 82.9897 77.8639 83.6947 67.0528C84.0152 62.2882 80.9385 59.4252 78.3319 62.0104Z" fill="black"/>
</svg>
