<svg width="74" height="78" viewBox="0 0 74 78" fill="none" xmlns="http://www.w3.org/2000/svg">
<path d="M24.937 0.831989C21.3689 1.79345 20.1511 4.78468 21.5612 9.14332C22.48 12.0277 22.7364 11.75 17.2667 13.9079C4.85311 18.8007 0.857693 24.9327 6.1137 31.0861C6.62648 31.663 6.81878 32.0476 6.64785 32.1117C6.49829 32.1544 5.68638 32.6885 4.85311 33.2868C-5.10339 40.4657 2.86609 52.8152 14.19 47.7515C20.1084 45.1021 18.57 40.7435 12.2243 42.175C5.40863 43.7133 4.95994 40.3162 11.4552 36.6199C15.6215 34.2696 15.8993 32.2612 12.5235 28.7572C9.14766 25.2532 10.1091 24.014 19.4247 19.6553C27.3728 15.959 28.8256 14.0575 27.5651 9.07922C26.9241 6.55805 26.9027 6.60078 28.7402 7.45542C29.7871 7.94683 30.7699 8.7801 32.5219 10.7244C34.5517 12.9678 37.4575 11.9423 37.0729 9.12195C36.4319 4.40009 29.4239 -0.385866 24.937 0.831989Z" fill="black"/>
<path d="M47.4547 5.42651C41.3441 7.54174 35.1053 19.3998 39.3784 20.7886C41.0236 21.3227 41.9424 20.6604 43.2457 18.0538C44.9977 14.5284 46.7924 12.2636 48.7794 11.1098C50.1041 10.3407 50.0614 10.2338 50.2109 14.913C50.446 22.8397 51.792 24.0576 60.9366 24.6772C65.2312 24.9549 67.2182 25.3395 67.5814 25.9164C67.7523 26.2155 66.62 27.6898 63.9278 30.6383C59.3128 35.6806 59.0992 37.9454 62.8382 42.4963C64.5902 44.6115 64.6757 44.9107 63.7142 45.338C62.4322 45.8721 59.4196 45.5944 56.2789 44.6756C52.839 43.6501 49.5059 43.6074 48.8649 44.6115C46.7497 47.9446 56.2361 52.7947 63.0305 51.8332C70.4658 50.7863 72.4528 45.103 67.496 38.9282C66.3208 37.4753 66.214 37.2403 66.449 36.9198C66.62 36.7275 67.731 35.4669 68.9061 34.1423C73.8416 28.6726 74.7817 25.19 72.1323 22.1987C70.3162 20.1262 67.9874 19.4425 60.8939 18.9084C55.9797 18.5238 56.3002 18.8229 56.1507 14.4215C55.8729 6.51617 52.9671 3.52495 47.4547 5.42651Z" fill="black"/>
<path d="M34.3812 31.8941C28.9543 33.3256 26.3904 39.2653 29.6166 42.9403C33.8043 47.6835 40.4064 47.1707 42.9489 41.8933C45.6197 36.3168 40.4919 30.2917 34.3812 31.8941Z" fill="black"/>
<path d="M13.6747 55.4006C12.4995 56.6185 11.5381 60.6353 11.8158 63.1351C12.3927 68.733 16.7941 70.8482 23.8021 68.9252C28.7376 67.5792 28.1821 67.4083 29.7845 70.6132C34.1218 79.245 41.3007 80.1637 46.2576 72.707C47.4755 70.8695 47.2191 70.955 49.6762 71.6601C59.5686 74.5231 65.7647 70.6132 65.7861 61.5113C65.8074 54.6742 60.8719 54.2469 59.6968 60.9985C58.7353 66.4895 57.197 67.3655 51.2573 65.8272C45.9585 64.4598 44.3774 64.9298 41.5144 68.6689C38.6514 72.4079 37.9036 72.237 34.9978 67.1519C31.8998 61.7463 30.105 61.0626 23.5884 62.7932C17.7342 64.3529 17.0505 63.9256 17.8196 59.2251C18.482 55.0802 16.089 52.8581 13.6747 55.4006Z" fill="black"/>
</svg>
