<svg width="69" height="70" viewBox="0 0 69 70" fill="none" xmlns="http://www.w3.org/2000/svg">
<path d="M34.1617 1.07336C32.0465 1.65024 29.0552 4.08596 28.692 5.5602C28.5852 5.96615 28.457 6.05162 28.2006 5.94479C20.7866 2.67581 11.9412 8.06001 11.9412 15.8586C11.9412 16.6705 11.9412 16.6705 10.5524 16.9055C0.937733 18.5507 -3.44227 31.0924 3.26661 37.8227C7.56116 42.1172 16.428 43.1642 16.428 39.361C16.428 38.1646 14.9751 37.1176 11.7275 35.9852C3.07432 32.9726 4.44174 23.1871 13.6077 22.5034C17.4108 22.2256 18.0304 21.5633 18.0304 17.7601C18.0304 11.5854 22.7096 9.10694 27.5169 12.7391C30.4868 14.9826 33.0934 14.2775 33.713 11.0726C34.0762 9.1924 34.5463 8.06001 35.1018 7.71816C37.5802 6.09435 42.0243 8.48733 43.0499 11.97C43.9686 15.1535 47.6863 15.2176 48.1563 12.0341C49.1178 5.64567 40.956 -0.742736 34.1617 1.07336Z" fill="black"/>
<path d="M55.848 14.1326C50.592 15.3077 45.0582 19.0681 45.0582 21.4611C45.0582 23.8968 47.3871 24.4309 50.1006 22.5721C53.2414 20.4569 57.3436 19.0254 59.1597 19.4313C60.3776 19.6877 59.9289 21.2474 57.6 24.9437C55.3139 28.5759 55.8053 30.6057 59.4588 32.6568C64.5226 35.4771 64.1593 39.323 58.5828 42.1005C54.8652 43.9166 54.0746 45.455 55.3993 48.2539C58.1342 54.0441 49.9297 55.7106 44.46 50.4546C39.9732 46.1387 36.1914 48.4676 39.3108 53.6167C45.7633 64.3424 63.732 59.8342 61.4459 48.0616C61.2963 47.2283 61.2963 47.207 62.1937 46.6942C70.1204 42.2501 70.9964 32.8277 63.9243 28.3409C63.4329 28.0204 63.027 27.7213 63.0697 27.6572C63.091 27.5931 63.5611 26.6316 64.138 25.5206C67.8984 17.9784 63.8175 12.3378 55.848 14.1326Z" fill="black"/>
<path d="M31.7487 27.0135C27.8815 28.2314 26.1508 31.6072 27.3259 35.5812C28.8429 40.7945 38.6712 40.5595 41.0215 35.2394C43.2863 30.1543 37.6243 25.1333 31.7487 27.0135Z" fill="black"/>
<path d="M8.82069 48.999C7.90196 49.5545 7.30372 50.6014 6.79093 52.5671C5.20986 58.5922 9.65396 62.7586 16.3629 61.5407C17.5166 61.3271 18.5849 61.1348 18.7345 61.1348C18.884 61.1134 19.2045 61.6903 19.4823 62.4808C21.6616 68.8906 28.4132 71.8605 33.712 68.741C39.9722 65.0875 38.2629 59.1264 31.96 62.5663C27.9859 64.7029 25.3152 63.0577 24.6742 58.0367C24.2041 54.3404 22.1744 53.3362 18.4994 54.9814C13.5426 57.2035 11.3419 56.4343 12.282 52.8021C13.0939 49.6399 11.1923 47.5461 8.82069 48.999Z" fill="black"/>
</svg>
