<svg width="326" height="403" viewBox="0 0 326 403" fill="none" xmlns="http://www.w3.org/2000/svg">
<path d="M147.635 1.1404C146.31 2.33689 144.409 7.80655 144.729 9.51583C145.221 12.1011 148.618 12.2507 149.622 9.75085C152.421 2.78557 151.288 -2.17132 147.635 1.1404Z" fill="black"/>
<path d="M144.647 23.1477C142.126 25.2629 142.724 33.5743 145.437 34.0443C147.788 34.4289 148.493 33.2751 148.621 28.8097C148.771 23.4468 147.104 21.0752 144.647 23.1477Z" fill="black"/>
<path d="M146.547 44.6469C145.735 45.4588 145.778 44.9888 145.778 51.0353C145.778 53.7915 145.692 57.9365 145.586 60.2226C145.329 65.9273 145.65 66.9102 147.701 66.9102C149.453 66.9102 149.517 66.8247 150.735 60.4363C152.85 49.3901 150.542 40.6515 146.547 44.6469Z" fill="black"/>
<path d="M147.403 69.7435C145.8 70.8759 145.907 77.4352 147.552 79.0804C149.475 81.0033 151.655 79.2513 151.655 75.8114C151.655 70.534 149.903 68.0128 147.403 69.7435Z" fill="black"/>
<path d="M147.21 86.0495C146.078 87.1819 143.877 94.6814 143.621 98.2495C143.3 102.544 144.881 104.916 148.278 105.236C155.244 105.877 159.709 98.9332 156.568 92.3097C155.329 89.7031 152.338 89.1049 151.227 91.2628C150.821 92.032 150.778 92.0747 150.885 91.5192C151.868 86.5837 149.795 83.4856 147.21 86.0495ZM151.441 95.5574C151.996 97.1812 151.676 98.6768 150.586 99.4032C149.325 100.236 149.283 99.8519 150.095 95.4292C150.693 92.3097 150.693 92.3097 150.949 93.6131C151.099 94.3395 151.312 95.2155 151.441 95.5574Z" fill="black"/>
<path d="M120.478 89.8066C112.423 91.6227 108.855 102.797 114.41 108.737C118.94 113.565 126.418 110.425 129.751 102.306C130.434 100.596 130.434 100.596 131.994 102.455C137.442 108.972 140.925 116.877 143.404 128.308C143.895 130.615 143.895 130.615 141.951 128.693C129.195 116.023 112.402 136.042 111.547 164.908C110.671 195.14 128.405 202.725 131.353 173.39C132.55 161.703 129.772 152.515 123.213 146.448C121.674 145.016 121.653 145.166 124.003 140.551C130.541 127.752 137.507 128.735 142.763 143.221C146.929 154.738 147.805 169.266 145.326 186.274C144.322 193.175 143.51 197.341 139.259 216.827C134.729 237.659 133.832 258.448 137.336 261.802C138.618 263.02 141.331 262.272 141.417 260.67C141.417 260.477 141.459 256.161 141.502 251.119C141.523 246.055 141.63 241.504 141.694 240.97C141.78 240.436 141.929 239.133 142.057 238.086C142.677 232.445 143.788 226.42 146.63 213.408C150.412 196.081 151.971 187.235 152.655 179.116C152.826 177.193 152.826 177.193 153.531 181.039C157.954 204.755 156.928 221.891 149.365 250.329C147.677 256.653 147.784 258.127 149.92 258.554C152.57 259.089 153.873 256.631 157.206 244.923C164.363 219.711 164.684 203.259 158.616 172.386C157.74 167.856 156.629 162.045 156.159 159.459C155.689 156.874 154.77 151.768 154.108 148.135C152.399 138.841 152.42 139.846 153.98 139.525C154.706 139.375 156.351 138.884 157.655 138.435C160.026 137.623 160.026 137.623 159.898 138.243C158.894 143.264 159.214 149.524 161.159 162.237C162.312 169.865 162.868 174.159 163.295 179.009C164.064 187.855 164.663 193.816 165.026 196.529C165.197 197.875 165.859 202.063 166.5 205.823C169.449 223.258 170.346 239.197 169.149 252.529C168.743 257.102 170.132 258.96 172.611 257.187C174.94 255.52 176.67 234.561 175.41 222.916C174.982 219.006 174.363 214.712 173.337 208.58C172.055 200.995 171.457 196.743 170.56 188.944C169.641 180.911 169.427 179.287 168.103 170.57C163.317 139.098 164.94 129.91 175.367 129.483C183.101 129.163 187.823 134.354 189.319 144.866C189.447 145.678 189.447 145.678 188.528 145.678C177.525 145.678 172.739 161.105 182.354 165.613C197.181 172.535 200.536 136.171 185.964 126.663C181.926 124.035 173.786 123.159 170.389 124.996C168.508 126 173.273 114.933 176.649 110.446C181.264 104.314 189.832 99.7845 195.002 100.746C197.417 101.216 199.809 102.84 198.976 103.481C194.019 107.241 191.562 111.728 191.883 116.514C192.566 127.261 205.065 126.62 207.629 115.702C212.415 95.2122 191.156 87.0077 174.491 102.883C172.931 104.378 172.824 104.442 171.82 104.442C171.201 104.442 170.025 104.72 168.957 105.105C162.291 107.498 157.035 108.48 148.959 108.844C144.237 109.057 144.215 109.036 143.254 107.113C137.592 95.6609 127.721 88.1828 120.478 89.8066ZM166.607 114.42C166.18 115.467 165.752 116.471 165.688 116.664C165.603 116.92 165.325 117.048 164.898 117.048C164.534 117.048 163.06 117.433 161.629 117.881C151.758 121.086 148.702 120.937 147.442 117.176C146.352 113.865 146.053 114.228 149.685 114.527C154.834 114.954 164.278 113.907 167.397 112.583C167.397 112.561 167.056 113.395 166.607 114.42ZM163.317 125.509C163.252 125.701 163.188 125.958 163.188 126.086C163.188 127.005 151.587 133.799 151.33 133.03C151.095 132.261 149.963 126.364 150.027 126.278C150.091 126.235 150.647 126.3 151.266 126.449C153.937 127.026 159.065 126.62 161.928 125.616C163.359 125.103 163.487 125.082 163.317 125.509Z" fill="black"/>
<path d="M262.715 110.512C259.339 111.751 253.613 119.122 252.395 123.78C250.665 130.425 255.771 141.321 259.831 139.633C261.262 139.014 261.326 137.775 260.023 135.403C257.16 130.19 257.694 124.934 261.583 120.084C263.271 118.011 263.164 118.032 264.061 119.443C264.467 120.062 265.706 121.729 266.839 123.139C272.009 129.591 272.373 130.403 271.411 133.117C269.766 137.689 275.385 138.95 277.586 134.527C279.21 131.258 278.099 128.032 273.291 122.135C269.937 118.032 268.847 116.387 267.779 113.781C266.54 110.704 264.959 109.678 262.715 110.512Z" fill="black"/>
<path d="M42.1113 115.109C39.3978 116.776 34.1205 126.177 33.3086 130.813C32.4539 135.62 34.7187 142.158 37.304 142.308C40.2952 142.457 41.1926 140.641 39.7397 137.351C38.3082 134.103 39.2269 130.065 42.6027 124.702C44.0342 122.438 43.5428 122.373 46.4913 125.194C50.9354 129.424 51.8114 130.963 51.555 133.932C51.1918 137.949 51.3841 138.804 52.837 139.274C55.9778 140.299 58.5417 135.984 57.5802 131.283C56.8751 127.843 55.1231 125.279 50.8927 121.497C48.1792 119.04 48.051 118.912 47.0468 116.947C45.9572 114.789 43.906 114.041 42.1113 115.109Z" fill="black"/>
<path d="M92.5774 132.539C91.5091 132.924 91.4236 133.052 89.6289 136.193C87.9837 139.099 86.3385 141.385 82.92 145.615C77.0016 152.858 76.5316 159.439 81.6166 163.477C85.0779 166.255 87.77 162.9 85.1207 159.097C83.1123 156.213 83.7532 154.332 88.7315 148.35C89.8212 147.047 91.2527 145.252 91.915 144.333C93.1542 142.645 93.1542 142.645 94.1798 144.654C94.7353 145.743 95.7181 147.666 96.3805 148.948C98.1752 152.388 98.4316 153.927 97.8975 157.687C97.7479 158.798 98.3675 160.464 99.0512 160.742C101.231 161.661 103.047 160.892 104.029 158.648C105.376 155.508 104.542 152.175 100.803 145.701C98.1111 141 97.4915 139.462 96.8505 135.872C96.295 132.732 94.9703 131.685 92.5774 132.539Z" fill="black"/>
<path d="M43.3311 134.355C42.5833 135.145 42.4978 135.594 42.3269 139.718C42.1987 143.115 42.1987 143.115 41.3013 143.649C36.7718 146.298 36.3872 149.268 36.3872 181.787C36.4085 204.734 36.5154 209.029 37.2204 213.451C37.3914 214.434 37.4982 215.246 37.4768 215.246C37.4768 215.267 36.4513 215.524 35.2121 215.844C27.328 217.81 26.3879 221.528 30.8748 232.851C33.0968 238.449 36.1094 242.21 40.404 244.688C41.4082 245.286 41.4082 245.286 41.4082 246.504C41.4082 255.777 47.6897 274.387 54.2277 284.429C63.4578 298.594 71.5554 302.675 95.6775 305.282C105.976 306.393 111.937 307.461 116.082 308.914C120.868 310.602 122.705 310.495 123.24 308.487C124.521 303.744 116.872 300.923 96.5322 298.658C79.183 296.735 73.7134 294.983 67.1327 289.3C59.3128 282.527 51.0869 266.118 47.5188 250.136C46.8137 246.974 46.771 247.209 47.9889 247.402C50.3605 247.786 54.42 247.53 56.5993 246.846C56.8343 246.761 57.0053 246.803 57.0053 246.953C57.0053 247.893 61.3212 258.149 63.7782 263.084C74.6748 284.856 85.2723 293.402 104.224 295.667C110.292 296.394 112.535 296.735 114.907 297.27C118.069 297.996 119.757 297.462 120.12 295.624C120.718 292.591 117.513 290.881 109.352 289.877C99.5661 288.681 96.9595 288.168 93.2204 286.672C83.499 282.762 75.2304 272.955 65.8935 254.217C60.8725 244.111 61.0434 244.71 62.7313 243C69.312 236.27 69.5257 218.75 63.0304 218.75C61.022 218.75 60.3597 220.694 60.9366 224.839C62.3681 235.309 58.8214 241.184 51.0442 241.184C45.2113 241.184 40.5108 238.129 37.7119 232.51C36.3872 229.882 34.272 223.258 34.6138 222.895C35.0411 222.468 47.2197 220.075 56.5566 218.579C61.2143 217.831 62.4536 213.409 58.0095 213.409C57.0694 213.409 57.048 213.387 57.2403 212.084C58.4795 203.153 57.1548 165.592 55.1678 153.691C54.1422 147.538 52.262 144.162 49.2067 143.008C48.2452 142.623 48.2452 142.623 48.2452 141.277C48.2452 139.718 47.7325 135.979 47.3906 135.081C46.7924 133.543 44.4848 133.116 43.3311 134.355ZM47.4333 148.606C49.164 150.166 49.9118 154.951 50.7023 169.608C51.3433 181.573 51.4715 186.851 51.4074 197.064C51.386 202.811 51.3433 208.858 51.3433 210.46C51.3433 213.387 51.3433 213.387 50.0613 213.515C47.4761 213.793 43.4379 214.285 43.1815 214.37C42.5833 214.562 42.2842 156.426 42.861 152.409C43.4166 148.584 45.489 146.854 47.4333 148.606Z" fill="black"/>
<path d="M263.481 135.108C262.242 136.347 262.028 137.287 261.943 141.881C261.857 146.111 261.857 146.111 260.981 146.325C254.016 148.077 252.755 154.252 254.166 179.87C254.785 190.98 256.153 207.923 256.9 213.67C257.306 216.747 257.627 216.405 253.931 216.704C249.316 217.068 247.649 218.969 250.063 221.084C251.26 222.131 258.631 222.43 266.814 221.747C272.113 221.298 279.506 221.319 279.976 221.789C280.873 222.665 280.04 231.233 278.63 235.741C274.271 249.651 257.499 245.185 253.995 229.182C253.29 225.977 252.328 224.738 250.555 224.738C246.111 224.738 246.944 234.994 251.944 241.788C253.183 243.454 253.247 243.006 251.132 247.044C232.864 282.169 221.796 291.741 195.132 295.459C189.235 296.292 189.534 296.228 188.807 296.955C183.872 301.869 200.131 302.018 214.147 297.168C223.89 293.792 232.351 287.447 239.594 278.046C243.825 272.533 252.884 257.641 256.559 250.121C257.905 247.386 258.717 247.193 260.896 249.095C261.259 249.415 254.999 261.316 251.281 267.491C245.662 276.742 236.026 289.69 230.813 294.946C224.873 300.95 221.882 301.655 199.49 302.275C191.307 302.51 190.495 302.787 191.136 305.18C191.606 306.932 193.187 307.103 207.844 306.932C227.864 306.719 230.984 305.052 244.679 287.254C253.781 275.418 266.387 254.394 266.387 251.039C266.387 250.954 267.712 250.804 269.335 250.762C280.147 250.377 285.445 242.536 286.578 225.272C287.026 218.114 284.292 214.931 277.668 214.91C275.788 214.91 275.788 214.91 275.788 192.945C275.788 152.564 274.955 146.624 269.25 145.77C268.31 145.641 268.31 145.641 268.288 142.928C268.246 137.8 268.032 136.689 266.878 135.407C265.917 134.339 264.4 134.189 263.481 135.108ZM267.669 152.222C268.31 153.867 268.694 165.426 268.951 189.271C269.143 206.897 269.293 213.777 269.485 214.824C269.57 215.251 266.323 215.764 263.695 215.764C263.267 215.764 263.225 215.615 263.097 213.35C263.011 212.047 262.755 208.799 262.52 206.15C260.554 183.053 259.657 157.713 260.704 154.444C260.746 154.273 260.853 153.867 260.917 153.547C261.067 152.884 262.071 152.5 264.977 151.987C267.242 151.56 267.434 151.581 267.669 152.222Z" fill="black"/>
<path d="M210.795 140.577C210.475 140.812 209.727 141.88 209.107 142.927C208.509 143.996 206.885 146.389 205.496 148.247C200.262 155.32 199.343 158.503 201.009 163.887C202.441 168.545 206.885 167.52 206.137 162.669C205.582 159.059 206.137 157.413 209.449 153.033C210.539 151.623 211.65 150.106 211.949 149.658C212.483 148.888 212.483 148.888 213.914 150.854C217.162 155.405 217.611 157.713 216.051 162.157C214.47 166.665 218.722 169.015 221.392 165.148C224.576 160.576 223.615 154.144 218.829 147.713C216.521 144.637 216.136 143.996 215.666 142.543C214.94 140.342 212.462 139.338 210.795 140.577Z" fill="black"/>
<path d="M90.2252 157.371C88.8364 157.755 88.5159 158.845 88.5159 163.204C88.5159 166.729 88.5159 166.729 87.2981 167.327C84.8624 168.524 83.3454 170.596 82.7044 173.545C81.7643 177.967 83.2813 206.213 85.3111 221.746C85.6316 224.267 85.6316 224.225 84.7769 224.417C82.7899 224.844 81.978 227.472 83.4095 228.818C84.1787 229.523 85.4393 229.481 92.896 228.498C100.438 227.515 106.079 227.237 106.57 227.835C107.788 229.31 106.399 238.732 104.519 241.552C100.695 247.385 90.6953 242.984 87.7468 234.16C86.2084 229.566 83.3027 228.54 82.2985 232.215C80.7388 238.048 87.4263 247.364 94.7121 249.522C95.5667 249.778 95.5667 249.778 95.5881 254.073C95.6308 269.456 100.737 282.532 108.493 287.147C113.343 290.032 117.702 289.967 127.872 286.912C137.551 283.985 140.734 284.391 143.426 288.835C146.204 293.407 150.669 291.912 149.216 286.891C146.888 278.9 139.26 276.806 126.44 280.609C114.646 284.135 111.207 283.152 107.318 275.225C104.327 269.157 100.438 250.163 102.19 250.163C102.361 250.163 102.511 250.291 102.532 250.419C102.532 250.569 102.575 251.317 102.639 252.086C103.13 260.44 106.613 269.178 111.249 273.815C117.595 280.16 124.197 280.246 136.269 274.178C147.956 268.302 151.588 270.46 154.216 284.861C155.135 289.839 155.968 291.249 157.955 291.249C163.51 291.249 160.327 274.028 153.639 267.918C148.362 263.068 142.935 263.132 132.423 268.11C123.278 272.447 119.625 272.533 115.587 268.559C110.651 263.709 105.886 249.607 108.301 247.022C114.903 239.886 114.924 223.541 108.343 221.618C107.553 221.383 107.211 221.169 107.211 220.934C107.211 220.742 107.019 218.349 106.784 215.657C106.399 211.042 106.121 206.833 105.822 201.342C104.07 168.353 102.767 163.716 95.7163 164.87C94.4343 165.084 94.5198 165.212 94.2847 162.883C93.7933 158.439 92.5327 156.73 90.2252 157.371ZM97.1478 171.579C97.8742 173.822 98.6006 182.433 99.3057 196.855C99.4339 199.312 99.5621 202.004 99.6262 202.837C99.6903 203.649 99.8826 206.534 100.054 209.247C100.395 214.439 100.695 217.516 101.015 219.545C101.143 220.229 101.229 220.891 101.229 221.02C101.229 221.169 100.63 221.34 99.7971 221.426C98.9852 221.49 96.6564 221.853 94.6052 222.195C92.5541 222.537 90.8662 222.814 90.8662 222.814C90.8662 222.814 90.8876 221.532 90.9303 219.994C90.9944 217.387 90.6312 209.589 89.456 187.881C88.9433 178.544 88.9646 174.485 89.5201 173.63C89.9902 172.925 95.0112 171.024 96.7845 170.895C96.8486 170.895 97.0196 171.216 97.1478 171.579Z" fill="black"/>
<path d="M311.47 159.076C309.355 159.503 300.937 168.818 299.121 172.75C295.98 179.544 298.501 189.586 303.074 188.496C304.975 188.048 305.338 186.595 304.291 183.604C302.539 178.54 303.629 175.228 308.842 169.801C310.872 167.707 310.872 167.707 311.534 168.989C312.133 170.164 312.966 171.275 316.021 175.014C318.457 178.006 318.777 179.715 317.431 182.428C315.167 186.979 318.286 189.949 321.854 186.659C326.127 182.728 325.337 176.831 319.675 170.357C316.94 167.237 316.085 165.613 315.744 163.007C315.316 159.845 313.949 158.563 311.47 159.076Z" fill="black"/>
<path d="M207.825 163.864C206.949 164.804 206.714 165.937 206.842 168.565C206.927 170.829 206.927 170.829 205.581 171.406C202.056 172.945 200.496 176.748 199.727 185.743C198.53 199.759 198.894 217.578 200.71 235.76C200.838 237.042 200.838 237.042 199.77 237.747C193.189 241.956 192.292 259.669 198.317 266.335C199.513 267.638 199.513 267.638 198.595 268.621C195.475 271.997 193.403 271.997 188.424 268.664C179.536 262.681 170.434 266.036 164.644 277.467C161.439 283.769 165.798 286.953 169.174 280.757C172.315 274.967 176.78 271.099 180.241 271.099C181.481 271.099 182.57 271.676 185.625 273.984C192.612 279.197 201.137 277.83 204.855 270.886C205.068 270.48 206.115 270.416 206.543 270.8C206.949 271.185 203.765 278.919 202.184 281.376C198.146 287.615 195.261 287.893 190.476 282.487C183.211 274.283 176.716 275.138 167.806 285.521C166.396 287.167 164.452 289.282 163.469 290.222C160.029 293.534 161.653 297.593 165.371 295.008C166.952 293.918 169.751 291.418 171.417 289.602C178.083 282.359 181.331 281.248 184.878 285.009C190.625 291.077 192.42 292.252 196.095 292.252C203.081 292.252 210.346 283.791 212.525 273.086C213.038 270.672 212.91 270.8 214.747 270.48C226.947 268.343 235.344 257.917 234.917 245.46C234.746 240.439 233.72 238.41 231.37 238.41C229.041 238.41 228.55 239.457 228.336 244.606C227.909 256.037 223.123 262.361 213.508 264.156C203.722 266.014 199.791 260.887 201.223 248.131C201.885 242.298 204.684 241.08 224.939 237.64C229.148 236.935 229.853 236.508 229.853 234.713C229.853 232.79 228.891 232.342 225.195 232.534C222.118 232.684 222.118 232.684 222.289 226.616C222.823 206.51 222.482 182.324 221.606 177.944C220.751 173.586 218.166 171.128 214.106 170.744C212.76 170.616 212.76 170.616 212.76 169.74C212.76 164.313 210.218 161.3 207.825 163.864ZM214.683 177.047C216.392 178.307 216.862 192.409 215.965 216.296C215.837 219.586 215.709 224.8 215.687 227.898C215.645 233.496 215.645 233.496 215.004 233.602C212.696 233.966 209.042 234.649 208.038 234.884C206.82 235.162 206.82 235.162 206.692 231.594C206.607 229.65 206.414 224.436 206.222 220.035C205.154 193.434 205.688 179.162 207.803 177.218C208.743 176.384 213.593 176.256 214.683 177.047Z" fill="black"/>
<path d="M11.2164 171.621C9.54987 172.219 9.57124 172.198 5.83221 182.753C2.99055 190.808 2.79825 196.854 5.23396 201.833C7.52011 206.469 11.5583 205.08 10.2122 200.123C9.59261 197.859 9.69943 193.436 10.4045 190.615C10.8532 188.863 12.9257 182.902 13.1821 182.582C13.2675 182.496 14.6136 183.8 16.1733 185.466C20.361 189.975 21.237 192.132 20.3824 195.765C19.6132 198.991 20.7883 200.807 23.4591 200.593C26.2366 200.38 28.1168 194.931 26.9631 190.487C26.1725 187.411 24.976 185.637 20.7883 181.364C17.1989 177.689 16.4724 176.706 15.6178 174.335C14.7204 171.899 13.1607 170.938 11.2164 171.621Z" fill="black"/>
<path d="M308.156 183.349C307.002 184.503 306.553 187.067 306.553 192.835C306.553 196.062 306.553 196.062 305.442 196.19C297.088 197.215 297.11 197.194 296.618 216.082C296.447 222.769 296.191 231.914 296.063 236.379C295.785 245.374 295.999 262.446 296.404 266.014C296.554 267.189 296.896 267.039 292.9 267.552C289.055 268.065 288.008 268.898 288.499 271.099C288.948 273.128 289.055 273.128 304.075 272.851C320.569 272.552 319.672 272.445 319.501 274.56C318.646 284.794 312.878 291.354 304.31 291.76C297.601 292.08 294.546 289.367 292.003 280.82C290.7 276.355 289.824 275.158 287.965 275.158C285.551 275.158 284.632 277.957 285.508 282.572C285.679 283.491 285.828 284.26 285.828 284.281C285.828 284.324 285.465 284.516 285.038 284.752C284.589 284.987 283.029 286.204 281.555 287.465C257.711 307.912 237.563 315.198 212.992 312.271C207.843 311.651 206.604 311.886 206.283 313.531C205.941 315.412 206.924 316.223 210.214 316.8C233.503 320.903 252.946 316.159 273.97 301.246C278.97 297.721 286.512 291.396 287.452 289.943C287.773 289.452 287.773 289.452 288.798 291.012C289.354 291.866 290.315 293.084 290.935 293.725C292.217 295.05 292.302 294.751 289.525 298.34C278.414 312.677 259.42 323.937 242.456 326.244C228.098 328.21 205.023 321.629 193.549 312.314C189.041 308.66 189.105 308.703 187.994 308.703C186.392 308.703 185.43 310.006 185.857 311.566C186.263 312.997 192.182 318.339 195.963 320.668C200.45 323.402 212.33 328.21 215.748 328.658C216.047 328.701 216.56 328.829 216.881 328.979C217.223 329.107 217.628 329.214 217.778 329.214C217.949 329.214 218.334 329.449 218.654 329.748C219.295 330.346 219.808 330.475 219.359 329.919C219.081 329.599 219.124 329.577 219.701 329.727C231.345 332.697 241.473 332.974 251.13 330.581C267.924 326.458 287.025 313.489 295.913 300.156C297.43 297.892 297.43 297.892 298.947 298.319C305.058 299.985 312.942 297.892 317.792 293.276C324.522 286.867 327.983 271.825 323.582 267.979C322.62 267.146 322.62 267.146 322.813 264.262C323.39 255.48 323.561 209.244 323.026 203.903C322.364 197.215 320.697 195.613 314.416 195.656C312.301 195.656 312.087 195.634 312.194 195.293C312.92 192.921 313.091 185.4 312.45 184.182C311.574 182.473 309.438 182.067 308.156 183.349ZM316.702 201.702C317.728 202.728 317.664 238.153 316.553 260.886C316.296 266.185 316.296 266.185 312.023 266.206C309.651 266.206 306.575 266.291 305.164 266.398C302.109 266.591 302.558 267.424 302.43 261.484C302.366 258.728 302.195 253.322 302.045 249.476C301.853 244.049 301.853 240.759 302.045 234.734C302.195 230.461 302.43 221.957 302.601 215.825C302.921 204.138 303.007 202.6 303.455 202.429C303.754 202.322 307.536 201.937 310.933 201.66C313.54 201.467 316.488 201.489 316.702 201.702Z" fill="black"/>
<path d="M13.2451 197.517C11.7495 198.564 11.1299 202.987 11.835 207.859C11.9418 208.585 11.8777 208.67 10.8735 209.311C6.70717 212.025 4.91244 217.217 4.72014 227.066C4.57058 234.117 4.72014 236.532 6.68581 258.389C6.96356 261.551 7.15585 264.179 7.11312 264.222C7.07039 264.265 5.91663 264.5 4.50649 264.777C0.895651 265.44 0.0623809 266.145 0.596528 268.11C1.25887 270.589 3.69458 270.546 17.7961 267.897C25.5732 266.422 24.9536 266.23 24.9536 270.076C24.9536 284.733 21.8983 290.224 15.4672 287.041C11.4504 285.054 7.96776 280.374 6.47215 274.947C5.36112 270.888 2.92541 269.713 1.4939 272.512C-0.706791 276.785 4.1219 286.87 10.318 290.993C11.7282 291.933 11.7282 291.933 11.6213 292.895C11.3222 295.331 11.2367 303.279 11.4718 306.462C13.6725 336.802 24.5904 349.279 49.4176 349.878C64.8437 350.241 76.2745 346.673 99.5206 334.238C111.122 328.042 117.874 324.794 124.07 322.465C128.45 320.82 129.604 318.32 126.89 316.397C123.985 314.368 114.519 317.978 95.5679 328.362C73.0482 340.69 60.4424 344.6 46.5759 343.553C27.7739 342.143 20.2531 332.699 17.5824 307.103C16.4927 296.677 17.091 292.275 19.3344 294.049C19.3558 294.07 19.7404 295.758 20.1677 297.809C29.0773 340.583 40.8499 347.848 74.3302 331.225C91.9571 322.465 100.653 319.218 112.532 316.91C117.788 315.906 119.028 315.158 119.028 313.107C119.028 306.355 99.777 311.312 72.2791 325.157C43.9693 339.408 37.0895 336.246 27.6457 304.646C23.7785 291.762 23.9067 292.467 25.2528 291.186C29.0132 287.639 30.8079 280.139 30.4447 269.606C30.2096 263.132 29.12 261.53 24.975 261.423C23.2444 261.38 23.2444 261.38 23.223 259.991C23.223 259.222 23.1803 257.021 23.1375 255.077C23.0948 253.133 23.1589 244.864 23.2871 236.703C23.6503 214.247 22.9239 210.166 18.2234 208.478C17.4969 208.2 17.4969 208.2 17.6038 207.025C17.7533 205.594 17.3687 200.616 17.0269 199.419C16.4927 197.582 14.5698 196.599 13.2451 197.517ZM16.5568 214.909C17.7106 217.238 17.9029 222.302 17.3687 237.771C17.1551 243.817 16.9842 251.808 16.9628 255.547C16.9414 262.299 16.9414 262.299 15.1253 262.662C14.1211 262.854 13.1597 263.047 12.9674 263.111C12.6683 263.196 12.6042 262.662 12.4973 258.453C12.3691 253.881 11.9418 246.595 11.4931 241.83C10.1043 226.682 11.0444 217.537 14.2707 214.61C15.4245 213.585 15.9372 213.649 16.5568 214.909Z" fill="black"/>
<path d="M149.217 215.379C148.319 216.276 147.721 217.879 146.952 221.575C145.413 228.711 143.832 239.074 144.11 240.121C144.602 242.022 146.952 242.599 147.956 241.039C148.426 240.334 152.507 220.122 152.507 218.541C152.507 215.037 150.99 213.605 149.217 215.379Z" fill="black"/>
<path d="M164.258 236.055C163.575 236.803 163.596 236.611 163.083 242.679C162.763 246.738 162.549 248.298 160.925 259.13C159.601 267.976 159.921 270.668 162.335 270.668C163.895 270.668 164.686 268.873 165.626 263.19C167.912 249.195 168.638 237.401 167.271 236.034C166.374 235.137 165.092 235.158 164.258 236.055Z" fill="black"/>
<path d="M174.043 290.18C172.569 291.419 172.59 292.765 174.214 296.418C177.846 304.708 178.188 309.323 175.667 315.84C168.851 333.488 143.041 338.851 136.995 323.874C135.243 319.558 134.623 310.456 135.734 305.606C136.888 300.606 132.444 299.217 130.948 304.11C126.333 319.002 130.969 333.104 141.866 337.42C160.732 344.876 183.978 328.019 183.957 306.888C183.957 296.782 178.038 286.804 174.043 290.18Z" fill="black"/>
<path d="M139.52 298.192C135.054 302.081 149.476 308.042 157.317 305.564C163.108 303.726 162.274 298.406 156.399 299.667C152.788 300.436 147.489 299.966 143.942 298.534C141.806 297.68 140.246 297.573 139.52 298.192Z" fill="black"/>
<path d="M167.893 307.421C158.94 310.989 146.997 312.827 139.433 311.822C137.318 311.545 135.972 312.784 136.399 314.6C138.023 321.48 171.909 317.249 173.897 309.942C174.644 307.122 171.739 305.904 167.893 307.421Z" fill="black"/>
<path d="M139.772 322.355C137.358 323.851 138.725 326.393 142.486 327.397C151.737 329.854 163.381 328.337 164.108 324.577C164.599 322.013 162.313 321.393 156.352 322.483C153.553 322.996 147.122 322.996 144.601 322.504C141.524 321.885 140.52 321.863 139.772 322.355Z" fill="black"/>
<path d="M177.867 326.844C177.205 327.634 176.778 329.386 176.949 330.519C179.769 348.21 165.091 365.687 153.617 358.273C149.707 355.752 144.836 348.68 142.336 341.928C141.481 339.642 140.904 339.044 139.516 339.044C132.08 339.044 142.25 360.025 151.993 364.768C168.018 372.588 187.418 350.56 182.803 329.749C182.119 326.609 179.406 325.028 177.867 326.844Z" fill="black"/>
<path d="M206.712 330.323C206.328 330.708 205.815 331.498 205.601 332.097C205.409 332.674 205.046 333.614 204.832 334.148C200.025 346.113 203.999 360.086 212.225 360.086C217.395 360.086 219.34 354.424 217.395 345.044C215.045 333.806 210.152 327.054 206.712 330.323Z" fill="black"/>
<path d="M248.014 336.953C246.625 337.893 246.305 338.961 245.664 344.709C244.168 358.148 247.416 366.502 254.082 366.48C262.671 366.459 264.872 353.426 257.992 343.213C254.125 337.487 250.557 335.243 248.014 336.953Z" fill="black"/>
<path d="M98.88 338.549C93.5385 340.664 97.4485 362.863 103.623 365.534C113.943 369.978 113.9 350.407 103.559 339.916C102.17 338.506 100.354 337.972 98.88 338.549Z" fill="black"/>
<path d="M167.676 344.041C167.206 344.341 166.608 345.131 166.095 346.071C165.134 347.802 164.963 347.866 164.001 346.819C161.459 344.02 161.373 343.956 159.985 343.956C158.297 343.956 157.25 344.875 156.694 346.84C155.69 350.323 154.365 350.579 151.631 347.78C149.537 345.623 146.588 347.033 147.357 349.853C148.832 355.216 156.481 357.267 160.156 353.272C161.01 352.331 161.01 352.331 162.356 353.015C166.458 355.045 170.945 352.502 171.629 347.738C172.12 344.405 170.027 342.439 167.676 344.041Z" fill="black"/>
<path d="M58.729 351.904C57.6607 352.203 55.7378 354.254 54.7763 356.134C54.3276 357.01 53.473 358.527 52.8961 359.51C45.5463 371.817 46.0163 381.004 54.0071 380.427C61.122 379.915 65.8011 373.505 65.7584 364.36C65.737 355.451 63.0235 350.665 58.729 351.904Z" fill="black"/>
<path d="M162.081 366.969C162.231 367.033 162.424 367.012 162.488 366.948C162.574 366.883 162.445 366.819 162.21 366.841C161.974 366.841 161.91 366.905 162.081 366.969Z" fill="black"/>
<path d="M160.179 370.108C156.825 371.304 155.799 374.06 154.41 385.726C153.064 397.007 158.213 404.571 164.965 401.259C174.601 396.516 170.007 366.582 160.179 370.108Z" fill="black"/>
</svg>
