<svg width="281" height="345" viewBox="0 0 281 345" fill="none" xmlns="http://www.w3.org/2000/svg">
<path d="M160.177 1.14992C151.909 3.00875 140.029 21.4902 137.701 36.0831C136.867 41.211 141.632 41.8306 143.128 36.7882C147.294 22.7936 154.879 9.95266 160.626 7.13237C163.852 5.55129 165.348 10.615 164.579 20.6997C163.895 29.7802 164.322 32.4509 166.523 32.4509C171.01 32.4509 172.762 13.0934 168.959 5.38036C167.185 1.7909 164.023 0.273918 160.177 1.14992Z" fill="black"/>
<path d="M64.6688 19.2168C62.6391 20.221 58.9855 27.3785 54.0286 40.0271C44.6917 63.8715 46.7428 81.7974 60.5238 97.1168C68.3865 105.855 83.0435 114.423 86.1415 112.137C88.3422 110.513 87.4662 108.612 83.6204 106.561C59.4342 93.6341 50.1828 75.7936 55.9729 53.1885C57.554 46.9497 59.4555 42.0569 65.3312 28.9596C65.908 27.699 65.908 27.699 67.0404 30.0279C70.0744 36.2026 73.2793 40.5186 81.5479 49.5136C99.9866 69.5762 103.512 79.2335 98.662 96.4117C96.6536 103.548 97.1022 106.881 99.9012 105.471C104.559 103.142 108.319 86.9894 106.311 77.9943C103.897 67.2473 99.132 59.7479 85.116 44.7276C76.2278 35.1984 73.4929 31.3099 70.4803 23.7891C68.6001 19.1527 67.1259 17.9989 64.6688 19.2168Z" fill="black"/>
<path d="M120.435 21.5516C117.572 22.1284 115.008 24.9701 113.833 28.9228C113.62 29.6279 113.406 30.2689 113.32 30.3543C113.256 30.4398 111.889 29.8629 110.286 29.051C100.672 24.1796 93.4288 28.1109 95.2449 37.1487C95.5868 38.7938 95.5868 38.9434 95.2663 39.1357C90.5444 41.7637 91.5272 48.7503 97.0183 51.5279C102.616 54.3696 105.949 50.1391 100.886 46.6138C98.4071 44.8831 98.3643 44.819 99.924 44.1139C102.552 42.9388 103.065 41.4005 101.997 37.8965C100.928 34.4352 101.078 33.5165 102.723 33.5165C104.219 33.5165 106.248 34.2429 109.496 35.9308C114.773 38.687 117.423 37.9606 118.769 33.4096C120.072 28.9655 120.777 27.7477 122.038 27.7477C123.619 27.7477 124.901 30.5252 125.713 35.7599C126.589 41.2509 127.272 42.5756 129.345 42.5756C131.652 42.5756 131.909 41.4646 131.268 34.0506C130.499 25.1624 126.354 20.3978 120.435 21.5516Z" fill="black"/>
<path d="M195.363 29.2637C179.125 30.2465 165.728 35.6521 156.242 45.0531C151.627 49.604 148.443 55.8215 149.725 57.7658C150.815 59.4323 153.122 59.005 154.169 56.9112C158.742 47.9802 172.929 39.2416 186.603 36.9554C196.452 35.3102 204.571 35.6307 223.459 38.4297C227.347 39.0065 231.3 39.5834 232.24 39.7116C233.971 39.968 233.971 39.968 232.326 42.5533C231.428 43.9848 229.292 47.4247 227.582 50.1809C219.677 62.8936 214.272 69.0897 206.58 74.1748C195.726 81.3537 181.496 84.2595 167.587 82.1443C156.776 80.4991 155.515 85.7765 166.134 88.319C186.389 93.1263 209.101 84.7936 223.117 67.3804C226.236 63.4919 227.561 61.5476 235.167 49.6468C236.3 47.8734 238.18 45.0317 239.376 43.3438C244.205 36.4213 242.966 34.0497 233.714 32.5754C215.789 29.7124 204.208 28.7082 195.363 29.2637Z" fill="black"/>
<path d="M29.5667 42.1241C25.2508 43.3633 23.2852 47.2947 23.2852 54.6659C23.2852 61.6739 24.5671 65.5625 26.8746 65.5625C29.0326 65.5625 29.5026 64.4087 29.1394 60.0928C28.7335 55.1573 29.118 51.226 30.2504 48.9612C30.9128 47.6365 31.4042 47.7647 34.2672 49.9868C36.6388 51.8029 38.1985 52.3156 39.4591 51.6319C43.6896 49.3885 34.6304 40.6712 29.5667 42.1241Z" fill="black"/>
<path d="M256.557 42.6756C251.151 44.6199 247.198 51.6279 250.275 53.8072C251.642 54.7687 253.159 54.3413 254.121 52.7175C254.911 51.4142 255.958 50.2818 257.048 49.534C258.33 48.7007 258.33 48.7007 258.608 50.1109C260.21 58.0163 262.817 61.0502 269.846 63.2723C273.777 64.5115 274.055 64.7893 273.564 66.7976C273.243 68.2078 272.688 69.0411 271.598 69.8316C267.41 72.8656 270.145 77.4592 274.76 75.1731C282.922 71.1563 281.875 60.0247 273.03 57.0334C267.346 55.1105 266.492 54.2559 265.359 49.3204C263.971 43.2738 261.043 41.0731 256.557 42.6756Z" fill="black"/>
<path d="M124.643 45.2701C122.185 45.847 122.399 49.0946 125.027 51.1244C128.424 53.731 130.411 57.6837 130.411 61.85C130.411 63.7516 130.411 63.7516 128.467 63.1106C124.472 61.7432 121.48 61.6364 116.652 62.6833C113.19 63.4097 113.425 63.4952 113.425 61.7646C113.425 60.504 113.319 60.098 112.507 58.4529C112.015 57.4273 111.652 56.4872 111.716 56.359C112.293 55.4403 115.284 54.8634 117.143 55.3121C122.677 56.6368 122.399 50.6757 116.844 49.2228C109.045 47.2144 102.978 53.3037 106.097 60.0553C106.738 61.4655 106.738 61.4655 106.204 62.6192C103.383 68.4735 108.832 71.5288 118.147 69.2854C121.844 68.4094 123.382 68.388 126.544 69.1785C133.381 70.8878 136.629 68.2171 136.607 60.8886C136.586 52.3849 130.134 43.9882 124.643 45.2701Z" fill="black"/>
<path d="M240.661 51.013C236.666 51.8035 234.914 54.987 234.893 61.4609C234.893 65.0931 234.807 65.3708 232.991 67.2724C225.769 74.8787 232.842 83.3182 244.614 81.1602C247.52 80.6261 247.37 80.562 250.062 83.19C252.498 85.5616 253.994 86.6085 255.895 87.3136C262.412 89.7493 269.399 84.4719 267.497 78.5536C265.766 73.1908 260.425 73.0412 260.425 78.3399C260.425 82.1644 258.288 81.9508 253.737 77.6776C250.105 74.2804 248.439 73.7035 243.973 74.3872C237.542 75.3701 235.982 74.3659 238.845 71.1183C241.025 68.6398 241.537 66.8451 241.473 61.9096C241.431 58.8756 241.58 57.6577 242.029 57.6577C243.076 57.6577 244.465 59.4738 244.956 61.4822C245.554 63.918 248.417 64.6658 249.827 62.7642C252.52 59.132 248.481 52.0385 243.119 51.0557C241.751 50.7993 241.773 50.7993 240.661 51.013Z" fill="black"/>
<path d="M181.244 54.901C174.3 55.606 165.668 60.0501 165.668 62.9345C165.668 65.4557 167.74 65.8617 171.458 64.0883C175.347 62.2295 179.128 61.0757 182.333 60.7552C187.055 60.3279 177.27 64.9643 170.261 66.5026C163.894 67.9128 160.925 69.7075 162.249 71.3954C164.6 74.3653 177.804 71.8227 184.961 67.0154C193.208 61.4603 190.901 53.9395 181.244 54.901Z" fill="black"/>
<path d="M16.2544 66.8427C13.3273 67.7828 12.5581 70.3894 12.7504 78.9144C13.4768 110.75 31.5097 139.957 50.3757 139.914C58.3452 139.893 58.8153 134.209 50.9099 133.526C35.2487 132.158 19.8011 105.515 18.9465 78.4016C18.8397 74.8763 18.861 74.278 19.1174 74.4276C19.2884 74.5344 19.9934 75.0685 20.6985 75.6027C26.5528 80.1964 35.2273 84.2772 42.0217 85.6447C44.9915 86.2429 46.9358 85.0892 46.594 82.9098C46.3589 81.4142 45.6966 80.9442 42.4917 79.9827C36.1461 78.0598 29.8645 74.7908 24.2025 70.4108C19.4379 66.7572 18.2201 66.2017 16.2544 66.8427Z" fill="black"/>
<path d="M134.752 69.5167C133.342 70.4995 133.556 71.6106 136.013 75.6274C138.769 80.1783 141.012 81.3748 142.508 79.0886C144.687 75.7556 137.871 67.3374 134.752 69.5167Z" fill="black"/>
<path d="M118.45 72.8746C114.775 73.7933 114.284 75.0539 114.305 83.6217C114.348 108.556 119.647 127.464 129.432 137.72C138.919 147.655 159.558 155.133 158.255 148.147C157.956 146.523 157.443 146.202 152.807 144.493C134.282 137.656 126.847 128.554 122.852 107.765C121.506 100.714 120.16 87.382 120.16 80.9936C120.16 78.3656 119.882 78.4511 123.792 80.0963C153.619 92.6381 168.895 112.188 168.639 137.464C168.617 140.284 168.596 143.147 168.596 143.831C168.682 149.941 173.211 149.45 174.322 143.211C178.04 122.273 167.677 100.479 147.081 85.8651C137.851 79.3057 121.805 72.0413 118.45 72.8746Z" fill="black"/>
<path d="M78.9662 75.9292C73.582 78.664 76.2955 96.2268 81.9788 95.3722C84.4145 95.009 84.8419 93.492 83.5385 90.0521C82.7907 88.1078 82.1284 85.3729 82.1284 84.1551C82.1284 82.98 82.4703 83.4073 84.2864 86.8472C88.645 95.1158 93.8796 92.7228 89.8629 84.3046C86.4443 77.1257 82.5344 74.1345 78.9662 75.9292Z" fill="black"/>
<path d="M222.823 76.8662C210.431 81.5881 200.881 89.2798 204 92.0146C205.667 93.4675 206.82 93.1043 212.546 89.4293C216.328 86.9936 220.409 84.4938 225.537 81.524C230.921 78.3618 228.742 74.6014 222.823 76.8662Z" fill="black"/>
<path d="M192.202 90.9027C191.561 91.3514 191.134 92.2488 190.813 93.8298C190.493 95.4109 189.916 95.9023 187.95 96.3083C187.267 96.4365 185.771 96.7356 184.639 96.9493C181.818 97.5048 179.724 98.5517 177.844 100.304C176.199 101.863 176.114 101.863 175.964 99.7696C175.836 97.9748 176.007 97.8039 178.357 97.0775C183.143 95.6246 182.395 91.1591 177.438 91.4796C170.345 91.9283 167.546 97.9321 171.007 105.196C173.315 109.982 176.37 110.303 180.408 106.179C183.143 103.38 183.164 103.38 189.489 102.205C194.317 101.329 196.967 98.6799 196.945 94.7272C196.924 91.4369 194.381 89.3644 192.202 90.9027Z" fill="black"/>
<path d="M231.047 91.9745C209.382 93 187.183 105.99 182.76 120.242C181.008 125.882 186.093 128.788 187.952 123.233C190.452 115.862 202.694 105.841 213.847 102.038C224.103 98.5338 231.944 98.2133 251.879 100.393C260.126 101.29 263.779 101.61 268.587 101.846C271.621 101.995 271.621 101.995 269.506 105.221C268.352 106.995 265.702 111.396 263.63 115.007C254.72 130.625 247.819 136.095 230.94 140.902C227.222 141.971 225.492 143.231 225.492 144.876C225.492 150.795 243.717 145.646 255.19 136.501C260.297 132.441 262.69 129.215 268.459 118.618C272.433 111.332 274.121 108.597 277.176 104.474C280.381 100.179 280.744 99.1748 279.718 97.3587C278.778 95.7135 278.159 95.5639 269.185 95.0725C267.07 94.9443 263.267 94.6025 260.746 94.3034C247.264 92.765 244.785 92.4873 241.944 92.295C238.29 92.0386 232.991 91.889 231.047 91.9745Z" fill="black"/>
<path d="M46.6615 105.905C39.8457 108.169 42.1319 116.994 50.8064 121.95C55.571 124.685 57.6222 121.032 53.2849 117.528C51.5542 116.16 49.7809 114.088 49.0331 112.635C48.4562 111.46 48.4348 111.502 49.4604 111.502C51.0842 111.502 53.7549 112.314 57.8572 114.066C62.3654 115.989 65.0148 115.455 64.2028 112.742C63.0491 108.939 51.3192 104.345 46.6615 105.905Z" fill="black"/>
<path d="M107.189 112.378C100.78 113.19 100.438 119.215 106.42 125.603C108.835 128.189 108.835 128.189 108.835 129.77C108.835 133.851 110.416 136.521 113.749 138.124C119.518 140.88 122.658 136.329 117.296 132.975C115.287 131.714 115.009 131.308 114.774 129.043C114.518 126.308 113.834 125.069 111.078 122.163C108.258 119.172 107.873 118.553 108.877 118.553C112.039 118.531 113.792 116.416 112.574 114.066C111.911 112.784 109.625 112.079 107.189 112.378Z" fill="black"/>
<path d="M144.941 113.832C139.856 115.499 139.599 121.844 144.343 128.895C145.625 130.797 148.338 133.425 149.3 133.702C150.133 133.916 151.564 133.788 151.564 133.489C151.564 133.382 151.714 133.297 151.885 133.297C152.312 133.297 152.846 132.207 152.846 131.331C152.846 130.604 152.59 130.198 150.325 127.079C148.83 125.028 146.736 120.327 147.12 119.921C147.654 119.387 151.18 123.532 152.846 126.673C156.479 133.51 160.901 130.839 157.568 123.831C154.278 116.952 148.765 112.572 144.941 113.832Z" fill="black"/>
<path d="M86.0161 114.599C85.3965 114.77 83.8368 115.389 82.5762 115.987C79.9482 117.205 79.9268 117.205 77.5979 116.607C71.9146 115.133 67.6841 117.547 66.2954 123.059C65.3553 126.777 66.2313 129.149 68.5601 129.085C70.0771 129.042 70.7608 128.145 71.2095 125.559C71.7864 122.312 73.4743 120.944 76.145 121.628C80.0123 122.632 81.4865 122.483 85.1187 120.795C88.6227 119.171 89.8192 119.107 89.8192 120.496C89.8192 123.059 94.0283 122.867 94.7334 120.282C95.8657 116.073 91.3148 113.124 86.0161 114.599Z" fill="black"/>
<path d="M214.486 117.995C209.849 119.192 204.978 122.525 204.721 124.683C204.358 127.46 206.815 128.422 209.7 126.605C213.225 124.405 219.421 122.674 218.652 124.106C218.289 124.789 215.853 126.691 213.802 127.887C209.55 130.366 208.033 132.246 208.888 133.934C210.276 136.647 216.772 134.789 221.771 130.216C229.484 123.208 224.784 115.346 214.486 117.995Z" fill="black"/>
<path d="M86.336 126.453C70.6107 127.949 62.5558 137.734 57.898 161.066C55.0564 175.317 50.6977 212.579 51.6806 214.246C53.3898 217.151 55.911 216.553 58.5177 212.665C65.953 201.49 73.4738 195.23 88.6436 187.602C91.4639 186.192 94.9679 184.248 96.4421 183.265C111.996 173.031 118.577 150.255 109.774 137.115C105.929 131.41 101.335 134.337 104.433 140.512C109.411 150.426 106.762 164.271 98.1941 173.266C94.9038 176.727 92.7458 178.201 85.225 182.069C73.3669 188.158 66.8931 192.987 59.821 201.02C58.7099 202.281 58.6031 202.345 58.7099 201.768C58.774 201.405 59.3082 196.79 59.9064 191.512C63.7737 156.835 66.5512 145.768 73.1319 138.589C78.2597 132.991 88.2803 130.235 96.143 132.265C99.5402 133.141 101.249 132.35 100.801 130.085C100.288 127.607 93.1304 125.812 86.336 126.453Z" fill="black"/>
<path d="M183.336 130.729C180.26 131.135 178.593 133.784 179.448 136.946C180.025 139.062 180.046 139.596 179.64 141.241C178.572 145.621 179.704 148.762 182.353 148.762C184.34 148.762 184.917 147.993 185.622 144.382C186.562 139.724 186.562 139.638 185.644 136.391C185.537 136.049 185.686 135.899 186.37 135.622C187.396 135.194 187.93 134.404 187.973 133.314C188.015 131.199 186.456 130.323 183.336 130.729Z" fill="black"/>
<path d="M15.6142 135.94C10.7855 137.734 8.67028 148.033 13.1358 148.033C14.9519 148.033 15.5074 147.456 16.5543 144.465C17.5371 141.666 17.3662 141.602 21.0625 146.046C24.3956 150.063 26.7458 151.088 34.2239 151.857C37.0655 152.156 37.1296 152.221 35.6127 153.075C31.0831 155.618 30.1216 159.72 33.4761 162.156C36.3605 164.25 39.6936 162.562 38.668 159.549C38.3689 158.716 38.3689 158.716 39.8217 157.861C47.9835 152.99 44.6718 146.473 33.5188 145.469C29.2243 145.084 27.985 144.507 25.7844 141.837C21.1266 136.217 18.6909 134.786 15.6142 135.94Z" fill="black"/>
<path d="M254.548 141.432C251.3 142.095 248.608 144.765 247.497 148.462C247.155 149.637 247.155 149.637 245.403 149.979C236.985 151.624 234.763 159.615 241.814 162.905C245.788 164.764 249.078 161.11 246.108 158.14C245.275 157.307 245.211 157.371 247.476 156.794C251.172 155.854 252.604 154.679 253.458 151.838C254.548 148.227 255.766 147.073 258.03 147.586C262.346 148.526 263.03 143.505 258.8 141.753C257.817 141.347 255.723 141.176 254.548 141.432Z" fill="black"/>
<path d="M198.888 143.676C189.573 145.236 180.107 151.624 182.928 154.444C184.082 155.598 186.09 155.214 190.513 153.034C204.486 146.112 215.383 149.167 225.638 162.863C237.197 178.289 238.885 193.48 231.236 212.987C230.125 215.85 227.048 222.302 226.877 222.132C226.813 222.089 226.001 220.508 225.083 218.628C218.331 205.082 208.695 195.937 191.41 186.728C182.629 182.049 180.022 179.677 178.591 175.148C177.223 170.789 177.608 163.119 179.338 160.32C180.791 157.948 178.655 155.598 176.219 156.88C171.625 159.294 169.916 171.623 173.121 179.229C175.215 184.228 178.975 187.497 188.098 192.262C205.319 201.257 213.524 209.526 220.788 225.23C225.403 235.143 229.505 232.857 236.492 216.448C244.312 198.116 244.098 182.199 235.851 167.755C225.446 149.552 212.797 141.326 198.888 143.676Z" fill="black"/>
<path d="M269.291 143.698C265.082 144.189 259.164 148.228 259.164 150.642C259.164 153.185 261.279 153.548 264.805 151.561C269.526 148.89 269.569 148.911 268.116 152.928C266.279 157.992 265.787 160.876 266.108 164.914C266.471 169.764 266.407 169.914 264.74 167.671C261.322 163.034 259.549 162.521 256.643 165.278C255.318 166.56 254.998 165.94 255.617 163.312C256.686 158.633 251.579 157.821 249.891 162.393C247.22 169.594 253.908 176.495 259.079 171.837C259.399 171.516 259.484 171.559 260.147 172.307C263.587 176.238 267.582 176.922 270.274 174.059C271.919 172.328 272.283 170.705 272.283 165.171C272.283 160.406 272.496 159.21 273.971 155.172C275.295 151.539 275.573 150.407 275.573 148.676C275.573 145.13 273.201 143.249 269.291 143.698Z" fill="black"/>
<path d="M83.1067 148.274C80.8205 149.492 76.3551 154.641 74.4535 158.274C68.4497 169.79 80.03 173.529 87.6149 162.525C91.1189 157.44 91.3967 153.167 88.2131 153.167C86.4398 153.167 85.7561 153.765 83.534 157.227C81.4188 160.517 78.7053 163.209 79.9018 160.816C81.3761 157.868 83.0426 155.496 85.3287 153.039C88.32 149.855 86.6962 146.394 83.1067 148.274Z" fill="black"/>
<path d="M229.698 149.592C227.199 151.6 229.015 154.121 232.967 154.121C236.706 154.121 238.288 152.903 237.369 150.724C236.685 149.1 231.28 148.31 229.698 149.592Z" fill="black"/>
<path d="M9.05483 150.367C4.84575 150.987 2.23911 152.803 1.34175 155.773C0.593941 158.23 0.8076 158.999 4.14068 165.302C5.18761 167.268 5.18761 167.118 4.99531 173.784C4.71756 183.143 11.1487 185.984 18.5627 179.767C20.8488 177.844 20.5924 177.865 23.2418 179.425C31.1472 184.104 36.2963 183.1 38.027 176.562C39.7362 170.216 34.8221 168.379 32.2582 174.404C31.3181 176.583 30.9976 176.562 26.1689 173.913C21.0411 171.092 18.8831 171.199 14.9305 174.447C11.6615 177.139 11.7683 177.246 11.9606 171.669C12.1529 166.178 11.8324 164.96 8.62751 159.576C7.11054 157.033 7.62332 156.606 12.7939 156.051C15.2937 155.773 16.5329 154.769 16.5329 152.995C16.5329 150.773 13.5417 149.726 9.05483 150.367Z" fill="black"/>
<path d="M148.381 153.184C146.33 153.803 144.236 156.004 143.125 158.675C142.698 159.679 142.613 159.786 142.591 159.273C142.57 156.901 136.758 155.619 133.511 157.286C130.092 159.017 129.238 162.2 130.968 166.708C131.545 168.204 131.652 168.653 131.438 168.802C131.289 168.909 130.028 169.571 128.639 170.276C117.615 175.96 118.64 184.485 130.626 186.92C134.622 187.754 134.216 187.561 136.374 189.57C140.305 193.245 144.066 193.458 147.078 190.211C150.048 186.984 147.057 183.096 143.382 185.425C142.014 186.279 142.014 186.279 140.049 184.485C138.019 182.626 136.758 181.942 134.152 181.344C126.631 179.592 126.46 179.143 132.143 175.917C137.827 172.691 138.938 170.17 136.929 165.063C135.968 162.585 135.861 162.734 138.639 162.563C140.882 162.414 141.822 162.093 142.1 161.367C142.271 160.939 142.591 161.217 142.591 161.815C142.591 164.486 146.266 164.23 148.018 161.431C149.963 158.311 150.005 158.311 152.655 161.837C154.3 164.038 155.176 164.892 157.141 166.195C160.09 168.161 160.09 168.183 158.445 170.405C155.924 173.78 155.838 175.767 158.124 179.143C160.325 182.369 160.41 183.502 158.445 183.502C156.351 183.502 153.937 181.622 152.42 178.801C149.727 173.802 145.177 174.827 146.523 180.105C148.381 187.305 156.159 191.535 162.205 188.608C166.201 186.664 166.906 182.092 163.957 176.921C162.91 175.062 162.91 175.126 163.957 173.802C167.589 169.08 166.671 165.127 161.051 161.196C159.919 160.405 158.723 159.337 158.039 158.504C153.851 153.44 151.608 152.201 148.381 153.184Z" fill="black"/>
<path d="M199.233 157.202C195.687 158.441 196.499 161.026 201.22 163.419C204.212 164.958 205.579 165.983 206.498 167.436C208.933 171.261 200.9 167.073 197.182 162.565C193.529 158.185 190.067 161.368 193.272 166.154C199.874 176.004 213.313 177.713 213.185 168.675C213.1 162.543 204.425 155.407 199.233 157.202Z" fill="black"/>
<path d="M43.7098 158.074C42.3637 159.42 42.5987 160.68 44.6071 162.603C46.4446 164.334 46.4873 164.825 45.3763 168.757C44.3294 172.453 44.1798 172.752 43.0474 173.393C38.1119 176.213 40.9749 181.213 46.3805 179.205C49.6922 177.944 51.2519 174.696 52.2347 167.005C52.9612 161.15 46.936 154.826 43.7098 158.074Z" fill="black"/>
<path d="M115.627 162.783C114.644 163.36 114.665 165.347 115.691 166.949C116.524 168.274 116.481 168.573 115.221 170.688C113.319 173.85 112.913 175.154 112.486 179.662C112.251 181.969 111.845 183.914 111.439 184.512C111.311 184.726 110.99 184.683 110.114 184.32C104.837 182.204 98.6406 185.537 97.1023 191.306C96.1408 194.96 100.478 196.135 102.209 192.695C103.918 189.298 105.606 188.422 108.426 189.405C114.387 191.52 117.208 188.614 118.126 179.405C118.468 175.987 118.447 176.072 120.412 172.397C123.254 167.12 119.857 160.326 115.627 162.783Z" fill="black"/>
<path d="M256.343 177.606C256.108 177.777 255.403 178.909 254.805 180.127C254.143 181.495 253.096 183.097 252.091 184.358C249.442 187.648 249.036 189.186 250.446 190.597C253.63 193.78 261.279 185.084 260.403 179.294C260.146 177.585 257.775 176.602 256.343 177.606Z" fill="black"/>
<path d="M29.6106 185.643C26.1707 186.369 22.9872 189.382 21.4702 193.313C19.6755 197.95 19.6969 202.501 21.5557 212.778C22.4531 217.82 22.8804 221.174 23.1581 225.619C23.6709 234.079 26.9613 236.173 32.5591 231.601C33.5633 230.789 34.3966 230.148 34.4393 230.191C34.4821 230.212 34.5889 231.665 34.6957 233.396C35.3581 243.758 41.3405 247.839 47.0238 241.771C51.7884 236.686 48.4767 231.366 43.2634 235.725C42.7506 236.152 42.3233 236.494 42.2806 236.494C42.1097 236.494 41.7251 234.079 41.426 231.003C40.5927 222.392 37.0032 219.871 31.2558 223.824C30.2943 224.486 30.2943 224.486 29.9098 221.26C29.7175 219.465 28.9697 215.171 28.2859 211.709C24.8888 194.83 27.645 188.549 36.4477 192.95C40.6782 195.087 43.0925 194.318 42.4729 191.049C41.896 187.951 34.1402 184.682 29.6106 185.643Z" fill="black"/>
<path d="M265.618 189.636C264.464 190.875 264.635 192.029 266.323 194.657C267.349 196.28 268.652 198.844 268.652 199.293C268.652 199.4 266.9 199.528 264.764 199.592C255.106 199.87 252.072 203.78 254.102 213.416C255.021 217.839 254.893 221.022 253.76 221.15C253.547 221.172 251.837 221.193 249.957 221.214C242.159 221.236 242.159 226.299 249.936 228.265C259.23 230.615 263.717 224.761 262.029 212.476C261.302 207.198 261.003 207.647 265.661 207.113C271.344 206.451 273.716 205.19 274.741 202.327C276.6 197.05 268.823 186.238 265.618 189.636Z" fill="black"/>
<path d="M167.121 190.403C164.941 192.197 166.245 194.248 170.069 195.06C178.316 196.812 182.056 201.662 184.897 214.311C187.183 224.567 188.786 226.297 195.901 226.319C201.028 226.34 201.776 227.109 203.165 233.711C204.789 241.446 205.195 242.621 206.819 244.394C208.977 246.702 211.006 247.022 214.98 245.697C218.1 244.651 218.185 244.693 220.685 249.586C225.471 258.902 230.428 261.23 235.235 256.402C241.282 250.313 241.089 232.216 234.957 232.216C232.757 232.216 232.03 234.074 232.244 239.266C232.5 245.612 231.133 252.47 229.787 251.616C229.231 251.274 227.458 248.561 226.347 246.317C222.779 239.202 219.467 237.408 213.335 239.266C211.263 239.907 211.263 239.907 209.788 233.498C207.353 222.836 204.404 219.845 196.328 219.823C192.525 219.823 192.653 219.973 190.773 212.666C187.739 200.893 183.808 194.911 176.949 191.62C173.616 190.018 168.36 189.356 167.121 190.403Z" fill="black"/>
<path d="M124.964 190.979C119.345 192.41 114.965 197.282 111.973 205.401C110.948 208.178 109.986 210.293 109.559 210.635C109.303 210.87 109.324 210.892 105.948 208.114C98.1069 201.704 91.9108 206.084 88.8554 220.143C87.4667 226.531 87.5949 226.339 85.4583 225.613C78.1298 223.07 72.8951 226.724 67.105 238.411C64.9257 242.769 64.9257 242.769 64.5624 241.188C63.3446 235.975 63.601 229.565 65.3743 221.745C65.7803 219.929 66.1649 218.22 66.229 217.964C66.934 214.588 63.3018 213.413 61.5498 216.447C56.3579 225.442 56.2725 245.419 61.4216 250.034C65.5025 253.709 68.7715 251.487 73.5361 241.808C78.0016 232.706 79.8818 231.018 84.2831 232.322C90.9493 234.287 93.4277 232.087 95.8848 221.959C98.5128 211.233 99.0256 210.742 103.491 214.78C109.986 220.677 114.858 218.434 118.875 207.751C121.139 201.747 122.122 200.401 126.545 197.282C131.523 193.777 130.455 189.568 124.964 190.979Z" fill="black"/>
<path d="M151.462 192.199C149.945 193.844 149.304 214.847 150.18 233.286C150.521 240.315 152.359 244.011 154.688 242.366C156.589 241.063 156.718 237.965 155.842 213.95C155.713 210.766 155.564 205.19 155.5 201.557C155.372 194.207 155.243 193.075 154.41 192.22C153.598 191.387 152.252 191.366 151.462 192.199Z" fill="black"/>
<path d="M138.873 196.32C137.805 197.602 137.463 202.751 137.463 217.366C137.463 233.219 138.339 238.197 141.095 238.197C143.937 238.197 144.129 236.018 143.232 213.306C143.125 210.486 142.975 206.213 142.911 203.798C142.74 197.709 142.698 197.303 141.907 196.406C141.01 195.401 139.685 195.359 138.873 196.32Z" fill="black"/>
<path d="M128.275 199.117C126.929 199.609 126.887 199.865 126.823 209.031C126.737 220.44 127.335 231.572 128.19 234.2C129.472 238.11 133.168 237.426 133.724 233.153C134.002 231.059 132.549 209.095 131.694 202.322C131.331 199.523 130.156 198.412 128.275 199.117Z" fill="black"/>
<path d="M173.572 205.038C172.204 206.427 170.089 226.19 170.41 234.608C170.709 242.3 175.965 242.215 176.584 234.502C177.14 227.429 177.546 207.495 177.14 206.106C176.691 204.44 174.747 203.884 173.572 205.038Z" fill="black"/>
<path d="M162.721 211.452C161.631 212.477 161.46 213.824 160.969 225.276C160.307 240.125 160.969 245.039 163.64 245.039C165.221 245.039 166.204 243.116 166.524 239.377C166.823 236.151 166.781 213.93 166.503 212.905C165.969 210.96 164.024 210.234 162.721 211.452Z" fill="black"/>
<path d="M116.845 217.943C115.863 218.713 115.627 219.631 115.499 223.05C115.243 230.784 116.333 234.139 119.046 234.139C122.144 234.139 122.764 230.229 121.204 220.486C120.755 217.772 118.64 216.533 116.845 217.943Z" fill="black"/>
<path d="M181.413 223.76C180.623 224.55 180.516 224.871 180.196 227.947C179.533 234.314 180.26 237.135 182.546 237.135C184.875 237.135 185.964 233.823 185.708 227.413C185.537 223.354 183.529 221.644 181.413 223.76Z" fill="black"/>
<path d="M105.393 239.697C96.9748 240.359 93.6844 242.111 91.1846 247.239C82.4246 265.336 95.7142 281.168 120.648 282.365C123.298 282.493 123.362 282.514 123.233 282.942C122.357 285.741 118.789 293.048 116.14 297.449C106.333 313.773 96.291 322.404 85.6508 323.665C81.3777 324.178 80.9076 324.349 80.0102 325.823C78.6856 328.002 79.5616 329.284 84.903 332.917C95.3937 340.031 104.004 342.788 110.734 341.185C117.935 339.454 121.695 334.07 131.075 312.127C135.754 301.167 145.411 284.736 150.71 278.733C150.795 278.626 151.073 279.502 151.351 280.656C152.013 283.497 153.124 286.723 154.983 291.189C157.675 297.684 158.402 300.12 160.325 309.457C161.649 315.888 163.765 324.263 164.534 326.208C169.533 338.728 173.764 341.826 183.656 340.138C192.48 338.621 197.971 334.647 201.625 327.148C203.996 322.255 203.163 320.268 198.185 318.922C186.199 315.738 178.058 304.436 173.251 284.33C173.123 283.775 173.123 283.775 176.178 283.647C192.929 282.963 203.185 274.545 205.278 259.781C207.244 246 204.424 241.15 194.275 240.808C185.942 240.552 174.255 243.244 164.256 247.752C161.671 248.906 161.671 248.906 160.709 248.265C157.611 246.171 149.15 245.231 144.3 246.406C142.078 246.962 141.95 246.94 139.066 245.744C128.447 241.3 115.221 238.928 105.393 239.697ZM114.922 246.748C122.422 247.303 137.143 250.487 135.091 251.107C133.062 251.726 118.469 251.448 112.465 250.679C107.957 250.102 100.992 248.414 100.628 247.838C100.137 247.047 109.367 246.342 114.922 246.748ZM195.258 247.346C196.112 247.517 196.112 247.517 195.471 247.752C195.13 247.902 193.955 248.329 192.886 248.735C187.673 250.722 177.182 252.666 169.726 253.008C167.226 253.136 167.333 253.072 172.824 251.256C181.52 248.393 191.455 246.662 195.258 247.346ZM154.449 252.196C157.932 252.944 158.38 253.542 158.38 257.538C158.402 261.362 157.611 264.738 156.265 266.64C153.594 270.379 141.416 267.58 139.557 262.772C136.651 255.251 144.108 249.953 154.449 252.196ZM199.211 256.127C197.758 270.656 190.515 277.216 176.093 277.066C170.922 277.002 171.072 277.066 170.153 274.524C168.508 269.887 166.734 266.041 164.982 263.264C163.743 261.298 163.914 260.102 165.431 260.315C171.392 261.127 190.792 257.239 197.715 253.841C199.616 252.901 199.552 252.794 199.211 256.127ZM98.1499 254.311C104.218 256.811 113.747 258.157 125.84 258.157C133.126 258.179 133.126 258.179 133.04 259.674C132.998 260.486 133.04 261.597 133.126 262.131C133.318 263.071 133.297 263.114 132.164 264.46C130.049 266.939 128.639 269.417 126.78 273.776C125.669 276.34 123.597 276.746 116.738 275.699C100.692 273.306 93.7485 266.404 95.4364 254.589C95.6501 253.158 95.415 253.179 98.1499 254.311ZM163.209 273.776C164.213 276.553 165.752 281.788 167.162 287.236C173.016 309.735 180.28 320.054 193.335 324.306C194.51 324.691 195.493 325.032 195.536 325.054C195.728 325.203 193.933 327.639 192.886 328.665C189.275 332.19 179.639 334.562 176.178 332.767C173.123 331.186 169.555 321.764 166.948 308.388C164.705 296.808 164.384 295.718 161.329 288.39C159.705 284.501 158.829 281.831 158.231 279.01C157.803 276.981 157.248 273.242 157.376 273.156C157.419 273.113 157.889 272.857 158.423 272.536C159.427 271.96 161.393 269.973 161.393 269.524C161.414 269.139 162.205 271.02 163.209 273.776ZM138.168 270.549C139.835 271.66 141.266 272.237 144.322 273.007C146.608 273.562 146.608 273.562 143.937 277.301C134.835 290.099 130.306 298.111 124.43 311.807C114.067 335.929 110.222 338.728 96.2697 332.211C91.2273 329.84 90.8214 329.455 92.787 328.836C107.359 324.135 122.251 305.739 131.481 281.019C133.404 275.827 136.267 269.609 136.694 269.609C136.737 269.609 137.399 270.037 138.168 270.549Z" fill="black"/>
<path d="M114.965 283.732C113.469 284.608 113.533 290.633 115.05 291.701C117.507 293.41 119.622 289.18 118.447 284.949C118.084 283.667 116.225 283.005 114.965 283.732Z" fill="black"/>
<path d="M179.343 285.208C177.997 286.66 178.125 293.797 179.557 295.485C182.099 298.54 184.535 293.027 183.488 286.639C183.146 284.631 180.689 283.776 179.343 285.208Z" fill="black"/>
<path d="M148.833 293.283C148.063 293.945 147.957 294.607 147.636 300.739C147.444 304.008 147.145 309.243 146.931 312.405C146.461 319.776 146.739 321.913 148.256 322.298C150.734 322.917 151.589 319.755 152.23 307.641C152.636 299.543 152.443 294.031 151.717 293.411C150.969 292.77 149.516 292.706 148.833 293.283Z" fill="black"/>
<path d="M142.441 302.768C140.902 303.516 140.389 306.956 139.813 321.1C139.107 338 138.552 340.094 134.792 339.859C131.01 339.603 129.899 337.808 130.027 332.082C130.112 328.3 129.172 327.061 126.737 327.745C123.211 328.706 123.959 339.069 127.805 342.487C131.993 346.183 139.791 345.521 142.205 341.248C142.569 340.607 142.975 340.137 143.103 340.18C146.115 341.333 152.418 340.735 154.32 339.133C155.239 338.342 155.239 338.342 155.858 338.705C159.384 340.778 165.516 339.688 165.708 336.953C165.879 334.176 165.088 333.492 161.499 333.278C158.892 333.129 156.969 332.467 157.226 331.804C158.337 328.963 157.781 321.292 156.371 319.882C154.085 317.596 152.525 319.903 152.183 326.014C151.692 335.372 151.628 335.479 146.927 335.372C143.829 335.287 144 335.436 144.278 333.364C145.133 326.869 145.774 306.421 145.197 304.456C144.705 302.811 143.658 302.17 142.441 302.768Z" fill="black"/>
<path d="M133.13 317.277C131.378 318.303 130.737 332.81 132.382 334.669C133.557 336.015 135.437 335.609 136.356 333.815C137.104 332.34 137.445 322.063 136.847 319.307C136.399 317.299 134.711 316.359 133.13 317.277Z" fill="black"/>
<path d="M158.232 322.703C158.232 323.045 158.275 323.174 158.339 322.96C158.382 322.767 158.382 322.468 158.339 322.318C158.275 322.19 158.232 322.34 158.232 322.703Z" fill="black"/>
<path d="M158.424 323.788C158.424 324.024 158.488 324.088 158.553 323.917C158.617 323.767 158.595 323.574 158.531 323.51C158.467 323.424 158.403 323.553 158.424 323.788Z" fill="black"/>
</svg>
