<svg width="233" height="340" viewBox="0 0 233 340" fill="none" xmlns="http://www.w3.org/2000/svg">
<path d="M163.464 0.860082C160.986 1.47969 157.14 3.57355 150.196 7.99629C137.141 16.3504 135.753 16.6708 132.996 11.8635C126.138 -0.122746 116.246 7.91083 108.426 31.8193C104.558 43.656 103.533 51.5613 105.691 52.8647C107.849 54.1893 108.981 52.9074 110.349 47.5446C114.429 31.5415 119.728 18.8074 124.236 14.171C125.903 12.4404 125.775 12.3549 128.082 16.6067C132.569 24.9181 138.295 24.2557 154.896 13.5728C160.345 10.0688 163.379 8.31678 164.81 7.91083C166.626 7.37668 163.785 19.3202 158.785 33.2294C155.708 41.7544 155.473 44.2115 157.567 45.3011C161.05 47.0959 164.853 41.0707 168.784 27.482C174.553 7.44078 172.78 -1.4688 163.464 0.860082Z" fill="black"/>
<path d="M41.934 30.3068C37.1481 32.1229 36.1652 35.7551 38.3446 43.7032C39.8402 49.1301 40.4384 48.5319 31.2725 50.9462C18.047 54.4503 13.2824 56.9714 11.8295 61.2873C10.4621 65.3041 13.0474 68.1885 20.7391 71.2438C23.8371 72.4831 23.8371 72.4831 21.0382 74.2351C4.92832 84.3839 3.06948 94.9813 16.2309 101.562C26.5933 106.733 31.4434 101.84 21.6792 96.0496C12.8337 90.815 13.4319 88.5929 26.1233 80.0039C36.0157 73.2736 35.8234 69.9405 25.3114 65.6032C19.9699 63.4026 19.8844 63.3171 21.9142 62.4625C24.2217 61.4583 27.2557 60.4541 32.0416 59.0867C46.3781 55.0058 48.2156 52.8051 45.6303 42.7845C44.6902 39.1309 44.5834 38.3617 45.0535 38.3617C46.3781 38.3617 53.2366 42.5922 61.0992 48.2755C67.1885 52.6769 67.274 52.7196 68.4277 52.8478C72.2309 53.211 72.4232 49.6857 68.8551 45.6261C60.3514 35.9688 47.0405 28.4052 41.934 30.3068Z" fill="black"/>
<path d="M148.485 52.3772C141.349 53.6592 135.431 58.1888 136.114 61.821C136.563 64.1712 138.721 64.1926 141.221 61.9064C143.443 59.8553 146.669 58.787 150.622 58.7656C154.81 58.7656 156.027 59.4921 159.318 64.0644C163.249 69.4913 164.873 70.8587 167.074 70.5382C169.616 70.1537 170.15 67.547 168.356 64.3208C162.865 54.5352 156.797 50.8816 148.485 52.3772Z" fill="black"/>
<path d="M94.1105 57.9786C87.017 59.8801 82.2951 70.7767 85.8419 77.101C86.8461 78.9385 88.8117 79.4299 90.0509 78.1907C90.756 77.4856 90.8415 76.9728 90.5851 74.473C90.3073 71.8023 91.5893 68.106 93.4909 66.0335C95.6061 63.7474 96.4821 63.8756 100.093 66.995C107.272 73.1911 111.63 73.5329 118.361 68.4051C121.502 66.0121 122.762 65.4353 124.642 65.5421C126.822 65.6489 127.548 66.2899 128.787 69.1529C131.052 74.3235 136.03 71.0331 134.3 65.5207C131.864 57.7222 122.997 56.2479 114.365 62.2304C109.686 65.4566 109.024 65.4139 104.152 61.5253C99.8365 58.064 97.1872 57.1453 94.1105 57.9786Z" fill="black"/>
<path d="M144.533 64.3627C140.196 65.1746 137.268 69.2341 138.209 73.1227C138.529 74.4474 138.55 74.6611 138.23 75.5157C137.226 78.3574 138.914 81.5195 141.435 81.5195C142.866 81.5195 144.127 80.494 144.447 79.1052C144.511 78.7206 144.875 77.7378 145.195 76.8831C145.943 75.0243 145.964 74.6611 145.281 72.7168C144.64 70.9007 144.64 70.922 147.097 69.7469C148.87 68.8923 149.191 68.5932 149.447 67.589C150.152 65.0251 148.144 63.7004 144.533 64.3627Z" fill="black"/>
<path d="M182.46 71.7138C181.136 71.9061 178.486 72.5684 173.722 73.9145C169.919 74.9827 167.996 75.2819 162.804 75.6451C151.523 76.457 147.057 79.1705 144.707 86.6485C142.314 94.3616 147.655 105.664 154.706 107.715C157.89 108.634 159.813 105.664 157.441 103.463C152.569 98.998 151.202 96.1563 151.437 91.0713C151.693 85.1102 154.3 83.3582 163.872 82.6958C170.047 82.2685 171.051 82.0762 180.11 79.7046C187.93 77.6535 190.451 79.8969 190.473 88.9988C190.494 93.6993 195.301 94.8744 196.605 90.4944C199.639 80.3883 192.032 70.325 182.46 71.7138Z" fill="black"/>
<path d="M67.4055 73.3965C53.8596 74.999 40.6555 87.9253 41.4246 98.8433C41.5742 101.108 42.0656 102.711 43.9031 107.048C44.8432 109.248 45.5269 111.214 45.826 112.603C47.0439 118.265 47.4284 119.226 49.2018 120.85C51.7657 123.179 54.2655 123.286 60.4616 121.277C64.0297 120.102 64.1152 120.124 67.0423 121.983C75.6955 127.516 86.4639 125.508 92.3609 117.303C93.2369 116.107 97.4673 108.8 98.1938 107.283C99.8603 103.757 99.198 100.553 96.4204 98.6724C92.8309 96.2794 88.6219 99.2493 90.4807 102.881C91.0789 104.057 91.1217 103.907 88.8569 107.924C85.3956 113.992 84.306 115.274 81.4216 116.641C77.4689 118.521 74.4349 118.265 70.1617 115.68C65.3758 112.774 63.8802 112.624 58.1114 114.419C53.475 115.872 53.7741 115.957 52.9836 112.71C52.3426 110.06 51.5307 107.881 49.9496 104.505C46.5097 97.1768 47.343 93.3523 53.6673 87.263C65.1835 76.1955 78.6654 78.3321 85.7375 92.3481C88.045 96.899 91.7413 94.5915 90.4166 89.421C87.7459 79.0371 77.8748 72.1787 67.4055 73.3965Z" fill="black"/>
<path d="M110.006 74.0221C102.293 75.24 98.1055 81.3934 102.186 85.5597C105.434 88.8928 110.69 86.2007 108.34 82.4189C107.87 81.6498 112.527 79.385 114.6 79.385C118.061 79.385 118.659 75.1545 115.305 74.2785C114.13 73.9794 111.246 73.8298 110.006 74.0221Z" fill="black"/>
<path d="M199.378 76.6046C196.173 77.5447 197.156 80.1727 201.685 82.8648C205.553 85.1509 208.138 87.3303 209.484 89.4241C210.894 91.6248 210.659 92.1803 207.048 95.4066C198.908 102.65 199.399 106.987 209.313 116.26C224.013 129.977 228.692 142.262 223.372 153.223C220.979 158.158 218.671 159.077 213.949 156.983C208.352 154.505 205.852 155.017 202.326 159.44C199.25 163.307 196.9 164.269 193.289 163.136C186.815 161.107 185.341 168.392 191.708 170.85C196.387 172.644 201.814 170.935 207.027 165.957C209.185 163.906 208.736 164.012 211.706 164.995C222.581 168.585 231.149 160.573 232.581 145.424C233.777 132.861 228.478 122.84 212.774 107.991C208.929 104.38 208.929 104.38 212.368 100.834C217.838 95.2143 218.714 91.2402 215.531 86.4329C212.39 81.711 202.497 75.6859 199.378 76.6046Z" fill="black"/>
<path d="M177.011 83.8485C174.597 84.7031 173.358 86.7329 172.93 90.4719C172.546 93.9759 172.268 94.2323 168.892 94.2323C165.431 94.2109 164.256 93.6127 165.901 92.6939C168.144 91.4334 168.657 90.6001 168.337 88.8695C167.674 85.3014 160.239 87.1388 158.359 91.3479C154.876 99.1037 170.815 104.83 177.182 98.0995C178.827 96.3689 179.511 94.6169 179.896 91.1129C180.045 89.9377 180.045 89.9377 181.007 89.6814C183.977 88.8695 184.169 85.2159 181.284 83.998C179.938 83.4425 178.315 83.3998 177.011 83.8485Z" fill="black"/>
<path d="M120.497 84.2985C104.687 85.7728 100.371 99.8956 114.194 104.895C120.22 107.096 122.762 103.592 117.57 100.259C108.148 94.1909 114.921 89.9177 130.497 92.0971C137.868 93.1226 141.201 90.986 137.483 87.6316C135.133 85.5164 126.202 83.7644 120.497 84.2985Z" fill="black"/>
<path d="M59.5835 90.4066C53.4942 94.4661 52.8746 102.051 58.4083 104.978C60.78 106.26 62.3824 106.538 68.5785 106.709C74.1336 106.858 74.1336 106.858 75.7788 107.734C79.7315 109.85 85.1798 108.824 85.3935 105.897C85.5644 103.376 84.6457 102.414 81.7613 102.051C80.522 101.901 79.6033 101.624 78.5777 101.111C75.9497 99.7862 75.0096 99.6366 68.258 99.4871C59.7971 99.2948 59.028 98.5683 62.8311 94.3592C65.4164 91.4962 62.767 88.27 59.5835 90.4066Z" fill="black"/>
<path d="M127.483 97.7173C126.586 98.5078 126.436 99.9821 127.163 101.114C127.547 101.713 130.154 103.037 132.889 104.063C137.162 105.644 138.251 106.413 140.132 109.041C143.208 113.421 145.858 114.639 147.866 112.631C149.704 110.793 148.272 107.182 144.106 103.08C140.687 99.7257 129.385 96.0721 127.483 97.7173Z" fill="black"/>
<path d="M174.192 108.653C165.432 109.443 154.92 113.524 153.595 116.665C152.249 119.913 154.877 120.831 159.236 118.609C167.099 114.635 179.063 113.674 184.704 116.558C186.52 117.477 186.563 117.904 185.26 121.173C183.144 126.408 183.486 128.822 187.118 134.57C189.597 138.501 189.469 139.313 186.114 140.488C181.008 142.304 173.06 141.129 159.343 136.535C151.373 133.865 150.262 133.202 149.984 130.938C149.322 125.511 143.938 125.062 142.229 130.297C140.242 136.386 143.233 140.509 151.822 143.437C175.218 151.449 191.135 150.936 195.537 142.026C197.331 138.416 196.754 135.531 193.079 129.527C191.327 126.686 191.306 126.429 192.417 123.054C195.665 113.076 188.464 107.392 174.192 108.653Z" fill="black"/>
<path d="M25.0988 109.423C13.1339 113.482 -1.75808 132.135 1.36134 139.164C2.92105 142.668 5.44222 143.074 12.0229 140.809C18.3045 138.651 21.1462 138.245 25.633 138.886C31.1881 139.677 33.2179 138.929 33.2179 136.088C33.2179 131.109 22.7272 129.571 11.9161 132.968C9.95042 133.588 9.95043 133.588 10.5059 132.498C14.2877 124.999 25.2698 114.636 30.2053 113.91C32.8119 113.525 33.6238 110.619 31.4659 109.295C30.3762 108.632 27.2354 108.696 25.0988 109.423Z" fill="black"/>
<path d="M123.853 109.747C118.405 110.452 115.072 114.447 117.721 117.075C118.64 118.015 119.58 118.144 121.524 117.631C128.105 115.879 131.929 118.101 132.485 123.998C132.635 125.728 132.976 128.442 133.233 130.023C134.451 137.651 134.045 138.121 121.631 143.719C116.375 146.09 111.119 146.005 106.162 143.462C101.504 141.069 99.0046 144.06 102.786 147.522C107.465 151.795 116.055 153.205 122.635 150.748C138.083 145.022 142.249 139.98 140.583 128.997C140.412 127.801 140.155 125.387 140.048 123.656C139.365 113.956 133.062 108.529 123.853 109.747Z" fill="black"/>
<path d="M103.107 118.378C94.7954 120.259 93.3639 127.972 100.244 133.975C101.162 134.787 103.064 136.582 104.474 137.949C112.615 145.876 121.802 143.227 126.673 131.582C128.724 126.69 124.9 124.275 122.208 128.784C119.687 132.971 116.418 135.621 113.661 135.663C112.294 135.663 111.845 135.364 108.747 132.266C107.465 130.963 105.735 129.296 104.944 128.548C103.149 126.861 102.722 126.156 103.256 125.685C104.175 124.874 106.483 124.703 109.217 125.215C114.046 126.134 116.567 124.318 114.58 121.327C113.149 119.148 106.846 117.524 103.107 118.378Z" fill="black"/>
<path d="M173.741 118.997C170.729 120.087 169.105 122.694 169.105 126.497C169.105 128.527 169.105 128.527 168.357 128.527C165.451 128.527 161.605 126.561 160.516 124.51C159.298 122.224 156.178 122.608 155.751 125.129C154.747 131.048 166.263 137.671 173.1 135.129C176.027 134.018 177.245 131.774 177.309 127.352C177.331 124.937 177.416 124.424 177.843 123.484C179.189 120.579 176.754 117.929 173.741 118.997Z" fill="black"/>
<path d="M58.7722 126.174C47.2133 128.011 40.9103 138.887 45.8672 148.437C49.008 154.505 53.388 155.061 58.7295 150.104C62.5326 146.578 65.4597 145.275 68.3869 145.809C72.8951 146.643 74.0488 141.985 69.8397 139.934C65.5238 137.818 59.05 139.955 54.1785 145.083C52.4693 146.899 52.3624 146.899 51.5933 145.403C49.5208 141.322 51.5292 135.853 55.8664 133.78C58.7508 132.391 61.3147 132.306 67.5109 133.332C71.6345 134.015 75.5017 134.208 79.1125 133.887C82.8943 133.545 83.1934 134.015 82.2319 138.737C80.0313 149.463 71.7627 155.766 66.0366 151.087C61.2506 147.198 58.003 152.497 62.5967 156.706C71.4422 164.782 85.8855 155.018 88.6631 139.122C90.3083 129.635 87.7443 126.879 77.3392 126.986C72.2327 127.05 70.8867 126.986 68.1518 126.601C64.306 126.089 60.5028 125.918 58.7722 126.174Z" fill="black"/>
<path d="M92.5289 131.518C91.6101 131.795 91.0333 132.458 90.3068 134.039C89.0035 136.881 88.7898 139.103 88.9821 146.901C89.1317 152.285 88.918 152.649 83.2347 156.879C71.0561 165.959 68.3213 175.083 75.6284 182.304C81.0554 187.667 93.1271 188.607 93.1271 183.65C93.1271 181.792 91.8238 180.83 88.2343 180.018C76.5044 177.39 76.184 171.878 87.2088 163.31C95.4133 156.943 96.6738 154.059 95.3919 144.85C94.7296 140.171 94.7296 137.201 95.3492 135.299C96.0115 133.206 95.6056 131.924 94.1313 131.518C93.2553 131.283 93.3621 131.283 92.5289 131.518Z" fill="black"/>
<path d="M39.9909 134.526C36.0168 137.154 33.8375 145.892 35.6536 151.918C37.021 156.468 39.7131 159.802 44.5845 162.964C47.1484 164.652 47.533 165.058 49.0286 167.686C54.2633 176.958 66.1855 178.475 70.2877 170.399C72.2747 166.489 68.7494 163.455 65.3522 166.147C61.1217 169.48 58.1519 168.583 54.6906 162.942C53.3232 160.742 51.7207 159.011 50.0328 157.921C49.4132 157.537 48.1313 156.704 47.1484 156.084C41.1233 152.238 39.3499 143.628 43.4735 138.158C43.9436 137.538 44.3282 136.812 44.3495 136.555C44.4777 134.034 42.2984 132.987 39.9909 134.526Z" fill="black"/>
<path d="M140.154 148.27C128.68 151.86 127.975 163.761 139.064 166.453C148.422 168.739 153.764 167.735 155.836 163.355C158.037 158.697 154.084 155.407 150.666 159.06C149.683 160.107 149.939 160.086 145.346 159.295C137.804 158.013 137.248 157.372 140.987 154.403C143.914 152.095 144.32 151.582 144.32 150.407C144.299 148.335 142.632 147.48 140.154 148.27Z" fill="black"/>
<path d="M171.561 150.551C169.446 151.149 168.677 153.478 169.659 156.32C170.749 159.503 170.386 160.935 166.967 167.088C166.39 168.135 165.322 170.464 164.596 172.258C161.904 179.01 158.25 180.506 150.601 178.091C147.204 177.002 145.259 176.553 141.542 175.976C131.393 174.374 128.85 172.023 128.316 163.712C127.996 158.777 124.235 157.708 123.402 162.323C121.244 174.096 126.628 180.741 140.345 183.198C144.426 183.946 145.516 184.202 148.913 185.356C160.472 189.244 168.335 185.869 172.864 175.079C173.591 173.348 174.873 170.72 175.706 169.267C178.441 164.46 179.359 161.917 179.359 159.054C179.359 153.734 175.407 149.418 171.561 150.551Z" fill="black"/>
<path d="M29.3739 152.304C24.5452 154.291 18.0073 161.811 16.0202 167.644C14.14 173.157 15.0374 176.404 19.7806 181.147C23.1137 184.481 23.4342 185.057 24.2888 189.523C26.4895 201.125 28.7116 204.607 33.9249 204.586C41.2106 204.564 54.5216 188.412 50.3339 184.673C48.3468 182.899 46.3812 184.075 41.467 189.95C37.2793 194.95 34.6513 197.535 33.7539 197.535C33.2839 197.535 32.4933 194.822 31.831 190.783C30.4209 182.429 29.8012 181.019 25.7417 177.024C22.3873 173.712 22.2377 173.498 22.2591 171.811C22.3018 167.837 27.3655 160.23 32.1515 156.94C36.1896 154.184 33.9462 150.423 29.3739 152.304Z" fill="black"/>
<path d="M113.873 155.315C111.352 156.256 111.245 158.52 113.616 160.849C115.005 162.238 115.625 171.212 114.642 175.998C114.321 177.6 108.382 179.16 102.698 179.16C99.2157 179.16 98.6815 183.198 102.057 184.031C107.506 185.399 115.582 184.523 118.53 182.279C120.966 180.42 121.65 178.647 121.906 173.605C121.992 171.553 122.184 168.755 122.334 167.409C123.21 158.755 119.385 153.286 113.873 155.315Z" fill="black"/>
<path d="M103.51 158.842C101.438 159.483 100.968 161.15 101.822 164.739C102.592 168.008 102.314 168.329 98.9167 168.201C96.3742 168.115 94.3871 167.496 92.3146 166.149C88.2337 163.479 85.8408 167.175 89.6012 170.337C96.4596 176.085 105.861 176.127 108.745 170.401C111.245 165.466 107.655 157.56 103.51 158.842Z" fill="black"/>
<path d="M181.817 172.366C180.215 172.942 180.108 173.263 179.681 179.587C179.51 182.343 179.061 188.112 178.719 192.407C176.519 219.777 176.348 223.686 177.224 225.396C178.506 227.917 180.856 227.639 182.373 224.798C185.001 219.883 186.924 178.284 184.766 173.648C184.21 172.472 182.992 171.938 181.817 172.366Z" fill="black"/>
<path d="M149.749 187.536C148.125 188.07 148.018 189.267 149.214 194.373C149.684 196.403 150.454 200.164 150.924 202.749C151.714 206.979 152.184 210.141 154.47 226.572C155.539 234.221 156.927 236.315 159.726 234.434C162.675 232.49 161.628 219.884 156.906 200.591C154.214 189.545 152.612 186.618 149.749 187.536Z" fill="black"/>
<path d="M170.62 188.091C168.889 188.967 168.804 189.501 168.483 200.419C168.163 211.7 168.419 214.349 170.064 216.315C171.282 217.747 173.355 216.828 174.252 214.435C175.384 211.401 175.299 191.466 174.124 189.202C173.397 187.792 172.03 187.364 170.62 188.091Z" fill="black"/>
<path d="M57.0625 192.279C52.8534 196.723 53.8149 213.324 58.5367 218.153C63.7927 223.537 69.0915 220.418 73.9202 209.073C76.9755 201.894 77.2319 201.659 80.6718 202.983C86.3551 205.163 90.0728 204.757 93.2563 201.594C96.6108 198.24 96.8244 193.134 93.6409 192.535C91.9103 192.215 91.0129 192.792 89.1327 195.398C87.573 197.556 86.4406 197.749 82.7229 196.531C75.4158 194.095 72.3818 196.125 67.9377 206.402C65.6088 211.786 64.0705 214.115 63.3013 213.41C60.9297 211.273 60.011 203.197 61.3143 196.082C62.0407 192.172 59.3914 189.801 57.0625 192.279Z" fill="black"/>
<path d="M124.044 198.413C122.848 199.609 123.147 200.827 126.822 209.78C130.219 218.048 132.484 220.954 134.257 219.287C135.603 218.048 132.911 209.053 128.617 200.528C127.185 197.665 125.54 196.896 124.044 198.413Z" fill="black"/>
<path d="M97.7658 206.171C95.2232 207.09 96.0565 209.205 100.095 212.068C105.479 215.893 111.419 220.935 117.572 226.896C121.824 231.02 123.683 231.874 125.2 230.336C128.169 227.387 119.345 218.072 105.073 209.141C99.9024 205.893 99.2614 205.637 97.7658 206.171Z" fill="black"/>
<path d="M82.1464 210.805C79.9457 211.424 80.0098 214.095 82.2746 216.104C82.7446 216.531 84.3471 217.984 85.8 219.33C98.2776 230.846 111.289 241.572 113.533 242.191C116.246 242.939 117.998 241.785 117.635 239.478C117.208 236.743 115.563 235.183 101.183 223.817C83.9625 210.207 84.0266 210.271 82.1464 210.805Z" fill="black"/>
<path d="M175.899 229.475C173.464 229.945 170.323 231.249 163.55 234.689C149.448 241.825 145.752 242.893 133.851 243.363C120.134 243.897 113.148 247.038 111.161 253.576C108.789 261.417 117.848 267.058 131.052 265.926C148.85 264.387 179.809 250.863 178.784 245.072C178.164 241.547 176.412 241.547 169.618 245.137C149.085 255.948 130.134 261.14 121.267 258.405C113.618 256.033 120.199 252.251 134.813 250.628C148.081 249.153 152.076 247.871 166.755 240.415C177.566 234.924 178.592 234.667 179.019 237.488C179.553 240.949 183.207 241.504 184.083 238.235C185.621 232.616 181.668 228.407 175.899 229.475Z" fill="black"/>
<path d="M184.66 244.755C180.472 246.977 183.442 250.502 195.214 257.254C202.436 261.399 202.778 261.976 201.453 267.403C199.68 274.646 200.278 277.103 205.513 284.282C207.543 287.038 209.209 289.922 209.594 291.268C210.021 292.764 204.017 291.226 195.172 287.551C189.061 285.008 189.253 285.072 188.164 285.371C185.386 286.141 185.792 288.64 189.04 290.756C210.982 305.007 223.717 299.281 211.303 280.756C207.35 274.859 207.265 274.432 208.803 269.005C211.367 259.946 209.081 256.1 196.881 249.028C189.253 244.605 186.668 243.708 184.66 244.755Z" fill="black"/>
<path d="M168.548 259.797C166.775 260.566 166.775 261.762 168.484 265.394C174.231 277.53 177.479 286.162 178.12 290.905C178.419 293.234 178.654 293.021 175.471 293.384C168.569 294.174 166.433 296.631 165.258 305.114C164.104 313.339 162.801 314.28 155.216 312.378C147.567 310.455 143.058 310.647 135.794 313.147C127.376 316.074 126.179 316.01 124.919 312.634C123.145 307.891 123.893 301.759 127.974 288.021C131.585 275.778 131.863 272.958 129.534 271.761C126.265 270.074 122.034 277.829 118.466 291.995C112.334 316.459 119.278 327.206 137.161 320.924C142.076 319.194 143.742 318.831 146.562 318.831C148.913 318.831 149.19 318.895 155.002 320.305C165.877 322.933 171.454 318.574 172.736 306.438C173.313 300.819 173.27 300.905 177.116 300.541C187.435 299.58 187.777 291.717 178.398 272.21C173.206 261.378 171.069 258.707 168.548 259.797Z" fill="black"/>
<path d="M184.552 261.55C182.416 262.32 182.565 263.602 185.45 268.601C190.471 277.297 192.586 279.797 194.958 279.797C199.508 279.797 197.18 273.836 188.569 263.516C187.586 262.362 186.005 261.144 185.535 261.23C185.492 261.23 185.044 261.379 184.552 261.55Z" fill="black"/>
<path d="M159.321 267.402C156.97 269.346 159.406 280.008 162.205 280.008C164.278 279.986 164.598 278.149 163.551 272.209C162.654 267.081 161.415 265.671 159.321 267.402Z" fill="black"/>
<path d="M159.938 289.926C158.913 290.289 157.951 291.485 157.246 293.301C154.896 299.391 153.699 300.117 149.426 298.045C144.576 295.694 142.461 295.908 137.397 299.327C136.222 300.117 135.218 300.673 135.132 300.587C134.727 300.139 134.449 298.194 134.342 295.075C134.214 291.25 134.021 290.631 132.91 290.161C130.282 289.071 128.701 292.19 128.68 298.493C128.637 307.403 133.402 309.796 141.222 304.796C143.786 303.151 143.871 303.13 145.281 303.92C145.922 304.284 146.969 304.882 147.61 305.224C154.554 309.112 161.434 305.672 163.464 297.318C164.746 292.041 163.165 288.751 159.938 289.926Z" fill="black"/>
<path d="M191.347 297.593C189.744 298.17 189.466 299.473 189.894 304.408C190.107 306.972 185.428 309.237 184.723 306.908C183.527 302.934 181.582 301.524 179.104 302.785C177.48 303.618 177.459 305.178 178.933 310.882C180.963 318.702 180.429 324.385 178.078 320.027C174.959 314.237 169.682 317.185 172.63 323.082C175.643 329.193 174.062 333.188 168.464 333.573C164.255 333.872 161.37 331.778 158.956 326.693C156.734 322.035 152.397 322.719 153.23 327.59C155.794 342.546 180.065 344.213 180.6 329.471C180.685 327.12 180.685 327.12 181.732 326.608C185.236 324.877 186.475 322.377 186.518 316.971C186.539 313.467 186.539 313.467 188.398 313.19C189.424 313.04 190.428 312.827 190.663 312.698C191.261 312.399 191.753 312.421 191.753 312.784C191.753 313.275 193.825 316.224 194.573 316.801C200.705 321.48 207.884 315.583 207.499 306.182C207.243 299.366 201.645 298.682 201.154 305.413C200.534 313.681 198.248 312.976 196.133 303.831C194.787 298.084 193.761 296.717 191.347 297.593Z" fill="black"/>
</svg>
