<svg width="121" height="312" viewBox="0 0 121 312" fill="none" xmlns="http://www.w3.org/2000/svg">
<path d="M62.452 1.24594C60.9136 2.16467 55.0594 10.4119 53.2433 14.1937C50.2948 20.3257 50.6366 26.2013 54.162 29.8335C57.7942 33.5725 61.7469 30.3035 58.7984 26.009C56.1277 22.099 56.6405 18.6378 60.8709 12.4844C63.3066 8.93766 63.0502 9.12995 63.7126 10.3905C64.0117 10.9888 65.08 12.7408 66.0842 14.2791C69.6523 19.7274 70.0796 21.6076 68.4772 24.7057C65.956 29.5985 69.8873 33.017 73.37 28.9575C77.4508 24.2143 76.8526 18.8728 71.4257 11.3093C68.7763 7.61297 68.0071 6.20283 67.473 4.19443C66.6824 1.03228 64.6954 -0.142843 62.452 1.24594Z" fill="black"/>
<path d="M13.5242 12.2498C11.7936 13.0403 4.99924 22.5695 2.73445 27.3768C-0.726821 34.7694 0.854255 41.8202 6.79397 45.5378C10.6398 47.9308 12.9046 43.9781 9.657 40.5382C5.57612 36.2009 6.17436 32.4833 12.4773 23.4241C14.1011 21.0953 14.1011 21.0953 15.0198 22.6763C15.5326 23.531 17.0069 25.7744 18.3315 27.6546C22.4552 33.5943 23.1816 35.9659 21.8569 39.4058C20.6604 42.5039 20.6604 43.2944 21.8569 44.4909C24.9977 47.6317 29.5914 42.5039 29.1641 36.3291C28.929 32.6542 27.4334 29.5775 23.1389 23.7874C20.169 19.7706 18.9939 17.7194 18.3529 15.3692C17.541 12.4207 15.7463 11.2669 13.5242 12.2498Z" fill="black"/>
<path d="M105.118 18.3586C102.597 18.9569 96.1661 26.5418 93.6236 31.9046C90.5896 38.3357 91.1879 45.4719 95.2046 50.5356C98.3027 54.467 102.619 51.5826 100.268 47.1598C96.8498 40.7073 97.7686 35.8146 103.815 28.1656C104.627 27.1614 105.418 26.2213 105.588 26.0717C106.016 25.7085 110.887 32.2037 112.233 34.9172C114.242 38.9553 114.306 42.438 112.447 46.1556C109.52 51.9458 115.032 54.1678 118.558 48.6555C122.126 43.1003 120.758 35.1736 114.904 27.546C112.725 24.7043 110.31 21.4994 109.349 20.1534C108.216 18.5936 106.764 17.974 105.118 18.3586Z" fill="black"/>
<path d="M62.2582 29.2593C61.5745 30.0713 61.4036 31.3105 61.5959 33.853C61.7455 35.8614 61.7455 35.8614 60.9122 35.9896C56.4467 36.7374 55.8485 38.9595 56.7458 51.2662C57.6432 63.8294 57.8782 67.0556 58.1774 71.5638C58.5833 77.4822 59.0106 81.6485 59.5448 84.6184C59.9294 86.755 59.9294 86.755 58.6688 87.4173C45.9561 94.1903 51.1053 109.51 66.0827 109.488C80.8252 109.467 87.9828 94.7885 76.723 87.6737C76.0392 87.2464 75.441 86.8404 75.3769 86.7977C75.3128 86.7336 75.206 77.2685 75.1419 65.7309C74.9923 40.6687 75.035 41.0533 72.3216 40.9892C71.8302 40.9679 71.6165 40.9038 71.8515 40.861C73.8386 40.3482 74.5009 37.592 72.9198 36.3956C72.3002 35.9255 71.937 35.8614 69.7363 35.7332C68.3689 35.6691 67.2579 35.5409 67.2579 35.4341C67.2579 30.349 64.3735 26.7595 62.2582 29.2593ZM70.5696 41.7584C69.9927 42.3566 69.8431 42.7199 69.7363 43.7241C69.5013 46.1811 69.1167 69.94 69.2235 77.4394C69.309 85.1525 69.309 85.1525 67.3433 85.1739C65.3563 85.1952 65.3563 85.1952 65.2495 84.1056C65.0144 82.0545 64.694 77.4822 64.4803 73.1662C64.3521 70.816 64.1598 67.4402 64.053 65.6882C63.7752 61.6287 62.6001 44.5146 62.4719 42.8908C62.3651 41.4593 62.0446 41.5661 67.2579 41.267C68.9671 41.1601 70.5696 41.0533 70.8046 41.0533C71.2106 41.0106 71.1892 41.0961 70.5696 41.7584ZM70.9969 93.0579C76.4025 94.9381 76.5093 99.4249 71.2106 101.989C64.6726 105.172 56.0408 101.433 58.4124 96.4337C59.8866 93.357 66.6596 91.5409 70.9969 93.0579Z" fill="black"/>
<path d="M13.8454 42.7174C13.0548 43.5507 12.9266 44.4481 13.0121 48.1444C13.0976 51.0288 13.0976 51.0288 12.0934 51.157C10.1277 51.4347 9.10214 53.1653 9.91404 54.8319C10.5337 56.0925 11.0892 56.1993 16.1956 56.0497C21.7935 55.8788 21.4944 55.6011 21.943 61.4126C22.4772 68.0787 23.9301 109.828 23.6523 110.105C23.6096 110.17 22.8404 110.362 21.9644 110.554C21.0884 110.746 20.1056 110.939 19.8064 111.003C19.2509 111.131 19.2509 111.131 19.1227 109.123C19.0373 108.033 18.7809 104.914 18.5672 102.221C18.3322 99.508 17.6058 90.3847 16.9434 81.9238C15.576 64.1474 15.2128 60.0452 14.8923 59.2546C14.1872 57.3531 11.4524 57.3531 10.555 59.2546C9.57219 61.3485 11.1746 94.3802 13.0976 111.131C13.418 113.844 13.418 113.844 11.431 115.832C1.21813 126.109 12.1361 138.073 27.5836 133.501C41.5356 129.377 43.9499 114.891 31.3227 110.981C30.1262 110.597 30.1262 110.597 29.998 108.332C28.5237 83.6972 28.246 78.5053 27.84 68.9975C27.1563 52.9944 26.3444 50.9006 20.5543 50.4732C18.7168 50.3237 18.9304 50.6442 18.5459 47.2043C18.0758 42.9311 17.5844 42.0765 15.5119 42.0765C14.5932 42.0765 14.3581 42.1619 13.8454 42.7174ZM29.8698 117.84C36.3223 120.041 31.4722 127.091 22.7763 128.181C17.7981 128.801 13.2044 126.472 13.824 123.63C14.8496 119.165 23.9942 115.832 29.8698 117.84Z" fill="black"/>
<path d="M104.095 51.4159C103.347 52.1637 102.321 58.958 102.813 59.7913C102.898 59.8981 102.321 60.0477 101.509 60.1331C97.2577 60.5391 96.4458 61.821 95.8902 69.1068C95.1211 79.3411 95.2065 88.5925 96.1894 101.903C97.1081 114.381 97.1295 113.505 95.8902 114.402C84.5236 122.757 96.2962 137.478 110.505 132.67C120.119 129.423 122.79 117.885 114.863 113.74C114.543 113.569 114.521 113.291 114.735 110.557C115.141 105.087 114.564 66.9702 114.03 64.2995C113.517 61.7569 112.299 60.5818 109.821 60.1972C108.347 59.9622 108.347 59.9622 108.218 56.6291C108.09 52.9969 107.877 51.8859 107.15 51.3731C106.509 50.9244 104.565 50.9458 104.095 51.4159ZM108.795 66.0515C108.923 66.9061 109.094 77.2258 109.265 96.9038C109.415 111.433 109.415 111.433 106.979 111.347C105.633 111.304 104.031 111.347 103.432 111.475C102.3 111.668 102.3 111.668 102.3 109.617C102.279 108.484 102.15 105.258 101.958 102.438C101.317 92.0324 101.339 79.2983 102.022 67.889C102.15 65.6028 102.15 65.6028 104.522 65.5173C105.825 65.496 107.3 65.4319 107.791 65.4105C108.646 65.3678 108.688 65.3891 108.795 66.0515ZM107.62 118.163C112.342 118.911 114.308 122.244 111.445 124.658C105.996 129.273 95.0997 125.085 100.014 120.299C101.958 118.398 104.565 117.65 107.62 118.163Z" fill="black"/>
<path d="M66.0189 111.69C64.9078 112.715 64.9078 112.609 65.7625 125.62C66.7239 140.47 67.3435 144.786 68.7537 146.751C70.6125 149.294 72.9628 148.055 73.6892 144.123C74.437 140.149 72.2363 120.471 70.3134 113.656C69.6297 111.263 67.5145 110.301 66.0189 111.69Z" fill="black"/>
<path d="M105.14 137.046C104.35 137.601 103.794 138.755 103.367 140.806C101.893 147.771 97.7904 150.805 88.8381 151.596C79.8217 152.387 77.1296 154.352 76.0826 160.912C75.7194 163.155 75.7194 163.155 74.8648 162.984C73.4974 162.706 71.724 162.77 69.9079 163.112C67.9422 163.475 68.22 163.668 67.4295 161.382C64.2246 151.831 59.0968 150.271 45.5721 154.779C31.022 159.608 25.4241 157.749 22.8816 147.195C22.5824 145.955 22.2406 144.567 22.1338 144.118C21.621 142.045 19.4844 141.169 18.1597 142.473C15.5317 145.101 18.8648 156.168 23.4584 160.014C29.1418 164.779 35.2952 165.014 47.3028 160.954C58.2208 157.279 59.4172 157.514 61.4897 163.903C62.3016 166.403 62.4085 166.039 60.3573 168.133C54.2253 174.5 53.8194 183.196 59.3959 189.349C60.9556 191.101 60.9129 191.294 57.1097 202.96C49.5889 225.907 49.6958 232.316 57.7934 251.353C60.9556 258.746 64.481 268.19 64.2032 268.489C64.1605 268.531 63.7759 268.403 63.3486 268.232C60.5283 267.057 58.413 269.771 60.2505 272.185C64.481 277.762 82.9411 278.36 84.9708 272.976C85.6332 271.266 84.5008 269.407 82.8129 269.407C82.0224 269.407 82.001 269.472 83.5821 266.181C87.5134 258.019 90.1841 246.204 90.4832 235.649C90.7396 226.483 89.7568 221.249 85.6759 210.074C81.1891 197.746 80.5481 191.636 83.4539 188.538C89.9277 181.594 89.4363 171.381 82.3428 166.018C81.0823 165.078 81.0823 165.078 81.2318 163.497C81.6805 158.647 82.6206 157.942 89.009 157.643C100.205 157.13 106.508 153.348 109.178 145.549C111.08 140.037 108.537 134.674 105.14 137.046ZM76.2536 171.06C82.1719 173.774 82.2146 181.893 76.339 185.696C70.6343 189.392 63.199 186.743 62.3444 180.718C61.3615 173.752 69.6301 168.026 76.2536 171.06ZM76.2749 196.165C76.1681 201.25 76.8518 204.519 79.9712 213.963C86.0391 232.231 85.0349 247.358 76.5313 265.903C75.6553 267.805 74.9502 269.514 74.9502 269.707C74.9502 270.006 74.6511 270.048 72.8137 270.048C70.6771 270.048 70.6771 270.048 70.6771 269.237C70.6771 266.203 68.1559 258.511 63.9468 248.683C57.2593 233.085 56.8961 226.483 61.7034 209.797C63.9468 202.084 64.9296 198.302 65.3783 195.887C65.8484 193.409 65.8484 193.409 67.0235 193.73C69.1815 194.328 76.339 193.879 76.339 193.153C76.339 193.131 76.3177 194.499 76.2749 196.165Z" fill="black"/>
<path d="M62.0651 277.27C61.0823 277.868 60.5481 279.257 60.7191 280.753C61.5523 288.829 76.3802 292.119 82.3841 285.539C85.824 281.778 82.7045 277.847 78.4741 280.625C74.03 283.53 67.9407 282.74 66.146 279.001C65.1845 276.971 63.6034 276.309 62.0651 277.27Z" fill="black"/>
<path d="M89.9094 283.446C88.8625 283.574 88.0292 284.257 87.7942 285.176C86.9182 288.274 89.9094 290.689 100.486 295.475C107.622 298.701 107.793 299.149 102.515 300.901C91.4692 304.576 55.3822 305.645 35.5546 302.846C30.4695 302.141 30.2986 302.333 40.3406 297.504C50.9808 292.398 55.1899 290.133 57.2196 288.381C58.5016 287.291 58.6939 285.433 57.6256 284.386C56.3864 283.146 55.8949 283.275 47.4554 287.056C43.3745 288.894 38.6313 291.009 36.922 291.778C17.8637 300.303 19.3165 308.144 40.3406 310.324C66.0224 312.973 92.687 312.289 103.968 308.679C115.292 305.068 117.664 297.462 109.246 291.629C105.912 289.342 92.3879 283.189 90.9777 283.339C90.8068 283.36 90.3154 283.403 89.9094 283.446Z" fill="black"/>
</svg>
