<svg width="142" height="167" viewBox="0 0 142 167" fill="none" xmlns="http://www.w3.org/2000/svg">
<path d="M73.7428 0.257861C72.5463 0.556984 71.5421 1.34752 70.3029 2.9286C66.5639 7.69319 65.2819 8.22734 58.1457 8.01368C46.9927 7.69319 41.4376 14.6157 45.5612 23.6962C47.185 27.2643 50.8172 26.5165 50.1335 22.7561C49.8557 21.3033 50.3685 18.8462 51.1804 17.6924C52.5478 15.7268 53.5734 15.4917 59.2354 15.8336C66.4998 16.2823 71.4353 14.8935 74.3838 11.6245C74.982 10.9622 75.0461 11.0049 75.6444 13.0347C77.7596 19.9786 77.6955 26.602 75.4734 34.0373C73.0164 42.2205 78.6997 44.3571 82.6524 36.7508C86.5623 29.2086 86.541 20.0427 82.5883 9.03924C79.9816 1.77484 77.4818 -0.703604 73.7428 0.257861Z" fill="black"/>
<path d="M114.447 5.89511C106.178 8.24536 94.1066 24.8253 92.0554 36.7047C91.1153 42.0676 95.7731 42.5376 97.8029 37.2816C99.6617 32.4743 102.076 28.3934 105.794 23.757C107.866 21.1717 111.99 16.8558 111.798 17.4754C107.973 29.3549 111.755 34.675 124.938 36.0637C135.044 37.1107 136.24 39.5677 130.621 47.6868C127.865 51.6608 127.501 53.3701 129.018 54.9298C133.121 59.1175 142.351 47.9004 141.752 39.4823C141.261 32.6452 136.561 28.9489 126.754 27.7524C118.677 26.7482 118.656 26.7482 118.571 24.4193C118.506 22.5391 118.827 20.894 120.152 16.6849C122.694 8.56584 120.387 4.2072 114.447 5.89511Z" fill="black"/>
<path d="M29.6226 25.9153C22.6574 26.9836 17.4013 33.0728 18.3414 38.9698C18.726 41.4269 19.6448 43.3498 21.9736 46.5547C23.9607 49.3323 24.0461 49.9519 23.0206 55.0797C21.525 62.4723 22.1018 66.8951 24.9008 69.6299C28.5971 73.2835 33.3189 70.57 30.9046 66.19C29.9218 64.4166 29.9218 62.0664 30.9046 56.3617C32.1438 49.2041 31.6524 47.1102 27.5715 42.0893C23.4693 37.0469 24.5803 34.0129 31.3533 31.7909C36.6734 30.0389 35.1991 25.0606 29.6226 25.9153Z" fill="black"/>
<path d="M52.1862 31.2763C38.1916 33.4129 32.0809 51.2962 42.9561 58.2615C49.7505 62.5987 59.2156 57.3214 58.4251 49.6296C58.1259 46.8521 55.327 46.6171 54.1305 49.2664C51.6948 54.6506 45.5628 53.2832 45.5628 47.3649C45.5628 39.1604 54.8142 36.1691 61.4804 42.2584C65.3476 45.7838 68.0611 46.1043 68.7448 43.0917C70.0908 37.2374 60.0489 30.0585 52.1862 31.2763Z" fill="black"/>
<path d="M102.609 42.3718C93.3579 43.6752 85.8585 49.9354 86.5635 55.7042C86.9909 59.0372 90.3239 58.9731 94.5758 55.5332C100.024 51.1319 107.566 50.2345 111.006 53.5462C114.19 56.6229 119.189 70.9808 118.313 74.613C117.501 78.0101 110.387 80.8304 102.652 80.8304C100.259 80.8304 99.8104 81.0014 99.3831 82.0269C97.3747 86.8343 111.797 87.6889 119.809 83.2448C126.988 79.2494 128.142 71.814 123.719 58.0758C120.044 46.645 112.416 40.9617 102.609 42.3718Z" fill="black"/>
<path d="M70.711 49.5918C69.5572 50.7455 69.3649 51.6001 69.5359 54.8905C69.835 61.2362 68.6812 62.5395 62.7629 62.5822C57.806 62.6249 56.7163 62.9668 52.9132 65.6803C48.0632 69.1415 44.4096 68.8852 42.4226 64.9111C40.6706 61.4285 36.9102 61.7062 36.9102 65.2957C36.9102 71.9191 45.3497 76.7478 52.6782 74.2907C54.302 73.7566 54.8789 73.4361 58.1906 71.3209C59.8785 70.2526 59.8785 70.2526 63.938 70.1244C71.6297 69.868 75.8602 66.7699 77.6335 60.1038C79.4069 53.3949 74.45 45.8527 70.711 49.5918Z" fill="black"/>
<path d="M9.00533 51.5376C-0.716148 53.9305 -2.08356 62.4769 5.88591 70.8951C8.64211 73.8008 8.53528 73.3094 7.03967 76.4929C4.19801 82.4967 4.41166 86.7485 7.65928 89.6757C12.5948 94.1198 18.9832 89.8466 14.1545 85.3384C12.7444 84.0351 12.8085 82.924 14.5177 79.1209C17.1457 73.2667 16.8039 71.1942 12.3384 66.1946C9.36855 62.8828 8.72757 61.4727 9.64631 60.383C10.971 58.802 13.6631 58.0114 16.0561 58.5242C17.8508 58.9088 18.7909 58.7379 19.5814 57.9473C22.9786 54.5715 15.3937 49.9565 9.00533 51.5376Z" fill="black"/>
<path d="M97.2668 59.4847C88.6991 60.7239 86.0924 72.0692 93.5278 75.8082C102.843 80.466 116.282 71.4709 109.253 65.2748C106.347 62.7323 101.86 65.9372 104.275 68.8216C105.215 69.9753 100.472 71.2573 97.9291 70.5522C93.8482 69.4198 96.2199 64.6979 101.305 63.8219C103.442 63.4373 104.061 62.9459 104.061 61.5999C104.061 59.6129 101.647 58.8651 97.2668 59.4847Z" fill="black"/>
<path d="M34.8811 79.2035C21.5274 82.793 19.6258 96.4671 31.9967 100.057C34.4538 100.783 39.0474 100.869 43.2992 100.292C47.957 99.6507 47.4442 99.5438 50.0509 101.851C53.7044 105.12 56.2042 106.509 59.6014 107.193C71.2031 109.564 79.7708 97.2149 74.3011 86.0619C70.6262 78.4984 62.144 79.524 65.1993 87.1516C69.5793 97.9627 63.4045 102.984 55.1359 95.3134C52.4225 92.7708 51.2687 92.0871 49.068 91.5957C47.3374 91.2325 46.8032 91.2539 41.825 91.9803C36.2058 92.7708 32.018 92.2153 31.8258 90.6556C31.5907 88.6045 36.1417 85.3782 40.2012 84.7159C43.0001 84.2672 43.7907 83.6476 43.8334 81.8529C43.8547 79.0539 39.8593 77.8574 34.8811 79.2035Z" fill="black"/>
<path d="M53.5532 79.8245C49.4509 81.3628 47.9126 85.5505 50.562 87.9435C54.7283 91.7039 62.4841 86.0206 59.4502 81.4483C58.4673 79.9313 55.4547 79.1194 53.5532 79.8245Z" fill="black"/>
<path d="M86.0498 85.4462C83.5286 87.5827 81.4134 96.1718 82.3321 100.659C84.1482 109.59 91.0494 111.235 99.7026 104.782C103.249 102.133 103.164 102.154 108.035 104.034C120.641 108.949 131.922 103.458 129.316 93.672C127.329 86.1726 119.808 86.3649 120.385 93.907C120.727 98.3725 117.137 99.1631 109.873 96.2359C102.993 93.4584 100.344 93.907 94.4038 98.8426C91.5622 101.214 90.5366 101.748 89.7888 101.257C87.6736 99.8681 87.3744 95.2104 89.0624 89.8475C90.3443 85.7453 88.6564 83.2668 86.0498 85.4462Z" fill="black"/>
<path d="M47.4845 110.379C40.0064 113.413 33.0625 120.271 33.0625 124.587C33.0625 129.223 36.6733 130.804 44.8137 129.758C51.9927 128.839 52.1422 128.882 53.3815 132.834C55.5608 139.714 58.2529 142.513 61.7783 141.509C64.1926 140.846 64.8122 138.667 63.4875 135.676C63.0602 134.714 62.3551 132.898 61.8851 131.638C58.7443 122.878 55.4753 120.955 45.7752 122.173C42.1003 122.643 42.2285 122.685 43.5532 121.275C45.4974 119.224 47.3776 117.6 49.7279 115.977C52.8046 113.84 53.0182 113.584 53.0182 112.088C53.0182 109.652 50.903 108.99 47.4845 110.379Z" fill="black"/>
<path d="M68.531 114.373C67.6336 115.335 67.42 117.129 67.014 127.086C65.7321 158.301 70.4112 167.446 87.333 166.848C101.99 166.335 104.297 160.545 99.4902 136.166C96.3921 120.527 94.5333 116.552 90.7942 117.578C87.568 118.433 87.4398 121.702 90.1319 133.068C93.2086 146.037 94.8324 156.549 93.9778 158.131C92.8026 160.353 82.782 160.737 79.3208 158.707C75.8381 156.678 74.6844 149.648 73.4451 122.706C73.0606 114.48 72.7828 113.732 70.2403 113.732C69.2788 113.732 69.0438 113.818 68.531 114.373Z" fill="black"/>
<path d="M122.8 113.881C121.197 114.18 120.343 116.167 120.578 119.073C120.642 120.12 120.663 120.996 120.599 120.996C120.535 120.996 119.723 120.761 118.804 120.483C113.762 118.924 111.219 119.65 109.724 123.111C109.425 123.816 108.485 128.795 108.485 129.671C108.485 130.611 105.365 127.235 104.254 125.098C101.306 119.458 96.9257 122.385 99.6178 128.196C104.276 138.302 113.677 138.58 115.129 128.666C115.471 126.359 115.343 126.444 117.565 127.235C126.112 130.333 132.308 121.851 126.411 115.142C125.342 113.924 124.381 113.603 122.8 113.881Z" fill="black"/>
</svg>
