<svg width="113" height="182" viewBox="0 0 113 182" fill="none" xmlns="http://www.w3.org/2000/svg">
<path fill-rule="evenodd" clip-rule="evenodd" d="M82.6032 2C82.5532 1.95 82.5532 1.94999 82.5532 1.89999C82.9532 1.34999 83.5532 0.9 84.1532 0.75C84.3848 0.7886 84.6164 0.856999 84.871 0.932192L84.871 0.932197C84.9462 0.954403 85.0234 0.977201 85.1032 1C86.1032 1.2 87.1532 1.15 88.1532 1C88.3246 1 88.2022 1.11014 88.1323 1.17312L88.1323 1.17314L88.1322 1.17316L88.1322 1.17319C88.1206 1.18367 88.1104 1.19284 88.1032 1.19998C87.6032 1.79998 86.8532 1.95001 86.1032 2.10001C85.6032 2.20001 85.1032 2.25 84.6032 2.25C84.5222 2.25 84.4418 2.24866 84.3621 2.24606C84.37 2.44144 84.376 2.64296 84.382 2.84859V2.84895C84.4372 4.72701 84.5025 6.94703 86.2032 7.95C86.5782 7.0125 86.6603 5.97736 86.7423 4.94222C86.7915 4.32112 86.8407 3.70003 86.9532 3.10003C86.9032 2.65003 87.8032 2.15001 88.2032 2.05001C88.2774 2.08709 88.2691 2.15168 88.2598 2.22337C88.2566 2.24834 88.2532 2.27417 88.2532 2.30001C88.1279 3.08321 88.1008 3.88604 88.0733 4.6962V4.69629V4.69658C88.057 5.17933 88.0406 5.66467 88.0032 6.15001C87.9283 7.31204 87.1227 8.30545 86.1131 8.87743C86.1448 10.1683 86.0915 11.4592 85.9532 12.75L85.9438 12.7671C85.933 12.7864 85.9217 12.8056 85.9102 12.8246C85.9902 12.8134 86.0712 12.8051 86.1533 12.8C86.4532 12.7625 86.7532 12.8094 87.0532 12.8563C87.1532 12.8719 87.2532 12.8875 87.3532 12.9C87.7533 13 88.1533 13.05 88.5533 13.05C89.0533 13.2 87.4033 14.3 87.2032 14.4C87.1324 14.4354 87.056 14.482 86.9754 14.5311C86.7144 14.6902 86.4088 14.8764 86.1032 14.8C85.9033 14.7 85.6866 14.6334 85.4532 14.6C84.8032 14.45 84.1032 14.3 83.4532 14.55C83.3282 14.6 83.2158 14.6625 83.1033 14.725C82.9908 14.7875 82.8783 14.85 82.7533 14.9C82.1032 14.9 83.8033 13.65 84.0033 13.6C84.1075 13.5359 84.213 13.473 84.32 13.4125C84.297 12.6918 84.3804 11.961 84.4635 11.2336V11.2335V11.2334V11.2333V11.2333V11.2332V11.2331C84.5241 10.7019 84.5845 10.1725 84.6032 9.65004C84.6169 9.49891 84.6798 9.36288 84.7719 9.23987C84.6204 9.196 84.4804 9.13567 84.3511 9.06101C84.3173 9.12454 84.2845 9.18754 84.2532 9.24999C83.3032 11.1 82.2032 12.9 80.8532 14.5C79.3032 16.45 77.4532 18.05 75.4532 19.5C75.304 19.5995 75.1547 19.7017 75.0048 19.8045L75.0046 19.8046C74.2505 20.3213 73.479 20.8498 72.6032 21.1C71.8171 21.0643 73.4314 19.956 74.5079 19.2169C74.9378 18.9218 75.2819 18.6856 75.3532 18.6C77.5532 16.8 79.3532 14.5 80.9032 12.15C81.0131 11.9715 81.1267 11.793 81.2409 11.6135L81.2414 11.6128C81.5431 11.1387 81.8495 10.6575 82.1032 10.15C82.0032 10.2 81.9032 10.275 81.8032 10.35L81.8032 10.35C81.7032 10.425 81.6032 10.5 81.5032 10.55C79.9685 11.5239 78.3989 12.4282 76.8253 13.3348L76.8253 13.3349C75.7331 13.9641 74.639 14.5945 73.5532 15.25C72.5032 15.9 71.4032 16.45 70.2532 16.75C70.2032 16.8 70.0032 16.8 70.0032 16.7C70.1445 16.3702 70.5077 16.1293 70.8001 15.9353L70.8532 15.9C71.4032 15.5425 71.9683 15.2606 72.5319 14.9795L72.532 14.9795C72.9931 14.7495 73.4532 14.52 73.9032 14.25C75.7032 13.1 77.5532 12.05 79.4032 11C79.6851 10.8255 79.9777 10.6655 80.2705 10.5053C81.0686 10.0688 81.8679 9.63158 82.4532 8.89998C82.5788 8.75346 82.9848 8.38787 83.4401 8.03799C82.8568 6.8946 82.7849 5.24593 82.7532 4.2C82.7532 4.04821 82.7476 3.89643 82.7419 3.74656L82.7419 3.74623V3.74616V3.7461V3.74603V3.74596V3.74589V3.74583V3.74576V3.74569C82.7309 3.45156 82.7201 3.16483 82.7532 2.90001C82.7782 2.85001 82.8032 2.81251 82.8282 2.775L82.8283 2.77491C82.8533 2.73745 82.8783 2.69997 82.9032 2.65001C82.9632 2.59004 83.231 2.3702 83.5213 2.17267C83.2118 2.12949 82.9075 2.07022 82.6032 2ZM37.7032 6.25003L37.6549 6.24817L37.5345 6.24354C37.6607 6.38984 37.7428 6.51669 37.7532 6.60008C37.5995 7.10749 37.4883 7.62909 37.3775 8.14888L37.3774 8.14891L37.3774 8.14893C37.138 9.27221 36.9003 10.387 36.2388 11.332C36.8176 11.8723 37.3041 12.5049 37.7907 13.1375C38.0407 13.4625 38.2907 13.7875 38.5532 14.1C40.3532 16.35 42.1532 18.55 44.1532 20.65C44.4532 21 44.6032 21.45 43.9532 21.1C42.8532 20.5 42.0032 19.6 41.2032 18.7C40.9027 18.3351 40.5999 17.9702 40.2963 17.6043L40.2961 17.6041L40.2961 17.6041L40.2961 17.604L40.296 17.604L40.296 17.6039C39.1852 16.2653 38.0634 14.9135 37.0032 13.5C36.9866 13.4833 36.9588 13.4389 36.9311 13.3945L36.931 13.3945L36.931 13.3944C36.8754 13.3055 36.8199 13.2166 36.8532 13.35C37.21 15.8477 38.7605 17.9476 40.2269 19.9336L40.2269 19.9336C40.4043 20.1739 40.5805 20.4125 40.7532 20.65C41.1032 21.1249 41.4281 21.6373 41.753 22.1497L41.7531 22.1497L41.7531 22.1498L41.7532 22.15L41.7533 22.1501L41.7534 22.1502L41.7534 22.1503C42.0783 22.6627 42.4033 23.1751 42.7532 23.65C42.7636 23.6707 42.7846 23.7021 42.8093 23.7389C42.9039 23.8799 43.0514 24.1 42.8532 24.1H42.8032C41.5081 23.5333 40.7043 22.377 39.9147 21.2409L39.9146 21.2407C39.7288 20.9734 39.5437 20.7071 39.3532 20.45C39.0857 20.0738 38.8127 19.6991 38.5389 19.3234L38.5389 19.3234C37.1751 17.4518 35.7944 15.557 35.0032 13.35C34.9205 13.0854 34.8488 12.8154 34.7862 12.5416C34.7582 12.5452 34.7299 12.5477 34.7013 12.549C34.7026 12.5657 34.7032 12.5827 34.7032 12.6001C34.6914 12.5984 34.6796 12.5966 34.6677 12.5947C34.6573 12.6573 34.6365 12.7252 34.6032 12.8001C34.5329 13.2923 34.5059 13.7969 34.4786 14.3051C34.4383 15.0564 34.3976 15.8156 34.2162 16.5548C34.9242 16.9916 35.5787 17.5357 36.0532 18.2C36.1032 18.25 36.1032 18.4 36.0032 18.4H35.9532C35.7294 18.3161 35.5213 18.1695 35.3113 18.0217C35.1459 17.9053 34.9794 17.7881 34.8032 17.7C34.3545 17.4507 33.8438 17.4003 33.339 17.3504C32.8312 17.3003 32.3295 17.2507 31.9032 17C31.6532 16.9 30.2532 15.75 30.6032 15.5C30.9155 15.5625 31.2365 15.6076 31.5625 15.6534L31.5626 15.6534C31.8816 15.6983 32.2054 15.7438 32.5307 15.8069C32.5278 15.7533 32.5348 15.7008 32.5532 15.6501C32.7476 14.8172 32.7878 13.9689 32.8279 13.1222V13.1222C32.8519 12.6141 32.876 12.1067 32.9333 11.6035C31.7197 10.4036 31.9267 8.62346 32.1384 6.80264V6.80263V6.80261V6.80259V6.80257V6.80254V6.80252V6.8025V6.80248V6.80246V6.80243V6.80241V6.80238L32.1384 6.80236C32.2078 6.20551 32.2778 5.6043 32.2983 5.0177C32.0979 4.82086 31.9151 4.61044 31.7532 4.40002L31.7393 4.35904C31.6956 4.23208 31.6674 4.15002 31.8032 4.15002C32.7362 4.26198 33.6971 4.29038 34.6442 4.31838C34.966 4.32789 35.2862 4.33736 35.6032 4.35004C36.0885 4.4247 36.4624 4.72232 36.8287 5.01402C36.9531 5.11302 37.0766 5.21133 37.2032 5.30002C37.2183 5.31503 37.2408 5.33655 37.2687 5.36317L37.2689 5.36342L37.2697 5.36418L37.2698 5.36426L37.2699 5.36432C37.5215 5.60469 38.2025 6.25509 37.7532 6.30002L37.7032 6.25003ZM33.5595 7.57602V7.5761V7.57619C33.5768 8.70388 33.5942 9.83708 33.7532 10.9501C35.3073 9.88672 35.4565 7.98711 35.5961 6.20885L35.6009 6.14762C34.9809 6.10435 34.3616 6.0436 33.7532 5.95001C33.6726 5.92481 33.5929 5.89553 33.5144 5.86261C33.5418 6.42916 33.5506 7.00051 33.5595 7.57329V7.57337V7.57346V7.57354V7.57362V7.57371V7.57379V7.57387V7.57395V7.57404V7.57412V7.57421V7.5743V7.57438V7.57447V7.57456V7.57464V7.57473V7.57481V7.5749V7.57498V7.57507V7.57516V7.57524V7.57533V7.57541V7.5755V7.57559V7.57567V7.57576V7.57584V7.57593V7.57602ZM58.3532 9.55002C58.5032 9.65002 58.4532 9.75004 58.3532 9.85004C55.8032 13.3 60.1032 16.15 63.1532 16.85C63.8532 16.8 61.9532 15.45 61.7032 15.3C61.4291 15.1173 61.1178 15.0273 60.8147 14.9396C60.6202 14.8834 60.4291 14.8282 60.2532 14.75C59.9532 13.95 60.3532 13.05 60.7532 12.35C60.7958 12.2839 60.8365 12.2222 60.8748 12.1641C61.242 11.6082 61.387 11.3886 60.7532 10.8C59.8532 9.90002 60.5032 8.40004 61.2532 7.60004C61.6032 7.25004 62.0032 6.90003 62.4532 6.75003C62.5532 6.70003 62.4532 6.55003 62.4032 6.50003C61.7032 5.60003 60.7032 4.80002 59.6532 4.40002C59.0032 4.40002 58.5032 5.00001 58.1532 5.45001C57.1532 6.65001 57.1532 8.50002 58.3532 9.55002ZM62.8032 13.65C63.9532 13.2 65.6532 11.75 64.7032 10.4C63.5423 9.2765 63.9802 8.91037 64.6934 8.31411C64.9324 8.11431 65.2022 7.88867 65.4532 7.60003C65.8032 7.25003 66.1032 6.75003 66.1032 6.25003C65.9726 6.04094 65.7599 5.8865 65.5438 5.72958C65.3466 5.58629 65.1464 5.44094 65.0032 5.25003C64.1532 4.40003 64.9532 4.45002 65.6032 4.90002C68.4032 6.60002 69.6032 8.30001 66.4032 10.55C65.9509 10.7967 66.2088 11.1111 66.4537 11.4097C66.5066 11.4742 66.5588 11.5379 66.6032 11.6C67.8532 13.15 66.1032 15.15 64.5532 15.5C64.2032 15.45 61.9032 13.85 62.8032 13.65ZM67.0533 15.4C67.3533 15.75 67.7032 16.05 68.1032 16.2H68.1533C68.21 16.2 68.2507 16.1516 68.2935 16.1007C68.3261 16.0619 68.36 16.0216 68.4033 16C69.3532 15.15 70.4033 14.15 70.5033 12.8C70.5033 11.45 69.2033 9.8 68.1533 9.1C67.7109 8.91569 68.1382 9.35643 68.4334 9.66088C68.5386 9.76938 68.627 9.86058 68.6533 9.89999C70.4033 12.1 68.6532 13.8 66.9532 15.25C66.9532 15.3 67.0033 15.35 67.0533 15.4ZM56.4779 23.3547C56.1115 25.119 55.8407 26.4231 59.2532 28.25H59.3532C59.4032 28.25 59.5032 28.25 59.4532 28.1C58.5968 26.7542 58.8381 25.6662 59.0749 24.5985C59.4187 23.0483 59.7529 21.5411 56.7032 19.35C56.1289 18.7757 56.1654 17.9774 56.2021 17.176C56.2229 16.7216 56.2437 16.2662 56.1532 15.85C55.8532 13.35 53.4532 11.6 51.3032 10.65C50.1032 10.4 52.5532 12.4 52.9032 12.5C53.4269 12.8625 53.4962 13.6144 53.5557 14.259C53.57 14.4146 53.5838 14.5639 53.6032 14.7C53.3032 17.2 54.4032 18.5 56.3032 19.85C56.4786 20.0254 56.5771 20.2777 56.6661 20.5057L56.683 20.5488L56.7032 20.6C56.8275 21.6716 56.643 22.5599 56.4779 23.3547ZM53.4532 20.85C52.2032 20.3 50.5032 19.3999 50.2532 17.9499C50.1987 17.7137 50.2366 17.385 50.2758 17.0455C50.3445 16.4508 50.417 15.8228 50.0032 15.6C49.1032 15 48.0032 14.25 47.9032 13.1C47.9032 12.6 48.1532 12.1 48.5032 11.75C48.5346 11.7186 48.5857 11.7463 48.6317 11.7713C48.659 11.7861 48.6846 11.8 48.7032 11.8C49.0532 11.95 49.4032 12.2 49.6032 12.5C49.6532 12.55 49.5532 12.6499 49.5032 12.6999L49.5032 12.6999C49.2532 13.0999 49.0532 13.65 49.2032 14.15C49.3298 14.7829 49.8169 15.1154 50.3096 15.4516C50.5953 15.6467 50.8829 15.843 51.1032 16.1C51.6865 16.5739 51.6319 17.2604 51.5788 17.927C51.5591 18.1747 51.5397 18.4197 51.5532 18.65C51.6032 19 51.7032 19.4 51.9532 19.65C52.0029 19.6748 52.0531 19.6997 52.1036 19.7247C52.5611 19.9512 53.043 20.1897 53.4032 20.5499C53.4169 20.5774 53.442 20.6125 53.4681 20.6489C53.5367 20.7448 53.612 20.85 53.5032 20.85H53.4532ZM44.9532 14.15C42.9032 16.9 45.3532 20.25 48.0532 21.3H48.1032C48.5032 21.3 48.0032 20.8 47.8532 20.65C46.4532 19.35 46.8532 16.95 48.2032 15.75C48.4956 15.3115 46.6511 14.1607 46.1867 13.871L46.1532 13.85C45.6032 13.5 45.2532 13.6 44.9532 14.15ZM71.8205 60.4904V60.4908C71.8512 63.0315 71.8818 65.5699 71.9532 68.1C72.0225 68.8845 72.0092 69.7328 71.9957 70.5953C71.9843 71.3219 71.9727 72.0586 72.0102 72.7756C69.1961 72.8836 66.382 73.0456 63.5679 73.2076C61.0797 73.3509 58.5915 73.4941 56.1032 73.6C50.8854 73.8345 45.6675 73.794 40.4496 73.539C40.4103 69.1145 40.2345 64.7069 40.0586 60.2953L40.0585 60.293C39.9916 58.6142 39.9246 56.9348 39.8651 55.2537C41.0848 56.9983 42.8035 58.4376 44.7532 59.25C45.5032 59.55 46.3032 59.7 47.1032 59.7C49.8032 59.7 52.4532 57.9 53.5532 55.3C56.1532 58.25 60.9532 61.15 62.6532 55.4C66.2207 59.2846 70.1653 60.4667 71.7715 56.8037C71.7909 58.0327 71.8057 59.2618 71.8205 60.4904ZM74.4208 64.4984C74.5749 67.2597 74.7286 70.0145 74.8204 72.6878C75.6313 72.6688 76.4423 72.6557 77.2532 72.65C84.4032 72.05 93.4032 74.25 92.0532 83.25C91.9041 84.5768 91.745 85.9221 91.5846 87.2788L91.5843 87.2819C90.9022 93.0518 90.1959 99.0266 90.1206 104.655C92.0147 105.443 93.68 106.87 95.0033 108.4C96.3413 110.073 96.4462 112.339 96.5402 114.37L96.5533 114.65C96.7033 121.1 96.5533 133.4 93.2533 138.6C91.8532 137.9 90.3032 136.75 89.6532 135.25C89.6745 135.122 89.6958 134.994 89.7172 134.864C89.8468 134.08 89.9816 133.265 90.1532 132.45C91.0532 128.2 91.6532 123.85 91.9032 119.5C92.1032 116.6 92.2033 113.7 92.0533 110.85C92.0257 110.712 92.0095 110.403 91.99 110.03L91.99 110.03C91.9389 109.053 91.8652 107.641 91.5033 107.75C91.0511 107.75 90.5997 107.758 90.1488 107.773C90.1626 108.184 90.1806 108.594 90.2032 109C89.5166 108.698 88.9318 108.313 88.4489 107.858C86.4562 107.991 84.4718 108.227 82.4863 108.463C79.9834 108.761 77.4787 109.059 74.9532 109.15C65.2929 109.661 55.5893 109.611 45.9228 109.561L45.9129 109.561L45.9036 109.561L45.8943 109.561L45.8849 109.561L45.8755 109.561L45.866 109.561C45.1449 109.557 44.424 109.554 43.7032 109.55C41.6032 109.55 39.5032 109.538 37.4032 109.525C35.3032 109.513 33.2032 109.5 31.1032 109.5C28.1366 109.567 25.1866 109.717 22.2532 109.95C20.9532 110.25 19.9532 109.8 19.1032 108.75C19.0532 108.7 18.9532 108.55 18.9532 108.5C18.9907 108.425 19.0283 108.434 19.0658 108.444C19.0783 108.447 19.0907 108.45 19.1032 108.45C20.2551 108.382 21.3839 108.269 22.5054 108.156L22.5056 108.156L22.5059 108.156L22.5061 108.156L22.5063 108.156L22.5065 108.156L22.5068 108.156L22.507 108.156L22.5072 108.156L22.5075 108.156L22.5077 108.155L22.5079 108.155L22.5081 108.155L22.5084 108.155L22.5086 108.155L22.5088 108.155L22.5091 108.155L22.5093 108.155L22.5095 108.155L22.5098 108.155L22.51 108.155L22.5102 108.155L22.5104 108.155L22.5107 108.155L22.5109 108.155L22.5111 108.155L22.5114 108.155L22.5116 108.155L22.5118 108.155L22.512 108.155L22.5123 108.155L22.5125 108.155L22.5127 108.155L22.513 108.155L22.5132 108.155L22.5134 108.155L22.5136 108.155C23.0446 108.101 23.5739 108.048 24.1032 108C29.9878 107.55 35.8724 107.316 41.757 107.081C44.3724 106.977 46.9878 106.873 49.6032 106.75C52.3279 106.584 55.0565 106.449 57.7867 106.313C64.9265 105.959 72.0779 105.604 79.2032 104.7C79.9362 104.631 80.6745 104.544 81.4156 104.457C83.1865 104.248 84.9737 104.037 86.7443 104.07C86.724 103.739 86.7269 103.398 86.7532 103.05C86.6199 99.1407 87.0787 95.2314 87.5334 91.3571L87.5334 91.357C87.5905 90.8708 87.6475 90.3851 87.7032 89.9C87.7895 88.3811 88.0128 86.8265 88.2375 85.2629C88.6636 82.2969 89.0943 79.2984 88.6032 76.45C84.1016 75.5266 79.5001 75.5191 74.8948 75.7068C74.9047 76.4303 74.908 77.1452 74.9033 77.85C73.8154 77.3619 73.1283 76.652 72.6964 75.8083C72.1754 75.8345 71.6546 75.8617 71.1341 75.8889C69.0159 75.9996 66.9025 76.1101 64.8032 76.15C57.5532 76.55 50.3532 76.6 43.1032 76.25C41.1153 76.2291 39.1361 76.0067 37.1583 75.7845H37.1583H37.1582H37.1581H37.1581H37.158H37.1579H37.1579H37.1578H37.1577H37.1576H37.1576H37.1575H37.1574H37.1574H37.1573H37.1572H37.1572H37.1571H37.157H37.157H37.1569H37.1568H37.1568H37.1567H37.1566H37.1565H37.1565H37.1564H37.1563H37.1563H37.1562H37.1561H37.1561H37.156H37.1559H37.1559H37.1558H37.1557H37.1557H37.1556H37.1555H37.1554H37.1554H37.1553H37.1552H37.1552H37.1551H37.155H37.155H37.1549H37.1548H37.1548H37.1547H37.1546H37.1546C34.4079 75.4758 31.664 75.1674 28.9032 75.4C26.1303 75.5364 26.0437 78.4003 25.9757 80.6479L25.9757 80.648L25.9757 80.6482L25.9757 80.6484C25.9689 80.8729 25.9623 81.0912 25.9532 81.3C25.7893 87.0787 26.398 92.7902 27.0084 98.5172L27.0084 98.5173L27.0084 98.5178L27.0085 98.5184L27.0085 98.519L27.0086 98.5195L27.0087 98.5201L27.0087 98.5207L27.0089 98.5223C27.143 99.7805 27.2772 101.039 27.4032 102.3C27.4532 102.95 27.5532 103.6 27.7032 104.25C27.4032 104.9 25.4032 102.55 25.5532 102.05L25.3961 100.83C24.5452 94.231 23.6887 87.5877 23.4532 80.9C23.4492 80.494 23.4415 80.0956 23.4339 79.7066C23.346 75.2088 23.2826 71.9637 29.4032 72.7C32.6607 73.0294 35.9182 73.2918 39.1757 73.4725C38.6868 72.9461 38.2646 72.3217 38.3532 72.1L38.3497 71.9893C38.2009 67.3754 38.0505 62.7131 37.7033 58.1C37.6785 56.6403 37.5344 55.1133 37.3883 53.5651C36.9439 48.8557 36.481 43.9506 39.3032 40.15C41.5033 38.7 44.1533 38.75 46.8032 38.8C47.8032 38.85 48.7532 38.85 49.7032 38.8C51.6366 38.8167 53.5755 38.8167 55.5163 38.8167H55.5169C58.4069 38.8167 61.301 38.8167 64.187 38.8717C63.869 38.5613 63.5866 38.2208 63.3532 37.8501C63.1532 37.4001 63.1532 36.95 63.1532 36.45C63.2202 35.7132 63.2423 34.9539 63.2646 34.1872L63.2646 34.1866C63.2756 33.8089 63.2867 33.4295 63.3032 33.05C63.9032 33.05 65.1032 34.0501 65.4532 34.6001C65.5528 34.9983 65.5201 35.4186 65.487 35.8463L65.4869 35.8465C65.4701 36.0631 65.4532 36.2816 65.4532 36.5001C65.4349 37.1297 65.4067 37.5861 65.3858 37.924C65.3495 38.5108 65.3353 38.7404 65.4338 38.8991C66.0074 38.9134 66.5806 38.9302 67.1533 38.95C73.7399 38.9919 73.8143 45.6165 73.8744 50.9672C73.8859 51.9935 73.8969 52.9729 73.9532 53.85C74.0192 57.3 74.2203 60.9045 74.4208 64.498L74.4208 64.4984ZM71.643 51.4445C71.5272 48.1174 71.328 44.7982 70.9532 41.5C67.5845 41.2813 64.2158 41.3305 60.8471 41.3797H60.8469C60.3657 41.3867 59.8845 41.3938 59.4033 41.4C57.2033 41.45 54.9533 41.5 52.7533 41.5H51.4033H51.4032C43.2532 41.5 39.7533 41.5 39.7533 51.7C39.7656 52.1599 39.7789 52.6196 39.793 53.0792C41.1688 57.3892 44.9886 59.7045 49.5032 55.8C50.5532 54.75 51.2532 53.4 51.7532 52C51.8032 51.8 52.0032 51.7 52.1532 51.85C53.5402 52.4123 54.1122 53.6211 54.6909 54.8441L54.6909 54.8441C54.8841 55.2523 55.078 55.6621 55.3032 56.05C56.6032 57 58.5032 56.35 59.3032 55.05C59.9532 54.1 60.4032 52.9 60.4532 51.75C60.3532 51.5 60.6032 51.45 60.7532 51.6C61.8532 52.15 62.9032 53.05 63.1032 54.3C63.7032 56.4 66.7032 57.7 68.4032 56C69.4629 54.7707 69.6601 53.0744 69.848 51.4592L69.848 51.459V51.4589L69.848 51.4587C69.8817 51.1688 69.9151 50.8815 69.9532 50.6C70.0369 50.1256 70.9305 50.7258 71.643 51.4445ZM29.3032 81.7999C30.1032 86.1999 33.0032 90.45 37.1532 92.35C37.8532 92.7 38.6032 92.85 39.3032 92.85C42.5532 92.85 45.3032 89.6499 47.1532 87.0499C51.7532 92.0999 59.4532 93.7499 64.3032 87.6999C68.0532 92.1499 74.6032 91.75 78.7532 88.1C80.1532 86.95 81.6032 85.5499 82.1032 83.7999C81.5032 82.7499 80.4532 81.9 79.4032 81.35C79.0112 81.1213 78.8966 81.469 78.7806 81.8212C78.7191 82.0079 78.6572 82.196 78.5532 82.2999C76.0532 86.3499 70.4532 89.9 65.7032 87.85C65.3532 87.2 65.3532 86.4499 65.4532 85.6999C64.8532 84.7999 63.8032 83.7 62.7032 83.5C60.7532 87.55 55.7532 90.15 51.3032 88.85C49.7706 88.6967 48.8643 87.5647 47.9645 86.4407C47.1029 85.3645 46.2472 84.2956 44.8532 84.1C44.4233 84.5936 44.0137 85.1176 43.6018 85.6445C42.7201 86.7724 41.8278 87.9139 40.7032 88.7999C35.2032 92.9999 32.8532 88.4499 31.7032 83.4499C31.4032 82.9999 29.6532 81.1499 29.3032 81.7999ZM19.0032 143.2C19.6532 144 20.5032 144.75 21.4532 145.15H21.5532C21.6765 145.15 21.6647 144.981 21.6565 144.865C21.6548 144.84 21.6532 144.818 21.6532 144.8C21.6532 143.1 21.6699 141.383 21.7032 139.65C21.8032 134.45 21.4532 129.2 20.7032 124C20.6157 123.513 20.5313 123.025 20.447 122.538L20.4469 122.537C20.1938 121.075 19.9407 119.613 19.6032 118.15C19.5421 117.926 19.4977 117.694 19.4529 117.46L19.4529 117.46C19.3876 117.12 19.3218 116.776 19.2032 116.45C18.9532 116.15 18.6532 115.85 18.3532 115.8C18.2532 115.8 18.3032 115.9 18.3532 115.95C18.6865 117.583 18.9699 119.217 19.2032 120.85C19.5365 123.35 19.7032 125.867 19.7032 128.4C19.7377 131.122 19.5109 133.82 19.2848 136.511L19.2848 136.512C19.1828 137.725 19.0809 138.938 19.0032 140.15C18.9365 140.95 18.8865 141.75 18.8532 142.55C18.8032 142.75 18.8532 143 19.0032 143.2ZM32.8532 133.35C29.8032 132.25 27.2032 130.05 25.3032 127.45C24.7532 126.75 22.3032 122.7 24.9032 124.2C25.0294 124.291 25.1782 124.394 25.3411 124.507C26.3397 125.198 27.8672 126.254 27.9532 127.2C27.8062 127.2 27.8483 127.362 27.8809 127.488C27.8927 127.533 27.9032 127.574 27.9032 127.6C28.2032 128.45 28.6532 129.3 29.2532 130.05C31.6032 130.95 34.3032 130.3 36.5032 129.15C39.5032 127.6 42.1532 125.45 44.6532 123.25C44.8657 123.087 45.072 122.912 45.2782 122.737C45.897 122.212 46.5157 121.687 47.3032 121.5C50.2032 121.5 52.8032 124.85 54.4032 126.95C55.8532 127.6 57.6532 127 59.0032 126.3C61.3532 125 63.2032 123 64.9032 120.9C65.7532 119.8 66.8532 118.4 68.4032 119.4C70.1532 120.35 71.6532 121.7 72.9032 123.25C73.0604 123.461 73.2111 123.668 73.3577 123.869C74.8432 125.905 75.9041 127.36 78.9532 126.95C81.6923 126.42 82.4796 123.548 83.1432 121.127C83.2306 120.808 83.3159 120.497 83.4032 120.2C84.2532 119.7 86.8032 122.2 87.2532 122.9C87.4338 123.189 87.3535 123.504 87.2761 123.807C87.2464 123.924 87.2171 124.039 87.2032 124.15C86.7032 126.65 85.8532 129.9 82.9532 130.45C77.7032 130.9 73.5032 126.25 70.4032 122.8C69.7216 123.455 69.0675 124.155 68.412 124.857C66.5672 126.831 64.7119 128.817 62.2032 129.85C57.7532 131.95 53.4532 128.1 50.8532 124.8C49.3912 125.704 47.9474 126.868 46.4779 128.052C43.0726 130.795 39.5295 133.65 35.3032 133.65C34.5032 133.65 33.6865 133.55 32.8532 133.35ZM57.4568 34.1423C55.5958 32.9909 54.0979 31.1323 53.1532 29.2C53.1352 29.1519 53.1106 29.09 53.082 29.0179C52.8726 28.4904 52.4453 27.4139 52.7532 27.15C53.8532 27.5 54.9532 28.3 55.6032 29.25C55.739 30.9697 56.653 32.6074 57.9374 33.7555C60.2785 31.7375 61.4128 28.5016 61.7032 25.5C61.7708 24.8691 61.747 24.228 61.7234 23.5905C61.6945 22.8134 61.6659 22.0416 61.8032 21.3C62.151 21.2614 62.4688 21.5212 62.7568 21.7567C62.8415 21.826 62.9237 21.8932 63.0032 21.95C63.8726 22.6383 63.8497 22.8541 63.7901 23.4152C63.7674 23.6286 63.7395 23.8919 63.7532 24.25C63.9032 26.95 63.6532 29.7 62.3532 32.1C61.4032 33.9 60.0032 35.75 58.0032 36.4C57.3532 36.15 56.8032 35.65 56.3532 35.15C56.3032 35.05 56.2532 34.95 56.2532 34.9C56.4452 34.732 56.6832 34.5986 56.9286 34.4611C57.1056 34.3618 57.2866 34.2604 57.4568 34.1423ZM68.8032 21C67.8032 20.65 66.9032 19.95 66.2532 19.15C66.0032 18.95 65.5032 18 66.2032 18.1C66.6032 18.2 67.0032 18.5 67.3032 18.75C67.3192 18.7181 67.3358 18.6842 67.3531 18.649C67.5524 18.2427 67.8431 17.65 68.3032 17.65C68.9032 17.9 69.8532 18.7 70.0532 19.35C70.0532 19.4167 70.0365 19.4834 70.0032 19.55C70.0032 19.6167 69.9865 19.6834 69.9532 19.75C69.8532 20.05 69.6032 20.3 69.3532 20.5C69.3426 20.5106 69.3315 20.5223 69.3198 20.5345C69.221 20.6384 69.0821 20.7842 68.9032 20.65C68.8832 20.64 68.8592 20.626 68.8352 20.612C68.7392 20.556 68.6432 20.5 68.8032 20.7C68.9032 20.75 69.0032 21.05 68.8532 21.05C68.8199 21.05 68.8032 21.0334 68.8032 21ZM49.4032 36.6C48.7032 36.35 48.1032 35.85 47.6032 35.3C47.5532 35.25 47.5032 35.15 47.5032 35.05C47.6032 34.7833 47.7199 34.5 47.8532 34.2C48.9532 31.6 49.8032 28.6 49.0532 25.8C48.4532 25.8 47.9532 26.35 47.6032 26.85C47.6032 26.9 47.5532 27.05 47.4532 27.05C47.2784 27.05 47.128 26.9522 46.985 26.8592C46.9235 26.8192 46.8634 26.7801 46.8032 26.75C46.7424 26.6994 46.6673 26.6446 46.5865 26.5857C46.2686 26.3541 45.8633 26.0588 45.9032 25.7C45.9032 25.6849 45.9078 25.6651 45.9128 25.6436C45.9243 25.594 45.9381 25.5349 45.9032 25.5L45.7032 25.75C45.2032 26.5 44.7532 27.3 44.5032 28.15C44.2042 28.15 43.9417 27.9311 43.7157 27.7426C43.6772 27.7104 43.6397 27.6792 43.6032 27.65C43.5901 27.6402 43.5763 27.6301 43.5621 27.6198L43.5315 27.5978C43.3313 27.4541 43.07 27.2665 43.2032 27C43.4032 26.3667 43.6699 25.75 44.0032 25.15C44.8032 23.6 45.3532 23.2 46.8032 24.45C46.816 24.4628 46.8287 24.4853 46.8423 24.5092C46.882 24.5793 46.9287 24.6618 47.0032 24.55C48.2032 23.95 49.4032 25.05 50.2032 25.8C52.3032 28.35 51.1532 32.6 50.1032 35.4C49.9365 35.8 49.7532 36.1833 49.5532 36.55C49.5532 36.5833 49.5365 36.6 49.5032 36.6H49.4032ZM19.3032 57.05C16.7532 60.95 22.4532 64.55 25.6532 65.5C26.3532 65.7 27.0532 65.8 27.7532 65.8C29.7032 65.8 31.6032 65.1 33.3532 64.25C33.4532 63.6 31.0532 61.9 30.3532 61.85C27.8032 62.75 25.1032 63.7 22.4532 62.8C21.2532 61.4 22.0032 58.95 23.3032 57.75C23.3241 57.7291 23.3428 57.7082 23.3607 57.6883C23.4284 57.6126 23.4845 57.55 23.6032 57.55C24.1032 57.5166 24.6032 57.4166 25.1032 57.25C26.2982 57.1172 24.8291 56.0833 24.1986 55.6396C24.1168 55.582 24.0491 55.5344 24.0032 55.5C23.095 54.7892 22.4051 54.9828 21.5641 55.2187C21.3402 55.2816 21.1055 55.3474 20.8532 55.4C19.7032 55.4 18.5532 55.3 17.4532 55C16.4032 50.7 21.8032 45.1 25.8532 44.4C26.5032 44.3 27.1532 44.3 27.7532 44.4C27.7752 44.4 27.8068 44.4048 27.8423 44.4102C27.9682 44.4294 28.1422 44.456 28.1032 44.3C27.7032 43.7 27.0032 43.25 26.4032 42.9C24.0032 38.95 28.8032 35.35 32.3532 34.65C34.9032 34 36.9032 34.3 38.5032 34.65C38.6426 34.6749 38.7789 34.6999 38.9123 34.7244L38.9137 34.7246L38.9163 34.7251L38.9174 34.7253C41.459 35.192 42.9213 35.4604 44.2032 30.9499C44.4532 30.2999 42.6032 29.1999 42.0532 28.9499C41.9532 28.8499 41.5032 28.65 41.5532 28.9499C41.5205 29.0994 41.4878 29.2584 41.4538 29.424C41.1234 31.0312 40.6664 33.2546 38.8532 33.3C38.4311 33.2531 38.0062 33.2008 37.5797 33.1483C34.8232 32.809 31.9945 32.4608 29.3532 33.5C25.5032 34.55 21.0532 39.25 25.2032 42.7C20.6032 42.4 15.9032 46.65 14.5032 50.85C14.1032 52 14.2032 53.2999 15.1032 54.2C16.2532 55.45 17.7032 56.45 19.3032 57.05ZM51.5032 155.8L51.49 155.799C42.2887 155.099 27.1499 153.947 20.1532 147.7C20.1032 147.55 20.3532 147.65 20.4032 147.7C20.5934 147.814 20.7763 147.943 20.9602 148.072C21.2599 148.283 21.5624 148.495 21.9032 148.65C25.6532 150.85 29.9032 151.75 34.1032 152.45C47.9032 154.6 62.3032 154.3 75.9032 151.1C78.956 150.244 81.8701 149.055 84.7902 147.864L84.7921 147.863C85.7932 147.454 86.7949 147.046 87.8032 146.65C88.3136 146.267 88.8601 146.68 89.3197 147.028C89.4005 147.089 89.4785 147.148 89.5532 147.2L89.5804 147.222L89.623 147.255C89.6503 147.276 89.6783 147.298 89.7069 147.32L89.7969 147.388C90.2779 147.755 90.8608 148.198 90.9032 148.75C86.2532 151.05 81.5032 153.25 76.4032 154.3C70.0032 155.5 63.4532 155.9 56.9032 155.9C55.1032 155.9 53.3032 155.867 51.5032 155.8ZM17.6474 102.474C18.1294 103.875 18.5701 105.156 20.2032 105.7H20.2532C20.4483 105.7 20.3474 105.467 20.253 105.25C20.2022 105.133 20.1532 105.02 20.1532 104.95C18.9532 101.35 17.1032 97.7501 13.9532 95.5001C13.7532 95.3501 11.9032 94.1501 12.1032 94.7501C12.4703 95.2548 12.9743 95.5596 13.475 95.8623C14.0655 96.2194 14.6515 96.5737 15.0032 97.2501C16.0532 98.5501 16.8032 100.05 17.3532 101.65C17.4589 101.926 17.5539 102.203 17.6474 102.474ZM13.3032 92.4499C7.65322 90.1499 9.65322 83.7 13.4032 80.5C13.9032 80.35 17.0032 82.6 16.0032 83.1C13.7032 85.5 12.3032 89 13.5532 92.25C13.6032 92.4 13.5032 92.4499 13.4032 92.4499H13.3032ZM4.25321 91.5C6.65321 91.75 8.95321 92.15 11.0032 93.35C11.0365 93.3833 11.0699 93.4 11.1032 93.4C11.6032 93.4 11.0532 92.7 10.8532 92.5C8.20321 89.75 4.05321 88.1 0.35321 88.35C1.00321 89.7 2.90321 90.95 4.25321 91.5ZM3.55321 105.45C2.80321 105.15 2.10321 104.65 1.65321 104C1.60321 102.85 1.70321 101.7 2.00321 100.65C2.65321 98.4499 4.25321 95.7999 6.80321 95.9999C7.60321 96.3999 8.50321 96.9499 8.90321 97.7499C5.35321 98.1499 3.85321 102.25 3.70321 105.4C3.66988 105.467 3.63654 105.5 3.60321 105.5C3.60321 105.467 3.58654 105.45 3.55321 105.45ZM6.45039 84.9088C7.11997 86.3503 7.82949 87.8777 9.40322 88.45H9.50322C9.72128 88.45 9.51237 88.0424 9.32387 87.6747C9.20981 87.4522 9.10322 87.2442 9.10322 87.15C8.97016 86.8979 8.8371 86.632 8.70074 86.3596C7.86355 84.6869 6.90208 82.766 5.05322 82.25C5.19173 82.7209 5.46835 83.1611 5.74706 83.6047C5.97142 83.9617 6.19713 84.3209 6.35322 84.7L6.45039 84.9088ZM17.3032 92.75C16.8532 92.85 16.4532 92.8 16.0532 92.5C15.8032 92.35 14.4032 91.4 14.7032 91.1C15.8532 90.9 16.9532 91.15 17.9532 91.75C18.3032 91.8 21.0032 93.5 20.2532 93.65C20.0308 93.5564 19.8111 93.449 19.591 93.3414C18.8709 92.9895 18.1457 92.6351 17.3032 92.75ZM10.8032 100.95C10.9032 101.85 12.2032 102.55 13.0032 102.95H13.1032C13.1366 102.95 13.1699 102.933 13.2032 102.9C13.2316 102.56 13.2519 102.22 13.2721 101.881C13.3233 101.024 13.374 100.174 13.5532 99.35C13.1532 98.55 11.9532 97.6499 11.1532 97.45C10.8454 98.134 10.8417 98.9819 10.8381 99.8175C10.8365 100.203 10.8348 100.587 10.8032 100.95ZM102.003 87.35C99.0532 86.4 98.3032 82.8 99.0532 80.05C99.6 77.5438 100.645 78.4013 101.961 79.4813C102.09 79.5864 102.22 79.6936 102.353 79.8C102.553 79.95 103.603 81 102.803 80.8C101.603 82.25 101.503 84.45 101.953 86.2C101.934 86.2971 102.005 86.4922 102.079 86.6945C102.195 87.0133 102.317 87.35 102.103 87.35H102.003ZM111.432 89.0991C111.858 89.5478 112.286 89.998 112.853 90.25H112.903C113.053 90.25 112.953 90.05 112.903 90C111.353 88.25 109.453 86.45 107.003 86.1499C106.203 86.1 105.303 86.1499 104.553 86.4499C104.476 86.7592 104.847 87.0685 105.135 87.3084C105.219 87.3788 105.297 87.4432 105.353 87.5C105.416 87.5378 105.486 87.5916 105.559 87.6484C105.777 87.8168 106.029 88.0121 106.253 87.8999C107.653 87.35 109.403 87.5 110.653 88.35C110.931 88.5721 111.181 88.8354 111.432 89.0991ZM107.003 99.6C106.103 99.15 104.503 98.1 104.503 97C104.753 95.2 104.203 93.5 103.353 91.9C103.253 91.75 103.203 91.55 103.453 91.6C105.953 92.7 107.353 95.6 107.353 98.25C107.319 98.3515 107.314 98.5391 107.309 98.7427C107.297 99.1406 107.285 99.6 107.053 99.6H107.003ZM92.4532 89.15C92.9032 90.1 93.9532 90.8 94.8532 91.2H94.9532C95.0033 91.2 95.0533 91.2 95.1533 91.05C95.9033 90.05 97.2533 89.5 98.5033 89.55C98.5769 89.4396 98.4066 89.2207 98.2917 89.0731L98.2916 89.073C98.2505 89.0201 98.2164 88.9764 98.2032 88.95C97.2032 87.9 95.8033 86.75 94.3033 87.55C93.5533 87.85 92.8532 88.45 92.4532 89.15ZM103.953 81.65C105.203 81 106.553 80.5 107.903 80.2C108.453 80.25 110.703 81.9 110.353 82.4C109.579 82.5721 108.821 82.8924 108.069 83.2097C107.511 83.4454 106.957 83.6795 106.403 83.85C105.803 83.7 103.703 82.25 103.953 81.65ZM101.003 100.7C101.203 100.9 101.403 101.05 101.653 101.15C101.687 101.15 101.703 101.117 101.703 101.05C101.737 100.517 101.77 100 101.803 99.5C101.803 99.2934 101.817 99.1 101.829 98.9132C101.842 98.7383 101.853 98.5692 101.853 98.4C101.853 98.3667 101.837 98.3334 101.803 98.3C101.553 98.05 101.253 97.75 100.903 97.65C100.795 98.1567 100.765 98.8468 100.737 99.4737C100.727 99.7129 100.717 99.9429 100.703 100.15C100.621 100.356 100.775 100.493 100.916 100.619L100.916 100.62C100.947 100.647 100.977 100.673 101.003 100.7ZM97.2032 85.8C96.1032 85.3 94.5532 82.6 94.3032 81.45C95.0993 81.7153 95.4355 82.4118 95.7695 83.1035C95.876 83.3242 95.9823 83.5444 96.1032 83.75C96.1254 83.9049 96.4119 84.3242 96.6985 84.7436L96.6986 84.7437L96.6986 84.7438C97.0595 85.2719 97.4204 85.8 97.2532 85.8H97.2032ZM109.68 94.0505C110.253 94.9255 110.833 95.8105 111.903 96.15H111.953C112.103 96.15 112.103 96 112.003 95.9C110.853 93.9 109.303 92.1 107.353 90.85C104.953 89.4 106.803 91.55 107.753 92.1C108.637 92.4583 109.156 93.2502 109.68 94.0505ZM27.1532 160.95C24.8797 160.574 22.5669 160.32 20.2502 160.066C15.1791 159.511 10.0895 158.953 5.3532 157.1C-3.7968 153.15 0.9032 148.4 7.4032 145.05C7.72323 144.927 8.04629 144.789 8.37164 144.649C9.36788 144.223 10.3855 143.788 11.4032 143.75C11.514 143.797 11.6361 143.846 11.7643 143.897C12.446 144.17 13.3007 144.511 13.5532 145.1C12.0532 145.55 10.6032 146.05 9.2532 146.8C-5.3468 155.6 7.2032 157.45 16.8032 158.4C21.3109 158.887 25.8064 159.556 30.3046 160.226C38.7292 161.48 47.1631 162.735 55.7032 162.8C63.8032 163.7 110.403 157.8 109.603 147.95C109.703 146.05 109.003 143.75 107.203 142.85C105.703 142.35 101.653 139.05 105.903 141.25C111.962 143.903 115.36 150.35 110.15 154.192C110.193 154.228 110.236 154.264 110.279 154.3C110.338 154.35 110.396 154.4 110.453 154.45C110.653 154.6 110.953 154.9 110.603 155.15C106.953 160.65 100.953 164.05 94.5532 165.15C87.6532 166.5 80.7032 167.2 73.6532 167.05C71.4032 167 69.1532 167.1 66.9032 167.25L66.7585 167.257L66.7579 167.257C64.7086 167.355 62.7059 167.45 60.7032 167.45C59.9366 167.45 59.1866 167.433 58.4532 167.4C55.1705 167.193 51.9145 166.759 48.6645 166.326C45.6278 165.921 42.5963 165.517 39.5532 165.3C37.8193 165.163 36.0823 165.057 34.3461 164.95H34.3459H34.3456H34.3454H34.3451H34.3449H34.3446H34.3444H34.3441H34.3438H34.3436H34.3433H34.3431C29.1209 164.632 23.9058 164.313 18.8032 163.15C16.9732 162.652 14.8699 162.392 12.7169 162.125C8.16411 161.561 3.38872 160.969 0.503235 158.05C3.82239 159.462 7.3909 159.977 10.9622 160.492C12.448 160.706 13.9342 160.921 15.4032 161.2C20.8447 162.443 26.3989 162.76 31.9447 163.078L31.9452 163.078L31.9457 163.078L31.9462 163.078L31.9467 163.078L31.9473 163.078L31.9478 163.078L31.9483 163.078L31.9488 163.078L31.9493 163.078L31.9498 163.078L31.9503 163.078L31.9509 163.078C34.6584 163.233 37.3639 163.388 40.0532 163.65C41.8365 163.841 43.6146 164.068 45.3926 164.294C49.198 164.779 53.0024 165.264 56.8532 165.4C59.1276 165.427 61.3869 165.29 63.656 165.151C65.5272 165.037 67.405 164.923 69.3032 164.9C69.9989 164.885 70.7027 164.871 71.4132 164.857C82.2928 164.646 94.7294 164.406 103.553 157.6C103.833 157.347 104.1 157.078 104.358 156.798C89.9162 162.007 74.3303 164.257 59.0032 164.35C50.1745 164.35 41.4479 163.056 32.7111 161.761C30.8593 161.487 29.007 161.212 27.1532 160.95ZM55.4995 181.313H55.5L55.5008 181.313L55.5018 181.313L55.5031 181.313L55.5049 181.313C56.053 181.328 56.8729 181.35 57.8032 181.35C60.6032 181.35 64.3532 181.15 63.8532 180.15C63.0595 179.044 61.8319 178.437 60.6168 177.836L60.6167 177.836C59.6886 177.377 58.7677 176.921 58.0532 176.25C58.0128 175.563 58.2667 175.129 58.5173 174.7C58.8866 174.069 59.2488 173.45 58.6532 172.05C58.5865 171.75 58.4365 171.483 58.2032 171.25C58.0532 171.05 55.9532 169.35 56.3532 170.3C56.9857 171.489 56.5685 172.268 56.1832 172.988C55.8072 173.691 55.4616 174.336 56.1532 175.25C57.4532 177 59.4532 178.05 61.3532 179C57.6484 180.018 53.7116 179.643 49.8936 179.28C49.0225 179.197 48.1577 179.115 47.3032 179.05C47.5556 178.928 47.8353 178.808 48.128 178.682C49.5168 178.084 51.199 177.36 51.6532 175.75C51.9537 174.876 51.5976 174.106 51.2371 173.327C50.9377 172.68 50.6351 172.026 50.7032 171.3C50.7032 170.8 50.8032 170.3 51.0032 169.9C50.7032 169.25 49.9532 168.8 49.3532 168.45C49.1032 168.35 48.9032 168.35 48.8532 168.6C48.2981 170.017 48.7177 171.14 49.0907 172.139C49.6919 173.748 50.1721 175.034 46.2532 176.7C46.0912 176.797 45.6877 176.931 45.2196 177.086C44.2431 177.411 42.9856 177.828 43.0532 178.2C43.1657 178.462 43.3626 178.641 43.5595 178.819C43.6251 178.878 43.6907 178.937 43.7532 179C45.6191 180.749 49.389 180.957 52.4783 181.128C53.3626 181.176 54.1911 181.222 54.9032 181.3C55.0199 181.3 55.2254 181.305 55.4995 181.313ZM92.9032 104.65C92.9638 104.269 93.0199 103.886 93.0761 103.501C93.3449 101.661 93.6176 99.7953 94.4032 98.1001C95.6032 95.6001 97.6532 92.3 100.203 91.05C100.541 91.05 100.091 91.5001 99.7813 91.8094C99.6782 91.9126 99.5907 92.0001 99.5532 92.05C96.8532 94.9501 95.5032 98.8001 95.2032 102.75C95.2032 103.826 94.0065 104.424 93.1119 104.871L93.0532 104.9H93.0032C92.9032 104.9 92.9032 104.75 92.9032 104.65ZM93.9032 42.75C90.4532 42.5 87.0032 41.75 83.8532 40.3C81.1032 38.95 78.5532 37.05 76.4032 34.8C76.3032 34.55 76.8532 34.8 76.9532 34.85C77.6486 35.2364 78.2378 35.7553 78.8303 36.2771L78.8303 36.2772L78.8304 36.2772L78.8305 36.2773L78.8306 36.2773C79.3882 36.7685 79.9487 37.2622 80.6032 37.65C82.4532 38.85 84.5532 39.45 86.7032 39.85C88.2532 40.15 89.8532 40.4 91.4532 40.6C92.4532 41 93.4532 41.7 94.1032 42.55C94.1532 42.7 94.0532 42.75 93.9532 42.75H93.9032ZM70.4032 37.3C69.8032 37.05 69.0532 36.65 68.7032 36.05C68.7532 35.7751 68.7907 35.4876 68.8282 35.2001C68.8657 34.9126 68.9032 34.6251 68.9532 34.3501C69.2417 32.7794 68.8521 32.1129 68.3903 31.323C68.1318 30.8808 67.8506 30.3999 67.6532 29.7C67.4805 28.9227 67.5315 28.1081 67.5809 27.3207C67.5887 27.1964 67.5964 27.0727 67.6032 26.95V26.8501C67.6032 26.8001 67.6532 26.8 67.7032 26.8C68.1532 26.95 68.6532 27.2501 68.9532 27.6001C69.0104 27.8286 69.0022 28.0572 68.994 28.2858C68.9879 28.4572 68.9818 28.6286 69.0032 28.8C68.9567 30.4969 69.483 31.3184 69.9891 32.1087C70.5718 33.0183 71.1278 33.8864 70.7532 36.0001C70.7398 36.0536 70.73 36.1716 70.7181 36.3157C70.6853 36.7101 70.6363 37.3 70.4532 37.3H70.4032ZM73.6966 33.6524C73.8345 34.5025 73.9132 34.9879 75.3032 35.5H75.3532C75.3866 35.5 75.4032 35.4833 75.4032 35.45C75.2032 34.15 74.8032 32.9 74.2032 31.7C73.9106 30.9286 74.085 30.1713 74.2597 29.4131C74.4133 28.7462 74.567 28.0786 74.4032 27.4C74.3392 27.1223 74.1747 26.8812 74.0113 26.6414C73.7921 26.3199 73.5746 26.001 73.6032 25.6C73.6532 25 73.8032 24.4 74.0032 23.8C73.8854 23.5251 73.5825 23.3427 73.3126 23.1802C73.2389 23.1358 73.1676 23.0929 73.1032 23.05C73.0472 23.022 72.9912 22.9901 72.9341 22.9575C72.7873 22.8738 72.6332 22.786 72.4532 22.75C72.2108 23.1944 72.1316 23.7367 72.0574 24.2451V24.2452C72.0398 24.3659 72.0224 24.4848 72.0032 24.6C72.0444 25.0935 72.2631 25.4518 72.4821 25.8103C72.7955 26.3236 73.1093 26.8375 72.9032 27.75C72.2164 29.8564 72.4521 30.3692 73.2263 32.0536L73.2269 32.0547C73.2979 32.2092 73.3734 32.3736 73.4532 32.55C73.5874 32.9794 73.646 33.3405 73.6966 33.6524ZM81.6032 58.75L81.4905 58.7329C79.8717 58.4882 78.1237 58.2239 76.8532 57.1C76.8051 57.0519 76.7523 57.0019 76.6974 56.95C76.3534 56.6244 75.9307 56.2244 76.1032 55.75C77.9032 52.65 78.4032 50.95 77.3032 47.5C77.8532 47.5 78.8532 48.5 79.1532 49C79.6032 50.65 80.0532 52.4 79.6532 54.1C79.4032 55.1 79.0032 56.05 78.3532 56.85C78.293 56.9102 78.3779 56.916 78.4658 56.9221C78.5239 56.926 78.5833 56.9301 78.6032 56.95C80.6532 57.5 83.1532 56.55 83.9032 54.45C84.3397 52.8497 83.956 51.2229 83.5796 49.6274C83.4386 49.0296 83.2986 48.4361 83.2032 47.85C83.5532 47.55 84.8032 48.85 85.0532 49.15C85.2199 49.3167 85.3199 49.5333 85.3532 49.8C85.4865 50.4667 85.6032 51.15 85.7032 51.85C85.8532 52.65 86.0032 53.5 85.9532 54.35C86.0032 56.55 84.1532 58.75 81.8532 58.75H81.6032ZM80.5032 64.5499C81.8032 65.4499 83.3032 66.0499 84.9032 66.0499H85.1532C86.1032 66.0499 87.2032 65.8999 87.7532 65.0499C88.0532 64.5499 88.4032 63.8999 88.1032 63.2999C87.5532 62.4499 86.6532 61.7499 85.6532 61.3999C85.3667 61.3044 85.0511 61.2673 84.7341 61.23C84.2212 61.1697 83.7049 61.1089 83.3032 60.7999C82.8532 60.4499 82.4032 60.0999 81.9032 59.8999C81.8865 59.8999 81.8532 59.8888 81.8143 59.8759C81.7365 59.8499 81.6365 59.8166 81.6032 59.8499C81.4981 60.0251 81.663 60.2248 81.8055 60.3974C81.8664 60.4712 81.9232 60.5401 81.9532 60.5999C83.1032 61.7499 84.4532 62.8999 86.1032 63.1999C85.2897 64.7313 83.2395 64.3848 81.75 64.133L81.5532 64.0999C80.6533 63.9269 79.8971 63.4184 79.1354 62.9061L79.1353 62.906C78.7967 62.6784 78.4571 62.4499 78.1032 62.2499C77.9032 62.1499 77.5032 61.9999 77.7032 62.3999C78.3074 63.263 79.2095 63.7909 80.0881 64.305C80.2275 64.3866 80.3663 64.4678 80.5032 64.5499ZM96.0032 49.4C95.5032 49.05 95.2032 48.65 95.6032 48.65C98.1532 48.65 98.4032 47.85 98.8032 45.55C99.0661 44.9932 99.4152 44.5273 99.7527 44.0769C100.506 43.0711 101.202 42.1422 100.753 40.45C99.3032 40.8 97.9532 41.75 97.1532 42.95C97.1032 43.05 97.0532 43.05 97.0032 43.05C96.4532 42.9 94.9032 41.95 94.9032 41.45C96.0032 40.35 97.3032 39.25 98.9032 38.95C100.153 38.85 101.253 39.75 102.103 40.6C102.953 41.55 102.953 43.1 102.453 44.2C102.207 44.8146 101.794 45.2949 101.377 45.7784C101.285 45.885 101.193 45.9917 101.103 46.1C100.678 46.8551 100.536 47.521 100.415 48.0839C100.153 49.3102 99.9948 50.0472 97.2532 50.15C97.1032 50.15 96.4532 49.8 96.0032 49.4ZM82.8032 45.6C85.3032 45.65 87.6532 46.45 89.9532 47.35C89.9757 47.35 89.9957 47.3525 90.0132 47.3548C90.0732 47.3624 90.1032 47.3662 90.1032 47.25C89.0744 45.7925 86.7593 45.1068 84.9224 44.5628C84.6167 44.4722 84.3243 44.3856 84.0532 44.3C82.2532 43.9 80.4532 43.7 78.6032 43.75C78.4136 43.7229 78.1471 43.7215 77.8522 43.7199C77.0581 43.7157 76.0584 43.7104 75.8032 43.2C75.9032 42.75 73.0532 40.65 73.7032 41.8C74.6532 43.55 76.5032 44.9 78.4032 45.4C79.3097 45.5875 80.2356 45.5797 81.1567 45.5719C81.7091 45.5672 82.2597 45.5625 82.8032 45.6Z" fill="black"/>
</svg>
