<svg width="231" height="217" viewBox="0 0 231 217" fill="none" xmlns="http://www.w3.org/2000/svg">
<path fill-rule="evenodd" clip-rule="evenodd" d="M198.8 36.3327C201.4 34.9827 203.95 32.4827 204.65 29.5827C204 29.3327 200.55 32.1327 201.05 32.7327C201.1 32.7827 200.95 33.0327 200.9 33.0827C200.9 33.1327 200.85 33.2827 200.8 33.3327C199.654 33.0242 198.78 32.1332 197.973 31.31C197.864 31.1991 197.757 31.0895 197.65 30.9827L197.364 30.6867C195.908 29.181 194.433 27.6557 192.65 26.4827C190.128 24.785 187.806 25.3437 185.316 25.9428C182.82 26.5435 180.154 27.1848 176.95 25.6327C175.779 25.2206 174.655 24.2627 173.537 23.3102C172.077 22.0669 170.629 20.8327 169.1 20.8327C168.521 20.9117 167.998 21.1706 167.479 21.4274C167.011 21.6586 166.547 21.888 166.05 21.9827C160.85 22.0327 162.6 14.0327 164.7 11.3827C165.4 10.4327 166.8 10.3327 167.8 10.7827L167.891 10.8338C169.094 11.5086 169.981 12.0058 171.2 10.9327C172.788 9.90744 173.784 8.3571 174.784 6.80267C175.295 6.00715 175.808 5.21055 176.4 4.48271C178.55 1.28271 183.15 2.48271 185.5 4.83271C186.6 5.93271 186.75 5.88271 188 4.98271C188.467 4.64937 188.867 4.24937 189.259 3.85677L189.259 3.85671C189.456 3.66044 189.65 3.46601 189.85 3.2827C191.85 2.18269 194.2 3.3327 195.8 4.6327C196.913 5.52917 197.892 6.59764 198.855 7.64906L198.855 7.64908L198.855 7.6491C199.45 8.2983 200.039 8.941 200.65 9.53269C201.85 9.18269 203.25 7.9827 203.8 6.8827C203.356 6.43873 202.906 5.95826 202.444 5.46613L202.444 5.46608C200.047 2.90996 197.356 0.0392211 193.75 0.332713C192 0.632713 190.5 1.68269 189.2 2.7827C189.174 2.79997 189.154 2.81426 189.138 2.82556C189.106 2.8488 189.091 2.85944 189.078 2.85746C189.067 2.8558 189.058 2.84517 189.04 2.82556C189.03 2.81426 189.017 2.79997 189 2.7827C182.15 -3.2173 175.9 2.53271 172.05 8.73271C172.004 8.77831 171.969 8.85509 171.935 8.92989C171.894 9.01911 171.854 9.1055 171.8 9.1327C171.637 9.044 171.479 8.94656 171.321 8.84942C170.946 8.61802 170.573 8.38834 170.15 8.28269C166.8 7.43269 162.5 11.8827 161.2 14.6827C159.9 17.6327 158.7 22.8827 162.6 24.2827C163.414 24.5539 164.167 24.1929 164.913 23.8352C165.679 23.4675 166.439 23.1032 167.25 23.4327C168.148 23.9657 168.888 24.7031 169.63 25.4422C170.21 26.0205 170.791 26.5998 171.45 27.0827C175.486 30.5227 179.438 29.6711 183.962 28.6963L183.962 28.6962C184.37 28.6084 184.783 28.5195 185.2 28.4327C188.275 28.1744 190.762 30.773 192.986 33.0967C195.066 35.2699 196.915 37.2026 198.8 36.3327ZM10.65 62.6828C10.35 65.1828 10.8 67.6828 11.4 70.0828C10.8 71.4328 9.3 72.5328 8 73.1828C4.14999 65.8828 9.95004 51.9827 16.3 46.9827C19.7446 43.7385 24.0874 45.4031 28.0949 46.9392C29.0903 47.3207 30.0649 47.6943 31 47.9827C36.75 50.0327 42.6 51.7828 48.6 52.8328C54 53.7828 59.8 53.6327 64.95 51.6327C68.0676 49.2394 68.6664 45.0412 69.257 40.8994C69.6042 38.4651 69.9486 36.0502 70.8 34.0327C73.25 26.8327 81.95 20.1327 89.7 20.7827C89.7304 20.7929 89.7668 20.8009 89.8053 20.8094L89.8055 20.8095C89.9572 20.843 90.1399 20.8834 90.1 21.0828C89.9505 21.3818 89.6892 21.625 89.4206 21.8749L89.4205 21.875L89.4201 21.8753L89.4196 21.8757L89.4191 21.8763C89.3289 21.9602 89.2379 22.0449 89.15 22.1327C87.9677 23.315 87.1737 23.2354 86.1941 23.1372L86.15 23.1327C85.65 23.0827 85.1 23.0328 84.45 23.0828C75.0309 24.5367 74.0438 31.0259 73.0132 37.801C72.4135 41.7433 71.7991 45.7825 69.5 48.9827C66.05 53.1828 60.95 55.8327 55.65 56.4827C44.85 58.3828 34.1 54.4827 24.1 50.7827C23.3092 50.5346 22.504 50.1807 21.6887 49.8225L21.6886 49.8224C19.8752 49.0254 18.0126 48.2068 16.15 48.4827C13.15 52.6328 11.3 57.6328 10.65 62.6828ZM40.3638 74.8574C38.7165 82.1219 37.8641 85.8809 30.45 90.4326C27.05 92.3326 23.3 93.1325 19.45 93.1325C13.15 93.1325 6.65004 90.9325 1.35004 87.9825C1.95004 86.4325 3.40005 85.2326 4.80005 84.3326C5.41202 84.2408 6.06143 84.5235 6.70247 84.8025C7.10892 84.9795 7.51199 85.1549 7.90002 85.2325C14.25 87.3825 20.95 89.6325 27.75 88.5325L28.0559 88.4701L28.2126 88.4382L28.2162 88.4375C31.8571 87.6976 34.2823 87.2048 35.05 82.9825C35.2067 82.356 35.3481 81.719 35.49 81.08L35.4901 81.0797L35.4901 81.0795L35.4902 81.0793L35.4902 81.079L35.4903 81.0786L35.4904 81.078C36.1637 78.0458 36.8465 74.9709 39.2 72.7825C42.75 68.5825 48.05 68.7325 53.2 68.8825C55.3 68.9825 57.35 69.0325 59.25 68.7825C62.95 68.6825 66.75 68.2826 70.3 67.1826C70.6 67.1826 71.3501 66.8825 72.1001 66.5325C73.5 65.9325 74.95 65.3326 73.6001 66.8326C68.9644 71.2177 60.9101 71.5563 54.1574 71.8403C52.8256 71.8963 51.5444 71.9502 50.3501 72.0325C49.8443 72.1009 48.9388 72.1057 47.8776 72.1114C45.0568 72.1264 41.136 72.1473 40.7 73.3825C40.5831 73.89 40.4718 74.3812 40.3638 74.8574ZM128 107.683C134.5 107.383 140.95 105.333 146.6 102.083C148.072 101.283 149.456 100.316 150.841 99.3477L150.841 99.3477C152.748 98.0147 154.657 96.6806 156.8 95.7827C157.8 95.2827 158.95 95.3327 160.1 95.4327L160.115 95.4334C161.21 95.4832 162.254 95.5306 163.1 95.0827L163.262 94.9576C164.325 94.1391 165.522 93.2169 165.95 91.9327C163.25 91.0827 160 91.6827 157.55 93.2327C156.96 93.6248 156.37 94.0204 155.779 94.4165L155.779 94.4166C150.116 98.2134 144.387 102.056 137.55 103.233C127.35 106.083 114.8 101.433 111.55 90.7327C110.9 88.9827 110.3 87.2327 109.8 85.4327C108.8 85.0827 106.85 87.4327 106.35 88.2827C108.3 99.5827 115.9 107.683 127.9 107.683H128ZM217.672 196.488C217.078 196.66 216.483 196.833 215.9 197.033C213.25 197.833 210.4 198.483 207.55 198.483C205 198.483 202.5 197.983 200.25 196.683C198.15 195.383 196.85 193.133 196.15 190.783C195.5 188.483 195.4 186.133 195.3 183.733C195.05 179.533 194.6 175.333 194.05 171.183C193.05 163.833 192.2 156.484 191.35 149.135L191.35 149.133C191.334 148.774 191.294 148.41 191.254 148.046L191.254 148.046C191.166 147.244 191.078 146.439 191.25 145.683C191.4 145.333 191.75 145.033 192.05 144.883C192.1 144.833 192.2 144.783 192.25 144.833C193.454 148.91 194.235 153.078 195.016 157.243L195.017 157.244L195.017 157.245C195.241 158.442 195.466 159.639 195.7 160.833C195.941 162.019 196.186 163.205 196.431 164.392L196.431 164.392L196.431 164.392L196.431 164.393L196.431 164.393L196.431 164.393L196.431 164.394L196.431 164.394L196.431 164.394L196.432 164.395L196.432 164.395L196.432 164.395L196.432 164.396L196.432 164.396L196.432 164.396L196.432 164.397L196.432 164.397L196.432 164.397L196.432 164.398L196.432 164.398L196.432 164.398L196.432 164.399L196.432 164.399L196.432 164.399L196.433 164.399C197.613 170.113 198.796 175.839 199.5 181.633C200.45 189.633 203.1 194.483 211.85 194.433C215.702 194.479 219.381 193.276 222.968 192.104C223.246 192.013 223.523 191.923 223.8 191.833C223.836 191.824 223.884 191.808 223.938 191.79C224.183 191.71 224.559 191.587 224.6 191.833C224.6 192.002 224.457 192.207 224.352 192.356L224.352 192.357C224.333 192.384 224.315 192.41 224.3 192.433C224.05 192.783 223.8 193.083 223.5 193.333C222.8 194.083 222 194.733 221.15 195.233C220.05 195.799 218.861 196.144 217.672 196.488ZM175.495 187.808H175.495L175.495 187.808L175.495 187.808H175.494C174.683 187.712 173.874 187.617 173.1 187.483C172.391 187.338 171.583 187.273 170.747 187.206C168.4 187.017 165.843 186.811 164.7 184.783C164.867 180.398 165.841 176.058 166.812 171.733L166.812 171.733C167.291 169.597 167.77 167.465 168.15 165.333C169.3 159.633 170.45 153.883 171.35 148.133C171.401 147.504 171.489 146.846 171.578 146.176C171.836 144.234 172.108 142.193 171.55 140.483C170.35 140.833 168.1 142.533 167.9 143.783C167.992 152.544 165.888 161.212 163.784 169.878C162.454 175.356 161.125 180.833 160.35 186.333C159.394 190.24 163.621 190.726 166.826 191.095C167.477 191.17 168.085 191.24 168.6 191.333C169.985 191.471 171.369 191.702 172.745 191.931L172.745 191.931C173.854 192.115 174.957 192.299 176.05 192.433C177.65 191.633 179.4 190.333 180.1 188.683C178.707 188.185 177.094 187.996 175.495 187.808ZM228.45 207.283C226.5 210.833 221.95 211.783 218.25 212.233C217.956 212.264 217.649 212.3 217.331 212.337H217.331L217.331 212.337C216.138 212.477 214.803 212.633 213.5 212.633C210.95 212.633 208.55 212.033 207.8 209.333C207.4 208.283 207.05 207.033 208.1 206.283C211.592 202.848 211.758 203.558 212.115 205.084C212.381 206.225 212.754 207.82 214.7 208.483C218.7 209.433 223.3 209.133 227.2 207.683C227.215 207.675 227.25 207.653 227.3 207.621C227.588 207.437 228.365 206.941 228.45 207.283ZM168.7 205.033C172.8 204.983 177.3 202.433 179.05 198.683C178.8 197.883 176.35 200.033 176.15 200.233C175.656 200.575 174.99 200.628 174.369 200.678C174.172 200.693 173.98 200.709 173.8 200.733C170.4 201.133 164.45 199.083 166.75 194.783C166.95 194.533 167.05 193.983 166.55 194.183C159.35 197.783 159.75 205.033 168.45 205.033H168.7ZM128.7 212.433C129.3 213.883 126.25 215.683 125.05 216.033C124.65 216.066 124.233 216.083 123.8 216.083C116.85 216.083 110.6 211.933 106.45 206.433C105.15 204.833 103.95 203.233 102.8 201.533C102.534 201.267 102.896 200.923 103.121 200.709L103.163 200.669C103.176 200.656 103.188 200.644 103.2 200.633C103.313 200.528 103.428 200.416 103.544 200.302C104.149 199.713 104.812 199.067 105.65 198.983C106.491 200.338 107.464 201.65 108.404 202.918L108.404 202.918L108.404 202.918L108.404 202.918L108.404 202.918L108.404 202.919L108.404 202.919L108.404 202.919L108.404 202.919L108.405 202.919L108.405 202.919L108.405 202.919L108.405 202.919L108.405 202.919L108.405 202.919L108.405 202.919L108.405 202.92L108.405 202.92L108.405 202.92L108.405 202.92L108.405 202.92L108.6 203.183C112.45 208.483 117.95 213.033 124.7 213.333C124.578 212.918 124.317 212.268 124.002 211.483C122.648 208.106 120.301 202.254 123.75 202.133C125.05 205.733 126.75 209.133 128.7 212.433ZM224.95 181.133C224.75 180.658 224.537 180.183 224.325 179.708C224.112 179.233 223.9 178.758 223.7 178.283C223.192 177.097 222.669 175.915 222.145 174.73C220.347 170.667 218.539 166.58 217.3 162.283C215.55 156.433 214.7 150.133 215.15 144.133C214.15 144.483 213.1 145.433 213.05 146.583C212.75 149.433 212.6 152.333 212.9 155.183C213.85 165.183 217.45 175.233 222.1 183.833C223.25 183.283 224.45 182.333 224.95 181.133ZM81.8774 71.9707L81.8771 71.9713C81.3887 72.8589 80.8977 73.7514 80.3499 74.6326C73.7 85.8326 62.8999 89.4326 50.6499 89.4326C50.0166 89.4326 49.3833 89.416 48.7499 89.3826C48.6499 89.4326 48.4999 89.4326 48.4499 89.2826C48.565 88.8607 48.8861 88.527 49.1874 88.2139C49.2788 88.1189 49.3684 88.0258 49.4499 87.9326C51.3499 85.8326 53.2999 85.8326 55.6499 85.8826H55.6504C56.2003 85.8826 56.8001 85.8826 57.3999 85.8326C62.5999 85.5826 68.3999 85.1326 72.6999 81.9326C75.3132 79.2006 76.7976 76.6068 78.1404 74.2607C80.754 69.6938 82.8307 66.0654 91.6499 64.1826C97.5489 58.7776 97.6213 53.6736 97.6833 49.3004C97.7343 45.704 97.7783 42.6018 101.05 40.2326C102.924 38.6471 105.259 37.7541 107.524 36.8881L107.524 36.8881L107.524 36.888L107.8 36.7826C107.883 36.7476 107.967 36.7129 108.05 36.6782C108.922 36.3171 109.798 35.9538 110.3 35.1326C113.95 30.6326 107.2 23.4826 102.4 24.1326C100.7 25.1326 101.9 23.6826 102.6 23.2326C106.95 19.6826 113.45 24.1326 114.85 28.7326C115.3 33.7826 109.9 37.0826 105.95 39.0326C105.348 39.3223 104.717 39.5524 104.091 39.7805C103.313 40.0641 102.543 40.3446 101.85 40.7326C100.993 42.8858 101.111 45.1065 101.233 47.3949C101.389 50.3141 101.55 53.3434 99.6999 56.4826C96.4999 62.2326 91.1499 67.5326 84.3999 68.5826C84.3726 68.5917 84.3445 68.6004 84.3158 68.609C84.2902 68.6166 84.2642 68.624 84.238 68.6316L84.2354 68.6323C83.9678 68.7093 83.6737 68.7938 83.5499 69.0826C82.9479 70.0249 82.4144 70.9947 81.8777 71.9703L81.8774 71.9707ZM129.45 60.3827C132.45 51.4827 128.6 40.9327 122.55 34.1327C121 32.4827 118.75 34.4827 117.85 35.9327C117.964 36.0465 118.049 36.0164 118.17 35.9735C118.209 35.9598 118.252 35.9448 118.3 35.9327C118.5 35.8327 118.85 35.7327 119.5 36.2827C125.95 42.9827 131.25 60.1327 122.55 66.7327C120.2 67.8827 117.55 67.9827 115.05 67.6827C114.774 67.7221 114.498 67.6683 114.247 67.6193C114.179 67.6061 114.113 67.5933 114.05 67.5827C113.988 67.5739 113.926 67.5646 113.865 67.5554C113.235 67.4609 112.647 67.3725 112.1 67.7827C112.013 67.8392 111.925 67.8959 111.836 67.9532L111.738 68.0163C110.67 68.7021 109.488 69.4613 108.95 70.5827C109.5 70.9327 110.25 71.0327 110.95 71.0827C111.25 71.0827 111.533 71.116 111.8 71.1827H112.05C112.45 71.216 112.833 71.2327 113.2 71.2327C120 71.2327 126.5 66.3327 129.45 60.3827ZM57.2999 203.633C54.0999 204.933 50.7999 206.083 47.2999 206.183C45.7999 206.183 40.5499 205.733 40.2999 204.083C40.9576 202.806 42.2139 202.068 43.4205 201.359L43.421 201.359C43.7736 201.152 44.122 200.947 44.4499 200.733C46.0999 199.533 47.6999 198.033 48.4999 196.183C48.4499 195.233 51.9999 192.633 50.3499 195.333C48.7999 197.883 46.6499 199.983 44.3499 201.833C44.3167 201.882 44.195 201.954 44.0639 202.032C43.8007 202.188 43.4995 202.366 43.7999 202.433C44.716 202.867 45.7251 203.068 46.6926 203.261L46.7999 203.283C49.7999 203.783 52.8999 203.333 55.7499 202.383C56.8833 201.983 58.0166 201.566 59.1499 201.133C59.1825 201.122 59.2315 201.099 59.2884 201.073C59.4934 200.978 59.7999 200.837 59.7999 201.033C59.3499 202.183 58.2499 202.983 57.2999 203.633ZM126.2 135.083C127.4 134.583 128.8 133.833 129.45 132.733C129.141 132.177 128.814 131.641 128.491 131.112L128.49 131.111C128.29 130.783 128.091 130.458 127.9 130.133C126.64 127.964 125.25 125.846 123.859 123.726C120.505 118.613 117.14 113.485 115.55 107.583C115.2 107.033 111.7 109.433 112.25 109.833C114.164 117.698 118.746 124.42 123.255 131.037L123.256 131.038C124.164 132.371 125.07 133.7 125.95 135.033C126.017 135.066 126.067 135.083 126.1 135.083H126.2ZM142.45 91.9327C143.75 92.0827 139.6 94.6326 139 94.5326C138.567 94.566 138.133 94.5826 137.7 94.5826C130.35 94.5826 124.95 90.0327 121.1 83.9327L120.977 83.7615L120.875 83.6197L120.874 83.6195L120.874 83.6193L120.874 83.6191L120.866 83.6072C119.631 81.8911 118.286 80.0228 116.5 79.0826C116.95 78.4827 117.65 78.0826 118.3 77.7826C118.808 77.571 119.316 77.8969 119.763 78.1839L119.764 78.1841L119.764 78.1847C119.845 78.2364 119.924 78.2869 120 78.3326C121.908 79.7319 123.601 81.3919 125.294 83.0534C127.595 85.3103 129.899 87.5699 132.75 89.1827C135.7 90.9827 139.1 91.6327 142.45 91.9327ZM116.736 192.122C113.165 190.527 109.529 188.903 105.75 188.833C98.704 187.942 93.3343 191.38 87.9881 194.803C83.4325 197.72 78.8939 200.626 73.35 200.833C62.1 200.533 44.5 192.133 43.6499 179.533C31 174.183 31 156.883 37.1499 146.533C42.3999 138.233 49.1 135.983 58.5 135.433C63.4 134.833 68.7 133.833 72.6 130.583C74.5556 128.436 75.9702 125.987 77.0191 123.364C76.7292 123.898 76.396 124.408 76 124.883C70.5 131.633 64.75 133.883 56.15 132.183C55.6009 132.066 55.0489 131.943 54.4946 131.819C51.0115 131.041 47.4372 130.243 43.9 130.933C42.0369 131.342 40.2977 132.102 38.5605 132.861C36.4746 133.772 34.3915 134.683 32.1 134.983C30.7 135.233 29.5 135.333 28.4 135.333C25 135.333 22.8 134.283 20.9 133.233C20.6819 133.117 20.4676 133.001 20.256 132.886L20.2528 132.884C18.1864 131.765 16.3748 130.784 13.7 131.283C12.88 131.429 12.18 131.833 11.4695 132.243L11.4693 132.243C10.9669 132.533 10.4592 132.826 9.90002 133.033C7.40002 133.983 4.15002 134.583 1.90002 132.783C1.8533 132.736 1.80568 132.689 1.75742 132.641L1.74913 132.633C1.1796 132.067 0.525299 131.417 0.25 130.683C0.850006 129.833 1.80005 129.033 2.80005 128.683C5.10005 131.033 6.85002 132.133 10.2 131.383C11.3426 131.197 12.3299 130.672 13.3194 130.146L13.3196 130.146L13.3197 130.146L13.3198 130.146L13.32 130.146L13.3201 130.145L13.3203 130.145L13.3204 130.145L13.3205 130.145L13.3207 130.145L13.3208 130.145L13.3209 130.145C14.1929 129.681 15.0666 129.217 16.05 128.983C18.9527 128.015 21.5241 129.21 24.117 130.415C25.6779 131.141 27.2466 131.87 28.9 132.133C31.65 132.583 34.55 132.283 37.25 131.633C38.767 131.239 40.1892 130.609 41.6054 129.982L41.6055 129.982L41.6057 129.982L41.6058 129.982L41.6059 129.982L41.6061 129.982L41.6062 129.982L41.6063 129.982L41.6065 129.982L41.6066 129.982L41.6068 129.982L41.6069 129.982C42.7109 129.493 43.8113 129.005 44.95 128.633C49.2034 126.931 53.5552 128.052 57.8194 129.151L57.8196 129.151L57.8198 129.151L57.82 129.151L57.8201 129.151L57.8203 129.151L57.8205 129.151L57.8207 129.151L57.8209 129.151L57.8211 129.151L57.8212 129.151L57.8214 129.151C58.8199 129.409 59.8136 129.665 60.8 129.883C63.55 130.333 66.5 130.483 69.25 129.683C72.178 128.527 73.9779 125.887 75.4504 123.158C75.2002 123.338 74.9493 123.513 74.7 123.683C71.3 125.983 67.3 126.983 63.25 126.933H62.85C59.2 126.933 55.8 125.283 52.65 123.583C49 121.533 44.6 120.133 40.5 121.833C36.5 123.433 32.05 123.983 27.7 123.433C24.7 123.133 22.2 120.983 20.5 118.583C20.46 118.463 20.372 118.343 20.284 118.223C20.152 118.043 20.0201 117.863 20.05 117.683C20.7 116.533 21.8 115.683 22.9 115.033C23.05 114.933 23.3501 114.733 23.55 114.833C23.55 114.868 23.623 114.927 23.6841 114.976L23.6844 114.977C23.7108 114.998 23.7349 115.018 23.75 115.033C24.0899 115.316 24.4281 115.606 24.7674 115.898C26.2252 117.15 27.706 118.422 29.45 119.233C31.75 120.083 34.3 120.033 36.75 119.983C39.3793 119.983 41.8808 119.174 44.3332 118.382L44.3334 118.381L44.7003 118.263L44.95 118.183C47.65 117.383 50.6 117.583 53.2 118.633C54.6414 119.23 55.9682 119.895 57.2547 120.539L57.2551 120.54C60.922 122.377 64.2624 124.051 69 123.533C71.2 123.433 73.4 123.083 75.35 122.033C75.7207 121.755 76.027 121.391 76.2788 120.991C74.8238 121.367 73.2911 121.544 71.8163 121.713C71.4739 121.752 71.1345 121.791 70.8 121.833C70.5667 121.866 70.3167 121.883 70.05 121.883C64.85 121.883 56.55 117.133 61.65 111.783C63.5506 109.271 66.2806 109.178 68.9485 109.879C66.0972 105.206 65.4519 98.9308 70.05 95.3826C73.95 92.0326 77.95 97.4826 79.6501 100.733C80.0045 101.532 80.3317 102.499 80.6096 103.571C80.7088 102.415 80.8033 101.259 80.8979 100.103L80.8981 100.101C81.1141 97.4614 81.33 94.822 81.6 92.1827C81.6634 91.7595 81.7023 91.3162 81.7416 90.8674C81.8882 89.1952 82.0414 87.447 83.5 86.3827C83.7082 86.2265 83.9198 86.0331 84.1374 85.8341L84.1376 85.834C84.7561 85.2686 85.4233 84.6587 86.2 84.7327C85.0959 89.3855 84.8487 94.2595 84.601 99.1439C84.3775 103.55 84.1536 107.964 83.2999 112.233C83.1445 113.638 82.886 115.023 82.5322 116.379L82.6471 116.456C85.0519 118.078 87.4675 119.708 90.1999 120.733C93.9999 122.133 104.35 124.883 107.9 123.233C108.5 123.133 108.05 123.783 107.2 124.383C106.35 125.083 105.05 125.733 104.1 125.533C103.633 125.566 103.167 125.583 102.7 125.583C98.9999 125.583 95.2499 124.983 91.5999 124.283C87.8938 123.684 84.4399 122.188 81.1963 120.341C77.4384 129.367 69.3767 136.498 59.6499 138.483C57.5084 139.084 55.2116 139.269 52.9159 139.453C49.1014 139.76 45.2902 140.066 42.1999 142.283C35.7999 151.233 34.8499 166.383 44.0499 173.783C45.45 169.233 49.5499 164.733 54.5499 164.483C57.75 164.383 62.3 165.733 62.5 169.533C61.75 175.883 54.05 181.433 47.75 180.583C50.35 187.833 57.9 191.583 64.6 194.383C72.25 197.683 81.3999 198.083 88.2 192.633C96.2499 186.583 106.55 182.283 116.45 186.333C118.199 186.84 119.905 187.586 121.614 188.333L121.614 188.333L121.614 188.333L121.614 188.333L121.615 188.333L121.615 188.333L121.615 188.333L121.615 188.333L121.615 188.333L121.615 188.333L121.615 188.333L121.615 188.333L121.616 188.334L121.616 188.334L121.616 188.334C124.79 189.722 127.972 191.113 131.45 190.983C138.75 189.583 144.6 182.633 145.7 175.383C146.202 168.318 142.153 162.374 138.161 156.515L138.161 156.515C136.192 153.625 134.237 150.756 132.85 147.783C132.689 147.315 132.107 146.246 131.424 144.99L131.424 144.99C129.988 142.35 128.106 138.889 128.75 138.483C129.75 137.133 131.05 135.583 132.65 135.033C133.485 136.358 134.221 137.799 134.963 139.252C135.508 140.32 136.057 141.394 136.65 142.433C138.217 145.545 140.115 148.486 142.015 151.43L142.015 151.431C144.481 155.251 146.949 159.075 148.7 163.283C154.6 175.833 139.9 191.283 128.7 195.133C124.721 195.69 120.77 193.925 116.736 192.122ZM79 112.883C78.55 106.883 76.05 99.6826 70.05 97.2826C70.0167 97.2493 69.9833 97.2326 69.95 97.2326C68.05 104.183 73.2 109.933 79 112.883ZM46.75 175.483C59.55 181.483 64.15 168.683 52.2 167.583C51.9 167.549 51.6167 167.533 51.35 167.533C47.15 167.533 46.7 171.883 46.75 175.483ZM76.35 117.133C72.4 117.733 64.75 116.833 63.85 112.583C68.2 113.333 72.4 115.133 76.35 117.133ZM85.25 53.3826C85.944 51.4529 86.0363 48.5604 86.1342 45.4948C86.3253 39.5052 86.5375 32.8547 91.3 31.4326C92.1 31.1326 92.9 30.5826 93.35 29.8826C93.4773 29.5006 91.8397 30.2353 91.1886 30.5274L91.1883 30.5275C91.0724 30.5795 90.9878 30.6174 90.95 30.6326C84.0103 34.2977 83.6951 40.3997 83.3779 46.5416C83.1671 50.6218 82.9555 54.7198 80.8 58.1326C80 59.2326 79 60.2326 77.95 61.0826C77.894 61.1305 77.7907 61.2105 77.6604 61.3114L77.6593 61.3122L77.6587 61.3127C76.9733 61.8431 75.5446 62.9486 76.3 63.0325C80.1 60.9325 83.65 57.5326 85.25 53.3826ZM222.011 116.156C222.208 120.493 222.409 124.915 221.05 129.033C218.3 134.483 212.1 136.983 206.25 136.983H205.35C202.392 137.041 199.519 136.493 196.641 135.945L196.641 135.945C194.557 135.548 192.471 135.151 190.35 134.983C188.386 134.782 186.389 134.839 184.413 134.895C183.924 134.909 183.436 134.923 182.95 134.933C182.85 134.833 182.95 134.633 183 134.583C184.2 132.883 186.05 131.483 188.2 131.683C191.75 131.433 195.35 131.633 198.85 132.333C204.6 133.433 210.65 134.433 216.35 132.483C218.824 129.694 217.778 117.276 217.288 111.461L217.288 111.461C217.233 110.812 217.185 110.245 217.15 109.783C215.95 101.133 215.45 92.3827 215.55 83.6827C215.649 82.8259 215.638 81.7778 215.625 80.6642C215.588 77.2938 215.543 73.3225 218.55 72.2327C218.091 73.8785 218.188 75.8466 218.281 77.7333C218.31 78.3112 218.338 78.8816 218.35 79.4327C218.597 86.4714 219.492 93.4338 220.388 100.402C220.943 104.72 221.498 109.04 221.9 113.383C221.926 114.301 221.968 115.226 222.011 116.156ZM196.35 97.1828C199.4 89.7828 201.75 81.9827 202.1 73.9827C202.089 73.787 202.102 73.5723 202.114 73.3665C202.158 72.626 202.196 72.0002 201.1 72.7827C200.935 72.9025 200.76 73.0245 200.579 73.15L200.578 73.1501C199.55 73.8634 198.355 74.6923 198.1 75.8827C198.4 83.1827 196.25 90.3327 193.7 97.0827C189.5 108.483 185 113.983 172.2 109.783C171.413 109.552 170.598 109.302 169.762 109.044C162.257 106.736 153.049 103.904 147.2 110.383C147.1 110.483 146.4 111.283 146.85 111.333C152.804 108.865 158.681 110.641 164.576 112.423C168.236 113.529 171.904 114.637 175.6 114.733C185.5 114.333 193.05 105.933 196.35 97.1828ZM182.35 87.6327C181.2 91.9827 178.1 95.6827 174 97.4327C171.15 98.8327 168.05 99.8327 164.85 99.8327H163.95H163.9H163.75C163.7 99.8327 163.65 99.7827 163.65 99.7327C163.683 99.6327 163.733 99.566 163.8 99.5327C165.404 98.1962 167.416 97.997 169.413 97.7994L169.413 97.7994L169.414 97.7993L169.414 97.7993L169.414 97.7993L169.414 97.7993L169.414 97.7992C170.032 97.7381 170.648 97.6772 171.25 97.5827C176.35 95.2327 178.35 89.3327 179.95 84.2827C180.155 83.6568 180.339 83.0123 180.524 82.3638L180.524 82.3636C181.197 80.0071 181.886 77.5971 183.65 75.8327C184.45 74.6327 190.95 73.0827 186.7 74.9327C184.748 75.8753 183.996 79.9003 183.348 83.3759C183.033 85.0626 182.742 86.6198 182.35 87.6327ZM175.104 70.0549C174.288 67.9268 173.051 65.8534 171.1 64.6825C169.739 64.4394 167.952 66.1346 166.981 67.0559L166.9 67.1325C165.273 68.6162 167.86 71.6576 169.049 73.0553C169.103 73.1177 169.153 73.1769 169.2 73.2325C169.242 73.2663 169.283 73.304 169.324 73.3448C169.214 73.4548 169.122 73.5521 169.05 73.6327C168.65 74.0327 168.45 74.4827 169.1 74.7827C169.75 75.0827 170.45 75.2827 171.2 75.3827C171.467 75.416 171.733 75.4327 172 75.4327C172.567 75.4327 173.133 75.3493 173.7 75.1827C175.4 74.6327 176.95 73.5827 178.35 72.4827L178.38 72.4575C179.055 71.8957 182.315 69.1819 180.1 69.1327C178.352 68.9621 176.604 69.3005 175.104 70.0549ZM190.5 62.5326C191.85 61.3326 193.35 59.2826 193.55 57.4326C192.225 57.1013 190.791 56.9877 189.347 56.8733C188.393 56.7977 187.435 56.7218 186.5 56.5826C181.5 55.9326 176.45 53.9326 173.15 49.9826C170.738 46.8937 170.081 42.9095 169.451 39.0908L169.451 39.0908C169.336 38.3971 169.223 37.7089 169.1 37.0326C168.98 36.4539 168.924 35.8513 168.868 35.2503V35.2502V35.2502C168.784 34.3452 168.7 33.4438 168.4 32.6326C167.962 32.6724 167.618 33.2523 167.345 33.7138L167.345 33.714L167.345 33.7144L167.345 33.7148C167.275 33.832 167.211 33.9415 167.15 34.0326C167.132 34.0692 167.108 34.1109 167.083 34.1561C166.97 34.3575 166.818 34.6284 166.9 34.8326C167.099 35.4975 167.122 36.2066 167.144 36.9011C167.155 37.2512 167.166 37.5975 167.2 37.9326C167.258 38.5187 167.313 39.1064 167.369 39.6949C167.745 43.6755 168.124 47.6929 169.3 51.4826C172.4 59.2826 181.45 62.5826 189.4 62.5826C189.767 62.5826 190.133 62.5659 190.5 62.5326ZM208.45 49.3326C208.25 49.3993 208.083 49.4326 207.95 49.4326H207.75C207.4 49.4326 207.25 49.2826 207.5 48.8326C208.05 47.5826 208.8 45.9826 210.1 45.4326C211.65 44.9326 213.05 44.0826 214.35 43.1826C214.45 41.7326 213.7 40.3326 212.9 39.1326C212.1 38.0826 210.75 36.5826 209.25 37.1326C209.168 37.2142 209.092 37.3064 209.014 37.4005C208.854 37.595 208.686 37.7979 208.45 37.9326C207.35 38.1826 209.6 34.8826 209.9 34.6826C213.05 29.9826 217.95 35.7826 217.4 39.6326C216.7 43.1826 214.15 46.2826 211.15 48.0826C210.9 48.2826 209.45 49.0326 208.45 49.3326ZM229.8 30.7327C231.45 35.4827 226.45 38.5327 222.8 40.2327C222.35 40.3827 222.6 39.8827 222.75 39.7327C223.6 38.6327 224.8 37.8827 226 37.1827C226.47 36.7124 226.392 35.8398 226.328 35.1278C226.318 35.0073 226.307 34.8913 226.3 34.7827C225.95 29.4327 220.85 26.5327 216.65 24.2327C216.5 24.1827 216.2 24.0327 216.2 23.8827C216.345 23.3392 216.831 22.927 217.297 22.5319C217.474 22.3818 217.649 22.2342 217.8 22.0827C217.4 18.6327 212.7 12.2827 208.85 12.8827C208.821 12.8924 208.773 12.9152 208.715 12.9432C208.471 13.0596 208.04 13.2649 208 12.9827C210.8 8.53273 215 8.58274 218.5 12.3327C220.9 14.9327 223.95 18.9827 220.1 21.7327C220.515 21.9643 220.94 22.1953 221.371 22.4291C224.941 24.3658 228.863 26.4943 229.8 30.7327Z" fill="black"/>
</svg>
