<svg width="361" height="231" viewBox="0 0 361 231" fill="none" xmlns="http://www.w3.org/2000/svg">
<path fill-rule="evenodd" clip-rule="evenodd" d="M291.153 25.5946C290.103 25.2446 288.303 24.3446 287.803 23.3446C289.803 21.5946 291.203 18.7446 289.453 16.2946C288.793 16.1003 288.102 16.1174 287.405 16.1347C287.205 16.1396 287.004 16.1446 286.803 16.1446C284.903 16.2446 283.153 15.1445 281.753 13.9945C280.978 13.3055 280.846 12.3361 280.713 11.3611C280.614 10.6381 280.515 9.91194 280.153 9.29457C279.753 8.59457 279.303 7.99456 278.753 7.44456C278.653 7.34456 278.653 7.34457 278.503 7.29457C276.57 7.22866 274.656 7.60677 272.749 7.98358C270.315 8.46437 267.892 8.94305 265.453 8.49455C262.853 7.69455 260.153 6.19457 259.253 3.54457C256.803 4.34457 254.153 5.54456 252.603 7.69456C252.536 7.76227 252.376 7.71537 252.249 7.67802C252.189 7.66021 252.136 7.64457 252.103 7.64457C251.003 7.24457 249.953 6.64456 249.003 5.94456C248.928 5.8687 248.838 5.79744 248.747 5.7252C248.538 5.55937 248.323 5.38836 248.253 5.14457C248.653 4.44457 249.303 3.89457 249.903 3.39457C252.253 1.69457 255.603 -0.105441 258.503 1.19456C261.003 2.34456 262.603 3.59457 263.403 6.29457C263.453 6.39457 263.453 6.39457 263.553 6.39457C264.657 6.39457 265.715 6.25636 266.815 6.11262L266.953 6.09455C267.728 5.97981 268.498 5.84038 269.268 5.70105L269.269 5.70097C271.182 5.35462 273.092 5.00891 275.053 5.04457C279.253 5.64457 284.003 9.49457 284.353 13.8946C287.403 13.6946 292.403 16.2945 293.453 19.2445C294.153 21.4945 293.203 23.9445 291.453 25.4945C291.353 25.5945 291.303 25.5946 291.153 25.5946ZM52.5035 62.1946C55.0535 64.6946 58.0535 66.7946 61.4535 67.9446C67.3535 69.8446 73.9535 68.3446 78.9535 64.8946C79.7287 64.2745 80.4474 63.8015 81.0408 63.411C83.1265 62.0385 83.6629 61.6856 79.6535 59.5446C79.5907 59.5177 79.523 59.4843 79.4523 59.4494C79.1288 59.2899 78.7407 59.0985 78.4535 59.3446C77.4535 60.2446 76.4035 61.0946 75.3035 61.8946C70.9035 65.0946 65.2535 66.9446 59.8035 65.8446C57.7209 65.5638 56.1859 64.1441 54.6552 62.7284C52.9151 61.119 51.1805 59.5148 48.6535 59.5946C47.9488 59.6869 47.2426 59.789 46.5353 59.8913C43.0273 60.3988 39.4904 60.9104 35.9535 60.2446C35.7535 60.2007 35.5458 60.1577 35.3334 60.1138L35.3333 60.1138L35.3332 60.1137C33.3682 59.7072 30.9901 59.2153 30.4035 57.0946C30.0892 56.1864 30.8972 55.8395 31.6686 55.5083C32.0014 55.3654 32.3274 55.2255 32.5535 55.0446C36.9035 52.1446 41.7535 49.1446 47.2035 50.2946C48.4829 50.5443 49.7881 50.8227 51.1103 51.1048C60.3807 53.0828 70.4894 55.2396 78.4535 48.8946C81.4734 46.6297 83.5109 43.4601 85.5327 40.3151L85.5329 40.3148L85.533 40.3147C86.323 39.0858 87.1106 37.8606 87.9535 36.6946C91.1535 32.5946 95.2535 28.7446 100.203 27.0446C100.377 27.0098 100.559 26.9617 100.745 26.9125C101.36 26.7495 102.016 26.5757 102.554 26.8446C102.581 26.8584 102.63 26.8855 102.692 26.9203C103.082 27.1385 104.019 27.6619 103.804 27.1446C99.209 21.7762 92.2754 27.7756 88.2065 31.2963C88.0688 31.4154 87.9344 31.5317 87.8035 31.6446C85.7729 33.554 84.2016 35.8491 82.633 38.1404L82.6329 38.1404C81.6137 39.6291 80.5956 41.1161 79.4535 42.4946C70.8663 53.156 59.9731 50.9449 48.8299 48.6831L48.8298 48.683C46.5423 48.2187 44.2443 47.7523 41.9535 47.3946C37.4089 46.7749 33.5812 49.1252 29.878 51.399L29.8778 51.3992C29.0993 51.8771 28.3264 52.3517 27.5535 52.7946C25.1535 53.4446 26.5535 55.7446 27.7035 56.8946C34.7035 63.9946 43.4535 63.6446 52.5035 62.1946ZM95.0535 68.0945C93.9035 68.5445 97.3035 70.2945 97.9035 70.3445C102.053 68.0945 106.953 65.1945 108.903 60.5945C109.437 59.2841 109.535 57.8454 109.634 56.4099C109.758 54.6139 109.881 52.8229 110.853 51.2945L111.107 51.105L111.356 50.919C116.891 46.7885 121.557 43.306 120.003 35.3946C119.913 34.3547 119.516 33.3455 119.122 32.3439C118.644 31.1301 118.171 29.9273 118.253 28.6945C118.703 28.3945 116.703 27.2945 116.353 27.1945C115.403 26.6945 115.653 27.9945 115.803 28.5445C118.453 34.3945 118.453 41.9445 112.603 45.8445C111.98 46.4505 111.21 46.9358 110.441 47.4204C109.053 48.2952 107.668 49.1679 107.153 50.7445C106.805 51.9453 106.689 53.2061 106.573 54.4659C106.389 56.4584 106.206 58.4485 105.103 60.1945C102.925 63.3511 99.5211 65.4007 96.2626 67.3629L96.2606 67.3641L96.2602 67.3643L96.2598 67.3646L96.2593 67.3648L96.2589 67.3651L96.2585 67.3653L96.2581 67.3656L96.2577 67.3659L96.2526 67.3689C95.8498 67.6115 95.4492 67.8527 95.0535 68.0945ZM153.964 87.0038L153.902 86.9635C152.769 86.2291 151.286 85.2674 151.003 83.9945C152.317 84.1697 153.401 83.156 154.355 82.2633C154.49 82.1367 154.623 82.0125 154.753 81.8945C157.914 79.1934 160.224 75.5527 162.523 71.9286C166.224 66.094 169.898 60.3026 177.053 58.5445C180.353 57.4445 184.203 57.1945 186.503 60.2945C187.767 61.5907 186.973 61.5008 185.958 61.3859C185.407 61.3235 184.791 61.2538 184.403 61.3945C175.17 62.4247 171.09 68.5213 166.742 75.0181C165.392 77.0349 164.017 79.0902 162.453 81.0445C161.996 81.479 161.468 82.0834 160.89 82.7453C158.94 84.9782 156.417 87.8658 154.103 87.0945L153.964 87.0038ZM191.353 81.8446C198.503 86.9946 207.353 89.2946 216.103 89.2946L216.574 89.2747C219.95 89.1329 223.644 88.9777 226.653 87.5446C225.653 85.4946 223.403 83.6946 221.253 82.9446C214.453 85.4446 206.803 85.2446 199.803 83.6446C194.053 81.9446 185.953 78.9446 185.353 72.0446C184.953 71.0946 181.603 67.8946 180.753 68.5946C181.314 74.058 186.279 77.9078 190.476 81.1623C190.773 81.3926 191.066 81.6199 191.353 81.8446ZM257.654 60.9945C239.104 59.1945 236.704 44.7446 241.004 29.2946C241.404 27.7946 241.454 27.6946 242.754 28.6946L242.853 28.7771C243.967 29.7041 244.187 29.8868 243.604 31.3445C241.954 38.7945 240.704 47.6445 244.854 54.4945C246.4 56.6977 249.398 57.1869 251.991 57.6103L252.267 57.6555L252.394 57.6763L252.504 57.6945C253.23 57.9021 254.017 57.9201 254.803 57.9381C255.911 57.9635 257.018 57.9889 257.953 58.5446C258.117 58.6808 258.28 58.815 258.439 58.9462C260.326 60.4999 261.711 61.64 257.654 60.9945ZM272.353 53.6946C269.803 53.8446 274.953 57.4946 275.803 57.6946C282.303 56.6946 286.653 47.6446 282.903 42.0446C280.403 38.8946 276.203 35.3446 271.903 36.8446C270.353 37.3946 275.653 41.4946 276.503 41.1446C277.153 40.5946 278.203 40.5946 279.003 40.6446C279.391 40.8208 279.456 41.4937 279.513 42.0857C279.537 42.3337 279.559 42.5674 279.603 42.7446C279.803 47.3446 276.853 52.2946 272.353 53.6946ZM259.653 79.7946C257.203 79.1946 255.353 77.0446 253.853 75.1446C253.731 74.9245 253.472 74.5223 253.136 74.0015L253.136 74.0008L253.136 74.0006C251.413 71.3267 247.677 65.5293 250.103 65.1946C253.103 66.6446 255.503 69.5946 256.153 72.8446C257.153 70.9946 262.453 63.1446 264.953 64.8946L265.064 64.9741C266.657 66.118 268.853 67.6948 268.853 69.8446C268.253 72.5946 262.553 79.6946 259.653 79.7946ZM304.027 79.0879L304.028 79.088L304.029 79.088C304.416 79.1056 304.792 79.1227 305.153 79.1445C310.224 79.4512 317.91 76.3757 325.417 73.3712C333.826 70.0063 342.012 66.7304 346.053 68.3945C346.303 68.5945 347.403 69.2945 347.003 68.4945C342.926 62.3068 334.892 65.5985 329.257 67.9071L329.25 67.9096L329.247 67.9111L329.004 68.0104L328.853 68.0721L328.553 68.1945C325.788 69.1299 322.989 70.385 320.158 71.655C312.545 75.0692 304.694 78.5905 296.603 76.2945C296.526 76.2428 296.438 76.1642 296.345 76.0805C296.077 75.8408 295.763 75.5592 295.503 75.7445C297.062 78.7719 300.88 78.9451 304.027 79.0879ZM316.203 129.895C310.392 129.746 306.357 124.761 302.97 120.577L302.903 120.495C299.705 117.581 296.339 119.303 292.82 121.102C288.912 123.101 284.816 125.196 280.553 121.145C275.853 117.695 273.703 112.095 272.503 106.595C271.403 102.145 270.703 97.5946 270.153 92.9946C269.968 92.0663 271.118 92.9044 271.564 93.2294L271.564 93.2299C271.598 93.2548 271.629 93.2767 271.653 93.2946C273.453 94.5446 274.903 96.1446 274.903 98.4446C275.553 102.745 276.253 107.045 277.303 111.245C277.643 112.28 277.909 113.255 278.151 114.146C279.373 118.632 280.012 120.981 286.603 118.145C295.603 112.695 300.153 114.945 306.453 122.645C307.703 124.545 309.403 125.995 311.753 125.945C318.703 125.895 326.203 122.395 329.003 115.745C329.803 113.895 330.753 111.545 330.853 109.695C327.703 110.845 324.303 110.695 321.003 110.295C310.153 109.595 301.203 101.495 297.453 91.5946C297.423 91.3827 297.187 90.832 296.912 90.1919L296.912 90.1916C296.279 88.7166 295.442 86.767 296.453 87.3946C298.294 88.2477 298.885 89.9477 299.494 91.6978L299.495 91.7009L299.496 91.704L299.497 91.7071C299.565 91.9026 299.633 92.0989 299.703 92.2946C303.453 101.945 307.903 106.445 318.603 106.795C321.053 106.945 323.553 106.795 325.853 106.045C326.743 105.847 327.571 105.43 328.392 105.016C329.234 104.592 330.068 104.172 330.953 103.995C333.803 105.045 336.553 107.895 335.753 111.195C334.753 122.395 327.603 129.645 316.203 129.895ZM250.603 139.045C252.203 141.045 254.404 142.895 257.053 143.045C258.554 143.087 259.945 142.652 261.352 142.212C261.458 142.178 261.565 142.145 261.672 142.112C261.799 142.072 261.926 142.033 262.053 141.995C262.854 141.695 259.453 138.845 258.953 138.795C258.754 138.695 258.504 138.745 258.303 138.795L258.302 138.795C257.753 138.995 257.203 139.195 256.603 139.345C255.603 139.595 254.554 139.845 253.504 139.795C253.163 136.16 252.736 132.554 252.31 128.955L252.309 128.945C252.173 127.795 252.037 126.645 251.904 125.495C251.533 122.27 251.292 119.03 251.051 115.791L251.051 115.79C250.87 113.354 250.69 110.92 250.453 108.495L250.453 108.494C250.153 105.544 249.853 102.594 249.404 99.6946L249.377 99.5546C249.359 99.4598 249.341 99.365 249.323 99.2702C249.303 99.1617 249.283 99.0533 249.263 98.9449L249.263 98.9427C249.069 97.895 248.876 96.8535 248.553 95.8446C248.354 95.2446 247.953 94.6946 247.353 94.4446C247.318 94.4446 247.308 94.4696 247.287 94.5195C247.279 94.5402 247.268 94.5653 247.254 94.5946C247.213 94.7958 247.367 94.9323 247.507 95.0561C247.541 95.0861 247.574 95.1154 247.603 95.1446C248.502 98.7842 248.674 102.545 248.845 106.282L248.845 106.283L248.845 106.285L248.845 106.286C248.864 106.706 248.883 107.126 248.904 107.545C249.054 115.945 249.254 124.345 249.754 132.695L249.754 132.696C249.804 134.045 249.854 135.395 249.953 136.745C249.953 137.545 250.103 138.395 250.603 139.045ZM354.053 64.6946C352.703 64.1446 351.503 63.1446 350.603 61.9945C349.921 61.4382 350.939 61.1633 352.28 60.801C353.591 60.447 355.211 60.0095 355.853 59.1446C356.136 58.9027 355.995 58.8883 355.773 58.8656C355.72 58.8602 355.662 58.8542 355.603 58.8446C353.153 58.7446 350.953 57.8946 349.303 55.9945C349.273 55.9599 349.24 55.9238 349.206 55.8863L349.147 55.8227C348.785 55.4338 348.307 54.9205 348.653 54.4446C335.503 61.0446 320.453 65.4946 305.653 63.1946C305.053 63.0446 302.603 60.8446 303.953 61.2946C310.653 62.0946 317.553 61.1446 324.103 59.3946C329.653 57.9946 334.904 55.7446 339.953 53.0946C340.574 52.8424 341.381 52.4549 342.299 52.014C346.114 50.1816 351.847 47.4279 354.103 49.6446C354.261 49.7751 354.437 49.9113 354.621 50.0535C355.775 50.9466 357.237 52.0781 356.503 53.5446C355.685 54.8306 355.103 55.4822 354.787 55.8359L354.787 55.8362C354.587 56.0601 354.493 56.1647 354.514 56.2354C354.532 56.2972 354.638 56.3331 354.837 56.4004C355.432 56.6021 356.858 57.0858 359.253 59.3946C362.168 62.3563 356.95 63.8594 354.487 64.5687C354.33 64.6138 354.185 64.6557 354.053 64.6946ZM53.4535 97.9446C54.3535 99.9946 56.7035 101.245 58.7035 102.095C64.1024 103.578 68.7443 101.903 73.6245 100.143C78.7778 98.2832 84.1968 96.3281 91.0535 97.8946C92.4035 98.2446 91.1035 96.9946 90.7035 96.6946C88.9035 94.8946 86.4035 94.5446 84.0035 94.2446C80.3535 93.8946 76.6535 94.5446 73.2035 95.6446C71.6894 96.0725 70.2023 96.6359 68.7156 97.1991L68.7155 97.1992L68.7155 97.1992L68.7154 97.1992L68.7153 97.1992L68.7153 97.1992L68.7152 97.1993L68.7151 97.1993L68.7151 97.1993L68.715 97.1993L68.7149 97.1994L68.7149 97.1994L68.7148 97.1994L68.7147 97.1994L68.7147 97.1994L68.7146 97.1995L68.7145 97.1995L68.7144 97.1995L68.7144 97.1995C65.6848 98.3473 62.6566 99.4946 59.4035 99.4946C60.5535 98.9446 61.9035 98.6946 63.1535 98.5446C63.1099 97.6282 61.3906 96.5595 60.3886 95.9367L60.3886 95.9367C60.2425 95.8459 60.1117 95.7646 60.0035 95.6946C59.5673 95.3732 58.6989 95.252 57.8435 95.1327H57.8435C56.8361 94.9922 55.8469 94.8543 55.6035 94.3946C55.4535 93.9446 55.2035 93.0946 55.7035 92.7446C61.5603 93.083 66.4142 90.8195 71.1896 88.5927C75.587 86.5421 79.9178 84.5227 84.9035 84.5946C86.6535 84.5946 88.3535 85.0946 89.7535 86.2446C89.7639 86.2497 89.7823 86.2598 89.807 86.2732C90.021 86.3896 90.7087 86.7635 90.7535 86.4946C89.7535 85.0446 88.0035 84.0946 86.4535 83.2946C79.951 80.6233 73.7449 83.2643 67.627 85.868C65.042 86.968 62.4728 88.0614 59.9035 88.7446C57.3035 89.3946 54.6535 89.6946 51.9535 89.6446C51.7035 89.6446 51.5035 89.6946 51.4035 89.9446C50.7535 92.6946 53.7035 94.7446 55.6535 96.0946C55.5258 96.1504 55.3802 96.2063 55.2262 96.2655L55.2261 96.2655C54.4153 96.5767 53.3695 96.9782 53.4535 97.9446ZM154.303 99.4445C152.353 99.0445 149.203 94.3445 153.303 98.0445C159.235 98.5727 164.441 93.6207 168.893 89.3852C169.92 88.4082 170.907 87.4693 171.853 86.6445C171.986 86.5496 172.112 86.4041 172.239 86.2574C172.446 86.018 172.655 85.7755 172.903 85.7445C173.703 86.1445 174.853 86.7945 175.153 87.6945C174.406 88.3543 173.587 89.1195 172.711 89.9382L172.711 89.9383C167.613 94.7029 160.576 101.279 154.303 99.4445ZM200.803 72.2446C196.903 71.2446 203.253 75.5446 204.553 75.1446C209.902 75.9692 215.023 74.7076 220.109 73.4544C226.435 71.896 232.708 70.3504 239.303 72.8446C237.553 69.2446 229.803 67.3446 225.953 67.7946C222.39 68.0238 218.947 69.0696 215.511 70.1137C210.703 71.5745 205.906 73.0319 200.803 72.2446ZM268.803 212.945C265.643 211.65 262.656 209.978 259.666 208.304C258.731 207.781 257.795 207.257 256.853 206.744C254.765 205.58 252.418 205.351 250.099 205.124C249.531 205.069 248.964 205.013 248.403 204.945C245.803 204.495 243.303 202.945 241.653 200.895C241.225 200.005 242.078 197.748 242.809 195.811L242.809 195.811C243.188 194.808 243.534 193.891 243.653 193.294C245.067 188.366 246.638 183.517 248.214 178.651L248.216 178.644L248.217 178.64L248.218 178.639L248.218 178.638L248.218 178.637L248.219 178.635L248.219 178.634L248.22 178.633L248.22 178.632L248.22 178.63L248.221 178.629L248.221 178.628L248.222 178.627L248.222 178.625C248.818 176.786 249.414 174.944 250.003 173.095C251.653 167.645 252.853 162.045 253.953 156.445C254.166 155.363 254.335 154.27 254.504 153.172C254.812 151.174 255.122 149.163 255.703 147.195C256.016 146.921 256.757 147.565 257.233 147.978C257.365 148.093 257.477 148.19 257.553 148.244C257.594 148.285 257.647 148.33 257.705 148.379C257.93 148.569 258.223 148.816 258.103 149.095C257.619 150.637 257.445 152.257 257.273 153.851C257.25 154.066 257.227 154.281 257.203 154.494C256.003 166.044 253.803 177.495 250.203 188.595C249.103 192.695 247.903 196.744 246.403 200.744C246.403 200.852 246.326 201.037 246.246 201.23C246.102 201.575 245.947 201.945 246.203 201.945C251.083 201.945 255.282 204.373 259.375 206.741L259.553 206.845C260.642 207.536 261.857 208.066 263.07 208.596C265.368 209.599 267.664 210.601 269.103 212.695C269.203 212.945 268.953 212.945 268.803 212.945ZM123.25 68.5541C123.75 69.6041 124.9 70.4041 125.95 70.9041C133.2 68.7041 136.55 59.9541 135.4 52.9541C134.885 49.0584 133.209 45.541 131.543 42.0443L131.543 42.044L131.543 42.0438L131.543 42.0436L131.543 42.0434L131.543 42.0431L131.543 42.0429L131.542 42.0427L131.542 42.0425L131.542 42.0423L131.542 42.0421L131.542 42.0419L131.542 42.0417L131.542 42.0415L131.542 42.0413C130.942 40.7818 130.343 39.525 129.8 38.2541C129.55 37.5541 128.8 37.0541 128.15 36.7541C127.674 36.6861 128.1 37.4733 128.452 38.1256C128.618 38.4328 128.768 38.7101 128.8 38.8541C130.95 43.3041 133.05 47.9541 133.15 53.0041C133.1 58.5041 130.7 64.5041 125.8 67.3041C125.359 67.58 124.872 67.795 124.389 68.0079L124.389 68.0079C123.997 68.1809 123.609 68.3524 123.25 68.5541ZM290.153 37.0945C289.203 37.5945 293.003 39.7945 293.503 39.8445C293.653 39.8445 293.753 39.8445 293.853 39.7445C294.52 39.2445 295.17 38.7279 295.803 38.1945C298.603 35.9945 300.653 32.8445 297.553 29.8945C297.478 29.8195 297.391 29.7445 297.303 29.6695C297.216 29.5945 297.128 29.5195 297.053 29.4445C297.053 29.3459 296.989 29.2689 296.93 29.1992C296.899 29.163 296.871 29.1287 296.853 29.0945C295.853 28.1445 294.653 27.1945 293.303 26.8945C292.803 26.9445 293.853 27.9945 293.903 28.0445C297.753 31.3445 292.853 35.1445 290.153 37.0945ZM274.404 31.5945C272.854 31.0945 271.454 30.0945 270.553 28.7945C268.63 28.7503 267.117 29.4001 265.609 30.0481C263.705 30.8656 261.809 31.6802 259.103 31.0945C255.253 30.2945 251.004 27.1945 251.304 22.8945V22.5945C251.154 22.6445 250.954 22.6945 250.804 22.6945C249.004 23.2445 247.154 22.6445 245.654 21.6445C243.454 20.3445 241.154 18.1945 242.204 15.3945C242.854 13.1945 243.954 11.1945 245.304 9.34448C245.459 9.03303 245.767 9.17629 246.037 9.30219C246.113 9.33798 246.187 9.37237 246.254 9.3945C247.104 9.7945 247.854 10.2945 248.504 10.9445C248.517 10.9577 248.532 10.9717 248.547 10.9866L248.548 10.9869L248.549 10.9876C248.652 11.085 248.79 11.2147 248.704 11.3445C248.544 11.5845 248.368 11.8244 248.192 12.0644C247.928 12.4244 247.664 12.7845 247.454 13.1445C246.254 15.2945 244.854 18.0445 245.854 20.4445C246.577 20.4664 247.292 20.3247 248.001 20.1841C248.908 20.0042 249.806 19.8261 250.704 19.9945C252.104 20.4945 253.503 21.2945 254.354 22.5445C254.646 23.2583 254.664 24.0353 254.682 24.7935C254.691 25.2037 254.701 25.6083 254.754 25.9945C254.854 26.8945 255.154 27.7445 255.654 28.4445C255.687 28.5445 255.737 28.5945 255.804 28.5945C256.704 28.6945 257.553 28.6945 258.453 28.5945C259.577 28.4281 260.631 27.9501 261.673 27.4775C261.884 27.3821 262.094 27.2869 262.303 27.1945C264.354 26.2945 266.754 25.7945 268.953 26.4945C270.754 27.1945 272.504 28.3445 273.603 29.9445C273.803 30.3111 274.048 30.6333 274.292 30.9554C274.415 31.1166 274.537 31.2778 274.654 31.4445C274.704 31.6445 274.504 31.6445 274.404 31.5945ZM172.954 156.087C173.54 156.575 174.173 157.103 174.854 157.395C174.92 157.428 174.97 157.445 175.004 157.445C175.07 157.445 175.12 157.428 175.154 157.395C175.22 157.328 175.237 157.245 175.204 157.145V156.795V156.245C175.17 155.811 175.154 155.395 175.154 154.995C175.12 154.128 175.07 153.278 175.004 152.445C174.854 150.995 174.654 149.545 174.204 148.195C173.804 146.945 173.254 145.795 172.454 144.745C171.154 143.045 169.504 141.545 167.704 140.395C166.661 139.713 165.553 139.127 164.433 138.535C164.157 138.389 163.88 138.243 163.604 138.095C162.303 137.395 161.104 136.595 159.954 135.645C159.354 135.145 158.754 134.62 158.154 134.095C157.553 133.57 156.953 133.045 156.354 132.545L152.954 129.545C152.404 129.045 151.854 128.545 151.354 127.995C150.854 127.395 150.404 126.745 150.004 126.095C149.204 124.845 148.554 123.495 148.004 122.095C147.454 120.695 146.954 119.295 146.554 117.845C146.187 116.411 145.87 114.945 145.604 113.445C145.379 111.996 145.167 110.548 144.954 109.099L144.954 109.095L144.953 109.09C144.741 107.641 144.528 106.193 144.304 104.745C144.22 104.278 144.142 103.811 144.065 103.345C143.909 102.411 143.754 101.478 143.554 100.545C143.354 99.8446 143.154 99.1279 142.954 98.3946C142.82 97.9612 142.642 97.5279 142.465 97.0945L142.464 97.0931C142.375 96.8769 142.287 96.6607 142.204 96.4446C141.954 95.7946 141.654 95.1445 141.354 94.4945C140.704 93.2445 139.904 92.0946 138.854 91.1446C138.387 90.7112 137.904 90.3112 137.404 89.9446C137.054 89.6946 136.654 89.4946 136.254 89.3446C135.904 89.2446 135.554 89.1445 135.254 89.2445C134.987 89.3112 134.754 89.4446 134.554 89.6446C134.104 90.0446 133.703 90.5946 133.354 91.0946C132.503 92.2446 131.804 93.4446 131.154 94.6946C130.82 95.2946 130.47 95.8945 130.104 96.4945L129.504 97.4945L129.464 97.5598L129.464 97.56C129.173 98.0461 128.834 98.6119 128.404 98.9945C128.337 99.0612 128.287 99.0612 128.254 98.9945L128.154 98.7946C128.087 98.7279 128.037 98.6446 128.004 98.5446C127.904 98.4446 127.82 98.3279 127.754 98.1946L127.154 97.2946C126.754 96.6946 126.337 96.1112 125.904 95.5446C125.254 94.6946 124.554 93.8446 123.804 93.0946C123.054 92.3946 122.254 91.6946 121.354 91.1446C120.803 90.7446 120.104 90.4446 119.454 90.3946C118.704 90.3446 118.054 90.7945 117.504 91.2445C117.054 91.6445 116.703 92.0946 116.354 92.5946C115.903 93.1446 115.504 93.6946 115.154 94.2946C114.354 95.4446 113.604 96.6446 112.854 97.8446L112.633 98.196L112.392 98.5789L112.391 98.5811C110.947 100.878 109.519 103.15 108.254 105.545L108.253 105.545L108.253 105.545C107.603 106.795 106.953 108.045 106.454 109.345C106.354 109.545 106.204 109.845 106.254 110.095C106.304 110.245 106.454 110.395 106.554 110.495C106.754 110.695 106.97 110.861 107.204 110.995C107.304 111.095 107.454 111.195 107.554 111.095C107.62 111.028 107.598 110.961 107.576 110.895L107.57 110.877L107.567 110.869L107.563 110.855L107.561 110.847C107.558 110.835 107.555 110.822 107.554 110.81C107.554 110.805 107.554 110.8 107.554 110.795C107.554 110.725 107.626 110.607 107.688 110.507C107.714 110.464 107.738 110.425 107.754 110.395L107.854 110.095C108.02 109.795 108.187 109.478 108.354 109.145C109.053 107.911 109.787 106.711 110.554 105.545C111.404 104.245 112.304 103.045 113.204 101.845L115.804 98.3446L115.804 98.3445L115.804 98.3445L115.804 98.3444L115.804 98.3444L115.804 98.3443L115.804 98.3443L115.804 98.3442L115.804 98.3442L115.804 98.3441L115.804 98.3441L115.804 98.344C116.654 97.1942 117.504 96.0444 118.454 94.9446C118.687 94.6446 118.954 94.3612 119.254 94.0946L119.254 94.0945C119.754 93.5945 120.354 92.9945 121.104 92.7445C121.553 92.5945 122.153 92.5946 122.604 92.8946C122.758 93.0106 122.883 93.1863 123.001 93.3525C123.035 93.4013 123.069 93.4492 123.104 93.4945L123.504 93.9945C124.156 94.8395 124.75 95.7435 125.353 96.6611C125.535 96.9381 125.718 97.2163 125.904 97.4945C126.237 98.0279 126.587 98.5612 126.954 99.0946C127.454 99.7945 128.037 100.411 128.704 100.945L128.803 101.016C129.129 101.25 129.496 101.513 129.904 101.695C130.154 101.795 130.404 101.845 130.654 101.745C131.054 101.595 131.354 101.245 131.604 100.945C131.803 100.711 131.987 100.461 132.154 100.195C132.32 99.8946 132.504 99.6112 132.704 99.3446C133.037 98.7446 133.387 98.1446 133.754 97.5446C133.839 97.3977 133.925 97.25 134.011 97.1018C134.627 96.04 135.258 94.9538 136.004 93.9446C136.097 93.8277 136.19 93.7082 136.285 93.5878L136.285 93.5876C136.593 93.1929 136.909 92.7894 137.254 92.4446C137.334 92.3843 137.406 92.3161 137.48 92.2462L137.48 92.2461L137.48 92.2459L137.48 92.2458C137.59 92.1417 137.704 92.0342 137.854 91.9446C137.854 91.9446 138.004 91.8446 138.054 91.8946C138.104 91.8946 138.204 92.0946 138.204 92.0946C138.37 92.4279 138.52 92.7446 138.654 93.0446C139.158 94.0962 139.486 95.1833 139.816 96.276L139.904 96.5697C139.937 96.678 139.97 96.7863 140.004 96.8946C140.354 98.2446 140.554 99.6445 140.704 100.995C140.888 102.469 141.058 103.958 141.23 105.453L141.23 105.456C141.384 106.799 141.538 108.147 141.704 109.495C141.854 110.945 142.053 112.395 142.354 113.795C142.654 115.195 143.004 116.595 143.504 117.945C144.004 119.295 144.554 120.695 145.254 121.995C145.404 122.345 145.554 122.645 145.754 122.945C145.954 123.278 146.154 123.595 146.354 123.895C146.753 124.595 147.254 125.245 147.804 125.895C149.76 128.32 152.114 130.378 154.458 132.428C155.11 132.999 155.762 133.568 156.404 134.145L156.651 134.362L156.968 134.642L156.968 134.642C159.281 136.681 161.614 138.738 164.204 140.495C165.454 141.295 166.754 141.995 168.054 142.695C168.387 142.861 168.72 143.045 169.054 143.245L169.254 143.345C169.283 143.36 169.304 143.37 169.32 143.381C169.327 143.386 169.333 143.391 169.338 143.397C169.363 143.422 169.375 143.458 169.404 143.545L169.604 144.045C169.854 144.645 170.054 145.345 170.154 145.995C170.454 147.395 170.553 148.795 170.604 150.195C170.637 150.928 170.654 151.645 170.654 152.345V152.895V153.145C170.704 153.395 170.804 153.645 170.954 153.845C171.454 154.645 172.204 155.395 172.904 156.045L172.954 156.087ZM64.4035 203.295C55.6035 201.045 48.3535 193.595 47.7035 184.345C47.4351 182.833 47.2745 181.278 47.1134 179.719C46.7042 175.757 46.292 171.767 44.1035 168.395C43.3482 167.167 40.5526 166.415 37.9485 165.715L37.9482 165.715L37.948 165.715L37.9479 165.715C36.4149 165.302 34.9483 164.908 34.0035 164.445C18.9535 158.395 1.10348 147.395 0.753479 129.295C0.603479 117.195 5.30348 104.795 14.9535 97.1446C20.6035 92.4946 28.3035 89.1445 35.5035 92.2445C41.6535 94.6445 47.6535 98.7446 50.5035 104.895C50.572 105.123 50.7032 105.331 50.8303 105.532C50.9812 105.771 51.1263 106 51.1535 106.245C50.5932 106.245 50.0328 105.892 49.5238 105.572L49.5233 105.572C49.3966 105.492 49.2731 105.414 49.1535 105.345C48.1349 104.646 47.5906 103.575 47.0473 102.506L47.0472 102.506C46.6572 101.738 46.2677 100.971 45.7035 100.345C36.4035 87.4945 21.7035 96.1946 14.4035 106.395C9.25349 113.145 7.00349 121.695 6.65349 130.045C6.05349 137.595 8.85349 144.895 13.8535 150.495C18.6035 155.995 25.4035 159.445 32.2535 161.695C32.423 161.745 32.5927 161.796 32.7624 161.847L33.1668 161.967L33.1706 161.968L33.1751 161.97C37.3773 163.222 41.616 164.486 45.2035 167.095C51.4518 170.728 52.2409 177.858 52.9661 184.41C53.0591 185.25 53.1511 186.081 53.2535 186.895C53.9035 191.145 54.9535 195.895 58.2035 198.945C62.1035 200.245 66.4035 199.295 69.9535 197.395C74.5035 195.045 78.1535 191.445 81.4535 187.645C82.9035 186.995 87.6535 190.395 88.0535 191.895C88.2535 193.595 88.6035 195.645 90.1035 196.645C95.4535 198.395 101.903 197.895 106.303 194.145C107.971 192.894 109.178 191.182 110.367 189.495C111.174 188.349 111.973 187.215 112.903 186.245C114.953 186.845 117.353 188.245 118.453 190.145C118.803 195.245 124.503 195.695 128.553 195.695C133.303 195.545 138.403 193.145 140.003 188.395C140.548 186.847 140.826 185.077 141.106 183.29C141.803 178.844 142.517 174.293 147.403 172.795C149.149 172.484 150.827 172.648 152.487 172.81C155.106 173.065 157.68 173.317 160.403 171.695C164.303 169.945 166.153 165.545 166.953 161.595C166.994 161.433 167.02 161.26 167.045 161.091C167.146 160.422 167.236 159.826 168.153 160.345C169.603 161.095 171.303 161.995 172.103 163.445C172.036 163.77 171.974 164.098 171.912 164.426C171.696 165.56 171.48 166.697 171.053 167.745C169.403 173.095 164.353 176.945 158.703 176.545C157.953 176.52 157.216 176.432 156.478 176.345C155.741 176.257 155.003 176.17 154.253 176.145C150.253 176.195 147.503 180.195 146.953 183.845C146.854 184.501 146.771 185.164 146.687 185.831L146.687 185.831L146.687 185.831L146.687 185.831L146.687 185.831C146.348 188.517 146.005 191.241 144.603 193.645C138.203 203.395 123.653 199.345 116.403 192.595C111.253 201.595 100.603 203.995 91.6035 199.245C89.4035 198.095 87.3035 196.645 85.4535 194.945C85.4159 194.907 85.3823 194.869 85.3515 194.833C85.3316 194.81 85.3128 194.788 85.295 194.766C85.1201 194.555 85.0313 194.448 84.7535 194.845C79.5535 200.195 72.2035 205.095 64.4035 203.295ZM68.7787 121.712L68.9535 121.795C74.3048 124.626 78.5139 123.082 82.8938 121.475C85.5528 120.5 88.2747 119.501 91.3535 119.445C91.4903 119.466 91.656 119.509 91.8243 119.553C92.4556 119.717 93.1245 119.892 92.4535 118.945C88.7605 113.405 84.0811 115.547 79.2855 117.743C76.6793 118.936 74.0387 120.145 71.5035 120.145C68.3035 120.045 65.1535 118.795 62.5035 117.045C62.5035 116.295 60.1035 113.945 59.5035 114.445C61.077 118.083 65.31 120.078 68.7787 121.712ZM78.6535 153.445C77.2035 152.795 75.6035 151.745 74.9035 150.345C75.9984 150.044 77.1981 149.922 78.4044 149.8C79.4015 149.699 80.4031 149.598 81.3535 149.395C87.4035 148.195 93.8535 145.795 98.1535 141.195C102.45 136.131 102.067 130.242 101.678 124.275C101.56 122.465 101.442 120.648 101.453 118.845C101.5 118.648 101.525 118.304 101.553 117.905C101.649 116.58 101.789 114.649 102.904 115.495C103.001 115.567 103.136 115.659 103.291 115.764L103.292 115.764L103.292 115.764C104.099 116.308 105.456 117.224 104.953 117.895C104.138 121.059 104.471 124.285 104.805 127.517C105.146 130.822 105.488 134.134 104.603 137.395C102.003 148.695 88.9035 152.645 78.6535 153.445ZM102.953 210.845C103.903 212.145 105.303 213.594 107.053 213.545C112.053 213.445 117.003 211.995 121.203 209.295C123.803 207.695 125.854 205.345 127.754 202.995C127.703 202.395 126.153 200.945 125.553 201.095C121.453 206.945 114.653 210.195 107.653 210.895C110.003 209.095 112.303 207.295 114.603 205.395C114.862 205.265 114.638 204.988 114.476 204.786L114.475 204.786L114.447 204.75L114.421 204.718L114.403 204.695C114.307 204.598 114.207 204.494 114.104 204.386C113.512 203.767 112.805 203.03 111.953 202.945L111.754 203.115C110.416 204.263 109.032 205.449 107.603 206.545C107.339 206.842 106.68 207.304 105.936 207.826C104.433 208.88 102.585 210.175 102.953 210.845ZM153.654 219.345C148.954 217.045 145.204 213.295 141.904 209.345C141.178 208.42 140.441 207.519 139.703 206.619C138.966 205.719 138.228 204.819 137.504 203.895C137.499 203.886 137.494 203.876 137.489 203.866L137.488 203.865L137.488 203.864C137.429 203.751 137.317 203.536 137.453 203.445C139.501 203.468 142.154 206.803 144.794 210.122C147.828 213.936 150.845 217.728 152.904 216.445C152.604 210.545 151.903 204.595 150.853 198.745C150.761 198.204 150.649 197.669 150.538 197.134L150.538 197.134L150.538 197.133L150.537 197.133L150.537 197.133C150.288 195.935 150.038 194.739 150.004 193.495C149.904 192.895 150.604 193.245 150.904 193.445C150.992 193.5 151.087 193.558 151.188 193.619C151.998 194.113 153.126 194.799 153.303 195.645C153.338 197.09 153.68 198.511 154.021 199.925L154.021 199.926L154.021 199.927L154.021 199.928L154.021 199.929L154.021 199.929C154.175 200.569 154.329 201.207 154.453 201.845C155.503 206.345 156.203 210.845 156.853 215.395C156.907 215.917 156.981 216.423 157.05 216.897L157.05 216.898C157.432 219.51 157.673 221.164 153.654 219.345ZM327.203 211.695C329.353 214.845 332.803 217.644 336.703 218.044C343.603 217.294 343.953 205.794 342.953 200.544C342.253 197.744 340.403 195.295 337.853 193.945C336.549 193.292 337.022 194.115 337.398 194.768C337.454 194.866 337.508 194.96 337.553 195.044C339.853 199.694 339.853 208.494 336.753 212.744C335.003 215.645 330.503 215.595 329.503 212.195C328.519 209.88 328.067 207.372 327.624 204.908L327.603 204.794C327.65 203.825 326.8 203.153 326.079 202.584C326.02 202.537 325.961 202.49 325.903 202.445C325.868 202.42 325.831 202.393 325.792 202.366C325.276 201.999 324.475 201.429 324.753 202.544C324.823 202.974 324.888 203.406 324.954 203.841L324.954 203.842C325.362 206.548 325.782 209.325 327.203 211.695ZM317.303 199.945C315.219 199.624 313.552 198.243 311.943 196.909C311.545 196.579 311.15 196.252 310.753 195.945C307.203 193.145 303.203 190.795 298.853 189.395C296.57 188.756 294.218 188.299 291.859 187.84L291.858 187.84L291.857 187.839L291.856 187.839C290.705 187.615 289.551 187.391 288.403 187.145C286.303 186.545 283.303 184.345 282.853 182.095C282.806 177.469 282.949 172.832 283.091 168.194V168.193V168.192V168.19C283.25 163.004 283.409 157.817 283.303 152.645C283.253 150.645 283.153 148.545 282.853 146.645C283.397 146.567 283.91 146.941 284.369 147.276C284.502 147.373 284.63 147.466 284.753 147.545C286.203 148.595 287.753 149.895 287.603 151.895C287.977 157.956 287.905 164.033 287.833 170.108V170.11V170.111V170.112C287.779 174.61 287.726 179.107 287.853 183.595C293.253 184.495 298.553 186.145 303.253 189.045C306.353 190.845 309.303 192.945 312.003 195.245C315.404 195.845 318.753 192.345 320.853 190.045C321.441 189.47 321.832 188.928 322.148 188.492C323.013 187.293 323.305 186.889 325.503 188.795C325.634 188.925 325.83 189.091 326.055 189.282C326.953 190.042 328.303 191.185 327.703 191.945C325.103 195.395 321.903 199.495 317.303 199.945ZM324.903 178.345C325.853 180.445 327.253 182.395 329.453 183.345C329.803 183.495 329.803 183.094 329.653 182.895C327.953 179.094 324.753 175.794 320.753 174.395C319.93 174.168 319.093 173.977 318.259 173.786L318.258 173.786L318.258 173.786C314.482 172.921 310.787 172.076 308.903 168.145C307.057 164.76 307.957 159.159 308.829 153.732L308.829 153.732C309.373 150.341 309.907 147.017 309.753 144.345C310.153 143.645 306.103 139.995 306.003 141.145C305.959 145.599 305.319 150.013 304.685 154.388L304.574 155.156C304.534 155.436 304.493 155.715 304.453 155.994C304.053 159.044 303.703 162.294 305.153 165.145C307.503 169.245 311.003 172.895 315.203 175.095C316.932 175.976 318.798 176.42 320.661 176.864L320.662 176.864L320.662 176.865C321.548 177.076 322.433 177.287 323.303 177.544C323.448 177.597 323.609 177.636 323.773 177.675C324.235 177.786 324.719 177.902 324.903 178.345ZM271.953 206.895C270.553 206.295 268.953 205.345 268.253 203.945C268.187 202.978 268.153 202.011 268.153 201.045C267.953 192.845 270.203 184.795 273.904 177.495C274.453 177.259 275.372 178.04 276.007 178.58C276.182 178.728 276.335 178.858 276.453 178.945C276.475 178.966 276.498 178.988 276.522 179.012C276.723 179.208 276.998 179.476 276.953 179.745C276.453 180.845 275.953 181.995 275.503 183.145C273.303 188.495 272.103 194.245 272.154 200.045C272.154 202.295 272.203 204.545 272.253 206.795C272.213 206.916 272.108 206.906 272.016 206.898C271.994 206.896 271.973 206.895 271.953 206.895ZM240.103 216.545C235.403 222.045 234.054 224.695 240.904 229.095C244.304 230.845 248.554 230.795 252.154 229.695C256.604 228.045 260.553 224.595 263.353 220.945C262.653 219.595 261.354 218.545 260.004 217.795C259.611 217.566 259.347 217.892 259.086 218.216C258.947 218.387 258.809 218.558 258.654 218.645C254.404 223.395 248.653 227.695 241.953 226.745C241.734 226.711 241.491 226.694 241.245 226.677C240.763 226.644 240.268 226.61 239.904 226.445C240.177 223.712 241.901 221.353 243.491 219.179C243.647 218.966 243.802 218.754 243.953 218.545C244.33 218.113 244.705 217.67 245.082 217.223C246.76 215.238 248.49 213.192 250.654 211.845C250.804 211.845 250.753 211.645 250.703 211.545C250.203 210.745 249.404 210.095 248.553 209.645C248.106 209.465 247.698 209.727 247.33 209.964C247.288 209.991 247.245 210.018 247.203 210.045C244.604 211.945 242.253 214.195 240.103 216.545Z" fill="black"/>
</svg>
