<svg width="300" height="320" viewBox="0 0 300 320" fill="none" xmlns="http://www.w3.org/2000/svg">
<path fill-rule="evenodd" clip-rule="evenodd" d="M236.811 10.6021C235.161 10.5021 233.561 9.70207 232.361 8.65207C230.295 6.92297 235.841 4.19786 238.468 2.90703C238.955 2.66746 239.342 2.4773 239.561 2.35207C239.682 2.30681 239.803 2.23878 239.925 2.16996L239.925 2.16989C240.208 2.0107 240.497 1.84735 240.811 1.95207C241.161 1.95207 244.211 3.40207 243.411 3.70207C242.746 4.075 241.931 4.45856 241.065 4.866C238.681 5.98814 235.912 7.29137 234.811 9.05207C239.961 8.30207 245.111 7.00207 249.861 4.75207C251.061 4.20207 252.211 3.55207 253.111 2.60207C253.132 2.58144 253.167 2.5485 253.21 2.50755C253.482 2.25087 254.086 1.67959 253.611 1.85207C252.718 1.85207 252.069 1.97935 251.516 2.08769C250.337 2.31889 249.598 2.46389 247.861 1.10207L247.861 1.10199C247.761 1.00202 247.661 0.902043 247.611 0.802072C247.511 0.635405 248.278 0.535406 248.874 0.457628C249.173 0.418739 249.428 0.385406 249.511 0.352073C251.511 0.0520728 253.561 0.402072 255.261 1.55207C255.961 2.00207 257.111 2.80207 256.161 3.65207C254.245 5.73177 251.497 6.74722 248.84 7.72914C248.239 7.95119 247.642 8.17153 247.061 8.40207C245.106 9.02212 243.059 9.46017 241.052 9.88984L240.761 9.95207C240.44 10.0164 240.115 10.0906 239.788 10.1654L239.788 10.1655C238.842 10.3814 237.877 10.6021 236.911 10.6021H236.811ZM158.011 7.05214C153.411 3.60214 141.961 11.2521 150.211 15.1021H150.311C150.411 15.1021 150.461 15.1021 150.461 14.9521C149.311 10.8521 154.811 8.40214 158.161 8.45214C160.154 10.1867 160.159 10.1779 160.668 9.12931C160.848 8.75731 161.092 8.25444 161.511 7.65214C163.661 4.55214 167.411 2.45214 171.211 2.70214C172.321 2.80299 173.317 3.26548 174.307 3.72489C174.789 3.94877 175.27 4.17193 175.761 4.35214C176.761 4.75214 176.661 4.40214 176.061 3.85214C175.259 2.89695 174.136 2.4381 173.026 1.98476L173.025 1.98473C172.683 1.84482 172.342 1.70543 172.011 1.55214C166.961 -1.19786 160.361 2.15214 158.011 7.05214ZM2.21141 10.4021C1.91141 10.2021 1.51142 9.65209 2.06142 9.40209C2.84267 8.95566 3.70696 8.61996 4.55132 8.29199L4.55134 8.29198C4.84179 8.17917 5.12988 8.06727 5.41141 7.95209C9.46141 6.50209 14.8114 6.00209 18.2114 9.10209C18.4614 9.40209 18.0614 9.40209 17.8614 9.30209C14.6614 8.40209 11.2614 8.95209 8.21141 10.0521C7.51141 10.2854 6.81142 10.5354 6.11142 10.8021C6.06856 10.8235 6.01652 10.8358 5.98679 10.8428L5.98678 10.8428C5.97199 10.8462 5.96272 10.8484 5.96283 10.8498C5.96303 10.8521 5.98976 10.8521 6.06142 10.8521C7.36142 11.0521 8.66141 11.2021 9.96141 11.2521C12.0014 11.1921 14.0414 11.0241 16.0814 10.8561C17.4414 10.7441 18.8014 10.6321 20.1614 10.5521C20.3548 10.5158 20.6709 10.4883 21.0405 10.4562C22.1998 10.3553 23.8856 10.2087 23.9614 9.60209C23.2363 9.37897 22.4956 9.31142 21.748 9.24325C21.1554 9.1892 20.5584 9.13475 19.9614 9.00209C19.5614 8.95209 16.7114 7.15209 18.3614 7.45209L18.3614 7.4521C20.1114 7.65209 21.8614 7.85209 23.4114 8.60209C24.2114 9.00209 27.7614 10.9021 25.5614 11.5021C23.8326 11.9675 22.0595 12.0793 20.3011 12.1901C19.415 12.246 18.5326 12.3016 17.6614 12.4021C17.1471 12.445 16.6328 12.496 16.1186 12.547L16.1185 12.547C14.8328 12.6745 13.5471 12.8021 12.2614 12.8021C11.8299 12.7767 11.3912 12.757 10.9483 12.737C7.90113 12.5999 4.65607 12.4539 2.21141 10.4021ZM23.7114 32.002C30.9614 40.902 41.2614 46.802 52.7114 48.002C55.3114 48.352 57.9114 48.552 60.5614 48.552C62.2948 48.552 64.0114 48.452 65.7114 48.252C65.9004 48.2375 66.0894 48.2145 66.2772 48.1917C66.7352 48.1359 67.1859 48.0811 67.6114 48.152C67.6509 48.152 67.7139 48.1755 67.7817 48.2007C67.8856 48.2393 68.0009 48.2823 68.0614 48.252C67.9614 47.552 66.7114 46.852 66.0614 46.502C64.9614 46.152 63.7614 46.202 62.6114 46.252C61.8114 46.302 61.0114 46.352 60.2614 46.252C57.3114 46.152 54.4114 45.952 51.5114 45.502C44.0114 44.202 35.7614 42.602 30.3614 36.752C29.4125 35.7794 28.6211 34.6716 27.8325 33.5677C26.9589 32.3449 26.0888 31.1268 25.0114 30.102C24.1614 29.302 23.2114 28.602 22.1614 28.052C22.1338 28.0428 22.0705 28.0098 21.985 27.9653C21.6066 27.7681 20.793 27.3442 20.7114 27.752C20.7114 27.8838 20.8272 28.0542 20.9232 28.1954L20.9232 28.1955C20.9365 28.2149 20.9493 28.2339 20.9614 28.252C21.1657 28.5358 21.3701 28.8222 21.575 29.1093L21.5751 29.1095L21.5752 29.1097L21.5753 29.1098L21.5754 29.11C22.273 30.0876 22.9773 31.0747 23.7114 32.002ZM173.461 191.602C173.495 191.535 173.528 191.452 173.561 191.352C173.528 191.485 173.478 191.602 173.411 191.702C173.411 191.669 173.428 191.635 173.461 191.602ZM5.36145 21.9021C6.66631 23.5331 8.56976 24.8317 10.6108 25.3095C10.6461 25.4756 10.6846 25.6423 10.723 25.8087C10.8197 26.2272 10.9162 26.6448 10.9614 27.0521C12.4129 33.8697 10.5755 38.4044 4.56426 40.1457C3.68724 39.5346 2.75859 39.0503 2.11141 39.1021C1.95618 39.3737 2.28287 39.7056 2.55379 39.9808L2.55385 39.9809L2.55397 39.981C2.63205 40.0603 2.70548 40.135 2.7614 40.2021C2.85982 40.3035 2.95884 40.405 3.05849 40.5063C2.67362 40.581 2.27465 40.6463 1.86141 40.7021C0.26141 40.8021 5.11141 43.9021 5.71141 43.9021H5.76141C6.04907 43.8565 6.33317 43.8002 6.61305 43.7336C8.94865 45.5662 11.5774 47.0123 14.5614 47.4521C15.4114 47.5521 16.2614 47.6021 17.1114 47.6021C18.1188 47.6021 19.1488 47.557 20.171 47.5122L20.1713 47.5122L20.1716 47.5122L20.1718 47.5122L20.172 47.5121L20.1723 47.5121L20.1725 47.5121L20.1727 47.5121L20.173 47.5121L20.1732 47.5121L20.1735 47.5121L20.1737 47.5121L20.1739 47.5121L20.1742 47.512L20.1745 47.512L20.1748 47.512L20.1749 47.512L20.1751 47.512L20.1753 47.512L20.1756 47.512L20.1758 47.512L20.176 47.5119L20.1763 47.5119L20.1765 47.5119L20.1767 47.5119L20.177 47.5119L20.1773 47.5119L20.1775 47.5119L20.1778 47.5119L20.1781 47.5119L20.1783 47.5118L20.1786 47.5118L20.1788 47.5118L20.1791 47.5118L20.1794 47.5118L20.1796 47.5118L20.1799 47.5118L20.1802 47.5118L20.1804 47.5118L20.1807 47.5117L20.1809 47.5117L20.1812 47.5117L20.1815 47.5117L20.1817 47.5117L20.182 47.5117L20.1823 47.5117L20.1825 47.5117L20.1828 47.5117L20.1831 47.5116C20.6662 47.4905 21.1476 47.4694 21.624 47.4533C21.9535 47.5233 22.2831 47.5735 22.6114 47.6021C23.4114 47.6021 22.5614 46.7021 21.3614 45.8521C20.0114 44.8521 18.2114 43.8521 17.7614 44.1021C17.7452 44.1021 17.7276 44.1034 17.7096 44.1047C17.6167 44.1117 17.5114 44.1196 17.5114 43.9521C16.0614 42.0521 15.5614 39.6021 15.4114 37.2521C15.3281 36.2687 15.2225 35.2854 15.117 34.3021C14.9058 32.3354 14.6947 30.3687 14.6614 28.4021C14.615 28.1468 14.6332 27.8916 14.651 27.6413C14.6717 27.3524 14.6918 27.07 14.6114 26.8021C14.5323 26.6175 13.716 25.9322 12.9842 25.4871C17.9101 25.2486 21.4794 22.1881 24.3115 18.2521C25.1615 17.2021 25.8615 15.9521 26.4114 14.7021C26.4114 14.5626 26.2656 14.3989 26.1434 14.2616L26.1434 14.2616C26.0903 14.202 26.0417 14.1475 26.0114 14.1021L25.9345 14.0405C24.9551 13.2564 23.8782 12.3944 22.6115 12.1021C22.5058 12.1373 22.4746 12.1973 22.4304 12.2821C22.4119 12.3177 22.391 12.3577 22.3615 12.4021C22.2557 12.5871 22.15 12.7756 22.0433 12.9658L22.0433 12.9659L22.0432 12.966C21.7464 13.4952 21.4425 14.0372 21.1115 14.5521C18.1614 19.1021 14.2614 23.8521 8.26145 23.4021C6.43577 21.8483 5.63613 18.3934 4.97163 15.5223C4.78079 14.6978 4.6011 13.9214 4.41145 13.2521C4.26145 12.8021 3.11145 12.1021 2.61145 12.1021C2.70914 12.6296 2.82211 13.1648 2.93543 13.7016L2.93543 13.7016C3.11209 14.5386 3.28961 15.3796 3.41145 16.2021C3.43975 16.34 3.4678 16.4785 3.49592 16.6173L3.49597 16.6176L3.49602 16.6178L3.49608 16.6181C3.86534 18.4409 4.24651 20.3226 5.36145 21.9021ZM9.06141 43.9521C8.65179 43.835 8.31066 43.5962 7.99943 43.307C9.87677 42.5914 11.4861 41.3865 12.5976 39.8321C12.8286 40.5536 13.1419 41.2495 13.5614 41.9021C14.3799 43.007 15.4663 44.1119 16.7007 45.0523C14.1168 44.9795 11.4908 44.8428 9.06141 43.9521ZM7.66146 18.2021C7.51146 18.3521 7.36146 18.5521 7.31146 18.7521C7.36146 19.8021 10.3615 21.2521 11.3615 21.5021C12.094 21.5021 12.6655 20.9923 13.2137 20.5034C13.4138 20.3249 13.6108 20.1492 13.8115 20.0021C14.7115 20.6021 15.5615 20.0521 16.2615 19.5021C16.4038 19.3882 16.5479 19.2744 16.6924 19.1602L16.6928 19.1599C17.3099 18.6724 17.9349 18.1786 18.4615 17.6521C17.9115 16.6021 15.9115 15.6021 14.8115 15.2521C14.6224 15.2206 14.5128 15.3082 14.395 15.4023C14.3259 15.4576 14.2539 15.5151 14.1615 15.5521C13.8968 15.412 13.6273 15.2428 13.35 15.0687C12.7365 14.6835 12.0846 14.2742 11.3615 14.1021C11.1116 14.0708 10.9202 14.2737 10.7265 14.4792L10.7265 14.4792C10.6101 14.6027 10.4928 14.727 10.3615 14.8021C10.2615 14.9354 10.1448 14.9021 10.0115 14.7021C9.66146 14.5021 9.31146 14.3021 8.96146 14.2021C8.92423 14.2021 8.87314 14.1882 8.81851 14.1734C8.7264 14.1484 8.62423 14.1207 8.56146 14.1521C8.13696 14.6709 7.75696 15.3232 7.42145 15.8991L7.36146 16.0021L7.28083 16.1254C6.59869 17.1677 6.45752 17.3834 7.66146 18.2021ZM52.7115 60.152C44.8615 60.002 37.0615 56.952 31.3115 51.652C29.101 49.5994 27.1674 47.2697 25.2339 44.9401C23.4937 42.8434 21.7536 40.7467 19.8115 38.852C19.0115 38.102 18.2615 37.352 17.5115 36.552C17.5615 35.852 20.5615 37.752 20.8115 38.102C23.5315 40.6073 25.9186 43.3689 28.321 46.1482L28.3211 46.1483L28.3212 46.1484L28.3213 46.1485L28.3214 46.1486L28.3215 46.1487L28.3216 46.1489L28.3217 46.149L28.3218 46.1491L28.3219 46.1492L28.322 46.1493L28.3226 46.15C29.2759 47.2528 30.2316 48.3585 31.2115 49.452C34.7615 53.552 36.9615 55.602 42.4615 56.552C45.1115 57.102 47.9115 57.152 50.6115 56.852C51.4739 56.7395 52.3364 56.5426 53.1989 56.3458L53.199 56.3458C53.4865 56.2801 53.774 56.2145 54.0615 56.152C54.1922 56.1259 54.3194 56.0895 54.4451 56.0536C54.8001 55.9521 55.1422 55.8543 55.5115 56.002C56.8615 56.502 59.3115 57.752 60.0115 59.002C57.8615 59.802 55.4115 60.152 53.0615 60.152H52.7115ZM155.911 41.2021C155.061 44.2521 161.061 47.1021 163.461 47.6021C164.361 47.8021 165.278 47.9021 166.211 47.9021C166.678 47.9021 167.128 47.8854 167.561 47.8521C167.596 47.8346 167.662 47.8293 167.734 47.8235C167.869 47.8126 168.029 47.7997 168.061 47.7021C167.561 46.7521 165.461 45.5021 164.411 45.2021C164.045 45.2021 163.678 45.2187 163.311 45.2521C163.198 45.2521 163.085 45.2525 162.97 45.2529C161.819 45.257 160.603 45.2614 159.511 44.8521C158.511 43.0521 160.611 40.1521 162.461 39.8521C163.061 39.7021 161.311 38.5521 161.111 38.4521C161.051 38.4169 160.99 38.3802 160.928 38.343L160.926 38.3421C160.37 38.009 159.741 37.6324 159.111 37.9021C157.661 38.4521 156.411 39.7521 155.911 41.2021ZM181.258 58.9992C178.501 56.5487 174.469 53.8074 170.961 56.052C169.74 57.5786 172.171 59.5617 173.576 60.707L173.576 60.7073C173.781 60.8748 173.965 61.0244 174.111 61.152C176.652 63.2105 178.779 63.2207 181.171 63.2322C182.196 63.2371 183.27 63.2422 184.446 63.4089C184.693 63.5331 184.919 63.6329 185.111 63.7021C186.55 63.5582 187.713 62.4482 188.732 61.4753L188.861 61.3521C190.111 60.2521 191.211 58.8021 191.411 57.1021C191.411 55.6521 187.661 52.9521 186.261 53.1021C183.24 53.4629 181.927 56.346 181.258 58.9992ZM121.622 221.562C104.553 218.961 89.631 207.788 79.4114 194.102C71.2114 183.802 67.6614 172.702 65.9614 159.802C64.9614 152.852 64.1614 145.852 64.1614 138.802C64.1989 138.565 64.1927 138.321 64.1872 138.107C64.1708 137.468 64.1614 137.102 65.3614 138.002C66.5114 138.802 66.5614 139.252 66.4614 140.502C66.4114 143.352 66.6614 146.152 66.9614 149.002C68.0114 158.902 69.6114 168.852 72.8614 178.302C79.4614 194.852 92.9114 211.502 110.711 216.252C121.611 219.152 134.761 219.702 144.161 212.552C153.161 204.952 159.411 194.602 163.011 183.502C166.461 172.652 169.411 161.502 170.361 150.152C170.428 149.585 170.45 149.019 170.473 148.452C170.484 148.169 170.495 147.885 170.511 147.602C170.611 147.252 171.411 147.752 171.561 147.852C171.691 147.94 171.827 148.03 171.967 148.123L171.967 148.123C173.019 148.82 174.297 149.667 174.561 150.902C174.711 155.152 174.161 159.402 173.411 163.552C170.411 180.252 166.661 197.902 154.811 210.752C154.649 210.924 154.487 211.096 154.324 211.269L154.324 211.269C151.984 213.756 149.607 216.282 146.661 218.152C141.561 221.002 135.611 222.152 129.761 222.152C128.961 222.152 128.161 222.135 127.361 222.102L127.306 222.1C129.825 223.814 129.801 224.75 129.749 226.776V226.776C129.727 227.639 129.7 228.7 129.861 230.102C130.153 232.421 130.479 234.74 130.805 237.061L130.805 237.062L130.805 237.063L130.806 237.064L130.806 237.065L130.806 237.066L130.806 237.067L130.806 237.068L130.806 237.069L130.806 237.07L130.807 237.071L130.807 237.072L130.807 237.073L130.807 237.074L130.807 237.075L130.807 237.076L130.807 237.077L130.808 237.078L130.808 237.079L130.808 237.08L130.808 237.081L130.808 237.082L130.808 237.083L130.808 237.084L130.808 237.085L130.809 237.086L130.809 237.087L130.809 237.088L130.809 237.089L130.809 237.09L130.809 237.091L130.809 237.092L130.81 237.093L130.81 237.094L130.81 237.095L130.81 237.096L130.81 237.097L130.81 237.098C131.601 242.723 132.393 248.363 132.711 254.052C133.16 258.286 133.338 263.111 133.526 268.18C134.091 283.466 134.738 300.964 143.111 311.102C143.15 311.119 143.19 311.135 143.229 311.151C143.269 311.167 143.309 311.183 143.349 311.198C143.381 311.211 143.414 311.224 143.446 311.236C143.77 311.244 144.092 311.249 144.411 311.252C145.786 311.327 147.161 311.389 148.535 311.452L148.545 311.452C149.917 311.515 151.289 311.577 152.661 311.652C152.785 311.654 152.909 311.656 153.032 311.659H153.033C155.562 311.702 158.107 311.745 160.061 313.652C160.711 314.152 164.611 317.402 162.961 317.502L162.12 317.4C160.622 317.217 159.123 317.035 157.624 316.852C158.635 317.857 159.321 318.825 158.411 319.002C153.851 318.932 149.507 317.574 145.612 315.351C141.914 314.874 138.213 314.378 134.511 313.852C133.794 313.758 133.074 313.661 132.353 313.564L132.338 313.562C126.534 312.78 120.633 311.985 114.811 312.652C112.2 312.853 110.735 313.522 109.686 314.001C108.124 314.714 107.485 315.005 105.361 312.702C104.725 312.111 105.122 311.933 105.688 311.68L105.691 311.679C105.747 311.654 105.804 311.629 105.861 311.602C107.123 311.081 108.435 310.67 109.786 310.353C107.551 309.121 105.295 307.284 104.261 305.002C104.599 304.691 105.03 304.433 105.465 304.174C105.869 303.933 106.275 303.691 106.611 303.402C116.061 296.652 121.961 285.552 123.861 274.202C125.93 260.843 124.396 247.261 122.876 233.808L122.876 233.807L122.876 233.806L122.876 233.805L122.876 233.805L122.876 233.804L122.875 233.803L122.875 233.802C122.632 231.648 122.389 229.498 122.161 227.352C122.105 226.775 122.038 226.192 121.971 225.607C121.817 224.269 121.662 222.914 121.622 221.562ZM132.508 310.366H132.508H132.508C134.956 310.623 137.373 310.876 139.716 311.046C137.685 309.201 135.866 307.121 134.311 304.902C131.045 299.516 129.264 293.43 128.282 287.046C127.186 290.823 125.652 294.517 123.561 298.102C120.867 302.421 117.625 307.106 113.208 309.748C119.319 308.985 126.022 309.687 132.507 310.366H132.507H132.508ZM94.4425 194.582C97.7364 198.363 101.109 202.235 105.511 204.702C110.611 207.352 116.411 209.002 122.161 209.302C124.002 209.281 125.811 209.04 127.572 208.612C128.107 208.881 128.655 209.113 129.211 209.302H129.411C130.427 209.302 131.496 208.342 132.552 206.874C137.248 204.73 141.448 201.359 144.811 197.552C144.905 197.441 144.997 197.329 145.088 197.216C145.583 197.376 145.917 197.326 145.961 196.952C145.972 196.624 145.989 196.296 146.011 195.969C147.024 194.496 147.863 192.921 148.704 191.344L148.704 191.344L148.704 191.343L148.705 191.341L148.706 191.34L148.707 191.339L148.707 191.338C148.891 190.992 149.075 190.647 149.261 190.302C151.311 186.452 153.361 182.552 154.661 178.402C156.411 172.852 157.561 167.152 158.361 161.452C159.561 154.752 158.711 148.952 152.261 145.452C144.242 140.77 134.794 140.749 125.71 140.728C124.317 140.725 122.932 140.722 121.561 140.702H115.911C105.561 140.652 95.0115 140.602 85.1115 144.002C83.4115 144.452 77.2115 147.352 78.9615 149.552L79.0651 149.656L79.127 149.718L79.1353 149.727L79.1465 149.738L79.1504 149.742C79.6118 150.207 80.14 150.74 80.7279 151.142C79.1419 153.956 77.6311 156.845 76.5868 159.867C76.5414 159.873 76.5115 159.897 76.5115 159.952L76.5353 160.017C76.3013 160.705 76.0919 161.4 75.9114 162.102C76.3512 163.049 77.1571 163.745 78.0195 164.359C78.0336 164.406 78.0476 164.454 78.0615 164.502C78.9772 167.671 80.0576 170.797 81.3213 173.844C81.3021 174.633 81.565 175.398 82.3122 176.133C85.2817 182.708 89.1505 188.86 94.1115 194.202L94.4425 194.582ZM118.561 206.152C120.219 206.142 121.849 205.944 123.442 205.585C122.924 205.066 122.445 204.518 122.011 203.952C121.228 202.236 121.753 200.326 122.256 198.491L122.256 198.491C122.428 197.865 122.597 197.249 122.711 196.652C124.661 190.052 127.361 183.652 130.211 177.402C128.715 180.302 127.335 183.26 125.95 186.228C125.115 188.019 124.277 189.814 123.411 191.602C122.844 192.615 122.332 193.696 121.816 194.787C120.418 197.737 118.99 200.754 116.361 202.652C113.861 203.552 109.561 199.552 108.061 197.702C107.066 195.527 107.919 193.052 108.717 190.74C109.001 189.916 109.278 189.114 109.461 188.352C109.287 188.58 109.108 188.827 108.922 189.084L108.922 189.084L108.922 189.084C107.717 190.745 106.227 192.799 104.061 192.452C100.961 191.252 98.0614 189.102 96.1114 186.452C94.4373 183.104 100.366 171.438 104.623 163.062C106.214 159.93 107.572 157.258 108.211 155.652C104.928 159.281 102.376 163.458 99.8273 167.631C97.2137 171.909 94.6034 176.182 91.2114 179.852C89.8098 181.282 87.9173 180.52 86.1891 179.315C89.5664 186.015 93.8317 192.251 99.0615 197.702C99.335 198.002 99.6068 198.309 99.8798 198.617L99.88 198.617L99.8801 198.617L99.8817 198.619C101.654 200.617 103.476 202.673 106.161 203.452L106.576 203.587C110.448 204.847 114.458 206.152 118.561 206.152ZM140.311 195.052C139.288 196.176 138.191 197.262 137.028 198.284C137.269 197.735 137.501 197.2 137.723 196.688L137.725 196.684L137.726 196.681L137.728 196.677L137.728 196.676C138.477 194.95 139.107 193.497 139.561 192.702C139.561 192.985 140.112 193.628 140.89 194.345C140.702 194.584 140.509 194.82 140.311 195.052ZM82.4455 170.523L82.3917 170.633C81.9773 169.531 81.584 168.42 81.2115 167.302C81.0112 166.829 80.8441 166.324 80.6867 165.808C81.4765 165.879 82.2851 165.567 82.9614 164.952C84.2721 163.999 85.488 162.888 86.6845 161.795L86.6849 161.794L86.685 161.794L86.6851 161.794L86.6852 161.794L86.6853 161.794L86.6854 161.794L86.6856 161.794L86.6857 161.794L86.6858 161.794L86.6859 161.794L86.686 161.793L86.6861 161.793L86.6862 161.793L86.69 161.79L86.7003 161.78C87.0049 161.502 87.3082 161.225 87.6114 160.952L87.6113 160.952C85.9613 163.802 84.3114 166.652 82.8614 169.652C82.727 169.944 82.5857 170.235 82.4455 170.523ZM88.0114 148.052C87.9878 147.946 87.9445 147.845 87.8882 147.749C89.5791 147.144 91.4025 146.719 93.1028 146.359C91.6971 147.71 90.364 149.15 89.0364 150.584L89.0362 150.585L89.0357 150.585C87.6156 152.12 86.2017 153.648 84.7114 155.052C84.5509 155.193 84.3501 155.405 84.1511 155.617C83.8542 155.931 83.5611 156.242 83.4114 156.302C83.5671 155.978 83.722 155.654 83.877 155.329C84.9665 153.046 86.0607 150.753 87.4614 148.652C87.5766 148.46 87.7508 148.298 87.8933 148.165C87.9364 148.124 87.9766 148.087 88.0114 148.052ZM103.861 147.402C103.882 146.729 103.098 145.799 102.067 144.93C103.719 144.763 105.374 144.635 107.031 144.537C106.312 145.147 105.636 145.776 105.043 146.328L105.042 146.329L105.042 146.329L105.042 146.329L105.041 146.33L105.04 146.331C104.593 146.747 104.194 147.118 103.861 147.402ZM119.311 147.502C118.73 146.181 117.716 145.125 116.556 144.231C118.458 144.207 120.36 144.199 122.261 144.19H122.262H122.264H122.265H122.266H122.268H122.269H122.27H122.271H122.273H122.274H122.275H122.277H122.278H122.279H122.28H122.282H122.283H122.284H122.286H122.287H122.288H122.289H122.291H122.292H122.293H122.295H122.296H122.297H122.298H122.3H122.301H122.302H122.303H122.305H122.306H122.307H122.309H122.31L122.317 144.19H122.317C125.168 144.177 128.018 144.164 130.861 144.102C131.354 144.102 131.847 144.101 132.342 144.1H132.342C136.172 144.091 140.072 144.083 143.872 144.585C135.877 151.483 130.487 161.098 125.323 170.311L125.323 170.311C125.119 170.675 124.915 171.039 124.711 171.402C126.103 167.819 127.655 164.315 129.202 160.823C130.655 157.542 132.104 154.27 133.411 150.952C134.061 149.502 128.561 145.702 127.211 146.002C121.711 150.402 117.661 156.452 114.011 162.402C114.528 160.95 115.278 159.373 116.053 157.745C117.68 154.328 119.413 150.686 119.311 147.502ZM149.749 146.973C149.138 146.416 148.489 145.823 147.792 145.315C149.522 145.744 151.218 146.322 152.861 147.102C154.461 147.602 154.861 149.452 155.161 150.902C155.544 153.377 155.303 155.851 154.906 158.306C153.896 157.606 152.831 157.055 152.261 156.852C151.43 156.817 150.935 157.502 150.46 158.159C150.249 158.451 150.042 158.737 149.811 158.952C146.661 162.752 143.911 166.902 141.411 171.152C143.023 167.424 144.694 163.715 146.362 160.014L146.363 160.013L146.363 160.013L146.363 160.012L146.363 160.012L146.364 160.011L146.364 160.011L146.364 160.01L146.364 160.01L146.365 160.009L146.365 160.009L146.365 160.008L146.365 160.008L146.365 160.007L146.366 160.007L146.366 160.006L146.366 160.006L146.366 160.005L146.367 160.005L146.367 160.004L146.367 160.004L146.367 160.003L146.367 160.003L146.368 160.002L146.368 160.002L146.368 160.001L146.368 160.001L146.369 160L146.369 160L146.369 159.999L146.369 159.999L146.37 159.998L146.37 159.998L146.37 159.997L146.37 159.997L146.37 159.996L146.371 159.996L146.371 159.995L146.371 159.995L146.371 159.994L146.371 159.994L146.371 159.994L146.372 159.994L146.372 159.994L146.372 159.993L146.372 159.993L146.372 159.993L146.372 159.993L146.372 159.993L146.372 159.993L146.372 159.993L146.372 159.992L146.372 159.992L146.372 159.992L146.372 159.992L146.372 159.992C147.341 157.844 148.308 155.698 149.261 153.552C149.404 153.1 149.621 152.608 149.845 152.097C150.565 150.463 151.369 148.636 150.111 147.302C149.992 147.194 149.871 147.084 149.749 146.973L149.749 146.973ZM182.011 44.4521C182.36 44.0499 182.766 43.6909 183.176 43.3287L183.176 43.3286C183.53 43.0154 183.887 42.6999 184.211 42.3521C189.811 37.5021 190.811 30.1021 187.761 23.4521C187.461 22.8271 187.136 22.2146 186.811 21.6021C186.486 20.9896 186.161 20.3771 185.861 19.7521C185.511 19.2021 185.611 18.9021 186.311 19.2521C187.711 19.9521 189.011 20.9521 189.561 22.4521C189.759 22.8349 189.959 23.215 190.158 23.5942L190.158 23.5946L190.159 23.5953C190.819 24.8506 191.474 26.0969 192.011 27.4021C193.511 31.3521 194.011 35.9521 192.411 39.9521C191.161 43.1021 188.661 46.0521 185.661 47.5021C184.411 47.0021 182.511 45.7021 182.011 44.4521ZM152.211 44.302C151.411 44.302 150.561 44.252 150.361 44.202C147.361 43.602 143.461 41.352 142.861 38.102C142.626 36.5885 143.182 35.2108 143.739 33.8318C144.01 33.1608 144.281 32.4894 144.461 31.802C142.211 30.652 139.161 28.702 139.911 25.752C140.511 22.502 143.911 17.052 147.211 21.052C147.361 21.202 147.461 21.452 147.111 21.352C146.561 21.352 146.011 21.702 145.611 22.052C144.061 23.452 141.561 28.452 143.211 30.202C147.796 32.1625 147.195 33.468 146.315 35.3806C145.736 36.6387 145.036 38.1594 145.611 40.302C145.872 41.7763 146.959 41.8216 148.189 41.8729L148.189 41.8729L148.189 41.8729L148.19 41.8729C148.378 41.8808 148.569 41.8887 148.761 41.902C149.028 41.902 149.311 41.8853 149.611 41.852C149.911 41.8187 150.195 41.802 150.461 41.802C151.561 42.252 152.561 43.002 153.311 43.902C153.561 44.252 152.961 44.302 152.211 44.302ZM165.361 34.3021C165.861 35.2521 166.911 35.9521 167.911 36.4021C168.311 36.4021 168.391 33.949 168.433 32.6793C168.443 32.3584 168.451 32.113 168.461 32.0021C168.211 30.3521 169.111 29.5521 170.411 28.8021C170.837 28.5143 171.279 28.2399 171.722 27.9646L171.722 27.9645C173.204 27.0439 174.699 26.1146 175.661 24.6521C176.692 23.1506 176.231 22.1171 175.811 21.1741C175.518 20.5155 175.244 19.9011 175.511 19.2021C176.516 18.5056 177.577 18.2132 178.542 17.9474C180.556 17.3927 182.148 16.9543 181.911 13.2021C181.861 12.8516 181.85 12.4788 181.839 12.1042C181.817 11.3566 181.795 10.6016 181.461 10.0021C181.376 9.92544 181.29 9.84303 181.201 9.75877C180.77 9.34812 180.292 8.89354 179.711 8.85205L179.734 9.07288C179.987 11.5781 180.366 15.3194 177.161 15.9021C176.582 16.115 175.955 16.2467 175.364 16.3708C173.458 16.7713 171.932 17.0919 173.611 19.8021C174.611 22.0021 172.561 23.9021 170.861 24.9521C170.061 25.452 169.261 25.9076 168.461 26.3631C168.061 26.5909 167.661 26.8187 167.261 27.0521C166.261 27.5021 165.511 28.3521 165.661 29.5521C165.661 31.1521 165.561 32.7354 165.361 34.3021ZM133.533 85.5637L133.533 85.5637C135.118 84.2054 136.706 82.8449 138.261 81.452C142.461 77.452 145.411 72.1021 146.561 66.3521C146.611 66.052 146.661 65.7521 146.611 65.452C146.961 64.952 150.411 67.452 149.811 67.8521C148.061 74.3521 144.861 80.6521 139.561 85.0021C138.484 85.8998 137.42 86.8491 136.352 87.8014L136.352 87.8017C134.446 89.5012 132.53 91.2101 130.511 92.6521C130.011 92.5021 127.061 90.8021 128.111 90.3021C129.878 88.6959 131.702 87.1327 133.53 85.5664L133.53 85.5662L133.533 85.5641L133.533 85.564L133.533 85.5639L133.533 85.5638L133.533 85.5637ZM138.064 94.021C137.582 94.2295 137.098 94.4393 136.611 94.6521C135.661 94.9521 138.261 96.6521 138.761 96.7021C145.211 94.0521 152.161 91.1521 156.011 84.9521C156.756 83.8353 157.366 82.6416 157.972 81.4544L157.972 81.4542L157.972 81.454L157.972 81.4538L157.972 81.4536L157.973 81.4534L157.973 81.4532L157.973 81.453L157.973 81.4528C158.344 80.727 158.713 80.0037 159.111 79.3021C159.372 79.0845 159.141 78.8669 158.945 78.6823C158.916 78.6548 158.887 78.628 158.861 78.6021C158.819 78.5641 158.776 78.5251 158.733 78.4855C158.26 78.0548 157.702 77.5479 157.061 77.5021C156.736 78.077 156.436 78.6645 156.136 79.252L156.136 79.2522C155.836 79.8396 155.536 80.4271 155.211 81.0021C151.376 88.2524 145.046 90.9954 138.064 94.021ZM116.561 108.652C115.511 108.302 114.561 107.602 113.811 106.802C111.811 107.052 109.511 105.652 108.711 103.802C108.661 102.652 109.561 101.652 110.361 100.852C111.611 99.4521 113.361 101.102 114.311 102.152C114.711 102.702 113.811 102.302 113.611 102.202C113.011 102.252 111.261 104.602 111.611 104.852C111.845 104.852 112.061 104.835 112.261 104.802C112.711 104.702 113.161 104.652 113.611 104.852C113.697 104.905 113.786 104.96 113.878 105.015C114.654 105.485 115.617 106.069 115.661 107.052C116.351 107.022 117.041 106.83 117.731 106.638C118.191 106.51 118.651 106.382 119.111 106.302C119.567 106.439 120.022 106.783 120.402 107.07L120.472 107.122L120.511 107.152C120.575 107.215 120.654 107.282 120.738 107.352C120.983 107.558 121.261 107.791 121.261 108.052C121.017 108.116 120.768 108.186 120.515 108.258L120.515 108.258C119.579 108.523 118.595 108.802 117.611 108.802C117.245 108.802 116.895 108.752 116.561 108.652ZM125.211 104.052C125.611 104.319 126.011 104.552 126.411 104.752C126.961 105.052 127.661 105.302 128.261 105.302C128.361 105.302 128.461 105.285 128.561 105.252C129.161 105.152 129.611 104.802 129.711 103.952C130.461 104.252 131.361 104.602 132.161 104.402C133.711 103.902 134.111 101.802 133.111 100.602C132.161 99.402 131.011 98.252 129.461 97.852C129.361 97.802 129.061 97.802 129.211 98.002C129.388 98.2271 129.601 98.4419 129.817 98.6596C130.273 99.1189 130.742 99.5914 130.911 100.202C131.161 101.202 130.611 102.502 129.561 102.802C129.348 102.908 129.211 102.788 129.06 102.656C128.998 102.602 128.934 102.546 128.861 102.502C128.821 102.482 128.759 102.447 128.682 102.405C128.192 102.134 127.091 101.527 126.961 102.002C126.949 102.044 126.936 102.086 126.924 102.129C126.785 102.601 126.628 103.131 126.261 103.452C126.126 103.587 126.113 103.56 126.075 103.48L126.075 103.479L126.07 103.469L126.061 103.452C125.411 102.552 124.311 101.952 123.211 101.752C123.054 101.713 122.989 101.828 122.92 101.953C122.902 101.986 122.883 102.02 122.861 102.052C122.821 102.123 122.78 102.201 122.738 102.281C122.574 102.593 122.39 102.943 122.111 103.102C121.883 102.853 121.672 102.579 121.461 102.303L121.461 102.303C121.162 101.914 120.863 101.524 120.511 101.202C120.061 100.752 116.811 99.152 118.511 100.852C118.586 100.952 118.661 101.052 118.736 101.153C119.263 101.861 119.805 102.589 120.461 103.202C121.561 104.002 124.361 106.002 125.211 104.052ZM108.075 73.9574C107.058 71.5222 106.795 68.9331 106.531 66.347C106.198 63.0747 105.865 59.8073 104.007 56.8625C103.616 56.2422 104.084 56.4173 104.492 56.7389C105.412 57.289 105.877 58.224 106.335 59.1468C106.517 59.5128 106.698 59.8769 106.906 60.2143C108.302 62.788 108.783 65.5902 109.265 68.3956V68.3956C109.649 70.6359 110.034 72.8782 110.886 75.0079C111.961 77.712 113.471 80.24 115.091 82.674C117.101 85.7781 119.166 88.8353 121.726 91.5698C121.842 91.8008 122.575 92.4183 123.418 93.1298L123.418 93.1298C125.01 94.4728 126.999 96.1501 125.99 96.1935C118.428 91.6912 111.534 81.6831 108.075 73.9574ZM97.3748 79.8361C100.747 88.8255 110.305 93.9194 118.869 98.3127L118.977 98.3186C119.356 98.339 118.95 97.8195 118.795 97.6619C117.785 96.5124 116.442 95.746 115.118 94.9904C114.697 94.7502 114.278 94.5112 113.872 94.2613C113.469 94.0421 113.064 93.825 112.66 93.608L112.66 93.608C110.312 92.3482 107.972 91.092 105.928 89.4535C101.852 86.0021 100.332 81.2315 98.8245 76.4983C98.1035 74.2345 97.3851 71.9792 96.3911 69.8809C95.6901 68.3142 94.8057 66.8595 93.9056 65.379L93.9055 65.3788L93.7851 65.1807L93.6174 64.9045C93.265 64.3879 92.7447 63.9617 92.2218 63.5852C92.1703 63.5326 91.539 63.1502 91.4741 63.3458C91.6656 63.7086 91.8627 64.0717 92.0609 64.4367L92.0642 64.4428L92.0645 64.4433L92.0647 64.4437L92.0649 64.4441L92.0651 64.4446C92.7327 65.6742 93.4117 66.9248 93.9255 68.255C94.6931 70.1375 95.1716 72.0915 95.6501 74.0455C96.1286 75.9995 96.6072 77.9535 97.3748 79.8361ZM59.7114 143.002C58.6614 142.502 57.4614 141.602 56.9614 140.502C57.3114 138.002 57.7114 135.502 58.5114 133.052C60.4614 126.052 66.7614 121.852 72.7114 118.352C73.2624 118.014 73.8246 117.68 74.3899 117.345C77.4155 115.55 80.5314 113.701 82.5114 110.752C86.0614 105.352 86.9114 98.5521 86.2614 92.2521C86.2281 91.9854 86.1781 91.7021 86.1114 91.4021C86.2114 90.7521 88.4614 92.8521 88.2114 93.3521C89.3114 101.102 88.4614 110.252 82.7614 116.152C80.4336 118.231 77.7513 119.877 75.0705 121.522L75.0704 121.522L75.0703 121.522L75.0702 121.522L75.0701 121.523L75.07 121.523L75.07 121.523L75.0699 121.523L75.0698 121.523L75.0697 121.523L75.0696 121.523L75.0695 121.523L75.0694 121.523L75.0693 121.523L75.0692 121.523L75.0691 121.523L75.069 121.523L75.0689 121.523L75.0689 121.523L75.0688 121.524L75.0687 121.524L75.0686 121.524L75.0685 121.524L75.0684 121.524L75.0683 121.524L75.0682 121.524C71.3008 123.836 67.5363 126.147 64.7614 129.652C62.7114 132.452 61.6114 135.802 60.8114 139.102C60.7218 139.317 60.6193 139.88 60.5039 140.512C60.2976 141.644 60.0501 143.002 59.7614 143.002H59.7114ZM128.911 116.252C136.211 116.252 143.461 116.802 150.511 118.552H150.611C151.161 118.552 150.561 116.452 150.411 116.052C150.334 115.51 149.957 115.448 149.536 115.378C149.413 115.357 149.286 115.336 149.161 115.302C140.688 113.54 132.017 113.38 123.361 113.221H123.361H123.36H123.36H123.36H123.36H123.359H123.359H123.359H123.359H123.358H123.358H123.358H123.357H123.357H123.357H123.357H123.356H123.356H123.356H123.355H123.355H123.355H123.355H123.354C120.469 113.168 117.586 113.115 114.711 113.002C112.011 113.052 109.311 113.002 106.611 112.952C101.361 112.802 96.1614 112.702 91.0114 113.252C90.8364 113.252 90.6614 113.277 90.4864 113.302C90.3114 113.327 90.1364 113.352 89.9614 113.352C89.9281 113.335 89.9059 113.313 89.8874 113.295C89.8503 113.258 89.8281 113.235 89.7614 113.302C89.6614 113.352 89.6614 113.552 89.6614 113.652C89.7114 114.652 89.9114 115.802 90.4614 116.602C90.5671 116.673 90.5983 116.644 90.6425 116.603C90.661 116.586 90.6819 116.567 90.7114 116.552C90.7614 116.552 90.8614 116.552 90.9114 116.502C95.4614 115.902 100.061 115.952 104.661 116.002H104.661C106.861 116.052 109.111 116.052 111.361 116.002C117.211 115.902 123.061 116.052 128.911 116.252ZM3.11144 31.3021C2.9158 30.7477 2.99659 30.1722 3.07648 29.603C3.11909 29.2995 3.16144 28.9977 3.16144 28.7021C1.91144 28.0521 0.311444 27.0521 0.861444 25.4021C0.921444 25.0021 0.997444 24.6021 1.07344 24.2021C1.18744 23.6021 1.30144 23.0021 1.36144 22.4021C1.36144 22.3021 1.36144 22.1021 1.46144 22.1021C2.01144 22.2021 3.66144 23.1021 3.56144 23.7521C3.52296 24.2331 3.46226 24.7068 3.40214 25.1759C3.30604 25.9257 3.21144 26.6639 3.21144 27.4021C3.29312 27.4837 3.43411 27.5506 3.57789 27.6188L3.57791 27.6188C3.69816 27.6758 3.82036 27.7337 3.91144 27.8021C4.01685 27.8811 4.13152 27.9602 4.24894 28.0411C4.79989 28.421 5.41144 28.8426 5.41144 29.5021C5.41144 29.8771 5.36804 30.2521 5.32464 30.6271C5.26387 31.1521 5.20311 31.6771 5.26144 32.2021C5.3166 32.3124 5.47822 32.3466 5.63726 32.3803C5.76657 32.4077 5.89417 32.4348 5.96144 32.5021C6.26144 32.6021 8.46144 34.0521 7.71144 34.1021C6.01144 33.6021 4.16144 32.8021 3.11144 31.3021ZM38.5114 189.952C40.2614 194.952 45.2614 198.652 50.2614 199.902C51.1281 200.069 51.9781 200.152 52.8114 200.152C57.8114 200.152 62.5614 197.352 66.7114 194.802C65.8614 193.102 63.9114 191.802 62.1614 191.002C61.638 191.089 61.1484 191.396 60.6532 191.707C60.2971 191.93 59.938 192.156 59.5614 192.302C55.0114 194.902 49.3614 197.802 44.1114 195.502C41.4114 192.302 41.6614 187.702 42.4614 183.852C42.9114 181.452 43.8114 179.202 44.8614 177.002C44.6206 175.758 43.3812 174.965 42.2808 174.261L42.2804 174.26L42.2801 174.26L42.2797 174.26L42.2793 174.26L42.279 174.259L42.2786 174.259C42.0089 174.087 41.7476 173.919 41.5114 173.752C40.6673 173.313 39.6179 174.106 38.6712 174.82C38.2162 175.164 37.7848 175.49 37.4114 175.652C34.3114 177.602 31.1614 179.552 27.6114 180.552C25.4114 181.102 22.8114 181.552 20.7614 180.502C17.4614 174.352 20.8614 166.902 23.6114 161.152C23.7745 160.894 23.9264 160.621 24.0793 160.347C24.4892 159.61 24.906 158.862 25.5614 158.352C25.6614 158.252 25.7614 158.152 25.7114 157.952C25.0114 156.852 23.8114 156.052 22.6614 155.402C22.2779 155.095 21.9238 155.259 21.5766 155.42C21.4711 155.469 21.3663 155.517 21.2614 155.552C17.9114 156.602 11.7614 157.002 11.2614 152.352C11.1708 144.828 21.1872 135.743 27.3816 130.125C28.0207 129.545 28.619 129.002 29.1614 128.502C29.5439 128.075 30.4155 127.376 31.4348 126.558C33.8802 124.596 37.1761 121.952 36.6114 120.752C35.2114 118.952 33.1114 117.852 30.8614 117.552C30.6114 113.852 32.9114 110.502 35.1614 107.752C37.6282 104.7 40.9079 102.461 44.1745 100.23C48.7209 97.1261 53.242 94.0392 55.5114 88.8021C58.1114 83.4521 59.2114 77.4021 59.0614 71.4521C59.1874 70.6966 58.5734 70.223 58.0181 69.7946C57.9118 69.7127 57.8078 69.6324 57.7114 69.5521C57.5982 69.4955 57.4729 69.4068 57.3424 69.3144C57.012 69.0805 56.6482 68.8229 56.3614 69.0021C56.8114 79.5021 52.7114 90.9021 42.9614 96.0521C37.4114 99.1021 20.3614 111.452 29.0614 118.002C30.0114 118.802 31.1114 119.502 32.2114 120.052C32.2614 120.052 31.7614 120.552 31.7114 120.552C29.8045 122.341 27.5917 124.202 25.2811 126.146L25.281 126.146L25.2809 126.146L25.2807 126.146C17.8375 132.407 9.37966 139.522 6.86144 147.802C6.06144 153.302 14.2614 158.402 18.9114 159.452C18.9739 159.465 19.0521 159.465 19.1286 159.465C19.3583 159.465 19.5739 159.465 19.3114 159.802C19.2276 159.992 19.143 160.182 19.0578 160.374C16.8066 165.45 14.1843 171.362 16.1114 176.902C16.9614 178.852 18.5114 180.352 20.2114 181.652C25.6614 186.452 33.1114 184.802 38.6614 181.152C38.0614 184.002 37.7114 187.102 38.5114 189.952ZM90.0614 71.502C85.1935 69.8408 84.5049 67.1944 83.5899 63.6782C83.3207 62.6438 83.032 61.5341 82.6114 60.352C79.7114 60.752 77.1114 63.302 76.4614 66.152C76.4114 66.452 76.1614 66.302 76.0114 66.202C75.9301 66.1533 75.8442 66.1033 75.7554 66.0518C75.0251 65.6275 74.106 65.0937 74.0614 64.202L74.0589 64.1604V64.1602C73.9597 62.5233 73.8576 60.8385 73.4114 59.252C73.2781 58.7187 73.0947 58.202 72.8614 57.702C72.8614 57.552 72.6614 57.602 72.5114 57.652C72.4114 57.702 72.3614 57.702 72.2614 57.702C69.4114 58.702 67.4614 61.352 65.9614 63.852C65.7614 64.452 64.6114 63.352 64.4614 63.052C65.4614 60.302 67.7114 57.302 70.4614 56.102C73.3114 55.602 75.4614 59.052 75.8114 61.502C79.2114 57.602 82.4114 57.402 85.0614 62.152C85.4839 63.1818 85.753 64.2535 86.0234 65.3301C86.2649 66.2922 86.5075 67.2582 86.8614 68.202C86.908 68.2953 86.945 68.403 86.9828 68.5132L86.9828 68.5133C87.0667 68.7576 87.1547 69.0142 87.3614 69.152C88.0114 69.352 88.6614 69.702 89.1614 70.152C89.1679 70.1585 89.1755 70.1659 89.1842 70.1743C89.1973 70.1868 89.2129 70.2014 89.2306 70.2178L89.2606 70.2456L89.3109 70.292C89.7111 70.6606 90.6247 71.502 90.1114 71.502H90.0614ZM97.31 30.6996C97.5974 33.0144 97.8857 35.3358 99.2114 37.3521C102.111 41.6521 107.311 44.6021 112.511 44.6021C113.179 44.513 112.064 43.592 111.564 43.1792L111.49 43.1182C111.46 43.0931 111.433 43.0709 111.411 43.0521C110.361 42.0521 109.061 41.952 107.711 41.952C105.811 41.752 103.511 41.2521 102.411 39.5021C101.037 37.5447 100.703 35.1191 100.374 32.7236C99.9121 29.3669 99.4585 26.0694 96.1614 24.2021C95.2104 23.4729 94.1387 22.9448 93.0611 22.4137C92.4392 22.1072 91.8153 21.7997 91.2114 21.4521C89.3321 19.6411 89.2742 16.8493 89.2184 14.1619C89.1926 12.9169 89.1672 11.6943 88.9614 10.6021C88.9114 9.85205 88.1114 9.25205 87.4614 9.10205C87.4364 10.102 87.3989 11.1019 87.3614 12.1018C87.3239 13.1019 87.2864 14.102 87.2614 15.1021C86.7614 19.1021 90.0114 21.8521 93.3114 23.5021C93.6234 23.71 93.9834 23.8639 94.3436 24.0179C95.0225 24.3082 95.702 24.5987 96.0614 25.2521C96.8447 26.9529 97.0771 28.8241 97.31 30.6996ZM122.461 51.752C121.761 50.552 123.411 51.602 123.811 51.902C125.267 52.7108 125.99 54.1267 126.712 55.5401C127.106 56.3111 127.5 57.0814 128.011 57.752C132.261 58.852 137.561 56.602 139.311 52.502C135.211 50.252 131.611 46.852 129.261 42.802C127.626 40.0145 126.875 36.9231 126.125 33.8358L126.125 33.8356C125.866 32.7697 125.607 31.7043 125.311 30.652C125.186 30.3439 125.079 29.9838 124.967 29.6089L124.967 29.6088L124.967 29.6087C124.589 28.3412 124.162 26.9064 122.811 26.752C119.661 26.152 116.561 24.502 114.661 21.852C113.732 20.3655 113.466 18.6304 113.206 16.9341C113.116 16.3481 113.027 15.7669 112.911 15.202C112.361 12.002 111.111 8.90203 109.061 6.40203C106.311 5.00203 103.211 4.35203 100.111 4.05203C99.0114 4.05203 98.1615 4.10203 97.5115 4.20203C97.4309 4.21211 97.3526 4.2221 97.2765 4.23183L97.276 4.23189C95.463 4.46346 94.8403 4.543 91.9615 1.95203C91.8615 1.85203 91.1614 1.15203 91.6115 1.05203C94.0114 0.802031 96.5114 0.802031 98.8615 1.30203C102.311 2.00203 105.711 3.05203 108.611 5.00203C113.311 7.70203 116.211 12.702 116.911 17.952C117.031 18.5058 117.097 19.1178 117.164 19.741C117.322 21.2001 117.486 22.7211 118.361 23.702C126.897 25.7771 127.951 30.1207 129.399 36.0849C129.801 37.7374 130.232 39.5144 130.861 41.402C132.411 45.252 134.861 49.502 139.061 50.852C139.144 50.8978 139.231 50.9458 139.323 50.996C140.73 51.7687 143.09 53.065 142.761 54.802C141.061 58.652 136.711 60.802 132.611 60.802C127.761 60.352 124.361 55.902 122.461 51.752ZM77.5115 18.0019C75.6115 20.6519 73.6614 23.4019 72.7615 26.5519C70.9114 32.5019 74.2115 39.0519 78.9615 42.5019C80.1115 41.9519 81.3615 41.0019 81.8615 39.8019C81.7733 39.6256 81.5987 39.4838 81.4291 39.3461C81.3103 39.2495 81.1939 39.155 81.1115 39.0519C72.6614 31.652 74.4 24.7999 81.25 16.7499C81.4976 16.4589 81.7296 16.1916 81.9435 15.945C83.3041 14.3768 83.9363 13.6481 83.25 13.0001C82.3984 12.196 82.3609 12.2367 81.7377 12.9121C81.6837 12.9706 81.6252 13.034 81.5615 13.1019C80.6443 14.0797 79.6895 15.2794 78.7365 16.4767L78.7365 16.4767L78.7354 16.478C78.326 16.9924 77.917 17.5063 77.5115 18.0019ZM105.39 134.244L105.389 134.244L105.384 134.243L105.38 134.243L105.375 134.243L105.37 134.243C103.95 134.162 102.53 134.081 101.111 134.002C98.8299 133.831 96.5345 133.711 94.2362 133.592H94.2359H94.2357H94.2354H94.2352H94.2349H94.2347H94.2344H94.2342H94.2339H94.2337H94.2334H94.2332H94.2329H94.2327H94.2324H94.2322H94.2319C87.8179 133.259 81.3813 132.924 75.1614 131.452C73.3614 130.952 71.4614 130.302 70.4614 128.652C70.3879 128.431 70.6119 128.508 70.7753 128.564C70.8341 128.585 70.885 128.602 70.9114 128.602C73.5114 129.502 76.1614 129.952 78.8614 130.202C89.6269 131.136 100.392 131.642 111.158 132.147C113.642 132.264 116.127 132.38 118.611 132.502C121.371 132.538 124.139 132.618 126.912 132.698H126.912H126.913H126.913H126.914H126.915H126.915H126.916H126.917H126.917H126.918H126.919H126.919H126.92H126.92H126.921H126.922H126.922C135.649 132.95 144.413 133.202 153.061 132.102C154.408 131.955 155.773 131.71 157.14 131.465L157.14 131.465C159.022 131.127 160.908 130.789 162.761 130.702C163.611 131.002 165.861 132.902 165.161 133.152C157.661 134.952 150.011 135.552 142.361 135.552C140.295 135.552 138.211 135.519 136.111 135.452C125.887 135.408 115.624 134.825 105.39 134.244ZM258.253 150.305L258.253 150.305C261.474 151.09 264.695 151.876 268.011 152.152H268.711C273.572 152.152 273.839 146.805 274.057 142.434C274.108 141.409 274.157 140.438 274.261 139.602C274.611 133.902 274.711 128.102 274.511 122.352C274.481 122.037 274.467 121.706 274.453 121.369C274.397 120.045 274.337 118.629 273.261 117.752C271.761 116.402 270.061 115.252 268.111 116.502C263.361 118.452 258.561 120.202 253.561 121.352C241.911 124.102 229.711 125.452 217.761 124.602C217.648 124.586 217.535 124.57 217.42 124.555C216.476 124.425 215.509 124.293 214.661 123.802C214.65 123.802 214.609 123.785 214.553 123.761C214.359 123.678 213.984 123.519 214.061 123.752C217.211 126.952 223.261 126.802 228.411 126.652L228.491 126.65C230.063 126.6 231.583 126.553 232.861 126.602C245.211 126.152 257.661 124.552 269.261 120.152C269.761 119.952 270.261 119.752 270.761 119.602V119.952C270.961 124.302 270.861 128.652 270.611 132.952C270.411 136.502 270.161 140.052 269.511 143.552C269.211 146.702 267.411 149.352 263.911 148.802C260.858 148.506 257.89 147.758 254.924 147.01L254.923 147.01C253.373 146.619 251.823 146.228 250.261 145.902C243.695 144.495 237.068 143.424 230.451 142.355C228.603 142.056 226.756 141.758 224.911 141.452C222.611 141.085 220.328 140.735 218.061 140.402C217.861 140.352 217.461 140.252 217.561 140.602C218.711 142.202 220.561 143.702 222.561 144.102C226.211 144.713 229.868 145.277 233.526 145.84C239.741 146.798 245.961 147.756 252.161 148.952C254.207 149.319 256.23 149.812 258.253 150.305ZM211.261 196.652C209.661 196.052 207.761 195.102 206.811 193.652C206.661 191.252 206.861 188.902 207.211 186.552C208.192 180.634 209.908 174.862 211.622 169.101L211.622 169.1L211.622 169.1L211.623 169.099L211.623 169.098L211.623 169.097L211.623 169.096L211.624 169.095L211.624 169.094L211.624 169.093L211.625 169.092L211.625 169.091L211.625 169.09L211.625 169.09L211.626 169.089L211.626 169.088L211.626 169.087C212.358 166.627 213.089 164.169 213.761 161.702C218.068 147.51 214.998 145.405 208.208 140.748C205.931 139.187 203.237 137.339 200.261 134.652C198.511 133.202 193.761 128.252 199.411 131.802C202.611 135.652 206.611 138.852 210.811 141.602C211.438 142.058 212.09 142.495 212.746 142.935L212.746 142.935L212.746 142.935C214.967 144.424 217.222 145.936 218.611 148.252C221.025 153.847 219.239 159.924 217.519 165.778L217.519 165.778C216.887 167.928 216.264 170.047 215.861 172.102L215.704 172.699C215.615 173.039 215.525 173.379 215.435 173.719L215.435 173.719C213.764 180.038 212.08 186.41 211.711 192.952C211.701 193.192 211.689 193.432 211.677 193.672C211.629 194.632 211.581 195.592 211.661 196.552C211.611 196.652 211.561 196.652 211.461 196.652H211.261ZM284.804 141.034C282.917 142.118 281.097 143.163 279.711 144.302C280.711 146.102 282.861 147.302 284.711 148.052C289.061 145.652 293.511 142.752 297.361 139.502C302.761 133.852 298.611 127.952 292.311 125.602C289.911 124.302 281.261 127.552 282.061 130.602C282.911 131.652 286.011 134.252 287.261 133.802C287.711 131.302 292.211 129.602 294.461 129.152C295.26 135.029 289.793 138.169 284.804 141.034ZM210.561 115.252C209.261 114.652 207.761 113.752 207.111 112.452C207.086 111.798 207.063 111.141 207.041 110.482L207.041 110.481C206.976 108.568 206.91 106.635 206.761 104.702C206.583 102.157 206.235 99.632 205.886 97.1047L205.886 97.104L205.886 97.1036C205.454 93.9708 205.022 90.8344 204.911 87.6521C204.911 80.6521 205.211 73.552 206.261 66.6021C206.411 65.702 206.561 64.7521 206.611 63.8521C207.211 63.9021 208.261 64.652 208.361 65.202C207.311 75.152 207.361 85.2521 208.761 95.1521C208.922 96.1007 209.091 97.0506 209.26 98.002L209.26 98.0048C210.141 102.97 211.029 107.976 210.861 113.052C210.827 113.209 210.846 113.523 210.868 113.866C210.908 114.508 210.955 115.252 210.661 115.252H210.561ZM199.366 204.078C199.783 204.085 200.198 204.093 200.611 204.102C201.911 204.102 198.861 201.702 198.361 201.402C196.6 200.102 196.105 200.103 194.545 200.108H194.545C194.245 200.109 193.906 200.11 193.511 200.102L193.224 200.095C193.115 200.093 193.006 200.09 192.896 200.088L192.643 200.083L192.296 200.076L192.292 200.076C190.684 200.044 189.057 200.012 187.461 199.852C186.211 199.752 184.961 199.552 183.711 199.252C183.611 199.252 183.561 199.185 183.561 199.052C181.279 194.487 182.826 186.604 184.202 179.592C184.846 176.312 185.452 173.222 185.611 170.752C185.961 167.852 186.011 164.952 185.911 162.002C185.883 160.348 185.724 158.71 185.565 157.07L185.565 157.069C185.446 155.834 185.326 154.598 185.261 153.352C185.228 152.452 185.228 151.552 185.261 150.652C185.344 150.363 185.086 150.177 184.853 150.008L184.81 149.977C184.785 149.958 184.76 149.94 184.736 149.921L184.711 149.902C184.676 149.885 184.629 149.855 184.576 149.821L184.576 149.821L184.575 149.821L184.575 149.821C184.477 149.759 184.359 149.684 184.261 149.652C184.162 149.652 184.151 149.761 184.139 149.864C184.137 149.891 184.134 149.916 184.13 149.94C184.126 149.964 184.12 149.985 184.111 150.002V150.452C184.035 152.012 184.01 153.58 183.985 155.151C183.928 158.718 183.871 162.296 183.211 165.802C182.561 170.002 181.411 174.102 180.211 178.152C180.124 178.471 180.033 178.803 179.938 179.147L179.937 179.148C178.559 184.139 176.51 191.558 178.661 196.002C180.261 199.152 183.611 201.252 186.761 202.552C190.811 203.917 195.151 203.999 199.366 204.078ZM202.161 219.802C200.061 218.502 198.061 216.852 196.561 214.852C195.961 214.202 191.211 206.752 194.161 208.052C194.331 208.153 194.511 208.256 194.697 208.364C196.264 209.266 198.267 210.42 198.311 212.252C198.813 213.985 199.897 215.551 200.918 217.027L200.918 217.027L200.918 217.028L200.919 217.028L200.919 217.029C200.995 217.139 201.071 217.249 201.147 217.358L201.211 217.452C201.636 217.641 202.194 217.696 202.676 217.744L202.761 217.752C206.511 217.952 208.261 213.902 207.861 210.702C207.883 209.698 207.276 208.484 206.806 207.543C206.198 206.329 205.818 205.57 207.311 206.302C215.811 209.852 214.811 221.652 207.661 221.652C206.111 221.652 204.261 221.102 202.161 219.802ZM196.361 108.602C197.361 111.052 198.261 112.602 200.961 113.402H201.061C201.161 113.402 201.211 113.402 201.211 113.352C201.211 113.252 201.178 113.169 201.111 113.102C200.99 112.832 200.867 112.562 200.743 112.29L200.743 112.29C199.95 110.547 199.137 108.762 198.661 106.902C197.551 102.922 197.511 98.8127 197.471 94.7338C197.468 94.4064 197.465 94.0791 197.461 93.7521C197.411 89.4021 197.311 85.0021 196.661 80.7021C196.445 79.3851 196.144 78.0835 195.843 76.7822C195.378 74.7735 194.913 72.7654 194.761 70.7021C194.161 69.9021 193.011 69.3521 192.061 69.1521C191.918 69.1521 191.929 69.2034 191.946 69.2877C191.953 69.3211 191.961 69.3596 191.961 69.4021C192.028 69.8354 192.078 70.2854 192.111 70.7521C192.243 71.4183 192.378 72.0838 192.513 72.749L192.513 72.7491C193.502 77.6255 194.487 82.4864 194.311 87.5021C194.348 89.2007 194.302 90.9225 194.257 92.65C194.114 98.0926 193.97 103.592 196.361 108.602ZM162.611 123.302C157.711 120.952 155.261 114.902 155.061 109.702C155.024 106.524 155.998 103.564 156.973 100.601L156.973 100.6L156.973 100.6L156.974 100.599L156.974 100.599L156.974 100.598L156.974 100.598L156.974 100.597L156.974 100.597L156.974 100.597C157.318 99.5521 157.662 98.5072 157.961 97.4521C159.061 93.3521 159.461 89.1021 159.561 84.9021L159.661 82.5021C159.661 82.1521 160.311 82.4521 160.461 82.5521C160.629 82.6524 160.819 82.7599 161.023 82.8749L161.023 82.8752C162.343 83.6199 164.221 84.6797 163.961 86.1521C163.661 91.3021 163.011 96.4521 161.161 101.302C157.811 108.452 156.711 116.652 162.611 122.852C162.761 122.952 162.911 123.302 162.711 123.302H162.611ZM177.715 133.072C179.563 133.921 181.453 134.79 183.511 134.902H183.861C186.411 134.902 188.411 133.102 188.961 130.652C189.811 128.052 190.311 125.302 190.211 122.552C190.059 119.649 189.491 116.811 188.924 113.979C188.378 111.249 187.833 108.525 187.661 105.752C187.561 104.302 187.511 102.847 187.461 101.391C187.361 98.4798 187.261 95.5687 186.761 92.702C186.217 89.3666 185.325 86.124 184.432 82.8793L184.432 82.8792L184.432 82.8791L184.432 82.8789L184.432 82.8788L184.432 82.8786L184.432 82.8785L184.432 82.8784L184.432 82.8782L184.432 82.8779L184.432 82.8776L184.432 82.8773L184.432 82.877L184.431 82.8767L184.431 82.8764L184.431 82.8761L184.431 82.8758C184.013 81.3549 183.594 79.8336 183.211 78.302C182.961 75.752 180.961 74.352 178.811 73.302C178.711 73.252 177.761 72.852 177.961 73.352C178.23 73.9651 178.41 74.6076 178.592 75.2569C178.647 75.4548 178.703 75.6534 178.761 75.852C179.032 76.844 179.312 77.8376 179.593 78.8335L179.594 78.8351L179.594 78.8368L179.595 78.8384L179.595 78.84L179.596 78.8416L179.596 78.8433L179.596 78.8449L179.597 78.8465C180.873 83.3677 182.161 87.9346 182.611 92.602C182.758 94.4707 182.83 96.3395 182.902 98.2048C183.052 102.079 183.201 105.938 184.011 109.752C184.176 110.641 184.363 111.533 184.55 112.427L184.55 112.428L184.55 112.428L184.55 112.428L184.55 112.428L184.55 112.429L184.55 112.429L184.55 112.429L184.55 112.43C185.214 115.607 185.885 118.814 185.611 122.052C185.111 126.652 184.061 133.052 177.861 131.352C176.67 130.997 175.504 130.466 174.332 129.933C172.701 129.191 171.057 128.443 169.311 128.152C169.161 128.302 169.461 128.652 169.561 128.752C170.992 130.45 173.101 131.23 175.139 131.983L175.15 131.987C175.295 132.041 175.44 132.094 175.585 132.148L175.712 132.196L175.861 132.252C176.478 132.504 177.094 132.787 177.715 133.072ZM238.811 17.1521C241.261 19.5021 244.161 21.6021 247.561 22.2521C248.261 22.3854 248.961 22.4521 249.661 22.4521C250.512 22.4521 251.366 22.3647 252.204 22.1949C252.335 22.507 252.473 22.817 252.611 23.127C252.974 23.9395 253.336 24.752 253.561 25.602C254.011 26.952 254.161 28.352 254.161 29.752C254.111 33.802 251.811 37.352 249.661 40.602C250.211 41.902 253.611 43.602 254.961 43.952H255.161H255.361C255.478 43.7555 255.591 43.5567 255.7 43.3557C256.91 44.0705 258.114 44.6434 258.361 44.6021H258.561C258.661 44.6021 258.711 44.6021 258.861 44.5021C259.811 44.1021 260.811 43.6521 261.761 43.2021C262.35 42.9544 262.957 42.7238 263.568 42.4918L263.569 42.4916L263.569 42.4914C265.919 41.5992 268.324 40.6858 269.911 38.7021C270.761 37.6021 265.811 35.1521 264.911 34.9021C264.746 34.8285 264.553 34.8023 264.361 34.7761C264.03 34.7312 263.701 34.6864 263.511 34.4021C261.911 32.8521 260.761 30.9021 259.761 28.9021C259.588 28.5554 259.412 28.2088 259.235 27.8614L259.235 27.8607L259.234 27.86L259.234 27.8597C258.392 26.2031 257.54 24.5288 256.961 22.7521C256.828 22.4187 256.778 22.0521 256.811 21.6521C256.811 21.5789 256.758 21.5325 256.69 21.4736C256.665 21.4521 256.638 21.4289 256.611 21.4021C256.378 21.2155 256.13 21.0289 255.871 20.8544C257.972 19.6964 259.713 17.9424 260.661 15.7021C261.411 13.4021 261.711 10.7521 260.811 8.4521C260.646 8.03749 260.273 7.76041 259.895 7.4783C259.817 7.42019 259.738 7.36187 259.661 7.3021C258.861 6.7521 257.961 6.2021 257.011 5.8521C256.811 5.7521 256.511 5.6521 256.311 5.6521C256.161 5.7021 256.161 5.7521 256.161 5.9021C256.228 6.13543 256.278 6.36876 256.311 6.6021C256.511 9.0521 256.161 11.7521 255.011 13.9521C254.311 15.2021 253.311 16.3521 252.161 17.2521C249.911 19.0021 247.111 20.1521 244.261 19.9021C244.179 19.8883 244.085 19.8859 243.987 19.8834C243.729 19.8768 243.443 19.8695 243.261 19.6521C241.711 18.5021 240.161 17.3021 238.961 15.7521C238.701 15.4653 238.43 15.1887 238.159 14.9125C237.392 14.1295 236.629 13.3501 236.111 12.3521C235.911 12.0021 235.461 11.8021 235.111 11.6521C235.011 11.6021 234.611 11.4021 234.561 11.5021C234.902 12.4387 235.569 13.2302 236.191 13.9694L236.191 13.9695C236.3 14.0985 236.407 14.2258 236.511 14.3521C237.211 15.3521 237.911 16.3521 238.811 17.1521ZM258.103 31.0924C259.126 32.6821 260.487 34.0903 262.561 35.3521C262.828 35.5521 263.111 35.7354 263.411 35.9021C263.778 35.9354 263.861 36.0187 263.661 36.1521C261.847 37.7515 259.616 38.5563 257.364 39.2996C257.784 37.8987 258.076 36.4646 258.261 35.052C258.42 33.7154 258.343 32.3912 258.103 31.0924ZM246.861 17.2521C246.061 17.1021 242.661 15.6021 243.511 14.5521C243.4 14.4838 243.283 14.4154 243.164 14.3456L243.163 14.3447L243.162 14.3442C242.582 14.0057 241.943 13.6317 241.611 13.0521C241.696 12.4996 242.107 12.0554 242.473 11.6583C242.538 11.5882 242.601 11.5196 242.661 11.4521C243.079 11.0722 243.641 11.3561 244.129 11.6022C244.283 11.68 244.429 11.754 244.561 11.8021C244.628 11.8354 244.678 11.8188 244.711 11.7521C244.978 11.5854 245.245 11.4354 245.511 11.3021C246.115 10.8868 246.834 11.3267 247.472 11.7178C247.679 11.8446 247.878 11.9664 248.061 12.0521C248.186 11.9272 248.324 11.8024 248.461 11.6776L248.461 11.6771L248.462 11.6766C248.599 11.5518 248.737 11.4269 248.861 11.3021C249.061 11.0521 249.311 10.9521 249.561 11.1021C250.111 11.2521 253.261 12.7021 252.561 13.3521C252.688 13.4505 252.834 13.5449 252.985 13.642L252.985 13.6421C253.369 13.8905 253.782 14.1567 253.961 14.5521C253.443 14.9766 252.79 15.3567 252.214 15.6922L252.214 15.6923L252.111 15.7521C251.438 16.201 250.724 15.8841 250.079 15.5976C250.006 15.565 249.933 15.5328 249.861 15.5021C249.361 15.9021 248.811 16.3021 248.261 16.6521C248.197 16.6922 248.132 16.7348 248.065 16.7782L248.065 16.7783L248.064 16.7789L248.064 16.7791C247.716 17.006 247.339 17.2521 246.961 17.2521H246.861ZM197.257 44.0382C196.649 44.3502 196.041 44.6622 195.561 45.1021C196.011 45.9021 197.011 46.3521 197.861 46.6521C201.838 44.3581 206.188 42.7938 210.547 41.2266C213.313 40.232 216.083 39.2363 218.761 38.0522C219.738 37.5608 220.723 37.0773 221.711 36.5928C228.163 33.4289 234.709 30.219 239.261 24.4521C240.177 23.8109 238.157 22.8341 237.35 22.444C237.276 22.4082 237.212 22.3773 237.161 22.3521C237.111 22.3355 237.061 22.3133 237.011 22.291C236.911 22.2466 236.811 22.2021 236.711 22.2021C236.303 22.5233 235.945 22.9127 235.589 23.3005L235.589 23.3007C235.335 23.577 235.082 23.8525 234.811 24.1021C229.374 29.6778 222.323 33.0877 215.38 36.4452C214.789 36.7308 214.199 37.016 213.611 37.3022C211.615 38.1308 209.605 38.924 207.596 39.7164L207.595 39.7168C204.271 41.0281 200.952 42.3374 197.711 43.8022C197.561 43.8822 197.409 43.9602 197.257 44.0382ZM204.861 53.6521C215.911 50.6021 227.461 47.3521 235.811 39.0521C238.861 35.9021 241.311 32.2021 243.661 28.4521C244.011 27.6021 247.061 29.8521 246.711 30.2521C237.761 46.1521 225.811 52.5521 208.361 56.1521C207.261 55.7521 205.211 54.7521 204.861 53.6521ZM261.411 19.2021C260.561 19.4521 263.111 21.2021 263.461 21.2521C263.528 21.2854 263.578 21.3021 263.611 21.3021C263.64 21.3021 263.653 21.2854 263.677 21.2521C263.695 21.2277 263.719 21.1944 263.761 21.1521C264.042 20.7975 264.354 20.4559 264.667 20.112C265.414 19.2922 266.174 18.4588 266.561 17.4021C266.811 16.5521 266.761 15.6021 266.461 14.7521C266.435 14.6598 266.395 14.5641 266.354 14.4658C266.238 14.1912 266.114 13.8967 266.261 13.6021C266.52 13.3285 266.825 13.078 267.132 12.8252C267.835 12.2468 268.553 11.6569 268.761 10.7521C268.961 8.90211 265.711 7.05211 264.061 7.10211C263.411 7.05211 265.011 8.25211 265.211 8.35211C265.474 8.5771 265.821 8.63336 266.168 8.6896C266.283 8.70836 266.399 8.72711 266.511 8.75211C267.011 9.00211 266.111 10.4021 265.761 10.7021C264.109 12.1519 264.185 12.3285 264.517 13.1022C264.677 13.476 264.897 13.989 265.011 14.8521C265.061 16.9021 263.011 18.2521 261.411 19.2021Z" fill="black"/>
</svg>
