<svg width="280" height="189" viewBox="0 0 280 189" fill="none" xmlns="http://www.w3.org/2000/svg">
<path fill-rule="evenodd" clip-rule="evenodd" d="M173.54 17.1323C173.969 12.6272 174.97 8.05047 176.614 3.83136C179.618 5.40459 180.404 9.40919 180.619 12.4841C181.692 12.6272 184.624 9.76675 184.695 8.6941C184.767 7.90748 185.339 7.04935 185.768 6.40576C186.054 5.61915 186.912 5.4761 187.627 5.61912C190.201 6.11969 191.345 8.98014 192.061 11.197C193.562 11.0539 195.779 8.69408 196.494 7.33538C196.065 5.40461 194.778 3.47383 193.205 2.32967C190.173 0.418286 187.141 3.30597 184.949 5.39373L184.949 5.39382L184.949 5.39415L184.946 5.39651L184.944 5.3988L184.942 5.40087L184.94 5.40215C184.757 5.57656 184.58 5.74533 184.409 5.90518C184.242 6.29499 184.205 6.12104 184.163 5.92367C184.151 5.86759 184.139 5.80962 184.123 5.76215C181.906 -2.03247 177.186 -0.745258 173.754 5.47613C171.609 11.4115 170.25 18.634 171.18 24.7124C173.761 23.4472 173.656 21.8239 173.526 19.8171C173.472 18.9882 173.414 18.0939 173.54 17.1323ZM229.532 67.1179C228.031 76.2712 220.593 83.7798 212.584 87.8559C210.01 89.0716 207.293 89.5007 204.575 89.5007C202.501 89.5007 200.356 89.2146 198.282 88.857C196.781 87.8559 204.718 80.7049 206.291 81.9921C214.873 83.1362 220.379 83.5653 222.667 73.8399C224.24 66.9749 220.736 63.3994 214.372 62.0407C214.372 60.6435 216.281 59.04 217.601 57.9313L217.602 57.9311L217.603 57.9303C217.836 57.7343 218.051 57.5537 218.234 57.3925C219.446 56.3415 220.933 55.7932 222.423 55.2438L222.423 55.2438C223.569 54.8214 224.716 54.3983 225.742 53.7455C232.822 42.8045 222.596 30.8622 211.512 39.515C209.581 41.1597 205.004 44.7352 208.222 39.3719C211.011 33.5796 213.228 27.2867 213.514 20.7793C213.728 16.2741 212.584 9.69521 207.006 9.26614C203.86 9.19463 200.141 10.1958 198.139 12.6986C194.502 17.6394 192.314 23.4362 190.184 29.0781L189.916 29.7896C186.483 39.5865 183.98 49.6694 182.192 59.8954C181.763 62.7558 181.334 65.6877 181.263 68.5481C181.263 70.1019 179.54 71.209 178.324 71.9899C178.253 72.0356 178.184 72.0802 178.116 72.1236C177.634 72.3918 177.634 72.0164 177.634 71.6309C177.634 71.5024 177.634 71.3728 177.616 71.2655C177.616 63.2564 179.118 55.3187 180.691 47.4526C183.122 37.2266 186.054 26.8577 191.632 17.8474C195.779 11.6975 201.715 5.97666 209.08 4.1174C225.599 1.04246 218.949 26.6431 214.587 34.7953C234.109 21.0653 242.833 44.7352 224.384 57.2495C228.388 58.6082 230.176 63.1133 229.532 67.1179ZM166.889 36.5831C166.207 36.1191 165.379 35.8635 164.556 35.6094C163.223 35.1978 161.903 34.7904 161.24 33.5081C168.319 27.5727 159.452 23.3536 153.66 23.2821C151.959 23.0301 150.147 23.1667 148.37 23.3005C148.13 23.3186 147.891 23.3366 147.653 23.3537C145.508 23.5682 143.362 23.7827 141.575 23.4252C148.44 16.4887 141.288 13.5568 134.495 13.6998C131.063 14.3434 127.63 16.3456 125.485 19.206C125.581 19.8346 126.659 19.1227 127.524 18.5516C127.938 18.278 128.303 18.0367 128.488 17.9904C131.349 16.9177 140.144 18.2764 139.429 22.4955C139.519 23.0952 138.767 23.984 138.042 24.8403C137.038 26.0265 136.087 27.1506 137.498 27.3582C139.143 27.3582 140.788 27.2867 142.504 27.1437C147.867 26.7861 153.302 26.4286 157.736 29.718C160.265 32.0488 159.286 33.2103 158.067 34.6573C157.528 35.2969 156.942 35.9923 156.592 36.8691C157.248 38.3044 158.68 38.7755 160.133 39.2535C161.214 39.6089 162.306 39.9681 163.099 40.7306C165.816 42.6614 167.175 46.523 165.173 49.4549C165.056 49.8922 163.906 50.7216 162.695 51.5944C160.936 52.8626 159.05 54.2224 160.024 54.6036C166.675 51.4572 176.329 42.6614 166.889 36.5831ZM157.092 65.5448C159.452 59.1089 150.585 52.7444 146.437 59.5379C146.006 60.1541 146.159 60.1331 146.621 60.0698L146.621 60.0698C146.695 60.0596 146.777 60.0484 146.866 60.0385C147.939 59.8955 149.941 59.7525 151.943 62.6844C153.088 64.3291 153.803 66.7604 152.802 68.6197C152.516 68.7913 152.207 68.9401 151.898 69.0888C151.434 69.3119 150.971 69.5351 150.585 69.8354C150.084 70.1929 147.152 72.5528 148.296 72.7673C151.8 71.3371 155.305 68.9058 157.092 65.5448ZM128.604 90.6313C129.108 90.3123 130.048 89.7173 129.99 90.3588C129.346 98.7255 119.335 102.229 112.041 102.229H111.826C107.547 102.1 103.327 101.397 99.1052 100.694C94.0145 99.8462 88.9221 98.9982 83.7228 99.1546C83.4836 99.1457 83.2641 99.1412 83.0666 99.1372C81.6698 99.1088 81.3699 99.1027 82.9362 97.7244C84.9986 95.6619 87.4677 95.8068 90.0816 95.9603L90.083 95.9603C90.3689 95.9771 90.6564 95.994 90.9454 96.0081C94.9836 95.8735 99.0218 96.7524 103.06 97.6313C103.312 97.6862 103.565 97.7412 103.817 97.7958L103.893 97.8122C110.804 99.3084 117.643 100.789 124.269 98.0104C126.46 96.185 126.809 94.4286 127.08 93.0676C127.287 92.0293 127.448 91.2211 128.345 90.7878C128.398 90.7615 128.49 90.7034 128.604 90.6313ZM124.269 75.4132C124.269 75.1986 123.983 75.1986 123.768 75.1986C123.293 75.1438 122.813 75.0982 122.33 75.0525C120.926 74.9194 119.503 74.7845 118.119 74.412C111.254 72.1237 104.89 65.8308 104.175 58.4652C103.92 54.5126 104.915 50.6737 105.894 46.8977L105.894 46.8975C106.013 46.4381 106.132 45.9796 106.248 45.5219C106.332 45.1387 106.43 44.7478 106.53 44.3528L106.531 44.3517C106.859 43.0513 107.199 41.7059 107.035 40.4446C105.676 40.5161 103.96 42.2324 103.03 43.162C102.564 43.5353 102.554 44.0608 102.544 44.5995C102.538 44.8864 102.533 45.177 102.458 45.4503C102.084 47.3636 101.555 49.2566 101.026 51.148C99.835 55.4069 98.6461 59.6579 99.2403 64.1145C100.027 69.1918 103.459 73.5539 107.464 76.6288C110.61 79.1317 114.615 80.0613 118.548 80.1328C120.479 79.4177 123.482 77.2724 124.269 75.4132ZM187.81 153.689C190.247 153.712 192.679 153.735 195.064 153.931C196.709 154.217 191.274 157.65 190.416 157.721C188.734 157.668 187.044 157.65 185.35 157.632H185.348C180.272 157.578 175.165 157.524 170.179 156.506C161.74 153.931 154.589 147.496 149.441 140.488C145.722 134.338 143.362 127.33 141.432 120.393C141.289 118.748 144.721 117.104 146.08 116.46C146.437 116.246 146.866 116.317 146.866 116.746C147.438 119.392 148.225 121.966 149.083 124.469C152.373 136.268 160.525 146.208 171.609 151.5C176.721 153.585 182.28 153.637 187.81 153.689ZM234.824 167.232C243.191 165.874 249.984 159.724 255.705 153.86C256.515 152.906 257.262 151.889 258.009 150.872C258.383 150.364 258.756 149.855 259.138 149.355C260.997 149.426 262.928 149.855 264.644 150.57C265.575 150.89 266.457 151.407 267.337 151.924C268.823 152.795 270.303 153.664 272.009 153.574C274.441 153.145 276.586 151.643 278.374 149.998C279.732 148.783 279.589 146.78 279.16 145.136C277.802 139.272 275.013 133.551 270.293 129.618C269.926 129.306 269.569 128.928 269.203 128.542C268.146 127.425 267.025 126.24 265.43 126.4C258.676 127.609 253.406 132.211 248.355 136.622L248.268 136.697C246.337 138.986 243.334 139.343 240.473 139.272C235.182 139.2 229.246 138.271 225.385 134.338C225.231 134.228 225.098 134.064 224.966 133.902C224.668 133.537 224.378 133.182 223.883 133.479C223.096 133.837 222.167 134.338 221.595 135.124C223.239 137.484 225.814 139.2 228.531 140.201C232.893 141.703 237.756 142.561 242.333 141.417C246.235 140.136 249.378 137.479 252.457 134.876C253.159 134.283 253.857 133.693 254.561 133.122C256.42 131.406 258.637 130.047 261.211 130.047C262.095 130.307 262.752 130.945 263.402 131.576L263.402 131.576C263.646 131.813 263.889 132.049 264.143 132.264C267.504 135.124 270.365 138.414 272.009 142.561C273.011 144.707 273.797 147.066 274.155 149.426C273.728 149.384 273.199 149.061 272.66 148.731C272.295 148.509 271.926 148.283 271.58 148.139C261.516 143.181 257.586 148.03 252.964 153.732C250.854 156.336 248.599 159.118 245.551 161.225C240.688 165.015 233.68 164.3 228.317 161.941C224.884 160.582 221.595 158.937 218.305 157.221C216.589 156.863 214.158 159.152 213.013 160.296C212.799 160.51 212.87 160.796 213.156 160.868C215.445 162.06 217.733 163.18 220.021 164.229C223.811 165.945 227.816 167.518 231.892 167.518C232.893 167.518 233.871 167.423 234.824 167.232ZM245.407 175.313C246.266 173.811 250.055 171.523 251.772 171.451C256.706 179.604 245.407 187.899 238.113 188.685C233.572 188.568 229.995 186.05 226.408 183.525C223.444 181.438 220.473 179.347 216.946 178.602C214.082 178.165 211.13 178.022 208.173 177.879H208.173C201.461 177.553 194.722 177.226 188.914 173.454C185.124 171.094 181.835 167.804 180.118 163.585C180.19 162.656 182.55 161.583 183.408 161.225C183.622 161.154 183.98 161.082 183.98 161.44C184.981 163.8 186.626 165.945 188.628 167.59C195.692 173.846 204.251 174.051 212.873 174.257C216.472 174.343 220.081 174.429 223.597 174.955C227.041 175.631 229.992 177.611 232.933 179.584C236.527 181.994 240.105 184.395 244.549 184.395C246.838 181.677 246.766 178.531 245.407 175.313ZM218.09 132.049C222.023 131.048 224.097 127.33 224.598 123.54C223.883 116.317 217.876 108.522 211.512 105.162C209.41 104.131 207.286 103.152 205.164 102.174C199.778 99.6915 194.411 97.2178 189.486 93.9344L189.202 93.7554C182.358 89.4526 175.471 85.1221 170.393 78.7742C168.82 76.915 167.461 74.7697 166.389 72.5528C165.03 72.6959 163.6 73.7685 162.741 74.7696C164.958 79.9899 169.177 84.2805 173.325 88.1421C182.049 95.2931 191.703 101.371 202.001 105.877C209.938 108.88 216.446 115.244 219.163 123.325C220.442 126.072 219.086 129.006 218.315 130.675C217.922 131.527 217.681 132.049 218.019 132.049H218.09ZM170.751 139.486C170.822 139.558 170.822 139.701 170.679 139.701C170.536 139.915 170.393 140.058 170.179 140.058H170.036C169.106 139.844 163.814 137.341 164.887 136.268C164.243 135.696 164.887 135.267 165.531 135.339C166.603 135.625 171.323 137.842 170.751 139.2C170.822 139.343 170.822 139.415 170.751 139.486ZM136.855 56.606C137.284 56.6775 139 55.7478 140.43 54.8182C142.147 53.7456 143.434 52.6014 141.217 53.245C133.851 56.2484 118.977 47.2381 123.339 38.5138C123.377 38.4206 123.443 38.3128 123.515 38.1967C123.718 37.8677 123.961 37.4723 123.697 37.1552C123.169 36.9115 122.629 36.685 122.088 36.4579C120.723 35.8853 119.348 35.3082 118.119 34.4378C115.044 32.4355 112.97 27.6443 116.474 25.0699C117.812 23.7647 117.036 22.6083 116.136 21.2679C115.063 19.6709 113.815 17.8127 115.759 15.13C116.331 15.0585 116.975 15.2015 117.619 15.3445L117.738 15.3619L117.872 15.3818C118.788 15.5182 119.699 15.6538 120.55 15.13C120.664 15.0732 120.779 15.0164 120.895 14.9592C121.946 14.4401 123.067 13.8864 123.84 12.9847C123.948 12.6616 123.001 12.5818 122.405 12.5315C122.209 12.5151 122.051 12.5018 121.981 12.4841C117.261 11.6975 108.537 16.1311 110.253 21.7805C110.398 22.4472 110.896 23.114 111.393 23.7808C112.123 24.7587 112.853 25.7367 112.47 26.7146C112.245 27.001 111.991 27.2697 111.736 27.5394C111.099 28.2125 110.457 28.891 110.253 29.8611C109.252 35.1529 114.901 38.3708 119.049 40.0156C115.831 46.4515 120.193 51.6717 125.771 54.7467C128.059 56.1769 130.777 57.178 133.494 57.178C134.59 57.178 135.711 56.9874 136.855 56.606ZM40.2474 93.0154C36.3148 93.5691 32.3828 94.1227 28.4453 94.5778C26.3 94.6731 24.1309 94.7208 21.9379 94.7208C15.645 94.7208 9.35211 94.1487 3.34528 92.4325C2.91159 92.2879 2.5185 92.1758 2.17691 92.0784C0.490908 91.5977 0.060335 91.4749 2.20102 89.5721C2.40048 89.4195 2.60379 89.2497 2.81159 89.0761C3.87027 88.1916 5.04529 87.21 6.42017 87.9274C11.3544 89.286 16.5031 90.0011 21.5804 90.2872C30.0466 91.0032 38.4136 89.8337 46.7836 88.6638L46.7838 88.6638C52.6239 87.8475 58.4656 87.031 64.3435 86.8547C78.288 86.6402 92.447 86.5686 106.177 89.0715C108.549 89.2494 107.233 90.3124 106.184 91.1595C105.968 91.334 105.764 91.4993 105.605 91.6459C105.501 91.7188 105.393 91.7994 105.283 91.8822C104.637 92.3677 103.886 92.9316 103.031 92.504C92.9163 90.4257 82.5337 90.4279 72.2077 90.4301L71.2084 90.4302C60.8119 90.1199 50.5277 91.5679 40.2474 93.0154ZM21.2228 87.7844C22.653 87.0693 24.1546 85.9251 24.7267 84.4949C24.7267 83.5584 24.7107 82.6219 24.6947 81.6869V81.6859V81.6849V81.6839C24.6522 79.1927 24.6099 76.7119 24.8698 74.2689C25.5849 68.5481 28.0162 62.5412 32.8789 59.2517C42.0322 53.96 53.4024 54.6036 63.4138 56.6059C70.9224 58.1791 78.5025 61.6831 82.7216 68.4051C85.6535 73.1963 88.2278 78.8456 87.2982 84.5664C86.5831 85.7106 87.9418 85.1385 88.3708 84.7809C92.9475 82.0635 93.162 78.8456 91.9463 73.9829C90.0871 66.9034 85.7965 60.1814 79.2176 56.6059C66.3457 50.17 47.753 48.7398 35.0957 56.2484C26.0139 61.6831 20.1501 71.8376 20.7936 82.4926C20.8437 82.7179 20.8412 83.4341 20.8382 84.2698C20.8328 85.8211 20.8259 87.7844 21.1512 87.7844H21.2228ZM62.2695 36.2971C65.9166 39.5866 61.4115 47.9533 57.7645 49.741H57.6214C57.4783 49.741 57.4069 49.6695 57.4784 49.5265C58.6226 47.5957 59.7668 45.5219 59.8383 43.2336C60.1958 40.0871 56.1197 38.0848 53.6168 39.372C53.4781 40.274 53.4361 40.9529 53.4021 41.5028C53.2958 43.22 53.2675 43.6782 50.6134 45.7365C50.4704 45.8795 49.7553 46.38 49.6123 46.0225C49.5408 45.0928 49.6122 44.0917 49.7553 43.1621C50.8994 38.2994 57.4783 32.7931 62.2695 36.2971ZM108.751 119.607C115.402 119.821 121.695 117.247 127.702 114.672C132.35 112.742 136.855 110.525 140.931 107.593C145.937 104.017 149.298 98.7971 152.516 93.6483C152.754 93.2193 152.992 92.814 153.231 92.4326C153.302 92.3611 153.517 92.1466 153.374 92.0036C151.765 92.0679 150.215 93.1162 148.826 94.0549C148.672 94.1596 148.519 94.263 148.368 94.3634C147.332 95.7682 146.384 97.2546 145.435 98.7438C143.437 101.879 141.431 105.026 138.571 107.45C136.926 108.952 134.924 109.953 132.922 110.811C129.06 112.456 125.127 114.1 120.98 114.887C113.218 116.204 105.724 113.289 98.5645 110.504L97.8818 110.239C96.7896 109.808 95.6574 109.339 94.4951 108.858C85.2318 105.023 74.0575 100.397 65.9882 108.022C65.9677 108.042 65.9414 108.067 65.9116 108.095L65.9108 108.096C65.7318 108.265 65.4264 108.553 65.4876 108.737C65.546 108.912 65.7476 108.897 65.8974 108.885C65.9142 108.884 65.9303 108.882 65.9455 108.882C65.9608 108.881 65.9751 108.88 65.9882 108.88C73.9115 108.469 81.1316 111.339 88.3632 114.214C94.9682 116.84 101.583 119.47 108.751 119.607ZM51.5885 110.044C51.3083 110.06 51.0304 110.077 50.7564 110.096C44.0583 109.802 45.5163 106.567 46.446 104.505C46.8761 103.55 47.1932 102.847 46.5373 102.802C43.9629 101.657 41.3886 99.7266 44.8211 97.6528C46.7519 96.2941 48.9686 95.3645 51.1854 94.5779C51.2234 94.5652 51.286 94.5391 51.3637 94.5067C51.7252 94.3561 52.4138 94.0691 52.4726 94.3633C51.8043 95.5785 50.4133 96.2774 49.1768 96.8987C48.9579 97.0087 48.7439 97.1162 48.5396 97.2237C49.1814 98.3789 50.5143 98.9581 51.7113 99.4783C51.8481 99.5377 51.9831 99.5964 52.1151 99.6551C52.5711 100.046 52.1815 100.808 51.7301 101.69C51.1904 102.745 50.5624 103.973 51.1854 104.947C52.9165 107.215 56.0428 106.693 58.6926 106.251C59.2171 106.163 59.7231 106.079 60.1958 106.019C62.9132 105.519 57.6214 108.808 57.0493 108.951C55.3737 109.82 53.4288 109.935 51.5885 110.044Z" fill="black"/>
</svg>
