<svg width="424" height="200" viewBox="0 0 424 200" fill="none" xmlns="http://www.w3.org/2000/svg">
<path fill-rule="evenodd" clip-rule="evenodd" d="M145.544 108.95C143.694 108.15 141.594 106.8 140.644 104.9C140.794 103.8 140.994 102.65 141.194 101.55C141.851 96.8626 142.746 92.2087 143.641 87.5538L143.641 87.5537L143.641 87.5536L143.641 87.5534L143.641 87.5533L143.641 87.5532L143.641 87.553L143.641 87.5529L143.641 87.5527L143.642 87.5526L143.642 87.5525L143.642 87.5523L143.642 87.5522L143.642 87.5521L143.642 87.5519L143.642 87.5518L143.642 87.5516L143.642 87.5515L143.642 87.5514L143.642 87.5512L143.642 87.5511L143.642 87.551L143.642 87.5508L143.642 87.5507L143.642 87.5505L143.642 87.5504L143.642 87.5503L143.642 87.5501L143.642 87.55L143.642 87.5499L143.642 87.5497L143.642 87.5496L143.642 87.5494L143.642 87.5493L143.642 87.5492L143.642 87.549L143.642 87.5489L143.642 87.5488L143.642 87.5486L143.642 87.5485L143.642 87.5483L143.642 87.5482L143.642 87.5481L143.642 87.5479L143.642 87.5478L143.642 87.5477L143.642 87.5475L143.642 87.5474L143.642 87.5472L143.642 87.5471L143.642 87.547L143.642 87.5468L143.643 87.5467L143.643 87.5466L143.643 87.5464L143.643 87.5463L143.643 87.5461L143.643 87.546L143.643 87.5459L143.643 87.5457L143.643 87.5455C144.924 80.8831 146.205 74.2187 146.794 67.4503C147.444 60.4503 147.144 53.3503 146.194 46.3503C145.952 44.5645 145.655 42.7699 145.357 40.9696C144.238 34.2013 143.106 27.354 144.844 20.6003C147.394 9.00034 158.244 -0.949653 170.594 0.700347C182.094 1.90035 193.044 8.80036 199.094 18.6504C202.5 25.0707 202.092 32.4448 201.701 39.5063C201.644 40.5288 201.588 41.5448 201.544 42.5504C201.694 43.5504 199.244 41.7004 198.994 41.5004C197.201 40.0664 197.216 39.9176 197.382 38.2463L197.382 38.2461C197.402 38.0527 197.423 37.8389 197.444 37.6003C198.794 21.1503 195.094 7.20034 176.444 5.10034C162.394 2.95034 151.144 15.5504 149.794 28.8004C149.177 34.6459 150.113 40.4224 151.051 46.2111C151.71 50.2755 152.37 54.3459 152.494 58.4503C153.244 69.9503 151.144 81.3504 148.894 92.5504C148.164 96.1981 147.514 99.8724 146.867 103.535L146.867 103.535L146.867 103.535L146.867 103.535L146.867 103.535L146.867 103.535L146.866 103.537L146.866 103.539C146.626 104.895 146.387 106.249 146.144 107.6C146.094 108.05 146.044 108.45 145.944 108.85C145.894 109.05 145.694 109 145.544 108.95ZM277.243 120.551C275.693 119.901 274.343 118.701 273.293 117.451C272.903 116.735 272.703 115.957 272.501 115.17C272.393 114.746 272.283 114.32 272.143 113.901C269.093 104.301 269.493 93.9507 270.493 84.0507C270.985 80.2385 271.557 76.4238 272.13 72.605C274.118 59.344 276.113 46.0326 274.793 32.6006C273.893 25.8006 271.893 14.2506 265.093 11.1006C254.493 6.95065 242.643 12.5007 234.493 19.3007C229.19 23.9561 226.509 27.9887 225.468 33.9727C226.774 33.1674 228.281 32.6172 229.794 32.0645C231.592 31.4076 233.4 30.7471 234.894 29.6506C237.194 28.3506 239.194 26.6006 240.944 24.6006C241.268 24.2758 241.58 23.9292 241.893 23.5814L241.893 23.5814C242.639 22.7513 243.392 21.9144 244.344 21.3506C245.094 21.0506 245.794 21.4006 246.444 21.7506C248.044 22.7506 249.544 24.1006 250.294 25.8506C251.244 28.5006 251.194 31.6006 250.044 34.2006C249.197 36.1505 247.62 37.4778 246.049 38.8L246.049 38.8C245.485 39.2747 244.922 39.7487 244.394 40.2506C242.31 42.1853 241.86 44.8676 241.416 47.5145C241.263 48.4246 241.111 49.3306 240.894 50.2006C240.142 52.8777 238.023 55.3342 235.199 55.6638C235.458 56.8024 235.551 57.846 235.319 58.5744L235.344 58.6004C235.344 58.6337 235.327 58.6504 235.294 58.6504L235.294 58.6505L235.294 58.6506C235.227 58.6839 235.16 58.7005 235.094 58.7005H234.894C232.594 57.6005 229.494 55.0005 228.794 52.4505C228.75 52.1473 228.707 51.8541 228.667 51.57L228.667 51.57C227.925 46.408 227.621 44.2892 224.205 40.1894C223.962 39.9141 223.708 39.6178 223.443 39.3005C222.995 38.8177 221.952 37.5261 222.119 37.2141C221.422 36.5917 220.932 35.9945 221.143 35.8007C220.993 31.4007 220.993 26.8007 223.293 22.9007C229.093 12.8007 240.643 6.20067 252.193 5.65067C260.343 5.40067 267.993 10.1507 272.893 16.4507C277.843 23.3007 279.293 32.0507 279.843 40.3007C280.765 51.886 279.1 63.3014 277.435 74.7093L277.435 74.7093C276.391 81.8627 275.348 89.0131 274.943 96.2007C274.793 102.051 274.793 107.901 275.893 113.651C276.327 115.617 276.81 117.567 277.343 119.501C277.368 119.676 277.418 119.826 277.468 119.976C277.518 120.126 277.568 120.276 277.593 120.451C277.543 120.551 277.493 120.551 277.393 120.551H277.243ZM230.991 44.6307C231.08 44.4683 231.279 44.2822 231.529 44.0904C231.784 43.7711 232.065 43.472 232.353 43.1793C232.394 43.1323 232.436 43.0852 232.478 43.0378L232.478 43.0378L232.478 43.0377L232.478 43.0377C232.67 42.821 232.868 42.598 233.016 42.3504C233.151 42.2735 233.049 42.1669 232.932 42.045C232.864 41.9746 232.792 41.8991 232.757 41.8212C232.58 41.7013 232.404 41.5717 232.241 41.4374C232.112 41.6978 231.98 41.9249 231.844 42.0504C231.601 42.3471 231.038 42.3238 230.493 42.1923C230.523 42.5617 230.578 42.9311 230.644 43.3006C230.667 43.4393 230.7 43.5781 230.735 43.7168L230.743 43.7004L230.801 43.9862C230.817 44.0576 230.832 44.1291 230.844 44.2005L230.854 44.2372C230.876 44.3124 230.901 44.3874 230.927 44.4613C230.947 44.5186 230.969 44.5753 230.991 44.6307ZM240.494 30.5506C240.663 30.4604 240.83 30.3702 240.995 30.28C241.097 30.3533 241.197 30.4266 241.294 30.5006C241.466 30.5006 241.258 30.8092 241.096 31.0502C241.023 31.159 240.959 31.2539 240.944 31.3006C240.821 31.4543 240.66 31.5891 240.508 31.7166C240.412 31.7965 240.321 31.8735 240.244 31.9506C240.226 31.9592 240.214 31.9663 240.203 31.972C240.187 31.981 240.178 31.9863 240.168 31.9877C240.154 31.9896 240.14 31.9844 240.105 31.972C240.089 31.9663 240.069 31.9592 240.044 31.9506C239.844 31.8006 239.644 31.6506 239.394 31.5506C239.289 31.4929 239.162 31.4539 239.018 31.4311C239.093 31.3871 239.168 31.3436 239.244 31.3005L239.224 31.2872C239.643 31.034 240.069 30.7868 240.494 30.5506ZM240.689 118.257C234.122 129.536 227.484 140.934 227.144 154.251C226.194 168.801 235.944 185.151 249.994 189.651C250.844 189.601 256.544 184.301 255.044 183.701C249.044 181.201 243.294 177.551 239.694 172.051C232.144 162.001 231.394 149.001 234.994 137.251C237.336 129.476 241.393 122.484 245.442 115.504L245.442 115.504C247.617 111.756 249.79 108.011 251.694 104.151C257.794 92.2508 257.444 82.4008 252.394 70.2508C250.844 66.6508 249.144 62.9508 246.494 59.9508C246.465 59.9225 246.435 59.8908 246.404 59.8572C246.267 59.712 246.097 59.5319 245.894 59.4508C245.633 59.4135 245.4 59.5986 245.173 59.7781C245.096 59.8393 245.02 59.8999 244.944 59.9508C244.444 60.3508 243.944 60.8008 243.544 61.3008C243.523 61.3324 243.484 61.3773 243.438 61.4308L243.437 61.4309C243.264 61.6315 242.986 61.9534 243.144 62.1508C243.744 62.6008 244.294 63.2508 244.694 63.9008C249.744 72.4508 252.444 82.8008 251.544 92.8008C250.994 97.9008 249.044 102.751 246.794 107.351C244.907 111.014 242.802 114.629 240.689 118.257ZM280.693 135.25C280.627 135.384 280.594 135.517 280.594 135.65C280.644 135.75 280.694 135.75 280.794 135.75C280.844 135.75 280.944 135.75 280.994 135.7C283.535 134.605 284.886 132.319 286.225 130.054C286.413 129.735 286.602 129.416 286.794 129.1C288.574 126.602 290.682 124.384 292.797 122.159L292.797 122.159L292.797 122.158C293.772 121.133 294.747 120.107 295.693 119.05C299.643 114.25 304.643 110.1 310.893 108.7C319.531 106.467 325.901 107.683 332.402 108.923L332.544 108.95L332.581 108.958C340.719 110.505 349.063 112.092 362.193 106.75C363.864 106.107 365.538 105.473 367.215 104.838L367.218 104.837L367.219 104.837C371.012 103.4 374.815 101.96 378.594 100.4C379.141 100.257 380.015 99.8656 381.027 99.412L381.027 99.412C383.897 98.126 387.88 96.3414 388.693 98.3005C389.188 102.05 387.136 105.697 385.251 109.047L385.251 109.048L385.251 109.049C384.848 109.764 384.454 110.465 384.094 111.15C383.934 111.446 383.732 111.779 383.524 112.124L383.523 112.125L383.523 112.126C382.423 113.945 381.123 116.095 384.693 114.75C388.743 113.4 394.744 112.05 397.494 116.35C398.744 118.6 398.393 122.7 396.143 124.15C395.29 124.74 394.403 125.263 393.521 125.784C392.232 126.545 390.951 127.301 389.794 128.25C388.494 129 382.494 135.75 387.544 132.75C393.544 129.3 399.494 125.3 403.294 119.4C406.544 114.95 406.543 107.85 399.844 107.15C396.762 106.637 393.774 107.622 390.88 108.576L390.88 108.576C390.111 108.829 389.349 109.08 388.594 109.3C389.163 108.202 389.781 107.095 390.406 105.977L390.406 105.976C392.083 102.972 393.81 99.8793 394.794 96.6004C397.252 88.9667 391.712 91.1169 387.255 92.8469C386.545 93.1225 385.862 93.3874 385.244 93.6004C381.718 94.9903 378.147 96.2652 374.592 97.5343L374.591 97.5345C372.903 98.1372 371.218 98.7387 369.544 99.3504C362.744 101.85 355.493 103.35 348.193 102.9C345.507 102.631 342.944 102.28 340.461 101.939C330.053 100.513 321.043 99.2776 310.143 105.05C302.249 109.084 296.312 115.752 290.471 122.311L290.47 122.312L290.47 122.312L290.47 122.312L290.47 122.312L290.47 122.312L290.47 122.313L290.469 122.313L290.469 122.313L290.469 122.313L290.469 122.313L290.469 122.314L290.468 122.314L290.468 122.314L290.468 122.314L290.468 122.314L290.468 122.315L290.468 122.315L290.467 122.315L290.467 122.315L290.467 122.315L290.467 122.316L290.467 122.316L290.466 122.316L290.466 122.316L290.466 122.317C289.575 123.317 288.687 124.315 287.794 125.3C285.094 128.35 282.393 131.5 280.693 135.25ZM304.594 198.4C293.594 197.45 282.643 195.75 272.193 192.3C269.876 191.528 267.583 190.706 265.298 189.887C264.329 189.54 263.361 189.193 262.394 188.85C262.127 188.75 261.877 188.65 261.644 188.55C261.444 188.4 261.593 188.05 261.693 187.9C262.943 185.65 264.844 183.55 267.094 182.25C268.098 182.342 269.102 182.692 270.107 183.043C270.752 183.269 271.398 183.494 272.044 183.65C291.294 190.05 311.594 191.55 331.744 192.2C350.194 192.7 368.344 187.6 385.544 181.35C398.244 176.35 406.194 171.2 411.144 157.9C411.282 157.486 411.562 156.753 411.929 155.796C414.351 149.478 420.52 133.385 414.094 134.6C411.56 134.968 409.107 135.632 406.656 136.295C405.769 136.535 404.883 136.775 403.994 137C401.666 137.513 399.334 137.991 397.004 138.469C391.376 139.622 385.76 140.774 380.244 142.4C379.444 142.65 380.293 141.5 380.443 141.35C381.551 139.545 383.433 138.918 385.344 138.282L385.344 138.282C385.762 138.143 386.181 138.003 386.594 137.85C392.068 136.094 397.637 134.578 403.209 133.061L403.209 133.061L403.209 133.061L403.209 133.061L403.21 133.061L403.21 133.061L403.21 133.061L403.21 133.061L403.21 133.061L403.21 133.061L403.21 133.061L403.21 133.061L403.211 133.061L403.211 133.061L403.211 133.061L403.211 133.061L403.211 133.061L403.211 133.06L403.211 133.06L403.212 133.06L403.212 133.06L403.212 133.06L403.212 133.06L403.212 133.06L403.212 133.06L403.212 133.06L403.213 133.06L403.213 133.06L403.213 133.06L403.213 133.06L403.213 133.06L403.213 133.06L403.213 133.06L403.213 133.06L403.214 133.06L403.214 133.06L403.214 133.06L403.214 133.06L403.214 133.06L403.214 133.059L403.214 133.059L403.215 133.059L403.215 133.059L403.215 133.059L403.215 133.059L403.215 133.059L403.215 133.059L403.215 133.059L403.216 133.059L403.216 133.059L403.216 133.059L403.216 133.059L403.216 133.059L403.216 133.059L403.216 133.059L403.217 133.059L403.217 133.059L403.217 133.059L403.217 133.059L403.217 133.059L403.217 133.059L403.217 133.058L403.217 133.058L403.218 133.058L403.218 133.058L403.218 133.058L403.218 133.058L403.218 133.058L403.218 133.058L403.218 133.058L403.219 133.058L403.219 133.058L403.219 133.058L403.219 133.058L403.219 133.058L403.219 133.058L403.219 133.058L403.22 133.058L403.22 133.058L403.22 133.058L403.22 133.058L403.22 133.058C408.432 131.639 413.648 130.219 418.794 128.6C427.173 125.565 421.479 141.282 418.933 148.309L418.933 148.309C418.501 149.501 418.16 150.442 417.994 151C413.894 163 405.644 173.15 395.294 180.35C385.244 187.6 373.294 191.45 361.494 194.8C354.294 196.8 346.994 198.45 339.544 199.2C335.894 199.6 332.194 199.8 328.494 199.8C321.449 199.8 314.365 199.212 307.312 198.625L307.311 198.625C306.405 198.55 305.499 198.475 304.594 198.4ZM212.494 60.2505C211.844 62.1505 211.194 64.1005 211.044 66.1505C211.694 67.4005 213.194 68.3505 214.544 68.8005C218.307 67.6536 221.787 65.7104 225.243 63.781C226.609 63.0187 227.97 62.2585 229.344 61.5505C229.411 61.4829 229.53 61.4325 229.654 61.3799L229.654 61.3799C229.897 61.2768 230.16 61.1654 230.094 60.9005C229.455 59.8691 228.334 59.1754 227.3 58.5351L227.244 58.5005C227.21 58.4795 227.176 58.4578 227.141 58.4356C226.76 58.1945 226.302 57.9047 225.844 57.9505C225.369 58.2005 224.894 58.4755 224.419 58.7505C223.944 59.0255 223.469 59.3005 222.994 59.5505C220.928 60.628 218.904 61.8265 216.919 63.0011C216.693 63.1346 216.468 63.2678 216.244 63.4005C216.481 62.4721 216.723 61.5437 216.966 60.6147C217.846 57.2413 218.727 53.8613 219.394 50.4505C219.424 50.0582 219.563 49.4381 219.72 48.7416C220.083 47.1301 220.537 45.1091 219.944 44.5505C219.806 44.4385 219.665 44.3176 219.521 44.194C218.829 43.5999 218.063 42.9419 217.194 42.9005C217.103 43.1424 217.067 43.4209 217.031 43.7028L217.031 43.7028C217.007 43.887 216.983 44.0727 216.944 44.2505C215.917 49.5811 214.268 54.7204 212.605 59.9023L212.605 59.9023L212.494 60.2505ZM140.694 128.55C138.347 127.203 137.646 124.559 136.997 122.112L136.994 122.1C135.544 117.75 133.194 113.7 129.994 110.35C118.544 98.6505 97.8436 92.6005 81.9936 97.2005C79.5401 97.8733 77.2153 98.7005 74.9755 99.4975C66.3975 102.55 59.0679 105.158 50.5436 96.9505C49.8107 96.4197 49.0841 95.7644 48.343 95.096C46.1516 93.1195 43.8326 91.0279 40.8436 91.7005C37.8436 94.3505 37.7436 99.2005 38.4436 102.9C38.4436 103.022 38.5082 103.194 38.5771 103.378C38.7351 103.799 38.9157 104.281 38.3936 104.35C38.2169 104.294 38.037 104.236 37.8543 104.176C33.8471 102.879 28.4605 101.136 25.5436 105.2C23.9936 107.55 23.7936 111.6 25.8936 113.65C26.9777 114.655 28.1738 115.52 29.3708 116.386C30.4371 117.157 31.5042 117.929 32.4936 118.8C35.1436 121.4 37.2436 125.2 31.9936 121.05L31.5164 120.679L31.5163 120.679C27.8122 117.797 23.9904 114.823 21.5936 110.7C16.0936 101.1 22.9936 94.1505 32.9436 98.4005L33.1068 98.4687L33.1069 98.4688C33.5482 98.6535 33.7323 98.7305 33.7838 98.6779C33.8206 98.6402 33.7897 98.5362 33.7367 98.3579L33.7366 98.3577L33.7366 98.3576C33.6952 98.2184 33.6403 98.034 33.5936 97.8005C31.7436 89.9005 33.6436 79.8505 43.1936 87.7505C44.2118 88.521 45.1922 89.3711 46.1753 90.2236C48.7647 92.4688 51.3732 94.7307 54.7436 95.6004C59.3453 96.6783 63.8782 95.2126 68.2569 93.7967C69.1593 93.505 70.0551 93.2153 70.9436 92.9505C77.4936 90.7505 84.3436 89.0504 91.2936 89.6004C107.944 90.9505 123.994 99.1505 133.844 112.8C136.944 117.05 139.944 121.75 140.844 127C140.91 127.4 140.944 127.8 140.944 128.2C140.944 128.242 140.946 128.284 140.948 128.324C140.956 128.475 140.962 128.6 140.844 128.6C140.81 128.6 140.76 128.584 140.694 128.55ZM29.4936 166.45C50.3436 179.85 74.6436 189.15 99.5936 190.45C100.627 190.484 101.66 190.5 102.694 190.5C122.294 190.5 141.594 185.55 160.344 180.25L164.044 179.25C164.671 179.299 164.274 178.509 164.11 178.184L164.094 178.15C162.844 176.25 161.194 174.4 159.144 173.3C157.767 173.447 156.373 173.816 154.971 174.188L154.971 174.188L154.971 174.188L154.971 174.188L154.971 174.188L154.971 174.188L154.971 174.188L154.971 174.188L154.97 174.188L154.97 174.188L154.97 174.188L154.97 174.188L154.97 174.189L154.97 174.189L154.97 174.189L154.969 174.189L154.969 174.189L154.969 174.189L154.969 174.189L154.969 174.189L154.969 174.189L154.969 174.189L154.968 174.189L154.968 174.189L154.968 174.189L154.968 174.189L154.968 174.189L154.968 174.189L154.968 174.189L154.968 174.189L154.967 174.189L154.967 174.189L154.967 174.189L154.967 174.189L154.967 174.19L154.967 174.19L154.967 174.19L154.966 174.19L154.966 174.19L154.966 174.19L154.966 174.19L154.966 174.19L154.966 174.19L154.966 174.19L154.965 174.19L154.965 174.19L154.965 174.19L154.964 174.19L154.964 174.19L154.964 174.19L154.963 174.191L154.963 174.191L154.962 174.191L154.962 174.191L154.962 174.191L154.961 174.191C153.974 174.453 152.984 174.715 151.994 174.9C150.735 175.192 149.476 175.486 148.214 175.78C129.581 180.122 110.641 184.537 91.3936 183.6C67.2436 181.95 39.8936 172.15 20.6936 157.25C10.7936 149.55 -5.0564 122.75 19.2436 125.35C26.0936 126.3 32.1436 129.8 37.9936 133.2C38.2436 133.35 39.7436 134.2 39.8936 133.8C39.2936 132.1 37.5936 130.85 35.9936 130.1C35.5204 129.798 35.0472 129.494 34.5734 129.19C31.4428 127.178 28.2875 125.151 24.9436 123.5C15.5936 118.5 -3.6064 116.25 1.6436 132.65C6.74359 146.55 17.3936 158.1 29.4936 166.45ZM171.194 171.7C173.744 168.6 176.294 165.45 178.294 162C185.144 150.9 185.694 137.2 181.694 124.95C179.851 118.935 177.526 113.078 175.2 107.216L175.199 107.216C172.285 99.8736 169.368 92.5243 167.394 84.8504C165.594 78.1504 167.294 71.2504 169.794 64.9504C170.087 64.2409 170.373 63.5207 170.66 62.7972L170.66 62.7971C171.892 59.6965 173.148 56.5355 175.094 53.9005C175.644 53.3005 179.894 57.0505 179.044 57.4005C175.794 63.4005 173.394 70.0005 171.894 76.6505C170.394 83.5005 172.544 90.3504 174.894 96.8004C176.502 101.746 178.487 106.622 180.476 111.507C185.041 122.721 189.624 133.975 189.694 146.2C189.544 157.35 184.194 169 175.994 176.25C174.144 175.25 171.994 173.65 171.194 171.7ZM180.484 52.3831C180.447 52.3945 180.4 52.4005 180.344 52.4005H180.244C178.644 51.7005 177.294 50.3005 176.094 49.0505C174.494 47.4505 173.894 45.2505 174.094 43.0505C174.116 42.5 174.144 41.9521 174.171 41.4055L174.171 41.4047L174.171 41.4039L174.171 41.4031L174.171 41.4024L174.171 41.4017L174.171 41.4009L174.171 41.4008C174.266 39.5164 174.36 37.6485 174.244 35.7505C174.244 32.3939 172.973 29.3463 171.712 26.3232L171.712 26.3231L171.712 26.3231L171.712 26.3231L171.712 26.3231L171.712 26.323L171.712 26.323L171.712 26.323L171.712 26.3229L171.712 26.3229L171.712 26.3229L171.712 26.3229L171.712 26.3228L171.712 26.3228L171.712 26.3228L171.712 26.3227L171.712 26.3227L171.712 26.3227C171.452 25.6984 171.192 25.0752 170.944 24.4505C170.194 22.6005 170.744 20.1005 172.644 19.2505C173.445 19.1304 174.15 19.6518 174.784 20.1211L174.784 20.1212L174.784 20.1212C174.941 20.2378 175.095 20.3511 175.244 20.4505C176.933 21.6939 178.204 23.3336 179.469 24.9667C180.901 26.8141 182.327 28.6532 184.344 29.9005C185.041 30.4432 185.833 30.8255 186.621 31.2064C187.357 31.5625 188.091 31.9173 188.744 32.4005C188.948 32.5525 189.155 32.7055 189.364 32.8599L189.364 32.8601L189.368 32.8626L189.368 32.8628C191.772 34.6377 194.436 36.6041 195.494 39.5005C195.58 39.6739 195.567 39.7805 195.472 39.8106L195.494 39.8503C195.591 40.0132 195.243 40.1973 194.934 40.3612C194.768 40.4488 194.613 40.5306 194.544 40.6003C188.144 44.7003 185.444 46.5003 181.644 53.1003C181.32 52.9383 180.889 52.6859 180.484 52.3831ZM177.796 44.884C177.795 44.873 177.795 44.8618 177.794 44.8507C178.244 45.4507 178.944 45.7507 179.694 45.7507C179.96 45.7507 180.21 45.7174 180.444 45.6507C180.858 45.5127 181.241 45.3289 181.595 45.1078C181.434 45.0512 181.268 44.9514 181.094 44.8004C181.027 44.7338 180.977 44.7338 180.944 44.8004C180.644 45.1004 180.294 45.4504 179.844 45.3504C178.89 44.9747 177.936 44.2816 177.137 43.4641C177.139 43.4764 177.141 43.4885 177.144 43.5005C177.177 43.7339 177.244 43.9505 177.344 44.1505C177.372 44.2287 177.404 44.305 177.44 44.3793L177.444 44.3505C177.541 44.5446 177.659 44.723 177.796 44.884ZM179.144 28.5507C179.193 28.6143 179.241 28.6789 179.286 28.7445C179.164 28.7113 179.03 28.6927 178.89 28.6733C178.553 28.6263 178.181 28.5743 177.844 28.3004C177.744 28.2004 177.194 26.6504 177.344 26.5504C177.559 26.4547 177.568 26.2558 177.451 26.0067L177.457 26.0109C177.566 26.0987 177.688 26.27 177.809 26.4388L177.81 26.439C177.908 26.5766 178.006 26.7126 178.094 26.8004C178.386 27.2178 178.573 27.5308 178.744 27.9428C178.777 28.0267 178.811 28.1125 178.844 28.2007C178.944 28.334 179.044 28.4507 179.144 28.5507ZM202.843 66.7004C201.091 66.1507 199.693 64.9636 198.309 63.788L198.309 63.788C197.678 63.2526 197.05 62.7197 196.393 62.2504C195.258 61.479 194.03 60.8546 192.806 60.2315C191.172 59.4005 189.544 58.5719 188.143 57.4004C187.593 57.0504 185.643 54.9504 187.593 55.8004C188.049 56.0471 188.506 56.2915 188.963 56.5359L188.964 56.536L188.964 56.5362L188.964 56.5363L188.964 56.5364L188.965 56.5365L188.965 56.5366L188.965 56.5368L188.965 56.5369L188.965 56.537L188.966 56.5371L188.966 56.5372L188.966 56.5374L188.966 56.5375L188.967 56.5376L188.967 56.5377L188.967 56.5378L188.967 56.538L188.967 56.5381L188.968 56.5382L188.968 56.5383L188.968 56.5384L188.968 56.5386L188.969 56.5387L188.969 56.5388L188.969 56.5389L188.969 56.539L188.97 56.5392L188.97 56.5393L188.97 56.5394L188.97 56.5395L188.97 56.5396L188.971 56.5398L188.971 56.5399L188.971 56.54L188.971 56.5401L188.972 56.5402L188.972 56.5404L188.972 56.5405L188.972 56.5406L188.973 56.5407L188.973 56.5408L188.973 56.541L188.973 56.5411L188.973 56.5412L188.974 56.5413L188.974 56.5414L188.974 56.5416L188.974 56.5417L188.975 56.5418L188.975 56.5419L188.975 56.542L188.975 56.5422L188.975 56.5423L188.976 56.5424L188.976 56.5425L188.976 56.5427L188.976 56.5428L188.977 56.5429L188.977 56.543L188.977 56.5431L188.977 56.5433L188.978 56.5434L188.978 56.5435L188.978 56.5436L188.978 56.5437L188.978 56.5439L188.979 56.544L188.979 56.5441L188.979 56.5442L188.979 56.5443L188.98 56.5445L188.98 56.5446L188.98 56.5447L188.98 56.5448L188.981 56.5449L188.981 56.5451L188.981 56.5452L188.981 56.5452L188.981 56.5452L188.981 56.5452L188.981 56.5452L188.981 56.5453L188.981 56.5453L188.981 56.5453L188.981 56.5453L188.981 56.5453L188.981 56.5453L188.981 56.5454L188.981 56.5454L188.981 56.5454L188.981 56.5454L188.981 56.5454L188.981 56.5454L188.981 56.5455L188.981 56.5455L188.981 56.5455L188.981 56.5455L188.981 56.5455L188.981 56.5456L188.982 56.5456L188.982 56.5456L188.982 56.5456L188.982 56.5456L188.982 56.5456L188.982 56.5457L188.982 56.5457L188.982 56.5457L188.982 56.5457L188.982 56.5457L188.982 56.5457L188.982 56.5458L188.982 56.5458L188.982 56.5458L188.982 56.5458L188.982 56.5458L188.982 56.5458L188.982 56.5459L188.982 56.5459L188.982 56.5459L188.982 56.5459L188.982 56.5459L188.982 56.5459L188.982 56.546L188.982 56.546L188.982 56.546L188.982 56.546C191.576 57.9329 194.168 59.3186 196.543 61.1003C197.21 61.567 197.877 62.067 198.543 62.6003C198.577 62.667 198.577 62.6504 198.543 62.5504C198.543 62.2504 198.443 61.9505 198.343 61.6505L198.343 61.6504C197.243 55.8504 196.893 49.9004 196.793 44.0504C197.393 43.1004 200.843 46.1504 201.393 46.7004C201.446 46.7789 201.512 46.8609 201.58 46.9455C201.772 47.1837 201.98 47.442 201.943 47.7004C202.093 48.7504 202.193 49.8504 202.293 50.9504C202.793 55.3504 203.143 59.8004 203.393 64.2004C203.365 64.3845 203.393 64.6809 203.424 65.0067C203.501 65.8311 203.596 66.8437 202.843 66.7004Z" fill="black"/>
</svg>
