<svg width="247" height="217" viewBox="0 0 247 217" fill="none" xmlns="http://www.w3.org/2000/svg">
<path fill-rule="evenodd" clip-rule="evenodd" d="M45.5729 205.184C45.3115 207.345 45.1791 208.439 48.4248 209.714C48.4908 209.747 48.5568 209.747 48.6228 209.714C50.3209 192.614 49.7419 175.443 49.1628 158.264C48.7796 146.899 48.3964 135.531 48.6723 124.178C48.7218 118.522 48.8372 112.866 48.9526 107.208C49.1837 95.8818 49.4149 84.5486 49.1178 73.1934C49.0621 72.2657 49.0691 71.3102 49.076 70.353V70.3529V70.3528V70.3528V70.3527V70.3526V70.3526V70.3525V70.3524V70.3524V70.3523V70.3522V70.3521C49.0876 68.7558 49.0993 67.1546 48.8208 65.6694C48.2268 65.1249 47.5833 64.6299 46.8408 64.2834C46.8155 64.2834 46.7644 64.2673 46.7039 64.2482C46.5277 64.1925 46.2721 64.1117 46.3458 64.3329C46.7226 77.4919 46.4035 90.6678 46.0843 103.851V103.851V103.851V103.851V103.851V103.851V103.852V103.852V103.852V103.852V103.852V103.852V103.852C45.8583 113.183 45.6323 122.517 45.6528 131.851C45.6762 139.916 45.8872 147.97 46.0983 156.023C46.3341 165.023 46.5699 174.021 46.5438 183.034C46.5933 189.716 46.1973 196.399 45.7518 203.081C45.7301 203.885 45.6464 204.577 45.5729 205.184ZM59.6674 216.603C59.7335 216.634 59.7976 216.664 59.8593 216.694C59.9583 216.694 60.0078 216.694 60.1068 216.595C60.7008 208.675 61.1958 200.705 60.9978 192.785C60.4038 169.174 60.3048 145.612 62.0373 122.099C62.9283 107.744 63.7698 93.3894 64.2153 79.0344C64.2571 77.9372 64.2901 76.8378 64.3231 75.7377V75.7376C64.4464 71.626 64.57 67.5031 65.1558 63.4419C66.0963 62.8479 60.9483 59.1354 60.8988 60.2739C60.4419 71.3136 59.9175 82.3601 59.3929 93.4108L59.3928 93.4109L59.3928 93.4111L59.3928 93.4112L59.3928 93.4113L59.3928 93.4115L59.3928 93.4116L59.3928 93.4118L59.3928 93.4119L59.3928 93.412L59.3927 93.4122L59.3927 93.4123L59.3927 93.4124C58.4965 112.289 57.5998 131.178 57.0378 150.067C56.815 159.2 57.013 168.32 57.211 177.44C57.409 186.561 57.607 195.681 57.3843 204.814C57.3348 206.299 57.2729 207.796 57.211 209.293C57.1492 210.791 57.0873 212.288 57.0378 213.773C56.7569 215.225 58.513 216.056 59.6674 216.603ZM13.9967 42.3505C15.3246 43.9342 16.692 45.565 18.6258 46.3149C19.0713 46.4634 18.8238 45.9189 18.6753 45.7704C18.1172 45.0728 17.4991 44.3917 16.8761 43.7051C14.8464 41.4683 12.7645 39.1741 12.5373 36.0684C11.7948 28.9404 16.0023 20.2284 23.4768 18.6939C23.8233 19.9809 28.3278 23.1489 26.9418 19.7334C26.4468 18.6939 33.4758 13.6449 34.1688 15.0309C39.5148 19.2879 40.6038 14.7339 34.9608 12.7539C36.2973 5.72489 45.1578 2.11139 51.6423 3.54689C49.6128 5.22989 48.3258 8.44739 50.4543 10.5264C51.7908 11.9124 53.4738 13.4964 55.5033 13.5459C57.1368 13.4964 58.1268 11.7144 58.4238 10.2789C58.8693 8.59589 58.0773 6.91288 56.9388 5.67538C56.7078 5.41138 56.4603 5.14739 56.1963 4.88339C56.087 4.73762 56.8094 4.40402 57.2969 4.17891C57.4715 4.09827 57.616 4.03155 57.6813 3.99238C59.9583 2.95288 62.6808 2.50739 65.1063 3.39839C66.0638 4.14769 66.3911 5.59714 66.677 6.86353C66.7311 7.10302 66.7837 7.33596 66.8388 7.55639C67.0463 8.55904 67.0847 9.58585 67.1227 10.6031V10.6032C67.1391 11.0423 67.1554 11.4796 67.1853 11.9124C67.4328 12.6549 68.2248 13.1499 68.9178 13.4469C69.886 13.0112 69.6232 10.3978 69.5186 9.35685L69.5118 9.28889C69.1653 5.52689 66.3438 2.65589 63.0273 1.17089C59.8098 -0.165609 55.9983 0.527388 53.1273 2.35889C52.9989 2.51931 52.8498 2.38859 52.7069 2.26327C52.6293 2.19524 52.5535 2.1288 52.4838 2.11139C47.9793 -0.512112 42.2373 -0.462618 37.7328 2.01238C34.0203 3.84388 29.9613 8.24938 32.0898 12.6054C29.0208 13.1499 26.1993 14.9319 24.0213 17.1594C21.1998 15.4764 17.7843 17.1594 15.4578 18.9909C11.2998 22.3569 8.77529 27.8019 8.92379 33.1974C8.97329 36.3654 11.0028 38.8899 12.9828 41.1669C13.3239 41.5482 13.659 41.9478 13.9966 42.3504L13.9967 42.3505ZM35.6043 14.4864C35.5548 14.4864 36.0993 14.4369 35.7528 14.5359H35.3568C35.3568 14.5359 34.9608 14.4864 35.2083 14.4864H35.6043ZM54.8598 5.82389C53.5233 7.06139 52.3353 8.84339 52.6323 10.7739C54.6123 10.3779 55.7508 7.16039 54.8598 5.82389ZM27.1401 62.3036C28.4271 64.1846 30.3576 65.62 32.4366 66.5605C34.6141 67.4073 36.9558 66.8088 39.1942 66.2367C39.7036 66.1065 40.2076 65.9777 40.7031 65.8675C41.9901 65.62 39.1191 63.4915 38.6736 63.1945C37.4726 62.2187 36.9545 62.3812 36.0406 62.6678C35.7492 62.7592 35.4175 62.8633 35.0106 62.947C34.5501 63.0238 34.0801 63.1339 33.6065 63.2448C32.5527 63.4915 31.4811 63.7425 30.4566 63.64C30.3081 62.8975 30.4071 62.1055 30.5556 61.363C30.7228 60.8394 30.8849 60.3499 31.0372 59.8899L31.0376 59.8889L31.0376 59.8887C32.5988 55.1743 33.1325 53.5627 27.5856 50.2255C27.1527 48.1574 29.0097 46.3697 30.3868 45.044L30.5061 44.929C30.634 44.7053 30.7825 44.8324 30.9516 44.9773C31.0444 45.0567 31.1434 45.1415 31.2486 45.1766C31.3059 45.1995 31.3845 45.2463 31.4732 45.2992C31.7676 45.4747 32.174 45.7169 32.2881 45.3745C32.3376 44.533 32.1396 43.7411 31.4466 43.1966L31.2757 43.0416C30.2822 42.1397 29.193 41.1509 27.8826 40.87C26.4133 40.87 25.2847 42.1904 24.3783 43.2507C24.3076 43.3335 24.2382 43.4147 24.1701 43.4936C21.0021 46.7111 25.1601 50.0275 27.8331 51.8095C28.587 52.1027 28.2777 53.4591 28.0748 54.3493L28.0748 54.3493L28.0747 54.3494C28.0378 54.5113 28.0044 54.6577 27.9816 54.7795C27.8298 55.3518 27.6201 55.9379 27.4078 56.5312C26.7203 58.4526 26.0055 60.4503 27.1401 62.3036ZM3.97389 74.2825C0.225739 72.1169 0.506996 71.0726 1.28018 68.2015C1.426 67.6601 1.58931 67.0537 1.74639 66.3625C3.77589 60.274 9.56739 55.918 15.4579 53.7895C18.7249 52.453 21.8434 53.542 23.9719 56.314C24.3679 56.8585 23.6254 56.6605 23.3779 56.4625C22.228 55.8876 20.8056 56.471 19.5912 56.9692L19.5911 56.9692L19.5909 56.9693C19.3416 57.0716 19.101 57.1702 18.8734 57.2545C12.8839 60.0265 7.14189 64.7785 5.70639 71.5105C12.2899 71.7085 16.7449 71.461 21.4969 66.412C22.0909 65.1745 24.9619 67.897 25.5064 68.5405C25.7539 68.7385 25.9024 69.0355 25.5559 69.283C24.1204 70.7185 22.4869 72.1045 20.6554 73.0945C17.7822 74.4385 14.5184 74.4808 11.3923 74.5214C11.1793 74.5241 10.9669 74.5269 10.7554 74.53C10.2934 74.53 9.83139 74.5245 9.36939 74.519C8.44539 74.508 7.52138 74.497 6.59738 74.53C6.40427 74.5408 6.20884 74.5631 6.01309 74.5855C5.30568 74.6664 4.59423 74.7478 3.97389 74.2825ZM32.4364 92.9935C28.5926 90.7349 28.9362 89.9988 30.0388 87.6365C30.3136 87.0479 30.6354 86.3583 30.9514 85.519C31.6356 83.6219 31.4601 81.6467 31.2841 79.667C31.18 78.4956 31.0758 77.3228 31.1494 76.1635C31.2979 74.9755 31.7434 72.7975 33.2779 72.9955C33.6739 72.946 36.3469 74.926 35.6044 75.0745C33.7674 76.089 34.178 79.0778 34.5987 82.1397C34.9376 84.6058 35.2829 87.1192 34.4659 88.687L34.1689 89.38C34.158 89.4018 34.1448 89.4235 34.1328 89.4431C34.0903 89.5129 34.0638 89.5563 34.2184 89.479C34.8763 88.9856 35.4686 88.4267 36.0534 87.8748L36.0535 87.8747L36.0537 87.8745L36.0539 87.8743L36.0541 87.8741L36.0543 87.8739L36.0545 87.8737L36.0546 87.8736L36.0548 87.8734L36.055 87.8732L36.0552 87.873L36.0554 87.8728L36.0556 87.8726C36.3501 87.5947 36.6427 87.3186 36.9409 87.0535C37.3039 86.7235 37.6504 86.3935 37.9804 86.0635C38.0135 86.0304 38.0393 85.9997 38.0621 85.9726C38.1412 85.8782 38.1842 85.8271 38.3764 85.8655C38.5084 85.8985 38.6404 85.9755 38.7724 86.0525C38.8384 86.091 38.9044 86.1295 38.9704 86.1625C39.5149 86.509 41.9899 88.093 41.2474 88.7365C40.9424 88.9831 40.6221 89.2535 40.2884 89.5352L40.2881 89.5354C38.0762 91.4028 35.275 93.7677 32.4364 92.9935ZM55.6521 49.6809C56.5431 52.1559 59.0181 53.7894 61.2951 54.8784C65.658 56.5839 70.4342 52.7595 74.3247 49.6442L74.3248 49.6442C75.2896 48.8716 76.2 48.1426 77.0361 47.5524C76.4916 46.1664 73.5711 44.0874 72.0861 43.7904C70.8862 44.6852 69.7365 45.6803 68.582 46.6795L68.5819 46.6796C66.9263 48.1125 65.2609 49.5539 63.4236 50.7204C62.8296 51.1164 60.0576 52.4529 59.6616 51.8589C59.4273 50.6538 59.7136 49.494 60.0001 48.3335L60.0001 48.3334L60.0001 48.3334L60.0002 48.3334L60.0002 48.3333L60.0002 48.3333L60.0002 48.3332L60.0002 48.3332L60.0002 48.3331L60.0002 48.3331L60.0002 48.333L60.0002 48.333C60.1373 47.7776 60.2745 47.2221 60.3546 46.6614C59.8566 45.5411 58.6979 44.8033 57.6363 44.1275C57.4314 43.9971 57.2302 43.869 57.0381 43.7409C56.5431 43.4439 55.8501 43.1964 55.3056 43.6419C53.8701 44.5329 52.3851 45.4239 50.8011 46.1664C50.2071 46.4139 49.6131 46.6119 48.9696 46.7604C48.9036 46.7934 48.8871 46.7604 48.9201 46.6614C49.0686 43.8894 50.5536 41.4639 52.0386 39.1869C51.4941 37.8504 48.8706 36.0684 47.4846 35.7714C44.5146 37.6524 40.5546 38.9889 36.9906 38.0979C34.7136 32.6034 41.8416 26.2179 46.9896 25.9209C47.1612 26.0564 47.3378 26.205 47.5193 26.3579C48.3325 27.0426 49.2449 27.8109 50.2566 27.8514C49.9942 26.5831 48.6884 25.5852 47.6026 24.7555L47.6025 24.7554C47.4594 24.6461 47.3202 24.5396 47.1876 24.4359C44.0196 21.7134 39.7131 23.2479 36.8916 25.6239C32.1891 29.2374 30.1101 34.9794 35.8521 38.7909C38.1786 40.6719 41.1981 42.0084 44.2671 41.7114C43.0296 45.0279 45.8016 47.7009 48.4251 49.2849C50.5536 50.9184 53.3256 50.9679 55.6521 49.6809ZM65.2548 39.9293C62.1858 39.9788 60.4039 39.8799 57.9784 37.8009C57.5329 37.4544 55.3053 35.4248 57.1368 36.0189C61.7403 37.0088 66.6904 37.0089 71.0464 35.0784L71.1018 35.052C72.1311 34.5622 73.379 33.9683 73.7193 32.8014C73.7688 32.6529 73.7689 32.5044 73.7689 32.3063C73.7194 32.3063 73.5709 32.2568 73.5214 32.2073C71.6899 31.5143 69.8583 30.9698 67.9773 30.4253C66.0468 29.9303 63.9184 29.2868 62.7304 27.5543C62.4412 27.1413 62.8759 26.8661 63.229 26.6425C63.2991 26.5982 63.366 26.5558 63.4234 26.5148C63.7584 26.274 64.1378 26.0266 64.5338 25.7682L64.5339 25.7682L64.534 25.7681C66.0101 24.8052 67.7175 23.6914 68.2248 22.2084L68.2302 22.1819L68.2302 22.1818L68.2302 22.1816L68.2302 22.1815L68.2303 22.1814C68.2501 22.0831 68.2591 22.0384 68.2408 22.0144C68.2255 21.9945 68.1913 21.9889 68.1286 21.9788C68.1007 21.9743 68.067 21.9689 68.0268 21.9609C67.1358 21.8124 66.2449 21.7134 65.3539 21.6639C61.6909 21.4659 57.9288 21.6638 54.3648 22.7528C53.6718 23.0003 52.9789 23.2479 52.3354 23.6439C52.2364 23.7429 52.0879 23.6934 51.9889 23.6439C51.6919 23.4459 51.3948 23.2478 51.1473 23.0003C51.1094 22.9244 51.1297 22.9067 51.186 22.8578L51.186 22.8578C51.203 22.843 51.2234 22.8253 51.2464 22.8023C54.2659 20.9213 59.1169 20.3274 62.6809 20.1789C62.8525 20.1789 63.0248 20.1781 63.1977 20.1773H63.1981H63.1985H63.1989H63.1993H63.1997H63.2001H63.2006H63.201C64.4238 20.1719 65.675 20.1664 66.8884 20.4264C68.0764 20.6739 69.1159 21.4164 70.0564 22.2084C72.0364 23.8419 70.1059 25.8219 68.6209 26.9109C67.8786 27.4552 67.0373 27.9996 66.196 28.544L66.1954 28.5443C66.1605 28.5676 66.1338 28.5827 66.1159 28.5927C66.0979 28.6029 66.0889 28.608 66.0895 28.6113C66.0901 28.6146 66.1005 28.6161 66.1212 28.6192C66.1466 28.623 66.1874 28.629 66.2449 28.6434C66.6168 28.755 66.9888 28.8648 67.3605 28.9745L67.3653 28.976L67.3664 28.9763L67.3665 28.9763C68.9711 29.4501 70.5695 29.9221 72.1354 30.5243C73.7689 31.2173 76.8874 32.9498 76.9864 34.8803C76.7884 38.3453 68.0763 39.9788 65.2548 39.9293ZM82.3326 22.2082C75.8976 23.1982 75.4522 27.4552 80.9962 30.4747C84.7582 32.9497 87.9757 28.2472 86.3917 24.7822C88.0823 24.8154 89.7285 25.3591 91.3452 25.8931C92.1426 26.1565 92.9328 26.4175 93.7176 26.6137C92.4306 23.6932 88.1737 22.7527 85.2532 22.2577C85.1477 22.2226 85.0421 22.2186 84.9411 22.2148C84.7576 22.208 84.5888 22.2017 84.4612 22.0102C84.0982 21.6142 83.7186 21.2347 83.3226 20.8717C80.5506 18.5452 77.2342 16.2187 73.6207 15.5257C73.5464 15.7856 73.7784 16.0176 73.9826 16.2218C74.0507 16.2899 74.1156 16.3549 74.1651 16.4167C75.1375 17.4719 76.499 18.0341 77.8485 18.5914C79.7277 19.3674 81.5836 20.1338 82.3326 22.2082ZM80.0557 28.4947C79.6102 26.8612 81.1941 25.6732 82.5801 25.2277C82.6461 25.2277 82.6957 25.2112 82.7287 25.1782C82.5802 26.6137 81.6397 28.3957 80.0557 28.4947ZM84.2131 50.7699C82.7281 50.1264 81.0946 48.9879 80.3521 47.5029C80.9704 46.9267 81.6286 46.3745 82.2894 45.8201C83.956 44.4219 85.6387 43.0102 86.7376 41.1669C88.2226 38.5929 88.3711 35.5239 87.7276 32.7024C87.3811 32.1579 87.7276 32.1579 88.1236 32.4054C89.4601 33.1479 90.8461 34.2369 90.9946 35.8209C91.4895 38.1474 91.5886 40.5729 90.8956 42.8004C90.2026 45.4734 88.1731 47.4534 86.2426 49.2849C86.0211 49.4382 85.8055 49.6502 85.5857 49.8663C85.1668 50.2781 84.7325 50.705 84.2131 50.7699ZM86.0978 64.3346C87.3848 67.5969 88.7096 70.9551 92.1831 72.253C93.8233 72.376 93.6972 66.8941 93.6337 64.1367C93.6206 63.5655 93.6101 63.1113 93.6186 62.848C93.5884 62.4462 93.5612 62.0366 93.5336 61.6217L93.5336 61.6216L93.5336 61.6213L93.5336 61.6211L93.5336 61.6208C93.2453 57.2826 92.9196 52.381 88.7181 50.077C88.1241 49.6315 87.0351 49.285 87.8271 50.473C88.0746 51.067 88.2231 51.7105 88.3221 52.4035C88.869 55.8952 88.8081 59.4227 88.7471 62.9556C88.7363 63.5796 88.7255 64.2038 88.7181 64.828C88.6446 64.6892 88.5617 64.5275 88.4708 64.35L88.4707 64.3499C88.0099 63.4514 87.3418 62.1483 86.6391 61.363C86.1502 60.7692 85.6777 60.1509 85.2035 59.5304L85.2034 59.5302L85.2033 59.5301C83.6615 57.5125 82.1028 55.4726 79.9071 54.1855C79.6101 53.9875 79.3626 54.136 79.6101 54.4825C80.1756 55.2208 80.7811 55.9342 81.3868 56.648C82.6898 58.1834 83.9943 59.7206 84.9066 61.5115C85.3371 62.4064 85.7158 63.3662 86.0977 64.3344L86.0978 64.3346ZM103.222 64.4814C100.468 63.1616 100.215 61.7162 99.8217 59.4721C99.3596 56.8346 98.7041 53.0937 93.5691 47.1564C92.7771 46.2159 94.1136 47.2554 94.2621 47.4039C98.0736 51.6114 101.539 56.3634 102.925 61.9074C102.938 62.0273 103.009 62.2762 103.093 62.5742L103.093 62.5747L103.093 62.5749L103.094 62.5753L103.094 62.5756C103.323 63.3847 103.656 64.5537 103.222 64.4814ZM198.113 159.521C195.094 158.729 192.272 156.898 190.342 154.472C189.229 153.091 189.306 151.203 189.374 149.548C189.393 149.068 189.412 148.608 189.401 148.186C185.689 148.037 182.026 146.057 179.798 143.087C178.529 141.002 180.041 138.833 181.294 137.038L181.394 136.894L181.456 136.805L181.504 136.735C181.547 136.674 181.588 136.614 181.63 136.553C178.561 135.959 173.215 133.286 176.284 129.178C178.363 126.307 180.739 123.436 183.659 121.456C184.699 120.614 187.322 122.743 187.817 123.683C184.946 124.327 178.561 131.108 178.66 134.177C180.293 134.227 181.877 133.979 183.412 133.682C183.956 133.385 184.55 133.633 184.996 133.93C185.162 134.052 185.354 134.174 185.553 134.301C186.239 134.739 187.009 135.23 187.124 135.959C186.746 136.691 186.257 137.428 185.759 138.181L185.758 138.181C184.368 140.28 182.904 142.49 183.56 144.968C184.654 145.342 185.805 145.413 186.959 145.485C187.947 145.547 188.937 145.608 189.896 145.859C193.364 147.321 193.165 149.214 192.939 151.356C192.775 152.913 192.598 154.603 193.807 156.353C196.975 157.311 200.253 156.432 203.456 155.573C204.558 155.278 205.65 154.985 206.726 154.769C208.459 154.126 210.736 156.452 211.874 157.64C212.356 158.156 210.71 158.409 209.478 158.599C208.937 158.682 208.476 158.753 208.31 158.828C207.697 158.928 207.081 159.04 206.465 159.153L206.464 159.153L206.464 159.153L206.463 159.153L206.463 159.153L206.462 159.153C203.697 159.659 200.905 160.169 198.113 159.521ZM203.707 180.806C201.529 179.717 198.955 178.133 198.46 175.609L198.282 175.692C196.736 176.419 194.93 177.268 193.262 176.648C191.777 175.906 189.698 174.668 189.847 172.787C190.292 170.857 194.153 164.323 196.331 164.62C196.876 164.867 198.856 166.154 198.509 166.748C197.393 166.459 195.518 169.379 194.468 171.014C194.261 171.337 194.086 171.61 193.955 171.797C193.864 172.01 193.721 172.27 193.57 172.545L193.57 172.545C193.23 173.165 192.847 173.861 192.916 174.272C193.849 174.018 194.71 173.581 195.561 173.15C195.702 173.078 195.843 173.007 195.985 172.936C196.438 172.763 196.852 172.517 197.246 172.284C198.317 171.649 199.246 171.099 200.44 172.292C202.227 173.296 202.068 174.458 201.887 175.779C201.782 176.543 201.671 177.361 201.925 178.232C205.934 178.376 208.839 174.929 211.216 172.108C211.304 172.004 211.391 171.9 211.478 171.797C211.973 170.906 215.884 174.074 215.686 174.817C212.963 178.381 208.508 182.588 203.707 180.806ZM237.664 135.86C236.921 135.712 231.971 132.593 234.743 132.593C242.02 131.207 247.415 127.643 238.109 122.99C237.729 122.719 237.291 122.452 236.838 122.176C235.228 121.193 233.424 120.093 233.308 118.238C233.363 117.905 233.543 117.603 233.726 117.297L233.726 117.297C233.869 117.058 234.013 116.816 234.1 116.555C232.417 116.357 230.635 116.407 229.001 116.456C228.358 116.209 225.685 114.575 226.18 113.981C226.554 113.987 226.936 113.988 227.322 113.989C230.507 114 233.998 114.012 236.426 116.308C237.614 117.1 237.713 118.486 236.921 119.624C236.624 120.07 236.129 121.01 236.872 121.357C246.128 126.505 252.118 132.593 237.664 135.86ZM212.072 118.684C205.439 120.515 202.618 125.515 211.033 127.396C214.547 127.495 217.517 123.683 216.527 120.317C220.455 119.936 221.883 121.551 223.341 123.199C224.344 124.334 225.362 125.485 227.219 126.01C224.596 122.198 220.141 118.634 215.29 118.288C212.716 115.664 209.003 114.724 205.439 115.367C201.578 115.961 197.123 117.05 194.599 120.317C194.252 120.911 198.064 123.485 198.163 122.594C200.786 118.981 209.053 116.753 213.211 117.743C213.211 117.794 213.274 117.891 213.342 117.994C213.473 118.194 213.62 118.42 213.359 118.387C212.93 118.453 212.501 118.552 212.072 118.684ZM208.558 125.317C208.756 123.04 211.33 121.901 213.211 121.109C213.31 121.043 213.425 120.994 213.557 120.961C213.557 121.06 213.541 121.159 213.508 121.258C212.815 123.386 210.835 125.168 208.558 125.317ZM229.595 155.759C230.536 157.244 232.565 158.135 234.199 158.729C234.976 158.652 235.723 158.177 236.415 157.737C236.605 157.617 236.79 157.499 236.971 157.393C239.891 155.561 240.931 152.938 237.466 150.958C236.444 150.157 235.486 149.714 234.783 149.389C233.442 148.768 233.024 148.575 234.842 147.146C240.535 142.84 232.763 139.523 228.754 138.929C228.259 138.781 228.506 139.226 228.704 139.325C229.843 140.315 231.278 141.157 232.813 141.305C232.84 141.319 232.859 141.325 232.874 141.33C232.915 141.343 232.925 141.346 232.961 141.454C232.751 143.631 231.488 144.629 230.583 145.344C229.143 146.482 228.612 146.901 234.694 150.215C237.852 151.984 233.022 154.182 230.595 155.287C230.169 155.481 229.817 155.641 229.595 155.759ZM215.834 148.334C213.062 147.74 209.547 145.909 209.25 142.741C206.528 143.483 203.855 142.246 201.875 140.414C200.34 139.276 201.182 137.246 202.122 136.009C202.518 135.365 202.964 135.068 203.657 135.464C203.802 135.54 203.952 135.616 204.103 135.693C205.444 136.374 206.96 137.145 207.716 138.434C207.023 138.83 206.379 139.474 205.884 140.167C205.835 140.216 205.736 140.315 205.884 140.266C208.359 139.721 211.23 141.157 212.418 143.384C212.542 143.78 212.616 144.189 212.691 144.597L212.691 144.597C212.765 145.006 212.839 145.414 212.963 145.81C214 145.953 215.193 145.838 216.354 145.725L216.354 145.725C216.799 145.682 217.24 145.639 217.665 145.612C217.725 145.603 217.784 145.595 217.843 145.586C218.476 145.492 219.102 145.398 219.645 145.76C219.72 145.803 219.808 145.851 219.905 145.905L219.907 145.905C220.84 146.42 222.665 147.424 222.665 148.186C220.437 148.532 218.111 148.532 215.834 148.334ZM168.561 144.275C160.889 143.582 157.077 137.246 165.344 133.039C167.324 132.296 167.373 130.663 165.888 129.326C162.819 126.158 161.433 123.881 166.433 121.852C169.7 120.07 173.462 121.307 175.937 123.832C176.382 124.624 174.798 123.832 174.6 123.733C174.369 123.54 174.077 123.558 173.795 123.575C173.75 123.578 173.706 123.58 173.662 123.582C173.628 123.583 173.594 123.584 173.561 123.584C164.841 125.9 166.697 128.032 168.654 130.282C169.919 131.736 171.226 133.238 169.749 134.87C169.42 135.075 169.057 135.284 168.679 135.502L168.677 135.504L168.677 135.504C166.215 136.925 163.11 138.718 164.354 141.85C166.383 141.899 168.413 141.652 170.393 141.404C171.284 141.652 174.006 143.038 174.056 143.929C172.224 144.275 170.393 144.275 168.561 144.275ZM234.248 183.776C231.972 183.054 230.962 181.093 229.947 179.124C229.571 178.395 229.195 177.664 228.753 176.995C227.599 175.293 225.991 174.078 224.38 172.861C223.227 171.99 222.072 171.118 221.081 170.065C218.556 167.59 217.17 163.58 218.111 160.165C218.705 160.016 221.328 161.897 221.081 162.491C220.289 165.461 221.328 168.976 223.506 171.203C224.191 171.761 224.895 172.302 225.601 172.843C227.902 174.612 230.216 176.39 231.921 178.777C231.967 178.8 232.034 178.907 232.093 179.001C232.161 179.111 232.218 179.203 232.218 179.123C232.482 178.43 232.746 177.754 233.01 177.094C233.409 176.126 233.881 175.161 234.355 174.19L234.355 174.19C235.944 170.939 237.565 167.624 236.574 163.927C236.376 162.739 236.03 161.551 235.584 160.412C235.634 160.264 235.881 160.363 235.98 160.412C239 161.501 239.495 164.966 239.841 167.788C240.135 170.558 238.926 172.941 237.713 175.334C237.084 176.577 236.453 177.821 236.03 179.123C235.863 179.401 235.662 180.143 235.442 180.954L235.442 180.955C235.073 182.314 234.651 183.869 234.248 183.776ZM176.432 115.219C175.689 114.922 174.452 114.377 174.402 113.486L174.303 107.051C174.279 97.5756 174.291 88.1121 174.303 78.6549V78.6494V78.6439V78.6384C174.316 69.1798 174.328 59.7274 174.303 50.2749C174.332 44.3864 174.295 38.4979 174.259 32.6187V32.6179V32.6171V32.6163C174.232 28.2165 174.204 23.8219 174.204 19.4364C174.057 18.9208 174.924 19.5013 175.418 19.8323C175.588 19.9461 175.713 20.0304 175.739 20.0304C175.763 20.0501 175.788 20.0697 175.814 20.0895L175.854 20.121C176.073 20.2909 176.306 20.4716 176.432 20.7234C176.465 21.0534 176.454 21.3834 176.443 21.7134C176.437 21.8784 176.432 22.0434 176.432 22.2084C176.828 53.0964 176.778 84.5784 176.432 115.219ZM190.094 105.764C186.53 109.922 187.173 111.853 192.024 114.031C192.321 114.13 192.47 113.932 192.321 113.684C192.272 109.922 196.38 106.606 199.647 105.418L199.716 105.408C200.056 105.358 200.502 105.292 200.687 105.616C201.429 106.309 202.271 107.002 203.261 107.299C203.508 107.348 203.706 107.299 203.904 107.15C204.211 106.959 204.515 106.76 204.819 106.561L204.82 106.561C205.694 105.99 206.576 105.413 207.567 104.972C207.615 104.956 207.664 104.938 207.715 104.92L207.799 104.889L207.994 104.818C209.644 104.218 212.487 103.184 213.755 104.18C214.2 105.22 215.784 106.754 216.972 106.705C218.754 105.269 221.427 104.576 223.506 105.764C224.031 106.087 224.481 106.516 224.931 106.946C225.586 107.57 226.24 108.194 227.12 108.487C227.757 108.396 225.8 106.798 225.249 106.349C225.201 106.31 225.164 106.279 225.14 106.259C222.467 103.784 218.606 102.299 215.289 104.279C211.28 99.7749 205.785 101.705 201.479 104.576C201.258 104.753 201.234 104.733 201.021 104.55C201.004 104.536 200.987 104.522 200.968 104.506C200.957 104.497 200.946 104.487 200.934 104.477C197.123 100.864 193.311 102.25 190.094 105.764ZM190.935 96.0624C191.43 97.1019 192.569 97.7949 193.608 98.2404C193.658 93.5598 193.727 88.834 193.796 84.0786L193.796 84.0745L193.796 84.0703C194.075 64.99 194.361 45.4334 193.41 26.4159C193.38 25.9918 193.366 25.6047 193.353 25.2492V25.2489C193.282 23.2814 193.245 22.2816 190.688 21.3174C190.886 29.3859 190.985 37.7514 190.886 45.9189C190.867 51.3083 190.807 56.6907 190.746 62.0688C190.646 71.0156 190.546 79.9502 190.638 88.8849C190.737 91.3104 190.836 93.6864 190.935 96.0624ZM174.6 203.675C174.699 204.764 175.986 205.507 176.877 205.952C177.252 195.84 176.776 185.189 176.308 174.707V174.707V174.706L176.308 174.705L176.308 174.704C176.158 171.334 176.008 167.981 175.887 164.669C175.788 161.749 175.689 158.828 175.739 155.908C175.727 155.361 175.769 154.877 175.808 154.439C175.929 153.054 176.01 152.134 174.204 151.156C173.858 150.908 173.165 150.463 173.313 151.205C173.138 157.982 173.386 164.76 173.633 171.519V171.519V171.52C173.734 174.289 173.835 177.055 173.907 179.816C173.957 182.687 174.006 185.571 174.056 188.454L174.065 188.997C174.112 191.699 174.158 194.401 174.204 197.092C174.242 198.772 174.364 200.425 174.485 202.07C174.524 202.606 174.564 203.141 174.6 203.675ZM197.568 205.853C194.895 204.566 194.301 203.378 194.45 200.507C194.371 198.798 194.308 197.089 194.245 195.383L194.245 195.38L194.245 195.379C194.15 192.788 194.054 190.204 193.905 187.637C193.905 186.876 193.803 186.073 193.701 185.273L193.701 185.272C193.557 184.146 193.414 183.028 193.559 182.044C194.945 182.44 196.133 183.578 197.024 184.667C197.321 186.626 197.35 188.709 197.38 190.778V190.779C197.4 192.161 197.42 193.536 197.519 194.864C197.568 196.504 197.605 198.131 197.641 199.752V199.752C197.679 201.411 197.716 203.063 197.766 204.715C197.751 204.805 197.773 204.951 197.796 205.109C197.85 205.468 197.912 205.888 197.568 205.853ZM79.9563 5.72494C79.8189 5.71869 79.6809 5.71284 79.5425 5.70697C77.4875 5.61983 75.3487 5.52914 73.8183 4.09144C73.814 4.08716 73.8067 4.08027 73.7973 4.07127C73.6972 3.97632 73.349 3.64595 73.6203 3.64595C73.7487 3.60312 73.8772 3.67142 73.9736 3.72268L73.974 3.72285C73.9889 3.73078 74.003 3.7383 74.0163 3.74494C84.6484 4.36129 95.2997 3.80727 105.946 3.2535C112.4 2.91779 118.853 2.58217 125.298 2.50744C153.144 1.8678 181.026 2.36695 208.882 2.86564C213.362 2.94583 217.84 3.02601 222.318 3.10144C223.358 3.34894 224.298 3.94294 225.14 4.53694C225.159 4.55629 225.216 4.60024 225.294 4.65991C225.613 4.90545 226.279 5.41715 226.08 5.57644C225.252 5.60959 224.423 5.59834 223.609 5.58729C223.207 5.58184 222.81 5.57644 222.417 5.57644C211.698 5.48873 200.986 5.29531 190.277 5.10197C170.77 4.74977 151.276 4.39782 131.783 4.68543C125.008 4.76308 118.233 4.99298 111.459 5.22287C100.958 5.57921 90.4571 5.93555 79.9563 5.72494ZM95.4235 17.6576C96.3603 17.6508 97.2866 17.6441 98.1725 17.7039C115.417 17.3135 132.661 17.2938 149.901 17.274C172.004 17.2487 194.1 17.2234 216.18 16.4169C216.774 16.3922 217.381 16.3798 217.987 16.3674C218.594 16.355 219.2 16.3427 219.794 16.3179C219.992 16.1199 219.051 15.4764 218.952 15.4269C218.881 15.3838 218.808 15.3401 218.736 15.2963C217.811 14.7365 216.837 14.1471 215.735 14.2389C189.558 14.792 163.381 15.0017 137.204 15.2115C121.207 15.3397 105.21 15.4679 89.213 15.6744C89.0768 15.6621 88.9407 15.6528 88.8046 15.6435C88.3962 15.6156 87.9878 15.5878 87.5794 15.4764C87.5495 15.4764 87.5104 15.4719 87.4678 15.4669C87.3696 15.4555 87.2525 15.4419 87.1835 15.4764C87.0845 15.5259 87.1835 15.6249 87.233 15.6744C89.4472 17.701 92.4866 17.6789 95.4235 17.6576Z" fill="black"/>
</svg>
