<svg width="177" height="166" viewBox="0 0 177 166" fill="none" xmlns="http://www.w3.org/2000/svg">
<path fill-rule="evenodd" clip-rule="evenodd" d="M86.7999 16.5774C83.1499 15.1774 78.0499 12.7274 78.4499 8.12739C79.0499 4.82739 82.5999 2.87739 85.7999 3.37739C86.6229 3.42487 87.4809 3.6076 88.3486 3.79239C90.2223 4.19142 92.1412 4.60009 93.8499 3.67739C98.3999 -3.22261 105.35 1.62739 109.2 6.57739C111.45 8.82739 109 7.67739 107.9 6.72739C107.431 6.25852 106.989 5.72153 106.55 5.18707C104.927 3.21374 103.333 1.27494 100.5 2.92739C99.5974 3.26258 99.0673 3.98337 98.5461 4.69206C98.0565 5.35766 97.5748 6.01259 96.7999 6.32739C95.1398 6.9059 93.4292 6.61135 91.7125 6.31577C90.0165 6.02376 88.3147 5.73074 86.6499 6.27739C83.5999 7.22739 81.3999 10.9774 83.4499 13.8274C83.9499 13.9274 88.1499 16.3274 86.7999 16.5774ZM133.25 24.7273C129.35 24.6273 125.2 24.2273 121.95 21.7773C118.4 19.7773 116.1 15.2273 121.65 14.1273C121.861 14.0967 122.075 14.0647 122.291 14.0324C125.248 13.5894 128.623 13.0839 131 15.2273C131.172 15.3858 131.385 15.5443 131.607 15.7092C132.227 16.1687 132.913 16.6783 132.95 17.3773C132.77 17.3733 132.59 17.3688 132.41 17.3644C130.383 17.3147 128.32 17.2641 126.3 17.6773C124.7 17.8773 122.65 18.8773 122.9 20.7773C124.95 21.3273 127.1 21.5773 129.2 21.7773C132.65 22.0273 137.8 17.0273 137.75 13.5773C137.473 9.74609 132.517 10.1894 128.82 10.52C127.837 10.6079 126.943 10.6878 126.25 10.6773C125.65 10.7273 122.1 8.37735 123.15 8.07735C127.5 7.52735 132.35 7.07734 136.15 9.72734C139.05 11.5773 142.95 14.8773 140.85 18.6273C139.25 21.3273 136.6 24.4773 133.25 24.7273ZM90.2 25.6273C87.75 27.4773 90.35 29.8273 92.3 30.6273C94.85 31.6773 100.6 31.2273 95.1 28.7773C94.4384 29.439 93.292 29.3129 92.274 29.201C91.9842 29.1691 91.7048 29.1384 91.45 29.1273C91.65 27.2273 94 25.7773 95.75 25.7773C94.5 23.4773 91.8 23.9773 90.2 25.6273ZM73.45 37.0273C72.75 40.1773 79.1501 42.7273 81.6501 42.9273C82.9501 42.5773 78.1501 39.5773 77.4001 39.9273C77.7616 39.0751 78.5367 38.5697 79.3188 38.0597C80.0509 37.5823 80.7891 37.1009 81.2 36.3273C81.7218 34.5614 79.7307 33.4398 78.1489 32.5487C77.7601 32.3297 77.396 32.1246 77.1 31.9273C76.7654 31.0488 77.9357 30.3453 78.7662 29.8461C78.9284 29.7487 79.0775 29.659 79.2 29.5773C81.65 28.3273 84.75 28.0773 87.2 29.3273C87.347 29.3861 87.5156 29.4925 87.6931 29.6044C88.1194 29.8732 88.597 30.1745 88.95 29.9273C87.2 27.3773 83.7001 25.8773 80.6501 25.4273C77.9001 25.2273 74.15 25.9273 72.8 28.5773C72.8 30.4466 74.6034 31.5883 76.1716 32.5811C76.5748 32.8364 76.9625 33.0819 77.3 33.3273C76.9346 34.2148 76.1331 34.748 75.3295 35.2826C74.5938 35.772 73.8563 36.2626 73.45 37.0273ZM84.9001 43.2774C83.7501 42.8274 82.4501 42.1274 81.8501 41.0274C82.4001 38.8274 84.5501 37.3274 86.5501 36.4774C88.6684 35.3495 90.7564 35.9319 92.8557 36.5175C94.572 36.9963 96.2959 37.4772 98.0501 37.0274C101.55 36.0274 102.75 32.1274 103 28.8774C104.05 28.9274 106.85 30.6774 106.55 31.8774C105.95 38.7774 101.05 41.4774 94.8501 38.6274C90.9001 37.4774 86.5001 39.9774 84.9001 43.2774ZM90.5 49.1774C88.55 49.8274 79.9 43.0774 83.75 44.3274C86.4809 46.6682 88.6482 45.2132 91.0337 43.6117L91.0338 43.6116C91.3998 43.3659 91.7709 43.1168 92.15 42.8774C93.4602 42.4614 94.3984 42.7634 95.3316 43.0638C96.6422 43.4857 97.9429 43.9044 100.25 42.3274C101.351 41.4755 102.418 41.133 103.418 40.812C104.824 40.3605 106.098 39.9515 107.15 38.2274C107.6 36.9274 111.5 40.1274 111.45 40.8774C110.418 42.8697 109.311 43.2672 107.929 43.763C107.369 43.964 106.763 44.1812 106.1 44.5274C103.65 46.4274 100.65 47.5274 97.7 45.9774C96.5634 46.1304 95.6179 46.8375 94.6631 47.5517C93.4336 48.4713 92.1886 49.4025 90.5 49.1774ZM77.25 49.9274C74.95 48.9274 73 47.2274 72.8 44.5774C69 44.0274 62.75 41.1274 65.2 36.4274C65.3224 36.2098 65.4299 35.9554 65.5408 35.6931C65.8377 34.9907 66.1583 34.2322 66.85 33.9774C68 34.2774 69.2 35.0774 69.95 36.0274C68.75 37.4774 67.45 39.9774 68.15 41.9774C71.8 42.4274 76 44.1274 76.45 48.0774C76.804 48.0302 77.126 47.9816 77.4224 47.9368L77.4225 47.9368C79.6375 47.6025 80.4214 47.4842 82.45 49.7774C81.15 50.5274 78.8 50.5774 77.25 49.9274ZM80.1499 61.6773C73.8999 59.6773 68.3999 54.4773 67.6499 47.7773C69.3701 47.9207 70.999 49.2513 72.3183 50.3291L72.4999 50.4773C72.7999 50.7773 73.1499 51.1273 73.0999 51.5773C73.6999 53.9273 74.3999 56.3273 75.9499 58.2273C78.4815 59.2011 81.1952 59.0219 83.831 58.8478L83.8312 58.8478L83.8315 58.8478L83.8317 58.8478L83.8319 58.8478L83.8322 58.8477L83.8324 58.8477L83.8326 58.8477L83.8328 58.8477L83.8331 58.8477L83.8333 58.8477L83.8335 58.8477L83.8338 58.8477L83.834 58.8477L83.8342 58.8476L83.8344 58.8476L83.8347 58.8476L83.8349 58.8476L83.8352 58.8476L83.8353 58.8476C84.5817 58.7983 85.3219 58.7494 86.0499 58.7273C87.2999 59.2773 90.1999 60.7273 90.4499 62.0273C87.0499 62.6273 83.4999 62.7273 80.1499 61.6773ZM118.521 29.6852C120.39 31.1172 122.263 32.5514 124.75 32.6773C126.2 32.6273 127.8 32.2273 129.1 31.6273C128.5 30.5773 127.25 29.8773 126.1 29.4273C125.644 29.527 125.188 29.6632 124.73 29.8001C123.58 30.1438 122.416 30.4919 121.2 30.2773C120.361 30.2354 119.768 29.7009 119.186 29.1755L119.186 29.1751L119.185 29.1746L119.185 29.1744L119.185 29.1744L119.185 29.1744C119.073 29.0738 118.962 28.9737 118.85 28.8773C117.55 27.7773 116.05 26.9773 114.55 26.1773C111.5 24.3273 113.5 19.9773 115.65 18.1773C115.277 17.1042 113.902 16.4229 112.826 15.8897C112.749 15.8515 112.673 15.8141 112.6 15.7773C111.42 15.7773 110.583 17.7261 110.058 18.9513C109.982 19.1276 109.913 19.289 109.85 19.4273C108.55 23.1273 112.35 25.7773 115.1 27.4273C116.322 28.0014 117.421 28.8429 118.52 29.6852L118.521 29.6852ZM144.2 35.5773C143.5 35.3273 142.85 34.8273 142.3 34.2773C142.25 34.2273 142.2 34.1273 142.2 34.0273C142.7 32.7773 143.25 31.3773 142.95 30.0273C142.792 29.4759 142.511 28.9633 142.23 28.4528L142.23 28.4526C141.799 27.6671 141.37 26.8865 141.4 25.9773C141.509 24.9918 142.205 24.2195 142.884 23.4658L142.884 23.4656L142.884 23.4655C143.135 23.1868 143.384 22.9107 143.6 22.6273L143.668 22.5455C145.15 20.7682 146.756 18.841 147.15 16.4773C147.488 14.3456 146.338 13.2215 145.141 12.0511C144.569 11.492 143.986 10.9224 143.55 10.2273C143.5 10.1773 143.35 9.77734 143.45 9.77734C143.798 9.82086 144.07 10.0537 144.333 10.2782L144.334 10.2793L144.335 10.28L144.401 10.3359L144.45 10.3773C144.519 10.4464 144.54 10.5393 144.563 10.6395L144.563 10.6397L144.564 10.6398C144.574 10.6847 144.584 10.731 144.6 10.7773C144.771 11.2227 145.13 11.5508 145.484 11.874L145.484 11.8741C145.647 12.0225 145.808 12.17 145.95 12.3273C149.95 15.6273 148.85 18.7273 146.3 22.5273C145.912 23.1268 145.499 23.7014 145.079 24.2862C144.904 24.5306 144.727 24.7768 144.55 25.0273C144.486 25.1309 144.42 25.2344 144.353 25.3387C144.001 25.8894 143.634 26.4627 143.55 27.1773C143.471 28.1452 143.927 28.9626 144.386 29.7869C144.804 30.5382 145.226 31.2952 145.25 32.1773C145.3 33.3273 144.85 34.5273 144.35 35.5773H144.2ZM113.3 50.8774C114.35 53.2774 117.55 54.3274 120 54.3774C121.884 54.3425 123.718 54.0156 125.572 53.6854L125.572 53.6853C126.376 53.5422 127.184 53.3983 128 53.2774C131.85 53.0274 129.6 50.9274 127.4 50.2274C127.192 50.2085 127.227 50.3322 127.275 50.5043C127.355 50.7879 127.471 51.2029 126.6 51.3274C125.66 51.4637 124.712 51.6446 123.758 51.8265C121.214 52.3119 118.632 52.8047 116.05 52.4774C115.85 50.9274 118.7 49.3774 119.95 49.0774C121.102 48.1101 122.89 48.1188 124.415 48.1261H124.416H124.417C124.547 48.1268 124.675 48.1274 124.8 48.1274C125.05 48.1274 124.85 47.8774 124.75 47.8274C123.85 46.9274 122.6 46.4274 121.3 46.5274C118.85 46.4274 113.55 48.0274 113.3 50.8774ZM120.35 62.1774C117.85 61.7774 115.6 60.4274 113.65 58.8774C110.65 58.4774 106.7 57.6774 105.35 54.6774C105.187 52.6364 106.357 50.7287 107.445 48.9543L107.445 48.9539C107.689 48.555 107.93 48.1628 108.15 47.7774C108.45 47.1774 109 47.4774 109.45 47.7274C111.62 48.8464 111.468 49.0455 110.802 49.9155C110.486 50.3284 110.054 50.8924 109.7 51.7774C107.57 56.4569 107.697 56.4757 109.818 56.7899C110.485 56.8886 111.348 57.0165 112.4 57.3274C113.388 57.7021 114.237 58.3322 115.088 58.9645L115.089 58.9646L115.089 58.9646C115.487 59.2603 115.886 59.5565 116.3 59.8274C119.242 61.0432 121.783 59.521 124.142 58.1084C124.79 57.7201 125.425 57.34 126.05 57.0274C126.75 57.3274 129.15 58.3774 128.9 59.2274C126.55 61.1274 123.45 62.7774 120.35 62.1774ZM135.05 58.2774C136 59.7774 137.95 60.7774 139.65 61.3774C145.68 58.978 144.833 57.0171 143.93 54.9285C143.403 53.7092 142.858 52.4464 143.65 51.0274C147.811 43.9688 138.06 41.8236 130.599 40.1822C128.019 39.6145 125.712 39.107 124.35 38.4774C122.7 38.5774 127.55 41.4274 128.15 41.6274C130.484 42.6186 132.982 43.0986 135.473 43.5774L135.473 43.5774C136.878 43.8473 138.28 44.1168 139.65 44.4774C139.98 45.0632 139.612 45.944 139.293 46.7073C139.177 46.9864 139.067 47.2498 139 47.4774C137.75 49.3274 138.55 51.2274 139.6 52.9774C140.571 55.5383 137.839 56.8905 135.809 57.8947C135.54 58.0277 135.284 58.1546 135.05 58.2774ZM121.8 68.7773C120.968 68.6347 120.294 68.1642 119.628 67.6992C118.893 67.1862 118.168 66.6798 117.25 66.6273C117.047 66.5991 116.842 66.5709 116.636 66.5426C111.379 65.8188 105.42 64.9984 102.1 60.4273C101.5 59.1273 100.65 56.9273 102.95 58.3273C103.181 58.4777 103.442 58.6254 103.711 58.7778C104.606 59.2843 105.593 59.8433 105.9 60.7273C105.9 61.3273 105.95 61.9273 106.25 62.4773C107.926 63.0966 109.774 63.3576 111.635 63.6204C114.883 64.0791 118.171 64.5433 120.65 66.9273C121 67.1773 122.7 68.8273 121.8 68.7773ZM117.65 75.7274C118.65 77.2774 120.7 78.2774 122.45 78.8774C122.981 78.7957 123.537 78.7181 124.109 78.6383C129.133 77.9372 135.389 77.0643 137.05 71.6774L137.062 71.618C137.7 68.4255 137.732 68.267 134.85 66.5774C134.666 66.4988 134.435 66.3617 134.182 66.2122C133.471 65.7913 132.593 65.2716 132.15 65.6774C132.1 66.1774 132.05 66.6774 132.05 67.1774C131.799 73.1572 125.533 74.2758 120.446 75.1837C119.451 75.3614 118.501 75.531 117.65 75.7274ZM114.3 81.5274C107.85 80.9274 100.8 75.9774 101.7 68.8274C102.55 68.6274 104.7 70.1274 105.15 70.9774C104.95 73.5774 105.6 76.3274 107.5 78.2774C108.154 78.5539 108.871 78.6661 109.594 78.7793L109.594 78.7793C110.308 78.8911 111.029 79.0039 111.7 79.2774C112.15 79.4274 115.4 81.3774 114.3 81.5274ZM119.7 98.9774C119.95 99.8774 122.7 101.577 123.7 101.827C124.062 101.805 124.527 101.741 125.02 101.674L125.02 101.673L125.021 101.673L125.021 101.673C125.616 101.592 126.253 101.505 126.8 101.477C128.2 101.327 129.6 101.427 131 101.577C132.812 101.948 133.606 101.471 134.836 100.732C135.099 100.574 135.382 100.404 135.7 100.227C138.55 98.5774 141.65 96.8274 145 96.9274C145.35 97.4774 148.7 99.8774 149.15 99.3274V99.0774C149.15 98.9274 149.2 98.8274 149.25 98.7274C149.55 98.1274 150 97.5774 150.45 97.0774C153 94.1274 156.55 92.1274 160.35 91.2274C164.455 90.3019 167.232 90.9531 169.005 91.3691C170.968 91.8296 171.703 92.0018 171.65 89.4274C171.8 85.8774 172.3 82.3274 173.2 78.9274C173.65 77.3274 174.2 75.7274 175.05 74.3274C175.14 74.1167 175.267 73.9785 175.397 73.8365C175.483 73.7425 175.57 73.6468 175.65 73.5274C175.85 72.9774 172.7 71.0274 172.05 71.1274C171.877 71.1561 171.788 71.2841 171.695 71.4161C171.626 71.5137 171.556 71.6136 171.45 71.6774C171.35 71.744 171.233 71.8274 171.1 71.9274C169.2 73.1274 167.2 74.2274 165.05 74.8774C163.3 75.4274 161.35 75.5774 159.65 74.8774C159.05 74.4774 158.4 74.0774 157.75 73.8274C157.2 73.5274 156.75 73.5774 156.4 74.0774C155.95 74.5774 155.5 75.0774 155 75.5274C152.45 78.1774 147.65 82.1274 143.9 82.4274C143.808 81.9237 143.298 81.5878 142.867 81.3043C142.827 81.2783 142.788 81.2526 142.75 81.2274C142.648 81.1836 142.542 81.1272 142.432 81.0691C142.167 80.9279 141.883 80.7774 141.6 80.7774C141.132 81.1931 140.669 81.6132 140.206 82.0331L140.205 82.034L140.204 82.0349L140.203 82.0358L140.202 82.0368L140.201 82.0377L140.2 82.0386L140.199 82.0395L140.198 82.0404L140.197 82.0413L140.196 82.0423L140.195 82.0432L140.194 82.0441L140.193 82.045L140.192 82.0459C138.432 83.6417 136.675 85.2344 134.7 86.5774C132.35 88.1774 129.85 89.6274 127.2 90.6274C126.5 90.8774 125.85 91.0774 125.1 91.0274C125.067 91.0607 125.05 91.094 125.05 91.1274L125.05 91.1275C125.15 91.2274 125.25 91.3274 125.35 91.3774C125.55 91.544 125.75 91.6774 125.95 91.7774C126.357 91.9403 126.798 91.8378 127.217 91.7401C127.313 91.7179 127.407 91.6959 127.5 91.6774C128.75 91.3774 129.9 90.8774 131.05 90.3274C135.3 88.4274 139.2 85.7274 142.8 82.8274C142.833 82.7607 142.85 82.744 142.85 82.7774C143.55 83.2774 144.25 83.7274 145.05 83.8774C146.75 84.2774 148.4 83.5774 149.9 82.9274C153.6 81.1774 156.8 78.5774 159.75 75.7774C162.75 77.7274 166 77.9774 169.3 76.7774C168.4 79.9774 167.9 83.2274 167.65 86.5274C167.526 89.1365 167.401 89.1042 165.857 88.7037C165.536 88.6207 165.155 88.5218 164.7 88.4274C158.3 86.9774 151.2 89.0774 146.7 93.8274C146.25 94.3274 145.8 94.8274 145.4 95.4274C145.367 95.4607 145.333 95.4607 145.3 95.4274C144.45 94.9274 143.6 94.5274 142.65 94.2774C138.618 93.3437 134.91 95.4 131.435 97.3274C130.816 97.6707 130.205 98.0099 129.6 98.3274C128.871 98.8417 127.996 98.7314 127.162 98.6265L127.162 98.6264C127.023 98.609 126.886 98.5916 126.75 98.5774C124.65 98.3274 122.55 98.4274 120.45 98.7274L119.95 98.8274C119.937 98.8337 119.924 98.8392 119.91 98.8442L119.894 98.8498L119.874 98.8562L119.849 98.8639C119.771 98.8869 119.7 98.9083 119.7 98.9774ZM60.75 84.8774C59.0476 84.3326 57.7394 83.1387 56.4464 81.9587C55.8406 81.4058 55.2381 80.856 54.6 80.3774C53.597 79.7987 52.4451 79.726 51.3051 79.6541L51.3049 79.6541L51.3047 79.6541H51.3046C50.9673 79.6328 50.6311 79.6116 50.3 79.5774C47.65 78.7774 46 76.5274 45.05 74.0774L44.938 73.8563C43.125 70.2783 41.2945 66.6658 38.6 63.6774C38.3686 63.3013 37.9697 63.193 37.5584 63.0814C37.2589 63.0001 36.9529 62.917 36.7 62.7274C35.75 62.3774 31.65 59.1774 34.9 60.0274C38.0063 57.1317 34.3075 53.3905 31.0714 50.1174C28.161 47.1737 25.6249 44.6085 28.75 43.3774C30.3104 43.1504 31.8546 43.4064 33.3918 43.6611C34.5639 43.8554 35.732 44.049 36.9 44.0274C37.7253 44.0806 38.5222 43.8787 39.3133 43.6783C40.0082 43.5023 40.6986 43.3274 41.4 43.3274C44.7 44.4774 46.1 46.5774 46.05 50.0274C46.5413 54.6947 47.6119 55.4759 48.6629 56.2429C49.7512 57.037 50.8185 57.8158 51.2 62.8774C51.6104 66.2116 52.9943 67.0461 54.4745 67.9387C55.8799 68.7862 57.3721 69.686 58.2 72.8274C58.7 74.1774 59.65 75.2274 60.65 76.2274C60.6569 76.2411 60.6647 76.2558 60.6728 76.271C60.7237 76.3667 60.7863 76.4842 60.7 76.5274C57.1 75.6774 54.65 71.9274 53.55 68.5774C48.3 65.9274 47.2 61.8774 46.65 56.4774C44.15 54.3774 43.05 52.8774 42.5 49.5274C42.3095 48.6224 42.2097 47.6721 42.1143 46.7628L42.1 46.6274C40.4589 46.9829 38.8028 46.74 37.14 46.4961C35.7631 46.2941 34.3816 46.0915 33 46.2274C31.6 46.2274 30.95 48.2774 32.1 49.0774C32.8289 49.9034 33.6552 50.7177 34.4957 51.546C37.1146 54.1268 39.8715 56.8436 40.25 60.4774C40.2 61.1774 39.95 61.9274 39.5 62.5274C39.4384 62.6013 39.389 62.6449 39.3561 62.6738C39.3268 62.6996 39.3108 62.7137 39.3112 62.7274C39.3117 62.7439 39.3363 62.7597 39.3906 62.7946L39.3907 62.7946L39.3907 62.7946C39.4453 62.8296 39.5298 62.8839 39.65 62.9774C43.5 66.0274 46 70.3774 48.1 74.7274C48.2919 75.1259 48.4413 75.4547 48.5657 75.7286L48.5658 75.7288C48.8657 76.3888 49.0207 76.7299 49.276 76.9589C49.549 77.2038 49.9367 77.3208 50.7388 77.5628C50.9842 77.6369 51.2684 77.7227 51.6 77.8274C54.1786 78.7895 56.2536 80.5515 58.3038 82.2925C58.9171 82.8133 59.5283 83.3323 60.15 83.8274C60.1939 83.8712 60.2623 83.9319 60.3415 84.0023C60.7144 84.3333 61.3273 84.8774 60.75 84.8774ZM91.3999 11.7274C92.2999 14.9274 96.7499 16.1274 99.7499 16.1774C105.6 16.4274 98.3999 12.8774 99.5499 14.1274C98.5018 14.7388 97.0341 14.5492 95.8131 14.3914L95.8129 14.3914L95.8128 14.3914L95.8121 14.3913C95.6355 14.3685 95.4641 14.3463 95.2999 14.3274C91.0499 13.3774 97.6999 10.4274 99.1999 10.1774C99.3268 10.0759 99.7371 10.0903 100.097 10.103C100.447 10.1152 100.749 10.1259 100.7 10.0274C100.1 9.32739 99.1999 8.72739 98.2499 8.57739C96.2999 8.57739 92.2499 9.82739 91.3999 11.7274ZM77.2501 16.5274C75.4501 18.6774 79.6001 21.7774 81.4001 22.5774C81.6855 22.514 81.3375 22.1842 80.8295 21.7027C79.7354 20.6656 77.8988 18.925 80.0501 17.6274C80.1201 17.6719 80.1999 17.7262 80.2852 17.7843C80.8695 18.182 81.7119 18.7555 81.4501 17.5774C80.7501 16.1274 78.5501 15.2274 77.2501 16.5274ZM157.5 46.7256L157.499 46.7253C154.979 45.4061 152.096 43.8965 150.9 41.3273C150.85 37.8773 156 37.9273 158.1 39.5273C158.4 39.6773 161.1 41.5273 159.9 41.3273C159.575 41.2576 159.303 41.0797 159.035 40.9044C158.727 40.7026 158.425 40.5041 158.05 40.4773C156.45 40.2273 153.95 41.1773 154 43.0773C153.794 43.6946 155.335 44.6557 156.696 45.5049C157.981 46.3067 159.106 47.0088 158.45 47.2273C158.142 47.062 157.824 46.8954 157.5 46.7256ZM164.75 53.9274C165.65 55.4274 167.5 56.3774 169.1 57.0274C173.75 56.5274 178.3 51.9774 176.1 47.1274C175.694 45.9667 174.85 45.1597 174.008 44.3545L174.008 44.3544C173.399 43.7721 172.791 43.1908 172.35 42.4774C171.677 41.0417 171.537 39.4552 171.398 37.8757C171.228 35.9345 171.058 34.0039 169.9 32.3774C165.2 26.4274 159.75 27.3274 153.6 30.4274C153.375 30.5559 153.129 30.669 152.881 30.7831C152.358 31.0242 151.823 31.2702 151.45 31.6774C152.05 33.0274 155.05 35.0774 156.6 35.1274C159.35 33.2274 162.65 31.9274 165.95 31.3774C166.262 32.4756 166.41 33.6575 166.559 34.8433V34.8435L166.559 34.8437L166.559 34.8439L166.559 34.8441L166.56 34.8443C166.913 37.6534 167.269 40.4844 169.8 42.2774C173.5 45.0274 172.1 51.0274 168.05 52.6774C167.499 53.0079 166.857 53.2019 166.224 53.3931C165.709 53.5489 165.199 53.7028 164.75 53.9274ZM166.6 60.5274C165.852 60.3638 165.235 59.9051 164.627 59.4529C163.934 58.9376 163.252 58.4306 162.4 58.3774C160.918 58.2668 159.446 58.5671 157.975 58.8672C156.121 59.2455 154.268 59.6235 152.4 59.1774C150.1 58.4274 147.75 56.8774 147.25 54.3774C141.6 51.4774 149.45 51.3774 150.6 57.3274C152.058 57.4425 153.561 57.1158 155.068 56.7882C157.488 56.262 159.92 55.7332 162.2 57.0274C162.85 57.2774 167.7 60.2774 166.6 60.5274ZM66.5501 71.4273C65.7501 74.5773 71.7501 77.6773 74.3501 78.2773C77.1689 78.9301 79.9877 78.4736 82.817 78.0153C84.7553 77.7014 86.6986 77.3867 88.6501 77.4273C90.3501 76.3273 89.6001 73.5773 88.7501 72.1273C88.2001 71.5273 86.8001 70.1773 86.0001 70.3773C86.5501 71.7273 87.5501 74.7773 85.4501 75.1773C84.5802 74.9766 83.6879 75.134 82.8032 75.2902C82.3658 75.3674 81.9302 75.4442 81.5001 75.4773C80.021 75.5184 78.6094 75.7283 77.1821 75.9406L77.1818 75.9406C76.8723 75.9866 76.562 76.0328 76.2501 76.0773C76.0774 76.0701 75.8177 76.0712 75.5016 76.0726H75.5016C73.6211 76.0804 69.7437 76.0967 70.3001 74.4273C70.9001 72.3273 76.4001 71.2273 78.3001 71.8273C78.3636 71.867 78.4473 71.9244 78.5448 71.9911L78.5454 71.9916C79.0618 72.3455 79.9638 72.9637 80.3001 72.6273C79.3501 70.9773 77.3501 69.8773 75.6001 69.1773C72.9001 68.3773 68.3501 69.0773 66.5501 71.4273ZM88.45 88.4273C87.0605 88.4569 85.8632 87.8746 84.6619 87.2903C83.8315 86.8865 82.9992 86.4817 82.1 86.2773C80.8934 86.2077 79.7945 86.7088 78.6933 87.211C77.4217 87.7908 76.147 88.3721 74.7 88.0773C71.6903 87.513 69.9633 84.8256 68.3957 82.3864C68.2966 82.2322 68.1981 82.0789 68.1 81.9273C68.05 81.8773 67.75 81.5273 68.05 81.5773C69.2413 82.1247 69.8936 83.2111 70.5408 84.2893C70.8986 84.8853 71.255 85.4789 71.7 85.9773C73.4653 87.0365 75.0748 86.2432 76.7016 85.4414C77.8395 84.8806 78.9859 84.3156 80.2 84.3773C81.0981 84.5134 81.8925 84.9161 82.688 85.3194C83.354 85.657 84.0209 85.995 84.75 86.1773C89.05 87.3273 93.45 83.8773 93.6 79.4773C93.6 78.7866 94.2336 79.2513 94.5998 79.5199C94.6578 79.5624 94.709 79.6 94.75 79.6273C96.25 80.7273 96.5 81.1773 95.9 82.9773C95.35 86.4273 91.8 88.5273 88.45 88.4273ZM88.1924 96.9974C89.1907 98.6758 90.182 100.342 91.9 101.427C97.15 106.077 103 102.027 104.4 96.0773C104.43 95.9367 104.472 95.792 104.515 95.6462C104.684 95.066 104.859 94.4668 104.3 94.0273C104.265 93.9925 104.23 93.9571 104.195 93.9212L104.128 93.8535L104.036 93.7605C103.236 92.9461 102.274 91.9672 101.15 91.8773C100.4 95.8773 97.65 101.077 92.9 100.627C92.35 100.627 92.05 100.277 91.8 99.7773C89.95 95.9773 86.9 92.6273 82.95 90.9273L82.9101 90.9157L82.8601 90.9009C82.3614 90.7532 80.7803 90.2846 81.2 91.0773C82 92.1273 83.1 93.0773 84.3 93.5273C84.85 93.4773 85.55 93.4273 86 93.8273C86.8738 94.7806 87.5346 95.8916 88.1924 96.9974ZM80.3 105.377C75.3 104.727 70.25 101.777 67.8 97.2774C67.1 95.4774 66.8501 93.0274 67.4001 91.2274C68.9501 91.6274 70.25 92.8774 71.3 94.0274C71.55 94.2274 71.6 94.5774 71.5 94.9274C71.4869 95.1906 71.4685 95.4607 71.4499 95.7351L71.4498 95.7356C71.3268 97.5464 71.191 99.5447 72.45 100.977C75.6 102.527 79.3 102.477 82.75 102.427C84.85 101.977 86.55 103.427 87.9001 104.877C88.05 105.077 88.3 105.577 87.8 105.527C85.3 105.677 82.8 105.677 80.3 105.377ZM78.1424 132.556C78.9262 131.726 79.7331 130.919 80.5603 130.134C80.9023 129.33 81.2169 128.511 81.4999 127.677C83.4499 122.627 83.5 117.127 82.55 111.827C82.5391 111.697 82.5022 111.524 82.4634 111.342C82.3241 110.688 82.161 109.923 83.0999 110.627C84.0499 111.177 84.7 111.927 84.65 113.077C85.3 117.027 85.85 121.027 85.3 124.977C85.2566 125.376 85.205 125.773 85.1455 126.167C85.4853 125.898 85.8274 125.632 86.1715 125.369C87.316 124.154 88.3671 122.861 89.2499 121.427C90.8499 118.177 91.8 114.227 91.3 110.627C91.25 110.027 92.7499 111.427 92.7499 111.677C93.2104 115.677 92.75 118.784 91.7038 121.387C96.8126 117.756 101.969 113.948 104.95 108.327C106.4 105.627 107.1 102.577 107.7 99.6774C108.6 99.9774 109.75 100.777 110.05 101.727C109.7 104.027 109.1 106.277 108.35 108.477C105.772 115.782 99.7831 120.599 93.873 125.353C91.5306 127.238 89.2004 129.112 87.1 131.127C85.6484 132.506 84.2437 133.954 82.9039 135.466C84.4657 134.404 85.8221 133.607 86.4501 133.327L86.7087 133.207C91.7352 130.866 98.5323 127.7 103.3 131.927C105 133.327 106.95 135.127 106.95 137.477C105.765 145.952 87.2661 148.912 77.3923 149.338C77.4389 149.432 77.4852 149.527 77.5314 149.622C77.5732 149.707 77.6149 149.793 77.6566 149.879C78.2769 151.154 78.9111 152.458 79.9999 153.527C85.2139 156.028 90.7952 153.341 96.3394 150.672C102.545 147.685 108.704 144.72 114.25 149.077C116.334 150.633 117.867 152.246 119.286 153.74C122.429 157.049 125.014 159.771 131.8 159.977C139.3 160.277 146.75 156.377 150.6 149.927C151.341 148.924 153.718 151.116 154.811 152.124L154.812 152.125C154.972 152.272 155.104 152.394 155.2 152.477L155.312 152.584C157.464 154.64 157.865 155.022 155.8 157.627C149.85 166.277 137 167.627 128.2 162.827C123.25 160.177 119 156.327 115.4 152.077C111.028 151.187 106.257 153.204 101.456 155.233C97.0881 157.08 92.6942 158.937 88.55 158.627C83.0899 158.064 78.3059 154.421 75.2395 149.944C75.193 150.102 75.146 150.268 75.0983 150.436L75.0982 150.436L75.0981 150.436C75.0605 150.568 75.0227 150.702 74.9843 150.834C75.303 154.841 76.7312 158.692 78.1278 162.457C78.2356 162.748 78.3432 163.038 78.4501 163.327C78.6001 163.527 78.8501 164.177 78.3501 163.977C75.5501 162.827 73.9001 160.327 73.3001 157.427C72.8255 156.02 72.4151 154.58 72.1041 153.12C70.912 156.428 70.1114 159.874 69.8 163.427C69.7 163.461 69.5999 163.461 69.4999 163.427C68.0999 162.827 65.25 161.127 65.3 159.427C65.3071 158.3 65.3886 157.187 65.5361 156.088C64.6241 155.489 63.7975 154.691 63.3501 153.727C63.9056 152.616 64.4885 151.533 65.0786 150.436L65.0788 150.436C65.2853 150.052 65.4927 149.666 65.7001 149.277C65.7886 149.118 65.8764 148.958 65.9633 148.797C64.3348 149.27 62.7779 150.191 61.5 151.227C60.6003 151.939 59.697 152.696 58.7821 153.463L58.7816 153.464C53.8495 157.598 48.5824 162.013 41.75 161.127C39 160.777 36.45 159.477 34.1 158.077C33.9918 158.012 33.886 157.943 33.78 157.873C33.396 157.621 33.0094 157.367 32.5 157.327C30.0667 157.061 27.7667 157.905 25.4667 158.75C24.3167 159.172 23.1667 159.594 22 159.877C15.5 162.027 10.4 159.277 5.55 155.027C2.75 152.527 0.85 148.877 0.75 145.127C2.55 145.077 5.89999 147.477 7.09999 148.827C7.37135 149.537 7.55557 150.273 7.73995 151.009C7.99724 152.037 8.25485 153.066 8.75 154.027C8.86642 154.208 8.98284 154.456 9.10792 154.723C9.4663 155.487 9.89577 156.401 10.6 156.327C13.4887 156.468 16.1571 155.522 18.8259 154.577L18.8261 154.577C20.9152 153.837 23.0046 153.097 25.2 152.877C27.7384 152.734 29.9188 153.946 32.0705 155.142C32.9279 155.619 33.7808 156.093 34.65 156.477C36.75 156.927 39 156.727 41.1 156.377C45.0838 155.626 48.4398 153.405 51.7909 151.188C54.8565 149.159 57.918 147.133 61.4522 146.238C56.8525 145.052 52.5218 143.199 48.9999 139.677C45.5999 136.677 41.0999 131.227 44.1999 126.677C50.165 122.558 63.865 132.987 69.1456 140.262C69.5928 137.827 69.6033 135.338 68.9501 132.877C68.1328 129.408 66.6622 126.091 65.1952 122.781C62.6238 116.98 60.0632 111.204 61.0501 104.677C61.173 103.449 61.2527 102.177 61.3326 100.903C61.4802 98.5484 61.6283 96.1865 62.0501 94.0774C63.1001 94.5774 63.8001 95.0774 63.4501 96.3274C63.3871 97.6811 63.2867 99.0481 63.1858 100.421C62.8061 105.591 62.4198 110.85 64.0001 115.827C65.4074 119.355 66.7822 122.328 68.0051 124.971C70.5826 130.543 72.485 134.656 72.5937 139.439C72.7244 139.248 72.8559 139.058 72.9883 138.869C73.3491 137.676 73.7397 136.505 74.1262 135.346L74.1267 135.344L74.127 135.343C76.2999 128.827 78.341 122.706 74.2001 115.477C74.1376 115.243 73.7338 114.487 73.2506 113.583L73.2506 113.582C72.1865 111.59 70.7373 108.877 71.7001 109.427C72.4001 109.877 73.2001 110.477 73.4501 111.327C74.011 112.666 74.6898 113.966 75.3703 115.269C76.5703 117.567 77.7758 119.875 78.3501 122.427C79.2373 125.868 78.8918 129.222 78.1424 132.556ZM78.2603 143.784L77.9269 144.419C84.1536 143.71 90.412 142.505 96.1501 139.927C98.7501 138.677 101.9 136.827 102.3 133.627C101.377 133.295 100.018 133.454 98.7663 133.599C98.3227 133.651 97.8926 133.701 97.5001 133.727C91.0442 134.901 83.4061 137.787 78.7819 142.79C78.6082 143.122 78.4342 143.453 78.2603 143.784ZM53.1499 131.177C49.3499 131.227 49.3999 136.177 50.8499 138.627C53.1511 140.746 58.8946 141.477 63.5382 142.068C65.2511 142.286 66.8143 142.485 67.9999 142.727C66.0499 136.527 59.6999 131.327 53.1499 131.177ZM52.0001 103.227C49.8001 102.677 47.8501 101.427 46.2001 99.8773C43.5501 97.8773 45.3501 95.5773 47.7001 94.4273C47.7963 94.3311 48.137 94.22 48.4969 94.1027C49.072 93.9153 49.6962 93.7118 49.4501 93.5273C49.1052 93.0099 48.595 92.4595 48.0598 91.882C46.7328 90.4502 45.2513 88.8518 45.7501 87.1773C46.5501 85.8273 48.3501 85.1273 49.9001 85.2773C51.8501 85.4273 55.4001 87.4773 56.0501 89.2773C55.4587 89.2773 54.8946 88.8674 54.378 88.4921C54.1959 88.3597 54.0196 88.2316 53.8501 88.1273C52.2501 87.7273 50.4001 88.6773 49.7501 90.1773C49.4696 91.3836 50.7316 92.7158 51.9288 93.9797C52.8654 94.9684 53.7623 95.9153 53.8501 96.7273C53.6644 96.9873 53.3408 97.0817 53.0227 97.1746C52.9125 97.2068 52.803 97.2387 52.7001 97.2773C51.6001 97.7273 50.5501 98.4273 49.8501 99.3273C49.8045 99.4072 49.7353 99.5002 49.6654 99.5942L49.6653 99.5943C49.4289 99.9123 49.1828 100.243 49.8001 100.127C51.0436 100.086 51.865 99.9482 52.487 99.8437C54.141 99.5657 54.3843 99.5248 57.4001 102.177L57.4439 102.221C57.6738 102.447 58.1708 102.937 57.7501 103.077C55.9001 103.627 53.9001 103.727 52.0001 103.227ZM106.45 124.677C107.2 126.277 108.95 127.527 110.55 128.277C111.8 128.027 112.55 126.327 112.9 125.177C113.091 124.548 113.107 123.839 113.123 123.125C113.15 121.966 113.176 120.794 113.95 119.927C114.493 119.792 115.081 120.024 115.654 120.25C115.925 120.357 116.193 120.463 116.45 120.527C117.9 121.027 119.35 121.527 120.85 121.827C124.05 122.527 128.1 122.377 130.1 119.427C130.5 118.827 130.9 118.027 130.55 117.277C129.55 115.827 127.95 114.227 126.1 114.077C126.451 112.998 126.984 112.057 127.468 111.202C128.777 108.889 129.729 107.208 125.75 105.127C124.87 104.881 123.965 105.155 123.07 105.426C122.694 105.54 122.32 105.653 121.95 105.727C121.137 105.935 120.323 106.193 119.508 106.452L119.508 106.452L119.508 106.452L119.508 106.452L119.507 106.452L119.507 106.452L119.507 106.452L119.507 106.452L119.507 106.452L119.506 106.452L119.506 106.452L119.506 106.452L119.506 106.452C117.766 107.005 116.02 107.559 114.25 107.627C114.1 107.777 114.5 108.177 114.6 108.277C114.933 108.611 115.3 108.927 115.7 109.227C116.476 109.799 117.452 109.57 118.356 109.358C118.559 109.311 118.758 109.264 118.95 109.227C120.155 108.98 121.36 108.695 122.576 108.407L122.576 108.407L122.578 108.406L122.579 108.406L122.58 108.406C123.331 108.228 124.087 108.049 124.85 107.877C124.9 107.877 124.8 107.977 124.75 108.027L124.75 108.027C124.53 108.454 124.206 108.917 123.868 109.401L123.868 109.401C122.819 110.901 121.627 112.603 122.95 114.077C123.85 115.077 124.95 116.027 126.2 116.627C126.367 116.661 126.383 116.727 126.25 116.827C123.35 119.877 118.6 118.927 115.05 117.777C114.619 117.718 113.995 117.451 113.311 117.16C111.692 116.469 109.742 115.636 109.25 117.077C108.965 117.889 108.92 118.757 108.876 119.625C108.819 120.736 108.761 121.845 108.2 122.827C107.911 123.489 107.348 123.945 106.795 124.394L106.794 124.394C106.678 124.488 106.563 124.582 106.45 124.677ZM57.4001 121.127C55.4501 120.227 52.85 118.477 53.9 116.027C51.8 115.677 49.8 114.377 48.7 112.577C48.3302 111.191 49.6271 109.975 50.6152 109.049C50.6672 109 50.7183 108.952 50.7682 108.905L50.85 108.827C51.4 108.227 52.1 108.677 52.65 109.077C52.95 109.277 54.6 110.477 54.15 110.827C53.072 111.156 52.3894 112.406 51.8551 113.385L51.7873 113.509L51.75 113.577C51.6888 113.7 52.0397 113.729 52.3671 113.755C52.5745 113.772 52.7725 113.789 52.85 113.827C54.55 114.027 56.25 115.327 56.95 116.877C57.05 117.327 57 117.777 56.95 118.227C56.95 118.261 56.9445 118.283 56.9408 118.298C56.9334 118.327 56.9334 118.327 57 118.327C57.1925 118.292 57.385 118.215 57.5775 118.137C57.935 117.992 58.2926 117.847 58.6501 117.977C59.8001 118.527 61 119.427 61.7 120.527C61.65 121.127 58.0001 121.477 57.4001 121.127ZM66.3999 109.627C66.7499 110.377 67.5999 110.877 68.3499 111.227L68.5744 110.959C69.8992 109.376 70.4067 108.77 71.0038 108.663C71.3746 108.596 71.7799 108.722 72.4369 108.926C72.9791 109.095 73.6928 109.317 74.6999 109.527C76.2999 109.677 77.9499 108.927 78.8499 107.627C78.3999 106.677 77.2999 106.027 76.3999 105.577C76.1499 105.427 75.8499 105.327 75.7499 105.677C74.0999 108.077 71.7999 107.577 69.3999 106.777C68.1613 106.622 67.492 107.786 66.9049 108.807L66.9049 108.807L66.9046 108.807L66.9044 108.808L66.9041 108.808C66.7331 109.105 66.569 109.391 66.3999 109.627ZM114.9 98.3774C113.05 97.9274 111.5 96.4773 110.25 95.0274C109.642 94.384 109.546 93.5362 109.449 92.685C109.41 92.3454 109.371 92.0053 109.3 91.6773C109.147 90.888 108.566 90.358 107.98 89.8231C107.416 89.3078 106.846 88.788 106.65 88.0274C106.55 86.1774 109.2 85.1774 110.75 85.2774C112 85.4773 113.1 86.3773 114.05 87.2273C114.35 87.4773 116.45 89.5774 114.95 89.0774C113.6 88.2274 111.9 89.6773 111.05 90.7273C110.903 90.9965 111.379 91.4933 111.933 92.0711C112.51 92.6738 113.172 93.3647 113.3 93.9773C114.55 93.8273 116.85 96.0274 117.45 97.1274C117.45 97.6774 115.5 98.4274 114.9 98.3774ZM152.4 66.1774C153.3 67.2274 154.45 68.1774 155.75 68.6774C157.376 69.0228 158.638 68.3938 159.943 67.7434C161.849 66.7935 163.846 65.7982 167.2 67.7274C167.45 67.8774 167.7 67.8274 167.5 67.5274C165.35 64.7274 161.2 63.4774 158 65.1274C157.69 65.2952 157.384 65.4897 157.075 65.6859C156.186 66.2496 155.276 66.8274 154.2 66.8274C153.859 66.5899 153.522 66.2818 153.173 65.9635C152.348 65.2095 151.46 64.3977 150.3 64.3274C148.75 64.3274 147.55 65.6274 146.8 66.8774C146.75 67.5274 148.25 68.4774 148.85 68.6774C149.65 67.4774 150.85 66.1774 152.4 66.1774ZM153.5 24.1774C152.4 23.7274 151.1 23.0274 150.55 21.9774C150.708 21.8417 150.918 21.7264 151.132 21.6085C151.392 21.4657 151.658 21.3191 151.85 21.1274C152.457 20.7054 152.702 20.0468 152.944 19.394C153.162 18.8092 153.378 18.229 153.85 17.8274C155.7 17.2274 158 19.2774 159 20.6274C160.289 23.4808 157.722 21.3779 156.721 20.5573L156.721 20.5572L156.602 20.4598C156.564 20.4292 156.53 20.4016 156.5 20.3774C155.95 21.9274 155.25 23.8274 153.5 24.1774ZM61.2501 78.9274C61.1001 81.6274 63.5501 83.9274 66.0001 84.7274C66.497 84.7629 66.0617 84.3449 65.7315 84.0278C65.5965 83.8982 65.4791 83.7854 65.4501 83.7274C63.4119 81.1633 64.1835 79.6582 64.9512 78.1606C65.3512 77.3804 65.7501 76.6022 65.7501 75.6774C65.5165 74.5995 64.9409 73.9863 64.4684 73.4831C63.6259 72.5857 63.1115 72.0378 65.4501 69.8274C64.8001 69.1274 63.8001 68.4274 62.8501 68.3274C61.9001 68.9274 60.7001 70.2774 61.3001 71.4774C61.4748 71.7285 61.6852 71.9795 61.8991 72.2348C62.6649 73.1486 63.4754 74.1158 62.8501 75.3274C62.7178 75.5613 62.5773 75.7932 62.4366 76.0255L62.4364 76.0257C61.8852 76.9354 61.3297 77.8521 61.2501 78.9274ZM69.9499 64.1773C69.0499 63.8773 67.9499 63.3774 67.3999 62.5774C67.933 61.3883 69.2394 61.3088 70.4368 61.236H70.4369C70.6996 61.22 70.957 61.2043 71.1999 61.1773C72.5499 60.8773 73.8499 61.8774 74.7499 62.7774C74.8194 62.9511 74.1402 62.9558 73.6355 62.9593C73.414 62.9608 73.2262 62.9621 73.1499 62.9774L73.1072 62.9794C72.0636 63.0289 70.7425 63.0916 70.1999 64.1274C70.1499 64.2274 70.0499 64.2273 69.9499 64.1773ZM94.0999 60.9274C93.9999 63.2774 97.6999 64.7274 99.5999 65.1774C100.7 65.1774 97.5999 63.2774 97.2999 63.2774C97.3477 62.3697 97.6287 61.6447 97.8766 61.0053C98.407 59.6369 98.7853 58.6608 96.3999 57.1274C96.2661 57.027 96.1174 56.9391 95.9709 56.8525C95.4607 56.5509 94.978 56.2655 95.2499 55.5274C95.7499 54.3274 96.6499 53.0774 97.7499 52.2774C97.8999 52.2274 97.8499 52.1274 97.7499 52.0274C96.9499 51.2774 95.8999 50.4774 94.7999 50.3774C93.7499 51.0274 91.4499 53.3774 92.0999 54.6774C92.369 55.3133 93.0688 55.7578 93.7252 56.1748C94.4107 56.6102 95.0488 57.0155 95.0999 57.5774C95.1544 58.2311 94.8824 58.8106 94.6074 59.3968C94.3775 59.8866 94.1454 60.3811 94.0999 60.9274ZM63.4001 64.8274C62.2573 64.3904 62.1087 63.6372 61.9366 62.765C61.8526 62.3398 61.7631 61.8863 61.5501 61.4274C61.0001 60.0274 60.2501 58.6774 59.4501 57.3774C58.9985 56.6179 58.5132 55.8753 58.0254 55.1288L58.0253 55.1287L58.0248 55.1279L58.0246 55.1277L58.0246 55.1276C57.3243 54.056 56.6188 52.9764 56.0001 51.8274C54.1188 48.2009 54.6932 45.6429 55.264 43.1009C55.9524 40.0353 56.6355 36.9929 53.0001 32.1274C52.3501 31.3274 53.3001 31.6774 53.6501 31.9274C55.1001 32.6774 56.2001 33.9774 57.0501 35.3274C60.2007 40.0533 59.31 42.9458 58.4262 45.8157C57.5709 48.5934 56.722 51.35 59.5501 55.7274C59.7866 56.1452 60.0455 56.5843 60.3137 57.039L60.3148 57.0409L60.3149 57.041C61.7471 59.4692 63.4422 62.3433 63.4001 64.8274ZM43.1501 20.7274C44.3001 24.2774 48.4501 28.0274 51.7001 29.7774C52.7009 29.7373 50.3679 27.9021 49.2443 27.0182L49.2442 27.0182C48.9646 26.7982 48.7598 26.6372 48.7001 26.5774C47.7501 25.7274 47.1001 24.6774 46.6001 23.5774C45.7501 21.9774 45.8001 19.8774 47.3001 18.6774C48.5001 17.6274 49.5001 17.8774 50.4001 19.0774C52.5001 21.4774 52.7501 24.7274 52.7501 27.7774C52.5501 28.1774 55.1001 30.2774 55.0001 29.4274C55.5001 23.6774 53.9501 20.5274 49.3501 17.1274C49.2691 17.0685 49.1868 17.008 49.1032 16.9466L49.1027 16.9462C48.0502 16.1725 46.7895 15.2458 45.4001 15.4774C43.2001 16.1274 42.2001 18.6774 43.1501 20.7274ZM57.6 31.4774C56.95 31.2274 56.35 30.7274 55.85 30.1274C55.8 30.0774 55.75 29.9774 55.75 29.8774C55.884 29.7182 56.0209 29.5577 56.1591 29.3955C56.846 28.5895 57.5673 27.7431 58.15 26.8274C58.2678 26.6949 58.4419 26.3846 58.6456 26.0218C59.1337 25.1522 59.7914 23.9804 60.25 24.2274C61.1 24.6274 61.85 25.3274 62.4 26.0774C63.05 27.0774 63.35 28.3274 63.4 29.4774C63.35 29.4774 63.25 29.4774 63.2 29.4274C62.7 29.1774 62.25 28.8274 61.9 28.4274C61.6784 28.1227 61.6256 27.7413 61.5716 27.3512C61.5281 27.0371 61.4838 26.7173 61.35 26.4274C60.55 28.0774 59.55 29.5774 58.25 30.8774C58.1782 30.9312 58.1129 31.0237 58.0447 31.1201C57.923 31.2924 57.7923 31.4774 57.6 31.4774ZM44.1999 33.2274C45.5499 34.7774 47.2499 36.1774 49.2499 36.7774C49.7444 36.8223 48.865 35.9783 48.5732 35.6983C48.5405 35.6669 48.5151 35.6425 48.4999 35.6274C48.0999 35.2274 47.5999 34.9274 47.0499 34.7774C47.0304 34.7695 47.0107 34.7617 46.9911 34.7539C46.5074 34.5612 45.9921 34.3559 45.7999 33.8274C45.1884 32.3859 47.7823 32.8143 48.9811 33.0123C49.1546 33.0409 49.2988 33.0647 49.3999 33.0774C49.6588 33.1144 49.9109 33.1582 50.1586 33.2013C50.5807 33.2746 50.9903 33.3459 51.3999 33.3774C51.6499 33.3774 51.4499 33.0774 51.3499 32.9274C50.7499 32.1774 49.9999 31.4774 49.0999 31.0774C48.5999 31.0774 48.1 30.9774 47.6 30.8774L47.5999 30.8774C45.4999 30.4774 41.5499 30.0774 44.1999 33.2274Z" fill="black"/>
</svg>
