<svg width="89" height="99" viewBox="0 0 89 99" fill="none" xmlns="http://www.w3.org/2000/svg">
<path fill-rule="evenodd" clip-rule="evenodd" d="M26.3678 7.89877C25.2868 7.56977 24.471 6.79899 23.671 6.04323L23.5178 5.89877C22.8383 5.4022 22.1315 4.78269 21.4473 4.18304C20.8226 3.63547 20.2167 3.10446 19.6678 2.69875C19.4864 2.92547 19.377 3.6148 19.2697 4.29128C19.1402 5.10668 19.0138 5.9034 18.7678 5.84875C15.9583 4.66348 16.1165 4.05635 16.6707 1.92933C16.7477 1.63371 16.8324 1.30873 16.9178 0.948754C17.4308 -1.02979 20.0917 1.6366 21.9099 3.45859C22.5729 4.12296 23.1239 4.67506 23.4178 4.84875C23.5125 4.957 23.827 5.21539 24.2204 5.5387C25.2807 6.41005 26.9149 7.75289 26.3678 7.89877ZM34.6179 11.8987C33.2679 11.3987 31.9679 10.2487 32.0179 8.69869C31.8679 6.29869 31.9679 3.7987 32.8679 1.5487C34.0179 -1.8013 37.7679 2.14871 37.7179 4.24871C39.3179 3.89871 41.8179 6.5487 42.1179 7.7987C41.2004 7.56932 40.5775 6.83484 40.0175 6.17456C39.9672 6.1152 39.9174 6.05645 39.8679 5.99871C37.9679 6.79871 35.5179 4.69871 35.5179 2.74871C34.3179 5.44871 34.1679 8.6487 34.6679 11.5487C34.7179 11.5987 34.9179 12.0487 34.6179 11.8987ZM20.3679 32.3989C22.5179 37.1989 27.6679 40.8489 32.7179 42.0489C33.3179 42.0989 32.568 41.3491 32.4179 41.199L32.4179 41.1989C31.2679 39.8989 29.6679 39.3989 28.0679 38.9989C23.1119 37.2473 23.0844 33.0496 23.0565 28.808V28.8079V28.8079V28.8078V28.8077V28.8077V28.8076V28.8075V28.8075V28.8074V28.8074V28.8073V28.8072V28.8072V28.8071C23.0518 28.085 23.047 27.3617 23.0179 26.6489C22.6679 23.8989 21.7679 21.2489 20.7679 18.6989C20.678 18.4517 20.5174 18.0754 20.3246 17.6236L20.3245 17.6234L20.3244 17.6233C19.2303 15.0599 17.0998 10.0686 20.9679 12.4489C25.1679 14.4989 28.3179 18.0489 30.4679 22.0989C30.6762 22.4786 30.8544 22.9003 31.0342 23.3258C31.5884 24.6373 32.1578 25.9847 33.6679 26.2489C31.5179 18.8989 25.1679 13.4989 18.5179 10.0989C13.7383 7.3108 16.1662 12.8662 17.3766 15.6357C17.5337 15.9951 17.6703 16.3077 17.7679 16.5489C18.8179 19.0989 19.8179 21.7489 20.0679 24.4989C20.1903 25.5803 20.1296 26.67 20.0691 27.7544C19.9814 29.3275 19.8943 30.8895 20.3679 32.3989ZM45.9178 41.7989C45.0678 41.3989 44.0678 40.6989 43.6178 39.7989C43.7705 39.6951 43.9237 39.5914 44.0772 39.4875C46.587 37.7883 49.1687 36.0404 50.8179 33.4489C52.7679 30.6989 52.9678 27.1989 52.1178 24.0489C51.1679 20.1989 49.7679 16.5489 48.3679 12.8989L48.3678 12.8989C46.1678 14.3489 44.0179 16.8988 42.2679 19.0988C39.4679 22.8488 37.8679 27.5989 38.0679 32.2489C38.3179 34.9489 39.1178 37.6489 40.4178 39.9989C41.1678 41.2989 38.9179 39.4989 38.7679 39.1489C33.0179 30.3989 36.2179 18.9489 43.7179 12.2989C43.9655 12.12 44.2774 11.8164 44.6224 11.4805L44.6224 11.4804C45.5315 10.5953 46.6705 9.4864 47.4679 9.84885C49.3595 10.6734 50.0278 12.5801 50.6594 14.3823L50.7179 14.5489C51.0147 15.3915 51.3207 16.2304 51.6264 17.0685L51.6264 17.0685C52.917 20.6068 54.2019 24.1298 54.7679 27.8488C55.7679 33.9988 50.7178 38.9489 45.9178 41.7989ZM59.1679 85.3488C54.4745 84.0192 50.6332 81.8093 47.5546 78.9673C48.6776 81.111 49.8706 83.2245 51.0473 85.3092L51.0475 85.3095C53.0186 88.8017 54.944 92.2128 56.418 95.5487C54.0509 94.5445 52.8929 92.1768 51.763 89.8665C51.3178 88.956 50.8769 88.0544 50.368 87.2487C48.9349 84.6125 47.4955 81.9638 46.1363 79.2737C48.3038 86.5791 49.8407 93.5316 48.4178 98.7489C48.3512 98.7823 48.2845 98.7823 48.2179 98.7489C45.4613 97.2266 45.5147 96.8554 45.7872 94.9608C45.8459 94.553 45.9147 94.0746 45.9679 93.4989C46.2179 89.8489 45.5178 86.2489 44.6678 82.6989C44.0788 80.2692 43.4204 77.8525 42.7412 75.4387C42.5252 77.1267 42.0025 78.7156 40.6179 79.8988C38.3679 81.7488 35.1679 81.8988 32.5679 80.7988C32.2816 80.926 32.1775 81.3161 32.0752 81.6991C32.0167 81.9182 31.9588 82.135 31.8679 82.2988C30.4179 86.5488 25.2179 87.0487 21.3179 87.0987C20.7883 87.0257 20.2186 87.0527 19.6455 87.0799C18.6495 87.1271 17.643 87.1748 16.8179 86.6987C16.7086 86.6198 16.592 86.538 16.471 86.4531C15.5956 85.8387 14.4936 85.0652 14.3179 84.0987C15.5504 83.9447 16.7926 83.8972 18.036 83.8496C19.6173 83.7892 21.2004 83.7287 22.7679 83.4487C26.1679 82.9987 28.2679 81.1487 29.2679 77.9487C29.5664 77.7995 29.9006 77.9176 30.2384 78.037C30.4665 78.1176 30.6962 78.1987 30.9178 78.1987C33.7678 78.8987 37.1179 77.9487 38.7679 75.4487C39.4266 74.4484 39.7639 73.329 39.9424 72.1661C37.0235 73.0471 33.801 72.8462 30.9178 71.8989C27.6678 70.6489 23.3679 67.9989 23.0679 64.1989C23.4179 60.9489 27.2679 59.0989 30.2679 59.3489C33.7051 59.8123 36.5755 62.0656 38.6718 64.7724C38.2022 63.5033 37.5807 62.3018 36.9603 61.1023L36.9603 61.1022C36.1156 59.4691 35.2728 57.8398 34.818 56.0489C34.818 55.9908 34.7955 55.9176 34.7737 55.8469C34.7393 55.7352 34.7068 55.6295 34.768 55.5989C35.068 55.6489 35.318 55.8489 35.518 56.0489C35.8916 56.3291 36.0132 56.7837 36.1362 57.2439C36.2108 57.5227 36.2859 57.8036 36.418 58.0489C36.9846 59.4165 37.6733 60.7308 38.3858 62.0363C37.7185 58.9848 37.379 55.8041 37.3335 52.5887C37.249 51.5936 37.2406 50.6028 37.373 49.6351C37.4194 48.489 37.5016 47.3421 37.6179 46.1988C37.3679 44.4988 42.8179 48.6988 41.9179 49.6488C41.5975 52.4774 41.4556 55.4419 41.5822 58.4092C41.7709 57.6511 41.9584 56.8969 42.118 56.1487C42.868 53.2987 43.768 50.4487 45.318 47.8987C45.368 47.7487 45.468 47.6488 45.618 47.7487C46.168 47.9487 46.718 48.2988 47.118 48.7487C47.1822 48.845 47.1228 48.9207 47.0588 49.0023C47.0231 49.0477 46.9859 49.095 46.968 49.1487C45.3859 51.9906 44.5077 55.1416 43.941 58.3601C44.4689 57.6194 45.0238 56.9533 45.5679 56.3989C47.3179 54.6489 49.6678 52.5489 52.3678 53.0489C54.9678 53.9989 57.7679 56.1988 57.8179 59.1988C57.4369 66.0084 50.2984 69.9608 44.1341 71.0128C44.3293 71.4897 44.5371 71.9606 44.758 72.4247C44.8493 72.4841 44.9518 72.527 45.068 72.5488C48.5143 73.4219 51.3272 70.9589 53.7395 68.8466L53.7399 68.8461C53.9523 68.6601 54.1617 68.4769 54.368 68.2988C56.1135 66.8442 58.8934 70.1385 60.0632 71.5248L60.168 71.6488C62.668 73.1488 65.9681 72.4988 68.4681 71.2488C68.9328 71.0767 69.3856 70.8217 69.8409 70.5652C70.7083 70.0767 71.5844 69.5833 72.568 69.6488C73.5669 69.8569 74.4272 70.5154 75.2354 71.134C75.3982 71.2586 75.5588 71.3815 75.7181 71.4988C77.7181 72.5488 80.018 71.7988 81.868 70.8988C82.2675 70.7391 82.651 70.5313 83.0345 70.3236L83.0346 70.3236L83.0347 70.3235L83.0347 70.3235L83.0348 70.3234L83.0349 70.3234L83.035 70.3233L83.0351 70.3233L83.0352 70.3232L83.0353 70.3232L83.0354 70.3232L83.0355 70.3231L83.0356 70.3231L83.0357 70.323L83.0358 70.323L83.0358 70.3229L83.0359 70.3229L83.036 70.3228L83.0361 70.3228C83.6121 70.0108 84.1881 69.6988 84.818 69.5488C86.118 70.0988 87.3681 71.1488 88.2181 72.3488C88.4854 72.7164 87.904 72.9947 87.3844 73.2433C87.1266 73.3667 86.8841 73.4827 86.7681 73.5988C85.118 74.5488 83.2681 75.4488 81.2681 75.2988C79.2681 75.1988 77.468 74.0988 75.918 72.8988C75.4909 72.6497 74.9878 72.9579 74.517 73.2464C74.3263 73.3632 74.141 73.4768 73.9681 73.5488C71.8181 74.6988 69.468 75.8488 66.918 75.7988C63.568 75.6488 60.668 73.6988 58.368 71.4488C58.2201 71.5672 58.0708 71.6873 57.9202 71.8085L57.9202 71.8085L57.9201 71.8085C55.2719 73.9395 52.2135 76.4004 48.618 75.5488C47.6176 75.3536 46.6885 74.956 45.8252 74.4372C46.838 76.1575 48.0592 77.7592 49.518 79.1988C50.7822 80.2916 52.3586 80.8885 53.9245 81.4815C56.0127 82.2722 58.0822 83.0559 59.3679 84.9988C59.5179 85.1488 59.5179 85.4988 59.1679 85.3488ZM44.7183 67.3487C45.7183 62.3987 49.5182 57.3987 54.3682 55.6987H54.4182C55.5682 61.4987 49.5683 65.7487 44.7183 67.3487ZM26.6682 68.2987C25.6182 65.5987 28.4183 63.1987 30.7183 62.3487C34.8183 60.6987 38.1683 64.3487 39.3183 67.9987C35.6183 70.3487 30.4682 70.3987 26.6682 68.2987ZM57.668 47.4487C56.468 46.9487 55.068 46.0487 54.468 44.8487C54.943 44.6737 55.468 44.5737 55.9929 44.4737L55.993 44.4737L55.9931 44.4737C56.5181 44.3737 57.043 44.2737 57.518 44.0987C62.468 42.0987 67.068 37.7487 68.418 32.4987C68.9907 29.4441 67.7411 26.4351 66.5826 23.6455L66.5819 23.644C66.527 23.5118 66.4723 23.38 66.418 23.2487C66.1575 23.3594 65.8877 23.4718 65.6115 23.5869C63.7665 24.3555 61.6336 25.2441 60.068 26.5487C59.768 26.5487 58.618 25.7487 58.768 25.4487C59.565 24.4975 60.6131 23.8767 61.6542 23.2602C62.6377 22.6777 63.615 22.0989 64.368 21.2487C64.8314 20.4483 65.6143 21.0322 66.2082 21.4751L66.2083 21.4752C66.3192 21.5579 66.4236 21.6357 66.518 21.6987C68.4609 23.2193 69.2978 25.7032 70.0835 28.0352C70.2279 28.4638 70.3705 28.8873 70.518 29.2987C73.518 36.7487 64.768 46.4987 57.668 47.4487ZM43.868 29.2488C43.718 30.0988 45.368 30.9488 46.018 31.2488C46.3293 31.2142 46.521 30.3659 46.6758 29.6808L46.6758 29.6807L46.6758 29.6807C46.7447 29.3756 46.8064 29.1028 46.868 28.9488C46.968 28.0988 45.068 26.9488 44.318 26.7488C44.2252 27.0734 44.1755 27.4626 44.1239 27.8664C44.0642 28.3333 44.002 28.8198 43.868 29.2488ZM31.668 31.6488C29.968 30.9488 27.218 28.9988 27.868 26.9988C28.868 27.1488 32.268 29.3988 31.918 30.3988C31.7876 30.5292 31.8461 30.8201 31.9006 31.091C31.9715 31.4434 32.0355 31.7619 31.668 31.6488ZM28.1436 45.7313C28.6979 46.2548 29.2565 46.7823 30.018 47.0488C30.518 47.0488 29.668 46.1488 29.368 45.8488C26.2722 42.6038 21.9799 41.9465 17.7781 41.303C16.3473 41.0839 14.927 40.8663 13.568 40.5488C9.86802 39.5988 6.76803 36.9488 4.51803 33.8988C3.56803 32.6988 2.06803 29.5988 5.01803 31.2488C5.10922 31.3 5.20932 31.3565 5.31702 31.4173C7.63039 32.7231 13.4512 36.0086 9.868 30.8488C10.718 30.9488 12.418 30.9488 12.968 29.7488C13.768 27.8988 11.168 23.5988 9.21804 23.2988C9.34912 23.6047 9.53518 23.9594 9.73512 24.3406C10.6792 26.1404 11.9325 28.5299 9.16799 29.1488C9.08049 29.1488 8.98986 29.1582 8.89924 29.1676C8.62736 29.1957 8.35549 29.2238 8.16799 28.9988C8.10999 28.9524 8.05199 28.9054 7.99383 28.8582C7.55065 28.4985 7.09841 28.1314 6.56802 27.9988C5.82484 28.2691 6.86184 29.0871 7.6745 29.7281C8.06469 30.0359 8.40316 30.3028 8.46804 30.4488C10.0852 33.3402 6.70708 31.4284 5.48936 30.7392L5.41799 30.6988C3.41799 29.3488 -1.03197 27.2488 1.51803 31.7488C5.31803 37.2488 11.318 42.2488 18.068 43.3488C18.8064 43.4527 19.5528 43.5352 20.3011 43.6179C22.7954 43.8938 25.3103 44.1719 27.618 45.2488C27.7969 45.4038 27.97 45.5674 28.1436 45.7313ZM60.818 12.3489C61.768 13.2989 62.818 14.1989 64.068 14.5989C64.818 14.6489 63.468 13.5989 63.268 13.4489C62.9778 12.7596 62.9705 12.3006 62.9645 11.9216C62.9539 11.2558 62.9473 10.8366 61.418 9.84886C60.1314 8.71365 58.7016 9.46854 57.3454 10.1846C56.9096 10.4147 56.4814 10.6408 56.068 10.7989C55.818 11.3989 58.768 13.3489 59.368 13.1989C59.5805 12.9155 59.8933 12.7075 60.1999 12.5036C60.3262 12.4196 60.4513 12.3364 60.568 12.2489C60.664 12.1848 60.6781 12.2028 60.7151 12.2503C60.736 12.2769 60.764 12.3129 60.818 12.3489ZM56.918 52.0988C55.6325 51.6119 55.0905 51.0415 54.6715 50.6005C54.0148 49.9093 53.6599 49.5358 51.218 50.2989C51.168 50.9489 48.368 48.7488 48.818 48.3488C51.368 47.4488 53.618 47.4989 55.468 49.7489C58.118 49.0989 60.768 48.6488 62.468 51.3488C62.518 51.6488 62.018 51.5489 61.818 51.4989C61.1454 51.4568 60.4729 51.6622 59.7929 51.8698C58.8552 52.156 57.9034 52.4466 56.918 52.0988ZM27.1678 54.4988C27.7178 55.1988 28.4678 55.7988 29.2678 56.1988C30.9468 56.8341 32.461 55.4103 33.661 54.282C33.7832 54.1671 33.9023 54.0552 34.0178 53.9488C34.1083 53.8132 34.3078 53.6321 34.5287 53.4315C35.0405 52.9669 35.6671 52.3981 35.3178 52.0488C34.9678 51.6488 33.4178 49.8988 33.0178 50.7488C32.5178 51.2988 29.1678 54.6988 28.9178 53.9988C28.7178 53.0488 27.6178 52.3988 26.7678 51.9988C26.1084 52.0616 25.4884 52.3217 24.8707 52.5807C24.5049 52.7342 24.1398 52.8873 23.7678 52.9988C22.9178 51.5988 21.4178 50.8488 19.8678 50.8488C22.4678 49.5488 25.3678 49.8988 27.8678 51.2488C28.5678 50.9988 26.1179 49.3488 25.7179 49.2988C22.9679 47.8988 19.6178 47.7988 16.9178 49.2488C15.9678 50.3488 18.7678 51.9488 19.6178 52.3488C19.9534 52.5446 20.336 52.6152 20.7042 52.6832C20.9943 52.7368 21.2755 52.7887 21.5178 52.8988C22.8678 54.9988 24.9178 55.8988 27.1678 54.4988ZM58.868 37.3987C58.218 37.1487 57.618 36.6987 57.218 36.1487C57.3654 35.9128 57.6345 35.7291 57.9023 35.5463C58.0886 35.4191 58.2743 35.2923 58.418 35.1487C58.9846 34.682 59.5347 34.2154 60.068 33.7487C60.2561 33.5606 60.4726 33.6839 60.6747 33.7991C60.7412 33.837 60.8061 33.874 60.868 33.8987C60.9247 33.9554 61.0215 34.0241 61.1289 34.1003L61.1289 34.1004L61.129 34.1004C61.4006 34.2931 61.7396 34.5338 61.668 34.7487C61.126 35.11 60.664 35.6178 60.2063 36.1209C59.7772 36.5925 59.3519 37.06 58.868 37.3987ZM73.9179 25.0489C74.5179 26.1489 75.7679 26.9489 76.9179 27.4489C87.2679 22.4489 81.118 10.8489 73.518 6.59889C72.7565 6.42582 72.3065 7.30711 71.9026 8.09812C71.723 8.44973 71.5526 8.78351 71.368 8.99891C70.87 9.85253 70.3215 10.6555 69.7583 11.4799C69.5298 11.8145 69.2989 12.1525 69.068 12.4989C68.848 12.8656 68.6078 13.2255 68.3672 13.5861C67.9516 14.209 67.5347 14.8339 67.218 15.4989C67.0811 15.7727 67.3606 16.0465 67.5625 16.2442C67.5818 16.2632 67.6005 16.2814 67.618 16.2989L67.7235 16.4046C68.6562 17.3391 69.8175 18.5026 71.118 18.5989C71.2179 18.5322 71.1846 18.4656 71.1513 18.3989C71.1346 18.3656 71.118 18.3322 71.118 18.2989C71.0752 18.2135 71.1785 18.0185 71.2407 17.9012L71.2579 17.8687L71.268 17.8489C71.8694 16.603 72.6185 15.431 73.3686 14.2575L73.3687 14.2574C74.3645 12.6993 75.362 11.1386 76.018 9.39891C79.668 12.8989 81.768 19.7989 76.768 23.2989C76.2593 23.7178 75.6611 24.0472 75.0698 24.3727C74.673 24.5912 74.2794 24.808 73.9179 25.0489ZM70.5181 45.2989C71.0181 46.2989 72.168 47.0489 73.168 47.4989C73.318 47.5489 73.3681 47.4988 73.4681 47.3488C74.6181 46.1488 75.7181 44.9989 76.8181 43.7989C76.9139 43.6865 77.0105 43.5744 77.107 43.4624C78.7719 41.5299 80.3982 39.642 77.4681 37.7989C77.7609 37.294 78.0863 36.836 78.3884 36.4109C79.5821 34.7312 80.4107 33.5652 77.418 32.0489C76.268 31.7989 75.0181 32.3989 74.0181 32.8989C74.0181 33.2044 74.3099 33.4516 74.5591 33.6628C74.6361 33.728 74.709 33.7898 74.7681 33.8488C74.7835 33.8615 74.7989 33.8741 74.8142 33.8867C75.3436 34.3206 75.7878 34.6848 76.4681 34.1988C76.4847 34.1988 76.507 34.1877 76.5255 34.1785C76.5625 34.16 76.5847 34.1489 76.5181 34.2489C76.3301 34.4851 76.1574 34.6967 76.0013 34.8879C74.5386 36.6803 74.5332 36.6869 77.0181 38.4488C76.5475 40.2303 74.6082 41.8083 72.8256 43.259C71.9564 43.9663 71.1244 44.6433 70.5181 45.2989Z" fill="black"/>
</svg>
