<svg width="147" height="230" viewBox="0 0 147 230" fill="none" xmlns="http://www.w3.org/2000/svg">
<path fill-rule="evenodd" clip-rule="evenodd" d="M73.7173 21.35C72.7173 20.9 71.6172 20.15 71.1172 19.15C72.4172 16.6 73.2672 13.3 71.8172 10.6C71.0076 9.19672 69.9067 7.99734 68.8054 6.79749C67.8662 5.77426 66.9267 4.75069 66.1672 3.6C65.7584 4.37668 65.2791 5.13851 64.797 5.90472C63.5101 7.95006 62.2036 10.0266 62.1672 12.5C62.2172 15.05 62.6172 17.8 64.2672 19.85C64.5172 20.2 64.0172 20.1 63.8672 19.95C60.0672 17.75 59.2173 12.3 60.2173 8.35C60.7381 6.81479 61.6197 5.45995 62.4912 4.12066C63.2092 3.01728 63.9203 1.92445 64.4172 0.75C65.9104 1.26938 66.7293 2.58958 67.5441 3.90338C67.9844 4.61323 68.4235 5.32121 68.9673 5.9C69.4399 6.45141 69.9508 7.00282 70.4692 7.56228L70.4694 7.56245C72.9124 10.1989 75.5209 13.0141 75.0672 16.85C74.9672 17.85 74.5173 20.95 73.7173 21.35ZM66.7175 23.2C66.5675 24.2 67.5175 24.85 68.3175 25.25C68.4175 25.25 68.4675 25.25 68.4675 25.1C68.446 24.3048 68.3968 23.5188 68.3477 22.7342C68.2825 21.6933 68.2175 20.6548 68.2175 19.6C68.3175 19.25 66.3675 17.6 66.5175 18.35C66.5175 19.3136 66.5719 20.2953 66.6261 21.2733C66.6619 21.9193 66.6976 22.5636 66.7175 23.2ZM74.2675 83.5L74.1723 83.4527C73.5496 83.1438 72.4726 82.6096 72.5675 81.85C72.6342 79.6833 72.6508 77.5334 72.6175 75.4C72.3675 64.55 72.1675 53.75 72.0675 42.9C72.0294 40.9191 72.0494 38.9382 72.0693 36.9573C72.1017 33.7382 72.1341 30.5191 71.9175 27.3C71.9175 26.65 74.8175 28.65 74.4675 29.5C74.6175 42.2 74.7675 54.95 74.7675 67.65C74.7564 68.7595 74.7503 69.8666 74.7441 70.9723C74.7225 74.8493 74.701 78.7095 74.4675 82.6C74.4675 82.8 74.4508 83.0167 74.4175 83.25C74.4175 83.254 74.4178 83.259 74.4183 83.2647C74.4191 83.2733 74.4204 83.2837 74.4219 83.2952C74.4315 83.372 74.4475 83.5 74.3675 83.5H74.2675ZM64.8174 78.3C65.2674 79.2 66.2674 79.9 67.2174 80.3C67.2287 80.3 67.2424 80.3025 67.2576 80.3053C67.3098 80.3149 67.3786 80.3275 67.4174 80.25V79.55C67.6174 74.55 67.3174 69.55 67.0174 64.55C66.3828 56.0461 66.5357 47.5422 66.6887 39.0384C66.7165 37.4922 66.7443 35.9461 66.7674 34.4V34.399C66.7674 33.3493 66.7674 32.2997 66.8174 31.25C66.8174 31.15 66.7174 31 66.6174 30.9C65.8674 30.05 64.9174 29.15 63.8174 28.85C63.6461 30.3058 63.6704 31.8756 63.6949 33.4572C63.7132 34.646 63.7317 35.8414 63.6674 37C63.3674 48.45 63.7174 59.9 64.6174 71.3C64.6674 72.4749 64.6924 73.6374 64.7174 74.7998C64.7424 75.9624 64.7674 77.1249 64.8174 78.3ZM14.8673 65.6C15.3173 66.5 16.3174 67.25 17.2674 67.65C20.0188 64.5435 17.6497 60.3736 15.7887 57.0978C15.5529 56.6829 15.3253 56.2823 15.1173 55.9C14.4173 54.6 13.7173 53.25 13.1673 51.85C12.9673 51 11.8674 50.2 11.0174 49.9C10.941 49.9 10.9521 49.9584 10.9616 50.0082C10.9646 50.0236 10.9674 50.0382 10.9674 50.05C10.8951 50.4116 10.7182 50.6947 10.5312 50.9939L10.5312 50.9939C10.4596 51.1085 10.3866 51.2254 10.3173 51.35C9.70008 52.3331 8.89466 53.1698 8.08749 54.0083L8.08747 54.0083C7.1293 55.0037 6.16867 56.0017 5.51735 57.25C4.16735 60.1 3.36733 64.5 6.36733 66.6C7.46733 67.35 7.41733 67 6.61733 66.2C5.96733 64.95 6.01735 63.5 6.26735 62.1C6.55149 59.2941 8.34943 57.447 10.1736 55.5729L10.1737 55.5728C10.9175 54.8086 11.6656 54.04 12.3173 53.2C12.6337 53.7962 12.9944 54.416 13.3664 55.0552L13.3664 55.0553L13.3665 55.0553C14.5232 57.043 15.789 59.2179 16.1673 61.45C16.3173 62.95 15.7173 64.4 14.8673 65.6ZM40.8396 61.4865L40.8871 61.5101L40.9674 61.55C41.2304 61.55 41.0982 59.9975 41.0162 59.0346V59.0346L41.0162 59.0345C40.989 58.7159 40.9674 58.4619 40.9674 58.35C40.6174 57.7 39.7674 57.1 39.0674 56.9C38.991 56.9 39.0021 56.9584 39.0117 57.0082L39.0117 57.0083C39.0146 57.0237 39.0174 57.0382 39.0174 57.05C39.0775 57.6212 39.0834 58.1924 39.0894 58.7744C39.0934 59.1604 39.0974 59.5513 39.1174 59.95C39.2584 60.7025 40.1515 61.1453 40.8396 61.4865ZM38.4173 105.55C37.6673 105.2 36.6173 104.6 36.5173 103.65C36.3684 102.198 36.3026 100.718 36.2375 99.252L36.2374 99.2513L36.2374 99.2506L36.2374 99.2499L36.2373 99.2491L36.2373 99.2484L36.2373 99.2477L36.2372 99.247L36.2372 99.2463L36.2372 99.2456L36.2371 99.2449L36.2371 99.2442L36.2371 99.2435L36.237 99.2427L36.237 99.2416L36.2369 99.2404L36.2369 99.2392L36.2368 99.2381L36.2367 99.2369L36.2367 99.2357L36.2366 99.2346L36.2366 99.2334L36.2365 99.2318C36.2145 98.7357 36.1925 98.2412 36.1673 97.75C35.6007 91.6834 35.6562 85.6168 35.7118 79.5502C35.7396 76.5168 35.7674 73.4834 35.7174 70.45C35.7286 70.281 35.7145 69.749 35.6956 69.037L35.6955 69.0355L35.6955 69.0352C35.6305 66.587 35.509 62.0142 36.1673 62.75C36.2293 62.7878 36.2905 62.8248 36.3507 62.8611C37.1656 63.3522 37.7967 63.7326 37.5173 64.85C37.3569 67.4166 37.4539 70.0154 37.5501 72.5947V72.5947V72.5948V72.5949V72.5949V72.595V72.5951V72.5952V72.5952V72.5953V72.5954V72.5954V72.5955V72.5956V72.5956V72.5957V72.5958V72.5958V72.5959V72.596V72.596V72.5961V72.5962V72.5963V72.5963V72.5964V72.5965V72.5965V72.5966V72.5967V72.5967V72.5968L37.5502 72.5977L37.5502 72.5987L37.5502 72.5996L37.5503 72.6006L37.5503 72.6016L37.5504 72.6027L37.5504 72.6038L37.5506 72.6105C37.5742 73.2418 37.5977 73.8718 37.6173 74.5C37.6635 76.9245 37.6457 79.3489 37.6279 81.7685C37.6072 84.5883 37.5866 87.4014 37.6673 90.2C37.7091 92.311 37.882 94.5005 38.0544 96.6848C38.2945 99.7258 38.5337 102.756 38.4173 105.55ZM105.067 109.25C104.917 110.45 106.067 111.2 107.017 111.6C107.045 111.6 107.069 111.604 107.091 111.607C107.145 111.616 107.181 111.622 107.217 111.55C106.717 102.8 106.317 94.05 106.317 85.3C106.317 83.716 106.276 82.132 106.236 80.548C106.148 77.182 106.061 73.816 106.367 70.45C106.367 70.1 104.017 68.15 104.117 69.1C103.945 71.1751 103.987 73.2262 104.029 75.2866V75.2866V75.2867V75.2868V75.2868V75.2869V75.287V75.287V75.2871V75.2872V75.2872V75.2873V75.2874V75.2875V75.2875V75.2876V75.2877V75.2877V75.2878V75.2879V75.2879V75.288V75.2881V75.2881V75.2882V75.2883V75.2883V75.2884V75.2885V75.2886V75.2886V75.2887V75.2888V75.2888V75.2889C104.048 76.2065 104.067 77.1259 104.067 78.05C104.142 81.1239 104.147 84.1978 104.152 87.2691C104.162 92.4909 104.171 97.7054 104.517 102.9L104.533 103.111C104.678 105.144 104.826 107.22 105.067 109.25ZM99.0673 109.95C98.0673 109.5 96.9173 108.65 97.0173 107.4C96.8673 105.862 96.8017 104.325 96.736 102.787C96.7142 102.275 96.6923 101.762 96.6673 101.25C96.5174 97.1292 96.536 93.0364 96.5548 88.9296V88.9294V88.9292V88.929V88.9288V88.9286V88.9284V88.9282V88.928V88.9278V88.9276V88.9274V88.9272V88.927V88.9268V88.9266V88.9264V88.9261V88.9259V88.9257V88.9255V88.9253V88.9251V88.9249V88.9247V88.9245V88.9243V88.9241V88.9239V88.9237V88.9235V88.9233V88.9231V88.9229V88.9226V88.9224V88.9221V88.9218V88.9215V88.9212V88.9208V88.9205V88.9202V88.9199V88.9196V88.9192V88.9189V88.9186V88.9183V88.918V88.9176V88.9173V88.917V88.9167V88.9164V88.916V88.9157V88.9154V88.9151V88.9147V88.9144V88.9141V88.9138V88.9135V88.9131V88.9128V88.9125V88.9122V88.9118V88.9115V88.9112C96.5611 87.5429 96.5673 86.173 96.5673 84.8C96.5673 82.4262 96.4915 80.0416 96.4154 77.6512V77.6512V77.6511V77.651V77.6508V77.6507V77.6506V77.6505V77.6504V77.6503V77.6502V77.65V77.6499C96.3281 74.9051 96.2406 72.1525 96.2673 69.4C96.8224 69.4463 97.3346 69.9632 97.7249 70.357L97.7273 70.3595L97.732 70.3642L97.7752 70.4078L97.8173 70.45C98.072 70.8002 98.0429 71.2516 98.014 71.7012C97.9975 71.9578 97.981 72.2138 98.0173 72.45C98.3507 81.3834 98.6173 90.3167 98.8173 99.25C98.8908 100.94 98.9523 102.63 99.0135 104.314L99.0135 104.315L99.0135 104.315L99.0136 104.315L99.0136 104.316L99.0136 104.316L99.0136 104.316L99.0136 104.317L99.0137 104.317L99.0137 104.317L99.0137 104.318L99.0137 104.319L99.0138 104.32L99.0138 104.32L99.0138 104.321L99.0138 104.322L99.0139 104.322L99.0139 104.323L99.0139 104.324L99.0139 104.325L99.0139 104.325L99.014 104.326L99.014 104.327L99.0141 104.329C99.0777 106.078 99.141 107.82 99.2174 109.55C99.2174 109.581 99.2216 109.62 99.2262 109.663C99.2437 109.825 99.2657 110.029 99.0673 109.95ZM10.5673 125.2C9.91735 124.9 8.86735 124.4 8.81735 123.6C8.81735 121.65 8.76734 119.75 8.61734 117.85C7.81966 111.241 7.81736 104.599 7.81505 97.9524C7.8133 92.9337 7.81156 87.9122 7.46737 82.9C7.43865 82.3063 7.40808 81.7109 7.37744 81.1139L7.37744 81.1138L7.37744 81.1138L7.37743 81.1137L7.37743 81.1136L7.37743 81.1136L7.37742 81.1135L7.37742 81.1134L7.37734 81.1119L7.37734 81.1118L7.37734 81.1118L7.37733 81.1117L7.37733 81.1116L7.37733 81.1115L7.37732 81.1115L7.37732 81.1114L7.37732 81.1113L7.37732 81.1113L7.37731 81.1112L7.37731 81.1111C7.248 78.5917 7.11734 76.0458 7.11734 73.5C6.96734 72.75 8.56732 74.15 8.66733 74.35C8.76733 77.65 8.86734 80.95 9.11734 84.25C9.57202 89.9184 9.65918 95.6052 9.74645 101.299C9.80313 104.997 9.85986 108.699 10.0174 112.4C10.0885 113.138 10.166 113.878 10.2437 114.619C10.6024 118.044 10.964 121.497 10.7174 124.95C10.7174 124.965 10.7185 124.984 10.7198 125.004C10.7268 125.118 10.7371 125.285 10.5673 125.2ZM68.5406 91.3094C69.3739 91.3765 70.1926 91.4424 70.9673 91.55L71.106 91.5616L71.1062 91.5616C72.2563 91.6576 73.3637 91.75 74.5173 91.75C75.084 91.75 75.634 91.7333 76.1673 91.7C80.4173 91.4 79.7673 90 76.5173 88.4C74.8673 87.7 72.9673 87.25 71.2173 87.25C72.1897 88.587 73.8843 88.8406 75.4499 89.075C75.8164 89.1298 76.1759 89.1836 76.5173 89.25C74.9263 90.8818 69.2081 90.1504 65.6086 89.69C64.7963 89.5861 64.092 89.496 63.5673 89.45C64.9173 88.6 66.4173 87.95 67.9173 87.4C68.0039 87.3654 68.0845 87.3347 68.158 87.3068L68.1581 87.3067C68.7213 87.0927 68.8691 87.0365 68.1173 86.55C68.0482 86.5085 67.9778 86.4658 67.9062 86.4223C67.201 85.9941 66.3798 85.4954 65.5173 85.45C65.3382 85.5268 65.0674 85.6298 64.7413 85.7537C63.1564 86.3563 60.2673 87.4548 60.2673 88.45C62.2686 90.8044 65.5016 91.0647 68.5406 91.3094ZM63.8673 101.1C64.3173 102.05 65.3173 102.8 66.2173 103.25C66.493 103.25 66.4361 102.704 66.3905 102.266C66.37 102.068 66.3517 101.893 66.3673 101.8C66.2173 99.55 65.7173 97.2 64.0673 95.5C63.4822 94.8564 62.8116 94.2984 62.1354 93.7359C61.656 93.3369 61.1737 92.9357 60.7173 92.5C60.6185 92.4012 60.5196 92.2983 60.4196 92.1942C59.9128 91.6665 59.3772 91.1088 58.6673 90.9C58.4173 90.95 58.7673 91.35 58.8173 91.4C59.8673 92.65 61.1173 93.65 62.3673 94.65C63.8188 96.1455 63.8386 98.3376 63.8564 100.307V100.307V100.307V100.307V100.307V100.308V100.308V100.308V100.308C63.8589 100.577 63.8613 100.842 63.8673 101.1ZM76.6674 103.1C72.4174 101.5 73.9174 96 76.0174 93.2C76.046 93.1715 76.0758 93.1407 76.1069 93.1087L76.1077 93.1078C76.4037 92.8028 76.8106 92.3836 77.2174 92.7C77.6174 92.9 79.5174 94.3 79.1174 94.7C77.0674 96.2 76.4674 99.2 76.6174 101.65C76.5758 101.775 76.6469 102.047 76.7187 102.323L76.7188 102.323C76.8195 102.708 76.9217 103.1 76.7174 103.1H76.6674ZM63.8672 105.8C61.5172 104.65 65.3173 107.95 65.8173 108.1C67.4173 109.1 69.1173 109.45 70.8173 109.45C73.2541 109.45 75.7454 108.741 78.1101 108.068C78.9477 107.83 79.7695 107.596 80.5673 107.4C80.0673 106.35 78.8673 105.55 77.8173 105.1C76.7673 105.3 75.7423 105.587 74.7173 105.875C73.6923 106.162 72.6672 106.45 71.6172 106.65C69.0172 107.3 66.0672 107.6 63.8672 105.8ZM66.5673 145.3C65.5173 144.8 63.8173 143.8 63.7673 142.5C63.8394 140.083 64.647 137.626 65.4551 135.169C66.8868 130.814 68.32 126.455 65.6673 122.3C63.5673 119.35 61.7673 116.4 62.7673 112.6C62.7673 112.05 64.6173 113.6 64.6173 113.9C64.6173 114.273 64.6018 114.65 64.5862 115.028C64.5393 116.169 64.4917 117.323 64.8673 118.45C65.3173 119.85 66.1423 121.075 66.9673 122.3L66.9673 122.3C67.7923 123.525 68.6173 124.75 69.0673 126.15C70.262 130.033 69.2266 133.808 68.1884 137.594C67.4885 140.146 66.7874 142.703 66.7673 145.3H66.6673H66.5673ZM77.7175 147.95C77.4175 149.05 79.5175 150.5 80.3675 150.9H80.4175C80.7207 150.9 80.8196 149.901 80.8978 149.112C80.9356 148.73 80.9686 148.397 81.0175 148.25C81.9175 143.15 81.2175 137.85 79.0675 133.15C76.4153 128.337 77.8158 122.848 79.0984 117.821L79.1675 117.55C79.3425 116.9 79.505 116.25 79.6675 115.6L79.6677 115.599L79.6679 115.598L79.6682 115.597L79.6684 115.596L79.6686 115.596L79.6688 115.595L79.6691 115.594L79.6693 115.593L79.6695 115.592L79.6698 115.591L79.67 115.59L79.6702 115.589L79.6704 115.588L79.6707 115.588L79.6709 115.587L79.6711 115.586L79.6714 115.585L79.6716 115.584L79.6718 115.583L79.6721 115.582L79.6723 115.581L79.6725 115.58L79.6727 115.58L79.673 115.579L79.6732 115.578L79.6734 115.577L79.6737 115.576L79.6739 115.575L79.6741 115.574L79.6743 115.573L79.6746 115.572L79.6748 115.572L79.675 115.571L79.6753 115.57L79.6755 115.569L79.6757 115.568L79.6759 115.567L79.6762 115.566L79.6764 115.565L79.6766 115.565L79.6769 115.564C79.8362 114.926 79.9956 114.288 80.1675 113.65C80.0846 113.029 79.4524 112.544 78.9252 112.141C78.8162 112.057 78.7117 111.977 78.6175 111.9C78.5885 111.881 78.5571 111.859 78.5241 111.836C78.2162 111.623 77.7675 111.313 77.7675 111.9C77.4603 113.334 77.0318 114.79 76.5995 116.26L76.5994 116.26C75.3433 120.53 74.0552 124.909 75.6175 129.15C75.8439 129.757 76.0833 130.363 76.323 130.969L76.3232 130.969L76.3233 130.97L76.3235 130.97L76.3237 130.971L76.3238 130.971L76.324 130.971L76.3241 130.972L76.3243 130.972L76.3245 130.973L76.3246 130.973L76.3248 130.973L76.3249 130.974L76.3251 130.974L76.3253 130.975L76.3254 130.975L76.3256 130.976L76.3257 130.976L76.3259 130.976L76.3261 130.977L76.3262 130.977L76.3264 130.978L76.3265 130.978L76.3267 130.978L76.3269 130.979L76.327 130.979L76.3272 130.98L76.3273 130.98L76.3275 130.98L76.3277 130.981L76.3278 130.981L76.328 130.982L76.3281 130.982L76.3283 130.983L76.3285 130.983L76.3286 130.983L76.3288 130.984L76.3289 130.984L76.3291 130.985L76.3293 130.985L76.3294 130.985L76.3296 130.986L76.3297 130.986C77.252 133.319 78.1798 135.665 78.4175 138.2C78.8675 141.5 78.3175 144.75 77.7175 147.95ZM77.1173 158C72.1173 158 66.9672 156.25 63.6672 152.35C63.6579 152.331 63.6274 152.29 63.5867 152.234C63.4104 151.993 63.0422 151.491 63.3673 151.45C64.1699 151.611 64.8114 152.158 65.4212 152.678C65.5712 152.805 65.7192 152.932 65.8673 153.05C66.9173 153.6 68.0673 153.95 69.2173 154.2C69.3419 154.219 69.4678 154.238 69.5947 154.258C72.1661 154.651 75.1708 155.111 77.2673 153.3C78.5673 153.4 80.1172 155.1 80.9172 156.1C82.0172 157.2 78.5173 158 77.3673 158H77.1173ZM101.056 118.861C101.345 118.874 101.632 118.886 101.917 118.9C102.694 118.845 103.478 118.799 104.265 118.752C107.783 118.543 111.367 118.331 114.718 117.35C116.918 116.05 112.817 114 111.617 113.7C111.267 113.6 108.617 113.15 108.617 113.45C108.759 113.697 109 113.87 109.235 114.038C109.333 114.108 109.43 114.177 109.518 114.25C110.228 114.854 111.089 114.903 111.959 114.952C112.314 114.972 112.67 114.992 113.018 115.05C112.98 116.412 108.072 116.744 104.951 116.954C103.949 117.022 103.131 117.077 102.718 117.15C99.9675 117.4 97.1675 117.3 94.4175 116.8C96.7175 115.85 99.0675 115.05 101.518 114.5C101.768 114.45 102.023 114.4 102.279 114.35C102.79 114.25 103.301 114.15 103.768 114.05C103.896 113.964 103.546 113.657 103.412 113.54L103.412 113.54L103.412 113.54L103.412 113.54L103.381 113.513C103.375 113.507 103.37 113.503 103.367 113.5C103.229 113.415 103.089 113.321 102.946 113.225C102.415 112.87 101.847 112.489 101.218 112.45C98.6675 112.95 96.1175 113.45 93.6675 114.4C93.4037 114.501 93.1439 114.592 92.8971 114.68C91.1792 115.286 90.0943 115.67 92.7175 117.2C95.2128 118.606 98.202 118.737 101.05 118.861L101.053 118.861L101.056 118.861ZM138.617 137.4C135.117 137.45 131.667 137.35 128.167 137.1C126.967 137 125.967 136.2 125.167 135.35C124.518 134.614 126.116 133.504 126.947 132.927C126.997 132.892 127.045 132.859 127.089 132.829C127.123 132.804 127.156 132.781 127.186 132.76C127.215 132.738 127.243 132.718 127.268 132.7C128.568 131.9 130.018 131.35 131.468 130.9C132.218 130.55 133.017 130.8 133.617 131.3C133.817 131.4 135.217 132.45 134.667 132.5C132.367 132.9 129.917 133.9 128.167 135.5H128.117C129.159 135.511 130.282 135.567 131.444 135.625C135.358 135.821 139.717 136.038 142.917 134.65C141.967 134.6 141.168 134 140.468 133.35C140.468 133.335 140.435 133.292 140.396 133.24C140.306 133.12 140.178 132.95 140.317 132.95C141.217 133.05 142.117 133.2 142.917 133.55C143.817 134 146.567 135.75 144.617 136.5C142.717 137.3 140.667 137.45 138.617 137.4ZM40.2836 117.584L40.3674 117.6C44.8674 118.35 49.7674 117.95 53.8174 115.65C54.4174 115.25 51.9174 113.85 51.4174 113.85C47.1174 116.35 41.6674 116.6 36.8674 115.55C34.3421 115.045 34.5448 114.965 36.0142 114.386L36.0148 114.385L36.0155 114.385C36.2915 114.276 36.612 114.15 36.9674 114C37.4654 113.843 37.9635 113.676 38.4625 113.51L38.4626 113.509C40.8196 112.722 43.2004 111.926 45.7174 112.05C45.7273 112.05 45.7376 112.05 45.7482 112.051L45.7697 112.053C45.8613 112.06 45.9592 112.067 45.9174 111.9C44.8174 110.6 43.0674 109.7 41.3174 109.95C38.4674 110.2 35.6674 111.15 33.0174 112.2C30.0674 113.15 32.8674 114.9 34.2674 115.75C36.0928 116.786 38.2103 117.189 40.2836 117.584ZM15.7509 126.179C15.8188 127.623 15.8551 128.395 17.8673 129.2C17.9173 129.2 17.9673 129.2 18.0173 129.15C17.1012 120.134 17.4405 111.118 17.7797 102.102L17.8173 101.1C17.8848 97.4102 17.8612 93.7104 17.8375 90.0095C17.8087 85.4856 17.7798 80.9602 17.9173 76.45C17.9173 76.2666 17.9339 76.0833 17.9502 75.9034C17.9739 75.6416 17.997 75.387 17.9673 75.15C17.5173 74.45 16.7173 73.95 15.9673 73.6C15.4681 73.279 15.4775 73.6194 15.4877 73.9862C15.4918 74.1336 15.496 74.2853 15.4673 74.4C15.3673 77.4352 15.4007 80.4926 15.4341 83.5426C15.4507 85.0648 15.4673 86.5852 15.4673 88.1C15.609 93.5106 15.4778 98.9051 15.3465 104.302L15.3465 104.302C15.2461 108.431 15.1456 112.561 15.1673 116.7C15.2173 119.5 15.4173 122.25 15.6673 125C15.7161 125.439 15.7344 125.829 15.7509 126.179ZM131.817 127C130.917 126.6 129.967 125.85 130.067 124.75C129.901 122.783 129.767 120.817 129.667 118.85C129.017 108.05 128.917 97.25 129.017 86.45C129.037 86.19 129.041 85.93 129.045 85.6701V85.6697C129.051 85.2798 129.057 84.8899 129.117 84.5C129.302 84.4631 129.459 84.5624 129.609 84.6571C129.663 84.6907 129.715 84.7238 129.767 84.75L129.872 84.8301C130.499 85.3094 131.204 85.8478 130.967 86.7C130.874 89.2623 130.878 91.8247 130.881 94.387V94.3882C130.884 95.9254 130.886 97.4627 130.867 99C130.967 107 131.267 115.05 131.767 123.05C131.834 124.283 131.884 125.533 131.917 126.8C131.967 126.95 131.967 127.05 131.817 127ZM137.618 126.3C137.468 127.5 138.518 128.3 139.468 128.75C139.577 123.16 139.447 117.417 139.317 111.634V111.633V111.633V111.633V111.633V111.632V111.632V111.632V111.632V111.631V111.631V111.631V111.631V111.63V111.63V111.63V111.63V111.629V111.629V111.629V111.629V111.629V111.628V111.628V111.628V111.628V111.627V111.627V111.627V111.627V111.626V111.626V111.626C139.149 104.17 138.98 96.648 139.318 89.3C139.668 88.7 138.118 87.5 137.667 87.5C137.401 89.4332 137.401 91.4108 137.401 93.3884V93.3888C137.401 94.3777 137.401 95.3666 137.368 96.35C137.268 104.283 137.284 112.233 137.417 120.2C137.467 122.25 137.518 124.25 137.618 126.3ZM43.9182 101.743C43.9354 103.179 43.9434 103.848 45.9674 104.8C46.1751 104.835 46.1671 104.654 46.1591 104.472C46.1555 104.392 46.152 104.312 46.1674 104.25C46.1344 102.537 46.0146 100.823 45.8938 99.0956L45.8938 99.0955L45.8938 99.0951C45.8313 98.2012 45.7686 97.3035 45.7174 96.4C45.6135 93.0063 45.5636 89.6066 45.5136 86.2051L45.5136 86.2044V86.2043V86.2043V86.2042V86.2041V86.204V86.204V86.2039V86.2038V86.2038V86.2037V86.2036V86.2036V86.2035V86.2034V86.2034V86.2033V86.2032V86.2032V86.2031V86.203V86.2029V86.2029V86.2028V86.2027V86.2027V86.2026V86.2025V86.2025V86.2024V86.2023C45.4193 79.7821 45.3249 73.3554 44.8674 66.95C44.8159 66.4099 44.8306 65.9557 44.8435 65.5604C44.8804 64.4186 44.9016 63.7671 43.2674 62.95C43.1174 62.85 42.8174 62.75 42.8674 63C43.1674 71.35 43.4674 79.75 43.3674 88.1C43.2854 91.4999 43.5056 94.8663 43.7253 98.2266C43.7737 98.9679 43.8222 99.7089 43.8674 100.45C43.9086 100.945 43.9137 101.37 43.9182 101.743V101.743ZM12.0175 71.9C10.171 71.1307 10.2186 70.5389 10.3161 69.3278C10.3453 68.9647 10.379 68.5459 10.3674 68.05C10.6174 67.75 12.1675 68.95 12.2175 69.3C12.2175 69.7 12.205 70.1 12.1924 70.5C12.1799 70.9 12.1674 71.3 12.1674 71.7V71.7001C12.1674 71.9 12.1674 71.95 12.0175 71.9ZM135.617 85C134.867 84.65 133.767 84.05 133.817 83.1C133.834 82.9837 133.806 82.7126 133.775 82.4044L133.775 82.404C133.712 81.7851 133.634 81.0166 133.867 81.05C134.767 81.45 135.917 82.2 135.717 83.35C135.701 83.4493 135.717 83.6748 135.736 83.9282C135.773 84.4403 135.818 85.0669 135.617 85ZM139.517 79.8C138.717 79.4 138.017 78.8 137.467 78.1C137.456 78.0765 137.441 78.0502 137.426 78.0225L137.425 78.0221L137.425 78.022L137.425 78.0219C137.375 77.9318 137.317 77.8263 137.317 77.75C137.382 77.6095 137.452 77.4666 137.522 77.3214C137.778 76.795 138.05 76.2379 138.167 75.65C138.217 72.5 135.867 69.55 134.017 67.35L133.997 67.3698C131.199 70.0676 127.474 73.6599 130.067 77.7C130.173 77.7866 130.294 77.8769 130.42 77.9715L130.42 77.9718C130.952 78.3692 131.586 78.8444 131.667 79.45C130.067 79.75 127.417 76.3 127.017 74.85C125.478 71.0426 127.778 68.7118 130.116 66.3424C130.664 65.7869 131.214 65.2293 131.717 64.65C131.767 64.35 132.117 64.55 132.217 64.65C134.1 65.8518 135.469 67.6632 136.813 69.4417L136.814 69.4418C137.147 69.8832 137.479 70.3225 137.817 70.75C139.517 73.35 141.717 76.75 139.667 79.75C139.634 79.7834 139.584 79.8 139.517 79.8ZM48.2733 131.248C49.5326 131.5 50.7923 131.752 52.0672 131.85C53.4172 132.05 53.3672 131 53.1172 130L53.1172 130C52.8172 128.75 52.5172 127.5 52.4172 126.2C52.2172 124.85 52.8673 123.6 53.5173 122.45C53.1173 121.6 52.2172 121 51.3672 120.6C51.2172 120.5 51.1172 120.8 51.0672 120.95C50.1672 122.3 49.9172 123.95 50.3172 125.55C50.3573 126.13 50.5253 126.71 50.6933 127.29C50.9453 128.16 51.1973 129.03 51.0173 129.9C50.3515 130.355 49.3664 130.123 48.4579 129.909L48.4577 129.909C48.07 129.818 47.6962 129.73 47.3672 129.7C44.5672 129.1 41.6672 128.55 38.8172 129.05C40.0173 125.15 37.9672 120.4 34.1672 118.8C33.7172 118.65 33.8172 118.95 34.0672 119.15C34.4672 119.6 35.0173 119.95 35.5672 120.2C37.7673 123 37.5172 127.2 35.4172 129.9C35.8672 130.55 37.0172 131.7 37.8672 131.45C39.3672 131.05 40.8172 130.7 42.3672 130.65C44.3726 130.468 46.3226 130.858 48.2733 131.248ZM97.1672 131.85C96.4172 131.5 95.5172 130.9 95.1672 130.1C96.3672 128.15 97.0172 125.55 95.6672 123.5C95.0172 122.45 94.2673 121.45 93.3173 120.75C93.2833 120.699 93.2379 120.648 93.1907 120.595L93.1907 120.595C93.0988 120.492 93.0003 120.382 92.9673 120.25C93.0173 120.1 93.3672 120.35 93.4172 120.4C94.1172 120.8 94.7173 121.4 95.2673 122C96.7673 123.7 98.4173 125.6 98.3672 128C101.92 126.736 104.796 127.246 107.873 127.792C109.299 128.044 110.768 128.305 112.367 128.4C111.317 126.75 110.317 124.25 111.517 122.3C111.867 121.8 112.317 121.2 112.817 120.8C113.667 121.05 114.817 122 115.167 122.8C113.267 124.55 113.067 126.65 114.117 129C114.15 129.116 114.272 129.282 114.403 129.461C114.666 129.82 114.968 130.233 114.667 130.4C113.014 130.4 111.416 130.044 109.818 129.687C108.806 129.461 107.794 129.236 106.767 129.1C103.367 128.8 99.5172 129.3 97.1672 131.85ZM129.867 148C130.367 149.15 131.617 150 132.717 150.55C132.867 150.6 132.967 150.55 133.017 150.4C134.167 148.75 135.967 147.35 138.067 147.1C139.606 146.972 141.124 147.316 142.635 147.659C143.481 147.851 144.324 148.042 145.167 148.15C146.467 148.45 147.367 148.45 146.617 146.85C146.493 146.509 146.325 146.149 146.152 145.78C145.487 144.362 144.76 142.811 146.267 141.7C146.185 140.958 145.218 140.249 144.489 139.715C144.334 139.602 144.19 139.496 144.067 139.4C143.432 138.96 143.227 139.189 142.798 139.666L142.767 139.7C141.757 140.855 142.466 142.218 143.126 143.489L143.126 143.489C143.381 143.979 143.628 144.455 143.767 144.9C144.402 146.099 142.836 145.761 140.655 145.29C138.199 144.76 134.965 144.061 133.217 145.2C132.467 142.85 130.517 141.1 128.567 139.7C128.556 139.693 128.541 139.684 128.524 139.673L128.471 139.639L128.408 139.597L128.407 139.597L128.407 139.597C127.912 139.274 126.624 138.433 126.667 139C127.167 139.85 128.067 140.55 128.917 141.05C129.517 141.2 129.767 141.7 129.967 142.15C130.867 144 130.717 146.2 129.867 148ZM50.3673 144.2C45.3673 142.45 42.1673 137.3 41.3673 132.2C41.2673 131.75 41.7173 131.95 41.9173 132.1C42.8673 132.75 43.8173 133.55 44.3173 134.6C44.4173 135.95 44.8673 137.3 45.3673 138.6C45.49 138.818 45.5978 139.066 45.708 139.319C46.0019 139.995 46.3127 140.709 46.9674 141C49.0174 141.8 51.4173 142.25 53.6173 141.75C55.0173 141.35 56.2674 140.8 57.5174 140.1C57.7053 140.049 57.8873 139.922 58.0695 139.794C58.4207 139.549 58.7723 139.304 59.1673 139.6C60.0173 140.2 60.9673 141 61.3673 142C61.1134 142.286 60.7385 142.491 60.3707 142.692C60.1591 142.808 59.9499 142.922 59.7674 143.05C56.9174 144.85 53.5673 145.25 50.3673 144.2ZM87.1535 148.16C89.1823 148.578 91.2499 149.004 93.3175 149.05C101.317 149.15 104.668 142.15 105.268 135.15C105.317 134.85 105.362 134.545 105.406 134.239C105.495 133.628 105.584 133.017 105.718 132.45C105.618 132.05 105.268 131.7 104.968 131.45C104.768 131.25 104.518 131 104.268 130.95C104.061 130.985 103.996 131.542 103.944 132C103.92 132.206 103.899 132.391 103.867 132.5C103.267 137.1 102.117 142.2 97.8175 144.75C94.0739 147.349 89.4767 146.339 85.2563 145.412L85.2559 145.412L85.2555 145.412L85.255 145.412L85.2546 145.412C84.6843 145.287 84.1209 145.163 83.5675 145.05C83.0675 144.85 83.2175 145.3 83.4175 145.55C84.2175 146.6 85.2675 147.8 86.6175 148.05C86.7958 148.087 86.9745 148.123 87.1535 148.16ZM108.367 167.5C101.167 167.1 93.7673 166.3 87.3173 162.8C86.3673 162.05 85.4673 161.2 84.8173 160.15C84.6173 159.9 84.2673 159.2 85.0673 159.55C85.4873 159.722 85.9074 159.899 86.3289 160.077L86.3318 160.078C87.8663 160.725 89.4207 161.38 91.0673 161.85C101.167 164.25 111.867 164.95 122.067 162.5C126.567 161.4 131.467 159.95 134.667 156.4C135.743 155.152 136.374 153.645 137.008 152.134L137.008 152.132L137.129 151.845C137.191 151.697 137.254 151.548 137.317 151.4C137.388 151.301 137.466 151.096 137.555 150.864C137.78 150.271 138.072 149.505 138.467 149.9C138.505 149.933 138.543 149.966 138.581 149.999L138.583 150C138.951 150.318 139.332 150.648 139.467 151.1C139.442 151.15 139.405 151.212 139.368 151.274L139.367 151.275C139.33 151.338 139.292 151.4 139.267 151.45L139.206 151.617C137.1 157.399 136.16 159.978 130.217 162.9C123.467 166.2 115.867 167.8 108.367 167.5ZM37.5174 137.2C38.3674 145.25 46.3673 151.05 54.0673 151.25C56.6511 151.295 59.0363 150.268 61.3646 149.265L61.3653 149.265L61.366 149.264C61.6505 149.142 61.9343 149.02 62.2174 148.9C62.8795 148.723 62.0609 148.079 61.6535 147.759C61.5994 147.716 61.5525 147.679 61.5174 147.65C61.3592 147.553 61.1922 147.426 61.0185 147.294L61.0183 147.294C60.4779 146.883 59.8726 146.423 59.2674 146.65C58.8531 146.813 58.4369 146.983 58.0187 147.155L58.0175 147.155C55.3571 148.244 52.6119 149.368 49.7174 148.85C47.9674 148.6 46.1673 148.25 44.6173 147.3C42.3173 145.3 40.8174 142.25 40.4674 139.25C40.4432 139.032 40.4307 138.826 40.4185 138.626C40.4056 138.412 40.3931 138.206 40.3673 138C39.9095 137.13 38.9906 136.596 38.1862 136.128C38.1122 136.085 38.0391 136.042 37.9674 136C37.9349 135.989 37.9002 135.976 37.8646 135.963L37.8642 135.962C37.7353 135.914 37.5957 135.861 37.5174 135.9C37.3366 135.936 37.4172 136.469 37.4757 136.856C37.4982 137.004 37.5174 137.131 37.5174 137.2ZM84.0173 140.4C83.6673 140.3 81.1172 138.3 82.5672 138.85C82.7956 138.941 83.0032 139.074 83.2089 139.206C83.4535 139.363 83.6956 139.518 83.9673 139.6C87.9673 140.95 92.5673 139.1 95.2673 136.15C95.5002 135.894 95.7115 135.594 95.9212 135.296C96.1617 134.955 96.4002 134.617 96.6672 134.35C97.6172 134.65 98.7173 135.35 99.2173 136.25C96.1673 141.1 89.0673 143.65 84.0173 140.4ZM85.9174 149.9C89.5674 155 94.9175 159.55 101.467 159.45C103.84 159.45 106.149 159.062 108.444 158.676C109.003 158.582 109.56 158.488 110.117 158.4C114.167 157.85 118.217 156.85 121.767 154.7C123.117 153.9 124.367 153 125.617 152.05C126.278 151.653 124.687 150.48 123.992 149.968C123.944 149.933 123.901 149.9 123.863 149.872L123.816 149.837C123.798 149.824 123.782 149.811 123.767 149.8C123.678 149.746 123.582 149.68 123.481 149.61C123.021 149.291 122.469 148.908 122.017 149.4C120.417 150.5 118.817 151.6 117.067 152.4C113.801 154.229 110.118 154.731 106.48 155.226C105.941 155.299 105.403 155.373 104.867 155.45C102.067 155.95 99.2674 156.45 96.4174 156.2L96.2987 156.185C96.203 156.174 96.1062 156.162 96.0086 156.151C94.9084 156.021 93.6946 155.877 92.7175 155.3C92.2691 154.807 91.901 154.273 91.5052 153.7L91.3674 153.5C90.0674 151.6 88.1175 150.05 85.9675 149.25C85.2675 149.1 85.7174 149.75 85.9174 149.9ZM70.8673 195.25C66.549 193.574 66.812 190.142 67.1718 185.447C67.5203 180.9 67.9595 175.169 64.4173 168.7C63.5673 166.9 62.7173 165.1 62.3673 163.1C62.2673 161.95 62.0174 157.6 64.0674 159.2C64.9174 159.75 67.2174 161.25 67.2174 162.3C65.675 165.483 67.1911 168.688 68.6839 171.844C69.4656 173.496 70.2409 175.135 70.5674 176.75C71.6215 180.407 71.4168 184.129 71.2117 187.858V187.858V187.859V187.859V187.859V187.859V187.859V187.86V187.86V187.86V187.86V187.86C71.1055 189.791 70.9991 191.723 71.0674 193.65C71.0331 193.77 71.0634 194.025 71.096 194.299C71.1584 194.823 71.2288 195.414 70.8673 195.25ZM78.985 192.706C78.8468 194.99 78.8097 195.603 81.3175 196.95C81.6156 196.983 81.5845 196.029 81.5587 195.235C81.5455 194.831 81.5337 194.469 81.5675 194.3C81.8675 190.8 81.9175 187.25 81.3175 183.7C81.0292 181.656 80.3287 179.708 79.6266 177.755C78.9893 175.982 78.3505 174.206 78.0175 172.35C77.6675 169.75 77.8174 166.55 79.8674 164.7C79.8674 164.335 79.5059 164.003 79.2092 163.731C79.182 163.706 79.1554 163.681 79.1296 163.657C79.0897 163.62 79.0519 163.585 79.0175 163.55C78.96 163.507 78.9035 163.464 78.8477 163.421L78.847 163.421C78.5144 163.167 78.2025 162.928 77.8175 162.8C76.993 163.104 76.5452 164.161 76.1798 165.023L76.1797 165.023L76.1791 165.024C76.1237 165.155 76.0701 165.282 76.0175 165.4C74.8188 169.093 76.0549 172.597 77.2916 176.103C77.9636 178.008 78.6357 179.914 78.9174 181.85C79.5174 185.3 79.4175 188.75 79.0175 192.15C79.0068 192.346 78.9956 192.531 78.985 192.706ZM78.4673 207.6C74.0173 207.55 68.7673 205.7 66.5173 201.65C67.315 201.802 67.8529 202.473 68.3504 203.094L68.3505 203.094L68.3506 203.094L68.3506 203.094L68.3507 203.094L68.3516 203.096L68.3523 203.096L68.3525 203.097C68.5091 203.292 68.6618 203.483 68.8173 203.65C71.4673 205.35 74.9173 205.6 77.9173 204.95C79.6173 204.55 81.2173 203.85 82.7673 203.05C83.7247 203.133 84.5088 203.91 85.2062 204.6C85.3465 204.739 85.4833 204.874 85.6173 205C85.6465 205.036 85.6863 205.081 85.7313 205.132L85.7317 205.133C85.9953 205.431 86.4369 205.929 85.9673 206.1C83.5673 206.95 81.0673 207.65 78.4673 207.6ZM47.5174 225.45C58.9174 227.65 70.4674 228.95 82.0674 229.1C92.6174 228.9 103.167 226.9 113.417 224.4C115.867 223.515 109.796 220.037 105.305 217.464C103.196 216.256 101.435 215.247 101.067 214.8C99.4972 213.777 98.063 212.55 96.6299 211.324L96.6297 211.324L96.6295 211.324L96.6293 211.324L96.6291 211.324L96.6289 211.324L96.6288 211.324L96.6286 211.323L96.6284 211.323L96.6283 211.323C95.0499 209.973 93.4729 208.624 91.7174 207.55C91.4174 207.4 91.1174 207.5 91.3674 207.85C97.0174 213.4 103.717 217.9 110.667 221.65C110.674 221.657 110.683 221.664 110.693 221.671C110.712 221.684 110.736 221.697 110.759 221.71C110.813 221.74 110.867 221.77 110.867 221.8C110.897 221.83 110.819 221.86 110.741 221.89C110.689 221.91 110.637 221.93 110.617 221.95C108.211 222.505 105.778 222.896 103.357 223.285C102.509 223.421 101.661 223.557 100.817 223.7C95.1174 224.65 89.4174 225.6 83.6674 226.1C67.7174 226.8 51.5174 224.4 36.1174 220.9C39.9407 220.354 43.5569 218.813 47.1168 217.297L47.1203 217.295L47.1255 217.293L47.1258 217.293C47.4735 217.145 47.8206 216.997 48.1674 216.85C49.0418 216.452 49.9214 216.063 50.8021 215.673L50.8034 215.672C53.7997 214.344 56.8082 213.011 59.6674 211.35C61.1174 210.5 62.4174 209.5 63.7674 208.45C64.0693 208.364 63.8133 208.017 63.673 207.827C63.6506 207.797 63.6312 207.771 63.6174 207.75C62.4174 206.55 60.9674 205.3 59.2674 204.85C58.9813 204.977 58.7356 205.205 58.4918 205.432L58.4917 205.432L58.4916 205.432C58.352 205.562 58.213 205.691 58.0674 205.8C55.2142 208.264 51.8003 209.831 48.4398 211.374L48.4363 211.375L48.4323 211.377L48.4276 211.379L48.4229 211.382L48.4182 211.384L48.4135 211.386C47.8961 211.623 47.38 211.86 46.8674 212.1C45.8309 212.547 44.798 213.016 43.7635 213.485L43.7632 213.485L43.7628 213.485L43.7625 213.486L43.7621 213.486L43.7618 213.486L43.7614 213.486L43.7611 213.486L43.7607 213.486C39.357 215.484 34.9253 217.495 30.0674 217.9C27.7174 218 34.0174 222 34.8174 222.15C38.6079 223.903 42.7577 224.624 46.8411 225.332L46.8414 225.332L47.1822 225.392L47.5174 225.45ZM6.9174 134.55C6.69157 134.539 6.4633 134.53 6.23382 134.522C4.38016 134.452 2.44667 134.379 1.06743 133C1.03779 132.974 1.00568 132.946 0.971912 132.917C0.549973 132.555 -0.13069 131.97 0.517441 131.6C2.71744 130.5 5.16742 129.9 7.61742 129.55C8.71742 129.3 9.76742 129.9 10.3674 130.8C10.4083 130.963 10.2155 130.927 10.1163 130.908L10.1162 130.908C10.102 130.905 10.0897 130.902 10.0804 130.901C10.0751 130.9 10.0707 130.9 10.0674 130.9C7.86743 131 5.71745 131.8 3.71745 132.65C3.7008 132.667 3.66749 132.683 3.63787 132.698L3.63779 132.698C3.57853 132.728 3.53409 132.75 3.6674 132.75C4.60522 132.795 5.53847 132.854 6.4699 132.913C8.61737 133.049 10.7552 133.185 12.9174 133.15C13.1386 133.143 13.3724 133.137 13.6145 133.131L13.619 133.131L13.6228 133.131L13.6257 133.131H13.6259C15.187 133.093 17.0876 133.045 18.1674 132.7C18.096 132.646 18.0232 132.593 17.9498 132.539C17.4065 132.139 16.8317 131.717 16.5674 131.1C16.5674 131.02 16.6954 131.036 16.7722 131.046C16.7914 131.048 16.8074 131.05 16.8174 131.05H17.5174C19.4174 131 21.3174 131.6 22.6674 133.05C22.9174 133.25 23.3174 133.65 23.1174 134C21.8302 134.644 20.3137 134.743 18.8283 134.839L18.8279 134.839H18.8276C18.3515 134.871 17.8785 134.901 17.4174 134.95C14.2674 135.085 11.1174 134.855 7.96747 134.626C7.61745 134.6 7.26743 134.575 6.9174 134.55ZM6.21746 151.3C6.21746 152.4 9.16741 154 10.1674 154.25C10.2674 154.3 10.4175 154.35 10.4675 154.2C10.4675 153.55 10.5174 152.9 10.8174 152.35C12.1674 150.35 14.8674 149.7 17.1674 149.45C18.6751 149.296 20.145 149.54 21.6235 149.785C22.5476 149.938 23.4751 150.092 24.4174 150.15L24.5355 150.158C24.5996 150.162 24.6642 150.166 24.7293 150.171C25.4463 150.221 26.2199 150.274 26.9174 150.1C26.9497 150.035 26.9403 149.992 26.9296 149.942C26.9237 149.915 26.9174 149.885 26.9174 149.85C26.7174 149.5 26.4675 149.25 26.2175 149C23.2675 146.2 20.8175 143.3 22.7175 139.1C23.2175 138.4 20.3175 136.45 19.7175 136.45C16.9675 140.6 20.0174 144.4 23.0174 147.35C21.4746 147.5 19.9317 147.292 18.3889 147.084C16.3317 146.806 14.2746 146.529 12.2175 147.1C11.4675 147.25 10.7174 147.5 10.0174 147.75C9.91745 147.75 9.91741 147.65 9.91741 147.6C9.88408 147.367 9.83412 147.15 9.76745 146.95C9.36745 145.25 8.66744 143.65 7.81744 142.15C7.48849 141.513 7.09191 140.901 6.69374 140.286C6.12357 139.406 5.55014 138.522 5.16741 137.55C5.16741 137.25 4.96745 137.05 4.76745 136.9C3.81745 136.15 2.76744 135.35 1.56744 135.1C1.21744 135.15 1.81746 136.2 1.96746 136.45C5.31746 141.5 6.81746 145.15 6.21746 151.3ZM37.5674 168.05C35.3674 167.8 33.2174 167.25 31.0674 166.6C25.6174 165.15 20.1674 162.85 16.2174 158.7C15.1174 157.55 14.0174 156.35 13.1674 155.05C13.1569 155.029 13.1378 155.002 13.1162 154.971C13.0347 154.854 12.9197 154.69 13.1174 154.65C14.1174 154.85 15.1674 155.5 15.9674 156.15C16.8174 157.4 17.6674 158.6 18.7674 159.65C20.8174 162.05 23.6674 163.4 26.6674 164.05C29.3674 164.85 32.0674 165.55 34.8674 165.65C40.5674 165.9 45.9674 163.4 50.4174 159.95C51.1307 159.415 51.7027 158.739 52.2699 158.068L52.2701 158.068C52.657 157.61 53.0417 157.156 53.4674 156.75C53.868 156.795 54.2685 156.997 54.6338 157.183L54.6339 157.183C54.679 157.205 54.7235 157.228 54.7674 157.25C54.901 157.342 55.0388 157.433 55.1774 157.524C55.713 157.875 56.2599 158.234 56.6174 158.75C55.3411 161.892 52.1854 163.828 49.3738 165.554L49.2174 165.65C45.6674 167.6 41.6174 168.5 37.5674 168.05ZM19.8173 151.55C22.4173 156.75 31.9673 159.75 37.5173 159.8C41.7673 159.75 46.1173 158.1 48.9673 154.8C49.1673 154.567 49.3506 154.333 49.5173 154.1L49.5349 154.083L49.5619 154.057L49.5621 154.057L49.5623 154.057C49.6659 153.959 49.8038 153.83 49.7173 153.7C49.2173 153 47.2673 151.7 46.3673 151.7C41.6673 157.25 34.5173 158.65 27.7173 156.55C27.4395 156.451 27.1478 156.359 26.8514 156.267C25.6542 155.892 24.3787 155.492 23.6173 154.45C23.284 154.05 22.984 153.6 22.7173 153.1C22.1885 152.379 21.2436 151.935 20.4161 151.546L20.416 151.546L20.3173 151.5C20.3073 151.5 20.2773 151.49 20.2365 151.476C20.0733 151.422 19.7373 151.31 19.8173 151.55ZM64.0673 223.05C62.8673 222.85 61.7173 222.15 60.6673 221.5C59.8673 222.05 58.8674 222.05 58.0174 221.6L57.7707 221.482C56.4821 220.864 55.0569 220.181 54.1173 219.1C53.9518 218.703 54.5535 217.889 55.0661 217.196C55.3276 216.842 55.566 216.52 55.6673 216.3L56.3673 215.3C56.4173 215.2 56.4173 215.2 56.5673 215.2C57.3436 215.268 58.0515 215.631 58.7372 215.984L58.7373 215.984C59.0674 216.153 59.3924 216.32 59.7174 216.45C61.1651 215.609 63.2671 217.081 64.5975 218.012L64.7352 218.108L64.7928 218.148L64.8673 218.2C64.9396 218.417 65.1165 218.294 65.2656 218.19C65.3227 218.151 65.3758 218.114 65.4173 218.1C65.559 218.029 65.7007 217.954 65.8435 217.879C66.2047 217.688 66.5732 217.493 66.9674 217.35C68.303 217.302 69.5476 218.21 70.6144 218.989L70.7673 219.1C71.0411 219.009 71.3044 218.834 71.5716 218.657L71.5717 218.657C71.8901 218.446 72.2139 218.232 72.5673 218.15C73.9173 218.35 75.2173 219.2 76.1673 220.15C76.8135 219.863 77.434 219.524 78.0471 219.189C78.288 219.058 78.5277 218.927 78.7673 218.8C79.0173 218.55 79.3673 218.55 79.6673 218.7C80.0673 218.8 83.2173 220.45 82.4173 220.8C79.8173 222.3 77.9674 223.35 75.2174 221.45L74.6173 221.05C74.5173 221.05 74.4173 221.15 74.3673 221.2C71.8173 222.9 70.6673 223 68.1173 221.25C67.8181 221.418 67.5159 221.611 67.2089 221.808C66.2334 222.432 65.2082 223.088 64.0673 223.05ZM100.067 64.65C100.517 65.35 101.217 65.95 101.967 66.3C102.205 66.3339 102.143 65.6536 102.094 65.1192C102.071 64.8664 102.051 64.6463 102.067 64.55C102.167 63.4 101.067 62.6 100.117 62.1C99.9349 62.0088 99.9744 62.5092 100.011 62.9716V62.9718C100.034 63.2698 100.057 63.552 100.017 63.65C100.039 63.778 100.033 63.9243 100.027 64.0732C100.018 64.2732 100.01 64.478 100.067 64.65ZM106.717 62.75C105.817 62.35 104.817 61.7 104.367 60.8C105.067 59.4 105.667 57.95 106.017 56.4C106.617 54.2 106.367 51.8 104.917 49.95C104.523 49.3898 104.077 48.864 103.633 48.3405L103.633 48.3405L103.633 48.3403C103.007 47.6024 102.385 46.869 101.917 46.05C101.081 47.4593 100.05 48.7523 99.0302 50.0313L99.0301 50.0315C98.8922 50.2045 98.7545 50.3772 98.6175 50.55C95.6675 53.7 95.5675 57.9 97.6175 61.55C99.0175 62.9 97.9175 62.55 97.0175 61.85C94.2175 59.65 92.9175 54.9 94.3675 51.6C94.9927 50.2836 95.9213 49.1622 96.8537 48.0361L96.8538 48.0359C97.338 47.4512 97.8232 46.8652 98.2675 46.25C99.2175 44.95 99.9674 43.5 100.667 42C101.418 42.0939 102.081 42.7603 102.614 43.2965L102.717 43.4C102.967 43.6 103.067 43.9 103.067 44.2C103.217 45.2 103.517 46.15 103.917 47.1C104.43 48.032 105.116 48.8446 105.804 49.6591L105.804 49.6592C106.593 50.5926 107.383 51.5286 107.917 52.65C109.667 55.85 108.367 59.7 106.867 62.75C106.801 62.7833 106.751 62.7833 106.717 62.75ZM43.8175 57C44.2175 57.95 45.2675 58.7 46.2175 59.2C47.9175 57.9 48.4674 55.3 48.4174 53.2C48.4517 50.0797 47.0046 47.3827 45.5597 44.6897C44.8976 43.4557 44.236 42.2226 43.7175 40.95C43.4175 40.25 43.1674 39.5 42.9174 38.75C42.4174 38.05 41.7175 37.3 40.8175 37C40.2675 38.15 39.5175 39.4 38.5175 40.3C37.7168 41.1735 36.7042 41.7526 35.6967 42.3288C34.6281 42.9399 33.5653 43.5477 32.7675 44.5C30.1675 48.6 32.0174 54.3 35.4174 57.4C35.472 57.4454 35.5298 57.4975 35.5907 57.5523C35.8645 57.7987 36.1993 58.1 36.5675 58.1C36.6034 58.0281 36.5877 57.9562 36.576 57.9028C36.5714 57.882 36.5675 57.864 36.5675 57.85C36.4056 57.6477 36.2329 57.4491 36.0591 57.2492C35.5884 56.7079 35.1096 56.1573 34.8175 55.5C33.6175 53.2 33.2675 50.3 34.1175 47.8C34.6908 45.8888 36.497 44.9364 38.1398 44.0702C38.2161 44.03 38.292 43.9899 38.3675 43.95C39.8675 43.1 41.1674 41.9 42.1175 40.5C42.527 41.4284 43.0112 42.3419 43.4966 43.2577C44.7889 45.696 46.0902 48.1513 46.0175 50.95C46.1675 53.2 45.3175 55.35 43.8175 57Z" fill="black"/>
</svg>
