<svg width="171" height="251" viewBox="0 0 171 251" fill="none" xmlns="http://www.w3.org/2000/svg">
<path fill-rule="evenodd" clip-rule="evenodd" d="M25.4065 46.5514C24.0565 52.1014 25.7065 55.7514 30.9565 58.1014C35.2565 59.6014 39.4065 56.6514 41.9065 53.3514C49.5565 61.1514 57.2565 45.9514 57.7065 39.3514C58.1065 35.9514 58.0065 32.4014 57.0565 29.1014C56.8996 28.8661 57.0197 28.8461 57.1511 28.8243C57.1872 28.8183 57.2242 28.8122 57.2565 28.8014C59.0065 28.5014 60.5065 27.4514 61.8065 26.3014C71.1065 18.9514 65.7565 2.15143 54.5065 0.251434C48.2565 0.151434 43.3065 5.30144 39.5065 9.70144C29.2565 -0.298562 19.8065 17.0514 15.8065 25.1014C13.5065 23.7014 11.0065 25.5514 10.2565 27.9014C8.70648 31.2514 10.3065 34.8014 12.7565 37.2514L12.8582 37.3735C14.3268 39.1367 15.8562 40.9729 18.0065 41.9014C18.9454 42.0795 18.5216 41.6234 17.6599 40.696C15.8601 38.759 12.1501 34.766 14.9565 30.2014C15.7565 31.7014 19.9565 35.9014 21.3565 33.4014C22.2065 31.7014 21.3065 29.7514 20.1065 28.4014C20.0398 28.3348 20.0565 28.2514 20.1565 28.1514C22.3565 23.1514 25.2065 18.3014 28.9565 14.3014C30.6565 12.4014 36.9065 7.35144 38.6565 10.8514C34.8065 15.9514 33.7565 18.1514 40.4565 21.0514C43.1565 21.0514 43.7065 17.4014 43.2065 15.3514C43.1086 14.9818 43.0131 14.7043 42.9365 14.4815C42.6605 13.6798 42.6283 13.5861 43.6065 12.4514C46.2565 8.80144 56.3065 -0.54856 60.3565 4.60144C65.0565 11.6514 63.2565 21.5514 55.2065 25.2014C49.3565 19.0514 47.9565 25.3014 54.1065 28.2514C55.9565 37.1014 53.0565 50.2014 43.4565 53.1014C42.96 51.8601 43.62 50.8319 44.278 49.8068C44.8128 48.9738 45.3461 48.1429 45.2565 47.2014L45.1215 47.0584C43.4873 45.3248 42.2245 43.9853 41.0565 47.0514C40.89 47.3843 40.7852 47.7787 40.6821 48.1664L40.682 48.1665C40.5993 48.4776 40.5178 48.7843 40.4065 49.0514C37.8065 52.7014 33.9065 56.3014 29.1065 55.6014C27.4065 50.3014 32.4065 34.2514 37.2565 31.1514C37.0065 32.5014 41.4065 35.7514 41.0565 34.4014C40.4565 31.3514 35.4065 25.8514 32.4565 29.2014C28.4065 34.0514 26.7065 40.5014 25.4065 46.5514ZM82.3563 58.5515C78.9063 58.5015 73.4063 55.2015 73.4563 51.4015C73.7063 49.5515 74.7063 47.8515 75.6563 46.3015C75.6063 46.2515 75.3563 46.3515 75.3063 46.4015C74.5495 46.6257 73.7828 46.8794 73.0124 47.1344C68.2859 48.6985 63.4176 50.3096 59.8063 45.4515C58.3203 44.156 61.8284 40.9152 64.1131 38.8045C64.8266 38.1454 65.4207 37.5965 65.7063 37.2515C67.9563 35.2015 70.3063 33.2515 72.9063 31.6515C75.4063 29.8015 77.5063 30.4015 79.6063 32.5515C80.9563 33.7515 81.6563 35.9515 79.1063 34.0515C76.8063 33.3515 67.9563 42.4015 66.0063 44.4515C67.9079 44.1033 70.0248 43.3964 72.1801 42.6767C74.0483 42.0529 75.9454 41.4194 77.7563 41.0015C79.1063 40.6515 82.7063 43.3015 82.5063 44.7515C82.0024 45.8065 81.3646 46.8268 80.7241 47.8514C79.3309 50.0803 77.9248 52.3297 77.8563 55.0015C82.5371 55.4453 86.4363 52.8281 90.1584 50.3298C91.0484 49.7324 91.9283 49.1418 92.8063 48.6015C93.9563 49.1015 95.2563 49.9515 95.8063 51.1015C95.3063 52.1015 95.0563 53.2015 95.0063 54.3515C97.8063 48.4015 96.6063 41.3515 94.2563 35.4515C93.9218 34.9387 93.4283 34.5253 92.9265 34.1049C92.3029 33.5826 91.6664 33.0495 91.3063 32.3015C90.9063 31.7515 90.4063 30.0015 91.6063 30.1015C93.3063 30.7515 94.8563 32.1515 95.7563 33.7015C95.7842 33.7434 95.8044 33.7932 95.8233 33.8398C95.8719 33.96 95.9122 34.0595 96.0563 33.9515C101.356 33.4015 108.506 28.9015 106.706 22.7515C104.656 14.8015 96.4063 16.0515 90.8063 19.4515C89.5076 20.2117 88.2491 21.0722 86.9925 21.9314C86.2656 22.4284 85.5393 22.925 84.8063 23.4015C83.5039 23.2667 82.3224 22.1235 81.3345 21.1675C81.2226 21.0592 81.1131 20.9532 81.0063 20.8515C80.9836 20.823 80.9563 20.7907 80.9266 20.7555C80.6948 20.4809 80.3131 20.0287 80.7563 19.8515C81.3896 19.4181 82.0396 18.9848 82.7063 18.5515C87.3063 15.3515 93.1063 12.2515 98.8563 14.1015C104.956 16.3515 113.306 23.9015 109.306 30.9015C106.656 34.5515 101.706 37.5015 97.2063 36.6515C99.2563 41.5515 100.556 47.0015 99.6063 52.3015C99.1563 54.6515 97.7563 60.3015 94.5063 57.6515C93.5063 56.9015 92.3563 56.0015 92.1063 54.6515C89.3063 56.8015 85.9563 58.5515 82.3563 58.5515ZM70.7376 117.273C70.9324 119.201 71.3761 121.053 73.0065 121.752C72.8439 120.236 72.7028 118.715 72.5822 117.19C73.5336 117.169 74.4866 117.183 75.4403 117.235C75.4137 118.021 75.4179 118.81 75.4563 119.601C75.8563 121.551 78.2563 122.901 79.9563 123.751C80.454 124.017 80.3572 122.543 80.2796 121.361C80.2403 120.761 80.2058 120.236 80.2563 120.051C80.291 118.988 80.3577 117.893 80.4676 116.788C81.8722 117.294 83.4924 117.239 85.0708 117.185L85.0713 117.184C85.556 117.168 86.0369 117.151 86.5063 117.151C86.963 117.156 87.4215 117.158 87.8813 117.161H87.8814C92.9082 117.192 98.0921 117.223 102.856 119.101C105.73 121.767 98.8913 122.871 95.4566 123.426L95.4563 123.426C94.7673 123.537 94.2154 123.626 93.9063 123.701C78.5063 125.201 62.8563 125.151 47.4063 124.251C52.6129 121.755 58.1796 119.533 63.9054 118.273C63.9301 118.914 63.9474 119.557 63.9565 120.201C63.7565 121.801 65.7065 122.851 66.9565 123.501C67.1083 121.629 67.116 119.68 67.0251 117.688C68.2577 117.498 69.4958 117.357 70.7376 117.273ZM86.1723 114.885H86.1724H86.1725C87.2761 114.936 88.3656 114.987 89.4063 115.001C93.5563 115.251 97.8063 115.751 101.606 117.601L101.747 117.675L101.831 117.72C103.802 118.753 108.54 121.237 105.656 123.351C99.65 125.655 93.1543 126 86.7585 126.34C86.0731 126.376 85.3887 126.413 84.7063 126.451C74.9563 126.901 65.1063 126.951 55.3063 126.801C54.8292 126.772 54.3194 126.75 53.7885 126.727C49.8675 126.558 44.7916 126.339 43.2063 122.551C46.0603 119.491 57.0234 116.156 63.7266 115.095C63.5939 113.276 63.4136 111.464 63.2065 109.652C61.8565 99.5015 59.8065 89.4515 57.6565 79.5015C57.1948 77.4417 56.7268 75.3881 56.2592 73.3364L56.2591 73.3362L56.2584 73.333L56.2584 73.3328L56.2583 73.3327L56.2583 73.3325L56.2583 73.3323L56.2582 73.3322L56.2582 73.332L56.2582 73.3319L56.2581 73.3317L56.2581 73.3315L56.2581 73.3314L56.258 73.3312C55.4094 69.6076 54.5621 65.8899 53.7565 62.1515C53.7565 61.874 53.6327 61.4344 53.5062 60.9846C53.1994 59.8948 52.8761 58.7458 54.2565 59.7015C57.0565 61.2515 57.6065 62.9515 58.0565 65.9515C60.6065 77.1515 63.0565 88.4515 64.8065 99.8015C64.9897 101.084 65.1882 102.392 65.3891 103.715L65.3891 103.716L65.3892 103.716L65.3892 103.716C65.9407 107.349 66.5097 111.097 66.828 114.759C66.9771 114.754 67.12 114.751 67.2563 114.751C67.7798 114.751 68.3161 114.743 68.8604 114.735C69.4139 114.726 69.9756 114.717 70.5401 114.717C70.4972 114.243 70.4419 113.797 70.3565 113.402C70.0065 109.052 69.8065 104.702 69.7065 100.402C69.2565 85.7516 70.2565 71.1015 72.1565 56.6016C71.8565 54.7015 76.1065 58.4515 75.4065 59.2015C74.0071 69.3162 72.873 79.6359 72.3414 89.9474C73.3344 86.4879 79.7817 84.7305 83.4216 83.7383L83.5564 83.7015C83.3973 83.5911 83.2168 83.4697 83.0228 83.3392C81.0206 81.993 77.5775 79.6778 81.4064 78.4015C82.4746 77.8674 83.5351 77.3178 84.5949 76.7685L84.5953 76.7683L84.5957 76.7681L84.5961 76.7679L84.5965 76.7677L84.5969 76.7675C88.1992 74.9005 91.7935 73.0376 95.6564 71.8015C89.9564 66.9015 105.506 63.8515 108.606 63.8515C112.556 63.7015 116.456 65.1015 119.556 67.5515C122.206 69.7015 125.956 72.9515 124.706 76.7015C123.322 79.0864 120.605 80.1692 118.014 81.202C117.237 81.5118 116.472 81.817 115.756 82.1515C120.506 85.4015 121.956 87.6015 115.506 89.7515C108.106 92.4515 99.7064 94.8015 91.9064 93.0515C90.5064 92.4515 87.1064 90.5515 89.0064 88.9515C91.4564 86.9015 95.6064 85.0015 97.8564 88.2015C97.942 88.4584 97.7527 88.3487 97.4453 88.1706C97.0349 87.9327 96.4139 87.5728 95.9564 87.8015C94.3564 88.0515 91.3064 89.9515 91.1564 91.2515C98.4064 91.8015 105.856 90.0015 112.556 87.3015C112.928 87.0758 113.42 86.8819 113.933 86.6794C115.352 86.1193 116.937 85.494 116.606 83.9515C116.042 83.7007 115.443 83.5635 114.845 83.4266C114.013 83.236 113.184 83.0462 112.456 82.5515C112.341 82.4647 112.193 82.3606 112.026 82.2433L112.026 82.2431C110.754 81.3464 108.392 79.6821 110.956 79.1515C111.788 78.8006 112.65 78.4868 113.517 78.1716C115.983 77.2741 118.482 76.3647 120.406 74.5515C122.006 72.8015 120.906 70.1515 119.456 68.6515C118.056 67.8015 116.406 67.4015 114.856 67.2015C109.606 66.7515 104.106 68.4015 99.7064 71.2515C101.106 71.8515 103.256 73.0515 103.756 74.7015C103.017 75.7692 101.469 75.2855 100.274 74.9123C100.014 74.8311 99.7708 74.7551 99.5564 74.7015C97.183 75.4318 94.9346 76.537 92.6971 77.6369L92.697 77.637L92.692 77.6394C92.4801 77.7436 92.2682 77.8477 92.0564 77.9515C91.3287 78.3433 90.5893 78.7312 89.847 79.1207C87.9367 80.1228 86.0067 81.1353 84.2064 82.2515C84.2564 82.3015 84.3564 82.3515 84.4064 82.3515C85.4564 82.8515 90.5064 85.8015 87.9064 86.8515C87.2759 87.0958 86.5434 87.3377 85.764 87.5951C81.5987 88.9705 76.0901 90.7894 77.6064 95.8015C78.5721 97.9341 82.3874 98.8686 85.2476 99.5692C85.9415 99.7391 86.5792 99.8953 87.1064 100.052C88.9528 100.589 89.2664 100.314 89.8332 99.8188C90.1105 99.5763 90.4485 99.2808 91.0564 99.0015C92.246 99.4039 93.1786 99.9593 94.0768 100.494C95.7457 101.488 97.2959 102.412 100.156 102.152C104.856 101.652 109.706 99.2515 112.956 95.9015C113.012 95.6794 112.876 95.3613 112.758 95.0869C112.558 94.6199 112.412 94.2792 113.356 94.7515C114.956 95.6515 116.706 96.9015 117.156 98.8015C116.844 99.9805 115.715 100.679 114.634 101.346C114.157 101.641 113.689 101.93 113.306 102.252C108.856 105.202 103.056 107.002 98.0564 104.452C97.1064 104.002 96.1564 103.452 95.3064 102.852C94.5845 105.9 89.8415 104.154 86.7282 103.009C85.9601 102.726 85.2912 102.48 84.8064 102.352C80.7064 100.652 76.9064 98.0015 73.9564 94.6015C72.9553 93.4562 72.4278 92.4245 72.2662 91.4944C71.9104 99.2907 71.9088 107.076 72.4073 114.759C73.4877 114.814 74.557 114.936 75.5778 115.185C75.938 111.563 76.8953 108.007 78.1063 104.551C78.223 104.201 78.3568 103.868 78.4877 103.542C78.5811 103.309 78.673 103.08 78.7563 102.851C78.771 102.808 78.777 102.772 78.782 102.743C78.7942 102.672 78.8002 102.637 78.9063 102.601C80.7063 103.201 82.5563 104.651 83.4063 106.251C81.9892 108.771 81.1671 111.766 80.7152 114.788C82.4665 114.712 84.3386 114.799 86.1721 114.885H86.1722H86.1723ZM77.0565 232.052C68.6565 227.952 59.2065 222.502 55.2565 213.602C53.4565 209.152 54.7065 204.302 55.9065 199.852C62.7565 180.452 64.6065 163.602 51.2065 146.402C50.2675 144.82 48.9485 143.325 47.6161 141.816L47.6161 141.815C44.9048 138.743 42.1383 135.608 42.4065 131.552C42.4065 131.452 42.4065 131.352 42.4565 131.302C42.5274 131.231 42.6737 131.26 42.7885 131.284L42.7886 131.284C42.8357 131.293 42.8774 131.302 42.9065 131.302C46.0277 132.563 46.0278 133.207 46.0281 134.427C46.0282 135.141 46.0284 136.053 46.6565 137.402C48.3092 140.075 50.3046 142.5 52.3037 144.931L52.3038 144.931C54.4173 147.5 56.5349 150.074 58.2565 152.952C65.5565 163.552 67.7065 177.202 64.9565 189.702C64.4814 192.388 63.7487 195.059 63.0151 197.732C61.5097 203.219 60.0005 208.72 60.7065 214.402C61.8565 220.452 66.6565 224.902 71.8065 227.852C71.99 227.981 72.4277 228.232 72.9822 228.55C74.995 229.703 78.5462 231.738 77.0565 232.052ZM87.4065 229.451C88.3565 231.051 90.3565 232.101 92.0565 232.751C96.9065 230.151 100.706 225.301 103.406 220.551C107.674 212.885 106.265 204.278 104.889 195.871C104.444 193.147 104.001 190.444 103.756 187.801C102.656 177.751 102.406 167.651 102.606 157.551C102.706 150.301 103.306 143.001 105.756 136.151C106.556 133.701 107.506 131.301 108.506 128.951C108.706 128.701 108.606 128.451 108.406 128.301C108.375 128.276 108.335 128.244 108.288 128.205C107.591 127.64 105.325 125.802 104.856 126.551L104.856 126.552C103.856 129.002 102.856 131.451 102.006 133.951C99.6065 140.801 98.9565 148.101 98.7565 155.301C98.4565 165.301 98.6565 175.351 99.5565 185.351C99.7986 187.395 100.069 189.374 100.332 191.297C102.295 205.647 103.822 216.81 89.7565 227.701C89.3698 228.036 88.9433 228.332 88.5248 228.621L88.5247 228.621C88.1315 228.894 87.7456 229.161 87.4065 229.451ZM88.4959 250.375L88.4902 250.374C79.2926 249.78 58.5908 248.441 55.8064 241.201C56.195 240.944 56.5933 240.686 56.9963 240.425L56.9981 240.424C60.587 238.1 64.5474 235.536 65.3564 230.951C65.2064 230.501 65.7564 230.651 65.9564 230.751C67.2064 231.251 70.3564 232.901 70.4564 234.201C69.1564 238.751 65.3564 242.251 61.0064 243.951C64.6725 245.511 70.103 246.159 75.0437 246.748L75.0452 246.748L75.0471 246.748L75.0491 246.749C76.4406 246.914 77.7931 247.076 79.0564 247.251C88.0564 248.601 93.2564 247.351 101.656 244.151C99.6564 242.301 97.4064 240.001 96.0564 237.451C94.5564 235.301 97.9564 237.551 98.5564 238.001C99.4606 238.615 99.9893 239.541 100.52 240.471C100.811 240.98 101.102 241.491 101.456 241.951C102.028 242.904 102.837 243.635 103.641 244.361C104.313 244.968 104.982 245.573 105.506 246.301C105.538 246.833 103.866 247.306 102.402 247.721L102.402 247.721C101.526 247.969 100.725 248.196 100.406 248.401C97.2064 249.551 93.8564 250.601 90.4064 250.501C89.8473 250.462 89.2059 250.421 88.4959 250.375ZM68.3063 211.251C68.9063 211.951 69.7063 212.601 70.5563 212.951C70.6229 212.985 70.6729 212.985 70.7063 212.951C70.7396 212.918 70.7563 212.868 70.7563 212.801C70.7063 211.301 70.7063 209.851 70.7563 208.401C70.8563 204.301 71.2063 200.201 71.7563 196.151C71.9592 194.528 72.1916 192.904 72.4241 191.279C72.9937 187.3 73.5642 183.313 73.7063 179.301C73.8063 173.001 73.0063 166.601 70.7563 160.701C69.3563 157.101 67.8063 153.601 66.2063 150.051L66.1163 149.843C65.0443 147.36 63.9508 144.827 63.7563 142.151C63.7497 142.002 63.7424 141.852 63.735 141.704C63.6861 140.715 63.6389 139.758 63.8563 138.801C63.9063 138.701 63.8063 138.601 63.7563 138.551C63.5563 138.301 63.2563 138.001 62.9063 137.951C62.8328 137.988 62.7863 138.106 62.747 138.205L62.747 138.205C62.7328 138.241 62.7195 138.275 62.7063 138.301C61.8563 141.401 62.7063 144.651 63.8563 147.551C64.3796 148.847 64.8884 150.075 65.3779 151.257L65.378 151.257C68.6301 159.11 71.0324 164.91 71.2063 174.601C71.2926 180.043 70.5004 185.401 69.7078 190.762C69.1238 194.712 68.5396 198.664 68.3063 202.651C68.1563 205.151 68.0563 207.601 68.1563 210.101C68.1563 210.19 68.1514 210.281 68.1464 210.372C68.1291 210.693 68.1116 211.018 68.3063 211.251ZM83.2563 206.002C81.1587 205.181 81.1405 203.819 81.1156 201.955V201.955V201.954V201.954C81.1132 201.774 81.1107 201.59 81.1064 201.402C80.9427 197.573 81.1861 193.765 81.4298 189.951L81.4298 189.951L81.4298 189.951L81.4299 189.95L81.4299 189.95L81.4299 189.949L81.4299 189.949L81.4299 189.949L81.43 189.948L81.43 189.948L81.43 189.947L81.43 189.947L81.4301 189.947L81.4301 189.946C81.5587 187.934 81.6873 185.921 81.7563 183.902C82.1563 170.902 81.4563 157.752 78.2563 145.102C78.171 144.779 78.0838 144.456 77.9965 144.134C77.6238 142.755 77.2494 141.37 77.0063 139.952C77.347 139.762 77.8021 140.117 78.1768 140.41L78.177 140.41C78.2972 140.504 78.4092 140.591 78.5063 140.652C79.7538 141.364 79.9691 142.474 80.2134 143.733L80.2138 143.735L80.215 143.741C80.2444 143.893 80.2742 144.046 80.3064 144.202C80.3975 144.595 80.4891 144.989 80.5808 145.383C81.445 149.098 82.3187 152.854 82.9064 156.652C85.2333 170.198 84.4523 184.158 83.6916 197.758L83.6916 197.758L83.6915 197.759L83.6915 197.759L83.6915 197.76L83.6915 197.76L83.6914 197.761C83.5368 200.525 83.383 203.274 83.2563 206.002ZM91.9064 218.352C91.3564 219.702 92.6064 220.452 93.6564 220.902H93.8064C95.0564 215.002 95.4564 208.952 95.5564 202.902C95.6118 200.78 95.7352 198.651 95.8589 196.518C96.0704 192.871 96.2826 189.211 96.1564 185.552C96.211 181.513 95.223 177.653 94.233 173.785C93.409 170.565 92.5835 167.34 92.3564 164.002C92.1564 156.752 92.3064 149.302 94.4064 142.302C94.7564 141.052 95.1564 139.752 95.6564 138.552C95.3564 138.102 94.7564 137.602 94.2064 137.552C90.9064 146.252 90.1064 155.852 90.7064 165.052C90.9951 167.627 91.6289 170.134 92.2619 172.638C93.0542 175.771 93.8452 178.9 93.9564 182.152C94.275 188.7 93.8668 195.274 93.4593 201.837L93.4593 201.837L93.4593 201.838L93.4593 201.838L93.4592 201.839L93.4592 201.839L93.4592 201.84L93.4592 201.84L93.4591 201.841L93.4591 201.841L93.4591 201.842L93.4591 201.842L93.4591 201.843C93.291 204.548 93.1231 207.252 93.0064 209.952C92.8573 212.076 92.5415 214.145 92.2246 216.221C92.1165 216.93 92.0082 217.639 91.9064 218.352ZM20.2563 100.352C19.0563 106.152 24.9063 110.552 29.8063 112.052C37.4563 113.702 44.7563 108.252 49.0563 102.352C54.0563 102.002 57.0563 96.2515 56.7563 91.5015C56.6063 86.0515 54.9563 78.8515 48.6063 77.9515C42.7063 67.0515 31.8063 64.3515 24.6063 75.8515C23.2615 77.4465 23.6772 77.7113 23.9448 77.8817C24.105 77.9837 24.2121 78.0519 23.8563 78.3515C18.5063 83.6515 10.8563 95.3015 20.2563 100.352ZM25.6567 108.602C24.1067 107.152 24.2067 104.352 24.7067 102.352C24.74 102.218 24.7734 102.101 24.8067 102.001C27.8567 102.301 34.9567 98.5515 31.3067 95.1515C26.7567 90.2015 22.5567 93.7015 20.6567 98.9015C17.3567 97.2515 22.5067 86.6015 24.4567 84.4515C25.39 83.1848 26.4234 82.0015 27.5567 80.9015C27.6714 80.672 27.7862 80.7059 27.9293 80.7481C28.0356 80.7794 28.1575 80.8154 28.3067 80.7515C30.3567 77.5015 35.2567 74.9515 39.1067 76.1015C41.2567 78.7015 42.2567 84.8515 37.9067 85.7515C37.3067 85.7515 37.7567 86.2015 38.0067 86.4015C39.7067 88.5515 42.3567 86.9515 43.0067 84.7015C46.5567 88.3515 48.5067 88.5515 49.5067 83.1015C49.5067 82.2461 50.4213 81.7931 51.1553 81.4297C51.2793 81.3682 51.3982 81.3093 51.5067 81.2515C53.0567 86.3515 54.0067 92.8515 49.9067 97.0515C48.9067 96.1015 47.7067 95.0515 46.3067 94.8015C44.2067 95.0015 43.1567 98.2015 44.9567 99.5015C42.0067 103.201 38.1567 106.301 33.7567 108.001C31.2067 108.951 28.3067 109.402 25.6567 108.602ZM110.756 57.0515C109.256 56.4515 107.606 55.4515 106.856 54.0015C106.946 51.1687 107.724 48.4573 108.498 45.758L108.499 45.753C108.585 45.4524 108.671 45.152 108.756 44.8515C111.756 35.3515 116.356 26.0515 124.056 19.4515C124.433 19.1773 124.816 18.8692 125.207 18.554L125.207 18.5539C126.527 17.4896 127.948 16.3444 129.606 16.1515C131.106 16.7515 132.956 17.8515 133.606 19.4515C133.539 20.3935 133.064 21.2676 132.593 22.1348C132.364 22.5563 132.136 22.9762 131.956 23.4015C131.839 23.6699 131.705 23.9495 131.569 24.2328C131.299 24.7941 131.023 25.3699 130.856 25.9015C133.556 24.1515 136.256 22.4015 139.106 20.9015C145.306 17.6015 151.906 14.2515 158.956 13.8015C161.006 13.9515 162.956 15.4015 164.056 17.0515C164.55 19.9349 157.673 23.1638 153.038 25.3401L153.038 25.3402C151.565 26.0319 150.318 26.6174 149.606 27.0515C154.406 26.9515 161.156 27.4515 165.606 30.8515C165.877 31.0582 166.165 31.2679 166.461 31.4832C168.24 32.778 170.292 34.2721 170.506 36.5015C170.039 38.0903 168 37.9322 166.592 37.8231C166.493 37.8155 166.398 37.8081 166.306 37.8015C164.565 37.6895 162.692 37.4967 160.746 37.2964L160.746 37.2964C153.137 36.5133 144.428 35.6169 138.256 39.0015C139.937 39.3775 141.638 39.6753 143.337 39.9727C145.478 40.3475 147.615 40.7218 149.706 41.2515C155.098 43.7326 151.11 45.0299 147.823 46.0992C147.666 46.1505 147.51 46.2012 147.356 46.2515C145.289 46.7638 143.174 47.0753 141.06 47.3868C137.396 47.9265 133.73 48.4664 130.306 50.0515C127.056 51.4015 124.056 53.7015 122.756 57.0015C121.256 56.5515 119.756 55.4015 118.856 54.1015C119.556 50.4515 123.406 48.7515 126.506 47.4015C129.917 45.9681 133.584 45.5608 137.254 45.1532C141.009 44.7361 144.767 44.3187 148.256 42.8015C147.486 42.6745 146.671 42.5676 145.834 42.4579L145.833 42.4579C141.398 41.8767 136.352 41.2155 134.206 37.0515C136.489 32.8813 148.368 33.9524 154.584 34.5128L154.584 34.5129C155.448 34.5908 156.202 34.6588 156.806 34.7015C157.715 34.6679 159.02 34.8947 160.42 35.1381C163.181 35.6179 166.312 36.1621 167.506 34.9015C168.027 32.0628 164.115 30.9253 161.829 30.2605C161.699 30.2227 161.575 30.1865 161.456 30.1515C158.056 29.3515 154.556 29.4015 151.156 29.6015C150.524 29.6126 149.872 29.6705 149.216 29.7287C146.916 29.9328 144.568 30.1412 142.856 28.3515C142.766 28.2609 142.662 28.1702 142.555 28.077C142.248 27.8102 141.918 27.522 141.806 27.1515C142.751 26.3289 143.974 25.7847 145.181 25.2475L145.181 25.2475C145.955 24.9031 146.723 24.5617 147.406 24.1515C148.206 23.7371 149.017 23.3319 149.831 22.9257C153.237 21.2244 156.681 19.504 159.506 17.0015C152.856 17.8515 144.756 22.1515 138.456 25.9015C137.23 26.5146 136.082 27.3466 134.935 28.178C133.182 29.4487 131.431 30.7179 129.406 31.2015C124.766 29.2329 125.223 28.0113 126.616 24.2828C126.709 24.0339 126.806 23.7738 126.906 23.5015C117.506 32.0015 112.506 45.3015 110.756 57.0515ZM142.305 124.825C144.965 126.359 147.626 127.893 151.856 128.552C159.056 128.402 162.106 123.052 154.856 119.052C150.682 116.578 145.94 115.538 141.208 114.501L141.207 114.501L141.207 114.501C139.818 114.196 138.429 113.892 137.056 113.552C132.734 112.741 136.143 112.66 139.305 112.586C140.825 112.55 142.287 112.515 142.806 112.402C175.106 108.952 162.206 99.2515 138.606 102.052C133.656 102.602 128.756 103.552 124.056 105.252C122.656 105.802 111.456 110.202 116.056 111.652C124.656 103.352 148.606 101.602 159.556 104.652C154.249 109.596 142.437 109.972 134.542 110.224C133.736 110.249 132.97 110.274 132.256 110.302C128.556 110.802 134.856 114.602 136.056 114.952C137.533 115.652 140.45 116.259 143.598 116.914C148.764 117.99 154.55 119.194 155.606 121.152C155.656 123.752 152.606 125.102 150.406 125.452C146.658 126.159 143.561 124.215 140.494 122.292C139.224 121.495 137.96 120.702 136.656 120.102C131.606 117.652 125.856 117.002 120.306 117.352C116.056 117.752 111.906 118.802 107.856 120.002C108.206 121.502 110.706 123.052 112.106 123.652C113.288 123.374 114.465 123.061 115.644 122.748L115.645 122.748L115.645 122.748L115.645 122.747C118.707 121.934 121.78 121.118 124.956 120.902C134.301 120.21 138.301 122.517 142.305 124.825ZM11.6565 163.551C8.25645 162.751 5.70646 159.401 6.70646 155.901C7.07295 152.885 7.86862 149.98 8.66327 147.078C9.27799 144.834 9.8921 142.591 10.3065 140.301C9.32159 140.622 8.41017 141.184 7.5049 141.742C6.43394 142.403 5.37159 143.058 4.20646 143.301C2.60646 142.501 0.106451 141.101 0.256451 139.101C1.55645 130.851 6.00645 125.901 12.9065 121.601C13.1482 121.443 13.3972 121.278 13.6524 121.109C17.5158 118.55 22.811 115.042 25.9065 120.201C25.7594 120.201 25.6394 120.12 25.5464 120.058L25.5464 120.057C25.5129 120.035 25.4829 120.015 25.4565 120.001C25.1878 119.889 24.9794 119.667 24.7727 119.447C24.5177 119.175 24.2655 118.907 23.9065 118.851C21.1679 119.039 18.9359 120.803 16.7671 122.517L16.767 122.517C16.0453 123.087 15.3306 123.652 14.6065 124.151C9.85646 127.701 5.60645 132.401 4.75645 138.501C8.65645 136.251 11.0065 136.351 13.6065 140.301C14.0837 141.853 13.6751 143.499 13.2867 145.064C13.1868 145.466 13.0883 145.863 13.0065 146.251C12.8067 147.033 12.5994 147.816 12.3917 148.601C11.4033 152.335 10.4043 156.109 10.1565 159.951C14.459 156.192 16.7375 150.792 18.9452 145.56C19.3801 144.529 19.8122 143.505 20.2565 142.501C20.4132 141.992 20.8462 142.25 21.1947 142.458C21.2909 142.515 21.3807 142.569 21.4565 142.601C23.2212 143.502 23.5851 144.765 23.6506 146.28C23.6362 146.903 23.6383 147.527 23.6565 148.151C23.6565 147.949 23.6583 147.75 23.6601 147.554C23.6642 147.112 23.6682 146.687 23.6506 146.28C23.834 138.313 26.7034 130.499 33.0565 125.351C33.5065 124.951 33.9509 124.54 34.3954 124.129L34.3955 124.129C35.2843 123.307 36.1732 122.485 37.1065 121.751C38.3065 122.101 39.4065 123.051 40.2065 124.001C40.6753 124.403 40.0227 124.895 39.4503 125.326C39.1682 125.538 38.9055 125.736 38.8065 125.901C27.0708 135.029 26.8593 143.146 26.5357 155.561C26.4995 156.951 26.4618 158.396 26.4065 159.901C26.3598 162.796 24.6999 161.244 23.4218 160.048C23.3312 159.964 23.2425 159.881 23.1565 159.801C22.09 158.367 21.8079 156.473 21.5344 154.637C21.436 153.976 21.3387 153.323 21.2065 152.701C21.1346 152.438 21.1087 152.014 21.0846 151.622C21.0585 151.195 21.0346 150.806 20.9565 150.701C20.3898 152.035 19.7898 153.368 19.1565 154.701C18.7298 155.391 18.3199 156.161 17.8984 156.954L17.8983 156.954C16.3937 159.782 14.7421 162.887 11.6565 163.551ZM138.132 85.4055C137.584 88.0812 137.185 90.0272 142.156 92.2514C146.202 92.8231 150.055 89.8752 153.305 87.3877C153.751 87.0469 154.185 86.7147 154.606 86.4015C160.206 81.7515 164.706 73.3515 156.306 68.9015C156.268 68.8437 156.125 68.771 155.976 68.695C155.738 68.5736 155.483 68.4437 155.606 68.3514C156.873 67.8514 158.14 67.3181 159.406 66.7514C176.956 59.6014 158.106 46.6514 147.256 51.5514C144.856 52.6514 138.206 56.3515 142.206 59.1015C142.395 59.2378 142.584 59.3828 142.774 59.5294C143.493 60.0815 144.237 60.6539 145.106 60.8515C145.302 60.712 145.357 60.4482 145.411 60.19C145.454 59.9853 145.496 59.7841 145.606 59.6515C148.756 54.1015 156.206 52.4514 161.956 54.5014C162.656 54.6014 162.856 55.3514 163.006 56.0014C163.506 60.9128 158.289 62.8792 154.074 64.4674C153.226 64.7871 152.419 65.0915 151.706 65.4015C151.496 65.5514 151.062 65.6744 150.594 65.8068C149.501 66.1158 148.226 66.4763 149.206 67.3514C150.729 69.3678 152.963 69.8263 155.211 70.2877C155.694 70.387 156.178 70.4864 156.656 70.6014C158.856 78.6515 148.106 85.9014 141.656 88.7514C143.606 81.1514 138.856 77.5014 131.706 77.2514C131.356 73.5514 135.556 68.3514 138.306 65.7014C138.379 65.7432 138.479 65.8176 138.59 65.901C139.011 66.2173 139.606 66.6637 139.606 65.9514C139.617 65.88 139.631 65.8086 139.645 65.7376C139.701 65.4607 139.755 65.1902 139.556 64.9514C138.656 63.7514 137.056 62.8015 135.806 64.1015C133.456 66.0515 131.556 68.5014 129.956 71.1014C128.556 73.3015 127.306 76.0514 130.106 77.7514C132.231 79.7816 135.113 80.0731 137.87 80.3519C138.032 80.3683 138.195 80.3847 138.356 80.4015C138.754 82.3726 138.422 83.991 138.132 85.4055Z" fill="black"/>
</svg>
