<svg width="126" height="148" viewBox="0 0 126 148" fill="none" xmlns="http://www.w3.org/2000/svg">
<path fill-rule="evenodd" clip-rule="evenodd" d="M11.6499 59.2709C10.5499 58.9209 9.2999 58.321 8.6499 57.371C8.68994 55.4892 9.33908 53.7037 9.98124 51.9373L9.98128 51.9372L9.98131 51.9371L9.98134 51.9371L9.98147 51.9367C10.1412 51.4973 10.3005 51.0591 10.4499 50.621C13.5165 43.1964 17.6252 36.2604 21.7247 29.3398L21.7248 29.3398L21.7248 29.3398L21.725 29.3394L21.7252 29.3391L21.7254 29.3387L21.7256 29.3384L21.7258 29.338L21.726 29.3377L21.7262 29.3373L21.7264 29.337L21.7266 29.3366L21.7268 29.3363L21.727 29.3359L21.7272 29.3356L21.7274 29.3352L21.7276 29.3349L21.7279 29.3345C22.7072 27.6813 23.686 26.0289 24.6499 24.371C29.0499 17.221 34.0999 10.3209 40.2499 4.52095C40.5293 4.28078 40.8027 4.04062 41.0716 3.80435L41.0718 3.80423C43.8821 1.33517 46.208 -0.708268 49.9499 2.12095C52.9622 3.68986 53.8281 6.75533 54.6978 9.83443C55.214 11.6618 55.7316 13.4939 56.6999 15.0209C57.283 15.8732 59.8377 14.7538 61.0433 14.2256L61.0433 14.2255L61.0435 14.2255C61.1817 14.1649 61.3022 14.1121 61.3999 14.071C63.2023 13.2985 64.9457 12.3552 66.6909 11.4109C70.0292 9.6046 73.3739 7.79483 77.1499 7.17097C80.4499 6.42097 83.5499 8.27095 86.0499 10.121C92.3499 15.121 90.7999 26.921 89.4999 33.921C89.0332 36.221 88.5832 38.5376 88.1499 40.871C88.1382 40.9061 88.132 40.9413 88.1261 40.9745C88.1069 41.083 88.0913 41.171 87.8999 41.171C86.1499 40.821 84.4999 39.7209 83.1499 38.5209C82.8999 38.3209 82.7999 38.071 82.8999 37.671C83.2374 35.7207 83.6594 33.7705 84.0813 31.8203C84.2219 31.1705 84.3624 30.5207 84.4999 29.871C85.7499 23.521 86.3499 16.421 83.4499 10.421C79.5902 10.8237 76.1585 12.6233 72.7163 14.4284C71.0306 15.3124 69.3422 16.1977 67.5999 16.921C63.9999 18.871 60.0499 19.1709 56.5499 16.7709C54.0499 15.3709 51.7499 13.271 50.8499 10.471C50.5288 9.53055 50.2603 8.56909 49.9913 7.6059C49.6739 6.46943 49.3558 5.33055 48.9499 4.22096C48.9499 4.22096 48.4499 4.52097 48.4499 4.57097C37.9361 12.2393 30.8647 23.5362 24.0499 34.4232L24.0476 34.4269L24.0465 34.4287L24.0319 34.452C23.7876 34.8423 23.5437 35.232 23.2999 35.621C22.5888 36.8195 21.8534 38.0269 21.1123 39.2437C17.216 45.6413 13.1623 52.2973 11.6499 59.2709ZM66 50.1709C64.6 50.2709 69.05 53.5709 69.65 53.5209C72.6093 53.3635 75.509 52.6313 78.4117 51.8983C80.1193 51.4671 81.8278 51.0357 83.55 50.7209C83.45 49.6209 80.95 47.9709 79.9 47.5209C79.3243 47.3929 78.7281 47.5515 78.1376 47.7085C77.805 47.7969 77.4743 47.8849 77.15 47.9209C75.7702 48.1633 74.3904 48.5309 73.008 48.8991L73.0079 48.8992C70.6834 49.5184 68.3515 50.1396 66 50.1709ZM25.1001 60.821C24.0501 60.371 22.8501 59.621 22.3501 58.621C22.7876 58.4648 23.3227 58.4062 23.8579 58.3476C24.179 58.3124 24.5001 58.2773 24.8001 58.221C28.0509 57.7403 31.2807 57.0814 34.5135 56.4218L34.5136 56.4218L34.5137 56.4218L34.5137 56.4218L34.5138 56.4217L34.5139 56.4217L34.514 56.4217L34.5141 56.4217L34.5141 56.4217L34.5142 56.4217L34.5143 56.4217L34.5144 56.4217L34.5144 56.4216C38.3421 55.6407 42.1741 54.8589 46.0501 54.371L46.0518 54.3708C46.8013 54.2709 47.5506 54.171 48.2501 54.071C49.6501 54.471 50.9501 55.521 51.7501 56.6711C51.8001 56.8211 51.8001 56.871 51.6501 56.871C50.2168 57.071 48.7668 57.2544 47.3001 57.4211C43.26 57.8278 39.2493 58.5286 35.244 59.2284L35.2439 59.2285C31.8635 59.8191 28.4871 60.4091 25.1001 60.821ZM67.35 67.371C56.75 64.721 45.95 63.721 35.05 63.771C33.2543 63.771 31.4339 63.7021 29.6048 63.6329C23.6415 63.4073 17.5865 63.1783 12 65.321C11.45 65.521 10.75 64.771 10.5 64.321C10.657 64.1954 10.8337 64.129 11.0177 64.0598C11.1268 64.0188 11.2384 63.9768 11.35 63.921C15.9588 62.2187 20.9468 62.2058 25.856 62.1931C26.8586 62.1906 27.8579 62.188 28.85 62.171C30.7072 62.1988 32.5605 62.2073 34.411 62.2158H34.4114H34.4117H34.4121H34.4125H34.4129H34.4133H34.4136H34.414H34.4144H34.4148H34.4151H34.4155H34.4159H34.4163H34.4167H34.417H34.4174H34.4178H34.4182H34.4185H34.4189H34.4193C39.2421 62.2378 44.0461 62.2598 48.85 62.621C52.8477 62.9256 56.7584 63.694 60.6704 64.4628L60.6705 64.4628C61.896 64.7036 63.1216 64.9444 64.35 65.171C65.25 64.971 68.2 67.121 67.35 67.371ZM64.3501 100.321C56.645 96.4684 48.0569 95.0881 39.623 93.7325C39.0813 93.6455 38.5402 93.5585 38.0001 93.471C34.3117 92.9993 30.6602 92.3068 27.0099 91.6145L27.0098 91.6145L27.0097 91.6145L27.0096 91.6145L27.0095 91.6144L27.0094 91.6144L27.0093 91.6144L27.0092 91.6144L27.0091 91.6143L27.009 91.6143L27.0089 91.6143L27.0088 91.6143L27.0087 91.6143L27.0086 91.6142L27.0085 91.6142L27.0084 91.6142L27.0083 91.6142L27.0082 91.6141L27.0081 91.6141L27.008 91.6141L27.0079 91.6141L27.0078 91.6141L27.0077 91.614L27.0076 91.614L27.0075 91.614L27.0074 91.614L27.0073 91.6139L27.0072 91.6139L27.0071 91.6139L27.007 91.6139L27.0068 91.6138L27.0067 91.6138L27.0066 91.6138L27.0065 91.6138L27.0064 91.6138L27.0063 91.6137L27.0062 91.6137L27.0061 91.6137L27.006 91.6137L27.0059 91.6136L27.0058 91.6136L27.0057 91.6136C22.1462 90.6919 17.2889 89.7706 12.3501 89.371C11.8729 89.371 11.5087 88.9946 11.1594 88.6338C11.106 88.5787 11.0531 88.524 11.0001 88.471C10.6877 88.1239 11.7968 88.2587 12.6048 88.3569C12.9608 88.4001 13.2583 88.4363 13.3501 88.421C17.018 88.8084 20.6726 89.3694 24.3346 89.9314L24.3349 89.9315C27.7612 90.4574 31.194 90.9843 34.6501 91.371C36.576 91.6884 38.7192 91.9387 40.965 92.201L40.9653 92.201C49.3304 93.1778 59.1182 94.3208 64.4001 99.721C64.5501 99.871 64.9001 100.471 64.3501 100.321ZM52.5501 85.321C53.7001 86.371 55.0501 87.471 56.6501 87.671C57.2617 87.6895 57.9007 87.502 58.5392 87.3146C59.6234 86.9964 60.7061 86.6787 61.6501 87.3709C61.6955 87.3823 61.7769 87.4194 61.8751 87.4641C62.2096 87.6165 62.7387 87.8575 62.7001 87.471C61.8501 85.721 59.8501 84.571 58.1001 83.921C57.3942 83.7798 56.6883 83.9376 55.9824 84.0954L55.9821 84.0954C55.6881 84.1611 55.3941 84.2268 55.1001 84.2709L55.0682 84.2818C55.0245 84.2967 55.0028 84.3042 54.9842 84.2994C54.9658 84.2947 54.9506 84.278 54.9201 84.2447C54.9028 84.2258 54.8806 84.2015 54.8501 84.171C53.3501 82.921 51.5501 81.971 49.6001 82.421C49.4184 82.2723 49.2286 82.1087 49.031 81.9384L49.0307 81.9382C48.032 81.0773 46.8357 80.0462 45.5001 79.921C44.0486 80.2084 43.2663 80.4545 42.785 80.6059C42.4121 80.7232 42.22 80.7836 42.0375 80.7623C41.8436 80.7397 41.6605 80.6248 41.283 80.3879C40.8788 80.1342 40.2517 79.7408 39.1501 79.171C37.4376 79.0153 35.7057 79.3055 33.9786 79.595L33.9784 79.595L33.9783 79.5951C32.932 79.7704 31.8875 79.9455 30.8501 80.0209L30.8322 80.024C30.8026 80.0291 30.7761 80.0341 30.7519 80.0387C30.5455 80.0779 30.5132 80.0841 30.2501 79.821C30.1544 79.7572 30.0564 79.69 29.9563 79.6213C29.115 79.0443 28.1225 78.3635 27.0501 78.721C27.0001 78.721 27.0001 78.7209 26.9501 78.6209C24.4533 75.9244 23.1534 76.4695 20.062 77.7659L20.0501 77.7709C17.7921 74.7344 16.2011 75.608 13.9788 76.828C13.3469 77.1749 12.6639 77.5499 11.9001 77.8709C11.7587 77.8395 11.5927 77.7341 11.4176 77.6229C11.035 77.38 10.6087 77.1094 10.3001 77.5209C10.1374 77.7053 9.9419 77.8802 9.75117 78.0508L9.75113 78.0508C9.06227 78.667 8.4362 79.227 9.65008 79.971C11.4501 81.621 12.6001 81.421 14.5501 80.221C16.9531 82.7869 18.8916 81.9024 21.2846 80.8105C21.8293 80.562 22.3975 80.3027 23.0001 80.071C24.9501 82.121 27.1001 82.121 29.6001 81.221C31.4072 82.8891 33.6976 82.504 35.9169 82.1308C36.8905 81.9671 37.8505 81.8057 38.7501 81.821C40.2501 83.571 42.5001 84.771 44.7001 83.6209C44.8512 83.6041 45.0306 83.5309 45.2135 83.4563C45.5752 83.3086 45.9509 83.1553 46.1501 83.421C47.9001 85.071 50.2001 85.721 52.5501 85.321ZM73.75 95.721C72.8 95.371 71.9001 94.721 71.1501 93.921C71.0001 93.771 70.9501 93.571 70.9501 93.371C70.8834 92.6043 70.8334 91.8543 70.8001 91.121C70.6669 88.658 70.6224 86.1728 70.578 83.695C70.5557 82.4506 70.5335 81.208 70.5 79.971C70.5 79.411 70.468 78.851 70.4361 78.291C70.3881 77.451 70.3401 76.611 70.4001 75.771C70.5001 75.671 70.7001 75.821 70.75 75.871C71.1001 76.071 71.4501 76.271 71.5501 76.671L71.6501 77.171C71.6501 77.1832 71.656 77.2042 71.6628 77.2284C71.6839 77.3035 71.7135 77.4088 71.6001 77.371C71.6001 77.3376 71.5834 77.321 71.5501 77.321C71.7084 78.6598 71.8585 80.0028 72.0086 81.3463L72.0086 81.3466C72.3799 84.6693 72.7516 87.9955 73.25 91.271C73.4501 92.4043 73.6501 93.5543 73.8501 94.721C73.8834 94.9877 73.9167 95.271 73.9501 95.571C74.0501 95.671 73.9 95.771 73.75 95.721ZM4.83682 67.2334C5.08628 69.5232 5.20614 70.6234 8.4501 71.921C8.94936 71.8854 8.68559 70.2728 8.49324 69.0968C8.41589 68.624 8.3501 68.2217 8.3501 68.021C8.1501 67.171 5.3001 64.971 4.6001 65.421C4.7135 66.1015 4.77868 66.6997 4.83682 67.2334ZM4.95001 85.471C3.75001 84.921 2 84.071 1.75 82.671C1.66478 81.3359 1.30518 80.0491 0.946299 78.765C0.673515 77.7889 0.401147 76.8143 0.25 75.821C0.7 71.521 7.20001 73.071 8.60001 76.021C8.60001 76.1335 8.43125 76.1054 8.30469 76.0843L8.30461 76.0843C8.26246 76.0773 8.22499 76.071 8.20001 76.071C6.15001 75.421 3.15001 76.621 3.95001 79.121C3.99671 79.3662 4.11971 79.8184 4.27067 80.3735C4.76629 82.1958 5.56324 85.1261 4.95001 85.471ZM71.5999 132.271C71.5999 135.571 72.95 137.371 75.9 138.771C76.2498 138.888 76.2068 138.581 76.1703 138.321L76.1703 138.321C76.1599 138.247 76.15 138.177 76.15 138.121C75.8911 136.05 75.7144 133.952 75.5387 131.867V131.867L75.5387 131.867L75.5387 131.867L75.5387 131.867L75.5386 131.866L75.5386 131.866L75.5384 131.864V131.864L75.5384 131.864L75.5384 131.864L75.5384 131.864C75.4766 131.131 75.415 130.399 75.3499 129.671C74.8499 124.071 74.1999 118.471 73.2499 112.921C73.1947 112.62 73.1386 112.318 73.0825 112.016L73.0825 112.016C72.6816 109.857 72.2754 107.67 72.0999 105.521C71.5563 104.088 70.0844 103.045 68.8915 102.2L68.8499 102.171C68.6999 102.071 67.7999 101.471 67.7 101.871C67.85 103.421 68.1 104.971 68.4 106.521C69.2333 110.888 69.9 115.271 70.4 119.671C70.7333 122.471 70.9777 125.271 71.2221 128.071L71.2224 128.073L71.2224 128.074L71.2225 128.074L71.2225 128.075L71.2226 128.075L71.2226 128.076L71.2226 128.076L71.2227 128.077L71.2227 128.077L71.2228 128.078L71.2228 128.078L71.2229 128.079L71.2229 128.079L71.223 128.08L71.223 128.08L71.2231 128.081L71.2231 128.081L71.2232 128.082L71.2232 128.082L71.2232 128.083L71.2233 128.083L71.2233 128.084L71.2234 128.084L71.2234 128.085L71.2235 128.085L71.2235 128.086L71.2236 128.086L71.2236 128.087L71.2237 128.087L71.2237 128.088L71.2237 128.088L71.2238 128.089L71.2238 128.089L71.2239 128.09L71.2239 128.09L71.224 128.091C71.3456 129.484 71.4672 130.878 71.5999 132.271ZM79.75 101.371C78.15 101.921 74.8 99.071 76.2 99.321C79.9044 99.3608 83.5135 98.2266 87.0781 97.1064C87.988 96.8204 88.895 96.5354 89.8 96.271C90.3288 96.0577 91.1836 95.7703 92.2296 95.4186L92.2296 95.4185L92.2297 95.4185L92.2299 95.4185C97.3152 93.7083 106.918 90.4788 105.55 86.871C105.392 86.3238 105.113 85.7642 104.831 85.1981C104.134 83.7985 103.418 82.3594 104.45 80.971C106.397 78.931 109.197 77.6202 111.993 76.3113C116.735 74.0914 121.465 71.8772 122 66.121C122.033 65.2988 121.611 64.6064 121.191 63.9157C120.972 63.5563 120.754 63.1975 120.6 62.821C121.65 62.421 124.4 65.121 124.85 66.071C126.95 68.721 125.45 72.221 123.5 74.471C121.359 76.7629 118.521 78.0272 115.694 79.2863C112.908 80.5269 110.134 81.7625 108.05 83.971C107.326 85.1994 107.93 86.5721 108.52 87.9118C109.274 89.626 110.005 91.2861 107.9 92.521C103.734 95.4016 98.8221 96.8288 93.9992 98.2301L93.9984 98.2304L93.9975 98.2307C93.3796 98.4102 92.7632 98.5893 92.15 98.771C91.3176 98.9842 90.4851 99.2097 89.6519 99.4355L89.651 99.4357L89.6509 99.4358C86.3804 100.322 83.0969 101.212 79.75 101.371ZM81.9347 91.5588L81.9357 91.5593C81.9759 91.581 82.0142 91.6015 82.0499 91.621H82.1999C82.6999 89.671 83.2499 87.771 83.8499 85.871C83.6499 85.471 82.8499 84.671 82.3499 84.721C81.7499 86.4877 81.1833 88.2377 80.6499 89.971C80.3696 90.7186 81.3555 91.2479 81.9347 91.5588ZM88.7499 92.1711C88.7073 92.1474 88.6612 92.1224 88.6125 92.0961C88.1471 91.844 87.4546 91.469 87.4999 90.971C87.6617 90.5665 87.8344 90.1657 88.0072 89.7645C88.4753 88.6781 88.9443 87.5896 89.1999 86.4211C89.6999 86.4211 90.2999 86.971 90.5499 87.371C90.2887 88.6023 89.8048 89.778 89.3267 90.9394L89.3266 90.9395C89.1641 91.3345 89.0022 91.7277 88.8499 92.121C88.8166 92.1544 88.7832 92.1711 88.7499 92.1711ZM92.2584 87.4291C91.7243 88.6827 91.4634 89.2952 93.95 90.521C94.0167 90.5544 94.0667 90.5544 94.1 90.521C94.2028 90.1225 94.3883 89.6975 94.5757 89.2682C95.1171 88.0278 95.6743 86.7511 94.3 85.971C94.221 85.9315 94.0935 85.8366 93.9466 85.7272C93.5358 85.4213 92.9737 85.0027 92.9 85.371C92.7652 86.2397 92.4869 86.8931 92.2584 87.4291ZM121.05 119.621C118.35 118.121 118 116.721 117.95 113.821C117.338 107.696 117.261 101.571 117.184 95.4463C117.173 94.5712 117.163 93.6961 117.15 92.821C117.15 91.8578 117.102 90.8784 117.054 89.9024C116.982 88.4465 116.91 86.9979 117 85.621C118.611 86.1938 118.607 87.766 118.603 89.3103C118.602 89.923 118.601 90.5313 118.7 91.071C118.82 92.9439 118.916 94.8167 119.011 96.6886L119.011 96.6894L119.011 96.6902L119.011 96.691L119.011 96.6917L119.011 96.6925L119.011 96.6933L119.011 96.6941L119.011 96.6948L119.011 96.6956L119.011 96.6964L119.011 96.6972L119.011 96.698L119.011 96.6987L119.011 96.6995L119.011 96.7003L119.011 96.7011L119.012 96.7019L119.012 96.7026L119.012 96.7034L119.012 96.7042L119.012 96.705L119.012 96.7057L119.012 96.7065L119.012 96.7073L119.012 96.7081L119.012 96.7089L119.012 96.7096L119.012 96.7104L119.012 96.7112L119.012 96.712L119.012 96.7127C119.272 101.829 119.532 106.938 120.3 112.021C120.65 114.371 121 116.771 121.25 119.121C121.3 119.321 121.4 119.721 121.05 119.621ZM79.177 133.697C79.4463 136.12 79.5425 136.984 82.3 138.271C82.6217 138.4 82.4466 137.535 82.2942 136.782C82.2097 136.364 82.1322 135.982 82.15 135.821C81.9875 134.434 81.8313 133.046 81.6751 131.659C81.2063 127.496 80.7375 123.334 80.1 119.171C79.8844 117.806 79.6459 116.44 79.4064 115.069C79.146 113.579 78.8844 112.082 78.65 110.571C78.5 108.571 78.45 108.421 76.65 107.321C76.1693 107.041 76.2021 107.37 76.2342 107.692C76.2421 107.772 76.25 107.851 76.25 107.921C76.4174 109.079 76.5965 110.233 76.7753 111.385C77.2374 114.363 77.6977 117.329 77.95 120.321C78.2636 122.986 78.4787 125.631 78.6942 128.281L78.6942 128.281L78.6942 128.281L78.6943 128.282L78.6943 128.282L78.6943 128.282L78.6943 128.282L78.6944 128.283L78.6944 128.283L78.6944 128.283L78.6944 128.283L78.6944 128.284L78.6945 128.284L78.6945 128.284L78.6945 128.284L78.6945 128.285L78.6946 128.285L78.6946 128.285L78.6946 128.285L78.6946 128.286L78.6946 128.286L78.6947 128.286L78.6947 128.286L78.6947 128.287L78.6947 128.287L78.6948 128.287L78.6948 128.287L78.6948 128.288L78.6948 128.288L78.6949 128.288L78.6949 128.288C78.8229 129.862 78.951 131.438 79.1 133.021C79.1279 133.256 79.1525 133.477 79.1759 133.687L79.1761 133.689L79.1769 133.696L79.177 133.697ZM79.45 147.021C77.75 146.821 74.3 144.271 75.2 142.271C75.35 141.721 75.7 141.071 76.35 141.571C77.3935 142.13 77.812 142.64 78.0739 142.96C78.2124 143.129 78.3071 143.244 78.4273 143.285C78.6874 143.374 79.0668 143.115 80.2673 142.293L80.3 142.271C81.35 142.271 83.45 144.121 83.8 145.121C82.55 145.971 81.05 146.921 79.45 147.021ZM111.565 115.583C111.725 117.968 111.783 118.83 114.6 120.171C114.924 120.243 114.833 119.823 114.757 119.469C114.727 119.332 114.7 119.205 114.7 119.121C114.367 115.888 114.033 112.638 113.7 109.371C113.469 106.802 113 104.272 112.531 101.742L112.531 101.741C112.087 99.3471 111.643 96.9518 111.4 94.5211C111.4 94.1711 109.1 92.2211 109.25 93.1211C109.391 94.8085 109.674 96.4959 109.957 98.1833L109.957 98.1835C110.177 99.496 110.397 100.809 110.55 102.121C110.93 104.746 111.069 107.391 111.209 110.044L111.209 110.044V110.044V110.044V110.044V110.044V110.045V110.045V110.045V110.045V110.045V110.045V110.045V110.045V110.045V110.045V110.045V110.045V110.045V110.045V110.046V110.046V110.046V110.046V110.046V110.046V110.046V110.046V110.046V110.046C111.29 111.586 111.371 113.129 111.5 114.671C111.526 114.999 111.547 115.302 111.565 115.583ZM117.95 130.521C116.25 130.071 114.7 128.571 114.1 126.921C113.95 126.021 114.05 124.921 114.5 124.121C114.95 123.871 117.35 126.071 116.9 126.421C116.673 126.497 116.646 126.915 116.625 127.244C116.618 127.35 116.612 127.448 116.6 127.521C116.946 127.23 117.207 126.984 117.416 126.787L117.416 126.787C117.783 126.44 117.988 126.247 118.204 126.233C118.477 126.216 118.767 126.484 119.424 127.09C119.578 127.231 119.752 127.392 119.95 127.571C120.011 127.657 120.115 127.764 120.231 127.884C120.585 128.25 121.052 128.732 120.75 129.071C120.697 129.114 120.644 129.158 120.59 129.202C119.83 129.823 118.977 130.521 117.95 130.521ZM6.00003 121.971C6.55003 123.321 7.95003 124.271 9.25003 124.871C9.55003 124.971 9.50006 124.671 9.40006 124.471C9.28201 123.946 9.16052 123.425 9.0392 122.905L9.03905 122.904C8.69794 121.441 8.35819 119.983 8.10004 118.471C7.64843 115.657 7.29941 112.819 6.95025 109.98C6.29431 104.647 5.63791 99.3092 4.30005 94.1209C4.25005 93.2209 3.45003 92.621 2.75003 92.221C2.60003 92.121 2.35006 92.0209 2.40006 92.2709C2.90006 94.2376 3.2667 96.2376 3.50003 98.2709C3.90094 101.478 4.10504 104.702 4.30958 107.932C4.46218 110.343 4.61504 112.757 4.85004 115.171C5.05004 117.471 5.50003 119.721 6.00003 121.971ZM16.7999 129.621C15.4499 128.971 13.8999 127.921 13.3499 126.471C12.8499 124.271 12.5999 122.021 12.3999 119.721C12.3183 118.599 12.2408 117.474 12.1633 116.349C11.8608 111.958 11.557 107.549 10.9999 103.171C10.9086 102.136 10.7849 101.101 10.6611 100.067C10.3783 97.7014 10.0955 95.3362 10.1999 92.971C10.5999 92.621 12.7999 94.521 12.5999 95.071C12.6894 99.5152 13.3838 103.906 14.0782 108.297C14.5478 111.266 15.0175 114.235 15.2999 117.221C15.3546 117.689 15.4085 118.156 15.4624 118.624C15.8523 122.005 16.241 125.377 16.8999 128.671C16.8999 128.759 16.9343 128.886 16.9703 129.018C17.0571 129.338 17.1532 129.692 16.7999 129.621ZM6.29998 133.721C7.44998 135.071 8.84997 136.421 10.6 136.821C10.7987 136.807 10.9872 136.796 11.1642 136.786C12.9467 136.681 13.5603 136.645 11.65 134.871C11.05 134.321 10.35 133.771 9.54998 133.421C9.41665 133.388 9.39996 133.304 9.49996 133.171C9.50927 133.152 9.51857 133.13 9.52853 133.107C9.57204 133.004 9.62788 132.871 9.74996 132.871C10.028 132.712 9.67501 132.332 9.44289 132.083C9.38281 132.018 9.33082 131.962 9.29998 131.921C9.2327 131.854 9.16462 131.785 9.09563 131.715C8.39547 131.007 7.60129 130.203 6.59997 130.021C5.54997 130.621 5.54998 132.871 6.29998 133.721ZM41.7499 130.121C38.5999 128.621 38.1 127.971 38.05 124.571C37.8111 121.187 37.699 117.772 37.5876 114.376L37.5875 114.374L37.5874 114.371C37.5589 113.503 37.5305 112.636 37.4999 111.771C37.4704 109.23 37.2662 106.688 37.0628 104.157L37.0628 104.157C36.9221 102.406 36.7817 100.659 36.7 98.9211C37.45 98.9211 39.4 100.321 39.4 101.171C40.1414 107.597 40.5896 114.071 41.0344 120.498L41.0345 120.498L41.0345 120.498L41.0345 120.498L41.0345 120.498L41.0345 120.498L41.0345 120.498L41.0345 120.498L41.0345 120.499L41.0345 120.499L41.0346 120.499L41.0346 120.499L41.0346 120.499L41.0346 120.499L41.0346 120.499L41.0346 120.5L41.0346 120.5L41.0346 120.5L41.0346 120.5L41.0347 120.5L41.0347 120.5L41.0347 120.5L41.0347 120.501L41.0347 120.501L41.05 120.721C41.25 123.671 41.6 126.621 41.95 129.571C41.95 129.634 41.9624 129.709 41.9749 129.784C42.0124 130.009 42.0499 130.234 41.7499 130.121ZM45.9 124.821C46.05 127.821 46.7999 128.971 49.5999 130.171C49.9466 130.301 49.8802 130.018 49.8237 129.777C49.8151 129.74 49.8066 129.704 49.7999 129.671C49.5971 127.98 49.44 126.267 49.2822 124.546L49.2822 124.546L49.2821 124.546L49.2821 124.546L49.2821 124.546L49.2821 124.546L49.2821 124.546L49.2821 124.545L49.2821 124.545L49.2821 124.545L49.2821 124.545L49.282 124.545L49.282 124.545L49.282 124.545L49.282 124.545L49.282 124.545L49.282 124.544L49.282 124.544L49.282 124.544L49.282 124.544L49.2819 124.544L49.2819 124.544L49.2819 124.544L49.2818 124.542C49.2064 123.72 49.1308 122.895 49.0499 122.071C48.8322 119.418 48.5673 116.757 48.302 114.091L48.302 114.091L48.302 114.091L48.302 114.091L48.3019 114.091L48.3019 114.09L48.3019 114.09L48.3019 114.09L48.3019 114.09L48.3019 114.09L48.3019 114.09L48.3019 114.089L48.3019 114.089L48.3018 114.089L48.3018 114.089L48.3018 114.089L48.3018 114.089L48.3018 114.088L48.3018 114.088L48.3018 114.088L48.3018 114.088L48.3018 114.088L48.3017 114.088L48.3017 114.088C47.8971 110.023 47.4914 105.947 47.2499 101.871C47.1499 101.221 42.8499 97.671 42.9999 99.271C43.1213 101.789 43.4451 104.307 43.7704 106.836C43.9812 108.476 44.1926 110.119 44.3499 111.771C44.8499 116.121 45.35 120.471 45.9 124.821ZM52.8001 139.421C50.4151 138.335 47.7847 138.297 45.1671 138.259C42.2422 138.217 39.3331 138.175 36.8001 136.671C33.9501 134.771 33.0501 133.321 33.2001 129.871C33.1001 129.521 33.6001 129.671 33.7501 129.771C35.2001 130.471 36.5001 131.621 37.4501 132.921C37.5834 133.221 37.5834 133.565 37.5834 133.91C37.5834 134.082 37.5834 134.254 37.6001 134.421C37.6001 134.459 37.597 134.487 37.5946 134.508C37.5917 134.534 37.59 134.549 37.5968 134.558C37.6064 134.571 37.6337 134.571 37.7001 134.571C38.863 134.721 40.0922 134.791 41.34 134.862H41.3402H41.3403H41.3404H41.3406C45.5115 135.1 49.8907 135.35 52.7001 138.621L52.7199 138.647C52.8922 138.876 53.3761 139.517 52.8001 139.421ZM33.5205 141.439C34.2646 142.084 35.0591 142.772 36.05 142.921C37.8989 142.963 37.1699 142.334 36.3856 141.657C36.2366 141.529 36.0857 141.399 35.95 141.271C35.9092 141.247 35.8751 141.227 35.847 141.212L35.8469 141.212C35.7797 141.174 35.7468 141.155 35.7393 141.13C35.732 141.105 35.7482 141.073 35.7799 141.011L35.8 140.971C35.8444 140.897 35.8845 140.801 35.9266 140.7C36.0268 140.46 36.1388 140.191 36.35 140.121C36.2656 139.319 35.3265 138.731 34.5846 138.267C34.4475 138.181 34.317 138.099 34.2 138.021C33.704 137.649 33.4472 138.131 33.2319 138.535C33.1867 138.62 33.1434 138.702 33.1 138.771C32.4 139.721 32.5 140.721 33.5 141.421L33.5205 141.439ZM41.85 143.421C40.8 143.021 39.25 142.121 39.25 140.821C39.4688 138.634 40.1086 139.202 41.136 140.116L41.1362 140.116L41.1367 140.116L41.1389 140.118C41.2848 140.248 41.4385 140.384 41.6 140.521C41.6466 140.573 41.6891 140.62 41.7273 140.661C42.0179 140.978 42.0651 141.029 41.8 141.471C43.05 142.371 44.15 143.221 41.85 143.421ZM45.8001 140.221C45.0001 141.821 47.2001 143.071 48.3501 143.671C48.7001 143.771 48.5001 143.371 48.4001 143.221C48.37 142.98 48.4848 142.721 48.6028 142.455C48.6808 142.279 48.7603 142.1 48.8001 141.921C48.5014 141.025 47.5586 140.377 46.7608 139.828L46.7501 139.821C46.1501 139.371 46.0001 139.571 45.8001 140.221ZM61.9247 56.87C63.3327 59.0559 64.7449 61.2483 67.1501 62.3209C67.5582 62.3951 67.3606 62.0838 67.1906 61.8162L67.1905 61.816C67.1315 61.7231 67.0758 61.6354 67.05 61.5709C65.9699 59.8382 64.7783 58.1864 63.5893 56.5382C62.1364 54.5243 60.6874 52.5157 59.45 50.3709C55.8685 44.5273 52.7701 38.3425 49.7049 32.2239L49.7049 32.2238L49.7049 32.2237C48.7049 30.2277 47.7085 28.2387 46.7 26.2709C46.45 25.9709 43.6501 23.5709 43.9001 24.7209C48.5501 34.5709 53.3 44.5209 59.5 53.5209C60.4099 54.5183 61.1667 55.6932 61.9247 56.87ZM77.2999 77.771C76.6499 77.771 72.6999 75.371 73.9499 75.171C77.6999 74.371 81.3499 73.371 84.9999 72.321C85.768 72.0296 86.8237 71.7804 87.9766 71.5082C91.1765 70.7527 95.125 69.8204 95.7499 67.321C95.7395 66.6864 95.6814 66.132 95.6303 65.6432V65.6431C95.4356 63.7825 95.3405 62.8733 98.3499 62.121C99.3582 61.8635 100.383 61.6314 101.411 61.3984C105.175 60.5454 108.99 59.681 112.25 57.521C113.6 56.671 115.85 54.521 114.2 53.021C111.15 51.821 107.85 51.271 104.65 50.771C102.9 50.571 101.15 50.471 99.3999 50.621C98.4499 50.471 97.5999 49.771 96.8999 49.171C96.2104 48.6266 96.9433 48.6354 97.569 48.6429C97.8054 48.6457 98.0265 48.6484 98.1499 48.621C104.25 48.921 110.85 49.671 115.9 53.321C120.65 56.321 116.1 59.971 112.7 61.421C110.641 62.4375 108.432 62.992 106.23 63.545C104.208 64.0528 102.191 64.5593 100.3 65.421C99.2352 66.1163 99.3603 67.1043 99.4933 68.1553C99.6664 69.5227 99.853 70.9967 97.4499 72.071C96.0129 72.7895 94.4484 73.2212 92.9091 73.6459L92.909 73.6459L92.909 73.646C92.5202 73.7532 92.133 73.8601 91.7499 73.971C90.1029 74.3999 88.4618 74.8759 86.8185 75.3525L86.8183 75.3526C83.6725 76.265 80.5185 77.1798 77.2999 77.771ZM44.0664 73.7626C44.4291 73.833 44.7896 73.903 45.1501 73.9211C45.2696 73.9211 45.3922 73.922 45.5166 73.923C46.2764 73.9292 47.1055 73.9359 47.75 73.721C47.452 72.9974 46.7191 72.5274 46.045 72.0951C45.9274 72.0196 45.8115 71.9453 45.7 71.871C45.0777 71.5972 44.3811 71.6828 43.6718 71.7699C42.9563 71.8578 42.228 71.9472 41.55 71.6711C40.5624 71.4563 39.8606 71.5367 39.1753 71.6151C38.2648 71.7193 37.3836 71.8202 35.9001 71.221C35.7376 71.2535 35.6596 71.1382 35.5837 71.026C35.5428 70.9656 35.5026 70.906 35.45 70.871C35.2949 70.7636 35.1369 70.6391 34.9754 70.5118L34.9747 70.5113L34.9745 70.5111L34.9743 70.511C34.4594 70.1052 33.9087 69.6711 33.3 69.6711C33.2751 69.7397 33.2493 69.8092 33.2233 69.8795L33.2227 69.8809L33.2227 69.8811C33.0403 70.3729 32.8438 70.9028 32.8 71.471C33.3 72.571 34.6 73.471 35.75 73.821C36.2358 73.875 36.6924 73.7396 37.1513 73.6036C37.5427 73.4876 37.9358 73.371 38.35 73.371L38.4164 73.3896C39.6426 73.7332 40.8231 74.064 42.1 73.6711C42.7716 73.5112 43.4226 73.6376 44.0664 73.7626ZM60.55 92.721C56.0484 92.1294 51.6527 91.0349 47.2607 89.9413C43.1157 88.9092 38.9741 87.878 34.7499 87.271C28.4999 86.321 22.15 85.821 15.8499 85.471C15.3352 85.4139 14.8 85.4057 14.2619 85.3976C12.9184 85.3772 11.5567 85.3565 10.45 84.5711C9.99996 84.3711 8.49996 82.921 9.94996 83.621C17.85 84.121 25.6999 84.6211 33.4999 85.9211C38.0681 86.6063 42.5492 87.7552 47.0317 88.9045C48.4368 89.2647 49.8419 89.625 51.2499 89.971C52.5748 90.296 53.9248 90.5085 55.2747 90.721L55.275 90.721L55.2752 90.7211C56.6251 90.9336 57.9751 91.1461 59.3 91.471C59.75 91.721 61.05 92.671 60.55 92.721ZM80.2052 69.1842L80.2053 69.1842L80.2054 69.1842L80.2054 69.1842L80.2055 69.1843L80.2056 69.1843L80.2057 69.1843L80.2058 69.1843L80.2059 69.1844L80.206 69.1844L80.2061 69.1844C80.858 69.2897 81.5049 69.3941 82.0999 69.571C82.2999 69.621 82.2999 69.521 82.1999 69.371C81.3159 67.7135 79.5094 67.3856 77.7598 67.068C77.1343 66.9544 76.5161 66.8422 75.9499 66.671C75.8499 66.6377 75.7666 66.621 75.6999 66.621C75.3999 66.721 76.3499 67.721 76.4499 67.821C77.4333 68.7366 78.8306 68.9622 80.2052 69.1842ZM87.4499 66.9709C84.4499 66.2709 81.4499 65.3709 78.4499 64.4209C76.3448 62.7151 77.9809 63.275 79.4758 63.7866L79.4759 63.7866C80.0404 63.9798 80.5847 64.1661 80.8999 64.2209C81.6888 64.5116 82.5295 64.6988 83.3718 64.8864C84.5579 65.1505 85.7473 65.4154 86.7999 65.9709C86.8174 65.9884 86.8444 66.0141 86.8779 66.0459L86.8781 66.046C87.132 66.2872 87.759 66.8826 87.4499 66.9709ZM84.95 61.4709C87.5 62.4209 90.05 63.3709 92.6 64.2209C92.9716 64.128 92.4368 63.6034 92.2389 63.4092C92.2237 63.3944 92.2106 63.3815 92.2 63.3709C91.2094 62.4123 89.8514 62.0051 88.5042 61.6011C87.7432 61.3729 86.9858 61.1458 86.3 60.8209C86.1471 60.8209 85.4692 60.5497 84.6719 60.2308L84.6718 60.2307C83.1221 59.6108 81.1218 58.8106 81.65 59.4709C82.3285 60.6341 83.6177 61.0456 84.8345 61.434L84.95 61.4709ZM94.9598 59.9981L94.9597 59.9981C92.0624 59.1188 88.433 58.0172 87.25 56.071C87.25 55.8438 87.8822 56.1645 88.4079 56.4311C88.6919 56.5752 88.9448 56.7035 89.05 56.721C90.3318 57.3062 91.6758 57.7361 93.0212 58.1664C94.09 58.5083 95.1597 58.8504 96.2 59.271C96.5 59.471 97.8 60.571 97.35 60.771C96.687 60.5224 95.8586 60.271 94.9598 59.9981ZM103.306 57.7834C103.803 58.0147 104.3 58.2459 104.8 58.4709C105.9 57.1209 95.6 52.7709 94.5 53.3709C94.75 54.1709 95.5 54.7709 96.15 55.2209C96.4778 55.3173 96.8204 55.3765 97.1635 55.4359C97.7103 55.5304 98.2585 55.6251 98.75 55.8709C100.325 56.3959 101.816 57.0897 103.306 57.7834ZM29.4001 54.071C28.8501 53.721 28.3001 53.221 27.8001 52.721C27.4001 52.321 27.0001 51.871 26.6501 51.421C26.5501 51.2543 26.4501 51.071 26.35 50.871C26.3456 50.862 26.3403 50.8518 26.3344 50.8406L26.3344 50.8405C26.2754 50.7271 26.1636 50.512 26.3001 50.421C26.4099 50.3112 26.6538 50.4426 26.8354 50.5405C26.9018 50.5763 26.9599 50.6076 27 50.621C27.55 50.971 28.1 51.471 28.6 51.971C29 52.371 29.4 52.821 29.75 53.271C29.7764 53.3149 29.8089 53.3634 29.8438 53.4155L29.8439 53.4156L29.8439 53.4157C30.0077 53.6601 30.2237 53.9825 30.1 54.271H30C29.8 54.271 29.6001 54.171 29.4001 54.071ZM34.7408 49.2319C35.3492 50.136 35.9623 51.047 36.9499 51.521C37.434 51.4519 36.5309 50.3063 35.8617 49.4576C35.5634 49.0792 35.3115 48.7598 35.2499 48.621C33.0499 45.721 31.0999 42.671 29.3499 39.471C25.4478 35.2142 28.7027 40.4345 30.0822 42.647L30.0823 42.6472C30.2583 42.9294 30.4037 43.1627 30.4999 43.321C31.3433 44.6411 32.2942 45.9075 33.2344 47.1594C33.5762 47.6145 33.9166 48.0678 34.2499 48.521C34.4178 48.7519 34.5791 48.9917 34.7408 49.2319ZM46.6001 49.321C44.843 48.462 43.7872 46.8101 42.7422 45.1751L42.7422 45.1751C42.449 44.7164 42.1567 44.2591 41.8501 43.821C40.75 42.2209 39.6499 40.6334 38.5499 39.0458C37.4499 37.4583 36.35 35.8709 35.2501 34.271C34.9001 33.871 34.7001 33.171 35.5001 33.671C37.4806 35.2295 38.8919 37.3783 40.2953 39.5151L40.2953 39.5151L40.2953 39.5151L40.2954 39.5152C41.0531 40.6689 41.8086 41.8191 42.6501 42.871C42.7255 43.0521 43.2334 43.7475 43.8702 44.6194C45.3438 46.6372 47.5078 49.6003 46.6001 49.321ZM61.4055 40.1975C62.6075 42.4028 63.859 44.6991 65.95 46.121C66.203 46.121 65.9937 45.8365 65.8619 45.6574C65.8374 45.6241 65.8156 45.5945 65.8 45.571C64.75 44.571 63.95 43.321 63.2 42.021C62.644 41.2056 62.1842 40.2047 61.7188 39.1916C60.9284 37.4711 60.1216 35.715 58.8 34.771C58.2957 34.4685 59.2831 36.2677 60.0147 37.601C60.3713 38.2508 60.6672 38.7899 60.7 38.921C60.9372 39.3382 61.1704 39.7661 61.4055 40.1975ZM73.9 41.8709C72.6265 41.1148 71.7964 39.8519 70.9813 38.6116L70.9812 38.6115C70.7722 38.2935 70.5642 37.977 70.3499 37.671C68.8999 35.321 67.45 32.9209 66.2 30.4709C67.3465 30.5474 68.347 32.4351 69.1121 33.8786L69.1122 33.8788C69.348 34.3237 69.5615 34.7264 69.7499 35.0209C69.956 35.3697 70.1608 35.7209 70.3662 36.0731C71.4563 37.9426 72.5615 39.838 73.95 41.5209C73.9588 41.5474 73.9707 41.5769 73.983 41.6073C74.0404 41.7497 74.1059 41.9121 73.9 41.8709ZM71.7 26.956C73.6259 30.2398 75.6463 33.6846 78.75 35.921C79.2323 35.9512 78.2788 34.8545 77.4126 33.8582C76.8422 33.202 76.3095 32.5894 76.25 32.371C75.2973 31.2066 74.5827 29.888 73.8689 28.5711C73.2342 27.4 72.6002 26.2301 71.8 25.171C69.6 23.021 69.95 24.071 71.15 26.021C71.333 26.3304 71.5161 26.6425 71.7 26.956Z" fill="black"/>
</svg>
