<svg width="71" height="83" viewBox="0 0 71 83" fill="none" xmlns="http://www.w3.org/2000/svg">
<path fill-rule="evenodd" clip-rule="evenodd" d="M41.6176 31.5118C40.5176 31.0618 39.2676 30.2618 38.7676 29.2118C38.9176 28.2618 39.1176 27.3118 39.3676 26.4118C40.0604 23.4325 40.9346 20.496 41.8078 17.5626L41.8079 17.5626L41.8079 17.5625L41.8079 17.5625L41.8079 17.5625L41.8079 17.5624C42.8252 14.1452 43.8411 10.7324 44.5676 7.26177C44.5676 7.18908 44.5845 7.09527 44.6023 6.99629L44.6023 6.99624C44.6458 6.75481 44.6949 6.48271 44.5176 6.41179C42.8176 5.81179 41.1176 5.11179 39.5676 4.16179C38.9695 3.84852 38.5904 3.56364 38.2998 3.34525C37.5701 2.7968 37.3983 2.66774 35.7176 3.56175C30.9226 5.8809 25.9901 7.90539 21.0555 9.93072L21.0555 9.93073L21.0555 9.93074L21.0555 9.93075L21.0554 9.93076L21.0554 9.93077C18.1173 11.1367 15.1785 12.3429 12.2676 13.6117C11.8901 13.7795 11.5127 13.9824 11.1315 14.1874L11.1315 14.1874L11.1315 14.1874C10.6038 14.4711 10.0691 14.7586 9.51757 14.9618C8.08651 14.715 6.89894 13.6404 5.85877 12.6991L5.85876 12.6991L5.81756 12.6618C5.71756 12.5618 5.16757 12.0117 5.41757 11.8617C5.41757 11.8118 5.46754 11.8118 5.56749 11.8118H5.56756H5.61758C8.95987 10.2998 12.4007 9.04109 15.8429 7.78188C18.8891 6.66757 21.9364 5.55283 24.9176 4.26177C27.8171 3.06196 30.7167 1.81215 33.6162 0.562344L33.6167 0.562151L33.6176 0.561755C34.7987 -0.239717 35.9442 0.667009 36.9341 1.4505L36.9341 1.45055L36.9342 1.45059L36.9342 1.45061C37.1176 1.59577 37.2956 1.7367 37.4676 1.86174C38.7387 2.81508 40.2262 3.41806 41.7149 4.02154C43.5055 4.7474 45.2979 5.47398 46.7176 6.81175C47.9457 7.70111 47.5956 9.12853 47.2774 10.4256C47.2199 10.6599 47.1635 10.8899 47.1176 11.1117C46.5904 13.3828 45.9315 15.6211 45.2746 17.8531C45.1216 18.3729 44.9687 18.8923 44.8176 19.4118C43.9176 22.4618 43.1176 25.5618 42.4176 28.6618C42.3224 28.8521 42.249 29.3104 42.1697 29.8051C42.0408 30.6102 41.8963 31.5118 41.6176 31.5118ZM9.48621 29.5617L9.48622 29.5618C14.1644 31.343 18.8426 33.1243 23.2676 35.4118C23.9088 35.7538 24.4952 36.1963 25.0854 36.6417L25.0854 36.6417L25.0854 36.6417L25.0855 36.6417L25.0855 36.6417L25.0855 36.6418L25.0856 36.6418C25.8759 37.2382 26.673 37.8397 27.6176 38.2118C28.5676 38.1118 26.2176 36.1618 25.7676 35.8618C20.9915 32.221 15.4491 30.0209 9.90846 27.8214C8.37258 27.2117 6.83684 26.6021 5.31758 25.9618C5.25609 25.9003 5.11058 25.8556 4.96371 25.8105C4.7523 25.7456 4.53807 25.6798 4.56758 25.5618C4.64189 24.8335 4.72504 24.1096 4.80783 23.3889L4.80784 23.3888C5.00357 21.6849 5.19731 19.9984 5.26759 18.3118C5.61759 17.2618 2.76759 14.9618 1.86759 15.0118C1.61759 17.3618 1.26758 19.8118 0.917582 22.1618C0.0675817 24.8618 2.61758 26.8118 4.81758 27.7618C6.36742 28.3742 7.92663 28.9679 9.48585 29.5616L9.48621 29.5617ZM43.0676 82.4617C36.6676 81.9617 30.7676 78.9617 25.9676 74.7617C20.2176 69.8617 14.6176 62.3617 16.7676 54.4117C19.3676 45.0117 28.2676 39.0117 36.7676 35.3117C44.3676 31.9117 54.0176 31.5117 60.2176 37.8117C60.8176 38.3617 60.7676 38.8117 59.9176 38.3617C55.9676 35.3117 50.5676 35.2117 45.8176 36.3617C33.8676 39.4117 16.7676 50.7617 20.9176 65.0617C26.2176 80.9117 45.9676 84.2117 58.3676 74.3617C66.7676 68.3617 68.8676 59.0617 64.8676 49.7117C64.1285 47.8392 62.8551 46.2095 61.6219 44.6311L61.5676 44.5617C60.7176 43.6617 61.3676 43.6117 62.1176 44.1117C69.7176 49.4117 72.7176 60.6617 68.8676 69.1117C64.4676 77.3117 55.1676 82.6617 45.9176 82.6617C44.951 82.6617 44.001 82.5951 43.0676 82.4617ZM37.0676 75.2117C29.9176 71.6117 23.2676 62.6117 26.4676 54.4617C29.8176 46.9617 38.2176 42.2117 46.2676 41.8617C52.0176 41.5617 57.3176 45.0117 60.1676 49.8617C60.2 49.9373 60.2652 50.048 60.3373 50.1706C60.5987 50.6148 60.9514 51.2144 60.1676 50.8617C58.8365 50.2701 58.0887 49.0708 57.3431 47.8751C56.5763 46.6454 55.8118 45.4194 54.4176 44.8617C45.0176 40.9617 30.3676 48.5617 28.2676 58.5117C27.4676 62.5117 29.1676 66.5617 31.4176 69.8617C34.9676 75.2617 42.7176 76.2117 48.0176 73.0117C52.9676 70.1617 58.4176 65.9117 58.8176 59.7617C58.851 58.8933 58.8398 58.0026 58.8286 57.1194V57.1193V57.1193V57.1192V57.1192V57.1191V57.1191V57.119V57.1189V57.1188V57.1187V57.1186V57.1185V57.1184V57.1183C58.8231 56.6797 58.8176 56.2429 58.8176 55.8117C58.8944 55.6197 59.2069 55.7815 59.4158 55.8896L59.4159 55.8896C59.479 55.9223 59.5328 55.9501 59.5676 55.9617C59.7167 56.0711 59.8837 56.1804 60.0566 56.2937C60.7533 56.7502 61.5474 57.2705 61.6676 58.1117C61.6752 58.3921 61.6851 58.6736 61.695 58.9562V58.9562C61.7504 60.5377 61.807 62.1497 61.4676 63.7617C60.6676 67.5117 57.7176 70.3617 54.7176 72.6117C51.4176 75.2617 47.5676 76.9117 43.6676 76.9117C41.4676 76.9117 39.2176 76.4117 37.0676 75.2117ZM8.41756 17.9618C6.34503 20.1824 7.97375 23.036 10.4199 24.0235C10.2098 24.0746 9.99841 24.1202 9.78824 24.1656C9.44077 24.2406 9.09668 24.3149 8.76758 24.4117C9.11758 25.1117 9.86757 25.6617 10.5676 25.9617C13.394 25.5111 16.019 24.3222 18.6352 23.1374L18.6353 23.1373C19.2125 22.8759 19.7892 22.6147 20.3676 22.3617C26.3685 19.7899 32.2223 16.8507 38.0553 13.922L38.0553 13.922C39.0264 13.4343 39.997 12.947 40.9676 12.4617C42.1176 12.2617 39.8176 10.6617 39.3676 10.5117C36.7783 11.7714 34.2046 13.0781 31.6291 14.3857L31.6291 14.3857C25.0039 17.7494 18.3663 21.1195 11.4176 23.7117C11.1943 23.8037 10.964 23.8784 10.7305 23.9431C10.7274 23.9333 10.7231 23.9228 10.7176 23.9118C10.0676 22.4118 10.7176 20.7618 11.8176 19.6618C11.8573 19.6249 11.8988 19.586 11.942 19.5457C12.6586 18.8753 13.8215 17.7873 14.7176 18.2118C15.1176 19.0618 18.2176 22.6118 18.1676 20.0118C17.9176 16.7118 20.1676 11.7618 24.0176 14.4118L24.2585 14.6172C25.3732 15.5682 25.8481 15.9733 26.0835 15.8637C26.2582 15.7824 26.3009 15.4176 26.3753 14.7819C26.4183 14.4147 26.4719 13.9572 26.5676 13.4118C27.2176 11.1618 29.6176 8.86176 32.1176 9.56176C32.506 9.80454 32.7884 10.1652 33.0734 10.5293C33.3754 10.915 33.6803 11.3045 34.1176 11.5618C35.4028 12.7274 35.4731 11.8384 35.5673 10.6463C35.6307 9.84416 35.705 8.90476 36.1676 8.36175C36.8676 7.11175 38.4676 6.66175 39.8176 6.86175C40.0176 6.91175 40.0176 6.91176 40.0676 7.06176C40.5176 7.76176 41.1676 8.31178 41.8676 8.71178C42.0676 8.81178 42.4176 8.91176 42.2176 8.56176C41.0176 6.56176 38.8176 4.56175 36.3176 5.11175C34.0676 5.41175 33.3176 7.71178 33.2676 9.71178C29.9676 6.16178 25.5176 7.21178 24.1176 11.9618C24.0521 12.0709 24.0247 12.4087 23.998 12.7381C23.9636 13.1633 23.9303 13.5745 23.8176 13.4618C20.3176 10.3118 16.3176 11.4118 15.7676 16.3118C15.683 17.9743 15.6779 17.9694 15.1525 17.4604C14.7456 17.0663 14.0268 16.37 12.7176 15.9118C11.0176 15.3618 9.46756 16.7618 8.41756 17.9618ZM35.0674 27.4117C35.0674 27.7617 35.0674 28.1616 35.1174 28.5117C35.1174 28.545 35.1341 28.5616 35.1674 28.5616H35.2174C35.7675 28.3616 36.8674 27.8117 36.8174 27.1617V21.9617C36.8362 21.3429 36.8338 20.7241 36.8315 20.1054C36.8276 19.0741 36.8237 18.0429 36.9174 17.0117C37.0674 16.3116 35.1674 17.7617 35.1174 18.0117C34.9445 20.1906 34.9869 22.3456 35.0295 24.5098V24.5099L35.0295 24.5103C35.0484 25.4746 35.0674 26.4408 35.0674 27.4117ZM30.3677 31.7117C29.8343 30.8117 29.2843 29.9284 28.7177 29.0617C28.2304 28.3579 27.7822 27.615 27.3332 26.8706C26.5381 25.5527 25.7402 24.2301 24.7177 23.1117C24.0177 23.0117 26.7676 20.9617 27.0676 21.4617C28.8898 23.6653 30.3528 26.192 31.7915 28.6767L31.7915 28.6767C32.0503 29.1238 32.3084 29.5695 32.5676 30.0117C33.0676 30.5617 31.0677 31.7117 30.6177 31.8617H30.5177C30.4677 31.8617 30.4177 31.8117 30.3677 31.7117ZM19.5676 28.5616C21.0676 29.5616 22.5176 30.5116 24.0176 31.4616C24.1997 31.5597 24.3779 31.6735 24.5566 31.7876C25.0156 32.0806 25.4777 32.3757 26.0176 32.4117C26.3176 32.4117 28.4176 31.0116 27.8176 30.8616C26.0148 29.9924 24.3571 28.8952 22.6976 27.7969C21.7798 27.1893 20.8614 26.5815 19.9176 26.0116C19.8404 25.973 19.7632 25.9179 19.6843 25.8615C19.4565 25.6988 19.2146 25.526 18.9176 25.7116C18.3176 26.0616 17.6676 26.4616 17.2676 27.0616C17.2676 27.1348 17.2944 27.1545 17.3284 27.1793C17.3408 27.1884 17.3542 27.1983 17.3676 27.2116C18.1009 27.6783 18.8342 28.1283 19.5676 28.5616Z" fill="black"/>
</svg>
