<svg width="76" height="97" viewBox="0 0 76 97" fill="none" xmlns="http://www.w3.org/2000/svg">
<path fill-rule="evenodd" clip-rule="evenodd" d="M65.1582 53.5C65.7083 54.5 66.9583 55.15 67.9583 55.55C68.0509 55.5731 68.1006 55.5856 68.1422 55.5724C68.1904 55.5571 68.2277 55.5074 68.3082 55.4C68.5332 55.1125 68.7614 54.8281 68.9895 54.5437C69.6739 53.6906 70.3583 52.8375 70.9583 51.9C72.8583 49.4 72.8583 46.2 72.2083 43.3C71.7583 40.75 71.8083 38.15 72.1582 35.6C72.5583 32.8 73.2582 30.05 74.1582 27.4L74.2723 27.0703C75.1863 24.43 76.1023 21.7841 75.9583 19C76.0083 16.25 74.8582 13.75 73.4082 11.5C71.7083 7.85 68.3582 5.40001 64.8082 3.70001C62.7582 2.65001 60.5082 2.09999 58.2582 1.79999C52.7082 0.849988 47.1082 0.5 41.5582 0.25C36.4082 0.5 31.0582 1.20001 26.3082 3.20001C26.2083 3.20001 26.2083 3.24998 26.2083 3.29997V3.29999C26.5006 3.63415 26.8628 3.82873 27.2365 4.02949C27.3101 4.06905 27.3842 4.10884 27.4583 4.14999C27.8583 4.34999 28.3083 4.54999 28.7083 4.29999C29.6583 3.89999 30.6582 3.5 31.6582 3.25C36.5082 2.25 41.5582 1.35001 46.5582 1.85001C47.4764 1.93347 48.3945 2.01178 49.3119 2.09002L49.312 2.09003L49.312 2.09003L49.312 2.09003L49.3121 2.09004L49.3121 2.09004L49.3121 2.09004L49.3122 2.09004L49.3122 2.09005L49.3123 2.09005L49.3123 2.09005L49.3123 2.09006L49.3124 2.09006L49.3124 2.09006L49.3124 2.09006L49.3125 2.09007L49.3125 2.09007L49.3125 2.09007L49.3126 2.09008L49.3126 2.09008L49.3126 2.09008L49.3127 2.09008L49.3127 2.09009L49.3127 2.09009L49.3128 2.0901C53.3416 2.4337 57.3581 2.77625 61.3082 3.54999C64.3582 3.89999 67.3083 5.15001 69.2083 7.60001C71.5583 10.85 73.8582 14.6 73.3582 18.8C73.2138 20.8581 72.4175 22.7859 71.6284 24.6963L71.6283 24.6965C71.3247 25.4314 71.0222 26.1638 70.7582 26.9C68.7082 32.15 67.8082 37.85 69.1082 43.4C69.7944 46.968 67.6766 49.9501 65.703 52.7292C65.5194 52.9878 65.337 53.2446 65.1582 53.5ZM36.3082 52.7C36.5582 53.9 37.6082 54.7 38.7082 55.15C38.4082 51.6 34.3582 47.35 30.7082 46.15C27.9582 45.35 22.2082 46.4 21.9082 49.8C22.2582 50.45 22.9582 50.95 23.6082 51.2C23.7582 50.3 24.1582 49.55 24.9582 49.05C27.3582 47.55 30.6082 46.95 33.2582 48.1C34.8082 49.1 35.7082 51 36.3082 52.7ZM27.8082 35.9C26.1582 35.75 24.5582 34.75 23.4582 33.5C22.9582 32.8 23.5082 32 24.0082 31.45C24.9082 30.5 26.1582 29.8 27.4082 29.4C28.4298 29.5946 29.3093 30.3098 30.093 30.947L30.1582 31C30.3082 31.15 30.7082 31.55 30.3082 31.6C29.0582 32.05 27.2082 32.85 26.7082 33.85C29.8582 33.35 33.8082 32.1 36.0082 30.25C35.5082 30.25 33.0082 28.85 33.4082 28.4C35.4082 28.9 37.6582 29.95 38.8582 31.7C38.8926 32.1481 38.4519 32.3823 38.0437 32.5993C37.8598 32.697 37.6824 32.7913 37.5582 32.9C34.6082 34.6 31.2082 35.75 27.8082 35.9ZM24.1212 42.6704C24.8706 43.466 25.6176 44.2592 26.7084 44.5501C27.0575 44.585 26.7971 44.3029 26.5741 44.0614C26.4778 43.9571 26.3885 43.8604 26.3584 43.8001C25.8664 43.1292 25.1433 42.5695 24.4422 42.0267C22.7918 40.7493 21.2634 39.5661 23.1584 37.2501C23.414 36.8666 23.6391 36.5616 23.8234 36.3119C24.1891 35.8165 24.3937 35.5393 24.3559 35.3004C24.308 34.9969 23.8691 34.7552 22.8726 34.2065L22.8726 34.2065L22.8725 34.2065C22.7294 34.1277 22.5749 34.0426 22.4084 33.9501C22.1584 33.8001 21.9084 33.8001 21.8083 34.1501C21.6288 34.4254 21.4263 34.7007 21.2208 34.9802L21.2207 34.9802C20.5679 35.8679 19.8844 36.7972 19.8083 37.9001C19.9946 39.2411 21.1244 40.1103 22.2054 40.942C22.5754 41.2266 22.9396 41.5068 23.2583 41.8001C23.5585 42.0729 23.84 42.3718 24.1212 42.6704ZM34.5083 44.3001C33.7083 44.0001 32.7584 43.5501 32.3083 42.7501C32.3684 42.6301 32.4824 42.5101 32.5964 42.3901C32.6724 42.3101 32.7484 42.2301 32.8083 42.1501C33.4627 41.0232 34.6323 40.154 35.7914 39.2927C37.8208 37.7845 39.8176 36.3006 38.9584 33.5001C38.9304 33.2761 38.8553 33.0677 38.7859 32.8751C38.7314 32.7237 38.6804 32.5821 38.6584 32.4501C38.6943 32.4141 38.782 32.4299 38.847 32.4416C38.8724 32.4461 38.8943 32.4501 38.9084 32.4501C41.3584 33.1501 42.2084 36.4001 40.8584 38.4501C40.2208 39.3648 39.3067 40.0183 38.3885 40.6746C37.6505 41.2022 36.9099 41.7316 36.3083 42.4001C35.9027 42.8057 35.5514 43.2386 35.1944 43.6786L35.1943 43.6787L35.1941 43.6789C35.0672 43.8354 34.9395 43.9927 34.8083 44.1501C34.7797 44.1787 34.7566 44.2037 34.7368 44.225L34.7367 44.2251C34.6529 44.3155 34.6297 44.3405 34.5083 44.3001ZM26.8083 38.45C27.0583 39.15 28.2084 39.65 28.9084 39.9C29.9084 40.1 30.9584 40 31.9584 39.9C32.9846 39.9466 31.6608 39.0793 31.235 38.8004L31.234 38.7998C31.2039 38.78 31.1783 38.7632 31.1584 38.75C30.5467 38.3524 29.879 38.4599 29.2009 38.569H29.2009H29.2009H29.2008H29.2008H29.2008H29.2007H29.2007H29.2007H29.2006H29.2006H29.2006H29.2005H29.2005H29.2005H29.2004H29.2004H29.2004H29.2003H29.2003H29.2003C28.7699 38.6383 28.3354 38.7082 27.9084 38.65C27.7035 38.6756 27.5118 38.6094 27.3265 38.5455C27.1499 38.4845 26.9791 38.4256 26.8083 38.45ZM52.6084 51.35C51.6084 50.9 50.4584 50.15 49.9084 49.15C50.5583 46.85 51.3583 44.6001 52.1583 42.3502L52.1584 42.35C54.0084 37.1 55.1584 31.6 55.4584 26.05C55.5079 25.5304 55.5512 25.0108 55.5945 24.4919C55.7262 22.9138 55.8573 21.3428 56.1584 19.8C56.1786 19.6479 56.2154 19.4526 56.2565 19.2342L56.2565 19.2342C56.418 18.3754 56.6468 17.1587 56.2084 16.8C50.8584 15.2 45.4084 14.05 39.9084 13.1C39.2819 13.0324 38.6276 12.9483 37.9551 12.8618C33.1531 12.2442 27.4284 11.508 24.3584 15.85C22.6276 18.1989 22.5971 20.9681 22.5664 23.7561C22.5475 25.4784 22.5284 27.208 22.1084 28.85C21.974 29.3426 20.8368 28.3912 20.4214 28.0436C20.373 28.0032 20.3344 27.9709 20.3084 27.95C19.8299 27.5672 19.9619 27.0013 20.0943 26.434C20.1694 26.112 20.2446 25.7896 20.2084 25.5C20.3472 24.334 20.3318 23.1526 20.3164 21.9643C20.3041 21.0125 20.2916 20.0562 20.3584 19.1C20.8584 13.15 25.3584 10.25 31.0584 10.75C38.1084 11.05 45.0584 12.75 51.9084 14.45C56.0084 15.5 59.7584 16.7 58.2584 21.75C57.9535 24.0057 57.8469 26.2779 57.7405 28.5465C57.5851 31.8596 57.43 35.165 56.6584 38.4C56.0044 41.4291 55.0423 44.387 54.0821 47.3392C53.6476 48.6753 53.2134 50.0102 52.8084 51.35C52.7417 51.3833 52.675 51.3833 52.6084 51.35ZM14.5407 75.7332C16.6392 76.5479 18.7185 77.3553 20.9583 77.4001C26.3865 77.2206 30.9292 74.2236 35.3087 71.3343L35.3088 71.3342L35.309 71.3341L35.3091 71.334C35.8106 71.0032 36.31 70.6737 36.8083 70.3501C41.5583 67.5501 46.0583 64.3 50.3583 60.8C51.0583 60.5 48.6583 58.5501 48.0583 58.6501C42.3583 63.1501 36.3083 67.0501 30.1583 70.9501C26.1083 73.6501 21.0083 76.2001 16.0083 74.9501C12.8083 73.9001 9.50829 72.7501 6.60829 70.9501C2.59456 68.2154 3.71674 67.1928 6.19934 64.9303C6.53104 64.6281 6.88702 64.3037 7.25828 63.9501C7.70804 63.5522 8.15779 63.153 8.608 62.7534L8.60953 62.7521C12.0628 59.687 15.5432 56.5979 19.2583 53.9001C19.5583 53.9001 19.5583 53.7501 19.4083 53.5001C18.5583 52.4501 17.3583 51.35 16.0083 51.05C15.4989 51.2411 15.0909 51.6145 14.681 51.9897L14.6809 51.9897C14.4471 52.2038 14.2126 52.4184 13.9583 52.6001C13.2637 53.2354 12.5648 53.8692 11.8648 54.5041L11.8633 54.5054L11.8619 54.5067L11.8604 54.508L11.859 54.5093L11.8575 54.5106L11.8561 54.512L11.8546 54.5133L11.8532 54.5146L11.8517 54.5159L11.8503 54.5172L11.8492 54.5182L11.8491 54.5183L11.849 54.5184L11.8489 54.5185L11.8488 54.5186L11.8487 54.5187L11.8486 54.5188L11.8481 54.5192C8.42145 57.6268 4.96796 60.7587 1.85829 64.2001C-0.0168407 65.9814 2.06365 67.8947 3.52577 69.2392L3.52674 69.2401L3.52686 69.2402C3.62384 69.3294 3.71809 69.4161 3.80829 69.5001C6.65829 72.1501 10.1583 74.1001 13.8083 75.4501C14.0529 75.5437 14.2969 75.6385 14.5407 75.7332ZM37.9583 61.6501C36.5704 61.1753 35.4493 60.1669 34.3416 59.1706L34.3415 59.1705C33.9329 58.8029 33.526 58.437 33.1083 58.1001C31.0583 57.1001 28.7083 56.9501 26.4583 57.3501C25.3651 57.4762 24.3072 57.7792 23.255 58.0805L23.2547 58.0806C23.0558 58.1375 22.857 58.1945 22.6583 58.2501C21.8583 58.5501 21.1083 58.2001 20.4083 57.7001C20.3454 57.6581 20.2806 57.6155 20.2147 57.572L20.2118 57.5701L20.2116 57.5699C19.4922 57.0956 18.6242 56.5234 18.2583 55.7001C24.8583 53.6501 29.6583 53.8001 35.1083 58.6001C35.1698 58.6738 35.4458 58.9047 35.8092 59.2088L35.8095 59.209L35.81 59.2093L35.81 59.2094L35.8101 59.2094C36.9254 60.1424 38.8631 61.7632 37.9583 61.6501ZM60.7583 14.8C61.1583 15.6 62.1083 16.2 62.9583 16.55C63.6069 16.2618 64.3248 16.0543 65.0509 15.8444C65.8361 15.6175 66.6309 15.3877 67.3583 15.05C67.6073 14.916 67.8783 14.7892 68.1516 14.6614C68.5918 14.4555 69.0381 14.2468 69.4083 14C69.4583 13.9 69.3083 13.75 69.2583 13.7C68.6583 13.05 67.9083 12.45 67.1083 12.15C66.4083 12.375 65.7208 12.7 65.0333 13.025C64.3458 13.35 63.6583 13.675 62.9583 13.9C62.6879 14.0352 62.3728 14.1182 62.059 14.2008C61.5604 14.3321 61.0652 14.4625 60.7583 14.8ZM21.4082 96.6C20.362 96.2861 19.3103 96.003 18.2642 95.7214C13.8111 94.5226 9.45925 93.3511 6.0582 89.95C0.908195 85.85 0.558195 79.3 0.808195 73.25C1.7582 73.1 4.95819 75.55 5.00819 76.55C4.99922 76.7541 4.98985 76.9595 4.98042 77.1662C4.77966 81.5678 4.55396 86.5159 7.6582 90.05C9.28007 91.481 11.6705 92.0626 14.0063 92.6308L14.0064 92.6309L14.0064 92.6309C15.343 92.956 16.6617 93.2768 17.8082 93.75C18.4582 93.9 19.1082 94.15 19.6582 94.55C20.0082 94.75 22.3582 96.55 21.4082 96.6ZM37.7083 94.25C38.2083 95.25 39.2582 95.95 40.2582 96.4C45.4582 94.7 50.2082 91.95 54.8082 89C55.8365 88.3145 56.9216 87.7104 58.0079 87.1055C59.6157 86.2103 61.226 85.3137 62.6582 84.15C64.7329 82.5325 64.384 80.5934 64.0117 78.5242C63.8547 77.6512 63.6934 76.755 63.7083 75.85C64.0583 70.95 62.1082 67.65 58.8582 64.15C58.2082 63.25 57.5582 62.4 56.6082 61.8C56.5472 61.7594 56.4614 61.6985 56.3577 61.6249C55.696 61.1554 54.304 60.1678 53.9583 60.6C54.475 61.6335 55.258 62.4746 56.0417 63.3166C56.6989 64.0226 57.3566 64.7291 57.8582 65.55C59.6582 67.85 60.1082 70.7 60.0582 73.5C60.0424 74.6121 60.2788 75.603 60.4983 76.5224C60.9695 78.4969 61.3621 80.142 59.0082 81.9501C57.748 82.869 56.4326 83.6776 55.12 84.4846C53.9328 85.2143 52.748 85.9427 51.6082 86.75L51.2152 87.0159L51.215 87.016C47.7955 89.3296 44.3606 91.6536 40.5082 93.05C40.1115 93.2484 39.6855 93.4079 39.2605 93.5671C38.7213 93.7691 38.1835 93.9705 37.7083 94.25ZM14.9082 84.1C13.8082 83.85 12.8082 83.05 12.1582 82.15C11.5082 82.45 10.7582 82.7 10.1082 82.3C9.35824 81.95 8.45825 81.45 8.20825 80.6C8.06825 79.935 8.09975 79.27 8.13125 78.605C8.14475 78.32 8.15825 78.035 8.15825 77.75C8.11066 77.5121 8.24422 77.5459 8.42962 77.5928L8.45825 77.6C9.75972 78.231 9.75465 78.6443 9.74351 79.5514C9.74053 79.7943 9.73711 80.0726 9.75824 80.4C9.77689 80.456 9.77467 80.5885 9.77234 80.7274C9.76842 80.961 9.7642 81.2127 9.85824 81.15C10.0626 81.0887 10.2587 80.9939 10.4532 80.8999C10.7345 80.764 11.0126 80.6296 11.3082 80.6C12.3582 80.85 13.3082 81.7 13.6582 82.7C14.5481 82.3611 15.1506 81.5912 15.7093 80.8773C15.8099 80.7488 15.9091 80.6221 16.0082 80.5C16.5121 80.458 16.9454 80.8039 17.3082 81.0935L17.3086 81.0938L17.3097 81.0946C17.3784 81.1495 17.4446 81.2023 17.5082 81.25C17.8352 81.468 18.0038 81.7916 18.1674 82.1056C18.229 82.2238 18.2899 82.3407 18.3582 82.45C18.3916 82.55 18.4582 82.6 18.5582 82.6C19.7582 82.75 20.7082 81.8 21.4082 80.9C21.4269 80.8814 21.4421 80.8644 21.4554 80.8496L21.4555 80.8495C21.5135 80.7848 21.5363 80.7594 21.6582 80.8C22.2582 81 23.5082 81.7 23.6082 82.3C22.8082 83.3 21.6582 84.25 20.2582 84C19.2582 83.8 18.3582 83.2 17.5582 82.55C17.5184 82.5102 17.4927 82.4809 17.4754 82.4613L17.4753 82.4612C17.4557 82.4388 17.4471 82.429 17.4411 82.4305C17.4366 82.4316 17.4336 82.4394 17.4283 82.4534C17.4239 82.4649 17.418 82.4806 17.4082 82.5L17.3596 82.5562C16.7208 83.2941 15.9809 84.1488 14.9082 84.1ZM25.4583 79.4501C25.9083 81.0501 28.0582 82.4501 29.5582 83.1001C31.6082 84.0001 33.3082 82.2001 33.5582 80.2501C36.6082 81.6501 40.6582 79.3501 40.6582 75.9501C43.4582 77.0001 46.5082 75.3501 46.5582 72.15C46.5582 71.9501 46.5582 71.8 46.8082 71.9C48.8582 72.5001 51.6582 71.8 51.8582 69.3C52.7582 69.5 53.8582 69.55 54.6082 68.9C55.4082 68.15 55.1083 67.1001 54.2083 66.6001C54.1171 66.548 54.0158 66.4721 53.9087 66.392C53.6046 66.1644 53.2541 65.9021 52.9583 66.05C53.2583 67.55 51.4582 68.0501 50.2582 67.7501C50.2164 67.7501 50.1667 67.7384 50.1136 67.7259C49.9764 67.6936 49.8164 67.6559 49.7083 67.8C49.5083 70.15 46.8582 70.8501 44.8582 70.2001C44.824 70.2001 44.7819 70.1949 44.7362 70.1892C44.5817 70.17 44.3854 70.1457 44.3082 70.3C44.2582 72.75 42.6082 74.6001 40.0582 74.4501C39.7351 74.477 39.4265 74.3734 39.1246 74.2721C38.8659 74.1852 38.6121 74.1001 38.3582 74.1001C38.2151 74.186 38.2031 74.3703 38.1908 74.559C38.1817 74.6999 38.1723 74.8432 38.1082 74.9501C37.8082 77.0001 35.8082 78.4501 33.8082 78.7001C32.9582 78.8501 32.0582 78.6 31.2582 78.3C31.2082 78.25 31.1082 78.25 31.0082 78.3C30.6082 79.7 29.8582 81.4 28.1082 81.3C27.5582 80.6 26.3083 79.5001 25.4583 79.4501ZM28.9082 94.0001C27.7082 93.4501 26.4582 92.5501 25.9082 91.3501C25.4082 89.6001 24.8083 87.8001 24.2083 86.0501C24.36 85.7846 24.9146 86.1522 25.3045 86.4105L25.3046 86.4106C25.4286 86.4928 25.5359 86.5639 25.6082 86.6001C27.1582 87.6501 27.7583 88.9001 28.2083 90.7001C28.5583 91.7501 28.8582 92.8501 29.1082 93.9501C29.1082 94.1001 28.9582 94.0501 28.9082 94.0001ZM29.8582 91.4C30.8582 92.6 32.1582 93.7 33.6082 94.3C33.6344 94.3 33.6597 94.3008 33.6838 94.3016C33.844 94.3071 33.9516 94.3107 33.9082 94.05C33.8082 93.4833 33.6915 92.9 33.5582 92.3C33.3778 90.8121 32.0184 89.8527 30.8364 89.0186L30.836 89.0184C30.7074 88.9276 30.5809 88.8383 30.4582 88.75C30.3816 88.7021 30.2995 88.6451 30.2133 88.5852L30.2132 88.5851C29.8493 88.3323 29.4124 88.0287 29.0082 88.15C28.9074 88.2172 28.9647 88.42 29.0131 88.5912C29.0367 88.6748 29.0582 88.7508 29.0582 88.8C29.1739 89.128 29.2525 89.4708 29.3311 89.8142C29.4563 90.3608 29.5818 90.9087 29.8582 91.4ZM58.8082 13.6C58.2082 13.4 57.6082 13 57.1082 12.6C57.0415 12.5333 56.9582 12.5 56.8582 12.5C56.5167 12.4786 56.1752 12.5575 55.8376 12.6355C55.3843 12.7402 54.938 12.8433 54.5082 12.7L54.3858 12.6426C53.5603 12.2561 52.5963 11.8049 52.3582 10.9C51.8494 10.8434 51.3885 11.0426 50.9213 11.2445C50.5622 11.3997 50.1994 11.5565 49.8082 11.6C48.9582 11.35 47.7582 10.7 47.4582 9.84999C46.8919 9.82425 46.3388 10.0238 45.7854 10.2235C45.2638 10.4117 44.7419 10.6 44.2082 10.6C43.4082 10.4 41.8082 9.59999 41.8082 8.69999C41.5578 8.69999 41.3074 8.80235 41.0753 8.89723C40.983 8.93497 40.8936 8.97152 40.8082 8.99998C40.5388 9.07922 40.2694 9.18358 39.9968 9.28917C39.4093 9.51671 38.8071 9.74998 38.1582 9.74998C37.2582 9.59998 35.9082 8.89999 35.6082 7.94999C35.2252 7.87339 34.8128 7.97283 34.416 8.0685C34.2949 8.09772 34.1752 8.12658 34.0582 8.14998C33.3082 8.39998 32.6082 8.74999 31.9582 9.19999C31.7582 9.34999 31.5082 9.44997 31.2582 9.29997C30.7082 9.04997 30.1082 8.69999 29.7082 8.19999C29.6731 8.12983 29.7119 8.10889 29.7554 8.08536C29.7739 8.07536 29.7933 8.06489 29.8082 8.04997C29.9714 7.95474 30.131 7.85951 30.2889 7.76529C30.7112 7.51321 31.1214 7.26834 31.5582 7.04997C33.5582 6.09997 35.7082 6.59999 37.2082 8.19999C37.5711 8.10449 37.956 7.9506 38.3543 7.7913C38.9987 7.53362 39.6784 7.26179 40.3582 7.19999C41.5582 7.14999 42.6082 7.94999 43.4582 8.69999C43.4915 8.79999 43.5415 8.81665 43.6082 8.74998C45.1582 8.14998 46.9082 8.34998 48.2082 9.39998C48.287 9.44728 48.3609 9.51944 48.4329 9.58981C48.5893 9.74259 48.737 9.88691 48.9082 9.74998C50.7082 8.99998 52.6082 9.89997 53.9082 11.15C55.7582 10.75 57.7082 11.9 58.8582 13.3C58.9582 13.4 59.1082 13.65 58.8082 13.6ZM56.2083 47.85C56.6583 48.65 58.0583 49.4 58.9082 49.7C59.1406 49.7 59.3288 49.5238 59.5023 49.3614C59.5901 49.2791 59.6742 49.2004 59.7582 49.15C61.6082 47.8 62.3082 45.4 60.8582 43.55C60.8582 43.2422 61.0454 42.9578 61.2277 42.6808L61.2277 42.6808C61.3119 42.5528 61.3951 42.4264 61.4583 42.3C61.5417 42.171 61.6309 42.0398 61.7216 41.9062C62.2291 41.1595 62.7855 40.3407 62.6582 39.45C62.5232 38.9548 62.1449 38.5812 61.7789 38.2197C61.7384 38.1797 61.6981 38.1399 61.6582 38.1C61.5583 38.05 61.5082 37.95 61.5082 37.8C61.5394 37.6752 61.6485 37.5699 61.7625 37.4598C61.8313 37.3934 61.9018 37.3252 61.9583 37.25C63.5083 36.05 63.7082 34.85 62.5582 33.2C62.5372 33.1649 62.5121 33.1268 62.4858 33.0867L62.4857 33.0865L62.4856 33.0864C62.3245 32.8413 62.1146 32.5218 62.4583 32.35C64.1083 31.1 64.8582 29.5 63.6082 27.65C62.9229 26.9105 63.6038 26.3467 64.3531 25.7262C65.6811 24.6266 67.2241 23.3489 61.7582 20.6C59.2582 19.6 59.2582 20.25 61.3582 21.5C61.4123 21.53 61.4656 21.5601 61.5185 21.5898C61.9058 21.8079 62.2683 22.012 62.7083 22.1C62.8083 22.4 62.7082 22.75 62.5582 23C62.3096 23.4697 61.9236 23.8325 61.5436 24.1896C61.2358 24.4789 60.932 24.7644 60.7083 25.1C60.5732 25.5246 60.818 25.9641 61.0919 26.4559C61.5277 27.2381 62.0372 28.1527 61.2083 29.35C60.9492 29.7709 60.5645 30.045 60.176 30.3217C59.9646 30.4724 59.7521 30.6238 59.5582 30.8C59.4733 31.0972 59.6407 31.3583 59.785 31.5834C59.8107 31.6234 59.8356 31.6623 59.8582 31.7L59.8865 31.7409C60.3289 32.3793 60.8051 33.0667 60.6582 33.85C60.6093 34.5112 60.0087 34.9684 59.4907 35.3628C58.951 35.7737 58.5011 36.1163 58.8582 36.55C58.9856 36.7834 59.185 36.9628 59.3838 37.1417C59.6534 37.3843 59.9219 37.6259 60.0082 38C60.0512 39.0741 59.3188 39.9267 58.6678 40.6847L58.6677 40.6848L58.6676 40.6849L58.6667 40.6859C58.5605 40.8096 58.4564 40.9308 58.3582 41.05C58.3244 41.1007 58.2892 41.15 58.2545 41.1986C58.0837 41.4374 57.9251 41.6592 58.0082 41.95C59.2582 43.55 59.3082 45.35 57.7582 46.8C57.5166 47.0416 57.2173 47.2112 56.9223 47.3783C56.6679 47.5225 56.4166 47.6648 56.2083 47.85ZM64.9583 11.9001C63.8583 11.5501 62.8083 10.9501 62.0083 10.1501C61.5269 9.79989 62.0416 9.52637 62.4122 9.32947C62.4649 9.30145 62.5147 9.27498 62.5583 9.25006C62.6864 9.19314 62.8145 9.12406 62.9437 9.05436C63.2686 8.87918 63.6007 8.70007 63.9583 8.70007C64.4189 8.78381 64.8093 9.00776 65.1883 9.22518C65.2619 9.26742 65.3351 9.3094 65.4083 9.35007C65.5409 9.43847 65.6833 9.52442 65.8279 9.61172C66.3375 9.91941 66.8746 10.2437 67.1083 10.7501C66.9231 10.8823 66.71 10.9726 66.491 11.0654C66.2961 11.1479 66.0967 11.2323 65.9083 11.3501C65.6583 11.4501 65.3583 11.6001 65.2083 11.8501C65.1713 11.9242 65.1067 11.9159 65.035 11.9066C65.01 11.9034 64.9842 11.9001 64.9583 11.9001ZM28.9739 21.9827C28.3778 23.818 28.0072 24.959 30.4582 26.1H30.4582C30.6082 26.1 30.6582 26.1 30.6582 25.95C30.7082 24.9 31.0082 23.85 31.3082 22.8C31.5582 22.2 29.8082 20.9 29.3082 20.9C29.1999 21.2869 29.0832 21.6463 28.974 21.9823L28.974 21.9825L28.9739 21.9827L28.9739 21.9827L28.9739 21.9827ZM39.5082 26.7001C37.6704 25.7812 38.0536 25.2453 38.8816 24.0869L38.8818 24.0867L38.8819 24.0865L38.8825 24.0858L38.8829 24.0852L38.8832 24.0848C39.0009 23.9201 39.1276 23.7428 39.2582 23.5501C39.3635 23.4285 39.4702 23.303 39.5784 23.1757L39.5785 23.1755L39.579 23.1749L39.58 23.1738L39.5804 23.1733L39.5804 23.1733C40.1392 22.5158 40.7387 21.8104 41.4082 21.3501C41.9582 21.5501 42.4082 21.9501 42.7582 22.4001C42.8915 22.5334 42.8748 22.6501 42.7082 22.7501C41.4082 23.8501 40.3082 25.3001 39.5082 26.7001ZM44.8083 32.8501C45.2584 33.6501 46.0584 34.3501 46.9084 34.7001C47.0204 34.646 47.1325 34.5916 47.2446 34.5371C48.5837 33.8871 49.9359 33.2307 51.4584 33.0001C51.7084 32.6001 50.4584 31.7001 50.1084 31.4501C49.5106 30.9578 48.7398 31.2073 47.9872 31.451C47.6695 31.5538 47.3551 31.6556 47.0583 31.7001C46.3083 31.9501 45.5584 32.3001 44.8584 32.7001L44.8583 32.7001C44.8084 32.7501 44.8083 32.7501 44.8083 32.8501ZM47.9582 44.65C46.2082 44 44.5582 43 43.4582 41.45C43.3582 41.35 42.7582 40.5 43.3082 40.65C45.0582 41.3 46.7082 42.3 47.8082 43.85C47.9582 44 48.5082 44.75 47.9582 44.65ZM15.6353 31.0645C16.0802 31.4387 16.5374 31.8232 17.1083 32.1C17.9583 32 15.2083 29.65 14.8583 29.4C13.4583 28.3 11.8083 27.35 9.95829 27.55C9.60829 27.95 11.5083 29.5 11.9583 29.7C12.1047 29.7732 12.2243 29.7928 12.376 29.8177L12.376 29.8177C12.4315 29.8268 12.4913 29.8366 12.5583 29.85C13.9971 29.6865 14.7943 30.3571 15.6353 31.0645ZM11.4084 39.8C10.9584 39.65 9.30835 38.4 9.55835 37.95C10.5583 37.7 11.6084 37.45 12.6584 37.6C13.8084 37.65 14.8083 38.3 15.5083 39.2C15.5583 39.25 15.8084 39.55 15.7084 39.65C14.3084 39.3 12.8084 39.5 11.4084 39.8ZM47.1621 53.7195C47.877 54.2382 48.5944 54.7587 49.4082 55.1C50.3582 55.05 47.7082 53.15 47.4582 53C45.2582 51.25 42.6582 50.1 40.1082 49.1C39.9582 49.025 39.8082 48.925 39.6582 48.825C39.5082 48.725 39.3582 48.625 39.2082 48.55C38.7582 48.25 38.2582 48.25 38.8582 48.8C40.2091 50.2303 42.0019 51.0292 43.7851 51.8238C44.2461 52.0292 44.7064 52.2344 45.1582 52.45C45.8706 52.7825 46.5154 53.2503 47.1621 53.7195Z" fill="black"/>
</svg>
