<svg width="37" height="143" viewBox="0 0 37 143" fill="none" xmlns="http://www.w3.org/2000/svg">
<path fill-rule="evenodd" clip-rule="evenodd" d="M23.4403 12.8207C22.9666 14.1274 22.713 14.8268 25.15 16.35C27.4 12.9 25.35 8.25 23.8 4.8C23.7094 4.52797 23.5821 4.25594 23.4543 3.98253C23.1591 3.35137 22.8605 2.71286 23 2.05C22.8 1.3 22.05 0.700002 21.4 0.300002C21.3 0.200002 21.15 0.249995 21.1 0.449995C21.1 0.699904 20.8961 0.898827 20.6885 1.10137C20.6053 1.18249 20.5215 1.2642 20.45 1.34999C19.8012 2.13539 18.9075 2.78087 18.0119 3.42777C16.2846 4.67528 14.55 5.9281 14.55 8.2C14.6 10.75 15.2 13.85 17.65 15.2C18.0714 15.2383 17.8178 14.8951 17.6311 14.6425L17.6311 14.6425C17.5742 14.5654 17.5234 14.4968 17.5 14.45C17.1763 14.1668 17.1146 13.7853 17.0498 13.3851L17.0498 13.385C17.0346 13.2907 17.0191 13.1953 17 13.1C15.9454 9.06485 17.6662 7.67896 20.3112 5.54865C20.5504 5.35602 20.7971 5.1573 21.05 4.95L21.0501 4.94997L21.0501 4.94994C21.4501 4.54996 21.8501 4.14997 22.2 3.7L22.3 3.95C24.7973 9.07743 23.9774 11.3393 23.4403 12.8207ZM20.9001 22.2C20.0501 21.8 19.3 21.1 18.8 20.25C18.8172 20.0094 18.833 19.7672 18.8487 19.5244C18.9246 18.3545 19.0016 17.168 19.25 16.05C19.9 16.1 21.35 17.35 21.3 18.05C21.1799 18.8612 21.168 19.6724 21.156 20.4944C21.148 21.0404 21.14 21.5913 21.1001 22.15C21.064 22.2221 21.028 22.2163 20.9732 22.2074C20.952 22.2039 20.928 22.2 20.9001 22.2ZM14.1001 79.5C14.1001 80.65 15.4001 81.6 16.3501 82.1C17.9501 65.8 19.5001 48.6 19.6501 31.9C19.6699 31.3849 19.6858 30.8717 19.7017 30.3597V30.3597C19.7658 28.2876 19.8294 26.2349 20.1501 24.15C20.3382 23.4448 19.421 22.7838 18.8536 22.3749C18.8176 22.3489 18.7829 22.3239 18.7501 22.3001C18.735 22.3001 18.7152 22.2955 18.6937 22.2905C18.6441 22.2789 18.585 22.2652 18.5501 22.3001C18.5001 22.3001 18.5001 22.4 18.5001 22.45C18.1396 24.4126 18.0358 26.4072 17.9317 28.4082C17.9058 28.9052 17.8799 29.4026 17.8501 29.9C17.6501 35.6334 17.3668 41.3501 17.0001 47.0501C16.6313 54.9341 15.7097 62.733 14.7844 70.5646L14.7839 70.5681C14.7059 71.2285 14.6279 71.8891 14.5501 72.55C14.3168 74.8501 14.1668 77.1667 14.1001 79.5ZM22.15 82.0502C22.15 83.1002 23.4 83.8502 24.3 84.3002H24.35C24.5126 84.2352 24.4848 83.9586 24.4593 83.7044C24.4456 83.5677 24.4325 83.4376 24.45 83.3502L24.25 66.1502C24.226 64.2912 24.2071 62.431 24.1881 60.5698L24.1881 60.5691C24.0891 50.817 23.9897 41.041 23.15 31.3002C23.1 30.3003 23.0125 29.3003 22.925 28.3004L22.925 28.3002L22.925 28.3C22.8375 27.3001 22.75 26.3001 22.7 25.3002C22.65 24.6002 21.65 23.9002 21 23.7002C21.0895 25.3863 21.1969 27.0903 21.3047 28.8028L21.3048 28.8028C21.5584 32.8285 21.8149 36.9013 21.85 40.9002C21.9308 47.0118 21.9101 53.138 21.8893 59.263V59.2633C21.8716 64.513 21.8538 69.7619 21.9 75.0002C21.9 77.3669 21.9833 79.7169 22.15 82.0502ZM22.1001 90.7501C18.3501 90.7001 14.3001 90.0002 11.8001 86.9501C11.6973 86.8193 11.5787 86.6832 11.4559 86.5422L11.4556 86.5419L11.4555 86.5417C10.9214 85.9285 10.3062 85.2224 10.5501 84.4501C10.9501 83.9501 13.2501 86.2501 12.7501 86.6501C13.7446 87.7311 16.7582 87.7651 18.6868 87.7869C18.9884 87.7903 19.2635 87.7934 19.5001 87.8002C19.6362 87.7661 20.0213 87.7495 20.4603 87.7305C21.3113 87.6937 22.365 87.6481 22.2001 87.4501C21.8785 86.9857 23.0122 86.7765 23.8498 86.622L23.8499 86.622L23.85 86.6219L23.85 86.6219L23.8501 86.6219L23.8502 86.6219C24.1846 86.5602 24.4717 86.5072 24.6001 86.4501C27.0501 85.6002 29.4501 87.7501 30.3501 89.8501C30.2774 90.1772 29.9406 90.2137 29.6276 90.2477C29.51 90.2604 29.3957 90.2728 29.3001 90.3002C26.9001 90.6002 24.5001 90.8001 22.1001 90.7501ZM10.5585 96.9942C10.5625 100.563 10.5662 103.935 16.65 107.1C18.8 107.8 25.05 107.95 26 105.45C25.4 104.4 24.15 102.85 22.95 102.65C21.25 104.4 16.2 104.6 13.9 104C13.1392 102.283 13.0116 100.395 12.8844 98.5145C12.7191 96.0692 12.5545 93.6349 11 91.6001C10.8 91.3001 9.20005 89.4501 9.05005 90.0501C10.5534 92.44 10.556 94.7557 10.5585 96.9942ZM28.9001 102.25C27.8501 101.7 26.75 100.7 26.3 99.6C26.8 97.45 27.0501 95.3 26.9001 93.1C26.7712 92.2841 27.6383 93.0542 28.0439 93.4145C28.1106 93.4737 28.1648 93.5218 28.2001 93.55C29.578 94.5737 29.561 95.6903 29.5402 97.0464C29.5346 97.4125 29.5288 97.7961 29.55 98.2C29.5418 98.2904 29.5323 98.463 29.5198 98.6879L29.5198 98.6881C29.4564 99.8331 29.3179 102.334 28.9001 102.25ZM0.75 131.9C1.3 133.2 2.55 134.3 3.8 134.95C11 133.85 17.35 127.55 16.7 119.95C16.4 117.05 16.05 113.75 14.05 111.45C14.0143 111.423 13.9659 111.381 13.9106 111.332L13.9104 111.332C13.6563 111.108 13.2589 110.757 13.3 111.25C13.3266 111.383 13.4241 111.474 13.5245 111.567C13.6127 111.649 13.7032 111.733 13.75 111.85C16.55 118.65 13.5 126.95 6.7 129.95C5.50549 130.563 4.16506 130.927 2.85369 131.282C2.13407 131.477 1.4232 131.67 0.75 131.9ZM28.7999 134.8C23.2499 132.05 20.8999 126.8 20.5999 120.85C20.5906 120.667 20.5777 120.451 20.5632 120.208C20.4233 117.862 20.1359 113.042 21.4499 112C21.8499 111.95 24.5499 114.1 23.8499 114.35C22.8058 117.301 23.2868 120.911 23.721 124.171L23.7211 124.171C23.765 124.502 23.8085 124.828 23.8499 125.15C25.4085 132.76 26.0845 132.762 32.1197 132.787C32.6674 132.789 33.2593 132.792 33.8999 132.8C34.5999 133.2 37.2499 135.15 36.7499 135.85C34.0999 136.3 31.2499 136 28.7999 134.8ZM4.1001 137.3C5.5501 140.25 12.5001 141.75 15.6501 142.25C21.4534 143.217 27.2142 141.936 32.8936 140.673C33.3797 140.564 33.8652 140.456 34.3501 140.35C34.9501 140.25 34.9501 140.05 34.6501 139.6C34.5713 139.504 34.4831 139.393 34.3867 139.272C33.6269 138.318 32.3651 136.734 31.3001 137C30.9553 137.108 30.6106 137.217 30.2658 137.326C26.3096 138.575 22.3433 139.828 18.2501 140.15C13.3501 140.55 8.4001 139.5 4.1001 137.3Z" fill="black"/>
</svg>
