<svg width="37" height="52" viewBox="0 0 37 52" fill="none" xmlns="http://www.w3.org/2000/svg">
<path fill-rule="evenodd" clip-rule="evenodd" d="M22.3777 18.4265C21.4277 18.8265 24.3277 20.7765 24.7777 20.8265C27.8777 19.5265 28.6777 15.3765 27.3277 12.5265C26.5777 10.7765 25.3647 9.33512 24.1517 7.89376C23.1814 6.74067 22.211 5.58759 21.4777 4.27647C21.1277 3.62647 20.8277 2.87648 20.8277 2.12648C20.4277 1.32648 19.5777 0.77648 18.8277 0.37648C18.4397 0.0660993 18.142 0.387928 17.8646 0.687879C17.7845 0.774486 17.7061 0.859269 17.6277 0.926484C17.507 1.04128 17.3848 1.15721 17.2614 1.27429C14.2128 4.16596 10.4244 7.75937 11.5777 12.2765L11.6066 12.3691C12.3497 14.7481 13.2072 17.4932 15.4777 18.7765C16.7639 19.568 16.4995 19.083 15.8654 17.9197C14.8972 16.1436 13.0671 12.7862 14.5777 9.97649C15.3691 7.76893 17.0279 6.08183 18.6581 4.42383C18.9849 4.09153 19.3105 3.7604 19.6277 3.42648C20.2318 4.29243 20.9739 5.18271 21.7362 6.09732C22.8666 7.45353 24.0415 8.86325 24.8777 10.3265C26.4777 13.1765 25.3277 16.9765 22.3777 18.4265ZM17.6776 23.5264C18.3276 24.5264 19.3776 25.3264 20.4776 25.8264C20.4985 25.8264 20.5194 25.8285 20.5393 25.8306C20.615 25.8385 20.6776 25.8451 20.6776 25.7264C20.5776 24.3597 20.3887 22.993 20.1998 21.6264C20.1054 20.943 20.0109 20.2597 19.9276 19.5764C20.1276 19.1264 17.4276 16.8764 17.5276 17.8264V17.8264C17.5276 19.7264 17.5276 21.6264 17.6776 23.5264ZM8.4278 33.5764C5.7278 33.3764 2.6278 32.0264 1.6278 29.3764C1.54545 27.6059 3.29417 26.4796 4.77964 25.5228L4.77967 25.5228C5.09801 25.3178 5.40426 25.1205 5.6778 24.9264C8.3278 23.3764 11.9278 21.3264 14.6278 23.9264C14.7388 24.0215 14.856 24.1179 14.9758 24.2163C15.6114 24.7388 16.3174 25.3191 16.5278 26.0764C16.5278 26.197 16.4309 26.1883 16.3409 26.1803C16.319 26.1783 16.2974 26.1764 16.2778 26.1764C14.9141 25.3485 13.3607 25.8488 11.9872 26.2912L11.8778 26.3264L11.6316 26.4213C9.35197 27.2993 5.04725 28.9573 4.2278 31.1264C4.0874 31.337 4.78481 31.4491 5.2994 31.5317C5.51783 31.5668 5.70331 31.5966 5.7778 31.6264C13.6278 32.5764 21.7778 31.5264 29.2278 28.8764C29.4977 28.7627 29.8081 28.6491 30.1278 28.532L30.1278 28.532C30.9332 28.237 31.7983 27.9201 32.2278 27.5264C32.1478 27.4997 32.0679 27.4747 31.9885 27.4498L31.9884 27.4498C31.621 27.3345 31.2656 27.2231 30.9778 26.9764C30.5778 26.8264 28.2278 24.7264 29.9278 25.4264C31.1778 25.6764 36.7778 28.5264 33.9278 29.7264C26.0278 33.1264 17.0278 34.2764 8.4278 33.5764ZM3.42764 46.4265C7.12765 51.0765 12.7276 51.6765 18.2776 51.5765C18.6815 51.5666 19.0854 51.5571 19.4892 51.5476C23.1349 51.4621 26.7765 51.3766 30.3776 50.9265C35.1276 50.3765 36.8776 48.6765 36.7276 43.8265C36.7276 41.4765 36.7276 39.0765 36.3776 36.7765C35.8776 36.0265 34.5276 34.5265 33.5776 34.5265C33.5776 35.4785 33.6348 36.4495 33.6922 37.427C33.8431 39.9918 33.9965 42.6009 33.1276 45.0265C31.85 48.2605 24.6105 48.4339 19.734 48.5507C18.5035 48.5801 17.4235 48.606 16.6276 48.6765C16.1058 48.6765 15.5817 48.6822 15.0567 48.688C12.1106 48.7201 9.13608 48.7526 6.37764 47.7765C5.99423 47.5465 5.93423 46.9636 5.88201 46.4563C5.86613 46.302 5.85096 46.1548 5.82764 46.0265C5.63949 44.1136 5.54968 42.1811 5.45952 40.2413C5.40593 39.0881 5.35221 37.9323 5.27765 36.7765C5.07765 35.5265 2.47764 33.7265 1.32764 33.2265C1.12764 33.1265 0.627644 32.9765 0.777644 33.3765C0.845571 33.7569 0.917189 34.1336 0.988486 34.5086C1.17959 35.5138 1.3684 36.5069 1.47764 37.5265C1.64573 38.4433 1.71108 39.3975 1.77644 40.3519C1.92497 42.5206 2.07358 44.6905 3.42764 46.4265Z" fill="black"/>
</svg>
