<svg width="293" height="285" viewBox="0 0 293 285" fill="none" xmlns="http://www.w3.org/2000/svg">
<path d="M116.952 1.01493C112.829 2.31825 108.876 8.59982 106.654 17.2957C106.013 19.7955 105.949 19.9878 105.799 19.5605C105.287 18.1504 101.184 13.8345 98.8128 12.2107C90.3947 6.44187 80.6732 9.64675 80.139 18.364C79.669 26.4617 89.0272 33.0851 100.458 32.7219C104.176 32.6151 104.154 33.427 100.287 39.3026C98.4069 42.1443 98.1291 43.1271 98.7915 44.4518C100.351 47.5926 103.941 45.926 106.633 40.8409C107.167 39.8154 107.167 39.8154 108.278 41.2896C111.269 45.3278 115.841 46.8448 117.337 44.3236C118.213 42.8493 117.508 41.2255 114.944 38.7471C113.427 37.2942 112.893 36.6105 112.295 35.3285C111.013 32.6792 110.991 32.8074 112.914 31.0126C117.145 27.0813 119.025 24.8593 120.948 21.5689C126.909 11.4201 124.431 -1.35668 116.952 1.01493ZM117.572 12.6593C116.846 15.9283 114.837 19.6246 112.295 22.4022C111.098 23.6841 111.098 23.6841 111.419 22.2954C112.637 16.8043 115.008 11.0569 117.145 8.47163C117.957 7.46743 118.213 9.83904 117.572 12.6593ZM93.45 16.2915C96.5694 17.7444 99.6247 20.5647 102.06 24.1756C103.812 26.8249 104.005 26.6326 99.6034 26.5044C92.8304 26.3121 88.3435 24.4106 86.6343 20.9707C84.5618 16.8257 88.6427 14.0268 93.45 16.2915Z" fill="black"/>
<path d="M138.681 16.2293C130.134 17.6608 120.263 23.3441 120.263 26.8481C120.263 28.8352 122.827 29.8394 124.515 28.5147C129.557 24.5406 136.672 22.0194 142.804 22.0194C147.248 22.0194 149.278 22.5536 158.935 26.2499C168.956 30.053 175.793 31.3991 189.595 32.2323C216.175 33.8348 221.794 35.715 234.037 47.1671C243.438 55.9698 248.629 59.6875 251.514 59.6875C255.36 59.6875 255.189 56.098 251.193 52.9359C249.035 51.2266 246.685 49.1328 242.049 44.8596C235.447 38.7276 232.455 36.2278 229.657 34.433C226.879 32.681 226.195 32.2964 223.802 31.1427C216.046 27.4677 209.295 26.2285 191.732 25.2884C175.686 24.4124 170.943 23.5792 159.576 19.5196C149.492 15.9088 144.877 15.1824 138.681 16.2293Z" fill="black"/>
<path d="M87.5953 38.2392C69.7334 41.9142 52.0211 63.4724 47.9402 86.5048C46.2523 96.0981 45.2054 98.6833 38.8811 108.896C27.9631 126.609 26.0615 135.198 30.9116 144.855C34.7788 152.547 39.5648 150.218 36.7445 142.013C33.7105 133.147 35.1207 127.527 44.0944 112.678C50.7605 101.653 52.1707 98.1706 53.8372 88.7482C55.2473 80.6933 56.3156 77.0397 58.5804 72.2751C64.4347 60.0752 78.4934 46.2514 88.279 43.0252C92.7231 41.5723 92.1035 37.3205 87.5953 38.2392Z" fill="black"/>
<path d="M280.998 57.874C275.294 59.4765 271.469 66.0145 270.123 76.5051C269.931 78.0007 269.738 79.3468 269.696 79.4963C269.653 79.6459 268.35 78.4921 266.79 76.9324C252.945 63.1514 231.686 66.0572 231.6 81.7611C231.515 92.9782 251.706 100.713 267.367 95.478C268.2 95.2003 268.905 95.0293 268.948 95.0721C269.226 95.3498 267.345 99.5803 264.589 104.772C263.265 107.272 263.371 109.024 264.931 110.156C267.837 112.314 272.26 107.443 273.862 100.285C274.012 99.6444 274.183 98.982 274.225 98.8111C274.289 98.6188 274.674 98.8538 275.443 99.5803C279.033 102.956 282.537 103.853 284.289 101.824C285.699 100.179 284.759 98.2128 281.319 95.6276C276.64 92.1022 276.746 92.2731 278.37 91.2262C287.023 85.6711 292.472 77.0179 292.493 68.7707C292.515 61.0148 287.323 56.1007 280.998 57.874ZM284.887 63.8779C289.737 67.0614 285.357 78.7272 276.982 84.9446C274.93 86.4616 274.952 86.5257 275.486 81.8466C276.982 68.6211 280.849 61.2285 284.887 63.8779ZM252.753 75.2872C257.56 76.8897 262.816 80.7355 265.999 84.966C267.196 86.5471 268.243 88.2777 268.072 88.4273C264.226 91.8244 248.693 91.4399 242.155 87.7863C231.878 82.0602 240.937 71.3346 252.753 75.2872Z" fill="black"/>
<path d="M279.887 116.434C278.627 118.037 278.734 120.045 280.357 125.6C285.87 144.573 284.737 152.286 273.285 173.46C265.807 187.262 264.29 191.813 262.56 205.509C259.953 226.041 253.928 234.032 232.434 245.356C217.862 253.048 210.427 258.475 210.427 261.466C210.427 264.457 212.713 264.735 215.982 262.171C220.127 258.902 224.443 256.402 235.275 250.997C259.312 238.968 266.833 229.033 270.038 205.081C271.704 192.646 272.58 190.232 281.896 172.392C289.951 156.944 292.258 146.774 290.442 134.574C288.669 122.716 282.836 112.695 279.887 116.434Z" fill="black"/>
<path d="M61.8487 135.751C53.9433 137.161 42.5339 147.417 36.0814 158.89C35.3764 160.129 35.3764 160.129 34.4149 158.676C24.6507 144.019 3.34891 140.857 0.635439 153.655C-1.82164 165.214 14.9506 175.513 31.1459 172.372C32.3424 172.137 31.6373 174.829 29.0093 180.448C26.9796 184.785 26.8941 185.747 28.4538 187.2C30.8254 189.422 33.5816 186.922 36.5301 179.871C37.2566 178.162 37.2566 178.162 38.4744 179.807C42.5126 185.127 46.9781 186.815 48.4309 183.546C49.1574 181.858 48.666 180.833 45.8884 178.269C44.0723 176.624 41.2947 173.419 41.487 173.227C41.5298 173.184 42.3844 173.034 43.3672 172.906C54.1997 171.56 64.5622 164.595 69.4122 155.365C75.2665 144.233 71.3565 134.063 61.8487 135.751ZM65.4382 142.866C66.9979 144.959 65.31 151.113 61.9555 155.557C57.3619 161.668 48.4096 166.518 41.7861 166.518C38.9017 166.518 38.9017 166.624 41.722 162.138C49.4779 149.788 62.6179 139.084 65.4382 142.866ZM16.3821 153.463C22.0868 155.365 32.7911 163.89 30.9323 165.043C28.8811 166.304 18.1768 165.599 14.2669 163.932C3.73349 159.446 5.65642 149.874 16.3821 153.463Z" fill="black"/>
<path d="M41.5086 191.878C38.496 192.455 40.2908 201.771 44.6708 208.245C48.1748 213.436 52.2984 217.069 62.789 224.205C73.8993 231.747 77.4033 235.059 85.7574 245.998C102.423 267.749 114.473 273.881 136.288 271.723C143.21 271.039 147.248 271.381 155.197 273.261C161.67 274.821 165.11 274.073 164.17 271.338C163.529 269.501 162.162 268.689 157.141 267.257C149.385 265.035 144.236 264.565 135.647 265.291C128.938 265.868 127.934 265.911 125.22 265.676C112.465 264.544 103.769 258.433 90.9493 241.597C82.2106 230.102 78.963 227.068 66.934 219.056C51.6788 208.907 46.4869 203.288 44.7349 194.934C44.158 192.177 43.4316 191.494 41.5086 191.878Z" fill="black"/>
<path d="M210.492 217.348C202.501 220.318 192.694 238.672 192.694 250.722C192.694 251.555 192.63 251.534 191.134 250.145C181.178 240.936 166.222 240.53 161.543 249.354C154.471 262.751 176.499 277.579 191.904 269.802C193.762 268.862 192.951 274.994 190.729 278.754C188.912 281.809 189.746 284.373 192.545 284.266C195.472 284.159 197.865 280.677 198.57 275.442C198.698 274.438 198.698 274.438 200.023 275.506C203.569 278.369 207.33 279.374 209.936 278.177C213.035 276.724 211.966 273.776 207.565 271.682C204.574 270.25 202.352 268.52 200.621 266.276C199.937 265.4 199.98 265.315 201.775 264.375C218.932 255.316 228.931 234.356 221.944 222.134C219.508 217.882 214.594 215.831 210.492 217.348ZM215.15 223.844C217.756 225.596 218.696 231.728 217.18 236.92C214.957 244.44 209.125 251.683 200.813 257.238C197.63 259.354 197.907 259.567 198.57 255.593C201.775 236.578 210.171 220.489 215.15 223.844ZM177.802 250.273C184.062 251.876 193.72 260.55 191.412 262.494C185.814 267.195 175.196 266.148 169.405 260.315C163.209 254.076 168.401 247.859 177.802 250.273Z" fill="black"/>
</svg>
