<svg width="472" height="327" viewBox="0 0 472 327" fill="none" xmlns="http://www.w3.org/2000/svg">
<path d="M394.025 1.0105C373.428 1.82241 355.972 5.79646 338.046 13.7232C331.465 16.629 323.795 20.6458 308.561 29.1067C269.782 50.6648 247.39 59.7453 222.884 63.8049C202.971 67.1166 187.459 66.6252 165.196 62.0101C150.197 58.8907 147.847 58.4207 144.279 57.8438C118.49 53.592 99.4958 57.331 83.9628 69.7232C72.8953 78.5687 53.4523 102.541 50.0124 111.579C47.4271 118.395 52.1276 121.429 55.2043 114.933C60.1826 104.486 77.318 83.4187 87.5309 75.2142C104.346 61.711 121.545 59.6812 157.825 66.967C175.922 70.5992 183.25 71.5607 195.001 71.8598C229.849 72.7785 261.556 62.6297 312.599 34.1917C338.067 20.0048 348.9 15.2188 364.112 11.4584C392.636 4.40768 428.103 6.33061 453.529 16.3298C457.225 17.7827 463.571 20.7953 463.571 21.0944C463.571 21.3081 459.383 25.0471 455.772 28.0597C449.17 33.5721 439.256 41.7766 438.637 42.2467C437.867 42.8022 437.12 42.8022 425.967 42.2253C408.361 41.3279 385.863 43.55 368.813 47.9086C351.271 52.3527 338.473 58.1215 315.398 71.9453C288.819 87.8628 273.051 93.5889 244.036 97.7766C219.23 101.366 196.283 101.494 153.765 98.2253C123.767 95.9178 114.751 96.2596 97.6797 100.362C80.6511 104.421 59.7125 113.438 58.7938 117.091C58.2169 119.399 60.2253 120.467 62.7892 119.228C73.4508 114.1 86.954 109.271 98.3207 106.558C114.238 102.755 124.408 102.306 150.133 104.336C180.173 106.686 189.468 107.114 206.432 106.921C240.382 106.537 269.483 101.43 291.81 91.9224C299.245 88.7388 305.249 85.5553 317.321 78.355C334.948 67.843 341.486 64.4245 351.891 60.3222C372.103 52.3314 397.529 48.3573 424.257 48.9983C441.841 49.4256 439.833 49.8957 447.439 43.5286C449.213 42.0544 451.947 39.7896 453.529 38.5076C475.813 20.5389 476.198 19.0647 460.472 12.0994C442.504 4.12992 418.147 0.0490394 394.025 1.0105Z" fill="black"/>
<path d="M110.927 107.561C107.273 108.373 107.145 111.535 110.713 113.372C111.183 113.607 114.41 114.825 117.871 116.064C125.605 118.842 134.13 122.218 138.81 124.333C156.116 132.217 172.14 132.495 200.023 125.465C221.773 119.974 230.576 119.034 244.143 120.786C258.929 122.688 275.85 129.119 278.243 133.712C279.226 135.614 277.944 137.943 272.645 143.947C271.235 145.528 268.65 148.519 266.855 150.57C262.326 155.826 262.924 155.442 260.894 154.501C247.241 148.241 232.221 148.434 203.975 155.271C174.555 162.385 167.846 161.574 136.459 147.088C107.679 133.798 101.419 131.939 85.6084 131.918C77.233 131.918 74.5623 132.601 74.2418 134.802C73.8786 137.152 74.9255 137.58 81.2284 137.772C97.2315 138.263 103.556 140.058 129.622 151.532C153.402 161.98 158.423 163.838 167.034 165.291C178.465 167.236 187.994 166.402 207.928 161.702C233.332 155.741 246.6 155.57 258.523 161.104C264.804 164.009 266.278 163.005 280.337 146.318C291.811 132.708 285.059 123.713 258.352 117.133C237.477 111.962 225.769 112.539 195.856 120.188C179.512 124.354 170.367 125.401 160.496 124.205C151.864 123.136 148.317 121.94 132.955 114.804C124.729 110.958 118.939 108.843 114.046 107.838C111.888 107.411 111.696 107.39 110.927 107.561Z" fill="black"/>
<path d="M53.8578 122.967C51.7853 123.693 49.3069 126.044 48.4522 128.095C48.2172 128.65 48.0249 128.757 46.9566 128.971C39.5213 130.424 38.6666 136.107 44.9268 142.346C48.6445 146.063 49.2428 148.029 48.0249 152.623C46.807 157.302 51.4434 158.968 52.8109 154.375C54.7552 147.773 53.7296 143.286 49.1359 138.329C45.9738 134.932 46.0165 134.59 49.7555 134.12C51.6357 133.885 52.234 133.479 52.8536 131.962C53.3664 130.659 54.5842 129.142 55.4816 128.672C56.208 128.287 56.1439 128.159 56.6781 131.129C57.3404 134.782 59.2634 135.744 61.4213 133.5C64.8826 129.932 66.4423 133.052 64.3912 139.355C62.0196 146.619 62.2332 149.567 65.1603 149.567C66.9123 149.567 67.3824 148.905 67.8738 145.764C68.002 144.931 68.5362 143.008 69.0489 141.491C72.5102 131.385 69.1771 124.868 61.7418 127.176C61.3572 127.304 61.2504 127.24 61.2504 126.941C61.229 123.864 57.3191 121.77 53.8578 122.967Z" fill="black"/>
<path d="M78.4715 146.857C71.5276 148.224 62.618 153.907 60.631 158.202C60.1182 159.334 60.1182 159.334 58.7081 159.334C43.8588 159.377 38.9446 178.457 52.9606 181.683C54.0503 181.939 54.6485 182.174 54.6913 182.388C54.7767 182.687 54.7981 182.687 54.8195 182.41C54.8408 182.153 55.3322 182.089 57.7893 182.068C63.0667 182.025 67.8527 180.38 71.1216 177.517C72.3181 176.47 72.019 176.47 74.1342 177.474C80.7363 180.593 89.0476 177.859 87.7443 172.987C87.317 171.406 85.6077 171.043 83.3429 172.09C80.6295 173.329 77.4887 172.645 75.2452 170.316C72.8736 167.838 70.8225 167.859 69.0919 170.381C63.9854 177.901 47.8328 177.688 51.2727 170.145C52.8965 166.62 56.9133 164.59 60.9087 165.295C63.4513 165.744 65.011 164.954 65.5024 162.967C67.233 155.959 84.7531 148.716 85.7359 154.612C86.3555 158.373 88.9408 159.292 92.1243 156.877C100.884 150.275 108.683 158.181 103.021 167.923C99.9869 173.158 103.705 176.47 107.465 171.876C117.528 159.591 106.333 144.207 91.6756 150.168C91.0346 150.425 90.9919 150.403 89.8168 149.25C87.317 146.75 83.3002 145.895 78.4715 146.857Z" fill="black"/>
<path d="M132.827 164.137C129.558 165.034 123.96 168.667 122.956 170.504C122.251 171.85 122.464 173.666 123.362 174.008C123.575 174.094 123.81 174.222 123.875 174.329C124.302 174.97 126.203 174.457 128.041 173.196C130.156 171.743 134.173 170.013 135.391 170.013C136.78 170.013 136.181 173.474 133.917 178.773C131.823 183.644 134.237 186.059 139.322 184.221C143.168 182.832 143.104 183.516 138.681 192.148C136.203 196.977 136.01 198.729 137.869 199.711C140.198 200.972 142.185 199.113 145.39 192.661C149.898 183.623 148.894 178.367 142.57 177.769C141.202 177.64 141.202 177.64 141.587 176.294C144.065 167.663 140.091 162.15 132.827 164.137Z" fill="black"/>
<path d="M113.705 165.53C110.799 166.193 110.35 169.333 112.85 171.406C115.179 173.286 115.265 175.594 113.171 178.563C110.756 181.961 110.756 181.982 110.756 183.285C110.756 184.845 111.397 185.764 113.256 186.875C118.341 189.887 118.299 194.161 113.192 194.331C109.56 194.46 108.791 195.272 109.047 198.733C109.282 201.81 105.543 203.903 101.719 202.814C98.4711 201.916 96.0567 204.395 98.0224 206.638C102.36 211.595 113.897 207.664 114.795 200.934C114.923 200.058 115.008 199.908 115.5 199.801C123.02 198.177 125.007 188.007 118.726 183.435C117.23 182.345 117.252 182.516 118.213 181.106C121.888 175.7 121.76 169.611 117.893 166.663C116.718 165.765 114.859 165.253 113.705 165.53Z" fill="black"/>
<path d="M94.0473 176.086C90.586 176.919 88.0862 179.697 88.8126 181.897C89.3254 183.414 90.6501 183.713 92.573 182.731C99.0683 179.44 103.277 186.448 97.9359 191.661C93.9832 195.507 96.8248 199.204 101.483 196.255C111.268 190.038 105.136 173.394 94.0473 176.086Z" fill="black"/>
<path d="M48.5379 184.391C45.4398 187.489 46.6577 200.65 50.6104 206.718C59.5413 220.371 86.1205 220.264 95.0942 206.547C99.175 200.33 95.1155 196.569 90.821 202.616C84.6035 211.376 72.1258 214.153 61.6993 209.09C55.6314 206.141 53.4734 201.483 52.9179 189.989C52.8111 187.745 52.6188 185.587 52.5119 185.181C52.0419 183.579 49.7985 183.13 48.5379 184.391Z" fill="black"/>
<path d="M63.4519 185.936C59.5206 187.026 57.5122 189.312 58.5805 191.384C59.2855 192.773 60.7384 192.987 62.7682 192.025C64.392 191.277 66.3576 190.743 67.5114 190.743C70.5453 190.743 71.8273 187.218 69.1993 186.107C68.0883 185.637 64.8407 185.53 63.4519 185.936Z" fill="black"/>
<path d="M160.495 197.811C146.885 199.264 123.853 210.994 123.853 216.464C123.853 218.558 125.84 219.049 128.062 217.532C134.984 212.789 154.961 204.798 161.136 204.285C162.909 204.136 162.781 204.307 157.952 208.088C154 211.208 153.295 212.447 154.384 214.455C155.495 216.528 156.991 216.549 162.332 214.541C173.4 210.375 188.805 206.636 188.805 208.11C188.805 208.323 184.938 210.225 181.54 211.721C176.22 214.05 175.259 215.182 176.327 217.895C176.989 219.498 177.801 219.818 182.053 220.032C186.711 220.267 192.437 221.314 192.437 221.934C192.437 223.792 171.37 227.681 158.679 228.151C150.004 228.471 147.312 229.732 149.769 232.36C154.384 237.317 190.001 232.595 197.351 226.036C201.646 222.211 199.167 217.126 192.117 215.31C190.557 214.904 190.557 214.819 192.223 213.836C200.022 209.199 199.231 202.512 190.749 201.593C186.113 201.08 180.515 202.042 169.704 205.225C169.362 205.311 169.319 205.268 169.469 204.926C171.37 200.29 167.332 197.064 160.495 197.811Z" fill="black"/>
<path d="M31.168 198.967C27.9204 199.672 24.1386 202.3 22.3653 205.078C21.532 206.359 21.7243 206.359 20.1859 204.971C14.0112 199.373 4.9948 200.42 1.87538 207.065C-2.61145 216.636 5.31529 231.208 20.3782 241.015C29.7579 247.147 33.2405 248.386 34.437 246.079C35.4839 244.049 34.6507 243.066 27.7067 238.366C15.3145 229.969 9.26798 223.26 7.40915 215.846C4.82388 205.462 14.3103 204.394 19.3954 214.479C21.3611 218.388 25.5488 217.79 25.912 213.538C26.5957 205.954 33.8601 202.45 38.7102 207.385C42.3851 211.145 44.2867 216.679 44.714 224.926C44.9276 229.093 45.6541 230.482 47.6411 230.482C51.1451 230.482 52.1066 224.264 49.9273 215.782C46.8078 203.71 39.5007 197.172 31.168 198.967Z" fill="black"/>
<path d="M109.645 209.372C107.744 210.462 107.786 211.679 109.838 214.756C111.696 217.555 112.508 219.115 113.641 222.127C115.435 226.871 116.226 227.597 120.542 228.323C131.032 230.075 139.6 237.062 142.656 246.356C145.027 253.599 150.839 250.651 148.595 243.344C145.754 234.028 135.818 226.037 121.952 221.892C121.055 221.615 120.991 221.55 120.221 219.798C117.123 212.726 112.209 207.898 109.645 209.372Z" fill="black"/>
<path d="M65.2041 218.985C64.3922 219.477 63.8367 220.438 63.858 221.4C63.9648 228.13 65.5673 231.527 68.1312 230.459C69.99 229.69 70.2037 224.113 68.5371 220.31C67.9603 219.049 66.251 218.344 65.2041 218.985Z" fill="black"/>
<path d="M100.35 225.053C99.5169 225.78 99.0469 226.677 97.9786 229.797C92.4021 245.8 86.9751 248.898 66.8057 247.573C60.3746 247.167 57.4902 247.723 51.871 250.479C47.5764 252.594 46.7645 252.914 45.6535 252.914C44.1365 252.914 44.1152 252.466 45.5039 250.415C46.85 248.385 46.2731 246.291 44.0938 245.458C42.9828 245.052 42.9828 245.052 44.2647 244.475C47.5764 243.043 47.8969 242.68 47.8969 240.565C47.8969 239.774 48.0038 239.069 48.1106 238.984C48.8157 238.45 51.2086 239.112 52.7683 240.244C55.8664 242.509 58.5799 239.112 56.1869 235.993C52.1701 230.801 43.2178 232.232 42.3418 238.193C42.1922 239.155 42.1709 239.198 40.9957 239.668C36.6157 241.484 35.2056 246.334 38.2823 249.047C39.0514 249.71 39.0514 249.71 38.7951 250.97C37.3635 258.299 44.4998 260.521 54.1571 255.735C59.99 252.85 61.3788 252.637 70.6302 253.214C87.5947 254.282 94.2823 251.077 100.393 238.941C104.987 229.797 104.965 221.186 100.35 225.053Z" fill="black"/>
<path d="M208.996 247.916C205.279 248.364 203.484 248.834 197.801 250.864C193.271 252.509 192.865 252.616 189.682 252.915C186.22 253.236 184.746 254.09 184.746 255.778C184.746 259.261 191.028 259.496 200.322 256.355C212.5 252.231 219.188 253.898 228.461 263.427C233.674 268.769 232.926 269.324 224.38 266.525C215.983 263.769 212.415 263.149 207.479 263.62C199.766 264.346 193.378 269.025 195.109 272.657C195.835 274.174 197.267 274.367 199.339 273.256C202.928 271.29 207.373 270.692 212.821 271.397C215.064 271.696 216.581 272.038 224.38 274.067C230.149 275.563 233.61 275.264 236.024 273.085C244.955 265.008 224.658 246.099 208.996 247.916Z" fill="black"/>
<path d="M154.236 250.61C151.245 252.148 152.569 254.349 157.889 256.656C168.701 261.378 173.679 265.951 179.619 276.612C185.195 286.654 189.575 289.453 201.412 290.521C208.057 291.12 209.958 290.607 209.958 288.235C209.958 286.291 208.569 285.714 201.625 284.859C191.669 283.62 189.981 282.466 185.345 273.6C178.657 260.78 174.106 256.058 164.919 252.405C161.03 250.845 155.561 249.926 154.236 250.61Z" fill="black"/>
<path d="M78.6642 255.032C73.8783 257.104 81.5914 271.526 91.5265 279.047C102.402 287.316 119.9 290.179 125.456 284.645C128.233 281.868 126.225 280.799 118.191 280.799C102.637 280.799 90.3941 272.915 82.9801 258.151C81.4632 255.117 80.3308 254.306 78.6642 255.032Z" fill="black"/>
<path d="M94.048 262.15C92.061 263.325 92.4242 265.291 95.1377 267.94C97.8512 270.589 100.607 270.718 100.906 268.196C101.077 266.872 97.0179 262.107 95.7146 262.107C95.5009 262.107 95.1377 262.064 94.9027 262C94.6677 261.936 94.2831 262 94.048 262.15Z" fill="black"/>
<path d="M137.207 281.992C134.707 283.316 135.263 285.09 139.6 289.769C152.868 304.041 163.893 308.977 182.61 308.998C194.981 308.998 201.903 307.481 202.309 304.639C202.63 302.375 200.173 301.862 193.079 302.716C180.708 304.191 170.367 302.887 161.714 298.721C156.308 296.136 153.082 293.721 144.899 286.179C140.22 281.863 138.852 281.116 137.207 281.992Z" fill="black"/>
<path d="M113.64 290.628C107.593 295.008 127.293 306.267 137.847 304.43C143.83 303.383 143.039 297.785 136.907 297.785C130.369 297.785 122.934 295.414 118.169 291.845C116.14 290.307 114.644 289.901 113.64 290.628Z" fill="black"/>
<path d="M218.354 291.16C214.765 292.783 216.687 295.839 221.495 296.159C227.584 296.587 227.905 297.035 228.011 305.154C228.118 312.034 227.648 316.542 226.601 318.914C225.319 321.841 221.901 320.709 218.675 316.286C215.384 311.756 214.423 310.538 212.756 308.808C208.355 304.278 205.107 303.189 203.975 305.881C203.483 307.099 203.825 307.804 205.962 309.983C208.013 312.055 209.808 314.363 212.948 318.957C218.14 326.542 224.807 328.849 229.742 324.79C234.635 320.794 235.276 297.591 230.618 293.36C228.246 291.224 221.046 289.92 218.354 291.16Z" fill="black"/>
</svg>
