<svg width="304" height="292" viewBox="0 0 304 292" fill="none" xmlns="http://www.w3.org/2000/svg">
<path d="M128.48 1.01109C121.301 2.52807 112.67 12.3991 112.67 19.108C112.67 19.2576 112.456 19.4285 112.2 19.4926C102.841 21.2232 98.2263 22.5906 91.4319 25.6246C88.6544 26.8638 88.7826 26.9279 89.4876 24.8341C93.8463 11.5872 84.7658 1.16065 73.6983 6.73715C64.6819 11.2667 64.6178 23.3812 73.5701 32.9531C74.852 34.2991 74.852 34.2991 72.1172 36.0298C65.3442 40.2816 59.554 44.7898 53.3366 50.5799C50.7086 52.9943 50.7086 52.9943 50.7086 51.0927C50.7086 39.8115 38.3591 34.6624 28.6162 41.884C20.3263 48.016 24.5994 61.1774 36.6925 66.8607C37.7181 67.3308 38.53 67.7581 38.53 67.8008C38.53 67.8649 38.2095 68.3564 37.8036 68.9119C34.9619 72.9073 30.24 80.8768 27.0993 87.0301C24.9199 91.3033 24.9199 91.3033 24.0439 89.8077C19.0016 81.1118 8.87415 78.3983 3.04126 84.1457C-4.90685 91.987 4.25912 106.366 17.1855 106.366C18.1042 106.366 18.8734 106.409 18.8734 106.473C18.8734 106.537 18.4461 107.969 17.9333 109.635C15.3907 117.84 13.8097 125.083 13.9379 128.117C14.0233 130.702 17.5487 130.723 18.2324 128.138C19.0229 125.104 24.4072 108.076 24.5567 108.076C24.6208 108.076 25.3259 108.417 26.1378 108.823C38.8719 115.233 56.2423 109.828 54.3621 100.042C52.6956 91.4101 42.2904 87.7779 32.2698 92.3502C30.6246 93.0981 30.6246 93.0981 31.3938 91.5597C34.4491 85.5132 42.6323 71.9245 43.2091 71.9672C43.2732 71.9886 43.551 72.4586 43.8287 73.0355C49.0848 84.2739 65.1519 88.7608 72.7582 81.1332C81.0054 72.9073 70.237 61.0706 54.469 61.0706C51.7341 61.0706 51.7341 61.0706 53.593 59.0836C59.8745 52.4601 68.4423 45.559 76.9031 40.2816C77.7791 39.7261 77.7791 39.7261 77.9073 40.6448C79.9371 55.3659 95.8761 66.8821 105.512 60.5578C115.853 53.7635 109.465 38.0595 94.1881 32.7608C93.248 32.4189 92.3934 32.0985 92.3079 32.013C92.137 31.8634 96.3888 30.0046 99.5296 28.8508C103.055 27.5475 107.478 26.4365 112.584 25.5391C113.225 25.4109 113.311 25.475 114.528 27.3766C123.182 40.7944 140.189 48.0801 146.599 41.1149C151.47 35.8375 144.483 26.2228 132.476 21.736C130.617 21.0309 130.617 21.0309 131.536 20.4968C144.996 12.4418 142.731 -2.0015 128.48 1.01109ZM133.608 7.39949C136.429 9.49335 129.079 15.7322 121.366 17.8047C119.549 18.2961 119.528 18.232 120.276 16.3732C122.904 9.8352 130.232 4.89968 133.608 7.39949ZM81.1977 12.335C85.0863 14.1084 84.7444 23.7658 80.5781 29.2995C80.0012 30.0687 75.8562 25.1973 74.2751 21.8642C71.5617 16.1381 76.0271 10.0061 81.1977 12.335ZM123.203 25.3896C129.805 26.8424 136.471 30.1542 139.868 33.6795C142.881 36.8203 142.454 38.0382 138.501 37.5468C133.288 36.9058 126.985 32.9531 122.412 27.4834C119.998 24.599 119.977 24.6845 123.203 25.3896ZM88.6971 37.8031C99.145 40.4098 107.456 50.3876 102.606 54.5113C98.44 58.0794 90.8978 54.2335 87.0519 46.5845C85.8768 44.277 83.8257 38.2305 83.8257 37.1194C83.8257 36.863 86.3682 37.2049 88.6971 37.8031ZM39.4487 46.7982C42.1408 47.6101 42.675 49.7253 42.2477 58.0794C42.0767 61.6475 42.1622 61.5406 40.0683 60.4296C35.1756 57.7802 31.2656 53.3575 31.2656 50.4731C31.2656 47.7596 35.8165 45.7085 39.4487 46.7982ZM55.9432 67.6086C67.7585 69.5101 73.3137 77.8428 62.7803 77.8428C57.4175 77.8428 54.0203 75.578 50.324 69.5528C48.6788 66.8607 49.5121 66.583 55.9432 67.6086ZM12.5491 89.0385C16.9718 90.5982 22.6765 98.8455 19.5998 99.2301C13.4678 99.9779 7.74176 96.7303 7.20761 92.1366C6.86576 89.2522 9.23737 87.8634 12.5491 89.0385ZM44.1706 98.2686C47.5464 99.5292 48.3369 101.773 45.8371 103.033C42.3759 104.785 36.6071 104.785 31.0306 103.033C28.7017 102.307 28.7017 102.307 30.0477 101.409C34.8337 98.2259 40.6239 96.9439 44.1706 98.2686Z" fill="black"/>
<path d="M238.152 64.7494C235.289 65.4972 235.909 68.0398 240.481 74.2359C244.22 79.2996 247.468 84.3206 250.672 89.9825C251.976 92.3114 251.976 92.3114 250.544 92.1405C233.708 90.1107 218.517 99.7895 221.828 110.408C225.738 122.95 247.767 120.621 257.082 106.691C258.343 104.789 258.15 104.554 259.988 110.109C261.89 115.814 263.086 121.39 263.834 128.057C264.176 131.261 264.539 135.641 264.432 135.641C264.389 135.641 263.663 135.3 262.83 134.872C247.959 127.394 225.375 133.761 225.375 145.47C225.375 158.225 247.916 161.152 264.026 150.491C264.71 150.021 264.71 150.982 264.026 157.862C263.385 164.186 260.864 177.903 260.202 178.544C260.18 178.587 259.582 178.01 258.898 177.305C248.279 166.173 226.144 167.413 223.965 179.271C221.914 190.381 239.947 198.008 254.604 192.24C255.971 191.684 255.971 191.535 254.625 194.718C251.848 201.32 247.831 208.777 243.729 214.909C240.417 219.844 240.908 219.503 239.434 218.092C227.149 206.469 204.949 206.555 203.091 218.242C201.638 227.216 215.205 234.801 228.366 232.365C229.307 232.194 230.118 232.087 230.183 232.13C230.482 232.429 219.735 242.514 216.209 245.227C215.034 246.146 215.034 246.146 213.838 244.864C205.27 235.612 190.976 234.672 186.041 243.005C181.832 250.141 189.139 257.107 200.826 257.107C204.479 257.107 204.479 257.107 204.18 257.961C201.018 266.807 204.501 274.712 211.252 274.007C219.436 273.152 223.516 260.354 218.645 250.825C218.26 250.056 218.239 249.842 218.474 249.714C220.44 248.624 227.896 242.343 232.17 238.198C235.225 235.249 235.225 235.249 235.674 237.45C238.622 251.466 255.052 257.555 262.103 247.214C268.278 238.155 260.373 225.613 247.062 223.37C245.566 223.135 245.566 223.135 246.656 221.639C252.104 214.225 258.065 203.756 260.949 196.534C262.103 193.671 261.868 193.778 263.3 195.551C273.726 208.499 290.05 209.375 289.537 196.962C289.131 187.902 279.815 179.548 270.094 179.548C267.188 179.548 266.74 179.506 266.825 179.228C268.363 174.25 269.966 164.314 270.885 154.08C271.034 152.542 271.034 152.542 272.209 153.418C282.828 161.259 300.861 155.854 303.361 144.06C306.309 130.193 287.935 124.809 272.978 135.129C270.991 136.496 270.991 136.496 270.991 135.15C270.991 127.736 268.663 115.023 265.799 106.776C264.646 103.464 264.646 103.464 265.629 103.614C277.187 105.537 292.785 98.4221 293.81 90.7731C295.413 79.15 270.671 77.4194 259.219 88.3374C257.83 89.6621 258.108 89.833 256.334 86.6067C252.211 79.0218 246.762 71.5011 242.212 67.0356C239.84 64.6853 239.37 64.4289 238.152 64.7494ZM284.131 88.7006C286.118 89.3416 286.225 89.5552 285.05 90.6449C281.033 94.3626 268.235 97.717 262.659 96.5205C261.291 96.2214 261.313 96.2214 263.065 94.5762C268.257 89.6621 278.341 86.8631 284.131 88.7006ZM253.215 99.9177C254.134 100.067 254.134 100.067 253.065 101.67C247.19 110.601 233.622 115.152 229.392 109.618C224.948 103.785 239.754 97.7811 253.215 99.9177ZM292.614 137.137C296.994 138.483 297.656 142.073 294.195 145.577C289.195 150.64 279.175 150.811 273.748 145.94C271.953 144.337 271.867 144.53 275.542 142.094C282.807 137.308 288.127 135.748 292.614 137.137ZM252.937 139.509C256.014 140.107 262.338 142.35 263.15 143.098C263.855 143.782 255.672 147.585 251.014 148.739C235.759 152.563 224.456 144.85 238.558 140.256C242.895 138.846 248.215 138.569 252.937 139.509ZM243.964 176.643C248.429 177.796 257.36 184.078 255.736 184.933C247.98 188.992 233.558 187.176 230.824 181.77C228.815 177.86 236.721 174.762 243.964 176.643ZM273.342 187.112C277.999 188.586 282.401 193.18 282.7 196.855C283.106 202.111 271.077 196.363 265.949 188.843C264.774 187.112 264.71 187.261 266.611 186.834C268.577 186.407 271.483 186.514 273.342 187.112ZM220.589 216.511C224.927 217.259 228.644 219.054 233.152 222.601C235.011 224.053 235.033 223.947 232.811 224.652C224.67 227.13 214.778 225.677 210.718 221.383C207.556 218.028 213.239 215.208 220.589 216.511ZM244.626 229.545C253.429 230.869 259.667 237.001 257.552 242.257C253.856 251.338 240.289 241.424 241.442 230.485C241.592 229.01 241.378 229.074 244.626 229.545ZM199.223 244.415C201.851 245.27 207.898 249.052 207.407 249.522C205.655 251.167 194.16 249.885 191.916 247.791C189.609 245.633 195.121 243.09 199.223 244.415ZM213.09 257.213C214.179 261.508 213.709 264.862 211.808 266.486C209.564 268.366 209.415 262.106 211.551 256.957C212.47 254.799 212.492 254.799 213.09 257.213Z" fill="black"/>
<path d="M32.7191 175.489C26.758 176.985 21.6729 184.634 21.0747 192.924C20.9465 194.782 20.9465 194.782 19.6218 194.056C11.9514 189.847 3.85376 190.424 1.43942 195.359C-2.94059 204.333 14.1735 214.525 24.7069 209.226C25.5188 208.798 26.2025 208.499 26.2238 208.542C26.2452 208.585 26.9289 209.653 27.7195 210.956C29.8133 214.332 33.4882 219.546 35.9453 222.601C38.0605 225.25 38.0605 225.25 35.9881 225.72C25.0274 228.177 17.4425 237.899 21.3097 244.501C25.7965 252.129 41.18 247.385 46.4573 236.745C46.8633 235.955 47.2051 235.271 47.2265 235.228C47.2479 235.185 48.3589 236.147 49.6836 237.386C53.8499 241.211 57.4608 244.223 61.9262 247.578C64.7252 249.693 64.6611 249.586 63.3791 250.248C54.8755 254.586 48.423 265.589 51.1792 270.995C55.6447 279.712 73.2502 271.678 76.3268 259.542C76.5405 258.666 76.8183 258.004 76.9037 258.047C77.0106 258.09 78.4421 258.923 80.0872 259.884C83.3135 261.786 88.6763 264.585 91.3684 265.781C93.0563 266.529 93.0563 266.529 91.4325 267.854C84.4032 273.623 80.4718 284.434 83.6767 289.177C89.0609 297.211 103.397 285.716 104.273 272.682C104.402 270.717 104.402 270.717 105.598 271.123C112.457 273.494 124.272 275.674 126.43 274.947C127.819 274.499 128.246 272.918 127.306 271.764C126.644 270.995 126.644 270.995 123.695 270.567C120.447 270.076 116.367 269.029 110.854 267.234C106.154 265.717 106.154 265.717 107.799 264.029C116.879 254.714 115.533 241.723 105.491 241.723C98.3123 241.723 92.8427 251.723 95.3639 260.269C95.492 260.718 95.5775 261.188 95.5348 261.294C95.3639 261.786 79.959 253.539 79.9804 252.983C79.9804 252.898 80.6428 252.556 81.4333 252.193C92.1803 247.428 96.6031 235.484 90.0224 229.032C82.8007 221.96 71.9255 229.032 69.618 242.279C68.977 245.954 69.4043 245.826 66.1567 243.368C60.0247 238.711 51.5852 231.468 51.927 231.126C52.0125 231.04 52.8671 230.677 53.7858 230.314C66.6695 225.207 70.4299 210.636 60.217 205.465C51.7133 201.15 43.7011 207.282 41.8423 219.46C41.6927 220.379 41.3295 219.973 37.27 214.375C30.4329 204.953 30.4329 204.953 32.0354 203.521C39.8553 196.449 43.6584 185.638 40.5176 179.356C38.9365 176.216 35.8812 174.699 32.7191 175.489ZM34.9625 181.514C37.2914 184.142 34.3215 191.877 28.6168 197.923C27.228 199.419 27.228 199.419 27.2067 196.834C27.1853 189.035 32.42 178.694 34.9625 181.514ZM13.9812 199.184C18.0407 200.359 22.9335 203.222 21.7156 203.735C17.357 205.508 7.97738 202.132 7.97738 198.799C7.97738 198.286 11.7164 198.521 13.9812 199.184ZM56.6916 210.85C61.6058 212.217 60.3879 218.285 54.4268 222.216C49.064 225.763 47.8675 226.019 48.0384 223.541C48.5512 214.866 52.162 209.589 56.6916 210.85ZM42.1628 231.489C42.1628 235.741 33.9369 242.322 28.98 242.001C22.613 241.595 31.2662 232.728 39.3425 231.361C41.1372 231.062 42.1628 231.104 42.1628 231.489ZM85.1296 233.134C89.4882 236.019 85.7065 242.813 77.5447 246.766C74.8526 248.09 75.0022 248.154 75.3867 245.761C76.7969 237.066 81.6256 230.784 85.1296 233.134ZM106.624 248.347C108.803 249.864 106.923 254.885 102.201 260.205C101.239 261.273 101.282 261.401 101.346 256.786C101.432 251.103 104.209 246.659 106.624 248.347ZM70.5794 255.013C70.5581 261.166 64.1056 268.388 58.6145 268.431C54.2345 268.452 61.6058 258.218 68.5924 254.607C70.6008 253.581 70.5794 253.56 70.5794 255.013ZM97.9064 271.935C97.2868 277.233 93.9964 282.789 90.3429 284.69C88.9327 285.438 88.8473 285.352 89.1677 283.771C90.0437 279.584 96.0476 270.674 98.0132 270.674C98.0346 270.674 97.9919 271.251 97.9064 271.935Z" fill="black"/>
</svg>
