<svg width="302" height="318" viewBox="0 0 302 318" fill="none" xmlns="http://www.w3.org/2000/svg">
<path d="M133.112 1.16655C130.655 1.85026 127.386 5.24743 124.587 9.99066C123.69 11.529 123.69 11.529 122.643 10.8239C117.9 7.64041 111.875 9.43515 109.225 14.8621C100.829 31.9334 122.344 56.2905 134.843 43.8342C139.501 39.1765 141.723 29.9891 141.381 16.8064C141.039 4.28597 138.582 -0.35043 133.112 1.16655ZM134.48 8.62324C136.125 17.3833 133.112 35.2238 129.416 38.6423C123.455 44.1333 111.875 30.7369 113.648 20.4386C114.802 13.7938 118.519 13.7938 122.194 20.4386C125.549 26.4638 131.083 24.3058 128.391 18.0242C127.856 16.7636 130.249 12.1486 133.091 8.94373C134.181 7.74724 134.309 7.72588 134.48 8.62324Z" fill="black"/>
<path d="M181.186 9.50164C172.682 11.9587 170.738 25.1842 177.02 37.961C184.84 53.9213 197.467 54.1563 205.052 38.4951C214.004 19.9496 208.684 6.93773 194.903 13.7534C193.129 14.6294 193.129 14.6294 191.912 13.3475C188.942 10.2494 184.348 8.5829 181.186 9.50164ZM184.946 15.5268C186.955 16.3601 188.899 19.3086 189.86 23.0049C190.929 27.1071 192.852 28.8591 194.689 27.3849C195.95 26.4234 196.591 22.5989 195.843 20.7615C195.309 19.4581 201.74 17.5993 202.872 18.7103C206.163 22.0007 198.044 41.7214 192.788 43.1743C189.668 44.0503 185.844 40.7599 182.724 34.5425C177.832 24.7569 179.199 13.1125 184.946 15.5268Z" fill="black"/>
<path d="M149.885 20.9722C145.249 21.5491 143.796 24.4762 147.214 26.335C148.475 27.0401 161.722 26.7624 162.854 26.0146C164.328 25.0531 164.157 22.6601 162.555 21.8055C161.23 21.1004 153.133 20.5662 149.885 20.9722Z" fill="black"/>
<path d="M94.6324 30.9259C87.3466 32.4002 83.0093 37.1861 87.0475 39.28C88.3294 39.9423 94.0341 37.6775 97.5809 35.0923C100.081 33.2548 97.9655 30.2636 94.6324 30.9259Z" fill="black"/>
<path d="M212.017 34.4534C210.414 34.9021 209.752 37.0387 210.735 38.5129C211.29 39.3889 218.405 44.1535 221.29 45.6277C224.174 47.0806 226.033 44.1962 223.939 41.5255C220.841 37.6155 214.388 33.791 212.017 34.4534Z" fill="black"/>
<path d="M68.5444 35.1424C65.3395 36.0612 60.0407 41.3172 57.7119 45.9109C57.1563 47.0432 57.2632 47.0432 56.259 45.6972C45.4906 31.553 35.9614 45.2485 43.2685 64.3496C51.8362 86.7197 67.3051 89.3477 74.1422 69.5843C81.0434 49.5858 78.2658 32.4076 68.5444 35.1424ZM71.2151 42.6632C73.9072 51.1241 68.1598 73.4301 62.5619 76.3359C56.259 79.5835 44.6573 57.6194 47.2639 47.2996C47.9263 44.6503 52.6054 50.5259 54.4001 56.2947C55.9385 61.2943 61.0663 60.2046 60.4253 55.0127C60.2117 53.218 60.9167 51.7865 64.0575 47.4706C68.2025 41.8086 70.4673 40.2916 71.2151 42.6632Z" fill="black"/>
<path d="M236.716 41.7623C224.687 45.1595 227.08 73.7898 239.579 76.0973C250.796 78.1698 266.179 53.129 258.21 45.7791C255.133 42.9375 250.326 42.9588 246.288 45.8005C245.711 46.2278 245.711 46.2278 244.194 44.604C241.822 42.0615 239.194 41.0786 236.716 41.7623ZM239.045 47.7448C239.899 48.6421 240.391 50.1805 240.626 52.5735C241.181 58.7482 246.159 59.3465 247.142 53.3426C247.527 50.971 253.338 48.4926 254.065 50.3941C255.945 55.2869 244.151 71.2259 239.942 69.4739C236.587 68.0851 233.874 58.4918 235.113 52.3812C235.904 48.4926 237.72 46.3346 239.045 47.7448Z" fill="black"/>
<path d="M42.3933 71.6096C40.7481 72.272 34.8298 80.5192 33.5478 83.9591C32.3513 87.164 34.1033 89.7279 36.8809 88.8305C37.6287 88.5955 38.3765 87.6341 39.7653 85.0701C40.4917 83.7241 42.1796 80.7756 43.5257 78.5535C45.8332 74.7077 45.9614 74.4513 45.8759 73.5539C45.705 71.9088 43.9957 70.9473 42.3933 71.6096Z" fill="black"/>
<path d="M260.753 80.5819C258.616 81.4365 258.937 83.509 261.885 87.5471C262.825 88.8291 264.428 91.1152 265.475 92.6536C267.398 95.4739 268.38 96.5849 268.979 96.6276C269.171 96.6276 269.534 96.6704 269.812 96.6917C270.346 96.7558 271.649 95.9439 271.991 95.3243C272.632 94.1065 271.607 91.393 269 87.5258C265.133 81.757 262.761 79.77 260.753 80.5819Z" fill="black"/>
<path d="M30.7699 94.6798C28.1633 95.1499 25.4925 96.7523 22.5013 99.6581C21.1766 100.961 21.1766 100.961 20.6852 100.32C13.8695 91.5818 3.6566 98.7821 4.36167 111.837C5.10948 126.194 15.1728 137.091 24.6806 133.886C41.0469 128.395 46.7516 91.7313 30.7699 94.6798ZM33.3338 100.62C37.6497 104.935 30.9836 123.716 23.8901 127.241C17.1385 130.617 8.57075 117.264 10.7928 106.794C12.1816 100.192 16.0061 101.517 18.0786 109.315C20.087 116.943 25.4925 114.806 23.8046 107.051C23.3132 104.807 31.7955 99.0812 33.3338 100.62Z" fill="black"/>
<path d="M284.895 98.7401C283.165 99.2956 280.58 101.005 278.721 102.821C277.204 104.274 277.204 104.274 276.157 103.526C271.478 100.214 264.726 102.137 261.008 107.863C251.372 122.777 266.35 144.677 281.285 137.519C297.565 129.699 300.941 93.5054 284.895 98.7401ZM288.528 105.15C291.69 110.513 284.831 127.926 278.336 131.109C268.828 135.746 259.513 117.072 267.632 109.658C270.409 107.116 272.418 107.842 273.572 111.837C275.345 117.948 280.515 117.67 280.537 111.453C280.537 108.141 287.203 102.885 288.528 105.15Z" fill="black"/>
<path d="M283.272 139.446C281.969 140.151 281.691 143.441 282.46 148.718C282.887 151.667 285.9 152.522 287.096 150.022C288.4 147.33 288.122 141.219 286.648 139.873C285.75 139.082 284.298 138.89 283.272 139.446Z" fill="black"/>
<path d="M13.5698 140.172C10.6855 141.369 9.70262 155.256 12.4375 156.197C15.3432 157.222 16.1551 155.748 16.6679 148.483C17.1807 141.176 16.3688 139.018 13.5698 140.172Z" fill="black"/>
<path d="M291.071 154.704C289.447 155.302 287.888 156.199 286.798 157.161C285.837 157.994 285.837 157.994 285.281 157.631C274.662 150.708 264.3 165.985 270.688 179.168C278.786 195.897 296.562 190.043 301.284 169.062C303.527 159.062 298.485 151.969 291.071 154.704ZM294.981 161.391C297.374 165.985 291.669 179.274 286.242 181.817C278.722 185.342 271.35 169.233 277.867 163.506C279.897 161.733 281.115 162.16 282.162 165.023C284.02 170.194 288.208 170.215 288.507 165.066C288.657 162.438 293.977 159.447 294.981 161.391Z" fill="black"/>
<path d="M25.1083 159.485C22.7153 160.104 19.6173 162.348 17.8653 164.741C17.1174 165.766 17.1174 165.766 16.0064 164.698C7.88738 156.878 -1.25722 168.565 1.13576 183.692C4.23382 203.221 20.7069 206.917 31.4112 190.508C40.9404 175.872 36.9877 156.429 25.1083 159.485ZM28.6978 166.044C32.4582 169.334 30.7275 180.658 25.386 187.88C17.1602 198.926 7.86602 193.927 7.82329 178.436C7.78055 167.775 10.9427 165.766 13.8698 174.612C15.6859 180.146 20.4505 179.569 20.2796 173.821C20.13 169.569 26.2834 163.907 28.6978 166.044Z" fill="black"/>
<path d="M278.401 193.118C277.29 193.524 276.756 194.443 275.11 198.887C273.722 202.669 273.615 203.545 274.512 204.506C276.457 206.622 278.85 204.613 280.986 199.058C282.567 194.977 281.307 192.05 278.401 193.118Z" fill="black"/>
<path d="M23.5063 203.268C19.1477 204.358 24.361 219.228 28.9119 218.652C29.3392 218.609 29.7024 218.481 29.7024 218.395C29.7024 218.31 29.8734 218.182 30.087 218.139C31.7749 217.69 31.4117 215.575 28.6128 209.379C25.8352 203.225 25.472 202.777 23.5063 203.268Z" fill="black"/>
<path d="M256.372 204.593C244.792 209.336 246.053 235.424 258.039 239.12C272.29 243.522 293.805 213.866 279.811 209.144C277.396 208.311 274.149 208.802 270.517 210.511C269.299 211.088 268.273 211.537 268.273 211.516C266.265 206.003 260.731 202.777 256.372 204.593ZM259.77 210.597C261.094 211.537 261.714 213.503 261.928 217.541C262.099 220.959 262.44 222.028 263.573 222.776C265.581 224.079 267.889 222.669 268.722 219.613C269.427 217.092 277.674 213.46 278.294 215.383C278.913 217.349 275.174 223.459 270.944 227.412C262.675 235.146 256.992 234.356 255.09 225.19C253.552 217.733 256.565 208.354 259.77 210.597Z" fill="black"/>
<path d="M45.2777 222.539C42.2438 223.607 39.3166 226.406 37.1801 230.252C36.7741 230.957 36.4322 231.577 36.4109 231.619C36.3681 231.662 35.4494 231.256 34.3598 230.701C20.0873 223.543 11.6265 236.918 20.707 252.28C34.2957 275.27 51.8584 274.33 56.4734 250.336C59.9775 232.153 54.7642 219.184 45.2777 222.539ZM49.2518 228.543C54.401 233.991 50.1919 258.412 43.5044 261.809C35.8981 265.676 18.2285 241.832 24.2323 235.828C27.3304 232.752 33.0992 235.572 37.2441 242.195C39.979 246.597 43.8676 242.516 41.5387 237.666C39.8294 234.098 46.7733 225.893 49.2518 228.543Z" fill="black"/>
<path d="M253.574 243.393C252.399 243.607 252.121 243.863 247.613 248.521C242.869 253.435 242.399 254.183 243.147 255.593C244.493 258.093 248.211 256.341 253.787 250.572C257.612 246.619 257.505 242.731 253.574 243.393Z" fill="black"/>
<path d="M229.921 250.996C228.34 251.424 226.909 252.236 225.841 253.325C224.922 254.244 224.922 254.244 223.512 253.176C212.594 244.8 203.663 258.133 209.09 274.755C216.183 296.57 233.725 298.813 239.322 278.644C243.638 263.025 238.745 248.625 229.921 250.996ZM217.892 257.684C219.602 258.581 221.119 260.718 222.614 264.35C225.328 270.931 231.054 268.26 228.874 261.423C228.426 259.97 228.917 258.987 230.626 257.94C234.964 255.248 234.793 272.533 230.391 281.058C226.866 287.895 221.76 285.972 217.016 276.016C212.743 267.064 213.299 255.312 217.892 257.684Z" fill="black"/>
<path d="M112.729 265.485C110.101 266.596 107.025 269.181 104.867 272.065C103.627 273.71 103.606 273.732 103.072 272.92C95.1665 260.784 83.7998 272.065 87.1757 288.731C92.0898 313.024 114.631 316.1 121.852 293.495C127.429 276.018 122.643 261.297 112.729 265.485ZM117.344 271.809C120.336 277.855 116.426 294.585 110.828 299.734C103.286 306.699 91.8548 293.26 93.5427 279.415C94.4828 271.873 98.115 274.116 100.743 283.881C101.64 287.192 102.794 288.474 104.632 288.132C106.982 287.705 107.751 285.483 106.918 281.509C106.49 279.415 107.922 276.915 111.575 273.39C114.887 270.164 116.34 269.779 117.344 271.809Z" fill="black"/>
<path d="M67.6266 265.612C63.7807 267.193 67.9043 272.107 75.1901 274.607C78.6086 275.782 81.3007 273.645 79.6769 271.017C79.1642 270.206 79.0146 270.12 73.2885 267.385C69.2504 265.462 68.5239 265.227 67.6266 265.612Z" fill="black"/>
<path d="M176.358 270.741C173.024 271.617 169.649 273.881 167.298 276.851C166.102 278.347 166.102 278.347 164.777 277.129C152.321 265.698 142.023 285.526 150.847 303.943C159.286 321.57 173.772 321.485 182.361 303.751C191.698 284.479 188.6 267.514 176.358 270.741ZM180.203 277.855C184.348 282 175.652 306.379 168.901 309.541C162.042 312.767 152.449 296.551 154.586 285.355C155.996 277.92 160.055 279.308 163.111 288.261C165.675 295.739 171.166 294.606 169.798 286.872C169.136 283.09 177.853 275.505 180.203 277.855Z" fill="black"/>
<path d="M201.376 279.69C199.389 280.395 196.206 281.699 195.073 282.276C192.723 283.472 193.642 286.933 196.27 286.805C200.671 286.613 206.526 283.814 206.718 281.806C206.953 279.348 204.774 278.472 201.376 279.69Z" fill="black"/>
<path d="M129.587 287.728C129.48 287.771 129.117 287.856 128.817 287.92C125.826 288.583 126.424 292.407 129.651 293.176C136.509 294.8 143.432 291.852 140.248 288.668C139.351 287.792 131.488 287.087 129.587 287.728Z" fill="black"/>
</svg>
