<svg width="161" height="106" viewBox="0 0 161 106" fill="none" xmlns="http://www.w3.org/2000/svg">
<path d="M80.2291 1.03995C79.4599 1.31771 78.7762 1.78776 78.242 2.386C78.0711 2.5783 77.7933 2.53557 76.9814 2.12961C72.2382 -0.284731 70.0803 6.31733 73.5629 12.6203C76.9814 18.795 82.5793 17.2567 84.139 9.7145C85.5064 3.11245 83.9681 -0.284731 80.2291 1.03995ZM81.5965 6.74465C81.1264 9.75724 79.6522 13.133 78.7975 13.133C77.1096 13.133 73.9689 6.36006 74.9517 4.80035C75.2294 4.37303 76.0413 5.16357 76.5755 6.36006C77.6224 8.81714 79.6522 8.71031 79.6522 6.2105C79.6522 5.31313 79.7163 5.18494 80.5495 4.56533C81.6819 3.75342 81.9597 4.3303 81.5965 6.74465Z" fill="black"/>
<path d="M86.5747 7.87618C85.1004 8.53852 85.6132 9.9273 87.472 10.3333C90.3778 10.9956 97.9841 13.8159 99.1806 14.6919C99.4797 14.9056 99.501 15.0765 99.3301 15.5465C97.6849 19.8838 103.432 23.9006 105.334 19.7556C105.804 18.73 105.804 18.73 106.894 19.6061C109.607 21.8067 109.607 21.8067 108.859 23.0246C107.406 25.3748 107.941 27.7465 110.205 29.1139C112.15 30.289 113.731 29.7335 114.628 27.5114C114.906 26.8277 115.098 26.6354 115.333 26.7423C118.474 28.1951 121.422 24.4134 119.243 21.7213C117.812 19.9693 115.184 18.9864 113.41 19.5633C112.043 20.012 108.475 16.9567 109.586 16.2943C111.039 15.4183 111.893 13.0467 111.252 11.7861C109.714 8.77355 104.971 8.53852 102.514 11.3588C101.851 12.1066 101.851 12.1066 99.7788 11.1452C94.3305 8.62398 88.2626 7.12837 86.5747 7.87618Z" fill="black"/>
<path d="M67.0462 9.81891C65.0591 10.524 61.3415 12.2974 58.863 13.7289C56.9828 14.8185 56.9828 14.8185 55.8718 13.9853C53.2865 12.0196 50.7013 11.9769 49.5261 13.8784C48.757 15.139 49.227 16.2928 51.0431 17.5961C52.4105 18.6003 48.5006 21.6342 46.4922 21.1215C41.6849 19.8822 35.3819 22.5957 35.9588 25.651C36.3647 27.8517 40.4029 29.3473 43.6078 28.45C44.1847 28.3004 44.1847 28.3004 44.1847 29.5824C44.1847 32.6163 46.4067 34.7315 48.2442 33.4282C50.2739 31.9753 51.5773 26.9971 50.4876 24.8819C50.0816 24.1127 50.103 24.0913 51.9405 22.7239C52.5174 22.2966 52.5174 22.2966 52.5174 23.5785C52.5174 26.3561 54.5685 28.1508 56.5769 27.1253C58.6921 26.0356 60.3586 20.5873 59.3758 18.002C59.0981 17.2542 63.1362 14.6476 68.2427 12.2546C72.2167 10.3958 71.2339 8.36603 67.0462 9.81891Z" fill="black"/>
<path d="M94.5002 30.9713C90.6329 31.5054 87.1503 32.4242 78.5826 35.1163C65.3357 39.304 60.0797 39.6672 46.9611 37.2956C35.0175 35.159 24.0996 36.3769 19.976 40.3082C18.224 41.9533 19.3991 43.1498 21.7493 42.1029C27.9027 39.3467 36.4918 38.9408 48.0721 40.8851C61.3403 43.1285 66.7672 42.6584 80.9328 38.1289C96.6368 33.1079 100.162 32.8728 113.708 35.9068C127.083 38.898 141.163 39.7313 143.065 37.6374C144.731 35.7786 143.898 35.4795 136.591 35.3086C127.532 35.1163 122.468 34.5394 114.477 32.8515C104.2 30.6935 99.6493 30.2662 94.5002 30.9713Z" fill="black"/>
<path d="M147.211 37.7451C146.421 38.5357 146.934 39.3689 148.835 40.4586C156.698 44.8813 158.428 51.2697 156.014 66.9737C154.753 75.1995 154.796 77.0156 156.356 77.0156C157.681 77.0156 157.894 76.4815 158.792 70.6059C160.586 58.8974 160.672 52.6371 159.112 47.8512C157.104 41.7833 149.562 35.3949 147.211 37.7451Z" fill="black"/>
<path d="M10.511 39.8148C0.319447 44.9427 -2.94953 59.8347 3.31067 72.5901C5.74638 77.547 5.83185 77.8675 5.59682 81.8202C5.04131 91.6912 5.61819 93.55 9.25039 93.8492C11.4938 94.0201 12.1989 93.6355 15.4679 90.4306C18.6727 87.2898 18.5018 87.3539 19.271 88.7427C21.664 93.1655 26.8131 92.7809 29.1207 88.0163C29.8898 86.4566 30.4026 84.2132 31.1504 79.2135C32.2401 71.9278 32.2401 71.8423 31.0222 71.6073C29.5907 71.3509 28.9284 73.167 28.1592 79.3845C27.0268 88.7214 24.3774 91.9476 21.7922 87.0762C19.8479 83.444 17.6685 83.6363 13.5663 87.7385C10.7887 90.5588 9.72044 91.2639 9.22902 90.5802C8.48122 89.576 8.26756 86.542 8.73761 83.5294C9.48541 78.7221 9.01536 76.1796 6.47282 70.8167C1.30228 59.9842 3.65253 48.233 12.1134 42.4215C13.1603 41.7164 14.0577 40.9686 14.1432 40.7763C14.8696 38.8961 13.2244 38.4688 10.511 39.8148Z" fill="black"/>
<path d="M135.31 59.0914C132.896 59.4119 129.114 60.3306 125.802 61.3562C111.487 65.843 108.731 66.0139 98.24 63.0227C92.3003 61.3348 92.1721 61.3134 87.8776 61.3348C84.4804 61.3348 83.7112 61.3989 81.361 61.933C68.7338 64.7106 64.3537 64.7961 50.06 62.4885C37.7746 60.5015 30.382 61.4416 24.485 65.8003C21.3228 68.1291 22.7971 69.7102 26.4079 67.8728C33.7151 64.1124 38.1378 63.7491 50.7009 65.8003C65.3152 68.1932 68.2423 68.2146 79.2244 65.9712C88.4758 64.0696 90.7406 64.1551 99.1588 66.6549C108.41 69.3897 112.747 69.1547 124.627 65.2875C132.511 62.7022 136.827 61.8903 141.079 62.1681C143.536 62.3176 143.856 62.2322 144.305 61.3989C145.245 59.5614 140.566 58.3649 135.31 59.0914Z" fill="black"/>
<path d="M130.759 66.2682C130.011 67.6784 129.712 79.2587 130.353 82.0576C131.507 87.2495 134.284 88.6597 138.75 86.3522C141.591 84.8779 141.634 84.8993 144.348 88.0828C149.198 93.7661 156.932 89.6852 156.996 81.438C157.018 78.9596 155.137 79.4937 154.454 82.1858C152.873 88.3605 150.095 89.3434 146.1 85.1557C143.194 82.1431 141.143 81.7371 137.425 83.5105C133.985 85.1129 133.109 82.955 132.917 72.3148C132.789 66.0973 132.746 65.905 131.678 65.905C131.208 65.905 130.887 66.0332 130.759 66.2682Z" fill="black"/>
<path d="M114.157 70.9056C111.423 72.1021 110.696 76.5248 112.705 79.6442C113.324 80.5843 110.44 83.4046 109.713 82.55C106.637 78.9391 101.936 82.7209 103.453 87.5923C103.581 87.9555 103.24 88.2119 101.188 89.3871C95.8042 92.4424 94.4368 93.3184 94.2017 93.8312C92.9411 96.5874 97.1075 95.6045 104.479 91.4168C105.483 90.8399 105.483 90.8399 106.508 91.5878C109.222 93.5534 112.32 93.4252 114.222 91.2459C115.952 89.2589 115.247 86.6736 112.769 85.8831C111.893 85.6053 115.269 82.8064 116.166 83.0414C120.995 84.3874 127.981 77.2299 124.883 74.1318C123.494 72.743 121.913 72.743 119.136 74.1959C119.029 74.2387 118.965 74.1105 118.965 73.8968C118.965 72.0166 115.931 70.1364 114.157 70.9056Z" fill="black"/>
<path d="M49.1414 73.5976C47.9022 74.3241 46.8339 75.6274 46.6203 76.717C46.5134 77.358 46.4493 77.4007 45.9579 77.2084C43.9282 76.4393 41.3429 77.8494 40.7446 80.0715C39.6977 84.0028 44.9965 87.635 48.8423 85.6052C50.3166 84.8361 52.8164 87.1222 51.7267 88.2546C47.7527 92.4851 54.1197 96.5446 59.1407 92.9765C59.8885 92.4423 59.8885 92.4423 61.7259 93.3611C66.341 95.6899 68.5417 96.0104 68.5417 94.3439C68.5417 93.5534 68.3921 93.4465 64.7172 91.5236C61.32 89.7502 61.4696 89.8998 61.9182 88.1264C63.307 82.7208 56.9827 78.9391 54.9743 84.0028C54.5256 85.1138 54.1411 85.007 52.1113 83.0841C52.0686 83.0627 52.3677 82.614 52.795 82.1012C56.6622 77.3153 53.906 70.8841 49.1414 73.5976Z" fill="black"/>
<path d="M83.7326 86.2657C83.2198 86.5221 82.3652 87.1417 81.8524 87.6331C80.8909 88.5091 80.8909 88.5091 80.1431 87.9964C75.8058 85.0692 71.4472 91.1372 73.2206 97.6324C75.6349 106.435 83.3053 108.294 87.087 100.987C91.8516 91.7568 89.886 83.1036 83.7326 86.2657ZM86.7879 89.2997C87.9844 91.7354 84.63 100.453 81.9378 101.906C78.968 103.508 74.9085 95.8376 76.7459 92.0773C77.7715 90.0261 78.6048 90.2184 79.3312 92.6755C80.1004 95.2821 82.2156 95.0471 82.2156 92.355C82.2156 89.962 85.9119 87.505 86.7879 89.2997Z" fill="black"/>
</svg>
