<svg width="235" height="52" viewBox="0 0 235 52" fill="none" xmlns="http://www.w3.org/2000/svg">
<path d="M125.731 1.34484C123.851 1.98582 121.394 3.41733 119.77 4.87021C118.702 5.81031 118.702 5.81031 117.805 4.59245C115.07 0.853424 109.707 0.212448 106.673 3.22504C100.605 9.29295 103.789 29.2701 112.036 37.0259C118.211 42.8374 125.966 38.4788 132.568 25.531C140.944 9.05793 137.611 -2.69331 125.731 1.34484ZM131.714 4.2506C139.555 8.45968 124.193 39.3548 116.138 35.5516C109.451 32.4108 104.344 14.2285 108.147 7.09226C110.583 2.54133 114.813 4.22923 116.993 10.6176C118.168 14.0789 120.134 14.0362 120.048 10.5108C120.005 8.58788 120.176 8.28875 122.527 6.62221C126.308 3.93011 129.556 3.09684 131.714 4.2506Z" fill="black"/>
<path d="M96.2459 9.16356C94.5153 9.59088 92.5069 10.7874 90.7763 12.4325C89.1525 13.9709 89.1525 13.9709 88.426 13.2231C86.5458 11.2788 82.9777 10.3173 79.3882 10.7446C64.8808 12.5394 68.4275 32.3455 84.1742 37.452C89.9216 39.3108 97.592 39.0117 97.8056 36.9178C97.9125 35.8282 97.5279 35.7 93.8102 35.6573C82.3795 35.4863 73.3844 28.9697 73.3844 20.8293C73.3844 13.5863 83.4478 10.7874 87.5073 16.9194C88.7038 18.7355 90.1353 18.6714 91.4172 16.7485C93.4043 13.8 97.1647 11.5138 99.6217 11.7488C101.481 11.9198 101.908 11.7916 101.908 11.001C101.908 9.12083 99.5363 8.35166 96.2459 9.16356Z" fill="black"/>
<path d="M138.337 12.9912C137.632 14.0595 138.016 14.4868 140.046 14.8714C141.648 15.1705 143.4 16.773 143.657 18.1831C144.02 20.0847 145.43 20.6188 147.011 19.4223C153.293 14.7005 161.284 18.2045 159.702 24.9988C156.925 37.156 142.311 44.7837 133.743 38.5662C131.756 37.1133 131.393 36.921 130.495 36.7714C126.97 36.1946 129.619 40.9592 134.063 43.1385C145.473 48.7577 161.903 37.8825 163.121 23.9092C163.826 15.9824 155.087 11.5811 146.947 15.7261C146.327 16.0465 146.135 16.0679 146.135 15.8542C146.135 13.739 139.448 11.3033 138.337 12.9912Z" fill="black"/>
<path d="M201.729 29.9304C197.413 30.9987 195.042 35.4855 196.879 39.0963C197.157 39.6732 197.37 40.1646 197.349 40.186C196.815 40.7201 188.226 43.0918 183.205 44.096C169.146 46.8949 144.511 48.6255 138.507 47.2154C134.939 46.4035 133.892 48.1768 137.311 49.2451C148.208 52.5996 182.906 49.4588 198.118 43.7327C200.319 42.8995 200.319 42.8995 202.456 43.925C213.844 49.4802 231.47 46.3821 233.863 38.4126C234.974 34.7377 233.415 34.6522 229.953 38.199C224.676 43.5832 210.959 45.1856 204.678 41.1261C204.314 40.8911 204.272 40.9338 206.13 39.5236C212.433 34.7804 209.335 28.0502 201.729 29.9304ZM205.746 33.4344C206.451 34.1394 205.725 35.2718 203.609 36.8743C201.024 38.8186 200.639 38.8399 199.849 37.1307C198.781 34.7163 203.844 31.5328 205.746 33.4344Z" fill="black"/>
<path d="M21.8493 33.2024C18.6658 34.6553 17.6402 40.4241 19.8623 44.5263C20.5674 45.8296 20.5674 45.8296 19.2854 46.321C14.8413 48.0517 10.034 46.7697 4.75659 42.4966C0.739808 39.2276 -1.20449 41.8983 2.70547 45.3382C8.73065 50.637 16.6574 52.0257 22.3194 48.7568C23.174 48.2653 23.174 48.2653 24.1355 48.8636C30.2461 52.7308 38.9206 52.7949 62.0599 49.1413C72.4437 47.5175 73.5761 47.3252 77.6143 46.7911C83.0626 46.0647 85.6051 45.8296 90.2201 45.6373C94.6429 45.445 94.8565 45.3809 94.9206 44.1204C95.0488 41.706 82.2293 42.2615 62.1667 45.5305C39.3266 49.2482 23.9432 48.8636 26.913 44.6331C31.1435 38.5866 27.5967 30.5958 21.8493 33.2024ZM24.9687 36.7705C26.2934 38.4584 25.8234 41.4496 23.9645 43.1162C23.2167 43.7999 22.2125 41.5992 22.2125 39.2489C22.2125 36.8773 23.8791 35.3817 24.9687 36.7705Z" fill="black"/>
</svg>
