<svg width="83" height="15" viewBox="0 0 83 15" fill="none" xmlns="http://www.w3.org/2000/svg">
<path d="M40.741 0.605223C40.506 0.840247 40.3992 1.35303 40.3992 2.2504C40.3992 4.38698 40.3351 4.47245 38.9036 4.64338C37.4293 4.8143 37.0875 5.04933 36.9165 5.96806C36.7029 7.07909 37.0875 7.29275 39.7582 7.5705C40.2282 7.6346 40.3137 7.7628 40.3992 8.6388C40.6983 11.1386 43.3904 11.1813 43.3904 8.68153C43.3904 7.80553 43.4118 7.80553 44.245 7.67733C46.6166 7.35684 46.2534 4.53655 43.8604 4.53655C43.2195 4.53655 43.2195 4.51518 43.0699 2.97684C42.8135 0.498393 41.8307 -0.505804 40.741 0.605223Z" fill="black"/>
<path d="M63.7953 3.55069C63.4534 3.72161 62.8338 4.19166 62.4279 4.59761C61.7228 5.34542 61.7228 5.34542 61.2528 4.9181C59.8853 3.61478 57.706 3.91391 56.1036 5.60181C55.4626 6.26415 55.4626 6.26415 55.1421 5.23859C54.6507 3.67888 53.0269 3.63615 52.7278 5.17449C52.3432 7.16152 52.7278 13.5713 53.2405 13.9772C54.3729 14.9173 55.313 14.3832 56.1249 12.3748C56.9582 10.2382 58.7316 7.63157 59.0948 7.99479C59.1589 8.05889 59.3939 8.7426 59.6076 9.53313C60.334 12.1398 62.5347 12.4603 63.2398 10.0673C63.5389 9.02035 64.8636 6.88376 65.1841 6.88376C65.59 6.88376 66.2524 8.82806 66.5942 11.0287C67.3634 15.7933 69.8632 15.601 69.6068 10.7724C69.3291 5.0463 66.9575 2.14054 63.7953 3.55069Z" fill="black"/>
<path d="M25.486 4.25994C25.1014 4.43087 24.3108 5.11457 23.7553 5.73419C22.7084 6.88794 22.7084 6.88794 22.5588 6.2256C22.4306 5.62736 22.3452 5.58462 21.6401 5.64872C19.8881 5.79828 20.5932 14.1523 22.3665 14.1523C23.563 14.1523 23.8621 13.8746 24.3749 12.1867C25.315 9.0459 26.6397 7.12297 27.2166 8.02033C28.584 10.1142 30.6565 9.60141 30.6565 7.20843C30.6565 4.64453 27.9003 3.06345 25.486 4.25994Z" fill="black"/>
<path d="M75.3966 4.62286C74.8838 5.02881 74.2642 5.62706 74.0505 5.94755C73.666 6.54579 73.666 6.54579 73.3241 5.79798C72.9609 5.02881 72.0635 4.72969 71.3798 5.17837C70.632 5.64842 70.867 13.2333 71.6576 13.9598C72.8113 15.028 73.7728 14.4298 74.5633 12.1437C75.5034 9.45155 77.2127 7.31496 78.4306 7.31496C79.8834 7.31496 80.5244 5.26384 79.3707 4.3451C78.4092 3.57593 76.5931 3.72549 75.3966 4.62286Z" fill="black"/>
<path d="M12.8378 4.72757C12.4105 4.96259 11.8336 5.38991 11.5131 5.7104C10.9576 6.26591 10.9576 6.26591 10.4021 5.7104C8.79962 4.10796 4.84693 4.21479 3.45815 5.90269C3.18039 6.24455 3.13766 6.22318 2.88127 5.62494C2.64624 5.04806 2.49668 4.96259 1.77024 4.96259C0.488288 4.96259 0.445557 5.09079 0.445557 8.93665C0.445557 12.8466 0.53102 13.0816 1.89844 13.0816C2.96673 13.0816 3.07356 12.9748 3.8 11.3724C5.70156 7.18465 7.98771 6.7787 8.97055 10.4536C9.52606 12.4834 11.8763 12.697 12.325 10.7741C12.6455 9.49216 14.0556 7.5265 14.6539 7.5265C15.1667 7.5265 15.9999 9.51353 16.47 11.8638C17.0469 14.7054 19.8885 14.7695 19.8885 11.9279C19.8885 6.73596 16.1922 2.9542 12.8378 4.72757Z" fill="black"/>
<path d="M79.7549 11.0908C79.1353 11.7104 79.1566 13.2915 79.7976 13.7402C81.1009 14.6589 82.7461 13.8897 82.7461 12.3727C82.7461 11.2404 82.1692 10.6635 81.0368 10.6635C80.46 10.6635 80.0326 10.813 79.7549 11.0908Z" fill="black"/>
<path d="M28.7982 11.6299C27.2812 12.805 28.67 15.4757 30.4434 14.792C32.3449 14.087 31.9604 11.3735 29.9733 11.3735C29.5247 11.3735 28.9905 11.5017 28.7982 11.6299Z" fill="black"/>
</svg>
