<svg width="336" height="177" viewBox="0 0 336 177" fill="none" xmlns="http://www.w3.org/2000/svg">
<path d="M105.403 0.526685C97.7538 4.43664 108.159 25.5889 118.692 27.5118C125.294 28.7297 130.123 19.5851 128.328 9.26534C127.153 2.51371 121.855 1.2104 118.051 6.72279C117.603 7.36377 117.197 7.81246 117.111 7.72699C117.026 7.62016 116.492 6.93645 115.893 6.16728C112.176 1.38132 108.052 -0.819366 105.403 0.526685Z" fill="black"/>
<path d="M283.488 8.32374C273.061 10.8663 275.027 36.6763 285.817 38.6633C291.543 39.7316 300.623 30.5229 303.23 21.0151C305.003 14.4771 300.132 11.1227 293.273 14.178C291.649 14.8831 291.628 14.8831 291.158 13.5798C289.833 9.81936 286.543 7.55457 283.488 8.32374Z" fill="black"/>
<path d="M84.9773 23.0494C82.5202 23.7972 82.8194 26.0193 86.5798 35.0143C87.413 37.0654 88.0326 38.7533 87.9258 38.7961C84.8064 39.843 78.3539 44.7785 78.5248 45.9964C78.9521 48.9449 80.3195 48.9876 86.1738 46.3382C88.5027 45.2699 90.4897 44.4153 90.5965 44.4153C90.8316 44.4153 96.814 56.893 99.4634 63.0036C103.074 71.2508 104.997 74.1139 107.006 74.2207C109.676 74.3489 110.83 72.3619 109.847 69.3279C108.01 63.5805 102.497 51.5301 97.9464 43.2402C96.8781 41.3172 96.8781 41.3172 100.446 39.5011C105.83 36.7663 106.899 35.4416 105.659 33.07C104.613 31.0189 102.198 31.2539 96.7713 33.9674C93.8442 35.4203 93.8442 35.4203 91.9853 31.8521C87.3489 22.8998 86.9857 22.4298 84.9773 23.0494Z" fill="black"/>
<path d="M170.398 26.7635C167.406 27.7464 164.18 31.9341 161.958 37.7242C161.339 39.3694 161.317 39.3694 160.868 37.8311C158.582 30.0752 150.805 31.5922 144.63 40.9932C142.323 44.4759 138.263 52.9581 138.263 54.2828C138.263 54.9451 137.815 53.8982 136.875 51.0352C133.264 40.0745 132.217 38.5148 129.567 40.1386C128.136 41.0146 128.157 41.7624 129.867 48.5781C133.798 64.3889 135.123 67.8288 137.622 68.5766C140.165 69.3457 141.426 68.0211 143.391 62.5728C146.276 54.6246 149.737 47.7235 153.155 43.1725C154.672 41.1428 154.566 40.7368 154.736 49.4327C154.929 59.026 155.313 60.3934 157.899 60.9703C160.719 61.5899 161.445 60.7139 163.796 53.8127C166.488 45.9928 169.287 39.4335 171.274 36.2927C172.235 34.7971 172.321 35.609 172.235 44.8391C172 67.1878 171.979 66.91 174.158 67.4869C177.598 68.4056 178.41 66.0768 179.072 53.3854C180.205 31.87 177.748 24.3492 170.398 26.7635Z" fill="black"/>
<path d="M196.037 35.4596C187.235 36.7843 180.162 45.8862 181.957 53.5779C183.816 61.4406 193.602 64.0472 201.144 58.6844C201.464 58.4493 201.763 58.2784 201.806 58.3211C201.827 58.3639 202.063 59.1758 202.319 60.1159C203.75 65.2437 206.955 68.7477 211.1 69.7092C216.121 70.8843 217.51 66.1197 212.831 63.7481C209.37 61.9961 207.981 59.0476 207.724 52.9583C207.554 49.1552 207.468 48.792 206.336 47.9373C204.562 46.5913 203.024 47.3177 200.396 50.7363C196.251 56.1632 188.773 56.2487 188.794 50.9072C188.837 44.2838 198.772 38.6004 201.699 43.5146C203.387 46.3349 206.784 45.4162 206.72 42.1685C206.613 37.8099 201.55 34.6264 196.037 35.4596Z" fill="black"/>
<path d="M233.619 35.7548C229.859 36.7804 225.992 39.558 222.958 43.4466C221.697 45.0704 221.697 45.0704 221.633 43.8311C221.484 40.263 221.163 37.4855 220.843 36.9941C219.582 35.0925 216.762 35.8403 216.377 38.1692C215.458 44.0234 214.967 57.5267 215.651 58.83C217.552 62.4408 220.672 61.4794 222.744 56.672C226.077 49.0017 230.372 44.173 235.906 41.9509C242.379 39.3443 240.371 33.9387 233.619 35.7548Z" fill="black"/>
<path d="M265.561 36.8041C262.741 37.8083 261.608 40.5004 262.912 43.0643C265.177 47.5725 272.74 44.4103 271.159 39.6244C270.433 37.381 267.74 36.0349 265.561 36.8041Z" fill="black"/>
<path d="M239.024 43.3625C238.02 44.153 237.144 46.3537 233.896 56.2675C230.328 67.2068 230.221 68.2751 232.636 69.6639C234.601 70.8177 236.396 69.9416 237.977 67.0573C242.849 58.2118 248.019 53.554 253.04 53.5113C257.484 53.4686 258.446 49.1954 254.472 47.2083C251.545 45.7555 247.271 46.6956 243.511 49.6227C241.994 50.7978 242.058 50.8192 242.443 49.2167C243.148 46.2469 243.212 45.0718 242.72 44.1958C242.015 42.9352 240.114 42.5079 239.024 43.3625Z" fill="black"/>
<path d="M262.079 52.3588C260.37 53.6834 255.562 67.7208 255.477 71.5453C255.413 75.3698 259.323 76.6518 261.182 73.4255C263.19 69.9429 266.694 54.8586 265.839 53.2775C265.113 51.9101 263.233 51.44 262.079 52.3588Z" fill="black"/>
<path d="M79.2292 52.525C68.589 53.8497 64.3372 62.9302 72.3921 67.0965C74.08 67.9725 75.4902 68.4426 79.6138 69.5109C88.3097 71.7757 91.7496 74.0618 92.0701 77.8436C92.4547 82.4372 87.7756 82.3945 83.1392 77.7795C77.2849 71.968 73.2468 76.5189 78.3105 83.2278C85.3612 92.5433 98.9072 89.0179 98.9927 77.8436C99.0568 70.6005 93.6512 65.9214 81.6222 62.7806C75.6611 61.2209 75.3406 61.05 76.5371 60.3235C78.9942 58.7638 82.605 58.1229 84.6348 58.9134C86.4936 59.6185 88.2883 59.4262 88.5875 58.4647C88.6729 58.2511 88.8225 58.0801 88.9293 58.0801C89.2925 58.0801 89.143 56.0717 88.7157 55.3667C87.4123 53.2514 83.2887 52.0122 79.2292 52.525Z" fill="black"/>
<path d="M283.209 56.4806C269.215 59.5573 264.322 77.7183 275.539 85.0041C281.158 88.6363 290.196 87.0339 290.175 82.3975C290.153 80.6241 288.081 79.4276 285.731 79.8763C280.453 80.8377 276.928 78.3166 276.928 73.5306C276.928 72.3128 276.971 72.1632 277.312 72.27C285.538 74.7485 295.046 74.2998 297.76 71.3086C303.998 64.4074 293.914 54.1304 283.209 56.4806ZM289.32 63.2109C291.051 63.6809 292.952 65.4757 292.952 66.6081C292.952 67.3986 287.739 67.6336 282.312 67.0781C279.47 66.779 279.47 66.779 280.282 65.9457C282.59 63.5741 286.436 62.399 289.32 63.2109Z" fill="black"/>
<path d="M56.71 67.5932C54.958 68.3624 54.723 69.4307 55.364 74.1526C56.8596 85.391 56.0904 94.9843 53.3342 99.1507C51.7104 101.608 47.5868 94.8347 43.3777 82.7844C41.7966 78.2762 41.5402 77.9557 39.3823 77.9557C37.0107 77.9557 36.562 78.9599 36.0492 85.2201C35.5578 91.0957 33.6562 104.984 33.0793 106.864C33.058 106.949 32.417 105.646 31.6692 103.979C25.4303 90.1343 24.0202 87.9549 21.3922 88.3182C18.7855 88.6814 18.6574 89.2155 18.5505 99.9626C18.4223 112.248 17.4609 121.264 15.1747 131.584C13.9782 136.904 13.9782 137.246 15.1533 138.293C19.512 142.182 23.5501 128.721 24.7253 106.287C24.8748 103.381 24.5971 103.082 27.0541 108.723C31.1991 118.252 31.2419 118.38 31.0282 119.982C27.5883 144.596 33.2075 163.676 43.8691 163.654C52.6932 163.633 51.2617 150.771 39.1472 121.35C38.0576 118.7 38.0576 118.7 39.3395 110.667C40.0446 106.244 40.8351 100.924 41.1129 98.8088C41.583 95.0057 41.583 95.0057 42.7153 97.2491C49.8943 111.714 60.5345 108.103 62.0942 90.6684C62.3292 87.9549 62.3292 87.9549 63.2693 89.5146C66.3246 94.5997 70.2987 97.6764 73.8454 97.6978C78.2468 97.7405 79.0801 93.0827 74.9351 91.5871C71.1961 90.2197 66.7733 83.5322 62.607 72.9561C60.4277 67.4437 59.338 66.4395 56.71 67.5932ZM38.9122 138.848C41.4548 146.391 42.694 151.283 42.8863 154.659C42.9931 156.475 42.9931 156.475 41.818 155.236C38.5063 151.711 36.797 145.728 36.6474 137.139C36.5406 131.52 36.391 131.413 38.9122 138.848Z" fill="black"/>
<path d="M14.1923 70.0535C11.7566 70.6304 10.0901 73.7284 11.0302 75.9505C12.9104 80.4587 18.9996 80.1596 19.8756 75.5445C20.5166 72.0192 17.6322 69.2202 14.1923 70.0535Z" fill="black"/>
<path d="M326.925 70.3529C321.028 72.5322 313.443 81.0359 308.315 91.2274C307.46 92.9367 307.46 92.9367 306.67 92.3171C297.995 85.48 283.659 89.3045 283.659 98.4704C283.659 105.628 292.568 110.286 301.841 107.957C302.397 107.807 302.397 107.807 302.247 109.388C301.435 117.294 303.721 123.426 306.99 122.165C308.507 121.588 308.806 120.499 308.999 115.243C309.105 111.974 309.276 110.2 309.597 108.726C310.366 105.308 310.174 105.543 312.78 104.261C324.916 98.2354 334.061 87.061 334.766 77.3823C335.15 72.0836 331.39 68.7077 326.925 70.3529ZM327.694 78.8993C325.792 84.5612 319.382 92.5521 314.682 95.0733C312.524 96.2484 321.647 82.446 325.151 79.2411C328.142 76.5063 328.506 76.4636 327.694 78.8993ZM300.132 96.9748C305.217 98.1927 306.2 99.731 302.482 100.628C297.333 101.91 291.244 100.906 291.244 98.7696C291.244 98.1499 292.312 97.2526 293.444 96.9748C293.936 96.8466 294.448 96.6971 294.555 96.6543C295.218 96.4193 298.593 96.5902 300.132 96.9748Z" fill="black"/>
<path d="M309.17 130.047C299.961 133.765 298.765 152.353 307.439 156.626C312.909 159.318 322.459 154.682 330.707 145.302C340.385 134.277 334.339 127.163 320.985 133.85C318.784 134.94 318.784 134.94 318.25 133.872C316.541 130.517 312.375 128.765 309.17 130.047Z" fill="black"/>
<path d="M17.2258 146.988C15.0251 147.629 13.0381 151.539 12.5039 156.197C12.333 157.714 12.2475 157.778 11.0938 157.201C-0.486524 151.283 -3.11453 163.739 7.97437 172.072C20.7512 181.687 31.3486 176.003 27.7164 161.496C25.0243 150.727 21.4349 145.749 17.2258 146.988Z" fill="black"/>
</svg>
