<svg width="388" height="163" viewBox="0 0 388 163" fill="none" xmlns="http://www.w3.org/2000/svg">
<path d="M174.497 0.528548C165.288 2.55831 156.122 12.4721 152.106 24.7361C151.208 27.4282 151.165 27.535 150.909 26.9795C143.986 11.767 124.244 12.4934 123.176 28.0051C122.3 40.8887 137.598 57.0413 150.674 57.0413C151.892 57.0413 151.87 56.7422 152.063 77.4458C152.405 113.533 153.687 138.787 155.716 148.594C156.891 154.384 161.036 155.538 162.724 150.538C163.301 148.786 163.173 142.932 162.318 132.036C161.4 120.092 160.908 112.358 159.968 94.3248C159.306 81.5907 159.007 76.5056 158.131 61.7845C157.874 57.5114 157.896 57.3618 158.622 57.1909C158.9 57.1268 160.267 56.7849 161.699 56.4217C173.664 53.3664 183.15 53.6441 201.268 57.5541C229.429 63.6647 242.035 62.4683 268.08 51.2512C294.189 40.0127 307.777 39.4999 331.536 48.8368C332.006 49.0291 332.626 49.2855 332.925 49.3923C341.087 52.6613 351.471 53.9646 353.308 51.9349C354.953 50.1188 352.881 48.2813 347.988 47.2344C346.813 46.978 344.612 46.4438 343.074 46.0379C340.489 45.3755 338.651 44.7559 329.613 41.5511C319.55 37.983 312.563 36.6796 303.547 36.6583C291.518 36.6369 283.591 38.5171 265.302 45.6747C242.74 54.4988 229.642 55.2466 204.516 49.1359C187.915 45.0978 179.197 44.2645 170.331 45.867C169.583 45.9952 169.583 45.9952 170.972 44.4568C182.445 31.68 189.218 16.3179 187.081 8.02797C185.564 2.19509 180.544 -0.796137 174.497 0.528548ZM178.3 8.09207C183.043 9.88681 173.728 29.0734 162.532 40.5682C156.891 46.3584 156.806 46.4011 156.956 43.3672C157.639 31.039 160.588 22.2149 166.399 14.9933C170.117 10.3569 175.715 7.10924 178.3 8.09207ZM137.854 24.3729C140.995 25.8258 143.773 29.693 145.525 35.0345C146.251 37.2992 149.029 48.5163 148.879 48.6445C147.918 49.6274 139.03 44.6491 136.209 41.5511C128.218 32.8338 129.415 20.4629 137.854 24.3729Z" fill="black"/>
<path d="M124.993 83.4058C117.195 85.7133 109.546 98.661 108.67 111.053C108.477 113.66 108.563 113.596 106.319 113.147C99.0337 111.694 91.342 107.015 85.5518 100.477C83.4366 98.1055 81.6419 97.6355 79.9326 99.067C78.2661 100.477 78.2447 101.695 79.8044 105.541C87.3466 124.236 86.8979 149.661 78.907 155.195C74.1852 158.464 68.7796 135.987 69.3778 115.561C69.6129 107.891 69.1856 106.609 66.4507 106.609C63.8227 106.609 63.4595 107.485 63.2031 114.087C62.6262 128.488 57.6693 144.982 52.4561 149.79C42.4355 159.02 33.2268 131.201 35.7693 99.3234C36.2394 93.3837 32.6499 90.9693 29.5732 95.1357C23.3771 103.511 6.39122 104.729 7.39541 96.7167C7.82273 93.2555 7.8441 93.4264 7.13902 92.7213C4.61785 90.2002 0.686523 93.9819 0.686523 98.9174C0.686523 108.746 13.7624 112.57 26.176 106.374C27.3084 105.797 28.2699 105.327 28.3126 105.327C28.334 105.327 28.334 107.507 28.2912 110.177C27.928 136.265 34.1241 154.212 44.7857 157.93C52.4988 160.601 60.0196 154.682 64.5492 142.397C65.2542 140.453 65.1901 140.367 65.7456 144.106C67.7754 157.375 73.3092 164.297 80.2317 162.16C90.4019 159.02 95.4229 136.457 90.6155 115.604C90.1028 113.382 89.9746 113.425 92.3675 114.878C96.7475 117.527 102.004 119.536 106.79 120.412C108.755 120.753 108.755 120.753 108.883 122.078C111.276 143.615 129.865 154.917 142.855 142.718C147.128 138.722 144.714 134.363 139.672 136.991C139.095 137.291 137.834 137.932 136.915 138.402C128.775 142.632 121.211 137.333 118.306 125.411C117.451 121.886 117.387 120.753 118.007 120.625C125.698 119.087 130.954 115.882 134.672 110.519C143.347 97.9773 136.894 79.8804 124.993 83.4058ZM129.266 91.3325C135.292 96.3963 129.48 109.771 119.908 112.763C117.067 113.66 117.259 113.745 117.408 111.502C118.156 101.139 125.677 88.32 129.266 91.3325Z" fill="black"/>
<path d="M351.942 87.1028C340.447 88.8548 333.866 111.759 341.579 123.254C342.819 125.113 342.562 125.583 339.058 127.954C331.302 133.21 328.525 128.617 327.478 108.746C326.773 95.5851 325.341 90.5641 321.645 88.2138C316.838 85.1585 311.603 89.1326 306.368 99.8155C304.638 103.362 304.296 103.854 304.296 102.914C304.296 101.354 303.014 98.0849 301.817 96.632C297.822 91.7606 290.729 94.7945 285.045 103.832C284.319 105.007 284.319 105.007 284.191 102.016C283.635 90.0299 277.054 88.342 264.363 96.8884C249.364 106.994 250.582 106.332 250.262 104.708C248.531 95.8842 240.198 92.5938 234.344 98.384C227.464 105.2 231.951 116.588 241.566 116.652C242.335 116.652 242.249 117.336 241.053 120.241C235.925 132.74 224.409 134.856 220.777 123.98C218.213 116.331 220.798 103.448 226.033 97.8926C229.302 94.4099 226.375 91.3332 222.037 93.7049C212.957 98.6404 208.705 116.566 213.726 128.766C214.196 129.92 210.991 133.424 207.701 135.347C191.805 144.662 173.601 130.112 178.793 112.229C181.143 104.11 189.305 96.0765 191.89 99.3241C194.988 103.234 198.535 98.7472 195.714 94.5168C188.172 83.2569 168.943 100.478 168.964 118.468C168.986 143.851 202.423 155.58 217.273 135.411C217.999 134.407 217.999 134.407 219.089 135.24C230.092 143.957 246.843 133.659 250.048 116.225C250.304 114.836 250.304 114.836 252.676 113.661C255.731 112.144 260.004 109.302 266.307 104.537C274.982 97.9994 277.204 96.9525 277.802 99.1104C278.657 102.208 277.824 108.469 274.512 123.382C271.927 135.091 271.948 135.817 274.619 136.522C276.883 137.142 277.61 136.287 279.276 131.159C284.084 116.353 292.203 101.952 296.305 100.927C298.549 100.371 298.613 109.024 296.455 120.605C295.237 127.142 295.28 127.954 296.818 129.343C299.061 131.373 301.839 130.176 303.078 126.672C303.399 125.796 304.232 123.403 304.958 121.352C310.022 106.888 316.368 94.004 318.419 94.004C319.551 94.004 320.534 101.568 320.534 110.584C320.555 136.031 331.901 144.534 347.241 130.604C348.395 129.535 348.395 129.535 350.126 130.347C364.398 137.035 384.055 129.835 387.431 116.695C389.802 107.422 380.423 99.7941 372.474 104.537C366.278 108.255 367.966 115.626 374.269 112.4C379.91 109.516 381.576 114.75 376.619 119.771C371.663 124.771 362.368 126.758 354.997 124.386C353.245 123.809 353.245 123.809 354.42 121.993C360.98 111.973 363.351 99.4096 359.997 92.2947C358.437 88.9616 354.848 86.6755 351.942 87.1028ZM352.732 96.7174C354.185 101.546 351.835 111.716 347.733 118.212C346.451 120.241 344.763 114.045 345.297 109.259C346.152 101.76 351.515 92.7007 352.732 96.7174ZM241.779 103.896C242.378 104.687 242.976 106.695 242.976 107.935C242.976 109.323 239.792 108.96 239.044 107.486C237.912 105.307 240.369 102.059 241.779 103.896Z" fill="black"/>
</svg>
