<svg width="179" height="204" viewBox="0 0 179 204" fill="none" xmlns="http://www.w3.org/2000/svg">
<path d="M78.9868 1.39212C74.9913 4.68246 76.8502 15.3868 82.7685 23.2708C84.1573 25.0869 84.1573 25.0869 83.089 25.0869C76.9143 25.0869 63.8597 27.9499 56.809 30.877C54.9501 31.6248 54.9715 31.6462 55.527 29.9583C58.1978 21.9247 57.7063 14.1262 54.416 12.4596C49.6728 10.0239 45.2714 18.7199 46.6388 27.8431C46.8097 28.9968 46.8097 28.9968 45.3141 27.6294C36.9173 19.9804 25.2729 21.6256 29.247 29.8942C30.9776 33.505 38.0711 37.9064 42.1306 37.9064C42.3443 37.9064 41.2546 38.7611 39.6949 39.808C-6.84001 70.8954 -13.5916 137.236 25.743 176.913C72.7907 224.367 153.276 205.415 174.279 141.958C187.525 101.94 169.941 56.3666 133.577 36.4108C131.461 35.2571 131.483 35.4066 133.384 34.4451C141.546 30.2574 146.738 23.2922 144.516 19.5318C142.251 15.6645 135.35 18.2498 130.308 24.8305C129.752 25.5569 129.752 25.5569 129.603 23.3349C129.09 15.2158 125.436 10.3658 121.996 13.2502C119.411 15.4295 119.005 24.4673 121.248 30.2361C121.355 30.5138 120.586 30.3215 118.001 29.4455C110.266 26.8816 102.062 25.3433 93.9429 24.9587C90.8662 24.8091 90.8662 24.8091 92.3618 22.4589C98.622 12.5878 100.289 2.16129 95.6735 1.64851C93.2165 1.37075 90.8235 3.721 88.8578 8.40013C88.516 9.21203 88.2168 9.68208 88.1527 9.48979C88.11 9.31886 87.8963 8.59242 87.7041 7.88735C86.0589 1.96899 81.978 -1.06496 78.9868 1.39212ZM81.8925 5.38754C83.3881 7.03271 85.0547 13.5279 85.0333 17.6088C85.0119 19.0617 84.8838 18.9335 83.2172 15.6645C80.8242 10.964 79.7987 3.05865 81.8925 5.38754ZM94.9471 6.88315C94.5839 9.9812 92.896 14.1048 90.4816 17.8225C89.221 19.8095 89.0928 19.7027 89.7338 17.2029C91.4645 10.3658 95.5026 2.43904 94.9471 6.88315ZM53.134 16.9892C53.7964 19.5531 52.9845 24.6382 51.1043 29.5524C50.1215 32.1163 49.9505 31.5821 49.9078 26.0484C49.8864 19.6813 52.1512 13.2716 53.134 16.9892ZM124.902 19.8522C125.287 21.7965 125.564 28.4841 125.244 28.1849C124.389 27.373 123.364 22.1384 123.556 19.4463C123.748 16.2841 124.218 16.4337 124.902 19.8522ZM140.243 22.993C139.174 25.0869 135.521 28.249 131.547 30.5138C130.521 31.1121 130.5 31.1121 130.778 30.5993C131.974 28.3131 136.611 23.8049 139.174 22.4375C140.734 21.6042 140.905 21.6897 140.243 22.993ZM38.1779 27.5653C40.4854 28.655 45.2928 32.8213 45.2928 33.7187C45.2928 34.552 39.4385 32.9495 36.7037 31.3471C31.0417 28.0354 32.3023 24.745 38.1779 27.5653ZM93.366 29.1464C171.33 33.2487 203.422 132.087 142.529 180.481C139.196 183.13 139.388 183.088 139.944 180.93C141.717 174.05 141.204 167.384 138.79 165.803C135.371 163.581 132.209 168.132 132.166 175.31C132.145 177.789 132.145 177.789 130.778 176.55C125.906 172.084 121.206 174.157 122.744 180.096C123.62 183.472 126.675 186.741 129.987 187.852C133.256 188.963 114.518 196.121 103.408 198.022C97.4255 199.048 97.6178 199.069 99.0707 197.339C106.869 188.045 108.002 177.533 101.165 177.896C97.7033 178.067 94.6693 181.635 92.2123 188.429C92.1054 188.75 91.8704 188.322 91.3149 186.72C88.6442 178.985 84.5633 175.14 81.7643 177.725C78.1108 181.122 80.4396 191.506 86.1871 197.488C87.9177 199.283 87.9177 199.283 85.0974 199.133C75.1409 198.663 64.2016 195.993 54.5015 191.677C52.3008 190.694 52.1085 190.566 52.5785 190.395C59.8857 187.489 64.0947 183.814 64.0947 180.417C64.0947 175.866 57.7704 175.61 51.8094 179.883C50.1642 181.079 50.1642 181.079 50.2924 180.161C50.8052 176.657 49.3309 171.999 47.3225 170.866C43.498 168.708 39.9513 173.388 39.8872 180.673C39.8658 182.062 39.8231 183.194 39.7804 183.194C39.7376 183.194 38.8189 182.511 37.7506 181.656C-25.1292 132.322 6.8128 32.2017 86.4221 29.0823C87.2554 29.0396 88.2596 28.9968 88.6655 28.9755C89.0715 28.9541 91.1867 29.0396 93.366 29.1464ZM137.294 170.738C137.615 172.896 136.952 178.558 136.162 180.417C135.927 180.972 135.692 179.178 135.692 176.785C135.67 172.447 136.867 167.897 137.294 170.738ZM45.891 174.541C46.8952 176.742 46.6602 182.447 45.4423 185.865C44.7372 187.788 43.263 183.088 43.4126 179.37C43.5408 175.951 45.1218 172.853 45.891 174.541ZM127.381 178.43C128.897 179.541 132.508 184.07 132.166 184.434C131.504 185.096 127.274 181.656 126.376 179.733C125.372 177.597 125.693 177.191 127.381 178.43ZM60.2489 180.823C60.2489 181.913 51.147 187.19 50.4633 186.506C50.2496 186.293 53.775 183.066 54.9501 182.383C57.3004 180.994 60.2489 180.118 60.2489 180.823ZM84.6701 181.742C86.593 184.306 90.3962 195.245 88.9433 194.07C86.1016 191.719 83.1745 185.117 83.6232 182.041C83.8155 180.866 83.9864 180.823 84.6701 181.742ZM101.699 183.451C101.699 186.57 99.2416 191.249 95.3317 195.715C94.4129 196.762 94.4129 196.762 94.5625 195.907C95.759 188.856 101.699 178.473 101.699 183.451Z" fill="black"/>
</svg>
