<svg width="249" height="49" viewBox="0 0 249 49" fill="none" xmlns="http://www.w3.org/2000/svg">
<path d="M199.108 0.846867C196.138 1.55194 191.31 5.41917 187.72 9.99147C186.545 11.4871 186.481 11.5084 186.118 10.6538C184.451 6.63702 179.644 7.17117 175.221 11.8717C173.405 13.7946 173.405 13.7946 172.935 11.6366C169.474 -3.89636 150.031 0.227256 145.01 17.555C141.869 28.3875 151.804 34.6477 159.88 26.956C163.961 23.046 161.932 18.3242 157.466 21.3581C153.257 24.1998 150.843 24.1998 151.163 21.3154C152.082 13.1964 162.167 5.20551 165.478 9.9701C168.128 13.816 167.529 22.2982 163.983 30.9514C161.034 38.1303 161.013 39.6473 163.812 40.5661C166.226 41.378 167.423 40.0746 169.773 34.1563C171.974 28.6012 179.195 16.4653 179.879 17.1704C180.05 17.32 179.238 20.5462 178.298 23.5161C177.08 27.3619 177.101 28.1738 178.383 29.5199C180.221 31.4428 182.443 30.5668 184.409 27.1055C187.528 21.6786 192.805 14.7347 196.373 11.4016C197.164 10.6538 197.143 10.7393 194.557 16.1021C187.742 30.2463 186.652 39.7328 191.331 44.1555C194.942 47.5741 198.467 45.0315 196.822 40.2028C195.284 35.7374 196.608 30.054 202.142 17.4909C205.86 9.05137 206.501 6.70112 205.753 4.09448C205.027 1.48784 202.206 0.120427 199.108 0.846867Z" fill="black"/>
<path d="M55.6141 1.0539C52.6442 1.75897 47.8155 5.6262 44.2261 10.1985C43.051 11.6941 42.9869 11.7155 42.6236 10.8608C40.9571 6.84405 36.1498 7.3782 31.727 12.0787C29.9109 14.0016 29.9109 14.0016 29.4409 11.8437C25.9796 -3.68933 6.53665 0.434288 1.51567 17.762C-1.62512 28.5945 8.31002 34.8547 16.3863 27.163C20.4672 23.2531 18.4375 18.5312 13.972 21.5652C9.7629 24.4068 7.34856 24.4068 7.66905 21.5224C8.58778 13.4034 18.6725 5.41254 21.9842 10.1771C24.6336 14.023 24.0353 22.5053 20.4886 31.1584C17.5401 38.3374 17.5187 39.8544 20.3177 40.7731C22.732 41.585 23.9285 40.2817 26.2787 34.3633C28.4794 28.8082 35.7011 16.6724 36.3848 17.3774C36.5557 17.527 35.7438 20.7532 34.8037 23.7231C33.5859 27.569 33.6072 28.3809 34.8892 29.7269C36.7267 31.6499 38.9487 30.7738 40.9144 27.3126C44.0338 21.8856 49.3112 14.9417 52.8793 11.6086C53.6698 10.8608 53.6484 10.9463 51.0632 16.3091C44.2474 30.4534 43.1578 39.9398 47.8369 44.3626C51.4478 47.7811 54.9731 45.2386 53.3279 40.4099C51.7896 35.9444 53.1143 30.2611 58.6481 17.6979C62.3657 9.2584 63.0067 6.90815 62.2589 4.30151C61.5324 1.69487 58.7122 0.327458 55.6141 1.0539Z" fill="black"/>
<path d="M120.867 5.97286C117.897 8.30174 121.123 13.045 124.264 10.9938C126.037 9.84008 125.888 6.61383 124.05 5.78056C123.132 5.35325 121.508 5.46008 120.867 5.97286Z" fill="black"/>
<path d="M123.409 14.5774C119.136 16.5644 118.281 22.0982 121.721 25.5167C122.661 26.4782 122.661 26.4782 122.234 27.7388C120.781 32.0333 124.37 36.2852 129.455 36.2852C135.395 36.2852 136.976 30.1318 131.143 29.7472C127.917 29.5335 127.981 29.5763 129.327 28.2089C131.506 25.9868 130.951 23.1879 128.259 22.7392C125.374 22.2905 124.648 19.5984 127.255 19.107C129.648 18.6583 130.459 16.1585 128.665 14.7056C127.639 13.8296 125.097 13.7869 123.409 14.5774Z" fill="black"/>
<path d="M213.68 20.7583C213.274 20.9079 211.736 21.8693 210.261 22.8735C208.787 23.8777 205.903 25.6725 203.852 26.869C198.788 29.7961 198.083 30.5866 198.724 32.5523C199.429 34.6675 201.33 34.7316 205.945 32.7873C207.142 32.2745 208.125 31.8899 208.125 31.9113C208.125 31.954 207.911 32.83 207.655 33.877C206.309 39.3894 207.804 43.5984 211.65 45.03C216.18 46.7392 221.094 42.6583 228.123 31.3344C230.11 28.1082 229.897 28.215 230.837 30.1379C233.187 34.9239 232.14 38.727 227.995 40.4577C221.948 42.9788 224.811 48.769 231.136 46.8033C239.725 44.1112 241.263 30.9285 233.871 23.3649C229.32 18.7285 226.435 20.096 220.517 29.6679C216.927 35.4794 214.342 38.6629 214.321 37.2528C214.321 35.2871 215.368 31.6763 217.141 27.5313C219.128 22.9376 217.312 19.4123 213.68 20.7583Z" fill="black"/>
<path d="M70.6799 20.7583C70.2739 20.9079 68.7356 21.8693 67.2613 22.8735C65.7871 23.8777 62.9027 25.6725 60.8516 26.869C55.7878 29.7961 55.0828 30.5866 55.7237 32.5523C56.4288 34.6675 58.3304 34.7316 62.9454 32.7873C64.1419 32.2745 65.1247 31.8899 65.1247 31.9113C65.1247 31.954 64.9111 32.83 64.6547 33.877C63.3086 39.3894 64.8042 43.5984 68.6501 45.03C73.1797 46.7392 78.0938 42.6583 85.1232 31.3344C87.1102 28.1082 86.8966 28.215 87.8367 30.1379C90.1869 34.9239 89.14 38.727 84.995 40.4577C78.9485 42.9788 81.8115 48.769 88.1358 46.8033C96.7249 44.1112 98.2632 30.9285 90.8706 23.3649C86.3197 18.7285 83.4353 20.096 77.5169 29.6679C73.9275 35.4794 71.3422 38.6629 71.3208 37.2528C71.3208 35.2871 72.3678 31.6763 74.1411 27.5313C76.1282 22.9376 74.3121 19.4123 70.6799 20.7583Z" fill="black"/>
<path d="M129.883 39.3618C127.02 41.7975 130.075 46.4125 133.408 44.7032C135.524 43.5922 135.844 40.9856 134.028 39.5113C132.981 38.614 130.823 38.5499 129.883 39.3618Z" fill="black"/>
<path d="M99.2442 40.4377C96.1247 41.8478 97.4708 46.8047 100.975 46.8047C104.308 46.8047 105.654 42.7238 102.962 40.7154C102.257 40.1813 100.142 40.0317 99.2442 40.4377Z" fill="black"/>
<path d="M242.823 40.7994C242.439 40.9062 241.84 41.3336 241.477 41.7395C238.187 45.4785 243.699 50.2859 247.289 46.8032C250.237 43.9188 247.011 39.5816 242.823 40.7994Z" fill="black"/>
</svg>
