<svg width="263" height="77" viewBox="0 0 263 77" fill="none" xmlns="http://www.w3.org/2000/svg">
<path d="M157.428 1.05708C150.826 2.83045 143.476 8.72743 138.989 15.885C137.771 17.7866 137.771 17.7866 136.575 16.2055C123.84 -0.395803 105.38 7.53094 102.71 30.7343C99.697 57.0998 112.773 80.1322 128.456 76.1368C144.608 71.9918 172.469 30.3924 171.422 11.9537C170.952 3.64235 165.013 -0.994047 157.428 1.05708Z" fill="black"/>
<path d="M34.638 22.6616C29.1043 25.7811 30.3221 38.3015 37.1378 48.493C46.3893 62.3595 57.3072 57.7017 60.7044 38.4297C63.1615 24.4564 55.1493 17.2347 46.3038 25.4178C44.7441 26.8493 44.7441 26.8493 44.1886 26.1229C41.4751 22.5121 37.4797 21.0592 34.638 22.6616Z" fill="black"/>
<path d="M189.37 27.2959C187.618 27.7874 185.588 29.4112 183.537 32.0178C182.853 32.8511 182.853 32.8511 181.7 32.0605C173.581 26.4627 166.081 35.0731 169.115 46.5252C171.935 57.1655 178.965 62.8061 185.439 59.6225C194.156 55.328 200.587 34.4322 194.968 28.7488C193.9 27.6592 193.472 27.4882 190.93 27.1037C190.631 27.0609 189.947 27.1464 189.37 27.2959Z" fill="black"/>
<path d="M253.723 27.5925C252.036 28.148 250.348 29.1736 249.023 30.4128C247.72 31.6307 247.741 31.6307 247.207 31.0324C245.733 29.4086 242.741 28.9172 240.605 29.9641C231.268 34.5578 236.289 58.6799 246.609 58.7226C253.253 58.744 261.372 46.7791 262.206 35.6902C262.676 29.7505 258.68 25.9687 253.723 27.5925Z" fill="black"/>
<path d="M83.7367 28.5948C82.3051 29.2999 80.4677 30.9664 79.5917 32.3338C79.2498 32.868 79.2498 32.868 78.267 31.9706C70.4043 24.7062 64.4433 34.8764 68.4387 48.7855C74.4639 69.8523 88.6935 67.1816 93.8214 44.021C96.2998 32.8466 91.1079 24.8985 83.7367 28.5948Z" fill="black"/>
<path d="M9.27721 33.209C-1.93988 34.8541 -2.04671 64.8305 9.14901 70.3429C17.2894 74.3597 28.421 63.2494 31.0704 48.4642C32.8865 38.294 25.3657 31.4142 17.8663 36.3925C16.9048 37.0334 16.9048 37.0334 16.4989 36.4352C14.7896 34.0636 12.012 32.803 9.27721 33.209Z" fill="black"/>
<path d="M210.266 35.178C201.89 39.1948 203.3 65.0902 212.146 69.5343C218.641 72.8247 226.461 62.7613 228.64 48.2539C230.072 38.7033 225.35 33.3832 219.346 37.7846C218.321 38.5324 218.321 38.5324 217.765 37.7846C215.671 35.0498 212.68 34.0029 210.266 35.178Z" fill="black"/>
</svg>
