<svg width="288" height="296" viewBox="0 0 288 296" fill="none" xmlns="http://www.w3.org/2000/svg">
<path d="M135.896 0.478957C122.137 1.61135 96.3268 11.0337 87.2677 18.2767C83.3791 21.3534 85.8576 25.2848 90.0239 22.6567C102.972 14.4736 127.948 6.44004 140.405 6.44004C146.964 6.44004 157.049 9.2817 152.968 9.98678C141.879 11.867 136.345 18.64 141.537 23.9387C148.032 30.5194 163.565 25.1779 163.565 16.3538C163.565 14.965 174.569 17.8922 184.226 21.8235C200.336 28.4255 205.699 30.0921 212.985 30.7544C214.651 30.904 214.651 30.904 215.484 33.1047C221.168 48.1676 242.619 71.1359 247.213 67.0978C248.986 65.5381 248.217 64.4698 239.756 56.5644C232.363 49.6419 226.701 42.3561 223.048 35.049C222.001 32.9551 220.975 30.5621 221.104 30.4553C221.125 30.4553 221.83 30.2844 222.685 30.0921C235.077 27.3359 241.017 15.0291 232.193 10.3286C223.838 5.88453 213.583 12.7643 213.561 22.849C213.561 24.6224 213.561 24.6224 212.237 24.4942C206.746 23.9173 201.169 22.144 189.162 17.1443C176.235 11.7815 170.979 10.2218 163.629 9.53809C162.155 9.38853 162.091 9.36717 161.514 8.55526C157.305 2.46598 147.861 -0.503874 135.896 0.478957ZM229.094 15.9265C232.15 17.4862 226.979 22.6567 220.975 24.0669C219.693 24.366 219.693 24.366 219.8 22.4858C220.099 17.358 225.078 13.8326 229.094 15.9265ZM157.604 16.4393C157.091 18.2126 155.339 20.0074 153.352 20.7765C150.19 21.9944 144.315 20.8193 145.746 19.2382C147.562 17.2298 158.074 14.73 157.604 16.4393Z" fill="black"/>
<path d="M59.2358 1.96333C57.847 3.18118 56.1377 6.04421 54.984 8.9927C54.8131 9.48412 54.6635 9.29183 53.0824 6.64246C50.0912 1.6642 48.3606 0.724104 46.1812 2.90342C44.707 4.37767 44.707 6.3006 46.2026 12.1121C46.9931 15.1888 47.0359 14.9752 45.3052 15.4238C35.8615 17.8809 31.3106 25.2949 30.0286 40.2083C27.6143 68.4112 36.5666 78.09 56.2018 68.4967C74.1065 59.7581 84.1912 43.1995 78.7856 31.4055C76.1576 25.7008 71.6494 27.987 73.2305 34.2258C74.8115 40.3578 73.8501 44.6737 69.6837 50.1861C61.6074 60.9332 44.3224 69.2872 39.4083 64.8431C34.0454 59.9931 34.836 33.4566 40.562 25.7436C44.8779 19.932 56.7787 19.9107 67.3335 25.6795C69.876 27.0682 71.2221 26.9828 72.0126 25.3376C72.91 23.436 71.6494 21.449 68.3163 19.5902C67.4617 19.1201 66.7993 18.6715 66.8421 18.586C66.8634 18.5219 68.4445 16.9835 70.3674 15.2102C75.3243 10.5951 76.0294 9.07817 74.0851 7.13387C72.5681 5.61689 71.1152 5.76645 66.607 7.94577C62.9535 9.71914 63.274 9.78324 63.9149 7.3048C65.2823 2.11289 62.5689 -0.963801 59.2358 1.96333Z" fill="black"/>
<path d="M55.7316 23.7576C54.001 24.8045 53.4668 28.5008 54.8129 29.9537C56.5862 31.8552 59.086 30.1032 59.5775 26.642C59.9407 24.249 57.6973 22.5611 55.7316 23.7576Z" fill="black"/>
<path d="M41.7586 25.185C40.8399 25.9755 40.0707 27.6634 40.0707 28.9454C40.0707 33.069 44.6857 32.3853 45.8181 28.1121C46.5446 25.3986 43.8311 23.4543 41.7586 25.185Z" fill="black"/>
<path d="M48.8742 30.4831C47.5068 31.6369 46.1821 35.7819 46.6949 37.3202C47.8273 40.7388 52.6774 36.5724 52.6774 32.1924C52.6774 30.2054 50.4126 29.1798 48.8742 30.4831Z" fill="black"/>
<path d="M64.0006 34.0343C61.5435 35.0385 60.582 39.6962 62.6545 40.5722C64.6629 41.4055 67.2054 38.9698 67.2054 36.235C67.2054 34.5684 65.4962 33.4147 64.0006 34.0343Z" fill="black"/>
<path d="M41.3104 41.0589C39.6652 42.3408 39.1952 47.2122 40.584 48.5156C42.7419 50.5453 45.8186 46.379 45.0708 42.4476C44.7717 40.8452 42.5923 40.0333 41.3104 41.0589Z" fill="black"/>
<path d="M65.7522 45.1186C63.402 47.0629 63.1242 50.9515 65.3036 51.4001C68.2307 51.977 71.2219 46.8706 68.9785 45.1186C68.2307 44.5417 66.4573 44.5417 65.7522 45.1186Z" fill="black"/>
<path d="M55.0908 47.3441C52.0355 50.1217 52.0569 53.7539 55.1336 53.7539C57.3556 53.7539 60.005 50.6345 59.5777 48.4979C59.1931 46.5536 56.6719 45.9126 55.0908 47.3441Z" fill="black"/>
<path d="M45.2836 54.9299C43.0615 56.2759 42.8051 60.72 44.9204 61.3396C47.8902 62.1943 50.6251 56.4468 47.9757 54.8871C47.1852 54.4171 46.0955 54.4384 45.2836 54.9299Z" fill="black"/>
<path d="M272.212 58.2381C271.741 58.5159 270.31 59.9901 269.007 61.4858C259.2 72.8951 248.025 82.0611 231.531 92.1672C229.266 93.556 229.352 96.3762 231.68 96.9745C234.159 97.5941 241.829 93.4491 251.807 86.0779C252.769 85.3515 252.769 85.3515 254.286 86.1634C256.059 87.0821 256.123 86.8471 251.209 97.3804C249.777 100.457 248.602 103.021 248.602 103.085C248.602 105.158 246.594 104.602 241.274 101.055C237.342 98.406 234.073 98.406 234.073 101.034C234.116 107.593 251.935 115.05 263.174 113.191C276.549 110.991 280.758 101.098 278.985 76.1C278.087 63.601 277.638 60.1824 276.784 58.9859C275.822 57.6399 273.771 57.298 272.212 58.2381ZM272.852 71.3141C273.28 77.4247 273.493 83.3644 273.258 83.3644C273.066 83.3644 266.571 82.3389 265.802 82.1893C265.417 82.1038 265.374 81.9329 265.374 80.2023C265.374 78.5357 265.289 78.1511 264.712 76.9974C264.071 75.6941 264.071 75.6941 266.507 73.2797C267.832 71.955 269.712 69.968 270.652 68.8784C271.592 67.7887 272.404 66.9341 272.468 66.9768C272.511 67.0409 272.682 68.9852 272.852 71.3141ZM259.285 81.4842C258.794 81.8902 257.576 82.0184 257.576 81.6765C257.576 80.9928 259.606 79.7963 259.67 80.4373C259.734 80.9287 259.627 81.2065 259.285 81.4842ZM268.366 88.4709C269.434 88.6845 270.994 89.005 271.87 89.1332C273.579 89.411 273.75 90.4793 272.938 95.7994C272.639 97.8078 272.831 97.9146 270.267 94.3251C269.113 92.7013 267.618 90.6288 266.934 89.7315C265.588 87.9581 265.503 87.7658 266.08 87.9367C266.272 88.0008 267.319 88.2358 268.366 88.4709ZM262.063 92.7013C264.392 96.5685 267.126 100.671 268.451 102.316C269.669 103.812 269.306 104.431 266.443 105.799C263.323 107.273 254.798 107.807 253.58 106.589C253.538 106.546 253.986 105.499 254.563 104.282C256.401 100.414 259.926 91.0989 259.926 90.0733C259.926 89.3682 260.396 89.9451 262.063 92.7013Z" fill="black"/>
<path d="M23.0209 70.971C17.8931 74.0904 12.9148 91.4395 15.3078 97.7852C15.8633 99.238 15.8847 99.1312 14.4532 101.481C5.37269 116.523 1.33454 140.581 4.41123 161.135C5.73591 170.002 7.57338 176.412 12.6371 189.915C16.1197 199.209 17.8717 204.422 18.8973 208.567C20.2433 213.93 20.3929 213.375 17.4658 213.396C4.00527 213.481 -4.39152 229.655 4.04801 239.249C12.0816 248.372 25.0079 240.744 26.8881 225.767C27.1445 223.716 27.1445 223.716 28.4479 225.062C31.7809 228.544 33.9603 231.749 41.6733 244.462C59.8984 274.545 79.8755 289.715 101.498 289.843C111.86 289.907 112.138 285.057 101.818 284.117C79.7046 282.087 64.8126 270.016 45.626 238.586C37.0583 224.57 32.251 218.631 27.465 216.152C26.9522 215.874 26.8668 215.661 26.4395 213.011C25.4994 207.285 23.7474 201.452 20.0511 191.581C14.0686 175.642 12.5516 170.835 11.1415 163.058C7.82977 144.705 10.4364 123.809 17.9572 108.682C20.4356 103.704 20.2006 103.939 22.0167 104.494C29.3879 106.78 36.9087 101.909 35.7977 95.5845C34.7508 89.5166 27.9778 88.0423 21.9954 92.5505C19.0469 94.7939 20.7989 84.7306 24.837 76.3124C26.2899 73.2785 26.4181 72.8725 26.1617 71.9752C25.7985 70.6718 24.3029 70.1804 23.0209 70.971ZM29.7725 96.781C29.9221 97.8706 27.9351 98.9603 25.7771 98.9603C24.367 98.9603 24.4097 98.7466 26.0335 97.6142C28.1487 96.1186 29.6443 95.7768 29.7725 96.781ZM19.5596 219.699C21.9099 220.19 20.4356 229.292 17.2949 233.587C14.1327 237.945 8.98353 237.24 7.50928 232.283C5.50089 225.51 12.5089 218.182 19.5596 219.699Z" fill="black"/>
<path d="M282.04 72.299C281.377 73.0895 281.377 73.4314 282.061 79.5207C283.343 90.9941 282.275 99.0491 278.664 105.352C275.138 111.484 279.625 113.749 283.599 107.83C288.236 100.865 289.176 90.0754 286.398 75.2902C285.715 71.6367 283.728 70.2906 282.04 72.299Z" fill="black"/>
<path d="M227.343 106.778C225.698 108.552 227.493 111.201 233.112 115.389C244.714 124.042 257.448 125.88 268.793 120.559C276.079 117.141 273.878 112.419 266.4 115.389C258.73 118.444 253.196 118.701 246.359 116.329C242.15 114.855 237.065 111.906 233.197 108.637C230.356 106.266 230.292 106.223 228.988 106.223C228.048 106.223 227.771 106.308 227.343 106.778Z" fill="black"/>
<path d="M273.365 130.414C272.275 131.567 272.232 131.909 272.211 139.131C272.211 148.083 271.976 149.151 268.045 158.382C266.25 162.569 266.25 162.569 264.477 163.168C253.794 166.8 250.76 176.137 253.388 197.353C254.563 206.711 254.67 207.929 254.67 213.164C254.712 235.149 239.051 252.648 219.288 252.691C214.801 252.691 215.014 252.819 216.296 250.746C222.941 240.042 221.467 230.15 213.156 229.551C202.323 228.782 196.426 244.123 204.118 253.118C205.656 254.913 205.784 254.592 202.28 257.968C194.631 265.361 183.97 272.775 173.928 277.689C169.505 279.868 168.907 280.423 169.249 282.197C169.804 285.145 172.39 284.889 179.803 281.171C190.316 275.915 199.332 269.527 207.259 261.728C211.105 257.925 211.105 257.925 212.066 258.224C225.89 262.519 246.273 253.097 255.439 238.162C262.126 227.287 263.237 217.394 260.246 196.156C258.131 181.179 258.665 176.008 262.767 171.671C264.177 170.176 264.199 170.197 264.199 172.633C264.199 181.991 272.745 189.234 280.629 186.563C291.932 182.739 288.534 165.988 275.8 162.826C274.433 162.505 274.454 162.719 275.651 160.155C280.287 150.198 281.334 142.699 279.134 134.858C278.001 130.734 275.159 128.555 273.365 130.414ZM273.642 168.723C279.24 170.176 282.979 175.731 280.65 179.149C278.514 182.269 273.279 180.773 271.655 176.585C270.865 174.534 271.228 168.402 272.147 168.402C272.275 168.402 272.937 168.552 273.642 168.723ZM213.711 236.688C214.844 238.418 213.519 243.204 210.656 247.819C209.545 249.614 209.502 249.635 208.776 248.674C205.763 244.721 206.789 238.696 210.827 236.688C212.301 235.961 213.22 235.961 213.711 236.688Z" fill="black"/>
<path d="M159.998 226.408C150.661 228.929 140.277 241.92 138.269 253.585C137.264 259.525 141.73 260.508 143.375 254.718C145.939 245.766 151.323 238.693 159.891 233.053C166.45 228.737 166.514 224.656 159.998 226.408Z" fill="black"/>
<path d="M148.823 260.189C148.524 260.253 146.558 261.151 144.443 262.219C139.23 264.826 137.649 264.932 134.999 262.839C132.051 260.531 129.337 264.356 132.115 266.941C136.068 270.637 140.405 270.829 147.114 267.625C151.558 265.509 152.37 265.552 153.844 268.052C156.558 272.71 155.318 281 151.302 284.952C140.939 295.165 122.5 286.491 122.436 271.385C122.436 267.603 122.97 266.684 125.406 266.364C128.611 265.937 128.696 261.685 125.534 261.044C116.838 259.313 112.993 270.851 118.569 281.918C129.594 303.84 161.301 298.926 161.45 275.252C161.514 265.039 156.323 258.843 148.823 260.189Z" fill="black"/>
</svg>
