<svg width="282" height="201" viewBox="0 0 282 201" fill="none" xmlns="http://www.w3.org/2000/svg">
<path d="M122.128 0.634861C109.885 3.64745 107.236 18.1763 116.701 30.3548C123.73 39.4139 142.981 52.0626 146.271 49.7978C148.365 48.3663 147.831 46.4006 144.84 44.6486C144.007 44.1572 142.126 42.9393 140.652 41.9351C139.178 40.9096 137.426 39.7344 136.763 39.2858C135.289 38.3029 135.332 38.5379 136.379 37.3842C149.455 23.24 139.071 -3.53149 122.128 0.634861ZM128.089 7.19419C136.849 10.2709 138.323 24.7142 130.781 33.5383C130.033 34.393 130.226 34.4784 127.833 32.3846C119.884 25.462 116.338 19.1377 117.363 13.6681C118.303 8.60434 123.388 5.52765 128.089 7.19419Z" fill="black"/>
<path d="M93.1987 26.0856C91.1262 28.0513 92.2159 29.8674 101.125 39.3324C112.984 51.8956 119.137 59.1814 121.722 63.6255C122.406 64.8219 105.121 58.0917 89.1819 50.9341C83.2636 48.2634 82.473 48.0925 81.2338 49.1394C77.9862 51.8529 80.7424 54.0535 95.784 60.8693C120.397 72.0009 128.538 73.5179 129.499 67.1936C130.247 62.3435 120.996 49.353 105.719 33.7987C97.0659 24.9959 95.4208 23.9704 93.1987 26.0856Z" fill="black"/>
<path d="M250.324 28.2998C245.944 31.3978 241.969 46.4608 245.815 45.3498C247.952 44.7302 253.699 33.8763 253.763 30.3723C253.785 28.3212 251.905 27.1674 250.324 28.2998Z" fill="black"/>
<path d="M182.38 35.6764C181.247 36.1678 181.119 37.7489 182.166 38.689C184.666 40.9538 188.96 42.3212 212.014 48.09C236.435 54.222 237.845 54.8629 236.927 59.5848C236.286 62.8538 234.235 67.6184 229.684 76.3998C228.594 78.515 225.881 83.7496 223.659 88.0228C221.436 92.3174 216.992 101.206 213.787 107.765C201.118 133.703 191.652 150.219 180.606 165.837C171.568 178.571 168.364 179.106 140.225 172.632C107.257 165.047 88.9252 157.334 85.1648 149.471C81.2549 141.267 87.6433 132.699 134.242 83.6642C166.227 49.9915 169.966 45.1628 164.924 44.0304C163.471 43.71 164.753 42.5135 149.733 58.2388C142.254 66.0587 135.311 73.3017 132.213 76.5066C103.796 105.821 88.9893 122.379 82.9641 131.524C72.1744 147.911 77.644 158.701 101.552 168.23C120.654 175.815 158.663 184.298 167.68 182.973C168.962 182.781 168.962 182.781 168.898 187.844C168.834 193.677 169.261 193.186 164.261 193.186C160.651 193.164 158.364 192.865 145.032 190.707C138.921 189.703 131.529 188.485 128.58 188.015C95.6768 182.652 84.652 176.221 81.789 160.731C81.0412 156.671 80.5071 155.966 78.4987 156.308C76.6612 156.607 76.1484 158.252 76.4262 162.953C77.3022 178.55 89.8012 187.267 119.713 193.143C124.435 194.062 152.361 198.89 156.57 199.51C169.24 201.369 176.589 198.826 183.448 190.216C188.298 184.148 203.275 161.415 215.796 141.138C226.18 124.302 228.786 120.157 233.337 113.042C243.892 96.6119 247.182 90.3517 248.977 83.4505C251.456 73.8359 249.084 63.7939 244.683 65.204C242.76 65.8237 242.461 67.6184 243.294 73.5154C244.448 81.8267 242.055 87.8946 230.496 106.098C225.346 114.217 220.71 121.738 215.433 130.455C197.421 160.304 185.456 178.379 178.192 186.648C175.243 190.024 175.35 190.002 175.179 187.225C175.094 185.964 174.923 184.02 174.816 182.909C174.667 181.541 174.645 180.879 174.795 180.815C177.06 180.067 182.102 174.832 186.332 168.871C197.998 152.377 206.331 137.592 219.065 110.799C223.894 100.65 228.338 91.7405 232.91 83.1087C241.371 67.0842 243.272 62.4906 243.294 58.0251C243.337 49.6924 239.854 48.1327 198.767 38.0694C188.747 35.6123 184.11 34.9286 182.38 35.6764Z" fill="black"/>
<path d="M278.227 39.9505C276.731 40.4419 260.92 48.6251 259.831 49.4797C256.092 52.4068 257.395 55.0989 262.053 54.0306C264.916 53.3683 279.338 45.5056 280.855 43.775C282.692 41.7025 280.898 39.0959 278.227 39.9505Z" fill="black"/>
<path d="M181.439 49.2859C179.837 50.3328 179.816 52.4694 181.375 53.4522C181.845 53.73 185.584 54.6701 192.507 56.2084C211.672 60.4603 216.052 61.7636 217.89 63.6865C219.407 65.2889 218.274 68.0665 210.839 80.7792C199.451 100.286 191.546 114.58 182.85 131.416C176.248 144.215 172.979 150.347 166.718 161.713C164.283 166.157 164.048 168.572 166.013 168.935C168.855 169.469 172.808 163.465 185.99 138.574C193.426 124.558 195.776 120.178 198.618 114.965C203.083 106.781 209.621 95.073 213.04 89.1119C214.621 86.3557 217.035 82.168 218.381 79.8177C229.684 60.1398 227.44 57.0417 197.592 51.2088C187.507 49.2432 182.422 48.6449 181.439 49.2859Z" fill="black"/>
<path d="M168.321 56.294C167.232 56.7854 166.356 57.811 149.071 78.5573C126.145 106.098 120.269 113.491 107.386 130.989C93.1988 150.283 93.7116 151.394 122.171 162.312C122.876 162.568 124.799 163.294 126.444 163.914C128.089 164.534 130.055 165.26 130.824 165.559C141.293 169.512 150.737 171.349 152.34 169.768C154.476 167.61 152.66 166.392 142.319 162.953C127.491 158.038 108.39 150.518 105.655 148.531C103.262 146.757 103.497 146.351 117.641 127.464C126.273 115.969 132.597 107.935 145.78 91.7828C156.42 78.7282 169.945 61.721 171.056 60.0117C172.509 57.7255 170.672 55.2471 168.321 56.294Z" fill="black"/>
<path d="M71.213 62.3429C63.094 67.1289 58.0303 81.0381 62.9231 85.1617C65.7006 87.4906 68.0295 87.3837 76.64 84.5207C86.6178 81.1876 92.1302 80.7603 97.7067 82.9396C105.142 85.824 104.202 90.9091 95.3351 95.6523C86.4683 100.417 90.2714 105.246 99.3946 100.802C112.385 94.4772 111.958 81.1235 98.6255 76.6153C92.1516 74.436 85.4641 74.8847 75.1657 78.2178C68.0509 80.5253 67.9013 80.5467 68.0722 79.0083C68.4141 75.5898 71.4267 69.4791 74.2043 66.5734C75.5717 65.1205 75.9563 63.2403 75.0162 62.5352C73.7556 61.5737 72.6018 61.5096 71.213 62.3429Z" fill="black"/>
<path d="M261.476 65.7146C259.083 66.5906 259.233 69.6032 261.711 70.3938C263.079 70.8211 270.664 72.0176 272.01 72.0176C276.24 72.0176 277.009 69.4109 273.313 67.5307C271.005 66.3343 263.079 65.1164 261.476 65.7146Z" fill="black"/>
<path d="M183.491 71.9763C181.888 73.3224 182.358 79.1339 184.559 85.2659C186.802 91.5261 191.076 89.7314 189.815 83.0866C187.956 73.3865 185.948 69.8824 183.491 71.9763Z" fill="black"/>
<path d="M172.509 76.2515C170.436 77.2984 170.607 79.4991 173.256 85.7806C175.414 90.9298 178.683 93.3014 179.752 90.5025C180.905 87.4472 177.102 77.1061 174.496 76.2087C173.256 75.7814 173.385 75.7814 172.509 76.2515Z" fill="black"/>
<path d="M8.67481 78.6886C6.32456 79.2013 5.93997 82.1071 8.0552 83.4959C9.35851 84.3505 18.2467 86.9785 19.8278 86.9785C23.9514 86.9785 24.4428 83.9018 20.6397 81.9148C19.2723 81.1884 15.811 80.0346 12.6702 79.2013C9.8713 78.4963 9.70037 78.4535 8.67481 78.6886Z" fill="black"/>
<path d="M38.7794 79.5207C28.9938 81.4436 29.528 95.9083 39.9118 108.877C47.4326 118.3 68.4353 132.551 74.0117 132.017C77.9003 131.632 77.3021 128.256 72.9221 125.863C68.9267 123.663 65.0167 121.291 65.1876 121.141C67.0678 119.261 75.6142 117.082 83.3914 116.462C88.0064 116.099 90.2498 115.009 90.2285 113.172C90.1644 108.001 75.7638 109.177 63.7134 115.351C63.6493 115.373 63.6493 114.24 63.692 112.83C64.333 95.246 50.787 77.1491 38.7794 79.5207ZM42.4757 85.5886C48.8641 87.2551 55.2098 95.4383 57.4746 104.925C58.0301 107.296 58.4787 115.843 58.0514 116.249C57.6027 116.697 49.3769 109.518 46.2788 105.972C37.1556 95.5237 34.9335 83.6443 42.4757 85.5886Z" fill="black"/>
<path d="M157.703 92.0806C146.144 96.6102 144.541 126.544 155.908 125.369C161.698 124.77 175.265 113.382 178.62 106.289C181.867 99.4518 174.154 93.2985 166.292 96.4606C166.057 96.5461 165.843 96.2683 165.48 95.4564C164.134 92.3584 160.758 90.8841 157.703 92.0806Z" fill="black"/>
<path d="M14.5936 100.327C11.3887 101.139 2.82095 104.814 1.45354 105.947C-0.512126 107.57 -0.0207104 110.562 2.30817 110.989C3.37647 111.203 11.7946 108.254 16.6233 105.968C22.3494 103.276 20.7256 98.7464 14.5936 100.327Z" fill="black"/>
<path d="M31.0663 112.765C29.6348 113.043 27.5837 116.334 24.6565 123.021C23.1823 126.397 24.2079 128.811 26.8786 128.298C29.1434 127.892 33.6943 119.346 33.7157 115.543C33.7157 113 33.1174 112.381 31.0663 112.765Z" fill="black"/>
<path d="M137.746 128.208C135.375 129.148 135.738 131.947 139.584 142.544C142.725 151.219 145.951 154.766 147.083 150.813C147.852 148.078 142.831 130.921 140.695 128.998C139.883 128.251 138.515 127.887 137.746 128.208Z" fill="black"/>
<path d="M123.239 134.282C121.102 135.2 121.358 137.465 124.456 145.307C128.537 155.605 133.473 153.789 129.691 143.384C126.486 134.559 125.589 133.278 123.239 134.282Z" fill="black"/>
</svg>
