<svg width="190" height="189" viewBox="0 0 190 189" fill="none" xmlns="http://www.w3.org/2000/svg">
<path d="M53.6222 0.911108C47.3192 3.38955 45.6313 12.1496 50.3104 18.0893C50.6523 18.538 50.866 18.9866 50.7591 19.0721C50.6523 19.1576 49.9045 19.6917 49.0712 20.2686C44.8194 23.2171 40.5676 26.8707 36.3158 31.2293C34.0083 33.6009 33.1536 34.3487 33.0682 34.0923C33.0254 33.9 32.8545 33.195 32.7263 32.554C31.1239 25.2041 24.0731 23.5162 21.1246 29.7764C19.0949 34.071 21.5733 40.8012 25.8465 42.5746C26.7439 42.9378 26.808 42.7669 24.7141 46.0359C23.7099 47.6169 21.9152 50.8432 20.7187 53.2148C18.5394 57.5093 18.5394 57.5093 17.4711 56.5479C13.5611 53.0439 7.72823 53.8985 5.8053 58.2572C3.77554 62.8295 6.91633 66.9744 13.0483 67.8291C13.9457 67.9573 14.6935 68.0855 14.7149 68.1068C14.7362 68.1282 14.5226 69.0042 14.2235 70.0511C13.0911 74.1534 11.5741 82.6143 11.5741 84.8363C11.5741 85.7337 11.5741 85.7337 10.5699 85.285C6.55311 83.4903 1.44666 85.3277 0.656124 88.8531C-0.283975 93.0622 3.39096 96.032 9.20248 95.7543C11.104 95.6688 11.104 95.6688 11.2536 98.0191C11.5314 102.677 12.7278 111.159 13.497 113.723C13.7534 114.642 13.7534 114.642 12.7706 114.364C8.83926 113.274 4.35242 115.005 3.02774 118.082C0.186075 124.684 7.8137 129.363 15.6122 125.795C17.001 125.175 16.8301 124.983 18.1762 128.252C21.3169 135.751 27.5344 146.007 31.4657 150.173C32.2563 151.028 32.2563 151.049 31.188 151.519C25.7397 153.934 28.0258 163.142 34.3288 164.168C36.6576 164.552 39.6061 163.612 41.3795 161.946C42.17 161.198 42.17 161.198 44.6485 163.185C49.5199 167.052 54.0708 170.001 59.455 172.8C62.7668 174.53 62.7668 174.53 61.9549 175.599C58.6004 179.979 61.5703 185.619 66.9117 185C69.6679 184.679 72.3173 182.713 73.4283 180.15C74.0266 178.761 74.0266 178.761 75.0094 179.06C80.3936 180.705 90.7988 182.543 94.8583 182.543C95.9907 182.543 95.9907 182.543 95.6275 183.248C94.3028 185.79 95.2856 188.098 97.7213 188.098C99.8152 188.098 101.631 186.388 102.187 183.91C102.422 182.906 102.507 182.756 102.956 182.756C136.671 182.756 170.494 159.254 183.377 126.884C203.653 75.884 174.425 19.1148 121.395 6.50897C101.631 1.80848 77.3169 4.47921 61.1216 13.1324C60.8652 13.2606 60.972 12.8119 61.5275 11.3377C64.0701 4.60741 59.5191 -1.39641 53.6222 0.911108ZM104.516 8.41053C156.328 11.124 193.633 58.4281 184.082 109.258C176.925 147.332 144.342 175.94 105.328 178.398C103.063 178.547 103.063 178.547 103.276 177.607C104.323 173.056 99.9861 168.804 98.2555 172.693C97.8282 173.676 97.8068 177.051 98.2341 178.141C98.6401 179.188 86.3333 177.607 79.1544 175.705C74.5607 174.488 73.2788 173.996 73.4283 173.612C75.5863 168.185 73.9625 159.766 70.4585 158.1C66.0571 156.006 63.0018 162.224 65.0102 169.167C65.5657 171.026 65.6512 171.026 62.9163 169.638C56.5493 166.454 50.7378 162.587 44.8835 157.694C44.1143 157.032 44.1143 157.032 44.6912 155.75C47.7465 148.913 44.4989 140.452 39.6061 142.481C37.8328 143.229 36.8286 144.917 36.6149 147.588C36.4653 149.319 36.4653 149.319 34.7774 147.246C29.1796 140.388 22.7912 129.341 20.8896 123.209C20.7614 122.804 20.9751 122.633 23.0048 121.65C28.4531 118.979 31.5939 115.582 31.829 112.142C32.2776 105.048 23.8808 104.856 19.2872 111.864C18.5821 112.911 17.9625 113.68 17.8984 113.573C17.3642 112.697 15.9968 103.916 15.6336 99.0019C15.2277 93.4254 15.0995 93.7459 17.5138 93.5963C24.3723 93.1904 29.3932 89.6223 29.4146 85.1141C29.436 79.6658 22.5989 78.2984 17.2147 82.6784C15.8045 83.8321 15.8259 83.939 16.5951 79.4094C18.2616 69.5597 19.4795 66.3762 21.2528 67.1667C27.8549 70.0939 35.1193 68.235 35.4612 63.5345C35.803 58.9622 30.0342 56.206 24.2868 58.1503C23.5817 58.3853 22.9835 58.5563 22.9621 58.5349C22.5989 58.1931 30.0129 45.1599 30.547 45.1599C30.6325 45.1599 31.1239 45.5017 31.658 45.929C37.0209 50.2022 44.4348 49.9031 46.6996 45.3308C49.0926 40.5448 44.1143 36.6349 37.1277 37.7673C36.0808 37.9382 36.0808 37.9382 36.5508 37.3399C39.1147 34.071 45.9304 27.8962 50.8873 24.3281C53.2803 22.5761 53.1948 22.5975 54.199 23.794C58.8354 29.3064 68.5783 31.8703 74.1975 29.0286C80.0945 26.016 78.4707 19.8627 71.1635 17.6406C69.8816 17.2346 68.5355 16.9996 65.3093 16.615C64.0273 16.4655 64.1983 16.3373 68.386 14.628C77.4665 10.889 87.4657 8.73102 97.5718 8.34644C98.4051 8.30371 99.4093 8.26097 99.8152 8.23961C100.221 8.21824 102.336 8.30371 104.516 8.41053Z" fill="black"/>
</svg>
