<svg width="554" height="381" viewBox="0 0 554 381" fill="none" xmlns="http://www.w3.org/2000/svg">
<path d="M237.597 0.495307C235.952 0.965357 234.393 1.92682 232.769 3.5079C231.252 5.00351 231.252 5.00351 230.055 4.10614C220.633 -2.90187 210.933 7.16146 216.467 18.1863C221.701 28.6555 231.85 31.7536 238.687 24.9806C248.879 14.8745 248.109 -2.38909 237.597 0.495307Z" fill="black"/>
<path d="M254.285 34.9413C216.937 38.3385 184.546 65.1954 193.712 85.1939C200.72 100.492 227.278 93.7189 229.18 76.1561C230.056 68.1439 222.642 65.9005 220.313 73.4854C217.023 84.1256 202.451 87.4586 202.472 77.5449C202.537 60.1103 238.709 39.9409 263.963 43.2526C295.222 47.3549 270.907 87.3946 221.274 113.589C216.617 116.046 215.548 117.221 215.912 119.465C216.446 122.776 218.347 123.417 225.12 122.541C256.443 118.567 285.415 127.114 309.986 147.582C315.947 152.539 315.947 152.304 310.263 152.325C307.507 152.347 305.093 152.39 304.922 152.411C304.751 152.454 299.26 152.539 292.743 152.625C286.227 152.689 279.838 152.796 278.535 152.86C277.253 152.924 273.984 153.009 271.271 153.073C246.272 153.693 240.739 154.569 241.487 157.838C241.914 159.804 242.298 159.868 252.041 159.611C263.557 159.312 271.014 159.184 284.838 159.056C321.587 158.714 325.433 158.671 339.107 158.308C351.136 157.966 359.875 157.603 383.228 156.385C409.401 155.039 415.554 154.889 436.643 155.06C475.187 155.402 476.426 155.359 477.815 153.864C479.46 152.112 478.584 150.638 475.251 149.462C471.127 148.01 427.028 147.689 400.534 148.907C395.599 149.142 368.977 150.488 365.174 150.723C359.298 151.044 341.009 151.727 330.134 152.026C324.899 152.155 324.899 152.155 322.613 149.612C302.7 127.434 269.925 113.226 238.623 113.226C236.273 113.226 236.273 113.226 240.354 110.47C275.01 87.0313 291.525 62.546 283.492 46.5002C279.496 38.488 267.51 33.7448 254.285 34.9413Z" fill="black"/>
<path d="M330.603 64.8957C327.826 67.481 322.655 105.405 322.655 123.16C322.655 133.01 323.681 136.429 327.014 137.689C331.308 139.334 334.107 135.211 346.692 108.845C355.024 91.368 358.016 85.8343 361.285 81.732C362.203 80.5996 362.502 80.3432 362.631 80.5996C362.866 81.0056 362.502 85.7061 361.99 88.975C359.191 106.516 359.169 106.602 359.041 113.759C358.806 125.361 360.473 130.019 364.831 129.976C368.699 129.955 370.023 127.711 376.796 109.572C384.125 89.8724 391.795 73.7625 392.586 76.3905C393.034 77.9075 392.436 83.719 390.834 93.4619C388.377 108.439 388.227 116.9 390.321 123.566C393.675 134.313 402.179 135.446 408.482 126.002C412.776 119.55 415.169 109.144 412.52 108.439C410.426 107.884 409.187 109.273 407.52 114.08C404.23 123.588 400.427 128.545 398.248 126.216C394.658 122.37 394.231 113.161 396.795 94.7652C399.23 77.2238 398.867 71.4123 395.235 69.4894C388.975 66.1776 381.304 78.6767 369.831 110.875C368.036 115.875 366.284 120.447 365.75 121.473C364.532 123.801 365.152 109.743 366.776 98.6965C369.532 79.745 369.446 76.4119 366.071 74.0617C360.003 69.8739 353.529 78.228 338.744 109.337C335.645 115.875 330.988 125.233 330.56 125.831C329.578 127.156 331.565 100.021 334.321 74.4462C335.047 67.7374 334.983 65.7717 334.022 64.9171C333.039 64.0411 331.522 64.0411 330.603 64.8957Z" fill="black"/>
<path d="M114.476 90.5547C110.461 93.3235 105.818 107.242 100.247 133.11C99.2487 137.771 98.3416 141.79 98.2613 142.006C97.7782 143.236 97.3225 135.895 96.9565 120.793C96.5575 104.325 96.5539 104.176 95.3046 101.128C93.985 97.8262 90.341 96.504 87.3697 98.243C81.8277 101.498 77.1905 112.104 70.2206 137.577C67.2556 148.399 65.0779 155.548 64.7575 155.555C64.4585 155.563 63.2006 147.75 62.3926 140.866C61.4468 132.703 59.4205 108.174 58.8454 97.6732C58.661 94.4719 57.5218 93.324 55.2086 93.9998C52.3864 94.8376 51.7422 100.004 52.0043 119.639C52.446 152.862 56.1638 167.818 63.896 167.63C68.7019 167.514 70.6176 163.663 76.8336 141.478C82.7942 120.218 86.353 110.086 89.4706 105.565C90.7092 103.762 91.1259 107.727 91.0795 120.808C90.9614 143.273 93.0572 153.032 97.9272 152.914C101.024 152.839 101.551 151.65 105.143 136.71C109.24 119.684 111.975 109.957 114.742 102.431C116.126 98.7003 116.079 98.5304 116.544 108.885C117.58 132.219 119.503 141.897 124.188 147.404C131.799 156.325 141.572 146.876 142.482 129.735C142.965 120.555 136.652 119.34 135.933 128.483C135.134 138.719 132.024 146.189 129.572 143.769C126.091 140.391 124.122 131.441 123.088 114.326C121.951 95.6311 121.262 91.8863 118.683 90.4528C117.427 89.7565 115.569 89.8016 114.476 90.5547Z" fill="black"/>
<path d="M433.736 101.32C429.847 102.431 425.574 107.773 423.181 114.567C422.391 116.81 422.348 116.789 421.942 113.691C420.981 106.683 420.682 105.957 418.588 105.957C416.002 105.957 415.554 108.563 416.472 118.456C417.519 129.63 418.844 133.348 421.793 133.348C423.972 133.348 424.399 132.771 425.831 127.622C428.544 117.857 431.065 112.089 434.078 108.756C435.296 107.431 435.296 107.431 435.68 111.234C436.3 117.622 441.599 117.921 442.368 111.619C443.18 105.059 438.843 99.8673 433.736 101.32Z" fill="black"/>
<path d="M453.222 105.635C444.954 107.964 444.868 114.181 453.008 120.826C456.747 123.86 458.094 125.612 458.457 127.898C459.098 131.937 453.115 132.321 449.846 128.433C446.919 124.993 444.847 124.394 443.372 126.638C439.911 131.894 449.868 139.885 457.709 138.133C469.311 135.547 469.076 123.198 457.303 114.502C454.675 112.579 454.654 112.472 456.555 112.237C458.115 112.045 459.44 112.28 460.401 112.942C463.798 115.25 466.661 112.259 464.332 108.861C462.474 106.169 457.025 104.567 453.222 105.635Z" fill="black"/>
<path d="M184.095 112.636C176.213 116.053 176.963 122.226 185.921 127.719C190.033 130.224 191.602 131.779 192.268 133.996C193.445 137.912 187.568 139.095 183.807 135.68C180.445 132.664 178.311 132.349 177.151 134.77C174.426 140.443 185.364 147.026 192.9 144.238C204.05 140.12 202.161 127.914 189.328 120.876C186.466 119.322 186.431 119.219 188.283 118.732C189.803 118.332 191.147 118.387 192.189 118.914C195.865 120.745 198.301 117.397 195.538 114.343C193.334 111.925 187.72 111.067 184.095 112.636Z" fill="black"/>
<path d="M162.27 112.865C158.388 114.049 154.487 120.662 153.032 128.52C152.692 130.344 152.563 130.348 152.091 128.478C150.222 121.022 149.661 119.945 147.824 119.99C144.877 120.061 144.898 121.813 147.999 136.015C150.716 148.494 151.46 150.058 154.478 149.386C156.562 148.93 156.983 147.808 157.435 141.77C158.071 132.715 160.537 123.358 163.168 119.939C163.832 119.089 163.876 119.152 164.763 122.251C166.094 126.899 167.798 128.44 170.377 127.266C176.487 124.489 168.804 110.869 162.27 112.865Z" fill="black"/>
<path d="M469.909 131.942C468.435 133.181 468.242 134.955 469.375 136.493C470.892 138.48 474.011 138.053 475.037 135.724C476.425 132.562 472.537 129.699 469.909 131.942Z" fill="black"/>
<path d="M529.99 136.684C526.379 138.457 513.346 145.658 510.782 147.303C510.205 147.688 507.641 149.226 505.12 150.721C490.933 159.14 487.621 161.725 487.6 164.353C487.578 167.13 491.723 166.66 496.68 163.306C498.219 162.259 514.713 152.11 514.863 152.11C515.354 152.11 534.284 140.402 534.904 139.718C535.78 138.735 535.929 137.752 535.31 136.77C534.37 135.253 533.002 135.231 529.99 136.684Z" fill="black"/>
<path d="M209.917 136.007C208.877 136.289 208.165 136.904 207.657 137.985C205.785 141.878 211.032 144.956 213.815 141.619C216.12 138.849 213.484 135.023 209.917 136.007Z" fill="black"/>
<path d="M219.137 152.471C218.304 152.578 212.107 153.539 203.54 154.864C186.554 157.513 159.505 161.124 119.358 166.102C72.3745 171.957 59.961 174.136 58.7004 176.764C57.0338 180.289 58.9354 180.994 66.7126 179.67C76.605 178.003 88.0144 176.508 108.248 174.221C169.483 167.32 218.239 160.633 222.79 158.475C224.842 157.535 225.675 155.441 224.671 153.796C223.987 152.62 221.829 152.108 219.137 152.471Z" fill="black"/>
<path d="M520.503 180.097C507.043 180.225 506.786 180.246 505.205 181.721C501.359 185.374 511.658 187.361 526.806 185.908C536.015 185.032 537.596 184.541 537.596 182.597C537.596 180.866 536.1 179.84 533.75 179.926C533.109 179.969 527.148 180.033 520.503 180.097Z" fill="black"/>
<path d="M11.3539 180.698C8.93955 181.382 9.49507 183.754 12.5931 185.912C15.4561 187.899 36.5443 195.569 45.6248 197.919C47.8468 198.496 49.3852 197.641 49.3852 195.825C49.3852 193.988 48.381 193.497 27.3783 185.356C15.1784 180.613 13.4691 180.121 11.3539 180.698Z" fill="black"/>
<path d="M516.486 205.1C514.756 205.826 514.499 207.835 515.974 209.202C517.021 210.185 541.997 223.987 546.42 226.038C552.915 229.03 556.077 226.444 551.227 222.107C549.518 220.547 541.784 216.253 531.186 210.975C520.525 205.655 517.79 204.544 516.486 205.1Z" fill="black"/>
<path d="M35.6043 210.099C11.8668 219.137 0.884766 224.799 0.884766 227.961C0.884766 230.845 3.79053 230.333 13.747 225.76C17.422 224.051 24.0881 221.06 28.5536 219.094C42.0355 213.176 42.1209 213.112 42.1209 211.21C42.1209 208.71 40.1553 208.368 35.6043 210.099Z" fill="black"/>
<path d="M421.579 209.797C415.81 210.032 414.037 210.63 413.952 212.36C413.845 214.006 415.255 214.775 419.101 215.159C423.246 215.565 504.864 215.309 505.804 214.882C507.107 214.283 507.556 212.959 506.915 211.613C506.316 210.352 505.74 210.224 500.056 210.096C497.257 210.053 493.625 209.967 491.98 209.903C486.916 209.711 425.553 209.626 421.579 209.797Z" fill="black"/>
<path d="M372.202 211.588C372.159 211.631 368.805 211.716 364.745 211.802C339.17 212.272 311.779 214.088 273.406 217.784C259.39 219.152 257.36 219.323 249.797 219.942C243.003 220.498 240.567 221.652 241.443 223.938C242.468 226.63 248.835 226.608 279.389 223.788C302.4 221.652 331.051 219.387 331.351 219.686C331.756 220.092 328.787 232.698 326.8 239.065C312.848 283.484 283.299 314.572 241.785 328.502C202.45 341.685 167.196 327.477 164.312 297.265C162.603 279.297 176.661 259.362 190.25 260.495C196.233 261.007 194.267 269.319 187.558 271.883C182.794 273.677 184.695 278.271 189.78 277.224C197.664 275.6 204.223 266.52 202.471 259.683C199.053 246.286 178.777 247.568 166.235 261.948C150.552 279.938 150.146 305.406 165.231 322.926C199.48 362.666 282.7 338.16 318.681 277.758C329.299 259.939 339.085 232.206 339.106 219.921C339.106 219.237 339.106 219.237 340.666 219.109C348.4 218.447 382.351 217.272 396.687 217.186C405.939 217.122 406.238 217.079 407.007 216.096C408.61 214.067 406.58 212.55 401.772 212.144C396.452 211.695 372.587 211.246 372.202 211.588Z" fill="black"/>
<path d="M227.363 222.207C214.052 223.04 173.542 226.929 168.649 227.847C168.329 227.911 165.38 228.296 162.09 228.702C128.888 232.911 109.701 236.244 69.6827 244.748C57.9101 247.248 55.7735 248.081 55.7948 250.153C55.8376 253.038 61.5209 252.974 75.6651 249.961C116.324 241.308 141.707 237.334 199.224 230.625C237.448 226.159 233.837 226.651 234.798 225.775C235.439 225.155 235.461 223.553 234.82 222.848C233.944 221.908 233.239 221.843 227.363 222.207Z" fill="black"/>
<path d="M38.9374 238.237C37.7409 238.707 22.0583 254.796 20.5627 257.06C17.5929 261.59 20.0927 263.663 24.5368 260.351C27.5921 258.065 40.0698 244.732 41.8859 241.784C43.1892 239.669 41.2449 237.318 38.9374 238.237Z" fill="black"/>
<path d="M224.564 350.769C222.812 351.24 221.06 352.286 219.65 353.718C218.561 354.829 218.561 354.829 217.279 354.017C207.728 347.842 199.139 358.162 204.374 369.507C209.608 380.81 219.543 384.015 226.445 376.601C237.341 364.892 236.102 347.65 224.564 350.769Z" fill="black"/>
</svg>
