<svg width="381" height="253" viewBox="0 0 381 253" fill="none" xmlns="http://www.w3.org/2000/svg">
<path d="M243.597 1.1186C240.841 2.59285 239.709 4.9431 238.662 11.3101C238.341 13.2972 237.999 14.8996 237.892 14.8996C237.786 14.8996 236.974 14.5364 236.055 14.0663C222.701 7.35744 213.578 15.9465 218.407 30.7104C221.142 39.0644 229.154 48.1663 233.427 47.7603C236.589 47.4612 235.713 44.6836 230.607 38.9149C222.103 29.3429 220.821 16.8012 228.47 18.0618C229.709 18.2754 230.628 18.6173 235.329 20.6043C240.99 23.0186 243.148 21.0957 244.879 11.9725C245.883 6.6951 246.14 6.60964 248.939 10.8614C252.101 15.6474 258.361 31.4368 259.429 37.3124C260.348 42.2052 266.117 40.7951 265.476 35.8168C263.04 16.3952 250.947 -2.79136 243.597 1.1186Z" fill="black"/>
<path d="M302.011 7.3196C299.917 8.40926 298.678 10.3536 293.679 20.4383C289.705 28.4505 289.705 28.4505 289.106 26.848C285.581 17.3616 281.949 13.6225 277.804 15.2036C272.932 17.0624 270.027 29.7965 268.809 54.7519C267.783 75.3913 268.21 80.3482 271.052 80.5191C271.992 80.5619 272.099 80.5191 272.633 79.579C274.043 77.1647 274.428 74.1735 274.791 62.8709C274.855 60.8625 274.941 58.4695 275.005 57.5294C275.069 56.5893 275.154 54.9014 275.218 53.7904C276.18 35.7576 277.676 24.1346 279.363 21.5706C279.748 20.9724 281.222 23.75 283.231 28.835C285.731 35.0953 286.692 36.2704 289.32 36.2704C291.82 36.2704 292.781 34.9884 298.037 24.7328C302.161 16.6565 302.097 16.742 301.926 18.8572C301.734 21.4211 301.05 25.9079 299.896 32.2109C297.866 43.1929 297.845 44.9022 299.64 46.8251C302.567 49.9232 305.43 48.3635 317.01 37.3173C322.309 32.2536 325.557 29.2196 326.967 28.0659C327.65 27.489 327.65 27.489 327.009 29.9033C324.467 39.518 320.001 50.3291 308.977 73.5539C302.631 86.9075 302.716 86.6298 304.34 88.2536C307.31 91.2234 309.254 88.745 318.078 70.7763C332.543 41.3127 337.778 24.6901 333.911 20.4169C330.513 16.6565 327.458 18.323 313.998 31.3562C307.801 37.3387 305.43 39.5394 305.302 39.3898C305.259 39.3471 305.644 37.1036 306.178 34.4115C309.254 18.9213 309.489 10.9518 306.947 8.1956C305.579 6.72135 303.763 6.40086 302.011 7.3196Z" fill="black"/>
<path d="M170.825 40.7517C164.393 41.8841 166.359 47.4606 176.081 55.5583C177.491 56.7121 178.773 57.8017 178.922 57.9513C179.093 58.1008 176.807 57.6094 173.859 56.8616C164.821 54.5755 162.577 54.5968 161.338 56.9898C159.949 59.6819 162.3 62.5236 169.564 66.8822C170.953 67.7155 170.953 67.7155 169.35 67.5873C159.287 66.7968 156.445 67.4164 155.975 70.5572C155.463 74.0612 156.339 74.7021 175.44 84.6159C181.785 87.9063 191.507 93.0127 197.019 95.9826C213.257 104.7 213.706 104.914 214.881 104.315C219.731 101.794 212.552 96.7304 177.576 78.0566C173.474 75.8559 170.077 74.0398 170.034 73.9971C170.013 73.9543 170.376 73.9543 170.889 73.9971C176.679 74.5099 179.435 74.7876 182.533 75.1722C187.554 75.7704 188.986 75.2363 189.349 72.5869C189.605 70.5999 188.964 70.0444 182.789 66.9036C176.017 63.4423 176.038 63.4637 180.247 64.5961C192.831 67.9719 193.793 68.0787 195.096 66.0917C196.613 63.8055 195.673 62.4381 189.52 57.9727C182.533 52.8876 175.717 47.3752 176.209 47.2042C176.444 47.1188 177.854 47.3965 188.793 49.7254C213.343 54.9601 225.436 56.8189 239.067 57.4599C255.006 58.1863 267.121 55.3874 265.433 51.392C264.706 49.7041 263.275 49.3836 259.814 50.1314C245.007 53.3149 226.974 51.627 187.939 43.4225C175.162 40.7304 172.918 40.3885 170.825 40.7517Z" fill="black"/>
<path d="M335.534 64.4875C328.655 65.3421 320.749 69.658 321.113 72.3928C321.39 74.5294 322.651 74.7858 326.069 73.4398C335.364 69.8076 343.525 70.1708 350.768 74.5294C360.704 80.4905 363.118 88.6736 356.922 95.3184C351.452 101.173 344.871 102.476 326.817 101.344C307.203 100.083 299.554 101.835 286.115 110.659C264.429 124.91 250.584 123.5 227.209 104.719C222.68 101.044 220.992 100.425 219.368 101.835C214.646 105.937 236.589 122.282 251.823 125.978C264.578 129.098 275.261 126.299 290.388 115.851C301.605 108.117 307.524 106.899 328.441 107.946C336.197 108.33 341.731 108.288 344.829 107.817C346.452 107.582 346.495 107.582 347.286 108.117C351.815 111.193 358.631 114.355 361.259 114.612C366.729 115.146 368.075 108.01 364.314 98.4592C363.78 97.0918 363.78 97.0918 364.229 96.3654C373.288 81.7084 355.576 62.009 335.534 64.4875ZM358.973 104.954C359.251 106.194 359.4 107.198 359.315 107.177C359.251 107.177 358.14 106.664 356.858 106.065C354.55 104.954 354.55 104.954 356.43 103.758C358.695 102.348 358.375 102.198 358.973 104.954Z" fill="black"/>
<path d="M340.406 84.5702C336.966 86.8563 336.88 90.5526 340.277 90.5953C342.82 90.6381 345.683 86.7922 344.422 85.0189C343.546 83.7583 341.901 83.5873 340.406 84.5702Z" fill="black"/>
<path d="M369.292 113.482C368.096 114.379 368.288 116.559 369.763 118.845C375.724 127.947 375.104 143.95 368.117 162.111C351.196 206.082 330.428 220.418 274.471 226.743C247.528 229.777 240.221 231.379 217.637 239.242C196.058 246.741 180.781 248.386 160.377 245.416C151.937 244.199 137.109 240.182 137.964 239.37C138.156 239.178 143.626 238.793 148.668 238.601C173.111 237.639 179.435 236.464 193.173 230.268C208.023 223.602 215.672 221.871 238.255 220.119C256.993 218.666 265.817 216.743 276.201 211.851C279.235 210.398 281.03 209.415 293.935 202.065C299.64 198.796 304.554 196.061 304.832 195.976C322.629 190.57 339.508 177.195 353.866 157.154C366.365 139.677 372.476 119.806 365.596 119.016C363.695 118.802 362.669 120.127 361.857 123.866C357.734 142.988 338.761 168.692 320.023 180.55C302.738 191.489 269.749 198.796 243.917 197.386C230.393 196.638 221.718 195.1 193.494 188.391C158.71 180.122 149.288 178.392 131.96 177.046C130.251 176.917 122.944 176.768 115.722 176.704C95.4245 176.533 86.4722 176.939 54.5088 179.503C27.716 181.661 13.1658 179.994 8.0594 174.161C4.89724 170.572 15.922 164.91 36.7751 159.44C45.3215 157.175 47.5222 155.616 55.8763 145.873C77.8404 120.255 84.5706 119.614 166.466 135.297C209.027 143.437 228.064 146.022 258.446 147.796C304.404 150.488 330.642 142.946 353.076 120.64C357.691 116.046 354.956 112.286 349.85 116.196C319.809 139.228 305.003 143.416 260.796 141.365C234.004 140.147 215.33 137.54 173.517 129.207C86.0022 111.773 75.3406 112.841 50.7271 141.6C43.2063 150.381 42.6508 150.744 32.7156 153.223C8.78584 159.184 -2.55945 167.495 1.4787 176.084C3.82895 181.127 11.948 184.972 23.2078 186.361C31.8183 187.408 39.6595 187.237 61.0254 185.507C85.4039 183.541 104.932 182.793 120.38 183.242C143.199 183.925 152.706 185.507 191.144 195.121C234.709 205.996 249.238 207.257 277.569 202.621C279.321 202.321 280.795 202.108 280.816 202.151C280.859 202.193 279.513 202.941 277.846 203.838C265.647 210.312 257.25 212.385 236.439 214.03C222.466 215.141 214.539 216.359 206.634 218.624C201.228 220.183 197.981 221.444 187.832 225.995C178.11 230.354 171.038 231.657 154.394 232.191C133.157 232.875 128.926 233.836 128.926 238.067C128.926 246.228 165.804 254.711 189.755 252.104C201.314 250.843 206.121 249.604 227.038 242.489C242.849 237.105 252.122 235.182 272.12 233.152C301.392 230.161 313.485 227.405 327.437 220.547C349.914 209.479 362.712 193.946 374.784 163.094C380.275 149.056 381.749 135.254 378.95 124.144C377.134 116.986 372.07 111.367 369.292 113.482Z" fill="black"/>
<path d="M96.2787 135.466C87.9246 137.859 86.4931 148.264 94.0139 151.96C95.5095 152.708 98.7357 153.477 99.5476 153.263C100.103 153.135 100.039 153.199 98.3084 154.524C89.0784 161.575 88.7151 172.386 97.6888 172.963C103.799 173.347 107.752 168.07 108.115 159.032C108.179 157.515 108.265 156.255 108.286 156.212C108.329 156.191 109.931 155.272 111.876 154.204C113.82 153.114 116.277 151.725 117.367 151.084C119.332 149.952 119.332 149.952 119.204 151.917C118.862 157.387 121.683 161.276 126.64 162.152C130.015 162.75 134.994 160.207 135.506 157.622C135.699 156.703 135.934 156.832 136.083 157.943C137.28 166.596 148.817 167.643 156.167 159.78C157.043 158.861 157.3 158.69 157.983 158.69C158.411 158.669 159.735 158.519 160.91 158.306C163.047 157.943 163.047 157.943 162.855 159.31C160.633 174.117 184.285 173.54 188.045 158.69C190.823 147.794 179.67 142.602 174.841 152.558C171.978 158.477 176.807 161.532 180.204 155.934C182.17 152.729 183.131 152.537 182.96 155.379C182.575 161.468 175.952 166.233 171.017 163.968C168.196 162.686 168.154 159.31 170.846 154.844C172.982 151.319 170.354 147.901 167.235 150.123C165.889 151.084 161.466 152.708 160.205 152.708C160.099 152.708 159.97 151.746 159.906 150.593C159.436 141.021 146.852 140.209 144.993 149.631C144.416 152.58 146.04 155.614 148.946 157.024C150.185 157.622 150.185 157.643 148.39 158.477C144.074 160.464 142.002 159.139 142.023 154.417C142.023 152.195 142.151 151.597 143.348 147.431C143.967 145.337 143.091 143.948 141.126 143.948C138.797 143.948 136.382 148.542 135.827 154.097C135.72 155.037 135.635 155.592 135.613 155.336C135.571 154.567 134.331 153.776 133.156 153.776C132.088 153.776 131.404 154.054 129.738 155.208C126.212 157.622 124.93 153.883 126.96 147.089C129.204 139.568 124.204 139.354 111.641 146.426C107.218 148.905 107.389 148.841 107.389 148.157C107.389 145.999 104.547 145.016 101.983 146.319C97.1974 148.734 92.4328 144.738 96.6846 141.875C98.6076 140.593 99.9963 140.743 101.193 142.345C103.714 145.764 107.303 143.029 105.53 139.012C104.184 135.957 100.06 134.376 96.2787 135.466ZM153.881 149.033C154.757 149.717 155.163 151.618 154.629 152.452C154.137 153.242 150.975 151.618 150.975 150.593C150.975 149.161 152.813 148.157 153.881 149.033ZM101.193 162.323C100.445 164.545 99.2485 165.955 98.0948 165.955C97.1333 165.955 98.5221 163.092 100.317 161.425C101.706 160.1 101.877 160.271 101.193 162.323Z" fill="black"/>
<path d="M192.617 154.156C191.933 154.776 190.544 159.241 188.045 168.899C186.827 173.599 186.998 174.817 188.963 175.586C190.822 176.291 191.741 175.629 194.006 171.976C196.313 168.258 199.753 163.6 200.031 163.856C200.074 163.899 199.967 164.455 199.774 165.096C198.257 170.715 201.89 172.894 205.372 168.471C206.975 166.442 208.022 165.267 208.022 165.48C208.022 165.822 207.231 167.937 205.287 172.937C202.189 180.778 201.868 182.317 202.979 184.005C205.436 187.744 210.521 179.325 213.705 166.271C215.393 159.306 212.038 155.502 207.124 158.814C206.099 159.498 205.971 159.541 205.778 159.22C203.706 155.695 200.715 155.631 196.954 159.028C195.843 160.032 195.629 160.139 195.715 159.733C196.612 155.908 196.612 155.011 195.672 154.092C194.903 153.323 193.536 153.344 192.617 154.156Z" fill="black"/>
<path d="M280.154 154.629C271.714 156.125 266.565 170.611 271.714 178.345C275.581 184.135 286.286 184.648 286.286 179.05C286.286 176.636 285.282 176.209 280.88 176.764C279.491 176.935 277.804 176.038 276.885 174.628C275.966 173.282 275.966 173.303 277.419 172.897C289.491 169.414 292.033 152.535 280.154 154.629ZM281.949 161.167C281.949 162.748 280.517 164.65 278.039 166.402C275.881 167.919 275.817 167.833 277.056 165.12C278.658 161.637 281.949 158.988 281.949 161.167Z" fill="black"/>
<path d="M290.602 156.684C289.683 157.667 289.662 159.847 290.388 169.803C291.114 179.439 291.67 181.127 294.255 181.127C296.477 181.127 297.097 180.294 297.866 176.213C299.127 169.418 300.75 164.782 302.673 162.517C303.485 161.556 303.87 162.389 304.895 167.26C306.647 175.764 310.087 178.777 315.963 177.003C320.236 175.721 319.766 171.726 315.343 171.726C312.245 171.726 311.797 171.149 310.344 165.316C307.588 154.227 301.178 152.903 296.456 162.453C295.473 164.462 295.473 164.462 295.217 162.261C294.618 157.133 294.127 156.129 292.161 156.129C291.307 156.129 291.029 156.236 290.602 156.684Z" fill="black"/>
<path d="M259.365 157.814C258.254 158.604 256.843 160.271 255.861 161.873C255.091 163.155 255.091 163.155 254.472 162.514C251.481 159.352 247.357 161.467 243.96 167.898C243.126 169.501 243.126 169.501 242.998 167.022C242.785 163.006 242.101 161.681 240.242 161.681C237.7 161.681 237.379 163.07 237.7 172.364C238.063 183.132 238.554 184.756 241.417 184.756C243.404 184.756 243.938 184.03 245.519 179.201C247.122 174.329 248.318 171.509 249.75 169.159C250.284 168.304 250.498 168.967 250.519 171.637C250.605 177.727 255.134 177.812 257.378 171.766C258.424 168.903 260.241 164.886 260.454 164.886C260.518 164.886 260.582 167.898 260.582 171.552C260.561 183.26 261.48 186.893 264.471 186.893C267.099 186.893 267.377 185.632 266.821 175.675C266.672 172.962 266.458 168.988 266.33 166.809C265.86 158.198 263.339 154.929 259.365 157.814Z" fill="black"/>
<path d="M226.653 158.947C226.205 159.224 225.179 160.549 223.94 162.408C221.547 166.019 219.132 168.946 216.91 170.933C214.71 172.92 214.24 174.715 215.607 176.082C217.658 178.133 221.354 175.804 226.034 169.544C227.337 167.814 227.593 168.433 227.38 172.899C227.166 177.877 225.97 179.33 222.957 178.219C217.252 176.125 214.881 180.847 219.987 184.116C228.683 189.692 234.9 181.231 232.593 166.916C231.311 158.947 229.794 156.917 226.653 158.947Z" fill="black"/>
</svg>
