<svg width="159" height="104" viewBox="0 0 159 104" fill="none" xmlns="http://www.w3.org/2000/svg">
<path d="M34.7028 1.1092C33.3568 2.54072 34.1901 5.14736 37.2667 9.20688C46.4968 21.4068 51.5605 41.2557 50.364 60.5705C48.8043 85.5258 36.7967 82.0646 35.2797 56.2332C34.9592 50.5499 34.5105 49.6098 31.9466 49.0329C28.7631 48.3064 27.4598 50.1012 26.4983 56.5323C25.8574 60.8055 25.3659 63.1771 24.4686 66.3179C21.0287 78.1973 21.2851 67.5357 24.8959 47.7723C28.6136 27.3251 28.4854 20.1035 24.2336 15.6166C18.9989 10.0829 6.67079 15.5098 1.58571 25.5945C-0.935466 30.5941 2.54717 33.7349 5.90162 29.4617C9.57655 24.7826 14.6616 20.8299 17.6529 20.3171C20.6868 19.783 20.4732 26.5987 16.8837 45.4221C13.9352 60.8696 13.3156 68.5613 14.6189 73.7532C17.0119 83.3251 24.8318 83.6456 29.4682 74.3515C30.0664 73.1336 30.2374 72.9627 30.3656 73.3045C35.5575 87.7265 49.4453 89.2649 55.1286 76.0394C60.5128 63.5403 59.124 36.0211 52.2229 18.6506C47.5651 6.96346 38.1214 -2.523 34.7028 1.1092Z" fill="black"/>
<path d="M82.6691 33.8861C79.4643 34.6339 78.8233 39.0353 81.6649 40.9155C83.9511 42.4324 86.6646 41.7274 87.7329 39.3344C89.1857 36.1722 86.2586 33.0101 82.6691 33.8861Z" fill="black"/>
<path d="M129.802 46.3672C126.768 47.2646 123.863 49.4439 121.384 52.6702C107.283 71.1303 122.752 96.6198 140.635 84.3344C142.729 82.9029 142.729 82.9029 143.562 83.4798C148.69 87.1975 159.415 83.3516 158.539 78.117C158.091 75.5103 155.762 75.0403 151.788 76.7495C148.839 78.0101 147.792 78.0101 146.382 76.6641C143.968 74.3779 141.703 74.5702 137.665 77.3905C132.302 81.1723 128.584 80.7663 125.85 76.1086C124.375 73.5874 124.354 73.096 125.636 72.3482C132.516 68.4168 138.968 60.1269 139.545 54.5076C140.101 49.0166 135.08 44.8075 129.802 46.3672ZM132.43 53.3966C133.199 55.4264 128.435 62.6481 124.418 65.5538C122.239 67.1135 126.149 57.392 128.649 54.9991C130.208 53.5248 132.153 52.6915 132.43 53.3966Z" fill="black"/>
<path d="M104.27 47.7064C100.125 49.202 94.5698 55.0563 90.4675 62.2779C89.3138 64.3077 89.3138 64.3077 89.2069 61.1028C89.0574 57.0433 88.6728 56.3168 86.6857 56.3168C84.2928 56.3168 84.2714 56.3596 83.139 70.2047C82.1775 82.1909 82.1775 82.4687 83.8014 83.6225C86.3225 85.4172 88.0104 84.1993 90.0616 79.0502C93.9288 69.4569 101.813 57.5133 105.68 55.4408C106.641 54.9281 105.936 61.3165 104.27 68.3886C103.843 70.1406 103.266 72.6404 102.967 73.901C100.787 83.4515 101.193 88.9212 104.334 92.1474C108.372 96.3138 113.521 93.1516 110.744 88.2161C109.526 86.0582 109.611 82.7892 111.107 73.6232C114.526 52.8342 112.389 44.8006 104.27 47.7064Z" fill="black"/>
<path d="M76.7087 51.1706C74.0806 52.3671 69.2733 59.5887 64.5942 69.3102C59.6373 79.6299 59.0391 82.6425 61.838 83.4544C63.9532 84.0527 64.5087 83.4544 68.2264 76.4037C71.5595 70.1007 72.9696 67.6009 72.9696 68.0283C72.9696 68.1778 72.7346 69.2461 72.4568 70.3785C68.0555 87.9626 70.0852 95.4834 79.2298 95.5261C81.7296 95.5261 81.7296 95.5261 82.0715 96.7013C83.4816 101.573 87.7975 104.543 92.3485 103.752C98.0959 102.769 97.7968 97.7696 91.9212 96.7013C89.8059 96.3167 89.2932 95.868 88.3317 93.6246C86.7934 90.0565 85.1054 88.9027 80.9177 88.5822C76.6232 88.2617 76.5591 85.9542 80.3622 66.789C82.627 55.401 82.7125 54.2686 81.5373 52.3243C80.6613 50.8928 78.4393 50.38 76.7087 51.1706Z" fill="black"/>
</svg>
