<svg width="284" height="206" viewBox="0 0 284 206" fill="none" xmlns="http://www.w3.org/2000/svg">
<path d="M192.46 0.779733C184.427 3.85642 179.662 14.8599 179.085 31.568C178.444 49.4512 184.876 67.014 189.939 61.2666C190.623 60.476 190.602 57.6771 189.897 56.7797C189.512 56.3097 187.76 46.1609 187.76 44.4302C187.76 43.9816 187.931 43.8961 189.32 43.5756C203.229 40.2853 212.16 22.5729 206.541 9.36882C203.806 2.91632 197.246 -1.05773 192.46 0.779733ZM196.712 7.61682C203.272 11.014 202.118 24.3677 194.64 31.5039C192.525 33.5123 188.187 36.3753 187.226 36.3753C187.034 36.3753 187.119 29.9442 187.333 26.9529C188.337 14.2616 192.567 5.48023 196.712 7.61682Z" fill="black"/>
<path d="M161.118 2.42228C158.447 3.19146 157.892 11.4814 159.088 32.7405C159.857 46.201 160.071 54.4696 159.665 54.9183C159.579 55.0037 156.631 50.0682 155.029 47.1624C152.251 42.0987 146.76 31.3517 142.53 22.6344C136.611 10.4559 136.889 10.8404 134.645 11.396C132.039 12.0583 132.274 14.4726 135.927 23.8095C145.692 48.8076 155.541 64.5115 161.203 64.1056C166.053 63.7637 166.929 59.8324 166.929 38.8298C166.908 8.72522 165.69 1.0976 161.118 2.42228Z" fill="black"/>
<path d="M238.505 4.4103C237.672 5.30767 237.629 5.5427 237.308 10.4141C236.86 17.5717 237.736 20.9902 240.001 20.9902C242.65 20.9902 243.889 15.7342 243.099 7.70065C242.714 3.85479 240.513 2.27372 238.505 4.4103Z" fill="black"/>
<path d="M267.349 4.947C266.196 5.41705 260.918 13.942 258.803 18.728C255.684 25.8001 260.683 27.1034 264.614 20.245C270.896 9.34838 272.007 3.04544 267.349 4.947Z" fill="black"/>
<path d="M75.3761 6.27199C64.4795 9.81873 61.5951 44.3246 69.9278 71.6943C71.573 77.164 73.2823 78.7878 75.8248 77.3563C77.5768 76.3735 77.6623 75.1556 76.2308 70.2628C75.0343 66.1392 73.6028 60.3063 73.731 60.1568C74.9915 58.9175 82.4696 64.024 90.7596 71.7584C93.8149 74.6215 96.7634 75.2838 97.8103 73.3609C99.4982 70.1774 89.5631 59.9858 80.4398 55.5204C78.346 54.4948 78.346 54.4948 79.1793 53.512C92.4047 37.6799 89.499 1.67833 75.3761 6.27199ZM78.4315 12.5963C84.1789 18.6215 81.1449 41.077 73.4532 49.4952C72.0431 51.0122 72.1285 51.1404 71.7653 46.4185C70.4406 29.1335 74.5001 8.51541 78.4315 12.5963Z" fill="black"/>
<path d="M106.358 14.1796C94.9056 15.077 89.2222 22.0636 94.3928 28.9221C96.102 31.2082 97.4481 32.2979 105.653 38.0453C118.985 47.3822 124.583 53.4501 124.882 58.9198C125.16 63.9835 116.378 65.5432 108.879 61.7828C102.875 58.7702 99.5847 63.5562 104.819 67.6798C116.998 77.3372 135.778 68.2353 131.185 54.903C128.728 47.7454 122.638 41.6348 108.387 31.9988C102.426 27.9606 99.2001 25.1617 99.3497 24.1361C99.606 22.4055 106.977 20.568 113.601 20.568C117.425 20.568 118.066 20.4185 118.643 19.2861C120.481 15.7393 115.032 13.4959 106.358 14.1796Z" fill="black"/>
<path d="M272.818 32.3361C269.4 32.7207 267.926 35.5624 270.255 37.2716C272.391 38.8741 280.809 38.1263 282.882 36.1606C285.852 33.3189 280.873 31.4387 272.818 32.3361Z" fill="black"/>
<path d="M232.842 32.5506C220.621 33.5975 217.288 34.6658 217.801 37.3365C218.185 39.4731 219.574 39.6868 228.676 39.0458C250.555 37.5288 250.555 37.5075 254.422 78.2522C256.58 101.178 257.071 107.823 257.734 123.548C258.439 140.641 258.567 141.623 260.191 143.247C262.669 145.726 264.293 143.333 264.357 137.115C264.571 117.224 262.498 85.7944 259.229 59.2152C256.388 36.14 251.238 30.9695 232.842 32.5506Z" fill="black"/>
<path d="M224.938 48.5111C223.805 49.0452 222.545 50.434 221.519 52.2074C212.695 67.5694 202.91 80.6667 189.791 94.7041C184.535 100.323 171.416 113.271 171.224 113.057C171.181 113.015 170.989 112.352 170.797 111.583C168.19 101.349 155.905 101.328 147.401 111.54C146.675 112.395 146.098 113.207 146.098 113.335C146.098 113.485 145.692 113.207 145.2 112.737C134.881 102.93 121.741 107.438 121.741 120.771C121.741 123.078 122.147 123.035 117.916 121.091C92.8967 109.596 64.1382 89.8113 43.9688 70.2188C38.8196 65.2192 37.089 64.5141 35.8498 66.9285C34.8242 68.9582 36.6617 71.5221 44.6739 79.2566C67.5568 101.306 96.0802 120.236 120.181 129.338C123.194 130.471 123.194 130.471 123.877 132.308C128.706 145.042 139.111 153.097 147.807 150.832C156.311 148.589 165.925 136.56 169.921 123.121C170.241 122.031 170.412 121.839 171.908 120.728C193.423 104.832 221.904 70.7316 227.48 54.1944C228.891 50.0067 227.63 47.1864 224.938 48.5111Z" fill="black"/>
<path d="M42.0457 49.1079C27.3246 51.0522 22.1968 55.1331 20.5944 66.1365C17.0904 90.1304 23.9916 157.86 31.2346 170.872C35.5291 178.542 40.1869 178.948 65.655 173.863C97.1484 167.56 111.207 165.937 147.914 164.334C156.674 163.95 186.03 163.843 204.106 164.12C232.031 164.569 241.838 163.779 251.816 160.275C258.418 157.946 261.602 154.057 259.016 151.472C257.734 150.19 256.666 150.254 253.354 151.814C243.932 156.258 231.583 157.625 205.516 157.112C168.745 156.386 158.853 156.343 141.504 156.899C111.143 157.839 93.2384 160.061 64.1594 166.492C37.3239 172.41 37.4307 172.453 34.1404 156.044C28.222 126.516 25.3803 88.2074 27.6451 68.8927C28.6921 59.9617 30.0167 58.7653 43.2209 54.9621C49.5024 53.146 49.7375 53.0178 49.7375 50.9667C49.7375 48.7874 47.8359 48.3387 42.0457 49.1079Z" fill="black"/>
<path d="M10.6382 167.048C2.71145 168.201 -0.514801 169.761 0.0834434 172.154C0.617591 174.291 3.9934 174.483 11.1937 172.795C16.0224 171.641 16.8343 171.129 16.8984 169.184C16.9839 167.026 15.1464 166.385 10.6382 167.048Z" fill="black"/>
<path d="M28.4781 185.168C27.1748 185.745 22.0683 192.624 18.1797 198.991C15.0817 204.055 16.8978 207.58 20.9573 204.354C23.2434 202.538 31.4693 190.082 31.8966 187.817C32.2598 185.873 30.2942 184.356 28.4781 185.168Z" fill="black"/>
<path d="M54.6937 190.677C51.382 192.28 54.3091 204.779 58.1977 205.505C60.5053 205.933 61.5949 203.155 60.6334 199.395C58.6464 191.575 57.2149 189.481 54.6937 190.677Z" fill="black"/>
</svg>
