<svg width="160" height="119" viewBox="0 0 160 119" fill="none" xmlns="http://www.w3.org/2000/svg">
<path d="M120.004 0.548693C117.654 1.57426 117.569 12.1504 119.898 14.6288C122.59 17.5346 124.919 14.5861 124.406 8.90276C123.701 1.04011 122.803 -0.669162 120.004 0.548693Z" fill="black"/>
<path d="M80.3072 3.96248C78.2988 4.68892 78.1065 5.54356 78.5552 12.1243C79.2175 22.0594 79.538 26.4394 79.6449 27.2727C80.2431 32.0373 79.8799 64.9194 79.2175 65.774C79.1962 65.7954 78.5552 65.6244 77.8074 65.3894C70.5857 63.0819 60.3515 66.7782 53.3434 74.2135C35.973 92.6309 44.9894 126.389 64.6674 116.71C73.4701 112.394 80.2858 100.109 83.7898 82.3326C84.5163 78.679 84.4949 78.7004 84.8368 80.5378C88.704 101.989 99.1946 113.292 111.117 108.869C114.129 107.758 117.933 104.724 119.556 102.139C120.176 101.156 120.176 101.156 121.757 101.647C127.633 103.463 134.213 103.292 140.559 101.199C167.544 92.225 164.553 52.6553 136.67 49.5573C135.495 49.4291 134.512 49.3223 134.491 49.3009C134.47 49.2795 134.534 48.8949 134.641 48.4249C139.619 27.2299 134.876 17.8717 120.112 19.6664C104.451 21.568 104.301 32.4005 119.685 49.6855C121.009 51.1597 121.009 51.1597 119.001 52.1426C114.3 54.4501 111.779 56.8217 111.779 58.9369C111.779 61.2872 114.3 61.3726 117.698 59.1506C130.282 50.9461 146.2 54.4073 151.285 66.4577C157.459 81.0933 147.866 95.8999 131.649 96.7332C114.493 97.6092 104.301 81.2856 112.826 66.5859C115.347 62.2273 111.416 60.3043 108.467 64.4493C100.989 74.8972 103.254 90.1311 113.36 97.3741C114.834 98.4211 114.834 98.4424 113.125 100.13C99.0024 114.125 88.8963 89.8534 86.7811 36.8873C86.1615 21.2902 84.7727 6.48366 83.8326 5.18034C82.9138 3.94112 81.6319 3.49243 80.3072 3.96248ZM127.526 25.3497C128.509 25.6489 130.389 27.2086 130.09 27.5077C129.214 28.3837 114.877 28.7683 114.877 27.935C114.877 26.0762 123.83 24.2601 127.526 25.3497ZM131.008 33.7252C131.008 35.7336 129.812 44.4081 129.577 44.1731C129.513 44.1304 129.15 42.6561 128.765 40.9041C128.38 39.1735 127.846 36.9514 127.611 35.99C127.056 33.7893 127.056 33.7893 127.761 33.7679C128.081 33.7679 128.872 33.6183 129.513 33.4688C130.154 33.3192 130.752 33.191 130.859 33.1697C130.944 33.1697 131.008 33.4047 131.008 33.7252ZM120.667 33.9816C121.992 34.0029 121.992 34.0029 122.12 35.3276C122.206 36.0754 122.59 38.4257 122.975 40.5623C123.338 42.7202 123.594 44.4081 123.53 44.3013C121.287 41.716 115.839 34.0884 115.839 33.5756C115.839 33.5115 116.629 33.5756 117.612 33.7038C118.574 33.8534 119.962 33.9816 120.667 33.9816ZM78.4484 71.0941C79.1534 71.8205 76.4827 86.1357 74.4957 92.3318C67.4663 114.082 52.382 118.932 51.5914 99.703C51.0573 86.4775 59.39 74.3844 71.2053 71.2864C73.3847 70.7095 77.957 70.5813 78.4484 71.0941Z" fill="black"/>
<path d="M133.252 7.89778C130.923 9.32929 128.124 13.4956 128.38 15.1622C128.957 18.8371 132.889 17.5552 136.264 12.6196C138.636 9.15837 136.542 5.88939 133.252 7.89778Z" fill="black"/>
<path d="M105.433 8.3249C103.532 9.82052 107.078 17.2345 109.749 17.384C112.997 17.555 113.531 15.1406 110.988 11.8289C108.147 8.11125 106.801 7.25661 105.433 8.3249Z" fill="black"/>
<path d="M16.2735 36.2044C15.077 36.6531 13.6028 37.7428 12.5131 39.0247C11.5089 40.1785 11.5089 40.1785 10.3124 39.4948C3.98811 35.9053 -1.69522 43.7252 1.57376 51.5238C5.50509 60.8607 13.0686 62.8263 17.7691 55.7328C24.948 44.9003 24.0507 33.2987 16.2735 36.2044Z" fill="black"/>
<path d="M131.115 58.402C122.419 59.0002 115.667 64.5554 113.702 72.6958C112.355 78.315 114.086 83.9129 116.949 83.1437C118.402 82.7377 118.509 82.3959 118.445 79.1055C118.167 67.8457 125.431 62.2265 138.529 63.5725C141.264 63.8503 142.545 62.8675 142.033 60.8377C141.605 59.0857 136.755 58.0174 131.115 58.402Z" fill="black"/>
<path d="M11.1886 67.5486C10.0562 68.6596 10.0562 69.3433 11.2527 99.7042C11.9364 117.032 12.1714 118.421 14.5858 118.912C18.0898 119.596 18.4317 114.596 16.8078 87.6325C16.1882 77.6119 15.6327 71.2449 15.1627 69.0869C14.6926 66.9503 12.5988 66.1384 11.1886 67.5486Z" fill="black"/>
<path d="M144.81 81.5428C144.362 81.6924 143.528 82.2479 142.994 82.7821C138.956 86.6279 133.593 88.5295 129.448 87.5467C126.5 86.863 125.026 87.5467 125.026 89.6192C125.026 94.7256 137.781 93.8282 144.426 88.2731C148.806 84.6195 149.062 80.0259 144.81 81.5428Z" fill="black"/>
</svg>
