<svg width="130" height="176" viewBox="0 0 130 176" fill="none" xmlns="http://www.w3.org/2000/svg">
<path d="M109.774 1.12404C103.941 3.88024 104.048 20.2038 109.902 23.195C116.397 26.5067 128.747 8.45254 123.512 3.32472C122.081 1.91458 119.047 1.61545 117.124 2.68375C116.205 3.19653 116.205 3.19653 115.479 2.40599C114.09 0.867648 111.547 0.290769 109.774 1.12404ZM112.722 4.8417C113 5.22629 113.15 5.88863 113.235 7.10649C113.449 10.1832 115.735 10.7387 116.525 7.89702C116.654 7.42698 116.803 6.91419 116.846 6.76463C117.124 5.80317 120.329 5.11946 120.863 5.91C123.042 9.00805 113.577 22.1053 111.163 19.3919C109.282 17.298 108.364 9.49947 109.646 6.59371C110.628 4.39302 111.868 3.68794 112.722 4.8417Z" fill="black"/>
<path d="M30.7632 7.45637C29.5239 7.90506 27.9001 9.65706 26.8959 11.58C26.5541 12.2851 26.5541 12.2851 25.6995 11.7296C19.7597 7.79823 15.7857 18.5666 19.2042 29.4205C22.6228 40.253 29.2248 39.5266 33.2843 27.8822C37.6643 15.2977 36.4251 5.36252 30.7632 7.45637ZM32.1947 11.4732C33.5407 16.5155 28.5838 33.4373 25.7422 33.4373C23.4988 33.4373 20.7853 24.3782 21.4049 18.8444C22.0245 13.4175 23.9902 12.8619 25.6567 17.6693C26.2763 19.5067 26.4686 19.7631 27.3019 19.7631C28.883 19.7631 29.2248 19.1862 28.9043 17.0497C28.6266 14.9558 31.7033 9.69979 32.1947 11.4732Z" fill="black"/>
<path d="M95.5663 7.41441C89.0283 9.29461 84.05 12.4995 77.4907 19.0161C70.269 26.195 62.15 39.506 60.1843 47.4327C60.0562 47.9669 59.928 47.6891 59.3297 45.403C56.894 35.9379 51.2748 27.0497 46.1897 24.614C43.8822 23.5029 42.5789 23.6311 42.5789 24.9985C42.5789 25.8532 42.8139 26.1737 44.0104 26.9428C50.9757 31.3869 57.535 45.7235 57.535 56.4919C57.535 58.0943 58.7101 59.013 60.0775 58.4362C60.7399 58.1798 60.8253 57.9447 61.509 54.6971C65.4831 35.4892 81.2511 15.7898 96.6773 10.7689C101.997 9.03822 100.95 5.8547 95.5663 7.41441Z" fill="black"/>
<path d="M122.466 22.2376C122.253 22.5154 122.231 23.5623 122.445 28.0491C123.086 41.8301 122.616 57.9187 121.291 66.7214C120.479 72.2124 120.672 74.2422 122.018 74.2422C124.026 74.2422 125.5 69.7767 126.376 60.9953C127.231 52.4276 125.885 26.7672 124.368 22.7504C124.026 21.853 123.022 21.5753 122.466 22.2376Z" fill="black"/>
<path d="M13.5639 35.1675C12.9657 35.3384 12.752 35.5948 12.2392 36.7272C6.19268 50.2304 3.54331 75.2926 8.26517 74.3739C9.4403 74.1388 9.50439 73.8611 9.39756 70.1861C9.14117 61.0202 10.765 50.615 14.1622 39.7825C15.145 36.6417 15.2091 34.5051 14.3117 34.9538C14.2904 34.9538 13.9485 35.0606 13.5639 35.1675Z" fill="black"/>
<path d="M11.1489 78.5163C8.99096 79.1572 7.43125 82.2126 6.87573 86.849C6.72617 88.0882 6.59798 89.1137 6.59798 89.1351C6.57661 89.1565 6.12793 89.0283 5.61515 88.8574C-1.15784 86.5285 -1.32877 96.9978 5.35876 105.459C13.7556 116.099 20.6567 106.399 17.8151 87.9173C16.6613 80.3965 14.5888 77.4693 11.1489 78.5163ZM13.606 83.6441C16.234 89.4983 15.8067 103.386 12.9223 105.95C10.7643 107.852 3.75631 98.3438 3.60675 93.3228C3.56402 91.4426 4.65368 91.7204 7.36715 94.2843C10.5293 97.2541 12.7727 95.6731 10.2515 92.2332C9.14052 90.7375 9.33281 87.96 10.8071 84.3278C12.0249 81.3579 12.5163 81.2297 13.606 83.6441Z" fill="black"/>
<path d="M111.441 79.5608C107.573 81.9965 107.638 93.5555 111.569 99.5806C115.906 106.311 121.803 104.26 126.589 94.3674C132.721 81.676 128.683 74.9885 119.218 82.1674C118.427 82.7657 117.744 83.2357 117.722 83.193C117.701 83.1503 117.402 82.5307 117.039 81.8469C115.842 79.454 113.257 78.407 111.441 79.5608ZM113.919 83.3853C114.453 84.4322 114.752 85.586 115.009 87.6157C115.436 90.9274 117.359 91.4189 118.021 88.3635C118.32 86.9107 120.478 85.0946 123.619 83.6417C125.692 82.6802 126.076 82.6375 126.247 83.3212C127.23 87.2739 120.414 99.8798 117.274 99.8798C113.898 99.8798 110.543 86.7825 112.979 83.0862C113.406 82.4238 113.428 82.4238 113.919 83.3853Z" fill="black"/>
<path d="M111.505 104.689C111.142 105.073 111.184 104.924 110.202 108.962C105.993 126.289 96.7411 141.801 84.648 151.8C81.0799 154.749 81.4004 157.484 85.118 155.689C87.9597 154.321 95.0532 147.42 98.8349 142.335C106.42 132.165 113.3 114.987 113.3 106.206C113.3 104.475 112.445 103.748 111.505 104.689Z" fill="black"/>
<path d="M16.1492 113.45C13.8631 115.052 22.7726 132.765 31.084 143.148C37.3655 150.99 44.9291 157.57 47.6853 157.57C50.0355 157.57 49.1168 155.626 45.1855 152.272C35.4853 143.982 26.6826 132.273 20.5506 119.539C17.2602 112.681 17.2602 112.659 16.1492 113.45Z" fill="black"/>
<path d="M63.2386 148.254C56.6152 151.181 60.1833 171.991 67.8537 175.196C72.4046 177.098 75.6736 172.824 77.3188 162.804C79.2844 150.903 75.4172 143.831 70.1826 149.771C69.3066 150.753 69.3066 150.753 68.3878 149.749C66.8922 148.125 64.8625 147.527 63.2386 148.254ZM74.178 151.736C76.3359 157.163 72.4046 173.807 69.3279 172.226C64.6488 169.812 61.1875 156.18 64.1787 151.993C65.0975 150.689 66.4222 152.142 67.7041 155.945C68.8792 159.364 70.7808 159.172 70.7808 155.668C70.7808 153.21 73.4943 150.07 74.178 151.736Z" fill="black"/>
</svg>
