<svg width="106" height="15" viewBox="0 0 106 15" fill="none" xmlns="http://www.w3.org/2000/svg">
<path d="M52.741 0.605223C52.506 0.840247 52.3992 1.35303 52.3992 2.2504C52.3992 4.38698 52.3351 4.47245 50.9036 4.64338C49.4293 4.8143 49.0875 5.04933 48.9165 5.96806C48.7029 7.07909 49.0875 7.29275 51.7582 7.5705C52.2282 7.6346 52.3137 7.7628 52.3992 8.6388C52.6983 11.1386 55.3904 11.1813 55.3904 8.68153C55.3904 7.80553 55.4118 7.80553 56.245 7.67733C58.6166 7.35684 58.2534 4.53655 55.8604 4.53655C55.2195 4.53655 55.2195 4.51518 55.0699 2.97684C54.8135 0.498393 53.8307 -0.505804 52.741 0.605223Z" fill="black"/>
<path d="M97.5192 2.65428C94.7202 3.65848 94.1861 6.35058 96.3654 8.70083C97.5619 10.0041 97.4123 10.3033 95.5108 10.3033C93.0323 10.3033 92.3059 12.4185 94.4639 13.3159C99.0789 15.2602 102.476 10.5597 99.2284 6.7138C98.908 6.32921 98.6729 5.98736 98.7157 5.94463C99.0148 5.66687 100.233 5.19682 100.895 5.06863C102.241 4.81223 102.839 3.57301 101.985 2.73974C101.6 2.33379 98.5661 2.29106 97.5192 2.65428Z" fill="black"/>
<path d="M34.5192 2.65428C31.7202 3.65848 31.1861 6.35058 33.3654 8.70083C34.5619 10.0041 34.4123 10.3033 32.5108 10.3033C30.0323 10.3033 29.3059 12.4185 31.4639 13.3159C36.0789 15.2602 39.4761 10.5597 36.2284 6.7138C35.908 6.32921 35.6729 5.98736 35.7157 5.94463C36.0148 5.66687 37.2326 5.19682 37.895 5.06863C39.241 4.81223 39.8393 3.57301 38.9846 2.73974C38.6001 2.33379 35.5661 2.29106 34.5192 2.65428Z" fill="black"/>
<path d="M76.7953 3.55069C76.4534 3.72161 75.8338 4.19166 75.4279 4.59761C74.7228 5.34542 74.7228 5.34542 74.2528 4.9181C72.8853 3.61478 70.706 3.91391 69.1036 5.60181C68.4626 6.26415 68.4626 6.26415 68.1421 5.23859C67.6507 3.67888 66.0269 3.63615 65.7278 5.17449C65.3432 7.16152 65.7278 13.5713 66.2405 13.9772C67.3729 14.9173 68.313 14.3832 69.1249 12.3748C69.9582 10.2382 71.7316 7.63157 72.0948 7.99479C72.1589 8.05889 72.3939 8.7426 72.6076 9.53313C73.334 12.1398 75.5347 12.4603 76.2398 10.0673C76.5389 9.02035 77.8636 6.88376 78.1841 6.88376C78.59 6.88376 79.2524 8.82806 79.5942 11.0287C80.3634 15.7933 82.8632 15.601 82.6068 10.7724C82.3291 5.0463 79.9575 2.14054 76.7953 3.55069Z" fill="black"/>
<path d="M25.486 3.25994C25.1014 3.43087 24.3108 4.11457 23.7553 4.73419C22.7084 5.88794 22.7084 5.88794 22.5588 5.2256C22.4306 4.62736 22.3452 4.58462 21.6401 4.64872C19.8881 4.79828 20.5932 13.1523 22.3665 13.1523C23.563 13.1523 23.8621 12.8746 24.3749 11.1867C25.315 8.0459 26.6397 6.12297 27.2166 7.02033C28.584 9.11419 30.6565 8.60141 30.6565 6.20843C30.6565 3.64453 27.9003 2.06345 25.486 3.25994Z" fill="black"/>
<path d="M88.3966 4.62286C87.8838 5.02881 87.2642 5.62706 87.0505 5.94755C86.666 6.54579 86.666 6.54579 86.3241 5.79798C85.9609 5.02881 85.0635 4.72969 84.3798 5.17837C83.632 5.64842 83.867 13.2333 84.6576 13.9598C85.8113 15.028 86.7728 14.4298 87.5633 12.1437C88.5034 9.45155 90.2127 7.31496 91.4306 7.31496C92.8834 7.31496 93.5244 5.26384 92.3707 4.3451C91.4092 3.57593 89.5931 3.72549 88.3966 4.62286Z" fill="black"/>
<path d="M12.8378 3.72757C12.4105 3.96259 11.8336 4.38991 11.5131 4.7104C10.9576 5.26591 10.9576 5.26591 10.4021 4.7104C8.79962 3.10796 4.84693 3.21479 3.45815 4.90269C3.18039 5.24455 3.13766 5.22318 2.88127 4.62494C2.64624 4.04806 2.49668 3.96259 1.77024 3.96259C0.488288 3.96259 0.445557 4.09079 0.445557 7.93665C0.445557 11.8466 0.53102 12.0816 1.89844 12.0816C2.96673 12.0816 3.07356 11.9748 3.8 10.3724C5.70156 6.18465 7.98771 5.7787 8.97055 9.45363C9.52606 11.4834 11.8763 11.697 12.325 9.77412C12.6455 8.49216 14.0556 6.5265 14.6539 6.5265C15.1667 6.5265 15.9999 8.51353 16.47 10.8638C17.0469 13.7054 19.8885 13.7695 19.8885 10.9279C19.8885 5.73596 16.1922 1.9542 12.8378 3.72757Z" fill="black"/>
<path d="M102.755 10.0908C102.135 10.7104 102.157 12.2915 102.798 12.7402C104.101 13.6589 105.746 12.8897 105.746 11.3727C105.746 10.2404 105.169 9.66348 104.037 9.66348C103.46 9.66348 103.033 9.81304 102.755 10.0908Z" fill="black"/>
<path d="M39.7982 10.6299C38.2812 11.805 39.67 14.4757 41.4434 13.792C43.3449 13.087 42.9604 10.3735 40.9733 10.3735C40.5247 10.3735 39.9905 10.5017 39.7982 10.6299Z" fill="black"/>
</svg>
