<svg width="127" height="109" viewBox="0 0 127 109" fill="none" xmlns="http://www.w3.org/2000/svg">
<path d="M12.3507 1.06112C8.56894 2.40717 8.54758 8.0264 12.308 9.73567C14.0172 10.5048 15.812 10.0348 17.158 8.45371C20.2988 4.80015 16.8375 -0.541325 12.3507 1.06112Z" fill="black"/>
<path d="M16.8376 23.8192C15.2992 24.2893 14.6583 25.443 14.2523 28.4556C12.7567 39.1599 8.16303 50.1847 1.88146 58.0687C-0.767913 61.3805 0.385845 64.6067 3.86848 63.7307C7.13746 62.8974 13.9745 52.1504 17.5427 42.258C18.3332 40.0573 18.3332 40.0573 19.551 45.0355C21.0253 51.0607 21.0253 50.3343 19.5938 52.8341C4.53083 79.0714 5.27863 108.855 20.9826 108.855C33.6098 108.855 36.5369 90.4381 29.2939 56.68C28.3324 52.2145 28.3538 52.1504 33.3107 45.9329C35.3404 43.3476 35.4045 43.3263 35.084 45.2065C33.097 57.4919 40.3828 67.3202 51.4289 67.2561C62.817 67.192 73.9913 57.385 76.1065 45.6124C76.2347 44.8433 76.3843 44.01 76.4484 43.7536C76.4911 43.4972 76.7262 43.2408 76.9398 43.1554C77.1535 43.0913 78.1149 42.5144 79.0764 41.8734C80.807 40.7196 80.807 40.7196 80.807 42.6853C80.807 58.7952 93.2206 65.2263 104.053 54.7357C104.651 54.1374 105.164 53.7315 105.164 53.8597C105.164 55.0562 103.69 65.0981 103.134 67.833C103.006 68.3671 103.006 68.3671 99.7586 68.3885C79.1191 68.538 61.2786 91.4209 72.4957 103.407C82.965 114.582 100.891 101.847 108.07 78.1313C108.262 77.4903 112.471 80.4388 114.202 82.4259C115.933 84.4129 117.044 86.1863 118.561 89.327C120.633 93.643 121.359 94.3053 124.009 94.1557C125.205 94.0703 126.744 91.7414 126.744 89.968C126.701 83.4301 119.736 74.435 111.916 70.8242C110.912 70.3541 110.078 69.9054 110.078 69.8413C110.078 69.7559 110.271 68.5808 110.506 67.2133C111.852 59.2439 113.219 34.9508 112.407 32.857C111.617 30.7204 108.903 30.0367 107.173 31.5537C106.403 32.2374 106.019 33.2202 105.485 35.9978C102.643 50.4411 91.5113 57.9833 88.5842 47.4285C87.751 44.3946 88.0287 33.8826 89.0756 29.2889C90.2721 23.9901 84.247 22.58 82.324 27.7078C81.448 30.0794 80.2943 31.8314 78.3713 33.7757C75.7861 36.361 75.9356 36.361 74.7391 33.968C70.8078 26.0413 60.5522 24.8661 55.4885 31.746C50.3607 38.7112 55.3816 45.8688 65.3809 45.9116C69.1626 45.9329 68.9917 45.7406 67.667 48.5609C63.3725 57.7269 52.4545 62.812 46.0234 58.667C39.3572 54.3511 40.6605 40.5273 48.5873 31.746C50.8734 29.1821 51.1085 28.8188 51.1085 27.7292C51.1085 24.9302 48.1813 23.691 45.4679 25.3148C40.2546 28.4556 31.8578 35.9764 27.4992 41.382C26.0035 43.2194 26.0035 43.2194 23.8456 35.72C22.6705 31.575 21.5381 27.6437 21.3244 26.96C20.6193 24.5457 18.7605 23.2423 16.8376 23.8192ZM66.0005 34.5235C67.1542 34.9508 69.0558 37.5575 69.0558 38.6899C69.0558 39.7154 62.7101 39.2454 61.2786 38.113C59.2916 36.5533 63.287 33.498 66.0005 34.5235ZM24.2943 69.2217C27.0932 88.8784 25.9394 100.95 21.2176 100.95C14.0173 100.95 14.7651 80.8021 22.585 63.6666C23.3114 62.0855 23.2473 61.8932 24.2943 69.2217ZM100.592 77.704C95.8273 92.9592 84.0974 103.899 78.3927 98.4289C73.0299 93.2797 82.7513 80.1824 94.2675 77.0417C99.3099 75.6529 101.169 75.8665 100.592 77.704Z" fill="black"/>
</svg>
