<svg width="238" height="151" viewBox="0 0 238 151" fill="none" xmlns="http://www.w3.org/2000/svg">
<path d="M131.817 1.13917C130.3 2.61341 130.214 3.29712 127.415 34.9614C126.988 39.726 126.411 45.8152 126.133 48.5287C125.834 51.2208 125.599 53.6351 125.599 53.8488C125.599 55.259 125.236 52.866 124.104 43.5932C119.745 8.23264 118.677 3.1262 115.664 3.1262C112.887 3.1262 112.78 4.0022 113.955 17.4841C117.929 63.1857 119.766 71.4329 125.706 70.5569C129.766 69.9373 131.774 61.3055 135.406 28.6584C137.5 10.0274 137.607 3.51078 135.898 1.52375C134.658 0.0708745 133.12 -0.0786867 131.817 1.13917Z" fill="black"/>
<path d="M99.6393 4.4705C93.5073 7.41899 90.6015 24.6613 93.1441 43.0573C93.7637 47.4587 94.0628 47.9928 95.8575 47.9928C97.8018 47.9928 97.8873 47.5655 98.1651 36.8398C98.3146 31.5624 98.3146 31.5624 99.0838 31.4556C99.5111 31.3915 101.049 31.1779 102.524 31.0069C103.998 30.836 105.729 30.601 106.37 30.4942C107.011 30.3873 107.566 30.3232 107.609 30.3446C107.63 30.3873 107.737 33.1863 107.865 36.5834C108.228 47.3732 108.549 48.6552 110.985 48.7193C113.848 48.7834 114.36 46.7536 114.211 36.0706C113.933 14.662 107.481 0.68874 99.6393 4.4705ZM102.673 11.2008C104.169 13.2305 106.776 20.7727 106.797 23.1229C106.797 23.2511 106.049 23.4648 105.152 23.593C104.233 23.7425 102.438 24.1058 101.178 24.4049C98.3787 25.0886 98.571 25.3022 98.9983 22.1187C99.9812 14.3202 101.541 9.68378 102.673 11.2008Z" fill="black"/>
<path d="M152.306 4.36385C141.538 7.97468 137.072 24.811 143.44 37.8656C148.525 48.3135 158.823 51.8602 165.105 45.3436C169.164 41.0918 166.002 37.6519 160.639 40.4508C155.96 42.9079 151.003 39.5321 148.696 32.2891C147.691 29.1483 147.691 29.0414 148.631 28.8705C155.832 27.5245 163.053 20.1319 163.566 13.6153C164.058 7.18414 158.203 2.39819 152.306 4.36385ZM156.601 11.265C158.588 13.893 155.127 19.2772 149.529 22.3326C147.478 23.4436 147.52 23.4436 147.691 21.8839C148.418 14.8972 154.165 8.06014 156.601 11.265Z" fill="black"/>
<path d="M70.4753 7.71864C62.9331 9.23562 58.7454 14.2139 61.2025 18.7434C62.3562 20.8373 63.98 21.8842 69.1933 23.8499C78.7652 27.4821 82.6538 32.6954 79.8122 38.1437C76.9278 43.6133 65.5397 45.173 61.5443 40.6221C59.2795 38.0582 62.8904 36.4344 66.5226 38.3787C72.7187 41.6904 74.8125 34.8106 68.7019 31.2211C61.1811 26.8197 50.9468 33.8491 53.2971 41.8186C57.4421 55.9201 83.4016 53.6126 87.333 38.7633C89.8969 29.0845 84.9827 22.4611 70.7958 16.5C69.0865 15.7736 73.6588 14.1925 77.6542 14.1284C81.0514 14.0643 82.0983 13.402 82.0556 11.3081C82.0128 8.38098 76.2013 6.56488 70.4753 7.71864Z" fill="black"/>
<path d="M203.157 38.8955C200.658 40.5834 190.701 53.4243 189.483 56.5437C187.881 60.5818 190.829 62.7825 194.034 59.9622C196.32 57.9538 206.405 43.5105 206.896 41.5235C207.473 39.28 205.059 37.5921 203.157 38.8955Z" fill="black"/>
<path d="M19.5174 41.63C17.4876 43.4034 18.4918 44.7494 25.8844 50.3045C36.6315 58.3809 40.1782 59.9833 41.5242 57.3767C42.8276 54.8982 40.4346 52.5693 29.5593 45.6468C22.5727 41.224 20.8207 40.519 19.5174 41.63Z" fill="black"/>
<path d="M152.712 56.4121C141.495 59.5102 135.513 78.0131 141.389 91.5377C146.58 103.524 159.357 107.925 167.049 100.362C172.07 95.4476 169.036 91.3667 162.605 94.358C157.883 96.5373 155.212 96.2809 152.029 93.2897C150.405 91.7727 147.35 86.538 147.862 86.1535C147.905 86.1107 148.354 85.9184 148.888 85.7261C153.866 83.7818 160.105 76.3465 162.263 69.7872C164.955 61.6041 159.849 54.4465 152.712 56.4121ZM155.875 63.0356C158.075 64.9158 154.977 72.0947 149.785 77.1798C146.602 80.3206 146.666 80.3206 146.815 77.5644C147.221 70.3854 150.533 63.8902 154.4 62.7364C155.234 62.4801 155.212 62.4801 155.875 63.0356Z" fill="black"/>
<path d="M232.322 56.8991C230.656 57.1341 218.563 61.1081 212.025 63.5866C200.829 67.817 197.282 69.6331 197.154 71.2356C196.983 73.1158 198.009 74.2695 199.867 74.2695C202.666 74.2695 230.271 64.8685 234.031 62.6038C238.924 59.6766 237.877 56.1513 232.322 56.8991Z" fill="black"/>
<path d="M102.246 58.9782C101.007 60.1106 101.05 60.5165 103.165 72.5669C106.968 94.2746 107.609 96.4539 110.323 97.3513C112.395 98.035 113.698 97.0949 115.237 93.8046C117.651 88.6767 120.365 85.7923 123.954 84.5318C128.12 83.0575 129.808 84.9591 130.642 92.1167C131.368 98.5264 131.817 99.4879 134.039 99.552C136.88 99.6588 138.013 96.6035 137.372 90.6638C135.855 76.6691 124.275 72.3318 114.553 82.096C113.463 83.1857 112.566 84.019 112.566 83.9549C112.566 82.1815 107.054 61.1575 106.22 59.726C105.451 58.4226 103.293 58.0167 102.246 58.9782Z" fill="black"/>
<path d="M81.1794 59.9596C80.047 61.092 80.1752 63.2073 82.0126 73.8047C82.8245 78.5266 82.8459 78.1847 81.6494 78.6121C75.3465 80.9196 75.6242 85.8551 81.9699 84.7227C82.8886 84.5518 83.7005 84.4236 83.8074 84.4236C83.9142 84.4236 84.3202 85.8124 84.7047 87.5003C87.1191 97.8841 88.7429 100.939 91.3709 99.9993C93.7852 99.1447 93.7211 96.6235 90.8581 83.2485C90.7299 82.7143 90.8154 82.6716 93.7639 81.7956C99.4258 80.1077 101.605 78.8685 102.097 77.0524C103.144 73.1638 98.0157 72.416 90.3667 75.3217C89.7257 75.5567 89.1916 75.749 89.1702 75.7063C89.1488 75.6849 88.7856 74.0184 88.3369 72.0314C87.1618 66.7326 85.9012 61.9039 85.4312 60.9211C84.6193 59.2332 82.4186 58.7418 81.1794 59.9596Z" fill="black"/>
<path d="M4.02739 67.5864C-0.523545 68.4197 -1.03633 72.0732 3.21549 73.2911C7.36047 74.4876 33.555 76.6242 34.9652 75.8977C36.3326 75.1927 36.6317 73.1629 35.5421 72.1373C34.1533 70.834 19.6459 68.4624 8.83471 67.7573C7.78779 67.6932 6.37764 67.6078 5.73666 67.565C5.09568 67.5223 4.32651 67.5223 4.02739 67.5864Z" fill="black"/>
<path d="M55.5406 75.5773C54.3868 76.7311 54.515 77.5002 56.6089 82.0084C60.6684 90.7257 64.3219 101.665 65.668 109.207C65.8603 110.254 66.0526 111.28 66.0953 111.451C66.1808 111.728 65.7535 111.771 63.1468 111.771C51.1178 111.814 41.61 121.343 41.6314 133.393C41.6527 147.623 55.0278 155.806 64.9843 147.687C77.291 137.667 78.0388 114.015 66.8645 88.696C61.6512 76.9447 58.1899 72.9279 55.5406 75.5773ZM66.9927 123.992C66.5654 138.97 58.2327 148.627 51.9297 141.47C45.52 134.184 51.0324 121.749 61.4589 119.997C66.5654 119.142 67.1209 119.548 66.9927 123.992Z" fill="black"/>
<path d="M207.837 85.4695C206.705 85.8755 205.743 87.0079 205.829 87.8412C206.021 89.5932 206.747 90.2555 209.397 91.1101C226.318 96.5798 233.07 96.8362 233.07 91.9861C233.07 88.5462 228.519 87.2429 209.568 85.2986C209.033 85.2345 208.264 85.32 207.837 85.4695Z" fill="black"/>
<path d="M36.9092 86.2385C34.3026 86.965 18.4919 99.6349 17.039 102.156C15.3938 105.019 17.5304 107.327 20.6925 106.13C23.7479 104.955 37.6143 93.6311 39.6227 90.6399C41.2465 88.2256 39.5586 85.5121 36.9092 86.2385Z" fill="black"/>
<path d="M183.074 95.9605C174.293 97.7125 167.904 106.302 167.135 117.369C166.964 119.869 167.413 119.527 162.349 121.194C158.717 122.369 157.862 123.587 158.995 125.937C159.764 127.561 162.178 127.774 166.494 126.599C167.306 126.386 168.011 126.215 168.033 126.257C168.054 126.279 168.46 127.326 168.951 128.565C174.079 141.705 191.428 147.004 203.564 139.141C210.914 134.398 208.735 128.479 200.829 131.706C189.142 136.513 179.421 133.842 176.558 125.061C176.237 124.035 176.002 123.159 176.045 123.117C176.087 123.074 177.199 122.497 178.502 121.835C186.172 117.946 191.856 112.519 193.714 107.349C196.214 100.383 190.659 94.4436 183.074 95.9605ZM186.984 104.678C186.835 107.114 183.224 110.853 177.797 114.207C175.81 115.425 175.81 115.425 176.472 113.246C178.139 107.819 182.326 103.674 185.959 103.823C187.027 103.866 187.027 103.866 186.984 104.678Z" fill="black"/>
<path d="M133.676 103.761C132.522 104.659 132.351 108.376 133.142 114.658C133.526 117.628 134.231 117.179 128.334 117.777C121.241 118.482 120.92 118.611 120.749 120.576C120.514 123.311 121.882 123.867 129.873 124.294C132.394 124.422 134.488 124.55 134.509 124.572C134.509 124.572 134.979 127.52 135.535 131.11C137.457 143.801 137.949 145.339 140.299 145.874C144.273 146.771 144.914 142.113 142.692 128.439C141.987 124.08 141.731 124.572 144.765 124.422C150.384 124.144 153.076 121.88 151.473 118.76C150.555 116.987 148.974 116.538 143.995 116.602C140.47 116.645 140.47 116.645 139.444 112.073C137.522 103.484 136.282 101.689 133.676 103.761Z" fill="black"/>
<path d="M90.2386 112.843C78.8933 115.343 74.2997 129.188 82.1837 137.072C88.2943 143.14 97.2466 142.819 102.695 136.345C103.656 135.192 103.656 135.192 104.639 136.025C112.267 142.456 127.159 143.332 127.159 137.35C127.159 135.32 125.193 134.273 120.365 133.781C111.989 132.905 107.246 130.705 105.943 127.094C104.169 122.244 99.2764 123.034 98.379 128.333C97.4603 133.717 90.901 135.619 87.6961 131.41C83.7647 126.261 90.6232 118.355 96.9261 120.77C99.1695 121.624 100.943 120.962 101.328 119.124C102.118 115.108 95.9006 111.582 90.2386 112.843Z" fill="black"/>
</svg>
