<svg width="105" height="110" viewBox="0 0 105 110" fill="none" xmlns="http://www.w3.org/2000/svg">
<path d="M59.2038 1.16493C57.6654 1.69908 55.8707 2.83147 54.4819 4.11342C53.3068 5.22445 53.3068 5.22445 52.6658 4.51937C49.3968 0.780343 45.0382 3.08786 44.8459 8.68572C44.44 20.1806 54.076 23.8341 60.8703 14.775C66.9169 6.74143 65.934 -1.22805 59.2038 1.16493ZM61.9173 4.32708C63.3488 6.05772 57.7723 14.4972 54.0973 16.1851C51.1488 17.5312 47.8158 13.8349 47.7089 9.11304C47.6448 5.16035 49.4182 5.07489 51.4266 8.94211C52.8795 11.7197 54.8451 11.8692 54.8451 9.1985C54.8451 7.31831 60.9131 3.13059 61.9173 4.32708Z" fill="black"/>
<path d="M70.5269 7.62189C66.2965 8.2415 62.9207 11.1473 64.9932 12.3651C65.5914 12.707 65.6982 12.707 66.2751 12.4078C72.1935 9.26706 77.4281 10.9336 76.1675 15.5914C75.6761 17.4288 76.9153 18.6681 78.646 18.0912C82.8123 16.7238 85.4189 18.9672 83.5601 22.3003C82.385 24.4368 83.1114 25.5479 85.3121 24.971C89.3503 23.8813 91.5723 26.1247 90.5254 30.2056C89.8844 32.7054 91.9783 33.09 93.1961 30.697C95.0763 27.0007 92.427 22.7276 87.8547 22.0439C86.9573 21.8943 86.9359 21.8729 87.1282 21.3602C88.282 18.3048 84.6925 14.8863 80.2911 14.8863C79.7142 14.8863 79.6929 14.8649 79.7997 13.7325C79.992 11.4891 78.9664 9.82258 76.723 8.64745C74.6292 7.53643 72.9413 7.25867 70.5269 7.62189Z" fill="black"/>
<path d="M34.3543 9.11452C30.9999 9.8196 27.2822 13.0031 26.3849 15.9516C26.1285 16.7849 26.0644 16.8276 25.4234 16.7421C20.8725 15.9943 14.9327 20.588 14.5268 25.1389C14.3986 26.3782 14.3559 26.485 13.7362 26.7414C7.83926 29.2412 6.34365 36.2919 10.7664 40.8429C12.3902 42.5094 14.0567 41.1847 12.7534 39.2404C10.51 35.9073 11.7706 30.459 14.9541 29.6044C17.5607 28.8993 17.8599 28.5575 17.7103 26.3354C17.4325 22.0195 21.7271 18.9856 26.1285 20.3957C28.2651 21.0581 29.2692 20.3743 29.4829 18.0668C29.8889 13.7509 34.333 11.2725 38.9907 12.7254C42.3024 13.7509 42.6657 10.952 39.418 9.54184C38.1361 8.98633 35.8713 8.79403 34.3543 9.11452Z" fill="black"/>
<path d="M99.4994 33.2367C98.4524 33.5572 97.2132 34.305 96.1877 35.2237C95.1621 36.1638 95.1621 36.1638 94.3929 35.7792C88.7096 32.8735 83.9664 41.4839 87.5558 48.2355C91.2308 55.1154 98.7302 53.9402 102.234 45.9708C105.76 37.9372 104.414 31.7411 99.4994 33.2367ZM101.166 37.5312C101.358 40.8857 97.9824 47.7869 95.5894 48.9406C91.829 50.714 87.9404 43.535 90.5684 39.6678C91.7863 37.8731 92.8332 37.8944 93.7519 39.7105C94.9057 41.9753 96.9355 42.0181 96.9355 39.7746C96.9355 38.7491 97.6405 37.9799 99.713 36.8048C100.952 36.0997 101.08 36.1638 101.166 37.5312Z" fill="black"/>
<path d="M3.45944 44.647C0.831439 46.1212 -0.0659282 52.1464 1.57925 56.9964C5.19008 67.5725 14.6124 65.5855 18.0096 53.5565C20.0394 46.3135 15.5953 42.0617 10.5957 46.4631C9.84784 47.1254 9.84784 47.1254 8.90774 46.0357C7.32667 44.1983 5.21145 43.6428 3.45944 44.647ZM6.51477 48.5142C6.89935 49.0911 7.41213 50.2234 7.66852 51.0567C8.54452 53.9411 10.8307 54.3684 10.8307 51.6336C10.8307 49.5184 14.5483 46.9331 15.2961 48.5569C16.4926 51.2063 13.0527 58.8125 9.95467 60.415C6.30111 62.2738 2.22022 52.0395 4.95506 47.8732C5.40374 47.1681 5.66013 47.275 6.51477 48.5142Z" fill="black"/>
<path d="M97.1487 55.8426C96.6572 56.4836 96.6572 56.4836 97.4691 58.4279C100.161 64.8804 98.452 70.9697 93.4096 72.8071C90.5893 73.8541 90.0338 74.8583 91.0807 77.1444C92.9182 81.1826 90.8671 85.1994 86.6794 85.7121C84.5855 85.9899 84.0514 86.6522 83.8163 89.2589C83.2181 95.5832 78.6672 98.553 73.3471 96.0105C70.3986 94.6217 68.5397 95.9037 70.8259 97.7839C76.8724 102.826 84.7351 99.3649 86.8503 90.7118C87.2349 89.2161 87.2562 89.1734 88.0682 88.917C92.7686 87.5069 95.653 82.1227 94.5206 76.8453C94.3711 76.0975 94.3711 76.0975 95.6744 75.4779C101.294 72.8499 103.708 64.3676 100.631 58.257C99.3921 55.8213 97.9606 54.8171 97.1487 55.8426Z" fill="black"/>
<path d="M10.061 67.1257C6.85609 72.5954 9.78322 80.4794 16.1716 83.5561C17.5604 84.2398 17.5604 84.2398 17.3895 85.3935C16.5989 90.8846 22.5814 96.3329 29.0339 96.0337C30.9568 95.9483 30.9568 95.9483 32.367 97.3584C36.3837 101.332 43.6695 102.636 45.5924 99.73C46.5753 98.2772 45.8061 97.8071 43.0285 98.1917C38.8408 98.7686 34.6958 97.1234 33.4353 94.3886C32.7729 92.9143 32.4097 92.7861 28.9912 92.7648C22.9019 92.7648 19.2697 89.1539 20.5516 84.4321C21.043 82.5519 20.5089 81.7827 18.2014 81.1417C14.035 79.988 10.937 73.5568 12.1335 68.5145C12.2617 67.9803 12.3899 67.3821 12.4326 67.1898C12.5181 66.7411 11.7702 66.1642 11.1079 66.1642C10.7661 66.1642 10.4669 66.442 10.061 67.1257Z" fill="black"/>
<path d="M61.6175 87.3996C60.186 87.9124 56.9811 90.519 56.9811 91.1814C56.9811 91.2882 56.5751 91.0959 56.0837 90.7327C50.5713 86.7373 46.4263 92.8052 49.0543 101.01C52.4729 111.607 61.4038 112.163 65.3138 102.057C69.1596 92.036 67.4717 85.3271 61.6175 87.3996ZM64.2455 90.7113C65.9547 93.9376 61.7243 104.642 58.3058 105.646C55.0795 106.608 51.0841 99.7918 51.7678 94.5144C52.131 91.8864 53.5839 92.2924 55.806 95.6468C56.7674 97.1211 58.1776 97.9757 58.6903 97.4202C59.1604 96.9074 59.3527 95.6468 59.0963 94.7708C58.6049 93.1257 63.4763 89.2798 64.2455 90.7113Z" fill="black"/>
</svg>
