<svg width="583" height="431" viewBox="0 0 583 431" fill="none" xmlns="http://www.w3.org/2000/svg">
<path d="M43.747 0.810773C34.0256 2.43458 30.8634 20.7665 35.3289 49.5036C36.739 58.5628 37.4014 63.3915 37.2732 63.541C37.1877 63.6051 36.3117 62.8787 35.3075 61.9386C24.6032 51.8111 13.8989 50.8924 12.1042 59.9302C10.459 68.3697 18.5567 80.4201 38.3415 98.987C41.76 102.213 45.905 106.316 47.5502 108.11C51.8875 112.811 51.6524 112.64 53.148 112.64C59.1305 112.64 54.8787 105.397 41.9309 93.5601C29.9661 82.6208 23.6845 75.3564 20.2446 68.5406C14.7322 57.5372 20.2873 57.1099 31.9531 67.6219C40.7345 75.5059 44.8581 72.6002 43.1274 59.7593C42.9779 58.6482 42.5719 55.892 42.2301 53.67C38.4483 29.5052 38.2987 18.3094 41.5891 10.2118C43.3197 5.95995 44.7085 5.31898 46.9306 7.73332C50.5628 11.7287 52.8916 19.9332 56.0324 39.889C59.2801 60.4643 61.3098 65.1007 66.9931 65.1007C71.3304 65.1007 74.2575 61.9386 81.2655 49.6746C86.4147 40.6368 89.8974 35.8508 91.1152 36.0859C92.7604 36.4063 93.8928 43.6494 93.6791 52.7085C93.4868 60.4643 93.1877 64.0538 90.9657 84.8642C88.6795 106.444 88.765 110.119 91.6066 110.055C94.662 109.969 96.9268 96.7009 99.5548 63.2846C101.221 42.1324 98.2942 30.0607 91.5212 30.0607C86.4788 30.082 83.509 33.2228 75.8172 46.6833C70.8604 55.3793 68.3392 58.9046 67.1 58.9046C65.9035 58.9046 64.3438 52.9008 61.9935 39.1412C56.9939 9.78444 52.0584 -0.57801 43.747 0.810773Z" fill="black"/>
<path d="M128.035 33.923C119.873 34.7349 101.947 50.0542 103.208 55.118C103.891 57.8101 106.861 57.5109 109.404 54.477C114.297 48.6441 123.804 41.0592 127.373 40.1832C128.184 39.9909 128.099 40.4182 126.176 45.3324C123.356 52.5327 123.121 55.2462 125.172 57.1691C127.714 59.5834 130.406 59.1347 140.491 54.6052C148.332 51.0798 151.644 50.0756 151.345 51.3362C150.661 54.1138 147.243 59.1561 140.577 67.2111C132.671 76.7402 136.923 80.4793 145.469 71.5483C154.272 62.3824 159.144 52.8532 157.434 48.2595C155.597 43.3454 150.341 43.4949 138.184 48.7937C135.449 49.9901 131.838 51.4644 130.962 51.7208C130.513 51.8703 130.513 51.8062 131.368 49.456C135.684 37.6193 134.744 33.2393 128.035 33.923Z" fill="black"/>
<path d="M505.208 65.3933C501.148 66.8462 496.64 72.3372 490.7 83.1483C488.713 86.7592 488.713 86.7592 488.222 83.4688C484.44 58.3212 469.591 63.6413 464.89 91.8015C463.501 100.134 465.745 106.202 468.971 102.741C469.975 101.651 469.932 101.929 470.616 95.2201C471.343 88.3189 475.445 77.1018 478.18 74.5379C479.163 73.6191 480.487 77.7855 481.855 86.2037C483.329 95.0705 484.269 96.9293 487.41 96.9293C489.931 96.9293 490.956 95.7328 495.101 88.0625C501.469 76.2472 506.447 69.8374 507.216 72.4013C508.434 76.5035 506.938 86.3746 501.96 106.971C498.862 119.769 498.926 121.436 502.43 120.731C504.267 120.346 507.152 112.334 510.912 97.143C516.51 74.4738 514.288 62.1457 505.208 65.3933Z" fill="black"/>
<path d="M124.082 80.9336C116.155 81.9378 108.976 85.1 108.763 87.6852C108.549 90.0782 110.386 90.6765 113.784 89.3731C131.624 82.4292 153.396 89.2236 153.46 101.744C153.481 110.055 148.033 113.367 129.744 116.166C112.908 118.73 108.784 121.037 104.318 130.374C103.827 131.421 102.695 133.793 101.797 135.63C97.4173 144.818 94.1269 146.933 80.0254 149.689C75.8591 150.501 74.6412 151.206 74.1071 153.065C73.3379 155.778 77.0128 156.718 84.1704 155.693C96.9686 153.813 103.079 148.984 108.528 136.357C113.228 125.503 114.574 124.605 130.171 122.148C133.226 121.657 136.453 121.123 137.329 120.952C138.418 120.76 138.953 120.717 138.995 120.866C139.444 122.17 144.144 127.404 146.815 129.52C152.52 134.113 156.921 133.387 157.861 127.725C158.46 124.135 157.904 117.555 156.665 113.645C156.109 111.893 156.109 111.893 156.857 110.654C166.792 94.5651 148.332 77.8142 124.082 80.9336ZM151.943 118.837C152.413 121.828 152.627 125.994 152.328 125.994C151.452 125.994 144.508 119.264 145.149 119.029C146.986 118.388 148.995 117.512 150.063 116.914C151.558 116.059 151.494 115.995 151.943 118.837Z" fill="black"/>
<path d="M136.731 98.5745C135.342 98.8523 133.547 101.822 133.782 103.489C134.06 105.604 136.303 106.309 138.055 104.856C141.324 102.121 140.427 97.8695 136.731 98.5745Z" fill="black"/>
<path d="M550.331 100.624C541.465 103.338 520.825 120.922 495.827 147.053C484.482 158.932 482.132 162.265 483.884 164.017C485.721 165.855 487.623 164.402 502.045 149.916C528.346 123.55 538.153 114.769 547.597 109.085C549.968 107.654 550.161 107.077 544.392 118.572C533.559 140.194 531.7 147.223 535.781 151.048C538.794 153.868 542.041 153.185 555.459 146.86C564.433 142.63 568.663 140.963 572.082 140.301C574.09 139.895 574.09 140.087 572.039 143.164C569.774 146.518 568.129 148.399 558.771 158.206C552.361 164.893 551.143 167.243 552.447 170.128C553.643 172.777 555.395 173.247 564.006 173.311C575.885 173.397 576.782 173.803 572.808 177.371C568.193 181.516 559.091 185.746 544.349 190.554C524.842 196.942 521.359 198.096 517.748 199.463C505.292 204.164 496.083 208.736 494.78 210.872C493.776 212.518 494.78 215.039 496.447 215.103C497.729 215.167 498.22 214.975 501.211 213.351C510.057 208.565 519.971 204.805 540.183 198.544C570.116 189.293 582.06 182.349 582.06 174.187C582.06 168.589 577.552 166.474 565.864 166.538C559.69 166.56 559.69 166.56 560.502 165.662C560.95 165.171 563.536 162.457 566.27 159.637C580.051 145.365 583.064 139.724 579.154 135.494C575.65 131.69 569.539 132.994 552.575 141.198C545.78 144.489 542.298 145.984 540.995 146.198C538.559 146.583 542.298 137.117 551.442 119.726C556.912 109.299 558.109 105.774 556.976 103.21C555.78 100.539 553.515 99.663 550.331 100.624Z" fill="black"/>
<path d="M461.642 108.044C448.523 109.219 437.947 117.039 436.558 126.632C436.43 127.508 436.259 127.743 434.593 129.196C424.487 138.063 421.987 142.528 426.068 144.387C427.286 144.943 436.687 144.152 442.861 142.956C444.87 142.571 445.212 142.806 447.711 146.246C451.344 151.246 451.707 160.903 449.271 188.059C446.259 221.689 452.049 237.927 471.684 250.939C481.811 257.648 488.456 259.378 488.456 255.276C488.456 253.374 487.837 252.84 481.747 249.593C458.416 237.094 452.54 223.313 455.553 188.166C458.544 153.275 457.711 147.058 448.801 137.806C441.302 129.986 441.045 125.051 447.925 119.859C459.74 110.949 478.436 113.748 484.824 125.371C487.623 130.457 492.003 127.38 489.76 121.91C486.832 114.688 477.645 109.027 467.304 108.044C464.761 107.809 464.377 107.809 461.642 108.044ZM437.947 134.153C437.947 134.302 438.417 135.157 438.994 136.054C440.02 137.657 440.02 137.657 436.558 138.191C433.097 138.704 433.097 138.704 435.362 136.311C437.605 133.939 437.947 133.661 437.947 134.153Z" fill="black"/>
<path d="M42.0796 109.238C40.7976 109.901 39.0029 112.166 36.6099 116.182C30.4779 126.459 26.803 131.245 15.5431 143.616C1.12116 159.448 -1.42138 163.486 0.86477 166.926C2.7236 169.704 5.62936 169.554 16.0773 166.157C20.8419 164.597 23.7049 163.764 23.8117 163.892C23.9399 164.021 23.128 166.841 21.5256 171.776C17.0815 185.557 16.6755 189.531 19.389 192.159C22.9144 195.578 28.5336 193.185 44.088 181.626C46.3955 179.917 48.297 178.549 48.3398 178.592C48.3611 178.635 47.8697 180.472 47.2501 182.716C41.6309 202.629 42.2291 211.367 48.9807 208.269C52.6343 206.603 62.3985 188.955 69.727 170.793C74.0216 160.175 74.3207 157.611 71.3295 156.948C69.4493 156.521 69.1929 156.863 66.629 163.059C62.5267 173.037 50.7328 196.86 50.4123 195.877C50.2841 195.492 52.2925 186.967 53.8094 181.434C56.1597 172.93 56.0529 171.007 53.1685 170.024C50.9037 169.277 50.0277 169.704 41.289 176.071C32.9136 182.16 24.4527 187.523 23.9613 187.053C23.5981 186.668 25.1151 180.793 27.7217 172.46C32.7213 156.478 30.777 154.812 13.2997 160.26C7.95824 161.927 8.236 162.098 10.9067 158.871C13.1502 156.179 14.6244 154.534 21.7606 146.693C32.6786 134.749 37.6782 127.869 42.3573 118.468C45.7118 111.738 45.5836 107.486 42.0796 109.238Z" fill="black"/>
<path d="M185.616 112.043C176.386 112.727 166.878 115.056 164.421 117.214C161.814 119.478 163.972 122.726 167.134 121.316C172.604 118.902 187.218 117.256 197.474 117.897C213.221 118.859 224.096 122.256 250.889 134.541C293.321 153.984 317.123 161.334 342.762 162.937C364.897 164.325 378.528 161.719 398.527 152.318C417.436 143.43 418.184 142.938 417.115 140.374C415.897 137.468 413.654 138.045 398.634 145.16C378.037 154.924 369.234 157.082 350.881 156.869C323.426 156.548 300.436 149.989 254.094 129.2C226.04 116.615 215.977 113.41 200.465 112.107C198.136 111.915 187.923 111.872 185.616 112.043Z" fill="black"/>
<path d="M454.035 121.438C452.112 123.126 453.928 129.621 456.45 130.112C459.035 130.604 459.932 128.211 458.672 124.194C457.796 121.352 455.616 120.07 454.035 121.438Z" fill="black"/>
<path d="M140.427 138.213C137.435 139.837 125.171 154.344 119.488 162.955C111.433 175.176 107.972 183.231 103.036 201.242C96.5198 224.959 93.1653 232.009 75.6453 258.781C73.4232 262.178 70.5602 266.558 69.2996 268.481C39.131 314.567 31.247 337.621 34.0246 371.699C35.0715 384.669 35.6056 386.741 38.0841 387.211C40.4343 387.638 41.3958 386.463 42.3572 382.041C47.9124 356.209 64.4068 325.378 91.0501 291.043C107.352 270.019 113.356 261.11 120.364 247.457C124.659 239.103 127.287 233.035 132.885 218.613C139.081 202.653 145.255 182.633 150.597 161.032C152.242 154.387 154.015 147.507 154.507 145.755C155.981 140.691 155.981 139.196 154.528 138.491C151.238 136.931 149.294 141.14 144.721 159.75C140.576 176.629 136.367 190.474 130.214 207.503C117.501 242.607 110.344 255.832 88.8922 283.672C77.205 298.884 71.4362 307.004 64.6205 317.879C53.9376 334.971 46.3527 350.184 41.5026 364.307C39.6651 369.67 39.7506 369.798 39.5583 361.123C38.9173 332.664 46.5022 314.097 79.0425 264.314C98.7205 234.231 101.519 228.27 109.339 199.811C115.236 178.381 123.313 164.279 140.747 144.901C143.952 141.354 144.315 140.649 143.738 139.132C143.375 138.192 141.452 137.636 140.427 138.213Z" fill="black"/>
<path d="M247.043 145.089C244.543 146.179 243.133 150.281 244.8 151.648C246.509 153.08 248.517 152.247 250.141 149.426C251.658 146.777 249.65 143.957 247.043 145.089Z" fill="black"/>
<path d="M435.746 150.176C435.127 150.753 434.764 151.458 433.759 154.086C427.179 171.393 415.128 190.536 404.146 201.113C381.99 222.436 350.732 227.478 308.107 216.56C285.266 210.727 267.084 202.822 232.941 183.892C210.614 171.521 199.952 166.201 187.56 161.244C171.984 155.026 157.434 152.142 155.02 154.791C153.183 156.821 154.315 158.808 157.242 158.723C169.015 158.338 193.863 168.53 226.211 187.032C229.907 189.148 233.561 191.22 234.33 191.626C235.099 192.032 237.706 193.485 240.12 194.852C269.306 211.24 292.68 220.385 317.871 225.32C369.704 235.448 403.698 221.709 427.691 181.007C428.653 179.362 429.379 178.208 429.315 178.443C419.102 214.402 412.351 228.568 391.989 256.856C377.46 277.047 372.076 285.529 365.752 298.199C354.684 320.42 351.223 335.867 351.202 363.258C351.18 388.769 347.505 403.042 337.079 418.297C334.686 421.779 334.387 422.014 334.216 420.519C333.746 416.78 334.707 397.593 336.16 381.953C338.19 360.011 338.232 359.135 338.254 350.225C338.254 342.234 338.083 339.2 336.993 329.18C335.839 318.668 335.754 317.108 335.882 312.087C336.245 298.99 340.155 288.969 353.082 268.073C365.282 248.374 367.183 244.272 368.102 235.661C368.893 228.29 363.679 226.666 362.44 233.888C360.816 243.289 359.662 245.725 348.317 264.014C330.498 292.772 327.785 302.836 330.69 329.5C332.506 346.315 332.442 352.191 330.156 376.398C327.229 407.336 327.079 425.39 329.729 428.467C333.382 432.761 338.852 428.723 346.181 416.352C354.876 401.674 357.761 389.09 358.145 364.433C358.509 341.059 359.876 331.765 365.004 317.578C371.371 300.037 379.405 286.256 400.023 257.604C417.991 232.627 425.769 215.962 434.657 183.507C438.31 170.111 441.066 153.403 439.977 151.116C439.186 149.471 437.071 149.001 435.746 150.176Z" fill="black"/>
<path d="M520.42 211.284C518.048 213.827 523.881 225.086 543.068 254.934C558.302 278.608 563.451 289.825 559.092 289.74C555.588 289.675 549.371 285.616 539.991 277.305C532.363 270.553 529.436 272.113 530.141 282.539C530.483 287.752 530.953 297.581 530.846 297.688C530.804 297.73 529.137 294.91 527.15 291.406C520.228 279.313 519.117 277.903 516.531 277.903C513.497 277.903 512.6 279.698 512.215 286.535C511.98 290.829 511.98 290.829 510.933 287.945C504.631 270.489 496.682 254.379 494.225 254.037C491.896 253.738 491.426 255.64 492.943 259.165C497.922 270.809 504.801 288.928 508.946 301.256C512.579 312.11 513.049 312.836 515.783 312.067C518.176 311.405 518.283 310.806 518.283 298.35C518.305 288.265 518.305 288.265 518.946 289.334C519.288 289.91 521.104 292.987 522.941 296.171C530.398 308.969 532.641 311.02 535.547 307.708C536.765 306.341 537.235 294.696 536.487 285.06C536.38 283.522 536.295 282.261 536.337 282.219C536.359 282.197 537.278 282.945 538.389 283.885C553.43 296.854 565.117 299.162 565.865 289.312C566.378 282.667 562.682 274.954 546.636 249.23C539.713 238.12 533.667 228.056 529.714 221.07C528.09 218.185 526.402 215.194 525.954 214.425C524.202 211.391 521.659 209.959 520.42 211.284Z" fill="black"/>
<path d="M185.466 122.466C184.783 122.744 183.65 124.261 183.351 125.223C183.287 125.479 181.663 129.56 179.783 134.325C175.788 144.388 175.659 144.965 176.92 146.161C178.416 147.571 180.317 147.23 181.77 145.285C187.774 137.252 196.171 135.927 200.166 142.379C200.743 143.32 200.786 143.298 198.094 143.533C187.517 144.452 181.706 151.439 187.261 156.545C192.56 161.438 206.341 156.395 206.341 149.558C206.341 149.323 206.533 149.281 207.153 149.366C207.58 149.43 208.755 149.537 209.759 149.601C211.875 149.772 221.681 150.947 222.13 151.097C222.322 151.182 221.446 152.208 219.673 154.045C209.076 164.92 214.802 174.834 228.348 169.065C228.604 168.959 228.647 169.13 228.604 170.07C228.326 174.364 231.98 176.907 237.962 176.565C239.992 176.458 239.992 176.458 239.992 177.676C240.035 185.368 254.329 187.312 260.525 180.453C261.102 179.813 261.251 179.962 261.251 181.287C261.251 187.782 267.447 192.141 274.541 190.624C275.929 190.346 276.036 190.346 277.233 190.837C281.976 192.76 288.984 192.29 293.193 189.748C294.561 188.936 294.582 188.978 293.834 191.307C292.787 194.619 291.719 195.623 289.198 195.666C284.219 195.73 283.322 200.559 288.065 201.862C292.168 202.994 296.291 200.922 298.385 196.649C300.885 191.521 301.654 181.735 299.667 180.112C297.894 178.659 296.398 179.086 293.663 181.842C290.651 184.876 287.873 186.222 284.668 186.244C283.621 186.244 283.621 186.244 284.754 185.111C290.33 179.556 291.185 172.569 286.527 170.305C280.245 167.207 269.648 176.287 270.844 183.722C271.037 184.919 270.866 184.983 269.477 184.342C265.524 182.526 267.063 175.689 274.22 163.233C276.635 159.066 276.378 157.207 273.408 156.823C271.977 156.631 271.421 157.079 269.156 160.327C258.217 176.095 250.333 182.099 246.295 177.804C244.137 175.518 251.679 171.437 255.546 172.783C259.456 174.151 262.042 170.219 258.837 167.784C255.931 165.561 253.132 165.711 246.145 168.382C240.825 170.433 236.103 171.288 234.779 170.454C233.967 169.941 236.809 165.754 240.911 161.416C244.158 157.977 244.607 156.652 242.962 155.242C241.509 153.981 240.355 154.259 237.257 156.631C229.843 162.207 222.75 165.561 220.677 164.472C219.673 163.916 221.404 161.224 225.656 156.823C234.052 148.084 232.129 146.225 212.43 144.153C205.828 143.469 206.405 143.597 206.255 142.828C204.631 134.709 193.82 130.756 185.146 135.136C185.082 135.179 185.723 133.128 186.599 130.586C188.693 124.496 188.735 123.257 186.898 122.488C186.257 122.231 186.043 122.231 185.466 122.466ZM199.824 150.157C197.794 152.208 193.158 153.49 191.983 152.315C191.064 151.396 196.171 149.387 199.717 149.302C200.657 149.281 200.657 149.281 199.824 150.157ZM282.937 176.821C282.232 178.83 280.48 180.945 278.28 182.441C276.912 183.381 276.763 183.359 276.784 182.312C276.827 180.646 279.241 177.74 281.549 176.565C283.151 175.753 283.301 175.796 282.937 176.821Z" fill="black"/>
<path d="M400.792 161.415C399.36 162.184 398.869 163.488 398.634 167.227C397.95 177.205 394.831 185.409 390.9 187.439C389.276 188.294 388.913 183.7 390.301 179.576C392.395 173.337 392.716 169.962 391.284 168.893C388.464 166.821 386.306 169.855 384.554 178.38C382.973 186.029 373.038 199.852 373.123 194.297C373.166 191.178 374.662 189.234 377.183 189.041C379.789 188.849 380.623 188.059 380.409 186.05C380.088 183.038 374.811 182.632 370.88 185.324C369.085 186.563 367.611 188.55 365.367 192.716C364.214 194.896 364.214 194.896 364.32 192.759C364.406 191.584 364.598 190.088 364.769 189.447C365.56 186.52 364.919 184.768 362.91 184.448C361.351 184.191 360.154 185.153 359.641 187.054C358.146 192.674 355.048 198.741 352.804 200.472C351.565 201.412 351.009 200.344 350.903 196.819C350.774 191.904 347.035 191.092 344.792 195.494C343.275 198.442 341.929 199.682 341.373 198.635C339.686 195.494 342.784 188.379 345.134 189.981C347.762 191.755 350.133 188.806 348.616 185.644C346.608 181.499 340.262 183.059 336.908 188.529C331.353 197.566 337.784 209.147 345.518 204.062C346.33 203.506 346.33 203.506 347.42 204.724C350.582 208.292 355.219 207.288 358.915 202.224C359.534 201.369 360.069 200.622 360.111 200.579C360.154 200.515 360.453 200.728 360.774 201.028C363.017 203.121 365.709 202.566 368.038 199.532C368.572 198.827 368.572 198.827 369.106 199.489C372.525 203.869 380.259 199.959 385.109 191.392C385.131 191.349 385.451 191.669 385.815 192.097C391.925 199.041 402.758 188.187 404.595 173.252C404.937 170.346 404.937 170.346 405.621 171.842C406.796 174.363 406.689 177.055 405.279 180.324C403.292 184.939 407.885 187.332 410.364 182.995C414.231 176.265 412.906 169.62 406.497 163.466C404.082 161.137 402.416 160.539 400.792 161.415Z" fill="black"/>
<path d="M363.38 172.934C361.051 173.789 360.495 178.81 362.653 179.622C364.939 180.498 366.798 178.874 366.798 176.032C366.798 173.767 365.153 172.293 363.38 172.934Z" fill="black"/>
<path d="M326.225 182.543C325.135 182.928 322.614 185.342 321.717 186.838C321.054 187.928 321.119 187.928 320.307 186.71C317.871 182.971 313.683 183.398 310.82 187.65C309.752 189.274 309.752 189.274 309.752 187.906C309.752 184.338 305.949 183.483 305.073 186.859C304.774 187.992 304.368 199.209 304.539 201.837C304.966 208.759 309.602 208.759 311.547 201.837C313 196.709 315.157 191.154 315.692 191.154C315.82 191.154 316.162 192.222 316.461 193.525C318.02 200.149 321.375 200.427 324.58 194.188C327.101 189.274 327.08 189.274 326.439 193.931C324.815 205.362 325.691 211.259 329.323 213.31C332.464 215.105 334.066 212.669 332.571 208.375C331.737 205.939 331.673 202.606 332.378 197.35C334.024 185.342 332.015 180.492 326.225 182.543Z" fill="black"/>
</svg>
