<svg width="492" height="112" viewBox="0 0 492 112" fill="none" xmlns="http://www.w3.org/2000/svg">
<path d="M195.798 0.809943C179.133 4.93356 177.103 36.0637 191.76 62.8565C195.563 69.8004 199.195 74.8427 206.161 82.7908C207.143 83.9446 204.857 82.6199 199.644 79.0518C184.474 68.6894 180.543 66.51 173.706 64.6939C161.143 61.3822 151.079 64.0743 133.089 75.5478C124.073 81.3166 120.697 83.325 116.808 85.2693C104.48 91.4654 93.7547 92.0423 82.7299 87.1281C78.6062 85.2907 75.2732 83.1754 64.7184 75.6974C39.6349 57.921 14.7436 56.7031 3.24875 72.7062C-6.17361 85.8248 6.64593 102.106 21.0252 95.2899C28.0759 91.9568 29.2724 80.7184 22.3712 82.5558C21.7516 82.7268 21.0252 84.2437 21.0252 85.3548C21.0252 90.4398 10.4277 90.3116 8.227 85.2052C4.5307 76.5947 16.1751 67.9629 30.6398 68.6039C41.0236 69.074 49.0572 72.5139 63.0946 82.5345C90.9985 102.405 103.327 102.426 134.777 82.5345C160.929 65.9973 168.749 66.0186 192.7 82.6199C205.926 91.7645 212.549 95.0335 220.155 96.1018C221.736 96.3368 222.185 96.4864 223.681 97.4478C244.149 110.331 270.942 114.84 293.547 109.22C303.247 106.806 310.063 103.665 324.955 94.713C340.103 85.5898 346.043 83.3036 352.218 84.1369C357.217 84.8206 359.311 86.594 364.268 94.2643C371.981 106.208 380.186 110.502 390.634 108.045C399.33 106.016 405.611 100.76 417.042 85.953C427.233 72.7275 429.263 72.2788 441.549 80.3124C465.457 96.0163 491.716 91.1449 491.78 70.9969C491.823 53.9469 469.623 44.6314 465.735 60.0789C464.367 65.5699 469.025 67.2151 472.102 62.3437C476.375 55.6348 486.161 65.3136 483.917 73.9881C480.905 85.5684 461.547 85.8034 444.348 74.4795C428.815 64.2666 423.58 65.5913 410.183 83.1754C393.24 105.417 381.19 107.938 370.571 91.4227C364.311 81.7012 360.764 78.7313 353.906 77.428C345.658 75.8469 338.18 78.4322 320.746 88.8588C307.969 96.5077 301.452 99.5844 293.462 101.785C275.771 106.635 254.554 104.648 236.607 96.4437C233.253 94.9053 233.295 94.9694 234.962 94.4139C253.166 88.346 277.224 58.8183 283.185 35.209C287.116 19.6974 282.65 7.43337 271.54 3.13882C257.909 -2.13855 241.778 6.83512 232.355 24.9534C230.924 27.7096 230.924 27.7096 230.219 26.2781C222.206 9.95454 206.332 -1.7967 195.798 0.809943ZM201.631 8.18117C209.878 10.3178 219.044 19.3983 225.454 31.7691C227.826 36.3628 228.787 37.3456 230.838 37.3456C233.039 37.3456 233.872 36.4482 236.692 30.9786C246.905 11.1938 263.293 2.92517 273.057 12.6466C289.082 28.6283 252.995 87.5127 226.138 89.1792C219.92 89.5852 203.105 70.9969 195.563 55.4211C184.132 31.7691 187.636 4.52761 201.631 8.18117Z" fill="black"/>
</svg>
