<svg width="314" height="326" viewBox="0 0 314 326" fill="none" xmlns="http://www.w3.org/2000/svg">
<path d="M200.528 0.325679C189.653 1.73583 188.093 19.5122 197.75 31.9258C198.712 33.165 198.819 33.4001 198.434 33.4001C196.319 33.4001 189.396 38.5493 186.555 42.2242C178.799 52.2662 184.097 63.4619 195.272 60.6202C201.66 59.0178 209.523 50.8774 212.557 42.7797C213.006 41.5618 213.006 41.5618 215.826 42.3096C226.103 44.9804 231.06 46.9674 237.299 50.9415C239.734 52.4798 239.734 52.4798 237.833 53.249C227.428 57.5435 219.373 68.2478 221.979 74.3157C226.252 84.2082 244.05 77.0719 249.199 63.3978C249.883 61.5603 249.883 61.5603 251.528 63.4405C255.331 67.7992 259.968 74.4012 263.643 80.6614C265.544 83.9304 265.544 83.9304 264.198 84.1868C252.853 86.302 244.798 98.8438 251.528 103.929C256.186 107.454 265.715 104.078 270.373 97.2627C271.398 95.7671 271.398 95.7671 271.698 96.3226C271.847 96.6431 273.514 100.339 275.394 104.57C280.394 115.851 280.864 116.706 282.381 117.048C283.876 117.368 285.521 115.723 285.265 114.142C284.88 111.642 279.347 97.7541 276.441 91.9426C275.629 90.3402 275.629 90.3402 278.663 90.3188C291.824 90.2333 302.935 78.2471 296.568 70.9827C291.739 65.4703 277.808 69.5512 271.099 78.418C270.138 79.6786 270.138 79.6786 268.386 76.7301C264.796 70.7263 260.288 64.3379 256.592 60.022C255.502 58.7614 254.648 57.6931 254.69 57.6717C254.712 57.6504 255.417 57.3512 256.229 57.0094C266.634 52.6935 270.715 40.3226 263.942 33.5924C256.784 26.4562 244.563 33.4642 242.576 45.8564C242.448 46.6469 242.448 46.6469 241.55 46.0273C235.611 41.9464 229.137 39.1261 220.035 36.605C216.51 35.6435 213.411 34.7034 213.241 34.5752C213.219 34.5538 213.369 33.806 213.604 32.9514C218.112 16.4142 211.104 -1.04174 200.528 0.325679ZM203.22 6.77818C207.75 8.65838 210.335 23.4008 207.536 31.4344C207.13 32.5882 202.109 26.8621 200.271 23.2085C196.191 14.9827 198.049 4.59886 203.22 6.77818ZM258.878 37.481C261.292 38.6561 261.891 42.3737 260.16 45.6214C257.66 50.3219 249.199 53.8472 248.772 50.386C247.875 43.2284 254.156 35.1948 258.878 37.481ZM206.233 38.8911C208.049 39.7457 201.425 49.6168 197.088 52.5225C193.349 55.001 190.55 54.8728 190.55 52.2234C190.55 47.0315 202.323 37.0109 206.233 38.8911ZM243.965 57.9281C243.965 64.1242 234.371 73.4611 229.308 72.2005C227.641 71.7732 230.782 66.7309 234.948 63.1841C238.516 60.1288 243.965 56.9666 243.965 57.9281ZM291.611 75.1277C294.26 76.4523 288.94 81.4306 283.321 82.9048C280.394 83.6526 275.202 83.8877 275.543 83.2467C277.915 78.8453 288.427 73.5252 291.611 75.1277ZM266.399 90.7675C264.626 94.8911 260.78 98.096 256.806 98.6942C253.323 99.2284 260.374 91.8999 264.861 90.3188C266.848 89.6137 266.89 89.6351 266.399 90.7675Z" fill="black"/>
<path d="M144.826 4.45423C127.498 8.34282 130.148 43.7675 148.351 51.331C162.688 57.3134 179.225 40.413 179.225 19.7949C179.225 5.65072 167.281 -0.801778 157.517 8.0437C156.385 9.06926 156.385 9.06926 155.231 7.9155C152.347 4.94565 148.437 3.64233 144.826 4.45423ZM148.885 10.864C150.552 11.7186 152.325 14.133 153.18 16.7183C154.953 22.1666 160.316 21.2478 159.12 15.7141C158.457 12.5733 165.679 8.96243 169.098 10.7144C177.943 15.2226 170.615 40.413 159.098 45.0921C149.761 48.8739 139.912 38.02 139.912 23.8758C139.912 15.2013 144.441 8.62058 148.885 10.864Z" fill="black"/>
<path d="M109.252 16.2028C99.6804 17.9762 92.7151 30.3898 95.6636 40.4531C95.92 41.3291 96.1764 42.2478 96.2405 42.4829C96.326 42.8461 95.9627 43.1238 94.0398 44.1921C88.1856 47.397 79.1905 53.059 74.9601 56.1143C73.5927 57.1185 73.5927 57.1185 73.2508 55.9007C70.2596 45.004 55.6026 38.637 49.3424 45.4955C43.7873 51.5634 49.3637 62.5241 59.833 66.0708C61.4568 66.6263 61.4568 66.6263 59.7262 68.1219C53.2737 73.6984 44.0864 83.6122 39.8773 89.5947C38.809 91.133 38.9799 91.133 37.7407 89.5947C31.7796 82.2021 18.6396 79.339 14.6655 84.5737C9.53773 91.3039 18.896 101.859 30.3267 102.222C31.7369 102.265 31.7369 102.265 30.69 104.209C23.917 116.751 19.772 129.057 21.4385 131.621C22.4641 133.181 25.3912 132.583 25.3912 130.831C25.3912 128.993 30.6472 116.772 34.7067 109.144C37.3348 104.209 36.9502 104.551 38.4244 105.897C44.8983 111.901 55.3676 112.905 60.1749 107.991C67.6102 100.406 61.1364 89.9152 49.2356 90.2784C46.8212 90.3425 46.8212 90.3425 47.804 89.0819C51.479 84.4028 58.487 77.117 63.8071 72.4165C66.4351 70.0876 66.4351 70.0876 67.8239 71.6046C74.1695 78.5699 86.0703 79.8945 91.775 74.2967C97.8429 68.3356 93.6552 59.7251 84.0192 58.3791C81.9681 58.08 81.7758 58.2723 88.2069 54.2341C95.2363 49.8114 98.0993 48.2517 98.3344 48.679C103.355 57.3322 115.278 62.9728 121.73 59.7465C130.041 55.6015 125.17 43.1666 114.102 40.2181C112.35 39.748 112.35 39.748 113.141 39.0857C121.175 32.5691 123.632 23.1254 118.568 18.3821C116.26 16.2242 113.098 15.4764 109.252 16.2028ZM113.739 22.3776C116.367 23.4886 115.662 28.2959 112.286 32.3341C109.786 35.3253 102.159 40.3249 101.796 39.2353C99.189 31.2444 107.372 19.7282 113.739 22.3776ZM110.171 46.0082C115.213 46.6492 119.593 49.8541 119.679 52.9949C119.786 57.0971 111.068 53.8068 106.09 47.8671C104.68 46.2005 104.701 46.0723 106.368 45.9441C107.009 45.9014 107.735 45.8587 107.97 45.8373C108.205 45.816 109.21 45.9014 110.171 46.0082ZM59.8544 51.0933C63.7003 53.0163 67.482 57.3535 67.482 59.8747C67.482 61.9686 59.7476 59.4688 56.6709 56.3921C51.949 51.6488 54.0429 48.1876 59.8544 51.0933ZM83.6133 64.9171C90.1085 65.7717 89.553 71.3696 82.9723 71.3055C80.0452 71.2841 71.7125 67.0536 73.0799 66.2845C75.0883 65.1521 80.3016 64.4897 83.6133 64.9171ZM25.1776 89.381C28.1902 90.3852 31.0104 92.009 33.0188 93.9319C34.2153 95.0643 34.0871 95.1498 31.4164 95.1498C26.545 95.1498 21.994 92.9705 20.4984 89.9792C19.8147 88.5905 21.9727 88.2913 25.1776 89.381ZM53.872 97.7137C56.6068 98.7393 57.7178 100.726 56.5854 102.564C55.0257 105.128 50.6884 105.234 46.6289 102.82C45.1974 101.966 41.9498 98.9957 42.2062 98.782C43.7659 97.3291 51.0944 96.6668 53.872 97.7137Z" fill="black"/>
<path d="M300.22 119.846C297.72 120.381 294.815 121.898 292.593 123.799C291.353 124.846 291.353 124.846 290.541 124.205C280.478 116.236 268.171 130.764 271.504 146.639C275.457 165.377 291.268 170.89 303.019 157.621C318.167 140.529 316.351 116.3 300.22 119.846ZM305.027 126.555C312.292 130.978 298.874 157.408 289.366 157.408C278.534 157.408 273.449 129.931 284.068 128.735C286.225 128.5 287.465 129.782 288.448 133.286C290.157 139.396 296.054 137.601 294.622 131.405C294.409 130.465 294.494 130.337 296.631 128.756C299.836 126.363 303.233 125.466 305.027 126.555Z" fill="black"/>
<path d="M30.626 135.341C27.3143 135.833 24.1735 137.478 21.3105 140.191C19.879 141.516 19.879 141.516 18.7466 140.768C8.726 134.166 -2.25606 148.588 1.5257 163.331C6.50395 182.667 25.6905 185.444 36.8862 168.48C48.1247 151.451 44.6848 133.162 30.626 135.341ZM34.0446 141.751C42.3773 144.037 34.7496 167.07 24.024 171.984C13.9606 176.577 4.30326 161.151 9.94386 149.485C12.1445 144.935 15.1144 145.255 18.0843 150.383C21.2037 155.788 26.1392 153.63 24.0667 147.776C23.5326 146.217 23.5753 146.152 25.8401 144.4C28.7245 142.157 31.8439 141.153 34.0446 141.751Z" fill="black"/>
<path d="M282.957 174.777C269.027 176.828 267.04 196.1 279.453 208.92C281.611 211.142 281.227 212.039 271.954 226.91C271.676 227.337 271.634 227.316 270.907 226.077C265.245 216.483 250.909 216.996 248.879 226.867C247.511 233.533 254.284 241.076 261.634 241.076C262.852 241.076 262.938 240.905 259.84 245.05C254.092 252.677 249.157 257.997 242.811 263.36C241.102 264.813 241.102 264.813 240.824 263.681C238.922 256.181 230.953 253.81 225.611 259.172C221.488 263.317 221.36 269.3 225.291 273.295C226.616 274.62 226.616 274.62 225.312 275.411C218.347 279.513 206.083 284.982 197.302 287.91C192.088 289.64 192.152 289.598 191.618 290.495C190.379 292.503 191.832 294.512 194.524 294.512C199.951 294.533 219.714 286.35 231.338 279.278C232.513 278.573 232.513 278.573 233.196 279.962C236.764 287.076 247.768 288.636 251.806 282.568C254.52 278.487 252.426 272.804 247.17 270.048C245.93 269.385 245.674 269.193 245.909 268.979C246.08 268.83 247.319 267.74 248.665 266.565C254.52 261.437 261.827 253.211 266.613 246.374C267.724 244.751 267.724 244.751 269.241 246.31C271.676 248.746 274.304 249.836 277.872 249.836C291.29 249.857 292.188 232.593 278.877 230.521C277.296 230.286 277.296 230.286 279.026 227.508C281.398 223.748 285.073 217.53 286.632 214.731C287.914 212.445 287.914 212.445 288.79 213.492C294.986 220.821 307.592 218.834 312.015 209.796C317.784 198.045 308.447 188.729 296.674 194.498C294.602 195.524 294.73 195.673 295.286 193.109C297.614 182.234 291.718 173.474 282.957 174.777ZM285.735 181.486C290.393 182.768 290.307 190.738 285.479 202.232C284.282 205.117 284.218 205.095 281.676 201.335C274.924 191.25 277.381 179.2 285.735 181.486ZM305.627 199.647C308.255 200.908 308.02 205.608 305.157 208.792C301.973 212.317 297.337 211.954 293.256 207.873C291.547 206.164 291.547 206.164 293.021 204.796C297.807 200.416 302.913 198.322 305.627 199.647ZM260.566 226.504C263.792 227.508 266.548 230.606 266.954 233.64C267.147 234.965 266.848 235.35 265.908 235.072C265.523 234.965 264.69 234.879 264.049 234.879C259.476 234.858 255.502 232.102 255.502 228.918C255.502 226.59 257.596 225.585 260.566 226.504ZM279.069 236.824C283.128 237.935 282.915 243.084 278.813 243.063C276.185 243.063 271.591 239.153 272.552 237.743C273.108 236.909 277.296 236.332 279.069 236.824ZM232.598 263.382C233.282 263.745 233.966 264.877 234.436 266.48C235.739 270.902 231.893 272.184 229.436 268.168C228.004 265.796 230.355 262.228 232.598 263.382ZM241.123 274.406C243.196 274.876 245.888 277.034 245.888 278.21C245.888 279.876 241.529 278.893 240.055 276.928C238.922 275.368 238.709 273.851 239.692 274.086C239.863 274.129 240.525 274.278 241.123 274.406Z" fill="black"/>
<path d="M40.3262 180.293C31.6517 182.024 25.4342 191.232 25.8615 201.702C25.947 203.795 25.947 203.795 25.1778 202.962C15.1145 191.745 2.65819 190.527 0.799354 200.591C-1.25177 211.658 12.3369 221.508 26.8871 219.499C30.6048 218.987 29.8356 218.517 33.0832 223.388C38.6597 231.742 43.7448 238.75 49.599 246.164C52.8894 250.352 52.7826 250.117 51.6288 250.459C41.5441 253.45 33.361 264.667 36.6086 271.055C41.3732 280.478 58.2095 274.132 61.1366 261.804C61.4571 260.479 61.2434 260.351 63.9996 263.406C73.6998 274.068 81.9684 280.627 93.7837 286.951C96.9245 288.639 96.9245 288.639 95.7921 289.644C86.2415 298.04 86.4552 312.035 96.0912 312.014C102.757 311.992 111.945 303.98 113.611 296.716C113.868 295.626 113.868 295.626 116.154 296.352C122.264 298.297 132.007 300.668 136.238 301.224C138.759 301.566 140.532 299.75 139.592 297.763C139.058 296.652 138.545 296.438 132.883 295.006C118.931 291.481 117.243 290.84 117.949 289.366C120.448 284.174 119.871 276.525 116.624 271.568C110.022 261.505 97.7791 266.675 97.7364 279.537C97.715 282.208 97.715 282.208 95.5784 281.076C85.3869 275.606 77.0756 269.175 68.9565 260.415C67.1404 258.471 65.6448 256.804 65.6021 256.719C65.5807 256.633 66.2858 256.441 67.1832 256.291C78.9558 254.433 85.1519 241.015 77.8447 233.195C70.4521 225.268 58.4231 230.524 55.7524 242.852C55.4106 244.497 55.4106 244.497 53.0389 241.463C47.2915 234.05 36.0744 218.025 35.5403 216.423C35.4976 216.294 36.0531 215.739 36.7795 215.183C54.1286 202.129 56.6711 177.045 40.3262 180.293ZM43.9157 186.852C45.8386 187.792 45.1549 193.647 42.5056 198.86C40.8604 202.086 34.7925 209.885 33.9378 209.885C33.3182 209.885 32.2286 203.71 32.2286 200.313C32.2286 192.407 39.0657 184.523 43.9157 186.852ZM12.5933 201.039C15.9478 202.663 20.6483 206.744 24.2805 211.209C25.6265 212.876 25.6265 212.876 24.4941 212.897C23.8745 212.919 23.084 212.94 22.7208 212.961C15.3709 213.389 8.46971 209.286 7.23049 203.753C6.39722 200.12 8.49107 199.074 12.5933 201.039ZM71.9264 236.293C78.7421 239.69 73.8707 248.279 64.2774 249.839C63.5082 249.946 62.5895 250.117 62.2049 250.159C61.3289 250.309 61.2007 249.753 61.4998 247.061C62.4186 238.964 67.2686 233.964 71.9264 236.293ZM55.0901 256.826C55.0687 262.402 51.3083 267.679 46.4369 268.961C38.5742 270.991 44.0653 260.992 53.1671 256.697C54.9619 255.843 55.0901 255.864 55.0901 256.826ZM109.808 273.235C113.227 275.756 114.06 284.751 111.176 288.255C110.727 288.789 105.257 285.755 104.894 284.772C102.544 278.512 105.984 270.436 109.808 273.235ZM106.368 292.827C107.244 293.169 107.992 293.489 108.035 293.532C108.441 293.938 105.813 298.596 103.975 300.732C101.198 303.937 95.9416 306.715 95.3861 305.262C94.0615 301.801 101.198 290.648 103.997 291.844C104.424 292.037 105.492 292.464 106.368 292.827Z" fill="black"/>
<path d="M174.098 275.328C171.534 276.247 169.397 277.636 167.004 279.922C165.786 281.076 165.786 281.076 164.91 280.328C155.958 272.679 146.685 281.14 146.685 296.951C146.664 317.077 158.372 330.11 171.021 324.064C190.656 314.684 193.562 268.363 174.098 275.328ZM178.563 282.08C182.494 286.011 180.336 302.313 174.781 310.689C167.025 322.397 158.116 319.022 154.868 303.147C151.279 285.499 158.073 277.721 165.102 291.46C166.363 293.895 167.239 294.793 168.585 295.006C171.576 295.498 172.474 291.609 170.316 287.379C169.162 285.093 176.747 280.264 178.563 282.08Z" fill="black"/>
</svg>
