<svg width="446" height="159" viewBox="0 0 446 159" fill="none" xmlns="http://www.w3.org/2000/svg">
<path d="M304.636 0.443558C302.82 1.19136 301.517 3.7339 299.252 10.8701C296.475 19.7583 296.539 22.0231 299.615 22.1299C301.175 22.194 303.205 18.9251 305.897 12.088C308.461 5.52864 308.824 3.00746 307.457 0.977705C307.072 0.400826 305.427 0.101704 304.636 0.443558Z" fill="black"/>
<path d="M275.514 4.18745C272.801 5.76853 273.933 10.64 278.911 18.6735C282.629 24.7201 286.646 22.1989 284.552 15.1482C281.881 6.04629 278.783 2.30726 275.514 4.18745Z" fill="black"/>
<path d="M319.273 21.4683C312.628 23.7117 310 25.9552 311.175 28.4122C312.841 31.8949 325.426 28.4763 326.195 24.3314C326.772 21.2119 323.738 19.9513 319.273 21.4683Z" fill="black"/>
<path d="M193.534 25.1044C160.631 30.5741 163.045 104.265 196.44 113.474C204.73 115.76 213.704 111.807 218.725 103.667C221.844 98.6244 221.16 94.0521 217.293 94.0094C215.498 93.988 215.178 94.2017 211.717 97.5989C206.696 102.492 205.52 103.175 202.081 103.026C183.941 102.257 174.775 55.3585 189.582 39.0136C193.043 35.1891 199.581 32.9884 201.311 35.0609C202.828 36.877 202.828 36.877 203.854 36.9838C206.076 37.2402 207.102 36.1292 207.08 33.5226C207.037 27.8179 200.756 23.9079 193.534 25.1044Z" fill="black"/>
<path d="M282.523 27.9659C273.635 29.953 270.302 38.0293 271.584 54.4597C271.755 56.5962 271.755 56.5962 268.998 56.639C236.992 57.0663 220.113 92.2345 240.048 116.955C259.832 141.483 299.445 131.441 305.491 100.375C307.564 89.6493 303.248 74.159 296.646 68.6893C296.347 68.4329 296.646 68.0697 299.146 65.6767C311.516 53.7546 315.127 42.217 308.547 35.6149C303.291 30.3803 289.681 26.3635 282.523 27.9659ZM291.24 34.7176C298.889 36.1063 304.957 39.6744 305.235 42.9221C305.342 44.3108 305.534 44.2681 302.479 43.6699C293.612 41.8965 280.173 36.6832 281.519 35.5081C283.143 34.0766 286.305 33.8202 291.24 34.7176ZM285.172 45.6569C286.518 46.362 287.245 46.8748 287.117 47.003C286.561 47.5585 282.651 56.5321 282.096 58.5405C282.032 58.7115 281.433 58.626 280.194 58.2414C278.143 57.6218 278.057 57.0663 278.57 46.8961C278.848 41.4051 278.613 41.7469 281.006 43.2426C282.096 43.9476 283.976 45.0159 285.172 45.6569ZM294.338 49.631C296.475 50.3574 299.124 50.977 300.62 51.1266C302.073 51.2548 302.073 51.2548 300.876 52.7504C299.317 54.7374 296.475 57.6004 293.847 59.8866C290.578 62.7069 290.193 62.9633 289.745 62.7069C288.719 62.13 288.719 62.2582 289.851 59.1388C290.45 57.4936 291.39 54.6092 291.945 52.6863C292.501 50.7847 292.992 49.225 293.035 49.225C293.078 49.225 293.655 49.4173 294.338 49.631ZM274.511 66.4245C297.415 71.4669 305.876 99.0716 289.488 115.246C273.122 131.42 245.475 122.959 241.159 100.46C237.355 80.6115 255.367 62.2368 274.511 66.4245Z" fill="black"/>
<path d="M265.858 70.5239C260.282 71.2076 257.291 73.4297 258.572 75.8867C259.299 77.3183 260.175 77.4892 263.166 76.8909C276.199 74.2202 287.374 82.852 287.951 96.0134C288.122 100.052 288.463 100.799 290.279 101.334C294.168 102.466 295.813 95.6288 293.399 88.3431C289.532 76.6986 277.695 69.0497 265.858 70.5239Z" fill="black"/>
<path d="M246.137 91.7385C243.595 94.2597 245.005 104.045 248.658 109.365C252.974 115.647 263.401 119.557 266.777 116.181C268.571 114.386 267.119 112.528 263.102 111.481C254.833 109.28 250.816 104.259 250.368 95.4989C250.154 91.2043 248.295 89.5592 246.137 91.7385Z" fill="black"/>
<path d="M338.715 32.3267C334.997 33.2668 334.378 35.3606 328.695 65.1447C320.533 107.919 320.17 112.385 324.977 112.321C328.63 112.256 331.686 100.954 338.865 60.9356C339.826 55.4873 340.318 53.5003 340.318 54.9104C340.318 55.6155 342.903 75.7422 343.437 79.1393C345.659 93.4972 347.838 97.8345 352.817 97.8345C358.115 97.8131 359.376 95.0997 368.221 65.1447C371.811 53.0089 373.563 47.3255 373.841 47.0264C374.118 46.7486 374.866 51.4919 375.379 56.7051C375.507 57.9871 375.678 69.4819 375.785 83.6262C376.063 122.683 376.832 129.905 380.934 132.02C382.921 133.045 384.908 131.764 385.934 128.815C386.404 127.448 386.404 121.615 385.955 112.684C385.485 103.411 385.229 96.2534 384.972 85.2286C384.096 46.1077 381.703 35.2752 373.969 35.2324C368.478 35.2111 365.978 39.997 358.906 64.1832C358.073 67.0676 356.62 71.9177 355.68 74.973C354.74 78.0283 353.928 80.699 353.864 80.9341C353.586 81.7887 353.329 80.6563 352.176 73.4774C347.86 46.8555 346.749 41.1294 344.954 36.5571C343.651 33.224 341.322 31.643 338.715 32.3267Z" fill="black"/>
<path d="M108.925 33.8607C100.422 34.5016 86.0424 38.3048 82.1966 40.9114C76.4705 44.7786 76.2355 49.0732 79.3335 91.8477C82.3034 132.571 84.2691 140.455 91.4907 140.455C99.2679 140.455 122.279 129.836 122.899 125.969C123.71 120.713 118.989 121.119 105.614 127.422C100.165 129.986 93.7128 132.55 92.7086 132.55C92.0249 132.55 90.6575 120.457 89.696 106.163C88.9696 95.2449 88.9055 93.6638 89.2046 93.6638C90.337 93.6638 102.409 89.2197 103.968 88.2369C108.007 85.6943 107.729 81.122 103.477 79.9683C101.682 79.4768 98.6269 80.4597 92.4736 83.5364C90.2942 84.626 88.5209 85.502 88.4995 85.4807C88.0508 84.9679 87.4312 52.5345 87.8372 51.1029C88.0508 50.2697 88.4568 50.0987 96.6399 47.4066C111.917 42.3643 116.275 40.0354 116.275 36.9587C116.275 35.1426 115.25 34.2025 112.942 33.9461C112.322 33.8607 111.617 33.7966 111.382 33.7538C111.147 33.7325 110.036 33.7752 108.925 33.8607Z" fill="black"/>
<path d="M435.931 44.2224C431.145 44.9489 422.128 46.9786 417.449 48.3674C408.988 50.8886 406.766 53.7303 407.065 61.7211C407.428 71.5067 407.45 78.5147 407.172 88.8558C405.976 134.686 407.706 140.583 421.188 136.737C440.781 131.182 448.109 126.802 443.986 123.105C441.763 121.14 439.477 121.546 428.346 125.926C423.432 127.849 419.094 129.387 417.748 129.665C417.064 129.793 417.064 129.793 416.894 127.485C416.573 123.597 416.68 96.4407 417 96.2484C417.15 96.1415 417.962 96.0133 418.795 95.9279C430.098 94.881 438.366 89.5181 435.055 85.3945C432.79 82.5956 428.623 82.9161 419.714 86.5269C416.894 87.6806 417.214 88.7489 417.47 79.2411C417.577 74.7757 417.727 68.6436 417.791 65.6097C417.919 60.0973 417.919 60.0973 418.496 59.8195C418.795 59.6486 421.209 58.6871 423.859 57.6616C438.537 51.9569 444.156 48.8588 444.156 46.4659C444.156 43.9874 441.742 43.3251 435.931 44.2224Z" fill="black"/>
<path d="M134.926 50.1415C132.897 52.1926 133.303 75.0114 136.166 118.769C138.046 147.378 138.943 149.066 151.656 147.527C158.942 146.63 162.745 146.224 169.924 145.583C186.055 144.151 189.089 142.869 187.743 137.998C186.653 134.067 183.79 134.045 158.792 137.656C146.742 139.387 147.468 139.344 147.297 138.361C147.169 137.549 146.891 132.956 146.101 118.982C144.733 94.903 142.96 75.9515 140.353 57.4913C139.221 49.586 137.64 47.4494 134.926 50.1415Z" fill="black"/>
<path d="M57.7328 51.9802C54.1861 52.8349 54.1647 53.2194 54.8912 81.2728C55.3398 98.8142 54.9339 140.029 54.2715 144.281C54.0152 145.905 51.3231 139.025 43.3108 116.356C36.4524 96.9127 35.7901 95.7375 31.9015 95.7375C27.906 95.7162 26.9873 97.7887 25.0644 110.971C22.9492 125.5 21.3467 135.115 21.0903 134.645C20.9194 134.303 18.2273 123.107 17.0522 117.809C14.1678 104.818 11.497 89.691 8.8263 71.2309C6.43332 54.7151 6.39059 54.5655 3.50619 54.5655C0.151748 54.5655 -0.254204 58.1763 1.26277 74.2221C3.97624 103.087 13.0781 143.661 17.9709 148.725C20.898 151.759 24.5516 150.52 26.2181 145.905C27.436 142.507 29.6367 132.23 31.9228 119.133C32.9484 113.386 33.1193 112.766 33.3757 113.899C34.1876 117.253 41.0888 137.166 43.3536 142.657C49.3147 157.122 54.7202 162.015 59.1857 156.951C63.1598 152.4 65.2963 118.898 64.2708 76.8928C63.758 55.8902 63.2239 53.0058 59.6344 52.023C58.737 51.7666 58.6729 51.7666 57.7328 51.9802Z" fill="black"/>
</svg>
