<svg width="55" height="18" viewBox="0 0 55 18" fill="none" xmlns="http://www.w3.org/2000/svg">
<path d="M17.1189 0.529318C12.2902 3.45645 12.5466 13.5625 17.4821 15.7205C23.8492 18.5194 29.6607 9.46026 25.2379 3.6701C22.7595 0.401123 20.046 1.55488 22.1185 4.99479C23.8705 7.92192 23.8064 9.75938 21.8621 11.8105C17.8881 15.9982 14.9396 7.66553 18.7 2.90093C20.3452 0.807075 19.2769 -0.795367 17.1189 0.529318Z" fill="black"/>
<path d="M44.8943 0.529318C40.0656 3.45645 40.322 13.5625 45.2575 15.7205C51.6246 18.5194 57.4361 9.46026 53.0133 3.6701C50.5349 0.401123 47.8214 1.55488 49.8939 4.99479C51.6459 7.92192 51.5818 9.75938 49.6375 11.8105C45.6635 15.9982 42.715 7.66553 46.4754 2.90093C48.1205 0.807075 47.0523 -0.795367 44.8943 0.529318Z" fill="black"/>
<path d="M8.05984 0.742511C7.84619 0.95617 7.24794 1.83217 6.75653 2.68681C5.85916 4.22515 5.85916 4.22515 4.89769 2.64407C3.74394 0.763877 3.48754 0.550218 2.44062 0.550218C1.1373 0.550218 1.24413 1.91763 2.84657 5.12252C4.06442 7.5796 4.06442 7.5796 3.48754 8.60516C0.304028 14.1603 -0.294217 16.831 1.58598 16.9592C2.7611 17.0447 3.53028 16.2969 5.19682 13.4979C6.30784 11.6177 6.30784 11.6177 7.09838 12.8783C9.19224 16.2114 9.96141 17.002 11.1793 17.002C12.7176 17.002 12.0339 14.438 9.12814 9.54526C8.08121 7.72916 8.08121 7.72916 8.72219 6.4472C10.2178 3.49871 10.7519 1.21256 10.1323 0.592949C9.72638 0.186997 8.50853 0.293827 8.05984 0.742511Z" fill="black"/>
<path d="M35.8352 0.742511C35.6216 0.95617 35.0233 1.83217 34.5319 2.68681C33.6345 4.22515 33.6345 4.22515 32.6731 2.64407C31.5193 0.763877 31.2629 0.550218 30.216 0.550218C28.9127 0.550218 29.0195 1.91763 30.622 5.12252C31.8398 7.5796 31.8398 7.5796 31.2629 8.60516C28.0794 14.1603 27.4812 16.831 29.3614 16.9592C30.5365 17.0447 31.3057 16.2969 32.9722 13.4979C34.0832 11.6177 34.0832 11.6177 34.8738 12.8783C36.9676 16.2114 37.7368 17.002 38.9547 17.002C40.493 17.002 39.8093 14.438 36.9035 9.54526C35.8566 7.72916 35.8566 7.72916 36.4976 6.4472C37.9932 3.49871 38.5273 1.21256 37.9077 0.592949C37.5018 0.186997 36.2839 0.293827 35.8352 0.742511Z" fill="black"/>
</svg>
