<svg width="554" height="381" viewBox="0 0 554 381" fill="none" xmlns="http://www.w3.org/2000/svg">
<path d="M237.598 0.495307C235.952 0.965357 234.393 1.92682 232.769 3.5079C231.252 5.00351 231.252 5.00351 230.055 4.10614C220.633 -2.90187 210.933 7.16146 216.467 18.1863C221.701 28.6555 231.85 31.7536 238.687 24.9806C248.879 14.8745 248.11 -2.38909 237.598 0.495307Z" fill="black"/>
<path d="M254.285 34.9413C216.937 38.3385 184.546 65.1954 193.712 85.1939C200.72 100.492 227.278 93.7189 229.18 76.1561C230.056 68.1439 222.642 65.9005 220.313 73.4854C217.023 84.1256 202.451 87.4586 202.472 77.5449C202.537 60.1103 238.709 39.9409 263.963 43.2526C295.222 47.3549 270.907 87.3946 221.274 113.589C216.617 116.046 215.548 117.221 215.912 119.465C216.446 122.776 218.347 123.417 225.12 122.541C256.443 118.567 285.415 127.114 309.986 147.582C315.947 152.539 315.947 152.304 310.263 152.325C307.507 152.347 305.093 152.39 304.922 152.411C304.751 152.454 299.26 152.539 292.743 152.625C286.227 152.689 279.838 152.796 278.535 152.86C277.253 152.924 273.984 153.009 271.271 153.073C246.272 153.693 240.739 154.569 241.487 157.838C241.914 159.804 242.298 159.868 252.041 159.611C263.557 159.312 271.014 159.184 284.838 159.056C321.587 158.714 325.433 158.671 339.107 158.308C351.136 157.966 359.875 157.603 383.228 156.385C409.401 155.039 415.554 154.889 436.643 155.06C475.187 155.402 476.426 155.359 477.815 153.864C479.46 152.112 478.584 150.638 475.251 149.462C471.127 148.01 427.028 147.689 400.534 148.907C395.599 149.142 368.977 150.488 365.174 150.723C359.298 151.044 341.009 151.727 330.134 152.026C324.899 152.155 324.899 152.155 322.613 149.612C302.7 127.434 269.925 113.226 238.623 113.226C236.273 113.226 236.273 113.226 240.354 110.47C275.01 87.0313 291.525 62.546 283.492 46.5002C279.496 38.488 267.51 33.7448 254.285 34.9413Z" fill="black"/>
<path d="M330.603 64.8957C327.826 67.481 322.655 105.405 322.655 123.16C322.655 133.01 323.681 136.429 327.014 137.689C331.308 139.334 334.107 135.211 346.692 108.845C355.024 91.368 358.016 85.8343 361.285 81.732C362.203 80.5996 362.502 80.3432 362.631 80.5996C362.866 81.0056 362.502 85.7061 361.99 88.975C359.191 106.516 359.169 106.602 359.041 113.759C358.806 125.361 360.473 130.019 364.831 129.976C368.699 129.955 370.023 127.711 376.796 109.572C384.125 89.8724 391.795 73.7625 392.586 76.3905C393.034 77.9075 392.436 83.719 390.834 93.4619C388.377 108.439 388.227 116.9 390.321 123.566C393.675 134.313 402.179 135.446 408.482 126.002C412.776 119.55 415.169 109.144 412.52 108.439C410.426 107.884 409.187 109.273 407.52 114.08C404.23 123.588 400.427 128.545 398.248 126.216C394.658 122.37 394.231 113.161 396.795 94.7652C399.23 77.2238 398.867 71.4123 395.235 69.4894C388.975 66.1776 381.304 78.6767 369.831 110.875C368.036 115.875 366.284 120.447 365.75 121.473C364.532 123.801 365.152 109.743 366.776 98.6965C369.532 79.745 369.446 76.4119 366.071 74.0617C360.003 69.8739 353.529 78.228 338.744 109.337C335.645 115.875 330.988 125.233 330.56 125.831C329.578 127.156 331.565 100.021 334.321 74.4462C335.047 67.7374 334.983 65.7717 334.022 64.9171C333.039 64.0411 331.522 64.0411 330.603 64.8957Z" fill="black"/>
<path d="M140.382 91.11C136.302 93.7807 131.323 107.583 125.127 133.308C124.016 137.944 123.012 141.939 122.927 142.153C122.414 143.371 122.136 136.021 122.136 120.915C122.136 104.442 122.136 104.293 120.961 101.216C119.722 97.8829 116.111 96.4728 113.098 98.1393C107.479 101.259 102.586 111.749 95.0013 137.047C91.7751 147.794 89.4248 154.887 89.1043 154.887C88.8052 154.887 87.7369 147.046 87.0959 140.145C86.3481 131.962 84.9166 107.391 84.5961 96.8787C84.4893 93.6739 83.3783 92.4987 81.0494 93.1183C78.2077 93.8875 77.4386 99.0367 77.2249 118.672C76.8617 151.896 80.2161 166.938 87.9506 166.938C92.7579 166.938 94.7663 163.134 101.518 141.106C107.992 119.997 111.795 109.955 115.021 105.511C116.303 103.737 116.624 107.711 116.26 120.787C115.598 143.243 117.457 153.05 122.328 153.05C125.426 153.05 125.982 151.875 129.935 137.025C134.443 120.103 137.413 110.446 140.361 102.989C141.835 99.2931 141.793 99.1222 142.006 109.485C142.476 132.838 144.164 142.559 148.715 148.178C156.108 157.28 166.107 148.071 167.432 130.957C168.137 121.791 161.855 120.424 160.915 129.547C159.868 139.76 156.578 147.153 154.185 144.674C150.788 141.213 149.036 132.218 148.416 115.082C147.732 96.366 147.134 92.6056 144.592 91.11C143.352 90.3835 141.493 90.3835 140.382 91.11Z" fill="black"/>
<path d="M433.736 101.32C429.847 102.431 425.574 107.773 423.181 114.567C422.391 116.81 422.348 116.789 421.942 113.691C420.981 106.683 420.682 105.957 418.588 105.957C416.002 105.957 415.554 108.563 416.472 118.456C417.519 129.63 418.844 133.348 421.793 133.348C423.972 133.348 424.399 132.771 425.831 127.622C428.544 117.857 431.065 112.089 434.078 108.756C435.296 107.431 435.296 107.431 435.68 111.234C436.3 117.622 441.599 117.921 442.368 111.619C443.18 105.059 438.843 99.8673 433.736 101.32Z" fill="black"/>
<path d="M453.222 105.635C444.954 107.964 444.868 114.181 453.009 120.826C456.748 123.86 458.094 125.612 458.457 127.898C459.098 131.937 453.116 132.321 449.847 128.433C446.919 124.993 444.847 124.394 443.373 126.638C439.911 131.894 449.868 139.885 457.709 138.133C469.311 135.547 469.076 123.198 457.303 114.502C454.675 112.579 454.654 112.472 456.555 112.237C458.115 112.045 459.44 112.28 460.401 112.942C463.798 115.25 466.661 112.259 464.333 108.861C462.474 106.169 457.025 104.567 453.222 105.635Z" fill="black"/>
<path d="M187.622 114.571C183.713 115.661 179.653 122.178 178.008 129.997C177.623 131.814 177.495 131.814 177.068 129.933C175.38 122.434 174.846 121.344 173.008 121.344C170.06 121.344 170.038 123.096 172.795 137.369C175.209 149.911 175.914 151.492 178.948 150.893C181.042 150.487 181.49 149.376 182.089 143.351C182.943 134.313 185.635 125.019 188.349 121.665C189.033 120.832 189.075 120.896 189.887 124.015C191.105 128.694 192.772 130.275 195.378 129.164C201.553 126.536 194.203 112.734 187.622 114.571Z" fill="black"/>
<path d="M469.909 131.942C468.435 133.181 468.242 134.955 469.375 136.493C470.892 138.48 474.011 138.053 475.037 135.724C476.426 132.562 472.537 129.699 469.909 131.942Z" fill="black"/>
<path d="M529.99 136.684C526.379 138.457 513.346 145.658 510.782 147.303C510.205 147.688 507.641 149.226 505.12 150.721C490.933 159.14 487.621 161.725 487.6 164.353C487.578 167.13 491.723 166.66 496.68 163.306C498.219 162.259 514.713 152.11 514.863 152.11C515.354 152.11 534.284 140.402 534.904 139.718C535.78 138.735 535.929 137.752 535.31 136.77C534.37 135.253 533.002 135.231 529.99 136.684Z" fill="black"/>
<path d="M194.695 138.86C193.648 139.117 192.922 139.715 192.387 140.783C190.422 144.629 195.592 147.834 198.455 144.565C200.827 141.852 198.284 137.963 194.695 138.86Z" fill="black"/>
<path d="M219.137 152.471C218.304 152.578 212.108 153.539 203.54 154.864C186.554 157.513 159.505 161.124 119.358 166.102C72.3748 171.957 59.9612 174.136 58.7006 176.764C57.0341 180.289 58.9356 180.994 66.7128 179.67C76.6052 178.003 88.0146 176.508 108.248 174.221C169.483 167.32 218.24 160.633 222.791 158.475C224.842 157.535 225.675 155.441 224.671 153.796C223.987 152.62 221.829 152.108 219.137 152.471Z" fill="black"/>
<path d="M520.503 180.097C507.043 180.225 506.786 180.246 505.205 181.721C501.359 185.374 511.658 187.361 526.806 185.908C536.015 185.032 537.596 184.541 537.596 182.597C537.596 180.866 536.1 179.84 533.75 179.926C533.109 179.969 527.148 180.033 520.503 180.097Z" fill="black"/>
<path d="M11.3539 180.698C8.93955 181.382 9.49507 183.754 12.5931 185.912C15.4561 187.899 36.5443 195.569 45.6248 197.919C47.8468 198.496 49.3852 197.641 49.3852 195.825C49.3852 193.988 48.381 193.497 27.3783 185.356C15.1784 180.613 13.4691 180.121 11.3539 180.698Z" fill="black"/>
<path d="M516.487 205.1C514.756 205.826 514.5 207.835 515.974 209.202C517.021 210.185 541.998 223.987 546.42 226.038C552.916 229.03 556.078 226.444 551.228 222.107C549.518 220.547 541.784 216.253 531.186 210.975C520.525 205.655 517.79 204.544 516.487 205.1Z" fill="black"/>
<path d="M35.6045 210.099C11.867 219.137 0.884888 224.799 0.884888 227.961C0.884888 230.845 3.79065 230.333 13.7472 225.76C17.4221 224.051 24.0882 221.06 28.5537 219.094C42.0356 213.176 42.121 213.112 42.121 211.21C42.121 208.71 40.1554 208.368 35.6045 210.099Z" fill="black"/>
<path d="M421.58 209.797C415.811 210.032 414.037 210.63 413.952 212.36C413.845 214.006 415.255 214.775 419.101 215.159C423.246 215.565 504.864 215.309 505.804 214.882C507.107 214.283 507.556 212.959 506.915 211.613C506.317 210.352 505.74 210.224 500.056 210.096C497.257 210.053 493.625 209.967 491.98 209.903C486.916 209.711 425.554 209.626 421.58 209.797Z" fill="black"/>
<path d="M372.202 211.588C372.16 211.631 368.805 211.716 364.746 211.802C339.171 212.272 311.78 214.088 273.406 217.784C259.39 219.152 257.361 219.323 249.797 219.942C243.003 220.498 240.567 221.652 241.443 223.938C242.469 226.63 248.836 226.608 279.389 223.788C302.4 221.652 331.052 219.387 331.351 219.686C331.757 220.092 328.787 232.698 326.8 239.065C312.848 283.484 283.299 314.572 241.785 328.502C202.45 341.685 167.197 327.477 164.312 297.265C162.603 279.297 176.662 259.362 190.25 260.495C196.233 261.007 194.267 269.319 187.558 271.883C182.794 273.677 184.695 278.271 189.78 277.224C197.664 275.6 204.224 266.52 202.472 259.683C199.053 246.286 178.777 247.568 166.235 261.948C150.553 279.938 150.147 305.406 165.231 322.926C199.481 362.666 282.701 338.16 318.681 277.758C329.3 259.939 339.085 232.206 339.107 219.921C339.107 219.237 339.107 219.237 340.666 219.109C348.401 218.447 382.351 217.272 396.688 217.186C405.939 217.122 406.238 217.079 407.007 216.096C408.61 214.067 406.58 212.55 401.773 212.144C396.453 211.695 372.587 211.246 372.202 211.588Z" fill="black"/>
<path d="M227.363 222.207C214.052 223.04 173.542 226.929 168.65 227.847C168.329 227.911 165.381 228.296 162.09 228.702C128.888 232.911 109.701 236.244 69.6828 244.748C57.9102 247.248 55.7736 248.081 55.795 250.153C55.8377 253.038 61.521 252.974 75.6652 249.961C116.325 241.308 141.707 237.334 199.224 230.625C237.448 226.159 233.837 226.651 234.798 225.775C235.439 225.155 235.461 223.553 234.82 222.848C233.944 221.908 233.239 221.843 227.363 222.207Z" fill="black"/>
<path d="M38.9376 238.237C37.7412 238.707 22.0586 254.796 20.563 257.06C17.5931 261.59 20.0929 263.663 24.537 260.351C27.5924 258.065 40.07 244.732 41.8861 241.784C43.1895 239.669 41.2452 237.318 38.9376 238.237Z" fill="black"/>
<path d="M224.565 350.769C222.813 351.24 221.061 352.286 219.65 353.718C218.561 354.829 218.561 354.829 217.279 354.017C207.728 347.842 199.139 358.162 204.374 369.507C209.608 380.81 219.544 384.015 226.445 376.601C237.341 364.892 236.102 347.65 224.565 350.769Z" fill="black"/>
</svg>
