<svg width="471" height="327" viewBox="0 0 471 327" fill="none" xmlns="http://www.w3.org/2000/svg">
<path d="M393.494 0.504645C372.897 1.31655 355.441 5.2906 337.515 13.2173C330.934 16.1231 323.264 20.1399 308.03 28.6008C269.251 50.159 246.86 59.2395 222.353 63.299C202.44 66.6107 186.928 66.1193 164.665 61.5043C149.666 58.3848 147.316 57.9148 143.748 57.3379C117.959 53.0861 98.965 56.8251 83.432 69.2173C72.3645 78.0628 52.9216 102.035 49.4816 111.073C46.8964 117.889 51.5969 120.923 54.6736 114.428C59.6518 103.98 76.7873 82.9129 87.0001 74.7084C103.815 61.2051 121.015 59.1754 157.294 66.4611C175.391 70.0933 182.719 71.0548 194.471 71.3539C229.318 72.2727 261.025 62.1239 312.068 33.6859C337.537 19.4989 348.369 14.713 363.582 10.9526C392.105 3.90182 427.572 5.82475 452.998 15.824C456.694 17.2769 463.04 20.2895 463.04 20.5886C463.04 20.8022 458.852 24.5413 455.241 27.5539C448.639 33.0663 438.725 41.2708 438.106 41.7408C437.337 42.2963 436.589 42.2963 425.436 41.7194C407.83 40.8221 385.332 43.0441 368.282 47.4028C350.741 51.8469 337.942 57.6157 314.867 71.4394C288.288 87.357 272.52 93.083 243.505 97.2708C218.699 100.86 195.753 100.988 153.234 97.7194C123.237 95.4119 114.22 95.7538 97.1489 99.856C80.1203 103.916 59.1818 112.932 58.263 116.586C57.6861 118.893 59.6945 119.961 62.2584 118.722C72.92 113.594 86.4233 108.766 97.7899 106.052C113.708 102.249 123.878 101.8 149.602 103.83C179.643 106.18 188.937 106.608 205.901 106.415C239.852 106.031 268.952 100.924 291.279 91.4165C298.715 88.233 304.719 85.0495 316.79 77.8492C334.417 67.3371 340.955 63.9186 351.36 59.8164C371.572 51.8255 396.998 47.8515 423.727 48.4924C441.311 48.9198 439.302 49.3898 446.909 43.0228C448.682 41.5485 451.417 39.2837 452.998 38.0018C475.282 20.0331 475.667 18.5588 459.942 11.5935C441.973 3.62407 417.616 -0.45682 393.494 0.504645Z" fill="black"/>
<path d="M110.396 107.055C106.742 107.867 106.614 111.029 110.182 112.866C110.652 113.101 113.878 114.319 117.34 115.558C125.074 118.336 133.599 121.712 138.278 123.827C155.585 131.711 171.609 131.989 199.492 124.959C221.242 119.468 230.045 118.528 243.612 120.28C258.397 122.182 275.319 128.613 277.712 133.207C278.695 135.108 277.413 137.437 272.114 143.441C270.704 145.022 268.119 148.013 266.324 150.064C261.794 155.32 262.393 154.936 260.363 153.996C246.71 147.735 231.69 147.928 203.444 154.765C174.023 161.88 167.314 161.068 135.928 146.582C107.148 133.292 100.888 131.433 85.0772 131.412C76.7018 131.412 74.031 132.096 73.7105 134.296C73.3473 136.647 74.3943 137.074 80.6972 137.266C96.7002 137.758 103.025 139.552 129.091 151.026C152.871 161.474 157.892 163.333 166.503 164.785C177.933 166.73 187.463 165.896 207.397 161.196C232.801 155.235 246.069 155.064 257.991 160.598C264.273 163.503 265.747 162.499 279.806 145.812C291.279 132.202 284.528 123.207 257.82 116.627C236.946 111.456 225.237 112.033 195.325 119.682C178.98 123.848 169.836 124.895 159.965 123.699C151.333 122.63 147.786 121.434 132.424 114.298C124.198 110.452 118.408 108.337 113.515 107.333C111.357 106.905 111.165 106.884 110.396 107.055Z" fill="black"/>
<path d="M53.327 122.461C51.2545 123.187 48.7761 125.538 47.9215 127.589C47.6864 128.144 47.4941 128.251 46.4258 128.465C38.9905 129.918 38.1359 135.601 44.3961 141.84C48.1137 145.558 48.712 147.523 47.4941 152.117C46.2763 156.796 50.9127 158.463 52.2801 153.869C54.2244 147.267 53.1988 142.78 48.6052 137.823C45.443 134.426 45.4857 134.084 49.2248 133.614C51.105 133.379 51.7032 132.973 52.3228 131.456C52.8356 130.153 54.0535 128.636 54.9508 128.166C55.6773 127.781 55.6132 127.653 56.1473 130.623C56.8097 134.276 58.7326 135.238 60.8906 132.994C64.3518 129.426 65.9115 132.546 63.8604 138.849C61.4888 146.113 61.7025 149.062 64.6296 149.062C66.3816 149.062 66.8516 148.399 67.343 145.258C67.4712 144.425 68.0054 142.502 68.5182 140.985C71.9794 130.879 68.6464 124.363 61.211 126.67C60.8265 126.798 60.7196 126.734 60.7196 126.435C60.6983 123.358 56.7883 121.265 53.327 122.461Z" fill="black"/>
<path d="M77.9407 146.345C70.9968 147.712 62.0872 153.396 60.1002 157.69C59.5874 158.823 59.5874 158.823 58.1773 158.823C43.328 158.865 38.4138 177.945 52.4299 181.171C53.5195 181.428 54.1178 181.663 54.1605 181.876C54.246 182.176 54.2673 182.176 54.2887 181.898C54.3101 181.641 54.8015 181.577 57.2586 181.556C62.5359 181.513 67.3219 179.868 70.5909 177.005C71.7874 175.958 71.4882 175.958 73.6035 176.962C80.2055 180.082 88.5169 177.347 87.2135 172.475C86.7862 170.894 85.0769 170.531 82.8122 171.578C80.0987 172.817 76.9579 172.134 74.7145 169.805C72.3429 167.326 70.2917 167.348 68.5611 169.869C63.4547 177.39 47.3021 177.176 50.742 169.634C52.3658 166.108 56.3826 164.079 60.378 164.784C62.9205 165.232 64.4802 164.442 64.9716 162.455C66.7023 155.447 84.2223 148.204 85.2051 154.101C85.8247 157.861 88.41 158.78 91.5935 156.366C100.354 149.763 108.152 157.669 102.49 167.412C99.4562 172.646 103.174 175.958 106.934 171.364C116.998 159.079 105.802 143.696 91.1449 149.657C90.5039 149.913 90.4611 149.892 89.286 148.738C86.7862 146.238 82.7694 145.383 77.9407 146.345Z" fill="black"/>
<path d="M132.296 163.635C129.027 164.533 123.429 168.165 122.425 170.002C121.72 171.348 121.934 173.164 122.831 173.506C123.045 173.592 123.28 173.72 123.344 173.827C123.771 174.468 125.673 173.955 127.51 172.694C129.625 171.241 133.642 169.511 134.86 169.511C136.249 169.511 135.651 172.972 133.386 178.271C131.292 183.142 133.706 185.557 138.791 183.719C142.637 182.33 142.573 183.014 138.15 191.646C135.672 196.475 135.48 198.227 137.338 199.209C139.667 200.47 141.654 198.611 144.859 192.159C149.367 183.121 148.363 177.865 142.039 177.267C140.672 177.138 140.672 177.138 141.056 175.792C143.535 167.161 139.561 161.648 132.296 163.635Z" fill="black"/>
<path d="M113.173 165.024C110.267 165.687 109.819 168.828 112.319 170.9C114.647 172.78 114.733 175.088 112.639 178.058C110.225 181.455 110.225 181.476 110.225 182.779C110.225 184.339 110.866 185.258 112.725 186.369C117.81 189.382 117.767 193.655 112.66 193.826C109.028 193.954 108.259 194.766 108.515 198.227C108.75 201.304 105.011 203.398 101.187 202.308C97.9393 201.411 95.525 203.889 97.4906 206.132C101.828 211.089 113.365 207.158 114.263 200.428C114.391 199.552 114.477 199.402 114.968 199.295C122.489 197.671 124.476 187.501 118.194 182.929C116.699 181.839 116.72 182.01 117.681 180.6C121.356 175.195 121.228 169.105 117.361 166.157C116.186 165.259 114.327 164.747 113.173 165.024Z" fill="black"/>
<path d="M93.5165 175.58C90.0552 176.413 87.5554 179.191 88.2819 181.391C88.7947 182.908 90.1193 183.208 92.0423 182.225C98.5375 178.934 102.747 185.942 97.4051 191.156C93.4524 195.001 96.2941 198.698 100.952 195.749C110.737 189.532 104.605 172.888 93.5165 175.58Z" fill="black"/>
<path d="M48.0071 183.885C44.9091 186.983 46.1269 200.144 50.0796 206.212C59.0106 219.865 85.5897 219.758 94.5634 206.041C98.6443 199.824 94.5848 196.063 90.2902 202.11C84.0727 210.87 71.5951 213.648 61.1685 208.584C55.1006 205.635 52.9427 200.978 52.3871 189.483C52.2803 187.239 52.088 185.081 51.9812 184.675C51.5111 183.073 49.2677 182.624 48.0071 183.885Z" fill="black"/>
<path d="M62.9201 185.43C58.9888 186.52 56.9804 188.806 58.0487 190.878C58.7538 192.267 60.2067 192.481 62.2364 191.519C63.8602 190.772 65.8259 190.237 66.9797 190.237C70.0136 190.237 71.2956 186.712 68.6676 185.601C67.5565 185.131 64.3089 185.024 62.9201 185.43Z" fill="black"/>
<path d="M159.964 197.306C146.354 198.758 123.322 210.488 123.322 215.958C123.322 218.052 125.309 218.543 127.531 217.026C134.453 212.283 154.431 204.292 160.605 203.779C162.379 203.63 162.25 203.801 157.422 207.583C153.469 210.702 152.764 211.941 153.854 213.95C154.965 216.022 156.46 216.043 161.802 214.035C172.869 209.869 188.274 206.13 188.274 207.604C188.274 207.818 184.407 209.719 181.01 211.215C175.69 213.544 174.728 214.676 175.796 217.39C176.459 218.992 177.271 219.312 181.522 219.526C186.18 219.761 191.906 220.808 191.906 221.428C191.906 223.287 170.84 227.175 158.148 227.645C149.474 227.966 146.782 229.226 149.239 231.854C153.854 236.811 189.471 232.089 196.82 225.53C201.115 221.705 198.637 216.62 191.586 214.804C190.026 214.398 190.026 214.313 191.693 213.33C199.491 208.694 198.701 202.006 190.218 201.087C185.582 200.575 179.984 201.536 169.173 204.72C168.831 204.805 168.788 204.762 168.938 204.42C170.84 199.784 166.801 196.558 159.964 197.306Z" fill="black"/>
<path d="M30.6373 198.461C27.3896 199.166 23.6079 201.794 21.8345 204.572C21.0012 205.854 21.1935 205.854 19.6552 204.465C13.4804 198.867 4.46404 199.914 1.34462 206.559C-3.14221 216.131 4.78453 230.702 19.8475 240.509C29.2271 246.641 32.7097 247.88 33.9062 245.573C34.9532 243.543 34.1199 242.56 27.176 237.86C14.7838 229.463 8.73722 222.754 6.87839 215.34C4.29311 204.956 13.7796 203.888 18.8646 213.973C20.8303 217.883 25.018 217.284 25.3812 213.033C26.065 205.448 33.3294 201.944 38.1794 206.879C41.8543 210.64 43.7559 216.173 44.1832 224.421C44.3969 228.587 45.1233 229.976 47.1104 229.976C50.6144 229.976 51.5758 223.758 49.3965 215.276C46.2771 203.204 38.9699 196.666 30.6373 198.461Z" fill="black"/>
<path d="M109.114 208.866C107.213 209.956 107.256 211.174 109.307 214.25C111.166 217.049 111.978 218.609 113.11 221.621C114.905 226.365 115.695 227.091 120.011 227.818C130.502 229.57 139.069 236.556 142.125 245.85C144.496 253.093 150.308 250.145 148.064 242.838C145.223 233.522 135.288 225.531 121.421 221.386C120.524 221.109 120.46 221.045 119.691 219.293C116.593 212.22 111.678 207.392 109.114 208.866Z" fill="black"/>
<path d="M64.6723 218.479C63.8604 218.971 63.3049 219.932 63.3263 220.894C63.4331 227.624 65.0356 231.021 67.5995 229.953C69.4583 229.184 69.6719 223.607 68.0054 219.804C67.4285 218.543 65.7193 217.838 64.6723 218.479Z" fill="black"/>
<path d="M99.8194 224.547C98.9862 225.274 98.5161 226.171 97.4478 229.291C91.8713 245.294 86.4444 248.392 66.275 247.067C59.8438 246.661 56.9594 247.217 51.3402 249.973C47.0457 252.088 46.2338 252.409 45.1227 252.409C43.6058 252.409 43.5844 251.96 44.9732 249.909C46.3192 247.879 45.7424 245.785 43.563 244.952C42.452 244.546 42.452 244.546 43.734 243.969C47.0457 242.538 47.3662 242.174 47.3662 240.059C47.3662 239.269 47.473 238.563 47.5798 238.478C48.2849 237.944 50.6779 238.606 52.2376 239.739C55.3356 242.003 58.0491 238.606 55.6561 235.487C51.6393 230.295 42.687 231.726 41.811 237.687C41.6615 238.649 41.6401 238.692 40.465 239.162C36.085 240.978 34.6748 245.828 37.7515 248.541C38.5207 249.204 38.5207 249.204 38.2643 250.464C36.8328 257.793 43.969 260.015 53.6264 255.229C59.4593 252.344 60.848 252.131 70.0995 252.708C87.064 253.776 93.7515 250.571 99.8622 238.435C104.456 229.291 104.434 220.68 99.8194 224.547Z" fill="black"/>
<path d="M208.465 247.41C204.747 247.858 202.952 248.328 197.269 250.358C192.739 252.003 192.333 252.11 189.15 252.409C185.689 252.73 184.214 253.584 184.214 255.272C184.214 258.755 190.496 258.99 199.79 255.849C211.969 251.726 218.656 253.392 227.929 262.921C233.142 268.263 232.394 268.818 223.848 266.019C215.451 263.263 211.883 262.644 206.948 263.114C199.235 263.84 192.846 268.519 194.577 272.151C195.303 273.668 196.735 273.861 198.807 272.75C202.397 270.784 206.841 270.186 212.289 270.891C214.533 271.19 216.05 271.532 223.848 273.562C229.617 275.057 233.078 274.758 235.492 272.579C244.423 264.502 224.126 245.594 208.465 247.41Z" fill="black"/>
<path d="M153.704 250.104C150.713 251.642 152.038 253.843 157.358 256.151C168.169 260.872 173.147 265.445 179.087 276.106C184.663 286.148 189.043 288.947 200.88 290.015C207.525 290.614 209.426 290.101 209.426 287.729C209.426 285.785 208.038 285.208 201.094 284.353C191.137 283.114 189.449 281.961 184.813 273.094C178.125 260.274 173.574 255.552 164.387 251.899C160.499 250.339 155.029 249.42 153.704 250.104Z" fill="black"/>
<path d="M78.1335 254.526C73.3475 256.599 81.0606 271.021 90.9957 278.541C101.871 286.81 119.37 289.673 124.925 284.139C127.702 281.362 125.694 280.293 117.66 280.293C102.106 280.293 89.8633 272.409 82.4494 257.646C80.9324 254.612 79.8 253.8 78.1335 254.526Z" fill="black"/>
<path d="M93.5163 261.644C91.5293 262.819 91.8925 264.785 94.606 267.434C97.3194 270.083 100.076 270.212 100.375 267.69C100.546 266.366 96.4862 261.601 95.1828 261.601C94.9692 261.601 94.606 261.558 94.3709 261.494C94.1359 261.43 93.7513 261.494 93.5163 261.644Z" fill="black"/>
<path d="M136.676 281.486C134.176 282.81 134.731 284.584 139.069 289.263C152.337 303.535 163.362 308.471 182.078 308.492C194.449 308.492 201.371 306.975 201.777 304.134C202.098 301.869 199.641 301.356 192.547 302.211C180.176 303.685 169.835 302.382 161.182 298.215C155.777 295.63 152.55 293.216 144.367 285.673C139.688 281.358 138.321 280.61 136.676 281.486Z" fill="black"/>
<path d="M113.109 290.122C107.063 294.502 126.762 305.762 137.317 303.924C143.299 302.877 142.509 297.279 136.377 297.279C129.839 297.279 122.403 294.908 117.639 291.34C115.609 289.801 114.113 289.395 113.109 290.122Z" fill="black"/>
<path d="M217.823 290.654C214.234 292.278 216.157 295.333 220.964 295.653C227.053 296.081 227.374 296.529 227.481 304.648C227.587 311.528 227.117 316.036 226.071 318.408C224.789 321.335 221.37 320.203 218.144 315.78C214.853 311.25 213.892 310.033 212.225 308.302C207.824 303.772 204.576 302.683 203.444 305.375C202.953 306.593 203.294 307.298 205.431 309.477C207.482 311.55 209.277 313.857 212.418 318.451C217.61 326.036 224.276 328.343 229.211 324.284C234.104 320.288 234.745 297.085 230.087 292.854C227.716 290.718 220.515 289.415 217.823 290.654Z" fill="black"/>
<path d="M365.926 15.8713C364.58 16.4481 364.452 17.9224 365.414 22.2597C365.777 23.9476 366.055 25.3577 366.012 25.4004C365.969 25.4218 364.837 25.8064 363.491 26.2337C360.35 27.2165 359.858 27.6225 359.858 29.1395C359.858 30.9983 361.546 31.4256 364.773 30.4214C367.315 29.6309 367.251 29.6309 367.422 30.5283C368.533 36.4466 371.033 39.6729 372.913 37.6645C373.768 36.7457 373.703 35.8484 372.379 31.6179C371.845 29.8659 371.417 28.413 371.439 28.3917C371.481 28.3703 372.229 28.1353 373.105 27.8575C375.156 27.2593 375.819 26.7679 376.096 25.7209C376.609 23.7766 374.558 22.8365 371.738 23.6912C371.161 23.8621 370.605 24.0117 370.52 24.0117C370.306 24.0117 370.05 23.0716 369.452 20.059C368.747 16.4481 367.657 15.1662 365.926 15.8713Z" fill="black"/>
<path d="M388.552 16.2113C380.433 17.9847 377.677 28.2831 383.659 34.351C389.001 39.7352 399.726 39.0942 402.653 33.1972C404.277 29.9496 401.606 28.2831 399.085 30.9324C395.261 34.9065 389.278 34.7569 386.202 30.5692C385.796 30.0137 385.475 29.5223 385.518 29.4795C385.561 29.4582 386.18 29.3086 386.885 29.1591C392.398 28.0053 396.222 26.0183 397.269 23.6894C399.256 19.3307 394.193 14.9935 388.552 16.2113ZM392.312 20.6768C394.428 21.7878 392.569 23.198 387.206 24.544C384.727 25.185 384.727 25.185 385.155 24.1594C386.287 21.4032 390.112 19.5444 392.312 20.6768Z" fill="black"/>
<path d="M344.432 27.1937C339.24 28.8816 337.424 37.2356 341.184 42.1712C344.304 46.252 350.393 46.3375 352.936 42.3207C353.683 41.1456 353.598 41.167 354.88 41.9361C357.358 43.4531 360.67 43.6881 361.802 42.4275C363.149 40.9106 362.358 39.3509 360.115 39.1158C358.32 38.9235 356.846 38.133 355.029 36.381C352.508 33.9453 350.479 34.3512 350.137 37.3425C349.709 40.9533 347.081 42.1712 344.945 39.7354C341.612 35.9323 344.496 29.0311 348.107 32.236C349.773 33.7103 351.696 33.4111 352.038 31.6164C352.572 28.8388 347.829 26.104 344.432 27.1937Z" fill="black"/>
<path d="M320.139 33.2206C319.284 34.0752 319.284 34.9085 320.096 36.7887C321.784 40.6773 321.848 40.8909 321.271 40.8909C314.605 40.8909 310.674 53.0695 315.716 58.1118C320.887 63.261 327.809 58.1546 327.809 49.1809C327.809 46.852 327.809 46.852 329.112 47.7494C333.706 50.8688 338.492 51.3602 338.492 48.7322C338.492 47.728 338.065 47.258 336.548 46.5742C332.296 44.6513 331.676 44.2881 329.946 42.6643C327.788 40.6559 325.908 38.1561 324.391 35.3358C322.831 32.4087 321.57 31.789 320.139 33.2206ZM323.322 46.4888C324.348 52.5353 321.228 57.9623 318.558 54.7787C316.507 52.3644 318.13 46.7879 321.293 45.3564C322.852 44.6299 323.045 44.7368 323.322 46.4888Z" fill="black"/>
<path d="M282.62 57.4912C273.796 59.3286 274.608 73.8788 283.689 76.9982C288.923 78.7929 296.594 75.5026 296.658 71.4217C296.679 68.9646 294.628 68.8578 292.064 71.1867C289.543 73.4728 287.107 73.8788 284.308 72.4686C283.155 71.8918 283.155 71.8918 284.394 71.1867C293.068 66.2298 291.701 55.5682 282.62 57.4912ZM285.526 62.2557C286.68 63.4095 285.462 65.2897 282.15 67.469C280.997 68.2382 280.804 68.0886 280.804 66.4435C280.804 62.6617 283.518 60.2474 285.526 62.2557Z" fill="black"/>
<path d="M250.358 67.6015C249.012 68.1356 248.948 69.3321 250.144 71.6824C251.49 74.3318 254.289 80.5706 255.379 83.3054C257.259 88.0487 260.336 88.2837 260.4 83.7114C260.528 75.8487 267.344 74.6095 270.762 81.8098C272.472 85.442 274.929 85.9548 275.207 82.7285C275.912 74.1181 263.22 69.4176 258.157 76.4042C257.558 77.2375 257.558 77.2375 256.853 75.6778C253.264 67.7938 252.409 66.7469 250.358 67.6015Z" fill="black"/>
<path d="M128.294 69.9064C122.996 71.808 123.124 76.658 128.594 80.4184C131.628 82.5337 132.14 83.3883 131.243 84.8412C129.811 87.2128 126.906 86.7855 125.966 84.0506C124.705 80.3757 121.073 81.5936 121.885 85.4181C123.551 93.3662 135.837 91.8706 135.837 83.7301C135.837 80.8244 135.003 79.5211 131.713 77.2563C128.679 75.1624 128.38 74.7137 129.534 74.1155C130.281 73.7309 131.414 73.7095 132.845 74.0941C135.132 74.6924 136.67 73.3036 135.858 71.3593C135.196 69.7782 130.944 68.9663 128.294 69.9064Z" fill="black"/>
<path d="M146.669 72.937C142.717 74.7318 140.26 81.1202 141.712 85.842C143.315 91.0126 149.639 92.5509 153.72 88.7905C154.639 87.9359 154.639 87.9359 155.6 88.876C158.527 91.8031 163.249 92.0168 162.779 89.2178C162.63 88.235 162.074 87.6795 160.408 86.8462C158.848 86.0557 157.78 84.9874 156.968 83.3636C155.664 80.7356 153.442 80.7356 152.267 83.3636C150.216 88.0213 145.665 87.5299 145.665 82.6585C145.665 78.5135 149.169 74.924 150.344 77.8725C151.22 80.0732 154.425 80.1373 154.553 77.958C154.788 73.9198 150.515 71.185 146.669 72.937Z" fill="black"/>
<path d="M229.653 73.1744C228.372 74.1786 228.777 75.4179 231.747 79.4346C233.798 82.2122 234.076 81.7849 228.521 84.5625C225.551 86.0367 224.996 86.87 225.872 88.4724C226.641 89.9467 227.773 89.7544 232.346 87.4469C234.461 86.3572 236.256 85.5667 236.341 85.6735C236.426 85.7803 237.409 87.0409 238.478 88.4938C241.277 92.1687 242.11 92.7883 243.648 92.2969C245.464 91.72 244.951 89.7757 242.024 85.9085C240.037 83.2805 240.037 83.2805 243.007 81.5926C246.917 79.3706 248.114 78.345 248.114 77.1912C248.114 76.358 247.409 75.2897 246.853 75.2897C245.998 75.2897 243.05 76.5503 240.636 77.9604C239.054 78.8791 237.687 79.6483 237.602 79.691C237.537 79.7338 236.448 78.3877 235.187 76.6784C232.153 72.5548 231.213 71.9566 229.653 73.1744Z" fill="black"/>
<path d="M177.329 75.7208C176.645 76.2764 176.175 77.6651 175.898 80.1009C175.492 83.6476 175 86.6175 174.808 86.6175C174.573 86.6175 172.885 84.4595 169.936 80.4213C166.603 75.849 166.475 75.7208 165.086 75.7208C163.441 75.7208 162.522 77.2806 163.292 78.7121C163.591 79.2676 167.907 85.1859 169.616 87.3866C174.381 93.5186 177.97 93.2622 179.295 86.7029C181.068 77.9002 180.278 73.4133 177.329 75.7208Z" fill="black"/>
<path d="M191.73 76.358C184.209 77.9391 184.123 89.8613 191.623 93.6216C196.067 95.8437 202.391 94.4977 202.391 91.3141C202.391 89.498 201.173 89.2203 197.691 90.2672C196.088 90.7373 195.127 90.5877 193.289 89.498C192.285 88.8998 192.285 88.8998 194.208 88.4297C198.866 87.2546 200.981 85.3531 200.981 82.3405C200.981 78.3878 196.366 75.3965 191.73 76.358ZM194.977 80.7594C197.969 82.2764 196.729 83.4729 190.811 84.7762C190.127 84.9257 190.02 84.477 190.448 83.1737C191.196 80.9517 193.225 79.8834 194.977 80.7594Z" fill="black"/>
</svg>
