<svg width="93" height="107" viewBox="0 0 93 107" fill="none" xmlns="http://www.w3.org/2000/svg">
<path d="M28.2579 0.691623C25.6085 1.82401 23.5574 6.31085 23.5574 10.9686C23.5574 12.9556 23.5574 12.9556 22.2327 11.866C16.1221 6.93046 9.43454 8.78929 9.94732 15.2845C10.3533 20.5619 14.0282 23.5104 20.267 23.5318C23.7283 23.5318 23.7924 23.4677 17.7672 26.6298C7.21248 32.1849 4.39219 37.3982 6.93473 46.7138C8.43034 52.1621 8.34488 52.6748 5.07589 59.1701C-0.479237 70.1308 -0.521968 75.515 4.92633 82.1598C8.62263 86.668 8.83629 87.0525 9.88322 90.9411C11.4002 96.6245 12.9385 99.1243 15.887 100.834C18.2159 102.158 20.0961 102.351 28.2579 102.073C31.3132 101.966 32.3174 102.222 35.8428 104.081C40.8851 106.752 47.2735 107.179 47.2735 104.872C47.2735 104.06 46.7607 103.803 44.2396 103.44C41.1201 102.97 40.6928 102.821 37.4239 101.197C33.172 99.0602 32.937 99.0174 25.9076 99.1029C16.6562 99.2097 15.182 98.1414 12.8744 89.766C11.8061 85.8133 10.9942 84.1682 8.85766 81.4333C3.11023 74.1262 3.11023 71.7332 8.7081 60.3452C11.7634 54.1491 12.0412 52.1621 10.631 46.5001C8.53717 38.1247 10.0328 35.4112 19.9252 29.621C25.2667 26.5016 27.211 24.8992 27.8519 23.1472C28.1083 22.4207 28.1083 22.4207 29.9458 22.2925C31.2491 22.2071 33.0866 21.8011 36.2701 20.9038C44.731 18.5108 46.2052 18.5749 53.085 21.6729C58.7256 24.2155 60.4349 24.6855 68.1053 25.7752C79.6642 27.399 81.288 28.9801 81.5871 38.9152C81.7794 45.8378 82.5059 48.188 86.2449 54.0636C90.689 61.0075 90.3472 64.8107 84.5784 72.716C80.8607 77.8225 80.0488 79.895 79.4506 85.5997C78.5745 93.9751 76.438 96.6886 68.8958 99.0815C62.4219 101.111 64.238 103.889 70.9256 102.158C78.7668 100.128 82.1213 95.7485 82.9546 86.4543C83.3819 81.6042 84.2365 79.3181 86.9927 75.4722C94.1716 65.4516 94.4494 61.0503 88.6379 51.0938C85.3048 45.3891 85.1552 44.919 84.8775 38.1674C84.4074 26.5657 81.8649 24.13 68.3189 22.3566C61.375 21.4593 59.3666 20.9038 54.2388 18.5321C47.0599 15.1991 42.8722 15.135 33.5139 18.1689C31.2491 18.8954 31.2491 18.8954 32.5097 17.5279C39.1972 10.3917 35.9069 -2.62009 28.2579 0.691623ZM31.7405 4.38792C34.2617 7.16549 33.3216 11.9087 29.4971 15.8187C27.6169 17.7202 27.3819 17.7416 27.04 16.1392C25.6512 9.62256 28.963 1.3326 31.7405 4.38792ZM17.7459 13.4043C20.1602 14.5795 24.9462 19.109 24.4975 19.8141C23.6642 21.1601 17.169 20.2841 15.182 18.5321C11.4216 15.2418 13.3872 11.3105 17.7459 13.4043Z" fill="black"/>
</svg>
