<svg width="277" height="164" viewBox="0 0 277 164" fill="none" xmlns="http://www.w3.org/2000/svg">
<path d="M155.747 1.12352C146.367 2.34137 135.257 9.19982 127.651 18.4726C125.749 20.8015 126.048 20.7374 124.467 18.964C110.9 3.70879 91.0508 4.67025 82.7181 20.9938C68.8303 48.2353 88.9783 93.2105 130.108 126.819C132.372 128.657 132.33 128.443 130.855 129.661C121.604 137.182 105.387 141.668 87.4827 141.647C80.9875 141.647 79.2782 141.497 70.6036 140.066C56.3526 137.716 51.0539 138.25 35.3499 143.613C27.8719 146.155 22.2526 147.758 21.9322 147.458C21.8894 147.416 22.1458 146.86 22.4877 146.241C27.5728 137.117 21.4407 127.994 13.0439 132.139C5.35223 135.921 4.81808 146.518 12.1252 150.108C13.7918 150.92 13.7918 150.92 11.527 152.971C8.40755 155.791 6.1855 157.479 3.40793 159.188C0.502174 160.983 -0.245632 162.073 0.77993 163.098C2.27554 164.594 10.5655 159.637 16.8684 153.505C19.2187 151.24 19.2187 151.24 20.9066 151.091C23.8551 150.856 27.3591 149.916 35.8841 147.095C52.699 141.476 55.9039 141.156 69.6422 143.591C79.6201 145.365 84.8333 145.771 92.2473 145.407C110.344 144.51 124.275 140.151 133.889 132.396C135.556 131.049 135.556 131.049 137.949 132.759C168.139 154.125 205.914 158.718 219.716 142.694C220.614 141.647 220.614 141.647 222.472 141.839C225.314 142.138 231.553 141.861 238.646 141.134C257.384 139.254 265.439 139.98 273.152 144.232C277.233 146.497 278.301 143.356 274.456 140.408C268.772 136.028 257.213 134.959 237.792 136.989C227.472 138.079 222.921 137.951 223.391 136.605C226.852 126.328 217.815 116.521 208.798 120.772C199.739 125.046 202.837 136.605 213.969 140.173C215.635 140.707 215.635 140.75 214.033 141.946C199.718 152.522 171.707 148.933 146.559 133.293C139.274 128.742 138.675 128.144 139.979 126.734C156.943 108.573 175.681 70.2849 180.082 44.774C184.933 16.742 174.826 -1.35493 155.747 1.12352ZM163.567 5.05484C176.621 8.66567 181.023 26.6558 174.869 51.2052C169.186 73.8103 152.606 106.18 138.419 122.332C135.171 126.029 135.855 125.922 132.629 123.315C99.8963 96.8427 79.7482 62.1231 82.3762 36.6336C84.8333 12.6184 103.828 4.60616 120.044 20.7374C123.249 23.9209 123.463 24.2628 122.865 25.1388C113.4 39.0693 115.322 60.0506 126.048 60.0506C136.817 60.0506 138.376 39.1762 128.719 24.3482C128.292 23.6859 128.292 23.6859 129.809 21.7843C139.615 9.45621 153.888 2.3841 163.567 5.05484ZM127.416 30.9717C131.881 40.159 132.308 50.671 128.377 55.0297C126.71 56.8885 124.937 56.7817 123.292 54.7519C119.19 49.6668 119.574 40.0094 124.275 30.5016C125.813 27.3822 125.664 27.3608 127.416 30.9717ZM215.849 124.447C219.631 126.392 221.019 131.285 219.054 135.835C218.52 137.075 218.434 137.075 215.828 136.22C209.76 134.169 206.576 130.537 207.858 127.161C208.948 124.319 212.965 122.973 215.849 124.447ZM18.4709 135.857C21.0134 137.545 20.4152 142.181 17.0607 146.753C15.7361 148.57 12.2107 147.138 10.9928 144.296C9.09126 139.852 14.8173 133.378 18.4709 135.857Z" fill="black"/>
</svg>
