<svg width="444" height="124" viewBox="0 0 444 124" fill="none" xmlns="http://www.w3.org/2000/svg">
<path d="M261.629 0.914965C247.463 2.88063 227.956 15.6147 217.252 29.8657C215.628 32.0023 215.628 32.0023 214.581 29.9726C194.882 -7.75959 162.747 1.08589 167.726 42.8989C170.61 67.1706 189.882 112.103 201.014 120.457C209.646 126.952 218.833 123.149 229.623 108.599C241.331 92.8097 270.303 38.1771 274.769 23.4773C279.427 8.02981 274.277 -0.837038 261.629 0.914965ZM267.932 8.17937C273.786 11.1065 269.214 23.221 248.254 60.3335C213.62 121.718 209.774 124.858 197.082 102.082C177.575 67.0638 169.563 31.1691 178.216 17.6231C184.562 7.73068 199.091 14.3327 207.424 30.934C210.265 36.596 211.398 39.865 211.056 41.3392C209.859 46.3175 214.389 48.1336 216.312 43.4331C223.298 26.5327 257.655 3.05155 267.932 8.17937Z" fill="black"/>
<path d="M430.42 33.6699C420.741 36.6183 406.276 55.7408 406.276 65.5691C406.276 67.1929 391.448 69.009 379.633 68.8167C375.531 68.7526 375.531 68.7526 378.116 66.8297C391.192 57.0869 395.123 43.9041 386.192 39.7591C373.779 33.9903 354.315 52.0232 357.648 66.1887C357.819 66.8938 357.925 67.4921 357.904 67.5134C357.819 67.5989 351.024 66.5947 342.499 65.2273C338.162 64.5222 333.312 63.7958 331.773 63.5821C329.017 63.2189 328.547 63.0693 329.274 62.7916C331.859 61.8087 337.713 56.5314 340.213 52.9846C348.759 40.7847 339.615 29.6531 327.223 37.1525C320.001 41.5111 314.382 50.9335 313.249 60.5481C313.1 61.7446 313.1 61.7446 307.288 61.8728C291.477 62.2147 278.124 66.0819 266.522 73.6882C261.287 77.1281 259.792 79.1792 261.352 80.7816C262.612 82.0636 263.467 81.914 266.736 79.7774C278.679 72.0003 292.973 67.7912 307.48 67.7912C310.322 67.7912 310.322 67.7912 309.382 69.7782C303.976 81.1662 306.391 92.8106 314.467 94.3063C323.761 96.0155 330 82.1491 325.171 70.4833C324.872 69.7782 324.573 69.0731 324.509 68.9236C324.445 68.7526 324.616 68.6886 325.129 68.7526C331.795 69.65 335.235 70.1414 341.965 71.2097C346.366 71.8934 351.43 72.6626 353.182 72.919C354.955 73.154 356.686 73.4104 357.071 73.4531C357.754 73.5813 357.754 73.5813 357.028 75.1197C352.199 85.3326 358.972 99.5409 368.373 98.9427C376.984 98.3871 379.056 85.9949 372.219 76.0598C371.664 75.2479 371.322 74.6496 371.429 74.7351C372.689 75.5043 395.358 74.5642 402.366 73.4531C405.144 73.0045 405.08 72.9831 405.828 74.1796C410.656 81.7004 426.275 87.7897 434.971 85.5462C447.748 82.2345 446.145 65.8683 432.706 62.407C430.911 61.9369 430.911 61.9369 432.984 59.9072C442 50.9762 444.756 40.6779 439.564 35.486C437.449 33.3707 433.796 32.6443 430.42 33.6699ZM434.565 39.6737C436.274 40.4001 436.167 43.7759 434.266 47.5363C430.826 54.4161 423.583 60.5481 414.951 63.8812C412.665 64.7572 412.707 64.8 413.434 62.6206C416.81 52.4077 425.805 41.4257 432.172 39.7164C433.625 39.3104 433.71 39.3104 434.565 39.6737ZM336.453 42.088C338.012 43.4768 335.128 49.1174 331.133 52.5146C328.74 54.5657 321.048 59.0312 319.915 59.0312C319.381 59.0312 322.137 52.8564 323.868 50.2284C327.928 44.0109 334.124 39.9942 336.453 42.088ZM383.158 45.9125C386.769 48.2628 379.377 57.8988 368.074 65.5264C364.848 67.7057 364.506 67.4707 364.506 63.0907C364.527 54.0956 377.454 42.1948 383.158 45.9125ZM430.804 69.6073C433.539 70.2483 435.184 71.4234 436.167 73.389C440.376 81.7858 423.049 81.209 413.071 72.6199C411.661 71.4234 412.002 71.2525 417.066 70.4619C418.369 70.2696 420.527 69.9278 421.873 69.7141C424.95 69.2227 428.988 69.18 430.804 69.6073ZM316.817 72.5771C318.975 76.9358 319.21 81.9995 317.437 85.183C314.488 90.4177 312.373 81.7004 314.724 73.9873C315.813 70.4192 315.77 70.4619 316.817 72.5771ZM366.279 77.6409C371.322 85.1189 370.959 96.336 365.852 91.2082C362.711 88.0888 362.092 82.8114 364.25 77.6622C364.997 75.8461 365.062 75.8461 366.279 77.6409Z" fill="black"/>
<path d="M32.3732 43.2629C21.327 44.6944 14.319 64.287 20.5365 76.3587C20.8143 76.9142 20.8143 76.9142 17.994 77.0424C6.84097 77.5124 -0.914849 83.0676 0.303006 89.7124C2.54642 101.784 26.0275 100.652 31.5399 88.1954C31.9459 87.2553 31.9459 87.2553 33.7193 88.0886C43.2057 92.4899 68.3961 95.2675 75.5323 92.6609C75.7246 92.5968 75.6819 92.725 75.4041 93.0454C68.0115 101.229 70.4045 111.805 79.6345 111.805C90.1679 111.805 99.4194 99.6048 96.1931 89.9047C95.7658 88.6013 95.1889 88.9218 100.659 87.4262C103.244 86.7211 109.248 84.9905 114.034 83.5804C123.99 80.6319 123.328 80.7173 122.537 82.5762C117.239 94.9684 120.785 106.314 129.503 104.818C138.562 103.258 142.813 90.6311 138.049 79.3499C137.643 78.4098 137.387 77.5765 137.472 77.5338C140.25 75.8032 157.641 76.3159 162.876 78.2602C165.184 79.1362 166.957 78.2602 166.978 76.2519C167.021 71.2309 151.189 68.4747 136.04 70.9104C135.229 71.0386 135.229 71.0386 134.865 69.0943C133.113 59.971 127.857 54.2236 121.255 54.2236C112.132 54.2236 109.397 65.7185 116.683 73.3461C118.285 75.0126 118.285 75.0126 117.58 75.2477C115.38 75.9314 99.5903 80.696 97.4323 81.3156C94.8684 82.0634 94.8684 82.0634 94.8043 81.5079C93.3942 69.6712 77.3911 60.7189 68.4602 66.744C61.9863 71.124 63.6742 79.7345 72.0924 85.3537C73.823 86.5288 73.823 86.5288 71.43 86.7852C59.2088 88.1313 44.744 86.3366 36.2832 82.4266C34.4457 81.572 34.5098 81.7643 35.5994 80.0336C47.3721 61.3812 45.6414 41.5323 32.3732 43.2629ZM36.0268 50.4632C39.5735 54.4373 37.3515 65.1202 30.7494 75.7818C29.2965 78.1321 29.2965 78.1321 28.4205 77.1065C24.4678 72.6197 23.3568 65.0561 25.6643 58.1977C28.0146 51.211 33.2278 47.3224 36.0268 50.4632ZM123.135 60.5266C125.742 61.7017 130.763 70.889 129.438 72.0641C127.665 73.6452 123.285 71.6582 120.828 68.1755C117.623 63.6246 119.119 58.7105 123.135 60.5266ZM78.0321 71.7437C83.1172 73.3461 87.0912 77.8329 88.0527 83.0248C88.4373 85.2255 77.5621 82.2557 73.7162 79.1362C67.8833 74.4144 70.7891 69.4361 78.0321 71.7437ZM132.131 82.2129C134.716 88.7295 133.925 95.2889 130.293 97.7032C125.528 100.844 125.251 89.8619 129.844 80.9737C130.87 79.0081 130.87 78.9867 132.131 82.2129ZM24.1473 83.3881C26.583 83.6872 26.583 83.6872 25.6429 85.5033C22.5022 91.4644 11.862 93.9428 7.8879 89.6483C5.79404 87.3835 12.5457 83.8581 19.981 83.324C21.9466 83.1744 22.2671 83.1744 24.1473 83.3881ZM89.9543 92.0412C91.3431 98.6647 86.0657 105.438 79.8909 104.925C74.0153 104.433 82.7753 90.8234 89.3347 90.2465C89.4629 90.2251 89.7406 91.0157 89.9543 92.0412Z" fill="black"/>
</svg>
