<svg width="529" height="184" viewBox="0 0 529 184" fill="none" xmlns="http://www.w3.org/2000/svg">
<path d="M378.739 0.746408C375.15 1.96426 369.744 6.04515 366.326 10.126C364.723 12.049 364.894 12.049 363.976 10.1901C355.13 -7.86404 339.448 3.52397 347.481 22.155C355.387 40.5083 372.864 44.5465 382.243 30.21C392.777 14.1215 390.704 -3.33448 378.739 0.746408Z" fill="black"/>
<path d="M265.693 3.00728C263.214 3.79782 258.086 11.5323 256.484 16.8524C256.163 17.942 256.121 17.942 255.245 16.4678C249.006 6.1267 241.592 1.49031 237.532 5.3789C229.371 13.1988 246.869 43.752 259.518 43.7734C266.483 43.7948 270.03 35.5048 271.867 14.9294C272.701 5.69939 270.5 1.46894 265.693 3.00728Z" fill="black"/>
<path d="M292.229 5.44522C286.118 8.47918 289.088 20.6364 298.168 29.8023C311.907 43.6688 326.393 37.8359 326.457 18.457C326.521 4.31283 315.325 0.445606 307.014 11.7482C306.266 12.7951 306.266 12.7951 305.112 11.4277C300.497 6.00074 295.647 3.73595 292.229 5.44522Z" fill="black"/>
<path d="M422.091 9.73474C421.215 10.568 417.498 18.1315 414.784 24.6481C410.896 34.0278 416.579 35.4379 420.724 26.1224C425.531 15.3112 426.685 9.79884 424.228 9.28606C423.074 9.0724 422.775 9.1365 422.091 9.73474Z" fill="black"/>
<path d="M464.075 11.6835C462.558 12.6664 443.67 32.1093 441.79 34.6305C439.055 38.3482 440.401 41.4035 444.226 40.1429C446.448 39.3951 464.823 19.6317 467.28 15.3157C468.07 13.9483 467.857 12.0254 466.895 11.6622C465.912 11.2776 464.694 11.299 464.075 11.6835Z" fill="black"/>
<path d="M199.736 21.5568C198.39 22.3687 198.304 25.83 199.244 43.991C202.513 108.003 203.325 114.562 207.962 114.562C208.816 114.562 209.009 114.477 209.714 113.708C211.188 112.148 211.231 111.251 210.355 100.611C209.692 92.577 209.543 90.2481 208.859 78.2832C207.513 54.738 205.975 37.6453 204.159 26.2573C203.389 21.4713 202.107 20.1039 199.736 21.5568Z" fill="black"/>
<path d="M133.032 37.2181C130.639 38.0513 130.51 39.3974 131.814 49.7599C133.908 66.703 134.719 78.3474 135.061 96.5511C135.254 106.828 135.147 107.939 134.078 106.251C131.878 102.79 128.887 97.0426 122.028 83.0906C114.913 68.6473 112.969 66.2543 109.08 67.2799C105.17 68.3054 104.123 72.9418 103.782 90.5473C103.632 97.8972 103.632 97.8972 102.158 92.4703C89.381 45.4439 87.2017 39.7393 83.014 42.0895C80.386 43.5851 81.8389 51.4264 90.0861 80.3131C99.1452 111.999 102.136 118.558 106.666 116.827C109.465 115.78 109.743 114.37 110.576 97.5126C111.26 83.6461 111.623 78.1337 111.858 78.2833C112.007 78.3688 114.08 82.9411 117.477 90.6755C127.327 113.024 133.224 120.652 138.523 117.938C141.578 116.379 142.197 113.067 142.197 98.0467C142.197 76.8945 140.595 53.9048 138.352 43.0296C137.347 38.1582 135.638 36.2993 133.032 37.2181Z" fill="black"/>
<path d="M475.825 45.4009C460.207 47.8366 453.477 49.7809 452.729 52.1098C451.447 56.1693 454.16 56.3188 467.279 52.9644C479.799 49.7595 479.863 49.7381 480.526 48.4776C481.658 46.2982 479.415 44.8454 475.825 45.4009Z" fill="black"/>
<path d="M394.379 53.1594C379.017 57.3471 377.65 85.3364 392.115 99.5874C399.379 106.788 407.562 107.942 412.925 102.557C418.138 97.3013 414.613 91.5325 409.122 96.3612C403.075 101.66 394.166 94.6519 390.982 82.0674C390.363 79.6103 390.106 79.8454 393.525 79.6317C411.365 78.5634 415.275 75.9354 412.797 66.684C410.19 56.9411 402.157 51.0441 394.379 53.1594ZM399.892 59.4837C402.99 60.5733 405.703 64.6542 406.173 68.9274C406.366 70.6367 406.9 70.423 398.375 71.8759C394.678 72.5169 391.239 73.1151 390.747 73.2219C389.828 73.4356 389.828 73.4356 389.828 72.1109C389.871 63.4577 394.529 57.6035 399.892 59.4837Z" fill="black"/>
<path d="M358.976 56.6114C354.511 57.701 349.618 62.9357 345.686 70.8624C344.255 73.7255 344.255 73.7255 343.55 70.9693C338.764 52.0604 324.748 53.6202 317.697 73.8323C316.864 76.2253 316.885 76.2894 316.586 70.3069C316.095 60.5641 315.347 58.8548 312.121 60.2009C310.283 60.9487 309.642 68.4908 309.621 89.173C309.599 106.907 310.027 109.214 313.595 110.24C316.479 111.052 317.911 109.065 318.488 103.488C320.667 82.165 329.32 60.8846 333.722 66.0337C335.858 68.5335 336.948 74.1528 337.589 85.9681C337.76 89.2585 337.995 92.3138 338.102 92.7625C338.956 96.3306 343.315 97.3134 345.238 94.3649C345.857 93.4034 345.9 93.2753 346.648 89.7499C349.361 77.1654 359.19 60.9059 362.095 64.2176C364.424 66.867 365.322 73.7468 365.685 91.7369C365.963 104.749 366.048 105.454 367.822 106.394C372.736 109.022 373.825 102.27 372.287 78.8319C371.176 61.6537 366.967 54.6244 358.976 56.6114Z" fill="black"/>
<path d="M167.26 59.3488C151.898 63.5365 150.53 91.5259 164.995 105.777C172.26 112.977 180.443 114.131 185.806 108.747C191.019 103.491 187.493 97.722 182.002 102.551C175.956 107.849 167.046 100.841 163.863 88.2569C163.243 85.7998 162.987 86.0348 166.405 85.8212C184.246 84.7529 188.156 82.1249 185.677 72.8734C183.071 63.1306 175.037 57.2336 167.26 59.3488ZM172.772 65.6731C175.87 66.7628 178.584 70.8437 179.054 75.1168C179.246 76.8261 179.78 76.6125 171.255 78.0653C167.559 78.7063 164.119 79.3046 163.628 79.4114C162.709 79.6251 162.709 79.6251 162.709 78.3004C162.752 69.6472 167.41 63.7929 172.772 65.6731Z" fill="black"/>
<path d="M276.183 60.1425C267.851 64.2661 263.086 84.4568 267.445 97.2977C272.53 112.361 288.234 117.873 298.404 108.152C310.625 96.4858 307.613 69.2443 293.319 62.0654C286.525 58.6468 282.786 63.326 289.345 66.9795C305.54 75.996 298.81 111.485 282.422 103.494C272.359 98.5583 270.5 74.1799 279.495 64.9925C280.734 63.7533 281.204 62.8132 280.991 62.1081C280.927 61.9586 280.841 61.574 280.777 61.2535C280.457 59.8006 278.064 59.2237 276.183 60.1425Z" fill="black"/>
<path d="M238.985 62.7908C223.751 64.5429 217.042 81.8492 225.332 98.0659C232.084 111.27 248.172 116.676 257.83 108.984C264.987 103.279 262.189 96.784 254.753 101.784C242.938 109.732 227.469 95.673 230.759 79.9904C232.148 73.3883 240.78 68.346 247.767 70.0766C249.818 70.568 250.886 70.0553 251.1 68.4101C251.548 65.0129 245.224 62.0858 238.985 62.7908Z" fill="black"/>
<path d="M476.039 98.5967C475.804 98.6395 475.078 98.789 474.437 98.9172C465.805 100.627 460.784 110.327 463.818 119.428C464.437 121.245 475.932 120.796 385.448 122.505C235.117 125.368 194.159 126.073 142.731 126.672C104.23 127.12 66.3909 127.676 64.4039 127.804C63.4424 127.889 63.4424 127.889 62.0109 125.09C59.4684 120.134 55.4943 114.044 53.0373 111.374C50.6015 108.724 48.4009 108.318 41.6706 109.301C40.0254 109.557 37.6325 109.814 36.3291 109.899C27.6759 110.391 17.3135 111.352 9.87816 112.335C7.27153 112.698 4.55806 113.04 3.85298 113.126C-0.612488 113.617 -0.954342 115.39 2.20781 121.544C7.57065 131.949 7.74158 132.611 6.01094 136.863C1.33181 148.422 0.90449 151.264 3.55386 152.588C6.60918 154.084 50.7725 153.251 54.1056 151.648C55.5157 150.965 59.618 143.657 62.2887 137.077C62.8015 135.859 62.8015 135.859 64.6389 135.859C69.6813 135.859 100.854 135.132 143.159 134.043C183.326 132.996 218.089 132.248 274.559 131.158C374.487 129.235 465.506 127.569 465.613 127.633C465.634 127.633 465.378 128.381 465.036 129.257C461.062 139.512 465.869 150.559 475.184 152.439C486.466 154.725 511.015 144.063 523.92 131.265C531.462 123.766 530.885 122.27 516.955 112.976C502.725 103.49 484.222 96.9943 476.039 98.5967Z" fill="black"/>
<path d="M156.94 142.912C135.445 144.194 100.683 149.834 86.7099 154.343C83.8469 155.261 82.9922 156.586 83.975 158.509C84.6588 159.855 85.9407 159.919 90.8762 158.851C139.676 148.275 182.151 146.202 196.424 153.68C197.001 153.979 197.001 153.979 196.253 154.108C191.04 154.898 189.33 155.219 186.937 155.753C163.285 161.094 151.555 174.619 164.952 181.05C180.805 188.678 206.594 176.99 208.132 161.479C208.325 159.492 212.32 159.513 230.652 161.628C245.117 163.274 248.535 163.637 254.154 164.15C295.284 167.931 329.405 164.791 347.352 155.582C354.339 151.992 352.993 146.416 345.75 149.022C328.059 155.432 315.987 157.825 296.886 158.723C280.798 159.47 264.004 158.573 235.139 155.411C221.721 153.937 214.328 153.381 208.431 153.381C205.974 153.381 205.974 153.381 205.12 152.313C201.295 147.463 193.112 144.429 180.442 143.104C177.579 142.805 161.02 142.677 156.94 142.912ZM201.594 161.009C201.53 170.196 184.031 178.807 170.87 176.114C165.123 174.939 164.695 173.123 169.353 169.683C175.528 165.111 185.484 161.949 198.71 160.368C201.146 160.069 201.594 160.175 201.594 161.009Z" fill="black"/>
</svg>
