<svg width="167" height="115" viewBox="0 0 167 115" fill="none" xmlns="http://www.w3.org/2000/svg">
<path d="M112.418 0.971176C112.012 1.12074 111.072 1.63352 110.345 2.10357C107.29 4.0906 102.76 4.88113 97.9744 4.21879C93.9149 3.66328 92.7611 7.40231 95.9446 10.7354C100.175 15.1368 103.743 21.8884 106.115 29.922C109.662 41.9082 109.875 55.6037 106.499 54.1936C99.876 51.416 90.4109 33.8105 86.2659 16.5896C84.8985 10.9277 81.3517 10.9704 77.6982 16.7178C76.9076 17.9571 75.7111 19.4313 74.5574 20.5637C69.5364 25.4992 74.6642 28.3409 79.8348 23.4908C81.2449 22.1661 81.4372 22.0593 81.4372 22.5721C81.4372 22.743 81.9714 24.5377 82.6337 26.5675C90.475 50.7537 104.171 65.603 111.819 58.2104C118.272 51.9715 114.832 26.1188 105.709 12.3592C104.79 10.9918 104.769 10.9277 105.239 10.9277C107.375 10.9277 112.033 9.09021 114.17 7.40231C118.144 4.30425 116.798 -0.631265 112.418 0.971176Z" fill="black"/>
<path d="M128.762 5.86556C118.506 10.0533 120.109 34.0899 131.069 40.6492C132.309 41.3757 132.33 42.1876 131.326 46.5676C130.706 49.217 131.347 51.2467 132.843 51.3322C135.556 51.5031 137.543 48.811 138.376 43.8755C138.462 43.3841 138.526 42.9781 138.547 42.9781C147.051 42.5722 151.816 38.0212 156.324 25.9922C159.144 18.4501 161.067 15.5657 164.785 13.1513C168.353 10.8438 167.114 6.61337 163.139 7.51073C157.99 8.66449 153.333 14.3905 149.059 24.8171C146.538 30.9705 144.444 33.8762 141.624 35.1796C139.722 36.0769 139.872 36.6538 139.872 28.4066C139.872 12.254 135.385 3.15209 128.762 5.86556ZM131.454 17.4672C132.843 23.3642 133.227 34.2608 131.988 32.7225C128.698 28.663 127.651 20.4371 129.745 14.9033C130.279 13.4291 130.599 13.9205 131.454 17.4672Z" fill="black"/>
<path d="M6.35737 28.4461C-1.16343 31.3733 -1.54801 55.1535 5.63093 73.1863C9.1563 82.0959 15.2456 90.8559 21.1639 95.5777C22.104 96.3255 22.104 96.3255 21.8263 101.005C21.1212 113.076 21.6981 115.555 24.8816 114.102C26.014 113.589 27.5737 105.919 27.5951 100.727C27.5951 99.8295 27.5951 99.8295 29.6462 100.706C47.6149 108.205 55.3921 95.9623 46.0552 74.8528C41.9957 65.6869 41.6965 61.9051 44.3673 54.1066C46.4611 47.9532 41.6538 46.1157 38.7053 51.9486C34.8595 59.5762 35.2227 67.1825 39.9018 77.1817C47.2517 92.8856 44.5168 99.8295 32.7656 95.4068C28.1078 93.6548 28.0224 93.5266 28.0224 88.527C28.0224 75.1092 25.6721 61.1359 21.0571 47.0131C16.1216 31.9074 11.7202 26.3523 6.35737 28.4461ZM9.9682 35.2832C14.2414 41.5861 20.4161 64.1699 21.6981 78.25C22.4245 86.369 22.3818 88.4629 21.5058 87.6296C10.8869 77.5663 3.40887 52.7391 6.61376 38.1035C7.66068 33.2962 8.25893 32.7834 9.9682 35.2832Z" fill="black"/>
<path d="M72.3352 38.9166C62.977 40.8395 61.1609 62.4832 70.0063 66.4999C73.959 68.2947 75.3478 65.1112 72.5916 60.6457C69.8995 56.2443 70.455 46.1169 73.4676 45.1554C74.3863 44.8777 77.0571 48.7876 78.5954 52.6762C83.4455 64.9402 83.0182 76.0078 77.4844 81.5629C69.6004 89.4683 61.2036 80.8151 60.5199 64.107C60.3062 58.7869 58.597 57.0349 55.9476 59.3851C54.281 60.8807 54.4947 70.2176 56.3535 76.6701C62.8488 99.2111 88.2742 92.8014 88.2742 68.6152C88.2742 53.2958 79.7278 37.3782 72.3352 38.9166Z" fill="black"/>
</svg>
