<svg width="308" height="308" viewBox="0 0 308 308" fill="none" xmlns="http://www.w3.org/2000/svg">
<path d="M218.24 0.803009C215.248 1.20896 214.137 1.44399 212.364 1.9995C204.822 4.41384 196.852 10.4604 190.977 18.2376C189.738 19.9041 189.738 19.9041 189.503 19.0067C185.144 1.27306 170.423 -4.55983 158.971 6.89229C147.497 18.3658 154.826 32.4886 176.854 41.2914C178.777 42.0605 178.862 42.146 178.05 42.5092C176.555 43.2143 171.769 46.4619 167.175 49.9232C151.45 61.8026 143.245 63.8324 119.316 61.8667C100.449 60.307 88.6128 62.2727 77.5453 68.832C66.4136 75.4127 58.5296 86.5229 62.8028 89.5569C64.7685 90.9457 66.5846 90.0697 71.3492 85.3906C84.361 72.6565 94.8089 69.473 117.499 71.3745C136.9 72.977 146.92 71.9514 156.962 67.3364C162.56 64.7511 166.235 61.9308 175.615 53.0853C182.516 46.5474 183.328 46.3337 184.439 50.671C187.494 62.5718 196.703 69.3875 221.872 78.3398C247.084 87.3135 253.728 92.9754 258.621 109.641C262.061 121.328 268.984 117.162 266.441 104.94C262.873 87.9117 251.784 78.6817 223.474 69.1525C209.544 64.4734 204.202 62.2086 199.587 59.0678C192.9 54.4955 188.733 48.0003 190.656 45.0731C191.062 44.4535 191.511 43.5775 191.66 43.1502C191.938 42.3383 191.938 42.3383 195.25 41.2486C220.697 32.8305 235.909 19.4982 232.491 8.64429C230.846 3.43101 224.478 -0.0729921 218.24 0.803009ZM174.76 9.90488C179.14 12.1269 181.768 20.0537 181.554 30.3093C181.49 33.3646 181.49 33.3646 178.35 32.104C163.436 26.1002 158.437 18.9854 164.59 12.4902C167.688 9.1998 171.448 8.23834 174.76 9.90488ZM221.551 11.2082C225.397 12.2124 218.069 19.605 207.664 25.2029C202.942 27.724 191.084 32.5954 191.554 31.8049C193.455 28.6428 199.78 21.5493 203.497 18.4512C209.928 13.067 217.3 10.1185 221.551 11.2082Z" fill="black"/>
<path d="M26.8228 81.4432C25.7973 81.7637 24.6222 82.7037 23.7889 83.9216C22.9984 85.054 22.9984 85.054 21.8446 84.2207C15.5417 79.7125 10.9907 88.0025 16.5672 93.8354C17.8064 95.1387 17.9133 95.331 17.4005 95.331C16.8022 95.331 14.4306 96.3993 13.2769 97.1685C9.32418 99.9033 8.7473 104.732 11.3112 113.492C11.6744 114.731 12.0163 115.928 12.0804 116.163C12.1658 116.505 11.9308 116.718 10.7557 117.338C4.45276 120.628 3.44856 128.213 7.89267 138.96C8.57638 140.669 8.85413 141.524 8.6832 141.588C0.906022 144.152 -1.29466 147.549 2.89305 150.519C5.69198 152.485 17.5287 152.421 27.3356 150.348C29.6859 149.857 29.5363 149.75 30.0918 152.1C30.3696 153.254 31.2029 156.01 31.9507 158.232C32.6985 160.476 33.2753 162.313 33.254 162.334C33.2326 162.377 31.6302 162.783 29.6859 163.275C24.1094 164.685 23.2761 165.219 23.2761 167.484C23.2761 170.133 24.7931 170.582 30.9465 169.684C33.3608 169.342 37.1212 168.808 39.3005 168.509C47.4837 167.355 50.0262 166.351 50.6458 164.086C51.5432 160.711 48.4451 159.365 42.1208 160.411C40.9243 160.604 39.8988 160.732 39.856 160.689C39.7065 160.518 37.0785 153.425 36.2879 151.117C35.3692 148.382 35.3265 148.489 37.0571 148.083C43.5737 146.566 55.9873 142.101 58.9571 140.199C64.2986 136.759 62.5893 131.674 56.0514 131.653C54.5558 131.653 54.5558 131.653 54.2566 130.2C52.1842 119.688 48.5733 113.236 43.8942 111.804C42.6977 111.441 42.6977 111.441 42.6122 108.45C42.1849 95.9079 40.3688 92.8739 33.2112 92.8739C29.985 92.8739 29.985 92.8739 30.4978 91.6347C33.1044 85.1608 31.2883 80.1185 26.8228 81.4432ZM35.3692 99.2837C35.9247 100.117 36.0956 101.271 36.4161 106.185C36.758 111.419 36.8007 111.142 35.5188 111.142C33.3394 111.142 25.6691 112.531 20.7336 113.812C19.1525 114.218 17.8492 114.539 17.8278 114.496C17.7423 114.389 16.439 106.078 16.3108 104.946C16.0331 102.424 17.1868 101.591 22.6351 100.373C30.1773 98.6854 34.7282 98.3008 35.3692 99.2837ZM42.0354 117.872C44.1933 118.791 45.2189 120.842 47.0777 128.149C48.2742 132.849 48.2742 132.422 47.0563 132.614C40.8175 133.512 28.703 136.161 19.1311 138.704C16.9091 139.302 15.0716 139.751 15.0502 139.729C14.1529 138.64 11.8881 129.602 11.8667 127.017C11.824 122.936 14.7725 121.355 26.9083 118.962C34.771 117.402 39.9842 117.017 42.0354 117.872Z" fill="black"/>
<path d="M30.5393 102.293C30.1761 102.614 29.7488 103.105 29.5779 103.426C28.9369 104.622 28.9369 104.601 28.0609 104.002C26.6935 103.084 25.4115 103.212 24.3005 104.366C23.4245 105.263 23.4245 105.263 22.7408 104.579C21.2024 103.041 18.7881 104.216 18.7881 106.481C18.7881 110.199 22.7835 112.122 26.0739 109.964C26.7789 109.515 26.9499 109.472 27.6763 109.686C30.9666 110.583 34.1929 108.404 34.5347 105.028C34.8125 102.315 32.4409 100.691 30.5393 102.293Z" fill="black"/>
<path d="M40.2395 121.352C39.5131 121.929 39.1499 122.677 38.8721 124.236C38.338 127.121 38.2098 127.099 35.2613 123.788C33.7657 122.121 30.7744 123.211 30.4326 125.54C30.0266 128.21 29.0224 128.424 26.9286 126.309C24.5142 123.895 21.9289 124.407 21.1811 127.441C20.5615 129.877 19.1514 129.898 18.5531 127.463C17.5703 123.553 12.763 125.433 13.6603 129.386C14.8568 134.727 21.1811 136.864 24.5142 133.061C25.1338 132.355 25.1338 132.355 26.7149 132.868C29.1934 133.702 31.7786 133.231 33.4238 131.65C34.0648 131.031 34.0648 131.031 35.2399 131.608C40.3036 134.107 45.7519 129.386 44.5554 123.531C44.0854 121.245 41.7779 120.091 40.2395 121.352Z" fill="black"/>
<path d="M243.558 126.671C238.836 128.978 235.247 140.217 237.234 146.541C238.003 148.998 240.374 149.553 241.849 147.609C242.041 147.353 242.19 146.22 242.297 144.297C242.554 139.682 243.622 136.542 246.464 131.798C248.75 128.017 247.019 124.983 243.558 126.671Z" fill="black"/>
<path d="M255.608 128.063C249.711 128.725 246.058 136.096 249.434 140.519C249.839 141.053 250.181 141.715 250.181 142.014C250.181 146.672 258.77 151.522 262.274 148.852C264.048 147.505 263.407 144.578 261.249 144.172C258.92 143.724 256.762 142.014 256.249 140.22C255.993 139.344 255.63 138.767 254.946 138.062C253.301 136.417 253.344 135.669 255.096 134.152C256.741 132.742 257.766 133.233 258.3 135.69C259.005 139.087 262.958 139.792 263.556 136.63C263.685 135.947 264.069 135.412 264.069 135.925C264.069 137.634 266.868 137.634 268.962 135.904C272.017 133.404 272.509 133.34 272.231 135.455C271.611 139.899 274.047 141.395 278.683 139.472C279.73 139.023 281.119 138.617 281.76 138.553C283.085 138.404 283.042 138.233 282.252 140.412C280.286 145.796 285.456 146.843 287.999 141.587C290.947 135.541 286.033 131.161 278.683 133.276C278.277 133.383 278.213 133.297 278.064 132.378C277.38 127.742 272.21 126.439 267.552 129.708C265.586 131.075 263.898 133.34 263.834 134.643C263.813 134.942 263.727 134.643 263.62 134.002C262.894 129.686 260.01 127.55 255.608 128.063Z" fill="black"/>
<path d="M265.799 144.022C261.505 148.317 267.231 155.731 272.743 153.017C273.833 152.462 273.833 152.462 274.859 153.402C279.324 157.44 285.841 156.884 288.554 152.248C291.246 147.676 287.464 144.428 283.854 148.189C281.268 150.902 279.431 150.71 277.401 147.569C275.799 145.048 273.427 144.727 271.461 146.8C270.628 147.654 270.479 147.633 270.479 146.629C270.479 143.403 267.893 141.928 265.799 144.022Z" fill="black"/>
<path d="M244.22 147.227C240.139 148.274 241.293 153.103 245.438 152.355C247.617 151.949 249.027 152.675 248.343 153.872C246.356 157.226 239.434 156.82 239.84 153.38C240.31 149.428 236.186 148.53 234.584 152.205C230.994 160.431 244.434 165.388 251.42 158.423C256.954 152.91 252.04 145.261 244.22 147.227Z" fill="black"/>
<path d="M269.816 155.578C268.235 155.855 263.577 157.308 251.997 161.133C237.233 166.004 238.344 165.705 238.258 165C237.895 161.517 235.054 161.389 231.998 164.722C227.405 169.743 229.819 173.162 236.784 171.516C243.322 169.957 270.841 161.282 272.743 160.171C276.824 157.778 274.816 154.659 269.816 155.578Z" fill="black"/>
<path d="M275.692 160.923C273.726 161.714 273.534 162.804 273.149 174.704C272.465 196.626 270.436 213.355 268.171 215.876C264.261 220.214 235.417 223.355 233.665 219.637C232.234 216.603 232.575 205.471 234.691 186.669C236.015 174.939 235.844 173.529 233.131 173.529C230.802 173.529 230.14 175.538 227.96 188.998C222.32 224.017 225.204 230.17 246.121 227.713C268.342 225.107 273.747 222.649 275.927 214.06C278.79 202.801 281.033 165.709 279.068 162.334C278.32 161.03 276.888 160.432 275.692 160.923Z" fill="black"/>
<path d="M264.519 167.218C263.792 168.051 263.557 168.799 263.215 171.17C262.617 175.529 262.339 175.657 260.673 172.474C258.323 168.029 254.926 168.371 254.135 173.136C253.473 177.025 253.302 177.153 252.063 174.653C250.118 170.764 246.977 170.935 245.802 174.995C244.649 178.99 243.879 179.054 243.003 175.23C242.256 171.918 238.581 171.662 238.111 174.909C237.021 182.088 245.311 187.088 248.986 181.469C249.392 180.849 249.392 180.849 250.46 181.511C252.874 183.007 256.015 182.302 257.81 179.823C258.259 179.182 258.259 179.182 258.878 179.631C263.878 183.327 269.177 178.969 269.198 171.17C269.198 167.089 266.591 164.867 264.519 167.218Z" fill="black"/>
<path d="M67.3533 182.795C62.6742 183.971 52.5467 190.658 39.1931 201.405C35.6677 204.247 29.322 209.246 25.0916 212.515C16.652 219.053 14.8359 220.677 14.6223 221.852C14.3232 223.455 15.4983 224.801 17.1648 224.801C18.7673 224.801 27.7837 219.267 35.3899 213.626C39.1931 210.806 38.6162 211.063 42.633 210.272C48.1454 209.182 50.8375 208.541 52.7604 207.879C66.7337 202.943 78.5063 187.24 71.2205 183.201C70.1309 182.603 68.7207 182.454 67.3533 182.795ZM66.3277 190.124C62.9947 195.337 52.3972 203.008 48.5513 203.008C47.9744 203.008 58.3796 194.953 62.8024 191.983C66.7978 189.312 66.8619 189.291 66.3277 190.124Z" fill="black"/>
<path d="M259.796 183.865C252.062 185.211 241.336 187.668 238.559 188.715C234.35 190.274 235.546 195.06 239.99 194.355C263.172 190.745 270.693 188.608 270.693 185.681C270.693 183.053 267.552 182.519 259.796 183.865Z" fill="black"/>
<path d="M257.766 193.823C241.015 196.814 236.443 198.246 236.443 200.575C236.443 203.395 238.323 203.502 251.677 201.387C263.172 199.571 267.231 198.267 268.15 196.109C269.282 193.439 265.116 192.52 257.766 193.823Z" fill="black"/>
<path d="M79.5535 199.677C76.3913 201.279 73.8274 203.929 70.3021 209.313C66.328 215.381 66.4562 215.295 53.4016 221.769C29.8992 233.392 23.1262 238.306 26.3738 241.362C27.9335 242.857 28.6172 242.708 33.3177 239.823C36.138 238.114 43.787 234.375 48.167 232.58C49.8122 231.918 53.0811 230.444 55.4314 229.354C65.1956 224.739 68.2509 223.713 77.1178 222.132C90.5569 219.739 93.0781 218.479 91.4116 215.06C90.5996 213.351 89.2536 212.988 85.8778 213.586C83.5062 214.013 83.5062 213.992 84.489 213.351C90.5783 209.334 87.6084 203.864 81.1346 207.155C78.8911 208.287 79.2116 207.646 82.096 205.189C86.6897 201.279 84.7454 197.091 79.5535 199.677Z" fill="black"/>
<path d="M286.824 202.992C281.996 204.167 283.919 207.436 290.884 209.957C301.973 213.974 302.037 218.14 291.119 223.417C271.954 232.669 217.727 238.01 208.283 231.579C205.933 229.977 212.535 222.669 220.804 217.734C224.842 215.32 225.44 212.82 222.15 212.008C217.535 210.897 203.54 221.558 201.19 227.968C197.622 237.754 210.035 242.134 238.281 241.066C282.38 239.378 311.993 226.985 306.396 212.585C304.259 207.072 292.935 201.517 286.824 202.992Z" fill="black"/>
<path d="M263.984 203.455C263.237 204.032 262.724 205.122 262.275 206.959C261.677 209.438 261.442 209.395 260.117 206.575C258.493 203.156 255.267 203.583 253.793 207.408C252.361 211.104 251.357 211.361 250.588 208.22C250.118 206.361 249.263 205.57 247.725 205.57C246.144 205.57 245.546 206.147 244.712 208.498C244.114 210.186 242.576 212.408 242.02 212.408C241.721 212.408 241.273 211.126 240.995 209.416C240.183 204.459 235.653 204.652 235.653 209.63C235.653 217.77 241.679 221.317 246.742 216.168C247.875 215.014 247.875 215.014 248.622 215.527C251.101 217.194 255.054 216.51 256.848 214.095C257.276 213.519 257.276 213.519 258.28 214.224C262.831 217.493 267.916 213.668 267.916 206.981C267.916 203.648 265.972 201.896 263.984 203.455Z" fill="black"/>
<path d="M247.404 248.007C246.143 248.52 244.926 250.315 243.879 253.221C239.669 265.036 233.26 270.271 213.325 278.197C202.066 282.684 199.117 283.988 189.075 288.902C173.884 296.337 169.098 297.897 161.513 297.897C155.744 297.897 149.228 295.91 151.386 294.82C169.675 285.59 179.589 266.703 170.765 257.857C163.18 250.23 149.869 258.861 144.121 275.121C143.993 275.463 143.758 275.142 142.946 273.582C134.806 258.199 118.824 252.665 114.594 263.797C111.196 272.749 123.674 288.731 137.605 293.218C139.485 293.816 139.485 293.795 136.9 294.948C121.708 301.7 114.53 300.674 99.8725 289.65C94.1465 285.355 92.7577 284.372 86.7325 280.441C74.789 272.664 71.1995 268.54 67.6314 258.455C65.1957 251.618 63.5719 249.247 61.3498 249.311C57.2262 249.439 58.5295 262.259 63.5719 271.189C67.0545 277.364 71.4131 281.317 82.2029 288.09C87.6299 291.508 90.1724 293.239 95.3857 297.085C112.393 309.669 125.255 310.695 140.446 300.653C142.775 299.115 142.775 299.115 143.865 299.457C144.57 299.692 145.296 299.756 145.916 299.67C146.792 299.563 146.963 299.627 147.86 300.311C154.099 305.076 164.868 306.037 175.785 302.79C180.144 301.486 183.541 300.076 192.109 295.931C201.724 291.295 206.467 289.222 214.073 286.338C236.956 277.642 245.353 271.895 250.053 261.724C253.579 254.097 252.04 246.149 247.404 248.007ZM165.188 262.622C166.406 262.964 166.919 263.989 167.025 266.254C167.346 273.027 162.432 279.757 151.941 286.851C148.651 289.094 148.758 289.115 149.078 286.103C150.403 274.33 157.176 263.776 164.291 262.429C164.355 262.429 164.761 262.515 165.188 262.622ZM125.148 266.297C130.618 268.305 137.541 277.108 140.489 285.74C141.13 287.663 141.344 287.641 138.096 286.039C128.93 281.488 122.05 274.117 121.602 268.348C121.388 265.506 122.008 265.143 125.148 266.297Z" fill="black"/>
</svg>
