<svg width="300" height="395" viewBox="0 0 300 395" fill="none" xmlns="http://www.w3.org/2000/svg">
<path d="M253.699 0.271513C249.81 0.976587 247.545 2.21581 233.401 11.339C220.923 19.3726 209.172 27.6839 200.818 34.3715C194.707 39.2643 193.084 42.1059 193.853 46.4859C194.75 51.7633 194.494 52.2547 186.823 59.0918C178.384 66.634 175.649 69.1765 175.435 69.7747C175.008 70.9071 174.987 71.1208 175.115 71.7618C175.435 73.4283 177.551 74.1975 179.303 73.3215C180.798 72.5523 193.34 61.7198 196.032 58.8781C198.126 56.6561 199.963 53.8358 199.963 52.8102C199.963 52.5111 200.113 52.4897 200.775 52.5752C201.203 52.6607 202.121 52.7675 202.805 52.853C204.023 53.0025 204.023 53.0025 204.023 53.7931C204.023 56.5279 206.352 58.985 209.236 59.2841C210.988 59.4764 211.373 63.6214 209.621 63.6214C206.651 63.6427 204.771 64.5615 201.78 67.4672C199.216 69.9457 197.57 71.0994 191.759 74.6248C184.238 79.1544 182.892 79.4962 180.157 77.6588C176.269 75.0521 173.149 78.1074 176.012 81.7396C178.127 84.4104 181.867 85.4787 185.648 84.4958C189.58 83.4489 202.036 75.9281 206.031 72.1677C207.997 70.3303 207.997 70.3303 210.134 70.0525C218.894 69.0056 225.923 65.0956 250.921 47.426C272.992 31.8076 278.569 20.74 270.086 9.37338C264.51 1.89532 259.617 -0.818148 253.699 0.271513ZM257.801 6.21123C260.108 7.06586 266.134 13.8175 267.266 16.7873C268.591 20.3127 266.668 24.7568 261.412 30.2479C259.724 32.0212 259.724 32.0212 258.698 30.0556C256.327 25.5687 249.703 17.7702 244.832 13.7107C242.973 12.1723 242.887 12.4501 245.751 10.6126C251.754 6.70264 255.451 5.35659 257.801 6.21123ZM240.9 18.5821C246.071 23.8595 254.596 35.4398 254.147 36.5935C254.019 36.9781 250.131 39.777 243.165 44.5203C237.503 48.3875 237.503 48.3875 236.777 46.9346C235.11 43.6229 232.824 42.3837 228.423 42.4264C224.278 42.4691 224.534 42.7042 224.684 38.901C224.855 34.521 223.68 31.6366 220.603 28.8591C219.3 27.6839 218.424 28.4104 231.051 20.2059C239.148 14.9499 237.567 15.2063 240.9 18.5821ZM216.287 33.3459C218.402 35.4611 218.894 36.4653 218.68 38.3455C217.825 46.315 219.663 48.6439 226.991 48.8789C230.709 48.9857 231.008 49.178 231.478 51.6565C231.628 52.5752 223.274 58.3654 217.761 61.1429C216.394 61.8266 216.415 61.8266 216.415 61.1002C216.415 60.7583 216.266 60.0105 216.095 59.455C215.924 58.8781 215.817 58.3867 215.838 58.3867C221.735 55.4169 222.718 48.5798 217.676 45.7809C215.155 44.3921 210.176 44.9689 207.677 46.956C207.1 47.4047 206.587 47.7251 206.523 47.661C206.33 47.4901 202.506 46.956 201.309 46.956C200.092 46.956 200.198 47.1055 199.643 44.7767C199.237 43.1101 202.057 40.3539 210.497 34.2005C214.77 31.0811 214.129 31.188 216.287 33.3459ZM215.069 51.3787C215.283 51.9129 213.894 53.0453 212.505 53.4939C210.582 54.0922 209.664 53.558 210.604 52.3402C211.416 51.2932 214.77 50.5668 215.069 51.3787Z" fill="black"/>
<path d="M199.727 55.6522C197.761 55.9727 197.718 58.2375 199.641 60.0109C200.175 60.5023 201.009 61.5492 201.457 62.3184C202.654 64.3695 203.936 64.9464 205.624 64.1559C209.512 62.297 204.363 54.8617 199.727 55.6522Z" fill="black"/>
<path d="M167.059 78.3207C165.756 79.1967 164.239 79.6667 159.581 80.6709C151.27 82.4656 148.043 84.4954 146.655 88.8113C145.138 93.4691 150.009 95.9262 152.21 91.6102C153.342 89.3882 154.795 88.619 160.457 87.2089C167.636 85.4355 170.2 84.1108 171.225 81.6537C172.4 78.8121 169.644 76.59 167.059 78.3207Z" fill="black"/>
<path d="M172.058 86.5038C171.268 86.9098 170.905 87.8072 170.905 89.5164C170.905 91.6103 170.499 93.17 168.96 97.1227C166.61 103.127 167.636 106.31 171.332 104.43C177.165 101.46 177.891 83.6836 172.058 86.5038Z" fill="black"/>
<path d="M140.993 96.9735C130.246 97.4436 129.028 98.2768 128.045 105.798C126.037 121.416 130.545 132.12 140.074 134.385C141.185 134.642 141.185 134.642 141.185 141.5C141.185 145.26 141.249 148.978 141.335 149.747C141.463 151.179 141.463 151.179 140.01 151.328C134.647 151.841 130.374 152.525 129.605 153.016C129.284 153.209 128.066 153.358 126.015 153.444C116.7 153.828 96.8935 155.943 95.4406 156.691C94.0091 157.439 93.6245 159.682 94.7355 160.836C95.8893 162.033 97.6627 162.054 109.478 160.943C115.653 160.387 127.724 159.469 127.831 159.576C127.874 159.618 127.682 160.858 127.383 162.332C126.827 165.024 126.827 165.024 125.802 163.934C122.169 160.088 117.362 160.9 114.926 165.75C114.264 167.075 114.264 167.075 113.666 166.242C110.269 161.563 104.158 162.802 102.085 168.571C101.722 169.596 101.658 169.511 100.825 166.968C98.6241 160.281 93.3681 162.994 95.1628 169.895C96.8935 176.561 104.542 183.057 110.696 183.057C110.91 183.057 111.08 183.099 111.08 183.185C111.08 183.249 110.845 185.706 110.568 188.676C110.269 191.646 109.734 197.329 109.35 201.325C108.538 209.935 109.179 208.653 105.397 209.038C97.6413 209.807 96.1243 210.32 96.1243 212.221C96.1243 212.499 94.9278 212.542 85.2491 212.542C72.5364 212.542 26.322 212.926 11.9 213.14C0.661519 213.332 1.02474 213.268 0.44786 214.999C-0.513605 217.883 0.576055 218.375 8.09685 218.545C54.8668 219.614 296.365 219.507 297.861 218.417C299.805 217.007 299.656 214.294 297.583 213.076C296.75 212.584 275.94 212.392 215.837 212.349C185.861 212.328 185.861 212.328 184.878 211.58C183.34 210.405 179.964 209.764 175.285 209.764C172.08 209.764 172.187 209.85 172.187 207.328C172.187 206.153 172.037 202.136 171.866 198.44C171.076 182.223 171.183 180.664 173.127 180.108C180.776 177.95 185.84 170.579 184.451 163.614C183.767 160.238 179.216 160.879 178.49 164.468C178.191 166.049 178.212 166.049 177.037 164.746C174.195 161.648 169.986 162.289 167.914 166.156C167.657 166.648 167.657 166.648 167.123 165.729C165.093 162.139 161.205 161.563 158.32 164.447C157.487 165.28 157.487 165.28 157.081 163.165C156.654 161.05 156.654 161.05 168.213 161.05C182.058 161.05 182.229 161.028 182.229 158.529C182.229 156.029 179.131 155.473 163.277 155.131C156.633 155.003 156.633 155.003 156.397 154.106C155.927 152.204 154.026 151.286 150.159 151.072C147.894 150.944 147.894 150.944 147.637 146.115C147.381 141.415 147.103 137.868 146.847 135.774C146.719 134.813 146.74 134.77 147.232 134.77C151.291 134.77 157.786 130.924 161.077 126.565C166.589 119.258 166.867 104.003 161.483 104.003C158.983 104.003 158.449 105.157 158.491 110.349C158.534 114.729 158.555 114.622 157.744 113.233C153.791 106.439 148.321 106.652 146.014 113.703C145.907 114.045 145.8 113.938 145.394 113.062C143.3 108.532 138.942 108.169 135.908 112.271C135.331 113.041 134.839 113.532 134.732 113.425C134.519 113.212 134.604 104.11 134.818 103.896C134.967 103.768 137.531 103.597 148.343 103.041C159.261 102.465 160.521 102.08 160.478 99.4092C160.457 96.653 157.295 96.2684 140.993 96.9735ZM154.154 121.074C154.923 123.467 154.923 123.467 154.432 124.023C153.321 125.219 149.518 127.548 149.197 127.249C148.941 126.971 150.8 117.763 151.462 116.075C151.782 115.241 152.915 117.357 154.154 121.074ZM141.078 121.95C142.125 128.424 142.168 128.253 139.946 126.907C136.955 125.091 136.848 124.215 139.091 119.365C140.224 116.951 140.266 116.993 141.078 121.95ZM145.202 158.529C147.83 158.571 149.966 158.657 149.966 158.721C149.988 161.52 151.12 168.229 151.953 170.536C153.663 175.322 160.372 180.493 164.837 180.493C165.414 180.493 165.414 180.493 165.264 181.924C164.837 186.71 164.623 192.372 164.623 200.384C164.602 210.619 164.944 209.764 160.97 209.764C156.825 209.764 154.624 210.384 154.047 211.73C153.577 212.798 127.19 212.648 126.977 211.58C126.613 209.55 124.434 208.674 119.413 208.546C115.888 208.439 115.888 208.439 116.016 202.307C116.443 183.142 116.443 183.057 116.956 183.057C117.789 183.057 121.08 182.01 122.468 181.326C129.241 177.908 132.083 172.63 133.942 160.088C134.091 159.148 134.22 158.336 134.262 158.272C134.305 158.208 135.715 158.23 137.403 158.315C139.07 158.379 142.595 158.486 145.202 158.529ZM121.678 169.126C124.007 172.716 124.007 172.801 121.293 174.532C118.153 176.561 117.789 176.348 118.772 173.015C120.182 168.314 120.695 167.609 121.678 169.126ZM162.465 170.9C162.85 172.609 162.807 172.737 162.102 172.374C160.884 171.733 160.82 171.562 161.418 170.429C162.081 169.105 162.038 169.105 162.465 170.9ZM110.226 174.083C110.739 176.369 110.76 176.284 109.713 175.985C107.235 175.301 107.106 175.151 107.235 173.292C107.576 168.677 109.136 169.083 110.226 174.083ZM173.469 171.22C174.067 172.609 174.024 172.716 172.721 173.207C171.033 173.848 171.033 173.827 171.973 171.946C172.977 169.938 172.935 169.959 173.469 171.22Z" fill="black"/>
<path d="M134.476 196.924C129.626 199.872 140.117 209.572 148.129 209.551C154.646 209.529 154.154 205.064 147.445 203.333C143.322 202.265 141.271 201.09 138.899 198.44C137.168 196.539 135.844 196.069 134.476 196.924Z" fill="black"/>
<path d="M113.153 103.208C112.362 103.934 111.935 105.067 111.935 106.37C111.935 108.314 111.764 108.528 110.803 107.823C107.683 105.558 105.226 109.084 108.068 111.776C108.965 112.63 108.965 112.652 107.063 113.271C103.602 114.425 102.876 117.459 105.91 118.1C106.358 118.186 106.423 118.356 106.487 119.254C106.615 121.412 108.751 121.86 111.529 120.301C111.593 120.258 111.764 120.6 111.892 121.07C112.704 123.719 115.268 123.783 116.742 121.198C116.956 120.835 117.02 120.835 117.49 121.155C118.857 122.031 121.293 122.031 121.635 121.177C122.041 120.151 121.293 117.203 120.503 116.733C120.161 116.519 120.225 116.177 120.588 116.177C121.699 116.177 123.75 114.468 123.985 113.378C124.242 112.075 122.725 110.622 121.058 110.622C120.46 110.622 120.46 110.622 121.079 109.703C122.126 108.165 122.126 106.584 121.079 105.708C120.545 105.259 118.473 105.11 118.238 105.494C117.981 105.921 117.746 105.686 117.533 104.789C116.956 102.546 114.712 101.734 113.153 103.208Z" fill="black"/>
<path d="M103.026 126.44C102.428 126.696 102.022 127.316 101.488 128.897C100.142 132.978 98.4536 135.413 92.1721 142.464C85.6982 149.729 83.1129 154.109 82.7283 158.489C82.2583 164.087 86.8947 164.898 88.7535 159.514C90.185 155.348 91.5738 153.126 96.2529 147.485C100.718 142.101 100.825 141.951 102.321 139.687C105.675 134.58 107.32 129.153 106.06 127.273C105.44 126.312 104.201 125.97 103.026 126.44Z" fill="black"/>
<path d="M166.909 131.798C165.691 132.418 165.499 134.127 166.418 136.114C167.016 137.353 167.101 137.866 167.401 141.306C167.935 147.694 168.725 149.809 170.776 150.279C174.045 151.07 174.921 145.622 172.806 137.396C171.738 133.123 169.131 130.666 166.909 131.798Z" fill="black"/>
<path d="M178.832 136.332C177.209 137.273 177.593 139.345 179.73 141.054C181.738 142.657 182.507 144.259 184.152 150.263C186.225 157.698 189.579 162.121 193.212 162.121C196.117 162.121 196.545 159.044 194.066 156.032C192.442 154.023 191.438 152.079 189.921 147.806C186.887 139.345 182.123 134.431 178.832 136.332Z" fill="black"/>
<path d="M200.283 137.271C198.681 137.677 197.185 140.69 197.185 143.51C197.185 143.916 196.181 144.386 195.284 144.386C195.113 144.386 194.579 144.621 194.087 144.92C191.267 146.566 192.549 150.775 195.882 150.796C196.566 150.796 196.587 150.817 196.459 151.458C195.583 155.817 201.437 156.607 202.655 152.292C202.997 151.031 202.997 151.031 204.663 152.163C208.68 154.92 212.419 152.484 210.133 148.595C209.684 147.805 209.642 147.591 209.877 147.591C210.453 147.591 211.693 146.309 211.949 145.433C212.74 142.805 210.56 141.139 206.693 141.459C205.155 141.587 205.155 141.587 204.813 140.476C203.98 137.87 202.377 136.759 200.283 137.271Z" fill="black"/>
<path d="M200.753 168.403C196.074 170.069 198.232 174.278 203.915 174.599C212.483 175.09 215.645 179.171 216.628 191.072C217.376 200.088 219.683 205.066 223.08 205.066C225.089 205.066 226.093 202.203 225.089 199.362C224.555 197.866 224.127 195.259 223.679 190.965C222.439 178.936 219.576 173.53 212.675 170.09C209.128 168.317 203.317 167.505 200.753 168.403Z" fill="black"/>
<path d="M73.5404 176C65.7419 178.094 56.7896 186.747 53.8624 195.016C52.9864 197.537 51.6831 205.507 51.6831 208.455C51.6831 209.395 52.6659 211.04 53.2214 211.04C53.4137 211.04 53.6488 211.126 53.7129 211.254C53.9265 211.596 55.2726 211.489 56.1486 211.062C57.8151 210.207 58.9902 207.643 59.503 203.733C60.5499 195.593 61.7678 192.708 65.9555 188.35C69.2459 184.931 72.8781 182.303 76.1257 180.978C81.4458 178.842 79.181 174.462 73.5404 176Z" fill="black"/>
<path d="M86.7878 182.203C85.7195 182.673 83.9248 184.297 83.0488 185.579C81.7027 187.545 80.8481 189.574 79.3525 194.489C77.8141 199.488 76.874 200.856 73.7119 202.586C68.2849 205.578 71.1693 210.513 77.1091 208.419C81.7668 206.753 84.3094 203.227 85.8691 196.198C87.0015 191.049 87.8775 188.955 89.6722 187.053C92.7702 183.763 90.7619 180.387 86.7878 182.203Z" fill="black"/>
<path d="M196.779 182.33C196.074 183.228 195.988 184.232 196.48 185.899C196.928 187.373 196.928 187.373 196.458 187.223C194.963 186.732 192.89 186.839 192.249 187.458C190.732 188.911 191.758 190.834 194.514 191.796C195.347 192.073 196.052 192.33 196.095 192.372C196.138 192.415 195.775 192.885 195.305 193.419C193.51 195.47 194.087 198.013 196.351 198.013C196.907 198.013 197.185 198.098 197.185 198.312C197.185 199.594 199.3 200.128 200.689 199.188C201.458 198.675 201.458 198.675 202.419 199.637C205.325 202.543 207.761 200.662 206.5 196.475C206.222 195.513 206.222 195.513 207.782 195.385C211.5 195.107 212.333 192.971 209.449 191.048C208.145 190.193 208.145 190.193 208.765 189.445C210.902 186.881 208.722 183.506 205.945 185.087C205.176 185.514 205.133 185.493 204.962 184.595C204.663 182.907 202.548 182.138 201.33 183.292C200.86 183.741 200.86 183.741 200.71 183.292C200.261 181.839 197.676 181.198 196.779 182.33Z" fill="black"/>
<path d="M79.3522 277.943C45.124 278.114 5.6185 278.499 3.24689 278.691C0.875278 278.883 -0.128919 280.058 0.426594 282.024C0.960742 283.968 -0.385308 283.883 28.4159 284.225C40.0603 284.374 40.0603 284.374 39.9749 287.237C39.6757 295.933 45.53 302.963 54.931 305.249C57.2385 305.804 57.2385 305.804 57.2812 318.453C57.3026 325.418 57.3239 331.379 57.3239 331.7C57.3453 332.277 57.3239 332.277 55.3156 332.554C49.8245 333.26 48.2221 333.665 47.4529 334.499C46.7478 335.268 46.7478 335.268 41.6841 335.417C31.0439 335.738 29.2278 337.362 29.5269 346.229C29.8047 354.775 32.9882 359.54 39.6116 361.356C40.8936 361.719 40.8936 361.719 40.8936 371.996C40.8936 378.726 40.979 382.892 41.15 384.003C41.4491 386.055 41.7696 385.755 38.7356 386.268C34.8043 386.909 33.8001 387.636 33.9283 389.665C34.0565 391.674 34.847 391.888 42.1755 391.973C53.1362 392.101 56.7898 391.439 57.7513 389.131C58.7982 386.631 56.1702 385.179 50.5937 385.179C47.6238 385.179 47.6238 385.179 47.6238 382.102C47.6238 376.825 46.7478 367.659 45.8291 363.279C45.53 361.89 45.53 361.89 46.4273 361.89C50.9569 361.89 56.7471 358.578 59.2041 354.625C62.0031 350.139 62.4304 341.827 59.9733 339.776C58.6273 338.644 59.076 338.473 63.926 338.323C66.2976 338.238 68.4342 338.131 68.6692 338.067C69.0325 337.96 69.0966 338.045 69.1393 338.644C69.3316 341.293 70.8272 341.549 82.9844 340.951C96.6372 340.246 97.62 340.332 97.62 341.977C97.62 343.686 97.5773 343.729 96.5304 342.981C93.6887 340.866 90.0565 341.891 87.7703 345.417C87.4498 345.929 87.4498 345.929 86.9584 345.16C84.48 341.122 79.8436 341.464 76.5532 345.908C75.6559 347.126 75.6559 347.126 75.5277 346.036C75.0576 342.511 70.8058 342.981 70.058 346.656C68.5838 353.664 74.673 360.586 84.4373 363.065C86.4029 363.556 86.4029 363.556 86.4029 374.752C86.4029 380.884 86.467 386.076 86.5738 386.247C86.702 386.503 86.232 386.674 83.9458 387.144C78.9462 388.191 77.2583 390.328 79.7368 392.486C81.0187 393.618 97.5132 392.571 100.804 391.14C105.739 389.024 103.218 385.606 96.7226 385.606C93.9878 385.606 93.9878 385.606 93.9878 384.474C93.9878 383.298 93.475 377.487 93.1332 374.603C92.8554 372.338 92.0649 363.749 92.129 363.706C92.1503 363.685 92.7486 363.556 93.4537 363.407C98.026 362.424 101.188 359.262 102.833 354.027C103.816 350.908 105.013 342.703 104.842 340.161C104.756 338.708 103.944 338.857 113.324 338.729C117.554 338.665 121.422 338.558 121.892 338.473C122.768 338.345 122.768 338.345 122.447 340.032C120.076 352.211 124.904 362.168 134.711 365.394C135.822 365.757 135.822 365.757 135.715 372.744C135.651 376.825 135.694 381.183 135.844 383.234C136.121 387.337 136.314 386.995 133.6 387.187C127.789 387.593 125.823 388.811 126.87 391.332C127.618 393.148 133.942 393.789 143.877 393.084C155.906 392.208 156.846 386.461 144.967 386.461C142.552 386.461 142.552 386.461 142.403 382.657C142.232 378.491 141.719 369.603 141.506 367.488C141.356 366.163 141.356 366.163 141.954 366.163C143.963 366.163 147.531 364.71 149.774 362.979C157.209 357.232 161.141 339.819 154.816 340.652C153 340.908 152.338 341.763 151.804 344.541C151.612 345.566 151.398 346.677 151.334 347.019C151.206 347.617 151.206 347.617 149.988 346.442C147.21 343.729 144.411 343.515 142.018 345.823C141.57 346.25 141.206 346.485 141.206 346.357C141.206 345.865 139.476 343.942 138.536 343.408C135.694 341.742 132.746 342.148 130.053 344.562C128.964 345.545 128.964 345.545 129.092 344.37C129.177 343.729 129.242 342.682 129.242 342.041C129.242 340.908 129.242 340.908 130.63 341.058C139.048 341.955 154.646 340.631 157.573 338.793C158.983 337.875 176.46 337.661 176.46 338.558C176.46 339.669 177.315 340.417 179.131 340.844C179.879 341.037 180.028 341.122 179.622 341.144C177.122 341.25 175.905 346.934 177.486 351.143C179.644 356.976 186.16 361.868 193.873 363.471C195.155 363.727 195.155 363.727 195.048 366.27C194.878 370.586 195.006 380.863 195.283 383.576C195.689 387.572 195.839 387.123 193.916 387.465C186.032 388.811 183.917 390.136 185.327 392.87C186.096 394.345 186.566 394.366 195.177 393.511C206.137 392.422 207.59 392.165 209.406 391.097C213.466 388.725 210.24 385.926 203.915 386.311C201.736 386.461 201.736 386.461 201.608 382.123C201.458 377.295 201.01 371.825 200.39 367.359C199.899 363.877 199.728 364.24 201.907 364.005C210.368 363.044 213.466 357.531 212.568 344.989C212.419 342.874 212.333 341.122 212.376 341.079C212.462 341.015 225.238 340.567 225.345 340.631C225.367 340.652 225.473 342.255 225.58 344.177C226.2 354.86 230.409 360.522 239.319 362.723C240.836 363.086 240.836 363.086 240.9 373.534C240.942 379.303 241.006 384.431 241.028 384.965C241.092 385.884 241.071 385.926 240.451 385.991C233.806 386.61 230.729 387.892 230.729 390.007C230.729 391.93 232.225 392.507 236.904 392.336C251.775 391.802 255.92 391.182 257.373 389.26C259.039 387.016 256.134 385.307 250.685 385.328C247.801 385.328 247.822 385.371 247.822 381.824C247.822 381.098 247.673 378.747 247.502 376.59C247.331 374.432 247.138 371.761 247.074 370.65C246.989 369.539 246.839 367.616 246.733 366.377C246.455 363.172 246.455 363.172 247.032 363.172C253.506 363.172 259.766 354.967 258.056 348.75C257.351 346.186 254.681 345.246 252.971 346.934C252.373 347.553 252.373 347.553 251.86 347.019C249.745 344.754 246.305 344.199 244.04 345.737C243.271 346.271 243.271 346.271 242.395 345.353C239.917 342.725 236.605 342.789 233.571 345.524C232.503 346.485 232.503 346.485 232.353 345.182C232.097 342.682 231.029 342.981 240.494 343.024C256.582 343.131 258.762 342.767 258.42 340.032C258.121 337.49 257.223 337.298 242.267 336.358C232.396 335.759 231.926 335.717 231.563 335.268C230.58 334.093 227.29 333.559 222.247 333.794C218.978 333.922 218.978 333.922 218.978 332.789C218.957 328.922 218.551 312.449 218.423 310.377C218.273 307.92 218.273 307.92 219.747 307.514C226.371 305.719 231.157 300.036 231.157 293.946C231.157 288.177 226.072 287.131 224.833 292.664C224.469 294.267 224.469 294.267 224.021 293.626C220.88 289.246 217.034 288.498 213.701 291.66C213.081 292.237 212.568 292.622 212.568 292.472C212.568 292.045 210.816 290.293 209.898 289.823C207.932 288.776 205.176 289.438 203.061 291.446C202.334 292.152 202.078 292.301 202.014 292.045C201.886 291.66 201.458 288.498 201.458 288.092C201.458 287.878 202.313 287.772 204.941 287.665C225.345 286.831 228.956 286.511 230.003 285.443C230.729 284.695 230.729 284.695 263.676 284.545C285.469 284.438 296.814 284.31 297.177 284.182C299.741 283.114 299.934 279.717 297.541 278.392C296.387 277.772 165.414 277.495 79.3522 277.943ZM86.5097 284.951C86.5097 285.699 87.6849 286.639 88.9241 286.874C90.8684 287.237 90.9111 287.28 89.8001 287.301C86.7234 287.366 86.2747 291.254 88.7318 296.788C91.4453 302.941 98.9661 308.496 106.594 309.992C107.918 310.248 107.918 310.248 107.79 311.872C107.384 316.68 107.021 322.833 106.893 327.384C106.722 333.089 106.081 333.43 96.0176 333.11C92.2144 332.982 87.1721 333.302 79.9932 334.136C78.0061 334.349 76.2969 334.541 76.2114 334.541C76.1046 334.541 76.0405 334.328 76.0405 334.093C76.0405 332.341 73.327 331.508 68.0069 331.593C64.1183 331.657 64.1183 331.657 64.0969 328.986C64.0756 325.846 63.3919 316.295 62.7936 310.483C62.5586 308.24 62.3663 306.253 62.3663 306.082C62.3663 305.847 62.7509 305.676 63.691 305.484C71.0408 304.052 76.0191 298.732 76.0405 292.322C76.0618 285.87 69.7162 284.609 69.0752 290.934C68.9256 292.28 68.9256 292.28 68.3701 291.553C67.4727 290.378 64.8875 287.729 63.9901 287.088C63.1568 286.468 63.1568 286.468 65.9558 286.468C69.9298 286.468 71.6605 286.084 72.216 285.058C72.6006 284.332 86.5097 284.225 86.5097 284.951ZM144.732 285.485C144.967 286.682 145.779 287.259 147.616 287.515C149.325 287.75 177.058 287.472 178.746 287.195C179.58 287.066 179.622 287.088 179.75 287.665C180.242 290.058 180.477 295.314 180.092 295.549C179.986 295.613 179.879 295.57 179.879 295.463C179.879 294.993 177.08 292.301 175.99 291.703C173.383 290.271 170.542 290.87 168.213 293.369C166.91 294.737 166.91 294.737 166.418 293.797C164.004 289.246 157.85 289.737 154.346 294.801C153.599 295.869 153.577 295.848 152.723 293.092C150.586 286.233 144.86 288.712 146.676 295.72C148.706 303.604 156.825 310.761 165.158 312C166.632 312.214 166.653 312.235 166.397 313.817C166.269 314.586 166.14 318.944 166.098 323.538C166.012 333.046 166.931 331.828 159.325 332.49C156.675 332.725 155.372 332.918 155.009 333.153C154.56 333.452 153.962 333.473 149.625 333.26C146.185 333.11 142.168 333.11 136.1 333.26C127.49 333.473 127.49 333.473 126.656 332.747C125.225 331.443 121.464 331.102 115.097 331.721C112.277 331.978 112.213 310.505 115.033 309.885C125.267 307.578 130.374 300.912 131.955 287.793C132.318 284.759 132.318 284.759 138.472 284.759C144.604 284.759 144.604 284.759 144.732 285.485ZM194.493 286.831C195.113 296.852 196.373 300.399 200.646 304.116C203.573 306.68 208.402 308.475 212.291 308.475C213.231 308.475 213.231 308.475 213.103 309.479C212.718 312.983 212.248 324.585 212.248 330.632C212.269 332.661 212.205 334.328 212.141 334.328C212.077 334.349 210.923 334.477 209.577 334.67C207.847 334.883 204.129 335.012 196.865 335.076C191.224 335.14 185.818 335.225 184.878 335.247C183.126 335.311 183.126 335.311 183.169 334.328C183.254 331.529 181.054 330.632 175.242 331.059C172.828 331.23 172.828 331.23 172.828 328.132C172.828 324.564 172.294 315.975 171.973 314.265C171.631 312.406 171.653 312.321 172.572 312.321C182.806 312.321 188.553 302.065 186.523 287.43C186.16 284.759 186.16 284.759 190.263 284.759C194.365 284.759 194.365 284.759 194.493 286.831ZM58.3922 287.451C57.9863 287.857 57.6017 288.434 57.5376 288.733C57.388 289.331 56.9821 289.395 56.5761 288.904C54.9523 286.938 50.6151 287.28 48.0725 289.588C47.1324 290.421 47.1752 290.485 46.876 288.028C46.7265 286.896 46.7265 286.896 50.4441 286.831C52.4739 286.81 55.2515 286.746 56.6189 286.725C59.0973 286.682 59.0973 286.682 58.3922 287.451ZM96.2312 287.857C105.632 288.776 118.302 288.861 123.815 288.049C124.755 287.921 124.733 289.417 123.772 293.177C123.088 295.848 122.917 296.04 122.212 295.1C117.854 289.096 112.256 288.391 109.264 293.476C108.752 294.331 108.752 294.331 108.047 293.327C105.333 289.481 99.9062 290.186 97.0431 294.715C96.1671 296.104 95.1202 294.801 93.1545 289.844C92.8554 289.118 92.3426 288.327 91.9153 287.942C91.1462 287.28 91.1462 287.28 92.0863 287.408C92.599 287.494 94.4792 287.686 96.2312 287.857ZM53.3072 294.908C53.9268 297.108 53.7345 297.343 52.132 296.297C50.7646 295.421 50.7646 295.421 51.6834 294.48C52.773 293.369 52.8585 293.391 53.3072 294.908ZM63.6696 296.937C64.2892 297.899 64.2892 297.899 63.6483 298.155C62.6013 298.604 60.5716 298.775 60.6998 298.412C60.7639 298.241 61.0416 297.173 61.3194 296.019C61.8108 293.946 61.8108 293.946 62.4304 294.95C62.7722 295.527 63.3278 296.403 63.6696 296.937ZM103.581 299.309C103.966 301.574 104.008 301.531 102.556 300.783C100.996 299.993 100.932 299.907 101.509 299.16C103.09 297.066 103.218 297.066 103.581 299.309ZM161.483 298.604C161.867 300.484 162.038 303.988 161.718 303.988C161.312 303.988 158.705 302.429 158.235 301.916C157.829 301.446 158.598 300.014 160.201 298.155C161.034 297.215 161.184 297.258 161.483 298.604ZM115.866 299.501C117.426 301.638 117.298 301.83 113.879 302.621C111.593 303.155 111.593 303.134 112.683 300.741C114.371 297.023 114.114 297.13 115.866 299.501ZM175.178 301.253C176.738 304.287 176.289 304.822 171.653 305.484C168.576 305.911 168.597 305.933 170.798 301.253C172.892 296.831 172.913 296.831 175.178 301.253ZM218.252 300.612C217.931 300.783 215.496 301.211 215.367 301.104C215.346 301.061 215.731 300.228 216.222 299.266C217.162 297.536 217.162 297.536 217.846 298.989C218.359 300.1 218.444 300.506 218.252 300.612ZM206.543 298.86C206.479 299.245 206.436 299.266 206.095 299.031C205.731 298.775 205.731 298.732 206.095 298.219C206.501 297.643 206.693 297.92 206.543 298.86ZM55.0592 342.276C54.9737 342.896 54.8455 344.049 54.76 344.861C54.6318 346.293 54.6318 346.293 53.649 345.417C50.8074 342.917 47.6879 343.002 45.765 345.63C45.1454 346.464 45.1454 346.464 44.4403 345.716C42.5815 343.75 39.7612 343.622 37.3468 345.353C36.2358 346.165 35.9581 345.78 36.2358 343.772C36.3854 342.66 36.0649 342.725 42.1114 342.34C47.5384 341.998 54.0763 341.4 54.2259 341.25C54.8028 340.695 55.2301 341.229 55.0592 342.276ZM189.28 341.699C192.036 341.87 196.907 342.02 200.112 342.02C203.296 342.02 205.966 342.105 206.031 342.212C206.095 342.319 206.223 344.242 206.287 346.464C206.436 350.545 206.436 350.545 205.048 349.177C202.527 346.741 199.963 346.378 197.121 348.087C195.946 348.793 195.946 348.793 195.476 347.66C193.489 342.81 188.233 341.955 184.366 345.844C183.084 347.105 183.084 347.105 183.084 345.481C183.084 343.494 182.827 342.468 182.122 341.72C181.588 341.144 181.588 341.144 182.934 341.272C183.66 341.336 186.523 341.528 189.28 341.699ZM94.1801 352.104C95.3766 354.561 95.3552 354.689 93.9237 355.779C93.2827 356.271 90.6547 357.125 90.4411 356.912C90.2702 356.762 92.8341 349.925 93.0691 349.925C93.1118 349.925 93.6032 350.908 94.1801 352.104ZM135.651 352.51C135.886 354.006 135.95 358.471 135.737 358.471C134.797 358.471 131.784 355.779 131.934 355.095C132.19 354.027 133.109 352.19 133.985 351.015C135.01 349.647 135.203 349.818 135.651 352.51ZM238.101 352.061C238.165 352.702 238.272 353.707 238.336 354.262C238.443 355.309 238.443 355.309 237.524 354.754C234.917 353.215 234.853 353.066 236.413 351.506C237.78 350.139 237.908 350.181 238.101 352.061ZM189.237 353.685C189.173 355.095 189.173 355.095 187.955 354.284C186.566 353.365 186.566 353.322 188.019 351.891C189.13 350.801 189.344 351.143 189.237 353.685ZM81.6597 353.6C81.7665 355.266 81.7665 355.266 80.9974 354.839C79.5017 354.049 79.5231 354.155 80.4418 352.617C81.3819 350.972 81.4674 351.057 81.6597 353.6ZM247.908 353.621C249.083 355.63 249.083 355.416 247.993 355.886C245.814 356.826 245.023 356.698 245.386 355.437C245.728 354.284 246.775 351.784 246.882 351.891C246.903 351.933 247.374 352.702 247.908 353.621ZM40.5731 353.002C40.5731 353.514 40.6372 354.113 40.7013 354.305C40.8295 354.647 40.8081 354.647 40.1671 354.326C39.398 353.92 39.3766 353.835 39.868 352.809C40.3381 351.805 40.5731 351.869 40.5731 353.002ZM50.4228 353.408C50.5937 353.728 50.4869 353.856 49.7177 354.198C48.6067 354.689 48.5426 354.583 49.1194 353.215C49.6109 352.104 49.7177 352.104 50.4228 353.408ZM147.253 355.651C147.766 356.206 147.317 356.847 145.544 358.065C143.343 359.604 143.343 359.561 144.881 354.882C145.522 352.873 145.522 352.873 146.163 354.027C146.527 354.647 147.018 355.373 147.253 355.651ZM200.283 356.1C200.945 357.702 200.86 357.83 199.215 357.809C197.228 357.766 197.078 357.659 197.741 356.655C199.493 354.049 199.428 354.049 200.283 356.1Z" fill="black"/>
<path d="M87.1933 304.093C85.5695 304.798 85.5268 306.828 87.0865 308.943C90.5264 313.601 89.9495 314.84 83.668 316.485C79.1598 317.681 77.1086 318.963 76.0403 321.25C73.7328 326.164 78.006 329.475 80.869 324.989C81.7664 323.6 82.2151 323.365 85.9755 322.318C90.8896 320.929 93.1544 319.476 94.3295 316.934C96.7225 311.699 91.4665 302.234 87.1933 304.093Z" fill="black"/>
<path d="M136.677 302.048C130.523 305.936 130.566 316.94 136.741 323.243C141.569 328.178 145.971 324.418 141.548 319.162C138.3 315.337 137.766 310.188 140.245 306.748C142.787 303.202 140.202 299.804 136.677 302.048Z" fill="black"/>
<path d="M194.835 309.286C193.809 309.799 193.211 310.782 192.805 312.641C192.442 314.2 192.442 314.2 190.968 314.457C186.823 315.162 185.882 318.922 189.28 321.187C191.395 322.576 191.203 322.277 190.882 323.964C190.113 327.939 193.275 329.434 196.459 326.592C196.907 326.208 196.929 326.208 197.954 327.063C201.33 329.861 204.813 327.362 203.274 323.217C202.377 320.76 202.377 320.717 204.193 319.67C209.919 316.401 207.612 312.064 200.796 313.303C200.005 313.431 200.005 313.431 199.557 312.042C198.617 309.265 196.886 308.239 194.835 309.286Z" fill="black"/>
<path d="M254.809 291.189C254.168 291.573 253.805 292.749 253.805 294.479C253.805 296.103 253.805 296.103 252.202 295.013C248.036 292.214 245.707 295.377 249.232 299.073C250.429 300.333 250.429 300.333 249.019 300.996C246.348 302.278 246.027 306.124 248.591 306.124C249.019 306.124 249.061 306.23 249.04 307.128C248.955 309.734 251.412 311.23 253.506 309.863C254.061 309.499 254.424 309.649 254.446 310.269C254.488 313.538 259.787 312.491 260.129 309.158C260.214 308.431 260.321 307.833 260.364 307.833C260.407 307.833 260.749 307.982 261.133 308.196C264.894 310.14 267.97 306.722 265.171 303.731C264.509 303.026 264.445 303.09 266.304 302.491C272.713 300.398 271.026 294.757 264.402 296.146C263.654 296.317 263.59 296.295 263.74 295.932C265.193 292.407 261.731 290.185 259.296 293.069C258.762 293.71 258.762 293.71 258.526 292.77C258.142 291.21 256.198 290.377 254.809 291.189Z" fill="black"/>
<path d="M30.7873 295.441C30.0181 296.21 29.8258 297.129 30.1036 298.625C30.6377 301.445 30.4027 303.069 29.4626 303.197C27.1551 303.496 25.7663 305.975 26.5782 308.368C27.0269 309.628 27.3047 309.35 22.4119 312.684C14.2715 318.239 11.1307 321.764 9.12229 327.704C6.0456 336.763 9.14366 351.142 13.716 349.048C15.1047 348.429 15.3825 345.908 14.6347 340.993C13.8869 336.058 14.3783 331.186 16.0021 327.725C17.7327 324.05 19.8693 321.999 27.7533 316.465C34.6545 311.637 37.4321 305.035 35.5733 297.834C34.8255 294.929 32.4752 293.753 30.7873 295.441Z" fill="black"/>
<path d="M241.391 300.463C238.4 302.087 235.836 310.933 237.011 315.526C238.442 321.21 242.032 323.624 251.775 325.568C259.06 327.021 261.667 329.115 263.312 334.863C265.513 342.576 271.795 338.922 269.743 331.124C267.885 324.03 262.778 320.248 252.202 318.197C243.1 316.424 241.69 313.903 244.617 304.694C245.728 301.211 244.04 299.011 241.391 300.463Z" fill="black"/>
<path d="M45.5303 307.365C44.8679 308.027 44.6115 308.518 44.3124 309.736C44.0346 310.805 43.8637 311.168 43.7355 310.933C42.0263 307.92 37.6035 310.1 38.7359 313.39C39.1419 314.565 39.0137 314.65 37.2403 314.629C33.1808 314.565 33.0953 319.201 37.1548 319.992C38.3941 320.248 38.3941 320.248 38.2018 321.103C37.7744 322.962 38.4368 324.158 40.0179 324.393C40.9152 324.543 40.9152 324.543 41.1503 325.782C41.9622 330.119 46.9831 328.667 46.9831 324.116C46.9831 323.923 47.325 324.116 47.8591 324.607C51.47 327.855 55.0167 325.248 52.4101 321.231C52.0255 320.654 51.9614 320.398 52.1537 320.355C52.3032 320.291 52.7947 320.142 53.222 320.013C55.85 319.201 56.0209 315.762 53.4997 314.843C52.6237 314.544 52.6024 314.458 53.2006 313.903C56.5551 310.89 54.2689 306.852 50.594 309.33C49.6539 309.95 49.6539 309.95 49.4402 308.775C49.0343 306.489 47.09 305.805 45.5303 307.365Z" fill="black"/>
<path d="M169.666 358.003C168.982 358.538 168.704 359.713 169.025 360.717C169.324 361.572 169.751 361.871 171.653 362.576C174.879 363.729 174.9 364.755 171.866 370.225C168.79 375.801 168.833 379.754 172.037 382.788C175.221 385.779 179.58 385.929 180.156 383.066C180.456 381.591 179.964 380.801 177.422 378.622C176.225 377.575 176.375 376.399 178.212 372.447C181.054 366.4 181.097 363.195 178.362 360.375C176.225 358.174 171.226 356.807 169.666 358.003Z" fill="black"/>
<path d="M67.7288 362.916C66.0195 364.604 65.5281 369.39 66.7032 372.574C69.203 379.368 80.1851 385.03 80.5697 379.71C80.6979 377.83 80.0355 376.933 76.9161 374.732C72.9421 371.912 71.8951 370.224 71.8524 366.591C71.8097 363.408 71.831 363.451 71.2328 362.852C70.3995 362.04 68.5621 362.083 67.7288 362.916Z" fill="black"/>
<path d="M117.17 364.478C116.251 364.948 115.952 365.695 115.759 367.939C115.674 369.135 115.183 372.041 114.691 374.391C113.025 382.339 113.708 385.438 117.084 385.438C119.819 385.438 120.524 383.557 121.443 373.729C122.127 366.507 120.439 362.854 117.17 364.478Z" fill="black"/>
</svg>
