<svg width="502" height="219" viewBox="0 0 502 219" fill="none" xmlns="http://www.w3.org/2000/svg">
<path d="M450.809 1.13843C445.318 3.12545 443.054 14.1716 446.536 21.8633C448.203 25.5169 453.929 31.5421 455.745 31.5421C456.108 31.5421 455.937 31.9267 455.125 32.9095C454.207 34.0205 452.497 36.8195 450.062 41.2636C447.54 45.8359 446.451 47.2033 441.259 52.4379C433.353 60.3647 430.683 64.8301 430.64 70.2143C430.597 75.0003 434.935 75.684 436.601 71.1544C438.609 65.6634 439.742 64.0182 446.002 57.5016C451.792 51.4765 452.86 49.9808 456.706 42.3746C458.757 38.3364 459.228 37.5245 459.527 37.6527C460.168 37.9305 462.454 37.9946 463.287 37.7809C466.77 36.8195 468.158 48.5921 466.278 63.1636C464.889 73.8893 465.552 79.423 468.607 82.4784C472.688 86.5379 477.239 83.1834 473.671 78.718C471.983 76.6027 471.598 71.9877 472.453 64.1251C473.991 50.1518 472.773 40.1953 468.97 35.3879C468.308 34.5547 468.308 34.5547 469.12 34.4265C488.819 31.3712 503.839 16.7569 498.413 5.90302C493.605 -3.733 476.748 2.63404 466.022 18.167C464.719 20.0259 464.697 20.0472 464.697 19.3208C464.697 8.93698 457.027 -1.12636 450.809 1.13843ZM453.929 7.97551C456.023 10.2403 458.052 16.1586 458.693 21.8206C459.163 26.0511 459.185 26.457 458.886 26.2861C453.224 22.953 450.638 18.7866 450.873 13.2956C451.044 8.65922 452.412 6.30897 453.929 7.97551ZM492.152 7.91141C495.037 9.12927 493.605 14.1289 489.054 18.7439C484.332 23.5299 477.709 26.6066 469.077 28.0381C466.406 28.4654 466.428 28.4868 467.261 27.0766C474.184 15.3254 486.747 5.66799 492.152 7.91141Z" fill="black"/>
<path d="M50.2636 3.23341C43.7256 4.66492 37.38 13.8736 37.38 21.9499C37.38 22.9114 37.0595 22.8473 36.1407 21.6508C27.4448 10.1987 15.779 9.77137 13.5356 20.8603C11.2922 32.0773 20.971 43.6577 33.94 45.2387C35.1365 45.3883 36.0766 45.5592 36.0553 45.6233C31.7607 54.1483 31.0343 58.336 32.1239 68.1216C32.8718 74.8305 32.4872 77.4158 29.4959 86.2612C25.9278 96.7732 25.9065 100.555 29.3677 100.555C31.5043 100.555 32.0812 99.679 34.3887 92.7565C38.9824 79.125 39.4311 76.1124 38.3414 66.4764C37.2945 57.2891 39.7516 47.3112 43.1487 46.8839C44.6016 46.713 44.5589 46.6489 45.0717 48.9778C46.2682 54.5115 46.0545 61.9896 44.3239 74.5955C42.5505 87.5432 42.465 93.547 44.0034 99.6363C46.2895 108.717 54.2163 116.494 55.776 111.174C56.1606 109.892 55.8187 109.016 53.8958 106.367C48.4048 98.7603 47.8706 93.9316 50.4131 75.4501C52.8061 58.1437 52.2292 48.1018 48.5116 42.8885C47.8706 41.9911 47.8279 42.0339 50.7977 39.0854C65.7111 24.2574 65.3479 -0.0355751 50.2636 3.23341ZM53.618 9.64317C58.5108 12.1643 54.6863 26.394 46.8878 34.7054C44.5162 37.2052 44.4307 37.1197 43.5761 31.2227C41.8454 19.6638 47.892 6.69468 53.618 9.64317ZM24.1331 19.7706C28.2567 21.3517 33.3204 27.5051 37.7218 36.3505C39.3883 39.6836 39.3883 39.6622 35.5639 39.2777C26.4193 38.3162 19.8386 32.0133 19.7745 24.172C19.7531 19.8988 21.035 18.5955 24.1331 19.7706Z" fill="black"/>
<path d="M432.328 19.5775C431.858 19.6629 430.448 20.1971 429.23 20.7526C414.039 27.5256 382.695 37.4607 364.277 41.3493C322.315 50.1948 253.623 49.3188 182.24 38.9991C130.577 31.5424 85.4098 23.8293 74.1286 20.5389C69.7486 19.257 67.5907 20.2185 68.6162 22.996C69.535 25.4531 79.5128 28.3161 102.118 32.5893C117.843 35.5592 153.887 41.4989 180.103 45.4088C253.965 56.455 325.028 57.3524 368.23 47.7805C389.916 42.9945 427.371 30.0681 434.187 25.0258C437.862 22.3123 436.644 18.7015 432.328 19.5775Z" fill="black"/>
<path d="M69.7069 35.0676C67.8694 35.8582 68.3395 38.2298 70.4974 39.1058C72.8263 40.0459 92.3761 44.5754 99.9824 45.9642C107.076 47.2462 110.024 46.7975 109.747 44.4472C109.512 42.3748 109.106 42.2466 91.9915 38.8067C83.8725 37.1828 76.0312 35.6018 74.5783 35.3026C71.6085 34.683 70.6897 34.6403 69.7069 35.0676Z" fill="black"/>
<path d="M432.478 35.0449C424.808 36.4977 409.275 43.8476 408.207 46.5183C406.946 49.6378 409.638 50.3428 413.762 47.9712C422.949 42.6725 435.747 38.3993 436.452 40.3863C437.649 43.6767 441.537 41.6469 440.768 38.1216C440.149 35.2158 437.264 34.1475 432.478 35.0449Z" fill="black"/>
<path d="M62.5922 53.3554C56.1824 56.2612 58.49 67.4569 67.4636 76.8793C70.5403 80.1055 72.7624 81.1952 73.9161 80.0414C74.9631 78.9945 73.9802 76.9434 70.113 72.1574C66.0962 67.1792 63.8742 62.6496 63.8742 59.3806C63.8742 57.9277 63.9383 57.7995 65.5407 56.603C67.9123 54.8083 65.4339 52.0735 62.5922 53.3554Z" fill="black"/>
<path d="M165.874 53.8492C165.105 54.191 164.613 55.2166 164.827 56.0498C165.81 59.9598 187.753 66.8824 190.509 64.1262C192.368 62.2673 190.338 60.964 182.347 58.8915C176.963 57.5027 173.502 56.349 170.275 54.8106C167.455 53.4859 166.964 53.3791 165.874 53.8492Z" fill="black"/>
<path d="M352.848 56.2634C350.028 56.4557 346.225 57.1394 339.281 58.6778C319.774 63.0151 313.45 63.8911 301.891 63.9124C293.729 63.9124 292.874 63.8483 278.709 62.31C254.48 59.6606 246.382 59.8743 246.467 63.186C246.532 65.173 247.322 65.4294 254.031 65.6003C260.206 65.7713 266.615 66.3054 277.32 67.5446C291.635 69.1898 292.383 69.2325 301.677 69.2539C311.847 69.2539 316.74 68.8052 326.355 66.9891C344.494 63.5919 356.181 60.0025 356.331 57.8018C356.438 56.1566 356.181 56.0284 352.848 56.2634Z" fill="black"/>
<path d="M450.361 66.7716C448.267 68.139 447.691 68.8441 439.486 80.3603C412.736 117.879 397.801 131.233 363.53 148.197C332.977 163.324 308.898 170.012 275.823 172.597C271.037 172.981 248.176 172.981 243.347 172.597C190.061 168.495 139.424 151.594 106.392 126.938C90.8375 115.336 69.2366 94.4405 60.9894 83.0738C59.451 80.9372 56.6094 81.4927 56.6094 83.9071C56.6094 90.1032 82.4835 117.516 102.781 132.814C135.45 157.448 186.685 175.738 235.015 180.011C285.545 184.476 328.768 175.246 374.534 150.184C406.134 132.856 423.141 116.725 446.302 81.9841C452.519 72.6686 453.545 70.7884 453.759 68.3741C453.929 66.2375 452.348 65.4897 450.361 66.7716Z" fill="black"/>
<path d="M476.684 66.9029C475.722 67.7148 475.637 68.8472 476.32 70.9197C478.265 76.7098 484.119 90.6831 488.563 100.127C499.054 122.433 498.947 128.009 487.837 137.346C482.089 142.175 484.311 146.961 490.443 142.923C502.771 134.804 505.1 122.988 497.644 106.216C497.195 105.148 495.336 101.217 493.541 97.4561C489.546 89.0593 487.986 85.5553 484.268 76.4321C479.974 65.9414 479.119 64.8731 476.684 66.9029Z" fill="black"/>
<path d="M18.6421 82.778C18.108 83.2694 17.9157 83.7609 17.4243 85.9188C17.0824 87.329 15.8432 92.7132 14.6254 97.8837C8.08739 125.702 4.56202 145.124 1.29304 171.169C-0.651257 186.659 0.652063 193.047 6.33539 195.932C12.9374 199.265 29.0687 196.808 30.3079 192.278C31.0557 189.565 28.2568 188.731 22.894 190.056C6.35676 194.18 4.36973 191.295 7.59598 167.857C10.0958 149.568 13.2152 131.556 17.0824 113.053C22.2957 88.0981 22.8299 84.9573 22.2102 83.4831C21.6334 82.0729 19.7745 81.7097 18.6421 82.778Z" fill="black"/>
<path d="M469.206 91.6441C467.39 92.5414 467.305 94.7421 468.736 102.498C470.702 113.288 471.193 117.518 472.069 131.107C473.223 149.289 474.163 153.306 480.082 165.506C486.171 178.048 485.487 181.381 476.77 181.68C473.885 181.787 472.796 181.68 465.766 180.548C455.618 178.945 452.199 180.035 444.7 187.32C439.337 192.512 437.927 192.662 435.79 188.303C431.111 178.71 433.354 162.237 443.866 129.291C452.861 101.109 453.887 94.8917 449.721 94.0584C447.776 93.6738 446.772 94.6566 446.644 97.1137C446.452 100.682 444.935 105.959 439.465 122.454C433.76 139.546 431.517 147.089 429.786 154.93C422.372 188.453 432.436 207.704 449.037 191.743C454.656 186.338 456.686 185.654 463.779 186.872C465.168 187.128 467.689 187.556 469.399 187.855C480.979 189.842 488.051 187.085 490.252 179.714C491.47 175.655 490.487 171.83 485.872 162.686C480.423 151.896 479.569 147.922 478.906 130.039C477.945 104.271 474.12 89.1442 469.206 91.6441Z" fill="black"/>
<path d="M413.206 92.5821C412.907 92.753 412.159 93.5222 411.54 94.27C409.104 97.1972 401.968 102.774 391.199 110.166C380.068 117.837 378.016 119.802 379.576 121.362C381.82 123.627 408.591 105.744 415.044 97.6886C417.778 94.2487 416.432 90.4883 413.206 92.5821Z" fill="black"/>
<path d="M481.576 102.687C480.764 103.841 480.935 104.738 482.837 109.246C486.683 118.348 486.875 120.164 484.525 125.121C481.191 132.087 485.956 133.796 489.46 126.895C492.494 120.934 491.981 117.024 486.747 106.042C484.781 101.961 482.944 100.764 481.576 102.687Z" fill="black"/>
<path d="M31.5686 108.394C30.6926 109.356 30.6285 109.612 29.603 115.53C29.0688 118.628 27.9578 124.782 27.1245 129.183C21.9326 156.766 21.3771 166.467 24.4965 174.906C26.8468 181.252 29.9235 184.713 40.7987 193.174C48.0417 198.815 52.1226 202.554 58.9597 209.818C64.7071 215.95 66.6301 217.51 69.0658 218.065C74.92 219.368 76.843 209.327 74.5568 189.328C73.4458 179.585 72.9757 174.393 71.9929 160.911C70.3264 138.007 69.2153 132.174 66.4805 132.174C65.1345 132.174 64.4935 134.29 64.4721 138.798C64.4721 143.52 66.7155 173.154 68.0402 185.803C69.2153 197.041 69.3008 198.045 69.3008 203.75C69.3008 210.138 69.194 211.356 68.553 210.95C68.318 210.822 65.8823 208.28 63.1047 205.331C55.9471 197.703 52.3577 194.435 43.3626 187.405C27.445 174.992 26.6118 171.103 32.3592 135.807C36.5896 109.868 36.6537 107.817 33.1497 107.817C32.2951 107.817 32.0173 107.924 31.5686 108.394Z" fill="black"/>
<path d="M425.342 121.687C422.97 123.546 419.039 138.78 420.278 141.215C421.368 143.352 424.316 142.604 424.637 140.126C425.064 137.006 425.534 134.998 427.393 128.246C428.931 122.713 427.97 119.636 425.342 121.687Z" fill="black"/>
<path d="M52.4861 125.147C51.1401 126.194 51.4178 129.783 53.6185 139.654C55.1569 146.619 55.4773 148.799 55.7551 154.717C55.9901 160.144 56.4815 161.447 58.2122 161.447C61.7162 161.447 61.8657 151.469 58.5327 138.158C57.6994 134.783 56.8448 130.638 56.3747 127.625C55.9688 124.976 54.1527 123.822 52.4861 125.147Z" fill="black"/>
<path d="M414.317 126.896C413.27 127.986 411.347 133.904 409.617 141.382C404.617 162.962 407.266 172.79 419.082 176.465C426.303 178.709 429.124 173.624 422.18 170.846C415.685 168.282 414.403 166.722 413.847 160.761C413.356 155.719 414.702 146.083 417.693 133.114C418.633 129.054 418.697 128.435 418.249 127.366C417.65 125.935 415.492 125.679 414.317 126.896Z" fill="black"/>
<path d="M76.073 126.855C75.3466 127.645 75.1757 128.885 75.4107 131.983C75.5175 133.564 75.7739 137.089 75.9448 139.845C76.5431 148.669 77.3977 151.233 79.5557 150.678C81.6495 150.144 80.9231 129.355 78.7224 126.983C78.0173 126.235 76.714 126.171 76.073 126.855Z" fill="black"/>
<path d="M134.488 127.726C130.92 129.756 135.492 133.303 148.055 138.217C162.477 143.879 181.408 147.49 183.202 144.926C184.698 142.789 182.412 141.635 172.968 139.755C160.832 137.341 152.371 134.606 140.855 129.414C136.454 127.427 135.471 127.171 134.488 127.726Z" fill="black"/>
<path d="M88.466 129.891C86.3294 130.959 86.7567 143.308 89.6198 163.585C91.1581 174.545 91.0299 174.866 84.0005 176.81C76.1165 178.968 77.1848 184.502 85.2398 183.241C95.6877 181.575 97.7815 177.024 95.5168 160.914C94.5553 154.098 93.4229 144.441 92.7178 137.198C92.0341 130.083 91.1154 128.523 88.466 129.891Z" fill="black"/>
<path d="M466.128 131.491C462.689 133.606 462.347 148.285 465.423 162.408C466.278 166.36 466.342 166.061 464.761 165.762C458.629 164.63 453.373 165.954 453.373 168.625C453.373 170.249 454.591 170.655 459.163 170.569C461.62 170.548 463.052 170.633 464.804 170.933C471.171 172.022 472.068 170.334 470.188 160.805C468.073 150.122 467.816 143.563 469.227 136.234C469.996 132.111 468.607 129.953 466.128 131.491Z" fill="black"/>
<path d="M442.99 146.809C439.037 150.762 438.824 169.158 442.734 169.137C444.571 169.115 444.849 168.026 444.934 160.825C444.977 155.206 445.148 153.924 446.216 150.506C447.285 147.108 445.148 144.651 442.99 146.809Z" fill="black"/>
<path d="M38.8973 147.045C37.4444 148.263 36.0343 154.352 36.0129 159.416C35.9702 166.723 37.8931 170.505 45.4353 177.918C50.0717 182.491 52.251 183.73 53.4902 182.469C54.6867 181.294 53.6611 179.478 49.1529 174.82C40.1151 165.484 39.1323 162.001 42.2945 150.378C43.1491 147.173 41.1193 145.165 38.8973 147.045Z" fill="black"/>
<path d="M309.902 150.458C308.128 150.65 305.479 151.27 300.821 152.616C289.391 155.885 281.891 156.975 272.618 156.654C267.79 156.505 266.273 156.376 255.846 155.244C232.728 152.723 221.832 153.407 222.75 157.338C223.178 159.111 223.284 159.133 233.69 159.175C242.792 159.218 242.407 159.197 255.846 160.799C277.319 163.363 287.489 162.679 302.915 157.616C310.009 155.287 313 153.599 313 151.932C313 150.501 312.38 150.223 309.902 150.458Z" fill="black"/>
<path d="M13.5578 152.13C12.8741 152.814 12.6604 153.69 12.2758 157.493C12.1049 159.245 11.699 162.514 11.4212 164.736C10.4811 171.872 10.7375 173.838 12.5963 173.838C14.5833 173.838 15.4807 170.27 16.7627 157.408C17.2541 152.322 15.8012 149.887 13.5578 152.13Z" fill="black"/>
<path d="M132.986 53.8222C123.243 55.1896 117.838 62.6463 121.278 69.9535C124.354 76.4701 132.58 79.3758 138.883 76.1709C145.656 72.7097 144.054 66.5777 137.217 69.8253C129.931 73.3079 122.474 65.6803 129.461 61.8985C139.311 56.5571 154.096 66.2999 159.01 81.3415C169.137 112.514 136.02 128.475 120.274 100.015C115.829 92.0031 114.932 89.1187 116.428 87.7513C123.671 81.1706 125.53 77.9657 123.265 76C121.897 74.8035 120.509 75.3163 117.411 78.1366C111.471 83.6063 111.77 83.4781 109.804 81.5124C103.031 74.7822 92.4124 77.4529 89.3358 86.7043C86.3232 95.7207 95.8096 99.9939 106.706 94.5456C109.441 93.1996 109.441 93.1996 111.877 98.1351C120.017 114.544 129.76 121.894 142.879 121.488C164.052 120.868 174.821 96.5326 163.924 73.9275C157.557 60.7448 144.438 52.2198 132.986 53.8222ZM103.095 84.7387C106.044 86.2556 106.215 87.0035 103.8 88.1145C98.8863 90.422 95.4464 90.5716 96.0233 88.4991C96.8566 85.4865 100.66 83.4567 103.095 84.7387Z" fill="black"/>
<path d="M372.476 69.5336C361.708 72.5248 356.559 92.0959 364.421 100.108C366.13 101.839 365.874 102.501 361.793 107.052C359.614 109.509 359.251 111.047 360.597 112.137C362.669 113.74 365.96 111.624 370.297 105.898C371.878 103.826 371.878 103.826 373.181 103.826C379.014 103.804 383.031 101.369 392.966 91.9036C398.179 86.9254 400.765 84.7888 403.863 82.8659C409.354 79.5114 409.674 75.8579 404.461 76.0929C400.38 76.2638 396 79.2764 386.984 88.1219C382.198 92.801 380.168 94.553 378.01 95.7709C376.002 96.8819 375.98 96.8605 377.198 94.1684C383.779 79.4473 381.407 67.0765 372.476 69.5336ZM374.271 76.1997C375.339 78.9132 373.801 86.199 370.703 93.0788C369.207 96.3478 369.164 96.3691 367.968 93.912C365.596 88.9765 368.182 79.896 372.968 76.4347C373.95 75.7297 374.079 75.7083 374.271 76.1997Z" fill="black"/>
<path d="M211.035 77.9053C210.8 77.9481 210.394 78.0335 210.138 78.0976C205.566 79.0591 207.211 86.1953 211.997 86.1953C217.039 86.1953 218.471 78.8454 213.557 78.0763C212.125 77.8626 211.463 77.7985 211.035 77.9053Z" fill="black"/>
<path d="M296.819 91.4511C290.709 92.4767 285.324 99.4419 280.987 111.941C279.534 116.129 279.662 116.364 279.299 108.309C279.171 105.424 279 102.754 278.936 102.369C278.53 99.9547 275.133 99.5701 274.129 101.814C273.295 103.736 273.167 114.612 273.872 124.654C274.641 135.7 275.005 137.025 277.462 137.473C279.641 137.901 280.731 136.683 281.521 132.965C286.499 109.548 294.896 94.3996 300.686 98.395C302.738 99.8052 304.468 102.86 307.374 110.253C314.104 127.431 320.215 130.722 333.569 124.333C337.884 122.261 338.568 122.026 340.705 121.748C344.294 121.299 345.833 119.291 344.273 117.09C342.371 114.441 337.884 114.783 330.812 118.137C320.984 122.773 319.168 121.492 312.117 104.783C308.442 96.0661 304.96 92.2203 300.024 91.4511C298.464 91.1947 298.443 91.1947 296.819 91.4511Z" fill="black"/>
<path d="M202.382 100.247C200.203 101.016 197.767 102.619 184.969 111.828C172.662 120.652 171.594 121.805 173.517 123.942C175.183 125.801 177.598 124.626 192.511 114.584C196.058 112.191 199.006 110.225 199.049 110.225C199.092 110.225 198.857 111.251 198.515 112.511C196.079 121.613 197.468 128.023 202.425 130.501C206.655 132.617 209.775 131.997 223.919 126.164C235.286 121.485 240.67 120.929 248.96 123.579C256.694 126.057 259.322 121.357 252.101 117.938C242.571 113.409 234.965 114.05 218.086 120.801C205.758 125.715 204.433 125.545 204.796 119.007C204.946 116.25 205.331 114.349 206.591 110.012C208.13 104.82 208.258 104.115 207.959 102.982C207.254 100.376 205.053 99.3072 202.382 100.247Z" fill="black"/>
</svg>
