<svg width="226" height="120" viewBox="0 0 226 120" fill="none" xmlns="http://www.w3.org/2000/svg">
<path d="M151.257 1.07339C139.976 3.06042 131.814 5.28247 131.152 6.5217C129.635 9.47019 132.135 10.6239 138.224 9.72658C141.258 9.2779 140.852 8.97877 140.66 11.5213C140.574 12.6964 140.446 14.8544 140.382 16.3286C140.318 17.8029 140.104 21.841 139.912 25.3023C139.186 38.656 139.72 41.9677 142.583 42.0532C145.873 42.1386 146.471 38.656 146.536 19.1703C146.557 8.42326 146.557 8.42326 147.305 8.29507C157.389 6.60716 159.526 5.68843 159.569 3.08179C159.611 0.539247 157.347 0.0051001 151.257 1.07339Z" fill="black"/>
<path d="M194.61 1.15433C193.798 1.47482 193.306 2.37219 192.217 5.47024C190.037 11.7518 189.802 14.4866 191.362 15.79C193.798 17.8411 196.063 14.6789 197.302 7.45727C198.092 2.97043 197.708 1.15433 196.041 1.15433C195.806 1.15433 195.507 1.1116 195.336 1.06887C195.187 1.00477 194.845 1.0475 194.61 1.15433Z" fill="black"/>
<path d="M83.2073 2.03328C72.5884 3.20841 66.6701 5.43046 65.5377 8.69944C64.5121 11.6693 65.6873 37.8852 67.0974 43.3122C68.6571 49.3374 72.8662 50.9612 82.0322 49.0596C88.912 47.6281 90.4503 46.5598 89.5743 43.825C88.9547 41.8807 86.9463 41.6029 80.9639 42.6071C76.883 43.2908 74.3404 43.3976 74.084 42.9062C73.5926 41.9875 72.5243 34.1676 72.5243 31.6464C72.5243 31.1977 72.738 31.0909 75.1523 30.4499C84.4679 27.9287 86.1344 26.8604 85.3225 23.9547C84.6815 21.6472 81.6903 21.7754 74.3191 24.4247C71.5842 25.4076 71.7765 26.0058 71.5201 16.4125C71.3919 11.242 71.3919 11.242 72.6525 10.8788C73.9131 10.5155 80.9639 8.849 86.9249 7.52432C90.3435 6.77651 91.134 6.32783 91.3904 5.02451C91.9246 2.3965 89.1043 1.37094 83.2073 2.03328Z" fill="black"/>
<path d="M109.787 4.35909C103.954 5.19236 101.048 8.35451 102.223 12.6491C102.608 14.166 104.039 15.918 107.864 19.6784C114.039 25.7891 116.539 29.7204 116.539 33.374C116.539 37.7326 110.513 38.3949 106.539 34.485C102.01 30.0195 97.7152 33.2671 101.497 38.3095C106.561 45.0397 118.355 44.9115 121.624 38.0958C124.658 31.7929 121.666 24.5712 112.159 15.1916C107.779 10.8757 107.821 11.0253 110.62 10.5338C113.74 10.0211 118.013 10.5125 121.495 11.8158C124.636 12.9695 126.858 9.93559 124.572 7.58534C122.243 5.21373 114.979 3.61129 109.787 4.35909Z" fill="black"/>
<path d="M211.296 9.5946C209.074 10.2569 202.814 15.1925 201.874 16.9872C200.421 19.8075 203.37 22.4355 206.19 20.8331C213.86 16.4103 217.877 7.58621 211.296 9.5946Z" fill="black"/>
<path d="M157.005 27.1985C154.185 27.5403 152.668 28.9932 153.287 30.7666C153.843 32.3476 155.467 32.7536 161.193 32.775C163.607 32.775 168.756 32.8604 172.624 32.9886C176.512 33.0954 182.537 33.245 186.041 33.3305C192.387 33.4587 192.387 33.4587 192.387 41.2999C192.387 62.2171 191.319 79.8013 189.887 82.7498C188.99 84.5445 186.875 84.865 171.983 85.335C146.963 86.1469 131.986 87.0657 95.4927 90.0355C48.5304 93.86 35.6895 93.9669 33.617 90.591C33.0188 89.6296 32.6342 88.1981 32.036 84.8009C25.6048 48.3934 24.622 39.3557 27.015 38.8215C29.9207 38.1805 45.8811 36.4072 52.5472 35.9798C58.6151 35.6166 59.2561 35.403 59.5766 33.8219C60.1748 30.7879 58.2733 30.1042 49.1287 30.1256C36.4801 30.1683 24.0879 32.0058 21.6308 34.2278C18.8105 36.7704 19.2164 44.1843 23.5964 70.5926C24.1733 74.0538 25.0493 79.3953 25.5194 82.4506C28.1046 98.6033 30.2199 99.6929 57.2477 98.5819C67.1615 98.1759 96.0054 96.3171 102.052 95.6975C103.74 95.5266 117.649 94.5651 124.978 94.095C140.211 93.155 151.984 92.5994 168.35 92.0653C188.968 91.4029 191.319 90.997 194.289 87.7921C197.814 83.9676 198.946 73.1351 198.754 44.9535C198.626 26.5789 199.374 27.6471 186.084 27.4121C169.44 27.113 158.479 27.0275 157.005 27.1985Z" fill="black"/>
<path d="M215.398 28.3099C211.702 28.8654 210.762 29.4423 210.762 31.2584C210.762 33.3736 212.77 33.9077 219.009 33.4163C223.303 33.0745 224.329 32.7326 224.885 31.3652C226.209 28.1817 223.068 27.1775 215.398 28.3099Z" fill="black"/>
<path d="M1.80331 85.6993C-0.482839 87.2804 0.35043 89.7161 3.34165 90.2075C10.8838 91.5108 13.8109 91.2972 14.9006 89.4597C16.4176 86.8531 4.88 83.5627 1.80331 85.6993Z" fill="black"/>
<path d="M19.3027 100.039C17.5934 101.15 13.0211 107.304 12.7434 108.842C12.2519 111.427 14.6877 112.923 16.8456 111.385C18.7472 110.038 23.1699 103.607 23.1699 102.24C23.1485 100.232 20.9265 98.9496 19.3027 100.039Z" fill="black"/>
<path d="M33.7026 107.558C31.3524 108.541 30.3268 117.365 32.3993 118.711C35.1128 120.463 36.587 118.07 37.1639 110.977C37.3776 108.37 35.6897 106.704 33.7026 107.558Z" fill="black"/>
</svg>
