<svg width="380" height="253" viewBox="0 0 380 253" fill="none" xmlns="http://www.w3.org/2000/svg">
<path d="M243.216 1.1186C240.46 2.59285 239.327 4.9431 238.28 11.3101C237.96 13.2972 237.618 14.8996 237.511 14.8996C237.404 14.8996 236.592 14.5364 235.674 14.0663C222.32 7.35744 213.197 15.9465 218.025 30.7104C220.76 39.0644 228.772 48.1663 233.046 47.7603C236.208 47.4612 235.332 44.6836 230.225 38.9149C221.722 29.3429 220.44 16.8012 228.089 18.0618C229.328 18.2754 230.247 18.6173 234.947 20.6043C240.609 23.0186 242.767 21.0957 244.498 11.9725C245.502 6.6951 245.758 6.60964 248.557 10.8614C251.719 15.6474 257.98 31.4368 259.048 37.3124C259.967 42.2052 265.735 40.7951 265.094 35.8168C262.659 16.3952 250.566 -2.79136 243.216 1.1186Z" fill="black"/>
<path d="M301.63 7.3196C299.536 8.40926 298.297 10.3536 293.298 20.4383C289.324 28.4505 289.324 28.4505 288.725 26.848C285.2 17.3616 281.568 13.6225 277.423 15.2036C272.551 17.0624 269.646 29.7965 268.428 54.7519C267.402 75.3913 267.829 80.3482 270.671 80.5191C271.611 80.5619 271.718 80.5191 272.252 79.579C273.662 77.1647 274.047 74.1735 274.41 62.8709C274.474 60.8625 274.56 58.4695 274.624 57.5294C274.688 56.5893 274.773 54.9014 274.837 53.7904C275.799 35.7576 277.295 24.1346 278.982 21.5706C279.367 20.9724 280.841 23.75 282.85 28.835C285.349 35.0953 286.311 36.2704 288.939 36.2704C291.439 36.2704 292.4 34.9884 297.656 24.7328C301.78 16.6565 301.716 16.742 301.545 18.8572C301.353 21.4211 300.669 25.9079 299.515 32.2109C297.485 43.1929 297.464 44.9022 299.259 46.8251C302.186 49.9232 305.049 48.3635 316.629 37.3173C321.928 32.2536 325.175 29.2196 326.586 28.0659C327.269 27.489 327.269 27.489 326.628 29.9033C324.086 39.518 319.62 50.3291 308.596 73.5539C302.25 86.9075 302.335 86.6298 303.959 88.2536C306.929 91.2234 308.873 88.745 317.697 70.7763C332.162 41.3127 337.397 24.6901 333.53 20.4169C330.132 16.6565 327.077 18.323 313.617 31.3562C307.42 37.3387 305.049 39.5394 304.921 39.3898C304.878 39.3471 305.262 37.1036 305.797 34.4115C308.873 18.9213 309.108 10.9518 306.566 8.1956C305.198 6.72135 303.382 6.40086 301.63 7.3196Z" fill="black"/>
<path d="M170.444 40.7517C164.012 41.8841 165.978 47.4606 175.7 55.5583C177.11 56.7121 178.392 57.8017 178.541 57.9513C178.712 58.1008 176.426 57.6094 173.478 56.8616C164.44 54.5755 162.196 54.5968 160.957 56.9898C159.568 59.6819 161.919 62.5236 169.183 66.8822C170.572 67.7155 170.572 67.7155 168.969 67.5873C158.906 66.7968 156.064 67.4164 155.594 70.5572C155.082 74.0612 155.958 74.7021 175.059 84.6159C181.404 87.9063 191.126 93.0127 196.638 95.9826C212.876 104.7 213.325 104.914 214.5 104.315C219.35 101.794 212.171 96.7304 177.195 78.0566C173.093 75.8559 169.696 74.0398 169.653 73.9971C169.632 73.9543 169.995 73.9543 170.508 73.9971C176.298 74.5099 179.054 74.7876 182.152 75.1722C187.173 75.7704 188.605 75.2363 188.968 72.5869C189.224 70.5999 188.583 70.0444 182.409 66.9036C175.636 63.4423 175.657 63.4637 179.866 64.5961C192.45 67.9719 193.412 68.0787 194.715 66.0917C196.232 63.8055 195.292 62.4381 189.139 57.9727C182.152 52.8876 175.336 47.3752 175.828 47.2042C176.063 47.1188 177.473 47.3965 188.412 49.7254C212.962 54.9601 225.055 56.8189 238.686 57.4599C254.625 58.1863 266.74 55.3874 265.052 51.392C264.325 49.7041 262.894 49.3836 259.433 50.1314C244.626 53.3149 226.593 51.627 187.558 43.4225C174.781 40.7304 172.537 40.3885 170.444 40.7517Z" fill="black"/>
<path d="M335.153 64.4875C328.273 65.3421 320.368 69.658 320.731 72.3928C321.009 74.5294 322.27 74.7858 325.688 73.4398C334.982 69.8076 343.144 70.1708 350.387 74.5294C360.322 80.4905 362.737 88.6736 356.54 95.3184C351.071 101.173 344.49 102.476 326.436 101.344C306.822 100.083 299.173 101.835 285.734 110.659C264.047 124.91 250.202 123.5 226.828 104.719C222.299 101.044 220.611 100.425 218.987 101.835C214.265 105.937 236.208 122.282 251.442 125.978C264.197 129.098 274.88 126.299 290.007 115.851C301.224 108.117 307.142 106.899 328.06 107.946C335.815 108.33 341.349 108.288 344.447 107.817C346.071 107.582 346.114 107.582 346.904 108.117C351.434 111.193 358.25 114.355 360.878 114.612C366.347 115.146 367.693 108.01 363.933 98.4592C363.399 97.0918 363.399 97.0918 363.848 96.3654C372.907 81.7084 355.194 62.009 335.153 64.4875ZM358.592 104.954C358.869 106.194 359.019 107.198 358.933 107.177C358.869 107.177 357.758 106.664 356.476 106.065C354.169 104.954 354.169 104.954 356.049 103.758C358.314 102.348 357.993 102.198 358.592 104.954Z" fill="black"/>
<path d="M340.025 84.5702C336.585 86.8563 336.499 90.5526 339.896 90.5953C342.439 90.6381 345.302 86.7922 344.041 85.0189C343.165 83.7583 341.52 83.5873 340.025 84.5702Z" fill="black"/>
<path d="M368.911 113.482C367.715 114.379 367.907 116.559 369.382 118.845C375.343 127.947 374.723 143.95 367.736 162.111C350.815 206.082 330.047 220.418 274.09 226.743C247.147 229.777 239.84 231.379 217.256 239.242C195.677 246.741 180.4 248.386 159.996 245.416C151.556 244.199 136.728 240.182 137.583 239.37C137.775 239.178 143.245 238.793 148.287 238.601C172.73 237.639 179.054 236.464 192.792 230.268C207.642 223.602 215.291 221.871 237.874 220.119C256.612 218.666 265.436 216.743 275.82 211.851C278.854 210.398 280.649 209.415 293.554 202.065C299.259 198.796 304.173 196.061 304.451 195.976C322.248 190.57 339.127 177.195 353.485 157.154C365.984 139.677 372.095 119.806 365.215 119.016C363.314 118.802 362.288 120.127 361.476 123.866C357.353 142.988 338.38 168.692 319.642 180.55C302.357 191.489 269.368 198.796 243.536 197.386C230.012 196.638 221.337 195.1 193.113 188.391C158.329 180.122 148.907 178.392 131.579 177.046C129.87 176.917 122.563 176.768 115.341 176.704C95.0435 176.533 86.0912 176.939 54.1278 179.503C27.335 181.661 12.7848 179.994 7.67838 174.161C4.51623 170.572 15.541 164.91 36.3941 159.44C44.9405 157.175 47.1412 155.616 55.4952 145.873C77.4594 120.255 84.1896 119.614 166.085 135.297C208.646 143.437 227.683 146.022 258.065 147.796C304.023 150.488 330.261 142.946 352.695 120.64C357.31 116.046 354.575 112.286 349.468 116.196C319.428 139.228 304.621 143.416 260.415 141.365C233.623 140.147 214.949 137.54 173.136 129.207C85.6211 111.773 74.9596 112.841 50.3461 141.6C42.8253 150.381 42.2698 150.744 32.3346 153.223C8.40482 159.184 -2.94046 167.495 1.09769 176.084C3.44794 181.127 11.567 184.972 22.8268 186.361C31.4373 187.408 39.2785 187.237 60.6444 185.507C85.0229 183.541 104.551 182.793 119.999 183.242C142.818 183.925 152.325 185.507 190.763 195.121C234.328 205.996 248.857 207.257 277.188 202.621C278.94 202.321 280.414 202.108 280.435 202.151C280.478 202.193 279.132 202.941 277.465 203.838C265.266 210.312 256.869 212.385 236.058 214.03C222.085 215.141 214.158 216.359 206.253 218.624C200.847 220.183 197.6 221.444 187.451 225.995C177.729 230.354 170.657 231.657 154.013 232.191C132.776 232.875 128.545 233.836 128.545 238.067C128.545 246.228 165.423 254.711 189.374 252.104C200.933 250.843 205.74 249.604 226.657 242.489C242.468 237.105 251.741 235.182 271.739 233.152C301.011 230.161 313.104 227.405 327.056 220.547C349.533 209.479 362.331 193.946 374.403 163.094C379.894 149.056 381.368 135.254 378.569 124.144C376.753 116.986 371.689 111.367 368.911 113.482Z" fill="black"/>
</svg>
