<svg width="284" height="181" viewBox="0 0 284 181" fill="none" xmlns="http://www.w3.org/2000/svg">
<path d="M171.129 0.440225C169.142 1.1453 168.971 1.99994 169.527 7.61916C170.339 15.61 170.082 18.1525 168.715 16.2083C167.07 13.9007 165.382 11.0377 163.544 7.4696C161.451 3.41008 159.934 2.59818 158.331 4.73477C156.365 7.36277 164.335 22.8103 168.758 24.9683C172.24 26.6348 174.847 24.5196 175.638 19.3704C177.219 9.02931 174.847 -0.905826 171.129 0.440225Z" fill="black"/>
<path d="M193.136 0.41766C183.008 2.42605 180.893 19.3478 190.166 24.262C196.063 27.4028 204.78 24.262 202.879 19.6897C202.345 18.365 200.764 18.0659 198.2 18.771C194.867 19.6897 189.205 17.8309 192.324 16.848C196.127 15.6302 199.674 12.9381 200.977 10.2887C203.541 5.07542 198.926 -0.714732 193.136 0.41766ZM195.379 6.80606C196.255 7.68206 194.696 9.45543 191.704 10.9938C190.465 11.6134 190.38 11.3997 191.213 9.62636C192.452 6.93426 194.29 5.7164 195.379 6.80606Z" fill="black"/>
<path d="M229.245 9.17616C221.254 10.3513 218.177 17.4448 223.39 22.6794C224.63 23.8973 224.63 23.8973 221.425 25.4997C213.477 29.4951 205.657 32.3795 186.812 38.3192C147.99 50.5405 141.538 55.4119 127.735 82.8671C113.57 111.07 105.066 119.424 72.2054 137.393C53.5102 147.627 42.2504 152.84 33.4477 155.319C30.5419 156.131 30.7556 156.216 30.4778 154.208C29.2172 145.384 17.6583 142.136 10.9708 148.717C4.94558 154.635 9.21876 162.434 18.9616 163.352C20.7563 163.523 20.8204 163.374 18.107 166.002C14.4534 169.549 9.92383 172.689 4.66782 175.296C0.672402 177.262 -0.267697 179.035 1.84753 180.552C5.50109 183.137 26.226 169.549 28.3412 163.181C28.384 163.053 29.5591 162.711 30.9692 162.434C39.9215 160.532 51.0104 155.832 68.7868 146.409C108.463 125.385 118.099 116.283 133.696 85.1105C146.238 60.027 152.541 55.3478 189.29 43.8957C210.507 37.2937 221.98 32.8282 229.651 28.1704C231.488 27.0594 231.488 27.0594 232.941 27.4013C238.859 28.726 244.094 28.2986 255.653 25.4997C266.379 22.9144 274.241 21.547 278.557 21.547C281.42 21.547 283.813 20.1582 283.535 18.684C282.723 14.6031 273.387 14.7527 254.756 19.1968C242.662 22.0812 237.065 22.6153 238.325 20.7992C242.727 14.3894 237.706 7.95831 229.245 9.17616ZM233.091 15.821C233.753 16.1201 233.753 16.1414 232.984 17.3166C230.975 20.3505 229.181 20.4574 227.343 17.6584C226.36 16.1628 230.783 14.774 233.091 15.821ZM22.4442 153.075C24.7731 154.806 24.6663 157.007 22.2519 157.007C18.8334 157.007 15.4576 156.024 15.308 154.977C15.0516 153.182 20.6281 151.708 22.4442 153.075Z" fill="black"/>
<path d="M117.629 12.1848C109.318 14.5564 111.967 33.337 121.902 42.2893C123.782 43.9986 123.804 44.2336 123.056 50.9211C122.65 54.532 123.291 55.7285 125.577 55.7498C127.564 55.7712 128.611 53.6773 129.466 47.994C129.594 47.2035 129.594 47.2035 130.812 47.6308C136.26 49.511 141.003 47.3958 138.931 44.02C138.375 43.1012 137.649 42.7594 135.512 42.3534C131.047 41.5202 129.936 40.5587 129.85 37.4606C129.359 20.2397 124.487 10.1978 117.629 12.1848ZM120.129 20.838C121.688 24.5129 123.675 34.3626 122.522 32.7601C120.3 29.6194 118.783 24.2992 119.189 21.0303C119.381 19.5774 119.573 19.5347 120.129 20.838Z" fill="black"/>
<path d="M147.392 13.0862C143.888 13.9408 142.221 16.6543 143.909 18.7908C144.721 19.8164 145.576 20.0087 147.371 19.56C152.498 18.2567 155.554 28.8969 151.43 33.7256C147.777 37.9774 143.247 32.6359 143.247 24.0896C143.247 18.3849 138.974 17.8721 137.799 23.4486C134.786 37.8492 149.336 47.8912 156.964 36.6527C162.818 28.0209 157.049 11.5264 148.61 12.8084C148.546 12.8084 147.99 12.9366 147.392 13.0862Z" fill="black"/>
<path d="M94.3829 61.0543C86.9048 62.9772 86.392 75.4977 93.5282 82.1638C101.327 89.4282 114.723 85.6892 114.723 76.2455C114.723 71.5236 109.659 69.622 108.741 73.9807C108.698 74.2371 108.548 74.9849 108.399 75.6899C107.993 77.8693 105.856 79.4503 103.335 79.4503C102.459 79.4503 102.395 79.4076 102.523 78.9589C103.186 76.6728 103.335 75.8181 103.442 73.6602C103.869 65.5839 99.6389 59.7083 94.3829 61.0543ZM96.8186 68.8742C97.2245 70.1562 97.4595 75.1558 97.1391 75.7113C96.3485 77.1428 94.4469 71.3099 94.9384 68.9597C95.4298 66.6735 96.0921 66.6522 96.8186 68.8742Z" fill="black"/>
<path d="M87.5462 84.1506C85.3455 85.4966 85.4524 86.5436 88.4222 91.6287C91.5417 97.0129 92.5672 101.799 91.0502 103.893C90.1315 105.153 87.4394 102.504 83.1021 96.0941C80.581 92.3765 79.7049 91.8423 77.9529 92.9106C75.7736 94.278 77.9316 100.645 82.5466 106.435C88.3581 113.721 96.6481 112.119 98.2933 103.38C99.8957 94.9617 92.2467 81.2876 87.5462 84.1506Z" fill="black"/>
<path d="M68.0173 94.9389C63.3382 96.6482 59.7273 102.588 59.706 108.592C59.706 109.874 59.706 109.874 57.8258 108.036C55.3046 105.558 53.8945 105.366 52.5484 107.288C51.416 108.891 54.5141 113.57 61.7571 121.24C65.1115 124.787 68.5087 122.522 67.184 117.651C65.1756 110.237 67.355 103.549 72.2478 102.097C75.9227 100.985 75.9013 96.4773 72.205 94.9176C71.3077 94.5544 69.0642 94.5544 68.0173 94.9389Z" fill="black"/>
<path d="M27.9572 106.876C26.4189 107.539 26.1625 109.162 27.2308 111.299C27.594 112.004 28.8973 114.418 30.1152 116.64C32.3372 120.679 32.3372 120.679 29.7733 123.734C25.2651 129.011 24.6028 130.229 25.3933 131.746C26.6325 134.139 28.2136 133.648 32.7645 129.396C34.3242 127.964 35.6703 126.747 35.7558 126.704C35.8199 126.682 36.3754 127.452 36.9522 128.413C41.2895 135.549 43.8534 137.921 46.0968 136.895C48.2975 135.891 47.5284 133.242 42.9561 125.806C40.5204 121.875 40.5204 121.875 44.5371 117.752C49.5795 112.602 50.3059 111.299 49.3231 109.248C48.0411 106.513 45.0927 107.624 39.7512 112.816C38.0846 114.418 36.7386 115.722 36.7172 115.7C36.6959 115.679 35.6489 114.034 34.367 112.047C30.9057 106.599 30.0938 105.958 27.9572 106.876Z" fill="black"/>
</svg>
