<svg width="95" height="112" viewBox="0 0 95 112" fill="none" xmlns="http://www.w3.org/2000/svg">
<path d="M35.0504 1.24201C28.3201 4.34007 33.3197 17.1596 42.0584 19.2107C44.3445 19.7449 43.319 19.8731 36.8665 19.809C27.2091 19.7235 23.0641 21.1978 16.8894 26.9024C15.4151 28.2699 13.3213 29.8937 11.2274 31.2611C5.54409 35.0428 4.3476 37.0085 4.73219 42.0722C5.11677 47.371 5.00994 48.9734 4.11258 51.345C3.08701 53.9944 3.10838 54.8918 4.13394 55.1909C6.78331 55.9387 9.15493 49.2298 8.21483 43.5678C7.40292 38.5896 7.93707 37.5854 13.2572 34.1027C15.0092 32.9704 16.9535 31.432 18.4918 30.0005C24.5384 24.3385 27.9355 23.2061 38.1057 23.313C44.1736 23.3771 45.0069 23.2275 46.5239 21.6678C47.1007 21.0909 47.1007 21.0909 47.9767 21.8387C49.1519 22.8429 50.0279 23.0139 54.1728 23.142C60.8817 23.313 63.5525 24.5308 67.1633 28.9749C69.7486 32.1798 70.5178 32.7567 75.4319 35.342C82.1835 38.8887 83.8928 40.6193 84.3201 44.3797C84.9825 50.4477 85.3457 51.58 88.401 57.7762C91.2854 63.6304 91.7341 65.767 90.7085 69.036C89.5975 72.5613 91.5204 74.2279 93.2083 71.2153C95.2594 67.519 94.768 63.7159 91.3709 56.6438C88.9351 51.58 88.3369 49.7426 87.8241 45.7258C87.0336 39.4229 84.3842 36.047 77.6753 32.6712C72.9107 30.2783 71.3083 29.0818 68.723 25.8982C65.0054 21.3687 61.715 19.9158 54.4933 19.638C49.3014 19.4457 49.3014 19.4457 51.2457 18.1424C57.3564 14.0402 61.0954 7.60905 59.8562 3.33587C58.9374 0.195083 55.1129 -0.125405 52.1858 2.71626C50.5406 4.3187 47.5494 9.27559 47.5494 10.4293C47.5494 10.6216 47.2076 9.98066 46.823 9.0192C44.3018 2.92992 39.0031 -0.574089 35.0504 1.24201ZM39.0885 4.48963C41.2892 5.94251 43.5326 9.66017 45.071 14.382C45.9683 17.1169 46.0111 17.01 44.2163 16.7109C39.7509 15.9417 35.6059 11.9463 34.9436 7.73724C34.4308 4.55372 36.6101 2.86582 39.0885 4.48963ZM57.1641 5.00241C57.6555 7.16036 55.3266 10.6216 51.2885 13.7624C48.9382 15.5785 48.9809 15.5785 49.6005 13.9333C52.1431 7.139 56.4804 2.01118 57.1641 5.00241Z" fill="black"/>
<path d="M2.18847 61.9896C0.201445 63.5066 0.0732496 69.895 1.97481 73.2708C4.1755 77.1594 4.06867 76.7321 4.06867 81.3899C4.06867 86.2399 4.30369 87.0091 6.73941 89.8294C8.04272 91.3464 9.26058 93.4189 9.73063 94.9572C11.4185 100.277 15.7985 102.863 20.7768 101.452C21.5032 101.26 21.8024 101.239 21.8665 101.431C22.892 104.55 26.6524 106.58 34.2159 108.097C38.7882 109.016 40.3693 109.443 44.4502 110.875C49.9626 112.819 52.8897 112.242 60.8378 107.606C64.1495 105.662 66.628 104.807 72.3327 103.632C79.9817 102.051 81.7978 100.448 83.8916 93.4189C84.8744 90.1285 85.8786 87.821 87.4811 85.1503C88.6562 83.2273 88.8271 82.33 88.1862 81.7531C86.4128 80.1506 82.8874 85.0221 80.7722 91.966C78.8493 98.2903 78.4006 98.7603 72.76 99.8714C65.6452 101.282 63.4231 102.051 58.5944 104.828C51.33 108.995 49.0652 109.336 43.4887 107.2C39.6215 105.726 38.7028 105.469 34.7714 104.657C29.1522 103.525 27.272 102.863 25.6482 101.452C24.6654 100.576 24.6867 100.491 25.9901 100.32C31.8657 99.5295 38.1473 94.4871 38.1473 90.5558C38.1473 85.8126 30.776 86.1331 25.9687 91.1113C25.2423 91.8805 25.2423 91.8805 24.9859 90.4276C24.4304 87.1586 23.1698 85.193 20.9477 84.0606C14.4739 80.7916 12.2304 92.1583 18.1702 98.0766C19.0889 98.9954 18.9607 99.1663 17.5505 98.8885C15.2217 98.4612 13.9183 97.1792 12.7219 94.1667C11.5895 91.3036 10.9271 90.1285 9.41014 88.2056C6.9317 85.1075 6.71804 84.3811 7.03853 80.0011C7.27355 77.0526 7.03853 75.8561 5.75658 73.4631C3.2995 68.8267 2.97901 67.6516 3.61999 65.2372C4.36779 62.3742 3.70545 60.8572 2.18847 61.9896ZM19.7512 87.1373C21.2896 88.6756 21.8878 91.1754 21.4819 94.4444C21.1827 96.9015 21.0332 96.9229 19.5803 94.5299C17.1873 90.5772 17.3155 84.7016 19.7512 87.1373ZM35.156 90.9404C35.156 92.9702 29.9214 96.1537 25.4773 96.8374C24.5586 96.987 24.5372 97.0297 25.9473 95.3845C29.2163 91.56 35.156 88.697 35.156 90.9404Z" fill="black"/>
</svg>
