<svg width="311" height="316" viewBox="0 0 311 316" fill="none" xmlns="http://www.w3.org/2000/svg">
<path d="M170.394 0.68372C166.698 1.53836 162.061 4.0809 158.835 7.05075C157.981 7.84129 157.981 7.84129 156.912 6.45251C146.806 -6.98663 133.645 12.0717 137.063 35.211C140.995 61.8543 156.399 66.4266 169.86 44.9325C185.051 20.6608 185.329 -2.71346 170.394 0.68372ZM174.71 7.13622C180.714 13.7169 162.467 51.9191 153.408 51.7482C148.088 51.6627 143.089 39.6124 143.067 26.8783C143.024 9.72149 151.229 1.60246 154.199 15.8749C155.395 21.6437 160.566 21.1095 160.203 15.2339C159.946 11.4521 172.338 4.55095 174.71 7.13622Z" fill="black"/>
<path d="M118.795 16.7323C106.275 18.463 91.8954 27.3725 87.6436 36.0044C87.0881 37.1154 87.0667 37.1367 86.1053 37.1367C65.6581 37.1581 41.7711 55.9174 38.3311 74.6552C38.267 74.9971 37.7756 75.2749 36.1732 75.8945C16.8584 83.3512 5.70543 109.567 13.3544 129.459C13.4612 129.715 13.1408 130.078 12.2434 130.783C-4.33654 143.56 -3.05459 173.943 14.7005 188.279C16.1961 189.476 16.1961 189.476 15.3628 191.42C7.43607 209.794 15.256 234.216 31.7932 242.655C34.3357 243.937 34.3357 243.937 34.0366 245.497C29.4429 268.551 59.8893 291.775 87.0454 285.942C88.5196 285.622 88.5196 285.622 90.7844 287.823C101.211 297.843 129.692 304.232 129.692 296.54C129.692 294.574 128.004 293.891 121.252 293.207C110.74 292.117 101.66 288.848 96.3395 284.276C95.314 283.4 95.314 283.4 97.3865 282.31C110.035 275.687 112.001 263.231 100.997 259.577C89.4811 255.753 80.3579 266.222 84.5883 278.422C85.0797 279.853 85.2293 279.725 82.7081 280.046C62.1968 282.652 40.5532 267.205 40.5105 249.898C40.4891 245.561 40.3182 245.796 43.1812 246.223C59.8039 248.766 75.3369 237.912 67.0896 229.494C60.2312 222.486 44.5273 226.225 37.6902 236.502C36.5364 238.232 36.8355 238.19 34.7203 237.1C21.0248 230.071 14.6791 209.218 21.4521 193.492C21.7939 192.702 21.7939 192.702 23.2255 193.257C39.8268 199.688 59.0347 191.505 53.6932 180.267C49.0782 170.567 32.0282 171.25 21.8367 181.527C19.0805 184.326 19.4223 184.348 16.2388 181.121C4.67987 169.456 3.69704 148.774 14.1877 137.813C16.2174 135.698 15.9824 135.698 17.1575 137.706C25.8321 152.555 46.9416 155.354 49.9115 142.065C52.5395 130.271 35.6818 121.041 20.8111 126.147C18.9309 126.788 19.0805 126.831 18.7814 125.741C14.145 108.606 21.8153 89.8891 36.4296 82.7316C38.6944 81.6205 38.6516 81.5992 39.0362 83.052C42.9462 98.35 66.1282 103.307 68.7989 89.4191C70.4227 81.0009 59.8893 73.3519 47.1339 73.6938C44.8264 73.7792 44.4632 73.7365 44.5486 73.4588C44.5914 73.2878 44.7409 72.7323 44.8691 72.2195C47.9031 60.511 64.3334 47.5419 80.5501 44.102C85.3788 43.0765 85.1224 43.0124 85.4002 45.2985C86.5112 54.5499 97.0232 59.4427 104.288 54.1013C111.061 49.1016 106.787 40.2134 96.4891 37.8846C93.6688 37.2649 93.8184 37.4145 94.8867 36.0685C101.745 27.3725 116.103 21.091 127.021 21.9883C128.517 22.1165 129.371 21.7106 129.777 20.685C131.08 17.4374 126.252 15.7068 118.795 16.7323ZM94.0107 43.5679C98.9462 44.3584 102.792 47.371 100.997 49.0589C97.771 52.0929 91.4467 49.0375 91.4467 44.4439C91.4467 43.1619 91.4681 43.1406 94.0107 43.5679ZM54.0564 80.4027C60.4662 82.0478 64.9317 87.3466 62.2609 90.1455C58.3724 94.2478 48.9714 90.6156 45.6596 83.7144C44.2922 80.8514 44.1854 80.1463 45.1255 80.0181C46.6852 79.7831 52.6677 80.0608 54.0564 80.4027ZM31.8359 131.36C41.6215 132.386 47.668 140.334 41.0873 143.582C36.7714 145.697 29.5925 143.112 25.0416 137.791C23.6955 136.232 21.5589 133.005 21.7512 132.813C22.0931 132.471 25.8748 131.553 27.5627 131.382C28.5669 131.275 29.4429 131.189 29.507 131.168C29.5925 131.168 30.6394 131.253 31.8359 131.36ZM42.4975 179.861C43.3735 179.968 44.5914 180.31 45.2323 180.609C54.3342 184.775 41.0873 191.74 29.6993 188.77C25.0629 187.553 24.9775 187.488 26.6226 185.801C31.1308 181.271 36.8355 179.134 42.4975 179.861ZM60.8722 233.019C66.7264 235.284 57.8809 240.22 47.9672 240.22C43.5444 240.22 43.1812 240.134 43.8435 239.194C47.4544 234.13 55.8512 231.075 60.8722 233.019ZM99.0103 265.752C104.117 267.675 101.339 273.358 93.5192 276.969C91.404 277.952 91.3399 277.93 90.8271 276.563C88.135 269.363 92.6646 263.38 99.0103 265.752Z" fill="black"/>
<path d="M206.716 18.4655C194.9 19.1492 185.072 23.2728 186.952 26.7768C187.679 28.1228 189.26 28.1228 192.742 26.8195C212.42 19.4056 233.231 26.1144 236.606 40.921C237.376 44.3395 237.418 44.2968 233.466 44.3395C217.292 44.4891 207.399 53.3987 215.198 60.7913C222.996 68.1625 237.461 63.5048 241.435 52.3518C242.012 50.792 241.82 50.8134 245.58 51.9244C256.263 55.0652 263.015 63.1629 263.015 72.8203C263.015 74.8714 263.015 74.8714 260.515 75.1492C245.26 76.7302 235.453 86.0244 241.414 93.2674C247.824 101.045 262.822 94.8058 267.267 82.5418C267.737 81.2384 267.737 81.2384 269.595 81.4094C290.363 83.3323 301.516 100.083 293.803 117.753C292.906 119.804 291.602 121.77 291.239 121.641C276.924 115.937 259.895 123.329 265.002 133.051C269.147 140.913 281.71 140.016 292.179 131.064C293.141 130.23 293.141 130.23 294.679 131.491C303.204 138.499 306.152 153.733 301.153 165.035C299.572 168.625 294.166 174.522 293.525 173.39C289.914 166.937 280.15 161.403 272.309 161.403C255.964 161.382 253.87 178.197 269.595 183.154C275.962 185.162 281.218 185.013 290.534 182.598C291.795 182.278 293.782 191.935 293.782 198.324C293.782 210.673 289.743 220.929 282.842 226.121C281.283 227.296 281.368 227.296 280.813 226.163C274.745 213.728 254.896 209.199 250.11 219.177C245.217 229.39 263.079 240.03 277.885 235.735C278.462 235.564 278.548 235.735 278.825 238.491C280.086 250.2 273.399 258.789 261.669 260.52C259.105 260.883 258.955 260.861 258.955 259.985C258.955 246.61 240.965 236.483 232.419 245.051C224.599 252.871 234.406 264.365 250.836 266.609C253.058 266.929 252.973 266.694 251.862 269.643C248.742 277.847 239.234 283.488 227.312 284.214C225.24 284.343 225.24 284.343 224.877 282.697C221.565 267.72 206.224 259.9 201.203 270.604C197.742 278.018 204.771 286.736 216.48 289.577C219.086 290.218 218.958 290.09 218.232 291.329C214.642 297.483 203.041 300.282 192.272 297.568C183.747 295.453 181.055 299.128 188.512 302.696C201.31 308.849 220.561 303.23 224.449 292.227C225.026 290.603 225.026 290.603 227.932 290.475C240.73 289.919 251.904 283.381 256.519 273.766C257.588 271.566 258.742 268.147 258.742 267.229C258.742 266.887 258.912 266.823 259.788 266.823C276.197 266.823 287.885 251.396 284.039 234.795C283.868 234.047 283.761 233.406 283.782 233.385C298.76 224.069 305.063 200.823 297.82 181.573C297.093 179.671 297.029 179.329 297.307 179.158C313.887 169.886 314.442 138.777 298.29 125.765C297.328 124.996 297.328 124.996 298.653 122.432C309.785 100.916 296.025 77.6917 270.706 75.2133C269.104 75.0637 269.104 75.0637 268.954 72.393C268.1 58.1205 259.361 48.805 243.337 45.1728C242.803 45.066 242.781 45.0019 242.653 42.9508C241.649 27.6314 226.522 17.3331 206.716 18.4655ZM235.88 50.6639C235.88 55.3643 225.966 59.8512 221.031 57.3941C217.74 55.7489 218.616 53.8687 223.488 52.074C227.355 50.6639 235.88 49.681 235.88 50.6639ZM261.156 81.7299C259.383 86.8149 251.434 91.6864 247.567 90.0412C243.379 88.2678 250.046 83.2468 258.635 81.7085C261.028 81.2812 261.327 81.2812 261.156 81.7299ZM282.458 126.449C286.539 126.919 286.731 127.047 285.086 128.115C280.364 131.192 274.104 132.239 271.753 130.316C270.3 129.162 273.954 126.94 278.099 126.47C280.214 126.214 280.449 126.214 282.458 126.449ZM275.578 168.539C279.231 169.415 282.522 171.402 285.534 174.522C287.778 176.851 287.778 176.744 285.449 177.278C277.009 179.265 267.886 177.235 265.792 172.919C264.104 169.437 269.424 167.065 275.578 168.539ZM265.365 220.459C269.318 221.783 272.758 224.497 275.3 228.257C276.133 229.518 276.176 229.475 273.463 229.881C266.476 230.906 257.31 227.509 255.964 223.386C255.024 220.501 260.429 218.813 265.365 220.459ZM242.76 248.469C247.311 249.431 251.392 253.725 252.674 258.981C253.122 260.797 253.186 260.755 250.687 260.306C242.076 258.768 234.919 253.618 236.692 250.2C237.504 248.64 240.046 247.914 242.76 248.469ZM210.989 272.271C213.147 273.168 215.817 276.074 217.463 279.322C218.146 280.689 219.065 283.274 218.916 283.424C218.403 283.937 211.972 281.138 209.985 279.535C205.391 275.839 206.139 270.262 210.989 272.271Z" fill="black"/>
<path d="M170.907 268.851C166.954 269.855 159.86 274.342 157.959 277.077C157.638 277.547 157.617 277.526 155.929 275.71C140.823 259.407 126.551 282.184 139.093 302.609C149.968 320.364 166.099 319.659 175.928 301.007C186.461 281.008 184.047 265.518 170.907 268.851ZM175.885 275.154C179.538 279.662 170.201 302.567 162.766 307.374C153.878 313.121 140.567 299.874 140.588 285.303C140.61 273.68 150.78 274.385 154.583 286.264C156.463 292.14 161.805 291.328 160.886 285.324C160.608 283.401 160.672 283.273 163.599 280.496C168.279 276.009 174.432 273.359 175.885 275.154Z" fill="black"/>
</svg>
