<svg width="125" height="94" viewBox="0 0 125 94" fill="none" xmlns="http://www.w3.org/2000/svg">
<path d="M69.3826 0.672737C66.4341 1.8265 65.0453 4.43313 65.8786 7.31753C67.011 11.2061 71.7969 12.5522 74.8736 9.8387C79.7023 5.60826 75.3437 -1.65614 69.3826 0.672737Z" fill="black"/>
<path d="M16.2457 9.55673C13.9169 10.1763 11.2461 12.1206 8.4472 15.2187C-8.19683 33.5934 1.78104 58.6769 21.1813 47.2462C22.3137 46.5624 22.3137 46.5624 22.9546 47.3957C25.2194 50.3015 27.6765 51.498 29.4712 50.5792C31.2873 49.6391 31.3087 47.4598 29.5567 45.4942C29.0866 44.9814 28.3388 44.0413 27.8902 43.4003C24.963 39.2339 22.7623 38.8921 17.6773 41.8192C12.7845 44.6395 9.43003 44.084 7.46437 40.0886C6.65247 38.422 6.567 38.6143 8.72496 36.9905C14.7501 32.461 21.2454 23.8078 22.8692 18.0817C24.493 12.4411 21.2026 8.21067 16.2457 9.55673ZM15.7971 18.0176C14.7715 20.6884 12.1435 24.7051 9.15227 28.2519C7.33617 30.4312 7.31481 30.4312 7.99852 28.5724C9.60096 24.3419 14.8142 16.9066 16.1817 16.9066C16.203 16.9066 16.0321 17.4194 15.7971 18.0176Z" fill="black"/>
<path d="M46.1794 14.0213C42.1199 15.1537 38.0176 19.1918 34.9409 25.0888C33.8299 27.1827 33.8299 27.1827 33.1462 23.0804C32.1206 16.8202 29.8345 14.6836 27.7834 18.0381C26.7151 19.7901 28.8944 38.9766 30.39 41.1773C32.7189 44.5745 35.646 42.7584 37.1416 36.9896C37.633 35.088 38.1886 33.2292 38.3381 32.8446C38.509 32.4814 38.915 31.4986 39.2355 30.6867C41.6285 24.4906 47.6964 17.9312 48.6792 20.4738C49.1279 21.6489 49.192 22.0976 49.1706 24.3624C49.1706 27.0331 48.9356 29.0415 48.0169 34.4257C46.6708 42.4165 47.1195 47.1384 49.427 49.5528C52.5892 52.8645 56.6487 50.2151 54.6617 46.1769C53.7429 44.3181 53.7216 40.8996 54.5976 34.5325C56.7128 19.1491 53.7429 11.9061 46.1794 14.0213Z" fill="black"/>
<path d="M67.1822 15.4929C66.0498 15.9843 65.4516 16.8603 63.2295 21.1548C60.9861 25.4921 59.1059 28.6329 57.0548 31.5386C54.6618 34.8717 54.5336 36.3246 56.4993 37.2647C58.1658 38.0552 59.4478 37.3929 62.4176 34.2521C64.0414 32.5428 64.2978 32.3292 64.2124 32.842C64.1483 33.1838 63.956 35.1495 63.785 37.2006C63.4004 41.3456 62.4603 50.3834 62.2894 51.4517C62.1826 52.0713 62.1185 52.114 61.5416 51.9431C52.7602 49.4219 41.3295 57.7119 37.975 69.0358C31.4584 90.9572 55.3882 98.9908 63.9987 77.7744C66.9899 70.4032 68.2291 62.7328 70.1948 39.5509C70.7289 33.2693 71.3486 26.2185 71.5836 23.911C71.8186 21.6035 72.0109 19.296 72.0109 18.7832C71.9895 16.2834 69.4043 14.5314 67.1822 15.4929ZM60.5374 58.5879C61.2852 58.7802 61.328 58.8443 61.2211 59.4852C59.6614 69.1212 58.3795 73.9927 56.3924 77.7958C51.5851 87.09 42.4405 84.697 43.7866 74.5054C45.0899 64.7626 53.6149 56.6649 60.5374 58.5879Z" fill="black"/>
<path d="M82.737 20.3233C73.1437 26.7331 69.362 45.7487 76.3273 52.6071C86.4333 62.5637 103.12 45.941 98.8683 30.1516C96.1334 20.0455 84.8309 22.4599 84.8309 33.1428C84.8523 38.9971 90.0442 39.7449 90.8347 34.0188C91.4116 29.8311 92.309 29.8311 92.309 34.0188C92.309 43.954 85.6428 52.0944 81.0064 47.7998C77.1178 44.189 79.8954 30.8567 85.771 24.9383C89.3605 21.3275 86.882 17.5671 82.737 20.3233Z" fill="black"/>
<path d="M103.803 23.4673C101.367 26.074 101.089 37.5688 103.311 44.2563C105.149 49.7901 109.422 52.6104 113.631 51.0293C114.528 50.6875 114.528 50.6875 114.422 51.1575C114.358 51.4139 113.866 53.7855 113.332 56.4349C112.178 62.0541 112.456 61.52 111.024 61.0713C99.8501 57.5459 83.8257 65.4513 80.4285 76.177C76.3049 89.2529 91.5174 97.9915 105.234 90.3853C114.742 85.1293 118.567 74.5959 122.861 41.7993C123.331 38.1457 123.887 34.3212 124.058 33.2956C125.211 26.4586 119.015 25.7962 117.306 32.5692C115.362 40.3036 112.306 45.9442 110.768 44.6623C108.952 43.1667 107.862 37.6543 107.798 29.8771C107.777 24.9416 107.734 24.557 107.328 24.0015C106.409 22.7409 104.721 22.5059 103.803 23.4673ZM109.358 68.2075C110.426 68.3998 110.683 68.5066 110.597 68.8057C110.533 68.998 110.298 69.9168 110.063 70.8569C109.144 74.4677 107.99 77.4376 106.623 79.5742C100.171 89.8084 82.7787 87.4368 87.9279 77.0102C91.2183 70.3655 100.427 66.5837 109.358 68.2075Z" fill="black"/>
</svg>
