<svg width="583" height="431" viewBox="0 0 583 431" fill="none" xmlns="http://www.w3.org/2000/svg">
<path d="M43.9333 0.810773C34.2118 2.43458 31.0497 20.7665 35.5152 49.5036C36.9253 58.5628 37.5877 63.3915 37.4595 63.541C37.374 63.6051 36.498 62.8787 35.4938 61.9386C24.7895 51.8111 14.0852 50.8924 12.2904 59.9302C10.6453 68.3697 18.7429 80.4201 38.5278 98.987C41.9463 102.213 46.0913 106.316 47.7365 108.11C52.0737 112.811 51.8387 112.64 53.3343 112.64C59.3168 112.64 55.065 105.397 42.1172 93.5601C30.1523 82.6208 23.8708 75.3564 20.4309 68.5406C14.9185 57.5372 20.4736 57.1099 32.1394 67.6219C40.9207 75.5059 45.0444 72.6002 43.3137 59.7593C43.1642 58.6482 42.7582 55.892 42.4164 53.67C38.6346 29.5052 38.485 18.3094 41.7754 10.2118C43.506 5.95995 44.8948 5.31898 47.1168 7.73332C50.749 11.7287 53.0779 19.9332 56.2187 39.889C59.4663 60.4643 61.4961 65.1007 67.1794 65.1007C71.5167 65.1007 74.4438 61.9386 81.4518 49.6746C86.601 40.6368 90.0836 35.8508 91.3015 36.0859C92.9467 36.4063 94.0791 43.6494 93.8654 52.7085C93.6731 60.4643 93.374 64.0538 91.1519 84.8642C88.8658 106.444 88.9513 110.119 91.7929 110.055C94.8482 109.969 97.113 96.7009 99.741 63.2846C101.408 42.1324 98.4804 30.0607 91.7075 30.0607C86.6651 30.082 83.6952 33.2228 76.0035 46.6833C71.0466 55.3793 68.5255 58.9046 67.2862 58.9046C66.0898 58.9046 64.53 52.9008 62.1798 39.1412C57.1802 9.78444 52.2447 -0.57801 43.9333 0.810773Z" fill="black"/>
<path d="M128.221 33.923C120.06 34.7349 102.134 50.0542 103.394 55.118C104.078 57.8101 107.048 57.5109 109.59 54.477C114.483 48.6441 123.991 41.0592 127.559 40.1832C128.371 39.9909 128.285 40.4182 126.363 45.3324C123.542 52.5327 123.307 55.2462 125.358 57.1691C127.901 59.5834 130.593 59.1347 140.678 54.6052C148.519 51.0798 151.831 50.0756 151.532 51.3362C150.848 54.1138 147.429 59.1561 140.763 67.2111C132.858 76.7402 137.11 80.4793 145.656 71.5483C154.459 62.3824 159.33 52.8532 157.621 48.2595C155.783 43.3454 150.527 43.4949 138.37 48.7937C135.635 49.9901 132.025 51.4644 131.149 51.7208C130.7 51.8703 130.7 51.8062 131.554 49.456C135.87 37.6193 134.93 33.2393 128.221 33.923Z" fill="black"/>
<path d="M505.394 65.3933C501.335 66.8462 496.826 72.3372 490.887 83.1483C488.9 86.7592 488.9 86.7592 488.408 83.4688C484.627 58.3212 469.777 63.6413 465.077 91.8015C463.688 100.134 465.931 106.202 469.158 102.741C470.162 101.651 470.119 101.929 470.803 95.2201C471.529 88.3189 475.631 77.1018 478.366 74.5379C479.349 73.6191 480.674 77.7855 482.041 86.2037C483.516 95.0705 484.456 96.9293 487.596 96.9293C490.118 96.9293 491.143 95.7328 495.288 88.0625C501.655 76.2472 506.633 69.8374 507.403 72.4013C508.62 76.5035 507.125 86.3746 502.147 106.971C499.049 119.769 499.113 121.436 502.617 120.731C504.454 120.346 507.338 112.334 511.099 97.143C516.697 74.4738 514.475 62.1457 505.394 65.3933Z" fill="black"/>
<path d="M124.269 80.9336C116.342 81.9378 109.163 85.1 108.95 87.6852C108.736 90.0782 110.574 90.6765 113.971 89.3731C131.811 82.4292 153.583 89.2236 153.647 101.744C153.669 110.055 148.22 113.367 129.931 116.166C113.095 118.73 108.971 121.037 104.506 130.374C104.014 131.421 102.882 133.793 101.985 135.63C97.6045 144.818 94.3142 146.933 80.2127 149.689C76.0463 150.501 74.8285 151.206 74.2943 153.065C73.5252 155.778 77.2001 156.718 84.3577 155.693C97.1558 153.813 103.266 148.984 108.715 136.357C113.415 125.503 114.761 124.605 130.358 122.148C133.414 121.657 136.64 121.123 137.516 120.952C138.606 120.76 139.14 120.717 139.183 120.866C139.631 122.17 144.332 127.404 147.002 129.52C152.707 134.113 157.108 133.387 158.049 127.725C158.647 124.135 158.091 117.555 156.852 113.645C156.297 111.893 156.297 111.893 157.044 110.654C166.98 94.5651 148.519 77.8142 124.269 80.9336ZM152.13 118.837C152.6 121.828 152.814 125.994 152.515 125.994C151.639 125.994 144.695 119.264 145.336 119.029C147.173 118.388 149.182 117.512 150.25 116.914C151.746 116.059 151.682 115.995 152.13 118.837Z" fill="black"/>
<path d="M136.917 98.5745C135.528 98.8523 133.734 101.822 133.969 103.489C134.246 105.604 136.49 106.309 138.242 104.856C141.511 102.121 140.613 97.8695 136.917 98.5745Z" fill="black"/>
<path d="M550.518 100.624C541.651 103.338 521.012 120.922 496.013 147.053C484.668 158.932 482.318 162.265 484.07 164.017C485.907 165.855 487.809 164.402 502.231 149.916C528.532 123.55 538.339 114.769 547.783 109.085C550.155 107.654 550.347 107.077 544.578 118.572C533.746 140.194 531.887 147.223 535.968 151.048C538.98 153.868 542.228 153.185 555.646 146.86C564.619 142.63 568.85 140.963 572.268 140.301C574.277 139.895 574.277 140.087 572.226 143.164C569.961 146.518 568.316 148.399 558.957 158.206C552.548 164.893 551.33 167.243 552.633 170.128C553.83 172.777 555.582 173.247 564.192 173.311C576.071 173.397 576.969 173.803 572.995 177.371C568.38 181.516 559.278 185.746 544.535 190.554C525.028 196.942 521.546 198.096 517.935 199.463C505.479 204.164 496.27 208.736 494.967 210.872C493.962 212.518 494.967 215.039 496.633 215.103C497.915 215.167 498.406 214.975 501.398 213.351C510.243 208.565 520.157 204.805 540.369 198.544C570.303 189.293 582.246 182.349 582.246 174.187C582.246 168.589 577.738 166.474 566.051 166.538C559.876 166.56 559.876 166.56 560.688 165.662C561.137 165.171 563.722 162.457 566.457 159.637C580.238 145.365 583.25 139.724 579.34 135.494C575.836 131.69 569.726 132.994 552.761 141.198C545.967 144.489 542.484 145.984 541.181 146.198C538.745 146.583 542.484 137.117 551.629 119.726C557.099 109.299 558.295 105.774 557.163 103.21C555.966 100.539 553.701 99.663 550.518 100.624Z" fill="black"/>
<path d="M461.829 108.044C448.71 109.219 438.134 117.039 436.745 126.632C436.617 127.508 436.446 127.743 434.779 129.196C424.673 138.063 422.174 142.528 426.254 144.387C427.472 144.943 436.873 144.152 443.048 142.956C445.056 142.571 445.398 142.806 447.898 146.246C451.53 151.246 451.894 160.903 449.458 188.059C446.445 221.689 452.235 237.927 471.871 250.939C481.998 257.648 488.643 259.378 488.643 255.276C488.643 253.374 488.023 252.84 481.934 249.593C458.602 237.094 452.727 223.313 455.739 188.166C458.731 153.275 457.897 147.058 448.988 137.806C441.488 129.986 441.232 125.051 448.112 119.859C459.927 110.949 478.622 113.748 485.011 125.371C487.81 130.457 492.19 127.38 489.946 121.91C487.019 114.688 477.832 109.027 467.491 108.044C464.948 107.809 464.564 107.809 461.829 108.044ZM438.134 134.153C438.134 134.302 438.604 135.157 439.181 136.054C440.206 137.657 440.206 137.657 436.745 138.191C433.284 138.704 433.284 138.704 435.549 136.311C437.792 133.939 438.134 133.661 438.134 134.153Z" fill="black"/>
<path d="M42.2662 109.238C40.9843 109.901 39.1895 112.166 36.7965 116.182C30.6645 126.459 26.9896 131.245 15.7298 143.616C1.30781 159.448 -1.23473 163.486 1.05142 166.926C2.91025 169.704 5.81601 169.554 16.2639 166.157C21.0285 164.597 23.8915 163.764 23.9984 163.892C24.1266 164.021 23.3147 166.841 21.7122 171.776C17.2681 185.557 16.8622 189.531 19.5756 192.159C23.101 195.578 28.7202 193.185 44.2746 181.626C46.5821 179.917 48.4837 178.549 48.5264 178.592C48.5478 178.635 48.0564 180.472 47.4368 182.716C41.8175 202.629 42.4158 211.367 49.1674 208.269C52.821 206.603 62.5852 188.955 69.9137 170.793C74.2082 160.175 74.5073 157.611 71.5161 156.948C69.6359 156.521 69.3795 156.863 66.8156 163.059C62.7134 173.037 50.9194 196.86 50.5989 195.877C50.4707 195.492 52.4791 186.967 53.9961 181.434C56.3463 172.93 56.2395 171.007 53.3551 170.024C51.0903 169.277 50.2143 169.704 41.4757 176.071C33.1002 182.16 24.6394 187.523 24.1479 187.053C23.7847 186.668 25.3017 180.793 27.9083 172.46C32.908 156.478 30.9637 154.812 13.4864 160.26C8.14489 161.927 8.42265 162.098 11.0934 158.871C13.3368 156.179 14.811 154.534 21.9473 146.693C32.8652 134.749 37.8648 127.869 42.544 118.468C45.8984 111.738 45.7702 107.486 42.2662 109.238Z" fill="black"/>
<path d="M185.802 112.043C176.572 112.727 167.065 115.056 164.607 117.214C162.001 119.478 164.159 122.726 167.321 121.316C172.791 118.902 187.405 117.256 197.66 117.897C213.407 118.859 224.282 122.256 251.075 134.541C293.508 153.984 317.309 161.334 342.948 162.937C365.084 164.325 378.715 161.719 398.713 152.318C417.622 143.43 418.37 142.938 417.302 140.374C416.084 137.468 413.84 138.045 398.82 145.16C378.224 154.924 369.421 157.082 351.068 156.869C323.612 156.548 300.623 149.989 254.28 129.2C226.227 116.615 216.163 113.41 200.652 112.107C198.323 111.915 188.11 111.872 185.802 112.043Z" fill="black"/>
<path d="M454.222 121.438C452.299 123.126 454.115 129.621 456.636 130.112C459.221 130.604 460.119 128.211 458.858 124.194C457.982 121.352 455.803 120.07 454.222 121.438Z" fill="black"/>
<path d="M140.614 138.213C137.623 139.837 125.359 154.344 119.675 162.955C111.62 175.176 108.159 183.231 103.224 201.242C96.707 224.959 93.3526 232.009 75.8326 258.781C73.6105 262.178 70.7475 266.558 69.4869 268.481C39.3183 314.567 31.4342 337.621 34.2118 371.699C35.2587 384.669 35.7929 386.741 38.2713 387.211C40.6216 387.638 41.583 386.463 42.5445 382.041C48.0996 356.209 64.5941 325.378 91.2374 291.043C107.54 270.019 113.543 261.11 120.551 247.457C124.846 239.103 127.474 233.035 133.072 218.613C139.268 202.653 145.443 182.633 150.784 161.032C152.429 154.387 154.203 147.507 154.694 145.755C156.168 140.691 156.168 139.196 154.715 138.491C151.425 136.931 149.481 141.14 144.908 159.75C140.763 176.629 136.554 190.474 130.401 207.503C117.688 242.607 110.531 255.832 89.0794 283.672C77.3923 298.884 71.6235 307.004 64.8078 317.879C54.1248 334.971 46.5399 350.184 41.6899 364.307C39.8524 369.67 39.9379 369.798 39.7456 361.123C39.1046 332.664 46.6895 314.097 79.2297 264.314C98.9077 234.231 101.707 228.27 109.527 199.811C115.424 178.381 123.5 164.279 140.934 144.901C144.139 141.354 144.503 140.649 143.926 139.132C143.562 138.192 141.639 137.636 140.614 138.213Z" fill="black"/>
<path d="M435.933 150.176C435.314 150.753 434.951 151.458 433.946 154.086C427.366 171.393 415.315 190.536 404.333 201.113C382.177 222.436 350.919 227.478 308.294 216.56C285.453 210.727 267.271 202.822 233.128 183.892C210.801 171.521 200.139 166.201 187.747 161.244C172.172 155.026 157.621 152.142 155.207 154.791C153.37 156.821 154.502 158.808 157.429 158.723C169.202 158.338 194.05 168.53 226.398 187.032C230.094 189.148 233.748 191.22 234.517 191.626C235.286 192.032 237.893 193.485 240.307 194.852C269.493 211.24 292.867 220.385 318.058 225.32C369.891 235.448 403.885 221.709 427.878 181.007C428.84 179.362 429.566 178.208 429.502 178.443C419.289 214.402 412.538 228.568 392.176 256.856C377.647 277.047 372.263 285.529 365.939 298.199C354.871 320.42 351.41 335.867 351.389 363.258C351.367 388.769 347.692 403.042 337.266 418.297C334.873 421.779 334.574 422.014 334.403 420.519C333.933 416.78 334.894 397.593 336.347 381.953C338.377 360.011 338.419 359.135 338.441 350.225C338.441 342.234 338.27 339.2 337.18 329.18C336.027 318.668 335.941 317.108 336.069 312.087C336.432 298.99 340.342 288.969 353.269 268.073C365.469 248.374 367.37 244.272 368.289 235.661C369.08 228.29 363.866 226.666 362.627 233.888C361.003 243.289 359.849 245.725 348.504 264.014C330.685 292.772 327.972 302.836 330.877 329.5C332.693 346.315 332.629 352.191 330.343 376.398C327.416 407.336 327.266 425.39 329.916 428.467C333.569 432.761 339.039 428.723 346.368 416.352C355.064 401.674 357.948 389.09 358.332 364.433C358.696 341.059 360.063 331.765 365.191 317.578C371.558 300.037 379.592 286.256 400.21 257.604C418.178 232.627 425.956 215.962 434.844 183.507C438.497 170.111 441.253 153.403 440.164 151.116C439.373 149.471 437.258 149.001 435.933 150.176Z" fill="black"/>
<path d="M520.607 211.284C518.235 213.827 524.068 225.086 543.255 254.934C558.489 278.608 563.638 289.825 559.279 289.74C555.775 289.675 549.558 285.616 540.178 277.305C532.55 270.553 529.623 272.113 530.328 282.539C530.67 287.752 531.14 297.581 531.033 297.688C530.991 297.73 529.324 294.91 527.337 291.406C520.414 279.313 519.303 277.903 516.718 277.903C513.684 277.903 512.787 279.698 512.402 286.535C512.167 290.829 512.167 290.829 511.12 287.945C504.817 270.489 496.869 254.379 494.412 254.037C492.083 253.738 491.613 255.64 493.13 259.165C498.109 270.809 504.988 288.928 509.133 301.256C512.766 312.11 513.236 312.836 515.97 312.067C518.363 311.405 518.47 310.806 518.47 298.35C518.492 288.265 518.492 288.265 519.133 289.334C519.474 289.91 521.29 292.987 523.128 296.171C530.585 308.969 532.828 311.02 535.734 307.708C536.952 306.341 537.422 294.696 536.674 285.06C536.567 283.522 536.482 282.261 536.524 282.219C536.546 282.197 537.464 282.945 538.575 283.885C553.617 296.854 565.304 299.162 566.052 289.312C566.565 282.667 562.869 274.954 546.823 249.23C539.9 238.12 533.854 228.056 529.901 221.07C528.277 218.185 526.589 215.194 526.141 214.425C524.389 211.391 521.846 209.959 520.607 211.284Z" fill="black"/>
</svg>
