<svg width="304" height="283" viewBox="0 0 304 283" fill="none" xmlns="http://www.w3.org/2000/svg">
<path d="M209.457 0.217692C195.847 2.58931 196.659 22.6305 210.675 30.4077C212.021 31.1341 212.021 31.1341 211.081 31.3905C201.359 34.0185 194.715 32.3734 185.997 25.1944C174.374 15.6439 169.46 14.7465 157.538 20.0452C150.765 23.0365 147.838 23.4211 142.24 22.0323C134.634 20.1521 132.113 25.2158 139.035 28.4634C145.146 31.3264 150.829 30.835 160.444 26.6046C169.054 22.8014 171.575 23.3356 181.254 30.9419C194.074 41.0479 205.761 42.6504 217.298 35.8774C219.627 34.51 219.542 34.3818 221.871 42.9922C225.375 55.9613 229.691 60.2559 242.916 63.9949C249.796 65.9392 249.689 65.8323 249.433 70.5969C248.749 83.0319 250.202 88.8861 255.116 93.4157C259.902 97.8598 264.154 94.1849 260.628 88.6511C257.424 83.6515 256.825 81.1944 256.612 72.5199C256.377 62.0506 255.458 60.7473 245.416 56.7091C235.374 52.671 233.643 50.9617 229.797 41.2188C228.9 38.9327 227.746 36.262 227.255 35.2791C226.336 33.5271 226.336 33.5271 227.682 33.5271C237.169 33.5271 245.395 26.455 245.352 18.3573C245.309 8.91362 234.028 5.32415 225.695 12.0971C224.606 12.9945 224.606 12.9945 224.05 11.1998C221.764 3.87126 215.504 -0.850602 209.457 0.217692ZM212.747 7.88805C216.209 9.44776 217.833 13.5714 217.811 20.6435C217.811 25.9636 217.961 25.6004 215.931 24.7671C210.333 22.4382 206.936 18.1223 206.936 13.3364C206.936 8.91362 209.585 6.43517 212.747 7.88805ZM237.019 15.6652C240.48 17.1395 238.365 22.7801 233.494 25.0876C230.866 26.3268 224.135 27.0746 224.435 26.0918C224.499 25.8995 224.606 25.2585 224.691 24.703C225.353 19.917 233.323 14.0842 237.019 15.6652Z" fill="black"/>
<path d="M95.5761 9.76917C94.8283 10.5383 94.6146 10.9657 93.8882 13.2304C92.3285 18.166 87.9698 24.8749 83.4189 29.3617C81.1114 31.6265 80.7909 32.3956 81.4532 33.8272C82.5002 36.156 85.7478 35.3014 89.4654 31.7333C91.4525 29.8531 91.4525 29.8531 93.8668 30.2377C103.332 31.8188 113.16 29.9599 114.122 26.4346C114.912 23.4433 112.37 21.9905 108.481 23.2297C105.896 24.0629 96.153 25.1099 95.5547 24.6398C95.512 24.6185 95.8538 24.0202 96.3025 23.3365C101.174 16.1148 101.708 9.17092 97.4349 9.17092C96.3453 9.17092 96.1102 9.25639 95.5761 9.76917Z" fill="black"/>
<path d="M71.3688 24.3142C64.6599 26.4935 64.2753 35.4458 70.7705 38.3088C71.9029 38.8216 71.9029 38.8216 70.4073 38.7148C67.5015 38.5011 65.3436 40.0608 64.2539 43.2016C64.1471 43.5007 63.9762 43.4153 63.2284 42.6247C60.6645 39.8044 56.1135 39.954 53.336 42.9239C52.3531 43.9708 52.3531 43.9708 52.3531 43.3512C52.3531 39.6549 46.9262 40.0822 45.281 43.9281C43.6359 47.7739 47.4603 50.1669 49.9174 46.8338C50.5157 46.0219 51.4771 45.0818 51.7335 45.0605C51.819 45.0605 51.7335 45.4664 51.5626 45.9578C49.661 51.4489 54.9598 56.8758 60.0449 54.6537C63.9762 52.9231 63.0788 48.1799 58.9338 48.8422C57.9296 48.9918 57.7801 48.2226 58.6561 47.4107C59.1689 46.9193 59.2543 46.9193 60.5363 47.1543C62.0746 47.4534 63.0574 47.2611 63.6984 46.5347C64.083 46.086 64.1044 46.086 64.2326 46.4706C66.9033 54.3119 79.1887 53.6709 81.2184 45.5946C82.1799 41.7915 77.8854 38.4584 75.5779 41.2146C75.0437 41.8342 74.6378 43.3512 74.8941 43.7571C75.471 44.6972 72.9071 45.8937 71.497 45.3596C70.8133 45.1032 71.1124 44.4622 71.9884 44.3126C74.4027 43.9067 74.7873 40.6804 72.5866 39.2703C71.9884 38.8643 71.967 38.843 72.4371 38.9498C76.753 40.0395 80.8766 37.6679 80.3852 34.3775C80.1288 32.6469 77.9922 31.7709 75.642 32.4546C74.7446 32.711 73.5267 32.4119 72.9712 31.8136C72.0952 30.8521 74.0395 29.4847 75.7701 29.8479C79.4237 30.6385 80.3211 26.814 76.9239 24.8911C75.706 24.2073 72.6721 23.8869 71.3688 24.3142Z" fill="black"/>
<path d="M58.9765 31.789C55.1307 32.9641 53.4855 38.0706 56.4981 39.3739C57.951 40.0149 59.0192 39.6089 60.173 38.0065C60.579 37.4296 61.0917 36.9168 61.284 36.8527C61.4763 36.7886 62.0532 36.6391 62.5446 36.5109C64.3821 36.0408 65.1513 34.0538 63.9975 32.7077C63.2497 31.8104 60.5576 31.319 58.9765 31.789Z" fill="black"/>
<path d="M96.4099 37.436C95.5125 37.9488 95.1706 38.718 95.2561 40.1708C95.2775 40.4913 95.7262 41.2178 96.3458 41.9228C98.5678 44.4654 99.0379 48.9309 97.8841 56.708C96.9013 63.5024 97.35 66.0449 99.7429 67.2628C102.328 68.5447 104.294 67.5619 107.477 63.3528C109.058 61.2376 108.909 61.1308 109.358 64.6134C110.789 75.4673 118.908 74.6127 123.416 63.1178C123.737 62.2845 124.015 61.6008 124.057 61.5581C124.079 61.5154 125.019 62.135 126.151 62.9041C137.454 70.7241 142.817 57.2636 132.924 45.9396C126.92 39.0598 116.024 35.4062 116.024 40.2563C116.024 42.1151 117.049 43.3971 120.404 45.7687C126.536 50.0846 129.677 53.61 130.574 57.114C130.916 58.4814 130.873 58.4814 128.736 57.0072C124.549 54.1014 122.455 53.8664 120.105 56.0671C119.079 57.0285 118.716 57.6481 116.878 61.6863C116.366 62.776 115.917 63.6306 115.874 63.5879C115.853 63.5451 115.618 62.4127 115.383 61.0667C114.015 53.4177 110.276 51.3666 105.597 55.7038C104.7 56.5371 104.7 56.5371 104.7 52.2426C104.721 42.5211 100.576 35.1285 96.4099 37.436Z" fill="black"/>
<path d="M85.8342 39.0389C84.6163 39.7867 84.5949 41.6883 85.7914 43.3548C86.7529 44.6795 87.5434 46.2606 87.8426 47.4571C88.2699 49.2518 88.0135 49.38 85.1932 48.7818C79.574 47.628 78.5057 53.4395 83.954 55.5548C91.9662 58.6955 97.3504 50.021 92.1371 42.3506C90.0432 39.2526 87.5648 37.9493 85.8342 39.0389Z" fill="black"/>
<path d="M40.7308 49.8717C34.0219 52.4356 34.5988 61.9861 41.5214 62.9262C46.2646 63.5886 48.4866 57.9907 43.9571 56.7728C42.3333 56.3455 43.2947 54.5508 45.4313 54.0166C47.3543 53.5252 47.9525 51.6664 46.6064 50.3417C45.8159 49.5298 42.3546 49.252 40.7308 49.8717Z" fill="black"/>
<path d="M65.3012 51.5605C62.2673 52.6929 60.4939 58.0771 61.9254 61.9229C61.9895 62.1152 61.7758 61.9443 61.4554 61.5811C60.1734 60.0855 58.165 60.1496 56.6267 61.752C55.6011 62.8203 55.1951 62.9912 54.7465 62.5425C54.0414 61.8375 54.7465 61.0469 56.3062 60.7692C59.4897 60.2137 59.4683 56.3251 56.2848 55.8336C49.17 54.7653 45.0891 63.2476 50.6015 67.649C51.157 68.0977 51.7766 68.6318 52.0116 68.8455C52.2253 69.0591 52.5244 69.1873 52.6953 69.1232C52.8663 69.0591 52.9945 69.0805 52.9945 69.166C52.9945 69.3796 54.1055 69.5078 55.8789 69.5078C59.4256 69.5078 62.4382 66.5807 62.1391 63.4613C62.0322 62.393 62.0322 62.393 62.6091 63.2903C67.2028 70.5547 79.3386 63.4185 75.3645 55.8123C73.3134 51.8382 68.7839 53.3125 69.3394 57.7779C69.4889 58.9744 69.2325 59.8077 68.7198 59.8077C67.972 59.8077 67.972 57.6925 68.6984 56.3037C70.3649 53.1629 68.4206 50.4281 65.3012 51.5605Z" fill="black"/>
<path d="M82.116 56.9246C81.0477 57.6724 81.0691 58.933 82.116 60.7063C83.7826 63.5053 83.398 65.2145 81.2828 64.3172C75.5994 61.9028 72.5014 66.5178 77.031 70.6628C81.9238 75.1497 89.3163 71.9661 89.3163 65.3854C89.3163 60.5568 84.68 55.1298 82.116 56.9246Z" fill="black"/>
<path d="M40.346 64.5034C35.0045 67.3237 35.5814 76.4255 41.2006 78.1134C46.5207 79.6945 48.9137 75.3145 44.1063 72.8361C42.2261 71.8746 42.0766 70.8704 43.444 68.6697C45.3242 65.6144 43.3372 62.9223 40.346 64.5034Z" fill="black"/>
<path d="M70.2792 68.4134C69.51 69.0758 69.1254 69.7595 68.8263 71.0628C68.4631 72.5157 68.1212 72.4943 67.288 71.0201C65.1941 67.3238 61.4551 68.8407 62.3952 73.0285C64.0831 80.6347 74.3601 80.3997 75.1506 72.7293C75.5352 69.0971 72.544 66.4478 70.2792 68.4134Z" fill="black"/>
<path d="M49.8756 70.0402C48.6791 70.7666 47.739 73.4801 47.9313 75.5953C48.615 83.3084 59.0202 83.6503 60.4517 76.0013C61.3277 71.2794 56.499 69.6129 54.7043 74.0143C54.1701 75.3176 54.0847 75.3817 53.5505 74.7834C53.1873 74.3775 53.1446 73.9715 53.2087 72.0272C53.2728 70.0616 51.5421 69.036 49.8756 70.0402Z" fill="black"/>
<path d="M42.9956 80.5026C38.872 84.6476 45.4527 93.194 50.7301 90.566C54.1059 88.8567 53.529 85.0108 49.9395 85.31C48.1875 85.4382 47.8457 85.0749 47.4397 82.6392C46.991 79.9471 44.6622 78.8361 42.9956 80.5026Z" fill="black"/>
<path d="M64.638 80.6147C64.2534 81.042 63.8474 81.7684 63.6979 82.3239C63.2278 84.2255 60.6426 84.5246 58.3778 82.9008C55.6429 80.9565 53.2072 84.6742 55.6002 87.1312C58.9974 90.5925 66.4541 89.9515 68.3556 86.0202C70.2358 82.1316 67.266 77.8157 64.638 80.6147Z" fill="black"/>
<path d="M275.947 103.588C260.158 106.387 261.248 117.775 277.678 121.343C293.788 124.826 306.629 120.788 303.103 113.331C300.646 108.139 292.997 108.567 295.177 113.78C295.583 114.741 295.668 114.656 294.001 114.934C287.164 116.087 276.909 114.827 272.785 112.306C270.563 110.96 278.725 109.058 286.203 109.208C290.113 109.272 290.113 109.272 290.668 108.759C294.621 105.063 285.562 101.9 275.947 103.588Z" fill="black"/>
<path d="M9.40799 107.494C2.54954 109.909 -0.975834 117.579 1.48124 124.758C3.08368 129.458 4.08788 130.975 17.0356 148.111C18.7876 150.44 20.6892 153.089 21.2447 154.029C22.7189 156.529 23.6377 157.191 25.2828 156.935C30.1329 156.166 27.4835 149.094 16.8219 134.202C7.80555 121.617 6.75862 118.519 10.3695 114.994C14.1298 111.34 16.6083 113.925 27.3126 132.642C36.8845 149.414 38.5511 150.952 45.3027 149.414C47.1615 148.987 47.5034 149.158 49.5118 151.38C57.0753 159.819 74.403 188.727 77.907 198.791C79.9581 204.709 77.0737 209.922 69.1897 214.516C61.7117 218.875 58.1436 217.144 45.7514 203.064C26.8212 181.57 20.2832 170.054 23.0822 163.11C25.4751 157.127 19.7704 155.226 17.057 161.08C12.8265 170.224 19.4286 182.553 42.6319 208.833C55.5583 223.468 61.2203 226.011 70.664 221.439C80.3214 216.738 86.1542 207.679 84.5091 199.859C82.7571 191.548 73.4629 173.301 64.2542 160.161C53.1012 144.201 50.4732 141.957 44.2557 142.919C41.6705 143.325 41.7559 143.432 35.4744 132.856C25.5606 116.19 24.1291 114.032 20.9028 110.849C17.4202 107.43 13.147 106.17 9.40799 107.494Z" fill="black"/>
<path d="M264.239 119.416C261.952 121.425 261.675 135.911 263.79 142.428C265.649 148.154 270.05 151.957 276.844 153.709C276.866 153.709 276.78 154.179 276.695 154.777C276.268 157.17 275.349 178.151 275.328 185.587C275.306 190.138 275.306 190.138 274.665 190.138C271.994 190.138 264.858 191.355 263.939 191.954C261.589 193.492 262.508 196.975 265.371 197.487C268.747 198.064 281.481 198.769 285.348 198.577C297.228 198 296.715 190.885 284.75 190.009C282.72 189.86 282.656 189.838 282.763 189.39C283.959 184.604 283.981 170.46 282.827 157.533C282.571 154.734 282.571 154.734 285.028 154.606C296.501 154.029 302.12 147.577 302.12 134.949C302.12 130.42 301.437 128.775 299.45 128.476C296.587 128.048 295.881 129.309 295.39 135.59C294.621 145.632 291.16 148.73 281.951 147.619C271.289 146.337 269.003 142.769 269.003 127.279C269.003 121.809 268.854 120.292 268.298 119.737C267.059 118.54 265.371 118.412 264.239 119.416Z" fill="black"/>
<path d="M276.824 126.807C272.828 128.089 271.311 131.721 272.401 137.468C274.602 149.177 294.621 147.296 293.724 135.481C293.254 129.349 283.874 124.542 276.824 126.807Z" fill="black"/>
<path d="M54.5332 166.999C54.1273 167.192 53.0803 168.26 52.1402 169.392C48.038 174.456 42.4188 178.772 36.7782 181.165C32.9323 182.81 32.5264 183.173 32.7827 184.947C33.8083 192.532 57.7381 178.964 58.8491 170.162C59.2123 167.32 57.0544 165.739 54.5332 166.999Z" fill="black"/>
<path d="M61.7763 186.85C61.3704 187.021 60.067 188.003 58.8919 189.029C54.576 192.789 51.2216 195.182 47.9739 196.828C45.1323 198.259 44.5768 200.246 46.6065 201.699C49.7046 203.9 63.0369 196.785 65.8145 191.422C67.4383 188.281 64.9385 185.461 61.7763 186.85Z" fill="black"/>
<path d="M100.747 189.906C97.713 190.654 96.3028 192.897 97.1147 195.653C99.1445 202.448 123.95 211.913 132.668 209.199C135.915 208.195 137.261 204.883 135.595 202.02C133.629 198.645 124.89 194.136 122.113 195.055C119.079 196.059 120.361 199.136 124.848 201.657C125.531 202.042 126.065 202.405 126.023 202.426C125.617 202.832 116.13 200.076 112.114 198.388C109.806 197.427 107.499 196.252 108.225 196.423C112.434 197.384 114.763 197.662 115.639 197.32C117.626 196.551 118.096 194.329 116.579 193.004C114.186 190.932 104.4 189.03 100.747 189.906Z" fill="black"/>
<path d="M94.1235 198.188C91.6023 200.666 90.299 209.084 91.6023 214.276C93.2902 220.985 97.7343 226.263 104.379 229.467C105.447 229.98 106.345 230.429 106.388 230.45C106.43 230.493 106.281 231.689 106.024 233.121C102.029 255.683 101.238 269.251 103.845 270.49C107.819 272.37 108.545 270.255 110.362 251.453C112.498 229.446 111.921 232.01 114.677 232.01C122.989 232.01 130.809 226.391 133.031 218.849C135.018 212.097 129.185 208.636 127.006 215.28C126.023 218.272 125.702 218.571 124.933 217.225C121.557 211.264 116.066 209.02 111.964 211.926C111.259 212.417 111.109 212.46 111.109 212.076C111.109 211.541 109.186 209.02 108.182 208.272C105.148 205.965 100.982 206.157 98.2044 208.721C97.0292 209.811 96.7729 206.798 97.6702 202.162C98.418 198.359 96.3242 196.03 94.1235 198.188ZM104.593 213.272C105.853 214.533 106.708 220.301 105.853 221.797C105.512 222.417 102.221 219.853 100.555 217.652C99.7213 216.541 101.003 213.806 102.798 212.93C103.76 212.46 103.781 212.46 104.593 213.272ZM116.857 218.272C117.562 219.126 119.656 223.229 119.656 223.763C119.656 224.596 113.908 225.429 112.84 224.767C112.498 224.553 113.524 221.412 114.677 219.084C115.639 217.161 115.874 217.075 116.857 218.272Z" fill="black"/>
<path d="M270.37 210.649C268.704 211.311 268.234 212.828 268.063 217.806C267.7 229.045 264.794 232.741 257.871 230.711C249.133 228.126 244.881 230.69 238.792 242.227C234.305 250.752 231.036 253.893 225.267 255.175C221.443 256.03 221.165 255.773 223.088 253.209C231.057 242.676 233.771 233.275 230.63 227.079C225.673 217.251 214.093 220.626 209.948 233.083C209.285 235.113 209.05 236.224 208.58 239.984C208.431 241.202 208.431 241.202 207.277 240.433C199.051 234.877 188.603 236.394 185.227 243.638C180.826 253.103 191.659 261.82 207.811 261.82C212.618 261.82 212.661 261.863 209.777 264.619C202.683 271.456 194.949 271.776 186.167 265.623C177.878 259.811 174.865 259.641 167.622 264.597C160.614 269.362 156.725 269.853 152.901 266.456C147.431 261.606 143.158 267.909 148.264 273.315C152.986 278.314 160.934 277.93 170.357 272.225C175.485 269.127 175.506 269.127 178.625 271.306C186.21 276.605 189.201 278.015 194.094 278.613C204.884 279.938 217.34 271.691 218.665 262.333C218.815 261.328 218.815 261.328 220.032 261.67C230.267 264.533 239.774 258.722 246.911 245.261C251.056 237.42 251.526 237.1 256.611 238.446C264.174 240.454 269.858 238.253 273.554 231.929C279.088 222.421 276.93 207.999 270.37 210.649ZM223.558 229.408C226.335 232.463 223.921 240.796 218.088 248.359C216.251 250.731 215.738 249.791 215.759 244.193C215.802 235.647 220.737 226.288 223.558 229.408ZM199.799 245.176C203.068 246.159 207.341 249.428 209.798 252.868C211.593 255.325 198.88 253.936 194.586 251.18C189.415 247.868 193.411 243.296 199.799 245.176Z" fill="black"/>
<path d="M92.4573 262.162C84.1246 263.273 81.1975 269.875 86.774 275.046C93.9102 281.648 114.891 284.425 123.609 279.917C131.984 275.558 128.843 265.11 118.353 262.482C111.131 260.688 108.161 266.008 114.87 268.743C119.955 270.815 122.156 272.567 120.724 273.443C116.494 276.007 100.234 274.234 93.4401 270.473C92.2009 269.768 91.5172 269.191 91.9445 269.191C91.9659 269.191 92.5427 268.999 93.1837 268.785C93.8461 268.55 95.4058 268.251 96.6877 268.123C99.9781 267.781 100.854 267.162 100.854 265.132C100.854 262.888 97.0937 261.542 92.4573 262.162Z" fill="black"/>
</svg>
