<svg width="461" height="94" viewBox="0 0 461 94" fill="none" xmlns="http://www.w3.org/2000/svg">
<path d="M239.299 0.61365C235.218 1.31872 228.445 5.44234 224.3 9.77962C223.445 10.6556 223.445 10.6556 221.886 9.07454C213.019 0.0154057 200.734 0.912773 195.862 10.9761C189.217 24.6503 196.396 55.6308 207.934 63.173C216.331 68.664 226.138 61.7415 236.692 42.8967C250.815 17.6423 251.99 -1.5443 239.299 0.61365ZM241.799 7.23708C246.051 15.4416 223.873 56.9982 214.579 58.2374C205.284 59.4767 195.413 25.975 201.353 13.4332C205.498 4.73727 218.36 9.03181 221.181 20.0566C221.95 23.0478 222.805 24.1161 224.471 24.1161C226.608 24.1161 227.655 20.7617 226.65 17.1295C225.86 14.2665 240.495 4.69453 241.799 7.23708Z" fill="black"/>
<path d="M444.347 24.5208C441.676 25.7173 442.424 27.6616 448.064 34.05C451.077 37.4685 451.077 37.4685 449.838 37.5326C448.449 37.6181 437.125 37.2762 426.399 36.8275C422.404 36.6566 417.832 36.4643 416.25 36.4002C407.448 36.037 399.371 35.8661 389.714 35.8661C378.903 35.8661 378.903 35.8661 378.476 35.1396C377.3 33.1312 365.143 26.6787 362.558 26.6787C360.934 26.6787 359.93 28.794 360.827 30.2682C361.02 30.5887 362.836 31.9347 364.887 33.2808C366.938 34.6055 368.605 35.7379 368.562 35.7592C368.455 35.8447 362.665 36.0584 356.212 36.2079C352.986 36.2934 348.606 36.4002 346.491 36.4857C342.645 36.6352 342.645 36.6352 339.761 34.05C331.278 26.4864 330.167 25.8882 328.608 27.982C327.39 29.6059 327.86 30.5673 331.449 34.0286C334.911 37.3403 335.381 36.9557 327.262 37.3617C324.804 37.4899 320.873 37.7463 318.523 37.9172C316.194 38.0667 314.015 38.2163 313.694 38.2163C313.16 38.2163 313.053 38.024 311.771 34.9473C309.101 28.4735 308.395 27.5334 306.195 27.5334C303.503 27.5334 303.417 29.8195 305.874 36.6566C308.182 43.045 308.182 42.404 305.618 46.3781C301.387 52.9588 301.067 55.95 304.635 55.95C306.814 55.95 313.117 47.9164 313.694 44.4124C313.801 43.6646 313.801 43.6646 317.433 43.5364C328.522 43.1091 336.598 42.8741 336.684 42.9809C336.748 43.0236 335.68 44.2842 334.312 45.7585C328.458 52.0828 327.539 54.3048 330.103 56.1209C332.283 57.6806 333.714 56.8046 338.286 51.1427C339.034 50.2026 340.637 48.301 341.854 46.8909C343.072 45.5021 344.29 44.0065 344.568 43.5578C345.188 42.5963 345.358 42.5749 358.862 42.3613C367.579 42.2117 367.579 42.2117 365.293 44.5406C360.379 49.5402 359.716 51.9118 362.772 53.4716C364.994 54.6039 366.724 53.3861 373.818 45.7157C377.578 41.6562 382.407 41.4212 423.515 43.3655C428.75 43.6219 436.74 43.8783 441.313 43.9637C449.581 44.0919 449.581 44.0919 447.829 45.1602C441.462 49.0274 439.817 52.0187 442.894 54.1339C444.924 55.5013 446.889 54.5826 454.709 48.6642C463.405 42.1049 463.213 39.8401 453.107 29.7768C448.171 24.8413 446.227 23.6875 444.347 24.5208Z" fill="black"/>
<path d="M257.695 30.3959C244.299 34.0067 250.473 73.2559 264.447 73.2559C274.809 73.2559 289.893 45.8862 284.531 36.827C281.881 32.3188 275.279 31.5924 269.233 35.1391C267.502 36.1433 267.331 36.2074 267.331 35.8442C267.331 35.4382 265.686 33.1948 264.767 32.3615C262.802 30.5882 259.917 29.7976 257.695 30.3959ZM260.879 36.8057C262.331 38.1303 263.272 40.5233 263.784 44.1555C264.639 50.2234 268.912 50.0311 269.254 43.8991C269.382 41.2925 272.309 39.3055 276.625 38.9209C282.373 38.4081 279.616 49.5611 271.262 60.65C264.874 69.1109 262.011 68.4272 258.4 57.5519C254.704 46.4203 256.328 32.7034 260.879 36.8057Z" fill="black"/>
<path d="M104.544 32.8329C103.455 33.3457 96.7029 41.8707 94.8227 45.0969C94.2245 46.1225 94.2245 46.1225 85.0372 46.1225C75.8498 46.1225 75.8498 46.1225 79.2043 42.6612C82.9433 38.8367 83.7979 37.683 83.7979 36.4865C83.7979 34.7772 81.875 33.6875 80.1444 34.4354C78.606 35.0763 67.9872 43.7722 66.9403 45.2465C66.3206 46.1011 60.4878 46.1225 29.7422 45.2679C9.74378 44.7337 11.7522 44.9901 13.5469 43.1526C17.4996 39.1145 18.5038 37.3197 17.6492 35.8669C16.645 34.179 15.128 34.3926 12.2863 36.636C-3.03302 48.7505 -3.07575 49.4556 10.6625 61.2709C14.3374 64.4331 17.5637 64.1767 17.5637 60.7154C17.5637 58.942 16.4099 57.2755 12.5854 53.5365C10.4489 51.464 10.4489 51.464 11.1753 51.464C11.5812 51.464 14.8289 51.5494 18.4183 51.6776C28.5885 51.9981 46.664 52.3186 56.9624 52.34C66.3206 52.34 66.3206 52.34 68.1581 54.2629C74.6747 61.1213 84.0971 66.2492 85.5713 63.7493C86.5969 62.0187 85.5927 59.818 82.8365 57.7028C80.358 55.8226 76.1062 52.4468 76.1703 52.4041C77.089 51.699 94.5236 52.2331 95.1218 53.0023C95.5278 53.5151 96.6816 54.8825 97.6858 56.0576C98.69 57.2328 100.378 59.2411 101.425 60.5231C103.989 63.6639 105.762 64.4331 107.258 63.0443C109.01 61.3991 108.241 59.113 104.138 53.8997C102.45 51.7417 102.45 51.7417 105.356 51.5922C109.266 51.3999 114.501 51.058 115.441 50.9298C116.167 50.8444 116.253 50.8871 116.509 51.5067C117.278 53.3655 126.743 61.2709 130.44 63.1511C133.153 64.5185 135.418 63.4716 135.183 60.9931C135.033 59.3907 134.286 58.6215 128.346 54.0279C124.927 51.3785 122.043 48.7505 122.043 48.2591C122.043 48.1309 123.603 46.4002 125.526 44.456C131.743 38.0889 132.726 36.8497 132.726 35.3968C132.726 33.6448 130.333 32.4483 128.837 33.4525C126.038 35.3327 117.983 42.768 116.808 44.5414C116.018 45.7379 112.856 46.0798 104.672 45.8661C101.938 45.802 101.938 45.802 102.835 44.4132C107.706 36.8924 108.646 34.6704 107.471 33.4098C106.788 32.6833 105.399 32.4056 104.544 32.8329Z" fill="black"/>
<path d="M180.649 40.2242C177.85 41.5702 174.859 44.946 172.573 49.3901C171.334 51.8045 171.483 51.719 170.607 50.4371C166.484 44.3691 159.753 42.4035 155.993 46.1639C144.284 57.8724 165.009 99.0017 179.303 92.4424C189.302 87.8701 196.374 55.629 190.029 43.4931C188.106 39.7968 184.324 38.4722 180.649 40.2242ZM184.901 46.228C189.516 54.7316 182.999 85.3703 176.226 87.0582C170.714 88.4256 158.963 68.9826 158.45 57.6587C157.916 46.0998 164.027 48.2364 169.667 61.5687C172.936 69.3245 177.808 67.0811 175.115 59.0689C174.239 56.4195 178.342 48.7919 182.166 45.9716C183.747 44.7965 184.153 44.8392 184.901 46.228Z" fill="black"/>
</svg>
