<svg width="97" height="96" viewBox="0 0 97 96" fill="none" xmlns="http://www.w3.org/2000/svg">
<path d="M53.7875 0.817871C53.2106 0.924701 52.4842 1.09563 52.1637 1.20246C51.7791 1.35202 51.1168 1.30929 50.0912 1.11699C42.955 -0.271789 31.5243 2.82626 29.815 6.58666C29.409 7.48403 29.409 7.48403 29.9005 7.88998C30.4132 8.3173 31.332 8.44549 31.4602 8.10364C31.5884 7.76179 34.5155 6.4371 36.6307 5.75339C41.0107 4.34324 47.4632 3.6809 46.7154 4.70646C43.7242 8.76598 45.2412 12.7828 49.7494 12.7828C53.638 12.7828 57.612 7.78315 56.0737 4.83466C54.8344 2.44168 61.757 4.92012 69.7906 9.72745C72.1408 11.159 75.0893 12.8255 76.3285 13.4451C78.5933 14.5561 78.5933 14.5561 78.9352 15.8381C79.683 18.5088 81.0718 20.5386 85.6868 25.7091C90.6437 31.2643 93.7204 36.6057 91.2206 35.3238C90.2164 34.7896 88.3575 34.5546 87.2038 34.811C84.2766 35.4306 82.6956 39.0201 84.4689 41.0071C86.456 43.2292 90.1523 43.6778 92.417 41.9472C93.9768 40.7507 94.0195 43.9556 92.5025 47.7587C91.1351 51.22 92.6734 52.3097 94.5323 49.1902C96.6902 45.5367 97.0534 42.1181 95.5792 39.191C95.1305 38.2936 95.045 37.8236 95.0023 35.8793C94.9382 31.8411 93.8486 29.9396 87.5243 22.9102C85.2808 20.4318 83.9134 18.6157 83.2083 17.2269C82.5674 15.9663 82.5674 15.9022 83.2511 16.0731C89.2122 17.5687 92.3743 11.9281 87.0969 9.17193C84.063 7.59086 80.9863 8.40276 79.3625 11.1803C79.0847 11.6931 77.4396 10.8385 71.4785 7.12081C62.9108 1.77934 58.0607 0.0486992 53.7875 0.817871ZM52.5483 5.64656C53.4457 6.80032 52.9115 7.88998 50.9886 8.83008C47.7623 10.4112 47.6555 7.71905 50.839 5.68929C52.0141 4.96285 52.0141 4.96285 52.5483 5.64656ZM86.1568 12.2914C86.7551 12.8255 86.4132 12.9964 84.7681 12.9751C82.7169 12.9537 82.076 12.7828 82.5674 12.3768C83.4006 11.6931 85.4304 11.629 86.1568 12.2914ZM90.836 38.1227C91.6051 38.5073 91.5624 38.8064 90.6009 39.3619C89.1481 40.2166 86.9687 39.7465 86.9687 38.5928C86.9687 37.8022 89.5967 37.4817 90.836 38.1227Z" fill="black"/>
<path d="M23.3412 5.58072C23.213 5.73028 22.9138 6.75584 22.6574 7.86687C22.4224 8.97789 22.1447 9.91799 22.0378 9.96072C21.461 10.153 19.6021 11.5632 18.3629 12.7169C16.9528 14.063 16.9528 14.063 16.8246 12.2896C16.675 10.4094 16.4186 10.0035 15.4571 10.0035C14.7307 10.0035 14.517 10.7299 14.2607 14.2553C14.047 17.332 14.047 17.332 12.8932 18.9558C12.2309 19.8531 11.5045 20.9428 11.2481 21.3701C10.6712 22.3957 10.543 22.3743 10.3721 21.3274C10.137 19.96 8.64142 19.2763 8.10728 20.3018C7.78679 20.8787 7.80815 23.0366 8.15001 25.0878C8.38503 26.5834 8.38503 26.6688 7.70132 28.2927C7.3381 29.2328 6.69713 31.2198 6.31254 32.7581C5.69293 35.1297 5.522 35.5143 5.20152 35.4502C1.61205 34.7238 -0.802298 37.5227 0.757411 40.578C4.17595 47.2015 6.91079 48.5262 9.38923 44.8085C13.2778 39.0183 13.4701 35.0229 9.90201 34.2537C9.04738 34.0828 9.04738 34.1683 9.92338 31.8394C11.3549 28.1004 11.5258 27.8653 13.0642 27.5448C16.0981 26.9252 16.9314 25.216 14.4102 24.8314C13.2565 24.6605 13.2351 24.7246 14.9444 22.2461C17.1237 19.0412 16.7605 19.2976 18.833 19.5754C21.3969 19.9386 22.3156 19.8959 22.7215 19.4472C23.5762 18.5071 22.8711 17.8234 20.4781 17.2679C18.9825 16.926 18.9825 16.926 21.29 14.7253C22.7856 13.2938 23.7044 12.5674 23.918 12.6528C24.1103 12.6956 25.1145 13.0588 26.1401 13.422C29.9646 14.7894 30.5201 12.7169 26.8665 10.7726C25.2214 9.89663 25.2214 9.89663 25.2214 7.93097C25.2214 5.64482 24.2599 4.44833 23.3412 5.58072Z" fill="black"/>
<path d="M3.83398 49.8276C2.21018 53.2889 3.40667 57.6689 6.93204 61.1943C8.72677 62.989 9.98736 63.865 14.0896 66.1939C18.7901 68.8646 20.2003 70.9371 19.5379 74.2702C19.4097 74.9112 19.4097 74.9112 18.3842 74.2916C15.6707 72.625 12.5299 72.6036 11.0984 74.2275C6.80384 79.1202 14.1751 84.8463 19.132 80.4877C19.8798 79.8253 19.8798 79.8253 20.3712 80.4236C24.8794 86.2351 32.2933 90.7006 38.7245 91.5338C39.4936 91.6407 40.0705 91.8543 40.4978 92.2389C46.0102 97.0249 60.1972 96.3625 62.8252 91.192C63.7867 89.3331 62.2697 89.0554 58.8511 90.4655C54.0652 92.4312 49.1724 92.8799 45.3906 91.6834C44.0446 91.2774 44.0232 91.2347 44.9419 90.6578C48.5955 88.3503 46.6085 83.3293 41.7798 82.7524C39.5364 82.4747 37.5066 84.5472 37.528 87.0684C37.5494 88.4144 37.6989 88.393 34.8786 87.4529C30.5413 86.0001 27.1655 83.7353 24.1957 80.2954C21.5036 77.1546 21.5036 77.1759 22.0591 75.8085C23.9179 71.0439 22.0805 67.6681 15.6066 63.9718C7.76531 59.485 5.11594 55.8314 5.99194 50.6609C6.46199 47.9901 4.96638 47.4133 3.83398 49.8276ZM15.7989 76.2358C17.5722 76.7486 18.0637 77.4964 17.0808 78.2229C15.2434 79.5689 13.2777 79.163 12.9145 77.3469C12.7008 76.2999 14.1323 75.7444 15.7989 76.2358ZM43.0618 86.5983C43.7882 87.3034 43.7241 87.7307 42.8481 88.1153C41.5234 88.6494 41.1175 88.5426 40.8611 87.517C40.4765 86.0214 41.908 85.4232 43.0618 86.5983Z" fill="black"/>
<path d="M91.0494 54.1682C87.7163 54.7878 83.144 60.9839 83.785 64.0178C84.02 65.193 85.6652 66.4108 86.9899 66.4108C87.7163 66.4108 84.5969 71.5386 82.2894 74.1453C81.1997 75.3418 81.1997 75.3418 80.1314 74.9358C78.5931 74.3589 75.6873 74.3589 75.0677 74.9572C73.7858 76.1323 74.79 77.4997 76.9693 77.5425C78.6786 77.5638 78.6358 77.7775 76.542 79.4013C74.5763 80.9183 74.5763 80.9183 73.6362 80.4909C71.115 79.3799 68.893 79.2517 68.4016 80.1705C67.9742 80.961 68.2093 81.2815 69.8544 82.0507C71.7133 82.9267 71.756 82.7557 69.3203 84.1872C67.2692 85.3837 67.2692 85.3837 66.1795 84.7428C63.8934 83.3967 62.4405 83.1403 61.9704 84.0163C61.5645 84.8069 61.885 85.341 63.2524 86.1743C64.9189 87.1785 64.983 87.328 64.5343 89.0159C64.0002 91.0884 64.6625 92.3276 66.094 91.9644C66.5855 91.8576 67.6965 89.8492 68.0383 88.4177C68.1452 87.969 71.0723 86.1102 72.6747 85.4692C72.7602 85.4265 72.8029 86.0461 72.8029 86.8366C72.7602 88.4177 73.3584 89.2723 74.3199 88.9732C75.0464 88.7382 76.2856 85.3624 76.2856 83.5463C76.2856 83.1403 76.4992 82.8412 76.9906 82.4993C77.3539 82.2643 78.0803 81.7515 78.5717 81.3669C79.4691 80.7046 79.4691 80.7046 79.4477 81.6447C79.3623 85.9179 82.6526 83.995 82.8663 79.6363C82.9731 77.6066 82.9731 77.6066 84.3405 76.0041C86.1139 73.9957 87.9086 71.4104 88.9769 69.3807C89.8102 67.7996 89.8102 67.7996 90.9853 68.3765C92.5023 69.1457 93.7415 69.167 94.6175 68.4406C98.3993 65.2571 95.408 53.3776 91.0494 54.1682Z" fill="black"/>
</svg>
