<svg width="502" height="219" viewBox="0 0 502 219" fill="none" xmlns="http://www.w3.org/2000/svg">
<path d="M450.441 1.13843C444.95 3.12545 442.685 14.1716 446.168 21.8633C447.834 25.5169 453.56 31.5421 455.376 31.5421C455.74 31.5421 455.569 31.9267 454.757 32.9095C453.838 34.0205 452.129 36.8195 449.693 41.2636C447.172 45.8359 446.082 47.2033 440.89 52.4379C432.985 60.3647 430.314 64.8301 430.272 70.2143C430.229 75.0003 434.566 75.684 436.233 71.1544C438.241 65.6634 439.373 64.0182 445.634 57.5016C451.424 51.4765 452.492 49.9808 456.338 42.3746C458.389 38.3364 458.859 37.5245 459.158 37.6527C459.799 37.9305 462.085 37.9946 462.919 37.7809C466.401 36.8195 467.79 48.5921 465.91 63.1636C464.521 73.8893 465.183 79.423 468.239 82.4784C472.32 86.5379 476.871 83.1834 473.302 78.718C471.615 76.6027 471.23 71.9877 472.085 64.1251C473.623 50.1518 472.405 40.1953 468.602 35.3879C467.94 34.5547 467.94 34.5547 468.752 34.4265C488.451 31.3712 503.471 16.7569 498.044 5.90302C493.237 -3.733 476.379 2.63404 465.653 18.167C464.35 20.0259 464.329 20.0472 464.329 19.3208C464.329 8.93698 456.658 -1.12636 450.441 1.13843ZM453.56 7.97551C455.654 10.2403 457.684 16.1586 458.325 21.8206C458.795 26.0511 458.816 26.457 458.517 26.2861C452.855 22.953 450.27 18.7866 450.505 13.2956C450.676 8.65922 452.043 6.30897 453.56 7.97551ZM491.784 7.91141C494.668 9.12927 493.237 14.1289 488.686 18.7439C483.964 23.5299 477.341 26.6066 468.709 28.0381C466.038 28.4654 466.059 28.4868 466.893 27.0766C473.815 15.3254 486.378 5.66799 491.784 7.91141Z" fill="black"/>
<path d="M49.8947 3.23341C43.3567 4.66492 37.0111 13.8736 37.0111 21.9499C37.0111 22.9114 36.6906 22.8473 35.7718 21.6508C27.0759 10.1987 15.4101 9.77137 13.1667 20.8603C10.9233 32.0773 20.6021 43.6577 33.5711 45.2387C34.7676 45.3883 35.7077 45.5592 35.6864 45.6233C31.3918 54.1483 30.6654 58.336 31.755 68.1216C32.5029 74.8305 32.1183 77.4158 29.127 86.2612C25.5589 96.7732 25.5376 100.555 28.9988 100.555C31.1354 100.555 31.7123 99.679 34.0198 92.7565C38.6135 79.125 39.0622 76.1124 37.9725 66.4764C36.9256 57.2891 39.3827 47.3112 42.7798 46.8839C44.2327 46.713 44.19 46.6489 44.7028 48.9778C45.8993 54.5115 45.6856 61.9896 43.955 74.5955C42.1816 87.5432 42.0961 93.547 43.6345 99.6363C45.9206 108.717 53.8474 116.494 55.4071 111.174C55.7917 109.892 55.4498 109.016 53.5269 106.367C48.0359 98.7603 47.5017 93.9316 50.0443 75.4501C52.4372 58.1437 51.8604 48.1018 48.1427 42.8885C47.5017 41.9911 47.459 42.0339 50.4288 39.0854C65.3422 24.2574 64.979 -0.0355751 49.8947 3.23341ZM53.2491 9.64317C58.1419 12.1643 54.3174 26.394 46.5189 34.7054C44.1473 37.2052 44.0618 37.1197 43.2072 31.2227C41.4765 19.6638 47.5231 6.69468 53.2491 9.64317ZM23.7642 19.7706C27.8878 21.3517 32.9515 27.5051 37.3529 36.3505C39.0195 39.6836 39.0195 39.6622 35.195 39.2777C26.0504 38.3162 19.4697 32.0133 19.4056 24.172C19.3842 19.8988 20.6662 18.5955 23.7642 19.7706Z" fill="black"/>
<path d="M431.96 19.5775C431.49 19.6629 430.08 20.1971 428.862 20.7526C413.671 27.5256 382.327 37.4607 363.91 41.3493C321.947 50.1948 253.256 49.3188 181.872 38.9991C130.21 31.5424 85.0421 23.8293 73.7609 20.5389C69.3809 19.257 67.223 20.2185 68.2485 22.996C69.1673 25.4531 79.1451 28.3161 101.75 32.5893C117.476 35.5592 153.52 41.4989 179.736 45.4088C253.598 56.455 324.661 57.3524 367.862 47.7805C389.549 42.9945 427.003 30.0681 433.819 25.0258C437.494 22.3123 436.276 18.7015 431.96 19.5775Z" fill="black"/>
<path d="M69.338 35.0676C67.5005 35.8582 67.9706 38.2298 70.1285 39.1058C72.4574 40.0459 92.0072 44.5754 99.6135 45.9642C106.707 47.2462 109.655 46.7975 109.378 44.4472C109.143 42.3748 108.737 42.2466 91.6226 38.8067C83.5036 37.1828 75.6623 35.6018 74.2094 35.3026C71.2396 34.683 70.3208 34.6403 69.338 35.0676Z" fill="black"/>
<path d="M432.109 35.0449C424.439 36.4977 408.906 43.8476 407.838 46.5183C406.577 49.6378 409.269 50.3428 413.393 47.9712C422.58 42.6725 435.378 38.3993 436.083 40.3863C437.28 43.6767 441.168 41.6469 440.399 38.1216C439.78 35.2158 436.895 34.1475 432.109 35.0449Z" fill="black"/>
<path d="M62.2236 53.3554C55.8138 56.2612 58.1213 67.4569 67.095 76.8793C70.1717 80.1055 72.3937 81.1952 73.5475 80.0414C74.5944 78.9945 73.6116 76.9434 69.7444 72.1574C65.7276 67.1792 63.5055 62.6496 63.5055 59.3806C63.5055 57.9277 63.5696 57.7995 65.1721 56.603C67.5437 54.8083 65.0652 52.0735 62.2236 53.3554Z" fill="black"/>
<path d="M165.506 53.8492C164.737 54.191 164.246 55.2166 164.459 56.0498C165.442 59.9598 187.385 66.8824 190.141 64.1262C192 62.2673 189.97 60.964 181.979 58.8915C176.595 57.5027 173.134 56.349 169.908 54.8106C167.087 53.4859 166.596 53.3791 165.506 53.8492Z" fill="black"/>
<path d="M352.479 56.2634C349.659 56.4557 345.856 57.1394 338.912 58.6778C319.405 63.0151 313.081 63.8911 301.522 63.9124C293.36 63.9124 292.505 63.8483 278.34 62.31C254.111 59.6606 246.013 59.8743 246.099 63.186C246.163 65.173 246.953 65.4294 253.662 65.6003C259.837 65.7713 266.247 66.3054 276.951 67.5446C291.266 69.1898 292.014 69.2325 301.308 69.2539C311.478 69.2539 316.371 68.8052 325.986 66.9891C344.125 63.5919 355.812 60.0025 355.962 57.8018C356.069 56.1566 355.812 56.0284 352.479 56.2634Z" fill="black"/>
<path d="M449.992 66.7716C447.898 68.139 447.321 68.8441 439.117 80.3603C412.367 117.879 397.432 131.233 363.161 148.197C332.608 163.324 308.529 170.012 275.454 172.597C270.668 172.981 247.807 172.981 242.978 172.597C189.692 168.495 139.054 151.594 106.023 126.938C90.4684 115.336 68.8675 94.4405 60.6202 83.0738C59.0819 80.9372 56.2402 81.4927 56.2402 83.9071C56.2402 90.1032 82.1143 117.516 102.412 132.814C135.08 157.448 186.316 175.738 234.645 180.011C285.176 184.476 328.399 175.246 374.165 150.184C405.765 132.856 422.772 116.725 445.933 81.9841C452.15 72.6686 453.176 70.7884 453.389 68.3741C453.56 66.2375 451.979 65.4897 449.992 66.7716Z" fill="black"/>
<path d="M476.315 66.9029C475.354 67.7148 475.268 68.8472 475.952 70.9197C477.896 76.7098 483.75 90.6831 488.194 100.127C498.685 122.433 498.578 128.009 487.468 137.346C481.721 142.175 483.943 146.961 490.075 142.923C502.403 134.804 504.732 122.988 497.275 106.216C496.826 105.148 494.967 101.217 493.173 97.4561C489.177 89.0593 487.618 85.5553 483.9 76.4321C479.605 65.9414 478.751 64.8731 476.315 66.9029Z" fill="black"/>
<path d="M18.2732 82.778C17.7391 83.2694 17.5468 83.7609 17.0554 85.9188C16.7135 87.329 15.4743 92.7132 14.2565 97.8837C7.7185 125.702 4.19312 145.124 0.924143 171.169C-1.02015 186.659 0.283166 193.047 5.96649 195.932C12.5686 199.265 28.6998 196.808 29.939 192.278C30.6868 189.565 27.8879 188.731 22.5251 190.056C5.98786 194.18 4.00083 191.295 7.22708 167.857C9.72689 149.568 12.8463 131.556 16.7135 113.053C21.9268 88.0981 22.461 84.9573 21.8413 83.4831C21.2645 82.0729 19.4056 81.7097 18.2732 82.778Z" fill="black"/>
<path d="M468.838 91.6441C467.022 92.5414 466.936 94.7421 468.368 102.498C470.334 113.288 470.825 117.518 471.701 131.107C472.855 149.289 473.795 153.306 479.713 165.506C485.803 178.048 485.119 181.381 476.402 181.68C473.517 181.787 472.427 181.68 465.398 180.548C455.249 178.945 451.831 180.035 444.331 187.32C438.968 192.512 437.558 192.662 435.422 188.303C430.743 178.71 432.986 162.237 443.498 129.291C452.493 101.109 453.519 94.8917 449.352 94.0584C447.408 93.6738 446.404 94.6566 446.276 97.1137C446.083 100.682 444.566 105.959 439.097 122.454C433.392 139.546 431.149 147.089 429.418 154.93C422.004 188.453 432.067 207.704 448.669 191.743C454.288 186.338 456.318 185.654 463.411 186.872C464.8 187.128 467.321 187.556 469.03 187.855C480.611 189.842 487.683 187.085 489.883 179.714C491.101 175.655 490.118 171.83 485.503 162.686C480.055 151.896 479.2 147.922 478.538 130.039C477.577 104.271 473.752 89.1442 468.838 91.6441Z" fill="black"/>
<path d="M412.837 92.5821C412.538 92.753 411.79 93.5222 411.171 94.27C408.735 97.1972 401.599 102.774 390.83 110.166C379.699 117.837 377.648 119.802 379.207 121.362C381.451 123.627 408.222 105.744 414.675 97.6886C417.41 94.2487 416.064 90.4883 412.837 92.5821Z" fill="black"/>
<path d="M481.208 102.687C480.396 103.841 480.567 104.738 482.468 109.246C486.314 118.348 486.506 120.164 484.156 125.121C480.823 132.087 485.588 133.796 489.092 126.895C492.126 120.934 491.613 117.024 486.378 106.042C484.413 101.961 482.575 100.764 481.208 102.687Z" fill="black"/>
<path d="M31.1997 108.394C30.3237 109.356 30.2597 109.612 29.2341 115.53C28.6999 118.628 27.5889 124.782 26.7556 129.183C21.5637 156.766 21.0082 166.467 24.1276 174.906C26.4779 181.252 29.5546 184.713 40.4298 193.174C47.6728 198.815 51.7537 202.554 58.5908 209.818C64.3382 215.95 66.2612 217.51 68.6969 218.065C74.5511 219.368 76.4741 209.327 74.1879 189.328C73.0769 179.585 72.6068 174.393 71.624 160.911C69.9575 138.007 68.8464 132.174 66.1116 132.174C64.7656 132.174 64.1246 134.29 64.1032 138.798C64.1032 143.52 66.3466 173.154 67.6713 185.803C68.8464 197.041 68.9319 198.045 68.9319 203.75C68.9319 210.138 68.8251 211.356 68.1841 210.95C67.9491 210.822 65.5134 208.28 62.7358 205.331C55.5782 197.703 51.9888 194.435 42.9937 187.405C27.0761 174.992 26.2429 171.103 31.9903 135.807C36.2207 109.868 36.2848 107.817 32.7808 107.817C31.9262 107.817 31.6484 107.924 31.1997 108.394Z" fill="black"/>
<path d="M424.972 121.687C422.601 123.546 418.669 138.78 419.909 141.215C420.998 143.352 423.947 142.604 424.267 140.126C424.695 137.006 425.165 134.998 427.024 128.246C428.562 122.713 427.6 119.636 424.972 121.687Z" fill="black"/>
<path d="M52.1175 125.147C50.7714 126.194 51.0492 129.783 53.2499 139.654C54.7882 146.619 55.1087 148.799 55.3865 154.717C55.6215 160.144 56.1129 161.447 57.8435 161.447C61.3475 161.447 61.4971 151.469 58.164 138.158C57.3307 134.783 56.4761 130.638 56.0061 127.625C55.6001 124.976 53.784 123.822 52.1175 125.147Z" fill="black"/>
<path d="M413.948 126.896C412.901 127.986 410.978 133.904 409.248 141.382C404.248 162.962 406.898 172.79 418.713 176.465C425.935 178.709 428.755 173.624 421.811 170.846C415.316 168.282 414.034 166.722 413.478 160.761C412.987 155.719 414.333 146.083 417.324 133.114C418.264 129.054 418.328 128.435 417.88 127.366C417.281 125.935 415.123 125.679 413.948 126.896Z" fill="black"/>
<path d="M75.7051 126.855C74.9787 127.645 74.8078 128.885 75.0428 131.983C75.1496 133.564 75.406 137.089 75.5769 139.845C76.1752 148.669 77.0298 151.233 79.1878 150.678C81.2816 150.144 80.5552 129.355 78.3545 126.983C77.6494 126.235 76.3461 126.171 75.7051 126.855Z" fill="black"/>
<path d="M134.119 127.726C130.551 129.756 135.124 133.303 147.687 138.217C162.109 143.879 181.039 147.49 182.834 144.926C184.329 142.789 182.043 141.635 172.599 139.755C160.464 137.341 152.003 134.606 140.486 129.414C136.085 127.427 135.102 127.171 134.119 127.726Z" fill="black"/>
<path d="M88.0971 129.891C85.9605 130.959 86.3878 143.308 89.2509 163.585C90.7892 174.545 90.661 174.866 83.6316 176.81C75.7476 178.968 76.8159 184.502 84.8709 183.241C95.3188 181.575 97.4126 177.024 95.1479 160.914C94.1864 154.098 93.054 144.441 92.3489 137.198C91.6652 130.083 90.7465 128.523 88.0971 129.891Z" fill="black"/>
<path d="M465.76 131.491C462.32 133.606 461.979 148.285 465.055 162.408C465.91 166.36 465.974 166.061 464.393 165.762C458.261 164.63 453.005 165.954 453.005 168.625C453.005 170.249 454.223 170.655 458.795 170.569C461.252 170.548 462.684 170.633 464.436 170.933C470.803 172.022 471.7 170.334 469.82 160.805C467.705 150.122 467.448 143.563 468.858 136.234C469.628 132.111 468.239 129.953 465.76 131.491Z" fill="black"/>
<path d="M442.621 146.809C438.668 150.762 438.454 169.158 442.364 169.137C444.202 169.115 444.48 168.026 444.565 160.825C444.608 155.206 444.779 153.924 445.847 150.506C446.915 147.108 444.779 144.651 442.621 146.809Z" fill="black"/>
<path d="M38.5277 147.045C37.0748 148.263 35.6646 154.352 35.6433 159.416C35.6005 166.723 37.5235 170.505 45.0656 177.918C49.702 182.491 51.8813 183.73 53.1206 182.469C54.3171 181.294 53.2915 179.478 48.7833 174.82C39.7455 165.484 38.7627 162.001 41.9248 150.378C42.7795 147.173 40.7497 145.165 38.5277 147.045Z" fill="black"/>
<path d="M309.533 150.458C307.76 150.65 305.11 151.27 300.452 152.616C289.022 155.885 281.522 156.975 272.249 156.654C267.421 156.505 265.904 156.376 255.477 155.244C232.359 152.723 221.463 153.407 222.381 157.338C222.809 159.111 222.916 159.133 233.321 159.175C242.423 159.218 242.038 159.197 255.477 160.799C276.95 163.363 287.12 162.679 302.546 157.616C309.64 155.287 312.631 153.599 312.631 151.932C312.631 150.501 312.011 150.223 309.533 150.458Z" fill="black"/>
<path d="M13.1891 152.13C12.5054 152.814 12.2918 153.69 11.9072 157.493C11.7363 159.245 11.3303 162.514 11.0525 164.736C10.1124 171.872 10.3688 173.838 12.2277 173.838C14.2147 173.838 15.1121 170.27 16.394 157.408C16.8854 152.322 15.4326 149.887 13.1891 152.13Z" fill="black"/>
</svg>
