<svg width="210" height="49" viewBox="0 0 210 49" fill="none" xmlns="http://www.w3.org/2000/svg">
<path d="M179.108 0.846867C176.138 1.55194 171.31 5.41917 167.72 9.99147C166.545 11.4871 166.481 11.5084 166.118 10.6538C164.451 6.63702 159.644 7.17117 155.221 11.8717C153.405 13.7946 153.405 13.7946 152.935 11.6366C149.474 -3.89636 130.031 0.227256 125.01 17.555C121.869 28.3875 131.804 34.6477 139.88 26.956C143.961 23.046 141.932 18.3242 137.466 21.3581C133.257 24.1998 130.843 24.1998 131.163 21.3154C132.082 13.1964 142.167 5.20551 145.478 9.9701C148.128 13.816 147.529 22.2982 143.983 30.9514C141.034 38.1303 141.013 39.6473 143.812 40.5661C146.226 41.378 147.423 40.0746 149.773 34.1563C151.974 28.6012 159.195 16.4653 159.879 17.1704C160.05 17.32 159.238 20.5462 158.298 23.5161C157.08 27.3619 157.101 28.1738 158.383 29.5199C160.221 31.4428 162.443 30.5668 164.409 27.1055C167.528 21.6786 172.805 14.7347 176.373 11.4016C177.164 10.6538 177.143 10.7393 174.557 16.1021C167.742 30.2463 166.652 39.7328 171.331 44.1555C174.942 47.5741 178.467 45.0315 176.822 40.2028C175.284 35.7374 176.608 30.054 182.142 17.4909C185.86 9.05137 186.501 6.70112 185.753 4.09448C185.027 1.48784 182.206 0.120427 179.108 0.846867Z" fill="black"/>
<path d="M55.6141 1.0539C52.6442 1.75897 47.8155 5.6262 44.2261 10.1985C43.051 11.6941 42.9869 11.7155 42.6236 10.8608C40.9571 6.84405 36.1498 7.3782 31.727 12.0787C29.9109 14.0016 29.9109 14.0016 29.4409 11.8437C25.9796 -3.68933 6.53665 0.434288 1.51567 17.762C-1.62512 28.5945 8.31002 34.8547 16.3863 27.163C20.4672 23.2531 18.4375 18.5312 13.972 21.5652C9.7629 24.4068 7.34856 24.4068 7.66905 21.5224C8.58778 13.4034 18.6725 5.41254 21.9842 10.1771C24.6336 14.023 24.0353 22.5053 20.4886 31.1584C17.5401 38.3374 17.5187 39.8544 20.3177 40.7731C22.732 41.585 23.9285 40.2817 26.2787 34.3633C28.4794 28.8082 35.7011 16.6724 36.3848 17.3774C36.5557 17.527 35.7438 20.7532 34.8037 23.7231C33.5859 27.569 33.6072 28.3809 34.8892 29.7269C36.7267 31.6499 38.9487 30.7738 40.9144 27.3126C44.0338 21.8856 49.3112 14.9417 52.8793 11.6086C53.6698 10.8608 53.6484 10.9463 51.0632 16.3091C44.2474 30.4534 43.1578 39.9398 47.8369 44.3626C51.4478 47.7811 54.9731 45.2386 53.3279 40.4099C51.7896 35.9444 53.1143 30.2611 58.6481 17.6979C62.3657 9.2584 63.0067 6.90815 62.2589 4.30151C61.5324 1.69487 58.7122 0.327458 55.6141 1.0539Z" fill="black"/>
<path d="M100.867 5.97286C97.8971 8.30174 101.123 13.045 104.264 10.9938C106.037 9.84008 105.888 6.61383 104.05 5.78056C103.132 5.35325 101.508 5.46008 100.867 5.97286Z" fill="black"/>
<path d="M103.409 14.5774C99.1355 16.5644 98.2809 22.0982 101.721 25.5167C102.661 26.4782 102.661 26.4782 102.234 27.7388C100.781 32.0333 104.37 36.2852 109.455 36.2852C115.395 36.2852 116.976 30.1318 111.143 29.7472C107.917 29.5335 107.981 29.5763 109.327 28.2089C111.506 25.9868 110.951 23.1879 108.259 22.7392C105.374 22.2905 104.648 19.5984 107.255 19.107C109.648 18.6583 110.459 16.1585 108.665 14.7056C107.639 13.8296 105.097 13.7869 103.409 14.5774Z" fill="black"/>
<path d="M70.186 20.9678C69.78 21.1174 68.2417 22.0788 66.7674 23.083C65.2932 24.0872 62.4088 25.882 60.3577 27.0785C55.2939 30.0056 54.5889 30.7961 55.2298 32.7618C55.9349 34.877 57.8365 34.9411 62.4515 32.9968C63.648 32.484 64.6308 32.0994 64.6308 32.1208C64.6308 32.1635 64.4385 32.9968 64.2035 33.9796C62.6652 40.4108 64.3103 45.624 68.4126 47.2479C71.8098 48.5725 74.16 45.3036 72.0021 42.2696C69.9937 39.4493 70.4851 35.1548 73.6472 27.7408C75.6343 23.1471 73.8182 19.6218 70.186 20.9678Z" fill="black"/>
<path d="M195.186 20.9678C194.78 21.1174 193.242 22.0788 191.767 23.083C190.293 24.0872 187.409 25.882 185.358 27.0785C180.294 30.0056 179.589 30.7961 180.23 32.7618C180.935 34.877 182.836 34.9411 187.452 32.9968C188.648 32.484 189.631 32.0994 189.631 32.1208C189.631 32.1635 189.439 32.9968 189.204 33.9796C187.665 40.4108 189.31 45.624 193.413 47.2479C196.81 48.5725 199.16 45.3036 197.002 42.2696C194.994 39.4493 195.485 35.1548 198.647 27.7408C200.634 23.1471 198.818 19.6218 195.186 20.9678Z" fill="black"/>
<path d="M109.883 39.3618C107.02 41.7975 110.075 46.4125 113.408 44.7032C115.524 43.5922 115.844 40.9856 114.028 39.5113C112.981 38.614 110.823 38.5499 109.883 39.3618Z" fill="black"/>
<path d="M79.2442 40.4377C76.1247 41.8478 77.4708 46.8047 80.9748 46.8047C84.3079 46.8047 85.6539 42.7238 82.9618 40.7154C82.2567 40.1813 80.1415 40.0317 79.2442 40.4377Z" fill="black"/>
<path d="M203.823 40.7994C203.439 40.9062 202.84 41.3336 202.477 41.7395C199.187 45.4785 204.699 50.2859 208.289 46.8032C211.237 43.9188 208.011 39.5816 203.823 40.7994Z" fill="black"/>
</svg>
