<svg width="265" height="228" viewBox="0 0 265 228" fill="none" xmlns="http://www.w3.org/2000/svg">
<path d="M127.101 0.276208C116.846 1.15221 105.073 4.42119 94.7319 9.24988C92.7021 10.19 92.7021 10.19 92.3816 9.69856C90.3091 6.53641 84.9677 3.3529 81.6132 3.2888C76.1222 3.18197 77.4896 9.42081 83.8994 13.6513C85.1386 14.4845 85.1386 14.4845 83.3652 15.7024C81.3568 17.0484 78.6006 19.1637 77.34 20.2533C76.5068 20.9798 76.5068 20.9798 75.0966 20.2747C68.8791 17.1766 62.4053 18.8859 63.5163 23.3514C63.9864 25.2102 66.0588 27.7314 67.8536 28.6715C68.6228 29.0774 68.6655 28.9279 67.1058 30.8508C66.358 31.7482 65.2042 33.2224 64.5205 34.1198C63.4308 35.594 63.2385 35.7649 62.448 35.8718C59.3927 36.2777 52.9829 41.4696 50.1199 45.8283C44.9066 53.7764 49.5644 58.2205 56.3587 51.8107C58.0894 50.1869 58.0894 50.1869 58.1107 52.9858C58.1321 57.7718 58.8158 59.6093 60.8456 60.293C65.6315 61.9382 70.0543 45.8283 66.6785 39.0126C66.187 38.0084 66.7639 36.9828 69.7551 33.5002C70.4816 32.6883 70.4175 32.5814 70.8021 35.8504C71.6781 43.4139 74.0497 46.5334 77.4041 44.5036C80.7586 42.4738 82.361 29.9107 79.968 24.3128C79.4553 23.1591 79.1348 23.565 83.1088 20.5311C85.9719 18.3304 85.7582 18.3304 85.7582 20.5738C85.7582 25.7016 87.5316 29.8252 89.7322 29.8252C93.044 29.8252 94.4114 26.3853 94.4114 18.0313C94.4114 13.3949 94.4114 13.3949 96.8685 12.2197C107.081 7.39105 120.734 3.75885 132.229 2.79738C134.772 2.58372 135.519 1.06675 133.425 0.361671C132.763 0.148012 129.174 0.0839146 127.101 0.276208Z" fill="black"/>
<path d="M172.931 3.78127C171.5 4.05903 169.47 5.14869 168.979 5.89649C168.701 6.30244 168.445 6.49474 168.231 6.40927C164.684 5.02049 158.616 4.16586 158.039 4.93503C156.992 6.36654 157.441 6.66567 163.103 8.43903C165.795 9.2723 167.718 9.97738 167.804 10.1697C167.889 10.3406 168.124 11.3448 168.316 12.3704C169.256 17.3059 171.479 21.9423 173.487 23.1174C176.649 24.9762 179.469 21.3013 178.786 16.1949C178.657 15.3402 178.636 14.6565 178.7 14.6565C179.213 14.6565 188.742 20.8526 188.742 21.1945C188.742 21.2372 188.486 22.0277 188.165 22.9251C186.947 26.4505 187.417 32.5611 189.148 35.4242C192.161 40.381 197.588 38.0735 198.079 31.5997C198.207 30.0827 198.207 30.0827 199.233 31.2792C201.327 33.7149 201.433 33.9285 201.049 35.0396C197.951 44.1628 204.061 58.713 209.958 56.2559C212.181 55.3158 213.142 53.5211 213.27 50.188C213.356 47.8164 213.356 47.8164 214.21 48.1155C217.437 49.2479 220.15 46.7267 219.552 43.1372C218.59 37.3043 210.963 31.1296 204.66 31.1082C203.378 31.0869 203.378 31.0869 201.669 29.0144C199.575 26.4932 199.66 26.7069 200.643 26.5146C205.771 25.5745 207.779 20.0193 204.254 16.494C201.177 13.4173 194.703 13.695 190.943 17.0709C190.131 17.7973 190.131 17.7973 187.631 16.0667C186.264 15.1266 184.554 13.9728 183.807 13.5241C182.461 12.6908 182.461 12.6908 183.102 12.2849C188.785 8.69542 181.008 2.20019 172.931 3.78127Z" fill="black"/>
<path d="M213.099 61.4461C209.381 61.8094 207.416 62.1939 195.066 65.0783C170.965 70.6762 159.278 70.8899 139.857 66.0398C120.82 61.3179 114.816 61.3607 97.1035 66.3603C77.105 72.0009 69.3492 72.6205 57.8116 69.5224C48.3465 67.0013 46.4236 66.7022 39.7147 66.6808C28.8395 66.6808 21.9169 68.4755 21.511 71.4454C21.3614 72.5991 22.3442 73.0478 23.498 72.3427C28.2198 69.4156 43.4751 69.2661 54.1367 72.0436C61.9138 74.0734 62.8112 74.287 65.3324 74.6075C70.6311 75.3126 78.3656 74.6503 86.8051 72.7701C90.3305 71.9795 92.8517 71.2958 102.381 68.6251C115.264 65.0142 123.298 65.1211 138.703 69.0524C160.304 74.5862 172.119 74.2657 200.386 67.4286C214.637 63.9887 217.863 63.8605 231.901 66.2321C242.733 68.0696 250.66 68.2832 255.339 66.8944C256.578 66.5312 257.818 65.4843 257.711 64.9288C257.519 63.8819 256.365 63.7964 247.605 64.0955C242.071 64.2878 239.272 64.0741 232.328 62.9418C223.696 61.5102 217.522 61.0402 213.099 61.4461Z" fill="black"/>
<path d="M262.411 72.2769C261.471 73.3665 261.3 74.1784 259.57 86.6989C256.45 109.261 251.558 112.723 233.845 104.774C215.962 96.7622 213.142 96.7622 192.588 104.988C177.119 111.163 169.726 112.808 157.334 112.787C148.018 112.765 142.656 111.847 131.909 108.449C117.423 103.856 110.949 103.834 89.8178 108.321C70.033 112.509 65.3752 112.317 52.1925 106.633C42.7274 102.552 37.4073 102.787 26.7243 107.723C22.0666 109.902 20.5282 110.543 19.9513 110.629C18.8831 110.757 18.819 110.009 18.7762 94.4547C18.7335 76.3791 18.648 75.4177 17.2379 75.0758C15.8277 74.7126 15.8705 74.3707 15.4431 92.2113C14.8876 115.115 15.5927 116.697 24.6946 112.594C25.9124 112.039 27.9208 111.141 29.16 110.586C38.1551 106.548 43.1761 106.249 49.9491 109.347C63.9864 115.756 70.6099 116.205 90.2451 111.996C112.167 107.317 117.508 107.274 131.054 111.697C154.257 119.26 170.987 118.085 196.968 107.103C213.12 100.288 216.603 100.223 229.679 106.484C254.314 118.256 260.809 112.979 264.377 78.2166C264.933 72.8965 264.099 70.3539 262.411 72.2769Z" fill="black"/>
<path d="M210.429 108.856C203.549 111.976 197.93 135.841 202.694 141.674C203.229 142.315 203.229 142.315 202.481 143.17C200.793 145.071 196.797 149.281 196.733 149.216C196.712 149.174 196.541 148.469 196.349 147.635C195.045 141.311 189.298 138.555 185.751 142.572C183.059 145.648 183.465 152.208 186.606 156.139C186.969 156.566 187.247 156.994 187.247 157.1C187.226 157.485 176.457 164.002 175.816 164.002C175.773 164.002 175.966 163.468 176.265 162.805C180.709 152.763 171.372 144.815 166.479 154.472C164.62 158.147 164.385 164.963 165.988 168.083C166.479 169.023 156.395 173.018 150.134 174.364C149.451 174.492 149.451 174.492 149.707 173.787C150.647 171.223 149.857 165.433 148.34 163.703C144.152 158.959 137.571 167.1 139.345 174.834C139.558 175.753 139.558 175.753 138.661 175.753C138.191 175.774 137.251 175.817 136.61 175.881C132.935 176.266 122.295 175.219 115.671 173.83C110.33 172.719 108.642 172.762 108.877 173.958C109.411 176.8 124.367 179.684 136.631 179.321C140.605 179.214 140.605 179.214 140.712 180.688C141.353 189.491 156.224 191.692 156.672 183.06C156.779 180.881 156.416 179.449 155.412 178.018C154.856 177.227 154.643 176.778 154.835 176.714C154.963 176.672 156.16 176.287 157.442 175.86C158.745 175.432 161.501 174.407 163.595 173.574C165.689 172.762 167.419 172.099 167.462 172.142C167.483 172.185 167.697 172.655 167.932 173.189C170.966 180.197 184.427 180.005 186.2 172.933C186.82 170.411 185.132 167.399 182.354 166.117C180.965 165.455 180.965 165.519 183.059 164.322C184.042 163.788 185.815 162.677 187.033 161.886C189.213 160.434 189.213 160.434 190.046 160.818C198.421 164.878 214.296 158.126 210.215 152.25C209.083 150.605 207.374 150.007 203.891 150.007C200.964 150.007 200.964 150.007 201.541 149.345C201.84 148.96 203.036 147.529 204.19 146.14C206.284 143.597 206.284 143.597 208.186 143.127C218.89 140.521 231.688 128.812 229.658 123.513C228.099 119.411 221.924 119.689 216.411 124.069C214.894 125.265 214.766 125.329 214.894 124.817C217.287 115.245 214.937 106.805 210.429 108.856Z" fill="black"/>
<path d="M58.047 114.86C55.7395 115.907 54.3507 120.095 54.949 124.197C55.0558 124.945 55.0985 125.543 55.0772 125.543C55.0344 125.543 54.3935 125.116 53.6243 124.582C48.0264 120.672 43.4114 122.317 44.5011 127.851C45.6762 133.833 52.5346 138.811 59.9486 139.089C62.0425 139.153 62.0425 139.153 62.7262 140.093C63.4099 141.055 65.9097 144.174 67.2771 145.777C67.8112 146.418 67.9608 146.717 67.7685 146.781C67.6189 146.845 66.978 147.037 66.3584 147.23C63.303 148.191 61.4442 151.353 62.2775 154.152C63.7945 159.195 72.5117 161.075 76.7208 157.293C77.7464 156.353 77.7464 156.353 80.0966 158.276C86.5278 163.51 92.9375 166.844 94.1554 165.604C95.0955 164.686 94.4545 163.874 91.2069 161.865C87.6815 159.686 82.9383 156.182 79.9043 153.511C79.0924 152.785 79.0924 152.785 79.4129 152.016C81.5068 146.995 80.6735 137.765 77.8532 134.944C74.6056 131.697 70.3751 136.333 70.3751 143.191C70.3751 144.132 70.3751 144.132 68.8154 142.358C64.0081 136.931 64.0508 137.017 64.8841 135.179C69.5205 125.073 65.0123 111.698 58.047 114.86Z" fill="black"/>
<path d="M251.173 116.721C247.113 122.447 245.554 138.151 247.541 153.641C249.229 166.994 248.353 172.464 242.306 186.224C234.593 203.829 233.396 207.355 231.495 218.273C230.448 224.234 230.192 224.746 228.867 223.486C225.555 220.26 224.572 213.615 225.747 202.569C226.367 196.778 226.089 193.168 224.594 186.972C222.949 180.263 223.29 177.613 227.051 167.742C232.478 153.448 234.08 141.142 230.491 141.142C229.422 141.142 228.995 142.189 228.824 145.415C228.397 152.615 227.307 157.145 223.675 166.353C219.594 176.737 219.081 180.626 220.897 187.719C222.436 193.787 222.607 196.501 221.944 204.556C220.812 218.273 224.38 228.122 230.298 227.631C232.926 227.417 233.781 225.751 235.448 217.76C237.392 208.359 238.652 204.769 245.447 189.065C251.771 174.451 253.096 167.251 251.664 155.564C250.446 145.564 250.425 145.351 250.404 139.646C250.382 132.189 251.002 127.04 252.647 121.015C253.801 116.785 253.779 116.144 252.412 116.144C251.75 116.144 251.493 116.272 251.173 116.721Z" fill="black"/>
<path d="M19.6738 118.431C19.4174 118.666 19.5028 120.503 19.8447 122.234C21.8317 132.661 20.0584 139.369 11.4265 154.069C-0.45289 174.239 -2.33309 188.383 4.48263 205.839C7.08927 212.526 9.16176 215.496 11.2556 215.496C13.499 215.496 13.5631 215.24 14.2896 205.24C15.3792 190.583 16.0202 188.746 20.8062 186.524C25.8912 184.152 27.1091 183.255 28.2201 181.161C30.1858 177.486 30.5917 172.337 29.673 162.402C28.9038 154.197 29.3525 153.514 39.8432 147.061C43.8813 144.583 45.8043 141.976 45.8043 138.985C45.8043 135.865 43.4754 135.524 42.7276 138.536C42.343 140.053 41.5524 141.335 40.2705 142.489C39.4372 143.237 38.839 143.643 33.3266 147.232C26.8527 151.398 26.0408 153.514 26.575 164.496C27.2159 177.956 26.4895 180.007 19.802 183.276C12.8794 186.695 10.7642 192.955 10.7642 210.069C10.7642 211.928 7.47385 204.642 5.93551 199.365C1.98282 185.862 4.22624 173.576 13.6486 157.274C17.7936 150.074 18.3277 149.112 19.6524 146.377C22.4513 140.587 23.2419 137.169 23.2419 130.887C23.2419 122.683 21.5112 116.593 19.6738 118.431Z" fill="black"/>
</svg>
