<svg width="212" height="100" viewBox="0 0 212 100" fill="none" xmlns="http://www.w3.org/2000/svg">
<path fill-rule="evenodd" clip-rule="evenodd" d="M132.35 55.0103C132.35 56.2603 133.15 57.5602 133.95 58.5602C133.983 58.6269 134.05 58.6602 134.15 58.6602C135.929 57.861 137.705 57.0485 139.481 56.2355C144.595 53.8952 149.718 51.5513 154.95 49.5103C156.583 48.9001 158.221 48.3018 159.86 47.7034L159.861 47.7033L159.861 47.7031C167.758 44.8197 175.663 41.9335 182.95 37.7102C192.9 32.2602 201.75 24.7602 208.6 15.7102C211.3 12.3102 213.4 7.61023 210.15 3.86023C207.818 1.71582 204.438 1.35476 201.203 1.00923C200.139 0.895541 199.09 0.783532 198.1 0.61023C189.55 -0.23977 181 0.51023 172.6 1.86023C172.215 1.9234 171.584 2.01291 170.778 2.12745C165.2 2.91946 151.194 4.9082 151.5 7.66022C151.543 7.77018 151.586 7.88388 151.629 7.99976C151.942 8.83228 152.298 9.77742 153 10.2602C153.188 9.84773 153.656 9.66024 154.09 9.48681L154.09 9.48672C154.235 9.42894 154.375 9.37271 154.5 9.31024C159.87 7.31819 165.54 6.56388 171.185 5.81286L171.186 5.81271C172.058 5.69666 172.93 5.58069 173.8 5.46024C182.2 4.16024 190.75 3.31022 199.3 4.16022C202.85 4.46022 206.55 4.86024 209.95 6.06024C210.118 7.36211 209.122 8.98142 208.295 10.3257L208.295 10.3258C208.138 10.582 207.986 10.8281 207.85 11.0602C200.6 21.5602 190.4 29.8602 179.05 35.6102C172.274 39.1305 165.106 41.7261 157.931 44.324C151.552 46.6337 145.168 48.9452 139.05 51.9102C138.53 52.1466 138.004 52.383 137.476 52.6207L137.474 52.6216L137.474 52.6217C135.767 53.3893 134.029 54.1707 132.35 55.0103ZM12.2161 61.7103C13.175 63.2167 14.1285 64.7146 15.05 66.2102C15.0833 66.2435 15.1333 66.2603 15.2 66.2603C15.8516 66.2603 14.5406 63.8447 14.0543 62.9486C13.9809 62.8133 13.9262 62.7127 13.9 62.6602C12.7752 60.6255 11.5244 58.6675 10.2764 56.7136C7.75205 52.7618 5.2387 48.8271 3.8 44.3102C3.65616 43.8344 3.48783 43.3489 3.31723 42.8567L3.31721 42.8567C2.71691 41.125 2.08853 39.3123 2.40001 37.5602C2.57076 37.3468 2.77795 37.4614 2.95936 37.5617C2.99043 37.5788 3.02075 37.5956 3.05 37.6102C4.75 38.7602 6.55001 39.8602 8.40001 40.8102C16 44.9602 24.5 46.7102 33 47.6102C45.1135 49.0109 56.5965 44.5936 67.8612 40.2603C71.4754 38.87 75.0671 37.4883 78.65 36.3102C88.4 32.6602 98.1875 29.1352 107.975 25.6102C117.763 22.0852 127.55 18.5602 137.3 14.9102C137.436 14.8251 137.659 14.7748 137.894 14.7218C138.35 14.619 138.85 14.506 138.85 14.1102C138.55 12.8602 138 11.6102 137.1 10.6102C133.297 11.705 129.461 13.165 125.62 14.6268L125.62 14.6269L125.62 14.6269L125.62 14.627C122.795 15.702 119.968 16.778 117.15 17.7102C102.25 22.6102 87.5 28.0102 72.8 33.4602C69.9912 34.4367 67.1775 35.5216 64.3501 36.6117C54.2927 40.4896 44.0608 44.4347 33.25 43.8102C25.4 43.0602 17.45 41.9602 10.3 38.6102C7.65 37.4102 5.05001 36.1103 2.60001 34.5103C2.44512 34.4231 2.26399 34.2966 2.07223 34.1627C1.27353 33.605 0.29032 32.9184 0.25 34.4102C1.26871 44.5125 6.8277 53.2454 12.2161 61.7103ZM43.9503 56.2103C43.8503 58.1603 44.0002 60.4603 46.1502 61.2103H46.2502C46.3186 61.2103 46.2935 61.0936 46.2708 60.9877L46.2708 60.9877C46.2603 60.9387 46.2502 60.892 46.2502 60.8603C45.9002 59.4603 45.8002 57.9603 45.9002 56.4603C45.8574 55.904 45.1188 55.4575 44.562 55.121C44.4682 55.0643 44.3795 55.0107 44.3003 54.9603C43.9585 54.8236 43.9671 55.2942 43.9749 55.7176V55.7176C43.9785 55.9136 43.9819 56.0995 43.9503 56.2103ZM57.7001 58.0602C55.6969 57.3273 55.4602 55.0666 55.2638 53.1909L55.2501 53.0602C55.102 51.0846 55.3929 51.3532 56.653 52.5166L56.7001 52.5602C56.8462 53.0818 56.8878 53.6557 56.9302 54.2419C56.9895 55.0603 57.0505 55.9027 57.4001 56.6602C57.3792 56.7648 57.4896 57.0269 57.6031 57.2965C57.7608 57.6712 57.9246 58.0602 57.7501 58.0602H57.7001ZM63.2999 52.8102C64.2999 54.5102 66.0499 55.8602 67.8499 56.7102H67.9999C68.2665 56.7102 68.185 56.4202 68.1089 56.1493C68.0851 56.0646 68.0619 55.9817 68.0499 55.9102C67.7999 54.7602 67.5999 53.5102 67.5999 52.3102C67.3999 51.0102 63.9499 48.0102 62.6499 48.1102C62.4999 49.6602 62.8999 51.3102 63.2999 52.8102ZM76.4998 51.7102C75.2998 51.2602 74.9998 50.1102 74.9498 48.9602C74.8998 48.2102 74.8998 47.4102 74.9998 46.6602C74.9998 46.6102 74.9998 46.6102 75.0498 46.6102C76.0445 46.9683 76.0577 47.7379 76.072 48.5663V48.5666C76.0757 48.7792 76.0794 48.9958 76.0998 49.2102C76.1498 50.0602 76.3498 50.8602 76.5998 51.7102H76.5498H76.4998ZM84.9001 42.2603C84.4501 44.9603 84.9001 48.2102 87.7001 49.3602H87.8501C87.9001 49.3602 87.9001 49.3603 87.9501 49.2603C87.5501 47.8103 87.3501 46.2102 87.6001 44.7102C87.3501 43.8602 85.7501 42.3103 84.9001 42.2603ZM98.65 45.7102C98.1 45.4102 97.5 44.9602 97.25 44.3602C97.3 42.9602 97.4 41.5102 97.5 40.1102C98.8019 40.5302 98.7634 41.4088 98.7177 42.4497V42.4497V42.4498V42.4498C98.709 42.6481 98.7 42.8522 98.7 43.0602C98.7 43.5167 98.7129 43.9602 98.7255 44.3975C98.7379 44.8224 98.75 45.2413 98.75 45.6602C98.75 45.6936 98.7333 45.7102 98.7 45.7102H98.65ZM110.2 37.7602C109.7 39.9102 111.65 41.3102 113.35 42.1602C113.833 42.1602 113.545 39.5357 113.434 38.5254V38.5253C113.418 38.3857 113.406 38.2769 113.4 38.2102C113.1 36.8102 111.55 35.7602 110.3 35.1602C110.01 35.0152 110.09 35.7615 110.17 36.5019C110.227 37.0381 110.284 37.5712 110.2 37.7602ZM121.1 38.3102C119.675 37.695 119.677 36.3249 119.678 34.9331C119.679 34.1759 119.679 33.4122 119.45 32.7603C119.45 32.6103 119.6 32.7103 119.65 32.7603C120.699 33.2621 120.791 34.3882 120.875 35.4171L120.888 35.5665C120.892 35.6147 120.896 35.6626 120.9 35.7102C120.933 35.9933 120.967 36.2819 121 36.5705C121.067 37.1486 121.133 37.7267 121.2 38.2603L121.15 38.3102H121.1ZM12.3 77.0102C10.15 79.3602 11 80.0102 13.25 81.6102C13.5834 81.7435 13.9334 81.8102 14.3 81.8102C15.1491 81.8102 16.0349 81.4608 16.9018 81.1188C17.4643 80.897 18.0188 80.6782 18.55 80.5602C20.1299 79.993 21.7016 79.4177 23.2684 78.8441L23.271 78.8432L23.2732 78.8423L23.2752 78.8416L23.2766 78.8411L23.2771 78.8409L23.2788 78.8403C25.5762 77.9993 27.8631 77.1621 30.15 76.3602C31.654 75.826 33.1501 75.2761 34.6439 74.727L34.6453 74.7265L34.6453 74.7265L34.6454 74.7265L34.6455 74.7264L34.6455 74.7264L34.6456 74.7264L34.6456 74.7264L34.6457 74.7263L34.6457 74.7263C38.4649 73.3225 42.2687 71.9242 46.15 70.8102C46.2537 70.7509 46.432 70.7136 46.6174 70.6748C47.0575 70.5827 47.5371 70.4824 47.15 70.0602C46.6 69.3602 45.9 68.6102 45 68.3102C43.15 68.7602 41.25 69.3102 39.4 69.9102C33.6717 71.8052 27.9434 73.8487 22.2471 75.8808C21.3305 76.2078 20.4148 76.5345 19.5 76.8602C18.678 77.1548 18.0148 77.405 17.4913 77.6025L17.4911 77.6026C16.4284 78.0034 15.9415 78.1871 15.8714 78.0848C15.8121 77.9983 16.0506 77.7075 16.4907 77.1709C16.927 76.639 17.5613 75.8655 18.3 74.8102C18.6098 74.4144 18.9077 74.0127 19.2039 73.6132C19.7684 72.852 20.327 72.0988 20.95 71.4102C20.75 70.5102 19.7 69.8102 18.9 69.3102C18.6371 69.1599 18.4588 69.4047 18.3016 69.6206L18.3016 69.6207C18.2495 69.6922 18.1998 69.7604 18.15 69.8102C17.5005 70.6097 16.8453 71.4036 16.1902 72.1975L16.1898 72.198L16.1891 72.1989L16.1889 72.1991L16.1888 72.1992L16.1888 72.1992C14.8777 73.7881 13.5667 75.3769 12.3 77.0102ZM131.5 37.6102C129.5 36.6602 127.85 34.9102 127.75 32.6102C127.732 32.3496 127.63 31.9441 127.52 31.5028L127.52 31.5028C127.311 30.6741 127.071 29.7191 127.3 29.3602C128.75 29.9102 130.05 31.2102 130.85 32.5602C130.916 33.2269 131.016 33.8769 131.15 34.5103C131.131 34.6946 131.262 35.1711 131.408 35.6993C131.656 36.6039 131.947 37.6602 131.6 37.6602C131.566 37.6602 131.533 37.6436 131.5 37.6102ZM138.8 29.4102C138.75 31.4102 140.25 32.9603 141.95 33.7603H142C142.281 33.7603 142.153 32.9633 142.041 32.2662C141.974 31.8453 141.912 31.4608 141.95 31.3102C141.913 31.0696 141.924 30.829 141.935 30.5934C141.953 30.1927 141.97 29.8066 141.75 29.4602C141 28.4602 140.05 27.5103 138.95 27.0103C138.565 26.9402 138.67 27.9261 138.751 28.6772C138.785 28.9978 138.815 29.2756 138.8 29.4102ZM152.9 29.5602C151.15 28.6102 149.65 27.0103 149.45 25.0103C149.433 24.8142 149.364 24.5541 149.29 24.2771C149.136 23.7062 148.964 23.0632 149.2 22.7603C150.45 23.1603 151.4 24.3102 152.2 25.3102C152.543 25.6536 152.58 26.0913 152.618 26.5423C152.635 26.7481 152.653 26.9566 152.7 27.1602C152.66 27.3396 152.771 27.7573 152.887 28.1949C153.063 28.855 153.251 29.5602 152.95 29.5602H152.9ZM160.15 20.6102C160.35 22.5102 160.75 23.7102 162.6 24.6102C162.84 24.6102 162.75 24.304 162.671 24.0311C162.634 23.9064 162.6 23.7886 162.6 23.7102C162.5 22.0602 161.7 20.5602 160.15 19.9102C159.911 19.8419 159.998 20.1004 160.078 20.3349C160.115 20.4435 160.15 20.5469 160.15 20.6102ZM32.3501 87.7102C29.4501 86.4602 26.9001 83.8602 25.6001 81.1102C27.7501 81.4602 29.2001 83.5602 30.3001 85.3102C32.0277 85.9747 34.1478 85.1871 35.9649 84.512C36.1988 84.4251 36.4277 84.3401 36.6501 84.2603C37.4438 83.9092 38.2364 83.5546 39.0292 83.2L39.0301 83.1995C43.4311 81.2307 47.8399 79.2583 52.5001 77.8602C54.0378 77.1147 55.5756 78.6708 56.6681 79.7764C56.7479 79.8571 56.8252 79.9354 56.9001 80.0103C57.0501 80.2603 56.9501 80.4102 56.6501 80.4102C53.3501 81.5102 50.1001 82.6102 46.9501 83.9602C45.7 84.3985 44.4342 84.9898 43.1525 85.5883C40.4867 86.8333 37.7526 88.1102 34.9501 88.1102C34.1001 88.1102 33.2001 88.0102 32.3501 87.7102ZM182.95 17.2603C181.3 16.4103 180 14.9103 180.8 13.0103C180.882 12.8621 180.954 12.5079 181.034 12.1102C181.198 11.3 181.398 10.309 181.8 10.5103C182.5 10.8603 183.2 11.3603 183.6 12.0103C183.2 13.2603 182.85 14.6103 182.75 15.9603C187.7 15.5603 191.95 12.1603 195.6 9.01025C196.15 8.21025 197.85 10.0103 198.2 10.5603C195.65 13.2103 189.6 17.7103 185.1 17.7103C184.3 17.7103 183.6 17.5603 182.95 17.2603ZM67.7 71.9102C64.7999 77.7602 62.6999 83.9102 60.7499 90.1602L60.7271 90.2326C59.2875 94.799 58.1309 98.4678 63.9999 99.9102C67.2354 99.031 69.9514 96.7666 72.6177 94.5436C73.7422 93.6061 74.8579 92.6759 75.9999 91.8602C78.9208 89.6101 81.7854 87.2663 84.6506 84.9221C88.4069 81.8489 92.164 78.775 96.05 75.9102C104 69.8102 111.8 63.4602 119.35 56.8602C120.2 56.1102 121.037 55.3352 121.875 54.5602C122.712 53.7852 123.55 53.0102 124.4 52.2602C124.142 51.6577 123.291 51.2774 122.581 50.96C122.466 50.9087 122.354 50.8589 122.25 50.8102C122.1 50.7102 121.9 50.6602 121.7 50.6102C121.52 50.5802 121.376 50.7298 121.225 50.8868C121.124 50.9918 121.02 51.1001 120.9 51.1602C110.456 60.75 99.1496 69.3044 87.8445 77.8577C81.9381 82.3263 76.0322 86.7946 70.2499 91.4102C70.019 91.5874 69.788 91.7652 69.5569 91.9432C67.6363 93.4219 65.7029 94.9106 63.6499 96.1602C63.5833 96.2268 63.55 96.2435 63.55 96.2102C63.6166 95.9102 63.6833 95.6268 63.7499 95.3602C65.8999 86.9102 69.1499 78.7102 72.95 70.8602C73.0231 70.6994 73.109 70.5342 73.1965 70.3661C73.4082 69.9593 73.6292 69.5347 73.7 69.1102C72.7999 68.1602 71.35 67.2602 70.05 67.1102C69.6499 67.9103 69.2624 68.7104 68.8748 69.5104C68.4874 70.3103 68.0999 71.1103 67.7 71.9102Z" fill="black"/>
</svg>
