<svg width="169" height="78" viewBox="0 0 169 78" fill="none" xmlns="http://www.w3.org/2000/svg">
<path fill-rule="evenodd" clip-rule="evenodd" d="M30.3929 50.0027C18.2429 46.2027 6.44294 37.5526 1.49295 25.5526C-2.75705 11.4526 3.99293 -1.94735 20.1929 0.552647C37.8929 5.30265 47.1429 30.2027 41.0429 46.5027C40.6429 47.8027 36.7429 44.0527 36.6929 43.2527C38.0429 38.8027 38.6429 34.1527 38.2929 29.5027C37.9929 21.8027 33.9429 7.70264 25.9429 4.95264C20.7429 3.35264 14.5929 4.45266 10.2929 7.75266C3.74293 14.0027 3.29295 25.4026 7.74295 32.9526C11.4929 39.1026 17.643 43.1527 24.093 46.0027C24.8786 46.4937 25.7646 46.7918 26.6447 47.088C28.0052 47.5458 29.3518 47.999 30.2929 49.1527C30.4929 49.3527 31.0929 50.1027 30.3929 50.0027ZM36.193 63.5528L36.0476 63.4599C34.8117 62.6715 33.1911 61.6378 33.143 60.0028C33.143 58.4418 33.381 56.8808 33.6189 55.3198C33.8688 53.6808 34.1186 52.0418 34.093 50.4028C34.693 49.8028 36.893 51.9528 37.393 52.4528C38.2855 53.1965 38.1547 54.3275 38.029 55.4136C37.9857 55.7879 37.943 56.1568 37.943 56.5028C37.8669 57.7054 37.6656 58.5326 37.5382 59.0564C37.4396 59.4615 37.3852 59.6851 37.4671 59.7604C37.568 59.853 37.8754 59.721 38.5612 59.4264C38.9634 59.2536 39.4958 59.0249 40.193 58.7528C43.693 57.6528 43.843 54.7528 41.543 52.3028C41.4205 52.0168 41.7651 52.1647 41.9772 52.2557C42.0247 52.2761 42.0656 52.2936 42.093 52.3028C44.543 53.7028 47.393 57.0028 45.093 59.7028C44.3378 60.458 43.3705 60.8832 42.4176 61.3022L42.4175 61.3022C41.9825 61.4935 41.5505 61.6834 41.143 61.9028C40.5831 62.0603 40.017 62.4015 39.4448 62.7463C38.382 63.3869 37.2981 64.0403 36.193 63.5528ZM46.8429 71.6028C49.5429 74.7028 53.1929 77.6028 57.4429 77.8528C60.9737 78.375 64.8012 74.2849 68.3414 70.502C71.9201 66.6779 75.205 63.1676 77.5929 65.0528C81.9429 69.5028 87.4429 74.2528 94.0429 73.3528C97.9429 72.8028 101.443 70.8528 104.493 68.4028C105.06 68.0449 105.617 67.5581 106.186 67.0616C107.524 65.8934 108.924 64.6721 110.643 64.9528C113.743 68.0528 117.293 70.8528 121.493 72.2528C128.893 75.1028 136.143 71.0528 141.643 66.2528C143.064 64.9501 144.734 65.7667 146.26 66.5126C146.667 66.7115 147.064 66.9054 147.443 67.0528C151.743 68.7528 156.543 69.6528 161.143 68.7528C163.843 68.2028 166.193 66.6528 168.143 64.8028C168.443 64.6528 168.543 64.4028 168.393 64.1528L168.372 64.1276C167.646 63.2452 165.233 60.3144 164.193 61.5028C157.793 67.8028 148.293 65.9528 140.993 62.6028C139.12 62.0678 136.859 63.812 134.598 65.5563C133.055 66.7464 131.512 67.9364 130.093 68.4028C125.193 70.9028 119.043 70.3528 114.543 67.2528C113.735 66.6471 112.981 65.9208 112.222 65.1908C110.539 63.5706 108.837 61.9319 106.493 61.5528C104.083 61.7663 102.194 63.2643 100.304 64.7632C99.096 65.7209 97.8878 66.679 96.5429 67.3028C91.9929 70.0028 85.3929 71.1028 81.2929 67.0528C72.3063 56.9182 69.3066 60.2618 63.8557 66.3375C62.4222 67.9355 60.819 69.7224 58.8929 71.5028C56.4929 73.8028 52.8429 74.9028 49.8429 73.1528C48.8298 72.1186 48.1285 70.8349 47.4306 69.5575C46.4753 67.8088 45.5265 66.0718 43.7929 65.0028C43.4429 64.7528 42.1429 64.0028 42.8429 65.0528C43.2395 65.724 43.6036 66.4139 43.9678 67.104C44.7971 68.6755 45.6268 70.2478 46.8429 71.6028Z" fill="black"/>
</svg>
