<svg width="75" height="43" viewBox="0 0 75 43" fill="none" xmlns="http://www.w3.org/2000/svg">
<path fill-rule="evenodd" clip-rule="evenodd" d="M27.4798 7.85001C27.1298 8.25001 29.0298 9.4 29.4298 9.5H29.5298L29.5798 9.45001C31.684 6.48298 32.5003 4.80839 32.9612 3.86288C33.254 3.26209 33.4034 2.95567 33.6485 2.79909C33.9036 2.6361 34.2625 2.63547 34.9949 2.63419C36.1089 2.63223 38.0874 2.62875 41.8798 2.04999C42.2298 3.54999 42.7798 5.09999 43.6298 6.39999C43.7298 6.99999 47.3798 9.40001 45.9798 7.60001C44.8298 5.85001 43.8298 3.79999 43.7798 1.64999C43.3298 0.999994 42.4798 0.4 41.6798 0.25C41.0919 0.29899 40.5041 0.395979 39.9103 0.493939C39.2921 0.595938 38.6674 0.69899 38.0298 0.75C35.9298 1 33.7798 1.19999 31.6798 1.14999C31.3468 1.10242 31.2401 1.37174 31.1444 1.61335L31.1298 1.64999C31.0172 1.88065 30.9051 2.11246 30.7928 2.34474L30.7926 2.34511L30.7925 2.34541C29.8581 4.27804 28.908 6.2433 27.4798 7.85001ZM19.0799 7.49988C19.4799 8.59988 20.5299 9.49988 21.5299 9.99988L21.5799 10.0499C21.7979 10.0499 21.7444 9.48768 21.6972 8.99099C21.6685 8.69 21.6422 8.41306 21.6799 8.29986C21.6526 7.95866 21.6477 7.61001 21.6427 7.26001C21.6295 6.32777 21.6162 5.38596 21.1799 4.54986C20.2299 3.09986 18.7799 1.69987 16.9299 2.14987C15.6633 2.21654 14.3966 2.29987 13.13 2.39987C13.0756 2.40591 13.018 2.41195 12.9578 2.41825C12.0218 2.51632 10.4752 2.67838 11.1799 3.89987C11.2912 4.19953 11.3952 4.50505 11.4994 4.81117L11.4994 4.81123C12.0036 6.2928 12.5125 7.78826 13.88 8.69989C14.5185 9.09895 14.3925 8.79729 14.2394 8.43045C14.2007 8.33766 14.1602 8.24071 14.13 8.14987C14.0703 7.89617 13.9749 7.6291 13.8772 7.35532L13.8772 7.3553C13.6475 6.71182 13.4046 6.03124 13.5799 5.39987C14.6299 4.93667 15.8324 4.87397 17.0343 4.81131C17.7785 4.77251 18.5225 4.73372 19.23 4.59988C19.2635 5.23784 19.2069 5.89835 19.1509 6.55112V6.55115V6.55118V6.55121V6.55123V6.55125V6.55127C19.1236 6.8705 19.0964 7.18789 19.0799 7.49988ZM61.1447 38.5738L61.1448 38.5738C63.4273 38.307 65.7376 38.0369 67.8298 37.05C71.0298 35.8 71.7298 32.2 71.0798 29.15C70.8123 27.0635 70.4176 24.9898 70.0227 22.9151L70.0227 22.9151C69.3104 19.1729 68.5976 15.4279 68.6298 11.6C68.6112 11.5443 68.6202 11.468 68.6286 11.3965C68.6429 11.2755 68.6555 11.1686 68.5298 11.2C66.8424 11.2331 65.1769 11.31 63.5044 11.3872L63.5042 11.3872L63.504 11.3872L63.5038 11.3872L63.5036 11.3872L63.5032 11.3872C62.6485 11.4267 61.792 11.4662 60.9298 11.5C58.0631 11.6 55.2131 11.5667 52.3798 11.4C50.5798 11.5 49.4298 10.9 48.2798 9.50003C47.6662 8.77135 48.1704 8.83694 48.7094 8.90704C48.8731 8.92833 49.04 8.95004 49.1798 8.95004C50.7402 9.03217 52.3006 9.08432 53.8528 9.09007C52.862 8.66391 51.9622 7.92388 51.23 7.10008C50.9161 6.74701 51.0947 5.90146 51.2345 5.23963C51.2729 5.05793 51.3084 4.89008 51.3299 4.75007C51.914 3.46519 53.4683 3.39311 54.8359 3.32968C55.2245 3.31165 55.598 3.29433 55.93 3.25007C56.8225 3.18396 57.715 3.16156 58.5931 3.13952C59.0431 3.12822 59.4894 3.11702 59.93 3.10008C60.0653 3.10008 60.1981 3.09499 60.3289 3.08998C60.778 3.07277 61.204 3.05645 61.6299 3.25007C63.5299 4.00007 64.2299 5.75008 64.2799 7.70008C64.5799 8.75008 62.7799 7.25007 62.5799 7.00007C62.2189 6.74735 62.1968 6.36429 62.1747 5.98264C62.1662 5.83573 62.1577 5.68903 62.1299 5.55006V5.54985C62.1299 5.24992 62.1299 4.95 62.0799 4.65007C61.6232 4.69814 61.1665 4.73466 60.7153 4.77074C60.228 4.8097 59.7472 4.84814 59.2799 4.90007C58.9568 4.93036 58.6296 4.95249 58.3012 4.97471L58.3012 4.97471L58.3011 4.97472L58.3011 4.97472C57.0034 5.06251 55.6871 5.15156 54.5299 5.75007C53.8448 6.28296 54.0289 7.19253 54.2 8.03762C54.2537 8.30264 54.3061 8.56133 54.3299 8.80006C54.3871 8.88589 54.4116 9.00446 54.3846 9.09021C55.4887 9.0866 56.588 9.05852 57.6798 9.00003C58.8353 8.93922 59.9907 8.86197 61.1428 8.78494C62.8325 8.67198 64.515 8.55949 66.1798 8.50003C68.2798 8.15003 69.9798 9.65004 71.1298 11.2C71.7374 12.1452 71.7297 13.2727 71.7221 14.3826V14.3827C71.7184 14.9167 71.7148 15.4465 71.7798 15.95C71.8798 18.15 72.1298 20.35 72.5298 22.5C72.6918 23.3931 72.8541 24.2516 73.01 25.0763C75.019 35.7033 75.9671 40.7185 61.6298 41.6C61.1798 41.6 58.1298 38.8 59.3298 38.8C59.9295 38.7158 60.5358 38.645 61.1441 38.5738L61.1442 38.5738L61.1443 38.5738L61.1444 38.5738L61.1445 38.5738L61.1446 38.5738L61.1447 38.5738ZM4.07975 30.9999C5.77975 34.0999 8.47976 36.6999 11.5298 38.4499C13.2298 39.2999 15.0298 39.5999 16.9298 39.5999C18.4798 39.5999 20.0298 39.3999 21.5298 39.1499C22.7298 38.9499 23.9298 38.7499 25.0798 38.4999C25.0298 37.4999 22.8798 35.5499 21.8798 35.2499C21.3539 35.3348 20.8146 35.4279 20.2671 35.5225C14.0464 36.5968 6.75695 37.8556 5.92976 29.3999C5.67976 27.7268 5.46674 26.0537 5.25372 24.3807C4.91289 21.7037 4.57206 19.0268 4.07975 16.3499C4.06519 16.0586 3.99125 15.7165 3.91352 15.3568C3.72436 14.4815 3.51275 13.5023 4.07975 12.8999C4.52824 12.8358 4.99727 12.9154 5.46052 12.994C5.7203 13.0381 5.97827 13.0819 6.22978 13.0999C9.87494 13.5192 13.5617 13.5224 17.2498 13.5255H17.2499C19.2783 13.5272 21.3072 13.5289 23.3298 13.5999C25.4298 13.6499 27.5798 13.6999 29.6298 13.3499C29.6298 12.8237 29.0529 12.3359 28.6412 11.9878L28.6411 11.9877C28.5834 11.9389 28.5289 11.8929 28.4798 11.8499C27.7009 11.3917 26.7961 11.3953 25.8423 11.3992C25.7552 11.3995 25.6676 11.3999 25.5798 11.3999C25.0298 11.4499 24.4298 11.4499 23.8798 11.3499C20.7095 11.0438 17.5296 10.9385 14.3527 10.8332H14.3527C10.2645 10.6978 6.18132 10.5626 2.12977 9.99987C0.331518 9.432 0.727895 11.5514 0.945064 12.7126L0.945068 12.7126C0.957354 12.7783 0.969067 12.841 0.979776 12.8999C1.37978 15.0499 1.72976 17.2499 2.02976 19.4499C2.21137 20.6152 2.31969 21.8034 2.42819 22.9937C2.67817 25.736 2.92917 28.4895 4.07975 30.9999ZM43.3797 16.0499C38.4797 14.9999 32.6298 17.5999 30.3298 22.0999C28.1298 25.8499 35.1798 35.3999 38.6798 36.7499C39.3779 36.4707 37.6065 34.9783 37.0759 34.5313L37.0759 34.5313C37.0365 34.4981 37.004 34.4707 36.9798 34.4499C35.2798 32.5499 33.3298 29.3999 33.7298 26.6999C35.1798 21.3999 42.8798 17.5999 47.9298 20.0499C48.9798 21.2999 49.2798 23.1999 49.1798 24.7999C48.3705 30.1671 44.912 31.0707 40.9067 32.1171C40.2106 32.299 39.4979 32.4852 38.7798 32.6999C39.2798 34.1499 40.6798 35.2999 41.9298 36.1499C42.6112 36.5588 43.6408 36.2479 44.5915 35.9609C45.0361 35.8267 45.4634 35.6977 45.8298 35.6499C54.4798 33.5499 54.5798 24.0499 48.2798 18.9999C46.8798 17.6999 45.2797 16.5499 43.3797 16.0499ZM54.8799 19.4C54.6464 19.3533 54.4031 19.3308 54.1606 19.3084C53.6247 19.2589 53.0931 19.2098 52.68 18.9C52.6242 18.8591 52.5677 18.818 52.5106 18.7764C51.7995 18.2591 51.0077 17.6831 50.73 16.85C51.0673 16.88 51.4114 16.9134 51.7607 16.9472C53.7413 17.1392 55.8898 17.3475 57.93 17.05C59.2499 16.9263 60.6037 16.6664 61.9355 16.4108L61.9356 16.4108L61.9357 16.4108L61.9357 16.4108L61.9357 16.4108L61.936 16.4107L61.9362 16.4107L61.9365 16.4107L61.9367 16.4106L61.9369 16.4106C62.2191 16.3564 62.5003 16.3024 62.78 16.25C63.83 16.65 65.13 17.75 65.53 18.8C63.33 19.35 60.93 19.65 58.58 19.65C57.3466 19.65 56.1133 19.5667 54.8799 19.4ZM12.4144 22.9108L12.4146 22.9108C12.8565 22.9379 13.296 22.9648 13.7301 23C14.5634 23.0333 15.4134 23.05 16.2801 23.05C17.6286 23.05 18.9771 23.0045 20.3103 22.9596L20.3104 22.9596L20.3106 22.9596L20.3107 22.9596L20.3109 22.9595C20.9548 22.9378 21.5951 22.9163 22.2301 22.9C22.7301 22.95 22.5801 22.55 22.4301 22.35C20.6271 19.9622 20.3438 19.9966 17.6459 20.3239L17.4301 20.35C14.2801 20.65 11.0801 20.9 7.93008 20.65C7.56342 20.6166 7.21343 20.5833 6.8801 20.55C6.7801 20.5 6.58008 20.45 6.58008 20.55C6.83008 21.3 7.5301 21.9 8.1301 22.35C9.50768 22.7327 10.9731 22.8225 12.4144 22.9108ZM21.6516 42.1909C21.4005 42.25 20.5969 41.7774 19.9941 41.3049C19.3914 40.8324 18.9896 40.3008 19.5421 40.3598C22.1712 40.5483 24.8003 40.2314 27.4163 39.9161L27.4164 39.9161C28.8985 39.7374 30.3764 39.5592 31.8477 39.4738C33.4875 39.3533 35.1314 39.218 36.7778 39.0825C43.2004 38.554 49.6605 38.0224 56.0571 38.3515C56.5594 38.5287 59.3721 40.537 57.815 40.3598C49.2262 40.537 40.6374 40.9505 32.0486 41.6002C31.1996 41.6703 30.3462 41.7559 29.491 41.8418C27.4623 42.0454 25.4235 42.25 23.4096 42.25C22.8403 42.25 22.2543 42.2303 21.6516 42.1909ZM37.73 24.4C37.43 25.25 37.18 26.15 37.38 27.05C38.08 28.7 39.88 29.75 41.53 30.15C42.33 30.1 39.98 28.3 39.68 28.25C39.58 26.8 40.08 24.5 41.78 24.35C41.78 23.872 41.0624 23.3562 40.612 23.0325C40.5442 22.9837 40.4824 22.9393 40.43 22.9C39.28 22 38.13 23.4 37.73 24.4Z" fill="black"/>
</svg>
