<svg width="110" height="100" viewBox="0 0 110 100" fill="none" xmlns="http://www.w3.org/2000/svg">
<path fill-rule="evenodd" clip-rule="evenodd" d="M38.642 5.60984C39.0035 6.22776 39.7935 6.60308 40.4149 6.79385C44.6767 5.83513 48.9361 4.49269 53.0882 3.18406L53.0889 3.18382L53.0907 3.18327C53.9189 2.92226 54.7427 2.66259 55.5615 2.40759C55.1831 1.69386 54.4081 1.29028 53.6863 0.914434L53.686 0.914318L53.6848 0.913675C53.5858 0.862106 53.4878 0.811056 53.3919 0.759795C52.9856 0.502729 52.5818 0.638466 52.1725 0.776023C52.0965 0.801572 52.0203 0.827185 51.9439 0.850354C50.0538 1.47754 48.1906 2.18038 46.3255 2.88395C43.9646 3.77455 41.6006 4.66634 39.1749 5.40733C39.1255 5.42934 39.0632 5.44081 38.9973 5.45296C38.8707 5.47629 38.7307 5.50211 38.642 5.60984ZM55.4843 26.9304C52.4721 26.3661 49.5988 25.3494 46.721 24.3312L46.7208 24.3311L46.7205 24.331L46.7203 24.3309L46.72 24.3308C46.225 24.1557 45.73 23.9805 45.234 23.8076C44.4429 23.5665 43.6335 23.3583 42.8234 23.1499C39.9226 22.4038 37.0133 21.6554 34.9077 19.3861C33.6287 18.2064 34.1046 16.4243 34.5013 14.9387C34.5325 14.8219 34.5632 14.7069 34.5925 14.5941C34.7748 14.0752 34.9022 13.517 35.0304 12.955C35.2622 11.9396 35.4968 10.9118 36.0627 10.0807C36.6999 9.91826 38.468 11.0525 38.6802 11.6849C38.6161 12.6223 38.4932 13.5462 38.3713 14.4627C38.2959 15.0296 38.2209 15.5936 38.1604 16.1562C38.1562 16.3678 38.1205 16.699 38.0791 17.0845C37.9529 18.2584 37.7726 19.9351 38.2586 20.266C39.8497 20.6137 41.4505 21.0609 42.9614 21.6173L42.9616 21.6173C46.2965 22.8504 49.6314 24.0834 53.1972 24.5908C54.2215 24.7926 55.212 24.646 55.1408 23.3971C55.1048 21.7942 54.8308 20.2144 54.5568 18.6347C54.2567 16.9044 53.9566 15.1742 53.9692 13.4136C53.9499 13.2145 53.9471 13.0139 53.9609 12.8116C53.9569 12.7701 53.9561 12.7392 53.9554 12.7161C53.9546 12.6829 53.9541 12.6655 53.9453 12.6554C53.9355 12.6443 53.9155 12.642 53.8735 12.6373L53.8734 12.6373C53.8524 12.635 53.8258 12.632 53.7923 12.627C51.7131 12.3078 49.6325 12.5408 47.5782 12.7709C46.8612 12.8512 46.1473 12.9311 45.4379 12.9871C43.9318 12.4805 42.5812 11.5066 41.5147 10.3544C41.2963 10.1747 40.9397 9.60654 41.4968 9.65285C47.5087 8.96789 53.2255 8.86419 57.4756 13.8262C57.977 14.44 57.9509 15.2216 57.9256 15.983L57.9256 15.9833C57.9221 16.0878 57.9187 16.1919 57.9166 16.2951C57.9269 17.9518 58.1364 19.5892 58.3458 21.2265L58.3458 21.2267C58.3928 21.811 58.5014 22.4371 58.6087 23.0563C59.0509 25.6067 59.4726 28.0383 55.4843 26.9304ZM24.0739 18.5304C21.3942 17.8364 18.0495 16.5038 17.0273 13.7398C16.8324 12.2516 18.1304 10.6184 19.6234 10.4732C21.0956 10.6315 22.4959 11.6005 23.4484 12.6131C23.4776 12.9134 23.1174 12.7371 22.8725 12.6172C22.7928 12.5781 22.7253 12.5451 22.6874 12.5364C21.3963 11.6572 20.3201 14.0225 20.3719 15.0724C20.3738 15.9993 20.4818 16.0236 21.1019 16.1627L21.102 16.1627L21.1021 16.1627C21.1876 16.1819 21.2827 16.2032 21.3887 16.2294C21.7965 16.2903 25.1688 18.4239 24.0739 18.5304ZM26.14 25.3124C23.857 25.0823 21.574 24.8521 19.432 24.0054C18.8069 23.7575 18.1896 23.4826 17.5709 23.2071C16.2762 22.6305 14.9753 22.0511 13.5825 21.7107C13.0198 21.5284 12.4311 21.5387 11.8451 21.5489C11.1888 21.5604 10.5359 21.5718 9.92683 21.3125C9.18657 20.9324 8.28733 20.4672 7.91133 19.7C8.98262 18.5293 10.3518 17.547 11.6855 16.5902C12.0478 16.3303 12.4075 16.0722 12.7579 15.8128C14.6276 14.3751 15.0997 14.5804 16.8117 16.1722C16.8135 16.1907 16.8298 16.2148 16.8472 16.2406C16.8765 16.284 16.909 16.3321 16.8808 16.3664C15.47 16.9815 14.2606 18.0075 13.0548 19.0305L13.0548 19.0305L13.0548 19.0306L13.0547 19.0306L13.0547 19.0306L13.0546 19.0307L13.0546 19.0307L13.0546 19.0307L13.0545 19.0308L13.0545 19.0308L13.0544 19.0308L13.0544 19.0309L13.0543 19.0309L13.0543 19.0309L13.0543 19.031L13.0542 19.031C12.6126 19.4057 12.1715 19.7799 11.7211 20.1334C13.0635 20.4706 14.3288 21.0221 15.5922 21.5729L15.5923 21.5729C17.0429 22.2053 18.4912 22.8367 20.0513 23.1414C20.625 23.2597 21.2251 23.3183 21.8249 23.3769C23.476 23.5382 25.1255 23.6993 26.2202 25.1037C26.3294 25.1935 26.3487 25.3926 26.14 25.3124ZM26.3927 16.5466C25.9953 18.1426 27.6942 19.0826 28.9916 19.509C29.0911 19.4994 29.2404 19.4848 29.1761 19.3404C29.0418 19.0955 29.1164 18.7763 29.1897 18.4626C29.2164 18.3486 29.2428 18.2354 29.2591 18.1267C29.465 17.4034 29.6585 16.6813 29.8521 15.9592L29.8521 15.9591C30.0456 15.237 30.2392 14.5149 30.4451 13.7915C30.4654 13.6556 30.5318 13.6492 30.6442 13.7722C31.5932 14.2325 32.6721 14.4793 33.6916 14.6313C35.074 14.8988 33.391 13.6056 33.0184 13.3907C32.1697 12.6282 31.0973 12.3563 30.0302 12.0858C29.5748 11.9703 29.1203 11.8551 28.6847 11.7021C28.5312 11.6368 28.3721 11.5506 28.2093 11.4624L28.2093 11.4624C27.7606 11.2194 27.2833 10.9609 26.8157 11.08C26.6609 12.0283 26.6158 13.026 26.5703 14.0345V14.0345C26.5325 14.8717 26.4943 15.7164 26.3927 16.5466ZM60.8583 10.3826C60.3364 10.1822 59.7005 9.84207 59.4531 9.36377C60.0064 9.07754 60.6599 8.90107 61.2886 8.73132C61.4751 8.68095 61.6595 8.63117 61.8384 8.57929C63.3387 8.1655 64.8669 7.86621 66.423 7.68143C67.343 7.84317 68.1572 8.46733 68.7723 9.11082C68.8269 9.15575 68.9908 9.29052 68.9507 9.39489C68.9603 9.49442 68.7613 9.51378 68.7115 9.51862C68.2438 9.5306 67.7777 9.55915 67.3133 9.6043C65.1588 9.66306 62.9692 9.87597 60.8583 10.3826ZM58.9062 25.4422C59.6437 26.8273 61.7296 28.1316 63.186 28.6431C65.054 28.1295 66.9507 27.911 68.8671 27.6903L68.8673 27.6903C69.5609 27.6104 70.2572 27.5302 70.9556 27.4356C74.2494 26.9781 73.8656 25.0882 73.3817 22.7064C73.3341 22.4718 73.2855 22.2323 73.2393 21.989L73.2386 21.9853L73.2384 21.9845C72.8268 19.8157 72.4151 17.6469 72.0532 15.4732C72.0515 14.5969 71.2896 14.1065 70.5991 13.662C70.4585 13.5716 70.3209 13.483 70.1932 13.3934L70.1663 13.3751C69.8495 13.1592 69.4819 12.9086 69.0901 12.8979C68.9707 12.9095 68.991 13.0361 69.0113 13.1627C69.0164 13.1944 69.0215 13.226 69.0244 13.2559C69.1737 14.447 69.2898 15.6414 69.3728 16.839C69.5018 18.1661 69.5811 19.498 69.6106 20.8347L69.6192 20.9833C69.6914 22.2069 69.7791 23.6936 68.3726 24.12C66.5836 24.7228 64.6823 24.8382 62.7729 24.9541C61.775 25.0146 60.7748 25.0753 59.7874 25.2058C59.6919 25.2552 59.5522 25.2609 59.4108 25.2666C59.1979 25.2752 58.9813 25.284 58.9062 25.4422ZM79.3549 45.1059C78.4864 44.8696 77.6736 44.5095 76.8596 44.1488C76.2711 43.8881 75.6821 43.6271 75.071 43.4125C73.5568 42.7631 71.9783 42.281 70.392 41.7966C69.1775 41.4257 67.9584 41.0534 66.7601 40.6035C64.9211 39.887 63.1649 38.9995 61.4124 38.1139C59.0352 36.9126 56.6649 35.7148 54.1038 34.9517C52.5439 34.4869 50.9752 34.06 49.4072 33.6332C46.5032 32.8429 43.6014 32.0531 40.7612 31.0244C39.983 30.7559 39.1849 30.5152 38.3837 30.2735L38.3836 30.2735C36.0275 29.563 33.6451 28.8445 31.6665 27.3874C31.6132 27.3435 31.556 27.2999 31.4976 27.2554C31.2569 27.0721 30.994 26.8719 30.8828 26.5593C30.9375 26.261 32.1297 26.8986 32.5861 27.1426L32.5861 27.1426C32.6773 27.1914 32.7392 27.2245 32.7565 27.2312C36.5118 28.5033 40.3571 29.4315 44.2005 30.3592C46.8432 30.9971 49.485 31.6348 52.0959 32.3839C54.47 33.1002 56.6801 34.1696 58.8913 35.2395C60.1989 35.8723 61.5069 36.5052 62.8494 37.0654L63.4397 37.2504C68.009 38.6822 72.5586 40.1077 76.7353 42.4469C77.3166 42.742 80.6488 44.9801 79.3549 45.1059ZM85.9457 45.7209C84.7209 46.0409 88.9717 48.9432 89.5689 48.8851C91.4645 48.2959 93.2936 47.4874 95.1256 46.6776L95.1257 46.6776C97.158 45.7793 99.1939 44.8794 101.328 44.2756C101.585 44.1394 101.977 44.0504 102.394 43.9556C103.296 43.7508 104.316 43.5192 104.342 42.7267C103.304 40.3158 101.025 38.5782 98.9697 37.07C98.5923 36.8053 96.7842 35.7754 97.8555 36.9774C97.9616 37.0806 98.144 37.2341 98.3673 37.4221C99.4283 38.3152 101.413 39.9863 100.532 40.736C99.7858 41.0783 98.989 41.2646 98.1989 41.4493C97.6646 41.5742 97.1334 41.6984 96.6231 41.8696C94.9507 42.4289 93.3061 43.0505 91.663 43.6715C89.7686 44.3875 87.8763 45.1027 85.9457 45.7209ZM94.2236 36.8281C93.3437 36.562 90.7566 34.7539 90.9585 33.7296C91.0509 33.0349 91.1586 32.3363 91.2667 31.6343C91.634 29.2504 92.007 26.8292 91.81 24.4034C89.0149 24.0723 86.125 23.8007 83.2787 23.9769C81.3526 24.0128 81.4147 26.6196 81.4629 28.6437C81.4787 29.3071 81.493 29.9079 81.4353 30.3351C81.4519 31.5392 81.3143 32.708 81.1319 33.9314C81.0869 33.986 81.0469 34.0904 81.1063 34.1851C81.1098 34.2208 81.1331 34.261 81.1574 34.303C81.2009 34.378 81.2475 34.4586 81.1899 34.5286C80.3937 34.606 78.9049 33.2437 78.439 32.5857C78.1855 31.9906 78.2446 31.344 78.3043 30.6899V30.6898C78.3366 30.3364 78.3691 29.9809 78.3526 29.6301C78.3222 28.6283 78.2475 27.6308 78.1729 26.6332C78.1356 26.1346 78.0983 25.6359 78.0665 25.1367C77.9082 22.992 77.9683 21.0269 80.6992 21.2136C82.9082 21.1997 85.0868 21.3898 87.3201 21.6248C90.0959 21.7569 93.0825 23.0238 94.4386 25.6047C94.8375 26.7767 94.816 28.0402 94.7946 29.3004V29.3005V29.3006V29.3007V29.3008V29.3008V29.3009V29.301V29.3011V29.3012V29.3013V29.3014V29.3014V29.3015V29.3016V29.3017V29.3018V29.3019C94.7858 29.8188 94.777 30.3352 94.7973 30.8446C94.7275 32.7101 94.6128 34.6302 94.4932 36.5005C94.489 36.5285 94.4858 36.5563 94.4827 36.5834C94.4629 36.7538 94.4467 36.8932 94.2236 36.8281ZM85.6505 30.255C87.0751 30.6063 88.5102 30.9602 89.9763 30.8611C91.4195 30.7207 86.4941 27.0803 85.8907 27.5911C84.6944 27.9717 83.4843 27.8129 82.279 27.6548C82.1096 27.6326 81.9403 27.6104 81.7712 27.5897C81.2127 28.0459 84.5097 30.4381 84.9783 30.0911C85.2022 30.1445 85.4262 30.1997 85.6505 30.255ZM82.9426 99.0616C78.3521 97.9085 73.9701 96.1291 69.5844 94.3482C66.3939 93.0526 63.2015 91.7563 59.9254 90.6997C57.9255 89.9465 55.9712 89.0499 54.0138 88.152L54.0135 88.1518L54.0133 88.1517L54.013 88.1516L54.0127 88.1514L54.0124 88.1513L54.0121 88.1511L54.0118 88.151L54.0115 88.1509L54.0112 88.1507L54.0109 88.1506L54.0106 88.1505L54.0103 88.1503L54.01 88.1502L54.0097 88.15L54.0094 88.1499C52.8552 87.6204 51.6999 87.0904 50.5336 86.5892C50.2634 86.4678 49.9256 86.3309 49.5507 86.1791C47.8849 85.5043 45.4875 84.5331 45.0401 83.3054C46.6763 83.8289 48.3141 84.468 49.9639 85.1118L49.964 85.1119C52.0782 85.9369 54.212 86.7696 56.3873 87.3764C57.249 87.6276 58.1096 87.8677 58.9702 88.1077C60.6914 88.5879 62.4126 89.068 64.1424 89.6366C64.522 89.7722 64.9018 89.9084 65.2817 90.0448C69.3289 91.4973 73.4021 92.9592 77.6938 93.6441C77.7587 93.6499 77.8266 93.6566 77.8967 93.6636C78.7025 93.7437 79.8019 93.853 80.0244 92.8147C80.1739 91.9557 80.1362 91.0811 80.0982 90.2021C80.0707 89.5647 80.0431 88.9251 80.0867 88.2874C80.333 82.8132 79.8522 77.3743 79.3718 71.94V71.9399L79.3717 71.9397C78.8603 66.1543 78.3493 60.374 78.7167 54.5617C79.9014 54.3461 82.3973 56.7659 83.1362 57.6485C83.5924 58.3753 83.7235 59.2803 83.8513 60.1618C83.9066 60.5438 83.9614 60.9213 84.0416 61.278C84.6005 65.034 84.9743 68.8081 85.3494 72.5954L85.3494 72.5955L85.3495 72.5957L85.3495 72.5959L85.3495 72.596L85.3495 72.5962L85.3496 72.5963L85.3496 72.5965L85.3496 72.5967L85.3496 72.5968L85.3496 72.597L85.3497 72.5971L85.3497 72.5973L85.3497 72.5975L85.3497 72.5976L85.3498 72.5978C85.5581 74.7016 85.7669 76.8094 86.008 78.9205C86.418 82.4867 86.392 86.0754 86.366 89.6567C86.3507 91.763 86.3355 93.8666 86.4089 95.9617C86.7538 98.9925 85.9852 99.871 82.9426 99.0616ZM91.161 92.1339C89.7275 92.3738 94.3204 95.6949 94.9128 95.5871C96.8968 95.357 98.7541 94.6721 100.61 93.9877C101.264 93.7467 101.917 93.5057 102.576 93.2847C103.061 93.1264 103.547 92.9757 104.031 92.8253L104.032 92.8251L104.033 92.8249L104.033 92.8246L104.034 92.8244L104.035 92.8242L104.036 92.8239C105.301 92.4313 106.56 92.0408 107.78 91.5229C108.796 91.1227 109.653 90.6375 109.482 89.3982C109.428 88.7225 109.374 88.0466 109.32 87.3703C108.66 79.1164 107.998 70.8232 106.825 62.5795C106.588 60.7707 106.296 58.9673 106.005 57.175L106.005 57.1746L106.005 57.1742C105.818 56.0176 105.631 54.8657 105.461 53.7199C105.44 53.357 105.389 52.9844 105.337 52.6089C105.211 51.6921 105.082 50.7585 105.392 49.9087C105.282 49.26 104.153 48.5779 103.484 48.174L103.439 48.1466L103.357 48.0971C103.089 47.9222 102.671 47.7619 102.61 48.1697C102.447 49.2026 102.541 50.2669 102.635 51.3243C102.666 51.6771 102.697 52.0291 102.718 52.379C103.576 60.6849 103.886 69.0442 103.848 77.4372C103.911 80.1439 104.122 82.8361 104.338 85.578C104.349 85.7815 104.37 85.9715 104.389 86.1499C104.479 86.9787 104.542 87.5561 103.476 88.0732C102.192 88.7881 100.811 89.2486 99.4248 89.7109C98.8046 89.9177 98.1832 90.125 97.569 90.3555C95.4871 91.1607 93.3362 91.7717 91.161 92.1339ZM43.3151 47.5752H43.315C42.4207 47.6127 41.5316 47.65 40.6804 47.7606C39.6996 48.0067 36.6162 45.7444 36.3204 44.7684C36.3089 44.6503 36.403 44.6477 36.5167 44.6446H36.5169C36.5468 44.6438 36.5782 44.6429 36.6093 44.6399C37.216 44.6813 37.8131 44.6233 38.4101 44.5653L38.4105 44.5652C38.9324 44.5332 39.3864 44.4868 39.7946 44.4451C41.5739 44.2634 42.4833 44.1705 44.3527 45.7458C44.6754 45.9656 46.4725 47.3984 45.4724 47.4454C44.7616 47.5145 44.037 47.5449 43.3157 47.5752H43.3157H43.3156H43.3156H43.3155H43.3155H43.3154H43.3153H43.3153H43.3152H43.3152H43.3151H43.3151ZM40.209 52.7297C42.6842 55.453 45.0909 55.9223 48.533 56.1904C49.8269 56.0647 46.2376 53.2488 45.8152 53.0387C44.9412 52.4394 43.9048 52.2971 42.8711 52.1551C41.9315 52.0261 40.994 51.8974 40.1828 51.4261C40.019 51.2913 39.5966 51.0812 39.3623 51.2547C39.1532 51.6457 39.666 52.169 40.0134 52.5235C40.0897 52.6015 40.1581 52.6713 40.209 52.7297ZM45.3076 63.8384L45.076 63.8503C42.9744 63.9588 40.5092 64.0862 38.9881 62.3932C38.9335 62.3482 38.2091 61.6149 38.4531 61.5409C39.5291 61.9712 40.6517 61.8401 41.7678 61.7097C42.2241 61.6564 42.6792 61.6033 43.1297 61.5886C43.4829 61.6045 46.2532 63.7465 45.3076 63.8384ZM17.7696 36.8766C17.3459 37.169 19.1638 38.2984 19.5218 38.364C22.2105 37.6003 25.0374 37.225 27.8195 36.9042C28.6234 36.8151 29.4282 36.7091 30.2332 36.603L30.2334 36.603C33.1109 36.2239 35.9923 35.8442 38.8563 36.2331C40.1343 36.4605 37.8506 34.6731 37.4829 34.5079C35.4302 33.366 31.4065 34.1523 27.9851 34.8209L27.985 34.821C26.5379 35.1038 25.1986 35.3655 24.1617 35.4514C21.9865 35.8136 19.8162 36.2255 17.7696 36.8766ZM20.7405 78.2833C14.1859 79.0712 7.65699 75.9886 3.60112 70.9574C-0.35385 65.4141 0.268915 57.8684 1.92292 51.6291C2.77722 48.5319 4.46164 45.7056 6.92019 43.6079C10.0174 40.8452 13.7187 39.129 17.0177 42.576C17.1815 42.7107 17.901 43.3943 17.2396 43.3079C13.5535 43.1137 10.757 46.9021 8.80919 49.6032C5.36502 55.5143 3.80848 67.9231 8.32054 73.5127C9.95946 75.4679 13.279 75.2452 16.0677 75.0581C16.8567 75.0052 17.6031 74.9551 18.257 74.958C23.2419 75.0762 27.3392 72.2665 30.1212 68.3288C34.8434 62.6452 33.1058 54.0731 28.7623 48.6681C27.928 47.5492 26.852 46.6554 25.7797 45.7646L25.7797 45.7646C24.9217 45.0519 24.0661 44.3411 23.3386 43.5187C22.5126 41.7403 27.2936 45.4451 27.4767 45.7789C35.3763 51.5918 40.686 63.8354 33.8764 72.3342C30.5698 77.0765 26.2775 78.398 20.7405 78.2833ZM59.6183 81.3355C59.2236 81.9264 60.9032 82.6674 61.3656 82.7731C61.4861 82.7911 61.5236 82.6767 61.5629 82.5566C61.5901 82.4736 61.6182 82.3878 61.6752 82.3411C62.0135 81.51 62.3439 80.6796 62.6731 79.8525L62.6732 79.8522L62.6733 79.852L62.6734 79.8517L62.6735 79.8515L62.6736 79.8512L62.6737 79.851L62.6738 79.8507L62.6739 79.8505C63.173 78.5962 63.669 77.3495 64.1849 76.1191C64.2506 75.7611 62.1052 74.3621 62.0685 75.0187C61.2336 77.1093 60.4168 79.2149 59.6183 81.3355ZM68.787 85.2166C67.8028 84.9104 66.6499 84.4197 66.0652 83.5723C66.3185 82.8277 66.6077 82.0914 66.8978 81.3527L66.8978 81.3526L66.8978 81.3526L66.8979 81.3525L66.8979 81.3524L66.8979 81.3523L66.8979 81.3523L66.898 81.3522C67.458 79.9261 68.0216 78.4913 68.3371 76.9715C68.6965 76.5347 71.0956 77.9592 71.2435 78.4472C70.9109 80.0494 70.3072 81.6054 69.7057 83.1558L69.7056 83.1559C69.441 83.8379 69.1768 84.5188 68.9363 85.2021L68.787 85.2166ZM14.9329 55.2372C13.1102 61.2919 17.2076 65.7162 22.7855 67.2838C23.8706 67.0779 20.264 65.1177 19.8562 65.0568C18.1103 63.1167 17.5359 60.3091 18.0404 57.7483C18.0783 57.5478 18.1136 57.3343 18.1501 57.1134L18.1501 57.1133L18.1502 57.1132C18.3373 55.9803 18.5566 54.6532 19.3247 53.9059C19.6386 53.6191 18.5754 52.9939 18.0853 52.7057L18.0853 52.7057L18.0849 52.7054L18.0841 52.705C17.9984 52.6546 17.9304 52.6146 17.8905 52.5885C17.8278 52.555 17.7641 52.5199 17.6995 52.4842C17.2724 52.2485 16.8053 51.9908 16.3298 52.037C15.5651 52.6031 15.3157 53.6542 15.0888 54.6106C15.0376 54.8265 14.9875 55.0376 14.9329 55.2372ZM24.9841 61.9965C22.5829 61.2327 22.3156 60.0713 21.938 58.4312C21.802 57.8405 21.6517 57.1877 21.3823 56.469C21.3146 55.7723 23.9466 57.5259 23.7911 57.9931C23.8101 58.1883 24.038 58.7591 24.2982 59.4107C24.7678 60.5868 25.3425 62.0263 24.9841 61.9965ZM32.6857 76.6196C33.285 77.6163 34.4026 78.2611 35.4415 78.6123C38.351 78.0796 41.2434 77.3713 44.1182 76.6673L44.1185 76.6672C45.2914 76.38 46.4614 76.0934 47.6284 75.8199C49.0887 75.4202 50.6006 75.103 52.1054 74.7872L52.1054 74.7872L52.1055 74.7872L52.1056 74.7872L52.1056 74.7871L52.1057 74.7871L52.1058 74.7871L52.1059 74.7871L52.106 74.787C53.8284 74.4256 55.5415 74.0661 57.1571 73.5873C56.598 72.4863 54.7207 71.2622 53.4925 71.03C49.2699 71.8502 45.1314 73.0569 40.992 74.2638L40.9918 74.2638L40.9912 74.264L40.9908 74.2641C39.0405 74.8327 37.09 75.4014 35.1304 75.9298C34.7862 76.0523 34.409 76.1385 34.0327 76.2246C33.5596 76.3327 33.088 76.4405 32.6857 76.6196ZM56.1242 69.1666C54.822 68.6904 53.3767 67.7759 52.6537 66.5401C52.7392 64.7577 52.9889 62.9865 53.2404 61.2022C53.3307 60.5614 53.4213 59.9189 53.5046 59.2737C54.2552 54.0766 52.5977 48.9128 49.6692 44.6261C49.3798 44.2498 49.1041 43.8499 48.8264 43.4472C48.0002 42.2491 47.1565 41.0256 45.885 40.322C45.2138 40.1361 42.315 37.7052 44.6754 38.7316C50.697 41.7632 55.7157 49.4637 57.1008 55.9601C57.7523 59.1668 57.2944 62.4096 56.8424 65.6103L56.8423 65.6113C56.7596 66.1964 56.6772 66.7801 56.6018 67.3619C56.5666 67.4725 56.5519 67.6978 56.5353 67.9531C56.4972 68.5356 56.449 69.2747 56.1242 69.1666ZM61.8578 49.3722C65.8894 50.7383 69.9548 52.1158 73.8682 53.7775C75.1717 53.7512 72.7595 51.6749 72.3821 51.4102C69.7771 49.1437 66.454 48.1965 63.1885 47.2656C62.8082 47.1572 62.4286 47.049 62.051 46.9389C61.3252 46.7315 60.6157 46.5043 59.909 46.278L59.909 46.278L59.909 46.278C58.9553 45.9726 58.0068 45.6689 57.0302 45.4176C55.1661 44.8453 57.9253 47.3902 58.4022 47.6453C59.2164 48.2694 60.135 48.9336 61.1593 49.1355L61.8578 49.3722ZM89.7285 57.7612C89.1264 57.7695 85.4362 55.4658 86.1937 54.9902C88.0111 54.6283 89.7464 54.0087 91.4719 53.3926C92.5538 53.0063 93.6318 52.6213 94.7237 52.3022C94.973 52.244 95.219 52.1516 95.4631 52.0598C95.9404 51.8805 96.4106 51.7039 96.8843 51.7907C97.8236 52.1515 99.8405 53.2616 100.087 54.2424C96.7944 55.5169 93.2985 56.761 90.0174 57.6326C89.9514 57.7561 89.9037 57.7566 89.8157 57.7574C89.7904 57.7577 89.7618 57.758 89.7285 57.7612ZM5.82482 34.9231C6.59757 36.1541 8.1776 36.9048 9.52472 37.3264C9.8122 37.4368 9.93417 36.8249 10.0362 36.313C10.0823 36.0815 10.1244 35.8705 10.1758 35.756C10.2885 35.152 10.4377 34.534 10.5889 33.9082C11.014 32.1486 11.454 30.3272 11.1359 28.5795C14.7307 29.3854 18.2551 30.4996 21.7041 31.8722C21.8686 31.8888 22.3648 32.058 22.9584 32.2604C24.1958 32.6823 25.8568 33.2486 25.8208 32.8786C25.6014 32.2621 25.0242 31.8702 24.4975 31.5126C24.3605 31.4195 24.2269 31.3288 24.1039 31.2371C22.7933 30.2257 21.2391 29.7484 19.6841 29.2708C19.1126 29.0953 18.541 28.9198 17.9814 28.7177C14.5227 27.2455 11.0288 25.9274 7.26387 25.4394C6.54297 25.2583 5.73704 25.2362 6.57061 26.0594C6.96736 26.5232 6.93556 27.2296 6.88925 27.7867C6.80992 29.4417 6.51479 31.0473 6.21783 32.6629C6.08011 33.4122 5.94199 34.1637 5.82482 34.9231Z" fill="black"/>
</svg>
