<svg width="124" height="83" viewBox="0 0 124 83" fill="none" xmlns="http://www.w3.org/2000/svg">
<path fill-rule="evenodd" clip-rule="evenodd" d="M65.7244 74.0196C64.2744 73.3196 62.7244 72.1196 62.0244 70.6196C62.0244 68.1196 62.4244 65.6696 62.9744 63.3196C65.1744 54.3196 68.9244 45.4196 74.8244 38.2196C76.1744 36.9196 77.2244 35.6196 77.7244 33.7196C79.8744 28.6196 83.2744 23.9196 87.8244 20.7196C90.1744 18.9196 93.2244 18.0696 95.9244 17.4696C97.9244 11.8696 102.374 7.66957 107.074 4.21957C108.674 3.01969 110.324 1.81983 111.974 0.619954L111.974 0.619577C112.308 0.577823 112.642 0.815016 112.918 1.01086L112.918 1.01095L112.919 1.01137C112.973 1.04986 113.025 1.08674 113.074 1.11958C113.184 1.21353 113.338 1.33078 113.513 1.46441C114.457 2.18416 116.024 3.37918 114.674 3.96957C113.895 4.5931 113.1 5.21112 112.302 5.83198L112.302 5.83203L112.302 5.8321L112.301 5.83219L112.301 5.83231C107.721 9.39333 103.022 13.0476 100.424 18.3696C104.224 20.3696 107.474 24.1696 107.174 28.6196C107.124 31.0196 105.724 33.9696 103.024 33.9196C97.4744 32.9696 93.4744 26.8196 94.8744 21.3196C89.9244 23.2696 86.1244 27.2696 83.4244 31.7196C83.4244 31.7707 83.3256 31.9206 83.2192 32.0822C83.0134 32.3945 82.779 32.7502 83.1744 32.5196C88.1244 32.0696 92.6244 37.2696 92.9244 41.9696C93.2244 55.5696 80.9244 56.2696 76.4744 44.5696C70.5744 53.1696 66.4244 64.0196 65.7244 74.0196ZM45.9894 69.0149C45.8842 68.9202 45.7613 68.8211 45.6324 68.7171C45.1483 68.3268 44.5788 67.8676 44.5393 67.3149C44.8393 67.2649 44.9394 66.8149 44.9894 66.5649C46.4894 60.2149 43.8393 43.4149 35.7893 42.8149C38.2393 47.1149 39.0893 52.6149 36.7893 57.1649C33.9893 62.9149 27.1393 63.9649 23.0393 58.8649C17.8893 53.6149 22.2894 43.9149 27.7394 40.5649C28.9894 39.8149 30.4894 39.4149 31.9394 39.4649C32.106 39.5315 32.1393 39.4982 32.0393 39.3649C30.3393 36.7149 28.4393 33.9149 25.6393 32.3149C25.3893 35.7149 24.4894 39.5149 21.7394 41.7649C17.8394 44.9649 11.9393 41.6649 10.6393 37.3149C9.68935 31.2649 15.9393 26.3149 21.5893 28.9149C21.6636 28.9434 21.728 28.9694 21.784 28.9919C21.9699 29.0667 22.0617 29.1037 22.106 29.0727C22.1492 29.0424 22.147 28.9474 22.1427 28.7597V28.7597V28.7596V28.7596V28.7595V28.7595C22.1412 28.6908 22.1393 28.6097 22.1393 28.5149C21.6893 22.0649 17.7394 16.1649 13.1894 11.7649C3.98935 2.91487 25.3393 17.4149 25.6393 31.0649C28.8893 33.4149 31.5393 36.4649 33.8393 39.7149C44.0893 43.2649 49.1394 55.5649 47.9394 65.7649C47.8891 65.9559 47.8469 66.256 47.7982 66.6027C47.6046 67.9804 47.3076 70.0935 45.9894 69.0149ZM99.5248 20.4696C98.6748 22.5696 97.1248 29.5696 99.5748 30.6196C101.925 30.7196 103.475 28.3196 103.725 26.2196C104.025 23.0196 103.375 19.8196 99.5248 20.4696ZM14.6245 39.9196C19.1245 39.9696 21.4745 34.8196 21.7745 31.0696C17.8245 30.3196 14.4745 33.7196 13.8245 37.3696C13.8091 37.5163 13.7829 37.6857 13.755 37.8661C13.6023 38.854 13.3984 40.1733 14.6245 39.9196ZM33.1746 42.9196C26.9246 44.4696 22.6246 52.6696 24.3746 58.7696C32.6246 60.5696 36.6246 49.1696 33.6246 42.8196C33.4913 42.853 33.3413 42.8863 33.1746 42.9196ZM88.4746 35.8196C90.6246 40.7696 88.3246 49.0196 82.2246 49.4696C79.1246 49.7696 79.4746 42.3696 79.9246 40.3196C82.2246 38.1196 85.0746 35.4196 88.4746 35.8196ZM56.2399 45.1648C55.0399 44.6648 51.5899 42.0648 51.9399 40.7648C55.1399 32.7648 53.8399 24.1148 50.9899 16.2148C50.9548 16.1025 50.9108 15.9775 50.8654 15.8481L50.8653 15.8478C50.5867 15.0549 50.2505 14.0982 51.5398 14.9148C55.4602 16.8529 56.4701 20.9254 57.4413 24.8416C57.5725 25.3708 57.703 25.897 57.8399 26.4148C59.5398 32.4648 58.6899 39.9148 56.2399 45.1648ZM27.8831 77.4067C28.5941 78.8584 29.2964 80.2923 30.8396 81.0147C30.7896 77.6147 24.6896 70.5147 22.1397 67.7147C16.3397 61.6647 9.43966 56.7647 1.48966 54.0647C-0.210343 53.5147 2.43965 56.4647 2.88965 56.8647C4.43515 58.476 6.49967 59.2222 8.5712 59.971C9.64952 60.3607 10.7297 60.7512 11.7397 61.2647C14.1897 62.3647 16.3396 63.9147 18.3396 65.6647C21.6896 68.3147 24.3397 71.6647 26.6397 75.2147C27.1374 75.8841 27.5115 76.6478 27.8831 77.4067ZM84.1398 82.8148C83.1398 82.2648 81.7398 81.3148 81.5898 80.0648C82.4398 77.2648 84.2399 74.8148 85.9899 72.5148C91.1898 66.1648 98.1399 61.4148 105.49 58.0148C106.332 57.6701 107.16 57.2669 107.987 56.8639C109.32 56.2145 110.651 55.5659 112.04 55.1648C113.44 55.8648 115.74 57.6648 115.99 59.2148C103.89 64.0148 90.3898 70.1648 84.3898 82.4648C84.4898 82.6648 84.3398 82.8648 84.1398 82.8148ZM30.6895 9.96486C29.0895 12.9649 32.6395 15.6149 34.7895 17.2149C37.0895 18.8649 38.4895 14.9149 37.6395 13.1649C36.3895 11.1649 34.4395 9.56486 32.4395 8.41486C31.6203 8.18728 31.1324 9.11987 30.7875 9.77931C30.7535 9.84427 30.7209 9.90657 30.6895 9.96486ZM119.34 44.5147C119.152 44.3339 118.951 44.1486 118.744 43.9581C117.408 42.7262 115.836 41.2767 116.14 39.4147C118.29 37.0647 122.89 41.8647 123.49 43.9647C123.34 46.1647 120.49 45.6647 119.34 44.5147ZM3.18954 70.4147C2.73954 72.7647 7.48954 77.0147 9.63954 77.5147C10.3395 77.5147 10.7895 77.0647 11.0395 76.4647C11.6083 74.9208 10.3944 73.641 9.32917 72.518C9.08348 72.259 8.8457 72.0083 8.63954 71.7647C8.57582 71.7057 8.50866 71.643 8.43838 71.5774C7.01959 70.2536 4.33291 67.7468 3.18954 70.4147Z" fill="black"/>
</svg>
