<svg width="94" height="87" viewBox="0 0 94 87" fill="none" xmlns="http://www.w3.org/2000/svg">
<path fill-rule="evenodd" clip-rule="evenodd" d="M70.5526 79.8722C69.4025 79.3722 68.2025 78.4722 67.6525 77.3722C68.0424 76.8923 68.4863 76.4664 68.9303 76.0405L68.9303 76.0404L68.9304 76.0403L68.9305 76.0402C69.2265 75.7562 69.5225 75.4722 69.8026 75.1722C75.3526 69.6222 80.6526 63.7722 85.5026 57.6222C85.6792 57.3959 85.859 57.1672 86.0404 56.9364C89.507 52.5275 93.5792 47.3484 87.4025 43.0722C81.4945 38.3629 75.2282 34.1587 68.966 29.9574C64.2577 26.7985 59.5519 23.6413 55.0026 20.2722C49.0794 15.9718 44.1108 10.651 39.162 5.35135C38.0117 4.11946 36.8624 2.88872 35.7025 1.67222C35.5842 1.53909 35.4396 1.41471 35.2946 1.29003L35.2946 1.29C34.9496 0.993232 34.6025 0.694705 34.6025 0.272222C34.6374 0.237361 34.6966 0.251112 34.7462 0.262635L34.7462 0.262638C34.7677 0.267641 34.7874 0.272222 34.8026 0.272222C36.481 1.01387 37.7633 2.42592 39.0063 3.79469C39.3555 4.17922 39.7016 4.56034 40.0526 4.92222L40.0533 4.92304L40.0533 4.92306C42.0531 7.17278 44.0528 9.42249 46.1525 11.5222C51.4525 17.0222 57.7025 21.4722 64.1025 25.6222C65.9775 26.9097 67.8619 28.1847 69.7462 29.4597C75.3994 33.2847 81.0525 37.1097 86.4525 41.2722C93.8025 47.0222 96.6025 50.2722 89.9025 58.3722C83.9525 65.9222 77.7525 73.6722 70.5526 79.8722ZM39.2021 56.0721C37.4021 55.1721 35.8521 53.7221 34.6021 52.1721C34.1021 51.5221 33.7021 50.8721 33.6021 50.0221C33.5021 47.8721 35.9021 45.5221 38.1021 46.0221C40.2021 46.7221 43.7521 50.0721 44.1021 52.3221C44.4021 55.1721 41.9521 57.3221 39.2021 56.0721ZM34.2522 41.6722C34.9522 42.4722 35.8522 43.1722 36.8522 43.5222C36.8561 43.5222 36.8604 43.5225 36.8649 43.523C36.8733 43.524 36.8825 43.5257 36.8923 43.5275C36.9446 43.5371 37.0134 43.5497 37.0522 43.4722C37.0522 43.4472 37.0397 43.3972 37.0272 43.3472C37.0147 43.2972 37.0022 43.2472 37.0022 43.2222C36.2294 38.6765 35.8699 34.1307 35.5104 29.585C35.4744 29.1307 35.4385 28.6765 35.4022 28.2222C34.9022 22.8722 34.2522 17.5222 33.5522 12.2222C33.2522 10.2722 32.9022 8.32218 32.5522 6.42218C32.5154 6.31174 32.4989 6.2013 32.4828 6.09335C32.4551 5.90807 32.4286 5.73014 32.3022 5.57217C32.2464 5.52756 32.1882 5.47797 32.128 5.42674C31.9183 5.24829 31.6852 5.04986 31.4521 4.97217C31.3729 5.01181 31.3879 5.11432 31.3975 5.18C31.4 5.19716 31.4022 5.21181 31.4022 5.22217C31.4522 5.77217 31.5147 6.33467 31.5772 6.89717C31.6397 7.45967 31.7022 8.02217 31.7522 8.57217C31.9989 11.0389 32.0994 13.5543 32.1981 16.0222L32.1981 16.0223L32.1982 16.0224L32.2021 16.1222L32.2023 16.125L32.2023 16.1251C32.4523 19.9741 32.7022 23.8232 32.8022 27.6722C32.9522 31.4722 33.2021 35.2222 33.7021 38.9722C33.7688 39.5388 33.8521 40.1222 33.9521 40.7222C33.9864 40.825 34.0089 40.9395 34.0318 41.0558C34.0757 41.2787 34.1207 41.5079 34.2522 41.6722ZM49.2022 53.1222C48.7022 53.1222 46.0522 51.2722 46.7522 51.0722C47.6095 50.9747 48.4667 50.8621 49.3269 50.7492L49.3275 50.7491C50.6747 50.5721 52.0291 50.3942 53.4022 50.2722C54.352 50.1704 55.3025 50.068 56.2535 49.9655L56.2538 49.9655C63.7133 49.1618 71.2077 48.3543 78.7022 47.8222C79.1864 47.7876 79.6766 47.759 80.1707 47.7301L80.1717 47.7301C81.1059 47.6756 82.0541 47.6203 83.0022 47.5222C83.279 47.5406 83.5625 47.5114 83.8454 47.4823C84.329 47.4325 84.8105 47.3829 85.2522 47.5722C86.2022 48.0722 87.2022 48.7222 87.8022 49.6222C87.9094 49.8009 87.4799 49.8263 87.1715 49.8445C87.0486 49.8518 86.9449 49.8579 86.9022 49.8722C74.3022 50.7722 61.7022 51.7222 49.2022 53.1222ZM37.5022 73.8721C43.8522 78.3221 50.4522 82.7721 57.8022 85.3721C61.9826 86.7656 63.3463 85.7618 65.6976 84.0311C66.3836 83.5262 67.1536 82.9594 68.1022 82.3721C68.0022 81.4721 65.4022 80.1221 64.3022 79.7721C64.1022 79.7221 64.0022 79.7721 63.8522 79.8721C62.8189 80.5055 61.8189 81.1721 60.8522 81.8721C57.2279 85.4542 50.62 81.3286 46.1478 78.5363C45.314 78.0157 44.5544 77.5414 43.9022 77.1721C38.9022 73.8721 33.9522 70.5221 29.1522 66.9721C22.2022 61.5221 15.3022 55.9721 8.65219 50.2221C3.15219 45.3721 2.70222 43.5221 5.80222 36.8721C8.05222 31.6721 10.8022 26.6721 13.9022 21.9721C17.0022 17.2221 20.2522 12.5721 23.5522 7.97211C24.8022 6.17211 26.0022 4.32211 27.0522 2.32211C27.0522 2.3014 27.0608 2.28069 27.0708 2.25643C27.0851 2.22213 27.1022 2.18071 27.1022 2.12213C27.1522 2.07213 27.0022 1.97211 27.0022 1.97211C26.4022 1.52211 25.7522 1.07212 25.0022 0.922119C24.7187 1.34742 24.4575 1.80622 24.1922 2.27213C23.8962 2.79215 23.5951 3.32104 23.2522 3.82211C21.7947 6.00841 20.1712 8.10251 18.5497 10.194C17.5012 11.5464 16.4536 12.8977 15.4522 14.2721C10.3522 21.0221 5.50222 28.0721 2.30222 35.9721C1.50222 37.8721 0.702228 39.8221 0.752228 41.9221C1.15122 45.1141 4.67047 48.0513 7.54967 50.4544C8.27853 51.0627 8.96638 51.6368 9.55222 52.1721L19.3522 60.3721C25.2522 65.0721 31.1522 69.7721 37.5022 73.8721Z" fill="black"/>
</svg>
