<svg width="187" height="147" viewBox="0 0 187 147" fill="none" xmlns="http://www.w3.org/2000/svg">
<path fill-rule="evenodd" clip-rule="evenodd" d="M68.1333 4.85861C62.3833 2.60861 64.7333 -2.19139 67.4833 1.75861C67.4833 1.89306 67.3728 1.84674 67.2284 1.78619C67.0506 1.71163 66.8213 1.61548 66.6833 1.80862C66.1333 2.35862 65.8333 3.10862 66.7833 3.30862C67.0833 3.45862 68.5833 4.70861 68.1333 4.85861ZM47.083 42.4086C46.233 41.9586 45.233 41.1586 45.083 40.1586C45.1739 38.0229 45.5951 35.8872 46.009 33.7891C46.0505 33.5785 46.092 33.3684 46.133 33.1586C48.083 22.8586 53.783 13.8586 60.883 6.40859C61.433 5.75859 62.933 7.70859 63.233 8.15859C63.3612 8.47914 62.9757 8.84079 62.6166 9.17766C62.4155 9.36625 62.2227 9.54708 62.133 9.70858C53.333 18.9086 48.233 29.9086 47.083 42.4086ZM52.2333 43.7587C51.4833 43.3587 49.5333 42.0587 50.4333 41.1587C54.2833 35.8587 59.9333 32.0587 65.5833 28.8587C70.2333 26.3087 75.2833 24.7587 80.3833 23.3087C81.0333 23.3087 83.9333 25.8587 82.8833 26.1087C71.3333 28.7587 59.4333 34.1587 52.2333 43.7587ZM40.4594 38.4389C40.7262 39.9151 40.9922 41.3868 42.5831 42.0586C42.5831 38.0805 40.2822 34.0338 38.185 30.3453L38.1849 30.3452C37.7516 29.5831 37.327 28.8363 36.9332 28.1086C34.0832 22.7086 29.8831 18.2086 24.3831 15.5586C23.6331 15.1086 23.9331 15.8086 24.1831 16.0586C25.1203 17.3585 26.496 18.1101 27.8795 18.8658L27.8795 18.8659L27.8795 18.8659L27.8795 18.8659L27.8796 18.8659L27.8796 18.8659L27.8796 18.8659L27.8796 18.8659L27.8796 18.8659L27.8797 18.866L27.8797 18.866L27.8797 18.866L27.8797 18.866L27.8797 18.866L27.8797 18.866L27.8798 18.866L27.8798 18.866L27.8798 18.866L27.8798 18.8661L27.8798 18.8661L27.8798 18.8661L27.8799 18.8661L27.8799 18.8661L27.8799 18.8661L27.8799 18.8661L27.8799 18.8661L27.8799 18.8661L27.88 18.8662L27.88 18.8662L27.88 18.8662L27.88 18.8662L27.88 18.8662L27.88 18.8662L27.8801 18.8662L27.8801 18.8662L27.8801 18.8662L27.8801 18.8663L27.8801 18.8663L27.8801 18.8663L27.8802 18.8663L27.8802 18.8663L27.8802 18.8663L27.8802 18.8663C28.7848 19.3604 29.6926 19.8564 30.4831 20.5086C32.9409 23.0053 34.6681 26.1109 36.3773 29.1839L36.3774 29.1841L36.3775 29.1843C36.8588 30.0497 37.3387 30.9126 37.8331 31.7586C38.6831 33.3086 39.4332 34.9586 40.0331 36.6586C40.2382 37.2151 40.3488 37.8274 40.4594 38.4389ZM38.083 45.4586C36.4991 44.4278 35.2818 42.9546 34.056 41.4711C32.8441 40.0043 31.6239 38.5276 30.033 37.4586C25.6259 33.4482 20.8692 32.7396 15.5233 31.9431L15.5232 31.9431L15.5232 31.9431C14.804 31.836 14.0741 31.7272 13.333 31.6086C12.783 31.3586 9.483 28.3086 10.833 28.3586C17.883 28.8086 24.683 31.2086 29.883 36.1086C32.933 38.6086 35.583 41.5586 37.983 44.7086C38.133 44.8586 38.583 45.5086 38.083 45.4586ZM10.8833 56.1087C11.1333 57.1087 12.2333 57.9087 13.0833 58.3587C14.3743 57.5691 15.7153 56.6111 17.1012 55.6212C22.2098 51.9718 27.9264 47.8881 33.9833 50.2086C33.9333 48.8086 31.1833 47.4587 29.7833 47.3587C23.1645 46.8147 17.5323 51.0797 12.4393 54.9365C11.9151 55.3334 11.3966 55.7261 10.8833 56.1087ZM29.883 78.2087C26.733 76.4087 26.883 75.8087 27.783 72.6087C29.183 67.0587 31.683 61.7087 35.533 57.5087C35.7159 57.3486 35.9302 57.1206 36.1651 56.8706L36.1651 56.8706L36.1652 56.8705L36.1653 56.8704C36.9577 56.0272 37.9846 54.9345 38.833 55.3587L38.946 55.4391C39.7169 55.9869 41.4255 57.2009 41.283 58.0087C40.983 58.142 40.7163 58.3087 40.483 58.5087C35.783 62.3587 32.933 68.1087 31.183 73.8587C30.783 75.2587 30.4163 76.6754 30.083 78.1087C30.044 78.2258 30.0049 78.221 29.9421 78.2133C29.9245 78.2111 29.9049 78.2087 29.883 78.2087ZM59.1002 74.6227C59.5006 76.6688 59.9063 78.7419 62.0331 79.6586C61.6331 72.1086 56.1331 64.3086 50.6831 58.8586C50.1331 58.4086 49.8831 58.6586 50.3331 59.2086C53.6831 63.1586 57.0331 67.4586 58.5831 72.4586C58.8097 73.1385 58.9546 73.8788 59.1002 74.6227ZM47.2332 73.0587C46.1832 72.4586 44.7332 71.4587 44.5832 70.1587C44.6832 67.8587 44.6832 65.5587 43.9832 63.3087C43.7908 62.5392 44.8473 63.3887 45.1507 63.6326L45.1832 63.6587C47.6871 65.3744 47.611 68.6811 47.5468 71.4653C47.5418 71.6833 47.5368 71.8981 47.5332 72.1087C47.4999 72.192 47.4999 72.3309 47.4999 72.4772C47.4999 72.7698 47.4999 73.092 47.2332 73.0587ZM57.3329 41.8587C56.6329 42.0587 58.9829 44.0087 59.4329 43.9587C60.4914 43.823 61.4468 43.3189 62.403 42.8145L62.403 42.8144C63.2084 42.3896 64.0143 41.9644 64.8829 41.7587C67.132 41.0702 69.4654 40.8452 71.8056 40.6195C72.0147 40.5993 72.2238 40.5792 72.4329 40.5587C72.5329 40.5587 72.6829 40.5587 72.6329 40.3587C71.1337 37.7943 69.4789 38.1249 67.3491 38.5505C66.7797 38.6643 66.1763 38.7849 65.5329 38.8587C63.6329 39.2087 61.7829 39.8087 60.1329 40.7587C59.8348 40.8746 59.5368 41.0618 59.2351 41.2513C58.6258 41.6339 58.0017 42.0259 57.3329 41.8587ZM55.633 31.5587C52.333 29.4087 50.433 27.6087 54.283 24.6587C54.6123 24.4333 54.9356 24.154 55.2612 23.8726C55.875 23.3422 56.497 22.8046 57.183 22.6086C58.583 23.3586 60.033 24.6086 60.583 26.1086C60.1627 26.5589 59.5667 27.0182 58.9398 27.5014C57.4781 28.6278 55.848 29.8841 55.883 31.4586C55.883 31.6586 55.733 31.6087 55.633 31.5587ZM40.4329 21.4087C40.5829 24.1087 40.7829 25.6087 43.4329 26.9087C44.0329 25.5587 42.6329 17.8087 41.4829 16.4087C41.2329 16.1087 38.9829 13.8587 38.9829 14.8087C39.6329 16.9587 40.2329 19.1587 40.4329 21.4087ZM33.053 31.2965L33.0528 31.2964C31.6492 30.3182 30.2232 29.3243 28.633 28.6587C28.4943 28.5947 28.35 28.5301 28.2021 28.464L28.2021 28.464C26.9643 27.9103 25.485 27.2486 25.083 25.9087C26.783 26.3587 34.933 30.7087 34.533 32.3087C34.0387 31.9835 33.5479 31.6414 33.0542 31.2974L33.0536 31.2969L33.0531 31.2966L33.053 31.2966L33.053 31.2965ZM23.0422 44.3404L23.0423 44.3404L23.0423 44.3404C23.9618 44.5345 24.8647 44.7251 25.733 44.8586C26.383 44.6086 23.933 42.5086 23.333 42.7086C20.783 42.2086 18.183 41.7086 15.583 41.7086C13.033 41.8086 9.683 42.2586 13.583 44.4586C16.4204 42.9428 19.8318 43.6628 23.0422 44.3404ZM23.3329 64.9586C22.6829 64.6087 20.6829 63.1587 21.6329 62.4087C21.9566 62.0228 22.2709 61.6153 22.5882 61.2038C23.5458 59.9623 24.531 58.6848 25.8829 57.8587C26.6972 57.533 27.3788 58.3675 27.9279 59.0396L27.928 59.0398L27.9281 59.0399C28.0533 59.1932 28.1716 59.338 28.2829 59.4586C28.2927 59.4879 28.3082 59.5229 28.3245 59.5598C28.3919 59.7124 28.4744 59.8989 28.2329 59.8587C26.9119 60.3991 26.0236 61.6246 25.1565 62.8207C24.5796 63.6165 24.0121 64.3993 23.3329 64.9586ZM1.53316 57.7086C0.78316 59.7586 3.48316 61.5587 5.08316 62.3587C5.69445 62.4057 5.02329 61.7451 4.81642 61.5415L4.78316 61.5086C3.93316 60.1086 5.78316 58.0086 7.23316 58.0086C7.32497 57.9857 7.42732 58.0259 7.53053 58.0666C7.65215 58.1144 7.77497 58.1627 7.88316 58.1087C7.96246 57.7915 7.633 57.5057 7.36853 57.2763C7.29951 57.2164 7.2349 57.1604 7.18316 57.1087C5.33316 55.0087 2.73316 55.0086 1.53316 57.7086ZM61.3332 88.2086C59.6832 87.5086 57.7332 86.0586 57.7332 84.1086C57.6858 81.6431 58.9873 82.9544 59.9747 83.9494L60.072 84.0473L60.1332 84.1086C60.1599 84.162 60.2008 84.2153 60.2416 84.2686C60.3541 84.4153 60.4665 84.562 60.2832 84.7086C60.0832 85.1586 60.0832 85.7586 60.0832 86.2586C61.8332 85.9586 62.3832 86.2086 63.5832 87.5086C64.9332 88.7086 61.9832 88.4586 61.3332 88.2086ZM87.8329 22.1587C88.4829 23.6087 90.0329 24.7586 91.4829 25.4586C91.5829 25.492 91.6663 25.492 91.7329 25.4586C92.4329 21.8586 88.5329 18.7086 85.3829 17.8586C81.3829 18.0086 83.5329 20.0086 85.4329 21.4586C85.5379 21.5255 85.6556 21.6105 85.7813 21.7012L85.7815 21.7014C86.3139 22.0859 86.988 22.5727 87.4329 22.2086L87.4111 22.1363C87.3543 21.9491 87.3278 21.8618 87.3584 21.8055C87.3852 21.7562 87.4556 21.7305 87.5875 21.6825L87.5876 21.6825L87.5881 21.6823C87.6422 21.6626 87.7068 21.6391 87.7829 21.6086C87.8717 21.5495 87.8554 21.7004 87.8377 21.8647C87.8254 21.9779 87.8125 22.0974 87.8329 22.1587ZM18.483 9.50869C14.333 6.00869 18.033 11.7587 20.233 11.6587C21.583 11.7587 22.883 11.0087 23.933 10.2087C24.583 9.5587 22.483 8.10869 21.933 7.75869C21.733 7.65869 21.533 7.7087 21.483 7.8587C20.633 8.6087 19.633 9.40869 18.483 9.50869ZM2.58313 34.5587C2.08313 34.4087 -0.76687 32.4587 0.63313 32.3087C2.73313 31.8587 5.28313 29.0087 2.83313 27.4087C2.79437 27.3699 2.72931 27.3142 2.65216 27.2482C2.33122 26.9736 1.80097 26.5199 2.08313 26.3586C6.38313 28.0086 8.03313 33.1587 2.58313 34.5587ZM21.8833 82.0086C22.2333 84.0086 24.2333 85.7086 26.0833 86.4086C27.1833 86.6086 28.4333 86.6586 29.4833 86.5086C29.4833 85.9539 28.991 85.4538 28.5525 85.0085C28.3982 84.8518 28.2505 84.7018 28.1333 84.5585C27.3833 83.6585 26.4333 83.6086 25.3833 83.7086C24.9375 83.7491 25.0501 83.6254 25.2153 83.4439L25.2154 83.4438C25.254 83.4014 25.2954 83.3559 25.3333 83.3085C25.8833 82.6585 26.8333 82.3086 27.6833 82.6586C28.0174 81.9903 26.3011 80.593 25.6662 80.0761L25.5833 80.0086C24.1333 78.8586 21.9333 80.2586 21.8833 82.0086ZM83.883 131.209C82.783 130.659 81.583 129.709 81.083 128.559C81.3497 126.059 81.6164 123.575 81.883 121.109C82.383 116.209 82.433 111.309 82.083 106.409C80.683 89.6587 74.283 72.5587 61.683 61.0587C56.783 57.9087 56.083 55.8587 61.733 60.3587C81.283 77.4087 88.883 106.459 83.883 131.209ZM93.083 78.0086C93.533 78.9086 94.533 79.6087 95.433 80.0086C95.8998 79.6707 96.3698 79.3279 96.8432 78.9826L96.8433 78.9826L96.8434 78.9826C103.164 74.3725 110.093 69.3191 118.233 69.4587C118.409 69.3926 118.955 69.5012 119.496 69.6093C120.184 69.7464 120.867 69.8824 120.783 69.6587C120.333 68.9087 119.533 68.3587 118.783 67.9087C111.733 65.9587 104.483 69.8587 98.683 73.6087C96.783 75.0087 94.833 76.4586 93.083 78.0086ZM125.683 63.5587C123.133 62.7087 121.633 60.5087 120.383 58.3087C117.599 53.6102 112.974 52.5456 108.311 51.4725C106.276 51.0039 104.233 50.5337 102.333 49.7587C102.274 49.7128 102.186 49.6479 102.078 49.5689L102.078 49.5687C101.365 49.0452 99.8054 47.8996 100.283 47.5087C106.633 48.4087 113.083 50.0087 118.083 54.2087C120.933 56.4087 123.483 59.0087 125.283 62.1087C125.315 62.2367 125.45 62.4414 125.591 62.6573C125.893 63.1165 126.227 63.6267 125.683 63.5587ZM114.667 62.269C115.33 62.8078 116.168 63.4893 117.633 64.4086C118.533 63.8086 112.533 59.5086 111.533 59.1586C111.083 58.8586 104.433 56.5586 105.083 57.5586C105.833 58.5086 106.833 59.3086 107.983 59.7586C112.595 60.5846 113.203 61.079 114.667 62.269ZM132.633 60.5587C131.733 60.1587 130.833 59.4587 130.983 58.3587C130.833 56.2587 130.483 54.1587 130.133 52.0587C129.233 45.8587 126.833 39.9587 123.433 34.7587C129.783 38.2087 132.683 53.9087 132.633 60.5587ZM141.583 58.4586C141.533 59.2086 142.633 59.8087 143.283 60.1087C149.783 48.5587 160.233 38.0587 173.783 35.4087C174.467 35.2133 175.089 35.0886 175.607 34.985C177.472 34.6113 177.969 34.5118 175.033 32.3586C174.377 31.7022 173.571 31.9404 172.778 32.1751C172.544 32.2442 172.311 32.3131 172.083 32.3586C161.333 34.5586 152.233 41.6587 146.233 50.6587C144.533 53.1587 142.883 55.7086 141.583 58.4586ZM136.033 109.709C134.383 108.959 132.483 107.759 131.683 106.109C131.768 105.853 131.902 105.63 132.038 105.402L132.038 105.402C132.142 105.229 132.247 105.053 132.333 104.859C138.533 95.7086 137.583 86.7586 131.133 77.9586C131.091 77.9082 131.042 77.8511 130.988 77.7892C130.357 77.0541 129.146 75.644 131.083 76.6586C137.533 81.2086 141.283 90.4586 141.033 98.2586C140.747 101.696 139.087 104.732 137.452 107.722C137.089 108.385 136.728 109.046 136.383 109.709C136.283 109.742 136.167 109.742 136.033 109.709ZM145.533 86.0586C146.033 89.5586 146.933 90.8086 150.183 92.4086C150.649 92.5161 150.524 92.0589 150.416 91.6622C150.374 91.5053 150.333 91.3578 150.333 91.2586C149.233 85.3086 145.933 79.4586 140.633 76.3586C140.083 76.0086 139.283 75.9586 139.933 76.7586C140.369 77.3951 140.962 77.8745 141.546 78.3472C141.834 78.5799 142.119 78.8111 142.383 79.0586C143.933 81.1586 144.983 83.5586 145.533 86.0586ZM122.983 93.7586C122.083 93.3086 120.583 92.5586 120.633 91.4586C121.133 88.6586 121.733 85.7086 123.033 83.1586C123.783 83.4086 125.783 84.6586 125.083 85.5586C124.083 88.0586 123.583 90.7086 123.183 93.3086C123.183 93.3243 123.183 93.3409 123.184 93.3581L123.185 93.3976C123.191 93.5959 123.199 93.8449 122.983 93.7586ZM102.933 79.3587C103.783 80.8087 105.233 81.9587 106.733 82.6587C107.595 82.246 108.411 81.582 109.238 80.9096C110.714 79.7085 112.224 78.4805 114.083 78.6087C113.968 77.6912 113.065 76.9491 112.265 76.293L112.265 76.2928C112.019 76.0908 111.783 75.897 111.583 75.7087C109.453 73.6261 106.92 75.7554 105.129 77.261L105.126 77.263L104.958 77.4044L104.833 77.5087C104.629 77.7126 104.373 77.9049 104.115 78.0994L104.115 78.0995C103.612 78.4774 103.098 78.8636 102.933 79.3587ZM124.133 56.1586C122.264 55.3477 121.967 53.9889 121.574 52.1918C121.096 49.9998 120.475 47.1557 116.683 43.8586C118.155 44.1951 119.379 45.6988 120.416 46.9715L120.416 46.9716L120.416 46.9722L120.418 46.9742L120.419 46.9752L120.419 46.9756C120.613 47.2146 120.801 47.4453 120.983 47.6586C122.733 50.0086 124.133 53.5086 124.133 56.1586ZM136.133 50.6587C136.683 51.7087 137.883 52.5087 138.983 53.0087C139.233 53.1087 139.233 52.8587 139.183 52.6587C139.043 49.2007 140.78 46.0921 142.437 43.1288L142.438 43.127C142.554 42.9202 142.669 42.7141 142.783 42.5087C142.433 41.4087 140.983 40.5587 139.933 40.0587C139.463 40.278 139.15 40.9684 138.847 41.6379C138.666 42.037 138.488 42.4286 138.283 42.7087C136.983 45.1087 135.933 47.8087 136.133 50.6587ZM169.783 62.2586C164.233 60.5586 157.433 59.1086 152.083 62.0086C151.142 62.1592 150.201 61.3745 149.367 60.6787C149.093 60.4503 148.83 60.2316 148.583 60.0586C143.883 56.5586 158.533 56.6586 160.133 57.3086C160.431 57.3749 160.734 57.4401 161.038 57.5059L161.039 57.506C164.415 58.2346 168.111 59.0321 170.083 62.0586C170.183 62.3086 169.983 62.3086 169.783 62.2586ZM161.241 87.5964C162.402 90.5232 163.577 93.4856 166.833 94.5586C167.355 94.6631 167.053 93.9919 166.805 93.4396C166.696 93.1986 166.598 92.9802 166.583 92.8587C162.683 81.8587 155.233 71.0586 143.383 67.9586C142.933 68.0087 143.633 68.7587 143.733 68.8587C145.238 70.6566 147.408 71.4755 149.54 72.2802C149.957 72.4378 150.373 72.5949 150.783 72.7586C154.704 74.6976 156.917 78.9017 158.958 82.7789L158.958 82.779C159.285 83.4009 159.608 84.0143 159.933 84.6087C160.427 85.5446 160.833 86.5683 161.241 87.5964ZM130.783 117.459C128.983 116.809 125.683 114.759 127.083 112.559C128.433 110.509 129.883 109.659 131.333 112.159C131.377 112.332 131.232 112.28 131.095 112.23C131.074 112.223 131.053 112.215 131.033 112.209C129.933 112.209 128.883 114.209 128.733 115.309C129.233 115.359 131.383 117.159 130.783 117.459ZM91.4833 83.6588C92.1333 84.7588 93.2333 85.6587 94.3833 86.2087C94.45 86.2087 94.5166 86.1921 94.5833 86.1588C94.8833 83.1087 91.6833 79.3587 88.5333 79.7087C87.3833 80.0087 90.3833 82.4087 90.9333 82.2587C91.5166 81.847 91.4877 82.4478 91.4606 83.0107C91.4482 83.2681 91.4362 83.5176 91.4833 83.6588ZM97.0833 44.7087C95.6833 44.4587 94.2833 43.3086 93.6333 42.0586C93.8333 39.4586 96.8333 40.5587 97.9333 41.9087C98.6333 42.6087 98.7833 43.0587 97.6333 42.4587C97.4333 42.3587 96.5833 42.5587 97.2333 42.7587C98.5333 43.8087 99.4833 44.6087 97.0833 44.7087ZM123.183 25.7086C118.933 21.0086 116.733 26.7086 122.733 29.1586C124.283 29.8086 126.033 29.3086 127.433 28.5586C127.221 27.6254 126.145 26.944 125.274 26.3925L125.274 26.3923C125.118 26.2939 124.97 26.1995 124.833 26.1086C124.592 25.7709 123.606 26.2362 122.858 26.5894C122.055 26.9682 121.526 27.2178 122.483 26.2086C122.594 26.0312 122.853 26.0505 123.058 26.0659C123.315 26.0851 123.489 26.0981 123.183 25.7086ZM186.033 36.2586C184.933 35.7586 183.983 34.8586 183.433 33.8586C183.46 33.761 183.493 33.6534 183.527 33.5386L183.527 33.5384C183.812 32.5947 184.242 31.1652 183.083 30.8087C182.9 30.7253 182.711 30.6642 182.522 30.6031C182.144 30.4809 181.767 30.3587 181.433 30.0587C181.398 30.0239 181.336 29.966 181.256 29.892C180.759 29.4336 179.594 28.3586 180.283 28.3586C183.183 29.0586 188.233 33.1586 186.033 36.2586ZM174.683 61.8086C173.683 64.6086 177.533 66.8086 179.833 67.4086C180.733 67.1586 177.983 65.1087 177.533 64.9086C177.683 64.0086 178.083 62.8586 178.983 62.4586C179.104 62.4182 179.062 62.3126 179.015 62.1944L179.015 62.1941L179.015 62.1935C179.008 62.1761 179.001 62.1584 178.994 62.1407C178.99 62.13 178.987 62.1193 178.983 62.1087C177.533 60.3087 175.783 58.7086 174.683 61.8086ZM171.033 104.559C168.783 103.409 166.083 101.459 165.383 98.9587C167.033 94.4587 170.483 96.8087 172.583 99.4587C172.933 99.8587 173.083 100.559 172.283 100.209C171.283 100.459 170.233 101.759 170.283 102.859C170.324 102.907 170.398 102.984 170.489 103.079L170.489 103.079L170.49 103.079C170.966 103.574 171.914 104.559 171.033 104.559ZM74.8624 57.4259C75.904 58.6123 76.9452 59.7982 78.5332 60.3086C79.2039 60.4145 78.479 59.5484 77.942 58.9069C77.7183 58.6397 77.5273 58.4115 77.4832 58.3086C73.2332 53.3586 67.0332 50.3586 60.6832 49.1086C58.2332 48.6086 55.5332 48.1086 53.0832 49.0086C52.2686 49.2482 53.3827 50.0389 53.785 50.3244L53.8332 50.3586C53.9424 50.4314 54.0605 50.5249 54.1838 50.6225L54.184 50.6226L54.1841 50.6227C54.5688 50.9272 55.0046 51.2722 55.3832 51.1586C59.5332 49.4086 68.5332 52.7586 72.2332 55.0086C73.2721 55.6146 74.0674 56.5204 74.8624 57.4259ZM83.1331 64.7586C82.0831 64.1086 80.9831 63.2586 80.5331 62.0586C80.3331 61.0586 81.2831 59.2586 82.4331 59.8086C82.4836 59.8436 82.5351 59.8789 82.5871 59.9146C83.2042 60.3379 83.9025 60.817 84.1331 61.5086C84.1331 61.6086 84.0331 61.6086 83.9831 61.5586C83.5331 61.5586 83.1831 62.0587 82.9831 62.4587C82.9831 62.4836 82.9332 62.6085 82.8832 62.7334L82.8831 62.7336L82.883 62.7339C82.833 62.8588 82.7831 62.9837 82.7831 63.0086C83.0331 63.0086 83.2831 62.9961 83.5331 62.9836C83.7831 62.9711 84.0331 62.9587 84.2831 62.9587C84.783 63.1586 85.183 63.5086 85.5829 63.8585L85.5831 63.8587C85.9331 64.1587 86.2331 64.4587 86.4831 64.8587C86.5331 64.9087 86.6831 65.1586 86.5831 65.2586C85.4331 65.4086 84.1831 65.3086 83.1331 64.7586ZM107.156 141.593C107.564 144.187 107.641 144.68 104.183 146.559C104.083 146.592 104 146.592 103.933 146.559C99.9333 122.709 103.933 92.1587 122.933 75.4087C123.035 75.3652 123.438 75.0196 123.952 74.5798C125.211 73.5014 127.132 71.8563 126.883 72.7087C126.213 73.5537 125.373 74.2119 124.531 74.8714C123.929 75.3436 123.326 75.8163 122.783 76.3587C110.683 88.5587 106.733 106.509 106.083 123.159C105.883 128.809 106.233 134.459 106.933 140.059C107.006 140.644 107.086 141.149 107.156 141.593Z" fill="black"/>
</svg>
