<svg width="115" height="60" viewBox="0 0 115 60" fill="none" xmlns="http://www.w3.org/2000/svg">
<path fill-rule="evenodd" clip-rule="evenodd" d="M96.4677 26.7622C92.2177 24.6622 88.3677 20.8622 87.8177 15.9122C87.6677 11.6122 88.1177 6.31224 91.5177 3.21224C93.1677 1.71224 95.6676 1.41224 97.1176 3.31224C97.6357 3.8858 97.6197 3.88426 97.2369 3.84724C96.5853 3.78422 94.8705 3.6184 92.9176 6.01224C91.7896 7.77206 91.0687 9.81693 90.7091 11.9447C91.862 12.3801 92.9523 13.09 93.8179 13.9123C94.1903 14.5241 94.3787 15.2349 94.5639 15.947C95.1208 13.7379 96.356 11.7486 97.6677 9.91229C97.7118 9.86107 97.7559 9.80959 97.7998 9.7579C97.5819 9.26797 97.3743 8.76737 97.175 8.25706C95.8777 9.53712 94.9185 11.118 95.2176 13.0623C95.2176 13.083 95.2186 13.1057 95.2196 13.1291C95.2257 13.2748 95.2331 13.4485 95.0176 13.3623C94.9514 13.335 94.8812 13.3068 94.8081 13.2775L94.8081 13.2775L94.808 13.2774C93.9437 12.9304 92.6793 12.4226 92.8176 11.3623C92.5676 9.46229 93.7176 7.81229 95.0176 6.61229C95.1743 6.48695 95.331 6.33707 95.4892 6.18571C95.8359 5.85403 96.19 5.51529 96.5676 5.41229C96.9653 5.462 99.438 6.69746 98.5833 7.05595C98.7315 7.15635 98.8764 7.2593 99.018 7.36226C99.1827 7.48583 99.3157 7.63272 99.4264 7.79552C100.095 7.01385 100.8 6.26859 101.618 5.66229C102.127 5.80781 102.707 6.04745 103.238 6.35838C103.109 6.12827 102.986 5.89616 102.868 5.66229C102.853 5.62578 102.826 5.56582 102.791 5.49082L102.791 5.49064C102.591 5.0519 102.155 4.09882 102.668 4.31229C103.568 4.66229 104.468 5.21229 104.618 6.26229C105.023 7.34369 105.672 8.34388 106.346 9.26287C106.482 9.36004 106.639 9.476 106.818 9.61228C107.106 9.77902 107.214 10.0699 107.218 10.4165C108.248 11.6276 109.52 12.5589 110.788 13.4868L110.788 13.487C111.096 13.7124 111.403 13.9376 111.707 14.1666C111.736 13.9005 111.756 13.6322 111.768 13.3622C112.068 10.2122 112.218 6.66224 110.468 3.91224C109.746 3.61708 108.96 3.46174 108.177 3.30689C106.571 2.98958 104.976 2.67434 103.968 1.16224C102.868 0.0122406 108.168 1.61224 108.518 1.81224C115.168 4.51224 115.318 12.2122 113.918 18.2122C112.218 25.4122 103.218 30.1122 96.4677 26.7622ZM100.887 11.3302C101.901 10.1049 103.027 8.967 104.204 7.92378C104.555 8.43948 104.93 8.94061 105.328 9.42368L105.328 9.42697C105.295 9.77448 105.249 10.2492 105.018 10.7623C104.434 12.2632 103.633 13.6472 102.681 14.9219C101.992 13.787 101.431 12.5472 100.887 11.3302ZM106.637 12.4451C106.779 12.1061 106.952 11.6931 107.072 11.2837C108.44 12.5646 109.991 13.6413 111.677 14.4207C111.117 18.7294 108.292 22.4584 104.268 24.2622C99.3677 26.9122 92.2676 25.8622 90.9176 19.7122C90.5266 17.9526 90.3649 16.0706 90.4625 14.1979C91.4451 17.0728 93.3561 19.4734 95.7705 21.2435L95.6676 21.3123C94.8677 21.6123 96.9177 22.7623 97.2677 22.8623C97.453 22.7553 97.6373 22.6453 97.8204 22.5323C99.47 23.4146 101.27 24.037 103.118 24.3623C103.605 24.3623 103.36 24.0395 102.928 23.6784C104.577 22.6128 106.111 21.2534 107.31 19.6553C107.525 19.7441 107.745 19.8298 107.968 19.9123C108.325 19.8559 108.075 19.5806 107.605 19.2483C108.074 18.5746 108.483 17.8613 108.818 17.1123C108.858 17.0116 108.902 16.9069 108.948 16.7994L108.948 16.7993C109.129 16.3727 109.328 15.9015 109.368 15.4623C109.301 15.3289 109.19 15.24 109.079 15.1512C109.023 15.1067 108.968 15.0623 108.918 15.0123C108.845 14.9833 108.739 14.9164 108.621 14.8423C108.333 14.6606 107.974 14.4348 107.868 14.6123C107.49 15.9337 106.801 17.166 105.968 18.2672C105.775 18.1616 105.602 18.0693 105.469 17.998L105.468 17.9975C105.349 17.9337 105.261 17.8867 105.218 17.8623C104.806 17.5492 104.431 17.2008 104.085 16.8248C105.023 15.5861 105.83 14.2552 106.468 12.8623C106.512 12.7445 106.571 12.6028 106.637 12.4451ZM105.542 18.8073C104.828 18.4125 104.166 17.9771 103.55 17.5044C102.244 19.1006 100.718 20.5247 99.0632 21.7061C99.8031 21.9114 100.533 22.1297 101.202 22.5141C101.318 22.4289 101.434 22.3437 101.551 22.2586L101.551 22.2586C102.977 21.2168 104.405 20.1737 105.542 18.8073ZM101.837 15.9785C100.98 15.0971 100.229 14.1262 99.5622 13.0794C98.8244 14.1516 98.1815 15.2805 97.6677 16.4623C97.5686 16.601 97.4773 16.9834 97.3815 17.3851L97.3814 17.3851C97.2355 17.9966 97.0789 18.6528 96.8677 18.5623C96.2893 18.3374 95.649 18.0505 95.1193 17.6619C95.1351 17.6956 95.1513 17.729 95.1679 17.7623C95.2496 17.9258 95.3341 18.1031 95.4226 18.2888L95.4226 18.2889L95.4227 18.2891C95.7788 19.0364 96.1984 19.917 96.7558 20.5599C98.5966 19.2389 100.354 17.7191 101.837 15.9785ZM75.0553 55.7387C76.2659 56.9511 77.4738 58.1608 79.068 58.8622C82.0355 59.9414 84.6763 55.5545 86.624 52.3191L86.6241 52.3189C87.2032 51.3569 87.7211 50.4967 88.168 49.9122C91.268 45.0122 94.768 40.4622 98.318 35.8622C98.3513 35.7789 98.418 35.7011 98.4846 35.6234C98.618 35.4678 98.7513 35.3122 98.618 35.1122C97.968 34.1622 97.068 33.3622 96.068 32.8622C95.7706 32.6923 95.6176 32.9194 95.4864 33.1142C95.4631 33.1487 95.4405 33.1822 95.418 33.2122C94.068 34.9622 92.718 36.7122 91.418 38.4622C88.9659 41.7726 86.7476 45.25 84.5447 48.7032L84.5446 48.7034L84.5443 48.7039C84.0522 49.4753 83.5609 50.2454 83.068 51.0122C82.8267 51.334 82.5598 51.7276 82.27 52.1551C80.9382 54.1195 79.1211 56.7997 77.068 56.5122C75.118 54.3622 72.818 52.5622 70.418 51.0122C69.2782 49.2393 73.52 42.6193 75.6812 39.2465C76.0799 38.6243 76.4077 38.1126 76.618 37.7622C79.818 33.0622 83.018 28.3122 85.768 23.3122C85.8348 23.1252 85.9801 22.8597 86.1439 22.5604C86.593 21.7396 87.1809 20.6653 86.668 20.2622C85.3896 19.1117 85.3165 19.3299 85.0123 20.2377C84.8406 20.7502 84.5953 21.4824 84.018 22.3122C81.168 27.1622 77.818 31.7122 74.218 36.0622C73.706 36.7417 73.1698 37.4212 72.629 38.1065C70.2649 41.1024 67.8132 44.2093 66.918 47.9122C67.3464 49.983 69.177 51.187 70.9353 52.3434C71.6393 52.8064 72.3318 53.2619 72.918 53.7622C73.6788 54.3601 74.3675 55.0497 75.0553 55.7386L75.0553 55.7387ZM39.0679 49.8622C40.4179 54.1122 44.1679 57.4122 48.3179 58.9622C51.4179 60.0622 54.8179 60.1622 57.9179 59.2122C59.8391 58.6145 61.6875 57.8345 63.5252 57.059L63.5258 57.0587C63.8401 56.9261 64.154 56.7936 64.4679 56.6622C64.8964 56.4285 64.3234 55.8913 63.9311 55.5235C63.8198 55.4192 63.7231 55.3285 63.6679 55.2622C62.0546 53.649 61.5475 53.8901 60.2308 54.516L60.2307 54.516C59.9151 54.666 59.5529 54.8382 59.1179 55.0122C54.6179 57.2122 49.1179 58.4122 44.4679 55.9122C42.6179 54.7122 41.8179 52.2622 41.3679 50.2122C45.4679 50.4122 54.4179 50.2122 55.0679 44.6622C55.1179 39.7622 48.5679 34.5622 43.9679 37.1622C40.0179 38.9122 37.9179 43.3622 38.5179 47.5122C28.2366 46.7858 22.7635 41.5323 18.2082 37.1598C14.611 33.7069 11.5861 30.8034 7.21787 31.1122C4.81787 31.4622 2.71788 32.8622 1.06788 34.5122C0.479558 34.829 0.833335 35.2277 1.12822 35.5601L1.12845 35.5603C1.15929 35.5951 1.18948 35.6291 1.21787 35.6622C1.35533 35.7539 1.54264 35.9164 1.75757 36.1028L1.75767 36.1029C2.48092 36.7303 3.51681 37.6289 4.01787 37.0122C10.6512 30.6015 13.5585 33.5456 18.2103 38.2563L18.2106 38.2566C18.7832 38.8364 19.3822 39.443 20.0179 40.0622C25.4679 44.7622 31.8679 48.7122 39.0679 49.8622ZM42.4181 43.2123C43.8181 40.9123 46.2181 39.0623 48.9681 38.7623C49.6681 38.7123 50.5681 38.7123 51.1681 39.1623C52.0181 40.4123 52.3681 42.1123 51.7181 43.5623C50.0322 46.5373 46.1337 47.103 43.0457 47.551L42.9681 47.5623C42.8784 47.5474 42.6593 47.5726 42.404 47.602L42.404 47.602C41.8052 47.671 41.0077 47.7629 41.2181 47.4123C41.3181 45.9623 41.6681 44.5123 42.4181 43.2123ZM82.0679 39.1122C82.7179 40.2122 83.8179 41.1122 84.9679 41.6122C85.197 41.6886 85.3387 41.4441 85.4597 41.2352C85.4971 41.1706 85.5325 41.1095 85.5679 41.0622C85.9532 40.6586 86.2981 40.1944 86.6421 39.7313C87.2356 38.9324 87.8265 38.137 88.6179 37.6622C88.6512 37.6289 88.6845 37.6122 88.7179 37.6122C88.5969 36.8061 87.7612 36.195 87.0489 35.674C86.8775 35.5487 86.7133 35.4286 86.5679 35.3122C85.3981 34.218 84.5701 35.4588 83.8474 36.5418C83.6125 36.8938 83.3887 37.2292 83.1679 37.4622C83.0441 37.6567 82.8891 37.8449 82.7338 38.0335C82.4498 38.3783 82.1648 38.7244 82.0679 39.1122Z" fill="black"/>
</svg>
