<svg width="56" height="67" viewBox="0 0 56 67" fill="none" xmlns="http://www.w3.org/2000/svg">
<path fill-rule="evenodd" clip-rule="evenodd" d="M24.6146 64.6C22.4646 62.6 19.7146 59.55 21.3646 56.45C24.2146 51.2 31.0146 47.1 37.0146 49.05C38.4146 49.55 39.6146 50.35 40.7646 51.25C41.0646 51.55 41.6145 51.95 41.9145 51.4C43.0145 48.25 43.2646 44.85 44.0146 41.65C45.4646 35.4 46.6145 29.05 48.6645 22.95C44.9645 23.55 41.1145 22.1 38.4645 19.45C37.1145 18.1 35.9146 16.65 35.0646 14.95C34.9146 14.65 34.9645 14.65 34.9145 14.8C33.3645 18.9 31.8145 22.9 30.4645 27.05C28.7645 32.2 26.9146 37.45 23.3646 41.65C18.5646 48.4 9.71455 47.6 4.36455 42C1.56455 39.45 -0.33546 35.75 0.41454 31.9C0.91454 28.35 2.61453 24.85 5.46453 22.65C6.76453 21.65 8.41456 20.9 10.0646 20.95C14.4146 21.4 17.9646 26.85 16.7646 31.05C16.1646 31 15.6145 30.2 15.2145 29.75C15.0645 29.5 14.9145 29.3 14.9645 29C15.1145 28.05 15.1645 27.1 14.9145 26.15C14.7645 25.45 14.5145 24.75 14.1645 24.1C12.1145 22.85 9.36458 24.3 7.76458 25.75C3.96458 29.25 1.91458 35.6 4.26458 40.45C6.61458 42.6 10.4645 43.05 13.4645 42.4C18.8145 40.85 22.0145 35.55 24.2145 30.8C27.0645 23.15 29.4145 15.3 32.1645 7.65001C32.4145 6.65001 32.9145 5.75 32.9145 4.75C33.0145 3.4 33.0146 1.7 34.0146 0.75C35.4146 1 36.6145 2.75001 37.4645 3.85001C38.4145 5.00001 37.0146 7.69999 36.7646 9.09999C36.5646 11.15 37.5146 16.1 38.5646 17.85C42.9646 20.3 48.2146 18.85 52.1146 16.1C53.0646 15.95 54.1646 17.5 54.7646 18.1C55.6646 19.35 56.3645 19.6 55.1645 20.95C50.7145 28.8 49.8646 38.05 47.5146 46.65C46.7146 49.5 46.5145 52.55 45.2145 55.2C44.7145 55.85 43.8146 55.3 43.3146 54.95C38.8646 50.55 31.8645 51.8 27.6645 55.85C26.0145 57.35 24.0146 59.65 24.3146 61.8C28.2646 62.95 31.8646 60.4 34.8146 58.05C35.5646 57.05 36.4646 58.5 37.0646 59C38.0146 60.05 39.0645 61.2 39.4645 62.55C39.5645 62.95 39.1145 63.05 38.9145 63.3C36.3645 65.65 32.8146 67.15 29.5146 66.8C27.7646 66.6 26.0646 65.95 24.6146 64.6Z" fill="black"/>
</svg>
