<svg width="87" height="94" viewBox="0 0 87 94" fill="none" xmlns="http://www.w3.org/2000/svg">
<path fill-rule="evenodd" clip-rule="evenodd" d="M14.7428 88.4681C14.8928 90.9681 16.7928 92.8181 18.9928 93.8681C19.2261 93.9348 19.4595 93.9681 19.6928 93.9681C20.2357 93.9681 20.7785 93.8375 21.3214 93.7069C21.7285 93.6089 22.1356 93.5109 22.5428 93.4681C26.2428 92.8181 29.9428 92.1681 33.6928 91.6181C43.8928 90.2681 54.0928 88.7681 64.2428 87.2181C67.8497 86.7028 71.4934 86.4088 75.1424 86.1144C75.7424 86.0659 76.3426 86.0175 76.9428 85.9681C79.5428 85.7181 82.2928 85.4181 84.6428 84.2181C86.6928 83.3681 86.9428 81.0181 86.6928 79.0181C86.5463 76.1863 86.0661 73.4021 85.578 70.5725L85.578 70.5724L85.5428 70.3681C85.3899 69.4508 85.2394 68.5311 85.0887 67.61C84.5493 64.314 84.0071 61.0008 83.3428 57.7181C82.7912 55.08 82.1131 52.4765 81.4353 49.8743C80.7 47.0513 79.9652 44.23 79.3928 41.3681C78.8031 38.5965 78.3293 35.8095 77.856 33.0252C77.1253 28.7272 76.3958 24.4358 75.2428 20.2181C74.9669 19.1726 74.71 18.0513 74.4448 16.8938C72.8837 10.0799 71.036 2.01481 63.3428 0.818089C58.4428 -0.131911 53.3928 0.268092 48.4928 0.868092C42.6871 1.63994 36.904 2.59199 31.1282 3.54281C28.2986 4.00864 25.4707 4.47418 22.6428 4.9181C20.2209 5.32743 17.7758 5.64367 15.3292 5.9601C10.6033 6.57133 5.87208 7.18325 1.29279 8.46808C1.09279 8.51808 0.892787 8.56808 0.792787 8.71808C0.70475 8.89416 0.771725 9.14775 0.823126 9.34237L0.82313 9.34238L0.82315 9.34245L0.823162 9.3425L0.823195 9.34262C0.830155 9.36898 0.836828 9.39425 0.84279 9.4181C1.04279 10.2514 1.22613 11.0681 1.39279 11.8681C1.84907 13.9594 2.2186 16.0795 2.58934 18.2066L2.58935 18.2067L2.58936 18.2067L2.58937 18.2068L2.58938 18.2069C2.70615 18.8768 2.82304 19.5474 2.9428 20.2181C3.03269 20.6034 3.0896 21.0051 3.14657 21.4073C3.3114 22.5709 3.4767 23.7378 4.4428 24.5181C4.6428 24.7681 6.74278 26.7181 6.49278 25.5681C6.3792 24.8785 6.26694 24.1889 6.15471 23.4995L6.15471 23.4995C5.57527 19.9402 4.99675 16.3866 4.24278 12.8681C4.24278 12.7746 4.19905 12.6471 4.15249 12.5113C4.04968 12.2114 3.93307 11.8713 4.24278 11.7681C5.99278 11.2181 7.79279 10.8181 9.64279 10.5181C18.6684 9.3357 27.663 7.81155 36.6509 6.28851L36.651 6.28851L36.651 6.2885L36.6511 6.28849L36.6511 6.28848C39.0653 5.87939 41.4791 5.47038 43.8928 5.06809C44.9863 4.9109 46.0873 4.74063 47.1936 4.56953C54.1807 3.48894 61.3795 2.37564 68.2428 4.31809C69.2016 5.73343 69.7434 7.52399 70.2491 9.19486L70.2492 9.19506C70.2973 9.35396 70.345 9.51178 70.3928 9.6681C71.3535 13.4194 72.2305 17.2544 73.1003 21.0582L73.3428 22.1181C73.8983 24.7565 74.3252 27.4271 74.7524 30.1001L74.7525 30.1005L74.7525 30.1006L74.7526 30.1007L74.7526 30.1008L74.7526 30.101C75.2483 33.2023 75.7446 36.3068 76.4428 39.3681C76.7742 40.7017 77.1121 42.0327 77.4498 43.3628L77.4501 43.364L77.4504 43.3652L77.4507 43.3663L77.451 43.3675C79.2019 50.264 80.9465 57.1356 81.7428 64.2181C81.8868 65.2745 82.0511 66.3308 82.2154 67.3879C82.7355 70.7337 83.2568 74.0865 83.1428 77.4681C83.0154 81.3728 77.2317 81.891 73.4067 82.2336C72.7256 82.2946 72.1067 82.3501 71.5928 82.4181C65.8928 82.7681 60.1928 83.5181 54.5428 84.4681C52.6102 84.7754 50.6657 85.0853 48.7142 85.3963L48.7081 85.3973L48.7067 85.3975L48.7055 85.3977L48.704 85.3979L48.7018 85.3983L48.7011 85.3984C38.59 87.0099 28.2882 88.6518 18.4428 90.1181C17.1678 83.2931 15.9678 76.4431 14.7678 69.5931C13.5678 62.7431 12.3678 55.8931 11.0928 49.0681C10.1269 44.1582 8.90191 39.2808 7.67848 34.4097C7.38192 33.2289 7.08545 32.0485 6.79279 30.8681C6.44279 30.0681 5.59279 29.5181 4.84279 29.1181C4.41185 28.8667 4.59995 29.4665 4.75868 29.9727C4.82095 30.1712 4.8787 30.3554 4.89279 30.4681C7.3457 40.1506 8.7361 50.0207 10.1264 59.89L10.1264 59.89L10.1264 59.8902C10.8899 65.3101 11.6534 70.7298 12.5928 76.1181C12.745 77.0204 12.8948 77.9204 13.0444 78.8185C13.5825 82.051 14.1167 85.2596 14.7428 88.4681ZM19.5925 60.6681C20.1592 62.8014 20.7925 64.9181 21.4925 67.0181C22.1925 68.2681 23.3925 69.3681 24.6925 69.8681C27.549 69.4396 30.4217 69.3375 33.2921 69.2355C35.4462 69.159 37.599 69.0824 39.7425 68.8681C42.9762 68.5561 46.1777 68.0349 49.3744 67.5144L49.3746 67.5144L49.3749 67.5143L49.3752 67.5143L49.3755 67.5142L49.3758 67.5142C51.8134 67.1173 54.2483 66.7209 56.6925 66.4181C58.2317 66.2165 59.7709 66.062 61.3076 65.9077L61.3079 65.9076L61.3082 65.9076C63.9645 65.6409 66.6136 65.3749 69.2425 64.8681C72.0925 64.5681 73.0925 63.2181 72.4925 60.4181C72.053 58.4288 71.6778 56.4289 71.3023 54.4281C70.8662 52.104 70.4299 49.7788 69.8925 47.4681C67.8925 40.4681 66.5925 33.3181 65.6425 26.1181C65.0925 17.9681 63.9925 12.7181 54.5925 12.2681C44.8912 11.8655 35.2222 13.1806 25.5857 14.4914C23.2527 14.8087 20.9217 15.1257 18.5925 15.4181C17.8425 15.3181 18.3425 16.1181 19.1425 16.9681C20.0425 17.8681 21.2925 18.7181 21.7925 18.4681C24.2805 18.1445 26.771 17.7911 29.2646 17.4372C37.9458 16.2053 46.664 14.9681 55.4425 14.9681C57.3925 15.0181 59.3425 15.0681 61.2425 15.5681C61.3425 15.5681 61.4926 15.5681 61.5426 15.7181C62.2357 17.5663 62.4163 19.5 62.5976 21.4402C62.6125 21.5994 62.6274 21.7588 62.6425 21.9181C62.8925 24.6681 63.3425 27.4181 63.8425 30.1681C64.3519 34.0553 65.2925 37.8562 66.2327 41.6557L66.2327 41.6559C67.046 44.9427 67.8591 48.2285 68.3925 51.5681C68.5068 52.2307 68.6315 52.8934 68.7571 53.5609C68.9063 54.3539 69.0568 55.1536 69.1925 55.9681C69.2514 56.3329 69.3324 56.7034 69.4141 57.0767C69.6793 58.2894 69.9513 59.5329 69.4925 60.7181C68.8124 62.2573 63.3399 62.7202 59.3132 63.0608L59.3131 63.0608L59.3129 63.0608L59.3128 63.0608L59.3126 63.0608C57.7151 63.196 56.3452 63.3118 55.5925 63.4681C52.2224 63.8228 48.9047 64.4048 45.5877 64.9867C43.2947 65.3889 41.002 65.7911 38.6925 66.1181C35.688 66.5473 32.6646 66.6194 29.6339 66.6916H29.6339H29.6338H29.6338H29.6337C27.7219 66.7371 25.8072 66.7827 23.8925 66.9181C22.3548 60.9677 21.2641 54.9055 20.172 48.8362L20.172 48.8361L20.172 48.836C19.6307 45.8275 19.0891 42.8173 18.4925 39.8181C17.6925 35.6181 16.7925 31.4181 15.7925 27.2681C15.7103 26.8293 15.6092 26.3904 15.5078 25.9506C15.2397 24.7867 14.97 23.6155 15.0425 22.4181C14.8667 21.495 13.9181 20.8038 13.1477 20.2425C13.0418 20.1653 12.9393 20.0906 12.8425 20.0181C11.9925 19.4181 11.9925 19.8681 12.0425 20.5681C12.4284 23.0281 12.9655 25.4531 13.5024 27.877L13.5024 27.877L13.5024 27.8771C14.0785 30.4783 14.6543 33.0781 15.0425 35.7181C15.4159 37.8551 15.776 39.9988 16.1364 42.1449L16.1365 42.145L16.1365 42.145C17.176 48.3338 18.2189 54.5423 19.5925 60.6681ZM39.1926 27.2681C39.8926 30.0181 46.0926 37.7181 48.8426 38.1181H48.9426C50.0479 38.1181 50.9363 35.7325 51.4542 34.3418C51.5454 34.0969 51.6252 33.8828 51.6926 33.718C52.7426 30.668 53.4426 27.4181 53.3426 24.1681C53.3426 22.7181 52.6926 21.518 51.4926 20.718C49.8926 19.518 47.6426 22.7181 47.1426 24.0181C46.0926 22.9181 44.7926 22.0181 43.2426 21.9181C42.0926 21.8181 40.6426 21.7681 39.8426 22.7681C38.9426 24.0681 38.7426 25.7681 39.1926 27.2681ZM42.6925 25.2681C43.1925 24.7181 43.8925 24.5681 44.5925 24.5181H45.0425C45.3758 24.5181 45.7258 24.5515 46.0925 24.6181C46.1592 24.5848 46.1758 24.6015 46.1425 24.6681C46.1925 25.0681 46.1425 25.5181 46.0925 25.9181C46.1425 26.5181 48.2925 28.6181 48.8925 28.4681C49.1925 27.3181 48.7925 26.0181 48.0925 25.0681C48.8925 23.6681 50.0925 22.4181 51.6425 21.8681C52.0425 25.3181 50.7425 29.4181 49.3925 32.5681C49.3205 32.7049 49.2392 32.8696 49.1494 33.0517L49.1492 33.0519C48.6148 34.1349 47.7769 35.8325 46.7925 35.9181C46.3359 35.9181 46.0273 35.548 45.7281 35.1891C45.6014 35.0371 45.4764 34.8871 45.3425 34.7681C43.9925 33.2681 42.6925 31.5681 41.9925 29.6681C41.4925 28.2181 41.6925 26.4681 42.6925 25.2681ZM46.1926 55.668C47.6927 55.0503 48.9981 54.0044 50.2806 52.9768C50.4516 52.8399 50.6221 52.7032 50.7926 52.568C50.926 52.5013 50.9093 52.4347 50.7426 52.368C50.3426 51.9013 49.9593 51.4013 49.5926 50.868C47.8926 48.468 46.4426 45.218 47.8426 42.318C50.1426 38.068 53.3926 40.718 55.5426 43.518C57.2426 45.668 57.7426 48.618 56.5426 51.118C56.1926 52.118 55.5426 52.918 54.7926 53.618C54.726 53.6847 54.7426 53.7013 54.8426 53.668C56.2426 53.718 57.5426 53.268 58.7926 52.718L59.9926 52.118C60.0593 52.0847 60.126 52.0958 60.1926 52.1069C60.226 52.1124 60.2593 52.118 60.2926 52.118C61.1926 52.668 62.0926 53.468 62.5426 54.368C62.6116 54.5748 62.2765 54.7103 61.9962 54.8237L61.9961 54.8238C61.8699 54.8748 61.7547 54.9214 61.6926 54.968C59.1426 56.318 55.8426 56.618 53.4426 54.818C52.4426 55.668 51.3926 56.468 50.3426 57.218C50.1765 57.3237 50.0148 57.4523 49.8523 57.5816C49.4768 57.8803 49.0962 58.1831 48.6426 58.218C48.1426 58.168 45.7426 56.068 46.1926 55.668ZM52.7925 42.5181C48.5425 43.7181 49.2925 49.1681 51.4925 51.9681C53.8925 50.0681 55.4425 46.6681 54.1925 43.6681C54.1341 43.5416 54.0852 43.4189 54.0391 43.3033L54.039 43.3031C53.8484 42.8248 53.7062 42.4681 53.1424 42.4681C53.0424 42.4681 52.9258 42.4847 52.7925 42.5181ZM37.1927 60.9681C35.2927 60.1181 34.0927 58.3181 33.2927 56.5181C32.1427 54.1181 31.0427 51.7181 30.0927 49.2681C29.6818 49.3023 29.2475 49.4304 28.8218 49.5558L28.8217 49.5558L28.8215 49.5559C28.6257 49.6136 28.4317 49.6708 28.2427 49.7181C27.9918 49.8435 27.7059 49.6892 27.4436 49.5476C27.3923 49.5198 27.3418 49.4926 27.2927 49.4681C26.4427 48.9181 25.5927 48.2681 24.9927 47.4681C24.8927 47.4181 24.7427 47.2181 24.7427 47.0681C24.7825 46.9487 24.8539 46.956 24.9319 46.9639C24.9519 46.966 24.9723 46.9681 24.9927 46.9681C25.5927 46.9681 26.1802 46.8806 26.7677 46.7931C27.3552 46.7056 27.9427 46.6181 28.5427 46.6181C30.0427 46.6181 31.2927 47.7681 32.0927 48.8681C32.6177 50.8556 33.4802 52.7586 34.3427 54.6617L34.3428 54.662C34.6303 55.2963 34.9177 55.9306 35.1927 56.5681C35.7427 54.6681 35.9427 52.7681 35.9927 50.8181C35.9927 50.0853 36.0365 49.3525 36.0802 48.6234V48.6233C36.1407 47.6112 36.2008 46.6062 36.1427 45.6181C36.1427 45.4681 36.2427 45.4181 36.3427 45.3681C37.318 44.9501 38.3796 44.6615 39.4072 44.3822L39.6427 44.3181C40.2427 44.618 40.7427 45.118 41.2426 45.618L41.2427 45.6181C41.2803 45.6651 41.3214 45.7138 41.3637 45.764C41.5466 45.9808 41.7521 46.2244 41.7927 46.4681C41.7587 46.5701 41.586 46.6027 41.4474 46.6289C41.3823 46.6412 41.3247 46.6521 41.2927 46.6681C40.9868 46.7263 40.6809 46.7719 40.3775 46.817L40.3774 46.817C39.6393 46.9269 38.9159 47.0346 38.2427 47.3181C38.172 47.3888 38.1763 47.4095 38.1849 47.4509C38.1884 47.4681 38.1927 47.4888 38.1927 47.5181C38.2599 47.9887 38.282 48.4367 38.3044 48.8924V48.8925C38.3153 49.1147 38.3263 49.3387 38.3427 49.5681C38.6427 53.0181 38.6927 56.4681 37.7427 59.8181C37.7166 59.8964 37.6973 60.0124 37.6759 60.1409V60.1409C37.6154 60.5042 37.5382 60.9681 37.2427 60.9681H37.1927ZM26.2928 36.5681C27.2428 37.7681 28.6428 39.0181 30.2428 39.0681H30.7428H31.3428C33.3428 38.9681 35.3928 38.4181 37.1928 37.6681C36.6928 36.5181 35.4428 35.7181 34.3928 35.1181C34.0032 34.8454 33.5833 35.028 33.204 35.1929C33.0965 35.2396 32.9922 35.285 32.8928 35.3181C32.5326 35.421 32.1592 35.547 31.7803 35.675C30.6861 36.0444 29.5455 36.4295 28.5428 36.3181C28.1706 34.9727 27.8477 33.6273 27.5269 32.2913C27.2875 31.2937 27.0493 30.3013 26.7928 29.3181C26.6057 28.7569 26.5222 28.2413 26.4456 27.7688C26.2562 26.5995 26.1096 25.6947 24.5428 25.0181C24.3428 24.9181 24.2928 25.0181 24.3428 25.1681C24.4788 26.5011 24.7036 27.8193 24.9287 29.1388C25.1173 30.2445 25.306 31.3511 25.4428 32.4681C25.5174 32.8712 25.5698 33.2878 25.6225 33.7071C25.7463 34.6917 25.8719 35.6914 26.2928 36.5681Z" fill="black"/>
</svg>
