<svg width="63" height="60" viewBox="0 0 63 60" fill="none" xmlns="http://www.w3.org/2000/svg">
<path fill-rule="evenodd" clip-rule="evenodd" d="M28.9019 38.9146C24.8433 40.26 20.783 41.6059 16.9219 43.45C17.1719 44.35 18.2719 45.05 19.0719 45.45C20.3978 44.9653 21.7236 44.4521 23.0541 43.9372L23.0544 43.937L23.0545 43.937L23.0546 43.937C26.3902 42.6459 29.755 41.3436 33.2219 40.45C33.6284 40.2739 34.4239 40.0427 35.3679 39.7684C37.9077 39.0303 41.5219 37.98 41.5219 36.85C40.5495 32.6853 39.7736 28.4758 38.9979 24.2671L38.9979 24.267C37.939 18.5216 36.8803 12.7775 35.3219 7.15001C35.2459 6.88142 35.1699 6.5964 35.0911 6.30103C34.3927 3.68216 33.4773 0.25 30.4219 0.25C28.9987 0.71662 27.5783 1.18868 26.1586 1.66048C21.4934 3.21085 16.8371 4.7583 12.1219 6.10001C11.3358 6.34749 10.5455 6.58649 9.75457 6.82566L9.75444 6.8257C7.82898 7.40796 5.90034 7.99118 4.02194 8.70001C1.82194 9.50001 -0.0780612 10.8 1.12194 13.35C2.74118 17.695 3.64667 22.2293 4.55386 26.7722C5.32745 30.6459 6.10227 34.5259 7.32194 38.3C7.57628 38.887 7.70814 39.5505 7.84032 40.2156C8.04594 41.2504 8.25237 42.2891 8.92194 43.05C9.32194 43.4 9.72194 43.75 10.1719 44C10.2219 44.05 10.7719 44.4 10.8219 44.15C10.4181 42.2385 9.91277 40.327 9.40745 38.4154L9.40744 38.4154C8.9743 36.7769 8.54117 35.1385 8.17194 33.5C7.86014 32.045 7.59036 30.5839 7.321 29.1252L7.321 29.1252C6.81284 26.3733 6.30621 23.6296 5.52194 20.95C5.13945 19.5338 4.70566 18.3462 4.33458 17.3303C2.91088 13.4327 2.41035 12.0624 9.27194 10C11.0126 9.45033 12.7585 8.91114 14.5054 8.37164C20.3859 6.55555 26.2782 4.73581 32.0219 2.5C34.3716 10.724 35.838 19.2129 37.2927 27.6348C37.3857 28.1735 37.4788 28.7119 37.5719 29.25L37.572 29.25V29.2501C37.8719 31 38.1719 32.75 38.7219 34.45C39.1602 35.1074 38.4844 35.4191 37.9741 35.6544C37.9022 35.6875 37.8337 35.7191 37.7719 35.75C34.8694 36.9364 31.8861 37.9254 28.9019 38.9146ZM10.3805 26.3444C10.9963 29.1531 11.6524 32.1452 14.622 33.3001C15.022 33.3667 15.4387 33.4001 15.872 33.4001C16.9846 33.4001 18.14 33.1645 19.2822 32.9316C19.8853 32.8087 20.4846 32.6865 21.072 32.6001C24.022 32.0001 26.972 31.3001 29.772 30.2001C29.8575 30.1716 29.943 30.1444 30.0274 30.1176C30.8309 29.8625 31.5293 29.6408 31.122 28.6001C30.7642 27.2709 30.627 25.2099 30.4789 22.9852C30.1926 18.6824 29.8655 13.7673 27.822 12.3501C24.222 9.80006 14.272 12.4001 10.222 13.7501C10.622 14.5001 11.522 15.2501 12.372 15.5001C12.9386 15.3501 13.5053 15.1945 14.0719 15.039L14.072 15.039C15.2053 14.7278 16.3387 14.4167 17.472 14.1501C20.672 13.4501 23.922 13.1001 27.172 13.2001C27.5102 15.3417 27.706 17.5037 27.9016 19.663C28.1399 22.293 28.3778 24.9191 28.872 27.5001C28.8357 27.8273 28.4821 27.9166 28.1573 27.9986C28.0354 28.0294 27.9175 28.0591 27.822 28.1001C23.322 29.7001 18.622 30.7501 13.922 31.2001C13.6574 30.4394 13.3734 29.3311 13.0479 28.0612C11.8973 23.5716 10.229 17.0619 7.07202 16.7501C7.03667 16.8561 7.15122 16.9871 7.25674 17.1078C7.3005 17.1578 7.3427 17.2061 7.37201 17.2501C8.47201 19.5501 9.32202 22.0501 9.97202 24.6001C10.1208 25.1604 10.2497 25.7482 10.3805 26.3444L10.3805 26.3444ZM15.622 24C14.872 23.7 14.122 23.15 13.772 22.45C14.1483 21.0132 14.6182 19.5999 15.0857 18.1939C15.3015 17.5449 15.5167 16.8974 15.722 16.25C16.272 16.3 17.922 17.45 17.622 18.1C17.022 19.9499 16.4221 21.8498 15.8221 23.7497L15.8221 23.7498L15.8221 23.7498L15.8221 23.7498L15.8221 23.7499L15.8221 23.7499L15.822 23.7499L15.822 23.75L15.822 23.75C15.8111 23.7829 15.8025 23.8134 15.7948 23.8409C15.7672 23.939 15.7501 24 15.672 24H15.622ZM19.3721 17.45C18.5221 19.9 17.6721 22.35 17.0721 24.9C16.7801 25.7761 18.1462 26.51 18.8186 26.8712L18.8721 26.9C19.4204 25.7252 19.8323 24.3595 20.2503 22.9738C20.6328 21.7057 21.0204 20.4208 21.5221 19.25C21.9221 18.9 19.6221 16.95 19.3721 17.45ZM22.8721 27.0001C22.8337 26.9771 22.792 26.9525 22.7479 26.9265C22.2181 26.6147 21.3375 26.0963 21.5221 25.4501C22.0721 23.2501 22.6721 21.0001 23.4721 18.8001C23.6721 18.5001 24.7221 19.5001 24.8221 19.8001C24.6035 20.6747 24.3782 21.5493 24.1535 22.4214L24.1535 22.4217L24.1532 22.4227L24.1531 22.4232L24.1531 22.4232L24.1531 22.4232L24.1531 22.4232L24.1531 22.4233L24.1531 22.4233C23.7614 23.9439 23.3716 25.4571 23.0221 26.9501C22.9888 26.9835 22.9555 27.0001 22.9221 27.0001H22.8721ZM50.0787 58.6566C51.9528 59.1238 53.8254 59.5905 55.7218 59.85H56.1718C58.1004 59.85 58.5689 57.7752 58.9583 56.0506C59.0131 55.8079 59.0663 55.5721 59.1218 55.35C59.6309 52.6635 60.0599 49.9769 60.4904 47.2813L60.4905 47.281L60.4905 47.2806C60.8211 45.2105 61.1526 43.135 61.5218 41.05C62.4718 35.35 62.8718 29.55 62.3218 23.8C62.2278 18.8184 58.9533 18.9167 55.1971 19.0295C54.9571 19.0368 54.7151 19.044 54.4718 19.05C53.843 19.0425 53.2119 19.0406 52.5797 19.0388H52.5795H52.5792H52.579H52.5788C49.039 19.0285 45.4654 19.0181 42.0718 18C42.0409 18.0309 41.9527 18.0045 41.8308 17.9681L41.8308 17.968L41.8307 17.968C41.7554 17.9455 41.6673 17.9191 41.5718 17.9C41.2218 17.75 40.7718 17.65 40.8718 17.85C43.1848 20.7312 51.2612 20.7471 56.6548 20.7577H56.6549C57.907 20.7602 59.0146 20.7624 59.8718 20.8C60.9218 29.6 59.2718 38.35 57.4218 46.9C57.302 47.5082 57.1873 48.1199 57.0724 48.7327C56.5637 51.4448 56.0507 54.1806 55.0718 56.75C53.949 57.7954 52.2865 57.3717 50.7809 56.988L50.7808 56.988C50.3421 56.8761 49.9167 56.7677 49.5218 56.7C41.5218 54.45 36.8718 54.85 34.2218 55.2C33.9304 55.2443 33.6623 55.2883 33.4159 55.3288C32.2825 55.5148 31.606 55.6259 31.2107 55.3434C30.6253 54.9253 30.656 53.6447 30.7322 50.4684C30.7451 49.9342 30.7592 49.3464 30.7718 48.7C31.0218 47 30.3218 46.3 28.8718 45.5C28.6052 45.5334 28.6052 46.8334 28.6052 47.8593C28.6052 48.3722 28.6052 48.8167 28.5718 49C28.579 49.3613 28.5769 49.7362 28.5747 50.1183C28.5616 52.3802 28.547 54.8957 30.4718 56.35C32.2218 57.75 34.7718 57.55 37.2718 57.3C37.4764 57.2864 37.6801 57.2718 37.8826 57.2573C39.1646 57.1656 40.3991 57.0773 41.5218 57.25C44.4354 57.25 47.2588 57.9538 50.0786 58.6566L50.0787 58.6566ZM53.072 47.9C50.772 47.625 48.497 47.1625 46.222 46.7C43.947 46.2375 41.672 45.775 39.372 45.5C38.822 45.3 36.772 43.9 37.122 43.35C38.972 43.55 40.872 43.85 42.672 44.2C43.4927 44.3578 44.3035 44.5306 45.1105 44.7026L45.1109 44.7027L45.111 44.7027C46.8606 45.0756 48.5929 45.4447 50.372 45.65C51.122 45.85 51.372 45.5 51.522 44.8C52.572 42 53.272 39 53.572 36C53.5818 35.5624 53.6028 35.1115 53.6242 34.654V34.6539V34.6538V34.6537C53.7128 32.7592 53.8067 30.7512 53.122 29.1C51.5848 28.5388 49.9642 28.4777 48.3532 28.417C46.6631 28.3533 44.9836 28.29 43.422 27.65C43.336 27.5763 43.2288 27.4995 43.1153 27.4182L43.1153 27.4182C42.7671 27.1688 42.3597 26.8771 42.322 26.5C43.5608 26.8003 44.8278 26.847 46.1018 26.8939C46.5247 26.9095 46.9483 26.9251 47.372 26.95C54.022 27.1 56.072 29.7 55.822 36.2C55.872 37.55 54.922 47.95 53.272 47.95C53.2054 47.95 53.1387 47.9333 53.072 47.9ZM42.4717 32.8501C42.9217 33.3501 43.6217 33.6501 44.2717 33.8501H44.3217C44.3717 33.8501 44.4217 33.8001 44.4717 33.7001C44.7717 33.3201 45.0557 32.9241 45.3397 32.5281C45.7657 31.9341 46.1917 31.3401 46.6717 30.8001C46.9503 30.6011 46.7855 30.4655 46.6058 30.3176L46.6057 30.3176C46.5596 30.2797 46.5125 30.2409 46.4717 30.2001C46.4485 30.1853 46.4251 30.1704 46.4016 30.1553C46.3792 30.141 46.3567 30.1266 46.3341 30.112C45.8148 29.7788 45.2183 29.396 44.6217 29.3501C44.1717 30.0001 43.7217 30.6501 43.3217 31.3501C43.2198 31.554 43.0928 31.7496 42.9647 31.9471C42.7787 32.2338 42.5902 32.5244 42.4717 32.8501ZM45.6217 41.0001C45.0717 40.8501 44.5217 40.5501 44.1217 40.2001C44.1051 40.1834 44.0828 40.1667 44.0606 40.1501C44.0162 40.1167 43.9717 40.0834 43.9717 40.0501C44.1314 39.7877 44.2859 39.5253 44.4394 39.2648L44.4394 39.2647C44.9585 38.3831 45.4657 37.5219 46.1217 36.7501C47.0717 35.5001 47.9717 34.2001 48.8717 32.9001C49.0051 32.7001 49.1217 32.5167 49.2217 32.3501C49.2217 32.3001 49.2217 32.2501 49.3217 32.2001C49.8217 32.3001 50.2717 32.6001 50.6717 32.9001C50.7217 32.9001 50.7717 32.9501 50.7717 33.0001C50.6717 33.3001 50.5384 33.6001 50.3717 33.9001C49.5717 35.2501 48.7217 36.6001 47.7217 37.8501C47.2692 38.4232 46.8895 39.0692 46.5058 39.7221C46.2535 40.1513 45.9994 40.5836 45.7217 41.0001H45.6717H45.6217ZM46.7217 42.5C47.1217 43 47.8717 43.3 48.5217 43.5H48.5717H48.5718C48.6217 43.5 48.6717 43.5 48.6717 43.45C48.8414 43.2379 48.9931 43.0258 49.142 42.8176C49.3442 42.5348 49.5414 42.2591 49.7717 42C50.2328 41.4731 50.6167 40.8884 50.9997 40.3051C51.4889 39.5599 51.9767 38.817 52.6217 38.2C52.5717 37.8 51.3217 37.25 50.9217 37.1C50.8627 37.0853 50.7994 37.0575 50.7356 37.0295C50.5829 36.9625 50.4275 36.8943 50.3217 37C50.0846 37.3666 49.866 37.7517 49.6459 38.1394C49.3557 38.6507 49.063 39.1666 48.7217 39.65C48.4879 39.9918 48.2346 40.3206 47.9806 40.6504C47.5285 41.2375 47.0739 41.8277 46.7217 42.5Z" fill="black"/>
</svg>
