<svg width="81" height="102" viewBox="0 0 81 102" fill="none" xmlns="http://www.w3.org/2000/svg">
<path fill-rule="evenodd" clip-rule="evenodd" d="M42.0202 15.3401C42.4531 13.2718 43.1096 11.2633 44.134 9.40818C46.284 5.60818 51.784 -0.291822 56.584 0.908178C61.5513 2.85959 63.9221 7.84011 62.58 12.7093C62.735 12.8333 62.8865 12.9661 63.0341 13.1082C66.8312 15.9353 66.772 19.8839 64.8579 23.1997C64.9445 23.1185 65.1583 23.1954 65.2842 23.2407C65.2936 23.2441 65.3024 23.2473 65.3107 23.2502C65.3191 23.2532 65.327 23.2559 65.3342 23.2583C66.7675 23.625 68.1564 24.0805 69.5453 24.5361C70.2397 24.7639 70.9342 24.9917 71.6342 25.2083C73.0842 25.5083 74.2342 26.4583 75.2342 27.5083C75.4342 27.7083 76.1842 28.5583 75.5342 28.5083C73.3342 27.8583 71.1342 27.2083 68.9342 26.5083C67.2342 26.2083 65.7342 24.8583 64.8342 23.4083C64.8174 23.3412 64.8161 23.291 64.8263 23.2541C63.2817 25.8962 60.5612 28.1287 57.6841 29.0582C57.4886 29.1256 57.2925 29.1883 57.0957 29.2464C59.611 29.9855 62.1006 30.7564 64.3294 31.9495C65.6102 31.5066 66.8915 31.0632 68.1842 30.6084C68.8681 30.3907 69.5521 30.1248 70.2405 29.8571C71.7666 29.2637 73.3148 28.6617 74.9342 28.5583C75.7719 28.698 76.4363 29.2708 77.0888 29.8332L77.1662 29.9L77.2342 29.9584C79.0112 31.1778 78.9671 34.8496 78.9294 37.9958V37.9958V37.9959V37.996V37.996V37.9961V37.9961V37.9962V37.9963C78.913 39.3648 78.8978 40.6339 79.0342 41.5583C79.1606 48.171 79.4998 54.7748 79.839 61.3771L79.839 61.3775L79.839 61.3778C80.3051 70.4509 80.771 79.5212 80.6842 88.6084C80.719 91.4999 77.9867 92.2068 75.3962 92.8771C74.2687 93.1687 73.1681 93.4535 72.3342 93.9084C70.6454 94.5481 68.9828 95.3056 67.3262 96.0604L67.3261 96.0605C65.7458 96.7805 64.1709 97.4981 62.5842 98.1084C61.5842 97.6584 60.4842 96.8084 60.0342 95.7584C60.1905 95.5709 60.4444 95.481 60.6983 95.3912L60.6984 95.3911C60.8507 95.3372 61.003 95.2833 61.1342 95.2083C61.8308 94.8927 62.5249 94.5724 63.2193 94.2519C64.8228 93.5119 66.4274 92.7714 68.0649 92.0875C67.7655 91.7407 67.5137 91.363 67.3338 90.9582C67.3838 89.7583 67.4213 88.571 67.4588 87.3836V87.3836V87.3835V87.3834V87.3834V87.3833V87.3832V87.3831V87.3831V87.383V87.3829V87.3829V87.3828C67.4963 86.1954 67.5338 85.0081 67.5838 83.8082C67.8838 75.3082 67.6338 66.8082 67.3838 58.3582C67.1993 55.1602 67.1493 51.9538 67.0993 48.7528C67.0275 44.1465 66.9558 39.5512 66.4838 35.0082C66.4731 34.9408 66.4514 34.8763 66.4198 34.8146C64.7427 35.3884 63.0634 35.9544 61.3842 36.5084C60.9672 36.6726 60.5375 36.8177 60.1071 36.963L60.107 36.9631L60.1068 36.9631L60.1067 36.9631L60.1066 36.9632L60.1065 36.9632L60.1063 36.9633L60.1062 36.9633L60.1061 36.9634C58.8336 37.393 57.5554 37.8245 56.5842 38.7584C55.8298 38.679 55.1701 38.0636 54.5798 37.5131L54.5798 37.513C54.4267 37.3703 54.2783 37.2319 54.1342 37.1084C52.478 35.9039 56.1773 34.7277 58.5127 33.9852C59.2795 33.7414 59.8994 33.5443 60.1342 33.4084C60.6799 33.2164 61.2235 33.0264 61.7659 32.8377C61.0788 32.632 60.388 32.432 59.6962 32.2317L59.6962 32.2317L59.6961 32.2316C57.2934 31.536 54.8794 30.837 52.5693 29.8852C49.8728 29.9207 47.1404 29.4543 44.5098 29.0053L44.4978 29.0032C43.4512 29.5204 42.3686 29.9879 41.2584 30.3783C41.3291 30.4574 41.3962 30.5338 41.459 30.6053C41.5419 30.6996 41.6173 30.7856 41.684 30.8583C42.0013 31.2152 41.8152 31.289 41.525 31.4041C41.4494 31.4341 41.3667 31.4669 41.284 31.5083L36.7818 33.4537C43.4528 34.2139 50.1153 36.0794 53.0839 42.2583C55.4718 52.9015 55.0669 63.9404 54.6637 74.9303C54.476 80.0485 54.2886 85.1562 54.3839 90.2083C54.3472 92.2667 54.4033 93.8708 54.4471 95.1224C54.5225 97.2778 54.5614 98.3878 54.0262 98.9724C53.458 99.5931 52.2427 99.6214 49.737 99.6798H49.7369C48.5167 99.7082 46.9904 99.7438 45.0839 99.8583C41.1239 99.9783 37.1638 100.071 33.2037 100.164L33.2031 100.164C23.9634 100.381 14.7236 100.598 5.48394 101.158C2.33394 101.108 -0.0660567 97.6583 0.283943 94.6083C0.241086 90.9655 0.418637 87.3226 0.596188 83.6797C0.62578 83.0726 0.655372 82.4655 0.683943 81.8583C1.43394 70.1083 1.73394 58.4083 1.88394 46.6583C1.9423 45.7684 1.96234 44.8488 1.98258 43.9205C2.0317 41.6669 2.08194 39.3622 2.68394 37.3083C4.13394 37.8583 5.43394 39.2083 6.18394 40.5583C5.31728 46.125 5.25061 51.7805 5.18394 57.4361C5.15061 60.2639 5.11728 63.0916 4.98394 65.9083C4.85635 70.5017 4.54785 75.1042 4.23927 79.7081C3.82232 85.9287 3.40521 92.1518 3.43394 98.3583C10.7561 97.8718 18.0901 97.5273 25.4244 97.3133C25.366 97.1402 25.334 96.9546 25.334 96.7583C25.129 95.499 24.9755 94.2397 24.8231 92.9905C24.7154 92.1069 24.6083 91.2283 24.484 90.3583C23.284 81.6083 22.184 72.8583 22.034 64.0583C21.9905 60.9707 22.0416 57.8925 22.0926 54.8156C22.159 50.8171 22.2253 46.8207 22.084 42.8083C21.834 40.4083 22.434 38.0583 23.834 36.1083C24.0915 35.7971 24.3882 35.5389 24.7111 35.3174C23.8343 35.2627 22.9583 35.1951 22.0839 35.1083C21.6865 35.0722 21.311 35.0475 20.9542 35.0241H20.9541L20.954 35.0241L20.9539 35.0241L20.9538 35.0241C18.8414 34.8855 17.3809 34.7896 15.8839 32.6083C15.1105 31.659 15.9439 31.7975 16.7328 31.9286C17.0659 31.984 17.391 32.038 17.5839 32.0083C21.1339 32.3583 24.6339 32.6583 28.1339 32.8083C28.8036 32.855 29.4942 32.8975 30.2005 32.9403C31.3032 32.4831 32.3981 32.013 33.4899 31.5348C33.3879 31.527 33.2859 31.5182 33.1837 31.5083C29.2837 31.2083 25.2837 29.0083 23.5337 25.4583C22.6143 23.0311 23.8589 20.5498 25.8151 19.0091C24.5525 17.6348 23.5118 16.084 22.8837 14.3082C21.0837 8.90819 25.4837 2.9082 31.3837 5.2582C35.5337 7.0582 39.1337 10.3082 41.4337 14.2082C41.642 14.5809 41.837 14.9584 42.0202 15.3401ZM27.3598 18.0607C26.2715 15.3127 27.2029 11.8219 29.634 10.0582C31.384 8.75816 33.834 8.60816 35.734 9.55816C36.284 10.2082 36.734 10.9582 37.134 11.7082C38.6745 14.7487 39.6891 18.1178 40.391 21.4692C37.0025 18.3451 31.8425 16.4218 28.1337 17.7583C27.8726 17.8426 27.6139 17.9439 27.3598 18.0607ZM29.2527 22.0534C27.4157 23.4627 26.239 25.5869 26.9841 27.9083C31.2668 29.2912 35.8679 28.3656 39.9706 26.765C36.9922 26.1842 34.0949 25.2329 31.4837 23.6082C30.7393 23.119 29.9881 22.6027 29.2527 22.0534ZM40.8211 23.7325L40.834 23.8082C40.4923 23.7623 40.1288 23.7165 39.7482 23.6685C36.8928 23.3085 33.0811 22.828 30.3791 21.3221C31.5077 20.7069 32.7634 20.3399 33.9341 20.3083C37.3524 20.348 39.6648 21.1461 40.8211 23.7325ZM58.9842 3.7082C60.124 6.47643 59.9646 9.01132 59.0016 11.2835C57.0453 11.0669 54.9595 11.5237 53.1341 12.2082C50.6789 13.0154 48.4726 14.456 46.7434 16.3322C47.8714 13.08 49.6163 10.0639 52.1342 7.60819C53.9342 5.90819 56.0342 3.9582 58.6342 3.7082H58.9842ZM49.8688 20.2703C51.5092 18.1468 53.8518 16.2769 56.4356 15.1628C54.6013 17.1804 52.2262 18.8939 49.8688 20.2703ZM46.734 26.9082C46.6911 26.7183 46.6835 26.5096 46.7048 26.287C46.824 26.3996 46.9372 26.4938 47.0338 26.5582C47.2626 26.7672 47.4974 26.9662 47.7373 27.1565C47.5021 27.1261 47.2676 27.0932 47.034 27.0582C47.0165 27.0407 46.9743 27.0354 46.927 27.0295C46.8394 27.0187 46.734 27.0056 46.734 26.9082ZM47.7719 25.7263C48.8597 26.3723 50.0156 26.9026 51.2107 27.3649C52.8588 27.3267 54.4904 27.0581 56.034 26.4082C60.584 24.6082 65.284 19.3082 62.934 14.2082C62.6535 14.1624 62.3716 14.1293 62.0887 14.1085C62.0242 14.2588 61.956 14.4087 61.884 14.5582C59.5793 19.1258 53.0602 23.2017 47.7719 25.7263ZM71.0776 90.9011C71.7092 90.6359 72.4011 90.4423 73.098 90.2473C74.6334 89.8176 76.1927 89.3811 77.1842 88.1584C77.7206 80.3268 77.3618 72.3929 77.0042 64.4848V64.4845V64.4843V64.484V64.4838V64.4835V64.4833V64.483V64.4828C76.8618 61.3345 76.7196 58.1903 76.6342 55.0583C76.29 47.3388 76.0909 39.5708 75.8942 31.8972L75.8842 31.5084C73.1788 32.4665 70.4576 33.4247 67.7294 34.3649C68.3226 34.9278 68.8765 35.5548 69.3838 36.2582C70.226 38.0129 70.2554 39.9892 70.2846 41.9452C70.2969 42.7761 70.3092 43.6033 70.3838 44.4082C70.5306 50.0369 70.7733 55.6655 71.018 61.341L71.0338 61.7082C71.3682 71.406 71.7026 81.1951 71.0776 90.9011ZM31.263 35.7468C31.399 35.6969 31.5355 35.6467 31.6725 35.5961C35.5463 35.7299 39.4027 35.9363 43.1839 36.7583C43.5188 36.8579 43.9405 36.9656 44.4116 37.086C46.5434 37.6307 49.6878 38.4341 50.3839 39.9083C52.032 45.1022 52.1337 50.6453 52.2336 56.0891L52.2339 56.1083C52.2339 60.765 52.145 65.4366 52.0558 70.1149L52.0558 70.1154C51.9813 74.0265 51.9067 77.9424 51.8839 81.8583C51.8339 86.2583 51.8339 90.6083 52.1839 95.0083C52.5995 97.1997 51.4164 97.1356 50.0151 97.0597C49.562 97.0352 49.086 97.0094 48.6339 97.0583C41.4032 97.0103 34.1609 97.0776 26.9182 97.2715C26.9303 96.7536 26.8777 96.2042 26.8256 95.6607C26.7796 95.18 26.734 94.7039 26.734 94.2583C26.564 92.124 26.3726 89.9968 26.1814 87.8714C25.8664 84.3703 25.5518 80.874 25.334 77.3583C24.8888 71.0147 25.0767 64.6712 25.2646 58.3276C25.3299 56.1212 25.3953 53.9147 25.434 51.7083C25.5189 49.8114 25.3313 47.9306 25.1435 46.0476C24.9997 44.6051 24.8557 43.1614 24.834 41.7083C25.4953 37.8644 28.2409 36.8563 31.263 35.7468ZM5.18413 31.9584C3.93413 32.2584 6.98413 34.3584 7.48413 34.4584C9.23637 33.7249 10.972 32.9 12.7147 32.0719C15.2486 30.8677 17.7975 29.6564 20.4341 28.7084C21.4841 28.6084 17.6841 25.5083 17.1341 25.8583C15.3905 26.7972 13.5969 27.6762 11.7979 28.5577C9.57326 29.6478 7.34048 30.742 5.18413 31.9584Z" fill="black"/>
</svg>
