<svg width="150" height="136" viewBox="0 0 150 136" fill="none" xmlns="http://www.w3.org/2000/svg">
<path fill-rule="evenodd" clip-rule="evenodd" d="M84.2225 6.67685C81.9226 6.57685 79.7225 5.07686 78.3725 3.27686C77.6225 1.87686 79.2725 -0.173137 80.7725 0.326863C81.7225 0.626863 84.9725 2.62686 84.5225 3.57686C84.0779 3.48488 83.7791 3.32708 83.5466 3.20437C83.021 2.92687 82.8353 2.82878 82.0725 4.07686C83.8225 3.82686 85.4725 5.17685 86.5225 6.42685C86.5225 6.75205 85.5303 6.71168 84.8289 6.68315C84.5598 6.67219 84.3335 6.66299 84.2225 6.67685ZM89.1726 48.1769C89.0226 49.6769 90.4726 50.6269 91.6726 51.2269C91.9149 51.2673 91.8636 51.1119 91.8086 50.9453L91.8086 50.9452C91.7955 50.9056 91.7822 50.8653 91.7726 50.8269C91.5602 46.8971 90.7963 43.0676 90.0311 39.2319L90.031 39.2315L90.031 39.2312L90.0309 39.2309L90.0308 39.2305L90.0308 39.2302L90.0307 39.2299L90.0306 39.2296L90.0306 39.2295L90.0306 39.2293L90.0306 39.2292L90.0305 39.229L90.0305 39.2289L90.0304 39.2284C89.7152 37.6481 89.3997 36.0668 89.1226 34.4769C88.7416 32.4814 88.4396 30.4726 88.1378 28.465L88.1378 28.4648C87.6078 24.9394 87.0783 21.4176 86.1226 17.9769L86.0601 17.7173C85.3931 14.9427 84.8765 12.7939 81.7726 11.7269C81.5827 11.8535 81.7735 12.4009 81.9517 12.9124C82.0551 13.2089 82.1542 13.4934 82.1726 13.6769C83.1226 17.2269 83.9226 20.8269 84.5726 24.4269C85.288 28.5761 86.2081 32.6485 87.1315 36.7357L87.1316 36.7362C87.499 38.3622 87.8669 39.9905 88.2226 41.6269C88.6726 43.7769 89.0226 45.9769 89.1726 48.1769ZM103.222 54.5269C102.422 54.1769 99.4222 52.0269 100.272 51.1269C102.302 48.4205 104.664 45.984 107.024 43.5499L107.024 43.5497L107.024 43.5496L107.024 43.5496L107.024 43.5496L107.024 43.5495L107.024 43.5495L107.024 43.5494L107.024 43.5494L107.024 43.5493L107.024 43.5493L107.024 43.5492L107.024 43.5492L107.024 43.5491L107.024 43.5491L107.024 43.5491L107.024 43.549L107.025 43.549L107.025 43.5489L107.025 43.5489C108.327 42.2058 109.628 40.8635 110.872 39.4769C111.937 38.3963 112.991 37.2585 114.051 36.1138L114.051 36.1137C116.278 33.7097 118.534 31.2753 120.972 29.2769C121.772 29.5269 125.322 32.2268 124.022 32.9268C121.555 35.5769 118.961 38.1267 116.364 40.6789C111.857 45.109 107.343 49.5462 103.472 54.5269C103.372 54.5602 103.289 54.5602 103.222 54.5269ZM135.809 82.899C137.049 84.117 138.297 85.3418 139.872 86.0269C140.731 85.9879 139.243 84.6381 138.383 83.8578L138.382 83.8577L138.382 83.857C138.141 83.6383 137.949 83.4645 137.872 83.3769C133.772 79.4269 129.422 75.7269 124.522 72.8269C121.21 70.7952 117.78 68.9975 114.337 67.1927C113.882 66.9544 113.427 66.716 112.972 66.4769C111.953 65.9458 110.947 65.3818 109.938 64.8168C107.433 63.4134 104.917 62.0037 102.172 61.0769C99.1723 60.1269 101.222 61.8269 102.422 62.5269C105.697 63.2796 108.603 64.9671 111.503 66.6512L111.503 66.6514C112.456 67.2047 113.408 67.7576 114.372 68.2769L115.112 68.6793C118.821 70.6963 122.559 72.7297 126.122 75.0269C128.972 76.8269 131.622 78.9769 134.072 81.2769C134.671 81.7808 135.239 82.3392 135.809 82.899ZM121.372 109.877C118.563 108.849 117.538 106.225 116.511 103.597L116.511 103.596C116.039 102.389 115.567 101.181 114.922 100.127C114.026 98.5411 113.123 96.9539 112.217 95.3641L112.212 95.3552L112.208 95.3477L112.199 95.3313L112.198 95.3307L112.198 95.3301L112.198 95.3295L112.197 95.3289L112.197 95.3283L112.197 95.3281L112.197 95.3279L112.197 95.3277L112.197 95.3275L112.197 95.3273L112.197 95.3272L112.196 95.327L112.196 95.3267C107.401 86.9041 102.563 78.4067 98.5723 69.627C99.7723 69.727 101.422 71.227 101.722 72.427C105.272 79.527 108.972 86.577 113.022 93.477C116.122 98.427 119.222 103.427 121.322 108.927C121.345 108.996 121.389 109.086 121.437 109.184L121.437 109.184C121.597 109.509 121.796 109.915 121.372 109.877ZM83.6223 112.377C82.5223 111.877 81.3223 111.027 80.8223 109.877C81.2889 108.344 81.7723 106.81 82.2723 105.277L82.2725 105.276C84.0224 99.8264 85.7724 94.3766 87.2223 88.8269C87.3618 88.2735 87.5017 87.7205 87.6417 87.1678L87.6493 87.1376L87.6528 87.1236L87.6564 87.1094L87.6565 87.1092C89.0157 81.7392 90.3686 76.3943 91.2723 70.9268C91.2223 69.3768 94.3223 72.3269 94.6223 72.6768C95.2723 73.2269 95.4223 73.8768 95.1223 74.6768C94.6496 77.3712 93.9981 80.0209 93.3369 82.7104L93.2223 83.1768C90.6223 92.9769 87.7723 103.277 83.6223 112.377ZM83.7225 56.3768C81.8739 55.7101 80.962 54.1249 80.0406 52.5231C79.4419 51.4822 78.8391 50.4343 77.9725 49.6268C68.1216 38.7072 64.2299 37.806 52.1312 35.0042C51.2112 34.7911 50.2437 34.5671 49.2226 34.3268C48.5726 34.0768 44.7225 30.9768 46.6225 31.3268C57.3225 32.9768 66.3725 36.7268 74.1725 44.4268L74.6053 44.8405C77.9209 48.0081 81.3186 51.2543 83.5225 55.3268C83.5387 55.4238 83.6228 55.573 83.7106 55.7289C83.8945 56.0552 84.0948 56.4107 83.7225 56.3768ZM39.0225 68.3769C39.2725 69.4769 40.9725 70.4769 41.9725 70.9269C44.2225 70.2545 46.4814 69.5374 48.7501 68.8174C59.6393 65.361 70.7518 61.8338 82.1724 62.8269C81.6224 61.7269 80.4224 60.9269 79.3224 60.4269C77.1225 60.2269 74.9225 60.1269 72.7225 60.2269C62.2454 60.7665 52.2132 64.0559 42.3348 67.2949C41.2289 67.6575 40.1249 68.0195 39.0225 68.3769ZM84.7226 44.2769C81.7411 43.1447 80.5543 40.3033 79.399 37.5373C79.0237 36.6388 78.6517 35.7483 78.2226 34.9268C77.7552 33.8363 77.1968 32.7762 76.642 31.7227C76.4845 31.4237 76.3273 31.1253 76.1726 30.8269C76.1226 30.7269 75.9726 30.3769 76.1226 30.2769C77.1726 30.4769 78.5726 31.6769 79.0226 32.6269C79.8542 34.2901 80.7474 35.9995 81.6423 37.7124L81.6426 37.713C82.3617 39.0894 83.082 40.468 83.7726 41.8269C83.8053 41.974 84.0091 42.303 84.239 42.674C84.7118 43.4372 85.2946 44.3778 84.7226 44.2769ZM96.8723 90.5269C97.6723 92.1269 99.4223 93.3769 101.022 94.0769C101.569 94.521 101.299 90.998 101.104 88.466C101.014 87.2916 100.941 86.3304 100.972 86.0769C101.622 84.6269 96.8223 80.9269 96.3223 81.6769C96.3973 83.1519 96.4973 84.6269 96.5973 86.1019C96.6973 87.5769 96.7973 89.0519 96.8723 90.5269ZM72.2226 97.4268C71.3726 97.0768 70.4726 96.4269 70.1226 95.6269C70.2661 95.3398 70.4354 95.0784 70.612 94.8058C70.6814 94.6987 70.752 94.5897 70.8226 94.4768C71.6939 93.1303 72.5259 91.7446 73.3592 90.3569L73.3594 90.3565C74.63 88.2404 75.9033 86.1198 77.3226 84.1269C77.5726 83.7769 77.9226 83.5269 78.3226 83.8769C78.8726 84.2269 79.5726 84.6768 79.8226 85.3269C79.4821 85.5822 79.2141 85.9462 78.9569 86.2955L78.9562 86.2965C78.9114 86.3573 78.867 86.4176 78.8226 86.4768C77.6453 88.1937 76.6003 90.055 75.5638 91.9013C74.4873 93.8188 73.4198 95.7201 72.2226 97.4268ZM72.7227 118.077C73.1227 120.477 75.8226 122.677 78.1726 123.027C79.1726 123.027 80.3226 122.877 81.2726 122.577C81.347 122.317 81.1449 122.056 80.9747 121.837L80.9746 121.837C80.916 121.762 80.8611 121.691 80.8226 121.627C78.9433 119.656 78.9129 119.66 76.7635 119.944C76.5683 119.97 76.3557 119.998 76.1226 120.027C77.0787 117.756 78.5702 117.985 79.3173 118.1C79.8206 118.177 79.9861 118.202 79.4226 117.377C77.3226 114.327 73.3727 113.727 72.7227 118.077ZM31.7226 69.9269C27.6726 68.3269 27.2226 65.1769 31.7226 63.8269C31.7841 63.8064 31.8477 63.7796 31.9129 63.7521L31.913 63.7521C32.1661 63.6454 32.4444 63.5281 32.7226 63.7269L32.7497 63.7415C33.396 64.0894 34.2268 64.5366 34.5226 65.2269C34.3607 65.2905 34.1894 65.3541 34.0127 65.4197L34.0125 65.4198C32.6615 65.9216 30.9937 66.5409 30.7726 68.1769C31.397 67.9301 31.7514 67.6874 32.0014 67.5164C32.1869 67.3894 32.3148 67.3019 32.4527 67.2813C32.759 67.2356 33.1144 67.5201 34.2593 68.4363L34.3726 68.5269C34.3963 68.5507 34.4226 68.5757 34.4502 68.6019C34.5967 68.7415 34.7805 68.9165 34.8226 69.1269C34.0726 69.8769 32.7726 70.3269 31.7226 69.9269ZM33.3723 26.8769C34.5723 29.0269 37.3723 30.7269 39.8223 30.6769C41.4401 30.8117 39.1398 29.1693 38.3673 28.6176L38.3673 28.6176C38.2803 28.5555 38.2127 28.5073 38.1722 28.4769C38.2918 28.2527 38.4426 28.0911 38.57 27.9546C38.8687 27.6345 39.0383 27.4527 38.3723 26.9269C37.3223 25.9269 36.0223 24.8769 34.6223 24.5769C33.8723 25.0269 33.2723 26.0269 33.3723 26.8769ZM123.472 25.5268C124.022 25.9768 124.672 26.2768 125.422 26.2268C131.422 26.3268 130.472 22.0268 126.222 19.7768C123.522 18.5768 126.722 21.6768 127.222 21.2268C128.472 23.8268 124.622 24.4269 122.822 24.1269C121.477 23.8486 122.885 25.0327 123.376 25.4453C123.414 25.4776 123.447 25.5051 123.472 25.5268ZM149.273 94.2269C147.023 93.1769 144.422 91.4269 143.672 88.9769C143.572 87.5269 144.272 85.5769 145.672 84.9269C146.322 84.7269 150.523 88.2769 149.323 88.4769C148.323 89.1269 147.522 90.6769 147.622 91.8269C147.663 91.867 147.74 91.9383 147.842 92.0319L147.842 92.032C148.502 92.6392 150.182 94.1836 149.273 94.2269ZM124.672 116.427C120.472 119.177 125.722 123.177 128.872 123.627C129.872 123.477 126.572 120.677 125.972 120.877C126.172 119.977 126.822 118.777 127.872 118.727C128.322 118.377 125.422 115.577 124.672 116.427ZM2.7225 135.677C2.0725 135.577 0.172452 134.477 0.922452 134.277C6.42245 130.677 11.7225 126.727 16.9725 122.727C25.5864 115.972 33.9218 108.868 42.256 101.766C48.0478 96.8298 53.8389 91.8946 59.7225 87.077C63.3259 84.0579 66.8028 80.8913 70.2764 77.7277L70.2766 77.7276L70.2768 77.7273C72.1532 76.0184 74.0286 74.3104 75.9225 72.627C78.0721 70.7273 80.2717 68.9776 82.4713 67.2279L82.4725 67.227C82.7225 66.877 83.1225 66.927 83.4725 67.077C84.5725 67.577 85.7225 68.177 86.4725 69.127C86.5225 69.277 86.4225 69.327 86.3225 69.377C85.6558 69.9103 84.9891 70.4603 84.3225 71.027C80.4049 74.0854 76.6998 77.451 72.9963 80.8151L72.9962 80.8152L72.9962 80.8153L72.9961 80.8153L72.996 80.8154L72.996 80.8155C71.3111 82.3459 69.6265 83.8761 67.9225 85.377C61.7458 90.7246 55.3285 95.8316 48.9271 100.926L48.9267 100.926L48.9222 100.93L48.9208 100.931L48.91 100.94L48.9039 100.945L48.8914 100.954C47.5837 101.995 46.2767 103.035 44.9725 104.077C31.3725 115.227 17.6225 126.427 2.7225 135.677ZM95.5225 39.7269C96.1225 40.8269 97.4724 41.5769 98.6224 42.0769C98.8224 42.1269 98.8724 41.9269 98.9224 41.7269C99.5738 40.0441 100.299 38.4055 101.026 36.7631L101.026 36.7626C101.638 35.3796 102.251 33.9939 102.822 32.5769C103.922 29.8103 105.022 27.0603 106.122 24.3269C106.177 23.9796 106.399 23.512 106.632 23.0219C107.035 22.1713 107.471 21.2527 107.122 20.7769C106.272 19.9269 105.172 19.0269 103.972 18.7269C103.659 19.1351 103.483 19.6615 103.308 20.1824C103.205 20.4911 103.103 20.7979 102.972 21.0769C102.072 23.2664 101.214 25.4642 100.356 27.6602C99.1178 30.83 97.8812 33.9959 96.5225 37.1269C96.4434 37.319 96.3617 37.511 96.2799 37.7037L96.2798 37.7038L96.2797 37.704C95.9993 38.3638 95.7159 39.0304 95.5225 39.7269ZM110.523 57.5769C109.973 57.4769 107.823 56.1769 108.173 55.7269C116.239 54.3034 124.531 54.501 132.705 54.6958L132.707 54.6958C133.146 54.7063 133.585 54.7167 134.023 54.7269C134.623 54.6269 138.523 57.3769 137.073 57.3269L136.447 57.2915C127.801 56.802 119.067 56.3075 110.523 57.5769ZM110.153 75.0521C112.311 78.6766 114.462 82.2883 118.422 83.9769C119.383 84.1547 118.218 82.6632 117.394 81.607C117.059 81.1783 116.78 80.8213 116.723 80.6769C115.323 78.8269 113.973 76.8769 112.723 74.8769C111.073 72.3769 109.072 69.8769 106.322 68.4269C106.022 68.2269 105.172 67.9769 105.622 68.6769C107.436 70.4909 108.796 72.774 110.153 75.0521ZM59.5223 76.2269C58.5223 75.7269 56.8723 74.7769 56.5723 73.6769C60.1723 71.8269 63.7723 70.0269 67.4723 68.3269C67.7202 68.2443 67.9756 68.1123 68.2356 67.9781C68.9193 67.625 69.6339 67.2559 70.3223 67.7269C70.405 67.7838 70.4899 67.8412 70.5759 67.8994C71.3221 68.4042 72.1585 68.97 72.4723 69.7769C69.767 70.8221 67.1183 72.2454 64.4799 73.6632L64.4797 73.6633C62.8271 74.5514 61.1784 75.4374 59.5223 76.2269ZM60.5226 53.4768C65.0226 54.3768 69.5226 55.2268 74.0226 56.0768C74.5226 56.2268 74.2226 55.7268 74.0726 55.5768C72.4226 53.5768 69.9226 53.0268 67.4726 52.7268C65.5851 52.3837 63.7212 52.0876 61.8484 51.7901C60.9927 51.6542 60.1351 51.518 59.2726 51.3768C58.8285 51.2898 58.3828 51.2057 57.9364 51.1215C55.8199 50.7223 53.6872 50.3201 51.6226 49.5768C50.5726 49.0768 50.6226 49.4768 51.3226 50.1268C53.3092 51.875 55.9587 52.455 58.5437 53.0209C59.2118 53.1672 59.8757 53.3125 60.5226 53.4768Z" fill="black"/>
</svg>
