<svg width="308" height="391" viewBox="0 0 308 391" fill="none" xmlns="http://www.w3.org/2000/svg">
<path fill-rule="evenodd" clip-rule="evenodd" d="M152.412 34.3692C151.65 35.5016 150.438 36.693 149.639 37.4792C149.409 37.7049 149.214 37.8973 149.072 38.0452C142.337 44.1816 133.457 47.3745 124.627 49.0708C105.868 52.563 86.4612 51.9145 67.7028 48.8213C52.686 46.5264 38.0684 40.839 28.4897 28.4664C27.5694 27.4542 26.7239 26.3605 25.8754 25.2629C24.4239 23.3853 22.9636 21.4965 21.106 19.9852C16.0173 16.5429 10.729 21.3323 8.63367 25.9221C4.14363 34.3534 -1.24443 51.8147 11.5273 55.4067C11.8599 55.6063 12.0428 55.5231 12.076 55.1573C13.2734 52.4134 15.3189 48.971 18.6614 48.7714C27.4919 51.7149 23.5007 59.9966 15.269 58.4999C14.8699 58.3003 14.6703 58.4666 14.6703 58.9988C12.8743 64.2372 13.5727 70.0742 15.4685 75.2627C16.4696 77.5986 17.4874 79.8089 18.4716 81.9461C23.3731 92.5901 27.44 101.422 24.4486 114.925C23.0007 121.615 20.2927 128.866 17.5059 136.327C11.9386 151.234 6.05726 166.981 9.28224 180.779C10.2146 183.713 11.7498 186.346 13.2831 188.975L13.2832 188.975C14.5395 191.13 15.7946 193.282 16.7158 195.596C21.6858 208.359 18.512 221.756 15.4274 234.777C14.6416 238.094 13.8616 241.386 13.2235 244.637C10.9286 255.314 9.38201 266.239 9.58157 277.165C9.74018 283.007 10.5291 288.794 11.3175 294.576C12.017 299.706 12.7161 304.833 12.9741 309.992C13.3267 320.186 12.6082 330.38 11.8907 340.56C11.4916 346.224 11.0927 351.884 10.8787 357.537C10.8122 357.57 10.7623 357.587 10.729 357.587C9.63146 356.938 8.13478 355.891 8.23456 354.544L8.63367 346.861C8.933 339.527 9.43187 332.194 9.93074 324.86L9.9308 324.859C11.0783 312.364 9.51037 300.014 7.94122 287.654L7.94117 287.654C7.66839 285.505 7.39558 283.356 7.13699 281.206C6.08931 270.181 7.38644 259.055 9.43191 248.229C10.1913 244.123 11.2087 239.9 12.2399 235.621C16.3575 218.533 20.6932 200.54 9.68135 185.419C1.77349 173.705 6.1554 159.103 9.87581 146.705L9.98069 146.355C11.3637 141.976 13.026 137.647 14.68 133.34C20.9019 117.139 27.0044 101.248 17.6637 84.143C17.3846 83.5639 17.1006 82.9806 16.8147 82.3934C13.0121 74.583 8.86847 66.0722 11.3277 57.3025C3.3454 53.4111 -1.14465 44.3313 1.00059 35.7004C2.74672 27.9675 7.53611 11.4043 18.2623 16.6925C22.2027 18.9214 25.0317 22.484 27.8133 25.9869C28.5183 26.8747 29.2202 27.7587 29.9365 28.6161C35.3245 35.7503 43.3068 40.1905 51.8379 42.5851C76.6828 49.6694 120.785 52.4632 143.385 38.6938C145.63 37.247 147.775 35.6505 149.671 33.7048C149.916 33.4602 150.15 33.2049 150.378 32.9424C150.347 32.9102 150.316 32.8778 150.285 32.845C149.162 32.4493 148.022 32.0688 146.877 31.6864C141.044 29.7389 135.073 27.7455 130.564 23.4782C128.518 21.5824 126.672 19.3872 125.874 16.6432C123.928 10.2573 128.768 2.77385 135.253 1.47671C139.893 1.37693 144.084 5.76725 146.578 9.30943C148.92 12.8413 150.671 16.8163 151.581 20.9616C151.81 16.986 152.366 13.0487 153.912 9.3589C155.06 6.51518 156.706 3.57167 159.55 2.12486C162.294 0.678056 165.886 0.278936 168.38 2.4242C171.374 4.66925 173.918 8.01188 173.768 11.9033C173.868 17.3413 170.575 22.1307 167.283 26.2217C163.757 30.4616 159.273 32.6653 154.152 33.94C154.447 34.2974 154.724 34.6624 155.001 35.0251C155.511 35.6946 156.014 36.3565 156.606 36.9481C157.654 38.0457 158.702 39.0934 159.949 39.8916C160.747 40.4903 161.545 40.9393 162.443 41.2886C165.586 42.7853 168.979 43.5336 172.471 43.9826C174.939 44.3744 177.438 44.5508 179.944 44.4394C180.232 44.4063 180.518 44.3704 180.803 44.3318C188.317 43.5702 195.314 40.8583 202.307 38.1479C209.058 35.5315 215.805 32.9166 223.009 32.059C228.779 31.5542 234.391 32.7432 239.998 33.9311C242.149 34.3868 244.3 34.8423 246.457 35.202C255.487 36.7486 264.867 36.998 273.797 34.5035C277.239 33.6554 280.682 32.4082 283.775 30.5623C284.074 30.4292 284.024 30.1964 283.625 29.8638C281.929 26.172 281.53 21.682 283.675 18.0899C285.671 14.3981 290.36 9.80828 294.7 12.7019C296.347 13.8992 298.193 15.5955 298.043 17.8405C297.494 24.376 292.306 29.764 287.067 33.2563C289.215 37.4572 291.882 41.3948 294.547 45.3298C298.939 51.8161 303.327 58.2952 305.377 65.9339C308.228 76.5485 304.859 86.7373 301.506 96.875L301.506 96.8753C299.989 101.461 298.476 106.036 297.544 110.635C293.266 129.345 297.761 139.532 302.089 149.338C305.735 157.6 309.262 165.593 307.323 178.185C306.486 183.493 304.965 188.635 303.442 193.786C302.603 196.622 301.763 199.461 301.036 202.332C296.83 217.536 298.794 226.008 300.924 235.193L300.924 235.193C302.331 241.257 303.809 247.633 303.631 256.462C303.416 261.166 302.698 265.812 301.981 270.457L301.981 270.457C301.199 275.516 300.418 280.573 300.288 285.697C300.151 290.137 300.842 294.517 301.534 298.903V298.903C302.102 302.5 302.67 306.102 302.783 309.744C302.836 313.983 302.537 318.222 302.237 322.468L302.237 322.47L302.237 322.47C301.973 326.22 301.708 329.974 301.685 333.74C301.593 338.603 302.051 343.408 302.509 348.215C302.794 351.201 303.079 354.187 303.232 357.188C303.351 362.576 302.98 367.952 302.61 373.327V373.327C302.205 379.202 301.8 385.076 302.034 390.963H301.885C300.887 390.415 299.889 389.517 299.49 388.469C299.44 387.771 299.44 387.022 299.44 386.324C299.272 380.431 299.717 374.584 300.162 368.736V368.736C300.377 365.92 300.591 363.103 300.737 360.281C300.947 355.415 300.469 350.549 299.993 345.701V345.7C299.791 343.639 299.589 341.581 299.44 339.527C298.871 332.661 299.376 325.755 299.879 318.879L299.88 318.867C299.951 317.904 300.021 316.942 300.089 315.98C300.953 309.449 299.968 303.041 298.981 296.612L298.98 296.611C298.429 293.021 297.876 289.425 297.644 285.797C297.461 279.739 298.356 273.757 299.251 267.769C299.823 263.942 300.395 260.113 300.687 256.262C301.307 246.617 299.678 239.759 298.108 233.15C295.885 223.796 293.782 214.941 298.342 199.388C298.995 196.946 299.712 194.517 300.429 192.088L300.429 192.088C302.07 186.529 303.711 180.97 304.579 175.242C306.279 162.994 302.719 155.065 299.052 146.896C294.758 137.329 290.315 127.433 294.002 109.886C295.001 104.622 296.703 99.5357 298.404 94.4537C300.184 89.1335 301.963 83.8179 302.932 78.3065C306.063 64.4016 298.193 52.7167 290.691 41.5777C288.987 39.0483 287.303 36.5472 285.77 34.0545C270.354 42.3861 252.344 39.1932 236.08 35.5512C227.549 33.855 218.869 35.651 210.886 38.8439C205.043 41.2187 198.579 43.6668 192.017 45.3073C191.405 45.4718 190.79 45.6159 190.175 45.7453C176.368 48.8571 162.347 48.045 152.965 35.1521C152.83 35.0084 152.634 34.7271 152.412 34.3692ZM166.285 3.97079C159.101 4.71914 156.257 12.502 154.81 18.6384C154.338 20.6583 154.142 22.7332 153.946 24.8054V24.8056C153.769 26.6744 153.592 28.5409 153.214 30.3626C160.897 28.6164 166.734 22.3303 169.727 15.196C170.925 12.053 171.473 8.21144 169.827 5.11826C169.278 3.72134 167.582 3.77123 166.285 3.97079ZM146.678 14.947C144.184 10.0079 140.193 4.86923 134.555 3.62198C130.364 3.07319 128.668 6.31604 128.119 9.90811C127.62 12.8516 128.618 15.8949 130.414 18.2397C134.804 24.0768 141.839 26.721 148.524 28.9162C149.09 29.1157 149.655 29.3319 150.22 29.5647C150.254 29.5647 150.276 29.5703 150.291 29.574C150.302 29.5768 150.309 29.5785 150.313 29.5759C150.32 29.5717 150.32 29.556 150.32 29.5148C150.171 24.476 148.973 19.4371 146.678 14.947ZM16.3665 55.6562C16.7158 54.4089 18.7612 52.3136 20.4076 51.7648C21.1962 51.3912 21.0179 51.881 20.8495 52.3435C20.8155 52.4369 20.7819 52.5291 20.7568 52.6129C20.0583 54.359 18.1626 55.3568 16.3665 55.6562ZM160.298 41.089C160.445 41.1972 160.594 41.3028 160.744 41.4059C158.35 40.0798 156.235 38.307 154.576 36.0039L154.66 36.1C156.307 37.9958 158.203 39.6921 160.298 41.089ZM293.952 14.7972C287.916 16.0943 284.024 23.478 285.571 29.3649C290.161 25.8228 294.95 20.784 295 14.6974C294.667 14.6974 294.318 14.7307 293.952 14.7972Z" fill="black"/>
</svg>
