<svg width="341" height="478" viewBox="0 0 341 478" fill="none" xmlns="http://www.w3.org/2000/svg">
<path fill-rule="evenodd" clip-rule="evenodd" d="M322.264 467.893C323.212 468.941 324.409 469.889 325.706 470.388C325.806 470.421 325.889 470.405 325.956 470.338C326.405 468.156 326.908 466.061 327.396 464.034C329.996 453.219 332.137 444.317 323.062 434.318C319.969 430.377 317.624 425.587 317.874 420.449C318.273 408.425 322.663 397.001 327.901 386.324C328.641 384.697 329.439 383.084 330.237 381.471C332.669 376.555 335.107 371.627 335.933 366.219C337.879 357.887 333.14 349.356 327.153 344.268C337.929 325.609 339.625 303.109 335.484 282.255C333.406 270.613 330.116 259.247 326.826 247.881C323.405 236.061 319.983 224.241 317.923 212.11C315.928 195.048 318.871 177.637 324.658 161.572C324.878 160.997 325.099 160.42 325.32 159.843C331.814 142.873 338.506 125.386 331.992 107.293C330.66 103.215 328.706 99.4179 326.75 95.6201C325.118 92.449 323.485 89.2772 322.214 85.94C319.221 78.3569 321.416 69.5763 325.407 62.6916C326.819 60.2075 328.802 57.6119 330.856 54.9232C336.928 46.9743 343.621 38.2123 338.029 29.116C333.239 21.7823 325.507 15.4463 316.676 14.1991C308.403 -0.116039 276.229 1.67612 259.04 2.6336C257.778 2.70389 256.597 2.76968 255.512 2.82427C241.792 3.82206 228.073 5.26885 214.403 7.26443C209.108 8.10678 203.836 9.1349 198.56 10.164C192.899 11.268 187.232 12.3732 181.526 13.2512C173.144 14.4485 163.366 15.7955 155.583 13.2512C156.434 13.0277 157.508 12.8451 158.677 12.6463C162.99 11.9127 168.604 10.9579 169.153 6.9152C167.557 1.37747 157.13 -1.01722 152.191 0.828691C147.9 2.2256 146.254 8.21233 150.045 11.1059C129.476 13.7921 108.826 11.6202 88.2336 9.45451C80.9066 8.68392 73.587 7.91411 66.2811 7.36421C65.5231 7.2896 64.6851 7.20392 63.7778 7.11116C49.5177 5.65322 18.1392 2.44508 11.1034 12.9518L11.1287 12.972C11.8806 13.5737 13.1589 14.5965 14.0469 14.4485C14.5241 13.4942 15.5413 12.9179 16.5225 12.3621C16.875 12.1624 17.2227 11.9654 17.5392 11.7545C30.1231 5.24277 50.8964 7.56013 67.6915 9.43372C71.8706 9.89991 75.8033 10.3386 79.3023 10.607C84.5319 11.0611 89.7565 11.5938 94.9809 12.1264C106.403 13.291 117.824 14.4554 129.291 14.7977C137.224 15.0472 145.206 14.698 153.089 13.6004C158.427 15.8454 164.214 17.392 170.251 17.1924C181.783 16.684 193.101 14.4821 204.419 12.2802C214.202 10.3767 223.986 8.47314 233.91 7.66354C234.387 7.6133 234.865 7.56299 235.343 7.51267C256.231 5.31394 277.393 3.08634 298.317 5.81763C298.839 5.90023 299.369 5.97904 299.904 6.05855C305.51 6.89151 311.633 7.80142 313.683 13.9496C305.301 13.2013 282.801 18.6392 301.759 25.4242C308.245 27.32 320.568 26.422 317.973 16.8432C325.956 16.5439 332.541 22.78 335.534 29.8144C337.853 37.7511 332.202 44.9439 326.579 52.0998C322.765 56.9541 318.964 61.7914 317.674 66.8324C313.91 76.9832 318.213 85.1978 322.681 93.7256C323.483 95.2568 324.291 96.7981 325.058 98.3625C335.22 119.016 329.07 135.518 322.427 153.345C320.004 159.847 317.515 166.525 315.728 173.646C312.735 186.667 311.587 200.386 314.082 213.607C316.126 223.538 318.936 233.387 321.748 243.246C327.725 264.193 333.714 285.185 332.391 307.1C331.044 318.624 328.101 331.496 321.765 340.875C315.529 337.233 308.145 341.174 306.898 348.159C306.149 352.3 310.041 355.143 313.483 356.441C318.672 357.289 323.86 349.705 326.405 345.565C336.85 357.415 330.106 370.54 323.652 383.099C321.167 387.935 318.726 392.687 317.325 397.25C314.631 405.681 311.787 415.11 314.381 423.891C315.436 427.28 317.557 430.054 319.679 432.831C320.869 434.387 322.059 435.944 323.062 437.611C326.984 444.295 325.32 451.974 323.735 459.284C323.345 461.085 322.959 462.864 322.663 464.601C322.645 464.984 322.513 465.4 322.381 465.82C322.15 466.55 321.915 467.292 322.264 467.893ZM312.136 352.2C312.436 348.059 315.728 344.018 319.819 343.12C320.152 343.054 320.468 343.02 320.767 343.02C318.622 346.612 315.728 349.955 312.136 352.2ZM314.182 17.0926C313.383 23.6282 305.351 23.8776 300.263 23.1293C297.868 22.8798 298.217 22.4308 299.714 20.8842C301.51 19.3876 303.755 18.739 305.95 18.1403C308.544 17.392 311.238 17.0926 313.932 16.943C314.165 16.8432 314.248 16.8931 314.182 17.0926ZM152.041 10.5072C150.794 6.96509 153.937 3.32316 157.429 2.82427C159.924 2.27548 162.518 2.77438 164.913 3.47283C167.108 7.66354 160.522 9.16022 157.579 9.80879C157.273 9.80879 156.551 9.97642 155.726 10.168C154.127 10.5394 152.14 11.0009 152.041 10.5072ZM88.8806 469.639C96.414 474.279 104.995 476.973 113.825 477.173C123.382 477.464 132.219 473.996 140.998 470.55C144.227 469.283 147.448 468.018 150.694 466.945C165.736 461.774 176.24 466.393 186.645 470.969C198.222 476.061 209.677 481.099 227.124 472.533C236.404 477.821 247.828 476.823 258.006 475.177C261.139 474.662 264.278 473.922 267.425 473.181C274.649 471.478 281.919 469.764 289.286 470.737C291.733 471.537 293.69 472.475 295.49 473.336C299.745 475.374 303.118 476.989 309.991 475.376C313.134 474.778 316.277 474.179 319.37 473.481C319.819 472.633 316.875 470.737 315.878 470.288C313.747 470.448 311.543 470.882 309.316 471.321C303.93 472.381 298.404 473.469 293.427 470.787C289.586 468.641 285.345 466.845 280.805 467.195C274.605 467.567 268.417 468.97 262.231 470.374C250.995 472.922 239.764 475.47 228.471 471.834C240.993 465.399 235.855 451.779 223.183 451.23C218.493 451.529 215.749 456.618 216.398 460.909C216.997 464.251 219.591 466.796 221.986 468.941C222.385 469.107 222.401 469.223 222.036 469.29C218.493 470.986 214.702 472.333 210.86 473.032C202.329 474.878 193.698 472.932 186.065 469.09C163.428 457.867 153.357 461.6 137.561 467.455C132.573 469.304 127.015 471.364 120.311 473.231C109.585 475.526 97.8109 473.83 88.3319 468.143C80.3994 463.004 71.7187 458.364 61.9404 459.013C57.7134 458.857 52.8477 459.452 47.8126 460.067C36.743 461.421 24.8553 462.875 17.1397 456.668C8.25575 446.622 14.2991 434.548 19.8427 423.473C21.6773 419.808 23.4571 416.252 24.6231 412.915C29.9612 400.293 34.4513 381.086 17.9379 375.049C21.0809 357.288 16.8902 339.278 9.60637 323.064C4.01875 311.19 4.2682 297.521 6.71278 284.899C8.42445 278.392 10.4314 272.818 12.2851 267.671C17.7793 252.413 21.927 240.895 13.0487 219.893C12.7825 219.239 12.5125 218.582 12.2415 217.923C8.95677 209.932 5.51454 201.559 6.71278 192.803C7.41123 187.564 8.90792 182.426 10.7538 177.487C10.7219 177.104 11.2808 177.394 11.8056 177.666C12.1021 177.82 12.3877 177.968 12.5498 177.986C18.0377 180.33 25.9701 178.036 25.1719 170.951C24.9224 168.008 22.5776 166.012 20.133 164.665C14.2461 161.273 9.10747 167.908 7.21168 172.897C4.12698 167.443 4.36732 160.987 4.59416 154.894C4.62046 154.188 4.64658 153.486 4.66732 152.792C4.89157 139.336 7.8038 126.329 10.719 113.309C11.6952 108.949 12.6716 104.588 13.5476 100.208C15.2938 90.6792 14.2461 80.851 11.8514 71.5217C11.1394 68.0803 9.94224 64.6213 8.7399 61.1473C5.89839 52.9371 3.02785 44.6431 6.46334 36.2997C6.6632 35.8143 6.86175 35.3237 7.06139 34.8305C8.60595 31.014 10.2156 27.0368 12.9988 24.0768C13.0986 23.8773 12.6995 23.5779 12.5498 23.4781C12.3749 23.3782 12.1718 23.2188 11.9539 23.0477C11.3017 22.5357 10.5165 21.9194 9.95559 22.4804C7.51101 25.4238 5.91455 28.9161 4.36798 32.3585C1.62406 37.996 0.9755 44.4317 2.82141 50.4683L2.85389 50.5682C9.4227 70.7722 14.2357 85.5756 7.91013 106.843C4.2682 120.363 1.22495 134.033 0.726053 148.052C0.702674 148.618 0.677543 149.184 0.652384 149.752C0.409096 155.237 0.163194 160.781 1.47439 166.162C2.22273 169.355 3.96886 172.298 6.56311 174.344C4.11853 181.777 1.62406 189.859 2.72163 197.842C4.06707 204.901 6.33607 210.81 8.49568 216.434C12.8225 227.702 16.7101 237.827 11.8514 253.768C10.6444 257.923 9.04511 261.96 7.44556 265.998C5.01198 272.142 2.57789 278.286 1.52428 284.849C0.376827 293.081 0.0774909 301.612 1.67395 309.794C2.69647 314.378 4.48226 318.702 6.26715 323.022C7.18193 325.237 8.09648 327.451 8.90792 329.699C14.3459 343.718 15.6929 359.184 12.7993 373.901C5.11632 373.153 2.72163 378.591 1.72384 385.127C0.626274 389.966 4.06864 393.508 8.45891 394.755C14.5353 393.225 16.0534 385.145 17.1752 379.174C17.3337 378.331 17.4842 377.53 17.6386 376.795C27.9657 377.843 26.1198 392.81 23.9246 399.944C21.8376 407.36 18.3306 414.248 14.8388 421.106C13.6564 423.428 12.4757 425.747 11.3525 428.081C7.91013 434.816 6.613 442.899 9.75604 449.983C13.2483 456.419 19.9335 460.958 26.8681 462.904C35.211 465.358 43.7546 464.321 52.3049 463.284C60.2693 462.318 68.2396 461.351 76.0591 463.204C80.0098 464.202 83.4406 466.309 86.8426 468.399C87.5218 468.816 88.1998 469.232 88.8806 469.639ZM223.283 468.691C219.092 465.249 219.391 457.965 224.181 455.221C226.027 454.174 228.421 454.173 230.317 454.922C231.714 457.566 231.016 460.859 229.619 463.353C228.172 465.798 225.777 467.444 223.283 468.691ZM6.21389 390.265C6.46334 385.625 7.01212 379.09 12.051 377.194H12.1507C11.1529 381.684 9.80593 387.571 6.21389 390.265ZM21.3304 172.198C20.3825 175.092 17.3392 176.489 14.3958 176.389C13.398 176.389 12.4002 176.339 11.4024 176.09C11.235 176.056 11.3597 175.843 11.475 175.646C11.5314 175.55 11.5855 175.457 11.6019 175.391C13.2982 171.6 15.9922 167.16 20.4823 166.511C21.8792 167.11 21.8792 170.802 21.3304 172.198Z" fill="black"/>
</svg>
