<svg width="341" height="475" viewBox="0 0 341 475" fill="none" xmlns="http://www.w3.org/2000/svg">
<path fill-rule="evenodd" clip-rule="evenodd" d="M78.1421 5.45696C87.803 7.26006 97.4683 9.06398 107.336 8.76037C118.568 8.83459 129.678 7.43651 140.786 6.03856C152.078 4.61756 163.369 3.19668 174.786 3.32242C181.067 3.11503 187.242 4.06886 193.427 5.02413C197.657 5.67745 201.891 6.33145 206.167 6.61512C225.324 7.91225 244.432 6.16612 263.39 3.62176C271.322 2.87342 279.305 2.52419 287.287 2.87342C289.591 3.03054 291.894 3.20746 294.195 3.38432C302.855 4.04978 311.503 4.71436 320.214 4.32021C320.264 4.30358 320.341 4.30358 320.426 4.30358C320.596 4.30358 320.796 4.30358 320.862 4.17054C320.389 3.3102 319.471 2.74659 318.619 2.22386C318.483 2.14035 318.349 2.05788 318.218 1.97541C315.435 1.62417 312.55 1.65337 309.658 1.68264C307.209 1.70741 304.755 1.73224 302.353 1.5264C299.375 1.40819 296.407 1.18915 293.44 0.970151C290.146 0.727017 286.852 0.483936 283.545 0.378946C272.048 -0.0175044 260.646 1.50781 249.287 3.02717C246.352 3.41978 243.42 3.81199 240.491 4.17054C231.261 5.21822 221.932 5.46767 212.652 5.26811C205.554 5.49989 198.59 4.40248 191.625 3.30473C186.596 2.51218 181.565 1.71946 176.482 1.42663C162.085 0.73715 147.786 2.45455 133.532 4.16651C130.252 4.56042 126.975 4.95405 123.699 5.318C112.524 6.36568 101.299 6.91446 90.1239 5.81689C85.9125 5.40935 81.7456 4.63188 77.5828 3.85518C74.1018 3.20569 70.6237 2.55675 67.1248 2.12508C52.5571 0.229278 37.7899 2.17497 23.4217 4.71933C22.0545 4.95371 20.6566 5.27986 19.2761 5.60197C18.8936 5.69123 18.5123 5.78018 18.1334 5.86678C18.2556 6.27407 18.6438 6.51511 19.0266 6.75276C19.1126 6.80622 19.1985 6.8595 19.2809 6.91446C20.2838 7.18799 21.3423 6.90609 22.4112 6.62141C23.0969 6.43878 23.787 6.255 24.4694 6.21601C30.1069 5.16833 35.8442 4.41999 41.5815 3.82132C50.7112 2.92331 59.9408 2.52419 69.0206 3.82132C72.0648 4.3227 75.1032 4.88979 78.1421 5.45696ZM11.196 462.447C11.8134 465.767 12.4965 469.441 15.9882 470.537C12.0774 458.628 14.6358 445.949 17.1619 433.429C18.2128 428.22 19.2581 423.039 19.8297 417.953C20.578 408.624 19.4306 399.245 17.5847 390.115C16.6766 385.673 15.5654 381.278 14.4551 376.887C12.7595 370.181 11.066 363.483 10.1012 356.639C8.75423 347.809 8.9039 338.779 10.1012 329.949C10.9308 324.607 12.0394 319.315 13.1474 314.025C14.7714 306.272 16.3943 298.524 17.1357 290.636C18.782 270.131 17.884 249.327 15.2897 228.972C14.4037 221.788 12.1153 214.949 9.83149 208.123C7.35744 200.729 4.88879 193.351 4.2143 185.568C3.66047 176.846 5.70037 168.363 7.73461 159.904C8.63231 156.171 9.52892 152.443 10.201 148.7C12.8452 134.781 14.1922 120.612 14.9405 106.494C15.1401 99.3596 14.6911 92.2254 13.4937 85.191C12.8259 81.2232 11.9028 77.3096 10.9803 73.3983C9.55982 67.3754 8.14062 61.3582 7.65667 55.1575C6.85843 47.0755 8.05578 38.8437 10.5503 31.1607C11.3485 28.5665 12.3462 26.0721 13.344 23.5776L13.3441 23.5775C13.5007 23.2251 13.1348 22.9956 12.8495 22.8167C12.7714 22.7677 12.6993 22.7224 12.6456 22.6795C12.5555 22.6615 12.4458 22.5849 12.3331 22.5061C12.1338 22.3668 11.9249 22.2209 11.7975 22.3802C11.6221 22.731 11.4435 23.0786 11.2658 23.4247C10.7358 24.4568 10.2129 25.4749 9.80191 26.521C6.11009 34.9523 4.16441 44.2318 4.96264 53.4114C5.31883 59.7407 6.68326 65.9046 8.04763 72.0681C9.16751 77.1272 10.2873 82.1861 10.8496 87.3362C12.5077 100.743 10.9718 114.15 9.44582 127.471C9.36477 128.178 9.28375 128.886 9.20324 129.593C8.15556 139.221 6.30965 148.75 4.11452 158.179C1.76971 168.307 -0.475309 178.833 1.76971 189.21C2.99502 194.444 4.69582 199.556 6.39707 204.67C8.7826 211.841 11.169 219.014 12.2465 226.528C14.6412 242.742 14.6911 259.255 14.5913 275.669C14.3917 289.688 11.6977 303.507 8.60457 317.177C2.7641 340.857 6.57418 356.563 11.3413 376.214C12.5602 381.239 13.8416 386.521 15.0403 392.26C16.4871 401.29 17.435 410.62 15.9882 419.7C15.3702 423.672 14.5135 427.637 13.6562 431.604C11.6068 441.087 9.55386 450.587 10.7498 460.26C10.917 460.947 11.0548 461.688 11.196 462.447ZM330.491 465.747C331.04 466.745 332.138 467.443 333.135 467.892C333.202 467.892 333.268 467.876 333.335 467.843C333.207 463.101 332.618 458.373 332.028 453.638C331.47 449.155 330.911 444.666 330.741 440.154C330.708 432.289 332.692 424.738 334.675 417.19C335.749 413.103 336.822 409.017 337.576 404.882C339.172 396.75 339.122 388.319 337.426 380.187C336.611 376.58 335.609 373.011 334.605 369.438C333.026 363.82 331.445 358.193 330.591 352.398C329.294 343.169 329.643 333.69 330.691 324.46C331.472 316.772 333.566 309.364 335.658 301.959C337.707 294.709 339.754 287.462 340.569 279.959C341.659 268.274 338.538 257.105 335.413 245.92C332.387 235.09 329.357 224.246 330.142 212.908C329.962 199.103 331.344 185.402 332.727 171.692C333.259 166.426 333.79 161.159 334.233 155.884C335.281 141.815 333.684 127.746 329.543 114.326C324.112 94.9963 327.65 83.8615 331.571 71.525C334.096 63.5796 336.779 55.1357 337.326 43.6827C337.825 35.4011 336.927 26.9199 333.634 19.2369C333.284 18.6289 332.957 17.9632 332.625 17.285C331.54 15.0697 330.388 12.7201 328.097 11.8034C333.634 20.4842 335.73 32.2082 334.582 42.8845C333.934 51.1163 332.387 59.2981 329.543 67.0809C325.403 78.0566 321.811 89.2817 323.956 101.155C324.62 106.249 325.967 111.205 327.31 116.147C327.782 117.885 328.254 119.621 328.695 121.361C331.589 132.735 331.689 144.609 330.791 156.283C330.394 160.275 329.957 164.264 329.519 168.253C328.142 180.817 326.763 193.388 326.65 206.073C326.251 216.649 326.899 227.326 330.092 237.503C330.792 240.186 331.556 242.859 332.32 245.533C334.497 253.149 336.674 260.769 337.376 268.634C338.303 279.804 335.097 290.629 331.957 301.229C331.717 302.04 331.477 302.849 331.24 303.656C328.595 313.036 326.849 322.714 326.55 332.493C325.452 346.761 329.294 360.58 333.385 374.1C336.678 385.525 336.229 397.598 333.086 408.973C332.971 409.378 332.856 409.781 332.743 410.181C328.759 424.224 325.591 435.391 328.695 450.331C329.327 454.722 329.859 459.112 330.292 463.502C330.391 464.25 330.441 464.998 330.491 465.746L330.491 465.747ZM81.1564 470.839C89.6189 472.712 98.2776 474.63 107.685 474.977C119.025 475.051 130.106 472.842 141.185 470.634C152.381 468.402 163.576 466.171 175.036 466.296C183.755 466.067 192.093 468.285 200.441 470.506C201.169 470.7 201.896 470.893 202.625 471.085C214.798 473.879 227.52 473.081 239.792 471.285C242.823 470.841 245.848 470.323 248.873 469.805C259.443 467.995 270.007 466.186 280.752 467.543C285.108 468.07 288.632 468.756 291.81 469.374C300.059 470.979 305.982 472.132 318.119 468.89C318.528 468.804 318.931 468.718 319.326 468.632C319.541 468.585 319.754 468.538 319.965 468.491C320.214 468.441 319.965 468.092 319.865 467.992C319.759 467.893 319.648 467.784 319.534 467.672C318.728 466.883 317.707 465.884 316.572 466.146L316.221 466.226C308.848 467.898 301.286 469.613 293.773 467.992C284.942 465.947 276.062 464.4 266.982 464.55C259.196 464.897 251.462 466.167 243.728 467.437C231.442 469.455 219.157 471.472 206.666 469.788C202.118 469.236 197.68 468.086 193.242 466.936C187.26 465.387 181.279 463.838 175.036 463.752C162.355 462.97 149.961 465.503 137.579 468.033C124.679 470.669 111.791 473.303 98.6052 472.183C92.0149 471.474 85.5796 470.125 79.2162 468.792C62.746 465.341 46.7571 461.991 29.8077 470.088C29.7412 470.121 29.6746 470.16 29.6081 470.198C29.4751 470.276 29.3421 470.354 29.209 470.387C29.1412 470.489 29.3504 470.683 29.5068 470.828C29.5803 470.896 29.6421 470.954 29.6581 470.986C30.3066 471.584 31.2046 472.033 32.0029 471.385C50.1234 463.967 65.2952 467.327 81.1564 470.839Z" fill="black"/>
</svg>
