<svg width="332" height="471" viewBox="0 0 332 471" fill="none" xmlns="http://www.w3.org/2000/svg">
<path fill-rule="evenodd" clip-rule="evenodd" d="M128.118 5.07408C136.796 7.48201 145.511 9.90047 154.649 9.60704C163.858 9.60704 172.96 8.42929 182.072 7.25017C185.4 6.81953 188.73 6.3887 192.066 6.01501C192.524 5.96737 192.981 5.91968 193.438 5.87199C212.145 3.92136 230.992 1.95623 249.838 3.27109C255.424 3.85903 260.935 5.0695 266.444 6.2795C275.893 8.35502 285.336 10.4291 295.138 9.3576C303.02 8.8587 310.703 6.81324 318.187 4.41854C318.306 4.14109 318.015 3.83215 317.766 3.56677C317.701 3.49812 317.639 3.43239 317.588 3.37087C317.565 3.34536 317.542 3.31907 317.518 3.29221C317.072 2.79374 316.452 2.09925 315.742 2.57264C308.408 4.76777 300.925 6.5139 293.242 7.11257C283.104 8.27121 273.229 6.11886 263.387 3.97389C259.668 3.16336 255.954 2.35389 252.233 1.72452C242.654 0.377502 232.976 0.726728 223.347 1.12584C208.28 1.8243 193.264 3.32098 178.297 5.26667C162.232 7.36202 145.519 9.30771 129.804 4.11921C112.094 -2.16686 92.9859 1.02606 75.7241 7.31213C75.6244 7.36202 75.4248 7.4618 75.2751 7.36202C75.0257 7.31213 75.1754 7.61147 75.2253 7.71125C75.4747 8.06047 75.8239 8.4097 76.1233 8.70904C76.1383 8.72035 76.1537 8.73194 76.1693 8.74374C76.3605 8.88801 76.5911 9.06203 76.8217 9.10815C76.9497 8.94815 77.1393 8.89078 77.3378 8.83071C77.4487 8.79713 77.5625 8.7627 77.6698 8.70904C92.1378 3.86976 108.003 0.078166 123.169 3.72009C124.819 4.15856 126.468 4.61613 128.118 5.07408ZM5.82908 443.645C5.67941 445.74 6.87675 447.337 8.72266 448.135C8.78918 448.168 8.8557 448.168 8.92222 448.135C7.82465 435.064 8.02421 421.744 9.32133 408.623C9.90463 403.848 10.7873 399.121 11.6695 394.395C12.8247 388.208 13.9791 382.025 14.4599 375.746C16.3557 355.391 12.7637 335.136 7.72487 315.479C1.83792 290.385 5.52974 264.342 9.22156 239.198C12.2338 219.728 9.10592 200.367 5.99225 181.094C4.87731 174.192 3.7642 167.302 2.93549 160.423C1.98759 149.447 2.93549 138.322 4.7814 127.496C5.97874 121.16 8.0741 114.974 10.1695 108.837C10.2368 108.628 10.305 108.419 10.3735 108.208C10.8128 106.859 11.2642 105.472 11.5664 104.048C11.6042 103.632 11.2404 103.33 10.91 103.056C10.8047 102.969 10.7029 102.885 10.6185 102.8C10.5948 102.789 10.5598 102.766 10.519 102.739C10.3878 102.652 10.1957 102.525 10.1196 102.601C9.26822 105.391 8.29731 108.147 7.32648 110.902C5.22517 116.866 3.12426 122.829 2.23704 129.142C0.890023 138.122 -0.00798656 147.252 0.441018 156.332C1.19687 164.6 2.43645 172.827 3.67697 181.06C5.13846 190.759 6.60125 200.467 7.27587 210.262C8.4078 222.77 6.65049 235.117 4.89011 247.486C3.54696 256.924 2.20203 266.373 2.13726 275.917C1.78803 285.994 1.83792 296.122 3.58405 306.1C4.42778 310.433 5.40677 314.745 6.38591 319.059C8.82268 329.793 11.2604 340.531 11.6162 351.599C12.7637 366.316 10.7681 381.034 7.67498 395.452C5.52974 406.028 4.88118 416.904 4.88118 427.68C4.98095 433.019 5.38007 438.357 5.82908 443.645ZM107.354 468.241C115.835 469.987 124.516 470.436 133.147 470.585C145.913 470.543 158.539 468.486 171.112 466.438C173.475 466.053 175.837 465.668 178.197 465.297C179.798 465.032 181.403 464.758 183.013 464.484C196.25 462.226 209.748 459.925 223.048 462.104C226.93 462.94 230.752 464.055 234.572 465.17C241.699 467.25 248.821 469.328 256.324 469.588C266.89 470.324 277.402 468.859 287.88 467.4C291.6 466.882 295.316 466.364 299.029 465.946C301.773 465.596 304.517 465.297 307.261 465.048C307.46 465.023 307.648 465.01 307.835 464.998C308.022 464.985 308.209 464.973 308.408 464.948C308.444 464.732 308.299 464.542 308.158 464.359C308.104 464.289 308.051 464.219 308.009 464.15C307.867 464.018 307.724 463.867 307.578 463.713C307.059 463.163 306.493 462.564 305.714 462.603C301.557 462.969 297.416 463.351 293.292 463.75C289.662 464.133 286.05 464.641 282.44 465.149C277.567 465.835 272.699 466.521 267.798 466.893C258.968 467.592 250.088 467.293 241.457 465.297C238.12 464.591 234.866 463.587 231.608 462.582C228.194 461.529 224.775 460.474 221.252 459.759C215.514 458.612 209.577 458.512 203.74 458.911C193.042 459.723 182.394 461.472 171.747 463.221C152.306 466.415 132.869 469.607 113.141 467.093C107.249 466.572 101.567 465.058 95.8805 463.542C91.2164 462.299 86.5494 461.055 81.7608 460.358C70.5855 459.011 58.7617 459.709 48.1852 463.75C45.1918 464.898 42.3481 466.395 39.6042 468.041C39.4984 468.111 39.5671 468.232 39.6341 468.349C39.6619 468.398 39.6894 468.446 39.704 468.49C39.7862 468.572 39.8701 468.661 39.956 468.752C40.3391 469.158 40.7615 469.606 41.2506 469.687C41.9061 469.237 42.5954 468.853 43.263 468.482C43.4082 468.401 43.5525 468.321 43.6951 468.241C50.0311 464.848 57.0655 462.952 64.1498 462.304C71.5833 461.555 79.1665 461.505 86.5003 462.952C90.1677 463.655 93.7674 464.669 97.37 465.684C100.677 466.616 103.987 467.548 107.354 468.241ZM325.272 357.535C325.771 358.533 326.868 359.232 327.916 359.681C327.975 356.991 327.817 354.116 327.656 351.177C327.408 346.647 327.152 341.967 327.666 337.58C327.928 334.238 328.425 330.928 328.922 327.622C329.657 322.734 330.39 317.854 330.36 312.884C330.387 304.217 328.146 295.931 325.905 287.642C323.928 280.33 321.951 273.016 321.53 265.44C320.736 253.743 323.129 242.383 325.521 231.025C327.638 220.97 329.756 210.917 329.662 200.633C329.572 193.027 328.342 185.546 327.11 178.062C326.282 173.028 325.454 167.993 324.972 162.917C324.408 156.576 324.599 150.197 324.79 143.846C324.818 142.902 324.847 141.958 324.873 141.015C325.172 130.239 326.22 119.513 328.564 108.986C328.658 108.538 328.752 108.09 328.846 107.642C330.156 101.404 331.468 95.1545 331.608 88.7312C331.734 78.6329 329.584 68.7741 327.432 58.9023C326.182 53.1676 324.931 47.4286 324.124 41.6356C323.126 34.8507 324.723 27.8163 328.514 22.079C328.603 21.9246 328.72 21.78 328.837 21.6365C328.984 21.4554 329.129 21.276 329.213 21.0812C329.086 20.8274 328.852 20.6453 328.631 20.4741C328.591 20.4434 328.552 20.4131 328.514 20.3827C328.435 20.3431 328.339 20.2616 328.233 20.1723C327.939 19.9243 327.574 19.6168 327.317 19.9836C326.619 20.7818 326.02 21.6799 325.421 22.5779C321.779 28.4149 320.831 35.4493 322.029 42.1844C322.768 46.9316 323.749 51.664 324.731 56.4002C326.867 66.6957 329.006 77.0095 328.664 87.5339C328.404 93.7811 327.104 99.8606 325.805 105.938C324.863 110.343 323.921 114.748 323.376 119.214C321.984 129.279 321.757 139.474 321.532 149.598C321.515 150.363 321.498 151.127 321.48 151.891C321.346 159.982 322.577 167.982 323.806 175.973C325.327 185.87 326.847 195.752 325.771 205.772C325.048 213.298 323.414 220.73 321.78 228.159C319.125 240.231 316.472 252.295 317.738 264.741C318.448 271.689 320.336 278.415 322.222 285.134C324.71 293.998 327.195 302.85 326.968 312.186C326.729 316.516 326.176 320.829 325.623 325.142C324.557 333.451 323.491 341.761 324.673 350.202C324.823 352.646 325.022 355.091 325.272 357.535Z" fill="black"/>
</svg>
