<svg width="353" height="496" viewBox="0 0 353 496" fill="none" xmlns="http://www.w3.org/2000/svg">
<path fill-rule="evenodd" clip-rule="evenodd" d="M182.298 494.689C182.434 494.737 182.568 494.785 182.696 494.84C183.295 495.04 183.943 495.189 184.542 495.189C184.707 495.189 184.857 495.173 184.989 495.14L184.992 495.139C185.013 495.137 185.035 495.135 185.056 495.132C185.076 495.13 185.095 495.128 185.115 495.125C185.179 495.117 185.243 495.108 185.306 495.097C185.348 495.09 185.39 495.082 185.431 495.074C185.923 494.976 186.376 494.798 186.788 494.541C187.636 493.992 188.434 493.293 189.033 492.545C189.581 491.946 189.981 491.248 190.23 490.5C190.48 489.602 190.529 488.654 190.38 487.756C190.13 486.059 189.232 484.463 187.835 483.465C187.237 483.016 186.688 482.667 186.039 482.368C185.374 482.068 184.692 481.835 183.994 481.669C182.757 481.336 181.475 481.139 180.233 480.949L180.053 480.921L178.656 480.721C178.605 480.716 178.555 480.709 178.504 480.703C178.408 480.69 178.311 480.676 178.215 480.661C178.24 480.606 178.265 480.55 178.29 480.495C178.376 480.301 178.462 480.109 178.555 479.923C178.679 479.649 178.792 479.362 178.904 479.075C179.016 478.788 179.128 478.501 179.253 478.227C179.303 478.177 179.353 478.077 179.403 478.027C179.403 477.994 179.419 477.977 179.453 477.977C179.586 477.911 179.735 477.861 179.902 477.828C180.301 477.778 180.7 477.728 181.149 477.728C181.714 477.695 182.296 477.728 182.895 477.828C183.46 477.894 184.026 477.994 184.591 478.127C184.915 478.227 185.227 478.327 185.539 478.426C185.851 478.526 186.163 478.626 186.487 478.726C187.261 478.972 188.011 479.268 188.753 479.561C189.063 479.684 189.371 479.806 189.68 479.923C190.241 480.135 190.802 480.35 191.363 480.565C193.047 481.211 194.731 481.856 196.415 482.418C198.71 483.216 201.105 483.864 203.499 484.114C203.865 484.147 204.231 484.164 204.597 484.164C205.428 484.164 206.243 484.097 207.042 483.964C208.239 483.765 209.386 483.316 210.484 482.867C211.631 482.368 212.728 481.769 213.825 481.171L213.826 481.17C214.231 480.939 214.636 480.701 215.043 480.46C215.691 480.078 216.346 479.692 217.019 479.324C217.552 479.025 218.1 478.742 218.666 478.476L220.462 477.878C221.609 477.578 222.807 477.279 223.954 477.179C225.151 477.079 226.299 477.03 227.496 477.179C228.76 477.312 230.024 477.512 231.288 477.778C233.37 478.212 235.376 478.872 237.373 479.528C237.673 479.627 237.973 479.726 238.272 479.823C240.617 480.522 243.012 481.17 245.506 481.47C247.851 481.769 250.246 481.819 252.591 481.47C253.838 481.27 255.085 481.071 256.282 480.771L256.284 480.771C257.431 480.422 258.578 480.073 259.675 479.624C260.772 479.125 261.837 478.593 262.868 478.027C263.174 477.854 263.476 477.681 263.777 477.509C264.604 477.036 265.419 476.571 266.26 476.132C269.004 474.635 272.097 473.388 275.34 473.487C275.639 473.512 275.939 473.525 276.238 473.537C276.537 473.55 276.837 473.562 277.136 473.587C277.868 473.654 278.583 473.737 279.281 473.837C280.479 474.003 281.643 474.236 282.774 474.535C284.004 474.834 285.235 475.167 286.465 475.533C287.613 475.932 288.81 476.381 289.958 476.88C292.153 477.778 294.398 478.626 296.643 479.374C297.774 479.74 298.938 480.006 300.135 480.173C301.333 480.322 302.53 480.372 303.727 480.322C305.324 480.272 306.92 479.724 308.367 478.975C309.463 478.427 310.559 477.829 311.655 477.231L311.66 477.229C312.707 476.63 313.755 476.082 314.853 475.583C316.05 475.034 317.247 474.585 318.494 474.236C318.794 474.136 319.11 474.053 319.442 473.986C319.775 473.92 320.091 473.853 320.39 473.787C321.055 473.654 321.737 473.554 322.436 473.487C323.001 473.421 323.567 473.371 324.132 473.338C324.781 473.288 325.479 473.288 326.128 473.288C326.427 473.288 326.739 473.3 327.05 473.313C327.362 473.325 327.674 473.338 327.973 473.338L330.069 473.537C330.302 473.571 330.551 473.604 330.817 473.637H330.917C331.017 473.67 331.117 473.687 331.216 473.687H331.266V474.286C331.266 474.934 331.266 475.583 331.366 476.231C331.396 476.381 331.424 476.531 331.452 476.681C331.564 477.279 331.675 477.878 331.915 478.476C332.264 479.524 332.863 480.522 333.711 481.32C334.06 481.669 334.409 481.969 334.858 482.268C335.357 482.567 335.956 482.817 336.554 483.016C338.101 483.515 339.847 483.565 341.344 482.917C342.441 482.418 343.389 481.669 344.237 480.821C344.587 480.472 344.936 480.073 345.135 479.624C345.385 479.175 345.385 478.676 345.335 478.177C345.285 477.628 345.135 477.129 344.886 476.63C344.537 475.932 343.988 475.333 343.439 474.834C342.591 474.086 341.593 473.537 340.546 473.088C340.313 472.955 340.063 472.855 339.797 472.789C339.664 472.722 339.523 472.656 339.375 472.589C339.302 472.556 339.226 472.523 339.149 472.49C338.93 472.43 338.72 472.363 338.514 472.297C338.203 472.197 337.903 472.101 337.602 472.041C337.003 471.874 336.388 471.725 335.756 471.592C335.49 471.525 335.241 471.459 335.008 471.392C334.842 471.392 334.692 471.375 334.559 471.342C334.494 471.326 334.429 471.314 334.364 471.305C334.296 471.297 334.228 471.292 334.16 471.292C334.06 471.259 333.96 471.242 333.86 471.242V471.143C333.894 470.843 333.927 470.561 333.96 470.294C334.027 469.929 334.126 469.563 334.26 469.197C334.426 468.632 334.642 468.066 334.908 467.501C335.357 466.702 335.906 465.904 336.455 465.156C336.978 464.445 337.586 463.734 338.194 463.023C338.397 462.786 338.6 462.549 338.799 462.312L338.861 462.236C339.691 461.211 340.56 460.138 341.144 458.97C341.743 457.872 342.092 456.675 342.092 455.427C342.142 453.831 341.643 452.235 340.945 450.788C340.246 449.241 339.398 447.744 338.5 446.248C338.134 445.616 337.724 444.984 337.314 444.352C337.109 444.036 336.904 443.72 336.704 443.404C335.956 442.356 335.257 441.309 334.559 440.211C334.226 439.712 333.91 439.197 333.611 438.665C333.278 438.066 332.946 437.451 332.613 436.819C332.347 436.32 332.098 435.804 331.865 435.272C331.466 434.224 331.116 433.177 330.917 432.079C330.618 430.632 330.667 429.136 331.017 427.739C331.216 427.007 331.466 426.309 331.765 425.643C331.863 425.414 331.983 425.185 332.11 424.941C332.177 424.814 332.245 424.683 332.314 424.546C332.547 424.113 332.796 423.698 333.062 423.299L334.16 421.602L334.16 421.602C334.858 420.555 335.557 419.507 336.205 418.409C336.804 417.412 337.353 416.364 337.852 415.266C338.35 414.269 338.75 413.171 338.999 412.074C339.298 410.776 339.481 409.479 339.548 408.182C339.598 406.985 339.498 405.837 339.348 404.64L339.348 404.639C339.199 403.442 339.049 402.245 338.75 401.048C338.384 399.784 338.001 398.537 337.602 397.306C337.253 396.209 336.854 395.161 336.405 394.113C335.939 393.049 335.49 392.001 335.058 390.97C334.509 389.823 334.01 388.626 333.561 387.478L333.561 387.478C333.062 386.28 332.563 385.083 332.164 383.836C331.615 382.04 331.266 380.194 331.316 378.348C331.316 376.802 331.615 375.255 332.114 373.858C332.347 373.226 332.597 372.628 332.863 372.062C333.638 370.364 334.659 368.802 335.684 367.235C336.044 366.685 336.404 366.134 336.754 365.577C337.02 365.144 337.27 364.712 337.502 364.279L338.001 363.381C338.151 363.082 338.3 362.733 338.45 362.384L338.45 362.384C338.5 362.259 338.538 362.147 338.575 362.035C338.612 361.922 338.65 361.81 338.7 361.685C338.866 361.253 338.999 360.82 339.099 360.388C339.448 359.191 339.598 357.993 339.648 356.746C339.697 355.599 339.648 354.401 339.498 353.254C339.423 352.954 339.361 352.655 339.298 352.356C339.236 352.056 339.174 351.757 339.099 351.458C338.949 350.809 338.75 350.161 338.5 349.562C337.802 347.42 336.886 345.409 335.956 343.366C335.889 343.22 335.823 343.073 335.756 342.927L335.756 342.926C335.257 341.829 334.758 340.731 334.309 339.634C334.197 339.347 334.082 339.06 333.966 338.773C333.62 337.913 333.274 337.052 333.012 336.192C332.663 334.994 332.364 333.747 332.214 332.5C332.148 331.901 332.098 331.286 332.064 330.654C332.015 330.055 332.064 329.457 332.114 328.858C332.264 326.513 332.863 324.218 333.711 322.023C334.266 320.634 334.936 319.265 335.603 317.902C336.014 317.062 336.423 316.225 336.804 315.388C337.27 314.357 337.685 313.309 338.051 312.245C338.5 310.948 338.849 309.651 338.999 308.304C339.398 304.961 338.251 301.768 336.904 298.775C336.567 298.07 336.225 297.375 335.884 296.681C335.115 295.117 334.352 293.565 333.661 291.94C333.212 290.792 332.813 289.695 332.513 288.497C332.214 287.3 332.114 286.003 332.364 284.806C332.613 283.808 333.062 282.91 333.511 282.012C333.979 281.03 334.621 280.092 335.234 279.198C335.275 279.138 335.316 279.078 335.357 279.018C336.006 278.021 336.654 277.023 337.203 275.975C337.802 274.878 338.151 273.78 338.35 272.583C338.5 271.385 338.45 270.188 338.251 269.041C338.051 267.893 337.702 266.796 337.353 265.748C336.904 264.551 336.455 263.453 335.956 262.305C335.612 261.461 335.228 260.635 334.842 259.805C334.613 259.311 334.383 258.816 334.16 258.314L334.094 258.16C333.415 256.562 332.716 254.916 332.813 253.176C332.846 252.544 332.962 251.928 333.162 251.33C333.228 251.03 333.345 250.748 333.511 250.482C333.561 250.332 333.661 250.182 333.761 250.083C333.927 249.983 334.11 249.9 334.309 249.833C334.409 249.8 334.526 249.767 334.659 249.733C334.792 249.667 334.941 249.617 335.108 249.584L336.205 249.284C336.505 249.185 336.82 249.101 337.153 249.035C337.283 249.003 337.412 248.981 337.54 248.959C337.595 248.95 337.651 248.94 337.706 248.93C337.717 249.197 337.759 249.463 337.798 249.715C337.818 249.841 337.837 249.964 337.852 250.082L338.051 251.479L338.079 251.66C338.27 252.901 338.467 254.184 338.8 255.421C338.966 256.119 339.199 256.801 339.498 257.466C339.798 258.115 340.147 258.663 340.596 259.262C341.594 260.659 343.19 261.557 344.886 261.806C345.219 261.873 345.551 261.906 345.884 261.906C346.483 261.906 347.065 261.823 347.63 261.657C348.379 261.407 349.077 261.008 349.676 260.459C350.424 259.861 351.122 259.062 351.671 258.214C352.004 257.682 352.203 257.083 352.27 256.418C352.37 255.67 352.22 254.872 351.971 254.123C351.916 253.996 351.868 253.861 351.819 253.725C351.735 253.489 351.648 253.247 351.522 253.026C351.172 252.377 350.823 251.779 350.374 251.18C349.908 250.615 349.41 250.082 348.877 249.583C348.079 248.835 347.131 248.137 346.134 247.638C347.131 247.139 348.079 246.44 348.877 245.692C349.41 245.193 349.908 244.661 350.374 244.096C350.823 243.497 351.172 242.898 351.522 242.25C351.648 242.028 351.735 241.786 351.819 241.55C351.868 241.414 351.916 241.28 351.971 241.152C352.22 240.404 352.37 239.606 352.27 238.857C352.203 238.192 352.004 237.593 351.671 237.061C351.122 236.213 350.424 235.415 349.676 234.816C349.077 234.267 348.379 233.868 347.63 233.619C346.732 233.369 345.784 233.32 344.886 233.469C343.19 233.719 341.594 234.617 340.596 236.014C340.147 236.612 339.798 237.161 339.498 237.81C339.199 238.475 338.966 239.157 338.8 239.855C338.467 241.092 338.27 242.374 338.079 243.615L338.051 243.796L337.852 245.193C337.835 245.343 337.813 245.492 337.791 245.642C337.756 245.877 337.721 246.112 337.708 246.346C337.652 246.336 337.596 246.326 337.54 246.317C337.412 246.295 337.283 246.273 337.153 246.241C336.82 246.175 336.505 246.091 336.205 245.992L335.108 245.692C334.941 245.659 334.792 245.609 334.659 245.543C334.526 245.509 334.409 245.476 334.309 245.443C334.11 245.376 333.927 245.293 333.761 245.193C333.661 245.094 333.561 244.944 333.511 244.794C333.345 244.528 333.228 244.246 333.162 243.946C332.962 243.348 332.846 242.732 332.813 242.1C332.716 240.36 333.415 238.714 334.094 237.116L334.16 236.962C334.383 236.46 334.613 235.964 334.842 235.471C335.228 234.641 335.612 233.815 335.956 232.971C336.455 231.823 336.904 230.725 337.353 229.528C337.702 228.48 338.051 227.383 338.251 226.235C338.45 225.088 338.5 223.891 338.35 222.693C338.151 221.496 337.802 220.398 337.203 219.301C336.654 218.253 336.006 217.255 335.357 216.258L335.234 216.078C334.621 215.184 333.979 214.246 333.511 213.264C333.062 212.366 332.613 211.468 332.364 210.47C332.114 209.273 332.214 207.976 332.513 206.779C332.813 205.581 333.212 204.484 333.661 203.336C334.352 201.711 335.115 200.159 335.884 198.595C336.225 197.901 336.567 197.206 336.904 196.501C338.251 193.508 339.398 190.315 338.999 186.972C338.849 185.625 338.5 184.328 338.051 183.031C337.685 181.967 337.27 180.919 336.804 179.888C336.423 179.051 336.014 178.214 335.603 177.374C334.936 176.011 334.266 174.642 333.711 173.253C332.863 171.058 332.264 168.763 332.114 166.418C332.064 165.819 332.015 165.221 332.064 164.622C332.098 163.99 332.148 163.375 332.214 162.776C332.364 161.529 332.663 160.282 333.012 159.084C333.274 158.224 333.62 157.363 333.966 156.503C334.082 156.216 334.197 155.929 334.309 155.642C334.758 154.544 335.257 153.447 335.756 152.349C335.823 152.203 335.889 152.056 335.956 151.91C336.886 149.867 337.802 147.856 338.5 145.714C338.75 145.115 338.949 144.467 339.099 143.818C339.174 143.519 339.236 143.22 339.298 142.92C339.361 142.621 339.423 142.322 339.498 142.022C339.648 140.875 339.697 139.677 339.648 138.53C339.598 137.283 339.448 136.085 339.099 134.888C338.999 134.456 338.866 134.023 338.7 133.591C338.65 133.466 338.612 133.354 338.575 133.241C338.538 133.129 338.5 133.017 338.45 132.892L338.45 132.891C338.3 132.542 338.151 132.193 338.001 131.895L337.502 130.997C337.27 130.564 337.02 130.132 336.754 129.699C336.404 129.142 336.044 128.591 335.684 128.041C334.659 126.474 333.638 124.912 332.863 123.214C332.597 122.648 332.347 122.05 332.114 121.418C331.615 120.021 331.316 118.474 331.316 116.928C331.266 115.082 331.615 113.236 332.164 111.44C332.563 110.193 333.062 108.995 333.561 107.798C334.01 106.65 334.509 105.453 335.058 104.306C335.49 103.275 335.939 102.227 336.405 101.163C336.854 100.115 337.253 99.0673 337.602 97.9697C338.001 96.7391 338.384 95.4919 338.75 94.228C339.049 93.0309 339.199 91.8338 339.348 90.6367L339.348 90.636C339.498 89.4386 339.598 88.2912 339.548 87.0938C339.481 85.7967 339.298 84.4996 338.999 83.2025C338.75 82.1049 338.35 81.0073 337.852 80.0095C337.353 78.912 336.804 77.8643 336.205 76.8665C335.557 75.7694 334.859 74.7222 334.161 73.6749L334.16 73.6736L333.062 71.9773C332.796 71.5782 332.547 71.1625 332.314 70.7301C332.245 70.5931 332.177 70.462 332.11 70.3347C331.983 70.0912 331.863 69.8619 331.765 69.6325C331.466 68.9673 331.216 68.2689 331.017 67.5372C330.667 66.1403 330.618 64.6436 330.917 63.1968C331.116 62.0992 331.466 61.0516 331.865 60.0039C332.098 59.4717 332.347 58.9562 332.613 58.4573C332.946 57.8254 333.278 57.2101 333.611 56.6114C333.91 56.0792 334.226 55.5637 334.559 55.0648C335.257 53.9673 335.956 52.9196 336.704 51.8719C336.904 51.5559 337.109 51.24 337.314 50.924C337.724 50.2921 338.134 49.6601 338.5 49.0282C339.398 47.5315 340.246 46.0348 340.945 44.4883C341.643 43.0415 342.142 41.445 342.092 39.8486C342.092 38.6013 341.743 37.404 341.144 36.3064C340.56 35.138 339.691 34.0647 338.861 33.04L338.799 32.9638C338.6 32.7268 338.397 32.4898 338.194 32.2528C337.586 31.5419 336.978 30.831 336.455 30.1201C335.906 29.3718 335.357 28.5735 334.908 27.7753C334.642 27.2099 334.426 26.6445 334.26 26.0791C334.126 25.7132 334.027 25.3474 333.96 24.9815C333.927 24.7154 333.894 24.4327 333.86 24.1334V24.0336C333.96 24.0336 334.06 24.017 334.16 23.9837C334.293 23.9837 334.426 23.9671 334.559 23.9338C334.692 23.9006 334.842 23.8839 335.008 23.8839C335.241 23.8174 335.49 23.7509 335.756 23.6844C336.388 23.5513 337.003 23.4017 337.602 23.2354C337.903 23.1753 338.203 23.079 338.515 22.9792C338.72 22.9133 338.93 22.8459 339.149 22.7864C339.382 22.6866 339.598 22.5868 339.797 22.487C340.063 22.4205 340.313 22.3207 340.546 22.1877C341.593 21.7387 342.591 21.1899 343.439 20.4416C343.988 19.9427 344.537 19.344 344.886 18.6455C345.135 18.1467 345.285 17.6478 345.335 17.099C345.385 16.6001 345.385 16.1012 345.135 15.6522C344.936 15.2032 344.587 14.8041 344.237 14.4548C343.389 13.6067 342.441 12.8584 341.344 12.3595C339.847 11.7109 338.101 11.7608 336.554 12.2597C335.956 12.4593 335.357 12.7087 334.858 13.008C334.409 13.3074 334.06 13.6067 333.711 13.9559C332.863 14.7542 332.264 15.752 331.915 16.7996C331.675 17.3982 331.564 17.9968 331.452 18.5954C331.424 18.7451 331.396 18.8949 331.366 19.0447C331.266 19.6932 331.266 20.3418 331.266 20.9904V21.589H331.216C331.117 21.589 331.017 21.6057 330.917 21.6389H330.817C330.551 21.6722 330.302 21.7054 330.069 21.7387L327.973 21.9382C327.674 21.9382 327.362 21.9507 327.05 21.9632C326.739 21.9757 326.427 21.9881 326.128 21.9881C325.479 21.9881 324.781 21.9881 324.132 21.9382C323.567 21.905 323.001 21.8551 322.436 21.7886C321.737 21.7221 321.055 21.6223 320.39 21.4892C320.091 21.4227 319.775 21.3562 319.442 21.2897C319.11 21.2232 318.794 21.14 318.494 21.0402C317.247 20.691 316.05 20.242 314.853 19.6932C313.755 19.1943 312.707 18.6455 311.66 18.0469L311.657 18.0457C310.561 17.4474 309.464 16.8492 308.367 16.3007C306.92 15.5524 305.324 15.0036 303.727 14.9537C302.53 14.9038 301.333 14.9537 300.135 15.1034C298.938 15.2697 297.774 15.5358 296.643 15.9016C294.398 16.6001 292.153 17.4981 289.958 18.3961C288.81 18.895 287.613 19.344 286.465 19.7431C285.235 20.109 284.004 20.4416 282.774 20.7409C281.643 21.0402 280.479 21.2731 279.281 21.4394C278.583 21.5391 277.868 21.6223 277.136 21.6888C276.837 21.7137 276.538 21.7262 276.238 21.7387C275.939 21.7512 275.639 21.7636 275.34 21.7886C272.097 21.8884 269.004 20.6411 266.26 19.1444C265.419 18.7055 264.604 18.2397 263.777 17.7667C263.476 17.5947 263.174 17.4217 262.868 17.2486C261.837 16.6832 260.772 16.1511 259.675 15.6522C258.577 15.2032 257.43 14.854 256.283 14.5048L256.282 14.5047C255.085 14.2054 253.838 14.0058 252.591 13.8063C250.246 13.457 247.851 13.5069 245.506 13.8063C243.012 14.1056 240.617 14.7542 238.272 15.4526C237.973 15.5503 237.673 15.6489 237.373 15.7475C235.376 16.4043 233.37 17.0643 231.288 17.4981C230.024 17.7642 228.76 17.9637 227.496 18.0968C226.299 18.2464 225.151 18.1965 223.954 18.0968C222.807 17.9471 221.609 17.6976 220.462 17.3983L218.666 16.7996C218.1 16.5336 217.552 16.2509 217.019 15.9515C216.346 15.584 215.691 15.1977 215.043 14.8157C214.636 14.5754 214.231 14.3368 213.826 14.1056L213.826 14.1055C212.729 13.5069 211.631 12.9082 210.484 12.4094C209.386 11.9604 208.239 11.5114 207.042 11.3118C205.894 11.1122 204.697 11.0125 203.499 11.1621C201.105 11.4116 198.71 12.0601 196.415 12.8584C194.731 13.4196 193.048 14.0651 191.364 14.7105C190.803 14.9257 190.241 15.1408 189.68 15.3528C189.371 15.4704 189.063 15.5923 188.753 15.7147C188.011 16.0078 187.261 16.3038 186.487 16.5502C186.163 16.65 185.851 16.7498 185.539 16.8496C185.227 16.9493 184.915 17.0491 184.591 17.1489C184.026 17.2819 183.46 17.3817 182.895 17.4482C182.296 17.548 181.714 17.5812 181.149 17.548C180.7 17.548 180.301 17.4981 179.902 17.4482C179.735 17.4149 179.586 17.3651 179.453 17.2985C179.419 17.2985 179.403 17.2819 179.403 17.2486C179.378 17.2237 179.353 17.1863 179.328 17.1489C179.303 17.1114 179.278 17.074 179.253 17.0491C179.128 16.7747 179.016 16.4879 178.904 16.2011C178.792 15.9142 178.679 15.6273 178.555 15.3528C178.462 15.1675 178.376 14.9752 178.29 14.7812C178.266 14.7273 178.241 14.6733 178.217 14.6192C178.241 14.6155 178.264 14.6119 178.288 14.6082C178.414 14.5885 178.536 14.5693 178.655 14.5545L180.052 14.355L180.233 14.3272C181.474 14.1366 182.756 13.9396 183.993 13.6066C184.691 13.4403 185.373 13.2075 186.038 12.9082C186.687 12.6088 187.236 12.2596 187.834 11.8106C189.231 10.8128 190.129 9.21635 190.379 7.52011C190.528 6.6221 190.479 5.67421 190.229 4.7762C189.98 4.02785 189.581 3.3294 189.032 2.73073C188.433 1.98239 187.635 1.28394 186.787 0.735152C186.255 0.402556 185.656 0.202998 184.991 0.136478C184.242 0.0366996 183.444 0.186368 182.696 0.435815C182.568 0.490491 182.434 0.538509 182.298 0.587166L182.298 0.587208C182.062 0.671729 181.82 0.758184 181.598 0.88482C180.95 1.23405 180.351 1.58327 179.752 2.03228C179.187 2.49791 178.655 2.99681 178.156 3.52896C177.408 4.32719 176.709 5.27509 176.21 6.27288C175.711 5.27509 175.013 4.32719 174.265 3.52896C173.766 2.99681 173.233 2.49791 172.668 2.03228C172.069 1.58327 171.471 1.23405 170.822 0.88482C170.601 0.758216 170.359 0.671772 170.123 0.587271L170.123 0.587258L170.123 0.587211C169.986 0.538539 169.852 0.490508 169.725 0.435815C168.976 0.186368 168.178 0.0366996 167.43 0.136478C166.764 0.202998 166.166 0.402556 165.634 0.735152C164.786 1.28394 163.987 1.98239 163.389 2.73073C162.84 3.3294 162.441 4.02785 162.191 4.7762C161.942 5.67421 161.892 6.6221 162.042 7.52011C162.291 9.21635 163.189 10.8128 164.586 11.8106C165.185 12.2596 165.733 12.6088 166.382 12.9082C167.047 13.2075 167.729 13.4403 168.427 13.6066C169.664 13.9396 170.947 14.1365 172.188 14.3271L172.369 14.355L173.766 14.5545C173.912 14.5708 174.059 14.5924 174.205 14.6141C174.18 14.6698 174.155 14.7256 174.13 14.7812C174.044 14.9752 173.958 15.1675 173.865 15.3528C173.74 15.6272 173.628 15.9141 173.516 16.201C173.404 16.4878 173.291 16.7747 173.167 17.0491C173.142 17.074 173.117 17.1114 173.092 17.1488C173.067 17.1863 173.042 17.2237 173.017 17.2486C173.017 17.2819 173 17.2985 172.967 17.2985C172.834 17.3651 172.684 17.4149 172.518 17.4482C172.119 17.4981 171.72 17.548 171.271 17.548C170.705 17.5812 170.123 17.548 169.525 17.4482C168.959 17.3817 168.394 17.2819 167.828 17.1489C167.504 17.0491 167.192 16.9493 166.881 16.8495C166.569 16.7498 166.257 16.65 165.933 16.5502C165.158 16.3038 164.409 16.0078 163.667 15.7147C163.357 15.5923 163.048 15.4704 162.74 15.3528C162.178 15.1408 161.617 14.9257 161.056 14.7105C159.372 14.0651 157.688 13.4196 156.005 12.8584C153.71 12.0601 151.315 11.4116 148.92 11.1621C147.723 11.0125 146.526 11.1122 145.378 11.3118C144.181 11.5114 143.033 11.9604 141.936 12.4094C140.788 12.9082 139.691 13.5069 138.593 14.1055L138.593 14.1056C138.189 14.3368 137.784 14.5754 137.377 14.8157C136.729 15.1977 136.074 15.584 135.4 15.9515C134.868 16.2509 134.319 16.5336 133.754 16.7996L131.958 17.3983C130.81 17.6976 129.613 17.9471 128.466 18.0968C127.268 18.1965 126.121 18.2464 124.924 18.0968C123.66 17.9637 122.396 17.7642 121.132 17.4981C119.05 17.0643 117.043 16.4043 115.047 15.7476C114.747 15.6489 114.447 15.5503 114.147 15.4526C111.803 14.7542 109.408 14.1056 106.913 13.8063C104.569 13.5069 102.174 13.457 99.8291 13.8063C98.5819 14.0058 97.3347 14.2054 96.1373 14.5047L96.1373 14.5047C94.9898 14.854 93.8424 15.2032 92.7449 15.6522C91.6473 16.1511 90.583 16.6832 89.5519 17.2486C89.2458 17.4217 88.9433 17.5947 88.6424 17.7667C87.8153 18.2397 87.0008 18.7055 86.1594 19.1444C83.4155 20.6411 80.3224 21.8884 77.0796 21.7886C76.7802 21.7636 76.4809 21.7512 76.1815 21.7387C75.8822 21.7262 75.5829 21.7137 75.2836 21.6888C74.5518 21.6223 73.8368 21.5391 73.1383 21.4394C71.941 21.2731 70.7769 21.0402 69.646 20.7409C68.4154 20.4416 67.1848 20.109 65.9542 19.7431C64.8068 19.344 63.6094 18.895 62.462 18.3961C60.2668 17.4981 58.0218 16.6001 55.7768 15.9016C54.646 15.5358 53.4819 15.2697 52.2845 15.1034C51.0872 14.9537 49.8898 14.9038 48.6925 14.9537C47.096 15.0036 45.4996 15.5524 44.0528 16.3007C42.9552 16.8495 41.8576 17.4482 40.7601 18.0469C39.7124 18.6455 38.6647 19.1943 37.5671 19.6932C36.3698 20.242 35.1725 20.691 33.9252 21.0402C33.6259 21.14 33.3099 21.2232 32.9773 21.2897C32.6447 21.3562 32.3288 21.4227 32.0294 21.4892C31.3642 21.6223 30.6824 21.7221 29.984 21.7886C29.4185 21.8551 28.8531 21.905 28.2877 21.9382C27.6392 21.9881 26.9407 21.9881 26.2921 21.9881C25.9928 21.9881 25.681 21.9757 25.3692 21.9632C25.0574 21.9507 24.7456 21.9382 24.4462 21.9382L22.3509 21.7387C22.1181 21.7054 21.8686 21.6722 21.6025 21.6389H21.5028C21.403 21.6057 21.3032 21.589 21.2034 21.589H21.1535V20.9904C21.1535 20.3418 21.1535 19.6932 21.0537 19.0447C21.0238 18.895 20.9959 18.7453 20.9679 18.5956C20.8562 17.997 20.7444 17.3983 20.505 16.7996C20.1557 15.752 19.5571 14.7542 18.7089 13.9559C18.3597 13.6067 18.0105 13.3074 17.5615 13.008C17.0626 12.7087 16.4639 12.4593 15.8652 12.2597C14.3187 11.7608 12.5725 11.7109 11.0759 12.3595C9.9783 12.8584 9.0304 13.6067 8.18228 14.4548C7.83305 14.8041 7.48383 15.2032 7.28427 15.6522C7.03482 16.1012 7.03482 16.6001 7.08471 17.099C7.1346 17.6478 7.28427 18.1467 7.53372 18.6455C7.88294 19.344 8.43172 19.9427 8.98051 20.4416C9.82863 21.1899 10.8264 21.7387 11.8741 22.1877C12.1069 22.3207 12.3564 22.4205 12.6224 22.487C12.822 22.5868 13.0382 22.6866 13.271 22.7864C13.4892 22.8459 13.6996 22.9133 13.9052 22.9792C14.2166 23.079 14.5171 23.1753 14.8176 23.2354C15.4162 23.4017 16.0315 23.5513 16.6635 23.6844C16.9296 23.7509 17.179 23.8174 17.4118 23.8839C17.5781 23.8839 17.7278 23.9006 17.8608 23.9338C17.9939 23.9671 18.1269 23.9837 18.2599 23.9837C18.3597 24.017 18.4595 24.0336 18.5593 24.0336V24.1334C18.526 24.4327 18.4928 24.7154 18.4595 24.9815C18.393 25.3474 18.2932 25.7132 18.1602 26.0791C17.9939 26.6445 17.7777 27.2099 17.5116 27.7753C17.0626 28.5735 16.5138 29.3718 15.965 30.1201C15.4412 30.831 14.8332 31.542 14.2251 32.2529C14.0225 32.4899 13.8198 32.7268 13.6202 32.9638L13.5582 33.0404C12.7286 34.065 11.8595 35.1382 11.2754 36.3064C10.6767 37.404 10.3275 38.6013 10.3275 39.8486C10.2776 41.445 10.7765 43.0415 11.475 44.4883C12.1734 46.0348 13.0216 47.5315 13.9196 49.0282C14.2854 49.6601 14.6956 50.2921 15.1058 50.924C15.3109 51.24 15.516 51.5559 15.7156 51.8719C16.4639 52.9196 17.1624 53.9673 17.8608 55.0648C18.1934 55.5637 18.5094 56.0792 18.8087 56.6114C19.1413 57.2101 19.4739 57.8254 19.8065 58.4573C20.0726 58.9562 20.322 59.4717 20.5549 60.0039C20.954 61.0516 21.3032 62.0992 21.5028 63.1968C21.8021 64.6436 21.7522 66.1403 21.403 67.5372C21.2034 68.2689 20.954 68.9673 20.6546 69.6325C20.5563 69.8619 20.4365 70.0913 20.3093 70.3348C20.2428 70.4621 20.1743 70.5931 20.1058 70.7301C19.873 71.1625 19.6236 71.5782 19.3575 71.9773L18.2599 73.6736L18.2598 73.6738C17.5614 74.7214 16.863 75.769 16.2145 76.8665C15.6158 77.8643 15.067 78.912 14.5681 80.0095C14.0692 81.0073 13.6701 82.1049 13.4207 83.2025C13.1213 84.4996 12.9384 85.7967 12.8719 87.0938C12.822 88.2912 12.9218 89.4386 13.0714 90.636C13.2211 91.8333 13.3708 93.0307 13.6701 94.228C14.036 95.4919 14.4185 96.7391 14.8176 97.9697C15.1668 99.0673 15.5659 100.115 16.0149 101.163C16.4806 102.227 16.9296 103.275 17.3619 104.306C17.9107 105.453 18.4096 106.65 18.8586 107.798C19.3575 108.995 19.8564 110.193 20.2555 111.44C20.8043 113.236 21.1535 115.082 21.1036 116.928C21.0537 118.474 20.8043 120.021 20.3054 121.418C20.0726 122.05 19.8231 122.648 19.5571 123.214C18.7816 124.912 17.7603 126.474 16.7356 128.041C16.3759 128.591 16.0157 129.142 15.6657 129.699C15.3996 130.132 15.1502 130.564 14.9174 130.997L14.4185 131.895C14.2688 132.194 14.1191 132.543 13.9695 132.892C13.9196 133.017 13.8821 133.129 13.8447 133.242C13.8073 133.354 13.7699 133.466 13.72 133.591C13.5537 134.023 13.404 134.456 13.271 134.888C12.9717 136.085 12.822 137.283 12.7721 138.53C12.7222 139.677 12.7721 140.875 12.9218 142.022C12.9966 142.321 13.059 142.621 13.1213 142.92C13.1837 143.219 13.2461 143.519 13.3209 143.818C13.4706 144.467 13.6701 145.115 13.9196 145.714C14.6179 147.856 15.5336 149.867 16.4637 151.91C16.5302 152.056 16.5969 152.203 16.6635 152.349C17.1624 153.447 17.6613 154.544 18.1103 155.642C18.2225 155.929 18.3379 156.216 18.4532 156.502C18.7994 157.363 19.1455 158.224 19.4074 159.084C19.4544 159.272 19.5027 159.462 19.5512 159.652C19.8115 160.673 20.0795 161.725 20.2056 162.776C20.2721 163.375 20.322 163.99 20.3553 164.622C20.4052 165.221 20.3553 165.819 20.3054 166.418C20.1557 168.763 19.5571 171.058 18.7089 173.253C18.1534 174.642 17.4833 176.012 16.8167 177.374C16.4058 178.214 15.9963 179.051 15.6158 179.888C15.1502 180.919 14.7344 181.967 14.3686 183.031C13.9196 184.328 13.5703 185.625 13.4207 186.972C13.0216 190.315 14.169 193.508 15.516 196.501C15.8531 197.206 16.1948 197.901 16.5355 198.595C17.3042 200.159 18.0675 201.711 18.7588 203.336C19.2078 204.484 19.607 205.581 19.9063 206.779C20.2056 207.976 20.3054 209.273 20.056 210.47C19.8065 211.468 19.3575 212.366 18.9085 213.264C18.441 214.246 17.7983 215.184 17.1857 216.078C17.1445 216.138 17.1034 216.198 17.0626 216.258C16.414 217.255 15.7655 218.253 15.2167 219.301C14.618 220.398 14.2688 221.496 14.0692 222.693C13.9196 223.891 13.9695 225.088 14.169 226.235C14.3686 227.383 14.7178 228.48 15.067 229.528C15.516 230.725 15.965 231.823 16.4639 232.971C16.8081 233.815 17.1916 234.641 17.5774 235.471C17.8067 235.964 18.0368 236.46 18.2599 236.962L18.3255 237.116C19.0043 238.714 19.7036 240.36 19.607 242.1C19.5737 242.732 19.4573 243.348 19.2577 243.946C19.1912 244.246 19.0748 244.528 18.9085 244.794C18.8586 244.944 18.7588 245.094 18.6591 245.193C18.4928 245.293 18.3098 245.376 18.1103 245.443C18.0105 245.476 17.8941 245.509 17.761 245.543C17.628 245.609 17.4783 245.659 17.312 245.692L16.2145 245.992C15.9151 246.091 15.5992 246.175 15.2666 246.241C15.1372 246.273 15.0078 246.295 14.8801 246.317C14.8238 246.326 14.7678 246.336 14.7123 246.346C14.6989 246.111 14.6642 245.877 14.6294 245.642L14.6294 245.642C14.6072 245.492 14.5851 245.343 14.5684 245.193L14.3689 243.796L14.3411 243.615C14.1505 242.374 13.9535 241.092 13.6205 239.855C13.4542 239.157 13.2214 238.475 12.9221 237.81C12.6228 237.161 12.2735 236.612 11.8245 236.014C10.8267 234.617 9.23027 233.719 7.53403 233.469C6.63602 233.32 5.68812 233.369 4.79011 233.619C4.04177 233.868 3.34332 234.267 2.74464 234.816C1.9963 235.415 1.29785 236.213 0.749068 237.061C0.416472 237.593 0.216914 238.192 0.150394 238.857C0.0506156 239.606 0.200284 240.404 0.449731 241.152C0.504427 241.28 0.55246 241.414 0.601135 241.55L0.601147 241.55C0.685661 241.786 0.772112 242.028 0.898736 242.25C1.24796 242.898 1.59719 243.497 2.04619 244.096C2.51183 244.661 3.01072 245.193 3.54288 245.692C4.34111 246.44 5.289 247.139 6.28679 247.638C5.289 248.137 4.34111 248.835 3.54288 249.583C3.01072 250.082 2.51183 250.615 2.04619 251.18C1.59719 251.779 1.24796 252.377 0.898736 253.026C0.772112 253.247 0.685661 253.489 0.601147 253.725L0.601135 253.725C0.55246 253.861 0.504427 253.996 0.449731 254.123C0.200284 254.872 0.0506156 255.67 0.150394 256.418C0.216914 257.083 0.416472 257.682 0.749068 258.214C1.29785 259.062 1.9963 259.861 2.74464 260.459C3.34332 261.008 4.04177 261.407 4.79011 261.657C5.68812 261.906 6.63602 261.956 7.53403 261.806C9.23027 261.557 10.8267 260.659 11.8245 259.262C12.2735 258.663 12.6228 258.115 12.9221 257.466C13.2214 256.801 13.4542 256.119 13.6205 255.421C13.9536 254.184 14.1505 252.901 14.3411 251.66L14.3689 251.479L14.5684 250.082C14.5832 249.964 14.6024 249.841 14.6221 249.715C14.6616 249.463 14.703 249.197 14.7148 248.93C14.7695 248.94 14.8246 248.95 14.8801 248.959C15.0078 248.981 15.1372 249.003 15.2666 249.035C15.5992 249.101 15.9151 249.185 16.2145 249.284L17.312 249.584C17.4783 249.617 17.628 249.667 17.761 249.733C17.8941 249.767 18.0105 249.8 18.1103 249.833C18.3098 249.9 18.4928 249.983 18.6591 250.083C18.7588 250.182 18.8586 250.332 18.9085 250.482C19.0748 250.748 19.1912 251.03 19.2577 251.33C19.4573 251.928 19.5737 252.544 19.607 253.176C19.7036 254.916 19.0043 256.562 18.3254 258.16L18.2599 258.314C18.0368 258.816 17.8067 259.312 17.5774 259.805C17.1916 260.635 16.8081 261.461 16.4639 262.305C15.965 263.453 15.516 264.551 15.067 265.748C14.7178 266.796 14.3686 267.893 14.169 269.041C13.9695 270.188 13.9196 271.385 14.0692 272.583C14.2688 273.78 14.618 274.878 15.2167 275.975C15.7655 277.023 16.414 278.021 17.0626 279.018L17.1857 279.198C17.7984 280.092 18.441 281.03 18.9085 282.012C19.3575 282.91 19.8065 283.808 20.056 284.806C20.3054 286.003 20.2056 287.3 19.9063 288.497C19.607 289.695 19.2078 290.792 18.7588 291.94C18.0675 293.565 17.3043 295.117 16.5356 296.681C16.1949 297.375 15.8531 298.07 15.516 298.775C14.169 301.768 13.0216 304.961 13.4207 308.304C13.5703 309.651 13.9196 310.948 14.3686 312.245C14.7344 313.309 15.1502 314.357 15.6158 315.388C15.9963 316.225 16.4058 317.062 16.8167 317.902C17.4833 319.264 18.1534 320.634 18.7089 322.023C19.5571 324.218 20.1557 326.513 20.3054 328.858C20.3553 329.457 20.4052 330.055 20.3553 330.654C20.322 331.286 20.2721 331.901 20.2056 332.5C20.0795 333.551 19.8115 334.603 19.5511 335.624C19.5026 335.814 19.4544 336.004 19.4074 336.192C19.1455 337.052 18.7994 337.913 18.4532 338.774C18.3379 339.06 18.2225 339.347 18.1103 339.634C17.6614 340.731 17.1626 341.829 16.6638 342.926L16.6635 342.927C16.5968 343.073 16.5302 343.22 16.4636 343.366C15.5335 345.409 14.6179 347.42 13.9196 349.562C13.6701 350.161 13.4706 350.809 13.3209 351.458C13.2461 351.757 13.1837 352.057 13.1213 352.356C13.059 352.655 12.9966 352.955 12.9218 353.254C12.7721 354.401 12.7222 355.599 12.7721 356.746C12.822 357.993 12.9717 359.191 13.271 360.388C13.404 360.82 13.5537 361.253 13.72 361.685C13.7699 361.81 13.8073 361.922 13.8447 362.034C13.8821 362.147 13.9196 362.259 13.9695 362.384C14.1191 362.733 14.2688 363.082 14.4185 363.381L14.9174 364.279C15.1502 364.712 15.3996 365.144 15.6657 365.577C16.0157 366.134 16.3759 366.685 16.7357 367.235C17.7603 368.802 18.7817 370.364 19.5571 372.062C19.8231 372.628 20.0726 373.226 20.3054 373.858C20.8043 375.255 21.0537 376.802 21.1036 378.348C21.1535 380.194 20.8043 382.04 20.2555 383.836C19.8565 385.083 19.3576 386.28 18.8588 387.478L18.8586 387.478C18.4096 388.626 17.9107 389.823 17.3619 390.97C16.9296 392.001 16.4806 393.049 16.0149 394.113C15.5659 395.161 15.1668 396.209 14.8176 397.306C14.4185 398.537 14.036 399.784 13.6701 401.048C13.3708 402.245 13.2211 403.443 13.0714 404.64C12.9218 405.837 12.822 406.985 12.8719 408.182C12.9384 409.479 13.1213 410.776 13.4207 412.074C13.6701 413.171 14.0692 414.269 14.5681 415.266C15.067 416.364 15.6158 417.412 16.2145 418.409C16.863 419.507 17.5615 420.555 18.2599 421.602L19.3575 423.299C19.6236 423.698 19.873 424.113 20.1058 424.546C20.1743 424.683 20.2428 424.814 20.3093 424.941C20.4365 425.185 20.5563 425.414 20.6546 425.643C20.954 426.309 21.2034 427.007 21.403 427.739C21.7522 429.136 21.8021 430.632 21.5028 432.079C21.3032 433.177 20.954 434.224 20.5549 435.272C20.322 435.804 20.0726 436.32 19.8065 436.819C19.4739 437.451 19.1413 438.066 18.8087 438.665C18.5094 439.197 18.1934 439.712 17.8608 440.211C17.1624 441.309 16.4639 442.356 15.7156 443.404C15.516 443.72 15.3108 444.036 15.1057 444.352C14.6955 444.984 14.2854 445.616 13.9196 446.248C13.0216 447.744 12.1734 449.241 11.475 450.788C10.7765 452.235 10.2776 453.831 10.3275 455.427C10.3275 456.675 10.6767 457.872 11.2754 458.97C11.8595 460.138 12.7286 461.211 13.5582 462.236L13.6202 462.312C13.8198 462.549 14.0225 462.786 14.2251 463.023C14.8332 463.734 15.4412 464.445 15.965 465.156C16.5138 465.904 17.0626 466.702 17.5116 467.501C17.7777 468.066 17.9939 468.632 18.1602 469.197C18.2932 469.563 18.393 469.929 18.4595 470.294C18.4928 470.561 18.526 470.843 18.5593 471.143V471.242C18.4595 471.242 18.3597 471.259 18.2599 471.292C18.1269 471.292 17.9939 471.309 17.8608 471.342C17.7278 471.375 17.5781 471.392 17.4118 471.392C17.179 471.459 16.9296 471.525 16.6635 471.592C16.0315 471.725 15.4162 471.874 14.8176 472.041C14.5171 472.101 14.2166 472.197 13.9052 472.297C13.6996 472.363 13.4893 472.43 13.271 472.49C13.0382 472.589 12.822 472.689 12.6224 472.789C12.3564 472.855 12.1069 472.955 11.8741 473.088C10.8264 473.537 9.82863 474.086 8.98051 474.834C8.43172 475.333 7.88294 475.932 7.53372 476.63C7.28427 477.129 7.1346 477.628 7.08471 478.177C7.03482 478.676 7.03482 479.175 7.28427 479.624C7.48383 480.073 7.83305 480.472 8.18228 480.821C9.0304 481.669 9.9783 482.418 11.0759 482.917C12.5725 483.565 14.3187 483.515 15.8652 483.016C16.4639 482.817 17.0626 482.567 17.5615 482.268C18.0105 481.969 18.3597 481.669 18.7089 481.32C19.5571 480.522 20.1557 479.524 20.505 478.476C20.7444 477.878 20.8562 477.279 20.9679 476.68C20.9959 476.531 21.0238 476.381 21.0537 476.231C21.1535 475.583 21.1535 474.934 21.1535 474.286V473.687H21.2034C21.3032 473.687 21.403 473.67 21.5028 473.637H21.6025C21.8686 473.604 22.1181 473.571 22.3509 473.537L24.4462 473.338C24.7456 473.338 25.0574 473.325 25.3692 473.313C25.681 473.3 25.9928 473.288 26.2921 473.288C26.9407 473.288 27.6392 473.288 28.2877 473.338C28.8531 473.371 29.4185 473.421 29.984 473.487C30.6824 473.554 31.3642 473.654 32.0294 473.787C32.3288 473.853 32.6447 473.92 32.9773 473.986C33.3099 474.053 33.6259 474.136 33.9252 474.236C35.1725 474.585 36.3698 475.034 37.5671 475.583C38.6647 476.082 39.7124 476.63 40.7601 477.229L40.7619 477.23C41.8589 477.828 42.9558 478.427 44.0528 478.975C45.4996 479.724 47.096 480.272 48.6925 480.322C49.8898 480.372 51.0872 480.322 52.2845 480.173C53.4819 480.006 54.646 479.74 55.7768 479.374C58.0218 478.626 60.2668 477.778 62.462 476.88C63.6094 476.381 64.8068 475.932 65.9542 475.533C67.1848 475.167 68.4154 474.834 69.646 474.535C70.7769 474.236 71.941 474.003 73.1383 473.837C73.8368 473.737 74.5518 473.654 75.2836 473.587C75.5829 473.562 75.8822 473.55 76.1816 473.537C76.4809 473.525 76.7802 473.512 77.0796 473.487C80.3224 473.388 83.4155 474.635 86.1594 476.132C87.0008 476.571 87.8154 477.036 88.6424 477.509C88.9433 477.681 89.2458 477.854 89.5519 478.027C90.583 478.593 91.6473 479.125 92.7449 479.624C93.8421 480.073 94.9892 480.422 96.1363 480.771L96.1373 480.771C97.3347 481.071 98.5819 481.27 99.8291 481.47C102.174 481.819 104.569 481.769 106.913 481.47C109.408 481.17 111.803 480.522 114.147 479.823C114.447 479.726 114.747 479.627 115.047 479.528C117.043 478.872 119.05 478.212 121.132 477.778C122.396 477.512 123.66 477.312 124.924 477.179C126.121 477.03 127.268 477.079 128.466 477.179C129.613 477.279 130.81 477.578 131.958 477.878L133.754 478.476C134.319 478.742 134.868 479.025 135.4 479.324C136.074 479.692 136.729 480.078 137.377 480.46C137.784 480.701 138.189 480.939 138.593 481.17L138.594 481.171C139.691 481.769 140.789 482.368 141.936 482.867C143.033 483.316 144.181 483.765 145.378 483.964C146.526 484.164 147.723 484.264 148.92 484.114C151.315 483.864 153.71 483.216 156.005 482.418C157.689 481.856 159.373 481.211 161.057 480.565C161.618 480.35 162.179 480.135 162.74 479.923C163.048 479.806 163.357 479.684 163.667 479.561C164.409 479.268 165.158 478.972 165.933 478.726C166.257 478.626 166.569 478.526 166.881 478.426C167.192 478.327 167.504 478.227 167.828 478.127C168.394 477.994 168.959 477.894 169.525 477.828C170.123 477.728 170.705 477.695 171.271 477.728C171.72 477.728 172.119 477.778 172.518 477.828C172.684 477.861 172.834 477.911 172.967 477.977C173 477.977 173.017 477.994 173.017 478.027C173.054 478.064 173.091 478.128 173.127 478.179C173.14 478.197 173.154 478.214 173.167 478.227C173.291 478.501 173.404 478.788 173.516 479.075C173.628 479.362 173.74 479.649 173.865 479.923C173.958 480.109 174.044 480.301 174.13 480.495C174.155 480.55 174.18 480.606 174.205 480.662C174.131 480.673 174.056 480.684 173.982 480.694C173.91 480.704 173.838 480.713 173.766 480.721L172.369 480.921L172.188 480.949C170.947 481.139 169.664 481.336 168.427 481.669C167.729 481.836 167.047 482.068 166.382 482.368C165.733 482.667 165.185 483.016 164.586 483.465C163.189 484.463 162.291 486.059 162.042 487.756C161.892 488.654 161.942 489.602 162.191 490.5C162.441 491.248 162.84 491.946 163.389 492.545C163.987 493.293 164.786 493.992 165.634 494.541C166.166 494.873 166.764 495.073 167.43 495.139C168.178 495.239 168.976 495.089 169.725 494.84C169.801 494.807 169.88 494.777 169.96 494.747C170.014 494.728 170.068 494.708 170.123 494.689C170.359 494.604 170.601 494.518 170.822 494.391C171.471 494.042 172.069 493.693 172.668 493.244C173.233 492.778 173.766 492.279 174.265 491.747C175.011 490.951 175.707 490.006 176.206 489.011C176.696 489.99 177.358 490.899 178.108 491.696L178.156 491.747C178.655 492.279 179.187 492.778 179.752 493.244C180.351 493.693 180.95 494.042 181.598 494.391C181.82 494.518 182.061 494.604 182.298 494.689L182.298 494.689ZM175.003 483.565C175.007 483.532 175.01 483.499 175.013 483.465C173.649 483.598 172.302 483.814 170.972 484.114C170.273 484.28 169.592 484.496 168.926 484.762C168.278 485.062 167.679 485.411 167.13 485.81C165.684 486.808 164.686 488.354 164.436 490.101C164.37 490.533 164.353 490.982 164.386 491.448C164.414 491.585 164.441 491.734 164.469 491.894L164.486 491.996C164.519 492.063 164.536 492.146 164.536 492.246C164.569 492.379 164.619 492.512 164.686 492.645V492.695C164.786 492.728 164.869 492.745 164.935 492.745C165.102 492.778 165.251 492.795 165.384 492.795C165.817 492.795 166.232 492.745 166.631 492.645C167.529 492.445 168.378 492.046 169.176 491.547C169.774 491.181 170.34 490.782 170.872 490.35C172.837 488.673 174.617 486.443 174.976 483.794C174.97 483.786 174.965 483.776 174.963 483.765C174.942 483.703 174.964 483.633 175.003 483.565ZM177.445 483.792C177.803 486.442 179.584 488.672 181.549 490.35C182.081 490.782 182.647 491.181 183.245 491.547C183.885 491.947 184.556 492.282 185.259 492.503C185.433 492.557 185.61 492.605 185.789 492.645L177.408 483.465L185.79 492.645C186.189 492.745 186.604 492.795 187.036 492.795C187.169 492.795 187.319 492.778 187.485 492.745C187.552 492.745 187.635 492.728 187.735 492.695V492.645C187.801 492.512 187.851 492.379 187.884 492.246C187.884 492.146 187.901 492.063 187.934 491.996C187.967 491.797 188.001 491.614 188.034 491.448C188.067 490.982 188.051 490.533 187.984 490.101C187.735 488.354 186.737 486.808 185.29 485.81C184.741 485.411 184.143 485.062 183.494 484.762C182.829 484.496 182.147 484.28 181.449 484.114C181.261 484.072 181.073 484.031 180.884 483.992C179.821 483.772 178.747 483.605 177.663 483.491C177.578 483.482 177.493 483.473 177.408 483.465C177.411 483.5 177.415 483.534 177.418 483.568C177.457 483.635 177.477 483.704 177.457 483.765C177.454 483.775 177.45 483.784 177.445 483.792ZM11.762 248.841C11.7573 248.893 11.7771 248.927 11.8138 248.943C11.68 250.27 11.4674 251.581 11.176 252.876C11.0097 253.575 10.7935 254.256 10.5274 254.922C10.2281 255.57 9.87883 256.169 9.47972 256.718C8.48193 258.164 6.93536 259.162 5.18923 259.412C4.75685 259.478 4.30785 259.495 3.84221 259.462C3.67591 259.428 3.49299 259.395 3.29343 259.362C3.22691 259.329 3.14376 259.312 3.04398 259.312C2.91094 259.279 2.7779 259.229 2.64487 259.162H2.59498C2.56172 259.062 2.54509 258.979 2.54509 258.913C2.51183 258.746 2.4952 258.597 2.4952 258.464V258.414C2.4952 258.015 2.54509 257.616 2.64487 257.217C2.84442 256.319 3.24354 255.47 3.74243 254.672C4.10829 254.074 4.5074 253.508 4.93978 252.976C6.67287 250.946 8.99573 249.112 11.762 248.841ZM11.8139 246.333C11.7773 246.349 11.7575 246.383 11.762 246.435C8.99571 246.163 6.67287 244.33 4.93978 242.3C4.5074 241.767 4.10829 241.202 3.74243 240.603C3.24354 239.805 2.84442 238.957 2.64487 238.059C2.54509 237.66 2.4952 237.261 2.4952 236.862V236.812C2.4952 236.679 2.51183 236.529 2.54509 236.363C2.54509 236.296 2.56172 236.213 2.59498 236.113H2.64487C2.7779 236.047 2.91094 235.997 3.04398 235.964C3.14376 235.964 3.22691 235.947 3.29343 235.914C3.49299 235.881 3.67591 235.847 3.84221 235.814C4.30785 235.781 4.75685 235.797 5.18923 235.864C6.93536 236.113 8.48193 237.111 9.47972 238.558C9.87883 239.107 10.2281 239.705 10.5274 240.354C10.7935 241.019 11.0097 241.701 11.176 242.399C11.4674 243.695 11.6801 245.006 11.8139 246.333ZM174.976 11.4818C174.97 11.4901 174.965 11.4999 174.963 11.5114C174.942 11.5729 174.964 11.6428 175.003 11.7108C175.007 11.744 175.01 11.7773 175.013 11.8106C173.649 11.6776 172.302 11.4614 170.972 11.162C170.273 10.9957 169.592 10.7796 168.926 10.5135C168.278 10.2141 167.679 9.86492 167.13 9.4658C165.684 8.46801 164.686 6.92144 164.436 5.17531C164.37 4.74294 164.353 4.29393 164.386 3.8283C164.42 3.662 164.453 3.47907 164.486 3.27951C164.519 3.21299 164.536 3.12984 164.536 3.03006C164.569 2.89703 164.619 2.76399 164.686 2.63095V2.58106C164.786 2.5478 164.869 2.53117 164.935 2.53117C165.102 2.49791 165.251 2.48128 165.384 2.48128H165.434C165.833 2.48128 166.232 2.53117 166.631 2.63095C167.529 2.83051 168.378 3.22962 169.176 3.72852C169.774 4.09437 170.34 4.49349 170.872 4.92586C172.837 6.60305 174.617 8.83257 174.976 11.4818ZM177.444 11.4827C177.803 8.83307 179.583 6.60324 181.548 4.92586C182.081 4.49349 182.646 4.09437 183.245 3.72852C184.043 3.22962 184.891 2.83051 185.789 2.63095C186.188 2.53117 186.587 2.48128 186.986 2.48128H187.036C187.169 2.48128 187.319 2.49791 187.485 2.53117C187.552 2.53117 187.635 2.5478 187.735 2.58106V2.63095C187.801 2.76399 187.851 2.89703 187.884 3.03006C187.884 3.12984 187.901 3.21299 187.934 3.27951C187.967 3.47907 188.001 3.662 188.034 3.8283C188.067 4.29393 188.051 4.74294 187.984 5.17531C187.735 6.92144 186.737 8.46801 185.29 9.4658C184.741 9.86492 184.143 10.2141 183.494 10.5135C182.829 10.7796 182.147 10.9957 181.449 11.162C180.118 11.4614 178.771 11.6776 177.408 11.8106C177.411 11.7767 177.414 11.743 177.417 11.7092C177.456 11.6417 177.477 11.5724 177.457 11.5114C177.454 11.5003 177.45 11.4908 177.444 11.4827ZM340.658 246.435C340.662 246.383 340.643 246.349 340.606 246.333C340.74 245.006 340.953 243.695 341.244 242.399C341.411 241.701 341.627 241.019 341.893 240.354C342.192 239.705 342.542 239.107 342.941 238.558C343.938 237.111 345.485 236.113 347.231 235.864C347.497 235.831 347.763 235.814 348.029 235.814H348.578C348.744 235.847 348.927 235.881 349.127 235.914C349.193 235.947 349.277 235.964 349.376 235.964C349.509 235.997 349.642 236.047 349.775 236.113H349.825C349.859 236.213 349.875 236.296 349.875 236.363C349.908 236.529 349.925 236.679 349.925 236.812V236.862C349.925 237.261 349.875 237.66 349.775 238.059C349.576 238.957 349.177 239.805 348.678 240.603C348.312 241.202 347.913 241.767 347.481 242.3C345.747 244.33 343.424 246.164 340.658 246.435ZM340.606 248.943C340.643 248.927 340.662 248.893 340.658 248.841C343.424 249.112 345.747 250.946 347.481 252.976C347.913 253.508 348.312 254.074 348.678 254.672C349.177 255.47 349.576 256.319 349.775 257.217C349.875 257.616 349.925 258.015 349.925 258.414V258.464C349.925 258.597 349.908 258.746 349.875 258.913C349.875 258.979 349.859 259.062 349.825 259.162H349.775C349.642 259.229 349.509 259.279 349.376 259.312C349.277 259.312 349.193 259.329 349.127 259.362C348.981 259.386 348.844 259.41 348.715 259.435C348.668 259.444 348.623 259.453 348.578 259.462C348.112 259.495 347.663 259.478 347.231 259.412C345.485 259.162 343.938 258.164 342.941 256.718C342.542 256.169 342.192 255.57 341.893 254.922C341.627 254.256 341.411 253.575 341.244 252.876C340.953 251.581 340.74 250.27 340.606 248.943ZM188.283 475.633C187.136 475.333 185.938 475.084 184.741 475.084C183.943 475.084 183.144 475.184 182.396 475.383C181.099 475.732 179.902 476.431 178.904 477.229C178.76 477.359 178.611 477.485 178.463 477.61C178.1 477.917 177.741 478.221 177.457 478.576C177.158 478.909 176.908 479.258 176.709 479.624C176.509 480.023 176.36 480.422 176.21 480.871C176.06 480.422 175.911 480.023 175.711 479.624C175.511 479.258 175.262 478.909 174.963 478.576C174.679 478.221 174.32 477.917 173.956 477.61C173.809 477.485 173.66 477.359 173.516 477.229C172.518 476.431 171.321 475.732 170.024 475.383C169.275 475.184 168.477 475.084 167.679 475.084C166.481 475.084 165.284 475.333 164.137 475.633C163.039 475.932 161.941 476.281 160.844 476.68C160.112 476.963 159.38 477.251 158.648 477.54C157.185 478.116 155.722 478.693 154.258 479.225C151.964 480.123 149.569 480.871 147.174 481.32C145.977 481.52 144.829 481.619 143.632 481.47C142.435 481.37 141.187 481.071 140.04 480.622C138.909 480.123 137.812 479.557 136.747 478.925C136.448 478.749 136.153 478.572 135.86 478.396C135.075 477.927 134.303 477.465 133.505 477.03C132.357 476.381 131.21 475.832 129.962 475.433C128.865 475.084 127.767 474.785 126.67 474.585L126.669 474.585C125.522 474.435 124.375 474.286 123.227 474.336C121.98 474.385 120.733 474.585 119.535 474.785C117.191 475.283 114.896 476.032 112.651 476.83C110.256 477.678 107.861 478.526 105.367 478.975C104.702 479.075 104.053 479.175 103.421 479.275C103.022 479.341 102.623 479.363 102.224 479.385C102.024 479.397 101.825 479.408 101.625 479.424C100.528 479.524 99.43 479.474 98.3325 479.374C97.0852 479.225 95.838 479.075 94.6406 478.776C93.4433 478.526 92.2959 478.227 91.1983 477.728C90.5996 477.479 90.0009 477.229 89.4023 476.93C88.9034 476.664 88.4211 476.398 87.9555 476.132C87.3817 475.832 86.8205 475.508 86.2592 475.184C85.698 474.859 85.1367 474.535 84.563 474.236C83.9976 473.903 83.4155 473.604 82.8169 473.338C82.6339 473.255 82.451 473.166 82.2681 473.077C81.9022 472.9 81.5364 472.722 81.1705 472.589C79.7736 472.041 78.3268 471.542 76.8301 471.342C73.8368 470.943 70.8933 471.392 67.9498 471.991C66.8522 472.24 65.7048 472.54 64.6072 472.839C63.4764 473.205 62.3622 473.604 61.2646 474.036C60.3769 474.384 59.4967 474.746 58.6152 475.109C57.218 475.684 55.8177 476.26 54.3799 476.78L54.3793 476.78C53.232 477.179 52.0848 477.578 50.8876 477.828C49.7402 478.027 48.5428 478.177 47.3455 478.177H46.2978C45.6991 478.177 45.0506 478.027 44.4519 477.878C43.8033 477.678 43.1548 477.429 42.5561 477.129C41.5427 476.665 40.6007 476.129 39.6395 475.582C39.465 475.483 39.29 475.383 39.1137 475.283C38.0827 474.685 37.035 474.119 35.9707 473.587C34.8232 472.989 33.576 472.54 32.3786 472.14C31.78 471.941 31.1813 471.775 30.5826 471.642L29.5848 471.442C29.352 471.375 29.1192 471.326 28.8864 471.292C28.2877 471.193 27.6392 471.093 26.9906 471.043C26.3919 470.943 25.7434 470.893 25.1447 470.893C24.7456 470.86 24.3465 470.843 23.9473 470.843H22.9994L21.1036 470.943C20.9706 470.943 20.8376 470.96 20.7045 470.993C20.5382 471.026 20.4717 470.926 20.505 470.694C20.4052 470.361 20.2888 470.045 20.1557 469.746C19.8897 469.18 19.5737 468.632 19.2078 468.099C18.8087 467.501 18.393 466.902 17.9606 466.303C17.1624 465.306 16.3641 464.358 15.516 463.36C14.5182 462.212 13.5703 461.015 13.0216 459.568C12.7222 458.82 12.5725 458.022 12.5227 457.223C12.5227 456.375 12.6723 455.527 12.8719 454.729C13.3209 453.332 13.9695 451.985 14.7178 450.738C15.3664 449.64 16.0149 448.593 16.7134 447.545C17.1173 446.974 17.5252 446.407 17.9326 445.84C18.9843 444.377 20.033 442.919 21.0039 441.409C21.6524 440.411 22.301 439.363 22.8498 438.265C23.7478 436.42 24.4462 434.474 24.4462 432.379C24.4462 428.836 22.3509 425.743 20.4052 422.949C19.6568 421.852 18.9085 420.754 18.2101 419.607C17.5615 418.509 16.9628 417.412 16.4639 416.264C16.2311 415.699 16.0315 415.117 15.8652 414.518C15.6657 413.87 15.4661 413.221 15.3664 412.572C15.2666 411.874 15.1834 411.176 15.1169 410.477C15.0835 410.076 15.0948 409.653 15.106 409.237C15.1115 409.032 15.1169 408.829 15.1169 408.631C15.1169 408.482 15.1294 408.319 15.1419 408.157C15.1543 407.995 15.1668 407.833 15.1668 407.683L15.2666 406.885C15.3331 406.32 15.4162 405.738 15.516 405.139C15.7156 403.942 16.0149 402.761 16.414 401.597C17.1624 399.252 18.1103 396.957 19.158 394.712C19.5423 393.866 19.9414 393.028 20.3411 392.189C20.9791 390.849 21.6184 389.507 22.2012 388.127C22.2886 387.903 22.3779 387.682 22.4669 387.461C22.835 386.548 23.1977 385.649 23.3986 384.684C23.4983 384.318 23.5815 383.969 23.648 383.637C23.8476 382.788 23.9473 381.94 23.9473 381.092C23.9972 379.496 23.7478 377.899 23.2489 376.353C22.5005 374.108 21.3032 372.062 20.0061 370.067C19.2577 368.969 18.5094 367.871 17.8109 366.774C17.4617 366.225 17.1125 365.626 16.8131 365.028C16.5637 364.479 16.3143 363.88 16.1147 363.332C15.6158 362.084 15.3664 360.787 15.2666 359.49C15.2333 358.858 15.2167 358.226 15.2167 357.594C15.2167 357.187 15.2628 356.758 15.3079 356.336C15.3293 356.137 15.3504 355.94 15.3664 355.748C15.4661 355.183 15.5825 354.634 15.7156 354.102C16.3143 351.657 17.4118 349.363 18.5094 347.118C18.8956 346.272 19.3021 345.433 19.7089 344.593C20.4058 343.154 21.1038 341.713 21.7023 340.233C22.6502 337.938 23.2489 335.543 23.3487 333.049C23.3986 331.901 23.2489 330.704 23.0493 329.556C22.8997 328.409 22.6003 327.311 22.2012 326.214C21.5028 323.969 20.4551 321.824 19.4074 319.728L19.4071 319.728C18.8086 318.58 18.21 317.433 17.7112 316.236C17.2123 315.105 16.7799 313.941 16.414 312.744C15.8154 310.898 15.6657 308.952 15.965 307.006C16.2145 305.61 16.7134 304.213 17.312 302.915C17.8886 301.71 18.5202 300.546 19.1491 299.387C19.7173 298.339 20.2833 297.296 20.8043 296.23C20.929 295.981 21.0537 295.719 21.1785 295.457C21.3032 295.195 21.4279 294.933 21.5526 294.684C21.6691 294.334 21.8025 294.002 21.9331 293.677C22.0263 293.445 22.1181 293.216 22.2012 292.987C22.75 291.291 23.2489 289.495 22.9495 287.699C22.4795 285.114 20.9908 282.839 19.5683 280.665C19.4811 280.531 19.3941 280.398 19.3076 280.266C19.1531 280.028 18.9958 279.793 18.839 279.559C18.3376 278.811 17.8418 278.07 17.4617 277.272C16.9628 276.175 16.7134 275.027 16.7134 273.83C16.7134 272.732 16.9129 271.585 17.2123 270.537C17.6114 269.34 18.0604 268.192 18.5593 267.045C19.0171 266.061 19.517 265.108 20.0155 264.158C20.6033 263.037 21.1894 261.92 21.7023 260.759C22.2012 259.711 22.6502 258.564 22.8498 257.366C23.199 255.022 22.301 252.777 20.8043 250.981C19.9063 249.933 18.8586 249.035 17.7112 248.287C17.3453 248.054 16.9628 247.838 16.5637 247.638C16.9628 247.438 17.3453 247.222 17.7112 246.989C18.8586 246.241 19.9063 245.343 20.8043 244.295C22.301 242.499 23.199 240.254 22.8498 237.91C22.6502 236.712 22.2012 235.565 21.7023 234.517C21.1601 233.29 20.5362 232.095 19.9148 230.906C19.4499 230.015 18.9863 229.128 18.5593 228.231C18.0604 227.084 17.6114 225.936 17.2123 224.739C16.9129 223.691 16.7134 222.544 16.7134 221.446C16.7134 220.249 16.9628 219.101 17.4617 218.004C17.9292 217.022 18.5719 216.084 19.1847 215.19C19.2258 215.13 19.2668 215.07 19.3076 215.01C19.3941 214.878 19.4811 214.745 19.5683 214.611C20.9908 212.437 22.4795 210.162 22.9495 207.577C23.2489 205.781 22.75 203.985 22.2012 202.289C22.1181 202.06 22.0264 201.831 21.9332 201.599C21.8026 201.274 21.6691 200.942 21.5526 200.592C21.4279 200.343 21.3032 200.081 21.1785 199.819C21.0537 199.557 20.929 199.295 20.8043 199.046C20.2833 197.98 19.7174 196.937 19.1491 195.889C18.5203 194.73 17.8886 193.566 17.312 192.361C16.7134 191.063 16.2145 189.666 15.965 188.27C15.6657 186.324 15.8154 184.378 16.414 182.532C16.7799 181.335 17.2123 180.171 17.7112 179.04C18.21 177.843 18.8086 176.695 19.4073 175.548L19.4074 175.548C20.4551 173.452 21.5028 171.307 22.2012 169.062C22.6003 167.965 22.8997 166.867 23.0493 165.72C23.2489 164.572 23.3986 163.375 23.3487 162.227C23.2489 159.733 22.6502 157.338 21.7023 155.043C21.1038 153.563 20.4058 152.122 19.7089 150.683C19.3021 149.843 18.8956 149.004 18.5094 148.158C17.4118 145.913 16.3143 143.619 15.7156 141.174C15.5825 140.642 15.4661 140.093 15.3664 139.528C15.3486 139.296 15.3245 139.072 15.3008 138.851C15.258 138.452 15.2167 138.067 15.2167 137.682C15.2167 137.05 15.2333 136.418 15.2666 135.786C15.3664 134.489 15.6158 133.192 16.1147 131.944C16.3143 131.396 16.5637 130.797 16.8131 130.248C17.1125 129.65 17.4617 129.051 17.8109 128.502C18.5093 127.405 19.2575 126.307 20.0058 125.21L20.0061 125.209C21.3032 123.214 22.5005 121.168 23.2489 118.923C23.7478 117.377 23.9972 115.78 23.9473 114.184C23.9473 113.336 23.8476 112.488 23.648 111.639C23.5815 111.307 23.4983 110.958 23.3986 110.592C23.1977 109.627 22.835 108.728 22.4668 107.815C22.3779 107.594 22.2886 107.373 22.2012 107.149C21.6184 105.769 20.9791 104.427 20.3411 103.087C19.9414 102.248 19.5423 101.41 19.158 100.564C18.1103 98.3189 17.1624 96.024 16.414 93.6792C16.0149 92.5151 15.7156 91.3344 15.516 90.1371C15.4162 89.5384 15.3331 88.9564 15.2666 88.391L15.1668 87.5927C15.1668 87.4431 15.1543 87.2809 15.1419 87.1188C15.1294 86.9566 15.1169 86.7945 15.1169 86.6448C15.1169 86.4471 15.1115 86.2439 15.106 86.0389C15.0948 85.6232 15.0835 85.1999 15.1169 84.7989C15.1834 84.1005 15.2666 83.402 15.3664 82.7036C15.4661 82.055 15.6657 81.4065 15.8652 80.7579L15.8652 80.7579C16.0315 80.1592 16.2311 79.5772 16.4639 79.0117C16.9628 77.8643 17.5615 76.7667 18.2101 75.6692C18.9085 74.5217 19.6568 73.4242 20.4051 72.3266L20.4052 72.3266C22.3509 69.5328 24.4462 66.4396 24.4462 62.8975C24.4462 60.8021 23.7478 58.8564 22.8498 57.0105C22.301 55.9129 21.6524 54.8653 21.0039 53.8675C20.0329 52.3572 18.9842 50.8987 17.9325 49.436C17.5252 48.8694 17.1173 48.3022 16.7134 47.7311C16.0149 46.6834 15.3664 45.6357 14.7178 44.5382C13.9695 43.2909 13.3209 41.9439 12.8719 40.547C12.6723 39.7488 12.5227 38.9007 12.5227 38.0525C12.5725 37.2543 12.7222 36.4561 13.0216 35.7077C13.5703 34.2609 14.5182 33.0636 15.516 31.9161C16.3641 30.9183 17.1624 29.9704 17.9606 28.9727C18.393 28.374 18.8087 27.7753 19.2078 27.1766C19.5737 26.6445 19.8897 26.0957 20.1557 25.5303C20.2888 25.231 20.4052 24.915 20.505 24.5824C20.4717 24.3496 20.5382 24.2498 20.7045 24.2831C20.8376 24.3163 20.9706 24.3329 21.1036 24.3329L22.9994 24.4327H23.9473C24.3465 24.4327 24.7456 24.4161 25.1447 24.3828C25.7434 24.3828 26.3919 24.3329 26.9906 24.2332C27.6392 24.1833 28.2877 24.0835 28.8864 23.9837C29.1192 23.9505 29.352 23.9006 29.5848 23.834L30.5826 23.6345C31.1813 23.5015 31.78 23.3352 32.3786 23.1356C33.576 22.7365 34.8232 22.2875 35.9707 21.6888C37.035 21.1566 38.0827 20.5912 39.1137 19.9926C39.2898 19.893 39.4648 19.7935 39.6391 19.6943C40.6005 19.1473 41.5425 18.6112 42.5561 18.1467C43.1548 17.8473 43.8033 17.5979 44.4519 17.3983C45.0506 17.2486 45.6991 17.099 46.2978 17.099H47.3455C48.5428 17.099 49.7402 17.2486 50.8876 17.4482C52.085 17.6976 53.2324 18.0968 54.3799 18.4959C55.8177 19.0159 57.218 19.5923 58.6153 20.1674C59.4967 20.5302 60.377 20.8924 61.2646 21.2398C62.3622 21.6722 63.4764 22.0713 64.6072 22.4371C65.7048 22.7365 66.8522 23.0358 67.9498 23.2853C70.8933 23.8839 73.8368 24.3329 76.8301 23.9338C78.3268 23.7343 79.7736 23.2354 81.1705 22.6866C81.5364 22.5535 81.9022 22.3762 82.2681 22.1988C82.451 22.1101 82.6339 22.0214 82.8169 21.9382C83.4155 21.6722 83.9976 21.3728 84.563 21.0402C85.1367 20.7409 85.698 20.4166 86.2592 20.0923C86.8205 19.7681 87.3817 19.4438 87.9555 19.1444C88.4211 18.8784 88.9034 18.6123 89.4023 18.3462C90.0009 18.0469 90.5996 17.7974 91.1983 17.548C92.2959 17.0491 93.4433 16.7498 94.6406 16.5003C95.838 16.201 97.0852 16.0513 98.3325 15.9016C99.43 15.8019 100.528 15.752 101.625 15.8517C101.825 15.8684 102.024 15.8795 102.224 15.8905C102.623 15.9127 103.022 15.9349 103.421 16.0014C104.053 16.1012 104.702 16.201 105.367 16.3007C107.861 16.7497 110.256 17.5979 112.651 18.446C114.896 19.2442 117.191 19.9926 119.535 20.4915C120.733 20.691 121.98 20.8906 123.227 20.9405C124.375 20.9904 125.522 20.8407 126.67 20.691C127.767 20.4915 128.865 20.1921 129.962 19.8429C131.21 19.4438 132.357 18.895 133.505 18.2464C134.303 17.8108 135.075 17.3488 135.86 16.8796C136.153 16.7039 136.448 16.5273 136.747 16.3506C137.812 15.7187 138.909 15.1533 140.04 14.6544C141.187 14.2054 142.435 13.9061 143.632 13.8063C144.829 13.6566 145.977 13.7564 147.174 13.9559C149.569 14.4049 151.964 15.1533 154.258 16.0513C155.722 16.5835 157.185 17.16 158.649 17.7365C159.381 18.0247 160.112 18.313 160.844 18.5957C161.941 18.9948 163.039 19.344 164.137 19.6433C165.284 19.9427 166.481 20.1921 167.679 20.1921C168.477 20.1921 169.275 20.0923 170.024 19.8928C171.321 19.5436 172.518 18.8451 173.516 18.0469C173.66 17.917 173.809 17.7914 173.956 17.6663C174.32 17.3587 174.679 17.0545 174.963 16.6999C175.262 16.3673 175.511 16.018 175.711 15.6522C175.911 15.2531 176.06 14.854 176.21 14.4049C176.36 14.854 176.509 15.2531 176.709 15.6522C176.908 16.018 177.158 16.3673 177.457 16.6999C177.741 17.0545 178.1 17.3587 178.463 17.6663C178.611 17.7914 178.76 17.917 178.904 18.0469C179.902 18.8451 181.099 19.5436 182.396 19.8928C183.144 20.0923 183.943 20.1921 184.741 20.1921C185.938 20.1921 187.136 19.9427 188.283 19.6433C189.381 19.344 190.478 18.9948 191.576 18.5957C192.308 18.3129 193.039 18.0247 193.771 17.7364C195.234 17.1599 196.698 16.5834 198.161 16.0513C200.456 15.1533 202.851 14.4049 205.245 13.9559C206.443 13.7564 207.59 13.6566 208.788 13.8063C209.985 13.9061 211.232 14.2054 212.38 14.6544C213.51 15.1533 214.608 15.7187 215.672 16.3506C215.971 16.5273 216.267 16.7039 216.56 16.8796C217.344 17.3488 218.117 17.8108 218.915 18.2464C220.063 18.895 221.21 19.4438 222.457 19.8429C223.555 20.1921 224.652 20.4915 225.75 20.691C226.897 20.8407 228.045 20.9904 229.192 20.9405C230.44 20.8906 231.687 20.691 232.884 20.4915C235.229 19.9926 237.524 19.2442 239.769 18.446C242.164 17.5979 244.558 16.7497 247.053 16.3007C247.718 16.201 248.367 16.1012 248.999 16.0014C249.398 15.9349 249.797 15.9127 250.196 15.8905C250.395 15.8795 250.595 15.8684 250.795 15.8517C251.892 15.752 252.99 15.8019 254.087 15.9016C255.334 16.0513 256.582 16.201 257.779 16.5003C258.976 16.7498 260.124 17.0491 261.221 17.548C261.82 17.7974 262.419 18.0469 263.017 18.3462C263.516 18.6123 263.999 18.8784 264.464 19.1444C265.038 19.4438 265.599 19.7681 266.16 20.0923C266.722 20.4166 267.283 20.7409 267.857 21.0402C268.422 21.3728 269.004 21.6722 269.603 21.9382C269.786 22.0214 269.969 22.1101 270.152 22.1988C270.518 22.3762 270.883 22.5536 271.249 22.6866C272.646 23.2354 274.093 23.7343 275.59 23.9338C278.583 24.3329 281.526 23.8839 284.47 23.2853C285.567 23.0358 286.715 22.7365 287.813 22.4371C288.943 22.0713 290.058 21.6722 291.155 21.2398C292.043 20.8924 292.923 20.5302 293.804 20.1674C295.202 19.5923 296.602 19.0159 298.04 18.4959C299.187 18.0968 300.335 17.6976 301.532 17.4482C302.68 17.2486 303.877 17.099 305.074 17.099H306.122C306.721 17.099 307.369 17.2486 307.968 17.3983C308.616 17.5979 309.265 17.8473 309.864 18.1467C310.877 18.6112 311.819 19.1472 312.78 19.6941C312.955 19.7934 313.13 19.893 313.306 19.9926C314.337 20.5912 315.385 21.1566 316.449 21.6888C317.596 22.2875 318.844 22.7365 320.041 23.1356C320.64 23.3352 321.238 23.5015 321.837 23.6345L322.835 23.834C323.068 23.9006 323.3 23.9505 323.533 23.9837C324.132 24.0835 324.781 24.1833 325.429 24.2332C326.028 24.3329 326.676 24.3828 327.275 24.3828C327.674 24.4161 328.073 24.4327 328.472 24.4327H329.42L331.316 24.3329C331.449 24.3329 331.582 24.3163 331.715 24.2831C331.881 24.2498 331.948 24.3496 331.915 24.5824C332.014 24.915 332.131 25.231 332.264 25.5303C332.53 26.0957 332.846 26.6445 333.212 27.1766C333.611 27.7753 334.027 28.374 334.459 28.9727C335.257 29.9704 336.056 30.9183 336.904 31.9161C337.901 33.0636 338.849 34.2609 339.398 35.7077C339.697 36.4561 339.847 37.2543 339.897 38.0525C339.897 38.9007 339.747 39.7488 339.548 40.547C339.099 41.9439 338.45 43.2909 337.702 44.5382C337.053 45.6357 336.405 46.6834 335.706 47.7311C335.302 48.3023 334.894 48.8697 334.487 49.4364C333.435 50.8989 332.387 52.3573 331.416 53.8675C330.767 54.8653 330.119 55.9129 329.57 57.0105C328.672 58.8564 327.973 60.8021 327.973 62.8975C327.973 66.4396 330.069 69.5328 332.014 72.3266C332.763 73.4241 333.511 74.5217 334.21 75.6692C334.858 76.7667 335.457 77.8643 335.956 79.0117C336.189 79.5772 336.388 80.1592 336.554 80.7579C336.754 81.4064 336.954 82.055 337.053 82.7036C337.153 83.402 337.236 84.1005 337.303 84.7989C337.336 85.1999 337.325 85.6232 337.314 86.0389C337.308 86.2439 337.303 86.4471 337.303 86.6448C337.303 86.7945 337.29 86.9566 337.278 87.1188C337.265 87.2809 337.253 87.4431 337.253 87.5927L337.153 88.391C337.087 88.9564 337.003 89.5384 336.904 90.1371C336.704 91.3344 336.405 92.5151 336.006 93.6792C335.257 96.024 334.309 98.3189 333.262 100.564C332.877 101.409 332.478 102.247 332.079 103.087C331.441 104.426 330.801 105.769 330.219 107.149C330.131 107.373 330.042 107.594 329.953 107.815C329.585 108.728 329.222 109.627 329.021 110.592C328.921 110.958 328.838 111.307 328.772 111.639C328.572 112.488 328.472 113.336 328.472 114.184C328.422 115.78 328.672 117.377 329.171 118.923C329.919 121.168 331.116 123.214 332.414 125.209L332.414 125.21C333.162 126.307 333.91 127.405 334.609 128.502C334.958 129.051 335.307 129.65 335.607 130.248C335.856 130.797 336.105 131.396 336.305 131.944C336.804 133.192 337.053 134.489 337.153 135.786C337.186 136.418 337.203 137.05 337.203 137.682C337.203 138.067 337.162 138.452 337.119 138.851C337.095 139.072 337.071 139.297 337.053 139.528C336.954 140.093 336.837 140.642 336.704 141.174C336.105 143.619 335.008 145.913 333.91 148.158C333.524 149.004 333.118 149.843 332.711 150.683C332.014 152.122 331.316 153.563 330.717 155.043C329.77 157.338 329.171 159.733 329.071 162.227C329.021 163.375 329.171 164.572 329.37 165.72C329.52 166.867 329.819 167.965 330.219 169.062C330.917 171.307 331.965 173.452 333.012 175.548L333.013 175.549C333.611 176.696 334.21 177.843 334.709 179.04C335.207 180.171 335.64 181.335 336.006 182.532C336.604 184.378 336.754 186.324 336.455 188.27C336.205 189.666 335.706 191.063 335.108 192.361C334.531 193.566 333.9 194.73 333.271 195.889C332.702 196.937 332.136 197.98 331.615 199.046C331.491 199.295 331.366 199.557 331.241 199.82C331.116 200.081 330.992 200.343 330.867 200.592C330.751 200.942 330.617 201.274 330.487 201.599C330.393 201.831 330.302 202.06 330.219 202.289C329.67 203.985 329.171 205.781 329.47 207.577C329.94 210.162 331.429 212.438 332.851 214.612C332.939 214.745 333.026 214.878 333.112 215.01L333.235 215.19C333.848 216.084 334.491 217.022 334.958 218.004C335.457 219.101 335.706 220.249 335.706 221.446C335.706 222.544 335.507 223.691 335.207 224.739C334.808 225.936 334.359 227.084 333.86 228.231C333.433 229.128 332.97 230.016 332.505 230.906C331.883 232.096 331.26 233.29 330.717 234.517C330.219 235.565 329.77 236.712 329.57 237.91C329.221 240.254 330.119 242.499 331.615 244.295C332.513 245.343 333.561 246.241 334.709 246.989C335.074 247.222 335.457 247.438 335.856 247.638C335.457 247.838 335.074 248.054 334.709 248.287C333.561 249.035 332.513 249.933 331.615 250.981C330.119 252.777 329.221 255.022 329.57 257.366C329.77 258.564 330.219 259.711 330.717 260.759C331.23 261.92 331.816 263.037 332.404 264.157C332.903 265.108 333.403 266.061 333.86 267.045C334.359 268.192 334.808 269.34 335.207 270.537C335.507 271.585 335.706 272.732 335.706 273.83C335.706 275.027 335.457 276.175 334.958 277.272C334.578 278.07 334.082 278.811 333.581 279.559C333.424 279.793 333.267 280.028 333.112 280.266C333.026 280.398 332.939 280.531 332.851 280.664C331.429 282.838 329.94 285.114 329.47 287.699C329.171 289.495 329.67 291.291 330.219 292.987C330.302 293.216 330.393 293.445 330.487 293.677C330.617 294.002 330.751 294.334 330.867 294.684C330.992 294.933 331.116 295.195 331.241 295.457C331.366 295.719 331.491 295.981 331.615 296.23C332.136 297.296 332.702 298.339 333.271 299.387C333.9 300.546 334.531 301.71 335.108 302.915C335.706 304.213 336.205 305.61 336.455 307.006C336.754 308.952 336.604 310.898 336.006 312.744C335.64 313.941 335.207 315.105 334.709 316.236C334.21 317.433 333.611 318.58 333.013 319.727L333.012 319.728C331.965 321.824 330.917 323.969 330.219 326.214C329.819 327.311 329.52 328.409 329.37 329.556C329.171 330.704 329.021 331.901 329.071 333.049C329.171 335.543 329.77 337.938 330.717 340.233C331.316 341.713 332.014 343.154 332.711 344.593C333.118 345.433 333.524 346.272 333.91 347.118C335.008 349.363 336.105 351.657 336.704 354.102C336.837 354.634 336.954 355.183 337.053 355.748C337.069 355.94 337.09 356.137 337.112 356.336C337.157 356.758 337.203 357.187 337.203 357.594C337.203 358.226 337.186 358.858 337.153 359.49C337.053 360.787 336.804 362.084 336.305 363.332C336.105 363.88 335.856 364.479 335.607 365.028C335.307 365.626 334.958 366.225 334.609 366.774C333.91 367.871 333.162 368.969 332.414 370.067C331.116 372.062 329.919 374.108 329.171 376.353C328.672 377.899 328.422 379.496 328.472 381.092C328.472 381.94 328.572 382.788 328.772 383.637C328.838 383.969 328.921 384.318 329.021 384.684C329.222 385.649 329.585 386.548 329.953 387.461C330.042 387.682 330.131 387.903 330.219 388.127C330.801 389.507 331.441 390.85 332.079 392.189C332.478 393.029 332.877 393.867 333.262 394.712C334.309 396.957 335.257 399.252 336.006 401.597C336.405 402.761 336.704 403.942 336.904 405.139C337.003 405.738 337.087 406.32 337.153 406.885L337.253 407.683C337.253 407.833 337.265 407.995 337.278 408.157C337.29 408.319 337.303 408.482 337.303 408.631C337.303 408.829 337.308 409.032 337.314 409.237C337.325 409.653 337.336 410.076 337.303 410.477C337.236 411.176 337.153 411.874 337.053 412.572C336.954 413.221 336.754 413.87 336.554 414.518C336.388 415.117 336.189 415.699 335.956 416.264C335.457 417.412 334.858 418.509 334.21 419.607C333.511 420.754 332.763 421.852 332.014 422.949C330.069 425.743 327.973 428.836 327.973 432.379C327.973 434.474 328.672 436.42 329.57 438.265C330.119 439.363 330.767 440.411 331.416 441.409C332.387 442.919 333.435 444.377 334.487 445.84C334.894 446.406 335.302 446.974 335.706 447.545C336.405 448.593 337.053 449.64 337.702 450.738C338.45 451.985 339.099 453.332 339.548 454.729C339.747 455.527 339.897 456.375 339.897 457.223C339.847 458.022 339.697 458.82 339.398 459.568C338.849 461.015 337.901 462.212 336.904 463.36C336.056 464.358 335.257 465.306 334.459 466.303C334.027 466.902 333.611 467.501 333.212 468.099C332.846 468.632 332.53 469.18 332.264 469.746C332.131 470.045 332.014 470.361 331.915 470.694C331.948 470.926 331.881 471.026 331.715 470.993C331.582 470.96 331.449 470.943 331.316 470.943L329.42 470.843H328.472C328.073 470.843 327.674 470.86 327.275 470.893C326.676 470.893 326.028 470.943 325.429 471.043C324.781 471.093 324.132 471.193 323.533 471.292C323.3 471.326 323.068 471.375 322.835 471.442L321.837 471.642C321.238 471.775 320.64 471.941 320.041 472.14C318.844 472.54 317.596 472.989 316.449 473.587C315.385 474.119 314.337 474.685 313.306 475.283C313.13 475.383 312.954 475.483 312.78 475.582C311.819 476.129 310.877 476.665 309.864 477.129C309.265 477.429 308.616 477.678 307.968 477.878C307.369 478.027 306.721 478.177 306.122 478.177H305.074C303.877 478.177 302.68 478.027 301.532 477.828C300.335 477.578 299.188 477.179 298.04 476.78L298.04 476.78C296.602 476.26 295.202 475.684 293.805 475.109C292.923 474.746 292.043 474.384 291.155 474.036C290.058 473.604 288.943 473.205 287.813 472.839C286.715 472.54 285.567 472.24 284.47 471.991C281.526 471.392 278.583 470.943 275.59 471.342C274.093 471.542 272.646 472.041 271.249 472.589C270.883 472.722 270.518 472.9 270.152 473.077C269.969 473.166 269.786 473.255 269.603 473.338C269.004 473.604 268.422 473.903 267.857 474.236C267.283 474.535 266.722 474.859 266.16 475.184C265.599 475.508 265.038 475.832 264.464 476.132C263.999 476.398 263.516 476.664 263.017 476.93C262.419 477.229 261.82 477.479 261.221 477.728C260.124 478.227 258.976 478.526 257.779 478.776C256.582 479.075 255.334 479.225 254.087 479.374C252.99 479.474 251.892 479.524 250.795 479.424C250.595 479.408 250.395 479.397 250.196 479.385C249.797 479.363 249.398 479.341 248.999 479.275C248.367 479.175 247.718 479.075 247.053 478.975C244.558 478.526 242.164 477.678 239.769 476.83C237.524 476.032 235.229 475.283 232.884 474.785C231.687 474.585 230.44 474.385 229.192 474.336C228.045 474.286 226.898 474.435 225.751 474.585L225.75 474.585C224.652 474.785 223.555 475.084 222.457 475.433C221.21 475.832 220.063 476.381 218.915 477.03C218.117 477.465 217.344 477.927 216.56 478.396C216.266 478.572 215.971 478.749 215.672 478.925C214.608 479.557 213.51 480.123 212.38 480.622C211.232 481.071 209.985 481.37 208.788 481.47C207.59 481.619 206.443 481.52 205.245 481.32C202.851 480.871 200.456 480.123 198.161 479.225C196.698 478.693 195.235 478.116 193.771 477.54C193.04 477.251 192.308 476.963 191.576 476.68C190.478 476.281 189.381 475.932 188.283 475.633ZM334.06 474.535V474.336C334.027 474.269 334.027 474.236 334.06 474.236H334.11C334.309 474.302 334.509 474.352 334.709 474.385C334.941 474.452 335.158 474.518 335.357 474.585C335.723 474.685 336.089 474.801 336.455 474.934C336.754 475.034 337.07 475.15 337.403 475.283C338.051 475.533 338.65 475.832 339.248 476.181C340.446 476.88 341.693 477.878 342.242 479.225C342.375 479.491 342.458 479.79 342.491 480.123C342.491 480.222 342.508 480.306 342.541 480.372C342.574 480.538 342.591 480.721 342.591 480.921H342.541C342.375 480.987 342.209 481.021 342.042 481.021C341.743 481.054 341.444 481.043 341.144 481.032C340.995 481.026 340.845 481.021 340.695 481.021C339.248 480.871 337.752 480.372 336.654 479.374C336.405 479.175 336.155 478.975 335.956 478.726C335.557 478.277 335.207 477.728 334.908 477.179C334.509 476.331 334.26 475.433 334.06 474.535ZM17.7112 474.385C17.9107 474.352 18.1103 474.302 18.3098 474.236H18.3597C18.393 474.236 18.393 474.269 18.3597 474.336V474.535C18.1602 475.433 17.9107 476.331 17.5116 477.179C17.2123 477.728 16.863 478.277 16.4639 478.726C16.2644 478.975 16.0149 479.175 15.7655 479.374C14.6679 480.372 13.1712 480.871 11.7244 481.021C11.5748 481.021 11.4251 481.026 11.2754 481.032C10.9761 481.043 10.6767 481.054 10.3774 481.021C10.2111 481.021 10.0448 480.987 9.87852 480.921H9.82863C9.82863 480.721 9.84526 480.538 9.87852 480.372C9.91178 480.306 9.92841 480.222 9.92841 480.123C9.96167 479.79 10.0448 479.491 10.1779 479.225C10.7266 477.878 11.9739 476.88 13.1712 476.181C13.7699 475.832 14.3686 475.533 15.0171 475.283C15.3497 475.15 15.6657 475.034 15.965 474.934C16.3309 474.801 16.6967 474.685 17.0626 474.585C17.2622 474.518 17.4783 474.452 17.7112 474.385ZM336.654 15.9016C337.752 14.9038 339.248 14.4049 340.695 14.2553H341.493H342.042C342.209 14.2553 342.375 14.2885 342.541 14.3551H342.591C342.591 14.5546 342.574 14.7375 342.541 14.9038C342.508 14.9704 342.491 15.0535 342.491 15.1533C342.458 15.4859 342.375 15.7852 342.242 16.0513C341.693 17.3983 340.446 18.3961 339.248 19.0946C338.65 19.4438 338.051 19.7431 337.403 19.9926C337.07 20.1256 336.754 20.242 336.455 20.3418C336.089 20.4748 335.723 20.5912 335.357 20.691C335.158 20.7575 334.941 20.8241 334.709 20.8906C334.509 20.9238 334.309 20.9737 334.11 21.0402C334.01 21.0735 333.993 21.0402 334.06 20.9405V20.7409C334.26 19.8429 334.509 18.9449 334.908 18.0968C335.207 17.548 335.557 16.9992 335.956 16.5502C336.155 16.3007 336.405 16.1012 336.654 15.9016ZM9.87852 14.3551C10.0448 14.2885 10.2111 14.2553 10.3774 14.2553H10.9262H11.7244C13.1712 14.4049 14.6679 14.9038 15.7655 15.9016C16.0149 16.1012 16.2644 16.3007 16.4639 16.5502C16.863 16.9992 17.2123 17.548 17.5116 18.0968C17.9107 18.9449 18.1602 19.8429 18.3597 20.7409V20.9405C18.4262 21.0402 18.4096 21.0735 18.3098 21.0402C18.1103 20.9737 17.9107 20.9238 17.7112 20.8906C17.4783 20.8241 17.2622 20.7575 17.0626 20.691C16.6967 20.5912 16.3309 20.4748 15.965 20.3418C15.6657 20.242 15.3497 20.1256 15.0171 19.9926C14.3686 19.7431 13.7699 19.4438 13.1712 19.0946C11.9739 18.3961 10.7266 17.3983 10.1779 16.0513C10.0448 15.7852 9.96167 15.4859 9.92841 15.1533C9.92841 15.0535 9.91178 14.9704 9.87852 14.9038C9.84526 14.7375 9.82863 14.5546 9.82863 14.3551H9.87852Z" fill="black"/>
</svg>
