<svg width="340" height="487" viewBox="0 0 340 487" fill="none" xmlns="http://www.w3.org/2000/svg">
<path fill-rule="evenodd" clip-rule="evenodd" d="M331.022 432.446C331.671 433.992 333.217 435.189 334.714 435.938C334.814 435.971 334.897 435.971 334.963 435.938C334.093 428.848 333.868 421.676 333.643 414.5C333.52 410.567 333.397 406.633 333.167 402.711C332.96 399.164 332.551 395.644 332.143 392.129C331.765 388.872 331.388 385.62 331.172 382.357C330.985 378.178 330.992 374 331 369.822C331.005 367.315 331.01 364.808 330.972 362.301C330.924 358.984 330.783 355.663 330.643 352.339C330.345 345.314 330.047 338.28 330.623 331.27C330.923 325.955 331.922 320.745 332.922 315.533C333.752 311.205 334.583 306.875 335.013 302.484C335.426 296.259 334.864 290.062 334.301 283.863C333.776 278.088 333.252 272.312 333.516 266.513C333.572 257.944 334.978 249.531 336.383 241.116C337.498 234.442 338.613 227.767 339.054 221.014C339.765 208.717 336.982 196.749 334.204 184.803C333.082 179.98 331.961 175.162 331.072 170.327C328.727 160.249 326.682 149.672 329.525 139.495C330.123 137.518 330.69 135.701 331.218 134.013C335.937 118.919 337.441 114.105 327.929 96.7396C323.838 88.2584 325.285 78.1808 328.577 69.6497C329.517 67.3803 330.814 65.0631 332.132 62.7099C336.203 55.441 340.466 47.828 334.963 40.2149C332.398 36.7861 331.394 36.5285 331.287 36.0648C331.178 35.5908 332.008 34.9013 333.067 30.3867C334.814 21.9554 331.92 12.0274 323.788 7.98634C319.498 5.19253 314.309 7.43756 310.268 9.63269C308.537 10.6449 306.772 11.7211 304.975 12.8162C291.807 20.8431 276.971 29.8873 261.825 22.2048C267.712 21.5563 286.122 18.4132 284.375 10.1316C282.031 3.4464 273.949 0.1537 267.263 0.502926C257.435 0.652595 248.754 10.5806 256.787 19.0119C246.956 19.4472 237.099 19.2495 227.235 19.0516C223.533 18.9774 219.83 18.9031 216.127 18.8622C205.7 18.5629 195.173 17.8644 184.996 15.4698C179.789 14.3861 174.806 12.5462 169.824 10.7069C165.403 9.07451 160.983 7.44253 156.409 6.33999C144.485 3.49629 131.714 4.99297 120.239 9.03402C105.671 -0.395083 78.1824 -1.64232 61.9185 3.79563C57.1999 5.14931 52.2565 7.80728 47.2597 10.494C39.3655 14.7385 31.3379 19.0548 23.8529 18.4132C23.9097 18.3469 23.9673 18.2798 24.0255 18.2119C26.4194 15.423 29.8813 11.3897 27.4948 7.73689C24.7509 3.9453 19.3129 1.50071 15.3218 4.94308C8.78625 9.88214 12.1288 14.9709 17.7663 18.6128C18.0113 18.7528 17.176 19.3593 16.5521 19.8122C16.2868 20.0049 16.0597 20.1698 15.9703 20.2591C14.1743 21.6062 12.0291 23.1028 9.88381 23.2525C10.4326 24.3002 11.9792 25.6472 13.1765 25.747C16.432 25.0071 19.1022 22.7554 21.6212 20.6313L21.7076 20.5585C31.1866 24.3501 40.5159 19.1616 48.6978 14.5717C58.6757 9.03402 69.352 4.04508 80.9263 3.64596C93.7479 3.14707 107.268 3.9453 118.992 9.48302C115.15 11.1294 104.823 15.6693 111.259 20.309C114.352 22.6538 118.044 24.3501 121.886 24.849C132.712 25.5973 129.968 16.1682 123.682 11.6283C134.707 7.83667 146.88 6.48966 158.305 8.93424C163.022 9.93205 167.519 11.6262 172.007 13.3171C174.924 14.416 177.837 15.5136 180.805 16.4177C196.52 21.4565 213.133 22.0552 229.497 22.3046C232.224 22.3315 234.95 22.3836 237.677 22.4358C245.078 22.5774 252.479 22.7191 259.88 22.3545C267.313 27.1439 275.296 29.0397 284.276 27.1938C289.165 25.9465 293.904 23.9011 298.295 21.4066C300.171 20.6024 302.642 18.9772 305.379 17.1763C312.832 12.2738 322.265 6.06895 327.081 11.5784C331.271 18.1139 330.972 26.9942 327.53 33.7792C322.291 31.135 315.008 31.4344 310.717 35.7249C306.826 40.2149 315.706 45.4034 319.597 45.7526C321.892 45.9023 324.137 44.8047 325.883 43.3579C328.128 41.6617 329.525 39.1672 330.822 36.7725C334.664 39.9156 335.811 45.7526 334.464 50.3923C333.445 53.7906 331.702 56.8192 329.957 59.8521C328.627 62.1623 327.296 64.475 326.283 66.9556C323.738 72.6929 322.491 79.0788 322.84 85.3648C323.03 90.3893 325.241 94.7531 327.458 99.1285C328.741 101.661 330.026 104.197 330.922 106.867C333.467 113.802 332.07 121.235 329.475 127.921C324.387 140.543 323.339 150.87 326.781 164.09C327.727 169.248 328.919 174.389 330.113 179.535C333.075 192.308 336.045 205.112 335.263 218.27C334.812 224.867 333.695 231.384 332.578 237.903C331.347 245.091 330.115 252.28 329.775 259.579C329.182 266.492 329.775 273.393 330.368 280.294C330.973 287.337 331.577 294.38 330.922 301.436C330.475 304.99 329.808 308.524 329.14 312.061C328.317 316.417 327.494 320.778 327.081 325.183C326.233 333.166 326.283 341.148 326.682 349.13C327.013 354.37 327.032 359.626 327.051 364.878C327.082 373.078 327.112 381.272 328.328 389.391C329.408 397.297 329.588 405.251 329.768 413.203C329.846 416.642 329.923 420.081 330.074 423.515C330.324 426.509 330.623 429.502 331.022 432.446ZM313.361 38.0198C315.706 35.4754 319.298 34.4776 322.641 34.3778C323.189 34.3778 327.28 34.4776 326.881 35.0264C324.985 38.6184 322.042 42.1606 317.851 43.0087C314.808 43.6074 310.368 41.3125 313.361 38.0198ZM120.941 12.7265C121.463 12.4962 121.951 12.2807 122.384 12.0773C123.432 11.6782 125.378 15.37 125.527 16.4177C126.525 23.7015 116.597 22.6039 112.456 20.0097C112.586 16.4135 117.495 14.2472 120.941 12.7265ZM258.583 18.8622C252.895 11.0296 263.222 2.74795 271.254 3.29673C271.576 3.32349 271.91 3.34738 272.253 3.37191C275.11 3.57603 278.587 3.82447 280.235 6.14043C281.582 8.48523 280.534 11.3289 278.339 12.6759C272.452 16.4675 265.417 18.064 258.583 18.8622ZM19.2131 17.5152C12.0291 15.7691 19.1134 6.7391 23.7531 6.63933H24.5513C25.5325 10.6576 22.3128 14.1508 19.7281 16.9549C19.5531 17.1448 19.3809 17.3316 19.2131 17.5152ZM18.4653 387.745C18.1161 390.289 19.1638 391.087 21.3589 392.035C21.4254 392.068 21.492 392.068 21.5585 392.035C21.8204 385.041 22.3486 378.033 22.8774 371.018C24.0611 355.315 25.2475 339.577 23.4543 323.886C23.0328 319.04 21.1402 314.647 19.2449 310.249C17.999 307.357 16.752 304.463 15.921 301.436C13.4764 290.51 13.5762 278.088 17.5174 267.511C17.6668 267.822 17.8313 268.175 18.0103 268.56C20.0431 272.924 23.9564 281.327 29.0918 277.888C32.8834 274.446 34.9787 268.709 33.9809 263.67C33.1827 260.128 29.9898 257.533 26.6472 256.436C22.9554 255.488 19.3633 258.032 17.0684 260.726C10.7325 247.45 14.7733 234.298 18.9553 220.687C22.7092 208.469 26.5768 195.88 23.1549 182.5C21.9227 177.489 19.2702 173.052 16.6452 168.662C16.0818 167.72 15.5196 166.78 14.9731 165.837C9.88435 157.156 9.28567 146.679 10.7824 136.901C11.5647 130.642 14.1975 124.966 16.8197 119.313C17.8761 117.036 18.9309 114.762 19.8622 112.455C23.4543 102.128 19.7625 90.8528 16.2702 80.9747C14.7829 76.5938 12.5333 72.5793 10.2842 68.5659C8.38414 65.1751 6.48443 61.785 5.04507 58.1752C3.39872 52.7373 4.89541 46.9002 6.3422 41.6119C6.94087 39.766 7.63932 38.0199 8.38767 36.2737C7.98855 35.6252 7.14043 35.1762 6.44198 34.9267C5.00457 35.9368 4.14194 38.4595 3.40651 40.6101C3.19751 41.2213 2.99878 41.8025 2.80005 42.3104C1.00403 48.1973 0.0561315 54.7827 3.39872 60.2706C10.932 73.9901 18.4154 89.3561 16.7691 105.47C16.0818 109.473 14.3133 113.115 12.5522 116.742C12.1401 117.591 11.7285 118.438 11.3311 119.29C8.78678 124.778 6.94087 130.615 6.3422 136.601C4.51032 152.187 8.79648 159.417 13.1654 166.787C16.2925 172.062 19.4619 177.409 20.4609 185.942C21.8825 196.972 18.5671 207.378 15.2501 217.788C12.281 227.107 9.31053 236.429 9.73468 246.208C10.3322 252.184 12.868 257.712 15.3579 263.14L15.3722 263.171C10.1837 272.75 10.2835 284.524 11.7801 295.1C12.4002 299.669 14.2798 303.811 16.1621 307.959C17.1573 310.152 18.1533 312.347 18.9642 314.607C21.4677 322.425 21.4192 330.745 21.3718 338.888C21.3653 339.994 21.3589 341.097 21.3589 342.196C21.2417 348.938 20.6077 355.646 19.9731 362.36C19.5277 367.072 19.082 371.787 18.8146 376.52C18.615 380.261 18.5152 384.003 18.4653 387.745ZM18.9143 264.817C20.6106 262.123 23.0552 259.579 26.1982 258.731C27.2958 258.431 28.4432 258.381 29.4909 258.731C32.9832 263.77 29.6904 273.698 24.2525 276.142C22.4066 272.4 20.6605 268.609 18.9143 264.817ZM232.242 481.836C242.718 485.478 253.844 486.975 264.919 486.925C272.752 486.675 280.983 486.376 288.068 482.734C302.785 487.623 316.654 483.582 328.279 473.704C334.814 468.915 335.662 460.434 336.111 452.9C335.923 451.534 334.399 450.612 333.264 449.926C333.197 449.885 333.132 449.846 333.068 449.807C333.031 449.807 332.98 449.793 332.925 449.779C332.833 449.754 332.732 449.726 332.669 449.757C332.569 450.655 332.507 451.566 332.444 452.476C332.382 453.387 332.32 454.297 332.22 455.195C331.721 465.423 327.63 470.661 319.099 475.899C310.518 481.387 300.091 483.981 290.063 481.437C300.54 475.351 290.163 461.082 280.584 463.676C269.908 467.568 274.149 477.296 282.68 480.739C267.763 486.326 247.707 484.879 232.491 480.489C227.753 479.231 223.524 477.01 219.419 474.855C210.988 470.428 203.083 466.277 192.38 471.31C190.043 472.381 187.814 473.444 185.659 474.471C170.652 481.629 159.266 487.059 140.595 481.387C128.086 476.963 121.189 472.274 115.941 468.706C105.092 461.33 101.293 458.747 69.5521 473.205L69.3404 473.303C63.67 475.917 57.8494 478.599 51.542 479.092C45.0065 479.342 37.7226 478.693 32.2348 474.902C29.1143 472.105 27.1789 468.387 25.2788 464.737C24.8397 463.893 24.4026 463.054 23.9532 462.23C19.0822 453.911 17.1128 453.373 16.7927 452.328C16.4734 451.287 17.7942 449.743 19.513 439.48C20.4163 434.286 20.6328 429.028 20.8494 423.77C21.0155 419.735 21.1817 415.699 21.6583 411.692C21.8578 411.442 21.5086 411.093 21.3589 410.943C20.1616 409.646 18.6649 408.549 17.0684 407.8C16.7192 407.601 15.921 407.301 16.0207 408C16.0457 409.247 16.0706 410.507 16.0956 411.766C16.1205 413.026 16.1455 414.286 16.1704 415.533C16.37 426.958 15.8711 438.532 12.6782 449.558C5.3943 444.469 0.455248 450.805 0.355469 458.039C0.455248 461.88 3.14928 465.023 6.59165 466.47C11.4936 468.104 13.9326 460.485 15.4747 455.667C15.7689 454.748 16.0304 453.931 16.2702 453.299C19.0215 456.158 20.8259 459.707 22.6182 463.233C23.3284 464.63 24.0367 466.023 24.8013 467.368C28.4432 474.153 35.1783 478.893 42.6118 480.589C50.644 482.634 59.1252 482.185 66.7084 478.793C69.1364 477.765 71.549 476.693 73.9623 475.622C81.2681 472.378 88.5799 469.131 96.3427 467.069C107.44 463.64 110.853 465.985 119.258 471.762C119.657 472.036 120.067 472.317 120.489 472.607C130.916 479.342 142.341 485.029 154.913 486.077C164.891 487.374 174.719 484.081 183.549 479.641C185.297 478.842 187.067 477.921 188.861 476.988C196.026 473.259 203.567 469.335 211.587 472.207C214.859 473.443 217.941 475.077 221.023 476.71C224.661 478.639 228.298 480.567 232.242 481.836ZM278.788 477.446C275.097 472.706 279.736 466.77 284.975 466.221C289.465 465.323 291.011 468.366 290.762 472.407C290.462 475.999 287.17 478.194 284.326 479.89C282.43 479.292 280.485 478.593 278.788 477.446ZM9.73468 449.558C-1.78978 450.106 3.74795 481.537 12.4786 450.256C11.6305 449.807 10.6826 449.508 9.73468 449.558Z" fill="black"/>
</svg>
