<svg width="257" height="428" viewBox="0 0 257 428" fill="none" xmlns="http://www.w3.org/2000/svg">
<path d="M129.489 0.215623C75.861 2.11719 34.8599 19.5518 22.2967 45.8104C16.1861 58.5659 18.4722 77.902 30.2662 113.519C31.014 115.805 31.5695 117.749 31.484 117.813C31.3772 117.899 30.5012 118.497 29.497 119.138C21.3993 124.351 9.41308 136.167 5.13991 143.132C-0.65025 152.576 -0.928007 165.011 4.2639 182.787C8.36616 196.867 19.9678 220.199 25.4161 225.369C26.2708 226.181 26.4203 225.797 23.6428 229.92C13.5794 244.834 13.3017 251.607 22.5317 258.337C23.9846 259.405 23.9846 259.405 24.0487 265.153C24.1769 276.284 25.2025 282.587 30.2448 302.628C39.9022 341.151 42.3379 364.76 39.9449 397.172C38.3852 418.667 40.8423 425.696 50.0083 425.696C67.8915 425.696 72.4425 390.079 62.5073 327.627C60.328 313.952 59.7939 310.064 58.6615 299.958C57.0804 285.749 56.0976 279.703 54.0892 271.562C53.2559 268.187 53.2559 268.187 54.3669 268.315C55.8412 268.486 62.4005 269.02 65.1994 269.191C67.4428 269.34 67.4428 269.34 67.7206 275.686C67.8488 279.169 68.0625 283.164 68.1693 284.574C68.2975 285.984 68.5752 290.258 68.8103 294.082C70.8828 327.028 72.0151 337.07 74.4722 344.42C79.6428 359.889 91.9068 362.773 96.2441 349.527C99.7908 338.651 99.4276 320.17 95.0903 292.266C93.3383 280.942 92.5264 274.319 92.5264 271.263C92.5264 270.366 92.5264 270.366 101.564 270.515C106.521 270.622 121.328 270.686 134.468 270.686C158.355 270.686 158.355 270.686 158.227 271.37C157.073 277.545 157.65 304.551 159.209 317.371C161.901 339.677 169.23 354.783 178.631 357.411C188.609 360.209 191.45 348.501 188.78 315.662C187.84 304.103 187.669 300.919 187.156 284.254C187.028 280.087 186.857 275.088 186.771 273.143C186.665 271.199 186.6 269.597 186.622 269.597C186.622 269.575 188.844 269.49 191.536 269.404C196.407 269.255 196.407 269.255 196.279 270.943C195.724 277.353 195.617 323.952 196.108 334.357C197.946 372.003 202.796 404.031 208.415 415.739C214.654 428.687 226.426 431.166 233.37 420.953C237.622 414.671 237.75 408.753 233.969 393.455C228.478 371.277 226.512 347.155 226.491 302.201C226.491 292.159 225.999 269.618 225.743 266.819C225.615 265.495 225.615 265.495 227.11 264.512C235.849 258.7 234.161 248.316 221.085 227.442C219.162 224.344 219.162 224.344 219.888 223.81C223.969 220.84 228.435 213.49 245.463 181.698C257.706 158.836 259.415 148.858 252.877 138.731C246.831 129.372 222.73 108.925 199.377 93.3068C197.796 92.2599 197.796 92.2599 197.839 87.6876C197.86 85.1664 197.924 83.0512 197.988 82.9657C198.694 81.8333 196.942 55.3396 195.489 44.9558C190.19 7.245 177.328 -1.47228 129.489 0.215623ZM151.924 7.00998C179.507 9.61661 185.938 16.9665 189.827 50.2973C195.083 95.2297 188.929 135.59 173.14 159.755C170.362 164.028 169.956 165.139 170.512 166.848C171.281 169.198 174.4 168.451 176.943 165.31C185.19 155.097 191.899 138.474 194.655 121.446C194.912 119.865 195.168 118.412 195.232 118.241C195.275 118.049 195.959 118.647 197.177 119.95C198.202 121.061 200.809 123.86 202.988 126.146C216.214 140.098 223.798 149.905 225.401 155.076C226.982 160.225 225.486 163.494 209.505 189.71C206.578 194.517 204.206 198.918 203.394 201.098C202.753 202.743 203.309 203.192 198.501 197.188C187.177 183.086 181.195 178.258 170.298 174.369C156.111 169.305 140.942 168.921 123.293 173.194C113.144 175.63 110.474 176.912 110.474 179.283C110.474 181.655 113.23 181.868 121.904 180.138C149.146 174.732 167.585 177.638 181.216 189.496C184.507 192.38 186.109 194.261 199.698 211.524C222.73 240.774 229.738 255.282 222.752 259.192C218.457 261.585 212.111 262.183 174.251 263.849C144.018 265.174 91.8 264.704 65.2849 262.888C36.035 260.858 19.9465 254.213 22.6813 245.24C25.3948 236.373 45.0087 210.734 54.6874 203.405C62.3364 197.615 75.0705 192.359 101.308 184.155C105.666 182.809 106.927 181.762 106.478 179.967C105.966 178.044 103.979 177.916 98.1884 179.433C69.8572 186.889 54.1319 193.876 45.7565 202.722C44.795 203.726 44.9873 203.833 43.0216 201.183C29.3261 182.851 27.2963 173.621 34.0052 160.118C36.8896 154.349 44.0045 144.243 44.6241 145.098C44.7736 145.311 45.8633 146.978 47.0812 148.794C51.0979 154.862 54.7088 159.413 61.5886 166.976C66.866 172.809 71.8442 178.493 74.3013 181.548C77.0148 184.902 78.5317 185.522 79.9846 183.813C81.7153 181.762 79.5573 178.065 69.7717 166.314C48.8759 141.273 41.3978 126.958 32.0396 94.0974C26.2494 73.757 24.5829 62.3049 26.3562 54.7841C32.2319 29.8928 71.8656 9.61661 119.982 6.92451C122.225 6.79632 124.575 6.66812 125.216 6.62539C128.635 6.41173 148.633 6.68949 151.924 7.00998ZM205.231 104.695C217.538 114.203 226.405 121.595 236.426 130.718C246.51 139.884 249.972 145.012 249.993 150.76C249.993 151.7 249.908 152.213 249.758 152.213C249.63 152.213 245.805 152.661 241.254 153.195C236.725 153.751 232.836 154.2 232.623 154.221C232.323 154.242 232.131 153.922 231.811 152.96C229.46 145.974 221.021 135.44 203.586 117.685C195.574 109.545 196.258 110.613 196.664 106.554C196.856 104.823 197.048 102.516 197.112 101.469C197.326 98.2423 197.155 98.3492 199.42 100.144C200.488 101.02 203.116 103.05 205.231 104.695ZM35.3726 127.044C36.1845 128.966 37.8511 132.492 39.0476 134.906C41.2483 139.286 41.2483 139.286 39.6672 140.889C34.0693 146.636 28.5356 154.712 25.8435 161.122C24.9461 163.323 24.9461 163.323 23.7496 163.323C23.0873 163.323 21.5916 163.43 20.4165 163.558C18.0876 163.793 8.60118 163.857 8.38752 163.643C7.72518 162.981 8.57981 154.691 9.66947 151.422C11.6779 145.333 19.9678 135.291 30.608 126.061C34.1121 123.027 33.6206 122.941 35.3726 127.044ZM238.007 160.011C240.314 160.075 243.562 160.054 245.25 159.968C246.916 159.883 248.284 159.883 248.284 159.99C248.284 163.494 223.478 209.601 217.987 216.31C215.53 219.301 215.679 219.259 214.355 217.421C213.244 215.883 209.697 211.225 208.265 209.43C207.261 208.17 210.252 201.29 215.487 192.808C228.221 172.168 231.875 165.246 232.409 160.738C232.537 159.669 232.537 159.648 233.178 159.776C233.52 159.84 235.699 159.947 238.007 160.011ZM11.8274 169.861C13.6863 170.096 15.6947 170.181 18.8141 170.117C23.1941 170.053 23.1941 170.053 23.1941 173.899C23.2154 181.249 25.117 185.928 33.5779 199.453C36.6119 204.324 37.7229 205.969 38.9407 207.379C39.6031 208.148 39.9236 208.725 39.8381 208.875C39.7526 209.024 38.8766 210.071 37.9365 211.182C36.9751 212.293 34.8385 214.9 33.2147 216.973C30.2235 220.733 30.2235 220.733 28.0655 217.614C20.5233 206.674 14.0708 192.637 10.9514 180.309C9.66947 175.309 8.64391 169.519 9.0285 169.519C9.13533 169.519 10.3959 169.669 11.8274 169.861ZM32.1037 263.507C35.2231 264.747 39.2826 265.858 44.7523 267.011C46.0129 267.268 46.0129 267.268 46.8248 270.58C49.581 281.839 50.6493 287.715 52.4654 301.774C53.7259 311.602 54.3883 316.217 56.2898 328.481C59.8793 351.599 61.1613 373.221 59.8793 389.588C58.4264 408.325 56.0976 416.466 51.6107 418.56C46.8034 420.825 45.6069 415.034 46.9743 396.126C49.2605 364.825 46.9743 342.604 37.3169 301.667C33.3856 285.066 29.4543 262.888 30.4158 262.888C30.5012 262.888 31.249 263.166 32.1037 263.507ZM219.525 271.156C219.931 281.946 220.081 290.728 220.081 304.872C220.081 352.026 221.854 374.866 227.238 397.237C230.55 411.018 229.93 416.936 224.888 419.564C218.286 423.004 212.325 411.787 208.885 389.481C205.103 364.995 203.714 346.471 202.774 307.756C202.176 283.72 201.706 272.46 201.151 269.682C201.022 269.02 200.809 269.063 208.009 268.657C212.004 268.422 218.756 267.717 218.991 267.482C219.312 267.14 219.397 267.738 219.525 271.156ZM80.647 269.917C86.6294 270.131 86.3303 270.024 86.3303 271.926C86.3303 275.643 87.5268 286.668 89.1079 297.501C94.4921 334.506 92.0777 359.59 84.151 349.099C80.5615 344.356 79.2582 338.502 77.6771 319.721C75.9892 300.022 73.9381 278.015 73.2971 272.973C73.0621 271.178 72.8698 269.682 72.8698 269.639C72.8698 269.618 73.4253 269.618 74.109 269.661C74.7713 269.704 77.7198 269.81 80.647 269.917ZM179.55 272.118C179.721 274.725 180.041 283.485 180.34 294.189C180.575 302.18 180.896 307.778 181.622 315.768C183.887 341.279 183.438 352.753 180.233 351.214C176.644 349.527 172.285 342.433 170.02 334.57C166.516 322.499 165.299 310 164.188 275.173C164.123 272.823 164.038 270.793 164.038 270.686C163.995 270.43 164.38 270.409 170.512 270.174C180.212 269.81 179.4 269.639 179.55 272.118Z" fill="black"/>
<path d="M119.02 13.4624C113.337 14.3384 112.631 17.6288 117.845 18.9748C118.571 19.1457 120.879 19.4449 122.973 19.6372C144.146 21.496 161.581 28.9313 168.055 38.8665C177.349 53.1175 177.755 93.0931 168.888 118.903C158.632 148.73 143.27 161.272 116.883 161.293C83.8089 161.314 64.9428 140.376 52.7856 90.1446C47.1236 66.7917 48.491 53.2671 57.4861 44.1438C64.6009 36.9435 82.3773 27.5853 100.325 21.6242C104.705 20.1713 105.047 20.0004 105.474 18.9748C109.597 9.08241 67.2503 25.2564 53.1274 38.9733C40.0515 51.6646 39.0046 70.2957 49.4952 104.246C61.6524 143.538 76.7368 161.058 102.995 166.314C130.857 171.912 152.586 163.729 165.662 142.705C185.852 110.25 188.395 50.2331 170.362 31.2816C160.106 20.5132 133.527 11.2831 119.02 13.4624Z" fill="black"/>
<path d="M131.348 28.0758C128.058 28.674 125.558 29.9346 123.315 32.1567C121.883 33.5668 121.883 33.5668 120.943 32.8404C110.666 24.935 90.6892 33.8659 94.1291 44.8053C95.5392 49.2707 100.432 48.9289 100.432 44.3566C100.432 36.9213 112.717 33.93 119.149 39.8056C121.648 42.0918 123.358 41.8781 126.327 38.8869C128.507 36.7076 129.767 35.9384 131.712 35.5752C136.604 34.6778 143.591 39.2501 144.339 43.8438C144.83 46.8991 148.804 46.4291 149.574 43.2242C151.326 35.9598 139.959 26.5161 131.348 28.0758Z" fill="black"/>
<path d="M80.2844 40.5714C70.3279 43.0925 65.1574 55.1429 70.8407 62.5996C71.3535 63.2619 71.3535 63.2619 70.157 64.0952C60.0082 71.0605 57.2306 85.6107 65.0292 90.9735C69.3878 93.9647 72.7209 90.012 69.1741 86.038C65.2428 81.5939 68.9819 72.1502 76.289 68.0906C80.2203 65.9113 80.6049 63.8816 77.6564 60.698C72.2936 54.8865 77.2932 45.571 85.69 45.7419C88.3821 45.806 89.4076 44.93 88.9803 42.9216C88.5316 40.785 84.1303 39.6099 80.2844 40.5714Z" fill="black"/>
<path d="M149.381 50.5315C144.467 51.3434 144.937 56.0439 149.893 55.7447C158.248 55.2106 162.179 61.9836 156.731 67.4746C156.132 68.0729 154.957 69.1839 154.124 69.9531C150.983 72.8161 151.346 74.739 155.662 78.1789C163.674 84.546 163.845 93.0282 156.025 94.7161C151.966 95.5708 151.304 98.4979 154.487 101.575C160.448 107.322 158.76 114.864 151.24 116.018C144.723 117.022 145.471 122.235 152.137 122.171C161.752 122.086 167.029 112.044 162.692 102.109C162.264 101.169 161.901 100.293 161.858 100.186C161.794 100.058 162.243 99.6516 162.82 99.2457C170.447 94.0965 170.106 83.3708 162.072 75.38C160.128 73.4571 160.128 73.4571 161.281 72.1751C170.49 62.1545 162.863 48.3094 149.381 50.5315Z" fill="black"/>
<path d="M75.3061 97.0037C68.5972 101.533 64.6873 111.96 66.6743 119.908C68.8536 128.518 78.6178 133.262 87.6556 130.078C88.147 129.907 88.553 129.8 88.5743 129.822C88.5957 129.864 88.7239 130.933 88.8521 132.236C90.7109 149.457 106.158 156.016 117.974 144.586C119.619 143.004 119.619 143.004 120.602 144.393C128.614 155.632 147.096 150.183 150.087 135.697C151.668 128.07 146.39 126.061 144.232 133.475C140.429 146.53 126.862 148.431 123.914 136.317C122.802 131.83 119.192 131.211 117.098 135.163C112.59 143.688 104.556 146.53 99.3641 141.466C96.4797 138.646 95.1764 134.736 94.8986 128.155C94.6636 122.365 92.9116 121.019 88.5316 123.22C74.131 130.484 66.1188 114.203 77.8914 101.576C81.1817 98.0506 79.1306 94.4398 75.3061 97.0037Z" fill="black"/>
<path d="M46.0556 232.097C42.872 234.02 40.009 239.852 40.2227 243.933C40.7568 254.317 57.4222 256.988 66.93 248.185C67.5069 247.672 67.5069 247.672 68.2333 249.125C73.5748 259.723 87.5908 260.727 96.4577 251.112C97.7396 249.745 97.7396 249.745 99.3421 251.411C107.931 260.321 123.571 259.723 131.989 250.172C132.993 249.04 132.993 249.04 133.869 250.343C140.685 260.791 156.197 260.15 164.145 249.083C164.829 248.121 164.829 248.121 165.79 249.061C178.738 261.432 206.278 256.902 205.723 242.48C205.488 236.049 198.715 235.216 198.715 241.626C198.715 252.245 174.422 252.181 168.097 241.54C165.79 237.652 162.585 237.801 160.598 241.882C154.295 254.83 139.638 254.766 137.523 241.775C137.16 239.532 136.946 238.998 136.305 238.4C134.297 236.583 131.412 237.481 130.536 240.173C126.242 253.463 107.29 255.514 101.585 243.314C99.4489 238.741 95.8167 238.571 93.8724 242.972C90.7957 249.937 83.6595 253.249 77.8694 250.386C74.6645 248.826 73.062 246.113 72.5493 241.434C72.1219 237.652 68.7248 237.203 65.7335 240.536C56.3753 250.984 40.8636 248.014 48.6195 237.246C51.2475 233.592 49.4741 230.003 46.0556 232.097Z" fill="black"/>
</svg>
