<svg width="174" height="381" viewBox="0 0 174 381" fill="none" xmlns="http://www.w3.org/2000/svg">
<path d="M93.5454 0.710022C55.7278 1.82105 11.0304 14.3628 5.64615 25.3876C-2.19513 41.4334 35.7934 47.3731 108.395 41.4761C136.747 39.1686 156.746 36.4338 163.241 33.9981C174.629 29.7035 170.954 19.4479 155.122 11.3716C142.666 5.00457 123.778 2.0988 123.778 6.54291C123.778 8.31628 126.257 9.51277 133.649 11.2434C148.413 14.726 163.305 22.3964 163.305 26.5414C163.305 29.3189 129.205 33.934 92.0498 36.2201C51.946 38.6986 22.9312 36.8397 13.3165 31.1991C10.4748 29.5326 10.4321 28.3361 13.1456 26.1354C25.5378 16.0721 70.0643 5.9233 102.199 5.81647C111.642 5.7951 111.749 5.77374 112.241 4.27813C112.775 2.67568 111.578 1.56466 108.972 1.20144C107.326 0.966413 98.7373 0.539095 96.8571 0.603193C96.0879 0.624559 94.6137 0.66729 93.5454 0.710022Z" fill="black"/>
<path d="M167.15 38.9707C165.933 40.1886 165.826 41.4919 166.274 49.1622C168.774 92.1077 161.681 122.234 145.25 138.685C120.146 163.79 51.2405 164.923 25.7724 140.63C12.0128 127.532 5.00474 98.8379 7.71821 66.6823C8.76514 54.2473 9.06426 51.5125 10.0471 45.4873C10.8804 40.2313 9.59841 37.9451 6.88494 39.8894C4.83381 41.3423 2.14171 56.213 1.24435 71.0623C-1.17 110.397 8.08143 137.446 28.5927 151.099C57.8639 170.606 120.744 168.213 146.041 146.655C166.445 129.263 176.103 93.2614 172.492 47.9657C171.83 39.6758 169.821 36.3 167.15 38.9707Z" fill="black"/>
<path d="M126.79 67.9886C118.329 70.2533 110.808 83.9489 103.672 110.165C103.117 112.216 102.646 113.776 102.646 113.647C101.706 98.7982 96.3222 84.8035 90.4466 81.8977C81.1097 77.2827 70.8968 91.1492 62.1368 120.314C61.8163 121.361 61.4958 122.322 61.4103 122.407C61.3249 122.493 61.1753 120.485 61.1112 117.921C60.1284 84.9531 49.7232 67.8817 36.6686 77.7741C28.806 83.7352 20.7297 105.614 20.2169 122.365C20.0246 128.326 21.7339 130.783 24.1696 128.027C24.8533 127.258 24.9174 127.001 25.2806 123.518C27.5881 102.345 37.9506 79.5475 44.4885 81.3209C52.6289 83.5002 55.6629 100.871 54.9792 141.38C54.851 149.051 55.3638 150.29 58.5473 149.799C60.6411 149.478 60.8334 149.093 62.97 140.526C70.1276 111.917 78.3535 92.4311 85.1906 87.8588C89.9124 84.718 95.1257 97.153 96.429 114.652C96.5358 116.361 96.6854 118.241 96.7495 118.839C97.07 122.45 97.1127 129.33 96.835 135.697C96.3863 146.145 96.3435 145.782 98.0101 147C100.659 148.987 102.582 146.978 103.693 141.039C111.449 99.8665 123.072 70.9584 130.401 74.6974C136.917 78.0305 142.109 97.6658 142.494 120.42C142.643 129.629 143.092 131.103 145.635 131.103C149.224 131.103 150.292 124.907 149.075 111.126C146.66 83.6925 137.11 65.211 126.79 67.9886Z" fill="black"/>
<path d="M68.5242 166.572C58.1618 171.785 61.0034 185.716 73.417 190.523C84.3777 194.754 94.4624 189.369 94.5051 179.285C94.5051 174.285 90.3388 168.709 86.5784 168.709C83.2453 168.709 82.9462 171.294 85.852 175.14C92.2404 183.643 82.0488 189.455 72.5837 182.703C67.4346 179.028 67.2423 174.349 72.1137 171.08C76.5578 168.089 73.3956 164.094 68.5242 166.572Z" fill="black"/>
<path d="M70.7484 196.91C69.4237 197.936 69.2955 198.876 68.4409 212.187C66.6889 239.877 65.7488 256.435 65.236 269.02C64.3813 289.745 62.9285 315.555 62.2447 322.05C61.5824 328.139 62.3088 333.267 63.8258 333.566C67.8212 334.293 69.7014 320.747 71.0048 282.267C71.1971 276.37 71.2825 274.126 71.5389 268.165C71.603 266.99 71.7312 263.187 71.8594 259.726C72.2226 249.62 72.6713 237.676 73.2482 224.151C73.5259 217.208 73.8678 209.024 73.996 205.948C74.3378 197.615 73.355 194.859 70.7484 196.91Z" fill="black"/>
<path d="M80.9382 200.199C80.1477 200.99 79.9981 201.951 79.6563 208.34C79.4854 211.63 79.0367 219.471 78.6948 225.753C77.5624 246.072 76.9001 260.237 76.3018 276.283C75.725 292.094 76.0027 323.694 76.7933 330.446C77.4129 335.702 79.1008 338.095 80.9169 336.3C82.4552 334.74 82.6475 332.305 82.327 318.737C81.6861 292.222 82.0065 273.869 83.844 231.094C84.5064 215.412 84.8482 202.507 84.6132 201.545C84.1645 199.815 82.092 199.046 80.9382 200.199Z" fill="black"/>
<path d="M46.6461 328.01C20.3446 339.762 13.999 343.138 9.10619 348.094C-3.02964 360.38 17.0543 374.075 54.3378 378.925C112.795 386.553 155.89 357.923 117.559 336.941C107.624 331.514 92.54 327.711 90.2111 330.04C88.2668 331.985 91.1512 334.121 99.6335 337.091C127.495 346.791 132.943 354.91 117.752 364.076C97.1123 376.554 47.1161 376.233 20.9002 363.456C5.75174 356.064 7.73877 353.479 41.4541 336.557C57.799 328.352 57.799 328.352 57.1367 326.13C56.4744 323.972 55.1069 324.229 46.6461 328.01Z" fill="black"/>
<path d="M51.028 341.429C29.8544 349.591 38.6785 366.684 60.3221 359.42C62.416 358.736 62.416 358.736 63.292 360.061C69.4454 369.419 84.2519 368.735 86.068 359.035C86.2176 358.266 86.2176 358.266 87.2004 358.544C96.58 361.278 104.635 358.821 105.319 353.031C105.938 347.754 100.383 345.724 99.4003 350.852C98.738 354.249 93.2042 354.698 86.3244 351.877C81.7307 349.997 79.8292 351.13 79.936 355.659C80.1283 363.094 71.0478 362.924 67.1378 355.424C65.514 352.326 64.2534 352.006 59.5957 353.501C53.1218 355.616 45.9642 355.787 45.2378 353.843C44.6609 352.347 48.5922 348.715 53.4209 346.301C58.8265 343.587 56.6899 339.25 51.028 341.429Z" fill="black"/>
</svg>
