<svg width="157" height="257" viewBox="0 0 157 257" fill="none" xmlns="http://www.w3.org/2000/svg">
<path d="M71.117 0.836804C53.5543 1.45641 44.1319 3.7212 46.6103 6.71242C47.3795 7.65252 54.5371 7.93028 62.1433 7.3534C89.7481 5.23818 132.608 9.9814 147.073 16.7758C150.021 18.1432 150.021 18.1859 147.222 19.2756C131.112 25.5571 70.3692 31.6678 39.2818 30.1722C23.2147 29.3816 10.7797 26.4972 8.4936 22.9932C6.63477 20.1729 23.407 12.353 37.5085 9.44726C40.7775 8.78491 41.568 8.2294 41.8671 6.43467C42.8927 0.345389 11.9762 8.54989 4.19906 16.4339C-3.81315 24.5529 4.49818 32.5011 24.0907 35.4068C56.2036 40.1928 136.817 33.0993 152.286 24.1256C158.696 20.4293 158.119 15.1519 150.919 11.4984C137.971 4.91769 99.7259 -0.210124 71.117 0.836804Z" fill="black"/>
<path d="M153.739 24.5521C152.393 25.2145 151.068 26.9879 149.273 30.5346C145.641 37.7563 142.565 46.6658 138.355 62.327C136.283 69.9974 135.172 72.2835 132.672 74.121C119.212 84.0348 56.5241 88.3293 33.8335 80.894C22.8728 77.2832 19.9243 73.9073 17.51 62.092C14.7324 48.5674 10.5233 38.5468 5.43826 33.3549C3.13074 31.0046 0.203613 31.6029 0.203613 34.4446C0.203613 35.4915 0.331809 35.7265 2.51113 39.1878C6.44245 45.3625 8.81406 51.8577 10.9507 62.3057C14.1128 77.6677 18.7706 82.7956 33.7267 87.3251C58.1052 94.6964 120.814 90.7223 136.112 80.8299C140.919 77.7105 142.778 74.1424 144.936 63.844C147.457 51.7296 150.598 41.9012 154.978 32.308C157.713 26.2828 157.179 22.8429 153.739 24.5521Z" fill="black"/>
<path d="M121.755 37.5195C115.025 39.1646 107.739 49.3348 105.752 59.8468C104.043 68.9059 110.602 71.7903 112.568 62.838C114.427 54.3771 118.849 46.4931 122.845 44.4847C125.793 43.0318 126.626 49.8903 124.618 59.0135C122.716 67.7094 128.229 69.9315 131.177 61.6629C135.921 48.3733 130.814 35.2974 121.755 37.5195Z" fill="black"/>
<path d="M32.8295 41.1541C26.5693 43.2053 24.7532 52.0721 28.1717 63.8234C29.8596 69.6562 31.9535 72.0492 34.0687 70.5536C35.0302 69.8485 35.0302 69.2076 34.026 63.0328C30.5861 41.7738 37.8718 41.6242 46.4396 62.7978C48.5975 68.0965 49.559 69.4853 51.311 69.8272C53.8749 70.34 54.3449 66.8146 52.4861 61.174C47.807 47.0725 39.7734 38.868 32.8295 41.1541Z" fill="black"/>
<path d="M76.4376 42.0973C71.3739 43.9134 67.5066 51.5411 66.417 61.8822C65.7119 68.591 66.6093 71.625 69.3227 71.625C71.3525 71.625 71.9507 70.4926 72.2926 65.8562C72.9336 57.8226 75.4334 50.2164 78.0614 48.3362C80.7962 46.3919 84.0866 53.3358 85.5394 64.1469C86.8428 73.9112 92.932 72.7788 91.9706 62.9504C90.6245 49.1481 83.4883 39.5548 76.4376 42.0973Z" fill="black"/>
<path d="M71.6503 95.5919C70.753 96.5748 70.753 95.6988 70.8598 145.759C70.9453 191.546 71.0307 197.892 71.6503 211.886C72.3981 228.616 73.2528 232.334 76.244 231.778C79.3207 231.201 79.5343 221.074 77.8464 155.267C76.7995 114.629 75.8167 97.3226 74.492 95.7415C73.8083 94.9296 72.3554 94.8441 71.6503 95.5919Z" fill="black"/>
<path d="M86.1807 96.6133C84.9415 97.938 84.9415 98.0876 84.6851 129.025C84.1723 189.534 84.4928 214.596 85.9884 228.099C86.7362 234.893 91.6076 235.128 92.3768 228.398C92.6759 225.813 92.6332 212.929 92.27 197.994C91.7572 176.735 91.5222 163.937 90.6675 112.104C90.5393 103.92 90.3684 98.5362 90.2188 98.0235C89.6633 95.9937 87.4626 95.2459 86.1807 96.6133Z" fill="black"/>
<path d="M58.2974 215.391C35.4572 219.451 19.0696 232.227 24.1761 241.992C34.4317 261.627 131.027 262.054 144.06 242.526C150.619 232.719 136.39 220.498 115.451 217.955C103.102 216.459 102.29 222.591 114.468 225.348C131.39 229.193 141.09 235.261 136.881 239.342C122.929 252.867 41.2688 252.952 30.9704 239.47C27.5305 234.941 44.4309 224.664 62.5706 220.241C63.8739 219.921 65.2627 219.557 65.69 219.451C67.7411 218.916 67.7625 216.139 65.7327 215.284C64.7712 214.878 60.9254 214.921 58.2974 215.391Z" fill="black"/>
<path d="M57.0156 227.187C54.1526 227.636 46.3967 232.23 45.478 234.024C43.2559 238.298 48.1274 237.849 56.7592 232.999C61.652 230.243 61.8229 226.418 57.0156 227.187Z" fill="black"/>
<path d="M105.388 228.528C103.059 230.686 105.987 234.233 111.648 236.156C116.862 237.908 117.802 233.656 112.888 230.494C108.785 227.844 106.713 227.289 105.388 228.528Z" fill="black"/>
<path d="M67.4424 234.279C62.9556 236.8 60.1566 242.035 62.9128 242.761C65.9254 243.573 72.0147 238.338 71.2455 235.604C70.8609 234.172 68.8739 233.488 67.4424 234.279Z" fill="black"/>
<path d="M92.7821 235.429C88.9576 236.006 92.9317 244.232 96.9057 243.997C100.089 243.805 97.5467 235.493 94.2991 235.493C94.0854 235.493 93.7863 235.451 93.6154 235.429C93.4658 235.387 93.0812 235.387 92.7821 235.429Z" fill="black"/>
</svg>
