<svg width="75" height="155" viewBox="0 0 75 155" fill="none" xmlns="http://www.w3.org/2000/svg">
<path d="M10.1071 0.724669C7.05175 2.26301 6.02619 6.3439 7.79956 9.8479C9.57293 13.3092 13.5897 11.9631 12.7778 8.18136C12.2437 5.76702 12.7992 5.06194 13.9529 6.64302C16.7519 10.5102 20.5764 7.79678 18.4184 3.50223C17.0083 0.724669 12.8846 -0.642748 10.1071 0.724669Z" fill="black"/>
<path d="M27.8829 3.30889C21.6654 4.27035 15.1061 17.4745 20.8322 17.4745C22.221 17.4745 22.5628 17.1753 23.7593 14.8251C24.678 13.0731 27.4129 9.33407 27.6479 9.54773C27.6906 9.61182 27.3488 10.8083 26.8787 12.2185C25.6609 15.9148 25.5754 16.3207 25.7891 17.2394C26.4728 20.252 29.8913 19.8247 31.5578 16.5344C35.4251 8.82129 33.6517 2.41152 27.8829 3.30889Z" fill="black"/>
<path d="M7.56411 15.0175C-2.28556 18.2651 0.51337 29.6318 10.9186 28.649C17.7129 28.008 18.8239 22.7733 12.1364 22.9015C9.85026 22.9443 7.62821 22.6665 7.62821 22.346C7.62821 21.8119 10.769 20.4017 12.0082 20.3804C15.8754 20.3376 17.0506 16.855 13.803 15.1244C12.7133 14.5475 9.18792 14.4834 7.56411 15.0175Z" fill="black"/>
<path d="M48.8641 21.4472C41.1938 22.4301 30.3399 33.7326 33.7798 37.1725C35.254 38.6468 36.7283 38.1767 38.694 35.5487C42.668 30.2286 50.4666 25.464 51.6417 27.622C53.2869 30.6986 48.8 35.6555 42.1125 38.134C35.6814 40.5056 37.0488 45.4625 43.6295 43.6891C54.0988 40.8688 61.0213 29.5449 55.8508 23.6693C54.5474 22.195 51.5776 20.9344 50.1461 21.2763C50.082 21.2763 49.5051 21.3618 48.8641 21.4472Z" fill="black"/>
<path d="M21.259 22.8823C19.7207 23.8437 19.913 25.1471 22.3273 30.4458C27.9038 42.5816 29.8695 49.0128 32.3052 63.0929C33.4376 69.7377 33.7794 70.5282 35.5314 70.8914C38.2662 71.4897 38.9072 69.054 37.8603 62.0887C35.7878 48.4359 32.6684 38.3939 26.8996 26.8136C24.8912 22.7968 23.246 21.6431 21.259 22.8823Z" fill="black"/>
<path d="M15.4265 37.1981C0.278134 39.6124 -4.82831 53.9703 8.48263 56.7051C15.8752 58.2435 26.4727 55.3591 27.5196 51.5346C28.2461 48.8425 25.8104 47.7956 22.1995 49.2484C16.9222 51.3637 11.1961 51.7696 8.20488 50.2526C4.57268 48.4152 12.2644 43.2446 19.2724 42.8173C23.2465 42.5823 24.6993 41.2362 23.5029 38.8219C22.7764 37.3476 19.1015 36.5998 15.4265 37.1981Z" fill="black"/>
<path d="M55.1668 51.9174C46.3213 53.2421 41.749 55.8487 42.3686 59.1818C42.6678 60.8483 44.4839 61.3398 46.4282 60.3142C52.7738 56.8743 64.0123 56.7247 67.6445 60.0364C73.5628 65.3565 61.9825 70.3562 49.5903 67.8136C44.8898 66.8308 42.7746 67.7923 43.5224 70.5485C44.4625 74.1166 54.9745 75.6335 63.6704 73.4542C82.9211 68.6683 75.1439 48.9475 55.1668 51.9174Z" fill="black"/>
<path d="M29.1861 74.2441C12.6062 82.2563 8.54663 101.357 23.46 101.357C39.4203 101.357 52.774 86.5081 45.8728 76.4662C42.5398 71.6161 37.3692 74.5219 40.4032 79.5215C44.3131 85.9526 33.4593 95.7809 23.1609 95.1186C17.6058 94.7767 22.6268 85.1834 31.4936 79.1796C36.6 75.7184 34.6771 71.5947 29.1861 74.2441Z" fill="black"/>
<path d="M38.7578 99.2411C37.9031 99.8821 37.7963 100.715 37.5613 107.339C37.2194 116.462 37.1339 118.684 36.8989 122.081C36.4502 128.406 35.7024 135.157 34.5487 143.362C33.2667 152.335 33.5872 154.344 36.2793 154.344C39.7833 154.344 42.6036 140.499 43.3514 119.667C43.971 102.147 42.625 96.1858 38.7578 99.2411Z" fill="black"/>
<path d="M63.0731 105.652C53.9713 106.976 41.3654 118.92 45.4676 122.338C46.7282 123.385 48.0102 123.214 49.2494 121.826C60.5947 109.134 70.8717 107.874 68.0941 119.518C66.1498 127.637 61.6202 130.18 53.608 127.616C46.5573 125.33 44.4421 130.393 51.0869 133.62C62.3467 139.111 72.5382 132.53 74.5252 118.471C75.7431 109.861 70.9785 104.498 63.0731 105.652Z" fill="black"/>
<path d="M13.846 110.219C3.76125 112.505 2.35111 124.727 11.4102 131.179C17.7773 135.73 25.2981 135.944 30.5541 131.692C35.4041 127.782 32.9043 123.167 27.7765 126.585C26.986 127.12 26.0886 127.697 25.7895 127.889C19.0379 131.948 7.20116 122.376 12.8418 117.42C15.5766 115.027 24.828 116.779 29.8917 120.646C32.5625 122.697 35.0195 122.163 35.0409 119.513C35.105 114.257 21.7727 108.403 13.846 110.219Z" fill="black"/>
</svg>
