<svg width="151" height="229" viewBox="0 0 151 229" fill="none" xmlns="http://www.w3.org/2000/svg">
<path d="M69.9631 0.367678C65.0489 1.15822 62.891 3.18798 64.5789 5.45276C65.5617 6.77744 65.4549 6.75608 74.92 6.90564C87.9318 7.1193 87.8036 7.07657 86.4148 11.2643C84.0432 18.486 78.8513 22.7805 71.7151 23.4428C65.4121 24.0197 60.1989 19.0628 57.2717 9.72594C55.883 5.3032 52.0585 5.02544 52.0585 9.36272C52.0585 17.1185 59.5793 27.8442 65.8822 29.0193C67.2923 29.2757 66.4377 59.2521 65.0062 60.0853C61.9081 61.8373 53.5327 67.6061 52.1439 68.9522C51.097 69.9564 50.691 71.1101 50.9688 72.3066C51.1611 73.1185 51.1611 73.1185 49.7296 73.1613C44.4308 73.2681 44.7941 73.2254 44.2172 73.8236C42.7857 75.2338 43.7044 77.1994 45.9265 77.584C52.4217 78.6737 72.0142 79.5497 82.0348 79.1864C88.1241 78.9728 87.6113 78.6096 86.3507 82.3059C79.77 101.642 62.5705 101.45 52.3149 81.8999C50.627 78.6737 48.8322 77.6267 47.0161 78.8019C41.226 82.605 55.1779 99.6122 66.3522 102.411C67.506 102.689 67.506 102.689 67.3564 104.954C67.1001 109.376 66.7582 126.255 66.8864 128.798C67.036 131.405 67.036 131.405 64.3011 133.499C59.9638 136.81 56.2248 139.908 55.3274 140.934C54.5155 141.874 54.5155 141.874 51.738 142.109C50.221 142.237 48.5545 142.408 48.063 142.472C47.1657 142.6 47.1657 142.6 47.9776 141.746C50.5201 139.075 48.4263 134.866 40.1577 126.085C39.4099 125.315 38.8757 124.61 38.9398 124.546C39.1107 124.397 38.7689 117.966 38.0424 107.667C37.7647 103.586 37.5297 100.04 37.5297 99.7618C37.5297 99.3345 37.7006 99.2276 38.8757 98.9926C43.1275 98.1166 45.7555 95.9159 45.2855 93.6084C44.9436 91.8564 42.9566 91.3864 39.5381 92.2624C27.9577 95.1681 20.3942 88.2028 21.9112 76.0029C22.2531 73.1399 22.0394 73.204 32.936 73.0117C45.1146 72.798 46.9307 72.3494 46.9307 69.6359C46.9307 67.307 44.8154 66.8583 33.4701 66.8583C17.4244 66.837 15.5228 68.2257 15.5228 79.9556C15.5442 90.5531 20.3729 96.5783 30.6926 98.8431C32.295 99.2063 32.295 99.2063 32.295 108.116C32.295 113.244 32.4232 118.585 32.5728 120.722C32.8505 124.439 32.8505 124.439 30.2225 127.238C24.3255 133.541 21.5053 137.216 21.5053 138.626C21.5053 138.883 21.3771 138.84 20.8429 138.413C19.7532 137.494 17.1039 137.408 11.9974 138.178C2.85283 139.545 0.481218 142.408 0.502584 151.959C0.545316 167.257 4.90396 172.641 18.4072 174.072C19.7105 174.201 19.7105 174.201 19.6251 180.546C19.4969 188.836 20.0524 202.104 20.6506 205.544C20.8643 206.698 20.8643 206.698 18.8772 208.963C11.506 217.488 14.7964 221.035 27.7014 218.492C34.688 217.125 34.7735 210.352 27.8296 206.014C26.8254 205.373 26.6331 205.181 26.6331 204.626C26.6331 202.596 25.3511 184.072 24.7956 178.153C24.4324 174.072 24.4324 173.966 25.3938 173.966C30.3294 173.944 34.0257 171.06 32.0173 168.816C31.1413 167.834 30.0516 167.705 26.0348 168.09C10.9078 169.543 6.89098 166.381 6.86962 153.027C6.86962 145.421 6.52776 145.784 15.3946 143.711C20.1806 142.6 20.5011 142.494 21.1634 141.66C21.6548 141.019 21.6548 141.019 22.0394 141.639C23.1504 143.327 25.1588 143.882 31.2267 144.181C35.7136 144.395 43.6403 143.797 45.8837 143.092C46.2683 142.964 46.2683 143.006 45.9478 143.754C44.9009 146.275 46.0333 146.895 52.0585 147.066C54.7078 147.151 57.4427 147.322 58.1477 147.45C58.8528 147.579 59.857 147.685 60.3912 147.685C62.1218 147.685 61.2885 162.321 59.1947 168.581C56.4171 176.935 49.7296 178.816 43.9608 172.833C40.3927 169.158 38.7048 163.689 37.6579 152.386C37.1664 147.215 36.7819 146.404 34.7948 146.404C32.7437 146.404 32.295 147.621 32.466 152.6C33.0642 169.18 37.2519 178.217 45.7555 181.273C47.2725 181.807 47.0375 180.055 47.6785 195.545C48.0417 204.369 48.3408 208.963 48.6827 211.484C48.9177 213.193 48.9177 213.193 46.482 216.42C39.6022 225.521 40.585 229.154 49.7082 228.235C59.5365 227.273 61.8013 226.098 61.7586 222.039C61.7372 219.283 57.9341 213.685 54.9856 212.061C54.5583 211.826 54.5796 212.04 54.1951 205.48C53.7891 198.835 52.5072 184.392 52.1653 182.79C52.0798 182.384 52.208 182.298 53.725 181.978C63.5106 179.82 68.8734 167.257 67.3778 149.972C67.2282 148.113 67.2282 148.113 68.1897 148.113C69.1512 148.113 69.1512 148.113 69.1512 151.254C69.1512 172.555 74.7704 183.153 86.8208 184.584C87.9104 184.713 87.9532 184.734 87.9532 185.375C87.9532 185.738 87.8677 189.776 87.7395 194.37C87.6327 198.942 87.6113 204.07 87.6968 205.737C87.8463 208.749 87.8463 208.749 87.2053 209.476C86.8635 209.882 85.6029 211.313 84.4064 212.659C77.6975 220.265 76.8215 223.299 80.8383 225.265C82.7826 226.226 93.5297 224.966 97.2901 223.321C102.696 220.97 101.2 212.766 94.6407 208.578C93.7433 208.001 93.7433 208.001 93.6365 201.186C93.5297 194.22 93.1878 187.063 92.8887 185.225C92.7391 184.349 92.7605 184.178 93.0596 184.072C96.7773 182.896 99.854 179.542 101.82 174.5C102.717 172.235 102.909 171.936 102.909 172.726C102.909 174.542 109.169 176.529 114.874 176.529C117.16 176.529 117.16 176.529 117.075 187.148C117.011 193.003 117.053 198.686 117.16 199.797C117.353 201.784 117.353 201.784 115.985 203.109C109.746 209.027 108.635 212.659 112.438 214.646C114.212 215.586 125.151 215.18 127.715 214.091C132.886 211.911 131.134 204.305 124.553 200.352C123.485 199.733 123.485 199.733 123.356 191.806C123.228 184.819 122.95 178.324 122.694 176.102C122.609 175.354 122.609 175.354 124.446 174.457C131.433 171.06 134.445 164.565 134.403 152.92C134.36 138.477 131.582 135.4 119.382 136.34C112.374 136.853 110.259 137.793 110.323 140.336C110.387 142.664 112.139 143.199 117.972 142.664C127.224 141.831 127.736 142.109 128.356 148.69C129.937 165.505 122.801 173.517 109.105 170.248C105.772 169.436 104.597 169.329 103.935 169.778C103.401 170.141 103.401 170.141 103.999 167.641C105.922 159.779 106.67 149.074 105.559 145.506C105.473 145.25 105.687 145.015 106.285 144.716C110.857 142.387 108.507 135.208 101.563 130.272C100.965 129.845 100.965 129.845 101.221 127.815C101.371 126.512 101.435 122.516 101.392 116.598C101.371 111.534 101.328 105.937 101.328 104.12C101.307 100.83 101.307 100.83 103.337 100.403C115.729 97.8816 119.489 92.4974 119.446 77.3917C119.425 65.2559 117.78 64.1021 101.307 64.7645C85.0047 65.4268 83.4663 65.7046 83.4663 67.9053C83.4663 70.6401 84.321 70.7683 99.7685 70.341C113.849 69.9564 113.592 69.9136 113.592 73.0972C113.592 91.13 110.665 94.6767 95.4312 95.0613C89.7265 95.2109 89.0215 95.5313 89.0215 97.903C89.0215 99.655 90.5171 100.659 93.8929 101.108C95.8585 101.386 95.8585 101.386 95.7517 103.971C95.6876 105.402 95.474 111.257 95.303 117.025C94.8971 130.785 95.303 128.926 91.9486 132.217C86.2012 137.9 85.1542 139.908 86.5216 142.622C87.0344 143.605 87.0344 143.605 86.0943 143.946C84.15 144.694 83.5731 146.916 85.0047 148.241C86.3721 149.48 87.825 149.437 95.4953 147.985C97.6105 147.579 99.5121 147.258 99.7685 147.258C100.837 147.258 99.5976 159.907 97.8669 166.744C95.3244 176.807 92.205 180.033 86.4575 178.581C79.1931 176.743 76.7574 171.808 75.0268 155.42C74.7277 152.557 74.4285 149.801 74.3645 149.309C74.2363 148.369 74.2363 148.369 75.5823 148.241C80.9451 147.685 82.9108 145.1 80.8383 141.383C80.2187 140.272 74.9841 132.793 73.8517 131.426C73.2321 130.635 73.2321 130.635 73.3603 126.832C73.4671 123.328 73.168 110.722 72.8688 105.381C72.7193 103.138 72.7193 103.138 74.3645 102.881C85.3679 101.129 93.3374 89.2498 92.8887 75.2338C92.8246 73.3749 90.6666 72.7339 85.3892 73.0331C82.6758 73.1826 82.6758 73.1826 82.6758 71.8579C82.6758 70.0418 82.1203 69.294 76.5438 63.7389C71.9501 59.1666 71.9501 59.1666 71.8219 45.6847C71.7578 38.2708 71.6724 31.626 71.651 30.9423C71.6083 29.6603 71.6083 29.6603 72.4629 29.5962C81.757 28.827 88.7864 23.1223 91.8845 13.8709C95.2817 3.65802 91.6922 0.346312 76.9497 0.132653C73.2321 0.0899215 71.3091 0.154019 69.9631 0.367678ZM71.4373 67.2429C74.4713 70.0205 74.92 69.7641 67.4846 69.5504C62.2927 69.3795 62.2927 69.3795 64.8139 67.6275C66.2027 66.6447 67.6342 65.6191 67.9761 65.3413C68.788 64.679 68.4461 64.4867 71.4373 67.2429ZM39.3671 134.054C43.7044 138.52 43.9608 138.22 35.4999 138.263C29.8593 138.284 29.0688 138.178 29.5388 137.451C30.1584 136.49 35.2435 130.165 35.4144 130.165C35.4785 130.165 37.2733 131.917 39.3671 134.054ZM98.3797 135.977C98.807 136.49 99.7258 137.473 100.409 138.199C102.033 139.93 102.119 139.866 98.102 139.716C93.4656 139.545 93.5938 139.673 95.6662 137.152C97.696 134.716 97.3755 134.866 98.3797 135.977ZM70.8818 137.579C71.3732 138.263 72.4415 139.609 73.2534 140.549C74.044 141.511 74.7063 142.344 74.7063 142.429C74.7063 142.6 68.2965 142.558 65.4335 142.365C63.2969 142.237 63.2969 142.237 65.113 140.72C66.0959 139.866 67.5915 138.562 68.4034 137.793C69.2366 137.003 69.9203 136.383 69.9203 136.362C69.9417 136.362 70.369 136.917 70.8818 137.579ZM122.566 207.66C123.848 209.112 123.869 209.091 120.579 209.305C118.442 209.433 118.464 209.604 120.194 207.553C121.369 206.185 121.241 206.185 122.566 207.66ZM25.4366 212.339C26.4621 213.236 26.3339 213.407 24.3896 213.663C22.5735 213.92 22.659 214.027 23.5777 212.681C24.4965 211.377 24.3896 211.399 25.4366 212.339ZM92.2904 216.42C93.1878 217.595 93.4869 218.193 93.1878 218.193C93.1237 218.193 92.2477 218.321 91.2221 218.492C87.2481 219.133 87.419 219.133 87.9318 218.471C88.1882 218.15 88.936 217.125 89.5983 216.185C90.5598 214.838 90.8376 214.561 91.0298 214.817C91.158 214.988 91.7136 215.714 92.2904 216.42ZM54.601 221.868C53.96 222.124 49.9219 222.402 49.9219 222.21C49.9219 222.103 50.4133 221.184 51.0115 220.116C52.1012 218.214 52.1012 218.214 53.5541 219.966C54.8788 221.547 54.9856 221.74 54.601 221.868Z" fill="black"/>
<path d="M40.6702 4.1503C35.8202 9.04309 33.9186 20.0038 35.8202 32.2037C37.7645 44.8737 35.7134 49.6169 26.3765 54.0824C18.9625 57.6291 22.381 62.4792 30.1582 59.4239C40.9694 55.2148 44.8366 46.2625 42.4009 31.0286C40.6702 20.2602 40.9907 15.2819 43.7683 9.44904C44.9007 7.05606 45.2639 5.88094 45.093 5.0263C44.7084 2.99654 42.294 2.52649 40.6702 4.1503Z" fill="black"/>
<path d="M62.4425 11.1357C59.5794 11.734 60.0922 15.238 63.1048 15.8148C66.2242 16.4345 76.4585 16.7122 78.5951 16.2635C81.6717 15.6012 82.0563 12.6741 79.236 11.4135C78.36 11.0289 64.1731 10.7939 62.4425 11.1357Z" fill="black"/>
<path d="M97.6969 39.4215C94.8125 42.4555 92.0563 49.7412 93.1673 51.4291C94.8339 53.9717 98.7225 50.3181 101.628 43.5237C103.338 39.4642 100.474 36.473 97.6969 39.4215Z" fill="black"/>
<path d="M106.926 41.7123C103.892 43.3575 101.029 51.4338 102.823 53.3567C105.58 56.348 113.143 46.3701 110.921 42.6311C110.195 41.3918 108.336 40.9432 106.926 41.7123Z" fill="black"/>
<path d="M96.1795 78.8676C91.9277 79.2094 91.6286 83.3117 95.7949 83.9954C102.504 85.085 109.084 84.85 110.58 83.4826C114.298 80.0641 107.632 77.9275 96.1795 78.8676Z" fill="black"/>
<path d="M31.8674 79.9543C30.4572 80.0398 29.0684 80.1252 28.812 80.1466C26.9318 80.2534 26.5045 83.4797 28.2779 84.1847C29.0471 84.4839 36.5679 85.2744 39.2386 85.3385C46.3748 85.4881 46.3321 80.5098 39.1745 79.9543C36.3756 79.7406 35.8201 79.7406 31.8674 79.9543Z" fill="black"/>
<path d="M73.1037 80.7447C68.8091 80.8729 62.0148 81.6848 61.0319 82.1976C59.0663 83.2018 59.4081 86.428 61.502 87.0476C63.9377 87.7314 76.5008 86.7699 78.552 85.723C83.0602 83.4368 79.9194 80.5524 73.1037 80.7447Z" fill="black"/>
<path d="M119.575 107.241C117.716 109.142 116.712 114.911 117.545 118.949C118.848 125.124 122.929 128.372 132.181 130.615C139.958 132.474 141.603 134.653 144.252 146.725C145.385 151.831 146.154 153.177 148.077 153.391C153.44 154.011 149.936 135.401 143.505 129.098C140.983 126.62 139.338 125.829 133.356 124.269C124.489 121.962 122.246 118.821 123.763 110.809C124.468 106.984 121.968 104.848 119.575 107.241Z" fill="black"/>
<path d="M5.24541 113.95C3.72843 115.573 6.12141 120.915 9.96727 124.462C13.1508 127.41 16.1847 125.38 14.3686 121.513C13.8131 120.295 9.56132 114.484 8.70668 113.779C7.78795 113.01 6.05731 113.095 5.24541 113.95Z" fill="black"/>
<path d="M2.87453 123.303C0.267887 125.632 5.97258 132.447 9.49795 131.208C11.4209 130.546 10.8226 127.79 8.1519 124.862C5.95121 122.491 4.32741 121.999 2.87453 123.303Z" fill="black"/>
<path d="M118.506 152.108C110.814 152.899 110.173 153.155 110.173 155.441C110.173 158.048 112.353 158.411 120.707 157.172C128.463 156.04 126.411 151.296 118.506 152.108Z" fill="black"/>
<path d="M22.8943 153.386C14.9676 154.091 10.9722 154.882 10.4808 155.843C8.81422 159.07 11.6559 159.946 21.2064 159.134C28.5136 158.514 30.2656 157.83 30.2656 155.672C30.2656 153.579 28.1076 152.916 22.8943 153.386Z" fill="black"/>
<path d="M86.458 155.592C77.5484 156.789 74.8349 158.541 77.7407 161.233C79.0227 162.408 92.2695 161.147 94.342 159.652C98.4656 156.66 94.342 154.524 86.458 155.592Z" fill="black"/>
<path d="M43.4045 158.988C40.3492 159.287 39.0245 161.359 40.8406 163.069C42.4003 164.522 54.643 164.351 56.16 162.855C59.0657 159.928 52.9765 158.09 43.4045 158.988Z" fill="black"/>
</svg>
