<svg width="413" height="527" viewBox="0 0 413 527" fill="none" xmlns="http://www.w3.org/2000/svg">
<path d="M233.412 0.717538C228.669 1.93539 226.639 9.34936 229.181 16.1223C231.147 21.3784 235.527 20.5237 234.501 15.0754C234.095 12.9816 234.074 11.2296 234.395 9.34936C234.758 7.27686 235.078 7.64008 235.762 10.9518C236.894 16.4642 242.065 16.1223 242.065 10.5458C242.065 4.73432 237.578 -0.372123 233.412 0.717538Z" fill="black"/>
<path d="M252.384 7.68329C247.534 9.02934 243.282 13.9435 243.902 17.4048C244.436 20.3319 247.855 20.4601 249.329 17.6184C250.077 16.1442 253.196 13.7939 254.414 13.7726C255.012 13.7726 254.478 15.2895 253.132 17.4048C249.97 22.3403 255.098 25.2247 258.709 20.5242C263.943 13.7298 259.926 5.5467 252.384 7.68329Z" fill="black"/>
<path d="M239.223 22.551C238.39 23.192 238.112 23.833 237.578 26.4824C236.851 30.1573 236.189 32.6357 235.035 35.9902C233.711 39.8147 233.86 41.0325 235.676 41.5453C240.142 42.8273 246.231 25.585 242.364 22.551C241.595 21.9528 240.035 21.9528 239.223 22.551Z" fill="black"/>
<path d="M224.523 22.9561C217.964 24.0885 218.134 34.0236 224.779 37.3781C229.309 39.6856 232.129 35.7542 228.283 32.4853C226.873 31.2674 226.125 30.3273 225.933 29.5154C225.677 28.5112 226.766 28.7249 228.262 29.9855C230.762 32.1007 233.283 31.2674 233.048 28.4044C232.77 25.114 228.369 22.2937 224.523 22.9561Z" fill="black"/>
<path d="M248.283 33.8546C245.569 34.2819 243.283 36.0766 243.283 37.7859C243.283 39.9225 244.992 40.7344 247.556 39.837C250.377 38.8542 251.189 39.367 249.907 41.3113C247.556 44.9008 250.526 48.0202 253.945 45.5845C260.312 41.0549 256.231 32.6154 248.283 33.8546Z" fill="black"/>
<path d="M205.423 45.842C184.314 46.4616 164.294 48.3631 153.397 50.7348C134.745 54.8156 129.168 62.6142 130.514 82.7836C131.155 92.3982 136.518 134.404 137.351 136.433C138.42 138.955 141.902 138.549 142.351 135.856C142.842 132.908 142.052 122.567 139.723 101.265C137.779 83.4673 137.715 82.7836 137.715 77.0148C137.715 62.6142 141.966 59.0888 162.99 56.0762C184.826 52.9568 230.955 51.7603 241.873 54.0465C248.71 55.478 250.249 59.1316 251.36 76.4807C251.851 84.4288 252.855 105.004 253.496 120.601C254.095 135.344 254.436 136.69 257.556 136.69C261.017 136.69 261.167 135.002 259.821 112.375C259.457 106.372 258.88 95.3681 258.517 87.9114C256.487 45.0942 255.526 44.325 205.423 45.842Z" fill="black"/>
<path d="M229.972 54.7917C222.238 58.6589 215.742 72.5254 221.639 72.5254C222.857 72.5254 223.413 71.9912 224.524 69.7478C226.49 65.7738 229.224 62.6116 232.814 60.1759C238.412 56.3728 235.976 51.7577 229.972 54.7917Z" fill="black"/>
<path d="M208.82 58.8541C200.038 60.7129 200.145 70.3703 209.033 79.2799C210.935 81.1601 213.435 83.724 214.61 84.9632C216.917 87.3989 217.58 87.7408 219.182 87.2707C221.96 86.4802 221.255 82.8907 217.473 78.8739C215.849 77.1433 215.849 77.1433 216.554 75.6263C220.849 66.5672 216.533 57.2089 208.82 58.8541ZM211.319 65.4989C212.281 66.5458 212.559 69.1738 211.939 71.9941C211.64 73.447 210.315 72.4214 208.948 69.6652C207.516 66.8236 209.418 63.4691 211.319 65.4989Z" fill="black"/>
<path d="M231.702 66.9708C226.873 67.8254 221.938 73.4874 223.797 76.0086C224.545 77.0341 226.489 76.8205 227.408 75.6454C228.348 74.3848 232.685 72.2482 233.198 72.7823C233.668 73.2524 231.766 76.8632 229.523 79.7262C224.801 85.7514 228.946 89.7255 234.138 84.1704C242.3 75.4317 240.868 65.347 231.702 66.9708Z" fill="black"/>
<path d="M195.081 80.9884C187.923 82.9113 188.052 92.4832 195.337 99.9399C198.414 103.081 202.345 102.119 201.448 98.4443C201.149 97.2692 200.935 96.906 199.354 94.8549C196.705 91.3936 195.508 87.27 197.154 87.27C199.311 87.27 203.05 91.479 204.802 95.9018C206.704 100.688 210.913 99.5554 210.016 94.513C208.52 85.9666 201.192 79.3432 195.081 80.9884Z" fill="black"/>
<path d="M218.306 91.5173C218.007 91.7096 216.468 93.1625 214.887 94.765C213.328 96.346 209.738 99.8928 206.918 102.649C197.538 111.836 193.799 117.947 192.709 125.959C191.833 132.369 196.854 134.335 197.923 128.01C199.183 120.532 203.414 114.464 214.054 104.807C221.34 98.1835 223.327 95.4273 222.643 92.8848C222.194 91.2396 219.866 90.5131 218.306 91.5173Z" fill="black"/>
<path d="M171.066 95.6169C161.964 97.7535 166.067 116.491 177.284 123.991C184.099 128.563 188.949 124.525 182.283 119.846C176.472 115.744 172.22 108.736 172.455 103.672C172.604 100.574 176.023 105.146 177.775 110.765C179.42 116.128 183.544 115.167 182.86 109.59C181.813 100.937 176.279 94.3777 171.066 95.6169Z" fill="black"/>
<path d="M224.395 99.4066C219.865 101.03 219.374 105.966 223.775 105.966C225.271 105.966 225.335 105.987 225.143 106.372C224.758 107.077 222.985 108.744 221.682 109.62C217.259 112.547 220.207 116.371 225.1 114.064C234.843 109.47 234.181 95.9026 224.395 99.4066Z" fill="black"/>
<path d="M159.443 116.754C149.849 118.656 153.567 130.407 164.656 133.227C171.343 134.915 172.07 130.065 165.617 126.775C160.19 124.04 159.549 122.16 164.079 122.331C166.408 122.395 166.536 122.374 167.262 121.647C170.04 118.87 164.934 115.686 159.443 116.754Z" fill="black"/>
<path d="M219.31 120.536C213.563 121.433 208.627 125.942 208.627 130.279C208.627 133.42 211.982 133.761 213.713 130.792C216.597 125.877 221.938 125.771 227.13 130.535C231.553 134.595 235.57 130.749 232.044 125.813C229.481 122.181 223.754 119.81 219.31 120.536Z" fill="black"/>
<path d="M232.13 139.525C231.318 139.568 227.665 139.696 224.011 139.824C220.379 139.952 211.918 140.294 205.209 140.572C198.522 140.871 187.647 141.298 181.066 141.533C150.256 142.623 133.42 144.055 111.84 147.43C72.7195 153.541 61.7801 159.545 60.9469 175.377C60.4127 185.44 66.8439 212.212 77.8473 245.692C79.3002 250.158 80.7317 254.58 80.9881 255.499C82.2914 260.05 86.65 259.644 85.9877 255.029C85.4749 251.44 83.6161 244.068 79.9411 231.163C67.4207 187.299 65.4551 172.984 71.0316 166.617C77.2704 159.481 105.837 153.157 145.812 150.08C155.534 149.332 160.854 149.097 185.232 148.264C190.467 148.071 200.124 147.687 206.705 147.409C228.968 146.426 232.323 146.341 246.232 146.362C262 146.362 263.773 146.426 297.51 148.05C311.248 148.712 313.406 149.332 315.222 153.135C318.555 160.1 318.534 169.395 315.137 217.917C314.432 227.894 313.769 237.573 313.641 239.389C312.445 257.187 313.727 263.469 318.384 262.529C320.542 262.101 320.863 260.862 320.991 252.102C321.141 242.893 321.589 233.77 323.149 208.195C324.346 188.731 324.516 185.163 324.751 178.133C325.521 152.473 321.931 143.991 309.347 141.875C305.843 141.298 301.57 141.063 274.435 139.91C267.256 139.611 236.233 139.333 232.13 139.525Z" fill="black"/>
<path d="M191.812 154.591C189.974 155.958 190.637 158.159 193.286 159.462C200.358 162.966 209.845 161.428 208.007 157.069C207.324 155.424 206.832 155.275 201.79 155.146C198.115 155.061 197.004 154.954 195.701 154.591C193.671 154.035 192.56 154.035 191.812 154.591Z" fill="black"/>
<path d="M176.472 155.256C176.087 155.533 175.254 156.602 174.613 157.67C172.241 161.559 170.126 163.802 164.122 168.695C149.828 180.425 143.632 192.667 146.218 204.141C147.606 210.358 151.388 209.803 151.709 203.329C152.285 191.471 156.302 184.505 168.459 174.293C177.433 166.772 181.471 161.153 180.873 157.072C180.574 155.042 178.202 154.08 176.472 155.256Z" fill="black"/>
<path d="M155.042 156.509C152.328 158.624 156.537 165.889 160.469 165.889C163.567 165.889 163.951 163.068 161.259 160.184C160.276 159.137 159.251 157.962 158.952 157.513C157.969 156.06 156.195 155.59 155.042 156.509Z" fill="black"/>
<path d="M131.625 160.898C124.467 163.42 119.831 177.948 126.177 177.948C128.078 177.948 128.57 177.243 129.232 173.59C129.574 171.71 130.685 169.445 131.903 168.077C133.185 166.689 133.249 166.753 133.142 168.932C132.907 173.397 134.873 175.214 139.338 174.658C142.628 174.252 142.778 174.658 140.663 178.696C138.035 183.674 141.09 186.687 144.85 182.82C150.577 176.923 148.376 168.462 141.111 168.462C139.573 168.462 139.573 168.462 139.445 166.689C139.082 161.774 135.898 159.403 131.625 160.898Z" fill="black"/>
<path d="M183.8 163.869C179.826 166.668 190.68 176.475 195.06 174.061C197.431 172.757 196.555 170.193 193.094 168.292C192.239 167.822 190.423 166.647 189.099 165.685C185.787 163.314 184.975 163.057 183.8 163.869Z" fill="black"/>
<path d="M110.301 171.691C102.139 173.059 100.238 180.494 106.989 184.725C107.78 185.216 108.463 185.643 108.506 185.686C108.549 185.729 108.058 186.327 107.395 187.011C98.6779 196.177 109.254 205.321 121.689 199.339C127.436 196.561 124.744 192.181 118.356 193.912C115.044 194.809 111.284 194.617 111.134 193.549C111.07 193.079 112.096 191.647 113.976 189.575C117.33 185.921 116.711 183.144 111.903 180.216C108.912 178.4 109.724 177.61 114.617 177.546C118.313 177.503 119.51 176.627 119.082 174.319C118.698 172.247 114.489 170.986 110.301 171.691Z" fill="black"/>
<path d="M178.652 175.53C174.314 176.385 169.806 181.256 169.785 185.145C169.763 188.499 173.289 188.884 174.913 185.679C177.882 179.825 182.946 180.252 184.976 186.555C186.365 190.828 188.651 192.195 190.296 189.76C194.185 184.076 186.001 174.077 178.652 175.53Z" fill="black"/>
<path d="M128.76 178.375C121.474 181.067 123.568 192.604 132.414 198.394C137.841 201.963 141.58 199.869 137.648 195.446C133.354 190.617 132.863 189.763 133.803 188.801C137.99 184.507 134.059 176.409 128.76 178.375Z" fill="black"/>
<path d="M181.214 199.568C177.668 200.294 175.104 203.114 174.249 207.195C173.138 212.537 177.732 213.84 180.039 208.84C182.112 204.311 184.12 206.106 182.774 211.297C180.958 218.241 176.963 219.652 169.1 216.105C161.707 212.772 157.669 212.921 153.631 216.639C149.08 220.869 146.452 229.053 148.033 234.116C149.08 237.471 152.306 236.466 152.435 232.749C152.605 227.536 156.964 220.463 160.404 219.822C161.536 219.609 163.395 220.143 166.664 221.66C176.236 226.104 182.24 224.929 187.047 217.729C192.987 208.798 189.462 197.88 181.214 199.568Z" fill="black"/>
<path d="M129.21 214.845C121.839 220.422 117.993 221.34 109.169 219.631C100.473 217.943 96.3706 219.311 94.64 224.438C93.3366 228.306 95.5587 234.224 99.7464 237.942C105.665 243.219 109.66 239.565 104.404 233.668C102.524 231.553 101.37 229.673 101.028 228.156C100.387 225.314 101.648 224.994 108.421 226.297C117.843 228.092 124.616 226.297 131.817 220.101C137.286 215.401 134.893 210.551 129.21 214.845Z" fill="black"/>
<path d="M193.799 219.95C191.876 220.762 191.812 222.984 193.606 225.804C198.157 232.94 196.662 237.107 190.359 234.906C184.718 232.919 182.603 233.795 181.898 238.367C181.428 241.358 181.236 241.935 180.659 242.085C179.334 242.405 176.834 240.269 173.693 236.081C169.313 230.269 166.258 228.517 163.481 230.205C161.344 231.509 162.113 234.479 164.592 234.479C165.233 234.479 165.916 235.29 168.138 238.645C172.903 245.824 176.001 248.238 180.424 248.238C184.334 248.259 186.876 245.995 187.603 241.828C187.752 241.016 187.88 240.333 187.902 240.29C187.923 240.269 188.372 240.397 188.885 240.568C196.918 243.431 202.751 239.628 202.751 231.551C202.751 225.056 197.581 218.347 193.799 219.95Z" fill="black"/>
<path d="M125.94 233.988C118.034 234.992 117.693 240.739 125.513 241.103C131.004 241.359 131.153 242.555 126.047 245.269C123.226 246.765 122.479 248.153 123.611 249.734C125.427 252.234 133.653 248.623 135.661 244.414C138.183 239.222 132.521 233.133 125.94 233.988Z" fill="black"/>
<path d="M151.794 240.955C146.303 243.199 143.269 253.946 147.884 254.864C149.443 255.185 150.384 254.223 151.025 251.638C152.52 245.527 154.08 245.314 158.951 250.506C162.071 253.839 163.994 254.629 165.382 253.155C169.057 249.245 157.306 238.69 151.794 240.955Z" fill="black"/>
<path d="M110.024 246.874C105.131 247.9 101.114 253.006 101.905 257.173C102.824 262.001 107.887 262.301 107.887 257.515C107.887 254.63 109.832 253.113 113.827 252.857C116.605 252.686 117.224 252.387 117.673 251.041C118.677 248.049 114.725 245.913 110.024 246.874Z" fill="black"/>
<path d="M261.828 262.617C254.862 262.745 240.996 263.172 228.07 263.642C211.148 264.283 198.093 264.775 194.311 264.924C192.794 264.967 189.91 265.074 187.902 265.138C185.915 265.202 183.073 265.288 181.599 265.352C180.124 265.416 177.005 265.501 174.655 265.565C172.305 265.629 168.95 265.736 167.177 265.779C159.271 266.057 140.491 266.313 121.026 266.42C56.416 266.805 54.3435 268.621 56.3732 323.04C57.1424 343.594 57.7407 347.098 60.5182 347.61C63.7017 348.209 63.7017 348.251 63.6163 320.155C63.5095 281.141 64.7059 277.594 78.8288 274.774C86.606 273.236 90.11 273.107 129.466 273.043C148.567 273.022 164.72 272.937 165.361 272.872C166.002 272.808 169.762 272.68 173.693 272.616C177.625 272.552 182.197 272.445 183.842 272.381C185.487 272.338 191.448 272.146 197.089 271.975C202.73 271.804 208.691 271.612 210.336 271.548C213.605 271.42 232.556 270.757 245.269 270.33C256.037 269.967 286.676 269.967 293.663 270.33C334.792 272.445 339.834 273.877 345.048 284.987C352.761 301.375 354.342 324.77 349.513 350.815C343.979 380.599 333.638 384.531 255.738 386.496C253.217 386.56 242.491 386.753 231.915 386.945C221.339 387.116 208.456 387.351 203.285 387.436C187.517 387.714 178.394 387.778 160.34 387.757C139.764 387.735 132.564 387.5 115.599 386.368C105.771 385.706 103.058 386.389 103.72 389.381C104.874 394.658 128.825 395.961 204.353 394.914C210.229 394.85 220.463 394.722 227.108 394.637C247.683 394.402 266.4 394.081 274.327 393.867C337.826 392.051 351.842 384.787 357.119 350.922C363.187 311.951 355.795 276.996 339.77 269.005C331.032 264.647 298 261.933 261.828 262.617Z" fill="black"/>
<path d="M147.734 274.839C140.662 276.762 134.637 283.385 137.521 286.056C138.718 287.167 140.021 286.932 141.816 285.329C144.444 282.958 147.777 281.526 151.794 281.056C155.148 280.65 156.259 279.86 156.259 277.83C156.259 275.01 152.242 273.621 147.734 274.839Z" fill="black"/>
<path d="M95.1519 275.823C90.7078 279.327 93.8486 297.168 98.9123 297.168C101.113 297.168 101.69 295.843 100.921 292.553C100.045 288.707 99.7028 285.887 99.6601 281.592C99.596 276.336 99.6601 276.721 98.8696 275.952C97.9508 275.054 96.1988 274.99 95.1519 275.823Z" fill="black"/>
<path d="M118.784 280.015C109.811 281.51 102.418 298.496 106.926 307.32C108.358 310.141 111.819 310.141 111.776 307.32C111.755 306.808 111.734 305.269 111.712 303.923C111.584 295.655 116.135 286.403 120.344 286.403C122.331 286.403 123.442 288.668 124.874 295.59C126.198 302.064 126.797 303.154 129.04 303.154C131.818 303.154 132.544 300.163 131.412 293.582C130.044 285.762 126.818 281.104 122.053 280.1C120.43 279.758 120.43 279.758 118.784 280.015Z" fill="black"/>
<path d="M73.5308 283.11C67.6338 286.037 66.8219 299.647 72.0992 307.04C75.7528 312.168 79.8551 309.582 76.8852 304.027C75.1118 300.694 74.3213 295.588 75.0477 291.934C76.1801 286.251 77.5262 288.494 77.7612 296.442C77.868 300.245 77.9535 301.378 78.2313 301.891C79.6628 304.583 83.0386 303.536 83.6155 300.224C85.5598 289.199 80.0474 279.862 73.5308 283.11Z" fill="black"/>
<path d="M157.99 292.765C157.413 293 156.323 293.47 155.575 293.854C152.071 295.628 147.82 297.102 144.123 297.85C140.876 298.491 139.594 300.756 141.388 302.7C143.803 305.285 156.964 302.7 161.173 298.811C164.72 295.542 162.412 291.141 157.99 292.765Z" fill="black"/>
<path d="M88.2726 294.26C84.8968 297.636 85.1105 303.319 88.8495 309.003C91.4775 312.998 91.8194 314.237 91.4134 318.169C90.5374 326.651 94.1269 331.565 100.366 330.433C107.374 329.172 107.908 322.484 100.943 323.019C98.4855 323.211 98.5923 323.425 98.5496 318.724C98.4855 312.656 97.9514 311.096 94.1055 305.392C91.4348 301.439 91.4134 301.311 92.5031 297.08C93.2722 294.025 90.4306 292.102 88.2726 294.26Z" fill="black"/>
<path d="M131.817 306.266C127.95 306.757 123.035 310.347 122.822 312.782C122.565 315.987 125.151 316.756 128.185 314.406C133.676 310.154 136.838 311.735 134.488 317.568C132.265 323.081 136.581 325.858 139.744 320.944C143.589 315.004 141.154 307.163 135.214 306.373C133.377 306.116 132.971 306.116 131.817 306.266Z" fill="black"/>
<path d="M150.192 309.751C144.381 311.738 144.616 317.122 150.427 315.562C153.589 314.708 153.568 314.515 151.154 320.605C147.265 330.369 147.564 333.595 152.799 338.552C154.764 340.411 154.764 340.411 152.841 341.757C146.453 346.329 147.671 351.756 154.551 349.32C162.691 346.457 164.4 339.364 158.204 334.044C155.106 331.373 154.786 329.685 156.495 324.857C159.016 317.656 159.038 317.635 159.038 315.242C159.08 310.264 155.384 307.977 150.192 309.751Z" fill="black"/>
<path d="M71.2019 316.014C69.3217 317.125 68.7876 318.941 68.7876 324.176C68.809 336.696 73.0608 345.413 80.2824 347.657C85.8162 349.387 88.0383 344.623 83.0386 341.696C78.9364 339.303 76.5434 335.158 75.411 328.598C74.7273 324.646 74.7059 324.646 77.0348 327.872C86.7563 341.375 91.7773 345.734 94.213 342.764C95.3668 341.354 95.0035 340.328 92.0337 336.461C90.6876 334.73 88.4015 331.611 86.9486 329.56C77.6972 316.441 74.7273 313.899 71.2019 316.014Z" fill="black"/>
<path d="M116.049 318.682C112.075 319.045 110.237 320.263 110.237 322.549C110.237 324.472 111.84 325.348 114.233 324.707C118.463 323.596 124.531 325.604 126.582 328.809C129.509 333.382 134.381 330.134 131.902 325.241C129.616 320.754 123.142 318.062 116.049 318.682Z" fill="black"/>
<path d="M117.609 332.635C114.169 333.297 112.866 334.558 113.443 336.63C113.849 337.998 114.447 338.211 117.652 338.169C120.964 338.104 120.729 337.912 120.942 340.69C121.241 344.429 122.758 346.523 126.262 347.954C128.484 348.873 128.42 349.065 124.938 351.074C119.062 354.449 122.78 359.641 128.933 356.607C136.133 353.039 136.539 345.689 129.702 342.463C127.309 341.331 127.395 341.416 127.096 339.066C126.433 333.618 123.335 331.524 117.609 332.635Z" fill="black"/>
<path d="M96.3924 351.798C92.0979 352.524 90.1109 355.451 91.115 359.575C91.6919 362.01 91.7133 361.989 87.0769 363.207C81.2654 364.724 78.4023 366.796 78.4023 369.489C78.4023 371.924 80.7526 372.736 83.0815 371.134C84.1498 370.386 85.2608 370.023 88.1666 369.51C96.307 368.057 99.2555 364.916 97.9949 358.998C97.7171 357.673 99.9178 357.759 105.964 359.297C111.22 360.622 113.613 359.703 112.801 356.648C111.99 353.678 102.311 350.815 96.3924 351.798Z" fill="black"/>
<path d="M63.6167 352.524C58.553 353.806 55.0276 358.379 55.754 362.716C56.16 365.194 57.1214 367.011 60.1127 370.985C60.9673 372.117 62.3988 374.125 63.3176 375.45C65.5823 378.719 66.6506 379.424 68.5736 378.911C71.6716 378.078 70.6461 374.382 65.3046 367.16C62.1638 362.908 61.8006 361.861 63.0184 360.473C64.4713 358.806 67.1848 358.165 69.2359 359.02C72.5049 360.387 74.4705 357.417 72.2271 354.576C70.6674 352.61 66.8429 351.713 63.6167 352.524Z" fill="black"/>
<path d="M146.559 352.972C140.983 354.168 136.645 357.694 137.393 360.428C138.055 362.779 140.107 363.121 143.141 361.369C148.033 358.57 147.392 359.958 141.581 364.787C133.932 371.111 140.812 374.594 148.632 368.334C157.691 361.091 156.323 350.878 146.559 352.972Z" fill="black"/>
<path d="M372.61 365.791C368.55 367.137 369.96 370.15 375.387 371.731C376.028 371.923 377.759 372.414 379.212 372.842C389.147 375.726 401.667 383.354 401.667 386.516C401.667 388.332 386.604 391.473 358.722 395.447C327.271 399.934 307.294 401.28 242.064 403.267C211.425 404.207 207.259 404.356 171.557 405.831C137.371 407.241 133.846 407.348 116.86 407.476C63.1889 407.86 17.7864 401.152 9.0905 391.516C6.4625 388.588 13.8978 383.525 27.807 378.803C34.2168 376.602 38.5541 375.47 44.622 374.401C46.6945 374.06 47.485 372.671 46.7586 370.748C44.6433 365.342 10.8425 376.068 4.06952 384.294C-11.9549 403.78 53.7879 417.24 146.238 413.416C147.776 413.352 154.015 413.116 160.126 412.881C166.237 412.646 173.394 412.347 176.044 412.24C189.611 411.642 214.78 410.788 237.898 410.104C314.452 407.86 337.014 406.066 381.049 398.652C404.723 394.678 410.043 391.964 408.184 384.785C405.919 376.111 381.306 362.971 372.61 365.791Z" fill="black"/>
<path d="M407.138 399.015C406.112 399.827 405.877 400.703 405.727 404.229C405.215 417.347 394.318 419.655 303.705 425.787C277.831 427.539 255.119 428.586 226.681 429.334C222.28 429.44 216.597 429.59 214.075 429.654C132.821 431.812 102.439 431.363 63.98 427.517C18.1288 422.902 6.82628 418.416 5.84345 404.421C5.5016 399.592 1.52754 399.101 0.694273 403.78C-0.84407 412.54 2.76676 419.612 11.0995 424.163C22.7866 430.53 57.5275 435.359 107.139 437.474C115.664 437.837 147.969 437.965 162.263 437.688C253.282 435.936 277.233 434.846 348.467 429.227C394.361 425.595 406.304 422.326 411.518 411.984C414.637 405.788 411.261 395.768 407.138 399.015Z" fill="black"/>
<path d="M160.832 440.51C160.041 441.151 159.849 441.75 159.593 444.549C158.054 460.637 153.29 470.145 139.017 485.828C129.937 495.805 128.057 498.284 126.775 502.087C122.886 513.689 137.436 522.171 165.575 524.735C228.519 530.461 276.913 523.88 286.036 508.347C290.309 501.104 287.596 494.993 276.635 487.088C261.999 476.576 258.666 471.256 257.021 455.83C255.718 443.523 255.333 441.985 253.368 440.959C244.992 436.643 246.466 465.017 255.312 478.179C258.816 483.392 262.875 487.152 271.123 492.793C278.985 498.177 280.588 499.801 280.609 502.407C280.759 516.445 220.229 524.265 161.836 517.77C148.739 516.317 139.466 513.325 135.065 509.159C131.689 505.976 132.736 503.689 142.179 493.541C159.443 474.974 165.34 462.71 164.87 446.429C164.678 440.425 163.332 438.438 160.832 440.51Z" fill="black"/>
</svg>
