<svg width="103" height="132" viewBox="0 0 103 132" fill="none" xmlns="http://www.w3.org/2000/svg">
<path d="M96.4191 1.01494C85.5225 3.38656 72.3825 15.266 69.7545 25.1157C68.5366 29.6666 71.7843 31.4613 73.8354 27.3591C78.1727 18.7273 88.5778 10.0527 98.5343 6.78373C101.397 5.82227 102.231 5.28812 102.551 4.113C103.299 1.31407 100.842 0.0534782 96.4191 1.01494Z" fill="black"/>
<path d="M35.2275 9.92901C30.3347 11.6596 26.8307 17.8771 26.3179 25.8252C26.1684 27.9832 26.1684 27.9832 24.3736 26.9576C15.5282 21.8725 4.43926 23.1972 1.23438 29.7138C-2.26962 36.8287 5.57166 44.3281 16.5537 44.3708C24.1813 44.4136 24.6087 39.4353 17.0665 38.3029C7.986 36.9141 3.84102 33.2392 8.862 31.0171C13.5839 28.9233 20.5491 31.0812 25.677 36.2091C30.6552 41.1873 33.8815 39.8626 32.9841 33.2178C31.9158 25.2697 33.4328 18.3472 36.7231 16.1678C40.4408 13.7108 42.8551 22.1503 41.5091 32.9401C40.8467 38.3029 41.2313 39.3712 43.7739 39.3712C45.6113 39.3712 46.5728 37.7047 47.5129 32.8546C50.3332 18.3472 44.1585 6.80959 35.2275 9.92901Z" fill="black"/>
<path d="M57.7045 29.219C52.2562 30.7573 49.6069 37.1671 52.2562 42.4658C54.4996 46.9313 59.4138 45.2861 57.4695 40.7352C56.1448 37.6799 57.2345 35.0946 60.0975 34.4536C61.3154 34.1759 61.3581 34.1759 66.2295 35.5433C68.6866 36.227 71.336 36.1629 75.3955 35.3296C80.9506 34.1759 81.5916 34.2827 82.6813 36.7184C84.4119 40.5215 88.7492 39.4105 88.1296 35.3296C87.3177 29.9882 82.7881 28.2148 74.2417 29.9027C70.4813 30.6505 68.8362 30.6078 66.1227 29.7531C63.5161 28.8985 59.6916 28.6635 57.7045 29.219Z" fill="black"/>
<path d="M52.2348 45.2869C40.3981 45.4364 24.5233 46.2483 23.7755 46.7611C21.297 48.3849 22.814 50.9915 26.4462 51.3548C30.5485 51.7607 82.553 51.483 84.07 51.0556C87.9372 49.9233 88.3218 46.9534 84.7537 45.8851C82.8949 45.3296 68.9857 45.0732 52.2348 45.2869Z" fill="black"/>
<path d="M22.2803 52.9347C20.8701 53.533 19.9728 56.866 17.9644 68.9591C10.5504 113.379 17.6866 130.279 44.223 131.177C62.4268 131.796 77.1906 125.216 82.8739 113.998C88.5359 102.76 90.3306 74.1938 86.3138 59.2377C84.9678 54.2594 81.3142 56.2678 81.6988 61.7802C81.7629 62.9126 81.9338 64.9424 82.0407 66.2884C83.1517 79.4071 82.0407 97.4826 79.5836 106.05C76.2078 117.866 66.2513 124.19 49.3295 125.258C26.2543 126.732 18.8831 115.686 22.1093 84.4494C22.9212 76.6509 23.2204 74.151 24.6732 63.9382C26.0834 54.1312 26.0407 53.362 24.1605 52.8279C23.199 52.5715 23.1135 52.5715 22.2803 52.9347Z" fill="black"/>
<path d="M50.0977 64.1705C35.9535 65.8584 30.4838 69.4051 29.2019 77.7165C24.9501 105.172 32.9623 118.846 52.4693 117.35C70.4808 115.983 76.9546 107.821 78.4075 84.6604C79.4117 68.5078 70.1175 61.7775 50.0977 64.1705Z" fill="black"/>
</svg>
