<svg width="101" height="163" viewBox="0 0 101 163" fill="none" xmlns="http://www.w3.org/2000/svg">
<path d="M41.2536 0.651571C22.8362 2.04035 13.4566 7.76641 17.0674 15.4581C20.2937 22.3379 36.1044 26.6325 56.8507 26.2052C74.9476 25.842 84.1136 21.2697 80.5241 14.3898C78.4089 10.3303 70.1617 7.72368 68.3242 10.5226C67.1491 12.3173 68.3242 14.1334 71.8923 16.1205C76.8278 18.8339 55.291 20.5005 41.3604 18.4707C32.2586 17.146 22.9858 13.9198 24.1823 12.4669C26.5325 9.64661 41.5314 6.59129 53.2185 6.56992C59.3078 6.56992 61.5512 5.07431 59.3505 2.5104C57.8763 0.801133 50.035 0.0105947 41.2536 0.651571Z" fill="black"/>
<path d="M91.7839 20.3055C81.2932 23.2968 68.1105 37.6119 65.9311 48.4231C65.0338 52.8031 69.2215 54.3628 70.9949 50.3246C74.7125 41.8424 81.8915 33.5097 89.8182 28.5314C95.6511 24.8778 95.5229 25.9461 88.7713 37.441C79.0925 53.8927 75.7808 66.3918 80.054 70.3445C82.2119 72.3529 84.3699 70.3231 84.9468 65.7935C85.951 57.8454 88.3226 51.8416 95.587 38.7657C99.3688 31.9713 100.608 28.8519 100.715 25.9889C100.864 21.2243 97.0612 18.8099 91.7839 20.3055Z" fill="black"/>
<path d="M15.5072 26.8217C9.41789 28.3173 9.0333 36.009 14.5884 45.3886C15.3576 46.6492 15.3576 46.6492 14.2038 48.0166C4.09778 59.9174 6.91808 80.5782 20.0581 91.0261C26.7884 96.389 35.057 96.1967 31.9375 90.7484C31.5529 90.086 31.0402 89.7228 26.6174 86.8598C14.7594 79.2322 11.5545 62.8232 19.759 51.9479C22.6861 48.0807 22.857 46.5424 20.8059 43.0384C17.7933 37.9105 16.2122 33.5305 17.3874 33.5305C17.8574 33.5305 20.4854 34.8766 25.9764 37.9533C48.9234 50.7728 58.474 53.8709 57.6193 48.2089C57.4057 46.7774 56.8502 46.3928 49.0516 42.4615C40.8471 38.3379 34.7578 35.1543 28.8608 31.9281C20.6563 27.4413 17.6865 26.2875 15.5072 26.8217Z" fill="black"/>
<path d="M79.2419 76.9303C77.3831 77.614 76.913 83.276 77.0412 102.975C77.2335 132.567 81.3571 152.096 86.955 149.788C89.0061 148.933 89.0702 146.861 87.425 137.161C84.4979 119.94 83.7928 112.269 83.2373 92.2924C82.7886 76.4816 82.5963 75.7125 79.2419 76.9303Z" fill="black"/>
<path d="M35.2276 97.0544C33.967 98.2295 34.1379 99.1055 36.4027 103.208C43.8594 116.69 50.9315 133.611 56.8498 152.221C59.4778 160.511 60.1188 161.665 62.1913 162.028C63.6228 162.284 64.6698 161.173 65.0116 159.08C66.144 151.858 51.487 116.177 40.6972 99.9388C38.4111 96.4775 36.7659 95.6229 35.2276 97.0544Z" fill="black"/>
<path d="M27.0667 101.435C26.2334 101.499 25.6779 101.884 25.272 102.675C25.1224 102.974 25.0797 104.64 25.1651 107.802C25.4643 119.618 22.9858 123.763 11.3414 130.856C4.29067 135.151 2.19681 136.903 0.936227 139.638C-3.16602 148.547 10.9355 156.602 23.6268 152.607C33.5833 149.466 33.9893 141.924 24.0541 144.637C17.0247 146.581 10.9141 146.218 8.20063 143.718C7.30326 142.907 8.0938 142.009 11.8115 139.659C22.9858 132.63 26.2548 129.638 28.8828 124.04C32.8141 115.622 31.6604 101.051 27.0667 101.435Z" fill="black"/>
</svg>
