<svg width="157" height="167" viewBox="0 0 157 167" fill="none" xmlns="http://www.w3.org/2000/svg">
<path d="M50.735 0.615317C15.6735 1.70498 4.26415 6.61913 3.55908 20.9129C3.02493 31.8736 7.98182 38.5398 17.6819 39.8217C26.4847 40.9968 27.8948 35.4844 19.263 33.7324C13.131 32.4932 11.144 30.9121 10.0329 26.4253C6.33664 11.3624 18.793 6.93962 64.8151 6.96099C113.978 6.98235 141.967 12.6657 147.458 23.7759C150.385 29.6729 150.022 40.9541 146.839 43.048C143.591 45.1846 138.335 44.9923 93.1249 41.0823C54.8372 37.7706 38.0223 36.6382 30.886 36.8732C28.8777 36.9587 27.9376 39.3089 29.3477 40.7191C30.2237 41.6165 33.5354 42.0224 54.6663 43.9667C59.7086 44.4154 65.3706 44.9495 79.7712 46.317C93.0394 47.5562 118.016 49.7569 129.02 50.6329C140.258 51.5302 147.095 50.8679 150.599 48.539C157.65 43.8599 158.654 26.874 152.415 17.6867C143.655 4.7603 108.188 -1.17942 50.735 0.615317Z" fill="black"/>
<path d="M112.739 24.1983C112.098 24.647 111.051 28.9202 110.41 33.642C109.619 39.6245 114.427 38.9835 115.645 32.9369C117.162 25.4375 115.987 21.9121 112.739 24.1983Z" fill="black"/>
<path d="M124.789 25.2498C123.742 26.2113 121.969 31.8091 122.139 33.497C122.503 36.7233 125.28 36.8942 126.84 33.7962C129.724 28.0915 128.271 22.0236 124.789 25.2498Z" fill="black"/>
<path d="M136.946 28.3726C134.639 30.4024 133.677 37.6241 135.643 38.1155C137.801 38.6496 139.446 36.513 140.771 31.4066C141.54 28.4795 139.061 26.5138 136.946 28.3726Z" fill="black"/>
<path d="M34.2629 45.6526C29.7547 46.614 24.1141 49.648 22.4903 51.9982C20.8665 54.3485 20.7597 56.5064 22.063 60.3523C23.0672 63.3222 23.1313 63.1085 20.0546 66.0997C12.427 73.4923 17.3411 79.4107 28.1095 75.7998C35.9935 73.1505 38.1088 67.8517 34.2629 60.4805C32.7459 57.5747 32.9382 57.4465 41.5273 55.7159C48.8985 54.2203 51.2274 52.2546 49.7745 48.8147C48.5567 45.8876 40.7154 44.3065 34.2629 45.6526Z" fill="black"/>
<path d="M70.9044 46.53C61.0334 48.0683 56.2261 59.7554 64.3237 62.533C66.268 63.2167 66.2039 63.0672 65.6698 65.567C64.2169 72.575 65.0075 75.5448 68.6824 76.6772C75.1563 78.707 79.2158 73.8569 73.0197 71.4853C70.9044 70.6948 70.9258 70.8657 72.1009 65.5883C73.212 60.5032 72.6137 58.6444 69.6011 57.8752C66.0544 56.9351 66.268 57.0633 66.6313 56.2087C69.2593 49.9485 81.9506 50.8672 85.3905 57.5761C85.8819 58.5162 85.241 58.7299 80.9464 58.9008C76.0964 59.1145 75.3485 59.6059 74.088 63.3022C72.4001 68.3018 74.0666 71.5921 77.4424 69.9042C78.1261 69.5624 78.7244 68.3445 79.2585 66.2293C79.6431 64.691 79.6431 64.691 81.5874 64.691C88.1681 64.691 91.7576 62.1057 91.5653 57.5548C91.2448 50.5467 80.8396 44.9916 70.9044 46.53Z" fill="black"/>
<path d="M14.6696 48.6659C11.2297 50.7597 4.45669 66.5491 1.89279 78.4499C-1.03434 92.0173 -0.115607 98.4698 7.55475 117.678C16.5925 140.326 17.8745 147.996 14.7337 160.345C13.3449 165.772 14.8832 167.524 20.3529 166.734C31.5273 165.153 38.813 160.644 41.4197 153.679C42.4666 150.902 42.6589 149.449 43.0221 141.714C43.4922 131.715 44.7314 129.408 50.9275 127.079C60.2858 123.596 61.7386 119.515 57.1663 109.665C54.5383 103.982 55.6494 103.17 64.5589 104.324C75.0496 105.691 80.7329 102.166 82.4422 93.2992C83.5105 87.7868 84.5147 87.1458 90.0912 88.4278C98.1247 90.308 103.573 87.1245 108.594 77.6167C111.991 71.2069 113.081 70.7796 117.375 74.1767C129.212 83.5564 143.463 74.0699 140.109 59.0711C138.293 50.9307 131.242 50.3324 132.075 58.3874C132.93 66.5705 130.857 71.3137 126.456 71.3137C124.725 71.2924 123.785 70.7796 120.26 67.8311C113.423 62.105 106.65 64.498 101.65 74.3904C97.7188 82.1249 96.1591 83.1077 90.2407 81.6762C81.2671 79.5182 76.4597 82.8086 74.8787 92.2523C73.9172 97.9356 72.5498 98.5125 61.1831 97.9356C49.5174 97.3801 45.992 102.465 50.607 113.212C53.2137 119.259 53.2991 119.066 47.0389 121.417C39.0267 124.429 36.0568 130.219 35.6509 143.53C35.3731 152.419 34.3262 154.512 28.7283 157.397C27.0191 158.273 22.2972 160.089 22.169 159.918C22.1476 159.897 22.2758 159.106 22.4468 158.166C24.327 147.569 22.2331 137.505 13.7509 116.182C7.38382 100.179 6.42235 96.1409 7.10606 88.0859C7.9607 78.4072 12.7894 62.5323 17.8104 53.0032C19.6265 49.5632 17.6394 46.8498 14.6696 48.6659Z" fill="black"/>
<path d="M107.119 50.9103C100.966 52.2777 97.1843 55.504 97.2484 59.3284C97.2911 63.388 100.731 64.4563 106.094 62.0633C110.517 60.0976 111.863 59.9267 114.747 61.0164C119.49 62.8111 122.738 61.5719 123.101 57.8756C123.571 53.0041 114.811 49.1796 107.119 50.9103Z" fill="black"/>
<path d="M47.5731 59.5657C43.129 60.2067 40.2446 66.766 43.77 68.2403C45.1588 68.8171 46.569 68.3471 47.5518 66.9583C48.556 65.5054 48.6628 65.8046 48.5132 69.8C48.321 74.7355 48.7483 76.6157 50.6498 78.9446C53.7052 82.6622 58.5338 79.8847 56.3973 75.6329C55.4358 73.6886 55.2008 72.5562 54.9871 68.8385C54.7735 64.9713 54.6025 64.0098 53.7906 62.621C52.4659 60.3349 50.1584 59.2025 47.5731 59.5657Z" fill="black"/>
<path d="M36.3558 79.4323C32.0612 80.1587 29.9033 83.5773 32.2322 85.9703C32.809 86.5685 33.9628 86.7181 35.4584 86.419C38.2146 85.8421 38.3855 86.3121 37.1463 91.3331C36.2276 95.0721 35.9498 97.3583 36.0139 100.307C36.078 103.084 36.249 102.764 33.3432 104.943C29.1341 108.063 27.5958 110.178 26.5061 114.344C25.9292 116.545 25.8224 116.652 24.8823 115.776C23.6644 114.622 24.049 112.635 26.3352 108.554C29.2409 103.383 29.5828 100.542 28.0017 95.3713C27.0189 92.1664 26.9762 91.1408 27.8522 89.9657C30.6297 86.2053 26.3352 83.2568 23.0235 86.654C20.7587 88.9615 20.3314 91.9527 21.5706 96.525C22.7671 100.948 22.7243 101.183 20.4596 104.772C15.4172 112.827 16.5496 119.792 23.3226 122.207C28.0017 123.873 31.1211 122.015 33.3005 116.267C34.5824 112.891 34.7533 112.678 39.1761 109.302C43.0433 106.311 43.6416 105.05 43.8766 99.0889C44.0048 95.9054 44.1757 94.3457 44.5817 92.4655C45.8209 86.8463 45.4149 84.0473 42.9792 81.5475C41.2272 79.7528 38.9197 79.005 36.3558 79.4323Z" fill="black"/>
<path d="M114.812 81.7608C109.983 83.6624 90.4549 98.8963 76.9944 111.246C64.4099 122.783 51.398 137.248 46.9112 144.641C44.8601 148.038 45.8429 151.093 48.7487 150.367C50.3725 149.961 51.2271 149.149 55.1584 144.277C71.1829 124.407 87.8482 108.532 113.744 88.4484C118.337 84.8802 118.38 84.8589 118.508 84.1752C118.957 81.9531 117.205 80.7994 114.812 81.7608Z" fill="black"/>
</svg>
