<svg width="190" height="162" viewBox="0 0 190 162" fill="none" xmlns="http://www.w3.org/2000/svg">
<path d="M89.5401 0.850229C88.1086 1.27755 87.4889 2.28174 86.8693 5.1875C86.6343 6.23443 86.4207 7.1318 86.3779 7.17453C86.3138 7.21726 85.6728 6.51219 84.9037 5.61482C82.6816 2.94409 81.0578 2.38857 79.0922 3.60643C76.7846 5.01658 76.9769 7.43092 79.6049 10.3794C80.3527 11.234 81.9124 12.9647 83.0448 14.268C86.4634 18.1139 87.6385 18.3916 91.6553 16.3619C94.5824 14.8663 98.706 11.4691 99.4752 9.90936C100.992 6.74721 97.6377 4.11921 94.6679 6.14897C94.1765 6.46946 93.7064 6.78994 93.5782 6.87541C93.4073 6.98224 93.4073 6.57629 93.5355 5.55072C94.0055 2.17491 92.1894 0.0596906 89.5401 0.850229Z" fill="black"/>
<path d="M122.102 10.9249C119.559 11.6299 119.047 13.8093 120.521 17.4842C120.927 18.4884 121.226 19.3003 121.183 19.3216C121.162 19.343 120.435 19.5139 119.581 19.7062C113.107 21.2018 110.116 26.116 109.282 36.5212C108.321 48.5502 109.71 51.8405 115.799 51.7764C125.2 51.6696 134.045 44.4266 135.883 35.2606C137.208 28.7226 132.165 27.2911 130.093 33.6368C127.956 40.1534 122.957 44.5975 116.782 45.4094C114.837 45.6658 115.414 32.3121 117.508 28.744C118.876 26.4151 125.05 26.0092 132.251 27.7612C136.396 28.7654 138.361 25.2827 135.156 22.612C134.259 21.8642 134.259 21.8642 135.199 21.2018C138.447 18.9157 138.447 15.604 135.199 15.5826C133.853 15.5826 133.853 15.5826 133.853 14.728C133.853 11.224 129.794 10.4548 127.721 13.5315C127.016 14.5571 127.016 14.5571 126.802 13.9374C126.247 12.4418 126.076 12.1213 125.478 11.6299C124.473 10.7967 123.384 10.5616 122.102 10.9249Z" fill="black"/>
<path d="M79.0507 17.8949C74.1366 20.2024 74.8203 26.0781 81.3796 37.6584C90.8447 54.4306 102.596 54.7938 105.16 38.4062C106.784 27.9582 104.903 20.1383 100.267 17.9804C95.7375 15.8865 93.3018 20.5229 97.2545 23.6851C99.7756 25.6721 100.16 34.1116 98.0664 41.1624C96.2716 47.2089 89.9901 41.7179 84.3281 29.1547C82.042 24.091 81.9565 23.1723 83.794 22.9586C86.4006 22.6809 87.0629 22.1895 87.0629 20.5016C87.0629 18.1513 81.9992 16.5061 79.0507 17.8949Z" fill="black"/>
<path d="M61.8293 19.0055C61.0174 19.8388 60.5901 20.9498 60.2482 22.8941C60.12 23.706 60.12 23.706 58.8381 22.6377C55.911 20.202 52.877 20.6294 52.3429 23.5778C51.9796 25.458 55.505 29.8594 58.0048 30.65C58.4321 30.7781 58.4108 30.8422 57.5989 31.7182C53.1548 36.5469 54.0094 43.0635 59.885 48.8323C69.7774 58.5752 85.8659 56.8659 83.6653 46.3111C82.832 42.3585 78.9434 42.743 78.0247 46.8667C77.1914 50.6057 70.0125 49.4092 65.3761 44.7514C60.526 39.9014 61.1883 36.3119 67.534 33.1711C72.1063 30.9277 71.914 27.1032 67.2563 27.381C65.9957 27.4451 65.9957 27.4451 66.1666 26.3768C67.1922 20.1807 64.7137 15.9716 61.8293 19.0055Z" fill="black"/>
<path d="M86.2505 24.9483C84.584 26.508 85.6736 30.6103 87.853 31.0376C90.1177 31.4863 91.2074 29.6061 90.4596 26.5721C89.9254 24.521 87.6607 23.6236 86.2505 24.9483Z" fill="black"/>
<path d="M94.2629 24.9848C91.3572 25.8608 92.7032 32.4629 95.8013 32.4629C98.7925 32.4629 98.8352 25.8181 95.844 24.9848C94.968 24.7498 95.0748 24.7498 94.2629 24.9848Z" fill="black"/>
<path d="M119.645 29.2243C118.705 29.8012 117.743 31.6814 117.765 32.9206C117.807 36.1041 121.546 36.3819 123.17 33.3266C123.555 32.6215 123.576 32.6215 123.597 33.1129C123.683 37.6852 129.58 36.8306 129.644 32.2155C129.687 29.1389 125.841 28.156 124.302 30.8695C123.854 31.6814 123.854 31.6814 123.619 30.8054C123.149 29.0961 121.162 28.3056 119.645 29.2243ZM123.747 32.301C123.683 32.4719 123.619 32.4078 123.619 32.1728C123.597 31.9378 123.661 31.8096 123.726 31.8951C123.79 31.9592 123.811 32.1515 123.747 32.301Z" fill="black"/>
<path d="M149.899 29.3906C144.514 30.5657 145.412 34.5611 151.416 36.014C152.612 36.2918 154.214 36.6977 154.962 36.8687C176.136 42.2315 132.507 58.2986 85.9932 62.2727C57.5766 64.687 34.1168 61.6531 30.036 55.0297C27.8566 51.5043 35.9543 44.1972 46.3809 40.2658C49.3721 39.1334 50.0985 38.5138 50.0985 37.0182C50.0985 29.2624 25.9551 41.8896 23.1561 51.0983C17.6224 69.2807 63.1317 76.3101 117.444 65.6699C155.368 58.2346 172.44 48.2353 167.226 36.4413C165.132 31.7195 156.095 28.0445 149.899 29.3906Z" fill="black"/>
<path d="M71.8282 31.8711C69.9053 32.683 70.1403 35.8451 72.2982 38.0031C74.5844 40.2892 77.6397 38.4731 76.6996 35.3324C75.8663 32.4907 73.8366 31.0592 71.8282 31.8711Z" fill="black"/>
<path d="M92.0187 33.7096C89.9249 35.6753 91.9974 39.8416 94.7108 39.1152C95.9928 38.7519 96.6551 37.1922 96.2705 35.4402C95.8005 33.3464 93.4289 32.3849 92.0187 33.7096Z" fill="black"/>
<path d="M120.179 36.2515C118 37.3625 116.867 41.2083 118.363 42.4476C120.585 44.2637 124.922 40.5246 123.961 37.6402C123.47 36.166 121.632 35.5037 120.179 36.2515Z" fill="black"/>
<path d="M65.2683 36.9506C64.1573 38.1258 64.3282 39.6427 65.6957 41.0101C67.7468 43.0613 70.6098 42.3776 70.6098 39.835C70.6098 37.1429 66.9562 35.1559 65.2683 36.9506Z" fill="black"/>
<path d="M72.2553 41.0122C69.9691 42.8069 72.1485 46.5032 75.0542 45.734C76.9344 45.2212 77.1481 42.4223 75.3961 41.0335C74.6269 40.4353 73.0031 40.4139 72.2553 41.0122Z" fill="black"/>
<path d="M164.236 49.4129C163.36 49.9043 163.146 50.5026 162.932 53.0238C162.569 57.0833 162.078 66.0142 161.843 72.424C161.715 75.7784 161.415 82.4446 161.202 87.2733C160.347 105.263 160.582 107.87 163.274 108.767C167.27 110.071 167.889 106.225 168.124 78.8337C168.338 52.8101 167.654 47.5327 164.236 49.4129Z" fill="black"/>
<path d="M22.3878 62.1437C20.5504 63.2975 20.1444 72.3353 21.0418 91.9705C21.7896 108.85 22.2596 111.157 24.8876 111.328C29.3745 111.649 29.6522 108.721 27.7507 80.7534C27.4729 76.4589 27.1311 71.4165 27.0242 69.5363C26.5969 62.5711 25.2081 60.3704 22.3878 62.1437Z" fill="black"/>
<path d="M134.644 72.9302C131.696 73.7635 129.901 75.8146 125.606 83.3354C117.402 97.736 110.672 99.1461 102.723 88.1213C95.7368 78.4212 90.6944 78.7204 81.5712 89.3392C73.1317 99.1889 69.3499 99.2102 65.91 89.4033C62.9401 80.9424 58.902 77.9298 53.2828 80.0237C49.9497 81.2843 47.9199 83.2072 42.3007 90.4716C40.5273 92.7791 39.7795 93.3346 39.1813 92.8005C38.2198 91.9458 37.1515 89.1255 36.5105 85.8138C35.485 80.5151 31.1904 81.327 31.1904 86.8394C31.2332 101.09 40.506 104.466 48.9668 93.2705C55.633 84.4678 57.0432 84.2541 59.4148 91.5613C64.6494 107.757 75.3964 108.376 87.8528 93.2278C93.3224 86.6044 93.472 86.6257 98.2793 94.232C104.668 104.359 115.5 106.09 124.517 98.3983C127.316 96.0054 129.623 92.5868 132.913 85.9848C134.153 83.5063 135.499 81.0279 135.905 80.4724C136.823 79.2331 136.717 79.169 138.96 82.1389C141.93 86.0916 144.131 88.0145 146.652 88.9119C152.228 90.8989 158.873 86.6044 157.036 82.203C156.523 80.9424 154.343 80.7074 151.587 81.6261C148.297 82.7158 147.528 82.3312 143.831 77.8016C140.114 73.2293 137.828 72.0328 134.644 72.9302Z" fill="black"/>
<path d="M179.256 89.813C175.41 90.7104 172.398 92.8256 171.116 95.5604C169.3 99.4917 173.124 102.013 175.923 98.7012C177.013 97.4192 179 96.3723 180.709 96.2014C182.504 96.0091 182.312 96.9065 179.876 100.111C177.056 103.829 177.162 105.346 180.517 108.401C185.025 112.482 183.893 117.097 178.145 117.93C171.201 118.935 171.415 124.768 178.402 124.768C188.358 124.746 193.08 112.418 185.944 105.047C185.025 104.085 185.025 104.085 185.944 102.953C191.627 95.8382 187.568 87.8901 179.256 89.813Z" fill="black"/>
<path d="M8.84141 95.7971C3.47858 97.2928 1.04286 103.147 3.90589 107.677C4.50414 108.617 4.50414 108.617 3.20082 109.92C-0.452748 113.595 -0.773237 118.317 2.45301 121.458C3.24355 122.227 3.24355 122.227 2.75213 123.445C0.551448 128.786 4.99555 133.914 11.854 133.999C16.8964 134.063 18.862 129.363 14.2683 128.231C13.8197 128.124 12.7941 127.867 11.9608 127.675C9.24737 127.034 8.75595 126.286 10.1447 124.727C12.5377 121.992 12.1318 119.706 8.94824 118.167C6.10658 116.8 6.66209 114.877 10.508 112.847C13.4992 111.266 14.2683 108.488 12.1318 106.886C10.4439 105.604 9.93107 104.984 9.93107 104.194C9.93107 102.314 13.2855 102.292 15.6571 104.151C19.097 106.822 21.8319 103.425 19.2466 99.6857C17.0886 96.5663 12.4309 94.8143 8.84141 95.7971Z" fill="black"/>
<path d="M151.651 97.5245C149.515 98.5928 146.994 101.904 146.267 104.597C146.054 105.43 145.968 105.494 144.814 105.814C140.627 106.968 138.191 111.476 139.281 116.091C140.733 122.266 146.353 122.223 145.925 116.049C145.754 113.869 146.075 112.395 146.716 112.352C146.865 112.352 147.635 112.352 148.404 112.374C150.69 112.416 151.694 111.327 152.292 108.186C152.827 105.323 154.023 103.379 155.476 102.93C157.164 102.417 157.954 101.285 157.805 99.4688C157.612 97.2681 154.301 96.2212 151.651 97.5245Z" fill="black"/>
<path d="M38.1347 106.95C32.5368 108.51 27.9218 114.749 30.4857 117.291C31.7463 118.552 32.9214 118.274 34.9084 116.244C39.908 111.202 42.5788 112.356 40.3995 118.616C38.6261 123.658 41.5532 126.308 45.9332 123.68C52.3003 119.834 56.3811 119.727 56.723 123.402C57.1076 127.803 59.4792 128.615 63.496 125.752C68.2606 122.333 72.5765 122.889 74.6276 127.184C76.9565 132.055 82.0629 130.923 81.4006 125.688C80.5673 118.958 71.7218 115.325 63.8378 118.488C63.0687 118.787 62.4277 119 62.4063 118.958C62.385 118.936 62.1286 118.53 61.8722 118.103C59.821 114.684 53.5395 113.338 48.5826 115.261C48.2835 115.368 48.2194 115.155 48.1125 113.83C47.7066 108.446 43.3907 105.476 38.1347 106.95Z" fill="black"/>
<path d="M125.948 117.779C124.409 118.249 122.145 119.381 121.055 120.236C120.542 120.642 120.542 120.642 119.623 119.958C116.184 117.33 111.312 117.714 106.996 120.941C105.885 121.774 105.885 121.774 104.753 120.919C99.6677 117.052 92.2965 119.381 90.459 125.449C89.0061 130.214 93.3434 132.265 95.5441 127.863C97.232 124.487 99.1122 124.146 101.954 126.731C104.774 129.273 106.505 129.252 110.308 126.603C113.556 124.317 114.56 124.274 116.589 126.368C119.089 128.974 120.734 129.038 123.619 126.667C126.183 124.594 127.379 124.103 130.37 123.932C133.81 123.718 134.75 123.077 134.75 120.919C134.75 117.95 130.413 116.411 125.948 117.779Z" fill="black"/>
<path d="M165.731 125.921C164.941 126.818 164.684 127.609 164.535 129.703C164.172 134.724 159.193 137.117 152.677 135.45C148.489 134.382 146.096 136.305 146.652 140.279C147.292 144.723 144.301 146.283 138.575 144.552C135.178 143.526 133.682 143.954 131.61 146.56C127.166 152.137 119.859 153.269 117.295 148.804C115.073 144.873 111.013 148.184 113.086 152.244C116.675 159.252 128.619 159.38 135.712 152.479C137.037 151.175 137.037 151.175 138.169 151.453C145.476 153.205 152.249 149.808 153.617 143.719C153.852 142.608 153.852 142.608 156.843 142.48C166.778 142.01 173.295 135.493 171.115 128.164C170.282 125.387 167.291 124.148 165.731 125.921Z" fill="black"/>
<path d="M25.7634 128.08C18.0717 135.28 24.1823 147.48 35.613 147.694C37.4719 147.737 37.4719 147.737 37.8992 148.933C40.5486 156.155 49.6077 159.509 57.0003 155.984C58.2395 155.386 58.2395 155.386 59.4574 156.646C65.3116 162.778 76.2082 163.633 83.1308 158.484C84.3273 157.586 84.4555 157.544 84.9683 157.8C90.0961 160.492 99.262 159.21 103.215 155.236C108.172 150.236 104.411 145.408 99.1979 150.108C96.0572 152.929 89.6474 153.185 86.3143 150.621C84.0068 148.848 82.2762 148.997 80.1609 151.198C74.9904 156.561 65.8671 155.407 63.3673 149.104C61.9358 145.472 58.795 144.959 55.7183 147.865C52.6417 150.813 48.6035 151.027 45.9114 148.399C44.779 147.288 44.6935 147.096 43.903 143.998C43.1552 141.113 42.0014 140.494 37.301 140.494C30.1006 140.451 27.4299 137.396 29.9084 132.033C31.8313 127.888 28.9255 125.132 25.7634 128.08Z" fill="black"/>
</svg>
