<svg width="160" height="66" viewBox="0 0 160 66" fill="none" xmlns="http://www.w3.org/2000/svg">
<path d="M149.662 1.29884C149.363 1.40567 147.055 2.3885 144.534 3.52089C142.013 4.63192 137.548 6.53348 134.599 7.72997C126.886 10.8708 125.839 11.6827 126.608 13.9047C127.442 16.2763 129.621 15.8276 142.205 10.7212C144.812 9.6529 146.97 8.81963 146.991 8.841C147.034 8.88373 146.735 10.0375 146.329 11.4263C143.893 19.9085 144.128 21.746 148.102 25.3996C150.196 27.3011 150.26 27.3866 149.619 27.3866C148.722 27.3866 142.975 26.4892 137.313 25.4423C134.77 24.9936 132.206 24.609 131.587 24.609C127.89 24.609 117.442 28.9677 98.3839 38.4969C81.7827 46.7868 74.1123 49.6285 58.0024 53.4102C30.0772 59.9909 11.3393 61.6575 6.57472 58.0253C3.00662 55.3118 12.7067 44.6289 25.2271 37.514C42.619 27.643 79.0478 18.9684 113.02 16.5968C116.224 16.3618 117.143 15.8704 117.464 14.2038C117.656 13.1996 116.908 12.1954 115.583 11.7254C113.02 10.828 95.7773 12.3236 81.3126 14.6953C76.7403 15.4431 76.0139 15.5072 77.2958 15.0371C81.9108 13.3492 75.1806 2.13211 69.3263 1.79025C64.9036 1.53386 54.5625 11.4904 53.8361 16.6609C53.2592 20.9127 56.6991 20.3145 60.6091 15.4858C67.8735 6.44802 69.305 6.0207 72.7449 11.8109C74.1123 14.1184 75.1165 15.208 75.8643 15.208C77.1249 15.208 76.1634 15.5926 73.7704 16.0199C38.4954 22.5152 13.2836 34.245 3.28437 48.7952C-5.94569 62.2344 5.31413 68.2595 32.1497 64.2214C60.1817 60.0123 79.3256 54.329 99.6018 44.2015C109.516 39.2447 120.07 34.5228 127.1 31.8734C131.757 30.1428 131.587 30.1428 136.885 31.1043C152.354 33.8818 157.867 34.0314 159.277 31.7666C160.687 29.4805 160.131 28.3908 154.939 23.2843C150.218 18.6266 150.303 19.1394 153.102 10.7212C155.645 3.07221 154.469 -0.175408 149.662 1.29884Z" fill="black"/>
<path d="M96.6535 22.1114C94.6451 23.6497 95.9057 28.5425 98.4055 28.8203C100.606 29.0767 101.418 26.7905 100.307 23.4147C99.837 22.0473 97.7218 21.2781 96.6535 22.1114Z" fill="black"/>
<path d="M85.4148 23.5852C82.7868 24.8458 85.2439 31.8966 88.4274 32.2384C90.6067 32.4948 91.1408 30.1873 89.7734 26.5765C88.7051 23.7775 87.1882 22.7306 85.4148 23.5852Z" fill="black"/>
<path d="M75.587 25.0781C73.3222 26.1891 75.3947 33.3894 78.1509 33.9022C80.4798 34.3509 81.0353 32.1075 79.5611 28.3257C78.3432 25.2277 77.1894 24.2876 75.587 25.0781Z" fill="black"/>
<path d="M57.426 28.9255C53.8152 29.716 54.7339 33.7969 58.5156 33.7969C61.0796 33.7969 61.7846 34.737 60.3958 36.254C59.1139 37.6428 58.7934 38.8393 59.3703 39.9717C59.6908 40.5699 60.054 40.869 61.8915 42.0014C62.9384 42.621 62.2547 43.4116 59.2207 45.0995C54.8621 47.5566 56.9559 51.6802 61.7205 50.035C67.0834 48.1975 69.5404 42.7492 66.6774 39.0957C66.1646 38.4333 66.1646 38.4333 66.7201 37.3864C69.1986 32.6218 63.6007 27.5367 57.426 28.9255Z" fill="black"/>
<path d="M40.9954 34.5429C39.1152 35.3548 39.0938 36.594 40.8886 42.1278C42.8542 48.1957 45.1618 50.0759 46.7001 46.8924C47.6829 44.8413 45.5891 36.7436 43.6234 35.1198C42.9183 34.5429 41.6578 34.2652 40.9954 34.5429Z" fill="black"/>
<path d="M27.7701 39.0492C26.0608 39.4552 25.313 40.3739 25.313 42.0191C25.313 45.8649 31.0818 46.2281 31.7869 42.425C32.1287 40.5876 29.7357 38.5792 27.7701 39.0492Z" fill="black"/>
</svg>
