<svg width="118" height="221" viewBox="0 0 118 221" fill="none" xmlns="http://www.w3.org/2000/svg">
<path d="M71.8365 0.536226C70.2768 0.643055 61.3458 1.15584 51.9662 1.68998C14.7254 3.78384 -1.12804 8.42024 0.346203 16.7743C1.17947 21.5175 10.9437 23.2482 36.6896 23.2695C73.7167 23.2695 109.462 18.0776 115.124 11.8815C120.102 6.43321 112.731 1.41223 100.232 1.73272C90.8521 1.96774 91.4717 6.7537 101.001 7.7579C103.778 8.05702 107.261 8.6339 107.453 8.80482C107.966 9.33897 94.7407 12.0952 85.8952 13.3344C59.722 16.9452 17.0116 18.1631 7.97383 15.5137C7.01236 15.236 7.01236 15.236 8.50797 14.4668C14.6186 11.2833 30.0875 8.698 49.9364 7.5656C53.2268 7.37331 60.2562 6.94599 65.5335 6.60414C70.8323 6.24092 77.9898 5.8777 81.4725 5.77087C89.3779 5.51448 89.8693 5.36492 89.8693 3.16423C89.8693 1.88228 89.2497 1.13447 87.9463 0.813983C87.1131 0.600324 74.0158 0.386665 71.8365 0.536226Z" fill="black"/>
<path d="M113.287 17.0321C111.556 17.9722 108.907 23.1641 99.7193 43.7822C95.3393 53.5891 92.4549 59.9562 86.6433 72.6262C84.87 76.4506 82.7975 81.0016 82.0069 82.7749C79.6781 88.0096 78.6739 89.7616 77.8192 90.1889C74.828 91.6204 46.6678 91.8341 40.3221 90.4667C34.1901 89.142 33.9551 88.7574 16.3496 50.192C14.1702 45.4274 11.82 40.2355 11.1149 38.6544C10.4098 37.0733 8.70058 33.3129 7.29043 30.3003C5.90165 27.2877 4.74789 24.7238 4.74789 24.5956C4.74789 22.5659 0.987492 22.6727 0.431979 24.7025C-0.294461 27.3518 11.0936 57.4564 20.7723 78.5018C29.4896 97.4747 32.4594 98.9917 60.1924 98.6284C82.9043 98.3293 81.2164 99.3976 91.5361 78.8223C101.514 58.9306 110.338 39.7868 115.722 26.3476C118.692 18.9123 117.603 14.7032 113.287 17.0321Z" fill="black"/>
<path d="M53.0352 31.8771C48.6552 34.4837 46.2836 46.9614 46.7109 65.3574C47.0314 79.8221 47.9929 84.373 50.7704 84.373C53.3771 84.373 53.6121 82.5356 53.0566 66.5112C52.5652 52.5379 53.3771 42.0686 55.2359 38.5219C56.8811 35.3811 59.5945 54.183 60.2996 73.5833C60.5987 82.0442 60.7483 82.5142 62.9063 82.5142C65.812 82.5142 66.7948 76.4463 66.0898 63.114C64.7651 38.415 60.2355 27.5612 53.0352 31.8771Z" fill="black"/>
<path d="M83.9721 36.3884C76.43 39.0805 69.6997 54.293 69.6997 68.6723C69.6997 75.2957 70.4261 77.1973 72.926 77.1973C75.1266 77.1973 75.4685 76.3854 75.6822 70.5952C76.1736 57.9466 80.0408 45.9603 84.6986 42.5204C85.9591 41.6017 86.066 41.6444 86.4719 43.3964C87.6684 48.6952 92.5612 47.7123 92.0484 42.2854C91.6211 37.5635 88.0316 34.9355 83.9721 36.3884Z" fill="black"/>
<path d="M23.4424 39.8944C16.0284 40.514 14.9815 46.1973 22.2673 46.24C30.4718 46.2828 35.7919 55.6197 37.5225 73.0969C37.9071 76.9214 38.1848 77.5624 39.6164 77.9897C42.6503 78.8444 43.569 75.7463 42.693 67.5845C40.8556 50.5773 32.8647 39.0825 23.4424 39.8944Z" fill="black"/>
<path d="M47.8215 102.752C46.86 103.906 46.7959 104.696 46.155 120.699C45.3858 140.057 46.0481 185.652 47.1805 190.779C48.1206 195.074 50.2786 196.441 51.7101 193.642C52.9493 191.228 52.9707 190.502 52.3724 168.773C52.2656 164.606 52.116 148.496 52.0519 132.985C51.9665 115.55 51.8596 104.461 51.7101 103.948C51.24 102.047 48.9966 101.363 47.8215 102.752Z" fill="black"/>
<path d="M61.0466 102.556C59.4441 103.368 59.2305 104.842 58.269 121.977C55.9828 163.555 56.4529 191.887 59.5296 195.134C62.008 197.762 63.9096 194.707 63.6318 188.532C63.2472 179.217 63.1831 175.649 63.2259 159.581C63.2472 141.869 63.4395 131.592 64.0591 115.14C64.3796 106.295 64.3583 104.949 63.8241 103.667C63.3754 102.599 62.0508 102.064 61.0466 102.556Z" fill="black"/>
<path d="M37.9716 187.082C24.3401 188.257 8.72166 195.543 5.73043 202.124C0.431693 213.747 17.5244 220.883 50.7056 220.904C90.6812 220.926 115.701 210.221 106.107 197.188C100.659 189.796 78.8231 185.223 80.041 191.74C80.3828 193.513 82.4767 194.646 88.5232 196.312C102.112 200.073 103.949 203.149 95.1039 207.316C73.5671 217.464 11.1574 216.311 11.1574 205.777C11.1574 201.632 26.3485 194.24 39.8731 191.825C42.2875 191.398 43.2917 189.945 42.4157 188.214C41.8388 187.103 40.8132 186.826 37.9716 187.082Z" fill="black"/>
<path d="M74.2722 195.349C72.7552 196.652 73.6312 198.661 76.2378 199.879C81.4298 202.293 84.4423 202.229 84.4423 199.686C84.4423 197.122 76.2592 193.618 74.2722 195.349Z" fill="black"/>
<path d="M34.2757 196.972C31.6263 197.592 25.2166 203.275 24.9174 205.262C24.2551 209.6 29.9384 207.762 36.2627 201.566C38.7198 199.173 37.4378 196.203 34.2757 196.972Z" fill="black"/>
<path d="M45.7269 201.74C42.9707 204.304 41.2828 208.941 42.7571 209.987C44.4664 211.205 46.3679 209.859 48.9959 205.543C50.7907 202.595 48.1413 199.518 45.7269 201.74Z" fill="black"/>
<path d="M65.4049 202.124C64.1229 203.513 65.5117 207.722 67.8619 209.538C70.7036 211.739 72.1992 208.341 70.1481 204.303C68.6952 201.419 66.8578 200.564 65.4049 202.124Z" fill="black"/>
</svg>
