<svg width="239" height="316" viewBox="0 0 239 316" fill="none" xmlns="http://www.w3.org/2000/svg">
<path d="M109.369 0.802624C105.993 1.67863 104.263 4.81941 103.536 11.4001C103.194 14.3913 103.622 14.2418 99.0493 12.8743C79.6491 7.08419 69.137 7.31922 66.8082 13.5367C65.4194 17.233 68.3465 21.0575 76.1023 25.7152C76.4228 25.9289 76.316 26.0785 75.2263 27.104C71.9146 30.2448 70.419 33.9625 71.1668 37.2528C72.4915 43.2566 78.3244 43.2139 78.3244 37.2101C78.3244 34.9667 79.82 32.8728 83.1744 30.4371C87.6613 27.1681 87.063 24.476 80.931 20.3951C76.2732 17.2971 76.0382 17.0834 77.1706 17.0621C80.29 17.0407 87.2126 18.1517 94.477 19.8183C104.049 22.0403 105.352 22.0403 107.724 19.8183C109.177 18.4295 109.604 17.3612 110.266 13.494C111.121 8.62254 110.993 8.85756 111.933 10.1181C114.668 13.7931 117.573 21.9121 118.62 28.856C119.283 33.3215 119.753 34.1548 121.612 34.1548C124.133 34.1548 124.923 31.655 124.453 24.9247C123.47 10.0327 116.548 -1.03484 109.369 0.802624Z" fill="black"/>
<path d="M145.884 10.439C136.867 11.6569 128.641 17.9171 131.739 21.2288C133.043 22.6176 135.008 22.468 139.431 20.6092C144.217 18.6008 147.55 17.7034 147.55 18.4085C147.55 18.5581 147.016 19.6905 146.375 20.9297C141.931 29.3051 141.632 31.0358 144.089 33.4928C145.905 35.2876 148.512 35.6508 155.135 35.0312C158.767 34.668 162.592 34.7107 162.442 35.1166C162.079 36.014 160.006 38.8129 156.972 42.4451C152.827 47.4234 152.422 48.4062 153.981 49.9446C155.947 51.9316 159.622 49.4318 165.433 42.1674C173.787 31.6981 167.698 25.6516 151.524 28.3223C150.67 28.4505 150.67 28.4505 151.46 27.0831C157.891 15.9514 155.605 9.13573 145.884 10.439Z" fill="black"/>
<path d="M201.071 17.3659C192.696 20.0152 178.701 39.971 182.526 43.7955C184.299 45.5688 186.094 44.6928 188.337 40.9752C192.14 34.6722 200.729 24.1388 201.114 25.314C201.178 25.5063 200.858 26.7668 198.828 33.9458C196.862 40.8683 197.888 43.8809 202.225 43.8809C204.041 43.8809 204.34 43.7527 211.113 40.1633C217.587 36.702 228.099 33.6253 228.099 35.185C228.099 35.6764 226.112 38.1976 222.971 41.6375C221.86 42.8767 220.6 44.2655 220.172 44.7356C216.241 49.0515 215.194 51.359 216.241 53.3033C218.036 56.6577 225.3 51.7649 231.496 43.0477C241.624 28.7966 228.74 23.5406 208.72 33.7535C206.925 34.6722 205.451 35.3559 205.451 35.2918C205.451 35.2277 205.836 33.7749 206.306 32.0442C208.207 25.1003 208.507 22.2373 207.588 20.1007C206.52 17.6222 203.806 16.4899 201.071 17.3659Z" fill="black"/>
<path d="M105.95 39.5841C98.8994 41.2933 94.9039 49.626 98.3225 55.4803C100.181 58.6638 104.39 57.0614 103.536 53.4933C102.745 50.2029 103.942 47.5108 106.719 46.2716C109.091 45.2247 110.864 46.2502 113.257 50.0961C115.672 54.006 120.308 51.8694 119.026 47.4467C117.359 41.7206 111.548 38.238 105.95 39.5841Z" fill="black"/>
<path d="M127.573 44.1772C122.039 45.6515 122.082 51.0784 127.637 50.1383C131.74 49.4546 133.492 51.6125 131.504 54.9243C128.599 59.7102 133.021 62.5732 136.931 58.4283C142.679 52.2963 135.906 41.9552 127.573 44.1772Z" fill="black"/>
<path d="M75.3121 46.5284C69.1801 48.4941 66.9794 56.8695 71.3594 61.5272C75.0985 65.5227 79.393 63.087 77.171 58.2369C76.0172 55.6944 76.7009 53.3014 78.6452 53.1305C79.628 53.0664 80.0554 53.2159 81.1023 54.0492C84.9481 57.1045 88.0248 53.7928 85.0763 49.776C82.9184 46.8489 78.7093 45.4387 75.3121 46.5284Z" fill="black"/>
<path d="M175.86 46.9172C174.941 47.9213 175.048 49.1819 176.138 50.1434C176.565 50.5494 177.142 51.0621 177.42 51.2972C178.082 51.9168 178.04 52.8569 177.27 53.6047C175.518 55.378 172.784 53.8397 172.484 50.9126C172.1 47.0881 167.763 47.1308 166.652 50.9767C164.921 56.9591 172.784 62.7065 178.809 59.8649C184.663 57.0873 185.347 49.2033 179.941 46.7462C178.531 46.1052 176.544 46.1907 175.86 46.9172Z" fill="black"/>
<path d="M190.603 47.5566C187.847 48.2617 185.945 52.7913 186.949 56.2526C188.701 62.2564 200.666 62.47 202.269 56.5517C203.102 53.4109 199.427 51.5734 197.226 54.0305C196.372 54.992 194.555 55.3766 193.38 54.8424C192.483 54.4365 192.675 53.475 193.979 51.8512C195.837 49.5223 193.679 46.7875 190.603 47.5566Z" fill="black"/>
<path d="M159.087 55.331C152.742 56.5703 150.242 64.4756 154.665 69.3257C158.916 73.9834 164.023 71.0991 160.604 65.9712C159.002 63.5783 160.07 60.4375 162.1 61.5271C163.126 62.0613 164.792 61.8904 165.519 61.1425C168.104 58.5786 163.553 54.455 159.087 55.331Z" fill="black"/>
<path d="M90.0324 58.6255C84.0072 60.1425 80.9305 66.3172 83.0244 72.6415C84.4772 77.0215 89.4128 76.3805 88.5795 71.9364C87.0839 64.1165 94.391 61.8517 97.895 69.052C100.203 73.8166 104.903 72.7483 103.963 67.6632C102.809 61.574 95.9507 57.1085 90.0324 58.6255Z" fill="black"/>
<path d="M117.21 58.8752C111.954 59.4521 107.382 63.127 108.215 66.0969C108.771 68.1052 110.416 68.2975 113.45 66.7378C121.035 62.8492 124.923 68.5539 121.035 77.8267C117.745 85.6253 124.517 86.6295 128.342 78.9164C133.171 69.1308 126.91 57.8496 117.21 58.8752Z" fill="black"/>
<path d="M205.558 60.6686C199.084 61.7582 194.917 64.8563 196.114 67.7193C196.755 69.279 197.545 69.4072 200.943 68.4458C211.668 65.4332 216.903 69.044 211.177 75.5179C206.733 80.5602 211.561 84.2351 216.219 79.3637C224.787 70.39 218.057 58.5533 205.558 60.6686Z" fill="black"/>
<path d="M60.8675 60.8878C56.2738 61.7211 53.1544 67.5326 54.5005 72.7245C56.1029 78.8779 61.2094 78.6643 61.0598 72.4468C60.9316 67.1267 61.7862 66.1866 64.4783 68.665C67.5764 71.5281 70.9308 69.071 68.8156 65.4815C66.8713 62.1698 63.7519 60.3751 60.8675 60.8878Z" fill="black"/>
<path d="M171.223 63.0024C167.463 64.1348 165.027 69.4549 166.33 73.664C168.809 81.6335 181.158 84.817 187.034 79.0268C191.521 74.6041 190.068 66.5278 184.363 64.0494C178.146 61.3573 174.022 66.8056 179.983 69.8181C185.944 72.8307 182.312 77.4244 176.073 74.7537C172.462 73.2153 171.757 70.2241 174.343 67.6175C177.035 64.9467 174.941 61.87 171.223 63.0024Z" fill="black"/>
<path d="M37.152 65.0086C31.1055 66.9743 28.4348 75.3924 32.1738 80.6912C32.8148 81.5885 32.8148 81.5885 31.7251 80.8407C26.7255 77.4222 19.9098 81.5458 20.2516 87.7847C20.4653 91.5237 22.9224 94.1944 25.9991 94.0235C27.8792 93.9167 28.7553 91.1818 27.5588 89.1307C26.2341 86.8446 27.5374 85.584 30.1868 86.5882C32.9002 87.5924 34.7804 84.8362 33.1353 82.2936C32.772 81.7595 32.772 81.7595 33.7335 82.315C36.9811 84.2379 39.2459 81.5885 37.6221 77.7427C35.7419 73.2772 38.2203 69.7732 42.6217 70.7133C44.7369 71.162 46.0616 70.2646 46.0616 68.3631C46.0616 65.7778 40.8483 63.8121 37.152 65.0086Z" fill="black"/>
<path d="M140.926 66.399C138.362 66.9118 137.657 69.5611 139.687 71.0781C139.879 71.2277 140.841 71.4413 141.845 71.5482C148.896 72.2746 150.519 79.9236 144.622 84.56C140.52 87.7862 143.789 92.0594 148.575 89.6878C160.604 83.7695 154.045 63.771 140.926 66.399Z" fill="black"/>
<path d="M100.224 76.0363C93.8358 77.7242 88.5157 83.4717 91.0155 85.9928C92.0838 87.0398 93.5367 86.8261 95.5237 85.3305C98.8995 82.7666 102.703 81.5915 104.903 82.4461C106.143 82.9161 106.42 84.8604 105.651 87.8944C104.284 93.3427 109.219 95.3725 111.74 90.3942C115.949 82.0615 109.219 73.6433 100.224 76.0363Z" fill="black"/>
<path d="M196.713 76.1362C190.068 77.5891 184.278 86.1354 189.94 86.1354C190.923 86.1354 191.073 86.05 192.953 84.5757C197.675 80.8153 203.55 81.6272 199.918 85.5158C197.397 88.1866 198.017 90.8359 201.157 90.8359C205.174 90.8359 208.101 86.0713 206.862 81.4777C205.708 77.1404 201.734 75.0465 196.713 76.1362Z" fill="black"/>
<path d="M73.4949 78.0686C69.649 78.7523 66.145 81.594 66.145 83.987C66.145 86.3586 68.4312 87.1705 70.6105 85.568C75.5887 81.9145 79.7551 83.6024 80.2251 89.478C80.7166 95.6955 86.1008 95.375 86.3999 89.0934C86.7631 81.4444 81.1866 76.6585 73.4949 78.0686Z" fill="black"/>
<path d="M135.008 78.8497C134.175 79.7898 134.004 80.3453 134.047 82.3109C134.154 86.7551 130.329 89.0626 124.795 87.8661C121.249 87.1183 120.309 87.3106 119.774 88.9344C118.407 93.1221 129.09 95.4937 135.008 92.3315C139.41 89.9813 141.632 84.4475 139.773 80.4094C138.876 78.4224 136.183 77.5677 135.008 78.8497Z" fill="black"/>
<path d="M159.921 79.2366C154.836 81.9287 154.9 90.6887 160.028 93.6372C164.023 95.9447 166.993 92.2484 163.917 88.8299C162.421 87.1634 162.314 85.4541 163.596 83.4671C165.54 80.4545 163.041 77.5701 159.921 79.2366Z" fill="black"/>
<path d="M50.5483 79.625C45.4633 80.9497 42.5148 85.8852 43.519 91.3121C44.3736 95.9058 48.4331 95.7776 48.8391 91.1626C49.3519 84.9878 54.5651 83.77 56.4881 89.3678C58.2187 94.4102 63.5602 92.1881 62.2141 86.9749C60.8253 81.5052 55.6975 78.2789 50.5483 79.625Z" fill="black"/>
<path d="M221.39 82.0151C218.335 82.9338 218.847 86.5019 222.287 88.318C225.129 89.8564 226.09 92.1639 224.403 93.4245C222.394 94.8987 217.865 92.3989 216.241 88.8949C215.92 88.2326 215.557 87.442 215.429 87.1856C214.019 84.2158 210.536 86.7156 211.177 90.2196C213.271 101.565 229.851 103.36 231.774 92.4844C232.735 86.9292 226.39 80.5195 221.39 82.0151Z" fill="black"/>
<path d="M173.38 82.726C168.787 84.0294 165.56 89.8836 167.953 92.6398C169.385 94.285 171.479 93.7081 173.06 91.2297C174.214 89.4349 175.581 88.6871 177.034 89.0717C180.752 90.0759 181.67 84.9908 178.102 83.1534C176.906 82.5338 174.748 82.3415 173.38 82.726Z" fill="black"/>
<path d="M12.5394 85.2424C2.77517 87.1653 -1.04932 95.4339 6.21508 98.8952C16.2143 103.66 61.4245 105.561 115.822 103.489C192.44 100.562 208.08 99.002 208.08 94.3229C208.08 91.6949 206.777 91.4812 197.119 92.5709C181.351 94.3656 163.959 95.3912 118.813 97.1859C91.4436 98.2756 51.6176 98.0192 32.3883 96.6518C21.5772 95.8612 9.78319 94.0879 9.86865 93.2332C9.91138 92.7418 15.4238 89.5156 16.2357 89.4942C16.7057 89.4728 17.4749 88.6396 17.6672 87.9558C18.2868 85.627 16.193 84.5159 12.5394 85.2424Z" fill="black"/>
<path d="M202.546 99.1954C193.038 102.187 189.021 114.921 195.666 121.031C203.058 127.847 217.865 121.501 216.156 112.25C214.895 105.477 208.614 105.306 208.549 112.036C208.507 115.433 207.182 116.95 203.913 117.399C197.204 118.318 197.76 109.366 204.682 104.793C206.562 103.554 206.797 103.298 207.032 102.165C207.567 99.7509 205.387 98.298 202.546 99.1954Z" fill="black"/>
<path d="M1.85546 101.996C1.49224 102.423 1.19312 102.872 1.19312 103.022C1.17175 103.171 1.08629 104.004 0.979458 104.88C-1.30669 122.849 4.12024 140.391 16.0638 153.531C25.4861 163.914 42.3866 169.769 69.3503 172.012C92.1904 173.914 153.318 170.089 183.231 164.897C198.678 162.226 205.814 158.381 209.382 150.796C212.993 143.168 207.994 139.066 204.255 146.608C200.366 154.513 194.683 156.671 169.877 159.769C135.649 164.043 92.8314 166.842 74.2645 166.008C49.1382 164.876 31.0413 159.513 22.0676 150.539C11.8333 140.305 6.36366 124.879 6.32093 106.162C6.29956 101.654 4.03478 99.539 1.85546 101.996Z" fill="black"/>
<path d="M231.047 107.079C229.808 108.126 229.68 109.685 230.663 111.929C232.372 115.817 231.624 118.552 228.846 118.552C226.924 118.552 226.09 115.262 226.838 110.689C227.864 104.472 221.988 105.69 220.279 112.036C216.604 125.667 234.423 131.671 238.44 118.146C240.213 112.185 234.722 103.959 231.047 107.079Z" fill="black"/>
<path d="M186.756 128.724C181.008 129.728 176.222 132.249 172.612 136.159C171.073 137.847 171.073 137.847 170.048 136.928C164.258 131.8 152.592 133.873 143.704 141.586C142.763 142.419 142.763 142.419 141.759 140.795C132.914 126.438 115.672 126.715 105.886 141.351C104.732 143.103 104.732 143.103 103.258 141.5C94.0492 131.523 75.3327 134.492 67.2564 147.248C66.6154 148.273 66.6154 148.273 65.4617 146.607C57.3213 134.984 47.2793 129.151 37.1091 130.112C28.0927 130.967 21.512 136.715 22.6444 142.761C23.1786 145.56 26.3835 145.389 27.2595 142.505C28.6696 137.826 36.4254 135.005 43.1557 136.715C50.997 138.723 58.7101 146.778 63.261 157.717C65.3335 162.674 69.9699 161.99 71.4655 156.499C75.8241 140.518 96.6345 137.462 101.399 152.098C103.087 157.247 107.574 157.418 109.069 152.376C111.74 143.423 120.009 136.458 126.632 137.569C131.44 138.381 136.696 143.958 137.529 149.128C138.02 152.119 138.661 153.166 140.328 153.615C142.122 154.085 143.212 153.508 144.686 151.307C151.032 141.885 166.138 137.804 167.099 145.261C167.163 145.795 167.27 146.628 167.334 147.141C167.868 151.521 172.718 151.094 175.047 146.479C179.427 137.697 188.743 133.424 196.007 136.864C199.939 138.723 202.866 133.51 199.469 130.668C197.118 128.681 191.713 127.848 186.756 128.724Z" fill="black"/>
<path d="M213.976 129.088C210.942 131.118 212.139 140.797 215.942 145.134C223.505 153.702 236.966 145.476 233.248 134.579C230.599 126.845 223.398 127.037 225.428 134.772C226.646 139.408 225.535 142.057 222.757 141.224C220.364 140.498 218.826 137.613 217.95 132.165C217.416 128.746 216.049 127.699 213.976 129.088Z" fill="black"/>
<path d="M125.927 173.524C124.923 174.378 124.667 175.212 124.453 178.459C123.791 188.523 119.945 191.728 108.45 191.728C97.1474 191.706 89.0498 186.707 87.3832 178.737C86.2722 173.46 81.5076 174.635 82.0204 180.062C83.8151 198.885 120.799 204.953 129.453 187.839C133.213 180.404 130.564 169.614 125.927 173.524Z" fill="black"/>
<path d="M97.9165 199.851C97.596 200.15 97.3396 200.62 97.3182 200.877C97.3182 201.133 97.3182 205.62 97.3396 210.855C97.3823 238.267 96.2499 252.625 92.2972 274.739C89.4769 290.485 89.4128 291.383 91.1435 293.113C94.0279 295.998 97.2541 287.43 100.438 268.436C103.984 247.305 104.604 211.901 101.591 201.154C101.079 199.338 99.1984 198.676 97.9165 199.851Z" fill="black"/>
<path d="M111.825 201.945C110.757 202.8 110.095 206.56 109.411 215.342C109.347 216.218 109.24 217.371 109.197 217.905C105.266 253.458 109.902 294.887 117.786 294.887C120.201 294.887 120.542 292.707 119.025 287.131C114.645 271.192 113.663 252.326 115.415 217.692C116.013 205.77 115.949 202.821 115.116 202.073C114.218 201.261 112.723 201.197 111.825 201.945Z" fill="black"/>
<path d="M131.163 278.348C127.616 278.968 127.103 281.19 130.116 282.963C131.483 283.754 132.509 284.075 137.936 285.314C149.794 288.049 156.182 290.377 161.566 293.988C163.233 295.099 165.22 297.129 165.412 297.941C166.395 301.808 140.286 306.145 103.002 308.325C73.5602 310.034 48.1775 306.616 51.2755 301.36C53.4976 297.556 70.9322 287.258 80.2477 284.245C82.3843 283.562 83.1962 282.515 82.8757 280.912C82.3629 278.263 77.7692 278.904 68.4537 282.878C37.4945 296.125 35.8921 310.12 64.8642 313.944C89.6914 317.213 150.371 312.812 165.241 306.658C176.544 301.979 174.3 291.98 160.327 284.972C151.652 280.613 137.017 277.302 131.163 278.348Z" fill="black"/>
</svg>
