<svg width="52" height="57" viewBox="0 0 52 57" fill="none" xmlns="http://www.w3.org/2000/svg">
<path d="M20.4046 0.392778C15.9178 1.84566 12.5633 7.8281 11.3241 16.5454C11.1318 17.8487 10.9395 19.1734 10.8968 19.5366C10.4267 22.8697 10.619 29.6427 11.3455 34.1509C11.5164 35.2619 11.6232 36.1806 11.6018 36.1806C5.34164 39.9197 -1.30315 51.1368 0.598415 54.7903C2.00856 57.5252 5.02115 56.6064 6.51677 52.9742C8.18331 48.9361 11.4523 44.4279 14.4649 42.0349C15.2981 41.3939 15.2981 41.3939 16.8365 42.1417C26.558 46.9277 43.7789 44.9407 49.0776 38.4241C56.0643 29.8136 44.8472 22.8911 30.6175 27.0147C29.6988 27.2711 28.9509 27.442 28.9509 27.3993C28.9509 27.3565 29.2501 26.7369 29.6133 26.0318C35.7667 13.8106 29.8483 -2.70528 20.4046 0.392778ZM23.9086 7.18713C27.0067 10.2852 27.3699 17.1223 24.7419 23.2543C23.2249 26.7583 17.8621 33.7449 16.6656 33.7449C16.6015 33.7449 16.5587 31.9929 16.5587 29.835C16.5587 15.648 20.426 3.72586 23.9086 7.18713ZM43.9498 31.8647C51.2142 35.2619 35.788 41.0521 24.9983 38.9796C20.6823 38.1677 20.5328 38.0181 22.4984 36.7789C29.6347 32.1852 39.7194 29.8777 43.9498 31.8647Z" fill="black"/>
</svg>
