<svg width="103" height="74" viewBox="0 0 103 74" fill="none" xmlns="http://www.w3.org/2000/svg">
<path d="M64.1486 1.30794C48.3378 5.79477 32.3348 20.4518 27.5488 34.8737C25.925 39.7452 29.9418 42.245 31.9929 37.6513C37.9113 24.2549 50.6026 12.7173 65.11 7.54677C70.6224 5.58111 72.3744 4.1496 71.6266 2.18394C71.1139 0.81652 67.3962 0.389203 64.1486 1.30794Z" fill="black"/>
<path d="M62.3126 13.1868C60.9665 13.8705 60.5392 15.0884 61.1375 16.5412C61.5221 17.4813 62.0989 17.7164 64.5347 17.9087C71.5854 18.4642 76.1577 20.4939 82.7384 26.0063C86.7765 29.4035 89.8319 31.3051 93.8273 32.9716C94.3401 33.1853 94.3401 33.1853 93.5068 33.6767C84.7041 38.8686 69.4702 35.9201 62.5476 27.6729C58.9582 23.3997 54.1936 25.7499 56.6934 30.5573C62.4408 41.5393 81.5846 46.0475 94.3187 39.4241C103.677 34.574 104.617 30.9846 97.3527 27.9293C92.8658 26.0277 90.2806 24.468 86.0715 21.0922C81.4778 17.4172 78.6361 15.7293 74.833 14.4687C70.2393 12.909 64.0646 12.2894 62.3126 13.1868Z" fill="black"/>
<path d="M13.4486 28.7017C3.7912 30.1973 0.586321 34.5986 0.970907 45.8371C1.65462 66.6902 16.5894 78.3346 34.6863 72.1385C52.1849 66.1561 59.4707 43.5723 46.2239 36.3934C41.1815 33.6799 38.2757 38.2736 42.784 41.8844C51.7149 49.0633 43.6172 64.4468 29.5371 67.1175C16.7389 69.5532 8.34214 61.1351 7.40204 44.9184C6.93199 36.6925 9.17541 34.9405 21.2044 34.1286C25.1998 33.8722 26.7168 32.4834 25.4776 30.1759C24.6443 28.6162 18.6832 27.8684 13.4486 28.7017Z" fill="black"/>
<path d="M21.6315 38.8715C19.1531 40.1962 20.9905 46.0505 24.6014 48.3153C29.195 51.221 36.374 49.1699 36.374 44.9608C36.374 43.102 34.1947 42.4824 31.7162 43.6361C28.8532 44.9608 26.4388 43.8925 25.2851 40.7731C24.6014 38.8715 23.1058 38.1024 21.6315 38.8715Z" fill="black"/>
</svg>
