<svg width="92" height="170" viewBox="0 0 92 170" fill="none" xmlns="http://www.w3.org/2000/svg">
<path d="M42.4528 0.27646C35.808 0.789241 32.1331 2.45578 32.71 4.67783C33.2014 6.53666 35.0816 6.89988 43.6279 6.85715C57.2166 6.81442 68.4978 8.16047 78.1125 10.9594C80.9114 11.7713 80.89 11.7713 75.9973 12.3909C56.0201 14.9121 24.3986 15.5317 11.3227 13.6729C10.404 13.5447 9.65617 13.3524 9.65617 13.2669C9.65617 12.69 19.6981 9.10057 23.7363 8.2673C27.6676 7.43403 28.9282 5.98115 27.4112 4.03686C25.3601 1.45158 12.0919 3.97276 4.69928 8.35277C-1.62502 12.1132 -0.59946 17.5828 6.77177 19.463C20.6169 23.0098 78.1552 21.1296 87.8767 16.835C91.9148 15.0617 92.6626 11.2799 89.5432 8.48096C83.689 3.22495 59.1609 -1.04822 42.4528 0.27646Z" fill="black"/>
<path d="M87.0869 20.5774C85.2495 21.4535 82.8351 30.2135 80.3994 44.785C78.7756 54.4851 78.3483 59.5702 78.3483 69.6763C78.3483 78.7354 78.3483 78.8636 79.6302 91.5763C80.8054 103.349 80.9122 104.738 80.9122 111.34C80.9122 134.436 73.0923 142.833 51.5341 142.833C31.0015 142.812 18.0965 135.654 13.6096 121.788C11.2808 114.587 10.7252 107.622 10.7252 85.8075C10.7252 51.9426 8.78095 29.4016 5.66153 26.9445C3.8027 25.4916 0.939668 27.4359 1.62338 29.658C1.9866 30.8117 2.69167 38.5034 3.26855 47.5626C3.39675 49.4428 3.58904 63.5656 3.6745 78.9704C3.78133 94.3539 3.93089 107.387 3.99499 107.921C4.05909 108.455 4.27275 110.186 4.44367 111.767C7.15714 135.654 21.4296 148.153 47.6455 149.563C77.8782 151.187 90.7191 135.248 87.2578 100.336C87.1083 98.798 86.6596 94.5248 86.2537 90.8285C83.7111 67.3474 84.0102 59.4206 88.433 35.1704C90.6764 22.885 90.3132 18.9964 87.0869 20.5774Z" fill="black"/>
<path d="M43.3295 39.422C36.8129 41.8363 34.5054 62.4117 35.7232 107.045C36.1078 121.104 36.7274 123.475 39.74 122.728C42.1757 122.151 42.0048 123.881 42.0262 97.6654C42.0475 75.7654 42.1544 71.2785 42.774 63.5868C43.2227 58.2026 44.291 50.34 44.6969 49.6135C44.9747 49.1221 45.8934 55.8737 46.4062 61.9844C46.513 63.4586 46.6626 65.1251 46.7267 65.7234C47.1112 69.6547 47.5599 81.0214 47.9018 94.781C48.5641 121.296 49.2692 126.082 52.5382 126.082C54.4184 126.082 55.5508 122.77 55.273 118.091C55.2089 117.023 55.0594 111.916 54.9525 106.746C53.756 54.6772 50.658 36.7299 43.3295 39.422Z" fill="black"/>
<path d="M65.0577 42.9861C61.6606 43.9689 59.118 50.0796 58.007 59.8865C56.6396 72.1933 58.6266 104.755 60.9128 107.319C62.9639 109.605 64.5022 107.874 64.3527 103.473C64.1176 96.1017 64.2458 66.6168 64.545 63.1555C65.0577 56.8525 66.297 50.1009 66.7243 51.2547C67.3012 52.8144 68.049 58.4123 68.519 64.8648C69.0745 72.1505 69.9505 74.5862 72.0444 74.5862C74.3733 74.5862 75.1424 71.0181 74.6297 62.5359C73.7109 47.3875 70.7411 41.3409 65.0577 42.9861Z" fill="black"/>
<path d="M18.6942 52.2413C12.9895 54.1002 9.44275 64.5481 14.5065 64.5481C15.8312 64.5481 16.5576 63.9498 17.4336 62.2406C18.9292 59.2921 19.9975 58.5015 20.7026 59.7835C23.416 64.719 24.4416 76.278 24.7194 105.143C24.8903 121.488 25.168 126.466 26.1081 128.539C27.3901 131.423 30.2531 131.381 31.3855 128.453C32.112 126.573 31.8342 87.2173 31.0223 76.2993C29.6549 58.1597 25.4885 50.0193 18.6942 52.2413Z" fill="black"/>
<path d="M24.2275 149.713C20.2535 153.111 20.3176 160.781 24.3557 164.349C30.9151 170.118 56.4473 171.784 62.1306 166.806C66.8952 162.661 66.6816 151.508 61.8315 151.508C59.6735 151.508 59.1394 152.555 59.118 156.85C59.118 163.43 55.6995 164.67 42.6663 162.853C29.1203 160.973 27.176 159.563 28.9921 152.961C29.9109 149.649 26.7914 147.513 24.2275 149.713Z" fill="black"/>
<path d="M33.8426 150.568C32.0479 151.807 30.7232 157.319 31.8769 158.708C33.693 160.951 36.0433 159.328 37.5603 154.798C38.6927 151.401 36.3851 148.773 33.8426 150.568Z" fill="black"/>
<path d="M51.8103 152.127C49.0541 153.857 50.0797 160.545 53.1137 160.545C55.4425 160.545 56.874 156.699 55.7417 153.451C55.2289 151.956 53.1777 151.272 51.8103 152.127Z" fill="black"/>
<path d="M42.3462 152.298C40.1242 153.836 40.4233 159.584 42.7735 160.289C44.846 160.908 46.0212 159.391 46.1493 155.887C46.2775 152.511 44.4828 150.824 42.3462 152.298Z" fill="black"/>
</svg>
