<svg width="86" height="80" viewBox="0 0 86 80" fill="none" xmlns="http://www.w3.org/2000/svg">
<path d="M43.9553 0.902689C18.829 3.06064 5.28305 8.89353 2.59094 18.7218C0.454356 26.4777 7.03505 46.9248 15.7096 59.4452C17.953 62.6715 21.4143 62.2228 21.4143 58.7188C21.4143 57.1377 21.628 57.6291 17.8889 50.4502C10.0904 35.4941 6.92822 22.354 10.0476 17.739C15.4532 9.70544 47.7584 3.72299 64.552 7.65431C83.3754 12.0557 85.4906 26.6272 69.1884 39.4467C53.5486 51.7321 50.13 55.2148 49.0831 59.8298C48.0362 64.5517 53.5486 66.4532 55.0656 61.8809C56.1552 58.5906 59.531 55.1293 69.2739 47.3521C81.4097 37.6307 84.7428 33.0156 85.6188 24.6402C87.3067 8.38075 70.2353 -1.34073 43.9553 0.902689Z" fill="black"/>
<path d="M59.0603 23.8919C57.7143 25.1311 52.6078 34.8739 51.9455 37.5019C50.8131 42.0102 53.7402 42.6084 56.6887 38.4634C58.5689 35.8354 62.9703 26.7976 62.9703 25.6012C62.9703 23.2936 60.791 22.3535 59.0603 23.8919Z" fill="black"/>
<path d="M22.4181 25.5391C19.8756 28.0816 23.2727 43.5292 26.3494 43.5078C28.4646 43.4864 28.7638 41.2003 27.61 34.1068C27.2041 31.5856 26.7554 28.8081 26.6272 27.9534C26.1999 25.1545 24.0419 23.9153 22.4181 25.5391Z" fill="black"/>
<path d="M38.6782 26.7962C36.7125 28.3345 36.1783 40.7267 37.9944 42.4146C40.4302 44.6794 41.9685 40.9831 42.5667 31.4112C42.8231 27.3303 40.9002 25.0655 38.6782 26.7962Z" fill="black"/>
<path d="M7.09878 61.0475C-1.83216 65.8121 -0.956159 74.2944 8.70122 76.7087C16.0084 78.5248 54.1678 79.8495 63.3979 78.5889C73.2262 77.2429 75.6192 71.3032 68.5471 65.748C62.821 61.2826 58.3556 65.3207 63.7184 70.1067C64.6158 70.9186 65.2567 71.6237 65.1713 71.7091C63.3765 73.3543 22.4609 72.927 12.5471 71.1536C6.47917 70.0639 6.15868 69.5939 9.3422 66.2608C12.7607 62.65 11.1369 58.8896 7.09878 61.0475Z" fill="black"/>
</svg>
