<svg width="62" height="168" viewBox="0 0 62 168" fill="none" xmlns="http://www.w3.org/2000/svg">
<path d="M19.1816 0.378657C6.16973 1.8529 -0.240032 5.95515 2.38797 11.1257C5.87061 17.9201 41.5303 17.5568 48.1751 10.6556C51.8714 6.80979 49.1152 2.23749 42.2567 0.784609C38.5177 -0.00592925 35.4196 0.656413 35.2914 2.25885C35.2914 2.38705 35.2487 2.64344 35.206 2.8571C34.9923 4.01086 36.8084 5.31418 39.586 6.01925C43.2609 6.93798 43.4105 7.04481 41.6371 7.70716C35.6333 9.95057 13.2632 10.5916 9.73784 8.62589C8.90457 8.15584 15.763 6.01925 21.1472 5.07915C24.929 4.41681 25.6554 4.05359 26.0186 2.62208C26.5742 0.485486 24.4376 -0.219588 19.1816 0.378657Z" fill="black"/>
<path d="M47.5988 14.433C46.7228 15.309 46.6373 16.185 46.6373 23.9622C46.6373 45.1785 44.2016 66.9076 40.8471 75.689C36.0825 88.2522 24.8868 88.1453 14.9944 75.454C8.34963 66.929 6.02075 54.8145 5.67889 26.9534C5.5507 15.2663 5.44387 14.7749 3.17908 14.7749C1.21342 14.7749 0.807471 15.8432 0.508349 21.8256C-0.175359 35.2007 0.871569 50.7978 3.09362 61.032C9.58885 90.9656 37.8559 101.798 46.3809 77.5906C50.7823 65.0488 53.9658 17.0397 50.5473 14.3689C49.7567 13.7279 48.2825 13.7493 47.5988 14.433Z" fill="black"/>
<path d="M24.6299 21.208C18.1987 22.1909 13.6905 26.4427 16.2117 29.1561C17.1945 30.2031 18.6688 30.1817 21.425 29.0493C26.8733 26.8059 34.4795 27.7674 36.1034 30.8868C36.5948 31.8269 36.3597 33.4934 35.1419 38.0657C33.3472 44.7319 33.0694 48.4923 33.9027 54.8379C35.0137 63.5125 34.2445 68.6189 31.4029 71.4606C25.9973 76.8875 19.3525 69.3027 15.9767 53.8765C15.2289 50.4793 14.7802 49.817 13.135 49.817C10.8275 49.817 10.7421 52.5518 12.7932 60.9913C16.0835 74.4732 23.7539 81.2248 31.6806 77.6781C38.3681 74.6655 40.9534 66.6105 39.4578 53.4064C38.7314 47.1462 38.9877 43.92 40.6329 38.493C42.6413 31.8696 42.6199 29.028 40.4834 26.2077C37.7272 22.5541 30.5696 20.2893 24.6299 21.208Z" fill="black"/>
<path d="M28.7746 31.8122C26.5312 32.2609 26.6167 36.3845 28.8815 36.9614C31.1035 37.5169 32.5778 36.1068 32.3214 33.6924C32.1718 32.3037 30.5907 31.449 28.7746 31.8122Z" fill="black"/>
<path d="M15.0798 35.7389C13.6482 36.1448 12.9432 38.3455 13.8192 39.6702C15.4002 42.0845 18.8829 41.1658 18.9256 38.3028C18.947 36.3157 17.1736 35.1406 15.0798 35.7389Z" fill="black"/>
<path d="M23.6691 39.4981C22.9 39.6904 21.8958 40.8442 21.6608 41.8484C21.0625 44.22 23.5623 46.207 25.7844 45.1174C29.2456 43.4295 27.4082 38.6008 23.6691 39.4981Z" fill="black"/>
<path d="M31.4037 39.8803C31.6389 40.6075 32.1095 41.2064 32.1095 40.8C32.1095 40.6075 31.917 40.2439 31.6817 39.9658C31.3181 39.5167 31.2753 39.5167 31.4037 39.8803Z" fill="black"/>
<path d="M23.0071 51.6752C21.5542 51.9529 20.5714 54.3245 21.2978 55.8201C22.7507 58.8541 27.558 57.3157 26.8743 54.0254C26.4897 52.1666 25.0155 51.2692 23.0071 51.6752Z" fill="black"/>
<path d="M28.0488 62.1668C25.8908 63.2351 25.7626 66.44 27.8565 67.5938C28.8607 68.1493 30.6341 68.0211 31.3605 67.3374C34.0526 64.8162 31.3178 60.5217 28.0488 62.1668Z" fill="black"/>
<path d="M30.0786 94.7704C28.9249 95.9883 28.7112 100.582 29.0958 115.837C29.8222 144.852 30.3991 149.168 33.5399 149.168C36.5525 149.168 36.7234 147.266 35.7406 123.636C35.5056 118.102 35.2706 112.205 35.2065 110.496C34.8646 101.458 34.3946 95.6892 33.9672 95.1336C32.8989 93.7662 31.1897 93.5953 30.0786 94.7704Z" fill="black"/>
<path d="M46.1033 142.204C45.9965 142.268 45.6333 142.353 45.3342 142.418C42.6207 143.016 44.0522 146.413 48.1758 149.212C52.3208 152.011 55.1197 154.938 54.9274 156.263C54.3506 160.429 18.6482 162.865 11.8111 159.211C10.871 158.72 13.8836 155.878 20.913 150.601C24.4383 147.973 24.8443 147.481 24.8443 146.028C24.8229 141.606 19.631 143.336 10.7428 150.729C-2.20494 161.497 5.63635 168.121 30.8054 167.693C54.6497 167.287 65.1831 161.796 60.4185 152.267C58.0041 147.374 49.0305 141.093 46.1033 142.204Z" fill="black"/>
</svg>
