<svg width="79" height="209" viewBox="0 0 79 209" fill="none" xmlns="http://www.w3.org/2000/svg">
<path d="M56.4377 0.891272C26.5254 2.85693 16.6758 3.8825 15.928 5.10035C13.535 9.03168 14.4964 9.07441 52.9123 7.04465C66.4155 6.31821 68.0821 5.91226 68.0821 3.34835C68.0821 1.0622 64.6849 0.335759 56.4377 0.891272Z" fill="black"/>
<path d="M15.094 11.1537C14.2607 11.4742 13.8334 12.1579 13.5556 13.6536C13.1924 15.6619 13.1924 36.2159 13.5556 43.2667C13.8761 49.5269 14.218 55.0179 14.3462 56.4067C14.4103 56.9836 14.5384 58.821 14.6666 60.4662C17.7433 102.899 22.337 116.509 34.7933 119.97C44.9848 122.79 53.5953 115.035 58.3385 98.6898C63.7014 80.1656 68.5514 43.8222 68.5942 21.6871C68.6155 12.7562 68.1882 11.2178 65.6243 11.2178C63.2527 11.2178 63.0177 12.0938 62.8681 21.5803C62.4194 51.343 56.2447 89.6093 49.6853 103.497C43.3183 116.936 32.5072 116.68 27.6998 102.984C23.7899 91.8527 20.6491 65.0599 18.833 27.2423C18.0425 10.9828 17.8288 10.0641 15.094 11.1537Z" fill="black"/>
<path d="M40.0925 27.1277C31.4394 28.7729 25.6492 33.2384 24.0681 39.4772C22.8075 44.4982 22.9144 60.6508 24.3031 72.1029C28.2772 105.199 43.5965 109.643 51.1601 79.9014C53.6171 70.3082 57.698 45.9083 57.9544 39.3063C58.3604 29.4566 51.7156 24.927 40.0925 27.1277Z" fill="black"/>
<path d="M43.0418 121.187C42.2513 122.042 42.059 122.512 41.8026 124.136C40.777 130.567 35.692 129.84 34.4314 123.11C33.6195 118.815 29.3249 122.106 30.03 126.486C31.7606 137.276 45.969 136.976 47.6141 126.101C48.2551 121.849 45.3493 118.73 43.0418 121.187Z" fill="black"/>
<path d="M36.5667 138.788C34.6651 139.365 34.1951 146.458 34.366 170.708C34.4942 186.391 34.7079 187.502 37.5495 187.566C40.7758 187.63 40.6476 188.634 40.5621 166.862C40.4553 138.275 40.3698 137.613 36.5667 138.788Z" fill="black"/>
<path d="M51.8434 177.952C45.9678 179.256 47.848 183.187 54.8347 184.17C64.4279 185.559 72.3547 188.635 72.3547 191.007C72.3547 192.759 66.0945 195.814 59.001 197.545C36.6309 202.929 3.74883 200.622 8.17157 193.977C10.6714 190.216 18.064 185.046 23.7259 183.08C25.713 182.396 26.1403 182.076 26.3967 181.114C27.7641 176.051 19.4528 177.546 9.85947 184.084C-9.56212 197.31 4.24025 209.659 36.6309 208.035C66.7355 206.519 85.7297 195.771 76.1578 185.644C71.436 180.644 58.36 176.499 51.8434 177.952Z" fill="black"/>
<path d="M30.0509 189.791C28.1066 191.757 30.8201 195.09 35.2215 196.137C39.8365 197.227 44.1738 195.56 44.3874 192.612C44.5584 190.027 42.785 189.151 39.8152 190.39C38.2127 191.073 36.1402 190.903 33.8327 189.92C31.7816 189.044 30.8415 189.001 30.0509 189.791Z" fill="black"/>
</svg>
