<svg width="82" height="179" viewBox="0 0 82 179" fill="none" xmlns="http://www.w3.org/2000/svg">
<path d="M58.0262 0.782614C43.2197 1.78681 6.8122 5.69677 5.38068 6.42321C3.54322 7.38467 3.65005 10.2477 5.57298 11.0382C6.70537 11.5083 14.4826 11.0382 29.0755 9.64946C33.7759 9.17941 45.3776 8.17521 54.5009 7.40604C67.299 6.33774 68.4314 6.03862 68.7519 3.62428C69.0938 1.06037 66.0171 0.248466 58.0262 0.782614Z" fill="black"/>
<path d="M71.0604 7.06432C70.2485 7.89759 70.0349 9.09408 70.1844 12.2135C70.8254 24.7339 66.2959 44.2196 60.8048 52.7019C52.6431 65.265 34.7384 65.6069 21.4489 53.4497C12.9025 45.6297 7.39011 32.917 5.78766 17.3627C5.38171 13.4314 4.16386 12.128 1.96317 13.2604C-0.536638 14.5637 0.040241 25.9945 3.13829 36.186C14.0563 72.2089 55.6984 81.3749 69.3725 50.7789C75.6327 36.7629 78.3676 9.86325 73.838 6.89339C73.0475 6.35925 71.6801 6.44471 71.0604 7.06432Z" fill="black"/>
<path d="M39.7585 17.811C15.1023 18.2597 8.30795 22.6824 15.2305 33.75C23.67 47.2318 36.7246 55.9705 45.7837 54.2185C52.1721 52.9793 58.6246 46.7618 63.0474 37.6386C70.1836 22.8961 63.6883 17.3623 39.7585 17.811Z" fill="black"/>
<path d="M53.7968 70.4582C52.7926 71.2274 52.5148 72.0393 52.3653 74.6459C51.7884 84.6024 34.7171 83.0641 32.6659 72.8512C31.854 68.7917 27.3672 69.4327 27.3672 73.6204C27.3672 86.9954 50.7415 92.9138 57.5786 81.248C60.8262 75.7142 57.9204 67.4029 53.7968 70.4582Z" fill="black"/>
<path d="M40.6997 90.9659C40.0801 91.6283 40.0801 91.6283 40.1229 95.816C40.1656 100.196 40.5502 111.605 40.7211 114.02C40.9348 116.883 41.2553 132.8 41.2553 141.261C41.2553 157.948 41.8749 160.896 45.3148 160.896C48.776 160.896 49.1606 157.072 48.0923 133.783C46.8958 107.717 45.272 92.0129 43.6696 90.7309C42.7936 90.0472 41.4903 90.154 40.6997 90.9659Z" fill="black"/>
<path d="M24.2695 153.44C6.00167 157.671 1.89942 170.49 17.2188 175.426C29.9956 179.549 59.0532 178.866 72.2786 174.144C86.722 168.973 83.7094 157.372 67.1081 154.167C56.0192 152.051 54.78 157.436 65.6125 160.705C73.9452 163.204 75.7186 164.892 71.9154 166.687C57.0661 173.716 8.7365 172.135 15.1676 164.828C17.0692 162.692 21.727 160.085 26.6197 158.44C30.5083 157.136 31.3202 156.346 30.7861 154.359C30.3588 152.821 28.2436 152.5 24.2695 153.44Z" fill="black"/>
<path d="M34.8033 160.024C28.8636 165.045 44.3325 172.437 52.0028 168.228C57.0452 165.472 54.5667 160.494 49.2039 162.652C45.8708 163.976 40.6575 163.079 38.9696 160.9C37.9013 159.468 35.9357 159.062 34.8033 160.024Z" fill="black"/>
</svg>
