<svg width="90" height="180" viewBox="0 0 90 180" fill="none" xmlns="http://www.w3.org/2000/svg">
<path d="M42.0712 0.857151C19.3166 2.63052 3.42034 10.3222 9.85148 16.4542C16.304 22.6076 69.505 19.4027 76.684 12.4375C81.4913 7.75833 75.7011 2.35276 65.125 1.66905C57.8393 1.17764 56.5573 6.7114 63.6935 7.86516C68.8641 8.69843 69.4837 9.06165 66.877 9.6599C61.5356 10.9205 53.5233 11.9674 43.7805 12.7152C36.2383 13.2707 17.7569 13.0143 19.0174 12.352C22.0941 10.7282 35.7042 7.54467 44.5283 6.36955C50.2971 5.60038 51.3868 5.06623 51.3227 2.99374C51.2372 0.942614 48.6733 0.344369 42.0712 0.857151Z" fill="black"/>
<path d="M75.1458 18.4592C74.0562 19.0788 73.8425 20.5744 74.3553 23.7152C76.7269 38.3509 74.9749 50.0166 69.0779 58.8408C59.1 73.7328 40.2553 78.2196 28.2477 68.5409C21.1115 62.8148 17.6929 54.0548 14.6163 33.6076C12.8215 21.7282 12.9283 22.0701 10.8772 22.0701C8.33468 22.0701 8.07829 24.3989 9.29615 37.3467C11.8814 65.4001 23.3763 79.8434 43.0329 79.8007C66.0012 79.758 83.1794 58.3493 81.1924 32.2189C80.3377 21.1513 78.3293 16.6004 75.1458 18.4592Z" fill="black"/>
<path d="M51.7285 85.1029C50.5534 86.2566 50.2543 90.6794 50.0406 109.567C49.656 145.312 52.7114 163.943 58.7579 162.725C60.4885 162.383 60.7877 160.332 59.7194 156.144C56.835 144.671 56.0658 134.116 55.7667 100.85C55.6385 85.7011 55.6385 85.7011 54.9334 85.0815C53.9506 84.2055 52.6259 84.2055 51.7285 85.1029Z" fill="black"/>
<path d="M40.747 85.1048C39.636 85.9594 39.636 85.8953 39.9351 98.6294C40.5975 128.178 39.5719 139.438 34.615 157.856C33.739 161.039 33.6963 163.71 34.4868 164.479C38.0976 168.111 43.6314 153.433 45.3621 135.528C46.7936 120.978 46.4303 98.0739 44.5929 87.2841C44.2083 84.9552 42.3067 83.8656 40.747 85.1048Z" fill="black"/>
<path d="M23.4831 150.075C4.12565 154.434 -6.365 169.048 5.42897 175.202C20.1287 182.85 77.8593 179.646 86.833 170.672C93.7769 163.728 85.3587 152.639 72.0051 151.122C63.3519 150.139 62.3263 155.588 70.8299 157.404C79.2481 159.198 85.2519 164.091 81.812 166.377C73.9707 171.548 31.8372 175.095 15.6846 171.933C10.3004 170.886 6.60409 169.155 6.60409 167.681C6.60409 164.519 17.5648 157.361 26.1325 154.904C33.0337 152.938 30.598 148.473 23.4831 150.075Z" fill="black"/>
</svg>
