<svg width="282" height="376" viewBox="0 0 282 376" fill="none" xmlns="http://www.w3.org/2000/svg">
<path d="M136.164 1.0836C135.779 1.46819 135.053 2.30146 134.54 2.92107C134.006 3.54068 132.767 4.6517 131.741 5.37814C126.72 9.07444 124.989 13.7536 126.848 18.625C128.237 22.2999 132.275 21.9581 131.827 18.1977C131.271 13.3263 131.784 12.1298 135.63 9.48039C137.061 8.49756 137.061 8.49756 137.574 9.39493C137.852 9.88635 138.493 10.9546 139.006 11.7879C139.988 13.3904 140.715 15.356 140.715 16.4457C140.715 21.0821 145.907 21.4453 146.697 16.873C147.146 14.1168 146.249 11.5956 143.364 7.62156C141.591 5.16448 141.035 4.09619 140.822 2.66468C140.48 0.378526 137.681 -0.561573 136.164 1.0836Z" fill="black"/>
<path d="M105.952 16.1683C104.2 16.5743 99.2213 22.4285 98.0035 25.5052C96.2301 30.0348 97.4693 34.543 100.525 34.543C102.448 34.543 103.217 33.2824 102.96 30.5903C102.811 28.9451 103.665 26.9153 105.311 25.0565C106.229 24.0096 106.229 24.0096 107.319 25.5907C108.836 27.7913 109.199 28.6246 109.605 30.6757C110.652 35.8249 115.716 35.3121 115.716 30.0348C115.716 27.5991 114.861 25.6761 112.255 22.2576C111.272 20.9543 110.353 19.5655 110.203 19.1595C109.221 16.5529 108.003 15.6769 105.952 16.1683Z" fill="black"/>
<path d="M162.594 17.0272C162.23 17.2623 161.675 17.8178 161.354 18.2665C161.055 18.6938 159.624 20.2321 158.192 21.6423C153.748 26.0223 152.487 29.1417 153.406 33.3294C154.581 38.6068 159.09 38.1581 158.769 32.7739C158.577 29.7186 158.855 28.9921 161.333 26.471C163.32 24.4626 163.32 24.4626 163.918 25.5309C164.175 25.9582 165.008 27.1974 165.798 28.2871C166.568 29.3553 167.55 30.8723 167.978 31.6415C169.537 34.5045 172.251 34.9105 173.426 32.4748C174.388 30.5091 173.533 28.1375 170.691 24.783C168.555 22.2832 167.486 20.6167 167.08 19.1638C166.397 16.8349 164.388 15.8735 162.594 17.0272Z" fill="black"/>
<path d="M133.835 17.9443C132.895 18.7348 132.767 19.2262 132.831 21.7474C132.917 24.0976 132.917 24.0976 131.827 24.7173C129.37 26.106 128.195 28.1999 127.661 32.1099C127.169 35.7421 127.703 48.4548 128.537 52.9202C128.707 53.8603 128.707 54.1381 128.472 54.309C127.233 55.2277 127.447 57.4712 128.857 58.454C129.648 58.9881 129.498 58.9668 135.245 58.924C139.241 58.9027 138.963 58.7317 139.241 61.2529C139.604 64.7569 139.219 65.8893 137.51 66.4021C135.694 66.9576 133.771 65.6757 132.468 63.0477C130.524 59.095 126.72 59.8214 127.105 64.0519C127.383 67.1713 130.801 71.2949 133.109 71.2949C133.408 71.2949 133.451 72.0641 133.451 79.0934C133.451 84.6272 133.387 86.892 133.216 86.892C131.271 86.892 120.888 82.7684 115.824 79.9908C113.324 78.6234 113.409 78.773 114.414 77.491C117.17 74.0084 116.208 69.8847 112.811 70.6539C111.85 70.8676 111.508 71.2094 110.333 73.0042C108.111 76.38 105.504 76.2304 104.414 72.6623C103.645 70.248 103.154 70.5044 110.162 69.6925C113.709 69.2651 114.456 69.0728 115.012 68.4746C116.166 67.214 115.738 65.0561 114.243 64.5005C113.773 64.3296 113.773 64.3296 113.794 59.0095C113.837 46.4891 112.897 41.8527 109.884 39.652C109.094 39.0751 109.072 39.011 108.987 37.5368C108.73 33.3491 108.068 31.9817 106.231 31.9817C104.35 31.9817 103.752 33.0286 103.752 36.4258C103.752 38.7546 103.752 38.7546 102.962 39.2674C100.761 40.6989 99.5858 52.5143 100.59 63.2827C100.761 64.992 100.761 64.992 99.9917 65.5047C98.0047 66.8722 97.5346 69.8206 98.7097 73.7092C100.12 78.4311 102.406 80.7172 105.996 81.0591C107.406 81.1873 107.555 81.2514 108.645 82.2342C112.106 85.3964 122.405 90.7379 127.746 92.148C129.669 92.6608 129.669 92.6608 126.614 94.1564C118.131 98.3655 106.978 98.3014 95.9535 94.0068C90.0566 91.6993 88.5823 90.9088 88.9883 90.3319C92.2145 85.7596 89.3301 78.6448 85.8048 82.4265C85.1424 83.1316 85.0997 83.2171 84.7365 84.9691C83.7964 89.7337 79.865 89.3277 78.7754 84.3922C78.519 83.1316 78.2626 83.2812 84.1809 81.4437C88.2405 80.1831 89.5438 78.132 87.4499 76.3159C86.7235 75.6749 86.7235 75.6749 86.5953 66.7012C86.403 52.3433 85.2279 47.8565 81.3179 46.6173C81.0402 46.5318 80.8906 46.2968 80.8906 45.9763C80.8906 45.549 80.506 43.4765 80.1428 41.8741C79.7582 40.2503 77.3439 39.7161 76.1687 40.9767C74.4381 42.8355 75.3782 37.4941 77.1943 35.1011C78.284 33.6909 78.3481 33.6909 79.4805 35.1224C80.8692 36.8744 81.5316 38.1991 81.7666 39.6947C82.4717 44.0961 86.9799 43.562 86.9799 39.0751C86.9799 36.3617 86.1252 34.7165 82.8135 30.9134C82.1512 30.1442 81.4247 29.2255 81.2325 28.8836C77.6216 22.602 67.4301 35.8702 70.5922 42.7501C71.7246 45.2499 74.6304 45.4849 75.3355 43.1347C75.4637 42.7501 75.5278 43.2842 75.5278 44.8012C75.5491 47.066 75.5491 47.066 74.6304 47.8351C70.9982 50.8691 70.3145 61.7443 72.7716 77.0209C73.1989 79.649 73.1989 79.649 72.7288 80.5463C69.7376 86.2296 76.9806 95.652 83.1981 94.1991C84.1382 93.9855 84.1382 93.9855 85.7834 95.3102C98.0901 105.245 118.922 106.976 131.827 99.0919C133.643 98.0023 133.429 97.4254 133.451 103.686C133.493 112.809 134.733 126.675 135.673 128.513C135.993 129.132 135.993 129.132 135.16 128.919C133.216 128.385 129.583 131.376 125.417 136.952C116.892 148.319 124.819 153.767 145.629 150.861C156.932 149.302 159.346 144.345 152.616 136.504C147.744 130.842 142.617 128.064 141.377 130.436C140.202 132.7 140.929 133.833 146.975 139.303C149.496 141.589 150.522 142.956 149.967 143.255C147.531 144.494 128.964 145.05 128.964 143.875C128.964 143.341 130.63 140.691 132.553 138.191C133.686 136.717 135.053 134.901 135.63 134.175C136.784 132.636 137.147 131.632 136.848 130.628C136.591 129.752 136.613 129.709 136.912 130.008C137.062 130.158 137.574 130.265 138.066 130.265C140.587 130.265 141.185 127.722 140.501 120.009C140.01 114.433 139.839 110.993 139.711 104.134C139.647 100.182 139.625 96.934 139.69 96.934C139.732 96.934 140.843 97.5749 142.125 98.3441C159.303 108.685 181.759 106.057 190.882 92.6394C191.523 91.6779 191.587 91.6566 192.891 91.507C196.672 91.1224 199.151 88.2808 200.561 82.6829C201.693 78.1747 201.608 76.2945 200.219 74.7348C199.493 73.9229 199.493 73.9229 199.728 71.3804C200.796 60.0992 199.941 52.8348 197.313 51.1041C196.33 50.4632 196.33 50.4632 196.074 48.647C195.711 46.1686 195.07 45.4422 193.254 45.4422C191.48 45.4422 190.711 46.6173 190.711 49.3949C190.711 50.4632 190.711 50.4632 189.515 51.0828C186.609 52.5997 186.331 53.7749 186.331 64.5646C186.331 73.0042 186.331 73.111 185.861 73.6238C184.985 74.6066 185.113 76.4441 186.118 77.2346C186.865 77.8329 192.015 78.5593 195.454 78.5593C196.16 78.5593 196.16 78.5807 195.262 81.5078C193.66 86.6997 191.01 87.0416 188.468 82.4052C187.421 80.5036 186.545 79.8412 185.135 79.8412C181.994 79.8412 182.165 85.1186 185.434 88.5585C186.929 90.1182 179.921 95.2888 173.533 97.3399C165.094 100.053 157.081 99.0919 146.527 94.1564C144.112 93.024 144.112 93.024 145.715 92.4258C152.124 90.0969 159.538 84.8622 162.102 80.8454C162.572 80.0976 162.679 80.0549 163.384 80.1617C164.367 80.3327 166.846 79.7558 167.957 79.0934C172.465 76.4654 174.644 66.8935 171.247 64.5433C170.606 64.0732 170.606 64.0732 170.606 56.3174C170.649 43.3056 170.072 40.6562 166.952 39.0751C165.905 38.5624 165.713 38.135 165.713 36.4471C165.713 33.3063 164.218 31.6612 161.995 32.409C160.82 32.7936 160.372 33.9473 160.372 36.6394C160.372 38.7974 160.372 38.7974 159.581 39.1606C155.757 40.9981 154.838 48.6684 156.846 62.3212C157.145 64.351 157.145 64.351 156.633 64.7783C155.543 65.6757 155.522 67.0217 156.526 67.9832C157.145 68.5601 157.145 68.5601 162.594 68.5387C168.79 68.496 168.32 68.325 167.764 70.3762C166.482 75.2048 163.384 76.0381 160.863 72.235C159.902 70.7821 159.026 70.2266 157.722 70.2266C155.158 70.2266 154.817 73.5383 157.081 76.5509C158.363 78.2602 148.92 84.9263 141.399 87.6184C139.39 88.3449 139.433 88.409 139.433 85.2255C139.433 82.3838 139.113 75.1408 138.878 72.8332C138.771 71.6795 138.814 71.4872 139.155 71.4017C143.001 70.248 145.202 66.8722 145.202 62.1076C145.202 57.1934 144.796 55.0568 143.685 54.0099C143.258 53.6039 143.236 53.4116 143.087 40.8058C142.894 26.747 142.894 26.7043 141.548 25.0805C140.779 24.1617 139.519 23.4353 138.621 23.4353C138.002 23.4353 138.002 23.4353 137.873 21.5337C137.638 17.9443 135.801 16.2777 133.835 17.9443ZM137.574 29.9946C137.617 30.6783 137.532 34.9301 137.361 39.4597C137.19 43.9893 137.083 48.9034 137.126 50.4204C137.19 53.1339 137.19 53.1339 135.844 53.1339C134.263 53.1339 134.412 53.433 134.006 49.5871C132.169 32.9859 132.767 28.8622 137.019 28.7768C137.425 28.7768 137.489 28.905 137.574 29.9946ZM107.534 45.6345C107.897 46.8523 108.132 63.8168 107.79 63.8168C107.705 63.8168 107.342 63.8809 106.978 63.945C106.316 64.0732 106.316 64.0732 106.316 53.8817C106.316 42.7501 106.444 41.9595 107.534 45.6345ZM164.624 44.6303C165.008 45.6345 165.115 47.5574 165.264 55.42C165.35 59.8641 165.414 63.4963 165.414 63.5177C165.393 63.5391 164.773 63.6032 163.983 63.6673C162.594 63.7955 162.594 63.7955 162.166 58.4113C161.611 50.9973 161.611 44.8867 162.166 44.4593C162.872 43.9466 164.41 44.0747 164.624 44.6303ZM79.8009 51.9801C80.912 53.4116 80.9761 53.9458 81.0615 65.3552C81.147 77.2773 81.3179 76.0381 79.4591 76.3159C78.3267 76.4868 78.4976 77.2773 77.2157 65.6329C76.5106 59.0522 76.9593 53.3903 78.3267 52.0442C79.0745 51.2751 79.2454 51.2751 79.8009 51.9801ZM194.557 56.0396C194.856 56.8088 194.814 60.7401 194.45 66.7012C194.279 69.5215 194.13 72.0641 194.13 72.3632C194.13 72.876 194.087 72.8973 193.061 72.8332C191.993 72.7478 191.993 72.7478 191.993 70.9103C191.993 69.8847 191.886 66.6371 191.78 63.71C191.459 56.0824 191.587 55.4841 193.403 55.4841C194.237 55.4841 194.386 55.5482 194.557 56.0396Z" fill="black"/>
<path d="M194.855 27.9654C194.514 28.2218 194.172 28.5636 194.065 28.6918C193.979 28.8414 192.676 30.0165 191.18 31.2984C184.621 36.939 182.335 41.6395 184.343 45.3572C185.818 48.092 189.001 46.8101 189.001 43.477C189.001 41.6182 189.813 40.443 193.253 37.3877C195.283 35.5716 195.283 35.5716 195.646 36.3835C195.838 36.8536 196.522 38.0928 197.184 39.1825C198.979 42.1309 199.086 42.4087 199.278 44.2675C199.684 48.3698 203.722 48.327 204.577 44.2034C205.026 42.0455 204.449 40.3789 201.906 36.5544C199.898 33.5419 199.513 32.6445 199.257 30.4438C198.915 27.6876 196.778 26.4911 194.855 27.9654Z" fill="black"/>
<path d="M38.7991 58.7527C31.7484 60.3551 30.4451 67.3204 33.7782 85.5668C35.3379 94.0064 35.9575 95.4379 38.03 95.4379C40.4871 95.4379 40.658 94.5405 39.7392 86.6779C37.4745 67.4272 37.6454 64.671 41.1708 64.671C43.3287 64.671 44.2047 67.4486 44.9953 76.9564C46.0208 88.9213 46.6832 90.951 50.9563 95.1815C54.9518 99.1342 56.2337 102.724 56.8747 111.911C57.1738 116.248 48.4779 117.893 37.7309 115.5C34.2482 114.731 34.6328 115.287 34.6328 111.078C34.6328 106.911 34.8678 105.95 36.7694 102.382C38.735 98.6641 38.5 96.7198 36.1284 96.7198C33.3295 96.7198 30.2101 101.954 29.3982 108.001C29.0563 110.437 29.1845 112.723 30.0178 120.222C30.381 123.342 30.9579 129.431 31.3211 133.79C33.244 157.057 35.5729 161.159 47.6019 162.356C61.8957 163.766 67.109 157.826 65.3997 142.08C65.1219 139.409 64.6305 134.409 64.3528 131.012C61.5538 98.8351 61.2333 97.4249 55.1227 91.4852C51.4478 87.9171 51.2127 87.0838 50.4222 75.5676C49.5035 61.7652 46.2558 57.0647 38.7991 58.7527ZM38.5641 139.9C44.5038 142.144 52.7511 142.251 57.9857 140.157C59.6736 139.494 59.4386 139.067 60.0796 144.067C61.3188 153.617 60.1864 155.497 52.7083 156.352C42.6236 157.506 38.9487 154.536 37.8377 144.302C37.6668 142.635 37.4745 140.862 37.4104 140.349C37.3676 139.858 37.3249 139.452 37.3676 139.452C37.389 139.452 37.9231 139.644 38.5641 139.9Z" fill="black"/>
<path d="M211.756 85.7363C205.389 86.3773 204.812 86.6337 204.812 88.8344C204.812 91.1633 205.495 91.3769 213.465 91.3769C221.776 91.3769 220.964 90.8 220.922 96.7184C220.858 104.602 219.554 107.059 214.896 108.064C210.965 108.897 207.611 104.624 207.077 98.1072C206.756 94.3468 206.072 93.0862 204.342 93.0862C202.077 93.0862 201.073 95.7142 201.607 100.201C202.44 107.166 205.581 111.931 210.324 113.384C211.713 113.811 211.628 113.32 212.055 121.93C212.781 135.861 213.294 144.258 213.486 145.668C213.593 146.437 213.593 146.437 210.516 146.693C205.666 147.099 204.299 147.911 204.748 150.154C205.154 152.184 206.136 152.377 214.512 152.077C224.191 151.714 226.178 151.137 226.178 148.702C226.178 146.971 224.938 146.245 221.755 146.116C219.554 146.031 219.554 146.031 219.554 142.142C219.554 135.968 217.845 116.567 217.076 114.003C216.99 113.726 217.247 113.555 218.165 113.256C224.148 111.397 226.285 107.252 226.285 97.6799C226.263 86.6978 223.635 84.5398 211.756 85.7363Z" fill="black"/>
<path d="M237.587 86.2511C234.895 86.3793 234.254 86.4647 233.805 86.8066C232.566 87.704 232.502 89.5414 233.656 90.567C234.404 91.2721 233.827 91.208 242.031 91.2507C249.766 91.2721 249.125 90.9729 249.232 94.6051C249.445 102.233 247.95 108.771 245.749 109.775C241.519 111.698 237.651 107.211 236.647 99.2843C235.985 93.9855 235.75 93.2164 234.617 92.7036C232.053 91.5285 230.771 94.1137 231.284 99.4552C232.139 108.172 235.387 113.514 240.984 115.394C241.305 115.501 241.348 115.864 241.348 118.898C241.348 123.599 241.689 129.581 242.395 137.871C243.1 145.947 243.185 145.114 241.625 145.306C237.822 145.755 236.284 147.699 238.121 149.751C239.382 151.161 253.27 150.648 254.573 149.152C256.603 146.866 254.829 144.836 250.62 144.644C248.185 144.516 248.185 144.516 248.185 141.61C248.185 138.085 247.95 134.602 247.116 125.885C246.069 114.775 246.091 115.608 246.924 115.437C252.052 114.475 254.082 109.989 254.509 98.7074C254.958 86.7852 253.248 85.5246 237.587 86.2511Z" fill="black"/>
<path d="M211.97 93.5783C208.637 93.9842 207.462 94.903 207.505 97.1037C207.655 106.847 217.932 109.475 219.684 100.223C220.816 94.1765 219.149 92.745 211.97 93.5783Z" fill="black"/>
<path d="M240.344 95.3088C237.053 96.3771 236.412 98.2359 237.716 102.915C240.28 111.996 247.993 110.714 247.971 101.227C247.95 96.2916 244.809 93.8559 240.344 95.3088Z" fill="black"/>
<path d="M169.665 130.495C157.849 130.794 155.264 131.478 155.243 134.277C155.243 136.136 156.589 136.563 161.439 136.264C168.575 135.794 183.51 136.05 195.838 136.798C205.559 137.418 206.969 137.204 207.525 135.003C208.209 132.204 202.226 130.944 186.715 130.58C177.442 130.367 175.476 130.345 169.665 130.495Z" fill="black"/>
<path d="M108.666 130.605C94.3083 131.545 76.9806 133.874 69.823 135.797C67.6223 136.395 66.6395 138.702 68.0283 140.049C69.0111 141.01 69.3529 141.031 76.831 140.091C91.6162 138.275 99.3507 137.656 115.845 136.908C121.443 136.651 122.896 136.074 123.323 133.917C123.879 131.139 118.708 129.964 108.666 130.605Z" fill="black"/>
<path d="M222.547 133.896C221.692 134.28 220.859 135.477 220.966 136.182C220.987 136.331 221.009 136.609 221.03 136.78C221.158 138.254 223.743 138.831 231.734 139.152C238.144 139.408 240.772 136.908 236.349 134.75C234.597 133.917 224.064 133.255 222.547 133.896Z" fill="black"/>
<path d="M254.851 136.973C252.992 137.636 252.522 139.238 253.804 140.477C254.872 141.524 256.752 142.144 261.923 143.212C272.2 145.306 277.114 147.635 274.849 149.366C269.444 153.446 240.343 156.587 182.805 159.322C161.525 160.326 152.423 160.86 133.129 162.206C98.5166 164.599 66.9165 165.176 45.1019 163.809C24.6975 162.506 8.67306 159.771 10.4251 157.891C11.8138 156.395 17.2194 153.404 22.5823 151.139C30.3381 147.87 27.7101 143.554 19.591 146.182C-2.03125 153.19 -3.24911 164.194 17.1767 167.975C32.261 170.774 59.9298 172.078 83.9878 171.095C98.7517 170.518 110.866 169.984 116.571 169.685C122.681 169.364 124.476 169.257 142.317 168.082C157.786 167.078 167.892 166.522 188.04 165.625C235.942 163.467 266.944 160.113 275.875 156.117C283.994 152.464 284.015 144.943 275.939 140.734C270.833 138.084 258.056 135.798 254.851 136.973Z" fill="black"/>
<path d="M175.413 137.871C173.126 138.982 173.682 141.503 176.588 143.191C178.788 144.473 179.728 145.456 179.622 146.417C179.472 147.892 174.472 149.152 167.379 149.494C162.315 149.729 161.546 149.9 156.888 151.78C149.838 154.622 145.308 155.113 139.753 153.661C135.565 152.549 132.852 152.443 128.429 153.212C121.314 154.43 119.071 154.131 114.392 151.332C111.507 149.622 110.503 149.387 106.807 149.58C97.8758 150.007 95.846 149.964 95.846 149.281C95.846 148.597 99.4996 146.012 102.213 144.751C105.674 143.17 105.845 143.063 106.187 142.337C108.879 136.696 97.9826 138.341 92.2779 144.452C86.1886 150.947 91.3805 156.609 102.576 155.69C109.349 155.135 109.114 155.113 110.503 155.904C113.772 157.72 114.477 158.062 116.272 158.66C120.289 159.963 123.899 160.07 129.497 159.002C133.194 158.297 135.01 158.297 138.15 158.959C145.65 160.583 151.162 160.028 158.854 156.865C163.277 155.071 164.153 154.878 169.43 154.622C181.929 154.024 187.848 149.451 184.707 142.764C183.168 139.452 177.848 136.653 175.413 137.871Z" fill="black"/>
<path d="M273.204 160.732C271.901 161.651 271.837 163.488 272.756 172.291C273.632 180.56 274.187 187.269 274.465 193.187C274.593 195.879 274.785 199.939 274.892 202.203C275.17 207.566 275.17 247.221 274.892 254.08C274.038 275.275 270.534 288.607 264.081 295.081C257.65 301.512 246.39 302.751 240.707 297.623C239.403 296.47 239.361 296.555 241.818 295.914C251.112 293.5 255.001 286.043 249.616 280.937C243.142 274.847 232.609 279.676 231.413 289.312C231.22 290.722 231.156 290.744 227.674 290.188C222.781 289.398 218.614 287.859 210.474 283.821C198.039 277.646 192.27 276.514 182.891 278.437C182.292 278.565 182.207 278.522 181.951 277.86C180.434 274.035 175.989 270.339 171.481 269.121C164.794 267.327 157.743 269.079 141.035 276.685C118.302 287.005 106.358 289.504 98.3245 285.573C95.782 284.312 95.4187 283.842 96.5511 283.159C104.286 278.651 107.149 270.467 102.64 265.959C96.3802 259.72 86.3382 267.498 86.6801 278.309C86.7442 280.253 85.8255 280.638 75.1211 283.244C65.8056 285.53 61.7675 286.663 58.2207 288.052C57.943 288.158 57.7293 287.731 57.0883 285.872C54.2253 277.604 49.8026 274.057 44.7389 275.98C40.3588 277.625 36.9403 282.56 31.5347 295.102C27.6034 304.183 25.4027 307.665 24.249 306.64C19.5271 302.367 13.2883 279.591 10.1902 255.148C7.8827 236.944 7.19899 222.586 7.15626 191.905C7.13489 170.454 7.09216 169.214 6.21616 168.296C5.0624 167.078 3.33177 167.462 2.4985 169.108C2.07118 169.92 1.15244 180.902 0.874688 188.486C-0.236338 218.249 0.426005 235.94 3.43859 257.498C7.73314 288.073 14.8052 309.311 21.856 312.75C27.4539 315.485 31.257 311.789 37.4531 297.559C45.2303 279.74 48.3924 278.052 51.5118 290.081C51.8751 291.47 51.8751 291.47 51.17 292.004C40.9571 299.76 38.4573 313.968 46.5763 318.242C54.439 322.387 60.8701 311.682 59.4599 296.769C59.2463 294.461 60.8274 293.82 74.1597 290.829C80.4412 289.419 85.8468 287.987 88.133 287.111C89.2654 286.684 89.2654 286.684 90.6969 288.137C99.521 297.217 115.524 295.594 143.471 282.774C164.003 273.352 170.969 272.583 175.434 279.292C176.395 280.744 176.395 280.787 175.071 281.449C164.965 286.556 161.525 297.324 168.875 300.764C175.819 304.033 183.254 297.132 183.852 286.876C184.002 283.949 184.173 283.864 190.07 283.821C195.71 283.8 197.74 284.441 208.188 289.611C218.401 294.654 223.379 296.277 230.558 296.812C232.502 296.961 232.502 296.961 233.229 298.393C238.634 308.776 256.218 310.08 267.222 300.871C275.17 294.226 279.464 282.539 281.345 262.412C282.114 254.122 281.558 205.237 280.554 191.905C279.635 179.876 277.456 162.869 276.666 161.694C275.832 160.39 274.294 159.984 273.204 160.732ZM97.6835 271.151C97.9399 271.835 96.8503 273.651 95.3546 275.04C93.6026 276.664 93.5813 276.664 94.1368 274.89C94.9487 272.283 97.2135 269.912 97.6835 271.151ZM245.108 285.68C246.241 286.983 243.954 288.842 239.895 289.889C237.801 290.423 237.865 290.423 238.036 289.504C238.72 285.872 243.207 283.458 245.108 285.68ZM177.143 288.821C176.524 291.897 174.622 294.568 172.87 294.91C169.687 295.508 171.374 291.47 175.626 288.329C177.613 286.855 177.571 286.834 177.143 288.821ZM52.7938 301.961C52.3024 309.845 48.777 315.528 48.777 308.456C48.777 305.785 49.9735 302.687 51.8537 300.486C53.0075 299.162 52.9647 299.119 52.7938 301.961Z" fill="black"/>
<path d="M255.129 170.732C254.039 171.822 253.719 178.808 254.146 191.158C254.851 211.199 256.988 221.711 260.363 221.711C262.308 221.711 262.778 218.955 261.88 212.588C260.641 203.849 259.616 191.158 259.082 177.697C258.804 170.561 257.543 168.339 255.129 170.732Z" fill="black"/>
<path d="M137.06 177.714C135.116 179.787 134.026 194.316 135.052 204.721C135.586 210.34 136.099 213.951 137.936 224.911C139.902 236.663 140.351 239.953 140.927 247.132C141.419 253.392 142.081 256.191 143.171 256.618C147.786 258.392 147.893 246.299 143.491 222.241C140.116 203.845 139.282 192.243 140.607 182.607C141.269 177.757 139.411 175.193 137.06 177.714Z" fill="black"/>
<path d="M34.7827 183.189C31.8983 184.343 33.1375 229.874 36.6843 252.051C37.7098 258.482 39.0559 261.666 40.7224 261.666C42.8376 261.666 43.1795 258.376 42.0257 248.846C40.0387 232.224 38.8209 215.302 38.3722 197.675C38.009 183.873 37.5603 182.057 34.7827 183.189Z" fill="black"/>
<path d="M180.562 194.019C179.601 195.045 178.639 199.019 177.849 205.258C175.648 222.842 184.664 261.023 189.749 255.553C191.245 253.929 190.818 250.66 187.506 238.909C182.784 222.115 181.759 211.048 183.788 198.762C184.557 194.105 182.848 191.605 180.562 194.019Z" fill="black"/>
<path d="M199.044 193.745C197.613 194.257 197.506 195.86 198.489 201.949C202.378 226.157 204.706 245.941 205.134 258.141C205.369 264.487 206.33 267.436 208.189 267.436C212.526 267.436 212.355 253.206 207.698 225.366C205.561 212.653 202.335 196.009 201.779 194.941C201.202 193.809 200.134 193.339 199.044 193.745Z" fill="black"/>
<path d="M83.5176 193.891C82.2143 194.703 81.8725 209.125 82.5989 230.79C83.304 251.942 84.18 257.391 86.8721 257.391C89.2437 257.391 89.4574 255.404 88.6027 240.17C88.2395 233.717 87.8549 226.175 87.7267 223.419C87.6199 220.663 87.4703 217.244 87.4062 215.834C87.3421 214.424 87.1926 209.595 87.0858 205.087C86.808 194.19 86.167 192.203 83.5176 193.891Z" fill="black"/>
<path d="M96.1241 196.818C94.9918 197.609 94.714 201.668 95.2054 210.065C95.825 220.363 96.936 224.273 99.2436 224.273C101.337 224.273 101.722 221.902 100.974 213.59C100.739 210.984 100.397 206.668 100.226 204.019C99.7777 196.904 98.6881 195.024 96.1241 196.818Z" fill="black"/>
<path d="M242.16 198.209C240.878 198.999 241.113 200.708 243.592 208.251C250.194 228.399 252.245 242.927 250.728 259.208C250.215 264.827 250.942 267.861 252.822 267.861C258.954 267.861 258.441 238.633 251.924 217.224C247.224 201.777 244.617 196.692 242.16 198.209Z" fill="black"/>
<path d="M22.925 205.496C19.8056 207.932 22.6473 249.21 26.0658 251.454C28.9716 253.377 29.6339 249.787 28.4802 238.378C27.3478 227.353 26.6213 216.606 26.6213 211.158C26.6213 206.244 25.0403 203.829 22.925 205.496Z" fill="black"/>
<path d="M69.5449 232.498C68.2202 233.203 67.9211 235.383 68.3698 240.681C69.1817 250.018 68.5835 257.112 65.8059 271.384C64.7803 276.64 65.0795 277.965 67.2801 277.965C69.1817 277.965 69.3099 277.73 71.0405 270.722C74.865 255.253 75.6342 246.963 74.0531 238.182C73.1558 233.246 71.6601 231.344 69.5449 232.498Z" fill="black"/>
<path d="M130.459 238.42C129.284 239.681 129.412 241.433 131.442 251.282C133.087 259.358 134.091 261.666 135.971 261.666C138.3 261.645 138.343 258.547 136.142 247.778C134.454 239.424 134.412 239.317 133.664 238.548C132.852 237.758 131.143 237.672 130.459 238.42Z" fill="black"/>
<path d="M264.423 256.107C263.782 256.79 263.697 257.154 263.462 260.166C263.248 262.773 262.757 265.743 261.624 270.892C260.385 276.597 260.278 278.819 261.197 280.229C264.423 285.25 270.662 265.08 268.312 257.239C267.756 255.402 265.641 254.803 264.423 256.107Z" fill="black"/>
<path d="M18.8224 266.235C17.6045 267.453 18.0319 271 20.3394 278.82C21.6427 283.264 22.946 285.379 24.3562 285.379C26.7064 285.379 26.7278 283.157 24.3775 273.97C23.6297 271.021 22.9674 268.222 22.8819 267.773C22.5614 265.893 20.1043 264.953 18.8224 266.235Z" fill="black"/>
<path d="M143.151 286.854C142.766 287.09 142.36 287.581 142.232 287.987C141.527 290.017 139.22 318.198 139.22 324.907C139.22 328.304 139.305 328.197 136.677 328.027C132.917 327.792 122.682 326.424 122.127 326.082C122.063 326.04 122.084 325.249 122.17 324.33C123.152 315.057 121.507 299.759 119.328 297.922C116.956 295.956 114.905 297.879 115.29 301.725C117.02 318.626 114.67 334.201 109.115 342.705C102.15 353.345 87.1296 357.234 74.4169 351.679C70.5496 349.991 67.8362 350.952 67.8575 354.029C67.8789 358.558 75.7843 362.34 85.1639 362.34C102.748 362.319 116.828 350.909 120.653 333.603C120.973 332.15 120.567 332.172 124.456 333.325C128.088 334.394 131.635 335.099 135.63 335.526C138.963 335.911 138.963 335.911 139.091 338.154C139.732 349.862 141.143 356.742 144.07 362.618C149.304 373.066 158.983 377.852 167.059 373.963C174.046 370.609 172.807 364.883 165.585 367.126C156.547 369.946 149.924 361.229 148.001 343.965C147.125 336.274 147.146 335.804 148.321 335.804C153.278 335.804 163.299 333.154 168.192 330.569C169.495 329.864 169.495 329.864 169.73 330.655C175.029 348.324 198.681 363.002 215.496 359.071C224.064 357.063 225.751 348.623 217.291 350.119C194.621 354.093 176.589 337.855 171.033 308.455C170.222 304.161 165.713 304.46 165.35 308.84C165.179 311.126 166.397 320.527 167.123 322.429C167.615 323.732 155.522 327.343 148.471 327.984C146.74 328.133 146.847 329.501 146.933 307.302C147.018 290.273 146.997 288.628 146.655 287.901C146.035 286.534 144.454 286.064 143.151 286.854Z" fill="black"/>
</svg>
