<svg width="213" height="429" viewBox="0 0 213 429" fill="none" xmlns="http://www.w3.org/2000/svg">
<path d="M111.206 0.660241C110.672 0.702973 108.898 0.831168 107.253 0.959364C82.8321 2.86093 69.0084 9.93304 65.3975 22.368C62.6841 31.769 64.3079 50.1009 70.9099 84.8205C71.6791 88.8159 72.8756 95.3539 73.602 99.3493C75.5677 110.267 76.4864 115.139 77.982 122.318C83.3021 147.871 83.9645 169.387 80.0118 188.766C77.5974 200.581 77.0633 201.927 74.5849 202.312C39.0961 207.888 7.04728 224.81 3.92786 239.616C3.7783 240.257 3.35098 241.753 2.9664 242.928C1.64171 246.988 0.637513 254.508 0.829806 259.038C1.15029 266.431 2.8382 273.332 5.38074 277.69C6.10718 278.93 6.10718 278.93 6.4063 291.258C7.43187 332.045 8.50016 347.835 12.6879 384.798C13.2861 389.968 14.0126 396.933 14.3117 400.288C15.5509 413.919 16.726 415.885 23.6058 415.885C30.4216 415.885 30.8061 415.009 31.9385 397.724C35.2503 347.044 38.7329 328.242 49.074 305.359C50.0141 303.287 50.826 301.577 50.8901 301.577C50.9542 301.577 53.3685 302.347 56.2529 303.287C59.1587 304.205 62.1499 305.146 62.8977 305.359C64.2438 305.744 64.2438 305.744 64.0942 324.546C63.7737 367.47 63.6669 365.932 66.8718 368.282C70.7176 371.123 82.8107 369.82 86.5498 366.188C88.9427 363.859 89.0282 363.175 88.8786 349.971C88.665 331.896 88.3872 330.357 85.2678 329.887C81.5074 329.31 81.1442 332.152 81.8493 356.424C82.0202 362.257 81.9347 362.342 74.8626 362.812C71.3586 363.047 71.7646 364.65 71.5936 350.142C71.4227 333.989 70.9313 318.627 70.3758 310.786C70.1194 307.068 69.5425 307.368 74.5849 308.628C76.9137 309.226 78.9862 309.696 79.1785 309.696C81.486 309.696 89.3487 330.635 92.81 345.976C98.3651 370.589 101.976 393.579 103.514 414.176C104.604 428.512 105.266 429.046 121.034 428.299C135.713 427.593 135.649 427.679 135.435 415.03C135.243 404.048 135.713 395.908 137.401 380.845C139.259 364.115 143.49 335.677 146.972 316.32C147.742 312.154 148.404 308.308 148.489 307.774C148.618 306.833 148.682 306.769 150.156 305.957C152.335 304.782 155.006 303.18 160.924 299.505C167.035 295.702 166.48 294.634 166.202 309.483C165.945 323.157 165.988 340.527 166.287 345.912C167.035 358.774 167.954 368.816 169.642 382.981C170.795 392.639 170.881 392.041 168.445 392.126C166.394 392.19 166.394 392.19 166.245 390.096C164.706 367.812 154.985 324.311 150.818 321.042C149.878 320.315 148.084 320.401 147.314 321.234C146.332 322.302 146.353 322.815 147.635 328.328C151.972 346.809 157.89 382.041 158.766 394.305C159.044 398.429 160.583 400.096 163.83 399.796C164.557 399.732 166.736 399.519 168.68 399.348C177.568 398.514 178.231 397.168 176.714 383.409C174.086 359.735 173.381 343.113 173.787 315.636C173.936 305.765 173.958 296.556 173.872 294.634C173.701 291.215 173.701 291.215 175.581 289.399C182.846 282.476 184 273.46 179.214 261.153C178.231 258.611 178.231 258.611 178.573 256.111C179.662 248.312 182.547 220.067 184.384 199.448C186.863 171.31 187.76 164.985 193.571 134.496C194.789 128.086 196.712 117.809 197.845 111.635C202.161 87.9826 203.763 80.9319 208.634 63.9887C215.835 39.0547 214.019 27.9658 201.263 18.7999C186.863 8.45879 137.486 -1.49771 111.206 0.660241ZM127.551 7.58279C142.977 8.41606 158.596 11.0441 175.41 15.6377C196.328 21.3424 204.212 26.9403 205.75 37.26C206.135 39.7385 206.583 39.5675 202.096 38.6915C170.005 32.3886 163.83 31.2562 151.374 29.2905C130.82 26.0643 113.065 24.0132 95.9294 22.9449C91.3784 22.6457 74.243 22.5603 73.3243 22.8167C71.38 23.3508 75.4181 17.7957 78.4307 15.7659C87.5539 9.61255 106.591 6.4504 127.551 7.58279ZM87.0625 29.1623C98.5787 29.7179 98.6428 29.7392 98.5146 31.0639C98.2796 33.4996 98.1301 71.5095 98.3437 78.7312C98.4505 82.7907 98.5146 86.1452 98.4719 86.1879C98.4292 86.252 97.2113 86.3588 95.7798 86.4657C92.1476 86.7007 86.0156 87.4271 83.0457 87.9399C78.8794 88.6877 79.1358 88.7732 78.7085 86.6366C78.4948 85.6324 77.8752 82.748 77.3411 80.2268C72.4269 57.173 69.5639 29.2051 72.085 28.9059C73.132 28.7778 82.6398 28.9487 87.0625 29.1623ZM109.219 30.8716C117.53 31.7262 132.679 33.6705 132.914 33.9269C132.999 33.991 132.956 35.1021 132.807 36.3626C131.867 45.7636 130.948 69.7789 131.098 81.8934C131.162 86.5084 131.119 87.9185 130.927 87.9185C130.777 87.9185 129.196 87.7262 127.401 87.4912C122.124 86.8289 117.082 86.4229 111.227 86.2093C108.215 86.1024 105.758 86.017 105.758 85.9956C105.758 80.5046 105.608 70.4412 105.437 65.057C105.095 53.9681 104.369 34.8457 104.198 32.5168C104.048 30.4657 104.048 30.4443 104.518 30.4443C104.796 30.4443 106.911 30.6366 109.219 30.8716ZM147.955 36.1063C155.07 37.3027 161.907 38.5206 166.437 39.418C167.526 39.6316 167.526 39.6316 167.356 41.8323C166.415 54.8441 165.283 77.8125 165.112 87.2348C165.005 93.7942 164.941 94.542 164.642 94.4565C162.869 93.9224 146.481 90.5252 141.823 89.7133C140.627 89.521 139.537 89.286 139.43 89.2219C139.302 89.1364 139.174 81.6583 139.088 69.0097C139.024 57.9636 138.918 47.9216 138.875 46.6824C138.704 43.0502 139.003 34.7175 139.302 34.7175C139.43 34.7175 143.34 35.3371 147.955 36.1063ZM189.555 44.1398C205.408 47.4088 205.408 47.4088 205.28 48.0498C204.767 50.9555 203.314 56.062 200.131 66.1467C196.883 76.4451 194.341 86.8502 192.183 98.7297C191.734 101.315 191.734 101.315 188.38 100.396C186.542 99.9048 182.183 98.7724 178.722 97.875C174.534 96.8281 172.441 96.1871 172.483 96.0162C172.718 95.0761 173.381 59.6728 173.381 48.3275C173.381 44.2467 173.445 40.9136 173.552 40.9136C173.637 40.8922 180.837 42.3665 189.555 44.1398ZM113.877 94.0078C133.448 95.4821 155.733 99.7125 182.782 107.041C185.196 107.703 187.867 108.344 188.721 108.494C189.982 108.686 190.26 108.814 190.26 109.135C190.26 109.669 186.264 131.825 185.111 137.616C184.897 138.727 184.897 138.727 183.786 138.428C183.166 138.278 181.179 137.893 179.363 137.594C170.902 136.184 169.108 135.778 169.108 135.223C169.108 128.257 158.061 125.608 153.553 131.505C153.147 132.039 152.699 132.445 152.57 132.424C152.442 132.402 150.071 132.039 147.314 131.612C141.033 130.65 141.332 130.714 141.332 130.266C141.332 123.792 130.35 122.189 127.124 128.172C126.867 128.663 126.589 128.898 126.376 128.856C126.205 128.791 123.79 128.556 121.034 128.3C114.667 127.723 115.18 127.851 114.86 126.762C112.744 119.711 103.856 119.134 100.138 125.779C99.647 126.676 99.4975 126.804 99.0274 126.698C98.7283 126.634 95.8225 126.569 92.5749 126.527C86.6779 126.484 86.6779 126.484 86.1011 123.493C85.8019 121.848 84.3918 114.647 82.9816 107.49C81.5715 100.353 80.4605 94.4565 80.5032 94.3924C80.5887 94.3283 84.8405 93.9437 89.1991 93.6019C92.0621 93.4096 109.625 93.666 113.877 94.0078ZM93.686 132.894C99.647 133.321 99.2411 133.214 99.8607 134.411C102.596 139.581 109.988 140.03 113.343 135.223C113.663 134.774 113.663 134.774 117.936 135.265C127.124 136.355 126.824 136.312 127.316 136.975C130.029 140.842 135.349 141.782 138.832 139.026C139.986 138.107 139.516 138.064 148.532 139.645C152.442 140.329 152.442 140.329 153.104 141.355C155.732 145.457 161.288 146.547 165.304 143.726C166.223 143.064 166.223 143.064 169.428 143.705C174.235 144.666 181.179 145.82 182.119 145.82C183.658 145.82 183.636 145.628 182.846 150.008C181.884 155.435 180.538 164.131 179.94 168.853C179.662 170.989 179.385 172.805 179.32 172.869C179.214 172.955 166.116 169.964 164.151 169.408C163.937 169.344 163.766 169.109 163.766 168.874C163.766 162.443 153.831 159.708 148.682 164.75C147.272 166.118 141.182 165.391 140.67 163.789C138.768 157.785 130.905 156.097 126.205 160.712C124.987 161.887 124.987 161.887 120.607 161.332C114.966 160.605 115.415 160.712 115.073 159.772C112.766 153.362 102.339 152.465 99.8607 158.469C99.6043 159.11 99.5829 159.11 98.3437 158.981C97.6386 158.917 95.4593 158.789 93.4937 158.725C89.9042 158.576 89.9042 158.576 89.7546 155.242C89.5196 149.751 88.8145 142.081 87.789 133.684C87.618 132.36 86.9557 132.445 93.686 132.894ZM93.4723 165.562C94.7115 165.733 96.5276 165.99 97.5318 166.118C100.438 166.481 100.459 166.481 101.036 167.485C103.621 171.886 109.155 172.827 112.83 169.494C114.09 168.34 124.068 169.152 125.072 170.498C128.17 174.536 133.256 175.604 137.294 173.062C138.426 172.335 147.272 173.959 148.062 175.027C151.053 179.108 155.519 180.305 159.301 178.018C160.476 177.313 160.476 177.313 167.291 178.98C171.052 179.877 175.111 180.839 176.329 181.095C178.509 181.565 178.509 181.565 178.402 182.228C178.231 183.232 177.761 188.402 176.692 200.837C176.158 207.055 175.389 215.772 174.983 220.173C173.573 235.172 172.761 244.21 172.612 246.389C172.462 248.569 172.462 248.569 171.33 247.094C170.689 246.283 169.834 244.83 169.428 243.868C166.992 238.099 162.206 232.416 150.947 221.968C137.465 209.448 130.692 205.431 127.636 208.166C125.35 210.217 126.547 212.183 133.854 218.229C158.296 238.527 166.266 250 163.446 260.833C161.352 268.845 142.144 279.571 125.414 282.07C99.5188 285.916 33.8615 268.396 16.3201 252.927C9.84621 247.223 8.97021 242.095 13.5211 236.369C19.4395 228.933 36.4681 219.725 54.1163 214.383C70.8886 209.32 95.908 205.73 109.112 206.521C114.154 206.82 115.842 205.687 114.475 202.931C113.236 200.346 100.844 199.32 87.5967 200.666C85.3746 200.901 83.5158 201.072 83.4731 201.051C83.4517 201.03 83.7508 199.961 84.1568 198.679C87.618 187.911 89.4128 178.254 89.9683 167.549C90.0965 165.028 90.0965 165.028 90.6734 165.135C90.9725 165.199 92.2331 165.391 93.4723 165.562ZM15.7005 287.861C19.995 290.595 27.4303 293.736 38.0065 297.283C41.5318 298.479 44.4376 299.462 44.4589 299.505C44.5017 299.548 43.8607 300.915 43.0488 302.539C33.306 322.366 28.3277 349.052 24.9946 399.22C24.2468 410.373 24.3964 409.518 23.2213 409.432C21.8966 409.347 22.0461 410.287 21.1274 396.762C20.9565 394.049 20.23 385.545 19.5463 377.854C17.9439 360.099 17.4738 353.967 16.021 331.49C15.38 321.448 14.6535 310.53 14.4185 307.239C13.7134 297.539 12.9443 287.647 12.8161 286.75C12.6879 285.916 12.6879 285.916 13.2861 286.322C13.6066 286.536 14.6963 287.22 15.7005 287.861ZM140.477 311.235C139.409 315.209 136.866 328.99 135.264 339.502C129.837 374.862 127.871 400.266 129.111 418.748C129.217 420.094 129.175 420.885 129.046 420.927C126.418 421.696 122.338 421.056 122.231 419.859C121.718 414.432 121.611 404.988 121.654 373.153C121.718 328.563 121.803 329.994 118.556 329.994C116.227 329.994 116.035 330.678 115.693 339.609C113.984 386.806 113.813 414.304 115.18 420.65C115.308 421.226 115.287 421.226 114.24 421.226C111.227 421.226 111.334 421.568 110.351 408.749C109.027 391.571 107.146 376.016 104.454 359.799C100.972 338.861 97.1045 326.96 89.7546 314.653C88.6863 312.859 88.0667 311.619 88.2377 311.619C88.3872 311.619 90.8657 312.004 93.7287 312.474C115.009 315.935 123.085 316.042 133.555 313.03C135.456 312.474 140.264 310.808 140.627 310.572C140.648 310.572 140.563 310.872 140.477 311.235Z" fill="black"/>
</svg>
