<svg width="92" height="201" viewBox="0 0 92 201" fill="none" xmlns="http://www.w3.org/2000/svg">
<path d="M85.9614 0.914599C83.4402 2.38884 74.3384 12.2599 73.2915 14.6742C72.33 16.8963 74.4238 18.926 76.7741 18.0287C78.0347 17.5373 89.0167 5.89285 89.8286 4.16221C91.3456 0.978696 89.1022 -0.901502 85.9614 0.914599Z" fill="black"/>
<path d="M62.7802 17.0622C56.9473 18.2587 52.4819 22.0191 52.2041 25.929C51.9477 29.7749 56.3491 30.6936 57.7806 27.1042C60.4941 20.3739 72.8863 20.0534 73.6982 26.6982C74.3819 32.1252 79.5738 31.2064 79.1892 25.7368C78.7405 19.4338 71.0488 15.3743 62.7802 17.0622Z" fill="black"/>
<path d="M63.5064 23.1745C61.9681 23.9651 62.0322 26.2085 63.6132 27.3836C66.4335 29.4561 69.4034 28.9433 69.4034 26.4008C69.4034 24.5633 65.237 22.2985 63.5064 23.1745Z" fill="black"/>
<path d="M47.2889 30.565C26.6708 31.1632 8.74486 33.1716 6.82193 35.0946C4.00163 37.9149 6.35188 40.3078 11.2447 39.5814C14.7487 39.0686 21.308 38.4063 26.9913 38.0003C43.1439 36.8466 63.8048 36.7397 80.5129 37.7226C88.0764 38.1499 91.8795 36.2697 88.7174 33.6417C85.7689 31.2273 68.548 29.9454 47.2889 30.565Z" fill="black"/>
<path d="M88.8681 39.6234C87.5648 40.008 86.2829 41.6745 82.2447 48.1484C62.3958 79.9836 48.3157 92.5467 38.1241 87.5044C31.8426 84.3849 24.1081 74.2361 11.5022 52.5284C9.57932 49.2381 7.31453 45.3067 6.41717 43.8111C3.91736 39.5166 1.31072 38.6192 0.370621 41.7173C-0.697673 45.264 15.1772 73.5097 24.3431 84.3636C38.9574 101.713 53.1657 98.4223 72.8224 73.1465C79.9586 63.9805 91.1116 46.3537 91.838 43.1274C92.4576 40.3712 91.2611 38.9397 88.8681 39.6234Z" fill="black"/>
<path d="M39.5976 42.5315C13.6167 43.6425 10.2836 47.7661 22.0135 64.1965C39.619 88.81 50.8361 88.8527 68.3775 64.346C78.3981 50.3087 72.2447 43.3647 49.1054 42.5956C43.358 42.4033 42.6743 42.4033 39.5976 42.5315Z" fill="black"/>
<path d="M32.2267 96.8216C29.7697 99.2787 31.7353 105.475 35.8803 108.402C41.82 112.568 50.8792 112.162 54.3618 107.611C57.353 103.68 55.9642 96.2234 52.2252 96.2234C50.0886 96.2234 49.4263 97.313 49.4049 100.881C49.3835 104.022 49.2126 104.321 46.9906 104.877C42.3969 106.052 37.5468 103.317 36.5854 99.0437C35.9658 96.2661 33.8505 95.1978 32.2267 96.8216Z" fill="black"/>
<path d="M41.5635 113.766C39.6619 115.261 38.8073 141.135 39.897 164.702C40.773 183.717 41.008 184.893 43.871 184.893C47.1827 184.893 47.4178 181.944 46.4563 154.446C46.029 142.93 45.7085 131.392 45.6871 127.312C45.623 114.748 44.5975 111.373 41.5635 113.766Z" fill="black"/>
<path d="M26.7786 171.774C10.5619 175.47 4.02393 186.837 14.13 193.695C25.5607 201.472 56.5199 203.117 73.0571 196.857C89.6798 190.554 80.4925 174.188 59.7889 173.205C54.3192 172.949 51.7767 174.038 52.3963 176.389C52.6954 177.564 55.1525 178.483 60.3231 179.316C70.6428 181.004 77.9926 185.896 74.7878 188.93C70.6214 192.904 50.8366 195.532 37.5684 193.909C25.0266 192.37 15.9888 188.952 15.9888 185.768C15.9888 183.119 22.2704 178.589 29.0648 176.346C32.8038 175.107 33.5516 174.423 33.0815 172.692C32.6329 171.111 30.8595 170.855 26.7786 171.774Z" fill="black"/>
<path d="M35.1547 183.209C32.5908 185.217 35.582 189.811 40.6671 191.649C47.0555 193.977 54.4694 190.922 53.4866 186.393C53.0593 184.448 50.8372 184.064 48.3161 185.453C45.1966 187.205 41.5217 186.606 38.9792 183.936C37.6545 182.568 36.2871 182.312 35.1547 183.209Z" fill="black"/>
</svg>
