<svg width="52" height="58" viewBox="0 0 52 58" fill="none" xmlns="http://www.w3.org/2000/svg">
<path d="M23.2512 0.873793C10.0257 2.39077 0.0478516 12.7319 0.0478516 24.9104C0.0478516 29.9741 4.42786 30.6151 5.1543 25.6582C8.25235 4.50599 38.1432 -1.41236 44.5957 17.8383C47.5229 26.5556 45.7922 29.2904 36.7117 30.2305C31.6907 30.7647 31.5412 30.9997 30.302 39.7597C28.9986 48.9043 28.3363 50.4427 25.7724 50.4427C23.7854 50.4427 23.8708 50.8272 24.0417 42.11C24.2554 30.6151 23.6785 29.7177 15.645 29.3759C9.40611 29.0768 6.94903 29.9955 7.01313 32.538C7.07723 34.5678 8.35918 35.0592 13.8929 35.2088C18.0166 35.3156 18.0166 35.3156 17.8456 39.311C17.226 53.7116 17.9952 56.0405 23.7213 56.8524C31.9899 58.0275 34.7033 53.968 36.669 37.3881C36.8185 36.1916 36.8185 36.1916 38.8056 35.9566C50.2363 34.5464 53.9326 27.6452 49.8304 15.3812C46.3905 5.10424 35.9853 -0.579087 23.2512 0.873793Z" fill="black"/>
<path d="M24.5753 15.2104C22.9302 16.4283 23.4857 19.9964 25.4086 20.5092C27.6948 21.1288 29.1904 19.1845 28.4853 16.5351C28.0366 14.89 25.9641 14.1849 24.5753 15.2104Z" fill="black"/>
<path d="M34.5966 16.2782C32.7591 17.667 32.2891 21.1496 33.7847 22.2179C35.8144 23.6708 38.7202 21.3633 38.7202 18.3507C38.7202 16.2355 36.2845 15.039 34.5966 16.2782Z" fill="black"/>
<path d="M16.0293 17.7293C13.85 19.6736 16.8839 24.6305 19.8965 24.0323C22.9732 23.4127 20.9434 17.1097 17.6531 17.1097C16.9266 17.1097 16.5634 17.2379 16.0293 17.7293Z" fill="black"/>
</svg>
