<svg width="53" height="37" viewBox="0 0 53 37" fill="none" xmlns="http://www.w3.org/2000/svg">
<path d="M21.1407 0.472169C20.8416 0.514901 19.8801 0.664462 19.0041 0.792658C6.14184 2.63012 -2.38315 11.9457 0.800364 20.6843C3.79159 28.9956 17.6581 36.3028 30.4349 36.3241C49.2582 36.3669 59.2788 21.0048 47.6771 9.91589C42.4425 4.91627 37.8061 8.09979 42.4425 13.5054C48.1685 20.1929 47.4848 25.0429 40.2632 28.5469C24.5379 36.1959 -2.68228 21.7099 8.64165 11.732C12.7439 8.09979 21.1407 5.8991 28.8324 6.43325C29.7084 6.49735 31.1613 6.60418 32.0373 6.64691C32.9133 6.71101 34.4944 6.92467 35.5413 7.11696C39.7717 7.86477 41.3315 4.48896 37.6352 2.52329C34.4089 0.814024 25.948 -0.232905 21.1407 0.472169Z" fill="black"/>
<path d="M15.3289 10.9229C14.3888 11.6707 14.2606 12.0767 14.0683 14.5979C13.9615 16.2003 13.7051 17.8027 13.3632 18.9992C11.4617 25.4945 16.7818 26.3705 18.8329 19.8966C20.5635 14.5124 18.2347 8.59404 15.3289 10.9229Z" fill="black"/>
</svg>
