<svg width="155" height="166" viewBox="0 0 155 166" fill="none" xmlns="http://www.w3.org/2000/svg">
<path d="M93.4648 0.611241C48.7674 2.74783 18.1287 9.92677 6.31335 21.037C-5.67292 32.3182 1.89061 53.0218 17.7227 52.2526C24.7307 51.9107 38.9177 46.7402 39.6014 44.2831C40.5201 40.9928 38.6186 40.715 30.6918 43.0012C15.6502 47.3171 10.7575 46.1206 8.51403 37.5742C6.39881 29.3911 11.6335 23.665 26.2691 18.174C53.8738 7.85428 110.985 3.77339 128.783 10.8455C139.594 15.1614 147.05 24.0924 147.157 32.8737C147.221 39.2621 145.79 39.8817 131.603 39.5826C127.031 39.4758 114.916 39.4117 104.682 39.3903C94.469 39.3903 82.6323 39.3049 78.4018 39.198C58.4675 38.7066 44.7292 41.8688 48.8528 45.9924C50.1775 47.3171 52.2286 47.488 59.5571 46.8684C65.1764 46.3983 75.2611 46.2488 82.3545 46.5265C90.7086 46.8684 138.461 47.2102 141.26 46.9539C163.951 44.86 155.832 12.8112 130.321 3.81612C122.138 0.953095 109.553 -0.157931 93.4648 0.611241Z" fill="black"/>
<path d="M126.753 19.5204C125.642 20.546 125.706 21.9989 126.967 24.3918C129.851 29.947 134.381 30.1393 132.907 24.6482C131.774 20.3751 128.634 17.7684 126.753 19.5204Z" fill="black"/>
<path d="M116.754 20.312C114.276 22.9827 118.549 31.2727 121.882 30.2044C123.912 29.5634 123.121 23.3246 120.685 20.7606C119.617 19.6283 117.609 19.3932 116.754 20.312Z" fill="black"/>
<path d="M108.122 21.2278C106.156 23.343 109.831 32.0176 112.651 32.0176C114.895 31.9962 115.023 28.9836 112.993 23.9199C111.754 20.8219 109.596 19.6254 108.122 21.2278Z" fill="black"/>
<path d="M79.3201 47.4042C59.578 50.545 60.0908 70.5434 79.9397 71.2699C93.8062 71.7827 102.801 62.8731 97.2034 54.1344C94.2335 49.4767 85.9222 46.3573 79.3201 47.4042Z" fill="black"/>
<path d="M123.163 50.2899C116.561 52.1274 114.04 57.8107 118.057 61.742C122.565 66.122 131.945 62.8958 132.5 56.8065C132.928 52.2342 128.142 48.9225 123.163 50.2899Z" fill="black"/>
<path d="M141.025 51.0344C138.14 51.9104 138.183 54.9444 141.195 64.2599C148.118 85.6044 146.9 105.218 137.115 130.516C132.115 143.399 131.111 146.946 130.555 153.633C130.32 156.582 130.32 156.582 129.038 155.556C125.064 152.33 124.167 149.531 124.744 142.224C125.94 127.076 123.633 121.392 115.642 119.833C114.552 119.64 112.8 119.298 111.753 119.106C107.373 118.294 106.967 116.692 108.121 104.77C109.553 89.6426 106.113 86.9932 89.1695 90.1767C76.3286 92.5911 74.9612 91.7792 68.872 78.0623C64.4492 68.1057 60.3256 66.5888 47.7625 70.3492C32.7209 74.8574 25.777 71.1397 27.4435 59.4953C28.0845 55.1153 23.6831 53.3633 22.5507 57.5724C17.9784 74.7292 29.2596 82.4636 50.4118 76.6735C59.5351 74.1737 60.0265 74.4087 63.5518 82.8482C69.4702 97.0565 74.4698 99.8768 88.7636 97.0779C96.1135 95.625 100.451 95.2191 101.263 95.9028C101.775 96.3301 101.669 99.1077 100.921 104.47C98.656 120.666 101.113 125.409 112.651 127.076C115.877 127.524 116.411 127.802 116.796 129.063C117.18 130.43 117.116 137.075 116.689 140.6C115.3 151.839 118.697 159.146 127.329 163.483C134.551 167.094 137.478 165.363 138.546 156.796C139.593 148.377 140.362 145.664 146.024 130.302C155.767 103.744 156.066 79.3015 146.9 56.3118C145.063 51.6968 143.503 50.308 141.025 51.0344Z" fill="black"/>
<path d="M127.885 83.8521C123.206 84.9418 120.834 87.7194 121.069 91.8216C121.625 101.479 136.901 103.039 140.042 93.7659C142.2 87.3989 135.641 82.0574 127.885 83.8521Z" fill="black"/>
<path d="M44.9638 85.5847C44.2374 85.8624 43.8955 86.3752 43.8955 87.1871C43.8955 88.9177 44.1519 89.1741 51.1599 94.4088C74.171 111.63 89.9176 125.902 100.686 139.32C105.301 145.067 109.211 146.777 109.083 143.016C108.826 134.854 87.311 113.446 59.7063 93.8532C48.4464 85.8624 46.7799 84.9223 44.9638 85.5847Z" fill="black"/>
</svg>
