<svg width="49" height="52" viewBox="0 0 49 52" fill="none" xmlns="http://www.w3.org/2000/svg">
<path d="M17.0757 0.788295C5.51672 2.66849 -1.51266 10.5952 2.205 17.5819C3.08101 19.2057 5.0894 21.2355 8.76433 24.1839C12.1401 26.8974 12.1829 25.9359 8.42248 31.0851C1.00852 41.1698 0.196611 42.9005 1.5213 45.5071C2.84598 48.0924 9.12755 51.1477 13.1871 51.1904C16.8834 51.2332 18.2722 49.9085 23.2931 41.5971C28.3996 33.1149 28.8269 30.9569 25.5152 30.6364C23.8914 30.4869 23.7846 30.6151 19.6609 36.8325C13.9349 45.4644 13.828 45.5712 11.9906 44.9302C9.98219 44.2465 7.69604 42.9859 7.82423 42.6654C8.20882 41.6185 14.2126 32.7303 16.6056 29.6322C19.5327 25.8505 19.2977 24.9104 14.6613 21.2995C6.99096 15.2957 6.28589 14.4411 7.33282 12.2831C8.35838 10.1466 11.6487 8.00997 15.3878 7.00577C30.4721 2.96762 41.9883 11.514 42.0097 26.7478C42.0097 33.4567 41.6251 34.055 38.057 32.7303C33.8265 31.1492 31.7754 31.7688 31.7113 34.6319C31.6472 36.5975 35.0016 38.9264 38.8261 39.5887C45.1932 40.6998 48.5049 35.5292 48.0562 25.2522C47.3298 8.54411 34.0188 -1.9679 17.0757 0.788295Z" fill="black"/>
<path d="M17.311 11.6648C15.4949 12.5622 15.3667 15.8739 17.0974 17.1131C18.9989 18.4592 20.7509 16.8781 20.5159 14.0151C20.3664 12.2203 18.6998 10.9811 17.311 11.6648Z" fill="black"/>
<path d="M28.0154 16.4924C26.1566 17.4752 25.0883 19.6332 25.7934 20.9579C27.1394 23.6072 31.5622 21.8339 31.9895 18.4794C32.2245 16.5778 29.9811 15.4455 28.0154 16.4924Z" fill="black"/>
<path d="M31.3268 24.0138C29.5962 25.2317 29.7671 27.4964 31.6687 28.4579C34.7454 30.039 38.3776 27.3469 36.5615 24.8043C35.7282 23.6079 32.5661 23.1378 31.3268 24.0138Z" fill="black"/>
</svg>
