<svg width="57" height="39" viewBox="0 0 57 39" fill="none" xmlns="http://www.w3.org/2000/svg">
<path d="M32.7767 0.606829C23.2902 1.16234 15.3635 4.51679 15.3635 7.9567C15.3635 10.2215 17.4573 10.7984 20.769 9.45231C29.4436 5.9483 40.4043 5.77737 45.874 9.06772C55.9587 15.1143 46.7713 27.8911 29.7854 31.4164C9.10326 35.7324 0.941494 28.6389 10.4279 14.6229C12.5432 11.5034 12.7996 10.9479 12.5645 10.1574C11.2185 5.45689 3.93272 11.9521 1.24062 20.2421C-3.03256 33.3394 9.0178 40.6892 29.2086 37.3134C62.7103 31.7156 65.9152 -1.33747 32.7767 0.606829Z" fill="black"/>
<path d="M36.943 8.98285C33.7595 10.5426 34.7637 21.9947 38.225 23.7039C41.0453 25.1355 42.84 22.5929 41.4085 19.2171C40.6607 17.4651 40.2975 14.9867 40.4257 12.5723C40.618 9.19651 39.2719 7.82909 36.943 8.98285Z" fill="black"/>
</svg>
