<svg width="101" height="173" viewBox="0 0 101 173" fill="none" xmlns="http://www.w3.org/2000/svg">
<path d="M39.7318 0.699857C27.6174 2.04591 27.2541 10.5068 39.0695 16.7029C51.9317 23.4545 73.789 24.9501 79.8142 19.5232C83.4464 16.2329 80.8825 10.6564 75.0496 9.20348C70.6483 8.09245 69.1313 12.3443 73.084 14.6518C74.2377 15.3141 74.1523 15.4637 72.4216 15.8055C66.4605 17.002 55.628 15.7628 47.5304 12.9425C43.4067 11.4896 37.5311 8.22065 38.0866 7.66514C39.0481 6.70367 51.3121 6.61821 60.0294 7.49421C67.8066 8.28475 70.7551 6.8105 67.3579 3.79791C64.8795 1.61859 48.1927 -0.261608 39.7318 0.699857Z" fill="black"/>
<path d="M28.3653 13.8204C25.8441 15.081 23.4939 22.3881 24.7758 25.0802C26.2714 28.2423 29.1131 26.7254 30.1387 22.2385C30.3309 21.3625 30.8224 19.696 31.2283 18.5209C32.2539 15.6365 32.0402 14.5041 30.2882 13.7776C29.4122 13.3931 29.1986 13.4144 28.3653 13.8204Z" fill="black"/>
<path d="M82.8691 21.8957C78.9805 22.8358 77.3353 25.7415 75.6047 34.587C73.1904 47.1929 68.0198 51.0387 55.6276 49.5004C52.0168 49.0517 51.9099 52.6839 55.478 54.03C61.6741 56.3588 69.4086 55.376 74.3655 51.6583C78.66 48.4107 80.7539 44.458 82.6982 35.9117C84.3647 28.5191 84.4288 28.455 86.309 30.4206C94.7913 39.3516 95.5177 53.624 89.2148 87.2966C83.3178 118.875 82.9973 134.28 87.826 154.065C90.5822 165.368 95.7314 163.509 94.0862 151.822C90.7745 128.576 91.1804 118.256 96.5646 89.3264C100.752 66.8709 101.607 56.6366 100.111 46.9151C98.1244 33.9033 92.0992 23.3699 85.7962 21.9384C84.087 21.5538 84.3006 21.5538 82.8691 21.8957Z" fill="black"/>
<path d="M23.1936 30.9158C14.6045 33.2233 16.442 43.4148 28.8983 62.7296C39.624 79.3309 44.2176 89.2233 47.9567 103.752C51.8025 118.665 53.4477 133.387 53.2981 151.825C53.1699 169.068 53.1699 168.619 53.4904 169.73C54.7724 174.174 58.4473 171.995 59.3661 166.247C64.0879 136.72 56.674 96.8509 41.6537 70.9555C40.1154 68.2847 39.0685 66.6182 32.3168 56.1062C26.3771 46.8548 22.7022 37.6247 24.9883 37.6247C26.8899 37.6247 32.2314 40.9578 40.3504 47.2393C44.8159 50.7006 46.2474 51.192 47.6789 49.8246C49.3455 48.2222 48.8754 46.6625 45.6492 43.3507C36.9532 34.3771 28.236 29.5484 23.1936 30.9158Z" fill="black"/>
<path d="M33.9629 78.2009C32.8518 78.671 32.5741 79.3333 32.1468 82.2818C29.7538 98.7122 27.489 105.977 24.1987 107.579C21.9552 108.669 20.5665 108.711 11.6355 107.9C-1.82499 106.703 -3.51289 115.933 8.87932 123.027C25.7156 132.663 42.2956 130.676 42.2956 119.031C42.2956 112.045 35.9713 110.357 35.3517 117.194C34.9457 121.574 33.7278 122.407 28.1086 122.172C22.1048 121.916 13.3662 118.817 8.98615 115.356C7.72556 114.373 8.08878 114.331 14.1567 114.886C28.6214 116.211 33.6424 111.767 36.2918 95.315C38.2788 83.0083 37.4241 76.7481 33.9629 78.2009Z" fill="black"/>
</svg>
