<svg width="126" height="134" viewBox="0 0 126 134" fill="none" xmlns="http://www.w3.org/2000/svg">
<path d="M44.9885 1.07403C43.2365 2.14233 43.1083 6.92829 44.6253 15.5601C44.7962 16.5643 44.903 17.3976 44.8817 17.4189C44.8389 17.4617 43.9416 17.8035 42.8519 18.2095C33.6646 21.6494 29.8828 29.4907 29.8828 44.9809C29.8828 52.2881 30.417 54.5529 32.6817 57.074C38.6215 63.6547 57.0602 60.0225 65.1579 50.6856C72.3796 42.3743 75.2853 28.4224 69.8157 28.4224C67.7218 28.4224 67.0808 29.4266 66.0766 34.1698C63.4059 47.0321 55.2014 54.2537 43.2151 54.3606C36.5917 54.4033 35.4166 52.0744 36.3567 40.7078C37.5532 26.1149 42.0827 22.3117 57.7439 22.7177C62.0598 22.8459 63.94 23.0168 69.4311 23.8501C71.8454 24.2133 73.4692 22.8459 72.9137 20.9229C72.5291 19.5983 71.5463 19.0427 68.2132 18.2949C67.3372 18.0813 66.4826 17.8676 66.333 17.8249C66.1621 17.7822 67.1449 16.5643 68.8969 14.7268C73.1487 10.2186 73.747 8.95805 72.4437 7.05648C70.9908 4.96262 68.8115 5.04809 65.0083 7.39834C62.829 8.74439 62.9786 8.82985 63.3845 6.37277C64.7733 -1.74626 58.0003 -0.67797 54.1972 7.82565C53.2571 9.94088 53.3426 10.005 50.5864 4.5994C48.5993 0.732178 47.1037 -0.229287 44.9885 1.07403Z" fill="black"/>
<path d="M86.6932 10.0276C81.779 11.3309 76.9717 17.4202 76.9717 22.3344C76.9717 26.0093 80.8175 26.4153 81.9072 22.8471C82.3986 21.202 83.5096 19.3645 84.813 18.0398C89.4066 13.3393 91.8423 14.9845 92.1201 22.9967C92.291 27.3126 92.4406 27.804 93.9362 28.5091C95.6882 29.3424 96.9488 28.7869 99.0854 26.2871C101.286 23.6804 103.978 21.5866 105.089 21.5866C105.858 21.5866 106.136 22.6549 106.051 25.2188C105.88 30.1756 105.88 30.4748 106.371 31.1157C107.931 33.231 109.619 33.1241 112.589 30.7525C119.639 25.1547 121.584 29.5774 115.943 38.4015C113.529 42.1833 113.336 44.9608 115.452 45.5164C117.417 46.0505 119.426 44.7472 121.498 41.6064C129.596 29.3424 124.19 18.6594 112.396 23.6163C112.097 23.7232 112.012 23.595 111.905 22.9326C110.751 16.0742 105.538 13.9589 99.4059 17.9116C97.8034 18.9372 97.8034 18.9372 97.4402 17.4202C96.0087 11.7583 91.6073 8.7243 86.6932 10.0276Z" fill="black"/>
<path d="M62.1016 26.3307C59.8155 28.3604 59.6232 32.3345 61.8025 32.9114C64.3664 33.5951 66.7594 30.8816 66.5457 27.5272C66.4175 25.7111 63.6613 24.9633 62.1016 26.3307Z" fill="black"/>
<path d="M41.0781 29.8969C39.6039 31.3711 39.2193 35.4093 40.4372 36.7126C42.2746 38.6569 45.7359 34.7683 45.2445 31.307C44.9667 29.2986 42.4883 28.4654 41.0781 29.8969Z" fill="black"/>
<path d="M51.1196 31.2011C49.0685 33.2523 49.2821 37.1836 51.4614 37.1836C54.239 37.1836 56.5038 32.6968 54.5809 30.9661C53.4912 30.0047 52.2306 30.0901 51.1196 31.2011Z" fill="black"/>
<path d="M84.7715 38.8068C82.8485 39.811 82.6776 41.6057 84.3228 43.2723C85.327 44.2765 89.3651 45.7293 97.3773 47.9728C108.423 51.0922 107.911 49.8743 111.03 81.3035C113.359 104.827 112.91 105.468 89.1515 111.942C45.1377 123.907 26.3358 127.903 13.1957 128.052C8.00383 128.116 8.53798 129.676 8.36705 113.993C8.17476 97.8407 7.93973 90.8541 7.40558 84.9785C7.17056 82.2864 4.79895 81.1113 3.36743 82.9914C2.23504 84.4871 1.48723 121.514 2.49143 127.155C3.79475 134.505 9.32851 135.466 31.5277 132.24C51.4407 129.355 95.1126 118.202 106.714 113.053C116.222 108.801 119.106 102.413 117.931 88.0338C114.812 49.5538 113.936 46.6694 104.364 43.2295C95.2407 39.9605 86.3739 37.9522 84.7715 38.8068Z" fill="black"/>
<path d="M54.8164 40.0476C52.2311 42.2269 52.4447 45.8164 55.1796 45.8164C57.6153 45.8164 59.7519 41.7569 58.1708 40.069C57.4657 39.3212 55.6924 39.2998 54.8164 40.0476Z" fill="black"/>
<path d="M41.7832 45.5607C39.0484 48.4665 39.2407 52.3978 42.1037 52.0773C44.689 51.7995 47.0178 46.8854 45.2872 45.3898C44.3257 44.5779 42.6592 44.6633 41.7832 45.5607Z" fill="black"/>
<path d="M100.369 54.8506C98.8944 55.0429 74.3664 59.2733 69.5163 60.1707C51.398 63.4824 30.2672 68.1401 16.2084 71.9219C14.2428 72.4561 12.5762 72.8406 12.5335 72.8193C12.3839 72.6483 19.5415 66.0249 24.1138 62.1363C27.5323 59.2306 27.8315 58.846 27.8315 57.3931C27.8315 52.0303 22.1909 55.1069 8.62353 67.8197C0.675424 75.255 -0.627895 77.1352 0.589961 79.4854C1.63689 81.5152 2.79065 81.5366 9.67046 79.635C26.1863 75.0627 50.928 69.8921 81.994 64.5293C101.437 61.1749 104.044 60.4271 104.962 58.0341C105.796 55.812 103.744 54.4019 100.369 54.8506Z" fill="black"/>
<path d="M95.9886 79.6367C95.6895 79.6795 94.1512 79.9145 92.5701 80.1495C70.0077 83.568 22.5968 94.4219 16.4434 97.5841C14.2214 98.7165 14.6273 101.366 17.1058 101.943C17.8322 102.092 17.9818 102.071 25.4812 100.319C39.8604 96.9645 65.7132 91.5803 84.5579 88.0335C98.8089 85.3414 100.134 85.0209 102.676 83.6962C107.419 81.2178 102.954 78.5043 95.9886 79.6367Z" fill="black"/>
<path d="M92.356 92.0926C72.9985 94.9129 22.3613 104.912 19.2419 106.536C17.4899 107.433 17.3403 109.784 18.9641 110.574C19.9897 111.044 20.3316 111.001 26.7841 109.741C33.0656 108.48 47.9363 105.767 56.9954 104.186C66.9947 102.455 68.6398 102.177 78.2545 100.532C97.1206 97.3486 97.6547 97.2418 99.7272 96.2804C105.966 93.3746 101.394 90.768 92.356 92.0926Z" fill="black"/>
</svg>
