<svg width="155" height="210" viewBox="0 0 155 210" fill="none" xmlns="http://www.w3.org/2000/svg">
<path d="M90.2592 1.03926C89.2977 1.53068 88.7636 2.10756 87.2039 4.30825C80.8582 13.3033 73.9784 16.2731 54.4072 18.4311C46.7796 19.2644 46.3095 19.4567 46.0104 21.7855C45.7754 23.6871 47.3565 24.3494 51.4374 24.0076C71.6068 22.3411 77.1833 21.0164 84.5972 16.0595C92.2462 10.953 96.7117 2.08619 92.2248 0.932435C91.007 0.633313 91.0283 0.633313 90.2592 1.03926Z" fill="black"/>
<path d="M28.0641 23.3413C4.58299 25.6275 -6.86912 46.3951 5.2667 64.663C10.7791 72.9316 21.4834 78.7217 28.8333 77.397C33.8543 76.4997 33.4056 72.3333 28.235 71.8205C7.48876 69.8335 0.0106948 41.8228 17.8298 32.8919C27.4445 28.0846 36.29 28.2341 53.404 33.4901C75.0904 40.1349 85.8161 40.9896 96.4349 36.8873C104.789 33.6611 102.353 28.9392 93.5078 31.2253C83.7222 33.7465 74.5349 33.1483 60.583 29.0674C47.0584 25.1147 43.8749 24.3455 38.747 23.6618C35.5849 23.2559 30.5853 23.1063 28.0641 23.3413Z" fill="black"/>
<path d="M27.5521 35.4549C20.7577 37.8052 15.2453 49.4068 17.211 57.184C18.7707 63.316 24.2617 63.2733 23.1934 57.1413C22.4243 52.6331 24.1122 48.1463 28.5776 42.8475C31.8253 38.9589 32.338 35.3054 29.6246 35.3054C29.3254 35.3054 28.9622 35.2626 28.7913 35.1985C28.6417 35.1558 28.0862 35.2626 27.5521 35.4549Z" fill="black"/>
<path d="M40.3069 52.6327C33.2134 54.2992 31.1195 64.3412 35.9696 73.4644C41.5461 83.9337 56.5663 91.7109 68.8303 90.4717C75.6461 89.7666 76.1375 84.6602 69.3645 84.6602C53.9169 84.6602 38.448 72.973 39.8155 62.3542C40.4351 57.6751 39.1958 57.5682 66.5442 64.5762C82.6968 68.7212 86.7136 69.3836 87.9101 68.0802C89.4271 66.4564 88.316 65.2813 83.6155 63.4866C67.1424 57.205 44.7296 51.5858 40.3069 52.6327Z" fill="black"/>
<path d="M48.298 63.4849C45.8837 65.7497 46.546 70.9844 49.2595 70.9844C52.0157 70.9844 53.7036 65.5788 51.5456 63.5704C50.5414 62.6089 49.2808 62.5876 48.298 63.4849Z" fill="black"/>
<path d="M93.2507 69.4083C92.2893 69.622 91.6056 70.4339 91.5201 71.4167C91.3278 73.3824 92.097 73.9806 96.0497 74.9421C107.651 77.741 117.779 83.4457 126.389 92.0134C142.414 107.995 145.084 124.276 136.239 152.287C133.739 160.256 133.654 161.004 135.085 162.585C137.863 165.662 141.944 158.376 145.49 144.018C152.028 117.503 146.046 98.7437 125.919 82.6979C115.621 74.4934 99.5323 67.9555 93.2507 69.4083Z" fill="black"/>
<path d="M96.072 80.6896C91.6279 82.292 86.5855 88.3813 87.3547 91.2229C88.1452 94.1073 90.816 93.8723 93.5722 90.6674C95.1746 88.8086 96.0292 87.9967 97.7812 86.5865C102.161 83.1039 100.965 78.9589 96.072 80.6896Z" fill="black"/>
<path d="M81.2867 84.7023C80.133 85.3006 77.3768 88.1209 76.5221 89.6165C71.0952 98.8679 77.8041 107.35 89.2776 105.705C90.4313 105.555 90.4313 105.555 90.2818 106.154C88.1024 115.982 94.7686 123.973 105.11 123.973C105.943 123.973 105.943 123.973 105.43 124.87C101.691 131.622 104.063 138.544 111.327 142.006C113.165 142.882 113.165 142.882 111.413 144.74C105.345 151.193 103.422 158.564 106.627 163.201C109.597 167.517 114.34 165.572 113.015 160.594C111.776 155.979 114.532 150.659 120.301 146.514C124.446 143.523 125.258 142.091 124.147 139.655C123.442 138.096 123.078 137.925 118.036 136.707C109.532 134.656 108.464 130.361 114.703 123.481C116.754 121.217 116.904 119.486 115.152 117.905C114.169 117.008 114.639 117.072 108.742 117.05C97.1189 117.008 94.1704 112.734 98.8068 102.607C101.007 97.821 98.4222 95.2571 93.7644 97.586C89.5767 99.7012 84.0429 99.7439 81.9491 97.6714C80.3466 96.069 81.2654 92.3513 84.0429 89.1892C86.7778 86.0697 84.8121 82.8435 81.2867 84.7023Z" fill="black"/>
<path d="M119.553 97.3708C111.349 98.9305 105.174 103.866 107.439 107.071C108.379 108.374 110.195 108.438 112.075 107.199C115.131 105.212 117.823 104.293 123.463 103.353C126.796 102.776 128.442 101.665 128.484 99.9561C128.527 97.5631 124.617 96.4307 119.553 97.3708Z" fill="black"/>
<path d="M70.5825 104.98C62.9335 109.851 57.7843 123.141 61.8438 127.564C63.9377 129.85 66.0529 127.97 66.8648 123.141C67.8049 117.607 69.5783 114.039 73.5951 109.659C75.1975 107.907 75.3471 107.629 75.2189 106.134C75.0907 104.296 72.655 103.677 70.5825 104.98Z" fill="black"/>
<path d="M82.3555 116.453C76.0739 117.351 67.9549 134.443 71.4162 139.507C73.3177 142.306 75.6039 140.255 77.0995 134.443C78.531 128.781 80.2189 125.534 83.5306 121.944C85.8595 119.445 86.18 117.009 84.2143 116.582C83.2315 116.368 83.0178 116.347 82.3555 116.453Z" fill="black"/>
<path d="M129.68 122.2C124.317 122.734 119.98 125.576 120.664 128.097C121.134 129.828 122.523 130.255 125.193 129.529C126.668 129.123 127.8 129.016 131.069 128.888C136.475 128.717 137.671 128.183 137.671 125.918C137.671 123.397 134.124 121.751 129.68 122.2Z" fill="black"/>
<path d="M88.1883 136.321C83.5091 139.739 80.347 149.909 83.0818 152.687C85.0048 154.61 87.2482 152.772 88.4447 148.35C89.1925 145.551 89.8762 143.927 91.4145 141.171C93.6579 137.197 91.4786 133.906 88.1883 136.321Z" fill="black"/>
<path d="M121.775 162.349C117.523 162.968 116.177 164.272 117.309 166.622C118.271 168.63 128.826 169.549 130.877 167.818C132.607 166.366 131.689 163.673 129.21 162.883C127.565 162.37 123.612 162.092 121.775 162.349Z" fill="black"/>
<path d="M106.392 168.884C93.6792 170.102 83.6159 175.7 83.6372 181.554C83.68 186.469 87.4831 188.84 99.4266 191.383C106.563 192.9 106.648 192.985 106.456 197.622C106.05 207.984 112.46 210.676 122.908 204.501C129.595 200.527 130.599 200.549 135.022 204.651C148.931 217.513 160.02 202.707 150.726 183.67C146.389 174.781 140.065 169.419 137.308 172.303C135.343 174.376 135.685 176.021 139.53 182.58C145.086 192.024 146.88 197.857 145.385 201.467C144.551 203.476 143.077 203.07 139.53 199.886C132.843 193.861 128.954 193.434 121.241 197.899C113.998 202.066 113.229 202.002 113.229 197.237C113.229 189.78 110.943 187.281 101.905 184.866C94.1493 182.772 91.5426 181.875 91.7135 181.362C92.3332 179.375 103.807 175.38 111.071 174.611C114.404 174.247 115.537 173.414 115.301 171.491C115.045 169.205 112.054 168.329 106.392 168.884Z" fill="black"/>
<path d="M115.258 176.276C110.9 179.502 109.148 183.776 111.84 184.652C114.19 185.421 119.788 180.378 119.531 177.708C119.361 175.849 116.946 175.037 115.258 176.276Z" fill="black"/>
<path d="M121.818 179.333C119.211 180.38 118.848 188.178 121.348 189.46C123.463 190.55 124.809 188.883 125.215 184.717C125.578 180.999 125.194 179.739 123.57 179.439C123.164 179.354 122.694 179.247 122.566 179.204C122.416 179.162 122.096 179.204 121.818 179.333Z" fill="black"/>
<path d="M128.355 180.487C126.945 181.256 126.796 183.008 127.949 185.743C129.936 190.508 133.74 191.191 133.74 186.79C133.718 182.752 130.706 179.227 128.355 180.487Z" fill="black"/>
</svg>
