<svg width="127" height="212" viewBox="0 0 127 212" fill="none" xmlns="http://www.w3.org/2000/svg">
<path d="M3.54319 0.978635C-3.42209 3.45708 -0.259943 12.7085 17.1533 40.7406C23.1571 50.3766 25.08 53.6456 30.6565 63.4952C38.22 76.8916 40.613 80.8016 49.3303 93.9416C60.4405 110.671 61.808 113.043 61.3593 114.923C60.7183 117.551 60.7397 119.581 61.4875 122.251C63.154 128.341 70.8671 131.332 76.5291 128.106C85.5241 122.957 83.5157 107.765 73.666 106.377C72.6405 106.227 72.6405 106.227 72.5123 103.663C71.7004 88.6429 64.7565 67.7684 54.7359 50.3125C38.6901 22.3659 13.0083 -2.39718 3.54319 0.978635ZM8.7351 7.28157C26.5115 15.8493 53.048 53.2182 61.7011 81.8699C63.8377 88.9206 66.7862 103.855 66.7649 107.424C66.7649 107.958 65.3333 108.727 65.1624 108.3C64.8633 107.488 61.1456 101.42 58.1544 96.826C45.8049 77.8958 44.6939 76.1011 35.6561 60.0767C31.2761 52.2781 27.943 46.723 22.5375 38.0698C13.2433 23.1992 8.45734 14.4178 6.38485 8.3926C5.55158 5.95689 5.76524 5.85006 8.7351 7.28157ZM73.6019 113.15C76.1445 114.496 76.8496 118.384 75.0762 121.183C72.4268 125.349 67.0426 123.469 67.1067 118.406C67.1281 114.389 70.6321 111.568 73.6019 113.15Z" fill="black"/>
<path d="M82.4036 124.429C81.4208 124.899 80.9934 125.796 81.1857 127.014C81.3353 128.082 81.5917 128.467 84.9034 133.039C100.308 154.213 118.619 190.813 119.901 202.948C120.05 204.465 119.965 204.465 118.32 202.991C112.145 197.5 102.317 181.647 85.6298 150.239C76.3571 132.825 75.5238 131.736 72.9812 133.616C71.7848 134.535 71.8916 135.24 73.9854 140.517C87.2537 173.869 108.342 207.179 118.576 211.003C135.882 217.477 122.935 176.903 94.689 136.137C87.1682 125.283 84.9461 123.168 82.4036 124.429Z" fill="black"/>
</svg>
