<svg width="62" height="84" viewBox="0 0 62 84" fill="none" xmlns="http://www.w3.org/2000/svg">
<path d="M1.59156 0.964298C-0.865521 2.52401 -0.181812 4.70333 3.45039 6.79719C12.6805 12.1173 21.3123 21.8815 26.5896 32.949C29.1108 38.2478 29.3245 38.6324 30.1791 39.3374C31.7816 40.6194 33.8754 40.0425 34.3882 38.205C35.5633 33.9746 30.4141 23.3344 23.3848 15.429C14.7743 5.75026 4.64688 -0.979998 1.59156 0.964298Z" fill="black"/>
<path d="M48.5546 33.4824C45.8839 34.0379 43.6405 35.3626 39.645 38.6743C34.3677 43.0543 32.9575 43.4603 26.27 42.3493C15.9289 40.6614 10.1815 43.9944 10.1387 51.7502C10.1174 58.4378 15.2025 60.2752 15.8221 53.8227C16.2921 48.9086 18.0868 48.0753 25.4153 49.3145C33.4276 50.7033 37.8503 49.4214 43.4695 44.144C49.7297 38.2684 51.9304 38.3966 54.0243 44.785C58.5325 58.5232 53.6611 70.0608 41.1834 75.2314C33.0002 78.6072 26.9537 77.0261 20.8858 69.8685C14.4119 62.2409 10.331 66.5354 16.3776 74.5904C23.9838 84.7178 34.3036 86.6835 46.5035 80.2737C56.8446 74.8468 61.6092 66.9628 61.6092 55.2756C61.6092 40.5118 56.3959 31.8159 48.5546 33.4824Z" fill="black"/>
</svg>
