<svg width="43" height="66" viewBox="0 0 43 66" fill="none" xmlns="http://www.w3.org/2000/svg">
<path d="M27.8852 1.603C26.2827 2.4149 24.4239 4.3592 22.9069 6.81628C21.8173 8.61101 21.8173 8.61101 19.5311 7.43589C12.6299 3.84642 8.48495 9.91433 13.0572 16.9437C14.9588 19.8708 18.3774 17.4992 17.5227 13.8243C17.3304 13.0978 17.2236 12.4996 17.2663 12.4996C17.2877 12.4996 17.9714 12.7987 18.7833 13.1833C22.4155 14.8498 24.3384 14.1448 27.0305 10.1494C29.9577 5.83345 30.4491 5.57706 31.4533 8.03413C32.2865 10.0853 33.1839 11.1322 34.9359 12.2005C36.1538 12.9483 36.2179 13.0124 36.0897 13.6534C35.2137 18.3111 37.158 20.5118 39.7432 17.777C42.7345 14.6362 42.1149 10.0853 38.3972 7.9914C36.987 7.1795 36.7093 6.85901 36.0683 5.21384C34.4659 1.15432 31.4533 -0.170368 27.8852 1.603Z" fill="black"/>
<path d="M25.2788 19.9797C19.6382 20.407 17.8007 21.3257 17.8007 23.7614C17.8007 26.0048 19.3177 26.6031 25.1079 26.6031C29.5306 26.6031 31.7526 26.8808 33.4619 27.6287C44.3585 32.4573 26.6462 60.3612 13.1216 59.6775C6.3486 59.3356 5.38714 53.2677 8.44246 30.1285C9.12617 24.8511 8.97661 24.0178 7.22461 23.8683C5.21621 23.6973 4.91709 24.2101 3.61377 30.1285C-1.19355 52.0285 -0.253455 60.5962 7.33144 64.4207C17.3093 69.4417 31.8595 60.6817 39.3589 45.0846C46.7942 29.7011 40.6836 18.8473 25.2788 19.9797Z" fill="black"/>
<path d="M24.4241 32.1588C22.9712 33.7186 23.5054 37.7994 25.2787 38.7395C27.3726 39.8292 29.2314 37.3294 28.8041 33.9536C28.5263 31.6033 25.9411 30.535 24.4241 32.1588Z" fill="black"/>
<path d="M15.4933 33.7374C13.8054 35.6817 14.1687 39.2926 16.0916 39.8481C18.1641 40.4463 20.0443 37.8824 19.617 35.0194C19.3178 32.9469 16.8608 32.1991 15.4933 33.7374Z" fill="black"/>
<path d="M22.8858 44.4646C20.8774 45.5543 21.1979 49.3147 23.3345 49.8915C25.4925 50.4684 26.9454 48.8873 26.8172 46.1739C26.7317 44.6142 24.4242 43.61 22.8858 44.4646Z" fill="black"/>
<path d="M11.776 45.4076C10.6009 46.3263 10.0454 49.4244 10.8146 50.8773C12.4811 54.0822 16.7115 50.8986 15.9637 46.9673C15.6219 45.1726 13.2075 44.2752 11.776 45.4076Z" fill="black"/>
</svg>
