<svg width="99" height="169" viewBox="0 0 99 169" fill="none" xmlns="http://www.w3.org/2000/svg">
<path d="M18.6334 0.199951C1.90392 1.93059 -5.33912 24.6639 5.19426 42.3335C10.0657 50.538 21.9238 60.6013 29.53 63.037C29.7864 63.1011 29.7864 63.2507 29.5727 63.8703C26.8593 71.6047 34.5296 79.6597 42.6059 77.5658C50.4686 75.5147 53.9299 64.0626 48.4388 58.2938C47.7124 57.546 47.7124 57.546 48.2252 56.0504C53.0111 42.2053 46.0672 16.9508 34.551 6.1824C29.765 1.71693 24.1885 -0.376928 18.6334 0.199951ZM22.928 6.67381C35.427 9.36592 45.4903 33.5307 41.9222 52.2473C41.4735 54.6616 41.4735 54.6616 40.3625 54.6616C38.1191 54.6616 35.5552 55.6444 33.8246 57.1828C31.4529 59.2553 17.2446 48.1023 12.1382 40.1755C2.09621 24.5571 8.82646 3.63986 22.928 6.67381ZM42.3068 61.7337C44.4434 62.7593 45.1912 65.9428 43.8452 68.293C42.0077 71.4979 37.9695 71.327 36.6876 67.9939C35.2133 64.1267 38.8455 60.0672 42.3068 61.7337Z" fill="black"/>
<path d="M51.5586 79.3808C50.4262 79.9577 50.1698 80.6841 50.5117 82.2866C50.8108 83.7608 50.8108 83.7608 57.0924 92.6917C78.6719 123.416 90.5727 146.235 91.641 158.841C92.2606 166.425 79.3129 147.816 63.374 118.224C59.5495 111.131 49.4434 91.9439 49.0802 91.0893C48.546 89.8501 43.9096 81.261 43.4396 80.6841C42.0081 78.8466 39.2732 80.2568 39.7006 82.5857C40.9825 89.6151 52.7765 115.254 63.8013 134.975C77.6036 159.674 86.8337 169.801 93.8204 167.921C106.341 164.524 90.2095 124.634 61.3015 87.4571C55.3404 79.7867 53.6098 78.3552 51.5586 79.3808Z" fill="black"/>
</svg>
