<svg width="95" height="89" viewBox="0 0 95 89" fill="none" xmlns="http://www.w3.org/2000/svg">
<path d="M45.0431 0.610718C37.095 1.82857 26.8394 7.93922 14.4258 18.8358C5.19575 26.9335 1.90541 31.5272 3.99926 33.4074C5.55897 34.8175 5.70853 34.732 13.208 28.1514C26.0061 16.8915 36.0695 9.90488 42.3083 7.85375C48.7608 5.7599 57.1362 7.42644 73.8016 14.1994C78.6303 16.1437 79.6345 16.2506 80.9378 14.9472C82.7753 13.1311 81.3651 10.845 77.092 8.68702C66.7936 3.49511 51.4315 -0.372113 45.0431 0.610718Z" fill="black"/>
<path d="M36.1982 12.9637C35.2154 13.9465 34.8308 15.5276 35.1727 17.2582C36.3905 23.2834 46.5607 23.7107 50.1715 17.8778C52.7568 13.7115 49.0391 10.2288 45.7061 13.7115C44.2745 15.2071 42.7789 16.0617 41.5611 16.0617C40.9201 16.0617 40.1296 15.4848 40.2578 15.1216C41.0697 13.0278 37.8434 11.3185 36.1982 12.9637Z" fill="black"/>
<path d="M80.9381 17.2761C80.5322 17.3402 77.7973 17.8744 74.8488 18.5153C71.9217 19.135 67.1571 20.0964 64.2727 20.6306C61.3883 21.1647 56.3887 22.0834 53.1625 22.6817C32.5444 26.4848 5.55927 33.9629 2.7817 36.6336C-1.23509 40.4795 -0.401817 62.9564 4.44824 81.737C6.13615 88.2536 6.86259 89.3646 9.12737 88.7023C11.264 88.104 11.264 87.6554 9.34103 75.0281C7.24717 61.354 6.69166 55.3074 6.84122 47.5516C6.96942 40.8641 6.77712 41.3127 9.83244 40.3513C28.1857 34.5398 40.7062 31.4417 60.8542 27.7881C68.4177 26.4207 73.5455 25.4165 79.5066 24.1346C82.1773 23.5577 81.9637 23.4722 82.6688 25.7584C84.1216 30.6084 85.7882 40.6077 86.5787 49.3891C87.1983 56.2261 87.9034 69.943 87.6684 70.9686C87.3693 72.336 83.9293 73.0197 64.5932 75.5623C50.1499 77.4638 50.0217 77.4852 48.9961 78.1903C46.4322 79.9636 47.2655 82.4634 50.6627 83.1472C52.7138 83.5531 57.5852 82.9976 73.1396 80.5619C89.9973 77.9339 91.6211 77.4211 93.1594 74.3871C94.2704 72.2078 94.3132 70.9259 93.7363 59.3242C92.9244 42.381 89.7195 23.8568 86.8992 19.7759C85.66 17.9598 83.3311 16.9984 80.9381 17.2761Z" fill="black"/>
<path d="M67.7333 30.3744C66.7291 31.3359 66.5155 32.3828 66.9642 34.498C67.7974 38.6216 66.5796 40.2882 62.7124 40.2668C59.9562 40.2454 57.3282 38.6003 56.8795 36.5919C56.3881 34.4126 56.1103 33.8998 55.1488 33.4084C52.9909 32.2546 51.3457 33.857 51.3457 37.126C51.3457 48.5995 70.2545 50.8857 73.6731 39.8181C75.4251 34.1348 71.0664 27.1695 67.7333 30.3744Z" fill="black"/>
<path d="M15.9648 52.337C14.6187 53.5549 15.2383 55.5206 17.1185 56.0333C22.6096 57.5076 23.8274 64.7079 18.8705 66.4385C14.1487 68.0837 15.9221 73.4038 20.8789 72.4637C28.3997 71.0322 30.6859 60.221 24.6607 54.5591C21.8831 51.9738 17.61 50.8628 15.9648 52.337Z" fill="black"/>
<path d="M64.3797 54.8185C54.7437 57.8739 54.6796 71.3771 64.3156 71.4198C68.1401 71.4412 68.8452 67.2962 65.3198 65.5015C62.7559 64.2195 65.1489 60.566 68.952 59.9464C71.9646 59.4763 72.1356 55.2459 69.1871 54.6476C68.0547 54.434 65.2985 54.5194 64.3797 54.8185Z" fill="black"/>
<path d="M24.3611 76.0992C19.3401 77.4239 15.3019 81.5048 15.2592 85.2866C15.2165 88.8547 18.4855 89.6666 20.3016 86.5472C22.8014 82.2526 28.4206 81.0134 31.3691 84.1115C33.5484 86.3762 36.4969 86.3549 37.1379 84.0474C38.4626 79.2187 30.7708 74.4327 24.3611 76.0992Z" fill="black"/>
</svg>
