<svg width="53" height="73" viewBox="0 0 53 73" fill="none" xmlns="http://www.w3.org/2000/svg">
<path d="M48.0968 0.814388C45.9175 1.58356 39.9564 6.96776 36.6233 11.1555C26.56 23.7827 19.4024 47.157 26.4959 44.1871C27.3932 43.8239 27.4787 43.6316 28.547 40.5336C32.9911 27.6499 39.4009 16.9884 47.4772 8.99752C53.7587 2.78005 54.0579 -1.30083 48.0968 0.814388Z" fill="black"/>
<path d="M15.3435 33.6101C-9.86824 37.7978 -1.15096 72.1542 25.1291 72.1328C47.3923 72.1114 61.1733 49.9336 46.0463 38.4602C39.9357 33.8238 34.8719 37.7124 40.833 42.4769C48.0547 48.2244 47.6915 55.5742 39.8929 61.343C28.0562 70.1244 12.0745 66.6418 7.13901 54.2068C4.34008 47.1988 10.408 39.6139 20.2149 37.8619C22.5438 37.456 23.5694 35.7253 22.3515 34.2724C21.6251 33.3964 18.4629 33.0973 15.3435 33.6101Z" fill="black"/>
<path d="M32.0741 44.746C31.839 44.8742 31.0699 45.5152 30.3648 46.1775C26.5403 49.7884 22.3953 49.8525 18.9127 46.3485C16.2206 43.6564 13.5499 45.9639 15.4087 49.361C19.105 56.1554 30.2152 56.4545 34.8944 49.8952C37.266 46.5621 35.3003 42.9513 32.0741 44.746Z" fill="black"/>
</svg>
