<svg width="92" height="175" viewBox="0 0 92 175" fill="none" xmlns="http://www.w3.org/2000/svg">
<path d="M9.22622 0.620364C1.51314 3.50476 2.96602 15.6833 11.1919 16.9012C14.7814 17.4353 16.3838 13.7177 13.3712 11.8588C10.5295 10.1068 9.56808 7.82067 11.2133 6.66691C11.8756 6.19686 12.5807 6.23959 13.478 6.79511C16.512 8.65394 19.2468 5.1713 16.8325 2.50056C15.1659 0.663096 11.5337 -0.234271 9.22622 0.620364Z" fill="black"/>
<path d="M25.0584 2.6671C21.2766 3.43628 18.1358 9.1196 19.5673 12.5809C20.4861 14.7388 22.9432 14.2901 23.8619 11.8331C25.6353 7.02575 27.43 8.82048 26.0198 14.0124C24.396 20.0162 29.4597 20.999 31.3613 15.0593C33.797 7.38897 30.8058 1.51335 25.0584 2.6671Z" fill="black"/>
<path d="M43.4546 11.0224C37.5576 11.8984 30.6564 20.5302 28.6907 29.5039C27.6438 34.2471 32.387 35.4008 34.139 30.8285C37.5576 21.9617 44.2665 14.5691 46.4885 17.2185C48.326 19.3978 47.4073 24.7179 44.0314 31.3627C40.207 38.9049 44.8861 41.8533 49.1806 34.5889C56.1459 22.7309 52.9624 9.63359 43.4546 11.0224Z" fill="black"/>
<path d="M7.81645 20.8499C-4.93899 23.1574 -0.751271 36.5965 13.2648 38.3912C20.8283 39.3527 22.1743 34.0967 14.7817 32.5156C10.3376 31.5755 6.68406 29.6312 6.68406 28.1997C6.68406 25.4863 17.132 26.875 21.8111 30.1867C24.0759 31.7892 26.0629 31.6183 26.5543 29.8022C27.7936 25.2085 15.6791 19.4397 7.81645 20.8499Z" fill="black"/>
<path d="M69.7128 38.8001C50.9108 39.3983 23.6052 41.2144 21.0627 42.0263C18.9261 42.71 19.0329 45.9149 21.1909 46.4918C21.9173 46.6841 51.5091 45.8935 56.6796 45.5303C57.5556 45.4662 62.8971 45.3167 68.5377 45.2098C87.297 44.8039 86.5278 44.8466 88.0234 43.9492C89.4763 43.0519 89.3908 40.723 87.8738 39.7615C86.3355 38.7787 80.2676 38.4582 69.7128 38.8001Z" fill="black"/>
<path d="M86.8915 46.1075C85.5668 46.7271 85.4386 47.4749 85.2891 55.1453C85.1181 62.2388 85.0113 64.5463 84.2421 75.336C82.4047 100.591 80.8877 114.756 77.8324 134.626C77.0205 139.904 75.9735 147.125 75.4821 150.651C73.8369 162.68 73.4096 163.577 68.6878 164.838C59.4363 167.295 29.1395 167.765 24.2894 165.521C17.666 162.445 16.79 148.066 19.824 91.8946C20.1231 86.489 20.5718 78.37 20.8068 73.8404C22.0247 51.4063 21.7042 47.5604 18.6061 47.5604C16.7045 47.5604 16.2559 48.3723 15.9781 52.1541C15.6363 57.2178 14.5039 71.9389 13.9483 78.6478C9.88883 128.366 10.0811 155.672 14.5893 164.966C18.307 172.615 23.6271 174.217 44.6084 173.982C76.4649 173.598 79.8621 171.718 81.785 153.471C82.4688 146.912 83.0884 142.104 84.5626 131.422C86.6351 116.465 87.6607 107.428 89.1349 90.9331C91.9979 59.098 92.233 48.6714 90.1391 46.5776C89.4127 45.8725 87.853 45.6375 86.8915 46.1075Z" fill="black"/>
<path d="M59.2659 64.6765C56.9156 64.8901 54.2876 65.3175 51.0186 66.0439C49.7367 66.3217 46.7454 66.8131 44.3952 67.1122C32.3235 68.6933 29.7168 69.5906 27.388 72.9237C24.6531 76.8764 23.6062 87.132 24.3967 102.152C26.4265 139.671 27.8794 147.469 34.0968 154.114C47.1728 168.066 66.7012 158.793 72.705 135.761C74.222 129.928 78.0037 105.72 79.9908 89.0122C82.341 69.3343 77.0209 63.0954 59.2659 64.6765Z" fill="black"/>
</svg>
