<svg width="186" height="338" viewBox="0 0 186 338" fill="none" xmlns="http://www.w3.org/2000/svg">
<path d="M137.165 0.907041C134.793 1.01387 126.845 1.41982 119.538 1.84714C99.3257 2.97953 91.3349 3.38548 78.0453 3.98373C57.6409 4.8811 53.1968 5.18022 47.5989 6.14168C24.1178 10.1157 17.2166 25.3069 24.8442 56.3302C29.737 76.2218 35.4417 83.9135 57.7477 100.771C68.452 108.848 70.1613 110.236 72.4047 112.544C77.447 117.8 79.5409 123.718 79.7759 133.354C79.9041 137.798 80.011 138.375 80.8442 138.995C86.0361 142.798 87.2113 125.919 82.4467 115.92C79.4554 109.638 76.7847 107.053 60.6321 94.8956C41.4669 80.4523 36.745 74.363 31.895 57.8471C23.3486 28.7895 27.8354 16.2264 47.9194 12.8719C52.8122 12.0387 58.1323 11.6114 76.0155 10.6072C81.2502 10.308 91.0571 9.73115 97.8087 9.3252C104.56 8.91925 111.013 8.53466 112.124 8.47057C113.235 8.40647 114.88 8.321 115.756 8.25691C116.632 8.21418 118.47 8.10735 119.816 8.04325C121.162 7.95778 122.7 7.87232 123.234 7.82959C123.768 7.78686 125.584 7.68003 127.294 7.61593C129.003 7.53047 130.819 7.445 131.353 7.38091C147.121 5.99212 159.428 7.33817 164.406 11.0131C176.969 20.2645 172.931 67.0558 158.103 83.8494C153.061 89.5541 147.933 92.9299 133.169 100.237C121.162 106.198 118.405 107.929 115.457 111.369C109.859 117.885 108.599 133.846 113.705 133.846C115.799 133.846 116.333 132.756 116.739 127.65C117.7 115.407 118.811 114.274 139.045 104.831C158.744 95.6434 167.269 86.627 172.675 69.2138C180.003 45.5831 179.939 21.4397 172.525 10.3935C167.248 2.53085 158.039 0.0737711 137.165 0.907041Z" fill="black"/>
<path d="M152.825 18.111C141.458 20.9741 127.72 23.9226 123.959 24.3071C120.883 24.6276 119.985 27.7257 122.699 28.623C126.075 29.7768 150.304 25.6532 155.324 23.0893C159.662 20.8672 157.653 16.8932 152.825 18.111Z" fill="black"/>
<path d="M34.9297 25.4549C32.5581 28.2539 36.1903 29.8563 48.668 31.4374C72.4696 34.4713 112.488 32.3775 115.586 27.912C117.573 25.0917 113.343 24.3439 101.228 25.3267C75.2471 27.442 53.9453 27.4847 41.0831 25.4122C36.233 24.643 35.592 24.643 34.9297 25.4549Z" fill="black"/>
<path d="M148.381 39.0087C142.74 41.1025 139.364 52.341 139.364 69.0491C139.364 81.5482 140.518 85.9495 143.509 84.8171C144.77 84.3685 144.791 84.2403 144.663 78.0228C144.385 64.8187 146.885 49.478 149.983 45.4612C151.479 43.5382 154.876 55.6313 155.282 64.3486C155.56 70.1174 156.158 71.613 158.252 71.613C165.153 71.613 160.516 43.6023 152.932 39.4787C151.586 38.7523 149.62 38.5386 148.381 39.0087Z" fill="black"/>
<path d="M52.683 40.394C47.1919 41.4837 41.5727 62.5932 43.3461 75.37C44.1366 81.0319 48.4525 80.1773 48.4525 74.3658C48.4525 64.1102 52.683 44.2826 54.2213 47.2525C56.1656 50.9915 57.8535 60.6916 59.0286 75.0281C59.9901 86.523 60.3747 87.8477 62.8531 87.8477C65.8444 87.8477 66.2076 83.6172 64.5624 68.832C62.2122 47.8721 58.6013 39.2403 52.683 40.394Z" fill="black"/>
<path d="M114.047 43.8128C110.179 45.0734 107.231 51.0558 105.5 61.0337C103.406 73.1695 103.321 89.6854 105.329 91.6937C107.573 93.9585 109.346 91.9501 109.346 87.1214C109.368 72.3576 113.192 50.3508 115.735 50.3508C117.615 50.3508 121.055 63.1489 122.7 76.3103C123.832 85.3481 125.371 88.788 127.55 87.1214C131.545 84.1089 127.379 56.2477 121.653 47.6159C119.559 44.4538 116.589 42.9795 114.047 43.8128Z" fill="black"/>
<path d="M78.6426 48.342C75.5445 49.8804 73.8139 55.115 72.9165 65.627C72.1046 75.1562 73.8352 91.2661 75.8864 93.1676C78.3221 95.4538 79.8818 92.8472 79.2835 87.463C78.7067 82.036 78.7921 68.2764 79.4331 63.1699C79.9032 59.5164 80.6937 55.756 80.9501 55.9269C82.1252 56.632 85.0951 70.8617 86.6975 83.3607C87.7658 91.8002 88.4922 93.6163 90.7998 93.6163C93.7269 93.6163 94.0046 87.5698 91.6971 73.8529C88.2786 53.4698 84.2404 45.5644 78.6426 48.342Z" fill="black"/>
<path d="M119.601 137.116C109.88 137.629 100.394 140.107 95.5648 143.398C94.7529 143.932 94.6034 143.975 92.8727 143.868C90.8643 143.761 89.3474 144.081 87.4885 145.022C86.463 145.556 86.463 145.556 85.181 144.787C68.6225 134.702 23.3909 143.633 9.93036 159.614C-4.29932 176.493 -2.76097 198.842 14.1822 221.49C18.5835 227.366 19.6091 228.84 22.3012 233.134C27.0017 240.655 29.1597 242.813 33.2192 243.946C34.8216 244.394 34.8857 244.672 34.8644 251.723C34.843 264.457 31.4458 273.431 20.186 290.566C18.8827 292.574 15.1864 298.087 12.0029 302.83C-0.966237 322.145 -2.8037 329.174 3.62743 334.943C8.73388 339.537 14.5668 339.002 26.6599 332.87C34.3943 328.939 36.3172 328.362 45.1413 327.251C60.7812 325.286 69.2634 320.927 75.3527 311.697C83.3436 299.561 83.7495 286.293 76.9765 257.855C75.2672 250.654 74.3485 246.253 71.8701 233.134C67.9815 212.709 67.5328 205.872 69.0925 191.578C69.413 188.544 69.4771 188.287 70.289 186.77C73.7503 180.339 80.4378 172.626 86.4202 168.139C87.3176 167.456 88.4927 174.357 88.8346 182.455C89.3687 194.911 88.4927 205.166 85.7365 218.819C81.3138 240.762 83.0231 247.385 95.8853 257.876C105.158 265.461 106.782 268.345 109.453 281.849C112.722 298.45 116.781 303.407 127.101 303.428C134.75 303.45 137.314 304.411 149.044 311.697C158.936 317.85 163.957 319.453 168.786 317.957C176.136 315.692 175.217 307.146 166.265 294.989C157.868 283.558 156.329 278.537 154.642 257.171C154.086 250.078 153.83 247.15 153.445 243.796C153.146 241.104 153.146 241.104 155.24 238.967C158.979 235.143 161.479 231.489 167.205 221.49C171.756 213.499 173.059 211.427 176.67 206.32C183.443 196.748 182.823 192.283 172.589 176.942C170.068 173.16 166.03 166.815 163.508 162.627C151.415 142.714 139.963 136.048 119.601 137.116ZM130.22 143.526C138.767 144.616 144.92 147.949 148.104 153.183C155.304 165.02 151.522 204.44 143.489 201.321C140.839 200.295 140.519 198.287 140.775 184.313C140.925 175.852 139.942 173.801 133.895 169.785C130.413 167.456 129.002 165.939 126.396 161.751C120.584 152.414 114.474 148.718 104.667 148.632C98.6629 148.568 98.7056 148.077 104.987 145.898C112.487 143.291 121.674 142.415 130.22 143.526ZM70.8872 147.457C75.6946 147.863 81.7838 148.931 81.7838 149.38C81.7838 149.466 81.4634 150.085 81.0574 150.769C80.3096 152.008 79.4336 154.273 79.4336 154.978C79.4336 155.427 79.4977 155.384 75.4809 156.88C60.8453 162.307 52.8758 167.37 42.1288 178.117C29.5229 190.723 27.0872 190.98 18.1562 180.574C11.1055 172.348 10.4431 170.404 13.1352 165.875C18.2844 157.2 34.6721 149.786 53.0467 147.778C58.1532 147.244 66.4431 147.073 70.8872 147.457ZM93.5992 150.683C96.8041 151.559 96.099 157.051 92.5736 158.696C88.1295 160.79 85.7579 157.243 88.6209 152.799C89.7106 151.111 91.8472 150.192 93.5992 150.683ZM108.641 154.722C114.132 156.132 117.636 158.995 121.482 165.234C124.473 170.062 126.139 171.75 130.605 174.464C135.476 177.434 135.861 178.523 135.113 187.262C133.959 200.957 137.592 208.072 145.07 206.683C153.274 205.166 157.526 194.419 158.039 173.994C158.167 168.353 158.167 168.353 161.607 173.353C169.213 184.335 173.614 192.219 173.999 195.552C174.191 197.154 173.785 198.009 171.008 201.919C167.034 207.495 165.196 210.529 160.944 218.499C150.753 237.579 143.51 243.198 130.861 241.916C119.922 240.826 118.063 238.54 118.084 226.404C118.17 199.547 111.162 174.4 100.5 163.225C99.3893 162.05 99.3893 162.05 99.8807 161.431C100.671 160.448 101.633 157.884 101.911 156.068C102.252 153.846 103.898 153.525 108.641 154.722ZM81.0147 162.606C81.7625 163.674 81.7625 163.674 80.1173 165.041C76.8911 167.733 71.2291 173.887 67.8533 178.331C62.5973 185.275 58.9223 193.971 54.1364 210.807C49.3718 227.622 44.7354 235.421 38.4325 237.279C34.7148 238.369 33.2833 237.344 29.0101 230.528C26.0189 225.763 24.1387 223.135 20.421 218.456C12.3661 208.329 9.63124 203.393 8.19973 196.342C7.2169 191.578 7.36646 180.745 8.41339 179.036C8.47748 178.929 9.16119 179.656 9.93036 180.617C24.7797 199.184 30.698 199.462 46.5301 182.39C55.1406 173.118 62.8964 168.097 76.9765 162.712C78.6217 162.093 80.0318 161.58 80.1173 161.559C80.1814 161.559 80.5874 162.029 81.0147 162.606ZM96.1631 166.729C101.654 173.16 107.295 186.706 109.859 199.59C111.397 207.218 111.717 211.149 111.803 223.584C111.91 236.489 112.252 238.497 114.794 241.724C120.157 248.539 135.754 250.313 146.48 245.313C148.232 244.48 148.232 244.48 148.232 245.591C148.232 253.731 149.321 268.837 150.39 275.439C151.885 284.797 153.83 289.134 160.389 297.873C172.461 313.919 169.234 316.739 151.18 305.864C140.326 299.347 136.78 298.001 128.896 297.446C120.606 296.848 119.217 295.138 116.503 282.041C113.234 266.252 110.478 261.337 100.479 253.325C89.4328 244.501 88.2791 240.1 92.1249 221.533C96.6759 199.547 96.8895 176.365 92.595 166.879C92.4668 166.558 94.0906 165.746 95.0734 165.64C95.1375 165.618 95.6503 166.131 96.1631 166.729ZM61.9136 214.119C62.2554 217.986 63.0246 222.836 64.6911 231.318C65.503 235.421 66.5927 241.253 67.1268 244.245C68.302 250.847 68.9216 253.881 70.8445 262.619C77.0833 290.758 75.9937 303.022 66.4004 312.573C61.3367 317.615 55.2688 319.859 44.0731 320.841C34.7362 321.675 30.6553 322.7 23.3481 326.119C14.8659 330.093 14.0112 330.392 11.2337 330.392C3.62743 330.413 5.2726 323.918 17.2375 306.633C34.8644 281.186 39.223 272.619 41.1032 259.735C41.7228 255.505 41.7014 246.274 41.0605 243.924C40.975 243.561 41.1887 243.369 42.5133 242.749C50.8033 238.796 57.1917 227.943 61.4008 210.7C61.5931 209.952 61.5931 209.952 61.6358 210.7C61.6785 211.106 61.8067 212.645 61.9136 214.119Z" fill="black"/>
<path d="M80.4164 176.32C79.5618 176.982 79.4336 177.516 79.1131 181.533C78.0448 194.694 77.9593 204.608 78.8781 206.403C79.9891 208.54 82.8521 208.326 83.8563 206.018C84.5614 204.352 84.7964 178.905 84.0913 177.324C83.4717 175.935 81.5702 175.422 80.4164 176.32Z" fill="black"/>
<path d="M165.154 259.542C162.12 261.081 163.466 263.196 169.149 265.803C175.708 268.837 180.281 271.721 180.281 272.853C180.281 274.712 175.495 275.887 168.102 275.887C162.761 275.866 161.115 276.336 160.688 277.981C159.769 281.485 166.542 283.045 175.131 281.293C184.917 279.284 188.827 273.238 183.656 268.089C179.533 264.008 167.397 258.389 165.154 259.542Z" fill="black"/>
<path d="M82.9591 261.596C81.1858 263.219 82.1045 265.548 84.8607 266.36C91.0355 268.198 97.723 266.211 96.4197 262.942C95.8855 261.617 94.7104 261.296 90.2663 261.232C88.1297 261.211 85.7794 261.125 85.0744 261.019C83.7711 260.869 83.7497 260.869 82.9591 261.596Z" fill="black"/>
<path d="M88.5993 282.042C84.6038 282.192 84.3474 282.277 83.8774 283.794C83.1082 286.401 85.8431 287.512 93.0006 287.512C98.4703 287.512 100.222 286.871 100.521 284.798C100.863 282.192 98.6199 281.679 88.5993 282.042Z" fill="black"/>
</svg>
