<svg width="138" height="195" viewBox="0 0 138 195" fill="none" xmlns="http://www.w3.org/2000/svg">
<path d="M128.268 0.657507C124.016 1.76853 118.589 12.2592 117.777 20.9124C117.628 22.3866 117.628 22.3866 116.325 23.2412C111.923 26.0829 109.466 29.6724 104.659 40.3126C97.3303 56.5079 96.1338 58.089 87.8439 62.8109C83.3357 65.3748 80.8572 67.0413 79.1052 68.6651C78.4642 69.2634 78.4001 69.2847 75.6867 69.3488C62.4612 69.7121 43.4028 80.4591 35.7325 91.9326C29.109 101.825 28.5749 117.572 34.9419 114.495C35.8393 114.089 36.0957 113.384 36.3093 110.692C37.4631 96.4408 47.441 85.0528 64.491 78.5148C70.9007 76.0577 72.4391 76.0363 71.0289 78.4293C66.4566 86.1851 64.0423 99.1115 66.6703 101.761C68.7855 103.876 70.4734 102.38 71.4349 97.5732C74.3406 83.023 79.7248 75.3313 91.412 69.0497C100.92 63.9433 103.163 61.123 110 45.5472C115.513 33.0055 117.222 30.292 120.876 28.3691C128.695 24.2668 128.653 33.9242 120.747 55.8029C116.901 66.4644 116.773 69.7761 120.021 74.5621C122.628 78.4293 122.82 78.7925 123.162 80.395C125.491 91.4198 106.154 142.078 96.1552 151.116C87.5448 158.893 70.2384 159.534 57.5684 152.548C49.5135 148.082 47.0991 153.958 54.684 159.534C64.5123 166.777 86.0278 166.521 97.3944 159.043C106.966 152.74 117.158 132.827 126.238 102.701C131.516 85.1809 131.58 79.519 126.559 72.2546C123.696 68.131 123.76 67.5327 127.948 54.9482C132.819 40.3126 134.08 32.2577 132.328 27.0657C131.986 26.1256 131.986 26.1256 133.161 23.7113C135.02 19.8868 136.729 14.1607 137.028 10.8277C137.584 4.90932 132.862 -0.560349 128.268 0.657507ZM130.618 8.9902C130.853 10.4431 128.161 18.5835 126.58 21.126C126.559 21.1474 125.918 21.0619 125.149 20.9337C123.546 20.656 123.696 19.9509 126.687 13.7121C129.7 7.43049 130.234 6.78952 130.618 8.9902Z" fill="black"/>
<path d="M88.9115 81.2524C86.0485 82.1071 87.6936 86.188 91.9241 88.6878C98.9321 92.8541 112.158 92.0422 113.311 87.3631C113.888 85.0556 112.435 84.5214 105.62 84.6069C99.6799 84.671 98.0347 84.5214 95.6418 83.7095C94.3598 83.2608 93.6975 82.919 91.6463 81.6157C90.9199 81.1456 89.7661 80.9961 88.9115 81.2524Z" fill="black"/>
<path d="M86.8183 102.618C76.4986 103.623 65.0892 108.024 64.4269 111.293C63.7859 114.498 66.243 115.502 70.153 113.622C78.6993 109.498 91.7325 108.174 98.5482 110.716C100.834 111.571 98.8046 112.618 87.0106 116.57C56.6284 126.762 42.6123 138.727 27.9126 167.122C19.5158 183.36 16.6528 192.868 19.7936 194.064C22.2934 195.026 23.5967 193.253 30.7329 179.194C48.7871 143.662 57.5471 135.415 87.8866 125.373C92.3521 123.899 97.074 122.211 98.3987 121.655C116.132 113.964 107.992 100.589 86.8183 102.618Z" fill="black"/>
<path d="M23.5544 114.542C21.9947 115.503 21.4819 116.422 16.6746 127.062C12.1023 137.232 7.765 146.398 4.09007 153.727C0.222846 161.44 0.0305525 162.145 1.39797 163.534C3.49183 165.628 5.2011 164.281 9.19652 157.402C19.6658 139.348 26.5029 125.267 27.7421 119.178C28.4899 115.546 26.1397 112.961 23.5544 114.542Z" fill="black"/>
<path d="M73.8919 135.097C72.8877 135.31 72.1826 136.229 72.1826 137.34C72.1826 142.81 95.215 143.985 96.2406 138.558C96.6893 136.229 94.0613 135.417 86.6046 135.631C82.2246 135.759 79.2334 135.609 75.708 135.097C75.1097 135.011 74.2978 135.011 73.8919 135.097Z" fill="black"/>
</svg>
