<svg width="42" height="53" viewBox="0 0 42 53" fill="none" xmlns="http://www.w3.org/2000/svg">
<path d="M16.8687 1.50702C11.2067 4.51961 11.7195 14.412 18.1507 27.1675C20.2018 31.227 20.2018 31.227 18.2148 31.2697C7.44634 31.5047 -0.864989 37.9359 0.566526 44.9652C2.48946 54.3235 16.5696 55.285 24.0904 46.5463C25.2014 45.2216 27.1457 42.2731 27.1457 41.8672C27.1457 41.6963 27.4875 42.0167 27.9149 42.5936C30.5642 46.0763 34.7947 50.6486 36.7603 52.1014C39.0679 53.8321 41.7386 52.5929 41.3754 49.9649C41.2258 48.8966 41.2685 48.9393 38.3841 45.6276C35.7989 42.6364 31.8462 37.4017 29.325 33.6413C26.6543 29.6245 26.7825 30.0946 27.808 28.5776C35.3075 17.3391 26.8038 -3.74899 16.8687 1.50702ZM21.0778 6.74167C25.0518 9.60469 26.4192 17.0187 24.1331 23.1293C23.6631 24.3899 23.6631 24.3899 22.552 22.0824C18.0866 12.8309 17.2319 3.94273 21.0778 6.74167ZM22.1247 38.1068C19.5181 44.3456 13.0869 48.1488 8.70693 45.9908C2.76721 43.085 10.4376 37.7863 21.2273 37.3376C22.4666 37.2949 22.4666 37.2949 22.1247 38.1068Z" fill="black"/>
</svg>
