<svg width="219" height="327" viewBox="0 0 219 327" fill="none" xmlns="http://www.w3.org/2000/svg">
<path d="M134.362 0.823883C131.819 2.10584 131.157 4.0715 131.541 9.37024C132.097 16.9765 132.225 19.1772 132.546 26.7193C133.101 40.479 133.379 41.5259 136.37 41.184C139.874 40.7781 140.195 36.2485 138.528 9.88302C138.378 7.61824 138.079 7.74643 141.84 8.49424C145.002 9.11385 145.493 9.60526 145.921 12.5965C146.391 15.9509 145.985 27.3817 145.023 37.8296C144.104 47.9143 144.425 49.2817 148.506 52.5721C152.629 55.9051 152.865 57.358 152.929 80.0272C152.95 94.1714 153.1 103.658 153.399 109.833C153.954 121.904 154.232 120.665 151.006 120.836C142.588 121.285 135.686 120.793 134.575 119.682C132.845 117.973 130.516 104.406 127.973 81.2024C125.495 58.7682 126.008 54.1959 131.114 52.6575C133.699 51.8884 134.554 50.991 134.468 49.239C134.212 45.1154 125.815 44.9872 121.841 49.0681C117.034 53.9822 116.927 61.9303 121.222 94.8765C125.473 127.417 125.943 128.079 145.258 128.357C161.048 128.592 162.244 127.695 161.411 116.221C160.727 107.012 160.642 103.85 160.642 86.6507C160.62 55.4992 160.022 51.7388 154.317 47.4229C151.54 45.3077 151.604 45.5427 152.202 39.432C154.766 13.7716 154.381 8.17375 149.809 4.0715C146.54 1.12301 137.545 -0.778558 134.362 0.823883Z" fill="black"/>
<path d="M54.0246 57.2906C35.7995 59.8546 34.838 60.0468 34.0689 61.222C33.2356 62.4826 33.727 64.2346 35.1372 64.961C35.8636 65.3456 46.5679 65.3456 52.2085 64.9824C56.033 64.7473 55.4561 64.1918 55.7552 68.4436C56.4817 79.1907 53.8109 83.8485 48.4054 81.3486C45.4783 79.9812 43.1494 76.99 41.2905 72.2254C39.7949 68.3368 39.2821 67.7386 37.3806 67.7386C29.0906 67.7386 37.5729 86.6901 47.1448 89.5318C48.0422 89.8095 48.0422 89.8095 48.0422 96.3475C48.0422 105.62 48.5336 115.876 49.025 117.564C49.0891 117.82 48.9182 117.97 48.3199 118.162C42.3802 120.064 40.0727 122.692 42.5084 124.807C44.2177 126.281 57.0372 124.807 59.4729 122.863C62.3573 120.576 61.1822 117.051 57.379 116.538C56.439 116.41 56.439 116.41 56.3108 113.162C56.2467 111.389 55.7339 105.62 55.1997 100.322C54.046 89.019 54.0032 90.0446 55.6057 89.4036C62.0795 86.7756 64.152 80.6222 63.2974 66.5634C62.7205 56.9702 61.93 56.1796 54.0246 57.2906Z" fill="black"/>
<path d="M99.0637 63.0375C97.2049 63.3794 92.0557 64.1913 87.633 64.8536C83.1888 65.4946 79.1934 66.1997 78.7447 66.392C76.2022 67.503 76.5013 70.8575 79.2148 71.5839C81.0309 72.0753 93.4872 71.7762 98.3373 71.1352C100.41 70.8575 100.26 70.5583 99.8756 74.1692C98.6364 85.3222 96.7135 88.7621 91.8848 88.4202C88.2098 88.1638 84.9836 84.8308 83.2957 79.5961C80.7959 71.9044 74.9416 74.0623 76.5654 82.0746C77.8687 88.5484 83.1461 94.595 88.3808 95.6419C89.385 95.8342 89.3636 95.7701 88.8722 101.325C88.1244 109.658 87.9748 112.286 87.9962 117.521C87.9962 120.277 88.0389 122.777 88.0603 123.054C88.103 123.546 87.9962 123.588 85.1118 124.165C80.2617 125.148 78.7875 126.708 80.3685 129.144C81.8642 131.43 96.5639 131.9 101.158 129.806C106.328 127.477 104.555 122.948 98.38 122.691C96.0725 122.584 96.0725 122.584 96.1793 121.836C96.3289 121.025 96.0725 114.465 95.6024 106.303C94.9615 95.6205 94.9615 95.7915 95.7947 95.6419C101.948 94.4881 105.388 88.3775 106.905 75.9853C107.204 73.635 107.589 70.5583 107.781 69.1696C108.593 63.1871 106.456 61.6701 99.0637 63.0375Z" fill="black"/>
<path d="M47.6155 67.4405C41.3553 69.1284 40.1161 72.7819 44.4534 76.8414C48.8975 80.9651 53.2561 80.2386 54.3885 75.1749C55.7987 68.7865 53.2775 65.9235 47.6155 67.4405Z" fill="black"/>
<path d="M90.0046 73.3109C85.71 73.8236 84.2358 75.4475 84.7913 79.0156C86.0305 86.8141 95.7092 88.6088 96.7775 81.2376C97.6749 74.9133 95.7306 72.6272 90.0046 73.3109Z" fill="black"/>
<path d="M144.83 75.0226C141.561 76.0268 138.164 76.4328 135.771 76.0909C131.434 75.4499 130.537 75.5995 129.767 77.0096C127.075 81.9879 139.19 84.6373 147.351 80.8769C153.804 77.8856 151.667 72.9074 144.83 75.0226Z" fill="black"/>
<path d="M142.053 99.4894C141.177 99.639 139.446 99.7672 138.207 99.7885C133.998 99.8099 132.353 100.942 133.122 103.271C134.66 107.865 148.463 106.903 148.463 102.182C148.463 99.5535 146.454 98.7202 142.053 99.4894Z" fill="black"/>
<path d="M171.025 111.091C169.828 111.262 169.401 111.711 169.401 112.801C169.422 114.681 172.029 115.792 182.52 118.377C199.206 122.501 209.077 126.753 206.193 128.611C193.886 136.517 129.468 143.076 84.0443 141.046C44.026 139.273 5.0546 132.863 7.34075 128.419C8.57998 126.026 13.9428 122.672 21.3568 119.659C26.2709 117.651 26.8905 117.181 26.8905 115.343C26.8905 109.083 5.39646 117.971 1.50787 125.834C-1.86794 132.65 3.77265 137.051 20.0535 140.363C62.7211 149.016 118.849 150.405 168.76 144.016C205.573 139.294 219.547 132.607 211.983 123.355C207.197 117.501 180.789 109.596 171.025 111.091Z" fill="black"/>
<path d="M212.945 134.975C211.962 136.043 211.855 136.513 211.684 139.953C211.278 149.332 205.638 150.678 158.718 152.559C152.907 152.794 142.95 153.221 136.604 153.52C109.427 154.759 105.026 154.866 76.139 155.101C16.5709 155.571 9.02877 154.076 6.89218 141.384C6.05892 136.321 1.95666 137.09 2.02076 142.303C2.17032 153.563 10.2039 158.904 29.4546 160.55C38.941 161.383 94.7701 161.596 114.384 160.913C117.909 160.785 127.951 160.379 136.711 160.037C145.471 159.695 156.667 159.268 161.603 159.075C204.954 157.516 215.039 155.101 218.244 145.508C220.209 139.654 216.128 131.556 212.945 134.975Z" fill="black"/>
<path d="M161.026 163.671C157.009 164.376 141.925 184.204 133.272 200.164C113.167 237.234 112.846 268.813 132.204 301.054C141.946 317.271 155.257 329.898 158.847 326.33C160.129 325.048 158.825 322.377 154.915 318.275C132.289 294.537 122.632 267.809 126.905 240.695C130.238 219.629 143.634 192.259 161.24 170.658C165.171 165.808 165.086 162.988 161.026 163.671Z" fill="black"/>
<path d="M55.2222 167.003C54.0898 168.221 54.2821 169.268 56.3332 172.986C62.5934 184.352 68.0203 203.325 70.3492 222.042C74.1524 252.317 69.751 276.781 54.5598 309.92C49.2184 321.564 49.2184 321.607 49.3679 324.043C49.6457 328.38 53.4915 326.842 56.9742 321.03C67.9135 302.698 76.7804 274.025 78.3828 251.698C80.3271 224.691 72.3576 187.151 61.0978 170.294C58.4698 166.341 56.7392 165.38 55.2222 167.003Z" fill="black"/>
<path d="M95.1552 238.902C85.0705 239.5 83.7458 239.799 83.2971 241.423C82.4852 244.435 83.874 244.97 94.1937 245.803C109.278 247.042 112.483 246.615 113.103 243.303C113.872 239.243 109.043 238.047 95.1552 238.902Z" fill="black"/>
</svg>
