<svg width="52" height="82" viewBox="0 0 52 82" fill="none" xmlns="http://www.w3.org/2000/svg">
<path d="M37.0382 1.1582C34.8803 2.0342 30.4789 5.38865 28.7482 7.43977C28.1714 8.14485 28.1714 8.14485 26.7399 7.07655C17.5953 0.218102 7.2328 1.54279 9.81807 9.23451C11.741 14.9819 17.1252 19.3619 19.2191 16.8621C20.3301 15.5374 20.2019 14.6614 18.4926 12.0762C16.2706 8.72173 16.2492 8.67899 17.0825 8.84992C19.6677 9.40544 22.7872 11.1147 24.9238 13.1017C27.8081 15.8152 29.1756 15.7297 31.9959 12.6531C33.4915 11.0506 36.6964 8.10212 36.9527 8.10212C37.0168 8.10212 37.145 8.6149 37.2091 9.21314C37.5937 12.5676 39.0039 14.0632 43.0207 15.3665C45.9692 16.328 46.0546 16.4562 45.1572 18.4859C42.9566 23.4642 46.311 26.9255 49.345 22.8018C53.4258 17.2681 51.9943 12.4821 45.5418 10.2387C42.7002 9.23451 42.807 9.38407 43.1275 7.14065C43.8967 1.69235 41.5037 -0.679265 37.0382 1.1582Z" fill="black"/>
<path d="M14.7107 19.3199C14.5398 19.3626 13.6638 19.5122 12.7878 19.6404C1.10067 21.542 -2.44607 33.4855 2.23306 55.3214C7.23268 78.6957 21.0778 88.0753 31.9744 75.4481C37.3799 69.1879 35.3502 64.3165 29.7096 70.0212C19.9026 79.9349 11.2281 71.004 7.87365 47.5229C5.35248 29.9174 8.08731 25.046 20.2445 25.4733C33.5341 25.9433 41.1617 32.1608 41.2685 42.5874C41.3113 47.2879 40.2216 50.7491 36.8031 56.7102C32.2308 64.7438 37.0808 67.3077 42.2727 59.5946C51.4601 45.9204 48.3834 29.3832 35.4356 22.8453C30.1583 20.1959 19.5181 18.3798 14.7107 19.3199Z" fill="black"/>
<path d="M11.6558 34.2369C10.1602 35.647 10.5234 40.2193 12.2968 42.2918C14.1342 44.4284 16.5058 42.8046 16.4845 39.4074C16.4631 34.3864 14.1342 31.8866 11.6558 34.2369Z" fill="black"/>
<path d="M31.1194 34.7031C29.4528 35.6218 28.6409 40.3009 29.9443 41.5829C31.9954 43.6554 35.4567 40.0232 34.9011 36.391C34.6661 34.7031 32.7218 33.8484 31.1194 34.7031Z" fill="black"/>
<path d="M24.2614 47.3766C23.0862 48.5944 22.9794 51.5002 24.0263 52.7608C25.8211 54.8974 28.8764 51.9061 28.2782 48.6372C27.9363 46.7997 25.5433 46.0519 24.2614 47.3766Z" fill="black"/>
<path d="M15.1599 51.6041C13.4079 53.0784 14.3266 58.3771 16.5059 59.2745C18.8134 60.236 20.1381 57.8002 19.4117 53.8903C18.9203 51.2836 16.8478 50.1726 15.1599 51.6041Z" fill="black"/>
<path d="M25.2228 61.1983C23.4922 61.9462 22.6162 66.5185 24.005 67.6295C25.6288 68.9328 27.5731 67.8218 28.4704 65.0869C29.4533 62.1384 27.744 60.1087 25.2228 61.1983Z" fill="black"/>
</svg>
