<svg width="255" height="303" viewBox="0 0 255 303" fill="none" xmlns="http://www.w3.org/2000/svg">
<path d="M79.1059 0.677066C72.6962 2.79229 67.8461 15.2272 73.4013 15.2272C74.8969 15.2272 75.431 14.6931 76.072 12.5779C76.6489 10.6763 77.7385 8.94567 79.17 7.64235C80.5161 6.38176 80.5375 6.65952 79.3623 10.8045C77.824 16.146 77.589 18.6244 78.3368 20.8251C78.5291 21.3379 78.5077 21.3806 78.294 21.0388C74.4695 15.2272 68.5512 13.4325 65.0045 16.9792C60.3681 21.6156 65.795 29.8415 73.0594 29.1578C75.7088 28.9228 75.5378 36.6359 72.6962 45.695C68.8503 57.9163 68.5085 64.0483 71.6492 64.8388C73.4654 65.2875 74.5977 64.1338 74.8328 61.5699C75.0678 59.0914 76.0506 55.3524 77.9522 49.6904C80.687 41.4859 81.1998 39.0075 81.1784 33.7301C81.1571 29.3287 80.6657 26.6794 79.1059 22.7267C79.0205 22.4916 79.2341 22.6839 79.576 23.154C80.4734 24.3718 82.0544 25.7179 83.7851 26.7435C85.2593 27.6195 85.2593 27.6195 84.6397 28.0681C80.0888 31.2944 83.7637 35.9308 88.6138 33.0464C93.7416 29.9911 93.1861 25.3333 87.1823 21.3165C83.8064 19.0517 83.6569 18.3467 85.2166 12.471C87.5668 3.75375 84.9602 -1.24586 79.1059 0.677066ZM70.8801 21.8934C71.2433 22.2139 71.4997 22.513 71.4356 22.5557C71.3074 22.6839 70.1536 22.0643 69.8331 21.6797C69.3417 21.1029 70.1109 21.2524 70.8801 21.8934Z" fill="black"/>
<path d="M56.4356 6.78403C52.547 7.78822 51.5 11.1213 53.5512 15.9286C54.3844 17.8516 54.4058 17.5952 53.1238 19.0908C46.1586 27.2098 49.4275 36.8672 58.8499 36.0126C60.1532 35.8844 60.1532 35.8844 60.0464 37.4654C59.2772 47.6142 71.413 48.6612 73.9769 38.6619C75.0452 34.517 71.2421 32.7649 69.4046 36.5681C68.9132 37.5509 67.2253 39.2815 66.7125 39.2815C66.3493 39.2815 66.2211 38.2987 66.4134 36.7817C67.1185 31.2266 65.5374 28.8977 61.3711 29.325C57.0338 29.7737 56.9056 29.7737 56.1364 29.09C54.7049 27.8081 55.2177 25.8851 57.7602 23.0435C60.6446 19.8172 61.0506 17.296 59.3199 13.4502C58.9781 12.7024 58.7431 12.04 58.8072 11.9759C59.0636 11.7195 61.542 12.3819 63.1017 13.1297C66.3066 14.6467 68.2082 14.0698 68.1868 11.5914C68.1227 8.45056 61.0933 5.56617 56.4356 6.78403Z" fill="black"/>
<path d="M102.075 18.5814C96.904 19.1583 94.3615 25.1407 97.7587 28.837C100.216 31.5078 103.485 29.1361 101.669 25.974C101.327 25.3757 101.348 25.3544 102.032 24.7348C103.015 23.8588 103.421 23.9442 105.579 25.4398C106.647 26.1663 108.42 27.1491 109.531 27.6405C111.582 28.5165 111.582 28.5165 111.796 29.7344C112.416 33.1743 116.304 32.8965 117.031 29.3498C117.672 26.2517 116.497 24.5425 112.373 22.5768C110.92 21.8931 109.125 20.9103 108.42 20.3975C105.985 18.6882 104.638 18.3036 102.075 18.5814Z" fill="black"/>
<path d="M24.6219 29.4384C18.3616 30.5067 19.6222 40.3991 26.9507 47.5994C28.3395 48.9668 28.3395 48.9668 27.8267 49.3728C24.6646 51.8512 26.4166 57.2354 30.5616 57.7909C32.5272 58.0687 35.8817 56.2526 36.3731 54.6501C36.4586 54.4151 36.6295 54.2656 36.7577 54.3296C40.0908 55.8253 43.3811 57.1286 47.8038 58.731C56.8416 62 60.367 63.6665 63.2941 66.0168C65.7726 68.0252 67.6955 67.9397 68.2937 65.8245C69.2125 62.6837 62.2258 56.9363 53.4017 53.5818C52.8676 53.3682 52.8676 53.3682 53.3162 52.8981C55.111 50.9966 54.8973 47.578 52.8889 46.1251C50.56 44.4372 47.3765 45.7406 45.7314 49.0736C45.0904 50.377 45.3468 50.377 42.1419 48.9668C36.7363 46.5738 32.399 43.6894 29.9633 40.8264C29.1728 39.929 29.1728 39.929 30.2411 38.7753C33.7451 34.9294 29.8992 28.541 24.6219 29.4384Z" fill="black"/>
<path d="M42.3348 30.5477C39.0231 31.5092 37.5489 34.8209 38.724 38.6454C39.0231 39.6496 39.365 41.3161 39.4932 42.3844C39.8564 45.6748 40.2623 46.508 41.6938 46.8499C44.3646 47.4909 45.6679 43.645 44.3859 38.8377C43.5527 35.761 43.5527 35.7824 44.6423 35.2482C48.5737 33.3467 46.5653 29.3085 42.3348 30.5477Z" fill="black"/>
<path d="M121.473 30.5439C115.961 31.1421 115.662 36.1204 121.132 36.1631C126.131 36.2272 126.494 36.6759 123.61 39.3039C119.85 42.7652 119.016 44.3035 118.461 48.8331C117.927 53.1063 116.858 54.0891 113.376 53.5977C110.876 53.2345 109.658 53.4908 107.821 54.7728C106.496 55.6915 106.496 55.6915 105.812 55.1788C104.252 53.9823 101.881 54.8155 101.539 56.653C100.684 61.2039 105.513 63.5114 110.085 60.7339C111.367 59.9647 111.367 59.9647 112.927 60.3066C119.593 61.7594 124.55 57.3581 125.041 49.5382C125.234 46.4615 125.234 46.4615 128.439 43.2993C135.447 36.2913 131.708 29.4329 121.473 30.5439Z" fill="black"/>
<path d="M105.086 31.6983C98.8897 33.4503 96.0053 41.0779 99.3384 46.9962C99.5948 47.4449 99.7657 47.8509 99.7016 47.8936C99.6589 47.9363 97.6932 48.9619 95.3643 50.1584C82.2457 56.91 71.6695 67.3793 73.507 71.8234C74.5326 74.2377 76.6905 73.3404 79.9168 69.1527C84.1045 63.7044 88.8691 60.2858 99.6802 54.9657C109.936 49.9447 112.628 47.6158 114.124 42.5094C116.025 36.0569 110.983 30.0531 105.086 31.6983ZM107.842 38.7276C108.355 40.2873 106.475 44.411 105.257 44.411C104.958 44.411 104.381 42.5521 104.359 41.5266C104.359 38.8986 107.158 36.6551 107.842 38.7276Z" fill="black"/>
<path d="M91.6466 33.2778C88.399 34.1111 87.1384 37.6792 88.869 41.0978C89.275 41.9097 89.745 43.1062 89.8732 43.7258C90.1937 45.2427 90.7706 46.3324 91.6893 47.1443C94.6165 49.7082 98.27 46.952 96.1762 43.7685C95.8771 43.3198 95.4925 42.3797 95.3215 41.6533C95.172 40.9268 94.766 39.8585 94.4669 39.2389C93.9114 38.1493 93.9755 37.8074 94.766 37.786C96.4112 37.7647 97.0308 34.5598 95.5566 33.5983C94.9797 33.2351 92.6294 33.0215 91.6466 33.2778Z" fill="black"/>
<path d="M142.07 54.6871C139.848 55.7981 138.694 58.2979 139.399 60.4559C139.762 61.5669 139.783 61.7165 139.484 61.8446C138.779 62.1438 132.818 62.1865 128.716 61.9301C121.9 61.5242 120.105 61.8874 119.742 63.7676C119.4 65.6264 120.469 66.5665 123.268 66.8656C124.357 66.9725 126.985 67.3143 129.101 67.6348C139.805 69.2372 146.022 67.6348 148.479 62.6138C151.022 57.4646 146.856 52.3155 142.07 54.6871Z" fill="black"/>
<path d="M11.4183 59.7947C0.778063 61.5895 -0.50389 70.2854 8.79027 77.4429C9.62354 78.0839 9.62354 78.0839 9.15349 79.3231C7.2092 84.5364 11.3328 88.6387 18.5331 88.6387C27.1436 88.6173 28.9383 82.4639 20.4988 81.8016C15.4778 81.3956 15.6487 81.4811 16.1188 79.5795C16.8025 76.802 16.0333 75.2636 12.572 72.4006C8.19203 68.7684 7.87154 67.7215 10.82 66.6104C16.0974 64.602 26.8658 67.5719 33.2115 72.7638C36.0104 75.0713 39.3008 72.9988 37.6983 69.9435C34.643 64.0252 19.9433 58.3632 11.4183 59.7947Z" fill="black"/>
<path d="M92.3305 64.0421C86.1985 67.0333 78.0153 75.7506 78.7204 78.5495C79.4041 81.3484 81.4552 81.092 84.8524 77.8017C88.2282 74.5114 91.7536 71.7124 95.279 69.5331C101.09 65.9436 98.4838 61.0508 92.3305 64.0421Z" fill="black"/>
<path d="M52.4628 64.003C52.5913 64.0459 52.8483 64.0459 52.9982 64.003C53.1267 63.9388 53.0196 63.8959 52.7198 63.8959C52.42 63.8959 52.3129 63.9388 52.4628 64.003Z" fill="black"/>
<path d="M48.6799 65.3694C44.535 66.0531 42.8898 70.0912 44.6204 75.2404C46.6715 81.3297 49.791 84.0645 52.0557 81.7784C53.2736 80.5605 53.1454 79.1717 51.4148 75.2618C49.62 71.2023 49.791 70.8818 52.8676 72.2919C61.1149 76.0523 66.2 83.8936 69.4903 97.931C70.7295 103.272 71.3278 104.02 73.6353 103.379C77.4598 102.311 74.2335 86.2011 68.4861 77.612C63.401 69.9844 54.3846 64.4293 48.6799 65.3694Z" fill="black"/>
<path d="M111.581 67.6399C105.363 68.5159 96.3895 73.4728 87.1167 81.1646C76.9465 89.6041 73.0152 95.6934 77.6943 95.6934C79.2113 95.6934 79.66 95.4156 83.2281 92.2962C93.5692 83.2584 98.5688 79.7971 99.808 80.8654C106.389 86.5274 119.358 85.7155 122.435 79.4553C125.746 72.6609 120.042 66.4648 111.581 67.6399ZM116.58 74.4129C119.764 77.4683 113.076 79.4126 107.478 77.0837C105.555 76.2718 105.555 76.2504 107.436 75.4171C111.602 73.5583 115.277 73.1523 116.58 74.4129Z" fill="black"/>
<path d="M127.413 78.7889C126.259 79.9854 126.687 81.9725 128.546 84.0236C129.956 85.5833 129.998 85.4765 127.349 86.502C121.367 88.7882 120.491 91.9931 124.614 96.544C126.366 98.5097 126.473 98.4456 121.324 97.9114C110.684 96.8004 106.197 98.1037 109.209 101.415C109.936 102.227 110.214 102.313 114.294 102.74C116.452 102.954 119.743 103.402 121.623 103.702C127.071 104.599 129.913 104.407 131.537 103.039C134.186 100.817 133.716 97.4414 130.233 93.6596C129.4 92.7622 128.759 92.0144 128.802 91.9717C128.845 91.9503 129.464 91.6939 130.169 91.4162C134.485 89.7496 135.895 88.254 135.917 85.4124C135.938 81.0324 129.827 76.2678 127.413 78.7889Z" fill="black"/>
<path d="M39.9202 83.1877C31.4166 85.5593 28.639 95.8149 34.9633 101.52C39.2792 105.387 44.2361 104.981 49.0221 100.323C50.7741 98.6139 50.7741 98.6139 52.2483 99.383C63.0808 105.088 68.7001 91.9691 58.359 85.1106C53.5517 81.9057 51.0305 86.1362 55.1541 90.5376C58.4658 94.0629 58.359 95.6654 54.9191 93.8279C52.1415 92.3323 51.9492 92.2682 50.475 92.2682C48.5307 92.2682 47.847 92.61 45.6036 94.7894C42.7833 97.5242 41.5013 97.9943 39.8989 96.9046C36.0316 94.298 39.2579 88.5719 44.9198 87.995C47.1846 87.76 47.8256 87.2472 47.8683 85.7302C47.9324 83.4227 43.8302 82.098 39.9202 83.1877Z" fill="black"/>
<path d="M99.4035 84.5369C97.6301 85.1565 97.0105 87.0795 98.1429 88.4042C98.7198 89.0879 99.489 89.3656 101.497 89.6006C103.078 89.7929 103.057 89.8357 100.771 91.0963C97.4806 92.891 96.0918 94.7712 96.0918 97.3992C96.0918 98.147 95.9636 98.7025 95.6858 99.0871C93.3569 102.356 97.737 105.86 101.668 103.852C103.762 102.805 104.553 100.754 103.976 97.9547C103.912 97.6342 104.339 97.271 105.92 96.3095C112.202 92.5064 113.355 88.0623 108.698 85.6907C106.732 84.7079 100.92 83.9814 99.4035 84.5369Z" fill="black"/>
<path d="M88.2498 92.9326C81.5196 94.0222 75.003 100.261 78.2079 102.547C79.4471 103.423 80.4513 103.252 82.417 101.757C83.9126 100.624 86.3055 99.3423 88.7199 98.3595C94.1468 96.1374 93.7836 92.0352 88.2498 92.9326Z" fill="black"/>
<path d="M207.279 99.7271C204.48 101.33 199.673 107.91 198.07 112.29C195.934 118.145 197.622 125.644 201.168 125.986C203.561 126.199 204.48 124.512 203.561 121.584C202.429 117.995 203.54 114.021 206.916 109.555C208.518 107.419 208.54 107.397 208.839 107.889C208.988 108.167 209.95 109.79 210.954 111.5C213.668 116.136 214.244 118.294 213.39 120.687C211.702 125.494 216.509 126.819 218.646 122.14C220.27 118.55 219.394 114.299 215.868 108.508C214.138 105.688 213.497 104.342 212.941 102.462C212.022 99.3212 209.843 98.2529 207.279 99.7271Z" fill="black"/>
<path d="M86.3484 101.246C85.0664 101.759 84.6178 103.511 85.4083 104.814C85.8997 105.647 85.9852 105.605 82.9512 105.968C75.815 106.758 63.4228 106.438 63.5296 105.455C63.786 103.19 61.1794 102.357 59.0001 104.002C56.1584 106.139 56.3293 108.852 59.3846 110.412C60.8162 111.117 60.8162 111.117 60.1752 111.651C59.3419 112.356 59.2992 113.809 60.0897 115.348C62.5468 120.219 62.9741 122.548 61.4144 122.719C45.8387 124.428 40.4758 143.465 53.7654 149.832C55.2397 150.537 55.2397 150.537 54.9192 151.264C50.6033 161.135 52.5048 168.057 60.5598 171.882C61.4785 172.309 61.6922 172.501 61.5853 172.779C58.3591 180.727 62.269 183.996 75.0458 184.017C88.3995 184.039 94.7238 180.407 93.2068 173.57C93.0145 172.672 92.8864 171.924 92.9291 171.903C101.668 167.117 102.522 159.532 96.1553 143.465C91.6044 131.97 90.6643 126.885 91.6899 119.087C92.6513 111.737 87.7158 110.989 86.0279 118.232C84.34 125.603 85.7715 133.295 91.1771 145.901C95.7494 156.541 96.2622 160.365 93.506 163.848C87.9081 170.92 62.8886 170.001 59.1923 162.588C58.06 160.323 58.7864 157.545 62.9314 148.465C68.9138 135.282 69.9821 130.603 68.6361 123.509C67.931 119.813 65.8585 114.728 64.1492 112.484C63.3801 111.48 63.3801 111.48 65.5807 111.651C79.5754 112.741 92.2881 110.946 93.976 107.634C95.5998 104.43 90.0447 99.7504 86.3484 101.246ZM63.1878 129.299C63.1878 129.876 62.8245 131.97 62.5468 133.081C62.3545 133.808 62.3331 133.829 61.2221 133.829C56.4575 133.872 53.8295 140.602 57.2908 143.871C59.2351 145.687 56.7994 145.132 54.7482 143.273C49.6204 138.679 53.509 130.56 61.5853 129.064C63.1664 128.765 63.1878 128.765 63.1878 129.299ZM70.7299 174.638C75.2168 175.215 82.4384 175.022 86.4125 174.189C87.3312 173.997 87.8654 175.45 87.1176 176.069C84.5537 178.185 71.0931 178.975 66.9909 177.244C66.1149 176.881 66.0508 176.646 66.414 175.279C66.7772 173.847 66.7345 173.911 67.5037 174.104C67.8883 174.211 69.3411 174.446 70.7299 174.638Z" fill="black"/>
<path d="M47.6974 103.611C42.7191 104.829 37.7409 108.162 31.3311 114.529C25.5623 120.276 25.3273 120.362 23.5539 117.67C20.0072 112.285 16.3963 110.833 13.6829 113.674C9.98657 117.52 14.1743 125.468 20.7977 127.177C25.7973 128.481 29.6859 126.494 35.6897 119.571C40.9244 113.503 46.9282 109.166 51.7141 107.948C53.5302 107.499 54.214 106.794 54.214 105.406C54.214 103.226 51.8851 102.585 47.6974 103.611Z" fill="black"/>
<path d="M206.979 120.537C205.74 121.157 205.419 122.076 205.548 124.618C205.676 126.947 205.676 126.947 204.843 127.93C203.817 129.148 202.813 131.178 202.386 132.801C200.954 138.463 200.869 153.249 202.193 164.167C202.535 166.944 202.535 166.944 201.787 168.354C200.783 170.277 200.463 171.837 200.74 173.653C200.911 174.935 200.89 175.085 200.527 175.341C192.044 181.302 189.075 185.468 191.19 188.438C193.668 191.942 215.568 192.84 221.743 189.677C226.7 187.156 226.016 180.789 220.461 177.948C215.761 175.555 213.645 179.294 217.683 182.84C218.389 183.46 218.944 184.037 218.944 184.122C218.944 185.169 206.488 185.96 200.057 185.34C198.155 185.169 198.155 185.169 200.676 182.669C202.065 181.302 203.326 179.977 203.497 179.721C203.796 179.272 203.796 179.272 205.014 179.828C212.128 183.118 219.307 174.144 214.885 167.457C214.286 166.517 214.286 166.517 214.479 162.244C215.44 142.502 214.564 130.109 212.043 127.374C211.188 126.434 211.124 126.306 210.889 124.383C210.483 121.178 208.881 119.597 206.979 120.537ZM208.923 136.07C209.479 141.796 208.945 164.273 208.24 164.273C207.065 164.273 206.936 138.357 208.09 133.763C208.432 132.417 208.603 132.93 208.923 136.07ZM210.056 170.705C211.017 171.837 210.675 173.589 209.329 174.401C207.535 175.448 205.59 173.632 206.424 171.687C207.086 170.064 209.073 169.529 210.056 170.705Z" fill="black"/>
<path d="M137.434 153.722C118.12 154.918 103.783 157.461 102.608 159.918C101.112 163.059 103.078 163.892 109.167 162.695C133.589 157.845 154.399 158.038 188.478 163.443C195.507 164.554 198.263 164.533 198.819 163.336C200.058 160.773 198.199 159.726 189.482 158.08C172.496 154.918 149.421 152.995 137.434 153.722Z" fill="black"/>
<path d="M126.537 161.496C117.478 162.18 112.671 167.158 109.979 178.674C108.163 186.323 110.748 188.823 122.926 191.216C125.298 191.686 125.298 191.686 125.426 192.925C126.174 201.237 137.797 201.942 141.921 193.908C142.54 192.69 142.583 192.669 143.31 192.776C150.168 193.908 158.287 193.225 163.052 191.109C168.414 188.738 175.7 180.405 177.367 174.722C177.602 173.91 177.602 173.91 179.29 174.679C181.982 175.897 183.541 175.833 184.225 174.508C185.486 172.094 183.477 170.406 175.572 167.286C162.112 161.966 152.54 160.428 147.647 162.8C146.899 163.163 146.215 163.398 146.13 163.334C144.613 162.415 131.216 161.154 126.537 161.496ZM138.908 167.372C140.682 167.564 142.284 167.799 142.476 167.885C142.861 168.013 141.365 170.213 135.703 177.777C133.033 181.366 131.622 183.674 131.451 184.828C131.152 186.729 133.097 188.161 134.806 187.263C135.383 186.964 135.383 186.964 134.955 187.627C133.951 189.293 135.148 191.622 137.007 191.622C137.818 191.622 136.131 193.566 134.699 194.293C132.968 195.147 131.836 194.784 130.81 193.032C130.148 191.9 130.148 191.836 130.875 191.836C132.648 191.836 133.951 189.721 133.054 188.246C132.541 187.413 131.345 187.05 127.606 186.622C123.033 186.088 116.901 184.593 115.512 183.653C113.205 182.093 116.837 171.666 120.683 168.846C123.418 166.838 129.742 166.325 138.908 167.372ZM159.761 167.479C162.795 168.12 170.466 170.641 172.175 171.56C174.012 172.542 166.919 182.563 162.112 185.746C157.496 188.823 149.335 189.357 139.72 187.221C137.092 186.644 136.259 186.558 135.831 186.815C135.361 187.114 135.789 186.516 137.669 184.358C140.596 180.939 143.929 176.559 146.878 172.179C149.677 168.013 150.125 167.543 151.322 167.244C152.732 166.902 157.667 167.051 159.761 167.479Z" fill="black"/>
<path d="M124.401 169.275C121.452 170.001 120.384 173.014 122.756 173.911C123.696 174.274 131.986 174.317 132.669 173.975C137.135 171.71 130.298 167.822 124.401 169.275Z" fill="black"/>
<path d="M123.226 177.005C123.055 177.027 122.435 177.134 121.837 177.198C119.487 177.518 118.418 180.403 120.277 181.385C121.581 182.091 127.371 181.941 129.101 181.172C133.353 179.292 128.524 175.852 123.226 177.005Z" fill="black"/>
<path d="M151.279 171.475C149.634 173.206 150.788 174.937 153.928 175.364C154.933 175.513 156.492 175.855 157.39 176.112C161.065 177.244 162.496 176.838 162.582 174.637C162.688 171.945 153.287 169.317 151.279 171.475Z" fill="black"/>
<path d="M144.058 179.32C142.071 181.435 143.438 183.038 147.69 183.615C149.1 183.807 151.216 184.192 152.391 184.448C156.536 185.409 157.497 185.324 158.181 183.871C159.185 181.756 157.348 180.474 151.536 179.235C147.498 178.359 144.934 178.38 144.058 179.32Z" fill="black"/>
<path d="M220.654 167.178C220.034 167.306 219.713 167.712 219.478 168.716C219.201 170.062 221.871 171.835 226.102 173.139C241.549 177.882 250.587 185.723 245.609 190.018C238.28 196.342 213.774 199.547 159.974 201.235C152.518 201.47 141.13 201.854 134.656 202.089C97.7783 203.414 82.8436 203.2 51.2221 200.807C24.7711 198.799 8.31936 195.808 7.89204 192.902C7.48609 190.21 25.3266 180.211 41.0733 174.314C45.1114 172.797 45.6669 172.348 45.6669 170.617C45.6669 167.434 40.7528 168.118 28.4674 172.968C9.43039 180.51 -0.141534 187.838 1.01222 193.992C2.48647 201.705 15.2205 204.952 55.3884 207.858C82.5017 209.802 99.274 209.995 134.335 208.713C140.617 208.478 151.877 208.093 159.333 207.858C209.565 206.277 232.448 203.585 244.883 197.838C257.211 192.133 256.1 181.45 242.319 173.331C235.845 169.528 224.884 166.408 220.654 167.178Z" fill="black"/>
<path d="M43.8086 177.951C42.0352 178.57 27.9978 185.471 26.3526 186.497C24.0024 187.993 24.4297 190.813 27.015 190.834C27.8483 190.834 28.5961 190.578 31.0318 189.424C32.6769 188.655 35.6041 187.287 37.5484 186.39C39.4927 185.471 42.1848 184.232 43.5308 183.591C46.8639 182.031 47.1203 182.053 53.2096 184.467C53.9787 184.788 52.2267 186.219 46.6716 189.873C42.5266 192.586 41.9497 192.714 38.2534 191.518C33.788 190.086 30.9463 192.458 34.0444 195.022C37.9971 198.27 44.0009 197.693 50.3465 193.462C62.9951 185.001 63.4011 182.651 52.9318 178.912C48.68 177.374 46.1375 177.117 43.8086 177.951Z" fill="black"/>
<path d="M176.961 183.697C176.213 184.018 175.636 184.851 174.525 187.18C171.342 193.846 167.646 195.128 151.493 195.15C141.131 195.15 141.408 195.107 140.981 197.03C140.596 198.675 141.771 199.615 144.421 199.829C165.274 201.474 174.76 198.803 179.183 190C181.213 185.941 179.974 182.415 176.961 183.697Z" fill="black"/>
<path d="M79.7257 185.234C76.6918 185.512 75.6449 186.324 76.0722 188.054C76.3927 189.315 79.0634 189.828 86.1569 190.02C93.5922 190.212 93.1862 189.977 91.1138 192.755C89.2549 195.212 88.849 195.297 82.311 194.635C80.0676 194.4 76.6918 194.101 74.7902 193.951C71.3289 193.695 71.3289 193.695 72.3759 192.541C74.1706 190.576 73.6578 188.204 71.4358 188.204C69.406 188.204 64.1927 193.353 64.1927 195.362C64.1714 197.776 65.0901 198.096 73.2305 198.673C75.0466 198.801 78.2301 199.122 80.2813 199.357C90.2378 200.553 92.2889 199.977 95.5365 195.062C99.3396 189.358 99.126 186.537 94.8101 185.661C92.3316 185.149 83.1443 184.892 79.7257 185.234Z" fill="black"/>
<path d="M106.732 188.31C104.83 189.357 105.087 193.972 107.159 196.173C110.941 200.19 125.363 199.912 125.363 195.831C125.363 194.036 124.807 193.887 117.992 193.865C111.112 193.865 110.621 193.652 110.3 190.725C110.129 189.25 109.616 188.502 108.527 188.203C107.522 187.926 107.437 187.947 106.732 188.31Z" fill="black"/>
<path d="M247.362 197.818C245.631 198.224 244.84 199.997 244.263 204.869C243.217 213.33 242.682 213.501 206.446 217.133C189.759 218.821 181.106 219.312 158.052 219.932C144.421 220.295 139.784 220.466 124.615 221.214C100.407 222.389 92.9716 222.603 75.473 222.603C15.8194 222.581 9.15325 220.893 6.05519 205.061C4.94417 199.442 0.371865 200.574 0.906012 206.343C2.12387 219.761 12.9991 227.73 30.0491 227.73C32.3993 227.73 32.1857 227.111 32.6344 234.674C34.9846 274.308 32.6557 290.632 24.1307 294.67C18.2765 297.447 11.7172 292.448 12.1658 285.546C12.3154 283.132 12.6573 282.726 13.811 283.517C18.1269 286.401 21.3104 281.957 17.55 278.261C9.83695 270.676 1.93157 283.431 7.6149 294.328C13.9178 306.4 29.3226 305.459 35.7538 292.619C39.7065 284.756 42.5695 260.57 40.6038 251.575C40.497 250.998 40.5184 250.955 40.9884 251.105C48.5306 253.284 56.8633 254.352 70.452 254.865C75.1525 255.036 112.5 254.972 117.991 254.758C119.529 254.694 123.696 254.609 127.285 254.545C163.18 253.904 197.494 250.079 212.386 245.058C214.159 244.46 214.159 244.46 214.415 250.677C215.505 277.043 219.735 286.85 231.764 290.845C243.452 294.712 254.263 287.448 254.797 275.355C255.31 263.027 241.037 261.275 239.349 273.475C238.687 278.09 243.345 279.393 245.374 275.163C247.404 270.889 248.964 272.15 247.896 277.192C245.524 288.431 229.948 288.409 224.607 277.171C220.846 269.223 219.607 249.417 221.637 229.44C222.385 222.068 222.235 222.645 223.304 222.517C223.774 222.453 226.402 222.154 229.094 221.855C246.122 219.932 251.4 216.107 251.784 205.403C251.998 199.549 250.545 197.07 247.362 197.818ZM216.082 226.47C215.783 228.286 215.42 230.764 215.27 231.982C215.014 234.183 215.014 234.183 213.518 234.055C206.83 233.456 182.217 231.79 180.144 231.79C179.397 231.79 179.397 231.833 179.076 227.495C178.948 225.679 178.948 225.679 184.567 225.423C191.917 225.081 198.605 224.632 208.476 223.799C212.877 223.414 216.509 223.137 216.552 223.158C216.595 223.179 216.381 224.675 216.082 226.47ZM173.542 228.521C173.457 230.038 173.371 231.298 173.329 231.32C173.286 231.363 169.996 231.298 166.022 231.17C156.984 230.871 124.615 230.871 117.03 231.149C103.163 231.683 87.6729 232.858 81.3272 233.841C80.558 233.969 80.558 233.969 80.3017 232.196C80.1521 231.213 79.9812 230.059 79.9171 229.632C79.8102 228.841 79.8102 228.841 85.3226 228.713C98.5481 228.414 108.206 228.115 114.38 227.837C126.623 227.26 140.062 226.683 143.523 226.555C144.912 226.512 160.531 226.107 167.56 225.957C168.863 225.914 170.765 225.871 171.812 225.85C173.713 225.807 173.713 225.807 173.542 228.521ZM51.3295 228.564C57.6752 228.692 65.431 228.799 68.5931 228.799C74.2978 228.799 74.2978 228.799 74.2978 231.833C74.2978 234.888 74.2978 234.888 68.5718 235.999C59.6836 237.751 48.8511 240.55 42.2704 242.793C41.0312 243.199 40.0056 243.541 39.9842 243.541C39.9415 243.541 39.856 242.986 39.7919 242.302C39.3005 238.007 38.1895 230.999 37.6553 228.649C37.5485 228.2 37.6126 228.179 38.6595 228.264C39.2791 228.307 44.9838 228.457 51.3295 228.564ZM164.248 236.49C168.543 236.619 172.367 236.768 172.73 236.832C173.5 236.939 173.457 236.854 173.82 239.332C174.568 244.353 179.268 244.033 179.589 238.947C179.696 237.11 179.696 237.11 181.64 237.238C182.708 237.302 186.576 237.559 190.208 237.772C201.126 238.456 209.416 239.076 209.843 239.247C210.869 239.631 200.271 242.216 191.81 243.648C167.282 247.75 134.55 249.438 83.592 249.203C65.5806 249.118 57.782 248.754 49.1075 247.601C45.4966 247.109 45.4966 247.109 47.0991 246.682C65.3028 241.917 74.7252 239.994 74.7252 241.063C74.7465 243.776 76.178 245.763 78.1651 245.763C80.2376 245.763 81.1349 244.46 81.1349 241.426C81.1349 239.161 80.6435 239.439 85.5149 238.862C93.9117 237.858 107.436 236.875 119.166 236.426C123.568 236.255 157.454 236.298 164.248 236.49Z" fill="black"/>
<path d="M174.226 254.306C171.555 256.977 173.756 271.334 177.772 277.338C184.652 287.594 198.69 284.795 202.514 272.381C205.42 262.98 196.403 256.677 189.652 263.386C185.058 267.959 188.178 273.3 192.985 269.112C195.997 266.463 197.151 267.809 195.292 271.783C190.998 280.842 182.772 276.804 179.952 264.262C179.482 262.19 179.311 261.186 178.563 256.507C178.093 253.665 175.956 252.575 174.226 254.306Z" fill="black"/>
<path d="M80.3439 256.387C79.9806 256.493 79.4465 256.878 79.1901 257.241C78.656 258.01 78.656 257.818 78.3568 267.262C78.0577 276.748 77.1817 280.338 74.8315 281.791C72.2248 283.414 67.6739 278.885 67.6739 274.676C67.6739 269.826 62.6529 269.249 61.0718 273.907C58.6575 281.107 67.7807 290.551 75.2588 288.542C81.1344 286.982 83.9333 281.47 84.2752 270.894C84.5529 261.942 83.6769 256.365 81.989 256.365C81.7754 256.365 81.4763 256.322 81.3053 256.28C81.1558 256.237 80.7284 256.28 80.3439 256.387Z" fill="black"/>
</svg>
