<svg width="67" height="66" viewBox="0 0 67 66" fill="none" xmlns="http://www.w3.org/2000/svg">
<path d="M30.0975 0.59892C23.0254 1.15443 15.6969 3.59014 10.3768 7.20098C-9.53621 20.6401 4.7362 54.441 27.0636 46.7279C35.1826 43.9289 39.0285 40.66 36.9987 38.3311C36.1013 37.3055 34.9476 37.4551 29.3283 39.3994C19.9487 42.6256 15.7824 41.9846 11.3383 36.6432C4.54391 28.4814 5.97542 17.2429 14.5004 11.6451C27.8327 2.9278 43.558 4.76527 55.9075 16.4951C62.3814 22.6699 62.2532 24.1441 54.8606 29.0583C47.9808 33.6306 47.8312 34.8057 52.6385 46.1083C56.8262 55.9579 56.8262 55.8511 52.0403 58.3296C50.3096 59.2483 50.3524 59.2697 46.186 54.0564C42.3829 49.2704 41.165 48.2662 39.0925 48.1808C34.8407 48.0098 37.5542 54.8469 44.669 62.2609C48.579 66.3418 52.2326 66.3418 57.339 62.2822C63.1505 57.6886 63.0651 55.9152 56.2707 39.4421C54.7751 35.8099 54.476 36.4295 59.6038 32.8614C68.0647 27.0072 68.5775 21.4093 61.3985 13.6748C52.9804 4.63707 41.2291 -0.277082 30.0975 0.59892Z" fill="black"/>
<path d="M40.2892 15.2136C38.2594 17.2433 39.5841 22.0293 42.1694 22.0293C44.1137 22.0293 45.0751 20.1918 44.6264 17.3288C44.1778 14.5512 41.9984 13.4829 40.2892 15.2136Z" fill="black"/>
<path d="M27.2557 16.7948C26.7216 17.3503 26.5507 17.9913 26.6361 19.2091C26.7857 21.303 30.8666 22.7345 32.234 21.1748C34.3706 18.6963 29.5419 14.4232 27.2557 16.7948Z" fill="black"/>
<path d="M20.1181 23.8671C18.4089 25.2986 19.2421 27.4139 21.8701 28.3967C24.8827 29.5291 27.2544 28.6104 26.7629 26.4738C26.2715 24.444 21.6138 22.6279 20.1181 23.8671Z" fill="black"/>
</svg>
