<svg width="174" height="148" viewBox="0 0 174 148" fill="none" xmlns="http://www.w3.org/2000/svg">
<path d="M73.8058 0.667118C65.6868 1.64995 67.5883 6.22225 76.2629 6.60684C77.8012 6.6923 80.0447 6.79913 81.2839 6.86323C97.757 7.6965 111.752 11.3073 108.739 13.914C99.6372 21.798 46.2652 28.9769 22.4636 25.5156C16.7375 24.7037 11.9729 23.0799 10.456 21.4775C6.75966 17.5462 44.4491 6.15815 61.3068 6.09405C64.063 6.07269 65.5159 4.61981 64.7467 2.65415C63.3152 -0.892592 34.4712 3.18829 17.5067 9.34167C-5.5471 17.6957 1.16179 30.9426 29.2579 32.545C54.256 33.9552 91.7318 29.1265 106.645 22.5672C119.272 17.012 119.251 8.40157 106.602 4.27795C98.633 1.67131 81.2625 -0.230249 73.8058 0.667118Z" fill="black"/>
<path d="M113.93 22.4398C112.071 23.4653 111.793 27.6103 112.434 45.5577C113.716 81.0892 110.896 105.959 105.02 111.001C94.9143 119.697 41.4996 120.424 23.5522 112.112C10.2627 105.959 7.86968 96.1735 8.04061 48.8267C8.12607 29.0632 8.25427 30.0033 5.22031 30.0247C2.52821 30.046 2.46411 30.2597 1.60948 43.4852C-1.68087 93.9942 2.10089 109.335 20.0696 117.945C39.0212 127.026 88.1627 128.073 105.32 119.74C118.566 113.33 122.028 94.8061 119.848 41.9896C119.079 23.4226 118.096 20.175 113.93 22.4398Z" fill="black"/>
<path d="M138.565 35.3844C130.681 36.0894 124.292 38.5465 123.587 41.1531C122.861 43.8452 124.57 44.8708 128.266 43.9948C151.192 38.5251 163.969 46.4091 165.699 67.0913C167.537 89.3546 151.598 101.96 129.377 95.8071C120.66 93.3927 117.818 98.5205 125.724 102.409C147.325 113.007 172.558 97.8582 173.519 73.7148C174.481 48.9731 160.337 33.4614 138.565 35.3844Z" fill="black"/>
<path d="M63.4428 43.5722C53.0803 46.8625 45.5809 69.7454 47.2902 92.8419C48.1662 104.785 49.2131 108.118 52.0334 108.076C54.5546 108.033 54.9178 106.858 54.3623 100.854C52.4607 80.8343 55.1955 64.1048 62.0113 53.8491C63.9983 50.8579 64.9597 50.046 65.3443 50.9861C67.0963 55.1952 67.6305 70.2154 66.6477 87.5004C65.6007 105.619 65.8357 107.798 68.9338 107.798C71.3268 107.798 71.8823 106.238 72.7156 97.1151C76.1341 60.1521 72.7369 40.6237 63.4428 43.5722Z" fill="black"/>
<path d="M26.0956 43.6958C20.0063 45.2341 15.6263 55.2761 15.6049 67.7324C15.5836 75.6164 16.3527 78.0949 18.8098 78.159C21.0319 78.2231 21.331 77.4539 21.3737 71.6851C21.4378 62.3909 22.9762 55.6607 26.0315 51.4302C27.4203 49.4646 28.4031 49.6782 29.6637 52.2208C32.3344 57.5623 33.1463 64.7839 33.4241 86.2139C33.6164 100.7 33.7018 102.196 34.4924 103.734C35.8384 106.362 38.1887 106.234 39.4493 103.456C40.4535 101.213 40.1116 72.4543 38.9578 63.0746C37.2486 49.08 32.5908 42.072 26.0956 43.6958Z" fill="black"/>
<path d="M96.1314 46.541C91.73 47.9939 88.0978 54.425 85.3416 65.5994C80.9403 83.3544 81.0898 107.797 85.5767 109.079C88.1406 109.827 88.5893 108.887 88.6747 102.498C88.8884 86.3243 92.5419 65.1079 96.6015 56.4548C97.4561 54.6387 97.5416 54.6387 97.9048 56.6257C98.5671 60.1297 98.738 66.9881 98.3962 76.1755C98.1612 83.0339 99.1654 85.9824 101.622 85.491C104.592 84.8928 105.917 79.8504 105.917 69.2316C105.938 53.143 102.221 44.554 96.1314 46.541Z" fill="black"/>
<path d="M128.566 55.8776C126.023 57.416 127.455 60.5781 130.702 60.5781C135.723 60.5781 143.329 65.129 145.338 69.3381C148.927 76.9016 143.415 82.4781 133.736 81.0894C123.651 79.6578 122.327 85.7471 132.24 87.9478C149.525 91.7937 160.251 73.7181 147.752 61.8173C142.795 57.0741 132.048 53.741 128.566 55.8776Z" fill="black"/>
<path d="M19.3439 120.551C16.6304 121.085 14.0665 129.695 15.1348 134.716C17.3996 145.335 25.946 147.322 69.3187 147.322C95.086 147.322 103.996 142.942 102.222 131.17C101.047 123.414 95.3851 123.542 95.2783 131.298C95.1714 139.289 89.7872 141.041 66.8616 140.613C24.7922 139.844 19.6644 138.156 22.3779 125.914C22.6983 124.525 22.912 123.286 22.8693 123.136C22.8052 122.987 22.7197 122.602 22.6556 122.281C22.506 121.576 21.5873 120.615 21.0745 120.615C20.8822 120.615 20.519 120.572 20.284 120.529C20.049 120.487 19.6217 120.487 19.3439 120.551Z" fill="black"/>
<path d="M32.9965 125.467C31.8641 125.873 30.6036 128.309 30.0053 131.15C29.1079 135.594 33.317 136.983 35.0904 132.817C37.2056 127.903 36.1801 124.313 32.9965 125.467Z" fill="black"/>
<path d="M49.2343 126.769C47.8669 128.137 47.1405 133.179 48.1019 134.632C50.0249 137.581 53.5075 133.713 53.5075 128.607C53.5075 126.363 50.8154 125.21 49.2343 126.769Z" fill="black"/>
<path d="M80.3852 127.904C78.5264 129.292 79.9365 134.292 82.3509 134.933C85.3421 135.745 86.4531 132.134 84.2311 128.844C83.2055 127.37 81.6031 126.985 80.3852 127.904Z" fill="black"/>
<path d="M66.5831 129.378C65.5575 130.403 65.5789 132.86 66.6472 134.933C67.9077 137.368 71.1767 136.77 71.4118 134.057C71.7322 130.04 68.7838 127.177 66.5831 129.378Z" fill="black"/>
</svg>
