<svg width="250" height="171" viewBox="0 0 250 171" fill="none" xmlns="http://www.w3.org/2000/svg">
<path d="M130.547 1.13082C105.272 3.09649 66.4924 19.7405 45.5966 37.581C20.3207 59.1606 -1.28018 102.063 0.514556 127.147C2.73661 158.298 30.7473 173.511 79.782 170.178C99.46 168.832 122.129 166.011 162.041 159.965C167.852 159.089 176.185 157.85 180.565 157.209C189.88 155.863 190.03 155.798 190.03 153.833C190.03 150.97 189.432 150.991 164.882 154.431C155.332 155.756 152.469 156.14 140.782 157.743C96.1696 163.832 73.65 165.67 57.5615 164.58C6.79613 161.097 -7.39082 128.899 20.3421 80.0778C38.0331 48.9049 54.8266 34.5471 91.8324 18.8859C119.266 7.26283 138.709 5.31854 166.314 11.4292C197.166 18.2449 217.079 31.9404 230.283 55.4429C242.633 77.4711 245.624 96.5081 239.599 114.84C234.621 129.924 225.07 138.578 204.666 146.462C196.696 149.538 193.919 151.803 195.82 153.705C197.914 155.798 213.105 151.162 222.869 145.457C257.503 125.203 258.999 75.4414 226.16 36.4914C207.037 13.8222 165.374 -1.58264 130.547 1.13082Z" fill="black"/>
<path d="M149.734 16.0457C148.708 16.7294 148.431 21.4513 149.008 28.5875C151.465 58.927 146.401 83.0918 135.056 95.2704C126.488 104.458 123.283 99.9709 118.561 72.2807C113.433 42.2616 107.451 24.5279 103.05 26.344C101.554 26.9637 101.746 28.6729 104.032 34.7836C107.836 44.9324 109.523 52.5813 113.006 75.4856C116.296 97.1079 119.416 103.902 126.616 105.291C138.944 107.641 152.084 85.8694 155.289 57.7519C157.084 42.1334 155.033 18.1395 151.721 16.0457C151.401 15.832 150.033 15.832 149.734 16.0457Z" fill="black"/>
<path d="M178.834 26.2358C178.108 27.005 177.851 28.3083 177.851 31.0859C177.83 41.9398 175.352 51.0416 167.104 70.4632C161.528 83.6032 159.84 89.3507 160.182 93.9016C161.827 115.332 198.534 107.127 214.494 81.7871C220.754 71.8734 226.031 53.5201 222.805 52.9218C220.818 52.5586 219.558 54.6097 216.63 63.1134C208.746 85.8039 192.807 100.269 175.629 100.269C163.707 100.269 163.173 95.0981 172.702 72.2152C181.526 51.0203 185.116 35.3804 182.872 27.9237C182.231 25.7231 180.116 24.8471 178.834 26.2358Z" fill="black"/>
<path d="M117.215 34.2501C116.36 35.062 116.51 36.2585 117.706 38.2028C119.928 41.7709 120.954 46.8987 121.445 57.0048C122.577 80.0372 132.085 88.2203 138.645 71.8541C139.179 70.508 140.076 68.5851 140.61 67.5809C143.901 61.4916 144.2 60.7865 144.841 58.0731C146.678 50.3173 146.272 43.7366 143.943 43.3092C141.465 42.8392 140.589 44.698 139.606 52.4325C138.858 58.4363 138.602 59.2696 136.166 63.735C135.354 65.2093 134.286 67.5595 133.773 68.9697C131.679 74.7171 130.974 75.4649 129.885 73.0719C127.855 68.6706 126.915 64.7179 126.573 59.355C125.846 47.4115 125.184 43.2024 123.389 38.9506C121.552 34.6561 118.924 32.669 117.215 34.2501Z" fill="black"/>
<path d="M72.219 41.0026C70.6806 42.5196 70.7661 43.0324 75.6161 60.2106C86.4914 98.8401 85.8718 109.929 72.7958 110.463C62.6898 110.89 52.1778 105.058 42.2853 93.5413C35.5978 85.7642 33.2903 83.9694 31.8374 85.4437C29.829 87.4307 36.4952 97.9213 44.3365 105.1C59.6558 119.159 80.3594 121.253 86.9187 109.438C92.1961 99.887 89.8458 84.6745 76.9836 44.9767C75.7443 41.1522 73.7359 39.4856 72.219 41.0026Z" fill="black"/>
<path d="M188.214 43.5199C187.402 44.3319 186.932 45.4856 185.992 48.9042C184.689 53.6901 183.599 56.6813 181.911 60.0999C180.33 63.3048 180.223 63.7321 180.715 64.8858C182.702 69.6291 188.47 61.0613 191.098 49.481C192.295 44.2037 190.735 40.9988 188.214 43.5199Z" fill="black"/>
<path d="M66.2784 54.8874C65.0819 55.2506 65.2955 58.2418 66.8766 63.1987C68.1799 67.2582 68.7354 70.0999 69.0987 74.5226C69.4405 78.924 69.8892 82.0007 70.7438 85.8465C72.1326 92.0854 71.919 93.8587 69.4192 96.6577C66.0006 100.482 70.0815 103.089 73.7778 99.4566C77.2604 96.0381 77.9228 92.2777 76.4058 84.4578C75.5725 80.1632 75.5725 80.1632 75.1879 75.2704C74.1837 62.4509 70.3593 53.6909 66.2784 54.8874Z" fill="black"/>
<path d="M203.983 60.6121C203.171 61.2959 202.808 62.2146 202.124 65.1844C201.056 69.8849 199.389 72.107 192.808 77.5767C191.227 78.88 189.112 80.6961 188.108 81.5934C183.343 85.888 179.198 87.6614 178.685 85.653C177.916 82.619 174.006 83.1104 174.006 86.2512C174.006 92.3191 180.737 93.4088 187.958 88.5374C189.582 87.4477 190.351 86.8281 194.09 83.6018C195.201 82.6404 197.295 80.9311 198.748 79.8201C204.666 75.2264 206.974 71.4874 207.743 65.2913C208.234 61.3599 206.162 58.7747 203.983 60.6121Z" fill="black"/>
<path d="M40.4268 76.3983C39.1021 77.4666 39.1662 78.7699 40.6405 80.7142C41.1746 81.4193 42.2643 83.3849 43.0762 85.0942C45.8537 90.9271 46.5588 92.0595 48.8663 94.1961C55.4898 100.392 60.1689 96.9736 53.7164 90.6493C51.1097 88.0854 50.8961 87.7863 48.1826 82.744C45.1273 77.0393 42.3711 74.7745 40.4268 76.3983Z" fill="black"/>
<path d="M227.144 99.4129C226.823 99.7761 226.503 100.567 226.353 101.272C223.917 113.664 216.482 120.437 197.616 127.509C182.66 133.107 177.639 136.12 178.365 139.004C178.728 140.521 181.677 140.222 185.865 138.299C189.305 136.696 192.574 135.329 199.432 132.594C219.794 124.518 228.105 116.57 230.519 102.853C231.139 99.3702 229.002 97.1909 227.144 99.4129Z" fill="black"/>
<path d="M207.635 120.393C206.652 121.119 206.524 121.29 207.293 120.863C207.956 120.478 208.597 119.923 208.362 119.923C208.297 119.923 207.977 120.136 207.635 120.393Z" fill="black"/>
<path d="M17.4996 128.518C15.5767 130.783 19.0807 138.325 24.4435 143.517C29.4218 148.324 33.9086 150.567 43.2028 152.939C45.7453 153.58 49.5057 154.648 51.5355 155.289C65.466 159.712 78.1146 160.588 93.7758 158.152C103.903 156.593 107.13 155.118 106.617 152.319C106.296 150.61 104.331 150.396 98.049 151.422C78.5206 154.563 67.3035 154.135 53.5011 149.734C51.45 149.072 47.6896 148.025 45.1471 147.384C31.9216 144.051 24.8281 138.816 21.666 130.013C20.8327 127.727 18.7816 126.979 17.4996 128.518Z" fill="black"/>
</svg>
