<svg width="112" height="102" viewBox="0 0 112 102" fill="none" xmlns="http://www.w3.org/2000/svg">
<path d="M53.5427 1.07376C51.8975 1.94976 51.0215 5.28284 51.0215 10.7098C51.0215 12.5045 51.0215 12.5045 49.6968 10.838C43.052 2.39845 35.6167 -0.31502 26.6644 2.46255C14.8063 6.13748 3.14053 20.8158 3.1619 32.0116C3.1619 36.007 7.13595 37.1394 8.05469 33.4004C11.4732 19.6835 23.1176 7.71855 33.0741 7.69719C37.9883 7.69719 40.8513 9.66285 46.1287 16.6709C53.6281 26.606 57.1108 27.9948 76.2332 28.5076C94.5865 28.999 100.184 30.8578 103.453 37.524C110.782 52.3946 88.3263 84.4648 65.2298 92.1565C34.6979 102.284 9.84942 86.11 6.70864 54.0184C6.17449 48.7624 5.38395 46.3267 4.05927 45.9421C-1.30357 44.4038 -0.427569 61.7956 5.49078 74.1237C16.7292 97.5407 38.1165 106.301 65.123 98.5663C98.5178 88.9944 123.153 46.284 105.163 29.1485C99.4793 23.743 93.4114 22.0978 78.0493 21.7773C69.3748 21.6064 69.2252 21.585 70.6995 20.7731C77.8784 16.7136 78.9253 15.7094 78.5194 13.1882C78.263 11.714 76.105 10.1756 74.6735 10.4534C73.6693 10.6457 70.7849 11.6071 69.1398 12.2909C67.6869 12.8891 67.6869 12.8891 68.7552 10.8166C72.8788 2.69757 66.2554 0.560982 60.2729 8.08177C59.6106 8.91504 59.6106 8.91504 59.461 7.86811C58.6064 1.69337 56.6407 -0.550044 53.5427 1.07376Z" fill="black"/>
<path d="M27.5831 17.2044C15.7678 19.1701 9.99902 40.2155 15.0414 62.8847C18.3103 77.5203 29.8052 84.2719 38.1379 76.4947C46.5347 68.6748 51.2779 41.0701 44.3767 40.13C42.3256 39.8522 41.6205 41.4333 41.6205 46.3902C41.5992 58.7824 35.7022 73.3539 30.7026 73.3753C24.1432 73.3967 19.8487 62.9274 19.8273 46.9243C19.8273 24.1697 29.8693 16.6275 38.437 32.9724C41.6419 39.0831 46.1287 36.6473 43.8853 30.0026C41.6419 23.3578 36.5995 18.3368 31.0658 17.2899C29.2497 16.948 29.1856 16.9266 27.5831 17.2044Z" fill="black"/>
<path d="M27.9674 34.1867C25.019 36.2592 28.1597 39.9341 32.3475 39.2932C35.7019 38.8017 35.4669 34.8277 32.0483 34.0799C30.3818 33.738 28.5657 33.7808 27.9674 34.1867Z" fill="black"/>
<path d="M82.0029 37.2664C74.0975 38.0142 59.996 47.3725 59.996 51.8807C59.996 54.1027 62.5172 54.6155 64.7392 52.8635C71.4481 47.5648 79.0544 43.7403 83.2848 43.5266C96.9162 42.8002 71.4267 81.2374 57.603 82.2843C53.8426 82.5835 54.6759 74.0157 59.3977 63.931C61.2352 60.0211 60.9147 57.564 58.5858 57.564C53.9281 57.564 47.5824 73.9944 49.1849 81.9211C51.9838 95.7235 70.8071 88.9291 83.8617 69.4221C95.2924 52.3294 96.0616 38.5056 85.6564 37.3732C84.9941 37.3091 84.2676 37.2237 84.0326 37.1809C83.7976 37.1596 82.8789 37.1809 82.0029 37.2664Z" fill="black"/>
<path d="M29.2059 45.9016C27.6675 46.7776 27.3898 48.9783 28.6717 50.1748C31.6416 52.9951 36.5985 50.2602 34.3337 47.0767C33.5645 45.9871 30.3596 45.2606 29.2059 45.9016Z" fill="black"/>
<path d="M71.0627 53.6758C70.4859 54.21 70.4004 54.445 70.4004 55.2996C70.4004 58.1199 75.1223 60.4488 76.5324 58.3122C78.2844 55.6415 73.4557 51.5606 71.0627 53.6758Z" fill="black"/>
<path d="M28.2026 58.7999C26.3437 58.9922 25.3609 61.4493 26.4719 63.244C27.0061 64.12 29.2068 65.0174 30.1255 64.7396C30.275 64.6969 30.6596 64.59 31.0015 64.5259C31.7493 64.355 32.7749 63.2867 32.9244 62.4962C33.3945 60.1887 31.2579 58.5008 28.2026 58.7999Z" fill="black"/>
<path d="M67.5786 62.0954C64.6942 63.7405 66.4249 68.0137 69.993 68.0351C73.3047 68.0564 73.7534 63.8046 70.6126 62.2877C69.6084 61.7962 68.241 61.7108 67.5786 62.0954Z" fill="black"/>
<path d="M61.704 68.3957C60.0375 69.5495 60.0375 71.7288 61.704 73.2458C63.6056 74.955 66.2122 74.5704 66.7891 72.4552C67.5369 69.7418 63.9261 66.8574 61.704 68.3957Z" fill="black"/>
</svg>
