<svg width="173" height="187" viewBox="0 0 173 187" fill="none" xmlns="http://www.w3.org/2000/svg">
<path d="M133.255 1.30339C117.38 2.94856 101.377 8.37549 89.0061 16.3236C85.0107 18.8875 82.81 21.1737 82.81 22.7761C82.81 25.3614 86.3354 24.699 93.6639 20.7036C122.657 4.93559 157.163 2.799 164.278 16.3236C171.265 29.6132 158.125 68.3495 136.738 97.5994C113.791 128.965 71.8707 164.902 44.6933 176.504C25.1648 184.815 10.4865 181.482 7.73028 168.064C4.56813 152.638 10.4437 122.747 20.8489 101.253C31.0832 80.1221 53.7738 50.5304 72.7039 33.63C76.443 30.2969 76.7635 27.6903 73.4304 27.6903C67.4266 27.6903 34.8436 65.0165 21.8745 86.7669C0.91456 121.914 -5.96526 167.786 7.81574 180.52C24.4384 195.925 58.987 182.401 102.403 143.536C138.66 111.081 160.304 78.7975 169.748 43.0737C178.016 11.7513 165.945 -2.07242 133.255 1.30339Z" fill="black"/>
<path d="M136.567 10.2321C135.968 10.8304 135.52 12.3046 134.815 15.83C133.703 21.5347 133.639 22.6457 133.447 35.7002C133.362 42.516 133.148 50.1649 133.02 52.6861C132.08 69.2233 134.259 84.5427 137.656 85.2691C140.754 85.9101 141.438 84.094 140.412 77.9406C138.81 68.3473 138.703 64.8647 139.152 35.8071C139.408 20.445 139.494 18.4793 140.284 13.9498C140.904 10.4458 138.618 8.18098 136.567 10.2321Z" fill="black"/>
<path d="M113.384 15.0415C112.636 15.7893 111.974 17.52 111.674 19.5711C111.546 20.4471 111.204 22.9042 110.884 25.0194C110.286 29.2285 109.559 33.1171 107.615 42.5394C102.573 66.982 102.188 79.3956 105.585 109.201C106.888 120.781 106.995 121.145 109.324 121.145C111.931 121.145 112.144 120.098 111.354 110.697C108.277 74.5242 108.491 68.3281 113.683 42.8172C116.952 26.6859 117.678 20.7676 116.866 17.2208C116.289 14.6356 114.751 13.6741 113.384 15.0415Z" fill="black"/>
<path d="M154.172 16.4349C152.57 16.969 152.378 17.8237 152.207 25.6009C151.908 39.8519 150.263 49.6589 145.519 65.6192C142.507 75.6825 142.421 78.7806 145.071 79.272C147.164 79.6779 147.827 78.8874 148.788 74.9133C149.151 73.4391 150.177 69.7001 151.074 66.5806C156.33 48.3342 158.275 37.3735 158.317 25.665C158.36 17.5887 157.356 15.388 154.172 16.4349Z" fill="black"/>
<path d="M142.89 23.0733C141.544 24.633 141.074 28.9916 141.672 34.6322C141.907 36.9397 142.014 39.5464 141.971 42.6444C141.929 48.2209 142.164 49.0755 143.83 49.396C146.693 49.9302 147.954 44.0546 146.8 35.4868C146.18 30.8718 146.074 29.3335 146.287 27.7951C146.821 23.9493 146.821 23.7142 146.095 23.0092C145.133 22.0263 143.787 22.0691 142.89 23.0733Z" fill="black"/>
<path d="M92.2752 23.8646C91.4633 24.3774 91.1 24.9329 89.5617 28.0524C81.5922 44.0768 78.8574 64.5453 82.4896 80.7834C84.0066 87.535 85.8013 92.2782 91.8906 105.568C93.6212 109.328 95.6937 113.858 96.4842 115.631C101.591 126.912 103.385 128.942 106.056 126.442C107.851 124.776 107.744 124.498 99.4755 106.85C90.4377 87.5564 88.4079 81.3389 87.5106 70.3355C86.5064 57.6655 89.2839 41.8547 94.7109 29.3984C96.6765 24.9329 95.3305 21.899 92.2752 23.8646Z" fill="black"/>
<path d="M96.9332 37.0278C93.8565 40.1259 90.0747 55.5734 90.0747 65.0812C90.0747 75.3582 95.6939 87.8786 98.8561 84.7165C99.668 83.9046 99.2193 81.127 97.5741 76.6188C94.9034 69.2476 94.6043 64.6966 96.1854 54.8256C97.3605 47.5185 98.2365 44.164 99.8176 41.1514C101.377 38.1602 100.907 36.4509 98.5142 36.4509C97.7237 36.4509 97.4032 36.5578 96.9332 37.0278Z" fill="black"/>
<path d="M68.3876 51.6825C67.4475 52.6226 67.2125 53.8831 67.2125 57.9854C67.2125 62.3013 66.8493 65.0789 65.2895 73.1552C61.5291 92.5127 61.6787 97.8114 66.5288 113.686C70.2037 125.758 71.507 133.236 72.1266 145.65C72.4044 151.461 73.1308 152.7 75.7161 151.803C77.2758 151.269 77.3613 150.799 77.3613 143.599C77.3399 132.531 76.3998 126.784 72.2335 112.297C68.1098 97.9823 67.9603 92.1708 71.272 75.6123C73.665 63.5833 74.0282 57.5581 72.6394 53.4345C71.8275 51.0842 69.8191 50.2509 68.3876 51.6825Z" fill="black"/>
<path d="M53.0048 56.2754C50.6118 57.7496 46.3387 69.4795 44.9712 78.325C42.5142 94.1784 47.1506 115.16 58.7095 140.713C65.0338 154.708 68.196 158.768 70.5889 155.969C71.8495 154.516 71.4436 153.127 67.2772 144.666C62.3844 134.667 61.0598 131.547 57.6412 121.762C49.0521 97.2979 48.6034 79.2223 56.1242 60.2067C57.4276 56.9377 55.6328 54.6943 53.0048 56.2754Z" fill="black"/>
<path d="M55.6754 93.4973C53.026 96.3389 53.4961 103.347 57.0856 114.756C59.4358 122.192 60.8887 124.179 62.7048 122.363C63.9654 121.102 63.6662 119.265 60.6109 109.244C58.8803 103.539 58.5384 100.826 59.2008 97.4072C59.6708 94.9501 59.6281 94.1382 58.9871 93.4332C58.1538 92.5572 56.53 92.5999 55.6754 93.4973Z" fill="black"/>
<path d="M25.3579 97.9212C23.7982 98.7331 23.3709 100.314 22.7726 107.814C22.5162 110.805 22.0034 116.531 21.5975 120.526C19.2472 144.007 20.9565 153.195 29.4388 162.767C34.3957 168.365 44.5872 173.856 46.1683 171.783C47.557 169.967 46.8733 168.856 42.8138 166.484C28.1354 157.853 24.4605 147.725 27.2594 123.624C29.6738 102.707 29.1824 95.9556 25.3579 97.9212Z" fill="black"/>
<path d="M35.528 99.0549C34.5238 99.8668 34.2033 102.623 34.1178 111.981C33.9896 125.271 35.0579 130.399 40.2071 140.996C44.2666 149.393 46.0613 154.158 47.7706 161.101C49.0526 166.315 49.6935 167.426 51.5096 167.426C56.317 167.426 53.9881 155.824 45.7409 138.795C40.4207 127.813 39.9721 125.356 39.3311 104.396C39.1602 98.9481 37.8996 97.1961 35.528 99.0549Z" fill="black"/>
<path d="M29.9936 139.477C25.3786 142.148 36.3393 161.976 41.8517 160.929C44.7361 160.395 44.3515 158.408 40.6338 154.604C35.6342 149.498 35.1428 148.579 33.7754 142.191C33.1985 139.392 31.8311 138.409 29.9936 139.477Z" fill="black"/>
<path d="M12.6014 142.96C8.39229 144.755 9.78107 156.421 15.5499 167.809C18.7334 174.091 18.6265 173.749 17.1096 173.898C12.9219 174.326 14.567 178.535 18.9684 178.577C24.8654 178.641 25.6559 174.475 21.3827 165.929C17.9428 159.049 17.1309 156.293 16.5754 149.456C16.1481 144.221 14.7807 142.02 12.6014 142.96Z" fill="black"/>
</svg>
