<svg width="339" height="272" viewBox="0 0 339 272" fill="none" xmlns="http://www.w3.org/2000/svg">
<path d="M194.877 0.360584C190.924 0.873365 184.621 5.06108 184.194 7.45406C183.638 10.5307 186.373 11.4281 189.428 9.16333C191.33 7.77455 193.573 6.59942 195.133 6.21484C197.248 5.65932 197.248 5.68069 197.355 8.73601C197.505 13.6715 198.872 15.1458 204.62 16.6414C207.525 17.3892 207.504 17.3251 205.966 19.1198C201.03 24.9314 206.03 28.2431 211.371 22.6879C216.649 17.1969 214.277 12.1332 205.602 10.2744C203.573 9.82567 203.594 9.8684 203.444 7.38996C203.145 1.87756 200.432 -0.344491 194.877 0.360584Z" fill="black"/>
<path d="M169.451 9.18644C166.289 10.3829 165.648 14.2929 167.25 22.7751C168.575 29.8045 169.301 30.9583 171.951 30.2318C174.151 29.6336 174.343 27.2193 172.762 19.4848C171.801 14.827 171.822 14.6347 173.232 15.703C175.711 17.5832 178.296 16.8568 178.296 14.2929C178.296 11.2376 172.656 7.98995 169.451 9.18644Z" fill="black"/>
<path d="M150.842 10.1451C148.406 10.5937 146.034 13.0295 146.034 15.102C146.034 17.8154 149.346 18.2855 151.354 15.8711C152.294 14.7174 153.405 16.0421 154.516 19.5888C156.055 24.5457 157.401 26.084 159.794 25.6567C162.657 25.1012 162.593 21.7681 159.58 15.572C157.572 11.4057 154.474 9.48272 150.842 10.1451Z" fill="black"/>
<path d="M183.916 20.4689C182.399 21.6013 181.694 22.8832 178.745 29.7844C170.135 49.9324 168.426 59.9744 171.353 73.3067C171.63 74.5887 172.229 77.3876 172.656 79.5028C173.575 83.9896 173.895 84.5879 175.519 84.5879C177.677 84.5879 178.019 82.4727 177.036 75.3365C176.075 68.5848 175.925 66.8115 175.904 63.2647C175.882 55.2312 177.079 50.6589 183.959 32.8183C186.928 25.1266 187.42 23.4601 187.163 21.8149C186.907 20.0202 185.39 19.4006 183.916 20.4689Z" fill="black"/>
<path d="M135.415 21.1478C127.146 23.1562 124.326 31.1043 129.39 38.155C131.27 40.783 131.462 41.2531 131.932 44.3511C133.471 54.564 144.41 59.0508 150.927 52.1497C154.431 48.4534 151.439 45.2058 146.76 47.6628C142.167 50.0772 138.983 48.2397 138.235 42.7487C137.829 39.8643 136.633 37.4072 134.048 34.2023C131.078 30.5701 132.509 27.7712 138.385 25.656C142.722 24.1176 140.03 20.0367 135.415 21.1478Z" fill="black"/>
<path d="M227.396 21.0609C223.443 21.7659 221.884 22.8129 221.884 24.7358C221.884 26.5519 223.358 27.257 226.072 26.7014C228.593 26.1673 229.17 26.3169 229.49 27.4706C229.64 28.0048 230.046 29.244 230.409 30.2482C231.178 32.3848 231.114 32.5557 229.362 33.5599C224.576 36.2734 227.439 41.1662 232.674 39.2005C237.246 37.4912 238.464 33.2608 236.028 27.4279C235.558 26.3382 235.024 24.9708 234.81 24.3939C233.785 21.5736 231.135 20.3771 227.396 21.0609Z" fill="black"/>
<path d="M189.386 23.2223C188.724 23.9487 188.617 24.6324 188.98 26.4058C189.236 27.7732 188.895 29.1406 187.655 31.5977C186.032 34.8453 186.074 36.7255 187.762 37.281C192.313 38.798 196.565 26.9186 192.826 23.1582C191.907 22.2608 190.262 22.2822 189.386 23.2223Z" fill="black"/>
<path d="M149.922 26.3819C148.341 27.9843 148.854 29.5226 151.653 31.6165C153.64 33.1121 153.64 32.8343 151.589 33.9026C150.584 34.4154 149.26 35.3555 148.384 36.1674C146.61 37.8126 146.097 37.6203 145.072 34.9282C143.491 30.826 139.196 31.2319 139.196 35.4837C139.218 42.7695 146.803 46.4658 152.165 41.7653C152.849 41.167 154.152 40.291 155.093 39.7996C160.477 37.0007 161.652 32.8557 158.062 29.2876C154.922 26.1682 151.396 24.9076 149.922 26.3819Z" fill="black"/>
<path d="M214.512 30.8266C204.256 32.4077 184.941 42.3428 184.834 46.0605C184.77 49.1158 186.95 49.4363 191.244 47.0433C200.517 41.8728 212.952 36.8732 216.499 36.8732C217.417 36.8732 214.96 39.7362 212.097 42.001C211.2 42.7061 210.089 43.6034 209.619 43.9666C206.435 46.5519 208.273 50.5046 212.14 49.3936C214.512 48.7099 218.721 45.3127 221.071 42.2146C226.498 35.0784 223.272 29.4592 214.512 30.8266Z" fill="black"/>
<path d="M49.2895 32.1733C30.0602 34.139 19.7832 57.7697 20.4669 98.3649C20.5524 102.553 20.6592 106.569 20.7233 107.274C22.0907 121.162 23.9282 128.256 27.7313 134.26C28.4791 135.435 28.5646 135.712 28.4577 136.503C27.9877 139.986 30.1029 165.005 31.5131 172.547C31.6626 173.274 31.6199 173.637 31.3849 173.979C29.8892 176.286 30.573 179.513 32.9232 181.158C33.4573 181.521 33.9274 182.012 33.9701 182.269C39.8244 208.228 39.5894 218.441 32.9232 226.24C27.2399 232.906 16.1937 234.145 10.3608 228.804C4.72023 223.633 9.16433 218.463 15.275 223.056C19.9968 226.603 23.3086 222.202 19.2063 217.843C10.1258 208.228 -4.16798 217.95 1.32305 230.021C9.63438 248.311 38.8843 241.367 43.8198 219.958C44.183 218.334 44.183 218.334 45.5932 219.232C53.6908 224.466 62.0663 224.787 61.3398 219.873C61.0834 218.292 59.9511 217.48 56.3616 216.369C45.7 213.014 45.1018 212.566 44.9522 207.566C44.7172 200.985 43.072 191.819 41.0422 185.837C40.7431 185.004 40.5508 184.298 40.6149 184.298C40.679 184.298 41.8541 184.576 43.2216 184.918C51.9816 187.097 57.9213 188.016 60.0152 187.482C62.7073 186.82 62.8568 184.17 60.2929 182.717C59.2673 182.141 58.7546 182.012 49.8664 180.025C39.1834 177.632 36.94 176.906 37.7305 176.03C39.4398 174.171 46.2555 169.876 51.7252 167.184C55.8274 165.176 56.1693 164.856 56.1693 163.21C56.1693 160.134 53.1994 159.963 47.3879 162.719C44.824 163.937 45.1231 164.215 44.7813 160.262C44.6531 158.852 44.3112 154.899 44.0121 151.502C43.7343 148.083 43.4352 144.9 43.3711 144.387C43.2643 143.49 43.2643 143.49 44.3967 143.49C54.3318 143.49 55.9556 137.165 46.0419 136.994C34.077 136.781 28.5432 128.384 27.1117 108.236C27.0476 107.125 26.9408 105.886 26.9194 105.522C24.6332 80.9303 29.9106 53.7742 38.8202 44.0314C53.5413 27.9643 83.1544 46.6808 90.5897 76.7426C92.2349 83.3874 96.9354 81.1867 95.7176 74.3282C91.5298 50.8044 68.8179 30.1863 49.2895 32.1733ZM37.8587 142.421C38.0724 142.421 38.1365 143.319 38.1365 146.63C38.1365 151.972 38.7134 159.899 39.5466 165.924C39.6748 166.885 39.6748 166.885 38.1578 167.889C36.6409 168.872 36.6409 168.872 36.6409 168.124C36.6409 167.013 35.2094 151.609 34.6111 146.16C34.312 143.575 34.077 141.289 34.077 141.097C34.077 140.798 34.3547 140.862 35.829 141.567C36.7904 142.037 37.7092 142.421 37.8587 142.421Z" fill="black"/>
<path d="M301.898 34.4657C291.642 35.7904 280.831 43.6316 272.263 55.917C263.631 68.2879 257.67 85.5088 261.26 87.7522C263.247 88.9914 264.7 87.859 265.682 84.3123C273.78 54.8274 299.633 32.6923 312.452 44.2726C322.879 53.7163 327.579 89.0555 322.815 122.322C320.229 140.526 314.204 143.325 292.603 136.466C288.458 135.163 287.241 135.099 285.98 136.146C282.198 139.329 289.826 144.073 301.47 145.761C302.752 145.953 303.863 146.145 303.885 146.167C303.927 146.209 303.714 147.619 303.415 149.307C303.115 150.995 302.624 154.136 302.325 156.315C301.492 162.341 301.684 161.721 300.765 161.315C293.778 158.238 280.916 155.482 278.716 156.593C277.775 157.063 277.199 158.409 277.455 159.52C277.861 161.315 278.31 161.55 284.548 163.259C299.74 167.468 309.482 172.361 310.465 176.335C311.106 178.835 298.009 183.471 281.344 186.655C273.502 188.151 272.434 188.749 272.712 191.355C273.075 194.817 283.202 194.069 299.44 189.411C302.859 188.428 302.581 188.236 301.791 191.099C299.975 197.851 298.778 206.012 298.458 214.238C298.308 217.999 298.308 217.999 296.15 218.362C286.3 220.05 278.63 222.186 277.861 223.468C275.404 227.485 279.955 228.019 297.218 225.669C299.163 225.413 299.163 225.413 299.419 226.801C301.534 238.232 309.675 246.052 320.059 246.608C331.959 247.27 341.36 237.228 336.959 228.575C334.117 222.998 326.554 221.674 322.751 226.118C318.948 230.562 322.857 235.561 327.302 231.972C328.84 230.733 330.207 231.374 330.207 233.318C330.207 238.382 321.533 241.01 315.273 237.826C306.577 233.425 304.504 220.37 308.222 193.599C309.226 186.27 309.397 185.758 310.85 184.988C315.849 182.36 318.05 178.258 316.619 174.22C316.405 173.579 316.384 173.152 316.555 172.404C317.217 169.434 318.542 158.345 319.332 149.158C319.759 144.265 319.845 143.795 320.251 143.496C326.767 138.902 329.395 129.309 330.635 105.571C333.049 59.5492 321.853 31.8804 301.898 34.4657ZM314.183 146.167C314.183 146.359 313.905 148.26 313.542 150.397C312.88 154.499 312.089 159.969 311.512 164.434C311.32 165.887 311.128 167.126 311.106 167.169C311.063 167.191 310.273 166.678 309.354 166.015C308.414 165.353 307.538 164.755 307.389 164.712C307.239 164.648 307.154 164.456 307.239 164.263C307.559 163.452 309.482 148.175 309.482 146.487C309.482 146.38 309.931 146.273 310.508 146.252C311.063 146.252 312.004 146.167 312.58 146.06C314.183 145.825 314.183 145.825 314.183 146.167Z" fill="black"/>
<path d="M119.925 37.71C114.156 39.5688 112.959 44.5471 117.019 49.739C120.865 54.6318 123.728 56.1487 125.394 54.1831C126.805 52.4952 126.249 50.7218 123.172 47.0255C120.587 43.9488 120.587 44.2266 123.279 42.9232C125.33 41.9191 126.27 39.5047 125.053 38.3082C123.92 37.1972 122.189 37.0049 119.925 37.71Z" fill="black"/>
<path d="M161.354 38.8837C160.542 39.6956 160.478 40.6357 161.097 42.58C162.657 47.5582 162.764 53.1774 161.503 64.0099C160.072 76.2953 160.991 82.5128 164.366 83.4529C166.717 84.0939 167.764 82.641 167.614 78.9661C167.422 74.5861 167.55 69.1378 167.935 63.7963C169.11 47.7078 165.648 34.5891 161.354 38.8837Z" fill="black"/>
<path d="M191.758 51.4892C186.929 52.7711 182.635 60.4842 186.203 61.4457C187.848 61.8944 188.275 61.6166 191.309 58.3476C192.933 56.5743 192.933 56.5743 192.506 60.0783C191.352 69.3083 192.677 73.8379 196.501 73.8379C198.958 73.8379 199.813 71.915 198.894 68.4964C198.616 67.3854 198.531 66.0607 198.488 62.0867C198.403 52.7925 196.715 50.1431 191.758 51.4892Z" fill="black"/>
<path d="M205.176 55.5247C203.317 57.0417 204.15 59.2637 206.864 60.0543C209.663 60.8662 209.791 61.208 208.402 64.3061C206.906 67.5964 207.312 69.9467 209.428 70.2672C214.427 71.0791 217.717 60.7594 213.594 57.1485C211.436 55.247 206.629 54.3069 205.176 55.5247Z" fill="black"/>
<path d="M132.21 55.8947C127.638 56.9843 126.655 61.6421 129.86 66.9836C131.078 68.992 131.078 68.992 131.078 71.4063C131.078 76.8973 132.509 79.974 136.077 82.0679C139.731 84.2045 141.782 80.9355 138.791 77.7733C136.889 75.7863 136.74 75.2735 137.06 72.09C137.466 68.3724 137.103 66.8554 135.03 63.6078C133.62 61.3857 133.62 61.3216 134.774 60.8088C139.026 58.9286 136.889 54.7836 132.21 55.8947Z" fill="black"/>
<path d="M51.4044 57.724C45.1442 59.4119 40.6787 66.6122 39.0977 77.5729C37.6875 87.4867 39.8027 105.156 44.0332 118.873C44.9946 121.95 45.5288 122.612 47.0244 122.634C49.7592 122.676 50.037 121.587 48.7337 115.732C42.6658 88.2131 42.9008 72.8083 49.4601 65.4371C56.8954 57.1044 72.3216 70.9068 76.8084 89.9224C77.6845 93.7042 78.5177 94.9861 80.0347 94.9861C84.6711 94.9861 82.1286 81.9102 75.5692 71.9964C68.3903 61.1853 59.0534 55.6729 51.4044 57.724Z" fill="black"/>
<path d="M297.518 58.3491C287.412 60.3575 275.896 74.7367 271.751 90.4834C270.17 96.5513 274.849 97.1923 277.434 91.2525C289.976 62.43 305.338 56.0415 311.064 77.2579C313.714 87.1075 313.735 102.085 311.086 114.584C309.398 122.575 307.432 123.964 298.95 123.152C292.946 122.596 291.237 122.874 290.403 124.541C287.882 129.604 302.838 132.638 310.445 128.579C315.359 125.951 317.795 119.584 319.205 105.568C322.132 76.5101 312.432 55.3792 297.518 58.3491Z" fill="black"/>
<path d="M147.743 62.8575C147.572 62.8789 146.974 62.9643 146.44 63.0498C144.026 63.3703 142.509 65.2291 142.53 67.8571C142.573 72.8995 150.777 79.2024 152.358 75.4206C153.021 73.8396 152.572 72.7499 150.136 69.9937C148.833 68.5408 148.897 68.4981 151.183 69.1391C154.174 69.9723 156.247 68.199 155.221 65.6992C154.559 64.0967 150.029 62.3874 147.743 62.8575Z" fill="black"/>
<path d="M182.891 68.136C177.079 70.7854 179.365 86.0192 185.326 84.31C187.292 83.7545 187.57 82.1734 186.352 78.5412C185.775 76.8746 185.412 74.909 185.647 74.909C185.732 74.909 186.181 75.2081 186.63 75.5713C188.083 76.7464 190.326 76.4473 191.138 74.9517C192.975 71.5973 186.694 66.4054 182.891 68.136Z" fill="black"/>
<path d="M156.397 80.4784C155.692 80.7134 154.261 80.9911 153.214 81.098C149.923 81.3971 148.428 82.9995 149.24 85.2857C150.265 88.1487 160.307 86.4608 161.183 83.2987C161.91 80.6493 159.709 79.3673 156.397 80.4784Z" fill="black"/>
<path d="M201.799 80.7812C200.453 81.0589 198.68 81.529 197.847 81.8281C197.035 82.1059 195.347 82.5973 194.108 82.9178C191.01 83.6869 190.069 84.5202 190.39 86.1868C190.775 88.0883 193.082 88.5156 197.633 87.5328C207.29 85.4176 206.82 85.3535 206.179 89.0711C204.406 99.2199 200.368 100.822 194.684 93.6434C192.548 90.9513 190.86 90.3531 189.45 91.7846C187.035 94.1776 191.052 100.673 196.436 103.109C197.505 103.6 197.505 103.6 197.419 104.796C197.355 105.459 197.227 108.3 197.099 111.121C196.971 113.941 196.778 117.787 196.65 119.667C196.543 121.547 196.458 124.068 196.458 125.265C196.458 127.466 196.458 127.466 195.86 127.466C194.407 127.466 189.749 130.2 188.766 131.632C184.728 137.508 194.599 140.072 204.47 135.692C209.79 133.341 209.534 127.936 204.043 126.803C202.761 126.547 202.761 126.547 202.91 124.389C203.103 121.569 203.103 108.92 202.91 106.271C202.761 104.198 202.761 104.198 203.402 104.049C207.013 103.301 209.598 99.8396 211.179 93.6648C214.127 82.2341 211.585 78.7514 201.799 80.7812Z" fill="black"/>
<path d="M136.526 84.2434C128.621 84.9058 126.933 87.0851 128.194 95.076C129.369 102.597 132.723 106.763 138.407 107.703C139.39 107.853 139.475 111.164 138.77 121.271C138.535 124.625 138.343 127.851 138.343 128.449C138.343 129.539 138.343 129.539 137.232 129.774C130.8 131.077 129.732 137.081 135.65 138.684C137.659 139.239 143.342 139.047 145.543 138.363C150.735 136.739 150.735 131.398 145.564 129.86C144.346 129.496 144.346 129.496 144.475 128.642C144.688 127.467 144.688 111.1 144.475 108.921C144.325 107.34 144.346 107.148 144.688 107.041C151.141 104.947 154.367 97.6612 151.589 91.4438C149.752 87.256 145.692 89.2644 146.547 93.9436C147.338 98.2595 146.333 100.14 142.594 101.4C138.086 102.939 134.732 99.7978 133.642 93.0248C133.151 89.9909 133.044 90.0763 137.595 89.6704C146.675 88.8585 147.53 88.6021 147.53 86.551C147.53 85.1622 146.697 84.4144 144.945 84.2434C143.641 84.0939 138.172 84.0939 136.526 84.2434Z" fill="black"/>
<path d="M217.695 87.2324C216.904 87.4461 216.52 87.7025 216.349 88.0657C215.217 90.5441 217.161 91.4842 227.011 93.1721C257.222 98.3641 272.157 104.304 276.494 112.85C282.562 124.815 256.41 137.635 218.998 141.032C203.893 142.399 169.622 143.04 155.007 142.25C143.449 141.63 137.274 141.181 125.523 140.156C90.0979 137.1 67.7706 132.037 63.8392 126.204C61.7026 123.02 68.9243 116.568 81.9361 110.051C90.2261 105.885 105.011 100.031 112.062 98.0863C121.1 95.6079 123.6 94.2832 123.6 91.997C123.6 89.9032 121.527 89.4545 117.19 90.6082C115.481 91.0569 112.318 91.8688 110.139 92.4457C88.2177 98.1077 64.4588 110.35 58.8396 118.875C48.1139 135.156 76.7656 144.258 152.657 148.638C172.677 149.792 210.516 148.702 228.186 146.459C287.326 138.981 303.842 108.256 256.602 93.5995C242.415 89.1981 222.225 85.8864 217.695 87.2324Z" fill="black"/>
<path d="M177.976 89.3474C174.622 89.7748 166.311 89.9457 162.379 89.6679C154.367 89.0697 153.897 89.0697 153.128 89.8389C151.312 91.655 152.465 93.5565 155.82 94.3257C171.161 97.8511 186.266 96.1845 184.963 91.0994C184.472 89.0911 182.912 88.6851 177.976 89.3474Z" fill="black"/>
<path d="M230.216 95.1372C227.866 95.2654 222.546 95.885 219.213 96.4192C217.333 96.7183 215.709 96.9747 215.581 96.9533C215.474 96.9533 214.918 96.8892 214.384 96.8038C213.038 96.5901 212.077 97.402 211.906 98.8549C211.799 99.8163 211.777 99.8377 210.73 100.115C208.124 100.778 207.184 103.983 209.342 104.795C209.79 104.966 209.769 104.987 209.171 105.136C204.663 106.141 205.09 110.371 209.684 110.371C213.529 110.371 215.538 108.576 217.076 103.748C217.397 102.743 217.674 101.91 217.696 101.889C217.781 101.761 221.178 101.333 226.776 100.756C233.656 100.03 234.361 99.8377 235.13 98.5558C236.498 96.3337 234.468 94.9022 230.216 95.1372Z" fill="black"/>
<path d="M183.639 98.6458C178.939 99.8209 169.773 100.227 159.88 99.6927C154.176 99.3936 153.834 99.4577 153.3 101.081C152.317 104.03 155.799 105.312 166.76 106.102C179.708 107 188.382 105.248 189.066 101.552C189.579 98.774 187.528 97.663 183.639 98.6458Z" fill="black"/>
<path d="M121.036 99.2835C112.746 100.288 112.084 100.544 112.02 102.83C111.956 105.074 114.178 105.48 122.981 104.817C126.955 104.518 128.044 104.027 128.514 102.232C129.241 99.6253 126.634 98.5998 121.036 99.2835Z" fill="black"/>
<path d="M236.093 100.138C221.863 102.189 215.197 112.893 224 119.581C239.768 131.588 271.154 124.217 264.445 110.073C261.433 103.706 247.737 99.6249 247.737 105.095C247.737 106.59 249.083 107.552 252.566 108.577C268.996 113.47 254.254 123.17 236.734 119.025C230.089 117.465 225.068 114.196 225.944 112.06C226.863 109.859 233.23 106.27 238.614 104.945C241.455 104.24 242.182 103.706 242.182 102.317C242.182 100.287 240.152 99.5608 236.093 100.138Z" fill="black"/>
<path d="M185.69 106.4C177.443 114.882 164.282 115.053 153.898 106.806C151.89 105.225 150.672 104.989 149.604 105.972C147.787 107.639 149.39 110.609 153.727 113.643C154.176 113.963 154.133 114.006 151.847 116.271C145.8 122.274 146.997 127.103 154.795 128.3C160.073 129.112 177.571 129.368 180.926 128.684C189.344 126.975 191.694 121.698 187.058 114.946C186.374 113.963 186.374 113.963 186.866 113.643C191.844 110.331 193.083 104.391 188.81 104.391C187.656 104.391 187.656 104.391 185.69 106.4ZM161.547 117.659C167.124 119.582 173.127 119.582 178.918 117.638C181.225 116.869 181.075 116.805 182.251 118.984C183.81 121.804 182.785 122.531 176.888 122.894C173.619 123.086 156.248 122.146 155.5 121.74C155.116 121.527 159.069 116.762 159.496 116.933C159.667 116.997 160.586 117.318 161.547 117.659Z" fill="black"/>
<path d="M103.195 106.08C101.187 106.422 100.204 108.089 101.059 109.734C101.593 110.781 102.725 111.165 107.127 111.87C116.656 113.345 123.536 115.61 126.27 118.152C131.206 122.767 110.374 123.494 95.589 119.242C89.1151 117.383 88.8587 116.229 94.1147 112.682C97.9179 110.097 95.6103 107.149 91.1662 108.879C81.5943 112.576 81.1029 120.502 90.2475 123.921C99.9476 127.553 117.233 128.899 125.843 126.698C134.774 124.412 135.778 116.272 127.702 111.55C122.168 108.302 108.387 105.226 103.195 106.08Z" fill="black"/>
<path d="M235.984 107.423C231.369 109.795 231.968 115.671 236.989 117.124C240.429 118.128 244.744 116.354 244.744 113.961C244.744 112.167 243.206 111.355 240.236 111.59C238.42 111.718 238.1 111.526 239.104 110.863C242.052 108.94 239.189 105.757 235.984 107.423Z" fill="black"/>
<path d="M100.589 112.081C96.8713 114.346 99.3498 120.414 104.029 120.414C106.657 120.414 107.341 117.017 104.948 115.799C104.584 115.607 104.243 115.436 104.221 115.414C104.178 115.393 104.243 115.051 104.349 114.688C104.99 112.487 102.619 110.842 100.589 112.081Z" fill="black"/>
<path d="M219.32 126.272C213.722 127.468 211.094 130.609 213.573 133.151C215.495 135.138 219.491 135.288 229.234 133.771C234.233 133.002 240.28 132.211 242.609 132.04C245.408 131.848 246.455 131.079 246.455 129.241C246.455 127.105 244.446 126.485 238.165 126.656C234.981 126.763 233.87 126.72 232.973 126.464C231.306 126.015 221.243 125.866 219.32 126.272Z" fill="black"/>
<path d="M84.2872 127.099C82.0011 128.253 82.7062 131.202 85.4196 131.928C88.069 132.633 100.269 135.496 103.303 136.137C109.456 137.441 112.063 137.035 113.003 134.706C114.627 130.625 107.704 127.89 96.5085 128.146C91.9576 128.275 91.9576 128.275 88.945 127.548C85.676 126.758 85.0778 126.693 84.2872 127.099Z" fill="black"/>
<path d="M278.503 128.77C277.755 129.048 277.499 129.539 276.772 132.146C275.939 135.073 273.696 140.714 269.914 149.324C259.936 172.121 258.74 178.916 260.791 201.606C261.88 213.849 262.97 219.511 266.602 232.16C269.337 241.625 270.021 245.15 269.807 248.504C269.636 250.855 269.935 250.705 265.32 250.791C260.534 250.876 259.103 251.261 254.808 253.632C247.95 257.435 242.202 258.311 231.284 257.286C226.926 256.88 225.259 257.35 224.661 259.209C224.148 260.747 225.494 262.499 227.716 263.226C236.498 266.067 248.377 264.849 257.137 260.213C261.346 257.991 261.774 257.799 263.291 257.478C264.081 257.307 265.748 257.158 267.008 257.158C277.072 257.136 278.589 250.064 272.841 230.023C268.461 214.853 266.923 204.875 266.602 190.047C266.325 177.228 267.5 172.036 274.572 154.452C282.883 133.834 283.973 126.762 278.503 128.77Z" fill="black"/>
<path d="M86.6154 133.19C86.7223 133.404 87.0004 133.725 87.1929 133.896C87.4282 134.089 87.3854 133.939 87.0646 133.49C86.5084 132.741 86.2945 132.592 86.6154 133.19Z" fill="black"/>
<path d="M59.3961 137.168C58.4774 138.087 58.3706 139.069 58.5201 144.988C58.9261 160.542 60.9131 169.964 66.3614 182.1C71.5747 193.702 72.2797 196.009 72.472 202.099C72.6643 207.974 72.002 211.265 68.7971 220.516C61.6609 241.07 61.084 250.621 66.6178 256.154C70.7628 260.299 81.4884 260.321 82.279 256.219C82.6636 254.125 81.0825 253.249 76.2324 252.907C70.8696 252.522 69.6517 251.005 69.6945 244.766C69.7372 239.19 70.9764 234.105 75.1855 222.033C78.7536 211.842 79.7578 206.329 79.1809 200.24C78.6254 194.343 77.5571 191.074 72.8566 180.882C66.5751 167.187 64.9299 160.264 63.5838 141.74C63.242 137.082 61.4472 135.117 59.3961 137.168Z" fill="black"/>
<path d="M71.4672 153.96C69.4588 156.097 71.4885 172.741 73.9029 174.044C76.1463 175.241 77.1291 172.741 76.3813 167.72C76.1249 166.096 75.7404 163.489 75.5053 161.972C75.2917 160.434 75.0994 158.383 75.0994 157.379C75.0994 153.64 73.326 151.973 71.4672 153.96Z" fill="black"/>
<path d="M249.874 153.916C248.207 155.583 247.331 165.048 248.271 171.372C249.233 178.017 250.622 181.094 252.63 181.094C254.638 181.094 254.937 179.256 253.741 174.257C252.566 169.343 252.224 162.655 252.95 158.403C253.378 155.818 253.378 154.963 252.972 154.194C252.416 153.083 250.835 152.955 249.874 153.916Z" fill="black"/>
<path d="M142.253 155.56C141.334 156.201 141.27 157.141 141.548 165.282C141.676 169.448 141.868 175.708 141.975 179.17C142.189 187.267 143.022 189.425 145.287 187.759C146.975 186.541 147.188 160.368 145.543 156.479C145.03 155.261 143.342 154.791 142.253 155.56Z" fill="black"/>
<path d="M83.0264 157.72C82.3213 158.596 82.4495 160.198 83.4324 163.895C88.5174 182.633 89.073 195.367 85.7826 217.181C83.8383 230.065 83.5819 232.372 83.5606 236.752C83.5392 241.837 83.9024 242.927 85.6544 242.799C87.2569 242.671 87.9833 240.47 88.8807 233.12C89.1798 230.642 89.949 225.215 90.5899 221.048C94.5426 195.345 93.8162 181.222 87.5773 161.074C86.445 157.378 84.4366 155.925 83.0264 157.72Z" fill="black"/>
<path d="M154.473 163.28C153.084 164.668 152.977 172.766 154.046 198.726C154.879 219.109 154.665 227.142 152.977 240.859C152.037 248.444 152.315 250.324 154.345 250.324C156.481 250.303 157.464 246.137 158.896 230.881C159.366 225.946 159.259 206.823 158.682 194.346C158.404 188.534 158.105 179.624 157.998 174.582C157.785 163.6 157.699 163.215 155.798 163.002C155.093 162.916 154.772 162.98 154.473 163.28Z" fill="black"/>
<path d="M212.076 164.192C211.029 165.239 211.008 166.329 211.349 188.891C211.82 218.526 212.247 224.06 215.238 240.063C215.815 243.182 216.413 246.537 216.541 247.498C216.926 250.361 217.375 251.023 218.913 251.023C221.413 251.023 221.541 249.207 219.853 235.79C217.845 219.658 217.503 214.744 217.182 195.942C216.84 175.858 216.306 168.53 214.918 165.09C214.383 163.765 212.973 163.295 212.076 164.192Z" fill="black"/>
<path d="M238.271 166.587C235.921 167.954 237.523 200.473 240.707 216.455C243.954 232.757 247.394 240.619 250.065 237.949C251.155 236.859 250.941 235.15 248.933 227.821C244.659 212.352 242.865 198.913 241.967 175.325C241.69 167.847 241.647 167.505 241.006 166.864C240.45 166.309 238.997 166.159 238.271 166.587Z" fill="black"/>
<path d="M113.387 176.436C111.25 179.086 110.225 190.452 110.417 209.724C110.545 222.608 110.374 229.595 109.797 235.898C108.985 244.871 109.114 245.619 111.592 245.619C113.686 245.619 114.113 244.038 115.075 232.372C115.203 230.77 115.374 221.07 115.459 210.686C115.609 193.85 115.673 191.286 116.1 186.179C116.634 180.111 116.528 177.248 115.758 176.501C115.374 176.116 113.686 176.073 113.387 176.436Z" fill="black"/>
<path d="M168.318 188.681C165.242 190.839 164.644 225.623 167.678 226.691C169.964 227.503 170.605 224.64 170.605 213.658C170.605 206.693 170.882 200.625 171.459 194.963C172.079 189.023 170.968 186.822 168.318 188.681Z" fill="black"/>
<path d="M88.0036 253.525C86.1448 253.803 85.3115 254.551 85.3115 255.961C85.3115 257.969 85.7602 258.119 91.764 258.119C98.8361 258.14 101.891 258.909 108.109 262.199C121.954 269.528 124.86 269.656 140.692 263.567C150.328 259.849 155.221 260.255 163.553 265.426C176.181 273.288 182.719 273.224 205.366 264.977C207.482 264.208 210.943 263.076 213.058 262.477C218.613 260.875 220.173 259.999 220.173 258.439C220.173 255.469 214.169 256.196 199.982 260.853C182.313 266.665 177.463 266.537 166.545 259.935C161.118 256.644 158.511 255.683 153.789 255.234C148.405 254.7 143.64 255.64 134.41 259.059C125.757 262.285 121.634 262.199 114.22 258.717C104.263 254.038 95.8663 252.371 88.0036 253.525Z" fill="black"/>
</svg>
