<svg width="62" height="63" viewBox="0 0 62 63" fill="none" xmlns="http://www.w3.org/2000/svg">
<path d="M27.2979 0.377229C24.5417 1.59508 22.3196 8.30397 24.1571 9.75685C25.5245 10.8251 26.8705 10.0987 27.9602 7.74846C28.6439 6.27421 28.6439 6.27421 29.2208 7.25705C31.571 11.2738 34.9682 11.7866 41.2925 9.09451C42.4035 8.62446 43.3009 8.28261 43.3223 8.32534C45.3307 12.278 47.5527 13.5172 53.4711 13.9446C55.9068 14.1369 55.9495 14.3933 54.048 17.0426C50.8858 21.4013 54.3684 24.6489 58.022 20.7389C63.8122 14.5642 61.5687 9.03041 52.9583 8.30397C49.7961 8.04758 49.0483 7.663 48.1723 5.86826C46.3349 2.17196 44.1128 1.83011 38.344 4.39402C34.9896 5.88963 34.5836 5.91099 33.7504 4.58631C31.742 1.40279 31.3574 0.911376 30.6523 0.569522C29.4985 0.0140092 28.2593 -0.0714543 27.2979 0.377229Z" fill="black"/>
<path d="M18.0463 12.1294C5.59003 13.6037 -2.31535 30.3973 1.35958 47.5968C4.58583 62.7025 22.1486 66.8261 42.2966 57.2115C52.3386 52.4255 58.5347 41.5289 55.5862 33.9013C53.8769 29.4358 50.2234 31.4015 50.0097 36.9139C49.6679 46.2721 44.4118 51.2504 30.9727 54.9467C14.9269 59.348 6.70105 54.2202 6.67969 39.7983C6.67969 17.5564 19.9052 12.5354 43.2581 25.9532C47.2749 28.2607 48.8987 28.0898 49.1764 25.3122C49.7961 19.287 29.6694 10.762 18.0463 12.1294Z" fill="black"/>
<path d="M15.9314 22.5376C14.6494 23.7554 13.7948 27.2381 14.4357 28.6482C15.91 31.8745 20.2473 28.1141 20.0122 23.8195C19.9054 22.1103 17.2774 21.277 15.9314 22.5376Z" fill="black"/>
<path d="M25.8662 29.3294C25.2039 29.9918 24.5842 32.4916 24.862 33.4317C25.9089 37.0852 29.648 35.4401 29.6693 31.2951C29.6907 28.9662 27.4259 27.7697 25.8662 29.3294Z" fill="black"/>
<path d="M37.0621 30.1198C34.0067 32.1709 34.5195 38.1961 37.6603 37.3629C40.4592 36.5937 41.9335 29.8634 39.3055 29.8634C39.1559 29.8634 38.7713 29.7993 38.4295 29.7352C37.9808 29.6498 37.5962 29.7566 37.0621 30.1198Z" fill="black"/>
<path d="M11.274 38.4514C9.67157 39.2206 9.39381 44.2629 10.8894 45.6731C12.7055 47.3823 14.6285 45.5876 14.9489 41.9127C15.2267 38.9214 13.5602 37.3404 11.274 38.4514Z" fill="black"/>
<path d="M42.0833 40.7815C39.1989 42.4267 38.0665 45.8239 40.0535 46.8494C42.7243 48.2382 46.9975 43.089 44.7968 41.1234C44.3054 40.6961 42.6388 40.4824 42.0833 40.7815Z" fill="black"/>
<path d="M23.965 43.5576C22.7044 44.8396 21.9566 47.5744 22.5762 48.7282C23.9223 51.2921 28.0886 48.5572 28.0886 45.096C28.0886 43.0235 25.4606 42.062 23.965 43.5576Z" fill="black"/>
</svg>
