<svg width="107" height="184" viewBox="0 0 107 184" fill="none" xmlns="http://www.w3.org/2000/svg">
<path d="M101.159 0.862918C90.8183 8.19142 85.0922 10.563 71.8026 13.0628C56.9747 15.8404 49.8385 19.2376 45.7362 25.4978C42.5314 30.3478 45.9926 34.1082 49.3044 29.365C51.676 25.9251 59.4104 22.1861 67.5295 20.5409C70.4779 19.9427 70.2857 19.7717 69.1533 22.0579C68.6405 23.1048 67.5722 25.6901 66.7816 27.8053C65.051 32.4631 63.8332 35.4329 62.5085 38.2746C61.3547 40.7103 61.2265 41.7572 61.953 42.5264C64.3673 45.0903 68.3841 40.3257 72.9778 29.5146C76.0117 22.3784 76.8663 21.1178 77.5287 22.9125C78.2551 24.8995 79.3875 26.6515 82.336 30.3051C88.1262 37.5054 88.7244 39.2574 87.6134 45.7526C86.716 50.9018 87.2715 52.5684 89.8354 52.5684C92.613 52.5684 94.6214 48.6157 94.8351 42.7401C95.0273 36.7362 93.254 33.1254 86.7588 26.3097C83.3616 22.7416 82.0583 21.1178 81.5241 19.7076C80.8831 18.0411 80.99 17.9129 83.8316 17.101C92.8053 14.5371 104.044 8.10595 105.753 4.58058C107.398 1.16204 104.279 -1.33777 101.159 0.862918Z" fill="black"/>
<path d="M34.5177 32.7204C25.0527 34.4297 16.4208 45.9459 18.5147 54.065C21.9973 67.6109 44.4315 64.2351 49.4952 49.3858C51.76 42.7838 47.5296 34.1306 43.1709 36.4595C42.1667 36.9936 42.124 39.5789 43.0641 41.6514C46.4399 49.0226 36.3979 58.4877 28.3857 55.4751C21.3564 52.8471 27.8943 39.7071 37.4449 37.3141C39.8165 36.7159 40.5429 33.981 38.6414 32.8273C37.8295 32.3359 36.7398 32.3145 34.5177 32.7204Z" fill="black"/>
<path d="M55.35 51.197C54.0253 52.6285 54.4312 54.4446 56.696 56.9231C60.6487 61.3031 59.0676 67.6915 53.2988 70.7041C47.3164 73.8021 42.0177 71.4732 41.4621 65.4908C41.0348 61.0253 37.1676 60.6194 36.3343 64.978C33.1935 81.6648 60.5633 81.9425 64.7937 65.2558C66.6953 57.6709 59.4309 46.817 55.35 51.197Z" fill="black"/>
<path d="M78.3185 53.358C74.1308 53.9562 72.1865 54.7681 71.7805 56.0715C71.2678 57.8448 72.3147 58.8063 74.5367 58.5926C87.3349 57.3107 94.9839 61.8616 92.1209 69.0192C89.4288 75.7708 94.9412 77.6296 98.1674 71.0489C103.21 60.7079 92.6764 51.3282 78.3185 53.358Z" fill="black"/>
<path d="M13.4081 64.4467C7.19064 65.4936 3.9003 73.4204 7.01972 79.8302C11.998 90.0217 29.9667 89.5089 35.4577 78.9969C37.9362 74.275 34.774 71.1129 31.3127 74.8519C26.8473 79.702 24.732 80.8984 20.6298 80.8984C12.2757 80.8984 8.36577 70.8351 15.8652 68.6131C17.3608 68.1644 17.9591 67.5875 17.9591 66.5406C17.9591 64.5322 16.613 63.9126 13.4081 64.4467Z" fill="black"/>
<path d="M71.2033 72.6993C64.0457 74.6222 65.0713 78.404 73.0835 79.5364C79.7497 80.4765 83.446 83.7454 83.446 88.7023C83.446 94.2147 76.3098 97.9965 70.2632 95.6676C69.0667 95.1976 68.8103 94.9839 66.0114 91.9927C63.4048 89.2151 60.499 92.2704 62.2937 95.8599C66.8447 104.962 82.3349 104.577 88.531 95.1976C95.5391 84.6214 83.7451 69.3235 71.2033 72.6993Z" fill="black"/>
<path d="M53.3844 80.3209C52.3161 81.2183 52.252 81.5602 52.3161 85.5342C52.4443 92.4995 49.7309 96.794 44.0475 98.6315C38.2147 100.512 34.3261 97.3923 34.2833 90.833C34.2833 86.8375 34.3047 87.0085 33.6637 86.3461C30.7793 83.4831 27.6385 88.9741 28.6855 95.0848C31.3562 110.81 54.9655 107.456 58.6618 90.833C60.072 84.5514 56.5893 77.6075 53.3844 80.3209Z" fill="black"/>
<path d="M12.7033 94.3385C9.17794 96.4964 6.31491 103.932 7.36184 108.312C10.1394 120.148 28.0013 118.097 31.313 105.556C32.7445 100.15 27.9799 98.868 25.3092 103.953C21.8265 110.577 14.2844 112.008 13.0665 106.282C12.6178 104.274 13.4938 101.453 15.3313 98.8894C17.5747 95.7486 15.6945 92.501 12.7033 94.3385Z" fill="black"/>
<path d="M78.1464 104.573C77.2491 105.107 76.3944 106.603 75.5398 109.102C71.3948 121.046 57.4429 120.939 54.1739 108.974C52.6569 103.44 47.8496 104.915 48.8111 110.598C51.2895 124.935 70.7538 129.443 79.0865 117.585C83.4238 111.389 82.7401 101.731 78.1464 104.573Z" fill="black"/>
<path d="M44.731 117.628C43.7909 118.205 43.0859 119.551 42.4235 122.03C38.599 136.409 26.2495 138.909 25.2453 125.534C25.0103 122.265 24.583 121.495 23.066 121.495C19.2843 121.495 20.0962 133.012 24.1557 137.349C31.1423 144.784 44.9233 138.332 48.5128 125.94C50.158 120.214 48.0641 115.599 44.731 117.628Z" fill="black"/>
<path d="M7.25532 122.629C-1.46196 125.107 -2.33796 138.995 5.90927 144.465C11.2507 148.012 20.1603 146.751 21.3782 142.243C22.126 139.422 19.9467 138.333 15.6094 139.38C10.2679 140.662 5.69561 136.26 7.14849 131.218C7.91766 128.633 9.19961 127.821 11.9131 128.227C15.7803 128.804 16.5922 124.872 12.96 123.099C11.5712 122.415 8.79366 122.202 7.25532 122.629Z" fill="black"/>
<path d="M63.3845 128.91C62.5726 129.764 62.2735 131.388 62.5726 133.226C63.235 137.114 62.1026 139.828 58.8977 142.114C54.5818 145.191 48.5352 145.319 47.9797 142.349C47.3815 139.187 43.6852 139.956 43.7279 143.246C43.8347 155.211 66.3117 151.408 69.5379 138.888C71.0762 132.969 66.4826 125.555 63.3845 128.91Z" fill="black"/>
<path d="M26.378 148.074C22.5535 149.74 20.7374 157.09 22.9808 161.833C27.8095 172.025 43.8339 167.218 44.8168 155.253C45.2868 149.42 40.3299 148.757 38.2575 154.377C36.9328 157.945 34.2407 160.359 31.5486 160.38C28.365 160.38 27.1045 156.428 29.0701 152.582C30.3521 150.082 30.1384 148.458 28.4719 148.01C27.4677 147.71 27.1899 147.732 26.378 148.074Z" fill="black"/>
<path d="M10.4818 151.022C0.226218 156.129 3.30291 172.516 14.3277 171.619C20.6947 171.106 21.3144 165.295 14.99 165.295C10.0545 165.295 9.11443 156.898 13.7722 154.398C17.1907 152.582 13.9645 149.27 10.4818 151.022Z" fill="black"/>
<path d="M52.0165 156.983C50.4355 157.432 50.0936 159.291 50.5209 165.081C51.0764 172.473 48.1066 176.597 42.1028 176.789C38.2569 176.918 33.1291 174.93 33.1291 173.307C33.1291 172.089 30.2447 171.726 29.4114 172.837C27.5526 175.336 31.0566 180.122 36.1844 182.045C47.6365 186.361 58.4904 178.456 57.8494 166.256C57.5289 159.996 55.0719 156.086 52.0165 156.983Z" fill="black"/>
</svg>
