<svg width="200" height="64" viewBox="0 0 200 64" fill="none" xmlns="http://www.w3.org/2000/svg">
<path d="M184.352 1.18729C176.98 2.51198 171.276 10.0969 173.818 15.1819C174.011 15.5665 174.139 15.887 174.117 15.9298C173.882 16.122 157.623 20.4807 149.803 22.425C143.821 23.8992 143.607 24.0274 143.607 26.0144C143.607 28.8134 146.064 28.9202 157.58 26.5913C175.485 22.9805 191.979 17.8954 196.295 14.6478C204.414 8.55852 196.017 -0.927932 184.352 1.18729ZM191.36 8.00301C192.919 8.79355 192.962 9.11403 191.573 9.86184C189.672 10.9088 179.758 14.5196 178.797 14.5196C178.54 14.5196 180.143 10.866 180.741 10.0969C182.835 7.44749 188.176 6.40057 191.36 8.00301Z" fill="black"/>
<path d="M122.988 19.5611C122.647 19.6038 121.429 19.7534 120.318 19.8816C114.998 20.5012 110.917 22.2959 110.917 24.0052C110.917 26.0136 111.686 26.1845 120.232 26.0991C129.996 26.0136 133.415 26.8255 134.718 29.5817C137.368 35.1582 125.467 42.2303 114.079 41.8244C107.755 41.6107 106.216 37.2521 108.994 27.5092C110.468 22.4241 106.366 20.9072 104.016 25.6718C95.4905 42.9568 106.494 53.597 126.236 47.1872C148.371 39.9869 145.658 16.9331 122.988 19.5611Z" fill="black"/>
<path d="M86.2401 23.6423C84.8086 25.0738 85.3855 27.1463 88.2058 30.6076C94.9361 38.8762 93.4191 45.4569 84.189 48.149C77.6511 50.0292 68.0791 48.9395 65.9639 46.0765C63.2077 42.3374 71.9036 32.7655 80.4073 30.1375C83.0566 29.347 83.9967 28.4924 83.9967 26.954C83.9967 20.9929 69.938 25.4157 62.759 33.6415C52.9094 44.9441 58.2508 55.6057 74.3821 56.8022C93.2268 58.2337 105.427 45.2005 97.97 31.6331C94.8933 26.0353 88.3126 21.5484 86.2401 23.6423Z" fill="black"/>
<path d="M114.443 31.0368C112.606 31.9555 112.691 36.5492 114.572 38.1303C117.371 40.4805 120.105 35.8655 118.14 32.1478C117.456 30.9086 115.747 30.3745 114.443 31.0368Z" fill="black"/>
<path d="M38.3365 34.4959C23.9787 39.346 17.6116 55.1568 27.4613 61.5665C36.0931 67.1644 54.6814 60.5196 57.1812 50.9477C58.5273 45.713 54.4464 37.594 50.4724 37.594C47.8871 37.594 47.4598 39.7733 49.1049 44.6234C50.921 49.9862 48.6135 52.892 40.7081 55.2422C26.6921 59.3872 26.628 46.3113 40.6227 39.4742C43.6353 37.9999 44.4044 37.4017 44.5967 36.3761C45.0882 33.7909 42.6097 33.0431 38.3365 34.4959Z" fill="black"/>
<path d="M70.9628 38.66C69.6808 40.0275 69.8518 43.4887 71.2833 45.0271C73.6335 47.6123 76.582 43.9801 75.4496 39.8993C74.9155 38.0191 72.2448 37.2713 70.9628 38.66Z" fill="black"/>
<path d="M34.5988 45.8209C32.569 47.7011 33.8724 52.6152 36.4149 52.6152C38.4874 52.6152 39.513 50.1368 38.701 47.1669C38.2096 45.3936 35.8808 44.6244 34.5988 45.8209Z" fill="black"/>
<path d="M12.314 54.9029C2.63522 57.1036 -2.77035 62.1032 3.2762 63.2356C6.16059 63.7911 18.6383 59.7102 19.4502 57.9368C20.8176 55.0097 17.6982 53.685 12.314 54.9029Z" fill="black"/>
</svg>
