<svg width="65" height="53" viewBox="0 0 65 53" fill="none" xmlns="http://www.w3.org/2000/svg">
<path d="M49.9469 1.80353C42.0202 7.74324 26.188 12.0592 12.407 12.0592C8.81757 12.0592 7.70654 13.042 8.66801 15.3495C9.75767 17.9348 21.7867 17.187 36.0377 13.6189C47.6607 10.7345 56.2071 5.43573 55.4593 1.61123C55.0106 -0.546722 53.0022 -0.482624 49.9469 1.80353Z" fill="black"/>
<path d="M54.7123 8.42582C53.7509 9.19499 53.7081 9.32319 52.3835 14.2801C45.6746 39.5132 21.0183 43.5513 11.5746 20.9462C9.30983 15.5834 4.92982 17.4422 6.87412 22.9546C13.3693 41.3934 36.1027 46.7349 48.9649 32.8257C53.7936 27.6124 58.7932 16.5021 58.836 10.8829C58.8573 8.21216 56.5925 6.86611 54.7123 8.42582Z" fill="black"/>
<path d="M28.1752 15.9011C24.9276 16.5207 26.2951 21.9903 30.1409 23.8492C34.4355 25.9217 40.6529 22.0117 39.6915 17.8454C39.2641 16.0079 36.8712 15.5378 35.5465 17.0335C34.0081 18.7855 33.6022 19.1059 33.0467 19.1059C32.1707 19.1059 31.7006 18.7427 31.1237 17.589C30.6537 16.6916 29.4999 15.6233 29.094 15.7088C29.0299 15.7301 28.6239 15.8156 28.1752 15.9011Z" fill="black"/>
<path d="M42.6619 16.9089C40.7176 17.4217 40.6535 20.0497 42.555 21.4385C45.7385 23.7247 49.328 21.8231 47.7256 18.6823C47.0846 17.4004 44.3711 16.4389 42.6619 16.9089Z" fill="black"/>
<path d="M61.1004 18.0601C60.374 18.5942 59.7757 20.1967 59.4339 22.4187C57.4468 36.0074 50.2038 44.1478 37.897 46.669C21.1034 50.0662 10.1 43.3573 5.67728 27.0124C4.2244 21.6282 -0.0487804 22.4614 0.784489 27.9738C3.13474 43.5496 15.2919 53.0147 32.0855 52.3737C48.0886 51.7327 56.8059 46.0494 61.8909 32.888C65.459 23.6579 65.0104 15.1329 61.1004 18.0601Z" fill="black"/>
<path d="M21.2746 21.2272C19.8859 22.0818 18.4116 24.603 18.4116 26.1413C18.4116 30.1368 23.4326 28.6412 24.9709 24.197C25.7829 21.8468 23.4112 19.9239 21.2746 21.2272Z" fill="black"/>
<path d="M31.659 27.2257C30.1421 28.8495 31.2317 32.8449 33.347 33.4218C35.5263 33.9987 36.7014 32.2894 36.1245 29.3409C35.6117 26.7129 33.1974 25.5805 31.659 27.2257Z" fill="black"/>
</svg>
