<svg width="182" height="323" viewBox="0 0 182 323" fill="none" xmlns="http://www.w3.org/2000/svg">
<path d="M79.0586 0.836645C57.5646 2.75958 30.088 14.5749 16.5848 27.6936C0.389451 43.4402 -2.58041 59.4005 3.97892 95.6585C5.23951 102.581 6.82058 112.025 10.0255 131.553C14.32 157.662 20.1956 182.938 22.5245 185.16C24.0415 186.613 26.5627 185.887 26.9472 183.878C27.1823 182.618 26.2635 177.447 22.6313 159.542C18.9991 141.659 18.2727 137.877 15.431 121.896C14.9396 119.075 14.9396 119.075 18.0377 117.58C38.8053 107.602 70.9396 95.9148 97.3265 88.7359C100.788 87.7958 104.313 86.7916 105.125 86.5139C106.621 86.0011 106.621 86.0011 107.326 95.4875C109.633 126.383 110.616 131.532 114.248 131.532C116.812 131.532 117.432 129.246 116.769 122.174C116.641 120.87 116.257 116.811 115.915 113.178C115.146 105.038 114.376 95.5944 113.671 85.1892C110.103 33.1205 108.971 23.0358 105.766 14.7672C101.621 3.9988 93.1174 -0.423942 79.0586 0.836645ZM89.7416 7.71646C97.5188 9.76759 100.595 15.3868 102.347 30.7062C102.711 34.0392 103.544 43.4616 103.48 43.5257C103.437 43.5471 102.497 43.7393 101.386 43.9316C78.3322 48.0339 26.9472 66.4086 9.38449 76.8137C7.09834 78.1598 7.312 78.6085 6.92741 71.6646C5.73092 49.4654 13.8927 34.4452 33.5493 22.758C51.3685 12.1392 78.7382 4.8107 89.7416 7.71646ZM104.035 50.9397C104.099 51.3242 104.548 57.1785 105.018 63.9301C105.488 70.6817 105.937 76.7496 106.001 77.412C106.129 78.6085 106.129 78.6085 105.104 78.758C101.023 79.3563 83.8019 84.3132 72.4352 88.1377C53.2059 94.6543 26.0285 106.085 15.1533 112.281C13.7859 113.05 12.9953 109.995 8.9999 88.1804C8.14527 83.5867 7.78205 84.3559 11.8416 82.3261C31.6477 72.391 63.7179 60.7893 91.9423 53.3326C95.3181 52.4566 99.228 51.4097 100.638 51.0038C103.929 50.1064 103.907 50.1064 104.035 50.9397Z" fill="black"/>
<path d="M80.2337 17.8659C76.9647 18.571 74.059 21.5409 72.2215 26.0063C71.6019 27.5233 71.6019 27.5233 70.0849 25.9636C64.1666 19.9598 56.4107 23.4424 53.6973 33.3135C53.27 34.8732 52.864 35.4714 52.629 34.9159C52.4794 34.5313 50.3856 33.0784 49.2959 32.6084C43.1212 29.8522 36.6259 33.9117 32.9724 42.7999C32.31 44.4451 32.31 44.4451 31.5195 43.4409C24.832 35.0014 14.5763 42.5649 15.1532 55.4913C15.4737 63.0548 20.8365 63.7385 20.8365 56.2177C20.8365 52.0086 23.2509 46.1971 25.0029 46.1971C26.0712 46.1971 28.0155 49.2524 29.3615 53.1196C31.4767 59.1235 35.579 58.5252 36.9464 51.9873C40.0231 37.3944 46.2406 34.0399 51.6889 44.0605C53.7614 47.8636 56.2825 48.5473 58.1627 45.7911C58.6542 45.0647 58.6969 44.8297 59.0601 40.8343C59.6156 34.9373 61.9445 29.5317 63.9315 29.5317C65.2135 29.5317 67.2646 32.3947 68.9098 36.4756C70.1063 39.4241 71.5378 40.6633 73.3539 40.3215C75.2982 39.9583 75.9392 38.8686 76.687 34.6382C78.8449 22.31 83.0754 20.7717 87.2845 30.8137C88.7801 34.3604 89.5279 35.1723 91.344 35.1723C96.8777 35.1723 92.5832 22.2673 85.8743 18.6992C83.93 17.6736 82.2421 17.4172 80.2337 17.8659Z" fill="black"/>
<path d="M99.1422 126.832C88.8011 129.311 71.5375 137.045 58.4402 145.079C42.0312 155.142 27.1605 168.389 27.1605 172.94C27.1605 175.653 30.0663 176.016 32.0533 173.538C33.2926 171.978 40.3219 165.633 40.792 165.633C40.8133 165.633 41.6893 166.53 42.6935 167.641C44.7447 169.863 45.6207 168.902 35.0446 176.102C31.1987 178.709 30.5577 179.862 31.9038 181.614C33.2498 183.366 34.3608 182.918 44.6378 176.358C48.4623 173.923 48.4623 173.923 51.3254 176.786C54.7012 180.161 54.6584 179.499 51.6672 181.55C48.7615 183.537 39.7664 189.904 36.3479 192.404C33.6985 194.327 33.5062 194.284 29.9381 191.699C26.4768 189.178 23.3574 191.806 25.9427 195.075C30.5577 200.886 42.9927 205.053 64.6577 208.023C120.465 215.693 144.374 212.253 159.971 194.327C180.012 171.316 166.445 144.545 127.602 130.486C120.978 128.093 117.859 132.879 124.033 135.934C127.067 137.451 127.046 137.408 125.08 138.412C122.837 139.566 123.136 139.588 120.743 137.964C116.32 134.973 114.269 134.823 113.564 137.451C113.222 138.712 113.821 139.78 115.658 141.276C117.132 142.472 117.132 142.472 114.397 143.904C111.663 145.356 111.663 145.356 110.21 144.096C109.419 143.412 106.492 140.976 103.715 138.669C98.6508 134.481 98.6508 134.481 100.937 133.605C108.864 130.571 107.347 124.867 99.1422 126.832ZM99.9968 143.519C102.347 145.656 104.569 147.664 104.911 147.963C105.274 148.262 105.509 148.54 105.445 148.604C104.185 149.779 94.9118 154.287 94.4631 153.945C93.6512 153.326 88.1388 148.689 88.1388 148.625C88.1388 148.604 88.8652 148.134 89.7412 147.578C92.7324 145.72 93.9076 144.309 93.9076 142.622C93.9076 139.609 90.3395 139.823 84.6348 143.198C82.7973 144.288 82.7973 144.288 81.4085 143.156C79.7847 141.852 79.5924 142.023 85.5749 139.502C93.0957 136.319 92.3051 136.447 94.1212 138.135C94.9972 138.947 97.6466 141.361 99.9968 143.519ZM141.212 144.523C143.049 145.549 147.921 148.689 149.01 149.565C149.48 149.929 144.31 154.821 143.711 154.586C143.476 154.48 129.695 144.395 129.289 144.032C129.183 143.946 130.336 143.241 131.853 142.493C134.887 140.976 134.716 140.934 141.212 144.523ZM75.9816 146.019C77.7763 147.664 77.7977 147.408 75.8107 148.647C74.8919 149.224 72.0075 151.104 69.4223 152.813C64.679 155.954 64.679 155.954 62.7347 154.031C61.3246 152.621 60.8545 152.044 61.0468 151.916C62.3929 151.018 73.9732 144.737 74.3151 144.715C74.4219 144.694 75.1697 145.292 75.9816 146.019ZM125.123 148.796C126.341 149.758 129.866 152.45 132.964 154.757C138.562 158.966 138.562 158.966 135.571 161.359C132.558 163.752 132.558 163.752 131.725 163.026C131.277 162.641 128.328 160.013 125.166 157.193C122.025 154.373 118.884 151.595 118.201 151.018C116.94 149.95 116.94 149.95 119.803 148.519C121.363 147.707 122.709 147.066 122.773 147.066C122.858 147.044 123.905 147.835 125.123 148.796ZM85.874 154.95C89.0148 157.727 89.0148 157.727 88.0961 158.261C87.5833 158.561 84.4425 160.441 81.088 162.428C75.0201 166.081 75.0201 166.081 72.2853 163.346C69.059 160.142 69.2086 160.548 71.0033 159.415C77.7122 155.142 82.4555 152.172 82.5837 152.172C82.6691 152.172 84.1434 153.433 85.874 154.95ZM115.402 157.257C121.491 162.663 127.238 167.855 127.174 167.897C126.213 168.667 118.607 174.179 118.5 174.179C118.372 174.179 114.44 170.931 111.47 168.389C110.573 167.62 110.573 167.62 112.346 166.53C116.363 164.073 117.41 162.492 116.427 160.441C115.316 158.112 112.752 158.496 107.048 161.787C104.804 163.069 105.231 163.176 102.283 160.654C100.552 159.137 100.339 158.902 100.681 158.71C101.578 158.176 110.68 153.262 110.787 153.24C110.851 153.24 112.923 155.057 115.402 157.257ZM156.36 156.958C158.304 159.501 161.21 165.697 160.719 166.188C160.633 166.295 151.98 160.505 149.801 158.881C149.202 158.454 149.202 158.454 151.745 156.403C154.565 154.095 154.159 154.031 156.36 156.958ZM57.9274 157.108C59.3803 158.774 59.7435 159.308 59.4871 159.437C59.3162 159.543 57.0728 161.06 54.5089 162.834C49.0819 166.53 49.9152 166.445 47.1163 163.624C45.5993 162.065 45.5566 162 45.9412 161.68C47.394 160.569 55.7908 154.95 56.0045 154.95C56.0259 154.95 56.9019 155.911 57.9274 157.108ZM97.5825 165.163C99.2063 166.551 99.2063 166.551 94.6981 169.479C92.1983 171.081 89.0148 173.175 87.5833 174.115C84.998 175.846 84.998 175.846 82.4555 173.303C80.383 171.231 79.977 170.718 80.2334 170.525C80.8103 170.141 89.6771 164.885 91.9846 163.56C94.2281 162.257 94.2281 162.257 95.0827 163.005C95.5527 163.411 96.6638 164.393 97.5825 165.163ZM147.087 165.056C148.797 166.274 152.749 168.987 155.847 171.081C161.467 174.884 161.467 174.884 161.338 176.016C161.061 178.388 159.159 183.238 157.941 184.712C157.471 185.268 157.471 185.268 153.262 181.807C148.455 177.854 148.818 178.281 149.801 177.619C152.621 175.696 153.753 173.538 152.877 171.743C151.724 169.329 149.373 169.564 145.912 172.406C145.228 172.961 144.502 173.559 144.31 173.709C144.011 173.944 137.879 168.966 137.473 168.132C137.409 168.004 143.647 162.855 143.882 162.855C143.925 162.855 145.357 163.859 147.087 165.056ZM66.7943 166.765C69.5077 169.607 69.5077 169.607 64.7859 172.705C62.2006 174.393 59.9785 175.803 59.8504 175.846C59.4017 175.952 54.0175 170.333 54.3807 170.119C54.5516 170.013 56.7737 168.581 59.2948 166.936C61.816 165.291 63.9312 163.945 63.9953 163.923C64.0594 163.923 65.32 165.205 66.7943 166.765ZM106.449 172.854C107.368 173.645 109.184 175.226 110.487 176.358C112.859 178.409 112.859 178.409 105.937 183.473C100.381 187.533 98.9286 188.516 98.6081 188.366C98.3944 188.259 96.3433 186.422 94.0571 184.285C89.378 179.926 88.9721 180.76 98.5012 174.927C100.381 173.794 102.454 172.512 103.095 172.128C104.612 171.188 104.526 171.166 106.449 172.854ZM135.421 175.162C139.331 178.644 139.139 178.046 137.045 179.926C134.417 182.319 133.883 183.965 135.293 185.375C136.725 186.806 137.686 186.464 143.241 182.554C143.583 182.319 143.84 182.469 145.314 183.751C147.472 185.61 152.343 189.669 152.942 190.118C153.518 190.524 152.258 191.784 148.391 194.69C145.698 196.741 146.126 196.699 143.904 194.968C132.366 185.866 123.82 178.879 123.863 178.559C123.905 178.345 131.704 172.299 132.003 172.277C132.088 172.256 133.627 173.559 135.421 175.162ZM76.7721 177.021C79.4001 179.649 79.4001 179.649 77.4131 181.016C76.3234 181.764 74.251 183.238 72.7981 184.264C71.3666 185.289 70.106 186.144 70.0205 186.144C69.5505 186.144 64.3372 180.567 64.6363 180.354C64.8072 180.247 66.9866 178.858 69.4436 177.277C74.7851 173.837 73.6527 173.88 76.7721 177.021ZM119.953 184.285C120.957 185.14 122.089 186.08 122.452 186.358C122.816 186.657 124.739 188.195 126.726 189.797C128.713 191.4 132.366 194.263 134.823 196.164C137.302 198.087 139.331 199.711 139.374 199.797C139.566 200.331 131.917 202.553 127.132 203.343C119.012 204.668 117.068 204.689 115.722 203.386C115.06 202.745 112.175 200.224 109.291 197.788C106.407 195.353 104.035 193.301 103.992 193.216C103.971 193.109 106.321 191.314 109.227 189.178C112.133 187.063 115.295 184.734 116.235 184.029C118.307 182.469 117.773 182.426 119.953 184.285ZM61.581 187.255C64.9568 190.631 64.8713 190.032 62.3502 191.934C60.1922 193.536 56.3463 196.592 53.9961 198.557C52.65 199.669 52.65 199.669 51.1117 199.391C47.7786 198.814 40.4929 196.87 40.4929 196.592C40.4929 196.464 50.7485 189.477 57.1582 185.204C58.6966 184.2 58.3547 184.029 61.581 187.255ZM88.5447 188.751C92.882 192.96 92.882 192.96 91.1941 194.177C90.2754 194.861 88.2456 196.357 86.6859 197.511C85.1262 198.664 83.7801 199.604 83.6947 199.604C83.1819 199.604 74.3792 190.631 74.6783 190.438C74.8492 190.31 76.9217 188.921 79.2719 187.34C84.4211 183.858 83.3528 183.687 88.5447 188.751ZM73.1827 198.793C75.6397 201.185 77.3704 203.023 77.1567 203.023C76.708 203.023 61.8374 201.143 60.5768 200.929C59.6581 200.78 59.6581 200.78 64.1235 197.639C66.5806 195.908 68.6531 194.519 68.7172 194.541C68.8027 194.562 70.811 196.485 73.1827 198.793ZM99.9114 199.241C101.022 200.203 102.839 201.762 103.95 202.681C105.061 203.621 106.129 204.519 106.3 204.689C106.663 205.031 100.702 204.946 93.1598 204.497C87.0705 204.155 87.1132 204.583 92.7752 200.758C98.544 196.87 97.4757 197.105 99.9114 199.241Z" fill="black"/>
<path d="M171.487 171.956C170.034 173.003 169.927 174.606 170.91 179.712C175.888 205.052 163.496 214.517 122.538 216.696C98.7362 217.957 83.6519 217.487 59.2521 214.773C36.5615 212.252 31.7755 210.5 28.6989 203.663C27.3955 200.779 27.1605 200.416 26.5195 200.01C26.135 199.775 25.4726 199.604 24.9385 199.604C20.1311 199.604 23.7206 210.458 29.8954 214.603C30.6218 215.094 31.22 215.5 31.2414 215.521C31.2628 215.521 31.1987 216.12 31.0918 216.825C29.7672 225.328 29.8526 267.269 31.22 281.435C32.7156 296.925 36.1128 306.113 41.027 307.929C46.8812 310.087 50.8767 302.801 52.9705 286.114C54.3166 275.495 54.5943 268.829 54.7439 243.34C54.808 231.268 54.8721 221.397 54.8934 221.397C54.9148 221.397 57.5214 221.675 60.6836 222.038C63.8671 222.38 67.6275 222.764 69.0377 222.914C71.6229 223.17 71.6229 223.17 71.7511 228.106C72.1357 244.216 74.2509 260.133 77.0285 268.081C80.7248 278.572 87.4978 279.106 90.3822 269.15C92.476 261.907 94.1853 245.006 94.2067 231.182C94.228 224.388 94.228 224.388 98.9285 224.388C101.514 224.388 104.719 224.324 106.065 224.239C108.479 224.11 108.479 224.11 108.351 228.576C106.578 292.396 111.983 325.684 123.606 322.458C128.819 321.005 135.4 294.062 137.28 266.564C138.071 254.856 137.729 231.097 136.661 224.025C136.49 222.893 136.49 222.893 137.152 222.807C137.515 222.743 139.31 222.487 141.126 222.252C146.489 221.504 151.916 220.307 155.826 218.961C157.364 218.427 157.364 218.427 157.364 223.491C157.364 253.36 162.364 281.392 168.581 286.52C175.183 291.947 179.777 281.82 181.294 258.467C182.426 241.182 179.798 213.192 176.294 205.308C175.76 204.091 175.76 204.091 176.594 202.339C181.871 191.057 177.897 167.32 171.487 171.956ZM171.038 215.457C174.329 234.751 174.842 259.15 172.299 274.384C171.743 277.76 171.701 277.803 171.103 275.88C168.731 268.252 166.509 256.33 164.97 242.87C164.223 236.46 163.859 232.507 163.133 222.893C162.898 219.773 162.663 216.974 162.62 216.675C162.535 216.205 162.642 216.055 163.304 215.756C164.629 215.137 167.022 213.577 168.581 212.338C170.376 210.906 170.205 210.693 171.038 215.457ZM39.2536 218.705C40.2364 218.983 42.5012 219.474 44.3173 219.816C47.6077 220.435 47.6077 220.435 47.4581 223.961C47.3726 225.905 47.2017 238.49 47.1163 251.95C46.924 275.88 46.8385 278.957 46.1334 285.708C45.4284 292.738 43.6763 300.664 42.8431 300.664C42.2448 300.664 40.5783 295.024 39.7664 290.174C38.5485 282.952 38.2067 277.269 37.9289 258.467C37.5657 233.661 37.2879 219.624 37.1384 218.876C37.0102 218.042 36.9888 218.042 39.2536 218.705ZM129.888 227.849C129.952 230.349 130.123 234.281 130.23 236.567C131.063 254.087 129.439 278.487 126.298 295.665C124.952 302.993 122.26 313.719 121.854 313.313C120.636 312.095 118.136 301.583 117.09 293.293C115.765 282.738 115.551 277.76 114.846 239.985C114.739 233.575 114.611 227.379 114.568 226.204C114.526 224.068 114.526 224.068 119.119 223.918C123.093 223.769 129.225 223.448 129.61 223.341C129.674 223.341 129.802 225.371 129.888 227.849ZM80.8744 223.854C87.626 224.153 86.985 223.683 87.1559 228.426C87.4764 237.55 86.4295 254.45 85.0193 263.018C84.2502 267.654 84.2502 267.654 83.4596 265.09C81.2803 258.061 79.4001 246.31 77.8831 230.264C77.6481 227.785 77.4131 225.264 77.3276 224.645C77.2208 223.555 77.2208 223.512 77.7122 223.619C77.99 223.683 79.4001 223.79 80.8744 223.854Z" fill="black"/>
</svg>
