<svg width="114" height="303" viewBox="0 0 114 303" fill="none" xmlns="http://www.w3.org/2000/svg">
<path d="M56.8931 1.26028C46.7229 2.41404 44.3727 6.62312 45.3342 22.0493C45.7401 28.5445 45.5905 30.2538 44.565 30.8948C42.1934 32.3904 42.0865 35.5098 44.3086 37.6037C45.5264 38.7361 45.441 74.4385 44.2018 80.3782C43.0266 86.0615 40.3773 89.6723 30.9976 98.3683C5.48677 122.042 0.593986 142.724 0.508522 227.375C0.46579 290.277 2.26052 294.507 31.2754 299.357C68.0461 305.511 95.6508 301.408 104.133 288.546C112.252 276.218 113.235 265.578 113.278 189.772C113.32 128.58 112.615 119.008 107.338 107.919C103.962 100.847 100.287 97.4495 90.6512 92.4285C81.6348 87.7494 80.0324 85.2496 78.4299 73.3061C77.6394 67.4304 77.8958 37.625 78.7504 36.9841C81.2288 35.0825 80.4383 31.023 77.2762 29.4205C76.507 29.0146 76.507 29.0146 76.3574 24.891C75.5669 2.24312 73.2166 -0.598548 56.8931 1.26028ZM67.3197 7.69142C68.3239 8.1401 68.8153 9.1443 69.2853 11.7937C69.9049 15.3618 70.3963 32.5186 69.8836 32.7109C68.3666 33.2878 51.9789 33.245 51.3807 32.6468C51.2952 32.5613 51.3166 31.6212 51.4448 30.5743C51.573 29.5274 51.7226 24.5277 51.7867 19.4854C51.9362 9.22976 51.9789 8.80244 53.0472 8.35376C55.6966 7.2641 65.3113 6.79405 67.3197 7.69142ZM71.9133 40.4667C71.8065 41.2359 71.6569 44.7185 71.5715 48.2011C71.4219 54.5254 71.4219 54.5254 70.2468 54.675C65.6958 55.2305 58.5169 55.5296 54.0728 55.3374C50.8038 55.2092 50.8038 55.2092 50.8038 53.158C50.8038 51.0855 50.5047 44.8253 50.2483 41.6845C50.1201 39.9753 50.1201 39.9753 54.8633 40.0607C59.6279 40.1676 65.4822 39.8898 69.499 39.3557C70.6741 39.2061 71.7424 39.0779 71.8706 39.0565C72.0202 39.0352 72.0415 39.4625 71.9133 40.4667ZM72.2765 80.5491C74.114 90.356 78.4086 95.6334 87.9164 99.8211C101.719 105.932 105.03 114.136 106.141 145.01C106.996 168.897 106.996 194.622 106.141 241.584C105.33 285.982 100.244 293.567 70.14 295.447C53.7096 296.473 28.9465 293.567 19.1396 289.465C10.5505 285.854 8.99078 281.794 7.62336 259.318C7.04648 249.788 7.19604 212.12 7.85839 193.19C9.03351 160.223 12.4093 137.831 18.114 125.118C21.8317 116.786 24.8656 112.961 36.7664 101.53C46.4665 92.2362 49.2868 87.7494 50.462 79.7372C50.6543 78.4552 50.8466 77.387 50.8679 77.3442C50.9107 77.3229 52.2781 77.4938 53.9232 77.7502C59.8202 78.6475 66.465 78.3271 70.14 76.981C71.6569 76.4255 71.4219 76.0409 72.2765 80.5491Z" fill="black"/>
<path d="M67.7474 101.867C60.8462 103.192 56.2312 126.63 62.5341 128.34C65.1835 129.045 65.8672 127.912 65.8886 122.614C65.9313 116.439 67.491 108.683 68.7089 108.683C69.5421 108.683 70.5463 115.52 70.7813 122.784C70.9523 127.998 71.401 129.643 72.8752 130.391C75.9733 132.015 77.768 126.929 77.127 118.34C76.251 106.61 72.9607 100.842 67.7474 101.867Z" fill="black"/>
<path d="M37.1303 110.462C30.3787 112.022 27.943 120.355 31.9171 128.303C35.5493 135.546 40.378 133.302 37.3226 125.782C32.2162 113.219 43.9674 114.009 50.89 126.7C53.6675 131.785 58.0903 130.269 56.2742 124.842C53.2189 115.74 44.0743 108.86 37.1303 110.462Z" fill="black"/>
<path d="M92.2107 112C85.0959 113.945 77.2973 130.033 83.408 130.119C84.9249 130.14 85.5873 129.606 86.6983 127.448C88.6212 123.73 92.0825 119.158 92.9799 119.158C93.1081 119.158 93.1294 121.102 93.044 124.051C92.8517 130.396 93.3217 132.127 95.3301 132.49C98.2786 133.046 100.372 128.602 100.372 121.85C100.372 114.693 97.0394 110.676 92.2107 112Z" fill="black"/>
<path d="M86.3789 136.657C84.4347 137.191 82.704 137.853 79.5419 139.306C68.8803 144.178 66.2523 145.225 62.15 146.229C55.5693 147.874 51.7021 147.084 43.3481 142.34C36.5537 138.494 31.4473 139.157 27.11 144.413C21.6617 151.015 19.3328 164.198 23.4137 165.309C25.2084 165.779 26.6613 164.539 26.6613 162.51C26.6827 158.856 29.8662 150.78 32.366 148.002C34.994 145.096 36.1691 145.182 41.8311 148.579C54.1378 155.972 61.3595 155.587 80.4179 146.592C88.0241 143.003 90.0112 142.362 90.8231 143.259C92.5323 145.139 93.1947 152.553 92.981 167.36C92.8101 178.128 92.9169 179.175 94.3271 180.521C98.4079 184.41 101.164 174.603 100.395 158.92C99.4976 140.503 95.5022 134.179 86.3789 136.657Z" fill="black"/>
<path d="M79.4342 156.14C79.0283 156.397 78.2164 157.016 77.6395 157.529C75.6097 159.367 74.1141 159.431 70.3323 157.914C66.5506 156.376 64.4567 156.461 59.6494 158.277C54.543 160.2 53.5601 160.264 48.881 159.004C41.6593 157.059 37.4503 157.529 34.3308 160.627C31.2969 163.619 34.3095 166.93 37.9844 164.665C40.2278 163.277 42.2789 163.255 46.5308 164.623C52.6628 166.588 55.8463 166.503 61.7646 164.217C65.3114 162.849 65.8241 162.828 68.6444 163.96C74.9901 166.524 79.8402 165.413 83.1092 160.67C85.2885 157.487 82.6177 154.218 79.4342 156.14Z" fill="black"/>
<path d="M44.1811 169.855C29.7164 174.022 37.4722 206.327 55.8896 218.698C69.0082 227.522 79.7766 217.459 86.7847 189.811C91.4424 171.458 82.4474 167.334 68.2177 181.35C66.2948 183.252 66.2948 183.252 64.9914 181.265C59.4363 172.911 50.5267 168.018 44.1811 169.855ZM50.8045 176.543C55.6973 178.893 59.9277 184.213 62.0216 190.644C63.7095 195.879 68.5382 196.05 68.5382 190.858C68.5382 188.487 80.439 178.637 81.7423 179.94C83.0884 181.265 78.4733 196.691 74.0933 205.494C69.2005 215.365 65.4829 217.288 59.2227 213.121C43.6256 202.716 35.9552 169.428 50.8045 176.543Z" fill="black"/>
<path d="M23.3919 170.177C22.3236 171.352 22.3236 171.801 23.1142 176.907C25.4858 191.992 26.2763 206.734 25.4858 220.643C25.3149 223.635 25.1653 228.1 25.1653 230.579C25.1653 234.681 25.2721 236.476 26.0413 244.894C26.3618 248.44 26.1909 252.073 25.5926 254.273C25.1226 256.004 24.6739 257.2 22.3236 262.627C19.5247 269.144 19.3324 272.349 21.6827 274.507C24.6525 277.284 28.3061 276.067 37.237 269.379C46.2962 262.606 48.6892 261.816 53.0905 264.187C65.0341 270.576 70.3969 270.447 77.0417 263.589C78.11 262.499 79.0287 261.324 79.3492 260.64C80.0543 259.145 80.5243 259.145 82.7677 260.726C88.4511 264.721 92.2542 264.401 95.4163 259.658C99.0058 254.316 99.6895 245.983 97.7025 232.331C96.6769 225.258 96.5487 223.806 96.3137 217.332C95.9719 207.653 95.3309 205.687 92.4892 205.687C89.968 205.687 89.6689 206.884 89.904 216.477C90.0962 224.083 90.2244 225.472 91.5064 233.249C93.2798 244.018 93.0447 251.624 90.844 255.684C89.5835 258.012 89.1989 258.055 86.5068 256.111C81.2294 252.35 76.0589 252.906 74.1146 257.457C73.6872 258.461 71.4866 260.619 69.6918 261.816C67.2775 263.418 63.5598 262.692 57.9619 259.529C49.6293 254.829 45.1851 255.705 33.7117 264.315C29.7162 267.328 26.8746 269.165 26.8746 268.759C26.8746 268.375 27.366 267.093 28.9043 263.482C32.387 255.342 33.028 251.133 32.1306 242.757C31.9383 241.112 31.6819 237.928 31.5537 235.664C31.2973 231.497 31.2973 231.497 32.0238 216.691C32.7075 203.487 30.5709 182.142 27.601 172.122C26.9814 170.028 24.5457 168.895 23.3919 170.177Z" fill="black"/>
<path d="M95.8861 186.05C91.4634 186.456 89.8182 190.451 93.7709 191.242C98.3645 192.161 103.001 190.793 103.001 188.528C103.001 186.264 101.035 185.58 95.8861 186.05Z" fill="black"/>
<path d="M17.2594 198.64C13.3067 198.961 12.0888 199.922 12.7512 202.23C13.734 205.606 24.3742 204.473 24.3742 200.991C24.3742 198.897 22.3444 198.235 17.2594 198.64Z" fill="black"/>
<path d="M97.7027 199.086C93.6004 199.791 93.6432 204.171 97.7668 204.769C102.638 205.453 105.352 204.449 105.352 201.928C105.352 199.471 102.254 198.317 97.7027 199.086Z" fill="black"/>
<path d="M15.5288 211.48C11.5975 211.694 10.0378 213.531 11.7898 215.817C13.4563 218.018 20.8489 217.12 21.6822 214.642C22.4941 212.164 20.6139 211.202 15.5288 211.48Z" fill="black"/>
<path d="M68.3449 226.969C64.3281 228.422 61.9138 232.717 62.6402 237.054C62.7898 237.908 62.8752 238.592 62.8325 238.592C62.4906 238.592 60.1404 237.438 57.6406 236.05C48.9019 231.157 42.8981 232.482 38.4968 240.237C35.7619 245.045 40.206 247.309 43.7955 242.929C47.4918 238.379 48.8165 238.293 55.7604 242.182C59.5849 244.297 61.5933 244.874 65.3323 244.916C68.003 244.938 68.5586 245.002 69.285 245.387C75.6734 248.655 86.2495 244.916 86.8478 239.19C87.1469 236.263 84.2839 236.028 80.8012 238.699C77.9596 240.9 73.8573 241.818 75.2674 239.96C80.4807 233.165 75.7375 224.277 68.3449 226.969ZM71.1866 232.738C72.1053 233.635 70.161 237.738 68.815 237.738C68.4517 237.738 68.0458 236.092 68.1953 235.195C68.4517 233.55 70.4174 231.947 71.1866 232.738Z" fill="black"/>
<path d="M92.5314 271.388C91.869 271.965 91.4631 272.606 90.7794 274.229C88.4932 279.635 84.6901 280.361 83.5791 275.618C82.5962 271.43 78.3444 271.601 76.9129 275.896C75.7592 279.272 73.0884 282.391 71.3364 282.391C70.0972 282.391 68.8793 279.72 68.9221 277.071C68.9862 272.114 63.9438 271.089 62.555 275.789C60.3971 283.032 52.278 284.485 50.9106 277.883C50.056 273.695 46.3597 273.417 44.4795 277.413C42.7061 281.131 38.5398 283.673 36.6382 282.177C35.9118 281.601 35.6767 280.767 35.5486 278.374C35.3135 273.866 31.1899 272.926 30.3139 277.178C28.2628 287.476 37.9843 292.796 45.8683 285.66C47.1716 284.485 47.1716 284.485 48.304 285.446C52.4917 289.036 59.2861 288.972 63.5165 285.318C64.3711 284.57 64.3711 284.57 65.5035 285.831C69.5203 290.254 76.6565 288.95 80.5665 283.053C80.9297 282.519 80.9297 282.519 81.5279 282.968C87.0403 287.028 94.7962 283.652 96.655 276.345C97.7447 272.114 95.2235 269.08 92.5314 271.388Z" fill="black"/>
</svg>
