<svg width="79" height="91" viewBox="0 0 79 91" fill="none" xmlns="http://www.w3.org/2000/svg">
<path d="M22.5442 0.570649C19.4462 1.70304 16.3054 6.21124 15.6217 10.5272C15.4294 11.6595 15.3653 11.6809 13.7842 10.9331C7.35306 7.92051 0.580078 10.9117 0.580078 16.7233C0.580078 22.7698 8.61365 26.6798 16.519 24.4791C16.9463 24.3722 17.0104 24.5218 17.4591 26.3593C18.1001 28.9445 19.788 33.9228 21.0059 36.7431C22.1383 39.4138 22.2451 39.2643 20.023 38.4524C9.9597 34.8629 1.28515 39.9053 2.90896 48.3661C4.91735 58.6431 19.3821 61.5703 28.1848 53.4726C29.2745 52.4684 29.2745 52.4684 30.8769 54.8186C34.2527 59.8183 37.9276 64.2837 42.2649 68.7278C44.9998 71.5054 44.9998 71.5054 41.0043 71.5054C30.0436 71.5268 22.651 77.0605 24.6808 83.7267C27.6934 93.4695 46.9654 92.0167 54.9135 81.4619C55.8536 80.18 55.8536 80.18 57.221 81.0987C65.6819 86.7606 76.0444 90.5851 77.9246 88.7049C79.5911 87.0384 77.54 85.1155 69.6987 80.9705C65.5965 78.8339 60.4046 75.7786 60.4046 75.5222C60.4046 75.4581 60.896 74.6248 61.5156 73.6847C70.0192 60.3951 67.0066 43.452 55.7468 41.465C47.0509 39.9266 43.611 50.9301 48.4397 64.8606C49.0165 66.5912 48.9952 66.5699 46.709 64.1983C39.701 56.8698 34.1886 49.3703 35.2355 48.5584C44.5083 41.4009 49.102 31.9785 45.833 26.8721C41.7521 20.5264 32.5007 26.2952 29.3599 37.1704C29.0822 38.1319 28.8044 38.9652 28.7403 39.0292C28.5694 39.2002 25.5141 32.5127 24.2962 29.3505C23.3561 26.8721 21.6468 21.4024 21.775 21.2956C21.8178 21.2528 22.4587 20.9323 23.2279 20.5478C30.3855 16.9797 33.7399 10.9758 31.7743 5.24978C30.4282 1.33982 26.2191 -0.775402 22.5442 0.570649ZM26.2191 6.70266C27.5011 8.79652 25.8987 11.8305 22.2237 14.3089C20.3863 15.5481 20.3863 15.5481 21.0913 12.8133C22.3946 7.60003 24.9372 4.58744 26.2191 6.70266ZM10.8357 16.6164C12.7586 17.1933 14.8098 18.6035 14.1047 18.8598C12.2459 19.6077 6.98984 18.1548 6.98984 16.9156C6.98984 16.2959 9.16916 16.125 10.8357 16.6164ZM40.9616 30.6538C40.9616 32.4486 38.7609 36.1876 36.0261 39.0292C33.9536 41.1872 33.975 41.1872 34.68 39.0292C36.2184 34.3288 40.9616 28.0044 40.9616 30.6538ZM18.7624 44.6912C20.7708 45.3536 23.9116 46.8919 24.9372 47.7038C25.5568 48.1739 25.1936 48.6012 22.822 50.1822C17.6087 53.6435 9.93834 51.8274 9.59648 47.0415C9.38282 44.0075 13.5492 42.9392 18.7624 44.6912ZM56.0459 47.4688C61.4088 50.0754 62.1352 58.4295 57.7979 67.5954C56.4519 70.4371 56.6014 70.4585 55.2981 67.1681C50.4908 54.9682 50.8754 44.969 56.0459 47.4688ZM47.7773 77.9365C50.4481 78.4066 50.4481 78.3852 48.632 79.9236C43.6323 84.154 37.0944 85.7351 32.7144 83.8122C25.8773 80.7782 37.6713 76.1845 47.7773 77.9365Z" fill="black"/>
</svg>
