<svg width="191" height="205" viewBox="0 0 191 205" fill="none" xmlns="http://www.w3.org/2000/svg">
<path d="M134.929 0.611999C131.703 1.65893 129.31 5.29114 121.233 21.4651C109.162 45.6727 105.807 56.9325 110.657 56.9325C113.136 56.9325 113.905 55.7146 118.52 44.7967C124.395 30.9088 129.481 20.4182 134.074 12.6624C135.826 9.71387 135.762 9.71387 136.467 12.6624C138.967 23.1103 137.877 36.9554 133.796 46.57C131.809 51.2278 135.1 54.7318 138.903 51.997C148.389 45.1599 160.504 40.4594 172.191 39.092C176.421 38.6006 182.147 38.7715 182.81 39.3911C183.109 39.6689 180.118 41.9764 168.431 50.5227C147.364 65.9062 148.646 64.4533 148.026 73.5124C146.36 97.955 138.176 116.437 120.464 135.773C97.7949 160.536 74.7625 175.406 47.991 182.564C37.0731 185.491 24.2749 187.072 21.8819 185.79C19.489 184.508 18.2284 162.651 19.8308 150.131C22.3306 130.559 31.0906 113.958 47.6065 97.4209C63.6522 81.3323 88.3512 65.5429 101.406 63.0004C103.991 62.509 104.739 61.7826 104.568 59.9451C103.927 52.8516 77.3691 63.4918 56.2596 79.3239C21.1128 105.689 7.22493 136.755 12.5878 177.009C14.5748 191.922 17.5233 194.166 32.6503 192.307C68.1391 187.948 98.6709 170.984 125.72 140.58C145.548 118.274 154.286 99.0447 155.932 74.0466C156.231 69.282 156.231 69.2606 156.829 68.6196C158.089 67.2736 162.534 63.8764 172.063 56.9325C188.985 44.6044 190.779 42.8737 190.758 38.8783C190.694 29.2637 167.939 29.4987 146.338 39.327C142.898 40.8867 143.112 40.8867 143.518 39.2843C148.453 19.6917 143.603 -2.2083 134.929 0.611999Z" fill="black"/>
<path d="M94.9958 24.1603C65.2972 28.4762 23.8688 56.8288 10.8142 81.72C-0.167849 102.701 -4.206 147.399 5.47275 141.053C6.84016 140.156 7.13928 138.852 7.67343 131.46C7.80163 129.622 7.80163 129.622 8.5708 129.473C16.0275 128.084 20.5143 117.209 16.3053 110.692C15.9207 110.073 15.8352 109.838 16.0489 109.752C22.7577 107.53 26.0908 96.5052 21.9672 90.245C21.4544 89.4545 21.4544 89.4545 23.0996 88.8776C30.364 86.3564 36.9233 77.8101 35.62 72.5968C35.4918 72.1054 35.5132 72.0626 35.9832 72.2122C43.6109 74.6479 57.7551 63.2172 57.7551 54.6281C57.7551 54.2007 57.7764 54.2007 58.9516 54.7349C65.1477 57.5766 72.7326 53.1752 74.4418 45.7185C74.6769 44.6288 74.6769 44.6288 76.087 45.0989C84.8684 48.0687 95.0813 39.6079 92.9661 31.1042C92.8806 30.6983 96.5128 29.7154 100.166 29.1599C103.585 28.6258 104.205 28.1985 104.205 26.4037C104.205 23.9253 101.32 23.2202 94.9958 24.1603ZM84.5906 34.2236C83.3087 36.6594 79.9542 38.155 77.3049 37.4285C76.2579 37.1508 76.2579 37.1508 77.0912 36.8089C77.5613 36.6166 79.4415 35.8261 81.2576 35.0569C85.0607 33.4331 84.9966 33.4545 84.5906 34.2236ZM66.0664 43.7742C65.0836 46.4449 63.0538 47.6842 60.8745 47.0004C58.6738 46.3167 58.6524 46.3595 62.712 44.0947C66.7074 41.8513 66.7928 41.8513 66.0664 43.7742ZM49.9993 53.1325C49.4651 57.6407 43.4827 63.3881 38.483 64.2427C37.1156 64.4777 34.6799 64.3282 34.6799 64.0077C34.6799 63.3881 49.1233 52.0428 49.9352 52.0214C50.042 52.0214 50.0634 52.5342 49.9993 53.1325ZM28.7188 72.554C28.7188 76.9127 24.9157 81.2286 20.1938 82.2542C19.1896 82.4678 20.5143 80.1176 24.0611 75.4171C28.2274 69.8833 28.7188 69.5842 28.7188 72.554ZM15.6856 94.4327C16.7967 96.8471 15.6002 100.308 12.9294 102.359C11.562 103.406 11.562 103.385 12.3739 100.287C14.361 92.7662 14.6601 92.232 15.6856 94.4327ZM11.3911 114.901C12.2671 116.91 11.5834 119.303 9.59636 121.226C8.31441 122.465 8.33577 122.55 8.93402 118.256C9.76729 112.145 9.63909 112.572 10.3442 113.256C10.6647 113.555 11.1347 114.303 11.3911 114.901Z" fill="black"/>
<path d="M114.482 60.885C111.918 61.5687 109.482 66.0769 109.461 70.1792C109.439 74.8369 112.751 78.7042 117.323 79.4092C118.862 79.6656 118.862 79.6656 118.862 80.4134C118.904 89.4939 130.613 94.9636 135.42 88.1479C137.642 84.9857 134.245 81.5672 130.848 83.5756C127.686 85.413 126.233 83.6183 126.233 77.8709C126.233 73.9396 126.169 73.7045 124.78 72.6362C123.861 71.9525 122.451 71.7816 121.062 72.2089C116.618 73.555 114.674 69.9869 117.238 65.1582C118.178 63.4062 117.601 60.7782 116.276 60.7782C116.191 60.7782 115.999 60.7354 115.828 60.6927C115.678 60.6286 115.08 60.7141 114.482 60.885Z" fill="black"/>
<path d="M177.02 70.6279C176.079 71.2475 175.78 72.3799 176.25 73.5978C176.656 74.6447 177.831 78.9393 177.831 79.3452C177.831 79.6016 177.49 79.7725 176.55 79.9435C162.085 82.6783 157.876 103.66 169.819 113.36C171.507 114.727 171.614 114.385 169.05 115.71C159.2 120.774 156.401 130.004 162.063 138.721C162.533 139.447 162.897 140.088 162.854 140.131C162.811 140.153 162.192 140.302 161.487 140.452C154.308 141.969 149.201 148.784 149.137 156.968C149.116 159.66 149.116 159.66 147.3 159.553C140.569 159.125 134.801 164.745 134.309 172.244C134.181 173.996 134.181 173.996 133.348 173.569C125.955 169.808 115.336 175.299 112.452 184.38C112.067 185.619 112.089 185.619 111.106 184.935C103.542 179.765 93.1584 182.137 88.458 190.149C87.9879 190.961 87.5606 191.687 87.5392 191.708C87.5179 191.751 86.8555 191.26 86.0863 190.597C78.8006 184.423 65.981 186.282 61.8361 194.144C61.3019 195.127 61.3019 195.127 58.2893 194.999C50.5121 194.721 48.8242 200.063 56.0245 202.22C76.0871 208.182 111.341 203.93 133.497 192.884C168.751 175.257 186.634 144.447 186.656 101.267C186.656 82.4433 181.934 67.4444 177.02 70.6279ZM179.199 85.9259C180.139 90.4769 180.673 103.254 180.182 109.3C180.054 110.86 177.896 110.219 174.392 107.57C167.042 102.036 168.473 90.776 177.084 86.2678C179.135 85.1995 179.049 85.1995 179.199 85.9259ZM179.327 119C179.327 121.906 175.716 137.46 174.648 139.17C174.157 139.96 168.473 135.046 167.277 132.781C164.585 127.76 168.751 122.077 177.19 119.235C179.071 118.594 179.327 118.573 179.327 119ZM171.55 146.584C170.93 149.019 165.546 157.352 161.209 162.544C159.478 164.616 159.5 164.616 157.598 160.899C154.863 155.515 157.577 148.635 163.196 146.797C166.123 145.857 171.764 145.708 171.55 146.584ZM149.329 167.415C150.91 167.885 154.329 169.488 154.329 169.766C154.329 170.343 142.984 179.615 142.663 179.295C142.385 179.038 141.937 175.641 141.937 173.889C141.937 168.441 144.714 166.005 149.329 167.415ZM131.916 181.325C134.181 182.457 135.719 183.824 135.185 184.209C133.006 185.811 119.994 191.666 119.567 191.238C119.332 191.003 120.229 187.948 121.02 186.239C123.37 181.154 127.664 179.209 131.916 181.325ZM104.611 188.952C106.64 189.508 110.956 192.691 110.956 193.631C110.956 194.037 100.124 195.853 95.7651 196.153C93.308 196.323 93.4576 196.537 94.3122 194.187C95.936 189.85 100.124 187.713 104.611 188.952ZM77.7323 193.909C79.3134 194.208 80.7235 194.913 81.6636 195.896C82.5182 196.772 81.0226 196.9 74.9547 196.452C68.609 196.003 68.7586 196.024 69.4423 195.576C71.6644 194.101 75.0829 193.418 77.7323 193.909Z" fill="black"/>
<path d="M93.0515 70.7958C91.4277 71.3514 89.7825 72.9538 88.8424 74.834C85.8299 80.966 89.1416 87.8031 95.7436 89.0209C97.047 89.256 97.0683 89.2773 97.0683 89.9397C97.0683 95.7298 102.367 100.943 108.221 100.943C109.674 100.943 109.674 100.943 109.674 102.396C109.674 110.964 119.652 117.502 126.04 113.1C128.69 111.284 127.899 107.502 124.759 107.054C124.395 106.99 123.284 106.84 122.28 106.733C117.836 106.156 116.169 104.041 116.255 99.1484C116.34 94.6402 115.037 93.401 111.02 94.2129C106.256 95.153 104.205 93.3155 103.969 87.8672C103.777 83.5513 102.901 82.6112 98.7562 82.3548C94.3976 82.0984 92.8592 78.8935 95.53 75.5604C96.9188 73.8298 97.1751 72.8897 96.5983 71.8428C95.765 70.4113 94.9104 70.1549 93.0515 70.7958Z" fill="black"/>
<path d="M64.4205 87.4023C62.0062 88.0433 60.1901 90.3294 59.485 93.6411C58.3526 99.0253 62.0703 104.474 67.6895 105.649C68.8219 105.884 68.8646 105.927 68.8646 106.589C68.8646 112.4 75.5094 117.507 83.6712 117.977C85.9573 118.105 85.9573 118.105 85.9573 119.943C85.9787 126.63 90.6365 131.501 97.0676 131.501C98.2854 131.501 98.2854 131.501 98.5418 132.933C99.311 137.121 102.366 140.176 106.212 140.667C112.857 141.501 114.759 135.796 108.498 133.894C106.041 133.147 105.4 131.993 105.785 129.066C106.105 126.716 105.721 125.669 104.161 124.579C103.135 123.852 102.089 123.767 99.0973 124.194C94.1618 124.857 92.3885 122.763 93.0081 116.973C93.5422 112.165 92.6448 111.375 86.4915 111.183C78.7357 110.947 75.894 108.982 76.2145 104.089C76.4495 100.585 75.2317 99.239 71.8131 99.239C66.8135 99.239 64.3991 94.7308 67.604 91.4191C68.8646 90.1158 68.5655 88.0005 67.0485 87.3596C66.1725 86.9963 65.8734 86.9963 64.4205 87.4023Z" fill="black"/>
<path d="M48.2902 106.5C45.3417 107.376 45.1707 115.281 47.9697 120.644C50.2986 125.131 56.0674 128.913 60.5969 128.934C61.3447 128.934 61.4088 128.977 61.2593 129.404C58.5672 137.887 66.323 146.732 76.4718 146.753C79.2921 146.775 79.2921 146.775 79.4203 147.822C79.9331 152.159 85.0609 156.582 88.5008 155.663C89.4195 155.407 91.0006 154.125 90.7228 153.868C90.6587 153.783 90.6801 153.719 90.8083 153.719C91.1074 153.719 91.0006 152.394 90.6374 151.497C90.3169 150.727 89.8682 150.3 88.3939 149.339C86.2787 147.971 85.7659 146.732 86.1933 144.04C86.8342 140.173 84.5054 138.741 79.4416 139.916C70.8098 141.903 65.1692 135.835 68.3955 128.015C70.1047 123.892 68.7373 122.183 63.9514 122.439C56.4306 122.824 51.7728 118.23 51.7728 110.431C51.7728 107.077 50.6191 105.795 48.2902 106.5Z" fill="black"/>
<path d="M37.7787 134.574C34.0824 136.283 33.4628 141.048 36.6677 143.184C39.1461 144.851 42.4792 143.953 44.0175 141.218C46.2609 137.18 41.9664 132.608 37.7787 134.574Z" fill="black"/>
</svg>
