<svg width="102" height="95" viewBox="0 0 102 95" fill="none" xmlns="http://www.w3.org/2000/svg">
<path d="M62.6372 1.09653C61.8039 1.50248 59.9878 3.29721 58.0008 5.64746C56.4838 7.46356 56.4838 7.46356 56.3556 5.73292C55.9711 0.498283 50.4587 -0.8905 49.2622 3.91682C48.9844 5.04922 48.9844 5.04922 48.1298 4.28004C43.1088 -0.313621 37.4468 4.04503 41.5277 9.3865C42.0619 10.0916 42.0619 10.0916 40.4167 9.70699C27.4049 6.58757 14.5212 11.5231 6.06034 22.847C0.483842 30.3464 -0.755379 42.6959 4.20151 41.4567C5.35526 41.1789 5.67575 40.5807 7.04317 36.3502C11.5941 22.1633 24.0931 13.6383 37.0409 15.8817C42.9165 16.9073 44.583 17.591 43.472 18.5311C38.9211 22.4197 43.6857 27.2056 48.7921 23.8726C49.839 23.2102 50.7364 22.6547 50.8005 22.6547C50.8646 22.6547 51.0355 23.5093 51.1851 24.5563C52.0825 30.7951 59.1546 30.6883 59.1546 24.4281C59.1546 23.6803 59.1546 23.6803 60.3938 24.5776C65.1584 27.9962 70.564 24.1503 66.7608 20.0267C64.7952 17.8688 76.0336 19.7276 81.9306 22.5265C95.0065 28.7654 98.3823 41.8413 91.3743 59.3399C84.4945 76.5822 72.7219 85.1713 53.9199 86.6669C30.2893 88.5257 10.2694 74.702 6.274 53.7421C5.67575 50.6654 5.12024 49.8962 3.4537 49.8962C0.889794 49.8962 0.270183 53.0156 1.59487 59.4681C8.9661 95.8329 66.1626 107.264 88.96 76.9454C100.818 61.156 104.899 40.7303 98.6601 28.4449C92.9768 17.2491 76.3327 9.42923 63.6841 11.9931C62.9577 12.1427 62.9577 12.1427 64.902 9.49333C68 5.26288 68.3205 4.40824 67.4445 2.6776C66.5472 0.904235 64.4319 0.220526 62.6372 1.09653Z" fill="black"/>
</svg>
