<svg width="258" height="168" viewBox="0 0 258 168" fill="none" xmlns="http://www.w3.org/2000/svg">
<path d="M156.986 1.05099C154.443 1.15781 149.828 1.73469 142.393 2.84572C126.967 5.13187 122.95 5.40963 111.327 4.85411C77.2482 3.25167 57.3565 15.6012 56.5233 38.8259C56.0532 51.8377 60.2409 58.7603 73.9792 67.8194C89.3413 77.9468 102.759 92.732 105.259 102.261C106.113 105.573 109.382 105.68 109.617 102.411C110.429 91.0868 97.8021 74.4428 78.5728 61.5378C67.5694 54.1452 65.2192 50.919 64.3432 41.9453C62.3775 21.9041 79.3847 10.5802 108.87 12.3322C121.54 13.08 127.586 12.7381 143.952 10.4092C171.173 6.52065 175.894 10.0674 175.104 33.8049C174.869 40.8556 174.976 45.3852 175.553 52.3932C176.621 64.9777 175.36 68.9091 167.775 76.558C156.494 87.9033 139.295 94.89 125.108 93.8858C118.655 93.4157 116.134 95.36 119.253 98.3513C127.864 106.663 161.451 95.1464 175.382 79.122C182.454 70.9815 183.778 66.2597 182.689 52.9274C182.283 47.8209 182.219 45.8553 182.261 36.0483C182.347 18.9556 181.279 14.1269 176.172 8.059C172.369 3.55079 164.72 0.410009 158.909 0.944156C158.674 0.965522 157.819 1.00825 156.986 1.05099Z" fill="black"/>
<path d="M191.364 18.3995C185.168 20.1729 187.967 24.0615 197.368 26.7322C215.635 31.9455 218.541 35.0649 219.161 50.1493C219.417 56.089 219.738 59.6357 220.485 64.7849C221.938 74.6132 221.49 78.2668 218.327 82.4545C213.157 89.2916 200.893 92.2187 190.381 89.1206C187.155 88.1805 184.89 86.749 182.668 84.2492C180.894 82.2836 177.86 84.2065 178.459 86.9413C180.617 96.5346 202.453 100.487 215.849 93.7357C226.831 88.2019 230.421 79.8051 228.476 64.2507C227.857 59.1229 227.814 58.6315 227.6 50.7902C227.258 37.5648 225.635 32.6292 219.909 27.3305C213.264 21.1985 198.137 16.4553 191.364 18.3995Z" fill="black"/>
<path d="M93.0601 48.7623C90.7312 49.2751 90.774 52.2236 93.1456 53.4415C96.8419 55.3217 101.329 62.2015 104.427 70.7692C107.375 78.8455 109.02 81.4308 112.973 83.9947C121.178 89.3575 135.984 88.2892 134.766 82.4563C134.318 80.4052 133.121 80.0206 126.754 79.7429C116.734 79.3369 114.939 78.0977 111.136 69.0172C105.41 55.3857 98.4657 47.5872 93.0601 48.7623Z" fill="black"/>
<path d="M44.0678 55.9405C27.3597 58.483 7.48939 71.3025 2.61797 82.6906C-2.93716 95.681 5.28871 105.232 25.4795 109.334C30.1586 110.274 33.3849 111.299 35.7992 112.603C37.5512 113.543 38.8545 114.44 45.3498 119.055C60.7973 130.059 79.3429 129.119 91.7351 116.726C99.4695 108.971 96.8843 102.219 89.0003 109.654C75.5825 122.346 62.4638 123.393 48.2128 112.923C38.4699 105.766 36.0129 104.612 26.7187 102.71C10.0106 99.2919 4.36997 93.3521 9.09184 84.1221C14.3692 73.781 35.4787 61.5811 50.1143 60.4273C54.1311 60.1282 54.6012 59.8504 54.6012 58.0557C54.6012 55.7268 50.7126 54.9363 44.0678 55.9405Z" fill="black"/>
<path d="M189.291 62.5628C183.117 65.9173 181.642 78.7368 186.877 83.7578C192.176 88.8429 203.82 86.7063 202.218 80.9375C201.726 79.1855 200.701 78.9077 195.338 79.1C189.825 79.3137 188.309 73.8013 192.026 67.0283C193.821 63.7379 192.154 61.0031 189.291 62.5628Z" fill="black"/>
<path d="M234.074 63.5885C233.54 64.0372 233.476 64.2508 233.497 65.255C233.54 67.3489 233.989 67.883 240.142 73.3741C248.282 80.6385 250.996 88.5011 247.855 95.7869C246.338 99.355 240.484 98.6926 230.228 93.8426C222.943 90.3813 221.361 95.0604 228.284 99.6114C246.103 111.384 259.82 104.91 256.978 86.0868C255.269 74.6774 239.352 59.0589 234.074 63.5885Z" fill="black"/>
<path d="M236.168 79.2561C231.446 81.5849 231.681 88.9775 236.574 91.4133C241.403 93.8276 244.586 89.5331 240.206 86.5205C238.647 85.4522 238.497 84.5762 239.565 82.9524C241.275 80.3671 238.989 77.8673 236.168 79.2561Z" fill="black"/>
<path d="M39.7511 88.6085C38.5973 89.2495 38.1914 90.8947 38.8323 92.1339C39.2169 92.8817 39.5588 93.074 41.3535 93.6295C44.2379 94.5269 46.0967 96.2575 49.3871 101.172C53.8526 107.816 56.9506 110.359 62.3348 111.833C70.4752 114.055 82.5897 109.504 82.5897 104.227C82.5897 101.3 80.2394 100.894 75.2398 102.988C66.0738 106.834 61.117 105.445 55.049 97.3899C49.5153 89.9973 43.426 86.5147 39.7511 88.6085Z" fill="black"/>
<path d="M13.6432 112.005C12.8527 112.71 11.3998 115.38 10.3101 118.072C0.0545038 143.947 6.35744 167.77 23.4929 167.77C31.8042 167.77 39.8805 162.3 50.6062 149.395C63.0839 134.375 63.7248 133.349 61.7806 131.277C59.644 128.969 54.5589 132.794 45.6493 143.412C33.1503 158.347 26.0354 162.855 19.8393 159.779C12.8313 156.317 11.5921 143.028 16.3139 121.576C17.7455 115.017 17.895 113.03 16.9763 112.047C16.0789 111.086 14.7115 111.064 13.6432 112.005Z" fill="black"/>
<path d="M39.8157 136.085C39.2174 136.427 37.3586 137.923 35.7134 139.461C31.1411 143.67 28.4063 145.55 26.8466 145.55C26.0988 145.55 25.7997 144.119 25.7783 140.38C25.7569 131.684 20.095 135.252 19.8813 144.097C19.6249 155.827 32.1881 155.208 42.0164 142.986C46.2041 137.794 44.8153 133.414 39.8157 136.085Z" fill="black"/>
</svg>
