<svg width="320" height="313" viewBox="0 0 320 313" fill="none" xmlns="http://www.w3.org/2000/svg">
<path d="M151.019 1.56663C150.485 1.82302 149.566 2.54946 148.947 3.16907C147.857 4.2801 147.857 4.2801 147.024 3.61776C145.165 2.12214 142.217 1.80166 140.529 2.89132C136.875 5.32703 137.473 11.3736 142.131 18.5098C143.499 20.6036 143.712 20.4327 139.567 20.6464C134.781 20.9028 131.341 22.0352 130.059 23.8085C127.496 27.3339 130.743 31.2866 133.734 28.2526C135.273 26.6929 135.721 26.6288 148.071 26.6288C159.48 26.6288 158.626 26.522 158.134 27.9321C157.301 30.4533 156.211 31.3934 155.122 30.5815C153.113 29.1073 150.699 30.2183 150.143 32.889C149.524 35.9016 148.562 36.0084 147.003 33.2095C145.4 30.3465 142.366 30.3678 141.17 33.2522C140.507 34.8761 140.144 34.5128 139.29 31.2866C138.307 27.633 133.948 29.1927 134.461 33.0172C135.337 39.4697 140.336 42.7387 144.097 39.2988C144.546 38.8928 144.567 38.8928 145.571 39.5338C148.712 41.5208 153.733 40.0252 154.758 36.799C154.865 36.4571 155.015 36.393 155.485 36.4785C156.233 36.6281 158.562 36.0512 159.523 35.4743C160.591 34.8547 160.314 45.1958 159.245 46.3923C158.198 47.546 153.989 47.9947 146.105 47.8024C135.187 47.5247 134.717 47.1401 133.798 37.9741C133.264 32.5472 132.922 31.8635 130.786 31.8635C128.991 31.8635 128.542 32.6113 128.265 36.0298C127.132 50.1313 131.534 54.084 148.349 54.084C164.523 54.084 166.424 52.0542 166.745 34.5342C166.98 22.5266 165.805 21.0096 155.934 20.6036C152.814 20.4754 152.814 20.4754 153.968 18.7448C160.826 8.38235 158.989 -2.34333 151.019 1.56663Z" fill="black"/>
<path d="M240.542 26.3275C234.816 27.0326 229.731 33.7842 226.441 45.0013C223.193 56.1329 223.193 64.5511 226.441 64.5511C228.428 64.5511 229.261 62.8204 230.286 56.4961C233.021 39.6598 238.405 29.8956 243.512 32.5022C250.456 36.0276 249.879 55.2569 242.059 82.1566C241.269 84.87 242.465 86.5579 244.751 85.9383C247.486 85.1905 252.657 69.7857 254.665 56.432C257.421 38.1001 251.289 25.0242 240.542 26.3275Z" fill="black"/>
<path d="M75.0637 32.585C68.0771 35.8326 65.385 52.4126 68.7608 71.3855C70.2778 79.8677 71.752 83.1367 74.0809 83.1367C76.3671 83.1367 76.8371 81.8548 76.1107 77.432C73.2904 59.8693 73.5468 43.738 76.7516 38.9307C79.3155 35.0848 86.3663 46.0028 89.3789 58.5232C90.5754 63.4587 91.2804 64.5484 93.3102 64.5484C100.831 64.5484 90.6608 37.4778 81.388 32.8628C79.3583 31.8372 76.8585 31.7304 75.0637 32.585Z" fill="black"/>
<path d="M166.467 48.9954C164.544 50.3628 165.207 53.0763 167.621 53.6959C169.587 54.1873 170.591 60.8321 169.843 68.7161C169.159 76.2582 169.074 76.2796 149.546 76.8565C123.33 77.6257 125.402 78.2666 124.184 68.9297C122.71 57.6272 123.522 54.871 128.607 53.7813C131.556 53.1403 130.872 49.209 127.731 48.8458C122.475 48.2262 118.886 50.8115 117.775 56.0034C116.92 59.9561 117.796 71.6646 119.313 76.5574C119.398 76.8565 119.185 76.8992 117.518 76.9206C108.053 76.9633 102.989 88.7573 106.066 103.671C106.173 104.183 106.109 104.226 104.934 104.504C99.058 105.807 96.6223 111.063 100.532 114.033C104.399 116.982 120.21 119.225 137.111 119.246C141.256 119.246 141.256 119.246 141.085 120.785C140.914 122.665 140.914 122.665 140.059 122.665C135.209 122.686 131.513 124.267 131.214 126.425C130.722 130.122 136.47 131.51 149.311 130.805C156.575 130.399 158.733 129.652 159.374 127.323C160.229 124.118 158.092 122.9 150.977 122.537C148.071 122.387 148.071 122.387 147.922 121.084C147.836 120.357 147.751 119.631 147.687 119.439C147.601 119.14 147.943 119.075 150.208 118.947C168.326 117.943 187.662 115.059 192.512 112.602C197.512 110.08 197.277 104.718 192.128 103.307C190.889 102.987 190.739 102.88 190.867 102.496C192.683 96.4276 191.572 82.1766 188.923 77.6898C185.761 72.2842 174.522 71.515 175.227 76.7497C175.484 78.6085 176.595 79.3349 179.864 79.7195C183.838 80.2109 184.201 80.8733 184.799 88.4795C186.039 104.718 185.59 105.145 166.51 105.893C162.045 106.085 156.105 106.363 153.327 106.534C138.863 107.431 135.487 107.559 127.304 107.581C111.942 107.623 112.497 108.029 112.476 96.1713C112.454 85.8943 113.395 83.544 118.245 81.9202C119.591 81.4715 120.424 80.8733 120.595 80.275C120.702 79.805 120.766 79.8263 121.77 80.8305C124.441 83.5013 128.628 84.0141 142.367 83.3517C144.717 83.2449 147.986 83.0953 149.631 83.0312C168.113 82.2621 171.916 81.1724 174.309 76.0232C177.279 69.6989 176.595 54.3582 173.155 50.2987C171.723 48.5894 168.048 47.8843 166.467 48.9954Z" fill="black"/>
<path d="M202.297 53.269C199.776 53.9314 200.203 55.897 204.113 61.6658C212.04 73.353 221.249 85.7025 243.533 114.546C260.733 136.81 271.159 150.633 284.641 169.029C289.192 175.247 291.692 177.106 293.23 175.418C295.303 173.132 286.457 159.863 259.793 125.229C254.43 118.243 253.917 117.58 243.854 104.718C231.91 89.4415 230.479 87.5827 224.881 80.361C219.304 73.182 210.908 62.0504 207.275 57.0722C204.626 53.44 203.878 52.8631 202.297 53.269Z" fill="black"/>
<path d="M160.955 54.7442C159.587 55.1715 158.818 56.2398 158.498 58.12C157.857 62.0086 155.442 62.6069 152.344 59.6584C151.233 58.5901 151.19 58.5687 149.908 58.5687C148.52 58.5687 148.648 58.4832 146.469 60.8762C145.336 62.1368 143.37 61.9872 141.49 60.4703C139.631 58.996 139.226 58.7824 138.136 58.7824C136.533 58.7824 135.786 59.402 134.76 61.5599C132.709 65.8331 131.213 66.1963 129.589 62.8632C128.051 59.7438 124.782 60.4062 124.996 63.8033C125.487 71.4523 134.61 73.4607 138.884 66.8587C139.375 66.1109 139.653 65.8545 139.888 65.9613C142.687 67.2005 146.725 67.1364 149.097 65.8117C150.037 65.299 150.037 65.299 151.212 65.8758C156.062 68.2688 161.596 66.7518 163.689 62.4573C164.053 61.7522 164.245 61.5599 164.694 61.5599C166.51 61.5599 168.347 60.4062 168.753 59.0387C169.287 57.1158 168.198 55.7911 166.104 55.7911C165.185 55.7911 164.651 55.6629 163.989 55.2784C162.92 54.6587 161.831 54.4664 160.955 54.7442Z" fill="black"/>
<path d="M40.0229 58.7629C34.6387 61.3269 32.3098 70.621 33.8054 83.5687C35.301 96.431 40.1297 111.173 43.121 111.985C45.8131 112.712 46.9027 110.768 45.6849 107.349C40.1511 91.645 38.0145 72.2662 41.1339 65.9205C42.1809 63.7626 42.9073 63.6771 44.6166 65.5359C47.9496 69.1468 50.6417 75.4283 55.385 90.6408C56.6456 94.6576 57.6284 95.961 59.3804 95.961C62.7135 95.961 62.5639 91.6023 58.8676 80.6843C53.0988 63.6771 46.3045 55.7504 40.0229 58.7629Z" fill="black"/>
<path d="M106.001 58.5894C103.395 59.3372 55.8127 109.825 34.0195 134.951C24.063 146.425 11.7348 161.765 10.6452 164.009C9.49142 166.38 9.9401 168.389 11.6066 168.389C14.1065 168.389 15.0465 167.491 24.1057 156.531C37.6303 140.164 46.3048 130.4 70.897 103.864C74.0164 100.509 81.3663 92.5611 87.2419 86.2155C108.672 63.1189 109.356 62.3284 109.356 60.8969C109.356 58.8458 108.095 57.9911 106.001 58.5894Z" fill="black"/>
<path d="M274.621 66.7917C266.395 68.6078 257.122 81.9828 254.43 95.9347C252.721 104.759 258.319 107.13 260.498 98.52C267.421 71.3426 282.975 63.1808 282.889 86.7688C282.868 94.6955 281.223 103.071 276.587 119.245C273.189 131.018 273.211 130.975 273.446 131.872C273.937 133.603 276.138 134.286 277.441 133.111C280.432 130.377 287.675 106.575 289.128 94.6955C291.414 76.3422 285.218 64.4414 274.621 66.7917Z" fill="black"/>
<path d="M10.5596 77.0247C-1.06349 81.3193 -3.60603 113.753 5.53857 140.909C9.25623 151.955 14.4909 150.417 11.2433 139.221C4.29935 115.355 4.42754 90.8698 11.521 83.5627C14.9182 80.0587 19.5973 90.5707 22.9304 109.18C23.6782 113.389 24.2765 114.394 26.0498 114.394C28.5924 114.394 28.8701 111.744 27.289 102.621C24.0201 83.6481 17.9308 74.3112 10.5596 77.0247Z" fill="black"/>
<path d="M172.62 84.119C171.915 84.7173 171.552 85.7215 171.125 88.3708C170.462 92.3449 168.753 92.5158 166.937 88.7982C165.377 85.6146 162.877 85.7215 161.36 89.0545C158.839 94.5883 154.331 94.802 151.105 89.5032C149.844 87.4521 148.626 86.747 146.853 87.0675C146.062 87.2171 145.421 87.794 143.071 90.4433C139.866 94.0755 135.444 94.161 133.115 90.657C131.213 87.794 128.777 87.7299 126.684 90.4861C123.799 94.3319 121.128 93.4987 119.761 88.3708C118.116 82.1961 112.903 85.1873 114.377 91.4475C116.001 98.2632 122.731 100.977 128.521 97.1309C129.888 96.2335 129.675 96.2335 130.786 97.0881C135.209 100.464 142.302 99.823 146.917 95.6566C147.75 94.9088 147.75 94.9088 148.904 95.9771C153.647 100.378 160.655 99.8443 164.352 94.7806C164.651 94.3533 164.693 94.3747 165.484 95.1438C169.287 98.7974 174.564 96.9386 176.231 91.3621C176.487 90.4861 176.487 90.4861 178.325 90.4861C181.914 90.5074 184.371 88.3922 183.709 85.9138C183.282 84.3541 181.572 83.9695 179.479 84.9523C178.175 85.5505 178.026 85.5078 176.573 84.2686C175.44 83.3071 173.646 83.243 172.62 84.119Z" fill="black"/>
<path d="M309.874 109.545C303.764 111.041 297.247 119.267 292.247 131.745C289.47 138.689 289.363 142.748 291.948 142.748C293.572 142.748 295.175 140.569 297.717 134.928C302.802 123.604 308.293 115.827 311.178 115.827C314.81 115.827 312.289 137.407 305.986 160.375C304.853 164.541 304.704 166.208 305.388 167.148C306.242 168.323 308.486 168.366 309.49 167.276C311.84 164.691 316.69 146.017 318.891 131.104C320.963 117.024 317.096 107.772 309.874 109.545Z" fill="black"/>
<path d="M156.147 135.934C138.798 136.874 136.255 143.135 144.908 163.646C155.228 188.067 156.98 196.827 154.545 211.762C153.583 217.637 153.925 218.812 156.553 218.812C160.271 218.812 163.176 205.779 161.702 195.737C160.698 188.879 155.762 173.389 150.485 160.612C142.601 141.468 143.263 141.019 177.833 142.323C194.221 142.942 198.43 143.135 207.852 143.711C223.364 144.673 223.193 144.673 224.518 143.348C225.693 142.194 225.266 140.271 223.663 139.438C221.868 138.519 206.848 137.408 184.029 136.554C168.881 135.977 160.655 135.699 159.886 135.742C159.544 135.742 157.856 135.849 156.147 135.934Z" fill="black"/>
<path d="M98.3533 137.405C92.3922 137.662 86.6234 137.982 69.723 138.901C61.3903 139.35 52.9294 139.798 50.9637 139.884C46.5837 140.055 45.6436 140.632 46.0709 142.854C46.3914 144.584 47.3101 144.862 53.5063 145.033C59.5314 145.182 69.1675 144.905 94.5074 143.794C119.057 142.725 128.864 143.943 128.522 148.024C128.33 150.438 127.753 151.87 122.86 162.19C111.686 185.842 108.331 204.494 115.254 204.494C117.241 204.494 118.074 202.999 118.971 197.764C121.001 185.906 123.351 178.513 130.039 162.937C134.419 152.703 135.103 150.481 134.953 147.02C134.718 141.486 130.915 138.773 121.749 137.598C119.441 137.298 103.673 137.17 98.3533 137.405Z" fill="black"/>
<path d="M41.0487 141.851C39.6172 142.962 39.7453 143.88 42.2665 151.081C48.3344 168.43 51.7102 185.33 53.27 206.311C54.0178 216.482 54.4237 217.742 57.009 217.742C59.9575 217.742 60.4703 213.683 59.2524 200.009C57.4577 180.202 52.3085 159.306 45.7064 144.991C44.2322 141.829 42.5229 140.675 41.0487 141.851Z" fill="black"/>
<path d="M230.007 143.195C227.55 144.626 221.888 159.924 219.624 171.269C217.594 181.375 215.265 203.083 215.735 207.527C216.205 211.801 219.431 213.296 220.927 209.92C221.354 208.916 221.461 208.168 222.166 200.007C224.089 178.192 227.572 160.629 232.336 148.707C234.174 144.092 233.063 141.421 230.007 143.195Z" fill="black"/>
<path d="M172.471 146.337C171.317 147.256 171.296 147.769 172.257 153.217C174.031 163.174 174.928 169.712 175.59 177.532C176.189 184.518 176.637 185.693 178.667 185.693C182.256 185.693 182.321 176.314 178.881 158.666C176.573 146.936 175.142 144.158 172.471 146.337Z" fill="black"/>
<path d="M99.7843 147.322C97.7331 149.672 92.4344 179.969 93.4172 183.794C93.93 185.759 95.5538 186.593 97.0281 185.631C98.2459 184.841 98.4382 184.05 99.7415 175.119C100.831 167.62 102.498 156.958 103.181 153.005C103.887 148.903 103.865 147.92 103.032 147.087C102.22 146.275 100.618 146.382 99.7843 147.322Z" fill="black"/>
<path d="M202.789 148.304C200.674 149.586 196.401 163.238 194.478 174.904C193.388 181.57 193.922 184.049 196.443 184.049C198.601 184.049 199.05 183.087 201.016 174.263C202.426 168.024 204.028 161.486 206.058 153.859C207.361 148.923 205.887 146.402 202.789 148.304Z" fill="black"/>
<path d="M69.1247 149.116C68.0136 150.334 68.0777 150.89 69.8511 156.466C72.0945 163.538 73.5688 168.73 74.9789 174.585C76.8164 182.212 76.8591 182.362 77.5215 183.708C78.5897 185.994 80.2777 186.528 81.1537 184.862C82.6706 181.977 79.0171 166.166 73.6542 152.236C72.3936 148.988 70.4493 147.642 69.1247 149.116Z" fill="black"/>
<path d="M135.528 173.234C128.755 173.832 127.089 174.495 127.089 176.546C127.089 179.003 128.948 179.665 135.229 179.43C140.678 179.217 142.109 178.704 142.707 176.717C143.498 174.067 140.806 172.764 135.528 173.234Z" fill="black"/>
<path d="M9.7266 174.153C9.00016 174.73 8.80787 175.478 8.29509 179.708C7.29089 188.212 6.75674 194.857 5.92347 209.193C5.56025 215.625 5.43206 235.367 5.70981 242.631C6.56445 264.51 8.18826 272.137 12.2905 273.27C16.3287 274.402 18.4653 271.389 22.2897 259.19C23.0803 256.668 23.7854 254.468 23.8708 254.297C23.9776 254.126 24.3195 255.023 24.7255 256.54C27.9944 268.697 31.3061 272.522 36.3912 270.086C41.9464 267.415 46.2409 251.498 41.4122 251.498C39.8098 251.498 38.7201 253.015 37.5877 256.861C36.6049 260.215 34.7674 264.317 34.2333 264.317C33.7632 264.317 32.4172 260.536 30.9429 254.938C28.6995 246.498 27.3535 244.447 24.0417 244.447C20.9864 244.447 19.619 246.605 16.8201 255.963C14.6835 263.057 14.0639 264.809 14.0639 263.634C14.0639 263.441 13.9143 262.01 13.7434 260.429C13.3802 257.053 12.8888 250.195 12.5255 242.951C12.205 236.392 12.205 212.569 12.5255 205.134C13.9784 173.085 13.9998 173.726 11.2863 173.726C10.5812 173.726 10.0898 173.854 9.7266 174.153Z" fill="black"/>
<path d="M25.0667 174.587C19.0415 174.843 18.5501 174.993 18.1228 176.51C17.375 179.138 18.6783 179.715 26.3487 180.121C45.3002 181.125 47.6077 180.911 47.6077 178.134C47.6077 175.1 40.1297 173.925 25.0667 174.587Z" fill="black"/>
<path d="M235.693 180.245C233.47 181.206 234.411 183.792 237.145 184.198C239.773 184.604 255.947 185.843 262.977 186.206C282.035 187.189 285.966 186.655 285.325 183.215C285.026 181.719 283.039 180.907 278.681 180.565C270.433 179.924 237.017 179.668 235.693 180.245Z" fill="black"/>
<path d="M292.461 186.7C289.79 187.683 288.7 194.307 285.837 226.825C283.124 257.785 279.684 276.288 276.65 276.288C275.582 276.288 273.317 269.301 270.689 257.913C268.403 247.999 267.078 245.649 263.724 245.649C259.857 245.67 258.34 248.362 253.361 264.28C249.195 277.634 246.738 282.42 244.665 281.33C241.354 279.599 236.675 271.053 233.064 260.199C231.183 254.494 226.44 255.178 227.829 260.947C232.914 282.056 242.785 292.739 250.498 285.453C253.575 282.526 255.455 278.381 259.75 264.964C261.053 260.904 262.378 256.866 262.741 255.99C263.467 254.088 263.254 253.618 264.899 260.904C268.852 278.36 271.565 283.253 277.056 282.868C285.068 282.291 288.487 269.13 292.675 222.766C293.273 216.185 294.085 207.489 294.491 203.43C294.897 199.37 295.324 194.969 295.452 193.644C295.922 188.687 294.704 185.888 292.461 186.7Z" fill="black"/>
<path d="M72.029 189.112C58.5898 191.013 69.9992 217.934 85.9809 222.015C94.9332 224.301 103.202 215.221 106.043 199.901C108.351 187.616 97.433 184.881 87.4979 195.265C86.0664 196.76 86.0664 196.76 83.7588 194.474C79.6139 190.329 75.7894 188.599 72.029 189.112ZM100.296 195.436C101.258 199.239 95.4033 212.699 91.707 215.221C86.6219 218.682 75.0416 209.409 72.6058 199.901C70.4265 191.398 77.52 194.773 83.7375 205.2C86.3441 209.559 90.9164 206.845 88.9721 202.123C88.6944 201.482 93.6299 197.53 96.4288 196.12C99.1423 194.752 100.082 194.581 100.296 195.436Z" fill="black"/>
<path d="M196.955 189.54C194.648 190.096 191.891 191.848 189.712 194.134C188.195 195.736 188.195 195.736 186.828 194.689C175.012 185.652 165.697 191.1 170.184 204.475C176.764 224.153 190.802 227.443 201.463 211.803C210.223 198.984 207.788 186.976 196.955 189.54ZM200.246 195.501C203.579 199.198 193.579 214.496 187.554 214.923C182.832 215.265 174.97 204.56 174.863 197.659C174.82 194.946 180.204 196.591 185.268 200.864C185.353 200.928 185.289 201.377 185.14 201.847C182.832 208.406 188.366 210.436 190.973 203.984C193.238 198.3 198.472 193.536 200.246 195.501Z" fill="black"/>
<path d="M114.954 209.579C113.458 210.989 113.8 212.891 116.214 216.267C118.201 219.087 119.526 221.266 119.718 222.078C119.975 223.104 117.923 223.617 107.625 225.112C97.3481 226.587 96.7926 226.822 97.3267 229.556C97.7327 231.65 103.181 231.928 114.441 230.39C115.765 230.197 115.765 230.197 115.765 234.706C115.765 245.517 117.389 270.899 118.351 275.472C119.099 278.933 122.944 279.168 123.927 275.814C124.483 273.848 124.205 265.793 122.923 248.508C122.517 243.038 122.09 237.184 121.962 235.475C121.855 233.766 121.684 231.608 121.62 230.646C121.492 228.937 121.492 228.937 122.517 228.531C123.949 227.975 125.829 226.074 126.299 224.706C128.478 218.275 119.077 205.733 114.954 209.579Z" fill="black"/>
<path d="M217.489 213.876C215.737 215.521 216.399 217.786 219.113 219.345C225.758 223.17 222.766 225.135 209.349 225.755C200.525 226.161 200.525 226.161 199.841 226.952C198.473 228.597 199.392 230.562 201.764 230.968C205.375 231.588 215.459 231.951 216.827 231.524C217.318 231.374 217.318 231.374 217.19 233.255C216.207 246.523 216.314 271.008 217.361 274.704C218.023 276.991 220.01 277.845 221.42 276.435C222.681 275.174 222.66 275.388 222.681 251.779C222.702 230.392 222.702 230.392 224.048 229.729C230.672 226.46 229.967 217.722 222.766 214.111C220.48 212.978 218.557 212.871 217.489 213.876Z" fill="black"/>
<path d="M49.8515 217.552C42.7153 221.313 43.3563 228.235 50.9839 229.923C51.7103 230.094 52.3086 230.329 52.3086 230.457C52.3086 230.564 52.2018 231.483 52.0949 232.466C51.2189 240.029 51.4753 268.531 52.4368 271.843C53.5478 275.689 56.5818 275.71 57.7996 271.865C58.2483 270.476 58.3551 260.947 58.1415 244.132C57.9278 229.09 57.586 231.077 60.3635 231.398C70.4269 232.573 74.6573 231.782 74.6146 228.77C74.5718 226.142 73.3113 225.714 64.2735 225.223C57.6501 224.86 51.6676 224.048 51.6676 223.535C51.6676 223.449 52.1804 222.894 52.8214 222.274C55.7485 219.411 53.3983 215.672 49.8515 217.552Z" fill="black"/>
<path d="M149.845 218.36C148.99 218.873 147.665 220.817 147.281 222.121C146.255 225.518 147.9 227.847 152.131 229.001C152.857 229.193 153.498 229.364 153.52 229.385C153.562 229.407 153.391 230.859 153.156 232.611C152.366 238.786 151.575 247.632 150.998 257.161C150.635 263.079 150.614 275.108 150.977 276.112C151.746 278.292 153.755 278.933 155.079 277.437C156.383 275.92 156.468 275.407 157.216 261.22C157.793 250.26 157.9 248.144 158.177 244.341C158.327 242.226 158.69 236.201 158.84 233.06C158.989 230.112 158.989 230.112 160.934 230.283C168.754 230.988 174.245 230.411 175.462 228.787C177.044 226.672 175.249 224.898 171.168 224.556C169.779 224.45 165.762 224.108 162.237 223.83C152.986 223.061 153.135 223.104 153.627 221.672C154.567 218.916 152.238 216.886 149.845 218.36Z" fill="black"/>
<path d="M77.7771 222.121C77.0079 222.976 76.9438 223.36 76.7942 227.89C76.3028 241.286 73.4611 251.542 64.8507 270.985C54.4882 294.316 53.2704 301.282 58.6546 306.153C64.167 311.089 81.5374 313.118 99.3566 310.896C119.056 308.439 122.987 300.683 112.368 285.257C100.361 267.844 99.7839 266.092 95.5748 234.62C94.6988 228.082 94.1006 226.715 92.1136 226.715C88.9514 226.715 88.8018 231.501 91.4085 249.79C94.2074 269.511 96.2158 274.831 105.403 287.18C110.702 294.316 112.326 297.479 111.813 299.743C110.232 307.029 65.919 307.969 62.2227 300.812C60.7912 298.034 62.8209 291.389 70.534 273.613C80.2555 251.2 83.9091 235.432 82.0075 224.151C81.5374 221.373 79.3368 220.326 77.7771 222.121Z" fill="black"/>
<path d="M192.918 223.619C189.521 227.486 191.252 244.45 196.486 258.766C200.033 268.444 202.426 273.551 208.024 283.422C212.938 292.075 214.177 296.028 212.895 299.04C209.348 307.373 176.338 308.249 164.395 300.322C161.083 298.143 161.703 296.22 169.095 285.751C174.394 278.23 177.065 273.529 179.522 267.526C186.957 249.172 188.047 223.555 181.21 226.802C180.034 227.358 179.928 227.892 179.799 233.874C179.586 243.361 178.261 251.394 175.569 259.62C172.727 268.295 170.206 272.974 163.113 282.674C155.699 292.823 154.267 296.775 156.34 301.22C161.339 311.881 192.405 316.539 210.289 309.317C219.262 305.706 222.339 298.357 218.814 288.891C217.617 285.708 217.104 284.746 211.912 275.965C202.383 259.855 197.704 245.177 197.191 229.943C197.02 224.751 196.956 224.366 196.038 223.341C195.29 222.529 193.751 222.679 192.918 223.619Z" fill="black"/>
<path d="M139.525 256.606C138.392 256.905 137.302 257.759 135.85 259.469C133.606 262.139 131.619 261.627 130.102 257.973C128.906 255.067 125.402 256.841 125.893 260.11C126.961 267.267 134.504 269.489 139.525 264.126C141.212 262.31 141.212 262.31 141.896 262.716C142.943 263.336 145.037 263.293 145.742 262.652C148.434 260.131 143.712 255.537 139.525 256.606Z" fill="black"/>
</svg>
