<svg width="285" height="413" viewBox="0 0 285 413" fill="none" xmlns="http://www.w3.org/2000/svg">
<path d="M117.692 1.13536C110.535 3.31468 111.924 13.3353 120.961 24.4028C124.722 29.0392 128.632 29.9579 128.632 26.2403C128.632 25.1079 128.845 25.4711 124.102 17.7153C120.876 12.4593 118.974 7.35284 120.235 7.35284C122.564 7.35284 126.025 11.0919 128.183 15.9419C131.11 22.6081 136.259 20.386 134.016 13.4421C131.495 5.75039 123.183 -0.531177 117.692 1.13536Z" fill="black"/>
<path d="M157.369 4.06097C149.164 5.53522 138.631 15.2994 136.622 23.2903C135.169 28.995 139.485 30.8752 142.007 25.6619C145.511 18.4188 153.459 11.4749 159.142 10.6844C161.727 10.3425 160.509 13.1415 155.617 18.8889C151.92 23.2262 151.215 25.2559 152.925 26.7729C154.826 28.4822 157.176 27.6916 160.937 24.0594C171.064 14.2525 168.885 1.98848 157.369 4.06097Z" fill="black"/>
<path d="M166.086 25.3003C161.001 26.3899 157.582 30.3426 159.804 32.5433C160.766 33.5261 161.834 33.462 164.035 32.3083C169.825 29.2957 172.517 32.5647 168.564 37.7993C165.317 42.0939 168.18 45.8756 172.346 42.7989C180.935 36.496 176.149 23.121 166.086 25.3003Z" fill="black"/>
<path d="M114.787 25.732C108.869 26.608 107.266 33.0819 111.86 37.6755C115.172 40.9659 118.889 38.3592 116.496 34.4065C115.001 31.9067 115.471 31.3298 118.163 32.3554C121.218 33.5092 123.077 32.334 122.863 29.3428C122.735 27.6763 117.629 24.856 115.941 25.5397C115.898 25.5611 115.385 25.6465 114.787 25.732Z" fill="black"/>
<path d="M140.682 30.0217C137.818 30.7268 135.789 32.7138 135.212 35.3632C134.379 39.1022 138.096 40.6192 139.805 37.2434C140.895 35.1068 143.459 35.1281 144.677 37.2861C146.237 40.0209 149.847 39.4654 150.275 36.4101C150.873 32.0515 145.895 28.7184 140.682 30.0217Z" fill="black"/>
<path d="M156.471 35.6848C151.322 36.9667 146.792 43.7183 147.241 49.4871C147.604 53.8244 151.941 54.4226 152.71 50.2349C153.458 46.1754 156.257 41.9663 158.201 41.9663C159.334 41.9663 159.74 44.3379 159.27 48.1838C158.351 55.5978 163.927 56.8797 165.423 49.594C167.239 40.8339 162.902 34.0823 156.471 35.6848Z" fill="black"/>
<path d="M123.333 36.6021C117.607 37.9909 115.299 45.5758 118.654 51.9855C121.581 57.562 125.79 55.2545 123.696 49.2293C120.748 40.8112 127.478 41.4522 130.597 49.8703C132.606 55.2973 137.221 53.588 136.281 47.7765C135.106 40.3839 129.123 35.2347 123.333 36.6021Z" fill="black"/>
<path d="M101.412 36.9697C92.7372 39.0635 92.0963 51.4771 100.386 57.1604C104.275 59.8312 107.928 56.7545 104.916 53.3573C98.4847 46.0929 101.006 40.0677 108.548 44.6614C111.603 46.5416 114.274 45.1314 113.74 41.9479C113.163 38.5935 106.219 35.7945 101.412 36.9697Z" fill="black"/>
<path d="M181.256 41.6677C175.53 42.5437 170.317 48.2698 172.902 50.8551C174.227 52.1797 175.573 51.9234 177.795 49.9363C179.44 48.4834 182.559 46.9451 182.987 47.3724C183.307 47.6715 182.453 48.9749 180.807 50.7482C179.119 52.5643 178.585 53.4831 178.585 54.6368C178.585 55.3419 179.184 56.4529 179.654 56.6025C180.722 56.9443 179.782 56.9016 177.496 56.517C149.763 51.8165 97.1599 57.4785 87.2034 66.2171C85.2378 67.9478 85.2591 70.9176 87.2248 71.0458C87.4812 71.0672 86.7975 71.1527 85.7505 71.2381C73.4011 72.2637 64.641 84.0149 70.1748 92.1126C73.0378 96.2789 81.1141 97.0695 86.8829 93.7364C87.8017 93.2022 87.8017 93.2022 88.9127 94.0569C95.7711 99.2274 108.441 97.4327 112.586 90.7024C112.907 90.211 112.907 90.211 114.06 90.8947C122.585 95.9371 138.225 95.6166 144.977 90.2965C146.045 89.4419 146.045 89.4419 147.306 90.2751C155.297 95.5739 171 95.9371 177.068 90.9588C177.581 90.5315 177.581 90.5315 178.478 91.1298C187.944 97.5182 204.801 96.5994 210.079 89.4205C220.933 74.6353 204.951 58.6536 190.807 70.1698C189.482 71.2595 189.482 71.2595 188.35 70.2767C183.115 65.683 173.928 65.3198 168.778 69.5075C167.625 70.4262 167.625 70.4262 166.855 69.9775C160.574 66.1744 153.352 66.0248 149.186 69.6143C148.353 70.3194 148.353 70.3194 147.263 69.7211C139.934 65.5762 129.807 66.7085 124.466 72.2637C123.654 73.0969 123.654 73.0969 121.944 72.3705C114.466 69.1229 104.531 69.5716 98.9974 73.3747C98.0359 74.037 98.0359 74.037 96.7967 73.2892C95.2156 72.3278 93.3995 71.7295 91.0493 71.409C88.9127 71.1313 88.3144 71.4518 96.113 68.6742C120.449 60.021 172.731 59.316 186.833 67.435C189.888 69.187 191.939 69.0802 192.9 67.0931C194.588 63.5678 190.294 59.6578 182.431 57.5639C180.466 57.0512 180.316 56.9657 181.192 56.9871C184.183 57.0084 187.879 53.0985 188.755 49.039C189.76 44.253 186.341 40.8986 181.256 41.6677ZM203.925 73.332C207.814 75.319 207.408 83.9722 203.263 87.0916C198.37 90.7879 183.521 88.9504 180.423 84.2713C178.884 81.9211 176.256 81.9638 174.205 84.3781C169.59 89.7623 155.403 89.3137 149.164 83.5662C146.366 81.0023 144.977 81.0451 142.263 83.844C136.473 89.7837 121.773 90.1683 115.684 84.5063C112.479 81.5151 109.744 81.8142 108.527 85.2755C106.369 91.3434 94.8738 93.4373 92.0748 88.2667C90.6006 85.5533 88.5281 85.1046 86.1138 86.9848C78.2084 93.2022 70.4953 88.5231 77.2683 81.6006C81.7765 77.0069 92.4594 75.789 95.6643 79.4853C97.6086 81.7288 99.4888 81.8997 101.561 79.9981C105.834 76.1095 116.005 76.3446 122.265 80.4895C124.252 81.7929 125.94 81.4083 127.457 79.3358C131.794 73.3961 140.383 72.7337 146.387 77.8615C149.1 80.1904 151.792 79.4426 152.925 76.0454C154.015 72.7124 160.98 73.5884 164.975 77.5624C167.561 80.1263 169.975 79.9768 171.364 77.1992C173.842 72.285 180.829 72.3064 185.636 77.2419C188.798 80.4682 189.781 80.4468 193.221 76.9214C197.067 73.0115 200.849 71.7509 203.925 73.332Z" fill="black"/>
<path d="M193.927 96.9436C191.128 99.3153 192.559 106.644 195.828 106.58C198.349 106.516 199.076 103.994 198.008 98.8025C197.559 96.6445 195.444 95.6617 193.927 96.9436Z" fill="black"/>
<path d="M78.6358 98.5658C76.777 100.425 77.9521 108.651 80.2383 109.868C84.191 111.984 85.6011 106.599 82.909 99.6341C82.2467 97.9462 79.8537 97.348 78.6358 98.5658Z" fill="black"/>
<path d="M168.565 101.922C165.723 102.52 162.454 104.465 160.061 106.965C158.737 108.353 158.737 108.353 158.138 107.755C153.951 103.61 145.49 104.315 139.871 109.251C138.631 110.34 138.631 110.34 137.99 109.101C134.55 102.563 125.449 101.409 118.526 106.665C117.116 107.734 117.116 107.734 116.731 107.071C112.693 100.234 102.074 100.939 98.1216 108.311C97.6729 109.123 97.2883 109.849 97.2456 109.892C97.2242 109.934 96.8182 109.721 96.3696 109.422C92.2887 106.73 87.5668 108.524 85.8362 113.438C85.6012 114.143 85.3661 114.742 85.3448 114.763C85.302 114.806 84.7251 114.549 84.0201 114.208C75.431 110.041 66.9487 112.156 66.9487 118.459C66.9487 124.25 74.7686 132.112 77.9094 129.463C79.4691 128.16 79.2555 126.984 77.0548 124.42C72.9953 119.677 72.6107 118.331 75.3669 118.374C78.7427 118.417 82.0758 119.891 85.473 122.839C89.1906 126.108 91.84 124.485 91.84 118.951C91.84 113.716 93.0365 113.396 95.344 117.989C97.4379 122.134 101.69 121.622 102.202 117.156C102.886 111.238 105.172 108.033 108.399 108.503C110.727 108.866 112.244 110.917 112.437 113.93C112.693 117.861 116.603 118.823 118.74 115.49C124.06 107.221 132.264 107.712 134.038 116.408C135.063 121.472 138.396 121.835 141.366 117.177C145.789 110.212 154.442 109.101 154.442 115.511C154.442 120.276 159.719 121.066 161.621 116.579C166.193 105.704 177.154 104.807 177.923 115.233C178.115 117.818 178.222 118.075 179.419 119.164C181.043 120.639 182.624 120.489 185.145 118.588C192.067 113.374 204.075 115.468 202.43 121.579C202.238 122.284 201.938 123.352 201.767 123.993C200.379 129.036 206.596 130.104 209.053 125.254C214.672 114.165 199.268 105.042 184.739 110.875C184.461 110.981 184.247 110.725 183.735 109.657C180.872 103.653 174.825 100.555 168.565 101.922Z" fill="black"/>
<path d="M221.424 125.912C219.736 126.659 218.326 128.732 218.326 130.42C218.326 132.407 220.847 133.454 222.577 132.172C223.218 131.702 223.283 131.702 224.223 132.022C226.295 132.727 228.603 131.082 228.069 129.309C228.004 129.159 227.919 128.775 227.855 128.454C227.342 126.189 223.859 124.801 221.424 125.912Z" fill="black"/>
<path d="M153.908 128.22C72.1405 129.908 60.7097 131.04 52.0352 138.219C46.9287 142.45 44.899 150.676 48.7876 151.402C50.1977 151.68 51.7147 150.697 51.9711 149.351C53.1462 143.155 59.6842 139.672 73.1447 138.112C95.8993 135.484 169.526 134.245 194.93 136.083C213.326 137.407 218.753 139.223 221.659 144.971C224.479 150.59 229.607 148.005 227.727 141.916C224.244 130.634 205.442 127.152 153.908 128.22Z" fill="black"/>
<path d="M230.077 132.705C226.893 133.346 227.128 137.811 230.376 138.238C231.572 138.409 231.679 138.559 231.295 139.328C229.564 142.768 233.346 145.545 235.995 142.768C239.926 138.623 235.76 131.529 230.077 132.705Z" fill="black"/>
<path d="M41.5019 132.986C38.2756 133.478 36.0749 136.832 36.9082 139.973C37.656 142.686 40.8609 143.904 43.788 142.558C50.155 139.652 48.3389 131.961 41.5019 132.986Z" fill="black"/>
<path d="M95.1072 138.753C93.2056 139.031 92.9065 139.159 91.9023 140.099C86.7745 144.799 94.744 150.654 100 146.06C103.931 142.577 100.769 137.856 95.1072 138.753Z" fill="black"/>
<path d="M191.895 140.249C189.673 140.762 187.686 144.159 188.07 146.744C188.605 150.205 191.745 151.915 193.668 149.8C194.416 148.988 194.502 148.646 194.416 146.723C194.373 145.911 194.48 145.313 194.843 144.608C195.912 142.364 194.651 139.672 192.685 140.057C192.621 140.078 192.258 140.163 191.895 140.249Z" fill="black"/>
<path d="M31.5865 141.511C26.7578 143.092 26.181 149.566 30.6892 151.702C33.7659 153.155 36.9066 149.822 34.6846 147.429C34.2145 146.917 34.2145 146.917 35.2401 146.788C37.9108 146.425 38.3382 143.455 35.9452 142.045C34.9623 141.468 32.5907 141.169 31.5865 141.511Z" fill="black"/>
<path d="M203.584 143.587C199.652 144.677 196.811 148.993 197.601 152.71C199.289 160.936 211.703 163.842 215.036 156.813C216.852 152.988 213.134 150.104 209.801 152.753C208.541 153.757 207.686 153.885 206.425 153.266C204.332 152.219 204.866 149.847 207.408 148.758C212.109 146.749 208.733 142.156 203.584 143.587Z" fill="black"/>
<path d="M115.342 144.673C112.65 145.229 112.565 148.839 115.214 150.399C118.761 152.472 116.069 155.911 111.817 154.758C109.082 154.01 108.484 152.13 110.556 150.698C114.125 148.241 109.937 144.481 106.112 146.724C96.5832 152.301 108.399 164.586 118.419 159.544C126.154 155.676 123.526 142.985 115.342 144.673Z" fill="black"/>
<path d="M147.348 145.873C139.421 152.582 172.068 167.773 186.063 163.884C193.733 161.726 192.558 156.492 184.738 157.923C174.803 159.718 160.659 155.103 152.24 147.326C149.826 145.104 148.672 144.762 147.348 145.873Z" fill="black"/>
<path d="M239.05 145.998C238.046 146.233 236.08 146.768 234.67 147.195C227.32 149.46 222.94 150.571 219.522 150.998C216.552 151.383 215.377 153.028 216.509 155.207C217.877 157.878 224.607 157.301 236.807 153.455C243.11 151.489 243.665 151.554 243.622 154.224C243.58 159.502 235.183 163.198 224.714 162.536C220.526 162.258 217.983 163.476 218.026 165.719C218.176 170.975 232.64 171.21 241.742 166.104C253.664 159.373 251.506 143.221 239.05 145.998Z" fill="black"/>
<path d="M131.26 149.311C126.666 150.422 127.286 154.695 132.243 155.956C133.995 156.404 134.571 156.789 134.571 157.473C134.571 159.054 132.713 159.972 131.153 159.16C130.491 158.819 130.405 158.626 130.191 157.045C129.764 153.947 125.79 153.862 124.957 156.938C123.034 164.011 132.734 168.156 138.481 162.707C144.571 156.938 139.4 147.324 131.26 149.311Z" fill="black"/>
<path d="M71.6482 150.418C69.0415 150.845 64.4906 151.315 59.0423 151.679C40.8385 152.896 34.8134 155.225 34.792 161.101C34.7706 174.22 81.3696 177.959 97.1804 166.122C103.996 161.015 102.009 154.99 95.0011 159.498C83.0575 167.212 56.3074 168.793 43.6161 162.554C39.3857 160.46 42.9538 159.328 58.6363 157.768C73.2933 156.315 77.3742 154.948 76.4555 151.828C75.9854 150.14 74.9599 149.841 71.6482 150.418Z" fill="black"/>
<path d="M145.296 160.12C141.258 164.137 153.116 174.756 165.337 178.046C175.422 180.759 188.883 178.11 189.801 173.217C190.271 170.696 187.28 170.055 182.452 171.658C171.683 175.226 155.894 170.269 150.061 161.509C148.629 159.33 146.642 158.753 145.296 160.12Z" fill="black"/>
<path d="M204.651 163.327C202.814 163.776 202.045 165.678 202.622 168.263C203.049 170.079 202.942 170.635 202.216 170.763C201.596 170.891 201.254 170.4 200.998 169.032C200.314 165.571 196.426 165.485 195.699 168.904C193.776 177.856 206.083 181.211 209.929 172.793C212.065 168.156 208.796 162.323 204.651 163.327Z" fill="black"/>
<path d="M111.603 165.122C103.334 169.011 108.398 182.193 117.179 179.672C123.397 177.899 122.777 171.532 116.538 173.198C114.188 173.818 113.312 171.425 115.171 169.395C117.884 166.447 115.342 163.349 111.603 165.122Z" fill="black"/>
<path d="M246.528 165.181C245.139 165.737 244.968 167.681 246.1 169.946C247.917 173.578 247.831 176.59 245.844 177.808C242.789 179.688 234.307 179.197 228.73 176.804C223.602 174.603 221.252 179.966 226.145 182.701C234.798 187.508 249.412 185.65 252.339 179.347C255.053 173.492 250.951 163.45 246.528 165.181Z" fill="black"/>
<path d="M34.7926 169.887C28.8315 173.904 27.3359 180.015 31.3954 183.861C39.5358 191.595 83.2291 189.394 96.4332 180.57C102.394 176.596 99.6167 172.045 93.0146 174.951C77.909 181.574 46.0738 184.437 36.9719 179.972C34.6217 178.818 34.7712 178.028 37.8693 174.801C41.5869 170.956 39.1085 166.982 34.7926 169.887Z" fill="black"/>
<path d="M132.498 171.425C130.746 172.899 132.135 176.595 136.43 181.915C147.754 195.953 173.777 203.239 187.387 196.188C193.925 192.812 191.682 188.154 184.353 189.885C166.791 194.073 146.215 187.065 137.156 173.818C135.319 171.126 133.802 170.335 132.498 171.425Z" fill="black"/>
<path d="M125.556 174.437C123.932 174.929 123.484 176.873 124.573 178.668C124.915 179.223 125.022 179.8 125.043 181.445C125.193 187.449 131.239 186.872 131.261 180.847C131.261 178.176 128.975 174.437 127.351 174.437C127.158 174.437 126.795 174.395 126.56 174.331C126.325 174.288 125.876 174.331 125.556 174.437Z" fill="black"/>
<path d="M213.967 177.001C213.113 177.279 212.365 178.026 211.895 179.073C211.425 180.163 211.382 180.163 210.976 179.394C209.31 176.168 205.314 177.086 205.442 180.676C205.635 186.829 214.608 188.838 217.386 183.346C219.159 179.864 217.108 176.039 213.967 177.001Z" fill="black"/>
<path d="M195.656 183.049C192.665 185.314 192.494 189.203 195.25 191.959C199.374 196.082 204.822 192.792 200.891 188.54C199.587 187.13 199.609 187.194 200.122 186.446C202.13 183.562 198.541 180.849 195.656 183.049Z" fill="black"/>
<path d="M248.986 184.563C248.046 184.99 247.832 185.524 247.597 187.874C246.721 197.104 237.683 199.497 225.505 193.707C217.279 189.819 214.266 195.694 222.001 200.566C231.808 206.74 245.781 205.117 250.759 197.233C254.456 191.357 253.238 182.661 248.986 184.563Z" fill="black"/>
<path d="M102.309 184.841C102.138 184.905 101.198 185.44 100.236 186.016C92.2028 190.824 81.6267 193.495 61.9274 195.674C44.151 197.661 35.9037 196.464 37.0148 192.063C38.0617 187.854 34.0449 186.038 32.0365 189.82C27.1651 198.964 38.0831 204.989 55.9449 203.045C57.056 202.917 58.9362 202.789 60.1113 202.746C65.6664 202.532 79.6611 200.545 87.1391 198.879C99.5954 196.101 107.821 190.781 106.603 186.251C106.24 184.948 104.04 184.222 102.309 184.841Z" fill="black"/>
<path d="M117.244 186.187C116.688 186.593 115.449 187.234 112.885 188.431C106.71 191.337 109.424 197.597 115.812 195.14C119.038 193.901 121.88 190.119 121.388 187.683C121.047 185.974 118.675 185.119 117.244 186.187Z" fill="black"/>
<path d="M207.578 192.386C206.831 192.984 206.51 194.053 206.681 195.463C206.788 196.189 206.745 196.916 206.574 197.407C206.254 198.368 206.254 199.693 206.574 200.27C206.852 200.804 206.831 200.804 205.869 200.398C202.771 199.116 199.801 202.107 201.703 204.607C202.173 205.206 202.216 205.483 202.151 206.487C202.045 207.684 202.28 208.496 203.092 209.735C203.455 210.312 203.455 210.333 202.792 211.017C200.015 213.966 202.75 217.213 206.211 215.055C208.241 213.816 209.181 210.846 208.348 208.368C207.963 207.235 207.942 207.043 208.241 205.846C208.625 204.244 208.348 202.578 207.472 201.509C206.98 200.932 206.98 200.89 207.407 201.253C208.689 202.364 211.168 201.595 212.257 199.736C214.586 195.783 210.805 189.865 207.578 192.386Z" fill="black"/>
<path d="M125.085 193.751C123.739 195.119 124.209 197.512 125.982 198.174C126.602 198.409 126.559 198.836 125.683 201.486C124.892 203.943 125.256 206.913 126.452 207.66C128.268 208.793 128.311 210.929 126.538 212.874C122.799 217.019 127.478 220.629 131.452 216.655C134.336 213.771 134.678 208.686 132.264 205.032C131.644 204.114 131.644 204.114 132.157 202.404C133.695 197.063 131.836 193.238 127.627 193.068C125.875 192.982 125.875 192.982 125.085 193.751Z" fill="black"/>
<path d="M118.996 196.657C115.642 197.469 113.762 201.977 115.321 205.503C115.77 206.528 115.77 206.528 115.151 207.404C111.817 212.276 112.629 218.173 116.967 220.715C121.646 223.471 125.363 218.984 120.983 215.865C119.103 214.498 118.996 212.617 120.706 209.968C122.18 207.725 122.287 206.25 121.09 204.306C120.086 202.661 120.107 202.426 121.176 201.165C122.735 199.349 122.5 196.678 120.812 196.657C120.684 196.657 120.385 196.614 120.15 196.572C119.915 196.508 119.402 196.55 118.996 196.657Z" fill="black"/>
<path d="M193.968 198.921C191.618 199.947 190.4 202.831 191.084 205.759C191.383 207.083 191.383 207.318 191.062 208.622C190.037 212.724 192.387 216.57 195.549 215.971C197.365 215.651 198.22 213.365 197.237 211.549C196.575 210.352 196.639 203.558 197.301 203.408C199.267 202.917 199.459 199.862 197.6 198.9C196.81 198.494 194.93 198.494 193.968 198.921Z" fill="black"/>
<path d="M227.983 206.011C226.594 207.315 226.509 215.968 227.876 217.527C229.713 219.621 232.341 218.425 232.897 215.263C233.922 209.302 230.782 203.405 227.983 206.011Z" fill="black"/>
<path d="M49.4914 206.423C47.5471 208.496 48.2095 221.23 50.3247 222.618C54.2133 225.182 55.1961 221.785 53.8928 210.333C53.38 205.974 51.4998 204.308 49.4914 206.423Z" fill="black"/>
<path d="M222.706 219.537C219.672 219.857 217.343 220.733 215.356 222.293C214.245 223.169 214.245 223.169 213.07 222.528C202.793 216.717 189.931 219.879 183.5 229.814C182.282 231.694 182.282 231.694 181.043 230.263C171.513 219.494 154.378 221.31 143.14 234.322C141.772 235.903 141.772 235.903 140.426 234.365C130.064 222.464 112.437 222.293 99.4463 233.916C97.5447 235.625 97.5447 235.625 96.9892 234.899C89.6393 225.049 74.9396 223.618 64.9831 231.801C64.3208 232.356 64.3208 232.356 63.6584 231.416C55.048 218.896 30.2422 228.382 29.1098 244.62C28.2124 257.29 46.5657 265.153 62.1414 258.765C62.3765 258.658 62.7397 259.064 63.4234 260.132C69.6622 270.003 91.1563 271.135 98.7626 261.969C99.489 261.093 99.489 261.093 100.258 261.777C112.095 272.161 141.174 271.541 152.113 260.666C153.117 259.683 153.117 259.683 154.57 260.538C164.548 266.371 181.449 266.157 190.166 260.068C191.384 259.213 191.384 259.213 193.157 260.068C203.52 265.132 223.262 262.546 229.607 255.325C230.248 254.598 230.248 254.598 232.278 255.624C247.063 263.038 257.49 250.71 249.627 235.113C245.503 226.929 235.932 220.391 226.937 219.622C226.146 219.558 225.249 219.473 224.95 219.43C224.65 219.409 223.646 219.451 222.706 219.537ZM205.827 227.528C208.156 228.169 210.485 229.451 212.194 231.032C213.903 232.613 214.566 232.891 215.997 232.655C217.621 232.378 218.305 231.459 218.86 228.852C219.544 225.605 229.586 226.844 235.846 230.946C244.136 236.373 248.452 249 242.705 251.03C239.713 252.077 234.863 250.539 231.936 247.612C229.308 244.984 226.402 245.496 225.441 248.787C223.326 256.073 200.721 258.914 193.777 252.739C192.537 251.65 191.448 251.287 190.273 251.543C189.375 251.757 189.247 251.842 187.26 253.509C179.761 259.833 162.625 259.705 155.831 253.274C152.904 250.496 150.746 250.752 148.46 254.15C140.255 266.221 108.334 265.815 101.412 253.551C99.3181 249.855 94.8313 250.859 94.8313 255.047C94.8313 261.008 81.2212 264.277 72.8885 260.303C70.0255 258.936 68.1025 256.478 67.7179 253.68C67.2052 250.026 64.5344 248.979 61.5859 251.265C53.0182 257.931 35.6264 254.043 35.6477 245.475C35.6905 233.916 57.9751 226.929 60.0049 237.826C60.7954 241.971 63.4875 242.056 67.4829 238.061C74.9823 230.583 85.3234 231.245 92.1605 239.599C96.1773 244.535 98.2498 244.813 101.519 240.945C111.411 229.194 128.077 229.109 137.243 240.775C140.853 245.368 142.84 245.325 146.409 240.604C156.429 227.357 171.065 227.164 179.077 240.134C181.897 244.706 185.7 244.214 186.79 239.172C188.649 230.369 197.174 225.177 205.827 227.528Z" fill="black"/>
<path d="M261.42 246.222C256.014 247.184 258.023 250.88 264.903 252.696C269.453 253.892 273.663 255.516 273.663 256.072C273.663 256.157 273.086 256.585 272.402 257.012C253.728 268.336 151.685 280.066 87.2452 278.271C38.8941 276.925 13.8533 272.865 10.3493 265.815C9.25966 263.614 14.5798 259.512 22.6133 256.371C27.4207 254.491 26.9292 250.559 21.9937 251.35C5.542 253.978 -1.59421 266.413 9.32376 273.442C25.1986 283.677 85.1727 288.057 150.381 283.719C245.267 277.395 293.725 265.088 278.619 251.115C275.286 248.017 266.035 245.389 261.42 246.222Z" fill="black"/>
<path d="M278.962 265.817C276.996 266.116 276.313 268.402 276.035 275.71C275.522 288.23 273.685 294.725 270.694 294.725C268.429 294.725 264.54 290.644 263.066 286.67C261.143 281.542 256.378 281.799 254.861 287.119C253.43 292.076 251.379 294.96 248.131 296.541C241.465 299.832 231.038 297.332 228.581 291.883C226.787 287.909 223.026 288.358 220.783 292.824C212.856 308.528 188.2 309.703 183.734 294.597C182.41 290.131 178.372 290.196 176.021 294.704C169.996 306.284 151.985 306.861 146.024 295.665C144.293 292.439 141.558 292.61 138.588 296.135C130.704 305.451 113.056 305.835 108.719 296.755C107.522 294.255 106.219 293.336 104.51 293.764C103.057 294.127 102.587 294.64 101.134 297.631C94.3822 311.433 75.3452 310.237 69.2132 295.623C67.1621 290.751 63.4871 290.943 61.5856 296.007C55.304 312.715 36.3097 310.75 36.2884 293.379C36.2884 288.508 31.6092 288.465 29.2376 293.294C24.644 302.737 14.1106 305.216 9.66647 297.909C7.65808 294.597 6.69661 290.174 5.73515 279.769C5.03007 272.376 4.92324 272.077 2.76529 272.077C0.415042 272.077 0.286847 272.654 0.457774 281.884C0.692799 294.64 2.14568 299.874 6.80344 304.553C12.9996 310.792 23.362 310.109 30.2632 303.015C31.5451 301.712 31.5665 301.712 31.7802 302.225C37.4208 316.732 56.8637 317.779 65.3246 304.041C65.8374 303.207 65.8374 303.207 66.4784 304.041C76.0717 316.454 96.6684 316.582 105.428 304.276C105.856 303.656 105.856 303.656 107.458 304.853C117.03 312.096 134.443 311.134 142.028 302.972C142.562 302.417 142.562 302.417 143.417 303.25C153.203 312.651 168.971 312.822 178.5 303.613C180.102 302.075 180.102 302.075 180.957 303.186C191.17 316.433 215.27 314.595 225.676 299.768C225.932 299.383 225.996 299.404 227.107 300.238C237.876 308.335 255.652 305.558 260.075 295.11C260.139 294.939 260.63 295.302 261.421 296.135C272.082 307.352 282.637 299.896 284.133 280.047C284.838 270.902 282.765 265.219 278.962 265.817Z" fill="black"/>
<path d="M125.684 313.058C124.466 314.019 124.487 314.853 125.705 319.574C129.252 333.27 128.76 344.765 123.953 360.212C121.624 367.733 121.325 368.78 121.005 370.447C119.509 378.288 123.12 382.711 132.67 384.655C144.4 387.069 158.758 385.061 164.228 380.275C168.202 376.792 168.48 373.395 165.424 365.169C160.702 352.414 159.912 341.218 162.476 323.997C163.395 317.887 162.839 315.472 160.489 315.451C157.07 315.429 153.801 329.339 154.079 342.692C154.271 352.457 155.404 357.905 159.143 367.156C161.728 373.545 161.707 374.527 158.908 376.194C151.088 380.809 130.235 380.446 127.308 375.66C126.432 374.228 126.816 372.455 129.765 363.845C135.405 347.457 136.303 336.881 133.162 324.019C130.961 315.045 128.205 311.007 125.684 313.058Z" fill="black"/>
<path d="M105.727 360.341C78.956 364.272 60.5386 372.434 58.5943 381.215C55.3894 395.637 84.1265 409.183 125.064 412.495C129.721 412.879 149.485 412.879 154.121 412.495C169.163 411.256 180.038 409.311 189.909 406.021C227.769 393.5 223.966 363.417 184.268 361.174C171.043 360.426 168.97 366.195 182.068 367.263C225.248 370.81 216.339 397.09 169.611 404.098C126.751 410.508 73.2086 401.064 65.5169 385.745C62.2265 379.207 77.4818 371.835 106.304 366.003C113.355 364.571 114.381 364.165 114.53 362.691C114.53 362.499 114.573 362.199 114.594 362.029C114.808 359.806 112.436 359.358 105.727 360.341Z" fill="black"/>
</svg>
