<svg width="280" height="429" viewBox="0 0 280 429" fill="none" xmlns="http://www.w3.org/2000/svg">
<path d="M169.592 0.69907C165.297 1.70327 160.533 9.52318 161.708 13.5827C162.627 16.7448 166.131 16.6808 167.178 13.4972C167.584 12.2366 169.571 9.35225 171.558 7.10883C174.763 3.47663 173.63 -0.262395 169.592 0.69907Z" fill="black"/>
<path d="M145.792 6.08206C138.997 9.5006 134.489 16.4659 137.63 18.7307C139.083 19.799 140.6 19.2221 142.373 16.9146C143.89 14.9703 146.005 13.1755 149.146 11.2099C155.748 7.06489 152.8 2.57805 145.792 6.08206Z" fill="black"/>
<path d="M115.131 6.20941C113.422 7.29907 113.742 9.17927 115.9 10.7603C119.896 13.6447 122.353 18.0675 121.989 21.6142C121.562 25.5669 121.925 26.742 123.72 27.0625C127.715 27.8317 129.681 21.7851 127.395 15.8027C125.173 10.0339 117.994 4.41467 115.131 6.20941Z" fill="black"/>
<path d="M161.26 16.4182C157.756 17.1874 154.978 19.6231 154.166 22.6143C153.418 25.3705 156.217 27.443 158.439 25.7978C162.285 22.9775 165.597 24.174 166.046 28.554C166.537 33.3186 164.059 34.2373 159.486 30.9897C156.538 28.9172 152.927 30.7333 153.653 33.9382C153.867 34.8783 153.867 34.8783 151.987 34.8783C150.107 34.8783 150.107 34.8783 150.641 33.9382C154.337 27.3362 150.577 18.9607 143.889 18.9607C138.996 18.9607 138.035 23.9817 142.714 25.0286C145.214 25.5842 145.727 26.2251 145.556 28.5113C145.342 31.182 144.017 32.5281 141.603 32.5281C138.035 32.5281 136.967 30.2633 138.227 25.3919C139.189 21.6528 138.719 20.3495 136.347 20.3495C131.561 20.3495 128.848 30.2419 132.33 35.0065C132.929 35.8398 132.929 35.8398 129.702 36.0962C126.134 36.3739 126.241 36.3739 126.561 35.7757C128.164 32.7631 124.51 29.9214 121.754 32.0153C119.489 33.7459 118.079 34.0451 116.199 33.1904C113.55 31.9939 114.426 27.7421 117.481 26.8661C121.583 25.6696 120.707 21.4605 116.327 21.2469C108.636 20.8837 104.191 31.2248 109.576 36.9722C110.537 37.9977 110.537 37.9977 106.777 38.4892C94.5554 40.0489 92.953 40.583 92.953 43.1683C92.953 46.1381 95.7519 46.6082 106.926 45.5613C129.489 43.4247 148.376 42.5059 170.597 42.4846C196.193 42.4418 199.355 45.3476 199.334 68.7432C199.291 95.2369 201.598 94.0405 152.094 93.6559C104.469 93.2713 99.1063 92.7799 94.705 88.3785C92.0342 85.7291 91.5428 83.2934 90.6882 68.5296C89.8976 55.0904 88.5516 51.4369 85.1971 53.7871C83.8725 54.7059 83.787 74.1275 85.0476 81.6696C86.9491 92.9508 92.7607 97.6299 106.926 99.2751C112.503 99.9374 115.515 100.044 132.458 100.258C141.859 100.365 155.128 100.578 161.943 100.728C187.817 101.305 191.599 101.048 197.09 98.3991C204.184 94.9806 206.769 88.293 207.56 71.3072C208.756 45.4331 200.381 35.4552 176.9 34.7288C172.605 34.6006 172.605 34.6006 172.99 33.4682C176.066 24.3877 169.357 14.6448 161.26 16.4182Z" fill="black"/>
<path d="M142.928 46.0321C141.924 46.6304 141.54 47.3568 141.54 48.7456C141.54 51.9932 146.39 52.3351 146.988 49.1302C147.437 46.8227 144.894 44.8997 142.928 46.0321Z" fill="black"/>
<path d="M103.421 47.6402C100.75 48.0462 100.088 51.8707 102.417 53.409C105.536 55.5029 109.233 51.0802 106.541 48.4949C105.985 47.9607 104.767 47.448 104.254 47.5121C104.148 47.5334 103.763 47.5975 103.421 47.6402Z" fill="black"/>
<path d="M188.565 49.6705C187.454 50.3969 187.091 51.2302 186.193 54.8197C182.711 68.9212 176.515 71.8697 167.883 63.4942C157.926 53.8155 152.863 54.2001 144.573 65.2462C137.928 74.0917 134.83 73.6003 128.719 62.661C122.844 52.1489 117.63 51.9353 109.875 61.9132C107.802 64.5625 106.306 65.8658 105.26 65.8658C102.418 65.8658 98.2301 60.3534 96.1149 53.8155C95.2817 51.2729 94.7475 50.6961 93.1878 50.6961C87.3549 50.6961 93.6151 67.8529 100.858 71.6774C106.306 74.5831 110.622 72.6816 115.921 65.0753C119.617 59.7766 119.959 59.8193 123.378 66.4C131.433 81.8689 139.83 82.574 150.256 68.6434C155.833 61.1867 156.709 61.144 163.524 67.9597C172.968 77.4462 181.578 77.1257 188.501 67.0837C194.27 58.7296 194.313 45.7605 188.565 49.6705Z" fill="black"/>
<path d="M174.593 51.6296C173.482 52.0356 172.862 52.6552 172.52 53.6594C171.302 57.3557 177.157 60.0478 178.802 56.5652C180.255 53.4885 177.691 50.4972 174.593 51.6296Z" fill="black"/>
<path d="M132.651 57.6163C131.625 58.6418 131.604 60.1588 132.587 61.1417C133.975 62.5304 136.603 61.7399 136.881 59.8597C137.266 57.2744 134.488 55.7788 132.651 57.6163Z" fill="black"/>
<path d="M191.812 68.5299C190.381 69.5341 189.569 76.6489 190.252 82.4818C190.872 87.866 194.141 89.3402 195.615 84.9175C196.32 82.8023 196.128 70.8801 195.38 69.5341C194.654 68.2521 192.923 67.7607 191.812 68.5299Z" fill="black"/>
<path d="M151.73 71.6312C150.191 72.849 150.063 85.9677 151.58 88.9162C153.119 91.9501 156.067 91.7151 157.007 88.4888C157.499 86.8009 156.217 73.96 155.405 72.4644C154.764 71.2252 152.798 70.7979 151.73 71.6312Z" fill="black"/>
<path d="M114.639 73.0625C113.635 74.088 113.571 79.9423 114.511 86.2239C115.451 92.4627 120.173 92.655 120.173 86.4589C120.173 84.0873 119.062 76.2246 118.442 74.2803C117.93 72.6352 115.75 71.9514 114.639 73.0625Z" fill="black"/>
<path d="M98.6577 75.9271C96.3074 77.4227 97.1407 86.4818 99.7901 88.2338C102.91 90.2636 104.683 85.2426 103.23 78.5123C102.696 76.0553 100.474 74.7947 98.6577 75.9271Z" fill="black"/>
<path d="M179.741 78.6185C178.501 79.4091 178.181 81.7807 178.736 86.1607C179.313 90.8185 182.946 92.1004 183.864 87.9768C184.142 86.7376 183.822 81.3747 183.394 80.0287C182.967 78.6826 180.894 77.8921 179.741 78.6185Z" fill="black"/>
<path d="M165.746 78.9801C163.866 80.5612 164.742 87.9538 167.07 90.2186C169.036 92.1202 171.237 90.6459 171.237 87.4197C171.237 86.0736 170.233 80.7321 169.848 79.9843C169.122 78.5528 166.878 78.0187 165.746 78.9801Z" fill="black"/>
<path d="M130.942 79.8329C129.617 80.773 129.361 83.7215 130.237 87.6101C131.07 91.3919 134.253 92.3747 135.322 89.1698C135.834 87.6315 135.364 82.1618 134.595 80.8799C133.912 79.7048 131.882 79.1492 130.942 79.8329Z" fill="black"/>
<path d="M76.1168 80.0693C70.9462 81.4794 68.7028 87.5473 71.3522 92.8034C71.9077 93.8716 71.9077 93.8716 70.8608 94.8331C62.8058 102.055 73.0614 112.78 84.7059 109.341C84.9409 109.276 85.1973 109.597 85.5605 110.366C88.3594 116.284 98.7219 118.677 105.409 114.917C105.901 114.639 105.965 114.682 106.82 115.836C112.118 123.015 123.848 123.912 133.014 117.844C133.805 117.331 133.805 117.331 135.087 118.186C142.479 123.25 154.38 122.972 160.341 117.609C161.495 116.562 161.495 116.562 162.691 117.267C171.451 122.459 186.835 122.117 192.796 116.584C194.078 115.408 194.078 115.408 196.279 115.75C211.577 118.229 223.477 111.563 218.435 103.315C218.008 102.653 218.008 102.653 219.802 100.858C226.49 94.2135 222.943 84.8552 214.29 86.3509C207.09 87.6114 206.385 94.8972 213.521 94.3417C216.042 94.1494 215.572 94.8331 211.085 97.8457C207.175 100.474 206.641 103.7 209.696 106.307C212.26 108.486 202.304 109.362 194.997 107.589C191.215 106.691 189.42 107.289 188.01 109.917C184.826 115.857 170.639 115.836 164.101 109.875C161.11 107.14 159.209 107.354 156.944 110.729C153.055 116.562 143.441 117.054 137.757 111.734C134.958 109.127 133.57 109.041 130.45 111.263C122.203 117.203 113.678 116.733 111.285 110.195C109.918 106.456 107.717 105.794 104.106 107.994C97.8459 111.798 91.5643 110.644 91.1156 105.623C90.8165 102.098 88.5517 100.623 85.5605 101.991C82.4411 103.401 78.2961 103.358 75.9458 101.862C74.3648 100.858 75.0271 99.8114 77.8474 98.8713C81.33 97.7175 82.0138 95.004 79.4712 92.3547C76.4159 89.2139 77.0996 84.6416 80.219 87.1841C84.1717 90.4317 87.0561 85.9876 83.4666 82.2272C81.4369 80.1334 78.7661 79.3428 76.1168 80.0693Z" fill="black"/>
<path d="M63.0834 107.313C57.165 112.184 55.3062 126.008 59.7289 132.289C63.8098 138.101 69.835 138.849 82.2058 135.088C97.0338 130.602 100.004 131.99 105.11 145.878C109.832 158.74 112.332 162.714 117.374 165.407C126.882 170.449 137.095 165.813 146.88 152.053C150.278 147.288 150.577 146.904 152.03 145.429C155.576 141.84 157.435 142.93 161.943 151.22C167.755 161.945 173.545 166.09 181.386 165.193C189.42 164.296 194.056 159.21 198.137 146.882C200.765 138.913 200.231 138.998 205.786 145.665C214.653 156.326 224.503 156.775 227.024 146.626C229.096 138.229 219.653 121.863 212.73 121.842C209.354 121.842 209.547 124.961 213.221 129.64C217.559 135.174 219.952 140.195 219.952 143.763C219.952 149.04 216.127 147.587 209.696 139.896C200.872 129.32 195.68 130.623 190.894 144.596C187.561 154.36 184.848 157.437 179.698 157.394C175.041 157.373 172.541 155.215 167.605 146.968C158.781 132.225 151.795 132.631 140.364 148.549C134.745 156.369 129.959 159.873 124.831 159.873C119.425 159.873 117.182 157.202 112.268 144.917C104.832 126.371 98.7217 123.038 81.6076 128.144C72.8049 130.751 69.6641 131.136 67.1215 129.875C62.8911 127.803 62.3997 120.859 65.9037 113.039C68.1898 107.975 66.4806 104.514 63.0834 107.313Z" fill="black"/>
<path d="M77.312 112.186C75.3036 113.446 74.9831 115.925 76.6069 117.549C78.423 119.365 81.3929 118.51 82.1407 115.968C82.9526 113.211 79.705 110.69 77.312 112.186Z" fill="black"/>
<path d="M198.691 118.743C198.221 118.914 197.815 119.064 197.794 119.064C197.602 119.085 196.491 121.008 196.405 121.5C195.892 124.256 199.461 126.563 201.811 124.982C205.315 122.632 202.644 117.269 198.691 118.743Z" fill="black"/>
<path d="M134.359 122.907C132.821 123.27 131.283 125.15 131.283 126.71C131.283 131.239 136.945 132.649 138.782 128.569C140.171 125.535 137.522 122.137 134.359 122.907Z" fill="black"/>
<path d="M173.011 125.236C172.071 125.471 170.725 126.604 170.276 127.501C167.926 132.479 174.849 136.304 177.925 131.732C180.062 128.527 176.857 124.275 173.011 125.236Z" fill="black"/>
<path d="M125.621 134.217C121.454 135.285 120.792 140.092 124.552 141.844C128.484 143.703 132.5 139.216 130.001 135.755C129.018 134.43 127.244 133.789 125.621 134.217Z" fill="black"/>
<path d="M176.323 138.957C174.656 139.427 173.395 141.585 173.673 143.487C174.101 146.371 177.519 147.931 179.827 146.286C183.801 143.487 181.023 137.654 176.323 138.957Z" fill="black"/>
<path d="M62.8482 139.572C60.0492 141.794 61.0748 163.374 64.5575 174.826C70.4331 194.269 82.9535 200.443 116.434 200.465C137.821 200.465 153.354 198.478 177.006 192.666C188.672 189.803 191.321 189.269 200.295 187.966C213.99 185.957 217.708 184.376 220.101 179.526C222.986 173.651 222.622 160.062 219.524 157.455C217.238 155.532 215.08 157.306 215.251 161.023C215.956 178.308 215.913 178.351 201.043 180.488C192.924 181.641 187.775 182.667 180.425 184.547C171.28 186.898 166.622 188.009 162.264 188.906C135.599 194.333 100.068 194.974 86.9489 190.273C74.1294 185.658 68.5529 173.245 66.9718 145.768C66.694 140.811 66.6299 140.427 65.9676 139.743C65.2412 138.974 63.7028 138.91 62.8482 139.572Z" fill="black"/>
<path d="M76.9072 141.843C76.138 142.655 76.0953 143.617 76.4585 149.834C78.0182 175.644 78.9797 181.968 81.4368 182.438C84.7485 183.079 84.9194 179.469 82.676 157.846C81.3513 145.262 80.9454 142.634 80.1121 141.8C79.3429 141.053 77.6336 141.074 76.9072 141.843Z" fill="black"/>
<path d="M200.103 150.815C198.479 152.161 198.778 172.651 200.445 176.006C201.684 178.442 204.034 178.164 204.825 175.493C205.273 173.912 204.397 156.114 203.692 152.61C203.244 150.452 201.534 149.598 200.103 150.815Z" fill="black"/>
<path d="M93.4013 152.63C91.6279 153.656 91.692 158.698 93.7004 176.752C94.5337 184.251 95.7729 187.285 97.9308 186.922C100.687 186.474 100.837 181.773 98.7 163.398C97.5035 153.378 96.307 150.942 93.4013 152.63Z" fill="black"/>
<path d="M146.924 157.048C145.706 158.18 145.663 159.248 146.56 168.521C146.731 170.273 146.924 172.453 147.009 173.329C147.5 179.055 148.312 183.371 149.146 184.802C150.663 187.43 153.077 186.832 153.739 183.691C154.402 180.379 151.432 158.351 150.15 157.133C149.146 156.193 147.864 156.172 146.924 157.048Z" fill="black"/>
<path d="M165.169 168.655C163.032 170.342 164.229 179.615 166.921 182.158C170.382 185.448 171.75 181.111 170.04 172.265C169.357 168.719 167.156 167.073 165.169 168.655Z" fill="black"/>
<path d="M182.647 170.001C180.489 171.859 182.476 179.017 185.296 179.53C187.304 179.893 188.138 178.013 187.582 174.381C186.856 169.851 184.869 168.078 182.647 170.001Z" fill="black"/>
<path d="M130.108 169.996C128.249 171.855 129.638 184.909 132.074 188.371C133.954 191.041 136.39 189.653 136.582 185.807C136.71 183.521 134.744 172.304 133.975 170.808C133.27 169.441 131.134 168.992 130.108 169.996Z" fill="black"/>
<path d="M110.985 172.652C109.19 174.447 111.07 187.566 113.442 189.788C115.514 191.732 117.416 189.766 117.416 185.685C117.394 182.459 115.92 174.639 115.044 173.229C114.211 171.883 112.053 171.584 110.985 172.652Z" fill="black"/>
<path d="M53.1049 176.748C49.259 177.774 46.9515 180.359 46.6738 183.97C46.5669 185.53 46.5669 185.53 44.8577 186.106C40.2426 187.709 37.1232 191.256 36.8882 195.144C36.5036 201.917 43.7253 206.81 54.7928 207.237C57.8908 207.366 57.8908 207.366 58.2541 208.818C61.7794 223.155 84.6623 227.214 97.6314 215.805C98.4647 215.057 98.4647 215.057 99.7253 216.083C111.605 225.975 136.432 224.757 147.179 213.733C148.226 212.664 148.226 212.664 149.508 213.305C164.314 220.783 190.829 217.322 196.79 207.13C197.09 206.596 197.303 206.447 197.624 206.554C211.811 210.741 231.531 208.391 239.052 201.575C247.364 194.076 245.355 181.726 235.27 178.265C227.151 175.466 223.434 180.979 230.955 184.654C240.975 189.546 237.215 197.986 223.797 200.657C215.293 202.366 203.2 201.511 197.431 198.819C194.227 197.302 191.449 198.37 191 201.298C189.59 210.378 159.977 213.604 150.512 205.699C148.525 204.032 147.051 203.797 145.32 204.802C144.765 205.143 144.316 205.464 144.316 205.549C144.316 206.596 139.402 210.464 136.154 212.002C123.335 218.006 107.972 216.339 102.631 208.37C100.153 204.673 97.2468 204.374 94.9179 207.601C86.5425 219.266 64.557 217.557 64.7707 205.293C64.8561 200.678 64.1297 200.187 56.9507 200.016C43.3834 199.674 38.4052 193.542 50.0068 191.491C54.0877 190.764 55.0065 189.29 53.6604 185.615C52.6989 183.03 57.6345 182.303 61.9717 184.354C64.8989 185.743 66.7363 185.038 66.7577 182.517C66.7791 178.778 58.5959 175.317 53.1049 176.748Z" fill="black"/>
<path d="M228.37 209.055C226.511 209.952 226.404 212.559 227.836 221.34C231.51 243.625 230.634 260.995 225.336 271.294C221.704 278.345 219.204 276.571 213.862 263.068C209.354 251.701 206.491 248.454 201.278 248.796C196.919 249.073 193.928 252.129 187.475 262.961C179.249 276.742 173.011 283.131 167.391 283.536C161.836 283.921 159.871 279.413 156.815 259.008C154.7 244.821 152.051 239.651 146.282 238.476C141.154 237.408 136.432 240.741 126.177 252.705C110.409 271.08 104.918 270.845 97.7386 251.424C93.6791 240.463 91.3075 237.279 86.5216 236.403C81.992 235.549 78.8726 237.664 67.8264 249.095C52.5498 264.884 49.0244 259.073 50.1782 220.229C50.4559 210.999 50.2423 210.081 47.7425 210.081C45.2213 210.081 45.0931 210.615 43.0206 228.989C39.0466 264.136 53.2976 275.781 73.6166 254.009C86.137 240.591 86.3079 240.591 90.7947 253.346C95.367 266.358 98.6574 270.952 104.789 272.982C112.161 275.417 119.617 271.422 129.916 259.521C137.159 251.167 138.334 249.864 140.129 248.283C146.218 242.963 147.543 244.779 149.551 261.252C151.773 279.434 154.657 286.528 161.088 289.69C171.109 294.583 181.514 287.233 194.099 266.38C202.068 253.154 202.154 253.154 207.153 266.209C217.281 292.574 233.049 286.549 236.916 254.821C239.523 233.476 234.416 206.106 228.37 209.055Z" fill="black"/>
<path d="M214.077 215.828C211.833 217.195 211.491 219.93 213.371 221.511C216.277 223.968 220.508 220.806 218.863 217.409C218.029 215.679 215.615 214.867 214.077 215.828Z" fill="black"/>
<path d="M181.493 218.668C178.032 220.42 178.823 225.377 182.711 226.21C184.89 226.659 187.262 224.565 187.262 222.151C187.262 219.16 184.185 217.322 181.493 218.668Z" fill="black"/>
<path d="M57.0359 220.016C56.9291 220.058 56.5658 220.144 56.2454 220.208C53.1046 220.913 52.3781 225.977 55.1343 227.857C59.5357 230.827 64.4285 223.968 60.1553 220.806C59.3648 220.229 57.6769 219.802 57.0359 220.016Z" fill="black"/>
<path d="M88.0162 222.453C83.9139 224.333 85.2172 230.486 89.7041 230.486C94.1054 230.465 95.6652 224.696 91.862 222.538C90.7937 221.94 89.2127 221.897 88.0162 222.453Z" fill="black"/>
<path d="M121.519 224.609C117.331 225.591 117.203 231.424 121.326 232.834C124.66 233.967 128.142 230.121 126.561 227.066C125.536 225.079 123.57 224.117 121.519 224.609Z" fill="black"/>
<path d="M154.998 226.043C152.37 227.09 152.242 231.171 154.784 232.453C158.523 234.354 161.707 229.568 158.652 226.641C157.968 226.021 155.917 225.658 154.998 226.043Z" fill="black"/>
<path d="M195.914 236.04C195.444 236.211 195.038 236.361 195.038 236.361C195.017 236.361 194.739 236.702 194.418 237.13C191.598 240.826 196.726 245.163 199.909 241.787C202.495 239.031 199.503 234.758 195.914 236.04Z" fill="black"/>
<path d="M56.4171 239.567C56.0753 239.674 55.5197 240.016 55.1993 240.336C52.3149 243.114 56.3744 247.515 59.387 244.887C61.9722 242.622 59.7075 238.563 56.4171 239.567Z" fill="black"/>
<path d="M105.557 242.983C103.399 244.393 103.442 247.405 105.643 248.559C108.591 250.14 111.519 247.384 110.13 244.329C109.382 242.662 107.053 241.978 105.557 242.983Z" fill="black"/>
<path d="M219.63 246.722C219.524 246.764 219.139 246.85 218.818 246.914C217.131 247.299 215.678 249.67 215.977 251.55C216.789 256.678 224.48 256.059 224.48 250.867C224.48 248.495 221.575 245.995 219.63 246.722Z" fill="black"/>
<path d="M168.78 250.36C168.674 250.403 168.31 250.488 168.011 250.552C166.58 250.873 165.34 253.074 165.682 254.676C166.516 258.308 171.558 258.436 172.733 254.847C173.46 252.646 170.832 249.676 168.78 250.36Z" fill="black"/>
<path d="M79.9407 256.703C78.8511 257.536 78.7656 258.562 79.1502 267.044C79.2784 269.629 79.4493 279.906 79.5775 289.906C79.8553 314.583 79.898 315.053 82.0559 316.036C86.1582 317.895 86.6923 314.028 85.8804 288.068C85.8377 286.487 85.7309 283.41 85.6668 281.231C85.3249 270.441 84.2994 259.203 83.5088 257.707C82.9106 256.532 80.9022 255.998 79.9407 256.703Z" fill="black"/>
<path d="M139.252 258.905C138.248 259.61 138.227 259.823 138.291 280.484C138.397 317.426 138.483 318.473 141.517 318.473C144.7 318.473 145.213 314.541 144.743 293.41C144.102 263.477 142.948 256.319 139.252 258.905Z" fill="black"/>
<path d="M45.4773 265.594C42.6997 267.816 44.0671 290.613 47.6779 302.6C53.5536 322.107 65.2407 328.944 96.6699 331.251C105.473 331.914 181.45 331.7 191 331.016C217.857 329.051 228.754 320.056 228.775 299.822C228.775 292.408 227.536 289.353 224.481 289.353C222.024 289.353 221.254 291.212 221.019 297.792C220.806 303.561 220.699 304.8 220.165 307.514C217.943 319.115 209.225 323.154 184.484 324.072C178.565 324.286 105.921 324.371 100.729 324.179C61.3307 322.619 52.5707 313.902 49.7718 273.435C49.259 266.021 48.9599 265.209 46.7806 265.209C46.2892 265.209 45.7337 265.38 45.4773 265.594Z" fill="black"/>
<path d="M61.7578 271.636C60.4118 272.704 60.2409 274.221 60.775 281.122C62.5697 304.219 63.8731 311.035 66.6293 311.611C69.1291 312.124 69.7914 308.043 68.7017 298.963C68.4454 296.784 67.8044 291.399 67.2916 286.998C65.9455 275.61 65.7319 274.242 65.155 273.003C64.3431 271.294 62.9116 270.717 61.7578 271.636Z" fill="black"/>
<path d="M119.019 276.463C117.993 277.574 117.78 287.766 118.378 307.615C118.613 315.349 119.895 318.554 122.416 317.7C125.45 316.653 125.92 304.431 123.677 284.433C122.801 276.528 121.305 273.985 119.019 276.463Z" fill="black"/>
<path d="M98.2516 278.557C97.2474 279.86 96.6277 314.687 97.5678 316.396C99.2344 319.451 102.503 317.934 103.059 313.853C103.55 310.242 102.952 282.424 102.311 279.476C101.905 277.66 99.3626 277.104 98.2516 278.557Z" fill="black"/>
<path d="M192.732 278.704C192.326 279.11 191.898 279.815 191.749 280.264C191.279 281.759 190.83 309.941 191.215 312.74C192.39 321.222 196.877 320.154 197.731 311.201C198.394 304.257 197.646 282.016 196.684 279.879C195.851 277.977 194.014 277.422 192.732 278.704Z" fill="black"/>
<path d="M208.65 286.272C207.047 287.405 205.551 304.946 206.748 308.813C207.795 312.168 210.316 311.954 211.513 308.386C212.474 305.566 212.944 289.029 212.132 287.298C211.534 286.037 209.739 285.503 208.65 286.272Z" fill="black"/>
<path d="M155.897 295.862C154.679 296.887 154.487 301.032 155.235 310.22C155.876 318.189 159.636 320.069 160.726 312.976C161.153 310.262 160.32 298.49 159.593 296.973C158.91 295.499 157.008 294.922 155.897 295.862Z" fill="black"/>
<path d="M176.172 296.547C175.275 297.445 175.19 298.278 175.489 303.021C176.215 314.388 177.219 318.383 179.463 318.96C182.796 319.793 183.266 313.063 180.723 300.628C179.869 296.312 178.031 294.688 176.172 296.547Z" fill="black"/>
<path d="M38.5551 309.647C31.0343 310.844 16.7405 315.459 9.60428 318.984C-2.83067 325.159 -3.04433 332.744 9.0915 337.209C41.9095 349.345 223.242 353.276 260.012 342.658C283.002 336.013 279.199 318.45 253.56 312.767C242.706 310.374 234.694 310.587 234.694 313.322C234.694 315.245 237.792 316.591 247.193 318.749C273.323 324.774 274.541 333.321 249.864 337.508C199.718 346.012 30.7138 340.307 9.0274 329.389C7.57452 328.663 7.68135 328.449 10.5016 326.655C15.9927 323.129 25.5005 319.326 37.4227 315.865C41.5463 314.668 42.1232 314.433 42.9137 313.493C44.0247 312.168 43.2342 309.647 41.6958 309.647C41.4394 309.647 40.8839 309.605 40.478 309.562C40.072 309.498 39.196 309.54 38.5551 309.647Z" fill="black"/>
<path d="M38.982 318.234C27.7008 322.508 25.5215 323.918 25.5215 326.994C25.5215 330.413 28.5768 331.417 43.0415 332.72C46.9728 333.084 52.5493 333.596 55.4337 333.896C63.5528 334.707 65.0697 334.814 72.8469 335.284C80.6241 335.733 80.795 335.754 86.3074 336.267C92.7172 336.887 95.1956 336.246 94.6615 334.109C94.2128 332.336 91.6489 331.823 75.7313 330.37C71.8 330.007 65.8816 329.43 62.5913 329.088C55.3269 328.319 50.9469 327.913 46.9942 327.614C35.9694 326.781 32.8713 326.482 32.6363 326.225C32.5295 326.118 36.0976 324.537 39.1529 323.319C42.2723 322.08 43.1056 321.546 43.4688 320.456C44.1739 318.277 41.8664 317.145 38.982 318.234Z" fill="black"/>
<path d="M228.369 318.642C227.493 318.898 226.809 319.667 226.702 320.543C226.531 322.146 227.514 322.701 231.168 323.193C238.924 324.24 247.47 326.654 245.803 327.338C241.53 329.09 223.604 331.376 200.059 333.149C192.474 333.726 190.872 334.175 190.551 335.841C189.996 338.875 197.623 338.854 225.826 335.799C246.103 333.619 252.213 331.611 252.256 327.21C252.277 324.261 249.094 322.21 241.637 320.351C238.774 319.646 229.971 318.279 229.138 318.428C229.074 318.428 228.732 318.535 228.369 318.642Z" fill="black"/>
<path d="M107.78 334.582C106.605 335.629 106.883 337.36 108.315 338.129C108.55 338.257 110.472 338.428 112.588 338.514C114.703 338.599 119.468 338.834 123.164 339.027C131.176 339.454 143.461 339.753 149.123 339.646C151.367 339.603 156.986 339.561 161.622 339.539C176.536 339.454 178.501 339.133 178.245 336.783C178.031 334.946 176.45 334.775 159.699 334.903C144.444 335.01 134.723 334.86 122.843 334.347C110.943 333.813 108.592 333.856 107.78 334.582Z" fill="black"/>
<path d="M1.05846 339.006C-0.864469 340.929 0.737972 347.595 4.26334 352.253C11.1859 361.462 22.7876 365.179 32.1886 361.248C34.2183 360.393 34.1542 360.393 34.4533 361.205C38.2137 371.611 55.0287 375.093 63.5109 367.231C65.0707 365.778 65.0707 365.778 65.8612 366.44C79.9413 378.17 106.243 379.986 120.558 370.243C122.246 369.089 122.246 369.089 123.72 370.051C136.176 378.191 163.332 378.149 174.635 369.965C175.789 369.111 175.789 369.111 177.306 370.265C189.228 379.281 211.448 378.063 221.768 367.85C223.349 366.29 223.349 366.29 225.123 367.017C236.126 371.504 250.462 369.688 257.791 362.893C259.479 361.312 259.479 361.312 260.569 361.996C271.636 368.812 282.768 359.411 278.644 346.719C275.909 338.323 269.478 339.711 270.696 348.45C271.999 357.744 268.239 360.393 262.15 354.518C259.094 351.569 257.065 351.911 254.18 355.821C248.967 362.957 233.583 364.453 225.144 358.684C222.281 356.719 219.952 357.274 217.901 360.436C211.106 370.905 184.613 372.294 179.015 362.466C177.071 359.069 173.844 358.834 171.9 361.996C167.734 368.769 144.659 371.418 131.839 366.611C128.741 365.436 125.942 363.62 125.6 362.573C124.511 359.112 120.536 358.684 118.485 361.804C110.965 373.298 75.0699 370.905 67.9978 358.428C65.9894 354.902 62.0794 355.031 60.4343 358.684C56.3106 367.936 41.2691 365.35 39.7521 355.116C39.047 350.458 36.2694 349.283 33.0646 352.274C24.8814 359.966 9.09203 353.642 5.43847 341.228C4.64793 338.558 2.55407 337.511 1.05846 339.006Z" fill="black"/>
<path d="M12.3603 344.001C7.1257 347.633 19.7102 353.38 25.9918 350.218C30.8418 347.761 28.7907 343.274 23.8979 345.582C21.3981 346.757 19.0692 346.501 16.1207 344.684C14.7533 343.83 13.0441 343.531 12.3603 344.001Z" fill="black"/>
<path d="M260.825 346.396C256.851 348.811 263.539 354.558 267.748 352.315C270.675 350.755 269.521 347.593 266.103 347.721C264.949 347.785 264.778 347.721 264.137 347.123C262.812 345.862 261.979 345.691 260.825 346.396Z" fill="black"/>
<path d="M42.5724 348.577C41.3545 349.88 42.0169 352.444 44.068 354.346C47.8925 357.935 54.4945 357.721 58.725 353.854C62.699 350.222 60.0497 346.12 55.7979 349.367C52.0588 352.252 47.9138 352.316 46.5892 349.517C45.7559 347.743 43.7689 347.295 42.5724 348.577Z" fill="black"/>
<path d="M245.058 349.217C244.823 349.345 243.968 350.05 243.178 350.776C239.652 353.981 236.875 354.216 233.071 351.631C229.888 349.473 227.431 352.913 230.315 355.541C236.169 360.882 246.746 358.767 248.604 351.866C249.203 349.644 247.087 348.063 245.058 349.217Z" fill="black"/>
<path d="M70.2191 350.904C67.3988 353.917 75.646 360.583 84.9188 362.784C94.2984 364.985 105.708 361.929 109.575 356.139C111.989 352.55 108.485 351.716 103.806 354.793C95.324 360.305 83.8505 359.664 76.1588 353.255C72.8898 350.52 72.783 350.456 71.6506 350.456C70.8814 350.456 70.5182 350.563 70.2191 350.904Z" fill="black"/>
<path d="M209.099 353.234C208.607 353.469 207.774 353.918 207.283 354.26C200.638 358.832 192.113 359.024 186.323 354.751C183.139 352.38 180.105 354.58 182.327 357.657C187.305 364.515 202.048 365.05 210.359 358.682C214.632 355.392 213.671 351.226 209.099 353.234Z" fill="black"/>
<path d="M127.801 353.998C124.468 357.823 135.492 364.98 144.744 364.98C152.756 364.98 161.815 359.468 160.576 355.323C160.021 353.464 157.948 353.699 154.914 355.943C148.162 360.985 138.249 360.387 131.839 354.597C130.279 353.186 128.72 352.951 127.801 353.998Z" fill="black"/>
<path d="M125.258 372.826C124.232 373.467 123.976 374.941 124.552 376.864C129.082 392.12 123.441 403.016 108.101 408.657C103.635 410.302 102.225 411.37 102.225 413.144C102.225 417.865 115.365 415.045 122.843 408.699C124.745 407.097 128.163 403.251 128.398 402.461C128.398 402.439 129.21 402.567 130.214 402.738C133.74 403.337 139.466 403.102 142.5 402.268C142.863 402.161 143.055 402.396 143.718 403.7C147.008 410.131 153.696 414.319 161.943 415.109C163.438 415.237 163.438 415.237 162.327 416.242C154.572 423.207 131.646 424.083 114.254 418.1C109.874 416.583 107.161 416.776 106.819 418.656C105.451 425.942 136.816 431.347 154.465 426.86C162.926 424.724 168.481 420.728 170.745 415.152C172.839 409.96 171.408 408.165 164.934 407.909C151.303 407.353 144.914 398.551 147.008 383.253C147.564 379.15 147.115 378.018 144.914 378.018C142.756 378.018 141.581 380.411 141.004 386.073C140.748 388.402 139.786 388.915 135.62 388.915C132.073 388.915 132.223 389 132.073 386.372C131.603 377.334 128.356 370.903 125.258 372.826ZM141.239 396.97C140.598 397.76 130.492 398.209 130.727 397.44C130.813 397.162 131.048 396.243 131.261 395.431C131.625 394.085 131.71 393.936 132.18 393.978C134.723 394.235 137.992 394.256 139.295 394C140.791 393.722 140.791 393.722 141.026 395.324C141.154 396.2 141.261 396.948 141.239 396.97Z" fill="black"/>
<path d="M142.371 409.491C141.858 409.833 141.559 410.26 141.367 410.923C140.405 414.17 139.23 414.256 136.047 411.307C133.355 408.807 132.009 408.872 129.936 411.649C128.804 413.123 127.671 413.081 126.817 411.542C124.979 408.295 121.347 409.769 122.394 413.358C123.569 417.375 128.483 418.956 132.137 416.499C133.077 415.858 133.077 415.858 134.06 416.563C139.252 420.366 145.405 418.401 146.132 412.739C146.495 409.961 144.38 408.145 142.371 409.491Z" fill="black"/>
</svg>
