<svg width="114" height="207" viewBox="0 0 114 207" fill="none" xmlns="http://www.w3.org/2000/svg">
<path d="M87.3963 0.452327C69.9404 2.07613 56.4158 18.6133 62.5264 30.8346C64.6203 35.001 68.9576 33.6549 67.5474 29.2749C62.8255 14.7461 85.858 0.153202 99.1262 9.25507C108.143 15.4512 109.318 32.0311 101.327 40.5134C98.2288 43.7823 98.6989 46.8377 102.31 46.8163C107.95 46.7949 113.057 36.9025 113.057 26.0487C113.057 10.0029 102.117 -0.91509 87.3963 0.452327Z" fill="black"/>
<path d="M90.964 11.7811C88.7847 12.4434 87.4387 17.4003 88.9984 19.0241C91.1777 21.3103 94.4894 18.7891 94.5535 14.7723C94.5962 12.358 93.122 11.1401 90.964 11.7811Z" fill="black"/>
<path d="M72.5035 17.8264C70.5806 18.8947 71.0079 21.3945 73.5932 23.9157C74.982 25.2831 77.1827 25.5609 77.7809 24.4285C79.2979 21.5227 75.1743 16.3522 72.5035 17.8264Z" fill="black"/>
<path d="M102.266 21.6051C100.301 21.9042 98.1853 23.3571 97.9717 24.5536C97.523 26.8611 99.6809 27.6303 103.463 26.4979C107.33 25.3228 106.283 20.9855 102.266 21.6051Z" fill="black"/>
<path d="M86.2847 24.5976C82.8448 25.0463 80.8578 26.6915 81.3706 28.6785C81.7552 30.1528 83.2294 30.5587 85.4515 29.8323C87.8231 29.0417 90.7075 29.9177 91.6903 31.6911C92.6731 33.4858 93.6132 33.9986 95.1516 33.5499C98.4419 32.6526 97.1386 27.5461 93.1218 25.5591C91.0493 24.5549 88.9768 24.2558 86.2847 24.5976Z" fill="black"/>
<path d="M78.3358 33.164C66.9906 33.805 49.3851 35.1083 33.3393 36.4543C28.5533 36.8603 22.7418 37.3303 20.4129 37.5226C14.8578 37.9713 14.1313 38.3132 14.1313 40.3857C14.1313 43.3128 14.9005 43.4196 30.7967 42.4368C39.0226 41.9454 45.3255 41.5608 54.406 41.048C56.4144 40.9198 63.0379 40.5993 69.1485 40.3002C91.3904 39.2319 93.3347 38.8687 93.2706 35.6852C93.1851 33.1213 89.5529 32.523 78.3358 33.164Z" fill="black"/>
<path d="M92.5867 39.8278C91.3902 40.4902 91.2193 41.3234 91.497 44.8061C92.373 55.5958 89.4459 60.8518 81.22 63.1594C77.7801 64.1422 76.5195 65.1464 76.5195 66.9411C76.5195 69.9964 82.2242 70.2315 87.993 67.4325C94.0182 64.4841 97.0949 58.4161 97.0949 49.3784C97.0949 41.6653 95.4711 38.2254 92.5867 39.8278Z" fill="black"/>
<path d="M9.62408 44.998C6.26963 46.8141 7.03881 58.1808 10.8847 63.8427C14.8374 69.6542 25.2212 73.201 29.9003 70.3166C32.8274 68.5219 30.6481 66.1075 25.3707 65.2956C16.5039 63.9496 12.0384 57.8603 12.7435 48.0533C12.9572 45.1689 11.6538 43.887 9.62408 44.998Z" fill="black"/>
<path d="M64.3417 45.5545C59.9403 45.7468 51.3299 46.1314 45.2192 46.3664C23.2765 47.2424 21.9091 47.5202 19.7725 51.3446C16.7599 56.8143 21.8022 62.049 31.31 63.3095C33.4039 63.5873 33.4039 63.5873 33.3184 65.2966C32.6775 76.1291 35.9678 83.714 42.7622 87.047C55.1544 93.1363 66.0296 83.8635 67.6534 65.8093C67.7816 64.4206 67.7816 64.4206 69.7473 64.036C79.5969 62.1771 85.0025 55.7887 82.695 48.8021C81.4985 45.1485 79.5756 44.8067 64.3417 45.5545Z" fill="black"/>
<path d="M71.4779 71.327C70.7301 72.1389 70.3669 73.6773 70.2174 76.9462C69.7046 88.0992 62.0769 93.4407 46.7149 93.4621C36.3311 93.4834 33.8953 90.6845 31.7588 76.4121C31.2246 72.7799 31.0109 72.4594 29.1948 72.4594C27.3147 72.4594 27.0155 73.1645 26.8019 78.0145C26.0968 94.5731 34.9209 102.329 52.3341 100.427C68.2303 98.7181 77.0331 89.7444 76.2425 76.113C75.9434 71.3911 73.6145 69.0195 71.4779 71.327Z" fill="black"/>
<path d="M58.5947 101.705C57.9323 102.367 57.6546 103.714 57.9109 104.953C58.9579 109.803 57.6973 111.021 51.6294 110.999C44.7923 110.957 42.6771 109.781 42.6557 105.936C42.6343 103.82 42.6343 103.82 41.9506 103.201C38.0193 99.6968 35.7973 108.649 39.6217 112.58C44.4718 117.58 59.022 117.238 62.2269 112.068C65.0472 107.495 61.8636 98.4362 58.5947 101.705Z" fill="black"/>
<path d="M45.9041 119.121C45.605 119.399 45.2631 119.997 45.1349 120.446C44.3657 123.373 43.5752 185.783 44.2803 187.086C45.3486 189.03 47.6561 189.073 48.6389 187.193C50.3055 183.988 51.2456 130.125 49.7927 121.108C49.4081 118.715 47.4211 117.711 45.9041 119.121Z" fill="black"/>
<path d="M26.5245 177.599C7.1884 179.522 -5.28927 190.461 3.04342 198.174C12.1026 206.549 47.9545 208.814 72.7176 202.575C90.4726 198.089 88.4429 186.145 69.0426 181.039C58.0606 178.133 54.813 183.667 65.6241 186.872C72.4825 188.88 78.23 191.807 78.23 193.239C78.23 196.7 48.7023 200.674 31.0114 199.584C19.0251 198.836 6.86791 195.332 6.86791 192.619C6.86791 190.119 20.0293 183.944 28.2552 182.598C31.2678 182.086 32.1651 181.573 32.4215 180.205C32.8488 177.941 31.0755 177.15 26.5245 177.599Z" fill="black"/>
<path d="M52.0996 188.624C48.2965 190.312 43.2969 190.654 39.9852 189.436C37.1222 188.389 35.9257 188.539 35.1992 190.077C32.9131 194.885 47.2496 197.726 54.514 193.902C60.3682 190.825 58.1248 185.932 52.0996 188.624Z" fill="black"/>
</svg>
