<svg width="121" height="208" viewBox="0 0 121 208" fill="none" xmlns="http://www.w3.org/2000/svg">
<path d="M96.7525 0.895008C90.4282 2.60428 84.339 9.76185 81.0486 19.3551C80.9418 19.6756 80.7709 19.5261 80.0872 18.5005C76.5618 13.0949 70.4511 12.8385 67.9086 17.9664C64.7037 24.4188 68.5923 37.0675 73.3142 35.5077C75.0448 34.9522 75.2798 33.6275 74.1902 30.5081C72.6091 25.9999 72.31 20.338 73.656 20.338C74.7884 20.338 76.9891 25.2308 77.9292 29.8031C79.2112 36.1487 83.7407 36.106 84.6595 29.7603C86.2619 18.6714 92.3084 8.52263 98.3764 6.74926C103.269 5.31775 102.5 14.7187 96.8594 25.1239C94.5732 29.3544 98.6541 31.961 102.82 28.9484C108.461 24.8462 115.512 23.6924 113.738 27.1537C113.033 28.5211 110.64 30.0594 107.094 31.4482C100.299 34.119 103.141 39.61 110.192 37.452C125.02 32.9225 122.798 15.5734 107.906 19.6329C107.051 19.8679 106.346 20.0175 106.346 19.9961C106.346 19.9534 106.581 18.9492 106.88 17.7313C109.764 6.00145 105.299 -1.41251 96.7525 0.895008Z" fill="black"/>
<path d="M27.1851 19.6371C6.41744 21.0045 -5.95341 39.9347 3.59715 55.6813C6.41744 60.3391 11.0966 58.8435 8.68223 54.0575C6.33198 49.4211 6.24651 42.0285 8.46857 37.1357C15.0706 22.5428 41.8634 22.0087 52.3968 36.2597C55.9649 41.1098 61.1355 39.1014 58.4434 33.9095C53.7856 24.9144 40.3251 18.7611 27.1851 19.6371Z" fill="black"/>
<path d="M32.5909 28.3921C29.7706 30.721 29.856 34.6523 32.719 34.6523C34.7702 34.6523 37.2273 31.5116 36.7999 29.4604C36.4367 27.7939 34.0651 27.1956 32.5909 28.3921Z" fill="black"/>
<path d="M14.4072 31.6636C13.0612 32.7319 13.2108 34.5053 14.7705 36.065C16.6934 37.9879 19.0009 37.7956 19.6205 35.659C20.3897 32.9669 16.5225 30.0184 14.4072 31.6636Z" fill="black"/>
<path d="M42.4621 34.4649C39.4068 36.3237 38.2103 38.3535 39.1931 40.02C40.8169 42.7549 47.2267 38.9304 46.6071 35.5973C46.308 33.9948 44.1927 33.418 42.4621 34.4649Z" fill="black"/>
<path d="M22.7619 35.5961C19.6852 36.7071 17.7409 39.0573 17.5273 42.0272C17.2495 45.5526 20.5399 46.3004 22.0782 43.0528C23.1679 40.7666 25.3045 40.1256 27.7829 41.3649C30.6459 42.775 32.6116 41.899 32.3766 39.3137C32.0775 36.2798 26.6719 34.2073 22.7619 35.5961Z" fill="black"/>
<path d="M92.8848 38.4207C92.4788 38.4635 90.7909 38.613 89.1458 38.7199C68.4422 40.3009 19.3861 46.3902 18.1469 47.544C17.1854 48.4413 17.1641 50.3002 18.1255 51.0907C19.1511 51.924 18.852 51.9453 35.4105 49.937C61.3487 46.7748 78.1423 44.9587 93.5471 43.634C100.47 43.0571 101.858 42.5444 101.858 40.5573C101.858 38.5917 98.8672 37.8652 92.8848 38.4207Z" fill="black"/>
<path d="M10.4768 45.1259C7.05828 46.7283 7.76335 50.1682 11.3956 49.7409C13.5749 49.4845 14.75 48.7794 15.1132 47.4975C15.8183 44.9122 13.468 43.6944 10.4768 45.1259Z" fill="black"/>
<path d="M99.2942 47.3062C98.0763 48.6309 98.2045 49.8487 100.085 54.2928C114.592 88.756 97.3499 104.46 50.2595 99.6953C12.8051 95.9136 6.50213 88.0723 18.4884 60.2325C20.0481 56.6217 20.1336 55.2757 18.8516 54.4424C16.6082 52.9681 14.493 55.6389 10.989 64.2493C-0.035827 91.3413 11.5231 102.494 54.2122 105.891C91.7734 108.904 111.494 98.1356 111.473 74.6118C111.451 61.0872 103.375 42.9475 99.2942 47.3062Z" fill="black"/>
<path d="M53.1453 54.9722C30.0915 56.9379 24.7501 58.989 23.2331 66.4671C19.8573 83.2393 28.9592 95.2469 46.992 97.8109C73.0156 101.486 92.1808 93.0676 95.8985 76.3168C98.441 64.8433 91.3689 57.878 75.3659 56.0192C74.2548 55.891 71.7978 55.5919 69.9176 55.3568C66.029 54.8441 56.9912 54.6304 53.1453 54.9722Z" fill="black"/>
<path d="M65.772 107.941C65.3019 108.411 65.1096 108.86 65.0028 109.608C64.7464 111.723 64.6396 112.001 63.9559 113.005C60.8365 117.556 51.8628 117.727 49.0638 113.304C48.4656 112.364 48.3801 112.108 48.1237 110.014C47.611 106.083 43.3164 107.771 43.3164 111.894C43.2951 125.098 67.5881 125.654 70.2588 112.514C71.028 108.668 68.0795 105.655 65.772 107.941Z" fill="black"/>
<path d="M56.4136 123.113C55.5803 123.306 54.9394 124.032 54.7471 124.972C53.4438 131.895 55.9436 179.925 57.9733 186.784C59.0203 190.288 63.1439 190.138 63.7849 186.549C63.9771 185.459 63.8276 182.639 63.0798 173.537C62.3106 164.136 61.9687 158.923 61.4773 149.5C60.1313 123.712 59.8749 122.323 56.4136 123.113Z" fill="black"/>
<path d="M71.2843 178.449C68.934 178.833 68.058 180.671 69.4254 182.401C70.1092 183.277 71.2202 183.705 75.3652 184.752C86.1763 187.444 91.5819 190.905 89.1675 193.576C81.9672 201.524 41.9489 203.062 35.4109 195.627C33.3812 193.319 38.8081 188.811 46.9272 186.055C50.0893 184.987 50.944 183.983 50.3884 181.91C49.0638 177.039 32.8043 183.918 29.1721 190.905C23.1897 202.336 45.047 210.305 71.6902 206.438C91.5819 203.532 100.748 195.563 93.9749 187.038C90.364 182.487 77.1385 177.487 71.2843 178.449Z" fill="black"/>
<path d="M52.7388 190.432C51.5423 191.607 51.9696 193.466 53.743 194.855C58.9349 198.957 69.1478 198.23 69.2546 193.765C69.2974 191.778 67.1394 190.774 64.7678 191.714C62.1398 192.718 58.6571 192.205 55.9864 190.389C54.7472 189.534 53.6148 189.534 52.7388 190.432Z" fill="black"/>
</svg>
