<svg width="117" height="158" viewBox="0 0 117 158" fill="none" xmlns="http://www.w3.org/2000/svg">
<path d="M81.0258 0.997586C80.7267 1.04032 79.7652 1.18988 78.8892 1.31807C67.5012 2.94188 60.2796 9.00979 62.9503 14.6504C67.2876 23.8164 104.293 26.2734 113.523 18.0048C118.929 13.1548 115.809 5.35623 107.584 3.19827C99.5714 1.10441 96.4947 6.59545 104.4 8.8816C108.032 9.90716 110.062 11.7446 108.844 12.8984C104.229 17.3211 76.4749 17.1929 69.6592 12.7061C66.4757 10.6336 78.7824 6.14676 87.7561 6.1254C92.7557 6.10403 93.2044 5.89037 93.2044 3.51876C93.2044 1.65993 85.9186 0.142951 81.0258 0.997586Z" fill="black"/>
<path d="M53.0361 21.6178C49.5534 23.1989 43.7205 31.9589 39.191 42.4282C35.046 52.0001 32.8453 58.9013 25.0468 86.7624C16.4577 117.465 13.3383 126.118 3.7877 145.839C0.00593966 153.659 -0.442744 156.095 1.71521 156.992C4.02273 157.954 5.75336 156.116 10.1547 148.04C19.9403 130.156 24.1494 118.448 34.4477 80.3526C42.7591 49.6498 47.5878 36.8517 54.0616 28.3694C56.7537 24.844 56.8819 24.609 56.8819 23.6262C56.8819 22.5152 56.2837 21.6819 55.3222 21.4896C54.959 21.4041 54.489 21.3187 54.318 21.2759C54.1471 21.2118 53.5702 21.3828 53.0361 21.6178Z" fill="black"/>
<path d="M111.642 21.4046C109.826 22.3447 109.975 27.9212 111.856 29.6946C114.056 31.7457 116.513 29.5878 116.065 25.9983C115.573 22.0242 113.885 20.2722 111.642 21.4046Z" fill="black"/>
<path d="M58.1427 27.0218C56.5403 27.8123 56.1557 30.889 56.9035 36.6364C57.9077 44.2427 62.6082 50.4602 65.8985 48.5586C67.5651 47.6185 67.5864 45.4605 65.984 42.8966C63.7619 39.3499 62.4373 35.675 61.8817 31.53C61.4331 28.3465 61.4331 28.3037 60.8775 27.7055C60.3007 27.0218 58.8264 26.6799 58.1427 27.0218Z" fill="black"/>
<path d="M98.7608 33.5625C87.9924 35.87 74.2968 46.5957 77.0103 50.5697C78.3136 52.4713 80.1724 52.1935 82.9714 49.651C91.5605 41.8524 103.611 37.387 107.264 40.6773C109.38 42.5789 105.918 45.8478 96.7737 50.6124C84.5738 56.9367 82.0954 59.0947 75.9847 68.7734C71.156 76.4224 68.1221 79.5419 59.127 85.9944C43.2308 97.4037 38.5303 107.595 35.0904 138.148C34.1717 146.31 34.7913 148.725 37.8039 148.725C40.9447 148.725 41.9489 145.776 43.6581 131.311C46.3075 108.706 49.9611 101.741 64.5753 91.2076C73.2713 84.9474 77.5017 80.5674 82.8218 72.2347C87.6719 64.6926 89.723 62.8337 98.7394 57.8127C105.662 53.9669 108.61 51.9585 110.79 49.5869C119.187 40.5277 111.837 30.7422 98.7608 33.5625Z" fill="black"/>
<path d="M90.3197 68.366C89.0378 68.9215 88.76 69.9257 88.6532 74.4767C88.354 85.2451 85.8542 89.5182 75.855 96.2271C61.4117 105.949 73.6543 115.627 95.5971 111.867C109.699 109.453 116.151 97.5732 108.139 88.8132C104.421 84.7323 100.575 87.6808 102.391 93.2145C103.588 96.8467 103.481 99.1543 102.05 100.821C99.0797 104.303 87.8413 106.12 80.1282 104.368C78.6539 104.026 78.6539 104.026 80.8546 102.53C91.1316 95.4793 94.7638 89.0909 94.7424 78.1089C94.7424 70.2676 93.2896 67.0841 90.3197 68.366Z" fill="black"/>
</svg>
