<svg width="247" height="150" viewBox="0 0 247 150" fill="none" xmlns="http://www.w3.org/2000/svg">
<path d="M124.974 0.105754C64.8293 1.98595 22.3326 19.8906 7.88926 49.4396C-11.1905 88.4964 5.41081 120.631 53.7191 138.151C77.7771 146.868 114.313 151.141 145.699 148.919C203.131 144.838 226.761 131.1 241.696 93.1328C254.345 60.9772 239.901 26.8131 207.34 11.8997C195.076 6.25913 190.14 10.4682 201.742 16.6643C242.893 38.6498 250.349 77.963 220.437 115.332C208.216 130.609 186.7 138.792 151.041 141.719C67.9488 148.556 3.59472 119.904 6.7996 77.5357C9.27804 44.4827 30.3021 24.6124 74.8713 13.1176C99.0148 6.87874 137.815 4.59259 175.398 7.1565C181.06 7.56245 181.893 7.49835 182.833 6.70781C184.243 5.53269 183.837 3.67386 181.979 2.64829C180.761 1.96459 170.249 0.939024 159.267 0.383511C154.908 0.169852 129.483 -0.043807 124.974 0.105754Z" fill="black"/>
<path d="M124.269 9.25531C122.794 10.7296 123.371 15.4087 125.23 16.9684C127.11 18.5495 129.247 16.9257 129.247 13.9131C129.247 9.55443 126.512 7.01189 124.269 9.25531Z" fill="black"/>
<path d="M179.948 10.8501C176.188 12.1321 169.821 16.9822 168.624 19.4392C166.872 22.986 170.248 25.2935 172.94 22.4091C173.709 21.5758 176.658 19.3538 179.457 17.4949C185.824 13.2859 186.166 8.69219 179.948 10.8501Z" fill="black"/>
<path d="M128.5 20.0856C117.411 21.047 100.446 25.1279 86.3236 30.2557C79.2943 32.7983 77.6705 34.0589 78.4396 36.4305C79.0165 38.1825 80.1062 38.2893 83.7384 36.9432C94.7204 32.9051 118.073 27.2004 127.432 26.2817C151.297 23.9314 194.115 35.6827 205.161 47.6262C209.818 52.6472 212.276 70.5732 209.477 79.1195C206.058 89.6315 199.413 95.9558 184.906 102.601C177.15 106.169 173.646 107.942 167.578 111.403C159.566 115.997 156.211 117.557 151.682 118.753C144.118 120.762 140.871 120.698 127.538 118.347C111.429 115.484 100.575 113.967 85.4476 112.472C68.6968 110.826 69.5942 111.126 56.7105 102.515C49.4675 97.6651 47.5018 96.1481 45.4721 93.8406C36.3061 83.3713 36.4557 64.1848 45.7712 54.5274C48.1214 52.0917 50.2153 50.767 54.9799 48.6945C62.928 45.2332 60.1291 40.4686 51.7964 43.2462C39.2332 47.4553 31.7765 58.9715 31.7979 74.2054C31.8406 87.9223 37.3958 97.9215 49.2538 105.592C50.429 106.34 53.7193 108.476 56.6037 110.335C66.7739 116.916 68.0772 117.3 85.0203 118.668C98.5877 119.779 107.412 120.933 123.885 123.796C136.085 125.911 136.213 125.932 141.533 125.911C151.831 125.911 158.391 123.86 171.125 116.638C176.509 113.583 181.167 111.211 186.444 108.818C199.071 103.113 203.601 99.8444 209.092 92.4518C216.762 82.1321 218.237 70.5732 214.177 52.6899C212.382 44.7418 207.661 39.8063 196.55 34.2511C178.923 25.4484 145.956 18.5899 128.5 20.0856Z" fill="black"/>
<path d="M41.3263 28.4397C39.4675 29.5721 39.5743 31.6018 41.6041 33.1829C43.1211 34.358 43.8475 35.1272 45.3431 37.1783C47.5865 40.255 49.5949 40.9815 50.9196 39.2295C53.4194 35.875 44.8944 26.2604 41.3263 28.4397Z" fill="black"/>
<path d="M100.938 33.9923C94.87 35.2315 94.1008 42.2182 99.8269 44.1198C104.527 45.6795 109.741 40.979 107.967 36.7699C106.984 34.4196 104.228 33.3086 100.938 33.9923Z" fill="black"/>
<path d="M147.943 34.1434C144.204 35.4894 142.708 38.2029 144.14 41.0018C145.763 44.164 150.421 44.5486 153.348 41.771C157.408 37.9679 153.327 32.1991 147.943 34.1434Z" fill="black"/>
<path d="M124.716 34.7193C124.054 35.0612 123.584 35.8517 123.37 36.9414C123.285 37.4755 124.033 41.6632 126.02 51.6411C128.755 65.2725 128.968 66.4263 128.669 66.4263C128.391 66.4263 119.696 63.8196 115.102 62.3454C112.474 61.5121 105.338 59.0764 99.2056 56.9185C71.4941 47.1542 62.9477 45.6159 64.2938 50.6155C64.5929 51.7265 65.0416 52.0043 67.4986 52.5385C72.8615 53.6922 80.7241 56.2561 94.847 61.4694C106.684 65.828 111.021 67.345 117.025 69.2466C119.696 70.0798 121.96 70.8276 122.046 70.9131C122.217 71.0627 116.768 74.1394 105.744 80.1004C81.3224 93.3259 72.776 98.9238 72.776 101.659C72.776 104.116 74.9553 104.607 77.562 102.748C82.4334 99.2229 89.3346 95.3771 112.047 83.519C118.884 79.9295 127.537 75.2077 129.524 73.9684C129.951 73.6907 130.314 73.5198 130.314 73.5838C130.314 73.7761 132.28 83.7326 133.84 91.5312C137.536 109.863 138.668 112.662 142.066 111.722C144.822 110.953 144.736 109.414 140.677 91.1039C137.216 75.4427 137.173 75.1863 137.365 75.1863C137.451 75.1863 139.865 75.7632 142.728 76.4469C162.855 81.3397 189.391 85.7197 194.519 84.9932C199.241 84.3309 200.159 82.2584 196.549 80.4209C195.032 79.6518 194.412 79.5236 184.797 78.0707C171.273 76.0409 162.812 74.5453 153.283 72.4942C148.646 71.5114 137.963 68.9902 137.814 68.862C137.771 68.8406 138.198 68.4774 138.775 68.0928C148.561 61.3198 161.167 48.7353 166.401 40.4667C167.854 38.2019 168.004 35.638 166.722 35.3175C164.564 34.7834 163.132 35.8517 157.449 42.1974C146.125 54.9101 134.972 64.6956 134.523 62.3454C132.622 52.3248 129.203 37.4328 128.541 36.1935C127.665 34.6125 126.041 33.9929 124.716 34.7193Z" fill="black"/>
<path d="M174.543 43.2648C169.458 44.7604 167.172 48.7986 169.116 52.8795C171.381 57.6868 178.987 58.4346 183.218 54.2896C188.944 48.6276 182.812 40.8291 174.543 43.2648Z" fill="black"/>
<path d="M117.176 45.6811C114.398 46.3648 112.197 49.6124 112.796 52.1122C114.142 57.6887 120.53 58.6929 122.966 53.6933C125.231 49.0783 121.94 44.5273 117.176 45.6811Z" fill="black"/>
<path d="M154.673 57.7714C150.314 58.9892 148.733 63.647 151.596 66.8305C154.502 70.0567 160.399 69.0739 162.279 65.0358C164.33 60.6558 159.822 56.3398 154.673 57.7714Z" fill="black"/>
<path d="M195.395 61.4067C187.554 63.0306 184.392 71.0214 189.584 76.1492C196.079 82.5803 208.536 79.2686 208.899 71.0214C209.176 64.9749 202.19 59.9966 195.395 61.4067Z" fill="black"/>
<path d="M60.4912 62.623C50.321 63.3494 44.0822 72.5581 49.68 78.6047C56.9658 86.4459 74.0158 80.6131 72.9688 70.6352C72.4133 65.1655 67.6274 62.1102 60.4912 62.623Z" fill="black"/>
<path d="M92.7757 67.7924C85.8105 69.9718 87.3061 80.1633 94.6773 80.6974C101.984 81.2316 105.275 71.5742 98.8437 68.4762C97.1557 67.6642 94.2714 67.3438 92.7757 67.7924Z" fill="black"/>
<path d="M218.065 85.6508C214.519 86.3345 215.352 90.2872 219.176 90.9922C221.292 91.3768 223.193 92.0178 225.394 93.1288C228.727 94.774 230.671 95.009 231.59 93.8339C234.197 90.5222 224.176 84.4543 218.065 85.6508Z" fill="black"/>
<path d="M111.256 90.4594C104.056 91.8909 98.3513 97.6383 99.3341 102.488C101.599 113.513 124.012 110.266 124.012 98.9203C124.012 93.1301 117.965 89.1347 111.256 90.4594Z" fill="black"/>
<path d="M163.219 93.3256C155.506 94.1375 156.104 104.137 163.86 104.137C169.565 104.137 172.748 98.5816 169.223 94.7785C167.962 93.3897 166.339 93.0051 163.219 93.3256Z" fill="black"/>
<path d="M50.0864 109.971C46.7747 112.001 44.7022 121.124 47.1166 123.026C49.0181 124.522 50.7274 122.898 51.8812 118.475C52.2444 117.065 52.8426 115.334 53.2059 114.629C54.4237 112.215 54.4664 111.318 53.3554 110.207C52.5862 109.459 51.1334 109.352 50.0864 109.971Z" fill="black"/>
<path d="M142.151 127.915C140.592 129.24 139.246 136.697 140.229 138.62C142.109 142.209 145.762 137.936 146.275 131.569C146.532 128.257 144.203 126.206 142.151 127.915Z" fill="black"/>
</svg>
