<svg width="348" height="242" viewBox="0 0 348 242" fill="none" xmlns="http://www.w3.org/2000/svg">
<path d="M322.477 0.987829C313.055 3.31671 302.607 15.8585 295.812 33.058C291.817 43.1855 291.39 49.0397 294.659 48.9543C296.368 48.8902 296.966 48.2492 297.543 45.728C300.855 31.0924 313.225 12.034 322.071 7.93174C328.481 4.98325 335.852 8.74364 339.634 16.9054C346.214 31.1565 332.177 55.5991 311.495 65.9829C304.7 69.3801 305.277 74.4651 312.2 72.1363C327.498 66.9871 344.099 46.8818 347.112 29.8532C350.06 13.2305 336.642 -2.49481 322.477 0.987829Z" fill="black"/>
<path d="M180.991 2.82535C177.914 3.50906 176.611 5.47472 178.277 6.94897C179.367 7.91043 181.205 8.50868 184.068 8.85053C199.43 10.6452 208.04 18.2728 207.399 29.5113C206.908 38.2499 197.144 50.0866 185.734 55.77C164.603 66.3461 146.528 68.6109 127.448 63.0771C109.351 57.8211 109.565 41.4335 127.875 29.5754C134.435 25.3449 157.638 14.6406 171.034 9.66244C177.423 7.29082 175.714 3.03901 169.047 4.74828C159.775 7.09853 137.063 16.6918 127.192 22.4392C102.535 36.7757 100.976 60.4277 124.136 68.4186C139.178 73.6105 155.715 73.7387 170.137 68.8245C190.755 61.7738 200.477 55.1931 209.066 42.5658C221.372 24.4689 209.749 4.2355 186.183 2.71852C182.23 2.46213 182.722 2.46213 180.991 2.82535Z" fill="black"/>
<path d="M167.681 15.7775C166.207 16.6321 166.869 19.2601 169.433 22.7214C175.651 31.0114 177.338 41.2456 172.852 43.5318C169.177 45.412 164.54 41.5661 155.567 29.1739C152.639 25.1358 150.396 24.2384 149.563 26.7596C148.943 28.6398 154.477 37.9339 159.647 43.6814C173.407 59.0221 188.556 44.6856 179.133 25.2426C175.95 18.6833 170.459 14.1537 167.681 15.7775Z" fill="black"/>
<path d="M198.063 18.0631C197.251 18.704 197.016 20.1996 197.144 23.7677C197.486 32.6773 194.196 32.1432 188.662 22.4217C186.675 18.9391 183.898 18.2126 183.192 20.9902C182.658 23.1054 186.483 30.5407 189.559 33.3824C196.674 39.9631 205.178 33.0192 202.999 22.4217C202.187 18.5117 199.943 16.5461 198.063 18.0631Z" fill="black"/>
<path d="M39.8492 20.5591C25.2349 24.3836 20.8763 43.7197 31.1533 59.0177C38.2254 69.5297 50.1689 76.901 52.6901 72.3287C53.6729 70.5767 52.626 69.1238 48.9297 67.2222C29.2303 57.0521 25.1708 28.2722 43.1395 26.0288C52.3482 24.875 67.0907 36.434 69.4409 46.6469C70.3169 50.5355 74.3551 49.4458 74.3551 45.3222C74.3551 32.0753 53.3738 17.0124 39.8492 20.5591Z" fill="black"/>
<path d="M324.207 27.4011C313.332 29.7727 297.521 48.8738 306.452 48.8738C307.178 48.8738 308.118 47.9551 309.486 45.968C312.712 41.2248 321.365 34.5373 325.788 33.3835C328.779 32.6144 324.378 38.9814 316.195 47.2714C311.344 52.1855 310.447 53.7666 311.708 55.3049C314.763 59.0867 330.617 43.2759 332.668 34.3664C333.864 29.2172 330.104 26.1191 324.207 27.4011Z" fill="black"/>
<path d="M242.718 28.3826C228.253 29.9423 214.515 37.7408 210.242 46.7786C208.084 51.3295 211.994 54.0003 214.9 49.9621C224.215 36.8862 243.658 31.2883 263.55 35.9247C272.203 37.9545 278.1 42.655 282.031 50.6886C285.386 57.5043 285.599 60.816 283.27 70.0247C281.753 76.0499 282.031 77.866 284.531 78.0796C285.856 78.1865 286.689 77.695 287.437 76.3276C296.646 59.8759 288.42 38.1895 270.408 31.4806C263.336 28.8313 251.136 27.4638 242.718 28.3826Z" fill="black"/>
<path d="M138.537 30.066C136.593 30.4933 136.444 32.6512 138.174 35.4288C141.657 41.0267 142.041 47.0305 139.072 49.0389C137.191 50.3208 133.281 47.8424 130.76 43.7188C127.32 38.1209 122.791 39.5738 125.526 45.3853C131.978 59.1663 146.186 58.8672 147.276 44.9366C147.832 37.7363 142.789 29.1259 138.537 30.066Z" fill="black"/>
<path d="M99.0324 30.8604C80.5082 33.2748 70.2739 46.6498 75.5726 61.5846C77.4742 66.9474 81.7901 66.9474 81.2773 61.6059C79.6749 45.1756 86.747 37.5479 104.075 36.9497C108.433 36.7788 108.604 36.736 109.309 35.3686C111.019 32.0783 106.147 29.9417 99.0324 30.8604Z" fill="black"/>
<path d="M44.0797 31.3711C30.9397 33.5718 33.0763 54.8095 47.5196 65.6634C53.1602 69.9152 57.1556 67.1163 52.156 62.4158C40.7466 51.7115 37.6486 37.2254 46.7932 37.2254C52.0492 37.2254 56.6642 41.0926 60.4673 48.6775C63.6081 54.9163 68.7146 53.613 66.2361 47.2033C62.2834 36.969 52.4979 29.961 44.0797 31.3711Z" fill="black"/>
<path d="M243.572 37.8874C240.218 40.7077 237.333 54.0827 238.722 60.3643C241.692 73.8462 254.362 70.214 267.374 52.1812C273.42 43.7844 270.109 39.1907 263.699 47.1174C250.965 62.8214 245.88 65.7271 244.683 57.9499C244.491 56.7321 244.491 55.792 244.726 52.0316C244.876 49.7882 245.752 46.0278 246.905 42.6733C248.444 38.1651 246.542 35.4089 243.572 37.8874Z" fill="black"/>
<path d="M96.8957 39.8996C92.708 40.5193 89.5885 45.0275 90.3577 49.2579C91.2551 54.2148 96.8743 56.6719 98.1563 52.6551C98.3913 51.9286 98.0067 50.9885 97.088 50.0484C95.2719 48.211 96.447 45.4548 99.2887 44.9206C104.395 43.9805 102.066 39.1091 96.8957 39.8996Z" fill="black"/>
<path d="M231.606 46.5631C230.73 47.1614 229.876 48.7852 229.128 51.3064C227.654 56.1992 225.945 56.8401 222.676 53.6993C218.83 50.0458 215.368 52.5242 218.445 56.7333C224.62 65.0874 234.256 61.7543 235.367 50.879C235.73 47.3109 233.786 45.0889 231.606 46.5631Z" fill="black"/>
<path d="M302.777 50.599C301.367 51.9878 302.2 54.2953 305.127 57.1583C308.054 60.0214 311.366 56.7738 309.016 53.3552C306.815 50.1503 304.315 49.0607 302.777 50.599Z" fill="black"/>
<path d="M270.322 53.5088C269.125 54.6625 267.929 58.2306 267.929 60.6236C267.929 67.1188 274.338 70.0032 280.235 66.1574C285.812 62.5252 283.504 57.0769 277.778 60.3672C273.997 62.5465 273.142 61.7774 274.232 57.0982C275.086 53.4233 272.693 51.2226 270.322 53.5088Z" fill="black"/>
<path d="M56.9413 54.2554C52.7536 58.5713 51.8562 62.6095 55.0825 62.6095C56.2362 62.6095 56.7063 62.289 57.6677 60.8788C58.1164 60.2165 59.0779 58.9345 59.8043 58.0585C63.0947 54.0418 60.488 50.6232 56.9413 54.2554Z" fill="black"/>
<path d="M203.511 53.98C200.606 55.1765 201.695 57.5054 206.46 60.2616C216.288 65.9663 223.211 73.7221 227.612 83.9136C229.172 87.5458 229.898 88.2936 231.586 88.0799C235.56 87.5885 234.962 82.6957 229.962 74.7049C224.557 66.0944 218.019 60.0479 209.537 55.7961C206.182 54.1082 204.473 53.5954 203.511 53.98Z" fill="black"/>
<path d="M296.197 54.4263C294.808 55.2596 294.937 56.2638 297.116 62.2249C299.53 68.8697 300.278 70.0234 302.116 70.0234C304.167 70.0234 304.316 67.4168 302.586 62.3317C299.958 54.7255 298.547 52.9735 296.197 54.4263Z" fill="black"/>
<path d="M65.9796 56.6721C60.7663 60.2188 55.9804 70.4745 59.5699 70.4531C62.7961 70.4104 71.1929 58.5523 69.27 56.7148C68.4581 55.9457 67.0907 55.9243 65.9796 56.6721Z" fill="black"/>
<path d="M92.9848 62.671C78.0074 65.0853 65.2092 74.6787 60.5728 86.9641C58.714 91.8996 62.8589 93.9934 65.2519 89.3143C76.0631 68.3543 105.398 61.0045 115.996 76.6229C117.962 79.486 119.094 82.6908 119.97 87.7546C120.782 92.5405 121.615 93.8438 123.794 93.6729C126.337 93.4592 126.679 90.0407 124.948 82.5199C121.594 67.9911 108.902 60.1071 92.9848 62.671Z" fill="black"/>
<path d="M68.5855 64.0008C66.7907 64.8982 64.1414 69.4491 64.4191 71.137C64.9533 74.2564 69.611 71.9916 71.8758 67.5262C73.1578 64.9836 71.0853 62.7402 68.5855 64.0008Z" fill="black"/>
<path d="M292.778 64.044C291.004 65.1123 291.41 69.77 293.376 70.7956C294.914 71.5861 296.431 70.5819 296.687 68.6163C297.136 64.92 295.149 62.5911 292.778 64.044Z" fill="black"/>
<path d="M331.515 65.0071C330.019 66.5027 330.211 67.9129 332.476 72.0579C335.382 77.3566 335.467 78.3608 333.544 83.8091C328.801 97.291 328.716 97.6115 328.737 104C328.758 108.465 328.78 108.7 329.549 112.226C331.814 122.61 331.728 122.887 325.489 126.413C311.901 134.104 309.273 140.771 313.567 156.645C315.918 165.277 316.473 169.102 315.789 171.965C313.717 180.725 300.876 181.943 296.987 173.738C295.107 169.743 294.851 169.294 293.74 167.82C292.095 165.598 290.449 164.401 285.151 161.453C280.066 158.632 279.425 155.47 281.39 142.993C284.488 123.293 282.224 114.768 271.776 106.906C262.823 100.154 242.782 94.9621 240.133 98.7011C238.573 100.88 239.94 102.462 244 103.145C259.127 105.709 269.959 111.798 273.848 119.96C276.156 124.832 276.305 129.148 274.553 140.856C272.032 157.65 273.506 162.735 282.224 167.371C288.014 170.469 288.27 170.726 290.578 175.469C295.15 184.87 302.478 187.882 312.2 184.336C322.391 180.618 325.254 172.264 321.409 157.308C319.55 149.979 319.4 149.296 319.272 146.411C318.994 140.215 320.917 137.16 327.434 133.335C333.993 129.489 335.66 128.101 337.048 125.302C338.694 121.947 338.8 118.977 337.454 111.905C335.745 102.803 336.172 98.6584 339.762 89.2574C343.458 79.5787 343.779 76.4806 341.535 71.8442C338.736 66.0327 333.844 62.6782 331.515 65.0071Z" fill="black"/>
<path d="M185.842 68.3841C184.325 69.666 182.637 80.0712 183.406 83.3402C186.055 94.5787 203.597 88.1262 207.037 74.6443C207.955 71.0334 207.122 68.32 205.092 68.32C203.447 68.32 202.614 69.3242 201.204 73.0632C199.366 77.9133 196.119 81.5668 192.444 82.8488C189.025 84.0453 188.619 82.977 189.431 74.8579C190.051 68.7473 188.577 66.0766 185.842 68.3841Z" fill="black"/>
<path d="M32.1358 70.9851C18.0557 74.0404 5.06522 95.0217 1.41165 120.661C-3.01109 151.513 5.36434 170.336 21.4742 165.786C29.8496 163.414 28.9523 157.026 20.47 158.585C11.8382 160.166 8.35556 155.979 7.24454 142.668C4.97975 115.298 19.7222 81.027 36.0244 75.7069C38.0328 75.0446 38.8874 73.4208 38.0328 71.8397C37.3918 70.6646 35.1484 70.3227 32.1358 70.9851Z" fill="black"/>
<path d="M86.726 72.0981C82.0041 76.5849 77.9018 84.7253 78.6283 88.1225C79.7179 93.1649 85.2303 93.4213 94.3322 88.8276C104.267 83.828 109.438 78.8925 106.895 76.8627C105.528 75.7944 103.883 76.3499 98.6054 79.6403C92.0888 83.7211 84.6107 87.097 84.6107 85.9646C84.6107 85.3236 87.2174 80.4735 88.9266 77.9524C91.5333 74.1065 91.5119 74.1279 91.5119 73.0596C91.5119 70.5811 88.8625 70.047 86.726 72.0981Z" fill="black"/>
<path d="M297.392 72.3305C296.752 72.6724 294.893 73.7407 293.248 74.7022C284.915 79.659 279.338 81.5606 264.297 84.6587C246.349 88.3336 222.12 92.1795 210.989 93.0982C203.789 93.6751 199.152 93.7819 170.073 93.9528C152.98 94.0597 138.217 94.1878 137.277 94.2519C136.336 94.316 132.683 94.487 129.157 94.5938C123.389 94.8075 113.603 95.2989 97.2155 96.1962C73.0293 97.5209 57.7313 96.9013 49.7191 94.2519C44.7622 92.6068 44.2281 90.7693 46.3006 82.4152C47.3261 78.2489 46.9843 77.1806 44.6554 77.1806C43.2025 77.1806 42.6897 77.7361 41.3864 80.8555C33.0537 100.598 46.1724 105.106 103.839 102.307C129.371 101.046 132.747 100.982 170.607 100.897C196.973 100.854 200.541 100.79 209.386 100.149C227.569 98.8456 266.433 91.9872 280.941 87.5431C296.303 82.8212 307.541 73.7834 300.32 71.9673C298.952 71.6255 298.674 71.6682 297.392 72.3305Z" fill="black"/>
<path d="M144.2 74.1913C139.5 77.6739 138.987 84.4255 143.089 88.5492C146.55 92.0104 150.14 89.1047 147.49 84.9811C146.059 82.7376 146.059 81.6693 147.533 78.7849C149.477 74.9391 147.298 71.9265 144.2 74.1913Z" fill="black"/>
<path d="M128.452 75.517C125.461 78.6364 124.607 81.0294 126.145 82.0336C128.089 83.3369 133.922 78.2091 133.431 75.6025C132.982 73.1668 130.781 73.1241 128.452 75.517Z" fill="black"/>
<path d="M241.308 74.8334C236.565 77.2264 234.877 81.7773 238.744 81.7773C240.09 81.7773 244.128 79.4912 244.897 78.3161C246.606 75.6667 244.235 73.3592 241.308 74.8334Z" fill="black"/>
<path d="M212.164 75.5137C210.391 76.4325 209.002 79.5731 209.237 82.1157C209.75 87.4999 215.091 90.0852 220.625 87.6495C226.415 85.0855 224.62 79.915 218.723 82.1584C215.54 83.3763 214.151 81.9662 215.241 78.6545C216.031 76.2829 214.258 74.4454 212.164 75.5137Z" fill="black"/>
<path d="M156.014 76.4291C152.916 79.399 157.809 86.1292 163.834 87.1548C168.15 87.8812 173.406 85.0609 174.453 81.4501C175.479 77.9461 172.552 77.0701 169.005 79.8477C165.928 82.262 162.723 81.5569 160.971 78.0956C159.839 75.8309 157.467 75.0403 156.014 76.4291Z" fill="black"/>
<path d="M54.9535 76.9678C54.2484 77.566 52.2828 80.7068 51.2999 82.8647C49.1206 87.5225 51.9623 89.4241 55.0603 85.3646C59.2267 79.9376 59.8036 76.4336 56.5346 76.4336C55.8295 76.4336 55.4236 76.5618 54.9535 76.9678Z" fill="black"/>
<path d="M324.037 77.7355C323.203 78.3978 322.285 79.8294 321.686 81.4104C321.387 82.201 320.383 84.4017 319.464 86.3032C316.302 92.7985 315.896 94.5932 316.11 101.217C316.324 107.413 316.003 108.801 313.311 113.523C309.807 119.655 309.401 121.856 311.623 122.582C313.161 123.095 313.909 122.625 315.277 120.275C315.96 119.143 317.05 117.369 317.734 116.365C321.216 111.152 321.985 108.417 321.985 101.024C321.985 95.2983 322.092 94.8068 324.443 89.7859C327.177 83.9102 327.818 81.6241 327.348 79.3807C326.921 77.3509 325.447 76.6245 324.037 77.7355Z" fill="black"/>
<path d="M250.729 79.8104C244.384 82.1179 242.14 83.9768 243.764 85.6006C245.901 87.7372 258.165 83.4854 258.165 80.601C258.165 78.1225 256.071 77.8875 250.729 79.8104Z" fill="black"/>
<path d="M73.0722 81.0263C72.303 81.4323 71.5979 81.7741 71.4698 81.7741C70.551 81.8169 69.7818 83.4407 70.1023 84.6585C70.957 87.7352 77.7727 85.6627 77.7727 82.3296C77.7727 80.193 75.7216 79.6375 73.0722 81.0263Z" fill="black"/>
<path d="M109.544 80.5102C106.617 82.2195 109.865 89.0779 113.646 89.1207C116.744 89.1634 117.428 85.9158 114.672 84.1852C114.074 83.8006 113.689 83.3305 113.24 82.3263C112.407 80.4461 110.933 79.7197 109.544 80.5102Z" fill="black"/>
<path d="M133.71 83.8056C131.274 85.4507 129.629 88.5915 130.377 90.2153C131.701 93.1425 138.731 88.1215 137.833 84.8525C137.385 83.2073 135.355 82.6945 133.71 83.8056Z" fill="black"/>
<path d="M23.2897 96.7103C19.8711 100.3 15.2988 117.628 15.2988 126.964C15.3202 140.831 20.6189 143.523 29.849 134.357C37.0279 127.221 39.2714 126.388 45.2538 128.652C53.3087 131.686 59.1844 131.622 59.1844 128.524C59.1844 126.793 58.287 126.174 54.8898 125.576C53.4156 125.298 50.7021 124.529 48.0314 123.631C38.5022 120.426 35.0409 121.431 26.3023 129.934C22.4564 133.673 22.1359 133.951 21.8582 133.588C20.6403 131.9 20.4053 124.678 21.3667 118.226C22.0932 113.418 23.2683 109.209 26.1527 101.112C27.456 97.4581 27.1142 95.877 25.0203 95.877C24.2084 95.877 23.9734 95.9839 23.2897 96.7103Z" fill="black"/>
<path d="M274.083 98.9742C272.416 99.893 273.1 102.372 275.194 103.034C281.219 104.893 284.509 109.764 285.877 118.845C286.966 126.13 287.672 128.224 290.812 133.438C293.355 137.668 293.248 137.134 293.248 145.445C293.248 153.073 293.312 153.671 294.359 155.765C295.684 158.436 298.354 159.931 300.918 159.461C303.418 158.991 303.931 155.979 301.73 154.632C298.974 152.923 299.081 153.265 298.889 145.445C298.718 137.198 298.354 135.595 295.662 130.916C293.163 126.579 292.372 124.528 291.752 120.661C290.321 111.58 289.082 108.183 285.941 104.487C282.843 100.876 276.262 97.7991 274.083 98.9742Z" fill="black"/>
<path d="M135.141 104.102C128.454 106.858 119.886 118.246 116.959 128.331C116.168 131.066 115.848 132.647 115.057 138.287C113.732 147.624 112.023 150.829 107.024 153.307C98.1567 157.687 88.5848 155.508 69.4837 144.761C58.2453 138.437 53.502 137.091 47.2632 138.479C36.1102 140.937 25.1709 152.025 29.8286 156.128C31.196 157.324 32.6703 157.004 33.7386 155.294C36.6657 150.615 45.4257 146 51.3868 145.979C55.2968 145.979 57.412 146.791 65.937 151.598C87.0892 163.499 99.0968 165.806 110.485 160.08C118.198 156.213 121.061 151 123.176 136.941C124.693 126.814 128.731 119.442 137.043 111.601C140.226 108.61 140.632 108.054 140.653 106.537C140.696 103.952 138.196 102.841 135.141 104.102Z" fill="black"/>
<path d="M112.194 109.68C108.968 112.094 106.105 116.602 104.289 122.093C103.52 124.379 103.071 126.238 101.383 134.208C99.9945 140.746 98.5202 141.536 92.025 139.122C87.0681 137.284 84.8247 137.349 84.8247 139.357C84.8247 141.942 92.2814 145.403 97.3451 145.19C102.793 144.955 104.631 142.412 106.96 131.793C108.904 122.884 110.848 118.525 114.651 114.466C117.258 111.709 117.579 110.684 116.275 109.274C115.335 108.291 113.861 108.44 112.194 109.68Z" fill="black"/>
<path d="M219.941 109.124C218.253 109.487 217.783 110.748 217.292 116.41C216.993 119.636 218.104 119.379 201.588 120.02C191.738 120.405 171.526 120.298 171.654 119.849C173.727 112.542 173.876 111.025 172.68 109.957C171.377 108.803 169.496 109.594 168.599 111.666C168.129 112.756 166.227 119.208 166.227 119.7C166.227 120.234 148.366 119.721 138.965 118.931C134.691 118.567 132.555 120.79 135.375 122.691C136.828 123.674 156.25 126.003 162.937 126.003C164.796 126.003 164.732 125.768 163.941 130.02C163.364 133.224 161.954 142.177 161.954 142.754C161.954 142.946 155.694 142.818 150.182 142.54C147.169 142.369 146.592 142.561 146.165 143.758C145.225 146.471 147.96 147.39 158.6 147.946C161.377 148.074 161.377 148.074 161.249 149.484C161.164 150.253 161.014 152.475 160.886 154.419C160.395 162.133 162.446 161.128 146.464 161.385C137.255 161.534 137.17 161.556 136.743 162.859C135.824 165.615 137.426 165.936 153.75 166.299C160.395 166.448 160.395 166.448 160.523 172.452C160.608 175.743 160.736 179.012 160.8 179.674C160.95 180.913 160.95 180.913 153.814 180.913C142.917 180.913 122.214 179.909 121.68 179.375C121.509 179.225 122 174.012 122.449 170.914C123.175 166.064 122.726 164.675 120.44 164.675C118.026 164.675 116.594 168.5 115.697 177.345C115.526 179.054 116.424 179.033 107.044 177.687C98.6044 176.49 89.3102 174.76 80.828 172.794C78.8837 172.345 78.8837 172.345 78.7982 168.35C78.7128 163.436 78.3923 162.752 76.1702 162.752C74.4609 162.752 73.8841 163.906 73.4781 168.136C73.3286 169.653 73.1576 170.871 73.0935 170.871C72.303 170.871 61.4705 167.602 58.8852 166.577C55.5094 165.231 53.8429 165.551 53.7788 167.538C53.7147 169.675 58.9493 172.11 71.4697 175.785C72.9653 176.213 72.9653 176.213 72.9012 181.96C72.8371 187.707 72.8371 187.707 71.1065 187.088C66.1924 185.293 61.7055 183.306 58.1374 181.362C54.5693 179.396 51.8131 181.383 54.3343 184.075C55.7444 185.571 71.3202 193.092 73.0294 193.092C73.1363 193.092 73.3072 193.882 73.3927 194.844C74.1191 203.305 76.213 209.351 78.5846 209.821C80.9348 210.291 81.8108 208.261 80.8921 204.416C80.4434 202.493 80.0588 200.164 79.5674 196.339C79.5033 195.848 79.5033 195.442 79.5674 195.442C79.6315 195.442 80.8493 195.827 82.3022 196.275C91.1691 199.095 101.617 201.681 111.317 203.454C113.603 203.881 115.676 204.266 115.932 204.309C116.295 204.394 116.402 204.672 116.616 206.061C117.962 214.864 122.043 223.004 125.098 223.004C127.299 223.004 127.406 220.269 125.397 214.329C124.5 211.637 123.56 208.155 123.197 206.168C123.047 205.334 123.004 205.356 126.444 205.804C135.717 207.022 147.511 207.855 160.416 208.176C163.493 208.261 166.014 208.411 166.014 208.518C166.014 210.056 170.052 218.859 171.483 220.397C174.496 223.666 176.44 220.91 174.624 215.953C173.043 211.637 171.932 208.454 172.018 208.39C172.06 208.347 176.248 208.219 181.29 208.069C197.379 207.62 212.185 206.638 221.074 205.42C223.039 205.142 223.039 205.142 223.189 205.783C224.321 211.06 227.74 218.41 229.641 219.607C230.581 220.205 230.795 220.226 232.098 219.863C233.487 219.479 233.423 216.915 231.906 212.513C230.688 208.988 229.214 204.159 229.3 204.095C229.342 204.074 230.24 203.881 231.287 203.689C245.025 201.083 251.435 198.07 249.747 195.036C248.507 192.814 245.837 192.963 232.248 196.062C229.065 196.767 227.612 197.023 227.526 196.852C227.056 196.083 224.77 182.323 225.048 182.067C225.112 181.981 227.441 181.469 230.197 180.913C235.218 179.888 243.914 177.794 247.482 176.747C249.64 176.127 249.661 176.127 249.875 177.217C250.665 181.618 252.781 184.011 254.96 183.028C256.306 182.409 256.648 180.422 255.986 176.875C255.75 175.529 255.58 174.397 255.622 174.354C255.644 174.311 256.883 173.862 258.336 173.328C269.147 169.418 268.164 163.991 257.246 167.324C254.319 168.222 254.746 168.735 254.255 163.799C253.614 157.368 253.528 157.774 255.387 157.304C261.989 155.616 264.724 154.056 264.724 151.962C264.724 149.783 262.566 149.42 256.797 150.659C252.866 151.492 253.187 151.984 253.187 145.211C253.187 141.002 253.187 141.002 253.785 140.873C254.105 140.809 255.537 140.553 256.99 140.318C265.151 138.951 268.143 137.69 268.143 135.617C268.143 133.16 263.677 132.733 253.977 134.25C253.165 134.378 253.165 134.378 253.315 131.515C253.528 127.242 253.058 126.088 251.135 126.174C249.042 126.259 248.593 127.092 248.123 131.75C247.76 135.105 247.76 135.105 235.987 136.771C220.347 138.972 221.907 139.079 221.821 135.831C221.608 128.353 221.95 125.789 223.146 125.789C226.607 125.789 242.14 124.422 247.525 123.631C259.34 121.922 263.677 119.849 262.288 116.516C261.562 114.743 259.703 114.487 254.041 115.32C241.264 117.221 235.709 117.884 226.394 118.632C221.586 119.016 222.142 119.422 222.42 115.64C222.804 110.491 222.121 108.675 219.941 109.124ZM216.416 129.357C216.33 131.109 216.266 134.079 216.245 135.959C216.224 139.399 216.224 139.399 215.433 139.527C201.438 141.749 167.702 143.715 167.873 142.284C168.492 136.985 170.116 126.751 170.372 126.494C170.415 126.451 174.389 126.516 179.175 126.665C187.636 126.9 202.25 126.793 210.241 126.43C217.271 126.131 216.565 125.789 216.416 129.357ZM247.418 147.134C247.418 152.026 247.396 152.475 247.055 152.582C245.965 152.902 231.372 155.018 225.625 155.68C224.514 155.83 223.338 155.958 223.039 156.022C222.484 156.107 222.484 156.107 222.334 152.539C222.27 150.574 222.142 148.095 222.078 147.048C221.95 145.104 221.95 145.104 227.676 144.399C230.838 144.014 236.457 143.288 240.153 142.775C243.85 142.284 247.012 141.856 247.161 141.835C247.354 141.814 247.418 143.01 247.418 147.134ZM216.373 156.684C215.903 157.176 172.872 160.616 167.36 160.616C166.527 160.616 166.527 160.616 166.591 159.163C166.783 155.103 167.125 149.527 167.21 148.971C167.317 148.33 167.317 148.33 175.372 148.309C187.294 148.266 208.297 146.963 215.796 145.809C216.095 145.766 216.672 156.385 216.373 156.684ZM247.631 159.804C247.631 160.744 248.23 167.987 248.401 169.076C248.507 169.867 248.486 169.974 248.016 170.081C247.76 170.145 244.683 170.914 241.222 171.79C235.303 173.307 224.385 175.678 224.193 175.486C224.086 175.379 223.338 167.965 223.146 165.166C222.997 162.816 222.997 162.816 225.219 162.538C232.398 161.705 243.721 159.996 246.35 159.355C247.567 159.056 247.631 159.077 247.631 159.804ZM216.95 165.466C217.206 169.141 217.719 175.443 217.826 176.042C217.933 176.725 218.232 176.64 212.912 177.366C199.815 179.161 185.393 180.294 169.283 180.764C166.74 180.828 166.997 181.447 166.655 174.503C166.206 165.38 165.501 166.256 173.449 166.085C180.137 165.957 183.427 165.807 191.653 165.316C198.554 164.91 207.955 164.226 212.057 163.842C214.301 163.628 216.266 163.436 216.459 163.414C216.758 163.393 216.822 163.735 216.95 165.466ZM83.9901 179.097C89.4384 180.422 96.5746 181.896 102.108 182.836C105.741 183.477 114.351 184.759 114.907 184.759C115.099 184.759 115.163 185.464 115.163 187.579C115.163 189.139 115.27 192.109 115.377 194.16C115.483 196.211 115.548 197.899 115.526 197.942C114.949 198.497 91.1691 193.305 82.2595 190.677C79.1614 189.759 79.1614 189.759 79.0332 187.857C78.8196 184.93 78.8196 177.922 79.0332 177.922C79.1401 177.922 81.3621 178.456 83.9901 179.097ZM218.659 183.306C218.702 183.456 219.001 185.272 219.3 187.323C219.599 189.374 220.176 192.664 220.561 194.63C221.373 198.711 221.629 198.219 218.574 198.647C212.185 199.523 203.233 200.249 191.866 200.783C187.145 201.018 170.244 201.446 170.137 201.339C169.924 201.125 168.257 191.724 167.83 188.22C167.68 187.109 167.68 187.109 169.796 187.109C180.414 187.109 203.447 185.293 214.621 183.605C218.617 182.986 218.574 182.986 218.659 183.306ZM128.089 186.148C130.098 186.319 132.79 186.511 134.072 186.575C141.977 186.981 145.844 187.109 153.258 187.237C161.42 187.387 161.527 187.387 161.634 187.836C161.676 188.092 161.89 189.395 162.061 190.741C162.403 193.177 163.792 200.506 164.027 201.125C164.369 202.065 125.333 199.929 122.534 198.86C122.021 198.668 121.637 194.929 121.487 188.776C121.402 185.357 121.295 185.528 123.068 185.699C123.838 185.785 126.102 185.977 128.089 186.148Z" fill="black"/>
<path d="M41.088 156.919C35.5115 158.009 42.4341 181.789 52.9034 197.471C71.3635 225.162 108.049 240.096 161.869 241.806C210.327 243.344 244.897 232.17 263.635 208.859C274.681 195.121 284.253 170.465 278.933 169.461C276.903 169.076 275.664 170.721 273.271 177.003C264.212 200.783 255.025 212.62 238.658 221.636C198.255 243.857 108.647 237.81 73.2864 210.483C59.655 199.928 46.4722 177.302 44.5493 161.085C44.1647 157.88 43.1819 156.406 41.6649 156.791C41.6008 156.812 41.3444 156.876 41.088 156.919Z" fill="black"/>
</svg>
