<svg width="221" height="308" viewBox="0 0 221 308" fill="none" xmlns="http://www.w3.org/2000/svg">
<path d="M49.8329 1.1129C48.3372 2.03163 46.9271 4.27505 46.3289 6.66803C45.9015 8.42003 38.4662 11.1762 37.3552 10.0011C33.723 6.13388 27.591 9.40286 30.1762 13.847C32.0564 17.0305 35.6673 17.18 44.3205 14.3811C47.0553 13.5051 50.2815 12.6718 50.9866 12.6718C51.0934 12.6718 51.1789 13.1633 51.2003 13.7401C51.2857 17.6501 56.7554 18.7611 59.9603 15.4921C61.2636 14.1675 61.285 14.1675 63.4643 16.475C66.4341 19.6158 69.9382 17.3296 68.0152 13.5051C66.3701 10.2789 61.8832 7.71496 56.7981 7.09535C54.6615 6.83896 54.6615 6.83896 54.8111 6.06979C55.6657 2.09573 52.8241 -0.724567 49.8329 1.1129Z" fill="black"/>
<path d="M117.777 5.40805C111.218 7.11732 106.069 12.6297 107.693 16.1978C108.462 17.8857 111.197 17.6293 112.35 15.7491C112.949 14.809 114.893 13.3134 116.773 12.352C128.524 6.41224 135.02 20.1719 127.499 35.1066C125.96 38.1833 126.623 37.8842 121.217 38.0979C118.632 38.2047 116.111 38.3542 115.598 38.4183C114.658 38.5252 114.658 38.5252 115.705 37.7133C122.755 32.1154 121.303 25.1074 112.372 21.6675C106.923 19.5736 100.172 19.9796 100.172 22.4153C100.172 23.1631 99.7872 22.5862 99.3385 21.1547C94.5311 6.04902 77.6094 2.13907 73.2721 15.1509C71.05 21.817 73.3576 35.4699 77.588 40.6404C78.6136 41.8796 70.6868 39.1875 67.6315 37.2646C61.8841 33.6324 62.7387 29.6797 68.828 31.7095C70.815 32.3718 72.3747 31.7949 72.7166 30.2352C73.443 26.8808 65.6872 24.1246 61.3713 26.2398C54.1283 29.7865 56.7776 38.867 66.5205 43.9094C67.6956 44.5076 68.3152 44.9563 68.1229 45.0204C67.952 45.0845 66.3709 45.4691 64.6189 45.8964C48.8936 49.7209 47.8467 51.6652 47.8467 77.0906C47.8467 90.8075 48.2313 92.7945 50.9447 92.7945C53.7437 92.7945 53.6796 93.2005 54.2351 67.9033C54.5128 55.2974 54.6624 54.9555 61.5636 52.6694C83.5491 45.3409 144.591 40.9395 154.762 45.9391C159.313 48.1398 161.321 53.2035 161.663 63.2455C161.876 69.057 162.411 70.0826 165.017 69.5912C168.97 68.8647 168.414 54.8701 164.141 47.0929C160.274 40.0635 155.36 38.1833 140.211 37.9483C132.904 37.8201 132.904 37.8201 133.631 36.3031C141.707 18.8045 132.819 1.45536 117.777 5.40805ZM86.4548 13.3348C91.1767 15.6637 94.9157 22.1162 94.9157 27.9491C94.9157 33.0982 92.6296 36.474 86.7112 40.0849C84.8097 41.2386 85.0874 41.3668 83.5918 38.7388C75.4514 24.3382 77.2034 8.76249 86.4548 13.3348ZM101.945 25.3638C102.308 25.4279 103.419 25.5347 104.381 25.5988C108.654 25.8979 114.701 28.7182 114.701 30.4061C114.701 31.624 111.838 33.7606 106.517 36.4954C104.573 37.521 102.672 38.6106 102.308 38.9525C101.689 39.5294 101.39 39.6148 98.9539 39.914C95.749 40.3199 95.9199 40.4054 97.1164 38.8457C99.894 35.2135 101.283 29.1455 100.343 24.8937C100.172 24.1887 100.172 24.1887 100.706 24.7228C101.005 25.0219 101.561 25.2997 101.945 25.3638Z" fill="black"/>
<path d="M161.578 19.377C160.04 20.0607 158.373 22.2187 157.989 24.0562C157.925 24.3766 157.818 24.8894 157.754 25.1885C157.668 25.5518 157.519 25.7013 157.326 25.6159C151.365 23.3297 138.353 27.261 139.208 31.0855C139.678 33.2435 141.195 33.564 144.208 32.1325C146.686 30.9573 148.887 30.6582 148.887 31.4915C148.887 36.7902 157.561 37.9012 158.779 32.7521C159.078 31.4701 158.502 31.4915 163.736 32.4529C175.53 34.6109 184.29 31.4701 183.072 25.5518C182.025 20.5735 174.291 21.3 172.453 26.556C172.069 27.6884 172.069 27.6884 169.612 27.5602C166.236 27.3892 166.321 27.432 167.005 25.9577C168.885 21.8127 165.488 17.6891 161.578 19.377Z" fill="black"/>
<path d="M109.551 46.645C107.308 47.8201 106.026 50.9609 104.765 58.2894C103.804 63.8018 103.184 65.7034 102.586 64.8915C101.389 63.3104 100.3 59.785 100.065 56.687C99.7013 51.9865 97.9493 50.149 95.6204 51.9865C93.7402 53.4607 94.5094 62.413 96.9024 66.9853C100.385 73.6515 106.944 72.925 109.252 65.5965C109.765 63.9727 110.021 62.8403 111.132 56.7938C111.602 54.2299 111.602 54.2299 112.072 56.922C113.589 65.6179 118.396 67.0921 122.926 60.2337C123.952 58.7167 124.016 58.7808 124.165 61.4302C124.678 69.5919 127.605 73.6728 132.284 72.69C136.194 71.8567 138.673 68.7373 142.262 60.2551C143.779 56.6442 143.715 56.7083 144.377 58.4603C146.77 64.806 152.774 66.7076 157.24 62.5412C161.62 58.4176 158.522 54.2085 153.565 57.5202C151.556 58.8663 151.044 58.4603 149.505 54.4649C147.881 50.2345 146.856 49.2089 144.249 49.2089C141.087 49.2089 139.463 51.2173 136.301 59.0586C132.327 68.8228 130.789 69.2074 129.891 60.6396C129.272 54.8068 128.908 53.6744 127.263 52.3497C124.828 50.384 121.815 51.7942 118.845 56.2383C117.67 58.033 117.82 58.2467 116.944 53.4821C115.811 47.2646 113.119 44.7648 109.551 46.645Z" fill="black"/>
<path d="M118.098 47.5185C116.517 49.2064 118.248 51.7703 120.534 51.1079C121.453 50.8515 122.03 49.9969 122.03 48.9286C122.03 47.0057 119.445 46.0656 118.098 47.5185Z" fill="black"/>
<path d="M91.9887 48.394C90.4931 49.5477 91.7323 51.9407 93.5271 51.3211C94.7022 50.9151 95.0013 49.5691 94.0826 48.6717C93.5271 48.0948 92.5656 47.9666 91.9887 48.394Z" fill="black"/>
<path d="M149.932 49.6579C148.821 50.8544 149.248 52.6277 150.744 53.0337C152.389 53.5037 153.585 52.6064 153.585 50.9612C153.585 49.1237 151.214 48.2904 149.932 49.6579Z" fill="black"/>
<path d="M88.2071 52.5852C87.438 53.3758 87.2243 54.2091 86.9466 57.649C86.3056 65.6612 84.0194 67.0286 80.1095 61.7512C75.4944 55.5337 72.3964 55.8756 66.6703 63.2468C62.8458 68.1823 61.8203 67.755 60.9443 60.982C60.1537 54.6791 55.4532 55.8329 55.7951 62.2426C56.1369 68.6097 59 72.6265 63.1877 72.5624C66.4353 72.541 67.7814 71.4727 72.4819 65.3834C74.1911 63.1614 74.0416 63.1827 75.1953 64.9561C76.5841 67.0927 78.6993 69.1652 80.259 69.8916C81.5837 70.5112 81.5837 70.5112 80.7077 70.6608C77.5028 71.1736 77.3746 75.6604 80.5368 76.5578C83.5066 77.4124 85.8569 73.3315 83.528 71.3659C82.9084 70.8531 82.9084 70.8531 84.3613 70.7249C88.955 70.3403 91.9675 66.2594 92.9076 59.1659C93.6341 53.8245 90.8351 49.9572 88.2071 52.5852Z" fill="black"/>
<path d="M131.943 53.264C130.768 54.1828 130.81 56.2553 131.986 57.1099C134.4 58.8192 137.284 55.5715 135.19 53.4991C134.378 52.6658 132.84 52.559 131.943 53.264Z" fill="black"/>
<path d="M67.6744 53.3778C65.1532 54.7452 66.7343 58.5484 69.4905 57.7792C70.4306 57.5228 70.8792 57.1168 71.1356 56.2195C71.7339 54.1042 69.5973 52.3309 67.6744 53.3778Z" fill="black"/>
<path d="M80.4087 56.3657C79.084 57.6904 79.4686 59.9766 81.1565 60.8526C82.9085 61.7713 85.216 60.3825 85.216 58.4382C85.216 55.917 82.182 54.6137 80.4087 56.3657Z" fill="black"/>
<path d="M71.0926 68.7575C69.597 69.5694 69.3192 71.471 70.4943 72.8171C72.1609 74.7186 75.4299 73.0094 74.8103 70.5523C74.3616 68.8216 72.5668 67.9456 71.0926 68.7575Z" fill="black"/>
<path d="M107.821 70.4687C105.727 71.6225 105.941 74.9555 108.184 75.9384C111.432 77.3699 114.06 73.1608 111.389 70.8106C110.513 70.0627 108.889 69.8918 107.821 70.4687Z" fill="black"/>
<path d="M167.473 71.0876C159.931 72.6687 153.564 79.0785 156.747 81.9201C157.623 82.7107 158.863 82.7748 159.525 82.0483C161.341 80.104 161.982 79.5699 163.67 78.758C166.448 77.3906 167.986 76.9419 170.101 76.8137C172.216 76.7069 172.131 76.6 171.618 78.5443C170.763 81.8347 171.896 83.2021 175.699 83.5012C180.1 83.8644 181.019 85.7874 177.836 87.9881C175.849 89.3555 175.037 91.2784 175.977 92.4322C176.169 92.6458 175.784 92.6031 174.438 92.2612C167.965 90.5306 155.53 90.1246 127.626 90.7443C119.058 90.9365 104.145 91.1929 94.5086 91.2998C73.976 91.5348 67.6944 91.8339 56.5841 93.0304C52.1614 93.5005 44.4697 94.4406 43.3587 94.6542C42.6322 94.7824 42.6322 94.7824 43.1877 94.1628C44.5124 92.7313 43.6364 90.8084 41.0084 89.3982C37.4189 87.4966 35.2824 83.544 36.9916 81.9415C38.0172 80.9587 40.517 81.7492 41.9912 83.5226C44.662 86.7061 47.7814 83.9926 45.4952 80.4673C40.8161 73.2029 31.3938 74.5489 30.6246 82.5825C30.1118 87.6889 34.1927 93.2654 39.4914 94.7397C40.4529 94.9961 40.4529 94.9961 37.0344 95.5088C32.227 96.2567 31.2869 96.8335 31.7143 98.8633C32.1416 100.914 32.5475 100.936 44.0851 99.6538C65.0237 97.3036 71.0488 96.9404 92.1583 96.7481C99.4441 96.684 113.481 96.4703 123.353 96.278C172.195 95.3593 178.455 96.3421 183.027 105.508C185.741 110.978 187.087 117.046 187.258 124.844C187.429 131.596 187.899 133.027 189.971 133.027C192.215 133.027 192.578 132.002 192.557 125.913C192.493 110.914 187.493 98.265 180.143 94.4619C178.733 93.7141 178.477 93.4364 179.288 93.4364C180.079 93.4364 182.344 92.2399 183.262 91.3211C187.685 86.8984 185.271 79.7836 178.882 78.4589C177.601 78.2025 177.601 78.2025 177.601 76.7923C177.579 72.1987 173.391 69.8484 167.473 71.0876Z" fill="black"/>
<path d="M150.594 71.62C150.594 71.7268 150.423 71.8764 150.21 71.9405C148.992 72.3251 149.291 74.9104 150.637 75.5513C153.094 76.7478 155.017 73.5429 152.859 71.8123C152.389 71.4063 150.594 71.2781 150.594 71.62Z" fill="black"/>
<path d="M55.6242 72.9648C53.6799 74.0758 53.7012 76.9816 55.6669 78.0071C57.6539 79.0754 60.111 77.1739 59.6623 74.8877C59.3418 73.2639 57.0343 72.1529 55.6242 72.9648Z" fill="black"/>
<path d="M128.461 73.8604C127.051 74.48 127.136 76.6593 128.568 77.1508C129.978 77.6422 131.281 76.4884 131.003 74.9928C130.811 73.9672 129.529 73.4117 128.461 73.8604Z" fill="black"/>
<path d="M145.126 76.1288C144.635 76.2357 143.096 76.7698 141.708 77.3039C137.904 78.7996 137.028 78.9278 133.653 78.5645C129.914 78.1799 127.884 78.1799 123.76 78.6286C119.978 79.0132 120.555 79.0559 113.74 77.8381C104.98 76.2784 97.1169 79.1414 99.2108 83.1582C99.8517 84.4188 101.198 84.5256 103.591 83.4787C105.898 82.4959 109.167 82.4959 114.274 83.5001C118.718 84.3761 121.154 84.5042 124.978 84.0342C127.136 83.7778 128.055 83.7778 135.319 84.1624C138.46 84.312 139.87 84.0556 143.438 82.6241C146.985 81.2353 147.647 81.1925 148.972 82.2822C151.279 84.2051 153.694 83.4787 153.694 80.8507C153.694 77.4749 149.634 75.2528 145.126 76.1288Z" fill="black"/>
<path d="M84.1475 76.8943C81.0495 77.2575 78.8274 77.9199 76.7976 79.1164C75.3448 79.971 75.3448 79.971 74.1269 79.1164C69.2982 75.8474 61.3928 77.3216 58.4871 82.0221C56.8633 84.6715 59.6195 86.8935 61.9483 84.7997C65.0037 82.0221 68.8923 81.9153 71.9689 84.5433C74.0842 86.338 75.7721 86.4235 78.1223 84.8424C82.3955 81.9367 86.6473 81.5093 92.3306 83.4109C95.5783 84.5006 97.3516 83.4323 96.8388 80.7188C96.3902 78.2617 89.6813 76.2533 84.1475 76.8943Z" fill="black"/>
<path d="M78.2929 97.6883C75.5367 99.5258 77.1605 103.863 80.4295 103.372C84.083 102.837 83.7412 97.2823 80.0662 97.2823C79.2971 97.2823 78.6988 97.4105 78.2929 97.6883Z" fill="black"/>
<path d="M130.212 100.126C129.101 101.6 131.708 115.125 133.695 118.265C135.917 121.769 139.464 121.812 143.651 118.394C144.549 117.646 145.531 116.855 145.809 116.642C146.472 116.107 146.429 116.022 147.262 119.013C148.843 124.675 150.531 126.662 153.8 126.662C157.325 126.662 159.056 124.376 160.744 117.496C162.24 111.407 161.962 111.727 164.184 113.415C169.034 117.069 172.752 117.389 175.444 114.398C178.072 111.471 175.7 108.587 172.239 110.531C170.508 111.514 170.188 111.428 167.196 109.206C161.107 104.677 157.731 106.407 156.129 114.89C154.719 122.453 153.95 122.795 152.326 116.642C151.022 111.813 149.719 110.317 146.792 110.317C144.955 110.317 143.844 110.915 140.446 113.672C138.096 115.616 138.246 115.808 135.981 107.582C135.105 104.442 134.272 101.579 134.143 101.237C133.417 99.3138 131.28 98.7155 130.212 100.126Z" fill="black"/>
<path d="M146.257 99.6722C145.189 100.505 145.403 102.45 146.642 102.941C148.608 103.774 150.274 101.424 148.778 99.95C148.202 99.3517 146.877 99.2235 146.257 99.6722Z" fill="black"/>
<path d="M44.8975 100.164C42.9746 101.702 43.8933 104.758 46.2863 104.758C47.7392 104.758 48.487 104.224 48.8716 102.878C49.5553 100.549 46.7991 98.6685 44.8975 100.164Z" fill="black"/>
<path d="M100.492 99.8268C97.928 100.254 96.0692 102.583 94.2958 107.54C93.8471 108.779 93.4625 109.826 93.4198 109.869C93.3984 109.89 93.078 109.356 92.7147 108.63C90.9627 105.168 87.886 104.164 84.9376 106.13C83.5274 107.07 83.3351 107.006 82.6514 105.467C81.3481 102.519 77.7586 103.224 78.015 106.365C78.3782 110.873 82.8223 113.565 86.4759 111.493C87.6938 110.787 87.6938 110.787 88.1211 112.069C90.6636 119.889 96.4751 118.607 99.7228 109.506C101.197 105.361 101.432 105.147 101.881 107.583C103.099 114.462 108.12 116.022 112.136 110.745C113.504 108.929 113.461 108.929 114.764 111.193C119.337 119.184 126.708 115.958 127.84 105.446C128.524 99.1858 123.61 98.8653 122.306 105.104C121.772 107.604 120.832 109.997 120.448 109.783C120.341 109.719 119.849 108.971 119.358 108.117C116.132 102.604 110.833 102.07 107.906 106.942C107.393 107.796 107.35 107.732 106.944 105.66C106.004 101.066 103.975 99.2499 100.492 99.8268Z" fill="black"/>
<path d="M166.385 100.715C164.654 102.574 167.004 105.351 169.12 103.963C170.316 103.172 170.444 101.377 169.376 100.459C168.586 99.7749 167.154 99.9031 166.385 100.715Z" fill="black"/>
<path d="M27.5708 101.597C26.6307 102.622 26.4384 104.353 26.0111 115.869C25.541 128.667 26.3315 132.748 29.3441 132.748C31.4166 132.748 31.908 131.423 31.6089 126.509C31.4807 124.544 31.438 118.817 31.5021 113.412C31.6303 102.943 31.6089 102.729 30.8184 101.768C30.0919 100.913 28.3186 100.827 27.5708 101.597Z" fill="black"/>
<path d="M51.4145 103.325C51.0299 103.731 50.4958 104.607 50.218 105.312C48.8079 108.923 48.3805 109.2 46.9918 107.427C43.9151 103.538 40.3042 104.073 38.2745 108.73C37.5908 110.311 37.4839 110.376 37.1421 109.371C35.8174 105.312 32.1211 105.526 32.1211 109.671C32.1425 118.217 38.4668 121.037 41.8639 114.008C42.9109 111.828 42.9109 111.828 43.851 112.769C48.2523 117.17 53.3374 114.286 55.1963 106.359C55.9227 103.282 53.4229 101.295 51.4145 103.325Z" fill="black"/>
<path d="M66.9046 106.062C60.9008 106.639 57.3968 114.096 60.3453 120.078C62.0759 123.625 65.8791 122.364 64.9817 118.561C64.4048 116.168 65.0672 113.711 66.5841 112.451C69.8104 109.801 73.058 114.502 72.182 120.527C71.306 126.445 71.712 126.851 78.3781 126.873C85.2793 126.894 87.1595 127.813 85.8348 130.569C84.9802 132.3 83.1213 133.133 78.5704 133.817C74.4468 134.458 73.3999 135.098 73.3999 137.043C73.3999 137.769 73.3571 137.833 73.0153 137.662C72.2888 137.256 71.3915 137.449 70.2591 138.218C67.8447 139.884 64.3194 140.739 60.4735 140.611C54.2347 140.419 54.2347 138.09 60.4735 137.235C66.0286 136.466 65.6868 132.535 59.8753 130.526C50.7093 127.343 45.4319 122.621 51.4785 122.984C53.1664 123.091 54.6192 123.71 56.6276 125.227C60.8581 128.368 64.0202 124.843 60.2385 121.189C55.7303 116.895 47.1412 116.467 44.4277 120.441C41.6715 124.437 44.0431 129.137 50.752 132.962C52.6963 134.073 52.6963 134.073 51.7349 134.949C48.1667 138.239 49.406 143.196 54.3629 145.397C61.5418 148.559 74.2759 145.012 74.3613 139.82C74.3613 139.008 74.3827 138.987 74.8314 139.265C77.5235 141.017 85.5143 139.243 88.6337 136.167C95.2999 129.672 91.0481 121.788 80.6002 121.275C78.0149 121.147 78.0149 121.147 77.8867 118.348C77.5662 110.1 73.3999 105.421 66.9046 106.062Z" fill="black"/>
<path d="M139.485 107.107C138.93 107.662 138.908 109.051 139.442 109.5C140.703 110.59 142.476 109.82 142.476 108.197C142.476 106.85 140.468 106.124 139.485 107.107Z" fill="black"/>
<path d="M81.5628 114.351C80.345 115.569 80.8577 117.77 82.4815 118.219C84.4258 118.795 85.9642 117.236 85.43 115.227C85.0241 113.689 82.7379 113.176 81.5628 114.351Z" fill="black"/>
<path d="M111.411 113.944C108.954 114.713 108.163 118.025 109.958 119.969C112.094 122.298 116.197 120.717 116.197 117.576C116.197 115.547 114.872 114.03 112.97 113.837C112.458 113.795 111.753 113.837 111.411 113.944Z" fill="black"/>
<path d="M180.614 114.264C179.909 114.948 179.888 116.251 180.571 116.871C182.131 118.281 184.268 116.978 183.691 114.926C183.328 113.623 181.618 113.239 180.614 114.264Z" fill="black"/>
<path d="M162.987 119.992C160.915 121.872 161.983 124.885 164.739 124.927C167.303 124.97 168.542 122.022 166.726 120.205C165.808 119.287 163.885 119.18 162.987 119.992Z" fill="black"/>
<path d="M124.849 119.993C116.473 122.151 106.111 139.137 112.008 141.081C113.931 141.701 115.063 140.739 116.687 137.086C118.524 132.962 122.071 128.219 124.272 126.937C124.913 126.553 124.913 126.553 124.272 128.54C122.071 135.462 121.815 141.252 123.503 146.401C125.062 151.187 129.955 150.333 128.844 145.461C127.99 141.701 128.438 136.445 130.019 131.274C131.387 126.873 131.579 126.04 131.622 124.95C131.707 121.104 128.801 118.989 124.849 119.993Z" fill="black"/>
<path d="M35.1552 120.59C33.7664 121.637 33.51 123.581 34.5783 124.884C36.8858 127.683 41.0094 125.098 39.6206 121.743C38.9797 120.226 36.5012 119.607 35.1552 120.59Z" fill="black"/>
<path d="M99.1679 120.76C93.9974 122.106 92.9932 129.157 96.839 137.148C100.428 144.604 106.048 143.087 102.651 135.588C100.941 131.763 100.172 128.708 100.557 127.298C100.963 125.909 103.42 126.892 104.787 129.007C107.436 133.152 111.005 130.524 108.847 125.995C107.031 122.17 102.736 119.841 99.1679 120.76Z" fill="black"/>
<path d="M177.794 123.41C175.786 124.137 175.957 127.042 178.029 127.598C180.785 128.324 182.131 124.521 179.525 123.432C178.691 123.09 178.691 123.09 177.794 123.41Z" fill="black"/>
<path d="M143.459 124.414C142.091 124.841 140.809 126.807 141.108 128.11C141.942 131.935 147.326 131.849 147.753 128.003C148.009 125.696 145.702 123.752 143.459 124.414Z" fill="black"/>
<path d="M66.2216 126.961C64.3842 128.799 64.9824 132.559 67.1831 133.157C69.6402 133.841 71.1572 131.662 70.4948 128.457C69.9607 125.978 67.9309 125.252 66.2216 126.961Z" fill="black"/>
<path d="M133.61 130.652C131.943 132.127 132.883 134.52 135.127 134.52C136.708 134.52 137.584 133.28 137.135 131.678C136.708 130.225 134.763 129.648 133.61 130.652Z" fill="black"/>
<path d="M172.153 131.275C170.765 132.771 171.748 135.1 173.777 135.1C175.807 135.1 176.833 132.664 175.401 131.232C174.482 130.314 173.029 130.335 172.153 131.275Z" fill="black"/>
<path d="M40.0697 133.648C39.0228 134.46 39.2578 136.426 40.4543 136.939C42.1208 137.622 43.6805 136.169 43.1037 134.46C42.7404 133.435 40.9884 132.965 40.0697 133.648Z" fill="black"/>
<path d="M162.389 134.499C159.376 134.755 157.048 135.738 153.501 138.281C150.958 140.075 151.407 140.033 149.527 138.751C143.373 134.499 134.848 135.802 132.199 141.4C130.169 145.652 133.994 147.895 136.793 144.114C138.78 141.379 142.925 140.93 146.322 143.088C150.766 145.908 151.962 145.844 156.791 142.682C162.111 139.199 166.384 138.729 168.436 141.422C170.423 144.028 173.756 142.703 173.051 139.584C172.26 136.059 168.008 134.029 162.389 134.499Z" fill="black"/>
<path d="M185.016 134.479C178.927 135.227 174.995 137.94 175.807 140.803C176.277 142.512 177.837 142.854 180.016 141.765C184.311 139.585 191.148 139.414 193.52 141.423C194.502 142.235 194.396 142.427 191.853 144.863C189.396 147.192 188.584 148.281 187.772 150.311C186.512 153.409 184.461 153.772 180.422 151.657C176.812 149.755 174.953 149.734 171.641 151.465C165.53 154.691 165.594 154.691 161.492 152.704C155.83 149.948 153.565 150.033 149.634 153.11C145.767 156.122 141.237 155.61 137.669 151.7C133.588 147.298 129.337 150.332 132.456 155.417C136.558 162.062 146.622 162.895 153.758 157.212C155.018 156.208 155.317 156.251 158.8 157.96C164.612 160.844 166.791 160.823 172.56 157.896C175.615 156.358 175.615 156.358 177.688 157.469C184.525 161.101 190.593 159.498 193.456 153.324C194.31 151.486 194.695 150.973 196.511 149.093C204.245 141.145 197.75 132.876 185.016 134.479Z" fill="black"/>
<path d="M91.177 135.975C89.3609 137.919 91.8607 140.696 94.1255 139.244C95.1297 138.603 95.151 136.338 94.1255 135.633C93.2922 135.056 91.882 135.205 91.177 135.975Z" fill="black"/>
<path d="M27.6556 135.865C16.759 138.216 17.6991 155.287 28.7026 155.266C32.5912 155.266 32.933 151.698 29.2367 149.967C26.4378 148.642 24.8567 146.164 25.5831 144.241C26.5873 141.591 32.7621 140.374 35.1764 142.361C36.9071 143.792 39.1078 142.852 39.1078 140.715C39.1078 136.912 33.6167 134.605 27.6556 135.865Z" fill="black"/>
<path d="M83.7626 141.447C80.4081 142.088 81.1132 146.425 84.6813 147.045C89.2536 147.836 89.745 148.348 89.745 152.301C89.7664 156.98 89.3391 157.343 84.9804 156.467C79.4039 155.335 76.0068 153.305 74.5539 150.271C72.695 146.425 68.8705 147.857 69.9175 152.002C71.2635 157.194 76.3059 160.869 84.0403 162.258C89.1254 163.155 57.803 162.578 42.6973 161.467C28.254 160.42 9.72977 157.728 8.42645 156.467C8.21279 156.254 11.2681 154.694 13.5756 153.818C18.3616 152.002 17.6992 147.472 12.7851 148.348C3.83278 149.908 -1.46596 155.463 2.10215 159.501C6.9522 165.035 38.8515 168.496 88.8477 168.967C95.8343 169.031 107.821 169.137 115.448 169.244C177.901 169.949 198.284 168.71 208.689 163.582C215.953 159.993 215.569 153.028 207.962 150.635C200.805 148.37 198.198 152.985 204.971 155.891C207.578 157.023 207.599 157.173 205.334 158.305C200.207 160.869 190.122 162.279 172.666 162.899C160.616 163.326 87.8435 162.834 90.0441 162.343C92.8217 161.702 94.4455 159.566 95.1506 155.527C96.8385 145.785 92.0739 139.866 83.7626 141.447Z" fill="black"/>
<path d="M117.115 142.808C115.556 143.256 115.257 145.008 116.197 148.555C116.859 151.098 117.009 152.978 116.603 153.726C115.192 156.354 104.659 154.303 104.659 151.397C104.659 150.243 105.92 148.769 107.308 148.299C108.419 147.936 109.039 147.081 109.018 145.97C108.932 142.722 103.334 142.509 100.45 145.628C95.0871 151.461 98.698 158.918 107.714 160.627C117.906 162.55 123.568 158.17 122.179 149.474C121.324 144.026 119.807 142.039 117.115 142.808Z" fill="black"/>
<path d="M38.6804 147.871C37.0566 149.388 37.4839 153.512 39.5351 155.862C42.569 159.366 49.0001 159.921 52.846 157.037C53.2306 156.738 53.3374 156.738 53.9143 157.101C58.3798 159.857 66.0288 159.473 66.8407 156.46C67.5244 153.96 66.1569 152.956 62.5675 153.319C59.9608 153.597 57.4397 152.892 54.9612 151.225C54.363 150.82 53.9143 150.691 52.9742 150.691C51.735 150.691 51.564 150.777 49.4702 152.294C46.1371 154.708 42.5263 152.849 42.4835 148.726C42.4835 147.465 39.7914 146.845 38.6804 147.871Z" fill="black"/>
<path d="M1.97462 162.703C-0.973877 164.113 0.222613 175.352 3.83345 180.116C4.43169 180.928 4.66672 181.441 4.66672 181.997C4.66672 187.723 9.45268 190.885 10.521 185.885C10.6492 185.394 10.7133 185.33 11.0765 185.522C15.1574 187.701 23.3405 188.492 43.98 188.663C52.0349 188.727 58.6583 188.812 58.6797 188.855C58.872 189.005 56.2226 193.705 55.0902 195.244C53.2527 197.701 52.8468 198.619 53.1032 199.752C53.3168 200.649 53.3168 200.649 52.3127 199.923C45.2619 194.859 38.8308 204.495 45.7106 209.794C51.3085 214.11 57.9105 207.572 53.9151 201.675C53.3596 200.841 53.4237 200.67 54.0647 201.269C55.2825 202.358 57.5259 201.44 59.4275 199.047C60.6026 197.572 60.7522 197.551 60.9658 198.705C61.3932 200.948 62.6751 202.273 64.4271 202.273C66.7346 202.273 67.2901 200.713 66.3287 196.996C65.8159 195.03 65.1322 189.304 65.3672 189.047C65.4313 189.005 74.2341 188.919 84.917 188.898C95.5999 188.876 108.911 188.791 114.487 188.706C120.064 188.62 124.658 188.556 124.658 188.577C124.7 188.62 121.602 195.906 119.893 199.837C118.291 203.469 118.632 205.542 120.876 205.905C122.735 206.204 123.589 205.542 125.491 202.38C126.516 200.628 126.516 200.628 126.88 201.781C128.717 207.657 134.571 207.508 132.99 201.632C131.858 197.487 131.366 194.09 131.366 190.564C131.366 188.236 130.298 188.428 143.652 188.342C151.066 188.3 166.449 187.936 171.705 187.701C174.312 187.573 174.953 187.616 174.953 187.83C174.953 187.979 174.419 191.034 173.756 194.624C172.517 201.418 172.453 202.465 173.222 203.384C174.59 205.072 177.047 204.538 178.051 202.358C178.542 201.29 178.542 201.29 179.247 202.615C181.598 207.037 186.234 205.478 184.567 200.841C183.115 196.803 181.277 188.3 181.662 187.338C181.704 187.189 182.623 187.018 183.948 186.932C194.93 186.227 204.951 184.326 209.459 182.125C210.997 181.356 210.826 181.206 211.061 183.578C211.36 186.419 212.129 187.595 213.839 187.808C217.129 188.257 218.112 183.642 216.061 177.531C215.548 175.971 215.548 175.971 215.997 174.07C217.065 169.604 216.061 166.122 213.604 165.78C211.659 165.502 210.677 166.955 210.1 170.993C208.796 179.946 197.836 181.569 133.076 182.36C92.7369 182.851 32.5065 182.595 24.2165 181.89C10.6919 180.736 6.35462 177.253 5.73501 167.083C5.49999 162.981 4.28213 161.571 1.97462 162.703Z" fill="black"/>
<path d="M16.8017 168.301C14.5796 169.091 11.5029 171.27 11.0756 172.36C10.0287 175.116 13.084 176.526 16.118 174.71C17.6136 173.813 17.4854 173.792 18.1905 174.924C21.3526 179.945 27.8906 180.671 34.4072 176.74C35.1977 176.27 35.1977 176.27 36.0951 177.061C39.9837 180.586 48.9787 180.8 52.7818 177.467C53.1023 177.189 53.2519 177.253 54.3843 178.172C60.6445 183.278 71.0924 180.8 71.9043 174.005C72.3316 170.437 69.8318 170.138 66.5201 173.343C62.9947 176.761 58.9138 176.291 56.4354 172.211C55.068 169.946 52.9528 169.647 51.4572 171.505C48.2523 175.479 42.8894 175.907 39.2145 172.51C36.4369 169.924 35.4114 169.839 32.121 171.89C27.0146 175.031 24.1302 174.881 22.1645 171.377C20.4766 168.365 19.0024 167.51 16.8017 168.301Z" fill="black"/>
<path d="M190.059 169.089C189.632 169.453 189.268 169.901 189.268 170.094C189.204 174.025 183.521 175.67 180.572 172.593C179.013 170.948 177.175 170.991 176.15 172.7C174.291 175.862 170.531 175.948 167.326 172.893C165.317 170.97 164.163 171.012 162.155 173.106C159.783 175.585 158.993 175.478 156.344 172.294C154.698 170.35 151.558 172.252 152.284 174.751C153.587 179.302 159.613 181.225 163.758 178.405C164.804 177.7 164.804 177.7 166.108 178.405C170.082 180.563 175.252 180.307 178.073 177.785C178.5 177.401 178.543 177.401 179.461 177.914C183.072 179.943 188.35 179.217 191.533 176.29C192.431 175.457 192.431 175.457 194.012 175.948C198.093 177.23 203.797 176.012 204.78 173.64C205.741 171.354 203.349 170.094 200.058 171.119C197.58 171.888 194.738 171.397 194.033 170.072C193.136 168.299 191.512 167.893 190.059 169.089Z" fill="black"/>
<path d="M134.999 171.378C134.657 171.72 134.294 172.425 134.144 172.938C133.546 175.352 132.948 176.057 131.089 176.57C128.888 177.147 124.914 175.865 121.56 173.472C119.572 172.062 118.226 172.062 116.111 173.451C111.539 176.442 106.881 176.164 101.219 172.489C99.0612 171.101 97.7365 171.207 95.7922 172.917C92.8224 175.545 89.2543 175.481 86.3272 172.724C84.0837 170.609 81.2848 172.853 82.7163 175.609C84.917 179.839 93.2283 181.249 97.822 178.151C98.9117 177.425 98.9117 177.425 100.792 178.365C106.326 181.143 112.757 181.228 117.607 178.579C118.931 177.874 118.931 177.874 120.064 178.621C129.08 184.711 140.426 181.527 139.186 173.28C138.845 170.972 136.494 169.904 134.999 171.378Z" fill="black"/>
<path d="M8.19165 190.199C5.43545 190.883 3.25613 194.067 3.81165 196.566C4.68765 200.434 8.93946 201.993 12.7426 199.835C18.4686 196.545 14.7296 188.618 8.19165 190.199Z" fill="black"/>
<path d="M100.855 191.908C99.6371 193.126 99.3166 205.753 100.385 209.514C101.346 212.847 104.786 212.569 105.513 209.108C105.897 207.292 105.47 197.656 104.85 193.81C104.466 191.353 102.393 190.391 100.855 191.908Z" fill="black"/>
<path d="M214.415 192.17C210.035 192.875 208.155 198.067 211.125 201.272C213.817 204.199 218.475 203.408 220.163 199.733C221.979 195.866 218.646 191.465 214.415 192.17Z" fill="black"/>
<path d="M12.4651 201.16C10.4353 202.271 11.0549 205.006 13.982 207.89C16.5887 210.454 19.4517 210.796 20.05 208.595C20.7764 205.924 14.6658 199.942 12.4651 201.16Z" fill="black"/>
<path d="M68.3366 203.127C61.8841 204.922 60.8158 212.849 66.6273 215.712C69.7681 217.25 75.195 215.092 76.6906 211.695C78.8699 206.759 73.849 201.589 68.3366 203.127Z" fill="black"/>
<path d="M113.782 203.81C106.582 205.541 107.714 217.143 115.107 217.143C122.35 217.143 123.589 204.964 116.453 203.81C115.983 203.746 115.47 203.639 115.299 203.597C115.15 203.554 114.466 203.639 113.782 203.81Z" fill="black"/>
<path d="M170.039 203.874C167.026 204.515 164.89 207.742 165.381 210.904C166.342 216.972 174.376 218.51 177.025 213.126C179.333 208.425 175.081 202.806 170.039 203.874Z" fill="black"/>
<path d="M212.77 204.727C212.428 205.069 212.086 205.603 212.022 205.945C211.616 207.889 210.911 210.496 210.185 212.654C208.326 218.188 212.043 220.324 214.885 215.346C218.304 209.385 216.594 200.881 212.77 204.727Z" fill="black"/>
<path d="M134.464 204.728C129.123 206.117 128.204 214.321 133.161 216.522C136.045 217.783 140.596 215.603 141.793 212.377C143.502 207.869 139.271 203.467 134.464 204.728Z" fill="black"/>
<path d="M186.02 205.497C183.499 206.181 181.939 207.975 181.341 210.903C180.23 216.223 187.494 219.513 191.468 215.475C195.656 211.223 191.682 203.937 186.02 205.497Z" fill="black"/>
<path d="M24.1512 208.146C19.8567 209.62 18.6602 215.368 22.036 218.338C27.7407 223.358 35.0478 215.047 29.6636 209.642C27.933 207.911 26.2023 207.441 24.1512 208.146Z" fill="black"/>
<path d="M37.1434 210.627C36.2674 210.904 35.1777 211.182 34.7504 211.268C32.6138 211.609 31.8232 214.237 33.4898 215.413C35.5195 216.865 41.4593 215.477 42.5917 213.297C43.9591 210.648 41.3311 209.345 37.1434 210.627Z" fill="black"/>
<path d="M199.78 215.2C196.938 216.183 195.1 219.452 195.763 222.315C197.13 228.212 204.694 229.964 207.877 225.156C211.509 219.644 206.104 213.021 199.78 215.2Z" fill="black"/>
<path d="M72.5891 216.095C70.9867 217.826 72.3754 220.027 76.435 222.185C80.2167 224.193 83.1652 220.817 79.8749 218.253C76.4563 215.604 73.7856 214.813 72.5891 216.095Z" fill="black"/>
<path d="M139.078 216.738C137.476 218.34 138.737 221.011 141.835 222.613C145.039 224.258 147.603 220.754 144.997 218.276C142.54 215.99 140.403 215.413 139.078 216.738Z" fill="black"/>
<path d="M88.8908 216.61C82.1606 218.255 83.0152 229.066 89.9164 229.686C96.433 230.284 99.4883 220.755 93.8477 217.443C92.0744 216.396 90.7069 216.161 88.8908 216.61Z" fill="black"/>
<path d="M190.485 216.845C188.968 218.362 189.866 220.669 192.173 221.204C193.712 221.567 194.929 220.776 195.186 219.259C195.528 217.101 192.045 215.285 190.485 216.845Z" fill="black"/>
<path d="M163.693 217.57C161.428 218.873 160.766 220.881 162.154 222.249C164.184 224.278 169.077 221.458 168.393 218.659C167.966 216.886 165.765 216.373 163.693 217.57Z" fill="black"/>
<path d="M101.497 219.045C97.6293 220.968 96.7747 222.186 98.0566 224.002C99.9368 226.63 108.376 223.083 108.376 219.664C108.376 217.015 106.047 216.801 101.497 219.045Z" fill="black"/>
<path d="M153.096 218.013C148.053 219.209 146.387 225.127 150.147 228.503C155.788 233.588 164.163 226.73 159.869 220.534C158.48 218.525 155.553 217.436 153.096 218.013Z" fill="black"/>
<path d="M122.691 221.288C120.918 222.057 120.533 224.343 120.277 235.304C119.486 267.716 121.281 273.399 134.891 281.668C144.677 287.608 149.398 293.077 146.963 295.663C140.254 302.82 92.2234 301.923 82.8651 294.466C81.925 293.718 83.1856 292.864 92.1593 288.249C108.055 280.044 110.107 276.284 110.085 255.602C110.085 236.864 108.782 228.467 105.919 228.467C103.718 228.467 103.462 229.428 103.782 236.543C105.321 271.412 104.274 274.617 88.8476 282.629C76.8186 288.868 74.1478 291.881 76.5408 296.581C80.2157 303.846 105.684 308.546 130.938 306.645C158.949 304.529 162.218 290.492 138.181 275.557C127.328 268.806 126.473 266.049 126.387 237.547C126.345 223.724 126.345 223.66 125.875 222.634C125.212 221.181 124.059 220.711 122.691 221.288Z" fill="black"/>
<path d="M21.3093 221.416C19.4077 222.527 18.7668 234.578 20.2837 240.389C21.6511 245.56 25.1124 248.252 28.2959 246.564C34.1075 243.509 33.9152 222.698 28.0823 222.698C26.0312 222.698 25.3474 224.621 26.0098 228.51C26.7149 232.633 26.8644 239.577 26.2448 239.577C25.7107 239.577 25.0483 234.749 24.7492 228.467C24.4501 222.57 24.4073 222.356 23.7877 221.715C23.2322 221.181 21.993 221.032 21.3093 221.416Z" fill="black"/>
<path d="M199.459 230.392C196.318 232.87 198.733 247.955 202.6 250.006C207.963 252.805 212.407 243.147 209.864 234.259C207.963 227.7 202.75 229.516 203.818 236.374C204.031 237.72 204.202 239.643 204.181 240.647C204.181 243.639 203.647 240.583 203.284 235.456C202.92 230.093 201.767 228.576 199.459 230.392Z" fill="black"/>
<path d="M112.009 236.924C111.047 237.394 110.342 238.74 110.492 239.851C110.962 243.462 117.265 242.607 117.265 238.954C117.265 236.946 114.295 235.792 112.009 236.924Z" fill="black"/>
<path d="M23.2544 249.363C21.2888 251.329 21.3956 258.593 23.404 260.944C26.9721 265.11 31.2026 258.401 29.2583 251.649C28.4677 249 24.9637 247.654 23.2544 249.363Z" fill="black"/>
<path d="M202.665 252.398C200.101 254.428 200.507 262.589 203.284 264.705C207.301 267.781 211.382 260.495 208.989 254.513C208.092 252.248 204.417 251.03 202.665 252.398Z" fill="black"/>
<path d="M113.889 253.249C111.581 253.613 110.77 254.339 110.77 256.091C110.77 259.211 116.923 259.446 118.098 256.39C118.974 254.083 117.158 252.737 113.889 253.249Z" fill="black"/>
<path d="M116.133 269.49C114.637 269.896 114.423 269.896 113.846 269.597C110.642 267.931 108.441 271.627 111.112 274.191C114.53 277.524 122.478 274.896 121.325 270.815C120.876 269.212 119.06 268.742 116.133 269.49Z" fill="black"/>
<path d="M98.7408 286.539C96.9033 288.249 96.4546 291.774 97.822 293.911C99.5954 296.731 103.804 297.286 108.633 295.342C110.3 294.68 110.3 294.68 110.834 295.107C114.295 297.885 119.872 297.415 122.649 294.103C123.226 293.419 123.226 293.419 124.572 294.146C127.927 295.94 131.345 295.684 133.824 293.398C138.118 289.445 134.87 284.787 130.405 288.484C128.568 290.001 127.072 289.787 124.957 287.672C123.141 285.856 121.025 286.112 120.043 288.227C118.461 291.624 116.026 292.5 113.761 290.428C112.116 288.932 110.428 288.697 108.014 289.68C103.975 291.347 102.266 291.261 102.672 289.424C103.313 286.646 100.685 284.702 98.7408 286.539Z" fill="black"/>
</svg>
