<svg width="269" height="262" viewBox="0 0 269 262" fill="none" xmlns="http://www.w3.org/2000/svg">
<path d="M172.741 0.862059C171.459 0.968889 166.652 1.43894 162.058 1.90899C145.799 3.55416 137.445 3.83192 128.193 3.06275C115.929 2.05855 108.344 3.44733 106.785 6.9727C105.524 9.793 107.938 11.1604 112.767 10.3271C115.651 9.83573 121.399 9.793 126.804 10.2417C131.654 10.6476 145.521 10.669 150.093 10.2844C151.867 10.1349 157.294 9.62207 162.165 9.17339C192.654 6.26763 194.833 7.20773 215.751 32.2913C222.609 40.5172 225.664 43.5297 233.741 49.9822C251.752 64.3615 254.872 69.3397 256.495 86.3043C257.094 92.5217 257.265 93.8891 258.504 102.542C259.764 111.153 259.807 112.029 260.021 124.87C260.192 135.766 260.405 140.274 261.196 150.957C262.862 173.071 261.751 184.245 256.453 198.582C248.782 219.328 246.282 222.298 229.104 231.037C219.575 235.887 216.605 237.511 210.025 241.399C195.09 250.245 189.406 252.723 180.54 254.219C172.143 255.65 166.246 255.18 156.61 252.317C140.671 247.553 135.5 247.51 117.297 251.89C104.242 255.031 97.8322 255.693 89.5636 254.774C79.2012 253.621 74.9707 251.463 63.5614 241.549C56.6602 235.566 54.2031 233.75 45.5713 228.345C25.6796 215.888 23.7567 212.598 23.3935 190.036C23.0303 168.072 21.9833 160.957 16.065 140.787C7.66819 112.221 6.5999 104.444 9.39883 92.9704C12.5183 80.1936 18.7571 70.8353 31.0852 60.3233C38.0932 54.3622 40.8708 51.3283 44.7594 45.3886C45.8277 43.7434 47.6438 40.9872 48.7548 39.2779C59.7582 22.4416 68.8815 17.3993 91.978 15.3695C96.6785 14.9635 97.0203 14.8354 97.4263 13.4466C98.3023 10.4126 92.9395 9.25885 82.8975 10.3485C63.9887 12.3783 54.6091 18.6598 41.875 37.8037C36.2344 46.2859 34.2474 48.508 26.7052 54.7896C12.7533 66.3912 5.04019 78.5057 2.04897 93.5687C-0.301282 105.363 0.788378 113.097 8.69376 140.574C15.1676 163.179 15.659 166.426 16.2573 191.638C16.7914 214.713 20.1886 220.418 41.1913 233.387C50.0154 238.835 52.3229 240.502 59.16 246.463C70.4198 256.291 75.0989 259.005 83.8376 260.757C94.2641 262.829 102.939 262.295 118.472 258.62C134.347 254.86 139.966 254.753 151.589 258.001C164.344 261.547 169.002 262.21 176.395 261.526C187.398 260.5 195.752 257.402 210.238 249.006C218.998 243.92 222.502 242.062 231.369 237.788C249.765 228.943 252.585 225.994 259.764 207.983C268.567 185.955 269.892 176.767 268.247 149.334C268.054 146.342 267.819 137.433 267.712 129.57C267.499 112.926 267.477 112.52 265.683 99.8716C264.871 94.1242 264.657 91.9448 264.187 85.0437C262.926 66.7331 258.675 59.8319 239.467 44.9399C230.728 38.1883 228.207 35.7098 221.135 26.9071C201.884 2.99865 194.492 -0.975408 172.741 0.862059Z" fill="black"/>
<path d="M187.377 14.0231C185.689 15.5187 186.736 17.7621 189.235 18.0399C190.539 18.1681 193.017 18.7022 195.709 19.45C200.517 20.7533 202.162 17.463 197.803 15.2409C194.47 13.553 188.658 12.8693 187.377 14.0231Z" fill="black"/>
<path d="M136.654 16.1379C130.949 17.1634 126.056 19.9196 126.056 22.0776C126.056 24.1714 128.15 24.6201 131.184 23.21C138.085 19.9837 142.935 20.2828 156.182 24.7483C166.459 28.2096 168.254 28.5301 181.18 29.2565C190.41 29.7693 195.88 32.7605 201.371 40.26C204.042 43.9349 206.093 44.9605 207.717 43.4648C211.263 40.1745 202.033 28.7865 192.825 25.0688C189 23.5305 186.671 23.1459 178.723 22.7399C169.514 22.2912 167.656 21.9494 158.725 19.1932C148.02 15.9028 142.337 15.1123 136.654 16.1379Z" fill="black"/>
<path d="M97.2125 21.5875C83.5383 23.1045 76.1885 28.7878 68.9027 43.4662C64.4159 52.4826 62.3434 55.5379 59.053 57.824C58.3907 58.2941 58.3907 58.2941 58.9035 56.5421C61.6169 47.3334 53.4552 42.056 46.789 48.7008C42.5158 52.9953 42.1312 59.3624 45.9557 63.1655C47.0668 64.2765 47.0668 64.2765 45.9985 65.5158C43.5414 68.3574 38.2213 73.1007 32.1534 77.8439C27.1751 81.7538 26.3205 82.5444 26.0641 83.5486C25.4658 85.7493 27.2606 87.5013 29.4826 86.903C32.367 86.1125 47.43 73.5707 52.1305 68.0369C53.6261 66.2849 53.6261 66.2849 55.0149 66.1354C62.6639 65.3448 67.5139 60.5802 74.2442 47.2052C82.235 31.3517 86.9782 28.2109 103.729 27.7836C111.015 27.5913 112.275 27.1854 112.275 25.006C112.275 22.2071 105.481 20.6688 97.2125 21.5875ZM53.0492 52.5467C53.327 53.615 51.4895 58.9564 50.8485 58.9564C50.058 58.9564 49.3956 56.8412 49.7802 55.602C50.4426 53.5936 52.7501 51.4356 53.0492 52.5467Z" fill="black"/>
<path d="M62.6211 28.1066C59.8008 29.3244 56.3396 32.9353 56.3609 34.6232C56.4037 37.1657 58.8394 37.593 61.1683 35.4778C61.8947 34.8155 63.198 33.7258 64.0313 33.0634C68.0053 29.8799 66.9798 26.205 62.6211 28.1066Z" fill="black"/>
<path d="M214.961 53.638C213.658 54.9199 214.149 56.8856 215.88 57.4411C216.243 57.5693 217.354 57.7616 218.358 57.8898C224.448 58.7017 230.451 62.5903 233.421 67.654C234.703 69.8547 234.725 69.7906 232.524 69.6838C223.123 69.2565 217.653 77.8669 223.272 84.2339C227.887 89.4686 236.348 88.5712 239.788 82.4819C240.451 81.3068 240.451 81.3068 240.963 82.4178C242.886 86.6697 242.459 91.6906 239.276 102.267C234.084 119.573 234.682 127.799 242.032 139.294C247.181 147.37 251.881 144.55 247.694 135.875C241.968 124.103 241.797 119.53 246.326 103.185C250.258 88.9985 249.253 80.3026 242.95 74.1706C241.711 72.9528 241.455 72.5895 241.327 71.7776C239.639 61.4793 229.041 52.9757 217.931 52.9757C215.623 52.9757 215.602 52.9757 214.961 53.638ZM234.447 76.2645C235.451 76.5636 235.472 76.9909 234.575 78.807C233.314 81.3282 230.986 82.0974 228.87 80.7086C225.153 78.2301 229.404 74.8543 234.447 76.2645Z" fill="black"/>
<path d="M132.359 60.6828C120.181 61.7938 106.336 65.8747 101.016 69.9342C98.4304 71.9213 100.695 75.1048 103.622 73.5878C123.834 63.1399 160.434 65.4047 179.856 78.331C206.157 95.8083 213.635 139.972 194.662 165.675C188.744 173.666 191.543 177.875 198.273 171.123C219.618 149.736 216.391 100.167 192.227 78.3524C177.911 65.4047 154.879 58.6103 132.359 60.6828Z" fill="black"/>
<path d="M17.9241 83.2044C14.8475 84.8709 13.4373 94.1865 15.9157 96.494C17.9455 98.3955 19.5266 96.729 19.8898 92.3704C19.9966 90.9175 20.253 89.4432 20.5094 88.6954C21.4709 86.0461 21.5991 85.5546 21.4495 84.7427C21.1931 83.1403 19.4411 82.3711 17.9241 83.2044Z" fill="black"/>
<path d="M26.7476 93.9961C23.1795 94.8294 18.7354 102.735 17.9235 109.615C17.0689 117.114 19.5473 124.678 26.8545 136.835C34.7599 149.975 35.7854 155.701 33.4138 173.905C31.5763 188.177 31.5336 189.16 32.8156 190.378C34.8667 192.301 36.4478 190.591 37.1742 185.634C37.4306 183.947 38.0929 179.716 38.6698 176.255C42.302 154.162 41.4687 147.988 32.6874 132.668C24.1837 117.862 23.0727 110.854 27.6877 101.624C29.5679 97.8847 29.9312 95.1926 28.6919 94.2098C28.1151 93.7611 27.8587 93.7184 26.7476 93.9961Z" fill="black"/>
<path d="M73.069 94.9797C62.3006 102.159 60.0144 138.951 68.9026 161.834C82.1068 195.869 121.976 212.236 157.913 198.369C167.25 194.78 165.562 189.545 155.969 192.365C111.1 205.57 76.1243 184.268 70.6333 140.361C68.7531 125.362 70.7615 107.5 75.1629 99.8084C76.4448 97.5864 76.6371 96.8386 76.1884 95.9412C75.5261 94.6806 74.1587 94.2533 73.069 94.9797Z" fill="black"/>
<path d="M230.493 100.405C227.16 103.162 225.921 113.396 228.656 115.682C230.45 117.199 232.117 115.597 232.672 111.836C233.313 107.435 233.57 106.26 234.211 104.914C236.005 101.089 233.442 97.9911 230.493 100.405Z" fill="black"/>
<path d="M241.796 156.832C237.223 160.25 238.911 166.019 246.347 172.408C250.449 175.933 251.004 176.788 251.581 180.42C252.692 187.364 258.312 185.996 257.82 178.924C257.521 174.758 255.598 171.767 250.62 167.707C248.248 165.763 246.133 163.626 245.62 162.601C245.214 161.831 245.257 161.319 245.791 159.844C246.774 157.216 244.039 155.165 241.796 156.832Z" fill="black"/>
<path d="M242.074 180.701C241.689 181.086 241.412 181.641 241.348 182.154C240.322 189.141 237.502 195.785 233.848 199.717C231.605 202.131 231.583 202.152 230.665 200.315C227.737 194.354 219.277 192.516 214.768 196.832C210.324 201.105 212.952 207.836 219.96 210.229C221.862 210.87 218.187 212.344 207.248 215.271C185.262 221.189 172.314 228.304 167.998 236.829C165.37 241.978 170.028 244.97 173.361 240.29C178.382 233.24 189.941 227.343 208.957 222.129C222.332 218.455 226.861 216.04 229.917 210.998C230.494 210.079 230.835 209.759 231.541 209.481C238.762 206.682 245.087 196.213 246.24 185.188C246.689 180.936 244.36 178.436 242.074 180.701ZM222.311 201.063C223.657 201.426 225.195 202.857 225.195 203.733C225.195 204.417 221.221 203.263 220.131 202.259C219.02 201.255 220.345 200.529 222.311 201.063Z" fill="black"/>
<path d="M40.059 203.946C39.824 204.01 39.2898 204.16 38.8839 204.267C36.7046 204.801 36.0422 207.087 37.5378 208.753C38.4993 209.822 39.2471 210.206 42.4734 211.317C48.0071 213.262 52.2803 215.697 57.8141 220.12C59.3524 221.359 61.489 222.962 62.5787 223.71C64.523 225.077 64.523 225.077 65.2494 227.192C68.9457 237.896 79.0518 240.845 103.729 238.367C115.822 237.149 117.254 237.063 124.454 237.063C133.3 237.063 136.441 237.469 140.97 239.157C143.235 240.012 145.008 238.174 144.025 235.995C141.739 230.803 127.21 228.773 107.148 230.846C94.1147 232.192 93.0678 232.277 87.7049 232.17C80.6328 232.042 77.257 231.102 74.394 228.474C73.3898 227.555 73.3898 227.555 74.0308 227.534C80.4833 227.449 85.7606 220.12 83.0685 215.014C79.8637 208.924 70.0995 209.437 66.3391 215.89C65.6126 217.107 66.0399 217.3 61.959 213.945C53.5195 207.023 44.3749 202.835 40.059 203.946ZM76.5947 217.364C78.6458 218.219 76.3597 220.483 73.4753 220.483C72.0437 220.483 71.8301 220.248 72.3429 219.308C73.2402 217.578 75.0991 216.744 76.5947 217.364Z" fill="black"/>
<path d="M214.084 224.265C213.656 224.351 205.409 228.004 203.23 229.094C201.115 230.12 202.097 233.41 204.49 233.389C207.759 233.324 216.583 229.094 217.63 227.086C218.741 224.906 217.224 223.688 214.084 224.265Z" fill="black"/>
</svg>
