<svg width="109" height="82" viewBox="0 0 109 82" fill="none" xmlns="http://www.w3.org/2000/svg">
<path d="M96.1856 1.02302C79.627 2.4759 68.2176 13.2016 68.6022 26.9398C68.6663 29.4824 68.6663 29.4824 66.1024 30.5293C58.3038 33.7128 52.1718 36.3195 48.4969 37.986C44.9074 39.6312 44.3946 39.8021 44.5228 39.3962C47.0654 31.1489 41.4675 21.7907 34.6732 22.9444C24.6526 24.6751 23.0074 38.6056 32.0238 45.5282C32.7289 46.0623 32.7502 46.105 32.3443 46.3401C20.6999 53.113 9.86737 63.6037 2.47477 75.2695C-1.81977 82.0425 2.43204 84.4568 7.1539 77.9616C10.2733 73.667 15.2729 67.6632 15.743 67.6632C15.8285 67.6632 16.1703 68.0905 16.4908 68.6033C21.3622 76.3378 33.9467 75.6968 35.9979 67.5991C37.1943 63.0055 34.1604 59.0741 28.648 58.0486C26.8532 57.7281 26.8532 57.7281 29.5026 55.8906C35.891 51.4038 43.6255 47.1733 52.941 43.0711C54.5221 42.3874 55.8254 41.8105 55.8468 41.8105C55.8681 41.8105 56.0177 42.2592 56.1673 42.8147C58.197 50.3141 64.9273 54.3523 72.8754 52.8353C84.1566 50.6773 85.6308 38.4133 75.0333 34.8452C73.6873 34.3965 73.6873 34.3965 75.1402 33.7983C97.4462 24.5041 108.578 16.0005 108.578 8.26605C108.578 3.05278 103.92 0.33931 96.1856 1.02302ZM100.929 7.43278C104.369 8.28742 99.6255 13.8212 91.1005 18.9063C87.1478 21.2565 75.1188 27.1108 74.8624 26.8116C74.7556 26.6834 75.2043 23.2435 75.5247 21.7693C77.3408 13.4152 91.9551 5.168 100.929 7.43278ZM36.4893 29.9524C37.9849 31.2344 39.2882 40.8063 38.1131 41.9814C37.6217 42.4942 33.6262 38.7979 32.7716 37.0032C30.87 33.1146 33.7331 27.6449 36.4893 29.9524ZM71.4439 39.7594C75.6316 40.8918 77.3622 43.1779 75.4393 44.994C72.8967 47.4084 67.2775 47.0879 65.1837 44.4171C64.1154 43.0711 62.6625 39.8448 62.9189 39.4175C63.1325 39.0757 69.8628 39.3534 71.4439 39.7594ZM28.648 64.2874C31.1264 65.4412 30.1222 67.6632 27.1096 67.6632C25.3149 67.6632 21.9818 65.2916 21.9818 64.0097C21.9818 63.3473 27.0883 63.561 28.648 64.2874Z" fill="black"/>
</svg>
