<svg width="192" height="229" viewBox="0 0 192 229" fill="none" xmlns="http://www.w3.org/2000/svg">
<path d="M104.181 0.867679C99.737 2.32056 98.6687 8.04662 102.856 8.04662C103.818 8.04662 104.224 7.93979 104.758 7.53384C106.125 6.50827 106.254 10.3755 104.993 13.965C103.732 17.5544 104.331 19.4346 106.788 19.6483C108.796 19.7979 110.206 18.2595 111.36 14.67C111.937 12.918 111.958 12.7685 112.193 10.6105C112.856 4.60671 108.561 -0.585202 104.181 0.867679Z" fill="black"/>
<path d="M94.7371 6.42212C89.9725 9.45607 87.6863 20.3313 91.4894 21.9338C93.861 22.9166 95.3353 21.5278 95.9976 17.6606C96.3609 15.4599 97.3223 12.2977 98.2197 10.3107C99.7153 6.99899 97.6001 4.60602 94.7371 6.42212Z" fill="black"/>
<path d="M70.4225 6.2076C63.9059 8.34419 64.3546 15.8436 71.2772 20.3091C74.3111 22.2747 78.3279 22.3816 78.3279 20.5014C78.3279 20.3091 78.4134 20.0954 78.5202 20.01C78.6911 19.9245 78.7125 19.1126 78.5629 18.1511C78.4988 17.8093 77.3237 16.6128 76.5332 16.1214C72.901 13.8566 72.7514 12.831 76.2127 14.0489C76.9605 14.3053 77.8151 14.2198 78.798 13.8139C79.8022 13.4079 80.1868 10.8867 79.4603 9.54068C78.1143 7.06224 73.2642 5.2675 70.4225 6.2076Z" fill="black"/>
<path d="M81.981 10.6313C81.105 11.3791 80.9554 12.3192 81.4255 14.2421C81.7673 15.6095 81.7887 15.9727 81.5537 17.2547C80.8486 21.0151 81.0836 22.2116 82.6219 22.9808C86.9806 25.1601 89.7582 16.4428 86.2328 11.6355C85.0577 10.0544 83.1988 9.60571 81.981 10.6313Z" fill="black"/>
<path d="M99.6936 13.6423C96.3391 14.8602 97.5356 22.7656 101.146 23.257C102.749 23.4706 103.668 22.9792 104.266 21.5263C104.992 19.7957 103.39 14.4542 101.98 13.9415C101.253 13.6637 100.057 13.5141 99.6936 13.6423Z" fill="black"/>
<path d="M106.403 23.4988C101.831 25.1226 102.258 29.9513 106.958 29.9513C108.561 29.9513 108.732 30.1009 107.984 30.8059C107.215 31.511 105.997 31.7247 103.54 31.5751C101.083 31.4256 100.997 31.4469 100.399 32.4725C98.3692 35.8056 105.762 38.8182 110.526 36.5961C118.304 32.9639 114.415 20.6358 106.403 23.4988Z" fill="black"/>
<path d="M92.8772 23.9036C91.0183 24.8223 90.8474 26.9589 92.5139 28.6468C93.7318 29.886 93.4968 30.1211 91.467 29.7151C87.3434 28.9032 87.0015 33.6678 91.0611 35.142C97.0221 37.2573 102.235 31.1466 98.7314 26.1043C97.4708 24.2668 94.4369 23.1344 92.8772 23.9036Z" fill="black"/>
<path d="M75.2298 24.4328C72.089 25.5865 70.1874 29.3896 71.1489 32.5945C73.2855 39.6453 86.981 38.8547 87.5365 31.6544C87.857 27.6804 83.6479 26.3771 82.1523 29.9665C81.8532 30.7357 80.7635 31.2271 79.3961 31.2271C77.3236 31.2271 77.0031 30.6716 78.3065 29.2401C80.9131 26.3771 78.8192 23.0867 75.2298 24.4328Z" fill="black"/>
<path d="M117.32 25.8631C113.581 27.551 115.354 30.3286 121.529 32.4225C128.387 34.7513 133.558 37.7426 132.383 38.704C123.644 45.9043 72.1737 46.4598 55.5297 39.5159C53.7349 38.7895 53.7136 38.6827 55.1665 37.5716C57.1535 36.0333 61.213 34.3027 65.7639 33.0421C67.2595 32.6361 68.1142 31.696 68.1569 30.3713C68.2851 24.8162 49.184 30.179 46.4919 36.4606C42.4751 45.8189 60.3156 51.5449 93.4969 51.5449C127.725 51.5449 144.091 45.6693 138.942 35.2214C136.293 29.8585 122.063 23.7052 117.32 25.8631Z" fill="black"/>
<path d="M46.4706 47.5956C45.1459 48.4502 44.8681 51.6551 45.4236 59.5391C46.3851 72.8073 47.838 76.8027 51.2138 75.6276C53.3076 74.9012 53.2863 74.2175 50.8719 53.813C50.1455 47.8306 48.8849 46.0572 46.4706 47.5956Z" fill="black"/>
<path d="M137.961 48.8138C136.892 49.3479 136.273 51.4418 134.863 59.4326C132.576 72.3376 132.769 76.0125 135.76 76.2048C138.644 76.4185 139.606 73.2991 141.144 58.5993C142.127 49.2838 141.4 47.0404 137.961 48.8138Z" fill="black"/>
<path d="M60.2314 53.4257C55.4027 55.6264 52.2619 69.2578 56.1719 71.0526C58.4581 72.1209 59.6973 70.7748 60.4878 66.3735C61.8766 58.639 62.3039 58.3826 64.2696 64.0873C67.7949 74.4498 72.4741 75.5394 78.8625 67.4845C81.4264 64.2582 81.0418 64.3223 82.4306 66.8435C86.661 74.5352 92.9212 74.4925 98.7755 66.7367C101.168 63.5318 100.827 63.66 101.788 65.6684C105.356 73.2105 112.386 72.5268 118.368 64.0232C120.398 61.1388 120.248 61.1815 121.039 63.3181C122.385 66.8649 122.812 67.5058 124.158 68.0614C129.863 70.4543 128.175 57.528 122.449 54.9213C119.394 53.5112 116.872 54.8572 113.39 59.75C109.266 65.5188 108.305 65.7325 106.424 61.3311C103.732 54.9427 99.6088 55.0709 94.5878 61.673C90.0796 67.634 89.6736 67.6768 86.9815 62.4635C83.7125 56.1178 79.653 56.2888 74.5252 63.019C71.4912 66.9931 71.8331 67.0785 70.0597 61.8866C67.4531 54.2804 64.3123 51.5883 60.2314 53.4257Z" fill="black"/>
<path d="M38.2661 70.9934C24.8056 75.5443 18.1181 84.7958 24.0364 90.65C30.3821 96.8889 44.8896 98.6409 97.6633 99.4955C144.732 100.265 174.046 91.6115 167.444 78.8988C164.09 72.4249 149.176 69.3269 147.873 74.8179C147.467 76.5058 149.604 77.8732 154.39 78.9843C158.684 79.9885 161.782 81.7618 160.906 82.7233C157.36 86.6332 141.891 90.7996 125.546 92.2097C117.277 92.9362 82.1517 93.278 78.0067 92.6798C77.6648 92.6157 74.8232 92.5302 71.7037 92.4448C47.3253 91.8892 34.3989 90.0945 29.3566 86.5264C27.4123 85.159 32.7537 80.1594 40.4668 76.1212C46.0647 73.1727 44.2486 68.9637 38.2661 70.9934Z" fill="black"/>
<path d="M50.7648 78.0438C49.6324 78.4498 49.0128 80.33 49.6111 81.4837C50.4443 83.0862 59.5676 85.18 70.2078 86.227C70.8488 86.2911 72.7717 86.4833 74.481 86.6756C102.428 89.5814 128.28 87.8508 130.289 82.9366C131.528 79.9027 129.092 78.813 123.302 79.8172C108.602 82.3384 83.241 81.8256 56.3413 78.4498C53.5851 78.0866 51.3203 77.8088 51.3203 77.8302C51.299 77.8302 51.0639 77.937 50.7648 78.0438Z" fill="black"/>
<path d="M164.09 94.0044C162.701 94.8804 162.573 95.6282 162.424 103.875C161.825 138.531 157.103 147.761 138.152 151.18C112.064 155.901 65.6575 154.876 50.6373 149.257C37.0272 144.193 32.4976 136.095 28.9723 110.499C26.6006 93.3421 26.8784 94.3249 24.5281 94.0899C21.6651 93.8335 21.0241 98.128 22.242 109.858C25.3401 140.027 32.9249 151.094 54.4831 156.97C75.5499 162.696 131.764 161.692 148.365 155.282C160.095 150.752 165.351 142.014 167.722 123.105C170.457 101.333 169.154 90.8209 164.09 94.0044Z" fill="black"/>
<path d="M132.662 105.157C131.679 105.755 131.422 106.268 130.674 109.11C127.576 120.882 120.782 129.066 114.693 128.339C111.039 127.89 107.984 119.152 109.138 112.422C109.48 110.435 109.009 109.302 107.492 108.576C105.206 107.465 103.775 108.49 102.578 112.058C94.9294 134.792 73.4353 136.415 73.4139 114.28C73.4139 111.076 72.602 109.879 70.3372 109.687C68.0724 109.516 67.4315 110.413 66.2563 115.413C64.0129 124.985 61.0858 129.301 56.8126 129.301C52.7531 129.301 50.702 123.553 50.7874 112.464C50.8302 107.593 50.6379 106.931 48.9927 106.161C46.4074 104.922 45.0186 106.161 43.288 111.204C41.4933 116.481 38.2456 124.237 36.5364 127.314C35.7245 128.766 35.6176 129.792 36.1945 130.497C37.8611 132.57 40.66 130.882 43.8435 125.861C45.0827 123.895 45.0827 123.895 45.4887 125.262C47.7748 133.339 53.7146 137.334 60.4234 135.283C63.7565 134.279 68.1152 130.262 69.0339 127.378C69.2476 126.715 69.4185 126.844 70.1449 128.296C76.1274 139.77 93.4978 138.915 102.707 126.673C103.412 125.733 104.01 125.113 104.053 125.284C104.117 125.433 104.309 126.096 104.501 126.737C108.454 139.471 123.752 137.526 132.085 123.233C132.512 122.528 132.875 121.908 132.918 121.865C132.939 121.823 133.26 122.421 133.623 123.19C137.554 131.565 145.951 134.471 153.023 129.899C157.831 126.801 155.288 122.015 150.011 124.194C142.554 127.314 137.533 121.566 137.426 109.858C137.383 105.414 135.418 103.469 132.662 105.157Z" fill="black"/>
<path d="M171.483 145.09C167.338 146.35 168.47 149.833 173.406 150.987C179.175 152.354 186.268 156.499 185.136 157.845C182.55 160.965 152.831 165.302 119.564 167.438C80.037 169.981 11.4311 164.511 9.16633 158.657C8.65355 157.29 16.0461 152.696 21.5158 151.008C25.789 149.683 26.8573 147.098 23.7592 145.56C19.7211 143.551 6.08965 150.474 3.46164 155.858C-1.38841 165.75 14.9565 170.472 63.4784 173.207C93.583 174.895 110.27 174.788 133.452 172.759C183.042 168.443 195.626 164.469 190.84 154.619C188.362 149.534 176.354 143.615 171.483 145.09Z" fill="black"/>
<path d="M1.45308 165.747C-1.11083 167.542 0.512977 175.426 4.23064 179.314C8.78158 184.079 13.6103 184.827 23.0326 182.263C29.5919 180.489 29.8056 180.511 33.5446 183.566C40.574 189.292 45.7659 189.826 56.3848 185.895C64.4397 182.904 66.2985 182.882 72.3451 185.809C81.2547 190.104 87.8781 190.083 101.766 185.724C112.385 182.391 115.376 182.284 122.811 184.976C134.755 189.271 142.959 188.801 155.779 183.032C162.637 179.955 164.475 179.635 169.346 180.682C175.307 181.942 176.482 182.113 179.388 182.134C186.866 182.22 191.545 178.182 191.567 171.687C191.567 164.166 184.858 163.738 183.255 171.152C182.358 175.233 180.264 175.746 172.017 173.887C163.599 171.986 161.398 172.306 151.783 176.814C141.528 181.6 135.225 182.263 127.042 179.421C125.568 178.908 123.41 178.139 122.234 177.733C115.333 175.319 110.825 175.575 98.9029 179.1C86.4679 182.775 82.0025 182.797 74.6953 179.207C68.0719 175.96 64.162 175.981 54.5687 179.293C45.125 182.562 42.4756 182.348 36.7282 177.84C32.1345 174.229 29.5279 173.844 22.1566 175.767C11.7942 178.46 7.47826 176.579 5.55533 168.61C5.08528 166.58 4.87162 166.174 4.20928 165.768C3.4401 165.319 2.07269 165.298 1.45308 165.747Z" fill="black"/>
<path d="M95.8482 190.618C94.3526 192.22 93.7116 211.621 95.0576 214.398C96.4891 217.304 99.3094 216.919 100.271 213.693C100.848 211.77 100.549 198.673 99.7795 192.477C99.5017 190.169 97.2583 189.122 95.8482 190.618Z" fill="black"/>
<path d="M85.2716 190.871C83.776 191.726 83.6264 192.987 84.0965 200.55C84.2033 202.43 84.3956 205.785 84.5238 208.007C84.9938 216.211 85.6562 218.027 88.2415 218.027C91.1472 218.027 91.7027 215.357 90.8267 205.464C89.6302 192.196 88.4338 189.055 85.2716 190.871Z" fill="black"/>
<path d="M106.317 210.425C103.24 211.066 103.561 214.655 106.915 217.347C110.313 220.061 110.548 220.403 109.372 220.744C103.369 222.454 80.8704 222.026 74.5461 220.061C72.6018 219.484 73.5419 218.351 77.6441 216.322C80.9345 214.719 81.6823 211.472 78.7979 211.322C70.1661 210.852 63.2649 219.313 68.4568 223.971C75.3366 230.167 110.804 230.744 116.274 224.761C121.081 219.527 113.688 208.865 106.317 210.425Z" fill="black"/>
</svg>
