<svg width="100" height="180" viewBox="0 0 100 180" fill="none" xmlns="http://www.w3.org/2000/svg">
<path d="M34.3888 0.755144C32.0172 1.95163 32.2736 3.25495 36.1621 9.75018C46.0118 26.1378 49.0458 34.7696 46.6314 39.7479C45.5204 42.0554 45.5418 42.0554 43.8966 38.936C37.2732 26.2874 31.8676 17.7838 30.1797 17.271C28.5132 16.7796 26.9107 18.2324 27.2312 19.9631C27.5517 21.5869 36.4185 39.9829 38.662 43.6792C40.1148 46.0508 39.9225 46.3072 35.9058 47.3969C32.4872 48.2942 32.7436 48.3797 31.4403 45.9867C28.8764 41.329 22.4452 31.1374 19.625 27.2916C17.8089 24.8131 15.309 24.8131 14.7322 27.2702C14.4544 28.5735 18.3216 36.2652 24.2827 46.2858C24.7955 47.1405 25.1373 47.8456 25.0519 47.8456C19.8813 47.7815 12.4674 40.3889 6.95498 29.7914C4.92522 25.8601 4.39107 25.2405 3.02366 25.0909C-4.6467 24.2363 5.11751 44.2347 15.6082 50.8795C19.7745 53.4862 28.1713 55.6655 31.5685 55.0245C31.9958 54.939 31.9958 54.9604 31.6112 56.3278C29.6883 63.2717 33.3205 69.7883 39.773 70.9421C49.7722 72.7154 56.2674 58.5071 48.9603 50.8154C47.7211 49.5335 47.7211 49.5335 49.003 48.3156C57.2075 40.4743 56.5452 30.0264 46.7596 13.0405C41.0122 3.10539 37.2091 -0.697736 34.3888 0.755144ZM43.1702 55.2595C45.3922 56.5628 45.6059 60.7719 43.5547 62.8017C40.3712 66.0066 36.1408 60.7506 38.6833 56.7551C39.7303 55.11 41.76 54.4262 43.1702 55.2595Z" fill="black"/>
<path d="M50.7543 72.4791C49.0877 73.9107 49.1732 74.1457 59.2152 94.3151C80.1965 136.534 94.8962 170.314 93.0587 172.151C92.8237 172.407 89.6829 169.053 87.76 166.51C81.7348 158.52 76.7352 147.965 56.9504 101.366C48.7032 81.9229 45.6478 75.0217 44.9428 74.2098C43.4258 72.4791 40.6268 73.462 40.6055 75.7268C40.5841 84.3372 67.1419 146.832 78.4872 164.823C86.3071 177.215 94.768 182.834 98.4216 178.048C102.673 172.472 96.8832 156.618 72.5689 107.348C55.6043 72.9706 53.7028 69.9366 50.7543 72.4791Z" fill="black"/>
</svg>
