<svg width="55" height="175" viewBox="0 0 55 175" fill="none" xmlns="http://www.w3.org/2000/svg">
<path d="M22.233 0.463563C-4.75213 4.58718 -7.61516 18.4964 18.7076 17.5776C41.5477 16.7657 55.7347 10.9542 49.9873 4.71537C46.6542 1.10454 35.0953 -0.797024 33.8988 2.066C33.1723 3.81801 34.6893 4.8222 39.3898 5.65547C44.3894 6.55284 46.1201 7.34338 44.5603 8.02709C36.7832 11.3815 9.66984 13.7104 7.1914 11.232C6.2513 10.2919 19.0922 6.01869 26.8267 4.71537C27.9163 4.52308 29.0701 3.36932 29.0701 2.45059C29.0701 0.356734 26.9762 -0.241511 22.233 0.463563Z" fill="black"/>
<path d="M48.3 16.1041C47.4027 17.0228 47.2317 18.3048 47.2317 24.33C47.2317 64.4124 40.3092 89.325 28.4938 91.7821C12.6831 95.0724 6.05966 78.2361 5.6537 33.7737C5.52551 19.8218 5.41868 19.1381 3.34619 19.1381C0.440427 19.1381 0.16267 21.2319 0.141305 43.2815C0.0985728 79.8599 7.21341 95.9271 24.2634 97.7859C42.1253 99.7515 50.0093 82.5093 52.1459 36.8717C52.8723 21.2533 52.5946 16.6382 50.8853 15.7195C50.0734 15.2922 48.941 15.4631 48.3 16.1041Z" fill="black"/>
<path d="M30.7587 27.2722C24.6267 28.1695 22.02 29.4301 22.02 31.524C22.02 33.9811 23.5156 34.4298 28.0452 33.2974C36.6984 31.1821 38.2581 32.2932 37.6385 40.1772C36.7838 50.4969 34.5404 67.1196 33.2371 72.5038C32.0193 77.5675 32.3184 79.1699 34.4977 79.1699C38.3222 79.1699 40.6938 68.3588 42.7663 41.4591C43.6423 29.9002 40.2451 25.862 30.7587 27.2722Z" fill="black"/>
<path d="M27.7249 39.8362C24.7337 41.8019 26.4857 46.1605 30.0111 45.4768C32.0622 45.0708 33.045 42.8701 32.0622 40.9259C31.3144 39.473 29.1137 38.9175 27.7249 39.8362Z" fill="black"/>
<path d="M11.9134 42.575C9.90504 44.7116 9.73411 62.6162 11.657 70.5643C13.6013 78.6192 18.0454 83.7684 24.1775 85.0931C29.8608 86.311 30.8222 82.4651 25.3953 80.2858C17.7463 77.2091 15.5456 70.9489 15.5243 52.2537C15.5029 42.9596 15.4815 42.7032 14.5414 42.2118C13.7509 41.7845 12.533 41.9554 11.9134 42.575Z" fill="black"/>
<path d="M18.3663 49.4532C17.3408 50.4788 17.2126 51.8462 18.0031 53.0213C19.691 55.4998 23.3659 54.0896 23.1095 51.077C22.9173 48.7481 20.0329 47.7653 18.3663 49.4532Z" fill="black"/>
<path d="M26.0153 59.584C23.9001 61.571 25.118 64.8613 28.0024 64.8613C29.7544 64.8613 31.0577 63.5794 31.0577 61.8701C31.0577 59.2848 27.8528 57.832 26.0153 59.584Z" fill="black"/>
<path d="M22.8112 71.9765C21.8284 72.8739 21.6148 73.9635 22.1275 75.1173C23.3668 77.8735 27.3622 76.9761 27.3622 73.9422C27.3622 71.5919 24.5205 70.3527 22.8112 71.9765Z" fill="black"/>
<path d="M25.9727 100.582C24.5198 101.715 24.4771 102.954 24.4771 138.571C24.4771 155.77 24.4771 155.77 24.9898 156.903C26.6564 160.599 29.8399 159.21 30.5663 154.467C31.3569 149.532 30.8227 108.594 29.904 102.997C29.4767 100.475 27.5965 99.3003 25.9727 100.582Z" fill="black"/>
<path d="M11.5294 152.629C1.87204 157.479 -1.26874 166.239 5.16239 170.406C13.7942 175.982 45.6294 174.892 52.146 168.782C57.1242 164.124 54.0689 156.625 45.6507 152.8C38.4932 149.574 37.2753 154.659 44.1551 159.146C47.5309 161.346 48.8343 163.077 47.8514 164.124C44.262 167.949 13.0037 168.654 8.4741 165C7.08532 163.889 9.64923 160.535 14.3711 157.266C19.328 153.868 16.9136 149.916 11.5294 152.629Z" fill="black"/>
</svg>
