<svg width="154" height="84" viewBox="0 0 154 84" fill="none" xmlns="http://www.w3.org/2000/svg">
<path d="M121.278 0.959712C118.522 2.19893 116.642 2.79718 112.518 3.71591C105.938 5.19016 103.053 6.64304 101.152 9.44197C98.7161 13.0101 101.579 15.8945 104.699 13.0314C106.771 11.1299 108.16 10.5957 114.014 9.37787C116.022 8.97192 118.095 8.50187 118.629 8.35231C119.612 8.05319 119.612 8.05319 119.74 9.89065C119.847 11.5786 120.146 12.9032 121.727 18.672C122.197 20.4454 122.261 20.9582 122.133 22.6888C121.919 25.8937 122.838 27.2184 125.167 26.9406C128.821 26.5347 129.333 22.2829 126.705 14.2707C125.231 9.78382 125.124 7.7327 126.278 5.27562C128.158 1.25883 125.573 -1.00595 121.278 0.959712Z" fill="black"/>
<path d="M54.0827 12.1738C37.2036 13.2848 24.5336 19.9937 16.6924 31.9158C10.304 41.6587 8.38103 54.7773 13.3379 54.7773C15.1754 54.7773 15.8377 53.645 15.8377 50.4187C15.8377 42.3851 22.4825 31.5526 31.328 25.1856C42.7801 16.917 62.4154 15.1009 74.4871 21.1902C77.8415 22.8781 80.4909 21.6388 79.7004 18.7758C78.5893 14.7804 65.5348 11.4046 54.0827 12.1738Z" fill="black"/>
<path d="M93.7166 16.9763C88.7169 17.7028 83.8883 20.0957 83.3541 22.1041C82.649 24.7108 84.8924 25.9714 87.6486 24.5185C93.2892 21.5913 102.37 21.2068 102.37 23.9202C102.37 25.3517 100.233 27.8515 97.1351 30.0522C94.7849 31.7188 94.8062 31.6974 94.1652 32.6375C91.4945 36.5902 96.2805 37.6585 101.301 34.2613C113.202 26.2064 108.224 14.8611 93.7166 16.9763Z" fill="black"/>
<path d="M119.89 28.7109C111.643 29.8647 103.545 37.0223 108.075 39.1161C109.442 39.7571 110.211 39.5007 112.604 37.6205C118.117 33.2619 124.249 33.2405 135.402 37.5564C138.008 38.5606 140.85 39.5862 141.747 39.8426C143.393 40.334 143.393 40.334 141.171 42.4278C139.953 43.5816 137.752 45.9318 136.278 47.6625C127.411 58.1745 119.142 60.4179 110.938 54.5423C105.575 50.6964 102.84 55.2687 108.032 59.4137C117.668 67.1268 129.847 64.1569 140.615 51.4656C144.675 46.6583 147.153 44.5003 150.978 42.3851C153.221 41.1459 154.054 39.9708 153.798 38.411C153.499 36.5949 152.815 36.2104 148.841 35.548C145.486 34.9711 142.794 34.202 138.478 32.5141C129.676 29.0955 124.612 28.0486 119.89 28.7109Z" fill="black"/>
<path d="M96.9851 40.099C95.7672 41.1246 95.6604 41.6374 95.6176 46.6584C95.5108 58.0678 92.541 63.7084 83.2895 70.1181C70.6196 78.8781 48.8691 80.8865 33.1438 74.7759C29.127 73.2162 27.6955 73.3444 27.14 75.3741C26.499 77.703 28.7424 79.3482 35.024 81.1429C64.6157 89.6679 95.5108 78.109 100.959 56.4653C103.395 46.7866 100.959 36.7446 96.9851 40.099Z" fill="black"/>
<path d="M11.6721 55.9362C-4.2455 62.0682 -1.78843 79.4601 14.7274 77.6226C19.8125 77.0671 24.0216 75.3578 24.8976 73.4776C26.2436 70.6787 23.4233 69.589 18.21 70.9137C6.09559 73.9904 2.46339 66.2773 13.2532 60.3376C17.8041 57.8378 16.458 54.0988 11.6721 55.9362Z" fill="black"/>
<path d="M34.8323 63.603C33.3153 64.9063 32.8239 67.6625 33.9135 68.7521C36.1569 70.9742 40.1524 65.9318 37.9944 63.5816C37.3748 62.9192 35.6228 62.9192 34.8323 63.603Z" fill="black"/>
<path d="M42.8672 66.5929C40.816 68.644 41.6066 71.2293 44.2132 71.0584C45.0251 70.9943 46.3498 69.4773 46.4994 68.3876C46.8626 66.0587 44.5551 64.905 42.8672 66.5929Z" fill="black"/>
<path d="M53.378 67.7931C50.7927 69.481 51.4551 74.2242 54.1899 73.7115C57.7794 73.0277 58.4844 67.3872 54.9804 67.3872C54.3608 67.3872 53.7412 67.5367 53.378 67.7931Z" fill="black"/>
</svg>
