<svg width="401" height="149" viewBox="0 0 401 149" fill="none" xmlns="http://www.w3.org/2000/svg">
<path d="M213.039 0.648023C205.988 1.31037 202.74 2.48549 202.74 4.36569C202.74 6.7373 204.108 6.97233 217.59 7.03642C251.861 7.20735 276.752 18.6808 286.836 38.9784C296.259 57.9727 285.982 86.3466 262.992 104.807C237.246 125.468 175.413 141.15 138.258 136.428C95.3554 130.959 63.1997 94.6366 77.0021 67.2241C89.6934 42.0124 150.458 9.38667 191.31 5.88267C195.796 5.49808 197.399 4.77164 197.399 3.12647C197.399 1.45993 196.16 0.883048 192.527 0.92578C166.824 1.18217 126.656 16.2879 98.7953 36.1795C67.2379 58.6991 59.5248 78.6121 73.0067 102.777C86.5313 127.049 113.709 142.325 147.296 144.547C181.46 146.791 234.811 133.266 261.39 115.596C288.204 97.756 303.331 65.9849 296.131 42.5679C287.798 15.54 251.134 -2.96281 213.039 0.648023Z" fill="black"/>
<path d="M170.52 15.8391C168.747 17.0784 169.367 19.45 172.593 23.6377C176.204 28.3382 180.99 26.4793 177.828 21.5866C174.302 16.181 172.294 14.5999 170.52 15.8391Z" fill="black"/>
<path d="M225.068 21.8852C221.97 23.2313 216.565 32.1195 217.761 33.9356C219.278 36.2644 222.825 33.5723 227.419 26.6498C229.534 23.4663 228.102 20.5605 225.068 21.8852Z" fill="black"/>
<path d="M125.268 34.7433C123.367 35.7048 123.73 38.1619 126.08 39.9993C130.994 43.8879 133.879 44.5716 134.626 42.0291C135.011 40.7258 133.921 39.1661 131.122 37.0722C128.174 34.8502 126.443 34.1451 125.268 34.7433Z" fill="black"/>
<path d="M183.083 36.0947C173.041 37.2698 164.922 40.5815 164.922 43.4659C164.922 45.5171 167.721 45.7521 173.811 44.2351C190.156 40.1756 205.112 42.419 217.696 50.8372C239.083 65.1096 222.333 86.155 186.395 90.1504C164.175 92.6288 144.155 89.5949 138.236 82.886C131.955 75.7498 139.219 61.6269 154.859 50.5167C158.577 47.8887 158.684 44.7692 155.051 44.7692C151.12 44.7692 139.924 54.448 134.54 62.4816C118.729 86.1122 141.74 100.705 187.228 95.9192C224.683 92.0092 244.831 70.0451 228.315 51.1576C227.097 49.7475 226.819 49.3202 227.161 49.4056C227.418 49.4484 227.161 49.2347 226.563 48.9142C225.986 48.6151 224.875 47.8459 224.106 47.2263C214.128 39.1714 196.843 34.4923 183.083 36.0947Z" fill="black"/>
<path d="M349.844 36.4988C345.764 38.4644 336.341 48.5491 317.966 70.6415C299.912 92.3492 287.541 108.139 276.431 123.607C273.803 127.282 270.171 132.303 268.355 134.782C264.018 140.722 263.718 141.533 265.342 143.072C267.628 145.294 268.782 144.29 277.499 132.368C293.161 110.98 303.972 97.1992 305.254 97.007C325.402 93.8875 350.72 71.3893 355.699 52.2027C358.754 40.4087 356.169 33.4648 349.844 36.4988ZM351.126 44.4896C349.844 56.3904 342.943 67.2656 329.675 78.2904C324.312 82.7559 313.522 88.9947 311.172 88.9947C310.958 88.9947 326.021 70.8124 331.854 63.9967C339.931 54.5957 350.421 43.2717 351.062 43.2717C351.19 43.2717 351.212 43.7845 351.126 44.4896Z" fill="black"/>
<path d="M267.906 37.2028C261.988 38.9335 260.321 40.4077 261.838 42.587C263.676 45.215 275.491 41.882 276.217 38.5275C276.751 36.0491 273.568 35.5363 267.906 37.2028Z" fill="black"/>
<path d="M51.4263 43.2086C50.1444 43.4009 47.9437 45.9648 41.6408 54.5967C39.9742 56.8828 38.5213 58.8271 38.4572 58.9339C38.2009 59.2117 34.1841 58.0579 32.3466 57.1606C28.7144 55.4086 27.7743 52.9942 28.9281 48.5074C30.5305 42.4181 24.8899 41.6917 22.8174 47.6955C20.2535 55.1308 23.9284 61.4978 32.4748 64.4036C34.12 64.9591 34.12 64.9591 30.1245 70.5356C27.9452 73.6123 25.2318 77.4154 24.1207 78.9751C23.0097 80.5562 19.9544 84.808 17.305 88.4616C0.361866 111.879 0.0200118 112.413 0.853281 114.571C1.85748 117.263 4.48548 116.665 6.89983 113.161C7.77583 111.921 10.3825 108.396 12.69 105.341C20.5954 94.9355 27.4752 85.684 33.6713 77.1377C35.6156 74.4242 37.5812 71.7321 38.0086 71.1552C38.4359 70.557 39.3973 69.2537 40.1452 68.2067C41.4698 66.3479 41.4698 66.3479 44.632 66.3479C53.6911 66.3479 61.1051 62.4379 66.9807 54.5539C71.6171 48.3364 67.2798 43.9564 62.3229 49.8534C57.6011 55.4299 53.0501 58.4852 48.2856 59.2971C46.2558 59.639 46.2344 59.7458 48.5206 56.605C54.2039 48.7851 55.1013 47.3109 55.1013 45.8794C55.1013 43.5719 54.0543 42.8027 51.4263 43.2086Z" fill="black"/>
<path d="M101.573 58.6719C96.7868 59.3983 95.4194 60.6589 96.68 63.1587C97.9406 65.6586 110.504 63.5006 111.209 60.6803C111.786 58.3942 108.196 57.6463 101.573 58.6719Z" fill="black"/>
<path d="M383.431 58.5476C372.705 60.2996 365.035 66.5384 362.77 75.3839C361.894 78.8452 361.766 81.8151 362.172 88.5667C362.898 100.66 359.095 108.116 339.161 133.649C330.209 145.122 329.653 146.126 331.32 147.793C332.965 149.438 335.016 147.985 341.276 140.699C357.215 122.111 368.753 103.245 368.753 95.6815C368.753 95.2969 368.945 95.1687 369.671 94.9764C378.816 92.6689 388.986 87.1352 394.84 81.3023C406.656 69.4869 399.84 55.8769 383.431 58.5476ZM390.097 64.9574C400.78 67.4785 389.478 81.4091 371.808 87.4984C368.774 88.5453 369.073 88.9726 369.073 83.5884C369.073 76.4736 369.992 73.4396 373.09 70.3202C377.128 66.2821 385.055 63.7822 390.097 64.9574Z" fill="black"/>
<path d="M256.774 74.2722C254.403 74.9559 254.232 77.9044 256.496 78.8445C257.501 79.2504 264.872 79.5068 267.008 79.2077C270.128 78.759 271.047 78.0326 270.918 76.131C270.833 74.7209 260.107 73.3107 256.774 74.2722Z" fill="black"/>
<path d="M102.641 93.4582C97.6204 95.2102 96.488 96.0862 96.6376 98.116C96.8726 100.915 100.291 100.872 106.38 97.9878C112.683 95.0179 109.436 91.0866 102.641 93.4582Z" fill="black"/>
<path d="M215.132 100.532C212.696 102.967 219.106 113.971 221.883 112.112C223.144 111.279 222.674 108.373 220.559 104.057C218.785 100.382 216.67 98.9932 215.132 100.532Z" fill="black"/>
<path d="M179.451 105.169C176.823 106.237 176.246 114.762 178.746 115.724C180.947 116.557 182.293 114.848 182.955 110.361C183.554 106.366 182.037 104.122 179.451 105.169Z" fill="black"/>
<path d="M144.24 106.234C141.377 107.623 136.805 120.186 138.749 121.319C141.206 122.772 142.873 120.849 146.697 112.067C148.15 108.734 148.064 106.534 146.483 106.213C146.227 106.149 145.778 106.064 145.479 105.999C145.18 105.935 144.625 106.042 144.24 106.234Z" fill="black"/>
</svg>
