<svg width="112" height="174" viewBox="0 0 112 174" fill="none" xmlns="http://www.w3.org/2000/svg">
<path d="M42.1302 1.06936C13.4572 3.37687 -3.05864 11.09 1.19317 20.1705C4.91083 28.1186 24.8025 32.2422 59.3298 32.2422C97.7243 32.2208 114.155 27.6699 109.454 18.3116C105.736 10.919 76.1661 1.02663 65.7395 3.69736C60.1203 5.12888 63.9234 8.16283 73.8586 10.1285C89.9257 13.3334 105.95 19.5722 102.553 21.3242C93.5793 25.8965 46.5743 27.2426 23.6915 23.5676C13.7349 21.9866 6.12869 18.9526 7.19698 16.9869C9.76089 12.201 35.7418 6.19717 53.9456 6.17581C58.9879 6.17581 61.2313 4.4238 59.0306 2.22312C57.8341 1.02663 49.6083 0.449748 42.1302 1.06936Z" fill="black"/>
<path d="M1.34211 26.5858C0.25245 27.6755 0.316548 28.3806 1.85489 32.141C9.18339 50.1524 11.2132 68.8903 9.69617 103.824C8.90563 121.6 10.038 127.091 15.5718 132.368C23.7336 140.188 45.9541 145.572 67.7259 144.974C95.0529 144.248 105.757 138.351 106.975 123.352C107.317 119.335 106.975 115.532 105.373 105.319C102.04 83.996 103.514 61.8823 109.689 40.6873C112.359 31.5641 112.359 29.2566 109.753 29.2566C104.582 29.2566 98.7065 53.7419 97.5741 80.0433C97.1681 89.0597 97.6168 95.4694 99.4756 107.926C101.634 122.326 101.206 127.305 97.4672 131.364C86.2288 143.5 28.199 139.868 18.6698 126.429C15.7214 122.262 15.3154 118.459 15.9777 101.58C17.1956 71.4542 15.5077 52.6308 10.2944 37.6534C6.91861 27.9105 3.82055 24.1074 1.34211 26.5858Z" fill="black"/>
<path d="M57.2571 45.2969C51.6378 48.0745 47.5142 64.7185 45.634 92.1737C45.2922 97.2374 45.1212 114.736 45.4204 116.851C45.7836 119.565 46.916 120.59 48.903 120.035C50.5909 119.586 50.8687 118.411 51.1037 110.762C51.8729 85.0161 54.9923 61.3854 58.71 53.2023C59.4578 51.5571 59.5432 51.6212 60.1628 54.0783C61.7653 60.3171 61.808 68.3721 60.3979 89.6097C58.4322 119.159 58.6886 124.543 62.1499 124.543C65.2693 124.543 65.7821 121.872 67.0213 99.0107C67.5768 88.7551 67.6836 86.1912 67.8546 79.7814C68.6024 53.8219 64.8206 41.5579 57.2571 45.2969Z" fill="black"/>
<path d="M84.9691 45.4682C76.7006 48.1817 69.2652 84.29 72.7051 104.994C73.4957 109.737 76.9569 110.185 77.4911 105.613C77.8116 102.921 78.303 97.6651 78.6662 93.0287C80.055 75.6155 82.2343 62.6464 84.9691 55.6598C86.2511 52.3908 86.3152 52.348 86.8493 54.3778C88.9218 62.0054 88.8791 72.8379 86.6784 97.4087C84.9264 117.172 84.9478 118.625 87.1271 119.757C90.973 121.744 92.7891 113.967 94.947 86.2984C97.0409 59.3988 92.9814 42.8402 84.9691 45.4682Z" fill="black"/>
<path d="M30.6572 46.1122C23.756 47.4797 20.0384 69.2515 21.1708 101.578C21.7476 117.795 22.3672 120.765 25.2303 120.765C28.0719 120.765 28.2215 120.017 27.7087 109.377C26.7259 89.1218 28.1147 64.957 30.8068 55.6842C31.8323 52.1161 31.8537 52.1161 32.6015 55.0004C34.1826 61.3248 34.5672 74.0802 34.033 104.997C33.8194 117.944 33.9689 119.397 35.6568 120.572C40.6564 124.076 42.1521 110.573 40.6137 75.939C39.6522 53.9749 36.6397 44.9371 30.6572 46.1122Z" fill="black"/>
<path d="M29.1616 144.908C26.79 146.917 27.3882 156.852 30.1872 161.638C36.9815 173.218 70.7824 177.235 80.397 167.62C86.8281 161.168 87.405 145.058 81.2089 145.058C78.6664 145.058 78.004 146.553 77.8331 152.685C77.4912 164.415 73.2822 167.278 57.8987 166.253C40.571 165.099 35.0159 161.467 33.5843 150.399C33.0716 146.489 32.9006 145.784 32.1528 145.058C31.3409 144.246 30.0376 144.16 29.1616 144.908Z" fill="black"/>
<path d="M38.9248 149.63C38.1984 150.399 38.0916 150.805 37.8352 153.22C37.3865 157.728 40.9973 159.971 42.5998 156.19C44.5654 151.574 41.7879 146.596 38.9248 149.63Z" fill="black"/>
<path d="M51.8939 150.532C50.2487 151.686 49.8855 157.027 51.3811 158.566C53.5818 160.895 56.4662 156.835 55.8039 152.348C55.5261 150.511 53.3468 149.507 51.8939 150.532Z" fill="black"/>
<path d="M65.1199 151.895C63.7098 153.326 64.0943 158.433 65.7609 160.142C68.6453 163.112 71.2306 157.813 69.3504 152.813C68.7307 151.189 66.3591 150.655 65.1199 151.895Z" fill="black"/>
</svg>
