<svg width="239" height="164" viewBox="0 0 239 164" fill="none" xmlns="http://www.w3.org/2000/svg">
<path d="M111.088 1.23898C96.9655 3.76015 86.4749 17.5198 88.2055 31.3008C88.7824 35.809 93.5684 35.7449 93.5684 31.2367C93.5684 16.9856 103.119 6.28133 115.832 6.28133C126.515 6.28133 133.672 17.0284 135.552 35.8731C136.044 40.7872 136.685 42.1119 138.629 42.3042C145.53 42.9666 139.74 16.4729 130.959 7.26416C126.151 2.22181 118.545 -0.0857072 111.088 1.23898Z" fill="black"/>
<path d="M80.4284 18.036C61.1137 20.0871 39.0213 38.419 31.5433 58.6312C24.3002 78.1809 27.0564 103.243 37.8676 115.742C42.4399 121.041 46.3071 117.537 42.4613 111.576C32.5688 96.2351 32.0561 71.8139 41.2434 54.593C49.5547 39.06 66.6474 26.1977 83.0564 23.1424C86.0477 22.5655 86.7314 22.0741 86.7314 20.3862C86.7314 18.1642 85.0862 17.5445 80.4284 18.036Z" fill="black"/>
<path d="M111.943 18.3992C106.281 19.3393 100.897 24.9799 100.491 30.4068C100.17 34.445 104.123 35.0218 105.405 31.1119C107.242 25.6208 113.161 22.01 117.199 23.9329C119.741 25.1508 121.045 27.9284 121.557 33.1844C122.198 39.8292 127.39 39.4018 127.048 32.7357C126.557 23.292 119.998 17.0531 111.943 18.3992Z" fill="black"/>
<path d="M146.001 29.8288C143.8 30.8757 144.826 32.991 148.458 34.8071C174.61 47.9043 190.997 71.0222 193.134 97.8364C193.433 101.426 193.326 104.994 192.707 111.981C192.108 118.583 192.514 120.292 194.672 120.677C196.36 120.976 197.599 119.074 198.454 114.886C203.582 89.696 191.211 59.2069 168.456 40.9177C160.038 34.1447 148.672 28.5255 146.001 29.8288Z" fill="black"/>
<path d="M164.054 58.0516C162.046 59.3763 156.811 73.0505 156.811 76.9818C156.811 79.6098 158.52 80.3363 160.23 78.4347C161.554 76.9391 167.366 63.2435 167.793 60.5942C168.156 58.2653 165.977 56.7697 164.054 58.0516Z" fill="black"/>
<path d="M173.605 76.1445C172.152 77.4264 168.242 88.3871 167.815 92.4039C167.324 97.0403 169.866 97.8308 172.238 93.7927C173.199 92.1689 177.002 81.0586 177.344 78.8793C177.793 76.1231 175.528 74.4779 173.605 76.1445Z" fill="black"/>
<path d="M181.104 91.7222C180.292 92.4487 179.844 93.3247 177.493 98.6875C174.502 105.503 174.374 108.195 177.023 108.195C179.63 108.195 185.912 94.6493 184.437 92.1495C183.754 90.9958 182.173 90.7821 181.104 91.7222Z" fill="black"/>
<path d="M23.5953 112.214C-0.804561 122.149 -6.9793 135.781 9.3656 143.707C10.6048 144.327 12.6987 145.481 13.9806 146.293C26.4797 154.134 48.8284 160.394 71.989 162.552C94.9573 164.689 128.95 163.129 178.925 157.638C220.973 153.023 233.002 148.215 237.681 134.221C239.284 129.371 238.857 125.781 236.25 122.341C232.084 116.893 212.918 111.082 211.188 114.735C210.248 116.722 212.491 118.41 219.115 120.653C229.263 124.115 231.678 125.803 229.52 127.875C225.054 132.17 212 136.336 194.843 138.964C176.96 141.699 133.501 145.63 103.611 147.233C94.7864 147.703 67.8654 147.767 61.1992 147.339C31.1161 145.417 11.7372 140.866 7.25038 134.67C4.43008 130.76 9.53653 125.482 22.9116 118.538C28.1462 115.846 29.0436 115.077 29.0436 113.346C29.0436 111.658 26.3301 111.103 23.5953 112.214ZM228.964 137.084C224.477 143.43 212.064 147.275 185.549 150.587C162.623 153.45 137.86 155.608 112.05 156.954C105.341 157.296 84.6163 157.296 79.6807 156.954C68.8269 156.185 56.8406 154.54 49.0207 152.766C47.3328 152.382 47.7174 152.382 51.9051 152.745C53.8494 152.895 57.3107 153.151 59.5968 153.279C61.883 153.407 64.3828 153.557 65.1519 153.6C77.9287 154.497 106.623 153.685 133.309 151.677C190.591 147.318 213.666 143.729 227.212 137.062C228.622 136.357 229.819 135.781 229.84 135.781C229.883 135.759 229.498 136.357 228.964 137.084Z" fill="black"/>
<path d="M43.722 122.382C38.1027 128.001 68.2073 136.804 98.2691 138.342C137.091 140.308 187.6 132.103 187.835 123.77C187.878 122.788 187.066 122.147 185.506 121.954C184.053 121.783 183.54 121.912 177.216 123.899C138.651 136.099 72.8223 135.479 47.5465 122.702C45.6876 121.762 44.4484 121.655 43.722 122.382Z" fill="black"/>
</svg>
