<svg width="75" height="60" viewBox="0 0 75 60" fill="none" xmlns="http://www.w3.org/2000/svg">
<path d="M31.3524 1.04337C16.6313 3.20133 2.18793 18.4566 3.36305 30.6138C5.86286 56.1674 57.9102 55.4409 66.136 29.7591C69.811 18.2643 63.679 5.63704 53.0387 2.85947C43.8941 0.445126 40.0696 6.89762 49.1074 9.4829C64.1063 13.7774 64.5763 31.3616 49.898 39.0106C36.1597 46.1468 16.3535 43.7538 10.9266 34.2673C5.82013 25.3364 17.6141 9.95295 32.5275 6.06436C35.8819 5.18835 36.587 4.63284 36.587 2.9663C36.587 1.1502 34.8991 0.53059 31.3524 1.04337Z" fill="black"/>
<path d="M37.8684 8.00833C35.9242 8.7134 34.4072 14.2258 35.7319 15.7641C36.672 16.8538 38.8513 16.7042 39.5777 15.5078C41.8211 11.8328 40.7101 6.98277 37.8684 8.00833Z" fill="black"/>
<path d="M23.1906 13.6066C20.7549 15.6364 23.9171 19.0977 27.5493 18.4139C29.4936 18.0507 30.2414 15.9355 28.9381 14.5254C27.8057 13.3075 24.2162 12.752 23.1906 13.6066Z" fill="black"/>
<path d="M46.842 13.994C43.9362 15.105 42.8466 18.4594 45.0472 19.6132C47.8675 21.1302 52.1834 16.6433 50.0682 14.3999C49.5554 13.8444 47.8034 13.6307 46.842 13.994Z" fill="black"/>
<path d="M31.3103 19.1834C26.8875 22.1319 27.2721 28.157 31.9726 29.5458C37.9551 31.3405 43.5102 27.4947 42.1214 22.4951C41.224 19.2902 37.25 19.5038 37.1004 22.7515C37.0363 24.2257 36.5236 24.7599 35.1561 24.7812C33.2332 24.8026 33.0409 24.1189 34.5579 22.431C37.1432 19.5252 34.6006 16.9827 31.3103 19.1834Z" fill="black"/>
<path d="M15.9696 23.076C13.7262 24.3793 14.4313 27.456 17.0379 27.8619C22.5717 28.6738 26.6098 25.9817 23.234 23.6956C22.1016 22.9264 16.9952 22.4991 15.9696 23.076Z" fill="black"/>
<path d="M46.9489 23.5645C44.3209 26.2138 48.1881 28.97 52.7817 27.7522C54.7688 27.218 55.773 25.1455 54.6619 23.9063C53.38 22.4962 48.2522 22.2611 46.9489 23.5645Z" fill="black"/>
<path d="M21.6089 31.2374C19.4723 32.9894 18.8954 34.7628 20.0492 35.9379C21.9721 37.8395 26.9504 34.25 26.2453 31.4725C25.7752 29.6136 23.6814 29.5068 21.6089 31.2374Z" fill="black"/>
<path d="M69.6613 30.7873C68.5289 31.7274 68.3366 32.4752 67.9947 36.9193C67.7597 39.9319 67.4606 41.4275 66.8196 42.6881C63.5933 49.0338 47.398 53.8411 29.3225 53.8197C14.345 53.8197 8.68302 51.0208 5.28584 41.983C4.11072 38.8636 0.478516 38.9491 0.478516 42.1112C0.478516 47.004 5.88408 54.3111 11.2683 56.6827C20.2206 60.6568 39.1721 60.8277 53.3805 57.1101C68.4648 53.1574 74.7677 46.598 74.1267 35.4664C73.8917 31.1078 71.8192 28.9498 69.6613 30.7873Z" fill="black"/>
<path d="M42.1425 31.9848C41.4801 32.5404 41.416 32.6899 41.416 33.7368C41.416 37.2836 47.3985 39.3347 48.189 36.0657C48.9154 33.1172 44.4286 30.0833 42.1425 31.9848Z" fill="black"/>
<path d="M31.8437 32.7125C29.5362 34.6568 30.0917 40.5751 32.6129 40.7247C34.5999 40.8529 35.711 38.8445 35.7323 35.02C35.7323 32.6698 33.4889 31.3237 31.8437 32.7125Z" fill="black"/>
</svg>
