<svg width="343" height="216" viewBox="0 0 343 216" fill="none" xmlns="http://www.w3.org/2000/svg">
<path d="M313.641 0.873214C303.898 1.83468 292.04 4.44132 288.109 6.49244C281.485 9.91098 285.844 12.6031 295.031 10.787C315.179 6.79157 330.947 6.7061 335.05 10.5306C340.391 15.5302 319.132 40.5497 292.254 60.9113C280.545 69.7782 269.072 77.1281 245.569 90.8663C224.994 102.874 217.708 107.361 197.816 120.287C170.361 138.149 157.585 146.097 142.372 154.836C84.8978 187.867 13.1297 215.793 7.57461 207.289C4.24153 202.204 17.2961 173.702 34.3674 148.768C53.5113 120.821 77.8684 97.0197 104.234 80.5466C125.514 67.257 147.158 57.9201 194.612 41.6607C213.243 35.2723 219.481 33.1143 227.301 30.3795C246.958 23.4783 271.166 14.3337 273.217 13.0518C275.311 11.7271 275.503 9.74006 273.644 8.99225C272.127 8.39401 272.063 8.39401 259.671 12.8167C246.638 17.4531 234.203 21.705 207.858 30.5504C169.015 43.5836 155.042 48.626 139.488 55.1853C81.8638 79.4783 37.8714 121.078 9.68984 177.975C-11.5051 220.707 2.83139 225.365 70.3262 197.717C113.25 180.133 149.124 160.647 203.478 125.415C224.203 111.976 230.058 108.365 251.231 95.93C293.942 70.8465 318.812 51.1258 335.178 29.3753C350.583 8.90679 342.378 -1.98982 313.641 0.873214Z" fill="black"/>
<path d="M315.435 13.716C311.931 14.2074 313.085 17.6046 317.251 19.1216C320.285 20.2112 320.349 21.1086 317.593 24.8263C314.11 29.5695 310.201 32.6676 301.27 37.7526C287.168 45.7862 278.408 53.9266 280.16 57.3238C281.164 59.2681 282.553 58.7767 286.164 55.1231C290.758 50.4867 295.18 47.3459 303.898 42.5172C320.178 33.4795 328.276 23.3948 324.302 17.1346C322.892 14.8911 318.64 13.246 315.435 13.716Z" fill="black"/>
<path d="M268.174 20.9173C262.94 21.9214 257.342 24.6136 245.462 31.8352C237.664 36.5784 236.019 37.5399 229.331 41.2362C210.486 51.6628 202.004 62.3671 196.748 82.4083C196.15 84.6731 195.039 88.4121 194.27 90.6982C190.509 102.108 193.266 106.872 201.491 103.133C202.902 102.492 204.248 101.68 210.444 97.7917C219.887 91.852 225.678 89.1385 238.732 84.5021C255.825 78.4342 258.688 75.6567 259.991 63.9909C260.824 56.4915 261.7 54.248 266.593 47.1118C271.016 40.6807 271.507 39.2705 269.777 37.8177C267.683 36.0443 265.568 37.7963 260.525 45.4667C256.338 51.8551 255.248 55.0813 253.902 65.1233C252.94 72.3022 251.018 73.7337 233.391 80.229C222.409 84.2885 216.255 87.3224 205.615 93.9031C201.705 96.3175 200.316 97.108 199.034 97.6849C198.265 98.0267 198.265 97.984 199.953 92.728C200.637 90.6128 201.748 86.7242 202.41 84.0748C207.26 64.9737 214.567 55.8291 233.284 45.4026C236.51 43.6078 241.04 41.0226 243.326 39.6765C252.406 34.2923 254.457 33.1172 257.534 31.5147C262.277 29.0363 268.046 26.8142 269.734 26.8142C270.375 26.8142 270.375 26.9211 269.713 27.9894C267.726 31.1942 271.272 33.2881 273.986 30.5105C279.349 25.0195 275.973 19.443 268.174 20.9173Z" fill="black"/>
<path d="M249.395 40.3574C248.797 40.6351 247.387 41.447 246.297 42.1308C245.186 42.8358 241.938 44.8015 239.054 46.5108C225.957 54.2879 220.401 59.0525 215.188 67.022C210.381 74.3291 209.505 78.2391 212.688 78.175C214.013 78.1536 214.462 77.6622 216.513 74.03C221.705 64.8641 227.132 59.8431 240.507 51.895C251.916 45.1006 253.796 43.605 253.796 41.2761C253.796 39.7378 251.681 39.2891 249.395 40.3574Z" fill="black"/>
<path d="M187.026 49.0566C171.878 51.3642 145.021 70.6362 134.295 86.8956C112.267 120.291 101.349 157.104 114.404 153.92C119.318 152.724 141.068 136.123 143.248 131.914C144.23 129.991 143.205 128.089 141.218 128.089C140.043 128.089 139.829 128.217 136.688 130.995C130.962 136.037 121.924 142.874 116.156 146.549C111.37 149.583 120.066 123.346 129.488 106.339C141.667 84.3317 150.192 74.8025 166.75 64.6751C172.904 60.9147 185.317 54.9109 184.954 55.851C184.911 55.9578 182.604 58.6713 179.826 61.8762C165.041 78.9689 161.772 84.93 160.853 96.4675C160.362 102.664 159.379 104.437 152.114 112.086C145.598 118.966 144.166 121.722 146.26 123.389C148.012 124.777 149.38 123.923 155.106 117.833C164.806 107.535 166.002 105.313 166.942 95.9975C167.84 86.9811 170.916 81.661 184.099 66.2989C192.026 57.0689 193.222 55.2741 193.222 52.7529C193.222 49.8685 190.894 48.4584 187.026 49.0566Z" fill="black"/>
<path d="M155.405 76.8491C146.496 81.5496 130.728 106.569 134.723 109.71C136.219 110.864 137.736 109.859 138.953 106.868C141.71 100.074 146.581 92.9376 154.166 84.5622C159.465 78.7293 160.17 74.3279 155.405 76.8491Z" fill="black"/>
<path d="M103.678 95.9942C99.1061 97.5752 93.6364 102.746 84.0859 114.454C78.1248 121.783 74.0226 126.013 66.8436 132.295C65.3694 133.577 62.2499 136.312 59.8997 138.341C36.44 158.853 25.992 176.479 32.8718 183.936C36.2904 187.632 40.414 187.034 49.6441 181.5C54.2164 178.766 57.7417 177.056 62.7841 175.133C76.3942 169.942 79.129 167.591 85.6029 155.413C88.6368 149.687 89.3846 148.383 93.0596 142.358C96.8627 136.119 97.5891 133.812 96.2217 132.466C93.6151 129.838 88.5514 136.119 79.9623 152.742C74.5567 163.19 72.3987 165.049 60.5407 169.536C55.1992 171.544 51.8875 173.168 46.3965 176.437C37.4441 181.778 35.3076 181.415 37.4869 174.92C40.1576 166.865 49.9432 155.37 66.8436 140.371C77.9111 130.543 81.4365 126.932 88.8505 117.702C93.8074 111.57 96.7131 108.237 98.9565 106.207C101.435 103.964 102.952 102.789 102.952 103.13C102.952 103.622 99.6403 109.562 95.9653 115.672C91.393 123.236 91.2648 123.642 92.7391 124.881C94.7261 126.547 97.8242 123.065 105.281 110.673C111.776 99.9255 111.071 93.4516 103.678 95.9942Z" fill="black"/>
<path d="M75.8172 137.633C74.813 138.295 74.0652 139.086 72.5482 141.116C70.2621 144.128 67.6982 146.585 62.4635 150.773C53.4685 157.931 49.1953 163.828 51.2251 166.263C52.5925 167.887 54.2804 167.31 55.7974 164.725C57.1648 162.353 60.2842 159.426 65.7752 155.324C74.5353 148.743 79.0435 143.359 79.0862 139.364C79.1076 137.398 77.441 136.522 75.8172 137.633Z" fill="black"/>
</svg>
