<svg width="88" height="52" viewBox="0 0 88 52" fill="none" xmlns="http://www.w3.org/2000/svg">
<path d="M52.7487 0.553485C48.9883 1.89954 42.1512 9.59125 41.5743 13.138C41.4675 13.7149 41.3179 13.9713 40.9761 14.0354C20.7426 18.6504 9.84597 22.9022 2.47474 29.0342C-2.0121 32.7732 1.10732 36.1918 6.08557 33.0083C13.5209 28.2223 23.9902 24.6542 39.9932 21.3852C43.0699 20.7656 43.0699 20.7656 44.2664 21.9194C48.2618 25.808 54.4793 27.2608 59.9276 25.5943C67.5766 23.2868 66.8288 17.988 58.9448 18.8213C56.7868 19.035 53.8811 18.9068 53.8811 18.6077C53.8811 18.5008 54.0093 18.4154 54.1802 18.4154C54.8425 18.4154 59.8421 16.8343 61.2523 16.1933C64.6067 14.6336 65.7391 11.7065 63.7307 9.78355C62.5342 8.62979 61.7437 8.62979 58.1115 9.78355C54.8212 10.8305 50.0138 12.0697 49.8643 11.8988C49.8002 11.8347 51.3172 10.2109 53.2828 8.3093C56.0176 5.63857 56.8723 4.6771 56.9791 4.14295C57.5133 1.53632 55.2912 -0.343883 52.7487 0.553485Z" fill="black"/>
<path d="M81.7638 23.5446C80.9519 23.7582 77.3838 24.9547 73.8584 26.2153C59.2655 31.4286 24.9519 42.7739 17.3457 44.9105C11.8333 46.4702 11.1923 46.8975 11.4487 48.9486C11.8546 52.1535 13.6921 51.9612 32.1949 46.6838C37.9424 45.0387 37.4723 45.06 43.3266 46.4915C54.8214 49.2905 60.3979 48.8845 69.1579 44.59C79.3922 39.569 88.7932 29.4416 87.0198 25.3607C86.1224 23.3523 84.5414 22.7968 81.7638 23.5446ZM76.4223 32.8387C71.85 36.8342 64.5215 40.8723 59.5219 42.1543C57.2358 42.7311 53.0694 42.838 50.2705 42.3679C48.1766 42.0261 48.1553 42.0261 52.0652 40.8723C59.0519 38.7785 68.7306 35.424 75.4609 32.7533C76.3369 32.4114 77.106 32.1123 77.1701 32.1123C77.2342 32.0909 76.8924 32.4328 76.4223 32.8387Z" fill="black"/>
</svg>
