<svg width="106" height="176" viewBox="0 0 106 176" fill="none" xmlns="http://www.w3.org/2000/svg">
<path d="M70.0775 0.743039C67.9409 2.06772 66.7872 6.66139 65.4838 19.3527C62.9413 44.1158 66.1675 63.3878 75.5472 79.3054C77.9829 83.429 80.1622 86.5271 86.401 94.582C87.7898 96.3554 87.7898 96.3554 87.2984 97.6587C78.1965 122.059 80.0554 146.437 91.6571 154.706C105.288 164.448 110.352 132.101 100.097 100.821C98.9215 97.2527 97.8745 91.9326 96.9985 84.946C95.6738 74.5408 94.05 66.379 88.324 41.2528C85.696 29.7793 80.44 13.9472 75.9745 4.09748C74.4789 0.807137 72.1286 -0.538914 70.0775 0.743039ZM74.137 16.5752C80.5682 34.0097 83.4526 46.4019 87.4907 74.0494C88.1958 78.9208 88.965 84.0059 89.1786 85.3092C89.3709 86.6339 89.5418 87.7236 89.4991 87.7236C89.3923 87.7236 84.6277 80.9933 83.1534 78.7499C74.778 65.9517 71.4663 53.1108 71.4663 33.4542C71.4663 25.6343 72.3637 12.6438 72.8551 13.1994C72.8764 13.2421 73.4533 14.7591 74.137 16.5752ZM95.5029 115.606C97.8532 125.028 98.2805 133.917 96.8703 143.681C96.1866 148.296 96.0584 148.659 95.3106 147.869C90.5033 142.719 89.435 129.473 92.4049 111.461C92.7681 109.324 93.0458 107.508 93.0672 107.423C93.1099 107.038 94.6483 112.145 95.5029 115.606Z" fill="black"/>
<path d="M44.0972 25.1016C41.5547 25.9135 41.2555 27.1955 42.1102 33.1352C43.4776 42.3439 42.6443 50.4415 39.8454 55.3557C38.1575 58.3469 38.2216 58.3897 38.072 54.1592C37.7088 44.0318 34.8671 31.896 32.5169 30.4644C28.2864 27.8792 26.1712 32.5583 27.6455 41.1474C28.5856 46.6812 29.0342 51.3816 29.0342 56.1462C29.0556 60.7613 29.0556 60.7399 28.0514 60.3981C24.6756 59.287 22.6245 54.2019 20.5093 41.6815C19.5692 36.0409 18.2658 34.6308 15.7019 36.4469C12.7962 38.5194 13.7576 54.0737 17.1975 60.804C17.7317 61.8509 17.6249 61.8509 16.3643 60.9108C11.4928 57.3641 7.94611 49.2451 6.30094 37.9852C5.68133 33.8616 1.8141 33.648 0.980831 37.6861C-2.56591 54.7575 8.58709 71.4442 23.9705 72.0638C26.9831 72.192 26.9831 72.192 27.1327 73.709C27.5173 78.0676 28.4146 81.828 31.299 91.229C37.7943 112.424 38.7771 119.112 38.7771 141.759C38.7771 154.087 38.8839 157.057 39.5249 160.903C43.4135 183.957 62.2155 177.804 62.8564 153.276C63.1769 140.819 61.1472 131.824 54.7374 117.424C53.5195 114.667 51.7889 110.522 50.8915 108.236C49.3105 104.134 48.8618 102.895 44.9732 91.9341C42.8366 85.8662 40.6146 80.2256 37.8584 73.8372C36.0636 69.6708 36.0636 69.6708 37.2601 69.0299C42.3666 66.2737 46.191 61.9364 48.6695 56.1035C53.9255 43.754 50.8488 22.9864 44.0972 25.1016ZM49.9942 129.068C55.6775 143.34 56.3398 160.989 51.383 166.629C48.0712 170.411 46.2551 156.993 47.3875 136.909C47.6012 133.469 47.7508 129.132 47.7508 127.295C47.7721 123.513 47.7935 123.534 49.9942 129.068Z" fill="black"/>
</svg>
