<svg width="95" height="264" viewBox="0 0 95 264" fill="none" xmlns="http://www.w3.org/2000/svg">
<path d="M50.1421 0.330757C45.6126 0.907636 40.4634 2.76647 38.455 4.5612C34.7373 7.87291 34.8014 15.9492 38.5404 15.9492C40.3352 15.9492 40.8052 15.3296 41.2753 12.2743C41.7026 9.62492 42.6 8.57799 45.3562 7.50969C46.6595 6.99691 51.2959 5.65086 51.7659 5.65086C51.8514 5.65086 52.0223 6.4414 52.1719 7.40286C52.9624 12.9794 57.5134 13.1076 57.5134 7.57379C57.5134 1.76227 55.3981 -0.331585 50.1421 0.330757Z" fill="black"/>
<path d="M48.9468 15.0471C32.8583 17.9529 30.8285 20.8586 31.5336 39.8529C31.7045 44.5961 31.9182 52.181 31.9823 56.7106C32.4096 85.9605 32.666 88.3748 35.3367 88.8663C38.0929 89.379 38.3066 88.6312 38.392 78.3329C38.4134 73.6751 38.5843 65.1928 38.7339 59.5095C38.9475 51.2196 38.9475 47.2669 38.7339 39.4256C38.4134 27.1829 38.563 25.7728 40.4645 24.5122C43.9685 22.1833 53.7755 19.8758 55.6129 20.9655C57.7495 22.226 58.3478 30.922 57.7068 51.3691C56.7026 83.9307 57.3008 91.4729 60.8262 90.8105C63.6465 90.2764 63.732 89.2722 64.0525 48.0574C64.2875 16.4573 62.5141 12.59 48.9468 15.0471Z" fill="black"/>
<path d="M49.2876 48.3167C44.0316 49.5346 41.5745 51.9916 41.3181 56.2862C40.8267 65.153 53.0693 65.7513 55.9965 56.9912C57.663 52.013 53.9667 47.227 49.2876 48.3167Z" fill="black"/>
<path d="M28.8831 94.5076C20.4435 97.1997 10.5511 106.473 5.91473 116.002C-0.131817 128.394 -0.900989 141.662 2.60302 173.69C4.20546 188.432 4.20546 188.432 4.18409 197.94C4.18409 205.525 4.09863 207.704 3.50038 215.674C1.34243 244.646 2.56028 251.141 11.2776 256.76C22.8151 264.217 58.7526 266.289 76.2085 260.521C95.3096 254.196 99.5187 241.078 89.5408 219.092C84.9471 208.965 83.5584 204.179 82.5755 195.376C82.1055 191.06 82.0414 175.271 82.4687 168.775C82.8106 163.648 83.4729 155.059 83.9002 150.614C85.9941 127.86 86.0368 119.954 84.0498 113.117C81.6354 104.827 76.5504 100.105 68.239 98.3962C57.2142 96.1314 53.5179 102.413 64.3504 104.998C75.9521 107.776 79.0929 112.391 79.1784 126.898C79.1997 132.325 79.0929 134.205 77.8109 149.653C74.4138 190.376 75.2898 201.273 83.4088 220.267C88.2802 231.613 89.2844 236.078 88.1948 241.419C85.5027 254.688 64.0086 260.499 33.2631 256.247C10.6152 253.128 9.09825 250.436 11.6835 217.81C13.3928 196.188 13.286 190.718 10.7221 171.339C6.94029 142.837 7.06849 131.428 11.3417 120.595C14.6961 112.006 22.9006 103.289 31.8102 98.8235C36.0193 96.7297 33.4981 93.012 28.8831 94.5076Z" fill="black"/>
<path d="M43.7113 141.129C31.1695 141.812 24.3324 143.906 24.9093 146.919C25.2512 148.735 28.1142 149.205 34.3317 148.478C52.4713 146.32 63.6029 146.641 64.9063 149.376C66.3164 152.367 63.4107 175.357 60.7399 182.279C58.0265 189.287 51.7235 191.467 39.1817 189.715C25.358 187.792 22.9864 183.177 23.136 158.52C23.1787 149.953 23.0078 149.226 20.8284 149.226C18.2859 149.226 17.944 150.487 17.5808 160.977C16.6621 186.852 21.619 194.031 41.4893 195.612C62.2569 197.257 68.3675 188.881 70.5682 155.7C71.4015 142.945 65.825 139.911 43.7113 141.129Z" fill="black"/>
<path d="M44.5871 158.35C44.117 158.393 42.1727 158.628 40.2712 158.842C38.3696 159.077 35.8271 159.269 34.6519 159.269C31.5966 159.269 30.3574 160.145 30.7206 162.025C31.1266 164.076 33.4341 164.461 40.9976 163.777C43.8393 163.521 47.8774 163.222 49.9713 163.136C54.0094 162.965 54.7786 162.773 55.4623 161.79C57.3853 159.055 52.5138 157.517 44.5871 158.35Z" fill="black"/>
<path d="M39.6084 172.105C36.5318 173.622 36.0403 178.301 38.7111 180.694C43.8175 185.309 52.2784 178.792 47.7275 173.75C45.9755 171.806 41.8732 170.994 39.6084 172.105Z" fill="black"/>
</svg>
