<svg width="254" height="313" viewBox="0 0 254 313" fill="none" xmlns="http://www.w3.org/2000/svg">
<path d="M148.453 0.861982C114.054 1.67389 77.0054 11.0321 69.2069 20.8818C56.4087 37.0344 84.8681 57.9516 124.737 61.6907C156.38 64.6819 204.645 58.1653 204.645 50.9009C204.645 48.4224 202.06 48.2515 192.68 50.1317C140.911 60.5796 96.9184 56.1355 78.5651 38.5941C66.4721 27.0352 73.3305 19.899 102.837 13.2115C133.305 6.31028 161.272 5.51974 188.194 10.7758C202.615 13.5961 241.373 26.1592 245.625 29.4068C246.736 30.2614 244.877 31.6289 235.092 37.2481C221.567 44.9825 218.319 47.0337 212.764 51.4564C202.701 59.4686 196.954 68.3782 200.628 70.2797C202.252 71.113 203.321 70.5361 205.543 67.5663C210.948 60.366 218.127 55.0031 235.305 45.3671C251.031 36.543 253.808 34.0859 253.509 29.4068C253.21 24.4927 249.663 22.3561 233.596 17.3564C230.199 16.2882 222.977 14.002 217.572 12.25C191.441 3.76774 169.755 -0.0140197 151.658 0.755152C151.124 0.776518 149.692 0.81925 148.453 0.861982Z" fill="black"/>
<path d="M129.864 14.1892C112.793 15.0011 99.247 17.6932 96.4267 20.834C93.5851 23.9534 97.0464 25.3422 103.905 23.8252C121.51 19.9153 144.671 19.2529 168.964 21.9878C175.951 22.7569 190.885 24.9149 193.962 25.5986C194.261 25.6627 194.838 25.7482 195.244 25.8123C195.65 25.8764 196.227 25.9618 196.526 26.0259C197.081 26.1328 197.722 26.261 198.769 26.4746C206.482 27.9275 216.46 30.4487 216.033 30.8546C214.281 32.4784 191.761 37.9908 177.724 40.2342C171.934 41.1743 172.682 45.6184 178.557 45.298C195.436 44.3579 222.592 36.9866 225.113 32.6494C227.677 28.2052 222.55 25.2354 206.034 21.5391C180.758 15.9199 151.914 13.1209 129.864 14.1892Z" fill="black"/>
<path d="M91.0865 27.5017C85.916 29.7879 87.0697 36.4113 93.1377 39.3384C107.282 46.1755 155.654 50.5555 158.496 45.2568C159.906 42.6288 157.15 41.8596 145.463 41.6459C120.529 41.1759 91.5993 35.6849 94.1205 31.8817C95.8939 29.211 93.8427 26.2839 91.0865 27.5017Z" fill="black"/>
<path d="M33.1844 44.8343C21.4545 47.0777 13.3141 54.919 7.48123 69.5119C-8.73548 110.15 4.51137 168.265 33.5903 184.119C42.5213 188.969 46.3671 184.396 37.8208 179.076C13.1218 163.757 0.986001 121.239 10.4297 83.0151C17.6087 53.8934 33.804 44.407 54.9776 56.9274C63.1821 61.7561 72.4335 71.9263 73.3736 77.0968C73.9719 80.494 78.1169 80.2589 78.5228 76.7977C79.4202 69.106 66.5152 54.2139 53.7384 48.2528C47.0722 45.1334 38.7609 43.7446 33.1844 44.8343Z" fill="black"/>
<path d="M84.2709 55.6204C83.5872 56.4323 83.4163 57.3937 83.5872 59.2098C85.7024 81.4303 81.707 99.0572 65.2339 140.443C55.8756 163.945 52.2221 172.043 44.274 186.85C36.1763 201.913 33.0141 209.861 31.3476 219.176C25.6643 251.225 54.145 273.937 107.859 280.154C147.877 284.791 179.456 282.547 200.501 273.531C233.191 259.579 257.035 224.283 252.335 196.849C250.369 185.311 247.164 178.709 234.131 159.159C214.667 129.974 207.338 111.449 204.646 84.5711C203.941 77.3922 203.471 76.3453 200.95 76.3453C192.746 76.3453 199.839 112.283 213.171 138.199C216.825 145.272 220.414 151.147 227.935 162.236C237.934 177 241.289 182.982 243.596 190.119C253.296 220.159 226.675 259.024 188.836 270.091C159.735 278.595 98.5006 276.116 71.0454 265.284C34.8302 251.033 28.6128 229.71 49.4232 190.973C58.1832 174.628 62.3068 165.505 73.8016 136.875C89.3133 98.1812 92.9455 79.9347 89.0355 60.0431C88.6937 58.3125 88.2663 56.6032 88.1168 56.2827C87.369 54.8298 85.2537 54.4666 84.2709 55.6204Z" fill="black"/>
<path d="M171.635 69.164C163.409 71.1938 158.816 92.6024 162.897 109.845C164.627 117.13 169.648 116.105 168.494 108.712C166.785 97.7516 169.114 79.1632 172.597 76.0225C173.772 74.9755 175.887 78.8428 177.618 85.2098C179.626 92.6238 184.818 92.4101 184.027 84.932C183.173 76.813 179.007 70.1468 174.135 69.0999C172.832 68.8222 173.024 68.8222 171.635 69.164Z" fill="black"/>
<path d="M99.7821 76.7299C94.3551 78.6742 88.9923 89.1863 92.2399 91.4938C94.0133 92.7544 95.402 91.857 97.09 88.353C100.829 80.5972 102.624 81.4945 102.624 91.0878C102.602 96.5148 102.56 97.0489 101.107 108.287C99.6325 119.59 99.9103 122.068 102.602 122.068C105.059 122.068 106.555 118.137 108.051 107.646C111.277 85.2763 108.179 73.7387 99.7821 76.7299Z" fill="black"/>
<path d="M136.104 80.1923C128.369 81.7948 120.528 104.528 123.241 117.412C124.374 122.732 128.348 120.403 128.369 114.42C128.39 103.844 133.198 88.4823 137.172 86.3671C139.65 85.0424 143.133 95.1698 145.547 110.81C146.701 118.16 147.94 121.215 149.842 121.215C153.068 121.215 153.111 110.938 149.927 98.2465C146.573 84.8287 142.065 78.9745 136.104 80.1923Z" fill="black"/>
<path d="M44.4019 81.6867C13.1436 85.5326 11.5198 121.919 41.0048 158.39C44.9574 163.304 46.5385 164.245 48.4615 162.877C50.2348 161.617 49.6152 159.33 46.1112 154.224C39.2741 144.139 36.9452 140.614 35.8128 138.627C25.1513 119.633 23.6557 102.048 31.967 93.9294C39.2314 86.8573 55.5549 86.0881 63.0544 92.4552C68.0967 96.7283 71.0025 92.0919 66.131 87.5196C61.5587 83.2678 52.1791 80.7466 44.4019 81.6867Z" fill="black"/>
<path d="M186.1 129.442C185.587 129.592 183.856 130.403 182.254 131.215C169.028 137.967 147.705 142.026 122.921 142.497C110.507 142.753 97.5594 141.791 93.158 140.317C87.1542 138.309 86.9405 143.052 92.9443 145.424C115.913 154.568 178.942 147.154 189.176 134.121C191.975 130.574 190.351 128.117 186.1 129.442Z" fill="black"/>
<path d="M140.442 166.189C128.263 168.903 118.67 193.602 115.337 230.821C113.585 250.478 114.034 256.909 117.11 256.888C119.375 256.866 119.653 256.033 120.251 247.38C123.606 198.559 136.639 162.215 146.253 174.928C152.044 182.62 155.291 199.755 158.069 237.658C159.479 256.802 160.163 259.879 163.132 259.879C166.081 259.879 166.166 256.973 164.051 230.287C160.291 183.026 153.069 163.391 140.442 166.189Z" fill="black"/>
<path d="M196.419 168.347C182.724 171.381 181.912 195.375 194.304 231.676C199.624 247.294 202.273 251.61 204.987 249.153C206.162 248.106 205.97 247.059 203.47 240.115C193.065 211.314 189.326 184.051 194.795 176.851C199.709 170.377 213.939 179.607 225.925 197.063C231.844 205.674 236.95 203.857 232.143 194.841C223.447 178.539 206.632 166.083 196.419 168.347Z" fill="black"/>
<path d="M82.8818 171.526C74.314 173.406 59.1015 192.743 50.9398 212.164C47.8203 219.642 47.5639 222.035 49.8287 222.911C51.5166 223.552 52.3926 222.697 54.5292 218.36C64.3575 198.426 82.2408 175.543 85.3816 178.897C89.6547 183.491 87.1977 212.378 80.1469 240.218C77.9676 248.807 78.1385 251.969 80.7665 251.969C84.7192 251.969 88.501 241.286 91.7059 220.988C97.1755 186.397 94.0989 169.112 82.8818 171.526Z" fill="black"/>
<path d="M87.5609 282.44C85.8302 283.914 83.95 289.448 83.7791 293.678C83.2449 305.857 91.4495 310.215 118.221 312.01C119.994 312.117 122.387 312.288 123.562 312.373C143.091 313.826 167.811 310.045 175.717 304.404C181.913 300.003 184.647 288.422 180.332 284.876C177.597 282.632 175.717 284.726 175.952 289.79C176.293 297.481 172.96 300.729 161.978 303.442C147.364 307.032 127.836 307.438 107.73 304.532C90.7444 302.096 87.8813 298.998 91.1076 286.628C92.1545 282.611 90.1675 280.26 87.5609 282.44Z" fill="black"/>
<path d="M103.798 284.725C102.196 285.281 99.5036 291.626 99.8668 294.019C100.657 299.318 105.016 296.583 106.918 289.597C107.986 285.751 106.683 283.742 103.798 284.725Z" fill="black"/>
<path d="M119.95 288.404C118.049 290.305 118.455 299.108 120.506 300.176C123.689 301.821 125.655 296.181 124.181 289.728C123.775 287.955 121.211 287.143 119.95 288.404Z" fill="black"/>
<path d="M156.935 288.295C155.76 289.235 155.696 290.624 156.7 294.598C157.918 299.427 162.127 300.11 162.127 295.474C162.127 290.047 159.435 286.329 156.935 288.295Z" fill="black"/>
<path d="M138.732 290.088C136.531 292.289 138.539 300.087 141.402 300.408C144.201 300.728 144.693 298.314 143.09 292.289C142.385 289.682 140.227 288.592 138.732 290.088Z" fill="black"/>
</svg>
