<svg width="247" height="154" viewBox="0 0 247 154" fill="none" xmlns="http://www.w3.org/2000/svg">
<path d="M145.994 0.22569C123.431 0.95213 101.51 4.62706 72.6447 12.5324C52.6248 18.0021 38.1174 23.3008 31.8785 27.4458C29.742 28.856 29.6138 31.719 31.6435 32.2532C32.8614 32.595 33.6946 32.36 36.8782 30.843C55.2528 22.1044 101.916 10.2036 127.982 7.59692C197.614 0.610276 232.611 20.0532 238.23 68.8957C241.414 96.6072 237.931 107.974 221.479 123.721C206.267 138.271 194.11 143.484 169.646 145.898C147.404 148.12 135.14 147.928 106.082 144.958C56.9835 139.937 30.2761 127.203 12.3288 100.197C2.62864 85.6251 5.96172 66.2463 21.7297 45.5214C29.2505 35.629 23.6954 33.3855 15.8328 43.1498C0.38522 62.3577 -3.52474 85.9029 5.98308 102.483C18.3326 123.956 37.0918 137.01 67.3032 145.151C83.6267 149.531 96.5317 151.389 124.884 153.44C130.012 153.804 150.822 153.804 156.185 153.44C194.281 150.812 206.972 146.539 224.407 130.429C240.474 115.623 246.136 103.829 246.136 85.2406C246.136 28.45 213.937 -0.928068 152.767 0.0333967C151.763 0.0547626 148.729 0.140226 145.994 0.22569Z" fill="black"/>
<path d="M131.999 9.41308C131.016 9.9686 130.696 11.571 131.081 13.8786C131.23 14.8828 131.422 16.357 131.508 17.1903C131.999 22.254 136.743 21.1857 136.743 16.0151C136.743 11.4001 134.328 8.04567 131.999 9.41308Z" fill="black"/>
<path d="M190.521 13.3221C184.411 15.48 178.514 24.4537 182.21 25.992C183.471 26.5048 184.411 26.0989 185.436 24.6033C187.081 22.2103 190.265 19.5396 193.213 18.1294C198.277 15.7151 195.863 11.4419 190.521 13.3221Z" fill="black"/>
<path d="M132.79 22.1267C131.743 22.1695 127.556 22.2977 123.496 22.4259C107.878 22.9173 103.605 23.6864 93.7976 27.8101C77.6663 34.6044 73.265 36.1427 61.2146 39.1981C42.7331 43.8772 37.0925 48.1717 33.8876 60.0298C29.529 76.2252 33.9517 94.5998 44.9979 105.966C47.0063 108.039 47.0063 108.039 45.7671 108.189C41.9426 108.616 38.4599 112.932 37.6053 118.316C36.772 123.337 41.6862 124.363 43.1391 119.491C44.1432 116.137 45.532 113.915 48.0532 111.671C48.5446 111.222 48.7155 110.881 48.7155 110.325C48.7155 109.406 48.6728 109.406 50.1471 110.539C55.1253 114.385 63.2016 118.124 71.3634 120.367C74.9101 121.329 76.6194 121.713 79.3329 122.098C85.2085 122.91 87.5801 123.059 96.041 123.059C109.266 123.059 119.907 123.551 138.88 124.982C154.028 126.115 163.621 125.196 180.436 120.987C200.584 115.944 204.922 112.718 210.883 98.2748C211.737 96.2236 213.831 91.6513 215.519 88.126C233.338 51.0989 226.245 37.8734 183.748 28.8356C175.864 27.1691 169.881 25.8444 164.861 24.6479C158.387 23.1309 156.186 23.4728 156.186 25.9726C156.186 28.5579 160.31 30.0107 178.086 33.6429C215.519 41.3347 222.548 48.535 215.455 71.9092C214.301 75.7337 213.19 78.3404 210.156 84.2801C207.122 90.1771 205.776 93.1469 203.896 97.9543C199.345 109.62 193.747 112.718 168.792 117.269C156.229 119.577 149.99 119.812 135.782 118.615C120.441 117.312 111.595 116.842 102.13 116.842C98.1989 116.842 92.6225 116.735 89.7381 116.628C54.8903 115.346 35.1696 95.5399 39.1864 65.9054C40.9384 53.0645 44.7201 49.7528 62.9666 45.1805C75.017 42.1679 80.508 40.2877 94.3317 34.4335C105.121 29.8825 107.322 29.4552 122.214 28.8356C136.551 28.2374 143.559 27.2332 144.371 25.6094C145.93 22.5968 143.089 21.7421 132.79 22.1267Z" fill="black"/>
<path d="M58.2224 25.0324C55.808 26.3571 56.855 28.7287 60.1667 29.4765C63.0938 30.1389 64.8458 31.1003 66.491 32.8951C68.5207 35.0957 70.2941 35.5872 71.3838 34.1984C72.9007 32.2968 70.6146 28.3655 66.8969 26.4853C64.5039 25.2888 59.3334 24.4128 58.2224 25.0324Z" fill="black"/>
<path d="M139.2 31.7003C136.572 34.4351 138.175 39.0715 141.358 38.0246C142.255 37.7255 142.661 37.1486 142.854 35.888C142.939 35.3539 143.238 34.6274 143.516 34.2642C145.567 31.5294 141.615 29.1791 139.2 31.7003Z" fill="black"/>
<path d="M130.825 31.5054C130.184 31.9541 130.013 32.5951 129.286 37.5947C127.748 47.7862 127.342 52.1022 127.342 57.7214C127.342 60.0503 127.299 61.9518 127.235 61.9518C127.171 61.9518 125.184 60.969 122.791 59.7511C113.903 55.2216 109.437 53.5764 91.6395 48.299C83.5846 45.906 82.2172 45.7779 81.6403 47.423C80.807 49.8374 81.1062 50.0083 94.8872 54.7943C107.536 59.1956 111.916 60.9904 119.864 65.0072C122.385 66.2891 124.543 67.4001 124.628 67.507C125.205 68.0411 112.535 74.3227 99.4167 80.0274C85.7212 85.9671 70.466 93.552 69.2908 94.9835C68.2653 96.2654 68.6285 97.8679 70.06 98.2952C71.171 98.6371 72.0898 98.3379 76.3202 96.2014C82.4736 93.146 88.1996 90.689 99.8868 86.0953C111.766 81.4375 118.603 78.3608 126.231 74.2372C128.026 73.2758 128.88 72.9125 128.923 73.1048C128.966 73.2544 129.179 74.3013 129.372 75.4123C129.927 78.7027 131.231 83.7664 133.752 92.3982C135.055 96.8637 136.508 102.056 136.978 103.936C138.901 111.67 139.649 112.845 142.106 112.162C144.52 111.457 144.328 109.555 140.461 95.2826C137.213 83.3818 134.756 73.0621 135.055 72.763C135.119 72.6989 135.974 72.9766 136.978 73.4039C146.657 77.4848 171.548 83.9587 190.222 87.2704C196.226 88.3387 198.148 87.8259 198.148 85.1552C198.148 82.2281 195.627 81.2666 181.077 78.6172C164.711 75.6687 149.434 71.8015 140.589 68.4043C139.008 67.7847 139.008 67.7847 143.153 65.755C154.541 60.2212 170.416 47.7008 171.206 43.6199C171.591 41.7183 170.651 40.5859 168.728 40.5859C167.232 40.5859 167.339 40.5218 162.98 44.3463C156.293 50.222 147.917 56.183 142.554 58.9179C139.2 60.6271 133.709 63.0629 133.559 62.8919C133.282 62.6142 133.474 50.2006 133.816 46.2479C134.264 41.0774 134.628 33.7489 134.478 32.937C134.179 31.3986 132.107 30.6081 130.825 31.5054Z" fill="black"/>
<path d="M148.643 33.1322C147.425 33.8372 147.639 36.9566 148.878 36.9566C150.908 36.978 152.425 37.7045 152.895 38.9009C154.198 42.1058 158.044 40.6316 157.574 37.1062C157.168 33.9227 151.549 31.4442 148.643 33.1322Z" fill="black"/>
<path d="M103.561 34.1936C99.8649 34.685 97.3651 36.5225 97.7284 38.5095C98.0488 40.2188 99.6727 40.6675 102.279 39.7487C103.604 39.3 105.976 39.1291 105.976 39.4923C105.976 39.5992 105.826 40.0479 105.634 40.4965C104.159 44.0005 108.411 45.9662 110.334 42.6759C113.24 37.6762 109.821 33.4031 103.561 34.1936Z" fill="black"/>
<path d="M146.87 39.9255C144.583 41.3783 143.921 43.2372 145.246 44.4764C146.421 45.566 147.852 45.4165 149.711 43.985C153.386 41.1433 150.801 37.4256 146.87 39.9255Z" fill="black"/>
<path d="M119.095 40.1169C113.668 41.9971 111.766 48.3641 115.484 52.1245C119.928 56.6113 125.034 56.2054 124.222 51.4194C123.987 49.9452 124.073 47.8513 124.436 47.3385C127.107 43.2363 123.645 38.5572 119.095 40.1169Z" fill="black"/>
<path d="M99.5015 41.6091C97.2367 43.1474 97.194 46.2241 99.4161 46.6514C101.98 47.1429 104.501 43.7243 102.963 41.8868C102.365 41.1604 100.378 41.0108 99.5015 41.6091Z" fill="black"/>
<path d="M139.273 45.5504C136.346 46.3195 133.824 49.7595 134.359 52.3234C134.423 52.6011 134.508 53.0712 134.572 53.3703C135.085 55.8274 138.845 55.3787 139.273 52.7934C139.7 50.1868 141.132 49.6526 142.948 51.4046C145.063 53.4344 147.819 51.7251 147.05 48.8835C146.345 46.3409 142.499 44.6957 139.273 45.5504Z" fill="black"/>
<path d="M177.402 46.7593C170.971 48.5968 167.574 55.1133 171.27 58.5319C173.599 60.6685 176.868 61.0744 181.312 59.7925C182.102 59.5575 182.338 59.5788 183.555 60.0702C186.953 61.4377 189.089 61.3095 190.606 59.6643C195.243 54.6647 184.944 44.6013 177.402 46.7593Z" fill="black"/>
<path d="M139.871 52.9468C138.354 53.9937 139.016 57.2627 140.832 57.7541C142.926 58.3096 144.208 56.8995 143.738 54.5706C143.396 52.9041 141.217 52.0067 139.871 52.9468Z" fill="black"/>
<path d="M78.905 54.6661C76.5761 56.354 76.3838 57.8283 77.6658 63.3407C78.4349 66.6737 81.1911 68.1053 83.7764 66.5028C85.7634 65.2636 85.2079 62.1655 82.9859 62.1655C82.3663 62.1655 82.2381 62.0801 82.1312 61.5673C82.0671 61.2468 81.8748 60.4349 81.7039 59.7512C81.3834 58.5333 81.3834 58.5333 82.1526 57.7855C84.4174 55.4994 81.533 52.7645 78.905 54.6661Z" fill="black"/>
<path d="M63.8427 55.7574C59.3131 56.8898 56.7706 59.3255 55.2322 64.0901C54.4417 66.4831 54.0571 67.2309 52.3478 69.6452C48.1387 75.6063 48.0319 79.0676 51.9419 82.9135C59.014 89.9215 70.1029 87.1225 64.8469 79.6659C62.7744 76.7174 64.5264 70.8845 68.9277 66.2053C76.1494 58.4923 73.6496 53.3644 63.8427 55.7574Z" fill="black"/>
<path d="M162.275 57.2741C160.245 58.5133 160.501 60.9276 162.83 62.2309C164.262 63.0429 165.928 66.3546 164.625 65.7991C164.134 65.5854 163.428 65.3504 163.022 65.2649C158.942 64.4316 159.283 64.7521 160.138 62.4232C161.506 58.6415 157.104 57.7868 155.288 61.4831C153.194 65.7136 154.797 68.5125 159.967 69.6235C162.253 70.115 163.087 70.5209 164.86 71.9311C171.697 77.4648 178.15 70.4995 171.868 64.3675C170.266 62.8078 169.774 62.1882 169.432 61.2481C168.3 58.2569 164.326 56.0348 162.275 57.2741Z" fill="black"/>
<path d="M200.327 61.6053C196.524 63.0154 195.968 70.0662 199.664 70.0662C200.839 70.0662 201.886 69.1474 202.314 67.7159C202.634 66.669 203.831 66.6049 206.266 67.5236C209.172 68.5919 209.065 73.5915 206.117 75.0658C203.681 76.2837 202.015 76.1341 201.673 74.6385C201.139 72.2882 200.412 71.7541 195.712 70.4935C193.896 70.0021 192.4 69.5748 192.379 69.5534C191.887 68.9338 192.165 68.3996 193.041 68.2928C196.374 67.8228 196.203 64.3188 192.785 63.5282C188.276 62.4599 186.353 64.0624 186.93 68.3142C187.571 73.0574 187.934 73.5488 191.609 74.553C196.823 75.9632 196.289 75.6854 196.438 76.9674C197.4 84.2959 210.86 82.4157 212.933 74.6598C213.894 71.0917 212.847 66.1349 210.732 64.2974C208.51 62.3317 202.527 60.7934 200.327 61.6053Z" fill="black"/>
<path d="M93.7965 62.2119C90.2925 63.558 88.4337 67.7884 90.2711 70.1814C92.6855 73.3436 100.42 73.2154 100.42 69.9891C100.42 68.2157 99.5012 67.6602 96.9159 67.8525C94.2452 68.0448 94.2879 67.1261 97.0014 66.3356C98.9884 65.7373 99.6935 63.4084 98.262 62.1478C97.5996 61.571 95.3776 61.6137 93.7965 62.2119Z" fill="black"/>
<path d="M101.382 63.1876C98.0702 64.2559 99.2881 68.1231 102.835 67.8667C103.796 67.7813 105.078 67.7172 105.698 67.7172C108.005 67.7172 109.01 65.3028 107.343 63.7431C106.574 63.0167 102.963 62.6962 101.382 63.1876Z" fill="black"/>
<path d="M81.9381 74.1077C80.7843 74.6418 79.887 75.5392 79.1605 76.7998C77.4299 79.8551 76.8103 79.9619 73.3704 77.8681C69.204 75.3683 65.7641 79.3637 69.3963 82.4831C74.3959 86.7563 80.2715 86.1153 83.7115 80.8807C84.5661 79.6201 84.8225 79.3637 85.3566 79.2996C88.2197 79.0646 89.0957 78.4663 89.0957 76.7998C89.0957 74.4068 84.7157 72.7616 81.9381 74.1077Z" fill="black"/>
<path d="M150.78 80.1344C145.075 81.4805 143.323 87.9757 147.084 93.7872C149.156 96.9921 149.22 97.1844 149.242 100.411C149.263 105.41 151.442 107.162 155.993 105.838C160.8 104.427 160.33 96.0948 155.074 90.2832C153.792 88.8517 153.792 88.8517 154.668 87.8048C158.044 83.788 155.609 79.002 150.78 80.1344Z" fill="black"/>
<path d="M122.321 83.3407C120.612 84.8576 120.868 88.2121 122.791 89.024C123.56 89.3231 124.458 89.2163 125.013 88.7249C125.334 88.4685 125.462 88.5539 126.146 89.6222C129.842 95.1774 128.218 101.331 122.278 104.429C119.843 105.689 119.8 105.583 121.851 103.403C126.402 98.6386 127.492 90.6264 123.603 90.5837C122.022 90.5837 121.338 91.4383 120.954 93.9168C120.505 96.9294 119.971 97.8481 116.894 101.117C108.796 109.685 113.262 114.684 124.287 109.386C130.504 106.373 133.324 101.438 133.047 94.0022C132.769 86.5883 126.146 79.9862 122.321 83.3407Z" fill="black"/>
<path d="M223.382 84.1482C220.754 84.7892 219.643 87.3959 221.374 88.8915C221.886 89.3402 221.929 89.3402 224.557 89.3829C226.822 89.4043 228.446 90.1093 230.54 91.9468C233.296 94.3611 235.796 93.9125 235.753 90.9853C235.689 86.8831 228.531 82.909 223.382 84.1482Z" fill="black"/>
<path d="M104.907 86.7598C99.0532 89.9433 97.0876 92.0585 98.4977 93.7464C99.5233 94.9857 100.592 94.7934 104.651 92.5927C107.3 91.1612 107.3 91.1612 107.749 91.6312C108.048 91.9303 108.134 92.144 108.006 92.2508C102.856 95.7548 102.45 96.7804 104.352 101.289C104.587 101.844 103.091 102.699 101.062 103.169C100.057 103.425 98.4764 103.852 97.5576 104.13C95.2501 104.857 94.716 104.451 93.9041 101.374C92.8999 97.4641 93.2844 95.2207 95.0578 95.007C99.0105 94.537 98.2413 89.7724 94.2032 89.5587C88.8617 89.2596 86.4687 95.1993 88.6694 103.169C90.4855 109.707 93.7972 111.331 100.634 109.087C107.963 106.651 110.099 104.301 108.967 99.8998C108.732 98.9597 108.561 98.1905 108.582 98.1692C113.411 95.1352 114.928 92.0799 112.791 89.6442C109.33 85.7342 107.835 85.1787 104.907 86.7598Z" fill="black"/>
<path d="M220.006 87.0994C219.92 87.1636 219.856 87.3774 219.856 87.57C219.877 87.848 219.92 87.848 220.091 87.5272C220.327 87.1208 220.262 86.8213 220.006 87.0994Z" fill="black"/>
<path d="M177.83 89.6404C175.245 90.2172 175.565 93.8494 178.257 94.4263C180.373 94.875 182.039 96.3065 182.039 97.6953C182.039 99.0413 179.026 99.6396 178.514 98.4217C177.873 96.862 175.565 96.0288 171.677 95.9006C171.121 95.8792 171.377 95.7937 172.424 95.6869C177.039 95.1528 175.971 90.9009 171.249 90.9437C167.403 90.965 166.015 92.3966 166.015 96.3279C166.015 99.6823 166.613 100.195 170.972 100.622C173.792 100.9 174.027 100.964 174.39 101.776C175.95 105.045 184.112 104.447 186.227 100.9C189.303 95.7724 183.748 88.3584 177.83 89.6404Z" fill="black"/>
<path d="M143.516 129.55C142.79 130.234 142.619 130.96 142.918 132.178C143.388 134.037 143.452 136.494 143.068 138.459C142.021 143.651 146.785 144.848 148.259 139.763C149.969 133.909 146.593 126.687 143.516 129.55Z" fill="black"/>
</svg>
