<svg width="149" height="173" viewBox="0 0 149 173" fill="none" xmlns="http://www.w3.org/2000/svg">
<path fill-rule="evenodd" clip-rule="evenodd" d="M63.6874 16.5021C61.8874 16.1521 59.8874 14.8021 59.1374 13.1021C59.1091 12.4799 59.3048 11.8737 59.4982 11.2745C59.6467 10.8143 59.7939 10.3582 59.8374 9.90206C56.5374 8.90206 52.9374 5.95206 55.5874 2.40206C55.5526 2.36727 55.507 2.32978 55.4582 2.28961L55.4582 2.28958C55.2965 2.15656 55.099 1.99406 55.1374 1.80206C55.4124 1.57706 55.7124 1.35206 56.0124 1.12706C56.3124 0.90206 56.6124 0.67706 56.8874 0.45206C57.2592 -0.031238 57.8244 0.452942 58.2954 0.856399C58.4579 0.995561 58.6092 1.12512 58.7374 1.20206C59.2946 1.46738 58.7817 2.46479 58.2075 3.58171C57.6995 4.56965 57.1435 5.65108 57.2374 6.40206C57.0374 7.60206 57.3874 7.85206 58.5374 8.00206C61.0374 8.40206 63.6374 10.6021 62.7374 13.3021C63.1164 13.1872 63.506 13.0222 63.8994 12.8556C65.2188 12.2969 66.5819 11.7196 67.7374 12.9521C67.7919 12.9917 67.848 13.0319 67.9049 13.0727C68.4218 13.4433 69.0122 13.8665 69.2374 14.4521C67.5874 15.4021 65.6874 16.4521 63.6874 16.5021ZM81.1375 21.202C80.0874 23.952 81.3374 25.902 83.9874 26.952C84.2374 27.052 84.2875 26.852 84.1375 26.702C83.6857 25.8549 83.8558 24.9599 84.0264 24.0622C84.158 23.3702 84.2898 22.6766 84.1375 22.002C83.5375 20.202 81.2374 18.352 79.2874 18.952C79.1731 18.9935 79.0351 19.0308 78.8881 19.0704C78.3277 19.2216 77.6375 19.4078 77.6375 20.002C78.2374 20.902 79.2374 21.652 80.2874 21.952C80.3856 21.952 80.3767 21.9305 80.3588 21.8877C80.3493 21.8651 80.3374 21.8365 80.3374 21.802C80.4297 21.479 80.8199 21.3264 81.076 21.2261L81.1004 21.2166L81.1375 21.202ZM30.6873 47.852C32.3372 50.602 35.0872 53.402 38.4373 53.752C41.9373 53.752 44.9872 51.402 47.2872 48.952C47.5116 49.1315 47.7489 49.3352 47.9985 49.5495L47.9988 49.5498C49.1396 50.529 50.5375 51.729 52.1373 51.852C56.1046 52.3479 58.5471 48.1712 60.0991 45.5173L60.1373 45.452C61.6373 46.702 63.6872 47.102 65.5372 46.402C67.1872 45.802 68.6872 44.852 70.0372 43.752C74.5372 40.752 77.2372 34.752 73.3372 30.152C70.9372 26.952 67.6372 23.652 63.5372 22.902C60.8132 22.7418 58.3139 23.8333 55.8335 24.9164L55.8334 24.9164L55.8334 24.9165L55.8333 24.9165L55.8333 24.9165L55.8332 24.9165L55.8332 24.9165L55.8332 24.9165L55.8331 24.9166L55.8331 24.9166L55.833 24.9166L55.833 24.9166L55.8329 24.9166L55.8329 24.9166L55.8328 24.9167C55.2175 25.1854 54.6034 25.4536 53.9872 25.702C53.6434 25.7333 53.3386 25.4128 53.0363 25.0948L53.0362 25.0948C52.855 24.9042 52.6746 24.7145 52.4872 24.602C45.8872 18.202 35.3872 16.702 28.4872 23.452C26.3872 26.252 29.6873 29.102 31.6873 30.802C34.9 33.5306 39.1586 34.2837 43.2357 35.0046L43.2357 35.0046L43.2358 35.0046L43.2358 35.0046L43.2359 35.0046L43.236 35.0046L43.236 35.0046L43.2361 35.0046L43.2361 35.0046L43.2362 35.0047L43.2362 35.0047L43.2363 35.0047L43.2364 35.0047L43.2364 35.0047L43.2371 35.0048C43.7915 35.1029 44.3426 35.2003 44.8873 35.302C40.9873 38.752 35.0872 39.852 29.9872 38.902C24.5372 34.802 25.0372 37.902 29.0872 41.052C29.423 42.0369 29.5884 43.0719 29.7539 44.1077C29.9581 45.3856 30.1625 46.6646 30.6873 47.852ZM33.8701 47.4277C33.5992 45.7454 33.3287 44.0658 32.5374 42.552C38.0874 43.652 45.0374 42.502 48.9374 38.152C49.8874 36.952 48.6873 35.552 47.8373 34.702C45.6892 32.3525 42.6172 31.8506 39.5592 31.3509C38.0619 31.1063 36.5679 30.8622 35.1874 30.402C34.0874 30.102 33.0374 29.802 31.9874 29.302C31.6023 29.1309 31.7664 28.5569 31.8845 28.1443C31.9044 28.0747 31.923 28.0097 31.9374 27.952C36.3874 21.302 47.3374 20.502 52.9374 26.102C52.5159 26.3228 52.038 26.5033 51.5555 26.6855C50.8359 26.9573 50.106 27.233 49.5374 27.652C49.4874 27.852 49.6874 28.152 49.7874 28.302C50.7874 29.652 52.0874 31.002 53.6374 31.702C54.3372 31.5621 55.0057 31.2184 55.6779 30.8727C56.2064 30.601 56.7372 30.3281 57.2874 30.152C57.312 30.1767 57.3563 30.2223 57.4166 30.2844C58.09 30.9785 60.7668 33.737 60.5374 32.452C60.1233 31.7832 59.5469 31.236 58.9763 30.6943C58.6511 30.3856 58.3277 30.0787 58.0374 29.752C58.7229 29.4641 59.401 29.1423 60.0808 28.8196L60.0809 28.8196L60.081 28.8196L60.081 28.8196L60.0811 28.8195L60.0811 28.8195L60.0812 28.8195L60.0812 28.8195L60.0813 28.8194C61.8803 27.9657 63.6917 27.106 65.6874 26.852C70.1374 25.652 72.5374 31.052 70.9374 34.602C68.8374 38.752 64.5373 42.552 59.8373 43.052C59.7411 42.9645 59.6003 42.8172 59.4302 42.6391L59.4302 42.6391C58.6284 41.7999 57.1736 40.2771 56.6374 41.102C55.1874 44.002 53.0374 47.152 49.6874 47.852C49.6217 47.8356 49.4968 47.8677 49.3621 47.9023C49.0865 47.9731 48.7702 48.0543 48.8373 47.752C48.7228 47.2177 49.0162 46.829 49.3172 46.4303C49.4105 46.3067 49.5045 46.1822 49.5873 46.052C50.7872 44.2984 48.3666 42.6299 46.9251 41.6364L46.9249 41.6362C46.8047 41.5533 46.6913 41.4752 46.5873 41.402C45.7483 41.0046 45.3773 42.0503 45.1298 42.7478C45.0971 42.84 45.0665 42.9261 45.0374 43.002C42.6374 46.302 38.6374 49.752 34.2874 49.702C34.1158 48.9535 33.9929 48.1903 33.8701 47.4277ZM88.0374 62.802C87.6374 68.902 88.5375 77.202 95.4375 79.102C104.287 76.402 101.937 53.902 98.3374 47.452C97.928 46.6332 97.4954 46.1403 97.232 45.8403C97.0608 45.6452 96.9612 45.5317 96.9859 45.4632C97.0204 45.3676 97.2964 45.3594 97.9568 45.3396L97.9571 45.3396C98.2311 45.3314 98.5711 45.3212 98.9874 45.302C103.587 44.702 113.537 41.502 113.387 35.902C112.287 32.152 108.587 29.552 105.187 27.952C99.9874 25.552 93.8874 26.502 89.2874 29.802C85.7874 32.202 82.7374 35.602 81.5374 39.752C81.3021 40.9678 82.3897 41.9067 83.3522 42.7377C83.6167 42.9661 83.8718 43.1864 84.0874 43.402C85.9225 44.9701 86.021 44.4677 86.2399 43.3507C86.3491 42.7937 86.4882 42.084 86.8875 41.402C89.7375 34.952 96.7374 29.452 104.037 30.202C119.487 32.502 101.587 42.002 95.0874 41.752C94.623 41.7836 94.192 41.7796 93.8222 41.7762C92.4401 41.7634 91.9124 41.7586 93.6875 43.652C98.8875 48.552 99.2875 70.752 92.6875 74.752C91.7792 71.6531 91.8843 68.3829 91.9885 65.1397C92.0794 62.3128 92.1696 59.5065 91.5874 56.852C90.9874 56.002 88.9874 53.252 87.7874 54.102C86.9791 55.2532 86.1707 56.6805 85.3859 58.0664L85.3857 58.0666L85.3854 58.0672L85.3854 58.0673C84.5684 59.5099 83.7769 60.9075 83.0374 61.902C81.7374 57.902 77.5375 55.602 73.4375 56.602C73.1391 56.6162 72.8367 56.6384 72.5337 56.6608C71.7704 56.717 71.0033 56.7735 70.2874 56.702C70.4201 56.2154 70.7093 55.6897 70.982 55.1941L70.982 55.194C71.0176 55.1295 71.0528 55.0654 71.0874 55.002C74.0374 50.052 81.0875 43.002 86.8875 47.802C87.4375 48.102 87.3374 47.602 87.0874 47.302C83.8374 42.702 78.1374 41.702 73.5874 45.102C70.8374 47.152 65.1875 51.752 66.4375 55.502C69.2875 60.502 73.6875 61.152 78.8875 60.052C78.9846 60.0681 79.1132 60.0424 79.2393 60.0171C79.5026 59.9644 79.7551 59.9139 79.6875 60.252C79.6411 62.0592 79.0794 63.7805 78.5198 65.4955L78.466 65.6604L78.3875 65.902C78.258 66.3088 78.108 66.7089 77.9577 67.1096C77.7018 67.7924 77.445 68.4773 77.2874 69.202C77.6374 70.852 79.2375 72.152 80.6375 72.952C82.4677 73.0596 84.6844 68.8914 86.363 65.7349C87.0231 64.4936 87.5999 63.4088 88.0374 62.802ZM46.7374 94.502C45.0874 96.902 45.1374 98.102 47.6374 99.802C52.3374 103.952 63.3874 89.252 60.7874 84.902C65.7874 80.852 68.4874 73.702 65.0374 67.802C61.7874 61.552 54.4874 57.702 47.7874 61.002C47.5596 61.084 47.3301 61.1643 47.1003 61.2448L47.0995 61.2451C46.068 61.6063 45.0275 61.9706 44.0873 62.502C44.4374 63.752 46.0374 64.752 47.2374 65.302C47.8927 65.0398 48.5542 64.7492 49.2225 64.4556L49.223 64.4554C51.869 63.2929 54.6235 62.0827 57.5374 62.402C60.7374 62.552 62.3874 65.502 63.1874 68.252C64.7874 72.752 62.7873 77.552 59.5873 80.852C59.189 81.239 58.9305 81.5301 58.7435 81.7407C58.505 82.0094 58.3829 82.147 58.235 82.1853C58.0798 82.2255 57.8963 82.1565 57.5202 82.0149C57.3017 81.9327 57.0181 81.826 56.6374 81.702C52.1874 81.752 55.6374 85.602 57.9374 86.152C56.3874 90.402 53.2374 94.052 49.5873 96.752C49.4143 96.8558 49.6485 96.4326 49.8257 96.1125C49.9045 95.9701 49.972 95.8482 49.9874 95.802C50.1707 95.3353 50.4207 94.8798 50.6707 94.4242C51.1707 93.5131 51.6707 92.602 51.6374 91.602C50.1874 89.752 49.0874 88.852 47.0374 90.552C45.7874 91.452 31.6874 100.752 32.8373 97.102C33.6759 94.9293 34.9504 92.9891 36.2177 91.0598L36.2179 91.0595L36.2182 91.0591L36.2192 91.0576C36.6137 90.4569 37.0076 89.8573 37.3874 89.252C37.5411 88.9701 37.731 88.685 37.9241 88.3949C38.4848 87.5528 39.0733 86.6689 38.8874 85.702C37.1015 82.3535 34.1805 83.3792 31.2987 84.3913C30.3077 84.7393 29.3214 85.0857 28.3874 85.252C26.8374 85.652 25.2374 86.002 23.6374 86.052C23.5041 86.052 23.4874 85.9853 23.5874 85.852C24.4844 84.1801 25.7473 82.7411 26.9963 81.3178C27.2788 80.9959 27.5607 80.6748 27.8374 80.352L28.1189 80.0662L28.119 80.0662C31.7786 76.3505 38.2778 69.7517 43.6374 71.652C43.7874 71.752 44.3374 72.002 44.1874 71.652C37.6374 62.802 25.5874 77.052 21.4374 82.602C19.2874 84.952 22.3374 87.352 24.4874 88.152C26.5693 88.6972 28.7495 88.1122 30.7843 87.5662L30.8374 87.552C32.3373 87.152 33.8207 86.7353 35.2874 86.302C35.4076 86.302 35.2206 86.5731 35.0414 86.8328C34.9226 87.005 34.8073 87.1722 34.7874 87.252L34.7873 87.2521C33.2873 89.5521 31.7873 91.852 30.5874 94.402C29.3374 96.402 30.6874 98.352 32.4874 99.402C36.0271 101.369 40.4332 98.5087 44.0263 96.1766L44.0263 96.1765L44.0265 96.1764C45.0011 95.5438 45.9159 94.9501 46.7374 94.502ZM64.4373 164.602C66.2873 167.802 68.7373 171.152 72.1873 172.752C72.2248 172.752 72.2654 172.758 72.3061 172.765C72.4279 172.783 72.5498 172.802 72.5873 172.652C72.5873 172.444 72.4137 172.201 72.2979 172.039C72.2748 172.006 72.254 171.977 72.2373 171.952C68.5373 168.302 67.3373 163.552 68.0873 158.452C68.6359 153.482 70.0849 148.49 71.8612 143.488C71.1143 148.215 71.1339 153.046 74.5373 156.652C77.0873 159.202 79.7873 161.902 83.0873 163.402C84.3587 163.275 82.3768 161.632 80.6742 160.221L80.6741 160.221C79.6986 159.412 78.8148 158.68 78.6873 158.352C75.9032 152.928 77.6814 144.37 78.934 138.341L78.9966 138.04L79.0873 137.602C80.1507 133.433 81.2664 128.662 82.0604 123.685C82.2088 124.324 82.3518 124.963 82.4874 125.602C83.0374 128.752 85.4374 131.552 88.4874 132.502C91.0654 132.807 93.0286 131.268 95.0076 129.716C96.5983 128.469 98.1991 127.214 100.137 126.902C100.256 126.902 100.391 126.891 100.534 126.879L100.534 126.879C100.992 126.841 101.52 126.797 101.787 127.102C102.237 127.727 102.662 128.377 103.087 129.026L103.087 129.027L103.088 129.027C103.513 129.677 103.938 130.327 104.387 130.952C106.787 134.152 110.187 137.502 114.387 137.752C117.166 137.655 119.528 136.222 121.89 134.788C123.182 134.003 124.475 133.218 125.837 132.652C125.903 132.626 125.973 132.597 126.047 132.567C127.095 132.141 128.893 131.411 129.687 132.252C133.537 136.352 137.587 139.352 143.337 139.652C144.537 139.702 142.037 137.352 141.437 136.902C140.292 135.733 138.715 135.52 137.139 135.308C135.412 135.075 133.688 134.842 132.537 133.352C125.828 125.906 123.006 127.618 118.198 130.535C116.485 131.574 114.52 132.767 112.037 133.752C110.537 134.102 108.487 134.402 107.737 132.752L107.699 132.694C105.359 129.209 102.764 125.345 98.5374 124.002C95.7854 123.557 93.7442 125.199 91.6837 126.856C90.038 128.18 88.3799 129.513 86.3374 129.802C85.59 128.245 85.1723 126.377 84.7582 124.526L84.7582 124.526C84.5075 123.404 84.258 122.289 83.9374 121.252C83.852 121.024 83.7773 120.787 83.708 120.545C84.0945 120.696 84.4292 120.771 84.6872 120.752C89.6872 121.302 95.2872 120.452 99.3372 117.302C101.937 115.202 102.437 112.602 99.9372 110.152C98.0872 108.152 95.8872 106.052 93.0872 105.452C90.1856 105.034 87.6666 106.16 85.466 107.88C85.4711 106.439 85.3348 104.933 85.0374 103.352C84.7783 100.988 84.2884 98.6654 83.7988 96.3442L83.7988 96.3441C83.5325 95.0819 83.2664 93.8201 83.0374 92.552C82.8374 90.452 82.5874 89.652 80.6874 88.602C79.9374 88.202 79.9374 88.352 80.0374 88.952C80.1992 90.6455 80.4481 92.3545 80.6979 94.0706L80.698 94.071L80.698 94.0713L80.6981 94.0717L80.6981 94.0721L80.6982 94.0724L80.6982 94.0728L80.6983 94.0732L80.6983 94.0735L80.6983 94.0739L80.6984 94.0742L80.6984 94.0746L80.6985 94.075L80.6985 94.0753L80.6986 94.0757C80.8657 95.2237 81.0333 96.3748 81.1756 97.5264C80.3395 95.072 79.2049 92.7691 77.7092 90.6843C77.62 90.5402 77.5294 90.3961 77.4373 90.252C77.1236 89.8056 76.8245 89.3359 76.523 88.8626C75.5752 87.3744 74.6047 85.8504 73.0873 84.902C71.8743 84.1944 72.5914 85.258 73.2646 86.2565L73.2646 86.2566C73.3098 86.3235 73.3548 86.3902 73.3989 86.456C73.1949 86.4165 73.2909 86.666 73.9714 87.4087L73.9786 87.4274C73.9818 87.4359 73.9847 87.4441 73.9873 87.452C78.5407 94.5801 79.309 102.015 78.2108 109.442C77.823 108.921 77.3855 108.434 76.8873 108.002C74.5873 105.802 71.3873 104.052 68.1373 104.802C65.7373 105.402 63.3873 107.102 62.5373 109.452C62.046 111.685 63.9088 113.44 65.4524 114.894C65.6368 115.067 65.8166 115.237 65.9873 115.402C68.2211 117.744 71.2337 118.242 74.2769 118.207C71.2997 122.73 66.7183 124.19 60.7374 122.852C57.8374 122.352 54.9375 121.652 52.1375 120.802C51.414 120.585 50.6947 120.326 49.9736 120.066C48.2027 119.429 46.4205 118.788 44.5374 118.752C41.8966 118.829 39.8124 120.399 37.7691 121.939C37.143 122.411 36.5207 122.88 35.8875 123.302C33.7463 124.778 33.6312 124.629 32.858 123.632C32.2952 122.905 31.3835 121.729 29.0874 120.402C26.8874 119.102 24.5874 120.902 22.9374 122.302C22.4985 122.692 22.049 123.082 21.5975 123.474C20.6604 124.288 19.7147 125.108 18.8374 125.952C19.4874 127.402 20.9875 128.502 22.3875 129.152C23.459 128.54 24.4207 127.634 25.3959 126.717C26.9688 125.236 28.5769 123.722 30.7374 123.352C31.8374 125.002 33.3374 126.402 34.9874 127.452C37.1489 128.976 39.3355 127.134 41.3337 125.452C42.155 124.76 42.9446 124.095 43.6874 123.702C46.8874 121.202 50.4375 122.202 53.8875 123.552C54.2097 123.645 54.5374 123.741 54.8699 123.838C58.756 124.973 63.3004 126.301 67.5088 126.303C66.8281 126.908 66.143 127.51 65.4582 128.112L65.4581 128.112L65.458 128.112L65.458 128.112L65.4579 128.112L65.4579 128.112L65.4578 128.112L65.4578 128.112L65.4578 128.112L65.4577 128.112L65.4577 128.112L65.4576 128.112L65.4576 128.112L65.4575 128.112L65.4575 128.113L65.4574 128.113C62.2738 130.91 59.0956 133.702 56.3875 136.802C53.2875 139.952 51.4375 144.102 50.6375 148.402C51.6875 150.502 54.1374 152.102 56.2874 153.002C56.4207 153.069 56.5375 153.069 56.6375 153.002C58.3582 144.484 64.6408 138.289 70.9035 132.195L70.8433 132.342L70.8416 132.346C70.6897 132.716 70.5382 133.084 70.3873 133.452C69.7854 135.149 69.0769 136.937 68.3442 138.786C65.0603 147.073 61.2896 156.59 64.4373 164.602ZM96.0373 99.252C93.7873 97.552 91.9373 95.152 91.2373 92.352C91.0373 91.552 90.1373 87.852 91.9873 89.402C92.0881 89.5029 92.2367 89.6289 92.4043 89.7709L92.4046 89.7712C92.9847 90.263 93.7925 90.9478 93.6373 91.452C93.3373 93.002 94.4873 97.252 96.0373 97.852C100.087 99.552 103.937 94.702 102.687 90.952C102.687 87.752 105.737 91.102 106.587 92.102C107.166 92.6127 107.049 93.2392 106.932 93.8711C106.877 94.1673 106.821 94.4648 106.837 94.752C113.137 96.052 118.637 89.752 119.537 83.952C115.737 80.752 117.787 77.102 121.787 81.052C124.437 78.902 124.437 75.052 122.937 72.252C122.64 71.5841 121.82 71.4394 121.07 71.307C120.809 71.261 120.556 71.2165 120.337 71.152C118.605 70.967 117.393 71.195 116.393 71.3831C114.421 71.7541 113.275 71.9697 110.587 68.552C110.387 68.252 110.137 67.752 110.737 67.702C113.087 67.002 115.637 66.602 117.987 67.402C122.137 68.902 125.737 72.202 127.637 76.152C129.337 79.602 128.637 84.852 124.637 86.352C124.237 95.052 113.837 103.502 106.337 96.352C104.887 101.602 100.087 102.552 96.0373 99.252ZM117.638 56.402C116.988 56.852 119.537 58.552 119.987 58.802C121.615 59.8756 123.723 59.6779 125.745 59.4881C126.642 59.4039 127.523 59.3213 128.337 59.352C132.087 59.102 136.437 58.152 130.987 55.052C133.787 55.002 148.238 54.252 144.638 49.202C141.738 46.252 137.487 45.452 133.537 44.802C134.078 44.5806 134.889 44.2918 135.859 43.9466C140.365 42.3429 148.287 39.5232 148.287 36.602C147.037 34.802 144.788 33.402 142.638 33.152C141.77 33.1126 140.934 33.1975 140.08 33.2842L140.08 33.2842C139.851 33.3075 139.62 33.3309 139.388 33.352C135.538 33.902 131.738 35.002 128.138 36.502C123.888 38.202 119.887 40.402 116.237 43.152C115.237 43.952 114.238 44.852 113.437 45.852C113.437 46.002 113.637 46.252 113.737 46.302C114.837 47.352 116.237 48.452 117.737 48.752C118.095 48.4663 118.406 48.1013 118.721 47.7325C119.068 47.3267 119.418 46.9163 119.837 46.602C124.637 42.552 130.488 39.902 136.437 38.002C138.137 37.452 139.888 37.052 141.638 36.702L141.638 36.7019C141.663 36.6894 141.681 36.6801 141.692 36.6754C141.699 36.6726 141.703 36.6715 141.703 36.6724C141.705 36.676 141.658 36.7117 141.539 36.8005L141.539 36.8007L141.539 36.8011L141.538 36.8013L141.537 36.802C138.198 38.7966 134.557 40.1457 130.934 41.4881C130.651 41.5927 130.369 41.6972 130.087 41.802C129.845 41.9312 129.42 42.05 128.954 42.1802C127.978 42.4532 126.821 42.7766 126.787 43.352C127.687 44.802 129.437 45.652 130.987 46.252C132.653 46.6915 134.361 46.9384 136.073 47.1857C138.061 47.473 140.053 47.7609 141.987 48.352C141.574 51.4325 135.706 52.0185 132.626 52.3262C132.357 52.3531 132.109 52.3779 131.888 52.402C131.028 52.4879 130.153 52.5082 129.27 52.5287C128.612 52.544 127.95 52.5593 127.287 52.602C127.137 52.602 127.037 52.652 126.937 52.752C127.199 53.7237 128.215 54.3601 129.129 54.9328C129.438 55.1264 129.735 55.3126 129.987 55.502C130.387 55.952 127.987 56.402 127.587 56.402C124.719 56.7496 121.814 56.6063 118.936 56.4644H118.936L118.935 56.4644L118.935 56.4643L118.934 56.4643C118.501 56.443 118.069 56.4216 117.638 56.402ZM27.4374 66.952C24.8374 67.002 21.6874 65.852 20.5874 63.302C21.0374 60.402 22.4374 59.002 24.6874 61.652C24.9874 62.052 25.1374 62.652 24.4374 62.202C23.8874 62.902 23.5374 63.802 23.4374 64.702C25.0374 64.752 26.4874 65.202 27.4874 66.552C27.6374 66.652 27.7874 67.002 27.4374 66.952ZM108.837 21.202C109.137 22.152 111.187 23.502 112.087 23.802C112.12 23.802 112.15 23.8043 112.177 23.8065C112.278 23.8143 112.348 23.8197 112.387 23.702C112.518 23.2249 112.61 22.7101 112.698 22.223L112.698 22.2229L112.699 22.2144L112.737 22.002C113.087 20.102 113.387 17.852 111.737 16.452C110.937 15.702 109.987 15.052 108.987 14.552C107.232 13.7949 105.169 14.2457 103.174 14.6819C102.269 14.8795 101.379 15.0741 100.537 15.152C100.618 14.586 100.779 13.991 100.942 13.3864L100.942 13.3863L100.942 13.3862C101.385 11.7478 101.846 10.0398 100.787 8.652C99.7874 7.602 98.4874 6.652 97.0374 6.552C94.8189 6.50377 92.647 7.06025 90.5665 7.59331L90.3373 7.652C90.091 7.72041 89.8447 7.79632 89.5974 7.87254C88.941 8.07484 88.2774 8.27936 87.5873 8.352C87.5373 8.402 87.5374 8.402 87.5374 8.452C87.5752 8.5656 87.6704 8.65053 87.7579 8.7285C87.7859 8.75347 87.8131 8.77774 87.8373 8.802C88.1873 9.052 88.5874 9.302 89.0374 9.302C89.6802 9.302 90.3231 9.17445 90.9659 9.0469C91.2231 8.99588 91.4802 8.94486 91.7374 8.902C93.9374 8.452 96.2374 8.002 98.4874 8.102H98.9874C99.0874 8.102 99.1374 8.152 99.1374 8.252C99.2374 8.702 99.1873 9.202 99.0873 9.652C98.8873 10.702 98.4873 11.752 98.0873 12.752L98.0809 12.7661C97.8323 13.3131 97.5395 13.9571 97.7874 14.552C98.1874 15.352 98.9374 15.902 99.6374 16.402C101.187 17.702 103.037 17.702 104.937 17.302C105.409 17.2284 105.88 17.1417 106.353 17.0548L106.353 17.0548L106.353 17.0548C107.484 16.8467 108.623 16.6373 109.787 16.602C109.871 17.9025 109.462 19.203 109.063 20.474L109.062 20.4752C108.986 20.7187 108.91 20.961 108.837 21.202ZM22.9872 19.652C21.6872 19.052 20.2372 18.102 19.6372 16.852C23.3372 14.002 27.9872 12.652 32.4872 11.402C30.4872 9.95202 28.6872 7.85202 32.1872 6.90202C35.4872 5.75202 39.2872 5.20202 42.5872 6.65202C43.9872 7.20202 46.3872 8.70202 46.7372 10.152C46.2285 10.1289 45.7519 9.89193 45.2629 9.64878C44.6944 9.36613 44.1091 9.07514 43.4372 9.10202C40.3372 8.85202 36.8872 9.35202 34.1372 10.802C35.2372 11.402 36.5872 12.202 37.0872 13.402C36.9567 13.6955 36.5712 13.7763 36.2078 13.8525C36.0139 13.8931 35.8264 13.9324 35.6872 14.002C31.1372 15.202 26.8372 17.102 22.9872 19.652ZM1.88739 70.002C3.28739 73.852 7.98742 75.902 11.8874 76.002C16.2863 76.7059 14.1061 75.049 12.2245 73.619C11.9674 73.4236 11.7158 73.2324 11.4874 73.052C10.3628 72.0774 9.01342 72.1145 7.64989 72.152H7.6498H7.64971H7.64962H7.64952H7.64943H7.64934C7.19431 72.1645 6.73772 72.1771 6.28738 72.152C6.63738 68.952 8.78739 66.302 10.7374 63.902C11.4374 62.852 7.83741 60.752 6.93741 60.452C7.77095 59.1614 8.72017 57.9575 9.66843 56.7548L9.66845 56.7548L9.66848 56.7548C10.4835 55.7211 11.2978 54.6883 12.0374 53.602C13.624 51.6187 10.9761 50.0628 9.23027 49.0369C8.9955 48.8989 8.77705 48.7706 8.5874 48.652C9.1874 46.502 11.7874 43.652 14.1374 44.202C14.4874 44.602 18.5874 47.302 17.2374 45.352C13.6874 41.152 7.38739 37.502 3.88739 43.752C2.32626 46.4352 5.38233 48.5472 7.34305 49.9022L7.48739 50.002C7.72157 50.1024 7.50809 50.3594 7.32617 50.5785L7.32615 50.5785L7.32614 50.5785L7.32612 50.5785L7.3261 50.5786L7.32608 50.5786L7.32607 50.5786C7.23613 50.6869 7.15393 50.7859 7.13739 50.852C6.48926 51.7162 5.81521 52.5544 5.14323 53.3901L5.14316 53.3902C3.94893 54.8753 2.76126 56.3522 1.73739 57.952C-0.912607 61.302 0.187387 62.652 3.38739 64.752C3.28143 65.2642 3.0133 65.8387 2.72839 66.4491C2.20665 67.567 1.62867 68.8055 1.88739 70.002ZM68.6386 113.166C68.4064 113.195 68.0618 113.238 68.3374 113.002C69.7874 110.502 73.4375 107.952 76.2374 109.352L76.2881 109.472C76.6749 110.39 77.0979 111.394 77.3374 112.352C76.3198 112.441 75.3022 112.562 74.2846 112.683L74.2838 112.684C72.4517 112.902 70.6196 113.12 68.7874 113.152C68.7556 113.152 68.7012 113.159 68.6386 113.166ZM87.0872 113.552C89.1372 112.152 91.2872 110.802 93.7372 110.402C93.7847 110.39 93.8321 110.376 93.8735 110.363C94.0068 110.322 94.078 110.299 93.8872 110.452C91.9872 112.102 89.5372 113.052 87.0872 113.552Z" fill="black"/>
</svg>
