<svg width="118" height="133" viewBox="0 0 118 133" fill="none" xmlns="http://www.w3.org/2000/svg">
<path fill-rule="evenodd" clip-rule="evenodd" d="M87.3391 13.087C86.2891 18.387 87.4391 21.387 93.0391 22.587C94.9513 22.5291 95.4701 20.7586 96.006 18.9296C96.3949 17.6022 96.7929 16.244 97.7391 15.487C98.6487 14.3447 99.8715 13.4709 101.09 12.6005C102.751 11.4137 104.403 10.2332 105.239 8.38702C106.139 5.78702 105.589 2.48702 102.889 1.18702C101.539 0.187019 99.9391 1.03702 99.2891 2.38702C98.9983 2.25777 98.6814 2.05545 98.3451 1.84076L98.345 1.84071C97.6406 1.39097 96.8513 0.887016 96.0391 0.887016C94.6891 0.737016 93.3891 1.73702 92.7891 2.63702C91.1891 1.28702 88.3891 1.28702 87.4891 3.38702C87.9391 4.18702 88.9891 4.98702 89.9391 5.18702C90.3891 4.13702 91.4891 3.38702 92.6391 3.48702C93.1891 4.23702 94.0891 4.98702 94.9891 5.13702C95.1391 3.88702 96.3891 2.98702 97.5891 2.73702C98.4424 2.53104 99.0533 3.01779 99.6766 3.51439C100.112 3.86159 100.554 4.21359 101.089 4.33703C101.573 4.44453 101.84 4.04647 102.123 3.6242C102.367 3.26083 102.623 2.87953 103.039 2.78703C104.151 6.79939 101.445 8.88637 98.7304 10.979C98.0285 11.5202 97.3261 12.0617 96.6891 12.637C95.0443 13.6944 94.327 15.7346 93.6967 17.5277C92.9857 19.5501 92.3852 21.258 90.6891 20.887C89.0304 20.8445 89.1082 19.1017 89.1685 17.7511L89.1685 17.7507C89.1791 17.5136 89.1891 17.2886 89.1891 17.087C89.1522 16.681 89.2583 16.166 89.3667 15.6401C89.552 14.7411 89.7438 13.8102 89.2391 13.337C89.1496 13.2655 89.0537 13.1827 88.9532 13.0959C88.4918 12.6974 87.9317 12.2139 87.4391 12.337C87.4141 12.4619 87.4016 12.5869 87.3891 12.7118L87.3891 12.712C87.3766 12.837 87.3641 12.962 87.3391 13.087ZM40.0393 125.087C40.096 125.2 40.1622 125.309 40.2365 125.413C40.2022 125.621 40.1696 125.829 40.1391 126.037C39.9657 126.488 40.6823 127.011 41.3046 127.356C41.2644 127.716 41.2256 128.077 41.1891 128.437C41.2056 128.553 41.1947 128.68 41.1837 128.809C41.1614 129.069 41.1384 129.336 41.339 129.537C41.989 130.237 42.839 130.887 43.789 131.187C43.939 131.237 43.989 131.187 44.039 130.987C44.139 130.487 44.239 129.97 44.339 129.437C44.4559 128.946 44.5666 128.454 44.672 127.961L44.8392 130.637C45.2892 131.437 46.2393 132.037 47.0393 132.387C47.2828 132.468 47.2298 132.121 47.2012 131.934C47.1946 131.891 47.1893 131.856 47.1893 131.837C47.0393 129.487 46.9393 127.087 46.9393 124.737C46.9393 118.884 47.7041 113.072 48.6461 107.304C50.1814 105.544 52.8252 104.458 54.8893 103.737C59.4893 102.387 64.3893 103.037 69.0393 103.887C69.5592 103.942 70.6028 104.198 71.8399 104.502L71.84 104.502C76.1946 105.57 82.9459 107.226 77.6893 102.787C79.4889 102.819 81.4618 103.088 83.4822 103.364C87.6928 103.938 92.1091 104.54 95.5893 103.087C99.2393 100.837 95.8393 96.787 93.2393 95.287C91.0893 94.037 88.5393 93.687 86.1393 93.487C86.0469 93.4501 85.8248 93.4336 85.6067 93.4174C85.2346 93.3898 84.8741 93.3631 85.1893 93.237C85.6147 92.8572 86.9078 92.2744 88.4306 91.588C91.9197 90.0152 96.6145 87.899 94.8393 86.437C93.7893 84.937 92.2393 83.937 90.3393 84.537C86.8393 85.037 83.3893 85.937 79.9893 86.937C78.8575 87.3143 77.7067 87.6837 76.5468 88.0559C68.4832 90.6441 59.9782 93.3739 54.3393 99.887C52.5235 100.12 50.5236 100.537 48.7026 101.29C48.9182 100.778 49.1406 100.271 49.3699 99.7665C51.2911 97.5739 53.5039 95.6437 56.3391 94.187C57.2789 93.5789 58.3274 93.1066 59.3745 92.635C61.1683 91.827 62.9578 91.0209 64.1891 89.537C64.5484 89.0879 64.2017 88.5984 63.8873 88.1546C63.5018 87.6104 63.1649 87.1349 64.2391 86.887C67.5891 86.437 81.7891 82.737 74.5391 78.237C73.2391 77.687 74.2891 78.887 74.7891 79.137C74.0439 82.7751 69.4178 83.8771 65.9635 84.7L65.9628 84.7001L65.9611 84.7006L65.9609 84.7006C65.4758 84.8162 65.0139 84.9262 64.5891 85.037C64.317 85.149 63.917 85.1945 63.4971 85.2422C62.6049 85.3435 61.6231 85.4551 61.5891 86.237C61.6557 86.5704 61.8557 86.8148 62.0557 87.0593L62.0558 87.0594C62.1558 87.1815 62.2558 87.3037 62.3391 87.437C62.4592 88.4385 61.4562 88.9906 60.6154 89.4534C60.4068 89.5683 60.2081 89.6777 60.0391 89.787C59.1849 90.2141 58.3214 90.6133 57.46 91.0115L57.4599 91.0116L57.4598 91.0116C55.8546 91.7537 54.2565 92.4924 52.7391 93.4024C58.0997 84.5933 65.7576 77.0714 75.3393 71.2371C76.8115 70.2449 78.3248 69.2732 79.8266 68.3088L79.8274 68.3083L80.0795 68.1464C81.0437 71.4053 85.406 73.331 88.6391 72.8371C88.6391 75.8371 91.3891 78.5871 94.289 79.0871C97.9891 79.0871 100.139 75.187 100.789 71.987C100.828 71.7242 100.909 71.4475 100.991 71.1687C101.219 70.3872 101.452 69.5899 100.789 69.037C100.61 68.8715 100.446 68.718 100.294 68.5766C99.3271 67.6746 98.8882 67.2651 98.6456 67.3596C98.4439 67.4382 98.3779 67.8648 98.2569 68.6461V68.6462L98.2567 68.6476C98.2015 69.0036 98.135 69.4333 98.039 69.937C97.4891 72.937 95.439 76.537 92.039 76.737C91.5715 76.8646 91.5014 76.5224 91.4295 76.1712C91.4168 76.1093 91.4041 76.047 91.3891 75.987C91.2391 74.587 91.189 72.587 92.339 71.637C92.489 71.487 92.439 71.337 92.339 71.187C92.2819 71.1167 92.2221 71.0418 92.1597 70.9636L92.1596 70.9635C91.5123 70.1527 90.5923 69.0002 89.589 69.137C88.339 70.237 84.1891 70.687 82.9391 69.887C82.8094 68.3745 84.1832 67.3102 85.4785 66.3066C87.1804 64.9881 88.7468 63.7745 86.589 61.787C85.3512 60.4693 83.7943 59.5661 82.2497 58.67L82.2494 58.6698C81.86 58.444 81.4715 58.2185 81.089 57.987C81.989 55.637 87.789 57.537 89.289 58.687C92.189 60.237 88.2891 56.2871 87.4891 56.0871C85.8391 55.1871 84.189 54.287 82.339 53.987C80.839 53.687 76.7891 53.387 77.8891 55.887C79.3391 58.387 81.9891 59.9371 84.4391 61.3371C84.6057 61.3704 84.6224 61.4537 84.4891 61.5871C84.0234 62.4973 83.1813 63.1207 82.3422 63.7419C81.8686 64.0926 81.3959 64.4426 80.9924 64.8431C80.4379 64.3107 79.7635 63.8128 79.0893 64.4871C65.6135 72.1105 54.0353 82.165 47.7563 95.7466C48.035 93.3837 48.4155 91.0276 48.8892 88.6871C52.1392 72.2871 59.4892 56.6371 72.4392 45.6871C74.7059 43.7537 77.0058 41.8537 79.3392 39.9871L81.5392 38.1871C81.5771 38.1491 81.6119 38.1207 81.6418 38.0963C81.7302 38.0243 81.7765 37.9865 81.7392 37.8371C81.4392 37.1371 79.1892 35.0871 78.4392 35.2371C76.7392 36.5371 75.0725 37.8537 73.4392 39.1871C58.6287 50.5866 51.5126 64.645 48.0772 82.013C48.2889 73.6347 48.1626 65.1474 45.0488 57.4221C45.7565 56.2922 45.1372 55.2426 44.6973 54.497C44.2832 53.7952 44.0281 53.3629 45.1893 53.3871L45.2346 53.3827C47.8201 53.1341 50.4532 52.881 52.8393 51.8371C57.1893 50.2871 53.9393 46.3371 51.5893 44.5871C49.5893 42.8371 46.5393 41.9371 44.0393 42.9371C44.3533 43.8791 45.2307 44.5394 46.0217 45.1346L46.0217 45.1346L46.0222 45.135L46.0241 45.1364C46.1139 45.204 46.2027 45.2708 46.2893 45.3371C46.8666 45.7219 47.595 45.5627 48.3417 45.3995C48.953 45.2658 49.5766 45.1295 50.1393 45.2871C51.4393 45.2871 52.6893 46.2371 52.1893 47.6371C50.4859 49.9461 47.407 50.2778 44.558 50.5847L44.5579 50.5847L44.5578 50.5848L44.5577 50.5848C43.6436 50.6833 42.7531 50.7792 41.9393 50.9371C41.1571 51.0885 41.4955 51.6728 41.9134 52.3945C42.3055 53.0716 42.7676 53.8696 42.4399 54.5444C42.1742 54.4229 41.9307 54.385 41.7392 54.4871L41.9411 55.2137C41.0366 56.0751 39.5124 56.279 38.3393 56.2371C36.532 56.2371 34.9827 55.3338 33.4843 54.46C33.1173 54.246 32.7533 54.0338 32.3893 53.8371C31.0147 53.0601 29.7472 55.8374 28.5335 58.4968C27.7165 60.287 26.9239 62.0238 26.1393 62.5871C25.6393 63.1871 24.9893 63.6871 24.2893 63.9871C24.1613 63.9231 24.1767 63.5517 24.1912 63.2009C24.1994 63.0037 24.2073 62.813 24.1893 62.6871C24.3893 59.5371 25.2393 56.1871 27.5893 53.9371C27.7638 53.7044 28.0135 53.6296 28.213 53.5699C28.528 53.4756 28.7179 53.4187 28.2893 52.8371C27.3893 51.6871 26.1893 50.3871 24.7393 49.9371C22.5893 50.7871 21.6893 53.5871 21.0393 55.6371C19.8393 59.7371 20.5393 64.1371 24.4393 66.4871C28.6371 69.1152 30.4898 64.6816 32.0986 60.8317C32.6934 59.4082 33.255 58.0644 33.8893 57.1871C34.2975 56.2074 34.9056 56.594 35.5233 56.9867C35.6622 57.075 35.8016 57.1636 35.9393 57.2371C37.8804 58.4316 40.6854 59.431 42.9603 58.7582C44.9629 65.9558 44.9901 73.4832 45.017 80.9455V80.946V80.9465V80.947V80.9475V80.948V80.9485V80.949V80.9495V80.95C45.02 81.7878 45.0231 82.6248 45.0289 83.4604C43.4596 78.8761 41.2105 74.2374 36.9892 71.687C32.0392 69.687 32.8892 77.787 34.4392 80.287C33.3892 79.187 19.5392 70.837 23.2392 76.937C20.8892 76.637 17.0392 76.487 14.1392 76.8371C10.6392 77.137 7.13922 77.487 3.63922 77.987C3.48143 78.0174 3.29269 78.0477 3.08616 78.0809C1.59118 78.3213 -0.836267 78.7116 0.789182 80.3371C2.38918 82.537 4.38919 83.187 6.98919 83.387C12.6892 84.287 18.0392 86.487 23.1392 89.037C23.5912 89.276 24.0491 89.5162 24.5112 89.7587C31.7844 93.5747 40.0937 97.9343 42.4815 106.223C42.4669 106.361 42.4527 106.499 42.4393 106.637C42.352 107.525 42.2858 108.416 42.2298 109.311C42.2118 109.377 42.2016 109.455 42.1915 109.53C42.1788 109.626 42.1664 109.719 42.1393 109.787C41.5393 112.587 40.9893 115.387 40.5893 118.187C40.1893 120.437 39.9893 122.787 40.0393 125.087ZM42.9643 98.6173C42.7621 100.078 42.6416 100.949 42.9486 101.701C42.871 102.387 42.7948 103.073 42.7234 103.759L42.7155 103.772C36.6841 93.0077 20.0659 85.3029 10.0392 81.487C9.72591 81.3696 9.41267 81.2828 9.12343 81.2026L9.12304 81.2025L9.12216 81.2022C9.04252 81.1802 8.96471 81.1586 8.88922 81.137C9.44514 81.0567 10.0018 80.9749 10.5593 80.893L10.5593 80.893C14.5142 80.3116 18.5075 79.7247 22.5392 79.637C23.5892 79.637 24.7392 79.737 25.7392 79.937C25.955 80.1136 26.1727 80.3074 26.3945 80.505C27.3038 81.3147 28.2834 82.187 29.4892 82.187C31.0392 81.237 26.6892 78.287 25.8392 77.937C28.1591 77.357 32.0238 80.0037 34.7027 81.8383C35.2571 82.2179 35.7606 82.5627 36.1892 82.8371C36.2752 82.9145 36.4102 83.0512 36.5776 83.2208L36.5777 83.2209C37.3834 84.0371 38.9425 85.6166 39.4392 85.037C39.3637 84.6975 39.1174 84.3864 38.8937 84.1037C38.8209 84.0118 38.7505 83.9229 38.6892 83.8371C36.3892 81.987 35.5892 78.487 36.5392 75.737C37.1892 74.087 38.8892 73.437 39.5892 75.437C43.6392 82.387 44.2892 90.637 42.9892 98.437L42.9643 98.6173ZM90.3391 36.1871C87.789 35.8871 85.3891 34.0871 84.1391 31.8371C83.6148 30.8583 83.6036 29.6596 83.5931 28.5314C83.5886 28.0459 83.5842 27.5734 83.5391 27.1371C82.9038 27.1551 82.2046 27.191 81.4625 27.2291C76.0138 27.5092 68.2553 27.908 66.5391 22.1871C67.9891 19.2871 71.5391 17.6871 74.5391 16.8371C77.6891 15.9871 80.8891 18.0871 82.5891 20.6371C82.8891 21.3371 81.7891 20.7871 81.5391 20.6371C78.6391 18.6871 72.9891 22.1871 70.7891 24.3371C74.4891 24.6871 78.2391 24.5871 81.9391 24.4371C83.8891 23.9371 85.6391 25.2871 86.6891 26.8371C86.9121 27.8407 86.8466 28.8941 86.7811 29.9484C86.6997 31.2577 86.6182 32.5684 87.0891 33.7871C90.7391 34.6871 92.4391 30.6371 91.7891 27.6371C92.1284 27.4391 92.7396 27.8169 93.3604 28.2006C93.8373 28.4954 94.3198 28.7936 94.6891 28.8371C97.0391 29.4871 102.889 30.9371 102.189 26.7371C101.989 25.2871 101.039 24.0871 99.9391 23.1871C99.0391 22.4371 98.9891 21.8371 100.189 22.6371C102.589 24.3371 106.239 27.7371 104.189 30.8371C101.289 32.4871 97.2391 31.1371 94.4391 29.7871C95.0391 32.5871 93.7391 36.4371 90.3391 36.1871ZM102.849 62.4832C103.562 62.5842 104.27 62.6844 104.939 62.8371C107.439 63.2871 116.539 64.837 112.539 60.137C114.939 60.387 117.989 58.437 115.289 56.287C114.941 55.884 114.593 55.6756 114.348 55.5291C113.925 55.2757 113.81 55.2073 114.539 54.637C116.139 53.037 118.739 49.687 116.189 47.937L116.145 47.8997L116.101 47.8616L116.089 47.8515L116.047 47.8152L115.99 47.765L115.988 47.7638C115.387 47.2392 114.708 46.6479 113.989 47.187C112.701 47.3238 111.389 47.4035 110.072 47.4834C105.615 47.754 101.099 48.0281 97.2391 50.537C94.0891 52.787 89.5891 56.337 95.0891 59.037C95.6391 59.287 95.3891 58.737 95.1891 58.487C95.0926 57.28 96.0217 56.3526 96.8511 55.525L96.9391 55.437C101.139 50.937 107.539 50.087 113.339 49.987C113.763 49.8811 113.563 50.1246 113.409 50.3119L113.409 50.3119L113.409 50.3121L113.409 50.3122C113.345 50.3898 113.289 50.4578 113.289 50.487C112.639 51.487 111.789 52.337 110.889 53.187C110.439 53.437 110.239 53.937 110.689 54.287C111.439 55.287 112.439 56.187 113.639 56.487C113.189 57.937 110.589 57.987 109.189 57.787C109.369 58.596 110.235 59.2029 110.917 59.6805L110.978 59.7229L111.075 59.7917L111.139 59.8371C110.897 62.0172 106.482 61.1656 103.817 60.6515L103.817 60.6515C103.181 60.5289 102.645 60.4255 102.289 60.387C102.123 60.4036 101.391 60.2332 100.513 60.029C98.7453 59.6175 96.3879 59.069 96.8891 59.637C98.1517 61.8179 100.527 62.1543 102.849 62.4832ZM18.8392 41.7371C21.1892 44.0871 24.4393 45.2871 27.6893 45.5371C29.6893 45.7871 31.8393 45.8371 33.8893 45.6871C33.7679 44.9995 33.025 44.4756 32.4015 44.0358L32.4014 44.0357L32.4009 44.0354L32.4007 44.0352L32.4002 44.0349C32.2534 43.9313 32.1131 43.8324 31.9893 43.7371C31.5392 43.3371 31.0392 43.2871 30.4893 43.3371C28.6392 43.3871 26.8393 43.3871 24.9893 43.1871C24.5912 43.1 24.1623 43.0346 23.7239 42.9678C22.4001 42.7659 20.9907 42.551 20.0892 41.6871C19.2392 39.7871 21.5392 37.9371 23.2892 38.5371C25.7392 39.3871 21.8392 36.0371 21.0892 36.1871C20.6235 32.4193 26.108 34.3507 29.0753 35.3957C29.6126 35.5849 30.0673 35.7451 30.3893 35.8371C31.1932 35.979 30.7894 35.1815 30.5741 34.7562L30.5392 34.6871C28.9892 31.6371 29.0393 27.8871 32.9393 31.5371C34.8893 33.7371 36.1392 36.4871 37.2892 39.1871C37.7392 40.7871 38.5893 42.1871 40.1893 42.9371C41.0281 43.4264 40.5232 42.3521 40.1262 41.5074C39.9552 41.1437 39.8043 40.8225 39.7892 40.6871C38.0392 36.2371 35.4393 32.0371 31.3893 29.3871C31.0492 29.217 30.6818 28.9649 30.2978 28.7014C29.2136 27.9574 27.9969 27.1225 26.8893 27.7871C25.9825 28.6939 26.8554 30.7301 27.4357 32.0837C27.8473 33.0439 28.1117 33.6605 27.4893 33.2871C27.1659 33.1749 26.84 33.0575 26.5117 32.9393C24.3522 32.1614 22.0895 31.3464 19.7892 31.7371C17.0892 32.2371 18.2393 34.8871 19.7393 36.0871C16.4393 36.4871 16.5392 40.0871 18.8392 41.7371ZM58.5393 99.937C62.6715 100.164 66.6888 101.197 70.7 102.228L70.701 102.228L70.7021 102.228L70.7031 102.228L70.7041 102.229L70.7051 102.229L70.7061 102.229L70.7071 102.229L70.7081 102.23L70.7091 102.23L70.7101 102.23L70.7111 102.23L70.7121 102.231L70.7131 102.231C71.749 102.497 72.7844 102.763 73.8214 103.015C74.0575 103.08 74.2974 103.137 74.5393 103.187C74.2999 103.131 74.0606 103.073 73.8214 103.015C72.3981 102.622 71.1112 101.924 70.3393 100.637C70.3321 100.623 70.3208 100.603 70.3075 100.58L70.3072 100.58C70.2275 100.442 70.0754 100.18 70.2893 100.137C73.4318 100.094 76.565 100.505 79.693 100.915C83.8312 101.458 87.9603 102 92.0893 101.487C94.1393 101.337 96.4393 97.787 93.8393 96.887C92.1883 96.1347 90.3016 96.0549 88.4345 95.976C85.8345 95.8661 83.2728 95.7578 81.4393 93.837C81.3697 93.75 81.285 93.6555 81.1952 93.5552C80.7686 93.0791 80.2263 92.4739 80.6393 91.937C82.1394 90.8028 83.8536 89.9631 85.5665 89.1241C86.1945 88.8165 86.8223 88.5089 87.4393 88.187C80.8393 89.637 61.6893 95.037 58.5393 99.937ZM53.6894 43.337C53.9894 45.737 54.4893 47.537 56.9394 48.537C56.9394 44.337 55.0393 39.037 53.2393 34.837C52.7894 33.5771 52.0932 32.2525 51.3888 30.912L51.3887 30.9119C50.1362 28.5285 48.8574 26.0951 48.8894 23.887C49.3276 24.3954 49.7475 24.9222 50.1682 25.4503C50.9476 26.4283 51.7302 27.4104 52.6394 28.287C53.3394 28.937 55.8894 30.987 54.9394 28.637C54.7567 28.0213 54.5611 27.3973 54.3636 26.7668C53.1014 22.7383 51.7559 18.4442 53.1394 14.337L53.1395 14.3368C53.2895 14.0369 53.4894 13.637 53.8393 13.437C54.9893 14.987 55.9893 16.637 56.8393 18.387C57.6605 19.6836 57.9213 21.2044 58.1707 22.6587L58.1708 22.6592C58.2099 22.8872 58.2487 23.1135 58.2893 23.337C58.6393 23.787 60.1894 25.437 60.6894 25.037C60.5899 21.0576 58.0655 17.5235 55.824 14.3856L55.7893 14.337C46.8393 3.68704 49.6894 21.337 51.9394 25.937L52.0393 26.187C51.7287 25.8363 51.4221 25.4735 51.1134 25.1084C49.882 23.6515 48.6185 22.1566 46.9394 21.237C44.3171 20.4329 47.4158 26.7189 49.5852 31.1195C50.5181 33.012 51.2792 34.5559 51.3393 35.037C52.4393 37.687 53.1394 40.487 53.6894 43.337ZM90.6892 53.637C89.4892 53.137 88.0891 52.2871 87.4892 51.0871C87.8938 50.731 88.4242 50.4325 88.9666 50.1273C90.1 49.4895 91.2863 48.822 91.4892 47.537C89.7891 46.237 88.2891 44.7871 90.5891 43.3371C88.6391 43.687 86.6892 44.287 84.8892 45.137C84.6892 45.287 84.4891 45.287 84.2891 45.187C83.0891 44.587 81.8391 43.787 81.0891 42.637C81.0126 42.4841 81.1409 42.4189 81.2726 42.3519C81.3131 42.3313 81.3539 42.3106 81.3892 42.287C82.9392 41.587 84.5891 41.037 86.2891 40.637C88.9891 40.187 91.7891 39.787 94.5391 39.787C95.9391 40.337 97.6891 41.387 98.2392 42.787C97.6075 43.7871 96.6018 44.4825 95.594 45.1793C94.6872 45.8063 93.7786 46.4345 93.1392 47.287C93.0114 47.7214 93.4582 48.0905 93.939 48.4877C94.399 48.8678 94.8903 49.2736 94.9392 49.787C95.2392 51.537 92.0392 53.087 90.6892 53.637ZM53.3285 80.1037C53.4124 80.1465 53.4993 80.1908 53.5891 80.237C53.8601 79.7236 54.0538 79.1533 54.249 78.5782C54.7384 77.137 55.2379 75.6661 56.9891 74.987C57.5795 74.5541 58.8204 74.0627 60.2296 73.5046C64.1913 71.9356 69.4829 69.84 65.3892 67.037C65.1558 66.9704 65.1225 66.887 65.2891 66.787L65.2894 66.7868L65.2897 66.7866C66.9395 65.6368 68.5893 64.4869 70.2391 63.237C70.3948 63.1166 70.5529 62.9957 70.7115 62.8743L70.7127 62.8734L70.7193 62.8684L70.7198 62.868C73.2594 60.9255 75.9343 58.8794 71.1392 57.187C70.75 57.1641 70.3293 57.0888 69.9108 57.0139C69.4153 56.9252 68.9228 56.837 68.4891 56.837C69.0891 57.787 70.2892 58.487 71.3892 58.587C69.692 60.7085 67.4294 62.2349 65.1983 63.74C64.5373 64.1859 63.8791 64.6299 63.2391 65.087C63.1941 65.1321 63.1337 65.1797 63.0702 65.2299C62.8518 65.4023 62.5955 65.6047 62.7891 65.837C63.0519 66.2749 63.5048 66.5533 63.9116 66.8032C64.6659 67.2668 65.2611 67.6326 64.1891 68.737C62.7998 70.1666 60.7781 70.9151 58.7704 71.6584C55.7925 72.7608 52.8455 73.8519 52.0391 77.137C51.2327 79.0344 51.7764 79.3118 53.3285 80.1037Z" fill="black"/>
</svg>
