<svg width="70" height="99" viewBox="0 0 70 99" fill="none" xmlns="http://www.w3.org/2000/svg">
<path fill-rule="evenodd" clip-rule="evenodd" d="M43.8352 6.45655C44.3352 7.25655 45.2852 7.75654 46.1352 8.05654C46.321 8.0937 46.2858 7.90989 46.2555 7.75147C46.2451 7.69675 46.2352 7.64505 46.2352 7.60654C46.0352 6.00654 45.0352 4.65654 43.6852 3.85654C42.6352 3.15654 41.2852 2.60655 40.0852 3.25655C38.0352 -0.0434503 34.0352 -0.243459 32.4852 3.60654C32.3382 3.87119 32.243 4.15314 32.1489 4.43205L32.1489 4.43207C32.083 4.62739 32.0175 4.82121 31.9352 5.00655C31.8089 5.21696 32.0015 5.39195 32.155 5.53153L32.155 5.53154L32.1551 5.53157C32.1839 5.55781 32.2114 5.5828 32.2352 5.60654C32.328 5.67151 32.4243 5.74337 32.5233 5.81732C32.9579 6.14178 33.4465 6.50655 33.9352 6.50655C34.5852 4.65655 35.6852 2.65654 37.8352 2.30654C38.1252 2.08902 38.2575 3.00182 38.3465 3.61546C38.3802 3.84814 38.4077 4.03781 38.4352 4.10654C38.7852 4.95654 39.7852 5.45654 40.6352 5.80654C40.8778 5.80654 41.0723 5.63839 41.2688 5.46859C41.3558 5.39342 41.4431 5.31792 41.5352 5.25655C41.9852 4.85655 42.5852 4.50655 43.2352 4.50655C43.3352 4.47322 43.4018 4.50654 43.4352 4.60654C43.6378 5.05234 43.709 5.56384 43.782 6.08779C43.7991 6.21026 43.8162 6.3334 43.8352 6.45655ZM8.88504 24.0066C6.48504 23.2066 3.73505 20.6066 3.23505 18.1066C3.08505 16.1066 4.33504 13.8066 6.38504 13.3566C4.63504 11.1066 8.23505 8.35655 9.98505 7.30655C12.135 5.90655 14.835 6.05656 17.085 7.20656C17.1379 7.23831 17.1752 7.26334 17.201 7.2807L17.201 7.28072L17.2011 7.28075C17.2328 7.30206 17.2473 7.31179 17.2524 7.30819C17.2568 7.30516 17.2545 7.2927 17.2504 7.26977C17.2446 7.23733 17.235 7.18391 17.235 7.10655C17.135 4.70655 19.785 3.25656 21.935 3.00656C26.185 2.75656 30.235 6.00655 31.335 10.0565C31.3612 10.2007 31.4424 10.3997 31.5253 10.6033C31.7591 11.1767 32.0075 11.7862 31.085 11.3065C30.035 10.8065 28.935 10.1066 28.785 8.85655C28.7183 8.69809 28.6405 8.49233 28.5522 8.25899C28.1112 7.09345 27.4099 5.23987 26.535 5.15655C24.035 4.75655 20.535 6.30655 20.535 9.10655C20.5636 9.42127 20.8051 9.62139 21.0439 9.81932C21.2224 9.96729 21.3995 10.114 21.485 10.3065C22.085 11.1565 21.135 11.0066 20.635 10.7066C19.635 10.2066 18.685 9.55656 17.935 8.70656C17.8975 8.59406 17.7757 8.56593 17.6538 8.53781C17.6132 8.52844 17.5725 8.51906 17.535 8.50656C14.335 7.70656 9.48504 10.9066 9.03504 14.1566C10.185 14.7566 11.785 16.5566 9.28504 15.4566C7.13504 16.0066 5.98504 18.7066 6.63504 20.7066C6.61067 21.0721 7.38218 21.9128 8.0637 22.6555C8.78042 23.4365 9.39762 24.1091 8.88504 24.0066ZM45.3851 30.2065C46.0351 31.1565 47.0851 31.8565 48.0851 32.3065C51.8851 32.8565 56.6351 30.8065 51.7851 27.4065C58.1851 23.3565 54.3851 19.0065 48.8351 17.0565C48.9981 16.6839 49.1855 16.3085 49.3753 15.9285C50.0002 14.6771 50.6501 13.3757 50.5351 11.9565C50.4059 11.3107 49.8688 10.8872 49.3709 10.4947L49.3707 10.4946C49.2905 10.4313 49.2113 10.3689 49.1351 10.3065C48.1851 9.50654 46.9851 9.10654 45.8851 9.80654C43.5351 11.1065 40.9851 12.9065 39.6851 15.3065C39.7851 15.9565 41.4851 17.2065 42.1351 17.1565C42.5351 15.4065 46.0851 13.0065 47.6351 12.1065C47.4004 12.8367 47.016 13.5397 46.6311 14.2439L46.6311 14.2439C46.2779 14.8898 45.9243 15.5367 45.6851 16.2065C46.0351 17.3565 47.3851 18.0565 48.4351 18.5565C48.9027 18.7192 49.4117 18.7744 49.9217 18.8297C50.6658 18.9103 51.4121 18.9912 52.0351 19.4065C54.2351 22.4065 50.1351 25.4065 47.5351 26.1065C47.9851 27.0065 49.1351 27.7065 50.0851 28.0565C50.2315 28.0775 50.3866 28.0284 50.5432 27.9788C50.761 27.91 50.9815 27.8402 51.1851 27.9565C51.4851 29.8565 48.6351 30.1565 47.2351 30.1565C47.1535 30.1729 46.9014 30.1466 46.6075 30.1159C46.001 30.0526 45.2167 29.9708 45.3851 30.2065ZM20.0351 35.1065C17.3351 35.1065 12.9852 32.5565 13.4852 29.4565C14.1852 26.8565 16.7851 25.2065 19.3351 24.8565C15.4351 22.3565 16.7852 18.1065 20.9852 17.1065C24.1852 16.4565 27.1352 18.8065 28.9852 21.2065C29.0949 21.3895 29.2136 21.5725 29.3333 21.7569L29.3333 21.7569C29.7041 22.3284 30.084 22.9139 30.2352 23.5565C29.8733 23.5967 29.5114 23.3136 29.2015 23.0712L29.2015 23.0711C29.1261 23.0121 29.0537 22.9555 28.9852 22.9065C28.3852 22.5565 28.0351 21.9565 27.7851 21.3565C27.7122 21.2325 27.6403 21.1054 27.568 20.9773C27.1443 20.2276 26.7039 19.4482 25.9351 19.1065C23.0351 17.9065 18.5852 20.8565 19.7352 24.1565C19.7492 24.1775 19.7632 24.1995 19.7774 24.222C19.8651 24.3596 19.9632 24.5135 20.1352 24.5565C20.7852 24.7565 21.3852 25.1065 21.8852 25.5565C21.9216 25.5885 21.9635 25.6241 22.0087 25.6626C22.4588 26.0458 23.2348 26.7065 22.2352 26.7065C19.2352 26.9065 14.9852 29.5565 16.2352 32.9565C19.0352 33.7065 23.6351 32.8565 24.8351 29.9065C24.9351 29.7065 24.9851 29.6065 25.1851 29.7065C25.8851 30.0065 26.5851 30.4565 27.0351 31.0565C27.1573 31.3253 27.0407 31.5582 26.9245 31.7903C26.8029 32.0333 26.6817 32.2753 26.8351 32.5565C28.0851 33.3065 30.2351 32.0065 31.2851 31.1065C31.3947 30.997 31.5062 30.8875 31.6181 30.7775L31.6184 30.7773C32.0683 30.3353 32.5248 29.887 32.8852 29.4065C33.5352 29.5065 34.1351 30.0565 34.5851 30.5065C34.9642 31.2173 36.6005 30.581 37.3239 30.2996L37.4351 30.2565C39.0351 29.6065 39.6351 27.8565 38.9351 26.3565C38.4351 25.0065 37.8351 23.6565 37.0351 22.4565L36.9226 22.4191L36.9225 22.4191C36.3548 22.2309 35.754 22.0316 35.2851 21.6565C35.0351 21.5065 33.2351 20.0565 34.2851 20.2565C36.1851 20.8065 37.9351 21.9565 39.1851 23.5565L39.2973 23.746C40.6237 25.9846 42.9468 29.9056 39.8852 31.6065C38.1852 32.5565 35.9351 32.7065 34.3351 31.5065C32.3351 34.1565 28.7351 35.5065 26.0351 32.9065C24.4851 34.4565 22.1851 35.1065 20.0351 35.1065ZM25.9851 53.2565C24.6851 52.7065 23.3851 51.8065 22.6351 50.5565C22.5369 50.5958 22.438 50.636 22.3384 50.6765C21.1716 51.1512 19.9133 51.6632 18.4851 51.1565C14.7351 49.4065 13.6351 47.9565 16.2851 44.3565C17.1351 43.2065 20.3851 39.0065 21.8851 39.8065C22.1851 39.9565 24.1351 41.3065 23.5351 41.4565C21.3851 42.5065 19.7851 44.5565 18.4851 46.5065C17.9351 47.3065 17.4851 48.2565 17.3851 49.2565C17.3518 49.3232 17.3684 49.3398 17.4351 49.3065C19.5631 49.356 21.2014 47.9359 22.6891 46.6464L22.7351 46.6065C23.5851 46.8065 24.3351 47.4565 24.9351 48.1065C24.9518 48.1398 24.974 48.1676 24.9962 48.1954C25.0407 48.2509 25.0851 48.3065 25.0851 48.4065C25.0598 48.5667 25.0317 48.7283 25.0033 48.8911C24.8636 49.6937 24.7189 50.5251 24.8851 51.3565C27.3351 50.7565 28.9351 48.4065 30.2351 46.4065C30.3155 46.0849 30.6222 46.2804 30.8433 46.4214C30.8971 46.4558 30.9459 46.4869 30.9851 46.5065C32.6011 47.5631 32.556 47.7312 32.4464 48.1393C32.3797 48.3878 32.2891 48.7252 32.5351 49.4065C35.5851 50.5565 38.9851 47.8065 38.5851 44.5565C38.4851 43.4065 38.1851 40.8065 36.8851 40.5565C35.8852 40.3065 34.8352 40.2065 33.7853 40.1065L33.7851 40.1065C32.8851 39.7565 31.9351 39.1065 31.4851 38.2565C31.4851 38.136 31.7108 38.1768 31.8256 38.1975C31.8538 38.2026 31.8753 38.2065 31.8851 38.2065C34.0851 38.4065 36.3351 38.8565 37.9851 40.3565C44.3851 45.6065 39.1851 55.5065 31.7351 49.6065C30.5351 51.4565 28.5351 54.1065 25.9851 53.2565ZM49.335 48.2565C46.785 47.4065 44.735 45.2565 43.735 42.7565C43.6444 42.4442 43.5131 42.0894 43.3838 41.7397C42.8713 40.3537 42.389 39.0496 44.585 40.8065C45.5493 41.4136 45.6972 42.0462 45.8853 42.8501C45.9605 43.1717 46.0421 43.5207 46.185 43.9065C46.435 44.6565 46.735 45.3565 47.185 46.0565C47.3541 46.3946 47.9161 46.304 48.3276 46.2377C48.4029 46.2255 48.4731 46.2142 48.535 46.2065C50.6878 45.7566 51.4571 43.9647 51.9311 42.8608C52.1947 42.2468 52.367 41.8457 52.635 42.0065C53.0683 42.1581 53.4265 42.4506 53.7828 42.7414C54.2488 43.1219 54.7116 43.4998 55.335 43.5565C57.385 43.9565 59.785 43.7065 61.285 42.1065C62.635 40.6065 62.485 38.0565 61.135 36.6065C61.1262 36.5887 61.111 36.5647 61.0935 36.5369L61.0934 36.5369C61.012 36.4079 60.8794 36.1976 61.085 36.1565C61.3924 36.1565 61.6702 36.3336 61.9413 36.5064C62.0229 36.5585 62.104 36.6102 62.185 36.6565C63.585 36.8565 65.285 36.7065 66.285 35.6565C67.085 34.6065 66.335 33.2565 65.585 32.4065C64.7748 31.6367 63.5378 31.5892 62.406 31.5456C62.141 31.5354 61.8817 31.5255 61.635 31.5065C59.535 31.6565 58.385 31.0565 56.935 29.5065C56.2393 28.718 56.6622 28.747 57.3657 28.7952L57.3664 28.7952L57.4705 28.8023L57.535 28.8065C57.7617 28.8202 57.9903 28.8321 58.22 28.844C59.6621 28.9187 61.148 28.9958 62.485 29.5565C67.385 31.3065 74.385 39.7065 64.385 38.8065C67.635 45.4565 59.785 47.8565 54.835 44.5065C54.135 46.7565 51.935 49.0565 49.335 48.2565ZM3.98521 42.1065C3.03521 44.4565 4.93519 46.3565 6.93519 47.2065C8.58519 47.9565 10.4352 47.5565 12.0352 47.0065C12.6352 46.8565 13.1852 46.7065 13.7852 46.5065C13.9422 46.4281 13.822 46.2572 13.7388 46.1389C13.716 46.1065 13.696 46.078 13.6852 46.0565C13.0352 45.3565 12.1852 44.7065 11.2852 44.4065C10.6977 44.5436 10.1179 44.7574 9.53379 44.9727C8.62643 45.3073 7.70858 45.6457 6.73521 45.7065C6.66958 45.6901 6.56627 45.7006 6.45883 45.7116C6.23886 45.7339 6.00161 45.7581 6.0352 45.5565C5.8852 44.7065 6.0852 43.8565 6.2852 43.0065C6.30507 42.937 6.33087 42.8654 6.3571 42.7927C6.46284 42.4995 6.57556 42.187 6.33519 41.9065C4.98519 40.5065 4.68519 40.4565 2.83519 40.5565C2.98519 38.1065 5.33521 34.9065 7.73521 34.2565C8.08521 34.1565 8.38521 34.3065 8.63521 34.5065C8.78521 34.6065 9.43519 34.9065 9.08519 34.4565C6.53519 31.1065 3.23521 34.1065 1.63521 36.7065C-0.364794 39.4065 1.28521 41.1065 3.98521 42.1065ZM34.4352 89.3565C33.8851 91.0065 37.1852 93.0065 38.4852 93.5065C38.8526 93.5733 38.8184 93.2162 38.785 92.8674C38.7684 92.6941 38.752 92.5227 38.7852 92.4065C38.7852 91.1565 38.7852 89.9565 39.0352 88.7065C39.2907 87.4574 39.5905 86.2164 39.89 84.9765L39.8902 84.9757C40.0214 84.4329 40.1524 83.8903 40.2797 83.3473C41.8496 89.9728 44.779 96 49.9852 98.0565C50.6352 98.1565 50.1852 97.4565 49.9852 97.2065C49.8191 96.9297 49.6493 96.653 49.4787 96.3751C49.0331 95.6491 48.583 94.9159 48.1852 94.1565C46.3553 90.4328 45.0596 86.4828 44.2057 82.4296C45.4589 84.7113 47.0347 86.776 49.085 88.4566C49.5054 88.7981 49.9154 89.1708 50.3287 89.5463C51.4884 90.6002 52.6736 91.6774 54.185 92.1566C54.235 92.2066 54.385 92.2066 54.385 92.1066C54.385 92.0425 54.3234 91.9578 54.266 91.879C54.2338 91.8348 54.203 91.7925 54.185 91.7566C53.8062 91.4232 53.4228 91.0933 53.0391 90.7632C50.8909 88.9146 48.735 87.0595 47.335 84.5566C45.9886 82.0254 44.3377 78.8126 43.1711 75.5508C42.8641 72.287 42.8007 69.002 42.9352 65.7565C42.983 65.3503 43.0232 64.9339 43.0638 64.5126C43.2783 62.2894 43.506 59.9299 44.9352 58.2065C45.4852 57.5565 42.4352 55.6065 41.8852 55.3565C40.1765 54.136 39.3802 57.8313 39.0076 61.2608C37.9691 58.459 36.6075 56.1438 34.9352 55.2065C34.0851 54.7565 34.2352 55.2065 34.6352 55.6565C36.2852 58.5065 37.1852 61.7065 37.7352 64.9065C37.8705 65.7087 37.9759 66.5165 38.0507 67.3274C36.1378 64.0374 33.5071 60.9854 31.3852 58.6565C30.5852 57.8065 27.6352 56.2065 29.9352 58.5065C30.1092 58.7241 30.2856 58.9436 30.4636 59.1651C33.9669 63.5257 38.0869 68.6538 37.1352 74.5065C36.6959 76.7031 35.4846 78.6294 34.3153 80.489L34.3146 80.4902C34.1533 80.7467 33.9928 81.002 33.8352 81.2565C33.5619 81.719 33.271 82.1726 32.9809 82.6249C32.5811 83.2483 32.1829 83.869 31.8352 84.5065C32.4017 85.5925 33.5925 86.4109 34.6917 86.9197C34.5483 87.7195 34.4551 88.5301 34.4352 89.3565ZM51.0352 58.4566C48.1352 58.1066 45.9852 55.7566 44.6852 53.3566C44.5352 53.1566 44.6852 53.0566 44.8852 53.1566C46.2705 53.6089 46.8405 54.6207 47.3184 55.469C47.6857 56.1209 47.9985 56.6762 48.5852 56.8066C50.5627 57.1032 51.9536 55.3957 53.0479 54.0523L53.0852 54.0066C53.3281 53.6076 53.7636 53.8406 54.4084 54.1856C55.622 54.8349 57.5772 55.881 60.3852 53.8566C62.3352 52.2566 60.7352 49.7066 59.1852 48.4566C59.0352 48.3566 58.8352 47.9566 59.1852 48.0566C61.0352 48.7566 62.6352 50.3566 63.5352 52.1566C64.5852 54.5066 62.3352 56.3066 60.1352 56.6066C58.4852 56.9566 56.7852 56.2566 55.4852 55.6066C54.3852 56.9566 52.9352 58.6066 51.0352 58.4566ZM13.485 56.9066C14.485 58.3066 16.135 59.2066 17.685 59.8566C19.485 60.5066 21.585 60.4566 23.135 59.3066C23.2371 59.2045 23.3725 59.1107 23.5107 59.0151C23.7108 58.8766 23.9167 58.7341 24.035 58.5566C24.035 58.479 23.8848 58.3414 23.7706 58.2369C23.7375 58.2066 23.7075 58.179 23.685 58.1566C21.6147 56.5954 21.3874 56.762 20.5949 57.3428C20.2199 57.6177 19.7183 57.9853 18.835 58.3066C18.035 58.5066 17.085 58.6066 16.285 58.3066C15.635 57.4566 15.485 56.2566 16.085 55.3566C16.035 54.7066 13.785 53.4566 13.235 53.6066C12.9753 53.7436 12.7155 53.8849 12.4551 54.0265C10.9103 54.8666 9.33919 55.721 7.58499 55.8066C7.63499 54.6066 8.08499 53.4066 8.58499 52.3566C8.60661 52.3349 8.6469 52.3414 8.68569 52.3475C8.73665 52.3556 8.78501 52.3633 8.78501 52.3066C8.93501 51.6566 5.38502 49.4566 5.23502 50.5566C5.14039 50.812 5.02785 51.0765 4.91266 51.3472C4.41919 52.5068 3.87696 53.781 4.48502 54.9566C6.58502 57.5066 10.485 58.7066 13.485 56.9066Z" fill="black"/>
</svg>
