<svg width="84" height="89" viewBox="0 0 84 89" fill="none" xmlns="http://www.w3.org/2000/svg">
<path fill-rule="evenodd" clip-rule="evenodd" d="M28.7498 18.4428C30.0998 19.9428 32.0498 21.0928 34.0498 21.2928C36.7998 21.2928 39.2999 19.7428 41.3499 17.9928C45.8499 21.0928 52.4998 17.9428 54.3998 13.1928C54.6242 12.8114 54.9594 12.5004 55.3014 12.1831C55.7214 11.7933 56.1518 11.394 56.3998 10.8428C57.5998 8.59281 56.2499 5.89282 54.5999 4.24282C51.0499 0.692816 45.7499 -0.107187 41.0999 1.64281C40.9889 1.69035 40.7273 1.74292 40.4249 1.80368C39.7731 1.93465 38.9315 2.10374 38.9998 2.34281C39.7498 3.39281 40.9998 4.04281 42.1498 4.54281C42.5832 4.64282 43.0165 4.47615 43.4499 4.30948C43.6665 4.22615 43.8832 4.14281 44.0999 4.09281C46.6499 3.34281 49.3498 2.59281 51.9498 3.29281C52.9998 3.89281 53.3998 5.44281 53.6498 6.54281C54.0201 8.24602 53.1017 9.20892 52.1534 10.2031L52.1534 10.2031L52.1533 10.2032C51.8211 10.5515 51.4852 10.9036 51.1998 11.2928C49.6498 14.5928 46.0998 16.8928 42.4998 17.1428L42.4499 17.1512C42.3296 17.1715 42.2807 17.1797 42.2734 17.1659C42.2684 17.1565 42.2828 17.1367 42.307 17.1035L42.3071 17.1035C42.3193 17.0868 42.3339 17.0667 42.3499 17.0428C42.3961 16.9966 42.4543 16.9452 42.5169 16.89C42.7927 16.6466 43.1536 16.3281 42.9498 16.0428C42.2498 15.2428 41.2498 14.6428 40.2998 14.2428C39.7498 14.0428 39.3998 14.6428 39.1998 15.0428C37.2498 17.2428 34.2998 19.1428 31.2998 19.2928C31.0998 18.6928 31.1998 18.0928 31.3998 17.5428C31.4562 17.3925 31.6115 17.2774 31.7622 17.1658C32.0123 16.9806 32.2495 16.8049 31.9998 16.4928C31.2498 15.7428 30.2498 14.9428 29.1498 14.8428C28.9998 14.8728 28.9038 15.0108 28.8079 15.1488C28.7439 15.2408 28.6799 15.3328 28.5999 15.3928C27.7499 15.8928 26.7498 16.2928 25.7498 16.3428C25.2998 15.8428 25.5498 14.7428 25.7498 14.0928C26.8998 11.2928 29.4498 7.54282 32.7998 7.74282C32.9201 7.76 33.0582 7.82445 33.2017 7.89149C33.4759 8.01947 33.7702 8.15688 33.9998 7.99282C29.9498 3.49282 25.8998 6.04282 23.2998 10.4928C21.6998 12.7928 22.0498 15.3428 24.5498 16.7928C25.7498 17.6428 27.1999 18.4928 28.7498 18.4428ZM28.1501 42.4428C29.6501 43.4928 31.35 44.4928 33.2001 44.5428C34.7001 44.6428 36.1501 43.9928 37.3501 43.1928C37.3818 43.1611 37.4023 43.1361 37.4173 43.1178C37.4356 43.0956 37.4457 43.0833 37.4579 43.0808C37.4731 43.0777 37.4914 43.09 37.5328 43.1178C37.56 43.1361 37.5972 43.1611 37.6501 43.1928C40.2001 44.9928 43.3501 44.0428 45.5501 42.1428C46.2882 41.5629 46.5754 41.1929 46.7417 40.9787L46.7417 40.9787C46.8319 40.8624 46.8866 40.7921 46.9584 40.7589C47.0685 40.7081 47.2189 40.7447 47.6 40.8376L47.6002 40.8376C47.8153 40.89 48.1038 40.9603 48.5001 41.0428C50.8501 41.1928 53.5001 39.6928 53.8501 37.2428C54.0501 34.2428 51.0001 30.6428 48.8501 28.7928C48.5501 28.4428 45.2001 26.6428 46.5001 28.1428C48.8001 30.6928 52.7001 35.2928 48.7001 38.1428C47.0315 39.2338 46.6603 39.0069 46.0138 38.6118C45.6529 38.3912 45.2062 38.1182 44.4001 37.9928C44.1501 38.0428 44.1 38.3928 44.2001 38.5928C44.2667 38.6595 44.2501 38.7262 44.1501 38.7928C42.7001 40.5428 40.7001 42.1428 38.3501 42.3928C38.471 42.2585 38.6387 42.1206 38.8156 41.9752C39.2972 41.5793 39.8463 41.1279 39.7001 40.5428C39 39.7428 37.8501 39.0928 36.8001 38.8928C36.1001 39.0428 35.65 39.7928 35.4501 40.3928C34.2001 41.8428 31.8501 42.8428 29.9001 42.6428C28.9501 40.5428 30.4 38.1928 31.95 36.7428C31.9834 36.6928 32.0501 36.6484 32.1167 36.6039C32.2501 36.515 32.3834 36.4262 32.2501 36.2928C31.0104 34.978 29.6296 34.7922 28.1288 34.5902L28.1288 34.5902L28.1287 34.5902C27.632 34.5233 27.1222 34.4547 26.6001 34.3428C25.7501 32.2428 31.2501 28.5928 33.1001 28.0928C34.0001 27.6928 34.9501 27.5428 35.9001 27.4928C35.7829 26.9853 34.9038 26.5388 34.2384 26.2008L34.2383 26.2008L34.2382 26.2007C34.0515 26.1058 33.8816 26.0195 33.7501 25.9428C30.4501 25.1928 27.0501 27.7428 24.8001 29.8928C21.2001 32.9928 25.4501 34.7928 28.1501 35.8428C26.5501 37.6928 25.5501 40.9928 28.1501 42.4428ZM20.95 39.1928C19.25 39.2928 17.5 38.9428 16.1 38.1428C12.35 39.5928 5.75 35.0928 7.25 30.8428C7.34771 30.68 7.10599 30.6444 6.88411 30.6118C6.76536 30.5943 6.6523 30.5777 6.60001 30.5428C4.20001 29.6428 1.15 28.1428 0.75 25.3428C0.85 22.0428 3.99999 19.3928 7.04999 18.6928C8.64999 18.2928 11.65 19.3428 12.35 20.7928C12.247 20.7722 12.143 20.7505 12.038 20.7287C11.1239 20.5384 10.1418 20.334 9.19998 20.6928C6.39998 21.3928 2.09999 25.9428 4.54999 28.6928C5.84999 28.9428 7.35001 28.8928 8.60001 28.4428C9.26685 27.776 10.1183 28.3708 10.8406 28.8755L10.8406 28.8755L10.8408 28.8756L10.841 28.8757L10.841 28.8757C11.0392 29.0142 11.2277 29.1459 11.4 29.2428C12.15 29.7928 12.4 30.1928 11.3 30.4428C10.05 31.8428 9.69998 33.9928 10.45 35.7428C10.7126 36.6619 11.7798 36.4317 12.5783 36.2594C12.692 36.2349 12.8003 36.2115 12.9 36.1928C13.0333 36.1595 13.1667 36.0928 13.3 36.0261C13.5667 35.8928 13.8333 35.7595 14.1 35.8928C14.8246 36.2551 15.2842 36.5109 15.6098 36.692C15.9714 36.8932 16.1676 37.0024 16.3777 37.0633C16.6269 37.1354 16.8956 37.1396 17.4831 37.1489H17.4833C17.8626 37.1549 18.3747 37.163 19.1 37.1928C19.75 37.3928 23.3 39.4928 20.95 39.1928ZM59.1002 30.4928C56.4502 30.0928 60.9002 32.7928 61.5502 32.8428C65.7502 32.9928 70.0502 28.8428 65.5502 25.5428C64.8502 24.9428 64.0502 24.4428 63.2502 23.9428C63.2502 23.6596 63.4878 23.4755 63.7262 23.2906C63.8667 23.1817 64.0075 23.0726 64.1002 22.9428C64.254 22.789 64.4238 22.6323 64.5988 22.4709L64.5993 22.4704L64.5993 22.4704L64.5994 22.4704L64.5994 22.4703L64.5995 22.4702L64.5997 22.47C65.4483 21.6872 66.4159 20.7946 66.2502 19.5928C65.0502 17.2428 61.7002 16.3928 59.2502 16.7928C58.4502 16.9428 57.7001 17.2428 56.9501 17.5928C56.8501 17.5928 56.7002 17.6428 56.7502 17.7428C57.2502 18.3928 58.0502 18.7928 58.8002 19.0928C59.1384 19.1943 59.4538 19.0212 59.7618 18.8521C59.909 18.7712 60.0546 18.6913 60.2001 18.6428C61.3501 18.2428 62.6002 18.0928 63.8502 18.2928C63.7293 19.5421 62.6663 20.3692 61.7087 21.1143L61.7087 21.1143L61.7086 21.1144L61.7086 21.1144L61.7086 21.1144C61.4782 21.2937 61.2538 21.4683 61.0502 21.6428C59.7954 22.4096 61.3591 23.3951 62.6248 24.1928C63.1747 24.5394 63.6684 24.8505 63.8502 25.0928C66.8002 28.0428 61.9002 30.8928 59.1002 30.4928ZM21.55 52.6428C19.75 52.4428 17.85 51.4428 16.75 49.9428C16.7167 49.7762 16.65 49.7428 16.55 49.8428C14.35 50.2928 11.95 49.2428 10.5 47.6428C9.39423 45.9842 10.1565 43.8585 10.7916 42.0874L10.7916 42.0873L10.7917 42.087L10.7919 42.0866C10.8459 41.9359 10.899 41.7878 10.95 41.6428C11.2 41.4928 12.7 42.2928 12.65 42.5928C12 44.4428 11.2 46.9428 12.6 48.6428C13.95 48.8428 15.5 48.2928 16.4 47.2428C16.5 46.8428 16.95 46.9428 17.25 47.0928C17.2995 47.1176 17.372 47.1507 17.4597 47.1909C18.0812 47.4754 19.4695 48.1109 18.9 48.5928C18.65 49.2928 18.85 50.1928 19.2 50.8928C19.2378 51.1195 19.4468 51.0322 19.6331 50.9544L19.6331 50.9543C19.6933 50.9292 19.7511 50.905 19.8 50.8928C20.0511 50.8542 20.2947 50.7111 20.5395 50.5673C20.9285 50.3389 21.3204 50.1087 21.75 50.2928C21.819 50.3247 21.8975 50.3599 21.9831 50.3982C22.7037 50.7213 23.9212 51.2671 24.1 51.8928C23.9968 51.9379 23.8928 51.9847 23.788 52.0319L23.7875 52.0321C23.0796 52.3507 22.3337 52.6864 21.55 52.6428ZM59.05 43.0928C59.1 43.9428 62.4 45.6428 63.3 45.5928C67.25 45.6428 66.7 42.9928 64.3 40.9428C65.95 39.9928 66.95 38.4928 65 37.0928C63.25 35.7928 61.2 34.5928 59.05 34.1428C58.6 34.1928 59.5 34.8928 59.6 34.9428C60.1755 35.4463 60.9061 35.7687 61.6059 36.0776L61.606 36.0776L61.606 36.0776L61.6061 36.0777L61.6062 36.0777L61.6065 36.0778L61.6068 36.0779L61.6072 36.0781L61.6075 36.0782C61.88 36.1985 62.1479 36.3167 62.4 36.4428C62.65 37.4428 61.7 38.1928 61 38.6428C60.3378 38.9077 60.8123 39.3691 61.4124 39.9525C61.945 40.4704 62.5765 41.0845 62.6 41.7428C62.75 42.6928 61.8 43.0428 61.05 43.1428C60.725 43.1928 60.3875 43.1553 60.05 43.1178C59.7125 43.0803 59.375 43.0428 59.05 43.0928ZM49.5147 56.442L47.5719 60.8064C46.4036 58.7358 44.3786 57.0418 42.5608 55.5211C42.3883 55.3768 42.2178 55.2342 42.0499 55.0928C41.761 54.8564 41.472 54.6234 41.1839 54.3911C40.3754 53.7393 39.5741 53.0933 38.7999 52.3928C38.425 52.0554 38.0657 51.6992 37.7072 51.3438C36.6313 50.2773 35.5626 49.2179 34.1 48.6928C32.2562 47.9465 33.5729 49.2045 34.2601 49.861L34.2603 49.8611L34.2614 49.8622L34.2615 49.8623C34.3564 49.953 34.4393 50.0321 34.5 50.0928C35.6712 51.2419 36.9693 52.2543 38.2693 53.2681C39.9106 54.5481 41.5548 55.8303 42.9499 57.3928C45.0655 59.4769 45.2269 61.5808 44.8697 63.8559C43.9655 63.4794 43.032 63.1563 42.1015 62.8342C41.9175 62.7705 41.7336 62.7068 41.55 62.6428C38.9 61.7428 36.05 61.2428 33.2 61.5428C31.25 61.7428 28.8 62.9428 28.8 65.1928C28.941 66.367 29.9202 67.2324 30.7844 67.9962L30.857 68.0603L30.95 68.1428C32.85 69.6928 35.1001 71.1928 37.6001 71.5928C38.9893 71.7805 40.435 71.7145 41.8735 71.6488L41.8747 71.6488L41.8756 71.6487C42.1248 71.6373 42.3738 71.6259 42.6223 71.6159C42.0251 72.9592 41.5445 74.2968 41.25 75.5928C42.65 74.1928 44.1 72.8428 45.65 71.5928C45.75 71.5262 45.8333 71.4595 45.9 71.3928C45.9042 71.3887 45.9083 71.3848 45.9125 71.3811C45.9289 71.3668 45.9453 71.3564 45.9617 71.3502C45.9659 71.3486 45.97 71.3472 45.9742 71.3462L45.9809 71.3447L45.9858 71.3438L45.9928 71.3431L45.9998 71.3428H46L46.0001 71.3428L46.0358 71.3142C46.0736 71.2839 46.1125 71.2527 46.1522 71.2216C46.0883 72.1599 45.8904 73.0893 45.4498 73.9429C44.6062 75.4512 43.4227 76.7112 42.2401 77.9701C41.1099 79.1734 39.9806 80.3756 39.1499 81.7928C38.6499 82.1929 40.5998 83.2429 40.9498 83.2928C41.0685 83.2928 41.1246 83.2302 41.1924 83.1545C41.2103 83.1346 41.229 83.1137 41.2499 83.0929C42.2999 81.8929 43.3498 80.7429 44.4498 79.5929L44.6081 79.435L44.7567 79.2871C45.0558 78.9895 45.359 78.6879 45.6564 78.379C45.5448 78.9762 45.4706 79.5799 45.4502 80.1928C45.3502 82.2428 45.9002 84.2428 46.8002 86.0428C47.3002 87.3428 48.6002 88.1928 49.8502 88.6928C50.1002 88.7428 50.0502 88.4928 50.0002 88.3928C49.7002 87.7262 49.4335 87.0595 49.2002 86.3928C48.2478 83.9439 47.9125 81.2482 48.2314 78.6415C48.4972 79.9619 48.9047 81.2999 49.4498 82.6928C49.6447 83.1888 49.8081 83.6973 49.9713 84.205C50.2688 85.1305 50.5655 86.0534 51.0498 86.8928C51.6998 87.5428 52.4498 88.0428 53.2998 88.2928C53.3998 88.2928 53.4998 88.2928 53.4998 88.1928C53.3498 87.7928 53.1998 87.3802 53.0498 86.9676C52.8998 86.5552 52.7498 86.1428 52.5998 85.7428C51.2489 82.4707 50.2225 79.7753 49.9966 76.8666C50.7084 78.2019 51.4052 79.549 51.7499 81.0428C51.9999 81.9428 53.8499 82.8428 54.6999 83.0928C55.053 83.1634 54.9323 82.8599 54.8309 82.6051C54.7887 82.4991 54.7499 82.4016 54.7499 82.3428C54.3386 80.9505 53.5868 79.7385 52.8368 78.5293L52.8367 78.5292C52.4016 77.8277 51.9671 77.1271 51.5999 76.3928C51.0605 75.35 50.9866 74.2037 50.9133 73.0656C50.8876 72.6672 50.862 72.2699 50.8165 71.8783C50.9677 72.0438 51.1241 72.2075 51.2854 72.3687C51.4206 72.51 51.5588 72.6514 51.7002 72.7928L51.6874 72.7559C53.8979 74.8098 56.8872 76.3826 59.7499 76.3428C61.0468 76.2411 62.2532 75.7902 63.4611 75.3387L63.4612 75.3387C64.6283 74.9024 65.7969 74.4657 67.0499 74.3428C69.2999 76.7928 71.9499 79.1928 75.1499 80.3428C78.0499 81.2928 82.0999 80.6428 83.8499 77.9428C84.0999 76.4928 79.5999 72.8428 78.2499 72.2428C77.9499 72.0428 77.2999 71.6428 76.9999 72.0428C75.6999 73.2928 74.1999 74.4928 72.4499 74.9428C71.6499 75.1928 70.7999 75.2928 69.9999 75.0428C69.8999 74.9928 69.7999 74.8428 69.6999 74.6928C68.0999 72.7428 66.0999 70.8428 63.6999 69.9928C61.7257 69.547 60.0151 70.4802 58.3098 71.4105C57.3374 71.9409 56.3668 72.4704 55.3499 72.7428C52.9925 73.3103 51.6642 72.3151 50.8659 70.4226L51.1771 70.4077C55.0053 70.2248 58.9709 70.0354 62.4501 68.3428C69.1001 64.6928 70.2501 60.0928 62.9001 56.4428C59.1501 54.2928 55.5501 57.4928 53.5001 60.4428C52.9081 61.2389 52.3244 62.0518 51.7627 62.8812C51.7759 62.2926 51.7498 61.6986 51.6768 61.0989L51.6927 61.0277C52.8355 58.8985 53.8743 56.7212 54.35 54.3428C55.05 51.3428 54.8 48.2928 54.5 45.2428L52.4774 49.7865C52.0206 47.6082 50.9628 45.9292 48.95 45.2928C50.7117 48.9517 50.433 52.5698 49.5147 56.442ZM38.1 8.64279C38.55 9.54279 39.6 10.1928 40.55 10.5428C40.8 10.5928 40.65 10.3428 40.55 10.2428C40.5083 10.1593 40.423 10.0932 40.3414 10.0301C40.2275 9.94188 40.1209 9.85931 40.15 9.74279C40.3 9.39279 40.65 9.09279 41.05 9.09279C41.25 9.14279 41.1 8.89279 41.05 8.84279C40.4 8.19279 39.25 7.14279 38.4 7.94279C38.2 8.14279 38.05 8.39279 38.1 8.64279ZM15 25.7928C15.25 27.5428 17.5 28.6428 19.05 28.9428C19.5 28.9428 18.95 28.4428 18.8 28.3428C18.4 27.9428 17.9667 27.6095 17.5 27.3428C17.4 27.3428 17.3833 27.2928 17.45 27.1928C17.4833 26.9262 17.55 26.6595 17.65 26.3928C17.6792 26.3343 17.7085 26.272 17.7385 26.2082L17.7385 26.2082C17.8623 25.9444 17.9987 25.6538 18.2 25.4928C18.25 25.4928 18.35 25.5428 18.45 25.5928C19.05 25.8928 18.9 25.4428 18.65 25.1928C16.9 23.3928 15.4 22.5928 15 25.7928ZM40.8999 34.2428C39.4499 33.8428 37.8999 33.0428 37.1499 31.6928C36.8499 29.2428 39.1499 31.1928 39.8999 31.9928C39.9999 32.0928 40.1999 32.3428 39.9999 32.3928C39.8499 32.4928 39.7499 32.6428 39.6999 32.8428C39.8999 32.9428 41.5999 34.1928 40.8999 34.2428ZM52.15 22.8928C51.05 24.2928 53.65 25.6428 54.7 26.0428C55.1108 26.0428 54.4078 25.4353 54.0607 25.1353C53.9854 25.0702 53.9268 25.0196 53.9 24.9928C53.95 24.6428 54.35 23.9428 54.8 24.0428C54.85 24.0928 55.0501 24.0928 55.0001 23.9428C54.4501 23.1428 53 21.7928 52.15 22.8928ZM63.75 58.4928C59.8041 58.712 56.6656 62.3527 54.0647 65.3698C53.6995 65.7935 53.3448 66.2049 53 66.5928C55.85 66.3428 58.75 65.7428 61.15 64.1428C62.75 63.0928 64.45 61.3928 64.1 59.2928C64.0885 59.2582 64.077 59.1918 64.063 59.1112C64.0163 58.8422 63.9424 58.4158 63.75 58.4928ZM37.0131 67.9336C36.3948 67.9275 35.7725 67.9213 35.1502 67.9428H35.0002C34.9669 67.9428 34.9502 67.9261 34.9502 67.8928C36.0002 65.7928 38.5002 65.2428 40.6502 65.2428C42.2002 65.1928 43.8502 65.2928 45.3002 65.6428C43.6502 66.8928 41.5002 67.6428 39.4502 67.8928C38.651 67.9499 37.8356 67.9418 37.0131 67.9336Z" fill="black"/>
</svg>
