<svg width="213" height="174" viewBox="0 0 213 174" fill="none" xmlns="http://www.w3.org/2000/svg">
<path fill-rule="evenodd" clip-rule="evenodd" d="M102.6 27.3555C100.555 26.3721 100.552 25.5126 100.546 23.9979C100.544 23.5871 100.543 23.1282 100.5 22.6055C100.48 21.7845 100.462 20.9614 100.443 20.1372V20.1367C100.398 18.0989 100.353 16.0537 100.276 14.0136C98.3969 14.0707 96.5194 14.1866 94.6498 14.4054L94.5998 14.4554C94.1631 14.3681 93.8026 14.0518 93.4851 13.7732C93.4392 13.7329 93.3941 13.6934 93.3498 13.6554C93.3347 13.6403 93.3161 13.6228 93.2958 13.6038C93.1822 13.4971 93.015 13.3403 93.0998 13.2554C93.7297 13.0586 94.3905 12.9857 95.0336 12.9148C95.2073 12.8957 95.3797 12.8767 95.5498 12.8554C97.1107 12.6899 98.6604 12.5467 100.209 12.4312C100.178 11.7549 100.142 11.0795 100.1 10.4054C100.05 9.3776 99.9732 8.34426 99.8958 7.30906L99.8957 7.30806V7.30799C99.7398 5.22138 99.5833 3.12724 99.6501 1.05544C99.5001 0.0554379 101.35 1.80546 101.45 2.10546C101.423 5.37157 101.712 8.63769 102.001 11.9115C102.013 12.0437 102.025 12.1759 102.036 12.3081C103.154 12.2411 104.274 12.1895 105.4 12.1554C105.564 12.1554 105.736 12.1366 105.91 12.1176C106.372 12.0672 106.85 12.015 107.25 12.3054C107.6 12.4054 109.85 14.0554 108.8 14.0054C108.467 14.0019 108.135 13.9981 107.802 13.9943C105.933 13.973 104.057 13.9517 102.181 13.9741C102.362 16.1298 102.515 18.2895 102.55 20.4555C102.65 22.4888 102.717 24.5388 102.75 26.6055C102.734 26.6702 102.749 26.7769 102.765 26.8899C102.799 27.1259 102.837 27.3893 102.6 27.3555ZM68.3501 67.5555C67.8001 67.3555 66.7001 66.5555 67.0501 66.1555C69.4501 63.0555 72.15 60.3055 74.95 57.6555L75.6037 57.0211C80.5348 52.2356 85.4426 47.4728 89.8001 42.2055C92.4501 39.0055 95.1501 35.8055 98.1501 32.9055L98.2114 32.8441C99.5514 31.5033 101.23 29.8236 103.2 31.0055C106.225 32.5178 108.711 34.8539 111.188 37.1814L111.189 37.1819C111.823 37.7783 112.458 38.3742 113.1 38.9555C117.4 42.9555 121.75 46.9555 126.15 50.9055C129.7 54.1555 133.5 57.1054 137.45 59.8554C138.008 60.3311 138.673 60.753 139.345 61.1793C140.722 62.0525 142.129 62.9443 142.7 64.3554C134.95 59.9554 128 53.7055 121.4 47.6555C117.301 43.9063 113.252 40.1071 109.203 36.308L109.203 36.3078L109.2 36.3055C104.36 31.5124 103.528 32.3495 99.5227 36.3801C99.308 36.5961 99.0841 36.8214 98.8501 37.0555C96.9232 38.9824 95.0971 41.001 93.2698 43.021L93.2698 43.0211L93.2698 43.0211L93.2697 43.0211L93.2697 43.0212L93.2696 43.0212L93.2696 43.0213L93.2695 43.0213L93.2695 43.0214L93.2694 43.0214L93.2694 43.0215L93.2693 43.0215L93.2693 43.0216L93.2692 43.0216L93.2692 43.0217L93.2692 43.0217L93.2691 43.0217L93.2691 43.0218L93.269 43.0218L93.269 43.0219L93.2689 43.0219L93.2689 43.022L93.2688 43.022L93.2688 43.0221L93.2687 43.0221C90.829 45.7191 88.3871 48.4185 85.7 50.9055C83.8812 52.6302 81.9985 54.3107 80.1136 55.9932C75.9875 59.6759 71.8508 63.3683 68.3501 67.5555ZM135.65 155.855C136 158.505 136.7 161.205 139.35 162.355C138.746 157.658 138.046 152.846 137.337 147.972L137.337 147.972C135.699 136.714 134.013 125.126 133.35 113.855C132.93 105.575 133.158 97.2952 133.386 89.0151C133.538 83.4952 133.69 77.9752 133.65 72.4553C133.9 71.8053 129.75 67.4053 129.95 69.2053C130.087 75.5871 129.955 81.9689 129.824 88.3507C129.714 93.6689 129.605 98.9871 129.65 104.305C129.95 117.255 131.6 130.105 133.4 142.905C134.05 147.255 134.75 151.605 135.65 155.855ZM78.5777 153.78C78.0888 156.741 77.7208 158.97 81.5501 161.055C83.2753 150.658 84.2612 139.216 85.1974 128.353L85.1974 128.353C85.2651 127.567 85.3326 126.784 85.4 126.005C86.35 113.055 85.15 100.105 83.65 87.2054C83.35 84.3387 83.0667 81.4553 82.8001 78.5553C82.7408 78.042 82.7108 77.515 82.6808 76.9879C82.5589 74.8451 82.4367 72.6993 80.35 71.4554C80.3073 71.4211 80.2615 71.381 80.2131 71.3386C79.9788 71.1331 79.6816 70.8725 79.35 70.9554C79.3217 71.4944 79.3577 72.0496 79.3942 72.6117C79.422 73.0402 79.45 73.4728 79.45 73.9054C79.7421 78.6347 80.1658 83.364 80.5897 88.0954L80.5897 88.0956L80.5897 88.0958L80.5897 88.0961L80.5897 88.0963L80.5898 88.0965L80.5898 88.0967L80.5898 88.097L80.5898 88.0972L80.5899 88.0974L80.5899 88.0976L80.5899 88.0979L80.5899 88.0981L80.59 88.0983L80.59 88.0986L80.59 88.0988L80.59 88.099L80.59 88.0993L80.5901 88.0995L80.5901 88.0997L80.5901 88.0999V88.1001V88.1002V88.1003V88.1004V88.1005V88.1006V88.1007V88.1009V88.101V88.1011V88.1012V88.1013V88.1014V88.1015V88.1017V88.1018V88.1019V88.102V88.1021V88.1022V88.1023V88.1025V88.1026V88.1027C81.6898 100.377 82.7909 112.665 81.6 125.005C80.9 133.605 79.95 142.155 78.95 150.705C78.9017 151.817 78.7335 152.836 78.5777 153.78ZM70.1002 70.5554C69.4002 70.9554 70.9502 72.0554 71.4002 72.2554C73.8947 69.9576 76.4555 67.696 79.0249 65.4268C86.9106 58.4627 94.8768 51.4275 101.25 43.0554C101.85 42.4554 101.5 42.1554 100.95 41.7054C100.35 41.1054 100.2 41.3054 99.8502 41.9054C95.5173 47.8104 90.0376 52.745 84.5837 57.6564L84.5837 57.6564L84.5836 57.6565C82.9258 59.1494 81.2703 60.6402 79.6502 62.1554C76.5002 65.0054 73.3502 67.8554 70.1002 70.5554ZM138.1 68.6054C125.1 64.6054 113.85 56.0054 106.15 44.8554C105.2 43.2554 107.6 45.4555 107.7 45.9055C112.6 52.9555 119.05 58.7055 126.75 62.4555C129.618 63.9623 132.722 64.9966 135.787 66.0177L136.05 66.1054C136.6 66.3554 138.8 68.3554 138.1 68.6054ZM88.6999 94.3553C88.1499 95.0553 91.5499 98.1554 92.5999 97.7554C97.3248 97.6154 102.05 97.3039 106.775 96.9924C108.8 96.8589 110.825 96.7254 112.85 96.6053C116.75 96.2553 120.65 95.8054 124.55 95.2054C126.2 95.2554 122.8 92.1554 122.15 92.1554C113.547 93.4895 104.902 93.8501 96.2528 94.2108L96.2484 94.2109L96.2439 94.2111L96.2395 94.2113C95.493 94.2424 94.7464 94.2736 93.9999 94.3054C93.6589 94.3151 93.316 94.3268 92.972 94.3384L92.9715 94.3385L92.9711 94.3385L92.9702 94.3385L92.9694 94.3385L92.9685 94.3386L92.9677 94.3386L92.9668 94.3386H92.9667H92.9666H92.9665H92.9664H92.9663H92.9662H92.966H92.9659H92.9658H92.9657H92.9656H92.9655H92.9654H92.9652H92.9651H92.965H92.9649H92.9648H92.9647H92.9646C91.5453 94.3868 90.1065 94.4358 88.6999 94.3553ZM95.7 155.005C91.0167 151.956 92.528 142.896 93.7457 135.597C94.205 132.844 94.6226 130.341 94.65 128.505C94.7 125.455 95.35 123.405 98.65 122.705C101.382 122.014 104.18 121.865 106.985 121.715L106.986 121.715C108.441 121.637 109.898 121.559 111.35 121.405C113.733 121.28 116.081 120.805 118.423 120.331C118.882 120.238 119.341 120.146 119.8 120.055C121.25 120.655 122.65 122.205 122.45 123.855C122.5 127.855 122.525 131.855 122.55 135.855C122.575 139.855 122.6 143.855 122.65 147.855C122.65 148.856 122.705 149.857 122.76 150.847L122.76 150.848C122.795 151.49 122.83 152.126 122.85 152.755C122.105 152.673 121.497 151.973 120.969 151.366L120.969 151.365L120.968 151.365L120.967 151.364C120.858 151.238 120.753 151.117 120.65 151.005C120.107 150.498 120.114 149.755 120.122 149.041C120.125 148.77 120.128 148.503 120.1 148.255C120 145.405 120.05 142.505 120.1 139.655L120.101 139.518C120.151 133.915 120.2 128.36 120.2 122.755C116.811 123.595 113.351 123.841 109.894 124.087C107.587 124.251 105.281 124.415 103 124.755C97.5655 125.435 97.3814 127.386 96.9863 131.574L96.9862 131.575C96.9452 132.011 96.9018 132.47 96.85 132.955C96.6424 134.529 96.3752 136.137 96.1051 137.763C95.1391 143.579 94.1369 149.613 95.7 155.005ZM107.074 148.761C107.211 150.526 107.357 152.402 109.2 153.205C108.998 150.658 108.803 147.996 108.605 145.291L108.605 145.291V145.291L108.605 145.287C108.263 140.614 107.912 135.815 107.5 131.255C107.5 130.405 106.6 129.755 105.95 129.355C105.742 130.455 105.922 131.766 106.103 133.079C106.226 133.976 106.35 134.873 106.35 135.705C106.502 137.551 106.56 139.407 106.617 141.26C106.692 143.672 106.767 146.08 107.05 148.455C107.058 148.556 107.066 148.656 107.074 148.757L107.074 148.759L107.074 148.761ZM2.40002 107.755C1.55002 107.305 0.6 106.605 0.25 105.655C1.51095 105.197 2.83761 104.82 4.17348 104.441L4.17359 104.441L4.17372 104.441L4.17386 104.441L4.17401 104.441C5.16869 104.159 6.16846 103.875 7.15002 103.555C20.8 99.7054 34.35 95.6554 47.85 91.3054C50.8138 90.3716 53.827 89.5944 56.8427 88.8165C61.2552 87.6784 65.6731 86.5389 69.95 84.9054C70.0929 84.8527 70.2392 84.7922 70.3874 84.7308C71.2242 84.3844 72.1204 84.0134 72.8 84.9054C72.8377 84.9681 72.9036 85.0403 72.9703 85.1132C73.1693 85.3309 73.3744 85.5554 72.85 85.5554C67.9403 87.6208 62.8241 89.1131 57.7035 90.6066L57.7033 90.6066L57.7031 90.6067L57.7031 90.6067L57.703 90.6067L57.7029 90.6068L57.7029 90.6068L57.7028 90.6068L57.7027 90.6068L57.7027 90.6068L57.7026 90.6069L57.7025 90.6069L57.7024 90.6069L57.7024 90.6069L57.7023 90.607L57.7022 90.607L57.7022 90.607L57.7021 90.607L57.702 90.6071L57.702 90.6071C55.2617 91.3188 52.8205 92.0308 50.4 92.8054C34.55 98.2054 18.5 103.155 2.40002 107.755ZM1.55007 110.405C1.10007 111.005 6.65003 114.805 7.70003 114.555C10.2026 114.261 12.5839 113.394 14.9663 112.527L14.9664 112.527C16.6298 111.922 18.2938 111.317 20 110.905C29.55 108.055 39.2 105.755 49 104.055C57.4 102.455 65.7 100.505 73.95 98.1554C74.3111 98.0034 74.7589 97.9019 75.2137 97.7988C75.9555 97.6307 76.7161 97.4583 77.15 97.0554C76.5 96.0554 75.4 94.8054 74.2 94.6554C65.2664 97.7052 56.048 99.6541 46.8373 101.601C41.0983 102.815 35.3623 104.027 29.7 105.505C24.3 106.955 18.9 108.555 13.65 110.405C12.6526 110.629 11.6551 111.054 10.6536 111.48C8.74332 112.293 6.81821 113.113 4.85005 112.555C4.33662 112.32 3.89641 111.938 3.45894 111.559C2.87395 111.052 2.29385 110.548 1.55007 110.405ZM183.952 96.7964L183.952 96.7964L183.952 96.7963L183.951 96.7963L183.951 96.7962L183.951 96.7962L183.951 96.7961L183.951 96.7961L183.951 96.796L183.95 96.796L183.95 96.796L183.95 96.7959L183.95 96.7959L183.95 96.7958L183.949 96.7958L183.949 96.7957L183.949 96.7957C175.453 94.8323 166.962 92.87 158.6 90.4554C157.057 90.0283 155.522 89.5595 153.986 89.0907C149.95 87.8583 145.916 86.6263 141.75 86.1554C141.567 86.1424 141.378 86.1498 141.189 86.1572C140.653 86.178 140.119 86.1988 139.75 85.7554C135.595 82.3114 148.228 85.9864 155.469 88.0929L155.47 88.093L155.471 88.0935L155.473 88.0939C157.902 88.8004 159.723 89.3303 160.1 89.3554C166.988 91.1008 173.935 92.652 180.879 94.2026C185.075 95.1395 189.269 96.0762 193.45 97.0554C194.041 97.2414 195.132 97.4872 196.468 97.7882C201.237 98.8627 209.125 100.64 208.5 102.905C200.388 100.595 192.168 98.6952 183.952 96.7964ZM196.962 109.08C200.613 109.969 204.261 110.858 207.85 111.905C209.165 111.728 210.201 110.768 211.212 109.832C211.623 109.451 212.03 109.074 212.45 108.755C212.5 108.205 210.45 106.155 209.9 106.705C209.508 106.994 209.115 107.355 208.715 107.722C207.38 108.948 205.957 110.255 204.15 109.255C201.393 108.52 198.62 107.86 195.847 107.2L195.847 107.2L195.846 107.2L195.846 107.2L195.846 107.2L195.845 107.2L195.845 107.2L195.845 107.2L195.844 107.2L195.844 107.2L195.844 107.2L195.843 107.199L195.843 107.199L195.843 107.199L195.842 107.199L195.842 107.199C191.827 106.243 187.812 105.288 183.85 104.105C180.549 103.152 177.307 102.043 174.073 100.936C170.694 99.7796 167.323 98.6261 163.9 97.6554C161.05 96.7477 158.138 96.0895 155.231 95.4325C151.253 94.5334 147.285 93.6365 143.5 92.1053C143.417 92.1053 143.071 91.9076 142.668 91.6779L142.668 91.6775L142.667 91.6772L142.667 91.6771L142.667 91.6771C141.855 91.2136 140.816 90.6205 141.25 91.2553C142.867 93.0425 145.281 93.8519 147.535 94.6081C147.93 94.7405 148.32 94.8713 148.7 95.0053C160.5 97.8553 172.05 101.355 183.45 105.455C187.883 106.868 192.424 107.975 196.962 109.08ZM30.8 160.155C25.6 160.205 20.4 159.705 15.3 158.655C14.7535 158.549 14.1545 158.453 13.5289 158.352C9.46166 157.701 4.27003 156.869 5.05005 151.755C5.40005 142.555 5.25001 133.355 4.70001 124.155C4.60001 122.555 4.35005 120.955 4.05005 119.455C4.60672 119.498 5.09002 119.944 5.5 120.323C5.56873 120.386 5.6354 120.448 5.70001 120.505C6.4502 121.835 6.54925 123.467 6.64739 125.085C6.69316 125.839 6.73873 126.59 6.85004 127.305C7.08434 130.15 7.22902 133.018 7.37406 135.893C7.44569 137.313 7.5174 138.734 7.60004 140.155C7.79454 143.968 7.77716 147.81 7.75987 151.636C7.75493 152.727 7.75 153.818 7.75 154.905C7.7617 154.987 7.76245 155.066 7.76314 155.14C7.7654 155.379 7.76706 155.555 8.15002 155.555C9.01775 155.719 9.88548 155.888 10.7536 156.057L10.7584 156.058L10.7585 156.058C15.1914 156.922 19.6358 157.788 24.15 157.955C28.8102 158.213 33.454 158.012 38.0909 157.812C41.5632 157.662 45.0316 157.512 48.5 157.555C50.65 157.505 52.8 157.555 54.95 157.605C56.1 157.505 56.9501 158.555 57.55 159.355C57.7483 159.719 57.3133 159.667 56.9088 159.619C56.7012 159.595 56.5018 159.571 56.4 159.605C55.6254 159.605 54.8507 159.602 54.0761 159.599C51.7507 159.59 49.4254 159.58 47.1 159.655C44.5357 159.679 41.9824 159.791 39.4297 159.903H39.4295H39.4294H39.4292H39.4291H39.4289H39.4287H39.4286H39.4284H39.4283H39.4281H39.4279H39.4278L39.4263 159.903H39.4259H39.4255H39.4252H39.4248H39.4244H39.424H39.4237H39.4233H39.4229H39.4225H39.4221H39.4218H39.4214C36.5517 160.029 33.6829 160.155 30.8 160.155ZM145.75 158.905C146.25 160.205 147.45 161.255 148.65 161.905C151.982 161.763 155.313 161.561 158.645 161.359C165.863 160.922 173.082 160.484 180.3 160.655C183.706 160.614 187.103 160.909 190.496 161.203H190.496H190.496H190.496H190.496H190.496H190.497H190.497H190.497H190.497H190.497H190.497H190.497C195.272 161.618 200.036 162.032 204.8 161.505C207 161.555 207.25 159.405 207.15 157.655C207.1 154.105 207.1 150.505 207.15 146.955C207.164 144.962 207.241 142.969 207.318 140.977V140.977V140.977V140.976V140.976V140.976V140.975V140.975V140.975V140.974V140.974V140.974V140.974C207.516 135.871 207.713 130.775 206.85 125.705C206.85 123.955 206.3 122.455 204.75 121.505C204.731 121.496 204.696 121.473 204.653 121.444C204.473 121.325 204.14 121.104 204.1 121.305C204.18 121.911 204.264 122.516 204.349 123.122C204.531 124.421 204.714 125.726 204.85 127.055C205.278 131.431 205.145 135.826 205.011 140.228C204.927 143.018 204.842 145.812 204.9 148.605C204.777 149.517 204.851 150.823 204.93 152.213C205.076 154.788 205.239 157.654 204.2 158.855C199.083 159.867 193.854 159.244 188.627 158.622C185.324 158.229 182.022 157.836 178.75 157.855C168.6 157.505 158.5 158.005 148.45 158.755C148.085 158.82 147.675 158.801 147.266 158.783C146.721 158.758 146.178 158.734 145.75 158.905ZM24.15 136.955C23.6 136.905 20.5 134.855 21.15 134.405C22.0166 134.439 22.8666 134.422 23.6999 134.355C24.9 134.227 26.1001 134.071 27.3001 133.915C28.9001 133.706 30.5 133.498 32.1 133.355C32.1986 133.327 32.325 133.319 32.4557 133.31C32.7888 133.288 33.15 133.265 33.15 132.905C32.8166 129.172 32.7166 125.439 32.85 121.705C32.85 120.505 32.7999 119.255 32.4499 118.105C23.4499 116.205 22.35 123.305 24.55 130.255C24.5637 130.42 24.641 130.655 24.7194 130.894C24.9278 131.528 25.1442 132.186 24.1999 131.605C22.1878 130.643 21.8594 129.221 21.4405 127.408C21.3805 127.148 21.3188 126.881 21.2499 126.605C20.2999 123.055 19.8999 118.055 23.6999 116.055C27.7999 114.405 33.85 115.905 35.55 120.305C36.0368 122.662 35.9853 125.072 35.9337 127.487C35.8846 129.785 35.8355 132.088 36.2499 134.355C36.3999 135.355 36.3499 135.755 35.1999 135.805C34.3001 135.927 33.4032 136.066 32.5078 136.205C29.7216 136.638 26.9501 137.069 24.15 136.955ZM50.7498 133.605C51.1498 134.455 52.0998 135.055 52.9498 135.405C54.1183 135.335 55.2908 135.257 56.465 135.178C59.461 134.978 62.4683 134.777 65.4498 134.705C65.6329 134.66 65.9043 134.674 66.1918 134.69C66.8467 134.725 67.5846 134.765 67.5499 134.105C67.2426 132.093 67.4546 129.896 67.6651 127.715C68.1398 122.795 68.6073 117.949 63.0999 115.455C59.9499 114.355 55.7998 113.505 52.9498 115.655C49.7498 118.455 50.0999 123.305 52.0999 126.705C52.5999 127.705 53.6498 128.755 54.7498 128.955C54.5799 128.467 54.3288 127.969 54.0732 127.463L54.0731 127.463C53.7269 126.777 53.3724 126.074 53.1998 125.355C52.4998 122.805 53.0498 119.855 54.8998 117.955C57.0889 115.815 60.4611 116.42 63.2208 116.914L63.4498 116.955C65.8998 116.955 65.3569 123.126 65.0927 126.129C65.0496 126.619 65.0139 127.025 64.9998 127.305C64.7883 128.744 64.9705 130.182 65.1528 131.621C65.1859 131.882 65.219 132.144 65.2498 132.405C65.3356 132.834 65.0169 132.822 64.7037 132.809C64.6516 132.807 64.5997 132.805 64.5499 132.805C61.1999 132.855 57.7998 133.055 54.4498 133.305C53.9495 133.368 53.4232 133.387 52.8961 133.406C52.1589 133.433 51.4204 133.46 50.7498 133.605ZM150.15 138.255C149.5 138.505 146.7 136.405 147.2 136.005C148.358 136.181 149.515 136.061 150.69 135.939C151.19 135.887 151.693 135.835 152.2 135.805C153.702 135.693 155.233 135.665 156.77 135.636L156.777 135.636C157.285 135.627 157.792 135.618 158.3 135.605C159 135.605 159.25 134.955 159.35 134.355C159.95 129.655 160.1 124.855 160.2 120.055C160.35 115.405 159.2 112.655 153.95 113.655C147.45 116.505 147.85 126.155 149.55 131.955C150.3 133.755 146.7 130.705 146.9 130.055C144.65 123.455 145.85 108.555 155.95 111.755C160.05 113.255 163.2 117.205 163.05 121.655C163.1 126.255 162.7 130.855 162.3 135.405C162.15 137.155 161.95 138.255 159.9 138.005C158.127 137.924 156.355 138.02 154.582 138.117C153.105 138.198 151.627 138.278 150.15 138.255ZM182.75 138.455C185.25 138.355 187.75 138.505 190.2 138.655C192.373 138.737 192.058 135.895 191.847 133.986L191.847 133.986C191.801 133.567 191.759 133.193 191.75 132.905C191.45 130.405 191.2 127.955 190.95 125.455C190.75 122.355 190 119.205 187.7 116.955C185.25 114.405 183.15 114.555 180.35 116.455C177.3 118.355 175.45 121.705 175.15 125.255C174.85 127.255 175.3 129.205 175.85 131.105C175.95 131.805 176.45 132.305 176.95 132.755C177.3 133.055 177.65 133.355 178.05 133.555C178.4 133.705 178.4 133.505 178.25 133.255C177.95 132.205 177.7 131.155 177.5 130.105C177 126.405 178.2 122.405 180.95 119.855C182.5 118.505 184.5 116.955 186.65 117.155C186.7 117.155 186.9 117.155 186.95 117.205C186.975 117.23 187 117.268 187.025 117.305C187.05 117.343 187.075 117.38 187.1 117.405C188.233 119.279 188.531 121.456 188.82 123.573L188.82 123.574L188.82 123.577L188.821 123.58L188.821 123.584C188.864 123.893 188.906 124.2 188.95 124.505C189.25 127.005 189.6 129.555 189.95 132.055C189.982 132.37 190.026 132.688 190.071 133.009L190.071 133.009C190.24 134.219 190.414 135.459 189.9 136.605C189.553 137.299 188.756 137.278 188.061 137.261L187.955 137.258L187.897 137.257L187.841 137.256C187.81 137.256 187.78 137.255 187.75 137.255C186.032 137.169 184.33 137.28 182.635 137.391C181.371 137.473 180.111 137.555 178.85 137.555H178.85C177.8 137.555 176.8 137.555 175.75 137.455C175.723 137.455 175.693 137.452 175.665 137.448C175.588 137.439 175.527 137.432 175.6 137.505C175.85 137.905 176.2 138.255 176.7 138.255C177.434 138.322 178.184 138.372 178.95 138.405C180.217 138.472 181.484 138.489 182.75 138.455ZM101.4 90.7054C99.75 90.7554 97.7 88.8054 96.9 87.4554C96.7872 87.1169 97.0421 87.1745 97.2605 87.2238L97.2606 87.2238C97.3325 87.2401 97.4004 87.2554 97.45 87.2554C100.415 87.1848 103.379 86.8153 106.344 86.4457C107.58 86.2917 108.815 86.1378 110.05 86.0054C110.21 85.8048 110.146 85.5077 110.088 85.2431C110.074 85.1779 110.06 85.1147 110.05 85.0554L109.992 84.7632C109.661 83.1156 109.339 81.5051 109.15 79.8054C109 78.1855 108.904 76.5655 108.808 74.9456L108.808 74.9441C108.744 73.8645 108.68 72.785 108.6 71.7054C108.586 71.4928 108.574 71.2784 108.563 71.0629C108.488 69.7075 108.411 68.3134 107.85 67.1054C107.2 65.7054 104.4 66.1554 103.2 66.7554C100.2 68.0054 98.85 71.2054 98.8 74.3054C98.6 76.8554 99.05 79.4054 99.65 81.9054C100 83.0554 97.35 80.7554 97.2 80.4554C96.5521 79.2739 96.398 77.8018 96.2507 76.3936C96.2048 75.9544 96.1594 75.5214 96.1 75.1054C95.6 70.3554 97.05 64.2554 102.65 63.7054C106.1 63.6554 109.75 66.7554 111.15 69.7554C111.885 72.5466 112.056 75.4337 112.227 78.3228V78.3229C112.405 81.3337 112.584 84.3466 113.4 87.2554C113.908 88.9371 113.469 88.9975 112.463 89.1354L112.463 89.1355C112.183 89.1739 111.859 89.2183 111.5 89.3054C110.329 89.4627 109.158 89.6566 107.985 89.851L107.985 89.851C105.802 90.2125 103.612 90.5753 101.4 90.7054ZM109.6 140.105C110.05 140.905 110.95 141.455 111.8 141.805C112 141.855 112 141.705 111.95 141.555C111.9 141.255 111.9 140.956 111.9 140.656V140.655C111.5 139.905 110.55 139.305 109.75 139.005C109.65 138.955 109.55 139.055 109.6 139.205V140.105ZM103.9 142.555C103.1 142.255 102.4 141.705 101.8 141.105C101.45 140.855 101.45 140.455 101.5 140.055C101.55 139.955 101.6 139.955 101.7 139.955C102.5 140.255 103.2 140.805 103.8 141.355C103.9 141.455 104.1 141.655 104.1 141.805C104.067 141.939 104.067 142.072 104.1 142.205C104.1 142.226 104.101 142.248 104.102 142.271L104.102 142.272C104.108 142.418 104.116 142.598 103.9 142.555ZM101.398 160.355H101.4C110.55 160.305 119.7 160.005 128.85 159.505C129.106 159.463 128.817 159.203 128.664 159.065C128.638 159.041 128.615 159.02 128.6 159.005C126.867 157.479 125.509 157.552 123.654 157.653C123.261 157.674 122.846 157.697 122.4 157.705C118.1 157.905 113.8 158.105 109.5 158.255C107.962 158.277 106.421 158.31 104.879 158.344H104.878C99.3015 158.465 93.7009 158.586 88.1002 158.155C87.6502 158.055 87.5502 158.155 87.8502 158.505C89.2002 159.805 91.0002 160.205 92.8502 160.205C95.6496 160.355 98.549 160.355 101.398 160.355ZM99.6502 167.305L93.3502 167.155C93.1445 167.141 92.9344 167.148 92.7239 167.154C92.218 167.171 91.7092 167.188 91.2502 166.905C90.6002 166.605 88.7002 165.705 88.7002 165.055C89.4206 164.993 90.1606 165.028 90.8956 165.063H90.8957H90.8959H90.896C91.3342 165.084 91.7707 165.105 92.2002 165.105C96.7853 165.328 101.35 165.125 105.908 164.923L105.908 164.923C108.507 164.807 111.104 164.692 113.7 164.655C114.765 164.635 115.829 164.619 116.891 164.604C121.163 164.539 125.415 164.476 129.7 164.155C131.1 163.955 132.5 164.805 133.4 165.805C133.442 165.89 133.413 165.903 133.343 165.935C133.33 165.941 133.316 165.947 133.3 165.955L130.3 166.255C127.107 166.51 123.899 166.556 120.692 166.603H120.691C118.224 166.639 115.757 166.675 113.3 166.805C111.35 166.848 109.4 166.946 107.45 167.044C104.85 167.175 102.25 167.305 99.6502 167.305ZM95.2676 173.255H95.2678H95.2681C95.6372 173.251 96.0003 173.247 96.35 173.255C107.683 172.789 119.033 172.489 130.4 172.355C130.968 172.331 131.557 172.357 132.069 172.379H132.069H132.069C133.673 172.448 134.519 172.485 131.6 170.855C130.528 170.248 129.276 170.279 128.047 170.309C127.557 170.322 127.07 170.334 126.6 170.305C123.7 170.355 120.8 170.455 117.9 170.605C112.35 170.805 106.85 171.005 101.3 171.355C97.55 171.605 93.75 171.855 90.05 171.705C91.3059 173.296 93.3679 173.275 95.2676 173.255Z" fill="black"/>
</svg>
