<svg width="154" height="211" viewBox="0 0 154 211" fill="none" xmlns="http://www.w3.org/2000/svg">
<path fill-rule="evenodd" clip-rule="evenodd" d="M98.5704 27.1931C97.5204 26.743 96.0704 25.993 95.7204 24.843C95.4704 22.593 94.9204 20.3431 94.1704 18.1431C92.9528 14.631 91.516 11.2505 90.0653 7.83728L90.0653 7.83722L90.0653 7.83714L89.7704 7.14306C88.9704 5.39306 91.7204 7.29306 92.1204 7.64306C92.8871 8.20804 93.5236 8.90331 94.1349 9.57112L94.135 9.57117C94.2811 9.73075 94.4257 9.88876 94.5704 10.0431C95.3204 10.3431 96.2204 10.5931 96.9204 10.1931C98.0891 9.08131 98.0065 7.51452 97.9233 5.93743C97.8605 4.74828 97.7975 3.55327 98.2704 2.54306C100.87 -2.00694 106.77 3.14304 107.77 6.49304C110.42 3.84304 111.77 4.49305 114.22 6.94305C115.771 9.48471 115.318 12.6574 114.907 15.5336L114.907 15.534C114.841 15.996 114.776 16.4503 114.72 16.8931C114.454 18.2931 114.17 19.6764 113.87 21.0431C113.865 21.0598 113.86 21.0764 113.855 21.093C113.851 21.1093 113.847 21.1254 113.842 21.1413L113.842 21.1415C113.813 21.2545 113.787 21.3541 113.67 21.3931C112.52 21.0431 111.37 20.193 110.67 19.243C110.799 18.6325 110.935 18.0193 111.072 17.404L111.072 17.4036L111.072 17.4032L111.072 17.4029C111.787 14.189 112.514 10.916 112.22 7.64306C112.211 7.60387 112.205 7.57428 112.2 7.55241L112.2 7.55173L112.2 7.55127L112.2 7.55105C112.193 7.51732 112.19 7.5024 112.182 7.49907C112.176 7.49644 112.167 7.5011 112.15 7.50946C112.133 7.51806 112.108 7.53056 112.07 7.54306C111.432 7.92609 110.937 8.50476 110.446 9.07922C109.975 9.62958 109.507 10.1761 108.92 10.5431C107.895 10.4498 107 9.66158 106.235 8.98809L106.234 8.98712L106.11 8.87771L106.07 8.84304C105.434 7.99393 105.177 6.96175 104.919 5.92587C104.692 5.00982 104.463 4.09087 103.97 3.29306C101.177 3.81336 101.234 6.10345 101.289 8.36438C101.335 10.2316 101.381 12.0789 99.8204 12.8931C98.1245 13.317 96.1411 12.0873 94.7845 11.2463L94.7841 11.2461C94.541 11.0953 94.318 10.957 94.1204 10.843C94.3684 11.5114 94.6212 12.1806 94.8745 12.8514L94.8747 12.8518L94.8748 12.8521L94.8749 12.8524L94.8751 12.8527L94.8752 12.853L94.8753 12.8533L94.8753 12.8534C96.4602 17.0496 98.0669 21.3034 98.6704 25.743C98.6544 25.8386 98.6892 26.0406 98.7279 26.2652C98.8106 26.7457 98.9111 27.3294 98.5704 27.1931ZM127.782 40.8152C128.738 40.8361 129.691 40.857 130.62 40.9431C139.02 40.9431 137.32 36.7931 131.37 33.6431C131.75 33.4935 132.58 33.3228 133.598 33.1133C137.006 32.412 142.526 31.2759 140.37 29.0431C138.47 27.1431 135.87 26.4931 133.37 26.0931C134.4 24.6813 135.602 23.4425 136.805 22.2038C137.646 21.3367 138.488 20.4695 139.27 19.5431C141.02 17.6431 140.37 16.5431 138.37 15.3931C136.452 13.935 134.151 14.8326 132.009 15.668L132.009 15.668C131.36 15.9212 130.725 16.1686 130.12 16.3431C124.82 18.6431 119.77 21.9931 116.17 26.5931C115.845 27.0621 115.49 27.521 115.143 27.9684C113.313 30.335 111.731 32.3793 116.02 33.8931C116.046 33.8931 116.072 33.8964 116.097 33.8996C116.169 33.9089 116.233 33.9172 116.27 33.8431C116.427 32.275 117.475 30.9835 118.475 29.7518L118.475 29.7517C118.75 29.4125 119.022 29.0778 119.27 28.7431C123.37 23.8431 129.02 20.3431 134.97 18.0931C135.383 17.9281 134.196 19.0561 133.628 19.5965L133.628 19.5966C133.507 19.7112 133.414 19.7993 133.37 19.8431C132.949 20.3112 132.479 20.755 132.008 21.2003L132.007 21.2004C130.968 22.1818 129.921 23.1705 129.37 24.4431C130.27 27.2431 134.02 28.2431 136.62 28.5931C134.605 29.6806 132.304 30.1133 130.004 30.5458C128.708 30.7894 127.413 31.0328 126.17 31.3931C125.846 31.7174 126.311 32.1074 126.631 32.3767C126.706 32.4395 126.773 32.4958 126.82 32.5431C128.006 33.7288 129.543 34.2708 131.095 34.8182C131.572 34.9864 132.05 35.1551 132.52 35.3431C133.993 38.9331 126.865 38.3287 124.085 38.093L124.085 38.0929L124.083 38.0928L124.082 38.0927C123.844 38.0725 123.637 38.055 123.47 38.0431C123.203 38.0158 122.948 37.989 122.704 37.9635C118.929 37.5686 118.006 37.4721 122.42 40.2431C124.126 40.735 125.96 40.7752 127.782 40.8152ZM73.5705 41.9929C72.6705 47.2929 74.9705 53.1929 80.6205 54.4929C87.0542 53.0737 87.2665 43.9562 87.3978 38.3198C87.4052 37.9989 87.4124 37.6893 87.4205 37.393C89.5205 39.443 99.6705 43.6929 97.1205 37.2429C92.9205 31.0429 86.0205 26.7929 78.9705 24.5929C77.1205 24.3429 81.3705 27.543 81.9205 27.693C82.0868 27.7509 82.2552 27.8093 82.4255 27.8683C86.8123 29.3894 92.4191 31.3335 93.6705 36.2429C93.3216 38.6851 90.0913 37.5006 88.585 36.9482L88.5705 36.943C88.0375 36.6185 87.5796 36.1651 87.1173 35.7073C86.5822 35.1775 86.0411 34.6417 85.3705 34.293C84.2705 33.543 83.0705 32.893 83.3205 34.893C83.2705 37.643 83.1705 40.443 82.6205 43.143C82.0205 45.743 80.9205 48.393 78.8705 50.193C78.1662 50.8973 78.1316 50.4855 78.0853 49.9358C78.0659 49.705 78.0444 49.4499 77.9705 49.2429C77.6705 46.5929 77.9205 43.7929 78.8205 41.2429C79.4705 40.0429 79.3205 39.2929 78.1705 38.4929C75.7205 36.2429 74.8705 36.393 71.9705 37.693C70.1251 38.3719 68.2918 39.0934 66.4579 39.815L66.4572 39.8153C63.0245 41.166 59.59 42.5175 56.0705 43.5929C57.8916 42.0094 59.9321 40.6766 61.9686 39.3464C62.5042 38.9966 63.0395 38.647 63.5705 38.293C63.7436 38.1711 63.9504 38.0362 64.1751 37.8895C65.7028 36.8925 68.0577 35.3557 66.2705 33.7429C64.2635 31.5845 61.4823 30.8026 58.7303 30.029C57.8485 29.7812 56.9698 29.5341 56.1205 29.2429C54.9205 28.8429 53.7205 28.393 52.5705 27.893C52.0205 26.643 53.6205 25.743 54.5705 25.293C61.2705 22.343 69.7705 22.843 76.6205 24.893C78.6205 25.893 76.5705 23.743 75.9205 23.443C71.5705 20.443 61.0705 20.0429 55.8705 20.8429C52.1205 21.4429 44.9705 23.493 50.6205 27.643C53.8381 30.5293 58.0408 31.7589 62.0844 32.9419C62.3137 33.009 62.5425 33.0759 62.7705 33.143C61.8937 34.2341 59.7564 35.5227 57.4831 36.8932C53.9229 39.0397 50.029 41.3874 50.1205 43.4929C53.3705 48.5429 58.4205 47.6929 63.2205 45.7429C64.6564 45.3143 66.2302 44.656 67.7881 44.0043C69.8649 43.1356 71.9136 42.2786 73.5705 41.9929ZM68.6859 132.009L69.7704 132.093C79.0704 132.493 88.4204 130.693 97.4204 128.243C102.87 127.243 95.7704 123.843 93.8204 123.143C91.2519 122.229 88.5696 121.845 85.9057 121.464C85.51 121.408 85.1148 121.351 84.7204 121.293C82.5704 120.993 87.0704 123.693 87.5704 123.743C88.7205 124.018 89.908 124.193 91.0955 124.368L91.0957 124.368C92.2831 124.543 93.4705 124.718 94.6204 124.993C93.3567 125.482 92.0266 125.805 90.7112 126.125C90.4132 126.197 90.116 126.269 89.8204 126.343C83.1661 127.741 76.4187 128.954 69.5783 129.128C68.9644 127.676 68.7314 126.059 68.7283 124.436C69.0593 124.463 69.39 124.499 69.7204 124.543C71.2204 125.043 70.0204 123.743 69.4704 123.393C69.2484 123.198 69.0229 123.015 68.794 122.844C68.8695 121.919 69.0046 121.008 69.1705 120.143C69.7873 117.723 70.7642 115.439 71.7382 113.161L71.7382 113.161L71.7383 113.161L71.7383 113.161L71.7383 113.161L71.7383 113.161L71.7383 113.161L71.7384 113.161L71.7384 113.161L71.7384 113.16L71.7384 113.16L71.7385 113.16L71.7385 113.16L71.7385 113.16L71.7385 113.16L71.7386 113.16L71.7386 113.16L71.7386 113.16L71.7386 113.16C72.8174 110.637 73.8925 108.123 74.4705 105.443L74.9205 103.343C74.8955 103.293 74.8581 103.231 74.8206 103.168L74.8205 103.168C74.783 103.106 74.7455 103.043 74.7205 102.993L74.633 102.896C74.1998 102.412 73.679 101.83 73.0705 101.643C72.9372 101.776 72.8927 101.999 72.8483 102.221C72.8261 102.332 72.8038 102.443 72.7705 102.543C72.0343 105.431 70.5925 108.015 69.1534 110.594C68.0515 112.568 66.9511 114.54 66.1705 116.643C65.6756 118.128 65.3804 119.648 65.3077 121.142C64.6511 120.96 63.9804 120.838 63.2997 120.765C63.2328 119.955 63.1464 119.146 63.0204 118.343C62.7204 116.193 62.2204 114.093 61.4704 112.043C60.4437 109.084 58.9247 106.362 57.4088 103.645L57.4088 103.645L57.4087 103.645L57.4087 103.645L57.4086 103.645L57.4085 103.645L57.4085 103.645L57.4084 103.644L57.4084 103.644L57.4083 103.644L57.4083 103.644L57.4082 103.644L57.4081 103.644L57.4081 103.644L57.408 103.644L57.408 103.644L57.4079 103.643L57.4079 103.643L57.4078 103.643L57.4077 103.643L57.4077 103.643C56.4139 101.862 55.4216 100.084 54.5704 98.243C54.5079 98.0991 54.4437 97.9545 54.3792 97.8089C53.9281 96.7912 53.4579 95.7304 53.3704 94.593V94.093C53.4204 93.943 53.3204 93.843 53.2204 93.743C53.0537 93.5764 52.8704 93.4264 52.6704 93.293C52.6607 93.2882 52.6505 93.2829 52.64 93.2774C52.5427 93.2264 52.4204 93.1625 52.4204 93.343C52.2733 94.4707 52.7032 95.5984 53.0971 96.6318L53.1204 96.693C53.4749 97.8008 53.9472 98.8693 54.4329 99.9681L54.4342 99.9711L54.461 100.032C54.5141 100.152 54.5672 100.272 54.6204 100.393C54.9751 101.194 55.3455 101.992 55.7166 102.792C56.9674 105.488 58.2264 108.201 58.9204 111.093C59.6204 113.793 59.8704 116.593 59.9204 119.343C59.9365 119.737 59.9461 120.136 59.9553 120.538C57.6478 118.685 54.9041 117.372 52.0205 116.843C49.0205 116.393 46.0205 116.743 43.0705 117.193C42.5169 117.264 41.9439 117.373 41.3626 117.484C39.4762 117.845 37.5022 118.222 35.8205 117.343C32.5205 114.343 33.7205 116.843 35.9705 118.193C38.9827 120.039 42.7148 119.643 46.5591 119.235C50.6274 118.803 54.8214 118.358 58.4205 120.543C58.5232 120.659 58.6217 120.776 58.7165 120.893C56.6954 121.167 54.6682 121.661 52.7338 122.133C52.4438 122.204 52.1559 122.274 51.8704 122.343C50.9203 122.627 49.9467 122.884 49.0132 123.129C43.7079 124.526 39.699 125.581 48.6704 129.493C55.2168 130.964 61.9883 131.489 68.6859 132.009ZM65.5245 124.409C64.9143 124.445 64.3039 124.502 63.6938 124.577C64.1318 125.223 64.5258 125.897 64.8705 126.593C64.8783 126.609 64.8868 126.625 64.8958 126.642C64.9091 126.667 64.9234 126.694 64.9382 126.722L64.9385 126.722C65.1072 127.036 65.3429 127.474 64.8205 127.343C64.448 127.228 64.1092 127.097 63.7992 126.952C63.886 127.474 63.993 127.984 64.1204 128.493C64.1204 128.565 64.1496 128.663 64.1791 128.761C64.2055 128.849 64.2321 128.937 64.2382 129.009C65.356 129.079 66.4752 129.125 67.5959 129.14C66.5291 127.739 65.852 126.126 65.5245 124.409ZM60.9204 126.693C61.6341 127.585 62.5468 128.437 63.5874 128.966C60.5035 128.749 57.4289 128.365 54.3569 127.981H54.3568H54.3567H54.3566H54.3565H54.3565H54.3564H54.3563H54.3562H54.3561H54.3561H54.356H54.3559H54.3558H54.3557H54.3557H54.3556H54.3555H54.3554L54.3545 127.981H54.3544H54.3543H54.3543H54.3542H54.3541H54.3541H54.354H54.3539H54.3539H54.3538H54.3537H54.3537H54.3536H54.3535H54.3535H54.3534H54.3533H54.3532H54.3532H54.3531H54.353H54.353H54.3529L54.3517 127.981C53.1577 127.831 51.9641 127.682 50.7704 127.543C52.0777 127.235 53.3986 126.884 54.7291 126.53L54.7295 126.53L54.7295 126.53C56.5978 126.033 58.4853 125.531 60.3812 125.136C60.5121 125.671 60.6865 126.192 60.9204 126.693ZM51.1356 137.429L51.14 137.429L51.1443 137.429L51.1488 137.429C51.6753 137.449 52.1997 137.469 52.7205 137.493C53.1205 137.593 52.8705 137.243 52.7205 137.143C51.2049 135.423 49.018 135.38 46.8749 135.339H46.8745H46.8742H46.8738H46.8735H46.8731H46.8728H46.8724H46.8721H46.8717H46.8714H46.8711H46.8707H46.8704H46.87H46.8697H46.8694H46.869H46.8687H46.8684H46.868H46.8677H46.8674H46.8671H46.8668H46.8664H46.8661H46.8658H46.8655H46.8652H46.8649H46.8646H46.8643H46.864H46.8637H46.8633H46.863H46.8627H46.8624H46.8621H46.8618H46.8615H46.8612C46.393 135.329 45.9269 135.32 45.4705 135.293C45.1774 135.246 44.7377 135.209 44.219 135.166L44.2182 135.166L44.2174 135.166L44.2168 135.166L44.2164 135.166L44.2161 135.166C41.9915 134.981 38.3179 134.676 38.5205 132.893C39.0705 131.293 40.6205 129.893 42.2205 129.293C42.4205 129.393 43.0205 129.593 42.6705 129.143C40.0705 126.293 37.6705 127.843 35.7705 130.493C34.8243 132.509 37.1954 133.78 38.9567 134.724L38.9569 134.724L38.9573 134.725L38.9586 134.725L38.9592 134.726L38.9607 134.727C39.3384 134.929 39.688 135.117 39.9705 135.293C43.3942 137.137 47.3189 137.285 51.1356 137.429ZM72.7203 139.193C72.2703 139.193 69.6703 137.393 70.5203 137.393L70.7904 137.379C72.5959 137.284 74.3605 137.191 76.1703 137.143C81.7703 136.943 87.3703 136.693 92.9703 136.143C93.4239 136.073 93.9077 136.013 94.4073 135.951L94.4082 135.951L94.409 135.951L94.4096 135.951L94.4101 135.951C97.4903 135.569 101.174 135.112 102.12 131.843C102.62 129.943 101.82 127.943 100.62 126.493C100.62 126.493 100.47 126.343 100.57 126.293C102.02 126.793 103.12 129.193 103.47 130.593C103.97 132.443 103.37 134.543 101.82 135.693C100.142 136.812 98.0928 137.153 96.1198 137.482C95.8007 137.535 95.4836 137.587 95.1703 137.643C87.7203 138.693 80.2203 138.993 72.7203 139.193ZM17.3705 174.593C19.7205 184.043 28.8205 189.393 37.4205 192.343C38.0117 192.343 37.533 191.915 37.2494 191.661C37.1972 191.615 37.1516 191.574 37.1205 191.543C35.9369 190.533 34.511 189.96 33.0789 189.384C32.4541 189.133 31.8281 188.882 31.2205 188.593C28.4705 187.643 26.2205 185.743 24.5705 183.393C21.2705 178.743 20.2705 172.943 19.8705 167.393C19.2205 160.793 21.3205 154.293 24.9205 148.793C27.5205 144.643 30.4205 140.643 34.2205 137.493C34.2698 137.427 34.346 137.383 34.4155 137.343C34.5577 137.261 34.672 137.194 34.4705 136.993C34.3603 136.917 34.2401 136.823 34.1127 136.724C33.4886 136.239 32.6934 135.62 32.0705 136.243C28.8705 138.643 26.1705 141.643 23.7205 144.793C16.0705 154.043 14.2205 163.043 17.3705 174.593ZM105.32 192.893C104.32 192.493 103.12 191.893 102.57 190.943C102.719 190.765 102.903 190.604 103.091 190.44C103.219 190.328 103.349 190.215 103.47 190.093C110.22 184.193 115.72 176.293 115.62 166.993C115.47 158.193 112.87 148.843 108.22 141.343C107.32 140.043 106.32 138.793 105.17 137.693C105.07 137.543 105.22 137.543 105.37 137.593C106.871 138.218 107.92 139.538 108.922 140.8L108.922 140.801L108.925 140.804C109.124 141.055 109.322 141.303 109.52 141.543C114.72 149.043 117.57 158.243 118.47 167.243C119.47 177.693 113.52 186.993 105.32 192.893ZM23.1704 202.493C36.3204 207.493 50.5704 209.343 64.5204 210.243C71.1204 210.093 77.8204 209.843 84.3204 209.343C83.7704 208.343 82.5704 207.643 81.5204 207.093C80.67 206.88 79.7643 206.926 78.848 206.972H78.8479H78.8477H78.8475H78.8473H78.8472H78.847H78.8468H78.8466H78.8464H78.8462H78.8461H78.8459H78.8457H78.8455H78.8453H78.8451H78.845H78.8448H78.8446H78.8444H78.8442H78.844H78.8439H78.8437H78.8435H78.8433H78.8431H78.8429H78.8428H78.8426H78.8424H78.8422H78.842H78.8419H78.8417H78.8415H78.8413H78.8411H78.8409C78.2511 207.002 77.6569 207.032 77.0704 206.993C74.6063 206.993 72.1423 207.099 69.6783 207.206C66.5423 207.342 63.4063 207.477 60.2704 207.393C52.5107 206.992 44.8306 205.675 37.1946 204.367L37.1874 204.366L37.1791 204.364L37.1697 204.363L37.1593 204.361C36.2457 204.204 35.3328 204.048 34.4204 203.893C31.6976 203.283 29.063 202.496 26.3923 201.699L26.3921 201.699L26.3917 201.699L26.3912 201.698L25.8704 201.543C26.7255 201.263 27.6397 201.033 28.5698 200.8C30.957 200.201 33.4494 199.576 35.3204 197.993C36.4704 196.993 38.1204 194.743 36.3704 193.593C36.2357 193.483 36.098 193.367 35.9575 193.25L35.9541 193.247L35.9498 193.243L35.9487 193.242C34.9431 192.399 33.7891 191.431 32.5204 191.343C32.5204 194.243 29.6204 195.893 27.1204 196.643C26.0691 197.007 24.9524 197.232 23.8364 197.457C22.1924 197.788 20.5499 198.119 19.1204 198.893C19.2078 200.205 21.2854 201.403 22.641 202.184L22.6414 202.184L22.6431 202.185C22.8362 202.297 23.0145 202.4 23.1704 202.493ZM96.4204 208.143C94.9204 207.543 93.2204 206.643 92.4204 205.243C92.975 204.997 93.6244 204.902 94.2752 204.807C94.6807 204.748 95.0866 204.689 95.4704 204.593C96.2838 204.43 97.1027 204.277 97.9233 204.123C101.39 203.473 104.886 202.818 108.12 201.443C110.104 200.429 109.484 199.882 108.385 198.91C108.237 198.78 108.08 198.641 107.92 198.493C107.32 198.143 103.07 192.843 105.27 193.543C106.82 194.193 108.32 195.193 109.42 196.443C109.87 198.293 111.22 199.743 112.57 200.943C115.97 203.543 112.77 204.743 110.12 205.443C105.62 206.643 101.02 207.543 96.4204 208.143ZM59.1704 147.243C57.1704 156.443 54.3204 187.543 62.6204 192.993C62.8913 192.993 62.7493 192.741 62.6139 192.5C62.5494 192.386 62.4865 192.274 62.4704 192.193C61.5204 189.893 60.6204 187.593 60.1204 185.193C58.4704 177.043 58.7704 168.643 59.4704 160.393C59.8204 156.593 60.3704 152.843 61.1204 149.143C61.4704 148.443 59.7704 147.293 59.1704 147.243ZM74.9203 191.543C74.3203 191.293 72.4703 190.293 72.8703 189.493C74.2703 185.993 75.3703 182.343 75.7203 178.593C76.5703 168.843 74.6703 159.043 72.7203 149.543C72.681 149.399 72.6382 149.251 72.5948 149.101C72.4723 148.679 72.3441 148.236 72.2703 147.793C72.2703 147.771 72.263 147.742 72.2538 147.709L72.2477 147.687C72.2151 147.574 72.1739 147.43 72.3203 147.393C73.1703 147.643 73.9203 148.293 74.5203 148.893C76.0896 153.601 76.8062 158.65 77.5152 163.645C77.6646 164.698 77.8137 165.749 77.9703 166.793C78.9703 175.043 78.9703 184.193 74.9203 191.543ZM89.5705 187.493C89.2205 188.193 90.8205 189.143 91.3705 189.393H91.5205C98.0705 175.643 98.7705 161.693 91.7705 147.943C90.6205 146.943 89.4705 145.943 90.5205 148.243C94.8205 157.193 95.9205 167.593 93.2705 177.143C92.4058 180.375 91.1679 183.482 89.9345 186.578L89.9344 186.578L89.9344 186.578L89.9343 186.578L89.9343 186.578L89.9342 186.579L89.9342 186.579L89.9342 186.579L89.9341 186.579L89.9341 186.579L89.934 186.579L89.934 186.579L89.9339 186.579L89.9339 186.58L89.9338 186.58L89.9338 186.58L89.9337 186.58L89.9337 186.58L89.9337 186.58L89.9336 186.58L89.9336 186.581L89.9335 186.581L89.9335 186.581L89.9334 186.581L89.9334 186.581L89.9333 186.581L89.9333 186.581L89.9332 186.582L89.9332 186.582L89.7709 186.989L89.5705 187.493ZM108.52 179.643C107.72 179.243 106.27 178.443 106.32 177.443C106.486 176.817 106.662 176.194 106.838 175.572C107.35 173.76 107.86 171.954 108.12 170.093C109.129 162.361 107.139 154.722 105.208 147.308L105.208 147.307L105.208 147.306L105.208 147.306L105.208 147.305L105.208 147.304C105.128 147 105.049 146.696 104.97 146.393C104.77 145.593 104.72 145.243 105.57 145.893C106.496 146.398 106.678 147.328 106.862 148.266C106.896 148.442 106.931 148.619 106.97 148.793C107.22 149.818 107.495 150.843 107.77 151.868C108.045 152.893 108.32 153.918 108.57 154.943C110.57 162.943 111.62 171.993 108.52 179.643ZM41.1531 165.314C40.9017 172.838 40.5839 182.349 47.6204 186.893C48.0724 186.893 47.7323 186.455 47.4076 186.037C47.2294 185.808 47.0559 185.585 47.0204 185.443C43.9704 181.193 43.9704 175.843 44.0704 170.793C44.0938 170.147 44.1146 169.498 44.1354 168.847C44.3373 162.535 44.5464 155.999 47.2204 150.243C47.2824 149.974 47.4982 149.697 47.7124 149.422C48.0163 149.031 48.3171 148.645 48.1704 148.293C47.7704 147.693 45.7204 145.343 45.0204 145.993C42.0454 150.602 41.704 156.265 41.3772 161.686L41.3772 161.687L41.3771 161.687C41.314 162.735 41.2514 163.773 41.1704 164.793L41.1531 165.314ZM32.1205 179.443C27.2838 176.692 27.4484 170.357 27.5816 165.227C27.5985 164.576 27.6149 163.945 27.6205 163.343C27.7411 162.197 27.7832 160.985 27.826 159.751C27.9606 155.869 28.1026 151.776 30.7205 148.893C30.9205 148.343 33.0205 150.093 32.3205 150.293C29.3263 153.407 29.5197 160.442 29.6684 165.849C29.706 167.214 29.7407 168.475 29.7205 169.543C29.7705 172.843 30.5205 176.043 32.1205 178.943C32.2205 179.043 32.4705 179.543 32.1205 179.443ZM30.6205 97.293C28.8926 97.1449 27.5059 95.9244 26.2679 94.8347L26.2205 94.793C22.6539 91.8208 26.3743 88.6602 29.2909 86.1824C30.0542 85.534 30.7624 84.9323 31.2705 84.393C31.3286 84.3157 31.5438 84.126 31.7714 83.9254C32.132 83.6076 32.5238 83.2624 32.3705 83.293C32.2372 83.293 32.1039 83.3097 31.9705 83.343C31.3924 83.4264 30.7951 83.5234 30.1855 83.6224C25.3128 84.4135 19.6592 85.3315 16.7705 80.443C16.4153 79.1286 18.8617 77.4608 20.7742 76.157C21.5535 75.6258 22.2442 75.1549 22.6205 74.793C27.3205 71.643 32.3705 68.743 37.8705 67.393C39.2205 66.893 41.8205 69.243 42.3205 70.393C37.3205 71.643 32.5205 73.993 28.1705 76.793C26.1705 78.093 24.2205 79.443 22.4205 80.943C24.1361 80.8858 26.0805 80.5834 28.0389 80.2788C29.5051 80.0507 30.979 79.8215 32.3705 79.693C32.6103 79.6712 32.8524 79.6376 33.0942 79.6039C33.9623 79.4832 34.8276 79.3629 35.5705 79.793C35.6659 79.8522 35.7682 79.9147 35.8756 79.9802L35.8764 79.9807C37.4017 80.9117 39.9518 82.4683 38.2705 84.243C37.144 85.6124 35.7541 86.8843 34.3766 88.1448L34.3765 88.1449C32.6358 89.7378 30.9149 91.3125 29.7705 93.043C31.6626 91.9514 33.3694 90.542 35.0642 89.1425L35.0643 89.1425C35.6983 88.6189 36.3307 88.0967 36.9705 87.593C37.2436 87.4324 37.5064 87.1995 37.7721 86.9639C38.3334 86.4664 38.9079 85.9573 39.6205 86.093C41.1205 86.693 42.4205 87.793 43.3705 89.093C43.4301 89.1228 43.5253 89.0105 43.6242 88.8937C43.6912 88.8146 43.76 88.7334 43.8205 88.693C45.4426 87.3205 46.3529 85.9162 47.0386 84.8585C48.2764 82.9492 48.7822 82.169 51.4205 84.743C52.7705 81.343 50.4205 74.943 47.7205 72.543C47.5791 72.4233 47.4281 72.306 47.2749 72.1869C46.7242 71.7588 46.1444 71.308 45.8705 70.643C45.9158 70.4167 46.494 70.7232 46.6771 70.8203C46.6963 70.8304 46.7111 70.8383 46.7205 70.843C49.9705 72.843 52.6205 75.843 53.8705 79.493C55.2705 82.293 56.6705 91.343 51.1705 86.993C50.9136 87.3509 50.6533 87.7252 50.3887 88.1056C47.7706 91.8703 44.7392 96.2291 40.4705 91.143C39.7568 91.7021 39.0544 92.3291 38.3438 92.9635C36.0675 94.9954 33.707 97.1025 30.6205 97.293ZM109.27 111.043C110.42 112.943 112.52 114.693 114.77 115.143C118.22 114.993 121.67 111.593 122.07 108.243C121.02 104.743 117.12 100.193 114.17 97.993C113.42 97.393 112.27 97.193 113.42 98.343C114.003 99.1166 114.615 99.8358 115.199 100.521C117.973 103.778 120.095 106.269 115.22 110.193C112.942 111.874 112.918 111.818 112.572 110.978C112.31 110.343 111.863 109.262 110.12 108.143C108.242 106.265 106.402 107.019 104.401 107.84C104.111 107.959 103.818 108.079 103.52 108.193C103.92 106.643 103.82 104.793 102.77 103.493C101.395 101.617 99.3583 100.367 97.4441 99.1911C97.0626 98.9569 96.686 98.7256 96.3204 98.493C96.9204 95.393 100.87 93.693 103.72 93.343C104.007 93.2476 104.192 93.4756 104.378 93.7057C104.485 93.8376 104.593 93.9702 104.72 94.043C104.959 94.2132 105.205 94.4117 105.459 94.6169C106.325 95.316 107.288 96.093 108.37 96.093C108.47 92.993 103.27 89.843 100.57 89.143C97.1704 88.543 93.4704 90.293 91.4204 92.993C89.9321 96.0546 93.3258 98.3206 95.8504 100.006C96.2944 100.303 96.7115 100.581 97.0704 100.843C97.6204 101.193 98.2204 101.493 98.8204 101.793C99.2622 103.213 98.8676 104.613 98.4786 105.993C98.2512 106.8 98.0257 107.6 97.9704 108.393C98.2689 109.502 99.222 110.283 100.116 111.016C100.271 111.143 100.423 111.268 100.57 111.393C103.125 113.899 106.356 112.397 109.124 111.111L109.27 111.043ZM115.57 76.243C114.77 76.093 109.52 72.793 112.52 73.143C114.67 73.193 118.42 72.643 117.72 69.693C117.609 69.323 117.43 68.9737 117.25 68.6246L117.25 68.6245L117.25 68.6244L117.25 68.6243L117.25 68.6242L117.25 68.6241L117.25 68.6239L117.25 68.6238L117.25 68.6237L117.25 68.6236L117.25 68.6235L117.25 68.6234L117.25 68.6233L117.25 68.6231L117.25 68.623L117.249 68.6229L117.249 68.6228L117.249 68.6227L117.249 68.6226L117.249 68.6225L117.249 68.6223L117.249 68.6222L117.249 68.6221L117.249 68.622L117.249 68.6219L117.249 68.6218L117.249 68.6217L117.249 68.6215C116.944 68.0279 116.639 67.4349 116.67 66.743C116.702 65.9236 117.329 65.4618 117.964 64.9944C118.337 64.7203 118.712 64.4442 118.97 64.093C119.67 63.393 120.67 62.143 120.52 61.293C117.12 62.293 113.92 60.343 111.67 57.893C111.068 56.956 111.586 55.9517 112.084 54.9852C112.33 54.5077 112.571 54.0394 112.67 53.593L112.464 53.767C110.21 55.6675 106.869 58.4847 106.82 61.443C106.97 61.643 107.17 61.993 106.77 62.043C104.22 61.393 101.77 59.693 100.12 57.643C99.7203 54.443 103.62 51.193 105.87 49.343C110.42 45.943 114.12 46.593 118.12 50.343C120.77 52.143 119.47 55.343 118.47 57.643C121.22 58.393 124.12 60.093 125.57 62.593C126.473 65.2382 124.741 66.7019 123.281 67.9364C122.394 68.6854 121.608 69.35 121.57 70.143C124.37 75.593 120.32 76.693 115.57 76.243ZM95.0712 71.6708C94.3321 73.9418 93.906 75.2512 99.1703 77.743C101.784 78.5726 104.466 77.7848 107.017 77.0354C107.541 76.8815 108.059 76.7293 108.57 76.593C108.27 75.543 106.62 74.543 105.57 74.243C105.246 74.324 104.753 74.4831 104.166 74.6728C101.855 75.4191 98.0778 76.639 97.3203 75.443C97.2751 74.5389 97.5568 73.6656 97.8376 72.7951C98.1779 71.7399 98.5169 70.6889 98.2703 69.593C97.6802 68.0261 95.9306 67.2625 94.5079 66.6417C92.4351 65.737 91.0564 65.1354 94.9703 62.793C95.7703 62.443 96.9203 61.993 97.7203 62.643C98.1203 62.993 99.0703 63.293 98.2703 62.443C96.0703 59.793 92.0703 60.343 90.2203 63.093C89.6858 65.3133 92.4987 66.5869 94.5716 67.5254L94.5718 67.5255C95.0195 67.7282 95.4328 67.9153 95.7703 68.093C95.7554 69.5685 95.3851 70.7064 95.0712 71.6708ZM70.2704 100.593C65.2509 98.559 65.8498 97.2568 66.7421 95.3165C67.2097 94.2997 67.7579 93.1076 67.6204 91.543C65.5704 91.093 63.7204 89.993 62.2704 88.493C60.7525 86.8459 62.9269 83.8429 65.1691 81.4512C65.1182 81.4153 65.0686 81.3792 65.0205 81.3431C64.9538 81.2097 64.8872 81.1931 64.8205 81.2931C63.9205 82.2931 62.5705 82.9431 61.1705 82.8431C59.1205 82.5431 57.3705 81.0431 56.0705 79.4431C55.0705 78.0431 55.3705 76.2431 55.7705 74.6931C56.4205 72.2931 57.4705 69.6931 59.3705 68.0431C60.5124 67.2209 61.9047 68.7354 62.7468 69.6515L62.7475 69.6523C62.827 69.7387 62.9015 69.8198 62.9705 69.8931C63.7205 70.7431 62.8205 70.3931 62.4205 70.0931C62.0511 69.6415 61.412 70.5043 61.0291 71.0214C60.9455 71.1341 60.8742 71.2304 60.8205 71.2931C59.2205 73.8431 58.1705 76.9931 58.5205 80.0431C60.2205 79.9931 62.0205 78.6931 62.5705 77.0931C62.5773 77.0661 62.584 77.0363 62.5911 77.005C62.6367 76.804 62.6975 76.5363 62.8705 76.4931C63.7205 76.4931 66.0205 78.3431 66.0205 79.2431C69.7705 77.1931 72.2205 72.8431 71.8205 68.5931C71.8094 68.5487 71.786 68.4919 71.7606 68.4305C71.6718 68.2154 71.5593 67.9431 71.8705 67.9431C72.2792 67.9802 72.6603 68.2383 73.0343 68.4915C73.1636 68.579 73.2921 68.666 73.4205 68.7431C73.4447 68.7612 73.4652 68.7771 73.4831 68.791L73.4831 68.7911C73.5351 68.8314 73.5652 68.8548 73.5994 68.8656C73.6467 68.8806 73.7017 68.8714 73.8326 68.8494L73.8329 68.8494L73.833 68.8494L73.8331 68.8494L73.8705 68.8431C76.9205 68.2931 77.3205 64.5431 75.9705 62.2431C74.2922 61.9554 72.5678 62.4495 70.8857 62.9315L70.6705 62.9931C70.0705 63.2431 69.6205 63.2431 69.0705 62.8431L68.9401 62.7538C68.0556 62.1488 66.073 60.793 66.1205 59.8431C71.4205 57.8931 75.4705 58.9931 78.9205 63.5931C80.2205 65.5931 80.9705 68.4931 79.5205 70.5931C78.6705 71.8431 77.1205 72.3431 75.8705 71.9431C75.7705 75.0431 74.1205 77.9931 71.8705 80.0431L71.7977 80.1057C71.8486 80.2449 71.8019 80.3348 71.6204 80.343C68.8704 82.643 66.1704 85.643 65.0704 89.143C66.7204 89.543 68.4204 90.243 69.7204 91.443C71.6704 92.693 71.1204 95.093 70.7204 96.593C71.2606 96.3337 71.7634 95.9904 72.2652 95.6478L72.2653 95.6478C72.9246 95.1975 73.5822 94.7486 74.3204 94.493C75.5054 94.6905 76.4954 95.5707 77.3866 96.363L77.4204 96.3931C77.4822 96.4425 77.5227 96.4797 77.5523 96.507C77.5889 96.5407 77.609 96.5592 77.6325 96.5667C77.6611 96.5759 77.6948 96.5689 77.7692 96.5535L77.8204 96.543C82.8704 94.443 80.4204 87.443 78.7704 83.793C80.5204 83.643 83.6204 82.943 83.4704 80.643C83.4434 80.5756 83.4274 80.5009 83.4114 80.4268C83.3683 80.2261 83.326 80.0295 83.0704 79.993C82.031 79.7063 81.2935 79.7214 80.653 79.7346C79.5064 79.7582 78.6706 79.7753 76.9704 78.043C76.6704 77.743 75.9204 76.993 76.7204 77.043C82.2704 76.143 92.5204 84.793 81.9704 86.093C83.6704 89.743 85.9704 96.093 81.6704 98.793C80.0204 99.793 78.2204 98.843 76.8704 97.743C76.8399 97.7201 76.8151 97.7007 76.7947 97.6846C76.741 97.6425 76.7163 97.6231 76.6919 97.6233C76.6711 97.6235 76.6505 97.6379 76.6124 97.6644L76.6003 97.6727L76.5742 97.6905L76.5704 97.693C76.1488 97.9417 75.7248 98.216 75.2955 98.4939C73.7392 99.501 72.1123 100.554 70.2704 100.593ZM11.8204 123.443C5.87036 126.343 1.47036 129.393 10.0704 132.993C11.8508 133.284 13.6313 132.888 15.3925 132.496C16.0549 132.349 16.7145 132.202 17.3704 132.093C21.3976 131.182 25.4709 130.455 29.502 129.736L29.5025 129.735L29.5031 129.735L30.0204 129.643C31.5704 129.443 26.5704 125.693 25.7704 126.543C20.937 127.41 16.137 128.376 11.3704 129.443C10.6633 129.62 10.8061 129.522 11.0919 129.325C11.2103 129.244 11.3532 129.146 11.4704 129.043C13.0811 127.741 14.9737 126.932 16.8423 126.133L16.8425 126.133L16.8426 126.133C17.7001 125.766 18.5526 125.402 19.3704 124.993C18.0263 121.691 13.8215 121.072 10.1536 120.532L10.1534 120.532L10.1533 120.532L10.1532 120.532L10.153 120.532L10.1529 120.532L10.1527 120.532L10.1526 120.532L10.1525 120.532L10.1523 120.532L10.1522 120.532L10.152 120.532L10.1519 120.532L10.1517 120.532L10.1516 120.532L10.1515 120.532L10.1513 120.532L10.1512 120.532L10.151 120.532L10.1509 120.532L10.1507 120.532L10.1505 120.532L10.1504 120.532L10.1502 120.532L10.1501 120.532C9.04341 120.369 7.98573 120.213 7.07036 119.993C8.01797 119.242 11.4718 119.098 15.164 118.945C21.797 118.669 29.199 118.362 24.2204 114.443C21.5408 112.003 17.6136 111.355 14.1531 110.784C13.2874 110.641 12.4508 110.503 11.6704 110.343C19.3204 106.943 30.3204 102.293 37.3704 109.193C37.4204 109.743 41.5204 112.843 40.5704 111.143C38.4704 108.493 35.6204 106.443 32.7704 104.743C27.6204 101.893 21.3704 101.993 15.8204 103.593C14.9569 103.889 14.0599 104.162 13.1539 104.438L13.1538 104.438C10.2296 105.329 7.21068 106.249 4.92036 108.043C4.80255 108.907 5.54842 109.555 6.2131 110.133C6.39467 110.29 6.57017 110.443 6.72036 110.593C9.54091 113.216 13.3899 113.683 17.0556 114.129L17.1704 114.143L17.1709 114.143C18.3207 114.293 19.4705 114.443 20.6204 114.643C19.4188 115.306 17.0843 115.385 15.1816 115.45C14.7881 115.463 14.4131 115.476 14.0704 115.493C13.7385 115.508 13.2236 115.512 12.5883 115.516H12.588H12.5876H12.5873H12.587H12.5867H12.5863H12.586H12.5857H12.5854H12.5851H12.5848H12.5845H12.5842H12.5839H12.5836H12.5833H12.583H12.5827H12.5824H12.5821H12.5818H12.5815H12.5812H12.5809C9.00143 115.542 1.62036 115.594 1.62036 117.843C3.62036 121.393 7.97036 122.943 11.8204 123.443ZM34.2205 59.3931C30.6477 58.9441 27.0051 58.8381 23.3605 58.732C17.2629 58.5545 11.16 58.3769 5.37046 56.5931C3.47046 55.7431 -2.62954 52.0931 1.87046 50.6931C4.55616 49.908 7.41258 50.079 10.214 50.2467H10.2141H10.2141H10.2142H10.2142H10.2143H10.2143H10.2144H10.2144H10.2145H10.2146H10.2146H10.2147H10.2148H10.2149H10.215L10.2151 50.2467C10.8033 50.2819 11.3892 50.317 11.9705 50.3431C12.0205 50.3931 12.1205 50.3931 12.0205 50.3431C11.8573 50.2751 11.6979 50.2108 11.5401 50.1472L11.5398 50.1471L11.5397 50.147L11.5397 50.147L11.5396 50.147L11.5395 50.147L11.5395 50.1469L11.5394 50.1469L11.5394 50.1469L11.5393 50.1469L11.5392 50.1468L11.5392 50.1468L11.5391 50.1468L11.539 50.1468L11.539 50.1467L11.5389 50.1467L11.5388 50.1467L11.5388 50.1466L11.5387 50.1466L11.5386 50.1466L11.5386 50.1466L11.5385 50.1465L11.5385 50.1465L11.5384 50.1465L11.5383 50.1465C11.1165 49.9764 10.7067 49.8112 10.2705 49.5931C6.97046 48.3431 -3.57954 41.8931 4.77046 40.1931C9.97046 39.6431 15.1205 41.1931 20.0705 42.6931C20.3386 42.7556 20.7714 42.8933 21.3011 43.0618C23.7341 43.8359 28.2115 45.2603 28.1705 43.0431C27.1879 41.7684 26.0643 40.5924 24.942 39.4178C23.9512 38.3809 22.9613 37.3449 22.0705 36.243C17.6205 30.543 19.8705 29.1931 25.6205 32.5931C30.0205 34.9931 33.6705 38.5431 36.8705 42.3431C37.3007 42.8092 37.6988 43.3333 38.097 43.8575L38.0971 43.8576L38.0971 43.8576L38.0971 43.8576L38.0972 43.8577L38.0972 43.8577L38.0973 43.8577L38.0973 43.8578L38.0973 43.8578L38.0974 43.8578L38.0974 43.8579L38.0974 43.8579L38.0975 43.8579L38.0975 43.858L38.0975 43.858L38.0976 43.858L38.0976 43.8581L38.0976 43.8581L38.0977 43.8581L38.0977 43.8582L38.0977 43.8582L38.0978 43.8582L38.0978 43.8583L38.0979 43.8584C38.8101 44.7958 39.5228 45.7339 40.4205 46.3431C41.5205 46.7931 43.0205 47.5431 43.4205 48.5931C39.3857 47.664 36.7884 44.4943 34.1696 41.2985C31.8555 38.4745 29.5246 35.63 26.1705 34.2931C24.4705 33.3431 24.2205 35.0931 24.9705 36.2931C25.9734 38.2644 27.4788 39.8769 28.9735 41.4781L28.9735 41.4781L28.9735 41.4781L28.9736 41.4781L28.9736 41.4782L28.9736 41.4782L28.9736 41.4782L28.9737 41.4782L28.9737 41.4783L28.9737 41.4783L28.9737 41.4783L28.9738 41.4783L28.9738 41.4784L28.9738 41.4784L28.9738 41.4784L28.9738 41.4784L28.9739 41.4784L28.9739 41.4785L28.9739 41.4785L28.9739 41.4785L28.974 41.4785L28.974 41.4786L28.974 41.4786L28.974 41.4786L28.9741 41.4786C29.6401 42.1921 30.304 42.9033 30.9205 43.6431C36.3705 49.2931 26.5205 46.8431 23.8205 45.8431C20.3205 44.7431 16.7705 43.7431 13.1205 43.4431L13.0084 43.435C10.8336 43.2786 5.58344 42.9011 6.32046 46.1931C8.15028 47.4282 10.2731 48.1611 12.3969 48.8943C14.9157 49.7639 17.4359 50.634 19.4705 52.3431C21.3537 53.6377 18.7041 53.5028 15.1323 53.3209C11.1175 53.1164 5.93762 52.8525 4.72046 54.493C9.7021 55.3633 14.7738 55.6392 19.8491 55.9153C23.2298 56.0992 26.6121 56.2832 29.9705 56.6431C30.8705 56.0931 35.8705 59.3931 34.2205 59.3931ZM76.3204 127.493L76.2759 127.472C75.3303 127.024 74.0665 126.426 73.8204 125.343C73.7704 122.543 74.7704 119.743 76.1204 117.293C78.5204 113.093 82.3204 109.943 86.3704 107.393C86.6294 107.272 86.8884 107.08 87.1495 106.886L87.1496 106.886C87.6444 106.518 88.1467 106.145 88.6704 106.243C89.3204 106.443 92.4704 108.243 91.2704 108.793C84.1204 112.593 76.5204 119.143 76.3204 127.493ZM54.0866 61.8756C54.1465 61.8886 54.1967 61.9461 54.2825 62.0442C54.5082 62.3026 54.9799 62.8425 56.5205 63.593C58.9481 64.3362 60.983 61.9375 62.382 60.2884L62.382 60.2884L62.4205 60.243C63.0205 59.493 63.5205 58.643 63.9205 57.743C63.9205 57.6764 63.9538 57.6597 64.0205 57.693C65.4705 57.443 66.1705 55.643 65.9205 54.343C65.4705 52.443 63.7705 51.093 62.3205 49.993C62.1705 49.843 61.0205 49.093 61.3205 49.743C61.5159 49.9554 61.733 50.1693 61.9547 50.3878L61.9552 50.3882L61.9552 50.3882L61.9553 50.3883L61.9554 50.3883L61.9554 50.3884L61.9555 50.3885L61.9555 50.3885L61.9556 50.3886C63.0388 51.4556 64.2344 52.6333 63.5705 54.293C63.4705 54.543 62.9705 55.6931 62.6705 55.3931C62.4705 55.243 62.2205 55.093 61.9705 54.993C61.4205 54.693 61.1205 55.493 61.3705 55.843C61.3705 56.3932 60.969 56.9434 60.6029 57.445C60.5032 57.5816 60.4061 57.7146 60.3205 57.843C59.1705 59.393 57.7205 60.9431 55.8205 61.6431C55.8022 61.6522 55.7855 61.6614 55.7705 61.6696L55.7705 61.6696C55.7038 61.7063 55.6705 61.7247 55.6705 61.6431C55.6205 61.243 55.5205 60.843 55.2705 60.543C53.0836 58.3561 52.7102 58.6423 51.5023 59.5681C51.0808 59.8912 50.5577 60.2921 49.8205 60.693C50.2205 58.493 52.3205 53.693 55.1705 54.243C55.7205 54.443 55.4705 53.993 55.2205 53.743C51.1205 49.143 47.5705 55.393 46.7705 59.243C46.3705 61.243 50.1705 64.093 52.0205 63.093C52.8814 62.6201 53.3601 62.2942 53.6468 62.099C53.8979 61.9281 54.0019 61.8573 54.0866 61.8756ZM100.52 88.543C99.1203 88.243 97.9203 87.143 96.9703 86.093C96.9358 86.024 96.9251 86.0264 96.889 86.0346C96.8727 86.0382 96.8513 86.043 96.8203 86.043C95.4203 86.293 94.0203 85.993 92.8703 85.193C92.6834 85.0451 92.4808 84.8947 92.2718 84.7397C91.139 83.899 89.8203 82.9205 89.8203 81.443C90.0703 79.793 91.6703 77.593 93.4203 79.143C93.8203 79.343 96.6703 81.443 95.9703 81.843C95.4203 81.793 95.0203 82.143 94.6703 82.543C94.656 82.5716 94.605 82.6328 94.5452 82.7046C94.3958 82.8839 94.1917 83.1287 94.3703 83.093C96.7203 82.443 98.1203 83.543 99.5703 85.243C99.637 85.343 99.7203 85.3097 99.8203 85.143C101.17 84.243 102.22 82.943 103.02 81.543C103.04 81.513 103.056 81.485 103.071 81.4598C103.128 81.359 103.16 81.303 103.32 81.343C103.97 81.543 106.27 83.043 105.87 83.793C104.77 85.843 103.02 88.293 100.52 88.543ZM46.8705 109.093C47.7205 109.893 48.7705 110.693 49.9705 110.743C51.6705 110.843 53.2705 110.143 54.7205 109.343C54.7397 109.333 54.7589 109.326 54.777 109.318C54.8534 109.287 54.9109 109.264 54.8705 109.143C54.3705 108.343 53.4705 107.643 52.5705 107.293C52.2135 107.444 51.8564 107.622 51.4942 107.802C50.5376 108.277 49.5448 108.77 48.4205 108.843C48.9205 106.243 47.6705 104.943 45.3205 104.093C45.0873 104.015 44.8843 103.981 44.7133 103.952C44.2243 103.87 43.9965 103.832 44.0705 102.943C44.2705 101.543 45.1705 99.893 46.5205 99.393C47.0705 99.243 45.4205 97.993 45.1705 97.893C43.5205 96.393 42.0705 99.193 41.6205 100.543C41.0705 103.043 43.8705 104.743 45.8205 105.593C45.8639 105.607 45.924 105.614 45.9851 105.62H45.9851C46.1353 105.635 46.2916 105.651 46.2205 105.793V105.793C46.2205 106.093 46.2205 106.393 46.1705 106.643C46.0205 107.543 46.1205 108.493 46.8705 109.093ZM102.12 121.493C100.97 121.343 99.3205 120.193 99.1205 118.993C96.9705 119.543 94.4205 120.193 92.7205 118.293C91.0705 117.193 91.8705 114.993 92.6205 113.643C93.2205 113.793 93.7205 114.293 94.1705 114.793C94.2705 114.893 94.2705 115.043 94.1705 115.143C93.8705 115.993 93.5705 116.893 93.5205 117.793C93.4047 118.14 94.2723 118.011 94.789 117.934H94.789C94.9416 117.911 95.0635 117.893 95.1205 117.893C95.5798 117.847 96.0579 117.707 96.5375 117.567C97.6241 117.25 98.7186 116.93 99.6205 117.693C100.27 118.143 100.97 118.743 101.07 119.543C103.62 118.793 104.47 116.693 103.57 114.243C103.797 113.971 104.517 114.562 104.836 114.824C104.869 114.851 104.897 114.874 104.92 114.893C105.77 115.493 106.47 116.243 106.42 117.343C106.92 119.793 104.37 121.543 102.12 121.493ZM117.871 93.543C118.571 94.843 120.121 95.693 121.471 96.243C128.371 95.893 132.971 92.893 124.821 88.343C125.05 87.5517 125.671 86.9819 126.297 86.4075C126.897 85.8567 127.501 85.3017 127.771 84.543C128.121 83.843 127.571 83.193 127.021 82.793C125.055 80.7871 122.316 80.5194 119.658 80.2595C119.003 80.1955 118.353 80.1319 117.721 80.043C117.498 79.9687 117.275 79.8322 117.047 79.6927C116.661 79.4566 116.26 79.2115 115.821 79.243C115.671 79.243 115.471 79.343 115.521 79.543C117.314 82.1639 120.587 82.4592 123.513 82.723C123.768 82.7461 124.021 82.7689 124.271 82.793C124.071 83.2654 123.567 83.7311 123.053 84.2071C122.151 85.041 121.216 85.9062 121.821 86.893C122.721 88.093 124.121 88.893 125.371 89.593C125.621 89.693 125.771 89.843 125.821 90.043C126.221 92.493 122.521 93.043 120.771 93.243C119.921 93.343 119.021 93.443 118.121 93.443C118.021 93.443 117.921 93.443 117.871 93.543ZM96.5704 46.693C96.3704 47.043 97.7204 47.993 98.1204 48.043C98.9715 47.6686 99.5676 46.8305 100.145 46.0181C100.416 45.6373 100.683 45.2622 100.97 44.943C101.896 43.7378 102.663 42.4411 103.287 41.0827C103.366 41.1216 103.444 41.1582 103.52 41.193C106.22 38.793 109.92 38.293 113.42 38.193C113.72 37.743 111.87 36.593 111.47 36.443C109.42 36.443 107.32 36.893 105.42 37.593C105.076 37.7582 104.732 37.9347 104.396 38.1268C104.892 36.4712 105.209 34.7612 105.37 33.043C105.637 30.6764 105.82 28.3097 105.92 25.943C105.92 25.2696 105.261 24.7844 104.689 24.3633C104.539 24.2529 104.395 24.1469 104.27 24.043C103.031 23.2036 103.038 23.4188 103.066 24.2287C103.072 24.4318 103.08 24.6723 103.07 24.943C103.062 25.3649 103.055 25.7885 103.048 26.2133L103.048 26.2154C102.971 30.9258 102.892 35.7907 100.92 40.193C100.754 40.5044 100.588 40.8234 100.42 41.1462C99.3739 43.1563 98.2505 45.3144 96.5704 46.693ZM104.47 67.243C104.17 68.693 106.77 70.243 108.07 70.293C109.67 70.343 107.62 68.893 107.17 68.643C106.988 68.4912 106.824 68.5422 106.657 68.5945C106.548 68.6283 106.438 68.6626 106.32 68.643C106.42 68.193 107.72 66.443 108.22 66.743C108.42 66.893 108.77 66.993 108.57 66.643C108.12 65.993 107.32 65.143 106.52 65.343C105.67 65.693 104.87 66.393 104.47 67.243ZM109.82 103.493C108.42 103.793 105.22 101.143 105.32 99.743C105.47 99.193 106.02 98.293 106.67 98.593C107.77 99.193 108.72 100.143 109.42 101.193C109.594 101.541 109.482 101.553 109.318 101.569C109.2 101.581 109.054 101.596 108.97 101.743C108.987 101.759 109.009 101.781 109.036 101.808C109.429 102.194 110.849 103.587 109.82 103.493ZM55.5705 55.8931C56.0205 56.6931 56.7705 57.3431 57.5705 57.7431C57.8784 57.7816 57.5938 57.4349 57.4236 57.2276L57.4235 57.2275C57.3727 57.1656 57.332 57.1161 57.3205 57.0931C57.1705 56.9431 57.3705 56.6931 57.5205 56.5931C57.6705 56.7431 57.9205 56.7431 57.7705 56.4931C57.3205 55.8931 56.6705 55.0431 55.8705 55.0431C55.5205 55.1431 55.3705 55.5931 55.5705 55.8931ZM68.6704 72.543C67.0704 71.893 64.5204 70.143 64.1704 68.393C64.441 66.3633 66.5426 68.2803 67.5388 69.189C67.6469 69.2877 67.7421 69.3744 67.8204 69.443C67.9045 69.555 68.0199 69.671 68.1404 69.792L68.1404 69.7921C68.4499 70.103 68.7924 70.4471 68.7204 70.843C68.6537 70.8763 68.5871 70.8652 68.5204 70.8541C68.4871 70.8485 68.4537 70.843 68.4204 70.843C68.2704 70.943 68.1704 71.143 68.1204 71.293C68.1468 71.3282 68.2058 71.3928 68.2806 71.4749C68.6309 71.8592 69.3296 72.6254 68.6704 72.543ZM72.4203 29.2931C69.5703 31.1431 73.3703 33.7431 75.3703 34.1431C76.0203 33.9931 73.8703 32.3931 73.5203 32.3931C73.7203 31.2931 74.8203 30.393 75.8203 29.993C76.0097 29.939 76.1551 30.0458 76.3042 30.1553C76.4306 30.2482 76.5597 30.3431 76.7203 30.3431C77.0878 30.3431 76.4846 29.7522 76.2679 29.5398C76.2487 29.5211 76.2325 29.5052 76.2203 29.493C75.1203 28.243 73.6203 28.0431 72.4203 29.2931ZM122.47 133.193C121.02 132.443 118.92 131.293 119.27 129.393C119.27 129.281 119.27 129.281 119.228 129.288L119.228 129.288C119.214 129.29 119.195 129.293 119.17 129.293C119.001 129.341 118.833 129.39 118.664 129.439C117.432 129.796 116.195 130.155 114.92 130.243C112.02 130.293 108.17 127.543 109.82 124.343C109.915 124.154 110.027 123.845 110.159 123.484L110.159 123.484C110.652 122.128 111.415 120.032 112.52 120.743C112.649 120.837 112.797 120.93 112.95 121.027C113.451 121.344 114.005 121.695 114.12 122.193C112.77 122.843 111.97 126.643 112.02 128.093C113.071 128.196 114.199 127.789 115.322 127.384C116.924 126.807 118.518 126.232 119.87 127.143L119.917 127.175C121.008 127.918 122.321 128.813 122.37 130.243C123.972 129.324 125.309 128.053 126.644 126.785L126.644 126.785C127.559 125.914 128.473 125.046 129.47 124.293C130.111 124.232 130.678 124.674 131.204 125.085C131.54 125.347 131.859 125.596 132.17 125.693C133.42 125.193 133.62 123.693 133.27 122.543C132.293 119.422 131.117 118.846 129.275 117.944C128.668 117.647 127.989 117.314 127.22 116.843C127.173 116.807 127.106 116.757 127.025 116.697C126.329 116.182 124.595 114.901 125.67 114.543C126.733 114.105 127.855 113.723 128.987 113.338C132.119 112.272 135.33 111.18 137.57 108.793C137.62 108.743 137.72 108.643 137.72 108.543H136.82C133.776 108.777 130.776 109.494 127.82 110.2L127.22 110.343C126.77 110.543 126.37 110.443 125.97 110.193C125.834 110.102 125.692 110.012 125.548 109.919C124.739 109.401 123.852 108.834 123.47 107.943C123.851 107.689 124.333 107.576 124.813 107.464C125.089 107.399 125.365 107.334 125.62 107.243C126.203 107.099 126.797 106.937 127.401 106.773L127.402 106.773L127.406 106.772L127.406 106.772C130.791 105.85 134.447 104.854 137.67 106.593C137.82 106.689 137.976 106.788 138.138 106.889C139.651 107.842 141.57 109.05 141.57 110.993C140.526 113.645 135.897 115.231 132.484 116.401L132.484 116.401L132.483 116.401L132.483 116.401C131.649 116.687 130.889 116.948 130.27 117.193C132.67 118.793 134.97 120.893 136.22 123.593C138.07 127.343 135.37 129.943 132.02 127.393C131.386 127.859 130.658 128.543 129.87 129.282L129.87 129.283L129.87 129.283C127.616 131.4 124.879 133.971 122.47 133.193ZM118.62 118.443C118.87 120.093 121.32 121.343 122.92 121.293C125.22 121.593 122.22 119.593 121.57 119.393C121.27 119.443 121.97 118.993 122.07 119.043C122.22 119.143 122.57 119.193 122.37 118.893C121.42 117.693 119.47 116.393 118.62 118.443ZM147.72 109.093C146.57 108.593 145.22 107.793 144.671 106.643C146.57 105.943 148.57 104.743 149.521 102.793C149.538 102.741 149.562 102.678 149.59 102.607C149.722 102.267 149.919 101.759 149.671 101.593C149.179 101.457 148.669 101.408 148.164 101.359C147.181 101.264 146.213 101.17 145.421 100.443C143.175 98.8685 143.674 98.7464 145.04 98.4121C146.321 98.0988 148.363 97.5991 149.621 95.543C149.971 95.243 150.821 92.793 150.371 92.843C148.921 93.643 147.37 94.243 145.82 94.743C143.021 95.543 140.12 95.843 137.22 96.143C137.06 96.1604 136.898 96.177 136.734 96.1937C135.019 96.3694 133.199 96.5559 131.92 97.743C131.475 98.0399 130.892 97.5653 130.416 97.1783L130.416 97.178C130.251 97.0438 130.099 96.9202 129.97 96.843C129.956 96.8303 129.941 96.8176 129.927 96.805C129.91 96.7903 129.893 96.7757 129.876 96.7611C129.507 96.4451 129.176 96.1615 129.82 95.793C131.17 94.7216 132.928 94.532 134.621 94.3494C135.061 94.3019 135.497 94.2549 135.92 94.193C141.07 93.793 146.07 92.193 150.271 89.193C151.271 89.543 152.27 90.293 152.921 91.193C153.031 91.6083 153.065 92.0543 153.099 92.4969C153.126 92.8537 153.154 93.2083 153.22 93.543C153.87 96.393 152.12 99.293 149.521 100.343C149.678 100.452 149.845 100.563 150.017 100.678L150.018 100.678C151.265 101.509 152.771 102.511 152.771 104.093C152.221 106.393 150.02 108.493 147.72 109.093ZM85.1704 61.843C79.4204 63.793 83.9204 68.843 87.6704 69.943C87.9899 69.9829 87.7353 69.672 87.5689 69.4688C87.5269 69.4176 87.4906 69.3732 87.4704 69.343C86.8204 68.693 85.9704 68.243 85.1204 67.893C83.9704 66.743 84.5704 64.743 85.9204 63.943C86.1204 63.768 86.3829 63.6805 86.6455 63.593C86.908 63.5055 87.1704 63.418 87.3704 63.243C87.2398 62.851 86.917 62.587 86.5974 62.3256C86.4278 62.187 86.2591 62.049 86.1204 61.893C84.5704 60.093 86.4705 57.343 88.6204 57.293C88.9204 57.293 89.2204 57.293 89.4704 57.443C89.5204 57.493 89.8704 57.693 89.9204 57.543C89.7651 57.1545 89.3682 56.8868 89.0114 56.646C88.9089 56.5768 88.8097 56.5099 88.7204 56.443C86.6704 54.943 83.1704 56.793 83.6204 59.343C83.7704 60.343 84.4204 61.093 85.1204 61.743C85.1395 61.7525 85.1568 61.7602 85.1716 61.7668C85.2341 61.7948 85.2514 61.8025 85.1704 61.843Z" fill="black"/>
</svg>
