<svg width="116" height="89" viewBox="0 0 116 89" fill="none" xmlns="http://www.w3.org/2000/svg">
<path fill-rule="evenodd" clip-rule="evenodd" d="M49.1019 7.35217C46.9461 6.77378 45.7276 4.94568 44.5697 3.20859L44.5357 3.15756C44.4416 3.00702 44.3275 2.86982 44.2146 2.73414C44.0091 2.48697 43.8078 2.24485 43.7392 1.93634C44.0578 0.98061 47.6152 0.502745 48.571 0.768226C48.9994 0.867082 49.4073 1.08864 49.8075 1.30598C50.0521 1.43885 50.2938 1.57014 50.5356 1.67086C51.1353 1.85541 51.695 1.71924 52.2843 1.57586L52.2844 1.57584C52.3732 1.55422 52.4628 1.53244 52.5532 1.51157L52.5993 1.49802C53.4848 1.23731 54.3198 0.991455 55.1549 1.61776C56.1638 2.20182 57.1726 2.83898 57.8628 3.74162C58.3778 4.41102 58.4932 5.28018 58.5965 6.05851L58.6062 6.13095C58.3259 6.37124 57.8039 6.06782 57.4048 5.83583C57.2747 5.76024 57.1577 5.69223 57.0664 5.65309C56.3761 5.22832 55.739 4.80355 55.208 4.21949C55.1726 4.14869 55.1195 4.13099 55.0487 4.16639C54.4116 4.27258 53.8275 4.21948 53.2435 4.0071C52.8303 3.91857 52.4664 3.73163 52.1061 3.54656C51.8181 3.39864 51.5324 3.25191 51.2258 3.15756C49.9515 3.21066 48.5179 3.36994 47.4029 4.0602C47.2083 4.1575 47.7467 4.92837 48.2315 5.62254C48.5404 6.06481 48.8276 6.47594 48.8896 6.66191C48.9057 6.71036 48.9808 6.7932 49.0641 6.88503C49.2545 7.09508 49.4876 7.35217 49.155 7.35217H49.1019ZM19.3679 41.3338C18.4122 40.9621 17.3502 40.3781 16.8193 39.4754C17.2168 38.4464 17.5835 37.3968 17.951 36.3447C18.4179 35.0082 18.8862 33.6677 19.421 32.3605C21.0471 28.0344 25.0667 26.7045 29.103 25.3692C32.0517 24.3937 35.0093 23.4152 37.049 21.2634C38.6419 17.0157 39.7569 15.4759 43.0489 12.3432C43.3774 12.0428 43.721 11.6843 44.0783 11.3114C45.7417 9.57533 47.7035 7.5279 49.8452 9.58219C50.323 9.95386 51.385 10.9627 49.9514 10.3786C48.5863 10.9164 47.5435 12.0343 46.5216 13.1296C46.2319 13.4402 45.9438 13.749 45.6506 14.0423C45.4879 14.2089 45.3238 14.3758 45.159 14.5434L45.1588 14.5436C43.1183 16.6187 40.9796 18.7936 40.3409 21.7412C39.1991 24.8721 35.9876 25.8821 32.8689 26.863C31.4919 27.2961 30.133 27.7235 28.9783 28.3252C23.5783 30.0964 22.2555 33.8008 20.6917 38.18C20.3335 39.1832 19.9626 40.2218 19.5272 41.2807C19.4918 41.3161 19.4564 41.3338 19.421 41.3338H19.3679ZM55.9802 73.8168L55.9799 73.8167C53.0497 73.2235 50.1238 72.6312 47.5093 71.174C45.4157 70.1424 43.5996 68.6947 41.7835 67.247C40.4214 66.1612 39.0594 65.0755 37.5802 64.1652C35.4251 63.0657 32.9785 62.8769 30.6026 62.6937C30.1103 62.6557 29.621 62.6179 29.1379 62.5723C21.1204 61.9352 17.032 57.3689 16.0231 49.5106C15.9169 49.0328 15.8108 48.5549 15.8108 48.0771C16.4479 47.9709 17.4567 48.7673 17.9346 49.1921C19.6721 60.3045 22.2485 60.5101 27.2788 60.9115C29.6274 61.0989 32.5108 61.329 36.0935 62.7316C38.3201 63.6548 40.1856 65.1613 42.0523 66.6686C43.8358 68.1088 45.6202 69.5497 47.7216 70.4837C49.886 71.1659 52.1129 71.6501 54.3423 72.1349C57.1446 72.7442 59.9508 73.3543 62.6417 74.3597C63.3851 74.3597 66.8894 76.2712 65.9337 76.4836C64.807 76.1907 63.6994 75.8499 62.5947 75.51L62.5946 75.51L62.5945 75.5099C61.0963 75.049 59.6034 74.5897 58.0754 74.2535C57.3804 74.1002 56.6815 73.9587 55.9828 73.8173L55.9826 73.8173L55.9824 73.8172L55.9822 73.8172L55.982 73.8171L55.9817 73.8171L55.9815 73.817L55.9813 73.817L55.9811 73.8169L55.9809 73.8169L55.9806 73.8169L55.9804 73.8168L55.9802 73.8168ZM98.8116 28.763C99.7997 30.3131 100.814 31.9046 102.729 32.3605H102.835C103.101 32.3605 102.835 31.9888 102.729 31.8826C99.6496 26.8385 95.1364 22.4315 89.7737 19.936C87.9153 19.1395 85.8976 19.1926 83.88 19.2457L83.8654 19.2461C82.0653 19.2991 80.3178 19.3505 78.5703 18.8209C75.7897 17.9619 73.3363 16.4002 70.8865 14.8407C67.5824 12.7375 64.2846 10.6383 60.199 10.2724L60.1358 10.2653C59.3984 10.1817 54.8937 9.67118 56.5354 10.6972C56.6325 10.762 56.7297 10.8292 56.8274 10.8969L56.8278 10.8971L56.8278 10.8972L56.8279 10.8972L56.8279 10.8972L56.8279 10.8972L56.828 10.8973L56.828 10.8973L56.828 10.8973L56.8281 10.8973L56.8281 10.8973L56.8281 10.8974L56.8283 10.8975C57.3711 11.2732 57.9315 11.6611 58.6061 11.706C63.8626 11.0112 68.019 13.6337 72.2098 16.2778C75.3848 18.281 78.5794 20.2966 82.2871 20.8917C84.1985 21.2103 85.7383 21.1572 87.0657 21.1041L87.1041 21.1034C90.1098 21.0506 92.1771 21.0143 95.5081 24.8739C96.5169 25.8297 97.4726 26.8916 98.3222 28.0066C98.4868 28.2536 98.6483 28.5069 98.8105 28.7613L98.8106 28.7614L98.8106 28.7615L98.8107 28.7617L98.8108 28.7618L98.8108 28.7619L98.8109 28.762L98.811 28.7621L98.8111 28.7622L98.8111 28.7623L98.8113 28.7625L98.8116 28.763ZM76.3406 72.3952C78.8361 69.9528 81.8095 68.0944 84.836 66.3423C87.7032 64.8025 90.5173 62.5724 90.7828 59.068C91.0612 49.7879 92.0289 48.8204 97.0171 43.8337C97.7368 43.1142 98.5403 42.3109 99.4375 41.387C99.4749 41.3496 99.5123 41.3124 99.5496 41.2753L99.7012 41.1253L99.7101 41.1165L99.7114 41.1153L99.7116 41.1151L99.7117 41.115C100.254 40.5787 100.78 40.0589 101.19 39.4224C102.039 39.5286 102.995 40.2189 103.526 40.856C103.526 41.0419 103.396 41.1758 103.263 41.3122C103.206 41.3706 103.149 41.4295 103.101 41.4932C102.184 42.4936 101.194 43.4522 100.201 44.4134L100.2 44.4134C98.0315 46.5127 95.8502 48.6239 94.3933 51.2098C93.5975 53.0402 93.495 55.1614 93.393 57.2716C93.2229 60.793 93.0542 64.2838 89.6677 66.3423C88.5806 67.0949 87.4441 67.7734 86.3068 68.4524C84.5557 69.4979 82.8027 70.5445 81.2254 71.8643C80.8605 72.1152 80.5053 72.4444 80.1474 72.7763C79.672 73.2171 79.1917 73.6624 78.6768 73.935C77.8273 73.6164 76.8184 73.1386 76.3406 72.3952ZM34.5445 59.429C36.8067 59.665 39.079 59.9021 41.031 61.1918C41.3186 61.3836 41.5855 61.6169 41.854 61.8517L41.8541 61.8517L41.8541 61.8518L41.8541 61.8518L41.8542 61.8518L41.8542 61.8518L41.8542 61.8519L41.8543 61.8519L41.8543 61.8519L41.8543 61.8519L41.8544 61.852C42.3294 62.2673 42.8099 62.6874 43.4203 62.8909C44.2168 62.5723 39.3319 59.4396 38.6948 59.2803C37.2 58.3906 35.0791 58.139 32.9795 57.8899C28.8143 57.3958 24.7333 56.9116 25.7924 51.4752C25.3676 50.7318 24.4118 50.0947 23.5623 49.8292C23.4299 49.8733 23.4443 50.1009 23.4529 50.2375C23.4546 50.2652 23.4561 50.2892 23.4561 50.3071C22.7659 54.7672 27.3322 57.7406 31.0489 58.9087C32.1797 59.1823 33.3607 59.3055 34.5445 59.429ZM86.5876 26.4669C85.7925 26.2798 84.9871 26.206 84.1805 26.1321C83.1556 26.0382 82.1289 25.9442 81.1187 25.6174C80.0668 25.2417 79.0739 24.7478 78.0788 24.2529L78.0788 24.2529C76.9643 23.6986 75.8471 23.1429 74.6409 22.7502C74.2692 22.5909 72.6233 21.3166 73.8445 21.7413C74.8757 22.0431 75.8354 22.5237 76.7914 23.0023C77.8535 23.5341 78.911 24.0636 80.0568 24.343C80.8266 24.5242 81.6062 24.5895 82.3789 24.6542C83.4181 24.7412 84.445 24.8272 85.4195 25.1926C87.8925 26.0309 90.0015 27.531 92.0861 29.0137C92.6422 29.4092 93.1965 29.8035 93.7556 30.1836C93.7843 30.2028 93.8251 30.2292 93.875 30.2616C94.3796 30.5891 95.8221 31.5254 95.2423 31.6703C93.9675 31.0665 92.8152 30.2083 91.6623 29.3497C90.0782 28.1699 88.493 26.9893 86.5876 26.4669ZM80.244 61.883C79.9849 62.0942 79.7262 62.3049 79.4729 62.5193C79.8446 63.2626 80.7472 63.7405 81.4906 64.059C86.1171 60.9445 86.0767 58.6738 86.0378 56.4819C86.0083 54.825 85.9797 53.2131 87.9684 51.3159C88.1807 51.4221 88.1807 51.2628 88.0745 51.1035C87.5967 50.6257 87.0126 50.1478 86.3755 49.9885C85.3666 50.5726 84.6764 51.7938 84.2516 52.8557C84.0695 53.6042 84.0725 54.3758 84.0753 55.1411V55.1412C84.08 56.3847 84.0847 57.6117 83.2959 58.6963C82.5589 59.9969 81.3971 60.9436 80.244 61.883ZM64.075 85.563C64.7121 83.5454 65.9333 81.7401 67.1545 79.9879C67.3244 79.7755 67.4773 79.5462 67.6303 79.3168L67.6303 79.3167C67.8597 78.9727 68.0891 78.6286 68.3758 78.3419C69.2253 78.5543 70.0748 79.1384 70.5527 79.8286C70.2021 80.4759 69.7419 81.1095 69.2765 81.7503L69.2764 81.7503C68.8256 82.371 68.3698 82.9984 68.0041 83.6516C67.8997 83.8455 67.7911 84.0394 67.6818 84.2344C67.4021 84.7338 67.1181 85.2409 66.8891 85.7754C66.7829 85.917 67.0306 85.7754 67.2234 85.6653C67.3197 85.6102 67.4023 85.563 67.42 85.563C70.5268 83.6213 71.7252 83.7655 74.7481 84.1291C75.0316 84.1632 75.3312 84.1992 75.6499 84.2356C78.3048 84.5542 81.3313 83.0675 78.9419 80.2534C78.6299 79.8113 78.1904 79.4966 77.7546 79.1845C77.3006 78.8593 76.8506 78.537 76.5526 78.0765C76.5526 77.5455 78.0924 78.6605 78.3048 78.8198C82.2339 81.4746 84.6763 86.1471 77.6676 85.8285C77.2339 85.7785 76.8238 85.7206 76.4309 85.6651C74.3225 85.3674 72.7093 85.1397 70.6058 86.5719C70.1938 86.7607 69.7984 86.9995 69.4035 87.238L69.4034 87.2381C68.5771 87.7372 67.7529 88.235 66.7829 88.2709C65.6678 87.8993 63.7033 86.9966 64.075 85.563ZM107.19 39.3693C108.092 40.5905 109.632 41.5993 111.172 41.6524H111.384C113.88 41.6524 112.977 38.679 112.34 37.1392C112.173 35.8352 113.122 35.0997 114.073 34.3625C114.632 33.9291 115.191 33.4951 115.526 32.9446C116.004 32.2544 115.366 31.6172 114.835 31.1924C113.351 29.6736 111.373 29.5686 109.368 29.4622C108.289 29.4049 107.202 29.3472 106.181 29.0686C106.083 29.0075 105.985 28.9408 105.887 28.8736L105.887 28.8734C105.557 28.6488 105.221 28.4192 104.853 28.3783C104.375 28.8562 106.818 30.396 107.296 30.6084C108.722 31.3477 110.358 31.4568 111.942 31.5624L111.968 31.5641C111.744 31.838 111.38 32.1001 111.002 32.3725C110.573 32.6811 110.126 33.0028 109.844 33.3694C109.101 34.1658 109.207 35.2809 109.685 36.1835C110.163 37.1923 110.482 38.9976 109.101 39.3693C108.623 39.4755 108.092 39.3693 107.667 39.2631C107.625 39.2631 107.563 39.2478 107.497 39.2315C107.318 39.1873 107.112 39.1362 107.19 39.3693ZM0.35942 47.493C-0.437025 49.2982 3.33281 50.8911 4.60713 51.4221C5.29738 51.6876 5.98763 51.7938 6.67788 51.7938C8.64244 51.7938 10.607 50.838 12.253 49.7761C12.1468 49.0327 10.2353 48.1832 9.54508 47.9177C9.13908 47.6471 8.42647 48.0663 7.5375 48.5892C7.38014 48.6818 7.21725 48.7776 7.04955 48.8735C5.98763 49.4575 4.71331 50.0416 3.439 49.8823C3.37426 49.0407 4.23697 48.6135 5.08882 48.1917C5.63429 47.9216 6.17531 47.6537 6.4655 47.2806C7.34497 46.3592 6.56456 45.5204 5.78523 44.6828C4.58844 43.3966 3.39419 42.113 8.21767 40.5373C9.33269 40.2188 10.5008 40.2188 11.6689 40.2718C12.4654 40.2718 13.2618 40.2718 14.0052 40.1657C13.5762 39.4984 12.7195 39.1306 11.9341 38.7935C11.8445 38.7551 11.7559 38.717 11.6689 38.679C10.4761 38.3711 9.17166 38.4258 7.89718 38.4793H7.89713H7.89701H7.89688H7.89675H7.89663C7.41269 38.4996 6.93306 38.5197 6.4655 38.5197C3.5983 38.8914 -0.649414 40.5373 2.96114 43.5107C3.91687 44.3603 4.18235 45.2098 2.96114 45.9532C2.65624 46.1437 2.32399 46.3001 1.99138 46.4566C1.39723 46.7362 0.801944 47.0164 0.35942 47.493ZM59.4558 43.2984C56.5355 41.2807 53.7214 37.9356 54.8895 34.1658C56.27 28.3252 64.1814 25.8828 69.1724 28.5907C69.2395 28.6309 69.3082 28.6711 69.3777 28.7118C69.8584 28.9931 70.3741 29.2949 70.606 29.7588C70.606 29.9181 70.3406 29.8119 70.2344 29.7588C69.5972 29.5464 68.9601 29.3871 68.2698 29.2809C65.1902 28.9093 62.0044 30.1305 59.6151 32.0419C57.1196 34.5906 56.3231 39.0507 58.9779 41.7586C61.5797 45.316 68.2167 45.6877 72.3051 45.2629L72.4178 45.2459C75.2393 44.8207 79.6827 44.1511 79.4731 40.4312C79.1015 37.4047 77.19 34.6968 74.7476 32.9977C74.5352 32.8384 73.2609 31.8827 74.1104 32.1481C74.8521 32.3663 75.4863 32.8354 76.1013 33.2904C76.2347 33.3891 76.3672 33.4871 76.4997 33.5817C79.3669 35.5994 81.9156 38.7852 82.0749 42.3957C81.812 46.5489 75.7192 46.9543 72.5066 47.1681L72.4113 47.1744C67.845 47.0682 63.1726 45.9532 59.4558 43.2984ZM61.3139 37.1393C60.9422 40.6436 65.1899 42.4489 68.0572 42.8737C68.6235 42.9445 69.2076 42.9799 69.8093 42.9799C71.1898 42.9799 72.6234 42.7675 73.8978 42.3427C73.7001 41.9475 73.2672 41.6994 72.8617 41.4669C72.7224 41.3871 72.5863 41.3091 72.4641 41.2277C72.0573 40.9318 71.5988 41.0481 71.1427 41.1639C70.9441 41.2144 70.746 41.2647 70.5527 41.2808C68.5881 41.6524 66.5704 41.7056 64.7121 41.1746C63.7032 40.8029 63.5971 39.4224 63.7032 38.5198C63.7032 35.4933 66.8359 33.4756 69.65 33.7942C69.7968 33.8235 69.9274 33.8854 70.0507 33.9438C70.1504 33.991 70.2453 34.0359 70.3403 34.0597C71.0836 34.3782 70.8182 33.9004 70.3934 33.6349C67.2607 30.8208 61.367 32.6261 61.3139 37.1393ZM46.925 55.4575C41.934 54.4486 34.2881 48.5018 35.9341 42.8205C37.4739 36.8207 44.2702 30.0243 50.8011 30.5553C51.8099 30.6615 53.4559 31.5641 53.9869 32.3606C53.9869 32.4455 53.8509 32.4285 53.7694 32.4183C53.749 32.4158 53.732 32.4137 53.7214 32.4137C51.9692 32.2013 50.1639 32.6261 48.6241 33.4225C43.8455 35.8649 39.5447 40.2719 38.5889 45.7408C38.2703 48.4488 40.1818 50.6257 41.934 52.431C44.3764 54.9265 50.3232 54.3956 53.4559 53.6522C56.6417 52.962 58.8717 50.4664 60.9425 48.1302C61.5796 48.2895 62.8539 48.9266 63.0663 49.5107C61.6858 51.3691 60.146 53.2274 58.0753 54.3425C55.8983 55.4044 53.4559 55.8291 51.0666 55.8291C49.633 55.8291 48.2524 55.6699 46.925 55.4575ZM44.5357 47.493C46.0224 48.9797 47.9339 50.0947 49.9515 50.4664C50.4471 50.608 50.9427 50.6788 51.4382 50.6788C53.8276 50.6788 56.0576 49.2452 57.4912 47.2806C57.7302 47.1373 57.582 46.9939 57.4339 46.8505C57.4174 46.8346 57.4009 46.8187 57.385 46.8028C56.8541 46.378 56.1638 45.9532 55.4735 45.7939C55.4027 45.8293 55.332 45.9119 55.2612 45.9945C55.2258 46.0358 55.1904 46.0771 55.155 46.1125C53.3497 48.5549 50.3232 49.9885 47.3498 48.9797C42.8366 46.378 47.7746 40.6436 51.0666 39.4224C51.1398 39.398 51.2129 39.382 51.2771 39.368C51.4923 39.321 51.6061 39.2961 51.2789 39.0507C51.1859 38.9863 51.0909 38.917 50.9941 38.8465C50.373 38.3936 49.6777 37.8868 48.9427 38.2543C47.3498 38.8914 46.0224 40.0595 44.9605 41.3869C43.4207 43.2453 42.6242 45.6347 44.5357 47.493Z" fill="black"/>
</svg>
