<svg width="86" height="216" viewBox="0 0 86 216" fill="none" xmlns="http://www.w3.org/2000/svg">
<path fill-rule="evenodd" clip-rule="evenodd" d="M33.2021 10.007C33.7021 11.007 34.8021 11.757 35.8021 12.207C36.0162 12.2926 36.0103 12.1215 36.0042 11.945C36.0031 11.9154 36.0021 11.8857 36.0021 11.857C36.1521 7.95696 38.5521 4.15697 42.6021 3.45697C42.8167 3.3568 43.0969 3.30578 43.3582 3.25819C44.01 3.13949 44.5444 3.04216 43.6521 2.25697C43.5215 2.14503 43.3874 2.01918 43.2489 1.88914L43.2489 1.88912L43.2489 1.8891C42.6449 1.32211 41.9562 0.675624 41.1021 0.756966C39.2021 1.00697 37.1521 1.30696 35.6521 2.65696C33.5521 4.45696 33.1021 7.40697 33.2021 10.007ZM23.5521 16.907C23.1521 16.707 22.8021 16.457 22.5021 16.107C22.5021 16.107 22.4521 16.007 22.4521 15.957C22.4521 15.9284 22.5175 15.8999 22.5828 15.8713C22.6317 15.8499 22.6807 15.8284 22.7021 15.807C26.6021 13.757 31.0521 13.107 35.4021 12.557C38.5521 12.257 41.8021 12.007 45.0021 12.357C47.5021 12.607 49.9521 13.457 51.9521 15.107C52.2521 15.257 53.6521 16.557 52.7521 16.257C52.3993 16.1287 52.1081 15.918 51.8127 15.7043C51.6477 15.5849 51.4813 15.4645 51.3021 15.357C47.9138 13.7306 43.6274 13.8595 39.8445 13.9732L39.8441 13.9733L39.8421 13.9733C39.4392 13.9854 39.042 13.9974 38.6521 14.007C33.5521 14.357 28.2521 14.807 23.5521 16.907ZM68.1522 95.207C66.5522 94.407 64.8522 93.007 64.6522 91.107C64.3522 89.3737 64.1411 87.6404 63.93 85.9071C63.8244 85.0404 63.7188 84.1737 63.6022 83.307C62.8879 78.0569 62.5562 72.8069 62.2246 67.5569C62.092 65.4569 61.9593 63.3569 61.8022 61.257C61.7726 60.9023 61.7423 60.5483 61.7121 60.1948L61.7121 60.1946L61.7121 60.1945L61.7121 60.1943L61.7121 60.1941L61.7121 60.1939C61.4868 57.5581 61.264 54.952 61.3522 52.307C61.2022 51.807 61.6522 51.857 62.0022 52.107C62.0736 52.1584 62.1469 52.2107 62.2217 52.2642C63.4563 53.1458 65.0822 54.3069 64.7522 55.957C65.0022 66.207 65.7522 76.507 67.1022 86.707C67.2197 87.4857 67.3287 88.2689 67.4378 89.0538C67.7001 90.9396 67.9638 92.8357 68.3522 94.707C68.4022 94.8569 68.5022 95.257 68.2522 95.257C68.2188 95.257 68.1855 95.2403 68.1522 95.207ZM16.4022 98.457C16.9522 99.757 18.3522 100.757 19.6022 101.357C19.6355 101.39 19.6689 101.407 19.7022 101.407C19.7355 101.407 19.7688 101.39 19.8022 101.357C20.4522 91.957 19.3522 82.507 18.0522 73.207C17.7522 70.807 17.4077 68.407 17.0633 66.007C16.8911 64.807 16.7188 63.607 16.5522 62.407C16.3022 60.457 16.0522 58.507 15.9022 56.507C15.6722 55.8631 14.9769 55.3461 14.3999 54.9171C14.3496 54.8797 14.3003 54.843 14.2522 54.807C13.6022 54.357 13.6022 54.707 13.6522 55.157C13.9282 58.8371 14.3547 62.4984 14.7817 66.164C15.0508 68.4747 15.3202 70.7871 15.5522 73.107C16.1022 78.357 16.6022 83.657 16.6022 88.957C16.6022 92.107 16.5022 95.307 16.4022 98.457ZM16.3039 108.456C16.002 108.54 15.7014 108.623 15.4022 108.707C14.0522 108.857 17.5022 111.607 18.0522 111.657C26.4522 109.557 36.0022 106.707 40.7522 98.8069C41.2264 98.031 41.6263 97.1807 42.0159 96.3523L42.0967 96.1805C42.1319 96.1057 42.1671 96.0312 42.2023 95.9569C42.2423 95.6763 41.9931 95.3956 41.7896 95.1665C41.7394 95.1099 41.6919 95.0565 41.6522 95.0069C41.5718 94.9265 41.4874 94.8402 41.3996 94.7502L41.3992 94.7499C40.7222 94.0569 39.8372 93.1512 38.9523 93.1069C38.5023 94.6569 37.7522 96.2069 36.7522 97.5569C31.9946 104.093 23.7726 106.379 16.3039 108.456ZM27.0521 86.357C28.1021 86.357 29.1021 86.357 30.1021 86.457H30.2521C30.8021 86.457 31.7021 86.357 31.5021 85.657C31.4521 85.3236 31.4007 84.9903 31.3493 84.657C31.0924 82.9903 30.8354 81.3236 30.7521 79.657C30.2521 78.657 29.2021 77.757 28.1021 77.407C27.1521 77.407 26.1521 77.607 25.2021 77.807C25.0646 77.832 24.9271 77.8578 24.7896 77.8835H24.7896H24.7895H24.7894H24.7894H24.7893H24.7893H24.7892H24.7892H24.7891H24.789H24.789H24.7889H24.7889H24.7888H24.7888H24.7887H24.7886H24.7886H24.7885H24.7885H24.7884H24.7884C23.8263 78.064 22.8642 78.2445 21.9021 78.157C21.9021 78.5076 22.2663 78.8278 22.569 79.094C22.6549 79.1695 22.7358 79.2407 22.8021 79.307C23.9159 80.5322 25.4433 80.2135 26.9133 79.9068C27.423 79.8005 27.9258 79.6956 28.4021 79.657C28.4712 80.3983 28.545 81.0188 28.6067 81.5366C28.7644 82.8619 28.842 83.5144 28.5553 83.7966C28.2772 84.0703 27.6565 83.9958 26.434 83.8491C25.4893 83.7357 24.1852 83.5793 22.4021 83.507C22.0521 83.457 21.8021 83.457 22.0521 83.857C22.7521 84.907 23.8021 85.807 24.9521 86.357C25.6521 86.3903 26.3521 86.3903 27.0521 86.357ZM56.6521 84.7569C56.2021 84.7569 55.7521 84.7444 55.3021 84.7319L55.3013 84.7319C54.8515 84.7194 54.4018 84.7069 53.9521 84.7069C53.1021 84.8069 52.3021 84.6069 51.6521 84.0069L51.6438 84.0012C50.9953 83.5523 50.2021 83.0031 50.2021 82.1069C50.0521 80.657 50.0021 79.207 49.9521 77.7571V77.7569C49.9107 77.5085 50.1436 77.4658 50.3384 77.4301C50.3789 77.4226 50.4177 77.4155 50.4521 77.4069C50.6894 77.3476 50.9268 77.2877 51.1642 77.2277L51.1656 77.2274C53.1283 76.7319 55.0953 76.2353 57.1021 76.0569C58.1359 75.9221 59.008 76.757 59.7549 77.4719C59.8389 77.5523 59.9212 77.6311 60.0021 77.7069L60.017 77.7215C60.1334 77.8342 60.7794 78.4598 60.4021 78.5069C58.9671 78.4153 57.5135 78.678 56.0526 78.9419C55.1211 79.1102 54.1866 79.2791 53.2521 79.3569C53.0188 79.4236 52.7854 79.4736 52.5521 79.5069C52.4521 79.5069 52.3521 79.5069 52.3521 79.6069C52.3182 79.7087 52.3303 79.8334 52.3416 79.9499C52.3469 80.0052 52.3521 80.0587 52.3521 80.1069L52.5521 82.6069C52.5646 82.6319 52.5708 82.6507 52.5755 82.6647C52.5802 82.6788 52.5833 82.6882 52.5896 82.6944C52.6021 82.7069 52.6271 82.7069 52.7021 82.7069C54.1196 82.7928 55.5003 82.6573 56.8757 82.5223C57.1013 82.5002 57.3267 82.4781 57.5521 82.4569C58.4521 82.8069 59.2521 83.4569 59.9021 84.2069C59.9521 84.2569 60.0521 84.4069 60.0521 84.5069C60.0521 84.6069 59.9021 84.6069 59.8521 84.6069C59.5188 84.6236 59.1855 84.6458 58.8522 84.668C58.1855 84.7125 57.5188 84.7569 56.8521 84.7569H56.6521ZM9.43608 112.523H9.43645C10.0231 112.528 10.5991 112.533 11.152 112.557H11.252C11.502 112.557 11.352 112.307 11.252 112.157C9.75781 110.215 8.01555 110.306 6.12405 110.406L6.10202 110.407C5.90432 110.407 5.70356 110.41 5.50051 110.413H5.50043H5.50035H5.50027H5.50019H5.50011H5.50003H5.49994H5.49986H5.49978H5.49969H5.49961H5.49952H5.49943H5.49935H5.49926H5.49917H5.49908H5.49899H5.4989H5.4988C4.88073 110.423 4.24137 110.432 3.60202 110.357C3.62249 110.169 3.64531 109.975 3.66856 109.778C3.92916 107.57 4.24319 104.909 1.90201 103.807C1.88799 103.8 1.86218 103.785 1.82802 103.765L1.82654 103.765L1.82648 103.765L1.82644 103.764C1.61589 103.643 1.09488 103.343 1.052 103.557C1.57309 104.686 1.40697 105.899 1.24265 107.098C1.12317 107.971 1.00465 108.836 1.15201 109.657C2.99935 112.47 6.36264 112.498 9.43608 112.523ZM77.802 101.657C78.312 101.387 78.93 101.225 79.548 101.063C79.96 100.955 80.372 100.847 80.752 100.707C83.5726 99.9289 83.1295 99.1509 81.9531 97.0847L81.852 96.907C81.502 96.357 81.252 95.857 82.152 96.307C83.352 96.957 84.702 97.757 85.152 99.157C85.2355 99.3657 85.35 99.5822 85.4674 99.8042L85.4675 99.8044C85.772 100.38 86.0964 100.994 85.952 101.607C85.4865 102.616 83.3657 103.173 81.8078 103.582C81.3577 103.7 80.9546 103.806 80.652 103.907C79.552 103.457 78.302 102.707 77.802 101.657ZM31.6028 214.657C33.7026 214.657 35.8524 214.657 37.9521 214.807C39.3188 214.84 40.7021 214.857 42.1021 214.857H44.1021C44.3521 214.057 42.3021 212.657 41.5521 212.207C39.7112 212.093 37.8702 212.031 36.0293 211.969C33.8202 211.895 31.6112 211.821 29.4021 211.657C29.1521 211.607 28.9021 211.607 28.7021 211.657L28.63 211.657C28.0446 211.659 27.9502 211.659 27.9021 210.457C27.8006 209.152 27.7076 207.843 27.6143 206.532C27.3861 203.322 27.1571 200.102 26.8021 196.907C23.2311 173.475 21.8137 149.851 20.3962 126.224L20.3021 124.657C20.2021 123.532 20.1521 122.395 20.1021 121.257L20.1021 121.257L20.1021 121.257C20.0521 120.119 20.0021 118.982 19.9021 117.857C19.4021 117.207 18.2521 115.807 17.4521 115.957C17.4829 118.665 17.6652 121.372 17.8474 124.08L17.8474 124.08C17.9613 125.773 18.0752 127.465 18.1521 129.157C18.2336 130.712 18.3143 132.267 18.395 133.822L18.3951 133.823L18.3951 133.823L18.3952 133.824L18.3952 133.825L18.3953 133.826L18.3953 133.827L18.3954 133.828L18.3954 133.829L18.3955 133.83L18.3955 133.831L18.3955 133.832L18.3956 133.833L18.3956 133.834L18.3957 133.834L18.3957 133.835L18.3958 133.836L18.3958 133.837C19.4541 154.226 20.5118 174.603 23.2521 194.807C23.4641 197.047 23.621 199.306 23.7784 201.572L23.7784 201.572L23.7785 201.572C23.881 203.048 23.9838 204.528 24.1021 206.007L24.1206 206.296C24.3595 210.06 24.5491 213.048 28.3521 214.657H31.6021H31.6028ZM49.7521 116.807C49.0256 116.655 48.2306 116.646 47.4326 116.636C45.8692 116.618 44.2946 116.599 43.2021 115.507C43.1021 115.407 42.1021 114.357 42.4021 114.257C43.0521 114.257 43.7521 114.207 44.4021 114.107L44.5365 114.096C46.2937 113.948 48.082 113.798 49.2521 115.407C49.5021 115.657 50.5521 116.807 49.8521 116.807H49.7521ZM56.4521 212.407C57.0521 213.657 58.4021 214.607 59.6521 215.157H59.7521C59.8021 215.157 59.8521 215.157 59.9021 215.057C59.9021 214.938 59.8793 214.807 59.8555 214.67C59.8294 214.521 59.8021 214.364 59.8021 214.207C59.4521 211.057 59.0771 207.907 58.7021 204.757C58.3271 201.607 57.9521 198.457 57.6021 195.307C56.1778 183.913 55.3463 172.489 54.5142 161.058C54.2655 157.642 54.0167 154.224 53.7521 150.807C53.4921 145.796 53.1427 140.796 52.7937 135.802C52.4044 130.232 52.0157 124.669 51.7521 119.107C51.2021 118.257 49.9521 117.057 48.9521 116.957C48.9233 117.158 48.9607 117.376 48.9977 117.591C49.025 117.751 49.0521 117.908 49.0521 118.057C49.2691 121.883 49.4829 125.709 49.6967 129.534L49.6967 129.535L49.6968 129.535L49.6968 129.535L49.6968 129.535L49.6968 129.535L49.6968 129.535L49.6968 129.536L49.6968 129.536L49.6968 129.536L49.6968 129.536L49.6969 129.536L49.6969 129.537L49.6969 129.537L49.6969 129.537L49.6969 129.537L49.6969 129.537C50.6649 146.859 51.6325 164.175 52.9021 181.457C53.3649 186.726 53.9545 191.944 54.5444 197.166L54.5446 197.167C54.7831 199.279 55.0217 201.391 55.2521 203.507C55.4906 205.552 55.7757 207.573 56.0596 209.587L56.0599 209.589L56.0601 209.591L56.0603 209.592L56.0606 209.594L56.0608 209.596L56.061 209.597L56.0612 209.599L56.0615 209.601L56.0617 209.602L56.0619 209.604L56.0622 209.606L56.0624 209.607C56.1941 210.542 56.3257 211.474 56.4521 212.407ZM44.7021 209.207C44.3451 205.201 44.114 201.163 43.884 197.144L43.8839 197.143L43.8838 197.142L43.8838 197.141L43.8837 197.139L43.8836 197.138L43.8835 197.137C43.8237 196.092 43.764 195.049 43.7021 194.007C42.8271 177.174 42.6466 160.34 42.466 143.507V143.507C42.4299 140.14 42.3938 136.774 42.3521 133.407C42.3047 130.967 42.1563 128.538 42.0079 126.109L42.0079 126.109C41.8431 123.412 41.6784 120.717 41.6521 118.007C41.6771 117.907 41.6771 117.807 41.6771 117.713C41.6771 117.619 41.6771 117.532 41.7021 117.457C41.8866 117.42 42.0438 117.519 42.194 117.614L42.194 117.614C42.2473 117.648 42.2997 117.681 42.3521 117.707C42.4541 117.789 42.5685 117.87 42.6864 117.954L42.6866 117.954C43.1472 118.283 43.6623 118.65 43.7021 119.207C43.6521 121.857 43.9021 124.457 44.1521 127.057C45.1021 137.157 45.2521 147.357 45.3021 157.457C45.5259 171.634 46.2509 186.173 46.9576 200.346L46.9576 200.347C47.198 205.169 47.4363 209.948 47.6521 214.657C45.1987 213.631 45.0535 212.326 44.8022 210.069C44.7718 209.796 44.7399 209.509 44.7021 209.207ZM66.9599 212.22C66.2522 212.276 65.5432 212.332 64.9021 212.507C65.5021 213.707 66.8021 214.557 67.9521 215.057C68.5157 214.986 69.1329 214.924 69.7828 214.86C74.6101 214.38 81.2462 213.72 81.2021 207.507C81.0258 205.567 80.8341 203.627 80.6421 201.684L80.642 201.684L80.642 201.683L80.6419 201.683L80.6419 201.682L80.6418 201.682L80.6418 201.682L80.6417 201.681L80.6417 201.681L80.6416 201.68L80.6416 201.68L80.6416 201.679L80.6415 201.679L80.6415 201.679L80.6414 201.678C80.3437 198.666 80.0452 195.646 79.8021 192.607C79.4324 188.765 79.0174 184.923 78.6021 181.079L78.6021 181.079L78.6021 181.079L78.6021 181.079L78.6021 181.078L78.602 181.078L78.602 181.078L78.602 181.077L78.602 181.077L78.6019 181.077L78.6019 181.077L78.6019 181.076L78.6019 181.076L78.6019 181.076L78.6018 181.076C77.4447 170.364 76.2861 159.637 76.1021 148.857C76.0396 144.419 76.0748 139.982 76.1099 135.544C76.131 132.882 76.1521 130.219 76.1521 127.557C76.1521 126.827 76.1501 126.096 76.1481 125.366C76.1401 122.448 76.1321 119.537 76.2521 116.657C76.3882 115.523 74.5895 114.389 73.6201 113.777L73.6182 113.776L73.4933 113.697L73.4083 113.643L73.3521 113.607C73.3383 113.602 73.3236 113.597 73.3082 113.591L73.2914 113.584L73.2647 113.573L73.2272 113.557C73.0835 113.496 72.9035 113.419 72.7521 113.457C72.591 113.521 72.6168 113.69 72.6421 113.855C72.6561 113.946 72.6699 114.036 72.6521 114.107C72.6898 115.69 72.7338 117.27 72.7778 118.847L72.7779 118.85L72.7779 118.852L72.778 118.855L72.7781 118.857L72.7782 118.86L72.7782 118.862L72.7782 118.864L72.7783 118.866L72.7783 118.868L72.7784 118.869L72.7784 118.871L72.7785 118.873V118.873V118.873V118.873V118.873V118.873V118.873V118.874V118.874V118.874V118.874V118.874V118.874V118.875V118.875C72.9093 123.566 73.0395 128.237 73.0021 132.907C72.6621 152.88 74.5614 172.744 76.4592 192.592C76.7943 196.097 77.1294 199.602 77.4521 203.107C79.1521 210.207 73.7021 211.557 68.4521 212.057C67.9723 212.14 67.4665 212.18 66.9599 212.22ZM33.1021 54.9069C32.2905 54.5978 31.6582 53.96 31.0434 53.3399C30.8628 53.1578 30.6838 52.9772 30.5021 52.8069C29.5312 51.9806 28.637 51.0689 27.7456 50.16L27.7456 50.1599C26.4796 48.8691 25.2192 47.5839 23.7521 46.5569C22.7974 46.1451 22.074 46.0697 21.406 46C20.2899 45.8837 19.3287 45.7835 17.7021 44.1569C15.7596 42.4734 18.0284 37.3985 19.296 34.5629L19.2961 34.5628C19.4967 34.114 19.6723 33.7212 19.8021 33.4069C18.8522 33.3069 17.9023 33.157 16.9524 33.007L16.9521 33.0069C16.499 32.8936 16.0315 32.8588 15.5687 32.8243H15.5686C14.8059 32.7674 14.0556 32.7115 13.4021 32.3069C11.3521 31.1069 10.7021 30.5569 11.9021 28.2069C13.8021 24.7069 15.9021 21.2069 18.3021 17.9569C18.7021 17.4069 20.0021 18.6569 20.3021 19.0069C20.3521 19.0569 20.3521 19.1069 20.3521 19.1569C19.8855 19.9903 19.4355 20.8236 19.0021 21.6569C18.4286 22.7518 17.7947 23.8164 17.1613 24.8803L17.1613 24.8803C15.9723 26.8773 14.785 28.8713 14.0021 31.0569C15.4021 31.3569 16.8521 31.5569 18.2521 31.7069C19.7521 31.7569 21.3021 32.4069 22.2021 33.7069C22.5145 34.5398 22.1524 35.3968 21.8013 36.2277C21.6465 36.594 21.4939 36.9551 21.4021 37.3069C21.3361 37.4963 21.2692 37.6861 21.2022 37.8764C20.5086 39.8457 19.7977 41.864 19.7521 44.0069C23.2883 44.7453 25.8581 47.356 28.3533 49.8911C29.0687 50.6179 29.778 51.3385 30.5021 52.0069C30.5632 52.0802 30.8004 52.2938 31.1115 52.5739L31.1119 52.5743L31.1121 52.5745C32.0746 53.4412 33.7444 54.9447 33.1021 54.9069ZM43.1021 54.357C43.6521 55.457 44.8521 56.207 45.9521 56.707C46.1595 56.7416 46.2474 56.5371 46.3315 56.3415C46.369 56.2542 46.4058 56.1687 46.4521 56.107C47.204 54.7676 47.6025 53.2846 48.0006 51.8035C48.4496 50.1329 48.898 48.4646 49.8521 47.007C51.2865 44.6377 53.2457 43.0166 55.0112 41.5557C58.7226 38.4848 61.5778 36.1223 56.902 29.007C56.7109 28.7107 56.5034 28.4383 56.3104 28.185C55.4939 27.113 54.9394 26.385 57.002 25.657C58.5453 25.0257 60.2116 24.8618 61.8628 24.6994L61.8628 24.6994C62.5655 24.6303 63.2655 24.5615 63.9521 24.457C69.3329 23.8152 61.4568 17.666 59.7161 16.307L59.652 16.257C59.302 15.807 53.8521 12.757 55.7021 14.907C56.7521 16.007 58.052 16.857 59.502 17.207C60.2546 17.6823 60.8816 18.3772 61.4826 19.0432C61.6403 19.2179 61.7962 19.3907 61.9521 19.557C62.6021 20.157 63.402 21.407 62.302 21.957C61.1767 22.3401 59.9826 22.4709 58.7856 22.6021C57.4829 22.7448 56.1767 22.888 54.9521 23.357C54.836 23.3987 54.7153 23.4401 54.5928 23.482L54.5927 23.4821C53.395 23.892 52.0274 24.3602 53.252 25.857C55.602 28.857 59.002 34.057 55.252 37.257C54.6426 37.7636 54.0213 38.2617 53.3996 38.7599C49.7884 41.6546 46.1671 44.5574 44.802 49.207C44.5854 49.8963 44.3455 50.5701 44.1068 51.2406C43.7394 52.2723 43.3748 53.2963 43.1021 54.357ZM69.3021 108.107C67.6317 107.339 65.8801 106.799 64.1352 106.262C61.3363 105.4 58.5545 104.543 56.1522 102.757C47.7022 97.207 39.9522 89.307 37.9022 79.107C37.2022 76.307 37.5522 73.457 38.4522 70.807C39.286 68.1202 39.9911 65.3905 40.6866 62.6975L40.6867 62.6973L40.6867 62.6973L40.6868 62.697L40.8522 62.057C40.9142 61.8177 40.9794 61.58 41.0444 61.343L41.0444 61.3429L41.0444 61.3429L41.0444 61.3428L41.0444 61.3428L41.0444 61.3427L41.0445 61.3427L41.0445 61.3426L41.0445 61.3425C41.3461 60.2427 41.6433 59.1587 41.6022 58.007C40.5022 56.257 45.0522 59.507 44.6522 60.057C44.3321 62.5462 43.6074 65.1113 42.8918 67.6444L42.8917 67.6445C42.6011 68.673 42.312 69.6962 42.0521 70.707C41.9813 70.9445 41.9091 71.1831 41.8365 71.4227C41.0389 74.0571 40.2063 76.807 40.8022 79.557C42.2021 87.307 46.6021 94.507 52.8021 99.307C55.5154 101.753 58.5791 102.767 61.77 103.824C62.7542 104.15 63.7504 104.48 64.7522 104.857C65.0598 105.006 65.3727 105.148 65.6853 105.29L65.6854 105.29L65.6856 105.291L65.6857 105.291L65.6859 105.291L65.686 105.291L65.6861 105.291L65.6863 105.291L65.6864 105.291L65.6865 105.291C67.0499 105.911 68.4075 106.528 69.3021 107.707C69.3163 107.735 69.3386 107.768 69.362 107.802L69.3621 107.802C69.4212 107.888 69.488 107.985 69.4522 108.057C69.4522 108.133 69.3938 108.122 69.3439 108.113C69.3285 108.11 69.3139 108.107 69.3021 108.107ZM42.452 78.357C42.802 79.857 44.602 81.207 45.952 81.907C46.202 82.007 46.252 81.857 46.202 81.607C46.1687 81.5736 46.1853 81.557 46.252 81.557C46.152 80.307 44.152 78.807 43.152 78.107C42.802 77.907 42.252 77.657 42.452 78.357ZM37.5021 56.807C36.5521 56.457 35.6521 55.807 35.0021 55.057C34.6208 54.3842 34.2899 53.6811 33.9595 52.9795L33.9595 52.9795C33.5534 52.117 33.1484 51.2566 32.6521 50.457L32.4828 50.1184C30.7898 46.7341 29.115 43.386 28.0021 39.757C26.8033 35.8336 25.9476 31.8046 25.0899 27.766L25.0898 27.7656C24.767 26.2457 24.4439 24.7245 24.1021 23.207C24.0521 22.557 26.4021 24.357 26.5521 24.657C27.2272 27.1089 27.7446 29.6239 28.2633 32.146L28.2633 32.146C29.2045 36.7215 30.1504 41.3201 32.0521 45.607C33.3521 48.657 34.9521 51.557 36.5521 54.407C36.582 54.5118 36.742 54.7959 36.9326 55.1346C37.3786 55.9268 37.9925 57.0172 37.5021 56.807ZM0.40212 97.657C0.45212 98.857 2.10211 99.657 3.05211 100.057C3.35211 100.207 3.30213 99.807 3.25213 99.657C3.35213 96.957 3.35213 94.257 3.35213 91.507C3.35213 87.4359 3.52225 83.3649 3.69236 79.2938C3.90251 74.2649 4.11265 69.2359 4.00213 64.207C3.99373 63.1155 3.98392 62.0255 3.97413 60.9366C3.92559 55.5409 3.87731 50.1739 4.00213 44.807C4.10213 37.657 5.00213 29.407 11.1021 24.757C11.3021 24.657 11.5021 24.557 11.7021 24.557C12.1521 24.207 9.45213 22.357 9.00213 22.507C2.50213 26.357 1.35213 35.007 1.10213 42.007C0.852132 48.407 0.85212 54.857 0.90212 61.257C0.981142 66.2617 0.782635 71.2525 0.584389 76.2368C0.406323 80.7137 0.228467 85.1853 0.252126 89.657C0.252126 92.3236 0.30212 94.9903 0.40212 97.657ZM81.0021 90.757C78.7532 89.892 78.5618 88.5408 78.2922 86.6385L78.2921 86.638C78.2501 86.3412 78.2061 86.0309 78.1521 85.707C77.4767 82.2173 77.3082 78.6994 77.1393 75.1745V75.1743C77.0832 74.0024 77.027 72.8297 76.9521 71.657C76.5355 66.8236 76.2731 61.9903 76.0108 57.1569C75.8009 53.2903 75.591 49.4236 75.3021 45.557C74.6021 38.457 72.5021 31.507 69.7021 24.957C69.6473 24.7375 69.4269 24.2773 69.1772 23.7559C68.5165 22.3764 67.6507 20.5684 69.1021 21.657C69.9775 22.0947 70.2781 22.8388 70.6078 23.6547L70.6083 23.656L70.6097 23.6594C70.656 23.7741 70.7029 23.8901 70.7521 24.007C71.9521 26.657 73.1521 29.307 74.1521 32.057C77.7521 41.007 78.4021 50.707 78.8521 60.307C79.4529 66.6356 79.7971 72.9963 80.1415 79.3633L80.1416 79.3638C80.2271 80.9446 80.3126 82.5258 80.4021 84.107C80.5385 85.539 80.7214 86.9942 80.9032 88.441L80.9034 88.4425C80.9882 89.1169 81.0727 89.7894 81.1521 90.457C81.1521 90.4903 81.1571 90.5286 81.162 90.5668C81.1793 90.7008 81.1966 90.8348 81.0021 90.757ZM38.3522 49.8069C38.1522 50.5569 39.7021 51.2569 40.3021 51.4569C40.416 51.5329 40.4434 51.4071 40.4719 51.2764C40.481 51.235 40.4901 51.1931 40.5022 51.1569C40.7522 49.4069 41.1022 47.6569 41.6022 45.9069C42.1058 44.0182 42.9266 42.2682 43.7525 40.5072L43.7525 40.5071C44.2385 39.471 44.7262 38.4311 45.1521 37.3569C45.5792 36.1129 46.1304 34.9103 46.6802 33.7106L46.6802 33.7105L46.6802 33.7105L46.6802 33.7105L46.6802 33.7104C47.611 31.6796 48.5378 29.6572 48.8522 27.4569C49.0522 26.6569 47.5021 25.9569 46.9021 25.7069C46.8521 25.6569 46.7021 25.6069 46.6521 25.6569C46.6022 25.7069 46.6022 25.7569 46.6022 25.8069V25.8069C46.3015 28.9264 45.012 31.7917 43.7318 34.6362C43.3089 35.5759 42.887 36.5133 42.5022 37.4569C40.5022 41.3569 38.7022 45.4069 38.3522 49.8069ZM37.3021 43.457C36.3521 43.007 35.3521 42.257 35.5021 41.107C35.4521 40.157 35.4396 39.1945 35.4271 38.232C35.4146 37.2695 35.4021 36.307 35.3521 35.357C35.3288 34.167 35.2292 32.977 35.1297 31.787C35.0159 30.427 34.9021 29.067 34.9021 27.707C35.0521 27.407 36.1021 28.357 36.2021 28.507C36.5021 28.707 36.6521 29.057 36.6021 29.457C36.5521 30.107 36.6021 30.757 36.7021 31.407C37.1021 35.257 37.4021 39.157 37.4021 43.057C37.4021 43.0929 37.4078 43.1375 37.4138 43.1838L37.4139 43.1842L37.4139 43.1842C37.4328 43.331 37.454 43.495 37.3021 43.457ZM35.1021 24.7932C35.4989 25.0662 35.9323 25.3643 36.4021 25.407C36.8211 25.3771 37.1505 25.1142 37.4761 24.8544C37.6945 24.6802 37.9112 24.5073 38.1521 24.407C38.3467 24.2795 38.571 24.1439 38.8093 23.9998C40.3468 23.0704 42.4672 21.7886 40.9521 20.057C37.8521 16.557 36.5021 17.307 34.4021 21.157C34.374 21.1851 34.3301 21.1974 34.2794 21.2116C34.2398 21.2228 34.1959 21.2351 34.1521 21.257C34.1275 21.2693 34.1075 21.28 34.0908 21.289C34.0503 21.3108 34.0293 21.3221 34.0107 21.319C33.9906 21.3156 33.9732 21.2955 33.9372 21.2536C33.9081 21.2197 33.8668 21.1718 33.8021 21.107C32.2521 19.807 30.5021 18.657 28.5521 18.257C25.0521 17.757 30.7521 22.807 31.6521 23.157C32.5521 23.707 33.5021 24.157 34.5021 24.407C34.6435 24.4423 34.6849 24.4777 34.7678 24.5484C34.8021 24.5777 34.8435 24.6131 34.9021 24.657C34.9677 24.7007 35.0343 24.7466 35.1021 24.7932ZM40.7522 30.8069C40.0522 30.4069 38.6022 29.3069 39.0022 28.4069C39.1022 28.3069 39.3022 28.4569 39.3522 28.5069C40.0522 29.0069 40.8022 29.6069 40.9522 30.5069C40.9522 30.5569 40.9522 30.6069 40.9022 30.6569L40.9022 30.657C40.8729 30.7446 40.8608 30.781 40.8358 30.7962C40.818 30.8069 40.7937 30.8069 40.7522 30.8069ZM39.5914 34.2819C39.9964 34.6466 40.4139 35.0224 40.952 35.157C41.752 35.057 39.202 32.807 38.802 32.707C37.952 32.357 39.252 34.007 39.452 34.157C39.4984 34.1982 39.5448 34.24 39.5914 34.2819Z" fill="black"/>
</svg>
