<svg width="87" height="100" viewBox="0 0 87 100" fill="none" xmlns="http://www.w3.org/2000/svg">
<path fill-rule="evenodd" clip-rule="evenodd" d="M22.2825 8.60001C22.8325 9.30001 23.8324 9.70001 24.6824 9.95001C30.2171 7.63205 36.1994 6.9253 42.1635 6.2207C42.5032 6.18056 42.8429 6.14043 43.1824 6.10001C45.5159 5.82158 47.867 5.60995 50.2216 5.398C56.7468 4.81064 63.2996 4.2208 69.5825 2.20001C69.3825 1.60001 67.8324 0.9 67.1824 0.75C66.2634 0.933803 65.355 1.19151 64.4425 1.45035C63.3692 1.7548 62.2904 2.06083 61.1824 2.25C58.3197 2.79161 55.397 3.12369 52.484 3.45467C51.6321 3.55147 50.781 3.64818 49.9324 3.75C47.4845 4.07639 45.0069 4.30661 42.5249 4.53724C35.8818 5.15454 29.2069 5.77478 22.9824 8.25C22.8967 8.31428 22.7835 8.35102 22.6702 8.38776C22.5192 8.43674 22.3682 8.48572 22.2825 8.60001ZM70.4324 63.75C70.7824 65.4 72.3324 66.6 73.7824 67.3L73.7946 67.3002L73.8055 67.3008L73.8121 67.3012L73.825 67.3021L73.8455 67.3039C73.9355 67.312 74.0324 67.3206 74.0324 67.2C74.0074 67.0251 73.9699 66.8501 73.9324 66.6751L73.9324 66.6751C73.8949 66.5001 73.8574 66.325 73.8324 66.15C73.7984 66.0028 73.7638 65.855 73.7291 65.7066L73.729 65.7065L73.729 65.7064C73.4569 64.5442 73.1767 63.3471 73.1324 62.15C72.9324 55.95 74.3324 49.7 76.7824 44C77.7688 41.6461 78.9562 39.3727 80.1464 37.094L80.1464 37.0939L80.1464 37.0939L80.1464 37.0938L80.1465 37.0938L80.1465 37.0937L80.1465 37.0937C81.6108 34.2902 83.0791 31.4788 84.1824 28.5C88.3324 17.35 87.1824 8.60005 76.3324 2.20005C75.5324 1.60005 74.1823 1.05005 75.4824 2.45005C76.1823 3.20005 77.0324 3.80002 77.9324 4.30002C80.7324 5.95002 82.3824 9.25003 82.8824 12.4C83.9769 20.8193 80.204 28.0257 76.4088 35.2747C73.4424 40.9406 70.4624 46.6326 69.7824 52.95C69.1824 56.55 69.1324 60.25 70.4324 63.75ZM17.4051 54.9003C5.9788 68.0257 -11.7634 88.4061 12.0324 98.7C21.4824 102.2 32.4824 93.75 32.6324 83.95C32.7824 82.05 32.7824 80.15 32.7824 78.25C32.9527 77.4409 32.3251 76.8494 31.7645 76.3211C31.6669 76.2291 31.5713 76.139 31.4824 76.05C31.1824 75.75 29.4824 74.15 29.5324 75.2C29.6824 82.8 28.8324 89.25 21.8324 93.55C17.3324 96.95 9.33241 97.7 5.53241 93C0.965997 84.5734 8.58859 73.7975 13.7106 66.5567C14.0287 66.1071 14.3371 65.671 14.6324 65.25C16.2246 63.1226 17.8991 61.0418 19.5756 58.9586L19.5756 58.9585C24.1639 53.257 28.7661 47.5381 31.7324 40.8C37.3824 29.35 36.1824 16.3 22.4824 12.1C17.7824 11.25 12.0824 13 9.98236 17.6C9.68236 18 9.53237 18.6 9.93237 18.95C10.3324 19.4 11.9324 21.1 12.2824 20.55C14.5824 14.05 24.8324 12.05 29.5324 17C37.6324 28.75 26.6324 44.1 18.8824 53.2C18.4051 53.7515 17.9113 54.3188 17.4051 54.9003ZM38.7824 99.7501C37.7324 99.3001 36.7824 98.5001 36.0824 97.6501C36.0615 97.6153 36.0387 97.5805 36.0162 97.5463C35.8773 97.3344 35.7519 97.1431 36.1823 97.1C38.3823 96.5 40.6323 96.2001 42.8823 95.9501C43.8911 95.8283 44.8938 95.6945 45.8925 95.5612L45.8928 95.5611C47.7652 95.3112 49.6238 95.0631 51.4823 94.9001C54.3823 94.6001 57.2823 94.55 60.1323 94.6C61.5478 94.5834 62.9687 94.6222 64.3915 94.6611H64.3916H64.3917H64.3917H64.3918H64.3919C67.2412 94.7389 70.0979 94.8169 72.9323 94.4501C78.4323 93.7501 84.3323 89.2001 83.6323 83.1501C83.4745 80.625 82.6318 78.2556 81.792 75.8944L81.7917 75.8937C81.5673 75.2628 81.3432 74.6325 81.1323 74.0001C81.1823 73.9001 81.4824 74.1501 81.5324 74.2001C81.7824 74.3501 81.9823 74.5501 82.1323 74.8501C82.3642 75.4008 82.5793 75.9683 82.7971 76.5429L82.7971 76.5431L82.7984 76.5465L82.7988 76.5475C82.9562 76.9626 83.1149 77.3813 83.2824 77.8001C84.4324 80.8501 85.6324 84.2001 85.0824 87.5501C84.1324 92.0001 79.9823 95.2501 75.6323 96.2001C72.8323 96.7667 69.9879 96.7112 67.1434 96.6556C65.7212 96.6279 64.299 96.6001 62.8823 96.6501C57.3823 96.6001 51.9823 97.5001 46.6323 98.5001C45.999 98.6001 45.3657 98.689 44.7324 98.7778C43.4657 98.9556 42.199 99.1334 40.9323 99.4001C40.6582 99.4393 40.3765 99.4937 40.093 99.5485L40.093 99.5486H40.0929H40.0929L40.0928 99.5486C39.6525 99.6337 39.2082 99.7197 38.7824 99.7501ZM40.4324 29.9C40.8324 30.7 41.7324 31.3 42.5324 31.7C42.6324 31.7 42.6824 31.7 42.7324 31.6C43.0824 30.35 44.2824 29.5 45.4324 29.1C47.128 28.4642 48.6738 29.2259 50.1934 29.9747C50.8246 30.2857 51.4514 30.5946 52.0824 30.8C53.4824 31.35 54.8824 30.55 55.8324 29.5C56.1215 29.1998 56.4006 28.8774 56.6814 28.5531C57.6636 27.4188 58.666 26.2611 60.1824 25.95C61.6903 25.6987 63.2157 25.7632 64.7366 25.8275C66.8468 25.9167 68.9484 26.0055 70.9824 25.25C72.3824 24.8 73.7324 24.15 75.0324 23.45C75.2324 23.4 75.4324 23.3 75.2824 23.1C74.8324 22.45 74.1824 21.9 73.4324 21.5C73.1829 21.4065 72.9723 21.5658 72.7643 21.7232C72.6387 21.8181 72.5141 21.9124 72.3824 21.95C68.3124 24.4638 65.148 24.2837 62.3898 24.1267C59.3875 23.9559 56.8664 23.8124 54.1824 27.2C53.3324 28.1 52.3824 29.1 51.0824 29.15C50.0697 29.0295 49.15 28.5601 48.228 28.0895C47.2381 27.5843 46.2456 27.0777 45.1324 27C43.2324 26.85 40.9824 28 40.4324 29.9ZM48.4822 45.3C47.445 44.8006 46.7325 43.9471 46.0272 43.1022C45.8145 42.8474 45.6024 42.5933 45.3822 42.35C43.3322 42.05 41.2822 43.25 39.9322 44.65C39.8422 44.7175 39.7724 44.8053 39.7047 44.8905L39.7047 44.8906C39.6219 44.9947 39.5422 45.095 39.4322 45.15C38.9929 45.0524 38.6012 44.7164 38.2572 44.4214L38.2322 44.4C38.185 44.341 38.1183 44.2764 38.0479 44.2082C37.8199 43.9875 37.5531 43.7292 37.7823 43.5C39.2323 41.8 41.6822 40.25 43.9822 40.8C45.3822 41.35 46.4322 42.55 47.3822 43.7C48.2909 43.8435 49.291 43.1979 50.3444 42.518C51.4936 41.7762 52.7061 40.9935 53.9322 41.15C54.6648 41.2187 55.3555 41.4446 56.0427 41.6694C56.8563 41.9355 57.6649 42.2 58.5323 42.2C59.974 42.2703 61.2674 41.6235 62.5341 40.9899C63.0685 40.7226 63.5982 40.4577 64.1322 40.25C64.9322 40.6 65.5823 41.25 66.0823 41.95C66.1323 42 66.1822 42.1 66.1322 42.15C65.9825 42.2249 65.7954 42.3122 65.6082 42.3995L65.6081 42.3996L65.6072 42.4L65.6064 42.4004L65.6063 42.4005L65.6061 42.4006C65.419 42.4879 65.2319 42.5752 65.0823 42.65C61.6147 44.6158 59.6829 43.9874 57.9352 43.4189C56.4824 42.9463 55.1568 42.5152 53.1822 43.65C52.7909 43.8389 52.396 44.1006 51.9934 44.3674L51.9934 44.3674C50.9044 45.0891 49.7599 45.8476 48.4822 45.3ZM39.7822 61.3001C38.5822 60.7001 37.5322 59.7501 36.5822 58.8001C36.3822 58.6001 36.1821 58.4001 35.8821 58.4001C34.0321 58.5001 32.2822 59.9501 31.3322 61.5001C30.4822 61.4501 28.7321 59.9501 28.4321 59.1501C28.8112 58.3921 29.5494 57.8136 30.2214 57.287L30.3322 57.2001C33.2822 54.6501 36.0821 57.2001 38.2321 59.4001C39.8198 60.0718 41.2955 59.3825 42.7847 58.687C43.7343 58.2435 44.6892 57.7975 45.6821 57.7001C46.3297 57.6446 46.9909 57.7261 47.6532 57.8076C48.7807 57.9464 49.9112 58.0856 50.9821 57.5501C48.0821 55.7001 45.5321 50.5001 50.3821 49.4501C51.7821 49.3001 53.0822 50.1001 54.0822 50.9501C56.3322 52.6001 56.8321 55.8001 55.1321 58.0001C56.2672 58.0711 57.3771 57.8904 58.4975 57.708L58.4977 57.708L58.4978 57.7079L58.498 57.7079C58.9568 57.6332 59.4173 57.5582 59.8821 57.5001C60.5321 57.7501 61.1322 58.3001 61.5822 58.8501C61.6322 58.9001 61.7321 59.0501 61.6821 59.1001C61.0821 59.3626 60.3978 59.4564 59.7134 59.5501C59.4853 59.5814 59.2572 59.6126 59.0322 59.6501C57.3322 59.9001 55.5321 59.7501 53.9321 59.2001C52.7238 60.1145 51.3449 59.9838 49.9626 59.8527C49.2284 59.7831 48.4933 59.7134 47.7822 59.8001C46.9236 59.9783 46.0755 60.3612 45.226 60.7447C43.4536 61.545 41.675 62.3479 39.7822 61.3001ZM51.782 51.25C48.982 51.95 49.232 56.2001 51.582 57.2001C53.182 56.15 54.182 54.15 53.832 52.25C53.782 51.95 53.682 51.6 53.532 51.3C52.982 51.05 52.332 51.1 51.782 51.25ZM35.4823 75.5001C34.9323 75.5001 32.9323 74.1501 33.4323 73.9501C33.9778 73.9046 34.5233 73.8587 35.0688 73.8129C40.5233 73.3542 45.9778 72.8955 51.4323 72.8501C53.7252 72.7215 56.018 72.6756 58.3109 72.6297C61.368 72.5684 64.4251 72.5072 67.4823 72.2501C68.3973 72.1901 69.3123 72.1166 70.2272 72.0431C72.3623 71.8716 74.4973 71.7001 76.6323 71.7001C77.3823 72.0001 78.1823 72.5001 78.6323 73.1501C78.6823 73.2001 78.6323 73.2501 78.5823 73.2501L76.7823 73.3501C70.0199 73.9402 63.2454 74.1676 56.4707 74.395C49.4704 74.6299 42.4699 74.8648 35.4823 75.5001Z" fill="black"/>
</svg>
