<svg width="141" height="99" viewBox="0 0 141 99" fill="none" xmlns="http://www.w3.org/2000/svg">
<path fill-rule="evenodd" clip-rule="evenodd" d="M106 7.97C105.95 8.57 106.85 9.07001 107.3 9.32001H107.35C107.4 9.32001 107.4 9.32 107.4 9.2201V9.22C107.4 9.02 107.45 8.77001 107.5 8.57001C107.8 6.22001 108.2 3.92 108.8 1.62C108.5 1.02 107.85 0.519992 107.2 0.269992C107.077 0.208625 107.068 0.297897 107.055 0.410699V0.410733C107.047 0.481737 107.039 0.562058 107 0.619998C106.45 3.02 106.2 5.52 106 7.97ZM99.6502 9.77016C98.6502 9.37016 97.5003 8.62017 97.4503 7.47017C97.0003 5.27017 96.8002 3.12015 96.7502 0.920152C97.0284 0.641967 98.1665 1.56758 98.5298 1.86313L98.5299 1.86318C98.5584 1.88633 98.5821 1.90562 98.6003 1.92015C99.1503 2.32015 99.3003 2.82015 99.2003 3.42015C99.2336 4.12015 99.2669 4.8035 99.3003 5.47017C99.4003 6.83684 99.5669 8.20351 99.8003 9.57018C99.8003 9.72018 99.8003 9.77016 99.7003 9.77016H99.6502ZM97.4002 15.6702C96.9002 22.4202 94.4502 28.8702 91.2002 34.8202C91.7002 35.6202 92.8002 36.1202 93.7002 36.4702C97.0502 31.6202 98.7002 25.3202 99.7002 19.4702C99.9002 18.3702 99.9502 17.3202 100 16.2202C100 16.0702 100 15.8202 100.15 15.7202C102.7 14.6202 105.95 14.6702 108.5 15.7202C109.7 16.1702 108.65 15.2202 108.25 14.9702C105.45 12.9702 101.6 12.4702 98.3502 13.4702C97.4031 13.6349 97.4055 14.41 97.408 15.1811C97.4085 15.3463 97.409 15.5114 97.4002 15.6702ZM119.15 23.62C115.75 21.87 112.1 19.47 109.75 16.37C109.4 15.72 108.9 14.67 109.5 14.02C109.928 13.8063 110.406 13.9479 110.863 14.0832C111.047 14.1378 111.228 14.1913 111.4 14.22C114.35 14.87 118 16.12 119.25 19.12C119.95 20.47 117.15 18.6201 116.9 18.3201C116.526 18.133 116.405 17.7711 116.281 17.4039C116.207 17.1821 116.132 16.9583 116 16.77C115.5 16.5198 114.901 16.4066 114.316 16.2957C113.965 16.2292 113.618 16.1637 113.3 16.0701C112.8 15.8701 112.5 16.17 112.45 16.67C112.35 18.87 116.4 21.52 118.2 22.47C120.4 23.42 120.9 22.37 119.65 20.52C120.2 20.37 121.65 21.42 121.9 21.92C122.95 23.67 122.5 24.3201 121.5 24.3201C120.85 24.3201 119.95 24.02 119.15 23.62ZM60.307 84.4121C52.9409 81.4725 46.5363 75.8026 44.0002 68.27C42.1212 61.4286 43.7705 53.9836 46.935 47.7245L46.9001 47.7201L47.3 47.0204L47.3002 47.02L47.3003 47.0199C47.5336 46.5533 47.8002 46.0867 48.1001 45.6201L48.113 45.6231C48.2393 45.4152 48.3677 45.2078 48.4983 45.001C46.4494 44.2696 44.2862 43.8088 42.1502 43.4702C39.62 43.1151 37.0111 43.0752 34.4283 43.0357H34.4281C34.1017 43.0308 33.7756 43.0258 33.4502 43.0202C31.4002 43.3702 29.8502 42.0202 28.6502 40.4202C28.5835 40.4535 28.5002 40.4702 28.4002 40.4702C21.2502 41.0702 14.9502 45.5202 10.2502 50.7702C1.20016 60.2702 2.80016 74.8202 11.1002 84.2202C14.7502 88.4702 19.8002 91.2202 24.9502 93.3702C32.8002 96.1702 41.8502 96.3202 49.7502 93.6202C54.6791 91.399 58.8383 88.5155 61.6901 84.9281C61.5561 84.8815 61.4223 84.8341 61.2887 84.7857C60.9576 84.6689 60.6281 84.547 60.3003 84.4201L60.307 84.4121ZM48.2002 73.47C44.1001 65.2698 46.1964 54.5797 51.5357 46.3567C52.3081 46.7836 53.0494 47.2681 53.7502 47.8202C59.1002 52.7202 62.9502 59.2202 64.7002 66.2202C66.8071 73.0872 65.8287 78.8041 62.7647 83.4481C62.3702 83.3634 61.976 83.271 61.583 83.1708L61.4847 83.1437L61.4003 83.1201L61.3979 83.123C55.9329 81.6935 50.7276 78.7319 48.2002 73.47ZM67.8002 82.57C67.6054 83.0827 67.3898 83.5819 67.1548 84.0679C78.4269 84.6871 91.7797 77.6403 97.1502 68.02C104.9 53.52 92.8502 37.42 77.9002 35.17C74.5573 34.7121 71.2143 35.4285 67.9482 36.1285C67.6482 36.1928 67.3489 36.257 67.0502 36.32C66.6002 36.47 66.1502 36.12 65.7002 35.72C65.3002 35.37 64.9502 35.07 64.6502 35.07H64.5502C59.7619 36.9531 55.4496 40.7144 52.1947 45.3781C63.0971 53.151 72.184 69.9666 67.8002 82.57ZM67.6002 86.37C67.0712 86.2944 66.5423 86.2046 66.0145 86.1008C63.0981 90.6424 58.4214 93.885 53.5502 96.22C48.8502 98.22 43.6002 98.47 38.5002 98.27C23.2002 97.57 4.50016 84.77 1.30016 69.22C0.950161 67.62 0.750158 65.97 0.750158 64.32C0.700158 51.92 12.5002 41.12 24.1002 38.77C27.2502 38.22 30.7002 38.42 33.5502 39.92C38.8502 40.02 44.2502 40.97 49.0502 43.42C49.1708 43.4842 49.2913 43.5497 49.4117 43.6163C53.3317 37.9287 58.9017 32.9816 65.8002 32.02C66.1036 32.1304 66.3614 32.332 66.6071 32.5242C66.8068 32.6804 66.9985 32.8304 67.2002 32.92C68.8502 32.57 70.5502 32.27 72.3002 32.27C77.8002 32.22 83.0002 34.72 87.5002 37.67C104.7 48.77 108.8 68.07 90.4002 80.37C84.7502 83.87 78.1502 86.67 71.4502 86.67C70.1502 86.67 68.8668 86.57 67.6002 86.37ZM58.2003 80.6201C55.5003 79.2701 53.1003 75.9701 51.5003 73.4701C48.4003 67.6201 48.3503 59.3701 50.2503 53.1701C50.3503 52.5701 52.6503 54.4201 52.7003 54.7701C52.7353 54.8753 52.6966 54.9559 52.6531 55.0465C52.6346 55.085 52.6152 55.1253 52.6003 55.1701C51.1503 61.2201 51.0003 67.9701 53.3503 73.8201C54.5003 76.2201 56.3003 78.2701 58.1003 80.1701C58.2503 80.2701 58.5003 80.6201 58.2503 80.6201H58.2003ZM71.9081 77.5781C71.4041 77.8241 70.9001 78.0701 70.4501 78.3701C71.0001 79.2701 72.2001 79.8701 73.1501 80.2201C74.7382 79.7471 76.2578 79.0456 77.7707 78.3474C78.4964 78.0124 79.2206 77.6781 79.9501 77.3701C85.5501 75.0701 90.9001 71.5701 93.9001 66.2201C96.1001 61.7201 95.9501 55.9201 94.6501 51.1701C93.3001 46.7201 89.3501 43.6701 85.2001 41.7701C79.8001 39.3701 73.6501 39.0201 67.8501 40.2701C64.2501 41.0701 60.4001 41.9701 57.6001 44.5701C57.7373 44.936 58.2509 45.2181 58.6819 45.4549C58.7221 45.477 58.7617 45.4987 58.8001 45.5201L58.8001 45.5201C58.9001 45.5701 59.1001 45.6701 59.2501 45.5701C60.4501 44.5201 61.9001 43.7201 63.4001 43.1701C71.3001 40.5201 80.7501 39.6201 88.2001 44.0201C94.9001 48.7701 94.2501 62.0701 88.4001 67.3701C84.8848 71.2202 80.2137 73.4941 75.5886 75.7456L75.5879 75.7459C74.6873 76.1843 73.7884 76.6219 72.9001 77.0701C72.5801 77.2501 72.2441 77.4141 71.9081 77.5781ZM97.9501 44.6701C101.35 42.9201 104.85 41.3701 108.35 39.9201C108.937 39.672 109.523 39.4213 110.11 39.1703L110.111 39.1702L110.111 39.1701L110.111 39.1699L110.112 39.1698L110.112 39.1697L110.112 39.1695L110.112 39.1694C112.127 38.3083 114.149 37.4443 116.2 36.6701C116.708 36.4537 117.291 36.2532 117.898 36.0444L117.898 36.0443C120.516 35.1433 123.587 34.0861 123.1 30.9201C123.079 30.1172 123 29.3142 122.92 28.5113L122.92 28.5112C122.805 27.3642 122.691 26.2172 122.75 25.0701C122.97 25.0335 123.163 25.1313 123.349 25.2255L123.349 25.2256C123.417 25.2598 123.484 25.2935 123.55 25.3201L123.603 25.3512L123.69 25.4013L123.69 25.4016C124.249 25.7256 124.831 26.0628 125.2 26.5701C125.2 27.0701 125.2 27.5701 125.3 28.0701C125.285 28.8446 125.431 29.6837 125.579 30.5327C125.918 32.479 126.267 34.4776 124.7 35.8701C123.308 36.9609 121.634 37.599 119.974 38.2313C119.428 38.4395 118.883 38.6472 118.35 38.8701C115.3 40.0701 112.288 41.395 109.276 42.7199L109.275 42.7201L109.275 42.7203C106.262 44.0453 103.25 45.3702 100.2 46.5701C99.7501 46.5201 96.9501 44.9201 97.9501 44.6701ZM106.15 26.4202C109.65 29.3701 113.85 31.3202 118.25 32.3702H118.35C118.4 32.3702 118.5 32.3702 118.45 32.2702C117.435 31.0863 115.94 30.6804 114.46 30.2786C113.752 30.0864 113.047 29.8952 112.4 29.6202C109.1 28.3202 105.4 25.6202 104.8 21.9202C104.8 21.5202 104.6 21.2702 104.3 21.0702L104.206 21.0012C103.618 20.5714 102.468 19.7309 101.9 19.9202C102.1 22.6201 104.25 24.6702 106.15 26.4202ZM107.8 21.9954L107.8 21.995L107.801 21.9947C108.088 21.7198 108.375 21.4449 108.65 21.17C108.7 21.07 108.75 21.02 108.85 21.02C109.3 21.22 110.25 21.67 110.4 22.12C110.282 22.2381 110.162 22.362 110.04 22.4879C109.542 23.0017 109.012 23.5487 108.45 23.87C107.95 23.72 107.15 23.32 106.95 22.82C107.225 22.5452 107.512 22.2703 107.8 21.9954ZM114.15 26.0201C114.55 26.6201 115.4 26.9701 116.05 27.2201H116.1C116.252 27.2201 116.348 26.6703 116.434 26.1809C116.49 25.862 116.541 25.5688 116.6 25.4701C116.75 24.9201 115.1 24.1701 114.65 24.1201C114.577 24.1201 114.584 24.1469 114.593 24.1809C114.595 24.187 114.597 24.1933 114.598 24.1997C114.599 24.2064 114.6 24.2133 114.6 24.2201C114.567 24.6534 114.445 25.0423 114.322 25.4312C114.261 25.6257 114.2 25.8201 114.15 26.0201ZM119.45 30.0201C118.8 29.8201 118.1 29.3701 117.65 28.7701C117.679 28.571 117.756 28.3556 117.835 28.1333L117.835 28.1331C117.895 27.9648 117.957 27.7925 118 27.6201C118.167 27.0535 118.3 26.4868 118.4 25.9201C118.4 25.8201 118.45 25.7702 118.55 25.8202C119.2 26.0202 119.75 26.4701 120.25 26.9201C120.441 27.1423 120.349 27.4048 120.257 27.6693C120.203 27.8214 120.15 27.9741 120.15 28.1201C120.1 28.2201 120.039 28.4646 119.969 28.7461L119.969 28.7462C119.828 29.3091 119.65 30.0201 119.45 30.0201ZM103.416 16.8566L103.416 16.8566C103.109 16.9396 102.802 17.0226 102.5 17.0702C102.6 17.6702 104.25 18.4702 104.85 18.6202L104.937 18.6105C105.811 18.5136 106.726 18.4121 107.5 18.1702C107.134 17.5605 106.438 17.2152 105.788 16.8925C105.638 16.8181 105.491 16.745 105.35 16.6702C104.736 16.4996 104.075 16.6782 103.416 16.8566ZM95.4502 36.87C96.051 35.9388 96.6699 35.0075 97.2959 34.0654C97.7119 33.4395 98.1311 32.8087 98.5502 32.17C98.7324 31.8807 98.9237 31.5914 99.1164 31.3001L99.1164 31.3L99.1165 31.2999L99.1166 31.2998L99.1167 31.2997L99.1167 31.2996L99.1168 31.2995L99.1169 31.2994L99.1169 31.2993C99.8231 30.2316 100.547 29.1375 100.9 27.92C101.415 27.8343 102.003 28.2634 102.475 28.6081C102.554 28.6653 102.629 28.7202 102.7 28.77C103.95 29.07 98.2502 37.82 97.5002 38.17C96.7502 37.92 95.8502 37.52 95.4502 36.87ZM106.5 33.6704C104.85 34.8203 103.2 35.9702 101.45 37.0201C100.6 37.3201 103.1 38.5201 103.45 38.5701C105.191 37.8481 106.824 36.7294 108.41 35.6427L108.411 35.6424C108.692 35.4498 108.972 35.2582 109.25 35.0701C109.15 34.4701 107.6 33.7701 107 33.5701C106.8 33.4701 106.65 33.5201 106.5 33.6701L106.5 33.6704ZM117 10.72L117.3 10.27C118.65 8.02 120.4 6.02 122.15 4.02C122.252 3.93494 122.418 3.71675 122.604 3.47177C122.965 2.99675 123.402 2.42104 123.6 2.52C124.15 2.82 124.6 3.22 124.95 3.67C125.014 3.86233 124.852 3.99302 124.702 4.11475C124.617 4.1829 124.536 4.24824 124.5 4.32002C122.2 6.67002 119.95 9.17002 118.25 11.82C117.75 11.62 117.25 11.22 117 10.72ZM133.58 13.9965C131.133 14.6708 128.625 15.362 126.6 16.8701C126.85 17.3701 127.45 17.7701 127.95 18.0201C130.4 16.5201 133.25 15.7201 136.05 15.0201C136.089 15.0072 136.144 15.001 136.202 14.9945C136.367 14.9759 136.548 14.9555 136.4 14.7701C136.1 14.3701 135.3 13.5201 134.75 13.6701C134.364 13.7806 133.973 13.8881 133.581 13.9961L133.581 13.9962L133.581 13.9963L133.581 13.9963L133.58 13.9965ZM134.2 29.1201C133.825 29.1201 133.463 29.1076 133.1 29.0951C132.738 29.0826 132.375 29.0701 132 29.0701C131.3 28.8701 130.65 28.3201 130.25 27.7201C130.25 27.6701 130.3 27.6201 130.35 27.6201H130.351C131.001 27.6201 131.6 27.6201 132.25 27.6701C132.85 27.7201 133.4 27.7201 133.95 27.7201C135.184 27.7535 136.417 27.7368 137.65 27.6701C137.765 27.6701 137.882 27.6622 138 27.6543C138.397 27.6276 138.803 27.6003 139.15 27.8701C139.4 28.0201 140.7 28.9701 140.4 29.2201H138.25C136.9 29.2201 135.55 29.2201 134.2 29.1201ZM133.983 43.5748C134.657 43.6513 135.318 43.7263 135.95 43.8202C136.017 43.8536 136.067 43.8702 136.1 43.8702C136.55 43.8702 135.9 43.1202 135.75 42.9702C134.75 41.7702 133.55 41.0202 131.95 41.0202C129.65 40.7702 127.3 40.4202 125.15 39.5202C124.75 39.4202 125 39.8702 125.1 40.0202C127.132 42.7979 130.71 43.2037 133.983 43.5748ZM61.1503 74.82C61.0503 76.02 62.1503 76.77 63.1003 77.22C63.8503 71.42 60.0503 58.77 55.3003 54.92C54.5003 54.47 55.0003 55.27 55.2503 55.57C58.1503 59.47 59.5503 64.32 60.5003 69.07C60.8436 70.934 60.9945 72.846 61.1417 74.7118L61.1417 74.7119L61.1417 74.712L61.1503 74.82ZM40.5501 93.82C34.7001 93.92 29.3001 91.57 24.2501 88.82C16.8501 84.72 9.50008 77.07 9.95008 68.07C10.1001 63.97 11.0501 59.57 14.0501 56.52C19.0001 51.82 25.4001 48.52 31.9001 46.62C35.5001 45.82 40.7001 46.32 42.5001 49.92C39.1001 48.77 35.4001 48.87 32.0001 50.02C25.5501 52.52 16.7501 56.17 14.1001 63.02C11.2501 71.32 12.9501 78.27 19.1501 84.47C22.5501 87.47 26.9501 89.27 31.1501 90.82C38.8501 93.27 46.5001 91.12 52.7001 86.17C52.8372 86.0672 52.9742 85.9526 53.1133 85.8364C53.3801 85.6134 53.6543 85.3843 53.9501 85.22C54.8001 85.47 55.9001 86.27 56.3501 87.07C52.0001 90.82 46.4001 93.77 40.5501 93.82ZM42.2001 26.0701C42.1001 26.0701 41.9834 26.0867 41.8501 26.1201C41.9834 26.0867 42.1168 26.0701 42.2501 26.0701H42.2001Z" fill="black"/>
</svg>
