<svg width="213" height="187" viewBox="0 0 213 187" fill="none" xmlns="http://www.w3.org/2000/svg">
<path fill-rule="evenodd" clip-rule="evenodd" d="M116.81 0.775742C110.91 1.22574 110.66 9.52574 116.31 10.7757C116.76 10.8757 116.56 10.4757 116.36 10.3257C114.96 7.12574 118.01 3.27574 121.36 3.22574C121.73 3.17941 121.285 2.74681 121.138 2.60394C121.132 2.59766 121.126 2.59193 121.121 2.58683C121.117 2.58273 121.113 2.57902 121.11 2.57574C119.91 1.57574 118.46 0.575742 116.81 0.775742ZM85.3098 22.7257C86.1098 23.9257 87.6598 24.6257 89.0098 25.1257C89.1098 25.1257 89.1931 25.109 89.2598 25.0757C102.96 11.7757 126.71 12.5257 143.11 20.2257C144.159 20.683 145.179 21.2272 146.202 21.7726L146.202 21.7727L146.202 21.7727C147.08 22.2409 147.959 22.71 148.86 23.1257C148.96 23.1757 149.81 23.5257 149.66 23.0757C148.763 21.9346 147.402 21.2253 146.089 20.5418C145.792 20.3867 145.496 20.2329 145.21 20.0757C129.96 11.8257 111.06 9.3257 94.9098 16.3757C91.4598 18.0257 88.1598 20.1257 85.3098 22.7257ZM132.86 65.6758C132.36 65.5758 129.16 63.4758 130.16 63.0258C134.56 60.1758 138.71 56.9258 142.41 53.2258C145.01 50.6258 147.76 47.3758 147.66 43.4258C147.51 33.6758 128.36 36.7758 122.21 38.5758C117.256 40.4142 111.286 39.5926 105.97 38.8611C100.875 38.1601 96.382 37.5418 93.9598 39.4258C87.8098 44.5758 90.1598 53.8758 93.9098 59.7758C94.0694 60.024 94.2165 60.2849 94.3643 60.5471L94.3643 60.5472C94.6333 61.0244 94.9049 61.5063 95.2598 61.9258C95.6598 63.3758 91.6098 60.0758 91.6098 59.4758C89.4098 55.8758 87.2098 52.1758 86.7098 47.9258C85.8598 43.0258 88.1098 36.5258 93.5098 35.5258C96.5984 35.3379 99.6958 35.7424 102.791 36.1466C107.111 36.7108 111.428 37.2745 115.71 36.2258C127.51 32.8258 142.86 31.0258 150.56 42.8258C153.71 48.7758 148.21 54.4258 143.96 58.1258C140.56 61.0258 136.91 63.8758 132.86 65.6758ZM88.7597 28.9258C89.5597 30.9758 90.8097 33.0758 92.9597 33.8258C93.4132 33.9165 92.8064 33.0749 92.2447 32.2958C91.8775 31.7864 91.5294 31.3037 91.5097 31.1258C91.4504 30.9836 91.3856 30.8387 91.3198 30.6916L91.3198 30.6915C91.1079 30.2178 90.886 29.7218 90.8097 29.2258C90.8799 28.9802 90.6793 28.8085 90.4842 28.6415C90.4013 28.5705 90.3193 28.5004 90.2597 28.4258C88.9597 27.4258 87.7597 26.5758 88.7597 28.9258ZM148.31 35.5758C146.96 35.0258 145.46 34.0757 144.81 32.7757C144.938 32.3392 145.074 31.9049 145.211 31.471C145.717 29.8672 146.22 28.2679 146.26 26.5758C145.71 24.9258 150.86 28.7757 150.11 29.2257C150.014 31.3249 149.327 33.333 148.656 35.2935L148.56 35.5758C148.46 35.6091 148.376 35.6091 148.31 35.5758ZM111.056 71.7794C112.45 71.8527 113.735 71.9203 114.81 72.0257C118.06 72.2257 121.21 71.9757 124.41 71.4757C124.523 71.4596 124.633 71.4486 124.735 71.4385L124.735 71.4385C125.267 71.3858 125.581 71.3547 124.91 70.7257C124.36 70.2757 123.76 69.8257 123.06 69.5757C122.216 69.5757 121.372 69.7181 120.529 69.8604L120.529 69.8605C119.872 69.9712 119.216 70.0819 118.56 70.1257C115.36 70.5757 112.11 70.4257 108.91 70.2757C107.996 70.1995 107.067 70.1494 106.134 70.099C102.782 69.918 99.3718 69.7339 96.3598 68.3257C96.2598 68.2757 95.9598 68.1757 96.1098 68.4257C99.0698 71.1489 105.83 71.5045 111.056 71.7794ZM125.76 126.976C122.81 126.726 120.01 124.876 118.16 122.576C116.296 119.192 123.042 117.876 125.472 117.403L125.61 117.376C123.11 110.776 118.91 108.926 112.11 110.326C107.89 111.145 103.836 112.536 99.7809 113.928C97.1565 114.828 94.5312 115.729 91.8597 116.476C84.2597 118.576 75.1596 118.626 68.6596 113.626C61.9596 115.576 54.6097 113.726 49.1097 109.576C46.1097 107.376 42.4597 103.876 43.8097 99.8257C47.4311 92.0378 58.6642 88.4955 67.9677 85.5617C70.6103 84.7284 73.0971 83.9442 75.2096 83.1257C79.0596 81.7257 83.3097 80.1757 85.8097 76.7257C87.2597 74.6257 87.6597 71.9757 87.9097 69.5757C88.7596 69.7757 89.5097 70.3257 90.1097 70.9257C90.7597 78.9257 85.8097 82.9257 78.8097 85.4257C76.3442 86.4145 73.8058 87.292 71.2604 88.172C64.1524 90.6293 56.9897 93.1055 51.2096 98.0757C47.4596 101.176 46.4597 106.126 50.5597 109.476C55.1597 112.176 61.0596 112.426 66.1596 111.076C63.1596 107.476 65.2096 99.9257 70.7096 101.226C79.9096 103.926 78.1596 110.276 70.2596 113.126C70.2096 113.126 69.5597 113.326 69.5597 113.376C69.5597 113.376 69.7096 113.526 69.7596 113.526C76.6096 116.576 84.5596 115.476 91.4097 113.126C93.5306 112.456 95.5821 111.726 97.5731 111.017L97.5732 111.017L97.5733 111.017L97.5735 111.017L97.5736 111.017L97.5738 111.017L97.5739 111.017L97.574 111.017C109.101 106.916 118.601 103.537 127.81 116.626C127.973 117.082 128.369 117.007 128.792 116.927C129.018 116.885 129.251 116.841 129.46 116.876C134.108 116.426 138.757 115.926 143.406 115.426L143.41 115.426C143.924 115.372 144.441 115.322 144.959 115.272L144.962 115.272C148.323 114.948 151.741 114.618 154.86 113.276C155.16 113.242 155.16 113.176 154.86 113.076C147.91 109.776 147.71 104.126 155.86 102.876C159.56 102.126 166.96 105.876 165.46 110.326C165.26 110.526 165.46 110.526 165.61 110.476C168.01 109.826 170.36 109.126 172.56 107.926C174.96 106.826 177.01 104.076 175.46 101.426C173.48 98.1044 167.314 96.6964 161.855 95.4498C159.177 94.8385 156.67 94.266 154.91 93.5257C146.51 90.4757 136.71 84.6257 136.56 74.6257C136.56 74.5427 136.549 74.4402 136.538 74.3332C136.495 73.9245 136.445 73.4483 136.96 73.7257C138.61 74.5757 140.51 75.8757 140.36 77.9257C140.56 84.1257 144.16 87.7757 149.71 89.8257C152.845 91.2143 156.183 92.054 159.517 92.8925C164.105 94.0466 168.684 95.1982 172.71 97.7757C187.81 107.676 172.91 113.576 162.06 114.226C157.609 117.162 152.232 117.572 147.049 117.968C146.584 118.003 146.121 118.039 145.66 118.076C143.612 118.308 141.467 118.465 139.317 118.622L139.317 118.622C135.903 118.872 132.478 119.123 129.41 119.676C130.96 123.076 130.36 127.276 125.76 126.976ZM138.31 158.076C138.36 161.526 142.46 164.076 145.46 164.826C149.21 164.526 143.61 158.126 142.41 157.076C147.01 151.276 155.41 150.376 162.36 150.526C164.978 150.711 167.657 151.208 170.352 151.707C177.126 152.964 184 154.238 190.26 150.626C191.96 149.576 193.56 148.176 194.56 146.426C195.099 146.249 195.658 146.078 196.226 145.903C198.716 145.138 201.403 144.313 203.56 142.726C217.86 132.376 192.01 119.376 183.01 117.076C182.457 116.933 181.871 116.766 181.305 116.604C178.49 115.8 176.172 115.137 180.96 118.426C182.299 118.872 183.658 119.286 185.02 119.7L185.02 119.7C189.909 121.187 194.836 122.686 199.06 125.776C207.36 131.876 204.21 138.976 195.46 142.126C194.41 138.726 190.21 136.226 186.81 135.976C184.56 135.926 181.86 137.026 181.41 139.426C181.21 142.776 185.21 144.776 187.86 145.926C188.032 146.004 188.208 146.038 188.347 146.065C188.653 146.124 188.775 146.148 188.26 146.526C185.11 149.326 180.76 150.476 176.61 150.426C173.571 150.426 170.576 149.901 167.586 149.377C165.116 148.944 162.648 148.512 160.16 148.376C153.06 148.076 144.91 149.376 139.76 154.676C130.21 146.976 117.46 144.676 105.46 144.076C94.7152 143.291 84.2113 145.731 73.8537 148.138L73.8533 148.138L73.2597 148.276C69.7597 148.826 63.5597 149.376 60.7597 146.926C60.6884 146.826 60.6334 146.763 60.5981 146.722C60.5653 146.685 60.5496 146.666 60.5537 146.657C60.556 146.651 60.5642 146.649 60.579 146.647C60.589 146.645 60.6019 146.644 60.618 146.643C60.6513 146.64 60.6982 146.636 60.7597 146.626C63.2597 146.226 65.7098 145.626 67.9598 144.426C74.2598 141.026 70.9598 136.926 65.5598 135.326C60.3098 133.626 52.9597 139.526 57.0097 144.776C46.4097 145.876 39.6098 143.076 34.6098 133.426C34.0703 132.478 33.5688 131.503 33.0672 130.528C31.6629 127.797 30.257 125.063 28.0097 122.926C30.5097 120.826 32.7597 118.426 34.5097 115.626C34.8639 115.172 35.2108 114.674 35.5649 114.166L35.565 114.166C36.8106 112.377 38.1464 110.46 40.2098 109.876L40.2223 109.882L40.2474 109.895C40.4239 109.989 41.014 110.3 41.0598 110.026C40.3098 108.926 38.0598 107.526 36.6598 107.776C33.931 109.07 32.2943 111.567 30.6455 114.082C29.3638 116.038 28.0748 118.004 26.2597 119.426L24.9098 120.626C24.8098 120.726 24.6931 120.692 24.5598 120.526C24.2598 120.359 23.9431 120.226 23.6098 120.126C20.7598 118.976 14.4598 119.176 12.9098 122.176C12.6285 123.535 13.9292 124.455 14.9581 125.183L15.0519 125.249L15.1598 125.326C17.0598 126.676 19.4598 127.326 21.7098 126.576C23.6598 125.976 25.4598 124.926 27.0598 123.676C27.2816 123.296 27.5435 123.759 27.8075 124.225C27.96 124.495 28.1132 124.766 28.2597 124.876C29.202 126.379 30.0033 127.952 30.8036 129.524C31.7871 131.455 32.7693 133.384 34.0097 135.176C39.0097 143.126 48.4098 147.476 57.7098 146.926C57.8822 146.926 58.0517 146.908 58.2166 146.89C58.721 146.836 59.183 146.786 59.5598 147.276C63.9598 150.776 69.8598 151.776 75.3598 150.876C78.1598 150.451 80.8972 149.788 83.6347 149.126C86.3722 148.463 89.1097 147.801 91.9098 147.376C97.8598 146.376 103.96 146.226 109.96 146.576C119.11 147.326 130.01 148.826 137.61 154.276C139.169 155.523 139.075 155.701 138.771 156.276C138.588 156.624 138.329 157.116 138.31 158.076ZM184.46 186.076C173.96 182.476 177.41 177.376 186.16 174.776C183.982 168.778 177.394 172.365 171.856 175.381C169.639 176.588 167.59 177.704 166.06 178.076C165.465 178.285 164.864 178.498 164.255 178.714L164.236 178.721C150.317 183.652 132.958 189.802 120.46 179.076C111.41 180.604 102.43 179.107 93.4639 177.612C83.9534 176.026 74.4581 174.443 64.9098 176.476C65.8598 180.276 61.6098 184.076 57.9098 182.976C49.2598 179.526 54.2098 175.526 60.6098 174.176C60.0718 171.037 57.0811 169.587 54.4501 168.312C54.1471 168.165 53.8489 168.02 53.5598 167.876C48.1598 165.276 41.9098 166.126 36.4098 168.026C24.6598 173.126 14.7098 172.876 4.65979 164.226C-2.74021 158.276 0.259781 148.776 5.70978 142.626C6.05977 142.233 6.41487 141.816 6.77827 141.389L6.77835 141.388C8.95881 138.826 11.4384 135.912 14.9098 135.826C15.3598 135.826 17.3098 136.876 16.0098 136.926C9.00977 139.976 1.00979 152.626 3.90979 160.276C6.30979 166.876 13.9098 169.376 20.3598 168.876C23.6955 168.622 26.8091 167.479 29.9315 166.334L29.9316 166.334L29.9317 166.334L29.9319 166.334L29.932 166.334C31.7238 165.676 33.5185 165.018 35.3598 164.526C41.5098 162.576 48.1098 163.576 53.7098 166.726L53.737 166.741C57.2285 168.636 60.8165 170.584 63.4098 173.626C72.0574 172.051 80.599 173.408 89.1606 174.768C95.0044 175.696 100.857 176.626 106.76 176.626C110.41 176.726 114.11 176.476 117.71 175.776C117.692 175.592 117.666 175.387 117.637 175.167C117.502 174.129 117.324 172.757 117.86 171.726C119.91 165.676 126.11 167.976 129.41 171.626C133.11 175.726 125.86 178.026 122.71 178.676C122.036 178.676 122.211 178.896 122.462 179.212L122.462 179.212C122.527 179.294 122.598 179.383 122.66 179.476C123.106 179.996 123.773 180.24 124.414 180.475C124.636 180.556 124.854 180.636 125.06 180.726C131.46 182.826 138.31 181.926 144.71 180.476C152.56 178.576 160.41 176.176 167.61 172.526C176.56 167.176 180.51 166.476 188.51 174.076C189.675 173.76 190.858 173.46 192.038 173.162C202.606 170.492 212.827 167.909 205.81 153.876C204.86 152.426 206.21 153.026 206.96 153.526C211.31 156.026 213.66 163.576 211.86 168.226C209.489 173.143 203.323 174.314 197.588 175.404C195.099 175.877 192.692 176.335 190.71 177.076C192.96 181.276 189.06 186.476 184.46 186.076ZM144.301 72.4658C144.353 73.0938 144.463 73.7157 144.61 74.3258C144.76 74.8258 144.96 75.3758 145.21 75.8758C146.156 76.2362 147.173 76.2719 148.189 76.3074C149.426 76.3507 150.661 76.394 151.76 77.0258C153.801 78.1826 154.708 79.0848 155.345 79.7185C156.581 80.9471 156.801 81.1664 162.31 80.2758C165.276 79.4517 166.689 80.5743 168.089 81.6871C169.237 82.5998 170.377 83.506 172.36 83.3258C172.938 83.3058 173.524 83.1905 174.112 83.0749C174.998 82.9005 175.888 82.7254 176.76 82.8758C178.16 83.5758 179.56 84.5758 180.41 85.9258C180.485 86.1521 180.248 86.1792 180.062 86.2004C180.002 86.2072 179.947 86.2135 179.91 86.2258C179.736 86.2506 179.562 86.2761 179.388 86.3016C177.455 86.5847 175.494 86.872 173.66 86.2758C171.61 85.6258 169.91 84.3258 168.31 82.9758C167.013 82.8893 165.715 83.102 164.418 83.3147C162.715 83.5939 161.013 83.873 159.31 83.4758C157.509 82.9954 156.124 81.7461 154.797 80.5485C154.466 80.2501 154.139 79.955 153.81 79.6758C151.26 79.8258 148.66 79.7258 146.46 78.2758C145.305 77.6159 144.195 76.8076 143.234 75.8724C143.527 76.909 143.89 77.9276 144.26 78.9258C144.401 79.2703 144.532 79.6148 144.662 79.9578L144.663 79.9585L144.663 79.9587C144.949 80.7105 145.232 81.4549 145.61 82.1758C146.707 82.3221 147.564 82.3186 148.31 82.3155C150.112 82.3081 151.261 82.3035 153.56 84.4258C155.162 85.6205 156.734 85.7388 158.261 85.8537C159.546 85.9504 160.799 86.0447 162.01 86.7758C162.357 86.9594 162.67 87.2014 162.984 87.4438C163.44 87.7955 163.897 88.1482 164.46 88.3258C165.381 88.6229 166.337 88.5846 167.287 88.5465C167.935 88.5205 168.581 88.4946 169.21 88.5758C170.539 88.6866 171.786 89.1518 173.013 89.6091L173.013 89.6092C173.447 89.7711 173.878 89.932 174.31 90.0758C174.96 90.1758 178.51 92.9758 177.36 93.0758C174.343 91.6492 172.354 91.59 170.58 91.5371C168.562 91.4769 166.821 91.425 164.16 89.3758C163.556 88.7007 162.725 88.7073 161.899 88.7139C161.563 88.7165 161.228 88.7192 160.91 88.6758C158.01 88.4258 155.41 86.8758 153.16 85.0758C152.836 84.914 152.45 84.9407 152.082 84.9661C151.881 84.98 151.686 84.9934 151.51 84.9758C148.61 85.3258 145.81 84.1758 143.91 81.9758C141.645 79.3258 139.241 72.3581 140.099 68.6781L140.1 68.6625C140.086 68.6336 140.073 68.6047 140.06 68.5757C140.31 66.3257 140.86 64.0257 142.21 62.1757C143.81 59.8257 146.21 57.9757 148.96 57.2757C151.01 56.6257 152.86 58.2257 154.26 59.6257C156.15 61.4745 156.149 64.5049 154.841 66.7196C155.91 66.77 156.957 66.9784 157.96 67.4257C161.46 69.4757 164.36 72.5257 159.76 75.4257C156.81 77.0257 153.16 76.6257 150.21 75.3257C149.858 75.1606 149.506 74.9966 149.155 74.8327L149.15 74.8303C147.517 74.0688 145.891 73.3103 144.301 72.4658ZM144.11 67.6258C145.46 64.1758 148.41 61.2258 152.01 60.1258C152.176 60.0591 152.326 60.0258 152.46 60.0258C153.01 64.6758 147.91 66.8758 144.11 67.6258ZM68.0095 110.476C67.3095 107.826 68.2595 104.176 71.1595 103.276C72.0095 103.026 72.9595 103.126 73.8095 103.376C75.3095 106.876 70.7095 109.376 68.0095 110.476ZM160.31 105.826C158.36 105.876 156.31 106.426 154.81 107.676C153.91 108.426 153.01 109.726 153.46 110.826C153.829 110.886 154.226 110.975 154.637 111.068L154.637 111.068C156.287 111.441 158.169 111.866 159.41 110.626C160.71 109.526 161.96 107.976 161.91 106.176C162.013 105.798 161.384 105.821 160.867 105.84C160.631 105.849 160.419 105.857 160.31 105.826ZM125.091 120.504L125.091 120.504C123.379 121.083 121.005 121.887 120.959 123.876C123.509 124.776 126.709 123.126 126.209 120.176C126.184 120.176 126.047 120.213 125.91 120.251L125.909 120.251L125.909 120.251C125.772 120.288 125.634 120.326 125.609 120.326C125.446 120.383 125.272 120.442 125.091 120.504ZM141.61 159.026C141.51 159.426 141.509 159.826 141.509 160.176C141.559 160.826 141.76 161.476 142.11 162.026C142.98 161.611 142.476 160.543 142.107 159.763C142.031 159.602 141.961 159.454 141.91 159.326C141.88 159.282 141.846 159.194 141.812 159.106C141.73 158.893 141.645 158.673 141.61 159.026ZM59.6093 144.326C59.3093 140.826 62.6093 138.026 65.8093 137.426C66.5593 137.326 67.3093 137.276 68.0593 137.426C69.0093 141.726 62.7593 143.476 59.6093 144.326ZM189.609 139.226C187.609 139.476 185.309 141.076 185.659 143.276C187.259 143.676 189.009 143.626 190.659 143.376C191.509 142.426 191.659 140.476 191.309 139.126C190.743 139.092 190.176 139.126 189.609 139.226ZM24.1595 121.276C22.0095 123.026 19.3595 124.626 16.5095 124.776C15.6595 124.976 15.6095 124.226 15.8595 123.576C17.6095 121.176 21.4095 121.026 24.1595 121.276ZM185.759 178.926C184.409 179.626 182.259 181.076 182.159 182.376C183.759 181.726 185.159 180.526 185.859 178.926C185.93 178.82 185.901 178.839 185.842 178.877L185.842 178.877L185.841 178.877L185.841 178.877C185.817 178.893 185.788 178.911 185.759 178.926ZM57.8595 179.576C58.1929 179.242 58.5429 178.959 58.9095 178.726C59.0429 178.626 59.1595 178.542 59.2595 178.476C58.8595 178.926 58.3595 179.326 57.8095 179.626L57.8595 179.576ZM125.509 170.976C123.959 171.276 122.159 173.376 122.109 174.476C122.315 174.376 122.537 174.276 122.766 174.172L122.767 174.172C124.268 173.491 126.116 172.654 126.159 170.876C125.926 170.909 125.709 170.943 125.509 170.976ZM157.509 70.0757C154.009 70.1757 150.51 70.9257 147.11 71.7257C147.061 71.7418 147.018 71.7475 146.99 71.7512C146.97 71.7539 146.958 71.7555 146.957 71.7592C146.956 71.7649 146.983 71.7756 147.052 71.8029C147.069 71.8094 147.088 71.817 147.11 71.8257C150.31 73.2257 155.709 73.2757 157.509 70.0757Z" fill="black"/>
</svg>
