<svg width="150" height="217" viewBox="0 0 150 217" fill="none" xmlns="http://www.w3.org/2000/svg">
<path fill-rule="evenodd" clip-rule="evenodd" d="M100.093 9.17377C98.2472 9.2374 96.4018 9.1593 94.5563 9.0812C93.5018 9.03657 92.4472 8.99194 91.3926 8.97375C90.7278 8.95001 90.046 8.96855 89.36 8.98721C87.1571 9.04712 84.9109 9.1082 83.0426 7.77374C83.0336 7.76474 83.0035 7.74439 82.9614 7.71591C82.7697 7.58619 82.3286 7.28774 82.4926 7.12375C85.0209 7.0404 87.5647 7.03424 90.1153 7.02807C92.1548 7.02313 94.1987 7.01819 96.2426 6.97375C101.327 6.92992 106.066 5.27203 110.797 3.61726C111.462 3.38453 112.127 3.15187 112.793 2.92377C115.543 2.02377 118.393 1.32375 121.243 0.973755C122.993 0.773755 124.743 1.92374 125.993 3.02374C126.075 3.23008 125.885 3.26613 125.704 3.30054C125.666 3.30782 125.628 3.31503 125.593 3.32376C122.543 3.92376 119.443 4.57376 116.443 5.57376L115.78 5.79501C111.95 7.07413 108.111 8.3565 104.093 8.92377C102.759 9.09043 101.426 9.17377 100.093 9.17377ZM74.5925 15.0238C74.4425 19.4238 74.4425 23.8238 79.8425 24.6238H79.8925C81.3397 24.4308 81.9957 22.9348 82.534 21.7071L82.5925 21.5738C83.6667 18.978 83.2185 16.1818 82.7899 13.5081C82.7397 13.1948 82.6897 12.8832 82.6425 12.5738C82.521 12.0392 82.4645 11.5577 82.4133 11.1222L82.4133 11.1221C82.254 9.76553 82.1471 8.85506 80.2925 8.17379C80.213 8.14486 80.1334 8.1128 80.0566 8.08183C79.6022 7.89869 79.2431 7.75394 79.5425 8.52377C79.6779 9.14665 79.8445 9.81446 80.0182 10.5107C81.127 14.956 82.5248 20.5597 77.9425 23.0238C76.9188 20.5593 77.0451 17.7787 77.166 15.1178V15.1175V15.1173V15.117V15.1168V15.1166V15.1163V15.1161V15.1158V15.1156V15.1153C77.2045 14.268 77.2425 13.4328 77.2425 12.6238C76.7925 12.1738 75.4425 11.2238 74.8925 11.4738C74.6925 12.6237 74.6426 13.8235 74.5926 15.0234L74.5925 15.0238ZM46.2551 63.0425L46.2552 63.0426C48.0177 63.3707 49.7801 63.6988 51.5426 63.7738C51.9759 63.8071 52.3926 63.8238 52.7926 63.8238C54.4537 63.8238 56.0836 63.6987 57.7317 63.5721L57.7317 63.5721C58.1671 63.5387 58.6038 63.5051 59.0426 63.4738C61.2926 63.2738 63.5926 63.0738 65.8926 63.1238C68.1425 62.9738 70.3923 63.0738 72.6422 63.1738L72.6426 63.1738L72.658 63.1745C77.3028 63.3742 81.8974 63.5719 86.2426 61.8238C86.9926 61.6238 86.9926 61.4738 86.4426 60.9738C85.2926 59.8238 83.7926 59.5738 82.2426 59.6238C79.8426 59.5238 77.4426 59.3238 75.0926 59.1238C74.8426 59.1738 75.1926 59.5238 75.2426 59.5738C76.2926 60.7405 77.7661 60.8485 79.2395 60.9565C79.6605 60.9874 80.0815 61.0182 80.4926 61.0738C76.9426 61.7238 73.3926 61.5738 69.8426 61.4238L69.7826 61.4214C67.2534 61.3222 64.773 61.225 62.2926 61.3738C59.868 61.407 57.4654 61.6167 55.0556 61.8271C53.8377 61.9334 52.618 62.0399 51.3926 62.1238C48.4926 62.2238 45.5926 61.6738 42.7926 61.1238C43.5926 60.5238 44.4926 59.9738 45.4426 59.7238C46.5337 59.8661 45.4644 59.1083 45.053 58.8167L44.9926 58.7738C44.8969 58.7149 44.7979 58.6506 44.6961 58.5844L44.696 58.5843L44.6959 58.5842C44.1058 58.2007 43.4174 57.7533 42.6926 57.9238C41.8926 58.2238 38.7426 59.4238 40.0426 60.5738C41.2426 61.7738 42.8426 62.5238 44.4926 62.7238C45.0801 62.8238 45.6676 62.9332 46.2551 63.0425ZM45.8871 82.0962C43.2471 80.5623 41.0459 78.4311 39.6926 75.4237C38.7167 72.984 38.4696 70.3985 38.2232 67.8196L38.2232 67.8195C38.1161 66.6988 38.0092 65.5794 37.8426 64.4737C37.8229 64.2374 37.7877 63.9933 37.7522 63.7476L37.7522 63.7475C37.6977 63.3694 37.6426 62.9873 37.6426 62.6237C37.6812 62.4691 37.9291 62.6432 38.0858 62.7533C38.1318 62.7856 38.1699 62.8124 38.1926 62.8237C39.569 63.8281 39.6169 64.5004 39.6954 65.6025C39.7224 65.9817 39.753 66.4118 39.8426 66.9237L39.856 67.028C40.4898 71.96 40.892 75.0901 41.956 77.2202C41.833 76.7427 41.7878 76.244 41.8426 75.7237C42.2926 72.4737 43.8926 68.4737 47.2926 67.4737C49.5971 67.0589 51.4343 69.1083 52.8825 70.7238C53.0053 70.8608 53.1253 70.9947 53.2426 71.1237C54.0926 72.0737 54.7426 73.4237 55.0926 74.4237C57.8426 70.6737 61.3426 73.3237 63.2426 76.3737C64.0926 73.1737 67.2925 70.3737 70.6925 71.6737C74.7271 73.4086 77.1665 77.2921 78.5623 81.354C82.3136 78.7258 84.058 71.7058 84.1926 67.6237C84.2926 66.8737 85.6926 68.6237 85.8426 68.8737C86.6915 69.684 86.5279 70.7325 86.3631 71.7895C86.3143 72.1021 86.2654 72.4155 86.2426 72.7237C85.9926 74.6237 85.3426 76.4237 84.4426 78.1237C84.291 78.4108 84.142 78.7018 83.9925 78.9937C83.2048 80.5319 82.4033 82.097 81.1426 83.2737C77.9426 85.6737 71.9426 86.3237 66.7426 86.3237C64.8452 86.3237 63.0221 86.2493 61.498 86.1326C62.3068 86.6877 63.198 87.7477 63.4926 88.3737C63.4926 89.0297 63.4048 89.6857 63.3114 90.3828L63.2926 90.5237C63.2606 90.825 63.2281 91.1268 63.1956 91.429L63.195 91.4341C63.0143 93.1137 62.8323 94.8049 62.7125 96.5007C62.8454 98.5891 62.8609 100.734 62.6701 102.762C62.7211 103.433 62.7939 104.104 62.8926 104.774C63.1926 106.624 63.6926 108.524 64.6926 110.124C65.3779 110.529 66.1213 110.739 66.8626 110.95C67.3112 111.077 67.759 111.204 68.1926 111.374C68.9885 111.667 70.5915 113.013 70.9437 114.03C74.1322 114.038 77.2773 114.48 80.2926 115.874C82.3426 116.724 87.9926 120.574 86.9926 123.174C86.8359 123.361 86.6169 123.524 86.3469 123.667C87.1283 123.95 87.8346 124.462 88.4739 125.122C88.245 123.534 87.747 121.989 87.0425 120.524C86.7925 120.124 87.1425 120.074 87.4425 120.274C91.1189 122.578 92.5847 127.38 92.1226 131.573L92.1427 131.624C92.1427 131.69 92.126 131.757 92.0927 131.824L92.0707 132.023L92.0427 132.277V132.324L92.0209 132.476C91.9949 132.715 91.9688 132.957 91.9427 133.202V133.224L91.9335 133.288L91.8927 133.674L91.8812 133.66C91.5552 136.268 91.0477 138.941 89.5925 141.124C87.1925 144.724 80.8425 146.074 74.9425 146.074L74.8573 146.074C75.2473 146.488 75.6003 146.937 75.8925 147.424C76.1344 148.553 76.2951 149.706 76.4564 150.864C76.6951 152.579 76.9352 154.303 77.4425 155.974C79.5067 162.703 82.4046 165.781 83.7009 167.157C84.1656 167.651 84.4245 167.926 84.3653 168.072C84.2909 168.256 83.7134 168.236 82.4095 168.191L82.177 168.183L81.8925 168.174C81.8246 168.174 81.7552 168.174 81.6842 168.173C84.4486 168.29 88.2454 168.709 89.2424 170.624C84.2424 169.274 78.8924 169.674 73.9424 170.974C73.6338 171.097 73.2032 171.217 72.7268 171.351L72.7263 171.351L72.7258 171.351L72.7253 171.351L72.725 171.351L72.7247 171.351L72.7245 171.351L72.7242 171.351L72.7239 171.351C71.271 171.758 69.393 172.282 69.2425 173.374C77.8425 174.724 86.6924 173.924 95.2924 172.674C95.6781 172.555 96.2553 172.444 96.9167 172.317C99.5997 171.802 103.667 171.021 101.942 168.374C98.4924 166.974 94.6925 166.824 90.9924 166.924C90.2925 166.874 89.5924 166.974 88.9424 167.074C88.8232 167.085 88.704 167.097 88.5848 167.109L88.5845 167.109C87.655 167.203 86.7344 167.295 85.8924 167.074C85.3424 166.874 82.0424 164.874 82.6924 164.374C84.5279 164.13 86.3844 163.964 88.2383 163.927C88.1893 163.876 88.1407 163.825 88.0926 163.774C87.8426 163.474 87.5425 163.024 88.1425 162.924C93.1925 161.124 94.0426 160.474 94.5926 154.974C94.6926 151.424 94.6925 147.824 93.9425 144.324C93.7925 143.924 93.9425 143.824 94.2925 144.074C95.0425 144.524 95.8925 145.074 96.2425 145.874C96.4092 146.074 96.5981 146.257 96.787 146.441C97.1648 146.807 97.5426 147.174 97.7425 147.674C98.0061 149.174 98.1299 150.707 98.2539 152.243V152.243C98.4358 154.495 98.6183 156.754 99.2425 158.924C99.2863 159.048 99.3375 159.206 99.3959 159.386L99.3968 159.389L99.3968 159.389C99.7386 160.444 100.325 162.253 101.093 162.424C102.393 162.774 103.643 163.724 104.393 164.874C104.439 165.061 104.268 165.117 104.123 165.164L104.093 165.174C102.718 165.543 101.275 165.867 99.8253 166.055C102.627 167.348 105.851 169.43 106.192 171.974C106.242 172.963 104.899 173.713 102.988 174.283C104.091 174.893 105.124 175.92 106.011 176.802C106.213 177.002 106.407 177.195 106.593 177.374C109.343 179.724 108.543 183.674 106.643 186.324C103.193 191.674 96.3426 193.924 90.2426 194.224C84.5426 194.074 79.1926 191.424 74.8926 187.824C71.7426 185.274 70.2926 181.274 69.5426 177.424C69.5266 177.312 69.5004 177.195 69.4738 177.076C69.4171 176.823 69.3586 176.562 69.3926 176.324C69.96 176.324 70.4893 176.705 70.9473 177.034L70.9479 177.035C70.9863 177.062 71.0242 177.09 71.0616 177.116C71.0889 177.136 71.1159 177.155 71.1426 177.174L71.2015 177.219L71.2338 177.244L71.2343 177.245C71.6516 177.566 72.0392 177.865 71.9926 178.424C72.3926 181.224 73.3926 183.974 74.9426 186.374C78.7926 191.774 86.6926 192.724 92.5926 190.574C96.3926 189.374 100.093 187.424 102.343 184.024L102.35 184.013C102.063 183.757 101.793 183.488 101.542 183.224C101.236 182.583 101.163 181.835 101.088 181.081C101.029 180.481 100.97 179.878 100.792 179.324C97.6425 180.624 96.8425 184.474 96.2925 187.474C96.255 187.661 96.2237 187.841 96.1945 188.009C95.9894 189.189 95.88 189.817 94.3925 188.724C92.5992 187.847 92.1081 186.049 91.6283 184.292C91.5061 183.845 91.3846 183.4 91.2425 182.974C89.8683 184.623 89.2914 186.817 88.743 188.904L88.7414 188.91L88.6554 189.237L88.6278 189.341L88.5925 189.474C88.5925 189.624 88.5425 189.624 88.4425 189.624H88.3925C87.3425 189.224 86.1425 188.474 85.6425 187.474C85.5425 185.724 85.1925 183.924 84.1925 182.424C81.4425 181.624 77.0925 183.424 77.3925 186.674C77.4425 186.774 77.4425 186.874 77.3425 186.974C77.2425 187.174 76.9425 186.974 76.7925 186.874C70.8925 183.424 78.2925 174.924 86.2425 182.924L86.6925 183.374C86.7425 183.374 86.7925 183.174 86.7925 183.124C87.2925 181.624 88.4925 179.174 90.3925 180.474C91.5425 181.074 92.6425 181.924 93.3925 182.974C94.1925 178.924 96.7925 174.124 101.243 177.824C102.324 178.557 103.357 179.484 103.985 180.624C104.341 179.371 104.399 178.065 103.893 176.824C103.747 176.339 103.179 175.784 102.637 175.255C102.392 175.015 102.152 174.78 101.959 174.56C98.6677 175.367 94.3068 175.748 92.1277 175.939L92.1241 175.939L92.12 175.94C91.7371 175.973 91.422 176.001 91.1924 176.024C87.9924 176.224 84.8424 176.374 81.6924 176.374H79.5424C79.1738 176.354 78.794 176.336 78.4058 176.318L78.4032 176.318L78.401 176.317C73.9563 176.109 68.4247 175.851 66.2076 171.603C62.4993 173.328 52.9034 173.524 50.7211 173.569L50.4927 173.574C45.4244 173.53 40.3561 172.942 35.322 172.358C34.6449 172.279 33.9684 172.201 33.2926 172.124C31.9926 171.974 30.6927 171.824 29.4427 171.324C29.3868 171.296 29.3185 171.262 29.24 171.224C29.1006 171.155 28.9292 171.071 28.7384 170.975C27.7808 171.191 26.8209 171.416 25.8584 171.641C20.5902 172.873 15.245 174.124 9.79269 174.124C9.02603 174.124 8.25937 174.09 7.49271 174.024C5.34271 174.124 -0.957295 171.224 0.742705 168.474C1.57031 167.567 2.70853 166.972 3.81462 166.393C4.11185 166.237 4.40676 166.083 4.6927 165.924C6.9427 164.874 9.2427 163.974 11.6427 163.424C13.5427 162.824 15.4427 163.424 16.9927 164.624C17.9427 165.174 19.4927 166.774 17.1927 165.674C15.8655 165.401 14.5077 165.889 13.2147 166.355C12.8516 166.485 12.4935 166.614 12.1427 166.724C10.6927 167.074 -0.307304 172.074 5.8427 172.024C8.0927 172.174 10.3427 172.024 12.5927 171.774C15.0617 171.506 17.4776 170.973 19.9036 170.438L19.904 170.437L19.9043 170.437C21.5558 170.073 23.2119 169.707 24.8927 169.424C25.0803 169.409 25.2679 169.37 25.4543 169.331C25.6988 169.279 25.9413 169.228 26.1791 169.235C25.8306 168.784 25.8406 168.348 26.5926 168.024C28.5924 167.08 30.6831 166.358 32.8148 165.795C32.2316 165.7 31.6471 165.589 31.0632 165.478L31.0623 165.478C29.8311 165.245 28.6022 165.012 27.3927 164.924C26.7927 164.774 26.1427 164.774 25.5427 164.824H25.5424C24.6425 164.824 23.7426 164.824 22.9427 164.374C22.1927 163.874 20.2427 162.574 20.2427 161.624C20.804 161.575 21.3797 161.538 21.9625 161.501C25.5848 161.268 29.4807 161.018 31.8927 157.874C33.4427 155.924 34.6427 153.274 34.5927 150.824C33.5927 148.074 33.5927 145.174 33.6427 142.274C33.6723 142.17 33.6624 142.005 33.6521 141.831C33.6274 141.42 33.6001 140.963 34.0927 141.174C34.0467 141.063 34.0023 140.951 33.9578 140.839C33.8256 140.504 33.6918 140.166 33.5074 139.856C28.2312 138.731 23.8306 135.093 20.9306 130.608C20.0055 129.666 19.265 128.689 19.4425 128.374C19.4682 128.287 19.4956 128.198 19.5247 128.106C18.1598 125.219 17.5049 122.081 16.8557 118.97C16.7199 118.319 16.5843 117.67 16.4425 117.024C16.0608 115.921 16.7585 116.509 17.2536 116.927C17.3422 117.001 17.4243 117.071 17.4925 117.124C17.9925 117.524 18.2425 118.124 18.3425 118.774C18.5814 119.649 18.7948 120.535 19.0088 121.423L19.0088 121.423L19.0088 121.423L19.0089 121.424L19.0089 121.424L19.0089 121.424L19.009 121.424L19.009 121.424L19.009 121.424L19.0091 121.424L19.0091 121.424L19.0091 121.425L19.0092 121.425C19.3854 122.986 19.7631 124.553 20.2828 126.084C21.7309 122.7 24.4474 118.394 27.6425 118.874C30.0925 119.624 32.4925 122.074 33.2425 124.524C33.2425 124.59 33.2591 124.59 33.2925 124.524C33.6425 124.024 34.0925 123.524 34.6925 123.374C36.6925 123.024 38.9425 125.924 39.8425 127.474C39.9091 127.674 39.9425 127.657 39.9425 127.424C41.7425 120.674 46.0925 118.874 49.8425 125.574C50.2869 126.685 50.4631 127.857 50.5396 129.041C51.7935 126.934 52.6735 124.592 53.1512 122.222C52.1652 121.504 51.379 120.568 50.9426 119.324C50.9837 117.474 54.6743 116.942 56.9307 116.617C57.419 116.547 57.8402 116.486 58.1426 116.424C58.0836 116.341 58.0051 116.253 57.9222 116.16C57.8051 116.028 57.6793 115.887 57.5874 115.738C56.611 115.605 55.7674 115.47 55.0017 115.085C53.8407 116.912 51.5222 117.513 49.3927 117.774C46.0427 118.224 42.6927 118.474 39.3427 118.474C35.7927 118.474 32.2927 118.174 28.8427 117.574C25.9927 117.124 23.1927 116.624 20.4427 116.024C18.4427 115.674 16.3927 114.874 15.4927 112.974C19.4968 112.295 23.6622 112.008 27.8169 111.722H27.817L27.8172 111.721L27.8174 111.721L27.8176 111.721L27.8177 111.721L27.8181 111.721L27.8184 111.721L27.8187 111.721L27.8191 111.721L27.8194 111.721L27.8197 111.721L27.82 111.721L27.8204 111.721L27.8207 111.721L27.821 111.721L27.8213 111.721L27.8216 111.721L27.8219 111.721L27.8222 111.721L27.8225 111.721L27.8228 111.721C29.7879 111.586 31.7506 111.45 33.6927 111.274C34.291 111.225 34.8904 111.173 35.4905 111.122L35.4926 111.122L35.4928 111.122C39.2048 110.802 42.9487 110.479 46.6927 110.824C47.2871 110.846 47.8816 110.945 48.4803 111.046H48.4804H48.4804H48.4805H48.4806H48.4806H48.4807C49.2415 111.173 50.0093 111.302 50.7927 111.274C51.3427 111.424 51.7927 111.924 52.1927 112.374C52.2593 112.507 52.3093 112.507 52.3427 112.374C52.41 112.29 52.4717 112.12 52.5372 111.941C52.6663 111.586 52.8105 111.191 53.0427 111.324C53.7357 111.652 54.3755 112.167 54.9038 112.77C55.2956 112.865 55.6891 112.957 56.0852 113.042C55.1027 112.487 54.085 111.553 53.6926 110.474C53.9547 110.317 54.258 110.2 54.5665 110.082L54.5666 110.082L54.5666 110.082L54.5667 110.082L54.5668 110.082L54.5668 110.082L54.5669 110.082L54.5669 110.082L54.567 110.082L54.567 110.082L54.5671 110.082L54.5672 110.082L54.5672 110.082L54.5673 110.082L54.5673 110.082L54.5674 110.082L54.5674 110.082L54.5675 110.082L54.5676 110.082L54.5676 110.082L54.5677 110.082L54.5677 110.082L54.5678 110.082L54.5678 110.082L54.5679 110.082C54.8475 109.975 55.1314 109.866 55.3926 109.724C57.9773 108.26 59.3701 105.576 60.0569 102.445C59.484 98.7799 59.8823 94.812 60.2654 90.9965L60.3132 90.5195C60.1821 89.2136 60.0296 87.9953 59.8926 86.9238C59.8465 86.6006 59.7923 86.2775 59.7302 85.9543C55.5605 85.4641 51.0252 84.6553 47.2001 82.7944C46.9688 82.8726 46.4365 82.5316 46.2926 82.4237C46.1598 82.3168 46.0243 82.2077 45.8871 82.0962ZM78.2689 124.751C79.8991 124.699 81.7732 124.64 83.3877 124.432C82.5369 125.381 82.042 126.729 81.6159 127.889L81.6145 127.893L81.6141 127.894C81.5731 128.006 81.5327 128.116 81.4927 128.224C81.4618 128.347 81.4309 128.299 81.3882 128.232C81.3618 128.191 81.3309 128.143 81.2927 128.124C78.1927 123.524 73.8427 124.874 71.0927 128.974C71.0275 129.017 70.8865 129.278 70.748 129.535C70.5682 129.868 70.3927 130.193 70.3927 130.024C70.326 129.79 70.226 129.557 70.0927 129.324C69.0023 127.301 67.5036 125.903 65.9535 125.257C66.3665 125.268 66.7796 125.274 67.1926 125.274C69.3128 125.274 71.4329 125.146 73.5531 125.018C74.0829 124.986 74.6128 124.954 75.1426 124.924C75.8783 124.826 76.9995 124.791 78.2685 124.751H78.2685H78.2686H78.2687H78.2688H78.2689ZM60.5926 124.674C61.3273 124.824 62.062 124.941 62.7967 125.03C61.1199 125.545 59.702 127.179 59.0927 130.124C58.6591 132.292 58.5969 134.507 58.6824 136.678C57.6483 133.06 57.7867 129.058 58.2425 125.374C58.2958 125.125 57.8889 124.587 57.3174 124.018C58.4295 124.303 59.5566 124.501 60.5926 124.674ZM78.6742 168.152C76.0146 168.311 70.3518 169.033 67.6644 170.195C67.7281 169.796 67.5623 169.35 67.1115 168.85C67.3797 168.866 67.64 168.874 67.8925 168.874C69.5192 168.874 71.129 168.688 72.7318 168.503H72.7319H72.732H72.7321H72.7322H72.7323H72.7324H72.7326H72.7327H72.7328H72.7329H72.733H72.7331H72.7332H72.7334H72.7335H72.7336H72.7337H72.7338H72.7339H72.734H72.7342H72.7343H72.7344H72.7345H72.7346H72.7347H72.7348H72.735H72.7351H72.7353H72.7355H72.7357H72.7359H72.736C73.8906 168.369 75.0416 168.237 76.1925 168.174C77.1075 168.156 77.9324 168.151 78.6742 168.152ZM62.8425 165.374C62.627 165.462 62.6111 165.663 62.7315 165.927C60.5616 164.949 58.185 164.375 55.8427 164.024C51.6939 163.374 47.4453 163.324 43.2465 163.523C43.1791 163.387 43.1265 163.238 43.0925 163.074C42.7279 162.142 42.6587 161.144 42.5924 160.187C42.5769 159.964 42.5615 159.742 42.5425 159.524C42.4583 159.145 42.126 158.872 41.8142 158.617L41.8138 158.616C41.7554 158.568 41.6977 158.521 41.6425 158.474C41.5271 158.397 41.4117 158.316 41.2956 158.235C40.8104 157.896 40.3128 157.548 39.7508 157.426C39.6385 157.241 39.5344 157.057 39.4427 156.874L39.408 156.819C38.4686 155.336 37.4963 153.801 37.7927 151.974C37.7427 149.374 37.4427 146.824 36.8427 144.324C36.9427 143.874 36.7927 143.574 36.5427 143.274C36.182 142.126 35.6279 140.979 34.7957 140.127C35.6455 140.271 36.5072 140.324 37.3425 140.324C39.6425 140.324 41.9925 139.874 44.1925 139.224C47.4925 138.324 50.7925 136.824 52.7425 133.824C53.2487 133.045 53.7549 132.229 54.2243 131.383C54.4578 133.201 54.8608 134.998 55.6925 136.624C57.8425 140.374 61.5425 143.174 65.4925 144.774C67.246 145.384 69.6969 145.819 72.38 145.992C73.1245 149.346 73.5746 152.849 72.7425 156.224C71.6425 161.024 67.3925 164.124 62.8425 165.374ZM41.5303 163.156C41.6546 163.301 41.7855 163.441 41.9233 163.576C41.6995 163.584 41.4744 163.593 41.2475 163.606C41.3498 163.461 41.4444 163.31 41.5303 163.156ZM40.6251 164.338C40.6641 164.3 40.7025 164.261 40.7403 164.221L40.7427 164.224C40.8427 164.29 40.8427 164.324 40.7427 164.324L40.6251 164.338ZM46.8506 81.0462C48.5392 81.6254 50.7164 82.103 53.5586 82.6371C53.072 82.0501 52.688 81.3902 52.4926 80.6737C52.3387 79.6352 52.2219 78.5968 52.105 77.5583C51.918 75.8968 51.731 74.2352 51.3926 72.5737C48.6708 74.3234 46.9885 77.8211 46.8506 81.0462ZM56.5552 83.0982C58.8378 83.3894 61.1447 83.5728 63.4544 83.6214L63.4106 83.5806L63.3725 83.5453L63.3468 83.5218L63.3234 83.5007L63.3086 83.4876L63.2926 83.4737C61.9452 82.4177 61.9504 81.176 61.9561 79.8067C61.9583 79.2958 61.9605 78.7671 61.8926 78.2237C61.7926 77.2737 61.5926 76.2737 61.2426 75.3737C60.6426 75.3237 60.0426 75.5237 59.5426 75.8737C57.6197 77.2048 57.1554 79.7028 56.7593 81.8335L56.7426 81.9237C56.6855 82.0807 56.6488 82.3722 56.6068 82.705C56.5908 82.8318 56.5741 82.9645 56.5552 83.0982ZM64.9511 83.6337C68.8737 83.6151 72.7909 83.1909 76.5968 82.2289C76.5679 82.0651 76.5495 81.8968 76.5426 81.7237C76.0926 79.4737 75.5426 77.1737 74.2426 75.2737C72.7426 73.5737 69.7926 73.6737 68.1426 75.0737C65.9858 76.9344 65.5459 79.7966 65.1288 82.5107C65.0706 82.889 65.0129 83.2643 64.9511 83.6337ZM56.1869 113.063C59.014 112.392 60.725 110.304 61.6982 107.531C62.3173 108.684 63.1176 109.772 64.1426 110.774C64.9426 111.624 65.8926 112.374 66.8926 112.974C67.0593 113.007 67.0593 113.04 66.8926 113.074C63.8426 113.974 60.4426 113.724 57.2926 113.274C56.9212 113.212 56.5529 113.141 56.1869 113.063ZM9.89253 158.124C8.99253 157.774 7.99253 157.124 7.49253 156.224C7.44254 153.024 8.59253 149.924 10.3425 147.274C11.8872 145.237 11.312 143.62 10.6766 141.834C10.407 141.076 10.1266 140.287 9.99254 139.424C10.1925 138.124 11.1925 136.774 12.2925 136.024C12.8295 136.148 13.2641 136.51 13.681 136.858C13.7687 136.932 13.8556 137.004 13.9425 137.074C14.2425 137.374 14.0425 137.574 13.7925 137.824C11.7217 140.281 12.0901 141.308 12.6838 142.965C12.9359 143.669 13.2286 144.486 13.3925 145.574C13.501 146.948 12.8506 148.14 12.2176 149.299C11.9756 149.743 11.7361 150.181 11.5425 150.624C10.3925 152.974 10.0425 155.574 10.0425 158.124C10.0092 158.157 9.97586 158.174 9.94253 158.174C9.9092 158.174 9.89253 158.157 9.89253 158.124ZM88.608 126.63C88.4753 126.392 88.3372 126.157 88.1927 125.924C85.6427 124.324 83.8927 130.624 83.4427 132.374C83.1927 133.174 83.1427 133.974 83.2927 134.774C83.4427 136.524 83.2927 138.274 82.8427 139.974C82.6927 140.574 81.9927 139.974 81.7427 139.724C79.7427 138.324 79.7927 136.624 80.0927 134.424C80.1926 133.375 80.3924 132.325 80.5923 131.276L80.5923 131.276L80.5923 131.276L80.5923 131.276L80.5924 131.276L80.5924 131.276L80.5924 131.275L80.5924 131.275L80.5925 131.275L80.5925 131.275L80.5925 131.275L80.5925 131.275L80.5925 131.275L80.5926 131.275L80.5926 131.274L80.5926 131.274L80.5926 131.274L80.5927 131.274L80.5927 131.274L80.5927 131.274C80.7927 130.774 80.7927 130.274 80.6427 129.774C80.5926 129.623 80.5425 129.417 80.487 129.187C80.3206 128.501 80.105 127.611 79.6927 127.424C74.8927 127.024 72.3927 132.324 71.3427 136.224C71.1427 136.899 70.9677 137.586 70.7927 138.274C70.6177 138.961 70.4427 139.649 70.2427 140.324C70.2094 140.424 70.1427 140.474 70.0427 140.474C69.8927 140.474 69.6427 140.274 69.5427 140.174C69.4356 140.08 69.3205 139.985 69.2024 139.887C68.4377 139.252 67.5462 138.513 67.8927 137.474C68.2927 134.724 68.5927 131.824 68.1427 129.024C68.0952 128.913 68.0627 128.752 68.0279 128.579L68.0278 128.579C67.9526 128.206 67.866 127.776 67.5927 127.674C66.4427 127.374 65.1927 127.824 64.2427 128.524C61.4126 130.843 61.2086 134.928 61.0341 138.421L61.034 138.422C61.0205 138.693 61.0071 138.961 60.9927 139.224C60.9927 139.235 60.993 139.247 60.9936 139.259C60.9941 139.27 60.9947 139.282 60.9956 139.294L60.9978 139.325L61.0001 139.354C61.0162 139.557 61.0359 139.805 60.7927 139.724C60.2775 139.415 59.7358 139.013 59.3316 138.525C59.5409 139.019 59.777 139.502 60.0425 139.974C60.3846 140.658 61.16 140.909 61.8857 141.143C62.1147 141.217 62.3386 141.29 62.5425 141.374C68.3425 142.974 75.1925 142.874 80.9425 141.274C86.9925 139.524 87.9425 134.374 88.4925 128.874C88.5963 128.121 88.6328 127.372 88.608 126.63ZM48.8135 131.499C48.3398 132.072 47.8326 132.616 47.2925 133.124C44.2425 135.574 40.2925 136.574 36.4925 137.224C32.4925 137.624 27.9425 136.924 24.8425 134.174C24.368 133.687 23.932 133.171 23.5302 132.631C23.8275 132.722 23.9685 132.604 23.8425 132.174C25.1425 128.874 26.9425 124.974 29.9925 123.024C30.3055 124.902 30.2314 126.78 30.1573 128.658C30.1249 129.48 30.0925 130.302 30.0925 131.124C30.5425 132.474 31.8425 133.524 33.0425 134.174C33.5441 134.209 33.7119 133.603 33.8588 133.073C33.9168 132.863 33.9716 132.665 34.0425 132.524C34.1755 132.142 34.3007 131.74 34.4283 131.331C35.0202 129.431 35.6649 127.361 37.3925 126.374C37.8435 127.598 38.1492 128.843 38.4567 130.095L38.4568 130.095L38.4568 130.095L38.4568 130.096L38.4569 130.096L38.4569 130.096L38.4569 130.096L38.457 130.096L38.457 130.096L38.457 130.096L38.4571 130.097L38.4571 130.097L38.4572 130.097L38.4572 130.097L38.4572 130.097L38.4573 130.097L38.4573 130.097L38.4573 130.097L38.4574 130.098L38.4574 130.098L38.4574 130.098C38.627 130.788 38.7971 131.481 38.9925 132.174C39.4925 133.224 40.4425 134.024 41.3925 134.674C41.5591 134.807 41.6925 134.874 41.7925 134.874C42.1713 134.874 42.218 134.257 42.2595 133.709C42.2782 133.462 42.2958 133.229 42.3425 133.074L42.3487 133.042C42.9474 129.998 43.6519 126.417 46.3425 124.524C46.4925 124.424 47.4925 123.874 47.4425 124.224C47.7758 125.682 47.7619 127.14 47.748 128.599C47.7452 128.89 47.7425 129.182 47.7425 129.474C47.5218 129.866 48.1068 130.751 48.8135 131.499ZM34.1996 185.551C31.891 183.101 30.1892 180.065 29.3926 176.774C29.3673 176.634 29.2393 176.27 29.0769 175.809C28.5982 174.448 27.8206 172.237 28.4926 172.424C29.4427 172.824 31.9426 174.624 31.9426 175.674C31.7426 175.674 31.8426 176.024 31.8926 176.124C32.3426 178.274 33.0426 180.374 33.8426 182.424C33.918 182.662 34.0003 182.89 34.0893 183.109C34.1331 182.762 34.1892 182.418 34.2433 182.085C34.301 181.73 34.3565 181.389 34.3925 181.074C35.6925 173.724 40.6925 176.724 44.1925 180.624C45.8425 177.324 49.0425 179.824 50.7425 181.674C51.7925 177.024 56.8925 172.174 60.9425 177.124C62.1671 178.44 62.5482 180.132 62.6481 181.876C63.2152 179.982 63.1664 177.926 63.1188 175.919V175.919V175.919V175.919V175.918V175.918V175.918V175.918V175.918V175.918V175.918V175.917V175.917V175.917V175.917V175.917V175.917V175.917V175.916V175.916V175.916V175.916V175.916V175.916V175.916V175.916V175.915V175.915V175.915V175.915V175.915V175.915V175.915V175.914V175.914V175.914V175.914V175.914V175.914V175.914V175.913V175.913C63.1057 175.362 63.0927 174.814 63.0927 174.274C63.0927 174.207 63.0829 174.129 63.073 174.05C63.0384 173.772 63.0033 173.49 63.3926 173.724C64.3926 174.224 65.2926 175.024 65.8926 175.974C66.1926 177.574 66.1926 179.323 66.1926 180.973V180.974C66.8926 189.724 57.8926 191.624 50.4926 191.624C49.0927 191.624 47.7426 191.574 46.4926 191.474C43.7372 191.322 41.1075 190.489 38.76 189.151C37.537 188.959 36.0404 187.612 35.127 186.79L35.0698 186.738L34.9425 186.624C34.5772 186.329 34.3424 185.962 34.1996 185.551ZM38.8903 187.489C40.6365 188.09 42.6253 188.297 44.606 188.411C43.9967 187.941 43.4688 187.376 43.1425 186.724C42.7925 184.524 42.3925 182.274 41.3925 180.224C39.3365 181.272 38.8082 184.856 38.8903 187.489ZM46.8329 188.469C51.8427 188.516 57.4662 187.982 61.0335 184.485C60.8128 184.279 60.6437 184.101 60.5925 184.024C60.2839 183.684 60.3372 182.811 60.388 181.981C60.4195 181.466 60.4499 180.968 60.3925 180.624C60.3883 180.564 60.3837 180.486 60.3782 180.394C60.3191 179.391 60.1578 176.653 59.2425 176.974C54.3925 178.024 53.2425 183.774 52.9925 188.024C52.3042 187.983 51.6815 187.418 51.1244 186.913L51.1241 186.912C50.9933 186.794 50.8661 186.678 50.7425 186.574C50.1925 186.174 49.8925 185.574 49.8425 184.874C49.6425 183.774 49.3925 182.674 48.9425 181.624C46.6905 182.793 46.7642 185.726 46.8243 188.114L46.8295 188.322L46.8329 188.469ZM20.2925 190.224C15.2425 189.924 9.39254 187.774 5.89254 184.024C3.99254 181.574 2.74254 178.524 2.89254 175.374C2.74254 174.524 5.19254 176.224 5.34254 176.524C5.29175 177.692 5.4072 178.9 5.685 180.077C5.79208 179.887 5.89623 179.694 6.00063 179.501L6.00089 179.5C6.46627 178.638 6.93653 177.766 7.69264 177.124C9.24264 176.024 12.8426 178.824 13.9426 180.024C14.4426 178.574 15.5926 177.874 17.0426 178.724C18.0926 179.274 19.1926 179.974 19.9426 180.974C21.2926 175.824 23.9426 172.924 28.2426 177.724C28.5731 178.338 28.7699 178.991 28.889 179.665C29.3027 179.915 29.7079 180.221 30.0018 180.444C30.0941 180.514 30.1754 180.575 30.2425 180.624C30.2723 180.648 30.3041 180.672 30.3369 180.697C30.5806 180.885 30.8807 181.115 30.7925 181.424L30.7925 181.424C30.4425 182.774 30.0925 184.124 29.5925 185.374C28.1925 188.924 24.1925 190.224 20.6925 190.224H20.2925ZM9.14254 186.074C14.2542 189.092 23.2528 189.93 26.2155 183.742C26.1901 183.703 26.1658 183.664 26.1426 183.624C26.1272 183.023 26.1308 182.423 26.1344 181.824C26.1423 180.478 26.1503 179.139 25.9426 177.824C24.8533 178.38 24.2044 180.15 23.6126 181.765C22.9277 183.634 22.3192 185.294 21.1926 184.624C19.8426 184.024 18.4926 183.124 18.0926 181.624C17.9107 180.85 17.6046 181.857 17.2496 183.023L17.1937 183.207L17.1426 183.374C16.7926 184.424 16.4426 185.474 16.0426 185.374C14.3426 184.924 12.5426 183.774 11.7426 182.124C11.6151 182.395 11.4672 182.666 11.3185 182.938C11.0007 183.521 10.6789 184.111 10.5426 184.724C10.8784 185.7 8.69869 184.609 6.99507 183.428C7.56687 184.426 8.28383 185.329 9.14254 186.074ZM109.293 186.674C110.593 187.624 112.343 188.524 113.593 188.374C115.343 188.674 116.943 188.824 118.293 188.824C123.643 188.824 125.893 186.224 125.243 178.724C125.193 177.074 124.993 176.074 123.243 175.574C123.193 175.945 123.217 176.378 123.242 176.823C123.267 177.277 123.293 177.745 123.243 178.174C123.23 178.389 123.214 178.599 123.194 178.804C123.075 178.619 122.942 178.442 122.792 178.274C120.342 175.274 118.242 176.174 117.343 179.724C117.343 179.918 117.132 179.721 116.828 179.436L116.766 179.378L116.703 179.319L116.674 179.293L116.637 179.259C116.617 179.241 116.596 179.222 116.576 179.203L116.542 179.174C115.842 178.574 114.942 177.974 114.343 179.374C110.542 174.424 109.042 177.574 109.593 182.274C109.643 183.403 109.693 184.431 110.027 185.308C109.461 185.211 108.895 185.109 108.332 185.008L108.327 185.007L108.324 185.006L108.322 185.006L108.32 185.006L108.143 184.974C107.343 184.924 108.093 185.824 109.293 186.674ZM122.48 181.911C122.321 181.414 122.268 180.864 122.213 180.309C122.145 179.608 122.076 178.898 121.792 178.274C121.792 178.062 121.505 178.173 121.326 178.242L121.326 178.243C121.294 178.255 121.265 178.266 121.242 178.274C119.906 179.016 119.55 180.739 119.251 182.181L119.242 182.224C119.193 182.322 119.171 182.58 119.146 182.873C119.094 183.476 119.029 184.226 118.692 184.024C117.442 183.374 116.542 182.274 116.492 180.874C116.136 181.554 116.011 182.319 115.885 183.086L115.885 183.086C115.816 183.502 115.748 183.919 115.642 184.324C115.2 184.589 114.287 183.641 113.841 183.176C113.783 183.116 113.733 183.064 113.692 183.024C113.248 182.579 113.137 181.854 113.037 181.202C112.969 180.753 112.906 180.339 112.742 180.074C112.003 181.787 112.021 183.742 112.136 185.633C116.638 186.233 120.793 186.016 122.48 181.911ZM109.293 172.774C110.818 172.549 112.353 172.416 113.884 172.282C115.767 172.118 117.645 171.955 119.493 171.624C121.143 171.174 121.843 170.574 121.293 168.774C121.293 168.574 121.243 168.474 120.993 168.474C117.043 167.274 112.343 166.724 108.393 167.324C107.793 167.624 105.443 166.024 105.243 165.424C107.343 164.924 109.843 165.074 112.093 165.224C116.093 165.674 121.793 166.474 124.143 170.024C124.843 172.074 124.543 173.074 122.343 173.574C120.289 173.887 118.218 174.071 116.151 174.254L116.15 174.255C114.594 174.393 113.039 174.53 111.493 174.724C111.093 174.724 108.143 172.824 109.293 172.774ZM49.2426 139.674C50.1977 140.677 51.4264 141.406 52.6674 141.992C52.7221 142.386 52.777 142.78 52.8426 143.174L52.8723 143.433C53.2862 147.04 54.1351 154.437 51.7926 157.024C51.1916 157.694 50.3982 158.129 49.6101 158.562C48.6935 159.065 47.7841 159.564 47.1926 160.424C47.3113 161.096 47.9311 161.613 48.4819 162.071C48.6271 162.192 48.7675 162.309 48.8926 162.424C49.8426 163.274 51.0426 163.524 52.2426 163.574C52.7046 163.574 53.3311 163.632 54.0328 163.697L54.0331 163.697L54.0336 163.697H54.0338C54.9266 163.78 55.941 163.874 56.8926 163.874C58.2426 163.874 59.3926 163.674 59.9426 163.074C60.0614 162.599 59.647 162.186 59.2956 161.836C59.2033 161.744 59.1154 161.657 59.0426 161.574C58.5038 160.968 58.3959 160.112 58.2913 159.282C58.2406 158.879 58.1906 158.483 58.0926 158.124C58.009 157.762 57.9643 157.38 57.9194 156.997C57.8032 156.007 57.6861 155.009 56.8926 154.324L56.8925 154.324L56.8924 154.323C56.8133 154.244 56.7899 154.221 56.7855 154.194C56.7844 154.188 56.7844 154.181 56.7851 154.173L56.786 154.165L56.7872 154.155L56.7895 154.135C56.7903 154.128 56.791 154.119 56.7916 154.11C56.7922 154.099 56.7926 154.087 56.7926 154.074C56.7426 150.924 56.4926 147.774 55.8926 144.674C55.8604 144.4 55.8074 144.116 55.7537 143.827C55.6873 143.471 55.6199 143.109 55.5893 142.755C55.823 142.768 56.0578 142.774 56.2926 142.774C56.8259 142.774 57.3593 142.757 57.8926 142.724C58.6426 142.674 57.7426 141.774 57.5426 141.574C56.7426 140.724 55.8426 139.924 54.7926 139.424C54.5301 139.311 54.2676 139.367 54.0051 139.424C53.9176 139.442 53.8301 139.461 53.7426 139.474C53.4694 139.531 53.1884 139.585 52.9037 139.627C52.7412 139.547 52.5859 139.478 52.4426 139.424C52.2926 139.374 52.1926 139.424 52.2426 139.574C52.2529 139.615 52.263 139.656 52.2728 139.697C51.5079 139.749 50.7386 139.667 50.0426 139.274C48.8426 138.324 47.5926 137.924 49.2426 139.674ZM12.0926 210.924C11.9537 210.785 11.7611 210.627 11.5509 210.455C10.8534 209.884 9.9621 209.154 10.1926 208.424C10.5182 208.23 10.852 208.045 11.1861 207.86L11.1863 207.86L11.1865 207.86L11.1867 207.86L11.1869 207.86C12.4946 207.135 13.8064 206.408 14.6426 205.174C16.4076 202.476 16.2207 202.019 15.7661 200.906C15.5382 200.349 15.2429 199.626 15.0926 198.374C14.9838 197.285 15.2171 196.223 15.4489 195.168C15.5366 194.769 15.624 194.371 15.6926 193.974C15.6127 193.627 15.4334 193.309 15.2531 192.99C15.095 192.709 14.9361 192.427 14.8426 192.124C14.8815 191.89 15.3749 192.141 15.6624 192.288C15.7442 192.329 15.8094 192.363 15.8426 192.374C17.2926 193.174 18.4426 194.474 19.4426 195.774C19.6028 195.966 19.5372 196.178 19.4694 196.398C19.4314 196.522 19.3926 196.648 19.3926 196.774C20.1926 199.424 20.6426 202.324 20.0926 205.074C21.0443 206.533 22.459 207.509 23.8768 208.487C24.6936 209.051 25.5116 209.616 26.2426 210.274C27.7833 211.627 27.2315 211.674 25.7676 211.796L25.5828 211.811L25.4426 211.824C23.926 211.873 22.4095 212.059 20.8867 212.245L20.8864 212.245C19.3469 212.434 17.8011 212.623 16.2426 212.674H16.0926C14.5426 212.674 13.2426 211.874 12.0926 210.924ZM43.4916 208.608C41.6507 209.347 40.4236 209.84 42.0427 211.274C43.3927 212.974 45.3927 213.474 47.4927 213.474H48.2427C50.442 213.374 52.0417 213.374 53.1916 213.374H53.1927L53.2791 213.375C54.8378 213.392 55.4828 213.399 55.5708 213.181C55.6329 213.028 55.4174 212.762 55.0496 212.308C54.4757 211.6 53.531 210.434 52.6927 208.524C51.8719 206.941 51.7557 205.238 51.6389 203.525C51.5565 202.316 51.4737 201.103 51.1427 199.924C51.0248 199.545 50.9169 199.143 50.8067 198.734C50.2625 196.709 49.6634 194.481 47.5427 193.774C47.3927 193.774 47.4927 194.024 47.5427 194.074C47.6427 194.34 47.7427 194.59 47.8427 194.824C47.8548 194.86 47.867 194.888 47.8755 194.907C47.8846 194.928 47.8897 194.939 47.8864 194.942C47.8824 194.947 47.8652 194.937 47.8264 194.917L47.8263 194.917L47.8131 194.91C47.7941 194.9 47.7709 194.888 47.7427 194.874C47.5427 194.724 47.0427 194.574 47.1927 194.974C47.6427 197.724 48.1427 200.524 48.8927 203.174C48.5971 206.559 45.6301 207.75 43.4916 208.608ZM81.6426 213.524C81.9782 213.337 82.3972 213.318 82.7959 213.299C82.9318 213.293 83.0654 213.286 83.1926 213.274C87.9426 211.674 89.5926 205.674 89.2426 201.124C88.9562 200.36 88.9533 199.536 88.9504 198.715C88.9488 198.246 88.9471 197.778 88.8926 197.324C88.8426 197.224 88.9926 197.224 89.0426 197.274C89.1224 196.981 89.188 196.547 89.2546 196.107C89.3131 195.72 89.3724 195.328 89.4426 195.024C89.4426 193.933 90.9646 195.354 91.5855 195.934C91.6763 196.019 91.7479 196.086 91.7926 196.124C92.1926 196.474 92.6426 196.924 92.8426 197.424C92.7879 198.081 92.6433 198.752 92.499 199.423L92.4989 199.423C92.3796 199.977 92.2605 200.531 92.1926 201.074C91.8306 204.196 93.3928 207.031 94.8787 209.727L94.879 209.728C95.0352 210.011 95.1905 210.293 95.3426 210.574C95.4791 210.915 95.6678 211.267 95.8608 211.628C96.3749 212.588 96.9197 213.606 96.5926 214.624C95.6519 215.208 94.3536 215.244 93.0934 215.28C92.411 215.299 91.7398 215.318 91.1426 215.424L90.9542 215.436L90.7974 215.446L90.6709 215.455C90.4568 215.468 90.2428 215.482 90.0289 215.495C88.1513 215.614 86.2795 215.732 84.4426 216.024C83.5926 215.824 81.7926 214.424 81.6426 213.524ZM109.965 210.976C110.041 211.042 110.118 211.108 110.193 211.174C110.543 211.524 110.943 211.674 111.393 211.674C111.663 211.674 111.933 211.62 112.203 211.566C112.383 211.53 112.563 211.494 112.743 211.474C114.655 210.949 116.652 210.93 118.649 210.911C119.314 210.905 119.98 210.899 120.643 210.874C120.838 210.841 121.117 210.851 121.427 210.862C121.593 210.868 121.768 210.874 121.943 210.874C122.893 210.924 123.943 210.974 124.293 210.574C124.117 209.577 123.407 208.803 122.7 208.031C122.201 207.487 121.703 206.944 121.393 206.324C119.693 203.474 119.243 200.124 119.043 196.874C119.004 196.454 118.988 196.065 118.973 195.701C118.908 194.153 118.861 193.038 117.243 191.824C117.343 191.324 114.843 188.724 114.693 189.524C115.143 191.524 115.543 193.524 115.893 195.524C116.643 199.224 117.393 203.974 113.693 206.324C112.79 207.035 111.692 207.372 110.613 207.704C109.72 207.978 108.84 208.248 108.093 208.724C108.41 209.63 109.219 210.331 109.964 210.975L109.965 210.976ZM32.2926 203.174C30.4926 203.174 28.4926 203.074 27.2926 201.574L27.265 201.546L27.2202 201.503C27.1936 201.477 27.1665 201.451 27.1391 201.424L27.1389 201.424C26.8127 201.11 26.4426 200.754 26.4426 200.324C26.8483 200.037 27.3566 199.979 27.8695 199.92C28.4311 199.855 28.9983 199.79 29.4426 199.424C30.2926 198.374 30.6426 196.324 30.6426 194.974C30.5426 193.774 30.5926 192.524 30.6426 191.324C30.7296 191.15 30.8921 191.241 30.9987 191.3C31.0148 191.309 31.0296 191.317 31.0426 191.324C31.076 191.357 31.0926 191.34 31.0926 191.274C31.1426 190.224 31.1426 189.174 31.1426 188.124C31.1426 188.024 31.1426 187.974 31.2426 187.924C31.9937 188.189 32.5885 188.844 33.1308 189.442L33.2395 189.561C33.2741 189.599 33.3084 189.637 33.3426 189.674C33.7074 190.171 33.6543 191.263 33.6063 192.248C33.582 192.748 33.559 193.22 33.5926 193.574C33.6006 193.594 33.6088 193.613 33.6172 193.633L33.6348 193.675L33.6349 193.675C33.7276 193.892 33.8224 194.114 33.6926 194.374C33.6608 194.681 33.62 194.989 33.5793 195.296C33.4279 196.436 33.2774 197.571 33.5926 198.674C33.6926 199.074 33.9426 199.424 34.2926 199.674C34.6023 199.954 34.9295 200.217 35.2573 200.48L35.2574 200.48L35.2575 200.48L35.2577 200.481C36.0412 201.11 36.8287 201.743 37.3926 202.624C37.6926 202.974 37.5926 203.324 37.0926 203.224C36.626 203.257 36.176 203.274 35.7426 203.274C34.6093 203.274 33.4593 203.24 32.2926 203.174ZM61.9925 202.674C62.7925 203.874 63.9925 205.024 65.3925 205.374C65.9592 205.407 66.5258 205.424 67.0925 205.424C68.6968 205.424 70.3201 205.271 71.939 205.12L71.9392 205.12L71.94 205.119L71.9407 205.119L71.9414 205.119L71.9421 205.119L71.9428 205.119L71.9435 205.119L71.9442 205.119L71.9449 205.119L71.9456 205.119L71.9463 205.119L71.9471 205.119L71.9478 205.119L71.9485 205.119L71.9492 205.119L71.9499 205.119L71.9506 205.119L71.9513 205.119L71.9519 205.119L71.9524 205.119L71.953 205.119L71.9535 205.119L71.9541 205.118L71.9546 205.118L71.9552 205.118L71.9557 205.118L71.9563 205.118L71.9568 205.118L71.9574 205.118C72.956 205.024 73.9529 204.931 74.9425 204.874C75.3925 204.424 73.0925 202.624 72.6425 202.424C71.7845 201.47 71.4718 200.108 71.1845 198.857L71.1425 198.674C70.9635 197.528 70.9126 196.357 70.8615 195.178C70.8412 194.711 70.8209 194.242 70.7925 193.774C70.7105 193.364 70.4266 193.054 70.134 192.736C70.0699 192.666 70.0054 192.596 69.9425 192.524C69.6425 191.024 69.2925 189.474 68.7925 188.024C68.5925 187.474 68.0925 186.974 67.5425 186.774C67.6089 187.371 67.7341 187.998 67.8617 188.637C68.0223 189.442 68.1868 190.266 68.2425 191.074L68.2025 191.047C67.9952 190.906 67.3747 190.484 67.1425 190.624C67.1124 191.196 67.1912 191.787 67.2696 192.374C67.3212 192.761 67.3726 193.146 67.3925 193.524C67.4925 194.624 67.6425 195.724 67.9425 196.774C67.8425 197.624 67.3925 198.524 66.8425 199.224C66.6159 199.722 65.4758 200.282 64.3522 200.834C62.9962 201.5 61.6644 202.154 61.9925 202.674ZM90.5925 122.074C89.1925 121.524 87.2925 120.374 86.6425 118.974C86.6425 118.85 86.8115 118.862 86.9272 118.87C86.9522 118.872 86.9747 118.874 86.9925 118.874C89.3425 118.974 91.6925 118.974 94.0925 118.824C94.4762 118.783 95.0267 118.751 95.682 118.713L95.6826 118.713L95.683 118.713L95.6833 118.713H95.6835H95.6836H95.6838H95.6839H95.684H95.6842C99.8973 118.466 108.44 117.966 104.893 113.424C101.393 111.724 84.8925 112.074 82.3425 115.074C81.9243 115.199 81.2962 114.695 80.8678 114.351C80.829 114.32 80.7918 114.29 80.7566 114.262C80.7158 114.23 80.6776 114.2 80.6425 114.174C79.0805 113.262 81.698 112.351 82.9075 111.93C83.0918 111.866 83.2434 111.813 83.3425 111.774C87.3925 110.624 91.5925 110.424 95.7425 110.324C98.9925 110.224 102.343 110.624 104.993 112.574C111.493 116.974 109.393 120.074 102.393 121.024C98.6425 121.574 94.7925 122.074 90.9925 122.074H90.5925ZM24.0926 108.724C21.9926 107.874 21.8426 106.374 21.6926 104.324C21.4926 100.724 21.3926 96.8237 22.9926 93.5237C23.7446 91.9741 25.0262 90.8504 26.3027 89.7312C27.827 88.3947 29.3439 87.0646 29.9426 85.0237C30.4168 83.4316 30.4091 81.7707 30.4015 80.1187C30.3978 79.3322 30.3942 78.5477 30.4426 77.7737C30.5426 74.4237 31.1426 70.9737 32.9426 68.0737C32.9628 68.0534 32.9913 68.0004 33.0213 67.9444C33.0654 67.8622 33.1128 67.7737 33.1426 67.7737C33.2145 67.7377 33.2864 67.7535 33.3397 67.7652L33.3398 67.7652C33.3606 67.7698 33.3786 67.7737 33.3926 67.7737C34.0426 68.1237 34.7426 68.6237 35.1426 69.2237C32.4597 73.3532 32.4888 77.2751 32.5149 80.793C32.5384 83.9625 32.5595 86.804 30.5926 89.1737C29.9277 89.8897 29.1699 90.5243 28.4121 91.1588C26.9475 92.3853 25.4834 93.6113 24.6926 95.4237C23.2426 98.9237 23.4426 102.924 23.8426 106.574C23.8426 106.719 23.9219 107.043 24.0085 107.397C24.1599 108.015 24.3335 108.724 24.1426 108.724H24.0926ZM92.3055 102.123C93.6613 104.192 95.1055 106.396 97.2925 107.574H97.3425C97.6381 107.574 97.3988 107.253 97.257 107.063L97.2569 107.063L97.2567 107.062C97.2307 107.027 97.208 106.997 97.1925 106.974L97.0803 106.837C94.186 103.306 92.0192 100.663 94.0925 95.9237C96.1875 90.2069 95.4078 89.0795 93.777 86.7215C93.1114 85.7591 92.3041 84.5917 91.4925 82.8237C91.3425 81.9737 90.1425 80.9737 89.3425 80.8237C89.4425 81.6737 89.8425 82.5237 90.3425 83.2737C94.3263 87.6248 93.1532 90.523 91.9656 93.457C91.0516 95.7152 90.129 97.9945 91.5425 100.974C91.7961 101.346 92.0483 101.731 92.3037 102.121L92.305 102.123L92.3055 102.123ZM114.143 161.124C111.789 160.115 111.512 158.922 111.006 156.747L110.943 156.474C110.838 156.069 110.724 155.668 110.61 155.269L110.609 155.267L110.609 155.267C110.286 154.136 109.966 153.019 109.893 151.874C109.788 149.85 110.901 148.167 111.991 146.519L111.991 146.518C112.463 145.805 112.93 145.099 113.293 144.374C116.093 140.174 116.493 134.274 112.793 130.524C112.619 130.264 112.379 130.154 112.13 130.04C111.948 129.957 111.762 129.871 111.593 129.724C110.693 129.124 110.443 128.474 111.793 129.224C116.343 132.124 118.843 138.224 116.743 143.374C116.283 144.798 115.528 146.096 114.773 147.393C113.885 148.919 112.998 150.444 112.593 152.174C112.35 153.993 112.898 155.72 113.445 157.444C113.8 158.563 114.155 159.682 114.293 160.824C114.293 160.842 114.293 160.861 114.294 160.879L114.297 160.916C114.305 161.03 114.311 161.124 114.193 161.124H114.143ZM111.822 23.6667C113.45 24.3763 115.084 25.0881 116.793 25.5736C125.043 28.1236 133.793 30.1736 142.443 29.0236C142.576 28.9902 142.709 28.9736 142.843 28.9736C145.043 28.6236 147.243 28.0236 149.443 27.3236C149.493 26.4736 145.393 23.7236 144.343 24.4736C140.793 25.4736 137.243 26.2236 133.543 26.3236C128.593 26.5236 123.643 25.6736 118.793 24.5736C114.238 23.5326 111.298 22.3646 108.852 21.3932C103.78 19.3786 100.838 18.2098 90.0427 20.7736C88.1927 21.1236 86.3427 21.4236 84.4427 21.6236C84.1927 21.9236 85.5427 22.7236 86.0927 22.9736C86.5877 23.2436 87.0827 23.1491 87.5776 23.0546C87.6327 23.0441 87.6877 23.0336 87.7427 23.0236L92.0927 22.4236C92.7954 22.3155 93.4997 22.1993 94.2054 22.0828C97.4161 21.553 100.654 21.0186 103.893 21.2236C106.706 21.4376 109.258 22.5494 111.822 23.6667ZM103.343 17.0738C103.323 17.0338 103.287 16.9938 103.251 16.9538C103.197 16.8938 103.143 16.8338 103.143 16.7738C104.493 15.5738 105.193 13.8238 104.843 11.9738C104.793 11.7738 104.543 10.7738 104.993 11.0738C105.343 11.2738 105.693 11.4738 105.793 11.8238C106.043 12.3738 106.293 12.9738 106.493 13.5738C106.993 15.0738 106.843 17.5238 105.293 18.3238C104.543 18.1238 103.893 17.6238 103.343 17.0738ZM115.093 17.2738C115.943 18.3738 117.293 19.1238 118.643 19.5238H118.693C119.051 19.4839 119.156 17.251 119.209 16.1193C119.222 15.8315 119.232 15.615 119.243 15.5238C119.293 13.7238 118.843 11.9238 117.993 10.3238C116.943 9.27379 115.593 8.32378 114.143 8.12378C113.88 8.19878 114.18 8.49879 114.368 8.68629L114.368 8.68634C114.43 8.74882 114.48 8.7988 114.493 8.82379C114.593 8.95711 114.648 9.09043 114.704 9.22375L114.704 9.22401C114.732 9.29061 114.759 9.3572 114.793 9.4238C115.658 11.4853 115.436 13.7167 115.22 15.8939C115.174 16.357 115.128 16.8177 115.093 17.2738ZM47.3426 54.7736C46.3426 54.4236 45.2426 53.7736 44.6926 52.8736C45.5926 51.9736 46.6926 51.1736 47.8426 50.7236C52.3926 49.6736 56.8426 48.2236 57.4926 42.9236C57.6968 41.8348 57.8083 40.7229 57.9198 39.6114C58.136 37.4563 58.352 35.3029 59.2426 33.3236C59.3296 33.1353 59.4166 32.9463 59.5038 32.7569L59.5079 32.748C61.5265 28.3646 63.6566 23.7391 67.3926 20.6736C68.3378 19.6787 69.4315 20.5151 70.2797 21.1638L70.2926 21.1736C70.3071 21.2025 70.3758 21.2648 70.4613 21.3424C70.672 21.5333 70.9849 21.817 70.8426 21.9236C70.5926 21.9736 70.3426 22.0236 70.0926 22.1736C65.8426 24.7236 62.1426 32.5736 60.9426 37.3236C60.729 38.5161 60.6485 39.7402 60.568 40.9644C60.4222 43.1795 60.2765 45.3949 59.3426 47.4236C57.9107 50.6108 54.4732 51.579 51.356 52.4571L51.3557 52.4571L51.3554 52.4572C51.0985 52.5296 50.8438 52.6013 50.5926 52.6736C49.9223 52.925 49.3299 53.3792 48.7459 53.8271L48.7459 53.8271L48.7458 53.8271L48.7458 53.8272L48.7457 53.8272L48.7457 53.8272L48.7457 53.8272C48.2843 54.181 47.8281 54.5309 47.3426 54.7736ZM77.3227 52.3513C77.8663 53.0672 78.414 53.7885 79.9927 54.3237C80.7927 54.3237 78.3427 51.7737 77.9427 51.5737C77.2809 51.0249 76.4837 50.5959 75.6872 50.1674C74.0164 49.2684 72.349 48.3713 71.9427 46.3736C71.6884 44.7754 72.1203 43.23 72.5481 41.699C72.7091 41.1225 72.8696 40.5481 72.9927 39.9736C73.7427 37.1236 74.4427 34.3237 75.0427 31.4237C75.061 31.2037 75.1197 30.9703 75.1792 30.7333C75.2821 30.3238 75.3877 29.9037 75.2927 29.5236C74.7927 29.0236 73.4427 27.8736 72.6927 28.0236C72.1509 31.2023 71.322 34.3027 70.4889 37.4191C70.1688 38.6164 69.848 39.8162 69.5427 41.0236C67.7427 45.6236 71.5927 48.6736 75.2427 50.6236C76.3816 51.1117 76.8506 51.7294 77.3227 52.3513ZM95.6925 142.174C95.1925 142.124 91.7926 139.224 93.0426 139.174C94.4237 138.971 95.9065 138.728 97.3512 138.347C96.187 136.977 95.3743 135.264 94.6426 133.674C94.4261 133.391 94.1597 133.13 93.8914 132.867L93.8912 132.867C93.354 132.341 92.8093 131.807 92.6426 131.074C93.0426 130.474 95.7926 133.174 96.1426 133.624C96.1702 133.665 96.1864 133.695 96.1964 133.714C96.2047 133.729 96.2088 133.737 96.2116 133.736C96.2142 133.736 96.2158 133.728 96.2188 133.714C96.2226 133.695 96.2288 133.665 96.2426 133.624C96.2426 133.374 96.2926 133.074 96.3426 132.824C96.6926 130.124 98.5926 125.324 101.793 128.424C103.036 129.413 104.088 130.61 104.876 131.97C105.53 129.735 105.672 127.323 105.808 124.993L105.808 124.993C105.835 124.533 105.862 124.076 105.893 123.624C105.917 123.205 105.93 122.786 105.942 122.374V122.373V122.373V122.373V122.373C105.955 121.948 105.967 121.53 105.993 121.124C106.489 121.162 106.956 121.637 107.371 122.06L107.372 122.06C107.501 122.191 107.624 122.317 107.743 122.424C108.083 122.73 108.076 123.153 108.068 123.582C108.064 123.782 108.061 123.983 108.093 124.174C108.102 124.413 108.112 124.653 108.122 124.893L108.122 124.897V124.897V124.897V124.897C108.217 127.165 108.314 129.469 108.043 131.774L108.031 131.89C107.784 134.31 107.51 137 105.493 138.624C102.643 140.624 99.0925 141.574 95.6925 142.174ZM103.528 134.934C102.818 134.129 102.279 133.202 102.193 132.074C100.857 133.515 100.237 135.451 100.057 137.412C101.387 136.816 102.589 136.022 103.528 134.934ZM106.142 203.774C104.943 203.674 103.693 203.674 102.494 203.674H102.492H102.492C101.442 203.674 100.442 203.674 99.3925 203.624C98.5425 203.524 96.8425 201.974 96.7925 201.124C97.3591 200.82 97.9749 200.598 98.5935 200.376L98.5936 200.376C99.5032 200.048 100.419 199.719 101.192 199.124C103.523 197.195 103.109 195.331 102.623 193.143L102.623 193.142C102.504 192.607 102.381 192.053 102.292 191.474C103.142 191.474 104.302 192.854 104.893 193.555L104.992 193.674C105.429 194.36 105.477 195.183 105.524 195.996C105.552 196.486 105.58 196.973 105.692 197.424C105.892 198.873 106.192 200.323 106.492 201.773L106.492 201.773L106.492 201.774C106.504 201.898 106.543 202.069 106.587 202.259C106.738 202.907 106.938 203.774 106.242 203.774H106.142ZM31.6414 113.598L31.6422 113.597L31.6429 113.597C33.5964 113.43 35.5481 113.262 37.4927 113.074C40.5427 112.774 43.6427 112.474 46.7427 112.474C47.8427 112.474 48.9427 112.524 50.0427 112.624C50.1936 112.635 50.3471 112.65 50.5028 112.664C51.0177 112.712 51.5552 112.762 52.0927 112.724C51.9927 113.124 51.3927 113.674 50.9927 113.974C47.4427 116.374 35.9927 116.524 31.5427 116.074C28.3427 115.724 25.1427 115.174 21.9927 114.524C25.1976 114.15 28.4219 113.874 31.6414 113.598ZM58.4138 117.946C58.8047 117.882 59.1423 117.827 59.3925 117.774H59.4925C59.5592 117.774 59.6259 117.84 59.6925 117.974C59.7733 118.028 59.854 118.085 59.9358 118.143L59.9359 118.143C60.1578 118.301 60.3868 118.464 60.6425 118.574C62.1228 118.536 63.6318 118.325 65.1259 118.116C65.6001 118.05 66.0728 117.984 66.5425 117.924C72.4425 117.124 79.0925 116.324 84.3925 119.674C85.0445 121.711 81.2805 121.988 78.9988 122.157C78.4805 122.195 78.0387 122.227 77.7425 122.274L69.0425 122.874C63.5925 123.224 57.8425 123.124 52.7925 120.974C52.3684 118.938 56.2259 118.305 58.4133 117.946L58.4138 117.946ZM46.3925 166.374C41.0925 166.674 35.6425 167.674 30.7925 169.924C40.4425 171.224 50.3425 172.074 59.9425 170.024C60.1662 169.949 60.468 169.876 60.8057 169.795C62.2793 169.439 64.434 168.919 63.7425 167.374C58.8425 165.674 53.4925 165.624 48.3925 165.724C48.4208 165.766 48.473 165.816 48.53 165.871C48.6747 166.011 48.8501 166.18 48.7425 166.324C48.5092 166.357 48.2314 166.346 47.9536 166.335C47.8147 166.329 47.6758 166.324 47.5425 166.324H46.9925C46.7925 166.324 46.5925 166.34 46.3925 166.374ZM37.3926 156.174C36.7926 159.124 35.1426 162.074 32.3926 163.474H32.6426C35.1926 163.774 38.3426 162.574 39.1426 159.924C39.2596 158.793 38.5859 157.814 37.9517 156.893C37.7726 156.633 37.5967 156.377 37.4426 156.124C37.4426 156.09 37.4259 156.074 37.3926 156.074V156.174ZM79.4427 165.274C79.9427 165.34 80.4594 165.407 80.9927 165.474C79.1427 163.474 77.4927 160.774 76.2427 158.674C75.8427 161.074 74.6927 163.374 72.9927 165.124C72.8594 165.224 72.8427 165.257 72.9427 165.224C73.9927 165.174 75.0927 165.124 76.1927 165.124C77.2927 165.124 78.376 165.174 79.4427 165.274ZM18.8059 208.875C18.747 208.788 18.8402 208.598 19.0228 208.226C19.1985 207.867 19.457 207.34 19.7425 206.574L19.8425 206.274C20.3563 206.787 21.0657 207.35 21.7194 207.869L21.7196 207.869L21.7199 207.869L21.7201 207.869C22.2112 208.259 22.6708 208.623 22.9925 208.924C21.4925 208.774 20.4925 208.824 19.8425 208.874C19.7379 208.883 19.6421 208.892 19.5548 208.9C19.0934 208.944 18.8672 208.965 18.8059 208.875ZM52.1184 211.077L52.1198 211.078C52.6242 211.127 52.8671 211.151 52.9094 211.07C52.9486 210.995 52.8147 210.829 52.5563 210.51C52.2234 210.098 51.6841 209.432 51.0425 208.374C51.0092 208.14 50.9592 208.124 50.8925 208.324C50.6425 208.774 50.3925 209.174 50.0425 209.574C49.7392 209.944 49.1406 210.292 48.66 210.572L48.6597 210.572C48.4274 210.707 48.2228 210.826 48.0925 210.924H48.2925H49.1925C50.1925 210.924 50.9925 210.974 51.5425 211.024C51.7633 211.043 51.9546 211.061 52.1184 211.077ZM89.4927 212.974C90.6927 211.024 91.2927 208.724 91.3927 206.424V206.224L91.4427 206.274C91.5989 206.643 91.9569 207.226 92.3688 207.897C93.4068 209.588 94.787 211.836 94.1427 212.624C93.1962 212.876 92.19 212.89 91.1994 212.903H91.1993H91.1991H91.1984C90.6195 212.911 90.0459 212.918 89.4927 212.974ZM118.542 208.174C118.292 208.374 118.492 208.374 118.692 208.324H118.842C119.242 208.319 119.593 208.318 119.9 208.316L119.912 208.316H119.914H119.914H119.915C121.178 208.31 121.692 208.308 121.744 208.152C121.779 208.045 121.597 207.866 121.289 207.563C120.864 207.146 120.201 206.494 119.542 205.474C119.442 206.424 119.092 207.374 118.542 208.174ZM34.8425 200.974C34.0926 200.924 33.5427 200.924 33.1926 200.974C33.1286 200.977 33.0702 200.98 33.0169 200.983L33.0145 200.983L33.0134 200.983C32.7441 200.998 32.6092 201.006 32.5611 200.945C32.5129 200.883 32.5521 200.753 32.6307 200.493C32.7108 200.227 32.8317 199.826 32.9426 199.224C33.5426 199.874 34.1925 200.423 34.8424 200.973L34.8425 200.974ZM69.9925 201.024C69.7925 201.574 69.4925 202.074 69.0425 202.424C69.1832 202.414 69.3259 202.404 69.4694 202.394L69.7526 202.374C70.2307 202.341 70.7088 202.307 71.1425 202.274C70.9547 202.086 70.7276 201.8 70.5105 201.527L70.5103 201.527L70.51 201.526C70.3805 201.363 70.2545 201.204 70.1425 201.074C70.132 201.053 70.1237 201.034 70.1167 201.017L70.1089 200.999C70.0882 200.949 70.0778 200.924 70.0425 200.924L69.9925 201.024ZM53.0336 161.324C54.0295 160.805 55.0817 160.257 55.6925 159.224L55.7925 159.124C56.0425 159.724 56.4925 160.374 56.9925 160.874C57.3814 161.029 56.5 161.185 56.0184 161.27C55.8808 161.294 55.7759 161.313 55.7425 161.324C54.8425 161.474 53.7425 161.474 52.8425 161.424C52.9056 161.391 52.9691 161.358 53.0327 161.325L53.0336 161.324ZM97.2425 159.824C96.9425 161.124 96.5425 162.474 95.4925 163.424C95.388 163.459 95.502 163.445 95.5976 163.433L95.5978 163.433C95.6393 163.428 95.6774 163.424 95.6925 163.424C96.7282 163.388 97.7639 163.225 98.7997 163.062C99.214 162.996 99.6283 162.931 100.043 162.874C99.0425 161.974 97.9925 160.824 97.2925 159.624C97.2925 159.69 97.2759 159.757 97.2425 159.824ZM104.605 201.857C104.467 201.107 104.384 200.863 104.165 200.252C103.971 200.677 103.768 200.935 103.508 201.264C103.388 201.416 103.256 201.583 103.107 201.789C103.47 201.844 104.308 201.936 104.605 201.857Z" fill="black"/>
</svg>
