<svg width="108" height="133" viewBox="0 0 108 133" fill="none" xmlns="http://www.w3.org/2000/svg">
<path fill-rule="evenodd" clip-rule="evenodd" d="M46.581 14.878L46.5487 14.8775C37.9594 14.7276 29.3202 14.577 20.731 13.728L20.5896 13.7127C16.9318 13.3176 13.0903 12.9026 9.93099 10.928C8.18099 9.87802 4.58098 7.22802 8.73098 6.72802C23.731 3.02802 39.231 -0.721979 54.831 0.478021C55.431 0.128021 59.531 2.82802 57.831 2.67802C53.981 2.32802 50.131 2.32803 46.281 2.57803C34.381 3.57803 22.631 6.07803 11.231 9.57803C9.2446 10.1697 13.2241 10.6185 14.8656 10.8036L14.8656 10.8036L14.8659 10.8036L14.866 10.8037L14.8663 10.8037C15.1664 10.8375 15.3882 10.8626 15.481 10.878C22.831 11.728 30.281 11.928 37.681 12.028C46.131 12.178 54.531 11.978 62.981 11.678C64.564 11.6 66.1545 11.5468 67.7474 11.4935C73.299 11.3079 78.8806 11.1213 84.281 9.87801C91.281 7.22801 67.881 4.42802 66.331 4.42802C63.831 4.47802 61.531 3.62803 59.831 1.82803C59.531 1.57803 58.981 0.878021 59.681 0.978021C67.231 1.57802 88.081 3.62802 90.131 12.028C87.5015 14.139 80.1812 14.3024 74.5501 14.428C72.5788 14.472 70.8146 14.5113 69.531 14.628C61.881 14.828 54.231 14.978 46.581 14.878ZM54.0814 114.614C53.2267 113.981 52.4748 113.216 52.0309 112.328C51.6642 109.761 51.3642 107.211 51.1309 104.678C50.8996 102.281 50.624 99.8838 50.3155 97.4904C49.0158 100.117 46.6733 102.528 43.6309 102.528C41.5742 102.599 39.7969 101.407 38.13 100.289C36.2713 99.042 34.5497 97.8872 32.7309 98.678C31.0642 99.4339 29.6304 100.708 28.1965 101.982C25.931 103.995 23.6654 106.009 20.4809 105.978C18.125 105.764 15.922 104.964 13.7081 104.159C12.821 103.837 11.9321 103.514 11.0309 103.228C10.4507 103.029 9.88139 102.849 9.32469 102.674C6.52364 101.789 4.04132 101.006 2.08094 98.378C1.68094 97.978 -0.219075 95.628 1.38093 96.128C4.37888 96.9101 7.26354 97.9942 10.1662 99.0851C10.6039 99.2496 11.042 99.4142 11.4809 99.578C16.5809 101.778 19.5309 100.528 23.6809 97.228C24.0092 96.9948 24.3389 96.7467 24.6727 96.4954C26.2711 95.2925 27.9629 94.0194 30.031 93.978C32.0035 94.1113 33.564 95.2536 35.1366 96.4048C36.5138 97.4129 37.9002 98.4279 39.5809 98.778C42.8496 99.5762 46.0606 97.4562 47.7422 94.6583C41.7086 94.3662 35.756 92.269 31.1309 88.228C27.9809 85.478 24.1809 82.028 24.1309 77.528C24.8809 70.828 32.8308 72.078 36.9308 74.828C41.8318 77.6654 45.402 82.1292 48.6904 86.5985C47.1442 78.682 43.8213 71.2192 40.1309 64.078C36.7809 57.628 32.7809 51.428 27.5309 46.378C25.7469 44.6294 23.7508 43.0804 21.7563 41.5327C18.1049 38.6993 14.4591 35.8701 12.1309 31.828C9.29773 26.5602 8.34584 20.2733 7.47083 14.4942L7.47081 14.4941L7.47081 14.4941L7.4708 14.494L7.4708 14.494L7.47076 14.4937C7.35748 13.7456 7.24548 13.0059 7.13086 12.278C7.58086 12.378 8.08086 12.728 8.38086 13.128C8.64748 14.0041 8.82705 14.9091 9.00799 15.8211C9.06458 16.1063 9.12129 16.3921 9.18085 16.678C10.0808 20.978 11.0809 25.278 12.7809 29.328C14.3309 33.278 16.9309 36.728 20.3309 39.328C21.163 39.9788 22.002 40.6205 22.8406 41.2618L22.8408 41.262L22.841 41.2621L22.8412 41.2623L22.8414 41.2624L22.8416 41.2626L22.8418 41.2628L22.842 41.2629L22.8422 41.2631L22.8424 41.2632L22.8426 41.2634L22.8428 41.2636C25.9334 43.6273 29.0176 45.9862 31.7308 48.778C40.9891 58.3406 48.4337 71.2283 52.4221 84.2549L52.4309 83.378C52.2809 69.078 56.4809 58.928 65.3809 47.878C67.4605 45.2249 69.7457 42.7431 72.0289 40.2634L72.029 40.2633C74.5219 37.5559 77.0126 34.8509 79.2309 31.928C83.3809 26.528 86.5309 20.378 88.3809 13.878C88.4476 13.6114 88.5143 13.3614 88.5809 13.128C88.631 12.928 88.6809 12.928 88.8309 12.978C90.0809 13.428 91.1309 14.378 91.9809 15.378C92.3578 15.9606 92.0303 16.8484 91.7385 17.6391C91.6045 18.0022 91.4781 18.3448 91.4309 18.628C90.4976 21.4614 89.4143 24.228 88.1809 26.928C85.0276 34.1807 79.9788 40.1904 74.9453 46.1819L74.9452 46.182L74.9448 46.1824C73.5934 47.791 72.2431 49.3983 70.9309 51.028C64.8309 58.928 59.5309 67.928 58.3309 78.028C58.2935 78.4223 58.2578 78.8167 58.2236 79.2112C60.1558 75.8443 62.7583 73.0655 66.7308 72.028C69.9308 71.328 72.6809 74.028 74.3309 76.478C75.5809 78.878 75.2809 81.778 74.2809 84.228C71.4392 90.4977 64.325 93.675 57.6736 94.3103C57.969 95.6046 58.3661 96.8767 58.881 98.0781C63.4616 98.743 67.36 96.1328 71.1205 93.615C72.4499 92.7249 73.762 91.8463 75.081 91.1281C76.781 89.9281 78.931 89.5281 80.631 90.9781C82.781 92.4781 84.781 94.3781 86.131 96.7281C86.4335 97.1314 86.7197 97.8927 87.0159 98.6804C87.4541 99.8458 87.9141 101.069 88.4809 101.278C92.7309 102.278 96.931 99.5281 99.881 96.6781C100.143 96.4378 100.377 96.1594 100.611 95.8804C100.912 95.5205 101.215 95.1596 101.581 94.8781C102.9 95.2186 103.966 96.3199 104.933 97.3185C105.101 97.493 105.267 97.6644 105.431 97.8281C105.549 97.994 105.738 98.2049 105.95 98.4415C106.631 99.2028 107.551 100.23 107.131 100.878C106.031 102.278 104.831 103.578 103.381 104.578C99.781 107.228 94.781 108.528 90.881 105.778C87.581 103.628 84.731 100.728 82.781 97.3281C82.7073 97.2728 82.62 97.0681 82.5267 96.8492L82.5266 96.8491C82.3666 96.474 82.1889 96.057 82.031 96.278C81.331 96.578 80.631 96.9781 79.9809 97.3781C79.6372 97.5696 79.293 97.7625 78.9481 97.9559L78.9464 97.9568C75.7796 99.732 72.5523 101.541 69.081 102.578C64.8512 103.938 60.6499 102.131 57.5759 99.1831C57.5915 102.183 57.6362 105.183 57.6809 108.178C57.7847 110.531 58.0561 112.884 58.3295 115.253C58.4511 116.308 58.5731 117.366 58.6809 118.428C58.6809 118.729 58.7423 119.085 58.7999 119.419C58.9145 120.085 59.0138 120.661 58.5809 120.528C57.0809 119.928 55.7309 118.828 54.7309 117.578C54.3159 116.844 54.227 115.987 54.1389 115.139C54.1207 114.963 54.1025 114.788 54.0814 114.614ZM57.6555 89.7875C64.2788 88.4118 71.6147 83.9235 71.4309 76.478C71.4142 76.3613 71.4031 76.2447 71.392 76.128C71.3698 75.8947 71.3476 75.6614 71.2809 75.428C71.1609 75.388 70.8489 75.412 70.7033 75.4232C70.6669 75.426 70.6409 75.428 70.6309 75.428C64.6311 76.4415 60.6363 81.3007 57.767 86.4611C57.7207 87.5692 57.684 88.6781 57.6555 89.7875ZM53.231 131.128C45.831 130.295 38.431 129.478 31.031 128.678C30.784 128.644 30.5362 128.61 30.2878 128.577L30.2806 128.576C25.401 127.913 20.2756 127.217 16.281 124.078C13.981 122.278 10.981 119.628 15.081 117.728C18.931 115.628 23.081 114.078 27.381 112.978C31.581 111.978 35.831 111.228 40.131 110.578C40.4754 110.55 40.8389 110.485 41.2098 110.418C42.1849 110.242 43.2117 110.057 44.081 110.528C44.381 110.728 45.581 111.528 45.331 111.878C37.181 112.778 28.731 114.378 21.581 118.578C21.225 118.845 20.8169 119.107 20.396 119.377C18.9254 120.322 17.2976 121.368 17.181 123.078C23.1103 124.874 29.3152 125.269 35.5155 125.664L35.5157 125.664L35.5159 125.664L35.5161 125.664L35.5162 125.664L35.5164 125.664L35.5166 125.664L35.5168 125.664L35.517 125.664L35.5172 125.664C38.4662 125.852 41.4142 126.04 44.331 126.378C50.631 126.878 56.981 127.328 63.331 127.278C67.681 127.378 93.131 126.378 85.731 118.028C82.531 116.228 78.881 115.378 75.281 114.778C73.7811 114.578 72.2812 114.478 70.7813 114.378L70.781 114.378C70.515 114.35 70.2411 114.349 69.966 114.349C69.2586 114.347 68.5429 114.346 67.931 113.878C67.8503 113.821 67.7686 113.763 67.686 113.705L67.6856 113.705L67.6852 113.705L67.6848 113.704L67.6844 113.704C66.5387 112.897 65.2404 111.983 64.681 110.678C64.7228 110.511 64.8695 110.518 65.0042 110.525L65.0334 110.527C65.0497 110.527 65.0656 110.528 65.081 110.528C65.4279 110.556 65.7749 110.583 66.1216 110.609L66.1254 110.61L66.1291 110.61L66.1328 110.61L66.1365 110.61L66.1403 110.611H66.1404C68.2864 110.776 70.4271 110.942 72.531 111.328C76.831 112.128 81.181 113.278 84.831 115.778C96.031 124.078 95.031 129.478 80.981 131.528C71.781 132.878 62.431 132.078 53.231 131.128ZM31.5308 86.578C28.5808 83.2281 30.3808 77.628 35.1308 77.528C39.6102 77.1441 42.3425 80.6913 44.8493 83.9459C45.2806 84.5058 45.7051 85.057 46.1308 85.578C46.6057 86.1779 47.0681 86.7779 47.5305 87.3778L47.5308 87.3781L47.5314 87.3789C47.9937 87.9786 48.456 88.5783 48.9308 89.1781L48.5808 89.228C42.8808 90.128 36.5308 89.678 31.5308 86.578ZM42.0311 26.778C39.8051 26.6904 37.6159 26.1665 35.4399 25.6458C31.4087 24.681 27.4226 23.7271 23.3311 25.578C23.173 25.6307 23.0193 25.6945 22.8683 25.7573C22.3026 25.9922 21.773 26.2121 21.1811 25.778C20.6811 25.528 20.1811 25.228 19.7811 24.878C19.7614 24.8583 19.7262 24.829 19.6836 24.7934C19.5095 24.648 19.2106 24.3985 19.3311 24.278C22.0811 23.078 25.181 22.378 28.231 22.828C29.1273 23.0143 29.9897 23.2019 30.8264 23.3839C37.1781 24.7655 42.0506 25.8254 49.0311 23.528C52.9811 22.278 57.031 21.078 61.231 21.178C63.3797 21.1275 65.4516 21.6392 67.5244 22.1512C69.5516 22.6518 71.5797 23.1527 73.6811 23.128C74.6811 23.178 75.6311 23.178 76.6311 23.178C77.5811 23.378 79.1811 24.328 79.6811 25.128C79.6414 25.2073 79.5389 25.1923 79.4732 25.1827C79.4561 25.1802 79.4414 25.178 79.4311 25.178C78.2311 25.178 77.0811 25.178 75.9311 25.128C74.1214 25.0963 72.3721 24.6412 70.6194 24.1851C69.6118 23.923 68.6031 23.6605 67.5811 23.478C62.6977 22.5013 58.3717 23.7544 54.044 25.0079C50.1743 26.1288 46.3033 27.2501 42.0311 26.778ZM38.8686 47.4197C40.5396 50.0019 42.0656 52.36 47.281 54.078C53.9983 55.6869 57.0267 50.9213 60.0367 46.1848C60.7683 45.0335 61.4988 43.8839 62.281 42.828C64.631 39.278 67.631 36.178 71.281 33.978C71.6143 33.7447 71.9477 33.528 72.281 33.328C72.381 33.278 72.481 33.228 72.431 33.078C71.781 32.328 70.681 31.478 69.631 31.378C62.3093 34.3014 58.6639 39.375 55.5526 43.7053C52.7572 47.5959 50.393 50.8864 46.181 51.478C45.631 51.528 45.031 51.578 44.431 51.478C44.181 51.128 43.931 50.728 43.681 50.328C42.181 47.828 40.431 45.478 38.081 43.728C36.5613 42.4013 34.7973 41.4354 33.0359 40.4709C31.1462 39.4361 29.2595 38.4031 27.681 36.928C26.932 36.2642 26.3569 35.554 25.8017 34.8684C24.7262 33.5402 23.7256 32.3046 21.681 31.678C21.581 31.628 20.8309 31.378 20.9809 31.728C23.3309 35.128 26.6309 37.778 30.2309 39.878C30.7485 40.1814 31.2787 40.4593 31.8081 40.7367L31.8081 40.7367L31.8082 40.7367L31.8082 40.7368L31.8083 40.7368C32.762 41.2366 33.7129 41.7349 34.581 42.378C36.7063 44.0782 37.8162 45.7934 38.8686 47.4197ZM37.431 36.378C36.281 35.978 34.681 35.328 34.431 34.028C34.2194 33.918 33.9935 33.8094 33.7619 33.6981C32.6258 33.152 31.3548 32.541 30.981 31.378C31.381 28.978 34.181 31.078 35.131 31.978C35.281 32.178 35.231 32.378 34.981 32.278C34.631 32.178 34.331 32.728 34.231 32.978C34.3122 33.0201 34.3948 33.0626 34.4785 33.1056L34.4791 33.1059C35.7867 33.7778 37.3491 34.5805 37.631 36.1781C37.731 36.3281 37.581 36.428 37.431 36.378ZM47.9308 40.028C48.4308 40.728 49.3309 41.178 50.1309 41.428C50.3809 41.528 50.2808 41.178 50.2308 41.028C49.9308 40.628 49.7808 40.228 50.2308 39.878C50.2954 39.8457 50.3391 39.8551 50.3889 39.8658C50.4163 39.8717 50.4454 39.878 50.4808 39.878C50.5225 39.8884 50.5662 39.901 50.6113 39.9139C50.7827 39.9631 50.9725 40.0176 51.1309 39.978C51.3309 39.878 50.5308 39.328 50.4808 39.328C49.951 38.8864 49.3431 38.7178 48.7261 38.5467C48.6445 38.5241 48.5627 38.5014 48.4808 38.478C48.0808 38.428 47.6309 38.778 47.6309 39.178C47.652 39.3051 47.7181 39.4233 47.7834 39.5401C47.8723 39.6988 47.9597 39.8551 47.9308 40.028ZM47.631 33.678C46.931 33.428 46.231 33.028 45.781 32.478C46.031 31.878 46.631 31.328 47.231 31.128C47.4922 31.0677 47.7534 31.1043 48.0114 31.1405C48.3953 31.1943 48.7721 31.2472 49.131 30.978C49.631 30.628 49.981 29.928 49.931 29.278C49.681 28.928 50.381 29.278 50.481 29.378C51.881 29.978 52.081 30.828 51.181 32.028C50.6475 32.5188 50.196 32.4814 49.7488 32.4444C49.148 32.3946 48.5549 32.3455 47.781 33.578C47.743 33.6919 47.7339 33.6905 47.6879 33.6832H47.6878C47.6733 33.6809 47.655 33.678 47.631 33.678ZM61.5309 29.278C62.3309 29.778 63.1809 30.278 64.1309 30.528C64.1453 30.528 64.1639 30.5291 64.185 30.5303C64.3101 30.5373 64.5237 30.5492 64.4809 30.378C64.7309 29.978 65.3309 29.828 65.7809 29.728C65.8948 29.6597 66.0502 29.6951 66.2046 29.7303C66.3891 29.7724 66.572 29.8141 66.6809 29.678C65.6309 28.178 63.6309 27.228 61.9309 26.778C61.4309 26.678 60.8309 26.828 60.3309 26.978C58.6537 27.4081 60.2315 28.43 61.1512 29.0256C61.3008 29.1225 61.433 29.2081 61.5309 29.278Z" fill="black"/>
</svg>
