<svg width="171" height="161" viewBox="0 0 171 161" fill="none" xmlns="http://www.w3.org/2000/svg">
<path fill-rule="evenodd" clip-rule="evenodd" d="M79.9038 5.33683C82.0538 5.83683 84.3038 5.98683 86.5038 6.08683C87.7037 6.08683 88.9036 5.93684 90.1035 5.78686L90.1038 5.78682C90.2038 5.78682 90.5038 5.78683 90.4038 5.58683C89.5538 4.63683 88.3038 3.83682 87.0538 3.53682C84.5038 3.88682 81.9038 3.88683 79.3538 3.48683C81.2038 2.78683 83.3538 2.28683 85.3038 2.83683C85.3779 2.86862 85.4566 2.90714 85.5383 2.94716L85.5384 2.9472C85.8423 3.09603 86.1886 3.26561 86.5038 3.18681C86.8038 2.93681 84.9038 1.73683 84.6038 1.58683C82.8038 0.486834 80.6538 -0.0131784 78.6038 0.386822C71.5038 1.38682 76.1038 4.03683 79.9038 5.33683ZM62.8539 44.7368L62.8076 44.7151C61.9609 44.3169 60.7993 43.7706 60.5538 42.8868C60.8538 40.6868 61.9039 38.6368 63.2039 36.8868C64.1456 35.6958 65.3942 34.9037 66.6437 34.1111C67.6498 33.4729 68.6564 32.8343 69.5038 31.9868C74.8374 27.3873 74.5204 20.6328 74.2232 14.3009L74.2039 13.8868C74.4068 12.3442 74.8735 10.8676 75.3362 9.40332C75.4434 9.06404 75.5504 8.72543 75.6539 8.38682C76.0225 8.34586 76.3911 8.57332 76.7048 8.76687C76.774 8.80959 76.8406 8.85066 76.9039 8.88682C76.9963 8.95079 77.0897 9.01375 77.1831 9.0767L77.1832 9.07674L77.1832 9.07679L77.1833 9.07683L77.1837 9.07708L77.1845 9.07765C77.7478 9.45723 78.311 9.83681 78.6539 10.4368C78.5088 11.1624 78.2949 11.888 78.0799 12.6171C77.7765 13.6466 77.471 14.6831 77.3539 15.7368C77.3675 16.1847 77.3831 16.633 77.3987 17.0811C77.6135 23.2374 77.8273 29.3625 72.6539 33.8368C71.2902 34.9357 70.1053 35.7191 69.0621 36.4088C66.1655 38.3238 64.3611 39.5168 62.8539 44.7368ZM34.0038 19.3868C31.6538 19.2368 29.2538 18.9868 27.2538 17.7368C27.174 17.6848 27.0862 17.6286 26.9927 17.5688C25.7378 16.7659 23.4357 15.2931 25.2038 14.0368C29.5538 11.4868 38.3538 7.8368 41.6538 13.0368C37.1038 11.7368 32.0539 14.1868 28.3539 16.6868C30.8085 17.1294 33.328 16.8272 35.7558 16.536C36.3446 16.4654 36.928 16.3954 37.5038 16.3368C38.7038 16.8368 40.0538 17.5368 40.7038 18.6368C38.6538 19.3368 36.2038 19.3868 34.0038 19.3868ZM32.1539 64.6368C30.3539 63.9368 28.2538 62.8368 27.2538 61.1368C27.9183 58.1324 29.4173 55.5118 30.9119 52.899C32.0041 50.9897 33.0939 49.0846 33.8539 47.0368C35.081 35.902 32.714 31.9553 27.8796 23.8941L27.8795 23.8939C27.3953 23.0866 26.8864 22.238 26.3539 21.3368C26.2754 21.1886 26.1756 21.0236 26.0747 20.8568C25.597 20.0669 25.0939 19.235 26.7039 19.9368C30.695 21.1754 32.5395 24.729 34.3227 28.1646L34.3229 28.165C34.4832 28.4738 34.643 28.7817 34.8038 29.0868C37.8038 33.8368 40.0538 38.9868 39.7538 44.7368L39.7621 44.9625C39.8608 47.6449 39.9642 50.4537 38.5538 52.8368C38.4164 53.0639 38.2787 53.2909 38.1411 53.5178L38.1395 53.5204L38.1379 53.523C35.9742 57.0903 33.8195 60.6428 32.5038 64.6368C32.4038 64.6701 32.2872 64.6701 32.1539 64.6368ZM60.3598 59.5166C60.9612 62.1468 61.4326 64.2083 65.7039 65.6868C66.4469 65.9214 65.6299 63.0972 65.167 61.4967C65.038 61.051 64.9365 60.7002 64.9039 60.5368C64.0516 57.2299 61.7349 54.8993 59.4119 52.5624C58.3278 51.4719 57.2424 50.3799 56.3038 49.1868C55.0558 47.3348 54.7802 45.0939 54.5114 42.9077C54.4464 42.3787 54.3818 41.853 54.3038 41.3368C53.1538 33.5868 50.7539 24.9368 44.4539 19.7868C42.4039 18.5368 40.3039 17.4868 42.9539 20.5368C46.3539 25.1368 48.2038 30.7368 49.0038 36.3368C49.1844 37.3145 49.2924 38.3104 49.4003 39.3039C49.6509 41.6128 49.9002 43.9092 51.0538 45.9368C52.0321 47.6487 53.4409 48.9898 54.8475 50.3287C56.3166 51.7271 57.7832 53.1232 58.7538 54.9368C59.6968 56.6169 60.046 58.1441 60.3598 59.5166ZM95.4039 46.4868C95.7539 49.9368 96.1039 50.6868 99.4539 52.0368C99.7897 52.1487 99.7357 51.8708 99.6867 51.6186C99.67 51.5329 99.6539 51.4502 99.6539 51.3868C99.2539 47.9368 98.3039 44.4868 96.7539 41.3368C95.7084 39.318 94.3705 37.4356 93.033 35.5538L93.033 35.5537C90.6605 32.2157 88.2893 28.8795 87.5539 24.7868C87.1687 22.0611 87.5736 19.3705 87.9778 16.6838V16.6837V16.6837V16.6836C88.2558 14.8362 88.5335 12.9907 88.5539 11.1368C88.8039 10.3868 86.5539 8.88681 86.0039 9.08681C85.8929 9.82927 85.7866 10.5349 85.6853 11.2065L85.6819 11.2286L85.6804 11.239C84.609 18.3434 84.111 21.6456 84.8377 24.6519C85.4689 27.2629 87.0239 29.6506 89.9295 34.1121C90.7579 35.384 91.6961 36.8245 92.7539 38.4868C94.0539 40.9868 94.9039 43.7368 95.4039 46.4868ZM104.454 71.7368C103.654 71.4368 102.504 70.9368 102.254 70.0368C102.254 67.7368 102.654 65.4368 103.254 63.1868C104.409 57.6427 108.243 53.7321 112.082 49.8163L112.082 49.8162L112.082 49.8162L112.082 49.8162L112.082 49.8161L112.083 49.8161L112.083 49.816L112.083 49.816L112.083 49.8159L112.083 49.8159C114.06 47.7989 116.039 45.7806 117.654 43.5368C122.354 38.4868 125.454 32.5368 126.104 25.5868C126.004 24.1868 130.954 27.6368 130.304 28.3868C129.804 35.1368 126.404 40.9368 121.654 45.6368C119.243 48.4903 116.917 50.664 114.793 52.6491C109.473 57.6207 105.419 61.4102 104.454 71.7368ZM145.884 72.3287L145.904 72.3368C146.648 72.2129 146.025 69.1182 145.702 67.5112L145.702 67.5109L145.702 67.5108L145.702 67.5096L145.702 67.5088C145.634 67.1723 145.58 66.9013 145.554 66.7368C144.69 62.8895 142.563 59.6278 140.454 56.3951C139.877 55.5107 139.302 54.6284 138.754 53.7368C136.231 48.573 138.898 43.2228 141.365 38.274L141.365 38.2739L141.365 38.2737L141.365 38.2734L141.365 38.273C142.027 36.9449 142.675 35.6457 143.204 34.3868C143.272 34.205 143.392 34.0232 143.512 33.8413C143.655 33.6232 143.799 33.405 143.854 33.1868C143.154 32.3368 142.004 31.4868 140.904 31.3868C140.265 32.8053 139.468 34.2658 138.652 35.7602C136.016 40.5868 133.186 45.7681 134.904 51.0368C135.539 52.4055 136.366 53.6668 137.191 54.9256C138.054 56.2419 138.915 57.5556 139.554 58.9868C141.204 62.1368 141.904 65.6868 141.954 69.2368C142.203 70.829 144.531 71.7775 145.884 72.3287ZM115.454 81.9868C108.098 81.5781 100.749 81.0104 93.4026 80.4428L93.4018 80.4428C81.8727 79.552 70.3476 78.6617 58.8039 78.3868C56.3152 78.2724 53.0174 78.2998 49.2634 78.331H49.2631H49.2628H49.2625H49.2622H49.2619H49.2616H49.2613C33.3302 78.4636 9.18547 78.6645 3.80387 68.3868C3.39112 66.0341 8.6344 62.7956 11.7145 60.8932C12.3655 60.491 12.92 60.1486 13.3039 59.8868C16.7039 57.8368 18.4039 58.0368 21.6039 60.3868C22.9404 61.2995 22.4705 61.3834 21.6768 61.5252C21.253 61.6009 20.7368 61.6931 20.3539 61.9368C16.3539 63.8868 12.3539 66.3368 9.15391 69.4868C7.65391 71.9868 10.2539 72.9868 12.3039 73.4368C15.9539 74.3368 19.7039 74.7868 23.4539 75.1868C30.959 75.8097 38.4835 75.6954 46.0153 75.581H46.0155H46.0156H46.0158H46.0159H46.016H46.0162H46.0163C50.577 75.5118 55.1405 75.4425 59.7039 75.5368C67.0154 75.828 74.327 76.3494 81.6385 76.8708L81.6392 76.8709C85.6274 77.1553 89.6157 77.4397 93.6039 77.6868C94.26 77.7339 94.916 77.7811 95.5721 77.8284L95.5726 77.8284C106.066 78.5841 116.56 79.3398 127.054 79.3868C136.504 79.5868 146.104 79.5368 155.204 76.5868C155.779 76.3474 156.562 76.108 157.427 75.8438L157.427 75.8438C160.174 75.0047 163.738 73.9163 164.004 71.7868C164.042 71.1373 163.584 70.9841 163.076 70.8141C162.919 70.7617 162.757 70.7076 162.604 70.6368C161.054 70.1868 159.554 69.4868 158.304 68.4368C158.204 68.3868 157.104 67.5368 157.654 67.4868C161.154 68.3368 173.754 73.1868 166.654 77.0868C152.897 83.4064 137.588 82.8138 122.696 82.2374L122.696 82.2374L122.695 82.2374L122.694 82.2374L122.694 82.2373L122.693 82.2373L122.692 82.2373L122.692 82.2373C120.265 82.1433 117.85 82.0499 115.454 81.9868ZM143.054 26.1368C138.204 25.3368 133.254 23.7368 129.404 20.6368C125.204 16.6368 134.004 16.7368 136.304 17.4868C137.054 17.6368 140.654 19.1868 140.304 19.9868C138.954 19.4868 137.604 19.0868 136.154 19.2368C134.804 19.2368 131.104 19.5368 132.304 21.6368C134.604 22.8368 138.604 24.2368 141.204 23.7868C142.104 23.7868 144.554 25.1368 144.754 25.9868C144.204 26.1368 143.604 26.1868 143.054 26.1368ZM95.9915 88.3255C98.9574 89.0969 101.926 89.8692 104.954 90.4368C104.973 90.4368 104.995 90.4387 105.017 90.4407L105.017 90.4407C105.107 90.4487 105.204 90.4574 105.204 90.3368C105.254 90.2368 105.054 89.9868 105.004 89.9368C103.345 87.8092 100.802 87.2421 98.2749 86.6786C97.2982 86.4607 96.3238 86.2435 95.4039 85.9368C84.8039 82.6868 73.7539 81.4368 62.7039 80.8868C56.5782 80.5552 50.4296 81.2207 44.288 81.8854C34.6887 82.9244 25.1062 83.9615 15.6539 81.1868C14.1539 80.7868 12.7039 80.2368 11.3539 79.4368C11.3039 79.3868 10.8539 79.1868 10.8539 79.3368C11.5831 80.5809 13.0484 81.236 14.3973 81.8391C14.6206 81.939 14.8408 82.0374 15.0538 82.1368C21.8038 84.4368 29.0039 85.2868 36.1539 85.1868C39.7285 85.0853 43.2866 84.7692 46.845 84.4531H46.8451H46.8452H46.8453H46.8455C52.0469 83.9911 57.2489 83.529 62.5038 83.7368C71.1538 83.9868 79.8539 84.9368 88.4039 86.4868C90.9534 87.0151 93.4713 87.67 95.9915 88.3255ZM57.0038 146.437C56.2038 146.487 49.9038 141.687 51.8038 141.187C56.4038 139.987 61.0538 138.437 64.7538 135.337C70.1538 131.487 70.7538 124.287 66.5038 119.387C62.701 116.054 57.4377 114.912 52.4924 113.839L52.4922 113.839L52.492 113.839L52.4918 113.839C51.6503 113.656 50.8181 113.476 50.0038 113.287C46.4535 112.581 42.838 112.249 39.223 111.917C33.878 111.427 28.5342 110.937 23.4039 109.237C12.0039 105.287 0.00384028 95.7868 0.25384 82.6368C0.257398 82.5692 0.261967 82.473 0.267676 82.3529L0.267684 82.3527L0.267689 82.3526L0.267689 82.3526C0.342235 80.7834 0.610839 75.1295 1.35388 75.6868C4.24534 77.079 4.10401 77.9105 3.82294 79.5642C3.71032 80.2267 3.57527 81.0213 3.60388 82.0368C3.05388 89.1368 5.90385 96.4368 11.2039 101.237C16.5039 105.687 23.7539 106.687 30.4539 107.187C41.5539 107.887 53.2039 108.887 62.9539 114.737C82.1539 126.487 78.8038 142.337 57.0038 146.437ZM104.204 134.687C106.804 143.637 116.104 147.687 124.454 149.637C125.104 149.837 124.754 149.037 124.504 148.887C122.435 146.14 119.245 145.175 116.062 144.211L116.062 144.211L116.062 144.211C114.784 143.824 113.507 143.438 112.304 142.937C110.998 141.438 110.394 139.237 109.858 137.284L109.804 137.087C108.854 133.587 110.704 130.237 112.604 127.387C116.454 121.187 121.654 116.087 127.704 112.087C131.925 109.199 136.382 106.57 140.847 103.936C151.613 97.585 162.42 91.2096 170.054 81.1368C169.732 80.4934 168.988 80.019 168.326 79.597C168.268 79.5599 168.21 79.5232 168.154 79.4868C168.004 79.3868 167.654 79.1868 167.504 79.3368C165.704 81.2368 163.821 83.0868 161.854 84.8868C157.104 89.1035 151.488 92.1776 145.915 95.2282L145.914 95.2283C145.21 95.6141 144.505 95.9995 143.804 96.3868C141.336 97.7401 138.799 99.0399 136.25 100.346C125.988 105.604 115.522 110.965 108.554 120.337C105.454 124.387 101.854 129.387 104.204 134.687ZM89.7538 160.087C77.5538 159.687 64.2539 158.987 54.1539 151.337C53.7038 151.037 52.1539 149.687 53.1039 149.837C59.0539 154.537 66.3039 156.137 73.8539 156.287C82.9072 156.838 91.8337 155.489 100.75 154.141C101.535 154.023 102.319 153.904 103.104 153.787C104.412 153.675 105.728 153.479 107.045 153.282H107.045L107.045 153.282C109.251 152.954 111.462 152.624 113.654 152.687C115.704 153.537 117.904 154.787 119.254 156.587C119.389 156.924 119.023 156.966 118.694 157.003C118.535 157.021 118.385 157.038 118.304 157.087C113.704 158.037 109.104 158.587 104.454 159.137C99.5538 159.687 94.6538 160.187 89.7538 160.087ZM97.9855 139.879C98.92 141.706 99.8972 143.616 101.954 144.287C102.45 144.535 101.714 143.166 101.073 141.972C100.68 141.241 100.323 140.577 100.304 140.387C97.2539 131.937 101.504 120.587 106.754 113.787C106.833 113.697 106.913 113.606 106.993 113.514C107.675 112.732 108.415 111.884 109.354 111.437C109.44 111.394 109.378 111.276 109.327 111.181C109.319 111.165 109.311 111.151 109.304 111.137C108.554 110.237 107.554 109.437 106.404 108.987C101.104 112.037 97.8039 120.887 96.5039 126.687C95.7039 130.837 95.6039 135.387 97.6539 139.237C97.765 139.448 97.8749 139.663 97.9855 139.879Z" fill="black"/>
</svg>
