<svg width="214" height="145" viewBox="0 0 214 145" fill="none" xmlns="http://www.w3.org/2000/svg">
<path fill-rule="evenodd" clip-rule="evenodd" d="M125.793 23.1236C118.143 21.7236 122.193 16.0736 127.393 14.8236C126.511 14.4818 125.121 14.1741 123.572 13.8313C118.097 12.6192 110.641 10.9684 116.643 5.8236C119.531 3.54127 123.113 2.3871 126.581 1.26971L126.583 1.26887C126.837 1.18706 127.09 1.10545 127.343 1.0236C131.593 -0.226398 136.143 0.923604 139.793 3.1736C145.543 6.7236 150.893 11.0736 154.893 16.5736C155.843 17.9736 156.793 19.3736 157.693 20.8236C157.477 21.4263 156.854 21.8066 156.334 22.1241L156.334 22.1246C156.25 22.1757 156.169 22.2251 156.093 22.2736C155.421 22.7333 154.999 22.0675 154.615 21.4614C154.456 21.2106 154.304 20.97 154.143 20.8236C153.093 19.3236 152.043 17.8736 150.793 16.5236C146.693 11.9236 141.743 8.1736 136.443 5.0236C130.893 1.4736 124.743 2.5236 119.043 5.2236C116.093 6.0236 116.893 8.4236 119.193 9.3736C121.273 10.3474 123.628 10.7432 125.975 11.1378C128.93 11.6346 131.874 12.1294 134.243 13.7736C133.443 15.3236 131.543 16.6236 129.793 16.8736C129.143 16.9736 128.443 16.9736 127.743 16.9736C126.543 16.9736 125.343 16.9736 124.443 17.4236C124.72 19.8175 127.815 20.2374 130.518 20.6042C131.711 20.766 132.827 20.9175 133.593 21.2236C134.012 21.3499 134.437 21.4736 134.865 21.5981L134.865 21.5984C137.656 22.4104 140.575 23.2597 142.743 25.1236C141.993 26.7236 140.243 27.8236 138.643 28.5236C134.843 25.9236 130.443 23.9736 125.793 23.1236ZM33.1429 41.1736C34.3802 40.0247 36.4859 38.8196 38.7246 37.5384C42.8189 35.1952 47.3581 32.5975 47.843 29.6236C46.8568 29.4443 45.7904 29.6266 44.7156 29.8104L44.7155 29.8104L44.7154 29.8104C44.5913 29.8316 44.4671 29.8529 44.343 29.8736L44.1304 29.9082C42.3553 30.1982 40.6335 30.4795 39.1429 29.3736C39.0033 29.2572 38.8338 29.1381 38.656 29.0131L38.6557 29.0129L38.6556 29.0129C38.0696 28.6011 37.3929 28.1256 37.3929 27.4736C39.9482 24.9639 42.8575 22.8394 45.7596 20.7202L45.7597 20.7201C49.2177 18.1949 52.6657 15.677 55.4929 12.5236C40.2929 16.4236 23.7429 24.2236 21.4429 41.6236C21.4429 41.7087 21.4349 41.7979 21.4268 41.8876C21.4063 42.1142 21.3855 42.3445 21.4929 42.5236C21.4929 42.5422 21.5068 42.5677 21.5216 42.595C21.5466 42.6411 21.5744 42.6922 21.543 42.7236C20.643 42.6736 19.7929 41.9236 19.1929 41.3236C18.1929 28.6236 29.7929 18.1736 40.9929 14.3236C41.6777 14.0728 42.3588 13.8183 43.0382 13.5644C45.8813 12.5021 48.697 11.45 51.6429 10.7236C54.3429 9.82356 56.8929 9.82356 58.6929 12.3736C60.1664 14.8785 52.7653 20.3959 47.7066 24.167C45.899 25.5145 44.3906 26.6391 43.6929 27.3236C43.287 27.5168 43.5536 27.5308 44.146 27.5618C45.086 27.6111 46.8467 27.7034 48.043 28.6236C53.463 31.4254 47.8699 35.3666 44.6758 37.6173C44.3929 37.8167 44.1289 38.0027 43.8929 38.1736C41.7637 39.5395 39.699 41.196 37.7248 42.7798L37.7247 42.7799L37.7242 42.7803L37.724 42.7805L37.7237 42.7807C37.2413 43.1678 36.7642 43.5505 36.293 43.9236C35.643 43.7236 32.2429 41.8236 33.1429 41.1736ZM119.843 46.1237C119.658 46.0416 119.473 45.9848 119.292 45.9291C119.032 45.849 118.779 45.7711 118.543 45.6237C117.322 46.2341 116.234 45.2573 115.36 44.4735C115.303 44.4226 115.248 44.3725 115.193 44.3237C114.493 43.7237 114.543 43.4237 115.393 43.1237C114.793 41.5237 117.093 42.8737 118.743 44.2737C119.843 45.1737 120.593 46.1237 119.893 46.1237H119.843ZM83.7429 46.5738C82.7429 46.8738 86.4929 49.2238 87.0429 49.2238C87.0763 49.2571 87.1096 49.2738 87.1429 49.2738C87.1762 49.2738 87.2263 49.2571 87.2929 49.2238C88.2388 48.5714 89.2698 47.9404 90.2887 47.3167L90.2893 47.3163L90.2897 47.3161L90.2899 47.316L90.2901 47.3159L90.2903 47.3157L90.2905 47.3156L90.2907 47.3155L90.2909 47.3154L90.2912 47.3152C90.8334 46.9834 91.3722 46.6536 91.8929 46.3238C94.1519 48.6279 96.2067 47.6254 98.537 46.4884C98.7857 46.3671 99.0374 46.2443 99.2929 46.1238C99.6929 45.9238 100.193 45.8238 100.593 46.1238C102.243 47.0238 104.143 47.5738 105.993 47.2738C106.232 47.2315 106.476 47.1972 106.719 47.163L106.719 47.163L106.719 47.163L106.719 47.163L106.72 47.1629L106.72 47.1629L106.72 47.1629L106.72 47.1629L106.72 47.1628L106.72 47.1628L106.72 47.1628L106.721 47.1628L106.721 47.1628L106.721 47.1627L106.721 47.1627L106.721 47.1627L106.721 47.1627L106.721 47.1626L106.721 47.1626L106.722 47.1626L106.722 47.1626L106.722 47.1625L106.722 47.1625L106.722 47.1625C107.34 47.0754 107.955 46.9889 108.493 46.7738C107.943 45.7738 106.793 45.1238 105.793 44.7238C105.404 44.7828 105.012 44.8584 104.618 44.9344C103.344 45.1804 102.054 45.4294 100.793 45.1238L100.537 45.0161C98.8238 44.2938 97.9886 43.9417 97.1592 43.9547C96.3708 43.9671 95.5875 44.3092 94.0598 44.9767L94.0593 44.9769C93.881 45.0547 93.6926 45.1371 93.4929 45.2238C92.5929 44.4238 91.5929 43.5738 90.3929 43.3738C89.1258 43.6642 87.9981 44.3447 86.8699 45.0256C85.8613 45.6344 84.8522 46.2433 83.7429 46.5738ZM78.2428 51.7237C77.5928 51.5237 73.9928 49.4237 75.2428 48.7737C75.9928 48.0737 77.5928 48.9737 78.6429 49.8737C79.5928 50.6737 80.1429 51.4737 79.0429 51.0237C78.966 51.0813 78.8817 51.1242 78.7986 51.1665C78.6654 51.2343 78.5352 51.3006 78.4428 51.4237C78.5428 51.5737 78.4929 51.7237 78.3429 51.7237H78.2428ZM67.7428 120.024C65.7428 119.024 63.7428 117.574 62.6928 115.524C62.6678 115.524 62.6178 115.511 62.5678 115.499C62.5178 115.486 62.4678 115.474 62.4428 115.474C58.5928 114.324 53.7929 112.224 52.3428 108.174C52.3713 107.149 53.0155 106.383 53.6666 105.61C54.1593 105.024 54.6559 104.434 54.8928 103.724C49.8428 103.624 34.4929 94.9736 43.2929 90.2236C43.3429 90.2236 43.8928 90.0736 43.8928 90.0236C43.634 89.8842 43.3593 89.7528 43.0813 89.6198C42.6614 89.4188 42.234 89.2143 41.8428 88.9736C32.5928 83.2736 36.2928 80.3236 44.4428 77.1236L44.3337 77.0482L44.1688 76.9347L44.1687 76.9347C42.9382 76.0886 41.6011 75.1691 41.0429 73.7736C40.6439 71.2876 43.6924 70.4029 46.5228 69.5816L46.5228 69.5816C48.3035 69.0648 49.9977 68.5732 50.6928 67.7236C50.8855 67.1777 50.5007 66.7556 50.1081 66.3247C49.8893 66.0847 49.6681 65.8419 49.5429 65.5736C47.0846 61.5536 49.4106 61.2306 52.0797 60.8599C54.025 60.5897 56.1526 60.2943 56.7428 58.5236C56.88 57.594 56.6223 56.4181 56.3761 55.2948C55.8146 52.7328 55.3131 50.4442 59.6928 51.9736C60.2416 52.1189 60.7904 52.2798 61.3408 52.4412L61.3409 52.4412L61.3409 52.4412L61.341 52.4412L61.3411 52.4412L61.3411 52.4412L61.3412 52.4412L61.3412 52.4412L61.3413 52.4412L61.3413 52.4413L61.3414 52.4413L61.3415 52.4413L61.3415 52.4413L61.3416 52.4413L61.3416 52.4413L61.3417 52.4413L61.3417 52.4413L61.3418 52.4413L61.3419 52.4414L61.3419 52.4414L61.342 52.4414L61.342 52.4414L61.3421 52.4414L61.3421 52.4414L61.3423 52.4415L61.3423 52.4415L61.3424 52.4415L61.3424 52.4415C62.4967 52.7799 63.6583 53.1206 64.8428 53.3236C66.3428 53.4736 67.8428 53.6236 68.8428 54.8236C69.8929 55.8236 66.1929 55.0736 65.7929 54.9736C64.9179 54.7736 64.0554 54.5486 63.1929 54.3236L63.1925 54.3235C62.3301 54.0986 61.4677 53.8736 60.5928 53.6736C59.1928 53.0736 58.3928 53.9736 58.5928 55.3736C58.6701 55.8912 58.77 56.4004 58.867 56.8944L58.867 56.8944L58.867 56.8945L58.867 56.8945L58.867 56.8946L58.867 56.8946L58.867 56.8947L58.8671 56.8948L58.8671 56.8948L58.8671 56.8949L58.8671 56.8949L58.8671 56.895L58.8671 56.895L58.8671 56.8951L58.8671 56.8952L58.8671 56.8952L58.8672 56.8953L58.8672 56.8953L58.8672 56.8954L58.8672 56.8954L58.8672 56.8955L58.8672 56.8956L58.8672 56.8956L58.8672 56.8957L58.8672 56.8957L58.8673 56.8958L58.8673 56.8958L58.8673 56.8959C59.3978 59.5989 59.8391 61.8473 55.9928 62.5236L55.8695 62.539C52.7103 62.9332 49.5756 63.3243 52.0928 67.2236C52.2187 67.4124 52.3644 67.5913 52.5096 67.7697C52.8259 68.1581 53.14 68.5439 53.2428 69.0236C53.0346 70.3073 51.6229 70.6521 50.2936 70.9768C49.7071 71.12 49.1367 71.2593 48.6928 71.4736C48.6055 71.5044 48.5103 71.5375 48.4086 71.5729C46.5316 72.2254 42.4276 73.6521 43.9928 76.0236C44.134 76.1322 44.4003 76.2834 44.7189 76.4641C45.8667 77.1154 47.693 78.1517 46.7929 78.9736C43.0429 80.4736 34.8428 84.5236 41.9428 88.0236C42.1724 88.1511 42.5639 88.3307 43.0335 88.5461C45.3254 89.5975 49.4776 91.5022 45.7428 92.3736C43.1928 93.5236 43.0428 97.1736 45.2428 98.8236C47.4675 100.35 50.1869 100.926 52.8035 101.479L52.8036 101.479C53.1862 101.56 53.5665 101.641 53.9428 101.724C59.0678 103.853 58.1458 105.407 56.9708 107.388C56.3804 108.383 55.7261 109.486 55.7428 110.824C55.747 110.84 55.7513 110.858 55.7556 110.876C55.8027 111.072 55.8639 111.328 56.0928 111.374C57.2791 112.022 58.6303 112.348 59.9731 112.672C62.2527 113.222 64.5084 113.765 65.8928 115.874C66.013 116.094 65.9165 116.395 65.8251 116.679C65.6885 117.105 65.5636 117.494 66.1928 117.524C70.2326 118.322 74.3222 117.03 78.1141 115.833L78.1428 115.824C79.0928 115.724 83.0428 119.024 81.4928 119.224C78.6428 120.024 75.5429 120.874 72.5429 120.874C70.8929 120.874 69.2928 120.624 67.7428 120.024ZM100.381 113.99C99.8289 114.084 99.2705 114.179 98.8428 114.424C99.3928 115.724 100.693 116.824 101.943 117.424C103.727 117.05 105.495 116.565 107.266 116.078C109.763 115.392 112.269 114.704 114.843 114.324C115.11 114.214 115.569 114.168 116.069 114.118C117.161 114.009 118.446 113.881 118.343 113.024C117.943 112.324 118.743 112.324 119.343 112.324H119.743L119.881 112.324L120.161 112.324C120.322 112.325 120.482 112.325 120.643 112.326C122.454 112.332 124.292 112.338 126.093 112.124C126.287 112.095 126.503 112.068 126.734 112.039L126.735 112.039L126.735 112.039C128.535 111.813 131.243 111.473 131.243 109.524C131.951 109.353 132.665 109.194 133.381 109.035L133.382 109.035C136.658 108.306 139.961 107.57 142.793 105.724C143.905 105.183 144.403 104.207 144.906 103.222C145.239 102.569 145.575 101.912 146.093 101.374C152.343 95.2738 154.193 92.1237 151.143 83.4738C151.288 81.9106 152.293 80.6183 153.31 79.3088C155.093 77.0159 156.916 74.6699 154.243 70.7238C151.293 67.3238 150.743 65.8738 153.743 62.1238C153.861 61.9549 153.993 61.7803 154.13 61.6003C154.802 60.7142 155.575 59.6958 155.243 58.5737C154.65 57.4801 153.56 56.8433 152.538 56.247L152.537 56.2465C152.469 56.2068 152.402 56.1674 152.335 56.128L152.243 56.0737C152.143 55.8738 152.143 55.5739 152.143 55.3739V55.3738C152.175 54.8642 152.333 54.3293 152.493 53.7917C152.834 52.6411 153.179 51.4779 152.293 50.5238C150.471 48.1965 147.626 48.0079 144.862 47.8247C143.529 47.7363 142.214 47.6492 141.043 47.3237L141.05 47.2925C141.544 45.07 141.633 44.667 139.593 43.2238C138.443 42.2738 135.543 42.7238 132.843 43.2238C132.52 43.2727 132.2 43.3236 131.888 43.3734L131.887 43.3736L131.887 43.3736C130.604 43.578 129.437 43.764 128.593 43.7238C128.483 43.7971 128.184 43.7897 127.816 43.7806C127.682 43.7773 127.539 43.7738 127.393 43.7738C126.743 43.7238 126.043 43.7238 126.143 43.9237C126.643 44.7238 127.443 45.2738 128.243 45.7238C130.343 46.0468 132.485 45.7645 134.614 45.4838C135.78 45.3301 136.943 45.1768 138.093 45.1238C138.193 45.0904 138.209 45.1238 138.143 45.2238C138.043 45.9738 138.493 46.5737 138.993 47.0737C141.295 49.7804 144.773 49.9738 148.107 50.1592C148.9 50.2033 149.684 50.2469 150.443 50.3237C150.378 50.6267 150.315 50.9098 150.257 51.1754C149.502 54.5924 149.388 55.1041 153.193 57.4237C153.22 58.8277 152.232 59.9134 151.23 61.0146C150.412 61.9135 149.585 62.8227 149.293 63.9238C148.98 65.7459 150.118 67.0667 151.274 68.4081C152.338 69.6432 153.417 70.8959 153.393 72.5738C153.562 74.9187 152.183 76.5294 150.915 78.01C149.94 79.1497 149.03 80.2124 148.943 81.4738C149.109 82.082 149.305 82.6826 149.501 83.283L149.502 83.2836C150.016 84.8545 150.529 86.4237 150.493 88.1237C150.78 92.3464 147.772 95.2917 144.944 98.0622L144.944 98.0622C144.322 98.6706 143.71 99.2706 143.143 99.8737C142.643 100.324 142.493 100.924 142.343 101.524C140.679 104.019 137.436 104.886 134.674 105.625L134.493 105.674C132.693 106.074 130.843 106.374 128.993 106.624C128.743 106.624 128.343 106.674 128.243 106.924C128.815 108.332 126.597 108.772 125.308 109.028C125.132 109.063 124.974 109.094 124.843 109.124C122.543 109.474 120.193 109.474 117.843 109.474H117.343C116.293 109.474 114.743 109.474 115.593 110.824C115.328 111.287 114.299 111.378 113.386 111.459H113.386H113.386C112.918 111.5 112.481 111.539 112.193 111.624C109.842 111.946 107.534 112.454 105.226 112.962L105.226 112.963C103.95 113.244 102.675 113.525 101.393 113.774C101.082 113.871 100.733 113.93 100.381 113.99ZM154.543 44.7238C154.293 45.7738 156.543 47.0738 157.393 47.4738H157.443C157.603 47.4738 157.66 47.3102 157.72 47.14C157.754 47.044 157.789 46.9459 157.843 46.8738C158.238 45.8667 158.684 44.8708 159.131 43.874C160.326 41.208 161.525 38.5351 161.743 35.6238C161.693 28.9238 153.343 28.3738 148.393 29.7238C145.193 30.0738 144.393 33.4738 144.593 36.2238C144.743 36.8738 146.693 38.6238 147.293 38.3238C146.893 36.6238 147.393 34.2738 148.693 33.0238C151.593 31.2738 155.493 31.2738 158.793 31.6738C159.461 34.8463 157.965 37.6842 156.481 40.5005C155.743 41.9008 155.008 43.2957 154.543 44.7238ZM188.143 79.5738C191.593 79.6237 195.093 79.8737 198.343 81.1738C199.974 81.657 201.516 82.4566 203.057 83.2556C205.342 84.4406 207.624 85.6244 210.193 85.7738C211.343 85.7238 212.393 85.1738 213.193 84.3738C214.327 83.6291 212.696 82.2557 211.419 81.181C210.895 80.7404 210.432 80.35 210.243 80.0738C204.893 75.1237 199.293 69.9738 192.093 67.9738C188.066 66.4938 183.921 67.0039 179.771 67.5145L179.771 67.5145C177.892 67.7457 176.013 67.977 174.143 68.0238C173.932 68.0238 173.72 68.0239 173.509 68.0242L172.867 68.0253C169.882 68.0308 166.868 68.0363 163.893 67.7738C162.993 67.6238 160.043 69.8737 160.043 70.7238C161.893 70.6738 163.743 70.6738 165.593 70.6738C166.993 70.7237 168.443 70.7237 169.893 70.6738C172.115 70.6738 174.319 70.3688 176.515 70.0648C177.876 69.8765 179.235 69.6885 180.593 69.5738C183 69.3037 185.332 69.4472 187.586 69.9091C186.824 70.2693 186.039 70.8188 185.643 71.5237C187.293 73.1737 188.293 75.3737 187.943 77.7237C187.943 77.7537 187.941 77.7856 187.939 77.8176C187.937 77.8414 187.936 77.8651 187.935 77.8881C187.118 77.8587 186.303 77.825 185.493 77.7738C183.253 77.6338 181.013 77.57 178.773 77.5062C176.213 77.4333 173.653 77.3604 171.093 77.1738C170.493 77.1738 169.893 77.1238 169.243 77.0238L169.112 77.0057C167.703 76.8101 166.26 76.6097 165.193 77.7738C164.943 77.9738 164.043 78.7238 164.593 78.7738C169.672 79.3924 174.793 79.4173 179.916 79.4423C182.66 79.4557 185.404 79.4691 188.143 79.5738ZM188.548 77.9095L188.742 77.9162L188.743 77.9162L188.743 77.9162C192.448 78.0432 196.175 78.1708 199.693 79.5238C201.485 80.0885 203.169 80.9305 204.851 81.7716C206.594 82.6433 208.335 83.5139 210.193 84.0738C209.851 83.6757 209.171 83.1159 208.472 82.5415L208.472 82.5413L208.472 82.5412L208.471 82.5406L208.471 82.5404L208.47 82.5398C207.941 82.1047 207.402 81.6614 206.993 81.2738C201.64 76.4751 195.389 71.7581 188.358 70.0804C188.474 70.2138 188.578 70.3746 188.68 70.5339C188.782 70.6915 188.882 70.8475 188.993 70.9737C190.563 73.0677 191.364 76.702 188.548 77.9095ZM194.643 109.374C192.019 108.595 189.464 107.589 186.912 106.585C183.727 105.331 180.546 104.079 177.243 103.274C174.893 102.774 172.493 102.774 170.193 103.274C169.848 103.333 169.501 103.404 169.153 103.475C167.737 103.764 166.308 104.055 164.943 103.574C163.643 103.074 162.393 102.424 161.243 101.674C160.993 101.024 162.643 99.9738 163.243 99.6238C163.912 99.8181 164.563 100.208 165.232 100.609C166.111 101.136 167.02 101.682 168.043 101.824C169.74 101.696 171.121 101.536 172.323 101.396C176.671 100.892 178.69 100.658 184.935 103.178C184.947 101.404 184.427 99.425 183.343 98.1237C183.543 97.2737 186.643 94.7237 187.343 95.2737C189 97.9715 189.35 101.887 187.34 104.159C193.187 106.5 199.155 108.512 205.243 110.124C206.393 110.624 203.843 106.674 203.343 106.274C193.158 94.7057 181.068 92.9804 172.11 91.7021C165.852 90.8091 161.123 90.1343 159.643 86.4738C159.693 85.8238 161.143 84.6238 161.793 84.6238C161.843 85.0738 162.093 85.5738 162.393 85.9738C164.65 88.5783 170.356 89.1327 175.307 89.6137C177.484 89.8252 179.516 90.0225 181.043 90.3738C186.493 91.1238 191.843 92.8738 196.493 95.8238C200.593 98.4738 214.743 108.874 204.793 112.224C202.757 111.958 200.773 111.292 198.79 110.626L198.79 110.626C197.413 110.164 196.036 109.702 194.643 109.374ZM159.933 123.039C163.374 124.273 166.823 125.511 169.943 127.424C170.434 127.64 171.011 128.135 171.618 128.655C172.554 129.458 173.563 130.324 174.443 130.324C174.676 130.324 174.909 130.257 175.143 130.124C180.793 127.624 171.293 118.424 168.393 116.574C164.743 114.374 155.493 108.824 152.493 113.874C152.419 114.133 152.674 114.036 152.852 113.968C152.914 113.944 152.967 113.924 152.993 113.924C155.287 113.968 157.602 114.468 159.832 115.318L159.843 115.324L159.843 115.323C160.095 115.419 160.346 115.519 160.595 115.624C159.373 116.654 158.481 118.089 157.843 119.524C157.803 119.61 157.78 119.693 157.773 119.772C157.383 119.594 156.99 119.419 156.594 119.249C156.371 119.14 156.136 119.043 155.889 118.956C153.823 118.123 151.675 117.485 149.443 117.374C147.443 117.274 145.643 116.474 143.893 115.624C143.043 115.724 142.293 116.524 141.793 117.224C143.569 118.651 145.821 118.924 148.093 119.2C149.721 119.398 151.36 119.597 152.843 120.224C155.126 121.314 157.528 122.176 159.933 123.039ZM173.043 126.124C170.952 122.783 167.82 119.716 164.212 117.492C162.824 118.338 161.534 119.332 160.293 120.424C160.24 120.468 160.185 120.517 160.129 120.567C160.089 120.603 160.048 120.639 160.007 120.675C161.086 121.084 162.206 121.481 163.331 121.88C166.877 123.137 170.478 124.414 173.043 126.124ZM0.242815 116.624C0.692815 113.074 2.09285 109.824 3.84285 106.724C4.4222 105.644 4.95994 104.53 5.49899 103.413L5.49902 103.413L5.4991 103.412C7.00696 100.288 8.52507 97.1415 10.9928 94.6737C15.2428 90.3737 19.9428 86.4237 25.7428 84.4237C26.5125 84.1402 27.3479 84.8741 28.0095 85.4554C28.1645 85.5916 28.31 85.7194 28.4428 85.8237C29.1274 86.3372 28.4763 86.4757 27.853 86.6083L27.853 86.6083C27.5659 86.6693 27.2847 86.7291 27.1428 86.8237C22.514 88.5658 18.7275 91.8437 15.0928 95.0793C17.2327 95.9167 17.9442 98.1529 18.6197 100.276C18.6573 100.394 18.6947 100.512 18.7323 100.629C20.8309 98.7405 23.1638 97.1541 25.8928 96.2737C26.3698 96.1783 26.8988 96.0124 27.4495 95.8396L27.4496 95.8396C28.9191 95.3785 30.5426 94.8691 31.7428 95.5237C31.7709 95.5425 31.8052 95.5647 31.844 95.5899C32.2196 95.8339 33.0241 96.3565 32.8428 96.6737C30.3928 97.0237 27.9428 97.5737 25.7428 98.6737C23.4106 99.7621 21.4411 101.374 19.6322 103.176C19.8132 103.63 19.958 104.074 19.6427 104.074H19.5428C19.3588 103.996 19.1762 103.913 18.9959 103.824C18.0344 104.822 17.1131 105.865 16.1999 106.899L16.1998 106.899C15.7468 107.412 15.2958 107.922 14.8429 108.424C12.0929 111.474 9.24296 114.324 6.34302 117.224L6.34296 117.224L6.34285 117.224C5.88068 117.597 5.4501 118.065 5.01293 118.54C4.22043 119.402 3.40625 120.287 2.34285 120.674C0.542852 120.124 -0.457185 118.474 0.242815 116.624ZM10.3429 100.424C11.5522 98.4887 13.1361 96.8345 14.8679 95.28C14.7868 95.773 14.9335 96.5235 15.0761 97.2537C15.1856 97.8143 15.2928 98.3629 15.2928 98.7737C15.2642 100.231 15.9213 101.443 16.9095 102.392C16.1103 103.215 15.3417 104.068 14.5929 104.924C11.0429 109.124 7.19281 113.124 3.24282 116.924C3.21115 116.955 3.17948 116.992 3.14622 117.031C3.07447 117.114 2.99533 117.205 2.89284 117.274C2.89284 117.097 2.94478 116.834 2.99773 116.566C3.03476 116.378 3.07227 116.188 3.09285 116.024C4.01276 111.903 6.09708 108.16 8.17004 104.439L8.17012 104.439C8.91393 103.103 9.65628 101.77 10.3429 100.424ZM31.8845 110.38C28.0993 116.015 24.0775 122.002 23.7928 129.024C23.771 129.379 23.7426 129.735 23.7143 130.091C23.4833 132.992 23.2577 135.827 26.6428 137.074C29.0105 136.964 31.436 133.875 34.3743 130.132C35.5752 128.602 36.8618 126.963 38.2652 125.374H38.2928C38.4484 125.374 38.5102 125.267 38.5109 125.097C41.4517 121.812 44.903 118.781 49.1428 117.424C49.4428 117.374 49.4428 117.224 49.2428 117.024L49.1773 116.952L49.1362 116.907L49.1347 116.905C48.5907 116.307 47.8387 115.48 47.0428 115.574C44.0928 116.574 41.3928 118.274 39.0428 120.324C38.4484 120.821 37.8864 121.349 37.3484 121.901C37.279 121.721 37.2094 121.539 37.1392 121.356C36.1923 118.885 35.1356 116.126 33.1493 114.516C35.1083 111.536 37.266 108.679 39.5928 105.974C39.6787 105.888 39.7576 105.811 39.8293 105.74L39.8301 105.74L39.8307 105.739C40.1619 105.415 40.34 105.24 40.3433 105.063C40.347 104.856 40.1138 104.645 39.6093 104.189L39.5928 104.174C39.4497 104.083 39.2929 103.947 39.1271 103.804C38.6557 103.398 38.1106 102.928 37.5928 103.224C35.7813 104.942 34.3149 106.963 32.833 109.005L32.8329 109.005C32.7197 109.161 32.6064 109.318 32.4928 109.474C32.2917 109.774 32.0894 110.075 31.8863 110.378L31.8845 110.38ZM32.5993 115.364C31.3995 117.24 30.2782 119.162 29.2428 121.124C26.8928 125.174 26.2928 129.874 26.2928 134.474C29.0089 132.443 31.0435 129.759 33.0788 127.074L33.0789 127.074L33.0791 127.074L33.0792 127.074L33.0794 127.074L33.0795 127.073L33.0797 127.073L33.0798 127.073L33.08 127.073C33.9534 125.921 34.827 124.768 35.7547 123.667C34.8699 122.861 34.139 121.9 33.8428 120.824C33.7292 118.968 33.2712 117.111 32.5993 115.364ZM57.1929 144.824C53.2062 143.185 54.3997 138.642 55.3149 135.158L55.315 135.158C55.4328 134.709 55.546 134.279 55.6429 133.874C55.8211 133.339 55.9967 132.8 56.1729 132.259L56.1734 132.258L56.1756 132.251L56.1763 132.249C56.3772 131.632 56.579 131.013 56.7863 130.394C56.7704 130.326 56.7856 130.274 56.8374 130.242C57.8119 127.351 58.9174 124.489 60.6429 122.024C62.4343 122.824 62.279 123.102 61.7717 124.008C61.6136 124.29 61.4212 124.634 61.2429 125.074C60.4204 126.856 59.6814 128.68 59.0355 130.536C59.3495 130.674 59.7475 130.883 60.2427 131.174C61.0938 131.695 61.8996 132.307 62.6437 132.993C62.8631 133.156 63.1002 133.335 63.3421 133.524L63.3496 133.509C63.3641 133.481 63.3785 133.452 63.3928 133.424L63.401 133.432C66.1763 128.596 69.0649 124.549 77.3429 123.574C78.0429 123.424 79.5429 124.574 79.6429 125.174C79.4929 125.224 79.3429 125.249 79.1929 125.274C79.0429 125.299 78.8929 125.324 78.7429 125.374C74.2429 125.924 70.1429 128.024 67.5929 131.874C66.8807 132.599 66.1504 133.878 65.3807 135.359L65.3927 135.374C65.3824 135.384 65.3725 135.395 65.363 135.406C65.3568 135.413 65.3507 135.421 65.3448 135.428L65.2988 135.517L65.204 135.701L65.1427 135.824L65.0428 136.024L65.0289 136.047L65.0157 136.07L64.9507 136.197L64.8576 136.381C64.8356 136.428 64.814 136.476 64.7928 136.524L64.7773 136.539L64.6296 136.831C62.7158 140.614 60.5355 144.924 57.7929 144.924C57.5929 144.924 57.3929 144.89 57.1929 144.824ZM59.6987 132.813C59.8662 132.978 60.0332 133.134 60.1927 133.274C60.8978 133.979 61.7583 134.412 62.6372 134.779C61.2463 137.244 59.7641 139.852 57.5429 142.324C55.8138 144.473 56.8365 138.936 57.1 137.509L57.1277 137.358L57.1429 137.274C57.5203 135.513 57.9856 133.769 58.5314 132.05C58.9141 132.325 59.3184 132.59 59.6987 132.813ZM79.6429 94.6736C79.5591 94.6178 79.4685 94.5619 79.3757 94.5048C78.97 94.255 78.5243 93.9805 78.4429 93.5736C79.4289 93.2723 80.31 92.6409 81.1928 92.0081L81.1929 92.0081C81.9216 91.4858 82.6516 90.9627 83.4429 90.6236C86.5429 88.9236 88.2929 89.3736 89.5929 89.7736C89.6735 89.7981 89.7524 89.8226 89.8297 89.8467L89.8299 89.8468C90.8566 90.166 91.62 90.4035 92.6429 89.4736C95.3429 87.3236 98.9429 87.2736 102.093 88.3736C103.343 88.3736 104.543 87.8736 105.743 87.3736L105.743 87.3736L105.947 87.2967C107.085 86.8685 108.267 86.4236 109.493 86.4236C112.543 86.1236 115.593 86.2236 118.643 86.8236C119.443 86.8736 120.093 87.4236 120.643 88.0236C121.061 88.5559 120.612 88.4232 120.219 88.3071L120.219 88.3071C120.095 88.2705 119.977 88.2356 119.893 88.2236C115.293 87.2736 110.193 87.2236 105.843 89.2736C104.557 89.8926 103.271 89.6047 101.986 89.3167L101.793 89.2736C100.693 88.9736 99.5929 88.7236 98.4929 88.9236C97.0391 88.9505 95.8753 89.7022 94.8218 90.3825C93.9187 90.9658 93.0968 91.4967 92.2429 91.4736C91.4429 91.1236 90.5929 90.7736 89.7429 90.7736C87.3429 90.7736 85.1929 91.9236 83.2429 93.1236C82.8721 93.2904 82.5013 93.5604 82.1254 93.8341C81.4876 94.2985 80.835 94.7736 80.1429 94.7736C79.9762 94.7736 79.8095 94.7402 79.6429 94.6736ZM81.0428 79.5236C79.9428 79.9236 78.8428 80.5736 78.0928 81.5736C78.3428 81.9736 78.8427 82.2736 79.2427 82.4736C81.4496 80.0215 85.0033 80.0226 88.111 80.0236L88.2928 80.0236C88.6946 79.9901 89.1188 80.0015 89.5355 80.0126C89.7409 80.0182 89.9446 80.0236 90.1428 80.0236C91.8428 80.1236 93.5928 80.2236 94.9427 79.0736C96.4164 77.3355 98.404 77.5391 100.388 77.7423C101.029 77.808 101.67 77.8736 102.293 77.8736C103.901 77.6136 105.236 77.116 106.489 76.6485L106.489 76.6484C109.092 75.6773 111.348 74.8361 114.993 76.5236L115.113 76.5604C116.86 77.0948 118.29 77.5322 115.993 75.7236C115.332 75.3104 114.564 75.1552 113.791 74.9988L113.791 74.9988L113.791 74.9988C113.161 74.8713 112.527 74.743 111.943 74.4736C109.096 73.3269 106.405 74.4316 103.772 75.5127L103.772 75.5128L103.771 75.5133C103.075 75.7991 102.383 76.0832 101.693 76.3236C100.78 76.5409 99.8671 76.4937 98.9215 76.4449H98.9214C98.7793 76.4375 98.6364 76.4301 98.4927 76.4236C96.7927 76.2736 95.0928 76.1236 93.6927 77.4736C92.3428 78.7236 90.5428 78.9236 88.7928 78.7736C88.5039 78.7792 88.2144 78.7835 87.9245 78.7878L87.9228 78.7878L87.921 78.7879C85.6034 78.8224 83.2639 78.8573 81.0428 79.5236ZM77.6929 67.6238C82.0311 63.6346 85.3747 63.6735 89.6579 63.7234L89.6929 63.7238C90.0111 63.7238 90.3354 63.7268 90.6663 63.7299H90.6665C91.6874 63.7393 92.7724 63.7493 93.9429 63.6738C95.0934 63.414 96.12 62.7341 97.1325 62.0635C98.8481 60.9272 100.523 59.8176 102.693 60.8238C104.993 61.5238 107.443 61.1738 109.793 60.7738C112.393 60.3238 114.993 60.1738 117.593 60.0738C118.543 59.9238 119.343 60.7238 119.943 61.3238C120.093 61.3738 120.343 61.6738 120.143 61.7238C118.476 61.8238 116.793 61.9405 115.093 62.0738C114.06 62.1291 113.02 62.2729 111.976 62.4174C110.19 62.6644 108.391 62.9131 106.593 62.7238C105.935 62.6839 105.285 62.485 104.633 62.2856C103.651 61.985 102.665 61.6833 101.643 61.9238C100.814 62.2876 100.067 62.8148 99.3228 63.3402C98.2254 64.1147 97.1334 64.8855 95.7929 65.1238C94.0429 65.1738 92.5429 65.1738 91.2429 65.1238L91.0853 65.1208C85.9442 65.0223 83.5315 64.9761 77.4929 70.1238C75.7274 69.2411 76.0241 69.0065 76.8454 68.3571C77.094 68.1605 77.3907 67.9259 77.6929 67.6238ZM24.8246 62.3654C27.6243 66.0677 30.4924 69.8603 34.9927 71.2736H35.1427C35.4427 71.2736 35.1927 70.8236 35.0427 70.7236C34.0427 69.3736 32.6427 68.3736 31.0427 67.8236C30.5697 67.5398 30.2359 67.0572 29.9034 66.5763C29.7086 66.2947 29.5143 66.0137 29.2927 65.7736C28.2927 64.507 27.2927 63.257 26.2927 62.0236C26.1277 61.7899 25.9363 61.5638 25.7434 61.3359C25.2346 60.7348 24.7152 60.1212 24.6427 59.3236C24.8866 58.0226 26.0563 57.1183 27.1301 56.2881C27.3768 56.0973 27.6185 55.9105 27.8427 55.7236C29.5427 54.3736 31.4927 53.3236 33.6427 53.1236C33.7428 53.1145 33.8629 53.0988 33.9943 53.0816C34.5849 53.0041 35.4064 52.8965 35.6927 53.2236C36.3639 53.9146 36.965 54.668 37.5668 55.4222C38.489 56.578 39.4127 57.7357 40.5927 58.6736C40.8927 58.9736 42.2927 59.7236 41.5427 58.7236C41.1271 58.1696 40.7063 57.5761 40.2739 56.9665C37.7408 53.395 34.8126 49.2663 30.2427 49.2236C27.3927 49.2236 24.8927 50.8736 22.9427 52.8236C20.9927 54.6736 19.8427 56.3236 21.8927 58.6736C22.9045 59.8263 23.8605 61.0905 24.8246 62.3654Z" fill="black"/>
</svg>
