<svg width="131" height="122" viewBox="0 0 131 122" fill="none" xmlns="http://www.w3.org/2000/svg">
<path fill-rule="evenodd" clip-rule="evenodd" d="M63.55 5.11595C62.75 6.91595 63.25 9.01596 65.2001 9.66596C65.2334 9.69929 65.2667 9.71596 65.3 9.71596C65.4 9.71596 65.3 9.51596 65.25 9.41596C64.2875 7.71731 64.96 6.4675 65.6156 5.24902C66.1179 4.31552 66.6103 3.40042 66.3501 2.31596C67.4501 3.31596 67.9001 4.86595 67.9001 6.36595C67.8501 6.86576 67.7001 7.36557 67.5502 7.86538L67.55 7.86595C67.5 7.96595 67.5 8.01595 67.55 8.11595C67.9 8.51595 68.3501 8.91596 68.9001 9.06596C68.9597 9.06596 68.966 8.99471 68.972 8.92663C68.976 8.88065 68.9799 8.83611 69 8.81596C69.85 5.36596 67.7501 2.51596 64.9501 0.815957C64.6105 0.66503 64.6695 0.798838 64.7404 0.959537L64.7404 0.959551L64.7405 0.959773C64.7635 1.01195 64.7878 1.06695 64.8 1.11595C65.0538 2.20367 64.5452 3.15993 64.0557 4.08006C63.8702 4.42882 63.6875 4.77239 63.55 5.11595ZM64.3078 26.2003C64.3265 27.2111 64.3372 27.7885 65.7999 28.3659H65.8499C65.9263 28.3659 65.9152 28.2492 65.9056 28.1495C65.9027 28.1187 65.8999 28.0895 65.8999 28.0659C65.9644 26.7111 65.8416 25.3771 65.7195 24.0505L65.7195 24.0503C65.6523 23.3207 65.5854 22.5933 65.5499 21.8659C65.4165 20.0326 65.3721 18.1993 65.3277 16.366C65.3054 15.4493 65.2832 14.5326 65.2499 13.6159C64.8999 13.0159 64.1999 12.6159 63.5499 12.3159C63.4999 12.3159 63.4499 12.3159 63.3999 12.3659C63.4249 12.9409 63.4499 13.5283 63.4749 14.1158V14.1159V14.116C63.4999 14.7035 63.5249 15.291 63.5499 15.8659C63.6499 18.9659 63.8999 22.0659 64.2499 25.1659C64.2959 25.5572 64.3022 25.8981 64.3078 26.2003ZM21.7875 89.5484C22.6279 89.5637 23.4539 89.5788 24.25 89.616H24.35C24.9 89.616 24.25 88.916 24.05 88.716C23.1 87.766 22 86.816 20.55 86.966C19.7768 86.9117 19.0037 86.8685 18.2315 86.8254L18.231 86.8253L18.2307 86.8253C16.1568 86.7094 14.0901 86.5939 12.05 86.266C11.8894 86.2258 11.89 86.2179 11.8965 86.1387C11.8981 86.1192 11.9 86.0955 11.9 86.066C11.75 83.466 11.55 80.916 11.1 78.366C10.7461 76.1375 10.4025 73.9021 10.0583 71.6635L10.0583 71.6634C9.08987 65.3634 8.11743 59.0375 6.90002 52.766C6.62717 51.3299 6.3337 49.8939 6.03974 48.4554C5.31021 44.8856 4.5777 41.3012 4.15002 37.666C4.124 37.2757 4.08143 36.923 4.04293 36.604C3.85947 35.0841 3.76836 34.3293 6 33.916C7.41909 33.4873 8.88188 33.0586 10.3535 32.6274C13.8595 31.5999 17.4156 30.5577 20.55 29.466C21.6604 32.114 22.8844 34.7295 24.1018 37.3311C25.0222 39.2981 25.9389 41.257 26.8 43.216C27.05 43.666 30.9 46.866 30.35 45.216C29.7256 43.5509 28.9421 41.9566 28.1571 40.3593C27.6221 39.2707 27.0864 38.1806 26.6 37.066C26.0463 35.9971 25.5787 34.8121 25.1052 33.6118C23.7402 30.152 22.3251 26.5652 18.65 25.266C14.1 27.016 9.45001 28.766 4.70001 30.116C4.31608 30.331 3.79536 30.4752 3.2581 30.6241C2.04614 30.9598 0.75 31.3189 0.75 32.566C0.867224 35.9264 1.5341 39.1952 2.20177 42.4679C2.38845 43.3829 2.57519 44.2983 2.75 45.216C4.55 53.816 5.95002 62.466 7.15002 71.166C7.59907 73.4611 7.79918 75.7936 7.99876 78.12C8.19919 80.4562 8.39909 82.7862 8.85004 85.066C11.7015 89.3645 16.9802 89.4608 21.7875 89.5484ZM113.7 82.9659C115.113 82.3136 116.508 81.6235 117.904 80.9326C119.718 80.0347 121.535 79.1354 123.4 78.3159C125.6 77.4659 125.65 77.0159 125.4 74.7659C125.36 73.6935 125.305 72.6246 125.251 71.5574L125.251 71.556C125.102 68.6433 124.954 65.743 125.1 62.8159C124.664 56.7066 125.257 50.6556 125.851 44.6024C126.209 40.9455 126.568 37.2878 126.7 33.6159C125.317 33.4072 124.098 32.7903 122.872 32.1698C121.748 31.6009 120.617 31.029 119.35 30.7659C117.802 30.336 116.205 30.0375 114.606 29.7386C113.415 29.5161 112.224 29.2933 111.05 29.0159C110.378 28.9199 109.691 28.7133 109.004 28.5066C107.901 28.1749 106.797 27.8427 105.75 27.9659C106.15 33.3659 106.1 38.8659 105.7 44.2659C105.293 44.4141 104.913 43.9862 104.58 43.6121L104.58 43.612L104.58 43.6117C104.464 43.4809 104.354 43.3566 104.25 43.2659C103.589 42.6053 103.576 41.7059 103.564 40.8213C103.561 40.6347 103.559 40.4488 103.55 40.2659C103.43 37.6563 103.364 35.0467 103.298 32.4371L103.298 32.436C103.254 30.696 103.21 28.956 103.15 27.2159C103.163 27.0689 103.141 26.8718 103.117 26.6629C103.052 26.0905 102.977 25.4293 103.6 25.4659C105.091 25.7723 106.574 26.1371 108.058 26.5023C110.208 27.0312 112.361 27.561 114.55 27.9159C117.25 28.4659 120 29.2659 122.3 30.7659C123.047 31.3634 123.989 31.5983 124.897 31.8248C125.205 31.9016 125.509 31.9773 125.8 32.0659C129.493 33.1211 128.812 37.8683 128.253 41.7698C128.07 43.045 127.9 44.2299 127.9 45.1659C127.3 50.8159 127.1 56.5159 127.4 62.1659C127.55 67.8659 127.75 73.5659 128.25 79.2659C128.181 80.0904 127.404 80.4192 126.649 80.7389C126.305 80.8845 125.966 81.0282 125.7 81.2159C124.266 81.8115 122.871 82.5337 121.481 83.2536L121.481 83.2536L121.481 83.2537L121.48 83.2537L121.48 83.2538L121.48 83.2538L121.48 83.2539L121.48 83.2539L121.48 83.2539L121.48 83.254L121.48 83.254L121.48 83.2541L121.48 83.2541L121.479 83.2542L121.479 83.2542L121.479 83.2543L121.479 83.2543L121.479 83.2544L121.479 83.2544L121.479 83.2544L121.479 83.2545L121.479 83.2545L121.479 83.2546L121.479 83.2546C119.718 84.166 117.965 85.0736 116.15 85.7159C115.55 85.5659 112.75 83.3659 113.7 82.9659ZM34.4501 49.116C21.9001 52.966 22.6001 58.516 34.9501 61.416C39.2501 62.216 43.6501 62.516 48.0001 62.716C51.0727 62.6411 54.1453 62.6504 57.239 62.6597H57.2393H57.2398H57.2403H57.2408H57.2412H57.2417H57.2422H57.2427H57.2432H57.2436H57.2441H57.2446H57.2451H57.2456H57.2461H57.2466H57.2471H57.2476H57.2481H57.2486H57.2491H57.2496H57.2501H57.2506H57.2511H57.2516H57.2521C58.2822 62.6629 59.3146 62.666 60.3501 62.666C75.4501 62.766 90.7501 62.816 105.15 58.066C109.85 56.916 106.7 52.666 104.45 50.666C101.65 48.066 97.8501 46.816 94.0501 46.516C90.1572 46.1167 86.2145 46.0662 82.3214 46.0163L82.3001 46.016C81.9001 46.466 83.9501 47.566 84.3501 47.766C86.0138 48.1565 88.3748 48.1723 90.897 48.1892C95.8037 48.222 101.32 48.2589 103.5 51.066C103.588 51.1949 103.684 51.33 103.784 51.4702C104.536 52.5265 105.495 53.8742 104.7 55.066C101.917 56.6563 98.6638 57.2538 95.4691 57.8405C94.2442 58.0655 93.028 58.2889 91.8501 58.566C83.5501 60.116 75.0501 60.516 66.6001 60.466C63.0001 60.416 59.3501 60.566 55.7001 60.716C46.4501 61.066 37.1001 61.416 28.4501 58.366C26.1852 53.4587 43.3351 49.6647 48.4247 48.5387C48.7283 48.4715 48.989 48.4138 49.2001 48.366C51.1001 48.016 53.0501 47.716 55.0001 47.866C55.6501 48.116 55.5501 47.666 55.1001 47.366C51.345 43.8195 43.1681 46.4008 37.4842 48.1951C36.3568 48.551 35.3274 48.876 34.4501 49.116ZM76.7856 90.3852C78.5812 94.754 80.8443 100.26 84.3999 101.816C85.0999 102.166 85.7499 102.366 86.3999 102.366C89.4499 102.366 91.8999 98.816 92.9999 96.166C93.6754 94.8457 94.0492 93.1105 94.3877 91.5395C94.6003 90.5523 94.7991 89.6299 95.0499 88.916C96.7999 94.066 105.55 102.416 109.15 94.466C111.3 88.316 110.4 81.516 109.55 75.166C109.427 74.7317 109.332 74.2725 109.236 73.8091L109.236 73.8087L109.236 73.8085C108.901 72.1912 108.554 70.5209 107 69.666C106.95 69.616 106.45 69.316 106.5 69.616C108.75 75.166 112.05 101.816 99.9999 94.966C98.0999 93.416 97.0999 91.066 96.2999 88.866C96.2414 88.699 96.1872 88.5307 96.1332 88.363C95.8636 87.5265 95.5997 86.7075 94.8499 86.166C94.7591 86.1141 94.6481 86.0218 94.5274 85.9215C94.1828 85.635 93.7591 85.2828 93.4999 85.616C93.1532 86.656 92.9234 87.7294 92.6947 88.7976C92.5276 89.5782 92.361 90.356 92.1499 91.116C91.0499 95.066 88.4999 101.066 83.5499 100.416C82.9418 100.237 82.5897 99.6489 82.2554 99.0906L82.2553 99.0904C82.1224 98.8683 81.9922 98.651 81.8499 98.466C80.7114 96.5839 79.8536 94.5507 78.9955 92.5168L78.9955 92.5166C78.0071 90.1739 77.0184 87.8304 75.5999 85.716C74.4499 84.216 71.8499 81.566 70.2499 83.966C69.3309 85.452 68.6796 87.1062 68.0268 88.7641L68.0267 88.7642C67.0101 91.346 65.9899 93.9369 63.9499 95.916C61.1514 98.531 60.4997 97.0629 59.4071 94.6015C59.3089 94.3803 59.2071 94.1511 59.0999 93.916C58.7943 93.2405 58.4849 92.4641 58.1563 91.6398C56.4422 87.3393 54.209 81.7366 49.2999 82.366C46.4051 83.6794 45.8955 86.602 45.3833 89.5395C44.94 92.0817 44.4948 94.635 42.4999 96.166C40.9999 97.066 39.1499 96.616 37.6499 96.016C35.1592 94.7051 34.3488 91.6757 33.65 89.0638C33.5493 88.6871 33.4508 88.319 33.3499 87.966C32.3879 83.8526 31.8221 79.6512 31.2581 75.4639C30.9721 73.3398 30.6865 71.2194 30.3499 69.116C30.1999 67.966 29.9999 66.816 29.6499 65.716C29.5999 65.116 26.6999 62.716 27.7499 64.616C28.6007 68.1841 29.0297 71.8425 29.4587 75.5004C29.8111 78.5062 30.1635 81.5115 30.7499 84.466C31.4999 89.366 33.2499 94.416 37.7499 96.966C46.0338 101.791 47.0253 96.4226 48.1926 90.1028L48.1927 90.1025L48.1927 90.1022L48.1928 90.1019L48.1929 90.1016C48.3078 89.4793 48.4244 88.8479 48.5499 88.216C48.8999 86.466 51.1499 82.916 53.1999 84.366C54.4558 86.0857 55.2488 88.1338 56.0405 90.1787C57.2976 93.4255 58.5514 96.664 61.6499 98.566C62.8999 99.516 64.5499 99.166 65.6499 98.116C68.0337 95.9707 69.1186 93.0136 70.2 90.0661L70.2 90.0661L70.2001 90.066L70.2001 90.0659L70.2001 90.0659L70.2001 90.0658L70.2001 90.0657L70.2002 90.0657L70.2002 90.0656L70.2002 90.0655L70.2002 90.0655L70.2003 90.0654L70.2003 90.0653L70.2003 90.0652L70.2003 90.0652L70.2004 90.0651L70.2004 90.065L70.2004 90.065L70.2004 90.0649L70.2004 90.0648L70.2005 90.0648L70.2005 90.0647L70.2005 90.0646L70.2005 90.0646L70.2006 90.0645L70.2006 90.0644L70.2006 90.0644L70.2006 90.0643C70.7068 88.6846 71.2123 87.3071 71.8499 86.016C73.5962 82.6248 74.9453 85.9074 76.7856 90.3852ZM63.0499 120.366C61.7499 120.333 60.4666 120.199 59.2 119.966C58.3 119.666 57.55 118.966 56.9 118.216C56.6 117.866 56.75 117.766 57.2 117.866C60.55 118.366 65 118.816 67.6 116.266C70.5621 113.137 69.7646 107.049 69.1578 102.417C69.0374 101.498 68.9245 100.636 68.85 99.866C68.8 99.816 68.75 99.566 68.85 99.516C69.1427 99.5996 69.4004 99.8231 69.6232 100.04C69.5082 99.213 71.2392 100.835 70.9999 101.266C71.0819 102.314 71.134 103.393 71.1868 104.486L71.1868 104.486L71.1868 104.487C71.4237 109.393 71.6742 114.582 74.6999 118.466C75.4088 118.785 76.1616 118.928 76.9028 119.069C78.2527 119.326 79.5638 119.575 80.4999 120.866C80.5348 120.91 80.5912 120.972 80.6572 121.044L80.6572 121.044L80.6575 121.045L80.6577 121.045L80.6579 121.045L80.6579 121.045C80.9695 121.388 81.4946 121.966 80.9999 121.966C75.5817 121.289 72.7144 118.271 71.215 114.317C70.7187 117.897 68.7211 120.366 63.2 120.366H63.0499ZM125.675 99.3159C125.95 101.403 126.225 103.491 126.55 105.566C126.679 106.2 126.782 106.872 126.887 107.556C127.355 110.594 127.862 113.888 130.8 115.316C129.817 110.373 128.983 105.027 128.143 99.6451C127.446 95.1736 126.744 90.6771 125.95 86.3659C125.3 85.4659 124.4 84.2659 123.25 84.0659C123.327 84.479 123.405 84.8941 123.483 85.3107L123.484 85.3159L123.484 85.3161L123.484 85.3163L123.484 85.3165L123.484 85.3166L123.484 85.3168L123.484 85.3169L123.484 85.3171L123.484 85.3172L123.485 85.3176C123.965 87.8739 124.456 90.4883 124.8 93.0659C125.125 95.1409 125.4 97.2284 125.675 99.3159ZM110.832 113.003L110.833 113.003L110.833 113.003L110.833 113.003L110.833 113.003L110.833 113.003L110.833 113.003L110.833 113.003L110.833 113.003L110.833 113.002L110.833 113.002L110.833 113.002L110.833 113.002L110.833 113.002L110.833 113.002L110.833 113.002L110.833 113.002L110.833 113.002L110.833 113.002L110.833 113.002L110.833 113.002L110.833 113.002L110.833 113.002C111.933 109.501 113.034 105.997 113.75 102.416C113.856 101.82 113.964 101.223 114.072 100.626L114.072 100.625L114.072 100.625L114.072 100.624L114.072 100.623L114.073 100.622L114.073 100.621L114.073 100.62L114.073 100.619L114.073 100.618L114.073 100.618C114.68 97.266 115.288 93.909 115.5 90.516C116.1 90.116 118.45 92.516 118.4 93.216C117.45 102.366 115.75 112.116 112.35 120.516C111.35 119.966 109.1 118.416 109.55 117.166C109.961 115.779 110.395 114.395 110.83 113.011L110.83 113.011L110.83 113.01L110.831 113.01L110.831 113.01L110.831 113.009L110.831 113.009L110.831 113.008L110.831 113.008L110.831 113.008L110.831 113.007L110.831 113.007L110.832 113.006L110.832 113.006L110.832 113.006L110.832 113.005L110.832 113.005L110.832 113.005L110.832 113.004L110.832 113.004L110.832 113.003ZM12.95 114.716C14.6 110.066 16.1 105.366 17.2 100.566C17.6876 98.6534 18.0907 96.7408 18.4939 94.8282C18.6282 94.1908 18.7626 93.5534 18.9 92.916C19.95 93.066 21.0001 94.116 21.6001 95.016C20.1501 102.616 18.35 110.916 15.55 117.916C14.45 117.366 12.05 116.116 12.95 114.716ZM15.6734 77.5467C14.5246 78.8051 14.3428 79.0042 16.85 80.216H16.9499L16.9999 80.166C18.1667 78.4325 19.6669 76.9435 21.1596 75.4619C21.9058 74.7213 22.6501 73.9825 23.35 73.216C23.6379 73 23.3299 72.7581 23.0601 72.5463C22.9551 72.4639 22.8559 72.386 22.7999 72.316C22.6746 72.2533 22.5304 72.1498 22.3775 72.04L22.3775 72.04C21.9207 71.7121 21.3871 71.3289 21.0499 71.816C20.7424 72.1334 20.4348 72.4489 20.1277 72.764L20.1274 72.7644L20.1271 72.7647L20.1267 72.765L20.1264 72.7653L20.1261 72.7656L20.1258 72.766L20.1255 72.7663C18.8853 74.0385 17.6516 75.3041 16.4499 76.666C16.1628 77.0105 15.8999 77.2985 15.6743 77.5457L15.6739 77.5462L15.6736 77.5465L15.6734 77.5467ZM119.8 73.616C117.25 73.116 114.8 72.166 112.7 70.666C112.4 70.466 110.55 68.966 111.5 68.916C112.474 69.4284 113.546 69.7541 114.614 70.0784L114.615 70.0784C116.674 70.7036 118.716 71.3237 120 73.266C120.1 73.416 120.1 73.616 119.95 73.616H119.8ZM38.2979 117.015C38.4494 117.265 38.6014 117.516 38.8499 117.516C39.7999 117.116 40.9499 116.416 41.3999 115.416C41.3399 115.266 41.2259 115.116 41.1119 114.966C41.0359 114.866 40.9599 114.766 40.8999 114.666C37.9499 110.516 35.0499 106.266 32.5499 101.816C32.3186 101.405 32.0829 100.991 31.8458 100.574L31.8457 100.574C30.699 98.5592 29.52 96.4876 28.6499 94.416C27.9999 94.566 26.1499 95.766 26.6999 96.566C28.6499 101.366 31.1999 105.916 33.8499 110.366C35.1499 112.499 36.5332 114.583 37.9999 116.616C38.1135 116.711 38.2056 116.863 38.2979 117.015ZM61.6499 51.866C62.2649 51.3052 62.88 51.0128 63.4784 50.7282C64.5341 50.2262 65.5383 49.7487 66.3999 47.866C66.9499 48.066 67.5999 48.616 67.8499 49.166C67.6499 49.566 67.3999 49.966 67.1499 50.316C66.6303 51.1531 65.794 51.5903 64.9682 52.0219C64.3637 52.338 63.7648 52.651 63.2999 53.116C66.0999 53.966 76.6499 53.516 69.5999 49.716C69.1499 49.416 68.1499 48.166 69.3999 48.916C74.3999 52.016 75.1499 54.716 68.2999 54.916C65.9999 54.866 62.0499 54.666 61.6499 51.866ZM66.6999 46.216C67.2499 47.216 68.2499 48.016 69.2499 48.516H69.3499C69.5999 48.516 69.3999 48.166 69.2999 48.016C69.1199 47.776 69.1559 47.428 69.1919 47.08C69.2159 46.848 69.2399 46.616 69.1999 46.416C69.3962 44.6492 69.3276 42.9065 69.1299 41.176L69.1668 41.1971L69.2 41.2159C70.0289 40.9542 70.9255 40.7897 71.8282 40.6241C74.0294 40.2203 76.2672 39.8097 77.65 37.9659C77.7328 37.8108 77.8412 37.6407 77.9549 37.4623L77.955 37.4621C78.391 36.7779 78.9052 35.9711 78.35 35.4159L78.3119 35.3777L78.2685 35.3338L78.2317 35.2965L78.2007 35.265L78.2006 35.265C77.8483 34.9072 77.4817 34.5349 77 34.3159C76.8227 34.4046 76.7152 34.6854 76.6054 34.9725C76.5294 35.1712 76.4523 35.3728 76.35 35.5159C74.9306 38.1521 71.8663 38.5842 69.105 38.9736L68.8246 39.0132C68.6746 38.0961 68.5041 37.181 68.3337 36.2662L68.3335 36.2654L68.3335 36.2653L68.2499 35.816C65.676 32.4311 66.1106 34.7649 66.5555 37.1541L66.5556 37.1542C66.6927 37.8906 66.8308 38.6322 66.8821 39.2133C66.67 39.2281 66.4571 39.2448 66.2436 39.2615L66.2426 39.2616C64.8764 39.3686 63.4871 39.4774 62.1499 39.116C60.3505 38.936 59.5585 38.2525 58.7704 37.5723C58.2445 37.1185 57.7203 36.6661 56.8999 36.366C58.5499 38.966 61.8499 40.866 65.0499 40.916H65.4999C65.9592 40.916 66.4479 40.9013 66.9266 40.8524C66.9159 41.5652 66.8579 42.278 66.7999 42.9908L66.7999 42.991C66.7124 44.066 66.6249 45.141 66.6999 46.216ZM66.4501 33.466C65.3001 32.866 64.1001 32.016 63.7501 30.716C63.6501 30.266 63.8501 30.116 64.2501 30.416C64.3363 30.4898 64.4558 30.5728 64.5863 30.6634L64.5863 30.6634C64.9857 30.9406 65.4878 31.2891 65.4501 31.666C65.2279 32.5179 66.4601 32.0801 67.317 31.7756C67.6167 31.6691 67.8705 31.5789 68.0001 31.566C68.6501 31.866 69.4001 32.366 69.7001 33.066C69.1001 33.416 68.3001 33.666 67.5501 33.666C67.1501 33.666 66.7834 33.5993 66.4501 33.466ZM74.9 30.8159C73.1 29.8659 75.95 32.866 76.45 32.966C76.85 33.166 77.3 33.2659 77.7 33.2659C78.8 33.2659 79.95 32.6659 80.75 32.0659C81.1652 31.6885 80.5545 31.1685 80.0797 30.7642C79.9256 30.633 79.7858 30.514 79.7 30.4159C79.6378 30.3745 79.5735 30.3223 79.5074 30.2687L79.5073 30.2686L79.5073 30.2686C79.2548 30.0637 78.9774 29.8386 78.7 30.1159C78.5822 30.1748 78.4587 30.2389 78.3307 30.3053C77.2631 30.8589 75.8822 31.5749 74.9 30.8159ZM55.8501 34.1159C54.9501 33.6159 53.85 32.9159 53.55 31.8159C53.6 31.6159 54.25 32.1159 54.3 32.1659C55.3 33.3659 56.4001 33.2159 57.8501 33.0159C58.4501 33.3159 59.2501 33.8159 59.4001 34.4659C58.9668 34.5326 58.5001 34.5659 58.0001 34.5659C57.3001 34.5659 56.5501 34.4659 55.8501 34.1159ZM69.6 28.716C67.8197 27.9954 67.8002 27.5263 67.7441 26.1817V26.1815C67.734 25.9401 67.7228 25.6704 67.6999 25.3659L67.6999 25.365C67.5999 23.3153 67.4999 21.2656 67.4499 19.1659C67.4132 17.658 67.2952 16.1501 67.1757 14.6223C67.1327 14.0731 67.0896 13.5213 67.0499 12.966C66.9999 12.416 68.6999 13.6659 68.7499 13.8659C68.8113 14.6468 68.8743 15.426 68.9372 16.2043C69.2326 19.8616 69.5263 23.4968 69.6499 27.1659L69.7499 28.5659C69.7499 28.716 69.6999 28.716 69.6499 28.716H69.6ZM56.1999 30.3159C55.4999 30.0159 54.5999 29.5659 54.6499 28.6659C54.392 26.6892 54.3558 24.7124 54.3189 22.7039V22.7036C54.3129 22.3753 54.3069 22.0461 54.2999 21.7159C54.2999 20.9144 54.2677 20.1208 54.2357 19.3288C54.1877 18.1448 54.14 16.9644 54.1999 15.7659C54.1999 15.6659 54.4999 15.8159 54.5499 15.8659C54.9499 16.0659 55.3499 16.3159 55.5999 16.6659C55.6272 18.575 55.7437 20.484 55.8602 22.393L55.8602 22.3932C55.9573 23.9841 56.0544 25.575 56.0999 27.1659C56.1199 27.5659 56.1559 27.9659 56.1919 28.3658C56.2459 28.9659 56.2999 29.5659 56.2999 30.1659C56.3499 30.2659 56.2999 30.3159 56.2499 30.3159H56.1999ZM57.6147 28.7649C57.7136 30.175 57.7572 30.7976 59.55 31.5659H59.6C59.7 31.5659 59.7 31.5159 59.7 31.416V31.4159C59.7 30.8846 59.6744 30.366 59.6491 29.8538V29.8537V29.8537V29.8537V29.8536C59.6244 29.3537 59.6 28.8598 59.6 28.3659C59.55 26.0659 59.5 23.7659 59.3 21.4659C59.2748 21.1256 59.24 20.7852 59.2054 20.4456C59.1026 19.4384 59.0005 18.4382 59.15 17.4659C58.7 16.8159 57.95 16.2659 57.2 16.0659C57.1 16.0659 57.1 16.3158 57.1 16.4158V16.4159C57.0663 17.4607 57.1689 18.5054 57.27 19.5348L57.27 19.5349C57.3189 20.0327 57.3674 20.527 57.4 21.0159C57.5334 22.5825 57.5333 24.1269 57.5333 25.6639C57.5333 26.4325 57.5333 27.1992 57.55 27.9659C57.5793 28.2585 57.5978 28.5233 57.6147 28.7649ZM56.8999 12.7159C58.7499 11.7659 57.7999 9.46594 56.5499 8.46594C54.8999 9.66594 54.2499 11.1659 54.8999 13.1159C54.9499 13.4159 55.0499 13.7159 55.2499 13.9159C55.5999 14.3159 55.0999 14.1659 54.8999 14.0159C52.4499 12.9159 51.7999 8.86594 54.2999 7.41594C54.3606 7.33498 54.4787 7.28679 54.5977 7.2382C54.7727 7.16678 54.9499 7.09449 54.9499 6.91594C54.8999 6.86594 54.8499 6.76594 54.8999 6.71594C55.7508 6.89321 56.3503 7.54814 56.9301 8.18159L56.9301 8.18162L56.9302 8.18164L56.9302 8.18167C57.1681 8.44153 57.4026 8.69777 57.6499 8.91594C58.6999 9.91594 59.7999 11.1159 59.6999 12.6659C59.6499 13.2659 59.2499 14.1159 58.5999 14.2659C58.2999 14.2159 56.2999 12.9659 56.8999 12.7159ZM74.8245 26.2783C74.9213 27.4486 74.9876 28.2513 76.4001 28.916H76.4501C76.5001 28.916 76.5001 28.866 76.5001 28.7161V28.716C76.5001 28.0231 76.4565 27.352 76.4126 26.674C76.3899 26.3245 76.3671 25.9731 76.3501 25.616C76.2185 24.497 76.1139 23.3781 76.0097 22.2627L76.0096 22.2621L76.0096 22.2614L76.0095 22.2613L76.0095 22.2611C75.7971 19.9879 75.5861 17.7294 75.1501 15.516C75.0001 15.116 74.2501 14.366 73.8501 14.366C73.8843 14.8957 73.9243 15.4253 73.9642 15.953L73.9642 15.9535L73.9642 15.9539L73.9642 15.9541C74.041 16.9702 74.1172 17.9789 74.1501 18.966C74.2834 21.166 74.4834 23.3493 74.7501 25.516C74.7839 25.7866 74.8048 26.0401 74.8245 26.2783ZM79.65 28.0659C78.2894 27.4062 78.2207 26.5766 78.1264 25.4368C78.1063 25.1943 78.0851 24.9378 78.05 24.6659C77.8833 22.5659 77.7167 20.4826 77.55 18.4159C77.5 17.1159 77.4 15.8159 77.25 14.5659C77.5781 14.6069 77.8388 14.8833 78.0875 15.147C78.1421 15.2048 78.196 15.262 78.25 15.3159C78.5309 16.1274 78.617 16.9974 78.7028 17.865V17.8651L78.7029 17.8653C78.7545 18.3875 78.8061 18.9087 78.9 19.4159C79.003 20.4968 79.1324 21.5644 79.2611 22.6256C79.3824 23.6262 79.503 24.6211 79.6 25.6159C79.5806 25.7323 79.6215 26.1349 79.667 26.584C79.7388 27.2921 79.8224 28.1159 79.7 28.1159C79.6667 28.1159 79.65 28.0993 79.65 28.0659ZM72.1999 9.66597C72.4999 11.466 74.1499 12.916 75.6999 13.616H75.7498C76.2483 13.616 75.3094 12.7124 75.0174 12.4315C74.9872 12.4024 74.9639 12.38 74.9499 12.366C74.1499 11.716 74.2498 10.416 74.7998 9.61597C74.9061 9.48069 75.0199 9.34914 75.1335 9.21772C75.608 8.66912 76.0805 8.12271 75.9998 7.31597C77.1498 8.71597 77.2999 9.66597 76.8499 11.416C77.1499 11.916 77.6998 12.366 78.2498 12.566C78.3498 12.516 78.3499 12.366 78.3499 12.266C78.3832 12.0993 78.4332 11.9326 78.4998 11.766C78.8498 10.166 77.8499 8.81597 76.9499 7.61597C76.8615 7.50553 76.7677 7.38316 76.6689 7.25413C76.0963 6.50695 75.3526 5.53652 74.4998 5.36597C74.4199 5.57373 74.3758 5.80192 74.3315 6.03096C74.2372 6.51848 74.1421 7.00981 73.6999 7.31597C72.9999 7.91597 72.1499 8.66597 72.1999 9.66597Z" fill="black"/>
</svg>
