<svg width="71" height="66" viewBox="0 0 71 66" fill="none" xmlns="http://www.w3.org/2000/svg">
<path fill-rule="evenodd" clip-rule="evenodd" d="M30.6912 56.75C29.6412 57.05 32.8411 58.85 33.2911 58.85C33.4927 58.7878 33.6952 58.7256 33.8983 58.6631C37.7763 57.4713 41.9029 56.2032 44.9911 53.4C50.8411 47.4 55.0911 39.75 57.0911 31.55C59.4411 19.6 59.5412 19.25 69.6912 12.5C71.2409 11.4816 69.4183 10.5416 68.2864 9.95781C68.1402 9.8824 68.0055 9.81293 67.8911 9.75C64.2411 9.05 60.2911 9.55 56.6411 10.25C56.4725 9.75807 56.3097 9.23156 56.1417 8.68784L56.1416 8.68756C55.114 5.36287 53.8874 1.39457 49.8911 0.75C48.486 1.16515 47.2441 1.98821 45.996 2.81537C45.2899 3.2833 44.5818 3.75255 43.8411 4.15C39.4847 7.33926 34.3769 9.84747 29.2482 12.3659L29.2482 12.3659C18.7782 17.5073 8.22113 22.6915 3.79114 33.8C2.81461 36.282 2.40099 38.8633 1.98441 41.4632C1.88908 42.0581 1.79359 42.6541 1.69116 43.25C1.97529 43.9806 2.81956 44.4147 3.55528 44.7929L3.55544 44.793L3.55565 44.7931L3.5559 44.7932L3.5562 44.7934C3.72644 44.8809 3.89085 44.9655 4.04114 45.05C4.14113 45.0875 4.24113 45.1312 4.34112 45.175C4.64113 45.3062 4.94114 45.4375 5.24115 45.4C5.29115 42.45 5.94113 39.4 6.84113 36.6C10.6687 25.608 21.7203 20.0581 31.5354 15.1291L32.0911 14.85C37.4959 12.4609 42.5632 9.36626 47.6055 6.28691L47.606 6.2866L47.6061 6.28654C49.0008 5.43477 50.3936 4.58417 51.7911 3.75C52.5028 5.52904 52.8583 7.42677 53.2097 9.30242C53.2533 9.53538 53.2969 9.76799 53.3411 10C53.3411 11.0938 54.2983 11.6516 55.1405 12.1425C55.2608 12.2125 55.3787 12.2813 55.4911 12.35C56.9153 13.5047 58.5469 13.0297 60.135 12.5674C60.6098 12.4292 61.0808 12.2921 61.5411 12.2C62.3789 12.0325 63.392 11.9351 64.2867 11.8491L64.2873 11.8491C64.4604 11.8324 64.629 11.8162 64.7911 11.8C64.0151 12.3614 63.1955 12.8791 62.3736 13.3983C60.7067 14.4513 59.0307 15.51 57.6912 16.95C55.6801 19.5215 55.1038 22.7017 54.5288 25.8742C54.2318 27.5132 53.9351 29.1501 53.4412 30.7C51.2412 38.8 46.5911 46.4 40.3411 51.95C38.417 53.4097 36.2066 54.3411 34.0023 55.2701L34.0022 55.2701C32.8843 55.7412 31.7679 56.2116 30.6912 56.75ZM11.1411 63.6C11.6411 64.5 12.7911 65.15 13.7911 65.45C16.4438 64.9001 19.0547 63.9943 21.6372 63.0983L21.6373 63.0983C23.0463 62.6095 24.4468 62.1236 25.8411 61.7C25.3911 61 23.9911 59.85 23.0911 60.15C21.2459 60.713 19.4202 61.3346 17.6018 61.9538L17.6014 61.9539C16.5129 62.3246 15.427 62.6943 14.3411 63.05C14.3216 62.4079 14.5672 61.622 14.8273 60.7895C15.2356 59.4825 15.6798 58.0607 15.1911 56.9C14.0411 55.5 12.2911 54.85 10.4911 55.2C8.04112 55.4 5.54109 55.55 3.09109 55.25C2.86116 55.25 2.9765 54.9479 3.0827 54.6698C3.13816 54.5245 3.19113 54.3858 3.19113 54.3C3.32205 53.569 3.51964 52.8809 3.70492 52.2356C4.36874 49.9236 4.87461 48.1618 1.59109 46.95C1.19109 46.8 0.941103 46.95 1.2911 47.3C1.47702 48.2503 1.09964 49.4481 0.723153 50.643C0.188398 52.3402 -0.344543 54.0317 0.741115 55C3.32463 57.4195 6.98439 57.2828 10.3964 57.1554C11.1445 57.1275 11.8807 57.1 12.5911 57.1C12.8416 57.0642 12.8104 57.1822 12.7723 57.3254C12.7573 57.3823 12.7411 57.4432 12.7411 57.5C12.5727 58.3632 12.289 59.2174 12.0058 60.0703C11.6164 61.2431 11.2279 62.4132 11.1411 63.6ZM17.5411 43.75C15.6911 43.15 13.9412 42 12.9412 40.4C12.7412 40.15 12.2911 39.5 12.9911 39.75C14.2411 40.2 15.4411 41 16.2911 42.05C16.3415 42.1675 16.6117 42.3921 16.9105 42.6405L16.9106 42.6406L16.9107 42.6407L16.9108 42.6407C17.502 43.1321 18.2053 43.7167 17.5411 43.75ZM28.6411 47.75C28.8911 50.6 29.9412 51.75 32.6912 52.65C33.1317 52.7178 32.8602 51.8437 32.6395 51.1333C32.5346 50.7957 32.4412 50.495 32.4412 50.35C32.2025 49.4689 31.9908 48.5742 31.7788 47.6784C31.4135 46.1345 31.0474 44.5872 30.5411 43.1C28.6911 36.15 22.2911 31.95 15.9911 29.4C14.5411 29.1 17.2411 30.85 17.6912 30.9C25.1912 33.3 28.0911 40.45 28.6411 47.75ZM44.0412 45.65C41.2412 45.05 38.0912 43 38.2912 39.85C34.2791 39.0633 34.2278 36.4509 34.1694 33.4733C34.1536 32.666 34.1372 31.8319 34.0412 31C34.0412 30.8 34.0412 30.8 33.8912 30.85C30.5912 31.55 26.9412 28.7 26.8912 25.3C26.8792 25.108 26.8643 24.9131 26.8493 24.7167C26.8018 24.0948 26.7532 23.458 26.7912 22.85C27.8912 23 29.1912 23.75 29.8912 24.65C29.5912 26.05 29.7912 27.65 30.2412 29C30.4077 29.2995 30.9729 29.1338 31.465 28.9895C31.7121 28.917 31.9408 28.85 32.0912 28.85C33.2047 28.386 34.2751 29.1275 35.1826 29.7561L35.1829 29.7563C35.2534 29.8051 35.3228 29.8532 35.3912 29.9C36.9801 31.0399 36.9702 33.015 36.9606 34.935C36.9563 35.7943 36.9521 36.6425 37.0912 37.4C37.2767 37.2969 37.4452 37.1514 37.6143 37.0054C37.8553 36.7972 38.0973 36.5881 38.3912 36.5C39.3912 36.7 40.4412 37.35 41.0912 38.15C41.1358 38.6997 41.1318 39.2628 41.1278 39.8285V39.8286C41.1183 41.1666 41.1087 42.52 41.7412 43.75C42.0912 43.85 44.9412 45.5 44.0412 45.65ZM44.9411 29C46.0411 30.1 47.5411 31.0001 49.0911 31.0501C49.8411 30.85 47.4911 29.6 47.1411 29.45C46.8957 29.3137 46.7841 29.0882 46.6685 28.8545C46.5721 28.6597 46.4729 28.4592 46.2911 28.3001C46.2529 28.2699 46.2142 28.2393 46.1751 28.2083C45.2405 27.468 44.0388 26.5161 42.7911 26.9C42.7721 26.5147 42.7635 26.1509 42.7555 25.8081C42.6996 23.4373 42.6673 22.0679 39.3911 21.5C39.2425 21.5 39.1822 21.5354 39.1683 21.5221C39.1587 21.513 39.1708 21.4812 39.1911 21.4L39.2911 20.8C39.3323 20.3469 39.5431 19.8938 39.728 19.4966C39.7675 19.4117 39.8058 19.3293 39.8411 19.25C39.0911 18.4501 37.9411 17.65 36.8411 17.55C36.5025 17.8403 36.4446 18.3645 36.3959 18.8058C36.3943 18.8207 36.3927 18.8354 36.3911 18.85C35.591 21.25 37.9911 22.65 39.9911 23.25C39.9741 23.4456 39.9499 23.6498 39.925 23.859C39.8039 24.8801 39.6686 26.0201 40.2911 26.85C41.4911 28 43.2411 29.3 44.9411 29Z" fill="black"/>
</svg>
