<svg width="82" height="143" viewBox="0 0 82 143" fill="none" xmlns="http://www.w3.org/2000/svg">
<path fill-rule="evenodd" clip-rule="evenodd" d="M2.00017 40.7013C0.600172 35.5513 -0.499834 29.9513 1.15017 24.7513C4.42004 15.6325 13.6288 10.7982 21.8213 6.49727C22.5232 6.12881 23.2176 5.76427 23.9002 5.40129C30.3502 1.75129 37.8502 -0.298708 45.2002 0.451292C44.0002 2.55129 41.9002 2.55129 39.8002 2.55129C39.2002 2.50129 38.6502 2.50129 38.1502 2.55129C34.3002 2.75129 30.5002 3.65129 27.0002 5.15129C25.5732 5.90192 24.0577 6.63349 22.5115 7.37991C14.6851 11.158 6.07073 15.3165 4.15017 24.2513C2.90017 33.0513 6.25016 42.4513 12.0502 49.1013C14.3151 51.6833 17.1134 53.5676 19.9248 55.4607L19.9264 55.4618L19.9271 55.4622L19.9278 55.4627L19.9285 55.4631L19.9292 55.4636L19.9298 55.4641L19.9305 55.4645C20.2205 55.6598 20.5105 55.8551 20.8002 56.0513C20.4002 57.4513 18.7002 58.5013 17.4002 59.1513C9.85017 55.7013 4.25017 48.7513 2.00017 40.7013ZM50.3001 17.4513C49.6001 17.8513 48.8001 18.3513 48.4501 19.1013C49.9 20.0513 51.6001 21.0013 53.2501 21.5013C57.2078 19.6613 56.6337 18.5203 55.662 16.5889C55.2342 15.7386 54.7293 14.7351 54.5001 13.4513C54.7452 13.4033 54.9993 13.3571 55.2591 13.3098L55.2596 13.3097L55.2601 13.3096L55.2602 13.3096L55.2602 13.3096L55.2603 13.3096L55.2603 13.3096L55.2604 13.3096L55.2604 13.3096L55.2605 13.3096L55.2605 13.3095L55.2606 13.3095C57.4386 12.9133 60.0122 12.4451 60.9501 10.3013C60.2326 9.64903 59.2174 9.40094 58.2096 9.15465C57.6722 9.02334 57.1369 8.89254 56.65 8.70126C56.4366 8.61588 56.4783 8.6034 56.5884 8.57045L56.5884 8.57043L56.5887 8.57037C56.6074 8.56475 56.6282 8.55853 56.65 8.55126C56.7505 8.49307 56.94 8.38954 57.1957 8.24985L57.1958 8.2498L57.1962 8.24959L57.1966 8.2494C59.3586 7.06833 66.2458 3.30593 64.1 2.50126C59.75 1.75126 55.25 1.30126 50.85 1.55126C50.15 1.55126 47.45 3.50126 47.85 4.10126C52.2 3.70126 56.6501 4.10126 61.0001 4.65126C62.2679 4.62244 60.281 5.65639 58.2932 6.69086C56.8316 7.45143 55.3695 8.21229 55.2001 8.55126C52.9624 10.3998 53.659 10.5918 55.8624 11.1995L56.0501 11.2513C56.6665 11.382 56.5152 11.429 55.9874 11.5931C55.1024 11.8681 53.1589 12.4721 52.0001 14.3513C51.6212 15.178 51.9067 16.1945 52.1537 17.0739C52.2653 17.471 52.369 17.8402 52.4001 18.1513C52.0495 18.1045 51.7208 17.9485 51.3986 17.7956C51.0315 17.6214 50.6728 17.4513 50.3001 17.4513ZM16.75 31.9012C16.95 38.1512 19.05 44.7012 24.65 48.1512C28.75 51.0512 33.55 52.6012 38.4 52.6012C41.1 52.6012 43.85 52.1012 46.45 51.1012C55.75 48.5012 62.65 40.0512 63.65 30.5012C63.65 30.4607 63.6561 30.4099 63.6626 30.3564C63.6882 30.1456 63.7189 29.8917 63.4 30.0512C63.3639 30.0693 63.3261 30.088 63.2868 30.1075C62.6715 30.4122 61.694 30.8963 61.6 31.6012C60.6 37.1512 58.05 43.0512 53.6 46.7512C49.2 49.2512 43.8 50.4512 38.75 50.0512C32.95 49.1512 27.1 46.3012 23.35 41.6512C19.75 36.5512 19.05 29.5012 20.3 23.4512C21.2 17.1012 27.8 15.2512 33.35 15.7512C36.2032 15.9353 38.8023 17.2207 41.3422 18.4767C41.5619 18.5854 41.7811 18.6938 42 18.8012C43.0672 18.8866 44.098 17.8057 44.9056 16.9587C45.0439 16.8137 45.1757 16.6755 45.3 16.5512C45.45 16.3512 45.65 15.9512 45.25 15.9012C43.9 15.1012 42.5 14.3012 41 13.7012C29.55 9.30124 14.95 19.1512 16.75 31.9012ZM63.5001 43.3013C64.9501 44.7013 65.6001 46.9013 66.1501 48.8013C66.163 48.8402 66.1727 48.8859 66.1824 48.9322C66.2102 49.0642 66.239 49.2013 66.3501 49.2013H66.4001C67.2001 48.8513 67.9501 48.3013 68.4001 47.6013C68.1501 45.7013 67.4001 43.8513 66.3001 42.2513C66.2736 42.2141 66.2459 42.1736 66.217 42.1313C65.9736 41.7746 65.6417 41.2884 65.1501 41.6013C64.8001 41.7513 62.9001 43.0513 63.5001 43.3013ZM52.95 60.2511C53.35 58.4511 53.5 56.5011 53.1 54.7011C52.6202 53.8723 53.3961 53.3099 54.0335 52.8479L54.0337 52.8478C54.1269 52.7802 54.2171 52.7148 54.3 52.6511C55.3929 51.7605 55.4699 52.443 55.5658 53.2924C55.5883 53.4922 55.6119 53.7012 55.65 53.9011C55.9 56.3011 55.85 59.5011 53.1 60.3511C53.1 60.3844 53.0833 60.4011 53.05 60.4011C53 60.4011 52.95 60.3511 52.95 60.2511ZM44.9502 54.8512C43.6502 55.4512 42.3502 56.4512 42.7502 58.0512C42.8184 58.256 42.6796 58.7404 42.5457 59.2074C42.3854 59.7667 42.2322 60.3012 42.4502 60.3012H42.5002C43.9002 59.7512 45.0502 58.5512 45.1502 57.0012C45.1502 56.9039 45.1619 56.7529 45.1756 56.575C45.2255 55.9296 45.3029 54.9296 44.9502 54.8512ZM27.0591 54.3144L27.059 54.3146C26.5809 55.4903 26.0801 56.7214 24.8 57.2511C24.2 57.1511 26.6001 53.3511 27.2501 53.8511C27.1856 54.0034 27.1226 54.1584 27.0591 54.3144ZM16.0001 42.3012C15.7501 42.1512 14.6501 43.3512 13.7001 44.5012C12.8501 45.6012 12.1001 46.7512 12.3501 46.7512H12.4001C13.5382 46.2177 14.2209 45.153 14.8982 44.0969C15.173 43.6682 15.447 43.241 15.7501 42.8512C15.8001 42.8012 16.2501 42.3512 16.0001 42.3012ZM9.25018 29.7012C10.5002 28.3012 12.3502 27.4512 14.1502 27.3012C14.1144 27.8021 13.6432 28.1751 13.1949 28.5299L13.1949 28.5299L13.1949 28.53L13.1948 28.53C13.0168 28.6709 12.8423 28.809 12.7002 28.9512C12.0645 29.4915 11.2874 29.6883 10.4973 29.8885C10.0445 30.0032 9.58737 30.119 9.15017 30.3012H9.10015C8.75015 30.3012 9.15018 29.8012 9.25018 29.7012ZM21.3 10.0011C20.4 10.4011 19.4 11.0511 19 11.9511C19.1064 12.0575 19.2154 12.1678 19.3265 12.2803L19.3265 12.2803C19.8941 12.8549 20.5145 13.4829 21.1 13.9011C21.65 13.7011 23.45 12.6511 22.9 12.0511C22.7399 11.843 22.59 11.5989 22.4373 11.3501C22.1131 10.8221 21.7758 10.273 21.3 10.0011ZM34.4 10.7013C34.3745 10.5586 34.3495 10.4148 34.3245 10.2704L34.3245 10.2704C34.1035 8.99806 33.8735 7.67387 33.2 6.5513C33.7 5.6013 34.85 4.8513 35.85 4.4513C36.2351 4.4513 36.3996 4.89251 36.5494 5.29438C36.6136 5.46648 36.675 5.63137 36.75 5.7513C37.95 8.8013 37.6 9.3513 34.65 10.8013H34.5C34.45 10.8013 34.45 10.8013 34.4 10.7013ZM70.456 56.9165L70.4002 56.9513C70.0002 57.1513 66.6502 59.3513 67.6002 59.5013C72.0502 57.0013 76.8002 53.9513 78.9002 49.1513C81.2502 42.5013 82.1502 33.4013 79.2502 26.8513C77.3502 22.4513 71.6502 18.0513 67.0002 21.1513C64.8002 22.4513 62.9002 24.5513 62.6502 27.1513C62.6002 27.7013 62.5502 28.2513 62.4002 28.7513C62.7502 29.1013 64.1002 27.9013 64.4002 27.6013C64.7502 27.3013 65.1002 26.9513 65.0502 26.5013C65.1502 25.2513 65.5502 24.1013 66.1502 23.0513C73.6002 22.8013 78.0002 30.7513 77.9502 37.4013C78.1002 42.5513 77.8502 48.1013 75.3502 52.7013C74.2118 54.5821 72.2893 55.777 70.456 56.9165ZM71.8297 36.5283L71.8297 36.5282C71.7038 36.3684 71.5685 36.1966 71.7502 36.0512C71.285 34.3595 69.532 33.4906 67.9738 32.7183L67.9736 32.7182C67.6897 32.5775 67.4122 32.4399 67.1502 32.3012C67.2002 31.7012 68.8502 30.7012 69.5002 30.6012C70.5002 31.0012 71.6002 31.4512 72.5002 32.1012C74.5502 33.6012 74.8002 36.2012 72.1002 37.1012H72.0502C71.9563 37.1012 71.9604 36.9836 71.9643 36.8711C71.9666 36.8039 71.9689 36.7386 71.9502 36.7012C71.923 36.6467 71.8771 36.5884 71.8299 36.5285L71.8297 36.5283ZM42.35 142.901H42.5501H42.6C42.75 142.901 42.8501 142.601 42.9001 142.451C44.4362 139.198 45.115 135.659 45.7849 132.167C45.8564 131.794 45.9278 131.422 46.0001 131.051C46.0956 130.451 46.1842 129.849 46.2653 129.243C46.6512 127.028 47.0421 124.81 47.5501 122.601C48.6705 117.578 50.4962 112.763 52.3286 107.931L52.3286 107.931C53.0312 106.078 53.7349 104.222 54.4001 102.351C58.1001 92.9012 61.4501 83.0512 60.8001 72.8012C60.8001 72.072 60.7567 71.3428 60.7133 70.6136C60.6525 69.5928 60.5917 68.572 60.6501 67.5512C60.9001 66.7012 60.2501 66.0512 59.7001 65.5012C59.4001 65.2012 56.5501 62.4512 56.5001 63.6512C58.8324 77.9197 55.3505 86.0812 50.2629 98.0065L50.2625 98.0072C49.7879 99.1198 49.2993 100.265 48.8001 101.451C48.3375 102.565 47.8639 103.675 47.3905 104.785C47.3863 104.795 47.3821 104.805 47.3779 104.814C46.8608 102.548 46.218 100.303 45.5768 98.0645C45.3319 97.2095 45.0873 96.3553 44.8501 95.5011C43.2 88.3011 42.8001 80.8511 43.2501 73.5511C43.2754 73.2809 43.2979 73.0092 43.3204 72.7371C43.4312 71.398 43.543 70.0478 44.0001 68.8011C43.8375 68.4353 43.5098 68.1687 43.2048 67.9205C43.1346 67.8634 43.0656 67.8072 43.0001 67.7511C42.9585 67.7214 42.912 67.686 42.8621 67.6481C42.4922 67.3671 41.9382 66.9462 41.8501 67.6511C40.1001 75.2511 40.2001 83.3011 41.1501 91.0511C41.4678 93.2553 41.9985 95.428 42.5291 97.6005C43.126 100.044 43.7229 102.488 44.0164 104.976C43.8373 104.531 43.6486 104.089 43.45 103.651C41.3 98.7511 38.2501 94.3511 35.0501 90.1011C34.6548 89.5591 34.2494 89.0152 33.8413 88.4676L33.8413 88.4676L33.8412 88.4675C30.635 84.1659 27.2613 79.6397 27.35 74.0511C27.3 70.7011 27.85 67.3511 28.85 64.2511C28.25 63.0511 24.95 60.3011 23.7 60.4511C21.15 68.3511 21.05 75.7011 26.35 82.5511C27.1432 83.6747 27.956 84.7913 28.7702 85.9097L28.7706 85.9103C32.2677 90.7143 35.7912 95.5544 37.9001 101.151C41.4501 110.651 40.75 121.201 38.85 131.001C38.4 133.401 37.7501 135.751 37.0501 138.101C37.7001 139.901 40.55 142.151 42.35 142.901Z" fill="black"/>
</svg>
