<svg width="64" height="120" viewBox="0 0 64 120" fill="none" xmlns="http://www.w3.org/2000/svg">
<path fill-rule="evenodd" clip-rule="evenodd" d="M8.14731 40.8804C6.84731 40.2804 5.29731 39.3304 4.64731 38.0304C6.19731 36.5304 8.04731 35.2804 9.89731 34.2304C2.19731 30.9804 -4.85267 24.9804 5.29733 19.1804C1.3309 16.0569 6.16486 12.835 8.87886 11.0261L8.9473 10.9804C13.2473 8.08044 17.9973 5.88044 22.8473 4.18044C23.3093 4.03901 23.7854 3.89106 24.2735 3.73936L24.2738 3.73924C31.5508 1.47758 41.5091 -1.61747 47.6473 3.63044C47.9473 3.93044 48.0973 4.33044 47.4473 3.98044C42.9136 1.73562 37.5663 3.0169 32.7355 4.1744L32.7355 4.17441C32.0788 4.33176 31.4316 4.48683 30.7973 4.63044C24.7973 6.33044 8.79731 12.1804 6.89731 18.3804C18.0973 12.7304 31.2473 12.6804 43.2973 14.9304C46.6973 15.6304 50.0473 17.1304 52.3973 19.7304C53.8321 21.3445 51.7689 21.7927 50.4261 22.0843C50.2715 22.1179 50.1264 22.1495 49.9973 22.1804C48.7402 22.4537 47.4765 22.6938 46.2109 22.9055C46.3093 23.3685 46.3454 23.8645 46.3585 24.3844C51.2253 24.2088 56.3536 24.3296 60.5473 26.8804C62.3473 28.0304 65.5473 30.6804 62.3473 32.2304C59.6473 33.7304 56.6473 34.5304 53.6973 35.2804C51.4578 35.8681 49.1981 36.3196 46.9246 36.6556C46.9871 38.0639 47.0446 39.4721 47.0971 40.8804C47.4471 47.9804 46.9971 55.1804 44.5971 61.9304C44.4071 62.5007 44.2147 63.0715 44.0221 63.6431L44.022 63.6436C42.3908 68.4851 40.739 73.3878 40.2471 78.5304C40.1484 78.8069 40.1744 79.606 40.2021 80.4532C40.2185 80.957 40.2355 81.4777 40.2271 81.9158C41.4628 85.1762 42.3693 88.9101 42.7971 93.2805C43.4971 98.9305 43.5971 104.631 43.5971 110.281C43.5971 113.081 43.5471 115.83 43.2971 118.58C43.2971 118.83 43.297 119.28 42.9471 119.08C41.297 118.43 39.847 117.13 38.747 115.73C38.3203 115.074 38.3461 114.267 38.3718 113.464V113.464C38.3852 113.044 38.3986 112.626 38.3471 112.23C38.3471 111.155 38.3502 110.08 38.3533 109.005C38.3627 105.78 38.3721 102.555 38.2971 99.3305C38.2471 87.8305 36.247 75.6305 28.247 66.8305C27.33 65.9325 26.4294 65.0622 25.5501 64.2125L25.5462 64.2087L25.5454 64.208C17.1129 56.0596 10.6375 49.8024 10.3193 39.0586C10.1082 39.2317 9.9007 39.4061 9.6973 39.5804C9.51097 39.7109 9.33158 39.9177 9.14879 40.1284C8.84108 40.4832 8.52371 40.8491 8.14731 40.8804ZM10.7729 32.7679C10.5409 32.7073 10.3051 32.6475 10.0671 32.5872C7.99697 32.0624 5.76209 31.4959 4.39731 29.9304C2.19731 26.4304 6.24733 23.2804 9.04733 21.7304C10.3967 22.4373 11.8493 22.9376 13.3387 23.3111C12.4401 25.7075 11.7047 28.4516 11.4471 29.4305C11.1705 30.5865 10.9467 31.6976 10.7729 32.7679ZM15.1125 36.017C13.0398 49.987 19.4834 56.3051 26.7041 63.3854C29.2581 65.8896 31.9093 68.4892 34.3153 71.5564C34.2948 71.3097 34.2749 71.0629 34.2549 70.8162L34.2549 70.816C34.1444 69.4501 34.0339 68.0848 33.8471 66.7305C33.4807 64.239 32.9734 61.761 32.4653 59.2792C31.5866 54.9873 30.7055 50.6841 30.5471 46.2805C30.4614 43.3226 30.5227 40.328 30.8885 37.3912C25.7586 37.2092 20.6353 36.7548 15.5973 35.8304C15.4354 35.8883 15.2738 35.9506 15.1125 36.017ZM32.942 34.9911C32.95 34.9591 32.9584 34.9266 32.967 34.8939C33.0061 34.7442 33.0471 34.5873 33.0471 34.4305C32.9971 34.2806 32.8472 34.1307 32.7472 34.0307L32.7471 34.0305C32.5471 33.8638 32.3471 33.7305 32.1471 33.6305C32.1096 33.618 32.0721 33.6024 32.0346 33.5868C31.9221 33.5399 31.8096 33.493 31.6971 33.5305C31.452 33.9901 31.3383 34.4872 31.2525 34.9873C27.1124 34.9426 22.9691 34.6412 18.8471 34.1806C26.7471 30.7806 35.147 28.6806 43.647 27.5306C43.6573 27.5293 43.6676 27.528 43.6778 27.5267C43.6976 28.0301 43.718 28.534 43.7384 29.0383V29.0384V29.0384C43.808 30.76 43.8778 32.4863 43.9249 34.2133C40.2805 34.7306 36.6138 34.9671 32.942 34.9911ZM32.7628 37.4457C32.6647 40.4582 32.9146 43.4443 33.1971 46.4305C33.7387 51.0341 34.9089 55.4881 36.0823 59.9545C36.4255 61.2608 36.769 62.5681 37.0971 63.8805C37.2871 64.5826 37.4607 65.2888 37.6181 65.9984C38.3402 63.8962 39.1617 61.7822 39.9445 59.7675L39.9445 59.7675C41.4408 55.9169 42.796 52.4291 43.0472 50.0804C43.8324 45.7834 44.0181 41.4103 43.978 37.0275C40.2596 37.4189 36.5119 37.5284 32.7628 37.4457ZM46.7873 33.7237C50.695 32.9458 61.796 30.6286 60.497 28.0306C55.948 26.6951 51.1203 26.753 46.4211 27.2157C46.4287 27.3038 46.4373 27.392 46.4471 27.4804C46.5714 29.5615 46.6848 31.6426 46.7873 33.7237ZM43.5712 24.5261C35.4008 25.2607 27.3314 27.1403 19.5973 29.9304C18.4213 30.3385 17.2452 30.7811 16.0802 31.2582C16.4749 29.7023 16.9614 28.0625 17.5471 26.3305C17.6755 26.0522 17.7971 25.7648 17.9196 25.4751C18.1114 25.0217 18.3055 24.5626 18.5321 24.1242C25.5164 24.7664 32.5961 24.4894 39.5973 23.7804C40.9056 23.6477 42.221 23.4934 43.5381 23.3121C43.5478 23.7163 43.5589 24.121 43.5712 24.5261ZM43.5723 20.1559C43.5475 20.1474 43.5224 20.1388 43.4971 20.1304C43.4971 20.1424 43.4971 20.1544 43.4971 20.1665C43.2843 20.1962 43.0742 20.2251 42.8686 20.2533C41.7952 20.4009 40.842 20.5319 40.2471 20.6806C33.3625 21.4885 26.3546 22.1237 19.414 21.8234C18.5298 20.7163 17.3305 19.8264 16.0471 19.2305C15.4381 19.1459 14.7718 20.0687 14.1374 21.4005C12.9703 21.2608 11.8066 21.0887 10.6471 20.8806C17.4471 17.4806 25.1471 16.2306 32.6971 16.3306L33.2503 16.3504C38.6283 16.5424 44.1747 16.7404 49.3471 18.4806C48.6763 19.375 45.9648 19.8205 43.5723 20.1559Z" fill="black"/>
</svg>
