<svg width="94" height="185" viewBox="0 0 94 185" fill="none" xmlns="http://www.w3.org/2000/svg">
<path fill-rule="evenodd" clip-rule="evenodd" d="M75.4 86.404C73.95 85.804 72.65 84.704 71.65 83.504L71.6344 83.4809L71.6085 83.4434C71.5039 83.2923 71.3563 83.079 71.4 82.904C71.4 82.8203 71.5053 82.7716 71.5982 82.7286L71.6189 82.719C71.6296 82.714 71.6401 82.709 71.65 82.704C71.8896 82.5373 72.1336 82.375 72.3778 82.2125C73.3057 81.595 74.2376 80.9748 74.9501 80.104C77.6501 76.204 78.9 71.504 79.85 66.904C81.6563 57.2703 81.0681 47.5023 80.4809 37.7498V37.7497C80.1903 32.9247 79.9 28.1034 79.9 23.304C79.8231 20.9406 79.8571 18.5624 79.8911 16.1808V16.1807V16.1805V16.1803V16.1801V16.1799V16.1797V16.1795V16.1793V16.1791V16.179V16.1788V16.1786V16.1784V16.1782V16.178V16.1779C79.9455 12.3631 80.0001 8.53963 79.6 4.75401C79.6 4.75401 79.6 4.454 79.55 4.404C79.4 4.379 79.2375 4.36651 79.075 4.35401C78.9125 4.34151 78.75 4.32901 78.6 4.30401C75.0348 4.12925 71.494 4.29656 67.9435 4.46433C66.4151 4.53655 64.8848 4.60886 63.35 4.654C62.4777 4.7211 61.6004 4.7732 60.7215 4.82539C57.6707 5.00653 54.6001 5.18886 51.65 6.00401C50.65 6.55401 48.1 4.404 47.35 3.654C47.25 3.554 46.85 3.10401 47.3 3.05401C50.582 2.17882 53.9789 1.87809 57.3231 1.58203C57.8 1.53981 58.2758 1.49769 58.7501 1.45401C60.0313 1.37952 61.3125 1.29171 62.595 1.20382C65.6169 0.996716 68.6462 0.789112 71.7001 0.754009C74.7501 0.704009 77.9501 1.10401 80.4501 2.95401C81.7501 3.85401 83.15 4.85402 83.8 6.35402C84.5085 9.57407 84.4288 12.8771 84.3491 16.1829C84.3051 18.0102 84.261 19.8385 84.35 21.654C84.3 27.454 84.65 33.204 85.1 39.004C86 50.554 86.55 62.404 83.55 73.754C82.6 77.104 81.4 80.454 79.5 83.404C78.7446 84.5593 77.5548 85.2803 76.3869 85.988C76.2406 86.0766 76.0947 86.165 75.9501 86.254L75.922 86.2729C75.7756 86.3714 75.5878 86.4979 75.4 86.404ZM62.9001 85.7541C53.3501 82.1041 47.9001 73.3541 45.7501 63.7041C43.0001 52.9541 43.0501 41.804 43.6001 30.804C43.8334 25.204 44.3668 19.6374 45.2001 14.1041C45.3501 12.9041 45.5501 11.6541 45.7501 10.4041C45.7622 10.3676 45.7714 10.3223 45.7813 10.2739C45.8119 10.1231 45.8487 9.94191 46.0001 9.90405C46.4001 10.0541 47.0501 10.4541 47.0501 10.8541C47.0001 11.4038 46.9501 11.9661 46.9002 12.5283L46.9001 12.529C46.8501 13.0915 46.8001 13.654 46.7501 14.2041C45.9001 25.0041 46.2001 35.8041 46.5501 46.6041C47.5501 57.8541 48.8501 71.9041 56.4501 80.7541C57.2946 81.6709 58.4068 82.2384 59.5171 82.805C60.7078 83.4126 61.8963 84.0191 62.7501 85.054C62.9501 85.204 63.4501 85.8541 62.9001 85.7541ZM65.65 102.254C66.25 103.604 67.6501 104.504 68.9501 105.104C69.2851 105.171 69.216 104.856 69.149 104.551C69.116 104.401 69.0835 104.253 69.1 104.154C68.9 103.021 68.75 101.871 68.65 100.704C68.475 98.504 68.35 96.304 68.225 94.104C68.1 91.904 67.9751 89.704 67.8 87.504C67.783 87.2136 67.76 86.929 67.7373 86.6463L67.7372 86.6458C67.6933 86.1012 67.65 85.5634 67.65 85.004C67.7 84.754 67.5 84.504 67.35 84.354C67.15 84.054 64.8501 82.004 64.8 82.754C65.2051 86.5343 65.2456 90.3551 65.2861 94.18V94.1803L65.2861 94.1815C65.2906 94.6057 65.2951 95.0298 65.3 95.454C65.3116 95.9736 65.3151 96.4958 65.3187 97.0195V97.0205C65.3305 98.7643 65.3425 100.524 65.65 102.254ZM28.3499 184.754C27.0999 184.154 25.75 183.104 25.2 181.854C25.5933 181.264 26.051 180.696 26.5028 180.135C26.7402 179.84 26.976 179.547 27.2 179.254C29.8155 175.693 33.1654 172.799 36.5105 169.909L36.5107 169.909C40.7752 166.225 45.032 162.548 47.7499 157.504C48.0519 156.978 48.3672 156.454 48.6835 155.928C49.9909 153.754 51.3168 151.55 51.7999 149.054C52.0886 146.691 51.6808 144.49 51.2858 142.359C50.5859 138.582 49.926 135.021 53.2499 131.154C55.6168 128.565 58.397 126.426 61.1769 124.288C64.0346 122.089 66.8921 119.891 69.2999 117.204C71.3999 114.854 73.8499 111.654 72.6499 108.304C72.6105 107.713 71.6691 107.805 71.0032 107.871H71.0031L71.0029 107.871C70.8246 107.888 70.6661 107.904 70.5499 107.904C66.3999 108.354 62.4499 110.104 58.8499 112.204C55.1499 114.354 51.5499 116.704 48.6499 119.904C46.7952 121.712 44.6396 123.177 42.4621 124.656C42.2915 124.772 42.1207 124.888 41.95 125.004C41.6434 125.193 41.3369 125.392 41.0284 125.594L41.0283 125.594L41.0282 125.594L41.0281 125.594L41.028 125.594L41.028 125.594C40.0282 126.245 39.0078 126.91 37.8999 127.254C37.2499 127.304 35.4999 125.954 35.4999 125.354C36.4693 125.54 38.4953 123.92 39.9813 122.731C40.4881 122.325 40.9321 121.97 41.2499 121.754C43.4999 120.054 45.4499 118.054 47.2499 115.904C51.1499 111.904 56.0499 108.954 61.0999 106.754C63.5999 105.804 66.2999 105.004 68.9999 105.254C73.3999 105.954 77.4999 110.504 75.7999 115.054C74.1058 120.211 69.308 123.978 64.6976 127.598C60.0554 131.243 55.603 134.738 54.7 139.354C54.3429 141.563 54.8025 143.762 55.2609 145.956C55.8296 148.678 56.3966 151.391 55.3999 154.104C52.9499 159.804 49.6999 165.554 44.8499 169.554C44.0557 170.196 43.256 170.833 42.4559 171.471L42.4549 171.471C39.8304 173.562 37.2021 175.655 34.7499 177.954C33.1499 179.454 31.6999 181.104 30.2499 182.754C29.6833 183.421 29.1166 184.071 28.5499 184.704C28.4833 184.737 28.4166 184.754 28.3499 184.754ZM0.75 168.204C1.3 169.304 2.54998 170.054 3.59998 170.504C3.84077 170.552 3.84963 170.507 3.89463 170.281L3.89996 170.254C4.47382 168.596 5.00703 166.918 5.53847 165.245L5.53868 165.245L5.53874 165.245C5.84069 164.294 6.14208 163.346 6.45001 162.404C8.21603 157.454 9.63646 152.397 11.0576 147.337L11.0577 147.337C12.6945 141.509 14.3322 135.678 16.5 130.004C22.2 114.804 33.25 98.1539 47.45 89.7539C47.7272 89.6185 48.006 89.479 48.2867 89.3385L48.2874 89.3382C50.1839 88.3893 52.1661 87.3974 54.3 87.3539L54.3214 87.3593L54.3215 87.3593C54.5239 87.4103 54.8465 87.4916 54.75 87.1539C53.95 85.9539 51.5 83.8039 50 83.8539C47.4619 84.6348 45.162 86.0352 42.9143 87.4038L42.75 87.5039C33.8 93.3039 26.8 101.654 20.9 110.454C14.25 120.704 10.25 132.354 7.34998 144.104C6.12358 148.966 4.70536 153.827 3.29695 158.656L3.29686 158.656C3.09752 159.339 2.89838 160.022 2.70001 160.704C2.00001 163.204 1.35 165.704 0.75 168.204ZM50.15 109.254C49.3 108.904 48.4 108.254 48 107.404C48.8049 105.54 50.1122 103.856 51.3747 102.229C51.6023 101.936 51.8285 101.644 52.05 101.354C54 99.154 56.15 96.804 58.6 95.304C59.35 95.554 61.05 96.704 61.15 97.504C56.9 100.704 52.6 104.804 50.15 109.254ZM71.8501 92.754C70.9501 93.054 73.5001 94.804 73.9501 94.854L73.9681 94.8453L73.9682 94.8452L73.9683 94.8452C77.0626 93.3479 80.2567 91.8024 83.6501 91.004C84.1412 90.8346 84.6841 90.7398 85.2338 90.6438C86.307 90.4565 87.4066 90.2644 88.2001 89.504C89.6501 87.104 83.7001 84.104 81.7001 84.804C81.5001 84.804 81.4501 85.054 81.6001 85.204C82.2651 86.1858 83.3114 86.305 84.3702 86.4256C84.9831 86.4954 85.6002 86.5657 86.1501 86.804C86.2216 88.1273 84.4767 88.4017 83.0016 88.6337C82.4146 88.726 81.8702 88.8117 81.5001 88.954C78.1501 89.804 74.8501 91.004 71.8501 92.754ZM88.4502 105.954C87.3752 105.954 86.3002 105.917 85.2252 105.879C84.1501 105.842 83.0751 105.804 82.0001 105.804C80.8153 105.667 79.8382 104.783 78.9552 103.984C78.8693 103.906 78.7843 103.829 78.7002 103.754L78.7001 103.754C78.5999 103.654 77.7002 102.754 78.1501 102.704C79.145 102.763 80.1484 102.885 81.1541 103.008L81.1544 103.008L81.1546 103.008L81.1549 103.008L81.1551 103.009L81.1554 103.009L81.1556 103.009L81.1559 103.009L81.1562 103.009L81.1564 103.009C83.587 103.306 86.0311 103.605 88.4001 103.004C89.5501 102.654 90.4001 101.254 89.7501 100.154C88.9501 99.754 88.1501 99.454 87.3001 99.254C86.293 98.9427 85.5876 98.9064 84.9753 98.8748C83.9156 98.8202 83.1346 98.78 81.5501 97.354C81.2001 97.104 79.4501 95.504 80.8001 95.854C85.0501 96.254 89.2501 98.054 92.2501 101.104C95.1501 104.204 91.5502 106.304 88.4502 105.954ZM75.9001 118.454C77.0001 120.904 83.4001 125.804 86.1501 125.804C90.3501 125.954 89.0001 121.154 87.6501 118.854C87.1104 117.864 86.5166 116.929 85.9229 115.993L85.9228 115.993L85.9227 115.993L85.9226 115.993L85.9225 115.993L85.9224 115.992L85.9223 115.992L85.9222 115.992L85.9221 115.992L85.9218 115.991L85.9214 115.991L85.9211 115.99L85.9208 115.99L85.9204 115.989L85.9201 115.989L85.9197 115.988L85.9194 115.988C85.5243 115.365 85.1293 114.743 84.7502 114.104C84.7275 114.07 84.6997 114.036 84.6714 114.001C84.5749 113.883 84.4729 113.759 84.5502 113.604C84.3502 112.604 81.8002 109.954 80.8002 110.054C80.7002 110.221 80.778 110.387 80.8557 110.554C80.8946 110.637 80.9335 110.721 80.9502 110.804C81.4628 111.761 82.0748 112.671 82.6863 113.581L82.6863 113.581L82.6863 113.581L82.6864 113.581L82.6864 113.581L82.6865 113.581L82.6865 113.581L82.6866 113.581L82.6866 113.581C83.8641 115.333 85.0395 117.081 85.5002 119.154C86.5502 122.604 83.2502 123.604 80.7502 121.854C80.2663 121.722 79.3568 120.913 78.4513 120.107C77.2984 119.082 76.1522 118.062 75.9001 118.454ZM66.8639 145.736L66.866 145.736C67.2496 145.758 67.6285 145.779 67.9999 145.804C70.8115 145.98 73.623 145.885 76.4006 145.792H76.4007H76.4008H76.401H76.4011H76.4013H76.4014H76.4015H76.4017C76.7851 145.779 77.1679 145.766 77.5499 145.754C78.0316 145.7 78.5387 145.711 79.0486 145.721H79.0488C79.9679 145.739 80.896 145.758 81.7 145.404C83.1924 144.345 80.2346 142.219 79.2095 141.483L79.0999 141.404C76.4999 139.954 73.9999 137.904 73.7999 134.754C73.7328 134.36 73.684 134.019 73.6407 133.716L73.6405 133.715C73.4261 132.217 73.3474 131.668 71.8499 130.254C71.7752 129.944 71.7104 129.658 71.6503 129.393L71.6499 129.391C71.1872 127.349 71.0005 126.525 68.7 125.154C67.9838 124.735 68.1219 125.249 68.4067 126.309C68.9369 128.284 69.9755 132.151 66.95 135.404C64.6093 138.4 60.9538 139.862 57.5427 141.226L57.5394 141.228L57.5345 141.23C57.305 141.321 57.0767 141.413 56.8499 141.504C56.7255 141.67 56.9794 142.008 57.1267 142.204C57.1401 142.221 57.1526 142.238 57.1638 142.253C57.1781 142.273 57.1904 142.29 57.2 142.304C59.4969 145.321 63.3759 145.54 66.8639 145.736ZM76.8153 142.453L76.8144 142.453H76.8142H76.814H76.8137H76.8135H76.8132H76.8129H76.8126C72.9199 142.677 68.9661 142.904 65.0502 142.904C67.0002 141.804 69.8002 139.904 71.0502 137.554C71.3502 137.054 71.6002 136.554 71.8002 136.054C71.8335 135.887 71.8669 135.887 71.9002 136.054C73.7002 138.554 76.1002 140.554 78.5502 142.354C77.9735 142.386 77.3951 142.42 76.8153 142.453ZM49.7 34.6038C50 35.9538 51.8499 37.8038 53.0499 38.5038C53.0891 38.5038 53.1283 38.5107 53.1658 38.5172C53.2715 38.5356 53.363 38.5516 53.3999 38.4038C53.4249 38.3288 53.4124 38.3163 53.3999 38.3038C53.3874 38.2913 53.3749 38.2789 53.3999 38.2038C54.7499 36.4039 56.7499 35.1539 58.8999 34.4538C61.1423 33.7943 62.4955 34.0144 63.8476 34.2344C65.5706 34.5147 67.292 34.7947 70.8499 33.2538C71.0443 33.1862 71.24 33.1187 71.4365 33.0508L71.4386 33.0501C72.4041 32.7167 73.3865 32.3775 74.2999 32.0038C74.3799 31.6838 74.1399 31.3638 73.9383 31.095L73.9382 31.0949C73.8879 31.0278 73.8399 30.9638 73.7999 30.9038C73.6778 30.7817 73.5474 30.6306 73.4087 30.4699L73.4086 30.4698C72.8659 29.8409 72.1963 29.0649 71.3999 29.3038C69.8718 29.5415 68.4129 30.0329 66.9448 30.5274C66.2513 30.761 65.5558 30.9953 64.8499 31.2038C63.4074 31.6546 61.9243 31.4145 60.4737 31.1797C60.3154 31.154 60.1574 31.1285 59.9999 31.1038C58.5999 30.9538 57.1999 31.0538 55.8499 31.4038C53.5499 31.9038 51.5 33.2538 49.7 34.6038ZM66.6 77.7539C62.6088 76.8559 59.862 72.3237 57.8631 69.0255L57.85 69.0039C55.7 65.3539 54.5001 61.2539 53.9501 57.1039C53.6001 54.4789 53.4876 51.8414 53.3751 49.2039C53.2626 46.5664 53.15 43.9289 52.8 41.3039C52.85 41.1039 53.3 41.4539 53.35 41.5039C53.8 41.8539 54.2001 42.3039 54.55 42.7539L54.5688 42.7789C54.7161 42.9746 54.898 43.2163 54.85 43.5039C54.9 44.0039 54.9501 44.5539 55.0001 45.1039C55.2045 46.9125 55.3496 48.7261 55.4945 50.5368L55.4945 50.537L55.4945 50.5371L55.4945 50.5373L55.4945 50.5374L55.4945 50.5376V50.5376C55.8102 54.4834 56.1247 58.4156 57.05 62.2539C57.8 65.9039 59.35 69.3539 61.35 72.4539C62.5 74.8039 64.75 75.9039 66.55 73.4539C67.4121 72.3046 67.9708 70.9867 68.5305 69.6664L68.5306 69.6662L68.5312 69.6649L68.5317 69.6635L68.5323 69.6622C68.6538 69.3756 68.7753 69.089 68.9 68.8039C68.9723 68.6266 69.0447 68.4492 69.1172 68.2719C70.1483 65.7486 71.1829 63.2167 71.65 60.5539C72.6 54.7539 73.25 48.9039 72.55 43.1039C72.5198 42.56 72.4759 42.0161 72.4321 41.4736L72.4321 41.4733L72.4321 41.473L72.432 41.4727L72.432 41.4724L72.432 41.4721C72.3308 40.2197 72.2303 38.9746 72.3 37.7539C73.2001 37.8039 74.55 39.6039 75.05 40.3039C75.3908 40.8151 75.4297 41.4192 75.4673 42.0054C75.4849 42.2792 75.5023 42.5492 75.55 42.8039L75.5508 42.8147C75.6506 44.2111 75.7503 45.6074 75.85 46.9539C76.3 51.2539 75.9 55.5539 75.3 59.8539C74.9501 63.5539 73.8501 67.0539 72.2501 70.4039C71.9654 70.9277 71.6833 71.5968 71.3796 72.3171L71.3794 72.3175L71.3794 72.3176C70.3496 74.7602 69.0711 77.7925 66.6 77.7539ZM58.45 43.354C57.9 45.404 59.95 47.104 61.45 48.154C61.8 48.354 62.2 48.454 62.6 48.304C63.3577 48.1356 62.1664 46.9041 61.5916 46.31L61.5915 46.3099C61.4836 46.1983 61.3974 46.1093 61.35 46.054C61.3569 46.0331 61.3658 46.0027 61.3765 45.9661C61.4426 45.739 61.5778 45.2748 61.75 45.404C62.3 45.554 61.85 44.804 61.7 44.604C61 43.654 60.15 42.504 59 42.054C58.9334 42.054 58.8833 42.0873 58.85 42.154C58.8095 42.262 58.7654 42.3663 58.7215 42.47C58.603 42.7503 58.4865 43.0255 58.45 43.354ZM70.7501 43.1039C68.4501 42.2039 65.4502 36.4039 69.4502 40.6039C69.7002 40.8539 69.9001 41.2039 70.0501 41.5039C70.0744 41.5342 70.1156 41.5822 70.1677 41.643C70.5453 42.0829 71.497 43.1917 70.7501 43.1039ZM58.4002 55.4039C59.1502 56.9039 60.2502 58.354 61.7002 59.254C62.8002 59.254 61.1002 56.6539 60.7502 56.3039C60.6733 56.2194 60.5835 56.1112 60.4833 55.9906L60.4833 55.9906C59.932 55.3269 59.0695 54.2885 58.3502 54.754C58.2002 54.904 58.3002 55.2039 58.4002 55.4039ZM65.7 68.7041C64.95 68.3041 64.25 67.604 63.9 66.804C63.9 66.654 63.95 66.6541 64.05 66.6541C64.7 66.5541 65.1 66.0041 64.95 65.3541C64.55 65.3041 62.65 63.4041 63.1 63.1541C65.35 63.1541 68.95 68.8041 65.7 68.7041ZM66.65 53.204C67.2 54.204 68.0501 55.204 69.1001 55.804C70.0001 55.904 67.8001 53.604 67.6001 53.454C67.4001 53.204 66.3 52.254 66.65 53.204Z" fill="black"/>
</svg>
