<svg width="72" height="143" viewBox="0 0 72 143" fill="none" xmlns="http://www.w3.org/2000/svg">
<path fill-rule="evenodd" clip-rule="evenodd" d="M5.99707 11.3512C6.44707 12.8012 8.04707 13.7012 9.29707 14.4012C16.4471 17.0512 24.2471 17.9012 31.8471 18.0512C40.2968 17.7599 50.5388 16.1007 55.9309 8.99685C60.9119 15.6925 64.1932 24.7702 62.547 33.1013C61.947 35.1513 61.2469 37.1513 60.2469 39.0513C60.9469 40.4513 62.647 41.4013 64.097 42.0013C64.1303 42.0346 64.1636 42.0513 64.197 42.0513C64.2636 42.0513 64.3136 42.0346 64.347 42.0013C67.147 37.7013 68.047 32.4513 66.847 27.4513C65.2163 20.2946 62.2727 12.0301 56.0086 7.75025C55.1655 6.74081 53.2486 5.19747 52.8471 6.20124C46.7971 12.8012 37.4971 15.1512 28.8471 15.4012C22.5971 15.4012 16.3971 14.6512 10.3471 13.0512C10.79 12.7348 11.4132 12.3984 12.0265 12.0673L12.0265 12.0673C12.3824 11.8752 12.735 11.6848 13.0471 11.5012C14.0778 10.9908 15.4072 10.2568 16.9187 9.42225L16.919 9.42212L16.919 9.4221C23.1069 6.00565 32.3475 0.903728 36.6471 2.55124C38.1471 3.10124 35.6971 1.00124 35.2971 0.851243C30.927 -1.98339 20.76 3.36594 13.8274 7.01348C11.9555 7.99833 10.3195 8.85911 9.09706 9.40124C8.75431 9.62403 8.35869 9.8057 7.96054 9.98854L7.96052 9.98855C7.19705 10.3391 6.42428 10.694 5.99707 11.3512ZM46.1969 66.2514C47.475 63.8936 49.8018 62.0602 52.1204 60.2334L52.1204 60.2334C55.0628 57.915 57.9919 55.6072 58.7469 52.2514C52.9969 52.0014 47.0969 53.3514 41.8469 55.6514C39.2618 56.8457 36.9236 58.945 34.6594 60.9777C29.4349 65.6683 24.6049 70.0047 18.0469 62.0514C17.9967 61.9342 17.6998 61.6097 17.3609 61.2391C16.6876 60.5029 15.8483 59.5851 16.4469 59.7514C17.4864 60.2712 18.2424 61.1244 19.0038 61.9837C19.5609 62.6124 20.1209 63.2444 20.7969 63.7514C24.465 64.8259 27.5839 61.6722 30.3572 58.868C31.3264 57.888 32.2534 56.9507 33.1469 56.2514C37.2969 52.2514 42.8969 50.6014 48.3969 49.5514C52.4969 48.7514 57.1969 48.3514 60.3969 51.6014C62.7469 53.2514 63.2969 55.9514 61.1969 58.0514C59.4951 59.979 57.7148 61.4422 56.0154 62.839C52.8217 65.4639 49.9133 67.8542 48.3469 72.6514C44.4969 70.6014 44.3969 70.1014 46.1969 66.2514ZM18.097 38.8514C22.697 44.4014 29.797 47.4514 36.897 47.6514H37.447C41.947 47.6514 46.047 45.4014 49.547 42.7514C51.1177 41.5818 52.3087 40.0324 53.4931 38.4914C54.0808 37.7269 54.6669 36.9644 55.297 36.2514C57.097 34.2014 58.747 31.9514 59.497 29.3014C60.597 26.1014 58.247 23.2514 55.497 21.9014C54.197 21.1514 52.697 20.5014 51.197 20.9014C46.8111 21.4792 42.5217 22.4984 38.2348 23.5171C34.3601 24.4378 30.4874 25.358 26.547 25.9514C22.647 26.7014 18.697 27.8014 15.397 30.1014C15.247 30.2014 15.047 30.3514 15.247 30.5014C15.9748 31.1527 16.9081 31.8039 17.867 32.1403C17.3312 33.1159 16.8429 34.1162 16.5471 35.1514C16.8471 36.3014 21.1971 39.1014 22.2471 37.9514C22.175 38.2581 22.0637 38.5713 21.951 38.8887C21.781 39.3674 21.6076 39.8557 21.5599 40.3453C20.8388 39.6572 20.0603 39.0409 19.097 38.6514C18.597 38.3514 16.997 37.7514 18.097 38.8514ZM21.5471 30.8514C21.4614 30.8184 21.3626 30.7698 21.2546 30.7118C21.8311 30.4262 22.4251 30.1769 23.0236 29.9509C22.9427 30.0343 22.8621 30.1177 22.7815 30.2011C22.5535 30.4371 22.3263 30.6722 22.0971 30.9014C22.0644 30.9341 22.0385 30.9617 22.0172 30.9844C21.9687 31.0362 21.9442 31.0623 21.917 31.0654C21.8893 31.0687 21.8589 31.048 21.7974 31.0064C21.7438 30.9701 21.6666 30.9178 21.5471 30.8514ZM28.6715 28.9332C28.4943 28.8129 28.3136 28.6904 28.1291 28.5711C29.7527 28.2364 31.3879 27.9621 33.0265 27.7059C32.3068 28.3045 31.549 29.1553 30.8986 29.8855C30.4209 30.4217 30.0012 30.8929 29.6971 31.1514C30.0971 30.4014 29.8971 29.6514 29.1471 29.2514C28.9912 29.1501 28.8328 29.0426 28.6716 28.9333L28.6715 28.9332ZM38.1471 29.2014C37.3941 28.4107 36.4425 27.7901 35.4206 27.3397C38.5513 26.8649 41.6791 26.3809 44.7461 25.5925C42.1145 27.9943 39.9137 30.8035 37.7295 33.5917C36.8419 34.7247 35.957 35.8542 35.0471 36.9514C35.6348 35.5242 36.293 34.1322 36.9624 32.7163C37.0904 32.4456 37.2188 32.1742 37.3471 31.9014C37.4291 31.6227 37.5971 31.3279 37.7682 31.0275L37.7682 31.0274C38.1191 30.4117 38.4832 29.7727 38.1471 29.2014ZM52.9673 23.7655L52.9672 23.7655C51.2795 24.0903 49.5951 24.4146 47.921 24.7943C48.1917 24.9476 48.4557 25.1216 48.702 25.284C48.8773 25.3997 49.0437 25.5094 49.1971 25.6014C49.2659 25.6014 49.3347 25.6645 49.3987 25.7232C49.4742 25.7925 49.543 25.8556 49.5971 25.8014C50.0304 25.4014 50.4971 25.0181 50.9971 24.6514C51.7675 23.5814 54.6631 25.2593 55.7318 26.4233C55.9309 25.3536 55.8514 24.2974 55.347 23.3014C54.5536 23.4601 53.7602 23.6128 52.9675 23.7654L52.9673 23.7655ZM50.597 34.8514C50.7768 34.6208 50.9694 34.3793 51.1708 34.128C51.0246 34.0356 50.8809 33.9415 50.7401 33.8493C50.5539 33.7274 50.3727 33.6087 50.1971 33.5014C50.1136 33.4596 50.061 33.4256 50.0255 33.4026L50.0255 33.4026C49.9891 33.3791 49.9706 33.367 49.9547 33.3699C49.9382 33.373 49.9246 33.3924 49.8968 33.4322L49.8968 33.4323C49.8839 33.4508 49.8679 33.4737 49.8471 33.5014C49.7138 33.7014 49.5804 33.9181 49.4471 34.1514C48.6745 35.2063 47.9328 36.2878 47.1918 37.3681L47.1917 37.3682C46.2199 38.7852 45.2493 40.2003 44.2119 41.5514C46.7172 39.7367 48.8796 37.4552 50.597 34.8514ZM36.8421 43.0865C37.39 43.5046 38.1242 44.065 38.8745 44.4766C38.4381 44.6476 37.9955 44.8061 37.547 44.9514C36.3778 45.2265 35.1784 45.3616 33.9715 45.3754C34.5333 44.9401 35.0203 44.3515 35.4926 43.7807C35.7948 43.4154 36.0911 43.0574 36.3971 42.7514C36.5245 42.8441 36.6741 42.9582 36.8409 43.0855L36.841 43.0856L36.8419 43.0863L36.8421 43.0865ZM28.0471 43.3014C28.4869 43.9856 29.1417 44.5384 29.8771 44.9832C28.0826 44.6273 26.33 44.0456 24.697 43.3014C24.2921 43.018 23.9179 42.6977 23.5592 42.3592C24.0378 42.6167 24.5401 42.8388 25.0194 43.0506L25.0202 43.0509L25.1161 43.0934L25.2471 43.1514C26.3777 43.6814 27.1587 42.4888 27.8549 41.4259C28.144 40.9845 28.4184 40.5655 28.6971 40.3014C28.6305 40.6176 28.5197 40.9394 28.4069 41.2666C28.1808 41.9226 27.947 42.6009 28.0471 43.3014ZM7.44706 31.0014C7.79706 33.2014 8.19706 35.4514 8.99706 37.5514C11.3971 43.1514 16.6471 51.9014 21.9471 54.9014C22.5542 54.9014 21.9879 54.3147 21.5237 53.8337L21.5236 53.8336C21.3379 53.6412 21.1685 53.4657 21.097 53.3514C18.1971 50.1014 15.8971 46.3514 13.7971 42.5514C11.9637 39.1404 11.2574 35.2932 10.5621 31.5058C10.442 30.8517 10.3222 30.1993 10.1971 29.5514C9.29706 25.3014 8.64706 21.0014 8.74706 16.6014C8.75316 16.4612 8.76148 16.3284 8.76941 16.202C8.8265 15.2914 8.86296 14.7099 7.89705 14.0514C7.81012 13.9881 7.72756 13.9271 7.64912 13.8691C6.73508 13.1934 6.38125 12.9318 6.19706 14.4514C5.44799 19.029 6.2229 23.6413 6.99394 28.2305L6.99395 28.2305C7.14931 29.1552 7.30451 30.079 7.44706 31.0014ZM47.0471 115.401C47.1101 115.244 47.2526 115.146 47.3993 115.045C47.4855 114.986 47.5731 114.925 47.6471 114.851C51.5471 111.401 53.8471 106.401 54.8971 101.401C54.9913 100.886 55.0656 100.37 55.1215 99.8536C54.7246 97.8471 54.3849 95.7838 54.0483 93.7392C53.4235 89.9442 52.8094 86.2139 51.8597 83.0315L51.8471 83.0014C51.7851 82.7535 51.6002 82.315 51.396 81.8308L51.396 81.8307C51.0953 81.1177 50.7528 80.3056 50.6991 79.8562L50.6969 79.8514L50.6971 79.8381C50.6609 79.4906 50.8082 79.374 51.3025 79.7166C52.2774 80.1594 54.101 81.8094 54.2469 82.1014C54.5736 82.3627 54.6655 82.7307 54.7597 83.1079C54.8097 83.308 54.8603 83.5107 54.9469 83.7014C56.3788 87.8258 57.1895 92.1513 57.9998 96.4746C59.0854 102.267 60.1703 108.055 62.7469 113.351C64.4469 113.301 66.0969 112.301 67.4469 111.351C68.0038 110.755 68.6239 111.202 69.1563 111.586L69.1563 111.586L69.1564 111.587C69.2932 111.685 69.4243 111.78 69.5469 111.851C69.6766 111.972 69.8441 112.111 70.0293 112.265C70.8436 112.943 72.0006 113.905 71.7969 114.801C70.5969 116.501 68.3969 117.801 66.2469 117.201C65.9844 117.051 65.7219 117.154 65.4594 117.258C65.3719 117.292 65.2844 117.326 65.1969 117.351C60.4469 118.851 55.5469 120.051 50.5969 120.451C49.8969 120.451 45.1469 116.401 46.7469 116.251C46.9933 116.239 47.2396 116.225 47.4859 116.21C47.3128 115.951 47.1645 115.681 47.0471 115.401ZM53.3946 115.615C56.05 115.233 58.6783 114.689 61.2469 113.951C59.3866 112.277 58.0616 109.914 57.0558 107.163C56.2305 110.123 54.9298 112.973 53.3946 115.615ZM34.3971 132.301C32.9471 131.701 31.6471 130.601 30.6971 129.351C30.3026 128.661 30.362 127.798 30.4205 126.947C30.451 126.503 30.4813 126.063 30.4471 125.651C30.569 123.665 30.5513 121.661 30.5337 119.655C30.5006 115.905 30.4675 112.15 31.347 108.501C32.397 104.301 34.697 100.551 37.097 97.0514C40.7971 92.2014 44.6971 86.8514 44.2971 80.4014C44.3111 80.2608 44.3015 80.0093 44.2903 79.7194C44.2618 78.9788 44.2237 77.9874 44.5471 77.9514C45.3471 78.3014 45.9971 78.9014 46.5471 79.5514C46.5637 79.5847 46.5859 79.6181 46.6082 79.6514C46.6526 79.7181 46.6971 79.7847 46.6971 79.8514C46.5063 80.8054 46.5986 81.7998 46.6911 82.796C46.744 83.3663 46.7971 83.9372 46.7971 84.5014C47.1018 90.6649 44.1955 95.8879 41.2937 101.103C39.9112 103.587 38.5297 106.07 37.4971 108.651C35.5409 113.278 35.4165 118.252 35.2919 123.237C35.2159 126.28 35.1397 129.326 34.6471 132.301C34.6137 132.335 34.5637 132.351 34.4971 132.351C34.4637 132.351 34.4304 132.335 34.3971 132.301ZM9.06502 136.678C9.97966 139.177 10.7722 141.343 13.6469 142.301H13.7969C13.8469 142.301 13.8969 142.251 13.8969 142.201C13.8969 142.151 13.8719 142.089 13.8469 142.026C13.8219 141.964 13.7969 141.901 13.7969 141.851C13.6065 141.266 13.4012 140.681 13.1953 140.094C12.6442 138.524 12.0881 136.939 11.7969 135.301C10.6924 128.787 11.2883 122.242 11.8855 115.682C12.3426 110.66 12.8004 105.631 12.4969 100.601C12.4469 93.3513 11.2469 86.1513 8.84694 79.3013C8.20281 77.1757 7.41117 75.087 6.61849 72.9955C5.56524 70.2165 4.51018 67.4328 3.79695 64.5513C2.84695 58.5513 4.59694 48.9013 8.39694 44.1513C8.49694 43.7013 5.89694 41.6513 5.59694 42.5013C3.44694 45.2013 2.39694 48.6013 1.44694 51.8513C0.596942 55.2513 -0.0530611 58.8013 0.396939 62.3013C1.10327 65.6237 2.23391 68.8366 3.36634 72.0545C4.3983 74.987 5.43175 77.9237 6.14694 80.9513C7.99694 87.8513 8.24694 95.0513 8.24694 102.151C8.26293 105.748 7.95177 109.381 7.64034 113.017C6.97777 120.753 6.314 128.502 8.79695 135.951C8.88871 136.196 8.97743 136.438 9.06502 136.678Z" fill="black"/>
</svg>
