<svg width="38" height="58" viewBox="0 0 38 58" fill="none" xmlns="http://www.w3.org/2000/svg">
<path fill-rule="evenodd" clip-rule="evenodd" d="M30.0155 7.16907C29.7103 7.55826 29.4051 7.94828 29.1 8.33953C28.65 8.78953 30.2999 9.93953 30.7499 10.0895C31.5202 9.26555 32.2776 8.38382 33.0336 7.47883C33.2616 7.53797 33.4841 7.60766 33.7 7.68954C33.1953 9.89191 29.1538 10.9154 26.8688 11.494C26.6638 11.5459 26.4729 11.5943 26.3 11.6395C23.8 12.1895 21.2 12.1895 18.6 12.0395C13.55 11.6895 8.40001 11.2895 3.35001 10.6395C3.98306 10.3934 4.62092 10.1382 5.2632 9.88136L5.26336 9.88129C10.0997 7.94695 15.1859 5.91267 20.35 6.83956C20.4232 6.83956 20.4965 6.86636 20.5893 6.90034C20.6233 6.91277 20.6598 6.92615 20.7 6.93954L20.7565 6.95851C21.03 7.05064 21.2373 7.12048 21.05 6.83956C17.646 3.6538 9.74746 6.29581 4.80122 7.95028C4.08044 8.19137 3.42236 8.4115 2.85001 8.58956C2.60709 8.71102 2.33407 8.79033 2.06229 8.86928C1.55088 9.01784 1.04384 9.16512 0.75 9.58956C0.849379 10.5834 2.03514 11.2808 2.88413 11.7802L2.9 11.7895C6.1906 12.6606 9.6061 12.8863 13.0122 13.1115H13.0122C14.8851 13.2353 16.7551 13.359 18.6 13.5896C19.85 13.6896 21.25 13.7395 22.7 13.7395C27.35 13.7395 32.55 12.9895 35.45 9.93954C36 9.03954 35.25 8.13951 34.6 7.53951C34.3064 7.22918 33.989 6.96246 33.6525 6.73346C33.8348 6.51282 34.0173 6.29137 34.2 6.0696C35.1678 4.89466 36.1432 3.71068 37.1499 2.58953C37.2499 2.18953 35.1999 0.189513 34.9499 0.889513C33.9749 2.13954 32.9999 3.37708 32.0249 4.61461C31.7404 4.97569 31.4559 5.33676 31.1714 5.69815C30.0895 5.45243 28.9488 5.38955 27.85 5.38955C27.7 5.43955 27.2 5.43955 26.65 5.38955C25.65 5.33955 24.4 5.33955 24.65 5.63955C25.2 6.43955 26.05 7.38954 27.1 7.18954C27.6667 7.22287 28.2333 7.22287 28.8 7.18954C29.2039 7.17766 29.6106 7.1686 30.0155 7.16907ZM14.3478 28.6629C15.3212 29.9786 16.2952 31.2951 17.7499 32.0393C18.3336 32.0393 17.3203 30.8948 16.652 30.1399L16.652 30.1399L16.6519 30.1399C16.4043 29.8601 16.204 29.6339 16.1499 29.5393C12.9999 25.4893 9.74992 21.5893 6.44992 17.6893C6.21334 17.4274 5.97675 17.1612 5.73871 16.8933C4.56818 15.5762 3.36264 14.2197 1.94992 13.1394C0.649922 12.2894 1.39992 13.5393 1.89992 13.9893C5.07793 17.0889 7.85571 20.5579 10.6198 24.0098L10.6198 24.0098L10.6198 24.0098L10.62 24.01L10.6201 24.0102L10.6203 24.0104L10.6204 24.0106L10.6206 24.0108L10.6207 24.011L10.6209 24.0111L10.621 24.0113C11.379 24.958 12.136 25.9033 12.8999 26.8394C13.4173 27.4052 13.8824 28.0339 14.3476 28.6627L14.3476 28.6627L14.3476 28.6627L14.3477 28.6627L14.3477 28.6628L14.3477 28.6628L14.3477 28.6628L14.3477 28.6628L14.3478 28.6629ZM22 30.8394L23.2 28.5894C23.9017 27.348 24.6422 26.126 25.3983 24.9141C25.147 24.9482 24.8954 24.9719 24.6499 24.9894C22.7499 24.5894 21.2999 22.8394 20.2999 21.2394C19.1499 17.0894 22.3499 20.0395 23.3999 21.5895C24.2723 21.3119 25.5221 22.5753 26.2513 23.5589C26.5402 23.1033 26.83 22.6487 27.1196 22.1945L27.1208 22.1927L27.1208 22.1927L27.1208 22.1927L27.1208 22.1926L27.1208 22.1926C27.436 21.6982 27.7509 21.2042 28.0638 20.7102C27.4033 20.5958 26.8215 20.161 26.3499 19.6894C24.8499 18.4894 23.3499 16.5394 24.5999 14.6394C25.3499 14.5394 27.8499 16.9894 27.6999 17.7394C27.6499 17.7894 27.5999 17.7894 27.55 17.7894H27.5499C27.5499 17.7894 27.4999 17.7394 27.4499 17.7894C27.3999 17.8394 27.2499 18.0395 27.2499 18.0895C27.7994 18.5359 28.3489 19.006 28.785 19.5644C29.0085 19.2065 29.2304 18.8482 29.45 18.4894C31 16.0894 32.6 13.7394 34.25 11.3894C35.05 11.4894 36.1 12.5394 36.45 13.2894C32.2 19.5894 27.85 25.9894 23.25 31.9394C22.75 31.7394 22.25 31.3394 22 30.8394ZM18.95 36.6395C19.95 42.3895 18.95 51.6895 11.55 52.1395C10.7612 52.1738 12.0423 53.3606 13.0702 54.1029C12.721 53.9396 12.3804 53.7526 12.0499 53.5394C11.9713 53.487 11.8893 53.4209 11.8048 53.3528C11.5666 53.1608 11.3083 52.9525 11.0499 52.9894C11.6499 54.6894 14.2499 55.8894 15.8999 56.5394C17.5499 57.0894 19.2999 57.3395 21.0499 57.3395C24.3999 57.3395 27.7999 56.5395 30.8999 55.5895C30.4499 54.5395 29.3499 53.7394 28.3999 53.1394C27.8803 53.1805 27.3569 53.2851 26.8318 53.4205C26.2017 53.1251 25.5107 52.9312 24.734 52.7134L24.734 52.7134L24.7333 52.7132L24.732 52.7128C24.4806 52.6423 24.2202 52.5693 23.95 52.4894C22.05 49.0894 21.05 39.6394 21.6 35.7394C21.95 35.3894 20.1 33.6894 19.65 33.7894C19.6335 33.8734 19.618 33.9576 19.6035 34.042L19.6 34.0395C19.5791 34.0256 19.538 33.9943 19.483 33.9525L19.4828 33.9523L19.4825 33.952L19.4824 33.9519L19.4822 33.9519C19.1411 33.6924 18.2709 33.0303 18.4 33.5895L18.4 33.5897L18.4 33.5898C18.6 34.5897 18.8 35.5896 18.95 36.6395ZM24.4778 54.1239C22.4506 52.6938 21.3123 50.5982 20.6415 48.1547C19.7482 51.3185 17.8887 53.9326 14.4702 54.6232C17.0801 55.3684 20.0075 55.0679 22.6499 54.5394C23.2552 54.4598 23.8656 54.304 24.4778 54.1239ZM21.7 27.8894H21.4C19.65 27.4894 17.95 25.9394 17.35 24.2894C17.15 22.0394 18 21.4894 19.6 23.2894C19.75 23.3894 20.45 24.3394 19.85 24.1394C19.62 24.3694 19.5957 24.7758 19.5744 25.1332C19.5679 25.2419 19.5617 25.3461 19.55 25.4394C20.6969 25.296 21.6154 26.4315 22.2619 27.2307L22.35 27.3394C22.75 27.8394 22.3 27.8894 21.9 27.8894H21.7Z" fill="black"/>
</svg>
