<svg width="117" height="40" viewBox="0 0 117 40" fill="none" xmlns="http://www.w3.org/2000/svg">
<path fill-rule="evenodd" clip-rule="evenodd" d="M12.8081 9.24532C10.4728 7.59207 9.94685 5.13583 12.3514 2.19694C12.4994 2.0912 12.6708 1.83773 12.8512 1.57089C13.1614 1.11203 13.4983 0.613672 13.7892 0.759133C13.856 0.786955 13.9271 0.815854 14.0013 0.846038L14.0013 0.846048C14.6944 1.12784 15.663 1.52163 15.9747 2.19694C14.8282 3.73881 13.6273 5.90576 13.904 7.80104C15.3917 6.98857 16.5535 5.73437 17.7016 4.49487C17.988 4.18573 18.2735 3.87751 18.563 3.57728C19.5982 3.80733 20.6909 4.43997 21.3811 5.30265C21.0466 5.88795 20.4994 6.44287 19.9604 6.98948L19.9604 6.98952C19.7579 7.19484 19.5566 7.39899 19.3682 7.60314L19.3101 7.65439C19.193 7.75773 19.0743 7.86254 18.9538 7.96772C20.1432 7.71992 21.3103 7.41849 22.4161 6.97058C25.1192 6.10789 27.3047 4.15249 28.8575 1.852C28.8575 1.79449 28.915 1.67944 28.9725 1.67944C29.03 1.62192 29.2601 1.67946 29.3751 1.73697C29.4339 1.76638 29.5106 1.80238 29.5993 1.84399C30.2041 2.12786 31.366 2.67319 31.2155 3.17478C30.4103 4.6701 29.4901 6.16541 28.1674 7.37317C25.7323 9.39552 22.6456 10.1147 19.5875 10.8271C18.3842 11.1075 17.1853 11.3868 16.0323 11.7441C12.6234 12.8687 10.2238 15.475 7.84931 18.054C6.33795 19.6956 4.83677 21.3261 3.09199 22.5564C2.51686 22.4414 -0.416266 21.0611 0.388906 20.486C1.03129 19.7294 1.66305 18.9586 2.29562 18.1869L2.29563 18.1869C4.21153 15.8494 6.1348 13.503 8.38312 11.5141C9.7028 10.3884 11.2124 9.7147 12.8081 9.24532ZM29.8926 30.4932C35.5288 31.816 41.3375 32.046 47.0888 32.1611C59.6839 32.3336 72.4517 31.4709 84.5293 27.7901C85.0094 27.6392 85.4994 27.4916 85.9944 27.3425L85.9944 27.3424L85.9945 27.3424L85.9963 27.3419L85.9965 27.3418C89.6513 26.2407 93.5803 25.0569 95.8592 21.8664C98.1597 17.5529 89.5328 13.4696 86.3697 12.0893C83.7241 11.1116 80.9635 10.5364 78.2029 9.96131C78.1041 9.98108 77.8491 9.91934 77.5755 9.85312C77.0531 9.72665 76.4631 9.58383 76.7651 9.96131C77.8578 11.054 79.2957 11.8017 80.791 11.9742C80.9637 12.0109 81.1536 12.0504 81.3583 12.093L81.359 12.0931C85.6504 12.9858 96.3997 15.2217 90.8556 20.6011C87.5628 23.369 83.3592 24.5529 79.2963 25.6972L79.296 25.6973C78.4626 25.932 77.6351 26.1651 76.8226 26.4098C64.2849 30.0331 34.8961 32.3911 23.1636 27.1C15.8021 22.614 25.2341 16.8628 29.605 14.7924C34.8961 12.3768 40.6474 10.9965 46.2836 9.73125C49.6768 8.92608 53.07 8.58101 56.5208 8.40847C57.5198 8.37005 58.5444 8.38297 59.5605 8.39578H59.5605H59.5605H59.5606H59.5606C60.0653 8.40214 60.568 8.40847 61.0642 8.40847C61.4201 8.23053 60.7437 7.74288 60.3392 7.45126C60.2207 7.36588 60.1256 7.2973 60.0865 7.25823C55.0255 3.57744 34.8386 9.27117 28.9149 11.5142C23.9688 13.5271 12.2363 18.9332 19.2528 25.087C22.2434 27.7326 25.9817 29.6305 29.8926 30.4932ZM45.421 19.3932C46.2837 21.8663 49.2168 23.1315 51.5173 23.8792C55.7994 24.7243 60.1366 23.196 64.1505 21.7817L64.4001 21.6937C65.3778 21.4062 66.298 20.4284 65.9529 19.3357C65.2628 18.7031 64.2851 17.9554 63.3074 17.8979C63.4104 19.4431 62.3141 19.8351 61.0926 20.2719C60.9501 20.3228 60.806 20.3744 60.6618 20.4284C57.9587 21.3486 55.1406 22.0963 52.2075 22.3263C52.0212 22.316 51.7847 22.3187 51.5214 22.3217C50.3211 22.3353 48.5635 22.3552 48.4692 21.1761C47.9516 19.2207 54.5655 16.6901 56.1183 16.8627C56.2909 16.9202 56.4634 16.8627 56.2909 16.6326C54.2779 14.4471 52.035 14.9072 49.5619 16.0575C49.2574 16.2097 48.9052 16.3548 48.5373 16.5064C47.0988 17.099 45.421 17.7902 45.421 19.3932ZM86.1397 36.7043C84.9894 37.2794 88.8428 39.0623 89.5329 39.1773C90.9718 38.2272 92.3209 37.0591 93.6771 35.8849C95.194 34.5717 96.7198 33.2507 98.3898 32.2184C104.026 27.7899 109.72 23.2464 114.263 17.7253C114.551 22.4413 111.215 26.8697 106.902 28.5376C106.589 28.7251 106.243 28.8617 105.908 28.9935C105.627 29.1042 105.355 29.2115 105.119 29.3428C105.521 29.9754 106.326 30.3205 107.017 30.608C112.423 29.7453 117.081 24.0516 116.621 18.4729C116.545 18.0714 116.564 17.6064 116.583 17.1349C116.621 16.1879 116.661 15.2146 115.931 14.6771C115.853 14.6251 115.774 14.5716 115.695 14.5175C115.07 14.0935 114.396 13.6354 113.631 13.5844C112.338 14.2099 111.378 15.2891 110.443 16.3395C110.089 16.7376 109.738 17.1316 109.375 17.4952C107.402 19.5393 105.229 21.3374 103.049 23.1406C101.733 24.2292 100.415 25.3196 99.1375 26.4671C97.0383 28.25 94.8384 29.9179 92.6386 31.5857C90.4387 33.2536 88.2389 34.9214 86.1397 36.7043Z" fill="black"/>
</svg>
