<svg width="143" height="82" viewBox="0 0 143 82" fill="none" xmlns="http://www.w3.org/2000/svg">
<path fill-rule="evenodd" clip-rule="evenodd" d="M40.0341 81.329C26.7841 81.029 13.0841 76.429 3.98408 66.429C-7.36592 52.229 9.78408 37.379 20.4841 29.079C34.4341 19.079 64.9841 -1.57101 82.1341 0.378995C82.2206 0.425592 82.3098 0.47219 82.4004 0.519495L82.401 0.519806L82.401 0.519816C82.9905 0.82774 83.6374 1.16572 83.9841 1.72899C81.7841 1.37899 79.3341 1.62899 77.0841 2.12899C57.0341 6.429 27.2841 25.779 12.8841 40.429C-5.06592 58.829 4.98408 74.079 27.7841 78.379C46.3841 81.379 65.2341 77.429 83.3841 73.529C100.284 69.629 117.734 64.129 129.634 50.779C136.034 44.379 140.734 35.079 139.134 25.879C138.034 21.379 134.834 17.879 131.484 14.879C124.088 7.93449 113.787 7.74411 104.023 7.56366C101.907 7.52455 99.8152 7.48589 97.7841 7.37899C96.7841 7.07899 95.6341 6.42899 95.0841 5.52899C97.1581 5.46209 99.3216 5.52947 101.47 5.59637C102.533 5.62947 103.592 5.66245 104.634 5.679C117.534 5.379 129.134 9.62899 137.634 19.579C151.034 33.979 135.784 53.879 122.634 62.329C111.104 70.1883 97.3148 73.2636 83.8514 76.2663L83.8403 76.2688L83.8226 76.2727L83.8162 76.2741L83.8149 76.2744L83.8135 76.2747L83.8122 76.275C82.9847 76.4596 82.1585 76.6439 81.3341 76.829C80.7275 76.9405 80.1206 77.0524 79.5132 77.1644L79.4746 77.1715C66.4768 79.5679 53.301 81.9971 40.0341 81.329ZM38.1841 68.929C33.0841 68.979 27.7341 66.929 24.6341 62.779C22.8841 60.179 23.2841 56.829 24.1341 53.929C25.4841 48.379 29.5341 44.179 33.7341 40.529C42.1841 33.029 52.6341 27.829 63.2841 24.229C64.6637 23.775 66.0464 23.2919 67.4343 22.8071C73.9935 20.5157 80.6685 18.1838 87.6841 18.679C87.875 18.7011 88.0756 18.7188 88.2812 18.7369C89.4754 18.8424 90.8369 18.9626 91.4341 20.029C91.1786 20.0101 90.9214 19.9894 90.6631 19.9686L90.6601 19.9684L90.6598 19.9683C89.5539 19.8792 88.4275 19.7885 87.334 19.829C80.9327 19.9433 74.9379 22.2064 68.9956 24.4496C67.1402 25.15 65.29 25.8485 63.4341 26.479C51.1341 31.129 32.7841 41.479 27.8841 54.229C26.6341 57.779 25.3841 63.029 28.9341 65.629C41.1621 69.8033 52.5702 60.5204 61.595 53.1769L62.0841 52.779C64.1924 51.0006 66.2267 49.1028 68.2636 47.2025C73.3278 42.4782 78.4083 37.7386 84.6841 34.779C88.584 32.929 92.9341 32.379 97.1841 32.329C97.8298 32.2622 99.0805 32.3119 100.61 32.3728C105.949 32.585 114.683 32.9322 112.934 28.929C112.277 28.74 111.595 28.5767 110.907 28.412C108.135 27.7488 105.266 27.0622 103.584 24.579C102.89 22.8755 103.39 21.0923 103.892 19.3049C104.185 18.2594 104.479 17.2124 104.534 16.179C103.442 16.2988 102.645 16.5529 101.977 16.7657C100.415 17.264 99.5613 17.5362 97.2841 15.329L97.2403 15.2857C97.0219 15.0706 96.6208 14.6757 97.1341 14.629C100.134 13.429 103.734 12.729 106.384 14.979C107.534 15.779 108.734 16.829 108.334 18.329C108.213 19.5145 107.928 20.6532 107.644 21.7903C107.34 23.0033 107.037 24.2145 106.934 25.479C107.364 25.7746 108.039 25.9113 108.735 26.0522C109.334 26.1734 109.948 26.2977 110.434 26.529C121.184 31.429 117.534 35.579 107.384 34.929C98.8341 34.279 89.9341 34.779 82.8841 40.129C78.91 43.0232 75.0437 46.5891 71.1133 50.2141L71.1132 50.2142C61.3953 59.1772 51.2853 68.5018 38.1841 68.929ZM34.2841 50.9791C34.7841 52.6291 36.0841 54.0791 37.6841 54.7791C38.0841 54.9291 37.8341 54.4291 37.7341 54.3291C37.5554 53.9436 37.4122 53.6006 37.2823 53.2897L37.2823 53.2896C36.7215 51.947 36.411 51.2034 34.5841 50.2291C33.9841 49.9291 34.1841 50.6791 34.2841 50.9791ZM51.1841 59.0791C49.8341 58.4291 48.4341 57.3291 47.8341 55.9291C47.8841 55.0291 47.8341 54.1291 47.7341 53.2291C47.0115 47.1596 45.3608 45.8237 41.2172 42.4703L41.2162 42.4696L41.1964 42.4536C41.0456 42.3315 40.8915 42.2068 40.7341 42.0791C40.1841 41.5791 39.5841 40.4291 40.8841 41.1791C46.9841 44.6291 51.7841 51.0291 51.4841 58.2291C51.4703 58.3117 51.4755 58.4208 51.4809 58.5335C51.4949 58.8301 51.5102 59.1516 51.1841 59.0791ZM56.0588 46.2752C55.7697 47.3503 55.6536 47.782 58.6841 49.429C60.8341 46.479 58.2341 42.929 55.1841 41.629C55.6841 39.279 53.5341 37.679 51.7341 36.679C50.5867 36.0612 49.2836 36.4171 48.0653 36.7498L48.0648 36.7499C47.9028 36.7942 47.7424 36.838 47.5841 36.879C47.0841 36.929 47.2341 37.229 47.4341 37.479C48.6341 38.779 50.0841 40.229 51.8841 39.279C51.8841 39.529 51.8324 39.779 51.7808 40.0289L51.7808 40.029C51.7188 40.329 51.6568 40.629 51.6841 40.929C52.5841 42.479 54.3841 43.879 56.2341 43.829C56.4047 44.9891 56.2086 45.7185 56.0588 46.2752ZM66.2342 44.0291C63.4694 42.4624 63.7622 41.8394 64.26 40.7802C64.5724 40.1154 64.9655 39.2788 64.7342 37.9291C64.5365 37.7446 64.3214 37.567 64.1036 37.3872L64.1035 37.3872L64.1035 37.3871L64.1034 37.387L64.1033 37.387L64.1032 37.3869L64.1032 37.3869L64.1031 37.3868L64.103 37.3868L64.103 37.3867L64.1029 37.3866L64.1028 37.3866L64.1028 37.3865L64.1027 37.3865L64.1026 37.3864L64.1026 37.3864C63.4945 36.8844 62.8654 36.3651 62.5342 35.6291C62.3411 35.3073 62.4518 34.9117 62.5345 34.6164C62.6445 34.2236 62.7048 34.008 61.9342 34.3791C61.8421 34.4251 61.7558 34.4687 61.6747 34.5097L61.6738 34.5102L61.6713 34.5115L61.6708 34.5117C60.435 35.1365 60.3999 35.1542 59.1342 34.0291C59.0483 33.9309 58.9383 33.8268 58.822 33.7166C58.4643 33.3777 58.0464 32.9819 58.0842 32.5291C58.9842 31.8791 60.2342 31.5291 61.3342 31.4291C63.6842 31.7791 66.1342 34.3791 65.2342 36.8791C65.0683 37.1445 65.2766 37.2998 65.494 37.4619C65.6043 37.5442 65.7169 37.6281 65.7842 37.7291C67.7342 39.1791 67.9342 42.4791 66.2342 44.0291ZM73.0341 34.679C73.5341 35.879 74.7841 36.829 75.9841 37.429C77.3841 36.429 75.8341 34.279 74.8341 33.479C75.3841 31.979 75.4341 30.329 74.0841 29.279C73.9413 29.1512 73.7973 29.0167 73.6512 28.88L73.6509 28.8798L73.6504 28.8794L73.6502 28.8791C72.8247 28.1074 71.9306 27.2715 70.7841 27.229C69.8841 27.379 69.0341 27.679 68.1841 28.079C68.3341 29.229 70.3841 30.779 71.4841 31.229C71.5926 31.7988 72.0251 32.2214 72.4459 32.6326C72.8006 32.9791 73.1469 33.3174 73.2841 33.729C73.2841 33.9702 73.1872 34.2437 73.0972 34.4975L73.097 34.4979C73.0751 34.5597 73.0537 34.6203 73.0341 34.679ZM83.734 32.329C81.2291 30.681 81.5486 30.467 82.1863 30.0399C82.5159 29.8191 82.9306 29.5413 83.084 28.979C83.0287 28.896 82.9706 28.8122 82.9117 28.7272C82.5444 28.1974 82.1478 27.6253 82.234 26.979C82.5108 26.5292 82.1891 26.5822 81.8321 26.6409C81.6732 26.6671 81.5072 26.6944 81.384 26.679C80.984 26.829 79.034 25.129 79.684 24.979C81.134 24.729 82.634 24.629 83.584 25.929C84.684 26.729 84.484 27.879 84.234 29.029C84.2747 29.3544 84.5057 29.6302 84.7318 29.9002C85.0614 30.2937 85.3806 30.6748 85.084 31.179C84.734 31.679 84.234 32.179 83.734 32.329ZM69.6459 70.1217L69.6462 70.1218L69.6464 70.1218L69.6466 70.1218L69.6469 70.1218L69.6471 70.1219L69.6473 70.1219L69.6475 70.1219L69.6478 70.1219L69.648 70.1219L69.6482 70.122L69.6485 70.122L69.6487 70.122C70.0478 70.1545 70.4446 70.1867 70.8341 70.2291C79.1341 71.7791 92.4841 63.1291 82.0841 55.6791C80.3341 54.5291 82.1341 56.6791 82.7341 57.0291C83.7841 57.9291 83.4841 59.6291 83.1841 60.8291C81.1341 66.5291 73.8841 68.3791 68.4341 67.8291C72.7341 67.0791 76.3841 63.4291 76.7341 58.9791L76.7388 58.7957L76.7442 58.598C76.8 56.5951 76.8611 54.404 74.9341 53.2291C73.5406 52.0857 73.6792 52.8318 73.8535 53.7705C73.9231 54.1454 73.9984 54.5509 73.9841 54.8791C74.6841 60.9291 69.2841 65.2791 63.6841 65.8291C61.4841 66.0291 63.2841 67.7291 64.1841 68.4291C65.6785 69.799 67.6899 69.9626 69.6459 70.1217ZM87.0342 68.6291C85.1081 67.6661 85.5819 67.1793 86.5384 66.1967C87.8167 64.8834 89.9571 62.6844 88.3842 57.2791C89.8398 57.643 90.0539 59.2071 90.2313 60.5029L90.2315 60.5044L90.2317 60.506L90.2321 60.5084L90.2325 60.5114L90.2327 60.5133L90.2328 60.5141L90.233 60.515L90.2484 60.6276L90.2592 60.7048C90.2646 60.7439 90.2701 60.7826 90.2757 60.821C90.2785 60.8405 90.2813 60.8598 90.2842 60.8791C90.8342 63.8291 89.4342 66.9791 87.0342 68.6291ZM85.7752 43.6603C86.5516 46.4904 87.4532 49.7762 90.4841 50.979C92.8013 51.641 94.7417 49.9061 96.4473 48.3813C96.8026 48.0635 97.1478 47.7549 97.4841 47.479C100.634 52.279 103.984 51.579 107.384 47.479C107.686 47.3494 107.951 47.5183 108.179 47.6634L108.226 47.6932L108.258 47.7134L108.284 47.729C113.834 51.479 119.984 47.429 115.484 41.229C114.784 40.129 111.834 37.829 113.934 40.729C117.334 47.329 110.084 48.629 105.684 45.429C105.209 45.2866 104.87 45.685 104.58 46.0252L104.534 46.079L104.511 46.1012C103.215 47.3473 101.623 48.8787 99.6841 48.829C96.6286 43.8486 95.5337 44.9365 93.832 46.6272C92.749 47.7033 91.4203 49.0234 89.1841 49.179C88.9447 48.6338 88.7655 48.0107 88.5833 47.3776C88.0806 45.6302 87.5559 43.8061 85.6841 43.329C85.7143 43.4386 85.7446 43.5491 85.7752 43.6603ZM126.984 30.179C124.534 29.829 121.584 27.979 120.984 25.429C120.961 25.0095 121.013 24.5791 121.066 24.148C121.127 23.6543 121.187 23.1595 121.134 22.679C119.084 21.979 114.834 19.779 116.234 17.129C116.321 16.9734 116.409 16.8124 116.499 16.6483L116.499 16.648C117.129 15.4943 117.84 14.1918 118.934 13.579C119.36 13.6145 119.71 13.8263 120.056 14.0356C120.198 14.1212 120.339 14.2064 120.484 14.279L120.596 14.3626C121.367 14.9397 122.209 15.5707 122.734 16.429C122.76 16.5611 122.577 16.6932 122.384 16.8327C122.212 16.9572 122.031 17.0875 121.984 17.229C121.55 17.7907 121.189 18.2412 120.897 18.6062L120.897 18.6065C120.143 19.5468 119.845 19.9196 119.927 20.1653C119.981 20.3267 120.199 20.4332 120.561 20.6097C120.938 20.7934 121.47 21.0529 122.134 21.529C124.65 23.369 124.628 24.1937 124.588 25.6765C124.574 26.168 124.559 26.7319 124.634 27.429C125.037 27.4514 125.359 27.2137 125.664 26.9889C126.041 26.7109 126.392 26.4526 126.834 26.729C129.184 28.029 131.134 29.879 126.984 30.179ZM77.034 61.8291C77.434 62.5791 78.184 63.179 78.984 63.5291C79.734 63.3791 80.034 62.3791 79.834 61.6791C79.684 60.4291 78.584 59.5291 77.534 59.0291C77.234 58.929 77.384 59.2291 77.484 59.3791C77.784 60.0291 77.884 60.929 77.284 61.479C77.2598 61.5033 77.2296 61.5276 77.1986 61.5525C77.1017 61.6305 76.9962 61.7154 77.034 61.8291ZM75.8341 17.479C75.0917 17.247 74.5216 16.7566 73.9588 16.2726C73.3088 15.7136 72.6685 15.163 71.7841 15.029C68.9841 14.429 65.7841 14.629 63.1341 15.829C62.6841 16.329 60.5841 14.579 60.4841 14.079C62.8341 12.729 65.8841 12.679 68.5341 12.929C70.5841 13.179 72.3341 14.279 73.9341 15.429C75.3841 13.779 75.3341 11.229 74.2341 9.37898C74.1392 9.25237 74.0492 9.07566 73.9548 8.89009L73.9547 8.89002L73.9547 8.88991C73.7508 8.48924 73.5258 8.0473 73.1841 7.97897C70.4341 7.47897 67.6341 8.57897 65.3841 10.079C64.8842 10.4789 64.3842 10.9289 63.8843 11.3789L63.8841 11.379C63.8658 11.3973 63.8508 11.414 63.8373 11.429C63.7774 11.4956 63.7474 11.529 63.5841 11.529C62.9341 11.279 61.5841 10.479 61.4341 9.77897C64.4341 6.52897 70.1341 4.52898 73.8841 7.62898C76.6841 9.67898 78.8841 14.879 75.8341 17.479ZM70.7845 11.6039C70.95 11.7091 71.1041 11.807 71.2841 11.879C71.8341 11.729 69.5841 10.379 69.2841 10.479C68.6841 10.429 68.0341 10.429 67.4841 10.679C67.6341 11.129 68.2841 11.429 68.7341 11.629C69.3341 11.479 69.9841 11.379 70.5841 11.479C70.654 11.5209 70.7199 11.5628 70.7841 11.6036L70.7845 11.6039ZM80.9342 15.379C80.2341 15.129 78.5342 14.279 78.7342 13.379L78.7391 13.1617C78.7912 10.9306 78.861 7.93922 76.6342 6.72896C76.4342 6.57896 75.4342 5.72896 76.2842 5.97896C80.2342 7.47896 81.5842 11.479 81.0842 15.379C81.0175 15.4123 80.9675 15.4123 80.9342 15.379ZM26.134 38.429C26.784 39.679 28.084 40.579 29.384 41.079C29.8264 41.1192 29.5249 40.7713 29.3379 40.5555C29.2923 40.503 29.2536 40.4584 29.234 40.429L29.1988 40.3727C28.9568 39.9869 28.6864 39.5557 28.734 39.079C28.984 37.379 30.884 36.179 32.284 35.479C33.284 34.979 34.384 34.829 35.484 34.729C35.5007 34.7123 35.5229 34.7012 35.5451 34.6901C35.5896 34.6679 35.634 34.6457 35.634 34.579C35.5788 34.3306 35.356 34.1583 35.1338 33.9866C34.9535 33.8472 34.7736 33.7082 34.684 33.529C34.134 32.679 34.984 31.829 35.734 31.429C36.334 31.129 36.984 30.929 37.634 30.879C37.8771 30.798 38.4228 30.7826 39.0506 30.7649C40.7475 30.7171 43.0439 30.6524 41.584 29.229C41.4737 29.1187 41.3561 29.0108 41.2377 28.9022L41.2377 28.9022C40.8192 28.5183 40.3899 28.1246 40.234 27.579C40.034 26.929 40.434 26.329 40.834 25.929C41.734 24.979 43.034 24.429 44.284 24.479C44.884 24.529 45.484 24.579 45.984 24.829C46.084 24.879 46.1715 24.9415 46.259 25.004C46.3465 25.0665 46.434 25.129 46.534 25.179C46.5481 25.179 46.57 25.1869 46.5954 25.196C46.6604 25.2194 46.7481 25.2509 46.784 25.179C46.7556 25.0936 46.6785 25.0244 46.599 24.953C46.5388 24.8989 46.4771 24.8436 46.434 24.779C44.734 23.529 42.284 22.979 40.334 23.979C39.484 24.429 38.484 25.129 38.384 26.129C38.469 26.9788 39.0956 27.5758 39.6501 28.1042C39.7481 28.1976 39.8439 28.2888 39.934 28.379C41.034 29.279 39.034 29.429 38.484 29.429C38.1622 29.429 37.8353 29.4205 37.5061 29.412C36.0454 29.3742 34.5398 29.3353 33.234 30.029C31.934 30.679 31.684 31.779 32.784 32.779C32.8507 32.879 32.934 32.9623 33.034 33.029C33.1007 33.0956 33.0507 33.1123 32.884 33.079C32.6507 33.079 32.4174 33.0957 32.184 33.129C29.834 33.429 27.234 34.579 25.984 36.679C25.634 37.279 25.834 37.929 26.134 38.429ZM20.934 71.179C20.634 70.979 20.3674 70.7457 20.134 70.479C18.084 71.379 15.984 69.629 14.584 68.329C13.2441 66.8899 13.8744 64.8104 14.3728 63.1662L14.384 63.129C9.78403 61.279 9.43403 59.479 11.384 55.129C11.4362 55.0287 11.4884 54.9274 11.5408 54.8255L11.5409 54.8254C12.142 53.6583 12.7804 52.4188 13.884 51.729C14.4772 51.5708 15.0391 51.9443 15.545 52.2806C15.6787 52.3695 15.8086 52.4558 15.934 52.529C15.9593 52.5479 16.0037 52.5789 16.0612 52.6188L16.0616 52.6191C16.459 52.8958 17.477 53.6043 17.084 53.779C15.034 54.779 13.684 59.029 13.484 61.179C14.534 61.029 15.484 61.429 16.334 62.079C16.4195 62.1474 16.5152 62.2172 16.6146 62.2898L16.615 62.29L16.6152 62.2902L16.6153 62.2903C17.0974 62.642 17.6669 63.0575 17.584 63.679C17.4877 64.1056 17.3611 64.5359 17.2334 64.9701C16.897 66.1134 16.5528 67.2831 16.734 68.479C17.5552 68.2509 18.2515 67.6898 18.9369 67.1375C19.0026 67.0845 19.0683 67.0315 19.134 66.979C19.234 66.829 19.434 66.729 19.684 66.829C20.634 67.279 21.734 67.879 22.234 68.829C22.134 69.379 22.034 69.979 22.184 70.579C22.1969 70.6175 22.2031 70.666 22.2095 70.7158C22.2281 70.86 22.2483 71.0161 22.434 70.979C22.9466 71.0091 23.4774 70.9302 24.0044 70.8518C24.3513 70.8002 24.6966 70.7488 25.034 70.729C25.984 71.079 26.784 71.679 27.484 72.379C27.584 72.479 27.734 72.629 27.784 72.779C27.863 73.0555 26.6005 73.1447 25.8941 73.1947H25.894C25.7061 73.208 25.5576 73.2185 25.484 73.229C23.784 73.179 22.234 72.279 20.934 71.179ZM53.5878 75.8212C54.1471 76.0247 54.9253 76.3077 56.284 76.6291C56.784 76.7791 59.884 75.9791 59.834 75.5291C59.334 74.7291 57.934 73.3791 56.984 73.3291C54.2385 74.6594 53.0311 74.1471 51.7565 73.6062C50.7795 73.1916 49.763 72.7603 47.984 73.1291C47.234 73.2291 46.484 73.3791 45.784 73.5791C45.734 73.5791 45.7007 73.5846 45.6785 73.5883C45.659 73.5916 45.648 73.5934 45.6419 73.5888C45.634 73.5829 45.634 73.5665 45.634 73.5291C45.534 72.3791 43.434 71.0291 42.434 70.6291C42.1203 70.5245 42.1711 70.9303 42.2137 71.2704C42.2322 71.4181 42.2492 71.5534 42.234 71.6291C42.134 72.9291 42.984 74.0291 43.984 74.8291C45.134 75.8291 46.634 76.9291 48.234 76.3291C52.1623 75.3028 52.233 75.3285 53.5878 75.8212ZM109.734 60.479C108.634 60.429 107.684 59.879 106.834 59.329C105.569 58.9513 104.553 59.2298 103.591 59.4937C102.004 59.9285 100.562 60.324 98.384 57.679C98.034 57.179 98.784 57.479 98.984 57.629C99.5798 57.96 100.373 57.7213 101.131 57.4931C101.518 57.3766 101.896 57.2628 102.234 57.229C103.589 56.7547 104.554 57.2445 105.58 57.7653C106.068 58.013 106.57 58.2678 107.134 58.429C108.661 58.5017 109.976 57.7023 111.272 56.9145C111.759 56.6188 112.243 56.3247 112.734 56.079C113.384 56.179 115.234 57.479 115.234 58.129C114.942 58.3009 114.648 58.4831 114.352 58.667L114.351 58.6672C112.923 59.5533 111.432 60.479 109.734 60.479ZM130.284 40.7791C130.984 41.2791 131.734 41.7291 132.584 41.8791C133.234 41.7791 131.684 40.5291 131.434 40.3791C131.097 40.0421 130.654 39.9181 130.223 39.7977C130.143 39.7751 130.063 39.7527 129.984 39.7291C128.299 38.3992 127.48 38.6021 125.817 39.0137C125.604 39.0664 125.378 39.1224 125.134 39.1791C125.108 38.5285 125.299 37.9051 125.488 37.2875C125.662 36.7185 125.834 36.1546 125.834 35.5791C125.679 35.2295 125.402 34.9704 125.123 34.708C125.043 34.6327 124.962 34.5571 124.884 34.4791C124.768 34.402 124.653 34.3117 124.535 34.22C124.196 33.9551 123.843 33.6791 123.434 33.6791C123.404 34.2267 123.248 34.8137 123.089 35.4103C122.71 36.8293 122.317 38.3027 123.584 39.4291C125.384 41.4291 126.984 41.5291 129.384 40.7791C129.429 40.7716 129.475 40.763 129.521 40.7543C129.786 40.7048 130.071 40.6515 130.284 40.7791Z" fill="black"/>
</svg>
