<svg width="60" height="53" viewBox="0 0 60 53" fill="none" xmlns="http://www.w3.org/2000/svg">
<path fill-rule="evenodd" clip-rule="evenodd" d="M24.6588 40.3279C20.6755 38.6207 18.1148 34.6943 14.416 32.475C9.46525 28.7193 4.00235 24.8498 1.21402 19.1024C-2.65551 9.14407 5.88022 4.47787 13.3917 11.5341C14.6436 9.42858 15.1557 6.86788 16.6922 4.87621C18.8545 1.74645 22.724 0.153116 26.4229 0.0393066C30.0648 0.0393066 33.1945 2.4862 35.5845 4.99001C35.6414 4.99001 35.9829 5.44526 35.9829 5.44526C36.0398 5.44526 36.0967 5.33144 36.1536 5.33144C40.0231 0.608347 47.1931 -0.188319 52.0869 3.33978C56.5255 6.0712 60.2812 10.7943 59.769 16.2572C58.574 27.4674 45.9981 34.0683 37.5193 39.7588C36.3243 39.645 34.5602 38.2224 33.8774 37.1981C33.8205 36.9705 33.9343 36.9705 34.105 36.8567C35.926 35.5479 37.8607 34.296 39.7386 33.0441C44.9169 29.516 50.3229 25.7602 53.6803 20.3543C56.6393 15.8019 56.6393 9.25788 52.8267 5.16074C50.7781 4.07954 48.1036 4.30715 45.9412 4.99001C39.4541 7.03858 39.0557 13.1274 37.2348 11.7617C31.715 8.91645 34.1619 8.00597 32.0564 3.68121C24.7157 2.99835 20.4479 6.86788 18.0579 13.4688C17.1474 16.3141 14.9281 14.2655 13.3917 13.1843C12.6519 12.6722 12.1397 11.7617 11.4 11.3064C9.1807 10.6805 6.6769 11.4772 5.36809 13.355C3.0919 16.6555 4.28688 21.2079 6.61997 24.2238C9.46521 28.0364 13.5055 30.6541 17.2612 33.4993C19.8219 35.491 22.2688 37.7103 24.7157 39.8157C24.8295 39.9295 25.0003 40.1002 24.9433 40.271C24.9433 40.3848 24.7726 40.3279 24.6588 40.3279Z" fill="black"/>
<path fill-rule="evenodd" clip-rule="evenodd" d="M19.5945 52.6761C17.7166 52.3347 15.7249 51.0259 14.8145 49.3757C14.7007 46.8149 17.6597 43.0592 19.3668 41.2383C19.879 40.6692 20.5618 41.3521 21.074 41.6366C21.3016 41.8073 22.7811 42.7747 22.2121 43.0592C20.3911 44.9371 19.0823 47.3271 18.2288 49.774C17.8873 50.2292 20.3912 49.2049 20.6757 49.148C29.3821 44.8802 26.8783 49.8309 35.6416 49.4895C38.4299 49.4895 42.5271 49.6602 43.6652 46.4735C43.8359 46.0183 43.9497 44.9371 43.5514 44.7095C42.9823 44.7095 39.4542 42.3764 40.1371 41.9211C50.323 45.1647 50.7783 53.8142 38.5438 52.5054C36.7797 52.3916 35.0156 52.2209 33.3654 51.6518C31.6583 51.1966 30.2357 49.6033 28.3578 50.1154C25.3988 50.7983 22.7242 52.6761 19.5945 52.6761Z" fill="black"/>
<path fill-rule="evenodd" clip-rule="evenodd" d="M38.5436 29.0038C38.0315 28.8331 36.0398 27.4673 36.6088 26.9552C38.0884 24.9635 39.7386 23.0857 41.4457 21.2078C41.9579 20.8095 44.3478 17.9643 44.7462 18.2488C45.3152 18.5902 46.5672 19.4438 46.6241 20.1266C44.2341 22.4028 41.8441 24.7928 39.7955 27.4673C39.4161 27.8846 39.0747 28.3399 38.7712 28.8331C38.7143 29.0038 38.6574 29.0607 38.5436 29.0038Z" fill="black"/>
<path fill-rule="evenodd" clip-rule="evenodd" d="M29.3818 28.89C25.2278 27.0122 25.2847 21.72 25.2847 17.7936C25.2847 17.1107 25.2847 16.371 25.3416 15.6881C25.3416 15.5743 25.3416 15.4605 25.4555 15.4605C26.5935 15.8019 27.7885 16.8831 28.4145 17.8505C28.2438 21.2079 27.7316 24.7929 29.2112 27.9226C29.2112 28.1503 29.9509 29.0038 29.3818 28.89Z" fill="black"/>
<path fill-rule="evenodd" clip-rule="evenodd" d="M21.6997 31.6782C18.8545 30.4832 12.3104 22.9718 11.969 19.9559C12.9933 19.899 14.8143 21.7768 15.4971 22.5166C15.6678 22.7442 15.8954 22.9718 15.9523 23.1994C15.9523 23.4839 16.0093 23.7685 16.1231 23.9961C17.3181 26.5568 19.3666 28.6623 21.3583 30.597C21.529 30.7677 22.4395 31.7351 21.6997 31.6782Z" fill="black"/>
</svg>
