<svg width="65" height="66" viewBox="0 0 65 66" fill="none" xmlns="http://www.w3.org/2000/svg">
<path fill-rule="evenodd" clip-rule="evenodd" d="M47.0764 65.5C47.043 65.5 46.993 65.4833 46.9264 65.45C46.2264 65.25 43.3764 62.5 43.8764 61.8C45.2764 56.95 46.6764 52.05 47.8264 47.1C48.2913 45.1707 48.8642 43.263 49.4398 41.3467C50.1022 39.1411 50.768 36.9242 51.2764 34.65C51.9264 31.85 52.2264 29 52.5264 26.1C53.093 21.4334 53.6152 16.7668 54.1375 12.1002C54.3986 9.76679 54.6597 7.4334 54.9264 5.10001C55.0764 3.80001 55.3264 2.54999 55.7264 1.29999C55.7311 1.28581 55.7363 1.26941 55.742 1.25132C55.7966 1.07797 55.9 0.75 56.1264 0.75C56.8102 0.994222 57.3509 1.71561 57.795 2.30817L57.8264 2.35001C58.6231 3.6446 59.2214 5.02733 59.8262 6.42507C60.1324 7.13269 60.4403 7.84416 60.7764 8.54999C62.6264 12.35 63.9764 16.45 64.0764 20.75C64.4264 25.95 63.4264 28.95 60.1764 32.9C60.141 32.9472 60.1 33 60.0567 33.0557L60.0567 33.0558L60.0566 33.0559L60.0564 33.056C59.9165 33.2363 59.7527 33.4473 59.6764 33.6C59.178 33.5585 58.7485 33.1029 58.3881 32.7205C58.3147 32.6426 58.2441 32.5677 58.1764 32.5C58.1066 32.4128 58.0216 32.3195 57.9323 32.2215C57.5096 31.7573 56.9897 31.1866 57.5264 30.65C57.9737 29.8895 58.4711 29.179 58.9649 28.4737L58.9649 28.4737C59.5748 27.6026 60.179 26.7395 60.6764 25.8C62.4764 21.95 62.1764 17.4 61.3264 13.35C60.7465 10.9533 59.7482 8.73583 58.7474 6.51287L58.7472 6.51234C58.4536 5.86025 58.1599 5.20769 57.8764 4.54999C57.8264 4.42499 57.7764 4.31249 57.7264 4.2L57.7264 4.19997C57.6764 4.08748 57.6264 3.975 57.5764 3.85001C57.3764 4.55001 57.2264 5.24998 57.1264 5.94998C57.0849 6.50028 57.0436 7.05089 57.0022 7.60175L57.0001 7.6299C56.2946 17.0299 55.5836 26.504 54.0264 35.8C53.5953 38.1119 52.9801 40.3931 52.3731 42.6435L52.373 42.6437C52.2055 43.2648 52.0386 43.8836 51.8764 44.5C51.3021 46.6928 50.8504 48.9129 50.4005 51.1247L50.4004 51.1247L50.4004 51.1249C49.9886 53.1493 49.5782 55.1668 49.0764 57.15C48.8588 58.0386 48.6082 58.9207 48.3582 59.8009L48.3582 59.801L48.3582 59.8011C47.9189 61.3477 47.4813 62.8887 47.2264 64.45C47.193 64.6166 47.1764 64.7833 47.1764 64.95C47.1764 65.0643 47.1764 65.0643 47.1857 65.0899C47.1927 65.1092 47.2049 65.1429 47.2264 65.25C47.2764 65.45 47.1764 65.5 47.0764 65.5ZM12.0764 58.9498C12.1764 56.8164 12.1764 54.6998 12.0764 52.5998C11.5764 46.7498 10.1764 40.9498 8.07642 35.4998C7.1791 32.748 6.01935 30.0837 4.8604 27.4212C3.11333 23.4077 1.36808 19.3983 0.526413 15.0998C-1.22359 2.19979 5.6264 3.69978 12.8764 10.9998C19.3764 17.5998 17.0764 26.1498 9.92641 30.9998C9.37641 30.7998 6.4764 28.3998 7.6264 27.9998C11.6264 25.2498 15.2764 20.6998 14.3264 15.5998C13.7264 12.3498 11.3764 9.69976 8.3764 8.44976C1.2764 4.99976 2.87641 17.2998 4.27641 20.9498C5.13548 23.1939 6.07293 25.461 7.01924 27.7496C11.4705 38.5148 16.118 49.7542 13.7264 61.2998C12.8764 60.8498 11.8764 60.0498 12.0764 58.9498ZM28.4763 57.8498C29.0263 58.7998 29.8263 59.7998 30.7763 60.3998C30.8097 60.4331 30.843 60.4498 30.8763 60.4498C31.082 60.4498 31.0287 59.3795 30.9802 58.4053C30.9461 57.7217 30.9145 57.0854 30.9763 56.8998C30.9263 50.5498 31.3263 44.1498 32.8763 37.9998C33.9356 34.0913 35.929 30.5564 37.9205 27.0247C38.655 25.7221 39.3893 24.4201 40.0763 23.0998C42.4763 18.2998 44.5763 13.1498 44.9263 7.6998C45.0763 6.9498 43.5263 5.0998 42.8263 5.0498C42.7503 5.45535 42.7128 5.88661 42.6748 6.32402C42.6378 6.74946 42.6003 7.18072 42.5263 7.59982C41.7989 13.217 39.5691 18.3769 36.9983 23.3435C37.1746 21.842 37.2292 20.3274 37.0765 18.7999C37.0546 18.5109 37.0358 18.2349 37.0177 17.9704C36.8297 15.215 36.7269 13.7072 34.1265 11.6999C33.4265 11.0999 33.0265 10.9499 33.2765 12.0999C33.6765 15.4999 34.0765 18.9499 33.7265 22.3999L33.7197 22.4736C33.5857 23.9191 33.4879 24.9747 33.8362 25.893C28.9448 24.2699 28.487 20.4373 27.9842 16.2286C27.7904 14.6065 27.59 12.9286 27.1265 11.2998C27.2765 10.7498 24.2265 6.99986 24.1765 8.24986C24.3677 9.35264 24.4983 10.4814 24.6294 11.6144L24.6294 11.6145C24.9441 14.3343 25.2617 17.0791 26.4265 19.5499C28.2228 22.9178 30.8256 26.6084 34.5973 27.7964C32.1267 32.3312 30.3806 37.2126 29.7263 42.3998C29.0763 46.3998 28.7263 50.4998 28.4763 54.5998C28.495 54.9912 28.4511 55.3964 28.4068 55.8052C28.3323 56.4931 28.2568 57.1912 28.4763 57.8498Z" fill="black"/>
</svg>
