<svg width="50" height="61" viewBox="0 0 50 61" fill="none" xmlns="http://www.w3.org/2000/svg">
<path fill-rule="evenodd" clip-rule="evenodd" d="M10.4601 28.0874C11.3521 28.1076 12.2361 28.1276 13.0911 28.1999C13.8111 28.2799 13.1871 27.6559 12.8063 27.2751C12.7111 27.1799 12.6311 27.0999 12.5911 27.0499C11.1055 25.4037 9.03952 25.3374 6.98869 25.2715C6.48566 25.2554 5.98355 25.2393 5.49113 25.1999C7.24757 24.4271 9.67036 24.0985 12.0139 23.7807L12.014 23.7807L12.014 23.7807L12.014 23.7806H12.0141C13.0061 23.6461 13.984 23.5135 14.8911 23.3499C15.0341 23.2927 15.2671 23.2519 15.527 23.2063C16.1755 23.0926 16.9911 22.9497 16.9911 22.4499C15.7411 20.5499 13.4411 19.8999 11.2411 19.7499C10.1411 19.6166 9.04114 19.4332 7.94114 19.1999C7.24114 19.1499 9.14114 18.2499 9.44114 18.1499C12.0911 17.0499 15.0911 16.9999 17.8911 17.5999L17.9355 17.6197C19.2729 18.2141 20.707 18.8516 22.1411 18.9999C22.1411 18.4999 21.6382 18.1183 21.2012 17.7867C21.0701 17.6872 20.945 17.5922 20.8411 17.4999C19.2411 16.2999 17.3411 15.6499 15.4911 15.0499C14.8281 14.967 14.4399 14.3347 14.0986 13.7791L14.0986 13.779C14.0281 13.6642 13.9596 13.5526 13.8911 13.4499C13.6411 13.0999 13.3411 12.0499 14.1411 12.3999C14.8263 12.4162 16.2462 13.0501 17.8432 13.763C21.1403 15.2348 25.1922 17.0436 25.0911 14.4499C25.1176 13.6297 25.1125 12.8025 25.1075 11.973C25.0934 9.66711 25.0792 7.34295 25.7411 5.09991C25.7911 5.04991 25.9911 4.3999 25.9911 4.3999C26.1541 4.80721 26.2838 5.24769 26.4074 5.6673L26.4074 5.66735L26.4075 5.66751L26.4075 5.66774L26.4077 5.66821L26.4079 5.66891L26.4083 5.67039L26.4092 5.67328C26.4367 5.76673 26.4639 5.85914 26.4911 5.94989C26.5375 6.12683 26.5842 6.30412 26.6309 6.48174C27.1394 8.4122 27.658 10.3811 27.8411 12.3499C27.8968 12.6097 27.8836 12.8971 27.8705 13.1813C27.8484 13.6629 27.8267 14.1355 28.1411 14.4499C28.21 14.5125 28.2804 14.5783 28.3525 14.6455L28.3525 14.6455L28.3527 14.6457L28.3528 14.6459C28.8558 15.1153 29.4352 15.6562 30.0911 15.6999C30.1411 14.6999 30.1911 13.6999 30.1411 12.6999C30.0278 12.0673 29.9305 11.367 29.8285 10.6319C29.39 7.47418 28.8624 3.67505 26.5911 1.84991L26.5685 1.83203C25.6135 1.078 23.8848 -0.28706 23.0911 1.34991C21.8599 3.76837 21.9821 6.57353 22.0975 9.22126L22.0975 9.22163C22.1134 9.58447 22.129 9.94436 22.1411 10.2999C22.1101 10.6257 22.1657 11.019 22.2228 11.4228C22.3498 12.3204 22.4843 13.2706 21.6911 13.6499C20.9468 14.0108 18.4931 12.8862 16.0329 11.7585C13.0394 10.3865 10.0362 9.00999 10.0911 10.2999C10.4817 12.009 11.8739 13.2889 13.1031 14.419L13.1911 14.4999C10.4911 14.0999 7.09114 14.1499 4.44114 15.5499C1.09114 17.3499 7.29109 20.6999 8.64109 21.3499C6.24109 21.5999 3.74114 21.9499 1.44114 22.7999C-1.10886 23.5499 1.29114 25.4499 2.44114 26.2499C4.75657 27.958 7.64831 28.0236 10.4601 28.0874ZM18.4911 44.95C24.1911 50.35 30.8411 54.75 37.5411 58.85C42.8911 62.65 46.8911 58.5 48.3411 53.25C49.8911 46.85 49.791 39.4 46.141 33.7C45.8495 33.3082 45.5596 32.8882 45.2638 32.4596L45.2636 32.4593L45.2636 32.4593C43.9362 30.5361 42.4898 28.4406 40.2411 27.95C40.153 28.038 40.22 28.1648 40.2714 28.2621C40.2784 28.2753 40.2851 28.288 40.2911 28.3C40.4168 28.474 40.5434 28.6486 40.6705 28.8237L40.6706 28.8238L40.6706 28.8238L40.6706 28.8239L40.6707 28.8239L40.6707 28.8239C41.8578 30.4598 43.083 32.1483 43.9411 34C46.6411 40.45 47.291 54.15 39.891 57.65C38.1247 58.2962 36.4698 57.272 34.9581 56.3365C34.7154 56.1863 34.4763 56.0384 34.2411 55.9C30.3911 53.45 26.691 50.85 23.141 48C20.791 46.05 18.341 43.75 17.391 40.75C17.391 34.3046 24.3722 28.9408 29.1208 25.2924L29.2411 25.2C32.4911 22.85 36.2411 20.85 40.3411 20.65C40.7911 20.7 40.4411 20.2 40.2911 20.05C40.1997 19.9623 40.106 19.8711 40.0099 19.7777C38.7915 18.5929 37.2022 17.0475 35.4411 17.65C28.1411 19.4 22.1411 24.65 17.2911 30.2C12.0911 36.35 13.1411 39.45 18.4911 44.95ZM25.541 43.2499C24.291 42.7499 21.541 40.7999 21.641 39.2999C21.541 38.7499 22.141 38.9999 22.391 39.1499C23.791 39.9999 25.391 41.0999 25.791 42.7499C25.891 42.9999 25.991 43.3499 25.541 43.2499ZM31.3911 47.9001C32.0411 48.9001 32.9411 49.8502 34.0411 50.4001C34.2911 50.4501 34.2911 50.2002 34.2411 50.0002C34.0744 49.4335 33.9244 48.8668 33.7911 48.3001C33.2911 47.5001 32.5911 46.8001 31.7911 46.3001L31.7565 46.2884C31.6253 46.2435 31.5332 46.212 31.4411 46.3502C31.1911 46.8502 31.0411 47.4001 31.3911 47.9001ZM37.4412 38.1C36.5412 37.75 34.3912 35.9999 34.4912 34.9499C34.2912 34.4499 34.3412 34 34.9912 34.35C35.9912 34.8 37.4912 36.15 37.7412 37.3C37.7635 37.4115 37.7361 37.5131 37.7077 37.6181C37.6725 37.7484 37.6358 37.8838 37.6912 38.05C37.6412 38.15 37.5412 38.15 37.4412 38.1ZM32.7412 26.3501C32.8912 27.6001 34.6912 29.1501 35.7912 29.6501C36.3912 29.7501 35.9912 28.8501 35.8412 28.5501C35.1412 27.4501 34.1412 26.3501 32.9412 25.8001C32.4912 25.7001 32.6412 26.1001 32.7412 26.3501ZM30.8412 38.1C29.1412 37.35 27.6412 36.05 26.5912 34.55C25.7412 32.8 28.3412 34.8 28.6912 35.2C28.7301 35.2486 28.884 35.3915 29.0974 35.5895C29.9822 36.4109 31.8886 38.1806 30.8412 38.1ZM38.6412 44C38.7412 45.25 41.3912 47.85 42.5412 48.05C43.2412 47.95 42.4912 46.6 42.2412 46.3C41.6912 45.55 39.4912 43.05 38.5412 43.25C38.3412 43.35 38.4912 43.65 38.5912 43.8C38.6412 43.9249 38.6537 43.9375 38.6537 43.9375C38.6537 43.9375 38.6412 43.925 38.6412 44ZM43.8411 40.5499C42.5411 39.9499 41.2411 38.8499 40.5411 37.6499C40.3178 36.8908 41.2512 37.4877 41.6314 37.7308L41.6316 37.731L41.6324 37.7314C41.6774 37.7602 41.7146 37.784 41.7411 37.7999C42.0911 37.9499 45.0411 40.5499 43.8411 40.5499ZM37.8412 52.5C38.4912 53.55 39.4912 54.4 40.6412 54.8C40.9412 54.85 40.9412 54.65 40.7912 54.4C40.3912 53.2 39.1412 52.1 38.0412 51.5C37.6912 51.4 37.4412 51.7 37.6412 52C37.7607 52.0897 37.7731 52.1972 37.785 52.3012C37.7931 52.3712 37.801 52.4397 37.8412 52.5ZM28.4911 49.45C27.5411 49.4 23.3911 44.85 26.3411 46.65C26.6411 46.75 29.6411 49.4 28.6411 49.4C28.6077 49.4667 28.5578 49.4833 28.4911 49.45ZM33.9412 41.8499C30.4412 39.1999 33.5912 43.1999 35.0412 43.4499C35.6537 43.4499 34.5053 42.3781 34.0746 41.9761C34.0131 41.9187 33.9662 41.8749 33.9412 41.8499Z" fill="black"/>
</svg>
