<svg width="62" height="62" viewBox="0 0 62 62" fill="none" xmlns="http://www.w3.org/2000/svg">
<path fill-rule="evenodd" clip-rule="evenodd" d="M16.7909 13.25C17.3909 15.15 18.9909 16.55 20.7409 17.3C21.1909 17.4 20.9909 16.95 20.8909 16.75C20.6575 16.2167 20.4075 15.6834 20.1409 15.15C18.8409 12.55 17.2909 10.05 15.4909 7.75002C15.4409 7.67502 15.3534 7.57504 15.2659 7.47504L15.2659 7.47502L15.2659 7.47499C15.1784 7.375 15.0909 7.27501 15.0409 7.20002C15.0909 7.15002 15.2909 7.05002 15.3409 7.05002C16.6985 6.88032 17.9178 7.51696 19.1241 8.14675C19.6949 8.44476 20.2627 8.74124 20.8409 8.95002C21.2144 9.13677 21.5965 9.30628 21.98 9.47645L21.9801 9.47646L21.9801 9.47647L21.9801 9.47648L21.9801 9.47649L21.9802 9.47651L21.9802 9.47652L21.9802 9.47653L21.9802 9.47654L21.9802 9.47655L21.9803 9.47656C22.5209 9.71641 23.0644 9.95755 23.5909 10.25C23.6798 10.3093 23.6985 10.3335 23.7302 10.3746C23.7519 10.4028 23.7798 10.439 23.8409 10.5C23.9409 10.75 26.2909 12.75 26.1409 11.9C25.5909 9.65002 25.8909 7.20002 27.1409 5.25002C27.1172 5.41562 27.0824 5.58682 27.0469 5.76097C26.9325 6.32295 26.8119 6.91563 27.0409 7.45002C27.7409 8.45002 28.8909 9.55002 30.1409 9.75002C31.0918 9.52812 31.9021 8.92439 32.7119 8.32105C33.1794 7.97272 33.6467 7.62453 34.1409 7.35002C34.1909 7.30001 34.4409 7.10002 34.4909 7.15002C34.4909 7.15002 34.2409 7.60002 34.2409 7.65002C33.8909 8.40002 33.5909 9.15002 33.2909 9.90002C33.2179 10.3378 33.5974 10.669 33.9439 10.9715C34.0723 11.0837 34.1962 11.1918 34.2909 11.3C34.3519 11.3407 34.4399 11.4104 34.5442 11.493C34.9526 11.8166 35.6121 12.339 35.8909 12.1C36.0909 10.85 36.3909 9.60002 36.9409 8.45002C37.0473 8.13081 37.2795 7.74242 37.5237 7.33391C37.9681 6.59065 38.4522 5.78081 38.2909 5.20002C38.1409 4.90007 37.8909 4.6501 37.641 4.40014L37.6409 4.40002C37.5759 4.34806 37.5093 4.29272 37.441 4.23598L37.4408 4.2359C36.9832 3.85588 36.4499 3.41301 35.8409 3.50002C33.7409 3.95002 31.8409 5.05002 30.0409 6.20002C29.9014 6.37432 29.9564 6.15975 30.0025 5.97994L30.0025 5.97992L30.0025 5.9799C30.0226 5.90182 30.0409 5.8303 30.0409 5.80002C30.5909 3.60002 30.1409 2.35002 28.2409 1.05002C26.5318 -0.516676 25.3185 1.38769 24.4299 2.78245C24.3827 2.85661 24.3363 2.92933 24.2909 3.00002C23.2009 4.88267 22.8964 7.05988 23.2801 9.14248C22.1684 8.36625 20.8927 7.78132 19.6359 7.205L19.6359 7.20498L19.6358 7.20495C19.1993 7.00482 18.7651 6.80572 18.3409 6.60002C17.8358 6.37274 17.3276 6.09444 16.8129 5.81263C15.2896 4.97852 13.7101 4.11366 11.9909 4.45002C11.6909 4.50002 11.6409 4.80002 11.7909 5.00002C12.045 5.36008 12.3172 5.71116 12.5882 6.06088L12.5882 6.06089L12.5882 6.0609L12.5882 6.06092L12.5882 6.06093L12.5882 6.06094L12.5882 6.06095L12.5883 6.06096L12.5883 6.06097L12.5883 6.06099L12.5883 6.06101L12.5883 6.06103C12.9571 6.53685 13.3239 7.01013 13.6409 7.50002C14.8909 9.35002 15.9909 11.25 16.7909 13.25ZM23.2801 9.14248L23.2909 9.15002V9.20002L23.2801 9.14248ZM0.390941 41.65C1.64094 53.05 12.841 60.6 23.591 61.6C37.291 63.15 53.291 57.8 59.291 44.55C65.441 30.8 57.341 16.95 43.291 13.15C41.5531 12.6599 39.7359 12.4874 37.91 12.3141C37.6871 12.293 37.464 12.2718 37.241 12.25C36.741 12.1 36.941 12.55 37.091 12.7C38.7308 14.8198 40.0827 14.956 42.068 15.156C42.5646 15.206 43.1008 15.26 43.691 15.35C45.941 15.7 48.241 16.3 50.291 17.45C53.391 18.85 55.591 21.7 56.741 24.85C59.541 31.85 57.991 40.05 53.591 46C45.941 56.2 32.241 60.15 19.941 58.75C14.741 58 8.69099 56.4 5.94099 51.5C2.74099 45.85 2.39095 38.6 4.59095 32.55C6.99095 27.4 10.841 22.7 15.541 19.45C15.7616 19.2896 16.0145 19.1532 16.2705 19.0152C16.6525 18.8092 17.0416 18.5994 17.341 18.3C17.341 18.15 17.191 17.95 17.091 17.85C16.691 17.25 14.291 14.85 13.591 15.7C8.84095 18.65 5.24098 23.3 2.49098 28.1C0.240977 32.25 -0.159059 37.05 0.390941 41.65ZM33.0909 54.5C31.7909 53.95 30.641 52.95 29.741 51.85C29.3586 51.1896 29.1454 50.4325 28.9333 49.6795C28.8404 49.3494 28.7476 49.0201 28.6409 48.7C26.8894 43.9101 25.9045 38.9157 24.919 33.9179C24.526 31.9249 24.1329 29.9314 23.691 27.95C23.6351 27.6484 23.5768 27.3443 23.5182 27.0388L23.5181 27.0386L23.5181 27.0385C23.3144 25.9767 23.1074 24.8983 22.991 23.85C23.491 23.2 27.0909 26.25 27.0909 26.95C27.0909 28.6375 27.4284 30.325 27.7659 32.0125C27.8784 32.575 27.9909 33.1375 28.0909 33.7C28.2791 34.6406 28.4623 35.5861 28.646 36.5343L28.6463 36.5359L28.6464 36.5363L28.6465 36.5368L28.6466 36.5373L28.6467 36.5377L28.6467 36.5378C29.293 39.8729 29.9458 43.2418 30.8409 46.55C31.1931 47.7709 31.6225 48.9698 32.0513 50.1673C32.5358 51.5199 33.0196 52.8709 33.3909 54.25C33.4409 54.5 33.2909 54.5 33.0909 54.5ZM38.1409 49.35C38.9409 50.3 39.9909 51.15 41.1409 51.6C41.7145 51.8676 40.8842 49.0351 40.4172 47.4419L40.4172 47.4417C40.2736 46.9519 40.1644 46.5793 40.1409 46.45C39.4337 44.05 38.6715 41.6776 37.9093 39.3052C36.893 36.1419 35.8766 32.9786 34.9909 29.75C34.919 29.4827 34.8407 29.2155 34.7621 28.9474L34.762 28.947C34.4585 27.911 34.1512 26.862 34.1909 25.75C34.2909 25.2 31.3409 22.9 30.9409 23.4C31.2145 25.8619 31.9791 28.277 32.739 30.6774L32.739 30.6775L32.739 30.6775L32.739 30.6776L32.7391 30.6776L32.7391 30.6776L32.7391 30.6777L32.7391 30.6777L32.7391 30.6777L32.7391 30.6778L32.7391 30.6778C33.0904 31.7873 33.4406 32.8936 33.7409 34C34.0097 34.8709 34.2855 35.7418 34.5617 36.6142C35.5699 39.7988 36.5844 43.0032 37.2909 46.3C37.3989 46.66 37.4745 47.033 37.5504 47.4073C37.6852 48.0726 37.8209 48.742 38.1409 49.35ZM22.0909 55.7C14.5909 55.25 8.44092 47.0499 8.04092 39.8999C7.76031 35.4102 10.3232 31.4891 12.7015 27.8503C12.8659 27.5989 13.0294 27.3488 13.1909 27.0999C13.3073 26.9567 13.4237 26.8038 13.5424 26.6479C14.0866 25.9332 14.679 25.1552 15.5409 24.95C16.9909 25.2 18.2909 26.25 19.3409 27.2L19.3673 27.2259C19.5264 27.3813 20.1119 27.9532 19.6909 27.9999C18.3417 28.174 16.8787 30.3183 15.9618 31.6623C15.8253 31.8623 15.701 32.0445 15.5909 32.2C13.0909 35.7999 10.8409 39.9999 11.8409 44.4999C12.3409 47.5999 13.8409 50.5 16.0909 52.7C17.2909 53.5 18.8909 53.5 20.2909 53.45C20.9774 53.4271 21.6743 53.289 22.3721 53.1508C23.1991 52.9869 24.0274 52.8228 24.8409 52.8499C25.6409 53.1499 26.3909 53.6999 26.9909 54.2999C27.013 54.322 27.0405 54.3483 27.0712 54.3777C27.3196 54.6151 27.7803 55.0555 27.2909 55.0999C27.0709 55.1377 26.8517 55.1762 26.633 55.2146L26.633 55.2146C25.1126 55.4816 23.6209 55.7437 22.0909 55.7ZM43.941 45.35C43.191 45.8 45.5909 47.4 46.0409 47.5C47.9909 46.45 49.791 44.75 51.241 43C52.991 40.95 53.491 38.2 53.191 35.6C53.041 29.1 47.391 24.4 41.991 21.85C40.341 21.15 38.5409 20.7 36.8909 20.4C36.7799 20.659 37.0248 20.8905 37.2407 21.0947C37.3166 21.1666 37.3889 21.235 37.441 21.3C38.491 22.35 39.741 23.3 41.241 23.4C44.291 23.85 47.2909 25.4 48.5909 28.35C50.0909 31.6 50.4909 36.1 48.8409 39.4C47.8147 41.1368 46.4145 42.6555 45.0339 44.1528L45.0339 44.1528L45.0335 44.1532C44.6654 44.5524 44.2988 44.9501 43.941 45.35ZM40.2409 30.4C39.3556 30.0557 38.6154 29.4211 37.9251 28.8294L37.8909 28.8C37.8733 28.7824 37.8487 28.7586 37.8191 28.7299L37.819 28.7299C37.5113 28.4318 36.6524 27.6 37.2909 27.6C37.6409 27.575 37.9908 27.525 38.3408 27.475L38.3409 27.475L38.341 27.475C38.6909 27.425 39.0409 27.375 39.3909 27.35C40.4909 27.65 41.4409 28.5 42.1409 29.35C42.2909 29.55 42.4909 29.85 42.0909 29.85C41.8711 29.9299 41.6514 29.9858 41.4381 30.0402C41.1174 30.1218 40.8111 30.1999 40.5409 30.35C40.3909 30.4 40.3409 30.4 40.2409 30.4ZM39.4908 32.8C38.8408 33.2001 42.0908 35.65 42.6408 35.55C43.1408 35.55 43.6908 35.5 44.1908 35.4501C44.2908 35.4501 44.3908 35.45 44.4408 35.35C44.0908 34.45 42.4908 33.25 41.5908 33.05C41.2567 33.0023 40.9112 32.966 40.5706 32.9302C40.1977 32.8909 39.8306 32.8523 39.4908 32.8ZM42.4909 40.3499C41.9909 40.0499 40.9409 39.3499 40.8909 38.7499C41.0175 38.7499 41.1241 38.7098 41.2361 38.6677L41.2362 38.6677C41.301 38.6433 41.3676 38.6183 41.4409 38.5999C41.8909 38.2999 42.2409 38.3499 42.6909 38.6999C42.798 38.7875 42.9126 38.8751 43.0297 38.9646L43.0298 38.9646C43.514 39.3347 44.0396 39.7362 44.2409 40.2999C44.2409 40.3999 44.0409 40.3999 43.9409 40.3999C43.8626 40.4156 43.7843 40.4337 43.7062 40.4518C43.2855 40.5491 42.8704 40.6451 42.4909 40.3499ZM15.7408 37.3499C16.5408 38.2499 17.5908 39.0499 18.7408 39.4499C19.3919 39.3316 19.9028 38.8979 20.4188 38.4599C20.7746 38.158 21.1327 37.854 21.5408 37.6499C22.7408 37.3999 18.0908 34.1499 17.5408 34.2499C17.51 34.2499 17.4791 34.2478 17.4491 34.2458C17.3333 34.2378 17.2305 34.2308 17.1908 34.3499C17.0242 34.7499 16.7686 35.1055 16.5131 35.461C16.3853 35.6388 16.2575 35.8166 16.1408 35.9999C16.0875 36.1066 15.9986 36.2203 15.9065 36.3383C15.6529 36.6629 15.3741 37.0199 15.7408 37.3499ZM22.991 45.4499C21.591 44.9499 19.041 43.2499 18.491 41.8999C18.6112 41.6595 18.8278 41.4511 19.0378 41.2492C19.0898 41.1992 19.1414 41.1496 19.191 41.0999C19.991 39.7999 23.9909 43.3999 24.6409 44.1999L24.641 44.2C24.791 44.4001 25.2409 45 24.691 45.0499C24.4557 45.0713 24.2204 45.1568 23.9812 45.2436L23.9812 45.2436C23.6613 45.3598 23.3343 45.4786 22.991 45.4499ZM20.741 47.4C20.741 48.35 23.2409 50.05 24.1409 50.35C24.5159 50.35 24.8909 50.2875 25.2659 50.225C25.6409 50.1625 26.0159 50.1 26.3909 50.1C26.5409 50.1 26.6909 50.05 26.6409 49.85C25.7909 48.5 24.341 47.45 22.941 46.75C22.2587 46.5368 21.6127 46.9055 21.0342 47.2357C20.9344 47.2927 20.8366 47.3485 20.741 47.4Z" fill="black"/>
</svg>
