<svg width="46" height="85" viewBox="0 0 46 85" fill="none" xmlns="http://www.w3.org/2000/svg">
<path fill-rule="evenodd" clip-rule="evenodd" d="M9.56097 10.892C6.16722 10.892 2.66035 9.76077 0.793785 6.76296C-0.111215 5.12265 13.2941 0.710773 14.991 0.597648C17.706 -0.0245393 20.5906 0.371397 22.6269 2.40765C22.7597 2.52936 22.9293 2.66839 23.1153 2.82093C23.8803 3.44814 24.9238 4.30369 24.8328 5.12265C24.6863 5.22032 24.3712 5.10717 24.1786 5.03803C24.1481 5.02709 24.1207 5.01725 24.0975 5.00953C22.7966 4.50046 21.3825 4.55702 20.025 4.78327C16.1788 5.40546 12.5022 6.76296 8.88222 8.12046C16.1512 8.41515 23.5055 7.89953 30.797 7.38831L30.7973 7.38829C31.9029 7.31077 33.007 7.23336 34.1091 7.15889C35.2969 6.98921 37.8422 6.19733 37.2766 4.61358C35.7567 3.94201 34.1043 3.93307 32.4712 3.92423C31.491 3.91893 30.5176 3.91366 29.5841 3.76514C29.0751 3.53889 27.3216 2.35108 27.6044 1.84202C27.8475 1.83662 28.0905 1.83019 28.3334 1.82376C30.6348 1.76285 32.9273 1.70218 35.1272 2.52077C38.0685 3.48233 42.8197 7.49827 37.616 9.13858C35.8163 9.70919 33.8805 9.80294 31.967 9.89561L31.9669 9.89561C31.4146 9.92236 30.8642 9.94901 30.3194 9.98702C28.9966 10.0846 27.6737 10.1926 26.3505 10.3006L26.3504 10.3006L26.3504 10.3006L26.3503 10.3006C20.7709 10.756 15.1844 11.2121 9.56097 10.892ZM7.23754 31.9471C4.36394 28.8996 2.27413 25.1719 1.47233 20.9035C0.963267 18.5844 0.680434 16.1522 0.850121 13.8332C1.69606 13.8332 2.50695 14.429 3.22763 14.9585C3.4225 15.1016 3.61079 15.24 3.79138 15.3604C3.91584 15.4848 4.0622 15.6065 4.21179 15.7309C4.74206 16.1719 5.31289 16.6466 5.09231 17.3966C4.97918 19.1501 5.09231 20.9601 5.37512 22.7135C5.7229 24.6774 6.30744 26.7375 7.17961 28.6556C7.28188 27.1566 7.55497 25.6707 7.97744 24.2408C8.71276 21.243 11.4277 16.4351 14.9346 19.2633C17.1971 20.6773 18.9505 22.8267 19.5162 25.4851C20.0818 24.1276 21.2131 21.5258 23.0231 22.8267C24.0412 23.5055 25.0593 24.2973 25.625 25.372C26.5865 20.9602 31.7903 12.8717 35.6931 19.5461C36.3275 21.3733 36.4154 23.2688 36.3195 25.1815C37.539 21.3306 38.096 17.1669 38.4076 13.4938C40.0479 14.0594 41.8014 15.3038 42.6498 16.831C42.9326 21.1297 41.7448 25.4285 40.2742 29.4444C38.2833 35.3719 33.3243 40.5031 27.2503 40.9578C28.3986 41.989 28.395 42.6505 28.3884 43.8747C28.3858 44.3654 28.3827 44.9464 28.453 45.6779C28.7117 48.2952 28.778 50.9861 28.8446 53.6901C29.0256 61.0375 29.2089 68.4817 33.2608 74.8076C33.4504 75.0316 33.6242 75.2871 33.7998 75.5453C34.2007 76.1347 34.6112 76.7382 35.2405 77.0135C36.8243 77.6357 38.6908 77.862 39.9917 76.561C40.727 75.8257 41.7452 76.2782 42.4805 76.8438C42.6499 76.9729 42.856 77.118 43.0823 77.2773C44.4427 78.2351 46.529 79.7038 45.7046 81.2557C44.6299 82.4435 42.7633 82.1607 41.4058 81.8779C36.3911 83.4175 31.0002 83.965 25.6852 84.5048C24.1659 84.6591 22.6528 84.8128 21.1564 84.9888C20.7432 84.9888 18.5684 83.521 17.3391 82.3344C17.0368 82.5738 16.7257 82.7993 16.4054 83.0091C14.9348 82.3303 13.351 81.1425 12.6723 79.6719C13.1245 79.1551 13.632 78.6567 14.1423 78.1558C14.5255 77.7794 14.9102 77.4017 15.2741 77.0135C23.3626 67.6241 25.9645 53.9925 22.2879 42.2275C22.1519 41.6565 21.9245 41.0985 21.6997 40.5472C21.6434 40.4091 21.5873 40.2714 21.5328 40.134C17.9678 39.2461 14.4945 37.6934 11.4532 35.57C9.82651 35.0075 7.98572 33.4239 7.24214 31.9898L7.23754 31.9471ZM19.0828 80.7089C19.6847 80.6706 20.2877 80.6338 20.8913 80.5969C25.7595 80.2996 30.6715 79.9995 35.4102 78.9366C30.4934 75.6519 27.7497 71.5222 26.1897 66.9249C25.5844 69.1983 24.7576 71.4072 23.702 73.5066C22.5091 76.0117 21.0087 78.6286 19.0828 80.7089ZM11.7538 34.6135C12.6512 35.2749 13.6521 35.8083 14.7645 36.1754C17.8189 37.1935 21.1561 38.2682 24.4367 37.8157C28.1741 36.9547 30.9029 34.8956 32.9064 32.1839C33.0269 30.8985 33.2067 29.6135 33.3864 28.3299C33.827 25.1811 34.2665 22.0406 33.8265 18.9239C30.0775 20.9969 29.1143 25.1335 28.2014 29.054L28.2014 29.0541C27.9436 30.1613 27.6898 31.2512 27.3784 32.2726C26.9627 32.873 26.0192 32.0406 25.4406 31.5301C25.3106 31.4153 25.1989 31.3168 25.1159 31.2545C24.06 30.5946 23.9623 29.4557 23.8645 28.3167C23.8366 27.9913 23.8086 27.6659 23.7584 27.3517C23.7406 27.2808 23.7173 27.0708 23.6902 26.8265L23.6902 26.8264C23.6309 26.2914 23.5532 25.5916 23.4755 25.8245C22.5705 27.1255 22.1746 28.6526 21.8918 30.1798C21.6406 31.2474 21.5637 32.3324 21.487 33.4155C21.4255 34.2835 21.364 35.1502 21.213 36.0058C20.3461 35.9094 19.5612 35.1569 18.8932 34.5165L18.893 34.5163L18.8925 34.5158C18.7763 34.4044 18.6636 34.2963 18.5546 34.1958C17.945 33.6674 17.861 32.8762 17.7781 32.095C17.7456 31.789 17.7133 31.4845 17.6496 31.198C17.1406 28.2001 16.5184 25.2023 15.6134 22.3177C13.1812 24.467 12.3893 27.8608 11.9368 30.9717C11.7896 32.1497 11.6423 33.413 11.7538 34.6135Z" fill="black"/>
</svg>
