<svg width="51" height="169" viewBox="0 0 51 169" fill="none" xmlns="http://www.w3.org/2000/svg">
<path fill-rule="evenodd" clip-rule="evenodd" d="M32.1259 15.9451C31.1259 15.3951 30.0759 14.3951 30.3759 13.1451C30.3935 11.879 30.4853 10.6005 30.5773 9.31842C30.747 6.95494 30.9176 4.57899 30.6259 2.24507C30.4474 2.23276 30.2439 2.21363 30.0235 2.19291L30.0235 2.19291C28.4529 2.04527 26.0205 1.81663 25.6259 3.39506C25.6567 5.08893 25.8962 6.7828 26.134 8.46498C26.2822 9.51383 26.4299 10.5581 26.5259 11.5951C26.6759 12.6951 26.7259 13.7451 26.7759 14.8451C26.7366 15.0023 26.4192 14.7887 26.2366 14.6659C26.187 14.6325 26.1473 14.6058 26.1259 14.5951C24.895 13.8258 24.8478 12.5535 24.8004 11.2789C24.7863 10.8967 24.772 10.5142 24.7259 10.1451C24.6162 8.96071 24.4392 7.78599 24.2624 6.61244L24.2624 6.61237C24.0361 5.11057 23.8101 3.6107 23.7259 2.09507C23.4259 0.795074 24.7759 0.395056 25.7759 0.295056C25.9286 0.290427 26.0848 0.284513 26.2435 0.278504C27.799 0.2196 29.5962 0.151543 30.7759 1.19508C32.9161 2.92223 32.716 5.63622 32.526 8.21488C32.4629 9.07015 32.401 9.91053 32.4259 10.6951C32.3592 12.3284 32.3092 13.9784 32.2759 15.6451C32.2759 15.6808 32.2775 15.7149 32.279 15.7466C32.2858 15.8923 32.2902 15.9861 32.1259 15.9451ZM22.1759 48.245C20.9759 47.595 19.8259 46.545 19.3259 45.295C19.1657 43.3734 19.1338 41.4198 19.1018 39.4598C19.0938 38.9718 19.0858 38.4834 19.0759 37.995C19.0647 37.5117 19.0543 37.0284 19.0438 36.5451V36.5451C18.9598 32.6784 18.8759 28.8117 18.4759 24.945C18.4892 24.1432 18.3526 23.1877 18.2091 22.1846C17.8158 19.4349 17.3713 16.3273 19.8259 15.045C23.0727 14.5562 26.2707 15.4082 29.454 16.2562L29.4541 16.2563C30.8298 16.6228 32.2029 16.9885 33.5759 17.245C35.2759 17.495 36.4759 18.895 37.4759 20.145C38.0693 20.9812 37.906 21.1335 37.4963 21.0728C37.6146 21.2213 37.6964 21.3359 37.7259 21.395C37.9894 21.7714 37.9129 22.2045 37.8376 22.6303C37.8129 22.7701 37.7883 22.9091 37.7759 23.045C37.4341 25.6187 36.9144 28.1521 36.3956 30.6807L36.3956 30.6808C35.6244 34.44 34.8553 38.1889 34.6759 42.045C34.4759 46.145 34.4759 50.345 34.9259 54.445C35.2759 56.895 35.7259 59.345 36.1759 61.745C36.1826 61.7715 36.191 61.8006 36.1997 61.831L36.1997 61.8311L36.1997 61.8312L36.1998 61.8313C36.257 62.0301 36.3294 62.2817 36.0259 62.195C33.8259 61.195 33.1259 58.995 32.8259 56.745C32.2259 53.845 31.8259 50.945 31.6759 47.995C31.1136 41.1416 32.3053 34.461 33.4971 27.7798L33.4971 27.7797C33.9365 25.3169 34.3758 22.8539 34.7273 20.3821C34.1447 20.2328 33.5614 20.076 32.9771 19.9188C30.048 19.1311 27.0901 18.3356 24.0258 18.445C21.0594 18.398 21.33 21.9868 21.4968 24.2009C21.5072 24.3379 21.5171 24.4697 21.5258 24.595C22.1802 30.4433 22.2324 36.3249 22.2845 42.1854V42.1855V42.1855V42.1856V42.1857V42.1857V42.1858V42.1859V42.1859V42.186V42.1861V42.1861C22.2961 43.4904 22.3077 44.7935 22.3259 46.095C22.2901 46.256 22.3183 46.5768 22.3487 46.9227C22.4033 47.5437 22.4649 48.245 22.1759 48.245ZM5.926 137.945C2.77876 136.254 2.85304 135.313 3.08086 132.428C3.09554 132.242 3.11085 132.048 3.12599 131.845C3.32599 127.645 3.37599 123.445 3.22599 119.245C3.16291 113.788 2.42329 108.391 1.68498 103.004C1.25292 99.8508 0.821309 96.7013 0.525979 93.5449C-1.13389 79.9063 5.01255 72.7424 10.4286 66.4297C14.8014 61.333 18.6981 56.7913 17.626 49.8449C17.626 49.8196 17.6196 49.7846 17.6124 49.7456C17.5914 49.631 17.564 49.4823 17.676 49.4449C17.826 49.4449 18.026 49.5449 18.126 49.5949L18.2279 49.6627C19.1073 50.2478 20.1391 50.9343 20.476 51.9449C20.676 54.0449 20.876 56.2449 20.276 58.3449C18.9155 62.3684 16.1978 65.5875 13.4711 68.8172C11.4878 71.1663 9.49978 73.5211 8.02598 76.1949C1.99476 85.0765 3.54037 95.6305 5.02118 105.742C5.3327 107.869 5.64135 109.977 5.87599 112.045C6.87599 120.645 6.92599 129.345 6.12599 137.945C6.05932 137.978 5.99267 137.978 5.926 137.945ZM47.676 142.845C47.726 144.045 49.026 144.995 49.976 145.495C50.9692 134.269 49.9877 122.771 49.0053 111.262C48.3556 103.652 47.7056 96.038 47.626 88.495C47.479 82.8609 44.1158 78.3789 40.8758 74.0613L40.676 73.795C39.376 71.995 38.376 69.995 37.676 67.895C37.6318 67.7459 37.5895 67.5974 37.5475 67.4501L37.5474 67.4499C37.2092 66.2638 36.8934 65.1566 35.826 64.445C34.3214 63.0947 34.9006 64.6618 35.3355 65.8385C35.4642 66.1868 35.5803 66.5009 35.626 66.695C36.6945 69.8624 38.6369 72.5056 40.586 75.158C41.1907 75.9808 41.796 76.8045 42.376 77.645C45.5098 82.5123 45.4427 88.2465 45.376 93.9436C45.3427 96.7909 45.3094 99.629 45.676 102.345C46.676 113.545 47.576 124.745 47.526 135.995C47.5593 138.262 47.6093 140.545 47.676 142.845ZM40.376 168.745C39.1546 168.724 37.9332 168.675 36.7118 168.626C35.0832 168.56 33.4546 168.495 31.826 168.495C30.876 168.478 29.9261 168.473 28.9761 168.467C27.0761 168.456 25.176 168.445 23.276 168.345C17.926 168.195 12.976 167.095 8.32599 164.395C2.61253 161.124 2.6437 158.842 2.71167 153.866C2.72163 153.137 2.73237 152.351 2.72598 151.495C2.72598 149.889 2.59695 148.314 2.46843 146.747C2.43695 146.362 2.40549 145.979 2.37598 145.595C2.52598 145.445 3.32599 146.145 3.32599 146.295C3.34995 146.463 3.36243 146.619 3.37443 146.769C3.38747 146.933 3.39995 147.089 3.42599 147.245C3.77599 150.095 3.97599 152.945 4.07599 155.795C4.10882 156.107 4.13626 156.423 4.16384 156.74C4.30428 158.357 4.44835 160.016 5.32599 161.395C5.77597 162.245 6.62591 162.645 7.47587 163.045L7.47598 163.045C13.2402 166.247 19.6355 166.1 26.0879 165.952L26.376 165.945C29.226 165.845 32.076 165.895 34.976 165.995C39.926 166.345 42.926 165.595 45.776 161.195C47.876 158.095 47.876 155.545 47.776 151.895C47.776 151.737 47.7603 151.57 47.7444 151.402C47.7203 151.146 47.6958 150.887 47.726 150.645C47.826 150.545 48.026 150.645 48.076 150.695C49.126 151.245 49.976 152.095 50.626 153.095C50.7199 153.283 50.7158 153.51 50.7119 153.727C50.7096 153.857 50.7073 153.983 50.726 154.095C50.7593 154.828 50.776 155.562 50.776 156.295C50.876 159.145 50.176 161.795 48.526 164.095C46.676 166.995 43.876 168.845 40.376 168.745ZM17.2208 92.4554L17.221 92.4554C18.6974 92.6178 20.1866 92.7815 21.6758 92.8449C28.1258 93.3949 34.8758 92.0949 40.8258 89.9949C40.2258 89.3449 39.3758 88.7449 38.5258 88.6949C37.4825 88.9384 36.4634 89.2302 35.4516 89.52L35.4513 89.52L35.451 89.5201C35.0083 89.6469 34.5671 89.7732 34.1258 89.895C30.8258 90.795 27.4758 91.5949 24.0758 91.6949C20.9918 91.8712 17.9422 91.5815 14.8967 91.2923C12.7579 91.0891 10.6211 90.8862 8.47583 90.8449L8.52582 90.9449C8.97582 91.3949 9.52582 91.745 10.1258 91.895C10.6347 91.9289 11.1492 91.957 11.6657 91.9853L11.6664 91.9854H11.6665C12.6722 92.0404 13.685 92.0959 14.6758 92.1949C15.5178 92.2682 16.3666 92.3615 17.2195 92.4553L17.2197 92.4553L17.2199 92.4553L17.2201 92.4553L17.2202 92.4554L17.2205 92.4554L17.2208 92.4554ZM25.4758 152.895C24.9018 152.809 24.2624 152.723 23.5777 152.63C19.0733 152.019 12.6036 151.142 9.82584 148.495C9.32584 147.895 10.0258 148.145 10.3758 148.345C11.929 149.478 13.8347 149.836 15.7081 150.188C16.0661 150.256 16.4229 150.323 16.7758 150.395C22.3258 151.495 28.0758 151.695 33.7258 150.895C34.323 150.831 34.9292 150.712 35.5367 150.594C36.3536 150.434 37.173 150.274 37.9758 150.245C38.6758 150.495 40.4758 151.445 40.5758 152.145C39.9226 152.276 39.2481 152.364 38.5801 152.451L38.5795 152.451L38.579 152.451L38.5785 152.451L38.5781 152.451L38.5778 152.451C38.2239 152.497 37.8719 152.543 37.5258 152.595C33.5258 153.145 29.5258 153.195 25.4758 152.895ZM19.4254 115.791C21.0256 115.783 22.6257 115.775 24.2259 115.895C24.4759 115.945 24.5259 115.795 24.3759 115.645C23.9759 114.945 23.2759 114.445 22.6259 113.995C22.2139 113.72 21.7313 113.705 21.2588 113.69H21.2587C21.0431 113.683 20.8296 113.676 20.6259 113.645C19.679 113.57 18.7322 113.545 17.7915 113.52C16.8446 113.495 15.904 113.47 14.9759 113.395C14.891 112.058 14.9593 110.694 15.0277 109.326C15.1205 107.471 15.2137 105.608 14.9259 103.795C14.6759 103.295 12.5759 101.345 12.1259 101.745C12.266 102.445 12.2344 103.195 12.2029 103.942C12.1894 104.261 12.1759 104.58 12.1759 104.895C12.1592 105.245 12.1412 105.595 12.1231 105.945C12.0328 107.695 11.9426 109.445 12.0259 111.195C11.9759 112.645 12.9259 113.745 14.0259 114.545C15.1759 115.595 16.7259 115.845 18.2259 115.795C18.6257 115.795 19.0256 115.793 19.4254 115.791ZM29.0436 113.68C30.01 115.291 31.0383 117.004 32.8258 117.695C33.4897 117.806 33.936 116.447 34.2649 115.446C34.3819 115.09 34.484 114.779 34.5758 114.595C34.6955 114.267 34.8163 113.939 34.9372 113.611L34.9393 113.605C35.9788 110.784 37.023 107.95 37.4258 104.995C37.7758 103.395 37.3758 101.745 36.0258 100.795C35.5758 100.395 34.9258 99.845 34.2758 100.045C32.6758 100.695 31.5258 102.195 30.8258 103.645C29.7258 102.395 28.3758 100.945 26.5758 100.895C23.7758 101.095 23.5258 104.095 24.4758 106.195C25.1016 107.71 26.031 109.073 26.9641 110.442L26.9642 110.442L26.9642 110.442L26.9643 110.442L26.9643 110.442C27.4478 111.151 27.9322 111.861 28.3758 112.595C28.6008 112.942 28.8206 113.308 29.0436 113.68ZM29.2971 112.319C27.1543 109.203 24.494 105.335 26.976 103.145C29.326 101.645 30.126 103.545 30.426 105.645C30.473 105.817 30.4954 106 30.518 106.182C30.5673 106.583 30.617 106.986 30.926 107.295L30.9807 107.35L30.9807 107.35C31.3257 107.698 32.4907 108.874 32.726 108.545C32.6912 108.197 32.608 107.825 32.5269 107.462L32.5269 107.462C32.4914 107.304 32.4564 107.147 32.426 106.995C32.3926 106.962 32.3926 106.945 32.426 106.945C32.526 105.045 33.976 103.445 35.426 102.345C35.1882 105.436 34.1363 108.346 33.0876 111.248L32.926 111.695C32.801 112.007 32.6823 112.323 32.5637 112.638L32.5636 112.638L32.5636 112.639L32.5635 112.639L32.5635 112.639C32.2072 113.586 31.851 114.533 31.326 115.395C31.2896 115.54 31.2532 115.474 31.2169 115.408C31.2032 115.383 31.1896 115.359 31.176 115.345C30.8115 114.521 30.0897 113.472 29.2971 112.319ZM14.6258 135.595C14.6758 137.695 15.3758 139.695 17.4258 140.595C18.1558 140.557 18.4724 139.721 18.7387 139.019C18.819 138.807 18.8947 138.607 18.9758 138.445C20.1258 134.995 20.2258 131.295 20.1258 127.745C19.909 126.661 22.1473 126.491 23.7827 126.367C24.41 126.319 24.9486 126.278 25.2258 126.195C25.282 126.176 25.3522 126.179 25.4233 126.181C25.542 126.185 25.6633 126.189 25.7258 126.095C25.638 125.744 25.3574 125.47 25.121 125.239L25.061 125.18L25.0258 125.145C24.9863 125.106 24.9463 125.065 24.9058 125.024C24.536 124.65 24.1215 124.23 23.6258 124.095C23.043 124.241 22.4602 124.36 21.881 124.479L21.8809 124.479L21.8808 124.479C21.0687 124.646 20.2638 124.812 19.4758 125.045C18.9758 125.145 18.3258 125.395 18.3258 125.995C18.3258 127.245 18.3258 128.495 18.2258 129.745C18.0758 132.245 17.7258 134.795 16.6758 137.145C16.6349 136.744 16.5926 136.342 16.5503 135.941C16.3343 133.891 16.1176 131.836 16.0758 129.745C16.0404 129.355 16.074 128.946 16.1078 128.537C16.1692 127.79 16.2309 127.041 15.8758 126.395C15.1258 125.245 13.9758 124.395 12.5758 124.845C11.762 124.935 10.9482 125.108 10.0974 125.288L10.0973 125.288L9.82584 125.345C9.81244 125.358 9.79905 125.368 9.78661 125.377C9.75263 125.402 9.72583 125.422 9.72583 125.495C10.0758 126.095 10.6758 126.695 11.2758 126.895C12.2758 126.695 13.3258 126.495 14.3258 126.395C14.2258 129.295 14.3258 132.545 14.6258 135.595ZM30.8259 137.345C33.1259 139.545 35.8259 140.645 39.0259 140.545C40.1259 140.545 37.3259 138.095 37.0259 137.945C36.7259 137.745 36.4259 137.545 36.1259 137.445C35.9593 137.412 35.7926 137.423 35.6259 137.434C35.5426 137.439 35.4593 137.445 35.3759 137.445C34.0259 137.495 32.5759 137.495 31.3259 136.795C33.4759 134.595 35.1759 132.045 36.8759 129.495C37.069 129.147 37.2819 128.803 37.496 128.457C38.1135 127.459 38.7403 126.446 38.9259 125.295C39.026 124.095 37.9759 123.195 37.1259 122.495C36.2759 121.795 35.1259 121.395 34.0259 121.845C31.3259 122.795 29.9259 125.545 28.7259 127.945C27.2259 131.145 27.2759 133.745 29.8759 136.345C29.0426 137.312 28.1426 138.162 27.1759 138.895L27.1759 138.895C27.1259 138.945 27.076 138.995 27.1259 139.045C27.2378 139.231 27.3776 139.362 27.5244 139.5C27.5744 139.547 27.6252 139.594 27.6759 139.645C27.7259 139.662 27.7703 139.684 27.811 139.704L27.8111 139.704C27.8926 139.745 27.9593 139.778 28.0259 139.745C29.0759 139.045 29.9759 138.245 30.8259 137.345ZM31.9258 128.245C32.9758 126.395 34.4258 124.445 36.5758 123.845C36.6758 123.795 36.7758 123.745 36.7258 123.845C36.6925 124.212 36.6425 124.562 36.5758 124.895C36.0758 126.745 35.1758 128.445 34.2258 130.145C33.1758 132.045 31.9258 133.895 30.5258 135.595C29.4758 133.145 30.6758 130.395 31.9258 128.245ZM23.276 33.7451C24.076 34.7951 25.426 35.4951 26.726 35.7451C28.026 35.8951 29.426 36.045 30.626 35.795C30.226 35.095 28.976 34.2951 28.176 34.0951C27.9355 34.0951 27.695 34.0984 27.455 34.1018C26.0984 34.1209 24.758 34.1398 23.526 33.545C23.426 33.545 23.226 33.5451 23.276 33.7451Z" fill="black"/>
</svg>
