<svg width="157" height="125" viewBox="0 0 157 125" fill="none" xmlns="http://www.w3.org/2000/svg">
<path fill-rule="evenodd" clip-rule="evenodd" d="M79.4709 16.2502C80.0742 17.2828 81.3847 17.9116 82.5007 18.2718C83.6533 14.2511 83.7879 9.37468 83.9129 4.8425C83.9354 4.0288 83.9576 3.22619 83.9852 2.44163C83.2218 1.53708 81.9532 0.733348 80.7336 0.496338C80.5771 1.69573 80.5445 2.9723 80.5116 4.26259C80.4795 5.51945 80.4471 6.78934 80.2995 8.01358C80.144 9.9823 79.9309 11.956 79.72 13.9088C79.6353 14.6932 79.551 15.4742 79.4709 16.2502ZM74.0713 14.6171C74.2439 16.3926 74.4216 18.2214 76.1557 18.9308C76.0046 17.4012 75.7156 15.7964 75.4198 14.1538L75.4198 14.1537L75.4198 14.1536C74.8245 10.8482 74.2018 7.38998 74.6198 4.08404C71.9462 0.215922 73.4821 11.1945 73.7096 12.3891C73.9193 13.0531 73.9948 13.8299 74.0713 14.6171ZM59.4317 33.7207C51.923 32.0711 33.2082 26.3258 29.4538 19.7272C28.4868 17.85 30.7053 16.5986 32.2411 16.0866C39.4654 13.2993 48.51 14.6645 54.369 19.841C56.0187 21.32 55.7342 22.0595 53.7433 20.6943C48.3393 17.8501 38.2709 17.2243 33.8908 21.9457C33.6193 22.5661 34.8282 23.0015 35.8235 23.36C36.2883 23.5274 36.7065 23.678 36.9056 23.8229C37.6351 24.1268 38.3645 24.434 39.0946 24.7414C45.1964 27.311 51.3419 29.899 57.8958 30.7627C61.6502 31.7298 75.5299 30.7627 72.06 24.4486C71.0487 23.8004 69.8837 23.4476 68.716 23.094C67.3221 22.6719 65.9241 22.2486 64.7788 21.32C59.4125 17.0269 65.9936 19.8213 68.5709 20.9157C68.7256 20.9814 68.8658 21.0409 68.9882 21.0924C85.9966 30.7058 71.4342 36.3374 59.4317 33.7207ZM30.9884 70.5249C26.2786 67.4951 22.395 63.4193 20.9211 58.8066C20.0449 53.8524 21.7444 49.2176 23.4527 44.5593C24.6276 41.3551 25.8067 38.1397 26.1545 34.8015C26.4389 31.9004 26.4958 28.8287 25.9838 25.9276C25.5856 25.4156 25.6994 25.0744 26.4389 25.5294C29.619 27.2103 29.6425 28.2382 29.6969 30.6123V30.6123V30.6123V30.6123C29.7106 31.2109 29.7263 31.8951 29.795 32.6968C30.5763 37.5105 29.0016 42.3801 27.4503 47.1768C25.5003 53.2066 23.5875 59.1214 26.4389 64.6656C41.9682 82.8117 69.3864 65.6896 67.9074 44.0167C67.9074 43.2134 67.8639 42.3811 67.8209 41.5564L67.8209 41.5561V41.5559V41.5558V41.5557V41.5555L67.8209 41.5551C67.7786 40.7451 67.7367 39.9424 67.7367 39.1816C69.3864 39.3523 72.6287 41.9689 72.515 43.7892C75.0747 59.0341 63.0722 75.758 47.2016 76.0425C43.1349 75.8989 38.3841 74.5281 34.0153 72.2726C34.5045 72.7979 34.839 73.2908 34.8008 73.5394L34.7439 73.5962C34.7346 74.0208 34.7186 74.4466 34.696 74.8729C35.7129 75.1867 37.1332 76.6799 37.1332 77.2369C36.5396 77.2369 36.1112 77.8978 35.7138 78.5106C35.5401 78.7787 35.3723 79.0375 35.1992 79.2279C35.0755 79.4553 34.9466 79.6916 34.8133 79.9362C34.4597 80.5847 34.0742 81.2918 33.6664 82.0481C32.5742 86.6008 30.6369 90.8786 27.7547 94.2001C24.8306 101.262 22.9067 108.678 25.3014 113.188C25.6165 113.582 26.0408 113.785 26.4609 113.986C26.6474 114.075 26.833 114.164 27.0079 114.268C27.6336 114.553 31.843 117.738 30.3641 117.966C20.7003 113.16 18.2919 108.208 21.5916 98.9669C19.233 100.101 16.5321 100.772 13.4693 100.844C12.7305 100.768 11.9713 100.714 11.2049 100.66H11.2048C9.5308 100.542 7.82283 100.421 6.22052 100.062C8.14785 106.581 16.3898 114.808 21.8882 117.454C23.1675 118.103 24.5667 118.586 25.9682 119.07C28.9912 120.114 32.0252 121.161 33.8907 123.882C33.9908 124.182 33.7829 124.174 33.6153 124.168C33.5923 124.167 33.57 124.166 33.5494 124.166C24.2773 120.981 15.6878 115.861 9.37368 108.239C8.96974 107.746 8.54974 107.25 8.12475 106.747C6.06614 104.315 3.89064 101.745 2.85763 98.7583C2.11602 98.2987 1.43636 97.717 0.840993 96.9756C0.822033 96.9471 0.774634 96.8887 0.711434 96.8107C0.395416 96.421 -0.315661 95.544 0.158378 95.4966C1.00829 95.6953 1.86623 95.8688 2.72825 96.0135C2.78523 96.0162 2.84693 96.0267 2.91262 96.044C10.8794 97.3425 19.1705 96.1619 24.6754 89.6375C25.5143 88.6847 26.2551 87.6678 26.9061 86.6006C27.4682 85.4192 28.0519 84.2489 28.6654 83.0976C30.277 79.1442 30.942 74.771 30.9884 70.5249ZM45.4514 62.9195C44.5144 63.1232 43.6267 63.1018 41.7977 62.8451C37.5882 61.9919 33.2651 59.3752 31.2172 55.5071C29.5676 52.9473 31.1035 41.9687 35.256 47.3158C35.3698 47.4864 35.1991 47.5433 35.0853 47.4864C34.5612 47.5301 34.3724 48.5129 34.2358 49.2243C34.1945 49.4394 34.1579 49.6297 34.1183 49.7618C34.0045 50.2737 33.8339 51.4683 33.9477 51.6958C35.1262 49.5843 36.3895 47.388 38.2499 45.7656C36.9756 45.2895 35.8072 44.5742 34.8578 43.5616C34.6238 42.9064 35.5448 43.4832 36.0055 43.7717C36.1048 43.8339 36.1827 43.8827 36.223 43.9029C36.8488 44.1304 37.5314 44.2442 38.1571 44.3011C40.5658 44.7025 42.9941 43.9962 45.3972 43.2972C48.7829 42.3124 52.1186 41.3422 55.2792 43.5047L55.575 43.7158C58.2055 45.5924 61.352 47.8371 62.7727 50.4771L62.7879 50.5013L62.7867 50.5032C63.9212 52.6308 63.9324 55.0146 61.6502 57.6688C61.4073 57.9752 61.1609 58.2913 60.9101 58.6131C58.4604 61.7563 55.5961 65.4315 51.468 65.6895C49.8906 66.2291 46.1022 63.8912 45.4514 62.9195ZM48.7104 62.4612C47.9969 62.6384 47.2483 62.7067 46.4599 62.6351C46.7284 62.5471 47.0205 62.4456 47.3513 62.3306C47.5998 62.2442 47.8701 62.1502 48.1687 62.0487L48.2757 62.1306C48.4181 62.2396 48.5629 62.3505 48.7104 62.4612ZM58.6803 47.5563C58.5015 47.3575 58.2976 47.1633 58.0665 46.9746C56.6778 44.9173 54.7775 44.569 52.7126 44.8208C53.4971 45.258 54.2376 45.9943 54.8716 46.705C55.0067 46.8295 55.1381 46.9616 55.2656 47.1015C55.27 47.0974 55.2745 47.093 55.2791 47.0884C56.0733 47.0417 56.7908 47.6856 57.4 48.2324L57.4001 48.2324C57.5326 48.3514 57.66 48.4657 57.782 48.5674C57.8219 48.6011 57.8598 48.6341 57.8959 48.6665C58.1335 48.2638 58.3857 47.8784 58.6803 47.5563ZM45.7627 46.3534C45.02 46.7469 44.2984 47.2232 43.618 47.7708C43.618 47.3943 43.3946 46.9618 43.0429 46.5464C43.7399 46.5413 44.4296 46.4919 45.0969 46.4058C45.3158 46.3971 45.5379 46.3792 45.7627 46.3534ZM87.1911 35.541C79.6824 32.4124 79.5686 29.2837 86.1672 24.7899C91.2868 21.2062 93.3346 20.8649 97.7715 25.6432C97.9991 25.9276 97.9991 26.2689 97.4871 26.212C96.1103 26.1569 94.7868 26.8483 93.5166 27.5119L93.3915 27.5772C90.8886 28.8856 88.3857 30.4214 86.5654 32.6399C94.8136 32.4693 118.762 25.3587 123.199 18.5327C119.387 18.3051 115.519 19.2153 111.936 20.4667C109.24 21.7069 108.537 21.0559 106.63 19.2889L106.628 19.2873L106.624 19.2836C106.521 19.1882 106.415 19.0895 106.304 18.9877C105.294 18.3727 108.456 17.4523 110.237 16.934C110.762 16.7812 111.167 16.6634 111.31 16.5986C115.747 15.4609 121.151 14.6077 124.962 17.7932C126.555 18.8171 128.261 20.808 126.441 22.4008C120.184 28.0892 95.3824 37.3613 87.1911 35.541ZM96.5175 57.7895C98.5422 64.8964 100.49 71.735 108.238 75.9856C112.84 78.564 119.213 77.129 124.971 73.9595C125.229 74.5933 125.552 75.3225 125.866 76.0293C126.409 77.2524 126.922 78.4084 127.01 78.8865L127.026 78.9241C126.698 80.3947 127.439 83.6831 127.806 85.0867C128.456 87.5382 129.259 89.9284 130.144 92.2812C130.403 99.2758 128.321 106.127 122.573 111.083C121.756 111.9 124.258 114.085 125.993 115.248C124.165 115.464 122.336 115.636 120.525 115.804C118.705 116.089 123.881 120.07 124.678 120.184C130.082 119.729 135.543 119.103 140.719 117.454C143.506 116.6 146.18 115.406 148.569 113.813C149.089 113.476 149.725 113.486 150.378 113.495C150.939 113.503 151.513 113.511 152.039 113.301C154.144 112.675 157.613 110.457 156.59 107.897L156.535 107.831C155.16 106.169 152.748 103.254 150.503 104.825C149.566 105.474 148.69 106.224 147.811 106.977C146.608 108.007 145.398 109.043 144.018 109.831C140.269 109.514 138.481 106.012 136.924 102.963L136.923 102.961C136.803 102.726 136.684 102.494 136.566 102.266C136.098 101.153 135.547 99.9376 134.964 98.6544L134.964 98.6542C134.679 98.0257 134.386 97.3809 134.093 96.7239C133.745 91.4392 132.087 86.2361 129.923 81.2928C129.947 81.0175 129.981 80.7461 130.025 80.4791C130.206 80.2979 130.026 80.0807 129.888 79.9136L129.888 79.9133C129.869 79.8907 129.851 79.8689 129.835 79.8483C129.821 79.8301 129.808 79.8128 129.797 79.7965C129.401 79.3425 129.055 78.9962 128.754 78.7435C127.905 76.9668 127.007 75.2292 126.1 73.5394C126.056 73.4876 126.012 73.4375 125.97 73.3889C131.612 70.047 136.512 65.1239 138.33 60.8544C141.572 51.241 139.126 39.3522 131.731 32.2986C131.286 31.8685 130.849 31.3766 130.403 30.8752C129.14 29.4535 127.809 27.9557 126.043 27.5772C126.22 28.4271 126.948 29.1006 127.678 29.7761C128.121 30.1858 128.565 30.5962 128.887 31.0471C131.39 33.55 133.21 36.6787 134.006 40.1486C137.135 52.1511 134.461 61.537 123.426 67.8511L123.305 67.9244C118.147 71.0423 111.603 74.9977 105.507 72.345C104.142 70.2971 103.403 67.908 102.72 65.5189C100.559 55.7917 96.8042 47.3729 89.4661 40.433C88.1009 38.6696 82.697 35.4272 86.8495 39.8642C92.8656 44.9712 94.7216 51.4859 96.5175 57.7895ZM134.034 101.446C133.953 102.306 133.831 103.168 133.666 104.029C132.777 107.385 131.118 112.239 128.54 114.915C133.256 114.23 137.913 113.127 142.198 110.912C138.61 108.612 135.989 105.196 134.034 101.446ZM112.391 66.2013C110.741 65.6893 109.035 64.4379 108.181 62.902C104.541 60.456 103.119 59.4321 106.475 55.7346C106.311 55.5882 106.12 55.4327 105.918 55.2682L105.917 55.2675L105.917 55.2674C104.785 54.3456 103.309 53.1436 104.37 51.6959C104.484 51.5821 104.408 51.5062 104.143 51.4683C102.948 50.6719 101.754 49.8187 100.9 48.6241C100.081 47.5711 101.428 46.3042 102.613 45.19C103.156 44.6791 103.665 44.2003 103.915 43.789C104.771 42.9947 105.568 42.1202 106.366 41.2438L106.367 41.2436C107.799 39.6723 109.236 38.0949 111.026 36.9629C112.108 36.8135 113.044 37.6688 113.865 38.419L113.865 38.4191C114.295 38.8119 114.693 39.176 115.064 39.352C115.693 38.9986 116.206 38.2249 116.714 37.4591C117.677 36.0065 118.622 34.5824 120.298 36.1096C122.175 35.6545 123.881 37.3042 125.076 38.5556C126.254 39.6266 125.869 41.2017 125.536 42.569C125.515 42.6542 125.494 42.7385 125.474 42.8219C138.444 46.5763 127.01 58.8064 120.81 63.414C119.16 64.6654 117.055 65.0636 115.121 65.0067C115.046 65.0569 114.97 65.108 114.894 65.1594L114.894 65.1596C114.107 65.6904 113.272 66.2531 112.391 66.2013ZM87.7032 19.6704C87.0775 19.4428 86.4518 18.9878 86.1105 18.4189C86.7638 16.7665 87.7286 15.2957 88.6892 13.8314L88.6893 13.8313C89.1506 13.1281 89.611 12.4263 90.0354 11.7066C91.4007 9.62085 92.7469 7.5351 94.0742 5.44935C94.4155 4.76674 96.2927 6.53016 96.4634 7.04211C95.4527 8.50856 94.3937 9.96809 93.3345 11.4279C91.3533 14.1586 89.3712 16.8903 87.7032 19.6704Z" fill="black"/>
</svg>
