<svg width="317" height="296" viewBox="0 0 317 296" fill="none" xmlns="http://www.w3.org/2000/svg">
<path d="M135.567 0.387155C129.927 2.16052 128.303 9.36083 131.337 19.1891C131.422 19.4883 131.102 19.3173 130.311 18.6336C120.975 10.7923 110.27 15.4928 115.249 25.2357C117.599 29.8507 122.513 28.291 121.06 23.3768C119.671 18.7405 123.923 20.8984 132.298 29.0815C137.362 34.0598 137.918 34.4016 139.67 33.5256C141.785 32.4787 141.764 31.3677 139.606 25.9835C135.867 16.7107 134.67 8.69848 136.764 6.79692C139.029 4.7458 149.84 13.7622 156.378 23.1632C162.061 31.3036 165.373 37.0083 167.809 42.8198C169.048 45.7897 169.86 46.7084 171.035 46.5588C173.877 46.1743 174.005 43.9522 171.569 37.692C163.621 17.3517 144.541 -2.45451 135.567 0.387155Z" fill="black"/>
<path d="M234.599 4.56418C213.895 9.00829 180.094 48.8343 169.07 81.8019C167.018 87.8912 171.762 89.0876 174.112 83.0625C186.611 51.2914 215.113 16.8282 234.171 10.5039C245.987 6.59394 245.431 16.9137 232.975 33.2158C229.962 37.1472 226.437 41.4203 218.467 50.7145C200.2 72.0163 198.149 75.328 201.503 78.1483C203.426 79.7721 204.879 79.473 212.699 75.7553C224.856 70.0079 236.393 66.2475 235.111 68.4482C233.787 70.6916 230.881 73.8324 220.07 84.7931C207.293 97.7408 205.263 100.882 207.528 104.322C209.344 107.078 212.378 106.95 222.335 103.702C236.735 99.0228 238.338 98.9373 236.885 102.89C234.022 110.774 222.399 121.35 205.541 131.478C193.939 138.443 196.61 143.336 208.426 136.755C232.548 123.337 248.957 103.232 241.692 96.0316C238.744 93.1258 234.684 93.3395 222.634 97.1212C214.6 99.6424 215.028 99.5356 215.775 98.5955C216.844 97.2494 221.202 92.5703 226.843 86.716C239.171 73.8751 241.436 70.8412 241.436 67.038C241.436 60.0941 232.59 60.4787 214.899 68.2132C212.763 69.1533 210.989 69.9011 210.947 69.8583C210.818 69.7301 216.737 62.5298 226.159 51.3555C238.915 36.2498 244.598 27.8103 247.162 20.2681C250.88 9.35014 245.218 2.27803 234.599 4.56418Z" fill="black"/>
<path d="M98.9253 29.2895C95.3786 29.5673 91.5968 30.9133 87.2809 33.4345C84.2683 35.2078 83.2428 35.5924 77.9868 37.0239C67.4961 39.9083 59.3984 48.4974 59.3984 56.7447C59.3984 63.0476 64.2699 63.4535 65.2527 57.2361C66.4278 49.8435 71.8761 45.0362 82.3668 42.1731C85.9776 41.1903 86.8109 40.8484 90.614 38.7332C97.4297 34.9728 102.237 34.4814 105.25 37.259C106.938 38.8187 108.219 39.0964 110.057 38.3059C113.24 36.9385 116.21 39.1605 117.898 44.2029C119.287 48.3479 119.928 48.7538 124.351 48.2838C130.718 47.5787 134.628 52.9843 133.559 61.0392C132.705 67.4276 137.79 67.2994 139.542 60.8683C142.234 50.9331 135.717 41.8526 125.932 41.8954C123.752 41.8954 123.752 41.8954 123.496 41.0194C121.637 34.7592 115.121 30.4433 109.758 31.9389C109.031 32.1312 108.86 32.1098 108.262 31.6397C106.062 29.9732 102.323 29.0331 98.9253 29.2895Z" fill="black"/>
<path d="M83.5407 61.1523C82.9639 61.7719 82.6647 62.3702 82.3656 63.4598C79.353 74.8051 71.1058 83.0951 69.4179 76.4717C68.606 73.2668 65.2943 72.7754 64.0764 75.6811C60.0596 85.1462 55.2737 84.6762 55.5301 74.8692C55.701 67.7544 55.7437 68.139 55.0387 67.4125C52.2611 64.5281 49.8895 69.1218 49.9322 77.2195C50.0177 88.6289 59.2691 92.3252 66.1703 83.7361C67.1958 82.4541 67.1958 82.4541 68.0291 82.9028C72.4732 85.4026 78.8403 82.6464 83.0921 76.3862C84.0322 75.0188 86.1047 71.0234 86.1047 70.6174C86.1047 70.2115 86.3183 70.361 87.7071 71.7071C93.3263 77.2622 102.364 77.54 108.966 72.3908C110.504 71.1729 110.504 71.1729 111.402 71.6216C118.859 75.3606 132.298 67.2843 127.319 62.0711C125.76 60.4259 123.944 60.9814 121.935 63.759C119.478 67.1561 114.436 68.0535 113.004 65.3614C112.299 64.0154 111.551 63.5453 110.099 63.5453C108.859 63.5453 108.731 63.6521 105.889 66.8356C100.655 72.754 91.9589 70.9806 88.9677 63.353C87.7285 60.2122 85.3782 59.2508 83.5407 61.1523Z" fill="black"/>
<path d="M135.504 68.7773C133.282 69.7602 134.115 72.6873 137.149 74.5248C143.366 78.3065 143.281 85.9128 136.978 88.0066C133.752 89.0749 132.812 91.0833 134.093 94.16C134.884 96.0188 135.012 98.0272 134.435 99.1596C133.217 101.531 129.286 103.198 126.124 102.685C121.552 101.916 120.419 106.317 124.799 107.941C133.987 111.36 144.2 102.664 141.102 94.0745C140.674 92.8781 140.674 92.8781 141.871 92.2584C146.614 89.78 149.071 83.242 147.426 77.5373C145.738 71.7258 139.35 67.0467 135.504 68.7773Z" fill="black"/>
<path d="M120.612 72.3857C117.962 73.5395 118.261 76.958 121.06 77.3213C126.167 77.9836 126.551 85.3121 121.552 86.8932C116.787 88.3888 118.582 93.4098 123.581 92.5551C132.47 91.0382 134.329 75.6547 125.996 72.5567C124.564 72.0012 121.659 71.9157 120.612 72.3857Z" fill="black"/>
<path d="M90.2495 86.3143C86.9164 88.6431 86.3395 88.8568 83.6047 88.8141C80.6989 88.75 80.1221 89.0918 80.1221 90.8866C80.1221 95.3093 88.6471 95.1384 93.4757 90.6302C97.578 86.7843 94.8218 83.088 90.2495 86.3143Z" fill="black"/>
<path d="M69.867 90.9086C68.9697 91.2078 68.3287 91.2719 67.1749 91.165C63.4573 90.8659 63.1581 95.075 66.8331 96.1433C70.4866 97.2116 74.4393 95.4596 74.4393 92.7675C74.4393 90.6736 72.6873 89.9472 69.867 90.9086Z" fill="black"/>
<path d="M19.7215 91.547C18.055 92.017 17.3926 93.534 16.0252 99.8797C13.9527 109.558 12.2007 115.37 8.44033 125.284C1.17592 144.385 0.342655 147.611 0.321289 156.264C0.321289 165.708 2.79973 172.225 9.74365 180.985C12.1366 184.019 13.0126 184.531 14.5937 183.805C16.4525 182.972 16.2175 181.796 13.3117 176.968C3.6971 161.007 3.71847 154.256 13.4399 129.6C23.0546 105.2 25.5971 89.8804 19.7215 91.547Z" fill="black"/>
<path d="M112.707 96.3191C111.852 96.6823 111.104 97.8574 110.378 99.9726C107.216 109.032 100.336 115.762 92.0459 117.856C85.8498 119.416 80.9998 115.954 75.7865 106.276C73.6713 102.323 69.9963 105.015 71.492 109.438C76.983 125.889 93.392 128.56 107.301 115.292C115.121 107.814 119.245 93.3706 112.707 96.3191Z" fill="black"/>
<path d="M26.1744 99.4582C23.4823 100.227 24.5506 102.749 28.4392 104.778C36.8573 109.18 46.472 116.059 54.8047 123.666C58.4155 126.977 59.0351 127.469 60.3598 128.088C62.8169 129.264 64.5048 128.623 64.227 126.636C63.4365 120.76 43.9081 105.441 30.3835 100.078C28.2042 99.2232 27.3709 99.095 26.1744 99.4582Z" fill="black"/>
<path d="M153.086 102.64C146.976 103.88 140.865 111.272 144.177 113.452C145.501 114.328 147.082 113.815 149.347 111.806C154.39 107.341 156.975 107.982 160.137 114.456C166.782 128.109 162.594 157.743 153.407 162.209C148.813 164.431 143.707 164.153 116.764 160.115C98.4751 157.38 98.0691 157.337 97.0222 158.341C94.2874 161.012 96.4667 162.23 108.004 164.473C154.368 173.511 162.893 171.46 167.615 150.18C173.427 124.049 166.077 100.034 153.086 102.64Z" fill="black"/>
<path d="M176.823 125.821C175.798 126.761 176.054 127.766 178.126 131.056C178.832 132.167 180.776 135.436 182.464 138.32C190.241 151.674 193.852 155.712 203.167 161.438C221.691 172.826 226.136 182.184 228.721 215.344C229.618 226.754 230.516 228.954 233.592 227.373C236.819 225.707 234.554 198.422 230.088 185.047C225.772 172.121 220.345 165.455 207.889 157.72C198.702 152.016 195.839 149.26 190.22 140.692C180.733 126.27 179.964 125.287 178.233 125.287C177.635 125.287 177.229 125.437 176.823 125.821Z" fill="black"/>
<path d="M115.591 126.508C108.796 127.149 103.305 128.366 102.087 129.499C100.998 130.524 101.147 132.533 102.386 133.131C103.348 133.622 103.818 133.622 107.066 133.216C122.406 131.251 131.487 132.426 142.341 137.81C148.344 140.78 151.934 140.118 150.246 136.336C147.639 130.588 128.816 125.226 115.591 126.508Z" fill="black"/>
<path d="M74.5674 126.928C62.7093 128.894 57.902 139.214 66.5552 144.107C67.7517 144.79 67.7517 144.79 67.2389 145.346C66.021 146.649 65.1878 149.234 65.551 150.58C65.7646 151.307 65.7219 151.371 65.1023 151.82C60.2095 155.217 36.4293 175.45 24.5712 186.326C20.8322 189.744 20.8322 189.744 19.8707 188.911C13.055 182.886 2.30795 191.838 2.26522 203.589C2.22249 210.277 4.57274 212.606 10.7902 212.029C25.725 210.64 36.237 198.59 27.6052 192.757C27.0497 192.394 26.5796 192.073 26.5369 192.052C26.4087 191.945 31.7288 187.031 35.8951 183.377C38.6727 180.963 42.8177 177.48 50.3171 171.327C59.3335 163.913 63.2648 160.516 66.5552 157.311C69.1191 154.811 69.1191 154.811 70.6147 155.195C71.448 155.431 72.6017 155.601 73.2 155.601C74.311 155.623 74.311 155.623 74.4606 156.627C75.8921 166.199 88.968 165.408 95.8906 155.345C100.741 148.316 96.5956 143.829 91.4892 150.58C85.7204 158.272 78.8619 160.003 80.6353 153.315C81.4472 150.26 79.9516 149.17 75.2297 149.363C71.3839 149.534 71.4052 149.32 75.5289 146.606C79.4815 144 78.5201 140.667 73.6059 139.898C68.0508 139 67.0252 136.735 71.213 134.599C75.593 132.398 81.3831 132.804 91.2328 135.988C96.3179 137.633 97.963 137.248 97.963 134.385C97.963 130.347 82.9001 125.54 74.5674 126.928ZM16.0035 193.355C16.6658 193.91 16.6658 193.91 14.4865 196.197C13.2687 197.457 11.5167 199.38 10.5766 200.448C8.61089 202.692 8.56816 202.692 9.08094 200.769C10.427 195.534 14.0378 191.688 16.0035 193.355ZM23.0756 197.5C24.5498 197.778 24.8276 198.013 24.5498 198.739C23.7379 200.897 18.0973 204.529 14.0165 205.491C13.2259 205.683 13.3328 205.534 17.5418 201.068C21.4091 196.966 21.1313 197.137 23.0756 197.5Z" fill="black"/>
<path d="M89.203 162.594C87.4724 163.491 87.6647 164.239 91.5319 172.123C99.3732 188.062 107.257 208.872 109.714 220.217C109.907 221.051 110.078 221.905 110.12 222.076C110.59 223.871 111.723 228.935 112.385 232.182C113.688 238.336 115.398 240.622 117.449 238.934C119.179 237.481 118.667 228.807 116.338 220.517C116.274 220.324 116.188 219.982 116.124 219.769C111.039 199.984 103.668 181.887 94.1599 165.82C92.1302 162.38 91.0191 161.654 89.203 162.594Z" fill="black"/>
<path d="M278.077 164.755C275.278 165.759 273.612 167.19 268.441 172.959C260.023 182.381 250.579 189.689 239.49 195.308C236.072 197.017 235.132 198.662 236.691 200.115C237.973 201.312 239.255 201.012 244.981 198.171C256.818 192.295 265.429 185.629 274.039 175.715C280.171 168.622 281.731 168.259 284.914 173.044C291.089 182.317 296.708 216.802 291.602 214.174C289.828 213.255 287.542 210.883 285.171 207.529C281.111 201.782 276.817 205.521 280.492 211.589C285.705 220.263 293.888 223.19 297.563 217.721C303.182 209.388 295.576 173.963 286.559 166.442C284.273 164.541 280.684 163.836 278.077 164.755Z" fill="black"/>
<path d="M66.8763 166.694C66.1926 166.907 65.5516 167.783 60.0606 176.031C46.771 196.008 45.2113 198.721 45.5745 201.37C46.3651 207.332 54.4628 197.653 66.2567 176.629C70.6154 168.852 70.829 165.454 66.8763 166.694Z" fill="black"/>
<path d="M107.875 168.083C106.294 169.13 106.444 169.963 109.499 177.313C122.938 209.618 130.587 221.091 142.424 226.796C153.94 232.351 172.849 232.928 172.849 227.736C172.849 225.578 171.332 225.044 164.623 224.831C141.056 224.125 135.501 219.211 118.9 184.257C110.589 166.758 110.354 166.416 107.875 168.083Z" fill="black"/>
<path d="M80.1648 174.792C78.9256 175.39 63.008 197.782 60.4441 202.504C57.3888 208.165 61.3201 210.195 65.4437 205.089C68.1572 201.734 73.7123 193.338 79.7162 183.509C83.7329 176.971 84.203 175.198 82.0878 174.728C81.7673 174.664 81.3613 174.557 81.1904 174.514C81.0195 174.471 80.5494 174.6 80.1648 174.792Z" fill="black"/>
<path d="M145.694 201.992C143.344 203.231 144.113 205.752 148.065 209.683C150.8 212.397 153.108 213.209 154.539 211.969C156.035 210.709 155.458 208.978 152.723 206.457C151.634 205.474 150.095 204.021 149.326 203.209C148.493 202.398 147.702 201.778 147.467 201.778C147.232 201.778 146.912 201.735 146.741 201.671C146.591 201.628 146.121 201.757 145.694 201.992Z" fill="black"/>
<path d="M177.934 204.13C176.289 205.498 176.481 207.591 178.917 214.92C189.044 245.366 210.068 275.535 219.897 273.697C223.23 273.078 222.204 270.151 217.418 266.604C206.628 258.613 193.36 236.457 183.639 210.177C181.331 203.981 181.182 203.724 179.579 203.553C178.853 203.468 178.596 203.575 177.934 204.13Z" fill="black"/>
<path d="M265.046 205.282C253.616 211.2 243.275 218.23 242.057 220.9C239.877 225.665 243.851 225.152 252.398 219.597C255.197 217.759 260.389 214.469 263.935 212.29C272.311 207.098 271.99 207.354 271.99 205.709C271.99 202.91 269.854 202.782 265.046 205.282Z" fill="black"/>
<path d="M33.0331 206.927C27.4566 208.23 36.1525 221.498 46.7927 227.951C54.5913 232.673 61.1506 234.638 77.2391 237.031C94.2036 239.552 102.622 242.202 109.758 247.223C115.142 251.005 119.458 247.351 114.8 242.971C108.198 236.818 97.4085 233.014 77.8801 229.981C63.6932 227.78 58.2662 226.348 51.8778 223.143C45.5322 219.939 40.1266 215.067 36.6439 209.405C35.7252 207.931 34.4646 206.628 33.9946 206.713C33.9305 206.734 33.4818 206.82 33.0331 206.927Z" fill="black"/>
<path d="M28.8877 214.406C25.0419 216.35 21.8583 222.91 22.948 226.606C23.8881 229.832 26.1102 231.157 30.597 231.135C33.5028 231.114 33.5028 231.114 33.866 232.631C36.0239 241.626 43.5875 245.194 50.0613 240.28C54.5695 236.84 52.1552 232.61 47.1769 235.195C42.7328 237.524 41.109 236.541 39.5279 230.559C38.246 225.751 37.1563 224.939 32.0071 225.025C30.3406 225.046 29.0373 224.982 28.9518 224.875C28.5245 224.17 30.1056 220.474 31.5157 218.914C34.2933 215.816 32.4131 212.611 28.8877 214.406Z" fill="black"/>
<path d="M234.661 230.19C233.037 231.173 233.763 234.142 235.729 234.57C235.985 234.612 237.011 234.826 238.015 234.997C250.642 237.411 264.915 243.714 274.017 250.893C279.187 254.974 282.691 254.419 280.619 249.868C276.944 241.727 240.985 226.323 234.661 230.19Z" fill="black"/>
<path d="M146.099 235.557C141.655 237.886 152.402 248.826 163.085 252.842C175.52 257.5 191.737 256.218 189.152 250.77C188.447 249.274 187.72 249.125 180.968 249.082C167.187 249.018 157.68 245.343 150.522 237.373C148.535 235.13 147.595 234.745 146.099 235.557Z" fill="black"/>
<path d="M287.052 238.249C285.449 238.613 284.937 238.826 284.296 239.403C282.009 241.39 283.932 243.441 288.761 244.168C300.534 245.962 306.58 254.829 310.17 275.597C310.853 279.571 310.597 289.207 309.807 289.698C309.272 290.019 289.552 275.298 285.428 271.516C282.18 268.525 279.146 271.067 281.839 274.55C283.997 277.349 295.855 287.434 302.67 292.262C312.477 299.206 316.323 296.129 316.302 281.366C316.28 265.192 310.298 248.633 302.307 242.587C298.312 239.574 290.684 237.416 287.052 238.249Z" fill="black"/>
<path d="M265.772 264.404C252.568 265.493 231.244 270.108 229.471 272.245C228.381 273.569 228.681 275.172 230.112 275.813C231.074 276.24 230.988 276.262 236.629 275.108C242.098 273.997 253.123 272.181 262.802 270.792C271.028 269.617 271.818 269.403 272.523 268.014C273.335 266.455 272.652 265.301 270.558 264.596C269.148 264.147 268.977 264.126 265.772 264.404Z" fill="black"/>
</svg>
