<svg width="400" height="288" viewBox="0 0 400 288" fill="none" xmlns="http://www.w3.org/2000/svg">
<path d="M183.419 0.501354C177.266 2.63794 170.664 12.3167 166.028 26.0122C165.045 28.9394 165.045 28.9394 163.912 27.2087C152.546 10.0305 130.09 11.8894 136.863 29.4308C137.013 29.7726 136.82 29.8154 134.919 29.8154C122.676 29.8367 119.728 39.8146 128.21 52.4846C133.316 60.1122 137.419 63.1461 139.79 61.0309C141.371 59.6208 140.944 57.6978 138.252 54.3861C131.757 46.3526 129.086 40.8188 130.432 38.2122C131.436 36.2679 136.991 36.3961 141.713 38.4899C146.884 40.7547 149.319 37.1011 145.858 32.2724C140.346 24.6234 140.666 20.2862 146.67 21.2476C151.862 22.0809 156.669 26.7814 161.071 35.3491C163.421 39.9642 163.934 40.4983 165.835 40.4983C168.079 40.4983 168.997 39.2804 170.087 34.9432C174.681 16.4617 183.996 2.06106 187.757 7.65893C190.513 11.7825 191.496 25.7558 189.658 35.1568C189.594 35.456 189.402 36.6097 189.21 37.7207C188.697 40.7761 187.864 44.451 187.287 46.3953C186.09 50.3266 187.799 52.6341 190.769 51.0958C192.35 50.2839 195.149 42.3999 195.833 36.7593C195.918 36.161 196.111 34.7722 196.26 33.6612C199.316 12.4663 193.355 -2.91719 183.419 0.501354Z" fill="black"/>
<path d="M224.74 34.5357C208.801 36.3518 186.623 57.034 174.807 81.092C172.009 86.7753 171.645 88.506 172.991 89.7665C174.551 91.2408 175.598 90.6853 177.307 87.4163C190.063 63.1233 209.313 43.9153 224.205 40.6036C231.94 38.8944 231.406 42.3984 221.364 58.8715C214.826 69.6185 213.971 72.1824 215.937 75.1523C217.774 77.9726 219.911 77.9298 229.184 74.8959C233.735 73.4003 237.73 72.332 238.798 72.332C239.482 72.332 237.41 75.3018 234.931 77.8444C231.064 81.8825 227.09 84.9806 217.411 91.5186C209.42 96.9241 207.796 98.6761 208.202 101.561C208.544 104.06 210.147 105.107 215.274 106.197C221.129 107.415 221.278 107.564 218.864 109.573C211.963 115.277 198.759 120.363 177.414 125.512C169.338 127.456 167.735 128.289 167.735 130.575C167.735 135.19 184.572 132.263 205.339 124.016C227.859 115.106 234.141 104.359 219.056 100.578C216.62 99.9794 216.62 99.9794 221.941 96.3686C240.443 83.8055 247.857 75.1309 244.909 69.4476C242.708 65.153 238.264 65.0889 225.701 69.1485C224.269 69.5971 222.988 69.9817 222.859 69.9817C222.539 69.9817 223.714 67.7597 227.175 61.6704C234.525 48.8295 236.427 43.1675 234.824 38.9585C233.585 35.6681 229.696 33.9588 224.74 34.5357Z" fill="black"/>
<path d="M120.731 59.7896C117.825 60.6656 115.902 61.9262 113.658 64.4046C112.334 65.9002 112.334 65.9002 110.902 64.5542C104.236 58.2726 93.6387 62.033 91.5448 71.3913C90.7329 75.1303 91.7798 77.331 94.3651 77.331C96.2239 77.331 96.7153 76.8182 98.1041 73.3356C100.54 67.2676 105.326 67.1395 108.659 73.0792C111.116 77.4805 113.894 77.3096 116.222 72.6305C120.132 64.8319 125.816 64.3833 131.264 71.4767C134.084 75.1517 135.516 75.8567 140.921 76.1986C152.245 76.9037 156.369 81.3905 157.672 94.4023C157.971 97.3508 159.061 98.5259 161.048 98.0559C164.958 97.1158 163.89 83.6553 159.36 76.9891C155.771 71.669 150.857 69.4042 142.374 69.1478C139.896 69.0837 137.823 68.9769 137.759 68.9128C137.716 68.8487 137.097 67.9941 136.37 66.9899C131.841 60.5588 126.457 58.1017 120.731 59.7896Z" fill="black"/>
<path d="M80.9045 75.9896C73.3837 77.8271 68.4482 85.8393 70.6275 92.655C71.0121 93.8729 71.0121 93.8729 70.2216 95.1548C65.9911 102.12 66.9526 113.038 71.9309 114.406C74.7298 115.175 75.9049 112.547 74.5802 108.444C73.4692 104.94 74.0888 100.86 76.2468 97.6974C77.9774 95.1762 78.0415 95.0267 78.0415 93.9584C78.0201 93.2747 77.8492 92.6123 77.4433 91.9286C74.7084 86.9931 83.5966 79.0663 87.592 82.8908C89.9209 85.1129 92.9549 83.4036 92.1216 80.3056C91.1815 76.8016 85.8828 74.7718 80.9045 75.9896Z" fill="black"/>
<path d="M107.248 85.4494C103.722 86.6886 99.8979 90.5345 100.347 92.372C100.902 94.6154 102.996 94.8504 105.303 92.9275C108.637 90.1713 110.602 90.0217 113.893 92.3292C121.777 97.7989 125.879 98.2262 133.677 94.4231C140.45 91.1114 138.143 86.1758 131.028 88.7611C124.618 91.1114 122.909 90.9832 118.401 87.8638C114.085 84.8725 110.859 84.1675 107.248 85.4494Z" fill="black"/>
<path d="M95.6686 87.712C94.6217 88.5452 94.2798 89.4426 93.6175 93.0748C92.1005 101.407 90.8186 104.441 88.1906 105.809C86.4172 106.706 83.9815 104.847 82.9987 101.813C81.6099 97.5403 77.3794 99.6982 78.3195 104.206C79.8579 111.599 88.0624 114.419 93.532 109.441C98.4889 104.911 101.822 91.0237 98.724 87.7547C98.1257 87.1137 96.4592 87.0923 95.6686 87.712Z" fill="black"/>
<path d="M134.596 95.7489C131.968 97.3941 131.092 103.312 132.929 107.094C135.472 112.329 142.971 114.636 148.014 111.731C152.073 109.38 149.723 104.381 145.364 106.111C140.301 108.141 137.267 104.594 138.164 97.7146C138.399 95.8558 136.305 94.702 134.596 95.7489Z" fill="black"/>
<path d="M164.917 98.1218C162.951 98.4423 162.674 100.921 164.233 103.912C166.712 108.655 165.088 113.591 160.067 116.561C156.264 118.804 151.221 119.36 148.957 117.778C145.859 115.62 142.974 118.291 144.983 121.475C149.619 128.867 166.028 124.594 170.857 114.744C174.51 107.266 170.899 97.139 164.917 98.1218Z" fill="black"/>
<path d="M106.608 101.415C101.95 103.744 99.8987 107.013 101.971 108.765C103.146 109.748 104.343 109.534 106.308 108.017C107.227 107.312 108.659 106.351 109.492 105.902C115.304 102.676 112.59 98.4239 106.608 101.415Z" fill="black"/>
<path d="M91.4378 112.611C87.7629 115.025 88.0193 119.598 91.8011 118.978C92.848 118.807 95.1982 116.457 95.5401 115.218C96.2238 112.675 93.7453 111.094 91.4378 112.611Z" fill="black"/>
<path d="M61.8669 116.11C59.773 116.666 58.2561 118.183 57.5723 120.405C57.2305 121.516 57.1023 121.687 56.7391 121.58C49.9661 119.7 44.0477 125.703 47.3167 131.13C49.5174 134.827 53.7479 133.502 53 129.357C52.6368 127.349 52.9359 127.199 56.2049 127.776C60.0722 128.46 61.9524 127.434 63.0206 124.037C63.5548 122.37 64.4308 122.605 66.2255 124.913C67.6784 126.772 69.0458 127.263 70.4987 126.451C74.8574 123.951 67.1443 114.721 61.8669 116.11Z" fill="black"/>
<path d="M93.98 119.747C87.9121 122.247 85.2627 123.956 85.2627 125.409C85.2627 128.443 88.5744 128.122 96.6293 124.298C102.441 121.541 99.9838 117.29 93.98 119.747Z" fill="black"/>
<path d="M221.599 119.06C220.061 119.359 219.099 120.983 219.655 122.329C220.061 123.29 221.022 123.76 223.928 124.359C228.073 125.235 231.342 126.431 236.32 128.845C243.35 132.243 245.251 132.584 253.349 131.815C260.699 131.132 263.904 131.943 269.395 135.896C274.8 139.763 278.39 135.64 273.454 131.196C268.177 126.452 262.216 124.914 252.665 125.854C246.341 126.474 245.016 126.217 239.055 123.269C233.821 120.705 230.039 119.551 225.744 119.231C224.804 119.167 223.608 119.081 223.074 119.039C222.539 118.996 221.877 119.017 221.599 119.06Z" fill="black"/>
<path d="M78.6416 125.768C77.6374 126.174 76.4837 127.093 75.7359 128.119C74.988 129.144 74.988 129.144 74.2189 128.61C68.151 124.508 61.2711 130.64 63.3864 138.289C63.6855 139.421 63.6855 139.421 62.1258 140.895C55.9297 146.792 58.8782 152.54 69.262 154.805C75.3513 156.129 75.2017 156.001 82.5943 165.381C101.653 189.524 113.062 194.973 132.59 189.161C149.918 184.012 176.69 163.009 174.788 156.044C174.062 153.437 171.669 154.527 166.028 160.039C145.581 180.016 123.916 189.14 110.455 183.414C104.772 180.999 95.5848 172.175 86.2479 160.168C79.6244 151.643 78.1502 150.553 70.9499 148.929C64.1769 147.391 63.8137 146.771 67.9159 143.716C70.373 141.9 70.779 140.34 69.4329 137.99C68.5996 136.537 68.4715 134.956 69.0911 134.016C69.7534 132.99 70.138 133.14 73.2147 135.575C74.3684 136.473 74.4966 136.537 75.7786 136.537C77.7015 136.537 78.1288 136.174 79.3467 133.439C80.7782 130.213 81.5901 131.345 83.043 138.524C84.6668 146.643 84.9873 147.177 93.9182 156.343C106.075 168.799 108.297 169.098 121.694 159.933C127.27 156.129 132.975 152.305 134.556 151.301C136.415 150.126 136.97 148.566 135.945 147.369C134.214 145.382 131.992 146.387 118.019 155.488C108.127 161.92 107.486 161.962 102.507 156.664C100.969 154.997 97.9564 151.856 95.8412 149.677C90.4997 144.207 90.1792 143.609 88.8118 136.815C86.9529 127.606 83.4917 123.846 78.6416 125.768Z" fill="black"/>
<path d="M353.726 127.481C343.535 128.272 338.428 133.336 338.962 142.138C339.176 145.899 340.031 147.459 341.847 147.416C343.577 147.373 344.069 146.518 344.325 143.228C344.987 134.019 349.047 132.908 373.703 135.173C388.211 136.498 393.36 137.353 392.484 138.293C391.138 139.703 388.681 140.771 382.677 142.523C370.05 146.219 364.131 149.638 357.978 156.774C354.688 160.577 353.79 161.838 346.739 172.542C337.467 186.601 330.843 193.566 325.096 195.34C322.083 196.258 308.73 195.575 294.436 193.78C288.026 192.968 284.501 193.31 284.095 194.827C282.855 199.442 294.756 201.984 318.259 202.113C325.053 202.134 327.382 201.707 331.142 199.677C336.975 196.515 346.141 185.917 355.222 171.794C365.285 156.176 368.939 153.27 384.279 148.591C395.411 145.194 399.428 142.203 399.449 137.288C399.47 131.755 394.214 130.024 371.887 128.122C362.55 127.311 357.828 127.161 353.726 127.481Z" fill="black"/>
<path d="M98.2745 129.872C94.9414 131.41 91.4802 133.269 90.9246 133.824C89.5359 135.213 90.1768 137.499 92.0784 137.841C93.7236 138.162 102.27 134.188 103.466 132.564C105.624 129.658 102.398 127.97 98.2745 129.872Z" fill="black"/>
<path d="M55.4578 132.458C53.6417 133.163 51.206 134.423 46.0568 137.286C33.2373 144.465 26.272 146.452 14.008 146.474C-0.11489 146.495 -3.44797 158.652 6.78629 172.925C14.6489 183.864 20.2468 184.932 27.9172 176.92C33.3014 171.279 44.6039 161.708 52.4025 156.152C56.3338 153.353 57.2739 152.371 57.2739 151.11C57.2739 147.67 53.9622 147.777 48.407 151.409C44.7107 153.824 33.6646 162.84 29.776 166.622C26.9557 169.378 26.9557 169.378 26.8275 168.545C25.7592 162.306 23.238 156.815 19.734 153.076C18.6016 151.879 18.6016 151.879 20.5673 151.73C30.9084 150.96 39.6043 147.969 52.6802 140.705C54.0904 139.936 56.2483 138.739 57.4875 138.077C62.9572 135.086 61.2052 130.236 55.4578 132.458ZM11.38 154.571C16.5719 156.815 20.9519 164.934 21.0373 172.433C21.0801 176.386 20.4177 177.134 18.0034 175.937C9.07244 171.557 2.66268 150.811 11.38 154.571Z" fill="black"/>
<path d="M131.712 134.273C131.328 134.358 130.751 134.636 130.43 134.871C124.255 139.208 112.291 140.832 104.919 138.353C100.027 136.708 98.4027 141.238 103.082 143.481C111.735 147.605 127.781 145.767 133.699 139.956C136.84 136.858 135.579 133.311 131.712 134.273Z" fill="black"/>
<path d="M279.587 138.441C276.959 139.638 277.279 141.283 280.847 144.979C283.881 148.12 286.744 151.838 289.522 156.324C293.197 162.243 296.124 163.717 297.406 160.298C299.521 154.722 284.437 136.219 279.587 138.441Z" fill="black"/>
<path d="M327.232 146.239C318.301 148.589 306.721 158.439 306.764 163.631C306.807 166.259 309.712 166.707 311.486 164.336C314.776 159.998 323.045 154.529 329.689 152.307C337.167 149.828 334.903 144.23 327.232 146.239Z" fill="black"/>
<path d="M57.7021 149.758C57.7021 149.801 57.9588 150.015 58.301 150.207C58.8786 150.592 58.8786 150.592 58.4722 150.143C58.1085 149.715 57.7021 149.523 57.7021 149.758Z" fill="black"/>
<path d="M60.4996 157.222C57.8289 158.162 59.0254 162.072 66.7812 177.776C74.9216 194.27 82.6988 198.373 92.2707 191.172C97.9754 186.899 95.6679 181.686 89.7495 185.489C81.8228 190.553 79.323 188.63 69.8579 170.191C62.8712 156.56 62.7858 156.431 60.4996 157.222Z" fill="black"/>
<path d="M163.547 176.427C161.24 178.2 163.312 181.277 171.26 187.879C203.715 214.907 242.537 219.287 270.184 199.053C271.253 198.263 272.342 197.472 272.641 197.28C275.376 195.485 279.115 190.571 278.645 189.375C277.855 187.302 275.077 188.157 268.689 192.473C254.01 202.344 238.435 206.724 224.568 204.908C218.586 204.117 215.167 203.412 210.787 202.087C196.451 197.771 180.405 188.648 168.141 177.858C165.897 175.871 164.722 175.508 163.547 176.427Z" fill="black"/>
<path d="M218.735 183.799C215.68 186.128 220.402 190.273 226.491 190.636C233.008 191.02 233.008 185.871 226.491 184.717C225.145 184.482 223.307 184.034 222.431 183.756C220.359 183.072 219.697 183.072 218.735 183.799Z" fill="black"/>
<path d="M282.213 211.574C280.782 213.112 280.568 212.407 289.178 233.731C291.358 239.136 293.131 243.559 293.11 243.602C293.067 243.623 292.319 243.751 291.465 243.879C285.247 244.841 287.149 248.794 294.605 250.417C301.977 252.062 309.198 254.498 310.202 255.716C310.673 256.272 308.707 258.558 302.789 264.412C299.755 267.403 296.656 270.672 295.909 271.655C291.871 276.975 287.619 280.65 285.546 280.65C285.439 280.65 285.845 279.624 286.465 278.343C292.234 266.527 288.901 256.378 275.632 245.29C266.21 237.427 262.877 233.795 259.651 227.876C257.963 224.8 256.403 220.014 256.403 217.963C256.403 213.134 251.553 213.048 251.318 217.898C250.827 227.834 257.023 237.982 270.398 249.135C280.162 257.276 282.491 260.972 282.192 267.831C281.978 272.381 280.611 275.885 277.534 279.689C272.342 286.077 275.932 289.325 285.546 286.932C291.529 285.436 294.969 283.022 300.054 276.697C301.763 274.561 304.391 271.74 307.916 268.258C317.104 259.156 318.599 255.695 315.117 251.592C313.407 249.584 308.151 247.02 302.66 245.503C301.272 245.119 300.054 244.67 299.968 244.52C299.883 244.349 299.413 243.067 298.921 241.657C297.447 237.491 295.567 233.175 288.046 216.659C285.461 210.997 283.987 209.694 282.213 211.574Z" fill="black"/>
</svg>
