<svg width="205" height="316" viewBox="0 0 205 316" fill="none" xmlns="http://www.w3.org/2000/svg">
<path d="M170.916 1.32419C164.507 3.0121 158.994 9.84918 155.533 20.4039C154.529 23.4593 154.529 23.4593 153.995 22.5405C143.012 3.86673 118.164 -1.02606 113.955 14.6565C110.194 28.7153 132.116 54.6107 154.144 62.0888C164.336 65.5714 167.519 60.5504 157.734 56.4268C141.688 49.6538 128.59 38.5222 122.693 26.6214C117.437 16.0239 121.476 9.61416 131.496 12.6054C139.359 14.977 145.256 20.7671 151.922 32.6893C153.695 35.8728 156.217 36.7275 158.31 34.8259C159.293 33.9285 159.614 33.0953 160.447 29.1853C162.755 18.5024 166.344 11.4089 170.767 8.82362C182.903 1.70878 182.069 38.6504 169.506 65.315C167.669 69.1823 167.711 70.7633 169.677 71.2975C177.412 73.37 189.334 33.3517 186.236 15.7248C184.334 4.87093 178.458 -0.662837 170.916 1.32419Z" fill="black"/>
<path d="M93.8495 43.391C87.4611 44.5448 82.3761 48.8393 81.3719 53.9672C81.1368 55.2064 81.0941 55.2491 80.3463 55.3559C61.5443 58.2617 58.7027 73.6665 75.8808 79.5849C82.3333 81.8069 84.8759 77.2132 78.8293 74.2647C73.7443 71.7649 70.8385 68.9446 71.2231 66.8722C71.6718 64.5646 77.9961 61.6589 82.5897 61.6589C85.6023 61.6589 87.1834 60.0564 87.568 56.6593C87.9953 52.9416 90.7729 50.4204 95.2597 49.6512C105.088 47.9633 111.519 62.0221 105.344 71.6581C101.819 77.1278 105.024 80.3754 109.489 75.8886C121.07 64.2228 109.66 40.528 93.8495 43.391Z" fill="black"/>
<path d="M131.155 54.819C129.488 55.695 127.694 58.2803 127.095 60.6519C126.091 64.6901 130.108 66.5275 131.945 62.874C132.608 61.6134 132.565 61.592 133.099 63.3226C134.253 67.2326 137.522 68.7282 140.94 66.9335C142.372 66.1857 142.415 66.3139 142.18 70.6084C141.795 77.3387 142.158 78.5352 144.508 78.5352C148.589 78.5352 149.957 66.3352 146.303 62.1903C144.85 60.5237 141.966 60.1391 139.466 61.2929C138.27 61.827 138.27 61.827 137.714 59.5836C136.518 54.8618 134.231 53.1952 131.155 54.819Z" fill="black"/>
<path d="M116.178 61.5559C114.875 63.0515 115.238 63.9916 117.887 65.9786C127.331 73.0721 132.203 79.6741 135.942 90.3998C140.001 102.087 137.822 106.98 125.985 112.706C117.674 116.744 119.255 122.534 127.759 119.265C144.552 112.77 148.035 98.6257 137.651 78.9691C132.096 68.4143 119.276 58.0091 116.178 61.5559Z" fill="black"/>
<path d="M180.212 68.4565C177.926 69.247 175.64 71.3836 171.388 76.661C168.311 80.5069 168.567 80.3146 167.991 79.1181C165.533 74.0971 161.367 72.9647 158.91 76.661C155.876 81.2333 153.611 96.6167 155.662 98.5183C158.013 100.698 159.701 98.9456 160.555 93.4973C161.196 89.3523 161.816 86.0193 162.414 83.3699C162.841 81.4683 162.841 81.4683 163.675 83.0494C166.644 88.7541 170.084 88.0063 176.152 80.3573C178.802 77.0029 180.874 74.6953 181.237 74.6953C181.494 74.6953 181.28 76.9174 180.725 80.2077C179.763 85.8697 180.554 87.8567 183.78 88.0918C185.254 88.1772 185.297 88.1772 189.805 85.6988C193.245 83.8186 189.955 88.3909 179.186 100.377C168.888 111.872 168.204 112.94 170.49 114.5C172.2 115.675 173.695 114.778 179.186 109.265C195.253 93.0486 200.659 84.1604 196.963 79.93C195.04 77.7507 191.6 77.7507 187.626 79.93C186.536 80.5282 186.301 80.6137 186.387 80.3146C188.502 72.8151 185.318 66.6831 180.212 68.4565Z" fill="black"/>
<path d="M58.3398 72.6631C51.5669 74.5646 49.5157 81.5726 53.853 87.9397C54.0239 88.1961 53.7248 88.6234 52.3788 89.9694C42.2941 100.225 51.4814 114.903 66.5443 112.553C68.3177 112.275 68.0613 112.019 68.6809 114.583C70.3902 121.655 74.0438 126.826 78.9366 129.09C85.9873 132.359 95.837 130.287 100.196 124.604C101.05 123.493 101.093 123.471 101.862 124.027C112.075 131.227 124.702 119.412 119.104 107.895C116.711 102.96 111.391 103.665 112.545 108.771C113.507 112.916 113.571 114.07 112.887 116.164C111.626 120.117 106.285 120.138 103.55 116.185C101.627 113.408 98.8068 113.835 96.542 117.211C89.0854 128.407 76.9282 124.369 74.7488 109.947C74.1292 105.737 71.9713 104.391 67.5058 105.438C55.7973 108.195 49.2807 98.3662 59.1304 92.8325C62.6985 90.8241 62.9762 88.6448 60.0277 85.4826C56.3955 81.5726 57.4852 78.2823 62.3353 78.5814C65.1769 78.7737 66.523 77.8122 66.3948 75.7184C66.2025 73.0263 62.3139 71.552 58.3398 72.6631Z" fill="black"/>
<path d="M123.871 76.5928C120.944 79.1567 121.349 84.5195 124.469 84.5195C126.007 84.5195 126.67 83.7717 126.926 81.6351C127.054 80.695 127.289 79.5199 127.46 79.0285C128.272 76.5287 125.815 74.8835 123.871 76.5928Z" fill="black"/>
<path d="M103.165 83.1103C91.7339 86.3793 93.7636 102.639 105.536 101.976C111.732 101.635 117.522 95.5667 113.783 93.3019C112.587 92.5754 111.113 92.9386 109.382 94.3702C108.015 95.5026 106.711 96.0581 105.323 96.0581C100.067 96.0794 101.049 89.7765 106.562 88.1313C108.677 87.5117 109.446 85.0546 108.015 83.5163C107.352 82.8112 104.917 82.5976 103.165 83.1103Z" fill="black"/>
<path d="M155.854 111.569C155.512 111.611 154.465 111.761 153.547 111.889C134.189 114.496 87.9106 144.643 93.9785 150.69C95.3032 152.014 95.9869 151.822 98.8286 149.344C117.481 132.999 140.385 120.286 154.978 118.149C165.02 116.675 163.268 121.824 149.85 133.362C139.146 142.571 138.89 146.865 148.91 149.792C157.328 152.249 157.478 153.895 149.658 158.339C141.368 163.061 141.261 167.035 149.338 170.902C157.2 174.662 157.713 176.5 151.944 180.324C137.95 189.554 115.344 187.418 98.8927 175.303C91.7351 170.047 87.7611 173.402 93.9358 179.491C109.362 194.703 141.24 197.374 157.392 184.79C165.576 178.423 164.208 169.833 154.316 165.411C153.141 164.898 153.119 164.941 155.17 163.616C166.067 156.651 164.614 148.104 151.795 143.917C150.62 143.532 149.573 143.169 149.487 143.126C149.231 142.977 149.786 142.421 155.213 137.4C166.088 127.379 169.443 121.333 166.964 116.226C165.405 113.022 160.469 110.949 155.854 111.569Z" fill="black"/>
<path d="M18.6644 117.077C4.5629 119.385 2.25538 130.709 14.028 139.704C15.5663 140.879 15.5663 140.879 14.3485 141.37C0.973429 146.669 -2.08189 155.942 7.87461 161.091C9.79754 162.074 9.79754 162.074 7.16954 164.702C-0.479452 172.308 -1.44092 179.872 4.45607 185.811C13.9425 195.319 37.2954 193.546 65.4557 181.196C73.3183 177.735 75.6472 173.184 69.5579 173.184C66.9727 173.184 65.1779 173.654 55.2641 176.902C41.8677 181.303 37.6373 182.478 31.8258 183.418C29.2832 183.824 28.5354 183.91 24.7537 184.187C20.9078 184.487 14.8399 183.504 12.1692 182.158C5.52436 178.803 6.80632 173.59 16.1218 166.133C21.7411 161.625 21.271 158.377 14.6262 155.963C12.1905 155.087 10.2249 154.104 9.69071 153.506C8.68651 152.395 13.1306 149.575 19.754 147.096C28.1722 143.977 28.5995 140.43 21.1001 135.452C13.152 130.174 11.6564 126.735 16.3782 124.619C23.0871 121.649 35.9707 123.637 51.9952 130.11C62.4644 134.362 77.5701 141.819 84.044 145.964C86.9925 147.865 89.065 147.459 89.065 144.981C89.065 141.648 70.8399 130.794 53.2985 123.679C39.8166 118.21 26.8689 115.731 18.6644 117.077Z" fill="black"/>
<path d="M87.5888 132.548C85.9864 134.15 85.8795 138.018 87.4179 139.086C89.5117 140.56 91.6483 138.274 91.6483 134.599C91.6483 132.185 89.1912 130.945 87.5888 132.548Z" fill="black"/>
<path d="M86.8436 189.666C83.3823 191.845 84.4719 204.365 88.7665 211.694C92.4628 217.997 96.971 220.347 113.38 224.471C134.725 229.812 147.48 238.572 159.188 255.943C168.867 270.3 175.32 274.723 183.46 272.565C201.942 267.715 212.39 223.872 195.724 221.009C190.532 220.133 179.977 227.013 180.64 230.859C181.217 234.171 184.101 234.043 189.699 230.474C194.613 227.334 195.275 227.248 196.322 229.598C199.698 237.29 194.528 254.81 186.537 262.716C179.849 269.36 175.277 267.288 165.299 253.08C158.718 243.721 153.334 238.188 143.933 231.115C135.195 224.556 129.533 222.056 114.427 218.146C100.026 214.407 96.565 212.463 93.5738 206.523C91.7363 202.848 90.4758 197.08 90.604 192.849C90.7108 189.73 89.0015 188.298 86.8436 189.666Z" fill="black"/>
<path d="M75.3048 193.465C71.0957 194.491 68.3395 210.622 70.9462 219.019C72.5486 224.211 75.7321 227.693 82.6333 231.796C97.6108 240.662 102.119 242.115 102.119 238.013C102.119 235.706 101.115 234.894 90.6882 228.847C81.1163 223.292 78.7874 221.198 77.4414 216.968C75.9885 212.374 76.0953 205.088 77.6978 198.23C78.4028 195.26 78.2106 194.298 76.7577 193.529C76.2449 193.252 76.2235 193.252 75.3048 193.465Z" fill="black"/>
<path d="M143.849 193.745C142.033 194.856 142.716 196.438 146.049 198.937C152.117 203.467 157.608 210.112 161.347 217.419C163.612 221.842 165.941 222.76 167.479 219.833C170.471 214.064 149.126 190.476 143.849 193.745Z" fill="black"/>
<path d="M166.324 225.472C161.046 228.229 172.99 241.988 180.66 241.988C181.857 241.988 183.31 240.642 183.203 239.638C183.181 239.467 183.139 239.168 183.139 238.976C183.096 238.548 182.284 237.779 180.532 236.497C178.673 235.108 175.767 232.31 172.627 228.848C169.315 225.216 168.076 224.554 166.324 225.472Z" fill="black"/>
<path d="M134.253 238.548C132.715 239.488 132.373 241.069 131.711 250.107C131.134 257.713 128.933 279.699 128.698 279.998C128.655 280.041 128.335 279.72 127.95 279.272C123.421 274.122 120.002 278.396 123.869 284.357C128.442 291.45 131.476 303.201 129.98 308.201C129.232 310.701 127.523 309.526 117.588 299.59C110.58 292.604 110.9 293.117 111.285 289.42C112.652 276.366 109.875 263.204 102.909 249.808C99.3412 242.992 95.3458 244.937 98.4866 251.966C104.49 265.32 106.648 276.836 105.26 287.818C104.341 294.911 104.576 295.403 112.439 303.565C121.925 313.414 124.895 315.636 128.89 315.871C137.137 316.32 139.509 303.586 133.826 289.356C133.057 287.455 133.057 287.455 133.633 285.51C136.881 274.144 139.552 245.684 137.8 240.856C136.945 238.484 135.706 237.672 134.253 238.548Z" fill="black"/>
</svg>
