<svg width="254" height="323" viewBox="0 0 254 323" fill="none" xmlns="http://www.w3.org/2000/svg">
<path d="M139.861 0.153129C136.485 0.623178 133.537 2.39655 131.187 5.38777C130.567 6.17831 129.99 6.92611 129.905 7.01158C129.819 7.11841 129.157 6.71246 128.43 6.11421C119.564 -1.022 104.693 2.95206 102.044 13.1436C100.484 19.1474 105.783 22.3523 107.513 16.4553C109.842 8.67812 119.35 6.90475 126.059 13.0154C129.691 16.3057 131.635 16.0921 134.52 12.0539C138.75 6.11421 142.617 5.70826 147.831 10.6651C150.416 13.1222 152.061 15.4938 153.835 19.3397C154.967 21.7968 155.565 21.9891 160.693 21.5831C169.88 20.878 175.735 31.2832 169.752 37.7144C167.188 40.4919 167.722 42.9917 171.205 44.5087C176.162 46.688 176.076 53.5251 171.055 55.9822C169.389 56.7941 166.248 55.2985 166.248 53.6747C166.248 50.5125 161.248 50.7262 159.603 53.9738C155.074 62.9475 143.28 58.2256 140.609 46.3675C139.904 43.2909 139.327 42.6285 137.255 42.6285C136.122 42.6285 135.909 42.7567 133.644 44.5728C125.931 50.8544 118.389 47.4145 119.457 38.0989C120.034 33.2062 118.581 32.2874 112.94 33.954C108.282 35.3427 102.364 34.1035 102.364 31.7319C102.364 30.6422 104.907 28.0997 106.018 28.0783C109.671 27.9929 110.718 24.7666 107.556 23.3565C101.638 20.7285 94.0741 28.7834 96.7876 34.83C97.1722 35.6846 97.1722 35.6846 96.5953 36.5392C88.7327 48.0768 87.5789 66.6224 94.1382 75.8525C102.599 87.7533 132.554 88.5652 143.515 77.1985C145.053 75.6174 145.053 75.6174 145.31 76.7498C147.489 86.4927 160.629 82.7536 164.688 71.2161C166.227 66.8574 163.983 63.5243 160.821 65.4686C160.116 65.9173 159.945 66.1951 158.578 69.1863C155.672 75.5106 152.168 78.0318 150.224 75.1688C149.07 73.4595 147.681 72.904 146.335 73.6304C145.929 73.8441 145.929 73.8227 146.057 73.2031C146.805 69.7632 143.536 69.4641 140.139 72.6476C129.584 82.5827 104.522 81.7494 98.5823 71.2588C94.7365 64.4858 95.527 52.0509 100.505 41.2825C101.445 39.2527 101.403 39.2741 102.514 39.7441C105.12 40.8338 110.953 40.9406 113.56 39.9364C113.859 39.8296 113.902 40.0005 113.902 41.3252C113.902 52.1577 124.82 57.1573 134.883 50.9612C135.588 50.5125 135.951 50.4057 135.994 50.5766C139.883 64.0371 152.446 69.229 162.039 61.3237C163.449 60.1699 163.449 60.1699 164.539 60.8963C175.435 68.2248 187.571 50.2561 178.106 40.7697C176.589 39.2527 176.589 39.2527 177.081 38.2699C182.657 27.3092 174.346 14.3614 161.59 14.1051C159.368 14.0623 159.368 14.0623 158.791 13.0154C154.176 4.59723 146.314 -0.744239 139.861 0.153129Z" fill="black"/>
<path d="M187.251 16.4584C182.658 17.4839 178.684 22.4408 180.329 25.0475C181.29 26.5644 183.128 26.2012 185.393 24.0433C189.516 20.1333 190.713 21.5007 189.666 28.936C189.238 31.9486 189.965 33.6579 191.802 33.9998C193.747 34.363 194.516 33.8929 197.122 30.7949C200.52 26.7567 204.771 22.975 205.904 22.975C207.079 22.975 206.417 29.0215 204.301 37.3969C202.763 43.5717 203.105 45.0032 205.989 44.7254C207.784 44.5545 208.468 43.5717 209.899 39.1062C216.138 19.7273 209.643 10.9887 197.101 21.8426C195.541 23.1886 195.606 23.1886 195.435 22.099C194.751 17.8044 191.418 15.4969 187.251 16.4584Z" fill="black"/>
<path d="M241.455 37.3969C241.284 37.4397 240.408 37.5892 239.532 37.7174C219.855 40.8368 175.093 76.5606 168.384 94.5079C166.824 98.6529 170.841 101.131 173.042 97.3923C182.016 82.2653 202.27 63.2924 221.478 52.0326C232.375 45.6442 244.575 41.6701 244.169 44.6613C243.293 51.0284 229.106 65.9631 209.065 81.6029C203.125 86.218 202.548 87.0513 203.616 89.2519C204.557 91.2176 206.309 91.5808 209.193 90.363C224.576 83.8891 245.835 79.0177 242.203 82.7994C238.357 86.7949 230.623 91.1535 219.662 95.5121C212.248 98.482 211.372 99.2084 212.184 101.858C212.846 104.123 213.338 104.272 219.534 104.208C236.648 104.037 248.485 106.922 246.476 110.767C243.442 116.643 223.508 121.664 198.189 122.967C191.78 123.288 188.938 124.014 188.148 125.531C184.238 133.095 226.798 129.334 244.105 120.596C250.707 117.263 253.805 113.246 253.185 108.802C252.459 103.418 245.857 99.8494 234.02 98.482C232.354 98.2683 231.008 98.0974 231.029 98.0761C231.072 98.0333 232.012 97.5205 233.123 96.9009C246.882 89.3374 252.63 82.2226 248.528 77.8212C245.814 74.8941 238.293 74.9582 226.542 77.9921C222.376 79.0818 222.525 79.0818 224.085 77.7571C240.259 64.0188 250.643 50.7933 250.643 43.9776C250.643 39.6403 246.22 36.4782 241.455 37.3969Z" fill="black"/>
<path d="M99.4147 51.3258C97.1713 51.7531 97.5345 54.6802 100.056 56.304C103.474 58.5261 106.722 58.2483 107.149 55.6844C107.406 54.0606 106.7 53.4837 103.111 52.2659C99.8207 51.1762 99.9916 51.2189 99.4147 51.3258Z" fill="black"/>
<path d="M50.6799 55.4667C41.3644 57.0264 34.2495 68.8204 33.459 84.0329C33.3094 86.8959 33.3094 86.8959 32.3052 85.9558C19.4857 73.7131 0.0854748 78.1786 0.149572 93.3698C0.192304 101.895 7.09349 111.894 18.2465 119.564C20.1267 120.868 20.1267 120.868 19.678 121.53C14.6997 128.944 16.815 135.033 25.8741 139.435C31.2797 142.063 34.1 142.212 34.8478 139.947C35.5101 137.96 34.4205 136.678 30.3396 134.606C23.3743 131.081 22.4128 129.884 23.9512 126.722C25.2972 123.923 28.9294 119.949 31.1515 118.817C32.177 118.304 32.2198 118.346 32.7326 120.013C33.5872 122.94 35.0828 123.816 39.121 123.816C41.7703 123.816 41.7276 124.03 38.309 127.213C37.1126 128.346 36.0656 129.457 35.9802 129.692C35.211 132.149 37.5399 133.602 40.1465 132.277C41.1507 131.764 41.1507 131.764 42.5395 132.619C44.9538 134.093 48.9493 135.973 51.1713 136.678C52.7951 137.191 53.5643 137.554 54.2694 138.174C58.2862 141.657 69.5673 143.537 78.541 142.234C88.7966 140.717 117.341 134.52 120.034 133.217C122.833 131.85 123.559 129.649 121.551 128.602C119.649 127.619 117.534 127.961 97.1293 132.469C75.6994 137.213 71.0416 137.661 63.649 135.802C59.4826 134.755 58.9912 134.371 60.8287 133.538C64.4609 131.892 64.5464 129.884 61.1065 126.594C58.7562 124.329 58.6066 124.03 59.8031 124.03C62.2388 124.051 65.6147 125.333 67.2812 126.914C71.2125 130.568 73.7978 126.145 70.016 122.256C68.5418 120.718 64.9737 118.688 63.7986 118.688C63.5635 118.688 63.4781 118.56 63.5635 118.304C67.9008 103.775 68.5845 76.8539 64.8668 65.5941C62.4311 58.2015 57.111 54.3984 50.6799 55.4667ZM55.4445 62.2183C58.7135 64.5044 60.1664 69.5468 60.7219 80.4007C61.256 90.9768 60.3586 102.365 57.8161 117.535C57.7093 118.111 57.5597 118.218 56.5128 118.56C52.4105 119.863 51.5345 124.03 54.5471 128.047C55.0172 128.688 55.359 129.222 55.3163 129.243C55.2949 129.264 54.7608 129.756 54.1625 130.29C53.137 131.23 49.0775 130.205 45.6803 128.153C45.5948 128.111 45.7016 127.812 45.9367 127.491C49.3979 122.556 46.8127 117.812 40.467 117.449C38.5013 117.342 38.5013 117.342 38.0313 116.189C36.087 111.381 30.6814 110.868 25.575 114.971C24.0153 116.231 22.2633 115.291 16.6013 110.163C4.87143 99.5445 3.24763 87.7292 13.2255 85.5926C19.6994 84.2252 26.2801 87.7719 32.9248 96.2114C37.8176 102.429 41.0866 100.869 40.2961 92.6647C39.0782 79.9733 41.4071 70.2519 47.005 64.6113C50.0817 61.5346 53.2011 60.6372 55.4445 62.2183Z" fill="black"/>
<path d="M115.719 57.3706C113.561 58.2252 113.625 60.6609 115.869 62.3061C119.416 64.9127 124.372 64.5281 124.372 61.6651C124.372 60.084 123.496 59.4217 120.484 58.738C119.629 58.5457 118.497 58.1611 117.963 57.9047C116.681 57.2637 116.232 57.1569 115.719 57.3706Z" fill="black"/>
<path d="M104.029 87.8824C101.358 88.1388 69.6298 106.535 68.2624 108.607C67.0659 110.445 68.7966 112.667 70.9759 112.069C71.3818 111.962 75.2063 109.996 79.5009 107.731C109.157 92.006 107.341 93.0957 107.917 90.9163C108.494 88.737 107.02 87.5833 104.029 87.8824Z" fill="black"/>
<path d="M135.161 90.7164C127.512 91.8275 118.966 96.2075 108.56 104.412C99.4585 111.57 97.4501 112.681 89.5874 114.732C83.5409 116.313 82.9213 116.591 82.1735 118.065C80.9129 120.479 83.2204 122.402 86.7458 121.889C96.0826 120.565 101.83 117.787 111.979 109.689C123.901 100.16 131.593 96.1647 139.648 95.2887C142.041 95.011 142.959 94.3059 142.959 92.7462C142.959 90.6737 140.289 89.99 135.161 90.7164Z" fill="black"/>
<path d="M150.564 94.253C149.432 95.4922 149.667 96.7314 151.462 98.7826C159.41 107.82 164.388 120.383 165.713 134.72C166.247 140.553 166.866 141.984 168.875 141.984C174.515 141.984 171.225 119.956 163.555 106.261C158.085 96.4964 152.915 91.7318 150.564 94.253Z" fill="black"/>
<path d="M98.7748 139.931C96.5313 142.495 96.5527 156.169 98.8175 164.843C102.578 179.265 113.474 190.803 126.465 194.136C133.516 195.931 134.52 191.252 127.683 188.474C110.248 181.381 103.005 169.501 102.877 147.751C102.834 139.738 102.898 140.486 102.257 139.781C101.381 138.862 99.6508 138.927 98.7748 139.931Z" fill="black"/>
<path d="M176.652 162.214C176.118 162.834 175.99 164.052 176.374 165.312C176.716 166.509 176.823 166.658 179.472 170.013C189.643 182.811 193.211 197.34 189.194 209.497C187.185 215.544 183.575 220.97 174.152 232.123C150.628 259.963 148.406 268.232 159.004 288.444C166.29 302.375 167.807 306.477 166.482 308.571C164.089 312.374 148.94 317.566 145.201 315.856C143.556 315.109 144.219 310.451 147.424 300.11C148.77 295.772 148.791 294.832 147.552 294.02C145.266 292.525 143.663 294.661 140.266 303.806C133.771 321.241 142.189 327.159 161.739 318.869C175.52 313.036 176.118 308.101 165.52 287.162C155.778 267.89 157.081 262.378 177.143 238.341C189.707 223.278 193.275 217.723 195.604 209.604C199.749 195.118 195.048 177.085 184.066 165.312C181.053 162.086 177.955 160.783 176.652 162.214Z" fill="black"/>
<path d="M114.693 167.151C111.723 168.988 117.3 176.958 121.039 176.253C122.855 175.932 123.09 173.838 121.53 171.916C121.146 171.446 120.141 170.206 119.287 169.159C117.342 166.766 116.167 166.232 114.693 167.151Z" fill="black"/>
<path d="M140.76 182.385C140.055 182.919 139.948 183.303 139.008 188.965C135.376 210.63 132.299 220.907 124.522 237.167C114.138 258.939 115.868 267.079 135.14 286.864C140.119 291.97 142.405 293.252 143.943 291.799C145.845 290.005 144.648 287.654 138.474 281.095C122.257 263.853 121.359 258.811 130.995 238.876C138.644 223.065 142.661 208.686 144.477 190.696C145.268 182.898 143.9 179.885 140.76 182.385Z" fill="black"/>
<path d="M108.303 189.049C105.547 191.378 106.765 208.578 110.376 218.684C113.709 227.957 119.627 234.238 122.875 231.931C124.178 231.012 123.922 228.939 122.255 226.91C116.871 220.244 113.752 210.009 112.619 195.181C112.213 189.861 112.235 189.904 111.53 189.199C110.696 188.366 109.201 188.302 108.303 189.049Z" fill="black"/>
<path d="M195.842 226.355C193.876 227.552 194.709 230.65 197.7 233.235C202.935 237.786 206.161 239.196 222.506 244.217C231.459 246.952 235.069 248.576 236.309 250.392C238.68 253.938 237.612 271.523 234.599 278.445C234.151 279.471 234.151 279.471 233.531 278.189C228.339 267.335 227.677 266.245 224.686 263.211C219.814 258.254 212.037 254.814 195.628 250.328C192.573 249.473 188.77 248.362 187.188 247.828C181.655 245.99 180.907 245.948 180.351 247.443C179.24 250.349 181.633 251.738 195.414 256.182C218.981 263.81 221.16 265.326 226.822 278.146C229.215 283.552 230.177 284.962 232.1 285.987C238.125 289.192 243.274 277.163 243.744 258.853C244.064 245.734 242.398 243.961 223.404 237.38C210.84 233.021 208.362 231.932 202.273 228.022C199.025 225.949 197.252 225.479 195.842 226.355Z" fill="black"/>
</svg>
