<svg width="306" height="282" viewBox="0 0 306 282" fill="none" xmlns="http://www.w3.org/2000/svg">
<path d="M127.787 1.28383C124.305 2.20257 121.463 4.42462 119.967 7.43721C119.54 8.33458 119.07 9.03965 118.942 8.99692C113.13 6.7535 105.268 10.6635 102.426 17.2014C101.977 18.1843 101.977 18.1843 100.332 18.3124C93.8368 18.8039 90.6319 27.0084 94.1146 34.1659C96.6144 39.251 101.229 37.6272 99.1142 32.4139C97.3195 28.0126 98.8151 23.0984 101.742 23.7607C104.904 24.5086 105.78 23.953 107.661 20.1072C110.502 14.2957 114.583 12.9069 119.583 16.0904C122.296 17.7997 124.582 16.4536 125.031 12.8855C126.014 5.04423 135.906 5.38608 135.906 13.2701C135.906 16.2827 136.398 17.1801 138.363 17.6928C140.842 18.3338 142.978 12.971 141.889 8.91146C140.308 3.09993 133.941 -0.339974 127.787 1.28383Z" fill="black"/>
<path d="M192.118 2.66628C188.059 4.29009 191.862 9.28971 202.075 15.7422C212.544 22.3229 221.411 24.1176 238.034 22.9639C257.754 21.6178 265.147 25.3569 269.933 39.0951C270.595 40.9967 270.873 42.065 271.599 45.7613C271.835 46.8937 272.732 48.1329 273.33 48.1756C273.48 48.1756 273.8 48.2184 274.057 48.2611C278.757 49.1585 277.368 35.9971 271.899 27.8567C265.852 18.8616 257.626 15.4004 243.162 15.7636C224.552 16.2123 224.167 16.2123 219.232 15.1226C213.484 13.8406 209.895 12.11 201.263 6.44804C195.323 2.58082 193.849 1.98257 192.118 2.66628Z" fill="black"/>
<path d="M155.775 5.57421C149.429 6.6425 144.28 11.108 145.348 14.6333C146.053 17.0263 148.596 16.9195 151.715 14.3983C153.425 13.0095 155.284 12.1335 157.249 11.7917C161.394 11.0866 161.18 12.5822 156.437 17.6673C152.185 22.2396 152.378 24.9531 157.014 25.9145C158.467 26.2137 159.599 26.7051 160.198 27.2606C162.099 29.0553 156.138 32.4739 149.942 33.1789C145.242 33.7131 144.686 37.8153 149.045 39.8024C151.587 40.9775 151.587 41.8535 149.045 43.1354C145.669 44.8233 140.028 43.4773 135.926 39.9733C132.828 37.3239 130.264 38.4563 129.73 42.6868C129.132 47.5368 122.936 49.2461 118.342 45.8703C115.842 44.0328 114.517 44.0542 111.868 46.0198C109.838 47.5368 109.475 47.6009 109.304 46.4899C109.219 46.0626 109.133 45.4643 109.069 45.1652C108.898 44.2465 109.39 41.5116 110.073 39.6101C111.184 36.5334 111.227 36.3197 110.928 35.3583C109.689 31.1919 104.988 35.2087 103.428 41.7467C101.228 51.0622 107.958 56.9592 114.517 51.4468C115.222 50.8699 115.222 50.8699 116.868 51.7459C122.936 54.9935 131.14 53.3056 134.302 48.1778C135.071 46.9386 135.071 46.9386 136.61 47.7505C146.78 53.0706 160.497 47.1095 156.993 38.8836C156.501 37.7512 156.48 37.794 157.89 37.2598C166.842 33.9267 169.364 25.1667 162.42 21.5773C161.586 21.1286 161.522 21.2995 163.146 19.3552C169.727 11.578 165.625 3.90767 155.775 5.57421Z" fill="black"/>
<path d="M193.403 13.692C192.228 14.3971 191.972 15.3372 191.373 21.2341C190.305 31.5966 190.049 66.7008 191.01 68.8373C192.613 72.4054 195.839 71.0594 196.587 66.5085C196.929 64.3932 197.292 55.5264 197.121 53.3898C197.035 52.3215 196.95 43.241 196.907 33.1777C196.843 16.2132 196.822 14.8244 196.48 14.3116C195.732 13.1578 194.642 12.9442 193.403 13.692Z" fill="black"/>
<path d="M90.0558 36.7871C84.4793 38.71 79.4797 46.0385 80.0139 51.4868C80.5694 57.1488 84.5862 60.5246 92.171 61.7211C92.9829 61.8493 92.9829 61.8493 92.812 63.1739C91.3805 74.3483 97.7475 84.2621 108.217 87.1892C114.071 88.8344 123.622 85.9927 124.284 82.4246C124.839 79.4761 122.575 78.2583 119.263 79.7111C107.768 84.7321 95.7178 73.5578 99.6705 61.5074C100.91 57.6829 99.5636 55.4181 95.9742 55.4181C86.9578 55.3754 83.9879 51.3372 88.5816 45.3975C89.4148 44.3079 92.4915 41.7012 93.3248 41.3807C93.7949 41.2098 94.6709 39.5219 94.6709 38.8382C94.6281 36.8084 92.6197 35.9111 90.0558 36.7871Z" fill="black"/>
<path d="M165.262 39.7359C164.151 40.8256 164.515 42.8554 166.608 47.1926C174.279 63.0675 173.296 79.4765 164.344 85.523C155.263 91.6764 143.662 89.1552 130.586 78.1732C127.744 75.7802 125.629 75.6947 125.052 77.9168C124.667 79.3697 125.095 80.1175 127.979 83.0019C147.465 102.509 174.578 97.4238 177.911 73.6436C180.048 58.3456 170.967 34.0099 165.262 39.7359Z" fill="black"/>
<path d="M158.148 49.8013C157.848 49.8654 156.951 50.421 156.139 51.0619C154.451 52.3866 152.486 53.3908 150.905 53.7327C149.409 54.0318 148.853 54.7369 149.003 56.0615C149.494 60.5057 160.306 57.5572 161.331 52.6857C161.801 50.5064 160.541 49.3527 158.148 49.8013Z" fill="black"/>
<path d="M261.965 51.1493C244.103 52.6235 236.006 60.1229 244.573 67.2164C245.556 68.0283 245.556 68.0283 244.637 68.4343C231.369 74.2031 217.631 81.5316 216.456 83.4545C215.622 84.8219 216.477 86.7662 217.951 86.873C219.02 86.9371 219.447 86.7662 225.643 83.8604C229.104 82.2153 233.484 80.2069 235.365 79.3522C239.104 77.6643 250.257 72.7715 250.962 72.5152C251.346 72.3656 251.496 72.5152 252.009 73.498C254.829 78.8822 263.931 79.3309 271.131 74.4595C277.22 70.3145 283.844 56.9181 281.323 53.8414C279.506 51.6193 270.811 50.4228 261.965 51.1493ZM267.2 58.1145C254.466 64.3107 252.991 64.8662 251.389 64.0115C248.462 62.4732 247.821 61.5545 249.039 60.7853C251.752 59.0546 260.982 57.2813 267.627 57.1958C269.123 57.1744 269.123 57.1744 267.2 58.1145ZM273.374 62.3023C269.336 69.1607 262.777 72.8143 258.376 70.6563C256.923 69.9513 257.115 69.7803 262.221 67.4301C264.849 66.2122 268.375 64.5243 270.084 63.6697C273.46 61.9818 273.609 61.9177 273.374 62.3023Z" fill="black"/>
<path d="M118.043 55.3985C110.223 57.6419 106.89 67.8548 112.381 72.769C117.936 77.7686 131.119 75.226 132.294 68.9445C132.871 65.8678 130.2 65.1841 126.696 67.5129C122.936 70.0128 117.936 70.2264 116.376 67.983C115.073 66.1242 117.423 61.6801 120.457 60.2699C125.286 58.0265 123.256 53.9029 118.043 55.3985Z" fill="black"/>
<path d="M281.429 64.3702C280.275 65.4812 280.296 66.6991 281.493 68.2588C284.89 72.7242 284.954 78.3435 281.728 91.3126C278.673 103.598 278.523 109.858 281.108 119.238C285.104 133.809 294.953 146.864 301.107 145.71C303.842 145.197 303.072 142.206 299.184 138.36C293.18 132.421 289.056 124.75 287.091 115.883C285.574 108.961 285.787 104.218 288.138 93.2569C290.573 81.9116 290.808 76.1 289.056 70.7372C287.368 65.5453 283.523 62.319 281.429 64.3702Z" fill="black"/>
<path d="M294.504 71.7465C292.624 72.6011 292.496 75.2932 294.29 76.1692C294.654 76.3615 295.722 76.8743 296.619 77.3016C299.739 78.7758 299.76 79.1391 296.94 82.0875C292.944 86.2753 292.602 89.0315 295.679 92.4286C296.341 93.1551 296.406 93.326 296.149 93.4969C295.978 93.6038 295.124 94.0738 294.269 94.5439C289.12 97.3642 292.047 102.471 297.709 100.526C304.055 98.3256 305.828 93.2833 301.833 88.8178C300.615 87.4717 300.572 87.7281 302.345 85.8266C305.807 82.1089 306.405 78.5194 304.033 75.5068C302.025 72.9643 296.576 70.8064 294.504 71.7465Z" fill="black"/>
<path d="M43.1149 73.1764C38.393 74.2875 38.1153 78.3897 42.3885 84.1799C46.9394 90.3546 47.0462 90.0128 40.7219 89.0727C25.6376 86.8079 17.4972 86.2737 11.6643 87.1497C-0.578337 88.9872 -2.13805 95.6534 8.01075 102.875C10.5319 104.67 10.5319 104.67 9.72002 105.311C1.47279 111.635 3.86577 119.626 14.8478 122.403C22.4968 124.348 24.0993 119.241 16.899 115.823C11.6216 113.302 11.6216 113.28 14.5273 110.567C19.7193 105.759 19.2706 102.683 12.7112 98.0036C9.16451 95.4824 8.65173 94.991 9.24997 94.756C13.0958 93.3031 21.6208 93.4099 35.4873 95.0978C53.6483 97.3199 57.0241 94.35 49.1614 83.0688C46.7257 79.5648 46.7898 79.693 47.7299 79.8853C53.4346 81.1245 68.5189 87.5343 79.501 93.3672C80.9753 94.1364 83.4964 95.5038 85.1416 96.3584C89.2011 98.5377 90.5472 98.4523 91.2309 96.0379C91.7864 94.1364 90.5472 93.004 82.7059 88.3035C67.1088 78.9452 48.6059 71.8731 43.1149 73.1764Z" fill="black"/>
<path d="M274.721 78.7114C268.247 80.613 266.217 94.0948 271.9 97.6843C275.533 99.9918 277.861 97.0861 275.661 92.9411C274.208 90.1849 274.827 85.4203 276.9 83.5401C279.25 81.4249 277.648 77.8568 274.721 78.7114Z" fill="black"/>
<path d="M205.666 80.7347C200.602 82.0594 196.158 84.6233 189.77 89.922C181.288 96.9728 176.544 99.5794 164.323 103.917C150.564 108.809 144.367 113.061 144.367 117.634C144.346 120.881 147.102 120.924 151.034 117.762C154.367 115.07 157.743 113.403 166.609 110.113C179.472 105.327 184.877 102.314 193.231 95.3062C199.064 90.3921 202.953 88.0846 207.119 87.0163C208.508 86.6744 208.508 86.6958 207.589 89.4306C206.2 93.6397 207.14 96.0113 210.26 96.054C211.115 96.054 211.115 96.054 210.452 96.8232C207.696 99.964 208.422 102.656 212.781 105.519C214.277 106.502 206.948 109.856 197.654 112.442C184.706 116.031 179.215 119.193 166.887 130.197C158.854 137.376 155.82 139.128 150.756 139.512C142.509 140.153 132.979 134.641 122.617 123.189C119.861 120.155 119.861 120.155 118.793 120.155C115.139 120.155 115.887 123.317 121.1 129.769C130.586 141.542 143.214 147.909 153.448 146.114C159.388 145.089 162.806 142.909 172.058 134.342C182.356 124.813 187.911 121.522 198.359 118.745C207.589 116.309 210.516 115.283 213.764 113.36C219.725 109.835 221.199 104.686 217.268 100.99C216.093 99.8999 216.093 99.8999 217.268 98.4256C220.793 94.067 219.981 89.7511 215.601 89.4306C214.17 89.3238 214.191 89.3665 214.661 88.0846C216.67 82.6363 212.226 79.0041 205.666 80.7347Z" fill="black"/>
<path d="M255.767 83.8356C243.311 85.9722 227.009 90.0744 224.744 91.6128C222.672 93.0229 222.757 95.4586 224.894 96.1851C225.641 96.4201 226.176 96.356 231.175 95.2877C234.188 94.6467 240.213 93.4289 244.55 92.5956C263.053 89.0702 264.292 88.6215 263.801 85.5876C263.459 83.3655 261.237 82.8955 255.767 83.8356Z" fill="black"/>
<path d="M124.026 95.2475C121.269 95.8884 120.009 96.914 120.009 98.5805C120.009 100.439 121.291 101.166 123.62 100.61C129.26 99.2642 135.2 101.508 138.405 106.208C142.165 111.678 146.631 108.687 143.533 102.747C140.563 97.0422 131.504 93.5596 124.026 95.2475Z" fill="black"/>
<path d="M105.995 95.7134C104.435 97.0381 102.512 102.251 101.401 108.084C100.504 112.827 100.311 114.793 99.4781 126.673C98.3884 142.056 96.4655 145.902 84.9493 155.41C68.7753 168.806 60.9554 182.16 58.8829 199.958C57.3018 213.525 62.7501 215.726 65.079 202.457C68.3693 183.57 74.5654 172.844 89.2011 160.644C102.683 149.427 105.332 143.765 106.529 123.681C107.277 111.161 107.939 106.033 109.648 100.029C110.802 95.9271 108.708 93.4486 105.995 95.7134Z" fill="black"/>
<path d="M261.965 97.6378C253.311 99.2616 230.215 105.8 224.788 108.15C221.583 109.539 221.968 113.32 225.301 113.32C225.792 113.32 229.488 112.444 233.548 111.397C237.607 110.329 245.299 108.342 250.641 106.996C265.404 103.236 265.276 103.3 266.644 101.655C268.588 99.2829 265.832 96.9113 261.965 97.6378Z" fill="black"/>
<path d="M64.2232 109.498C41.0412 111.036 33.3708 120.843 44.417 134.774C45.8272 136.526 45.8912 136.462 42.2804 136.804C12.6032 139.624 -2.69478 147.059 1.66386 156.524C3.67225 160.904 14.5048 163.148 23.4571 161.033C23.7562 160.969 22.8161 162.037 20.9786 163.896C9.48377 175.455 14.9534 183.851 30.9992 179.236C52.9634 172.912 86.2728 150.734 83.367 144.367C82.2987 142.038 79.7562 143.043 72.1286 148.769C65.9325 153.405 58.2835 158.298 51.9378 161.652C46.6818 164.43 45.3357 165.114 41.8531 166.716C33.8623 170.391 25.2304 173.275 23.393 172.891C22.5811 172.72 26.1492 168.639 29.8882 165.413C31.0206 164.43 32.8581 162.849 33.9477 161.93C36.9603 159.345 37.7722 157.806 37.1953 155.734C36.3407 152.657 34.0759 152.187 25.0168 153.191C19.3548 153.811 12.6032 154.003 10.3811 153.619C9.31285 153.448 9.31285 153.448 10.2743 152.615C14.227 149.196 23.9058 146.589 40.5925 144.41C55.3991 142.487 57.322 140.03 50.6558 131.59C45.5494 125.117 45.0366 123.301 47.686 120.908C52.9634 116.143 73.09 114.113 85.8455 117.062C87.9393 117.553 88.7726 117.489 89.5631 116.784C94.2209 112.618 79.7775 108.451 64.2232 109.498Z" fill="black"/>
<path d="M209.32 119.302C205.88 120.349 207.312 123.96 212.141 126.417C226.648 133.852 287.049 148.253 290.083 145.026C292.754 142.206 291.023 141.181 279.037 138.446C254.659 132.891 240.6 128.938 219.49 121.674C211.777 119.024 210.923 118.832 209.32 119.302Z" fill="black"/>
<path d="M182.356 131.438C181.544 132.122 181.394 132.741 180.881 137.442C177.719 166.243 169.75 177.652 148.213 184.169C140.137 186.626 138.876 191.583 146.546 190.792C166.139 188.784 181.095 173.016 184.919 150.283C187.398 135.669 186.351 128.105 182.356 131.438Z" fill="black"/>
<path d="M160.262 150.865C159.664 151.1 158.938 151.891 158.446 152.874C158.168 153.408 157.356 154.754 156.63 155.865C153.617 160.523 154.728 163.856 158.703 162.061C163.595 159.839 165.112 148.921 160.262 150.865Z" fill="black"/>
<path d="M125.991 170.369C125.692 170.732 125.286 171.522 125.115 172.142C124.773 173.21 124.666 174.172 124.153 179.556C122.615 196.05 109.219 217.63 93.6429 228.655C84.6264 235.065 76.6142 238.141 60.3762 241.432C39.0957 245.748 33.5406 250.555 28.2205 269.229C26.4899 275.275 26.1907 275.724 24.8447 274.421C18.5631 268.374 12.5807 245.79 14.3113 234.744C14.8668 231.347 15.3369 230.855 17.0248 231.924C21.1697 234.573 23.7764 230.877 20.0801 227.544C12.6875 220.856 6.68368 228.057 7.70924 242.372C10.0168 274.997 27.43 294.44 34.2029 271.963C39.3735 254.807 42.792 251.773 61.2308 248.012C81.0797 243.974 90.3952 240.086 101.463 231.197C119.282 216.882 133.533 189.598 130.905 174.855C130.136 170.604 127.7 168.36 125.991 170.369Z" fill="black"/>
<path d="M176.095 182.463C175.39 182.975 175.09 183.83 174.685 186.608C170.604 214.725 156.801 225.429 124.475 225.6C114.091 225.643 113.044 225.835 113.044 227.801C113.044 230.707 119.454 232.267 130.564 232.053C159.622 231.519 176.351 216.263 179.492 187.462C179.983 183.061 178.445 180.817 176.095 182.463Z" fill="black"/>
<path d="M46.5976 208.4C35.2524 213.912 20.1039 230.834 23.5011 234.231C24.8044 235.534 27.2401 234.124 30.5305 230.193C36.4916 223.099 43.1577 216.903 49.0547 212.993C51.5332 211.369 51.9391 210.878 51.9391 209.553C51.9391 207.417 49.653 206.925 46.5976 208.4Z" fill="black"/>
<path d="M106.269 236.92C105.436 237.497 104.987 238.565 102.936 244.611C97.0607 261.918 95.4583 263.606 89.7963 258.328C82.9378 251.919 79.5407 257.11 86.2068 263.819C91.9756 269.652 98.1931 268.99 102.466 262.131C105.863 256.704 110.863 239.847 109.731 237.667C109.175 236.599 107.316 236.193 106.269 236.92Z" fill="black"/>
</svg>
