<svg width="204" height="293" viewBox="0 0 204 293" fill="none" xmlns="http://www.w3.org/2000/svg">
<path d="M46.9155 0.439913C41.9799 1.08089 37.1513 3.47387 35.5488 6.08051C35.1001 6.80695 35.036 6.82831 33.7754 6.82831C23.5412 6.84968 14.3966 15.9943 16.8323 23.7928C17.1528 24.8398 17.1528 24.8398 16.1913 25.9294C12.9437 29.6471 11.619 35.8218 13.2215 39.7959C13.7983 41.2701 13.7983 41.2701 13.2428 42.488C10.0379 49.6456 14.653 59.6021 20.3577 57.786C20.6568 57.7005 20.9132 57.9142 21.4473 58.7474C25.0154 64.3239 31.2756 63.9607 32.643 58.1064C33.9677 52.53 32.408 48.9191 27.1093 45.351C24.0967 43.3213 23.7976 41.8684 26.4256 41.8684C34.4805 41.8256 37.2794 39.3472 41.0185 28.9847C43.3901 22.404 47.4496 18.6437 50.4622 20.2461C51.1459 20.6093 52.4492 21.0366 53.4321 21.2289C55.1627 21.5494 55.2268 21.5921 56.5301 22.9168C58.218 24.6047 59.97 25.5235 63.7518 26.72C69.0933 28.3865 70.1402 29.8821 70.1616 35.9928C70.1829 43.4067 68.025 48.385 62.0425 54.7947C57.6839 59.4525 56.8506 60.9695 56.8292 64.1316C56.7865 68.2339 60.611 68.8108 61.5938 64.8581C62.0425 63.0633 62.6621 62.166 65.3756 59.3457C72.7896 51.6753 75.4389 45.9493 75.8662 36.6337C75.9944 33.8562 75.9944 33.8562 76.8063 33.2793C78.2592 32.2324 78.9857 30.0317 78.9643 26.6986C78.8788 16.8916 70.0975 6.05914 62.5553 6.44373C61.252 6.50783 60.9742 6.46509 60.9742 6.18734C60.9101 2.12782 54.3935 -0.542918 46.9155 0.439913Z" fill="black"/>
<path d="M109.367 12.2349C108.085 12.5767 107.081 13.0895 106.034 13.9014C105.521 14.3074 104.987 14.521 104.538 14.521C96.2483 14.5424 80.4162 33.1948 82.7665 40.1601C83.1938 41.4421 83.1938 41.4421 82.1255 43.6428C77.4036 53.3215 79.1129 63.3848 86.8473 71.2475C89.689 74.1319 90.33 75.2429 90.565 77.6145C90.9496 81.2894 94.5391 81.4817 95.4792 77.8709C96.5261 73.7687 95.4578 70.9911 91.1205 66.6111C84.7108 60.1586 83.557 53.3215 87.4456 45.1384C88.4712 43.0018 88.9626 42.2967 88.5139 43.5573C87.8088 45.587 90.6077 48.5996 93.4494 48.8774C96.4406 49.1552 97.2312 45.993 94.6032 44.3051C93.9836 43.8991 93.1289 43.3009 92.7443 42.959C92.3811 42.6386 91.8897 42.2753 91.676 42.1471C90.8428 41.6985 98.684 38.75 105.927 36.7629C110.051 35.6305 110.093 35.6305 110.756 36.8911C111.589 38.4722 113.149 40.0106 115.606 41.6771C119.323 44.1983 119.281 43.9846 117.401 49.8175C115.499 55.6717 115.392 56.74 115.755 63.9831C115.948 67.6153 115.948 67.6153 113.277 68.94C108.94 71.0979 105.158 72.4012 103.171 72.4226C101.312 72.444 100.564 74.9224 102.038 76.1616C103.491 77.3795 109.987 76.4394 114.003 74.431C115.371 73.7473 115.392 73.7473 115.542 75.072C116.012 78.7255 118.148 81.0331 123.682 83.7465C128.041 85.9045 129.43 86.9087 131.417 89.4085C135.241 94.1944 135.583 94.5149 139.942 97.8694C140.647 98.4035 142.249 100.091 143.488 101.608C148.83 108.168 153.146 109.492 156.671 105.625C160.196 101.758 159.299 96.4806 152.74 82.8919C147.612 72.2517 147.356 71.0552 148.637 63.8976C149.129 61.2696 149.129 61.2696 150.86 64.8591C154.385 72.1448 156.286 77.5504 159.128 88.447C161.863 98.8949 162.931 104.215 163.615 110.881C163.957 114.065 164.085 115.795 164.811 126.371C166.734 153.998 172.247 174.338 177.781 174.338C180.088 174.338 180.131 171.624 177.951 165.044C173.913 152.865 172.247 142.823 170.794 121.457C169.662 104.856 168.786 99.8564 164.256 83.8961C160.602 71.0552 155.945 60.7355 149.086 50.4157C143.189 41.5275 139.749 38.5363 122.721 27.5542C115.542 22.9392 110.542 19.1147 110.542 18.2601C110.542 17.8114 112.251 17.2559 114.067 17.149C117.721 16.914 118.597 13.6237 115.349 12.3845C114.388 11.9999 110.628 11.9144 109.367 12.2349Z" fill="black"/>
<path d="M123.876 12.5525C121.718 13.9199 122.594 16.0138 125.799 17.1889C141.973 23.0218 155.498 37.2515 164.472 57.9337C168.574 67.3987 169.792 69.2148 172.057 69.2148C174.578 69.2148 174.791 67.0783 172.676 62.506C171.992 60.989 170.582 57.9123 169.599 55.6689C163.19 41.311 156.929 32.3587 147.507 24.0474C138.213 15.8642 127.167 10.48 123.876 12.5525Z" fill="black"/>
<path d="M58.0484 33.8323C54.0744 35.8193 53.0488 37.3577 54.6726 38.8746C56.681 40.7548 64.1804 37.144 64.1804 34.281C64.1804 33.234 63.8172 32.8281 62.578 32.4862C61.3601 32.1444 61.5097 32.1017 58.0484 33.8323Z" fill="black"/>
<path d="M45.4845 37.1888C44.0744 37.5093 42.5574 37.8512 42.1087 37.9153C38.391 38.4922 39.4807 43.1286 43.2411 42.7867C48.1766 42.338 51.3601 40.6928 51.3601 38.5776C51.3601 36.6333 49.5654 36.206 45.4845 37.1888Z" fill="black"/>
<path d="M54.4796 43.4263C53.8172 44.3023 53.7745 45.0288 54.3514 46.1398C55.0137 47.4431 54.9069 48.2764 53.9668 49.366C52.3216 51.2462 52.3002 53.041 53.8813 53.7888C56.3384 54.9425 59.6928 51.6522 59.6928 48.0627C59.6928 44.281 56.1888 41.1829 54.4796 43.4263Z" fill="black"/>
<path d="M100.117 48.1672C98.7921 48.7441 98.493 50.9662 99.604 51.9704C101.933 54.0856 105.843 53.5514 105.843 51.1157C105.843 49.1287 102.189 47.2485 100.117 48.1672Z" fill="black"/>
<path d="M92.6812 52.5316C89.0703 54.7323 89.1558 61.3984 92.8093 61.3984C94.4759 61.3984 95.0528 60.7147 95.3519 58.3217C95.5014 57.1466 95.6724 56.6766 96.2065 56.0356C98.2149 53.5999 95.4373 50.8437 92.6812 52.5316Z" fill="black"/>
<path d="M63.4319 65.0925C61.8722 65.3489 60.8466 66.7377 61.1671 68.1478C61.5303 69.8144 62.214 70.1776 65.483 70.3699C73.7943 70.8827 77.8538 77.2283 77.8538 89.7274C77.8538 93.8296 78.2598 94.5561 80.5673 94.6202C85.3319 94.7697 83.1098 76.566 77.512 69.7503C74.8412 66.4813 68.1965 64.2806 63.4319 65.0925Z" fill="black"/>
<path d="M56.381 69.3463C55.8896 69.5386 54.6503 69.6881 53.3897 69.7095C51.8087 69.7522 51.0609 69.8804 50.5267 70.1582C49.9498 70.4573 49.5225 70.5214 48.6038 70.4359C42.6 69.795 40.1856 73.6194 43.07 79.1318C45.2493 83.2768 49.7575 84.7083 51.9369 81.9521C52.5992 81.1402 54.6717 80.9052 55.74 81.5248C57.8339 82.7213 59.9277 82.6358 61.7011 81.2898C62.6198 80.5847 62.6198 80.5847 62.1284 82.059C60.8892 85.6912 59.1372 99.7713 59.5645 102.592C60.0345 105.775 64.2864 105.775 65.0128 102.57C65.141 102.036 65.4828 99.5576 65.782 97.1006C67.3203 84.2169 67.7476 82.5077 70.2688 78.9396C72.1917 76.2047 71.508 73.9186 68.7946 73.9186C67.1707 73.9186 65.4828 75.286 63.9231 77.8713C63.5813 78.4481 63.3463 78.7473 63.4317 78.5122C64.3077 75.8842 63.154 70.6496 61.4233 69.4958C60.5473 68.8976 57.7911 68.8121 56.381 69.3463ZM58.8167 76.2047C58.8381 76.8457 58.7526 77.0807 58.5817 77.0166C58.3894 76.9312 58.3253 76.4825 58.3894 75.4569C58.4962 73.8972 58.7526 74.3886 58.8167 76.2047ZM53.7102 75.2646C53.7102 76.5038 52.9197 76.9739 52.8129 75.7988C52.6847 74.7091 52.7488 74.5595 53.3043 74.5595C53.6248 74.5595 53.7102 74.7091 53.7102 75.2646ZM47.9842 76.3115C48.091 77.7431 48.0696 77.7858 47.5355 76.7175C46.98 75.6492 46.9586 75.2005 47.4928 75.2005C47.8346 75.2005 47.9201 75.3928 47.9842 76.3115Z" fill="black"/>
<path d="M13.3289 71.9922C3.82111 73.21 -0.900755 82.5683 0.616223 97.2039C3.82111 128.398 16.897 154.507 30.5926 157.157C42.3438 159.421 64.8635 147.884 71.5723 136.175C75.5037 129.295 70.675 126.539 66.0599 133.035C57.9836 144.401 37.6219 154.123 29.7379 150.362C20.4865 145.94 11.1923 125.386 7.79516 101.798C5.53038 86.0296 7.68833 79.0429 15.4441 77.1841C17.6876 76.6499 18.6277 75.5389 18.3072 73.851C18.1576 73.0818 17.068 71.9922 16.427 71.9922C16.1706 71.9922 15.6792 71.9495 15.3373 71.9067C14.9955 71.864 14.0981 71.9067 13.3289 71.9922Z" fill="black"/>
<path d="M175.218 73.5065C174.15 74.1261 173.979 76.0918 174.877 77.3524C176.265 79.2967 178.338 84.3177 179.748 89.125C182.526 98.6328 183.637 107.927 184.043 125.084C184.812 158.051 185.559 164.589 190.922 185.656C191.627 188.412 192.76 192.942 193.465 195.698C197.631 212.171 198.251 221.294 196.2 236.891C195.217 244.562 195.559 246.549 197.909 246.549C200.152 246.549 201.285 243.878 202.396 235.866C204.383 221.679 203.635 211.893 199.298 194.843C194.277 175.229 193.636 172.388 192.482 165.294C191.008 156.128 190.58 149.59 190.239 130.212C189.982 116.324 189.619 110.384 188.615 103.397C186.072 85.5996 179.534 71.0067 175.218 73.5065Z" fill="black"/>
<path d="M29.2476 75.369C26.3205 76.7578 27.4315 80.7532 30.5296 79.984C32.1534 79.5781 35.166 82.3343 38.9905 87.7185C49.6948 102.824 50.9981 104.726 52.6433 107.781C54.8013 111.798 56.8524 112.695 58.7539 110.495C60.8478 108.08 58.9676 104.79 43.4773 83.7444C38.0931 76.4587 33.1362 73.5315 29.2476 75.369Z" fill="black"/>
<path d="M53.8807 82.3128C52.1073 83.7657 53.0261 86.9492 55.2481 86.9492C56.3805 86.9492 57.2779 86.3082 57.5556 85.2827C58.1966 82.8683 55.6541 80.8172 53.8807 82.3128Z" fill="black"/>
<path d="M89.2424 84.2769C84.0932 86.8622 82.4908 96.5837 87.469 95.0881C88.3664 94.8317 88.8364 94.2548 89.0714 93.1438C90.3534 87.2254 93.9856 87.7596 97.2759 94.3403C99.1775 98.1648 101.143 99.0621 103.878 97.3315C109.348 93.8916 112.937 93.742 114.518 96.9469C116.804 101.605 121.078 100.002 119.539 95.0667C117.68 89.0842 109.476 87.4177 102.746 91.6482C102.126 92.0541 102.126 92.0541 101.186 90.4089C97.8956 84.6188 93.3019 82.2685 89.2424 84.2769Z" fill="black"/>
<path d="M54.8214 87.8257C52.7703 89.9409 54.9709 93.744 57.663 92.7185C60.4192 91.6715 59.4578 87.1633 56.4879 87.1633C55.6333 87.1633 55.3555 87.2702 54.8214 87.8257Z" fill="black"/>
<path d="M31.234 93.0786C30.123 94.3605 30.1657 95.1083 31.5972 99.5952C33.4988 105.556 35.1867 112.586 36.5114 120.064C38.6907 132.242 39.353 134.016 41.746 134.016C44.7159 134.016 44.8227 131.772 42.4511 120.171C38.3488 100.108 34.097 89.8096 31.234 93.0786Z" fill="black"/>
<path d="M74.222 96.5001C71.6581 97.4829 70.3334 100.602 71.0812 103.807C71.4017 105.175 71.4017 105.196 70.8462 106.264C69.9916 107.867 70.0129 110.345 70.8676 111.798C72.8119 115.11 76.7859 113.721 75.9527 110.025C75.7604 109.213 75.8031 108.978 76.3159 108.016C76.85 107.012 76.8928 106.734 76.8714 104.512C76.8287 101.97 76.8714 101.884 77.8542 102.44C80.5891 104 83.2384 100.624 81.0377 98.3589C79.478 96.7351 76.0595 95.8164 74.222 96.5001Z" fill="black"/>
<path d="M86.0138 98.0826C82.2107 98.8304 81.5911 103.595 85.2233 104.129C85.7574 104.215 86.1847 104.321 86.1847 104.364C86.1847 105.368 86.8471 108.338 87.488 110.218C88.4495 113.06 88.535 112.761 86.377 113.915C83.7063 115.346 82.7448 116.436 81.7834 119.213C80.9501 121.564 78.9203 122.717 75.6513 122.675C71.7414 122.611 70.9081 126.435 74.583 127.546C79.8818 129.149 85.4156 126.414 87.0607 121.371C87.659 119.555 87.6376 119.577 89.6887 118.508C93.8551 116.35 94.9447 113.381 93.3637 108.531C93.0432 107.526 92.68 105.796 92.5731 104.685C92.039 99.45 89.9024 97.2921 86.0138 98.0826Z" fill="black"/>
<path d="M139.943 104.897C139.388 105.389 139.025 106.073 138.427 107.739C132.722 123.251 117.296 145.194 109.198 149.253C101.998 152.885 94.2846 147.33 84.8409 131.712C81.401 126.028 77.5765 128.571 80.7173 134.489C91.2934 154.466 103.621 160.598 115.565 151.817C126.205 143.997 145.605 112.675 143.853 106.115C143.341 104.15 141.482 103.573 139.943 104.897Z" fill="black"/>
<path d="M63.7515 110.11C63.2173 110.388 61.7431 111.606 60.4398 112.802C57.299 115.708 55.3547 117.139 51.1456 119.639C46.7442 122.246 46.2314 122.78 46.2314 124.617C46.2314 129.446 54.5 126.433 62.4054 118.742C63.7087 117.46 64.8198 116.477 64.8839 116.584C64.9266 116.669 65.0334 117.374 65.1189 118.144C65.7599 124.019 67.1487 127.117 69.1143 127.117C71.0586 127.096 71.8491 125.557 71.2295 122.951C71.1227 122.481 70.9304 120.558 70.8022 118.678C70.2681 110.366 68.1528 107.824 63.7515 110.11Z" fill="black"/>
<path d="M113.62 112.907C112.68 113.462 111.206 115.172 108.3 119.082C106.142 121.966 105.01 122.949 104.027 122.735C98.3008 121.603 97.5317 126.624 103.236 127.97C107.189 128.889 110.458 126.367 116.184 117.971C118.833 114.082 117.167 110.77 113.62 112.907Z" fill="black"/>
<path d="M94.1979 114.638C93.7492 115.129 93.6637 115.428 93.6637 116.539C93.6637 118.056 93.3646 118.505 91.4844 119.787C87.3822 122.586 91.1426 127.436 95.4585 124.893C99.3043 122.628 100.33 117.479 97.531 114.552C96.8259 113.826 94.903 113.868 94.1979 114.638Z" fill="black"/>
<path d="M144.73 121.771C143.683 122.818 143.705 123.608 144.837 126.364C147.593 133.052 149.132 141.577 150.926 160.443C153.191 184.394 155.413 192.748 161.118 198.901C165.883 204.051 168.788 200.718 164.729 194.778C160.028 187.877 158.661 181.98 156.375 159.054C153.64 131.513 149.196 117.305 144.73 121.771Z" fill="black"/>
<path d="M136.845 134.422C134.41 135.704 134.965 142.99 138.64 158.309C140.862 167.582 141.738 172.838 143.02 184.483C143.383 187.773 143.918 192.666 144.217 195.379C145.883 210.485 147.87 222.899 150.285 233.133C152.827 243.965 154.622 247.897 160.305 255.375C170.796 269.156 170.048 275.074 157.335 279.24C148.789 282.039 141.888 281.056 134.047 275.907C126.077 270.694 120.757 269.498 106.933 269.775C98.2373 269.968 97.0194 269.391 95.1392 264.263C92.6608 257.511 89.9687 239.286 88.9431 222.514C88.3662 212.985 88.5158 175.701 89.1995 157.711C89.4773 150.383 89.3063 149.763 87.0629 149.763C84.3708 149.763 83.8367 153.887 83.1743 179.248C82.2556 214.309 83.9435 240.162 88.4517 260.438C91.3788 273.472 93.2804 274.924 108.087 275.181C121.163 275.437 123.385 275.95 130.842 280.629C140.798 286.868 150.776 287.723 162.079 283.321C174.791 278.343 176.501 267.617 166.758 254.178C165.753 252.768 164.023 250.418 162.955 248.944C156.267 239.756 152.977 226.018 149.644 193.136C147.806 174.953 146.866 169.056 143.853 156.515C142.037 148.994 141.033 143.973 140.563 140.148C140.371 138.567 140.136 136.879 140.029 136.431C139.687 134.85 138.021 133.803 136.845 134.422Z" fill="black"/>
<path d="M73.4749 145.527C72.7699 146.382 72.7485 146.168 74.0091 156.915C76.2525 176.294 76.5516 177.939 78.2182 179.243C80.1838 180.781 82.1709 177.747 81.8076 173.794C81.7435 173.196 81.594 171.572 81.4872 170.162C80.6753 161.146 77.6627 146.617 76.3593 145.421C75.3979 144.566 74.2441 144.609 73.4749 145.527Z" fill="black"/>
<path d="M22.175 165.294C21.5126 165.956 21.2776 166.918 21.1494 169.525C18.906 210.397 15.8507 236.25 10.851 256.868C8.94947 264.71 9.39816 266.718 12.9235 265.778C15.1028 265.18 16.9403 259.518 19.5042 245.373C23.7988 221.871 27.5592 168.435 25.1662 165.572C24.5038 164.803 22.8373 164.653 22.175 165.294Z" fill="black"/>
<path d="M52.5794 193.2C51.5752 193.926 51.1265 198.328 51.4042 204.631C52.3443 225.911 49.4386 242.854 41.1913 264.348C38.9907 270.096 38.9266 271.143 40.7854 271.762C42.6656 272.382 43.3066 271.741 45.5713 266.869C53.904 248.879 58.4122 226.573 57.5576 207.665C57.0235 196.298 55.2715 191.213 52.5794 193.2Z" fill="black"/>
<path d="M165.24 223.26C161.779 226.978 171.607 239.498 179.427 241.314C185.131 242.639 184.875 238.964 178.999 235.118C174.897 232.426 172.355 229.734 170.261 225.781C168.509 222.491 166.778 221.615 165.24 223.26Z" fill="black"/>
<path d="M79.7764 258.408C79.2422 258.557 78.0457 259.027 77.0843 259.455C72.0633 261.698 66.7859 261.869 62.8119 259.903C58.8378 257.938 55.932 260.63 58.9874 263.45C63.5597 267.659 73.5375 268.022 80.5242 264.241C85.5238 261.548 84.9042 256.891 79.7764 258.408Z" fill="black"/>
<path d="M12.1125 267.811C10.1468 269.2 13.6722 276.657 17.048 278.259C20.8939 280.075 21.5135 276.678 18.2231 271.871C15.3387 267.64 13.8217 266.615 12.1125 267.811Z" fill="black"/>
<path d="M49.4813 272.938C45.9132 274.604 47.6438 277.638 52.6648 278.493C60.7625 279.86 60.8907 283.108 52.9212 285.138C46.8747 286.676 33.0937 286.954 23.8636 285.736C17.8171 284.945 16.877 285.18 16.877 287.531C16.877 290.714 24.4191 292.359 38.9693 292.359C57.1517 292.359 66.574 287.851 64.9075 279.967C63.7751 274.562 54.8014 270.459 49.4813 272.938Z" fill="black"/>
</svg>
