<svg width="158" height="293" viewBox="0 0 158 293" fill="none" xmlns="http://www.w3.org/2000/svg">
<path d="M43.6041 0.972122C39.9506 1.65583 35.1646 3.72832 33.263 5.43759C32.1734 6.42042 32.1734 6.42042 29.9727 6.42042C20.4008 6.44179 9.46143 19.1759 13.0295 26.1411C13.3287 26.6753 13.2859 26.8248 12.6022 28.2777C10.4015 32.8287 10.5511 37.8924 12.9654 40.1358C13.4996 40.6272 13.4996 40.6272 13.0723 41.9519C10.9784 48.4258 14.0978 55.9038 18.9693 56.1175C20.2298 56.1816 20.2298 56.1816 21.0417 57.7199C24.3748 64.0442 31.7033 62.8477 30.6137 56.1816C30.4427 55.1987 30.4641 54.4937 30.635 53.639C31.1264 51.2247 30.3573 49.6863 27.5156 47.3788C24.503 44.9431 23.3279 42.7852 24.4389 41.781C24.8876 41.375 27.5797 40.5417 27.8788 40.734C28.178 40.905 31.1264 39.6657 32.387 38.8111C34.9509 37.1232 35.5705 36.0549 37.6858 29.752C40.1001 22.5089 41.0829 21.1415 45.8689 18.5135C47.3004 17.7016 47.3004 17.7016 48.4328 18.7058C50.9113 20.9492 55.2485 23.4704 60.7182 25.842C67.0211 28.5768 68.88 30.4998 68.88 34.2815C68.88 42.6997 66.5725 48.0839 59.8849 55.2415C56.2741 59.1087 54.7571 61.6726 54.4366 64.3861C53.9025 69.0011 58.4534 69.8985 59.7354 65.433C60.2268 63.7237 61.2737 62.2495 64.0726 59.2583C71.4011 51.4597 74.0719 45.3063 74.0932 36.1617C74.1146 32.7218 74.1573 32.2518 74.4778 32.145C77.3622 31.2262 77.64 22.2098 74.9479 16.8256C72.3626 11.6764 65.6537 6.63408 61.4019 6.63408C60.7396 6.63408 60.5259 6.50589 59.8849 5.65125C56.9364 1.71993 50.1207 -0.245733 43.6041 0.972122Z" fill="black"/>
<path d="M110.118 5.35293C101.572 6.3785 94.2219 10.2244 89.4787 16.1C84.5432 22.2534 82.7485 27.7017 84.6287 30.7356C85.291 31.8253 85.291 31.8253 84.2654 34.2823C80.3769 43.4483 79.8427 50.1786 82.4493 56.8447C83.9022 60.5624 85.056 64.1946 85.3337 65.9252C85.7183 68.4464 86.6584 69.6643 88.2181 69.6643C91.5726 69.6643 91.7862 64.6005 88.7736 56.8447C86.0388 49.8581 86.167 46.525 89.5642 36.1412C90.6538 32.8081 90.8461 32.3808 91.4016 32.0817C91.7435 31.8894 92.534 31.3339 93.1537 30.8424C94.1578 30.0519 94.3074 29.9878 94.5638 30.2869C95.9953 32.0389 98.0251 31.8039 103.794 29.24C107.576 27.5735 112.212 25.6505 112.49 25.6505C112.554 25.6505 112.682 26.0351 112.746 26.5265C113.152 29.6032 115.032 31.4834 120.652 34.4105C124.134 36.248 123.942 35.9703 123.28 37.8291C122.126 40.9912 123.579 45.0935 126.484 46.9096C127.895 47.807 127.916 47.8283 128.664 49.9435C129.091 51.1187 129.647 52.2083 130.181 52.8279C130.95 53.768 130.993 53.8962 130.822 54.7509C130.736 55.2636 130.651 55.7337 130.629 55.8192C130.544 57.5071 127.04 58.8318 124.241 58.2335C120.011 57.3148 118.045 60.6906 121.549 62.8485C122.19 63.2545 122.19 63.2545 121.335 63.2331C120.822 63.2118 119.989 63.4254 119.241 63.7459C116.165 65.1347 112.533 66.0321 108.046 66.5448C100.568 67.3781 100.974 72.8691 108.494 72.8691C117.404 72.8691 126.378 67.4422 123.151 64.0023C122.574 63.3827 122.596 63.3613 123.792 63.7886C129.048 65.6475 135.052 61.9725 136.27 56.1824C136.377 55.6696 136.505 55.6055 137.637 55.52C144.966 54.9859 147.701 46.2259 144.945 31.9535C143.321 23.5994 139.347 18.1938 133.386 16.2495C131.014 15.459 130.886 15.3735 129.753 13.2797C126.613 7.55362 118.622 4.32737 110.118 5.35293Z" fill="black"/>
<path d="M56.4472 33.2185C52.2594 35.2696 51.939 35.6329 52.4517 37.4917C53.285 40.5043 62.2373 37.3635 62.6219 33.9022C62.9424 31.2101 60.934 30.9751 56.4472 33.2185Z" fill="black"/>
<path d="M92.0852 35.3088C89.3931 37.6163 94.9696 42.445 97.9181 40.3511C99.0291 39.5606 98.3241 36.548 96.9994 36.548C96.8712 36.548 96.2516 36.2061 95.6533 35.8002C94.1364 34.7746 92.8971 34.6037 92.0852 35.3088Z" fill="black"/>
<path d="M45.2713 36.3582C44.9294 36.465 43.4338 36.8069 41.9809 37.106C38.1137 37.8966 37.1736 38.8153 38.1992 40.781C39.2675 42.8534 47.8138 41.9133 49.3522 39.5845C50.8691 37.2556 48.4762 35.3754 45.2713 36.3582Z" fill="black"/>
<path d="M103.772 40.8422C100.567 42.0601 103.643 46.0555 107.724 45.9914C110.651 45.9273 110.993 42.402 108.13 41.6755C107.639 41.5473 106.848 41.3123 106.378 41.1414C105.139 40.7141 104.306 40.6286 103.772 40.8422Z" fill="black"/>
<path d="M52.7084 41.5914C51.4478 42.5743 51.4051 43.8776 52.5161 45.886C53.1784 47.0611 53.1998 47.5311 52.6443 48.2362C50.3581 51.142 53.8408 54.3255 56.6183 51.8684C60.5497 48.4285 56.7252 38.4079 52.7084 41.5914Z" fill="black"/>
<path d="M96.0799 45.1194C91.4007 47.4269 90.717 57.5116 95.2893 56.6997C96.614 56.4433 97.1695 55.4605 97.3618 52.9607C97.49 51.0164 98.0669 49.6062 98.9856 48.9439C101.678 46.9355 99.1565 43.6024 96.0799 45.1194Z" fill="black"/>
<path d="M56.1691 69.1145C55.6991 69.2641 55.0795 69.5205 54.7803 69.6914C54.4812 69.841 53.3061 70.0333 52.1096 70.1187C50.7422 70.1828 49.7166 70.3751 49.2893 70.5888C48.7124 70.8879 48.3278 70.9306 47.0886 70.7811C40.8711 70.0333 36.9825 74.456 39.5037 79.4129C41.1703 82.6605 47.5587 83.8356 49.6739 81.2931C49.8662 81.0581 50.208 81.0153 51.1268 81.1008C51.9173 81.1863 52.6651 81.1222 53.3702 80.9085C54.2034 80.6521 54.5026 80.6308 54.7376 80.8444C56.6605 82.4255 62.4507 80.1821 63.8608 77.2977C66.5102 71.8707 62.1516 67.2343 56.1691 69.1145ZM59.4381 73.986C59.0962 74.9688 57.1306 75.5243 57.1306 74.6269C57.1306 73.9219 57.3442 73.815 58.7971 73.7509C59.2672 73.7296 59.4808 73.815 59.4381 73.986ZM46.7468 76.4217C46.9818 77.0199 46.8963 77.1268 46.0203 77.3618C45.4007 77.5327 45.0375 77.5327 44.717 77.3618C44.076 76.9986 44.3324 76.6567 45.4007 76.3576C46.6399 76.0371 46.5972 76.0371 46.7468 76.4217Z" fill="black"/>
<path d="M10.8944 71.1864C1.79251 73.323 -1.32691 84.6683 1.92071 103.812C8.45867 142.42 19.1416 156.479 39.1187 152.676C52.9211 150.048 73.3896 135.989 68.4968 132.507C66.7875 131.31 65.3133 131.844 60.2709 135.519C32.8158 155.518 19.2271 150.753 11.2149 118.384C4.67691 91.9113 5.18969 79.9251 13.0096 76.186C17.7742 73.8999 16.1077 69.9686 10.8944 71.1864Z" fill="black"/>
<path d="M142.914 72.7239C140.222 73.9631 141.462 76.6339 145.842 79.0696C153.683 83.471 153.384 90.6926 144.41 113.362C134.432 138.509 126.27 150.773 119.177 151.244C113.814 151.585 93.666 143.552 87.6622 138.68C85.8034 137.163 83.4318 138.616 83.795 141.031C84.3078 144.556 104.285 154.278 115.203 156.329C127.232 158.593 135.864 149.064 147.871 120.22C158.319 95.1367 159.836 86.3981 154.965 78.9414C152.123 74.5614 145.906 71.3565 142.914 72.7239Z" fill="black"/>
<path d="M82.2338 73.09C75.9522 74.201 69.0937 84.2857 70.3757 90.5245C71.2944 94.9686 74.9694 94.1781 75.6958 89.3708C76.5077 84.1148 80.7168 79.0297 84.99 78.1751C90.2887 77.1281 87.5966 72.1499 82.2338 73.09Z" fill="black"/>
<path d="M65.7607 74.48C63.6882 75.9115 60.5901 99.0508 62.1285 101.401C62.7481 102.341 63.1327 102.576 64.0728 102.576C66.0598 102.576 66.423 101.615 67.0854 94.5853C67.3845 91.53 67.9827 86.1244 68.4101 82.5777C69.2647 75.7833 69.2647 75.0996 68.4101 74.48C67.8118 74.0741 66.3376 74.0527 65.7607 74.48Z" fill="black"/>
<path d="M28.9063 75.0313C27.7525 76.2706 28.2012 78.0439 29.9532 79.0909C33.9059 81.4838 36.0425 84.4323 38.8628 91.4617C42.5591 100.67 48.3065 107.102 53.648 107.999C57.152 108.597 58.3699 105.072 55.2932 103.256C48.6056 99.2816 46.3836 96.5895 43.2428 88.791C39.1406 78.514 32.0257 71.6983 28.9063 75.0313Z" fill="black"/>
<path d="M112.362 79.7109C110.525 79.9246 108.751 80.4801 106.914 81.4415C105.333 82.2534 105.29 82.2534 103.923 82.0612C102.491 81.8475 100.91 81.933 99.7135 82.2962C99.2007 82.4671 98.8802 82.4244 98.4102 82.1893C96.7436 81.3347 91.9363 81.3774 89.5647 82.2748C81.3816 85.3729 85.5265 95.1798 94.7993 94.6029C96.5941 94.4747 96.7223 94.4961 97.641 95.0943C99.1152 96.0131 101.017 96.3122 102.854 95.8635C103.923 95.6071 104.457 95.5644 104.734 95.714C106.23 96.5045 110.354 96.6327 112.96 95.9703C124.498 93.0005 123.964 78.3435 112.362 79.7109ZM115.717 85.7147C117.105 87.3599 114.135 89.7315 110.439 89.9238C107.405 90.0734 107.576 86.9326 110.696 85.8856C113.452 84.9883 115.076 84.9242 115.717 85.7147ZM95.0771 87.5522C95.0344 87.7658 94.9275 88.2573 94.8421 88.6205C94.6711 89.4965 93.6242 89.5819 92.1713 88.8341C90.6116 88.0436 90.8253 87.7017 93.026 87.4026C95.013 87.1249 95.2053 87.1462 95.0771 87.5522ZM102.961 87.7017C103.858 88.3641 103.175 90.4793 101.893 90.928C100.739 91.3339 99.9058 89.6247 100.611 88.2573C101.038 87.424 102.192 87.1462 102.961 87.7017Z" fill="black"/>
<path d="M127.915 81.2037C127.017 81.7378 126.718 82.2292 125.928 84.4726C123.877 90.3055 121.719 93.489 114.796 100.882C107.275 108.894 105.694 111.735 107.703 113.594C109.326 115.111 109.668 114.855 116.783 106.821C126.953 95.3265 129.774 91.1815 131.098 85.8187C132.038 82.0369 130.393 79.6867 127.915 81.2037Z" fill="black"/>
<path d="M52.4524 82.5068C50.85 84.0879 52.196 87.6133 54.3754 87.6133C56.1915 87.6133 57.1956 86.0963 56.6829 84.0879C56.1274 81.8872 53.9053 81.054 52.4524 82.5068Z" fill="black"/>
<path d="M54.3739 88.9206C53.6475 89.6256 53.5193 90.6298 53.9253 92.1254C54.5662 94.4543 57.7925 94.5825 58.4121 92.2964C59.2454 89.241 56.4037 86.8694 54.3739 88.9206Z" fill="black"/>
<path d="M86.5948 94.5852C85.5906 95.6535 85.847 96.7859 87.7272 99.6062C89.8424 102.79 90.7612 104.584 89.8852 103.815C87.4281 101.679 81.3602 102.491 80.6551 105.055C80.0782 107.127 81.232 108.153 84.3087 108.302C86.1248 108.388 86.4025 108.452 86.3171 108.751C85.4624 111.571 85.7829 114.05 87.1503 115.182C88.2613 116.101 77.5143 121.57 74.5444 121.592C72.8779 121.592 71.9805 124.156 73.2198 125.373C75.3777 127.553 88.5818 122.895 91.6372 118.9C93.2182 116.827 93.2396 114.648 91.7013 112.618C90.8466 111.464 90.8466 111.464 91.1671 110.396C91.3594 109.798 91.5731 108.9 91.6585 108.388C91.8081 107.469 91.8081 107.469 92.5773 109.029C95.1839 114.263 99.0511 111.037 96.8932 105.439C94.0942 98.1533 88.6459 92.4059 86.5948 94.5852Z" fill="black"/>
<path d="M73.1554 95.7794C71.4248 96.6768 70.6129 98.1938 70.5915 100.501C70.5915 101.292 70.442 101.741 69.9719 102.424C67.7071 105.629 69.7155 110.116 72.9845 109.176C73.9673 108.898 74.4801 108.086 74.5656 106.697C74.6083 105.843 74.7579 105.373 75.1638 104.903C75.7834 104.176 76.1467 103.044 76.1467 101.847C76.1467 101.164 76.2108 101.057 76.5312 101.185C79.0097 102.253 80.3557 101.933 80.8685 100.181C81.7659 97.0187 76.574 94.0488 73.1554 95.7794Z" fill="black"/>
<path d="M100.076 98.1059C97.875 98.9392 98.2809 103.511 100.588 103.939C102.191 104.238 103.387 103.212 103.58 101.375C103.857 98.9392 102.127 97.3154 100.076 98.1059Z" fill="black"/>
<path d="M33.3515 101.103C32.0055 101.893 32.0482 102.769 33.9498 112.127C37.9452 131.656 38.4153 132.98 41.2356 132.98C44.4404 132.98 44.4618 131.293 41.3424 119.947C40.2741 116.101 38.7785 110.482 38.0307 107.491C36.3641 100.974 35.5309 99.842 33.3515 101.103Z" fill="black"/>
<path d="M122.424 104.177C122.125 104.476 121.783 105.117 121.655 105.63C118.941 116.014 115.672 122.381 112.232 123.941C110.694 124.624 110.288 124.56 105.524 122.872C98.601 120.394 91.2512 123.257 85.2687 130.778C82.5339 134.196 82.4484 137.188 85.0764 137.188C86.5079 137.188 86.978 136.867 90.1401 133.79C96.4431 127.616 98.8574 126.804 105.011 128.791C115.843 132.273 123.3 124.902 126.227 107.809C126.847 104.263 124.539 102.062 122.424 104.177Z" fill="black"/>
<path d="M99.5422 107.145C97.7047 109.111 98.8371 112.486 101.358 112.486C103.238 112.486 104.2 111.012 103.815 108.705C103.431 106.525 100.974 105.628 99.5422 107.145Z" fill="black"/>
<path d="M62.066 110.265C59.2671 111.269 48.1354 118.833 45.3365 121.61C43.0503 123.896 43.6486 126.631 46.4475 126.589C47.9645 126.567 48.3064 126.375 53.541 122.615C60.1217 117.893 63.3907 115.799 63.7112 116.141C63.7753 116.205 63.9248 118.448 64.0316 121.119C64.2667 127.422 64.5658 128.362 66.3178 128.725C68.668 129.174 69.4799 127.849 69.95 122.764C70.8901 112.615 68.0484 108.107 62.066 110.265Z" fill="black"/>
<path d="M78.9885 126.096C75.7409 127.015 78.5825 133.767 81.8729 132.998C83.2189 132.677 83.8385 131.331 83.4112 129.729C83.1335 128.682 81.5951 126.353 81.1037 126.203C80.1422 125.947 79.6081 125.926 78.9885 126.096Z" fill="black"/>
<path d="M71.701 142.799C69.9063 143.803 70.0345 146.004 72.6411 160.255C73.5812 165.34 74.6709 167.541 76.2733 167.519C79.0509 167.477 79.0295 163.973 76.2306 148.824C75.1195 142.927 74.0512 141.496 71.701 142.799Z" fill="black"/>
<path d="M84.3721 151.244C83.5389 151.949 83.4107 152.312 82.7911 156.115C76.83 192.159 77.2573 221.986 84.1585 249.099C85.6327 254.868 87.2779 256.77 89.329 255.039C90.846 253.778 90.8033 252.945 88.8162 243.48C83.6243 218.503 83.2825 205.256 86.8506 165.836C88.0257 152.953 88.0257 152.269 87.0856 151.393C86.4019 150.752 85.0345 150.667 84.3721 151.244Z" fill="black"/>
<path d="M134.837 157.931C134.154 158.444 133.769 159.747 133.94 160.965C134.004 161.456 134.303 166.135 134.581 171.37C135.542 188.313 136.76 202.158 138.555 216.879C139.709 226.344 140.499 231.729 143.661 251.278C146.952 271.576 146.268 276.383 139.516 280.849C133.748 284.673 125.372 286.852 123.043 285.122C122.445 284.695 122.338 281.618 122.808 278.691C123.385 275.016 122.595 272.879 120.629 272.858C116.185 272.836 113.941 284.481 117.488 289.075C123.898 297.343 146.033 289.438 150.605 277.259C152.827 271.362 152.55 265.145 149.11 243.373C145.712 221.815 143.982 208.824 141.952 189.21C140.157 171.925 139.324 164.875 138.512 160.089C138.106 157.781 136.354 156.734 134.837 157.931Z" fill="black"/>
<path d="M19.7399 164.107C18.9707 164.919 18.928 165.239 18.7784 171.307C18.1588 196.412 13.0096 244.036 9.27059 259.185C7.66815 265.637 7.86045 267.518 10.0611 267.518C14.4839 267.518 17.9665 252.369 21.3423 218.483C23.6498 195.087 24.7609 168.935 23.6071 165.132C23.073 163.402 20.915 162.846 19.7399 164.107Z" fill="black"/>
<path d="M105.245 185.151C104.156 185.92 104.049 187.096 104.198 197.116C104.668 228.759 109.305 253.629 114.753 253.629C116.74 253.629 117.039 250.766 115.565 245.83C111.954 233.78 108.856 208.077 108.835 190.258C108.835 185.621 107.446 183.634 105.245 185.151Z" fill="black"/>
<path d="M50.4437 195.323C49.525 195.857 49.3754 196.797 49.3113 202.972C49.0335 226.218 45.3372 249.165 39.6112 262.924C37.6455 267.668 37.4532 270.039 38.9916 270.595C46.961 273.372 55.9774 231.709 54.1613 200.515C53.8622 195.707 52.6657 194.041 50.4437 195.323Z" fill="black"/>
<path d="M91.1223 257.604C77.8541 264.975 72.1066 273.564 77.3199 278.158C84.1356 284.162 109.262 282.837 109.262 276.47C109.262 274.099 107.232 273.436 102.724 274.355C93.2375 276.321 81.9777 275.722 81.529 273.265C81.294 272.026 88.3233 265.509 93.6648 261.984C98.1517 259.014 95.8228 254.997 91.1223 257.604Z" fill="black"/>
<path d="M75.1851 259.547C73.3477 260.209 69.8223 260.423 66.7456 260.06C60.5709 259.312 59.0539 259.91 60.1863 262.645C61.3828 265.486 73.1126 266.576 77.7918 264.29C82.77 261.876 80.4198 257.645 75.1851 259.547Z" fill="black"/>
<path d="M11.1287 268.388C8.39391 269.991 13.9918 279.584 17.7949 279.862C21.5126 280.14 19.9315 275.183 14.3336 268.944C13.5645 268.089 12.0688 267.833 11.1287 268.388Z" fill="black"/>
<path d="M51.0422 271.298C50.8072 271.341 50.4012 271.426 50.1448 271.49C47.8587 271.961 49.0552 274.994 52.3241 277.024C57.4306 280.186 56.8323 282.921 50.5508 285.036C44.6752 287.002 31.471 287.365 22.7324 285.784C17.69 284.887 18.0746 284.908 17.2841 285.336C15.1048 286.511 16.0021 288.925 18.9506 289.844C34.7186 294.822 56.811 291.98 60.6141 284.481C63.4985 278.776 57.1528 269.995 51.0422 271.298Z" fill="black"/>
</svg>
