<svg width="225" height="276" viewBox="0 0 225 276" fill="none" xmlns="http://www.w3.org/2000/svg">
<path d="M43.2314 0.632308C35.0482 1.93563 30.9032 9.69144 33.0398 19.7334C33.4885 21.8486 33.4885 21.8486 32.2279 23.9639C27.5488 31.8692 27.5915 50.5858 32.3134 59.709C35.1764 65.2428 42.1631 67.9776 48.1028 65.8624C49.3206 65.435 49.3206 65.435 50.1112 66.9307C51.9273 70.3492 54.7262 72.2935 57.3328 71.9089C59.854 71.5243 60.3454 68.5117 58.1234 67.0161C56.5209 65.9265 55.4954 64.73 54.363 62.7002C53.0383 60.2859 52.1409 59.4099 49.0429 57.4869C38.8727 51.184 42.0135 41.0352 52.9528 44.8597C57.3115 46.3767 58.0806 45.522 59.9822 37.0611C60.7514 33.6426 61.0078 33.0444 61.5846 33.1939C66.6484 34.5186 74.6392 32.8093 79.8097 29.3053C83.3992 26.8696 85.5999 29.6685 87.1596 38.6209C88.4843 46.3339 87.2451 52.4446 82.8864 59.6876C80.6857 63.3412 79.7243 65.3496 79.3611 67.1229C78.2714 72.379 83.2283 73.7036 85.1726 68.6827C85.4503 67.9776 86.54 65.9478 87.5869 64.1531C94.424 52.5941 95.3214 40.437 90.2149 28.878C89.7235 27.767 89.7235 27.767 90.6209 26.9123C99.5518 18.6865 80.3225 -1.35472 68.9559 4.32861C67.5885 5.01232 67.5885 5.01232 66.3065 4.49953C64.7895 3.90129 62.0974 3.66626 60.4523 4.02948C59.3199 4.26451 59.3199 4.26451 58.337 3.38851C55.7304 1.05963 48.701 -0.222327 43.2314 0.632308Z" fill="black"/>
<path d="M131.772 1.5711C130.191 2.01978 128.588 3.00261 127.541 4.1991C126.772 5.09647 126.43 5.3315 125.918 5.3315C122.392 5.35286 114.23 10.2029 111.068 14.177C108.034 17.9801 106.368 22.6806 106.645 26.6547C106.774 28.4494 106.774 28.4494 105.791 30.3937C100.407 41.1407 100.855 50.5204 107.158 59.3017C109.444 62.4639 109.85 63.2117 110.662 65.5833C112.778 71.9717 117.82 69.7924 116.089 63.2331C115.47 60.8828 114.786 59.665 111.389 55.0072C108.996 51.7168 108.077 49.0461 108.077 45.3071C108.077 40.2006 110.385 31.3979 111.731 31.3979C113.504 31.3979 116.175 30.5646 122.499 28.0221C126.516 26.3983 129.592 25.4154 130.597 25.4154C130.896 25.4154 131.259 25.7359 131.644 26.3555C132.455 27.6589 134.4 29.4109 136.643 30.8851C137.669 31.5688 138.929 32.4875 139.421 32.9576C140.51 33.9618 140.532 33.4917 139.143 39.1537C137.626 45.3712 137.391 49.4093 138.374 53.127C138.758 54.6653 138.758 54.6653 136.835 56.0327C133.182 58.5967 129.058 60.8614 126.302 61.8015C124.272 62.4852 123.952 62.6989 123.674 63.5535C122.285 67.7413 129.464 67.549 137.049 63.1903C138.032 62.6348 138.887 62.1648 138.929 62.1648C138.972 62.1648 138.908 62.6775 138.801 63.2758C137.519 70.1129 142.497 76.2449 150.168 77.3345C154.932 78.0182 155.381 78.3601 156.898 82.4196C158.949 87.9534 161.022 89.7268 165.487 89.7268C167.047 89.7268 167.047 89.7268 167.496 90.6028C170.038 95.6237 175.721 95.4955 177.302 90.3891C178.478 86.6073 177.281 82.676 172.837 75.7107C168.97 69.6642 166.235 63.6604 166.897 62.6134C168.82 59.5368 169.611 56.7806 169.953 51.9519C170.124 49.5589 170.102 49.5375 172.687 53.8321C177.367 61.6092 180.486 70.7325 183.605 85.6672C184.61 90.56 185.592 94.9614 187.109 101.692C189.353 111.605 190.101 117.182 190.656 128.399C191.554 146.688 193.498 155.512 197.151 158.012C200.185 160.063 201.467 157.243 199.822 152.072C198.241 147.094 197.643 142.778 197.066 132.245C196.083 114.554 195.122 108.828 188.178 79.6848C181.127 50.0503 173.841 40.2647 142.305 17.8305C131.323 10.0106 130.084 8.27999 134.101 6.33569C138.352 4.28457 136.408 0.310513 131.772 1.5711Z" fill="black"/>
<path d="M144.228 2.0842C142.711 3.49435 143.331 5.88733 145.361 6.31465C148.16 6.91289 155.958 11.3997 161.065 15.3311C172.431 24.0911 178.67 32.6802 186.789 50.6275C190.592 59.0243 192.772 61.5668 194.951 60.1353C196.276 59.2593 196.126 57.7851 194.374 54.6656C193.69 53.4264 191.725 49.4737 190.058 45.8843C183.328 31.5478 178.649 24.5398 170.658 16.7626C160.616 6.99836 147.049 -0.543801 144.228 2.0842Z" fill="black"/>
<path d="M27.742 12.9632C25.8405 14.7152 17.6146 31.1455 14.602 39.2005C6.6539 60.545 3.38492 84.5389 3.38492 121.716C3.38492 139.577 3.25672 143.423 2.31662 156.713C1.9534 161.52 1.44062 168.742 1.1415 172.737C-0.824163 200.171 -0.183186 209.764 4.21819 218.524C7.76492 225.575 11.8672 222.926 9.04688 215.405C6.48297 208.547 5.79926 203.098 6.01292 191.219C6.14112 184.104 6.33341 180.6 7.44443 165.687C9.11097 143.146 9.23917 139.62 9.08961 123.062C8.64092 76.0994 13.7901 50.1185 29.9213 18.0483C31.2033 15.5271 31.4383 14.6938 31.1392 13.6255C30.776 12.2367 28.9385 11.8735 27.742 12.9632Z" fill="black"/>
<path d="M111.946 33.1305C110.215 33.7715 110.151 36.4636 111.817 37.7882C114.595 39.9676 117.479 39.3266 117.479 36.549C117.479 35.7157 116.518 34.3911 115.92 34.3911C115.77 34.3911 115.3 34.156 114.873 33.8569C113.933 33.2159 112.608 32.8955 111.946 33.1305Z" fill="black"/>
<path d="M78.8045 36.9969C76.0483 38.3216 75.2364 40.2231 76.9243 41.4196C78.8473 42.787 83.74 40.8427 83.9323 38.6634C84.1674 35.9927 82.2231 35.3731 78.8045 36.9969Z" fill="black"/>
<path d="M122.051 37.8097C119.038 39.0275 121.324 42.9375 125.063 42.9375C127.157 42.9375 128.396 40.5873 127.05 39.1557C126.345 38.4079 122.862 37.4678 122.051 37.8097Z" fill="black"/>
<path d="M65.9875 40.8029C65.1115 41.1448 64.15 41.4225 63.8936 41.4225C62.2484 41.4653 61.3511 43.9864 62.5262 45.247C64.62 47.4691 71.393 45.0761 71.393 42.1062C71.393 40.0765 69.2351 39.5637 65.9875 40.8029Z" fill="black"/>
<path d="M113.292 42.5971C111.284 44.7124 110.856 48.6223 112.459 50.3316C114.189 52.1477 117.031 50.5025 116.497 47.9813C116.412 47.5327 116.561 46.9344 117.138 45.7379C118.762 42.2553 115.877 39.905 113.292 42.5971Z" fill="black"/>
<path d="M76.9266 45.9301C76.1574 46.6779 75.9865 47.4257 76.2856 48.7504C76.4779 49.5623 76.4565 49.9682 76.1574 50.9083C74.8327 55.096 79.7469 56.5062 81.4989 52.4467C83.2082 48.494 79.5546 43.3021 76.9266 45.9301Z" fill="black"/>
<path d="M25.7554 60.6954C22.8496 62.9602 23.1915 85.1808 26.1613 87.7874C28.9175 90.2017 30.114 87.2532 29.4517 79.6897C29.2807 77.6386 29.1739 73.8141 29.1953 69.6477C29.2594 60.3536 28.5329 58.4948 25.7554 60.6954Z" fill="black"/>
<path d="M196.447 64.7522C195.55 65.7992 195.678 66.7179 197.152 69.9655C203.348 83.6183 205.549 98.2753 205.934 128.401C206.233 152.224 206.895 157.63 211.211 171.432C218.326 194.315 219.672 207.37 216.916 227.688C215.912 235.167 217.044 238.329 219.907 236.064C222.898 233.714 225.163 215.019 223.924 202.968C222.791 191.943 220.997 183.589 217.108 171.026C212.685 156.711 212.237 152.993 211.916 128.615C211.532 100.134 209.181 84.6439 203.028 70.3928C200.443 64.3676 198.306 62.5302 196.447 64.7522Z" fill="black"/>
<path d="M100.301 71.2055C96.7333 74.795 96.7547 82.5508 100.344 82.5508C102.203 82.5508 102.78 81.7175 103.293 78.2776C103.485 77.0384 103.87 75.265 104.169 74.3676C105.322 70.7995 102.801 68.7271 100.301 71.2055Z" fill="black"/>
<path d="M111.773 74.1294C106.795 75.1763 103.27 84.9832 107.842 85.1114C109.273 85.1328 109.765 84.62 111.047 81.7784C112.756 77.9325 114.487 78.488 117.093 83.7013C119.614 88.7436 120.896 89.2137 125.917 86.8207C130.81 84.4918 135.212 84.15 135.212 86.1156C135.212 88.8718 139.976 88.6154 140.425 85.8379C141.408 79.6631 132.733 77.4197 124.251 81.6288C123.332 82.0989 122.542 82.4621 122.499 82.4621C122.456 82.4621 121.922 81.522 121.345 80.3682C118.781 75.4113 115.598 73.3175 111.773 74.1294Z" fill="black"/>
<path d="M77.4176 76.3291C75.9006 76.7137 74.2127 77.6965 72.8025 78.9998C71.5633 80.1322 71.5633 80.1322 70.5378 79.4058C64.7262 75.3035 55.5389 80.004 54.0006 87.8453C53.0818 92.5031 57.5473 94.3619 58.7224 89.7896C59.4061 87.0761 63.2947 83.5294 65.5809 83.5294C66.756 83.5294 67.4397 84.0422 69.149 86.3069C70.666 88.2726 73.2299 87.9735 74.6827 85.666C77.4176 81.286 80.8148 80.3459 82.4386 83.5294C83.8487 86.3069 87.5664 85.7087 87.5664 82.7175C87.5664 78.2306 82.5027 75.0471 77.4176 76.3291Z" fill="black"/>
<path d="M96.2206 84.7931C94.1054 85.3272 92.8876 86.716 92.4603 89.0235C92.2893 89.985 92.0329 90.4551 91.4133 91.1388C89.0631 93.6813 90.4091 98.5527 93.4644 98.5527C94.8746 98.5527 95.6224 97.7622 95.8147 96.0957C95.9429 95.0487 96.0497 94.7923 96.5198 94.5146C97.3317 94.0445 97.9727 92.9335 98.1436 91.7797C98.3145 90.7542 98.3145 90.7542 99.1478 91.5875C100.643 93.0403 102.908 92.5703 103.25 90.7115C103.87 87.4852 99.6178 83.9171 96.2206 84.7931Z" fill="black"/>
<path d="M35.9477 86.0952C31.3113 88.7446 28.726 97.3123 30.1789 105.324C32.2086 116.648 41.5455 133.698 49.045 139.724C56.5657 145.791 65.3471 144.595 73.9362 136.326C76.3078 134.04 77.547 132.651 82.9953 126.049C91.6058 115.666 94.832 113.422 100.537 113.914C107.673 114.533 110.878 112.482 111.818 106.713C112.01 105.538 112.566 103.423 113.057 102.013C114.831 96.8422 114.04 93.6374 110.643 92.099C106.476 90.2188 103.507 94.3852 107.224 96.8636C108.271 97.5687 108.293 97.6969 107.31 100.709C106.904 102.013 106.412 104.064 106.263 105.282C105.814 108.679 105.472 108.871 100.515 108.658C92.1613 108.316 88.8923 110.516 76.7138 124.767C69.4494 133.25 66.1377 136.091 61.8218 137.437C55.3906 139.446 48.8954 133.805 42.6138 120.708C35.734 106.371 34.8366 97.9746 39.4089 90.3897C41.4387 87.0139 39.1739 84.2364 35.9477 86.0952Z" fill="black"/>
<path d="M53.4455 98.9585C51.138 101.501 52.7191 108.359 56.4581 112.056C62.5688 118.124 73.2731 116.115 85.0029 106.672C89.6607 102.933 90.5794 101.458 89.1693 99.92C87.9301 98.5953 87.2677 98.8303 81.6058 102.569C67.4188 111.97 61.2441 111.928 58.2528 102.398C57.2059 99.0012 54.8984 97.3774 53.4455 98.9585Z" fill="black"/>
<path d="M136.472 100.176C135.767 100.604 134.955 101.544 133.545 103.552C128.374 110.838 124.763 113.38 121.046 112.291C116.794 111.051 114.679 114.705 118.653 116.436C125.661 119.47 133.288 115.538 138.929 106.009C141.6 101.458 140.083 97.8687 136.472 100.176Z" fill="black"/>
<path d="M158.395 101.203C157.027 101.566 156.108 102.955 154.015 107.784C145.596 127.27 136.131 137.739 125.213 139.726C119.231 140.794 112.052 133.872 105.428 120.561C103.591 116.907 102.48 116.117 100.813 117.292C97.5658 119.621 107.052 136.82 114.723 142.525C127.734 152.182 148.673 137.611 158.929 111.758C161.963 104.13 161.77 100.349 158.395 101.203Z" fill="black"/>
<path d="M166.64 111.755C165.658 112.717 165.722 113.849 166.918 116.541C168.862 120.985 170.743 127.951 171.64 134.061C172.431 139.445 172.687 143.249 173.242 157.991C173.563 166.153 174.054 170.191 175.315 175.084C177.836 184.784 184.972 194.014 187.793 191.194C188.797 190.189 188.113 187.967 185.635 184.143C180.55 176.28 179.481 171.366 178.584 151.368C177.452 126.348 171.555 106.82 166.64 111.755Z" fill="black"/>
<path d="M91.8838 121.519C90.8156 122.523 90.8156 123.143 91.9266 128.805C93.2085 135.343 93.5718 137.8 94.6187 147.137C95.9006 158.739 96.3493 160.426 98.2082 160.79C101.285 161.409 101.541 158.119 99.6397 142.009C97.5672 124.617 95.2169 118.4 91.8838 121.519Z" fill="black"/>
<path d="M156.964 127.268C155.191 129.127 155.639 132.61 159.571 148.164C163.096 162.116 163.609 164.872 164.592 175.406C165.297 183.033 165.703 186.324 167.369 198.053C168.117 203.395 168.993 210.082 169.292 212.903C170.66 225.701 171.066 228.094 172.412 231.769C174.164 236.533 176.322 239.952 181.449 245.977C190.68 256.874 191.406 259.972 185.701 264.288C177.347 270.612 164.912 271.296 153.695 266.061C152.05 265.292 149.486 264.095 147.99 263.39C141.089 260.207 135.726 259.032 125.706 258.519C118.42 258.156 116.754 257.344 114.702 253.071C110.835 245.016 109.852 226.449 110.045 165C110.109 138.357 110.28 140.152 107.865 140.152C106.22 140.152 105.622 141.071 105.301 144.041C104.383 152.865 104.126 162.308 104.148 188.652C104.169 255.442 106.306 263.113 125.065 264.074C135.598 264.63 139.53 265.677 149.272 270.569C161.878 276.894 173.33 277.364 184.462 271.979C197.88 265.484 199.034 256.553 188.094 243.862C178.821 233.094 177.54 230.359 176.236 218.394C175.339 210.189 174.89 206.685 173.565 197.626C171.856 185.939 171.707 184.743 170.895 176.26C169.762 164.381 169.079 160.471 165.874 147.309C165.211 144.596 163.951 139.425 163.075 135.793C161.109 127.567 160.66 126.691 158.438 126.691C157.712 126.691 157.391 126.82 156.964 127.268Z" fill="black"/>
<path d="M27.1019 133.355C25.2431 135.363 27.1447 152.328 29.7299 156.751C32.187 160.96 34.2381 156.986 33.0203 150.405C32.358 146.858 31.717 142.499 31.2683 138.547C30.6914 133.334 29.0462 131.282 27.1019 133.355Z" fill="black"/>
<path d="M46.2456 152.971C44.9423 154.531 45.4764 160.727 48.7881 182.883C51.0743 198.075 51.117 198.523 51.1384 205.104C51.1384 218.308 47.4207 230.145 37.1651 249.374C31.2254 260.549 30.3494 264.223 32.7637 267.727C35.114 271.103 39.2589 271.274 50.882 268.433C60.518 266.061 62.9323 266.21 68.5302 269.415C82.183 277.235 93.3574 276.765 106.818 267.813C111.582 264.629 112.159 260.655 107.865 260.655C106.391 260.655 106.198 260.741 102.032 263.155C89.8106 270.27 83.1017 270.59 72.2906 264.608C63.8511 259.95 60.6248 259.673 49.2368 262.578C43.5962 264.01 41.1605 264.501 39.729 264.501C36.5668 264.48 36.8019 263.454 42.592 251.788C50.8393 235.144 54.4074 225.487 56.138 215.146C57.6977 205.745 57.3986 201.344 53.5955 178.397C52.5485 172.115 51.4161 164.509 51.0529 161.518C50.1128 153.869 50.0701 153.655 49.3864 152.929C48.5317 152.053 47.0148 152.053 46.2456 152.971Z" fill="black"/>
<path d="M31.3961 171.387C30.3278 172.52 30.5201 174.592 32.0798 178.609C34.3232 184.442 35.2206 188.309 35.2206 192.198C35.2206 195.873 34.9215 197.39 32.3576 206.919C28.9604 219.461 29.2168 225.443 33.1054 224.332C34.4087 223.948 34.5582 223.584 35.1138 219.845C35.4983 217.132 36.4598 213.414 38.4255 207.026C40.9894 198.629 41.4808 196.193 41.4381 191.706C41.3526 180.575 34.9215 167.584 31.3961 171.387Z" fill="black"/>
<path d="M188.435 212.775C184.76 215.98 195.657 230.167 202.195 230.701C205.442 230.957 205.164 227.646 201.725 224.847C198.071 221.898 195.016 218.394 193.242 215.146C191.725 212.369 189.931 211.493 188.435 212.775Z" fill="black"/>
<path d="M4.83881 225.421C1.97578 227.557 6.46261 234.929 12.4451 237.941C17.7438 240.612 24.8373 239.586 26.3756 235.933C27.508 233.284 25.3501 232.172 21.4828 233.412C16.8892 234.886 11.6332 232.301 8.87696 227.194C7.70184 225.015 6.22759 224.374 4.83881 225.421Z" fill="black"/>
<path d="M100.813 248.627C100.642 248.692 99.7232 249.055 98.7831 249.439C95.8987 250.657 93.2921 251.277 90.4932 251.405C86.7755 251.576 85.2799 253.584 87.4378 255.486C89.9804 257.708 100.706 255.657 103.569 252.409C105.706 249.974 103.932 247.538 100.813 248.627Z" fill="black"/>
</svg>
