<svg width="299" height="198" viewBox="0 0 299 198" fill="none" xmlns="http://www.w3.org/2000/svg">
<path d="M165.68 0.952495C163.181 1.52937 161.215 3.49504 161.215 5.41797C161.215 8.04597 163.394 8.85787 166.129 7.23407C168.992 5.56753 170.936 6.97768 171.663 11.2722C172.304 15.1181 173.735 16.1864 177.346 15.4813C182.517 14.4557 183.841 15.9727 181.363 20.0536C179.055 23.8354 182.047 26.7411 184.931 23.5362C190.614 17.2119 187.837 9.81934 179.739 9.79797C177.795 9.79797 177.325 9.73388 177.261 9.47748C177.218 9.30656 177.047 8.62285 176.919 7.98187C175.744 2.74723 171 -0.243995 165.68 0.952495Z" fill="black"/>
<path d="M139.871 5.33692C137.628 5.87106 134.337 7.79399 133.183 9.20414C132.97 9.46053 132.82 9.43917 132.094 8.94775C124.103 3.67038 113.591 14.6738 116.005 25.7841C116.988 30.2923 120.877 29.224 120.791 24.4808C120.599 15.9771 126.795 9.90922 130.449 15.0157C132.286 17.5582 134.679 17.5155 136.132 14.9088C138.546 10.657 143.418 9.4178 146.473 12.2595C148.396 14.0542 150.191 14.2251 151.9 12.7722C155.319 9.90922 159.335 12.58 160.382 18.4128C161.451 24.4808 166.749 22.6219 166.172 16.4044C165.446 8.73409 157.647 3.60628 150.874 6.34111C149.55 6.87526 149.55 6.87526 148.375 6.17019C146.409 4.9737 142.798 4.63184 139.871 5.33692Z" fill="black"/>
<path d="M178.031 26.1487C175.061 26.7683 173.737 29.5458 175.553 31.3619C176.365 32.1738 176.557 32.2166 178.886 32.1311C186.065 31.8747 190.958 40.2929 185.167 42.9422C179.313 45.613 167.562 44.7156 161.879 41.1689C159.593 39.7374 157.84 40.0792 156.708 42.1731C153.589 47.9205 140.299 48.1982 138.889 42.5577C138.12 39.4382 136.304 38.7118 133.227 40.3142C130.065 41.938 127.287 41.8526 124.531 40.0365C120.728 37.5153 122.031 32.1311 126.475 32.1311C128.206 32.1311 128.975 31.6824 129.189 30.55C129.851 26.8965 123.206 26.6401 119.724 30.1654C112.032 37.9854 121.134 49.6939 132.65 46.7881C134.21 46.4035 134.21 46.4035 134.552 46.8949C139.081 53.6893 152.478 54.4585 159.101 48.2837C160.533 46.9804 160.533 46.9804 161.729 47.5573C171.023 52.1509 186.343 51.4031 191.171 46.1685C198.457 38.2631 188.971 23.8411 178.031 26.1487Z" fill="black"/>
<path d="M235.398 30.6316C233.604 32.7681 235.142 40.6949 238.283 45.5022C241.317 50.1172 245.825 53.258 255.546 57.5526C269.028 63.5137 273.237 67.6373 276.806 78.4271C279.284 85.9692 284.647 85.4564 283.108 77.8288C280.63 65.7357 273.943 58.7063 258.431 51.9974C244.735 46.0577 239.351 40.2889 239.308 31.4435C239.308 30.0547 236.381 29.4351 235.398 30.6316Z" fill="black"/>
<path d="M82.8037 36.7034C79.5133 38.2417 78.616 41.8098 80.1329 47.4077C81.6286 52.8987 81.8849 52.5141 77.3981 51.5099C69.3645 49.7152 66.2451 50.7408 66.2451 55.2062C66.2451 60.7186 75.6247 69.906 78.5091 67.1925C79.962 65.8251 79.4706 64.5218 76.3298 61.4451C74.1078 59.2658 72.0139 56.6378 72.0139 56.0181C72.0139 55.7618 72.6549 55.89 76.6076 56.9796C86.2863 59.6504 89.363 56.3386 86.3291 46.5531C84.8121 41.6816 85.3035 40.8056 88.6579 42.3867C95.2814 45.5275 100.73 53.7961 102.866 63.9235C104.447 71.4443 110.259 71.0597 109.404 63.5176C107.716 48.6042 91.756 32.5157 82.8037 36.7034Z" fill="black"/>
<path d="M229.76 42.2141C229.29 42.7269 228.093 44.1371 227.089 45.3763C221.384 52.4911 213.436 62.2126 201.386 76.891C193.438 86.5484 192.241 88.7277 193.694 90.7361C195.169 92.7445 196.985 91.9753 199.976 88.1081C201.151 86.5911 204.441 82.5529 207.304 79.0917C226.705 55.7387 233.755 46.2096 233.755 43.3893C233.755 41.2099 231.405 40.5262 229.76 42.2141Z" fill="black"/>
<path d="M116.863 46.4455C114.085 47.9197 112.098 52.4706 112.739 55.8678C113.572 60.2906 117.162 62.5981 123.593 62.8758C126.37 63.004 126.37 63.004 126.648 64.4783C130.174 83.7289 160.769 93.3863 173.952 79.413C180.896 72.0418 184.827 55.6328 179.657 55.6328C177.948 55.6328 177.371 56.5729 176.58 60.5897C174.85 69.4565 171.089 75.8663 166.154 78.2806C154.509 84.0067 136.541 76.6355 131.947 64.2219C130.879 61.3588 130.879 61.5298 131.712 61.1452C136.84 58.6881 134.724 53.8167 129.447 55.9533C121.52 59.1795 115.388 55.1627 120.602 50.1631C123.208 47.6633 120.217 44.6721 116.863 46.4455Z" fill="black"/>
<path d="M147.181 55.8667C146.07 56.5077 146.369 58.922 147.63 59.563C150.258 60.9304 156.027 60.9945 157.437 59.6698C159.125 58.1315 157.437 56.2726 154.317 56.2726C153.42 56.2513 151.903 56.1231 150.963 55.9521C148.976 55.5889 147.694 55.5676 147.181 55.8667Z" fill="black"/>
<path d="M168.374 57.8962C167.37 58.1526 165.981 58.3876 165.276 58.3876C163.204 58.4089 162.2 59.6054 162.905 61.2506C164.229 64.4769 173.93 62.5967 173.93 59.1354C173.93 57.2766 172.092 56.8706 168.374 57.8962Z" fill="black"/>
<path d="M161.003 68.4274C156.452 68.8334 157.392 73.1065 161.964 72.8715C165.041 72.722 166.451 71.4827 165.789 69.5384C165.361 68.3206 164.571 68.1283 161.003 68.4274Z" fill="black"/>
<path d="M48.7263 70.3724C42.2738 71.1629 38.9408 73.2354 38.5348 76.7394C38.1075 80.4784 43.3635 85.0507 54.6874 90.7554C55.8198 91.3323 55.8198 91.3323 53.7473 92.2724C41.8465 97.6352 40.5005 105.071 50.9911 107.421C52.2731 107.72 59.4948 108.831 60.093 108.831C60.2212 108.831 59.7939 109.386 59.1529 110.092C52.0381 117.762 59.2597 124.001 73.1476 122.185C79.8564 121.309 83.745 119.578 84.1296 117.313C84.5142 114.856 81.7366 114.13 75.22 115.048C71.3528 115.561 64.0243 115.754 63.0842 115.326C62.5928 115.113 62.6355 115.07 64.2166 113.318C70.1563 106.716 68.5753 104.024 57.9137 102.528C52.6577 101.78 50.9911 101.396 51.2903 101.032C52.0808 100.071 56.6104 98.4044 61.7168 97.1865C65.8404 96.1823 67.1651 95.3277 67.7206 93.298C68.6821 89.8367 67.2719 88.4052 58.5547 84.132C45.6924 77.8077 45.1582 77.4658 47.3803 77.0171C58.2342 74.9019 81.0316 78.5982 100.624 85.6703C104.128 86.9309 105.773 86.3754 105.773 83.9611C105.752 78.1709 64.7935 68.4281 48.7263 70.3724Z" fill="black"/>
<path d="M182.326 70.7808C180.574 72.2764 181.215 74.2207 183.928 75.6949C186.257 76.9555 188.843 79.0708 190.509 81.0578C193.458 84.6259 196.727 84.455 196.663 80.7373C196.598 75.8872 185.403 68.1101 182.326 70.7808Z" fill="black"/>
<path d="M124.747 76.0323C118.914 78.5321 113.508 86.587 115.965 89.0654C117.29 90.3901 118.957 89.5141 121.008 86.4588C122.632 84.0231 125.473 81.1387 127.054 80.3482C131.904 77.8911 129.746 73.8743 124.747 76.0323Z" fill="black"/>
<path d="M216.768 86.5039C214.31 87.3799 214.631 89.7515 217.366 91.0762C219.139 91.9308 238.262 96.0117 240.484 96.0117C241.766 96.0117 242.727 94.1956 242.107 92.9564C241.616 91.9949 237.834 90.6916 228.839 88.4482C220.357 86.3116 218.263 85.9698 216.768 86.5039Z" fill="black"/>
<path d="M259.989 86.5901C252.127 88.2993 247.982 93.1921 249.648 98.8114C249.819 99.431 249.947 99.9651 249.926 99.9651C249.905 99.9865 246.23 100.435 241.764 100.991C224.522 103.127 213.177 104.837 208.177 106.076C206.617 106.46 206.361 106.46 205.827 106.204C205.506 106.033 204.823 105.777 204.31 105.648C203.391 105.392 203.391 105.392 204.075 104.602C205.998 102.401 206.169 99.3669 204.438 97.8072C200.165 93.8972 181.833 99.5164 181.833 104.73C181.833 106.695 183.82 107.593 185.487 106.375C187.196 105.136 187.901 104.73 189.589 104.046C192.388 102.871 196.768 101.781 198.584 101.781C199.203 101.781 199.182 101.803 197.815 103.213C194.524 106.631 195.358 109.11 200.144 110.221C208.07 112.058 208.049 114.601 200.101 117.25C193.392 119.472 194.054 124.023 200.891 122.613C208.882 120.946 213.155 116.353 211.297 111.439C211.19 111.161 211.19 110.969 211.318 110.969C211.446 110.969 215.933 110.349 221.317 109.58C229.329 108.426 247.576 106.054 248.388 106.054C248.516 106.054 248.58 106.631 248.537 107.486C248.195 114.622 253.793 120.006 260.289 118.81C264.562 118.041 272.232 113.682 281.12 106.994C290.585 99.8797 290.906 99.025 285.65 94.2604C278.492 87.7652 268.429 84.7526 259.989 86.5901ZM268.92 92.4871C272.382 93.1067 275.287 94.175 277.744 95.7347C279.411 96.803 280.372 96.5679 269.86 97.7217C265.566 98.1917 260.694 98.7473 259.049 98.9396C255.503 99.3455 255.481 99.3241 255.118 98.0636C253.922 93.7904 260.694 91.0555 268.92 92.4871ZM276.591 103.191C273.386 105.841 264.733 110.969 261.528 112.122C256.891 113.81 253.986 111.246 255.118 106.482C255.438 105.114 254.52 105.349 263.451 104.345C267.617 103.875 272.339 103.32 273.92 103.085C275.501 102.871 276.911 102.679 277.018 102.679C277.146 102.657 276.954 102.892 276.591 103.191Z" fill="black"/>
<path d="M112.181 97.7225C110.151 99.9019 110.685 108.598 113.227 114.73C117.095 123.96 127.372 133.169 128.632 128.511C129.06 126.93 128.483 125.904 125.278 122.379C118.12 114.495 115.984 109.944 115.92 102.316C115.877 97.7439 115.92 98.1285 115.385 97.5516C114.68 96.8038 112.971 96.8893 112.181 97.7225Z" fill="black"/>
<path d="M166.879 101.589C157.862 102.743 144.359 108.341 141.603 112.08C139.68 114.665 142.628 116.845 145.427 114.9C149.059 112.358 156.473 109.516 165.169 107.337C171.686 105.713 172.904 104.944 172.348 102.786C172.113 101.782 169.635 101.247 166.879 101.589Z" fill="black"/>
<path d="M279.989 109.431C278.942 110.265 278.814 111.29 279.455 114.196C281.89 125.135 282.702 133.959 281.655 137.912C280.865 140.882 279.925 142.442 275.481 148.104C265.054 161.457 261.55 172.845 264.093 185.216C265.717 193.143 270.225 192.053 269.413 183.934C268.109 170.858 270.524 163.615 280.459 150.603C287.787 140.989 288.899 135.604 286.399 121.653C284.412 110.585 282.66 107.252 279.989 109.431Z" fill="black"/>
<path d="M289.733 111.951C288.878 112.549 288.686 112.934 288.664 113.895C288.664 114.835 288.6 114.771 290.844 116.758C293.194 118.831 293.493 120.882 291.741 123.232C290.16 125.347 290.138 127.014 291.655 127.933C295.224 130.026 299.753 123.189 298.087 118.254C296.698 114.173 291.805 110.477 289.733 111.951Z" fill="black"/>
<path d="M221.447 118.366C219.567 119.285 219.759 122.19 221.746 122.81C222.195 122.96 252.321 127.788 258.645 128.728C269.456 130.331 274.242 129.647 276.464 126.186C278.601 122.853 275.631 120.075 272.319 122.297C269.243 124.348 268.516 124.306 245.099 120.994C222.943 117.875 222.537 117.832 221.447 118.366Z" fill="black"/>
<path d="M91.4572 119.578C86.1371 121.159 80.4751 126.116 73.5098 135.325C72.762 136.329 71.3305 138.145 70.3477 139.363C66.8864 143.636 66.6728 146.648 69.7922 146.648C71.8647 146.648 73.638 145.025 79.7701 137.568C86.9917 128.765 89.7907 126.351 94.2775 124.983C96.2859 124.364 97.1405 123.83 97.4824 122.954C98.7002 119.92 95.7731 118.296 91.4572 119.578Z" fill="black"/>
<path d="M184.399 121.761C181.835 122.338 177.797 123.599 172.584 125.436C151.944 132.701 142.564 135.158 135.514 135.136C130.514 135.136 129.531 138.747 134.275 139.751C140.941 141.14 152.542 138.491 176.194 130.137C179.036 129.133 182.626 127.915 184.207 127.423C187.497 126.398 188.352 125.992 189.121 125.137C191.407 122.68 188.736 120.778 184.399 121.761Z" fill="black"/>
<path d="M200.66 126.777C198.908 127.525 198.737 129.555 200.232 131.969C205.531 140.601 222.645 158.548 238.242 171.881C252.899 184.401 259.394 188.119 259.394 183.974C259.394 182.115 257.771 180.341 250.442 174.124C230.892 157.587 217.56 144.404 206.428 130.644C203.224 126.67 202.326 126.072 200.66 126.777Z" fill="black"/>
<path d="M171.045 138.725C170.041 139.345 169.549 139.986 168.374 142.165C156.858 163.403 135.129 174.663 117.737 168.402C114.66 167.313 113.699 167.398 113.101 168.83C111.263 173.231 126.027 177.227 136.603 175.197C150.918 172.462 166.985 159.771 173.587 146.011C176.194 140.584 174.741 136.418 171.045 138.725Z" fill="black"/>
<path d="M19.5817 146.459C13.8129 147.207 11.1422 149.301 6.14258 156.907C-1.52778 168.637 -1.80553 176.115 5.39477 177.419C15.0094 179.171 36.2898 163.787 33.32 157.249C32.2517 154.92 29.8373 155.86 26.0983 160.048C20.8637 165.902 12.8515 170.817 7.70229 171.372C6.42033 171.5 6.42033 171.5 6.42033 170.923C6.42033 168.274 12.2105 157.997 15.629 154.578C18.0647 152.143 22.9148 151.737 41.0758 152.421C51.1605 152.805 52.4852 152.57 52.827 150.263C53.1262 148.276 51.9938 147.848 44.943 147.186C34.4524 146.224 23.8335 145.925 19.5817 146.459Z" fill="black"/>
<path d="M116.925 147.011C115.9 147.503 114.682 148.998 111.776 153.229C93.0596 180.599 72.7407 186.09 38.5766 173.014C29.5602 169.574 29.2825 169.51 28.2142 171.005C26.5049 173.398 27.68 174.467 35.4786 177.693C71.9715 192.799 96.4355 186.709 115.707 157.758C121.006 149.789 121.583 147.695 118.677 146.883C117.652 146.605 117.78 146.584 116.925 147.011Z" fill="black"/>
<path d="M141.219 155.517C138.442 156.927 137.715 158.338 138.997 159.855C140.749 161.927 146.368 159.491 146.368 156.65C146.368 154.363 144.36 153.915 141.219 155.517Z" fill="black"/>
<path d="M127.501 179.446C127.16 179.617 125.942 180.643 124.809 181.733C115.387 190.706 100.388 194.189 86.5644 190.664C83.7654 189.959 82.8467 190.194 82.5048 191.732C82.1416 193.377 83.0176 194.125 86.8421 195.343C103.294 200.599 122.63 195.642 130.065 184.275C132.223 180.963 130.557 177.844 127.501 179.446Z" fill="black"/>
</svg>
