<svg width="319" height="178" viewBox="0 0 319 178" fill="none" xmlns="http://www.w3.org/2000/svg">
<path fill-rule="evenodd" clip-rule="evenodd" d="M159.866 29.95C159.844 29.9736 159.822 29.9972 159.8 30.0206C159.744 30.0954 159.667 30.1701 159.587 30.2474C159.454 30.3771 159.313 30.514 159.25 30.6706C159.75 32.3206 162.6 34.6206 164.15 35.2706C164.527 35.3733 164.833 34.9605 165.117 34.5776C165.248 34.4011 165.374 34.231 165.5 34.1206C166.693 32.7025 167.864 31.2636 169.042 29.8173L169.042 29.8172C169.691 29.0198 170.343 28.2202 171 27.4206C171.304 27.0225 171.613 26.6231 171.923 26.2217C174.921 22.338 178.062 18.2695 179.15 13.4206C179.8 10.5706 178.65 7.67064 176.6 5.67064C174.45 3.52064 171.75 1.32064 168.5 1.47064C165.94 1.61902 163.656 3.11594 162.014 5.10384C160.974 3.72896 159.549 2.61764 158.1 1.72059C153.75 -1.12941 147.15 0.220593 145.2 5.27059C143.389 10.508 147.904 14.4738 151.834 17.9252C152.894 18.8561 153.911 19.7497 154.75 20.6206C155.9 21.7206 157 22.9206 157.85 24.2206C158.55 25.3206 159.15 26.4706 159.5 27.7706C159.642 28.1973 159.694 28.6487 159.745 29.0981C159.778 29.3852 159.81 29.6715 159.866 29.95ZM161.207 6.19763C161.06 5.95332 160.935 5.69503 160.811 5.43645C160.597 4.99217 160.382 4.54705 160.05 4.17059C156.85 2.17059 152.1 3.6706 150 6.6206C148 9.2206 148.3 13.0706 150.65 15.3706C151.727 16.4478 152.873 17.4563 154.022 18.4674C155.273 19.5681 156.527 20.6718 157.7 21.8706C159.272 23.4929 161.049 25.3336 162.426 27.3667C162.611 27.1849 162.798 27.0006 162.989 26.8138L162.989 26.8135C168.717 21.1913 176.713 13.3431 175.1 6.52064L175.07 6.41533C174.979 6.0924 174.88 5.74093 174.7 5.47064C173.65 5.02064 172.4 5.07065 171.35 5.32065C168.05 6.22065 165.4 8.82064 163.75 11.7206C163.702 11.8176 163.647 11.9184 163.592 12.0222C163.36 12.4534 163.1 12.937 163.1 13.4206C162.75 13.9206 160.6 11.9206 160.3 11.5206C159.143 10.456 159.871 8.8343 160.422 7.60761C160.466 7.50925 160.509 7.41343 160.55 7.32065C160.747 6.93921 160.967 6.56343 161.207 6.19763ZM123.252 27.5025C123.319 27.9002 123.385 28.2902 123.45 28.6708C123.778 31.4059 124.193 34.275 124.605 37.1316L124.605 37.1318C125.135 40.8027 125.663 44.4528 126 47.7708C127.8 47.1208 129.7 45.7208 130.45 44.0208C130.526 43.1504 130.43 42.2513 130.335 41.367L130.335 41.3655L130.335 41.3641L130.335 41.3626L130.334 41.3613L130.334 41.36C130.304 41.0783 130.274 40.7981 130.25 40.5208C129.975 38.3958 129.725 36.2583 129.475 34.1208C129.225 31.9833 128.975 29.8458 128.7 27.7208C127.75 20.7708 126.6 13.3708 122.45 7.57078C120.1 5.62078 116.3 10.0208 115.2 11.9208C113.63 15.4723 113.15 19.3313 112.673 23.1634V23.1635C112.512 24.4566 112.352 25.7466 112.15 27.0208C111.716 28.6267 112.751 27.9343 113.556 27.3966L113.556 27.3965C113.678 27.3148 113.795 27.2367 113.9 27.1708C115.5 26.1208 116.75 24.7708 116.65 22.7708C116.781 21.7899 116.895 20.8091 117.008 19.8292L117.008 19.8291L117.008 19.8289L117.008 19.8288L117.008 19.8287L117.008 19.8286L117.008 19.8284C117.329 17.062 117.649 14.3028 118.35 11.5708C121.191 15.2965 122.34 22.1019 123.252 27.5025ZM77.6 29.1705C76.9 24.6705 79.8 20.6205 83.65 18.5205C89.65 15.8205 99.9 23.9205 104.25 27.8705C110.7 34.2205 115.45 42.1205 118.9 50.4205C119.162 51.1908 119.482 51.9825 119.805 52.7809L119.805 52.7822L119.805 52.7823L119.805 52.7825L119.805 52.7826C121.387 56.7002 123.034 60.7787 118.3 63.2705C118.239 63.295 118.159 63.3436 118.071 63.3977L118.071 63.3978C117.798 63.5646 117.439 63.7847 117.25 63.5205C117.905 62.1334 117.313 60.6276 116.755 59.2089C116.589 58.7865 116.426 58.372 116.3 57.9705C109.75 42.8705 99.2 26.5705 82.4 22.0705C81.3344 29.9986 87.645 41.7418 92.194 50.207L92.1944 50.2079C92.9815 51.6725 93.7158 53.0389 94.35 54.2705C96.6912 58.2325 99.3162 62.0729 101.933 65.9012L101.933 65.9016L101.933 65.9017C102.222 66.3248 102.511 66.7477 102.8 67.1705C103.75 68.2205 99.75 71.0205 98.75 71.3705C91.1 61.9705 79.7 41.1705 77.6 29.1705ZM31.65 128.321C38.05 103.871 59.75 79.9208 86 77.8708C86.2311 77.8676 86.4637 77.8641 86.6976 77.8605H86.6978C90.16 77.8074 93.9121 77.7499 97.05 78.9208C96.3 80.6208 94.55 81.9708 92.9 82.7708C85.75 80.9708 78 82.0708 71 84.2708C48.75 91.0208 34.05 118.621 35.5 140.971C36.65 155.521 45.05 167.321 60.8 165.971C64.6749 165.937 68.5036 165.51 72.3332 165.083L72.3335 165.083L72.3346 165.083C74.1379 164.882 75.9414 164.681 77.75 164.521C79.2554 164.342 80.7901 164.229 82.3316 164.115C86.8318 163.782 91.3906 163.445 95.45 161.471C97.6 159.571 97.15 155.621 96.25 153.121C94.2962 148.714 89.543 147.557 85.151 146.487C84.2604 146.27 83.3846 146.057 82.55 145.821C82.3671 145.739 82.1346 145.708 81.8962 145.675C81.5481 145.628 81.1874 145.579 80.95 145.371C81.211 144.457 82.0018 143.733 82.7299 143.066L82.7317 143.065L82.8597 142.947L82.9423 142.871C82.9785 142.838 83.0145 142.804 83.05 142.771C83.7 142.171 84.4501 141.671 85.3501 142.071C88.5 142.821 91.65 143.671 94.7 144.821C106.05 150.021 100.1 162.421 90.9 166.171C86.9347 167.764 82.6672 168.177 78.403 168.589L78.4024 168.589C76.9135 168.733 75.4251 168.877 73.95 169.071C72.2388 169.249 70.5276 169.455 68.8151 169.66L68.8142 169.66L68.8133 169.66L68.8123 169.66L68.8114 169.66L68.8105 169.66L68.8096 169.661L68.8087 169.661L68.8078 169.661L68.8069 169.661L68.8056 169.661L68.8043 169.661H68.8042H68.804H68.8038H68.8037H68.8035H68.8034H68.8032H68.803H68.8029H68.8027H68.8026C64.7648 170.145 60.7197 170.63 56.65 170.771C55.65 170.871 54.7 170.921 53.8 170.921C32.6 170.921 26.85 145.971 31.65 128.321ZM112.488 158.548L112.488 158.548L112.489 158.549L112.489 158.55L112.489 158.55C112.83 159.188 113.226 159.931 113.65 160.821C115.25 164.971 118.85 167.921 122.8 167.921C124.6 167.921 126.4 167.321 128.15 165.971C134.45 162.021 136.9 155.321 136.7 148.171C136.75 140.321 136.2 132.471 135.65 124.671C135.506 123.439 135.434 122.167 135.361 120.888V120.888C135.206 118.168 135.05 115.419 134.2 112.971C132.85 113.321 130.1 115.471 129.95 116.871C130.85 121.73 131.076 126.873 131.3 131.967L131.3 131.969C131.387 133.95 131.474 135.924 131.6 137.871C131.577 139.58 131.659 141.534 131.746 143.601C132.033 150.422 132.373 158.49 129.15 163.171C122.676 164.642 119.185 157.792 116.695 152.905L116.55 152.621C116.451 152.448 116.38 152.253 116.312 152.07C116.107 151.511 115.94 151.056 115.15 151.621C110.482 154.788 110.782 155.35 112.488 158.548ZM4.95005 162.12C4.6324 161.894 4.2571 161.66 3.85823 161.412C2.0596 160.293 -0.218272 158.876 0.150047 156.42C0.755918 152.006 4.77038 149.203 8.33543 146.713L8.33628 146.712L8.33748 146.712L8.33895 146.711L8.34089 146.709C8.89288 146.324 9.43404 145.946 9.95005 145.57C10.5167 145.337 10.6 144.97 10.2 144.47C9.73055 143.859 9.10721 143.263 8.46827 142.653C6.86173 141.118 5.15654 139.488 5.55005 137.27C8.60005 130.97 17.4 129.42 23.25 132.52C23.85 133.42 17.8 138.92 18 137.02C16.15 135.87 13.75 135.72 11.6 135.77C12.258 136.464 12.8828 137.048 13.4375 137.567C16.0022 139.966 17.0698 140.965 13 144.87C11.3644 146.543 9.42485 147.884 7.48945 149.223L7.48896 149.223C6.82127 149.685 6.15408 150.146 5.50005 150.62C3.95005 154.27 8.45005 156.17 11.25 156.92C13.05 157.42 7.80005 161.92 6.95005 162.22C2.30005 165.97 5.90004 170.47 10.95 170.62C13.949 170.818 16.9168 170.205 19.878 169.594L19.8788 169.594C20.6695 169.431 21.4598 169.268 22.25 169.12C22.8555 169.031 23.471 168.851 24.0876 168.67C24.8458 168.448 25.6055 168.226 26.35 168.17C26.1324 169.825 24.323 171.327 22.9346 172.48L22.9345 172.48L22.9342 172.48L22.9335 172.481C22.7276 172.652 22.5309 172.815 22.35 172.97C18.6178 174.679 14.3193 175.134 10.1821 175.572C9.71903 175.621 9.25802 175.67 8.80005 175.72C-2.19995 175.52 -1.49995 168.72 4.95005 162.12ZM133.8 95.4708C132.8 94.8208 127.35 99.6208 129 99.8708C130.048 99.9301 131.105 100.036 132.166 100.143L132.166 100.143L132.166 100.143L132.167 100.143L132.167 100.143L132.167 100.143L132.168 100.143L132.168 100.143L132.168 100.144C133.788 100.307 135.419 100.471 137.05 100.471C139.05 100.471 141 100.221 142.9 99.3708C148.55 96.5208 153.95 91.4208 155.05 84.9208C156.35 76.5708 153.1 67.7208 147.35 61.6208C147.042 61.3521 146.719 61.0359 146.383 60.7057L146.382 60.7049L146.382 60.7047L146.381 60.7045C145.027 59.3757 143.442 57.8204 141.6 58.2208C139.049 59.7962 139.425 60.1616 140.532 61.238C140.901 61.5964 141.35 62.0337 141.8 62.6208C147.6 69.1208 151.35 77.8708 150.5 86.6708C149.633 96.7255 144.409 96.2993 137.236 95.7143C136.134 95.6244 134.986 95.5307 133.8 95.4708ZM192.95 47.6206C190 46.4206 190 44.5705 190.15 41.7705L190.15 41.7496C190.25 35.2064 190.352 28.5637 191.85 22.1705C192.9 17.7205 196.95 6.82054 203 10.7205C207.45 13.1705 208.55 18.2206 209 22.8706C208.986 23.0413 209.077 23.548 209.188 24.1661L209.188 24.1663C209.467 25.7205 209.873 27.9787 209.05 27.3706C207.7 26.6206 205.9 25.5705 205.55 24.0205C205.15 20.6705 204.7 17.2706 203.8 14.0706C197.106 20.1168 195.852 29.1681 194.649 37.8494C194.181 41.2289 193.721 44.5523 192.95 47.6206ZM215.75 69.0705C214.4 70.0205 219.25 73.2705 220.2 73.5205C231.75 64.4205 244.1 46.0705 246.8 31.4705C248.1 25.7705 246.4 20.2705 240.7 17.9705C235.4 16.6205 229.95 19.5205 225.7 22.4205C214.8 30.9205 207.95 43.4705 202.25 55.8205C202.075 56.3643 201.821 56.9704 201.555 57.6047C200.452 60.236 199.146 63.3521 202.45 64.5205C203.15 62.5205 204.15 60.1205 205.3 58.1205C205.879 57.1877 206.477 56.2148 207.093 55.2111L207.095 55.2086L207.095 55.2083C215.368 41.7396 227.04 22.7351 243 20.9205C246.9 32.5205 234.4 49.4205 227.25 58.0205C224.556 60.9759 221.639 63.6514 218.707 66.3402L218.706 66.3414L218.706 66.3415L218.706 66.3416L218.705 66.3417L218.705 66.3418L218.705 66.3419C217.719 67.2462 216.731 68.152 215.75 69.0705ZM194.25 167.871C189.95 167.171 186.2 163.621 184.3 159.821C182.351 154.561 183.378 147.65 184.315 141.339C184.653 139.071 184.978 136.88 185.15 134.871L185.231 134.315C186.304 126.945 187.39 119.488 189 112.221C188.9 110.571 193.7 114.471 192.9 114.821C190.8 126.771 189.4 138.871 188.3 150.971C188.274 151.515 188.241 152.065 188.209 152.617V152.618V152.618V152.618C187.988 156.328 187.759 160.176 189.5 163.571C191.881 164.695 196.098 160.79 199.578 157.567L199.579 157.567C201.361 155.917 202.95 154.446 204 153.921C204.95 154.171 209.8 157.271 208.45 158.221C207.201 159.185 205.993 160.343 204.768 161.518L204.768 161.518C201.675 164.482 198.476 167.548 194.25 167.871ZM233.1 167.371C239.45 170.971 247 171.671 254.2 171.971C260.6 172.071 267.5 171.121 272.6 166.921C279.25 161.321 283.15 153.071 286.3 145.121C289.4 135.421 286.45 124.821 282.75 115.671C277 103.721 268.05 93.2208 256.75 86.1208C248.3 80.9208 238.1 76.6208 228.05 78.8708C226.6 79.2208 225.05 79.7208 223.75 80.1708C223.85 81.0708 227.5 84.3208 228.35 83.7208C240.95 79.3208 255.45 85.5208 264.8 94.2708C269.95 99.6208 274.15 105.921 277.1 112.721C282.4 126.421 283.6 137.171 275.7 150.121C268.85 162.771 260.25 167.221 245.95 166.221C241.65 165.921 237.3 165.371 233.15 164.171C232.827 164.026 232.426 163.912 232.011 163.794C231.14 163.546 230.206 163.28 229.8 162.671C225.8 156.171 231.9 148.871 238.4 147.471C240.789 146.788 243.274 146.391 245.714 146.001L245.715 146L245.9 145.971C245.974 145.49 245.528 145.037 245.129 144.631L245.129 144.631C244.989 144.488 244.854 144.351 244.75 144.221C244.568 144.06 244.381 143.887 244.189 143.709C243.069 142.669 241.787 141.479 240.25 141.821C239.911 141.847 239.571 141.873 239.231 141.898C235.707 142.16 232.137 142.425 228.9 144.021C225.75 145.571 223.3 148.671 222.65 152.121C221.6 158.971 227.95 164.121 233.1 167.371ZM308.85 177.021C301.75 176.871 295.4 169.721 291 164.671C288.9 161.071 295.9 166.771 296.2 167.621C297.85 169.521 299.7 171.371 302.3 171.721C306.75 173.021 316.05 170.721 312.8 164.571C312.091 163.862 311.144 163.464 310.185 163.061C309.182 162.64 308.167 162.213 307.4 161.421C307.324 161.35 307.203 161.247 307.054 161.118C305.929 160.15 303.178 157.782 305.65 157.871C305.73 157.861 305.81 157.851 305.89 157.842C305.94 157.836 305.99 157.83 306.04 157.824L306.28 157.796C308.127 157.581 309.989 157.363 311.65 156.421C314.35 155.071 314.55 151.221 312.25 149.371C311.676 148.948 310.956 148.78 310.245 148.615C309.778 148.506 309.316 148.399 308.9 148.221C307.15 147.421 305.6 146.171 304.35 144.721C303.56 143.859 304.395 143.435 305.169 143.043C305.473 142.889 305.767 142.74 305.95 142.571C307.65 141.521 309.25 140.271 310.65 138.821C311.1 138.421 313.15 135.621 312.3 135.521C309.6 134.971 302.75 135.571 301.65 138.271C292.6 134.321 303.55 130.821 308.1 131.771C310.75 132.021 313.2 133.321 315.2 135.071C320.8 139.071 315.05 144.371 311.15 146.971C317.75 151.371 323.85 159.371 312.5 162.371C320.9 168.571 320 176.371 308.85 177.021ZM196.789 103.286C197.06 103.297 197.33 103.309 197.6 103.321C199.3 103.021 193.55 98.7708 192.6 98.7708C191.78 98.723 190.95 98.6892 190.115 98.6552L190.114 98.6551C185.706 98.4756 181.167 98.2907 177.3 96.0208C170.25 88.5708 172.5 79.6708 176.3 71.3208C178.1 67.3708 180.35 63.6208 182.95 60.1708C183.071 60.0219 183.192 59.868 183.315 59.7119C184.061 58.7672 184.87 57.7428 185.9 57.2708C185.361 56.0946 184.101 55.3508 183.016 54.7096L182.95 54.6708C181.137 53.6816 179.561 55.4444 178.279 56.8785L178.279 56.8787L178.279 56.8789C178.006 57.1844 177.746 57.4749 177.5 57.7208C172.5 64.1208 167.4 73.5708 167.35 81.8708C168.15 92.2708 177.85 99.9208 187.4 102.371C190.484 103.015 193.653 103.151 196.789 103.286Z" fill="black"/>
</svg>
