<svg width="222" height="253" viewBox="0 0 222 253" fill="none" xmlns="http://www.w3.org/2000/svg">
<path fill-rule="evenodd" clip-rule="evenodd" d="M149.038 10.5997C149.806 11.8072 151.343 12.6306 152.66 13.1246C152.979 13.1246 153.186 12.8478 153.401 12.5617C153.556 12.3543 153.715 12.1421 153.923 12.0268C156.009 9.94103 159.027 9.61169 161.772 9.77636C160.18 7.36126 156.832 6.81238 154.197 7.41615C154.217 7.3222 154.237 7.22711 154.257 7.13106C154.579 5.59971 154.953 3.82553 153.868 2.58595C152.605 1.3784 151.069 0.170854 149.312 0.00618744C147.226 0.225743 145.415 1.54307 143.768 2.75062C142.945 3.35439 135.755 9.39214 137.456 9.88614C137.548 9.95522 137.671 10.0543 137.814 10.1709C138.698 10.888 140.395 12.2652 140.914 11.3681C143.714 8.18459 146.842 5.22061 150.63 3.35439C150.42 4.70141 150.096 6.01578 149.774 7.3242C149.505 8.415 149.237 9.50167 149.038 10.5997ZM101.175 14.9359C99.4184 13.2892 96.9484 11.423 94.4235 12.3561C91.24 13.2344 82.7323 20.0405 89.1543 21.9616C89.3938 21.9217 89.1107 21.7366 88.8962 21.5964C88.8158 21.5439 88.7451 21.4976 88.7151 21.4676C88.5505 17.6803 94.9724 13.6186 98.4304 13.6186C98.5794 13.741 98.729 13.8655 98.8795 13.9908C100.281 15.1571 101.761 16.3896 103.645 16.6374C105.493 16.6144 107.204 15.7553 108.911 14.8989C111.26 13.7202 113.599 12.5464 116.269 13.5637C117.344 14.0476 118.156 14.9001 118.969 15.7537C119.817 16.643 120.665 17.5336 121.813 18.0097C122.362 18.339 123.405 18.6134 122.472 17.7352C118.904 14.0577 113.689 9.83126 108.31 12.1366C107.427 12.4376 106.596 12.9073 105.765 13.3767C104.322 14.1915 102.881 15.0055 101.175 14.9359ZM111.329 33.2687C108.969 32.2258 106.938 30.634 105.017 29.0423C103.255 29.7417 101.793 30.5829 100.49 31.3324C96.4769 33.6413 93.9766 35.0798 88.8798 28.8227C87.6723 27.1212 90.0324 28.4934 90.6362 28.8776C91.1632 29.185 91.6902 29.6681 92.1328 30.0738C92.2434 30.1752 92.3488 30.2718 92.4476 30.3596C93.9357 30.0162 95.2711 29.0711 96.601 28.1299C98.4595 26.8146 100.307 25.5068 102.547 25.8587C104.785 26.5759 106.034 27.8781 107.06 28.9479C108.625 30.58 109.672 31.6708 112.921 29.3167C113.489 28.9022 113.965 28.5216 114.381 28.189L114.381 28.1889L114.381 28.1887L114.381 28.1886C116.499 26.4956 117.065 26.0433 120.276 28.6581C121.889 29.8676 121.488 30.0998 120.596 30.6164C120.273 30.8032 119.886 31.027 119.508 31.3476C117.861 32.61 115.83 33.9274 113.744 33.9274C112.921 33.9274 112.153 33.7078 111.329 33.2687ZM129.475 39.8971C129.295 40.0696 129.119 40.2385 128.948 40.4042C129.717 41.7764 131.418 42.6547 132.846 43.2584C138.883 38.8674 139.322 33.8725 132.022 30.4694C130.266 29.5912 128.18 29.2618 126.259 29.8107C125.106 30.0303 123.35 31.2378 124.887 32.2258C127.846 34.5377 128.04 34.3178 128.585 33.6989C128.687 33.5831 128.801 33.4534 128.948 33.3236C129.497 32.7747 130.54 32.2807 133.175 32.5552C133.981 35.5798 131.501 37.9562 129.475 39.8971ZM155.786 94.4455C154.049 93.7165 149.904 91.9781 153.758 94.9635C155.319 96.095 157.129 96.7828 158.913 97.4605L158.913 97.4606C159.639 97.7362 160.36 98.0102 161.058 98.3118C162.87 97.9824 156.557 94.5244 155.844 94.4696L155.786 94.4455ZM158.259 107.478C153.594 105.502 149.532 102.428 145.525 99.2997C145.304 99.0942 145.009 98.8933 144.703 98.6837C143.945 98.1658 143.11 97.5955 143.11 96.7748C146.152 97.6894 148.23 99.3337 150.15 100.853C153.876 103.803 157.009 106.282 165.45 102.044C166.507 101.199 167.726 101.949 168.808 102.614C169.131 102.812 169.441 103.003 169.731 103.142C169.851 103.224 169.972 103.306 170.096 103.389C171.215 104.144 172.447 104.974 173.189 106.161C173.266 106.625 172.716 106.817 172.23 106.986L172.23 106.986C172.027 107.056 171.836 107.123 171.707 107.204C169.401 108.247 166.931 108.795 164.462 108.795C162.376 108.795 160.235 108.411 158.259 107.478ZM207.988 146.723C205.628 145.296 203.652 143.265 202.719 140.631C202.508 140.332 202.151 139.295 201.728 138.07L201.728 138.069L201.727 138.068L201.727 138.068C200.831 135.467 199.64 132.014 198.932 132.946C197.604 133.62 196.377 134.515 195.147 135.413L195.146 135.413C192.968 137.002 190.78 138.598 188.009 138.984C183.563 139.698 179.281 137.118 176.317 133.989C173.165 129.907 172.446 124.511 171.777 119.497L171.777 119.496L171.776 119.494C171.735 119.183 171.694 118.873 171.652 118.566C171.666 117.86 171.564 117.107 171.473 116.433C171.209 114.489 171.036 113.21 174.012 115.656C174.867 116.227 174.867 117.375 174.866 118.516C174.866 119.133 174.865 119.747 175 120.267C175.714 125.372 176.592 130.751 179.391 135.142C182.465 137.283 186.801 135.087 189.381 133.001C189.969 132.601 190.563 132.099 191.172 131.585C193.064 129.988 195.096 128.274 197.504 129.104C202.829 131.135 204.969 136.569 206.726 141.509C206.883 141.824 207.004 142.194 207.121 142.555C207.291 143.075 207.455 143.578 207.714 143.869C208.72 143.366 209.374 142.447 209.993 141.577C210.185 141.307 210.373 141.042 210.568 140.795C212.379 141.344 214.355 142.607 215.288 144.253C214.355 146.339 212.654 147.766 210.788 147.766C209.854 147.766 208.921 147.437 207.988 146.723ZM137.182 23.8828C136.961 23.197 136.57 22.5914 136.182 21.9907C135.608 21.1008 135.041 20.2215 135.041 19.1075C134.767 18.7232 133.888 18.7232 133.175 18.7781H132.352C132.022 18.7781 130.87 18.1744 130.046 17.5157C129.168 16.8021 128.619 16.1435 129.662 16.2532C133.23 16.1984 137.731 18.2841 138.609 21.9617C138.69 22.8046 139.176 23.4994 139.666 24.1995C140.164 24.9126 140.666 25.6311 140.75 26.5174C140.75 27.231 140.64 28.9874 139.926 29.207C136.328 27.3891 136.465 27.0256 136.848 26.0149C137.031 25.5303 137.271 24.8968 137.182 23.8828ZM21.8609 169.118C20.9278 168.569 19.1713 167.032 21.0376 166.538C23.5624 165.55 26.0873 164.617 28.6671 163.794C30.7528 163.519 32.8935 165.441 34.2108 166.923C34.2657 167.087 34.2108 167.142 34.0462 167.142C33.1241 167.34 32.2019 167.656 31.2798 167.972C30.6651 168.183 30.0503 168.394 29.4355 168.569C31.0543 168.613 32.6809 168.685 34.3101 168.757C38.7578 168.953 43.2248 169.15 47.6036 168.789C47.5708 168.764 47.4779 168.705 47.3477 168.623C46.6065 168.152 44.6555 166.914 45.6825 166.868C46.4942 166.857 47.3869 166.782 48.3136 166.705L48.3141 166.705C51.9627 166.402 56.1393 166.055 57.9776 169.338C57.5908 169.514 57.1994 169.677 56.8039 169.827C59.4719 171.26 60.2512 174.857 59.9534 177.735C59.0162 180.636 56.2285 182.195 53.6259 183.649L53.6253 183.65L53.6246 183.65L53.6239 183.65L53.6234 183.651L53.6229 183.651L53.6223 183.651L53.6217 183.652L53.621 183.652L53.6204 183.652L53.6198 183.653L53.6192 183.653L53.6185 183.654L53.6179 183.654L53.6173 183.654L53.6166 183.655L53.616 183.655L53.6154 183.655L53.6153 183.655L53.6148 183.656C53.0202 183.988 52.4355 184.315 51.8848 184.651C49.9637 185.804 47.8231 186.243 45.6824 186.243C44.2113 186.243 42.7176 186.028 41.2423 185.685C41.2905 185.701 41.3433 185.723 41.4011 185.749C41.5644 185.831 41.7412 185.916 41.927 186.006L41.9282 186.007C42.9191 186.486 44.1669 187.088 44.9987 187.905C45.3307 188.174 45.6199 188.423 45.8293 188.603L45.9569 188.713C47.4893 190.419 47.3159 193.481 47.1376 196.63C46.9773 199.459 46.813 202.359 47.878 204.411C48.0089 204.394 48.1359 204.377 48.2593 204.361C51.0631 203.99 52.0114 203.864 54.1786 205.637C57.7913 204.257 61.791 203.604 65.6883 203.506C65.1477 202.131 64.1842 200.952 63.1919 199.801C59.9262 196.349 61.7977 193.142 63.7806 189.743C65.8969 186.116 68.1401 182.271 64.3995 177.681C63.4664 176.308 66.2657 178.12 66.4853 178.449C67.0184 178.982 67.4195 179.674 67.8168 180.359L67.8169 180.359L67.817 180.36C67.9922 180.662 68.1667 180.963 68.3515 181.248C70.2946 184.69 68.4474 187.908 66.6436 191.05C64.8806 194.121 63.159 197.119 65.0582 200.185C65.1919 200.347 65.3279 200.51 65.4651 200.675L65.4653 200.675C66.2111 201.57 66.9924 202.508 67.6395 203.503C67.9513 203.509 68.2619 203.52 68.571 203.533C68.7427 203.562 68.631 203.456 68.4925 203.325C68.3653 203.205 68.2153 203.063 68.2416 202.984C68.1578 202.733 68.3622 202.769 68.5368 202.801C68.5908 202.81 68.6419 202.82 68.6808 202.82C69.0216 202.913 69.3638 203.004 69.706 203.096L69.7063 203.096C71.5686 203.591 73.4336 204.088 75.1027 205.015C84.818 210.998 74.3343 214.346 67.6927 214.346C66.9975 214.346 66.3571 214.31 65.7716 214.236C63.7957 214.127 61.7648 213.852 59.8986 213.248C58.0832 212.712 53.4767 210.47 52.7461 208.154C52.5281 208.167 52.3133 208.181 52.1045 208.199C51.2066 208.09 50.329 207.839 49.4874 207.479C45.2758 206.96 40.9458 207.242 36.7042 207.519L36.6977 207.519L36.6923 207.52L36.6877 207.52L36.6827 207.52L36.6786 207.52L36.6754 207.521C36.2922 207.546 35.9097 207.571 35.528 207.595C34.8145 207.705 34.101 207.595 33.4972 207.156C33.4428 207.12 33.3633 207.069 33.2654 207.006C32.4734 206.5 30.4838 205.229 30.9723 204.741C31.7407 204.686 32.619 204.686 33.3874 204.686H35.8574C38.5864 204.66 42.3701 204.647 45.7603 205.008C44.7897 204.11 43.9436 203.094 43.2674 202.051C43.1202 201.781 42.9884 201.508 42.8706 201.233C41.7703 202.359 40.3597 203.223 38.6018 203.698C36.8453 202.984 34.7596 201.887 33.7716 200.24C36.2416 198.923 38.8762 197.331 39.974 194.586C40.9521 192.288 40.8844 189.771 40.8192 187.348C40.8112 187.051 40.8033 186.756 40.7973 186.463L40.796 186.45C40.7519 186.009 40.7117 185.607 41.0763 185.646C39.361 185.236 37.6729 184.657 36.0769 184.048C29.3805 181.633 24.7699 178.449 23.3428 171.094C23.3149 170.983 23.286 170.873 23.258 170.767C23.1698 170.433 23.0909 170.135 23.0853 169.928C22.6669 169.691 22.2584 169.422 21.8609 169.118ZM66.0748 206.148C66.0216 206.748 65.9086 207.208 65.8163 207.585C65.5114 208.828 65.4305 209.157 68.4612 210.559C68.4612 210.596 68.4795 210.614 68.5161 210.614C68.7422 210.614 68.8131 210.045 68.8708 209.582C68.8972 209.37 68.9208 209.18 68.9553 209.077C69.2236 207.932 69.1246 206.857 68.7971 205.841C69.1003 205.847 69.4104 205.85 69.7247 205.853H69.726H69.7279C71.834 205.873 74.1338 205.895 75.8712 206.881C76.2005 208.473 74.8283 209.79 73.4561 210.339C68.0221 212.37 61.655 212.315 56.1662 210.449C55.1752 207.476 61.9296 206.6 66.0748 206.148ZM25.1793 170.845C25.2239 170.922 25.2539 171.004 25.2639 171.094C26.9654 177.9 28.6121 180.974 35.6927 182.895C40.5229 184.761 46.0118 184.981 50.4577 181.907C50.7632 181.711 51.0792 181.514 51.3999 181.315C53.5002 180.01 55.803 178.579 56.6601 176.199C57.2865 175.008 56.5367 172.728 56.012 171.132C55.8975 170.784 55.7938 170.468 55.7174 170.204C51.4431 171.558 46.7499 171.588 42.2051 171.616C41.3079 171.622 40.4164 171.627 39.535 171.643C37.8467 171.48 36.1583 171.532 34.4163 171.587L34.3755 171.588C33.3875 171.625 32.4178 171.643 31.4664 171.643C29.2908 171.643 27.1586 171.491 25.1793 170.845ZM2.64974 207.65C4.90017 210.778 8.90702 211.821 12.4748 212.7C15.6583 213.413 19.0065 214.017 22.3547 214.017C24.0563 214.017 25.7579 213.852 27.4594 213.468C27.7427 213.416 28.0756 213.342 28.4331 213.248C28.6569 213.445 28.8815 213.621 29.0705 213.769L29.1062 213.797C32.9745 216.784 38.0222 216.844 42.7296 216.901H42.7301H42.7307H42.7313H42.7319H42.7324H42.733H42.7335H42.7341H42.7346H42.7351H42.7356H42.7361H42.7366H42.7371C43.3039 216.907 43.8658 216.914 44.4201 216.926C49.2234 216.708 53.1931 216.472 55.296 215.78C55.2463 216.274 55.2784 216.822 55.3108 217.378C55.35 218.049 55.3898 218.73 55.288 219.341C55.1913 221.952 53.9497 223.882 52.118 225.269C51.1671 223.682 49.5189 222.173 47.7682 221.537C45.1884 223.348 43.4868 223.238 40.6875 222.031C40.5229 222.031 40.2484 222.086 39.974 222.195C39.9364 222.208 39.8996 222.22 39.8637 222.233C39.5849 222.327 39.3639 222.402 39.3153 222.305C40.1386 221.152 35.2535 216.816 34.7047 217.694C33.8264 222.086 38.2724 226.037 42.2244 226.861C42.6691 226.95 43.0779 226.859 43.5089 226.762C43.6099 226.74 43.712 226.717 43.8162 226.696C44.5297 226.477 45.1884 226.312 45.9019 226.751C46.505 227.103 47.246 227.271 48.0408 227.296C45.2085 228.2 42.0347 228.451 39.48 228.288C35.0341 228.014 32.5092 222.964 32.125 219.012C32.5641 218.463 29.0512 215.993 28.8866 216.816C29.6001 224.446 37.0649 230.813 44.5847 230.978C52.9826 230.484 61.1611 227.629 59.0753 217.64C58.2016 216.766 57.2124 215.931 56.0754 215.457C58.2055 214.318 56.5455 212.203 48.427 207.979C43.0888 206.996 37.1915 207.331 31.8935 209.018C31.8622 208.983 31.8295 208.948 31.7956 208.912C31.1918 207.924 24.1661 203.917 27.6241 206.991C28.0422 207.345 28.517 207.567 28.993 207.789L28.9933 207.79C29.3295 207.947 29.6663 208.104 29.9843 208.308C29.9843 208.996 29.7177 209.544 29.2775 209.984L29.2159 210.01C28.9172 210.309 28.5421 210.557 28.1082 210.771C26.7047 211.437 24.784 211.696 23.3234 211.894L23.3228 211.894L23.3218 211.894L23.3202 211.895C22.9439 211.946 22.5982 211.992 22.2999 212.041C17.3599 212.37 12.3101 211.492 7.53481 210.065C1.71661 208.748 6.87617 205.948 9.89504 205.509C10.6752 205.397 11.4677 205.3 12.2673 205.224C13.0694 205.91 14.0711 206.405 15.1096 206.717C15.1462 206.753 15.201 206.772 15.2742 206.772C15.3291 206.772 15.384 206.717 15.384 206.662C15.309 206.412 15.2113 206.162 15.1115 205.907L15.1114 205.907C15.0045 205.633 14.8954 205.354 14.8093 205.063C16.5461 205.011 18.2906 205.088 19.9913 205.351C19.8561 205.722 19.7268 206.103 19.6104 206.497C19.6104 208.912 21.6962 210.888 23.8918 211.602H24.0015C24.2249 211.602 23.9994 211.164 23.7157 210.614C23.372 209.947 22.9429 209.114 23.1233 208.693C23.2729 207.889 23.5689 207.117 23.89 206.348C24.9575 206.745 25.9878 207.246 26.9654 207.869C28.1181 208.034 26.8007 207.046 25.0992 206.058C24.8165 205.883 24.5235 205.709 24.2308 205.542C24.7441 204.322 25.2135 203.086 25.1542 201.722C25.1459 201.643 25.1379 201.563 25.1298 201.482C25.0311 200.492 24.919 199.367 24.0564 198.758C23.9471 198.676 23.836 198.591 23.7231 198.504C22.9296 197.893 22.0467 197.214 21.0376 197.166C22.1194 199.811 21.3878 201.782 20.5296 203.957C19.2221 203.612 17.0135 203.321 14.5827 203.219C14.4705 200.996 14.8651 198.714 15.6035 196.672C16.0259 195.52 16.9857 194.825 17.9376 194.135C18.3464 193.839 18.7537 193.544 19.1164 193.214C21.5315 191.238 22.1902 187.835 20.818 185.036C20.5123 184.381 20.2094 183.799 19.934 183.271C18.4789 180.478 17.7929 179.161 21.5315 176.254C23.0135 175.705 17.854 173.125 17.1953 173.125C16.3804 173.168 15.8001 173.881 15.271 174.531C15.123 174.713 14.9791 174.89 14.8351 175.046C13.0035 177.003 14.1079 178.896 15.2034 180.774C15.5524 181.372 15.9005 181.969 16.1524 182.566C17.6893 185.365 17.0855 188.933 14.4509 190.799C14.1619 191.052 13.8432 191.287 13.5222 191.524C12.8676 192.006 12.2033 192.496 11.7613 193.159C10.2793 195.849 10.1696 199.252 10.5538 202.216C10.6035 202.573 10.6922 202.909 10.8143 203.226C6.07921 203.459 1.78529 204.624 2.64974 207.65ZM43.5967 214.401C39.3703 214.566 35.089 214.511 30.9723 213.578C34.7048 210.614 42.005 209.845 47.2194 209.845C47.6951 209.845 48.1525 209.864 48.5916 209.9C49.5247 209.791 50.1285 210.285 50.7871 210.888C51.6105 211.492 52.5985 211.876 53.5316 212.206C53.1743 213.813 48.129 214.113 45.1968 214.287C44.5254 214.327 43.9649 214.36 43.5967 214.401ZM7.04091 215.883C7.48002 220.933 11.5418 225.05 15.9329 227.135C16.7562 227.574 17.5246 227.794 18.2382 227.794C20.9826 227.794 23.3428 225.104 24.8797 222.854C24.9682 221.836 23.6646 221.068 22.6385 220.463L22.638 220.463L22.6367 220.462L22.6364 220.462L22.6359 220.462C22.3906 220.317 22.1612 220.182 21.9706 220.055C21.4254 219.646 21.181 220.064 20.9262 220.501C20.8732 220.592 20.8198 220.683 20.7631 220.768L20.6768 220.885C19.6047 222.333 18.4696 223.866 16.866 224.775C12.3651 226.751 10.0598 220.384 10.0598 216.871C10.1147 215.993 10.1147 215.17 9.29133 214.621L9.17316 214.53C7.97102 213.603 7.40658 213.167 7.1566 213.305C6.93534 213.426 6.96046 213.996 7.0078 215.071C7.01857 215.315 7.03048 215.586 7.04091 215.883ZM12.7814 227.406C12.6051 227.352 12.4461 227.316 12.3101 227.3C11.8606 227.957 11.8903 229.028 11.919 230.06C11.9358 230.666 11.9523 231.259 11.871 231.746L11.8709 232.034C11.8701 233.56 11.8692 235.146 12.0798 236.679C10.3178 240.622 6.0777 242.299 0.618912 242.065C-1.08264 242.12 3.5829 245.249 4.84534 245.249C4.95512 245.249 5.0466 245.23 5.11978 245.194C9.43187 245.432 12.6474 244.433 14.705 242.345C15.4955 243.194 16.3829 243.984 17.3394 244.671C16.7028 245.046 15.8056 245.376 14.5057 245.578C12.1455 246.017 9.62065 245.852 7.20555 245.688C5.88822 245.578 4.62579 245.523 3.36335 245.523C4.51601 247.334 6.65666 248.377 8.74242 248.377C8.96198 248.377 9.18154 248.359 9.4011 248.322H11.7613L11.9237 248.322C14.9896 248.323 18.5131 248.324 20.6538 246.484C21.406 246.773 22.1775 246.988 22.9585 247.115C28.8633 246.677 26.5446 245.205 23.1088 243.024L23.0683 242.998C22.1009 242.217 21.0831 242.47 20.0319 242.731C19.5324 242.855 19.0253 242.98 18.5125 242.998C17.0457 240.016 17.3647 236.031 17.6458 232.519C17.6803 232.089 17.7142 231.665 17.7441 231.252C17.7324 230.959 17.5437 230.62 17.2401 230.264C17.2609 229.555 17.2054 228.872 16.7013 228.398C13.2981 225.777 12.7663 225.526 12.7814 227.406ZM41.8402 236.192C42.444 240.748 38.7116 244.041 35.4182 246.511C35.6814 247.015 36.0848 247.45 36.5548 247.824C35.9878 247.711 35.4253 247.583 34.8694 247.444L34.8417 247.435C34.6461 247.369 34.0982 247.183 34.046 247.444C36.3513 251.341 41.4011 252.165 45.5726 252.329C48.9756 252.329 52.6529 251.506 55.2327 249.091L55.2331 249.091C56.6615 248.215 55.8076 247.495 54.9446 246.766C54.7796 246.627 54.6143 246.487 54.4646 246.346C51.713 243.997 51.0744 244.295 50.0531 245.232C47.2283 242.326 45.767 237.049 47.4389 233.502C47.6198 232.96 46.6457 232.343 45.9901 231.927L45.9892 231.927C45.8494 231.838 45.7241 231.759 45.6276 231.691C44.4795 230.734 44.0726 232.075 43.944 233.582C43.2995 232.312 42.3392 231.267 40.9071 230.703C40.7973 230.648 40.1386 230.374 40.3033 230.703C41.0718 232.46 41.6206 234.271 41.8402 236.192ZM49.3833 245.847C47.6428 244.388 46.159 242.655 45.1719 240.668C44.6865 243.709 42.5181 246.458 40.1073 248.297C42.4415 248.433 44.7828 248.185 46.9997 247.279C48.1023 246.868 48.8268 246.334 49.3833 245.847ZM67.4871 227.929C65.1455 227.53 61.9784 226.542 61.5453 224.94C63.5701 225.652 65.7486 226.262 67.8708 226.122C68.0909 226.104 68.306 226.076 68.5161 226.038L68.5436 226.052C69.2978 225.942 70.0421 225.728 70.7666 225.379C73.728 224.317 75.0848 220.8 76.0216 218.373C76.6823 216.661 77.134 215.49 77.7923 216.103C77.8602 216.14 77.9333 216.179 78.0092 216.219C78.4851 216.472 79.0698 216.782 79.1645 217.255C78.8352 217.881 78.6244 218.566 78.4137 219.251C78.2731 219.708 78.1326 220.164 77.957 220.604C77.0571 223.966 74.645 227.125 71.2849 227.928C72.5163 229.227 72.651 230.752 72.6877 233.502C72.883 235.632 72.4039 237.664 71.4533 239.45C71.3946 242.266 71.627 245.082 72.3583 247.773C73.2788 247.547 73.8595 247.181 74.2805 246.812L74.2794 246.785C74.4624 246.639 74.6088 246.493 74.7185 246.346L74.742 246.352L74.786 246.303L74.843 246.24L74.8503 246.232L74.853 246.229C75.5547 245.449 75.918 245.045 78.2314 246.731C78.3993 246.883 78.618 247.036 78.8452 247.194C79.4352 247.606 80.0823 248.057 80.0427 248.652C79.2194 250.243 77.5179 251.067 75.8163 251.067C75.703 251.067 75.5886 251.063 75.4736 251.054C74.5205 251.369 73.3631 251.412 72.3422 251.45H72.342H72.3419H72.3418C71.9557 251.465 71.5891 251.478 71.2605 251.506C68.0221 251.286 60.8866 250.573 59.7889 247.389C61.5112 247.976 67.4905 249.663 71.2096 249.282C69.1938 247.9 68.0836 246.003 67.4943 243.851C66.0998 244.816 64.5171 245.512 62.8626 245.852C61.0513 245.139 59.0204 243.986 58.0873 242.339C61.7224 240.988 65.5158 238.687 66.9813 234.966C66.9924 234.732 67.0038 234.499 67.0152 234.266L67.0157 234.258C67.0418 233.725 67.0677 233.198 67.089 232.679C67.1404 232.302 67.1705 231.908 67.2008 231.511V231.511C67.264 230.683 67.3286 229.836 67.5909 229.076C67.5637 228.693 67.5285 228.31 67.4871 227.929ZM64.3446 156.494C64.2809 156.534 64.213 156.576 64.1416 156.621C63.0437 157.307 61.1363 158.499 61.6002 159.787C61.5453 159.952 61.2709 159.952 61.1611 159.952C59.9535 159.403 57.9775 158.195 57.9775 156.768C58.6911 154.902 60.6121 153.64 62.4784 153.091C68.1319 154.024 69.4492 160.885 64.5642 163.904C60.924 161.824 61.4408 161.302 62.5135 160.22C63.2524 159.475 64.255 158.464 64.3446 156.494ZM17.2501 154.573C15.4936 154.573 14.1763 156.329 15.5485 157.756C17.6343 160.061 20.2141 162.257 22.9036 163.794C23.7047 163.625 21.5911 161.967 20.3689 161.008L20.3688 161.008C19.9998 160.718 19.7121 160.493 19.6103 160.391C17.4147 159.238 18.8419 157.262 20.8727 157.317C21.5414 157.34 21.7548 157.954 22.0379 158.768C22.4287 159.892 22.9522 161.398 24.9894 162.257C26.3616 163.08 24.66 159.677 24.3856 159.238C22.7389 156.988 20.2141 154.573 17.2501 154.573ZM41.0718 179.602C40.7425 179.218 39.8094 179.657 38.8214 180.151C38.7045 180.205 38.5876 180.26 38.4716 180.315C37.8799 180.596 37.3134 180.864 36.9003 180.864C34.7047 181.303 32.5641 179.327 31.3017 177.406C29.655 174.827 29.4355 172.247 32.2897 175.156C32.3907 175.268 32.5148 175.39 32.6463 175.518C33.1575 176.019 33.7816 176.63 33.607 177.242C34.3323 177.089 35.1638 176.697 35.9538 176.325C36.2997 176.162 36.6376 176.003 36.9552 175.869C38.341 175.443 39.3128 176.362 40.2726 177.27L40.3583 177.351C41.3463 178.394 42.3892 179.382 43.9261 178.778C45.867 178.306 47.2565 176.681 48.5257 175.196L48.7013 174.991C48.7562 174.662 49.0855 174.717 49.3051 174.827C50.5127 175.65 52.1045 176.857 52.4338 178.339C52.1292 178.818 51.7557 179.228 51.3951 179.623C51.3009 179.726 51.2075 179.829 51.1165 179.931C49.7442 181.688 48.0976 182.456 46.4509 182.456C44.5847 182.456 42.6087 181.413 41.0718 179.602ZM12.8042 218.079C12.7493 219.725 14.7253 220.988 16.0975 221.427C16.609 221.427 16.9529 221.725 17.3027 222.028C17.5536 222.245 17.8075 222.465 18.1284 222.58C18.6773 221.866 16.2073 219.67 15.3291 219.506C14.89 219.506 16.1524 217.969 16.4268 217.804C16.4687 217.344 15.9682 216.916 15.5334 216.543C15.3979 216.427 15.2688 216.317 15.1644 216.213C14.2753 215.417 13.5059 216.816 13.0262 217.688C12.9433 217.838 12.869 217.973 12.8042 218.079ZM67.9419 221.643C68.919 221.535 69.8428 221.432 70.7666 221.921H71.2057C73.0719 221.921 70.9313 220.274 70.0531 219.67C69.8701 219.634 69.6871 219.646 69.5042 219.658C69.4127 219.664 69.3212 219.67 69.2297 219.67L69.2066 219.673C68.7771 219.727 68.3997 219.774 68.0222 219.451C67.3636 219.286 66.7048 219.396 66.0462 219.506L66.046 219.506C65.4972 219.616 64.9484 219.725 64.3995 219.67C63.8506 219.78 64.2898 218.353 64.4545 218.079C64.3447 217.365 63.5213 216.761 62.9175 216.322C62.7529 216.212 62.5333 216.158 62.4784 216.377C61.3258 218.518 63.4116 220.604 65.2778 221.427C66.0682 221.773 66.8585 221.718 67.6489 221.664C67.7367 221.658 67.8246 221.652 67.9124 221.646L67.9419 221.643ZM40.4132 145.9C39.9816 143.915 38.9393 142.201 37.8998 140.492C37.6172 140.028 37.3349 139.563 37.065 139.094C36.0765 136.821 37.3577 134.503 38.4641 132.501C38.5865 132.279 38.7067 132.062 38.8214 131.849C39.8643 131.574 41.9501 133.111 42.6087 133.88C40.7425 137.283 39.4252 140.302 42.3343 143.595C43.0479 144.418 45.6276 151.06 44.6396 151.279C41.1446 150.023 41.0182 149.311 40.4224 145.952L40.4132 145.9ZM43.6516 157.646C41.95 159.952 42.444 163.684 45.5727 164.398H45.6824C45.719 164.398 45.7556 164.379 45.7922 164.343C44.8284 161.621 46.2361 159.383 47.6491 157.137C48.9721 155.033 50.2998 152.923 49.6893 150.401C49.5048 149.373 48.9912 148.459 48.4768 147.543C47.9199 146.552 47.362 145.559 47.2193 144.418C47.0864 143.975 46.5598 143.711 46.1019 143.481C45.9926 143.426 45.8873 143.373 45.7922 143.32C44.5298 142.717 46.1215 145.626 46.396 146.065C49.4697 150.291 46.5058 154.298 43.6516 157.646ZM39.4252 164.562C36.1376 163.601 36.9979 159.937 37.6257 157.263C37.6792 157.035 37.7311 156.815 37.7785 156.603L37.7785 156.603C37.8334 156.384 37.8883 156.164 37.998 155.945C38.7665 156.055 39.5349 156.713 39.974 157.317C39.3703 159.513 38.986 161.928 39.48 164.178C39.5349 164.288 39.6447 164.562 39.48 164.562H39.4252ZM102.986 60.5484C96.1799 57.9137 91.5693 51.3271 90.197 44.3013L90.1948 44.2872C90.0251 43.2126 89.2186 38.1063 91.3498 39.7456C91.4571 39.8207 91.5676 39.8969 91.68 39.9744C92.7177 40.69 93.9229 41.5211 94.3686 42.7096C94.0616 43.1482 94.0349 43.6919 94.0086 44.2288V44.2289C94.002 44.3639 93.9954 44.4984 93.9844 44.6307C93.7648 47.1007 96.8935 56.5964 99.6928 56.5415C101.943 57.0355 104.303 56.9806 106.609 56.7062C107.345 56.6816 108.082 56.4703 108.819 56.259C109.729 55.998 110.639 55.737 111.549 55.828C112.921 56.5415 116.324 58.8468 116.379 60.4386C114.129 61.1522 111.768 61.5364 109.353 61.5364C107.213 61.5364 105.017 61.207 102.986 60.5484ZM111.613 101.225C111.609 101.265 111.604 101.317 111.604 101.385C112.153 102.813 114.458 104.459 115.885 105.008C118.52 104.679 121.593 101.166 123.295 99.1899C128.194 93.5762 130.152 86.3967 132.079 79.3277C132.224 78.7938 132.37 78.2605 132.516 77.7285C132.955 76.2465 133.559 74.8194 134.218 73.4472C133.699 72.2013 132.394 71.3973 131.279 70.7102L131.183 70.6509L131.089 70.593C131.034 70.5747 130.973 70.5442 130.908 70.5117C130.778 70.4466 130.632 70.3734 130.485 70.3734C130.376 70.4283 130.321 70.5381 130.266 70.6479C130.156 70.9406 130.028 71.2516 129.882 71.581C129.029 73.6865 128.37 75.8696 127.711 78.0549C127.012 80.3703 126.313 82.6882 125.381 84.9189C123.515 89.4747 120.825 93.6462 117.422 97.214C117.335 97.1428 117.226 97.049 117.102 96.9413L117.101 96.9408C116.361 96.3008 115.061 95.1757 114.403 95.4575C114.2 95.6605 114.057 95.9236 113.93 96.1579C113.885 96.2403 113.842 96.3192 113.799 96.3906C111.768 98.2569 108.749 98.3117 106.279 97.4884C107.377 95.8418 109.189 94.7989 110.89 93.8658C111.695 93.4632 112.482 93.0607 113.25 92.6582C113.36 92.4935 113.195 92.274 113.086 92.1642C112.537 91.5055 110.561 89.4747 109.683 89.9138L109.521 89.9863L109.521 89.9864C107.141 91.0547 99.9851 94.2665 103.041 97.2689C105.182 99.684 108.475 100.507 111.549 101.111C111.624 101.111 111.622 101.137 111.613 101.225ZM113.525 81.1865C116.544 77.1247 118.849 72.569 119.892 67.629C119.947 66.8057 122.856 69.1659 122.581 69.605C121.539 74.545 119.727 79.924 116.379 83.6565C115.501 83.2722 113.635 82.1196 113.525 81.1865ZM44.1984 125.827C43.6406 125.435 43.0305 125.007 42.6637 125.207C43.6516 126.744 46.3961 128.555 48.2074 128.885C55.9467 127.897 46.2863 120.651 42.9381 120.651C43.0742 121.286 44.0348 121.884 44.736 122.32L44.7366 122.32C44.8838 122.412 45.0194 122.496 45.1336 122.572C45.4364 122.732 45.7992 122.831 46.1631 122.931C47.0528 123.174 47.9489 123.419 47.9879 124.548C47.9879 125.866 46.2863 126.415 45.1336 126.36C44.8967 126.317 44.5585 126.079 44.1984 125.827ZM48.0427 114.943C48.776 114.474 49.5189 114.013 50.2631 113.552L50.2632 113.552C53.5293 111.525 56.822 109.481 59.4595 106.71C61.7489 103.778 61.7752 102.403 61.8181 100.156C61.8339 99.3326 61.8519 98.3918 61.9844 97.214C62.4235 93.0424 65.3326 89.804 68.1868 87.0596C72.9521 82.5278 79.0297 79.9048 84.9979 77.329C86.0416 76.8786 87.082 76.4296 88.1114 75.9721L88.2923 75.8927C89.0193 75.5735 89.3749 75.4174 89.5419 75.5332C89.7017 75.644 89.6888 76.0039 89.6637 76.708V76.7081L89.6636 76.7099L89.6635 76.7133C89.6584 76.8547 89.6529 77.0098 89.6482 77.1796C89.6391 77.2734 89.6307 77.3633 89.6227 77.4496L89.6226 77.4497C89.4842 78.9301 89.4447 79.3535 87.8369 79.924C86.314 80.6429 84.7439 81.3341 83.1608 82.0309L83.1601 82.0312C75.5566 85.3782 67.6533 88.8571 63.2468 96.1711C62.4621 97.3668 62.4914 98.7406 62.5208 100.119C62.5346 100.766 62.5484 101.413 62.4783 102.044C62.0422 109.677 56.0259 112.908 50.103 116.089C48.5723 116.911 47.0478 117.73 45.6276 118.621C45.1782 116.643 45.9796 116.174 47.1885 115.467C47.4563 115.31 47.744 115.142 48.0427 114.943ZM54.4647 124.548C53.861 126.03 53.6414 127.952 54.1354 129.543C54.172 129.58 54.2086 129.598 54.2452 129.598C54.3732 129.598 54.5013 129.467 54.6294 129.337C54.7209 129.243 54.8124 129.15 54.9039 129.104C57.0994 127.293 59.2949 125.536 61.6551 123.945C65.3327 121.475 69.3945 119.609 73.5111 118.127C76.7125 116.785 78.8909 117.115 81.6321 117.53C82.3688 117.641 83.1461 117.759 83.9948 117.852C90.1972 118.181 95.7959 114.888 100.461 111.156C102.767 109.07 104.194 107.588 103.48 104.295C103.48 104.24 103.425 104.075 103.316 104.13C102.492 105.063 101.669 105.941 100.681 106.765C90.8559 114.12 86.6295 113.461 82.403 112.802L82.3725 112.798C79.8033 112.415 77.2832 112.04 73.4562 113.516C67.6929 115.492 62.4236 118.621 57.5385 122.188C57.0989 122.535 56.6593 122.863 56.2239 123.187L56.2238 123.187L56.2237 123.187L56.2236 123.187L56.2235 123.188L56.2234 123.188L56.2233 123.188C55.6259 123.633 55.0361 124.072 54.4647 124.548ZM110.54 79.7354L110.54 79.7354C108.902 79.5731 107.007 79.3852 106.389 77.6736C104.274 73.6604 101.355 72.9694 97.262 72.0005L97.1131 71.9652C96.2898 71.7457 95.7958 71.1419 97.1131 71.1419C102.822 71.581 109.683 73.2825 112.208 79.0458C112.702 79.7045 112.208 79.8143 111.659 79.8143H111.274C111.04 79.785 110.795 79.7607 110.543 79.7357L110.542 79.7356L110.541 79.7355L110.54 79.7354L110.54 79.7354ZM97.7169 103.142H97.8815H97.9913C98.156 103.142 98.3206 103.142 98.4304 103.032C98.3545 102.387 98.2262 101.716 98.0999 101.055L98.0999 101.055L98.0998 101.055L98.0998 101.055C98.0434 100.759 97.9873 100.466 97.9365 100.178C97.0582 95.8966 95.1371 91.78 92.1182 88.6513C92.0052 88.542 91.8903 88.4297 91.7735 88.3156L91.7733 88.3155L91.7731 88.3153C90.1302 86.7106 88.1046 84.7322 85.6963 85.1933C88.3858 86.8949 90.5813 89.5295 92.0633 92.4386C93.6551 95.4026 94.4235 98.7508 95.0822 102.044C95.0822 102.87 96.4256 103.006 97.2828 103.092C97.4508 103.109 97.6 103.124 97.7169 103.142ZM172.53 55.6632C171.871 55.5535 168.743 53.5226 168.962 52.8639C169.963 52.4324 171.122 51.9778 172.369 51.4883C179.055 48.8652 188.288 45.2422 189.491 38.8124C189.765 37.0011 189.545 35.0251 188.448 33.598C188.371 33.4832 188.241 33.4485 188.132 33.4193L188.132 33.4193L188.132 33.4192L188.132 33.4192C188.085 33.4066 188.042 33.395 188.009 33.3785C187.423 33.1955 186.838 33.104 186.252 33.104C183.672 32.9943 180.928 33.5431 178.842 35.08C178.78 35.1267 178.722 35.1777 178.665 35.2281C178.521 35.3558 178.38 35.4798 178.184 35.5191C178.06 35.5603 177.937 35.5088 177.813 35.4574C177.772 35.4402 177.731 35.4231 177.69 35.4093C176.976 35.0251 176.262 34.5311 175.659 33.9274C175.549 33.8176 175.384 33.6529 175.329 33.5431C175.286 33.3702 175.413 33.2653 175.523 33.175C175.552 33.1506 175.581 33.1273 175.604 33.104C175.713 33.0388 175.821 32.9821 175.927 32.9273L175.927 32.9271L175.927 32.9271L175.927 32.9269C176.088 32.8435 176.24 32.7642 176.372 32.6649C176.616 32.4556 176.881 32.2311 177.162 31.9932C180.054 29.5482 184.631 25.6777 184.331 22.1263C179.83 22.0714 175.659 24.4316 172.146 27.1212C172.059 27.1958 171.969 27.2705 171.877 27.3465C171.565 27.6055 171.235 27.8794 170.938 28.2189C170.883 28.2738 170.719 28.4385 170.609 28.4385C170.326 28.4385 170.073 28.2897 169.827 28.1455C169.74 28.0938 169.653 28.0428 169.566 27.9994C168.962 27.6152 168.359 27.1761 167.974 26.5723C167.932 26.4455 168.085 26.3187 168.208 26.217C168.244 26.1866 168.278 26.1584 168.304 26.1332C170.005 24.5963 171.487 22.7301 172.859 20.8639C174.177 18.9977 175.274 16.9668 176.262 14.881C177.415 12.3561 178.513 9.77637 179.117 6.97705C179.281 6.20861 179.336 5.44017 179.281 4.61684C179.281 4.54365 179.245 4.54365 179.172 4.61684C174.286 6.15372 170.17 9.39215 166.602 12.905C160.509 18.9428 156.557 26.7918 153.758 34.7507C153.099 36.6718 152.496 38.6478 152.331 40.7335C152.276 41.502 152.276 42.3253 152.276 43.1486C152.349 43.2584 152.331 43.3499 152.221 43.4231C152.106 43.3848 151.992 43.3199 151.895 43.2654C151.854 43.2418 151.815 43.2201 151.782 43.2035C151.508 43.0389 151.233 42.8193 151.069 42.5998C151.014 41.8862 151.014 41.2275 151.069 40.5689C151.069 38.3184 151.617 36.1229 152.221 33.9822C152.88 31.6773 153.703 29.4272 154.526 27.1772L154.527 27.1761C158.039 17.9548 163.913 9.1177 172.695 4.17773C173.573 3.68373 174.451 3.24462 175.384 2.91529C176.537 2.47618 177.909 2.14685 179.062 2.8604C180.214 3.51906 181.477 4.39728 181.916 5.71461C182.472 8.39253 180.981 12.0007 179.884 14.6552C179.79 14.8843 179.698 15.1064 179.611 15.3201C178.769 17.2229 177.799 19.0891 176.702 20.9188C176.628 21.0285 176.683 21.0285 176.866 20.9188C177.964 20.5894 179.117 20.315 180.269 20.1503C182.63 19.7112 184.715 20.809 186.362 22.4556C188.722 25.0903 185.264 29.0423 183.398 30.9634C186.636 31.0731 189.655 32.9943 191.521 35.574C193.003 37.9342 193.113 41.0629 191.851 43.5329C189.196 48.2412 183.616 50.7555 178.74 52.9528C178.272 53.1634 177.811 53.3711 177.36 53.5775C176.116 54.163 174.854 54.7301 173.573 55.279C173.452 55.3194 173.338 55.3821 173.224 55.4452C173.027 55.5536 172.828 55.6632 172.585 55.6632H172.53ZM188.832 67.2996C189.93 70.1538 191.522 72.8983 194.431 74.2156C194.925 74.3254 194.705 73.7765 194.595 73.502C192.949 68.6169 189.93 64.3356 185.758 61.3717C181.742 58.0761 176.469 58.2587 171.527 58.4298L171.526 58.4299L171.526 58.4299C171.2 58.4412 170.876 58.4524 170.554 58.4626C164.626 58.5174 157.491 56.8708 154.197 51.4368C153.045 49.0766 146.678 44.3562 151.233 50.2841C156.503 57.4746 164.901 62.7987 173.902 63.0732C175.169 63.139 176.46 63.1013 177.755 63.0634C180.782 62.975 183.83 62.886 186.636 64.1161C187.523 64.5191 187.966 65.4841 188.377 66.3814C188.527 66.7064 188.672 67.0224 188.832 67.2996ZM219.076 110.113C216.99 109.289 215.398 107.588 214.41 105.667C214.176 105.239 213.694 105.086 213.218 104.936C213.023 104.875 212.829 104.813 212.654 104.734C211.618 104.328 210.548 103.944 209.469 103.557L209.468 103.557C204.713 101.851 199.768 100.077 196.681 96.0064C195.967 94.8537 195.858 93.4815 195.803 92.1642C195.769 91.233 195.756 90.2966 195.743 89.3566V89.3564C195.714 87.2489 195.684 85.1234 195.419 82.9978C195.419 81.6805 199.59 85.1933 199.425 85.9069C199.461 86.6691 199.513 87.4428 199.567 88.2243L199.567 88.2256C199.678 89.8634 199.792 91.5352 199.755 93.2071C199.784 93.6265 199.794 94.0537 199.803 94.4824V94.483V94.4831C199.831 95.6809 199.859 96.8911 200.304 97.9824C202.188 98.9443 204.206 99.6534 206.219 100.361C209.835 101.632 213.436 102.897 216.221 105.612C216.77 105.941 220.283 110.223 219.076 110.113ZM206.835 123.341C209.141 126.25 212.05 128.885 215.343 130.641C220.667 133.55 222.149 126.634 221.71 122.737C221.271 121.53 218.801 119.279 217.539 119.224C217.478 119.768 217.447 120.319 217.416 120.875C217.363 121.834 217.308 122.807 217.1 123.78C216.77 126.085 214.245 128.665 211.94 126.964C210.474 125.759 209.345 124.231 208.214 122.699C206.974 121.019 205.73 119.335 204.036 118.072C200.409 114.682 197.652 115.689 194.918 116.688C192.604 117.533 190.307 118.371 187.515 116.535C185.167 113.968 184.34 110.424 183.575 107.145L183.563 107.094C183.34 106.384 183.222 105.615 183.103 104.843C182.901 103.526 182.698 102.204 181.971 101.166C181.855 101.061 181.737 100.945 181.617 100.827C181.108 100.329 180.551 99.7832 179.885 99.7388C179.885 99.949 179.951 100.159 180.019 100.378C180.076 100.56 180.135 100.747 180.16 100.946C180.274 101.639 180.378 102.342 180.483 103.051C181.086 107.115 181.714 111.342 184.331 114.614C186.911 117.687 190.479 120.761 194.65 121.091C196.027 121.116 197.298 120.608 198.566 120.101C200.028 119.517 201.487 118.934 203.103 119.169C203.997 119.273 204.783 120.473 205.529 121.613C205.974 122.293 206.405 122.951 206.835 123.341Z" fill="black"/>
</svg>
