<svg width="228" height="192" viewBox="0 0 228 192" fill="none" xmlns="http://www.w3.org/2000/svg">
<path fill-rule="evenodd" clip-rule="evenodd" d="M101.105 16.6757C101.082 17.2954 101.06 17.9366 100.86 18.4676C100.81 19.5176 103.56 21.5176 104.56 21.8676C106.01 20.7676 105.86 7.41763 104.71 5.41763C103.91 3.71763 102.41 2.46761 100.91 1.36761C97.4405 -1.38933 94.6484 3.0839 92.9208 5.85175C92.8311 5.99538 92.7443 6.13441 92.6605 6.2676C91.7105 4.5676 90.3105 2.71761 88.6105 1.51761C83.7157 -2.6712 80.5487 4.52578 78.7759 8.55445C78.6654 8.80566 78.5602 9.04456 78.4605 9.2676C77.9371 9.96545 79.354 11.0818 80.1227 11.6874C80.2352 11.7761 80.3338 11.8538 80.4105 11.9176C80.484 11.9597 80.5908 12.0393 80.7148 12.1318L80.7149 12.1319C81.181 12.4796 81.892 13.0099 82.0105 12.4176C82.2228 11.9575 82.429 11.4926 82.6352 11.0275L82.6356 11.0265C83.5945 8.86388 84.5558 6.69567 86.1605 4.96762C86.8605 4.26762 87.7105 3.56763 88.7605 3.41763C88.8615 3.41763 88.9398 3.59908 89.0108 3.76339C89.0452 3.84303 89.0778 3.91865 89.1105 3.96762C89.57 4.74883 89.8923 5.60396 90.2131 6.45536L90.2132 6.45542C90.5905 7.45674 90.966 8.4529 91.5605 9.31762C92.5105 10.4176 93.6605 11.5176 95.0605 12.0676C95.4876 12.1005 95.742 11.5719 95.9798 11.0779C96.1038 10.8202 96.2233 10.5719 96.3605 10.4176C96.4728 10.2369 96.5847 10.0557 96.6966 9.87443C97.7301 8.20022 98.7668 6.52109 100.21 5.16763C100.344 5.0343 100.51 4.90094 100.71 4.7676C100.921 4.59943 100.919 4.64338 100.913 4.78054C100.912 4.80649 100.91 4.83579 100.91 4.86761C101.31 8.46761 101.26 12.1176 101.16 15.7676C101.127 16.0532 101.116 16.3614 101.105 16.6751V16.6752V16.6753V16.6753V16.6754V16.6755V16.6756V16.6756V16.6757ZM68.9103 71.6176L68.4814 71.5793H68.4813C62.4591 71.0426 56.1395 70.4793 51.0603 66.7676C44.1603 62.0676 37.7103 55.7176 35.4603 47.4176C34.1103 42.3676 34.0603 36.3176 37.5103 32.0676C40.2103 28.5176 45.3103 27.0176 49.2603 29.3176C49.527 29.4509 49.777 29.5842 50.0103 29.7176C50.1544 29.8328 50.0826 29.7488 49.9959 29.6474C49.9321 29.5728 49.8603 29.4888 49.8603 29.4676C47.7103 26.7676 46.5103 22.4176 49.0603 19.6676C53.5859 15.9351 59.4176 20.8226 62.9804 23.8087C63.2358 24.0227 63.4795 24.227 63.7103 24.4176C62.8603 22.0176 62.4103 19.5176 62.3603 16.9676C62.3103 13.1676 63.1603 6.61758 68.2103 6.96758C74.2603 8.71758 80.2103 15.5676 83.3603 20.9676C85.5334 24.887 86.8633 29.1979 88.1913 33.5029L88.1914 33.5033L88.1914 33.5034L88.1915 33.5035L88.1915 33.5036L88.1916 33.5038L88.1916 33.5039L88.1916 33.504L88.1917 33.5041L88.1917 33.5043L88.1918 33.5044L88.1918 33.5045L88.1919 33.5046L88.1919 33.5048C88.5748 34.746 88.9575 35.9868 89.3603 37.2176C90.9583 41.9671 91.9652 46.8743 92.9757 51.7992C93.1034 52.4218 93.2312 53.0447 93.3603 53.6676C93.5038 54.3564 93.6638 55.041 93.8237 55.7251L93.824 55.7259L93.8241 55.7264L93.8242 55.727L93.8243 55.7275L93.8244 55.728L93.8245 55.7285L93.8246 55.7291L93.8248 55.7296L93.8249 55.7301L93.825 55.7306L93.8251 55.7312L93.8252 55.7317L93.8253 55.7322C94.222 57.4294 94.6179 59.1231 94.7603 60.8676C95.2603 62.2676 92.7103 59.9676 92.5103 59.6676C92.1103 59.3176 92.0103 58.9176 91.9603 58.4176C91.5928 57.1756 91.2188 55.9303 90.8441 54.6827L90.8432 54.6796L90.8431 54.6792C89.7399 51.0058 88.6305 47.3117 87.6603 43.6176C86.5129 39.3611 85.0641 35.2142 83.6182 31.0755L83.6181 31.0752L83.618 31.0749L83.6179 31.0747L83.6178 31.0744L83.6177 31.0741L83.6176 31.0739L83.6175 31.0736L83.6174 31.0733L83.6173 31.0731L83.6172 31.0728L83.6171 31.0726L83.6171 31.0723L83.617 31.072L83.6169 31.0718C83.1099 29.6208 82.6034 28.1709 82.1103 26.7176C81.1103 23.8176 80.1103 20.9176 78.7103 18.2176C78.513 17.891 78.3111 17.5423 78.1021 17.1813L78.1016 17.1805C76.775 14.889 75.1654 12.1086 72.6603 11.4176C70.0603 11.0176 68.2603 13.6176 67.6603 15.8676C66.7603 18.8676 66.7103 22.1176 67.3603 25.2176C67.4941 26.0072 67.7928 26.9187 68.0635 27.7449C68.804 30.005 69.3353 31.6264 65.7103 28.3676C65.2683 27.894 64.8396 27.396 64.4092 26.8961L64.4088 26.8956L64.4083 26.895L64.4081 26.8948L64.4074 26.894L64.4066 26.8931L64.4062 26.8926L64.4062 26.8926C62.7929 25.0184 61.1563 23.1171 58.7103 22.3676C55.1603 21.1176 51.7603 23.2676 51.9103 27.0676C51.9839 30.194 52.9503 31.1017 54.3519 32.4181L54.3519 32.4181L54.3519 32.4181L54.3519 32.4181L54.352 32.4182C54.8557 32.8912 55.4155 33.417 56.0103 34.1176C56.8159 35.5186 54.8735 34.2452 53.4659 33.3225L53.4659 33.3225C52.8641 32.9279 52.36 32.5975 52.2103 32.5676C49.3103 30.8676 45.5603 31.8176 43.2103 34.0676C36.3103 40.4676 38.8603 51.9176 43.8103 58.7176C48.1603 64.7676 54.4603 66.4176 61.4603 66.9176C61.7876 66.9566 62.1065 66.987 62.4175 67.0167C64.1022 67.1777 65.5597 67.317 66.9103 68.6676C67.3603 69.0176 70.2603 71.6176 69.0103 71.6176H68.9103ZM200.36 37.5177C199.56 33.1677 199.26 28.7177 199.76 24.3177C199.76 24.2985 199.758 24.2775 199.757 24.2557L199.757 24.2554C199.748 24.1636 199.739 24.058 199.86 24.0177C201.06 24.3677 202.06 25.4677 202.86 26.4177C203.123 26.7783 203.062 27.2248 203.004 27.6587L203.004 27.6589C202.973 27.8868 202.943 28.1111 202.96 28.3177C202.81 34.5677 203.36 40.9677 205.51 46.8677C205.76 47.5677 206.11 48.2677 206.51 48.9177C207.41 48.7541 207.808 47.787 208.142 46.9752L208.142 46.975C208.217 46.7947 208.288 46.6221 208.36 46.4677C209.81 42.5677 211.21 38.6177 211.81 34.5177C212.166 31.6735 212.342 28.8294 212.518 25.977L212.518 25.9765L212.518 25.9756C212.665 23.6135 212.811 21.2457 213.06 18.8677C213.094 18.501 213.094 18.1177 213.06 17.7177C213.11 17.5677 213.01 17.5677 212.91 17.6177H212.76C210.665 17.7612 208.652 18.3001 206.646 18.8372C205.158 19.2358 203.673 19.6334 202.16 19.8677C201.566 19.822 201.097 19.4003 200.678 19.0227L200.675 19.0205C200.636 18.9857 200.598 18.9514 200.56 18.9177C200.56 18.8927 200.535 18.8553 200.51 18.8178L200.51 18.8177C200.485 18.7802 200.46 18.7427 200.46 18.7177C200.84 18.4644 201.301 18.3113 201.765 18.1569C202.034 18.0675 202.304 17.9777 202.56 17.8677C203.108 17.6693 203.658 17.4548 204.211 17.2391C206.584 16.3133 209.015 15.3649 211.61 15.5677C213.16 15.8677 214.71 16.9677 215.46 18.4177C215.71 19.1177 215.76 19.9677 215.71 20.6677C215.573 22.9248 215.52 25.1818 215.468 27.4359C215.386 30.9241 215.305 34.4051 214.91 37.8677C214.607 40.254 214.002 42.6028 213.39 44.9792L213.389 44.9797C213.296 45.3416 213.203 45.7042 213.11 46.0677C213.001 46.4033 212.898 46.784 212.789 47.1858L212.788 47.1871L212.788 47.1882L212.788 47.189C212.247 49.1814 211.564 51.6929 209.36 51.8177L209.301 51.7993L209.241 51.7805C209.313 52.1849 209.325 52.6091 209.338 53.0309C209.349 53.4 209.36 53.7672 209.41 54.1177C209.56 58.8677 209.71 63.7677 208.31 68.4177C209.417 69.1893 209.849 70.411 210.285 71.6449C210.499 72.2501 210.714 72.8583 211.01 73.4177C211.51 74.3177 212.26 75.9677 210.76 76.3177C209.26 76.7677 207.71 76.9177 206.16 76.9177H205.41C203.81 77.0177 202.46 75.9677 201.36 74.8677C200.81 74.3177 200.31 73.6177 200.96 72.9677C203.26 70.3677 205.26 67.6177 206.01 64.1677C206.852 60.907 207.054 57.5479 207.255 54.2112C207.32 53.137 207.384 52.0651 207.47 50.9996C202.991 48.426 201.245 42.3845 200.36 37.5177ZM178.36 26.5175C178.21 29.7175 178.56 32.8675 179.31 35.9675C179.408 36.3434 179.508 36.734 179.611 37.1365C180.886 42.1203 182.627 48.9271 186.82 52.1021C186.847 52.4598 186.891 52.8261 186.935 53.1925C186.985 53.605 187.035 54.0175 187.06 54.4175C187.128 55.1231 187.206 55.8331 187.285 56.5456C187.668 60.024 188.057 63.5646 187.31 66.9675C186.89 68.9558 185.387 70.2423 183.921 71.4979C183.47 71.8842 183.022 72.2676 182.61 72.6675C183.01 73.7675 184.76 75.0175 185.81 75.4675H185.91C186.01 75.4675 186.06 75.4675 186.16 75.3675C186.326 75.2161 186.487 75.0609 186.646 74.902C187.214 75.4072 187.842 75.8351 188.51 76.1177C189.161 76.2344 189.811 76.3566 190.461 76.4789L190.461 76.479C191.761 76.7234 193.061 76.9678 194.36 77.1677H194.46C195.01 77.1677 194.31 76.4177 194.11 76.2177C193.71 75.751 193.222 75.3733 192.733 74.9955C192.488 74.8066 192.244 74.6177 192.01 74.4177C191.08 72.789 190.65 70.8202 190.419 68.7536C190.823 66.647 190.657 64.3701 190.36 62.2675C190.11 60.0675 189.81 57.8675 189.41 55.6675C189.38 55.4569 189.353 55.2631 189.329 55.0837V55.0836C189.216 54.245 189.146 53.7198 188.829 53.2476C189.082 53.3493 189.343 53.4396 189.61 53.5175C193.41 53.5175 194.96 38.3675 195.06 35.1675C195.06 34.34 195.109 33.3029 195.164 32.1521C195.373 27.7399 195.662 21.6572 193.56 19.3175C190.36 16.0175 187.01 16.0675 182.81 16.8175C182.03 16.9375 181.25 17.1115 180.47 17.2855L180.47 17.2855C179.95 17.4015 179.43 17.5175 178.91 17.6175C178.59 17.6632 178.897 17.9597 179.029 18.0866L179.029 18.0869L179.03 18.0883L179.044 18.1014L179.06 18.1175C179.81 18.7175 180.66 19.3175 181.56 19.5175C181.617 19.4987 181.666 19.4727 181.714 19.4477C181.793 19.4064 181.867 19.3675 181.96 19.3675C184.86 18.5675 187.96 18.0175 191.01 18.4175C191.871 20.3021 191.825 22.4551 191.78 24.5467C191.77 25.0078 191.76 25.4659 191.76 25.9175C191.56 31.6675 191.06 37.4175 189.46 42.9675C189.301 43.5572 189.156 44.152 189.01 44.7467C188.512 46.7742 188.015 48.8005 187.01 50.6175C183.81 45.3675 182.56 36.5175 182.81 30.4175C182.792 30.2393 182.806 30.0547 182.821 29.8706V29.8704V29.8701V29.8699V29.8697V29.8695V29.8693V29.8691V29.8689C182.846 29.537 182.871 29.2066 182.71 28.9175C181.66 27.6675 180.26 26.5675 178.71 26.0675C178.35 25.9323 178.355 26.2034 178.359 26.4413V26.4425C178.36 26.4681 178.36 26.4933 178.36 26.5175ZM188.951 72.3316C188.659 72.7428 188.321 73.1335 187.933 73.4994L188.01 73.5177C188.748 73.6927 189.485 73.8677 190.21 74.0177C190.277 74.051 190.26 74.0344 190.16 73.9677C189.659 73.4806 189.263 72.9277 188.951 72.3316ZM187.81 85.3676C190.36 85.5676 192.91 85.6176 195.51 85.6176H195.56C199.436 85.6176 203.311 85.444 207.186 85.2703C207.961 85.2356 208.736 85.2009 209.51 85.1676C210.035 85.1362 210.697 85.1064 211.455 85.0723C219.145 84.7259 236.774 83.9317 222.71 76.4676C222.645 76.4385 222.491 76.3618 222.276 76.255L222.27 76.2523L222.27 76.252L222.269 76.2517C221.001 75.6211 217.655 73.9572 217.91 74.7676C219.051 76.2148 220.845 76.9697 222.517 77.6732C222.751 77.7717 222.983 77.8693 223.21 77.9676C224.41 79.967 220.319 80.703 218.375 81.0526C218.132 81.0965 217.922 81.1342 217.76 81.1676C211.986 81.9877 206.165 82.1539 200.329 82.3206C197.625 82.3978 194.918 82.4751 192.21 82.6176C188.66 82.7176 185.11 82.5176 181.56 82.3176C177.96 82.1176 174.31 81.9676 170.71 82.0176C170.377 82.0176 170.06 82.0009 169.76 81.9676C169.41 81.8676 170.61 80.8676 171.06 80.6176C173.36 79.3176 175.86 78.1176 178.46 77.6676C178.702 77.5065 178.1 77.0531 177.804 76.8308C177.733 76.7772 177.68 76.737 177.66 76.7176C176.76 76.0676 175.71 75.5176 174.71 75.1176C174.01 74.7176 173.26 74.7676 172.51 75.0176C170.91 75.3676 163.26 78.0676 164.66 80.3176C165.304 81.4071 166.438 82.0551 167.48 82.6504L167.51 82.6676C169.66 84.0176 172.16 84.6676 174.66 84.7676C176.118 84.8346 177.581 84.8792 179.047 84.9238H179.048C181.959 85.0125 184.885 85.1016 187.81 85.3676ZM203.76 29.7175C203.86 30.6175 205.46 31.7175 206.26 32.0675H206.36C206.41 32.0675 206.41 32.0675 206.46 31.9675C206.36 31.8175 206.56 31.7175 206.66 31.6675C207.46 31.0175 208.51 31.0675 209.51 31.2175C209.81 31.1675 208.91 30.2675 208.86 30.2175C207.61 28.9175 205.36 28.6675 203.86 29.7175H203.76ZM186.46 32.4676C185.41 32.1176 184.46 31.3676 183.76 30.4676C183.66 30.3676 183.66 30.1176 183.91 30.2176C183.972 30.2094 184.033 30.2012 184.094 30.1931L184.267 30.1696L184.267 30.1696C185.935 29.9428 186.854 29.8178 188.21 31.2676C188.36 31.3676 188.86 31.8176 188.46 31.8676C188.224 31.9462 187.973 31.9939 187.724 32.0411C187.341 32.114 186.964 32.1855 186.66 32.3676C186.71 32.4676 186.61 32.5176 186.56 32.5176C186.527 32.5176 186.494 32.5009 186.46 32.4676ZM205.417 74.0193L205.417 74.0195C205.314 74.169 205.212 74.3184 205.11 74.4677C205.085 74.4927 205.085 74.4927 205.104 74.4865C205.123 74.4802 205.16 74.4677 205.21 74.4677H205.31C205.832 74.4026 206.296 74.3529 206.706 74.309L206.707 74.3089C209.753 73.9828 209.764 73.9817 207.56 70.3677C207.527 70.4344 207.494 70.5177 207.46 70.6177C206.932 71.8064 206.171 72.9175 205.417 74.0193ZM51.1605 101.018C50.2105 100.668 47.1105 98.9177 47.5605 97.8177C48.5605 92.8677 51.1105 88.2177 55.3105 85.3177C62.2308 80.4925 69.0168 79.322 75.7822 78.1551C85.0007 76.565 94.1808 74.9815 103.61 64.1677C104.56 64.1677 106.46 65.6177 106.86 66.4177C105.11 68.7177 103.26 71.0677 100.91 72.8177C93.8693 78.7826 84.8167 80.4833 75.9899 82.1415L75.9898 82.1416C74.9759 82.332 73.965 82.522 72.9605 82.7177C66.6605 84.1677 60.3105 86.8677 55.9605 91.7177C53.6105 94.3177 52.4605 97.7177 51.4105 100.968C51.3771 101.001 51.3271 101.018 51.2605 101.018H51.1605ZM10.1604 133.668C11.7604 135.418 13.6604 136.868 15.8104 137.717C17.6104 138.368 19.5104 138.617 21.3604 138.617C25.1211 138.617 28.9239 137.608 32.46 136.669C32.779 136.584 33.0959 136.5 33.4104 136.418C33.2104 135.418 29.8104 132.417 28.7104 133.117C27.7413 133.315 26.7634 133.543 25.7793 133.772L25.7786 133.772C21.533 134.76 17.1722 135.776 12.9104 134.517C11.9089 132.366 12.6408 129.39 13.2896 126.751C13.5155 125.833 13.7313 124.955 13.8604 124.168C14.2104 122.418 14.5604 120.418 13.5604 118.818C11.8604 116.368 9.01035 114.517 5.91035 115.267C5.74369 115.267 5.57702 115.284 5.41035 115.318C5.26511 115.354 5.30445 115.206 5.33689 115.083C5.34911 115.037 5.36035 114.995 5.36035 114.967C6.56035 108.518 11.8104 103.617 16.8104 99.7675C17.7604 99.1175 18.8604 98.5175 19.9604 98.1675C20.5063 100.727 20.7495 103.309 20.9919 105.883C21.1048 107.08 21.2174 108.277 21.3604 109.467C21.6104 112.168 22.7104 114.717 24.9104 116.367C27.7604 119.117 30.7604 118.667 34.0104 116.867C37.7104 114.917 41.0103 111.967 42.9604 108.217C43.3604 107.818 40.2603 105.117 39.9604 106.017C36.4104 110.317 31.6104 114.567 25.9104 115.267C25.262 113.284 25.2173 110.697 25.1715 108.051C25.0973 103.757 25.0204 99.3064 22.3604 97.0175C18.7604 93.4675 16.1104 92.7675 12.0104 96.0675C7.16035 100.118 2.06035 105.067 0.860352 111.517C0.260352 114.117 2.21035 116.167 4.21035 117.517C6.01035 119.117 8.41035 119.018 10.6104 118.467C10.7189 120.187 10.1726 122.109 9.61844 124.058C8.64137 127.496 7.63989 131.019 10.1604 133.668ZM106.86 43.3676C109.71 46.4176 113.31 48.6176 117.41 49.3676C119.01 49.3676 114.26 45.7176 113.66 45.7176C113.237 45.5653 112.791 45.4416 112.344 45.3175L112.344 45.3175C111.469 45.0749 110.588 44.8307 109.86 44.3676C108.41 42.6676 108.16 40.1176 109.36 38.2676C110.31 36.7676 111.71 35.6676 113.21 34.8676C113.458 34.6614 113.161 34.3193 112.965 34.0935C112.924 34.0454 112.887 34.0027 112.86 33.9676C111.96 33.0176 110.91 32.1176 109.71 31.5676C109.61 31.5676 109.61 31.5676 109.61 31.4676C109.56 30.3676 110.26 29.4176 110.96 28.6676C113.11 26.4676 116.11 25.2676 119.11 24.7176C119.81 24.6176 120.51 24.5676 121.21 24.5176C121.46 24.5176 121.76 24.4676 121.66 24.1676C119.76 21.6176 119.06 19.9676 121.76 17.5676C124.36 15.3676 128.11 14.6676 131.36 15.6176C132.158 15.7838 132.757 16.2817 133.349 16.7731L133.349 16.7732C133.646 17.0207 133.942 17.2666 134.26 17.4676C135.26 18.1676 135.81 18.0176 134.81 17.0176C133.91 16.1676 132.96 15.3676 131.96 14.6676C128.96 12.5676 125.01 11.7176 121.36 12.5176C117.36 13.3176 113.01 16.5676 116.81 20.6676C116.835 20.7176 116.885 20.7676 116.935 20.8175L116.935 20.8176L116.935 20.8176C116.985 20.8676 117.035 20.9176 117.06 20.9676C117.094 21.0009 117.094 21.0176 117.06 21.0176C116.848 21.0339 116.64 21.0449 116.435 21.0559C116.012 21.0783 115.598 21.1003 115.16 21.1676C111.71 21.7176 105.16 24.0176 105.01 28.1676C105.288 29.7383 106.547 30.8822 107.683 31.9147L107.685 31.9164L107.687 31.9181L107.689 31.9201L107.691 31.9222C107.782 32.0047 107.872 32.0864 107.96 32.1676C103.11 35.1176 102.81 39.4676 106.86 43.3676ZM127.76 67.6676C124.26 66.8676 121.01 65.1176 118.66 62.3676C116.21 60.0176 115.71 57.2676 117.26 54.2676C118.46 51.8176 120.61 49.2676 123.51 49.3176C125.01 49.7176 126.61 51.3176 127.56 52.5676C127.71 52.7676 128.11 53.4676 127.51 53.3176C124.26 53.3676 120.86 59.4676 121.41 62.4676C121.77 62.6084 122.14 62.7198 122.508 62.8309C123.318 63.075 124.123 63.3178 124.81 63.8676C125.26 64.1176 129.31 67.6676 127.81 67.6676H127.76ZM140.853 65.6731C141.212 65.6822 141.566 65.6911 141.91 65.7176H141.96C145.71 65.7176 151.76 61.0676 147.91 57.4176C155.16 54.5176 155.76 51.4676 150.31 45.8676C149.66 45.2176 148.91 44.6176 148.06 44.1676C146.51 43.3676 147.51 44.8176 148.01 45.3176C151.51 49.3176 148.31 52.2176 144.46 54.0176C143.56 54.2676 143.76 54.8176 144.26 55.3676C144.71 55.8676 145.21 56.3676 145.71 56.7676C146.26 58.7676 144.36 60.4176 142.81 61.2676C140.39 62.7287 137.72 61.9799 135.181 61.2678C134.939 61.2001 134.699 61.1327 134.46 61.0676C134.447 61.0632 134.43 61.0571 134.41 61.0501C134.208 60.9778 133.706 60.7987 133.66 61.1176C134.16 62.5676 136.56 64.4176 137.91 65.2176C138.83 65.622 139.857 65.648 140.853 65.6731ZM148.96 40.1176C148.46 40.1176 144.71 37.0176 145.91 36.8676C149.41 36.1176 153.01 35.0676 155.56 32.4176C157.31 30.7676 158.56 28.0676 157.31 25.7676C156.989 25.553 156.609 25.4248 156.234 25.2979C155.91 25.1884 155.589 25.0798 155.31 24.9176C154.21 24.2676 152.61 23.1676 152.21 21.9176C152.623 21.4679 153.157 21.0244 153.709 20.5653L153.71 20.5652C155.369 19.1869 157.198 17.668 156.41 15.4176C153.11 14.0676 147.96 14.3676 144.76 15.8676C144.614 16.0136 144.415 15.8665 144.24 15.7376C144.176 15.6898 144.114 15.6446 144.06 15.6176C143.986 15.5535 143.899 15.4894 143.811 15.4233L143.81 15.4232C143.484 15.1801 143.121 14.9107 143.16 14.5176C144.343 12.9899 147.177 12.5308 149.03 12.2307L149.11 12.2176C152.96 11.7176 156.66 13.7676 159.11 16.6176C161.61 19.4676 159.06 22.2676 156.66 24.0176C166.96 30.9176 157.21 38.5176 148.96 40.1176ZM151.96 70.3177C162.76 63.1177 166.86 56.4177 165.26 43.2177C165.164 42.0306 165.027 40.8436 164.888 39.6433L164.888 39.6431V39.6429V39.6427L164.888 39.6424L164.887 39.642C164.81 38.9721 164.732 38.2981 164.66 37.6177C164.66 37.5817 164.655 37.54 164.649 37.4966L164.648 37.4964C164.63 37.3591 164.608 37.2057 164.76 37.1677C165.23 37.2104 165.663 37.5085 166.06 37.7815L166.061 37.7817C166.128 37.8283 166.195 37.8741 166.26 37.9177C166.421 38.0521 166.599 38.1864 166.781 38.3242C167.614 38.9556 168.542 39.6595 168.46 40.7677C168.559 41.8747 168.689 42.9817 168.82 44.0918L168.82 44.092C169.019 45.7897 169.22 47.4945 169.31 49.2177C170.36 60.9677 164.66 68.0177 154.91 73.5177C154.26 73.3677 150.51 70.8677 151.96 70.3177ZM123.61 89.1676C130.21 102.668 146.41 108.268 160.61 108.818C160.944 108.851 161.294 108.868 161.66 108.868C167.659 108.868 172.81 106.12 177.982 103.361C181.691 101.383 185.41 99.3989 189.46 98.4176C192.21 97.7176 195.01 97.2676 197.81 97.1676C198.91 97.0676 200.01 97.1176 201.11 97.1676H201.11C201.23 97.1717 201.349 97.1762 201.468 97.1807L201.67 97.1886C202.922 97.2376 204.141 97.2853 205.36 97.0676C205.678 96.877 205.713 96.5251 205.748 96.1783C205.768 95.9792 205.787 95.7817 205.86 95.6176C206.401 94.9293 207.244 94.6157 208.086 94.3023C208.957 93.9784 209.827 93.6547 210.36 92.9176C211.51 91.7676 206.16 87.7676 205.16 88.3676C205.16 88.5094 205.286 88.6765 205.377 88.7973L205.378 88.7983C205.396 88.8222 205.412 88.8442 205.426 88.8638C205.441 88.8846 205.453 88.9028 205.46 88.9176C206.524 90.4129 204.782 90.8482 203.172 91.2508C202.359 91.4541 201.579 91.6489 201.21 91.9676C200.795 92.1563 200.665 92.5446 200.54 92.9172C200.499 93.0381 200.459 93.1573 200.41 93.2676C199.96 93.7676 198.86 93.6676 197.86 93.5676L197.807 93.5632C197.228 93.5148 196.699 93.4706 196.31 93.5676C190.66 93.4176 185.01 94.4676 179.71 96.4176C177.385 97.2845 175.157 98.3838 172.926 99.4849C169.881 100.988 166.829 102.494 163.51 103.418C158.06 105.118 152.16 104.568 146.61 103.568C146.284 103.503 145.962 103.44 145.646 103.378L145.644 103.377C139.387 102.147 135.21 101.326 131.26 95.5676C130.745 95.0295 130.42 94.3507 130.097 93.6753C129.7 92.8446 129.305 92.0192 128.56 91.4676C128.481 91.413 128.386 91.3474 128.28 91.2734C127.12 90.4673 124.526 88.6638 123.61 89.1676ZM139.996 82.254L139.996 82.2538C139.455 81.4725 138.655 80.3163 138.96 79.6177C139.91 79.8677 140.96 80.6177 141.51 81.4677C141.86 82.5177 142.56 83.4177 143.26 84.2677C145.81 87.8177 150.26 89.5177 154.46 90.1177C157.532 90.5152 160.421 89.6328 163.298 88.7542C164.4 88.4173 165.502 88.081 166.61 87.8177C168.21 87.5677 169.81 87.5677 171.46 87.6177H173.26C173.91 87.6177 178.31 90.6677 176.31 90.5677C173.598 90.5419 171.019 91.3036 168.435 92.0666C166.018 92.7803 163.598 93.4952 161.06 93.5677C153.41 93.4677 144.81 88.6677 140.21 82.5677C140.183 82.5266 140.154 82.4836 140.123 82.4389C140.083 82.3801 140.04 82.3183 139.996 82.254ZM62.2104 159.317C62.8104 160.667 64.8605 161.918 66.2605 162.418H66.3104C66.6182 162.418 66.8123 162.133 67.0094 161.845C67.1324 161.665 67.2567 161.483 67.4105 161.368C67.8019 160.864 68.2035 160.366 68.6055 159.867L68.6058 159.866L68.6061 159.866L68.6064 159.866L68.6067 159.865C70.0012 158.135 71.4016 156.396 72.4105 154.418C75.9105 147.268 76.4604 138.967 76.1105 131.117C76.1605 130.567 72.7605 127.968 72.7605 128.917C72.1605 137.217 71.4105 146.067 66.7605 153.217C65.9243 154.4 65.0383 155.565 64.1503 156.733L64.1493 156.735C63.4977 157.592 62.8451 158.45 62.2104 159.317ZM48.5604 144.968C47.2104 144.468 44.1604 142.818 44.2604 141.168C43.0604 133.068 44.2104 124.968 45.6104 116.968C45.8727 115.296 46.221 113.645 46.5707 111.988L46.5707 111.988C46.7543 111.118 46.9383 110.246 47.1104 109.368C47.1104 108.881 47.6972 109.138 48.0057 109.273L48.0074 109.274C48.0297 109.283 48.0505 109.292 48.0695 109.301C48.0753 109.303 48.0809 109.305 48.0864 109.308C48.0949 109.311 48.1029 109.315 48.1104 109.318C48.8604 109.618 53.1604 112.218 52.1104 113.018C51.4274 114.649 51.1187 116.396 50.8129 118.127C50.7158 118.677 50.6189 119.225 50.5104 119.768C49.5604 125.318 48.6105 130.968 48.5104 136.618C48.5104 138.565 48.6405 140.512 48.7692 142.44L48.7692 142.44L48.7693 142.441L48.7693 142.441C48.819 143.186 48.8686 143.929 48.9104 144.668C48.9104 144.918 48.8604 144.968 48.7104 144.968H48.5604ZM46.4104 176.568C48.3604 184.768 58.8603 189.168 66.3103 190.968C67.7603 191.368 69.2104 191.518 70.7104 191.518C72.3604 191.518 74.0104 191.318 75.6104 190.918C86.5104 188.418 80.7604 182.318 74.1604 178.868C73.4264 178.445 72.7789 178.139 72.211 177.87C70.2253 176.93 69.2103 176.45 68.8604 173.068C68.7902 172.598 68.7388 172.193 68.6937 171.838L68.6937 171.838C68.4177 169.665 68.3824 169.387 65.7604 167.668C65.7158 167.642 65.638 167.593 65.5362 167.529L65.5353 167.529C64.8366 167.089 63.0104 165.939 63.0104 166.768C63.0798 167.214 63.1375 167.669 63.1955 168.126C63.4295 169.971 63.6685 171.855 64.7104 173.418C66.8299 176.44 70.1203 178.23 73.3238 179.972C74.2011 180.449 75.0719 180.923 75.9104 181.418C78.5604 186.018 70.5604 187.618 67.4104 188.018C64.1104 188.618 56.2104 186.768 53.8604 184.418C50.1416 180.608 50.0837 175.112 50.0305 170.056C50.0251 169.538 50.0197 169.024 50.0104 168.518L50.0087 168.468C49.9092 165.484 49.8065 162.402 49.1104 159.518C48.3104 158.718 46.7104 157.518 45.6104 157.518C46.2104 160.918 46.4104 164.468 46.2104 167.968C46.1952 168.255 46.1791 168.543 46.1629 168.833C46.0186 171.411 45.8709 174.05 46.4104 176.568ZM91.0103 133.468C88.1103 133.418 85.0602 133.118 82.6103 131.418C82.4769 131.32 82.3355 131.222 82.1914 131.122C81.5251 130.661 80.798 130.157 80.5103 129.418C80.7115 129.149 81.2279 129.421 81.6517 129.644C81.8595 129.753 82.0451 129.851 82.1603 129.868C90.7103 130.818 99.4102 128.068 107.06 124.468C115.81 120.268 122.21 114.068 127.71 106.168C127.71 106.068 127.91 105.818 127.96 105.768C128.11 105.717 128.36 105.768 128.51 105.818C130.01 106.468 131.41 107.468 132.46 108.718C132.693 108.95 132.535 109.152 132.382 109.348C132.338 109.405 132.294 109.461 132.26 109.518C128.56 115.668 123.61 121.018 117.66 125.068C110.06 130.468 100.81 133.468 91.4603 133.468H91.0103ZM98.9104 120.418C98.9104 120.418 98.8604 120.418 98.8604 120.468C99.2104 121.118 100.06 121.618 100.76 121.918C102.035 121.875 103.165 121.219 104.243 120.593C104.433 120.483 104.622 120.373 104.81 120.268C105.027 120.128 105.249 119.998 105.47 119.869C105.961 119.581 106.446 119.297 106.86 118.918C106.787 118.663 106.582 118.487 106.379 118.314C106.303 118.25 106.228 118.185 106.16 118.118C106.112 118.08 106.054 118.033 105.989 117.981C105.449 117.547 104.401 116.705 103.91 117.018C103.502 117.317 103.097 117.628 102.691 117.939C101.606 118.772 100.511 119.613 99.3103 120.268C99.2539 120.286 99.2045 120.312 99.1568 120.337C99.0779 120.379 99.0039 120.418 98.9104 120.418Z" fill="black"/>
</svg>
