<svg width="149" height="162" viewBox="0 0 149 162" fill="none" xmlns="http://www.w3.org/2000/svg">
<path d="M114.277 0.349191C98.9793 3.19085 84.1942 22.997 84.1514 40.7094C84.1514 44.2775 84.1514 44.2775 83.425 44.662C80.4551 46.3072 81.5234 49.9822 85.177 50.6445C88.1468 51.1786 85.7325 58.1653 82.2499 59.1695C78.9809 60.131 70.0927 58.7422 67.9774 56.9688C66.3964 55.6441 66.2468 51.2641 67.7211 49.6403C68.6398 48.6147 73.4044 48.1661 76.7161 48.7857C82.0148 49.7899 82.1644 44.6834 76.887 42.9528C75.7974 42.6109 75.7974 42.6109 75.5196 39.9829C73.383 19.6426 63.747 9.1733 43.8767 5.62657C27.6814 2.74217 13.9431 10.9894 8.62302 26.8002C3.73023 41.3076 28.8992 58.9131 54.5597 58.9558C57.3159 58.9558 60.0293 58.8704 60.5849 58.7849C61.5463 58.614 61.589 58.6353 61.9309 59.255C63.4692 62.2675 67.1228 63.9554 74.4727 65.0451C82.7413 66.2843 87.9546 64.6392 90.5612 60.0028C91.1594 58.9131 91.1594 58.9131 93.531 58.6567C112.397 56.5201 125.366 49.7899 133.25 37.9745C136.711 32.7826 138.677 27.0993 138.186 23.6166C138.1 22.9543 138.036 22.3133 138.079 22.1638C138.335 20.5613 136.754 15.0276 135.173 12.0577C130.323 3.01993 122.76 -1.23188 114.277 0.349191ZM120.922 7.01535C125.473 8.21184 133.015 17.3992 129.468 17.3992C121.008 17.3992 103.445 30.0478 92.2918 44.1493C89.7279 47.4182 88.8092 44.9184 90.2193 38.4446C94.4498 19.1725 109.342 3.91729 120.922 7.01535ZM41.676 11.5236C56.739 13.4892 65.4349 20.7109 68.0202 33.3809C69.1526 39.0001 69.3662 42.3973 68.5757 42.3973C67.1869 42.3973 64.7726 43.551 63.4265 44.8757C62.3796 45.8799 62.3796 45.8799 60.4567 43.8501C49.6883 32.5262 32.2964 23.7662 20.5452 23.7235C17.1907 23.7021 17.2976 23.9585 19.4342 21.1168C23.6219 15.5831 28.3437 12.4423 33.6638 11.6517C34.5185 11.5236 35.4586 11.374 35.7577 11.3313C37.0396 11.1603 39.3258 11.2244 41.676 11.5236ZM131.861 23.638C133.037 24.8131 130.879 30.7315 127.61 35.2824C122.225 42.7605 114.341 47.7815 103.594 50.5163C100.731 51.2427 93.296 52.5674 93.1037 52.3751C92.826 52.0974 103.893 40.453 107.483 37.2481C117.247 28.4881 129.746 21.5228 131.861 23.638ZM22.9595 31.1588C33.0229 32.7826 48.1072 41.1367 58.0423 50.5377C59.7943 52.2042 59.7943 52.2042 58.085 52.2042C42.4025 52.2897 27.5746 46.9909 18.6436 38.1241C12.8107 32.3126 14.3704 29.77 22.9595 31.1588Z" fill="black"/>
<path d="M137.248 49.0181C133.444 49.4454 119.535 52.0734 118.488 52.5435C117.014 53.2058 116.523 55.086 117.505 56.2611C118.574 57.5431 118.745 57.5431 131.586 55.7484C142.183 54.2741 142.439 54.4664 141.093 62.5854C140.666 65.1921 140.495 65.8758 139.512 68.6106C138.658 70.9395 139.235 72.6488 141.029 73.1402C144.063 73.9948 146.841 70.0421 147.695 63.6537C149.234 52.1375 146.264 47.9712 137.248 49.0181Z" fill="black"/>
<path d="M7.42655 51.2667C0.803127 52.6982 -1.01297 60.8813 2.85425 71.7779C5.97367 80.5593 11.4433 79.021 8.87943 70.0687C7.72567 65.9664 7.44792 64.3212 7.44792 61.2659C7.44792 56.8645 7.0847 57.0141 18.3018 57.356C22.4895 57.5055 24.2629 55.7321 22.1049 53.5742C20.4384 51.9077 11.1656 50.4548 7.42655 51.2667Z" fill="black"/>
<path d="M60.5429 64.8324C59.0686 65.7084 58.9832 66.2212 58.0858 81.0704C55.821 118.76 55.5005 153.8 57.3594 157.411C59.1114 160.787 60.7993 161.257 72.5078 161.641C95.2625 162.389 95.9889 161.513 94.6215 135.019C94.2369 127.669 94.0873 116.73 94.0873 96.3043C94.0873 69.0628 94.0232 68.0373 92.3781 66.3066C90.797 64.6401 88.9595 65.3879 88.1476 68.0159C87.5921 69.8534 87.6135 122.563 88.169 135.126C89.0236 153.458 88.8527 154.612 85.3273 155.21C81.9088 155.787 63.9614 155.296 63.2777 154.612C62.829 154.163 62.7008 151.108 62.6795 142.07C62.6795 126.986 63 114.999 64.0896 90.4714C64.7947 74.9384 64.8588 67.204 64.346 66.0716C63.6837 64.5973 61.9103 64.0205 60.5429 64.8324Z" fill="black"/>
<path d="M114.278 65.4715C111.693 65.5784 106.587 65.7493 102.933 65.8561C95.2842 66.0911 94.9851 66.1552 94.4937 67.9286C93.5108 71.4967 94.8996 71.7745 112.462 71.6035C127.098 71.4753 129.256 71.6463 129.641 72.8855C130.581 76.069 130.282 84.594 129.171 85.8332C128.038 87.1152 123.679 87.8202 108.296 89.1877C99.4933 89.9782 97.9763 90.3628 97.1217 91.9652C95.1774 95.6615 102.634 96.9435 117.697 95.512C134.875 93.8668 137.631 91.3883 136.82 78.3979C136.029 65.9629 133.828 64.7024 114.278 65.4715Z" fill="black"/>
<path d="M38.0012 65.9227C16.7635 67.3756 13.0031 70.2814 11.6143 86.2203C10.6955 96.5828 12.8321 97.9075 31.8905 98.8262C47.3594 99.574 52.765 98.5698 52.1026 95.0444C51.6967 92.801 50.7139 92.6087 37.467 92.3951C23.451 92.16 18.665 91.8396 17.9386 91.1131C17.2549 90.4294 17.8745 82.5454 18.8573 79.3619C20.4811 74.1272 23.6005 73.3581 51.3548 71.3283C54.1965 71.1146 55.2648 70.1532 54.8588 68.1448C54.3888 65.9014 48.9405 65.1749 38.0012 65.9227Z" fill="black"/>
<path d="M74.0463 78.4638C72.7216 79.7031 72.4652 85.536 72.4865 113.974C72.4865 137.049 72.6147 139.314 74.3454 145.318C74.559 146.087 76.2897 146.301 76.952 145.638C77.4007 145.19 77.9135 142.946 78.4049 139.293C79.0245 134.571 78.704 83.6985 78.0417 80.2799C77.593 77.9938 75.5419 77.0751 74.0463 78.4638Z" fill="black"/>
<path d="M126.584 96.0024C125.473 96.9852 125.452 101.579 126.435 137.046C126.798 150.464 126.841 149.973 125.43 150.4C123.892 150.849 119.17 151.468 110.645 152.323C97.4411 153.648 95.7959 154.16 95.7959 156.959C95.7959 160.314 101.543 160.356 122.525 157.237C133.656 155.57 133.891 154.951 132.695 131.277C132.481 127.218 132.182 120.979 131.99 117.39C131.306 103.438 130.857 97.7117 130.366 96.7716C129.704 95.5537 127.61 95.1264 126.584 96.0024Z" fill="black"/>
<path d="M19.5614 100.046C18.429 101.093 18.429 101.691 19.4332 115.579C22.2962 155.683 22.7449 156.58 40.7777 157.157C51.7811 157.52 54.1955 156.901 53.6186 153.824C53.1699 151.474 50.8624 150.94 40.7777 150.94C34.3465 150.94 32.1672 150.769 31.0348 150.17C28.941 149.102 27.7659 142.756 25.8429 122.203C23.8132 100.73 23.8345 100.901 22.638 99.982C21.6338 99.2128 20.416 99.2555 19.5614 100.046Z" fill="black"/>
<path d="M114.749 102.244C113.21 103.44 113.103 112.969 114.62 114.572C116.244 116.345 118.21 114.401 118.659 110.619C119.471 103.419 117.804 99.8293 114.749 102.244Z" fill="black"/>
<path d="M39.5398 126.748C38.0014 128.351 38.3005 137.004 39.9884 139.589C42.4028 143.328 44.6676 139.376 44.1121 132.346C43.6634 126.727 41.7618 124.42 39.5398 126.748Z" fill="black"/>
<path d="M30.5854 126.899C28.7265 128.609 29.9657 138.693 32.316 141.065C35.7132 144.441 37.1447 138.309 35.0936 129.164C34.5167 126.557 32.2092 125.404 30.5854 126.899Z" fill="black"/>
</svg>
