<svg width="332" height="345" viewBox="0 0 332 345" fill="none" xmlns="http://www.w3.org/2000/svg">
<path d="M216.642 0.192716C165.983 1.88062 128.294 8.56814 111.799 18.8024C96.1167 28.5239 90.9889 46.4926 97.0995 70.166C99.6207 79.9516 101.18 82.7505 103.702 82.0241C105.731 81.4472 105.753 80.037 103.937 70.5933C96.715 32.9039 105.774 21.58 149.681 13.4609C185.576 6.81614 243.52 4.65819 258.369 9.40141C273.347 14.2087 275.013 28.3957 263.625 54.4834C260.185 62.3675 259.865 63.8631 261.318 65.38C263.839 68.008 266.723 64.5254 271.659 52.8596C285.418 20.4048 277.257 3.2694 246.661 0.406375C243.477 0.107252 223.543 -0.0423087 216.642 0.192716Z" fill="black"/>
<path d="M175.191 19.419C157.585 20.8077 142.822 25.0382 142.822 28.6918C142.822 30.9138 145.471 31.042 153.077 29.2473C189.506 20.6154 241.959 29.9523 246.574 45.8699C248.198 51.4678 243.476 52.7925 215.893 54.5658C198.736 55.6769 193.181 56.2537 172.307 59.1595C139.937 63.6677 128.229 63.625 122.139 58.9886C117.631 55.5487 122.396 47.0664 133.506 38.7124C137.587 35.657 138.121 34.9092 137.48 33.0077C136.604 30.3583 132.929 31.3625 126.797 35.9348C109.491 48.8398 108.935 63.6036 125.558 68.0264C134.788 70.4834 144.98 69.992 175.191 65.6761C196.728 62.5994 201.321 62.0866 217.709 60.8688C246.318 58.7536 251.254 57.2366 253.176 49.8653C257.77 32.153 216.748 16.15 175.191 19.419Z" fill="black"/>
<path d="M211.408 31.941C203.331 33.693 194.486 46.9826 199.635 49.6319C201.494 50.6148 202.733 49.8242 203.759 47.0039C208.224 34.9108 220.018 33.4793 223.479 44.6323C224.313 47.2817 224.42 47.5167 225.103 48.2218C227.411 50.572 229.761 48.0936 229.013 44.0982C227.347 35.3381 219.804 30.1035 211.408 31.941Z" fill="black"/>
<path d="M159.383 33.9532C152.14 34.936 144.106 44.2729 144.598 51.1314C144.833 54.5285 148.999 54.9772 149.533 51.6655C150.131 47.9906 154.447 42.3927 158.058 40.6621C162.054 38.7605 165.002 40.4912 166.284 45.5762C167.78 51.3237 172.95 49.8067 172.202 43.8242C171.412 37.4999 165.707 33.1199 159.383 33.9532Z" fill="black"/>
<path d="M266 66.9625C260.103 68.2445 254.057 74.0133 254.057 78.3719C254.057 81.1281 256.663 81.9828 258.586 79.8675C262.539 75.5303 265.295 73.9492 268.607 74.1628C271.256 74.3338 271.79 75.1457 273.265 81.4913C274.952 88.7344 276.662 90.4009 285.977 94.0972C301.468 100.229 306.125 106.19 306.125 119.843C306.125 125.954 306.168 125.526 303.049 156.379C301.788 169.049 302.45 173.258 305.762 173.258C307.856 173.258 308.924 171.356 309.587 166.485C310.228 161.571 312.45 133.838 312.92 125.078C313.988 104.353 308.326 95.8278 287.644 86.9396C281.811 84.4398 281.533 84.1193 280.401 79.1838C278.2 69.4196 273.414 65.3387 266 66.9625Z" fill="black"/>
<path d="M202.65 75.9582C164.747 77.1547 116.396 87.4745 113.533 94.9952C112.294 98.2642 114.986 99.0548 120.284 96.9609C151.927 84.526 213.546 78.6076 242.369 85.2524C247.369 86.4062 250.253 83.7354 247.091 80.8724C243.501 77.6248 222.734 75.3173 202.65 75.9582Z" fill="black"/>
<path d="M92.9972 82.2172C88.9377 83.5633 86.7156 86.6613 85.5405 92.6438C84.4936 98.0066 84.6004 97.9212 76.3104 101.489C56.3761 110.121 53.1712 116.68 53.5771 148.216C53.7694 164.818 54.4959 168.087 57.8717 167.98C60.8202 167.894 60.8629 167.553 60.8843 150.503C60.9056 118.817 62.0166 116.189 78.1906 109.16C89.2154 104.374 90.9033 102.664 92.2921 95.0154C93.2108 89.9303 93.7664 89.1825 96.5226 89.1825C99.236 89.1825 100.24 89.7594 103.103 92.8788C105.176 95.1222 107.975 93.3916 107.312 90.2508C106.137 84.6743 98.5096 80.3798 92.9972 82.2172Z" fill="black"/>
<path d="M263.436 84.1365C262.154 84.7988 261.855 85.4184 259.27 92.5974C246.963 126.868 236.216 150.178 229.636 156.887C224.23 162.4 223.14 162.528 178.293 161.972C137.848 161.502 134.087 161.203 127.549 157.934C116.866 152.593 109.816 136.205 104.367 104.049C103.256 97.5115 103.107 97.191 101.12 97.191C98.278 97.191 98.043 98.5798 99.2395 107.981C103.128 138.235 111.589 156.823 124.494 163.404C131.673 167.036 137.784 167.741 166.649 168.126C175.345 168.233 187.267 168.446 193.143 168.574C206.368 168.874 217.692 168.745 220.705 168.254C236.879 165.626 242.711 156.524 263.864 101.037C268.821 88.0251 268.65 81.4657 263.436 84.1365Z" fill="black"/>
<path d="M156.285 98.3694C130.688 104.095 154.02 155.331 182.137 155.181C204.379 155.053 228.629 110.655 211.943 100.634C205.212 96.5747 192.778 100.015 184.616 108.198C182.693 110.121 182.693 110.121 180.343 107.77C172.95 100.399 163.57 96.7456 156.285 98.3694ZM164.318 105.847C170.877 107.514 177.629 112.813 181.731 119.522C184.68 124.35 188.739 122.919 186.966 117.684C186.197 115.441 187.351 113.988 192.692 110.398C210.874 98.2199 217.263 110.954 203.396 131.722C190.833 150.524 178.206 152.019 163.656 136.422C148.336 120.034 148.721 101.895 164.318 105.847Z" fill="black"/>
<path d="M281.299 121.037C273.757 123.067 267.603 134.028 267.582 145.48C267.539 165.2 284.397 171.332 292.901 154.667C301.362 138.087 294.289 117.533 281.299 121.037ZM285.871 127.853C287.666 128.9 290.764 135.609 289.247 135.139C287.068 134.476 282.367 134.519 278.885 135.224C276.449 135.737 276.534 135.886 277.816 133.216C280.145 128.472 283.329 126.357 285.871 127.853ZM288.243 142.424C289.909 142.852 289.995 143.749 288.628 147.787C284.461 160.286 276.406 160.073 275.317 147.445C274.911 142.894 275.082 142.424 277.218 142.125C279.91 141.762 286.341 141.912 288.243 142.424Z" fill="black"/>
<path d="M82.5967 122.106C74.4563 124.285 68.4525 136.549 69.9481 147.937C72.512 167.273 90.3952 169.282 96.8691 150.971C102.317 135.502 94.1556 118.986 82.5967 122.106ZM87.1476 129.135C88.0236 129.562 89.4124 130.994 90.1175 132.233C90.673 133.195 90.673 133.195 88.3014 133.131C85.9298 133.066 82.8103 133.43 80.4387 134.049C78.9645 134.434 78.9858 134.519 80.2251 132.596C82.3403 129.391 84.9469 128.088 87.1476 129.135ZM90.6944 140.203C93.2369 140.78 91.6986 149.604 88.2373 154.176C83.2377 160.842 77.362 156.206 77.0843 145.373C76.9775 141.036 76.8065 141.335 79.7123 140.673C84.0923 139.69 87.7886 139.519 90.6944 140.203Z" fill="black"/>
<path d="M62.9144 171.764C42.9587 172.491 32.6817 176.272 32.1903 183.088C31.7416 189.476 39.4333 192.724 63.0426 196.1C82.8702 198.942 94.4718 199.454 95.3692 197.489C96.5871 194.797 95.647 194.369 85.1349 192.916C55.2227 188.771 45.2235 186.87 40.2238 184.349C38.2368 183.344 38.3436 183.088 41.5058 181.55C50.1162 177.426 71.2044 176.935 111.201 179.99C136.926 181.956 150.707 182.49 186.73 182.981C191.195 183.045 197.84 183.131 201.472 183.195C205.126 183.259 213.288 183.344 219.633 183.409C271.574 183.921 281.124 184.156 299.755 185.246C314.07 186.079 320.587 186.913 324.54 188.43C326.74 189.263 316.677 193.664 306.956 196.1C292.961 199.625 282.214 200.651 254.566 201.1C249.332 201.185 247.729 201.847 247.729 203.92C247.729 207.082 253.861 207.744 274.223 206.783C311.229 205.052 339.175 193.942 329.903 184.669C325.117 179.905 303.601 177.96 249.332 177.426C198.353 176.935 184.7 176.742 163.868 176.251C143.272 175.76 135.152 175.354 113.017 173.687C89.3868 171.892 74.7297 171.337 62.9144 171.764Z" fill="black"/>
<path d="M138.209 187.722C136.308 188.662 136.457 191.119 138.466 191.952C139.705 192.465 149.191 193.363 170.066 194.922C203.461 197.444 209.977 197.208 209.977 193.512C209.977 191.696 208.033 191.183 199.657 190.777C197.136 190.649 188.248 190.115 179.894 189.602C145.26 187.444 139.299 187.167 138.209 187.722Z" fill="black"/>
<path d="M110.667 190.688C103.958 192.312 98.8086 198.465 98.8086 204.854C98.83 215.943 112.12 221.348 121.115 213.934C125.58 210.238 122.589 206.649 117.269 209.319C109.449 213.251 102.719 208.742 106.03 201.841C109.449 194.748 122.311 195.624 122.311 202.974C122.311 205.986 126.05 206.841 127.247 204.106C130.516 196.713 120.217 188.381 110.667 190.688Z" fill="black"/>
<path d="M48.8367 196.777C45.7814 198.636 46.0378 211.84 49.2427 218.442C55.7165 231.796 77.702 232.287 87.338 219.318C91.889 213.165 93.5341 203.101 90.2865 201.178C87.6158 199.597 86.0561 201.029 85.586 205.516C84.9237 211.669 81.7188 217.16 77.467 219.489C76.3773 220.066 76.3773 220.066 76.1423 219.468C75.3518 217.374 75.3518 210.28 76.1423 205.088C76.826 200.687 76.5483 199.832 74.4544 199.597C70.8436 199.234 67.4464 214.383 69.6898 220.771C70.1385 222.032 70.1385 222.032 67.425 221.903C57.319 221.455 54.2423 217.459 52.8749 202.973C52.6185 200.345 52.3407 198.016 52.2339 197.845C51.6143 196.67 49.905 196.136 48.8367 196.777Z" fill="black"/>
<path d="M133.486 198.144C132.225 198.678 131.627 200.28 132.246 201.477C132.973 202.887 133.635 202.994 147.096 204.34C151.262 204.746 157.95 205.429 161.945 205.835C174.572 207.117 179.593 207.502 193.994 208.292C198.353 208.527 204.1 208.869 206.813 209.04C216.364 209.66 218.415 209.403 219.398 207.395C220.53 205.13 219.013 203.763 215.039 203.485C214.035 203.421 210.638 203.186 207.454 202.951C204.292 202.716 196.985 202.225 191.216 201.883C180.384 201.199 176.282 200.9 162.159 199.639C152.8 198.827 146.177 198.357 139.404 198.037C133.87 197.78 134.319 197.78 133.486 198.144Z" fill="black"/>
<path d="M231.599 198.447C218.737 202.421 217.049 217.848 228.843 223.488C237.176 227.462 247.197 221.181 247.154 211.993C247.111 205.114 240.338 204.537 240.018 211.395C239.719 218.125 234.527 220.689 230.04 216.352C224.698 211.181 231.151 201.909 238.031 204.836C240.765 205.99 242.603 205.092 242.603 202.635C242.603 199.409 236.257 196.995 231.599 198.447Z" fill="black"/>
<path d="M290.609 205.879C289.477 206.605 289.178 207.673 289.05 211.306C288.537 226.625 281.678 236.218 272.726 234.103C271.188 233.718 271.209 233.975 271.273 222.395C271.337 212.203 271.295 211.669 270.184 210.878C266.936 208.549 265.376 213.549 264.97 227.522C264.928 229.125 264.928 229.125 264.351 228.163C262.663 225.343 261.787 220.878 261.723 214.81C261.68 212.459 261.659 210.28 261.637 209.938C261.53 207.588 257.77 207.31 256.659 209.575C255.441 212.096 255.035 220.023 255.911 224.061C259.928 242.479 280.674 246.901 290.289 231.368C296.891 220.707 297.126 201.691 290.609 205.879Z" fill="black"/>
<path d="M135.88 206.353C134.747 206.866 131.692 210.092 128.316 214.365C126.842 216.245 124.278 219.45 122.633 221.523C116.181 229.642 111.095 233.787 101.908 238.38C91.2252 243.701 78.9398 247.568 65.6075 249.747C61.7189 250.388 53.2794 251.52 53.2153 251.414C50.0745 244.619 42.2118 240.389 35.6098 241.949C32.8536 242.611 31.358 243.551 24.4141 249.021C21.3587 251.435 18.9871 252.973 13.9448 255.858C1.01841 263.272 -2.16511 270.451 3.32592 279.83C10.2912 291.646 26.7643 285.556 23.944 272.203C22.598 265.793 10.1416 262.716 11.3381 269.083C11.6159 270.643 12.3851 271.156 15.8463 272.16C18.9658 273.079 19.1794 276.839 16.2737 279.617C12.0005 283.719 4.9711 274.617 7.85549 268.72C9.03062 266.327 10.9749 264.874 19.0085 260.323C22.427 258.4 25.8028 256.136 28.4095 254.02C29.5846 253.08 31.4862 251.542 32.6399 250.602C39.5838 244.983 46.015 247.995 49.4549 258.464C51.4419 264.618 50.224 265.964 38.3446 270.686C29.7983 274.083 25.5464 276.433 25.2473 277.907C24.6491 280.877 26.7857 281.39 31.2939 279.403C32.7681 278.741 36.8063 277.181 40.2675 275.92C55.5228 270.408 58.3858 266.968 55.7364 257.311C55.6296 256.883 55.7151 256.841 57.5098 256.712C82.2301 254.832 105.861 246.393 119.727 234.449C126.5 228.616 137.354 215.604 139.64 210.562C141.029 207.507 138.807 205.007 135.88 206.353Z" fill="black"/>
<path d="M165.748 208.938C164.232 209.301 163.356 210.241 160.001 215.134C156.988 219.514 152.203 225.902 145.686 234.277C129.042 255.601 123.807 263.784 118.722 276.582C116.65 281.838 114.406 289.786 114.406 291.944C114.406 292.243 114.342 292.478 114.235 292.478C114.15 292.478 113.274 292.371 112.312 292.265C103.488 291.153 98.04 296.538 91.5875 312.797C87.4639 323.181 86.4169 328.8 87.8698 332.988C91.6729 343.863 113.423 348.435 119.064 339.547C124.982 330.21 110.304 319.463 98.9587 324.847C93.895 327.219 95.647 331.877 101.266 330.915C107.035 329.933 112.505 331.556 113.317 334.484C114.812 339.91 97.164 337.09 94.4291 331.471C92.1644 326.877 100.796 303.866 106.18 300.17C110.411 297.264 120.923 300.384 123.316 305.255C124.726 308.139 123.935 316.194 121.35 325.147C119.449 331.77 123.594 333.992 126.008 327.646C132.717 309.998 130.815 298.247 120.666 294.572C119.833 294.273 119.833 294.487 120.731 290.876C122.461 283.91 126.286 274.702 130.367 267.694C135.452 258.976 139.639 253.122 152.438 236.82C165.236 220.539 169.103 214.258 168.569 210.732C168.334 209.066 167.458 208.532 165.748 208.938Z" fill="black"/>
<path d="M144.193 212.123C143.788 212.379 143.189 213.148 142.612 214.174C140.796 217.528 135.946 224.323 130.69 230.946C120.435 243.851 113.576 250.261 103.043 256.884C100.18 258.679 98.8978 259.427 91.8684 263.422C89.7532 264.64 87.7021 265.837 87.2961 266.114C86.5697 266.606 86.5697 266.606 85.9073 266.093C82.5101 263.508 77.0405 263.358 73.4296 265.773C70.8871 267.482 69.7333 268.956 65.9088 275.494C64.4773 277.951 62.2125 281.562 60.9306 283.506C56.166 290.6 55.6746 291.369 54.8413 293.035C50.1836 302.287 60.2255 310.406 71.464 306.496C82.0828 302.8 80.0531 285.771 69.3274 288.506C64.4773 289.745 64.5201 294.894 69.3701 294.851C72.7032 294.83 73.2587 298.377 70.182 299.958C67.6181 301.261 62.4903 300.748 60.5246 298.954C59.6486 298.163 60.4178 296.475 64.4346 290.301C67.0626 286.262 69.7974 281.711 72.5323 276.84C77.0618 268.785 81.3564 268.358 86.121 275.515C89.7532 280.985 93.4922 277.802 90.8001 271.499C90.6933 271.199 91.0565 270.943 92.8299 270.046C102.658 265.11 112.657 258.807 118.576 253.829C131.844 242.633 149.749 217.208 147.42 212.871C146.821 211.76 145.347 211.418 144.193 212.123Z" fill="black"/>
<path d="M186.835 212.164C184.635 212.762 184.528 214.535 186.494 217.997C193.203 229.812 194.89 235.816 197.839 258.293C199.591 271.518 202.112 281.304 205.103 286.346C206.001 287.863 206.043 287.607 204.783 288.419C192.711 296.174 198.48 318.032 216.641 333.266C230.187 344.611 252.557 335.317 248.989 319.826C245.912 306.43 221.726 310.468 221.662 324.399C221.641 328.843 226.021 329.847 227.879 325.809C228.243 325.04 228.691 324.078 228.884 323.694C231.106 319.121 239.524 316.579 241.895 319.762C245.421 324.57 239.374 331.428 231.341 331.749C224.589 332.005 220.85 329.548 213.757 320.147C202.219 304.87 202.198 294.273 213.671 291.709C219.568 290.406 222.346 292.115 229.781 301.665C235.528 309.037 236.404 309.699 238.541 308.225C240.549 306.879 239.994 305.105 235.571 298.931C227.153 287.137 222.239 284.081 213.244 285C212.218 285.107 212.218 285.107 211.47 283.184C208.159 274.702 206.834 269.083 204.783 254.981C201.941 235.474 198.971 226.158 192.54 216.522C189.741 212.313 188.844 211.63 186.835 212.164Z" fill="black"/>
<path d="M174.533 215.031C173.721 215.586 173.379 216.633 173.635 217.702C173.934 219.026 173.699 226.654 173.293 229.346C172.097 236.888 170.43 241.29 163.572 255.049C156.778 268.702 155.218 273.125 155.175 278.83C155.154 281.073 155.154 281.073 153.402 281.97C145.561 285.987 145.283 293.401 152.483 307.481C154.983 312.374 156.628 313.485 158.53 311.583C159.491 310.643 159.363 309.874 157.419 304.875C151.671 290.068 151.97 288.017 160.175 285.838C168.102 283.722 170.708 287.034 176.37 306.477C178.314 313.165 176.755 316.006 170.537 317.053C162.888 318.356 162.589 313.506 170.238 312.053C173.101 311.498 174.234 310.601 174.234 308.87C174.234 304.426 165.495 305.067 160.645 309.896C152.056 318.421 164.17 327.8 176.157 321.86C183.1 318.442 184.81 313.677 182.267 304.981C176.114 284.064 172.289 278.872 163.422 279.3C161.265 279.406 161.265 279.406 161.67 277.462C162.611 272.89 164.341 268.702 169.768 257.87C175.686 246.054 177.802 240.563 178.934 234.068C181.028 222.018 178.72 212.082 174.533 215.031Z" fill="black"/>
<path d="M213.737 215.643C209.015 218.912 216.579 246.602 226.856 263.673C233.415 274.57 244.418 286.428 251.747 290.53C252.025 290.68 251.939 290.915 251.213 292.069C245.358 301.363 250.187 308.99 267.237 317.387C270.57 319.032 272.728 318.648 272.728 316.404C272.728 314.716 272.792 314.802 265.699 310.08C254.353 302.538 252.965 299.76 257.323 293.351C261.34 287.432 265.806 286.257 272.963 289.248C280.463 292.368 291.124 302.431 291.103 306.341C291.081 310.55 282.364 319.139 280.89 316.404C279.736 314.246 281.766 309.097 284.586 307.003C289.265 303.542 285.334 299.162 279.993 301.876C273.882 304.995 271.596 318.092 276.489 322.088C284.864 328.967 301.166 313.434 296.786 302.73C294.735 297.688 284.736 288.714 277.215 285.125C269.032 281.257 263.178 281.322 257.58 285.381C256.212 286.364 253.477 284.334 245.679 276.557C232.539 263.46 222.39 242.884 218.352 221.219C217.519 216.69 217.39 216.284 216.856 215.771C216.066 215.023 214.698 214.98 213.737 215.643Z" fill="black"/>
<path d="M85.6047 281.087C84.9851 281.558 80.5623 288.01 79.6863 289.698C78.4471 292.112 80.6478 294.42 83.1049 293.287C84.2372 292.775 89.2369 285.489 89.6215 283.78C90.2197 281.216 87.6344 279.464 85.6047 281.087Z" fill="black"/>
</svg>
