<svg width="119" height="95" viewBox="0 0 119 95" fill="none" xmlns="http://www.w3.org/2000/svg">
<path d="M82.3081 0.764284C82.0731 0.828382 81.1116 1.02067 80.1715 1.1916C74.125 2.34536 74.36 7.68683 80.4706 7.68683C87.6496 7.70819 90.7049 9.67386 103.161 22.3866C115.147 34.5865 114.357 36.4453 90.6408 52.2774C65.2581 69.2206 46.0715 77.7456 38.9781 75.2458C34.4485 73.6433 25.0261 63.4945 12.698 46.9146C7.207 39.5434 7.22837 39.522 38.6149 24.7154C74.4668 7.81502 76.3684 6.704 73.4199 4.20419C71.5611 2.64448 73.0567 2.02487 29.4275 22.2584C6.88651 32.7277 5.2627 33.9669 2.16465 43.0474C-0.37789 50.5254 0.0280619 54.7559 4.02348 62.5972C12.6339 79.5617 31.735 96.0775 41.2856 94.8169C50.5797 93.5991 89.5511 72.4896 107.969 58.7299C112.37 55.4396 113.588 53.8372 114.549 50.1195C114.87 48.9657 115.724 46.1882 116.472 43.9234C120.596 31.6594 118.737 26.9589 104.144 12.6651C93.4611 2.23853 88.1623 -0.645865 82.3081 0.764284ZM107.969 49.3076C107.477 52.9611 69.5099 76.1004 48.8705 85.3518C42.8239 88.0653 43.2513 88.0439 43.4222 85.6296C43.6145 82.8093 43.7427 82.4674 44.64 82.4674C54.1051 82.4461 82.2654 67.4259 104.315 50.6536C106.323 49.1367 107.99 47.8974 108.054 47.8761C108.118 47.8547 108.075 48.517 107.969 49.3076ZM12.228 56.8284C13.7663 58.7727 16.3516 62.0844 17.9968 64.1996C26.2226 74.8826 31.4145 79.8394 36.2005 81.6128C37.1833 81.976 37.867 82.3392 37.8457 82.5102C37.4397 87.7875 36.3073 88.1508 31.03 84.7109C20.1761 77.6601 3.72436 54.2217 6.48056 49.7563C6.54466 49.6494 7.22837 50.4186 7.99754 51.4442C8.78808 52.4697 10.6896 54.8841 12.228 56.8284Z" fill="black"/>
<path d="M76.8587 11.5302C68.1201 12.3634 54.8732 18.4741 30.0674 33.1738C16.7778 41.0578 15.4531 45.3096 23.1235 55.5653C32.1185 67.6156 39.5966 72.5725 40.8572 67.3379C41.1136 66.2696 40.323 65.0944 37.1822 61.8896C30.0674 54.5824 25.1533 48.0231 25.1533 45.8651C25.1533 44.3482 28.3795 41.9979 37.8019 36.5923C67.2441 19.756 78.0979 15.6324 84.3795 18.9014C87.5417 20.5466 90.3406 18.0895 88.3963 15.376C86.3238 12.4703 82.0933 11.0601 76.8587 11.5302Z" fill="black"/>
<path d="M91.6231 19.0554C88.0764 20.0596 88.2687 24.5251 91.965 26.213C95.4263 27.7941 98.097 24.3328 96.0459 20.957C94.9562 19.1623 93.4392 18.5213 91.6231 19.0554Z" fill="black"/>
<path d="M98.9523 27.3403C97.6917 28.1522 97.4781 29.8187 98.4182 31.1648C100.341 33.8569 96.3671 37.1259 71.3049 53.5562C63.8482 58.4277 59.4254 61.1625 53.7848 64.2819C46.7768 68.1919 45.4521 69.2815 45.4521 71.1831C45.4521 76.4177 55.3232 72.1232 77.7146 57.1457C100.042 42.2109 104.55 38.0873 104.507 32.5963C104.486 28.8786 101.281 25.8447 98.9523 27.3403Z" fill="black"/>
<path d="M58.6323 34.2824C57.0512 35.3721 57.0726 36.5258 58.7178 40.3717C60.9184 45.4782 63.461 47.3584 64.8711 44.8585C66.8368 41.3545 61.5167 32.3381 58.6323 34.2824Z" fill="black"/>
<path d="M48.5266 38.4535C44.7235 39.9918 50.0222 51.6576 55.0432 52.79C58.1413 53.4951 57.949 50.0551 54.5518 43.9445C51.7101 38.8381 50.4282 37.6843 48.5266 38.4535Z" fill="black"/>
<path d="M38.8935 42.0029C34.9408 43.9472 39.7695 57.6427 44.0213 56.5317C45.752 56.083 45.8802 53.5618 44.4059 49.0323C43.8077 47.2803 43.2308 45.2505 43.0812 44.5454C42.6325 42.1952 40.7737 41.0842 38.8935 42.0029Z" fill="black"/>
</svg>
