<svg width="395" height="615" viewBox="0 0 395 615" fill="none" xmlns="http://www.w3.org/2000/svg">
<path d="M247.761 0.399583C226.075 1.72427 201.996 10.5484 188.877 21.9791C183.557 26.6155 185.95 31.4229 191.676 27.5984C200.586 21.6159 217.636 14.5652 231.331 11.1894C264.747 2.94212 280.024 13.1337 276.648 41.5076C276.007 46.9559 276.712 48.8574 279.383 48.8574C285.43 48.8574 287.053 31.2947 282.182 18.817C277.182 6.08291 264.641 -0.647346 247.761 0.399583Z" fill="black"/>
<path d="M163.048 4.48371C159.415 4.78283 158.24 5.48791 158.24 7.4322C158.24 8.20137 159.244 9.44059 159.907 9.48333C160.099 9.48333 161.21 9.54742 162.385 9.59016C170.397 9.88928 178.73 13.0942 184.734 18.2006C188.024 20.9995 190.994 20.7004 191.464 17.4955C192.49 10.7653 176.337 3.37268 163.048 4.48371Z" fill="black"/>
<path d="M154.074 13.7355C131.426 18.8419 121.918 53.6256 135.699 81.0166C145.827 101.143 177.512 132.06 193.665 137.529C194.99 137.978 196.037 138.405 195.994 138.491C189.029 151.289 190.652 156.225 201.891 156.246C203.963 156.246 203.963 156.246 203.963 158.468C203.963 163.874 205.181 166.779 207.425 166.779C209.967 166.779 210.8 164.408 210.074 159.237C209.604 155.883 209.583 156.032 210.544 156.032C219.582 156.011 221.868 149.537 216.441 139.175C215.821 137.957 215.309 136.931 215.351 136.91C215.373 136.888 216.078 136.611 216.89 136.269C227.509 131.932 235.457 124.475 232.85 121.291C231.376 119.475 229.004 119.924 223.791 123.043C201.912 136.119 192.81 133.256 164.736 104.54C145.122 84.4565 138.071 71.8079 137.366 55.5271C136.639 38.0071 147.023 21.1494 158.112 21.9186C161.317 22.1322 162.3 22.7946 170.184 30.1017C178.645 37.9216 186.764 40.7206 194.199 38.3917C199.348 36.7465 198.6 33.3707 193.109 33.4562C187.042 33.5416 183.025 31.2555 174.671 22.8801C166.039 14.2482 161.232 12.1116 154.074 13.7355ZM208.877 139.089C208.877 139.303 209.561 141.525 210.416 144.003C211.249 146.503 211.89 148.597 211.826 148.661C211.377 149.11 199.156 149.366 198.707 148.939C198.558 148.768 198.964 147.422 200.652 142.614C201.891 139.153 201.891 139.153 204.049 139.132C205.245 139.132 206.634 139.046 207.168 138.961C208.685 138.683 208.877 138.705 208.877 139.089Z" fill="black"/>
<path d="M238.488 14.3943C224.045 16.2532 204.067 27.0002 205.713 32.0212C206.354 33.9868 208.191 33.7945 211.845 31.3802C224.963 22.6629 242.291 18.9239 250.752 22.962C256.67 25.8037 258.636 30.7392 258.358 42.17C258.187 49.7976 258.679 51.3359 261.307 51.3359C264.063 51.3359 265.836 47.1696 266.071 40.012C266.669 22.7911 255.324 12.2364 238.488 14.3943Z" fill="black"/>
<path d="M80.7671 15.9099C66.4733 16.8073 46.3253 29.285 41.5393 40.2243C39.4454 44.9675 43.9536 47.5955 46.7739 43.2796C58.8457 24.6699 87.1341 16.38 98.4153 28.1312C102.902 32.8104 107.645 30.5883 104.312 25.375C100.189 18.9012 91.1081 15.269 80.7671 15.9099Z" fill="black"/>
<path d="M239.152 32.3408C238.041 33.0031 237.828 34.05 237.315 41.9341C236.225 58.2576 236.653 62.4453 239.43 62.4453C242.037 62.4453 242.827 57.9157 242.849 42.9383C242.849 32.5544 242.165 30.5888 239.152 32.3408Z" fill="black"/>
<path d="M89.6561 35.0805C82.0713 36.7684 75.8751 41.7467 72.1575 49.1393C67.4997 58.4548 72.0934 63.0057 77.0289 53.968C83.3105 42.4518 93.5234 38.5845 102.433 44.3533C110.552 49.6093 114.163 60.1641 120.402 96.8493C124.29 119.561 123.393 133.748 117.581 142.359C113.073 149.046 107.539 149.986 94.4635 146.333C52.7573 134.646 23.9133 110.353 30.1949 92.2343C32.8229 84.6921 38.8694 80.2267 52.9068 75.4834C61.2181 72.6845 63.8889 71.488 66.5383 69.3941C70.8328 65.997 71.9225 60.2495 68.4185 59.459C67.1365 59.1813 66.3673 59.5872 65.6195 60.9974C64.2521 63.5185 62.9488 64.0954 53.6974 66.4029C37.9721 70.2915 29.5325 74.9493 24.3406 82.5342C13.209 98.8577 22.2681 119.006 47.9927 135.158C65.7904 146.333 92.1987 156.246 104.185 156.246C105.723 156.246 105.723 156.246 105.595 156.823C105.552 157.165 105.424 157.998 105.36 158.704C105.296 159.409 104.997 161.759 104.698 163.917C103.202 175.198 106.322 178.018 115.317 173.531C116.962 172.72 116.962 172.72 117.432 174.151C119.718 181.031 122.837 183.915 125.465 181.565C126.918 180.24 126.598 178.424 123.927 173.083C123.051 171.309 122.346 169.857 122.389 169.835C122.431 169.792 123.136 169.322 123.991 168.767C130.144 164.729 129.696 159.921 122.41 152.379C120.594 150.499 120.594 150.499 121.684 149.196C129.803 139.432 131.747 125.01 128.093 101.229C124.888 80.2053 121.085 62.2579 118.244 54.6517C112.859 40.1656 101.557 32.4312 89.6561 35.0805ZM115.893 156.289C116.47 157.058 117.859 158.725 118.949 159.986C121.278 162.656 121.342 162.443 117.56 164.323C111.898 167.164 111.877 167.164 111.877 164.729C111.855 162.464 111.578 158.041 111.343 156.567C111.214 155.755 114.056 154.217 114.676 154.751C114.761 154.815 115.295 155.499 115.893 156.289Z" fill="black"/>
<path d="M220.134 35.7436C219.045 37.0255 218.617 43.6703 218.617 58.8187C218.639 71.9588 219.386 76.5524 221.608 77.1079C225.091 77.9839 225.497 72.3861 224.172 40.1236C224.001 35.594 222.036 33.4788 220.134 35.7436Z" fill="black"/>
<path d="M158.28 42.1109C156.934 43.3715 157.191 46.7473 159.327 55.2723C159.691 56.6611 159.926 57.8362 159.883 57.8789C159.434 58.3276 153.964 52.3665 152.896 50.2727C151.913 48.3284 149.606 47.6233 148.644 48.9693C146.508 51.9606 152.661 60.5924 160.802 66.0193C162.895 67.4081 162.895 67.4081 163.793 69.8866C165.865 75.6126 168.664 82.3001 171.549 88.3467C172.766 90.9106 172.895 91.2952 172.531 91.2952C171.655 91.2952 166.891 90.1628 164.391 89.3722C161.849 88.5817 161.143 88.4535 159.498 88.4962C157.725 88.539 157.127 90.761 158.515 92.1071C160.161 93.6882 166.699 95.8888 173.514 97.1281C176.292 97.6195 176.292 97.6195 177.745 100.077C184.09 110.653 192.039 120.118 196.483 122.404C201.44 124.925 202.273 120.566 197.765 115.759C193.876 111.614 190.692 107.576 187.039 102.085C184.753 98.6664 184.753 98.6664 189.282 98.5596C191.761 98.4955 193.833 98.5168 193.876 98.6023C195.137 101.401 202.508 111.208 206.097 114.84C213.191 122.019 219.323 119.755 212.592 112.426C208.918 108.431 206.653 105.546 203.127 100.376C201.375 97.8118 201.375 97.8118 204.217 97.3204C213.362 95.7606 218.169 93.1754 216.609 90.7183C216.011 89.7782 211.802 89.7568 206.631 90.6542C202.273 91.402 198 91.9789 197.765 91.8293C197.337 91.5516 189.218 76.6382 189.218 76.104C189.218 76.0613 191.205 76.0186 193.662 75.9972C203.234 75.9758 210.584 73.5615 210.584 70.4634C210.584 68.6687 206.952 67.7072 202.102 68.1986C196.718 68.7542 188.47 68.6687 186.077 68.0277C185.201 67.7927 182.488 60.9983 180.565 54.2254C178.963 48.542 178.963 48.5207 178.215 47.7729C176.57 46.1277 174.433 47.1105 174.155 49.6531C173.942 51.4905 175.48 58.1994 177.552 64.3101C177.958 65.5279 178.215 66.5107 178.129 66.5107C177.659 66.5107 172.766 64.8442 170.48 63.9041C167.895 62.8572 167.895 62.8572 167.34 61.3402C166.229 58.3703 164.412 52.2383 163.344 47.9224C161.763 41.5767 160.46 40.0811 158.28 42.1109ZM174.155 72.6C175.33 73.0273 177.488 73.711 178.941 74.117C180.394 74.5229 181.612 74.8648 181.633 74.8862C181.676 74.9289 181.997 75.6767 182.381 76.5527C183.428 78.9243 186.59 85.3982 188.556 89.0945C190.265 92.3635 190.265 92.3635 185.693 92.3635C181.121 92.3635 181.121 92.3635 180.245 90.8038C178.087 87.022 171.271 72.4932 171.271 71.724C171.271 71.5531 171.506 71.6386 174.155 72.6Z" fill="black"/>
<path d="M40.1076 47.9394C33.5482 48.6659 25.7924 51.5716 19.7886 55.5457C-14.055 77.9585 -2.19689 122.036 45.3208 150.603C62.734 161.05 89.3346 167.845 90.4029 162.097C90.8088 159.939 88.7363 158.828 79.1858 156.115C58.7386 150.303 46.325 143.808 31.9672 131.416C7.03317 109.879 1.6276 82.5949 18.9981 66.1432C27.2239 58.366 41.4109 52.6399 48.1198 54.4133C51.0896 55.1825 52.3929 54.5629 52.5852 52.2981C52.8203 49.3496 46.6669 47.213 40.1076 47.9394Z" fill="black"/>
<path d="M271.886 52.6187C258.511 53.8793 246.46 62.7461 242.828 73.9846C241.653 77.5741 241.781 79.3047 243.277 80.0739C244.965 80.9499 246.033 80.1807 247.379 77.104C250.306 70.3951 254.729 65.7801 261.416 62.4043C276.223 54.9689 291.457 60.46 299.362 76.0784C302.588 82.4882 308.186 80.6721 306.199 73.835C302.674 61.7206 285.816 51.294 271.886 52.6187Z" fill="black"/>
<path d="M354.163 54.0295C335.767 55.7174 307.586 70.6949 312.073 76.3782C313.269 77.9165 314.829 77.7242 317.478 75.7586C331.943 64.9261 354.634 59.0291 366.342 63.0245C381.875 68.3233 390.913 91.0566 386.084 112.615C383.221 125.434 376.512 137.549 364.462 151.757C358.095 159.235 356.535 162.825 359.377 163.38C363.009 164.107 378.542 146.886 385.657 134.216C406.852 96.5049 388.904 50.846 354.163 54.0295Z" fill="black"/>
<path d="M93.311 64.6515C91.388 65.6129 89.2728 73.091 86.3457 89.3077C85.9825 91.2734 85.9825 91.2734 81.047 88.7308C74.3167 85.2909 72.6715 84.885 71.4109 86.4019C69.7017 88.4317 71.4964 90.141 80.8974 95.397C84.8501 97.5977 84.8501 97.5977 84.3159 100.717C83.7177 104.2 83.6963 104.2 73.0134 97.0208C66.4113 92.5767 63.8047 92.0425 63.8047 95.1406C63.8047 97.4695 71.1759 103.58 81.0683 109.434C81.9657 109.969 82.6067 110.503 82.6067 110.716C82.628 111.357 81.2606 119.391 81.1111 119.562C81.047 119.647 79.3377 118.6 77.3507 117.233C70.1931 112.276 68.7402 111.763 67.5224 113.643C66.2404 115.588 68.2488 117.788 77.0729 124.091C80.1923 126.313 80.1923 126.313 79.9146 127.98C78.8676 134.326 83.4613 136.783 84.9783 130.693C85.2347 129.689 85.4483 129.582 86.132 130.052C94.9348 136.099 111.216 140.607 112.839 137.424C113.78 135.629 111.13 133.663 104.934 131.569C98.802 129.476 88.5678 124.775 87.0294 123.365C86.8585 123.194 88.5464 114.413 88.7814 114.114C88.8882 113.985 96.7082 117.361 97.0927 117.682C97.1355 117.724 97.05 118.921 96.9218 120.352C96.3236 126.826 101.088 127.788 102.285 121.421C102.627 119.583 102.541 119.626 104.742 120.352C109.335 121.912 115.382 122.51 116.386 121.485C118.095 119.775 114.741 117.276 106.814 114.37C105.126 113.75 103.759 113.131 103.759 113.002C103.759 112.639 104.443 106.999 104.507 106.935C104.528 106.913 105.383 107.127 106.387 107.405C115.724 110.118 116.172 104.905 106.921 101.102C104.977 100.29 105.126 101.166 105.682 93.6877C106.686 80.505 105.468 73.4542 102.456 74.608C100.276 75.4199 99.6353 78.7316 98.6525 94.1364C98.5456 95.7602 98.4174 97.1276 98.3533 97.2131C98.2251 97.3199 92.435 94.6065 92.435 94.4569C92.435 94.4142 93.0119 90.9102 93.7169 86.6797C96.3877 70.7408 96.6227 65.8052 94.7852 64.7369C94.0802 64.3096 93.9733 64.3096 93.311 64.6515ZM97.9687 105.482C97.9474 107.234 97.6696 110.503 97.5201 110.652C97.4132 110.738 90.4052 107.49 90.1488 107.234C90.1061 107.191 90.3198 105.759 90.6402 104.072C91.2171 100.973 91.2171 100.973 94.6143 102.597C97.9901 104.2 97.9901 104.2 97.9687 105.482Z" fill="black"/>
<path d="M263.702 70.0502C250.668 72.6355 241.567 85.8823 240.99 103.146C240.156 127.824 258.916 166.41 277.867 178.973C279.427 180.02 279.427 180.02 277.867 181.431C268.658 189.592 268.68 195.596 277.91 199.271C279.299 199.848 279.299 199.848 277.91 202.561C274.043 210.189 273.316 213.779 275.453 214.761C277.91 215.872 279.854 213.479 283.486 204.869C284.17 203.224 284.768 201.856 284.811 201.814C284.854 201.771 285.879 202.027 287.097 202.369C298.357 205.574 303.677 200.126 301.455 187.605C301.241 186.387 301.241 186.387 302.865 186.281C327.543 184.507 353.545 167.543 364.079 146.369C369.164 136.156 364.57 133.058 358.075 142.31C349.4 154.659 342.819 160.791 330.555 167.97C297.524 187.306 275.496 178.354 257.335 138.186C243.96 108.594 246.823 82.7415 264.001 78.1051C272.462 75.819 288.336 83.2543 297.374 93.745C301.434 98.4455 305.686 95.7534 302.502 90.4973C294.768 77.6778 275.731 67.6572 263.702 70.0502ZM287.589 183.888C288.657 184.272 290.473 184.828 291.605 185.105C293.977 185.661 294.105 186.046 293.828 191.601C293.635 195.489 293.614 195.553 292.652 195.553C290.388 195.553 278.743 191.686 278.743 190.96C278.743 190.233 284.79 183.161 285.409 183.161C285.538 183.161 286.499 183.482 287.589 183.888Z" fill="black"/>
<path d="M347.969 73.7075C329.06 75.6517 299.447 91.4839 308.207 94.9665C309.703 95.5648 310.045 95.4579 313.036 93.5136C327.244 84.2622 350.96 78.7284 359.229 82.7452C367.626 86.8475 368.502 104.346 361.344 124.793C360.233 127.977 360.404 130.007 361.878 130.754C369.506 134.707 376.599 102.316 371.472 86.9757C368.181 77.126 359.934 72.4682 347.969 73.7075Z" fill="black"/>
<path d="M355.125 93.7924C353.736 94.1129 353.009 95.9717 351.813 102.189C350.488 109.09 347.476 121.525 347.006 122.038C346.771 122.252 335.169 124.666 334.977 124.517C334.934 124.495 335.105 122.914 335.361 121.013C336.066 115.5 335.575 113.727 333.396 113.727C331.857 113.727 331.131 115.18 330.34 119.966C329.293 126.269 330.49 125.307 322.499 126.247C319.85 126.546 310.705 127.38 310.662 127.315C310.641 127.315 310.705 126.29 310.812 125.051C311.132 120.82 310.577 119.538 308.462 119.453C306.774 119.389 306.24 120.393 305.641 124.602C305.171 128.021 305.492 127.721 301.86 127.914C288.463 128.555 289.275 128.875 289.168 122.786C289.04 115.842 288.634 114.581 286.497 114.581C284.468 114.581 283.592 118.47 283.442 128.127C283.442 128.491 283.164 128.512 277.332 128.448C270.366 128.341 270.195 128.405 270.195 130.627C270.195 132.935 272.118 133.597 279.746 133.96C281.434 134.024 282.844 134.153 282.887 134.217C283.036 134.452 281.562 147.442 281.177 149.237C281.049 149.835 281.049 149.835 277.652 149.835C273.806 149.835 272.759 150.091 272.225 151.138C271.2 153.104 272.823 154.536 276.092 154.536C280.344 154.536 280.344 154.536 280.365 157.228C280.451 163.83 284.019 163.424 286.049 156.587C286.455 155.155 286.583 154.963 286.968 155.048C287.203 155.091 289.831 155.219 292.8 155.305C295.749 155.39 298.185 155.518 298.185 155.604C298.185 155.689 297.394 157.911 296.454 160.539C293.634 168.274 293.612 170.816 296.369 170.816C298.356 170.816 301.09 166.201 303.932 158.04C304.851 155.454 304.851 155.454 310.748 155.305C313.995 155.219 317.585 155.07 318.696 154.984C321.196 154.771 321.046 154.514 319.999 157.335C318.226 162.099 317.435 166.18 318.119 167.206C319.743 169.684 323.14 165.368 326.409 156.672C326.9 155.326 327.328 154.194 327.328 154.172C327.349 154.172 328.802 153.895 330.597 153.596C341.643 151.737 346.172 149.771 345.467 147.079C345.083 145.562 340.703 145.348 334.208 146.502C329.101 147.421 329.571 147.934 330.981 142.913C331.622 140.605 332.498 137.144 332.926 135.242C333.844 131.119 333.267 131.717 336.857 131.119C338.523 130.819 340.916 130.371 342.156 130.114C344.463 129.602 344.463 129.602 343.544 132.144C341.344 138.191 341.344 141.502 343.523 141.502C345.809 141.502 348.224 137.806 351.065 129.965C352.005 127.38 352.005 127.38 353.415 126.867C360.295 124.41 361.94 120.008 356.022 119.944C354.334 119.923 354.142 119.88 354.249 119.538C355.21 116.291 357.304 104.518 357.924 98.8347C358.287 95.3948 357.154 93.3437 355.125 93.7924ZM326.836 136.396C325.96 139.665 325.042 142.784 323.546 147.421C323.418 147.805 323.225 148.126 323.097 148.126C322.948 148.126 322.093 148.211 321.153 148.339C319.422 148.553 312.97 149.045 308.846 149.301C306.56 149.451 306.56 149.451 307.393 146.053C308.162 142.977 309.252 137.635 309.679 134.986C309.829 133.918 309.829 133.918 315.064 133.554C317.948 133.341 321.986 132.999 324.037 132.785C326.088 132.571 327.798 132.422 327.819 132.422C327.862 132.443 327.413 134.217 326.836 136.396ZM303.419 136.973C302.436 141.225 300.278 149.301 300.065 149.515C300.001 149.579 297.138 149.686 293.698 149.771C287.438 149.899 287.438 149.899 287.587 148.745C288.036 145.476 288.356 142.336 288.57 139.152C288.72 137.208 288.869 135.306 288.912 134.943C289.019 134.281 303.633 133.661 303.911 134.302C303.953 134.388 303.74 135.584 303.419 136.973Z" fill="black"/>
<path d="M190.075 167.269C189.669 167.312 188.281 167.461 186.977 167.568C170.077 169.171 148.69 182.567 142.408 195.429C140.079 200.215 143.305 202.544 146.596 198.485C161.937 179.661 187.17 170.047 207.318 175.367C229.73 181.285 236.525 213.569 224.56 257.091C221.846 266.984 227.38 267.625 231.055 257.839C235.392 246.344 236.974 238.225 237.508 224.636C238.79 192.267 228.342 172.803 207.275 168.295C203.344 167.461 193.537 166.863 190.075 167.269Z" fill="black"/>
<path d="M193.6 181.159C186.956 182.142 179.242 185.411 178.537 187.547C177.79 189.791 179.755 191.094 182.383 190.132C189.861 187.355 191.677 186.928 195.951 186.906C208.193 186.885 215.928 201.99 216.569 227.288C216.782 235.749 217.146 236.902 219.517 236.902C227.38 236.902 222.914 203.7 213.193 189.791C208.556 183.167 201.399 180.026 193.6 181.159Z" fill="black"/>
<path d="M126.405 183.294C126.106 183.358 125.059 183.551 124.055 183.743C113.906 185.623 102.689 193.272 99.1632 200.708C96.1079 207.181 101.043 210.215 104.398 203.912C110.316 192.824 129.93 185.58 139.075 191.114C141.767 192.738 143.797 192.183 143.797 189.832C143.797 185.773 133.648 181.97 126.405 183.294Z" fill="black"/>
<path d="M169.028 190.302C150.974 202.245 146.103 203.762 128.155 203.057C107.089 202.202 96.8116 207.8 91.7907 222.885C84.5263 244.592 97.9868 271.129 127.579 293.456C144.137 305.934 164.114 311.745 182.083 309.331C183.194 309.181 183.194 309.181 182.681 311.703C180.374 323.561 182.104 326.125 190.822 323.881C193.193 323.261 193.62 323.197 193.77 323.475C194.069 323.988 197.958 328.774 200.671 332C210.564 343.687 212.722 346.337 217.016 352.063C233.083 373.493 243.723 394.581 248.403 414.237C253.317 434.962 254.492 465.473 251.501 494.83C251.202 497.671 250.967 500.171 250.945 500.385C250.924 500.598 250.689 497.735 250.411 494.039C247.74 458.23 242.976 438.06 232.165 416.801C222.593 397.999 212.999 386.718 187.83 364.669C163.901 343.687 154.799 333.303 144.714 315.463C142.236 311.062 140.74 310.1 139.052 311.788C137.62 313.22 138.304 315.762 142.065 323.091C150.525 339.585 160.546 351.358 182.809 370.972C226.075 409.067 238.083 433.937 242.954 495.641C243.253 499.402 243.83 506.794 244.236 512.093C244.664 517.371 245.326 525.361 245.732 529.827C246.822 541.813 246.672 543.245 244.77 540.424C233.639 524.015 215.841 519.294 209.688 531.109C202.701 544.527 217.678 564.354 241.074 572.666C243.253 573.435 243.253 573.435 241.288 574.738C237.634 577.152 235.562 578.242 231.118 580.165C226.994 581.917 225.498 583.733 226.524 585.72C228.255 589.096 235.882 587.152 243.852 581.297C244.236 581.02 243.98 581.703 242.762 584.224C239.749 590.463 239.472 593.604 241.822 594.779C244.941 596.318 247.548 593.604 251.009 585.165C252.056 582.601 252.056 582.601 251.949 592.856C251.907 598.497 251.736 604.159 251.608 605.462C250.881 612.214 251.778 615.184 254.406 614.799C258.039 614.265 260.261 603.539 259.534 590.079C259.427 587.857 259.342 586.019 259.363 585.976C259.406 585.955 260.004 586.66 260.688 587.558C263.786 591.489 268.017 594.651 271.991 595.954C276.584 597.471 280.046 594.694 277.674 591.403C276.99 590.442 276.584 590.121 273.187 587.942C270.11 585.955 267.205 583.477 264.812 580.72C263.594 579.353 263.594 579.353 265.559 580.144C272.439 582.9 280.152 583.071 281.862 580.485C283.656 577.729 281.392 575.55 275.751 574.588C270.538 573.712 266.243 572.644 262.355 571.234C260.197 570.443 260.197 570.443 262.013 569.311C285.494 554.569 300.044 538.694 298.612 529.378C296.284 514.273 270.495 520.725 258.402 539.42C257.419 540.959 257.44 541.322 258.124 533.993C261.692 496.133 269.384 475.536 295.792 433.061C307.885 413.596 311.56 406.076 313.569 396.675C314.338 393.128 314.38 384.966 313.654 383.065C313.59 382.894 313.996 382.723 314.808 382.552C322.606 380.949 324.871 372.574 320.277 362.468C319.872 361.592 319.594 360.823 319.637 360.78C319.679 360.737 320.577 360.096 321.645 359.37C342.519 345.055 363.907 308.199 371.662 273.223C381.469 228.974 371.833 210.022 345.682 222.158C343.118 223.355 338.823 225.769 332.371 229.636C317.329 238.653 312.735 239.764 296.583 238.247C283.293 237.007 273.978 238.033 269.833 241.195C266.67 243.609 269.106 246.707 273.102 245.34C277.588 243.78 282.951 243.866 295.621 245.661C313.569 248.203 320.042 246.793 336.751 236.666C350.489 228.354 354.634 226.41 359.313 226.175C378.841 225.128 363.65 293.178 335.661 332.107C323.504 349.007 313.269 357.126 306.39 355.289C297.971 353.046 275.345 331.103 264 314.16C252.035 296.298 249.556 284.119 254.706 268.736C257.355 260.788 257.526 257.946 255.368 257.583C253.082 257.22 248.702 264.869 246.501 273.116C242.335 288.713 247.377 304.951 262.654 325.249C272.354 338.154 287.566 353.494 296.754 359.626C298.719 360.951 298.741 360.46 296.668 362.981C285.964 376.014 287.865 380.693 304.702 382.701C307.693 383.043 307.693 383.043 307.757 385.607C307.992 395.478 304.467 403.619 290.066 426.202C282.46 438.146 277.033 447.29 272.653 455.58C271.756 457.29 271.072 458.486 271.157 458.251C282.567 423.574 280.152 399.815 260.795 355.909C247.74 326.338 227.165 293.413 221.717 293.413C218.704 293.413 218.768 295.678 221.93 299.887C235.818 318.326 253.466 353.708 263.273 382.83C271.435 407.016 272.439 422.955 267.098 444.257C264.769 453.551 260.282 467.973 260.218 466.37C260.197 465.772 260.068 461.606 259.94 457.076C258.893 418.852 252.761 396.525 235.369 367.553C226.567 352.875 218.277 342.063 203.278 325.719C198.834 320.89 199.09 321.467 201.077 320.569C208.128 317.407 206.889 310.1 198.342 304.31C197.338 303.626 197.274 303.776 199.432 302.28C209.389 295.4 216.909 282.367 220.926 264.997C223.832 252.369 224.238 244.998 222.058 244.4C219.644 243.759 218.255 246.131 216.14 254.527C210.756 275.893 205.714 286.128 196.911 293.499C175.395 311.553 132.792 297.302 108.413 263.907C92.9444 242.691 94.4828 218.013 111.682 212.223C115.315 210.984 116.233 210.898 128.647 210.727C144.415 210.514 147.94 209.83 156.529 205.343C161.572 202.715 171.421 195.6 172.682 193.699C174.156 191.413 171.336 188.785 169.028 190.302ZM191.398 307.472C191.548 307.664 193.193 309.224 195.052 310.912C198.919 314.437 199.069 314.608 198.236 314.993C196.633 315.741 188.621 318.112 188.407 317.899C188.364 317.835 188.493 316.617 188.685 315.164C188.877 313.711 189.134 311.767 189.24 310.827C189.347 309.886 189.497 308.711 189.561 308.22C189.668 307.344 189.839 307.173 190.757 307.109C190.95 307.109 191.249 307.258 191.398 307.472ZM306.838 363.942C308.206 364.156 310.727 364.092 312.244 363.793C313.74 363.493 315.662 373.685 314.316 374.689C313.013 375.672 308.078 375.544 301.604 374.347C298.356 373.77 298.506 373.899 299.403 372.147C302.031 366.997 304.317 363.429 304.894 363.579C305.15 363.643 306.026 363.814 306.838 363.942ZM289.959 530.019C292.566 531.921 285.408 540.894 274.79 549.056C267.461 554.697 258.445 560.637 258.765 559.611C261.35 551.171 267.568 541.322 273.337 536.536C279.319 531.6 287.652 528.331 289.959 530.019ZM224.516 535.425C230.733 537.882 236.993 544.997 243.104 556.641C245.155 560.53 246.693 563.5 246.693 563.585C246.693 563.713 243.211 562.602 240.604 561.619C228.447 557.047 220.798 550.402 218.191 542.155C216.204 535.831 218.725 533.139 224.516 535.425Z" fill="black"/>
<path d="M196.314 202.844C195.246 203.25 194.947 205.279 195.545 207.865C195.93 209.553 195.887 209.745 194.947 210.215C189.926 212.779 190.417 217.373 195.588 216.176C196.357 215.984 197.02 215.877 197.062 215.941C197.276 216.155 198.024 222.949 197.853 223.12C197.661 223.291 192.191 225.086 192.105 225C192.063 224.957 191.892 223.932 191.678 222.693C189.67 210.194 187.49 205.493 184.841 207.801C183.858 208.634 183.88 210.129 184.926 215.321C185.76 219.552 186.764 226.068 186.593 226.239C186.422 226.432 181.935 226.944 179.286 227.094C176.145 227.244 175.504 227.479 175.055 228.654C173.902 231.538 177.961 232.906 185.396 232.158C187.533 231.944 187.384 231.559 187.661 238.525C187.811 242.905 188.26 242.328 184.2 242.883C179.841 243.482 179.029 243.866 178.816 245.447C178.559 247.477 180.14 248.139 184.82 247.968C187.918 247.84 187.918 247.84 187.811 248.439C187.042 252.754 187.747 262.69 188.879 263.245C191.614 264.591 193.708 258.203 193.708 248.524C193.708 247.178 193.751 247.05 194.199 246.943C194.456 246.9 195.524 246.644 196.549 246.409C197.596 246.174 198.451 245.981 198.472 245.981C198.494 245.981 198.537 247.498 198.537 249.357C198.579 254.934 199.712 257.241 201.741 255.852C202.681 255.212 204.284 250.596 204.626 247.477C205.096 243.14 204.733 243.802 207.403 242.435C214.582 238.76 213.535 232.564 206.292 235.961C205.117 236.516 205.117 236.516 204.839 232.863C204.711 230.854 204.54 228.761 204.476 228.226C204.348 227.244 204.348 227.244 206.036 226.261C212.446 222.564 211.185 217.202 204.626 220.236C203.985 220.535 203.451 220.748 203.429 220.727C203.322 220.556 201.998 213.698 202.062 213.634C202.105 213.612 202.703 213.206 203.365 212.779C207.873 209.83 206.057 204.767 201.25 206.775C200.353 207.16 200.289 207.117 199.925 205.814C199.284 203.527 197.767 202.267 196.314 202.844ZM198.686 231.816C199.156 239.401 199.263 239.102 195.374 240.298C193.43 240.896 193.494 240.918 193.494 239.273C193.494 238.546 193.345 236.431 193.174 234.572C193.003 232.692 192.896 231.111 192.939 231.089C193.003 231.025 198.002 229.615 198.43 229.551C198.494 229.53 198.622 230.555 198.686 231.816Z" fill="black"/>
<path d="M349.893 202.928C333.57 205.193 307.504 221.153 311.114 226.687C312.161 228.289 313.678 228.054 316.627 225.832C338.826 209.081 363.824 204.509 369.251 216.196C371.793 221.687 375.127 222.178 375.468 217.115C376.109 207.521 364.273 200.941 349.893 202.928Z" fill="black"/>
<path d="M281.456 221.408C261.607 222.947 247.762 234.014 244.13 251.214C241.844 262.132 247.335 264.845 250.433 254.312C256.693 232.989 276.307 224.357 303.1 231.108C304.211 231.386 306.326 231.92 307.8 232.284C309.275 232.647 310.92 233.095 311.454 233.288C314.744 234.356 317.03 232.134 314.808 230.019C309.018 224.57 293.229 220.49 281.456 221.408Z" fill="black"/>
<path d="M132.921 225.766C131.532 227.154 133.028 233.778 137.621 246.426C138.391 248.52 139.01 250.294 139.01 250.358C139.01 250.507 134.438 250.486 131.682 250.336C129.417 250.187 129.417 250.187 127.28 245.679C124.78 240.38 122.43 234.867 120.87 230.722C119.161 226.15 118.648 225.466 116.896 225.466C114.995 225.466 114.333 227.09 115.08 229.953C116.106 233.799 120.593 245.978 122.024 248.755C122.217 249.14 122.345 249.482 122.281 249.524C122.195 249.61 115.978 248.819 115.144 248.627C114.503 248.456 112.431 242.068 111.448 237.196C111.128 235.508 110.38 234.825 108.991 234.91C106.94 235.038 106.577 237.303 107.581 243.927C108.115 247.366 108.158 247.174 106.876 246.619C104.867 245.764 103.158 246.277 102.688 247.858C102.09 249.824 103.692 251.426 107.602 252.772C109.632 253.477 109.632 253.477 110.658 256.511C113.029 263.54 115.379 266.916 117.922 266.916C120.657 266.916 120.913 263.904 118.648 258.498C117.217 255.122 117.217 255.122 117.922 255.25C118.285 255.336 120.144 255.592 122.024 255.827C123.904 256.084 125.443 256.297 125.464 256.319C125.464 256.319 126.639 258.605 128.049 261.361C130.571 266.318 132.878 270.42 135.079 273.967C136.446 276.168 136.745 275.975 131.425 276.189C127.323 276.36 126.725 276.51 126.191 277.492C125.55 278.667 126.041 280.142 127.302 280.825C127.814 281.103 133.348 281.659 135.698 281.659C139.758 281.659 140.378 281.808 141.147 282.877C146.574 290.44 152.898 294.927 154.543 292.427C155.419 291.081 154.18 288.539 150.612 284.287C147.984 281.167 148.027 281.509 150.184 281.36C151.146 281.274 152.385 281.167 152.919 281.103C153.902 280.975 153.902 280.975 155.355 283.09C161.466 291.936 167.32 296.957 169.328 295.098C170.439 294.072 169.307 291.487 165.867 287.15C163.495 284.159 160.718 280.377 160.825 280.291C160.867 280.249 162.299 279.949 164.008 279.65C165.717 279.33 168.345 278.796 169.862 278.432C172.127 277.877 172.64 277.813 172.768 278.048C177.234 285.697 181.721 291.06 183.643 291.06C186.421 291.06 185.438 287.385 180.374 278.903C178.174 275.206 178.088 275.804 180.951 274.394C189.177 270.378 186.656 265.292 178.003 268.412C176.379 269.01 174.969 269.416 174.883 269.331C174.392 268.839 167.854 255.379 167.598 254.353C167.555 254.182 168.324 253.776 169.67 253.263C174.178 251.554 175.717 250.08 175.204 247.965C174.713 245.849 172.875 245.55 168.324 246.832C166.679 247.302 165.183 247.687 165.034 247.687C164.713 247.687 163.538 244.717 161.295 238.286C159.222 232.346 158.581 231.363 156.787 231.492C154.03 231.684 154.223 234.077 157.812 244.995C158.517 247.11 159.03 248.883 158.987 248.926C158.731 249.183 152.3 249.952 147.001 250.358C145.292 250.507 145.292 250.507 143.54 246.149C141.211 240.273 140.1 237.282 138.326 231.983C136.126 225.36 134.822 223.864 132.921 225.766ZM163.239 259.331C164.094 261.318 165.696 264.822 166.807 267.087C168.388 270.313 168.751 271.211 168.495 271.296C167.149 271.702 157.833 273.54 157.022 273.54C156.466 273.54 155.376 271.681 151.979 264.886C147.834 256.618 147.962 257.152 150.099 257.002C153.026 256.767 157.577 256.255 159.308 255.934C161.743 255.486 161.487 255.25 163.239 259.331ZM139.224 257.216C141.895 257.344 141.895 257.344 143.176 260.378C143.86 262.023 145.698 265.912 147.236 268.967C150.035 274.565 150.035 274.565 148.219 274.8C143.561 275.377 143.86 275.377 143.262 274.587C141.766 272.6 136.895 264.438 134.139 259.289C132.857 256.874 132.857 256.874 134.694 256.981C135.72 257.045 137.75 257.152 139.224 257.216Z" fill="black"/>
<path d="M328.784 250.766C327.438 252.304 327.246 264.013 328.421 273.798C328.549 274.803 328.549 274.803 324.639 276.085C318.55 278.072 306.841 281.234 305.495 281.234C305.153 281.234 305.025 280.721 304.406 276.726C303.423 270.38 302.825 268.948 301.03 268.5C298.744 267.923 298.145 270.935 299.064 278.606C299.299 280.678 299.449 282.388 299.406 282.43C298.786 283.071 277.591 285.507 277.1 284.994C276.63 284.545 276.331 280.037 276.288 272.794C276.245 263.692 276.074 263.073 273.66 263.073C271.203 263.073 269.772 271 270.327 281.405C270.541 285.657 270.733 285.443 267.485 284.652C264.793 284.011 263.575 284.738 263.768 286.896C263.917 288.541 267.635 290.421 270.797 290.421C271.118 290.421 271.224 290.72 271.459 292.387C271.994 296.275 274.152 306.275 274.835 308.091C274.985 308.454 273.895 308.433 272.122 308.048C269.857 307.557 269.387 307.621 268.554 308.518C266.567 310.612 268.361 312.278 274.045 313.646C275.284 313.924 276.416 314.244 276.566 314.308C276.715 314.394 277.42 315.889 278.126 317.663C283.339 330.781 291.543 341.058 297.269 341.635C300.56 341.977 299.812 338.494 295.389 332.832C291.629 328.025 289.108 323.901 286.501 318.282C284.941 314.928 284.685 315.291 288.552 315.483C292.633 315.697 299.983 315.526 304.256 315.099C306.029 314.928 307.461 314.821 307.482 314.842C307.482 314.864 307.974 316.082 308.551 317.556C313.358 329.841 320.174 339.071 322.396 336.336C323.421 335.076 322.545 332.127 318.806 324.393C315.794 318.133 313.828 313.71 314.063 313.603C314.084 313.603 314.832 313.411 315.708 313.197C324.831 310.954 331.092 306.702 328.912 304.223C327.759 302.92 324.169 303.027 318.165 304.544C310.602 306.467 311.414 306.681 310.196 302.514C308.529 296.916 306.35 288.178 306.542 287.964C306.585 287.921 308.615 287.451 311.029 286.917C316.264 285.742 322.396 284.011 326.455 282.558C329.297 281.533 329.382 281.512 329.489 281.96C329.532 282.217 329.81 283.798 330.13 285.507C332.587 299.267 337.224 311.253 340.3 311.872C343.014 312.407 343.014 308.433 340.364 299.202C338.677 293.37 337.309 287.943 336.476 283.691C335.429 278.435 335.301 279.14 337.459 278.093C345.749 274.055 345.236 269.782 336.732 271.94C335.578 272.239 334.617 272.452 334.596 272.41C334.467 272.281 333.634 264.44 333.356 260.509C332.737 252.176 332.673 251.877 331.626 250.766C330.664 249.762 329.681 249.762 328.784 250.766ZM300.752 290.143C301.799 295.634 303.273 301.766 304.747 306.916C304.876 307.343 304.726 307.386 301.393 307.834C297.141 308.39 291.394 308.796 286.992 308.839C282.719 308.903 282.719 308.903 281.993 306.659C280.454 301.937 277.891 292.088 277.891 290.955C277.891 290.891 278.788 290.848 279.878 290.848C284.151 290.848 293.894 290.015 298.338 289.267C299.256 289.096 300.111 288.968 300.261 288.947C300.41 288.947 300.602 289.46 300.752 290.143Z" fill="black"/>
</svg>
