<svg width="108" height="137" viewBox="0 0 108 137" fill="none" xmlns="http://www.w3.org/2000/svg">
<path d="M17.9052 0.73833C16.0464 1.35794 15.3627 2.5758 14.743 6.42166C14.508 7.93863 14.1021 10.2462 13.867 11.5281C13.162 15.3312 13.7816 16.8268 16.1105 16.8696C18.2898 16.8909 19.059 15.5022 20.4477 9.22059C21.0246 6.52849 21.0246 6.52849 22.6484 6.52849C31.3016 6.52849 91.8312 10.118 98.8178 11.0367C102.493 11.5281 102.322 10.1393 101.275 30.4155C100.078 53.5334 99.6297 59.7082 98.0486 74.472C96.7026 87.1633 96.1898 92.163 95.7411 97.654C94.8651 107.952 94.2241 119.725 94.2241 125.237C94.2241 129.254 94.6728 128.805 90.1646 129.169C82.5797 129.788 53.3726 130.045 44.2066 129.596C28.695 128.827 8.05553 125.942 7.24362 124.425C6.45308 122.973 7.28635 108.358 9.29475 88.253C10.7263 73.9379 10.8972 71.9936 11.8587 60.9047C12.8628 49.2603 13.7816 40.1798 14.5508 34.24C15.619 25.9073 15.2558 23.5144 12.9697 23.5144C9.80753 23.5144 8.58967 28.7704 6.9445 49.3671C6.11123 59.8577 5.42752 66.5666 3.41913 83.873C-1.51639 126.626 -1.06771 130.002 9.80753 132.16C31.5366 136.433 66.8544 138.206 88.028 136.091C99.2879 134.959 100.313 134.211 100.655 126.818C101.339 112.119 102.044 102.675 103.946 82.9115C104.907 72.9337 105.463 66.2248 105.869 59.6227C106.039 56.6742 106.232 53.5975 106.296 52.7856C106.51 49.6235 106.638 46.269 106.937 36.868C107.108 31.5266 107.364 24.5399 107.492 21.335C108.155 5.78068 107.962 5.60975 90.1646 4.1996C77.3665 3.17404 58.1585 2.12711 34.9338 1.18701C19.3794 0.567403 18.5248 0.546037 17.9052 0.73833Z" fill="black"/>
<path d="M37.4973 15.9537C34.1856 16.2528 32.2627 17.3211 32.2627 18.8808C32.2627 21.167 34.1642 21.872 40.809 22.0216C61.8544 22.5557 82.0452 24.7564 84.6732 26.8289C86.3397 28.1322 86.2329 33.9438 84.2673 53.2158C82.793 67.6378 81.0837 79.6668 79.5881 86.3329C79.0967 88.4481 79.289 88.3413 76.7037 88.0208C68.2428 86.9098 58.3932 86.5679 40.3817 86.7175C26.1734 86.8457 26.1734 86.8457 26.4298 84.2391C26.5794 82.8075 26.9426 78.4062 27.2417 74.4749C27.5408 70.5435 28.3955 59.1982 29.1646 49.2631C31.0235 24.7564 31.0448 24.3932 30.938 21.0815C30.7884 17.0006 30.3398 16.146 28.4168 16.146C26.323 16.146 26.1734 16.4665 25.2333 23.1967C23.0326 38.7297 21.7293 53.344 20.3833 77.6797C19.4645 94.0674 17.6911 92.4863 37.2837 92.6786C57.2394 92.8709 66.3413 93.2341 76.3832 94.2169C80.7205 94.6229 82.4939 94.1528 83.7758 92.2299C87.0448 87.2944 92.7068 43.6652 91.7026 31.3158C90.9548 22.3207 88.6473 20.3764 76.2764 18.4108C63.8415 16.4237 45.2745 15.2486 37.4973 15.9537Z" fill="black"/>
<path d="M52.8581 33.5383C47.2175 35.3117 34.6116 50.2251 36.1927 53.2804C37.261 55.3529 38.9275 54.776 42.4743 51.1011C44.0767 49.4559 47.2816 46.1655 49.5891 43.8153C56.5544 36.6791 58.0714 31.9145 52.8581 33.5383Z" fill="black"/>
<path d="M62.2817 42.0405C57.8804 44.3267 46.1719 59.4965 46.1505 62.9577C46.1291 66.5045 49.2272 65.8421 52.5603 61.569C53.6713 60.1588 56.513 56.6762 58.8632 53.8559C64.5465 47.0615 65.4012 45.7368 65.7217 43.4507C65.978 41.6773 64.3115 40.9936 62.2817 42.0405Z" fill="black"/>
<path d="M70.1872 60.0333C67.3669 60.9093 59.4829 69.8616 56.7908 75.2245C55.5515 77.6815 56.6412 79.9036 58.8846 79.4763C59.8674 79.3053 60.3802 78.8567 62.3245 76.5491C63.2432 75.4595 65.4867 72.8528 67.3028 70.7376C72.281 64.9688 72.7724 64.2424 73.0075 62.2981C73.2639 60.0333 72.3879 59.3282 70.1872 60.0333Z" fill="black"/>
</svg>
