<svg width="145" height="80" viewBox="0 0 145 80" fill="none" xmlns="http://www.w3.org/2000/svg">
<path d="M14.626 0.402774C8.5154 0.701896 5.93013 2.11205 6.42154 4.82551C6.95569 7.81674 9.92555 8.37225 23.4929 8.07313C39.7523 7.70991 54.5803 7.85947 83.9584 8.65001C90.9023 8.8423 104.94 9.03459 115.153 9.05596C133.549 9.09869 135.322 9.16279 135.749 9.67557C136.348 10.402 136.476 13.1796 136.326 23.4779C136.241 29.1826 136.07 40.9125 135.963 49.5443C135.856 58.1761 135.728 65.6328 135.664 66.1029C134.98 70.9957 137.907 70.3974 113.23 70.6965C84.4498 71.0598 73.2754 71.3162 46.3544 72.299C41.6539 72.4699 33.8126 72.7049 28.9412 72.8118C24.0698 72.94 17.7455 73.0895 14.8824 73.1536C10.6947 73.2605 9.69052 73.2391 9.62643 73.0041C9.5196 72.7049 9.26321 66.7439 8.6436 49.9716C7.21208 11.5344 6.95569 9.46191 3.8149 9.63284C0.930509 9.7824 0.93051 9.91059 0.887778 35.0155C0.866412 53.5611 1.16553 63.7099 2.04154 72.299C2.46885 76.679 3.57988 78.7729 5.93013 79.6275C7.21208 80.0975 55.734 79.8625 110.238 79.1361C145.172 78.666 143.484 80.2044 143.997 48.3692C144.061 44.1387 144.274 35.5069 144.445 29.204C144.958 11.1284 144.509 7.28259 141.497 4.27C138.762 1.53517 139.253 1.59926 118.998 1.55653C109.597 1.55653 100.026 1.47107 97.7394 1.3856C89.834 1.10785 74.7069 0.830092 56.2895 0.616433C23.9202 0.253213 18.0019 0.231847 14.626 0.402774Z" fill="black"/>
<path d="M8.72949 10.1862C6.57153 11.6818 7.61846 13.6902 14.2846 20.9119C28.6639 36.509 37.3598 42.876 40.7356 40.3121C43.0004 38.5815 41.8893 36.3381 36.5051 31.894C28.1297 24.9501 22.66 20.2496 16.8485 14.9295C11.1652 9.73754 11.5498 10.0153 10.161 10.0153C9.49866 10.0153 8.85768 10.1008 8.72949 10.1862Z" fill="black"/>
<path d="M126.156 12.0688C122.118 13.4148 115.494 16.8761 98.2733 26.6189C88.6587 32.0672 84.3 34.4389 80.8601 36.1909C79.4927 36.8959 78.0825 37.7719 77.6766 38.1993C77.1638 38.7334 76.9929 38.8189 77.0783 38.5411C80.2619 27.7941 74.5358 22.4526 67.1005 29.2683C65.7544 30.5075 65.7544 30.5075 64.9425 29.3324C58.0413 19.3332 48.1276 28.3923 51.012 42.0665C54.5801 58.8173 69.4294 58.2832 76.181 41.1477C76.6938 39.8658 76.7792 39.7162 76.8006 40.2931C76.822 42.3442 78.4458 43.5621 80.6464 43.2202C81.6934 43.0493 85.9666 40.9768 94.3206 36.5754C97.6751 34.8021 105.837 30.5503 112.482 27.1104C130.707 17.688 132.031 16.8761 132.566 14.9318C133.42 11.791 130.664 10.5518 126.156 12.0688ZM59.0669 32.1741C59.4301 32.6228 60.1993 33.9047 60.7975 35.0157C61.3744 36.1268 62.0581 37.3233 62.2718 37.6865C62.5068 38.0283 62.7632 38.4556 62.8273 38.5838C63.5965 40.1649 69.2371 37.601 69.3225 35.6353C69.3225 35.5499 69.8567 35.0371 70.4976 34.503C71.8864 33.3065 71.9078 33.4133 70.6899 37.0882C67.3569 47.2584 61.6522 50.5915 58.4473 44.2458C55.9902 39.3744 56.503 29.0974 59.0669 32.1741Z" fill="black"/>
<path d="M42.2724 57.1335C40.7127 58.8001 41.2682 66.3422 43.0843 68.0729C46.5456 71.3632 48.5539 66.8123 47.0583 59.0992C46.5456 56.4285 43.9603 55.3602 42.2724 57.1335Z" fill="black"/>
<path d="M95.4958 57.065C93.637 58.5179 94.0429 65.6327 96.0941 66.936C99.0639 68.8589 100.901 65.7609 100.111 60.2058C99.6408 56.9581 97.4828 55.5053 95.4958 57.065Z" fill="black"/>
<path d="M120.622 57.194C119.105 58.6896 119.148 65.6335 120.665 67.3855C123.25 70.3767 126.349 63.7747 124.853 58.4332C124.319 56.5316 121.969 55.8479 120.622 57.194Z" fill="black"/>
<path d="M17.4046 57.4257C16.3363 58.4726 16.3576 60.7588 17.4046 65.032C18.6224 69.9461 22.5537 70.4589 22.8956 65.7584C23.3229 59.7973 20.0326 54.7977 17.4046 57.4257Z" fill="black"/>
<path d="M63.3596 59.0781C61.2872 60.531 62.3768 67.6672 64.7698 68.3296C67.6542 69.1415 68.6798 66.193 67.3551 60.9156C66.885 59.014 64.8125 58.0739 63.3596 59.0781Z" fill="black"/>
</svg>
