<svg width="63" height="72" viewBox="0 0 63 72" fill="none" xmlns="http://www.w3.org/2000/svg">
<path d="M42.7671 0.206743C42.062 0.313572 39.9468 0.933183 38.0666 1.59553C34.0926 2.98431 32.6824 3.3048 28.8366 3.60392C22.7686 4.09533 18.5809 5.44139 15.1838 7.98393C12.5344 9.97095 12.1925 12.5562 14.5214 13.2186C15.2479 13.4322 15.2906 13.4322 19.1364 11.8298C22.2131 10.5692 25.3539 9.86413 29.2425 9.60773C34.2849 9.24451 36.1223 8.83856 41.6347 6.83017C47.0617 4.86451 48.1941 7.21475 47.5317 19.0942C47.2326 24.628 47.9377 27.0637 51.1212 31.2514C53.5142 34.3708 53.6637 34.7768 53.8133 38.2167C54.0056 42.2762 55.0739 43.6222 57.6591 42.9172C61.7614 41.8061 61.3127 34.264 56.7618 27.8969C54.3474 24.5425 54.3902 24.7134 54.2192 16.8508C53.9628 3.94577 50.587 -0.968381 42.7671 0.206743Z" fill="black"/>
<path d="M6.38096 11.4852C2.21461 12.7672 0.612167 17.0617 2.10778 22.916C2.91968 26.0567 2.94105 25.8431 1.25314 30.2017C-0.797982 35.4791 -0.114273 38.9831 3.77432 43.1708C5.59042 45.1365 5.50496 44.6237 4.47939 47.8713C0.740362 59.708 3.36837 66.1178 12.6412 67.6989C14.6068 68.0407 15.2478 68.2757 17.128 69.2799C22.3413 72.0575 25.4393 72.0789 31.8491 69.3868C35.2249 67.9553 35.7163 67.9553 38.558 69.2586C43.1944 71.3738 45.6087 71.2029 49.3264 68.4467C51.3562 66.9724 52.4885 66.4596 55.0952 65.8828C60.1162 64.7717 62.5092 62.507 62.9365 58.4688C63.4065 53.8324 59.2188 46.1193 56.2276 46.1193C53.1723 46.1407 52.7663 47.6149 54.7747 51.5676C57.4027 56.7168 57.1036 57.9347 52.9586 58.9602C49.476 59.8362 48.1085 60.4558 45.5019 62.336C43.3439 63.8957 43.814 63.8744 40.9723 62.5497C36.571 60.4986 34.4344 60.4558 29.2852 62.3574C24.6274 64.0453 23.666 64.0667 20.162 62.4215C17.7049 61.2677 16.3161 60.8404 13.6881 60.4558C9.77813 59.8576 9.15852 56.845 11.5088 49.8583C13.4531 44.1109 13.1326 42.0171 9.82087 38.3635C7.27832 35.5646 7.19286 35.1373 8.60301 31.035C10.12 26.6336 10.2268 25.138 9.26535 21.0999C8.7953 19.0487 8.8594 18.4932 9.7995 16.7199C11.5515 13.4295 9.62857 10.5024 6.38096 11.4852Z" fill="black"/>
<path d="M30.098 16.0955C24.0942 17.057 21.338 18.7021 21.338 21.3302C21.338 23.8086 24.0942 24.4282 29.9912 23.2531C36.166 22.0139 35.4822 20.9028 37.3838 35.4316C38.5589 44.3626 37.4052 46.6915 31.3586 47.4606C26.8718 48.0161 26.5299 47.5675 24.4361 37.8887C21.8294 25.817 21.3167 24.535 19.116 24.535C17.2785 24.535 16.488 25.9452 16.7444 28.8082C18.6887 51.4133 20.7184 55.3019 30.2049 54.8105C41.8493 54.1909 45.9729 48.3366 43.9859 35.218C41.2083 16.7792 39.6272 14.5999 30.098 16.0955Z" fill="black"/>
</svg>
