<svg width="228" height="214" viewBox="0 0 228 214" fill="none" xmlns="http://www.w3.org/2000/svg">
<path d="M220.014 0.913249C216.745 1.81062 210.848 6.51111 208.455 10.1433C207.857 11.0407 207.857 11.0407 207.002 9.78009C200.293 -0.283241 188.585 4.1395 188.563 16.724C188.563 22.6851 190.529 26.4455 198.071 34.8636C199.674 36.6584 199.631 36.3806 198.904 38.7522C197.195 44.3928 194.738 55.5031 193.777 61.806C193.648 62.7461 193.499 63.5367 193.477 63.5794C193.456 63.6008 192.965 63.3657 192.388 63.0452C190.208 61.8274 185.786 62.1906 179.803 64.0708C178.286 64.5409 176.833 64.9682 176.598 65.0323C176.257 65.0964 175.957 64.7545 174.996 63.1734C166.856 49.6061 150.788 52.3196 139.721 69.1132C135.362 75.7579 138.289 79.1765 142.755 72.6385C152.797 57.9388 165.018 55.6954 170.936 67.468C176.492 78.4928 172.261 92.2951 160.574 101.29C152.84 107.23 151.258 111.289 157.22 109.879C165.531 107.914 175.103 97.5725 177.88 87.5092C178.179 86.4195 178.329 86.2486 179.226 85.7144C182.047 84.112 187.901 78.7919 190.914 75.0956C192.409 73.2581 192.409 73.2581 192.58 74.5828C193.136 79.2192 193.435 80.0098 194.653 80.4157C196.811 81.1208 197.323 80.2448 197.345 75.6938C197.366 69.9251 198.477 62.9598 201.575 48.8797C202.109 46.4653 202.793 43.1322 203.113 41.4871C203.69 38.4531 203.69 38.4531 208.305 33.7953C223.518 18.4119 229.522 8.56224 226.936 3.28486C225.911 1.19101 222.834 0.144077 220.014 0.913249ZM187.602 68.4935C187.602 69.0063 182.132 75.2024 179.889 77.2322C179.12 77.9373 179.12 77.9373 178.991 75.9502C178.906 74.8819 178.671 73.1299 178.457 72.1044C178.179 70.8224 178.137 70.1815 178.286 70.1387C181.278 69.2627 187.602 68.1517 187.602 68.4935Z" fill="black"/>
<path d="M112.715 25.3586C107.395 26.8756 102.011 33.3708 96.8193 44.5665C96.1569 45.9553 96.0714 45.9553 95.7296 44.4383C91.0718 23.5425 77.1626 26.2346 79.2779 47.6219C80.2607 57.4074 82.8246 64.9069 85.2176 64.9069C87.5465 64.8855 87.8028 62.3002 86.6277 50.0576C86.2859 46.2544 86.3286 40.2506 86.7132 39.866C87.0764 39.5028 88.2088 42.8573 89.5335 48.2415C91.2 55.0358 92.1615 56.8306 94.4476 57.4288C97.2893 58.1766 98.6567 56.7878 102.246 49.4166C109.276 35.016 113.805 29.9309 117.01 32.9008C120.535 36.1484 122.886 45.0793 124.146 60.0354C124.723 66.958 125.279 68.5391 127.116 68.5391C129.103 68.5391 129.595 66.8298 129.573 60.2064C129.445 36.1697 122.822 22.4528 112.715 25.3586Z" fill="black"/>
<path d="M39.0686 55.6351C33.3639 57.0026 31.6546 62.3013 35.0732 68.006C37.8721 72.6638 42.6367 77.642 51.7172 85.3765C57.6569 90.4402 57.4219 90.2052 56.0972 90.0342C30.2445 86.9148 11.357 91.8503 15.8011 100.546C18.1087 105.076 25.0953 107.405 50.713 112.233C53.0419 112.682 54.8793 113.088 54.8366 113.152C54.7725 113.195 52.1445 113.9 49.0037 114.69C34.5604 118.344 29.6035 121.143 28.9412 126.078C27.8301 134.091 45.6279 139.838 71.8011 139.924C81.5653 139.945 85.5821 138.599 83.8088 135.885C83.1678 134.903 78.4246 134.027 71.3738 133.599C53.341 132.488 40.7565 130.053 36.462 126.805C35.2441 125.886 41.953 123.28 53.2342 120.267C65.1136 117.105 67.2288 115.78 66.246 112.105C65.4982 109.328 63.6821 108.644 48.726 105.61C32.6161 102.341 21.7409 99.2429 22.7878 98.2601C24.7748 96.3158 37.7439 95.0979 49.9011 95.6962C62.6138 96.3372 64.7077 96.1449 65.6691 94.2433C67.0152 91.5512 65.9255 90.0129 57.5501 82.7912C44.1964 71.275 37.338 62.8355 40.5215 61.8526C47.3158 59.7374 67.357 67.13 84.2575 77.9839C90.4108 81.9152 91.2655 82.4493 92.3124 82.8553C96.4787 84.5005 97.6752 81.1247 93.9789 78.1334C76.288 63.9037 49.7729 53.0285 39.0686 55.6351Z" fill="black"/>
<path d="M162.967 69.6114C160.531 70.9788 162.582 77.3458 165.253 76.7476C167.283 76.2989 167.86 73.5854 166.514 70.7438C165.937 69.5045 164.163 68.9277 162.967 69.6114Z" fill="black"/>
<path d="M149.593 117.405C147.82 118.281 141.581 124.904 136.645 131.143C120.471 151.654 112.011 160.115 102.054 165.777C96.157 169.132 91.3497 170.649 80.2394 172.593C59.9205 176.182 53.3398 179.43 32.1662 196.33C24.6881 202.292 22.4447 204.022 22.4447 203.894C22.4447 203.552 26.0769 196.095 28.4485 191.544C34.431 180.135 34.8583 178.939 33.8114 176.866C32.4867 174.217 30.2646 174.43 21.9106 178.084C16.6546 180.391 10.9071 182.699 10.7789 182.592C10.5225 182.336 26.3974 169.602 36.7598 161.76C43.2764 156.825 48.5111 151.612 48.5111 150.073C48.5111 146.719 42.5927 149.475 30.5637 158.363C4.2837 177.828 -1.29279 183.404 0.886526 187.934C2.78809 191.865 9.09103 190.818 23.0643 184.259C25.1368 183.276 26.8674 182.507 26.9102 182.549C26.9529 182.592 25.5428 185.284 23.7694 188.553C14.0265 206.586 13.001 209.898 16.3341 212.44C18.9621 214.449 21.9319 213.06 32.2944 204.962C57.1643 185.498 61.7793 183.148 81.4146 179.857C97.4603 177.187 105.451 173.811 115.279 165.606C123.505 158.748 129.445 151.718 144.743 130.801C147.35 127.233 149.785 124.156 151.473 122.298C154.593 118.858 153.332 115.567 149.593 117.405Z" fill="black"/>
</svg>
