<svg width="130" height="113" viewBox="0 0 130 113" fill="none" xmlns="http://www.w3.org/2000/svg">
<path d="M107.651 0.748769C105.044 1.26155 97.1387 4.21004 81.8193 10.3207C66.6068 16.41 44.9418 26.0033 17.273 38.8655C-0.866667 47.305 -1.03759 47.6255 2.87236 67.0044C7.31647 89.1608 13.2776 109.544 15.521 110.27C20.0505 111.766 19.8369 109.052 12.7648 76.149C7.87198 53.4371 7.70105 52.4329 8.74798 51.3432C10.0727 49.9758 13.5126 48.2451 29.4515 41.0662C58.9151 27.7553 69.9826 22.9907 92.4809 13.9743C96.8395 12.2223 102.16 10.0643 104.339 9.1883C110.215 6.79532 110.022 6.70985 111.667 12.265C114.06 20.2558 121.752 57.6675 122.201 63.4577C122.671 69.4401 120.791 70.4657 82.4389 84.8022C72.8029 88.413 59.3424 93.4554 52.5267 96.0193C36.0109 102.237 28.426 104.865 22.9777 106.296C17.0166 107.835 17.5721 113.048 23.6827 112.984C28.2337 112.941 32.2291 111.638 55.9239 102.322C70.3886 96.6602 73.9567 95.2928 93.7629 87.9002C135.234 72.3886 133.674 74.9525 124.936 36.9426C117.458 4.46643 114.979 -0.704111 107.651 0.748769Z" fill="black"/>
<path d="M100.558 13.0151C89.9173 15.8995 83.5503 20.4504 86.6056 23.0143C88.1012 24.2963 89.4473 24.0185 97.4595 20.7495C99.5961 19.8735 101.348 19.1685 101.348 19.1898C101.348 19.2112 101.839 21.1341 102.416 23.4416C104.062 29.9582 104.19 29.7659 96.9681 32.4581C93.0154 33.9537 92.6094 33.7827 91.007 30.0223C88.6781 24.4886 84.2981 26.4756 86.0715 32.2658C88.4644 40.0857 92.4599 41.1326 103.1 36.6885C109.852 33.8682 110.941 31.3898 108.954 23.4416C106.476 13.5065 105.087 11.7972 100.558 13.0151Z" fill="black"/>
<path d="M76.6692 41.5525C72.0542 42.3217 51.7139 48.9451 49.4918 50.398C47.4834 51.7227 48.4449 54.6712 50.8592 54.6284C51.9916 54.6284 69.5117 49.6075 76.8615 47.2145C84.8737 44.5865 84.7242 40.1851 76.6692 41.5525Z" fill="black"/>
<path d="M30.7123 46.2188C28.8534 46.6889 26.1613 48.8896 24.5162 51.2826C23.7684 52.3722 23.7684 52.3722 22.5505 51.9449C15.4143 49.5306 12.1453 58.141 17.2731 65.8755C24.388 76.6225 33.4257 76.1738 36.2674 64.9354C39.3868 52.5859 37.0152 44.595 30.7123 46.2188ZM31.7165 55.1712C31.6951 60.7904 30.1354 66.8369 28.4261 67.9052C26.5887 69.059 20.1575 61.6878 20.1575 58.4401C20.1575 57.1155 20.3926 57.0514 21.6531 57.9915C24.3452 59.9998 25.9904 59.6153 27.7851 56.5386C28.5971 55.1284 31.3746 52.0517 31.6096 52.2868C31.6737 52.3509 31.7378 53.6542 31.7165 55.1712Z" fill="black"/>
<path d="M80.1964 53.971C74.4703 54.3983 54.1727 62.5174 50.9037 65.6581C47.592 68.8417 50.7969 71.0423 55.6256 68.8844C58.51 67.6024 63.766 65.594 72.5901 62.3892C81.8415 59.0133 84.5977 57.5177 84.8328 55.6589C85.025 54.0778 83.914 53.6719 80.1964 53.971Z" fill="black"/>
<path d="M77.9534 66.3224C74.1931 66.9848 57.7413 73.5655 54.0878 75.873C51.2675 77.6464 52.5494 81.0222 55.7757 80.2316C58.425 79.5906 76.8852 72.9886 79.4704 71.7707C85.7734 68.8222 84.7264 65.1259 77.9534 66.3224Z" fill="black"/>
</svg>
