<svg width="115" height="200" viewBox="0 0 115 200" fill="none" xmlns="http://www.w3.org/2000/svg">
<path d="M51.4477 0.917691C45.9353 2.28511 30.1245 18.5659 13.331 40.1455C0.36186 56.8109 -1.62517 60.8063 1.9002 63.1352C3.67357 64.3316 4.74187 64.0539 10.1474 61.1054C12.2627 59.9516 16.5358 57.6014 19.6553 55.8921C22.7747 54.1828 31.5133 49.4396 39.0982 45.3587C63.7972 32.0478 68.3054 29.5693 77.5568 24.2065C80.4412 22.54 83.0051 21.0657 83.2615 20.9162C85.2699 19.8692 89.479 43.5213 92.7266 74.0959C95.3332 98.6025 96.5938 106.935 100.846 127.617C102.747 136.89 103.901 142.915 104.67 147.808C105.567 153.385 107.469 166.204 107.469 166.589C107.469 167.102 106.764 167.401 99.3714 170.029C82.2573 176.118 70.6129 180.904 55.1013 188.254C48.0719 191.587 45.0166 192.89 43.8201 193.04C42.7304 193.189 42.6022 192.869 40.2733 183.703C38.4572 176.567 36.0856 168.384 33.9704 161.803C30.5732 151.312 28.3725 143.3 23.6079 124.199C16.0231 93.7311 8.71592 71.2969 5.36148 68.1134C2.98986 65.87 0.190933 67.5579 0.532787 71.0192C0.660983 72.2798 2.28479 78.0272 4.67777 85.6762C9.14324 99.9058 10.8739 106.059 15.3821 123.878C20.6167 144.496 21.5141 147.659 27.0265 164.046C31.0433 176.075 32.0688 179.366 34.1627 187.335C38.1154 202.27 39.8887 202.825 57.3874 194.642C74.5869 186.587 86.3382 181.887 105.482 175.349C115.374 171.994 115.674 171.311 113.665 156.889C111.742 142.958 111.208 139.881 108.11 124.199C104.798 107.512 103.709 100.803 101.807 85.4198C101.145 80.1851 100.141 72.0661 99.5637 67.3442C97.4912 50.7429 95.5896 40.0814 92.5984 28.0737C88.4107 11.3656 86.9792 10.6605 72.7495 18.5659C69.3523 20.4461 59.1608 26.0653 50.1016 31.0436C36.2565 38.6285 20.3176 47.4526 15.5744 50.1233C13.9719 51.0421 13.9506 50.9993 14.9761 49.5678C21.5568 40.5728 33.0089 27.0695 43.2859 16.1943C46.4053 12.8826 51.8109 8.28892 52.5587 8.28892C52.9219 8.28892 53.9048 10.9383 55.4217 16.0234C57.131 21.7281 61.7247 20.2111 61.2333 14.0791C60.4641 4.50716 56.8105 -0.406994 51.4477 0.917691Z" fill="black"/>
<path d="M71.2975 33.1569C70.1438 34.2252 70.1224 35.3362 71.1907 40.1222C71.8958 43.4125 73.0923 45.25 74.5024 45.25C76.7031 45.25 77.0877 40.9555 75.4425 34.8448C74.9084 32.9005 72.6009 31.9604 71.2975 33.1569Z" fill="black"/>
<path d="M60.9137 40.4244C58.9053 42.5609 62.4734 50.3809 65.4219 50.3809C67.6653 50.3809 67.8362 48.2229 65.9346 43.7574C64.3108 39.8688 62.5375 38.6937 60.9137 40.4244Z" fill="black"/>
<path d="M46.8553 46.9857C43.0949 48.0753 46.9408 57.8609 50.8294 57.0917C54.1625 56.408 51.0003 46.1951 47.6459 46.772C47.5818 46.772 47.2399 46.8789 46.8553 46.9857Z" fill="black"/>
<path d="M28.3541 55.3396C27.243 56.8352 27.9481 59.976 30.0633 63.0527C31.9435 65.7661 34.9561 65.1038 34.9134 61.963C34.892 57.2839 30.3197 52.7116 28.3541 55.3396Z" fill="black"/>
<path d="M64.2033 57.4106C63.2632 57.7525 60.9557 58.6071 59.0755 59.3549C57.1953 60.0813 52.9221 61.5342 49.5676 62.5811C27.0266 69.696 24.7832 70.7429 24.7832 74.1187C24.7832 77.0886 26.642 77.7082 30.8938 76.1485C32.2826 75.6143 37.1968 74.0333 41.7691 72.6017C53.0075 69.0977 59.0541 67.0893 63.135 65.4655C67.0663 63.9058 66.639 63.5853 69.4379 70.0378C77.0442 87.5792 86.2742 120.419 88.8595 139.263C89.6928 145.353 89.9919 144.498 86.3811 146.186C72.536 152.66 58.5413 157.531 52.5375 158.001C50.4223 158.172 50.9991 159.646 46.1491 141.614C42.3887 127.662 40.5085 120.76 36.0003 104.651C34.056 97.6639 31.8339 89.6945 31.0648 86.9383C29.2487 80.3789 29.0777 80.0798 27.1335 80.0798C25.9583 80.0798 25.2746 80.6567 24.9969 81.9173C24.6336 83.5411 28.1804 98.7109 35.4661 126.657C36.8977 132.127 38.9702 140.139 40.0812 144.498C44.6962 162.467 45.5081 164.048 50.4223 164.625C55.8706 165.266 78.2407 157.98 91.8721 151.121C95.8889 149.092 96.7435 146.934 95.953 140.759C93.0686 118.282 80.2063 73.4777 73.0487 61.0642C70.7626 57.1115 68.0919 56.0218 64.2033 57.4106Z" fill="black"/>
<path d="M12.8841 62.044C10.2775 64.0952 14.0165 71.7441 17.6273 71.7441C20.0844 71.7441 20.469 69.1802 18.6102 65.5053C16.6018 61.574 14.8284 60.5057 12.8841 62.044Z" fill="black"/>
<path d="M63.6704 96.8705C61.8543 97.5115 59.8673 99.3917 58.4785 101.763C58.0084 102.575 57.5811 103.302 57.5384 103.344C57.517 103.387 56.9829 103.216 56.3846 102.938C44.4838 97.8319 42.3045 115.267 53.1156 129.133C63.0935 141.953 70.6998 140.713 72.8364 125.907C75.6567 106.336 71.7467 93.9647 63.6704 96.8705ZM66.5548 104.049C68.8837 109.22 67.9649 130.03 65.3369 131.654C64.525 132.146 60.4869 128.513 57.6025 124.667C51.3209 116.271 49.8894 104.199 55.8718 110.011C58.8631 112.895 60.5296 112.51 62.1748 108.536C63.3072 105.844 65.2728 102.938 65.9779 102.938C66.0206 102.938 66.277 103.451 66.5548 104.049Z" fill="black"/>
<path d="M96.2324 156.738C93.2626 159.216 96.7238 166.48 100.335 165.284C102.813 164.451 102.3 158.618 99.5655 156.716C98.8604 156.225 96.852 156.225 96.2324 156.738Z" fill="black"/>
<path d="M79.8656 161.586C77.5581 163.723 81.1262 171.094 84.4806 171.094C86.8308 171.094 87.1086 168.53 85.1857 164.406C83.626 161.095 81.5748 160.005 79.8656 161.586Z" fill="black"/>
<path d="M66.7447 166.012C63.5611 167.55 67.1292 176.823 70.6119 176.096C72.663 175.69 73.1117 173.276 71.8084 169.815C70.441 166.204 68.8385 164.986 66.7447 166.012Z" fill="black"/>
<path d="M46.706 173.381C44.5908 175.646 48.6289 183.701 51.8979 183.701C54.2695 183.701 54.3977 180.881 52.2611 176.522C50.4237 172.805 48.3298 171.629 46.706 173.381Z" fill="black"/>
</svg>
