<svg width="339" height="284" viewBox="0 0 339 284" fill="none" xmlns="http://www.w3.org/2000/svg">
<path d="M205.645 1.24509C196.03 3.7449 190.795 12.8468 193.423 22.5255C196.351 33.3153 207.91 46.1348 223.806 56.1982C226.242 57.7365 226.69 57.416 219.96 58.933C204.662 62.3515 199.171 61.7106 188.445 55.1726C186.864 54.2111 184.065 52.5232 182.249 51.4122C169.601 43.7205 159.024 41.1993 149.217 43.5496C138.214 46.1776 137.274 53.3565 148.235 51.1558C159.153 48.9551 166.695 50.8353 180.754 59.2535C191.607 65.7274 195.71 67.3939 202.461 68.0349C208.038 68.5476 216.648 67.1802 225.857 64.2745C226.284 64.1249 226.22 64.2531 225.472 65.0864C221.626 69.2741 219.939 73.9532 221.007 77.5213C222.118 81.2176 226.263 80.4057 226.263 76.4958C226.263 70.8552 235.258 64.1035 242.821 64.0608C246.646 64.0608 246.774 64.1676 245.663 67.052C244.616 69.7441 244.039 70.3638 242.95 69.851C237.715 67.4366 230.728 72.308 229.981 78.8674C229.275 85.0848 234.98 87.136 235.963 81.004C236.241 79.3374 236.775 77.7563 237.138 77.5213C237.224 77.4786 237.8 77.6923 238.441 78.0127C239.36 78.4614 239.894 78.5683 241.155 78.5896C242.351 78.5896 242.736 78.6537 242.8 78.9101C242.843 79.081 243.056 79.9143 243.249 80.7476C243.612 82.35 244.467 83.4824 245.385 83.6533C245.727 83.6961 245.556 83.8884 244.638 84.4439C238.206 88.3966 235.044 93.0543 237.245 95.3405C238.548 96.7079 240.236 96.2806 242.757 93.9517C258.867 79.1238 297.069 74.1669 313.051 84.8712C322.858 91.4519 323.243 102.092 314.504 125.488C302.026 158.904 291.963 180.206 270.96 217.682C257.457 241.782 250.086 248.213 238.997 245.585C224.254 242.081 199.491 219.113 180.134 191.017C178.446 188.581 176.694 186.188 176.267 185.675C175.455 184.757 175.455 184.757 175.562 181.872C176.032 170.741 173.169 160.314 169.665 160.314C166.951 160.336 166.46 161.917 167.592 166.98C168.019 168.775 168.404 170.591 168.468 170.997C168.532 171.403 168.725 172.706 168.917 173.881C169.301 176.424 169.558 183.218 169.323 185.013C169.045 187.171 166.887 181.915 162.806 169.181C161.61 165.421 159.43 158.947 157.977 154.823C152.892 140.316 152.016 135.765 154.003 133.97C156.033 132.133 159.986 138.286 162.486 147.174C163.639 151.212 164.665 152.11 166.973 150.999C169.75 149.674 167.229 137.688 162.998 132.133C161.674 130.402 161.652 118.138 162.934 111.493C165.434 98.6736 177.143 86.3882 191.073 81.9227C203.743 77.8632 217.524 82.6064 226.605 94.1226C230.857 99.5068 235.835 97.5412 232.63 91.7296C226.455 80.5553 208.657 72.1371 195.282 74.0814C169.729 77.7991 152.316 101.152 156.311 126.364C156.439 127.154 156.439 127.154 154.666 127.154C153.298 127.133 152.636 127.24 151.867 127.582C150.863 128.03 150.863 128.03 149.602 125.958C138.278 107.54 118.002 95.2764 104.52 98.6736C93.0679 101.579 76.1034 122.924 71.6593 139.995C71.0183 142.474 71.3388 142.26 68.9672 141.769C40.8497 135.765 7.39072 152.943 1.81422 176.232C-2.71535 195.076 11.8562 220.758 36.1065 236.697C47.3449 244.09 58.1133 248.726 90.0553 259.986C114.562 268.618 122.66 271.673 136.526 277.613C152.337 284.386 155.52 284.813 159.922 280.796C165.498 275.669 169.771 258.576 171.823 233.065C172.421 225.737 172.079 205.546 171.224 195.44C171.096 193.987 171.118 193.901 171.566 193.752C171.823 193.666 172.399 193.239 172.848 192.79C173.66 191.978 173.66 191.978 175.006 194.136C190.133 218.622 218.657 245.863 234.574 250.991C253.974 257.251 263.867 247.423 290.852 195.034C313.03 152.003 327.516 114.442 327.537 99.9341C327.559 75.8548 297.668 64.8086 263.012 76.1112C260.448 76.9444 260.448 76.9444 260.448 75.9402C260.448 70.1074 257.756 64.0608 253.889 61.1978C253.163 60.6636 252.564 60.0868 252.564 59.9372C252.522 59.4671 251.325 56.9673 250.62 55.9418C250.235 55.3863 249.979 54.9376 250.022 54.8948C258.76 48.8269 274.443 49.8952 300.061 58.3134C319.632 64.7445 330.037 65.0009 336.618 59.1894C341.147 55.194 338.006 51.5618 332.451 54.3607C325.037 58.1211 318.841 57.6083 300.189 51.7754C275.533 44.0623 262.051 42.5881 251.816 46.5621C251.603 46.6476 252.457 45.4298 253.739 43.8487C262.734 32.7171 268.033 18.7651 265.619 12.6331C260.918 0.775045 241.71 12.2699 235.578 30.6232C235.172 31.841 234.788 32.7171 234.724 32.5461C234.681 32.3752 234.382 31.0291 234.061 29.5549C229.596 8.76589 218.635 -2.15208 205.645 1.24509ZM212.567 8.29584C220.109 10.3042 224.383 18.7224 228.699 40.131C229.981 46.434 231.369 52.8651 231.54 53.1001C231.775 53.5061 231.113 53.1642 228.72 51.7113C210.196 40.4942 197.91 25.2604 199.769 15.838C200.859 10.2615 206.799 6.75749 212.567 8.29584ZM259.038 14.9406C261.089 20.2607 251.667 37.8021 241.369 47.9082C239.894 49.3611 239.83 49.2115 240.001 43.4855C240.279 32.6957 244.83 23.0383 252.201 17.5259C255.342 15.2184 258.654 13.9364 259.038 14.9406ZM252.885 69.851C253.697 71.7098 254.039 73.4191 254.188 76.4958C254.316 79.3374 254.316 79.3374 251.56 80.6621C250.043 81.3885 248.74 82.0295 248.676 82.0509C248.612 82.0936 248.654 81.6663 248.761 81.1108C248.932 80.2775 248.889 79.6152 248.505 77.7777C248.056 75.4702 248.056 75.4702 249.124 74.1455C249.723 73.4191 250.663 71.8807 251.218 70.7483C252.415 68.2913 252.222 68.3767 252.885 69.851ZM114.348 104.848C125.352 107.647 138.278 118.886 145.35 131.791C146.525 133.927 146.525 133.927 146.525 136.812C146.504 141.384 147.295 144.354 151.482 155.614C153.042 159.78 155.734 167.429 157.465 172.6C160.541 181.808 161.93 185.483 163.234 188.068C163.789 189.201 163.874 189.585 163.874 191.124C163.874 192.107 164.067 195.589 164.302 198.88C166.267 227.147 163.469 257.486 157.593 271.374C155.2 277.036 154.452 277.121 144.41 272.912C142.124 271.951 138.77 270.541 136.953 269.772C126.441 265.349 116.335 261.631 95.5036 254.538C80.868 249.559 79.8424 249.196 74.2659 247.188C42.4949 235.65 26.9619 224.796 15.7875 206.294C4.1431 187.043 6.57881 171.553 23.1587 159.353C36.5765 149.482 58.4979 144.909 73.3686 148.841C77.1931 149.866 79.4151 147.366 76.8085 144.973C74.1805 142.559 87.1496 120.274 96.5078 111.151C102.811 104.976 107.853 103.203 114.348 104.848Z" fill="black"/>
<path d="M107.789 122.582C100.311 124.035 92.8111 131.171 84.8417 144.461C77.214 157.174 75.5689 163.519 80.013 163.092C81.2522 162.985 81.9786 162.109 83.7306 158.669C92.9393 140.465 102.832 128.992 109.712 128.543C122.852 127.667 137.145 164.737 143.47 215.972C144.239 222.19 145.948 224.946 148.192 223.579C151.482 221.57 150.328 208.751 144.623 184.458C134.304 140.359 122.082 119.826 107.789 122.582Z" fill="black"/>
<path d="M52.878 160.636C26.8757 164.075 15.4236 187.001 30.6575 205.162C41.6395 218.259 77.5769 238.023 84.1363 234.583C86.9779 233.109 84.1576 230.417 76.1454 226.977C47.857 214.819 30.5506 200.077 30.5506 188.133C30.5506 174.78 50.2286 163.285 66.1035 167.366C69.3724 168.199 70.9321 167.558 70.9321 165.357C70.9321 161.811 61.8944 159.46 52.878 160.636Z" fill="black"/>
<path d="M145.178 229.819C143.96 231.037 143.789 232.575 144.344 238.13C145.989 254.86 143.81 255.373 114.047 245.267C100.437 240.652 97.4676 239.84 95.9719 240.352C93.3012 241.25 93.8994 243.856 97.0402 245.032C97.8949 245.352 101.719 246.848 105.544 248.343C141.075 262.295 151.053 261.526 151.053 244.839C151.053 234.114 148.19 226.806 145.178 229.819Z" fill="black"/>
<path d="M278.394 92.0487C260.105 94.6553 236.41 109.59 245.426 112.816C246.73 113.265 247.328 113.009 250.105 110.829C259.122 103.8 273.886 98.3302 283.821 98.3302C299.012 98.3516 300.828 110.338 289.568 136.169C286.022 144.267 283.543 149.267 269.677 176.23C261.002 193.109 255.511 204.882 252.755 212.552C250.533 218.748 253.332 222.146 256.985 217.701C257.562 217.018 258.994 214.24 261.216 209.476C263.075 205.523 269.997 191.486 276.578 178.26C296.341 138.605 299.76 130.635 302.345 118.158C306.127 99.8686 296.555 89.442 278.394 92.0487Z" fill="black"/>
<path d="M201.905 96.9843C180.753 99.5268 171.779 116.278 177.997 141.66C182.206 158.839 194.918 179.585 200.046 177.64C201.82 176.957 201.029 173.859 197.952 169.308C181.308 144.758 177.997 118.628 190.218 108.372C199.277 100.745 217.545 102.112 227.971 111.171C231.411 114.184 234.766 111.556 232.116 107.945C227.202 101.236 212.097 95.7664 201.905 96.9843Z" fill="black"/>
<path d="M207.182 191.126C201.007 195.634 232.201 231.422 242.329 231.465C246.174 231.486 244.593 227.875 238.59 222.961C227.565 213.966 216.369 201.574 211.049 192.515C210.088 190.891 208.357 190.271 207.182 191.126Z" fill="black"/>
</svg>
