<svg width="113" height="136" viewBox="0 0 113 136" fill="none" xmlns="http://www.w3.org/2000/svg">
<path d="M68.0068 0.220728C53.7771 1.18219 21.6856 7.10054 15.8527 9.83538C13.7161 10.8609 12.4555 12.5916 12.9683 13.8308C13.7588 15.711 16.3227 15.7537 23.9931 14.0017C58.6913 6.07498 78.0488 4.6221 81.5955 9.66445C88.9668 20.1765 103.944 74.6167 106.487 100.256C107.106 106.324 108.666 105.277 90.3342 111.003C84.8645 112.712 76.66 115.319 72.0663 116.793C37.4322 127.903 31.1079 129.677 26.0869 129.677C20.7882 129.677 20.7241 129.378 14.293 79.6805C13.6947 75.1509 12.5837 66.5404 11.8145 60.558C7.77638 29.3424 5.72525 15.7324 4.74242 13.8308C4.12281 12.6557 2.39217 12.2284 1.38798 13.0403C0.405145 13.7881 0.298316 14.7709 0.789731 18.6595C1.02476 20.5397 1.85803 27.6332 2.6272 34.3848C6.45169 68.1429 10.9599 104.358 12.9042 116.943C16.5578 140.744 17.6261 140.872 70.0366 124.122C75.5062 122.37 83.3903 119.87 87.5566 118.566C111.999 110.896 112.619 110.554 112.939 104.08C113.538 91.4531 101.444 39.3844 92.7485 17.1852C86.7447 1.84454 82.9202 -0.783468 68.0068 0.220728Z" fill="black"/>
<path d="M68.9698 18.6856C66.2777 19.0489 61.214 20.3095 53.9068 22.4247C50.6165 23.3648 44.5058 25.1168 40.3395 26.2919C31.3658 28.8344 30.7035 29.1549 30.383 31.1206C30.2548 31.9539 30.2975 32.0821 30.9812 32.7658C32.8614 34.646 35.7458 34.1332 56.5776 28.0866C72.3029 23.5357 74.4181 23.5357 76.5974 28.2148C81.0415 37.6799 87.3231 68.9168 85.3147 71.609C82.7722 75.0061 51.3857 84.8131 38.9507 86.1164C36.1304 86.3941 35.5535 86.2659 35.0621 85.0908C34.5493 83.8302 30.5753 65.2633 26.238 43.8974C24.2937 34.2827 24.2937 34.2827 23.5673 33.5777C22.3494 32.4453 20.6188 32.7017 19.8496 34.1118C18.995 35.7356 20.8538 49.132 24.6356 68.4682C28.396 87.7402 29.101 89.8341 32.4982 91.5647C33.4597 92.0775 33.9511 92.1629 36.4936 92.3766C42.9675 92.9321 76.106 84.3644 85.2079 79.7921C93.9892 75.3693 94.2884 71.8867 88.1777 45.4357C82.6653 21.5273 79.5886 17.2328 68.9698 18.6856Z" fill="black"/>
<path d="M39.867 36.7124C38.7774 37.6739 32.5385 50.1943 32.0685 52.3523C31.0857 57.01 33.3718 58.3561 36.5126 54.9589C38.991 52.2668 44.2043 40.2592 43.8411 38.0585C43.5206 36.0928 41.384 35.3664 39.867 36.7124Z" fill="black"/>
<path d="M56.7903 44.3629C54.4615 46.3286 48.0731 61.2847 48.6499 63.3999C50.0174 68.3141 54.8033 62.3103 59.9311 49.2343C61.5763 45.0252 59.6106 41.9699 56.7903 44.3629Z" fill="black"/>
<path d="M72.492 55.1973C71.3596 55.7101 69.6503 58.8722 66.7446 65.9443C63.1337 74.7471 67.7701 78.8921 71.7442 70.4098C76.7225 59.8123 77.0429 53.1889 72.492 55.1973Z" fill="black"/>
</svg>
