<svg width="293" height="482" viewBox="0 0 293 482" fill="none" xmlns="http://www.w3.org/2000/svg">
<path d="M120.515 1.01853C93.3594 2.87737 72.784 25.0979 68.81 56.8903C65.541 83.0422 80.2407 113.061 99.7905 120.197C100.389 120.411 100.88 120.625 100.923 120.646C100.966 120.668 100.175 121.971 99.1495 123.531C92.3124 134.171 93.5944 139.79 102.525 138.401C103.551 138.252 104.384 138.145 104.384 138.188C104.384 138.23 104.213 139.192 104.021 140.345C102.675 148.165 104.085 157.908 108.422 170.471C112.097 181.197 112.909 185.278 113.251 194.764C113.507 201.794 114.875 204.422 117.481 202.819C121.605 200.255 120.772 185.406 115.601 169.681C111.05 155.857 109.512 145.58 110.901 138.38C111.285 136.371 110.901 136.692 113.465 136.03C121.05 134.021 123.186 129.663 120.109 122.441C120.003 122.163 120.344 122.035 121.947 121.714C151.304 115.817 165.298 93.3619 161.687 58.0227C160.021 41.8274 153.462 22.6622 149.573 22.6622C147.159 22.6622 146.902 24.1578 148.505 29.0506C158.141 58.7705 156.004 90.1998 143.505 102.699C128.72 117.484 105.495 118.958 92.3765 105.925C62.8702 76.611 74.0232 19.6496 111.392 8.88118C123.742 5.33444 130.493 6.83006 137.929 14.7354C144.018 21.2093 148.612 18.5599 143.377 11.5946C138.484 5.03532 132.95 1.80907 125.387 1.08263C123.143 0.868972 122.716 0.868972 120.515 1.01853ZM110.708 122.59C113.336 122.719 113.336 122.719 113.999 124.556C115.409 128.423 115.388 128.829 113.764 129.321C111.713 129.962 103.423 131.372 103.166 131.137C102.889 130.838 107.375 122.184 107.717 122.313C107.931 122.398 109.277 122.505 110.708 122.59Z" fill="black"/>
<path d="M114.961 22.429C109.106 23.4759 106.137 25.5484 106.671 28.2619C107.055 30.1634 108.978 30.7189 111.457 29.6506C114.426 28.3473 121.862 28.0482 125.601 29.0738C134.874 31.5736 139.083 39.0516 138.976 52.7899C138.933 58.2596 138.784 59.4988 138.271 58.5587C130.408 43.8803 112.034 30.1634 106.991 35.2058C105.068 37.1073 106.478 39.2439 111.264 41.6796C123.144 47.7262 130.088 55.247 136.583 69.028C138.549 73.1943 140.707 74.2626 142.929 72.1687C145.087 70.1176 146.176 53.1958 144.745 43.923C142.33 28.2832 130.43 19.7155 114.961 22.429Z" fill="black"/>
<path d="M204.804 85.2588C194.698 86.669 186.45 91.3695 188.715 94.4248C189.805 95.8777 192.347 95.9204 197.753 94.5744C213.072 90.814 222.153 93.5274 229.182 104.039C242.408 123.76 237.472 155.232 218.798 170.188C201.812 183.798 175.639 180.081 167.606 162.924C159.829 146.344 166.858 116.389 182.263 100.429C185.233 97.3519 185.681 95.8349 183.972 94.5316C179.378 91.0276 166.559 106.945 160.512 123.717C150.513 151.45 157.777 174.568 179.122 183.029C179.571 183.221 179.485 183.328 177.562 185.572C173.652 190.08 172.904 191.746 173.652 194.246C174.336 196.554 178.374 198.819 180.361 198.049C184.036 196.596 183.609 201.511 179.25 210.399C176.002 217.044 175.682 218.561 177.156 220.099C181.023 224.137 189.442 210.976 189.164 201.318C189.078 198.284 189.078 198.284 192.07 198.284C199.74 198.284 201.001 195.678 198.052 186.042C197.967 185.743 198.073 185.679 198.736 185.679C211.107 185.679 225.7 176.705 234.331 163.778C256.936 129.956 238.391 80.6011 204.804 85.2588ZM189.442 185.508C191.471 185.743 191.471 185.743 191.856 187.901C192.518 191.554 192.518 191.511 192.07 191.383C191.835 191.319 189.848 191.148 187.604 190.999C181.686 190.635 182.07 190.999 184.143 187.751C185.895 185.016 185.895 185.016 186.643 185.144C187.049 185.208 188.309 185.358 189.442 185.508Z" fill="black"/>
<path d="M35.4791 98.2965C27.2319 99.1084 22.2964 102.142 24.9244 104.77C26.0568 105.903 27.0182 106.031 33.7485 105.86C55.7981 105.305 67.2289 115.325 73.4036 140.601C81.0526 171.966 72.6344 204.293 55.6699 208.673C40.671 212.561 17.1258 189.529 9.9469 163.975C4.47723 144.511 7.91714 123.701 18.7069 110.902C23.0869 105.689 20.2239 102.057 15.3738 106.693C2.27654 119.107 -3.00083 142.802 2.46884 164.531C8.30172 187.713 28.3429 211.172 45.9912 215.446C47.0808 215.702 47.9782 215.98 47.9782 216.044C47.9782 216.108 47.3586 217.369 46.5894 218.821C43.1709 225.253 42.9145 227.368 45.222 229.333C46.8458 230.722 48.4055 230.872 52.1659 229.91C53.5547 229.568 54.7084 229.291 54.7084 229.333C54.7298 229.355 54.623 230.38 54.4734 231.62C51.6745 253.691 52.3155 280.526 56.0972 299.563C59.8576 318.493 65.3914 331.633 81.3731 359.494C94.4704 382.313 98.2735 390.539 102.995 406.072C106.072 416.285 108.444 429.297 108.444 436.134C108.444 437.138 108.55 437.159 106.692 435.771C97.5043 428.827 85.3899 429.318 81.9499 436.753C78.5314 444.167 86.565 455.363 98.5512 459.914C100.325 460.576 100.325 460.576 98.3376 461.388C95.1113 462.734 94.1712 463.76 94.5558 465.469C95.0045 467.499 96.436 467.841 100.966 466.943C101.713 466.794 101.713 466.794 100.688 467.905C97.547 471.259 98.1667 474.87 101.777 474.4C103.487 474.187 104.683 473.417 107.418 470.725C108.337 469.828 109.085 469.208 109.085 469.315C109.085 469.443 108.892 470.212 108.657 471.024C106.563 478.225 106.542 480.831 108.572 481.6C111.221 482.605 112.888 480.126 114.768 472.349C115.494 469.294 115.409 469.294 116.434 472.435C118.4 478.524 120.665 480.938 122.802 479.272C124.361 478.032 124.148 475.768 121.947 469.678C121.455 468.354 121.178 467.349 121.327 467.435C121.477 467.52 122.161 468.033 122.866 468.589C127.203 471.964 130.878 472.264 130.878 469.272C130.878 467.435 130.023 466.409 125.237 462.563C123.72 461.346 122.246 460.149 121.968 459.914C121.434 459.487 121.434 459.487 122.588 459.081C137.373 453.868 146.112 440.129 139.958 431.775C135.877 426.22 128.506 427.117 121.648 433.976C120.366 435.258 119.34 436.155 119.34 435.984C119.34 434.531 121.776 427.16 123.528 423.25C128.656 411.926 134.574 404.79 151.923 389.086C170.512 372.25 178.673 363.362 186.493 351.482C191.386 344.026 194.057 338.705 199.591 325.459C204.676 313.259 208.03 307.191 213.799 299.841C214.889 298.452 215.957 296.999 216.192 296.615C216.683 295.781 216.363 295.76 218.542 296.786C225.956 300.268 229.31 297.597 229.546 287.961C229.631 284.18 229.674 283.731 229.973 283.859C242.493 288.667 265.611 281.146 278.644 268.07C302.083 244.525 295.823 211.108 267.021 206.173C257.129 204.485 257.919 208.395 268.41 213.117C280.012 218.33 284.84 224.12 285.781 233.948C288.601 263.882 241.318 290.547 221.149 270.377C206.428 255.635 222.067 217.796 245.527 211.429C251.36 209.848 251.723 205.767 246.04 205.767C236.938 205.767 224.567 214.698 216.427 227.154C204.718 245.016 204.27 264.502 215.273 275.591C215.893 276.21 216.363 276.744 216.32 276.787C216.277 276.808 215.209 277.385 213.927 278.069C203.565 283.539 202.368 287.513 209.739 291.893C211.235 292.79 211.235 292.79 209.44 294.628C201.941 302.298 198.095 308.323 191.835 322.318C188.673 329.369 187.925 330.992 186.109 334.603C177.733 351.375 168.567 362.4 145.834 383.104C133.399 394.428 128.699 399.427 123.357 407.055C122.652 408.038 123.848 405.346 126.199 400.624C129.831 393.338 133.249 387.826 140.471 377.549C153.376 359.131 155.94 353.982 157.564 343.15C157.948 340.607 157.863 325.672 157.457 322.254C157.179 319.946 154.081 319.455 153.013 321.549C152.201 323.087 151.432 329.475 151.389 334.817C151.325 346.077 148.526 353.213 138.313 368.233C126.797 385.155 124.917 388.146 121.327 395.218C120.109 397.59 119.127 399.491 119.127 399.449C119.127 399.256 120.9 391.885 122.631 384.813C129.04 358.725 132.01 342.38 132.309 331.569C132.438 326.698 132.438 326.698 133.207 326.591C140.813 325.459 143.398 322.296 141.689 316.229C140.984 313.771 140.856 314.028 143.099 313.601C168.995 308.622 183.673 277.385 174.892 246.02C169.379 226.364 155.897 210.852 141.668 207.775C131.967 205.703 129.66 211.279 138.997 214.228C172.563 224.847 182.028 283.624 153.205 302.448C133.207 315.523 110.26 305.332 104.32 280.74C99.1281 259.374 109.469 230.658 127.075 217.561C132.95 213.181 129.874 209.015 123.613 212.839C112.247 219.74 101.051 236.555 96.9061 252.964C90.71 277.535 100.987 303.58 119.981 311.464C121.84 312.233 121.861 312.254 121.092 313.109C114.49 320.651 116.413 326.911 125.344 326.911C126.669 326.911 126.669 326.911 126.541 329.005C125.921 338.321 122.374 355.926 115.836 382.164C113.913 389.898 112.204 396.842 112.054 397.568C111.691 399.299 111.627 399.192 110.687 395.603C109.704 391.8 107.717 385.048 105.004 376.373C97.077 351.055 94.5131 333.599 96.3506 317.51C97.077 311.293 96.7565 310.075 94.3849 309.968C87.9538 309.691 88.2529 340.692 94.8977 365.691C95.56 368.148 96.1369 370.37 96.201 370.605C96.2651 370.84 95.7096 369.964 94.9831 368.682C94.2567 367.378 92.9961 365.221 92.2056 363.874C80.027 343.043 74.771 332.958 70.3696 321.89C62.5711 302.341 59.3662 280.142 59.8149 249.14C60.0072 236.619 60.2422 227.838 60.3704 227.731C60.4345 227.667 61.4387 227.368 62.5925 227.026C70.8183 224.633 72.0362 220.039 66.0751 213.95C65.2418 213.095 64.6008 212.369 64.6649 212.326C83.1037 199.122 88.9366 163.484 77.9973 130.666C70.6688 108.638 54.623 96.4377 35.4791 98.2965ZM59.6867 217.86C61.3319 220.061 61.3746 219.911 59.1525 220.573C51.3967 222.881 51.9095 222.988 53.4051 219.185C54.623 216.129 57.1228 214.313 58.127 215.766C58.2552 215.937 58.9389 216.877 59.6867 217.86ZM222.003 280.697C222.623 280.996 222.751 281.167 222.644 281.509C222.58 281.744 222.388 283.902 222.217 286.316C222.046 288.731 221.918 290.718 221.897 290.739C221.875 290.953 216.384 288.004 214.055 286.53C213.137 285.953 213.137 285.953 215.529 284.372C216.833 283.496 218.649 282.235 219.525 281.552C220.401 280.889 221.149 280.334 221.191 280.334C221.213 280.334 221.576 280.505 222.003 280.697ZM131.262 314.242C133.57 314.391 133.463 314.306 134.061 316.699C134.724 319.412 134.745 319.348 133.185 319.626C129.382 320.331 124.083 320.181 124.489 319.391C125.9 316.613 128.015 313.857 128.634 313.985C128.998 314.049 130.173 314.156 131.262 314.242ZM133.869 435.877C134.681 436.326 134.937 438.142 134.425 440.044C133.249 444.488 128.848 448.334 121.306 451.475C118.08 452.821 118.208 452.97 119.853 449.701C124.276 440.941 130.985 434.339 133.869 435.877ZM95.3036 439.723C100.645 441.091 107.183 446.539 109.533 451.581C110.452 453.568 110.217 453.825 107.61 453.825C100.09 453.825 93.1884 450.214 89.7485 444.509C87.1632 440.215 89.4707 438.228 95.3036 439.723Z" fill="black"/>
<path d="M205.015 98.8534C196.767 100.627 190.892 105.584 193.541 108.511C194.652 109.729 196.276 109.665 200.763 108.233C214.48 103.832 221.509 111.16 221.552 129.919C221.573 136.18 221.531 136.286 220.27 134.107C214.758 124.386 201.553 113.382 195.443 113.361C192.174 113.361 192.067 116.352 195.272 118.211C208.497 125.817 216.061 136.158 217.706 148.892C218.347 153.806 221.231 155.858 223.988 153.336C225.205 152.247 227.534 142.931 228.645 134.62C231.658 112.592 220.377 95.5203 205.015 98.8534Z" fill="black"/>
<path d="M36.2263 111.242C27.0176 112.909 18.279 120.793 21.783 124.276C23.1291 125.643 25.4579 125.194 29.6029 122.759C41.7601 115.644 51.1184 119.618 57.1008 134.488C58.1905 137.202 58.1905 137.181 56.9513 136.176C45.7342 127.224 24.3896 122.374 22.7658 128.378C22.1035 130.878 23.065 131.476 27.7868 131.519C38.7262 131.604 50.0287 137.522 59.622 148.163C62.6987 151.56 65.1985 152.008 66.8223 149.402C68.1256 147.287 64.6216 133.591 60.6903 125.536C55.3488 114.597 46.4392 109.384 36.2263 111.242Z" fill="black"/>
<path d="M251.593 220.188C250.781 220.786 250.268 221.791 250.396 222.496C250.46 222.752 250.503 223.03 250.503 223.094C250.631 224.013 252.105 224.675 254.969 225.102C266.036 226.705 273.343 234.14 271.356 241.746C270.523 244.909 270.373 244.994 269.22 242.751C265.566 235.678 259.584 230.487 251.977 227.816C243.41 224.782 241.636 229.974 249.777 234.268C259.434 239.353 264.989 245.934 265.395 252.771C265.694 257.963 269.54 258.54 272.873 253.904C281.868 241.447 279.368 229.311 266.485 222.773C261.122 220.039 253.558 218.735 251.593 220.188Z" fill="black"/>
<path d="M135.898 221.062C127.694 222.814 128.399 228.839 136.817 228.839C145.898 228.86 151.004 234.245 154.273 247.278C155 250.184 155.064 250.184 152.713 247.534C146.752 240.783 138.697 235.804 131.262 234.309C125.151 233.069 123.677 237.257 129.574 239.095C140.535 242.47 150.855 252.726 155.876 265.246C158.333 271.4 163.524 270.588 163.054 264.093C161.772 247.214 160.191 239.437 156.602 232.471C152.008 223.562 144.252 219.31 135.898 221.062Z" fill="black"/>
</svg>
