<svg width="53" height="65" viewBox="0 0 53 65" fill="none" xmlns="http://www.w3.org/2000/svg">
<path d="M25.0328 0.845279C24.0073 1.52899 23.6868 2.29816 22.5758 6.84909C21.6998 10.5027 20.2682 15.7587 19.8837 16.8483C19.7982 17.062 19.6059 17.0406 18.9863 16.7629C8.88022 12.2974 -2.84965 24.8819 0.718453 36.334C3.56012 45.3718 12.3415 45.7991 18.6872 37.21C21.892 32.8727 26.4857 22.2966 27.789 16.2714C27.9386 15.5664 27.9386 15.5664 29.5197 17.2756C32.9382 20.9933 37.2755 23.3222 41.9332 23.9632C42.9588 24.1127 43.8348 24.2409 43.8562 24.2623C43.8989 24.2837 42.1255 29.1764 39.3266 36.6545C38.3224 39.3466 38.5147 39.2184 36.7627 38.3424C28.9642 34.4966 21.0374 42.4874 21.016 54.1745C21.016 65.5412 29.4128 68.6392 36.4636 59.9006C40.7795 54.5164 43.1938 49.1322 49.454 30.8857C50.6078 27.4672 51.9111 23.7281 52.3384 22.553C54.1759 17.4252 52.0393 14.8186 46.9542 16.0151C39.5403 17.7457 31.8272 12.3615 30.0538 4.22109C29.3274 0.866645 27.1908 -0.56487 25.0328 0.845279Z" fill="black"/>
</svg>
