<svg width="186" height="193" viewBox="0 0 186 193" fill="none" xmlns="http://www.w3.org/2000/svg">
<path d="M93.0972 1.31892C91.9435 2.53677 91.7085 10.5703 92.3281 27.1716C92.7554 38.5169 93.0545 39.457 96.1953 39.457C99.2506 39.457 99.6352 37.5341 98.7806 25.9324C98.3105 19.4799 97.8191 12.1301 97.4986 6.76722C97.1354 0.870233 95.4688 -1.20226 93.0972 1.31892Z" fill="black"/>
<path d="M144.588 25.1204C142.302 26.1673 136.576 33.3035 134.311 37.9186C133.328 39.9483 134.418 41.6362 136.49 41.2516C137.494 41.0807 145.143 33.1967 147.173 30.2482C149.652 26.7015 148.049 23.5607 144.588 25.1204Z" fill="black"/>
<path d="M162.707 39.8849C158.968 41.7651 153.861 45.6323 153.22 47.0638C152.216 49.3713 154.182 51.2515 156.81 50.461C158.263 50.0337 163.925 47.192 165.869 45.9314C172.3 41.701 169.544 36.4663 162.707 39.8849Z" fill="black"/>
<path d="M94.0347 43.1132C41.1969 46.8949 8.80618 110.352 37.6288 153.553C64.9985 194.555 127.13 188.487 152.492 142.336C178.409 95.1605 145.569 39.3955 94.0347 43.1132ZM87.1549 51.7877C86.4712 57.1719 86.4712 66.0815 87.1335 73.0254C87.2617 74.2219 87.2617 74.2219 83.0313 76.914C80.7024 78.3883 77.3052 80.6103 75.4891 81.8709C71.5364 84.563 71.921 85.204 71.7715 75.3543C71.686 68.7095 71.8996 63.7526 72.562 57.8556C72.8611 54.9499 74.955 53.7748 84.0355 51.4459C87.4113 50.5699 87.3045 50.5699 87.1549 51.7877ZM65.9386 62.5561C65.5326 66.4447 65.4044 80.3539 65.7249 85.8236C65.9172 88.708 65.9172 88.708 64.0156 90.0968C60.3621 92.7889 53.5891 98.2799 48.098 103.023C46.0256 104.797 46.111 104.946 46.3033 98.579C46.7306 84.7339 48.4613 74.2219 50.662 71.7648C54.6787 67.3421 58.8024 63.7954 63.8233 60.4623C66.6436 58.5821 66.4086 58.3471 65.9386 62.5561ZM133.668 61.616C136.681 64.0731 140.142 67.6199 142.343 70.4829C142.578 70.8034 142.3 70.9957 139.544 72.3845C137.856 73.2177 134.673 74.927 132.472 76.1448C130.25 77.3841 128.391 78.3455 128.327 78.2814C127.836 77.7687 123.541 63.7526 123.819 63.4962C123.99 63.3253 131.553 60.4196 131.874 60.3982C132.045 60.3982 132.857 60.9537 133.668 61.616ZM118.007 67.0643C118.947 70.7179 119.952 74.0724 121.127 77.4695C121.896 79.6489 122.537 81.5291 122.558 81.6145C122.58 81.7 120.208 83.3024 117.259 85.1399C111.726 88.6439 106.598 92.0197 101.94 95.2673C100.466 96.2929 99.1412 97.1475 99.0343 97.1475C98.4147 97.1475 94.2911 81.0804 94.2911 78.666C94.2911 78.0891 94.6543 77.8541 100.594 74.6065C105.829 71.7435 117.046 66.1883 117.623 66.167C117.708 66.167 117.879 66.5729 118.007 67.0643ZM147.962 79.307C152.022 87.1696 152.086 88.2379 148.475 90.3104C144.821 92.4043 140.698 94.9041 138.924 96.1006C137.749 96.8911 137.749 96.8911 137.45 96.4424C135.335 93.1094 131.596 86.1227 131.788 85.8236C131.916 85.5886 139.608 81.3368 143.86 79.1147C146.082 77.961 147.001 77.5764 147.129 77.7687C147.214 77.9182 147.599 78.6019 147.962 79.307ZM88.7146 84.7126C89.3769 88.3448 91.2785 95.8015 92.3468 98.9423C92.8382 100.352 93.2014 101.506 93.1587 101.549C93.1373 101.57 91.9195 102.489 90.4452 103.579C87.4113 105.822 80.4246 111.27 78.7581 112.681C77.6471 113.621 77.6471 113.621 77.1984 112.125C75.3609 105.908 72.6047 92.4898 73.032 91.806C73.2884 91.4001 87.6036 82.0205 87.9882 81.9991C88.1164 81.9777 88.4368 83.1956 88.7146 84.7126ZM138.027 109.07C140.1 111.869 143.454 115.885 146.573 119.24C149.137 122.017 149.137 122.017 146.125 124.047C140.164 128.043 132.536 133.64 126.041 138.79C123.498 140.798 123.498 140.798 122.985 140.178C118.349 134.495 112.089 125.158 112.644 124.71C122.28 116.868 135.399 107.04 136.275 106.997C136.403 106.997 137.172 107.937 138.027 109.07ZM97.0687 111.185C98.1583 113.706 100.423 118.236 102.068 121.248C103.265 123.428 103.265 123.428 101.705 124.88C98.4574 127.893 95.9576 130.286 91.8981 134.303C89.5692 136.589 87.6249 138.426 87.5822 138.362C87.4113 138.191 84.9542 132.999 83.715 130.158C81.963 126.12 80.1469 121.248 80.3392 121.077C82.1766 119.496 95.7653 109.134 96.0217 109.112C96.0858 109.112 96.5559 110.053 97.0687 111.185ZM41.3037 118.813C41.3037 121.462 44.765 134.26 47.0511 140.007C47.4143 140.99 43.4189 146.31 41.731 147.101C40.7695 147.528 35.8554 135.051 34.7016 129.218C33.8256 124.859 33.5265 125.671 37.3937 121.74C40.8336 118.236 41.3037 117.894 41.3037 118.813ZM75.2755 127.102C76.2156 129.688 78.9504 135.969 80.852 139.837C82.7749 143.747 82.7749 143.747 80.04 146.78C74.6131 152.784 68.2674 160.326 67.0282 162.207C66.5368 162.976 66.5368 162.976 64.7421 160.369C61.8577 156.224 55.1915 144.131 55.1915 143.063C55.1915 142.913 60.4475 138.02 64.4216 134.474C67.1778 131.995 74.5063 125.778 74.6558 125.778C74.7413 125.778 74.9977 126.376 75.2755 127.102ZM148.774 133.598C146.061 139.922 141.852 146.524 136.959 152.122C135.463 153.831 135.784 153.874 133.562 151.737C127.665 146.075 127.707 146.738 133.22 142.614C140.548 137.123 149.586 130.777 149.778 130.991C149.821 131.034 149.372 132.209 148.774 133.598ZM51.5166 150.391C53.76 155.113 57.6059 161.587 60.4475 165.476C61.4517 166.843 61.4517 166.843 59.9775 165.924C54.7001 162.613 50.4056 158.831 46.2179 153.81C45.2778 152.677 45.2778 152.677 47.7135 150.242C49.0595 148.896 50.1919 147.785 50.2133 147.785C50.2346 147.785 50.8115 148.96 51.5166 150.391ZM86.9626 150.925C89.7615 155.391 92.5177 159.237 95.1671 162.42C96.7268 164.301 97.1755 163.702 87.6463 172.548C85.7234 174.321 84.6337 174.385 77.7966 172.996C74.8695 172.398 70.6391 169.3 70.575 167.698C70.575 167.185 85.6593 149.708 86.1293 149.708C86.1507 149.708 86.5353 150.263 86.9626 150.925ZM126.725 154.622C130.592 158.468 130.592 158.468 128.519 160.091C123.776 163.852 113.905 169.578 112.153 169.578C111.854 169.578 110.273 168.232 107.816 165.924C106.085 164.279 105.636 164.813 115.657 156.523C121.789 151.438 122.601 150.797 122.729 150.776C122.793 150.776 124.588 152.507 126.725 154.622Z" fill="black"/>
<path d="M180.717 62.3178C174.478 65.4158 169.137 72.1247 171.359 74.069C173.346 75.7996 184.819 68.5566 185.717 65.0099C186.4 62.3178 183.687 60.8435 180.717 62.3178Z" fill="black"/>
<path d="M13.5294 146.781C4.27798 151.417 -0.25159 155.498 0.966266 158.148C2.18412 160.818 8.55116 157.785 17.2043 150.392C21.9048 146.396 19.3196 143.875 13.5294 146.781Z" fill="black"/>
<path d="M30.3026 162.805C22.9954 166.651 18.9573 171.48 21.2862 173.574C23.1236 175.262 27.7173 173.04 33.7852 167.549C37.9302 163.788 35.2808 160.177 30.3026 162.805Z" fill="black"/>
<path d="M51.6043 178.764C49.2114 179.32 44.8314 187.417 45.28 190.451C45.7287 193.4 48.8909 193.571 51.0488 190.75C54.7238 185.964 56.0698 178.764 53.2709 178.764C53.0572 178.764 52.7581 178.721 52.5872 178.679C52.4376 178.636 51.9889 178.679 51.6043 178.764Z" fill="black"/>
</svg>
