<svg width="162" height="156" viewBox="0 0 162 156" fill="none" xmlns="http://www.w3.org/2000/svg">
<path d="M29.2048 1.07564C0.809545 5.9257 -9.40335 36.8208 10.9156 56.3706C33.5421 78.0997 72.4066 64.4469 72.2357 34.8337C72.1075 13.9379 50.9766 -2.64203 29.2048 1.07564ZM39.3536 8.5537C40.8492 8.81009 40.8492 8.81009 40.8706 11.0108C40.8919 12.2073 41.0629 13.9379 41.2765 14.8566C41.7039 16.7796 41.8534 16.5445 39.0331 18.0829C37.7939 18.7239 36.2983 19.5571 35.6787 19.899C34.4822 20.5827 33.8412 18.9162 32.9438 12.8055C32.2174 7.72043 32.6447 7.44267 39.3536 8.5537ZM26.7264 12.1218C26.8546 15.113 27.2391 17.4633 28.2861 21.7365C28.6066 23.0611 28.8202 24.1722 28.7561 24.2149C28.7134 24.2576 27.5169 25.0909 26.1068 26.0951C24.6966 27.0779 22.8378 28.4453 21.9831 29.1291C21.1071 29.8128 20.3807 30.3469 20.3166 30.3042C19.462 29.4282 16.8767 19.4503 16.4921 15.4976C16.2998 13.532 18.7569 11.7372 24.1838 9.81429C26.7477 8.89556 26.5554 8.72463 26.7264 12.1218ZM50.7416 12.72C50.4639 12.9978 47.7077 13.8952 47.5581 13.7456C47.4726 13.6601 47.3017 12.9337 47.1949 12.1432C47.024 10.733 47.024 10.733 48.9255 11.6731C49.9724 12.2073 50.7844 12.6773 50.7416 12.72ZM58.0701 18.7452C59.0957 19.9204 61.4673 23.4457 61.4673 23.8089C61.4673 23.9371 60.5699 24.3217 59.5016 24.6636C58.412 24.9841 56.66 25.625 55.613 26.0951C53.391 27.0566 53.5619 27.0993 52.109 24.8345C49.9511 21.4587 49.4383 20.2195 50.1006 20.0272C50.2929 19.9631 51.8526 19.4076 53.5619 18.8307C57.3437 17.5274 56.9805 17.5274 58.0701 18.7452ZM11.4711 22.5484C11.813 24.8345 12.9454 29.2359 14.0137 32.3767C14.8683 34.9406 14.8683 34.9406 11.813 38.0814C8.75765 41.2221 8.75765 41.2221 8.30897 39.6838C6.62107 33.915 7.19794 27.5907 9.91141 22.0356C11.0438 19.7494 11.0438 19.7708 11.4711 22.5484ZM44.6951 24.6209C45.1651 25.5823 46.0625 27.1207 46.6821 28.0608C48.0282 30.1546 48.0495 29.8769 46.4684 30.7742C45.7634 31.1802 44.1396 32.2271 42.9003 33.0817C40.8065 34.5133 40.6142 34.5987 40.3578 34.2569C39.6527 33.3168 36.8965 27.3984 36.8965 26.8215C36.8965 26.5438 43.1995 22.9116 43.7336 22.8688C43.8191 22.8688 44.2464 23.6594 44.6951 24.6209ZM64.3944 33.8082C64.544 36.5217 64.6294 36.4789 62.4074 35.026C58.647 32.569 58.3265 32.1416 59.6939 31.6075C64.3944 29.8128 64.138 29.7059 64.3944 33.8082ZM31.961 32.5262C32.4738 33.7441 33.4139 35.7311 34.0549 36.949C35.23 39.171 35.23 39.171 33.0934 41.329C31.9396 42.5255 30.4868 44.0852 29.8885 44.8116C28.8202 46.1363 28.8202 46.1363 27.3246 43.8502C25.0598 40.3461 22.7737 36.2225 23.0301 36.0516C23.0728 36.0302 23.5642 35.6243 24.1411 35.1756C25.4658 34.1287 30.7432 30.3469 30.9141 30.3469C30.9782 30.3469 31.4482 31.3297 31.961 32.5262ZM53.0491 35.7097C55.2926 38.0814 60.2494 41.5213 63.3475 42.8673C63.903 43.1023 60.2067 49.3839 58.1983 51.5846C56.9805 52.952 56.4036 52.8025 52.9209 50.1104C50.5707 48.2943 44.1609 41.158 44.1609 40.3461C44.1609 40.0684 51.8526 35.0688 52.3013 35.0474C52.3654 35.0474 52.6859 35.3465 53.0491 35.7097ZM18.9492 43.6579C19.7184 45.0894 21.3208 47.7387 22.5173 49.5548C24.6752 52.8238 24.6752 52.8238 24.077 54.3622C23.7565 55.1954 23.3933 56.1355 23.3078 56.456C22.7737 58.1012 11.6848 48.9352 11.6848 46.8414C11.6848 46.5209 17.0049 41.0299 17.3254 41.0299C17.4536 41.0299 18.18 42.205 18.9492 43.6579ZM40.251 46.6704C42.8362 50.1104 47.3231 54.4049 50.2075 56.1783C51.4681 56.9474 50.2075 57.7807 45.7634 59.084C41.6611 60.2805 41.5116 60.2164 35.7855 54.4263C32.4524 51.0718 32.4097 51.435 36.7683 46.8627C39.0331 44.4911 38.6272 44.5125 40.251 46.6704ZM29.8244 58.849C30.5295 59.5968 30.5295 59.5968 29.6108 59.3618C28.4356 59.0627 28.4784 59.1054 28.7775 58.5712C29.0766 58.0157 28.9911 57.9944 29.8244 58.849Z" fill="black"/>
<path d="M157.08 49.6579C155.691 50.2561 155.178 51.9654 154.836 57.0505C154.409 63.4603 152.828 68.1394 150.093 71.0665C146.376 75.0406 143.277 73.8868 136.205 65.9173C131.206 60.2981 129.133 58.7811 126.099 58.5888C115.63 57.9265 110.118 76.6857 111.015 109.824C111.4 123.755 111.4 124.225 111.229 128.413C110.246 151.53 99.2851 156.338 90.0337 137.707C87.2134 132.066 86.5296 129.695 87.2134 128.178C88.7944 124.609 88.1321 119.888 81.53 87.9242C74.8425 55.619 74.1802 53.6533 70.2702 54.3797C66.8517 55.0207 66.7235 57.1573 69.4156 68.994C70.9112 75.6388 71.1462 74.8269 66.8517 77.9463C62.5785 81.023 50.2931 86.0654 48.6052 85.403C48.3061 85.2962 43.221 78.2882 39.3751 72.7117C37.1744 69.5068 36.448 69.0795 34.8242 70.0837C32.4312 71.5366 33.4354 74.0791 40.593 84.8261C54.3099 105.38 72.3427 126.126 79.7353 129.823C81.2095 130.571 81.2095 130.571 81.701 132.75C87.2988 157.919 109.113 164.329 115.737 142.77C117.745 136.19 117.895 134.203 118.087 111.64C118.279 89.8471 118.45 86.7491 120.031 78.4164C121.442 71.0024 124.048 64.7422 125.736 64.7422C126.633 64.7422 128.62 66.5797 131.996 70.511C142.124 82.305 151.076 82.9459 157.336 72.3271C162.699 63.268 162.507 47.3504 157.08 49.6579ZM75.9963 96.3424C80.3976 113.969 81.2736 117.858 81.8932 122.836C82.0214 123.99 82.0214 123.99 80.9959 123.263C76.8082 120.358 65.0783 107.282 55.7628 95.21C52.3015 90.7018 52.3015 90.7018 55.015 90.1462C60.8692 88.907 66.4671 86.6209 70.6548 83.7365C71.6376 83.0528 72.4923 82.5186 72.5136 82.54C72.535 82.5827 74.0947 88.7788 75.9963 96.3424Z" fill="black"/>
</svg>
