<svg width="254" height="346" viewBox="0 0 254 346" fill="none" xmlns="http://www.w3.org/2000/svg">
<path d="M92.9834 0.717646C79.3947 2.70467 71.5107 10.9305 71.4466 23.2159C71.4252 26.3994 71.3825 26.8695 71.1047 26.7627C49.8884 17.554 28.437 36.8901 40.3378 54.4742C45.017 61.3327 51.1917 59.3243 46.9613 52.3163C37.7953 37.1038 53.371 26.6345 72.2157 35.3518C78.07 38.0652 80.8048 35.8432 79.2238 29.6684C71.703 0.204865 118.281 1.48682 136.249 31.2281C139.775 37.061 143.685 32.9801 140.864 26.4208C133.899 10.2682 111.166 -1.93172 92.9834 0.717646Z" fill="black"/>
<path d="M144.795 20.1179C140.736 21.528 141.612 25.5662 146.206 26.549C158.106 29.1343 164.815 37.8088 163.085 48.3636C162.187 53.8332 162.764 54.6451 170.093 58.2773C183.211 64.7726 192.27 73.8103 193.531 81.673C194.151 85.6257 192.505 87.3349 186.523 88.8092C179.835 90.4757 179.13 92.5055 182.549 100.09C189.835 116.35 186.181 127.289 173.426 127.311C170.071 127.311 169.067 127.823 168.875 129.575C168.383 133.913 179.088 134.19 185.412 129.981C194.151 124.17 195.668 112.077 189.386 98.2529C187.976 95.1335 187.997 95.3471 189.001 95.1976C193.339 94.4925 197.676 91.6722 199.385 88.446C205.154 77.4639 193.104 60.8412 172.421 51.3334C170.199 50.3079 170.199 50.3079 170.328 49.56C172.293 37.3815 166.973 27.5745 155.457 22.0835C151.419 20.182 146.996 19.3487 144.795 20.1179Z" fill="black"/>
<path d="M127.21 39.7312C126.099 40.6072 125.906 41.9105 125.906 48.7903C125.885 55.7343 125.714 56.8239 124.176 59.7938C121.868 64.2592 126.334 65.9899 129.432 61.8235C134.496 55.0506 132.53 35.5435 127.21 39.7312Z" fill="black"/>
<path d="M87.023 45.9706C84.4377 47.1884 85.0573 50.0942 88.0486 50.9275C98.5819 53.8546 102.599 67.0801 95.3343 74.9855C92.2576 78.3399 93.6464 81.0747 98.6674 81.4807C110.419 82.4422 120.14 90.7108 119.499 99.2144C119.136 103.894 119.285 104.534 120.909 105.346C122.191 106.009 123.345 105.859 125.588 104.684C132.596 101.073 139.54 101.351 145.907 105.539C151.548 109.256 154.967 105.453 150.116 100.881C144.497 95.6036 136.186 94.2789 126.315 97.0992C125.909 97.206 125.845 97.0992 125.738 96.1591C124.712 87.4845 114.329 77.8699 103.923 75.9256C103.005 75.7333 102.983 75.9256 104.094 73.2548C107.192 65.734 105.248 57.1877 98.9879 50.9061C95.1848 47.0816 89.5869 44.7741 87.023 45.9706Z" fill="black"/>
<path d="M150.477 56.6769C149.131 57.1043 148.896 57.2752 144.751 60.8219C140.35 64.5823 137.187 67.1035 134.73 68.7487C131.889 70.6716 131.312 72.445 133.021 73.9619C136.333 76.9318 152.977 65.5438 154.109 59.5613C154.515 57.382 152.72 55.9719 150.477 56.6769Z" fill="black"/>
<path d="M54.2698 62.1481C42.8177 66.2503 40.6597 79.4758 49.8684 89.0477C51.8341 91.0988 51.8341 91.0988 50.9794 91.7398C46.8345 94.8165 38.2454 107.38 34.6986 115.584C26.6864 134.066 28.7589 149.535 41.3007 164.833C43.0741 166.969 43.0741 166.969 42.8818 168.785C42.2194 175.537 40.8093 209.316 41.087 211.709C41.7066 216.773 46.4285 216.752 47.4968 211.709C48.1591 208.59 48.9069 191.903 48.8856 181.391C48.8642 177.097 48.8642 173.4 48.8642 173.187C48.8856 172.93 49.5052 173.358 50.9794 174.661C52.1118 175.665 54.1416 177.31 55.4663 178.314C56.7696 179.297 57.8165 180.216 57.7524 180.323C57.4747 180.75 57.3892 209.551 57.6456 210.983C58.3079 214.508 62.0683 215.384 63.6067 212.372C64.7604 210.107 64.6536 195.428 63.4144 185.344C63.158 183.335 63.1366 183.357 64.2263 183.912C64.6963 184.147 65.786 184.596 66.6406 184.874C68.179 185.386 68.2217 185.408 68.5636 186.433C69.8669 190.301 72.9863 194.211 76.7894 196.732C77.6654 197.309 77.6654 197.309 76.7253 198.356C58.372 218.632 94.7795 238.694 146.677 236.9C197.699 235.126 218.937 212.671 187.016 194.253C171.996 185.579 138.409 178.849 128.709 182.566C128.538 182.63 128.388 182.032 128.196 180.472C125.974 160.923 94.6513 149 78.8405 161.67C78.3278 162.076 77.8364 162.333 77.7723 162.226C77.6868 162.098 77.3022 161.564 76.939 161.029C70.7215 152.184 73.8623 144.407 87.8356 133.916C94.7581 128.724 101.125 125.135 104.757 124.387C107.663 123.81 109.8 123.126 112.022 122.101C113.56 121.396 113.56 121.396 113.817 122.913C117.385 144.172 139.862 158.551 153.493 148.317C163.535 140.796 169.133 120.883 162.573 116.076C159.475 113.811 157.83 115.926 157.617 122.507C156.89 143.851 143.237 151.842 129.606 138.894C123.816 133.382 120.483 126.481 119.735 118.447C119.179 112.593 117.321 111.781 111.188 114.794C93.2198 123.639 73.9905 112.7 83.5838 99.111C85.9554 95.7566 84.5452 92.7013 80.7207 92.9149C69.4182 93.5773 61.5555 90.8638 55.103 84.0267C49.4625 78.087 50.6589 70.4167 57.7524 66.9554C62.4102 64.6692 59.248 60.3533 54.2698 62.1481ZM60.2522 96.4403C64.3331 98.3632 68.7558 99.5597 73.2213 99.9443C75.8493 100.179 75.6357 100.03 75.2083 101.461C72.5803 110.456 78.7551 120.242 89.1389 123.575C90.5918 124.045 90.6132 124.066 90.1004 124.366C89.8226 124.536 88.3484 125.434 86.81 126.331C82.4087 128.916 78.456 131.886 75.1656 135.027C73.1572 136.929 70.3369 137.228 64.8032 136.074C57.1969 134.493 40.4247 122.742 41.4289 119.686C42.9886 114.858 48.5651 104.623 52.9665 98.5555C56.2995 93.9405 56.0645 94.1542 57.2183 94.8592C57.7738 95.2011 59.1412 95.9062 60.2522 96.4403ZM46.3858 136.053C52.7314 140.86 59.8035 143.851 66.427 144.514C67.8585 144.663 67.8585 144.663 67.2389 146.372C66.3415 148.829 65.8928 151.586 66.0424 153.915C66.1919 156.051 66.0637 156.201 63.0939 157.696C59.2267 159.662 51.364 160.453 47.7105 159.277C45.1252 158.444 40.2538 149.385 38.8222 142.74C38.0958 139.279 38.0531 130.177 38.7795 128.959C38.8222 128.874 40.1256 130.092 41.6425 131.694C43.1809 133.275 45.3175 135.241 46.3858 136.053ZM69.9951 165.303C70.5079 166.093 71.2984 167.14 71.7684 167.653C72.6444 168.55 72.6444 168.55 71.5761 170.217C70.2728 172.246 69.3541 174.063 68.8627 175.601C68.649 176.242 68.4567 176.84 68.414 176.926C68.0294 177.567 57.2183 170.11 54.8894 167.61C54.3766 167.055 54.3766 167.055 56.1713 167.055C59.8463 167.055 64.2476 166.114 67.1534 164.704C68.0935 164.256 68.9054 163.892 68.9695 163.871C69.0336 163.871 69.4823 164.512 69.9951 165.303ZM100.206 165.11C118.496 168.251 126.615 184.468 113.24 191.177C96.0615 199.787 71.2557 190.13 76.7681 176.968C80.7421 167.439 89.0962 163.23 100.206 165.11ZM130.717 198.783C153.878 199.146 170.799 203.633 172.68 209.915C174.517 215.982 125.824 219.7 110.077 214.679C99.8005 211.41 94.9291 203.12 102.792 202.33C107.364 201.881 112.599 200.535 115.868 199.018C116.872 198.548 117.128 198.505 120.461 198.591C122.406 198.633 127.021 198.719 130.717 198.783Z" fill="black"/>
<path d="M59.7793 104.406C58.6683 104.982 53.2414 113.465 52.0662 116.477C50.357 120.815 52.9422 122.802 55.9548 119.49C56.959 118.379 61.2963 111.52 62.856 108.615C64.373 105.73 62.4073 103.038 59.7793 104.406Z" fill="black"/>
<path d="M64.5463 113.108C64.4822 113.301 64.4822 113.493 64.5249 113.557C64.5891 113.622 64.696 113.472 64.7602 113.215C64.8885 112.723 64.7388 112.638 64.5463 113.108Z" fill="black"/>
<path d="M73.5614 118.982C72.3649 119.495 67.2799 125.605 66.5107 127.443C65.2928 130.348 66.7457 132.25 69.2883 131.032C71.1685 130.135 76.7877 123.063 76.9159 121.417C77.0441 119.623 75.1852 118.277 73.5614 118.982Z" fill="black"/>
<path d="M93.8578 169.337C85.3114 171.154 79.9058 178.525 82.8116 184.4C88.0035 194.934 110.502 191.943 111.228 180.619C111.698 173.354 102.618 167.457 93.8578 169.337ZM99.8189 176.687C103.045 177.67 104.904 179.807 103.772 181.238C101.122 184.593 89.4778 184.165 89.4778 180.704C89.4778 177.221 94.8406 175.128 99.8189 176.687Z" fill="black"/>
<path d="M146.567 201.021C144.366 201.555 143.554 204.226 144.943 206.256C145.242 206.705 145.456 207.089 145.413 207.11C141.888 210.379 124.646 208.093 124.603 204.354C124.582 201.278 121.12 200.957 119.625 203.884C114.903 213.072 140.285 219.61 150.071 211.747C155.007 207.773 152.336 199.611 146.567 201.021Z" fill="black"/>
<path d="M150.755 77.1061C146.739 77.8325 145.115 79.2213 145.97 81.2297C146.546 82.6185 147.016 82.7681 151.119 82.7894C155.371 82.8108 158.319 83.3236 163.19 84.9047C169.429 86.9344 172.57 85.9302 170.455 82.5971C168.233 79.0718 157.058 75.9524 150.755 77.1061Z" fill="black"/>
<path d="M32.6455 204.14C19.2491 207.622 17.433 213.861 27.7954 220.848C40.1876 229.223 53.349 236.317 68.6256 242.812C88.2395 251.187 95.1834 254.179 98.9866 255.931C122.745 266.849 125.373 266.977 151.76 258.537C194.492 244.863 198.893 243.581 216.841 239.607C233.698 235.868 237.352 233.731 236.583 228.112C235.429 219.758 211.756 206.255 209.555 212.707C208.743 215.058 210.367 216.724 217.888 221.318C222.866 224.352 225.344 226.04 226.861 227.429C228.357 228.839 227.908 228.988 215.751 231.595C197.868 235.419 191.715 237.235 153.897 249.734C124.839 259.349 124.134 259.349 104.969 250.119C97.7687 246.636 94.9698 245.419 81.6802 239.863C60.5066 231.039 57.4726 229.544 38.6279 218.433C31.5772 214.288 29.2269 212.814 29.2269 212.536C29.2269 212.43 31.1071 211.404 33.3933 210.272C38.1365 207.943 38.6279 207.537 38.6279 205.977C38.6066 203.606 36.8118 203.071 32.6455 204.14Z" fill="black"/>
<path d="M15.2338 213.392C12.3707 215.122 8.61035 222.13 8.61035 225.699C8.61035 230.25 10.1273 231.617 18.4387 234.523C24.3143 236.574 28.1815 238.176 37.8816 242.578C42.4753 244.65 49.8251 247.919 54.2265 249.842C67.7298 255.718 71.5543 257.598 83.3482 264.029C117.982 282.938 119.67 283.322 138.515 277.084C151.505 272.789 158.492 270.887 177.294 266.507C187.934 264.029 197.613 261.636 205.711 259.499C218.21 256.166 223.893 254.799 238.678 251.551C249.062 249.265 251.455 248.09 252.31 244.971C253.656 239.971 246.092 231.617 242.31 233.924C240.473 235.035 240.815 236.916 243.315 239.586C245.793 242.214 246.114 242.813 245.302 243.133C244.191 243.56 239.191 244.778 228.893 247.15C218.68 249.5 216.116 250.141 198.446 254.628C190.199 256.722 184.836 258.004 167.893 261.935C154.817 264.99 145.459 267.554 134.776 271.058C120.503 275.759 119.627 275.502 88.241 258.196C75.4642 251.145 70.7423 248.795 57.9655 243.112C54.2052 241.445 48.2013 238.732 44.6119 237.087C32.0274 231.318 27.1559 229.245 21.4299 227.194C16.6226 225.485 16.4089 225.378 16.4089 224.951C16.4089 224.31 17.4345 221.233 18.4814 218.648C20.212 214.46 18.3532 211.469 15.2338 213.392Z" fill="black"/>
<path d="M17.3893 238.948C16.5561 239.717 15.7869 242.345 14.1631 250.122C9.86853 270.698 10.5095 279.736 16.727 285.953C22.1539 291.38 30.102 293.431 30.8071 289.585C31.1917 287.555 30.2302 286.274 26.4485 283.816C18.8636 278.86 18.3294 276.36 20.3592 254.866C21.748 240.038 21.748 239.803 20.5301 238.863C19.7182 238.2 18.1371 238.243 17.3893 238.948Z" fill="black"/>
<path d="M43.6698 253.367C30.3374 254.414 28.7564 259.007 37.3882 271.528C38.7983 273.579 41.9391 278.151 44.3535 281.677C46.7678 285.202 49.5026 289.133 50.4214 290.415C51.3401 291.697 52.0665 292.766 52.0452 292.808C51.9384 292.894 44.1825 296.312 44.0543 296.312C43.9902 296.312 43.6698 296.12 43.3279 295.885C41.5118 294.582 39.6102 295.052 32.5381 298.556C29.611 300.009 25.9147 301.761 24.355 302.487C19.7827 304.538 19.0135 305.436 19.2485 308.405C19.6331 313.49 22.9235 313.918 33.8201 310.307C41.6614 307.7 47.0883 304.987 48.007 303.213C48.3916 302.466 48.6694 302.295 51.5965 301.034C58.8609 297.893 60.4206 296.526 60.4206 293.342C60.4206 291.441 60.3351 291.313 52.9212 280.715C43.0929 266.699 39.9094 261.956 39.9094 261.358C39.9094 260.717 45.9132 259.606 53.5408 258.815C55.3355 258.644 57.1303 258.366 57.5148 258.196C59.7583 257.255 59.6728 254.478 57.3653 253.602C56.5747 253.303 46.6396 253.132 43.6698 253.367Z" fill="black"/>
<path d="M239.981 255.935C238.315 256.597 238.187 257.281 238.101 265.977C237.909 284.523 234.469 293.86 226.307 297.983C220.837 300.739 205.604 304.008 157.317 312.768C136.058 316.614 136.72 316.443 136.271 318.089C135.908 319.456 136.442 320.652 137.66 321.101C141.677 322.639 210.219 311.187 223.978 306.7C237.695 302.192 243.891 291.189 244.725 269.823C245.13 259.268 243.507 254.504 239.981 255.935Z" fill="black"/>
<path d="M219.063 267.13C215.602 267.963 211.692 271.146 208.722 275.505C208.081 276.424 207.483 277.278 207.397 277.385C207.312 277.492 206.927 276.958 206.564 276.232C201.714 266.617 189.664 271.958 181.758 287.214C181.053 288.581 181.053 288.581 180.028 287.021C174.302 278.304 163.448 280.74 156.974 292.192C156.311 293.346 156.397 293.388 155.435 291.401C152.337 285.013 146.12 283.56 141.227 288.09C135.907 293.025 132.574 304.755 135.907 306.785C137.894 308.003 139.582 306.913 140.244 303.964C141.654 297.491 145.03 291.829 147.445 291.829C148.983 291.829 150.863 295.91 151.761 301.208C152.765 307.148 156.952 307.447 159.324 301.764C165.67 286.637 173.062 283.838 176.588 295.247C178.553 301.657 181.929 301.443 185.091 294.692C189.343 285.59 194.685 278.902 198.637 277.706C200.582 277.129 201.757 279.757 202.398 286.124C202.996 292.149 207.461 292.106 210.645 286.038C213.615 280.419 215.367 277.855 217.589 275.826C221.606 272.151 223.016 273.475 224.191 282C225.387 290.846 231.434 291.914 231.733 283.346C232.118 273.048 226.135 265.399 219.063 267.13Z" fill="black"/>
<path d="M77.7924 277.407C70.2075 279.544 62.4516 293.132 68.8828 292.983C70.1647 292.961 70.6561 292.555 72.3441 290.184C74.8225 286.701 77.7924 284.159 79.3734 284.137C80.2494 284.137 80.399 284.8 80.399 289.073C80.399 293.538 80.5699 294.072 82.2365 295.012C83.9244 295.974 85.3772 295.568 87.8771 293.431C95.0987 287.278 99.7351 288.603 99.7351 296.807C99.7351 303.281 104.564 304.777 106.38 298.88C110.033 287.193 98.6241 278.518 87.7489 284.714C87.6848 284.757 87.5138 284.308 87.3856 283.71C86.2532 278.817 82.1937 276.168 77.7924 277.407Z" fill="black"/>
<path d="M9.46359 285.12C0.53265 290.162 -2.09535 295.674 2.39148 300.054C3.45978 301.08 10.8951 306.357 12.2839 307.084C13.7154 307.81 15.6811 307.361 16.3007 306.144C17.4331 303.964 15.852 301.935 10.1046 298.089C8.3312 296.914 6.77149 295.781 6.60056 295.589C6.13051 295.033 7.54066 293.645 12.9676 289.414C16.0016 287.043 15.5315 283.923 12.1343 283.923C11.8352 283.923 10.6387 284.457 9.46359 285.12Z" fill="black"/>
<path d="M121.015 284.78C119.413 285.271 119.092 286.062 117.575 293.006C111.614 320.653 108.837 323.922 94.5002 320.247C91.4663 319.457 89.7997 318.944 78.9031 315.461C68.9253 312.256 66.2118 312.128 65.3358 314.799C64.3743 317.683 67.1519 319.713 76.1256 322.747C107.64 333.366 114.99 330.61 121.186 305.804C125.374 288.989 125.331 283.477 121.015 284.78Z" fill="black"/>
<path d="M245.11 299.884C243.914 300.888 243.786 302.747 244.79 304.67C247.097 309.071 247.033 308.644 245.495 309.434C243.123 310.631 231.97 313.9 220.774 316.699C214.172 318.344 209.322 319.412 195.135 322.361C179.645 325.566 169.539 327.724 161.698 329.518C150.353 332.104 146.037 332.915 131.786 335.116C127.491 335.778 120.974 336.825 117.278 337.466C113.582 338.086 110.527 338.577 110.505 338.556C110.484 338.535 110.591 337.936 110.762 337.231C111.552 333.877 110.975 331.74 109.159 331.206C106.766 330.522 105.164 332.766 104.33 338.065C104.202 338.877 104.202 338.877 102.984 338.727C96.2327 337.894 80.2938 333.343 70.9996 329.604C67.7734 328.3 65.9786 327.51 55.9367 322.98C40.9592 316.229 35.5109 314.434 34.1435 315.801C32.3487 317.575 33.9726 319.711 38.6303 321.698C39.1645 321.933 44.4418 324.39 50.3816 327.189C70.145 336.484 79.0118 339.774 94.6089 343.641C104.33 346.034 106.531 346.055 118.966 343.876C121.957 343.342 127.213 342.466 130.61 341.932C147.19 339.347 149.69 338.877 162.253 335.971C174.731 333.086 179.496 332.061 199.836 327.937C222.291 323.365 241.841 318.194 248.358 315.096C254.191 312.34 255.045 307.661 250.729 302.17C248.999 299.969 246.307 298.88 245.11 299.884Z" fill="black"/>
</svg>
