<svg width="158" height="127" viewBox="0 0 158 127" fill="none" xmlns="http://www.w3.org/2000/svg">
<path d="M100.315 1.33518C93.5208 3.17265 90.3373 5.41606 91.0424 7.91587C91.6406 10.1593 93.3713 10.2234 99.8451 8.215C104.546 6.78348 104.631 6.89031 106.084 16.8468C107.152 24.2394 107.751 25.5855 110.122 25.9273C113.712 26.4828 114.865 23.2352 113.455 16.4622C110.742 3.23674 107.43 -0.587749 100.315 1.33518Z" fill="black"/>
<path d="M78.6291 6.95721C75.8515 7.08541 60.7031 8.06824 57.7973 8.32463C48.61 9.07243 47.7981 9.99117 42.2002 26.0369C37.3929 39.8393 38.568 38.2796 32.5215 38.7069C23.5692 39.3479 21.3044 39.7538 19.0182 41.0572C15.1083 43.3006 15.7065 45.7363 20.5993 47.5524C22.8213 48.3857 30.9831 48.2788 47.2212 47.1892C81.9408 44.8817 107.024 44.6466 122.002 46.4627C130.249 47.4669 130.826 48.1506 130.826 57.0175C130.826 61.8675 130.74 63.0854 129.373 77.1014C128.048 90.7329 127.877 92.8908 127.13 107.548C126.788 113.979 127.343 113.274 122.664 113.124C92.9869 112.12 60.7885 113.402 26.9236 116.949C13.6981 118.316 9.70269 118.466 9.06172 117.59C7.77976 115.838 7.80113 108.488 9.18991 85.5409C11.3692 49.6463 11.3479 48.6848 8.29254 48.6848C5.79273 48.6848 5.62181 49.4326 3.33566 68.8756C-2.47586 118.081 -1.15118 126.029 12.8221 126.029C15.5356 126.029 17.2662 125.901 30.7695 124.769C56.7931 122.589 83.3936 121.863 120.186 122.397C128.988 122.504 130.377 122.248 132.77 120.047C135.313 117.697 135.676 115.795 136.317 102.1C136.616 95.7111 137.172 88.7245 138.24 77.6569C139.5 64.3887 139.586 63.2991 139.586 57.7653C139.629 40.3307 135.142 37.4677 106.298 36.549C101.213 36.378 102.196 37.7882 97.2174 23.3235C91.9186 7.87594 90.2307 6.4017 78.6291 6.95721ZM85.7866 14.2857C86.7695 14.7771 87.8164 17.1701 89.312 22.2979C90.0384 24.755 91.2777 28.9213 92.0682 31.528C93.5211 36.2926 93.5211 36.2926 92.4314 36.2926C84.3765 36.3139 63.2883 37.019 50.9816 37.6814C44.0377 38.0659 44.6359 38.2155 45.6401 36.2712C47.2639 33.0236 49.0587 28.9641 51.1953 23.6012C53.9514 16.7428 54.1437 16.4009 55.212 16.0377C56.4085 15.6531 60.3612 15.2258 68.5871 14.6062C72.5184 14.3284 76.172 14.0507 76.7061 14.008C79.2273 13.7729 85.1456 13.9652 85.7866 14.2857Z" fill="black"/>
<path d="M118.391 15.9114C118.391 16.147 118.455 16.2113 118.519 16.0399C118.584 15.89 118.562 15.6972 118.498 15.633C118.434 15.5473 118.37 15.6758 118.391 15.9114Z" fill="black"/>
<path d="M122.877 19.5186C117.792 20.6723 114.715 24.6678 115.826 28.6845C117.322 34.1115 131.915 34.7738 135.141 29.5819C138.453 24.1977 130.611 17.7666 122.877 19.5186Z" fill="black"/>
<path d="M143.645 22.6399C140.91 23.4518 141.658 27.1053 144.798 28.3018C145.995 28.7719 145.973 28.8146 144.179 29.8829C134.991 35.2885 132.641 38.1088 134.714 41.2282C137.043 44.7749 141.679 43.1938 150.952 35.7585C156.293 31.464 157.233 28.4728 154.178 25.5029C152.34 23.7082 145.888 21.9348 143.645 22.6399Z" fill="black"/>
<path d="M20.4917 26.2496C14.9793 26.8906 11.454 29.0913 6.24068 35.1806C2.92896 39.0478 3.05716 42.3809 6.49707 42.3809C8.31317 42.3809 9.12507 41.9108 12.9282 38.77C18.7184 33.9627 19.5516 33.7277 30.8969 33.7277C37.9477 33.7277 38.9305 33.279 38.6955 30.2237C38.4604 27.4888 28.5253 25.3309 20.4917 26.2496Z" fill="black"/>
<path d="M150.717 37.2554C148.239 38.3878 147.961 42.1054 148.687 64.6037C149.136 78.4488 148.858 87.8925 147.726 97.1867C146.871 104.259 146.081 105.498 140.269 108.831C136.06 111.245 135.269 112.356 136.188 114.579C137.171 116.929 140.269 116.865 145.397 114.408C156.08 109.28 157.704 101.503 156.828 59.2622C156.464 41.379 156.165 39.0928 154.007 37.5118C153.281 36.9776 151.614 36.8494 150.717 37.2554Z" fill="black"/>
<path d="M61.3649 53.7099C29.0811 58.7523 19.6801 92.3395 46.9002 105.415C70.1463 116.59 100.87 102.317 100.913 80.3105C100.935 63.581 81.577 50.5478 61.3649 53.7099ZM72.7529 64.4997C88.991 67.2986 95.6572 81.0369 85.5938 91.0361C73.223 103.343 47.007 100.416 41.516 86.1006C36.6018 73.3452 54.0364 61.2948 72.7529 64.4997Z" fill="black"/>
<path d="M70.3604 70.4568C67.8179 71.0978 68.0529 73.8753 70.8732 76.6315C75.6378 81.2893 71.5996 87.229 63.9506 86.8872C55.5752 86.5026 53.46 80.0501 60.2971 75.7555C63.2242 73.9181 62.7542 70.82 59.5493 70.82C54.101 70.82 48.8663 77.5075 49.8064 83.3191C51.9003 96.395 74.8472 96.7155 78.864 83.725C80.8297 77.3366 75.595 69.1535 70.3604 70.4568Z" fill="black"/>
<path d="M115.806 58.0219C102.922 58.727 100.337 59.3893 100.337 61.9319C100.337 64.6667 101.277 64.8376 111.853 64.0684C121.468 63.3634 123.092 63.0429 124.245 61.6968C126.425 59.0902 123.006 57.6159 115.806 58.0219Z" fill="black"/>
<path d="M17.3296 64.62C11.8386 64.9832 10.578 65.731 11.3472 68.0599C11.8386 69.5982 12.3514 69.7264 17.6287 69.7051C25.5555 69.6837 29.0595 68.6795 29.0595 66.4575C29.0381 64.3636 26.6024 63.979 17.3296 64.62Z" fill="black"/>
<path d="M120.891 95.8174C120.164 96.202 119.246 97.5481 118.583 99.1719C117.13 102.697 115.848 102.911 113.178 100.026C110.763 97.3985 108.819 97.4626 105.678 100.24C102.431 103.082 100.7 103.274 99.2044 100.924C96.7473 97.0139 92.346 99.941 94.568 104.001C97.1746 108.808 105.272 109.278 108.926 104.812C109.182 104.492 109.353 104.577 110.528 105.56C115.699 109.855 121.788 108.017 123.839 101.565C125.164 97.4199 123.583 94.3432 120.891 95.8174Z" fill="black"/>
<path d="M21.9019 102.528C21.56 102.635 20.449 103.404 19.4448 104.237C15.9835 107.1 14.9152 107.25 13.8897 104.985C12.4795 101.823 9.27464 102.165 9.296 105.476C9.33874 111.822 16.7527 113.809 22.2437 108.959C23.2052 108.126 23.2052 108.126 23.718 108.553C28.0766 112.036 32.3498 112.036 34.9351 108.51C38.2468 104.002 35.341 100.455 31.4097 104.173C29.7432 105.733 29.4654 105.775 28.0766 104.793C27.4997 104.387 26.5383 103.703 25.94 103.276C24.7649 102.442 23.1411 102.143 21.9019 102.528Z" fill="black"/>
</svg>
