<svg width="33" height="53" viewBox="0 0 33 53" fill="none" xmlns="http://www.w3.org/2000/svg">
<path fill-rule="evenodd" clip-rule="evenodd" d="M14.0895 12.4365C14.3618 11.3168 14.7398 10.2181 15.1261 9.16088C16.4261 5.61088 19.1761 1.86085 23.2761 1.76085C26.5761 1.41085 32.0261 5.46087 31.0261 9.06087C30.2261 12.4109 27.7761 15.1609 25.3761 17.6109C23.8761 19.0109 22.0762 20.0109 20.2262 20.9109C20.1968 20.9212 20.1676 20.932 20.1385 20.9432C22.0191 21.8239 23.8718 23.0233 24.9261 24.811C25.9531 26.8269 25.9674 29.0743 25.9814 31.289V31.289V31.289C25.9859 31.9856 25.9903 32.679 26.0262 33.3609C25.988 35.153 26.9094 35.8402 28.0143 36.6641C28.3583 36.9207 28.72 37.1904 29.0761 37.5109C32.9261 40.4609 32.9762 43.8609 31.0262 48.0109C30.8912 48.4009 30.6977 48.7864 30.5037 49.1728C30.0512 50.0744 29.5961 50.9809 29.8761 51.9609C30.0261 52.3109 29.8761 52.561 29.4261 52.411C27.2261 51.711 25.2761 50.261 23.6261 48.661C22.5261 47.361 23.0262 46.0109 23.7762 44.7109C24.4762 43.3609 25.1261 41.9609 25.4261 40.4609C26.0903 37.1098 24.567 35.9462 22.8815 34.6586C21.7755 33.8138 20.5997 32.9155 19.9261 31.311C19.6761 30.511 19.8262 29.661 20.0262 28.811C20.0728 28.6246 20.1207 28.4369 20.1688 28.2481C20.6378 26.4107 21.1342 24.4653 20.7262 22.561C20.7262 22.4609 20.6595 22.411 20.5262 22.411C19.8262 22.261 19.1762 22.1609 18.4762 22.1109C18.2199 22.0597 17.9552 22.0315 17.6864 22.0127C16.5254 22.797 15.6594 24.0703 14.9262 25.2108C13.9246 26.872 14.7133 28.1751 15.677 29.7674C16.6859 31.4342 17.8865 33.4178 17.4262 36.4608C17.0762 38.5108 16.2762 40.4608 15.0262 42.1108C14.8016 42.4129 14.5506 42.727 14.291 43.0518L14.2909 43.0519L14.2908 43.052C12.8748 44.8237 11.2044 46.9137 12.1762 49.1108C12.5262 49.4608 14.7762 51.9609 13.4762 51.8109C10.8762 50.4109 8.22624 47.5608 6.72624 45.0108C5.0864 41.6543 6.93921 39.6107 8.97419 37.3663C10.9103 35.2309 13.0113 32.9137 12.4262 29.1108C12.348 28.0948 11.7965 27.1475 11.2519 26.2122C10.4029 24.7541 9.57102 23.3253 10.5762 21.7108C10.8506 21.341 11.1449 20.9626 11.4599 20.5941C7.71366 19.7452 4.39872 17.3301 2.07625 14.3109C1.07625 12.9109 0.426263 11.3109 0.276263 9.56086C0.0262627 6.01086 1.52626 -0.88913 6.27626 0.41087C11.2093 2.492 13.1421 7.45459 14.0895 12.4365ZM26.6762 5.11086C21.0262 5.41086 18.0262 11.3609 16.6262 16.1609C20.7262 14.5109 26.4262 9.56086 27.1762 5.11086H26.6762ZM4.62614 15.2609C2.87614 11.9109 3.67612 4.11093 8.17612 3.56093C8.24749 3.5752 8.33108 3.57318 8.41526 3.57114C8.62598 3.56604 8.84041 3.56084 8.87614 3.81093C10.5261 7.46093 11.5261 11.3609 12.3761 15.2609C12.4761 15.6609 12.5595 16.0443 12.6261 16.4109C12.6555 16.4991 12.6676 16.5182 12.6625 16.5291C12.6589 16.5367 12.6467 16.5403 12.6261 16.5609H11.9762C10.1262 16.6609 5.72614 16.7609 4.62614 15.2609Z" fill="black"/>
</svg>
