<svg width="51" height="95" viewBox="0 0 51 95" fill="none" xmlns="http://www.w3.org/2000/svg">
<path fill-rule="evenodd" clip-rule="evenodd" d="M23.6118 44.0788C24.1055 44.1058 24.596 44.0972 25.0801 44.0544C24.0014 48.6351 22.8813 53.2248 21.1118 57.6289C20.823 58.3732 20.5021 59.1199 20.1787 59.8724C19.0465 62.5069 17.884 65.212 17.9618 68.1289C18.0851 70.9959 19.691 73.2737 21.3029 75.5599C22.3053 76.9817 23.31 78.4067 23.9618 79.9789C25.6118 83.5289 24.6118 87.4289 23.6618 91.0289C24.3118 92.4789 26.1118 93.6789 27.5618 94.2789C27.7591 94.3578 27.8319 94.2187 27.9029 94.0828C27.9219 94.0465 27.9407 94.0105 27.9618 93.9789C28.7118 92.2789 29.3618 90.4789 29.5618 88.6289C30.1118 84.7789 28.2118 81.1789 26.0118 78.1789C22.5118 73.7289 22.4618 69.7289 24.3118 64.5789C26.219 59.382 27.0804 53.9577 27.9367 48.5663L28.0618 47.7789C28.0969 47.593 28.1323 47.4071 28.1682 47.2212C28.4854 48.1654 28.8777 49.0878 29.3118 49.9789C29.4554 50.2377 29.5969 50.4924 29.7364 50.7433C32.5608 55.8242 34.54 59.3848 35.1118 65.5789C35.9118 71.1789 37.4118 76.6789 40.0118 81.6789C40.2439 82.143 40.4492 82.6249 40.6541 83.1058C40.9349 83.7648 41.215 84.4219 41.5618 85.0289C42.7118 86.3289 44.1618 87.4789 45.7618 88.1289C46.658 88.3944 45.1524 85.2006 43.9951 82.7454C43.409 81.5021 42.9122 80.4483 42.8618 80.1289C41.3754 76.6184 40.5491 72.928 39.725 69.2472C39.2462 67.1087 38.7682 64.9736 38.1618 62.8789C37.6517 60.8386 36.093 58.2606 34.4504 55.5441C31.9295 51.3749 29.2111 46.8792 29.7834 43.4995C30.6547 43.4448 31.5205 43.3352 32.3963 43.2245C32.6505 43.1923 32.9055 43.16 33.1618 43.129C34.0803 42.9855 35.0111 42.8831 35.9436 42.7806C38.2601 42.526 40.5872 42.2702 42.7618 41.379C50.8862 37.9295 52.3361 28.341 46.6625 22.45C47.1142 21.6725 47.4707 20.9421 47.7119 20.2789C50.1619 13.6289 48.6619 4.67892 41.9119 1.17892C38.6119 -0.721081 34.9119 1.77891 32.7119 4.22891C27.8619 9.67891 25.6619 17.0289 24.4119 24.0789C24.3594 24.6138 24.2476 25.307 24.1221 26.0852L24.1221 26.0852L24.1221 26.0853L24.0805 26.3431C23.5 23.3278 22.677 20.3888 21.1118 17.679C19.1618 14.229 16.4118 11.279 13.1118 9.12901C5.11184 4.22901 0.811838 6.12901 3.26184 15.779C3.99132 18.1316 4.8472 20.4908 5.87798 22.7694C0.0603187 23.9262 -1.83539 30.2518 3.0118 35.2288C8.6618 41.6788 15.1618 44.0788 23.6118 44.0788ZM20.8363 38.8701C16.6431 39.6494 10.9216 38.6018 7.71176 37.379C5.87664 34.6969 6.96416 30.9963 9.51574 29.236C10.5828 30.7563 11.7747 32.1828 13.1118 33.479C15.3917 35.5711 18.0026 37.4762 20.8363 38.8701ZM24.0199 37.1137C20.9778 36.9412 17.8697 35.7619 15.4119 33.9788C13.7546 32.3215 12.4777 30.3219 11.349 28.2785C13.8375 27.3614 16.6989 27.782 19.0618 28.879C21.3469 31.1641 23.0427 34.0385 24.0199 37.1137ZM8.70776 22.6164C8.75892 22.6202 8.81026 22.6244 8.8618 22.6288C14.0777 23.3881 18.8794 26.2834 22.4037 30.2353C22.2881 29.8339 22.1739 29.4319 22.0619 29.0288C21.7828 28.0173 21.5281 26.9949 21.2732 25.9717L21.2732 25.9716C20.4319 22.595 19.5886 19.2102 17.8619 16.1788C17.6727 15.8693 17.4865 15.5509 17.2987 15.2297C16.3943 13.6832 15.4523 12.0725 13.9619 11.0788C12.0619 10.1788 8.86188 8.97885 7.36188 11.1288C5.983 14.7484 7.14713 18.8671 8.70776 22.6164ZM30.959 38.5883C30.7267 38.5975 30.4946 38.6066 30.263 38.6164C35.0892 35.8868 41.4703 29.8349 45.137 24.7718C45.5112 26.3105 45.5795 27.9395 45.3118 29.4788C44.6618 32.9788 42.0618 35.9288 38.8118 37.3288C36.3577 38.3748 33.6446 38.4821 30.9591 38.5883H30.9591H30.959ZM41.5619 3.47897C35.4473 5.86893 31.799 13.7502 29.8395 21.6566C33.614 18.1916 39.1505 16.7201 43.4999 19.7764C43.7306 19.3967 43.9515 19.0142 44.1619 18.629C46.3619 13.979 46.3619 7.97899 43.6619 3.52899C43.0119 3.27899 42.2619 3.32897 41.5619 3.47897ZM28.9117 33.5788C28.8821 33.8308 28.859 34.0829 28.8419 34.3349C33.5041 31.135 38.3307 26.9798 41.8076 22.2861L41.6904 22.2979L41.6903 22.2979C41.5612 22.3108 41.4492 22.3221 41.3617 22.3288C35.6617 23.2288 30.0117 27.7288 28.9117 33.5788Z" fill="black"/>
</svg>
