<svg width="46" height="56" viewBox="0 0 46 56" fill="none" xmlns="http://www.w3.org/2000/svg">
<path fill-rule="evenodd" clip-rule="evenodd" d="M15.301 50.0278C16.101 52.1278 18.101 53.9278 20.101 54.9778C20.551 55.1778 20.501 54.6278 20.451 54.3278C20.3583 52.0555 21.4698 50.0412 22.5491 48.0856C22.6334 47.9326 22.7176 47.7801 22.801 47.6278C25.4767 43.0812 28.7352 38.8907 31.9902 34.7046C36.8251 28.4869 41.6525 22.2788 44.551 14.9278C45.551 12.3278 46.451 9.47781 45.651 6.72781C44.151 2.92781 40.201 -0.922189 35.801 0.227811C27.851 1.82781 20.851 7.52781 17.251 14.7278C17.2023 14.8252 17.1549 14.9214 17.1089 15.0167C15.1935 10.9621 11.9935 7.52165 7.60101 6.52773C4.00101 5.97773 0.801003 9.02772 0.751003 12.5777C0.681137 17.5732 4.27224 20.9822 7.7729 24.3053C9.28276 25.7386 10.7758 27.156 11.951 28.6777C13.901 31.0277 15.701 33.5777 16.501 36.5277C17.0858 38.3992 17.245 40.3316 17.4053 42.2773C17.4469 42.7817 17.4885 43.287 17.5377 43.7924C16.324 45.7108 15.378 47.7442 15.301 50.0278ZM20.8479 39.0602C18.5634 33.0827 13.5508 28.1687 8.9518 23.6603C8.61558 23.3307 8.28158 23.0032 7.95102 22.6777C5.75102 20.6277 4.80102 17.3277 5.95102 14.4277C6.90102 11.7777 10.051 9.87774 12.801 10.8777C14.1678 12.9804 15.3135 15.2305 16.1692 17.5935C15.8527 19.227 16.3216 20.5506 18.0087 21.8672C18.3521 22.1922 18.7125 22.4642 18.9307 22.5061C19.1574 22.6316 19.5316 22.7809 19.451 22.3778C20.551 12.9278 32.551 4.6778 41.701 4.2778C41.3021 13.3818 34.2726 22.0122 27.8465 29.9017C25.4141 32.888 23.0682 35.7682 21.201 38.5278C21.086 38.7053 20.9681 38.8827 20.8479 39.0602Z" fill="black"/>
</svg>
