<svg width="217" height="53" viewBox="0 0 217 53" fill="none" xmlns="http://www.w3.org/2000/svg">
<path fill-rule="evenodd" clip-rule="evenodd" d="M20.5133 44.6499C21.8633 48.3499 25.5633 51.7499 29.5633 52.0499C40.0633 51.4499 52.9133 36.7499 57.0133 27.5999C56.9575 28.6597 56.8667 29.7273 56.7757 30.7983C56.5402 33.5675 56.3027 36.3597 56.6633 39.0999C57.5133 40.6499 59.1633 42.9499 61.1133 42.7499C62.8462 41.6574 63.756 39.7134 64.6339 37.8374C64.9212 37.2236 65.2051 36.617 65.5133 36.0499C66.0311 34.8979 66.5287 33.7358 67.0262 32.574C68.4505 29.2483 69.8735 25.9255 71.7633 22.8499C71.8681 22.6926 71.973 22.532 72.0788 22.3698C72.8818 21.1394 73.7438 19.8184 75.1133 19.1999C75.6007 18.9562 75.6592 20.7915 75.6908 21.7836C75.6981 22.0126 75.7039 22.1967 75.7133 22.2999C75.7463 23.2681 75.6897 24.275 75.6331 25.2833C75.4323 28.8576 75.2305 32.45 79.0133 34.3999C82.8283 36.0955 87.3261 27.7288 89.7647 23.1925C90.2026 22.378 90.5741 21.687 90.8633 21.1999V21.2499C91.1133 24.8499 93.0633 28.1999 95.9133 30.3999C102.363 36.2499 111.413 30.2999 114.763 23.8499C118.563 29.8999 126.563 32.0499 131.863 26.4499C134.413 23.8499 135.863 20.2999 136.313 16.7499C136.243 16.3634 136.494 16.3226 136.753 16.2804C136.863 16.2626 136.974 16.2445 137.063 16.1999C140.313 15.0999 143.413 13.5499 146.163 11.4999C146.313 11.4103 146.212 12.0699 146.118 12.6902C146.054 13.1085 145.993 13.509 146.013 13.6499C145.413 18.6999 148.263 23.5999 152.813 25.6999C158.463 27.9999 163.063 22.0499 165.813 17.8999C166.063 22.9999 170.763 27.3999 175.713 28.0499C181.863 28.4499 186.913 23.6999 190.113 18.9499C190.328 19.7149 190.52 20.5217 190.715 21.344C191.568 24.9285 192.491 28.8071 195.663 30.7999C196.163 31.0999 196.413 31.0999 196.663 30.4999C197.763 24.4999 201.313 19.1999 206.613 16.0499C208.827 14.6576 211.142 13.4692 213.45 12.2845C214.375 11.81 215.298 11.3361 216.213 10.8499C217.167 10.5464 215.828 9.30328 215.162 8.68475C215.059 8.5899 214.973 8.50974 214.913 8.4499C214.823 8.38552 214.733 8.31119 214.641 8.23546C214.376 8.0171 214.097 7.78705 213.763 7.74992C212.746 8.20211 211.757 8.6827 210.753 9.17028C210.425 9.32966 210.096 9.48979 209.763 9.64991C202.713 12.8499 195.413 17.5499 193.813 25.6999C193.157 24.5565 192.909 23.0687 192.654 21.5449C192.23 19.0039 191.789 16.3626 189.413 15.0499C188.47 14.4906 187.721 15.3975 187.032 16.2331C186.735 16.5928 186.449 16.9393 186.163 17.1499C184.713 18.7499 183.213 20.3499 181.413 21.6499C177.513 24.9499 167.913 27.5999 168.363 19.6499C168.23 18.2628 168.452 16.8898 168.674 15.5235C168.867 14.3289 169.06 13.1394 169.013 11.9499C168.463 11.0999 167.663 10.2999 166.813 9.74992C166.148 9.68341 165.616 10.5902 165.142 11.3962C164.904 11.802 164.681 12.1823 164.463 12.3999C164.372 12.5305 164.281 12.6612 164.19 12.7921C162.079 15.8177 159.933 18.8952 156.913 21.0999C155.013 22.4999 152.413 23.5999 150.063 22.5499C149.163 20.9999 148.913 19.1499 148.813 17.3999C148.63 14.7985 149.279 12.2509 149.915 9.7569C150.146 8.84743 150.376 7.9451 150.563 7.04991C150.495 6.96371 150.42 6.86558 150.339 6.75947C149.526 5.69609 148.1 3.83148 146.963 5.14992C143.713 7.69991 140.213 9.8999 136.413 11.4499C136.213 4.6499 128.763 -3.35008 122.213 1.99992C120.013 3.64992 117.763 5.89992 117.463 8.74992C118.313 14.9499 125.963 18.0999 131.663 17.3499C130.313 21.1999 127.463 24.7499 123.563 25.9999C119.463 27.2499 116.213 26.1999 115.963 21.5499C116.146 20.7858 116.42 20.0217 116.687 19.2741C117.662 16.5482 118.559 14.041 114.713 12.5499C113.942 12.7812 113.706 13.7553 113.501 14.6018C113.44 14.8534 113.382 15.0937 113.313 15.2999C113.079 15.9554 113.086 16.6548 113.093 17.3467C113.101 18.1325 113.109 18.9086 112.763 19.5999C110.113 24.8999 104.863 30.1999 98.5633 29.9499C94.1184 29.9499 93.7038 25.2765 93.3889 21.7263C93.3637 21.4427 93.3392 21.1662 93.3133 20.8999C93.3133 19.0999 92.2133 17.6499 90.7633 16.6999C89.8133 15.8499 89.1633 16.4999 88.6633 17.3999C87.9556 18.5021 87.2775 19.6392 86.5972 20.7801C84.3455 24.5563 82.0691 28.3736 78.6133 31.0999C78.574 30.1779 78.5887 29.2058 78.6036 28.2154C78.6647 24.1574 78.7305 19.7918 75.1133 17.2999C74.3633 16.7499 73.4133 16.2499 72.4633 16.6499C68.2979 19.6618 66.1858 24.419 64.0875 29.1452C62.9115 31.7941 61.7398 34.4333 60.2133 36.7499C60.3015 35.0911 60.4271 33.4323 60.5527 31.7734C60.783 28.7323 61.0133 25.6911 61.0133 22.6499C61.0133 19.6499 61.0133 16.3499 58.1633 14.4999C56.6268 13.0009 56.3824 14.0017 56.0826 15.2287C55.9825 15.6388 55.8761 16.0741 55.7133 16.4499C52.1633 29.1499 42.6133 39.7999 31.3633 46.2999C29.3133 47.2999 27.1133 48.1499 24.8133 47.8999C23.9215 46.6683 24.6528 43.7054 25.1385 41.7378C25.2246 41.3888 25.303 41.0711 25.3633 40.7999C26.4133 38.0499 26.5133 37.6999 24.1633 35.6499C22.4239 33.9845 22.1089 34.3736 21.3125 35.3573C21.0329 35.7026 20.694 36.1212 20.2133 36.5499C16.6133 40.1999 11.4633 44.6499 5.96328 42.8499C2.76328 36.1999 7.41329 18.4999 15.8633 17.9999C17.1564 19.052 17.95 20.642 18.7493 22.2437C19.7735 24.2958 20.8071 26.367 22.9133 27.3499C23.4835 27.4568 22.3773 25.5826 21.6404 24.3341C21.3434 23.8308 21.1064 23.4292 21.0633 23.2999C16.2633 14.4999 10.5133 11.0499 4.56329 21.2499C1.76329 26.5999 -0.386704 33.2499 1.6633 39.1999C5.0633 46.2999 12.5133 50.3499 19.4633 45.0499C19.5613 45.0172 19.7234 44.8778 19.892 44.7327C20.2394 44.4339 20.6143 44.1113 20.5133 44.6499ZM121.113 12.5499C120.963 8.24995 125.313 4.64994 129.263 3.69994C129.402 3.69006 129.563 3.66848 129.738 3.64521C130.446 3.55068 131.362 3.42835 131.763 3.94994C132.863 6.69994 133.013 9.74994 132.713 12.6999C129.613 13.7499 123.863 14.4999 121.113 12.5499Z" fill="black"/>
</svg>
