<svg width="178" height="78" viewBox="0 0 178 78" fill="none" xmlns="http://www.w3.org/2000/svg">
<path fill-rule="evenodd" clip-rule="evenodd" d="M12.5911 77.8029C1.04111 75.7529 -0.858861 61.5029 0.741139 51.8529C1.44114 45.6029 6.14113 29.6029 13.7911 39.4529C16.0411 42.9529 17.4911 47.3029 17.4411 51.5029C17.4224 51.5778 17.4247 51.6806 17.427 51.7853C17.4309 51.9603 17.435 52.1403 17.3411 52.2029C16.5911 51.9529 15.7411 51.3529 15.3911 50.6529C15.6411 47.8029 14.7911 45.0029 13.7411 42.3529C13.5482 41.9818 13.3685 41.5667 13.1849 41.1429L13.1849 41.1428C12.7502 40.1388 12.2943 39.0857 11.5911 38.4529C8.49488 39.0904 7.18163 42.5889 6.14096 45.3613L6.14093 45.3614C6.03885 45.6333 5.93938 45.8983 5.84111 46.1529C3.54111 53.9529 2.89113 62.6029 5.54113 70.3529C5.99113 71.7029 6.54111 72.9529 7.34111 74.1029C7.90578 74.5264 8.82469 74.4628 9.5561 74.4121L9.69109 74.4029C16.0911 73.1029 18.5911 64.0029 19.5911 58.4029C20.3411 57.4529 23.2411 60.2529 23.6411 61.0529C23.1911 63.8529 22.8911 66.7029 24.3911 69.3529C32.3411 69.6029 36.4911 57.9529 38.5411 51.6529C39.1781 49.5876 39.7406 47.4924 40.3033 45.3962L40.3033 45.396L40.3034 45.3959C41.1983 42.0623 42.0939 38.7261 43.2911 35.5029C43.3646 35.3559 43.4261 35.1879 43.4888 35.0165C43.6821 34.4884 43.8871 33.9284 44.4911 33.8529C47.7411 34.8529 49.6411 37.9029 49.5411 41.2029C49.6741 42.5919 49.7722 43.9808 49.8701 45.3685C50.1036 48.6765 50.3366 51.9771 51.0411 55.2529C52.0317 53.8588 53.1097 50.7419 54.29 47.3293C56.327 41.4398 58.6686 34.6695 61.3911 34.3529C65.8544 35.9597 66.2124 40.2183 66.5622 44.3792V44.3793C66.7022 46.045 66.8409 47.695 67.2411 49.1529C69.171 46.6328 70.5235 43.6899 71.8745 40.7504L71.8745 40.7503C73.4987 37.2163 75.1207 33.6871 77.7411 30.9029C78.7109 30.7009 79.5501 31.4132 80.285 32.037C80.4594 32.1851 80.628 32.3282 80.7911 32.4529C82.8088 34.2297 82.8495 36.8227 82.8904 39.4344C82.9174 41.1589 82.9446 42.8916 83.5411 44.4029C84.0411 48.6529 88.9411 48.0529 91.7411 46.4029C97.1911 43.3029 99.9911 37.0029 100.891 31.0029C97.2911 32.8529 92.7911 29.7029 91.6911 26.2529C91.6411 23.9529 93.0411 21.7529 94.6911 20.2529C97.6911 17.5529 101.341 20.8529 103.191 23.3029C104.875 21.8599 106.489 20.3359 108.1 18.8143C109.839 17.1727 111.575 15.5339 113.391 14.0029C117.241 10.5529 118.691 10.4029 121.991 14.5529C122.856 16.1247 122.547 17.9437 122.253 19.6698L122.253 19.6699C122.173 20.1401 122.095 20.6034 122.041 21.0529L121.968 21.4888C121.241 25.8498 120.498 30.3013 120.691 34.7529C120.347 39.2783 125.277 30.6412 126.008 29.3602L126.041 29.3029C126.834 27.918 127.599 26.5115 128.364 25.1027L128.365 25.1019C130.446 21.272 132.536 17.4254 135.241 13.9529C137.541 10.2029 139.441 12.1529 141.491 14.9529C141.821 15.6827 142.061 16.4729 142.302 17.269L142.302 17.2691C142.755 18.7635 143.215 20.2785 144.291 21.4529C147.891 23.7029 152.291 21.7529 155.191 19.3029C152.591 13.7529 154.791 6.8529 158.641 2.4029C161.891 -1.5471 165.991 0.402901 167.691 4.5029C167.341 11.1029 163.841 17.5529 158.841 21.8029C160.565 24.9627 164.646 24.7545 168.099 24.5783C168.854 24.5399 169.578 24.5029 170.241 24.5029C170.612 24.5029 170.983 24.4547 171.351 24.4069C171.976 24.3258 172.594 24.2456 173.191 24.4029C174.741 25.2529 176.241 26.5029 177.091 28.1029C177.124 28.6327 175.271 28.6143 173.784 28.5995C173.025 28.5919 172.361 28.5853 172.091 28.6529C166.591 29.2029 161.341 26.7529 157.691 22.7029C150.741 28.6029 141.541 23.0029 139.441 15.2529C136.33 18.7368 134.223 22.9143 132.12 27.0826C129.998 31.2895 127.881 35.487 124.741 38.9529C123.391 40.2529 121.541 39.4529 120.391 38.3529C115.673 34.7763 116.949 27.4647 118.026 21.2873C118.365 19.347 118.684 17.5185 118.791 15.9529V15.9029C116.587 17.7209 114.558 19.7249 112.531 21.727L112.531 21.7271C110.098 24.1299 107.669 26.5301 104.941 28.6029C105.441 37.5029 101.191 49.6029 91.1911 50.8029C85.0911 50.6529 79.7411 45.0529 79.2911 39.0529C79.2552 38.9452 79.2387 38.6185 79.2206 38.2623V38.2621C79.1884 37.6262 79.1514 36.8965 78.9911 37.1529C78.0411 38.8029 77.1411 40.5029 76.2911 42.2029C75.5683 43.3796 74.9924 44.7259 74.4114 46.084C73.2644 48.7654 72.0976 51.493 69.7411 53.0529C63.9256 52.5683 63.2732 45.9888 62.7898 41.1135V41.1135C62.7246 40.4559 62.6624 39.8293 62.5911 39.2529C60.5854 42.237 59.5011 45.6877 58.4191 49.131C57.2893 52.7264 56.1621 56.3136 53.9911 59.3529C53.1411 60.1529 51.9911 59.5029 51.2411 58.9529C47.3252 56.7094 46.8702 52.1031 46.4553 47.9033C46.3616 46.9551 46.27 46.0277 46.1411 45.1529C46.0911 44.8029 46.0661 44.4654 46.0411 44.1279C46.0161 43.7904 45.9911 43.4529 45.9411 43.1029C46.0743 41.1708 45.342 44.0327 44.7792 46.2321L44.7792 46.2322C44.4972 47.334 44.2578 48.2695 44.1911 48.3529C41.8911 57.9029 34.1411 81.9529 21.6911 68.5029C20.1911 72.5529 17.6411 77.8029 12.5911 77.8029ZM99.7911 22.8529C97.9411 23.7529 96.7911 25.7529 96.1411 27.6529C97.4341 27.5143 99.324 26.2244 100.708 25.2796C100.823 25.2014 100.934 25.1255 101.041 25.0529C100.941 24.2029 100.741 23.4029 100.441 22.6529C100.291 22.6029 99.8911 22.8029 99.7911 22.8529ZM164.041 3.85291C159.941 6.65291 158.041 11.9529 157.841 16.7529C161.041 13.2029 163.191 8.45291 164.041 3.85291Z" fill="black"/>
</svg>
