<svg width="185" height="31" viewBox="0 0 185 31" fill="none" xmlns="http://www.w3.org/2000/svg">
<path fill-rule="evenodd" clip-rule="evenodd" d="M1.15105 19.1278C-0.498955 24.4278 2.65106 28.2778 7.35106 30.2778C12.3292 31.405 16.6456 27.5916 20.1761 24.4726C20.4044 24.2709 20.6294 24.0721 20.8511 23.8778C20.936 23.7079 21.1494 24.0353 21.3729 24.3785C21.544 24.6411 21.721 24.9128 21.8511 24.9778C26.3606 30.7298 31.9711 26.8686 36.6561 23.6444C37.0618 23.3652 37.4606 23.0908 37.8511 22.8278L37.8519 22.8273C42.9016 19.2774 47.9513 15.7276 53.1011 12.3778C53.1011 12.3278 53.4511 12.0778 53.5011 12.1278C53.1395 13.2597 52.6692 14.4114 52.1927 15.5782C51.1537 18.1223 50.0854 20.7383 50.0511 23.3778C50.9511 25.2778 52.8011 26.9778 54.7511 27.5778C56.1038 27.5778 57.1716 26.5964 58.156 25.6916C58.4087 25.4593 58.6559 25.2321 58.901 25.0278C59.1327 24.8734 60.1656 23.8813 61.5277 22.5729C65.4588 18.797 72.132 12.3873 70.201 15.8778C70.0565 16.4722 69.8293 17.0717 69.6008 17.6747C69.1182 18.9487 68.6296 20.2383 68.901 21.5278C70.101 23.4778 72.1511 25.8778 74.5511 26.0278C75.89 25.6931 76.9138 24.7631 77.9155 23.8532C78.1108 23.6758 78.3053 23.4991 78.5011 23.3278C79.5234 22.4268 80.5218 21.4957 81.5211 20.5637C83.4052 18.8065 85.2927 17.0461 87.3511 15.4778V15.5278C86.6511 19.6778 88.6511 23.3278 92.1011 25.6278C95.1011 28.3278 99.1011 26.5279 102.051 24.6779C105.601 22.4779 108.951 20.0778 112.351 17.6278C114.041 16.2164 114.038 16.3965 114.021 17.4952C113.999 18.9654 113.952 22.0803 117.901 25.2278C123.701 30.7778 132.201 23.9778 134.701 18.1278C134.762 18.0215 134.795 17.8967 134.827 17.7759C134.9 17.499 134.968 17.243 135.351 17.2778C136.872 16.9667 138.369 16.6078 139.859 16.2507C140.524 16.0913 141.187 15.9322 141.851 15.7778C143.394 15.4546 144.928 15.0666 146.462 14.6786C150.149 13.746 153.838 12.8131 157.651 12.7778C158.101 12.7778 158.601 12.7778 158.601 13.3278C159.051 15.0778 159.351 17.1278 158.501 18.8278C157.001 22.3778 156.451 24.2779 160.251 26.4279C160.671 26.4016 160.994 25.2332 161.344 23.9695C161.661 22.8243 161.999 21.6007 162.451 21.0778C166.501 12.6778 173.501 10.2278 182.401 11.2278C182.605 11.2151 182.883 11.251 183.167 11.2876C183.999 11.3949 184.884 11.5089 184.101 10.4279C183.001 8.92786 181.601 7.17783 179.751 6.52783C178.801 6.57783 177.851 6.62781 176.901 6.62781C170.701 6.37781 164.301 8.57782 161.001 14.0778C159.351 11.6278 156.801 9.22784 153.651 9.22784C149.816 9.26698 146.011 10.0719 142.213 10.8753C141.159 11.0984 140.105 11.3214 139.051 11.5278C138.586 11.5701 138.058 11.7019 137.535 11.8323C136.823 12.0102 136.12 12.1855 135.601 12.1278C135.351 8.57781 132.851 5.72782 130.051 3.82782C126.001 0.927819 120.051 3.77786 118.501 8.17786C117.101 12.8779 124.151 18.0278 128.451 18.0278C125.851 20.8778 122.351 23.8278 118.251 23.6278C117.424 22.1324 117.548 20.2522 117.671 18.3997C117.741 17.3411 117.81 16.2915 117.701 15.3278C117.201 13.5278 115.451 12.1278 113.801 11.2778C112.501 11.0725 111.294 11.9443 110.149 12.7715C109.621 13.1531 109.106 13.5253 108.601 13.7778C107.011 14.6931 105.402 15.7975 103.766 16.9208C99.9505 19.5406 95.9855 22.2629 91.7511 22.9279C91.5159 21.414 91.5659 20.0039 91.6127 18.6822C91.7252 15.5075 91.8197 12.8431 87.901 10.4778C86.701 9.42784 85.251 10.0278 84.151 10.8278C81.601 12.4403 79.3042 14.3903 77.0073 16.3403C76.2417 16.9903 75.476 17.6403 74.701 18.2778C75.951 14.5278 74.8511 12.0278 71.6011 9.97784C68.9874 8.1218 62.7582 13.8988 58.5654 17.7871C57.2237 19.0314 56.0905 20.0823 55.3511 20.6278C55.5505 19.6082 56.0546 18.343 56.5889 17.002C57.2598 15.318 57.9784 13.5145 58.201 11.9279C58.4725 10.0276 56.8197 8.70045 55.4656 7.6131C55.3232 7.49883 55.1842 7.3872 55.0511 7.27783C53.9011 6.27783 52.551 6.97786 51.451 7.67786C49.651 8.7112 47.9399 9.87788 46.2287 11.0446C45.3732 11.6279 44.5177 12.2112 43.651 12.7778C42.3903 13.6492 41.1296 14.5275 39.8664 15.4075C37.7227 16.9008 35.5718 18.3992 33.401 19.8778C32.9804 20.1508 32.5587 20.4326 32.1343 20.7161C29.6831 22.3538 27.1419 24.0516 24.201 24.4778C24.362 22.8042 25.1651 21.3378 25.9571 19.8918C26.3954 19.0914 26.8304 18.2973 27.151 17.4778C26.451 16.2278 25.3011 15.2278 24.1011 14.4778C23.7011 14.2278 23.201 14.1278 22.901 14.5278C22.0514 15.2415 21.2249 15.9783 20.39 16.7225C19.9966 17.0732 19.6014 17.4255 19.201 17.7778C18.5721 18.3235 17.9408 18.8943 17.3022 19.4719C13.7272 22.7049 9.92203 26.146 5.00108 26.5278C5.00108 19.8278 9.80107 7.87783 15.5511 4.27783C16.2047 5.71579 16.367 7.28192 16.5267 8.82263C16.6113 9.63913 16.6952 10.4485 16.8511 11.2278C17.2511 11.7778 19.101 13.8778 19.701 13.3778C19.6883 13.0731 19.6789 12.7652 19.6694 12.4557C19.6414 11.5463 19.613 10.6232 19.5011 9.72784C19.2511 6.12784 17.401 2.77784 14.201 0.977843C12.051 -0.522157 9.85107 1.57784 8.55107 3.22784C4.85107 7.82784 2.45105 13.4278 1.15105 19.1278ZM122.451 13.1278C122.401 9.37781 126.101 6.32785 129.701 6.22785C129.852 6.24461 130.014 6.25013 130.178 6.25571C130.503 6.26678 130.835 6.27809 131.101 6.37781C131.901 8.57781 131.701 10.9278 131.101 13.1278C130.998 13.1445 130.872 13.1654 130.727 13.1895C128.703 13.5262 122.964 14.481 122.451 13.1278Z" fill="black"/>
</svg>
