<svg width="61" height="46" viewBox="0 0 61 46" fill="none" xmlns="http://www.w3.org/2000/svg">
<path fill-rule="evenodd" clip-rule="evenodd" d="M44.6603 45.2248C42.6103 45.0248 40.6603 43.4248 39.5603 41.7748C39.4603 40.3748 41.1603 39.6748 41.9603 38.7748C46.9603 34.1748 52.8103 30.1748 56.6603 24.5248C50.5103 25.9248 44.7103 28.4748 39.1103 31.3248C34.5103 33.1248 24.9603 40.9748 20.8603 36.8748C19.8103 36.0248 17.8103 34.8748 18.6103 33.3248C26.2103 23.5248 36.9103 16.6248 45.9603 8.27481C31.8103 15.0748 18.1104 22.9248 5.26035 31.9748C4.61036 32.9748 -0.439645 28.8748 1.01035 28.5748C6.96035 24.3748 12.9603 20.2748 19.2103 16.5748C26.5603 12.2248 34.0604 8.07482 41.7604 4.47482C44.8604 3.17482 47.9604 1.5248 51.2604 0.924805C53.0104 1.1748 54.4603 2.57481 55.6603 3.77481C58.2603 6.22481 50.6603 11.0748 49.0603 12.8748C42.1103 18.8748 34.8103 24.4748 28.0603 30.7248C27.3103 31.4748 26.5603 32.1748 25.8103 32.9248C25.7603 33.0248 25.6103 33.0748 25.8603 32.9748C29.7103 31.1248 33.4603 29.0248 37.3103 27.1748C43.3103 24.5748 49.5603 21.4748 56.2103 21.2248C58.1603 21.9248 61.2103 23.5248 60.9103 25.9748C58.0603 32.0248 51.7104 35.6248 47.0104 40.1248C46.6604 40.5748 45.8103 41.1248 45.6103 41.4248C48.6103 40.6748 51.5604 39.7748 54.5104 38.9748C56.2104 38.1748 58.3604 40.4248 59.2604 41.7248C59.3104 41.8748 59.3103 41.9248 59.1603 41.9748C57.127 42.5082 55.1103 43.0415 53.1103 43.5748C50.3103 44.2748 47.5103 45.2248 44.6603 45.2248Z" fill="black"/>
</svg>
