<svg width="47" height="52" viewBox="0 0 47 52" fill="none" xmlns="http://www.w3.org/2000/svg">
<path fill-rule="evenodd" clip-rule="evenodd" d="M32.6998 32C33.0498 33.15 34.5998 34.55 35.6998 35.1C38.7498 33.6 44.5498 25.5 45.9498 22.2C46.4998 20.9625 45.3693 19.9771 44.4838 19.2053C44.4033 19.1351 44.3248 19.0667 44.2498 19C43.2568 18.1215 41.9428 18.1767 40.6867 18.2294C40.2985 18.2457 39.9158 18.2618 39.5498 18.25C38.1575 18.3214 36.7588 18.3609 35.3606 18.4005C32.8422 18.4716 30.3253 18.5428 27.8498 18.8C27.7938 18.8 27.7221 18.8157 27.6489 18.8317C27.461 18.8728 27.2638 18.916 27.2998 18.7C27.1398 17.46 27.1078 16.22 27.0758 14.98C27.0678 14.67 27.0598 14.36 27.0498 14.05C26.9498 10.75 26.7831 7.44999 26.5498 4.14999C26.5998 3.19999 25.8498 2.49999 25.1498 1.94999C25.0855 1.89996 25.0099 1.83767 24.926 1.76853C24.4231 1.35394 23.6212 0.692874 23.1498 0.949992C22.4184 1.96586 21.8851 3.14685 21.3621 4.30509C21.2415 4.57203 21.1215 4.83777 20.9998 5.09999C20.759 5.6437 20.5158 6.18862 20.2721 6.73475C18.9468 9.70416 17.6056 12.7092 16.5498 15.75C16.8998 16.4 18.3498 17.75 19.0498 17.7C19.6873 15.9999 20.5256 14.3249 21.3513 12.6749C21.6912 11.9957 22.029 11.3207 22.3498 10.65C22.8998 9.54999 23.4498 8.49999 23.9998 7.44999C24.0498 9.04999 24.0498 10.65 24.0498 12.25C24.078 12.8415 24.0625 13.4488 24.047 14.0586C24.0074 15.6139 23.9673 17.1851 24.6498 18.55C25.5998 19.95 26.9498 21.15 28.4998 21.75C29.7614 21.9603 31.041 21.7916 32.317 21.6234C33.165 21.5116 34.0114 21.4 34.8498 21.4L34.9945 21.3921C37.698 21.2447 40.448 21.0947 43.1498 20.8C41.7894 23.0985 40.033 25.0889 38.2934 27.0603C38.1787 27.1903 38.0642 27.3201 37.9498 27.45C36.4998 29 35.0498 30.5 33.2498 31.6C33.188 31.6618 33.1007 31.7066 33.0125 31.7519C32.8866 31.8166 32.7586 31.8824 32.6998 32ZM28.9335 48.4409C30.357 49.8913 31.866 51.4286 33.7999 52C34.8003 51.9167 34.8625 50.7908 34.9134 49.8681C34.9236 49.6841 34.9333 49.508 34.9499 49.35C34.9499 47.6 34.9499 45.85 34.8499 44.1C34.6999 42.85 34.5999 41.55 34.5999 40.3C34.5999 39.9667 34.5166 39.6834 34.3499 39.45C33.5499 38.3 32.4999 37.15 31.2499 36.55C30.9499 36.45 30.9499 36.7 30.9999 36.9C31.0624 37.7334 31.1683 38.5667 31.2742 39.4C31.4225 40.5667 31.5708 41.7334 31.5999 42.9C31.5945 43.3102 31.5955 43.7325 31.5965 44.1527C31.6048 47.6252 31.6128 50.9456 27.9999 45.95C27.0753 44.8611 26.404 43.5948 25.7362 42.3351C24.7789 40.5293 23.8288 38.7371 22.1499 37.5C20.943 36.3333 19.9303 37.0441 18.8774 37.7832C18.6217 37.9626 18.3637 38.1437 18.0999 38.3C16.1999 39.65 14.2499 40.9 12.2999 42.05C12.2419 42.0791 12.2175 42.1081 12.2171 42.1078C12.2168 42.1075 12.2289 42.0919 12.2499 42.05C12.6832 41.0167 13.1332 40 13.5999 39C13.8607 38.3806 14.2012 37.7772 14.5434 37.1707C15.2511 35.9166 15.9662 34.6492 15.9999 33.2C15.8587 31.647 14.876 30.3598 13.9688 29.1715C13.9121 29.0973 13.8558 29.0235 13.7999 28.95C12.2181 26.9591 10.547 25.0575 8.87597 23.1558C7.4834 21.5711 6.09083 19.9864 4.74991 18.35C8.09991 17.7 11.7499 17.85 14.9499 18.9C15.0208 18.9284 15.14 19.0171 15.279 19.1205C15.6299 19.3817 16.1066 19.7366 16.2499 19.45C15.9736 18.483 15.1035 17.728 14.3428 17.0679C14.2776 17.0113 14.2131 16.9553 14.1499 16.9C11.0999 14.3 5.59991 13.85 1.74991 14.15C1.63033 14.1671 1.49908 14.1784 1.36612 14.1897C1.10992 14.2117 0.847406 14.2342 0.649903 14.3C-0.00250967 14.8373 1.58376 16.5823 2.58257 17.681C2.88507 18.0138 3.13368 18.2873 3.24991 18.45C4.27549 19.6375 5.33345 20.7992 6.39116 21.9605C8.27273 24.0264 10.1535 26.0915 11.8499 28.3C13.3509 30.0915 12.2731 31.883 11.2499 33.5836C11.2165 33.6392 11.1831 33.6947 11.1499 33.75C9.7999 36.2 8.64992 38.7 7.59992 41.3C7.09992 42.5667 6.61657 43.8334 6.1499 45.1C5.9499 45.4 5.89992 45.75 6.09992 46.05C6.84992 47.35 8.04993 48.4 9.29993 49.15C9.92617 49.5675 10.7461 48.8956 11.4565 48.3135C11.767 48.059 12.0566 47.8217 12.2999 47.7C13.5825 46.8329 14.8781 45.9854 16.1727 45.1386C18.4612 43.6416 20.7464 42.1468 22.9499 40.55C24.4499 43.1 26.1999 45.7 28.3499 47.85C28.5434 48.0435 28.7376 48.2414 28.9335 48.4409Z" fill="black"/>
</svg>
