<svg width="41" height="53" viewBox="0 0 41 53" fill="none" xmlns="http://www.w3.org/2000/svg">
<path fill-rule="evenodd" clip-rule="evenodd" d="M30.1 33.9038C29.15 34.4538 32.35 36.8538 32.95 36.9538C33.1 37.0038 33.15 37.0038 33.3 36.8538L35.1 35.0538C35.2637 34.8701 35.428 34.6865 35.5926 34.5026C37.4886 32.3836 39.4118 30.2342 40.7 27.7038C41.15 26.8538 40.6 26.0038 40 25.4538L39.9927 25.4469C39.0948 24.5989 38.1466 23.7034 36.9 23.5538C34.7 23.2538 32.5 22.9038 30.35 22.5538C28.7 16.8038 27.35 10.6038 27.05 4.50378C27.05 2.95378 24.4 0.803784 23.05 0.503784C20.9976 3.00519 19.7268 6.00025 18.4592 8.98765C17.7505 10.658 17.0428 12.3259 16.2 13.9038C15.7001 14.8537 15.1001 15.7537 14.5001 16.6536L14.5 16.6538C15.15 18.1538 16.7 19.2538 18.1 20.0538C19.04 20.6553 21.4218 15.0088 22.8432 11.6391C23.312 10.5276 23.6764 9.66387 23.85 9.35382C23.8833 9.25382 23.9333 9.15377 24 9.05377C24 9.00377 24.05 8.8038 24.1 8.9538C24.55 11.7538 25.25 14.5038 25.95 17.2038C26.6 20.6538 27.9 24.2038 31.4 25.6038C32.959 25.5218 34.4844 25.7427 36.0037 25.9627C36.336 26.0109 36.668 26.059 37 26.1038C37.1858 26.0667 36.9849 26.3333 36.849 26.5138C36.802 26.5761 36.7628 26.6281 36.75 26.6538C34.85 29.3538 32.55 31.7038 30.1 33.9038ZM20.85 40.7037C22.5 45.0037 24.7 49.7037 28.7 52.3037C29.6965 52.6359 30.0034 51.3821 30.222 50.4892C30.2666 50.3068 30.3076 50.1394 30.35 50.0037C30.75 48.1037 31.2 46.2037 31.7 44.3037C31.723 44.1658 31.7671 44.0172 31.813 43.863C31.8668 43.6818 31.923 43.4928 31.95 43.3037C31.6344 42.447 30.8714 41.7936 30.1745 41.1968C30.0987 41.1318 30.0236 41.0675 29.95 41.0037C29.75 40.8537 29.2 40.5037 29.2 41.0037C28.8473 42.0815 28.6174 43.213 28.3871 44.3471C28.0296 46.1068 27.6709 47.8727 26.85 49.4537C25.7768 48.2464 24.9435 46.2791 24.2429 44.625C24.1601 44.4296 24.0792 44.2386 24 44.0537C23.892 43.7729 23.7881 43.49 23.6844 43.2074C23.0677 41.5278 22.4552 39.8593 21 38.7037C20 37.6037 18.6 37.4538 17.25 37.9038C15.15 38.3538 12.5 39.0538 10.7 39.6038C11.1479 39.0008 11.8571 38.3266 12.6024 37.6179C14.0202 36.2699 15.5689 34.7974 15.7 33.4537C14.9413 30.6828 12.0062 27.9335 9.27822 25.3784C7.8714 24.0607 6.51969 22.7946 5.55 21.6038C5 21.0538 4.5 20.5537 4 19.9537C3.98719 19.9281 3.96453 19.8992 3.94127 19.8695C3.87377 19.7834 3.80126 19.6909 3.95001 19.6538C6.50001 19.5038 9.05 20.0038 11.5 20.6538C11.6199 20.6857 11.7398 20.7164 11.8595 20.7471C12.4885 20.9081 13.1119 21.0677 13.7 21.4038C13.8 21.4538 14.1 21.5538 14.1 21.3538C13.9434 20.6491 13.3884 20.0977 12.8669 19.5796C12.7223 19.436 12.5803 19.2949 12.45 19.1538C10.7123 17.574 8.38185 17.1173 6.12399 16.6747C5.52335 16.557 4.92785 16.4403 4.35001 16.3037C4.09989 16.3037 3.68527 16.2518 3.21187 16.1925C2.07644 16.0502 0.602875 15.8656 0.25 16.2537C0.5801 18.0876 3.11642 20.5941 5.15508 22.6088C5.89557 23.3406 6.5704 24.0075 7.05 24.5537C7.42873 25.0385 8.14252 25.6701 8.9327 26.3694C10.7506 27.978 12.9728 29.9445 12.45 31.3037C11.1791 33.0599 9.57702 34.5599 7.97462 36.0601C6.10986 37.806 4.24459 39.5524 2.90001 41.7037C2.73587 42.8527 4.01982 43.9006 5.01067 44.7094C5.22716 44.8861 5.42966 45.0513 5.60001 45.2037C6.84873 46.2097 8.81937 45.1221 10.5604 44.1612C11.329 43.737 12.0528 43.3375 12.65 43.1538C14.7937 42.187 17.0081 41.5736 19.2338 40.9571C19.6556 40.8402 20.0778 40.7233 20.5 40.6038C20.5432 40.6038 20.5863 40.5913 20.6271 40.5796C20.7281 40.5505 20.8144 40.5257 20.85 40.7037Z" fill="black"/>
</svg>
