<svg width="32" height="44" viewBox="0 0 32 44" fill="none" xmlns="http://www.w3.org/2000/svg">
<path fill-rule="evenodd" clip-rule="evenodd" d="M24.1999 26.2038C24.6999 27.4038 25.9499 28.3538 27.0999 28.9538C29.1999 26.6038 30.8499 22.1538 31.3499 18.9538C30.9499 17.8538 29.7998 16.8538 28.6498 16.5538C27.8998 16.6181 27.1499 16.7099 26.3999 16.8018C25.3999 16.9242 24.3998 17.0466 23.3998 17.1038C21.7998 13.4038 20.3998 9.60379 19.6498 5.60379C19.5837 5.32051 19.5283 5.02832 19.4725 4.73395C19.2328 3.46956 18.9855 2.16494 17.8499 1.35379C17.7945 1.31687 17.7221 1.25781 17.6399 1.19076C17.2767 0.89452 16.7222 0.44223 16.5999 1.0538C16.1481 2.5784 15.8399 4.15082 15.5311 5.72606C15.293 6.9405 15.0546 8.15662 14.7498 9.35379C14.2998 11.3038 13.4998 13.1538 12.6498 15.0038C12.8998 15.6538 13.5999 16.1538 14.1999 16.5538C14.2075 16.5576 14.216 16.562 14.2252 16.5668C14.3366 16.6244 14.5499 16.7347 14.5499 16.5038C16.2499 13.1538 17.0999 9.50379 17.8499 5.85379C18.5499 8.55379 19.6999 12.3538 20.9499 15.3038C21.9499 19.3038 24.3499 19.9538 28.0999 19.2538C27.2499 21.8038 25.7499 24.0538 24.1999 26.2038ZM21.0036 37.1343C22.8758 39.4491 24.8213 41.8547 27.4499 43.2538C28.7003 42.825 27.7297 39.5371 27.019 37.1294C26.7351 36.1676 26.4927 35.3462 26.4499 34.9038C26.3999 34.2038 24.2498 32.0038 23.5998 32.3538C23.7666 33.2541 24.0612 34.16 24.3576 35.0714C24.9501 36.8933 25.5498 38.7374 25.1498 40.6038C23.3998 38.8038 21.7998 36.7538 20.3998 34.7038C20.2738 34.5178 20.1464 34.3238 20.0163 34.1259C19.0623 32.6742 17.9658 31.0058 16.2498 30.6538C15.679 31.0786 15.1188 31.5281 14.5569 31.9788C13.0026 33.2258 11.4361 34.4825 9.59984 35.2538C9.54984 35.3038 8.79984 35.7038 8.74984 35.6538C8.84311 35.4939 8.93639 35.3304 9.03061 35.1653C9.28995 34.7109 9.55645 34.2439 9.84984 33.8038C10.1619 33.0154 10.8732 32.103 11.6204 31.1445C13.1479 29.1849 14.8258 27.0326 13.5499 25.3538C12.6965 24.2273 11.5402 23.4504 10.3832 22.6731C9.84544 22.3118 9.30755 21.9504 8.79986 21.5538C6.89986 19.9871 4.96651 18.4704 2.99984 17.0038C2.64984 16.7538 2.74985 16.6038 3.09984 16.5538C6.19984 16.5038 9.39986 17.2538 12.2999 18.2038C11.8018 16.936 10.2378 16.4882 8.94427 16.1179C8.80935 16.0793 8.67737 16.0415 8.54986 16.0038C8.41732 15.9789 8.08854 15.8937 7.63559 15.7763C5.35449 15.1849 -0.0759059 13.7771 0.549842 15.1538C1.37148 16.6103 2.72314 17.6205 4.06307 18.6219C4.51703 18.9612 4.96965 19.2995 5.39985 19.6538C6.18107 20.2397 6.93177 20.8638 7.68176 21.4872C8.85182 22.4599 10.0201 23.4311 11.2999 24.2538C12.0001 24.9235 10.0309 27.41 8.21419 29.7039C7.04724 31.1775 5.94318 32.5715 5.64985 33.3538C4.99985 34.5038 4.34984 35.7538 4.09984 37.1038C4.14371 37.5424 4.49543 37.9426 4.78365 38.2705C4.82397 38.3164 4.86304 38.3608 4.89985 38.4038C5.04554 38.53 5.19123 38.6639 5.33875 38.7994C5.95066 39.3614 6.59409 39.9523 7.39983 40.1538C11.3998 39.2038 15.1498 36.7038 18.0998 33.8038C18.1272 33.7901 18.1584 33.7614 18.1902 33.732C18.2745 33.6543 18.3635 33.5723 18.3998 33.7538C18.8998 34.4871 19.4332 35.2038 19.9998 35.9038C20.3344 36.3068 20.6678 36.7191 21.0036 37.1343Z" fill="black"/>
</svg>
