<svg width="41" height="44" viewBox="0 0 41 44" fill="none" xmlns="http://www.w3.org/2000/svg">
<path fill-rule="evenodd" clip-rule="evenodd" d="M10.8001 39.7C11.3501 41.15 12.7001 42.2 13.9501 43.05C15.6158 43.5625 18.5745 39.0676 21.0905 35.2451C22.5017 33.1011 23.7736 31.1687 24.6001 30.45C24.6568 30.3555 24.7278 30.2681 24.7996 30.1797C24.9177 30.0344 25.0379 29.8866 25.1001 29.7C24.7501 28.6 23.5001 27.55 22.6001 26.9C22.5888 26.8943 22.5769 26.8883 22.5647 26.8821C22.361 26.7789 22.0416 26.617 21.9001 26.9C20.3957 28.4965 19.1929 30.3004 17.9909 32.1032C17.2353 33.2365 16.4799 34.3693 15.6501 35.45C15.6001 35.5167 15.5501 35.5889 15.5001 35.6612C15.4001 35.8056 15.3001 35.95 15.2001 36.05C15.2165 35.9843 15.233 35.9172 15.2496 35.8492C15.3343 35.5034 15.4248 35.1343 15.5501 34.8C15.6757 34.3318 15.7987 33.861 15.9221 33.3888C16.3389 31.7934 16.76 30.1818 17.3001 28.6C17.3073 28.5784 17.3145 28.557 17.3217 28.5359C17.4135 28.2637 17.4929 28.0284 17.4001 27.75C16.8501 26.45 15.7001 25.4 14.5001 24.75C13.7798 24.3898 12.9784 24.3945 12.2054 24.399C12.1199 24.3995 12.0348 24.4 11.9501 24.4C11.4761 24.4 10.9924 24.4049 10.5048 24.4098C8.78092 24.4271 7.00917 24.4449 5.4501 24.25C8.7501 21.9 12.4501 20.2 16.2501 18.8C16.3003 18.7785 16.3536 18.757 16.4084 18.7348C16.7354 18.6028 17.1145 18.4498 17.2001 18.15C17.5668 16.6833 17.8001 15.1833 17.9001 13.65C18.0874 12.0577 17.88 10.4654 17.6732 8.87823C17.4384 7.07636 17.2045 5.28111 17.5501 3.5C18.1271 4.50221 18.6857 5.52286 19.2483 6.55075C19.6119 7.21515 19.9771 7.88258 20.3501 8.55C20.9501 9.85 21.7501 11.05 22.8501 12.05C23.3501 12.6 25.6001 14.15 24.3001 12.25C23.8173 11.5028 23.2684 10.523 22.6638 9.44371C20.6386 5.82859 17.9879 1.0971 15.1001 0.25C14.2653 0.895059 14.496 2.63436 14.6776 4.00376C14.7353 4.43883 14.7881 4.83656 14.8001 5.15C15.4001 8.6 15.5501 12.15 14.5001 15.55C14.3042 15.8438 13.9378 15.9671 13.5818 16.0869C13.3925 16.1506 13.2063 16.2132 13.0501 16.3L13.0497 16.3001C11.7498 16.7501 10.45 17.2001 9.15009 17.75C6.00009 19.2 2.9001 20.9 0.350098 23.25C0.450098 24.25 2.3001 25.9 3.2001 26.25C6.8001 27.2 10.5501 27.2 14.2501 27.1C13.9168 28.2 13.5723 29.2944 13.2279 30.3889C12.539 32.5778 11.8501 34.7667 11.2501 37C11.2057 37.2 11.1563 37.4 11.1069 37.5999C10.9341 38.3 10.7612 39 10.8001 39.7ZM32.4044 33.3095C34.7009 35.0131 37.0256 36.7376 39.8001 37.45C42.0034 37.7927 38.1656 32.0465 37.5357 31.1034C37.5224 31.0834 37.5105 31.0656 37.5001 31.05C35.7501 28.55 33.9001 26 31.6501 23.9C31.7568 23.7918 31.864 23.6832 31.9717 23.5741C35.3938 20.1078 39.2153 16.2369 39.7001 11.05C39.7178 10.6261 39.7978 10.1896 39.8786 9.74952C40.0264 8.94392 40.1764 8.12606 39.9501 7.35002C39.7501 6.95002 39.4001 6.55002 39.0501 6.20002C37.6501 4.75002 37.0001 4.40002 35.1001 5.35002C32.0351 6.78362 29.3123 8.90149 26.6417 10.9788L26.5501 11.05C25.5501 11.6 28.5001 13.95 29.1001 14.3C29.1172 14.3086 29.1386 14.32 29.1632 14.3331C29.2826 14.3969 29.4757 14.5 29.6001 14.5C29.8175 14.3222 30.027 14.1365 30.2349 13.9523C30.5531 13.6704 30.8675 13.3919 31.2001 13.15C31.4838 12.9353 31.7675 12.7195 32.0516 12.5033C33.6198 11.31 35.1991 10.1083 36.8501 9.05002C36.9001 13.6 32.6001 18 29.3501 21.3C28.2612 22.1507 29.9051 23.4878 31.2555 24.5862C31.8893 25.1017 32.4584 25.5646 32.6501 25.9C33.0123 26.383 33.3865 26.8646 33.7623 27.3482C35.565 29.6682 37.4053 32.0365 38.1501 34.85C38.1932 35.4975 36.6712 34.7661 36.0291 34.4576C35.9275 34.4088 35.8479 34.3705 35.8001 34.35C34.024 33.5142 32.5208 32.3237 31.0197 31.1348C29.6471 30.0477 28.2763 28.962 26.7001 28.15C26.5501 28.05 26.0501 27.75 26.1501 28.15C26.9501 29.8 28.5501 30.8 30.1001 31.65C30.8755 32.1753 31.6384 32.7412 32.4044 33.3095Z" fill="black"/>
</svg>
