<svg width="26" height="72" viewBox="0 0 26 72" fill="none" xmlns="http://www.w3.org/2000/svg">
<path fill-rule="evenodd" clip-rule="evenodd" d="M14.6 71.7C9.24999 70.15 5.84999 65.45 2.49999 61.3C-3.05001 53.4 6.39997 45.75 10.2 39.4C7.74997 38.5 -1.25001 34.75 2.84999 31.55C7.04999 27.75 13.25 24.85 14.85 19.05C10.85 18.1 6.74998 16.2 4.14998 13C2.69998 10 6.64998 7.85 8.54998 6.15C11.55 4.2 14.5 1.55 18.1 0.75C19.95 1 21.55 2.15 23.1 3.1C23.55 3.3 26.8 5.7 25 5.5C22.05 5.65 12.1 12.4 10.95 15.25C10.65 15.55 14.1 16.25 14.6 16.7C16.75 17.9 19.95 19.05 20.5 21.7C20.8 26.7 7.19999 33.65 7.99999 36.25C10.6 36.8 18.15 39.5 15.65 43.05C10.7 49.85 2.94997 59.2 11.2 66.65C11.6 67.4 16.65 72.05 14.6 71.7Z" fill="black"/>
</svg>
