<svg width="23" height="33" viewBox="0 0 23 33" fill="none" xmlns="http://www.w3.org/2000/svg">
<path fill-rule="evenodd" clip-rule="evenodd" d="M16.6587 17.3058C14.1188 15.6782 12.8805 13.3435 12.2741 10.6291C11.1325 13.1431 8.79273 14.7539 5.74075 14.6253C6.60907 15.2988 7.43157 16.041 8.2303 16.7618L8.23071 16.7621C8.45547 16.965 8.67835 17.1661 8.89983 17.3635C10.3188 18.7164 11.7159 20.2218 12.6601 21.9515C13.5886 20.1049 14.9797 18.4748 16.6587 17.3058ZM11.5338 25.4067C10.9856 24.9299 10.4861 24.3875 10.0499 23.8135C9.73882 23.5025 9.74364 23.1124 9.74857 22.7136C9.74919 22.6637 9.74981 22.6136 9.74981 22.5635C9.74981 21.5635 9.64981 20.6135 9.24981 19.6635C8.29981 17.4635 5.24986 14.3635 2.79986 14.1635C2.48195 14.1181 0.514006 12.5052 0.830156 12.2846C0.648177 12.0707 0.207487 11.5052 0.499945 11.4635C4.69995 12.1635 8.54997 11.1135 9.89997 6.66346C10.4321 4.97852 10.2858 3.39188 10.1893 2.34379C10.0724 1.07569 10.0282 0.595973 11.346 1.68443C11.3243 1.32861 11.3082 0.971675 11.3 0.613419C11.65 0.163419 14 2.56342 13.8 3.01342H13.75C13.9 6.21342 14.45 9.41342 15 12.5634C15.0607 12.7152 15.1261 13.0008 15.2002 13.3248C15.3703 14.0679 15.5867 15.0134 15.9 15.0134C16.7329 15.1522 17.5658 15.0261 18.3819 14.9025C18.7417 14.848 19.0982 14.794 19.45 14.7634C19.892 14.8518 20.2168 15.1356 20.528 15.4075C20.5688 15.4432 20.6094 15.4786 20.65 15.5134C21 15.8134 22.8 17.4634 22.3 17.8134C22.2848 17.8177 22.2696 17.822 22.2543 17.8262C22.3531 17.9534 22.459 18.1635 22.2498 18.1635C19.9998 18.8135 18.2498 20.7135 16.9498 22.5635C15.2498 25.0635 14.3498 28.2135 14.8998 31.2135C14.8998 31.3023 14.9392 31.448 14.9817 31.6052C15.083 31.9794 15.2019 32.4191 14.8498 32.3135C13.5998 31.7135 12.2998 30.7635 11.6998 29.4635C11.3587 28.1275 11.3206 26.7511 11.5338 25.4067Z" fill="black"/>
</svg>
