<svg width="19" height="30" viewBox="0 0 19 30" fill="none" xmlns="http://www.w3.org/2000/svg">
<path fill-rule="evenodd" clip-rule="evenodd" d="M0.400146 14.7136C0.904049 15.8557 1.88193 16.9302 3.06084 17.5579C3.83179 18.2961 4.79058 18.8644 5.75069 19.4334C6.73223 20.0151 7.71515 20.5977 8.50012 21.3635C9.08867 22.559 9.0548 23.3485 9.02563 24.0283C8.99549 24.7311 8.97037 25.3166 9.64327 26.1119C10.0301 27.5054 11.0393 28.7372 12.95 29.6636C13.05 29.6969 13.1333 29.6969 13.2 29.6636C13.5 26.1636 14.25 20.5136 17.85 19.0636C18.264 19.0636 18.0288 18.6171 17.7518 18.2414C17.9989 18.2628 18.2485 18.2704 18.5001 18.2634C19.6001 18.0134 16.5001 15.3135 15.9501 15.0635C15.6236 14.9546 15.2117 14.9313 14.7929 14.9077C14.0572 14.8661 13.3006 14.8233 12.9501 14.3135C12.3155 12.9347 12.0256 11.4315 11.7369 9.93369C11.3659 8.00943 10.9966 6.09415 9.90011 4.46345L9.89017 4.44979C9.53673 3.00584 8.909 1.76801 7.3501 0.813573C6.23341 -0.0588387 6.55368 0.992805 6.84907 1.96273C6.97691 2.38252 7.1001 2.787 7.1001 3.01355C7.6001 5.56355 8.10012 8.31356 7.50012 10.8636C6.50012 14.0636 3.35015 15.4136 0.400146 14.7136ZM13.4422 16.3898C12.2534 15.4224 11.2716 14.1655 10.6079 12.8258C10.1471 15.4371 8.74022 17.6427 5.82748 18.0475C7.30571 19.0511 8.8297 20.2907 10.0541 21.6374C10.3979 20.6927 10.8667 19.7411 11.4 18.8136C12.0472 17.7286 12.7233 16.8683 13.4422 16.3898Z" fill="black"/>
</svg>
