<svg width="22" height="37" viewBox="0 0 22 37" fill="none" xmlns="http://www.w3.org/2000/svg">
<path fill-rule="evenodd" clip-rule="evenodd" d="M0.75 19.0397C1.15821 20.1158 2.0071 21.0543 2.9696 21.7528C3.31388 22.1867 3.91544 22.7077 4.09998 22.8395C12.0125 25.7323 11.9946 27.3864 11.9751 29.1888C11.9671 29.9199 11.959 30.6754 12.4797 31.5479C12.4679 31.7117 12.458 31.8756 12.45 32.0395C12.45 32.0952 12.4493 32.1516 12.4485 32.2086C12.443 32.6124 12.4371 33.0452 12.7 33.4395C13.4 34.4895 14.35 35.4895 15.55 36.0895C15.5704 36.0895 15.5909 36.0916 15.6109 36.0936C15.6888 36.1016 15.7602 36.1089 15.8 35.9895C15.7958 35.9476 15.7916 35.906 15.7875 35.8647C15.742 35.4136 15.7 34.9975 15.7 34.5395C15.7 34.4178 15.7006 34.2961 15.7018 34.1742C15.7592 33.6785 15.772 33.194 15.7441 32.7211C15.8252 31.0599 16.0207 29.3863 16.35 27.7395C16.75 26.0395 17.35 24.3395 18.05 22.7395C18.0872 22.6156 18.1458 22.4825 18.2062 22.3455C18.3895 21.9296 18.5885 21.478 18.25 21.1395C17.85 20.6395 17.3 20.0895 16.7 20.6395C15.15 22.0395 14.3 24.0895 13.6 26.0395C13.4819 26.3848 13.372 26.7351 13.2707 27.0894C11.3015 24.8182 8.4282 23.0784 5.64269 21.9717C8.62125 20.8394 10.0984 17.9532 10.5747 14.578C12.9152 18.0305 16.6857 20.7174 20.9 20.8895C21.9 20.6895 19.5 18.4395 19.05 18.0395C18.1785 16.9098 16.932 16.7177 15.6601 16.5217C14.9618 16.4141 14.2557 16.3053 13.6 16.0395C11.9032 14.045 11.5888 11.2707 11.2745 8.49737C11.0609 6.61256 10.8474 4.72822 10.2 3.08947C10.1037 2.73636 8.79149 1.41467 8.07599 1.01637C8.05077 0.973672 8.02544 0.931426 8 0.889639C6.53792 -0.608995 6.97303 0.831705 7.35192 2.08624C7.49132 2.5478 7.62311 2.98416 7.65 3.23968C7.82238 3.86976 7.96933 4.53801 8.08419 5.22988C8.15663 6.21875 8.23367 7.20585 8.35885 8.18178C8.44359 12.5841 7.0271 17.1187 2.65 18.5897C2.39361 18.7062 2.07203 18.7467 1.75111 18.7871C1.38358 18.8333 1.01692 18.8795 0.75 19.0397Z" fill="black"/>
</svg>
