<svg width="146" height="57" viewBox="0 0 146 57" fill="none" xmlns="http://www.w3.org/2000/svg">
<path fill-rule="evenodd" clip-rule="evenodd" d="M105.26 47.7748C107.61 50.4748 110.51 52.5748 113.76 53.9748C123.993 58.4453 135.311 55.7112 145.607 53.2239L145.81 53.1748C145.36 51.9748 144.16 51.0748 143.11 50.4248C142.487 50.1442 141.766 50.3691 141.057 50.5903C140.629 50.7238 140.206 50.856 139.81 50.8748C138.913 51.0819 138.016 51.2966 137.117 51.5116L137.116 51.5119L137.116 51.512C134.761 52.0754 132.399 52.6406 130.01 53.0748C122.11 54.4248 111.56 54.1248 106.06 47.4748C136.91 34.2748 114.66 17.4248 103.91 29.8748C100.86 34.1748 100.61 40.2248 103.16 44.8248C93.2103 48.9248 80.5603 52.3748 71.1104 45.4248C78.3604 43.7248 95.1103 34.8248 88.1603 25.7748C84.8103 21.8248 79.2604 19.1748 74.1104 20.9248C65.5603 23.6248 61.4604 35.3748 67.2104 42.4748C59.0104 44.7248 50.1104 44.5748 41.9604 42.3748C36.1104 41.0748 32.1104 36.2248 30.4104 30.6748C39.4104 28.3248 49.0604 22.6748 50.9104 12.8248C51.6604 9.77478 51.1604 6.37481 48.7604 4.22481C44.8604 -0.0751915 38.3104 -1.4752 33.5104 2.2748C26.1104 7.2748 24.2104 17.3248 25.9104 25.6248C26.1104 26.4915 26.3604 27.3581 26.6604 28.2248C26.8041 28.4404 26.3541 28.5268 25.9966 28.5955C25.8566 28.6225 25.7307 28.6466 25.6604 28.6748C18.4104 30.5748 10.5604 31.9248 3.21036 29.7748C2.92708 29.6155 2.65006 29.3495 2.36378 29.0747C1.84158 28.5734 1.28854 28.0425 0.610352 28.0748C4.51035 35.3748 21.1104 32.9748 27.9604 31.3248C35.5604 46.4748 55.1604 49.2748 70.2104 45.6748C79.7604 54.7748 94.1604 52.8248 105.26 47.7748ZM104.36 44.2749C101.86 37.7249 104.86 28.4749 112.51 27.3249C122.11 25.8749 121.16 32.8749 115.41 37.7249C112.16 40.5249 108.26 42.5249 104.36 44.2749ZM77.9604 22.925C70.0604 24.725 65.2104 34.725 68.6604 42.075C74.6604 40.1749 80.6104 37.075 84.6104 32.075C89.8104 25.875 84.7104 21.675 77.9604 22.925ZM29.6103 27.4749C28.0103 18.1249 31.6603 6.47483 41.5603 3.57483C43.1103 3.17483 44.9103 3.07484 46.4103 3.67484C48.5103 7.62484 46.7603 12.5248 44.8603 16.1748C41.5603 21.8248 35.6103 25.2749 29.6103 27.4749Z" fill="black"/>
</svg>
