<svg width="305" height="40" viewBox="0 0 305 40" fill="none" xmlns="http://www.w3.org/2000/svg">
<path fill-rule="evenodd" clip-rule="evenodd" d="M195.3 39.0095C188.25 38.4095 180.5 30.8095 186.5 24.1595C190.05 20.2095 195.6 19.1595 200.65 18.7595C193.646 2.35209 173.641 9.2129 160.607 13.6829C160.335 13.7762 160.066 13.8685 159.8 13.9595C155.874 15.1808 151.583 16.7206 147.08 18.3365L147.08 18.3365C130.933 24.1301 112.065 30.9 97.5999 27.4595C95.6772 26.8375 94.4427 26.3818 93.5787 26.0628C92.5488 25.6825 92.0453 25.4967 91.5301 25.4551C91.0373 25.4154 90.5339 25.5077 89.5489 25.6884C88.6083 25.8609 87.2286 26.114 84.9998 26.4095C78.5998 27.2595 72.0999 27.1095 65.6999 26.2595C57.3999 25.1095 49.3999 22.2595 41.6499 19.0595C40.8061 18.7182 39.9659 18.3625 39.1255 18.0068C35.534 16.4863 31.9397 14.9647 28.0499 14.5595C20.9999 14.0095 13.9998 16.6095 8.24985 20.5095C6.84985 21.5095 5.44986 22.5595 4.19986 23.7595C4.07595 23.8559 3.96721 23.9826 3.86111 24.1062C3.58187 24.4316 3.32091 24.7356 2.84988 24.4095C1.79988 23.9595 -0.100128 23.0095 0.149872 22.3595C2.04987 20.4095 4.29988 18.9095 6.59988 17.4595C12.1999 14.0595 18.8999 11.8095 25.5499 12.5095C30.3744 13.2287 34.8576 15.1331 39.344 17.039C42.3436 18.3131 45.3445 19.5879 48.4499 20.5095C60.9999 24.8595 74.6999 25.7095 87.6499 22.7595C73.5999 13.9095 87.5999 -1.74047 100.2 0.459533C108.2 2.20953 113.8 8.80951 108.55 16.5595C105.65 20.8095 100.6 22.7595 95.8999 24.2095C95.6756 24.2958 95.2966 24.388 94.9353 24.4759C94.2495 24.6427 93.6276 24.794 94.2498 24.8595C96.5498 25.4595 98.8999 25.7595 101.3 25.8595C107.35 26.1095 113.35 24.8595 119.25 23.3595C129.078 20.7925 138.664 17.4187 148.244 14.0467C151.726 12.8211 155.208 11.5958 158.7 10.4095C175.6 4.30955 191.85 1.85955 203.4 18.6595C213.749 18.1962 223.501 21.6395 233.164 25.0511C236.012 26.057 238.854 27.0601 241.7 27.9595C262.1 35.0095 282.85 32.3095 299.8 18.6095C300.558 17.6281 301.516 18.2387 302.352 18.7723C302.453 18.8368 302.553 18.9002 302.65 18.9595C302.789 19.0707 302.983 19.2009 303.196 19.3441C304.135 19.9738 305.453 20.8578 304.15 21.5095C287.15 35.8095 265.05 37.7095 244.5 30.4595C241.797 29.5795 239.094 28.605 236.381 27.6272L236.381 27.6272C226.15 23.9386 215.787 20.2029 204.8 21.3095C208.95 29.7095 205.6 39.0595 195.3 39.0095ZM191.35 36.2096C199.6 36.5596 204.5 29.2096 201.75 21.6096C195.95 22.3596 188.5 25.8596 188.75 32.6596C188.85 34.2596 189.35 36.4096 191.35 36.2096ZM88.9001 22.4596C80.7001 15.4596 90.3 4.55959 98.5001 3.25959C100.6 2.85959 102.85 2.75962 104.9 3.40962C107.3 6.40962 106.3 10.8596 104.35 13.9096C100.85 18.9596 94.5501 20.9096 88.9001 22.4596Z" fill="black"/>
</svg>
