<svg width="156" height="40" viewBox="0 0 156 40" fill="none" xmlns="http://www.w3.org/2000/svg">
<path fill-rule="evenodd" clip-rule="evenodd" d="M112.857 34.8706C115.207 37.1706 118.157 39.3706 121.607 39.5706C130.307 39.4706 128.457 28.2706 125.807 22.8706C124.907 20.8706 123.957 18.9206 122.807 17.0706C123.059 16.6932 123.646 16.3356 124.222 15.9854C124.562 15.7787 124.897 15.5747 125.157 15.3706C133.406 10.1341 143.243 9.1066 152.799 8.10853C153.554 8.02971 154.307 7.95107 155.057 7.87056C156.071 7.96276 155.47 7.28994 155.096 6.8709C155.064 6.83544 155.034 6.8018 155.007 6.77059C153.045 4.32848 151.02 4.64313 148.596 5.01956C147.993 5.11326 147.365 5.21079 146.707 5.27059C137.507 6.12059 128.057 8.17057 120.507 13.8206C100.243 -10.4668 89.2727 2.75407 78.6286 15.582C71.2822 24.4356 64.0911 33.1019 54.107 29.1206C51.1186 27.1759 48.3632 24.7814 45.6163 22.3944C38.7581 16.4346 31.9532 10.521 21.707 11.7706C15.657 12.5706 9.75704 14.9206 4.80704 18.5206C4.66691 18.6392 4.51232 18.7675 4.34728 18.9046C2.21567 20.6749 -1.65941 23.893 1.35704 26.1206C2.15704 26.8706 3.00704 27.5706 3.95704 28.1206C4.10704 28.2206 5.20704 28.9205 5.25704 28.4205C5.05704 27.9706 5.20704 27.5206 5.40704 27.0706C10.857 18.6206 27.907 12.3206 37.207 17.3206C40.7035 19.1509 43.6163 21.8293 46.5294 24.508C49.8233 27.5369 53.1178 30.5663 57.257 32.3706C68.2729 37.037 75.602 27.7462 82.1989 19.3834C84.2255 16.8144 86.183 14.3329 88.157 12.3706C99.357 0.0205604 110.157 0.420597 119.207 14.7206C113.357 19.0706 106.057 28.2206 112.857 34.8706ZM120.857 18.4707C97.707 38.7207 134.707 46.3207 121.157 18.2207C121.057 18.2874 120.957 18.3707 120.857 18.4707Z" fill="black"/>
</svg>
