<svg width="155" height="59" viewBox="0 0 155 59" fill="none" xmlns="http://www.w3.org/2000/svg">
<path fill-rule="evenodd" clip-rule="evenodd" d="M108.988 4.16683C119.788 5.26683 130.588 6.01683 141.388 6.51683H141.538C141.638 6.51683 141.688 6.51685 141.688 6.46685C141.038 5.51685 139.738 4.66684 138.538 4.61684C135.246 4.33668 131.943 4.13282 128.64 3.92893C124.868 3.69616 121.096 3.46333 117.338 3.11684C81.093 -0.669943 44.5578 0.864142 8.2082 2.39044L6.38788 2.46685C6.03788 2.46685 5.6879 2.46683 5.2879 2.41683C5.15457 2.41683 5.02124 2.41127 4.8879 2.40572C4.62123 2.3946 4.35456 2.38349 4.08789 2.41683C4.68789 3.21683 5.73788 3.91683 6.73788 4.01683C15.453 3.95912 24.1681 3.67933 32.8804 3.39963C46.8107 2.95241 60.7337 2.50543 74.6379 2.96685C79.3027 3.17055 83.9676 3.28296 88.6324 3.39537C95.4176 3.55888 102.203 3.72238 108.988 4.16683ZM0.888161 32.5669C1.08816 26.9669 1.18818 21.3669 1.18818 15.7669C1.18818 14.5798 1.18259 13.3983 1.17702 12.2206C1.16592 9.87619 1.1549 7.54653 1.18818 5.21688C1.78818 4.91688 4.28817 6.81687 4.08817 7.61687C4.06218 13.6219 4.30649 19.9378 4.54707 26.157C4.76921 31.8997 4.98817 37.56 4.98817 42.8169C0.511607 41.0182 0.635969 38.6765 0.814949 35.3062C0.859866 34.4604 0.908222 33.5499 0.888161 32.5669ZM101.738 48.3669C102.688 44.7169 105.388 39.7669 109.788 40.4669C118.688 44.0169 121.338 55.4669 109.538 56.6669C105.988 56.2669 101.288 52.2169 101.738 48.3669ZM20.2879 49.4669C19.6879 53.8669 26.5379 58.5168 30.4379 58.8168H30.6379C34.9879 58.8168 37.7379 53.8668 36.0379 50.0168C34.3379 46.2168 30.1879 42.7668 26.3879 41.2668C22.8374 41.3545 21.631 45.2081 20.6799 48.246C20.5461 48.6734 20.4174 49.0846 20.2879 49.4669ZM6.88797 52.5668C4.43797 51.4668 1.08799 49.5668 1.18799 46.5668C0.98799 45.3668 1.63797 45.6168 2.38797 46.0668C5.05254 47.7295 5.40878 48.6016 5.58765 49.0394C5.63313 49.1507 5.66714 49.234 5.7247 49.295C5.89545 49.4761 6.27344 49.4618 7.77274 49.4049C8.4431 49.3795 9.33762 49.3456 10.538 49.3168C11.838 49.8668 14.138 51.2668 14.438 52.6668C13.8259 52.6879 13.2048 52.7358 12.5787 52.784L12.5784 52.784H12.5783H12.5783H12.5783H12.5782H12.5782H12.5782H12.5781H12.5781H12.5781H12.578H12.578H12.5779H12.5779C11.721 52.8501 10.8545 52.9168 9.98798 52.9168C8.93798 52.9168 7.88797 52.8168 6.88797 52.5668ZM41.7383 48.6169C42.5383 50.1669 44.3883 51.6169 46.0883 51.9669H48.5383C55.0583 51.9669 61.535 51.3813 68.0111 50.7958C71.3683 50.4923 74.7254 50.1888 78.0883 49.9669C81.9081 49.6599 85.7047 50.0044 89.5098 50.3496L89.5099 50.3496L89.51 50.3496C91.2832 50.5105 93.0582 50.6715 94.8383 50.7669C95.8383 50.5169 92.4883 47.9669 91.7383 47.9669C90.1575 47.8429 88.5719 47.6708 86.9829 47.4984L86.9816 47.4983L86.9815 47.4982L86.9813 47.4982L86.9812 47.4982L86.981 47.4982L86.9808 47.4982L86.9807 47.4982L86.9805 47.4982L86.9804 47.4982L86.9802 47.4981L86.98 47.4981L86.9799 47.4981C83.4436 47.1144 79.891 46.7289 76.3383 46.8669C72.3471 46.9227 68.387 47.2745 64.4233 47.6267L64.4232 47.6267H64.4232H64.4231H64.4231H64.4231H64.423H64.423H64.423H64.4229H64.4229H64.4229H64.4228H64.4228C61.286 47.9054 58.1469 48.1843 54.9883 48.3169C52.0919 48.5499 49.0625 48.5613 46.1067 48.5724C44.6233 48.5779 43.1585 48.5835 41.7383 48.6169ZM120.388 49.0668C121.388 48.9668 122.438 48.9668 123.437 48.9668H123.438C124.288 48.9668 125.088 48.9668 125.888 48.9168C126.777 48.8268 128.402 48.7773 130.4 48.7165H130.4C137.28 48.507 148.574 48.163 149.388 45.5668C149.76 44.5742 150.988 45.7369 151.712 46.4231C151.864 46.5665 151.993 46.6891 152.088 46.7668C152.592 47.1931 152.165 47.7395 151.807 48.1965L151.807 48.1967L151.807 48.1975L151.806 48.1978C151.703 48.33 151.605 48.4547 151.538 48.5668C150.065 49.6538 148.15 49.8064 146.275 49.9557C145.476 50.0194 144.685 50.0824 143.938 50.2168C136.888 50.7668 129.788 50.8668 122.738 50.8668C121.788 50.7168 120.838 49.8668 120.388 49.0668ZM35.5892 14.8219C35.4324 19.8036 35.2589 25.3147 40.8383 27.2168C41.6883 27.4668 42.5883 27.5168 43.4883 27.5168C44.7333 27.5168 46.005 27.3827 47.2447 27.2521L47.2447 27.252C47.6978 27.2043 48.1467 27.157 48.5883 27.1168L48.7412 27.0968C50.6146 26.852 52.8937 26.5542 53.0883 24.2668C53.394 22.433 53.2326 20.57 53.0725 18.7224V18.7224L53.0725 18.7222L53.0724 18.7221L53.0724 18.7219L53.0724 18.7218L53.0724 18.7217L53.0724 18.7215L53.0724 18.7214L53.0724 18.7213L53.0724 18.7212L53.0723 18.721C53.023 18.151 52.9737 17.5825 52.9383 17.0168C53.0383 15.1168 52.2383 13.7668 50.6383 12.8168C50.2883 12.5668 49.6883 12.3168 49.8883 13.0168C50.9654 24.522 50.9399 24.522 39.9076 24.517L39.1883 24.5168C38.894 22.6331 38.9462 20.6974 38.9981 18.7709C39.0344 17.4248 39.0706 16.0831 38.9883 14.7668C38.4383 13.9668 36.5883 11.8668 35.6383 12.1668C35.6461 13.017 35.6179 13.9103 35.5892 14.8212V14.8213V14.8214V14.8214V14.8215V14.8216V14.8216V14.8217V14.8218V14.8218V14.8219ZM67.188 25.8669C62.0665 23.9778 62.2318 19.1282 62.3871 14.573L62.3871 14.5727C62.4167 13.7025 62.446 12.8429 62.438 12.0168C63.438 12.2168 64.838 13.7169 65.188 14.7169C65.2046 15.6642 65.1936 16.6171 65.1824 17.5719V17.5725V17.5731V17.5738V17.5744V17.5751V17.5757V17.5764V17.577V17.5776C65.1602 19.4932 65.1379 21.4161 65.338 23.3168C67.0713 23.6835 68.8491 23.5168 70.6269 23.3502C71.5158 23.2668 72.4047 23.1835 73.288 23.1668C73.5879 23.1169 73.8878 23.1169 74.2377 23.1169H74.238C74.888 23.1669 75.488 23.1669 75.888 22.7169C76.2305 20.8899 76.0515 19.0303 75.8721 17.166C75.7373 15.765 75.6022 14.3613 75.688 12.9669C75.388 11.2669 77.388 13.5169 77.738 13.9669C78.2739 14.6604 78.2334 15.5528 78.193 16.4434C78.1693 16.9653 78.1456 17.4865 78.238 17.9669C78.2 18.8581 78.2988 19.7709 78.3978 20.6862C78.5598 22.1844 78.7225 23.6891 78.288 25.1169C77.7857 25.6506 77.0074 25.652 76.2378 25.6535C75.7817 25.6544 75.3287 25.6552 74.938 25.7668C74.2325 25.8083 73.5184 25.8929 72.8028 25.9776C71.7941 26.0971 70.7825 26.2169 69.788 26.2169C68.938 26.2169 68.038 26.1169 67.188 25.8669ZM89.338 33.9669C89.538 36.0669 89.538 38.1668 89.538 40.3168C89.338 41.4668 90.438 42.3168 91.338 42.8168C91.9145 40.169 91.3876 35.3416 90.8439 30.3599C90.1144 23.6767 89.3546 16.7159 91.188 14.3669C92.7012 12.8049 94.8815 13.0537 97.0312 13.299L97.188 13.3168C98.138 13.4668 99.038 13.5668 99.888 13.5168C101.486 13.6666 103.183 13.6793 104.856 13.6918C106.534 13.7043 108.186 13.7167 109.688 13.8669C109.438 19.1169 109.138 24.3168 108.638 29.5168C108.638 29.9839 108.581 30.4751 108.523 30.9682C108.346 32.4811 108.167 34.0118 109.638 34.9168C109.67 34.9409 109.715 34.979 109.768 35.0239C110.044 35.2591 110.538 35.6787 110.538 35.2169C110.616 34.0635 110.696 32.9117 110.775 31.7609L110.775 31.758L110.775 31.7546L110.776 31.752L110.776 31.7502L110.776 31.7493L110.776 31.7484L110.776 31.7475V31.7474V31.7473V31.7472V31.7471V31.7471V31.747V31.747V31.7469C111.155 26.2668 111.532 20.8088 111.738 15.3168C112.088 13.4668 110.088 11.7168 108.338 11.8168C103.688 11.7668 99.088 11.7168 94.488 11.3168C87.3022 9.9788 87.7789 16.1067 88.1773 21.2297L88.188 21.3669C88.2926 23.5635 88.534 25.7464 88.7762 27.9371V27.9372V27.9373V27.9374V27.9374V27.9375V27.9376L88.7762 27.9377C88.9971 29.9355 89.2187 31.9398 89.338 33.9669ZM98.3382 26.5669C98.3146 25.6461 98.2129 24.6919 98.1122 23.7464C97.9996 22.6894 97.8882 21.6433 97.8882 20.6669C98.5882 20.8669 99.1382 21.5169 99.5882 22.0669C100.046 23.5371 100.14 25.1567 100.234 26.7723V26.7725C100.284 27.6294 100.334 28.4851 100.438 29.3169C100.438 30.1414 100.557 31.0594 100.676 31.9763C100.845 33.2835 101.015 34.5883 100.838 35.6169C98.4299 34.4836 98.4549 31.9204 98.479 29.4555C98.4889 28.4404 98.4986 27.4419 98.3382 26.5669ZM23.8108 38.5034H23.8106C19.3918 38.5852 14.9398 38.6677 10.4878 39.0168C9.93781 39.0668 11.3378 40.5169 11.9378 40.7169C19.7882 40.3095 27.6522 40.1079 35.5148 39.9063H35.5148C48.8852 39.5634 62.2512 39.2207 75.5378 37.8669C76.1137 37.7765 76.7023 37.7397 77.2265 37.707C79.0235 37.5947 80.0635 37.5297 77.2378 35.5168C62.1049 37.0213 46.8938 37.6251 31.6736 38.2293H31.6735H31.6735H31.6734H31.6734H31.6733L31.6731 38.2293L31.6664 38.2295C29.6903 38.308 27.7141 38.3864 25.7378 38.4669C25.0963 38.4796 24.4539 38.4915 23.8108 38.5034ZM113.288 37.0168C115.488 36.7668 117.738 36.7668 119.938 36.7668C121.144 36.7668 122.351 36.7542 123.551 36.7416H123.551H123.551H123.551H123.551H123.551C124.738 36.7292 125.919 36.7168 127.088 36.7168C132.338 36.6168 137.538 36.5668 142.738 36.8668C143.538 37.3168 144.538 38.1168 144.738 39.0168C144.606 39.0498 144.453 39.0393 144.292 39.0283C144.209 39.0226 144.123 39.0168 144.038 39.0168C143.838 38.9835 143.638 38.9668 143.438 38.9668C134.038 38.8168 124.638 38.7168 115.238 39.2668C114.688 38.9668 112.938 37.5668 113.288 37.0168ZM151.888 37.8669C152.138 35.5669 152.088 33.2169 151.788 30.9169C150.888 23.0669 149.438 15.1669 146.138 7.96687C146.097 7.82991 145.951 7.56164 145.788 7.26277C145.357 6.47057 144.808 5.46339 145.788 6.11686C150.738 9.51686 156.188 34.6169 154.388 40.1669C153.388 39.6669 152.338 38.8669 151.888 37.8669ZM122.037 27.4579C122.121 27.4608 122.205 27.4637 122.288 27.4668C123.638 27.6168 125.038 27.7168 126.388 27.7168C127.838 27.7168 129.788 27.7168 130.488 26.1668C131.148 24.1154 131.002 21.9028 130.857 19.7063V19.7061V19.706C130.804 18.9046 130.752 18.1053 130.738 17.3168C130.638 16.1668 130.638 14.9668 130.688 13.8168C130.838 13.3168 130.488 12.9168 130.088 12.6168C129.938 12.4668 128.738 11.4168 128.788 12.0168C128.55 13.5082 128.675 15.316 128.802 17.1538C128.995 19.9371 129.192 22.7895 128.138 24.7168C126.944 26.1809 123.671 25.7746 121.18 25.4653C120.439 25.3733 119.766 25.2898 119.238 25.2668C119.138 25.2467 119.021 25.2428 118.901 25.2387C118.723 25.2328 118.538 25.2266 118.388 25.1668C118.338 25.1168 118.338 24.8668 118.338 24.8168C118.172 22.6186 118.227 20.3983 118.283 18.1705C118.31 17.0539 118.338 15.9353 118.338 14.8168C118.338 14.5983 118.344 14.3797 118.35 14.1631C118.361 13.7354 118.371 13.3151 118.338 12.9168C117.688 11.9168 116.588 11.1668 115.538 10.7168C115.338 10.6168 115.088 10.5668 115.188 10.8668C115.213 12.3415 115.201 13.8162 115.188 15.2909V15.2918V15.2927C115.176 16.7674 115.163 18.2421 115.188 19.7168C115.088 22.8668 115.388 24.9168 118.338 26.6168C119.417 27.3673 120.76 27.4138 122.037 27.4579ZM135.337 15.0998V15.0996C135.333 14.1663 135.329 13.2361 135.288 12.3168C135.288 11.5501 135.255 10.8001 135.188 10.0668C135.106 9.57546 135.762 9.98945 136.112 10.2104C136.189 10.2593 136.252 10.2987 136.288 10.3168C136.381 10.3977 136.486 10.4759 136.594 10.5558L136.595 10.5559C136.954 10.8216 137.338 11.1056 137.338 11.5668C137.471 12.7668 137.571 13.9502 137.638 15.1168C137.684 15.6018 137.727 16.0927 137.769 16.5873C138.095 20.376 138.438 24.3767 140.738 27.5168C141.005 28.0126 141.534 28.1302 142.058 28.2469C142.221 28.2832 142.384 28.3194 142.538 28.3668C143.775 28.686 145.076 28.7505 146.364 28.8144C146.69 28.8305 147.015 28.8466 147.338 28.8668C148.123 29.112 148.763 29.6458 149.354 30.138L149.388 30.1668C149.423 30.2109 149.487 30.2752 149.561 30.3504C149.906 30.7016 150.485 31.2904 149.538 31.1668H148.788C143.338 31.1668 137.738 27.9668 136.088 22.5668C135.359 20.1591 135.348 17.6183 135.337 15.0998ZM8.53792 21.1668C8.18792 23.8168 10.0879 25.9169 12.2379 27.2169C13.0379 27.6169 13.9379 27.7169 14.8379 27.7169C15.3239 27.7169 15.8098 27.6749 16.3094 27.6317C16.5808 27.6082 16.8563 27.5844 17.1379 27.5668C17.9879 27.4668 18.8879 27.3669 19.7879 27.3669C20.4791 27.2187 21.4628 27.2656 22.4983 27.3149L22.5379 27.3168C22.613 27.3188 22.6883 27.3209 22.7638 27.3229C24.598 27.3729 26.5195 27.4253 27.2879 26.4168C28.8379 23.0668 28.4879 19.0169 27.9379 15.4669C27.7379 13.9169 26.2879 12.6669 24.9379 12.1169C24.95 12.2239 24.9622 12.3316 24.9745 12.4399C25.3175 15.4652 25.7103 18.9291 24.9379 22.0668C24.6879 24.0168 23.5379 24.5668 21.7379 24.3168C18.5879 24.2668 15.4879 24.3168 12.3379 24.5168C12.0379 24.5168 11.9879 24.5168 12.0379 24.2668C12.1011 22.4027 12.2641 20.5386 12.426 18.6871C12.5204 17.6086 12.6143 16.5343 12.6879 15.4669C12.9879 13.5669 10.7379 11.9668 9.2379 11.2668C8.7879 14.4168 8.63792 17.9168 8.53792 21.1668Z" fill="black"/>
</svg>
