<svg width="176" height="218" viewBox="0 0 176 218" fill="none" xmlns="http://www.w3.org/2000/svg">
<path fill-rule="evenodd" clip-rule="evenodd" d="M22.1479 51.6706C21.0679 51.1306 19.6279 50.2756 19.7179 48.8806C19.8529 43.9306 21.8329 39.2956 23.8129 34.8406C27.7279 26.2456 33.9829 18.7756 41.5429 13.1056C56.6629 1.18064 77.4979 -2.28436 96.1279 1.40564C107.873 4.73564 118.673 11.6656 127.358 20.2156C135.053 27.7306 138.158 36.8206 138.113 47.2606C133.414 45.4438 132.689 41.4562 131.781 36.4671C130.733 30.7053 129.442 23.6078 121.508 16.9756C106.838 5.23063 92.7979 3.43064 74.6629 6.04064C50.5429 9.46064 28.8079 28.4956 22.1479 51.6706ZM47.0779 45.2807C44.1529 45.0107 41.5879 43.0307 40.0129 40.6457C39.1938 38.7687 39.41 36.6848 39.6212 34.6489C39.6885 34.0002 39.7552 33.3564 39.7879 32.7257C39.8325 32.4132 39.8523 32.1415 39.8688 31.9158L39.8688 31.9157C39.9354 31.0037 39.9472 30.8428 41.3179 31.7807C41.8129 32.1407 44.6029 34.3457 43.9279 34.8857C43.4779 37.2257 43.2529 39.6107 43.2529 41.9957C48.4704 42.239 53.6879 41.7514 58.8956 41.2648L58.8957 41.2648C62.3567 40.9414 65.8134 40.6185 69.2629 40.5107C71.9119 40.3237 74.5556 40.1798 77.1957 40.0362C82.1798 39.7651 87.1513 39.4946 92.1229 38.9357C92.9534 38.8477 93.7817 38.7534 94.6094 38.6592C97.5936 38.3195 100.568 37.9809 103.598 37.9457C104.039 37.9246 104.488 37.9208 104.94 37.9169H104.94C106.422 37.9043 107.933 37.8914 109.313 37.2707C111.923 36.2357 110.123 25.4357 108.773 23.7257C104.853 22.2973 100.664 22.1195 96.5122 21.9433C95.0397 21.8808 93.572 21.8185 92.1229 21.7007C84.4729 21.3407 76.7779 21.2057 69.1729 22.0157C67.5515 22.1778 65.9302 22.3638 64.3149 22.549L64.3145 22.5491L64.3144 22.5491C62.7917 22.7238 61.2745 22.8978 59.7679 23.0507C57.9229 23.3657 57.4279 23.2307 56.0329 21.9257C55.919 21.8014 55.7837 21.6724 55.6433 21.5387C55.1738 21.091 54.6482 20.59 54.6829 20.0357C55.3327 19.9057 55.9975 19.8358 56.6687 19.7653L56.6688 19.7653L56.6688 19.7653L56.6688 19.7652L56.6689 19.7652L56.6689 19.7652L56.6689 19.7652L56.669 19.7652L56.669 19.7652L56.669 19.7652L56.6691 19.7652L56.6691 19.7652L56.6691 19.7652L56.6692 19.7652L56.6692 19.7652L56.6692 19.7652L56.6693 19.7652L56.6694 19.7652L56.6695 19.7651L56.6696 19.7651L56.67 19.7651C57.1604 19.7135 57.6541 19.6616 58.1479 19.5857C70.8829 17.7857 83.7979 17.9657 96.5779 19.0007L96.9572 19.0343C101.401 19.4279 106.258 19.858 109.583 23.0957C111.653 24.7607 112.958 27.1457 113.408 29.7557C113.948 32.5907 114.443 35.5607 114.038 38.4857C113.807 41.2566 110.943 41.3615 108.627 41.4464H108.627H108.627H108.627C108.234 41.4608 107.858 41.4746 107.513 41.5007C104.993 41.5907 102.473 41.8156 99.9532 42.0406L99.9532 42.0406L99.9529 42.0407C93.3032 42.799 86.6157 43.1414 79.915 43.4845C76.2769 43.6708 72.6349 43.8573 68.9929 44.1107C66.1043 44.1998 63.2086 44.4515 60.3114 44.7033C55.897 45.0869 51.4793 45.4709 47.0779 45.2807ZM65.21 81.2547L65.2094 81.2547C58.5963 81.0396 51.4176 80.8061 45.6379 77.5907C38.5279 73.4507 33.2179 66.9707 28.3129 60.4907C27.0529 58.9607 28.9429 59.9057 29.5729 60.4007C30.9452 61.3262 31.9554 62.6138 32.9726 63.9105C33.3897 64.4421 33.808 64.9753 34.2529 65.4857C34.5976 65.8936 34.9416 66.3074 35.2873 66.7232C37.6485 69.5636 40.0848 72.4942 43.3429 74.2607C45.7076 75.2854 48.2795 75.5507 50.8167 75.8124L50.8186 75.8126C51.1776 75.8496 51.5359 75.8866 51.8929 75.9257C58.7498 76.5459 65.6332 76.2163 72.5227 75.8864C74.6307 75.7854 76.7393 75.6845 78.8479 75.6107C82.6269 75.416 86.4118 75.274 90.1983 75.1319H90.1985H90.1986H90.1987H90.1989H90.199H90.1991H90.1993H90.1994H90.1996H90.1997H90.1998H90.2H90.2001H90.2002H90.2004C96.9189 74.8798 103.643 74.6275 110.348 74.0807C111.213 73.9653 112.109 73.9002 113.012 73.8345L113.012 73.8345C115.629 73.6442 118.31 73.4493 120.518 72.0107C123.085 69.8931 123.936 66.5632 124.767 63.3093C125.102 61.9994 125.434 60.7018 125.873 59.5007C126.113 58.7507 126.323 58.0007 126.503 57.2507C126.512 57.2225 126.52 57.1943 126.527 57.1674C126.554 57.0652 126.576 56.9807 126.683 56.9807C128.078 57.2957 130.328 59.2756 130.778 60.5357C130.666 61.0277 130.554 61.5308 130.442 62.034L130.44 62.0432L130.438 62.0528C130.326 62.5558 130.215 63.0588 130.103 63.5507C129.857 64.4506 129.64 65.4424 129.415 66.4721C128.573 70.3336 127.614 74.7296 124.523 76.8256C122.287 78.0516 119.734 78.4397 117.21 78.8233C116.584 78.9185 115.96 79.0133 115.343 79.1207C99.3679 80.8307 83.3029 81.1907 67.2829 81.3256C66.6029 81.3 65.9143 81.2776 65.2195 81.255L65.2172 81.2549L65.215 81.2549L65.2132 81.2548L65.2117 81.2547L65.2106 81.2547L65.21 81.2547ZM30.6529 56.5307C29.6179 56.5757 32.6329 59.2757 33.6229 59.4557C33.7129 59.5007 33.8029 59.5007 33.8479 59.4107C50.2599 56.783 66.9606 56.1346 83.5158 55.4919L83.5181 55.4918C84.2567 55.4632 84.9949 55.4345 85.7329 55.4057C91.1518 55.273 96.5708 55.3319 101.99 55.3907C109.441 55.4716 116.892 55.5525 124.343 55.1357C124.706 55.1054 125.074 55.0853 125.444 55.0651H125.444C126.175 55.0253 126.911 54.9851 127.628 54.8657C127.628 53.9207 125.243 52.0307 124.163 51.6707C118.241 51.7803 112.314 51.8399 106.386 51.8995C83.1201 52.1332 59.8322 52.3672 36.7729 55.6307C36.0342 55.7292 35.2956 55.8696 34.5547 56.0104C33.2646 56.2556 31.9678 56.5021 30.6529 56.5307ZM15.5779 96.6707C18.0529 99.0557 21.3829 99.9557 24.7129 100.091C28.7179 100.226 33.0379 100.226 36.6379 98.2907C38.7529 97.2107 41.0929 95.4107 40.5529 92.7557C40.0129 90.3257 38.7979 87.6707 36.5479 86.4107C36.3229 86.2307 35.8279 86.0957 36.0979 86.5457C37.4929 88.7057 38.9779 92.1707 36.2329 93.9257C33.0829 96.2207 29.1229 97.1207 25.2529 97.1657L24.8592 97.1722C22.1968 97.2171 19.5031 97.2626 16.9729 96.4907C16.5679 96.1757 16.5679 95.3657 16.5679 94.8257C16.6579 93.5207 17.5129 92.4857 18.3679 91.5407C20.4379 89.0207 23.6779 87.7157 26.9179 87.8957C27.6972 87.8668 28.4395 88.0601 29.1685 88.2499C29.5761 88.3561 29.9795 88.4611 30.3829 88.5257C30.2671 87.7541 29.1923 87.0487 28.4342 86.5512C28.308 86.4684 28.1906 86.3913 28.0879 86.3207C24.6229 84.4307 19.9429 84.0257 16.6129 86.5007C14.8129 87.9857 12.9679 90.1457 13.1479 92.6207C13.2829 94.2857 14.3629 95.6357 15.5779 96.6707ZM137.708 98.6506C133.208 98.5606 128.573 97.4807 125.333 94.1957C124.073 93.0707 122.768 91.5856 122.678 89.7856C122.678 85.8706 126.818 83.8007 129.968 82.4057C134.063 80.5157 139.418 80.6506 142.388 84.4757C143.339 85.7836 142.196 85.1367 141.51 84.7486L141.509 84.7483C141.417 84.6959 141.332 84.6482 141.263 84.6106C139.283 83.8006 136.988 84.1606 134.963 84.8356C131.273 86.2306 125.468 89.0657 126.728 93.8807C132.038 96.0857 145.178 96.5806 147.338 89.7856C147.923 88.3006 147.248 86.8157 146.303 85.6457C144.593 83.5757 147.383 85.3757 147.878 86.0057C151.298 89.4707 152.513 92.8906 148.283 96.3106C145.223 98.3356 141.308 98.6506 137.708 98.6506ZM73.8977 101.576C71.0177 101.576 68.2277 100.091 66.4727 97.7507C65.5158 96.1876 65.8929 93.5844 66.2257 91.2875C66.3624 90.3441 66.4916 89.4524 66.5178 88.7057C66.5413 88.6115 66.5279 88.5051 66.5162 88.4121C66.5055 88.3273 66.4963 88.2536 66.5178 88.2106C67.0128 87.8056 70.8827 91.0007 69.7127 91.0007C68.9027 93.3856 68.8578 96.1757 69.0828 98.6957C70.9762 99.1014 72.9712 99.0499 74.9342 98.9991C75.5838 98.9823 76.23 98.9657 76.8678 98.9657C81.8178 98.6957 86.7677 98.3357 91.6727 97.8407C91.8865 97.8091 92.1011 97.7779 92.3162 97.7465C94.8643 97.3752 97.4975 96.9916 99.8627 95.9957C100.73 95.2069 100.803 93.9689 100.868 92.8571C100.878 92.7002 100.887 92.5459 100.898 92.3957C100.943 91.5407 100.898 90.6406 100.763 89.7856C99.7944 89.5656 98.7399 89.5177 97.7677 89.4736H97.7677L97.7028 89.4707C93.2928 89.4257 88.8828 89.6507 84.5178 89.9657C82.1778 90.1907 79.8827 90.4156 77.5877 90.6856C76.3727 90.3256 74.4378 88.6607 74.0328 87.4907C74.0328 87.3557 74.2128 87.3557 74.3027 87.3557C76.4178 87.1307 78.5778 86.9057 80.6928 86.7257C85.9128 86.5007 91.2228 86.2757 96.4428 86.9957C99.6828 87.4007 103.463 89.5157 103.418 93.2057C103.427 93.5696 103.458 93.9574 103.49 94.3561C103.617 95.9295 103.757 97.6727 102.608 98.7856C99.7026 99.9135 96.5637 100.133 93.4475 100.351H93.4474H93.4473C92.4608 100.419 91.4766 100.488 90.5028 100.586C88.7623 100.699 87.0264 100.861 85.2907 101.023H85.2905H85.2904H85.2903H85.2902H85.2901H85.29H85.2899H85.2897H85.2896H85.2895H85.2894H85.2893H85.2892C81.5053 101.377 77.7227 101.73 73.8977 101.576ZM72.2328 95.0956C72.5028 95.7256 73.2228 96.2206 73.8528 96.4906C74.1821 96.3259 74.4987 96.1599 74.8062 95.9987C77.0196 94.8382 78.76 93.9256 81.3678 95.5456C82.6728 96.2206 84.2028 95.9056 85.5078 95.3656C85.948 95.1979 86.3931 94.9936 86.8437 94.7868C88.3275 94.1056 89.8704 93.3973 91.4928 93.8806C91.8306 94.0188 92.1527 94.1884 92.4734 94.3573C93.0925 94.6834 93.7063 95.0067 94.4178 95.0956C95.1378 95.1406 95.8578 95.0956 96.5328 94.9606C96.6228 94.8706 96.5328 94.7356 96.4878 94.6906C95.9478 94.0156 94.9128 92.9356 94.0128 92.8906C92.7528 93.1156 91.4928 93.1606 90.3678 92.4856C88.3531 91.5097 86.3824 92.3396 84.4403 93.1575L84.4402 93.1576C83.6062 93.5088 82.7775 93.8578 81.9528 94.0606C80.7932 94.4042 79.8898 94.01 78.9541 93.6017C77.9289 93.1543 76.865 92.6901 75.3828 93.1606C74.2128 93.5206 72.9978 94.1056 72.2328 95.0956ZM67.3948 129.723C68.2596 129.758 69.1228 129.794 69.9828 129.836C71.833 129.781 73.6832 129.731 75.5332 129.68L75.5394 129.68L75.5453 129.68L75.5513 129.68L75.5573 129.68L75.5633 129.679L75.5693 129.679L75.5753 129.679L75.5813 129.679L75.5873 129.679L75.5933 129.678L75.5993 129.678L75.6054 129.678L75.6098 129.678L75.6108 129.678L75.6117 129.678L75.6127 129.678L75.6137 129.678L75.6147 129.678L75.6157 129.678C80.1494 129.554 84.6822 129.431 89.2117 129.247C86.9878 134.326 81.926 137.512 76.8227 139.286C74.859 140.008 72.8038 140.487 70.7451 140.966C67.8028 141.651 64.8531 142.337 62.1527 143.741C59.0234 145.113 56.6912 147.619 54.3718 150.11C51.5213 153.171 48.6902 156.212 44.4227 157.106L43.9613 157.216L43.9606 157.216C40.0251 158.16 36.123 159.095 32.152 159.817C31.247 159.011 30.2339 158.322 29.2128 157.736C26.7694 156.514 24.3503 157.885 22.0621 159.181C21.2317 159.652 20.4186 160.112 19.6278 160.436C18.3546 161.161 17.0398 161.83 15.7215 162.501L15.7212 162.501L15.7208 162.502C13.6844 163.538 11.6398 164.579 9.7278 165.836C9.39337 166.109 9.16164 166.465 8.92159 166.834C8.80634 167.011 8.68917 167.191 8.55779 167.366C7.47779 168.266 7.38779 169.346 8.10779 170.516C9.23279 173.261 11.4828 175.466 14.2728 176.456C18.6894 177.353 23.053 175.763 27.2826 174.222L27.2828 174.222L27.2829 174.222C28.5694 173.753 29.8434 173.289 31.1028 172.901C31.3125 172.796 31.6818 172.691 32.0861 172.576C32.8965 172.346 33.8477 172.076 33.9378 171.686C33.1278 170.516 31.8228 169.166 30.3828 168.896C28.8906 169.382 27.4043 169.933 25.9149 170.485L25.9144 170.485L25.9139 170.486L25.9137 170.486C21.6092 172.082 17.2777 173.689 12.6978 173.756C12.592 173.741 12.4811 173.736 12.3686 173.731C12.1461 173.721 11.917 173.71 11.7078 173.621C11.6195 173.457 11.5276 173.293 11.4352 173.128L11.4351 173.127L11.4347 173.127C11.1976 172.704 10.9569 172.274 10.7628 171.821C9.18603 168.907 16.5388 166.281 21.3058 164.578L21.3062 164.578L21.3074 164.577C22.7979 164.045 24.0354 163.603 24.6678 163.271C25.3692 163.026 26.0588 162.752 26.7472 162.478L26.7474 162.478L26.7475 162.478C27.9582 161.996 29.1656 161.516 30.4278 161.201C30.8227 161.057 30.9026 161.257 31.0101 161.527C31.0374 161.595 31.0664 161.668 31.1028 161.741C31.4237 162.372 31.7112 163.077 32.0054 163.799C32.9902 166.214 34.0495 168.812 36.6828 169.436C36.4113 168.621 36.169 167.749 35.9242 166.868L35.9241 166.867L35.9241 166.867C35.6413 165.85 35.3554 164.82 35.0178 163.856C34.899 163.526 34.7601 163.208 34.6035 162.9C34.623 162.905 34.6411 162.909 34.6577 162.911C35.8387 162.72 37.2071 162.548 38.6721 162.363L38.673 162.363L38.6738 162.363C44.1306 161.676 50.9269 160.82 54.3677 158.231C55.8579 157.016 57.1113 155.582 58.3663 154.146L58.3664 154.146L58.3666 154.145C59.158 153.24 59.95 152.333 60.8027 151.481C63.9077 148.286 67.9127 146.081 72.1427 144.866C78.8027 143.021 86.0477 140.771 90.1877 134.831L90.2255 134.778C90.2433 134.752 90.2609 134.727 90.2784 134.702L90.3074 134.659L90.3374 134.615C90.2844 135.111 90.2183 135.604 90.1428 136.091C89.0266 143.964 84.9175 147.409 80.3505 151.237C78.1049 153.12 75.7485 155.095 73.5828 157.736C70.3428 161.696 68.0028 166.556 67.8228 171.821C67.6878 173.891 67.8678 176.006 68.1378 178.076C68.2599 178.328 68.4086 178.57 68.5785 178.801L68.5428 178.796C68.6381 178.925 68.741 179.05 68.8504 179.172C66.1819 178.615 63.7476 179.331 63.2775 182.396C62.3294 186.223 62.0663 190.187 61.8041 194.139L61.8041 194.139C61.7302 195.252 61.6565 196.363 61.5675 197.471C61.5443 197.819 61.5148 198.169 61.4855 198.517C61.2309 201.54 60.9876 204.43 64.9425 205.076C66.7188 205.197 68.5313 205.028 70.3151 204.862C70.4282 204.852 70.5411 204.841 70.6539 204.831C70.7452 204.822 70.8364 204.814 70.9275 204.806C74.0325 205.166 75.1125 201.881 75.6075 199.406C76.1475 196.256 76.6875 193.106 76.9575 189.956C76.4625 189.236 75.5625 188.381 74.6625 188.246C74.5468 189.032 74.455 189.83 74.3624 190.634C74.2749 191.395 74.1868 192.16 74.0775 192.926C73.9512 193.662 73.8569 194.421 73.7617 195.187L73.7617 195.187C73.4502 197.695 73.1298 200.273 71.6475 202.376C70.8818 203.269 69.6864 203.28 68.5103 203.291C68.0274 203.296 67.5478 203.3 67.1025 203.366C66.4594 203.372 65.942 203.395 65.5283 203.413C64.6596 203.45 64.2482 203.468 64.0911 203.277C63.9497 203.105 64.0142 202.764 64.1367 202.115C64.2625 201.45 64.4493 200.462 64.5375 199.001C64.8216 197.431 64.9877 195.809 65.1545 194.181C65.5426 190.392 65.9342 186.569 67.8225 183.296C68.4525 182.306 69.6225 182.081 70.7475 182.216C70.9665 182.238 71.2149 182.241 71.475 182.244C72.2838 182.255 73.2068 182.267 73.7175 182.846C73.9584 183.161 74.1001 183.522 74.2401 183.878C74.4399 184.387 74.6361 184.887 75.1125 185.231C75.1635 185.265 75.2483 185.331 75.3528 185.412L75.353 185.413C75.8017 185.763 76.6145 186.397 76.6875 185.996C76.7255 183.96 74.5355 181.691 71.9095 180.304C71.4831 174.4 72.7047 168.37 76.1928 163.496C78.0442 160.329 80.7001 157.914 83.3538 155.5C85.6019 153.456 87.8485 151.413 89.6028 148.916C90.8762 146.912 91.7525 144.685 92.2857 142.366C91.7846 147.562 90.5006 152.699 89.2066 157.876C88.8853 159.161 88.5635 160.449 88.2528 161.741C86.3979 169.085 87.9823 171.429 91.1309 176.087C91.725 176.966 92.3749 177.928 93.0678 179.021C95.0928 182.351 96.1728 186.086 96.8928 189.911C96.9929 190.278 97.0497 190.669 97.1068 191.063C97.2037 191.731 97.3013 192.404 97.6128 192.971C97.9387 193.405 98.3083 193.825 98.7157 194.204C99.0243 194.495 99.3615 194.763 99.7177 194.995C99.5808 195.017 99.4431 195.039 99.3049 195.061C97.7731 195.305 96.1842 195.559 95.0925 196.526C94.3502 199.688 94.7652 203.013 95.1755 206.3L95.1755 206.301C95.3373 207.597 95.4984 208.888 95.5875 210.161C95.6104 210.363 95.6323 210.57 95.6545 210.778C95.9378 213.442 96.263 216.501 99.1425 217.586C100.426 217.875 101.756 217.5 103.066 217.13L103.066 217.13C103.593 216.982 104.116 216.834 104.632 216.731C105.082 216.521 105.795 216.381 106.559 216.231C108.09 215.931 109.822 215.592 110.032 214.571C110.19 213.215 110.039 211.815 109.887 210.418C109.823 209.821 109.758 209.224 109.717 208.631C109.478 207.793 108.674 207.239 107.961 206.747L107.961 206.747C107.87 206.684 107.78 206.622 107.692 206.561C107.467 206.381 106.792 206.066 107.062 206.651C107.149 207.525 107.234 208.288 107.308 208.956C107.586 211.458 107.715 212.618 107.2 213.267C106.755 213.828 105.83 214.007 104.104 214.341C102.793 214.595 101.021 214.938 98.6475 215.606C98.3808 213.072 98.1882 210.514 97.9965 207.968L97.9964 207.967C97.9294 207.076 97.8624 206.187 97.7925 205.301C97.8011 204.811 97.7687 204.264 97.7351 203.696L97.735 203.696C97.5924 201.288 97.4274 198.501 100.267 198.101C100.425 198.055 100.582 198.008 100.74 197.961L100.74 197.961C102.435 197.459 104.167 196.946 105.937 197.111C106.087 197.351 106.207 197.591 106.297 197.831C106.581 198.323 106.785 198.869 106.989 199.414C107.4 200.514 107.809 201.609 108.862 202.241C110.527 203.366 108.817 199.361 108.592 198.866C107.242 196.256 104.317 194.006 101.257 194.681C101.16 194.707 101.06 194.733 100.959 194.756C100.916 194.51 100.852 194.235 100.791 193.976L100.791 193.976L100.791 193.976L100.791 193.975C100.706 193.61 100.628 193.278 100.628 193.106C99.9078 188.021 98.0628 183.206 95.1828 178.976C90.8949 173.616 91.8578 169.805 93.2953 164.116C93.4267 163.596 93.5621 163.06 93.6978 162.506L93.9031 161.651C95.9591 153.096 98.0831 144.259 95.9928 135.506C95.9124 135.16 95.8335 134.812 95.7542 134.461C95.7086 134.26 95.663 134.059 95.6169 133.857C97.7663 137.967 99.1302 142.464 100.492 146.954C102.524 153.653 104.551 160.337 109.178 165.701C115.831 172.354 124.771 176.946 134.15 177.868C133.493 179.368 132.95 180.906 132.712 182.531C132.841 184.506 134.733 185.744 136.275 186.753L136.385 186.825L136.492 186.896C137.909 187.8 139.601 187.949 141.237 188.092C141.472 188.112 141.706 188.133 141.937 188.156C144.457 188.381 146.932 188.696 149.362 189.416C150.803 189.827 152.126 190.503 153.44 191.175C154.425 191.679 155.406 192.18 156.427 192.566C157.424 192.659 157.386 189.672 157.358 187.42C157.345 186.417 157.334 185.56 157.417 185.186C157.427 184.798 157.46 184.402 157.494 184.003C157.626 182.455 157.761 180.876 156.472 179.696C152.917 175.601 147.472 174.116 142.342 173.081C141.577 173.441 144.367 175.646 144.862 175.961C145.672 176.636 146.707 176.951 147.742 177.131C148.174 177.221 148.608 177.305 149.042 177.39C150.777 177.728 152.512 178.067 154.132 178.751C155.127 179.617 154.909 180.94 154.702 182.199C154.619 182.706 154.537 183.203 154.537 183.656C154.429 184.198 154.411 184.97 154.392 185.796V185.796V185.796V185.796C154.356 187.366 154.316 189.128 153.637 189.866C153.1 189.61 152.565 189.348 152.029 189.085L152.029 189.085C149.827 188.007 147.62 186.926 145.267 186.311C142.926 185.658 140.52 185.398 138.132 185.141C137.72 185.096 137.308 185.052 136.897 185.006C136.682 185.036 136.824 184.541 136.936 184.153C136.987 183.973 137.032 183.817 137.032 183.746C137.54 181.919 138.176 180.15 138.812 178.381C139.304 177.013 139.796 175.644 140.227 174.251H140.272C140.182 173.351 138.292 172.091 137.482 171.731C137.114 171.485 136.969 171.836 136.844 172.138C136.832 172.168 136.82 172.197 136.807 172.226C136.387 173.212 135.908 174.186 135.429 175.164L135.423 175.174L135.418 175.184L135.413 175.195C135.325 175.375 135.236 175.555 135.148 175.736C133.409 174.403 131.859 174.221 129.778 173.977L129.778 173.977C129.01 173.887 128.17 173.789 127.223 173.621C122.678 172.811 118.088 171.146 114.353 168.356C112.159 166.204 110.914 163.301 109.729 160.537C109.65 160.352 109.571 160.169 109.493 159.986C108.302 157.33 107.286 154.17 106.226 150.874C103.625 142.783 100.76 133.871 94.3986 129.572C94.2591 129.392 94.11 129.21 93.952 129.03L93.9971 129.028C94.3558 129.269 94.7294 129.49 95.0994 129.709C95.3716 129.87 95.6418 130.03 95.9027 130.196C100.088 133.211 103.508 137.171 106.568 141.311C107.187 142.172 107.793 143.05 108.401 143.929L108.401 143.929L108.402 143.929L108.402 143.929L108.402 143.93L108.402 143.93L108.402 143.93C111.063 147.778 113.747 151.658 117.593 154.406C123.597 159.217 131.218 160.726 138.623 162.192L138.626 162.192L138.629 162.193C139.602 162.385 140.571 162.577 141.533 162.776C146.413 163.837 151.014 165.818 155.297 168.343C155.164 168.573 155.031 168.802 154.898 169.031C154.784 169.321 154.589 169.647 154.384 169.989L154.384 169.989C153.858 170.867 153.267 171.854 153.818 172.631C154.628 173.531 155.663 174.296 156.788 174.746C157.145 174.809 157.521 174.803 157.899 174.798C158.331 174.791 158.765 174.785 159.173 174.881C161.603 175.241 164.078 175.691 166.328 176.681C167.138 177.041 167.918 177.446 168.668 177.896C168.833 178.01 168.995 178.139 169.158 178.269C169.572 178.599 169.996 178.937 170.513 179.066C170.803 179.066 170.931 178.766 171.047 178.497C171.093 178.39 171.137 178.288 171.188 178.211C171.953 176.321 172.718 174.431 173.663 172.631C173.936 172 174.268 171.39 174.599 170.78L174.599 170.78L174.6 170.78C174.978 170.084 175.355 169.39 175.643 168.671C175.474 166.598 173.118 165.122 171.415 164.055C171.306 163.987 171.2 163.921 171.098 163.856C168.913 162.696 166.463 162.288 164.055 161.887L163.988 161.876C162.908 161.606 163.133 162.056 163.673 162.641C165.635 164.887 167.463 165.131 169.642 165.423C170.563 165.546 171.546 165.677 172.628 165.971C173.503 167.235 172.533 168.92 171.67 170.419C171.335 171.001 171.017 171.555 170.828 172.046C170.439 172.761 170.088 173.495 169.736 174.231C169.313 175.115 168.889 176.001 168.398 176.861C168.387 176.876 168.379 176.89 168.371 176.901C168.348 176.937 168.339 176.951 168.33 176.951C168.325 176.951 168.321 176.946 168.313 176.94C168.308 176.935 168.302 176.93 168.293 176.924C168.285 176.918 168.275 176.912 168.263 176.906C166.643 175.871 164.933 174.971 163.178 174.296C161.648 173.711 160.073 173.306 158.453 172.991C158.86 171.654 159.409 170.3 159.963 168.933C160.695 167.126 161.437 165.295 161.873 163.451C161.888 163.361 161.913 163.271 161.938 163.181C161.988 163.001 162.038 162.821 162.008 162.641C161.558 161.876 160.703 161.291 159.893 160.976C159.417 160.817 159.12 161.419 158.86 161.945C158.751 162.166 158.649 162.373 158.543 162.506C157.607 164.233 156.643 165.989 155.65 167.727C154.745 166.886 153.173 165.828 152.738 165.611C147.563 162.056 141.623 159.941 135.503 158.591C134.244 158.269 132.799 157.983 131.271 157.68C125.969 156.63 119.672 155.384 116.738 151.751C116.406 151.289 116.074 150.827 115.742 150.364C110.541 143.114 105.294 135.798 98.0177 130.511C97.7037 130.296 97.3881 130.069 97.0695 129.84L97.0685 129.839C96.6424 129.532 96.211 129.222 95.7711 128.932C99.3581 128.729 102.942 128.47 106.523 128.126C109.548 127.819 112.596 127.643 115.644 127.466H115.644H115.644H115.644H115.645H115.645H115.645H115.645H115.645H115.645H115.645H115.645H115.645C120.214 127.202 124.786 126.937 129.293 126.236L129.428 126.205L129.544 126.179L129.771 126.128C131.885 125.659 134.587 125.058 134.963 122.636C135.368 120.116 134.513 117.461 132.578 115.796C127.517 110.956 120.059 110.878 113.169 110.806C111.666 110.79 110.191 110.775 108.773 110.711C96.1278 110.801 83.4828 111.431 70.9278 113.231C67.3611 113.71 63.7345 113.87 60.1144 114.03L60.114 114.03L60.1136 114.03L60.1132 114.03L60.1128 114.03L60.1124 114.03L60.112 114.03L60.1116 114.03L60.1112 114.03L60.1108 114.03L60.1103 114.03L60.1099 114.03L60.1094 114.03C58.2961 114.11 56.4844 114.19 54.6828 114.311C54.1428 114.536 56.8878 117.011 57.7878 116.561C59.4895 116.467 61.1912 116.412 62.8897 116.358C65.2784 116.281 67.6608 116.205 70.0278 116.021C82.9878 114.401 96.0378 113.816 109.043 113.816C110.151 113.829 111.264 113.833 112.38 113.836H112.38H112.38H112.38H112.38H112.381H112.381H112.381H112.381H112.381H112.381H112.381H112.381C118.516 113.853 124.728 113.871 130.553 115.661C132.17 121.051 128.495 121.599 124.274 122.227L124.253 122.231C120.111 122.715 115.943 122.926 111.777 123.136C108.203 123.317 104.631 123.497 101.078 123.851C90.9172 124.838 80.7012 125.024 70.4733 125.21H70.4731H70.4726C67.6549 125.261 64.8364 125.313 62.0178 125.381C60.8969 125.306 59.7692 125.259 58.6394 125.211H58.6393C55.6866 125.088 52.7194 124.964 49.8228 124.346C49.6822 124.31 49.6789 124.303 49.6412 124.215L49.6412 124.215L49.6312 124.192C49.627 124.183 49.6224 124.172 49.6172 124.161L49.6113 124.148C49.6071 124.14 49.6027 124.13 49.5978 124.121C48.9834 122.73 48.6711 121.247 48.3603 119.771C48.2386 119.193 48.1171 118.615 47.9778 118.046C47.9778 117.506 44.9178 114.986 44.8728 115.976C44.5128 118.181 44.5578 120.701 45.8178 122.591C47.7078 125.111 50.4528 127.001 53.4228 128.081C57.9458 129.335 62.6935 129.53 67.3948 129.723ZM11.3928 126.956C13.2828 127.316 15.1728 127.361 17.0178 127.361C20.8114 127.399 24.5051 126.639 28.1848 125.881L28.1849 125.881C28.7828 125.758 29.3803 125.635 29.9778 125.516C31.8228 125.201 33.6228 124.841 35.4678 124.436C37.7178 124.391 38.4378 122.051 37.9878 120.161C37.9428 119.756 35.1528 117.371 35.2428 118.316C35.5578 119.936 35.0178 122.141 33.0828 122.231C31.5228 122.591 29.9229 122.871 28.3229 123.151C27.5229 123.291 26.7228 123.431 25.9278 123.581C20.8878 124.616 15.7128 125.336 10.5828 124.751C10.3526 124.699 10.0605 124.67 9.74906 124.639C8.96471 124.56 8.05709 124.469 7.70278 123.986C7.02778 122.321 6.66778 120.116 7.88278 118.586C8.21243 118.196 8.72168 118.166 9.22449 118.136C9.4767 118.121 9.7273 118.106 9.95278 118.046L10.9664 117.876L10.9963 117.871L10.9981 117.871C13.0685 117.525 15.1106 117.184 17.1528 116.876C18.5553 116.713 19.9671 116.511 21.3833 116.309L21.3838 116.309L21.3843 116.309L21.3848 116.309C26.2387 115.616 31.1457 114.915 35.9178 115.751C38.1228 116.336 32.9928 112.016 32.3178 112.331C27.3456 111.508 22.3112 112.301 17.3438 113.083L17.3434 113.083L17.3431 113.083C16.3315 113.242 15.3227 113.401 14.3178 113.546C12.9866 113.767 11.6555 114.003 10.3317 114.237L10.3308 114.237L10.3301 114.237L10.3295 114.237L10.3291 114.237L10.3287 114.237L10.3267 114.238C9.23564 114.431 8.14963 114.623 7.07279 114.806C6.903 114.836 6.72659 114.861 6.54879 114.885C5.68986 115.003 4.79832 115.126 4.46278 116.021C1.94278 120.791 6.71279 126.101 11.3928 126.956ZM151.817 125.258C152.456 125.265 153.094 125.272 153.728 125.291C157.659 125.25 161.553 124.836 165.443 124.423C165.828 124.382 166.213 124.341 166.598 124.301C166.807 124.27 167.037 124.244 167.278 124.217C168.792 124.047 170.725 123.831 170.648 122.006C170.873 118.136 170.783 113.501 167.408 110.981C165.488 109.1 162.785 108.785 160.217 108.485C159.896 108.448 159.578 108.411 159.263 108.371C156.863 108.131 154.433 107.996 151.973 107.966C149.953 107.918 147.922 108.109 145.89 108.3L145.89 108.3C144.074 108.47 142.258 108.641 140.453 108.641C140.363 109.406 143.063 111.656 143.918 111.521C145.31 111.418 146.694 111.269 148.076 111.12L148.077 111.12L148.077 111.12L148.077 111.12L148.077 111.12L148.077 111.12L148.078 111.12L148.078 111.12L148.078 111.12L148.078 111.12L148.079 111.12L148.079 111.12L148.079 111.12C149.733 110.942 151.386 110.764 153.053 110.666C156.743 110.531 160.478 110.846 164.123 111.341C164.933 111.476 165.743 111.611 166.508 111.791C167.183 113.546 167.138 115.571 167.003 117.416C166.96 117.698 166.94 117.99 166.92 118.284V118.284V118.284C166.875 118.925 166.83 119.574 166.553 120.161C165.555 121.158 164.066 121.296 162.648 121.427C162.148 121.473 161.656 121.518 161.198 121.601C155.303 122.051 149.408 121.871 143.558 121.511C143.335 120.261 143.289 118.924 143.244 117.629V117.629V117.629V117.629V117.628L143.243 117.596C143.423 116.741 142.928 116.111 142.343 115.616C141.893 115.166 139.823 113.231 139.328 113.771C138.833 119.081 139.643 121.826 144.548 124.526C146.902 125.203 149.37 125.231 151.817 125.258ZM161.648 98.4707C159.983 97.7507 157.733 96.1307 157.058 94.4207C157.643 92.4857 157.958 90.4157 157.913 88.3457C156.698 78.2207 153.953 67.0607 146.033 60.0407C145.774 59.8106 145.492 59.5989 145.209 59.3864C144.607 58.9342 144.001 58.4787 143.603 57.8357C143.288 57.2057 144.233 57.7907 144.413 57.9257C153.188 63.5957 158.903 73.0907 161.333 83.0807C161.52 83.9182 161.735 84.7668 161.952 85.6222C163.042 89.9153 164.176 94.3807 161.963 98.4707C161.843 98.5307 161.738 98.5307 161.648 98.4707ZM6.26256 104.141C4.86756 103.601 3.56257 102.566 2.57257 101.441C1.62757 99.3707 0.952557 97.1207 0.412557 94.8707C-1.97244 85.3307 6.39756 65.3957 14.8576 60.4907C15.1726 60.3107 15.5326 60.2207 15.8476 60.4457L16.0068 60.541C16.8762 61.0601 17.8988 61.6707 18.3226 62.5607C18.2776 62.6507 18.2326 62.6507 18.1876 62.6507C17.4676 62.7407 16.9276 63.1457 16.3876 63.5957C9.72756 70.3457 5.81256 81.3257 4.91256 90.6407C4.51422 94.5444 5.34998 98.4128 6.17137 102.215C6.27792 102.708 6.38422 103.2 6.48756 103.691L6.49687 103.709L6.5116 103.736C6.55767 103.822 6.61544 103.93 6.57756 104.006C6.54021 104.155 6.44083 104.15 6.33092 104.143C6.30843 104.142 6.28549 104.141 6.26256 104.141ZM22.4626 151.841C18.9976 151.211 14.4976 147.971 12.9226 144.821C12.1221 142.638 12.2925 140.278 12.4584 137.98C12.4977 137.436 12.5367 136.895 12.5626 136.361C12.6976 134.426 12.8776 132.401 13.3276 130.466C13.8202 130.437 14.5741 130.949 15.1927 131.474C15.234 131.5 15.2729 131.526 15.3085 131.549C15.3611 131.583 15.4067 131.613 15.4427 131.636C16.2977 132.176 17.1527 132.896 17.8277 133.706C17.8877 133.796 17.9177 133.811 17.9177 133.751C18.0101 133.589 18.1055 133.356 18.2107 133.099C18.5153 132.355 18.9022 131.411 19.5377 131.411C20.6221 131.652 21.5273 132.394 22.3813 133.095C22.4841 133.18 22.5862 133.263 22.6877 133.346L23.0477 133.706C23.0777 133.796 23.1077 133.796 23.1377 133.706C23.2727 133.211 23.4077 132.761 23.5877 132.266C23.6673 132.107 23.7468 131.869 23.8345 131.608C24.0442 130.982 24.3001 130.219 24.7127 130.061C25.9727 130.241 28.2677 132.176 28.7627 133.391C28.8307 133.232 28.8958 132.982 28.9695 132.699C29.1887 131.858 29.4842 130.725 30.1577 130.826C31.1695 131.163 32.0935 131.781 32.9188 132.505C32.6949 131.344 32.4419 130.199 32.0926 129.071C32.0314 128.765 31.9035 128.442 31.7906 128.157C31.4886 127.394 31.2935 126.902 32.7676 127.721C36.0976 129.656 37.5376 132.626 37.8976 136.361C37.9726 136.886 38.0488 137.411 38.125 137.936C38.5063 140.561 38.8876 143.186 39.1126 145.811C39.6526 150.266 37.1776 151.256 33.2626 151.751C29.7076 152.111 26.0176 152.471 22.4626 151.841ZM33.1563 146.038C32.7565 145.709 32.399 145.389 32.142 145.159L32.1396 145.157L32.0129 145.044C31.9763 145.012 31.9428 144.982 31.9127 144.956C31.7327 144.596 31.6277 144.536 31.5977 144.776C31.5529 144.991 31.5099 145.21 31.4665 145.43L31.4663 145.431C31.3565 145.989 31.2444 146.559 31.0954 147.111C31.9103 146.865 32.6119 146.519 33.1563 146.038ZM28.1372 147.623C27.2028 146.956 26.3757 146.123 25.7477 145.181C25.6446 144.974 25.6465 145.004 25.6532 145.11C25.6552 145.143 25.6577 145.183 25.6577 145.226C25.6092 145.408 25.577 145.868 25.5373 146.436C25.5056 146.89 25.4691 147.412 25.4156 147.915C26.3246 147.837 27.2326 147.736 28.1372 147.623ZM21.6478 148.079C20.9072 147.412 20.2928 146.687 20.0777 146.081C20.0327 146.486 19.9877 146.902 19.9427 147.318C19.9175 147.551 19.8923 147.784 19.8672 148.015C20.4595 148.055 21.0532 148.075 21.6478 148.079ZM143.783 138.791C144.188 143.021 148.868 146.531 152.603 147.791C157.598 149.186 164.708 145.766 166.058 140.591C166.868 137.576 166.868 134.381 166.283 131.321C165.653 129.926 163.988 128.801 162.683 128.081C162.503 127.946 161.783 127.586 161.918 128.081L161.942 128.301L161.942 128.301C162.024 129.031 162.102 129.73 162.143 130.466C162.196 131.156 162.23 131.83 162.238 132.486C161.47 131.784 160.58 131.134 160.117 131.06C160.093 130.918 160.076 130.778 160.059 130.638V130.638C160.021 130.316 159.984 130 159.848 129.701C159.038 128.621 157.958 127.721 156.743 127.136C156.653 127.091 156.428 127.001 156.338 127.091C156.257 127.441 156.273 127.824 156.289 128.21C156.3 128.468 156.311 128.728 156.293 128.981C156.252 128.948 156.199 128.904 156.136 128.853C155.503 128.335 153.867 126.996 153.458 127.406C153.053 128.93 152.842 130.498 152.632 132.065L152.632 132.065L152.632 132.065L152.632 132.066L152.632 132.066L152.632 132.066L152.632 132.066L152.632 132.067L152.631 132.067L152.631 132.067C152.538 132.765 152.444 133.462 152.333 134.156C152.309 133.84 152.307 133.512 152.306 133.179C152.302 132.278 152.298 131.345 151.838 130.556C150.893 129.476 149.723 128.441 148.418 127.856C147.698 127.496 147.473 128.171 147.338 128.756C147.165 129.361 147.04 129.972 146.951 130.586C146.206 129.723 144.815 128.681 144.458 129.071C143.873 132.266 143.423 135.551 143.783 138.791ZM155.168 141.626C155.319 142.187 155.719 142.728 156.219 143.214C156.096 143.271 155.971 143.326 155.843 143.381C155.378 143.592 154.898 143.784 154.407 143.948C154.685 143.443 154.864 142.757 155.012 142.191L155.012 142.191L155.013 142.191C155.068 141.981 155.118 141.787 155.168 141.626ZM152.648 144.326C152.665 144.338 152.682 144.35 152.699 144.362L152.731 144.385C151.646 144.584 150.538 144.619 149.453 144.416L149.439 144.412C149.414 144.407 149.386 144.403 149.358 144.399C149.343 144.397 149.327 144.396 149.311 144.394L149.31 144.394L149.31 144.394C149.14 144.374 148.947 144.353 148.913 144.146C148.655 143.534 148.458 142.913 148.308 142.283C149.029 142.896 149.936 143.534 150.398 143.246C150.475 143.129 150.519 142.947 150.559 142.784C150.565 142.757 150.572 142.731 150.578 142.706C151.163 143.291 151.973 143.921 152.648 144.326ZM69.7885 70.873L69.7877 70.873H69.7875C66.7978 70.8298 63.8145 70.7867 60.8475 70.8407C54.1425 71.2457 47.0775 70.7507 43.4325 64.2257C43.4775 64.0457 43.9275 64.2707 44.0175 64.3157C44.6025 64.6307 45.2325 64.9907 45.6375 65.5757C47.3838 69.4256 51.7207 69.3898 55.4987 69.3586C56.0041 69.3545 56.4996 69.3504 56.9775 69.3557C59.4558 69.3336 61.9369 69.3522 64.4186 69.3709C72.0308 69.4282 79.6497 69.4856 87.2175 68.3657C89.6883 68.0613 92.1948 68.0205 94.7029 67.9797H94.703H94.7031C98.4985 67.9179 102.298 67.8561 105.982 66.8807C111.801 65.6266 113.315 62.9188 114.169 61.3905C114.847 60.1768 115.109 59.7072 116.782 61.3007C117.251 61.6755 116.484 62.7656 115.88 63.6232C115.614 64.0013 115.38 64.3342 115.297 64.5407C110.931 69.3735 103.689 69.4538 97.5219 69.5221H97.5212C97.1422 69.5263 96.7674 69.5305 96.3975 69.5357C92.9271 69.5131 89.4907 69.8743 86.0598 70.2348C82.6395 70.5943 79.2247 70.9532 75.7875 70.9307C73.7869 70.9307 71.7863 70.9018 69.7885 70.873ZM57.7425 33.4457C57.2475 33.2657 55.7175 32.6807 55.8975 32.0507C56.2787 31.5866 56.6172 31.0493 56.9579 30.5084L56.9579 30.5083C57.5422 29.5807 58.1331 28.6426 58.9575 28.0457C59.4075 28.1807 60.9825 28.9007 60.8025 29.3957C60.3465 29.9277 59.9386 30.5399 59.5315 31.151L59.5314 31.1511C58.9743 31.9874 58.4185 32.8217 57.7425 33.4457ZM68.4079 34.7507C68.1829 35.2457 69.4879 35.7407 69.8929 35.8757C71.3329 33.9857 72.8178 31.6457 73.7628 29.3507C73.8978 28.8557 72.6378 28.2707 72.1878 28.2707C71.4678 29.7707 70.5878 31.1907 69.7078 32.6107C69.2678 33.3207 68.8279 34.0307 68.4079 34.7507ZM89.0869 32.4701C89.1974 32.5143 89.2977 32.5542 89.3778 32.5907C89.4078 32.6207 89.4379 32.6207 89.4678 32.5907C89.7362 32.054 90.0144 31.5173 90.2943 30.9774C90.8594 29.8874 91.4313 28.7842 91.9429 27.6407C91.5378 27.1007 90.7278 26.6957 90.0528 26.5157C89.7573 27.1621 89.4694 27.8313 89.1797 28.5045C88.7636 29.4716 88.3439 30.4471 87.8929 31.3757C87.6666 31.9036 88.5148 32.242 89.0869 32.4701ZM100.831 33.8525C100.908 33.8857 100.977 33.9152 101.033 33.9407H101.168C101.47 33.3229 101.751 32.6841 102.033 32.0436C102.675 30.5847 103.321 29.1165 104.228 27.8657C103.958 27.1907 102.788 26.5607 102.113 26.4707C101.439 27.6775 100.906 28.9543 100.37 30.2357C100.047 31.0088 99.7235 31.7836 99.3679 32.5457C99.0885 33.1044 100.225 33.5923 100.831 33.8525Z" fill="black"/>
</svg>
