<svg width="110" height="90" viewBox="0 0 110 90" fill="none" xmlns="http://www.w3.org/2000/svg">
<path fill-rule="evenodd" clip-rule="evenodd" d="M40.4897 58.3147C39.8397 59.3147 42.5396 61.1147 43.3396 61.5147C47.8396 54.1147 44.2896 41.0147 39.0396 34.4647C40.1896 28.1147 35.0897 19.1647 31.1897 14.3147C31.0897 11.3147 29.5896 8.51466 27.8396 6.11466C27.4216 5.56173 27.029 4.97242 26.6344 4.3801L26.6343 4.38008L26.6343 4.38006C25.5659 2.77635 24.4828 1.15053 22.8396 0.164661C21.7442 -0.455381 22.5882 0.744315 23.9024 2.61248C25.7674 5.26377 28.5796 9.26142 28.1396 11.3147C28.2063 11.6147 28.123 11.6313 27.8896 11.3647C26.8396 10.5647 25.7396 9.86466 24.4896 9.41466C20.9396 7.76466 18.9897 12.4647 19.9397 15.2647C22.1897 20.3147 29.5897 24.0147 30.9397 16.1647C31.2706 16.8413 31.621 17.5255 31.9753 18.2172C34.0298 22.2284 36.2146 26.4942 35.4896 31.0147C29.4396 25.6147 23.1396 32.5147 23.9896 39.0147C26.3396 44.0147 31.4896 45.8147 35.4896 41.3647C37.0066 39.9146 37.6278 38.4347 37.9838 37.5867C38.4256 36.5339 38.4589 36.4547 39.2896 38.6147C41.6396 44.7647 42.9397 51.9647 40.4897 58.3147ZM56.7897 62.7647C56.0897 64.9646 57.8397 66.8146 59.6397 67.7647C60.1397 62.7647 62.5397 57.4146 65.9397 53.2146C66.0064 53.0146 66.073 52.9813 66.1397 53.1147C67.3397 54.6147 68.8397 55.9146 70.5397 56.7647C74.7397 59.1147 82.3397 59.7146 83.5897 53.7146C84.1897 49.6646 80.5397 46.2646 77.2897 44.3647C74.7397 42.9146 71.8397 43.6147 69.6397 44.2647L69.6967 44.0826C71.4823 38.377 73.4992 31.932 79.0897 28.8646C88.4897 41.2146 94.0397 28.5146 81.5897 24.7146C81.4898 24.7056 81.3998 24.7031 81.3209 24.7009C80.9654 24.6911 80.8351 24.6875 81.0397 24.1146C83.0001 16.3177 87.6601 13.2055 93.3571 9.40076C94.0535 8.93568 94.7654 8.46025 95.4897 7.96465C94.8897 6.91465 93.7897 5.51465 92.5897 5.26465C90.5897 6.39798 88.6397 7.59798 86.7397 8.86465C81.4897 12.3646 77.7897 18.5646 77.7397 24.9146C73.9397 26.2646 70.4897 29.4146 68.8897 33.3146C66.8397 38.0646 65.0397 43.1147 64.4897 48.2647C60.8897 52.3647 57.8897 57.3647 56.7897 62.7647ZM54.8899 38.4646C47.2899 35.9646 53.2399 20.9646 55.7899 16.0146C55.9956 15.7501 56.3697 15.0366 56.8196 14.1786L56.8197 14.1784L56.8197 14.1783L56.8197 14.1783L56.8198 14.1783C57.9007 12.1164 59.4191 9.22035 60.0899 9.71462C61.7399 10.5646 63.2399 11.8146 64.2899 13.3146C64.5566 13.6813 64.2899 14.048 64.0233 14.4146C63.8899 14.598 63.7566 14.7813 63.6899 14.9646C59.5899 21.5146 55.7399 28.7146 55.2399 36.5646C55.2084 36.7222 55.2166 36.9494 55.2255 37.1929V37.1929C55.2446 37.7218 55.2665 38.3277 54.8899 38.4646ZM23.9895 75.9647C25.6395 78.1147 27.7895 80.1147 30.2895 81.2147C30.7895 81.4147 30.9395 81.0647 30.7895 80.6647C30.3395 78.0147 29.7896 75.4148 29.2396 72.8148L29.2395 72.8147C27.2895 59.9147 16.9895 48.0647 3.53954 47.1647C1.68954 46.8147 4.63953 49.4147 5.33953 49.1647C16.7395 50.5147 23.0395 56.6147 23.4895 68.2647C23.6504 69.2097 23.5929 70.3164 23.535 71.432C23.4489 73.0907 23.3618 74.7689 23.9895 75.9647ZM71.34 89.3648C67.14 87.2148 68.09 84.5148 69.79 80.9148C72.49 74.5148 77.74 69.6648 83.34 65.7148C85.7399 64.0648 88.2398 62.5149 90.7398 60.9649L90.74 60.9648C91.5501 60.3387 92.4145 61.0959 93.1933 61.7781C93.472 62.0222 93.7397 62.2567 93.99 62.4148C94.1567 62.5815 94.331 62.7495 94.5079 62.9199L94.5083 62.9203C95.4451 63.8232 96.4535 64.7952 96.79 66.0148C96.6162 66.2754 96.3083 66.4186 96.0022 66.561C95.7798 66.6644 95.5583 66.7675 95.39 66.9148C85.09 72.2148 76.09 78.8148 71.34 89.3648ZM0.189715 20.5148C0.889715 21.4648 1.83971 22.3148 2.93971 22.7648C2.96738 22.7648 2.99483 22.7646 3.02208 22.7643C3.47678 23.1497 3.96141 23.498 4.4445 23.8452L4.44451 23.8452C4.72898 24.0497 5.01292 24.2537 5.28989 24.4648C6.03989 25.0148 5.93989 26.1148 5.73989 26.9148C5.58989 27.2148 5.58989 27.5648 5.83989 27.8148C6.2424 28.3431 6.7082 28.846 7.22455 29.2791C7.74965 30.5653 8.83663 31.6818 10.3897 32.5146C10.8375 32.596 10.5561 32.1471 10.3821 31.8695C10.3424 31.8062 10.3083 31.7518 10.2897 31.7146C9.16389 29.3162 10.0986 26.199 11.6864 24.1455C11.7872 24.1707 11.8884 24.1938 11.9897 24.2147C14.2397 24.4647 10.6897 21.7647 10.1397 21.4647C9.72973 21.1133 9.38838 21.1564 9.02523 21.2022C8.7683 21.2345 8.50045 21.2683 8.18967 21.1647C7.97527 20.9861 7.83748 20.7052 7.7033 20.4318L7.70329 20.4317L7.70328 20.4317C7.64972 20.3226 7.59673 20.2146 7.53967 20.1147C7.48444 19.9858 7.42878 19.857 7.37309 19.728C6.82381 18.4561 6.27126 17.1766 6.08967 15.8147C5.71055 15.1323 5.01521 14.4499 4.26523 14.029C3.61538 13.5002 2.91593 13.0812 2.53971 13.0148C2.38971 13.0648 2.43971 13.2148 2.48971 13.3648C2.55913 13.6524 2.64034 13.9439 2.72244 14.2385C3.05427 15.4296 3.40046 16.6722 3.03971 17.9148C2.70011 19.2732 1.51156 19.5904 0.725191 19.8003C0.122223 19.9612 -0.244283 20.0591 0.189715 20.5148ZM6.24703 20.4519C6.98528 21.3849 7.88599 22.2214 8.87948 22.8787C8.56528 23.1759 8.27019 23.5783 7.98968 24.0146C7.69887 24.4641 7.46659 24.9109 7.29043 25.3522C6.34463 24.366 5.19325 23.5503 4.08989 22.8148C4.01631 22.778 3.94527 22.7374 3.87626 22.6938C5.36966 22.4472 6.03578 21.581 6.24703 20.4519ZM95.7411 40.7074C95.8945 40.802 96.0158 40.8584 96.0898 40.8646C96.2755 40.8746 96.4553 40.8785 96.6295 40.8765C96.6543 40.8916 96.6749 40.9046 96.6899 40.9146C98.4899 41.9146 99.2399 43.9647 99.2399 45.9146C99.3005 46.823 100.094 47.713 100.989 48.4071C101.469 50.0505 102.6 51.5077 104.19 52.2646C104.535 52.394 104.396 52.0399 104.32 51.8438C104.307 51.8125 104.297 51.7853 104.29 51.7646C103.34 48.3646 104.99 44.2146 107.89 42.2646C107.99 42.2146 108.29 42.0646 108.44 42.0646C108.689 42.2101 108.783 42.1915 108.793 42.1057C108.811 42.1074 108.828 42.1091 108.845 42.1106C108.86 42.112 108.875 42.1133 108.89 42.1146C109.94 42.0646 107.34 39.5146 106.94 39.2146C106.306 38.5323 105.388 38.2775 104.508 38.0336L104.44 38.0146C104.21 38.0146 104.131 37.8217 104.048 37.6184C104.004 37.5111 103.959 37.4009 103.89 37.3146C103.19 35.9646 102.74 34.5146 102.44 33.0146C102.412 32.3506 102.231 31.7174 101.914 31.1486C101.451 30.0776 99.3978 28.3483 98.7898 28.0646C98.2413 27.712 98.2454 28.2498 98.2488 28.6915V28.6916V28.6917V28.6918V28.6919C98.2498 28.8137 98.2506 28.9282 98.2398 29.0146C98.2898 32.7646 97.4398 36.8146 93.0398 37.2646C92.5296 37.3462 92.8441 37.9526 93.4358 38.6452C93.423 38.7785 93.5813 39.0361 93.9899 39.4646C94.0535 39.5192 94.1419 39.6034 94.2463 39.7029L94.2465 39.7031C94.6746 40.1112 95.3725 40.7765 95.7411 40.7074ZM101.64 43.5146C101.444 43.8165 101.281 44.131 101.15 44.4541C100.197 43.0688 98.9598 41.8513 97.6597 40.7868C99.9757 40.3897 101.057 38.7259 101.55 36.6702C102.366 38.0045 103.388 39.2262 104.541 40.1746C103.373 40.7832 102.331 42.1092 101.64 43.5146ZM23.2898 16.7145C23.3898 15.2645 23.8398 13.5645 25.1398 12.6645C25.6398 12.1645 28.1898 12.3645 28.0398 13.0645C27.7898 14.6645 27.1898 16.3645 25.8398 17.3145C25.1398 17.7645 24.3898 17.9145 23.5898 17.8145C23.2301 17.7785 23.2585 17.4062 23.2842 17.0698C23.2942 16.9385 23.3038 16.8127 23.2898 16.7145ZM29.94 34.9646C28.69 36.4646 27.94 38.4146 27.69 40.3646V40.4646C31.34 39.5146 33.89 36.1146 35.04 32.7146C33.14 32.2146 31.14 33.4646 29.94 34.9646ZM75.3396 46.8146C73.2396 47.1146 71.2896 48.1146 69.6396 49.4146C69.5002 49.5401 69.3491 49.6617 69.1961 49.7849C68.8004 50.1033 68.392 50.4319 68.1396 50.8646C68.1396 51.0754 68.1213 51.312 68.1021 51.5584C68.0214 52.5976 67.9271 53.8125 69.1396 54.0146C72.8896 55.6146 78.6896 55.5646 80.0396 50.9146C81.1396 47.0646 78.5896 46.5146 75.3396 46.8146ZM83.0854 27.679L83.0851 27.679C82.3954 27.7418 80.5522 27.9096 80.6899 28.4145C80.7899 30.1645 82.0899 31.3145 83.8399 31.4145C85.5899 31.5645 86.5899 29.6645 85.9399 28.1645C85.2399 27.6145 84.0899 27.6145 83.2399 27.6645C83.1991 27.6686 83.1468 27.6734 83.0854 27.679Z" fill="black"/>
</svg>
