<svg width="91" height="168" viewBox="0 0 91 168" fill="none" xmlns="http://www.w3.org/2000/svg">
<path fill-rule="evenodd" clip-rule="evenodd" d="M43.872 64.1186C44.1883 64.2859 44.5048 64.4958 44.8399 64.7243C44.9087 64.7758 44.9967 64.8363 45.095 64.9039C45.5685 65.2291 46.2813 65.7188 46.2399 66.1742C45.4029 67.0366 44.7718 68.0662 44.2812 69.1718C44.3783 70.5117 44.4636 71.8515 44.5282 73.1914C45.3403 73.6674 46.0857 74.2571 46.6399 74.9743C47.1399 75.9743 45.4899 76.8742 44.7399 77.0742C44.7099 77.1276 44.6805 77.1812 44.6518 77.235C44.6613 78.1147 44.6581 78.9944 44.6397 79.8741C44.6372 80.0002 44.6344 80.1264 44.6314 80.2525C45.2554 80.8188 45.5392 81.5044 44.569 82.2179C44.5585 82.4827 44.547 82.7475 44.5347 83.0123C46.613 83.4693 48.4674 84.381 49.74 85.8742C49.777 86.0591 49.568 85.9979 49.4161 85.9535C49.3626 85.9378 49.3161 85.9242 49.29 85.9242C48.6234 85.6576 47.94 85.4576 47.24 85.3242C42.6589 83.9462 38.0223 85.2592 33.9502 87.5481C34.3349 87.6849 34.858 88.1222 35.5902 88.9742C35.1224 89.9098 34.8359 91.1819 34.6189 92.4366C36.9029 91.819 39.2478 91.4882 41.6142 91.46C41.5373 89.8459 41.7899 89.084 42.5897 89.8242C42.7329 89.9342 42.8954 90.0443 43.0634 90.1582C43.5946 90.518 44.1809 90.9152 44.3839 91.4678C46.1446 91.456 47.977 91.5705 48.7901 93.2741C47.2813 93.1771 45.8167 93.1405 44.3846 93.1763C44.4117 94.7391 44.6803 96.298 44.9823 97.8407C47.5984 97.8228 50.2121 97.909 52.7993 98.056C52.5685 97.2578 52.3316 96.4636 52.0898 95.674C52.0728 95.436 51.8649 95.0013 51.659 94.5705C51.2593 93.7348 50.8669 92.9141 51.8898 93.574C53.3928 94.2037 54.4503 96.1535 55.2533 98.5051C58.4718 100.426 57.7773 100.584 55.8471 100.462C56.2625 101.989 56.6021 103.574 56.9093 105.008C57.0446 105.639 57.1736 106.241 57.3001 106.796C58.5077 106.98 59.6923 107.245 60.8401 107.624C63.6309 109.485 62.2954 109.296 60.6052 109.057C60.0244 108.975 59.4016 108.887 58.8901 108.874C58.5219 108.842 58.1533 108.812 57.7844 108.784C57.92 109.57 58.0625 110.369 58.2067 111.177L58.2068 111.178C58.2703 111.533 58.3341 111.891 58.3978 112.25C58.762 112.159 59.126 112.067 59.4897 111.974C60.5897 111.924 61.6397 112.924 62.2897 113.724C62.3227 113.922 62.0727 113.946 61.8413 113.968C61.7221 113.979 61.6078 113.99 61.5397 114.024C60.6304 114.228 59.7198 114.426 58.808 114.619C59.2034 116.979 59.5559 119.389 59.7495 121.793C60.4635 121.769 61.1771 121.746 61.8902 121.724C63.0402 121.824 64.1402 122.774 64.8402 123.674C64.8902 123.724 64.8402 123.774 64.7402 123.824C63.7068 123.857 62.6568 123.874 61.5902 123.874C61.0197 123.886 60.4484 123.899 59.8764 123.915C60.0288 127.969 59.6277 131.954 58.1103 135.588C66.0259 128.881 70.1748 118.525 66.14 106.324C65.04 102.974 63.54 99.6242 61.09 97.0242C60.3184 96.1714 59.1179 95.3845 57.9006 94.5866L57.9005 94.5865C56.1204 93.4197 54.3042 92.2292 53.74 90.7742C54.65 90.8717 55.4544 91.4974 56.2493 92.1156C56.6773 92.4485 57.1025 92.7792 57.54 93.0242C66.39 98.3242 71.54 108.324 71.29 118.574C71.64 140.124 45.29 151.874 26.89 145.024C15.19 140.474 6.39004 129.474 8.94004 116.474C10.74 102.874 20.49 90.7742 32.49 84.5742C34.6046 83.472 37.549 82.734 40.4901 82.6564C40.3127 82.0759 40.3513 81.4093 40.3898 80.7443C40.3982 80.5992 40.4066 80.4542 40.4127 80.3102C38.4946 78.8471 39.2959 77.3172 40.3278 75.3474L40.3399 75.3242C40.1584 75.1288 39.9224 74.9372 39.6764 74.7376C39.0413 74.2223 38.3399 73.6532 38.3399 72.8242C38.5253 71.0816 39.3705 69.4765 40.2436 67.9272C40.2275 67.5091 40.2096 67.0913 40.1897 66.674C40.1679 66.3608 40.1464 66.0475 40.1252 65.7343C36.6674 63.5924 36.6458 61.9201 38.9399 57.9743C39.0732 57.8076 39.1899 57.6409 39.2899 57.4743C39.3015 57.451 39.3132 57.4332 39.3229 57.4182C39.355 57.3689 39.3667 57.351 39.2899 57.2743C38.9566 57.0742 38.6399 56.8742 38.3399 56.6742C37.4899 56.0742 36.5399 55.3742 36.1899 54.3242C35.8596 52.1775 37.1656 50.0307 38.3346 48.1091C38.5813 47.7034 38.822 47.3077 39.0399 46.9242C34.3899 44.4742 35.2899 42.5743 37.6899 38.6243C37.8566 38.3576 38.0399 38.1076 38.2399 37.8743C38.3732 37.7743 38.3732 37.7076 38.2399 37.6742C35.5399 35.9242 35.6899 32.5743 37.4899 30.2243C32.4399 27.5243 34.6899 23.8743 37.6899 20.5243C37.7756 20.4386 37.8245 20.408 37.8211 20.3852C37.8165 20.3549 37.7186 20.3386 37.4899 20.2243C37.4349 20.1886 37.3792 20.1528 37.3231 20.1167C36.5125 19.5951 35.6075 19.0127 35.1399 18.1243C34.555 16.2022 35.9253 14.4199 37.1209 12.8648C37.3561 12.5589 37.5845 12.2619 37.7899 11.9743L38.5165 11.1156C38.5149 10.8507 38.5133 10.5858 38.5117 10.3209C35.5127 8.55516 34.8511 6.7793 37.9899 4.47426C38.1638 4.38997 38.3421 4.3351 38.5235 4.30538C38.5426 3.1556 38.5797 1.99434 38.7397 0.87406C39.1397 0.27406 40.8897 2.02405 41.0397 2.42405C41.0612 3.30914 41.0838 4.19423 41.1077 5.07933C41.5099 5.32397 41.8987 5.59498 42.2605 5.84717C42.5383 6.04078 42.8001 6.22329 43.0399 6.37426C43.8899 7.07426 43.2899 7.12424 42.6399 6.82424C41.9835 7.21037 41.5358 7.83506 41.2047 8.49105C41.2119 8.73199 41.2192 8.97294 41.2266 9.21388C42.0893 9.63122 43.9839 10.5578 43.9399 11.1742C43.077 11.997 42.1739 12.8922 41.3759 13.8664C41.4278 15.4141 41.4817 16.9617 41.5368 18.5093C42.6309 18.988 44.325 19.9411 44.4899 20.7243C44.2939 21.0379 43.8826 21.1671 43.5213 21.2806C43.4219 21.3118 43.3262 21.3419 43.2399 21.3743C42.7399 21.8243 42.2899 22.2743 41.8899 22.7743C41.8264 22.8496 41.7628 22.9254 41.6994 23.0019C41.732 23.8927 41.7648 24.7834 41.7976 25.6742C41.8427 26.8999 41.8878 28.1257 41.9325 29.3514C42.0431 29.4183 42.1463 29.4774 42.2399 29.5243C43.8697 30.5614 44.0848 31.3546 42.018 31.7112C42.1128 34.3488 42.2047 36.9864 42.2897 39.6241C42.3396 41.3509 42.4075 43.0757 42.4901 44.799C43.2108 45.1981 43.8915 45.7362 44.3399 46.2743C44.3821 46.4008 44.2464 46.5273 44.1429 46.6238C44.1237 46.6417 44.1056 46.6586 44.0899 46.6742C43.5698 47.2756 43.1078 47.9245 42.6954 48.6055C42.8311 50.8814 42.9885 53.155 43.1602 55.4273C43.2631 55.4964 43.3645 55.5667 43.4642 55.636C43.6098 55.7369 43.7518 55.8354 43.8899 55.9242C45.4399 56.9242 45.3899 57.5743 43.6399 58.2243C43.5399 58.2576 43.4732 58.3242 43.4399 58.4242C43.4264 58.4455 43.4129 58.4668 43.3995 58.4881C43.5509 60.3654 43.7097 62.2421 43.872 64.1186ZM56.2868 115.141C56.5108 117.394 56.6238 119.653 56.6002 121.908C54.2493 122.005 51.8973 122.126 49.5507 122.299L49.5397 122.224C49.3018 120.334 49.0183 118.454 48.7024 116.58C51.2361 116.127 53.7652 115.65 56.2868 115.141ZM56.5367 124.029C54.304 124.124 52.0654 124.256 49.83 124.441C50.1268 126.979 50.3124 129.533 50.4721 132.088C51.4009 132.57 52.7612 133.536 51.6399 133.574C51.2834 133.618 50.9271 133.664 50.571 133.711L50.6113 134.388C50.7262 136.32 50.841 138.25 50.9927 140.172C52.7925 139.309 54.502 138.302 56.0925 137.161C55.3092 136.702 54.5765 136.112 54.1898 135.374C54.9898 133.074 55.6398 130.724 56.1398 128.324C56.3353 126.897 56.4654 125.464 56.5367 124.029ZM47.3008 132.213C47.279 131.037 47.2511 129.86 47.1897 128.674C47.1312 127.352 47.0535 126.029 46.956 124.708C42.7167 125.149 38.5023 125.801 34.3735 126.762C34.8367 129.419 35.4623 131.969 36.285 134.349C39.9362 133.538 43.6071 132.81 47.3008 132.213ZM37.0082 136.169C40.4356 135.42 43.8766 134.736 47.3364 134.185C47.3573 135.228 47.3854 136.273 47.4397 137.324C47.3799 139.18 47.6068 140.355 48.4319 141.279C46.9407 141.855 45.401 142.337 43.8273 142.719C43.1469 142.218 42.3089 141.694 41.6734 141.297C41.2606 141.039 40.9333 140.834 40.7902 140.724C38.9417 139.8 37.9048 137.979 37.0082 136.169ZM34.5441 134.743C33.3976 132.519 32.638 130.047 32.1323 127.317C28.29 128.327 24.5327 129.625 20.9107 131.291C21.0885 133.556 21.5351 135.794 22.4811 137.747C26.4813 136.694 30.5009 135.671 34.5441 134.743ZM22.922 138.574C23.2863 138.819 23.7102 139.011 24.0899 139.174C25.037 138.95 25.9846 138.725 26.9328 138.5L26.9402 138.498C29.8062 137.816 32.6782 137.133 35.5593 136.489C37.2048 139.01 39.4646 141.174 42.5717 143C37.7416 143.995 32.6336 144.047 27.6532 142.991C27.5864 142.945 27.5209 142.9 27.4573 142.856L27.3453 142.78C27.0117 142.551 26.7456 142.368 26.6398 142.274C24.9901 141.327 23.7891 140.051 22.922 138.574ZM46.1582 117.029C46.4048 118.856 46.6105 120.691 46.7771 122.53C42.4863 122.929 38.2218 123.537 34.0226 124.514C33.7778 122.746 33.598 120.941 33.4734 119.118C37.7026 118.441 41.9354 117.761 46.1582 117.029ZM31.4402 121.774C31.527 122.903 31.6369 123.997 31.7764 125.055C28.0401 125.979 24.3392 127.132 20.8117 128.68C20.8094 127.69 20.842 126.714 20.8898 125.774C20.9366 124.228 21.0055 122.684 21.0956 121.142C24.4847 120.562 27.8846 120.013 31.2884 119.468C31.3336 120.237 31.3842 121.006 31.4402 121.774ZM16.3402 130.924C16.9526 130.573 17.5728 130.238 18.1999 129.917C18.029 128.01 18.07 125.897 18.2898 123.524C18.345 122.885 18.3972 122.244 18.4475 121.601C17.4772 121.772 16.5078 121.946 15.5397 122.124C14.4897 122.024 13.0897 121.474 12.7397 120.474C12.902 120.451 13.0536 120.525 13.2093 120.6C13.3895 120.688 13.5752 120.778 13.7897 120.724C15.3839 120.431 16.9809 120.145 18.5798 119.863C18.6062 119.509 18.6324 119.155 18.6587 118.8L18.6587 118.8L18.6587 118.799L18.6587 118.799L18.6588 118.799L18.6588 118.799L18.6588 118.798C18.7419 117.674 18.8252 116.548 18.9156 115.42C18.4597 115.612 18.0015 115.798 17.5401 115.974C17.0401 115.874 15.8901 115.174 15.9401 114.724C16.4749 114.546 16.9744 114.244 17.47 113.945L17.4701 113.944C17.8086 113.74 18.1452 113.536 18.4901 113.374C18.6998 113.25 18.9105 113.128 19.122 113.008C19.327 110.784 19.5782 108.565 19.9279 106.371C19.6636 106.534 19.4008 106.702 19.1397 106.874C18.7627 106.799 17.3908 105.927 17.0173 105.396C16.071 107.138 15.2534 108.949 14.59 110.824C10.44 122.024 11.54 138.824 25.19 142.374C25.2851 142.402 25.3803 142.429 25.4755 142.456C21.6097 139.616 19.4563 136.521 18.574 132.427C18.4793 132.476 18.3847 132.525 18.2902 132.574C17.7402 132.424 15.9402 131.374 16.3402 130.924ZM32.105 93.2413C31.426 93.4931 30.754 93.7708 30.0901 94.0741C29.6031 94.3128 29.1544 94.5005 28.7712 94.6608C27.1477 95.3398 26.699 95.5274 29.4901 97.0241C30.2575 96.6128 31.0219 96.2391 31.7855 95.901C31.6694 96.9656 31.5671 98.0319 31.4782 99.0995C29.5563 99.4832 27.6567 99.9685 25.7897 100.574C25.0023 100.824 24.2367 101.121 23.4875 101.452C23.8323 99.7885 24.3326 98.1896 25.3398 96.9242C25.5734 96.6906 25.0212 96.2824 24.7846 96.1074L24.7398 96.0742C24.5794 95.9271 24.3868 95.7587 24.183 95.6127C26.0033 93.6684 27.9594 91.8537 29.99 90.1742C30.9671 89.4288 32.001 88.7118 33.0795 88.0572C32.9169 88.4469 32.8126 89.0068 32.6974 89.6253C32.6226 90.0271 32.5432 90.4536 32.4402 90.8742C32.3205 91.6621 32.2088 92.4512 32.105 93.2413ZM34.2736 94.9215C36.7409 94.0699 39.2231 93.563 41.7918 93.326C41.9624 94.6496 42.2343 96.2241 42.5537 97.8886C39.6517 97.9847 36.756 98.2256 33.8994 98.6704C34.0149 97.3903 34.141 96.1381 34.2736 94.9215ZM53.0397 100.274C53.169 100.279 53.2978 100.286 53.4259 100.292C53.9839 102.352 54.4939 104.435 54.9342 106.534C52.5127 106.355 50.037 106.414 47.6131 106.472C47.3254 106.479 47.0385 106.486 46.7525 106.492C46.4905 105.246 46.2243 103.999 45.958 102.751L45.9558 102.741C45.8337 102.169 45.7116 101.597 45.5897 101.024C45.5409 100.726 45.4877 100.427 45.4318 100.127C47.9817 100.09 50.5283 100.155 53.0397 100.274ZM33.687 101.219C36.7453 100.638 39.8738 100.327 43.0128 100.195C43.3694 101.933 43.7496 103.689 44.0973 105.294L44.0974 105.295L44.0974 105.295C44.1905 105.725 44.2812 106.144 44.3685 106.548C40.6719 106.731 36.9555 107.138 33.318 107.876C33.3928 105.618 33.5219 103.387 33.687 101.219ZM31.2859 101.737C28.3988 102.435 25.5905 103.402 22.9132 104.719C22.8307 105.181 22.7422 105.635 22.6398 106.074C22.3747 107.902 22.1368 109.73 21.9273 111.558C24.8435 110.188 27.9002 109.154 31.0324 108.387C31.0637 106.168 31.1469 103.95 31.2859 101.737ZM21.7868 98.3486C21.3039 99.8518 20.9046 101.381 20.5698 102.928C19.5174 103.518 18.4848 104.146 17.4545 104.772L17.3156 104.856C18.6048 102.566 20.1151 100.395 21.7868 98.3486ZM56.0189 112.831C55.8332 111.425 55.6076 110.023 55.3482 108.627C52.6344 108.484 49.9054 108.452 47.1793 108.544C47.5887 110.536 47.9821 112.53 48.3437 114.529C50.91 114 53.4694 113.437 56.0189 112.831ZM45.8716 115.029C45.7088 113.958 45.5316 112.889 45.3397 111.824C45.369 111.463 45.155 110.289 44.8163 108.656C40.9307 108.892 37.0616 109.391 33.2612 110.195C33.2241 112.567 33.2529 114.957 33.3686 117.326C37.5427 116.603 41.7148 115.854 45.8716 115.029ZM31.1942 117.7C31.083 115.371 31.0228 113.039 31.0183 110.707C30.5409 110.824 30.0648 110.947 29.5901 111.074C26.9829 111.757 24.5299 112.883 22.0755 114.01L21.6439 114.208C21.4719 115.939 21.3256 117.671 21.2062 119.406C23.1521 119.07 25.1005 118.738 27.0498 118.407L27.0548 118.406L27.0601 118.405L27.061 118.405L27.0619 118.405L27.0628 118.405L27.0637 118.405L27.0646 118.404L27.0654 118.404L27.0663 118.404C28.4419 118.17 29.8181 117.936 31.1942 117.7ZM3.04003 158.724C0.0915598 156.758 0.283771 156.582 1.9625 155.043L1.96254 155.043C2.24807 154.781 2.57662 154.48 2.94003 154.124C4.56764 152.647 6.09493 151.019 7.61609 149.398L7.61629 149.397C9.13252 147.781 10.6427 146.172 12.24 144.724C14.2953 145.992 14.0559 146.266 12.96 147.519L12.9597 147.519C12.8027 147.699 12.628 147.898 12.44 148.124C11.7836 148.901 11.1247 149.697 10.4609 150.499C8.09088 153.362 5.65699 156.302 3.04003 158.724ZM28.2901 163.724C28.4901 165.324 30.2901 166.574 31.6401 167.324C31.9401 167.474 31.9401 167.124 31.8901 166.924C31.8401 165.274 31.7651 163.637 31.6901 161.999C31.6151 160.362 31.5401 158.724 31.4901 157.074C31.9901 156.324 27.8901 152.424 27.8901 153.774C28.0872 157.026 28.1872 160.326 28.2857 163.579L28.2901 163.724ZM56.1402 165.024C53.6611 163.885 52.7982 160.861 51.9723 157.966C51.5655 156.54 51.1677 155.146 50.5902 154.024C49.3902 151.574 51.5402 153.524 52.2402 154.274C53.0781 155.733 53.627 157.365 54.174 158.991C54.5083 159.984 54.8419 160.976 55.2402 161.924C55.2586 162.127 55.4608 162.609 55.681 163.134C56.0577 164.032 56.4873 165.056 56.1402 165.024ZM66.4899 146.824C69.1899 151.974 74.0399 160.924 79.2399 163.574C80.2087 163.877 78.4275 161.595 76.8382 159.558C75.8029 158.232 74.849 157.009 74.7899 156.674C74.0264 155.602 73.4107 154.414 72.797 153.229C71.5218 150.768 70.2553 148.324 67.6899 146.974C67.5399 146.874 66.2899 146.124 66.4899 146.824ZM90.6402 147.474C86.2402 144.874 81.9902 141.974 78.2402 138.474C75.7402 136.474 75.4902 134.874 78.4402 137.774C80.9902 140.174 83.8902 142.174 86.8902 144.024C87.5902 144.374 91.5402 146.874 90.6402 147.474Z" fill="black"/>
</svg>
