<svg width="60" height="83" viewBox="0 0 60 83" fill="none" xmlns="http://www.w3.org/2000/svg">
<path fill-rule="evenodd" clip-rule="evenodd" d="M39.8027 36.7804C39.8369 36.754 39.8768 36.7297 39.9227 36.7078C40.4471 36.2115 40.9802 35.7222 41.5136 35.2327C43.8283 33.1085 46.1473 30.9804 47.7727 28.2578C51.5227 22.3578 51.8727 15.0578 51.0227 8.25777C50.8632 6.5994 50.5614 4.98172 50.2599 3.3658L50.2598 3.36551C50.0886 2.44807 49.9176 1.5312 49.7727 0.607771C49.7661 0.581401 49.7586 0.555031 49.7513 0.529234C49.7033 0.359377 49.6623 0.214363 49.9227 0.257771C50.8727 0.757771 52.1227 1.65777 52.3727 2.75777H52.3227C54.9343 17.5899 55.8948 29.4111 42.6171 39.0351C44.3871 40.7249 45.8163 42.7385 46.6229 45.1078C47.3599 47.1039 47.9648 49.2886 48.0092 51.4418L48.0225 51.4577V52.2077L48.0009 52.1999C47.9532 53.2939 47.7462 54.373 47.3228 55.4078C46.3228 57.7578 44.4228 59.5578 42.5228 61.1578C38.5728 64.6078 33.2228 66.3578 28.1728 64.4078C15.2228 59.7078 10.2728 43.1578 23.6728 35.5078C27.5228 33.0078 32.8228 31.8078 36.6728 34.9578C37.7429 35.4928 38.7975 36.0991 39.8027 36.7804ZM45.4274 49.4959C45.3494 46.2098 43.9862 42.8559 42.399 40.0897C42.2183 40.169 42.0396 40.2528 41.8627 40.341L41.8729 40.3578L41.2729 40.6578L41.2702 40.6565C39.9701 41.3935 38.7751 42.3681 37.6783 43.5069C37.9111 43.913 38.1562 44.3105 38.417 44.6961C38.8835 44.0844 39.4198 43.5377 40.0728 43.1077C40.9851 42.9709 41.7726 43.8329 42.3973 44.5166C42.4573 44.5823 42.5158 44.6464 42.5728 44.7077C42.9228 45.1577 42.8228 45.4077 42.2728 45.0577C41.5471 45.6064 40.9593 46.2929 40.4494 47.0484C41.3992 47.7136 42.4875 48.1819 43.5745 48.6495L43.5745 48.6495C44.2015 48.9193 44.8281 49.1888 45.4274 49.4959ZM40.0055 47.7528C41.5938 49.0525 43.3756 50.1674 45.3576 51.1024C45.2482 52.0583 45.0124 52.999 44.6229 53.9078C43.1093 56.3943 40.8758 58.6845 38.2782 60.2971C37.4745 59.5799 36.328 58.8258 35.9728 58.9077C35.7498 58.8674 35.5308 58.8258 35.3156 58.7829C35.7633 57.0889 36.3228 55.4278 36.9972 53.8087C38.7039 54.9811 40.5211 55.9696 42.3226 56.7578C42.7446 56.1085 40.4897 54.9534 38.6098 53.9903C38.1019 53.7301 37.6214 53.4839 37.2284 53.2655C37.4933 52.6566 37.7747 52.0538 38.0728 51.4577C38.3408 50.9663 38.5964 50.4523 38.8546 49.9332L38.8547 49.9331L38.8549 49.9326C39.2192 49.2001 39.5887 48.4573 40.0055 47.7528ZM37.7622 45.6585C37.4171 45.2911 37.0836 44.9123 36.7617 44.522C35.4247 46.0972 34.2468 47.9084 33.2136 49.8004C33.6857 50.3681 34.1942 50.9033 34.735 51.399C35.1075 50.5922 35.5042 49.795 35.9228 49.0077C36.2038 48.5277 36.4683 48.0231 36.735 47.5143L36.735 47.5142C37.0626 46.8892 37.3935 46.2579 37.7622 45.6585ZM36.1824 40.5185C37.1049 39.6961 38.0432 39.057 38.9531 38.7316C38.6592 38.3869 38.3859 38.0302 38.1332 37.6816C37.2248 37.6713 36.273 38.1037 35.4789 38.4644L35.343 38.5261C35.4259 38.7336 35.5015 38.9449 35.5725 39.1577L35.6918 39.4253C35.8541 39.7891 36.0169 40.1542 36.1824 40.5185ZM33.5975 39.5967C33.983 40.3769 34.3981 41.1257 34.8432 41.8435C33.4718 43.3284 32.1876 45.093 31.1487 46.6713C30.4585 45.3246 29.9487 43.8895 29.6539 42.4241C30.9202 41.4086 32.2467 40.4677 33.5975 39.5967ZM32.3178 36.601C32.3441 36.6727 32.3706 36.7442 32.3973 36.8155C31.2475 37.4272 30.0904 38.2537 28.9885 39.1441C28.6098 38.8306 28.0899 38.4887 28.0226 38.7578C28.0061 39.1597 28.007 39.5569 28.0244 39.9491C27.0032 40.8275 26.0499 41.7237 25.2197 42.504L25.2195 42.5043C24.7432 42.952 24.3075 43.3615 23.9228 43.7078C23.2083 44.3794 22.551 45.096 21.9508 45.8528C21.9081 45.7223 21.8654 45.5906 21.8228 45.4577C21.7882 45.2852 21.4322 44.8685 20.9765 44.4316C23.2113 40.8529 27.0639 38.2107 31.0728 36.9078C31.4724 36.7898 31.8901 36.6849 32.3178 36.601ZM29.0725 50.1078C29.4096 49.4883 29.9376 48.5716 30.6014 47.5203C29.732 46.2098 29.043 44.8016 28.5948 43.3036C26.5445 45.0681 24.6895 47.0438 23.1955 49.2531C24.1939 51.6387 25.3229 53.5001 26.8556 54.954C27.5154 53.3125 28.2418 51.6971 29.0725 50.1078ZM34.5107 51.8926C33.9517 51.4084 33.415 50.9016 32.9064 50.3732C31.7322 52.6023 30.754 54.9203 29.949 57.0788C30.6699 57.4326 31.4578 57.7459 32.3238 58.0234C32.8807 55.9268 33.6213 53.8813 34.5107 51.8926ZM36.8098 61.1154C36.1576 60.9625 35.516 60.782 34.886 60.5753C34.7833 61.052 34.6891 61.531 34.6035 62.0122C35.3553 61.7723 36.0929 61.4705 36.8098 61.1154ZM31.986 59.4021C31.16 59.0017 30.3602 58.5542 29.5894 58.0635C29.4442 58.4696 29.3053 58.8683 29.1725 59.2578C29.1059 59.2911 29.0392 59.2911 28.9726 59.2578C27.8726 58.7578 26.6726 57.9578 26.1226 56.8578C26.2578 56.4918 26.3956 56.1271 26.5363 55.7636C24.8951 54.3138 23.445 52.6454 22.2264 50.8105C21.5942 51.9207 21.0536 53.0856 20.6228 54.3078H20.4728C20.1586 54.1386 19.6107 53.8409 19.168 53.4824C19.8724 57.5927 22.6029 61.3362 26.9729 62.0578C28.5965 62.607 30.2515 62.7571 31.878 62.5891C31.6291 62.2571 31.4939 61.9049 31.5728 61.5577C31.688 60.8337 31.8262 60.1151 31.986 59.4021ZM19.9201 46.4903C20.1143 46.9569 20.322 47.4169 20.5428 47.8697C19.9456 48.8459 19.429 49.8733 18.9932 50.944C18.9991 50.7649 19.009 50.5861 19.0229 50.4078C19.1066 49.0254 19.4207 47.7155 19.9201 46.4903ZM24.3225 82.6077C23.2725 82.0577 22.1226 81.2077 21.6226 80.1077C22.4226 77.2077 22.9225 74.2077 22.4225 71.2077C22.2225 70.5077 22.7726 70.7577 23.1226 71.0077C25.2226 72.3077 25.3725 73.4577 25.4225 75.7577C25.5095 77.6268 25.143 79.4958 24.7829 81.332L24.7829 81.3321C24.7288 81.6081 24.6748 81.8833 24.6226 82.1577C24.6115 82.1908 24.603 82.236 24.5936 82.2853C24.5604 82.4597 24.5175 82.6857 24.3225 82.6077ZM39.9229 75.3077C41.3729 76.9577 42.9228 78.7077 44.8228 79.9077C45.4754 79.639 43.8881 78.2503 42.9346 77.4161C42.6462 77.1638 42.4157 76.9622 42.3228 76.8577C41.0264 75.7285 40.3596 74.1096 39.708 72.5276L39.7078 72.5273C39.5804 72.218 39.4536 71.9102 39.3228 71.6077C38.8228 70.8077 37.9229 69.6077 36.9229 69.4077C37.5229 71.5077 38.5729 73.5577 39.9229 75.3077ZM57.2225 69.5578C53.7225 68.6578 50.0225 67.2078 47.9225 64.1078C47.8225 63.9078 48.1225 64.0578 48.2225 64.1078C50.0725 66.0078 52.4725 66.8578 55.0225 67.3578C55.5225 67.2578 57.9225 69.4078 57.2225 69.5578ZM0.822675 50.9578C3.22268 54.1578 7.02269 55.9078 10.8727 56.5578C11.2727 56.6578 11.0727 56.2078 10.9227 56.1078C9.87268 54.5578 8.17268 53.8578 6.42268 53.5078C4.81319 53.2832 3.624 52.4422 2.39365 51.572C1.98047 51.2798 1.56264 50.9843 1.12269 50.7078C0.872693 50.5078 0.622675 50.6578 0.822675 50.9578ZM7.9876 29.6866C7.90619 29.5447 7.83416 29.4016 7.77246 29.2577C8.31994 29.6367 8.76988 30.131 9.21936 30.6248L9.21946 30.625C9.40308 30.8267 9.58663 31.0283 9.77673 31.222L9.82275 31.2578C11.6728 31.8578 13.4728 32.6078 14.7728 34.1578C15.0228 34.3578 15.9228 35.3578 15.1728 35.3078C11.1728 35.0578 2.42277 26.2078 7.87277 29.6078C7.91157 29.6337 7.94983 29.6599 7.9876 29.6866ZM23.9899 20.7036C24.6594 23.7544 25.4137 27.1922 28.0728 28.4077C28.3728 28.4577 28.2728 28.1077 28.1728 27.9577C27.5228 25.8577 26.9228 23.6577 26.4228 21.5077C26.3228 20.1077 25.4228 19.1077 24.2728 18.3077C24.2228 18.2577 23.3728 17.6577 23.3228 18.0077C23.575 18.8126 23.7782 19.7387 23.9899 20.7036ZM34.4228 27.1577C32.7228 26.3077 32.8728 25.5577 33.5228 24.0077C34.5728 21.3577 35.7728 18.7077 37.0728 16.2577C37.6228 16.4577 39.1728 17.5577 38.6728 18.1577C38.3297 18.8557 37.9754 19.551 37.6205 20.2474C36.4755 22.4941 35.3243 24.7531 34.5228 27.1577H34.4228ZM7.82275 67.6577C7.52275 67.6077 5.07276 65.7578 6.12276 65.8577C8.29162 65.8995 10.3561 65.1061 12.4033 64.3195L12.4039 64.3192C12.8107 64.1629 13.2167 64.0069 13.6228 63.8578C14.0728 63.5078 15.8227 64.9077 15.8227 65.4077C15.2711 65.6132 14.7149 65.8421 14.1534 66.0732L14.1529 66.0734C12.1189 66.9103 10.0169 67.7753 7.82275 67.6577ZM50.3228 41.6577C50.6228 42.2577 51.3228 42.7577 51.9728 43.0577C54.0833 42.7 55.8867 41.3954 57.6576 40.1143C58.3621 39.6047 59.0613 39.0988 59.7728 38.6577C59.8228 38.3077 58.2728 36.8577 57.9228 37.4577C57.2928 37.8497 56.6746 38.2613 56.0583 38.6716C54.4733 39.7268 52.9008 40.7737 51.1728 41.4577C51.0487 41.5322 50.8877 41.545 50.7326 41.5574C50.575 41.57 50.4235 41.5822 50.3228 41.6577Z" fill="black"/>
</svg>
