<svg width="39" height="42" viewBox="0 0 39 42" fill="none" xmlns="http://www.w3.org/2000/svg">
<path fill-rule="evenodd" clip-rule="evenodd" d="M8.56593 41.7914C1.31593 39.3914 -2.08408 32.4414 3.61591 26.2914C7.01591 22.3914 12.0159 22.8414 15.0659 26.8914C15.1159 26.9414 15.7159 27.6414 15.4159 27.6914C10.8159 23.2414 5.26594 28.6414 4.26594 33.5914C3.11594 38.7914 5.56593 39.1914 10.0659 38.3414C24.1659 33.6914 24.2159 13.7414 25.7159 1.39141C25.5159 -0.458591 28.0659 2.24141 28.5159 2.64141C29.2159 3.29141 29.4659 4.04141 29.5159 4.94141C29.9659 7.04141 30.4659 9.09141 31.0159 11.1414C31.5659 13.8914 31.9159 13.4414 34.4659 13.9414C35.8159 14.0914 37.9659 15.9914 38.2659 17.2414C34.3159 17.2414 30.5159 14.8914 28.5659 11.5914C27.0659 22.4914 24.6659 41.9414 10.8159 41.9414C10.1159 41.9414 9.36593 41.8914 8.56593 41.7914Z" fill="black"/>
</svg>
