<svg width="38" height="47" viewBox="0 0 38 47" fill="none" xmlns="http://www.w3.org/2000/svg">
<path fill-rule="evenodd" clip-rule="evenodd" d="M12.6925 22.95C4.19248 19.2 -0.957518 31.7 0.692482 38.45C2.24248 42.8 6.89245 46.35 11.5924 46.35H11.9425C24.7727 44.5589 25.0164 31.7312 23.0669 20.3311C24.2521 21.2418 25.5473 22.0134 26.8425 22.65C27.6425 23 28.5925 23.35 29.4925 23.35H29.7925C30.2425 23.3 30.7425 23.15 31.1425 22.85C30.8548 22.0689 30.1951 21.5244 29.5528 20.9942C29.4139 20.8795 29.2759 20.7656 29.1425 20.65C27.224 19.1631 27.0538 19.1946 26.0721 19.3762C26.0305 19.3839 25.9873 19.3919 25.9425 19.4C25.5425 19.45 25.0925 19.5 24.4425 19.55C23.8664 19.55 23.6274 19.187 23.3706 18.797C23.2709 18.6455 23.1684 18.49 23.0425 18.35C22.981 18.2621 22.8283 18.1032 22.6178 17.9068C22.003 14.8107 21.2762 11.8942 20.6609 9.42533C20.6209 9.26498 20.5814 9.10651 20.5425 8.95001C22.9925 11.2 25.9425 13.05 29.2425 13.6C31.7925 14.1 34.4425 14.05 37.0425 13.9C37.0665 13.894 37.0905 13.8887 37.114 13.8835C37.2862 13.8457 37.4304 13.8139 37.3424 13.55C36.3924 12.1 34.8925 10.75 33.2425 10.25C29.4925 10.6 25.2425 10.9 21.8925 8.85001C20.1925 7.30001 19.5425 5.20001 18.8925 3.10001C17.9925 1.95001 16.6425 0.4 15.1925 0.25C14.979 1.03291 15.348 1.79049 15.7047 2.52275C15.8491 2.81932 15.9916 3.11173 16.0924 3.39999C17.2924 8.04999 18.4924 12.75 19.3424 17.5C21.2924 26.75 20.7425 41.35 8.89249 42.95C7.59249 43.05 6.04245 43.1 4.84245 42.45C3.04245 39.05 3.89248 34.85 5.19248 31.4C6.59248 27.25 11.4425 22.4 15.7425 25.85C16.0925 26.35 17.8425 28.15 18.3925 27.75C17.3925 25.5 14.8925 24 12.6925 22.95Z" fill="black"/>
</svg>
