<svg width="155" height="133" viewBox="0 0 155 133" fill="none" xmlns="http://www.w3.org/2000/svg">
<path fill-rule="evenodd" clip-rule="evenodd" d="M76.5381 78.7C75.1381 78 73.2381 76.95 72.7881 75.4L72.7882 75.3994C73.1381 73.1996 73.4881 70.9998 73.5881 68.8C73.9789 59.6164 73.7758 50.4116 73.5728 41.2132V41.2128V41.2124V41.212V41.2116V41.2113C73.4642 36.2876 73.3555 31.3658 73.3381 26.45C73.3281 24.7413 73.3361 23.0265 73.3441 21.309V21.3089C73.3761 14.4325 73.4083 7.51122 72.2881 0.75C73.2356 0.789479 74.0272 1.51474 74.7615 2.1874C74.9571 2.36666 75.1487 2.54219 75.3381 2.70001C76.272 3.91066 76.4402 5.57596 76.6042 7.19929L76.6042 7.19946L76.6042 7.19962L76.6042 7.19977L76.6043 7.19992L76.6043 7.20006C76.6773 7.923 76.7494 8.63759 76.8881 9.29999C77.573 16.4298 77.6182 23.5789 77.6635 30.7354C77.6909 35.0718 77.7183 39.4109 77.8881 43.75C78.1381 52.15 78.0381 60.55 77.7881 68.95C77.7381 72.1499 77.2881 75.2998 76.8382 78.4497L76.8381 78.45C76.8381 78.65 76.6881 78.75 76.5381 78.7ZM49.3884 81.4C61.1384 86.65 74.0884 87.45 86.7884 87.45C94.949 87.5169 102.908 85.8612 110.876 84.2037C114.819 83.3833 118.765 82.5625 122.738 81.95C124.088 81.85 120.788 79.1 119.838 78.95C114.664 79.4992 109.54 80.533 104.409 81.5684C100.664 82.324 96.9143 83.0804 93.1384 83.65C86.8884 84.5 80.5384 84.45 74.2384 84.3C64.0384 84.25 53.8384 82.4 44.5884 78.1C41.343 76.6373 38.2229 75.0074 35.0754 73.3631L34.8101 73.2246L34.1884 72.9C34.1384 72.85 33.6884 72.65 33.7884 72.95C34.7171 74.2915 36.2374 75.0177 37.7307 75.7311C38.4081 76.0546 39.0799 76.3755 39.6884 76.75C42.8884 78.4 46.0884 80.05 49.3884 81.4ZM71.8381 111.75C77.5381 112.9 83.2881 113.9 89.0881 113.9C96.1381 114 102.838 111.45 109.138 108.45C115.738 105.65 120.938 100.7 124.188 94.35L124.238 94.2694C124.616 93.6582 124.913 93.177 124.338 92.65C124.175 92.4959 124.008 92.3285 123.836 92.1562C123.004 91.3228 122.057 90.3743 120.938 90.25C120.829 90.4171 120.719 90.5847 120.61 90.7525L120.603 90.7627C118.058 94.6592 115.411 98.7116 111.388 101.25C104.088 105.75 95.9381 109.55 87.2881 110.25C80.1121 110.745 72.985 109.329 66.0039 107.943L65.7881 107.9C61.4881 107.05 57.1881 106.05 53.1381 104.4C47.6381 102.45 42.8881 98.9 40.2881 93.55C39.7105 92.638 39.2022 91.6427 38.6901 90.6402C37.5179 88.3451 36.3261 86.0116 34.2381 84.55C31.6288 82.8232 32.2883 83.8353 33.0978 85.0774C33.343 85.4537 33.6021 85.8512 33.7881 86.2C37.6881 94.25 42.5381 100.75 50.6881 104.75C57.2381 108.45 64.5381 110.3 71.8381 111.75ZM47.7799 49.3035C54.3625 48.6668 60.6798 48.0558 66.8385 52.7001C67.9385 52.4001 64.7384 50.0001 64.1385 49.6001C59.6385 46.4501 54.1385 44.9501 48.6385 45.6001C46.991 45.6611 45.2877 45.8943 43.5711 46.1293C39.6612 46.6647 35.6825 47.2094 32.1385 45.7501C30.9402 40.5453 36.1355 36.4902 40.5843 33.0179C42.076 31.8535 43.4838 30.7547 44.5384 29.7001C52.8384 22.7501 60.5885 15.0501 66.3385 5.85009C67.1171 5.39932 65.8805 4.34402 65.1613 3.73016C65.0029 3.59501 64.8696 3.48127 64.7884 3.40007C64.643 3.31056 64.4775 3.17847 64.3015 3.038C63.691 2.55078 62.9542 1.9627 62.4885 2.70009C62.005 3.44043 61.5397 4.1899 61.0748 4.93884C60.0013 6.66837 58.9294 8.39509 57.6385 10.0001C54.0385 14.5501 49.9384 18.7001 45.6884 22.6001C44.3657 24.0827 42.1429 25.7935 39.7178 27.6601C33.8009 32.2141 26.6798 37.6949 28.4885 43.0501C30.1885 46.7001 34.0885 49.2001 37.9885 49.6501C41.323 49.928 44.5828 49.6127 47.7799 49.3035ZM132.238 117.55C126.788 115.6 120.838 115.8 115.188 116.35C114.812 116.398 114.432 116.464 114.053 116.53C112.069 116.874 110.138 117.209 109.088 114.9C114.388 113.95 119.988 113.35 125.388 114C126.755 114.139 128.068 114.514 129.372 114.887C130.883 115.318 132.382 115.746 133.938 115.8C136.645 115.752 139.234 115.061 141.819 114.372C144.584 113.634 147.344 112.898 150.238 112.95C151.678 112.635 152.753 113.737 153.683 114.689L153.684 114.69C153.787 114.796 153.888 114.9 153.988 115L154.025 115.046C154.651 115.815 154.962 116.198 153.638 116.1C150.748 115.98 147.89 116.639 145.048 117.295C140.76 118.284 136.508 119.264 132.238 117.55ZM11.9383 100.05C8.73827 99.7 -4.96171 103.6 2.38829 107.3C2.38829 103.3 12.8883 101.35 16.3883 102.45C17.8946 103.165 19.1107 103.831 20.1814 104.418L20.1815 104.418C23.9796 106.499 25.9465 107.576 32.5383 106.25C34.7383 105.8 37.1383 105.8 39.2883 105.8C38.0383 103.1 34.8883 103.1 32.3383 103.55C23.3766 105.44 21.5322 104.245 19.158 102.707C17.6378 101.722 15.9004 100.597 11.9383 100.05ZM58.568 121.451L58.5679 121.451L58.5678 121.451C57.7499 121.057 56.9346 120.665 56.0883 120.35C52.5883 119.2 48.9383 118.35 45.2383 118.2C41.5383 118.35 36.8383 118.75 34.3383 121.8C33.1383 121.65 31.1883 120.3 30.7383 119.2C33.9383 115.75 39.5883 115.4 43.9883 115.75C47.4883 116.2 50.9383 116.95 54.1883 118.2C54.6761 118.419 55.1626 118.652 55.6503 118.885L55.6507 118.885C58.0617 120.039 60.502 121.207 63.2883 120.75L63.9383 120.641C67.627 120.024 71.3604 119.4 75.1383 119.4C76.0883 119.8 77.7383 120.7 77.9883 121.65C75.7685 121.629 73.5578 122.026 71.3524 122.423C68.3914 122.956 65.4398 123.487 62.4883 123C61.0937 122.667 59.8278 122.057 58.568 121.451ZM106.051 130.631C107.609 131.283 109.171 131.938 110.838 132.3C114.331 133.326 117.763 132.544 121.211 131.758C123.144 131.317 125.081 130.876 127.038 130.75C128.138 130.55 124.688 128 123.988 128.05C121.944 128.109 119.924 128.577 117.905 129.045C114.788 129.768 111.675 130.489 108.488 129.7C106.812 129.299 105.151 128.668 103.49 128.036C99.3544 126.464 95.2113 124.888 90.7882 126.85C90.6917 126.894 90.5123 126.962 90.2846 127.049C89.2138 127.458 87.0758 128.273 87.4881 128.85C88.2381 129.7 90.1882 131.75 91.3382 131.25C94.1382 129.5 97.5881 128.4 100.938 128.9C102.721 129.236 104.384 129.932 106.051 130.631Z" fill="black"/>
</svg>
